<?xml version="1.0" encoding="utf-8"?>
<!-- Generator: Adobe Illustrator 13.0.2, SVG Export Plug-In  -->
<!DOCTYPE svg PUBLIC "-//W3C//DTD SVG 1.1//EN" "http://www.w3.org/Graphics/SVG/1.1/DTD/svg11.dtd" [
	<!ENTITY ns_flows "http://ns.adobe.com/Flows/1.0/">
]>
<svg version="1.1"
	 xmlns="http://www.w3.org/2000/svg" xmlns:xlink="http://www.w3.org/1999/xlink" xmlns:a="http://ns.adobe.com/AdobeSVGViewerExtensions/3.0/"
	 x="0px" y="0px" width="80px" height="16px" viewBox="-0.165 -0.181 80 16" enable-background="new -0.165 -0.181 80 16"
	 xml:space="preserve">
<defs>
</defs>
<path fill="#0081C6" d="M53.985,0v14.887h2.554V5.796c0.506-0.361,1.442-0.623,2.499-0.66c0.282-0.007,0.82-0.006,1.169,0
	c1.831,0.04,2.645,0.846,2.645,2.649v7.102h2.556V7.543c0-3.105-1.318-4.373-4.487-4.427c-0.618-0.011-1.085-0.009-1.698,0.002
	c-0.978,0.022-1.924,0.207-2.683,0.658V0H53.985"/>
<path fill="#0081C6" d="M51.359,12.741c-0.527,0.052-1.052,0.074-1.466,0.074c-1.882,0-2.495-0.498-2.495-2.557V5.02h3.465V3.116
	h-3.465V0h-2.557v3.116h-2.727V5.02h2.727v4.881c0,3.685,1.275,4.986,4.697,4.986c0.524,0,1.213-0.034,1.82-0.1V12.741"/>
<path fill="#0081C6" d="M23.685,4.096C22.99,3.509,21.97,3.21,20.5,3.14c-0.51-0.029-0.859-0.035-1.75,0
	c-1.618,0.048-3.328,0.523-4.524,1.28v10.467h2.555V5.671c0.574-0.354,1.473-0.504,2.097-0.526c0.566-0.016,0.902-0.025,1.375,0
	c1.368,0.072,2.15,0.633,2.15,2.106v7.636h2.555V7.401c0-0.626-0.074-1.139-0.208-1.582c0.526-0.448,1.512-0.673,2.192-0.698
	c0.568-0.017,0.941-0.025,1.418,0c1.411,0.072,2.147,0.633,2.147,2.106v7.66h2.556v-7.51c0-3.016-1.191-4.218-4.455-4.261
	c-0.545-0.008-0.776-0.013-1.667,0C25.724,3.135,24.493,3.47,23.685,4.096"/>
<path fill="#0081C6" d="M6.488,9.844c2.018,0.25,2.718,0.238,2.718,1.577c0,1.118-0.201,1.484-1.886,1.484H0.295v1.982h6.804
	c3.196,0,4.59-0.844,4.676-2.996c0.01-0.266,0.01-0.905,0-1.216c-0.063-1.925-1.254-2.415-3.8-2.718L5.277,7.633
	c-1.984-0.243-2.676-0.2-2.676-1.396c0-0.795,0.329-1.131,1.616-1.131h6.536v-1.99H4.387c-2.902,0-4.383,0.715-4.383,2.893
	c0,0.268-0.01,0.409,0,0.719c0.064,1.928,1.121,2.47,3.767,2.787L6.488,9.844"/>
<path fill="#0081C6" d="M74.383,9.844c2.019,0.25,2.72,0.238,2.72,1.577c0,1.119-0.201,1.484-1.888,1.484h-7.021v1.982h6.802
	c3.192,0,4.586-0.844,4.675-2.996c0.009-0.266,0.009-0.905,0-1.216c-0.063-1.925-1.254-2.415-3.803-2.718l-2.693-0.324
	c-1.986-0.243-2.678-0.2-2.678-1.396c0-0.795,0.328-1.131,1.615-1.131h6.539v-1.99h-6.37c-2.902,0-4.382,0.715-4.382,2.893
	c0,0.268-0.009,0.409,0,0.719c0.063,1.928,1.12,2.47,3.768,2.787L74.383,9.844"/>
<path fill="#0081C6" d="M36.467,3.116v6.762c0,3.127,0.768,5.009,4.588,5.009c0.39,0,0.938-0.018,1.245-0.047l-0.002-2.071
	c-0.208,0.009-0.525,0.02-0.772,0.02c-2.044,0-2.505-0.621-2.505-2.554V3.116H36.467"/>
</svg>
