<?xml version="1.0" encoding="UTF-8" standalone="no"?>
<svg width="80px" height="15px" viewBox="0 0 80 15" version="1.1" xmlns="http://www.w3.org/2000/svg" xmlns:xlink="http://www.w3.org/1999/xlink" xmlns:sketch="http://www.bohemiancoding.com/sketch/ns">
    <!-- Generator: Sketch 3.5 (25232) - http://www.bohemiancoding.com/sketch -->
    <title>smiths-group-logo</title>
    <desc>Created with Sketch.</desc>
    <defs></defs>
    <g id="Page-1" stroke="none" stroke-width="1" fill="none" fill-rule="evenodd" sketch:type="MSPage">
        <g id="smiths-group-logo" sketch:type="MSLayerGroup" fill="#FFFFFF">
            <path d="M53.985,0 L53.985,14.887 L56.539,14.887 L56.539,5.796 C57.045,5.435 57.981,5.173 59.038,5.136 C59.32,5.129 59.858,5.13 60.207,5.136 C62.038,5.176 62.852,5.982 62.852,7.785 L62.852,14.887 L65.408,14.887 L65.408,7.543 C65.408,4.438 64.09,3.17 60.921,3.116 C60.303,3.105 59.836,3.107 59.223,3.118 C58.245,3.14 57.299,3.325 56.54,3.776 L56.54,0 L53.985,0" id="Shape" sketch:type="MSShapeGroup"></path>
            <path d="M51.359,12.741 C50.832,12.793 50.307,12.815 49.893,12.815 C48.011,12.815 47.398,12.317 47.398,10.258 L47.398,5.02 L50.863,5.02 L50.863,3.116 L47.398,3.116 L47.398,0 L44.841,0 L44.841,3.116 L42.114,3.116 L42.114,5.02 L44.841,5.02 L44.841,9.901 C44.841,13.586 46.116,14.887 49.538,14.887 C50.062,14.887 50.751,14.853 51.358,14.787 L51.358,12.741" id="Shape" sketch:type="MSShapeGroup"></path>
            <path d="M23.685,4.096 C22.99,3.509 21.97,3.21 20.5,3.14 C19.99,3.111 19.641,3.105 18.75,3.14 C17.132,3.188 15.422,3.663 14.226,4.42 L14.226,14.887 L16.781,14.887 L16.781,5.671 C17.355,5.317 18.254,5.167 18.878,5.145 C19.444,5.129 19.78,5.12 20.253,5.145 C21.621,5.217 22.403,5.778 22.403,7.251 L22.403,14.887 L24.958,14.887 L24.958,7.401 C24.958,6.775 24.884,6.262 24.75,5.819 C25.276,5.371 26.262,5.146 26.942,5.121 C27.51,5.104 27.883,5.096 28.36,5.121 C29.771,5.193 30.507,5.754 30.507,7.227 L30.507,14.887 L33.063,14.887 L33.063,7.377 C33.063,4.361 31.872,3.159 28.608,3.116 C28.063,3.108 27.832,3.103 26.941,3.116 C25.724,3.135 24.493,3.47 23.685,4.096" id="Shape" sketch:type="MSShapeGroup"></path>
            <path d="M6.488,9.844 C8.506,10.094 9.206,10.082 9.206,11.421 C9.206,12.539 9.005,12.905 7.32,12.905 L0.295,12.905 L0.295,14.887 L7.099,14.887 C10.295,14.887 11.689,14.043 11.775,11.891 C11.785,11.625 11.785,10.986 11.775,10.675 C11.712,8.75 10.521,8.26 7.975,7.957 L5.277,7.633 C3.293,7.39 2.601,7.433 2.601,6.237 C2.601,5.442 2.93,5.106 4.217,5.106 L10.753,5.106 L10.753,3.116 L4.387,3.116 C1.485,3.116 0.004,3.831 0.004,6.009 C0.004,6.277 -0.006,6.418 0.004,6.728 C0.068,8.656 1.125,9.198 3.771,9.515 L6.488,9.844" id="Shape" sketch:type="MSShapeGroup"></path>
            <path d="M74.383,9.844 C76.402,10.094 77.103,10.082 77.103,11.421 C77.103,12.54 76.902,12.905 75.215,12.905 L68.194,12.905 L68.194,14.887 L74.996,14.887 C78.188,14.887 79.582,14.043 79.671,11.891 C79.68,11.625 79.68,10.986 79.671,10.675 C79.608,8.75 78.417,8.26 75.868,7.957 L73.175,7.633 C71.189,7.39 70.497,7.433 70.497,6.237 C70.497,5.442 70.825,5.106 72.112,5.106 L78.651,5.106 L78.651,3.116 L72.281,3.116 C69.379,3.116 67.899,3.831 67.899,6.009 C67.899,6.277 67.89,6.418 67.899,6.728 C67.962,8.656 69.019,9.198 71.667,9.515 L74.383,9.844" id="Shape" sketch:type="MSShapeGroup"></path>
            <path d="M36.467,3.116 L36.467,9.878 C36.467,13.005 37.235,14.887 41.055,14.887 C41.445,14.887 41.993,14.869 42.3,14.84 L42.298,12.769 C42.09,12.778 41.773,12.789 41.526,12.789 C39.482,12.789 39.021,12.168 39.021,10.235 L39.021,3.116 L36.467,3.116" id="Shape" sketch:type="MSShapeGroup"></path>
        </g>
    </g>
</svg>