<?xml version="1.0" encoding="utf-8"?>
<!-- Generator: Adobe Illustrator 19.2.0, SVG Export Plug-In . SVG Version: 6.00 Build 0)  -->
<svg version="1.1" id="Layer_1" xmlns="http://www.w3.org/2000/svg" xmlns:xlink="http://www.w3.org/1999/xlink" x="0px" y="0px"
	 viewBox="0 0 24 24" style="enable-background:new 0 0 24 24;" xml:space="preserve">
<style type="text/css">
	.st0{display:none;}
	.st1{display:inline;}
	.st2{fill:none;stroke:#000000;stroke-linejoin:round;stroke-miterlimit:10;}
	.st3{fill:none;stroke:#000000;stroke-linecap:round;stroke-linejoin:round;stroke-miterlimit:10;}
</style>
<g id="Filled_Icon" class="st0">
	<path class="st1" d="M24,12.5C24,12.4,24,12.4,24,12.5c0-0.1,0-0.2-0.1-0.2c0,0,0,0,0,0L18.3,3c-0.6-0.9-1.8-1.3-2.7-0.7
		c-0.2,0.1-0.3,0.4-0.2,0.7c0.1,0.2,0.4,0.3,0.7,0.2c0.5-0.3,1.1-0.1,1.4,0.3l5.1,8.5H1.4l5.1-8.5c0.1-0.2,0.4-0.4,0.6-0.5
		C7.4,3,7.7,3,7.9,3.2C8.1,3.3,8.4,3.3,8.6,3c0.1-0.2,0.1-0.5-0.2-0.7C8,2.1,7.4,2,6.9,2.1C6.4,2.2,5.9,2.6,5.7,3l-5.6,9.2
		c0,0,0,0,0,0c0,0,0,0.1,0,0.1c0,0,0,0.1,0,0.1c0,0,0,0,0,0v11C0,23.8,0.2,24,0.5,24H9c0.2,0,0.3-0.1,0.4-0.2l2.6-4.3l2.6,4.3
		c0.1,0.1,0.3,0.2,0.4,0.2h8.5c0.3,0,0.5-0.2,0.5-0.5L24,12.5C24,12.5,24,12.5,24,12.5z M10.3,16.7l-2.9,5C7.3,21.9,7.2,22,7,22H2.5
		C2.2,22,2,21.8,2,21.5v-7C2,14.2,2.2,14,2.5,14H9c0.2,0,0.4,0.1,0.5,0.3l0.8,2C10.4,16.4,10.4,16.6,10.3,16.7z M22,21.5
		c0,0.3-0.2,0.5-0.5,0.5H17c-0.2,0-0.3-0.1-0.4-0.3l-2.9-5c-0.1-0.1-0.1-0.3,0-0.4l0.8-2c0.1-0.2,0.3-0.3,0.5-0.3h6.5
		c0.3,0,0.5,0.2,0.5,0.5V21.5z"/>
</g>
<g id="Outline_Icons">
	<g>
		<polygon class="st2" points="23.5,23.5 15,23.5 12,18.5 9,23.5 0.5,23.5 0.5,12.5 23.5,12.5 		"/>
		<path class="st3" d="M0.5,12.5l5.6-9.2c0.4-0.7,1.3-0.9,2.1-0.5"/>
		<path class="st3" d="M23.5,12.5l-5.6-9.2c-0.4-0.7-1.3-0.9-2.1-0.5"/>
		<polygon class="st3" points="2.5,14.5 2.5,21.5 7,21.5 9.8,16.5 9,14.5 		"/>
		<polygon class="st3" points="21.5,14.5 21.5,21.5 17,21.5 14.2,16.5 15,14.5 		"/>
	</g>
</g>
</svg>
