<?xml version="1.0" encoding="utf-8"?>
<!-- Generator: Adobe Illustrator 19.2.0, SVG Export Plug-In . SVG Version: 6.00 Build 0)  -->
<svg version="1.1" id="Outline_Icons" xmlns="http://www.w3.org/2000/svg" xmlns:xlink="http://www.w3.org/1999/xlink" x="0px"
	 y="0px" viewBox="0 0 24 24" style="enable-background:new 0 0 24 24;" xml:space="preserve">
<style type="text/css">
	.st0{fill:none;stroke:#000000;stroke-linecap:round;stroke-linejoin:round;stroke-miterlimit:10;}
</style>
<g>
	<g>
		<polyline class="st0" points="19.1,22.9 20,18 15,18.4 		"/>
		<polyline class="st0" points="4.8,3 3.8,7.9 8.8,7.5 		"/>
		<path class="st0" d="M20,17.9c-1.7,2.6-4.6,4.3-8,4.3c-5.2,0-9.5-4.3-9.5-9.5c0-0.5,0-1,0.1-1.5"/>
		<path class="st0" d="M3.8,7.9C5.5,5.1,8.5,3.3,12,3.3c5.2,0,9.5,4.3,9.5,9.5c0,0.8-0.1,1.6-0.3,2.4"/>
	</g>
	<g>
		<path class="st0" d="M8.2,11.3c0-0.5,0.3-1.4,1.4-1.4c1.2,0,1.4,1,1.4,1.5c0,0.5-0.2,1.5-1.4,1.5"/>
		<path class="st0" d="M8.2,14.5c0,0.5,0.3,1.4,1.4,1.4c1.2,0,1.4-1,1.4-1.5c0-0.5-0.2-1.5-1.4-1.5"/>
	</g>
	<path class="st0" d="M13.5,15.9V10h0.8c1.3,0,2,1.3,2,2.9c0,1.6-0.7,2.9-2,2.9L13.5,15.9z"/>
</g>
</svg>
