<?xml version="1.0" encoding="utf-8"?>
<!-- Generator: Adobe Illustrator 19.2.0, SVG Export Plug-In . SVG Version: 6.00 Build 0)  -->
<svg version="1.1" id="Layer_1" xmlns="http://www.w3.org/2000/svg" xmlns:xlink="http://www.w3.org/1999/xlink" x="0px" y="0px"
	 viewBox="0 0 24 24" style="enable-background:new 0 0 24 24;" xml:space="preserve">
<style type="text/css">
	.st0{display:none;}
	.st1{display:inline;}
	.st2{fill:none;stroke:#000000;stroke-linejoin:round;stroke-miterlimit:10;}
	.st3{fill:none;stroke:#000000;stroke-linecap:round;stroke-linejoin:round;stroke-miterlimit:10;}
</style>
<g id="Filled_Icon" class="st0">
	<g class="st1">
		<path d="M15,7h-1v7.1h1c1.7,0,2.3-1.9,2.3-3.6C17.2,8.9,16.6,7,15,7z"/>
		<path d="M22.5,2h-21C0.7,2,0,2.7,0,3.5v15C0,19.3,0.7,20,1.5,20H10v2H7c-0.3,0-0.5,0.2-0.5,0.5C6.5,22.8,6.7,23,7,23h10
			c0.3,0,0.5-0.2,0.5-0.5c0-0.3-0.2-0.5-0.5-0.5h-3v-2h8.5c0.8,0,1.5-0.7,1.5-1.5v-15C24,2.7,23.3,2,22.5,2z M10.9,12.7
			c0,1.2-0.6,2.6-2.4,2.6c-1.5,0-2.4-0.9-2.4-2.4c0-0.3,0.2-0.5,0.5-0.5c0.3,0,0.5,0.2,0.5,0.5c0,1,0.5,1.5,1.4,1.5
			c1.2,0,1.4-0.9,1.4-1.6c0-0.7-0.2-1.6-1.4-1.6c-0.3,0-0.5-0.2-0.5-0.5c0-0.3,0.2-0.5,0.5-0.5c1.2,0,1.4-0.9,1.4-1.6
			C9.9,7.9,9.7,7,8.5,7C7.6,7,7.1,7.5,7.1,8.5C7,8.7,6.8,9,6.5,8.9C6.3,8.9,6,8.7,6.1,8.4C6.1,6.9,7,6,8.5,6c1.8,0,2.4,1.3,2.4,2.6
			c0,0.8-0.2,1.6-0.9,2.1C10.7,11.1,10.9,12,10.9,12.7z M15,15.1h-1.5c-0.3,0-0.5-0.2-0.5-0.5V6.5C13,6.2,13.2,6,13.5,6H15
			c2,0,3.3,1.8,3.3,4.6C18.2,13.3,16.9,15.1,15,15.1z"/>
	</g>
</g>
<g id="Outline_Icons">
	<g>
		<g>
			<path class="st2" d="M23.5,18.5c0,0.6-0.4,1-1,1h-21c-0.6,0-1-0.4-1-1v-15c0-0.6,0.4-1,1-1h21c0.6,0,1,0.4,1,1V18.5z"/>
			<line class="st3" x1="7" y1="22.5" x2="17" y2="22.5"/>
			<line class="st2" x1="10.5" y1="19.5" x2="10.5" y2="22.5"/>
			<line class="st2" x1="13.5" y1="19.5" x2="13.5" y2="22.5"/>
		</g>
		<g>
			<path class="st3" d="M6.6,8.4c0-0.8,0.4-1.9,1.9-1.9c1.7,0,1.9,1.3,1.9,2.1c0,0.7-0.3,2.1-1.9,2.1"/>
			<path class="st3" d="M6.6,12.9c0,0.8,0.4,1.9,1.9,1.9c1.7,0,1.9-1.3,1.9-2.1c0-0.7-0.3-2.1-1.9-2.1"/>
		</g>
		<path class="st3" d="M13.5,14.6V6.5H15c1.8,0,2.8,1.8,2.8,4.1c0,2.2-1,4.1-2.8,4.1L13.5,14.6L13.5,14.6z"/>
	</g>
</g>
</svg>
