<?xml version="1.0" encoding="utf-8"?>
<!-- Generator: Adobe Illustrator 19.2.0, SVG Export Plug-In . SVG Version: 6.00 Build 0)  -->
<svg version="1.1" id="Layer_1" xmlns="http://www.w3.org/2000/svg" xmlns:xlink="http://www.w3.org/1999/xlink" x="0px" y="0px"
	 viewBox="0 0 24 24" style="enable-background:new 0 0 24 24;" xml:space="preserve">
<style type="text/css">
	.st0{display:none;}
	.st1{display:inline;}
	.st2{fill:none;stroke:#000000;stroke-linecap:round;stroke-linejoin:round;stroke-miterlimit:10;}
</style>
<g id="Filled_Icon" class="st0">
	<g class="st1">
		<path d="M22.5,0H18v2h0.5C19.3,2,20,2.7,20,3.5C20,4.3,19.3,5,18.5,5H18v1h0.5C19.3,6,20,6.7,20,7.5C20,8.3,19.3,9,18.5,9H18v1
			h0.5c0.8,0,1.5,0.7,1.5,1.5c0,0.8-0.7,1.5-1.5,1.5H18v11h4.5c0.3,0,0.5-0.2,0.5-0.5v-23C23,0.2,22.8,0,22.5,0z"/>
		<path d="M17,13h-0.5c-0.8,0-1.5-0.7-1.5-1.5c0-0.8,0.7-1.5,1.5-1.5H17V9h-0.5C15.7,9,15,8.3,15,7.5C15,6.7,15.7,6,16.5,6H17V5
			h-0.5C15.7,5,15,4.3,15,3.5C15,2.7,15.7,2,16.5,2H17V0h-5v2h0.5C13.3,2,14,2.7,14,3.5C14,4.3,13.3,5,12.5,5H12v10h0.5
			c0.8,0,1.5,0.7,1.5,1.5c0,0.8-0.7,1.5-1.5,1.5H12v1h0.5c0.8,0,1.5,0.7,1.5,1.5c0,0.8-0.7,1.5-1.5,1.5H12v2h5V13z"/>
		<path d="M5,22H4.5C3.7,22,3,21.3,3,20.5C3,19.7,3.7,19,4.5,19H5V9H4.5C3.7,9,3,8.3,3,7.5C3,6.7,3.7,6,4.5,6H5V5H4.5
			C3.7,5,3,4.3,3,3.5C3,2.7,3.7,2,4.5,2H5V0H0.5C0.2,0,0,0.2,0,0.5v23C0,23.8,0.2,24,0.5,24H5V22z"/>
		<path d="M11,22h-0.5C9.7,22,9,21.3,9,20.5c0-0.8,0.7-1.5,1.5-1.5H11v-1h-0.5C9.7,18,9,17.3,9,16.5c0-0.8,0.7-1.5,1.5-1.5H11V5
			h-0.5C9.7,5,9,4.3,9,3.5C9,2.7,9.7,2,10.5,2H11V0H6v2h0.5C7.3,2,8,2.7,8,3.5C8,4.3,7.3,5,6.5,5H6v1h0.5C7.3,6,8,6.7,8,7.5
			C8,8.3,7.3,9,6.5,9H6v10h0.5C7.3,19,8,19.7,8,20.5C8,21.3,7.3,22,6.5,22H6v2h5V22z"/>
	</g>
</g>
<g id="Outline_Icons">
	<g>
		<rect x="0.5" y="0.5" class="st2" width="22" height="23"/>
		<path class="st2" d="M7.5,3.5c0,0.5-0.4,1-1,1h-2c-0.5,0-1-0.5-1-1l0,0c0-0.5,0.5-1,1-1h2C7.1,2.5,7.5,3,7.5,3.5L7.5,3.5z"/>
		<path class="st2" d="M7.5,7.5c0,0.5-0.4,1-1,1h-2c-0.5,0-1-0.5-1-1l0,0c0-0.5,0.5-1,1-1h2C7.1,6.5,7.5,7,7.5,7.5L7.5,7.5z"/>
		<path class="st2" d="M7.5,20.5c0,0.5-0.4,1-1,1h-2c-0.5,0-1-0.5-1-1l0,0c0-0.5,0.5-1,1-1h2C7.1,19.5,7.5,20,7.5,20.5L7.5,20.5z"/>
		<path class="st2" d="M13.5,3.5c0,0.5-0.4,1-1,1h-2c-0.5,0-1-0.5-1-1l0,0c0-0.5,0.5-1,1-1h2C13.1,2.5,13.5,3,13.5,3.5L13.5,3.5z"/>
		<path class="st2" d="M19.5,11.5c0,0.5-0.5,1-1,1h-2c-0.5,0-1-0.5-1-1l0,0c0-0.5,0.5-1,1-1h2C19,10.5,19.5,11,19.5,11.5L19.5,11.5z
			"/>
		<path class="st2" d="M19.5,3.5c0,0.5-0.5,1-1,1h-2c-0.5,0-1-0.5-1-1l0,0c0-0.5,0.5-1,1-1h2C19,2.5,19.5,3,19.5,3.5L19.5,3.5z"/>
		<path class="st2" d="M19.5,7.5c0,0.5-0.5,1-1,1h-2c-0.5,0-1-0.5-1-1l0,0c0-0.5,0.5-1,1-1h2C19,6.5,19.5,7,19.5,7.5L19.5,7.5z"/>
		<path class="st2" d="M13.5,16.5c0,0.5-0.4,1-1,1h-2c-0.5,0-1-0.5-1-1l0,0c0-0.5,0.5-1,1-1h2C13.1,15.5,13.5,16,13.5,16.5
			L13.5,16.5z"/>
		<path class="st2" d="M13.5,20.5c0,0.5-0.4,1-1,1h-2c-0.5,0-1-0.5-1-1l0,0c0-0.5,0.5-1,1-1h2C13.1,19.5,13.5,20,13.5,20.5
			L13.5,20.5z"/>
		<line class="st2" x1="11.5" y1="21.5" x2="11.5" y2="23.5"/>
		<line class="st2" x1="5.5" y1="21.5" x2="5.5" y2="23.5"/>
		<line class="st2" x1="11.5" y1="17.5" x2="11.5" y2="19.5"/>
		<line class="st2" x1="11.5" y1="4.5" x2="11.5" y2="15.5"/>
		<line class="st2" x1="5.5" y1="8.5" x2="5.5" y2="19.5"/>
		<line class="st2" x1="5.5" y1="4.5" x2="5.5" y2="6.5"/>
		<line class="st2" x1="5.5" y1="0.5" x2="5.5" y2="2.5"/>
		<line class="st2" x1="11.5" y1="0.5" x2="11.5" y2="2.5"/>
		<line class="st2" x1="17.5" y1="8.5" x2="17.5" y2="10.5"/>
		<line class="st2" x1="17.5" y1="12.5" x2="17.5" y2="23.5"/>
		<line class="st2" x1="17.5" y1="4.5" x2="17.5" y2="6.5"/>
		<line class="st2" x1="17.5" y1="0.5" x2="17.5" y2="2.5"/>
	</g>
</g>
</svg>
