<?xml version="1.0" encoding="utf-8"?>
<!-- Generator: Adobe Illustrator 19.2.0, SVG Export Plug-In . SVG Version: 6.00 Build 0)  -->
<svg version="1.1" id="Layer_1" xmlns="http://www.w3.org/2000/svg" xmlns:xlink="http://www.w3.org/1999/xlink" x="0px" y="0px"
	 viewBox="0 0 24 24" style="enable-background:new 0 0 24 24;" xml:space="preserve">
<style type="text/css">
	.st0{display:none;}
	.st1{display:inline;}
	.st2{fill:none;stroke:#000000;stroke-linejoin:round;stroke-miterlimit:10;}
</style>
<g id="Filled_Icons" class="st0">
	<g class="st1">
		<path d="M0,12.5c0,1.1,0.3,1.7,1,1.9v4.1h4v-4.1c0.7-0.2,1-0.8,1-1.9V9H0V12.5z"/>
		<path d="M18,9v3.5c0,1.1,0.3,1.7,1,1.9v4.1h4v-4.1c0.7-0.2,1-0.8,1-1.9V9H18z"/>
		<path d="M8,14.5c0,1.2,0.9,2.2,2,2.5v6h4v-6c1.1-0.2,2-1.2,2-2.5V9H8V14.5z"/>
		<circle cx="21" cy="6" r="2"/>
		<circle cx="3" cy="6" r="2"/>
		<circle cx="12" cy="5" r="3"/>
	</g>
</g>
<g id="Outline_Icons">
	<g>
		<path class="st2" d="M0.5,9.5v3c0,0.8,0.2,1.5,1,1.5v4.5h3V14c0.8,0,1-0.7,1-1.5v-3H0.5z"/>
		<path class="st2" d="M18.5,9.5v3c0,0.8,0.2,1.5,1,1.5v4.5h3V14c0.8,0,1-0.7,1-1.5v-3H18.5z"/>
		<path class="st2" d="M8.5,9.5h7v5c0,1.1-0.9,2-2,2v6h-3v-6c-1.1,0-2-0.9-2-2V9.5z"/>
		<path class="st2" d="M4.5,6c0,0.8-0.7,1.5-1.5,1.5l0,0C2.2,7.5,1.5,6.8,1.5,6l0,0c0-0.8,0.7-1.5,1.5-1.5l0,0
			C3.8,4.5,4.5,5.2,4.5,6L4.5,6z"/>
		<path class="st2" d="M22.5,6c0,0.8-0.7,1.5-1.5,1.5l0,0c-0.8,0-1.5-0.7-1.5-1.5l0,0c0-0.8,0.7-1.5,1.5-1.5l0,0
			C21.8,4.5,22.5,5.2,22.5,6L22.5,6z"/>
		<path class="st2" d="M14.5,5c0,1.4-1.1,2.5-2.5,2.5l0,0c-1.4,0-2.5-1.1-2.5-2.5l0,0c0-1.4,1.1-2.5,2.5-2.5l0,0
			C13.4,2.5,14.5,3.6,14.5,5L14.5,5z"/>
	</g>
</g>
</svg>
