<?xml version="1.0" encoding="utf-8"?>
<!-- Generator: Adobe Illustrator 19.2.0, SVG Export Plug-In . SVG Version: 6.00 Build 0)  -->
<svg version="1.1" id="Layer_1" xmlns="http://www.w3.org/2000/svg" xmlns:xlink="http://www.w3.org/1999/xlink" x="0px" y="0px"
	 viewBox="0 0 24 24" style="enable-background:new 0 0 24 24;" xml:space="preserve">
<style type="text/css">
	.st0{display:none;}
	.st1{display:inline;}
	.st2{fill:none;stroke:#000000;stroke-linecap:round;stroke-linejoin:round;stroke-miterlimit:10;}
	.st3{fill:none;stroke:#000000;stroke-linejoin:round;stroke-miterlimit:10;}
</style>
<g id="Filled_Icons" class="st0">
	<g class="st1">
		<path d="M9.5,5.3L10,4.5l0.5,0.8c0.5,0.8,0.9,1.1,1.6,1c-0.3-1.4-1.4-2.4-2.6-2.4c-1.2,0-2.2,0.9-2.5,2.2c0.2,0.1,0.5,0.1,0.8,0.1
			C8.4,6.2,9.3,5.8,9.5,5.3z"/>
		<path d="M11.8,7.3C11,7.3,10.4,7,9.9,6.4C9.4,6.9,8.5,7.2,7.7,7.2c-0.3,0-0.6,0-0.9-0.1c0,0,0,0.1,0,0.1c0,1.8,1.2,3.3,2.7,3.3
			c1.5,0,2.7-1.5,2.7-3.3C12,7.3,11.9,7.3,11.8,7.3z"/>
		<path d="M23.9,23.1l-7.3-7.3c1.5-1.7,2.4-3.9,2.4-6.3C19,4.3,14.7,0,9.5,0C4.3,0,0,4.3,0,9.5C0,14.7,4.3,19,9.5,19
			c2.4,0,4.7-0.9,6.3-2.4l7.3,7.3c0.1,0.1,0.2,0.1,0.4,0.1c0.1,0,0.3,0,0.4-0.1C24,23.7,24,23.3,23.9,23.1z M14.8,14.4l-4.3-1.8
			v-1.3c-0.3,0.1-0.7,0.2-1,0.2c-0.3,0-0.7-0.1-1-0.2v1.3l-4.3,1.7l-0.4-0.9L7.5,12v-1.1c-1-0.8-1.7-2.1-1.7-3.7
			c0-2.4,1.7-4.3,3.7-4.3c2,0,3.7,1.9,3.7,4.3c0,1.5-0.7,2.8-1.7,3.6V12l3.7,1.5L14.8,14.4z"/>
	</g>
</g>
<g id="Outline_Icons">
	<g>
		<g>
			<circle class="st2" cx="9.5" cy="9.5" r="9"/>
			<line class="st2" x1="15.9" y1="15.9" x2="23.5" y2="23.5"/>
		</g>
		<g>
			<polyline class="st3" points="15,14 11,12.3 11,10.5 			"/>
			<polyline class="st3" points="8,10.6 8,12.3 4,13.9 			"/>
			<ellipse class="st3" cx="9.5" cy="7.2" rx="3.2" ry="3.8"/>
			<path class="st3" d="M12.6,6.7c-0.1,0-0.2,0-0.4,0c-1,0.2-1.7-0.2-2.3-1.2C9.6,6.2,8.6,6.7,7.7,6.7c-0.4,0-1-0.1-1.3-0.3"/>
		</g>
	</g>
</g>
</svg>
