<?xml version="1.0" encoding="utf-8"?>
<!-- Generator: Adobe Illustrator 19.2.0, SVG Export Plug-In . SVG Version: 6.00 Build 0)  -->
<svg version="1.1" id="Layer_1" xmlns="http://www.w3.org/2000/svg" xmlns:xlink="http://www.w3.org/1999/xlink" x="0px" y="0px"
	 viewBox="0 0 24 24" style="enable-background:new 0 0 24 24;" xml:space="preserve">
<style type="text/css">
	.st0{display:none;}
	.st1{display:inline;}
	.st2{fill:none;stroke:#000000;stroke-linejoin:round;stroke-miterlimit:10;}
</style>
<g id="Filled_Icons" class="st0">
	<g class="st1">
		<path d="M4,13c1.4,0,2.5-1.1,2.5-2.5C6.5,9.1,5.4,8,4,8c-1.4,0-2.5,1.1-2.5,2.5C1.5,11.9,2.6,13,4,13z"/>
		<path d="M0,14.5c0,2.4,0.2,4.6,2,5.3V24h4v-4.2c1.8-0.7,2-2.9,2-5.3V14H0V14.5z"/>
		<path d="M20,13c1.4,0,2.5-1.1,2.5-2.5C22.5,9.1,21.4,8,20,8c-1.4,0-2.5,1.1-2.5,2.5C17.5,11.9,18.6,13,20,13z"/>
		<path d="M16,14v0.5c0,2.4,0.2,4.6,2,5.3V24h4v-4.2c1.8-0.7,2-2.9,2-5.3V14H16z"/>
		<path d="M12,5c1.4,0,2.5-1.1,2.5-2.5C14.5,1.1,13.4,0,12,0c-1.4,0-2.5,1.1-2.5,2.5C9.5,3.9,10.6,5,12,5z"/>
		<path d="M16,6H8v0.5c0,2.4,0.2,4.6,2,5.3V16h4v-4.2c1.8-0.7,2-2.9,2-5.3V6z"/>
	</g>
</g>
<g id="Outline_Icons">
	<g>
		<circle class="st2" cx="4" cy="10.5" r="2"/>
		<path class="st2" d="M4,14.5h3.5c0,2.7-0.2,4.5-2,5v4H4H2.5v-4c-1.8-0.5-2-2.3-2-5H4z"/>
		<circle class="st2" cx="20" cy="10.5" r="2"/>
		<path class="st2" d="M20,14.5h3.5c0,2.7-0.2,4.5-2,5v4H20h-1.5v-4c-1.8-0.5-2-2.3-2-5H20z"/>
		<circle class="st2" cx="12" cy="2.5" r="2"/>
		<path class="st2" d="M12,6.5h3.5c0,2.7-0.2,4.5-2,5v4H12h-1.5v-4c-1.8-0.5-2-2.3-2-5H12z"/>
	</g>
</g>
</svg>
