<?xml version="1.0" encoding="utf-8"?>
<!-- Generator: Adobe Illustrator 19.2.0, SVG Export Plug-In . SVG Version: 6.00 Build 0)  -->
<svg version="1.1" id="Layer_1" xmlns="http://www.w3.org/2000/svg" xmlns:xlink="http://www.w3.org/1999/xlink" x="0px" y="0px"
	 viewBox="0 0 24 24" style="enable-background:new 0 0 24 24;" xml:space="preserve">
<style type="text/css">
	.st0{display:none;}
	.st1{display:inline;}
	.st2{fill:none;stroke:#000000;stroke-linejoin:round;stroke-miterlimit:10;}
	.st3{fill:none;stroke:#000000;stroke-linecap:round;stroke-linejoin:round;stroke-miterlimit:10;}
</style>
<g id="Filled_Icons" class="st0">
	<g class="st1">
		<path d="M20.9,15.2c-0.5-0.2-1-0.3-1.4-0.5v-0.9c0.4-0.2,0.9-0.8,1-2c0.3-0.3,0.5-0.9,0.5-1.4c0-0.2,0-0.6-0.2-0.8
			c0-0.1-0.1-0.2-0.2-0.2c0.2-0.4,0.6-1.2,0.3-2c-0.4-1.1-1.8-1.5-3-1.5c-1,0-2.2,0.3-2.8,1.1c-0.5,0-0.8,0.2-0.9,0.4
			c-0.4,0.5-0.1,1.3,0.1,1.9c-0.1,0.1-0.2,0.2-0.2,0.3C14,9.8,14,10.1,14,10.4c0,0.6,0.2,1.2,0.5,1.5c0.1,1.2,0.6,1.7,1,2v0.9
			c-0.1,0-0.2,0.1-0.3,0.1c1.6,1,1.8,1.7,1.8,2.2v5h6.5c0.3,0,0.5-0.2,0.5-0.5V17C24,16.3,23.1,16,20.9,15.2z"/>
		<path d="M10.5,13.7c0-10,0,8.6,0-1.4c0.7-0.5,0.9-1.6,1-2.4c0.4-0.3,0.7-1,0.7-1.5c0-0.4-0.1-0.9-0.5-1.1C12.2,6,12.1,5,11.8,4.5
			C11.3,3.4,9.7,3,8.5,3C7.3,3,5.7,3.4,5.2,4.5c-0.4,0-0.8,0.1-1.1,0.5c-0.4,0.6,0,1.6,0.3,2.3C4,7.5,3.9,7.9,3.9,8.4
			c0,0.5,0.2,1.2,0.6,1.5c0,0.5,0.1,1.2,0.4,1.7c0,0,0,0,0,0c0.2,0.4,0.4,0.6,0.6,0.8c0,3.3,0-2,0,1.4c-1.8,0.7-5,2.2-5.5,3.1
			c0,0,0,0,0,0c0,0.1,0,0.1,0,0.2v4.5C0,21.8,0.2,22,0.5,22C9.4,22,16,22,16,22v-0.5V17C16,15.9,11.5,14.1,10.5,13.7z"/>
	</g>
</g>
<g id="Outline_Icons">
	<g>
		<path class="st2" d="M7.9,21.5h7.6c0,0,0-3,0-4.5c0-0.5-3-2-5.5-3v-2c0,0,1-0.4,1-2.5c0.7,0,1-2,0-2c0-0.2,0.8-1.3,0.5-2.5
			C11,3,6,3,5.5,5C3.4,4.6,5,7.2,5,7.5c-1,0-0.7,2,0,2C5,11.6,6,12,6,12v2c-2.5,1-5.5,2.5-5.5,3c0,1,0,4.5,0,4.5H7.9z"/>
		<path class="st3" d="M18,21.5h5.5c0,0,0-3.3,0-4.5c0-0.5-2.5-1.2-4.5-2v-1.5c0,0,1-0.3,1-2c0.6,0,0.8-2,0-2c0-0.2,0.8-1.1,0.5-2
			C20,6,16,6,15.5,7.5c-1.7-0.3-0.5,1.8-0.5,2c-0.8,0-0.6,2,0,2c0,1.7,1,2,1,2v1"/>
	</g>
</g>
</svg>
