<?xml version="1.0" encoding="utf-8"?>
<!-- Generator: Adobe Illustrator 19.2.0, SVG Export Plug-In . SVG Version: 6.00 Build 0)  -->
<svg version="1.1" id="Layer_1" xmlns="http://www.w3.org/2000/svg" xmlns:xlink="http://www.w3.org/1999/xlink" x="0px" y="0px"
	 viewBox="0 0 24 24" style="enable-background:new 0 0 24 24;" xml:space="preserve">
<style type="text/css">
	.st0{display:none;}
	.st1{display:inline;}
	.st2{fill:none;stroke:#000000;stroke-linecap:round;stroke-linejoin:round;stroke-miterlimit:10;}
</style>
<g id="Filled_Icons" class="st0">
	<g class="st1">
		<g>
			<path d="M10.2,21c0-0.1,0-0.1,0-0.2c0-0.1-0.1-0.2-0.1-0.2c0,0,0-0.1,0-0.1l-2.3-3.1c-0.3-0.4-1-0.5-1.4-0.2
				c-0.4,0.3-0.5,1-0.2,1.4L7,19.7c-3.5-0.6-5-1.8-5-2.4c0-0.8,2.3-2.1,6.5-2.6c-0.6-0.5-1-1.1-1.4-1.8C3.1,13.6,0,15,0,17.3
				c0,2.2,2.9,3.6,6.3,4.3l-0.9,0.5C5,22.4,4.8,23,5.1,23.5C5.3,23.8,5.6,24,6,24c0.2,0,0.3,0,0.5-0.1l3.3-2c0,0,0,0,0.1-0.1
				c0.1,0,0.1-0.1,0.2-0.1c0,0,0.1-0.1,0.1-0.1c0-0.1,0.1-0.1,0.1-0.2c0,0,0-0.1,0.1-0.1c0,0,0,0,0,0c0,0,0,0,0-0.1
				C10.3,21.1,10.2,21,10.2,21z"/>
			<path d="M16.9,12.9c-0.4,0.7-0.8,1.3-1.4,1.8c4.2,0.5,6.5,1.9,6.5,2.6c0,0.7-2.3,2.3-7.7,2.7c-0.6,0-1,0.5-0.9,1.1
				c0,0.5,0.5,0.9,1,0.9c0,0,0.1,0,0.1,0c4.4-0.3,9.5-1.8,9.5-4.7C24,15,20.9,13.6,16.9,12.9z"/>
		</g>
		<g>
			<path d="M12,7c1.9,0,3.5-1.6,3.5-3.5C15.5,1.6,13.9,0,12,0c-1.9,0-3.5,1.6-3.5,3.5C8.5,5.4,10.1,7,12,7z"/>
			<path d="M16.5,8h-9C7.2,8,7,8.2,7,8.5c0,2.3,1,5.1,3,6v4c0,0.3,0.2,0.5,0.5,0.5h3c0.3,0,0.5-0.2,0.5-0.5v-4c2-0.9,3-3.7,3-6
				C17,8.2,16.8,8,16.5,8z"/>
		</g>
	</g>
</g>
<g id="Outline_Icons">
	<g>
		<circle class="st2" cx="12" cy="3.5" r="3"/>
		<path class="st2" d="M16.5,8.5h-9c0,2.1,1,5,3,5.7v4.3h3v-4.3C15.5,13.5,16.5,10.6,16.5,8.5z"/>
		<path class="st2" d="M10,21.4c-5.4-0.3-9.5-2-9.5-3.9c0-1.4,2.2-2.7,5.5-3.4"/>
		<path class="st2" d="M18,14.1c3.3,0.7,5.5,2,5.5,3.4c0,2.1-4.6,3.8-10.5,4"/>
		<polyline class="st2" points="7.5,18.2 10,21.4 6.5,23.5 		"/>
	</g>
</g>
</svg>
