<?xml version="1.0" encoding="utf-8"?>
<!-- Generator: Adobe Illustrator 19.2.0, SVG Export Plug-In . SVG Version: 6.00 Build 0)  -->
<svg version="1.1" id="Layer_1" xmlns="http://www.w3.org/2000/svg" xmlns:xlink="http://www.w3.org/1999/xlink" x="0px" y="0px"
	 viewBox="0 0 24 24" style="enable-background:new 0 0 24 24;" xml:space="preserve">
<style type="text/css">
	.st0{display:none;}
	.st1{display:inline;}
	.st2{fill:none;stroke:#000000;stroke-linejoin:round;stroke-miterlimit:10;}
	.st3{fill:none;stroke:#000000;stroke-linecap:round;stroke-linejoin:round;stroke-miterlimit:10;}
</style>
<g id="Filled_Icons" class="st0">
	<g class="st1">
		<path d="M21.3,9.9c-0.3-0.5-0.7-1.2-0.7-1.5C20.6,3.1,15.7,0,11,0C5.4,0,1,4.4,1,10.1c0,3.6,1.3,6.3,4,8v5.5C5,23.8,5.2,24,5.5,24
			h10c0.3,0,0.5-0.2,0.5-0.5v-3c1.7,0,2.8-0.2,3.6-1c0.8-0.8,1-3.3,1-4.5c0.3,0,0.7,0,1,0c0.4,0,0.7-0.2,1-0.5
			c0.2-0.3,0.2-0.5,0.2-0.7l0-0.1C22.8,12.5,22,11.1,21.3,9.9z M17,15.5c0,0.3-0.2,0.5-0.5,0.5h-10C6.2,16,6,15.8,6,15.5v-10
			C6,5.2,6.2,5,6.5,5h10C16.8,5,17,5.2,17,5.5V15.5z"/>
		<g>
			<path d="M14.5,8h-4C10.2,8,10,7.8,10,7.5C10,7.2,10.2,7,10.5,7h4C14.8,7,15,7.2,15,7.5C15,7.8,14.8,8,14.5,8z"/>
		</g>
		<g>
			<path d="M14.5,10h-6C8.2,10,8,9.8,8,9.5C8,9.2,8.2,9,8.5,9h6C14.8,9,15,9.2,15,9.5C15,9.8,14.8,10,14.5,10z"/>
		</g>
		<g>
			<path d="M14.5,12h-6C8.2,12,8,11.8,8,11.5C8,11.2,8.2,11,8.5,11h6c0.3,0,0.5,0.2,0.5,0.5C15,11.8,14.8,12,14.5,12z"/>
		</g>
		<g>
			<path d="M14.5,14h-6C8.2,14,8,13.8,8,13.5C8,13.2,8.2,13,8.5,13h6c0.3,0,0.5,0.2,0.5,0.5C15,13.8,14.8,14,14.5,14z"/>
		</g>
	</g>
</g>
<g id="Outline_Icons">
	<g>
		<path class="st2" d="M20.1,8.4c0-5-4.7-7.9-9.1-7.9c-5.4,0-9.5,4.2-9.5,9.6c0,3,1,5.9,4,7.7v5.8h10V20c2,0,3-0.1,3.7-0.8
			c0.9-0.9,0.8-4.7,0.8-4.7s0.9,0,1.5,0c0.2,0,0.4-0.1,0.6-0.3c0.1-0.2,0.1-0.4,0.1-0.6C22.3,12,20.1,9.2,20.1,8.4z"/>
		<line class="st3" x1="10.5" y1="7.5" x2="14.5" y2="7.5"/>
		<line class="st3" x1="8.5" y1="9.5" x2="14.5" y2="9.5"/>
		<line class="st3" x1="8.5" y1="11.5" x2="14.5" y2="11.5"/>
		<line class="st3" x1="8.5" y1="13.5" x2="14.5" y2="13.5"/>
		<rect x="6.5" y="5.5" class="st3" width="10" height="10"/>
	</g>
</g>
</svg>
