<?xml version="1.0" encoding="utf-8"?>
<!-- Generator: Adobe Illustrator 19.2.0, SVG Export Plug-In . SVG Version: 6.00 Build 0)  -->
<svg version="1.1" id="Layer_1" xmlns="http://www.w3.org/2000/svg" xmlns:xlink="http://www.w3.org/1999/xlink" x="0px" y="0px"
	 viewBox="0 0 24 24" style="enable-background:new 0 0 24 24;" xml:space="preserve">
<style type="text/css">
	.st0{display:none;}
	.st1{display:inline;}
	.st2{fill:none;stroke:#000000;stroke-linejoin:round;stroke-miterlimit:10;}
	.st3{fill:none;stroke:#000000;stroke-linecap:round;stroke-linejoin:round;stroke-miterlimit:10;}
</style>
<g id="Filled_Icons" class="st0">
	<g class="st1">
		<path d="M12.5,8c2.2,0,4-1.8,4-4c0-2.2-1.8-4-4-4c-2.2,0-4,1.8-4,4C8.5,6.2,10.3,8,12.5,8z"/>
		<path d="M18.5,9h-12v0.5c0,4.8,2.1,6.9,3.5,7.8V24h5v-6.7c1.4-0.9,3.5-3,3.5-7.8V9z"/>
		<path d="M6.5,4.5c0.1,0,0.3,0,0.4-0.1C7,4.2,7,3.9,6.9,3.7l-3-3c0,0-0.1-0.1-0.2-0.1c-0.1-0.1-0.3-0.1-0.4,0
			c-0.1,0-0.1,0.1-0.2,0.1l-3,3C0,3.9,0,4.2,0.1,4.4c0.2,0.2,0.5,0.2,0.7,0L3,2.2V11c0,0.3,0.2,0.5,0.5,0.5C3.8,11.5,4,11.3,4,11
			V2.2l2.1,2.1C6.2,4.5,6.4,4.5,6.5,4.5z"/>
		<path d="M23.9,19.6c-0.2-0.2-0.5-0.2-0.7,0L21,21.8V13c0-0.3-0.2-0.5-0.5-0.5c-0.3,0-0.5,0.2-0.5,0.5v8.8l-2.1-2.1
			c-0.2-0.2-0.5-0.2-0.7,0c-0.2,0.2-0.2,0.5,0,0.7l3,3c0,0,0.1,0.1,0.2,0.1c0.1,0,0.1,0,0.2,0c0.1,0,0.1,0,0.2,0
			c0.1,0,0.1-0.1,0.2-0.1l3-3C24,20.2,24,19.8,23.9,19.6z"/>
	</g>
</g>
<g id="Outline_Icons">
	<g>
		<g>
			<circle class="st2" cx="12.5" cy="4" r="3.5"/>
			<path class="st2" d="M18,9.5H7c0,4.1,1.5,6.4,3.5,7.5v6.5h4V17C16.5,15.9,18,13.6,18,9.5z"/>
		</g>
		<polyline class="st3" points="6.5,4 3.5,1 0.5,4 		"/>
		<line class="st3" x1="3.5" y1="11" x2="3.5" y2="1"/>
		<polyline class="st3" points="17.5,20 20.5,23 23.5,20 		"/>
		<line class="st3" x1="20.5" y1="13" x2="20.5" y2="23"/>
	</g>
</g>
</svg>
