<?xml version="1.0" encoding="utf-8"?>
<!-- Generator: Adobe Illustrator 19.2.0, SVG Export Plug-In . SVG Version: 6.00 Build 0)  -->
<svg version="1.1" id="Layer_1" xmlns="http://www.w3.org/2000/svg" xmlns:xlink="http://www.w3.org/1999/xlink" x="0px" y="0px"
	 viewBox="0 0 24 24" style="enable-background:new 0 0 24 24;" xml:space="preserve">
<style type="text/css">
	.st0{display:none;}
	.st1{display:inline;}
	.st2{fill:none;stroke:#000000;stroke-linejoin:round;stroke-miterlimit:10;}
</style>
<g id="Filled_Icons" class="st0">
	<g class="st1">
		<rect x="9" y="12" width="1" height="2"/>
		<rect x="15" y="7" width="1" height="2"/>
		<rect x="7" y="7" width="1" height="2"/>
		<path d="M21.3,9.9c-0.3-0.5-0.7-1.2-0.7-1.5C20.6,3.1,15.7,0,11,0C5.4,0,1,4.4,1,10.1c0,3.6,1.3,6.3,4,8v5.5C5,23.8,5.2,24,5.5,24
			h10c0.3,0,0.5-0.2,0.5-0.5v-3c1.7,0,2.8-0.2,3.6-1c0.8-0.8,1-3.3,1-4.5c0.3,0,0.7,0,1,0c0.4,0,0.7-0.2,1-0.5
			c0.2-0.3,0.2-0.5,0.2-0.7l0-0.1C22.8,12.5,22,11.1,21.3,9.9z M6,6h3v4H6V6z M7,15H6v-4h1V15z M11,15H8v-4h3V15z M11,10h-1V6h1V10z
			 M13,15h-1v-4h1V15z M13,10h-1V6h1V10z M15,15h-1v-4h1V15z M17,15h-1v-4h1V15z M17,10h-3V6h3V10z"/>
	</g>
</g>
<g id="Outline_Icons">
	<g>
		<path class="st2" d="M20.1,8.4c0-5-4.7-7.9-9.1-7.9c-5.4,0-9.5,4.2-9.5,9.6c0,3,1,5.9,4,7.7v5.8h10V20c2,0,3-0.1,3.7-0.8
			c0.9-0.9,0.8-4.7,0.8-4.7s0.9,0,1.5,0c0.2,0,0.4-0.1,0.6-0.3c0.1-0.2,0.1-0.4,0.1-0.6C22.3,12,20.1,9.2,20.1,8.4z"/>
		<rect x="6.5" y="6.5" class="st2" width="2" height="3"/>
		<rect x="8.5" y="11.5" class="st2" width="2" height="3"/>
		<rect x="14.5" y="6.5" class="st2" width="2" height="3"/>
		<line class="st2" x1="10.5" y1="6" x2="10.5" y2="10"/>
		<line class="st2" x1="12.5" y1="6" x2="12.5" y2="10"/>
		<line class="st2" x1="6.5" y1="11" x2="6.5" y2="15"/>
		<line class="st2" x1="12.5" y1="11" x2="12.5" y2="15"/>
		<line class="st2" x1="14.5" y1="11" x2="14.5" y2="15"/>
		<line class="st2" x1="16.5" y1="11" x2="16.5" y2="15"/>
	</g>
</g>
</svg>
