<?xml version="1.0" encoding="utf-8"?>
<!-- Generator: Adobe Illustrator 19.2.0, SVG Export Plug-In . SVG Version: 6.00 Build 0)  -->
<svg version="1.1" id="Layer_1" xmlns="http://www.w3.org/2000/svg" xmlns:xlink="http://www.w3.org/1999/xlink" x="0px" y="0px"
	 viewBox="0 0 24 24" style="enable-background:new 0 0 24 24;" xml:space="preserve">
<style type="text/css">
	.st0{display:none;}
	.st1{display:inline;}
	.st2{fill:none;stroke:#000000;stroke-linecap:round;stroke-linejoin:round;stroke-miterlimit:10;}
</style>
<g id="Filled_Icons" class="st0">
	<path class="st1" d="M21.6,4.5c-0.1,0-7.4-2-9.8-4.4c-0.2-0.2-0.5-0.2-0.7,0C8.8,2.5,1.4,4.5,1.4,4.5C1.2,4.6,1,4.8,1,5
		c0,8.6,0.8,15.4,10.3,18.9c0.1,0,0.1,0,0.2,0c0.1,0,0.1,0,0.2,0C21.2,20.4,22,13.6,22,5C22,4.8,21.8,4.6,21.6,4.5z M16.9,17
		C16.9,17,16.8,17,16.9,17H6.2c-0.3,0-0.5-0.2-0.5-0.5c0-2.5,1.6-4.7,3.8-5.5C8.6,10.4,8,9.3,8,8.1c0-1.9,1.6-3.5,3.5-3.5
		c1.9,0,3.5,1.6,3.5,3.5c0,1.2-0.6,2.2-1.5,2.9c2.2,0.8,3.8,2.9,3.8,5.3c0,0,0,0.1,0,0.1C17.4,16.8,17.1,17,16.9,17z"/>
</g>
<g id="Outline_Icons">
	<g>
		<path class="st2" d="M11.5,0.5L11.5,0.5C9,3,1.5,5,1.5,5c0,8,0.5,15,10,18.5C21,20,21.5,13,21.5,5C21.5,5,14,3,11.5,0.5z"/>
		<circle class="st2" cx="11.5" cy="8.1" r="3"/>
		<path class="st2" d="M16.8,16.5H6.2c0-2.9,2.4-5.3,5.3-5.3C14.5,11.1,16.8,13.5,16.8,16.5z"/>
	</g>
</g>
</svg>
