<?xml version="1.0" encoding="utf-8"?>
<!-- Generator: Adobe Illustrator 19.2.0, SVG Export Plug-In . SVG Version: 6.00 Build 0)  -->
<svg version="1.1" id="Layer_1" xmlns="http://www.w3.org/2000/svg" xmlns:xlink="http://www.w3.org/1999/xlink" x="0px" y="0px"
	 viewBox="0 0 24 24" style="enable-background:new 0 0 24 24;" xml:space="preserve">
<style type="text/css">
	.st0{display:none;}
	.st1{display:inline;}
	.st2{fill:none;stroke:#000000;stroke-linejoin:round;stroke-miterlimit:10;}
	.st3{fill:none;stroke:#000000;stroke-linecap:round;stroke-linejoin:round;stroke-miterlimit:10;}
</style>
<g id="Filled_Icons" class="st0">
	<g class="st1">
		<path d="M13.4,14.6c-0.5-0.2-0.9-0.3-1.4-0.5v-1.9c0.5-0.3,1.4-1.2,1.5-2.9c0.4-0.2,0.6-0.7,0.6-1.4c0-0.6-0.2-1-0.5-1.3
			C13.9,6.1,14.3,5,14,3.9c-0.3-1.3-2.2-1.8-3.7-1.8c-1.3,0-3,0.4-3.6,1.4C6,3.4,5.6,3.7,5.4,3.9c-0.5,0.7-0.3,1.8,0,2.7
			C5.3,6.8,5.2,6.9,5.1,7.1C5,7.3,4.9,7.6,4.9,8c0,0.6,0.2,1.1,0.6,1.4c0.1,1.8,1,2.6,1.5,2.9v1.9c-0.4,0.2-0.9,0.3-1.3,0.5
			c-2.6,0.9-4.8,1.7-5.2,3C0,19.1,0,22.3,0,22.5C0,22.8,0.2,23,0.5,23h18c0.3,0,0.5-0.2,0.5-0.5c0-0.1,0-3.4-0.5-4.9
			C18.1,16.3,16,15.6,13.4,14.6z"/>
		<path d="M23.5,17.6c-0.4-1.2-2.3-2.3-6.5-3.9v-0.9c0.5-0.3,1.4-1.2,1.5-2.9c0.4-0.2,0.6-0.7,0.6-1.4c0-0.6-0.2-1-0.5-1.3
			c0.2-0.7,0.7-1.9,0.4-3c-0.2-0.7-1-1.5-1.9-1.8c-0.8-0.3-1.7-0.2-2.4,0.2c-0.2,0.2-0.3,0.5-0.1,0.7c0.2,0.2,0.5,0.3,0.7,0.1
			c0.6-0.4,1.1-0.3,1.5-0.1c0.7,0.3,1.2,0.8,1.2,1.1c0.2,0.9-0.2,1.9-0.4,2.5c-0.1,0.3-0.1,0.4-0.1,0.6C17.5,7.8,17.7,8,18,8
			c0,0,0.1,0.2,0.1,0.5C18.1,8.8,18,9,18,9c-0.3,0-0.5,0.2-0.5,0.5c0,2-1.1,2.5-1.2,2.5c-0.2,0.1-0.3,0.3-0.3,0.5V14
			c0,0.2,0.1,0.4,0.3,0.5c1.4,0.5,5.8,2.2,6.2,3.4c0.3,1,0.4,3.1,0.4,4.1h-1.5c-0.3,0-0.5,0.2-0.5,0.5c0,0.3,0.2,0.5,0.5,0.5h2
			c0.3,0,0.5-0.2,0.5-0.5C24,22.3,24,19.1,23.5,17.6z"/>
	</g>
</g>
<g id="Outline_Icons">
	<g>
		<path class="st2" d="M9.5,22.5h9c0,0,0-3.4-0.5-4.8c-0.4-1.2-3.4-2.1-6.5-3.3V12c0,0,1-0.6,1-3c1,0,1-2,0-2c0-0.2,1.1-1.7,0.8-3
			c-0.5-1.9-6.2-1.9-6.6,0C4.3,3.5,5.5,6.6,5.5,7v2c0,2.4,2,3,2,3v2.5c-2.8,1.1-6.1,2-6.5,3.3c-0.5,1.4-0.5,4.8-0.5,4.8H9.5z"/>
		<path class="st3" d="M21,22.5h2.5c0,0,0-3.4-0.5-4.8c-0.4-1.2-3.4-2.6-6.5-3.8v-1.5c0,0,1-0.6,1-3c1,0,1-2,0-2
			c0-0.2,1.1-1.9,0.8-3.2C18,3.4,16.1,2,14.6,3"/>
	</g>
</g>
</svg>
