<?xml version="1.0" encoding="utf-8"?>
<!-- Generator: Adobe Illustrator 19.2.0, SVG Export Plug-In . SVG Version: 6.00 Build 0)  -->
<svg version="1.1" id="Layer_1" xmlns="http://www.w3.org/2000/svg" xmlns:xlink="http://www.w3.org/1999/xlink" x="0px" y="0px"
	 viewBox="0 0 24 24" style="enable-background:new 0 0 24 24;" xml:space="preserve">
<style type="text/css">
	.st0{display:none;}
	.st1{display:inline;}
	.st2{fill:none;stroke:#000000;stroke-linejoin:round;stroke-miterlimit:10;}
	.st3{fill:none;stroke:#000000;stroke-linecap:round;stroke-linejoin:round;stroke-miterlimit:10;}
</style>
<g id="Filled_Icons" class="st0">
	<g class="st1">
		<path d="M16,18.1V19H8v-0.9c-3.5,0.2-8,0.8-8,2.4C0,22.9,10.8,23,12,23c1.2,0,12-0.1,12-2.5C24,18.9,19.5,18.3,16,18.1z"/>
		<g>
			<circle cx="12" cy="4" r="3"/>
			<path d="M12,8c-1.7,0-3,1.3-3,3v7h6v-7C15,9.3,13.7,8,12,8z"/>
		</g>
		<g>
			<circle cx="19" cy="5" r="2"/>
			<path d="M19,8c-1.1,0-2,0.9-2,2v6h4v-6C21,8.9,20.1,8,19,8z"/>
		</g>
		<g>
			<circle cx="5" cy="5" r="2"/>
			<path d="M5,8c-1.1,0-2,0.9-2,2v6h4v-6C7,8.9,6.1,8,5,8z"/>
		</g>
	</g>
</g>
<g id="Outline_Icons">
	<g>
		<circle class="st2" cx="12" cy="4" r="2.5"/>
		<circle class="st2" cx="19" cy="5" r="1.5"/>
		<circle class="st2" cx="5" cy="5" r="1.5"/>
		<path class="st3" d="M17,18.7c3.8,0.3,6.5,1,6.5,1.8c0,1.1-5.1,2-11.5,2c-6.4,0-11.5-0.9-11.5-2c0-0.8,2.6-1.5,6.5-1.8"/>
		<path class="st2" d="M14.5,17.5h-5V11c0-1.4,1.1-2.5,2.5-2.5c1.4,0,2.5,1.1,2.5,2.5V17.5z"/>
		<path class="st2" d="M20.5,15.5h-3V10c0-0.8,0.7-1.5,1.5-1.5c0.8,0,1.5,0.7,1.5,1.5V15.5z"/>
		<path class="st2" d="M6.5,15.5h-3V10c0-0.8,0.7-1.5,1.5-1.5c0.8,0,1.5,0.7,1.5,1.5V15.5z"/>
	</g>
</g>
</svg>
