<?xml version="1.0" encoding="utf-8"?>
<!-- Generator: Adobe Illustrator 19.2.0, SVG Export Plug-In . SVG Version: 6.00 Build 0)  -->
<svg version="1.1" id="Layer_1" xmlns="http://www.w3.org/2000/svg" xmlns:xlink="http://www.w3.org/1999/xlink" x="0px" y="0px"
	 viewBox="0 0 24 24" style="enable-background:new 0 0 24 24;" xml:space="preserve">
<style type="text/css">
	.st0{display:none;}
	.st1{display:inline;}
	.st2{fill:none;stroke:#000000;stroke-linejoin:round;stroke-miterlimit:10;}
	.st3{fill:none;stroke:#000000;stroke-linecap:round;stroke-linejoin:round;stroke-miterlimit:10;}
</style>
<g id="Filled_Icons" class="st0">
	<path class="st1" d="M23.8,11.6L12.3,1.1c-0.2-0.2-0.5-0.2-0.7,0L0.2,11.6C0,11.8,0,12,0,12.2c0.1,0.2,0.3,0.3,0.5,0.3H3v11
		C3,23.8,3.2,24,3.5,24h17c0.3,0,0.5-0.2,0.5-0.5v-11h2.5c0.2,0,0.4-0.1,0.5-0.3C24,12,24,11.8,23.8,11.6z M8.5,9
		C9.3,9,10,9.7,10,10.5c0,0.8-0.7,1.5-1.5,1.5C7.7,12,7,11.3,7,10.5C7,9.7,7.7,9,8.5,9z M11,16c0,0.8-0.2,1.5-1,1.5V22H7v-4.5
		c-0.8,0-1-0.7-1-1.5v-3h5V16z M15.5,9c0.8,0,1.5,0.7,1.5,1.5c0,0.8-0.7,1.5-1.5,1.5c-0.8,0-1.5-0.7-1.5-1.5C14,9.7,14.7,9,15.5,9z
		 M18,16c0,0.8-0.2,1.5-1,1.5V22h-3v-4.5c-0.8,0-1-0.7-1-1.5v-3h5V16z"/>
</g>
<g id="Outline_Icons">
	<g>
		<path class="st2" d="M5.5,14.5v3c0,0.8,0.2,1.5,1,1.5v4.5h3V19c0.8,0,1-0.7,1-1.5v-3H5.5z"/>
		<circle class="st2" cx="8" cy="11" r="1.5"/>
		<path class="st2" d="M13.5,14.5v3c0,0.8,0.2,1.5,1,1.5v4.5h3V19c0.8,0,1-0.7,1-1.5v-3H13.5z"/>
		<circle class="st2" cx="16" cy="11" r="1.5"/>
		<line class="st3" x1="3.5" y1="12.5" x2="3.5" y2="23.5"/>
		<line class="st3" x1="20.5" y1="12.5" x2="20.5" y2="23.5"/>
		<polyline class="st3" points="0.5,12 12,1.5 23.5,12 		"/>
	</g>
</g>
</svg>
