<?xml version="1.0" encoding="utf-8"?>
<!-- Generator: Adobe Illustrator 19.2.0, SVG Export Plug-In . SVG Version: 6.00 Build 0)  -->
<svg version="1.1" id="Layer_1" xmlns="http://www.w3.org/2000/svg" xmlns:xlink="http://www.w3.org/1999/xlink" x="0px" y="0px"
	 viewBox="0 0 24 24" style="enable-background:new 0 0 24 24;" xml:space="preserve">
<style type="text/css">
	.st0{display:none;}
	.st1{display:inline;}
	.st2{fill:none;stroke:#000000;stroke-linecap:round;stroke-linejoin:round;stroke-miterlimit:10;}
</style>
<g id="Filled_Icons" class="st0">
	<g class="st1">
		<g>
			<path d="M11.5,6C11.2,6,11,5.8,11,5.5v-4C11,1.2,11.2,1,11.5,1C11.8,1,12,1.2,12,1.5v4C12,5.8,11.8,6,11.5,6z"/>
		</g>
		<g>
			<path d="M0.5,13C0.2,13,0,12.8,0,12.5C0,12.2,0.2,12,0.5,12l4,0C4.8,12,5,12.2,5,12.5C5,12.8,4.8,13,4.5,13L0.5,13z"/>
		</g>
		<g>
			<path d="M11.5,24c-0.3,0-0.5-0.2-0.5-0.5v-4c0-0.3,0.2-0.5,0.5-0.5c0.3,0,0.5,0.2,0.5,0.5v4C12,23.8,11.8,24,11.5,24z"/>
		</g>
		<g>
			<path d="M22.5,13L22.5,13l-4,0c-0.3,0-0.5-0.2-0.5-0.5c0-0.3,0.2-0.5,0.5-0.5l0,0l4,0c0.3,0,0.5,0.2,0.5,0.5
				C23,12.8,22.8,13,22.5,13z"/>
		</g>
		<path d="M18.5,13.5c-0.6,0-1-0.4-1-1c0-0.6,0.4-1,1-1h2.4c-0.5-4.4-4-8-8.4-8.4v2.4c0,0.6-0.4,1-1,1c-0.6,0-1-0.4-1-1V3.1
			c-4.4,0.5-8,4-8.4,8.4h2.4c0.6,0,1,0.4,1,1c0,0.6-0.4,1-1,1H2.1c0.5,4.4,4,8,8.4,8.4v-2.4c0-0.6,0.4-1,1-1c0.6,0,1,0.4,1,1v2.4
			c4.4-0.5,8-4,8.4-8.4H18.5z M15.5,17C15.5,17,15.5,17,15.5,17h-8C7.2,17,7,16.8,7,16.5c0-1.9,1.2-3.5,2.9-4.2
			C9.4,11.9,9,11.2,9,10.5C9,9.2,10.2,8,11.5,8S14,9.2,14,10.5c0,0.7-0.3,1.4-0.8,1.8c1.6,0.7,2.8,2.2,2.8,4c0,0,0,0.1,0,0.1
			C16,16.8,15.8,17,15.5,17z"/>
	</g>
</g>
<g id="Outline_Icons">
	<g>
		<circle class="st2" cx="11.5" cy="12.5" r="9"/>
		<line class="st2" x1="11.5" y1="1.5" x2="11.5" y2="6.2"/>
		<line class="st2" x1="0.5" y1="12.5" x2="5.2" y2="12.5"/>
		<line class="st2" x1="11.5" y1="23.5" x2="11.5" y2="18.8"/>
		<line class="st2" x1="22.5" y1="12.5" x2="17.8" y2="12.5"/>
		<circle class="st2" cx="11.5" cy="10.5" r="2"/>
		<path class="st2" d="M15.5,16.5h-8c0-2.2,1.8-4,4-4S15.5,14.3,15.5,16.5z"/>
	</g>
</g>
</svg>
