<?xml version="1.0" encoding="utf-8"?>
<!-- Generator: Adobe Illustrator 19.2.0, SVG Export Plug-In . SVG Version: 6.00 Build 0)  -->
<svg version="1.1" id="Layer_1" xmlns="http://www.w3.org/2000/svg" xmlns:xlink="http://www.w3.org/1999/xlink" x="0px" y="0px"
	 viewBox="0 0 24 24" style="enable-background:new 0 0 24 24;" xml:space="preserve">
<style type="text/css">
	.st0{display:none;}
	.st1{display:inline;}
	.st2{fill:none;stroke:#000000;stroke-linecap:round;stroke-linejoin:round;stroke-miterlimit:10;}
</style>
<g id="Filled_Icons" class="st0">
	<g class="st1">
		<path d="M6.5,3h4.2l0.8,1.7C11.6,4.9,11.8,5,12,5h5.5C17.8,5,18,4.8,18,4.5C18,4.2,17.8,4,17.5,4h-5.2l-0.8-1.7
			C11.4,2.1,11.3,2,11.1,2H6.5C6.2,2,6,2.2,6,2.5C6,2.8,6.2,3,6.5,3z"/>
		<path d="M7.5,1h4.2l0.8,1.7C12.6,2.9,12.8,3,13,3h3.5C16.8,3,17,2.8,17,2.5C17,2.2,16.8,2,16.5,2h-3.2l-0.8-1.7
			C12.4,0.1,12.3,0,12.1,0H7.5C7.2,0,7,0.2,7,0.5C7,0.8,7.2,1,7.5,1z"/>
		<path d="M24,16.5C24,16.4,24,16.4,24,16.5c0-0.1,0-0.2-0.1-0.2c0,0,0,0,0,0l-3.5-6C20.3,10.1,20.2,10,20,10h-1V6.5
			C19,6.2,18.8,6,18.5,6h-7.2l-0.8-1.7C10.4,4.1,10.3,4,10.1,4H5.5C5.2,4,5,4.2,5,4.5V10H4c-0.2,0-0.3,0.1-0.4,0.2l-3.5,6
			c0,0,0,0,0,0c0,0,0,0.1,0,0.1c0,0,0,0.1,0,0.1c0,0,0,0,0,0v7C0,23.8,0.2,24,0.5,24h23c0.3,0,0.5-0.2,0.5-0.5L24,16.5
			C24,16.5,24,16.5,24,16.5z M11.5,10.7c-0.5-0.3-0.7-0.8-0.7-1.4c0-0.9,0.8-1.7,1.7-1.7c0.9,0,1.7,0.8,1.7,1.7
			c0,0.6-0.3,1.1-0.7,1.4c1.2,0.4,2.1,1.1,2.1,2.8h-6C9.5,11.8,10.3,11.1,11.5,10.7z M16.5,16c-0.3,0-0.5,0.2-0.5,0.5v1
			c0,0.8-0.7,1.5-1.5,1.5H10c-0.8,0-1.5-0.7-1.5-1.5v-1C8.5,16.2,8.3,16,8,16H1.4l2.9-5H5v3.5C5,14.8,5.2,15,5.5,15h13
			c0.3,0,0.5-0.2,0.5-0.5V11h0.7l2.9,5H16.5z"/>
	</g>
</g>
<g id="Outline_Icons">
	<g>
		<polyline class="st2" points="18.5,14.5 18.5,6.5 11,6.5 10.1,4.5 5.5,4.5 5.5,14.5 		"/>
		<polyline class="st2" points="17.5,4.5 12,4.5 11.1,2.5 6.5,2.5 		"/>
		<polyline class="st2" points="16.5,2.5 13,2.5 12.1,0.5 7.5,0.5 		"/>
		<path class="st2" d="M23.5,23.5h-23v-7H8v1c0,1.1,0.9,2,2,2h4.5c1.1,0,2-0.9,2-2v-1h7V23.5z"/>
		<polyline class="st2" points="0.5,16.5 4,10.5 5.5,10.5 		"/>
		<polyline class="st2" points="18.5,10.5 20,10.5 23.5,16.5 		"/>
		<path class="st2" d="M13.5,11.7c0.5-0.3,0.7-0.8,0.7-1.4c0-0.9-0.8-1.7-1.7-1.7c-0.9,0-1.7,0.8-1.7,1.7c0,0.6,0.3,1.1,0.7,1.4
			c-1.2,0.4-2.1,1.1-2.1,2.8h6C15.5,12.8,14.7,12.1,13.5,11.7z"/>
	</g>
</g>
</svg>
