<?xml version="1.0" encoding="utf-8"?>
<!-- Generator: Adobe Illustrator 19.2.0, SVG Export Plug-In . SVG Version: 6.00 Build 0)  -->
<svg version="1.1" id="Layer_1" xmlns="http://www.w3.org/2000/svg" xmlns:xlink="http://www.w3.org/1999/xlink" x="0px" y="0px"
	 viewBox="0 0 24 24" style="enable-background:new 0 0 24 24;" xml:space="preserve">
<style type="text/css">
	.st0{display:none;}
	.st1{display:inline;}
	.st2{fill:none;stroke:#000000;stroke-linejoin:round;stroke-miterlimit:10;}
	.st3{fill:none;stroke:#000000;stroke-linecap:round;stroke-linejoin:round;stroke-miterlimit:10;}
</style>
<g id="Filled_Icons" class="st0">
	<g class="st1">
		<path d="M12.5,11.3c0-0.6-0.4-1-1-1c-0.6,0-1,0.4-1,1c0,0.4,0.2,0.7,0.5,0.9c0,0,0,0.1,0,0.1V14c0,0.3,0.2,0.5,0.5,0.5
			c0.3,0,0.5-0.2,0.5-0.5v-1.7c0-0.1,0-0.1,0-0.1C12.3,12,12.5,11.7,12.5,11.3z"/>
		<g>
			<path d="M11.5,5C11.5,5,11.5,5,11.5,5C10.1,5,9,6.1,9,7.5L9,8h5V7.5c0-0.7-0.3-1.3-0.7-1.8C12.8,5.3,12.2,5,11.5,5z"/>
			<path d="M21.3,9.9c-0.3-0.5-0.7-1.2-0.7-1.5C20.6,3.1,15.7,0,11,0C5.4,0,1,4.4,1,10.1c0,3.6,1.3,6.3,4,8v5.5
				C5,23.8,5.2,24,5.5,24h10c0.3,0,0.5-0.2,0.5-0.5v-3c1.7,0,2.8-0.2,3.6-1c0.8-0.8,1-3.3,1-4.5c0.3,0,0.7,0,1,0
				c0.4,0,0.7-0.2,1-0.5c0.2-0.3,0.2-0.5,0.2-0.7l0-0.1C22.8,12.5,22,11.1,21.3,9.9z M16,15.5c0,0.3-0.2,0.5-0.5,0.5h-8
				C7.2,16,7,15.8,7,15.5v-7C7,8.2,7.2,8,7.5,8H8l0-0.5C8,5.6,9.6,4,11.5,4c0,0,0,0,0,0c0.9,0,1.8,0.4,2.5,1c0.7,0.7,1,1.5,1,2.5V8
				h0.5C15.8,8,16,8.2,16,8.5V15.5z"/>
		</g>
	</g>
</g>
<g id="Outline_Icons">
	<g>
		<path class="st2" d="M20.1,8.4c0-5-4.7-7.9-9.1-7.9c-5.4,0-9.5,4.2-9.5,9.6c0,3,1,5.9,4,7.7v5.8h10V20c2,0,3-0.1,3.7-0.8
			c0.9-0.9,0.8-4.7,0.8-4.7s0.9,0,1.5,0c0.2,0,0.4-0.1,0.6-0.3c0.1-0.2,0.1-0.4,0.1-0.6C22.3,12,20.1,9.2,20.1,8.4z"/>
		<rect x="7.5" y="8.5" class="st3" width="8" height="7"/>
		<line class="st3" x1="11.5" y1="14" x2="11.5" y2="12.3"/>
		<g>
			<path class="st2" d="M11.5,10.3c-0.6,0-1,0.4-1,1c0,0.6,0.4,1,1,1c0.6,0,1-0.4,1-1C12.5,10.7,12,10.3,11.5,10.3L11.5,10.3z"/>
		</g>
		<path class="st3" d="M8.5,8.5l0-1c0-1.7,1.4-3,3-3c1.7,0,3,1.4,3,3v1"/>
	</g>
</g>
</svg>
