<?xml version="1.0" encoding="utf-8"?>
<!-- Generator: Adobe Illustrator 19.2.0, SVG Export Plug-In . SVG Version: 6.00 Build 0)  -->
<svg version="1.1" id="Layer_1" xmlns="http://www.w3.org/2000/svg" xmlns:xlink="http://www.w3.org/1999/xlink" x="0px" y="0px"
	 viewBox="0 0 24 24" style="enable-background:new 0 0 24 24;" xml:space="preserve">
<style type="text/css">
	.st0{display:none;}
	.st1{display:inline;}
	.st2{fill:none;stroke:#000000;stroke-linejoin:round;stroke-miterlimit:10;}
	.st3{fill:none;stroke:#000000;stroke-linecap:round;stroke-linejoin:round;stroke-miterlimit:10;}
</style>
<g id="Filled_Icons" class="st0">
	<g class="st1">
		<path d="M14,10v5.5c0,1.2,0.9,2.2,2,2.5v6h4v-6c1.1-0.2,2-1.2,2-2.5V10H14z"/>
		<circle cx="18" cy="6" r="3"/>
		<path d="M9.2,6.5l2.6-2.6C12,3.7,12,3.5,12,3.3C11.9,3.1,11.7,3,11.5,3H2V1.5C2,1.3,1.8,1,1.5,1C1.2,1,1,1.3,1,1.5v2v6v14
			C1,23.8,1.2,24,1.5,24C1.8,24,2,23.8,2,23.5V10h9.5c0,0,0,0,0,0c0.3,0,0.5-0.2,0.5-0.5c0-0.2-0.1-0.3-0.2-0.4L9.2,6.5z"/>
	</g>
</g>
<g id="Outline_Icons">
	<g>
		<path class="st2" d="M14.5,10.5h7v5c0,1.1-0.9,2-2,2v6h-3v-6c-1.1,0-2-0.9-2-2V10.5z"/>
		<circle class="st2" cx="18" cy="6" r="2.5"/>
		<line class="st3" x1="1.5" y1="1.5" x2="1.5" y2="23.5"/>
		<polygon class="st3" points="11.5,9.5 1.5,9.5 1.5,3.5 11.5,3.5 8.5,6.5 		"/>
	</g>
</g>
</svg>
