<?xml version="1.0" encoding="utf-8"?>
<!-- Generator: Adobe Illustrator 19.2.0, SVG Export Plug-In . SVG Version: 6.00 Build 0)  -->
<svg version="1.1" id="Layer_1" xmlns="http://www.w3.org/2000/svg" xmlns:xlink="http://www.w3.org/1999/xlink" x="0px" y="0px"
	 viewBox="0 0 24 24" style="enable-background:new 0 0 24 24;" xml:space="preserve">
<style type="text/css">
	.st0{display:none;}
	.st1{display:inline;}
	.st2{fill:none;stroke:#000000;stroke-linejoin:round;stroke-miterlimit:10;}
	.st3{fill:none;stroke:#000000;stroke-linecap:round;stroke-linejoin:round;stroke-miterlimit:10;}
</style>
<g id="Filled_Icons" class="st0">
	<g class="st1">
		<path d="M22.7,8.2l-2.2-0.6V6.9C21.4,6.2,22,5,22,3.8C21.1,4,19.7,4,18.9,3.4C17.9,4,16.2,4,15,3.4c0,0.1,0,0.2,0,0.3
			c0,1.3,0.6,2.4,1.5,3.1v0.8l-2.2,0.6C13.6,8.5,13,9.2,13,10v1h11v-1C24,9.2,23.4,8.5,22.7,8.2z"/>
		<path d="M18.6,2.3c0.1-0.1,0.3-0.2,0.4-0.1c0.2,0,0.3,0.1,0.4,0.3C19.7,3,21.3,3,21.9,2.8C21.5,1.2,20.1,0,18.5,0
			c-1.5,0-2.8,1-3.3,2.4C16.2,3,18,3,18.6,2.3z"/>
		<path d="M8.7,15.4c1,0.6,2.7,0.6,3.4-0.1c0.1-0.1,0.3-0.2,0.4-0.1c0.2,0,0.3,0.1,0.4,0.3c0.3,0.6,1.8,0.5,2.4,0.3
			C15,14.2,13.6,13,12,13C10.5,13,9.2,14,8.7,15.4z"/>
		<path d="M16.2,21.2L14,20.6v-0.8c0.9-0.7,1.5-1.8,1.5-3.1c-0.9,0.2-2.3,0.2-3.1-0.4C11.4,17,9.7,17,8.5,16.4c0,0.1,0,0.2,0,0.3
			c0,1.3,0.6,2.4,1.5,3.1v0.8l-2.2,0.6c-0.7,0.2-1.3,1-1.3,1.8v1h11v-1C17.5,22.2,16.9,21.5,16.2,21.2z"/>
		<path d="M11,10c0-0.8-0.6-1.5-1.3-1.8L7.5,7.6V6.9C8.4,6.2,9,5,9,3.8C8.1,4,6.7,4,5.9,3.4C4.9,4,3.2,4,2,3.4c0,0.1,0,0.2,0,0.3
			C2,5,2.6,6.2,3.5,6.9v0.8L1.3,8.2C0.6,8.5,0,9.2,0,10v1h11V10z"/>
		<path d="M5.6,2.3c0.1-0.1,0.3-0.2,0.4-0.1c0.2,0,0.3,0.1,0.4,0.3C6.7,3,8.3,3,8.9,2.8C8.5,1.2,7.1,0,5.5,0C4,0,2.7,1,2.2,2.4
			C3.2,3,5,3,5.6,2.3z"/>
		<path d="M6.9,15.4c0.2-0.2,0.2-0.5,0-0.7l-2.5-2.5c-0.2-0.2-0.5-0.2-0.7,0c-0.2,0.2-0.2,0.5,0,0.7l2.5,2.5
			c0.1,0.1,0.2,0.1,0.4,0.1C6.6,15.5,6.8,15.5,6.9,15.4z"/>
		<path d="M19.6,12.1l-2.5,2.5c-0.2,0.2-0.2,0.5,0,0.7c0.1,0.1,0.2,0.1,0.4,0.1c0.1,0,0.3,0,0.4-0.1l2.5-2.5c0.2-0.2,0.2-0.5,0-0.7
			C20.2,12,19.8,12,19.6,12.1z"/>
	</g>
</g>
<g id="Outline_Icons">
	<g>
		<path class="st2" d="M4,6.6V8L1.5,8.7c-0.5,0.2-1,0.7-1,1.3v0.5H6"/>
		<path class="st2" d="M7,6.6V8l2.5,0.7c0.5,0.2,1,0.7,1,1.3v0.5H5"/>
		<ellipse class="st2" cx="5.5" cy="3.8" rx="3" ry="3.3"/>
		<path class="st2" d="M8.5,3.2C8,3.7,6.5,3.7,6,2.7c-1,1-2.6,1-3.4,0.4"/>
		<path class="st2" d="M17,6.6V8l-2.5,0.7c-0.5,0.2-1,0.7-1,1.3v0.5H19"/>
		<path class="st2" d="M20,6.6V8l2.5,0.7c0.5,0.2,1,0.7,1,1.3v0.5H18"/>
		<ellipse class="st2" cx="18.5" cy="3.8" rx="3" ry="3.3"/>
		<path class="st2" d="M21.5,3.2C21,3.7,19.5,3.7,19,2.7c-1,1-2.6,1-3.4,0.4"/>
		<path class="st2" d="M10.5,19.6V21L8,21.7c-0.5,0.2-1,0.7-1,1.3v0.5h5.5"/>
		<path class="st2" d="M13.5,19.6V21l2.5,0.7c0.5,0.2,1,0.7,1,1.3v0.5h-5.5"/>
		<ellipse class="st2" cx="12" cy="16.8" rx="3" ry="3.3"/>
		<path class="st2" d="M15,16.2c-0.5,0.5-1.9,0.5-2.5-0.5c-1,1-2.6,1-3.4,0.4"/>
		<line class="st3" x1="4" y1="12.5" x2="6.5" y2="15"/>
		<line class="st3" x1="20" y1="12.5" x2="17.5" y2="15"/>
	</g>
</g>
</svg>
