<?xml version="1.0" encoding="utf-8"?>
<!-- Generator: Adobe Illustrator 19.2.0, SVG Export Plug-In . SVG Version: 6.00 Build 0)  -->
<svg version="1.1" id="Layer_1" xmlns="http://www.w3.org/2000/svg" xmlns:xlink="http://www.w3.org/1999/xlink" x="0px" y="0px"
	 viewBox="0 0 24 24" style="enable-background:new 0 0 24 24;" xml:space="preserve">
<style type="text/css">
	.st0{display:none;}
	.st1{display:inline;}
	.st2{fill:none;stroke:#000000;stroke-linecap:round;stroke-linejoin:round;stroke-miterlimit:10;}
	.st3{fill:none;stroke:#000000;stroke-linejoin:round;stroke-miterlimit:10;}
</style>
<g id="Filled_Icons" class="st0">
	<path class="st1" d="M23.9,23.1l-7.3-7.3c1.5-1.7,2.4-3.9,2.4-6.3C19,4.3,14.7,0,9.5,0C4.3,0,0,4.3,0,9.5C0,14.7,4.3,19,9.5,19
		c2.4,0,4.7-0.9,6.3-2.4l7.3,7.3c0.2,0.2,0.5,0.2,0.7,0C24,23.7,24,23.3,23.9,23.1z M13.8,15.5c-0.8-0.4-1.6-0.8-2.5-1.1
		C11.1,14.4,11,14.2,11,14v-2c0-0.2,0.1-0.4,0.3-0.5l0,0c0,0,0.7-0.3,0.7-2C12,9.2,12.2,9,12.5,9c0.1-0.1,0.2-0.3,0.2-0.7
		c0-0.2-0.1-0.3-0.1-0.3C12.3,8,12,7.8,12,7.5c0-0.2,0.1-0.3,0.2-0.5c0.2-0.4,0.5-1.1,0.3-1.9C12.4,4.5,11.3,4,10,4
		C8.7,4,7.6,4.5,7.5,5.1C7.4,5.4,7.2,5.5,6.9,5.5c-0.4-0.1-0.5,0-0.5,0c-0.1,0.1,0,0.4,0.4,1.4C6.9,7.2,7,7.3,7,7.5
		C7,7.8,6.8,8,6.5,8c0,0-0.1,0-0.1,0.1C6.3,8.4,6.4,8.9,6.5,9C6.8,9,7,9.2,7,9.5c0,1.7,0.7,2,0.7,2C7.9,11.6,8,11.8,8,12v2
		c0,0.2-0.1,0.4-0.3,0.5c-0.8,0.3-1.7,0.7-2.5,1.1l-0.4-0.9c0.7-0.3,1.5-0.7,2.2-1v-1.4c-0.4-0.3-0.9-1-1-2.4C5.6,9.6,5.4,9,5.4,8.4
		c0-0.3,0.1-0.6,0.2-0.9c0.1-0.1,0.2-0.2,0.3-0.3C5.6,6.5,5.1,5.5,5.7,4.8c0.2-0.3,0.6-0.4,1-0.4C7.2,3.4,8.8,3,10,3
		c1.4,0,3.1,0.5,3.5,1.9c0.2,0.9-0.1,1.8-0.3,2.3c0.1,0.1,0.2,0.2,0.2,0.3c0.1,0.2,0.2,0.5,0.2,0.9c0,0.6-0.2,1.2-0.7,1.5
		c-0.1,1.5-0.6,2.1-1,2.4v1.4c0.7,0.3,1.5,0.6,2.2,1L13.8,15.5z"/>
</g>
<g id="Outline_Icons">
	<g>
		<circle class="st2" cx="9.5" cy="9.5" r="9"/>
		<line class="st2" x1="15.9" y1="15.9" x2="23.5" y2="23.5"/>
		<path class="st3" d="M14,15.1c-0.8-0.4-1.7-0.8-2.5-1.1v-2c0,0,1-0.4,1-2.5c0.7,0,1-2,0-2c0-0.2,0.8-1.3,0.5-2.5c-0.5-2-5.5-2-6,0
			C4.9,4.6,6.5,7.2,6.5,7.5c-1,0-0.7,2,0,2c0,2.1,1,2.5,1,2.5v2c-0.8,0.3-1.7,0.7-2.5,1.1"/>
	</g>
</g>
</svg>
