<?xml version="1.0" encoding="utf-8"?>
<!-- Generator: Adobe Illustrator 19.2.0, SVG Export Plug-In . SVG Version: 6.00 Build 0)  -->
<svg version="1.1" id="Layer_1" xmlns="http://www.w3.org/2000/svg" xmlns:xlink="http://www.w3.org/1999/xlink" x="0px" y="0px"
	 viewBox="0 0 24 24" style="enable-background:new 0 0 24 24;" xml:space="preserve">
<style type="text/css">
	.st0{display:none;}
	.st1{display:inline;}
	.st2{fill:none;stroke:#000000;stroke-linejoin:round;stroke-miterlimit:10;}
</style>
<g id="Filled_Icons" class="st0">
	<path class="st1" d="M12,0C5.4,0,0,5.4,0,12c0,3.2,1.2,6.2,3.5,8.4v0C5.7,22.7,8.8,24,12,24c3.2,0,6.3-1.3,8.5-3.6
		c2.2-2.3,3.5-5.3,3.5-8.4C24,5.4,18.6,0,12,0z M20.1,19.4c-1.1-0.6-2.6-1.2-4.3-1.8c-0.4-0.2-0.8-0.3-1.3-0.5v-1.8
		c0.5-0.3,1.4-1.1,1.5-2.9c0.4-0.2,0.6-0.7,0.6-1.4c0-0.6-0.2-1-0.5-1.3c0.2-0.8,0.7-2.1,0.4-3.3c-0.3-1.4-2.2-1.9-3.7-1.9
		c-1.3,0-3,0.4-3.6,1.5c-0.7,0-1.1,0.3-1.3,0.5c-0.6,0.8-0.2,2.4,0,3.2C7.6,9.9,7.4,10.4,7.4,11c0,0.6,0.2,1.1,0.6,1.4
		c0.1,1.8,1,2.6,1.5,2.9v1.8c-0.4,0.1-0.8,0.3-1.2,0.4c-1.6,0.6-3.3,1.2-4.4,1.9C2,17.4,1,14.8,1,12C1,5.9,5.9,1,12,1
		c6.1,0,11,4.9,11,11C23,14.8,22,17.4,20.1,19.4z"/>
</g>
<g id="Outline_Icons">
	<g>
		<path class="st2" d="M10,15c0,0-1.5-0.5-1.5-3c-0.8,0-0.8-2,0-2c0-0.3-1.5-4,1-3.5c0.5-2,6-2,6.5,0c0.3,1.4-0.5,3.3-0.5,3.5
			c0.8,0,0.8,2,0,2c0,2.5-1.5,3-1.5,3v2.5c2.5,0.9,4.9,1.7,6.2,2.6c2-2.1,3.3-4.9,3.3-8.1c0-6.4-5.1-11.5-11.5-11.5
			C5.6,0.5,0.5,5.6,0.5,12c0,3.2,1.3,6,3.3,8.1c1.3-0.9,4-1.7,6.2-2.6V15z"/>
		<path class="st2" d="M3.8,20.1c2.1,2.1,5,3.4,8.2,3.4c3.2,0,6.1-1.3,8.2-3.4"/>
	</g>
</g>
</svg>
