<?xml version="1.0" encoding="utf-8"?>
<!-- Generator: Adobe Illustrator 19.2.0, SVG Export Plug-In . SVG Version: 6.00 Build 0)  -->
<svg version="1.1" id="Layer_1" xmlns="http://www.w3.org/2000/svg" xmlns:xlink="http://www.w3.org/1999/xlink" x="0px" y="0px"
	 viewBox="0 0 24 24" style="enable-background:new 0 0 24 24;" xml:space="preserve">
<style type="text/css">
	.st0{display:none;}
	.st1{display:inline;}
	.st2{fill:none;stroke:#000000;stroke-linejoin:round;stroke-miterlimit:10;}
</style>
<g id="Filled_Icons" class="st0">
	<path class="st1" d="M21.3,9.9c-0.3-0.5-0.7-1.2-0.7-1.5C20.6,3.1,15.7,0,11,0C5.4,0,1,4.4,1,10.1c0,3.6,1.3,6.3,4,8v5.5
		C5,23.8,5.2,24,5.5,24h10c0.3,0,0.5-0.2,0.5-0.5v-3c1.7,0,2.8-0.2,3.6-1c0.8-0.8,1-3.3,1-4.5c0.3,0,0.7,0,1,0c0.4,0,0.7-0.2,1-0.5
		c0.2-0.3,0.2-0.5,0.2-0.7l0-0.1C22.8,12.5,22,11.1,21.3,9.9z M11.3,15c-0.1,0.1-0.2,0.1-0.3,0.1s-0.2,0-0.3-0.1
		c-0.5-0.4-5.2-3.8-5.2-6.7c0-2,1.5-3.2,3-3.2c0.9,0,1.9,0.4,2.5,1.6c0.7-1.1,1.7-1.6,2.5-1.6c1.5,0,3,1.2,3,3.2
		C16.5,11.1,11.8,14.6,11.3,15z"/>
</g>
<g id="Outline_Icons">
	<g>
		<path class="st2" d="M20.1,8.4c0-5-4.7-7.9-9.1-7.9c-5.4,0-9.5,4.2-9.5,9.6c0,3,1,5.9,4,7.7v5.8h10V20c2,0,3-0.1,3.7-0.8
			c0.9-0.9,0.8-4.7,0.8-4.7s0.9,0,1.5,0c0.2,0,0.4-0.1,0.6-0.3c0.1-0.2,0.1-0.4,0.1-0.6C22.3,12,20.1,9.2,20.1,8.4z"/>
		<path class="st2" d="M11,14.6c0,0,5-3.6,5-6.3c0-3.1-4.1-4.1-5-0.3c-0.9-3.7-5-2.8-5,0.3C6,11,11,14.6,11,14.6z"/>
	</g>
</g>
</svg>
