<?xml version="1.0" encoding="utf-8"?>
<!-- Generator: Adobe Illustrator 19.2.0, SVG Export Plug-In . SVG Version: 6.00 Build 0)  -->
<svg version="1.1" id="Layer_1" xmlns="http://www.w3.org/2000/svg" xmlns:xlink="http://www.w3.org/1999/xlink" x="0px" y="0px"
	 viewBox="0 0 24 24" style="enable-background:new 0 0 24 24;" xml:space="preserve">
<style type="text/css">
	.st0{display:none;}
	.st1{display:inline;}
	.st2{fill:none;stroke:#000000;stroke-linecap:round;stroke-linejoin:round;stroke-miterlimit:10;}
</style>
<g id="Filled_Icons" class="st0">
	<g class="st1">
		<path d="M6,22H3.4l2.8-2.8c0.4-0.4,0.4-1,0-1.4c-0.4-0.4-1-0.4-1.4,0L2,20.6V18c0-0.6-0.4-1-1-1c-0.6,0-1,0.4-1,1v5
			c0,0.1,0,0.3,0.1,0.4c0.1,0.2,0.3,0.4,0.5,0.5C0.7,24,0.9,24,1,24h5c0.6,0,1-0.4,1-1C7,22.4,6.6,22,6,22z"/>
		<path d="M20.6,2l-2.8,2.8c-0.4,0.4-0.4,1,0,1.4c0.2,0.2,0.5,0.3,0.7,0.3c0.3,0,0.5-0.1,0.7-0.3L22,3.4V6c0,0.6,0.4,1,1,1
			c0.6,0,1-0.4,1-1V1c0-0.1,0-0.3-0.1-0.4c-0.1-0.2-0.3-0.4-0.5-0.5C23.3,0,23.1,0,23,0h-5c-0.6,0-1,0.4-1,1c0,0.6,0.4,1,1,1H20.6z"
			/>
		<path d="M6,0H1C0.9,0,0.7,0,0.6,0.1C0.4,0.2,0.2,0.4,0.1,0.6C0,0.7,0,0.9,0,1v5c0,0.6,0.4,1,1,1c0.6,0,1-0.4,1-1V3.4l2.8,2.8
			C5,6.4,5.2,6.5,5.5,6.5c0.3,0,0.5-0.1,0.7-0.3c0.4-0.4,0.4-1,0-1.4L3.4,2H6c0.6,0,1-0.4,1-1C7,0.4,6.6,0,6,0z"/>
		<path d="M24,18c0-0.6-0.4-1-1-1c-0.6,0-1,0.4-1,1v2.6l-2.8-2.8c-0.4-0.4-1-0.4-1.4,0c-0.4,0.4-0.4,1,0,1.4l2.8,2.8H18
			c-0.6,0-1,0.4-1,1c0,0.6,0.4,1,1,1h5c0.1,0,0.3,0,0.4-0.1c0.2-0.1,0.4-0.3,0.5-0.5C24,23.3,24,23.1,24,23V18z"/>
		<g>
			<path d="M12,10c1.9,0,3.5-1.6,3.5-3.5C15.5,4.6,13.9,3,12,3C10,3,8.5,4.6,8.5,6.5C8.5,8.4,10,10,12,10z"/>
			<path d="M16.5,11h-9C7.2,11,7,11.2,7,11.5c0,2.3,1,5.1,3,6v4c0,0.3,0.2,0.5,0.5,0.5h3c0.3,0,0.5-0.2,0.5-0.5v-4c2-0.9,3-3.7,3-6
				C17,11.2,16.7,11,16.5,11z"/>
		</g>
	</g>
</g>
<g id="Outline_Icons">
	<g>
		<g>
			<line class="st2" x1="18" y1="6" x2="23.5" y2="0.5"/>
			<line class="st2" x1="0.5" y1="23.5" x2="6" y2="18"/>
			<polyline class="st2" points="5.5,23.5 0.5,23.5 0.5,18.5 			"/>
			<polyline class="st2" points="23.5,5.5 23.5,0.5 18.5,0.5 			"/>
			<line class="st2" x1="18" y1="18" x2="23.5" y2="23.5"/>
			<line class="st2" x1="0.5" y1="0.5" x2="6" y2="6"/>
			<polyline class="st2" points="0.5,5.5 0.5,0.5 5.5,0.5 			"/>
			<polyline class="st2" points="18.5,23.5 23.5,23.5 23.5,18.5 			"/>
		</g>
		<circle class="st2" cx="12" cy="6.5" r="3"/>
		<path class="st2" d="M16.5,11.5h-9c0,2.1,1,5,3,5.7v4.3h3v-4.3C15.5,16.5,16.5,13.6,16.5,11.5z"/>
	</g>
</g>
</svg>
