<?xml version="1.0" encoding="utf-8"?>
<!-- Generator: Adobe Illustrator 19.2.0, SVG Export Plug-In . SVG Version: 6.00 Build 0)  -->
<svg version="1.1" id="Layer_1" xmlns="http://www.w3.org/2000/svg" xmlns:xlink="http://www.w3.org/1999/xlink" x="0px" y="0px"
	 viewBox="0 0 24 24" style="enable-background:new 0 0 24 24;" xml:space="preserve">
<style type="text/css">
	.st0{display:none;}
	.st1{display:inline;}
	.st2{fill:none;stroke:#000000;stroke-linecap:round;stroke-linejoin:round;stroke-miterlimit:10;}
</style>
<g id="Filled_Icons" class="st0">
	<g class="st1">
		<path d="M14.5,2C9.3,2,5,6.3,5,11.5c0,5.2,4.3,9.5,9.5,9.5c5.2,0,9.5-4.3,9.5-9.5C24,6.3,19.7,2,14.5,2z M19.4,12H15v4.4
			c0,0.3-0.2,0.5-0.5,0.5c-0.3,0-0.5-0.2-0.5-0.5V12H9.6c-0.3,0-0.5-0.2-0.5-0.5c0-0.3,0.2-0.5,0.5-0.5H14V6.6
			c0-0.3,0.2-0.5,0.5-0.5c0.3,0,0.5,0.2,0.5,0.5V11h4.4c0.3,0,0.5,0.2,0.5,0.5C19.9,11.8,19.7,12,19.4,12z"/>
		<g>
			<path d="M5.5,20.3c-0.2,0-0.3,0-0.5-0.1c-3.1-1.8-5-5.1-5-8.7c0-3.6,1.9-6.9,5-8.7c0.5-0.3,1.1-0.1,1.4,0.4
				C6.7,3.7,6.5,4.3,6,4.5c-2.5,1.4-4,4.1-4,7c0,2.9,1.5,5.5,4,6.9c0.5,0.3,0.6,0.9,0.4,1.4C6.2,20.1,5.9,20.3,5.5,20.3z"/>
		</g>
	</g>
</g>
<g id="Outline_Icons">
	<g>
		<g>
			<circle class="st2" cx="14.5" cy="11.5" r="9"/>
			<line class="st2" x1="14.5" y1="6.6" x2="14.5" y2="16.4"/>
			<line class="st2" x1="19.4" y1="11.5" x2="9.6" y2="11.5"/>
		</g>
		<path class="st2" d="M5,19.3c-2.7-1.6-4.5-4.5-4.5-7.8c0-3.4,1.8-6.3,4.5-7.8"/>
	</g>
</g>
</svg>
