<?xml version="1.0" encoding="utf-8"?>
<!-- Generator: Adobe Illustrator 19.2.0, SVG Export Plug-In . SVG Version: 6.00 Build 0)  -->
<svg version="1.1" id="Layer_1" xmlns="http://www.w3.org/2000/svg" xmlns:xlink="http://www.w3.org/1999/xlink" x="0px" y="0px"
	 viewBox="0 0 24 24" style="enable-background:new 0 0 24 24;" xml:space="preserve">
<style type="text/css">
	.st0{display:none;}
	.st1{display:inline;}
	.st2{fill:none;stroke:#000000;stroke-linecap:round;stroke-linejoin:round;stroke-miterlimit:10;}
</style>
<g id="Filled_Icons" class="st0">
	<path class="st1" d="M11.5,0C5.2,0,0,5.2,0,11.5C0,17.8,5.2,23,11.5,23C17.8,23,23,17.8,23,11.5C23,5.2,17.8,0,11.5,0z M19,13.5
		c0,0.3-0.2,0.5-0.5,0.5H14v4.5c0,0.3-0.2,0.5-0.5,0.5h-4C9.2,19,9,18.8,9,18.5V14H4.5C4.2,14,4,13.8,4,13.5v-4C4,9.2,4.2,9,4.5,9H9
		V4.5C9,4.2,9.2,4,9.5,4h4C13.8,4,14,4.2,14,4.5V9h4.5C18.8,9,19,9.2,19,9.5V13.5z"/>
</g>
<g id="Outline_Icons">
	<g>
		<circle class="st2" cx="11.5" cy="11.5" r="11"/>
		<polygon class="st2" points="18.5,9.5 13.5,9.5 13.5,4.5 9.5,4.5 9.5,9.5 4.5,9.5 4.5,13.5 9.5,13.5 9.5,18.5 13.5,18.5 
			13.5,13.5 18.5,13.5 		"/>
	</g>
</g>
</svg>
