<?xml version="1.0" encoding="utf-8"?>
<!-- Generator: Adobe Illustrator 19.2.0, SVG Export Plug-In . SVG Version: 6.00 Build 0)  -->
<svg version="1.1" id="Layer_1" xmlns="http://www.w3.org/2000/svg" xmlns:xlink="http://www.w3.org/1999/xlink" x="0px" y="0px"
	 viewBox="0 0 24 24" style="enable-background:new 0 0 24 24;" xml:space="preserve">
<style type="text/css">
	.st0{display:none;}
	.st1{display:inline;}
	.st2{fill:none;stroke:#000000;stroke-linecap:round;stroke-linejoin:round;stroke-miterlimit:10;}
</style>
<g id="Filled_Icons" class="st0">
	<path class="st1" d="M22.5,0h-22C0.2,0,0,0.2,0,0.5v22C0,22.8,0.2,23,0.5,23h22c0.3,0,0.5-0.2,0.5-0.5v-22C23,0.2,22.8,0,22.5,0z
		 M17.6,12L17.6,12L12,12v5.5c0,0.3-0.2,0.5-0.5,0.5c-0.3,0-0.5-0.2-0.5-0.5V12l-5.5,0C5.2,12,5,11.8,5,11.5C5,11.2,5.2,11,5.5,11
		l0,0l5.5,0V5.5C11,5.2,11.2,5,11.5,5C11.8,5,12,5.2,12,5.5V11l5.6,0c0.3,0,0.5,0.2,0.5,0.5C18.1,11.8,17.9,12,17.6,12z"/>
</g>
<g id="Outline_Icons">
	<g>
		<line class="st2" x1="11.5" y1="5.5" x2="11.5" y2="17.5"/>
		<line class="st2" x1="17.5" y1="11.5" x2="5.5" y2="11.5"/>
		<rect x="0.5" y="0.5" class="st2" width="22" height="22"/>
	</g>
</g>
</svg>
