<?xml version="1.0" encoding="utf-8"?>
<!-- Generator: Adobe Illustrator 19.2.0, SVG Export Plug-In . SVG Version: 6.00 Build 0)  -->
<svg version="1.1" id="Layer_1" xmlns="http://www.w3.org/2000/svg" xmlns:xlink="http://www.w3.org/1999/xlink" x="0px" y="0px"
	 viewBox="0 0 24 24" style="enable-background:new 0 0 24 24;" xml:space="preserve">
<style type="text/css">
	.st0{display:none;}
	.st1{display:inline;}
	.st2{fill:none;stroke:#000000;stroke-linecap:round;stroke-linejoin:round;stroke-miterlimit:10;}
</style>
<g id="Filled_Icons" class="st0">
	<path class="st1" d="M23,11H13l0-10c0-0.6-0.4-1-1-1l0,0c-0.6,0-1,0.4-1,1l0,10H1c-0.6,0-1,0.4-1,1c0,0.6,0.4,1,1,1h10l0,10
		c0,0.6,0.4,1,1,1h0c0.6,0,1-0.4,1-1l0-10h10c0.6,0,1-0.4,1-1C24,11.4,23.6,11,23,11z"/>
</g>
<g id="Outline_Icons">
	<g>
		<line class="st2" x1="11.5" y1="0.5" x2="11.5" y2="22.5"/>
		<line class="st2" x1="22.5" y1="11.5" x2="0.5" y2="11.5"/>
	</g>
</g>
</svg>
