<?xml version="1.0" encoding="utf-8"?>
<!-- Generator: Adobe Illustrator 19.2.0, SVG Export Plug-In . SVG Version: 6.00 Build 0)  -->
<svg version="1.1" id="Layer_1" xmlns="http://www.w3.org/2000/svg" xmlns:xlink="http://www.w3.org/1999/xlink" x="0px" y="0px"
	 viewBox="0 0 24 24" style="enable-background:new 0 0 24 24;" xml:space="preserve">
<style type="text/css">
	.st0{display:none;}
	.st1{display:inline;}
	.st2{fill:none;stroke:#000000;stroke-linejoin:round;stroke-miterlimit:10;}
	.st3{fill:none;stroke:#000000;stroke-linecap:round;stroke-linejoin:round;stroke-miterlimit:10;}
</style>
<g id="Filled_Icon" class="st0">
	<g class="st1">
		<circle cx="17" cy="10" r="1.8"/>
		<path d="M16.8,3c-2.6,0-4.9,1.3-6,3.4c-0.2,0.3-0.3,0.7-0.4,1l-8.6,3.7C1.4,11.3,1.1,11.6,1,12H0.5C0.2,12,0,12.2,0,12.5v4
			C0,19,2,21,4.5,21H21c1.4,0,3-1.1,3-2.5v-8C24,5.4,20.3,3,16.8,3z M7,16c-1.6,0-3.2-0.8-3.7-2.3l7.5-3.2c0.1,0.3,0.2,0.6,0.2,0.8
			c0,0.1,0,0.2,0,0.3c0,0.1,0,0.2,0,0.3C11,14.2,9.2,16,7,16z M17,14c-2.2,0-4-1.8-4-4c0-0.6,0.2-1.2,0.4-1.7L2.6,12.9
			c-0.1,0-0.1,0-0.2,0c-0.2,0-0.4-0.1-0.5-0.3c-0.1-0.3,0-0.5,0.3-0.7l12.9-5.5c0,0,0.1,0,0.1,0C15.7,6.2,16.3,6,17,6
			c2.2,0,4,1.8,4,4C21,12.2,19.2,14,17,14z"/>
	</g>
</g>
<g id="Outline_Icons">
	<g>
		<circle class="st2" cx="17" cy="10" r="3.5"/>
		<circle class="st2" cx="17" cy="10" r="1.3"/>
		<path class="st3" d="M11.4,11.3c0,0.2,0.1,0.4,0.1,0.7c0,2.5-2,4.5-4.5,4.5c-2.4,0-4.5-1.5-4.5-4c0,0-2,0-2,0v4c0,2.2,1.8,4,4,4
			H21c1.1,0,2.5-0.9,2.5-2v-8c0-8-9.7-9-12.3-3.8"/>
		<line class="st2" x1="2.4" y1="12.5" x2="15.3" y2="6.9"/>
	</g>
</g>
</svg>
