<?xml version="1.0" encoding="utf-8"?>
<!-- Generator: Adobe Illustrator 19.2.0, SVG Export Plug-In . SVG Version: 6.00 Build 0)  -->
<svg version="1.1" id="Layer_1" xmlns="http://www.w3.org/2000/svg" xmlns:xlink="http://www.w3.org/1999/xlink" x="0px" y="0px"
	 viewBox="0 0 24 24" style="enable-background:new 0 0 24 24;" xml:space="preserve">
<style type="text/css">
	.st0{display:none;}
	.st1{display:inline;}
	.st2{fill:none;stroke:#000000;stroke-linecap:round;stroke-linejoin:round;stroke-miterlimit:10;}
</style>
<g id="Filled_Icon" class="st0">
	<g class="st1">
		<path d="M11.5,7.5c-2.2,0-4,1.8-4,4c0,2.2,1.8,4,4,4c2.2,0,4-1.8,4-4C15.5,9.3,13.7,7.5,11.5,7.5z"/>
		<path d="M11.5,5.9c0.3,0,0.5-0.2,0.5-0.5V0.5C12,0.2,11.8,0,11.5,0C11.2,0,11,0.2,11,0.5v4.9C11,5.7,11.2,5.9,11.5,5.9z"/>
		<path d="M15.8,7.7c0.1,0,0.3,0,0.4-0.1l1.3-1.3c0.2-0.2,0.2-0.5,0-0.7c-0.2-0.2-0.5-0.2-0.7,0l-1.3,1.3c-0.2,0.2-0.2,0.5,0,0.7
			C15.5,7.6,15.6,7.7,15.8,7.7z"/>
		<path d="M16.1,15.3c-0.2-0.2-0.5-0.2-0.7,0c-0.2,0.2-0.2,0.5,0,0.7l1.3,1.3c0.1,0.1,0.2,0.1,0.4,0.1c0.1,0,0.3,0,0.4-0.1
			c0.2-0.2,0.2-0.5,0-0.7L16.1,15.3z"/>
		<path d="M6.9,15.3l-1.3,1.3c-0.2,0.2-0.2,0.5,0,0.7c0.1,0.1,0.2,0.1,0.4,0.1c0.1,0,0.3,0,0.4-0.1l1.3-1.3c0.2-0.2,0.2-0.5,0-0.7
			C7.4,15.2,7.1,15.2,6.9,15.3z"/>
		<path d="M6.9,7.5C7,7.6,7.1,7.7,7.2,7.7c0.1,0,0.3,0,0.4-0.1c0.2-0.2,0.2-0.5,0-0.7L6.2,5.5C6,5.3,5.7,5.3,5.5,5.5
			C5.3,5.7,5.3,6,5.5,6.2L6.9,7.5z"/>
		<path d="M22.4,11h-4.9c-0.3,0-0.5,0.2-0.5,0.5c0,0.3,0.2,0.5,0.5,0.5h4.9c0.3,0,0.5-0.2,0.5-0.5C22.9,11.2,22.7,11,22.4,11z"/>
		<path d="M11.5,17c-0.3,0-0.5,0.2-0.5,0.5v4.9c0,0.3,0.2,0.5,0.5,0.5c0.3,0,0.5-0.2,0.5-0.5v-4.9C12,17.2,11.8,17,11.5,17z"/>
		<path d="M6,11.5C6,11.2,5.7,11,5.5,11H0.6c-0.3,0-0.5,0.2-0.5,0.5c0,0.3,0.2,0.5,0.5,0.5h4.9C5.7,12,6,11.8,6,11.5z"/>
	</g>
</g>
<g id="Outline_Icons">
	<g>
		<circle class="st2" cx="11.5" cy="11.5" r="3.5"/>
		<line class="st2" x1="11.5" y1="5.4" x2="11.5" y2="0.5"/>
		<line class="st2" x1="15.8" y1="7.2" x2="17.1" y2="5.9"/>
		<line class="st2" x1="15.8" y1="15.7" x2="17.1" y2="17.1"/>
		<line class="st2" x1="7.2" y1="15.7" x2="5.9" y2="17.1"/>
		<line class="st2" x1="7.2" y1="7.2" x2="5.9" y2="5.9"/>
		<line class="st2" x1="17.5" y1="11.5" x2="22.4" y2="11.5"/>
		<line class="st2" x1="11.5" y1="17.5" x2="11.5" y2="22.4"/>
		<line class="st2" x1="5.5" y1="11.5" x2="0.6" y2="11.5"/>
	</g>
</g>
</svg>
