<?xml version="1.0" encoding="utf-8"?>
<!-- Generator: Adobe Illustrator 19.2.0, SVG Export Plug-In . SVG Version: 6.00 Build 0)  -->
<svg version="1.1" id="Layer_1" xmlns="http://www.w3.org/2000/svg" xmlns:xlink="http://www.w3.org/1999/xlink" x="0px" y="0px"
	 viewBox="0 0 24 24" style="enable-background:new 0 0 24 24;" xml:space="preserve">
<style type="text/css">
	.st0{display:none;}
	.st1{display:inline;}
	.st2{fill:none;stroke:#000000;stroke-linejoin:round;stroke-miterlimit:10;}
	.st3{fill:none;stroke:#000000;stroke-linecap:round;stroke-linejoin:round;stroke-miterlimit:10;}
</style>
<g id="Filled_Icons" class="st0">
	<g class="st1">
		<g>
			<path d="M6.5,11C6.2,11,6,11.2,6,11.5v4C6,15.8,6.2,16,6.5,16C6.8,16,7,15.8,7,15.5v-4C7,11.2,6.8,11,6.5,11z"/>
			<path d="M22.5,8h-21C0.7,8,0,8.7,0,9.5v12C0,22.3,0.7,23,1.5,23H4v1h1v-1h14v1h1v-1h2.5c0.8,0,1.5-0.7,1.5-1.5v-12
				C24,8.7,23.3,8,22.5,8z M3,16c-0.6,0-1-0.4-1-1c0-0.6,0.4-1,1-1c0.6,0,1,0.4,1,1C4,15.6,3.6,16,3,16z M3,13c-0.6,0-1-0.4-1-1
				c0-0.6,0.4-1,1-1c0.6,0,1,0.4,1,1C4,12.6,3.6,13,3,13z M6.5,20.5C5.7,20.5,5,19.8,5,19c0-0.8,0.7-1.5,1.5-1.5
				C7.3,17.5,8,18.2,8,19C8,19.8,7.3,20.5,6.5,20.5z M8,15.5C8,16.3,7.3,17,6.5,17C5.7,17,5,16.3,5,15.5v-4C5,10.7,5.7,10,6.5,10
				C7.3,10,8,10.7,8,11.5V15.5z M10,20.5c0,0.3-0.2,0.5-0.5,0.5C9.2,21,9,20.8,9,20.5v-10C9,10.2,9.2,10,9.5,10
				c0.3,0,0.5,0.2,0.5,0.5V20.5z M12,20.5c0,0.3-0.2,0.5-0.5,0.5c-0.3,0-0.5-0.2-0.5-0.5v-10c0-0.3,0.2-0.5,0.5-0.5
				c0.3,0,0.5,0.2,0.5,0.5V20.5z M14,20.5c0,0.3-0.2,0.5-0.5,0.5c-0.3,0-0.5-0.2-0.5-0.5v-10c0-0.3,0.2-0.5,0.5-0.5
				c0.3,0,0.5,0.2,0.5,0.5V20.5z M16,20.5c0,0.3-0.2,0.5-0.5,0.5c-0.3,0-0.5-0.2-0.5-0.5v-10c0-0.3,0.2-0.5,0.5-0.5
				c0.3,0,0.5,0.2,0.5,0.5V20.5z M18,20.5c0,0.3-0.2,0.5-0.5,0.5c-0.3,0-0.5-0.2-0.5-0.5v-10c0-0.3,0.2-0.5,0.5-0.5
				c0.3,0,0.5,0.2,0.5,0.5V20.5z M20,20.5c0,0.3-0.2,0.5-0.5,0.5c-0.3,0-0.5-0.2-0.5-0.5v-10c0-0.3,0.2-0.5,0.5-0.5
				c0.3,0,0.5,0.2,0.5,0.5V20.5z M22,20.5c0,0.3-0.2,0.5-0.5,0.5c-0.3,0-0.5-0.2-0.5-0.5v-10c0-0.3,0.2-0.5,0.5-0.5
				c0.3,0,0.5,0.2,0.5,0.5V20.5z"/>
			<circle cx="6.5" cy="19" r="0.5"/>
		</g>
		<g>
			<path d="M15,7c-0.1,0-0.1,0-0.2,0c-0.3-0.1-0.4-0.4-0.3-0.7c0.4-1.1,0.2-1.9,0-2.8c-0.2-0.9-0.5-1.9,0-3.2
				C14.6,0,14.9-0.1,15.2,0c0.3,0.1,0.4,0.4,0.3,0.7c-0.4,1-0.2,1.7,0,2.6c0.3,0.9,0.5,2,0,3.4C15.4,6.9,15.2,7,15,7z"/>
		</g>
		<g>
			<path d="M19,7c-0.1,0-0.1,0-0.2,0c-0.3-0.1-0.4-0.4-0.3-0.7c0.4-1.1,0.2-1.9,0-2.8c-0.2-0.9-0.5-1.9,0-3.2
				C18.6,0,18.9-0.1,19.2,0c0.3,0.1,0.4,0.4,0.3,0.7c-0.4,1-0.2,1.7,0,2.6c0.3,0.9,0.5,2,0,3.4C19.4,6.9,19.2,7,19,7z"/>
		</g>
		<g>
			<path d="M11,7c-0.1,0-0.1,0-0.2,0c-0.3-0.1-0.4-0.4-0.3-0.7c0.4-1.1,0.2-1.9,0-2.8c-0.2-0.9-0.5-1.9,0-3.2
				C10.6,0,10.9-0.1,11.2,0c0.3,0.1,0.4,0.4,0.3,0.7c-0.4,1-0.2,1.7,0,2.6c0.3,0.9,0.5,2,0,3.4C11.4,6.9,11.2,7,11,7z"/>
		</g>
	</g>
</g>
<g id="Outline_Icons">
	<g>
		<path class="st2" d="M23.5,21.5c0,0.6-0.4,1-1,1h-21c-0.6,0-1-0.4-1-1v-12c0-0.6,0.4-1,1-1h21c0.6,0,1,0.4,1,1V21.5z"/>
		<line class="st2" x1="19.5" y1="24" x2="19.5" y2="22.5"/>
		<line class="st2" x1="4.5" y1="24" x2="4.5" y2="22.5"/>
		<line class="st3" x1="11.5" y1="10.5" x2="11.5" y2="20.5"/>
		<line class="st3" x1="9.5" y1="10.5" x2="9.5" y2="20.5"/>
		<line class="st3" x1="13.5" y1="10.5" x2="13.5" y2="20.5"/>
		<line class="st3" x1="15.5" y1="10.5" x2="15.5" y2="20.5"/>
		<line class="st3" x1="17.5" y1="10.5" x2="17.5" y2="20.5"/>
		<line class="st3" x1="19.5" y1="10.5" x2="19.5" y2="20.5"/>
		<line class="st3" x1="21.5" y1="10.5" x2="21.5" y2="20.5"/>
		<path class="st3" d="M5.5,11.5c0-0.6,0.4-1,1-1c0.6,0,1,0.4,1,1v4c0,0.6-0.4,1-1,1c-0.6,0-1-0.4-1-1V11.5z"/>
		<circle class="st3" cx="6.5" cy="19" r="1"/>
		<circle class="st3" cx="3" cy="12" r="0.5"/>
		<circle class="st3" cx="3" cy="15" r="0.5"/>
		<path class="st3" d="M15,0.5c-0.9,2.3,1,3.5,0,6"/>
		<path class="st3" d="M19,0.5c-0.9,2.3,1,3.5,0,6"/>
		<path class="st3" d="M11,0.5c-0.9,2.3,1,3.5,0,6"/>
	</g>
</g>
</svg>
