<?xml version="1.0" encoding="utf-8"?>
<!-- Generator: Adobe Illustrator 19.2.0, SVG Export Plug-In . SVG Version: 6.00 Build 0)  -->
<svg version="1.1" id="Layer_1" xmlns="http://www.w3.org/2000/svg" xmlns:xlink="http://www.w3.org/1999/xlink" x="0px" y="0px"
	 viewBox="0 0 24 24" style="enable-background:new 0 0 24 24;" xml:space="preserve">
<style type="text/css">
	.st0{display:none;}
	.st1{display:inline;}
	.st2{fill:none;stroke:#000000;stroke-linejoin:round;stroke-miterlimit:10;}
	.st3{fill:none;stroke:#000000;stroke-linecap:round;stroke-linejoin:round;stroke-miterlimit:10;}
</style>
<g id="Filled_Icons" class="st0">
	<g class="st1">
		<g>
			<path d="M24,8V2.5C24,1.2,22.9,0,21.5,0h-19C1.1,0,0,1.2,0,2.5V8H24z M17.5,7C17.2,7,17,6.8,17,6.5C17,6.3,17.2,6,17.5,6
				C17.8,6,18,6.3,18,6.5C18,6.8,17.8,7,17.5,7z M19.5,7C19.2,7,19,6.8,19,6.5C19,6.3,19.2,6,19.5,6C19.8,6,20,6.3,20,6.5
				C20,6.8,19.8,7,19.5,7z M3.5,2h17C20.8,2,21,2.3,21,2.5C21,2.8,20.8,3,20.5,3h-17C3.2,3,3,2.8,3,2.5C3,2.3,3.2,2,3.5,2z M3.5,4
				h17C20.8,4,21,4.3,21,4.5C21,4.8,20.8,5,20.5,5h-17C3.2,5,3,4.8,3,4.5C3,4.3,3.2,4,3.5,4z"/>
			<path d="M0,9v3.5C0,12.8,0.2,13,0.5,13h1.6l1.1,2.2C3.4,15.7,3.9,16,4.5,16h15c0.6,0,1.1-0.3,1.3-0.8l1.1-2.2h1.6
				c0.3,0,0.5-0.2,0.5-0.5V9H0z M21.9,10.8l-2,4c-0.1,0.2-0.3,0.3-0.4,0.3h-15c-0.2,0-0.4-0.1-0.4-0.3l-2-4c-0.1-0.2-0.1-0.3,0-0.5
				C2.2,10.1,2.3,10,2.5,10h19c0.2,0,0.3,0.1,0.4,0.2C22,10.4,22,10.6,21.9,10.8z"/>
		</g>
		<g>
			<path d="M18,24c-0.1,0-0.3,0-0.4-0.1c-1.1-1.1-0.5-2.4-0.1-3.5c0.5-1.2,0.7-1.9,0.1-2.5c-0.2-0.2-0.2-0.5,0-0.7
				c0.2-0.2,0.5-0.2,0.7,0c1.1,1.1,0.6,2.5,0.1,3.6c-0.5,1.1-0.7,1.9-0.1,2.4c0.2,0.2,0.2,0.5,0,0.7C18.2,24,18.1,24,18,24z"/>
		</g>
		<g>
			<path d="M11.6,24c-0.1,0-0.3,0-0.4-0.1c-1.1-1.1-0.5-2.4-0.1-3.5c0.5-1.2,0.7-1.9,0.1-2.5c-0.2-0.2-0.2-0.5,0-0.7
				c0.2-0.2,0.5-0.2,0.7,0c1.1,1.1,0.6,2.5,0.1,3.6c-0.5,1.1-0.7,1.9-0.1,2.5c0.2,0.2,0.2,0.5,0,0.7C11.8,24,11.7,24,11.6,24z"/>
		</g>
		<g>
			<path d="M5.6,24c-0.1,0-0.3,0-0.4-0.1c-1.1-1.1-0.5-2.4-0.1-3.5c0.5-1.2,0.7-1.9,0.1-2.5c-0.2-0.2-0.2-0.5,0-0.7
				c0.2-0.2,0.5-0.2,0.7,0C7,18.2,6.5,19.6,6,20.7c-0.5,1.1-0.7,1.9-0.1,2.5c0.2,0.2,0.2,0.5,0,0.7C5.8,24,5.7,24,5.6,24z"/>
		</g>
	</g>
</g>
<g id="Outline_Icons">
	<g>
		<path class="st2" d="M2,12.5H0.5v-10c0-1.1,0.9-2,2-2h19c1.1,0,2,0.9,2,2v10H22"/>
		<polygon class="st2" points="2.5,10.5 21.5,10.5 19.5,14.5 4.5,14.5 		"/>
		<line class="st3" x1="3.5" y1="2.5" x2="20.5" y2="2.5"/>
		<line class="st3" x1="3.5" y1="4.5" x2="20.5" y2="4.5"/>
		<g>
			<path d="M17.5,6C17.2,6,17,6.2,17,6.5C17,6.8,17.2,7,17.5,7C17.8,7,18,6.8,18,6.5C18,6.2,17.8,6,17.5,6L17.5,6z"/>
		</g>
		<g>
			<path d="M19.5,6C19.2,6,19,6.2,19,6.5C19,6.8,19.2,7,19.5,7C19.8,7,20,6.8,20,6.5C20,6.2,19.8,6,19.5,6L19.5,6z"/>
		</g>
		<line class="st2" x1="0.5" y1="8.5" x2="23.5" y2="8.5"/>
		<path class="st3" d="M18,16.5c1.7,1.7-1.7,4.3,0,6"/>
		<path class="st3" d="M11.6,16.5c1.7,1.7-1.7,4.3,0,6"/>
		<path class="st3" d="M5.6,16.5c1.7,1.7-1.7,4.3,0,6"/>
	</g>
</g>
</svg>
