<?xml version="1.0" encoding="utf-8"?>
<!-- Generator: Adobe Illustrator 19.2.0, SVG Export Plug-In . SVG Version: 6.00 Build 0)  -->
<svg version="1.1" id="Layer_1" xmlns="http://www.w3.org/2000/svg" xmlns:xlink="http://www.w3.org/1999/xlink" x="0px" y="0px"
	 viewBox="0 0 24 24" style="enable-background:new 0 0 24 24;" xml:space="preserve">
<style type="text/css">
	.st0{display:none;}
	.st1{display:inline;}
	.st2{fill:none;stroke:#000000;stroke-linejoin:round;stroke-miterlimit:10;}
	.st3{fill:none;stroke:#000000;stroke-linecap:round;stroke-linejoin:round;stroke-miterlimit:10;}
</style>
<g id="Filled_Icons" class="st0">
	<g class="st1">
		<path d="M12,17.5c3.3,0,5.9-4,5.9-8.8C17.9,3.8,15.3,0,12,0C8.7,0,6.1,3.8,6.1,8.7C6.1,13.5,8.7,17.5,12,17.5z"/>
		<g>
			<path d="M9,22v1.5C9,23.8,9.2,24,9.5,24h5c0.3,0,0.5-0.2,0.5-0.5V22H9z"/>
			<path d="M15.6,0.4c2,1.7,3.4,4.7,3.4,8.3c0,2.7-0.7,5.1-1.9,6.8C16.7,16,16,17,16,17l-1.8,3H9.8L8,17c0,0-0.7-1-1-1.5
				c-1.2-1.8-1.9-4.2-1.9-6.8c0-3.6,1.3-6.6,3.4-8.3c-4.5,1-6.9,4-6.9,8.6c0,3.6,2.2,5.9,4.9,7.2L8.6,20H8c-0.3,0-0.5,0.2-0.5,0.5
				C7.5,20.8,7.7,21,8,21h0.5H9h6h0.5H16c0.3,0,0.5-0.2,0.5-0.5c0-0.3-0.2-0.5-0.5-0.5h-0.6l2.3-3.8c2.7-1.3,4.9-3.6,4.9-7.2
				C22.5,4.3,20.1,1.3,15.6,0.4z"/>
		</g>
	</g>
</g>
<g id="Outline_Icons">
	<g>
		<path class="st2" d="M22,9c0,6-6.4,8-10,8C8.4,17,2,15,2,9s4.1-8.5,10-8.5C17.9,0.5,22,3,22,9z"/>
		<rect x="9.5" y="20.5" class="st2" width="5" height="3"/>
		<line class="st2" x1="17.3" y1="15.8" x2="14.5" y2="20.5"/>
		<line class="st2" x1="6.7" y1="15.8" x2="9.5" y2="20.5"/>
		<line class="st3" x1="8" y1="20.5" x2="16" y2="20.5"/>
		<path class="st2" d="M17.4,8.7c0,4.6-2.4,8.3-5.4,8.3c-3,0-5.4-3.7-5.4-8.3C6.6,4.1,9,0.5,12,0.5C15,0.5,17.4,4.1,17.4,8.7z"/>
	</g>
</g>
</svg>
