<?xml version="1.0" encoding="utf-8"?>
<!-- Generator: Adobe Illustrator 19.2.0, SVG Export Plug-In . SVG Version: 6.00 Build 0)  -->
<svg version="1.1" id="Layer_1" xmlns="http://www.w3.org/2000/svg" xmlns:xlink="http://www.w3.org/1999/xlink" x="0px" y="0px"
	 viewBox="0 0 24 24" style="enable-background:new 0 0 24 24;" xml:space="preserve">
<style type="text/css">
	.st0{display:none;}
	.st1{display:inline;}
	.st2{fill:none;stroke:#000000;stroke-linecap:round;stroke-linejoin:round;stroke-miterlimit:10;}
	.st3{fill:none;stroke:#000000;stroke-linejoin:round;stroke-miterlimit:10;}
</style>
<g id="Filled_Icons" class="st0">
	<g class="st1">
		<path d="M5.6,2.8L10,4.6l4.9-2.1L9.7,0.4c-0.1,0-0.3-0.1-0.4,0L5.6,1.9C5.4,2,5.3,2.1,5.3,2.4C5.3,2.6,5.4,2.7,5.6,2.8z"/>
		<g>
			<g>
				<path d="M21.3,16.4l-4.9,4.9c1.3,1,3.4,0.9,4.6-0.3c0.7-0.7,1-1.5,1-2.5C22,17.7,21.7,17,21.3,16.4z"/>
				<path d="M20.6,15.7C20,15.3,19.3,15,18.5,15c-0.9,0-1.8,0.4-2.5,1c-1.2,1.2-1.3,3.2-0.3,4.6L20.6,15.7z"/>
				<path d="M22.4,14.6c-1-1-2.4-1.6-3.9-1.6c-1.5,0-2.9,0.6-3.9,1.6c-1,1-1.6,2.4-1.6,3.9c0,1.5,0.6,2.9,1.6,3.9
					c1,1,2.4,1.6,3.9,1.6c1.5,0,2.9-0.6,3.9-1.6c1-1,1.6-2.4,1.6-3.9C24,17,23.4,15.7,22.4,14.6z M21.7,21.7c-0.8,0.9-2,1.3-3.2,1.3
					c-1.2,0-2.3-0.5-3.2-1.3c-1.8-1.8-1.8-4.6,0-6.4c0.9-0.9,2-1.3,3.2-1.3c1.2,0,2.3,0.5,3.2,1.3c0.9,0.8,1.3,2,1.3,3.2
					C23,19.7,22.5,20.8,21.7,21.7z"/>
			</g>
		</g>
		<path d="M15.1,13l2.8-5.5l4.5-1.7C23,5.5,23.5,5,23.7,4.4c0.3-0.6,0.3-1.3,0-1.9c-0.5-1.2-2-1.9-3.3-1.3L7,7L4.2,5.6
			c-0.1-0.1-0.3-0.1-0.4,0L0.3,7.1C0.1,7.2,0,7.3,0,7.5c0,0.2,0,0.3,0.1,0.4l4.5,4.5c0.1,0.1,0.4,0.2,0.5,0.1l6.4-2.6L9,16.9
			c-0.1,0.2,0,0.4,0.1,0.5c0.1,0.1,0.2,0.1,0.3,0.1c0.1,0,0.2,0,0.2-0.1l2.7-1.4C13,14.8,13.9,13.7,15.1,13z"/>
	</g>
</g>
<g id="Outline_Icons">
	<g>
		<g>
			<path class="st2" d="M14.9,12.4l2.6-5.3l4.7-1.8c1-0.4,1.5-1.6,1.1-2.6c-0.4-1-1.6-1.5-2.6-1.1L7,7.6L4,6.1L0.5,7.6L5,12.1l7.5-3
				l-3,8l2-1"/>
			<polyline class="st2" points="16.2,3.6 9.5,0.8 5.9,2.4 12.6,5.2 			"/>
		</g>
		<circle class="st3" cx="18.5" cy="18.5" r="5"/>
		<line class="st3" x1="15" y1="22" x2="22" y2="15"/>
	</g>
</g>
</svg>
