<?xml version="1.0" encoding="utf-8"?>
<!-- Generator: Adobe Illustrator 19.2.0, SVG Export Plug-In . SVG Version: 6.00 Build 0)  -->
<svg version="1.1" id="Layer_1" xmlns="http://www.w3.org/2000/svg" xmlns:xlink="http://www.w3.org/1999/xlink" x="0px" y="0px"
	 viewBox="0 0 24 24" style="enable-background:new 0 0 24 24;" xml:space="preserve">
<style type="text/css">
	.st0{display:none;}
	.st1{display:inline;}
	.st2{fill:none;stroke:#000000;stroke-linecap:round;stroke-linejoin:round;stroke-miterlimit:10;}
	.st3{fill:none;stroke:#000000;stroke-linejoin:round;stroke-miterlimit:10;}
</style>
<g id="Filled_Icons" class="st0">
	<g class="st1">
		<path d="M9.8,5.3l4.9,1.9l-2.2-5.3c0-0.1-0.1-0.2-0.3-0.3L8.7,0.1C8.5,0,8.3,0.1,8.2,0.2C8,0.4,8,0.6,8,0.8L9.8,5.3z"/>
		<g>
			<path d="M18.5,13c-3,0-5.5,2.5-5.5,5.5c0,3,2.5,5.5,5.5,5.5c3,0,5.5-2.5,5.5-5.5C24,15.5,21.5,13,18.5,13z M21.4,17.4l-3,3
				c-0.1,0.1-0.2,0.1-0.4,0.1c-0.2,0-0.3-0.1-0.4-0.1l-2-2c-0.2-0.2-0.2-0.5,0-0.7c0.2-0.2,0.5-0.2,0.7,0l1.6,1.6l2.7-2.6
				c0.2-0.2,0.5-0.2,0.7,0C21.5,16.8,21.5,17.2,21.4,17.4z"/>
		</g>
		<path d="M14.3,13.6c1.1-1,2.6-1.6,4.2-1.6c0.9,0,1.8,0.2,2.6,0.5c0-0.3-0.1-0.7-0.2-1c-0.3-0.6-0.7-1.1-1.4-1.4L5.4,4.7L4.5,1.9
			c0-0.1-0.1-0.2-0.3-0.3L0.7,0.1c-0.2-0.1-0.3-0.1-0.5,0C0.1,0.3,0,0.4,0,0.6v6.5c0,0.2,0.1,0.4,0.3,0.5l6.4,2.6l-6.5,3
			C0.1,13.2,0,13.4,0,13.6c0,0.2,0.1,0.4,0.3,0.4l4,1.5c0.1,0,0.1,0,0.2,0c0,0,0.1,0,0.1,0l8.3-2.5L14.3,13.6z"/>
	</g>
</g>
<g id="Outline_Icons">
	<g>
		<g>
			<path class="st2" d="M20.5,11.9c-0.2-0.5-0.6-1-1.1-1.2L5,5.1l-1-3L0.5,0.6v6.5l7.5,3l-7.5,3.5l4,1.5l8.5-2.5"/>
			<polyline class="st2" points="14.8,8.8 12,2.1 8.5,0.6 11.1,7.4 			"/>
		</g>
		<g>
			<circle class="st3" cx="18.5" cy="18.5" r="5"/>
			<polyline class="st2" points="21,17.3 18.1,20.4 16,18.4 			"/>
		</g>
	</g>
</g>
</svg>
