<?xml version="1.0" encoding="utf-8"?>
<!-- Generator: Adobe Illustrator 19.2.0, SVG Export Plug-In . SVG Version: 6.00 Build 0)  -->
<svg version="1.1" id="Layer_1" xmlns="http://www.w3.org/2000/svg" xmlns:xlink="http://www.w3.org/1999/xlink" x="0px" y="0px"
	 viewBox="0 0 24 24" style="enable-background:new 0 0 24 24;" xml:space="preserve">
<style type="text/css">
	.st0{display:none;}
	.st1{display:inline;}
	.st2{fill:none;stroke:#000000;stroke-linecap:round;stroke-linejoin:round;stroke-miterlimit:10;}
</style>
<g id="Filled_Icons" class="st0">
	<path class="st1" d="M22.9,1.2c-1.1-1.1-3.1-1.1-4.2,0L15.8,4c-1.6,0-3,0-4.3,0c-1.1,0-2.1,0-3,0C2.9,4,0,4.1,0,7
		c0,2.3,2.1,2.4,5.2,2.5c1.3,0.1,2.9,0.1,4.7,0.3L4.8,15H2.5C1.1,15,0,16.1,0,17.5c0,1.9,1.4,2.3,2.8,2.7c0.2,0.1,0.5,0.1,0.8,0.2
		c0.1,0.2,0.1,0.5,0.2,0.7C4.2,22.5,4.6,24,6.5,24C7.9,24,9,22.9,9,21.5v-2.3l5.1-5.1c0.2,1.8,0.3,3.4,0.3,4.7
		c0.1,3.1,0.2,5.2,2.5,5.2c0.9,0,1.6-0.2,2.1-0.7c1.1-1.1,1.1-3.6,1-9.1c0-1.7-0.1-3.7-0.1-6l2.9-2.9C24,4.2,24,2.3,22.9,1.2z"/>
</g>
<g id="Outline_Icons">
	<g>
		<path class="st2" d="M22.5,1.5c-1-1-2.5-1-3.5,0l-3,3C4,4.5,0.5,4,0.5,7c0,2.8,3.7,1.5,10.5,2.5l-6,6H2.5c-1.1,0-2,0.9-2,2
			c0,1.8,1.6,1.9,3.5,2.5c0.6,1.8,0.7,3.5,2.5,3.5c1.1,0,2-0.9,2-2V19l6-6c1,6.8-0.3,10.5,2.5,10.5c3.4,0,2.5-3.1,2.5-15.5l3-3
			C23.5,4,23.5,2.5,22.5,1.5z"/>
	</g>
</g>
</svg>
