<?xml version="1.0" encoding="utf-8"?>
<!-- Generator: Adobe Illustrator 19.2.0, SVG Export Plug-In . SVG Version: 6.00 Build 0)  -->
<svg version="1.1" id="Layer_1" xmlns="http://www.w3.org/2000/svg" xmlns:xlink="http://www.w3.org/1999/xlink" x="0px" y="0px"
	 viewBox="0 0 24 24" style="enable-background:new 0 0 24 24;" xml:space="preserve">
<style type="text/css">
	.st0{display:none;}
	.st1{display:inline;}
	.st2{fill:none;stroke:#000000;stroke-linecap:round;stroke-linejoin:round;stroke-miterlimit:10;}
	.st3{fill:none;stroke:#000000;stroke-linejoin:round;stroke-miterlimit:10;}
</style>
<g id="Filled_Icons" class="st0">
	<g class="st1">
		<path d="M8.5,10.7l-6.7-2c0,0-0.1,0-0.1,0C1.2,8.7,0.8,9,0.6,9.4c-0.2,0.5,0,1.1,0.5,1.5c0.4,0.4,4.4,3.5,6.3,5.1L8.5,10.7z"/>
		<path d="M23.4,9.4c-0.2-0.4-0.6-0.7-1.1-0.7c0,0-0.1,0-0.1,0l-6.7,2l1,5.3c2-1.6,5.9-4.7,6.3-5.1C23.4,10.5,23.6,9.9,23.4,9.4z"/>
		<path d="M16.5,4.3C16.4,4.1,16.2,4,16,4l-2.6,0c-0.2-0.6-0.8-1-1.4-1c0,0,0,0,0,0l0,0h0c0,0,0,0,0,0c-0.6,0-1.2,0.4-1.4,1L8,4
			C7.8,4,7.6,4.1,7.5,4.3c-0.1,0.2,0,0.4,0.1,0.5l2.5,2.8l-1.9,9.8C8,18.6,8.3,19.8,9,20.6c0.7,0.9,1.8,1.4,3,1.4
			c1.1,0,2.2-0.5,3-1.4c0.7-0.9,1.1-2,0.9-3.2l-1.9-9.8l2.5-2.8C16.5,4.7,16.5,4.5,16.5,4.3z M14,17.5c0,0.3-0.2,0.5-0.5,0.5h-3
			c-0.3,0-0.5-0.2-0.5-0.5c0-0.3,0.2-0.5,0.5-0.5h3C13.8,17,14,17.2,14,17.5z"/>
	</g>
</g>
<g id="Outline_Icons">
	<g>
		<path class="st2" d="M12,3.5c-0.6,0-1,0.4-1,1l-3,0l2.6,3l-2,10.1c-0.2,1,0.1,2,0.8,2.7c0.6,0.8,1.6,1.2,2.6,1.2"/>
		<line class="st2" x1="10.5" y1="17.5" x2="13.5" y2="17.5"/>
		<g>
			<path class="st2" d="M12,3.5c0.6,0,1,0.4,1,1l3,0l-2.6,3l2,10.1c0.2,1-0.1,2-0.8,2.7c-0.6,0.8-1.6,1.2-2.6,1.2"/>
			<path class="st3" d="M8.9,16.4c0,0-6.9-5.4-7.4-5.9C0.9,10,0.9,9.2,1.7,9.2l8.2,2.4"/>
			<line class="st2" x1="13.5" y1="17.5" x2="10.5" y2="17.5"/>
		</g>
		<g>
			<path class="st2" d="M12,3.5c-0.6,0-1,0.4-1,1l-3,0l2.6,3l-2,10.1c-0.2,1,0.1,2,0.8,2.7c0.6,0.8,1.6,1.2,2.6,1.2"/>
			<path class="st3" d="M15.1,16.4c0,0,6.9-5.4,7.4-5.9c0.6-0.5,0.5-1.3-0.2-1.3l-8.2,2.4"/>
		</g>
	</g>
</g>
</svg>
