<?xml version="1.0" encoding="utf-8"?>
<!-- Generator: Adobe Illustrator 19.2.0, SVG Export Plug-In . SVG Version: 6.00 Build 0)  -->
<svg version="1.1" id="Layer_1" xmlns="http://www.w3.org/2000/svg" xmlns:xlink="http://www.w3.org/1999/xlink" x="0px" y="0px"
	 viewBox="0 0 24 24" style="enable-background:new 0 0 24 24;" xml:space="preserve">
<style type="text/css">
	.st0{display:none;}
	.st1{display:inline;}
	.st2{fill:none;stroke:#000000;stroke-linecap:round;stroke-linejoin:round;stroke-miterlimit:10;}
</style>
<g id="Filled_Icons" class="st0">
	<g class="st1">
		<path d="M10.3,8h5.4l-3.9-3.9C11.8,4.1,11.6,4,11.5,4h-4C7.3,4,7.1,4.1,7,4.3C7,4.5,7,4.7,7.1,4.9L10.3,8z"/>
		<path d="M21.5,9H6.7L4.9,7.2C4.8,7.1,4.6,7,4.5,7h-4C0.3,7,0.2,7.1,0.1,7.2C0,7.4,0,7.6,0.1,7.7l3,6C3.1,13.9,3.3,14,3.5,14h6.8
			l-5.1,5.1C5,19.3,5,19.5,5,19.7C5.1,19.9,5.3,20,5.5,20h5c0.1,0,0.3-0.1,0.4-0.1l5.9-5.9h4.8c1.4,0,2.5-1.1,2.5-2.5
			C24,10.1,22.9,9,21.5,9z"/>
	</g>
</g>
<g id="Outline_Icons">
	<g>
		<path class="st2" d="M21.5,9.5h-15l-2-2h-4l3,6h8l-6,6h5l6-6h5c1.1,0,2-0.9,2-2C23.5,10.4,22.6,9.5,21.5,9.5z"/>
		<polyline class="st2" points="16.5,9.5 11.5,4.5 7.5,4.5 12.5,9.5 		"/>
	</g>
</g>
</svg>
