<?xml version="1.0" encoding="utf-8"?>
<!-- Generator: Adobe Illustrator 19.2.0, SVG Export Plug-In . SVG Version: 6.00 Build 0)  -->
<svg version="1.1" id="Layer_1" xmlns="http://www.w3.org/2000/svg" xmlns:xlink="http://www.w3.org/1999/xlink" x="0px" y="0px"
	 viewBox="0 0 24 24" style="enable-background:new 0 0 24 24;" xml:space="preserve">
<style type="text/css">
	.st0{display:none;}
	.st1{display:inline;}
	.st2{fill:none;stroke:#000000;stroke-linecap:round;stroke-linejoin:round;stroke-miterlimit:10;}
</style>
<g id="Filled_Icons" class="st0">
	<g class="st1">
		<path d="M7.7,21.2l-0.3-3C6,18.7,5,20,5,21.5C5,21.8,5.2,22,5.5,22h2.4C7.8,21.7,7.8,21.5,7.7,21.2z"/>
		<path d="M16.6,18.2l-0.3,3c0,0.3-0.1,0.6-0.2,0.8h2.4c0.3,0,0.5-0.2,0.5-0.5C19,20,18,18.7,16.6,18.2z"/>
		<path d="M7,4h2.7c0,0.2-0.1,0.4-0.1,0.6C10.3,4.2,11.1,4,12,4c0.9,0,1.7,0.2,2.4,0.6c0-0.2,0-0.4-0.1-0.6H17
			c0.3,0,0.5-0.2,0.5-0.5C17.5,3.2,17.3,3,17,3h-2.9c-0.3-1-1-2-2.1-2c-1.1,0-1.8,1-2.1,2H7C6.7,3,6.5,3.2,6.5,3.5
			C6.5,3.8,6.7,4,7,4z"/>
		<path d="M15.4,6.5C14.5,5.6,13.3,5,12,5c-1.3,0-2.5,0.6-3.4,1.5c-0.9,1-1.3,2.2-1.1,3.5l1.2,11C8.9,22.7,10.3,24,12,24
			c1.7,0,3.1-1.3,3.3-2.9l1.2-11C16.6,8.8,16.2,7.5,15.4,6.5z M14.4,10.4l-0.3,3.2c0,0.3-0.2,0.4-0.5,0.4h-3.2
			c-0.3,0-0.5-0.2-0.5-0.5l-0.3-3.2C9.5,9.7,9.7,9,10.2,8.5c0.9-1,2.7-1,3.6,0C14.3,9,14.5,9.7,14.4,10.4z"/>
		<g>
			<path d="M17.1,14H19V7h-2.1c0.5,1,0.7,2,0.6,3.1L17.1,14z"/>
			<rect x="20" y="7" width="1" height="7"/>
			<path d="M22,7.1V14c1.1-0.2,2-1.2,2-2.4v-2C24,8.3,23.1,7.3,22,7.1z"/>
		</g>
		<g>
			<path d="M2,7.1C0.9,7.3,0,8.3,0,9.5v2c0,1.2,0.9,2.2,2,2.4V7.1z"/>
			<rect x="3" y="7" width="1" height="7"/>
			<path d="M7.1,7H5v7h1.9l-0.4-3.9C6.4,9.1,6.6,8,7.1,7z"/>
		</g>
	</g>
</g>
<g id="Outline_Icons">
	<g>
		<path class="st2" d="M16,10c0.1-1.1-0.2-2.3-1-3.1c-0.8-0.9-1.9-1.3-3-1.3c-1.1,0-2.2,0.5-3,1.3c-0.8,0.9-1.1,2-1,3.1l1.2,11
			c0.2,1.4,1.4,2.5,2.8,2.5c1.4,0,2.6-1.1,2.8-2.5L16,10z"/>
		<path class="st2" d="M13.6,13.5l0.3-3.2c0.1-0.5-0.1-1.1-0.5-1.5c-0.4-0.4-0.9-0.6-1.4-0.6c-0.5,0-1.1,0.2-1.4,0.6
			c-0.4,0.4-0.5,0.9-0.5,1.5l0.3,3.2L13.6,13.5L13.6,13.5z"/>
		<path class="st2" d="M15.6,13.5h5.9c1.1,0,2-0.9,2-2v-2c0-1.1-0.9-2-2-2h-6"/>
		<path class="st2" d="M8.5,7.5h-6c-1.1,0-2,0.9-2,2v2c0,1.1,0.9,2,2,2h5.8"/>
		<path class="st2" d="M10,5.5c0,0,0.1-4,2-4c1.9,0,2,4,2,4H10z"/>
		<path class="st2" d="M9.3,21.5H5.5c0-1.7,1.3-3,3-3h0.4"/>
		<path class="st2" d="M15.1,18.5h0.4c1.7,0,3,1.3,3,3h-3.8"/>
		<line class="st2" x1="7" y1="3.5" x2="17" y2="3.5"/>
		<line class="st2" x1="18.5" y1="7.5" x2="18.5" y2="13.5"/>
		<line class="st2" x1="20.5" y1="7.5" x2="20.5" y2="13.5"/>
		<line class="st2" x1="3.5" y1="7.5" x2="3.5" y2="13.5"/>
		<line class="st2" x1="5.5" y1="7.5" x2="5.5" y2="13.5"/>
	</g>
</g>
</svg>
