<?xml version="1.0" encoding="utf-8"?>
<!-- Generator: Adobe Illustrator 19.2.0, SVG Export Plug-In . SVG Version: 6.00 Build 0)  -->
<svg version="1.1" id="Layer_1" xmlns="http://www.w3.org/2000/svg" xmlns:xlink="http://www.w3.org/1999/xlink" x="0px" y="0px"
	 viewBox="0 0 24 24" style="enable-background:new 0 0 24 24;" xml:space="preserve">
<style type="text/css">
	.st0{display:none;}
	.st1{display:inline;}
	.st2{fill:none;stroke:#000000;stroke-linecap:round;stroke-linejoin:round;stroke-miterlimit:10;}
</style>
<g id="Filled_Icons" class="st0">
	<g class="st1">
		<path d="M5.7,6.3l4.4,1.8l4.9-2.1L9.8,3.8c-0.1-0.1-0.3-0.1-0.4,0L5.7,5.3C5.5,5.4,5.4,5.6,5.4,5.8C5.4,6,5.5,6.2,5.7,6.3z"/>
		<path d="M23.8,6c-0.5-1.2-2-1.9-3.3-1.3L7.1,10.5L4.3,9.1C4.2,9,4,9,3.9,9l-3.5,1.5c-0.2,0.1-0.3,0.2-0.3,0.4c0,0.2,0,0.3,0.1,0.4
			l4.5,4.5C4.9,16,5.1,16,5.3,16l6.4-2.6l-2.6,6.9c-0.1,0.2,0,0.4,0.1,0.5C9.3,21,9.4,21,9.6,21c0.1,0,0.2,0,0.2-0.1l4-2
			c0.1,0,0.2-0.1,0.2-0.2l3.9-7.8l4.5-1.7C23.7,8.7,24.3,7.2,23.8,6z"/>
	</g>
</g>
<g id="Outline_Icons">
	<g>
		<path class="st2" d="M20.7,5.1L7.1,11l-3-1.5L0.6,11l4.5,4.5l7.5-3l-3,8l4-2l4-8l4.7-1.8c1-0.4,1.5-1.6,1.1-2.6
			C22.9,5.1,21.8,4.6,20.7,5.1z"/>
		<polyline class="st2" points="16.2,7 9.6,4.3 5.9,5.8 12.6,8.6 		"/>
	</g>
</g>
</svg>
