<?xml version="1.0" encoding="utf-8"?>
<!-- Generator: Adobe Illustrator 19.2.0, SVG Export Plug-In . SVG Version: 6.00 Build 0)  -->
<svg version="1.1" id="Layer_1" xmlns="http://www.w3.org/2000/svg" xmlns:xlink="http://www.w3.org/1999/xlink" x="0px" y="0px"
	 viewBox="0 0 24 24" style="enable-background:new 0 0 24 24;" xml:space="preserve">
<style type="text/css">
	.st0{display:none;}
	.st1{display:inline;}
	.st2{fill:none;stroke:#000000;stroke-linecap:round;stroke-linejoin:round;stroke-miterlimit:10;}
</style>
<g id="Filled_Icons" class="st0">
	<g class="st1">
		<path d="M11.8,9.7l4.9,1.9l-2.2-5.3c0-0.1-0.1-0.2-0.3-0.3l-3.5-1.5c-0.2-0.1-0.4,0-0.5,0.1C10,4.8,10,5,10,5.2L11.8,9.7z"/>
		<path d="M22.9,16c-0.3-0.6-0.7-1.1-1.4-1.4L7.4,9.1L6.5,6.3c0-0.1-0.1-0.2-0.3-0.3L2.7,4.5c-0.2-0.1-0.3,0-0.5,0
			C2.1,4.7,2,4.8,2,5v6.5c0,0.2,0.1,0.4,0.3,0.5l6.4,2.6l-6.5,3C2.1,17.6,2,17.8,2,18c0,0.2,0.1,0.4,0.3,0.4l4,1.5
			c0.1,0,0.1,0,0.2,0c0,0,0.1,0,0.1,0l8.3-2.5l4.6,1.7c1.3,0.5,2.7-0.1,3.3-1.4C23.1,17.3,23.1,16.6,22.9,16z"/>
	</g>
</g>
<g id="Outline_Icons">
	<g>
		<path class="st2" d="M21.3,15.1L7,9.5l-1-3L2.5,5v6.5l7.5,3L2.5,18l4,1.5L15,17l4.8,1.8c1,0.4,2.2-0.1,2.6-1.1
			C22.8,16.7,22.3,15.5,21.3,15.1z"/>
		<polyline class="st2" points="16.8,13.3 14,6.5 10.5,5 13.1,11.8 		"/>
	</g>
</g>
</svg>
