<?xml version="1.0" encoding="utf-8"?>
<!-- Generator: Adobe Illustrator 19.2.0, SVG Export Plug-In . SVG Version: 6.00 Build 0)  -->
<svg version="1.1" id="Layer_1" xmlns="http://www.w3.org/2000/svg" xmlns:xlink="http://www.w3.org/1999/xlink" x="0px" y="0px"
	 viewBox="0 0 24 24" style="enable-background:new 0 0 24 24;" xml:space="preserve">
<style type="text/css">
	.st0{display:none;}
	.st1{display:inline;}
	.st2{fill:none;stroke:#000000;stroke-linecap:round;stroke-linejoin:round;stroke-miterlimit:10;}
	.st3{fill:none;stroke:#000000;stroke-linejoin:round;stroke-miterlimit:10;}
</style>
<g id="Filled_Icons" class="st0">
	<g class="st1">
		<path d="M5.7,2.8L10,4.7l4.9-2.1L9.7,0.4c-0.1-0.1-0.3-0.1-0.4,0L5.7,1.9C5.5,2,5.4,2.2,5.4,2.4C5.4,2.6,5.5,2.8,5.7,2.8z"/>
		<g>
			<path d="M18.5,13c-3,0-5.5,2.5-5.5,5.5c0,3,2.5,5.5,5.5,5.5c3,0,5.5-2.5,5.5-5.5C24,15.5,21.5,13,18.5,13z M21.4,17.4l-3,3
				c-0.1,0.1-0.2,0.1-0.4,0.1c-0.2,0-0.3-0.1-0.4-0.1l-2-2c-0.2-0.2-0.2-0.5,0-0.7c0.2-0.2,0.5-0.2,0.7,0l1.6,1.6l2.7-2.6
				c0.2-0.2,0.5-0.2,0.7,0C21.5,16.8,21.5,17.2,21.4,17.4z"/>
		</g>
		<path d="M15.2,12.9l2.7-5.4l4.5-1.7c0.6-0.3,1.1-0.7,1.4-1.4c0.3-0.6,0.3-1.3,0-1.9c-0.5-1.2-2-1.9-3.3-1.3L7,7L4.3,5.6
			C4.1,5.6,4,5.6,3.8,5.6L0.3,7.1C0.2,7.2,0.1,7.3,0,7.5c0,0.2,0,0.3,0.1,0.4l4.5,4.5c0.1,0.1,0.4,0.2,0.5,0.1l6.4-2.6l-2.6,6.9
			c-0.1,0.2,0,0.4,0.1,0.5c0.1,0.1,0.2,0.1,0.3,0.1c0.1,0,0.2,0,0.2-0.1l2.7-1.3C13,14.8,13.9,13.7,15.2,12.9z"/>
	</g>
</g>
<g id="Outline_Icons">
	<g>
		<g>
			<path class="st2" d="M14.9,12.4l2.6-5.3l4.7-1.8c1-0.4,1.5-1.6,1.1-2.6c-0.4-1-1.6-1.5-2.6-1.1L7,7.6L4,6.1L0.5,7.6L5,12.1l7.5-3
				l-3,8l2-1"/>
			<polyline class="st2" points="16.2,3.6 9.5,0.8 5.9,2.4 12.6,5.2 			"/>
		</g>
		<g>
			<circle class="st3" cx="18.5" cy="18.5" r="5"/>
			<polyline class="st2" points="21,17.3 18.1,20.4 16,18.4 			"/>
		</g>
	</g>
</g>
</svg>
