<?xml version="1.0" encoding="utf-8"?>
<!-- Generator: Adobe Illustrator 19.2.0, SVG Export Plug-In . SVG Version: 6.00 Build 0)  -->
<svg version="1.1" id="Layer_1" xmlns="http://www.w3.org/2000/svg" xmlns:xlink="http://www.w3.org/1999/xlink" x="0px" y="0px"
	 viewBox="0 0 24 24" style="enable-background:new 0 0 24 24;" xml:space="preserve">
<style type="text/css">
	.st0{display:none;}
	.st1{display:inline;}
	.st2{fill:none;stroke:#000000;stroke-linejoin:round;stroke-miterlimit:10;}
	.st3{fill:none;stroke:#000000;stroke-linecap:round;stroke-linejoin:round;stroke-miterlimit:10;}
</style>
<g id="Filled_Icons" class="st0">
	<g class="st1">
		<path d="M4,19.2V21h1.5C5.8,21,6,21.2,6,21.5C6,21.8,5.8,22,5.5,22H4v0.5C4,22.8,4.2,23,4.5,23h6c0.3,0,0.5-0.2,0.5-0.5V21
			C8.4,21,6,20.3,4,19.2z"/>
		<path d="M23.5,21.4l-1.5-5c-1.3,1.8-3.4,3.1-6,3.9l0.6,1.4c0.1,0.2,0.3,0.3,0.5,0.3h6c0.2,0,0.3-0.1,0.4-0.2
			C23.5,21.7,23.5,21.5,23.5,21.4z"/>
		<path d="M21.9,7.6l1.5-5c0-0.2,0-0.3-0.1-0.4C23.3,2.1,23.2,2,23,2h-6c-0.2,0-0.4,0.1-0.5,0.3L16,3.7C18.5,4.5,20.6,5.9,21.9,7.6z
			"/>
		<path d="M18,14c-0.8,0-1.5-0.7-1.5-1.5c0-0.8,0.7-1.5,1.5-1.5h4.4C21.7,7.1,17,4,11.2,4C5,4,0,7.6,0,12c0,4.4,5,8,11.2,8
			c5.2,0,9.6-2.6,10.9-6H18z"/>
		<g>
			<path d="M23.5,13H18c-0.3,0-0.5-0.2-0.5-0.5c0-0.3,0.2-0.5,0.5-0.5h5.5c0.3,0,0.5,0.2,0.5,0.5C24,12.8,23.7,13,23.5,13z"/>
		</g>
	</g>
</g>
<g id="Outline_Icons">
	<g>
		<g>
			<ellipse class="st2" cx="11.2" cy="12" rx="10.8" ry="7.5"/>
			<line class="st3" x1="18" y1="12.5" x2="23.5" y2="12.5"/>
			<polyline class="st2" points="15.9,5.2 17,2.5 23,2.5 21,8.9 			"/>
			<polyline class="st2" points="15.9,18.8 17,21.5 23,21.5 21,15.1 			"/>
			<polyline class="st2" points="4.5,17.8 4.5,21.5 10.5,21.5 10.5,19.5 			"/>
		</g>
		<line class="st3" x1="4.5" y1="20" x2="6" y2="20"/>
	</g>
</g>
</svg>
