<?xml version="1.0" encoding="utf-8"?>
<!-- Generator: Adobe Illustrator 19.2.0, SVG Export Plug-In . SVG Version: 6.00 Build 0)  -->
<svg version="1.1" id="Layer_1" xmlns="http://www.w3.org/2000/svg" xmlns:xlink="http://www.w3.org/1999/xlink" x="0px" y="0px"
	 viewBox="0 0 24 24" style="enable-background:new 0 0 24 24;" xml:space="preserve">
<style type="text/css">
	.st0{display:none;}
	.st1{display:inline;}
	.st2{fill:none;stroke:#000000;stroke-linecap:round;stroke-linejoin:round;stroke-miterlimit:10;}
</style>
<g id="Filled_Icons" class="st0">
	<g class="st1">
		<path d="M20.5,19.5c-0.8,0-1.5-0.7-1.5-1.5v-3.5c0-2.7-1.6-5.2-4-6.3c-0.2-1.5-1.4-2.7-3-2.7S9.2,6.7,9,8.2c-2.5,1.2-4,3.6-4,6.3
			V18c0,0.8-0.7,1.5-1.5,1.5C3.2,19.5,3,19.7,3,20c0,0.3,0.2,0.5,0.5,0.5h17c0.3,0,0.5-0.2,0.5-0.5C21,19.7,20.8,19.5,20.5,19.5z"/>
		<path d="M14,21h-4c-0.3,0-0.5,0.2-0.5,0.5c0,1.4,1.1,2.5,2.5,2.5c1.4,0,2.5-1.1,2.5-2.5C14.5,21.2,14.3,21,14,21z"/>
		<path d="M4,9.5C4,9.2,3.8,9,3.5,9H1.7l2.1-2.1C4,6.7,4,6.5,4,6.3C3.9,6.1,3.7,6,3.5,6h-3C0.2,6,0,6.2,0,6.5C0,6.8,0.2,7,0.5,7h1.8
			L0.1,9.1C0,9.3,0,9.5,0,9.7C0.1,9.9,0.3,10,0.5,10h3C3.8,10,4,9.8,4,9.5z"/>
		<path d="M9.5,2h0.8L9.1,3.1C9,3.3,9,3.5,9,3.7C9.1,3.9,9.3,4,9.5,4h2C11.8,4,12,3.8,12,3.5C12,3.2,11.8,3,11.5,3h-0.8l1.1-1.1
			C12,1.7,12,1.5,12,1.3C11.9,1.1,11.7,1,11.5,1h-2C9.2,1,9,1.2,9,1.5C9,1.8,9.2,2,9.5,2z"/>
		<path d="M23.5,7h-2.8l3.1-3.1C24,3.7,24,3.5,24,3.3C23.9,3.1,23.7,3,23.5,3h-4C19.2,3,19,3.2,19,3.5C19,3.8,19.2,4,19.5,4h2.8
			l-3.1,3.1C19,7.3,19,7.5,19,7.7C19.1,7.9,19.3,8,19.5,8h4C23.8,8,24,7.8,24,7.5C24,7.2,23.8,7,23.5,7z"/>
	</g>
</g>
<g id="Outline_Icons">
	<g>
		<path class="st2" d="M18.5,19.5V15c0-2.7-1.7-5-4-6c0-1.4-1.1-2.5-2.5-2.5c-1.4,0-2.5,1.1-2.5,2.5c-2.4,1-4,3.3-4,6v4.5
			c0,1.1-0.9,2-2,2h17C19.4,21.5,18.5,20.6,18.5,19.5z"/>
		<path class="st2" d="M14,21.5c0,1.1-0.9,2-2,2c-1.1,0-2-0.9-2-2"/>
		<polyline class="st2" points="0.5,6.5 3.5,6.5 0.5,9.5 3.5,9.5 		"/>
		<polyline class="st2" points="9.5,1.5 11.5,1.5 9.5,3.5 11.5,3.5 		"/>
		<polyline class="st2" points="19.5,3.5 23.5,3.5 19.5,7.5 23.5,7.5 		"/>
	</g>
</g>
</svg>
