<?xml version="1.0" encoding="utf-8"?>
<!-- Generator: Adobe Illustrator 19.2.0, SVG Export Plug-In . SVG Version: 6.00 Build 0)  -->
<svg version="1.1" id="Layer_1" xmlns="http://www.w3.org/2000/svg" xmlns:xlink="http://www.w3.org/1999/xlink" x="0px" y="0px"
	 viewBox="0 0 24 24" style="enable-background:new 0 0 24 24;" xml:space="preserve">
<style type="text/css">
	.st0{display:none;}
	.st1{display:inline;}
	.st2{fill:none;stroke:#000000;stroke-linecap:round;stroke-linejoin:round;stroke-miterlimit:10;}
</style>
<g id="Filled_Icons" class="st0">
	<g class="st1">
		<path d="M3.5,17.5h0.9L16.6,5.2c-0.5-0.4-1-0.8-1.6-1.1c-0.2-1.5-1.4-2.7-3-2.7S9.2,2.7,9,4.2c-2.5,1.2-4,3.6-4,6.3V15
			c0,0.8-0.7,1.5-1.5,1.5C3.2,16.5,3,16.7,3,17C3,17.3,3.2,17.5,3.5,17.5z"/>
		<path d="M20.5,16.5c-0.8,0-1.5-0.7-1.5-1.5v-4.5c0-1-0.2-1.9-0.6-2.8l-9.8,9.8h11.9c0.3,0,0.5-0.2,0.5-0.5
			C21,16.7,20.8,16.5,20.5,16.5z"/>
		<path d="M14,18h-4c-0.3,0-0.5,0.2-0.5,0.5c0,1.4,1.1,2.5,2.5,2.5c1.4,0,2.5-1.1,2.5-2.5C14.5,18.2,14.3,18,14,18z"/>
		<path d="M23.9,0.1c-0.2-0.2-0.5-0.2-0.7,0L17.3,6L5.8,17.5l0,0l-5.6,5.6c-0.2,0.2-0.2,0.5,0,0.7c0,0,0,0,0,0
			c0.2,0.2,0.5,0.2,0.7,0c0,0,0,0,0,0l6.4-6.4l0,0L17.9,6.8l5.9-5.9C24,0.7,24,0.3,23.9,0.1z"/>
	</g>
</g>
<g id="Outline_Icons">
	<g>
		<path class="st2" d="M15,6c0-1.4-1.1-2.5-2.5-2.5C11.1,3.5,10,4.6,10,6c-2.4,1-4,3.3-4,6v2.5"/>
		<path class="st2" d="M9.5,18.5h11c-1.1,0-2-0.9-2-2V12c0-0.9-0.2-1.7-0.5-2.5"/>
		<path class="st2" d="M14,18.5c0,1.1-0.9,2-2,2c-1.1,0-2-0.9-2-2"/>
		<line class="st2" x1="0.5" y1="23.5" x2="23.5" y2="0.5"/>
	</g>
</g>
</svg>
