<?xml version="1.0" encoding="utf-8"?>
<!-- Generator: Adobe Illustrator 19.2.0, SVG Export Plug-In . SVG Version: 6.00 Build 0)  -->
<svg version="1.1" id="Layer_1" xmlns="http://www.w3.org/2000/svg" xmlns:xlink="http://www.w3.org/1999/xlink" x="0px" y="0px"
	 viewBox="0 0 24 24" style="enable-background:new 0 0 24 24;" xml:space="preserve">
<style type="text/css">
	.st0{display:none;}
	.st1{display:inline;}
	.st2{fill:none;stroke:#000000;stroke-linecap:round;stroke-linejoin:round;stroke-miterlimit:10;}
</style>
<g id="Filled_Icons" class="st0">
	<g class="st1">
		<path d="M23.5,18c-1.4,0-2.5-1.1-2.5-2.5V11c0-3.6-2.2-7-5.6-8.3C15,1.1,13.6,0,12,0c-1.6,0-3,1.1-3.4,2.7C5.2,4,3,7.4,3,11v4.5
			C3,16.9,1.9,18,0.5,18C0.2,18,0,18.2,0,18.5C0,18.8,0.2,19,0.5,19h23c0.3,0,0.5-0.2,0.5-0.5C24,18.2,23.8,18,23.5,18z"/>
		<path d="M15,20H9c-0.3,0-0.5,0.2-0.5,0.5c0,1.9,1.6,3.5,3.5,3.5c1.9,0,3.5-1.6,3.5-3.5C15.5,20.2,15.3,20,15,20z"/>
	</g>
</g>
<g id="Outline_Icons">
	<g>
		<path class="st2" d="M20.5,16.5V11c0-3.7-2.3-6.8-5.5-8c-0.2-1.4-1.5-2.5-3-2.5S9.3,1.6,9,3c-3.2,1.2-5.5,4.3-5.5,8v5.5
			c0,1.7-1.3,3-3,3h23C21.8,19.5,20.5,18.2,20.5,16.5z"/>
		<path class="st2" d="M15,19.5c0,1.7-1.3,3-3,3c-1.7,0-3-1.3-3-3"/>
	</g>
</g>
</svg>
