<?xml version="1.0" encoding="utf-8"?>
<!-- Generator: Adobe Illustrator 19.2.0, SVG Export Plug-In . SVG Version: 6.00 Build 0)  -->
<svg version="1.1" id="Layer_1" xmlns="http://www.w3.org/2000/svg" xmlns:xlink="http://www.w3.org/1999/xlink" x="0px" y="0px"
	 viewBox="0 0 24 24" style="enable-background:new 0 0 24 24;" xml:space="preserve">
<style type="text/css">
	.st0{display:none;}
	.st1{display:inline;}
	.st2{fill:none;stroke:#000000;stroke-linecap:round;stroke-linejoin:round;stroke-miterlimit:10;}
</style>
<g id="Filled_Icons" class="st0">
	<g class="st1">
		<path d="M4.6,23.1c-0.2,0.2-0.2,0.5,0,0.7C4.7,24,4.9,24,5,24c0.1,0,0.3,0,0.4-0.1L6,23.2c-0.3-0.2-0.6-0.4-0.8-0.6L4.6,23.1z"/>
		<path d="M18.8,22.6c-0.3,0.2-0.5,0.4-0.8,0.6l0.6,0.6C18.7,24,18.9,24,19,24c0.1,0,0.3,0,0.4-0.1c0.2-0.2,0.2-0.5,0-0.7L18.8,22.6
			z"/>
		<path d="M19.5,1c-1.8,0-3.3,1-4.1,2.6c2.9,0.9,5.2,3,6.5,5.7C23.2,8.5,24,7.1,24,5.5C24,3,22,1,19.5,1z"/>
		<path d="M9,3.4C8.2,2,6.7,1,5,1C2.5,1,0.5,3,0.5,5.5c0,1.4,0.7,2.7,1.7,3.5C3.6,6.3,6,4.3,9,3.4z"/>
		<path d="M12,4C6.5,4,2,8.5,2,14c0,5.5,4.5,10,10,10c5.5,0,10-4.5,10-10C22,8.5,17.5,4,12,4z M13,14.5c0,0.3-0.2,0.5-0.5,0.5h-4
			C8.2,15,8,14.8,8,14.5C8,14.2,8.2,14,8.5,14H12V8.5C12,8.2,12.2,8,12.5,8C12.8,8,13,8.2,13,8.5V14.5z"/>
	</g>
</g>
<g id="Outline_Icons">
	<g>
		<circle class="st2" cx="11.9" cy="14" r="9.5"/>
		<line class="st2" x1="6.6" y1="21.8" x2="4.9" y2="23.5"/>
		<line class="st2" x1="17.3" y1="21.8" x2="18.9" y2="23.5"/>
		<polyline class="st2" points="8.4,14.5 12.4,14.5 12.4,8.5 		"/>
		<path class="st2" d="M1.9,8.5C0.4,6.9,0.4,4.6,1.9,3c1.6-1.6,3.9-1.6,5.5,0"/>
		<path class="st2" d="M21.9,8.5c1.6-1.6,1.6-3.9,0-5.5c-1.6-1.6-3.9-1.6-5.5,0"/>
	</g>
</g>
</svg>
