<?xml version="1.0" encoding="utf-8"?>
<!-- Generator: Adobe Illustrator 19.2.0, SVG Export Plug-In . SVG Version: 6.00 Build 0)  -->
<svg version="1.1" id="Layer_1" xmlns="http://www.w3.org/2000/svg" xmlns:xlink="http://www.w3.org/1999/xlink" x="0px" y="0px"
	 viewBox="0 0 24 24" style="enable-background:new 0 0 24 24;" xml:space="preserve">
<style type="text/css">
	.st0{display:none;}
	.st1{display:inline;}
	.st2{fill:none;stroke:#000000;stroke-linecap:round;stroke-linejoin:round;stroke-miterlimit:10;}
</style>
<g id="Filled_Icons" class="st0">
	<g class="st1">
		<path d="M20.5,19c-0.8,0-1.5-0.7-1.5-1.5V14c0-2.7-1.6-5.2-4-6.3C14.8,6.2,13.5,5,12,5S9.2,6.2,9,7.7C6.6,8.8,5,11.3,5,14v3.5
			C5,18.3,4.3,19,3.5,19C3.2,19,3,19.2,3,19.5C3,19.8,3.2,20,3.5,20h17c0.3,0,0.5-0.2,0.5-0.5C21,19.2,20.8,19,20.5,19z"/>
		<path d="M14,21h-4c-0.3,0-0.5,0.2-0.5,0.5c0,1.4,1.1,2.5,2.5,2.5c1.4,0,2.5-1.1,2.5-2.5C14.5,21.2,14.3,21,14,21z"/>
		<path d="M9,3C5.7,3,3,5.7,3,9c0,0.3,0.2,0.5,0.5,0.5C3.8,9.5,4,9.3,4,9c0-2.8,2.2-5,5-5c0.3,0,0.5-0.2,0.5-0.5C9.5,3.2,9.3,3,9,3z
			"/>
		<path d="M9,1c0.3,0,0.5-0.2,0.5-0.5C9.5,0.2,9.3,0,9,0C4,0,0,4,0,9c0,0.3,0.2,0.5,0.5,0.5C0.8,9.5,1,9.3,1,9C1,4.6,4.6,1,9,1z"/>
		<path d="M15,3c-0.3,0-0.5,0.2-0.5,0.5C14.5,3.8,14.7,4,15,4c2.8,0,5,2.2,5,5c0,0.3,0.2,0.5,0.5,0.5C20.8,9.5,21,9.3,21,9
			C21,5.7,18.3,3,15,3z"/>
		<path d="M15,0c-0.3,0-0.5,0.2-0.5,0.5C14.5,0.8,14.7,1,15,1c4.4,0,8,3.6,8,8c0,0.3,0.2,0.5,0.5,0.5C23.8,9.5,24,9.3,24,9
			C24,4,20,0,15,0z"/>
	</g>
</g>
<g id="Outline_Icons">
	<g>
		<path class="st2" d="M18.5,19.5V15c0-2.7-1.7-5-4-6c0-1.4-1.1-2.5-2.5-2.5c-1.4,0-2.5,1.1-2.5,2.5c-2.4,1-4,3.3-4,6v4.5
			c0,1.1-0.9,2-2,2h17C19.4,21.5,18.5,20.6,18.5,19.5z"/>
		<path class="st2" d="M14,21.5c0,1.1-0.9,2-2,2c-1.1,0-2-0.9-2-2"/>
		<path class="st2" d="M3.5,9C3.5,6,6,3.5,9,3.5"/>
		<path class="st2" d="M0.5,9c0-4.7,3.8-8.5,8.5-8.5"/>
		<path class="st2" d="M20.5,9c0-3-2.5-5.5-5.5-5.5"/>
		<path class="st2" d="M23.5,9c0-4.7-3.8-8.5-8.5-8.5"/>
	</g>
</g>
</svg>
