<?xml version="1.0" encoding="utf-8"?>
<!-- Generator: Adobe Illustrator 19.2.0, SVG Export Plug-In . SVG Version: 6.00 Build 0)  -->
<svg version="1.1" id="Layer_1" xmlns="http://www.w3.org/2000/svg" xmlns:xlink="http://www.w3.org/1999/xlink" x="0px" y="0px"
	 viewBox="0 0 24 24" enable-background="new 0 0 24 24" xml:space="preserve">
<g id="Filled_Icons" display="none">
	<path display="inline" d="M12,0.006c-6.991,0-11,3.645-11,10c0,6.582,7.633,13.5,11,13.5c3.367,0,11-6.918,11-13.5
		C23,3.65,18.99,0.006,12,0.006z M10.416,14.436c-0.047,0.233-0.251,0.401-0.49,0.401c-2.167,0-3.833-0.626-4.949-1.86
		c-1.711-1.89-1.472-4.491-1.461-4.602c0.025-0.256,0.24-0.45,0.497-0.45c2.45,0,4.248,0.678,5.345,2.016
		C10.914,11.838,10.438,14.33,10.416,14.436z M14.072,14.837c-0.237,0-0.442-0.168-0.489-0.401c-0.021-0.104-0.497-2.598,1.06-4.495
		c1.096-1.338,2.894-2.016,5.344-2.016c0.257,0,0.473,0.194,0.498,0.45c0.011,0.11,0.248,2.712-1.461,4.602
		C17.906,14.211,16.24,14.837,14.072,14.837z"/>
</g>
<g id="Outline_Icons">
	<g>
		<g>
			<path fill="none" stroke="#000000" stroke-linejoin="round" stroke-miterlimit="10" d="M9.926,14.331
				c-6.503,0-5.912-5.912-5.912-5.912C11.108,8.419,9.926,14.331,9.926,14.331z"/>
		</g>
		<g>
			<path fill="none" stroke="#000000" stroke-linejoin="round" stroke-miterlimit="10" d="M14.074,14.331
				c6.503,0,5.912-5.912,5.912-5.912C12.893,8.419,14.074,14.331,14.074,14.331z"/>
		</g>
		<path fill="none" stroke="#000000" stroke-linejoin="round" stroke-miterlimit="10" d="M22.5,10c0,6.352-7.5,13-10.5,13
			S1.5,16.352,1.5,10c0-6.352,4.148-9.5,10.5-9.5C18.352,0.5,22.5,3.648,22.5,10z"/>
	</g>
</g>
</svg>
