<?xml version="1.0" encoding="utf-8"?>
<!-- Generator: Adobe Illustrator 19.2.0, SVG Export Plug-In . SVG Version: 6.00 Build 0)  -->
<svg version="1.1" id="Layer_1" xmlns="http://www.w3.org/2000/svg" xmlns:xlink="http://www.w3.org/1999/xlink" x="0px" y="0px"
	 viewBox="0 0 24 24" enable-background="new 0 0 24 24" xml:space="preserve">
<g id="Filled_Icons" display="none">
	<g display="inline">
		<path d="M16.342,5.149c0.77,0,1.457-0.429,1.797-1.118c0.234-0.479,0.271-1.02,0.098-1.527c-0.172-0.505-0.529-0.913-1.008-1.15
			C16.255,0.879,15.023,1.3,14.55,2.266c-0.426,0.865-0.166,1.894,0.569,2.463L14.426,6.71C13.687,6.335,12.868,6.098,12,6.031
			V3.935c0.859-0.224,1.5-1,1.5-1.929c0-1.103-0.897-2-2-2c-1.103,0-2,0.897-2,2c0,0.929,0.64,1.705,1.5,1.929v2.097
			C10.142,6.097,9.331,6.33,8.598,6.698L7.916,4.697C8.623,4.122,8.87,3.116,8.451,2.266C7.976,1.3,6.747,0.876,5.772,1.354
			C5.293,1.59,4.935,1.999,4.762,2.503C4.59,3.009,4.626,3.552,4.862,4.03c0.34,0.691,1.028,1.118,1.795,1.119
			c0.117,0,0.23-0.02,0.344-0.04l0.721,2.117C6.077,8.407,5,10.331,5,12.506V21.6c0,1.326,1.08,2.406,2.407,2.406
			c1.134,0,2.125-0.806,2.356-1.916l0.426-2.046c0.126-0.602,0.663-1.038,1.277-1.038c0.624,0,1.163,0.445,1.281,1.059l0.373,1.943
			c0.222,1.158,1.239,1.998,2.418,1.998c1.356,0,2.462-1.104,2.462-2.462v-9.038c0-2.165-1.068-4.081-2.7-5.263l0.743-2.128
			C16.143,5.13,16.24,5.149,16.342,5.149z M15.5,12.006c0,2.206-1.794,4-4,4c-2.206,0-4-1.794-4-4c0-2.206,1.794-4,4-4
			C13.706,8.006,15.5,9.8,15.5,12.006z"/>
		<circle cx="11.5" cy="12.006" r="1.5"/>
	</g>
</g>
<g id="Outline_Icons">
	<g>
		<path fill="none" stroke="#000000" stroke-linejoin="round" stroke-miterlimit="10" d="M17.5,12.5c0-3.313-2.688-6-6-6
			c-3.313,0-6,2.687-6,6v9.094c0,1.053,0.854,1.906,1.907,1.906c0.903,0,1.683-0.634,1.867-1.518L9.7,19.936
			C9.875,19.1,10.612,18.5,11.467,18.5c0.866,0,1.609,0.613,1.771,1.465l0.373,1.943c0.178,0.924,0.986,1.592,1.928,1.592
			c1.083,0,1.962-0.879,1.962-1.962L17.5,12.5L17.5,12.5z"/>
		<line fill="none" stroke="#000000" stroke-linejoin="round" stroke-miterlimit="10" x1="11.5" y1="6.5" x2="11.5" y2="3.5"/>
		<circle fill="none" stroke="#000000" stroke-linejoin="round" stroke-miterlimit="10" cx="11.5" cy="2" r="1.5"/>
		
			<line fill="none" stroke="#000000" stroke-linejoin="round" stroke-miterlimit="10" x1="14.704" y1="7.427" x2="15.719" y2="4.519"/>
		<circle fill="none" stroke="#000000" stroke-linejoin="round" stroke-miterlimit="10" cx="16.343" cy="3.143" r="1.5"/>
		
			<line fill="none" stroke="#000000" stroke-linejoin="round" stroke-miterlimit="10" x1="8.316" y1="7.414" x2="7.319" y2="4.488"/>
		<circle fill="none" stroke="#000000" stroke-linejoin="round" stroke-miterlimit="10" cx="6.657" cy="3.143" r="1.5"/>
		<circle fill="none" stroke="#000000" stroke-linejoin="round" stroke-miterlimit="10" cx="11.5" cy="12" r="3.5"/>
		<circle fill="none" stroke="#000000" stroke-linejoin="round" stroke-miterlimit="10" cx="11.5" cy="12" r="1"/>
	</g>
</g>
</svg>
