<?xml version="1.0" encoding="utf-8"?>
<!-- Generator: Adobe Illustrator 19.2.0, SVG Export Plug-In . SVG Version: 6.00 Build 0)  -->
<svg version="1.1" id="Layer_1" xmlns="http://www.w3.org/2000/svg" xmlns:xlink="http://www.w3.org/1999/xlink" x="0px" y="0px"
	 viewBox="0 0 24 24" style="enable-background:new 0 0 24 24;" xml:space="preserve">
<style type="text/css">
	.st0{display:none;}
	.st1{display:inline;}
	.st2{fill:none;stroke:#000000;stroke-linecap:round;stroke-linejoin:round;stroke-miterlimit:10;}
</style>
<g id="Filled_Icon" class="st0">
	<g class="st1">
		<path d="M23.5,2h-12C11.2,2,11,2.2,11,2.5v19c0,0.3,0.2,0.5,0.5,0.5h12c0.3,0,0.5-0.2,0.5-0.5v-19C24,2.2,23.8,2,23.5,2z M21,16.5
			C21,16.5,21,16.5,21,16.5h-7c-0.3,0-0.5-0.2-0.5-0.5c0-1.6,1-3,2.3-3.6c-0.5-0.5-0.8-1.1-0.8-1.9C15,9.1,16.1,8,17.5,8
			c1.4,0,2.5,1.1,2.5,2.5c0,0.7-0.3,1.4-0.8,1.9c1.4,0.6,2.3,2,2.3,3.5c0,0,0,0.1,0,0.1C21.5,16.3,21.3,16.5,21,16.5z"/>
		<path d="M5.7,0.3c0,0-0.1-0.1-0.2-0.1c0,0,0,0-0.1,0c0,0-0.1,0-0.1-0.1c0,0-0.1,0-0.1,0c0,0-0.1,0-0.1,0C5.1,0,4.9,0,4.8,0
			c0,0-0.1,0-0.1,0c0,0-0.1,0-0.1,0c0,0-0.1,0-0.1,0.1c0,0-0.1,0-0.1,0c-0.1,0-0.1,0.1-0.2,0.1L0.8,3.8c-0.4,0.4-0.4,1,0,1.4
			c0.4,0.4,1,0.4,1.4,0L4,3.4V23c0,0.6,0.4,1,1,1c0.6,0,1-0.4,1-1V3.4l1.8,1.8C8,5.4,8.3,5.5,8.5,5.5c0.3,0,0.5-0.1,0.7-0.3
			c0.4-0.4,0.4-1,0-1.4L5.7,0.3z"/>
	</g>
</g>
<g id="Outline_Icons">
	<g>
		<rect x="11.5" y="2.5" class="st2" width="12" height="19"/>
		<line class="st2" x1="4.5" y1="23.5" x2="4.5" y2="0.5"/>
		<polyline class="st2" points="1,4 4.5,0.5 8,4 		"/>
		<circle class="st2" cx="17.5" cy="10.5" r="2"/>
		<path class="st2" d="M21,16.5h-7c0-2.4,1.6-4,3.5-4C19.4,12.5,21,14.1,21,16.5z"/>
	</g>
</g>
</svg>
