<?xml version="1.0" encoding="utf-8"?>
<!-- Generator: Adobe Illustrator 19.2.0, SVG Export Plug-In . SVG Version: 6.00 Build 0)  -->
<svg version="1.1" id="Layer_1" xmlns="http://www.w3.org/2000/svg" xmlns:xlink="http://www.w3.org/1999/xlink" x="0px" y="0px"
	 viewBox="0 0 24 24" style="enable-background:new 0 0 24 24;" xml:space="preserve">
<style type="text/css">
	.st0{display:none;}
	.st1{display:inline;}
	.st2{fill:none;stroke:#000000;stroke-linecap:round;stroke-linejoin:round;stroke-miterlimit:10;}
</style>
<g id="Filled_Icon" class="st0">
	<g class="st1">
		<path d="M2.5,13h19c0.3,0,0.5-0.2,0.5-0.5v-12C22,0.2,21.8,0,21.5,0h-19C2.2,0,2,0.2,2,0.5v12C2,12.8,2.2,13,2.5,13z M10.6,6.9
			C10.1,6.4,9.8,5.7,9.8,5c0-1.4,1.1-2.5,2.5-2.5c1.4,0,2.5,1.1,2.5,2.5c0,0.7-0.3,1.4-0.8,1.9c1.4,0.6,2.3,2,2.3,3.5
			c0,0,0,0.1,0,0.1c0,0.3-0.2,0.5-0.5,0.5c0,0,0,0,0,0h-7c-0.3,0-0.5-0.2-0.5-0.5C8.2,8.9,9.2,7.5,10.6,6.9z"/>
		<path d="M23,18H3.4l1.8-1.8c0.4-0.4,0.4-1,0-1.4c-0.4-0.4-1-0.4-1.4,0l-3.5,3.5c0,0-0.1,0.1-0.1,0.2c0,0,0,0,0,0.1
			c0,0,0,0.1-0.1,0.1c0,0,0,0.1,0,0.1c0,0,0,0.1,0,0.1c0,0.1,0,0.3,0,0.4c0,0,0,0.1,0,0.1c0,0,0,0.1,0,0.1c0,0,0,0.1,0.1,0.1
			c0,0,0,0.1,0,0.1c0,0.1,0.1,0.1,0.1,0.2l3.5,3.5c0.2,0.2,0.5,0.3,0.7,0.3c0.3,0,0.5-0.1,0.7-0.3c0.4-0.4,0.4-1,0-1.4L3.4,20H23
			c0.6,0,1-0.4,1-1C24,18.4,23.6,18,23,18z"/>
	</g>
</g>
<g id="Outline_Icons">
	<g>
		<rect x="2.5" y="0.5" class="st2" width="19" height="12"/>
		<line class="st2" x1="23.5" y1="19.5" x2="0.5" y2="19.5"/>
		<polyline class="st2" points="4,23 0.5,19.5 4,16 		"/>
		<circle class="st2" cx="12.2" cy="5" r="2"/>
		<path class="st2" d="M15.8,10.5h-7c0-1.9,1.6-3.5,3.5-3.5C14.2,7,15.8,8.6,15.8,10.5z"/>
	</g>
</g>
</svg>
