<?xml version="1.0" encoding="utf-8"?>
<!-- Generator: Adobe Illustrator 19.2.0, SVG Export Plug-In . SVG Version: 6.00 Build 0)  -->
<svg version="1.1" id="Layer_1" xmlns="http://www.w3.org/2000/svg" xmlns:xlink="http://www.w3.org/1999/xlink" x="0px" y="0px"
	 viewBox="0 0 24 24" style="enable-background:new 0 0 24 24;" xml:space="preserve">
<style type="text/css">
	.st0{display:none;}
	.st1{display:inline;}
	.st2{fill:none;stroke:#000000;stroke-linecap:round;stroke-linejoin:round;stroke-miterlimit:10;}
</style>
<g id="Filled_Icon" class="st0">
	<g class="st1">
		<path d="M23,22H1c-0.6,0-1,0.4-1,1c0,0.6,0.4,1,1,1h22c0.6,0,1-0.4,1-1C24,22.4,23.6,22,23,22z"/>
		<path d="M3,3h18c0.6,0,1-0.4,1-1c0-0.6-0.4-1-1-1H3C2.4,1,2,1.4,2,2C2,2.6,2.4,3,3,3z"/>
		<path d="M17.5,6c0.6,0,1-0.4,1-1c0-0.6-0.4-1-1-1h-11c-0.6,0-1,0.4-1,1c0,0.6,0.4,1,1,1H17.5z"/>
		<path d="M3,8c0,0.6,0.4,1,1,1h16c0.6,0,1-0.4,1-1c0-0.6-0.4-1-1-1H4C3.4,7,3,7.4,3,8z"/>
		<path d="M1,12h22c0.6,0,1-0.4,1-1c0-0.6-0.4-1-1-1H1c-0.6,0-1,0.4-1,1C0,11.6,0.4,12,1,12z"/>
		<path d="M19,13H5c-0.6,0-1,0.4-1,1c0,0.6,0.4,1,1,1h14c0.6,0,1-0.4,1-1C20,13.4,19.6,13,19,13z"/>
		<path d="M16.5,18c0.6,0,1-0.4,1-1c0-0.6-0.4-1-1-1h-9c-0.6,0-1,0.4-1,1c0,0.6,0.4,1,1,1H16.5z"/>
		<path d="M4,20c0,0.6,0.4,1,1,1h14c0.6,0,1-0.4,1-1c0-0.6-0.4-1-1-1H5C4.4,19,4,19.4,4,20z"/>
	</g>
</g>
<g id="Outline_Icons">
	<g>
		<line class="st2" x1="0.5" y1="23.5" x2="23.5" y2="23.5"/>
		<line class="st2" x1="2.5" y1="2.5" x2="21.5" y2="2.5"/>
		<line class="st2" x1="6" y1="5.5" x2="18" y2="5.5"/>
		<line class="st2" x1="3.5" y1="8.5" x2="20.5" y2="8.5"/>
		<line class="st2" x1="0.5" y1="11.5" x2="23.5" y2="11.5"/>
		<line class="st2" x1="4.5" y1="14.5" x2="19.5" y2="14.5"/>
		<line class="st2" x1="7" y1="17.5" x2="17" y2="17.5"/>
		<line class="st2" x1="4.5" y1="20.5" x2="19.5" y2="20.5"/>
	</g>
</g>
</svg>
