<?xml version="1.0" encoding="utf-8"?>
<!-- Generator: Adobe Illustrator 19.2.0, SVG Export Plug-In . SVG Version: 6.00 Build 0)  -->
<svg version="1.1" id="Layer_1" xmlns="http://www.w3.org/2000/svg" xmlns:xlink="http://www.w3.org/1999/xlink" x="0px" y="0px"
	 viewBox="0 0 24 24" style="enable-background:new 0 0 24 24;" xml:space="preserve">
<style type="text/css">
	.st0{display:none;}
	.st1{display:inline;}
	.st2{fill:none;stroke:#000000;stroke-linecap:round;stroke-linejoin:round;stroke-miterlimit:10;}
</style>
<g id="Filled_Icon" class="st0">
	<g class="st1">
		<path d="M23,22H1c-0.6,0-1,0.4-1,1c0,0.6,0.4,1,1,1h22c0.6,0,1-0.4,1-1C24,22.4,23.6,22,23,22z"/>
		<path d="M5,3h18c0.6,0,1-0.4,1-1c0-0.6-0.4-1-1-1H5C4.4,1,4,1.4,4,2C4,2.6,4.4,3,5,3z"/>
		<path d="M23,4H8C7.4,4,7,4.4,7,5c0,0.6,0.4,1,1,1h15c0.6,0,1-0.4,1-1C24,4.4,23.6,4,23,4z"/>
		<path d="M23,7H5C4.4,7,4,7.4,4,8c0,0.6,0.4,1,1,1h18c0.6,0,1-0.4,1-1C24,7.4,23.6,7,23,7z"/>
		<path d="M23,10H1c-0.6,0-1,0.4-1,1c0,0.6,0.4,1,1,1h22c0.6,0,1-0.4,1-1C24,10.4,23.6,10,23,10z"/>
		<path d="M23,13H5c-0.6,0-1,0.4-1,1c0,0.6,0.4,1,1,1h18c0.6,0,1-0.4,1-1C24,13.4,23.6,13,23,13z"/>
		<path d="M23,16H8c-0.6,0-1,0.4-1,1c0,0.6,0.4,1,1,1h15c0.6,0,1-0.4,1-1C24,16.4,23.6,16,23,16z"/>
		<path d="M23,19H5c-0.6,0-1,0.4-1,1c0,0.6,0.4,1,1,1h18c0.6,0,1-0.4,1-1C24,19.4,23.6,19,23,19z"/>
	</g>
</g>
<g id="Outline_Icons">
	<g>
		<line class="st2" x1="0.5" y1="23.5" x2="23.5" y2="23.5"/>
		<line class="st2" x1="4.5" y1="2.5" x2="23.5" y2="2.5"/>
		<line class="st2" x1="7.5" y1="5.5" x2="23.5" y2="5.5"/>
		<line class="st2" x1="4.5" y1="8.5" x2="23.5" y2="8.5"/>
		<line class="st2" x1="0.5" y1="11.5" x2="23.5" y2="11.5"/>
		<line class="st2" x1="4.5" y1="14.5" x2="23.5" y2="14.5"/>
		<line class="st2" x1="7.5" y1="17.5" x2="23.5" y2="17.5"/>
		<line class="st2" x1="4.5" y1="20.5" x2="23.5" y2="20.5"/>
	</g>
</g>
</svg>
