<?xml version="1.0" encoding="utf-8"?>
<!-- Generator: Adobe Illustrator 19.2.0, SVG Export Plug-In . SVG Version: 6.00 Build 0)  -->
<svg version="1.1" id="Layer_1" xmlns="http://www.w3.org/2000/svg" xmlns:xlink="http://www.w3.org/1999/xlink" x="0px" y="0px"
	 viewBox="0 0 24 24" style="enable-background:new 0 0 24 24;" xml:space="preserve">
<style type="text/css">
	.st0{display:none;}
	.st1{display:inline;}
	.st2{fill:none;stroke:#000000;stroke-linecap:round;stroke-linejoin:round;stroke-miterlimit:10;}
</style>
<g id="Filled_Icon" class="st0">
	<g class="st1">
		<path d="M10,4H1C0.4,4,0,4.4,0,5v2c0,0.6,0.4,1,1,1c0.6,0,1-0.4,1-1V6h2.5v11.5H4c-0.6,0-1,0.4-1,1c0,0.6,0.4,1,1,1h3
			c0.6,0,1-0.4,1-1c0-0.6-0.4-1-1-1H6.5V6H9v1c0,0.6,0.4,1,1,1c0.6,0,1-0.4,1-1V5C11,4.4,10.6,4,10,4z"/>
		<path d="M23,4h-9c-0.6,0-1,0.4-1,1v2c0,0.6,0.4,1,1,1c0.6,0,1-0.4,1-1V6h2.5v11.5H17c-0.6,0-1,0.4-1,1c0,0.6,0.4,1,1,1h3
			c0.6,0,1-0.4,1-1c0-0.6-0.4-1-1-1h-0.5V6H22v1c0,0.6,0.4,1,1,1c0.6,0,1-0.4,1-1V5C24,4.4,23.6,4,23,4z"/>
	</g>
</g>
<g id="Outline_Icons">
	<g>
		<polyline class="st2" points="0.5,6.5 0.5,4.5 10.5,4.5 10.5,6.5 		"/>
		<line class="st2" x1="5.5" y1="4.5" x2="5.5" y2="18.5"/>
		<line class="st2" x1="4" y1="18.5" x2="7" y2="18.5"/>
		<polyline class="st2" points="13.5,6.5 13.5,4.5 23.5,4.5 23.5,6.5 		"/>
		<line class="st2" x1="18.5" y1="4.5" x2="18.5" y2="18.5"/>
		<line class="st2" x1="17" y1="18.5" x2="20" y2="18.5"/>
	</g>
</g>
</svg>
