<?xml version="1.0" encoding="utf-8"?>
<!-- Generator: Adobe Illustrator 19.2.0, SVG Export Plug-In . SVG Version: 6.00 Build 0)  -->
<svg version="1.1" id="Layer_1" xmlns="http://www.w3.org/2000/svg" xmlns:xlink="http://www.w3.org/1999/xlink" x="0px" y="0px"
	 viewBox="0 0 24 24" enable-background="new 0 0 24 24" xml:space="preserve">
<g id="Filled_Icons" display="none">
	<g display="inline">
		<path d="M23.5,7.006h-9v-0.5c0-1.379-1.122-2.5-2.5-2.5c-1.379,0-2.5,1.121-2.5,2.5v12.5H9v-9.5c0-0.276-0.224-0.5-0.5-0.5H5
			c-0.182,0-0.35,0.099-0.438,0.257l-2.466,4.439l-1.95,1.95C0.053,15.747,0,15.873,0,16.006v5.5c0,0.275,0.224,0.5,0.5,0.5h1.039
			c-0.023-0.164-0.039-0.33-0.039-0.5c0-1.93,1.57-3.5,3.5-3.5c1.93,0,3.5,1.57,3.5,3.5c0,0.17-0.017,0.336-0.04,0.5h7.079
			c-0.023-0.164-0.039-0.33-0.039-0.5c0-1.93,1.57-3.5,3.5-3.5c1.93,0,3.5,1.57,3.5,3.5c0,0.17-0.018,0.336-0.04,0.5h1.04
			c0.275,0,0.5-0.225,0.5-0.5v-14C24,7.229,23.775,7.006,23.5,7.006z M7.5,12.006H6.309l-1.361,2.725
			C4.86,14.904,4.683,15.006,4.5,15.006c-0.075,0-0.151-0.018-0.223-0.052c-0.247-0.125-0.348-0.425-0.224-0.673l1.5-2.999
			c0.085-0.17,0.258-0.276,0.447-0.276h1.5c0.276,0,0.5,0.224,0.5,0.5C8,11.782,7.776,12.006,7.5,12.006z M10.5,6.506
			c0-0.828,0.673-1.5,1.5-1.5c0.827,0,1.5,0.672,1.5,1.5v0.5h-3V6.506z M20,14.506c0,0.275-0.225,0.5-0.5,0.5H18v1.5
			c0,0.275-0.225,0.5-0.5,0.5h-2c-0.275,0-0.5-0.225-0.5-0.5v-1.5h-1.5c-0.275,0-0.5-0.225-0.5-0.5v-2c0-0.276,0.225-0.5,0.5-0.5H15
			v-1.5c0-0.276,0.225-0.5,0.5-0.5h2c0.275,0,0.5,0.224,0.5,0.5v1.5h1.5c0.275,0,0.5,0.224,0.5,0.5V14.506z"/>
		<path d="M5,19.006c-1.379,0-2.5,1.121-2.5,2.5c0,1.378,1.121,2.5,2.5,2.5c1.378,0,2.5-1.122,2.5-2.5
			C7.5,20.127,6.378,19.006,5,19.006z"/>
		<path d="M19,19.006c-1.379,0-2.5,1.121-2.5,2.5c0,1.378,1.121,2.5,2.5,2.5c1.378,0,2.5-1.122,2.5-2.5
			C21.5,20.127,20.378,19.006,19,19.006z"/>
	</g>
</g>
<g id="Outline_Icons">
	<g>
		
			<circle fill="none" stroke="#000000" stroke-linecap="round" stroke-linejoin="round" stroke-miterlimit="10" cx="5" cy="21.5" r="2"/>
		
			<circle fill="none" stroke="#000000" stroke-linecap="round" stroke-linejoin="round" stroke-miterlimit="10" cx="18.999" cy="21.5" r="2"/>
		<polyline fill="none" stroke="#000000" stroke-linecap="round" stroke-linejoin="round" stroke-miterlimit="10" points="3,21.5 
			0.5,21.5 0.5,16 2.5,14 5,9.5 9.499,9.5 9.499,7.5 23.499,7.5 23.499,21.5 20.999,21.5 		"/>
		
			<line fill="none" stroke="#000000" stroke-linecap="round" stroke-linejoin="round" stroke-miterlimit="10" x1="7" y1="21.5" x2="16.999" y2="21.5"/>
		<polyline fill="none" stroke="#000000" stroke-linecap="round" stroke-linejoin="round" stroke-miterlimit="10" points="7.5,11.5 
			6,11.5 4.5,14.5 		"/>
		
			<line fill="none" stroke="#000000" stroke-linecap="round" stroke-linejoin="round" stroke-miterlimit="10" x1="9.499" y1="9.5" x2="9.499" y2="19.5"/>
		
			<line fill="none" stroke="#000000" stroke-linecap="round" stroke-linejoin="round" stroke-miterlimit="10" x1="0.5" y1="19.5" x2="23.499" y2="19.5"/>
		<path fill="none" stroke="#000000" stroke-linecap="round" stroke-linejoin="round" stroke-miterlimit="10" d="M13.499,6.5
			c0-1.104-0.896-2-2-2c-1.103,0-2,0.896-2,2v1h4V6.5z"/>
		<polygon fill="none" stroke="#000000" stroke-linecap="round" stroke-linejoin="round" stroke-miterlimit="10" points="
			19.499,12.5 17.499,12.5 17.499,10.5 15.499,10.5 15.499,12.5 13.499,12.5 13.499,14.5 15.499,14.5 15.499,16.5 17.499,16.5 
			17.499,14.5 19.499,14.5 		"/>
	</g>
</g>
</svg>
