<?xml version="1.0" encoding="utf-8"?>
<!-- Generator: Adobe Illustrator 19.2.0, SVG Export Plug-In . SVG Version: 6.00 Build 0)  -->
<svg version="1.1" id="Layer_1" xmlns="http://www.w3.org/2000/svg" xmlns:xlink="http://www.w3.org/1999/xlink" x="0px" y="0px"
	 viewBox="0 0 24 24" style="enable-background:new 0 0 24 24;" xml:space="preserve">
<style type="text/css">
	.st0{display:none;}
	.st1{display:inline;}
	.st2{fill:none;stroke:#000000;stroke-linecap:round;stroke-linejoin:round;stroke-miterlimit:10;}
</style>
<g id="Filled_Icons" class="st0">
	<path class="st1" d="M20.4,13.6c-0.4-0.2-0.8-0.1-1.1,0.2l-2,2c-0.4,0.4-0.4,1,0,1.4c0.3,0.3,0.8,0.4,1.1,0.2
		c-1,2.4-3.2,4.2-5.9,4.5V10H16c0.6,0,1-0.4,1-1c0-0.6-0.4-1-1-1h-3.5V4.8C13.4,4.4,14,3.5,14,2.5C14,1.1,12.9,0,11.5,0
		C10.1,0,9,1.1,9,2.5c0,1,0.6,1.9,1.5,2.3V8H7C6.4,8,6,8.5,6,9c0,0.6,0.4,1,1,1h3.5v11.9c-2.7-0.4-4.9-2.1-5.9-4.5
		c0.4,0.2,0.8,0.1,1.1-0.2c0.4-0.4,0.4-1,0-1.4l-2-2c-0.3-0.3-0.7-0.4-1.1-0.2C2.2,13.7,2,14.1,2,14.5c0,5.2,4.3,9.5,9.5,9.5
		c5.2,0,9.5-4.3,9.5-9.5C21,14.1,20.8,13.7,20.4,13.6z"/>
</g>
<g id="Outline_Icons">
	<g>
		<circle class="st2" cx="11.5" cy="2.5" r="2"/>
		<path class="st2" d="M18,17l2-2c0,4.7-3.8,8.5-8.5,8.5C6.8,23.5,3,19.7,3,15l2,2"/>
		<line class="st2" x1="11.5" y1="4.5" x2="11.5" y2="23.5"/>
		<line class="st2" x1="7" y1="9.5" x2="16" y2="9.5"/>
	</g>
</g>
</svg>
