<?xml version="1.0" encoding="utf-8"?>
<!-- Generator: Adobe Illustrator 19.2.0, SVG Export Plug-In . SVG Version: 6.00 Build 0)  -->
<svg version="1.1" id="Outline_Icons" xmlns="http://www.w3.org/2000/svg" xmlns:xlink="http://www.w3.org/1999/xlink" x="0px"
	 y="0px" viewBox="0 0 24 24" style="enable-background:new 0 0 24 24;" xml:space="preserve">
<style type="text/css">
	.st0{fill:none;stroke:#000000;stroke-linejoin:round;stroke-miterlimit:10;}
	.st1{fill:none;stroke:#000000;stroke-linecap:round;stroke-linejoin:round;stroke-miterlimit:10;}
</style>
<g>
	<g>
		<g>
			<path class="st0" d="M10.9,15.9c-0.4,0.1-0.7,0.3-1,0.6l-0.8-0.5L8,17.9l0.8,0.5c0,0.2-0.1,0.4-0.1,0.6c0,0.2,0,0.4,0.1,0.6L8,20
				l1.1,1.9l0.8-0.5c0.3,0.3,0.7,0.5,1,0.6V23h2.2v-0.9c0.4-0.1,0.7-0.3,1-0.6l0.8,0.5L16,20l-0.8-0.5c0-0.2,0.1-0.4,0.1-0.6
				c0-0.2,0-0.4-0.1-0.6l0.8-0.5l-1.1-1.9l-0.8,0.5c-0.3-0.3-0.7-0.5-1-0.6V15h-2.2L10.9,15.9z"/>
		</g>
		<circle class="st0" cx="12" cy="19" r="1.5"/>
	</g>
	<line class="st1" x1="10.9" y1="2.5" x2="9" y2="0.5"/>
	<line class="st1" x1="13.1" y1="2.5" x2="15" y2="0.5"/>
	<path class="st0" d="M18.5,7.5c-0.7-3-3.4-5-6.5-5c-3.2,0-5.8,2-6.5,5H18.5z"/>
	<g>
		<line class="st0" x1="10.5" y1="5" x2="10.5" y2="6"/>
		<line class="st0" x1="13.5" y1="5" x2="13.5" y2="6"/>
	</g>
	<path class="st1" d="M2.5,19.5c0,0,0-7,0-8s0.5-2,1.5-2s1.5,0,1.5,0"/>
	<path class="st1" d="M21.5,19.5c0,0,0-7,0-8s-0.5-2-1.5-2s-1.5,0-1.5,0"/>
	<polyline class="st0" points="17,19.5 18.5,19.5 18.5,9.5 5.5,9.5 5.5,19.5 7,19.5 	"/>
</g>
</svg>
