<?xml version="1.0" encoding="utf-8"?>
<!-- Generator: Adobe Illustrator 19.2.0, SVG Export Plug-In . SVG Version: 6.00 Build 0)  -->
<svg version="1.1" id="Outline_Icons" xmlns="http://www.w3.org/2000/svg" xmlns:xlink="http://www.w3.org/1999/xlink" x="0px"
	 y="0px" viewBox="0 0 24 24" style="enable-background:new 0 0 24 24;" xml:space="preserve">
<style type="text/css">
	.st0{fill:none;stroke:#000000;stroke-linecap:round;stroke-linejoin:round;stroke-miterlimit:10;}
	.st1{fill:none;stroke:#000000;stroke-linejoin:round;stroke-miterlimit:10;}
</style>
<g>
	<path class="st0" d="M2.5,19.5c0,0,0-7,0-8s0.5-2,1.5-2s1.5,0,1.5,0"/>
	<path class="st0" d="M21.5,19.5c0,0,0-7,0-8s-0.5-2-1.5-2s-1.5,0-1.5,0"/>
	<g>
		<polyline class="st0" points="11.5,23 11.5,14 9,16.5 		"/>
		<line class="st0" x1="11.5" y1="14" x2="14" y2="16.5"/>
	</g>
	<line class="st0" x1="10.9" y1="2.5" x2="9" y2="0.5"/>
	<line class="st0" x1="13.1" y1="2.5" x2="15" y2="0.5"/>
	<path class="st1" d="M18.5,7.5c-0.7-3-3.4-5-6.5-5c-3.2,0-5.8,2-6.5,5H18.5z"/>
	<g>
		<line class="st1" x1="10.5" y1="5" x2="10.5" y2="6"/>
		<line class="st1" x1="13.5" y1="5" x2="13.5" y2="6"/>
	</g>
	<polyline class="st1" points="14.5,19.5 18.5,19.5 18.5,9.5 5.5,9.5 5.5,19.5 9.5,19.5 	"/>
</g>
</svg>
