<?xml version="1.0" encoding="utf-8"?>
<!-- Generator: Adobe Illustrator 19.2.0, SVG Export Plug-In . SVG Version: 6.00 Build 0)  -->
<svg version="1.1" id="Outline_Icons" xmlns="http://www.w3.org/2000/svg" xmlns:xlink="http://www.w3.org/1999/xlink" x="0px"
	 y="0px" viewBox="0 0 24 24" style="enable-background:new 0 0 24 24;" xml:space="preserve">
<style type="text/css">
	.st0{fill:none;stroke:#000000;stroke-linejoin:round;stroke-miterlimit:10;}
	.st1{fill:none;stroke:#000000;stroke-linecap:round;stroke-linejoin:round;stroke-miterlimit:10;}
</style>
<g>
	<rect x="5.5" y="10.5" class="st0" width="13" height="11"/>
	<path class="st1" d="M2.5,20c0,0,0-6.5,0-7.5s0.5-2,1.5-2s1.5,0,1.5,0"/>
	<path class="st1" d="M21.5,20c0,0,0-6.5,0-7.5s-0.5-2-1.5-2s-1.5,0-1.5,0"/>
	<line class="st1" x1="10.9" y1="3.5" x2="9" y2="1.5"/>
	<line class="st1" x1="13.1" y1="3.5" x2="15" y2="1.5"/>
	<path class="st0" d="M18.5,8.5c-0.7-3-3.4-5-6.5-5c-3.2,0-5.8,2-6.5,5H18.5z"/>
	<g>
		<line class="st0" x1="10.5" y1="6" x2="10.5" y2="7"/>
		<line class="st0" x1="13.5" y1="6" x2="13.5" y2="7"/>
	</g>
</g>
</svg>
