<?xml version="1.0" encoding="utf-8"?>
<!-- Generator: Adobe Illustrator 19.2.0, SVG Export Plug-In . SVG Version: 6.00 Build 0)  -->
<svg version="1.1" id="Layer_1" xmlns="http://www.w3.org/2000/svg" xmlns:xlink="http://www.w3.org/1999/xlink" x="0px" y="0px"
	 viewBox="0 0 24 24" enable-background="new 0 0 24 24" xml:space="preserve">
<g id="Filled_Icons" display="none">
	<g display="inline">
		<path d="M6.532,16.46l1.74-4.167c-0.467-0.531-0.809-1.165-1.021-1.855C4.684,9.014,1.587,7.235,0.876,6.594
			C0.731,6.464,0.528,6.429,0.35,6.503C0.172,6.576,0.052,6.745,0.041,6.938c-0.229,4.269,0.601,7.156,2.467,8.578
			c0.965,0.735,2.084,0.994,3.183,0.994C5.974,16.51,6.255,16.49,6.532,16.46z"/>
		<path d="M23.958,6.938c-0.011-0.192-0.131-0.361-0.31-0.435c-0.178-0.073-0.381-0.038-0.524,0.091
			c-0.713,0.643-3.814,2.423-6.377,3.845c-0.209,0.68-0.544,1.305-1,1.831l1.735,4.193c0.272,0.029,0.549,0.047,0.828,0.047
			c1.098,0,2.217-0.259,3.183-0.994C23.357,14.094,24.187,11.206,23.958,6.938z"/>
		<g>
			<path d="M12,4.006c-2.408,0-5-0.626-5-2c0-1.374,2.592-2,5-2c2.408,0,5,0.626,5,2C17,3.38,14.408,4.006,12,4.006z M12,1.006
				c-2.625,0-4,0.743-4,1c0,0.257,1.375,1,4,1c2.624,0,4-0.743,4-1C16,1.749,14.624,1.006,12,1.006z"/>
		</g>
		<circle cx="11.991" cy="9.027" r="3.971"/>
		<path d="M18.165,20.727l-3.203-7.738c-0.831,0.625-1.852,1.011-2.971,1.011c-1.103,0-2.111-0.372-2.937-0.981l-3.235,7.754
			c-0.233,0.756-0.092,1.586,0.378,2.222c0.469,0.636,1.221,1.015,2.011,1.015h7.584c0.79,0,1.542-0.379,2.011-1.015
			C18.271,22.354,18.414,21.523,18.165,20.727z"/>
	</g>
</g>
<g id="Outline_Icons">
	<g>
		<circle fill="none" stroke="#000000" stroke-linejoin="round" stroke-miterlimit="10" cx="12" cy="9.021" r="3.479"/>
		<path fill="none" stroke="#000000" stroke-linejoin="round" stroke-miterlimit="10" d="M13.969,11.89l3.734,9.022
			c0.188,0.605,0.074,1.266-0.303,1.775c-0.377,0.51-0.973,0.812-1.608,0.812H8.208c-0.635,0-1.231-0.301-1.608-0.812
			c-0.378-0.51-0.49-1.17-0.303-1.775l3.76-9.005"/>
		<ellipse fill="none" stroke="#000000" stroke-linejoin="round" stroke-miterlimit="10" cx="12" cy="2" rx="4.5" ry="1.5"/>
		<path fill="none" stroke="#000000" stroke-linejoin="round" stroke-miterlimit="10" d="M9.844,12.416c0,0-8.011-4.291-9.303-5.457
			C0,17.001,5.5,16.5,8.5,15.5"/>
		<path fill="none" stroke="#000000" stroke-linejoin="round" stroke-miterlimit="10" d="M14.182,12.403
			c0,0,7.985-4.278,9.277-5.444C24,17.001,18.5,16.5,15.5,15.5"/>
	</g>
</g>
</svg>
