<?xml version="1.0" encoding="utf-8"?>
<!-- Generator: Adobe Illustrator 19.2.0, SVG Export Plug-In . SVG Version: 6.00 Build 0)  -->
<svg version="1.1" id="Layer_1" xmlns="http://www.w3.org/2000/svg" xmlns:xlink="http://www.w3.org/1999/xlink" x="0px" y="0px"
	 viewBox="0 0 24 24" style="enable-background:new 0 0 24 24;" xml:space="preserve">
<style type="text/css">
	.st0{display:none;}
	.st1{display:inline;}
	.st2{fill:none;stroke:#000000;stroke-linecap:round;stroke-linejoin:round;stroke-miterlimit:10;}
</style>
<g id="Filled_Icon" class="st0">
	<g class="st1">
		<path d="M23,22H13c-0.2-2.6-1.2-4.9-2.8-6.7l1.5-1.5c0.4-0.4,0.4-1,0-1.4c-0.4-0.4-1-0.4-1.4,0l-1.5,1.5C6.9,12.3,4.6,11.3,2,11
			L2,1c0-0.6-0.4-1-1-1l0,0C0.4,0,0,0.4,0,1l0,22c0,0.3,0.1,0.6,0.3,0.8C0.5,23.9,0.7,24,1,24c0,0,0,0,0.1,0H23c0.6,0,1-0.4,1-1
			C24,22.4,23.6,22,23,22z M11,22H3.4l0.3-0.3c0.4-0.4,0.4-1,0-1.4c-0.4-0.4-1-0.4-1.4,0L2,20.6L2,13C6.7,13.5,10.5,17.3,11,22z"/>
		<path d="M5,20c0.3,0,0.5-0.1,0.7-0.3l2-2c0.4-0.4,0.4-1,0-1.4c-0.4-0.4-1-0.4-1.4,0l-2,2c-0.4,0.4-0.4,1,0,1.4
			C4.5,19.9,4.7,20,5,20z"/>
		<path d="M13,12c0.3,0,0.5-0.1,0.7-0.3l2-2c0.4-0.4,0.4-1,0-1.4c-0.4-0.4-1-0.4-1.4,0l-2,2c-0.4,0.4-0.4,1,0,1.4
			C12.5,11.9,12.7,12,13,12z"/>
		<path d="M17,8c0.3,0,0.5-0.1,0.7-0.3l2-2c0.4-0.4,0.4-1,0-1.4c-0.4-0.4-1-0.4-1.4,0l-2,2c-0.4,0.4-0.4,1,0,1.4
			C16.5,7.9,16.7,8,17,8z"/>
		<path d="M21,4c0.3,0,0.5-0.1,0.7-0.3l2-2c0.4-0.4,0.4-1,0-1.4c-0.4-0.4-1-0.4-1.4,0l-2,2c-0.4,0.4-0.4,1,0,1.4
			C20.5,3.9,20.7,4,21,4z"/>
	</g>
</g>
<g id="Outline_Icons">
	<g>
		<polyline class="st2" points="0.5,0.5 0.5,23.5 23.5,23.5 		"/>
		<path class="st2" d="M0.5,12.5c6.1,0,11,4.9,11,11"/>
		<line class="st2" x1="0.5" y1="23.5" x2="2.5" y2="21.5"/>
		<line class="st2" x1="4.5" y1="19.5" x2="6.5" y2="17.5"/>
		<line class="st2" x1="8.5" y1="15.5" x2="10.5" y2="13.5"/>
		<line class="st2" x1="12.5" y1="11.5" x2="14.5" y2="9.5"/>
		<line class="st2" x1="16.5" y1="7.5" x2="18.5" y2="5.5"/>
		<line class="st2" x1="20.5" y1="3.5" x2="22.5" y2="1.5"/>
	</g>
</g>
</svg>
