<?xml version="1.0" encoding="utf-8"?>
<!-- Generator: Adobe Illustrator 19.2.0, SVG Export Plug-In . SVG Version: 6.00 Build 0)  -->
<svg version="1.1" id="Layer_1" xmlns="http://www.w3.org/2000/svg" xmlns:xlink="http://www.w3.org/1999/xlink" x="0px" y="0px"
	 viewBox="0 0 24 24" enable-background="new 0 0 24 24" xml:space="preserve">
<g id="Filled_Icons" display="none">
	<g display="inline">
		<g>
			<circle cx="15" cy="11.021" r="0.5"/>
		</g>
		<g>
			<circle cx="9" cy="11.021" r="0.5"/>
		</g>
		<path d="M12,3.006c-0.531,0-1.044,0.086-1.547,0.207L8.387,0.689c-0.175-0.215-0.489-0.245-0.703-0.07
			c-0.214,0.175-0.245,0.49-0.07,0.703c0.102,0.125,1.729,2.261,1.729,2.261L6.157,2.531C5.89,2.441,5.612,2.587,5.525,2.848
			C5.438,3.111,5.581,3.395,5.843,3.48l2.27,0.749C4.417,6.621,2,12.037,2,16.006c0,5.01,3.738,8,10,8c6.262,0,10-2.99,10-8
			C22,10.771,17.801,3.006,12,3.006z M6.9,16.441c0.945-0.77,3.732-2.937,5.1-2.937c1.365,0,4.143,2.158,5.094,2.931
			c-1.981,0.967-4.455,2.069-5.094,2.069C11.393,18.506,9.036,17.467,6.9,16.441z M7.135,9.342c0.264-0.295,0.59-0.508,0.947-0.649
			L7.7,8.406c-0.221-0.166-0.265-0.479-0.1-0.7C7.767,7.485,8.08,7.44,8.3,7.605L12,10.38l3.7-2.775
			c0.221-0.166,0.532-0.121,0.7,0.101c0.164,0.221,0.119,0.534-0.102,0.7l-0.382,0.286c0.964,0.384,1.631,1.339,1.579,2.431
			c-0.062,1.337-1.174,2.383-2.498,2.383c-0.039,0-0.078-0.001-0.117-0.003c-1.257-0.06-2.246-1.046-2.359-2.263L12.3,11.406
			c-0.011,0.008-0.024,0.005-0.035,0.012c-0.081,0.052-0.17,0.088-0.265,0.088c-0.095,0-0.184-0.036-0.265-0.088
			c-0.011-0.007-0.024-0.004-0.035-0.012l-0.221-0.164c-0.113,1.205-1.087,2.188-2.335,2.261C9.096,13.506,9.048,13.507,9,13.507
			c-1.315,0-2.421-1.029-2.497-2.357C6.466,10.482,6.69,9.842,7.135,9.342z M11.938,22.037c-0.002,0-0.004,0-0.004,0
			c-0.148-0.002-0.287-0.066-0.381-0.182L8.637,18.35c1.427,0.631,2.786,1.155,3.363,1.155c0.603,0,1.986-0.541,3.359-1.151
			l-3.045,3.51C12.221,21.975,12.082,22.037,11.938,22.037z"/>
	</g>
</g>
<g id="Outline_Icons">
	<g>
		<path fill="none" stroke="#000000" stroke-linejoin="round" stroke-miterlimit="10" d="M7,17c0,0,3.609-3,5-3c1.391,0,5,3,5,3
			s-3.957,2-5,2S7,17,7,17z"/>
		<path fill="none" stroke="#000000" stroke-linejoin="round" stroke-miterlimit="10" d="M21.5,16c0,5.248-4.253,7.5-9.5,7.5
			c-5.246,0-9.5-2.252-9.5-7.5c0-5.246,4.254-12.5,9.5-12.5C17.247,3.5,21.5,10.754,21.5,16z"/>
		
			<line fill="none" stroke="#000000" stroke-linecap="round" stroke-linejoin="round" stroke-miterlimit="10" x1="9.366" y1="4.111" x2="6" y2="3"/>
		
			<line fill="none" stroke="#000000" stroke-linecap="round" stroke-linejoin="round" stroke-miterlimit="10" x1="10.265" y1="3.766" x2="8" y2="1"/>
		
			<line fill="none" stroke="#000000" stroke-linecap="round" stroke-linejoin="round" stroke-miterlimit="10" x1="12" y1="11" x2="16" y2="8"/>
		
			<line fill="none" stroke="#000000" stroke-linecap="round" stroke-linejoin="round" stroke-miterlimit="10" x1="12" y1="11" x2="8" y2="8"/>
		<path fill="none" stroke="#000000" stroke-linecap="round" stroke-linejoin="round" stroke-miterlimit="10" d="M14.73,9.018
			c0.117-0.016,0.24-0.021,0.363-0.016c1.103,0.053,1.955,0.988,1.903,2.092c-0.054,1.104-0.989,1.955-2.093,1.904
			c-1.104-0.053-1.955-0.99-1.903-2.092c0.013-0.252,0.069-0.49,0.165-0.709"/>
		<path fill="none" stroke="#000000" stroke-linecap="round" stroke-linejoin="round" stroke-miterlimit="10" d="M9.25,9.016
			C9.132,9,9.011,8.998,8.888,9.004c-1.104,0.063-1.947,1.008-1.885,2.111c0.063,1.104,1.009,1.946,2.112,1.883
			c1.103-0.064,1.945-1.01,1.882-2.111c-0.014-0.252-0.074-0.488-0.17-0.705"/>
		<polyline fill="none" stroke="#000000" stroke-linecap="round" stroke-linejoin="round" stroke-miterlimit="10" points="9,18 
			11.938,21.531 15,18 		"/>
		<g>
			<path d="M15,10.516c-0.275,0-0.5,0.225-0.5,0.5c0,0.277,0.225,0.5,0.5,0.5c0.275,0,0.5-0.223,0.5-0.5
				C15.5,10.74,15.275,10.516,15,10.516L15,10.516z"/>
		</g>
		<g>
			<path d="M9,10.516c-0.276,0-0.5,0.225-0.5,0.5c0,0.277,0.224,0.5,0.5,0.5c0.276,0,0.5-0.223,0.5-0.5
				C9.5,10.74,9.276,10.516,9,10.516L9,10.516z"/>
		</g>
	</g>
</g>
</svg>
