<?xml version="1.0" encoding="utf-8"?>
<!-- Generator: Adobe Illustrator 19.2.0, SVG Export Plug-In . SVG Version: 6.00 Build 0)  -->
<svg version="1.1" id="Layer_1" xmlns="http://www.w3.org/2000/svg" xmlns:xlink="http://www.w3.org/1999/xlink" x="0px" y="0px"
	 viewBox="0 0 24 24" enable-background="new 0 0 24 24" xml:space="preserve">
<g id="Filled_Icons" display="none">
	<g display="inline">
		<path d="M16,6.006c-1.876,0-2.529,0.305-3.5,0.844V5.506c0-1.378-1.122-2.5-2.5-2.5H8c-0.276,0-0.5,0.224-0.5,0.5
			c0,0.276,0.224,0.5,0.5,0.5h2c0.826,0,1.5,0.673,1.5,1.5V6.85C10.529,6.322,9.923,6.006,8,6.006c-3.364,0-6,3.295-6,7.5
			c0,3.956,3.038,10.5,6.5,10.5c1.801,0,2.331-0.342,2.793-0.754c0.189-0.169,0.276-0.246,0.707-0.246
			c0.431,0,0.518,0.077,0.706,0.246c0.463,0.412,0.991,0.754,2.794,0.754c3.462,0,6.5-6.544,6.5-10.5
			C22,9.301,19.363,6.006,16,6.006z"/>
		<path d="M14,5.506c2.757,0,5-2.243,5-5c0-0.276-0.225-0.5-0.5-0.5c-2.758,0-5,2.243-5,5C13.5,5.282,13.725,5.506,14,5.506z"/>
	</g>
</g>
<g id="Outline_Icons">
	<g>
		<path fill="none" stroke="#000000" stroke-linejoin="round" stroke-miterlimit="10" d="M12,22.5c1.5,0,0.5,1,3.5,1s6-6,6-10
			s-2.5-7-5.5-7s-3,1-4,1s-1-1-4-1s-5.5,3-5.5,7s3,10,6,10S10.5,22.5,12,22.5z"/>
		<path fill="none" stroke="#000000" stroke-linecap="round" stroke-linejoin="round" stroke-miterlimit="10" d="M12,7.5v-2
			c0-1.1-0.9-2-2-2H8"/>
		<path fill="none" stroke="#000000" stroke-linejoin="round" stroke-miterlimit="10" d="M14,5c2.484,0,4.5-2.014,4.5-4.5
			C16.016,0.5,14,2.516,14,5z"/>
	</g>
</g>
</svg>
