<?xml version="1.0" encoding="utf-8"?>
<!-- Generator: Adobe Illustrator 19.2.0, SVG Export Plug-In . SVG Version: 6.00 Build 0)  -->
<svg version="1.1" id="Layer_1" xmlns="http://www.w3.org/2000/svg" xmlns:xlink="http://www.w3.org/1999/xlink" x="0px" y="0px"
	 viewBox="0 0 24 24" enable-background="new 0 0 24 24" xml:space="preserve">
<g id="Filled_Icons" display="none">
	<g display="inline">
		<path d="M14,5.137v1.955c0.706-0.248,1.51,0.082,1.842,0.743c0.18,0.358,0.207,0.765,0.081,1.146
			c-0.127,0.38-0.396,0.688-0.752,0.867l-2.194,1.078c-0.154,0.054-0.313,0.08-0.477,0.08c-0.154,0-0.309-0.024-0.459-0.074
			c-0.254-0.094-1.944-0.95-2.212-1.084C9.679,9.773,9.55,9.672,9.436,9.557c-1.594,1.903-3.817,3.261-6.349,3.748
			C3.035,13.705,3,14.106,3,14.506c0,5.238,4.262,9.5,9.5,9.5c5.238,0,9.5-4.262,9.5-9.5C22,9.779,18.525,5.859,14,5.137z"/>
		<path d="M8.5,1.006H12v7.69l-1.277-0.638c-0.065-0.032-0.136-0.045-0.206-0.047c-0.143,0.246-0.293,0.485-0.454,0.719
			c0.049,0.094,0.117,0.176,0.213,0.223c0.056,0.028,1.996,1.001,2.056,1.021c0.117,0.043,0.23,0.041,0.339,0
			c0.087-0.033,1.966-0.978,2.054-1.021c0.118-0.06,0.209-0.162,0.25-0.289c0.043-0.127,0.033-0.263-0.025-0.382
			c-0.119-0.239-0.428-0.345-0.674-0.223L13,8.697l0,0V1.006h3.5c0.275,0,0.5-0.224,0.5-0.5c0-0.275-0.225-0.5-0.5-0.5h-8
			c-0.276,0-0.5,0.225-0.5,0.5C8,0.782,8.224,1.006,8.5,1.006z"/>
		<path d="M11,2.506c0-0.276-0.225-0.5-0.5-0.5c-5.515,0-10,4.486-10,10c0,0.276,0.224,0.5,0.5,0.5C6.514,12.506,11,8.021,11,2.506z
			"/>
	</g>
</g>
<g id="Outline_Icons">
	<g>
		
			<line fill="none" stroke="#000000" stroke-linecap="round" stroke-linejoin="round" stroke-miterlimit="10" x1="12.5" y1="9.5" x2="12.5" y2="0.5"/>
		
			<line fill="none" stroke="#000000" stroke-linecap="round" stroke-linejoin="round" stroke-miterlimit="10" x1="8.5" y1="0.5" x2="16.5" y2="0.5"/>
		<polyline fill="none" stroke="#000000" stroke-linecap="round" stroke-linejoin="round" stroke-miterlimit="10" points="10.5,8.5 
			12.5,9.5 14.5,8.5 		"/>
		<path fill="none" stroke="#000000" stroke-linejoin="round" stroke-miterlimit="10" d="M1,12c5.247,0,9.5-4.252,9.5-9.5
			C5.253,2.5,1,6.754,1,12z"/>
		<path fill="none" stroke="#000000" stroke-linecap="round" stroke-linejoin="round" stroke-miterlimit="10" d="M4.022,11.502
			C3.69,12.44,3.5,13.447,3.5,14.5c0,4.971,4.029,9,9,9c4.971,0,9-4.029,9-9c0-4.971-4.029-9-9-9c-0.916,0-1.802,0.139-2.636,0.395"
			/>
	</g>
</g>
</svg>
