<?xml version="1.0" encoding="utf-8"?>
<!-- Generator: Adobe Illustrator 19.2.0, SVG Export Plug-In . SVG Version: 6.00 Build 0)  -->
<svg version="1.1" id="Layer_1" xmlns="http://www.w3.org/2000/svg" xmlns:xlink="http://www.w3.org/1999/xlink" x="0px" y="0px"
	 viewBox="0 0 24 24" enable-background="new 0 0 24 24" xml:space="preserve">
<g id="Filled_Icons" display="none">
	<path display="inline" d="M22.853,14.652c-0.643-0.644-1.762-1.146-3.059-1.146c-0.277-6.004-0.702-9-0.795-10
		c0-1.378-1.121-2.5-2.5-2.5h-2c-0.275,0-0.5,0.224-0.5,0.5v4.5c0,1.103-0.897,2-2,2c-1.103,0-2-0.897-2-2v-4.5
		c0-0.276-0.224-0.5-0.5-0.5h-2C6.121,1.006,5,2.128,5,3.49c-0.063,1-0.492,3.414-0.796,10.016c-1.304,0-2.42,0.51-3.058,1.146
		C0.504,15.296,0,16.512,0,17.42v1.086c0,0.275,0.224,0.5,0.5,0.5c0.276,0,0.5-0.225,0.5-0.5V17.42c0-0.644,0.398-1.605,0.854-2.06
		c0.46-0.459,1.318-0.854,2.308-0.854C4.04,17.501,4,20.268,4,22.506c0,0.275,0.224,0.5,0.5,0.5h15c0.275,0,0.5-0.225,0.5-0.5
		c0-2.236-0.04-5.003-0.161-8c0.989,0,1.849,0.395,2.308,0.854C22.602,15.815,23,16.775,23,17.42v1.086c0,0.275,0.225,0.5,0.5,0.5
		c0.275,0,0.5-0.225,0.5-0.5V17.42C24,16.512,23.496,15.296,22.853,14.652z M17,15.006c0,2.758-2.243,5-5,5c-2.757,0-5-2.242-5-5
		v-0.5c0-0.275,0.224-0.5,0.5-0.5h9c0.275,0,0.5,0.225,0.5,0.5V15.006z"/>
</g>
<g id="Outline_Icons">
	<g>
		<path fill="none" stroke="#000000" stroke-linecap="round" stroke-linejoin="round" stroke-miterlimit="10" d="M14.5,1.5V6
			c0,1.381-1.119,2.5-2.5,2.5c-1.381,0-2.5-1.119-2.5-2.5V1.5h-2c-1.104,0-2,0.896-2,2c0,0.257-1,7.059-1,19h15
			c0-11.938-1-18.737-1-19c0-1.104-0.897-2-2-2H14.5z"/>
		<path fill="none" stroke="#000000" stroke-linecap="round" stroke-linejoin="round" stroke-miterlimit="10" d="M16.5,14.5h-9V15
			c0,2.484,2.015,4.5,4.5,4.5c2.484,0,4.5-2.016,4.5-4.5V14.5z"/>
		<path fill="none" stroke="#000000" stroke-linecap="round" stroke-linejoin="round" stroke-miterlimit="10" d="M4.679,14H3.914
			C3.137,14,2.05,14.45,1.5,15c-0.55,0.55-1,1.637-1,2.414V18.5"/>
		<path fill="none" stroke="#000000" stroke-linecap="round" stroke-linejoin="round" stroke-miterlimit="10" d="M19.32,14h0.766
			c0.777,0,1.864,0.45,2.414,1c0.55,0.55,1,1.637,1,2.414V18.5"/>
	</g>
</g>
</svg>
