<?xml version="1.0" encoding="utf-8"?>
<!-- Generator: Adobe Illustrator 19.2.0, SVG Export Plug-In . SVG Version: 6.00 Build 0)  -->
<svg version="1.1" id="Layer_1" xmlns="http://www.w3.org/2000/svg" xmlns:xlink="http://www.w3.org/1999/xlink" x="0px" y="0px"
	 viewBox="0 0 24 24" style="enable-background:new 0 0 24 24;" xml:space="preserve">
<style type="text/css">
	.st0{display:none;}
	.st1{display:inline;}
	.st2{fill:none;stroke:#000000;stroke-linecap:round;stroke-linejoin:round;stroke-dasharray:2.0066,2.0066;}
	.st3{fill:none;stroke:#000000;stroke-linecap:round;stroke-linejoin:round;stroke-miterlimit:10;}
</style>
<g id="Filled_Icons" class="st0">
	<g class="st1">
		<path d="M6.2,2.6c0.1,0,0.2,0,0.3-0.1C7,2.2,7.6,1.9,8.2,1.7C8.5,1.6,8.6,1.3,8.5,1C8.4,0.8,8.1,0.6,7.9,0.7C7.2,1,6.6,1.3,6,1.6
			C5.7,1.8,5.6,2.1,5.8,2.3C5.9,2.5,6,2.6,6.2,2.6z"/>
		<path d="M1,12c0-0.6,0.1-1.3,0.2-1.9c0-0.3-0.1-0.5-0.4-0.6c-0.3,0-0.5,0.1-0.6,0.4C0.1,10.6,0,11.3,0,12v0c0,0.3,0.2,0.5,0.5,0.5
			C0.8,12.5,1,12.3,1,12z"/>
		<path d="M1.7,15.8c-0.2-0.6-0.4-1.2-0.5-1.9c0-0.3-0.3-0.5-0.6-0.4c-0.3,0-0.5,0.3-0.4,0.6c0.1,0.7,0.3,1.4,0.5,2
			c0.1,0.2,0.3,0.3,0.5,0.3c0.1,0,0.1,0,0.2,0C1.6,16.3,1.8,16,1.7,15.8z"/>
		<path d="M1,8.6c0.1,0,0.1,0,0.2,0c0.2,0,0.4-0.1,0.5-0.3c0.2-0.6,0.5-1.2,0.8-1.7C2.6,6.3,2.5,6,2.3,5.8C2,5.7,1.7,5.8,1.6,6
			C1.2,6.6,0.9,7.3,0.7,7.9C0.6,8.2,0.8,8.5,1,8.6z"/>
		<path d="M3.2,5.1c0.1,0,0.3-0.1,0.4-0.2C4,4.5,4.4,4,4.9,3.6C5.1,3.4,5.1,3.1,5,2.9C4.8,2.7,4.5,2.6,4.3,2.8
			c-0.5,0.4-1,0.9-1.5,1.5C2.6,4.5,2.6,4.8,2.9,5C2.9,5.1,3.1,5.1,3.2,5.1z"/>
		<path d="M22.3,8.2c0.2,0.6,0.4,1.2,0.5,1.8c0,0.2,0.3,0.4,0.5,0.4c0,0,0.1,0,0.1,0c0.3,0,0.5-0.3,0.4-0.6c-0.1-0.7-0.3-1.4-0.5-2
			c-0.1-0.3-0.4-0.4-0.6-0.3C22.4,7.6,22.2,7.9,22.3,8.2z"/>
		<path d="M21.5,6.5c0.1,0.2,0.3,0.2,0.4,0.2c0.1,0,0.2,0,0.3-0.1c0.2-0.1,0.3-0.4,0.2-0.7c-0.4-0.6-0.8-1.2-1.2-1.7
			C21,4,20.7,4,20.5,4.2c-0.2,0.2-0.2,0.5-0.1,0.7C20.8,5.4,21.2,5.9,21.5,6.5z"/>
		<path d="M13.9,1.2c0.6,0.1,1.3,0.3,1.9,0.5c0.1,0,0.1,0,0.2,0c0.2,0,0.4-0.1,0.5-0.3c0.1-0.3,0-0.5-0.3-0.6
			c-0.7-0.2-1.3-0.4-2-0.5c-0.3,0-0.5,0.1-0.6,0.4C13.4,0.9,13.6,1.1,13.9,1.2z"/>
		<path d="M17.5,2.5C18,2.8,18.5,3.1,19,3.5c0.1,0.1,0.2,0.1,0.3,0.1c0.1,0,0.3-0.1,0.4-0.2c0.2-0.2,0.1-0.5-0.1-0.7
			c-0.5-0.4-1.1-0.8-1.7-1.2c-0.2-0.1-0.5-0.1-0.7,0.2C17.1,2,17.2,2.3,17.5,2.5z"/>
		<path d="M10,1.2C10,1.2,10,1.2,10,1.2C10.7,1.1,11.3,1,12,1c0.3,0,0.5-0.2,0.5-0.5C12.5,0.2,12.2,0,12,0h0c-0.7,0-1.4,0.1-2.1,0.2
			c-0.3,0-0.5,0.3-0.4,0.6C9.5,1,9.7,1.2,10,1.2z"/>
		<path d="M2.5,17.5c-0.1-0.2-0.4-0.3-0.7-0.2c-0.2,0.1-0.3,0.4-0.2,0.7c0.3,0.6,0.8,1.2,1.2,1.7c0.1,0.1,0.2,0.2,0.4,0.2
			c0.1,0,0.2,0,0.3-0.1c0.2-0.2,0.2-0.5,0.1-0.7C3.2,18.6,2.8,18.1,2.5,17.5z"/>
		<path d="M23,15.5c-0.3-0.1-0.5,0-0.6,0.3c-0.2,0.6-0.5,1.2-0.8,1.7c-0.1,0.2-0.1,0.5,0.2,0.7c0.1,0,0.2,0.1,0.2,0.1
			c0.2,0,0.3-0.1,0.4-0.2c0.3-0.6,0.6-1.2,0.9-1.9C23.4,15.8,23.2,15.6,23,15.5z"/>
		<path d="M20.4,19.1c-0.4,0.5-0.9,0.9-1.4,1.4c-0.2,0.2-0.2,0.5-0.1,0.7c0.1,0.1,0.2,0.2,0.4,0.2c0.1,0,0.2,0,0.3-0.1
			c0.5-0.4,1-0.9,1.5-1.5c0.2-0.2,0.2-0.5-0.1-0.7C20.9,18.8,20.6,18.9,20.4,19.1z"/>
		<path d="M23.5,11.5c-0.3,0-0.5,0.2-0.5,0.5c0,0.6-0.1,1.3-0.2,1.9c0,0.3,0.1,0.5,0.4,0.6c0,0,0.1,0,0.1,0c0.2,0,0.4-0.2,0.5-0.4
			c0.1-0.7,0.2-1.4,0.2-2.1v-0.1C24,11.7,23.8,11.5,23.5,11.5z"/>
		<path d="M17.5,21.5c-0.6,0.3-1.1,0.6-1.7,0.8c-0.3,0.1-0.4,0.4-0.3,0.6c0.1,0.2,0.3,0.3,0.5,0.3c0.1,0,0.1,0,0.2,0
			c0.7-0.2,1.3-0.5,1.9-0.9c0.2-0.1,0.3-0.4,0.2-0.7C18.1,21.5,17.7,21.4,17.5,21.5z"/>
		<path d="M10.1,22.8c-0.6-0.1-1.3-0.3-1.9-0.5c-0.3-0.1-0.5,0-0.6,0.3c-0.1,0.3,0,0.5,0.3,0.6c0.7,0.2,1.3,0.4,2,0.5
			c0,0,0.1,0,0.1,0c0.2,0,0.4-0.2,0.5-0.4C10.6,23.1,10.4,22.9,10.1,22.8z"/>
		<path d="M6.5,21.5c-0.6-0.3-1.1-0.7-1.6-1.1c-0.2-0.2-0.5-0.1-0.7,0.1c-0.2,0.2-0.1,0.5,0.1,0.7c0.5,0.4,1.1,0.8,1.7,1.2
			c0.1,0,0.2,0.1,0.2,0.1c0.2,0,0.3-0.1,0.4-0.2C6.8,22,6.8,21.7,6.5,21.5z"/>
		<path d="M13.9,22.8C13.3,22.9,12.7,23,12,23c-0.3,0-0.5,0.2-0.5,0.5c0,0.3,0.2,0.5,0.5,0.5c0.7,0,1.4-0.1,2.1-0.2
			c0.3,0,0.5-0.3,0.4-0.6C14.5,23,14.2,22.8,13.9,22.8z"/>
		<path d="M12,8c-2.2,0-4,1.8-4,4c0,2.2,1.8,4,4,4c2.2,0,4-1.8,4-4C16,9.8,14.2,8,12,8z"/>
	</g>
</g>
<g id="Outline_Icons">
	<g>
		<g>
			<circle class="st2" cx="12" cy="12" r="11.5"/>
		</g>
		<circle class="st3" cx="12" cy="12" r="3.5"/>
	</g>
</g>
</svg>
