<?xml version="1.0" encoding="utf-8"?>
<!-- Generator: Adobe Illustrator 19.2.0, SVG Export Plug-In . SVG Version: 6.00 Build 0)  -->
<svg version="1.1" id="Layer_1" xmlns="http://www.w3.org/2000/svg" xmlns:xlink="http://www.w3.org/1999/xlink" x="0px" y="0px"
	 viewBox="0 0 24 24" enable-background="new 0 0 24 24" xml:space="preserve">
<g id="Filled_Icons" display="none">
	<g display="inline">
		<path d="M3.499,10.006c2.138,0,3.929,1.5,4.384,3.502c1.368-0.269,2.81-0.464,4.116-0.464c1.306,0,2.747,0.194,4.114,0.464
			c0.457-2.002,2.246-3.502,4.386-3.502c0.306,0,0.604,0.031,0.894,0.09c0.07-0.285,0.106-0.49,0.106-0.617
			c0-5.223-4.249-9.473-9.472-9.473c-5.223,0-9.471,4.25-9.471,9.473c0,0.123,0.043,0.321,0.132,0.604
			C2.951,10.036,3.222,10.006,3.499,10.006z M10.999,8.506c0-0.098,0.019-0.192,0.045-0.282c-0.036-0.021-0.074-0.039-0.105-0.071
			L10.146,7.36c-0.195-0.195-0.195-0.512,0-0.707c0.195-0.196,0.512-0.196,0.707,0l0.793,0.793c0.031,0.032,0.049,0.069,0.07,0.106
			c0.09-0.027,0.184-0.046,0.283-0.046c0.099,0,0.192,0.019,0.283,0.046c0.021-0.037,0.039-0.075,0.07-0.107l0.792-0.792
			c0.195-0.196,0.513-0.196,0.707,0c0.195,0.195,0.195,0.512,0,0.707L13.06,8.153c-0.031,0.032-0.069,0.05-0.106,0.07
			C12.98,8.314,13,8.409,13,8.506c0,0.1-0.02,0.194-0.046,0.283c0.037,0.022,0.075,0.04,0.106,0.071l0.793,0.793
			c0.194,0.195,0.194,0.512,0,0.707c-0.099,0.097-0.226,0.146-0.354,0.146c-0.128,0-0.256-0.049-0.355-0.146l-0.792-0.792
			c-0.031-0.032-0.049-0.071-0.07-0.107c-0.091,0.028-0.185,0.045-0.283,0.045c-0.1,0-0.193-0.018-0.283-0.045
			c-0.021,0.037-0.039,0.075-0.07,0.105l-0.793,0.794c-0.098,0.097-0.226,0.146-0.354,0.146c-0.128,0-0.256-0.049-0.354-0.146
			c-0.195-0.195-0.195-0.512,0-0.707l0.793-0.793c0.031-0.031,0.069-0.049,0.105-0.071C11.018,8.699,10.999,8.606,10.999,8.506z"/>
		<path d="M6.905,13.716c-0.36-1.551-1.749-2.71-3.406-2.71c-1.93,0-3.5,1.571-3.5,3.5c0,1.016,0.437,1.928,1.129,2.568
			c0.306-1.137,1.16-2.065,2.33-2.43C4.325,14.376,5.551,14.022,6.905,13.716z"/>
		<path d="M20.499,11.006c-1.658,0-3.047,1.159-3.407,2.71c1.355,0.306,2.581,0.66,3.448,0.929c1.169,0.364,2.024,1.293,2.329,2.43
			c0.691-0.641,1.13-1.553,1.13-2.568C23.999,12.577,22.43,11.006,20.499,11.006z"/>
		<path d="M20.243,15.602c-1.864-0.582-5.412-1.558-8.244-1.558c-2.832,0-6.38,0.976-8.243,1.556
			c-0.788,0.246-1.383,0.848-1.631,1.596c-0.082,0.25-0.126,0.517-0.126,0.791v1.558c0,1.358,1.121,2.462,2.5,2.462v1v0.5
			c0,0.275,0.224,0.5,0.5,0.5c0.276,0,0.5-0.225,0.5-0.5v-0.5v-1h13v1v0.5c0,0.275,0.224,0.5,0.5,0.5c0.276,0,0.5-0.225,0.5-0.5
			v-0.5v-1c1.378,0,2.5-1.104,2.5-2.462v-1.558c0-0.137-0.013-0.273-0.033-0.404C21.816,16.656,21.162,15.887,20.243,15.602z"/>
	</g>
</g>
<g id="Outline_Icons">
	<g>
		
			<line fill="none" stroke="#000000" stroke-linecap="round" stroke-linejoin="round" stroke-miterlimit="10" x1="10.5" y1="8.035" x2="11.631" y2="9.167"/>
		
			<line fill="none" stroke="#000000" stroke-linecap="round" stroke-linejoin="round" stroke-miterlimit="10" x1="10.5" y1="11.035" x2="11.666" y2="9.87"/>
		
			<line fill="none" stroke="#000000" stroke-linecap="round" stroke-linejoin="round" stroke-miterlimit="10" x1="5.5" y1="21.5" x2="5.5" y2="23.5"/>
		
			<line fill="none" stroke="#000000" stroke-linecap="round" stroke-linejoin="round" stroke-miterlimit="10" x1="18.5" y1="21.5" x2="18.5" y2="23.5"/>
		<path fill="none" stroke="#000000" stroke-linejoin="round" stroke-miterlimit="10" d="M21.5,19.537c0,1.104-0.895,1.963-2,1.963
			h-15c-1.104,0-2-0.857-2-1.963v-1.559c0-0.875,0.569-1.647,1.405-1.908C5.8,15.481,9.254,14.537,12,14.537
			c2.746,0,6.2,0.943,8.096,1.533c0.834,0.26,1.404,1.033,1.404,1.908V19.537z"/>
		<path fill="none" stroke="#000000" stroke-linejoin="round" stroke-miterlimit="10" d="M21.409,17.397
			c1.213-0.385,2.091-1.521,2.091-2.858c0-1.659-1.343-3.002-3-3.002c-1.657,0-3,1.343-3,3.002c0,0.29,0.044,0.571,0.121,0.837"/>
		<path fill="none" stroke="#000000" stroke-linejoin="round" stroke-miterlimit="10" d="M6.379,15.375
			C6.456,15.109,6.5,14.827,6.5,14.537c0-1.657-1.343-3.002-3-3.002c-1.657,0-3,1.345-3,3.002c0,1.339,0.878,2.475,2.091,2.857"/>
		<g>
			<path fill="none" stroke="#000000" stroke-linejoin="round" stroke-miterlimit="10" d="M20.755,11.512
				C20.909,10.856,21,10.175,21,9.471C21,4.515,16.982,0.5,12.029,0.5c-4.955,0-8.972,4.015-8.972,8.971
				c0,0.704,0.091,1.383,0.244,2.039"/>
		</g>
		
			<line fill="none" stroke="#000000" stroke-linecap="round" stroke-linejoin="round" stroke-miterlimit="10" x1="12.335" y1="9.871" x2="13.5" y2="11.035"/>
		
			<line fill="none" stroke="#000000" stroke-linecap="round" stroke-linejoin="round" stroke-miterlimit="10" x1="12.368" y1="9.169" x2="13.5" y2="8.035"/>
		<path fill="none" stroke="#000000" stroke-linecap="round" stroke-linejoin="round" stroke-miterlimit="10" d="M12.5,9.5
			c0,0.276-0.224,0.5-0.5,0.5l0,0c-0.276,0-0.5-0.224-0.5-0.5l0,0C11.5,9.224,11.724,9,12,9l0,0C12.276,9,12.5,9.224,12.5,9.5
			L12.5,9.5z"/>
	</g>
</g>
</svg>
