<?xml version="1.0" encoding="utf-8"?>
<!-- Generator: Adobe Illustrator 19.2.0, SVG Export Plug-In . SVG Version: 6.00 Build 0)  -->
<svg version="1.1" id="Layer_1" xmlns="http://www.w3.org/2000/svg" xmlns:xlink="http://www.w3.org/1999/xlink" x="0px" y="0px"
	 viewBox="0 0 24 24" enable-background="new 0 0 24 24" xml:space="preserve">
<g id="Filled_Icons" display="none">
	<g display="inline">
		<circle cx="11.999" cy="9.006" r="1"/>
		<path d="M4.306,11.346C6,12.004,7.249,13.563,7.466,15.43c1.271-0.281,2.792-0.422,4.533-0.422c1.743,0,3.267,0.143,4.538,0.422
			c0.227-1.863,1.449-3.399,3.109-4.065l0.781-3.87c0.288-1.876-0.255-3.779-1.49-5.22c-1.237-1.442-3.035-2.269-4.935-2.269H9.991
			c-1.898,0-3.697,0.827-4.934,2.269C3.82,3.716,3.277,5.62,3.57,7.513L4.306,11.346z M8.646,8.36c-0.195-0.195-0.195-0.512,0-0.707
			c0.195-0.196,0.512-0.196,0.707,0l0.749,0.75c0.258-0.807,1.006-1.397,1.897-1.397c0.892,0,1.64,0.59,1.895,1.397l0.75-0.75
			c0.195-0.196,0.513-0.196,0.707,0c0.195,0.195,0.195,0.512,0,0.707l-0.646,0.646l0.646,0.647c0.195,0.195,0.195,0.512,0,0.707
			c-0.098,0.097-0.226,0.146-0.354,0.146c-0.128,0-0.256-0.049-0.354-0.146l-0.75-0.75c-0.258,0.806-1.006,1.396-1.896,1.396
			c-0.892,0-1.64-0.59-1.897-1.396l-0.749,0.75c-0.098,0.097-0.226,0.146-0.354,0.146c-0.128,0-0.256-0.049-0.354-0.146
			c-0.195-0.195-0.195-0.512,0-0.707L9.29,9.006L8.646,8.36z"/>
		<path d="M21.499,12.006c-2.206,0-4,1.795-4,4.001v0.655l-0.632-0.123c-0.891-0.244-2.459-0.532-4.868-0.532
			c-2.41,0-3.978,0.289-4.869,0.532l-0.631,0.172v-0.654c0-2.115-1.577-3.825-3.592-4.032c-0.135-0.014-0.271-0.02-0.408-0.02
			c-1.379,0-2.5,1.123-2.5,2.501c0,0.141,0.014,0.28,0.037,0.415c0.119,0.718,0.543,1.347,1.167,1.724
			c0.082,0.051,0.171,0.092,0.261,0.133c0.025,0.012,0.048,0.025,0.073,0.037c0.013,0.004,0.021,0.015,0.033,0.019
			c0.26,0.125,0.429,0.381,0.429,0.671v2c0,1.931,1.57,3.499,3.5,3.499v0.5c0,0.275,0.224,0.5,0.5,0.5c0.276,0,0.5-0.225,0.5-0.5
			v-0.5h11v0.5c0,0.275,0.224,0.5,0.5,0.5c0.276,0,0.5-0.225,0.5-0.5v-0.5c1.931,0,3.5-1.568,3.5-3.499v-2
			c0-0.075,0.011-0.149,0.032-0.22c0.001,0,0.002-0.002,0.002-0.004c0.043-0.137,0.125-0.262,0.236-0.354
			c0.014-0.012,0.031-0.017,0.047-0.029c0.045-0.029,0.09-0.062,0.143-0.084c0.818-0.342,1.384-1.078,1.512-1.936
			c0.019-0.123,0.028-0.247,0.028-0.374C23.999,13.129,22.877,12.006,21.499,12.006z"/>
	</g>
</g>
<g id="Outline_Icons">
	<g>
		<path fill="none" stroke="#000000" stroke-linecap="round" stroke-linejoin="round" stroke-miterlimit="10" d="M19,13.5
			l0.935-6.089c0.268-1.73-0.235-3.489-1.377-4.817c-1.14-1.33-2.803-2.094-4.554-2.094H9.992c-1.75,0-3.413,0.764-4.554,2.094
			c-1.14,1.329-1.643,3.087-1.376,4.817L5,13.5"/>
		
			<line fill="none" stroke="#000000" stroke-linecap="round" stroke-linejoin="round" stroke-miterlimit="10" x1="6.5" y1="22.5" x2="6.5" y2="23.5"/>
		
			<line fill="none" stroke="#000000" stroke-linecap="round" stroke-linejoin="round" stroke-miterlimit="10" x1="17.5" y1="22.5" x2="17.5" y2="23.5"/>
		<path fill="none" stroke="#000000" stroke-linejoin="round" stroke-miterlimit="10" d="M21.5,12.5c-1.936,0-3.5,1.566-3.5,3.5v1.5
			c0,0-1.5-1-6-1s-6,1-6,1V16c0-1.934-1.568-3.5-3.5-3.5c-1.105,0-2,0.895-2,2c0,0.832,0.507,1.546,1.23,1.848
			C2.195,16.54,2.5,16.996,2.5,17.5v2c0,1.656,1.342,3,3,3h13c1.654,0,3-1.344,3-3v-2c0-0.504,0.303-0.96,0.768-1.152
			C22.99,16.046,23.5,15.332,23.5,14.5C23.5,13.395,22.603,12.5,21.5,12.5z"/>
		<polyline fill="none" stroke="#000000" stroke-linecap="round" stroke-linejoin="round" stroke-miterlimit="10" points="15,10 
			13.5,9 15,8 		"/>
		<polyline fill="none" stroke="#000000" stroke-linecap="round" stroke-linejoin="round" stroke-miterlimit="10" points="9,10 
			10.5,9 9,8 		"/>
		
			<circle fill="none" stroke="#000000" stroke-linecap="round" stroke-linejoin="round" stroke-miterlimit="10" cx="12" cy="9" r="1.5"/>
	</g>
</g>
</svg>
