<?xml version="1.0" encoding="utf-8"?>
<!-- Generator: Adobe Illustrator 19.2.0, SVG Export Plug-In . SVG Version: 6.00 Build 0)  -->
<svg version="1.1" id="Layer_1" xmlns="http://www.w3.org/2000/svg" xmlns:xlink="http://www.w3.org/1999/xlink" x="0px" y="0px"
	 viewBox="0 0 24 24" style="enable-background:new 0 0 24 24;" xml:space="preserve">
<style type="text/css">
	.st0{display:none;}
	.st1{display:inline;}
	.st2{fill:none;stroke:#000000;stroke-linecap:round;stroke-linejoin:round;stroke-miterlimit:10;}
</style>
<g id="Filled_Icon" class="st0">
	<g class="st1">
		<path d="M7.8,15.8l-1.3,1.3V4.5c0-0.6-0.4-1-1-1c-0.6,0-1,0.4-1,1v12.6l-1.3-1.3c-0.4-0.4-1-0.4-1.4,0c-0.4,0.4-0.4,1,0,1.4l3,3
			c0.2,0.2,0.5,0.3,0.7,0.3c0.3,0,0.5-0.1,0.7-0.3l3-3c0.4-0.4,0.4-1,0-1.4C8.8,15.4,8.2,15.4,7.8,15.8z"/>
		<path d="M17.5,3v7c0,0.6,0.4,1,1,1c0.6,0,1-0.4,1-1V1c0-0.4-0.2-0.8-0.6-0.9c-0.4-0.2-0.8-0.1-1.1,0.2l-1.1,1
			c-0.4,0.4-0.4,1,0,1.4C16.9,2.9,17.2,3,17.5,3z"/>
		<path d="M18.3,12c-2.6,0-3.6,2.1-3.6,3.9c0,1.8,0.9,3.9,3.6,3.9c0.6,0,1.1-0.1,1.5-0.3C19.6,20.8,18.9,22,17,22c-0.6,0-1,0.4-1,1
			c0,0.6,0.4,1,1,1c3.5,0,4.8-2.7,4.8-5.3v-2.8C21.9,14.1,20.9,12,18.3,12z M18.3,17.8c-1.1,0-1.6-0.6-1.6-1.9s0.5-1.9,1.6-1.9
			c1,0,1.6,0.6,1.6,1.9S19.3,17.8,18.3,17.8z"/>
	</g>
</g>
<g id="Outline_Icons">
	<g>
		<line class="st2" x1="5.5" y1="4.5" x2="5.5" y2="19.5"/>
		<polyline class="st2" points="2.5,16.5 5.5,19.5 8.5,16.5 		"/>
		<polyline class="st2" points="18.5,9.5 18.5,0.5 17.4,1.5 		"/>
		<g>
			<path class="st2" d="M18.3,19.3c-2.2,0-2.6-1.9-2.6-2.9c0-1,0.4-2.9,2.6-2.9c2.2,0,2.6,1.9,2.6,2.9
				C20.9,17.5,20.5,19.3,18.3,19.3z"/>
			<path class="st2" d="M17,23.5c3.2,0,3.8-2.8,3.8-4.3v-2.8"/>
		</g>
	</g>
</g>
</svg>
