<?xml version="1.0" encoding="utf-8"?>
<!-- Generator: Adobe Illustrator 19.2.0, SVG Export Plug-In . SVG Version: 6.00 Build 0)  -->
<svg version="1.1" id="Layer_1" xmlns="http://www.w3.org/2000/svg" xmlns:xlink="http://www.w3.org/1999/xlink" x="0px" y="0px"
	 viewBox="0 0 24 24" style="enable-background:new 0 0 24 24;" xml:space="preserve">
<style type="text/css">
	.st0{display:none;}
	.st1{display:inline;}
	.st2{fill:none;stroke:#000000;stroke-linecap:round;stroke-linejoin:round;stroke-miterlimit:10;}
</style>
<g id="Filled_Icon" class="st0">
	<g class="st1">
		<path d="M7.8,15.8l-1.3,1.3V4.5c0-0.6-0.4-1-1-1c-0.6,0-1,0.4-1,1v12.6l-1.3-1.3c-0.4-0.4-1-0.4-1.4,0c-0.4,0.4-0.4,1,0,1.4l3,3
			c0.2,0.2,0.5,0.3,0.7,0.3c0.3,0,0.5-0.1,0.7-0.3l3-3c0.4-0.4,0.4-1,0-1.4C8.8,15.4,8.2,15.4,7.8,15.8z"/>
		<path d="M15.4,12c0.1,0,0.2,0,0.3,0c0.4,0,0.8-0.3,1-0.7l0.4-1.6h2.8l0.4,1.6c0.2,0.5,0.7,0.8,1.2,0.7c0.5-0.2,0.8-0.7,0.7-1.2
			l-2.8-10c-0.1-0.4-0.5-0.7-1-0.7c-0.4,0-0.8,0.3-1,0.7l-2.8,10C14.6,11.3,14.9,11.8,15.4,12z M18.5,4.7l0.9,3h-1.7L18.5,4.7z"/>
		<path d="M21.1,22h-3.4l4.3-7c0.2-0.3,0.2-0.7,0-1c-0.2-0.3-0.5-0.5-0.9-0.5h-5.2c-0.6,0-1,0.4-1,1c0,0.6,0.4,1,1,1h3.4l-4.3,7
			c-0.2,0.3-0.2,0.7,0,1c0.2,0.3,0.5,0.5,0.9,0.5h5.2c0.6,0,1-0.4,1-1C22.1,22.4,21.6,22,21.1,22z"/>
	</g>
</g>
<g id="Outline_Icons">
	<g>
		<line class="st2" x1="5.5" y1="4.5" x2="5.5" y2="19.5"/>
		<polyline class="st2" points="2.5,16.5 5.5,19.5 8.5,16.5 		"/>
		<g>
			<polyline class="st2" points="21.3,10.5 18.5,0.5 15.7,10.5 			"/>
			<line class="st2" x1="16.3" y1="8.2" x2="20.7" y2="8.2"/>
		</g>
		<polyline class="st2" points="15.9,15 21.1,15 15.9,23.5 21.1,23.5 		"/>
	</g>
</g>
</svg>
