<?xml version="1.0" encoding="utf-8"?>
<!-- Generator: Adobe Illustrator 19.2.0, SVG Export Plug-In . SVG Version: 6.00 Build 0)  -->
<svg version="1.1" id="Layer_1" xmlns="http://www.w3.org/2000/svg" xmlns:xlink="http://www.w3.org/1999/xlink" x="0px" y="0px"
	 viewBox="0 0 24 24" style="enable-background:new 0 0 24 24;" xml:space="preserve">
<style type="text/css">
	.st0{display:none;}
	.st1{display:inline;}
	.st2{fill:none;stroke:#000000;stroke-linecap:round;stroke-linejoin:round;stroke-miterlimit:10;}
</style>
<g id="Filled_Icon" class="st0">
	<path class="st1" d="M23,0h-9.5c-0.6,0-1,0.4-1,1c0,0.6,0.4,1,1,1H22v15H3.4l3.3-3.3c0.4-0.4,0.4-1,0-1.4c-0.4-0.4-1-0.4-1.4,0
		l-5,5c-0.4,0.4-0.4,1,0,1.4l5,5C5.5,23.9,5.7,24,6,24c0.3,0,0.5-0.1,0.7-0.3c0.4-0.4,0.4-1,0-1.4L3.4,19H23c0.6,0,1-0.4,1-1V1
		C24,0.4,23.6,0,23,0z"/>
</g>
<g id="Outline_Icons">
	<g>
		<polyline class="st2" points="0.5,18.5 23.5,18.5 23.5,0.5 13.5,0.5 		"/>
		<polyline class="st2" points="5.5,23.5 0.5,18.5 5.5,13.5 		"/>
	</g>
</g>
</svg>
