<?xml version="1.0" encoding="utf-8"?>
<!-- Generator: Adobe Illustrator 19.2.0, SVG Export Plug-In . SVG Version: 6.00 Build 0)  -->
<svg version="1.1" id="Layer_1" xmlns="http://www.w3.org/2000/svg" xmlns:xlink="http://www.w3.org/1999/xlink" x="0px" y="0px"
	 viewBox="0 0 24 24" style="enable-background:new 0 0 24 24;" xml:space="preserve">
<style type="text/css">
	.st0{display:none;}
	.st1{display:inline;}
	.st2{fill:none;stroke:#000000;stroke-linecap:round;stroke-linejoin:round;stroke-miterlimit:10;}
</style>
<g id="Filled_Icon" class="st0">
	<g class="st1">
		<path d="M19.7,12.3l-6-6c-0.4-0.4-1-0.4-1.4,0c-0.4,0.4-0.4,1,0,1.4l4.3,4.3H1c-0.6,0-1,0.4-1,1c0,0.6,0.4,1,1,1h15.6l-4.3,4.3
			c-0.4,0.4-0.4,1,0,1.4c0.2,0.2,0.5,0.3,0.7,0.3c0.3,0,0.5-0.1,0.7-0.3l6-6C20.1,13.3,20.1,12.7,19.7,12.3z"/>
		<path d="M23,6c-0.6,0-1,0.4-1,1v12c0,0.6,0.4,1,1,1c0.6,0,1-0.4,1-1V7C24,6.4,23.6,6,23,6z"/>
	</g>
</g>
<g id="Outline_Icons">
	<g>
		<line class="st2" x1="0.5" y1="12.5" x2="19.5" y2="12.5"/>
		<polyline class="st2" points="13.5,18.5 19.5,12.5 13.5,6.5 		"/>
		<line class="st2" x1="23.5" y1="6.5" x2="23.5" y2="18.5"/>
	</g>
</g>
</svg>
