<?xml version="1.0" encoding="utf-8"?>
<!-- Generator: Adobe Illustrator 19.2.0, SVG Export Plug-In . SVG Version: 6.00 Build 0)  -->
<svg version="1.1" id="Outline_Icons" xmlns="http://www.w3.org/2000/svg" xmlns:xlink="http://www.w3.org/1999/xlink" x="0px"
	 y="0px" viewBox="0 0 24 24" enable-background="new 0 0 24 24" xml:space="preserve">
<g>
	<g>
		<g>
			<polygon points="2.699,21.305 1,21.305 1,23.004 2.699,23.004 			"/>
		</g>
	</g>
	<g>
		<g>
			<polygon points="2.699,17.904 1,17.904 1,19.604 2.699,19.604 			"/>
		</g>
	</g>
	<g>
		<g>
			<polygon points="2.699,14.504 1,14.504 1,16.203 2.699,16.203 			"/>
		</g>
	</g>
	<g>
		<g>
			<polygon points="2.699,11.104 1,11.104 1,12.805 2.699,12.805 			"/>
		</g>
	</g>
	<g>
		<g>
			<polygon points="6.1,17.904 4.399,17.904 4.399,19.604 6.1,19.604 			"/>
		</g>
	</g>
	<g>
		<g>
			<polygon points="6.1,14.504 4.399,14.504 4.399,16.203 6.1,16.203 			"/>
		</g>
	</g>
	<g>
		<g>
			<polygon points="6.1,11.104 4.399,11.104 4.399,12.805 6.1,12.805 			"/>
		</g>
	</g>
	<g>
		<g>
			<polygon points="9.5,17.904 7.8,17.904 7.8,19.604 9.5,19.604 			"/>
		</g>
	</g>
	<g>
		<g>
			<polygon points="9.5,14.504 7.8,14.504 7.8,16.203 9.5,16.203 			"/>
		</g>
	</g>
	<g>
		<g>
			<polygon points="9.5,11.104 7.8,11.104 7.8,12.805 9.5,12.805 			"/>
		</g>
	</g>
	<g>
		<g>
			<polygon points="2.699,7.703 1,7.703 1,9.404 2.699,9.404 			"/>
		</g>
	</g>
	<g>
		<g>
			<polygon points="16.3,11.104 14.6,11.104 14.6,12.805 16.3,12.805 			"/>
		</g>
	</g>
	<g>
		<g>
			<polygon points="16.3,7.703 14.6,7.703 14.6,9.404 16.3,9.404 			"/>
		</g>
	</g>
	<g>
		<g>
			<polygon points="16.3,4.305 14.6,4.305 14.6,6.004 16.3,6.004 			"/>
		</g>
	</g>
	<g>
		<g>
			<polygon points="19.699,7.703 18,7.703 18,9.404 19.699,9.404 			"/>
		</g>
	</g>
	<g>
		<g>
			<polygon points="12.899,17.904 11.199,17.904 11.199,19.604 12.899,19.604 			"/>
		</g>
	</g>
	<g>
		<g>
			<polygon points="12.899,14.504 11.199,14.504 11.199,16.203 12.899,16.203 			"/>
		</g>
	</g>
	<g>
		<g>
			<polygon points="12.899,11.104 11.199,11.104 11.199,12.805 12.899,12.805 			"/>
		</g>
	</g>
	<g>
		<g>
			<polygon points="12.899,7.703 11.199,7.703 11.199,9.404 12.899,9.404 			"/>
		</g>
	</g>
	<g>
		<g>
			<polygon points="16.3,21.305 14.6,21.305 14.6,23.004 16.3,23.004 			"/>
		</g>
	</g>
	<g>
		<g>
			<polygon points="12.899,21.305 11.199,21.305 11.199,23.004 12.899,23.004 			"/>
		</g>
	</g>
	<g>
		<g>
			<polygon points="9.5,21.305 7.8,21.305 7.8,23.004 9.5,23.004 			"/>
		</g>
	</g>
	<g>
		<g>
			<polygon points="6.1,21.305 4.399,21.305 4.399,23.004 6.1,23.004 			"/>
		</g>
	</g>
</g>
</svg>
