<?xml version="1.0" encoding="utf-8"?>
<!-- Generator: Adobe Illustrator 19.2.0, SVG Export Plug-In . SVG Version: 6.00 Build 0)  -->
<svg version="1.1" id="Outline_Icons" xmlns="http://www.w3.org/2000/svg" xmlns:xlink="http://www.w3.org/1999/xlink" x="0px"
	 y="0px" viewBox="0 0 24 24" enable-background="new 0 0 24 24" xml:space="preserve">
<g>
	<g>
		<path fill="none" stroke="#000000" stroke-linecap="square" stroke-linejoin="round" stroke-miterlimit="10" d="M18.5,11.504
			c0-0.55-0.45-1-1-1l-7.485,0.002c-0.55,0-0.696-0.332-0.324-0.737l2.373-2.588c0.372-0.405,0.358-1.055-0.031-1.444l-0.296-0.296
			c-0.389-0.389-1.019-0.383-1.401,0.013L4.725,11.28c-0.382,0.396-0.384,1.047-0.006,1.446l5.516,5.822
			c0.378,0.399,1.006,0.408,1.395,0.019l0.296-0.296c0.389-0.389,0.408-1.042,0.041-1.452l-2.3-2.573
			C9.299,13.835,9.45,13.5,10,13.5h7.5c0.55,0,1-0.45,1-1V11.504z"/>
	</g>
	<circle fill="none" stroke="#000000" stroke-miterlimit="10" cx="12" cy="12.004" r="11.5"/>
</g>
</svg>
