<?xml version="1.0" encoding="utf-8"?>
<!-- Generator: Adobe Illustrator 19.2.0, SVG Export Plug-In . SVG Version: 6.00 Build 0)  -->
<svg version="1.1" id="Outline_Icons" xmlns="http://www.w3.org/2000/svg" xmlns:xlink="http://www.w3.org/1999/xlink" x="0px"
	 y="0px" viewBox="0 0 24 24" enable-background="new 0 0 24 24" xml:space="preserve">
<g>
	<path fill="none" stroke="#000000" d="M0.5,12.004c0-0.828,0.637-1.5,1.5-1.5c0.861,0,1.5,0.672,1.5,1.5c0,0.83-0.639,1.5-1.5,1.5
		C1.137,13.504,0.5,12.834,0.5,12.004z"/>
	<path fill="none" stroke="#000000" d="M4.5,17.004c0-0.828,0.637-1.5,1.5-1.5c0.861,0,1.5,0.672,1.5,1.5c0,0.83-0.639,1.5-1.5,1.5
		C5.137,18.504,4.5,17.834,4.5,17.004z"/>
	<path fill="none" stroke="#000000" d="M8.5,21.004c0-0.828,0.637-1.5,1.5-1.5c0.861,0,1.5,0.672,1.5,1.5c0,0.83-0.639,1.5-1.5,1.5
		C9.137,22.504,8.5,21.834,8.5,21.004z"/>
	<path fill="none" stroke="#000000" d="M4.5,7.004c0,0.83,0.637,1.5,1.5,1.5c0.861,0,1.5-0.67,1.5-1.5c0-0.828-0.639-1.5-1.5-1.5
		C5.137,5.504,4.5,6.176,4.5,7.004z"/>
	<path fill="none" stroke="#000000" d="M8.5,3.004c0,0.83,0.637,1.5,1.5,1.5c0.861,0,1.5-0.67,1.5-1.5c0-0.828-0.639-1.5-1.5-1.5
		C9.137,1.504,8.5,2.176,8.5,3.004z"/>
	<path fill="none" stroke="#000000" d="M20.5,12.004c0-0.828,0.637-1.5,1.5-1.5c0.861,0,1.5,0.672,1.5,1.5c0,0.83-0.639,1.5-1.5,1.5
		C21.137,13.504,20.5,12.834,20.5,12.004z"/>
	<path fill="none" stroke="#000000" d="M15.5,12.004c0-0.828,0.637-1.5,1.5-1.5c0.861,0,1.5,0.672,1.5,1.5c0,0.83-0.639,1.5-1.5,1.5
		C16.137,13.504,15.5,12.834,15.5,12.004z"/>
	<path fill="none" stroke="#000000" d="M10.5,12.004c0-0.828,0.637-1.5,1.5-1.5c0.861,0,1.5,0.672,1.5,1.5c0,0.83-0.639,1.5-1.5,1.5
		C11.137,13.504,10.5,12.834,10.5,12.004z"/>
	<path fill="none" stroke="#000000" d="M5.5,12.004c0-0.828,0.637-1.5,1.5-1.5c0.861,0,1.5,0.672,1.5,1.5c0,0.83-0.639,1.5-1.5,1.5
		C6.137,13.504,5.5,12.834,5.5,12.004z"/>
</g>
</svg>
