<?xml version="1.0" encoding="utf-8"?>
<!-- Generator: Adobe Illustrator 19.2.0, SVG Export Plug-In . SVG Version: 6.00 Build 0)  -->
<svg version="1.1" id="Outline_Icons" xmlns="http://www.w3.org/2000/svg" xmlns:xlink="http://www.w3.org/1999/xlink" x="0px"
	 y="0px" viewBox="0 0 24 24" enable-background="new 0 0 24 24" xml:space="preserve">
<g>
	<g>
		<polygon points="3.682,11.094 1.834,11.094 1.834,12.943 3.682,12.943 		"/>
	</g>
	<g>
		<polygon points="7.379,11.094 5.53,11.094 5.53,12.943 7.379,12.943 		"/>
	</g>
	<g>
		<polygon points="11.075,11.094 9.227,11.094 9.227,12.943 11.075,12.943 		"/>
	</g>
	<g>
		<polygon points="14.771,11.094 12.924,11.094 12.924,12.943 14.771,12.943 		"/>
	</g>
	<g>
		<polygon points="11.075,7.398 9.227,7.398 9.227,9.246 11.075,9.246 		"/>
	</g>
	<g>
		<polygon points="14.771,7.398 12.924,7.398 12.924,9.246 14.771,9.246 		"/>
	</g>
	<g>
		<polygon points="11.075,3.701 9.227,3.701 9.227,5.549 11.075,5.549 		"/>
	</g>
	<g>
		<polygon points="14.771,3.701 12.924,3.701 12.924,5.549 14.771,5.549 		"/>
	</g>
	<g>
		<polygon points="11.075,0.004 9.227,0.004 9.227,1.854 11.075,1.854 		"/>
	</g>
	<g>
		<polygon points="14.771,0.004 12.924,0.004 12.924,1.854 14.771,1.854 		"/>
	</g>
	<g>
		<polygon points="18.469,11.094 16.621,11.094 16.62,12.943 18.469,12.943 		"/>
	</g>
	<g>
		<polygon points="7.379,14.791 5.53,14.791 5.53,16.639 7.379,16.639 		"/>
	</g>
	<g>
		<polygon points="11.075,14.791 9.227,14.791 9.227,16.639 11.075,16.639 		"/>
	</g>
	<g>
		<polygon points="14.771,14.791 12.924,14.791 12.924,16.639 14.771,16.639 		"/>
	</g>
	<g>
		<polygon points="14.771,18.488 12.924,18.488 12.924,20.336 14.771,20.336 		"/>
	</g>
	<g>
		<polygon points="12.924,22.156 11.075,22.156 11.075,24.004 12.924,24.004 		"/>
	</g>
	<g>
		<polygon points="11.075,18.488 9.227,18.488 9.227,20.336 11.075,20.336 		"/>
	</g>
	<g>
		<polygon points="18.469,14.791 16.62,14.791 16.62,16.639 18.469,16.639 		"/>
	</g>
	<g>
		<polygon points="22.166,11.094 20.316,11.094 20.316,12.943 22.166,12.943 		"/>
	</g>
</g>
</svg>
