<?xml version="1.0" encoding="utf-8"?>
<!-- Generator: Adobe Illustrator 19.2.0, SVG Export Plug-In . SVG Version: 6.00 Build 0)  -->
<svg version="1.1" id="Outline_Icons" xmlns="http://www.w3.org/2000/svg" xmlns:xlink="http://www.w3.org/1999/xlink" x="0px"
	 y="0px" viewBox="0 0 24 24" enable-background="new 0 0 24 24" xml:space="preserve">
<g>
	<g>
		<polygon points="12.938,1.838 11.09,1.838 11.09,3.688 12.938,3.688 		"/>
	</g>
	<g>
		<polygon points="12.938,5.535 11.09,5.535 11.09,7.383 12.938,7.383 		"/>
	</g>
	<g>
		<polygon points="12.938,9.232 11.09,9.232 11.09,11.08 12.938,11.08 		"/>
	</g>
	<g>
		<polygon points="12.938,12.928 11.09,12.928 11.09,14.777 12.938,14.777 		"/>
	</g>
	<g>
		<polygon points="9.241,9.232 7.393,9.232 7.393,11.08 9.241,11.08 		"/>
	</g>
	<g>
		<polygon points="9.241,12.928 7.393,12.928 7.393,14.777 9.241,14.777 		"/>
	</g>
	<g>
		<polygon points="5.544,9.232 3.696,9.232 3.696,11.08 5.544,11.08 		"/>
	</g>
	<g>
		<polygon points="5.544,12.928 3.696,12.928 3.696,14.777 5.544,14.777 		"/>
	</g>
	<g>
		<polygon points="1.848,9.232 -0.001,9.232 -0.001,11.08 1.848,11.08 		"/>
	</g>
	<g>
		<polygon points="1.848,12.928 -0.001,12.928 -0.001,14.777 1.848,14.777 		"/>
	</g>
	<g>
		<polygon points="12.938,16.625 11.09,16.625 11.09,18.473 12.938,18.473 		"/>
	</g>
	<g>
		<polygon points="16.635,5.535 14.787,5.535 14.787,7.383 16.635,7.383 		"/>
	</g>
	<g>
		<polygon points="16.635,9.232 14.787,9.232 14.787,11.08 16.635,11.08 		"/>
	</g>
	<g>
		<polygon points="16.635,12.928 14.787,12.928 14.787,14.777 16.635,14.777 		"/>
	</g>
	<g>
		<polygon points="20.331,12.928 18.483,12.928 18.483,14.777 20.331,14.777 		"/>
	</g>
	<g>
		<polygon points="24,11.08 22.151,11.08 22.151,12.928 24,12.928 		"/>
	</g>
	<g>
		<polygon points="20.331,9.232 18.483,9.232 18.483,11.08 20.331,11.08 		"/>
	</g>
	<g>
		<polygon points="16.635,16.625 14.787,16.625 14.787,18.473 16.635,18.473 		"/>
	</g>
	<g>
		<polygon points="12.938,20.322 11.09,20.322 11.09,22.17 12.938,22.17 		"/>
	</g>
</g>
</svg>
