<?xml version="1.0" encoding="utf-8"?>
<!-- Generator: Adobe Illustrator 19.2.0, SVG Export Plug-In . SVG Version: 6.00 Build 0)  -->
<svg version="1.1" id="Outline_Icons" xmlns="http://www.w3.org/2000/svg" xmlns:xlink="http://www.w3.org/1999/xlink" x="0px"
	 y="0px" viewBox="0 0 24 24" enable-background="new 0 0 24 24" xml:space="preserve">
<g>
	<path fill="none" stroke="#000000" d="M12,23.504c-0.829,0-1.5-0.637-1.5-1.5c0-0.861,0.671-1.5,1.5-1.5s1.5,0.639,1.5,1.5
		C13.5,22.867,12.829,23.504,12,23.504z"/>
	<path fill="none" stroke="#000000" d="M17,19.504c-0.829,0-1.5-0.637-1.5-1.5c0-0.861,0.671-1.5,1.5-1.5s1.5,0.639,1.5,1.5
		C18.5,18.867,17.829,19.504,17,19.504z"/>
	<path fill="none" stroke="#000000" d="M21,15.504c-0.829,0-1.5-0.637-1.5-1.5c0-0.861,0.671-1.5,1.5-1.5s1.5,0.639,1.5,1.5
		C22.5,14.867,21.829,15.504,21,15.504z"/>
	<path fill="none" stroke="#000000" d="M6.999,19.504c0.829,0,1.5-0.637,1.5-1.5c0-0.861-0.671-1.5-1.5-1.5s-1.5,0.639-1.5,1.5
		C5.499,18.867,6.17,19.504,6.999,19.504z"/>
	<path fill="none" stroke="#000000" d="M3,15.504c0.829,0,1.5-0.637,1.5-1.5c0-0.861-0.671-1.5-1.5-1.5s-1.5,0.639-1.5,1.5
		C1.5,14.867,2.17,15.504,3,15.504z"/>
	<path fill="none" stroke="#000000" d="M12,3.504c-0.829,0-1.5-0.637-1.5-1.5c0-0.861,0.671-1.5,1.5-1.5s1.5,0.639,1.5,1.5
		C13.5,2.867,12.829,3.504,12,3.504z"/>
	<path fill="none" stroke="#000000" d="M12,8.504c-0.829,0-1.5-0.637-1.5-1.5c0-0.861,0.671-1.5,1.5-1.5s1.5,0.639,1.5,1.5
		C13.5,7.867,12.829,8.504,12,8.504z"/>
	<path fill="none" stroke="#000000" d="M12,13.504c-0.829,0-1.5-0.637-1.5-1.5c0-0.861,0.671-1.5,1.5-1.5s1.5,0.639,1.5,1.5
		C13.5,12.867,12.829,13.504,12,13.504z"/>
	<path fill="none" stroke="#000000" d="M12,18.504c-0.829,0-1.5-0.637-1.5-1.5c0-0.861,0.671-1.5,1.5-1.5s1.5,0.639,1.5,1.5
		C13.5,17.867,12.829,18.504,12,18.504z"/>
</g>
</svg>
