<?xml version="1.0" encoding="utf-8"?>
<!-- Generator: Adobe Illustrator 19.2.0, SVG Export Plug-In . SVG Version: 6.00 Build 0)  -->
<svg version="1.1" id="Outline_Icons" xmlns="http://www.w3.org/2000/svg" xmlns:xlink="http://www.w3.org/1999/xlink" x="0px"
	 y="0px" viewBox="0 0 24 24" enable-background="new 0 0 24 24" xml:space="preserve">
<g>
	<g>
		<g>
			<g>
				<polygon points="23,21.305 21.301,21.305 21.301,23.004 23,23.004 				"/>
			</g>
		</g>
	</g>
	<g>
		<g>
			<g>
				<polygon points="19.6,21.305 17.9,21.305 17.9,23.004 19.6,23.004 				"/>
			</g>
		</g>
	</g>
	<g>
		<g>
			<g>
				<polygon points="16.199,21.305 14.5,21.305 14.5,23.004 16.199,23.004 				"/>
			</g>
		</g>
	</g>
	<g>
		<g>
			<g>
				<polygon points="12.801,21.305 11.1,21.305 11.1,23.004 12.801,23.004 				"/>
			</g>
		</g>
	</g>
	<g>
		<g>
			<g>
				<polygon points="19.6,17.904 17.9,17.904 17.9,19.604 19.6,19.604 				"/>
			</g>
		</g>
	</g>
	<g>
		<g>
			<g>
				<polygon points="16.199,17.904 14.5,17.904 14.5,19.604 16.199,19.604 				"/>
			</g>
		</g>
	</g>
	<g>
		<g>
			<g>
				<polygon points="12.801,17.904 11.1,17.904 11.1,19.604 12.801,19.604 				"/>
			</g>
		</g>
	</g>
	<g>
		<g>
			<g>
				<polygon points="19.6,14.504 17.9,14.504 17.9,16.203 19.6,16.203 				"/>
			</g>
		</g>
	</g>
	<g>
		<g>
			<g>
				<polygon points="16.199,14.504 14.5,14.504 14.5,16.203 16.199,16.203 				"/>
			</g>
		</g>
	</g>
	<g>
		<g>
			<g>
				<polygon points="12.801,14.504 11.1,14.504 11.1,16.203 12.801,16.203 				"/>
			</g>
		</g>
	</g>
	<g>
		<g>
			<g>
				<polygon points="9.4,21.305 7.699,21.305 7.699,23.004 9.4,23.004 				"/>
			</g>
		</g>
	</g>
	<g>
		<g>
			<g>
				<polygon points="12.801,7.703 11.1,7.703 11.1,9.404 12.801,9.404 				"/>
			</g>
		</g>
	</g>
	<g>
		<g>
			<g>
				<polygon points="9.4,7.703 7.699,7.703 7.699,9.404 9.4,9.404 				"/>
			</g>
		</g>
	</g>
	<g>
		<g>
			<g>
				<polygon points="6,7.703 4.301,7.703 4.301,9.404 6,9.404 				"/>
			</g>
		</g>
	</g>
	<g>
		<g>
			<g>
				<polygon points="9.4,4.305 7.699,4.305 7.699,6.004 9.4,6.004 				"/>
			</g>
		</g>
	</g>
	<g>
		<g>
			<g>
				<polygon points="19.6,11.104 17.9,11.104 17.9,12.805 19.6,12.805 				"/>
			</g>
		</g>
	</g>
	<g>
		<g>
			<g>
				<polygon points="16.199,11.104 14.5,11.104 14.5,12.805 16.199,12.805 				"/>
			</g>
		</g>
	</g>
	<g>
		<g>
			<g>
				<polygon points="12.801,11.104 11.1,11.104 11.1,12.805 12.801,12.805 				"/>
			</g>
		</g>
	</g>
	<g>
		<g>
			<g>
				<polygon points="9.4,11.104 7.699,11.104 7.699,12.805 9.4,12.805 				"/>
			</g>
		</g>
	</g>
	<g>
		<g>
			<g>
				<polygon points="23,7.703 21.301,7.703 21.301,9.404 23,9.404 				"/>
			</g>
		</g>
	</g>
	<g>
		<g>
			<g>
				<polygon points="23,11.104 21.301,11.104 21.301,12.805 23,12.805 				"/>
			</g>
		</g>
	</g>
	<g>
		<g>
			<g>
				<polygon points="23,14.504 21.301,14.504 21.301,16.203 23,16.203 				"/>
			</g>
		</g>
	</g>
	<g>
		<g>
			<g>
				<polygon points="23,17.904 21.301,17.904 21.301,19.604 23,19.604 				"/>
			</g>
		</g>
	</g>
</g>
</svg>
