<?xml version="1.0" encoding="utf-8"?>
<!-- Generator: Adobe Illustrator 19.2.0, SVG Export Plug-In . SVG Version: 6.00 Build 0)  -->
<svg version="1.1" id="Layer_1" xmlns="http://www.w3.org/2000/svg" xmlns:xlink="http://www.w3.org/1999/xlink" x="0px" y="0px"
	 viewBox="0 0 24 24" style="enable-background:new 0 0 24 24;" xml:space="preserve">
<style type="text/css">
	.st0{display:none;}
	.st1{display:inline;}
	.st2{fill:none;stroke:#000000;stroke-linecap:round;stroke-linejoin:round;stroke-miterlimit:10;}
</style>
<g id="Filled_Icon" class="st0">
	<path class="st1" d="M16.7,5.3l-5-5c-0.4-0.4-1-0.4-1.4,0l-5,5c-0.4,0.4-0.4,1,0,1.4c0.4,0.4,1,0.4,1.4,0L10,3.4V23
		c0,0.6,0.4,1,1,1c0.6,0,1-0.4,1-1V3.4l3.3,3.3C15.5,6.9,15.7,7,16,7c0.3,0,0.5-0.1,0.7-0.3C17.1,6.3,17.1,5.7,16.7,5.3z"/>
</g>
<g id="Outline_Icons">
	<g>
		<polyline class="st2" points="5.5,5.5 10.5,0.5 15.5,5.5 		"/>
		<line class="st2" x1="10.5" y1="0.5" x2="10.5" y2="23.5"/>
	</g>
</g>
</svg>
