<?xml version="1.0" encoding="utf-8"?>
<!-- Generator: Adobe Illustrator 19.2.0, SVG Export Plug-In . SVG Version: 6.00 Build 0)  -->
<svg version="1.1" id="Layer_1" xmlns="http://www.w3.org/2000/svg" xmlns:xlink="http://www.w3.org/1999/xlink" x="0px" y="0px"
	 viewBox="0 0 24 24" style="enable-background:new 0 0 24 24;" xml:space="preserve">
<style type="text/css">
	.st0{display:none;}
	.st1{display:inline;}
	.st2{fill:none;stroke:#000000;stroke-linecap:round;stroke-linejoin:round;stroke-miterlimit:10;}
</style>
<g id="Filled_Icons" class="st0">
	<path class="st1" d="M23.7,4.9l-3.5-3.6l0,0c-0.1-0.1-0.2-0.2-0.3-0.2C19.8,1,19.6,1,19.5,1c0,0,0,0,0,0c0,0-0.1,0-0.1,0
		c-0.1,0-0.2,0-0.3,0.1c-0.1,0-0.2,0.1-0.3,0.2c0,0,0,0-0.1,0l0,0c0,0,0,0,0,0l-3.6,3.6c-0.4,0.4-0.4,1,0,1.4c0.4,0.4,1,0.4,1.4,0
		l1.9-1.9V15c0,3.6-2.9,6.5-6.5,6.5S5.5,18.6,5.5,15v-1.6l1.8,1.8c0.2,0.2,0.5,0.3,0.7,0.3c0.3,0,0.5-0.1,0.7-0.3
		c0.4-0.4,0.4-1,0-1.4l-3.5-3.5c-0.1-0.1-0.2-0.2-0.3-0.2c-0.2-0.1-0.5-0.1-0.8,0c-0.1,0.1-0.2,0.1-0.3,0.2l-3.5,3.5
		c-0.4,0.4-0.4,1,0,1.4c0.4,0.4,1,0.4,1.4,0l1.8-1.8V15c0,4.7,3.8,8.5,8.5,8.5c4.7,0,8.5-3.8,8.5-8.5V4.4l1.8,1.8
		c0.2,0.2,0.5,0.3,0.7,0.3c0.3,0,0.5-0.1,0.7-0.3C24.1,5.9,24.1,5.3,23.7,4.9z"/>
</g>
<g id="Outline_Icons">
	<g>
		<path class="st2" d="M4.5,11v4c0,4.1,3.4,7.5,7.5,7.5c4.1,0,7.5-3.4,7.5-7.5V2"/>
		<polyline class="st2" points="0.9,14.6 4.5,11 8,14.6 		"/>
		<polyline class="st2" points="15.9,5.6 19.5,2 23,5.6 		"/>
	</g>
</g>
</svg>
