<?xml version="1.0" encoding="utf-8"?>
<!-- Generator: Adobe Illustrator 19.2.0, SVG Export Plug-In . SVG Version: 6.00 Build 0)  -->
<svg version="1.1" id="Outline_Icons" xmlns="http://www.w3.org/2000/svg" xmlns:xlink="http://www.w3.org/1999/xlink" x="0px"
	 y="0px" viewBox="0 0 24 24" enable-background="new 0 0 24 24" xml:space="preserve">
<g>
	<g>
		<polygon points="12.909,1.838 11.061,1.838 11.061,3.688 12.909,3.688 		"/>
	</g>
	<g>
		<polygon points="12.909,5.535 11.061,5.535 11.061,7.383 12.909,7.383 		"/>
	</g>
	<g>
		<polygon points="12.909,9.232 11.061,9.232 11.061,11.08 12.909,11.08 		"/>
	</g>
	<g>
		<polygon points="12.909,12.928 11.061,12.928 11.061,14.777 12.909,14.777 		"/>
	</g>
	<g>
		<polygon points="16.606,9.232 14.758,9.232 14.758,11.08 16.606,11.08 		"/>
	</g>
	<g>
		<polygon points="16.606,12.928 14.758,12.928 14.758,14.777 16.606,14.777 		"/>
	</g>
	<g>
		<polygon points="20.303,9.232 18.455,9.232 18.455,11.08 20.303,11.08 		"/>
	</g>
	<g>
		<polygon points="20.303,12.928 18.455,12.928 18.455,14.777 20.303,14.777 		"/>
	</g>
	<g>
		<polygon points="24,9.232 22.151,9.232 22.151,11.08 24,11.08 		"/>
	</g>
	<g>
		<polygon points="24,12.928 22.151,12.928 22.151,14.777 24,14.777 		"/>
	</g>
	<g>
		<polygon points="12.909,16.625 11.061,16.625 11.061,18.473 12.909,18.473 		"/>
	</g>
	<g>
		<polygon points="9.212,5.535 7.364,5.535 7.364,7.383 9.212,7.383 		"/>
	</g>
	<g>
		<polygon points="9.212,9.232 7.364,9.232 7.364,11.08 9.212,11.08 		"/>
	</g>
	<g>
		<polygon points="9.212,12.928 7.364,12.928 7.364,14.777 9.212,14.777 		"/>
	</g>
	<g>
		<polygon points="5.516,12.928 3.668,12.928 3.668,14.777 5.516,14.777 		"/>
	</g>
	<g>
		<polygon points="1.848,11.08 -0.001,11.08 -0.001,12.928 1.848,12.928 		"/>
	</g>
	<g>
		<polygon points="5.516,9.232 3.668,9.232 3.668,11.08 5.516,11.08 		"/>
	</g>
	<g>
		<polygon points="9.212,16.625 7.364,16.625 7.364,18.473 9.212,18.473 		"/>
	</g>
	<g>
		<polygon points="12.909,20.322 11.061,20.322 11.061,22.17 12.909,22.17 		"/>
	</g>
</g>
</svg>
