<?xml version="1.0" encoding="utf-8"?>
<!-- Generator: Adobe Illustrator 19.2.0, SVG Export Plug-In . SVG Version: 6.00 Build 0)  -->
<svg version="1.1" id="Outline_Icons" xmlns="http://www.w3.org/2000/svg" xmlns:xlink="http://www.w3.org/1999/xlink" x="0px"
	 y="0px" viewBox="0 0 24 24" enable-background="new 0 0 24 24" xml:space="preserve">
<g>
	<path fill="none" stroke="#000000" stroke-linejoin="round" d="M0.5,0.504v23h23v-23L0.5,0.504z"/>
	<g>
		<g>
			<g>
				<g>
					<polygon points="5.258,12.754 3.76,12.754 3.76,14.252 5.258,14.252 					"/>
				</g>
			</g>
		</g>
		<g>
			<g>
				<g>
					<polygon points="8.254,12.754 6.756,12.754 6.756,14.252 8.254,14.252 					"/>
				</g>
			</g>
		</g>
		<g>
			<g>
				<g>
					<polygon points="8.254,9.758 6.756,9.758 6.756,11.256 8.254,11.256 					"/>
				</g>
			</g>
		</g>
		<g>
			<g>
				<g>
					<polygon points="11.25,12.754 9.752,12.754 9.752,14.252 11.25,14.252 					"/>
				</g>
			</g>
		</g>
		<g>
			<g>
				<g>
					<polygon points="11.25,9.758 9.752,9.758 9.752,11.256 11.25,11.256 					"/>
				</g>
			</g>
		</g>
		<g>
			<g>
				<g>
					<polygon points="14.246,12.754 12.748,12.754 12.748,14.252 14.246,14.252 					"/>
				</g>
			</g>
		</g>
		<g>
			<g>
				<g>
					<polygon points="14.246,9.758 12.748,9.758 12.748,11.256 14.246,11.256 					"/>
				</g>
			</g>
		</g>
		<g>
			<g>
				<g>
					<polygon points="11.25,6.762 9.752,6.762 9.752,8.26 11.25,8.26 					"/>
				</g>
			</g>
		</g>
		<g>
			<g>
				<g>
					<polygon points="12.748,3.766 11.25,3.766 11.25,5.264 12.748,5.264 					"/>
				</g>
			</g>
		</g>
		<g>
			<g>
				<g>
					<polygon points="14.246,6.762 12.748,6.762 12.748,8.26 14.246,8.26 					"/>
				</g>
			</g>
		</g>
		<g>
			<g>
				<g>
					<polygon points="11.25,18.746 9.752,18.746 9.752,20.244 11.25,20.244 					"/>
				</g>
			</g>
		</g>
		<g>
			<g>
				<g>
					<polygon points="11.25,15.75 9.752,15.75 9.752,17.248 11.25,17.248 					"/>
				</g>
			</g>
		</g>
		<g>
			<g>
				<g>
					<polygon points="14.246,18.746 12.748,18.746 12.748,20.244 14.246,20.244 					"/>
				</g>
			</g>
		</g>
		<g>
			<g>
				<g>
					<polygon points="14.246,15.75 12.748,15.75 12.748,17.248 14.246,17.248 					"/>
				</g>
			</g>
		</g>
		<g>
			<g>
				<g>
					<polygon points="17.242,12.754 15.744,12.754 15.744,14.252 17.242,14.252 					"/>
				</g>
			</g>
		</g>
		<g>
			<g>
				<g>
					<polygon points="20.238,12.754 18.74,12.754 18.74,14.252 20.238,14.252 					"/>
				</g>
			</g>
		</g>
		<g>
			<g>
				<g>
					<polygon points="17.242,9.758 15.744,9.758 15.744,11.256 17.242,11.256 					"/>
				</g>
			</g>
		</g>
	</g>
</g>
</svg>
