<?xml version="1.0" encoding="utf-8"?>
<!-- Generator: Adobe Illustrator 19.2.0, SVG Export Plug-In . SVG Version: 6.00 Build 0)  -->
<svg version="1.1" id="Layer_1" xmlns="http://www.w3.org/2000/svg" xmlns:xlink="http://www.w3.org/1999/xlink" x="0px" y="0px"
	 viewBox="0 0 24 24" style="enable-background:new 0 0 24 24;" xml:space="preserve">
<style type="text/css">
	.st0{display:none;}
	.st1{display:inline;}
	.st2{fill:none;stroke:#000000;stroke-linecap:round;stroke-linejoin:round;stroke-miterlimit:10;}
</style>
<g id="Filled_Icon" class="st0">
	<g class="st1">
		<path d="M23,12H7.4l4.3-4.3c0.4-0.4,0.4-1,0-1.4c-0.4-0.4-1-0.4-1.4,0l-6,6c-0.4,0.4-0.4,1,0,1.4l6,6c0.2,0.2,0.5,0.3,0.7,0.3
			c0.3,0,0.5-0.1,0.7-0.3c0.4-0.4,0.4-1,0-1.4L7.4,14H23c0.6,0,1-0.4,1-1C24,12.4,23.6,12,23,12z"/>
		<path d="M1,6C0.4,6,0,6.4,0,7v12c0,0.6,0.4,1,1,1c0.6,0,1-0.4,1-1V7C2,6.4,1.6,6,1,6z"/>
	</g>
</g>
<g id="Outline_Icons">
	<g>
		<line class="st2" x1="23.5" y1="12.5" x2="4.5" y2="12.5"/>
		<polyline class="st2" points="10.5,6.5 4.5,12.5 10.5,18.5 		"/>
		<line class="st2" x1="0.5" y1="18.5" x2="0.5" y2="6.5"/>
	</g>
</g>
</svg>
