<?xml version="1.0" encoding="utf-8"?>
<!-- Generator: Adobe Illustrator 19.2.0, SVG Export Plug-In . SVG Version: 6.00 Build 0)  -->
<svg version="1.1" id="Layer_1" xmlns="http://www.w3.org/2000/svg" xmlns:xlink="http://www.w3.org/1999/xlink" x="0px" y="0px"
	 viewBox="0 0 24 24" style="enable-background:new 0 0 24 24;" xml:space="preserve">
<style type="text/css">
	.st0{display:none;}
	.st1{display:inline;}
	.st2{fill:none;stroke:#000000;stroke-linecap:round;stroke-linejoin:round;stroke-miterlimit:10;}
</style>
<g id="Filled_Icon" class="st0">
	<path class="st1" d="M23.7,12.3l-5-5c-0.4-0.4-1-0.4-1.4,0c-0.4,0.4-0.4,1,0,1.4l3.3,3.3H1c-0.6,0-1,0.4-1,1c0,0.6,0.4,1,1,1h19.6
		l-3.3,3.3c-0.4,0.4-0.4,1,0,1.4c0.2,0.2,0.5,0.3,0.7,0.3c0.3,0,0.5-0.1,0.7-0.3l5-5C24.1,13.3,24.1,12.7,23.7,12.3z"/>
</g>
<g id="Outline_Icons">
	<g>
		<polyline class="st2" points="18.5,7.5 23.5,12.5 18.5,17.5 		"/>
		<line class="st2" x1="23.5" y1="12.5" x2="0.5" y2="12.5"/>
	</g>
</g>
</svg>
