<?xml version="1.0" encoding="utf-8"?>
<!-- Generator: Adobe Illustrator 19.2.0, SVG Export Plug-In . SVG Version: 6.00 Build 0)  -->
<svg version="1.1" id="Outline_Icons" xmlns="http://www.w3.org/2000/svg" xmlns:xlink="http://www.w3.org/1999/xlink" x="0px"
	 y="0px" viewBox="0 0 24 24" enable-background="new 0 0 24 24" xml:space="preserve">
<g>
	<g>
		<path fill="none" stroke="#000000" stroke-linecap="square" stroke-linejoin="round" stroke-miterlimit="10" d="M12.5,4.5
			c0.55,0,1,0.45,1,1v7.535c0,0.55,0.332,0.696,0.737,0.324l2.586-2.373c0.405-0.372,1.055-0.358,1.444,0.031l0.296,0.296
			c0.389,0.389,0.383,1.019-0.013,1.401l-5.829,5.611c-0.396,0.381-1.047,0.384-1.446,0.006l-5.818-5.515
			c-0.399-0.378-0.408-1.006-0.019-1.395l0.296-0.296c0.389-0.389,1.042-0.407,1.452-0.041l2.57,2.299
			c0.41,0.367,0.745,0.217,0.745-0.333V5.5c0-0.55,0.45-1,1-1H12.5z"/>
	</g>
	<circle fill="none" stroke="#000000" stroke-miterlimit="10" cx="12" cy="12.004" r="11.5"/>
</g>
</svg>
