<?xml version="1.0" encoding="utf-8"?>
<!-- Generator: Adobe Illustrator 19.2.0, SVG Export Plug-In . SVG Version: 6.00 Build 0)  -->
<svg version="1.1" id="Outline_Icons" xmlns="http://www.w3.org/2000/svg" xmlns:xlink="http://www.w3.org/1999/xlink" x="0px"
	 y="0px" viewBox="0 0 24 24" enable-background="new 0 0 24 24" xml:space="preserve">
<g>
	<path fill="none" stroke="#000000" stroke-linejoin="round" d="M0.5,0.504v23h23v-23L0.5,0.504z"/>
	<g>
		<g>
			<g>
				<g>
					<polygon points="20.25,18.754 18.75,18.754 18.75,20.254 20.25,20.254 					"/>
				</g>
			</g>
		</g>
		<g>
			<g>
				<g>
					<polygon points="17.25,18.754 15.75,18.754 15.75,20.254 17.25,20.254 					"/>
				</g>
			</g>
		</g>
		<g>
			<g>
				<g>
					<polygon points="14.25,18.754 12.75,18.754 12.75,20.254 14.25,20.254 					"/>
				</g>
			</g>
		</g>
		<g>
			<g>
				<g>
					<polygon points="11.25,18.754 9.75,18.754 9.75,20.254 11.25,20.254 					"/>
				</g>
			</g>
		</g>
		<g>
			<g>
				<g>
					<polygon points="17.25,15.754 15.75,15.754 15.75,17.254 17.25,17.254 					"/>
				</g>
			</g>
		</g>
		<g>
			<g>
				<g>
					<polygon points="14.25,15.754 12.75,15.754 12.75,17.254 14.25,17.254 					"/>
				</g>
			</g>
		</g>
		<g>
			<g>
				<g>
					<polygon points="11.25,15.754 9.75,15.754 9.75,17.254 11.25,17.254 					"/>
				</g>
			</g>
		</g>
		<g>
			<g>
				<g>
					<polygon points="17.25,12.754 15.75,12.754 15.75,14.254 17.25,14.254 					"/>
				</g>
			</g>
		</g>
		<g>
			<g>
				<g>
					<polygon points="14.25,12.754 12.75,12.754 12.75,14.254 14.25,14.254 					"/>
				</g>
			</g>
		</g>
		<g>
			<g>
				<g>
					<polygon points="11.25,12.754 9.75,12.754 9.75,14.254 11.25,14.254 					"/>
				</g>
			</g>
		</g>
		<g>
			<g>
				<g>
					<polygon points="8.25,18.754 6.75,18.754 6.75,20.254 8.25,20.254 					"/>
				</g>
			</g>
		</g>
		<g>
			<g>
				<g>
					<polygon points="11.25,6.754 9.75,6.754 9.75,8.254 11.25,8.254 					"/>
				</g>
			</g>
		</g>
		<g>
			<g>
				<g>
					<polygon points="8.25,6.754 6.75,6.754 6.75,8.254 8.25,8.254 					"/>
				</g>
			</g>
		</g>
		<g>
			<g>
				<g>
					<polygon points="5.25,6.754 3.75,6.754 3.75,8.254 5.25,8.254 					"/>
				</g>
			</g>
		</g>
		<g>
			<g>
				<g>
					<polygon points="8.25,3.754 6.75,3.754 6.75,5.254 8.25,5.254 					"/>
				</g>
			</g>
		</g>
		<g>
			<g>
				<g>
					<polygon points="17.25,9.754 15.75,9.754 15.75,11.254 17.25,11.254 					"/>
				</g>
			</g>
		</g>
		<g>
			<g>
				<g>
					<polygon points="14.25,9.754 12.75,9.754 12.75,11.254 14.25,11.254 					"/>
				</g>
			</g>
		</g>
		<g>
			<g>
				<g>
					<polygon points="11.25,9.754 9.75,9.754 9.75,11.254 11.25,11.254 					"/>
				</g>
			</g>
		</g>
		<g>
			<g>
				<g>
					<polygon points="8.25,9.754 6.75,9.754 6.75,11.254 8.25,11.254 					"/>
				</g>
			</g>
		</g>
		<g>
			<g>
				<g>
					<polygon points="20.25,6.754 18.75,6.754 18.75,8.254 20.25,8.254 					"/>
				</g>
			</g>
		</g>
		<g>
			<g>
				<g>
					<polygon points="20.25,9.754 18.75,9.754 18.75,11.254 20.25,11.254 					"/>
				</g>
			</g>
		</g>
		<g>
			<g>
				<g>
					<polygon points="20.25,12.754 18.75,12.754 18.75,14.254 20.25,14.254 					"/>
				</g>
			</g>
		</g>
		<g>
			<g>
				<g>
					<polygon points="20.25,15.754 18.75,15.754 18.75,17.254 20.25,17.254 					"/>
				</g>
			</g>
		</g>
	</g>
</g>
</svg>
