<?xml version="1.0" encoding="utf-8"?>
<!-- Generator: Adobe Illustrator 19.2.0, SVG Export Plug-In . SVG Version: 6.00 Build 0)  -->
<svg version="1.1" id="Outline_Icons" xmlns="http://www.w3.org/2000/svg" xmlns:xlink="http://www.w3.org/1999/xlink" x="0px"
	 y="0px" viewBox="0 0 24 24" enable-background="new 0 0 24 24" xml:space="preserve">
<g>
	<path fill="none" stroke="#000000" d="M12,0.504c0.829,0,1.5,0.639,1.5,1.5s-0.671,1.5-1.5,1.5s-1.5-0.639-1.5-1.5
		S11.17,0.504,12,0.504z"/>
	<path fill="none" stroke="#000000" d="M6.999,4.504c0.829,0,1.5,0.639,1.5,1.5s-0.671,1.5-1.5,1.5s-1.5-0.639-1.5-1.5
		S6.17,4.504,6.999,4.504z"/>
	<path fill="none" stroke="#000000" d="M3,8.504c0.829,0,1.5,0.639,1.5,1.5s-0.671,1.5-1.5,1.5s-1.5-0.639-1.5-1.5
		S2.17,8.504,3,8.504z"/>
	<path fill="none" stroke="#000000" d="M17,4.504c-0.829,0-1.5,0.639-1.5,1.5s0.671,1.5,1.5,1.5s1.5-0.639,1.5-1.5
		S17.829,4.504,17,4.504z"/>
	<path fill="none" stroke="#000000" d="M21,8.504c-0.829,0-1.5,0.639-1.5,1.5s0.671,1.5,1.5,1.5s1.5-0.639,1.5-1.5
		S21.829,8.504,21,8.504z"/>
	<path fill="none" stroke="#000000" d="M12,20.504c0.829,0,1.5,0.639,1.5,1.5s-0.671,1.5-1.5,1.5s-1.5-0.639-1.5-1.5
		S11.17,20.504,12,20.504z"/>
	<path fill="none" stroke="#000000" d="M12,15.504c0.829,0,1.5,0.639,1.5,1.5s-0.671,1.5-1.5,1.5s-1.5-0.639-1.5-1.5
		S11.17,15.504,12,15.504z"/>
	<path fill="none" stroke="#000000" d="M12,10.504c0.829,0,1.5,0.639,1.5,1.5s-0.671,1.5-1.5,1.5s-1.5-0.639-1.5-1.5
		S11.17,10.504,12,10.504z"/>
	<path fill="none" stroke="#000000" d="M12,5.504c0.829,0,1.5,0.639,1.5,1.5s-0.671,1.5-1.5,1.5s-1.5-0.639-1.5-1.5
		S11.17,5.504,12,5.504z"/>
</g>
</svg>
