<?xml version="1.0" encoding="utf-8"?>
<!-- Generator: Adobe Illustrator 19.2.0, SVG Export Plug-In . SVG Version: 6.00 Build 0)  -->
<svg version="1.1" id="Layer_1" xmlns="http://www.w3.org/2000/svg" xmlns:xlink="http://www.w3.org/1999/xlink" x="0px" y="0px"
	 viewBox="0 0 24 24" style="enable-background:new 0 0 24 24;" xml:space="preserve">
<style type="text/css">
	.st0{display:none;}
	.st1{display:inline;}
	.st2{fill:none;stroke:#000000;stroke-linecap:round;stroke-linejoin:round;stroke-miterlimit:10;}
</style>
<g id="Filled_Icon" class="st0">
	<path class="st1" d="M17.7,16.3L3.4,2H8c0.6,0,1-0.4,1-1c0-0.6-0.4-1-1-1H1C0.5,0,0,0.4,0,1v7c0,0.6,0.4,1,1,1c0.6,0,1-0.4,1-1V3.4
		l14.3,14.3c0.2,0.2,0.5,0.3,0.7,0.3c0.3,0,0.5-0.1,0.7-0.3C18.1,17.3,18.1,16.7,17.7,16.3z"/>
</g>
<g id="Outline_Icons">
	<g>
		<polyline class="st2" points="0.5,7.5 0.5,0.5 7.5,0.5 		"/>
		<line class="st2" x1="0.5" y1="0.5" x2="16.5" y2="16.5"/>
	</g>
</g>
</svg>
