<?xml version="1.0" encoding="utf-8"?>
<!-- Generator: Adobe Illustrator 19.2.0, SVG Export Plug-In . SVG Version: 6.00 Build 0)  -->
<svg version="1.1" id="Layer_1" xmlns="http://www.w3.org/2000/svg" xmlns:xlink="http://www.w3.org/1999/xlink" x="0px" y="0px"
	 viewBox="0 0 24 24" style="enable-background:new 0 0 24 24;" xml:space="preserve">
<style type="text/css">
	.st0{display:none;}
	.st1{display:inline;}
	.st2{fill:none;stroke:#000000;stroke-linecap:round;stroke-linejoin:round;stroke-miterlimit:10;}
</style>
<g id="Filled_Icon" class="st0">
	<path class="st1" d="M23,0h-7c-0.6,0-1,0.4-1,1c0,0.6,0.4,1,1,1h4.6L6.3,16.3c-0.4,0.4-0.4,1,0,1.4C6.5,17.9,6.7,18,7,18
		c0.3,0,0.5-0.1,0.7-0.3L22,3.4V8c0,0.6,0.4,1,1,1c0.6,0,1-0.4,1-1V1C24,0.4,23.5,0,23,0z"/>
</g>
<g id="Outline_Icons">
	<g>
		<polyline class="st2" points="16.5,0.5 23.5,0.5 23.5,7.5 		"/>
		<line class="st2" x1="23.5" y1="0.5" x2="7.5" y2="16.5"/>
	</g>
</g>
</svg>
