<?xml version="1.0" encoding="utf-8"?>
<!-- Generator: Adobe Illustrator 19.2.0, SVG Export Plug-In . SVG Version: 6.00 Build 0)  -->
<svg version="1.1" id="Layer_1" xmlns="http://www.w3.org/2000/svg" xmlns:xlink="http://www.w3.org/1999/xlink" x="0px" y="0px"
	 viewBox="0 0 24 24" style="enable-background:new 0 0 24 24;" xml:space="preserve">
<style type="text/css">
	.st0{display:none;}
	.st1{display:inline;}
	.st2{fill:none;stroke:#000000;stroke-linecap:round;stroke-linejoin:round;stroke-miterlimit:10;}
</style>
<g id="Filled_Icon" class="st0">
	<path class="st1" d="M23.8,11.1L12.3,0.1c-0.2-0.2-0.5-0.2-0.7,0l-11.5,11C0,11.3,0,11.5,0,11.7C0.1,11.9,0.3,12,0.5,12H6v11.5
		C6,23.8,6.2,24,6.5,24h11c0.3,0,0.5-0.2,0.5-0.5V12h5.5c0,0,0,0,0,0c0.3,0,0.5-0.2,0.5-0.5C24,11.3,23.9,11.2,23.8,11.1z"/>
</g>
<g id="Outline_Icons">
	<g>
		<polygon class="st2" points="17.5,23.5 17.5,11.5 23.5,11.5 12,0.5 0.5,11.5 6.5,11.5 6.5,23.5 		"/>
	</g>
</g>
</svg>
