<?xml version="1.0" encoding="utf-8"?>
<!-- Generator: Adobe Illustrator 19.2.0, SVG Export Plug-In . SVG Version: 6.00 Build 0)  -->
<svg version="1.1" id="Layer_1" xmlns="http://www.w3.org/2000/svg" xmlns:xlink="http://www.w3.org/1999/xlink" x="0px" y="0px"
	 viewBox="0 0 24 24" style="enable-background:new 0 0 24 24;" xml:space="preserve">
<style type="text/css">
	.st0{display:none;}
	.st1{display:inline;}
	.st2{fill:none;stroke:#000000;stroke-linecap:round;stroke-linejoin:round;stroke-miterlimit:10;}
</style>
<g id="Filled_Icon" class="st0">
	<path class="st1" d="M16.5,4H12c-0.6,0-1,0.4-1,1c0,0.6,0.4,1,1,1h4.5c3.2,0,5.5,2.1,5.5,5c0,2.9-2.3,5-5.5,5H3.4l3.3-3.3
		c0.4-0.4,0.4-1,0-1.4c-0.4-0.4-1-0.4-1.4,0l-5,5c-0.4,0.4-0.4,1,0,1.4l5,5C5.5,22.9,5.7,23,6,23c0.3,0,0.5-0.1,0.7-0.3
		c0.4-0.4,0.4-1,0-1.4L3.4,18h13.1c4.3,0,7.5-3,7.5-7C24,7,20.8,4,16.5,4z"/>
</g>
<g id="Outline_Icons">
	<g>
		<path class="st2" d="M12,4.5h5c3.6,0,6.5,2.9,6.5,6.5c0,3.6-2.9,6.5-6.5,6.5H0.5"/>
		<polyline class="st2" points="5.5,22.5 0.5,17.5 5.5,12.5 		"/>
	</g>
</g>
</svg>
