<?xml version="1.0" encoding="utf-8"?>
<!-- Generator: Adobe Illustrator 19.2.0, SVG Export Plug-In . SVG Version: 6.00 Build 0)  -->
<svg version="1.1" id="Layer_1" xmlns="http://www.w3.org/2000/svg" xmlns:xlink="http://www.w3.org/1999/xlink" x="0px" y="0px"
	 viewBox="0 0 24 24" style="enable-background:new 0 0 24 24;" xml:space="preserve">
<style type="text/css">
	.st0{display:none;}
	.st1{display:inline;}
	.st2{fill:none;stroke:#000000;stroke-linecap:round;stroke-linejoin:round;stroke-miterlimit:10;}
</style>
<g id="Filled_Icon" class="st0">
	<g class="st1">
		<path d="M7,5c0.6,0,1-0.4,1-1V1c0-0.6-0.4-1-1-1C6.4,0,6,0.4,6,1v3C6,4.6,6.4,5,7,5z"/>
		<path d="M4,6H1C0.4,6,0,6.4,0,7c0,0.6,0.4,1,1,1h3c0.6,0,1-0.4,1-1C5,6.4,4.6,6,4,6z"/>
		<path d="M4,16H1c-0.6,0-1,0.4-1,1c0,0.6,0.4,1,1,1h3c0.6,0,1-0.4,1-1C5,16.4,4.6,16,4,16z"/>
		<path d="M17,0c-0.6,0-1,0.4-1,1v3c0,0.6,0.4,1,1,1c0.6,0,1-0.4,1-1V1C18,0.4,17.6,0,17,0z"/>
		<path d="M7,19c-0.6,0-1,0.4-1,1v3c0,0.6,0.4,1,1,1c0.6,0,1-0.4,1-1v-3C8,19.4,7.6,19,7,19z"/>
		<path d="M17,19c-0.6,0-1,0.4-1,1v3c0,0.6,0.4,1,1,1c0.6,0,1-0.4,1-1v-3C18,19.4,17.6,19,17,19z"/>
		<path d="M20,8h3c0.6,0,1-0.4,1-1c0-0.6-0.4-1-1-1h-3c-0.6,0-1,0.4-1,1C19,7.6,19.4,8,20,8z"/>
		<path d="M23,16h-3c-0.6,0-1,0.4-1,1c0,0.6,0.4,1,1,1h3c0.6,0,1-0.4,1-1C24,16.4,23.6,16,23,16z"/>
		<path d="M17,6H7C6.4,6,6,6.4,6,7v10c0,0.6,0.4,1,1,1h10c0.6,0,1-0.4,1-1V7C18,6.4,17.6,6,17,6z M16,16H8V8h8V16z"/>
	</g>
</g>
<g id="Outline_Icons">
	<g>
		<line class="st2" x1="5.5" y1="0.5" x2="5.5" y2="3.5"/>
		<line class="st2" x1="3.5" y1="5.5" x2="0.5" y2="5.5"/>
		<line class="st2" x1="3.5" y1="18.5" x2="0.5" y2="18.5"/>
		<line class="st2" x1="18.5" y1="0.5" x2="18.5" y2="3.5"/>
		<line class="st2" x1="5.5" y1="20.5" x2="5.5" y2="23.5"/>
		<line class="st2" x1="18.5" y1="20.5" x2="18.5" y2="23.5"/>
		<line class="st2" x1="23.5" y1="5.5" x2="20.5" y2="5.5"/>
		<line class="st2" x1="23.5" y1="18.5" x2="20.5" y2="18.5"/>
		<rect x="5.5" y="5.5" class="st2" width="13" height="13"/>
	</g>
</g>
</svg>
