<?xml version="1.0" encoding="utf-8"?>
<!-- Generator: Adobe Illustrator 19.2.0, SVG Export Plug-In . SVG Version: 6.00 Build 0)  -->
<svg version="1.1" id="Layer_1" xmlns="http://www.w3.org/2000/svg" xmlns:xlink="http://www.w3.org/1999/xlink" x="0px" y="0px"
	 viewBox="0 0 24 24" style="enable-background:new 0 0 24 24;" xml:space="preserve">
<style type="text/css">
	.st0{display:none;}
	.st1{display:inline;}
	.st2{fill:none;stroke:#000000;stroke-linejoin:round;stroke-miterlimit:10;}
	.st3{fill:none;stroke:#000000;stroke-linecap:round;stroke-linejoin:round;stroke-miterlimit:10;}
</style>
<g id="Filled_Icon" class="st0">
	<g class="st1">
		<path d="M1.1,21.7C1.1,21.8,1.3,22,1.5,22c0,0,0,0,0.1,0l7.5-1c0.1,0,0.2-0.1,0.3-0.1l0.9-0.9l-1.8-1.8l-1.1,1.1
			c-0.1,0.1-0.2,0.1-0.4,0.1c-0.1,0-0.3,0-0.4-0.1c-0.2-0.2-0.2-0.5,0-0.7l1.1-1.1L6.3,16l-5.1,5.1C1,21.3,1,21.5,1.1,21.7z"/>
		<polygon points="11,19.2 12.1,18.2 8.1,14.2 7,15.2 		"/>
		<polygon points="12.8,17.5 13.8,16.5 9.8,12.5 8.8,13.5 		"/>
		<path d="M14.6,15.8l8.8-8.5c1-1,0.6-2.9-0.4-3.9c-0.6-0.6-1.5-0.9-2.3-0.9c-0.6,0-1.2,0.2-1.6,0.6l-8.7,8.7L14.6,15.8z"/>
	</g>
</g>
<g id="Outline_Icons">
	<g>
		<path class="st2" d="M23.1,7c0.8-0.8,0.4-2.4-0.4-3.2c-0.8-0.8-2.4-1.1-3.2-0.4l-18,18l7.5-1L23.1,7z"/>
		<line class="st2" x1="7" y1="15.9" x2="10.3" y2="19.2"/>
		<line class="st2" x1="8.7" y1="14.2" x2="12.1" y2="17.5"/>
		<line class="st2" x1="10.5" y1="12.5" x2="13.9" y2="15.8"/>
		<line class="st3" x1="8.5" y1="17.4" x2="7" y2="18.9"/>
	</g>
</g>
</svg>
