<?xml version="1.0" encoding="utf-8"?>
<!-- Generator: Adobe Illustrator 19.2.0, SVG Export Plug-In . SVG Version: 6.00 Build 0)  -->
<svg version="1.1" id="Layer_1" xmlns="http://www.w3.org/2000/svg" xmlns:xlink="http://www.w3.org/1999/xlink" x="0px" y="0px"
	 viewBox="0 0 24 24" style="enable-background:new 0 0 24 24;" xml:space="preserve">
<style type="text/css">
	.st0{display:none;}
	.st1{display:inline;}
	.st2{fill:none;stroke:#000000;stroke-linecap:round;stroke-linejoin:round;stroke-miterlimit:10;}
</style>
<g id="Filled_Icon" class="st0">
	<path class="st1" d="M23.5,9h-6.3l3.2-5.5c0.1-0.1,0.1-0.3,0-0.4c0-0.1-0.1-0.2-0.2-0.3l-4.3-2.5c-0.2-0.1-0.5-0.1-0.7,0.2L12,6
		L8.8,0.5C8.7,0.3,8.4,0.2,8.2,0.4L3.8,2.9C3.7,2.9,3.6,3,3.6,3.2c0,0.1,0,0.3,0,0.4L6.8,9H0.5C0.2,9,0,9.2,0,9.5v5
		C0,14.8,0.2,15,0.5,15h6.3l-3.2,5.5c-0.1,0.1-0.1,0.3,0,0.4c0,0.1,0.1,0.2,0.2,0.3l4.3,2.5c0.2,0.1,0.5,0.1,0.7-0.2L12,18l3.2,5.5
		c0.1,0.2,0.3,0.2,0.4,0.2c0.1,0,0.2,0,0.2-0.1l4.3-2.5c0.1-0.1,0.2-0.2,0.2-0.3c0-0.1,0-0.3,0-0.4L17.2,15h6.3
		c0.3,0,0.5-0.2,0.5-0.5v-5C24,9.2,23.8,9,23.5,9z"/>
</g>
<g id="Outline_Icons">
	<g>
		<polygon class="st2" points="23.5,9.5 16.3,9.5 19.9,3.3 15.6,0.8 12,7 8.4,0.8 4.1,3.3 7.7,9.5 0.5,9.5 0.5,14.5 7.7,14.5 
			4.1,20.7 8.4,23.2 12,17 15.6,23.2 19.9,20.7 16.3,14.5 23.5,14.5 		"/>
	</g>
</g>
</svg>
