<?xml version="1.0" encoding="utf-8"?>
<!-- Generator: Adobe Illustrator 19.2.0, SVG Export Plug-In . SVG Version: 6.00 Build 0)  -->
<svg version="1.1" id="Layer_1" xmlns="http://www.w3.org/2000/svg" xmlns:xlink="http://www.w3.org/1999/xlink" x="0px" y="0px"
	 viewBox="0 0 24 24" style="enable-background:new 0 0 24 24;" xml:space="preserve">
<style type="text/css">
	.st0{display:none;}
	.st1{display:inline;}
	.st2{fill:none;stroke:#000000;stroke-linecap:round;stroke-linejoin:round;stroke-miterlimit:10;}
</style>
<g id="Filled_Icon" class="st0">
	<path class="st1" d="M22.5,12h-9.1l4.2-7.5c0.3-0.5,0.1-1.1-0.4-1.4c-0.5-0.3-1.1-0.1-1.4,0.4l-4.1,7.4L7.6,3.5
		C7.4,3,6.7,2.9,6.3,3.1C5.8,3.4,5.6,4,5.9,4.5l4.2,7.5H1c-0.6,0-1,0.4-1,1c0,0.6,0.4,1,1,1h9.1l-4.2,7.5c-0.3,0.5-0.1,1.1,0.4,1.4
		C6.4,23,6.6,23,6.7,23c0.4,0,0.7-0.2,0.9-0.5l4.1-7.4l4.1,7.4c0.2,0.3,0.5,0.5,0.9,0.5c0.2,0,0.3,0,0.5-0.1
		c0.5-0.3,0.7-0.9,0.4-1.4L13.4,14h9.1c0.6,0,1-0.4,1-1C23.5,12.4,23.1,12,22.5,12z"/>
</g>
<g id="Outline_Icons">
	<g>
		<line class="st2" x1="0.5" y1="12.6" x2="23.5" y2="12.6"/>
		<line class="st2" x1="6.2" y1="22.5" x2="17.8" y2="2.6"/>
		<line class="st2" x1="17.8" y1="22.5" x2="6.2" y2="2.6"/>
	</g>
</g>
</svg>
