<?xml version="1.0" encoding="utf-8"?>
<!-- Generator: Adobe Illustrator 19.2.0, SVG Export Plug-In . SVG Version: 6.00 Build 0)  -->
<svg version="1.1" id="Layer_1" xmlns="http://www.w3.org/2000/svg" xmlns:xlink="http://www.w3.org/1999/xlink" x="0px" y="0px"
	 viewBox="0 0 24 24" enable-background="new 0 0 24 24" xml:space="preserve">
<g id="Filled_Icons" display="none">
	<g display="inline">
		<g>
			<path d="M9.079,3.662c0.853,0,1.675,0.182,2.431,0.517c0.225-0.967,0.697-1.888,1.449-2.64c0.547-0.547,1.191-0.955,1.893-1.228
				c-1.451-0.597-3.183-0.31-4.358,0.865L7.891,3.779C8.278,3.702,8.676,3.662,9.079,3.662z"/>
			<path d="M20.736,9.317c-0.735,0.736-1.647,1.224-2.637,1.454c0.334,0.755,0.516,1.576,0.516,2.426
				c0,0.404-0.04,0.802-0.118,1.189l2.602-2.605c0.756-0.755,1.172-1.76,1.172-2.828c0-0.535-0.105-1.055-0.305-1.535
				C21.693,8.122,21.286,8.77,20.736,9.317z"/>
		</g>
		<path d="M23.375,17.971c-0.182-0.205-0.499-0.226-0.706-0.043c-2.704,2.385-6.063,3.678-8.771,3.366
			c-1.697-0.194-3.105-0.991-4.197-2.354l0.989-0.988c0,0.001,0,0.001,0,0.001l4.399-4.399c0.195-0.195,0.513-0.195,0.708,0
			c0.196,0.195,0.195,0.512,0,0.707l-4.596,4.596c0.389,0.391,0.902,0.584,1.412,0.584c0.514,0,1.025-0.193,1.416-0.584l2.121-2.121
			c0.945-0.944,1.465-2.199,1.465-3.535c0-1.24-0.467-2.402-1.287-3.319c0.173,0.021,0.344,0.051,0.521,0.051
			c1.2,0,2.332-0.468,3.182-1.318c0.85-0.85,1.318-1.979,1.318-3.182c-0.002-1.202-0.469-2.332-1.318-3.183
			c-0.85-0.85-1.981-1.317-3.182-1.317c-1.203,0-2.332,0.468-3.184,1.317c-1.01,1.011-1.419,2.385-1.266,3.704
			c-0.918-0.822-2.079-1.288-3.321-1.288c-1.335,0-2.591,0.521-3.535,1.465L3.423,8.248c-0.78,0.779-0.78,2.049,0,2.828
			c0.003,0.003,0.006,0.004,0.009,0.007l4.595-4.595c0.195-0.195,0.512-0.195,0.707,0c0.195,0.195,0.195,0.512,0,0.707l-7.989,7.989
			c-0.014,0.016-0.033,0.021-0.048,0.032l-0.103,0.103c-0.377,0.377-0.585,0.879-0.585,1.414c0,0.535,0.208,1.037,0.585,1.414
			c0.756,0.754,2.073,0.756,2.829,0l3.182-3.183c0.196-0.194,0.513-0.194,0.707,0c0.195,0.195,0.195,0.513,0,0.708L4.13,18.854
			c-0.378,0.377-0.586,0.879-0.586,1.414c0,0.535,0.208,1.037,0.586,1.414c0.39,0.391,0.901,0.586,1.414,0.586
			c0.512,0,1.024-0.195,1.414-0.586L8.99,19.65c1.244,1.506,2.888,2.418,4.796,2.637c0.299,0.033,0.605,0.051,0.914,0.051
			c2.788,0,6.012-1.352,8.63-3.66C23.537,18.494,23.559,18.178,23.375,17.971z M15.081,3.661c0.944-0.945,2.59-0.945,3.536,0
			c0.472,0.472,0.732,1.1,0.732,1.768c0,0.667-0.261,1.295-0.732,1.768c-0.473,0.473-1.102,0.732-1.768,0.732
			c-0.668,0-1.297-0.26-1.768-0.732c-0.472-0.472-0.731-1.1-0.731-1.768S14.607,4.133,15.081,3.661z M7.312,12.137
			c-0.195-0.195-0.195-0.512,0-0.707l2.828-2.828c0.195-0.195,0.512-0.195,0.707,0l2.829,2.828c0.094,0.094,0.147,0.221,0.147,0.354
			c0,0.133-0.053,0.26-0.147,0.354l-2.829,2.828c-0.098,0.099-0.225,0.145-0.353,0.145c-0.128,0-0.256-0.049-0.354-0.145
			L7.312,12.137z"/>
	</g>
</g>
<g id="Outline_Icons">
	<g>
		<path fill="none" stroke="#000000" stroke-linecap="round" stroke-linejoin="round" stroke-miterlimit="10" d="M6.251,6.121
			l4.596-4.597c1.367-1.366,3.583-1.366,4.95,0"/>
		<path fill="none" stroke="#000000" stroke-linecap="round" stroke-linejoin="round" stroke-miterlimit="10" d="M20.747,6.475
			c1.366,1.366,1.366,3.583,0,4.949l-4.597,4.598"/>
		<path fill="none" stroke="#000000" stroke-linejoin="round" stroke-miterlimit="10" d="M12.262,15.666l-0.707,0.707
			c-0.586,0.586-0.586,1.536,0,2.122c0.585,0.585,1.535,0.585,2.121,0l2.122-2.122c1.757-1.757,1.757-4.605,0-6.363l-3.536-3.535
			c-1.757-1.758-4.607-1.758-6.364,0L3.776,8.596c-0.586,0.586-0.586,1.535,0,2.121c0.586,0.586,1.536,0.586,2.121,0l0.708-0.707"/>
		<path fill="none" stroke="#000000" stroke-linecap="round" stroke-linejoin="round" stroke-miterlimit="10" d="M8.726,7.889
			l-7.778,7.777c-0.585,0.586-0.585,1.536,0,2.121c0.586,0.586,1.536,0.586,2.122,0l3.182-3.182c0.391-0.392,1.024-0.392,1.415,0
			c0.391,0.391,0.391,1.022,0,1.414l-3.182,3.183c-0.586,0.585-0.586,1.536,0,2.12c0.586,0.587,1.536,0.587,2.122,0l7.778-7.777"/>
		
			<circle fill="none" stroke="#000000" stroke-linecap="round" stroke-linejoin="round" stroke-miterlimit="10" cx="16.848" cy="5.422" r="4"/>
		
			<circle fill="none" stroke="#000000" stroke-linecap="round" stroke-linejoin="round" stroke-miterlimit="10" cx="16.848" cy="5.423" r="2"/>
		
			<rect x="8.494" y="9.778" transform="matrix(0.707 -0.7072 0.7072 0.707 -5.2548 10.8712)" fill="none" stroke="#000000" stroke-linecap="round" stroke-linejoin="round" stroke-miterlimit="10" width="4" height="4"/>
		<path fill="none" stroke="#000000" stroke-linecap="round" stroke-linejoin="round" stroke-miterlimit="10" d="M9.034,18.895
			c3.474,4.857,9.875,3.01,13.966-0.599"/>
	</g>
</g>
</svg>
