<?xml version="1.0" encoding="utf-8"?>
<!-- Generator: Adobe Illustrator 19.2.0, SVG Export Plug-In . SVG Version: 6.00 Build 0)  -->
<svg version="1.1" id="Layer_1" xmlns="http://www.w3.org/2000/svg" xmlns:xlink="http://www.w3.org/1999/xlink" x="0px" y="0px"
	 viewBox="0 0 24 24" style="enable-background:new 0 0 24 24;" xml:space="preserve">
<style type="text/css">
	.st0{display:none;}
	.st1{display:inline;}
	.st2{fill:none;stroke:#000000;stroke-linecap:round;stroke-linejoin:round;stroke-miterlimit:10;}
</style>
<g id="Filled_Icons" class="st0">
	<path class="st1" d="M12,0C5.4,0,0,5.4,0,12c0,6.6,5.4,12,12,12c2.4,0,4.8-0.7,6.8-2.1c0.5-0.3,0.6-0.9,0.3-1.4
		c-0.3-0.5-0.9-0.6-1.4-0.3C16,21.4,14,22,12,22C6.5,22,2,17.5,2,12C2,6.5,6.5,2,12,2c5.5,0,10,4.5,10,10v1c0,1.3-1.1,2.3-2.3,2.3
		c-1.3,0-2.3-1.1-2.3-2.3v-1c0-2.9-2.4-5.3-5.3-5.3c-2.9,0-5.3,2.4-5.3,5.3c0,2.9,2.4,5.3,5.3,5.3c1.6,0,3.1-0.7,4.1-1.9
		c0.8,1.1,2.1,1.9,3.6,1.9c2.4,0,4.3-2,4.3-4.3v-1C24,5.4,18.6,0,12,0z M12,15.3c-1.8,0-3.3-1.5-3.3-3.3c0-1.8,1.5-3.3,3.3-3.3
		c1.8,0,3.3,1.5,3.3,3.3C15.3,13.8,13.8,15.3,12,15.3z"/>
</g>
<g id="Outline_Icons">
	<g>
		<circle class="st2" cx="12" cy="12" r="4.5"/>
		<path class="st2" d="M18.5,21.5c-1.8,1.3-4.1,2-6.5,2C5.6,23.5,0.5,18.4,0.5,12C0.5,5.6,5.6,0.5,12,0.5c6.4,0,11.5,5.1,11.5,11.5
			v1c0,1.9-1.6,3.5-3.5,3.5c-1.9,0-3.5-1.6-3.5-3.5v-1"/>
	</g>
</g>
</svg>
