<?xml version="1.0" encoding="utf-8"?>
<!-- Generator: Adobe Illustrator 19.2.0, SVG Export Plug-In . SVG Version: 6.00 Build 0)  -->
<svg version="1.1" id="Layer_1" xmlns="http://www.w3.org/2000/svg" xmlns:xlink="http://www.w3.org/1999/xlink" x="0px" y="0px"
	 viewBox="0 0 24 24" style="enable-background:new 0 0 24 24;" xml:space="preserve">
<style type="text/css">
	.st0{display:none;}
	.st1{display:inline;}
	.st2{fill:none;stroke:#000000;stroke-linecap:round;stroke-linejoin:round;stroke-miterlimit:10;}
</style>
<g id="Filled_Icons" class="st0">
	<g class="st1">
		<circle cx="12" cy="12" r="3"/>
		<path d="M12,0C5.4,0,0,5.4,0,12c0,6.6,5.4,12,12,12c6.6,0,12-5.4,12-12C24,5.4,18.6,0,12,0z M17,16c-1.1,0-1.8-0.5-1.9-1.4
			C14.3,15.4,13.2,16,12,16c-2.2,0-4-1.8-4-4c0-2.2,1.8-4,4-4c1.2,0,2.3,0.5,3,1.4V9c0-0.3,0.2-0.5,0.5-0.5C15.8,8.5,16,8.7,16,9v5
			c0,0.5,0,1,1,1c1.4,0,2.2-1.7,2.2-3.4c0-1.5-0.6-3-1.6-4.1c-1.3-1.3-3.2-2-5.6-2c-3.6,0-6.5,2.9-6.5,6.5s2.9,6.5,6.5,6.5
			c1.1,0,2.3-0.3,3.2-0.9c0.2-0.1,0.5-0.1,0.7,0.2c0.1,0.2,0.1,0.5-0.2,0.7c-1.1,0.7-2.4,1-3.8,1c-4.1,0-7.5-3.4-7.5-7.5
			c0-4.1,3.4-7.5,7.5-7.5c2.7,0,4.8,0.8,6.3,2.3c1.2,1.3,1.9,3,1.9,4.8C20.2,14.2,18.9,16,17,16z"/>
	</g>
</g>
<g id="Outline_Icons">
	<g>
		<circle class="st2" cx="12" cy="12" r="11.5"/>
		<g>
			<circle class="st2" cx="12" cy="12" r="3.5"/>
			<path class="st2" d="M15.5,18.1c-1,0.6-2.2,0.9-3.5,0.9c-3.9,0-7-3.1-7-7c0-3.9,3.1-7,7-7c9.5,0,9,10.5,5,10.5
				c-1.5,0-1.5-1-1.5-1.5V9"/>
		</g>
	</g>
</g>
</svg>
