<?xml version="1.0" encoding="utf-8"?>
<!-- Generator: Adobe Illustrator 19.2.0, SVG Export Plug-In . SVG Version: 6.00 Build 0)  -->
<svg version="1.1" id="Layer_1" xmlns="http://www.w3.org/2000/svg" xmlns:xlink="http://www.w3.org/1999/xlink" x="0px" y="0px"
	 viewBox="0 0 24 24" style="enable-background:new 0 0 24 24;" xml:space="preserve">
<style type="text/css">
	.st0{display:none;}
	.st1{display:inline;}
	.st2{fill:none;stroke:#000000;stroke-linecap:round;stroke-linejoin:round;stroke-miterlimit:10;}
	.st3{fill:none;stroke:#000000;stroke-linejoin:round;stroke-miterlimit:10;}
</style>
<g id="Filled_Icons" class="st0">
	<g class="st1">
		<path d="M12,9c-1.7,0-3,1.3-3,3c0,1.7,1.3,3,3,3c1.7,0,3-1.3,3-3C15,10.4,13.7,9,12,9z"/>
		<path d="M23,5h0.5C23.8,5,24,4.8,24,4.5v-3C24,0.7,23.3,0,22.5,0h-3C19.2,0,19,0.2,19,0.5V1c0,0.6-0.4,1-1,1c-0.6,0-1-0.4-1-1V0.5
			C17,0.2,16.8,0,16.5,0h-3C13.2,0,13,0.2,13,0.5V1c0,0.6-0.4,1-1,1c-0.6,0-1-0.4-1-1V0.5C11,0.2,10.8,0,10.5,0h-3
			C7.2,0,7,0.2,7,0.5V1c0,0.6-0.4,1-1,1C5.4,2,5,1.6,5,1V0.5C5,0.2,4.8,0,4.5,0h-3C0.7,0,0,0.7,0,1.5v3C0,4.8,0.2,5,0.5,5H1
			c0.6,0,1,0.4,1,1c0,0.6-0.4,1-1,1H0.5C0.2,7,0,7.2,0,7.5v3C0,10.8,0.2,11,0.5,11H1c0.6,0,1,0.4,1,1c0,0.6-0.4,1-1,1H0.5
			C0.2,13,0,13.2,0,13.5v3C0,16.8,0.2,17,0.5,17H1c0.6,0,1,0.4,1,1c0,0.6-0.4,1-1,1H0.5C0.2,19,0,19.2,0,19.5v3
			C0,23.3,0.7,24,1.5,24h3C4.8,24,5,23.8,5,23.5V23c0-0.6,0.4-1,1-1c0.6,0,1,0.4,1,1v0.5C7,23.8,7.2,24,7.5,24h3
			c0.3,0,0.5-0.2,0.5-0.5V23c0-0.6,0.4-1,1-1c0.6,0,1,0.4,1,1v0.5c0,0.3,0.2,0.5,0.5,0.5h3c0.3,0,0.5-0.2,0.5-0.5V23
			c0-0.6,0.4-1,1-1c0.6,0,1,0.4,1,1v0.5c0,0.3,0.2,0.5,0.5,0.5h3c0.8,0,1.5-0.7,1.5-1.5v-3c0-0.3-0.2-0.5-0.5-0.5H23
			c-0.6,0-1-0.4-1-1c0-0.6,0.4-1,1-1h0.5c0.3,0,0.5-0.2,0.5-0.5v-3c0-0.3-0.2-0.5-0.5-0.5H23c-0.6,0-1-0.4-1-1c0-0.6,0.4-1,1-1h0.5
			c0.3,0,0.5-0.2,0.5-0.5v-3C24,7.2,23.8,7,23.5,7H23c-0.6,0-1-0.4-1-1C22,5.4,22.4,5,23,5z M16.9,16c-0.6,0-1.1-0.2-1.5-0.5
			c-0.3-0.3-0.4-0.6-0.4-0.9C14.3,15.5,13.2,16,12,16c-2.2,0-4-1.8-4-4c0-2.2,1.8-4,4-4c1.2,0,2.3,0.5,3,1.4V9
			c0-0.3,0.2-0.5,0.5-0.5C15.8,8.5,16,8.7,16,9v3c0,0,0,0,0,0c0,0,0,0,0,0v2.1c0,0.2,0,0.6,0.2,0.7c0.1,0.1,0.4,0.2,0.8,0.2
			c1.4,0,2.2-1.7,2.2-3.3c0-1.5-0.6-3-1.6-4.1c-1.3-1.3-3.2-2.1-5.6-2.1c-3.6,0-6.5,2.9-6.5,6.5s2.9,6.5,6.5,6.5
			c1.2,0,2.3-0.3,3.3-0.9c0.2-0.1,0.5-0.1,0.7,0.2c0.1,0.2,0.1,0.5-0.2,0.7c-1.1,0.6-2.5,1-3.8,1c-4.2,0-7.5-3.4-7.5-7.5
			c0-4.1,3.4-7.5,7.5-7.5c2.7,0,4.9,0.8,6.3,2.4c1.2,1.3,1.9,3,1.9,4.8C20.1,14.2,18.7,16,16.9,16z"/>
	</g>
</g>
<g id="Outline_Icons">
	<g>
		<circle class="st2" cx="12" cy="12" r="3.5"/>
		<path class="st2" d="M15.4,18.1c-1,0.6-2.3,0.9-3.6,0.9c-3.9,0-7-3.1-7-7c0-3.9,3.1-7,7-7c9.5,0,9.1,10.5,5.1,10.5
			c-1.5,0-1.4-1-1.4-1.5V9"/>
		<path class="st3" d="M0.5,4.5H1c0.8,0,1.5,0.7,1.5,1.5c0,0.8-0.7,1.5-1.5,1.5H0.5v3H1c0.8,0,1.5,0.7,1.5,1.5
			c0,0.8-0.7,1.5-1.5,1.5H0.5v3H1c0.8,0,1.5,0.7,1.5,1.5c0,0.8-0.7,1.5-1.5,1.5H0.5v3c0,0.6,0.4,1,1,1c1.2,0,3,0,3,0V23
			c0-0.8,0.7-1.5,1.5-1.5c0.8,0,1.5,0.7,1.5,1.5v0.5h3V23c0-0.8,0.7-1.5,1.5-1.5c0.8,0,1.5,0.7,1.5,1.5v0.5h3V23
			c0-0.8,0.7-1.5,1.5-1.5c0.8,0,1.5,0.7,1.5,1.5v0.5h3c0.6,0,1-0.4,1-1c0-1.2,0-3,0-3H23c-0.8,0-1.5-0.7-1.5-1.5
			c0-0.8,0.7-1.5,1.5-1.5h0.5v-3H23c-0.8,0-1.5-0.7-1.5-1.5c0-0.8,0.7-1.5,1.5-1.5h0.5v-3H23c-0.8,0-1.5-0.7-1.5-1.5
			c0-0.8,0.7-1.5,1.5-1.5h0.5c0,0,0-1.8,0-3c0-0.6-0.4-1-1-1h-3V1c0,0.8-0.7,1.5-1.5,1.5c-0.8,0-1.5-0.7-1.5-1.5V0.5h-3V1
			c0,0.8-0.7,1.5-1.5,1.5c-0.8,0-1.5-0.7-1.5-1.5V0.5h-3V1c0,0.8-0.7,1.5-1.5,1.5C5.2,2.5,4.5,1.8,4.5,1V0.5h-3c-0.6,0-1,0.4-1,1
			C0.5,2.7,0.5,4.5,0.5,4.5z"/>
	</g>
</g>
</svg>
