<?xml version="1.0" encoding="utf-8"?>
<!-- Generator: Adobe Illustrator 19.2.0, SVG Export Plug-In . SVG Version: 6.00 Build 0)  -->
<svg version="1.1" id="Layer_1" xmlns="http://www.w3.org/2000/svg" xmlns:xlink="http://www.w3.org/1999/xlink" x="0px" y="0px"
	 viewBox="0 0 24 24" style="enable-background:new 0 0 24 24;" xml:space="preserve">
<style type="text/css">
	.st0{display:none;}
	.st1{display:inline;}
	.st2{fill:none;stroke:#000000;stroke-linecap:round;stroke-linejoin:round;stroke-miterlimit:10;}
</style>
<g id="Filled_Icons" class="st0">
	<g class="st1">
		<path d="M9.2,2.6C9.4,2.7,9.6,3,9.5,3.3C9.4,3.5,9.1,3.6,8.8,3.5C7.6,3,6,3.1,5,3.7C4.7,3.8,4.3,4.1,4.1,4.5
			C5.4,5.1,5.9,6.3,5.9,7c0,0.3-0.2,0.5-0.5,0.5C5.1,7.5,4.9,7.2,4.9,7c0,0-0.2-1.8-2.6-1.9C1.8,5,1.2,5.3,0.8,5.7
			C0.3,6.2,0,6.9,0,7.5c0,0,0,0,0,0c0,0.9,0.5,1.7,1.3,2.2C2,10,2.7,10.1,3.4,9.8c0.4,0.6,1,1.1,1.8,1.3c1.3,0.5,3.1,0.4,4.2-0.1
			c0.5,0.6,0.6,1,0.6,2.4c-0.4,0-0.8,0.1-1.2,0.3C8,14.2,7.5,15.1,7.5,16c0,0.9,0.5,1.7,1.3,2.2c0.4,0.2,0.8,0.3,1.2,0.3
			c-0.2,2-1.9,2.4-4.3,2.7C4,21.4,2,21.6,2,23.5C2,23.8,2.2,24,2.5,24h19c0.3,0,0.5-0.2,0.5-0.5c0-1.9-2-2.1-3.7-2.3
			c-2.4-0.3-4.1-0.6-4.3-2.7c0.4,0,0.8-0.1,1.2-0.3c0.8-0.4,1.3-1.3,1.3-2.2c0-0.9-0.5-1.8-1.3-2.2c-0.4-0.2-0.8-0.3-1.2-0.3
			c0-1.4,0.1-1.8,0.6-2.4c1,0.4,2.4,0.5,3.6,0.2c0.9-0.2,1.6-0.6,2.1-1.1c0.7,0.4,1.5,0.4,2.2,0.1C23.4,9.8,24,9,24,8
			c0-0.7-0.3-1.3-0.7-1.8c-0.4-0.4-1-0.7-1.6-0.7c-2.4,0.1-2.6,1.9-2.6,1.9c0,0.3-0.2,0.5-0.5,0.5c-0.3,0-0.5-0.2-0.5-0.5
			c0-0.7,0.5-1.9,1.9-2.5c-0.2-0.6-0.2-0.8-1-1.3C18,3.1,16.5,3,15.2,3.5c-0.3,0.1-0.5,0-0.7-0.3c-0.1-0.3,0-0.5,0.3-0.7
			c0.5-0.2,1-0.3,1.5-0.4c-1.1-1.1-2.7-1.7-4.4-1.7c-1.7,0-3.2,0.6-4.4,1.7C8.2,2.3,8.7,2.4,9.2,2.6z"/>
	</g>
</g>
<g id="Outline_Icons">
	<g>
		<g>
			<path class="st2" d="M16.9,3.7C15.9,2.1,14.1,1,12,1C9.9,1,8.1,2.1,7.1,3.7"/>
			<path class="st2" d="M9.5,10.5c1.4,0.7,3.6,0.7,5,0"/>
			<path class="st2" d="M9,4.1C6.8,3.1,3.8,4,3.5,5.8C4,6.1,4.3,6.5,4.4,7"/>
			<path class="st2" d="M3.5,5.8C2.2,5,0.5,6,0.5,7.5c0,1.6,1.8,2.5,3.1,1.7c0.7,2.1,4.5,2.2,5.9,1.3"/>
			<path class="st2" d="M19.7,7.1c0.2-0.3,0.4-0.6,0.8-0.8C20.7,4.2,17.4,3,15,4.1"/>
			<path class="st2" d="M14.5,10.5c1.2,0.8,4.6,0.8,5.7-1c1.3,1.1,3.3,0.2,3.3-1.5c0-1.5-1.7-2.5-3-1.7"/>
		</g>
		<g>
			<path class="st2" d="M13,17.7c1.3,0.8,3-0.2,3-1.7c0-1.6-1.8-2.5-3.1-1.7"/>
		</g>
		<g>
			<path class="st2" d="M11,17.7c-1.3,0.8-3-0.2-3-1.7c0-1.6,1.8-2.5,3.1-1.7"/>
		</g>
		<path class="st2" d="M9.5,10.5c1,1,1,1.5,1,3.5"/>
		<path class="st2" d="M14.5,10.5c-1,1-1,1.5-1,3.5"/>
		<path class="st2" d="M10.5,18c0,5.5-8,2.2-8,5.5H12"/>
		<path class="st2" d="M13.5,18c0,5.5,8,2.2,8,5.5H12"/>
	</g>
</g>
</svg>
