<?xml version="1.0" encoding="utf-8"?>
<!-- Generator: Adobe Illustrator 19.2.0, SVG Export Plug-In . SVG Version: 6.00 Build 0)  -->
<svg version="1.1" id="Layer_1" xmlns="http://www.w3.org/2000/svg" xmlns:xlink="http://www.w3.org/1999/xlink" x="0px" y="0px"
	 viewBox="0 0 24 24" style="enable-background:new 0 0 24 24;" xml:space="preserve">
<style type="text/css">
	.st0{display:none;}
	.st1{display:inline;}
	.st2{fill:none;stroke:#000000;stroke-linecap:round;stroke-linejoin:round;stroke-miterlimit:10;}
</style>
<g id="Filled_Icon" class="st0">
	<g class="st1">
		<path d="M9.5,21h-8C0.7,21,0,21.7,0,22.5v1C0,23.8,0.2,24,0.5,24h10c0.3,0,0.5-0.2,0.5-0.5v-1C11,21.7,10.3,21,9.5,21z"/>
		<path d="M1.5,20h8c0.3,0,0.5-0.2,0.5-0.5v-1c0-0.8-0.7-1.5-1.5-1.5h-6C1.7,17,1,17.7,1,18.5v1C1,19.8,1.2,20,1.5,20z"/>
		<path d="M6.9,7.6c-0.3-0.3-0.7-0.4-1-0.4c-0.6,0-1.2,0.4-1.5,1C4.1,8.8,4.2,9.4,4.6,9.9l4.5,4.5c0.3,0.3,0.6,0.4,1,0.4
			c0.6,0,1.2-0.4,1.5-1c0.2-0.6,0.1-1.2-0.3-1.6L6.9,7.6z"/>
		<path d="M16.1,7.4c0.3,0.3,0.6,0.4,1,0.4c0.6,0,1.2-0.4,1.5-1c0.2-0.6,0.1-1.2-0.3-1.6l-4.5-4.5c-0.3-0.3-0.7-0.4-1-0.4
			c-0.6,0-1.2,0.4-1.5,1c-0.2,0.6-0.1,1.2,0.3,1.6L16.1,7.4z"/>
		<path d="M23.7,18.3l-9.4-9.4l0.8-0.8c0.2-0.2,0.2-0.5,0-0.7l-3.5-3.5c-0.2-0.2-0.5-0.2-0.7,0L7.9,6.9c-0.2,0.2-0.2,0.5,0,0.7
			l3.5,3.5c0.1,0.1,0.2,0.1,0.4,0.1c0.1,0,0.3-0.1,0.4-0.1l0.8-0.8l9.4,9.4c0.2,0.2,0.5,0.3,0.7,0.3c0.3,0,0.5-0.1,0.7-0.3
			C24.1,19.3,24.1,18.7,23.7,18.3z"/>
	</g>
</g>
<g id="Outline_Icons">
	<g>
		<path class="st2" d="M10.5,23.5h-10v-1c0-0.6,0.4-1,1-1h8c0.6,0,1,0.4,1,1V23.5z"/>
		<path class="st2" d="M9.5,21.5h-8v-1c0-0.6,0.4-1,1-1h6c0.6,0,1,0.4,1,1V21.5z"/>
		<rect x="7.6" y="5.4" transform="matrix(0.7071 -0.7071 0.7071 0.7071 -2.2115 10.4435)" class="st2" width="7.8" height="4.9"/>
		<path class="st2" d="M7,8.9L6.5,8.4C5.6,7.5,4.1,8.9,5,9.9l4.5,4.5c0.9,0.9,2.4-0.6,1.5-1.5l-0.5-0.5"/>
		<path class="st2" d="M16,6.9l0.5,0.5c0.9,0.9,2.4-0.6,1.5-1.5l-4.5-4.5c-0.9-0.9-2.4,0.6-1.5,1.5l0.5,0.5"/>
		<line class="st2" x1="13.2" y1="9.6" x2="23.5" y2="19.9"/>
	</g>
</g>
</svg>
