<?xml version="1.0" encoding="utf-8"?>
<!-- Generator: Adobe Illustrator 19.2.0, SVG Export Plug-In . SVG Version: 6.00 Build 0)  -->
<svg version="1.1" id="Layer_1" xmlns="http://www.w3.org/2000/svg" xmlns:xlink="http://www.w3.org/1999/xlink" x="0px" y="0px"
	 viewBox="0 0 24 24" style="enable-background:new 0 0 24 24;" xml:space="preserve">
<style type="text/css">
	.st0{display:none;}
	.st1{display:inline;}
	.st2{fill:none;stroke:#000000;stroke-linecap:round;stroke-linejoin:round;stroke-miterlimit:10;}
</style>
<g id="Filled_Icon" class="st0">
	<g class="st1">
		<path d="M7.8,19.1l-3.2,3.2c-0.6,0.6-1.6,0.6-2.1,0c-0.3-0.3-0.4-0.7-0.4-1.1c0-0.4,0.2-0.8,0.4-1.1l4.2-4.2l0.7,0.7
			c0.1,0.1,0.2,0.1,0.4,0.1c0.1,0,0.3,0,0.4-0.1L9,15.8l-2.6-2.6c-0.1-0.1-0.2-0.2-0.2-0.3l-0.9,0.9c-0.2,0.2-0.2,0.5,0,0.7L6,15.2
			l-4.2,4.2c-0.5,0.5-0.7,1.1-0.7,1.8c0,0.7,0.3,1.3,0.7,1.8c0.9,0.9,2.6,0.9,3.5,0l3.2-3.2c0.4-0.4,1-0.4,1.4,0
			c0.4,0.4,0.4,1,0,1.4l-1.7,1.7c-0.2,0.2-0.2,0.5,0,0.7c0.1,0.1,0.2,0.1,0.4,0.1c0.1,0,0.3,0,0.4-0.1l1.7-1.7c0.8-0.8,0.8-2,0-2.8
			C9.9,18.3,8.6,18.3,7.8,19.1z"/>
		<path d="M15.6,9.7l-2.8-2.8c-0.6-0.6-1.6-0.6-2.1,0l-3.5,3.5c-0.3,0.3-0.4,0.7-0.4,1.1c0,0.4,0.2,0.8,0.4,1.1l2.8,2.8
			c0.3,0.3,0.7,0.4,1.1,0.4c0.4,0,0.8-0.2,1.1-0.4l3.5-3.5C16.2,11.2,16.2,10.3,15.6,9.7z"/>
		<g>
			<path d="M20.9,3.7L22,2.6c0.1-0.1,0.1-0.2,0.1-0.3l0.4-1.8c0-0.2,0-0.3-0.1-0.5C22.2,0,22.1,0,21.9,0l-1.8,0.3
				c-0.1,0-0.2,0.1-0.3,0.1l-1.1,1.1L20.9,3.7z"/>
			<path d="M15.3,3.7l-2.2,2.2c0.1,0.1,0.3,0.2,0.4,0.3L16.3,9c0.1,0.1,0.2,0.3,0.3,0.4l2.2-2.2L15.3,3.7z"/>
			<polygon points="16.1,3.1 19.4,6.4 20.2,4.4 18.1,2.2 			"/>
		</g>
	</g>
</g>
<g id="Outline_Icons">
	<g>
		<polyline class="st2" points="9.7,14.4 7.8,16.2 5.7,14.1 7.5,12.3 		"/>
		<path class="st2" d="M6.7,15.2l-4.6,4.6c-0.8,0.8-0.8,2,0,2.8c0.8,0.8,2,0.8,2.8,0l3.2-3.2c0.6-0.6,1.5-0.6,2.1,0
			c0.6,0.6,0.6,1.5,0,2.1l-1.7,1.7"/>
		<path class="st2" d="M11.7,15c-0.4,0.4-1,0.4-1.4,0l-2.8-2.8c-0.4-0.4-0.4-1,0-1.4L11,7.2c0.4-0.4,1-0.4,1.4,0l2.8,2.8
			c0.4,0.4,0.4,1,0,1.4L11.7,15z"/>
		<polygon class="st2" points="19.9,4 21.6,2.3 22,0.5 20.2,0.8 18.4,2.6 16,3.7 12.4,7.2 15.3,10 18.8,6.5 		"/>
		<line class="st2" x1="16" y1="3.7" x2="18.8" y2="6.5"/>
		<line class="st2" x1="18.8" y1="2.3" x2="20.2" y2="3.7"/>
	</g>
</g>
</svg>
