<?xml version="1.0" encoding="utf-8"?>
<!-- Generator: Adobe Illustrator 19.2.0, SVG Export Plug-In . SVG Version: 6.00 Build 0)  -->
<svg version="1.1" id="Layer_1" xmlns="http://www.w3.org/2000/svg" xmlns:xlink="http://www.w3.org/1999/xlink" x="0px" y="0px"
	 viewBox="0 0 24 24" enable-background="new 0 0 24 24" xml:space="preserve">
<g id="Filled_Icons" display="none">
	<g display="inline">
		<path d="M16.896,7.506c-0.235-1.137-0.864-1.68-1.439-2.162C14.708,4.716,14,4.122,14,2.006c0-1.103-0.897-2-2-2
			c-1.103,0-2,0.897-2,2c0,2.117-0.708,2.71-1.457,3.339C7.968,5.826,7.339,6.37,7.103,7.506H16.896z"/>
		<path d="M6,11.506h12c1.327,0,2-0.505,2-1.5c0-0.995-0.673-1.5-2-1.5H6c-1.327,0-2,0.505-2,1.5C4,11.001,4.673,11.506,6,11.506z"
			/>
		<path d="M14.5,21.006c-0.275,0-0.5-0.225-0.5-0.5c0-0.275,0.225-0.5,0.5-0.5h3.449C17.968,19.84,18,19.678,18,19.506v-1.5h-3.5
			c-0.275,0-0.5-0.225-0.5-0.5c0-0.275,0.225-0.5,0.5-0.5H18v-2h-3.5c-0.275,0-0.5-0.225-0.5-0.5c0-0.275,0.225-0.5,0.5-0.5H18v-1.5
			H6v7c0,2.48,2.019,4.5,4.5,4.5h3c1.953,0,3.603-1.258,4.225-3H14.5z"/>
	</g>
</g>
<g id="Outline_Icons">
	<g>
		<path fill="none" stroke="#000000" stroke-linejoin="round" stroke-miterlimit="10" d="M17.5,19.5c0,2.209-1.791,4-4,4h-3
			c-2.209,0-4-1.791-4-4v-8h11c0,0,0,1.344,0,3V19.5z"/>
		<path fill="none" stroke="#000000" stroke-linejoin="round" stroke-miterlimit="10" d="M13.5,2c0-0.828-0.672-1.5-1.5-1.5
			c-0.828,0-1.5,0.672-1.5,1.5c0,4.433-3,3.021-3,6.5h9C16.5,5.021,13.5,6.432,13.5,2z"/>
		<path fill="none" stroke="#000000" stroke-linejoin="round" stroke-miterlimit="10" d="M4.5,10c0,0.828,0.672,1.5,1.5,1.5h12
			c0.828,0,1.5-0.672,1.5-1.5c0-0.828-0.672-1.5-1.5-1.5H6C5.172,8.5,4.5,9.172,4.5,10z"/>
		
			<line fill="none" stroke="#000000" stroke-linecap="round" stroke-linejoin="round" stroke-miterlimit="10" x1="14.5" y1="14.5" x2="17.5" y2="14.5"/>
		
			<line fill="none" stroke="#000000" stroke-linecap="round" stroke-linejoin="round" stroke-miterlimit="10" x1="14.5" y1="17.5" x2="17.5" y2="17.5"/>
		
			<line fill="none" stroke="#000000" stroke-linecap="round" stroke-linejoin="round" stroke-miterlimit="10" x1="14.5" y1="20.5" x2="17.373" y2="20.5"/>
	</g>
</g>
</svg>
