<?xml version="1.0" encoding="utf-8"?>
<!-- Generator: Adobe Illustrator 19.2.0, SVG Export Plug-In . SVG Version: 6.00 Build 0)  -->
<svg version="1.1" id="Layer_1" xmlns="http://www.w3.org/2000/svg" xmlns:xlink="http://www.w3.org/1999/xlink" x="0px" y="0px"
	 viewBox="0 0 24 24" enable-background="new 0 0 24 24" xml:space="preserve">
<g id="Filled_Icons" display="none">
	<g display="inline">
		<path d="M20.5,20.006h-17c-1.379,0-2.5,0.896-2.5,2c0,1.104,1.121,2,2.5,2h17c1.379,0,2.5-0.896,2.5-2
			C23,20.902,21.879,20.006,20.5,20.006z"/>
		<path d="M4.5,19.006h15c1.379,0,2.5-0.896,2.5-2c0-1.104-1.121-2-2.5-2h-15c-1.379,0-2.5,0.896-2.5,2
			C2,18.109,3.121,19.006,4.5,19.006z"/>
		<path d="M5.5,14.006h13c1.379,0,2.5-0.896,2.5-2c0-1.103-1.121-2-2.5-2h-13c-1.379,0-2.5,0.897-2.5,2
			C3,13.109,4.121,14.006,5.5,14.006z"/>
		<path d="M7,9.006h11c1.379,0,2.5-0.897,2.5-2c0-1.103-1.121-2-2.5-2H7c-1.379,0-2.5,0.897-2.5,2C4.5,8.109,5.621,9.006,7,9.006z"
			/>
		<path d="M10.5,4.006h3c0.275,0,0.5-0.224,0.5-0.5v-3c0-0.276-0.225-0.5-0.5-0.5h-3c-0.276,0-0.5,0.224-0.5,0.5v3
			C10,3.782,10.224,4.006,10.5,4.006z"/>
	</g>
</g>
<g id="Outline_Icons">
	<g>
		<path fill="none" stroke="#000000" stroke-linejoin="round" stroke-miterlimit="10" d="M22.5,21.5c0,1.104-0.897,2-2,2h-17
			c-1.104,0-2-0.896-2-2c0-1.103,0.896-2,2-2h17C21.603,19.5,22.5,20.397,22.5,21.5z"/>
		<path fill="none" stroke="#000000" stroke-linejoin="round" stroke-miterlimit="10" d="M21.5,17.5c0,1.104-0.897,2-2,2h-15
			c-1.104,0-2-0.896-2-2c0-1.103,0.896-2,2-2h15C20.603,15.5,21.5,16.397,21.5,17.5z"/>
		<path fill="none" stroke="#000000" stroke-linejoin="round" stroke-miterlimit="10" d="M20.5,13.5c0,1.104-0.897,2-2,2h-13
			c-1.104,0-2-0.896-2-2c0-1.104,0.896-2,2-2h13C19.603,11.5,20.5,12.396,20.5,13.5z"/>
		<path fill="none" stroke="#000000" stroke-linejoin="round" stroke-miterlimit="10" d="M19.5,9.5c0,1.104-0.897,2-2,2h-11
			c-1.104,0-2-0.896-2-2s0.896-2,2-2h11C18.603,7.5,19.5,8.396,19.5,9.5z"/>
		<rect x="10.5" y="1.5" fill="none" stroke="#000000" stroke-linejoin="round" stroke-miterlimit="10" width="3" height="6"/>
	</g>
</g>
</svg>
