<?xml version="1.0" encoding="utf-8"?>
<!-- Generator: Adobe Illustrator 19.2.0, SVG Export Plug-In . SVG Version: 6.00 Build 0)  -->
<svg version="1.1" id="Layer_1" xmlns="http://www.w3.org/2000/svg" xmlns:xlink="http://www.w3.org/1999/xlink" x="0px" y="0px"
	 viewBox="0 0 24 24" enable-background="new 0 0 24 24" xml:space="preserve">
<g id="Filled_Icons" display="none">
	<path display="inline" d="M22.484,5.006c0.275,0,0.5-0.224,0.5-0.5c0-0.276-0.225-0.5-0.5-0.5H12v-4h-1v4H0.5
		c-0.276,0-0.5,0.224-0.5,0.5c0,0.276,0.224,0.5,0.5,0.5H4v4.551c-1.691,0.245-3,1.69-3,3.449c0,1.93,1.57,3.5,3.5,3.5
		c1.93,0,3.5-1.57,3.5-3.5c0-1.759-1.309-3.204-3-3.449V5.006h5.997l-0.005,8.43C9.309,14.13,8.02,15.548,8.02,17.997
		c0,2.032,0.885,3.558,2.558,4.409c1.317,0.67,2.781,0.742,3.352,0.742c0.189,0,0.299-0.008,0.299-0.008
		c0.217-0.015,0.399-0.168,0.451-0.379c0.053-0.209-0.037-0.431-0.222-0.545c-1.136-0.705-1.855-2.392-1.833-4.297
		c0.021-1.857,0.734-3.424,1.859-4.088c0.188-0.111,0.281-0.331,0.231-0.544c-0.049-0.212-0.231-0.368-0.448-0.386
		c0,0-0.135-0.01-0.363-0.01c-0.641,0-1.289,0.071-1.912,0.221l0.005-8.107H18v6.831l-3.44,6.435
		c-0.084,0.153-0.08,0.342,0.012,0.492c0.09,0.15,0.253,0.242,0.429,0.242h7c0.177,0,0.339-0.093,0.431-0.244
		c0.09-0.15,0.094-0.338,0.01-0.492L19,11.893V5.006H22.484z"/>
</g>
<g id="Outline_Icons">
	<g>
		
			<line fill="none" stroke="#000000" stroke-linecap="round" stroke-linejoin="round" stroke-miterlimit="10" x1="0.5" y1="4.5" x2="22.484" y2="4.5"/>
		<line fill="none" stroke="#000000" stroke-linejoin="round" stroke-miterlimit="10" x1="11.492" y1="13.77" x2="11.5" y2="0"/>
		<line fill="none" stroke="#000000" stroke-linejoin="round" stroke-miterlimit="10" x1="4.5" y1="10" x2="4.5" y2="4.5"/>
		<line fill="none" stroke="#000000" stroke-linejoin="round" stroke-miterlimit="10" x1="18.5" y1="12" x2="18.5" y2="4.5"/>
		<circle fill="none" stroke="#000000" stroke-linejoin="round" stroke-miterlimit="10" cx="4.5" cy="13" r="3"/>
		<path fill="none" stroke="#000000" stroke-linejoin="round" stroke-miterlimit="10" d="M14.193,22.637
			c0,0-5.673,0.377-5.673-4.646c0-5.022,5.71-4.596,5.71-4.596C11.404,15.063,11.454,20.934,14.193,22.637z"/>
		<polygon fill="none" stroke="#000000" stroke-linejoin="round" stroke-miterlimit="10" points="22,18.5 15,18.5 18.484,11.984 		
			"/>
	</g>
</g>
</svg>
