<?xml version="1.0" encoding="utf-8"?>
<!-- Generator: Adobe Illustrator 19.2.0, SVG Export Plug-In . SVG Version: 6.00 Build 0)  -->
<svg version="1.1" id="Layer_1" xmlns="http://www.w3.org/2000/svg" xmlns:xlink="http://www.w3.org/1999/xlink" x="0px" y="0px"
	 viewBox="0 0 24 24" enable-background="new 0 0 24 24" xml:space="preserve">
<g id="Filled_Icons" display="none">
	<g display="inline">
		<path d="M20.228,11.598c0.469-0.761,0.371-1.501,0.272-2.168c-0.15-1.023-0.307-2.081,1.353-3.742
			c0.976-0.975,0.975-2.561,0-3.535c-0.944-0.943-2.58-0.954-3.545,0.009c-1.185,1.244-2.053,1.404-2.677,1.404
			c-0.394,0-0.774-0.076-1.146-0.149c-0.358-0.07-0.73-0.145-1.103-0.145c-0.436,0-0.814,0.11-1.165,0.317L20.228,11.598z"/>
		<path d="M16.316,17.585l-2.156-2.157c-0.141,1.09-0.611,2.102-1.401,2.891c-0.944,0.945-2.199,1.465-3.534,1.465
			c-1.336,0-2.592-0.519-3.536-1.465c-0.944-0.943-1.465-2.199-1.465-3.534c-0.001-1.337,0.52-2.592,1.464-3.536
			c0.789-0.789,1.801-1.261,2.89-1.401L6.419,7.688C6.33,7.6,6.264,7.498,6.187,7.403C5.219,7.8,4.325,8.366,3.567,9.125
			c-3.118,3.119-3.118,8.195,0,11.315c1.511,1.512,3.52,2.344,5.657,2.344c2.137,0,4.146-0.832,5.656-2.344
			c0.759-0.76,1.323-1.652,1.722-2.621C16.506,17.741,16.404,17.673,16.316,17.585z"/>
		<path d="M20.56,13.346l-9.898-9.9c-0.941-0.943-2.588-0.945-3.535,0c-0.975,0.976-0.975,2.562,0,3.535l9.898,9.898
			c0.473,0.473,1.101,0.732,1.769,0.732c0.669,0,1.297-0.26,1.767-0.731c0.474-0.471,0.733-1.097,0.733-1.765
			C21.294,14.445,21.033,13.816,20.56,13.346z"/>
	</g>
</g>
<g id="Outline_Icons">
	<g>
		<path fill="none" stroke="#000000" stroke-linejoin="round" stroke-miterlimit="10" d="M20.207,16.52
			c-0.779,0.783-2.048,0.781-2.828,0l-9.9-9.898c-0.781-0.78-0.78-2.047,0-2.828c0.781-0.781,2.048-0.781,2.828,0l9.899,9.898
			C20.986,14.473,20.988,15.74,20.207,16.52z"/>
		<path fill="none" stroke="#000000" stroke-linejoin="round" stroke-miterlimit="10" d="M20.915,5.914
			c0.78-0.78,0.778-2.048-0.001-2.828c-0.781-0.781-2.046-0.781-2.828,0c-3.135,3.292-4.85,0.057-6.639,1.847l2.396,2.396
			l2.828,2.829l2.2,2.2C20.669,10.56,17.701,9.128,20.915,5.914z"/>
		<path fill="none" stroke="#000000" stroke-linejoin="round" stroke-miterlimit="10" d="M16.646,15.854
			c-0.224,1.547-0.931,3.037-2.119,4.228c-2.929,2.931-7.678,2.931-10.606,0c-2.928-2.931-2.929-7.678,0-10.607
			C5.104,8.29,6.584,7.585,8.122,7.359"/>
		<circle fill="none" stroke="#000000" stroke-linejoin="round" stroke-miterlimit="10" cx="9.223" cy="14.777" r="4.5"/>
	</g>
</g>
</svg>
