<?xml version="1.0" encoding="utf-8"?>
<!-- Generator: Adobe Illustrator 19.2.0, SVG Export Plug-In . SVG Version: 6.00 Build 0)  -->
<svg version="1.1" id="Layer_1" xmlns="http://www.w3.org/2000/svg" xmlns:xlink="http://www.w3.org/1999/xlink" x="0px" y="0px"
	 viewBox="0 0 24 24" enable-background="new 0 0 24 24" xml:space="preserve">
<g id="Filled_Icons" display="none">
	<g display="inline">
		<path d="M10,8.14V0.506c0-0.276-0.224-0.5-0.5-0.5c-1.563,0-3.08,0.425-4.428,1.151L10,8.14z"/>
		<path d="M0.658,5.92C0.242,6.898,0,7.939,0,9.006h8.618L0.658,5.92z"/>
		<path d="M23.5,3.006H20c-0.232,0-0.434,0.159-0.486,0.386l-1.557,6.614H0v0.5c0,0.049,0.015,0.093,0.027,0.138
			c0.004,0.013,0,0.025,0.005,0.038L0.039,10.7c0,0,0,0,0,0.001l2.993,7.98c0.073,0.194,0.26,0.323,0.468,0.323h12.339l-0.235,1H5
			c-1.103,0-2,0.897-2,2c0,1.102,0.897,2,2,2s2-0.898,2-2c0-0.366-0.105-0.705-0.278-1h7.557c-0.174,0.295-0.278,0.634-0.278,1
			c0,1.102,0.897,2,2,2c1.102,0,2-0.898,2-2c0-0.89-0.589-1.637-1.394-1.896l3.789-16.104H23.5c0.275,0,0.5-0.224,0.5-0.5
			C24,3.229,23.775,3.006,23.5,3.006z"/>
		<path d="M8.638,7.941L4.217,1.679c-1.29,0.868-2.37,2.024-3.115,3.342L8.638,7.941z"/>
	</g>
</g>
<g id="Outline_Icons">
	<g>
		
			<circle fill="none" stroke="#000000" stroke-linecap="round" stroke-linejoin="round" stroke-miterlimit="10" cx="5" cy="22" r="1.5"/>
		
			<circle fill="none" stroke="#000000" stroke-linecap="round" stroke-linejoin="round" stroke-miterlimit="10" cx="16" cy="22" r="1.5"/>
		<polyline fill="none" stroke="#000000" stroke-linecap="round" stroke-linejoin="round" stroke-miterlimit="10" points="23.5,3.5 
			20,3.5 16,20.5 5,20.5 		"/>
		<polyline fill="none" stroke="#000000" stroke-linecap="round" stroke-linejoin="round" stroke-miterlimit="10" points="
			16.471,18.5 3.5,18.5 0.5,10.5 18.333,10.5 		"/>
		<path fill="none" stroke="#000000" stroke-linecap="round" stroke-linejoin="round" stroke-miterlimit="10" d="M9.5,10.5v-10
			c-4.5,0-9,3.806-9,8.5v1.5H9.5z"/>
		
			<line fill="none" stroke="#000000" stroke-linecap="round" stroke-linejoin="round" stroke-miterlimit="10" x1="9.5" y1="10.5" x2="4.921" y2="1.802"/>
		
			<line fill="none" stroke="#000000" stroke-linecap="round" stroke-linejoin="round" stroke-miterlimit="10" x1="9.5" y1="10.5" x2="1.301" y2="5.637"/>
	</g>
</g>
</svg>
