<?xml version="1.0" encoding="utf-8"?>
<!-- Generator: Adobe Illustrator 19.2.0, SVG Export Plug-In . SVG Version: 6.00 Build 0)  -->
<svg version="1.1" id="Layer_1" xmlns="http://www.w3.org/2000/svg" xmlns:xlink="http://www.w3.org/1999/xlink" x="0px" y="0px"
	 viewBox="0 0 24 24" enable-background="new 0 0 24 24" xml:space="preserve">
<g id="Filled_Icons" display="none">
	<g display="inline">
		<circle cx="10.5" cy="17.506" r="0.5"/>
		<circle cx="13.5" cy="17.506" r="0.5"/>
		<path d="M15.15,0.426c-1.203-0.382-2.467,0.432-2.6,1.603c-0.084,0.742,0.326,1.725,1.754,2.049
			c1.995,0.455,2.75,2.025,2.607,3.291C16.75,8.815,15.366,10.506,12,10.506c-3.366,0-4.75-1.69-4.913-3.138
			C6.944,6.103,7.699,4.532,9.694,4.077c1.428-0.324,1.838-1.307,1.754-2.049c-0.107-0.958-0.96-1.708-1.94-1.708
			c-0.218,0-0.44,0.036-0.638,0.1C3.647,1.825,0,6.59,0,12.006c0,6.617,5.383,12,12,12c6.617,0,12-5.383,12-12
			C24,6.59,20.353,1.825,15.15,0.426z M16.5,18.006c0,1.93-2.02,3.5-4.5,3.5c-2.481,0-4.5-1.57-4.5-3.5
			c0-0.467,0.124-0.93,0.361-1.361C7.334,16.277,7,15.67,7,15.006c0-1.104,0.897-2,2-2c0.965,0,1.771,0.688,1.959,1.596
			c0.343-0.062,0.691-0.096,1.041-0.096c0.35,0,0.697,0.032,1.041,0.096c0.187-0.908,0.994-1.596,1.959-1.596c1.103,0,2,0.896,2,2
			c0,0.664-0.334,1.271-0.861,1.639C16.376,17.076,16.5,17.539,16.5,18.006z"/>
	</g>
</g>
<g id="Outline_Icons">
	<g>
		<path fill="none" stroke="#000000" stroke-linejoin="round" stroke-miterlimit="10" d="M15,0.896
			c-1.833-0.584-3.022,2.133-0.583,2.688C18.873,4.6,18.646,11,12,11c-6.646,0-6.873-6.4-2.417-7.416
			C12.022,3.029,10.833,0.313,9,0.896C4.104,2.215,0.5,6.688,0.5,12c0,6.352,5.148,11.5,11.5,11.5c6.352,0,11.5-5.148,11.5-11.5
			C23.5,6.688,19.896,2.215,15,0.896z"/>
		<g>
			<path d="M10.5,17c-0.276,0-0.5,0.225-0.5,0.5c0,0.277,0.224,0.5,0.5,0.5c0.276,0,0.5-0.223,0.5-0.5C11,17.225,10.776,17,10.5,17
				L10.5,17z"/>
		</g>
		<g>
			<path d="M13.5,17c-0.275,0-0.5,0.225-0.5,0.5c0,0.277,0.225,0.5,0.5,0.5c0.275,0,0.5-0.223,0.5-0.5C14,17.225,13.775,17,13.5,17
				L13.5,17z"/>
		</g>
		<g>
			<path fill="none" stroke="#000000" stroke-linejoin="round" stroke-miterlimit="10" d="M12,15c-0.54,0-1.053,0.084-1.523,0.229
				C10.488,15.154,10.5,15.078,10.5,15c0-0.828-0.672-1.5-1.5-1.5c-0.828,0-1.5,0.672-1.5,1.5c0,0.69,0.467,1.264,1.099,1.44
				C8.227,16.895,8,17.426,8,18c0,1.658,1.791,3,4,3"/>
		</g>
		<g>
			<path fill="none" stroke="#000000" stroke-linejoin="round" stroke-miterlimit="10" d="M12,15c0.54,0,1.053,0.084,1.523,0.229
				C13.512,15.154,13.5,15.078,13.5,15c0-0.828,0.672-1.5,1.5-1.5c0.828,0,1.5,0.672,1.5,1.5c0,0.69-0.467,1.264-1.1,1.44
				C15.773,16.895,16,17.426,16,18c0,1.658-1.791,3-4,3"/>
		</g>
	</g>
</g>
</svg>
