<?xml version="1.0" encoding="utf-8"?>
<!-- Generator: Adobe Illustrator 19.2.0, SVG Export Plug-In . SVG Version: 6.00 Build 0)  -->
<svg version="1.1" id="Layer_1" xmlns="http://www.w3.org/2000/svg" xmlns:xlink="http://www.w3.org/1999/xlink" x="0px" y="0px"
	 viewBox="0 0 24 24" enable-background="new 0 0 24 24" xml:space="preserve">
<g id="Filled_Icons" display="none">
	<g display="inline">
		<path d="M23,6.506c-0.553,0-1,0.447-1,1v3H2v-3c0-0.553-0.447-1-1-1c-0.553,0-1,0.447-1,1v15.5c0,0.553,0.447,1,1,1
			c0.553,0,1-0.447,1-1v-2.5h20v2.5c0,0.553,0.447,1,1,1c0.553,0,1-0.447,1-1v-15.5C24,6.953,23.553,6.506,23,6.506z M10.5,12.506h3
			v6h-3V12.506z M8.5,18.506H6v-6h2.5V18.506z M15.5,12.506H18v6h-2.5V12.506z M2,12.506h2v6H2V12.506z M20,18.506v-6h2v6H20z"/>
		<path d="M10.5,7.006c0,0.827,0.673,1.5,1.5,1.5c0.827,0,1.5-0.673,1.5-1.5c0-0.441-0.195-0.835-0.5-1.109V4.006h2v1.592
			c-0.581,0.207-1,0.757-1,1.408c0,0.827,0.673,1.5,1.5,1.5c0.827,0,1.5-0.673,1.5-1.5c0-0.651-0.419-1.201-1-1.408V4.006h2v1.891
			c-0.305,0.274-0.5,0.668-0.5,1.109c0,0.827,0.673,1.5,1.5,1.5c0.827,0,1.5-0.673,1.5-1.5c0-0.827-0.673-1.5-1.5-1.5v-1.5h1
			c0.275,0,0.5-0.224,0.5-0.5c0-0.276-0.225-0.5-0.5-0.5h-4v-2.5c0-0.276-0.225-0.5-0.5-0.5c-0.275,0-0.5,0.223-0.5,0.5v2.5h-4
			c-0.276,0-0.5,0.224-0.5,0.5c0,0.276,0.224,0.5,0.5,0.5h1v1.5C11.173,5.506,10.5,6.179,10.5,7.006z"/>
	</g>
</g>
<g id="Outline_Icons">
	<g>
		
			<line fill="none" stroke="#000000" stroke-linecap="round" stroke-linejoin="round" stroke-miterlimit="10" x1="0.5" y1="7" x2="0.5" y2="23.5"/>
		
			<line fill="none" stroke="#000000" stroke-linecap="round" stroke-linejoin="round" stroke-miterlimit="10" x1="23.5" y1="7" x2="23.5" y2="23.5"/>
		
			<line fill="none" stroke="#000000" stroke-linecap="round" stroke-linejoin="round" stroke-miterlimit="10" x1="0.5" y1="11.5" x2="23.5" y2="11.5"/>
		
			<line fill="none" stroke="#000000" stroke-linecap="round" stroke-linejoin="round" stroke-miterlimit="10" x1="0.5" y1="19.5" x2="23.5" y2="19.5"/>
		
			<line fill="none" stroke="#000000" stroke-linecap="round" stroke-linejoin="round" stroke-miterlimit="10" x1="4.5" y1="11.5" x2="4.5" y2="19.5"/>
		
			<line fill="none" stroke="#000000" stroke-linecap="round" stroke-linejoin="round" stroke-miterlimit="10" x1="9.5" y1="11.5" x2="9.5" y2="19.5"/>
		
			<line fill="none" stroke="#000000" stroke-linecap="round" stroke-linejoin="round" stroke-miterlimit="10" x1="14.5" y1="11.5" x2="14.5" y2="19.5"/>
		
			<line fill="none" stroke="#000000" stroke-linecap="round" stroke-linejoin="round" stroke-miterlimit="10" x1="19.5" y1="11.5" x2="19.5" y2="19.5"/>
		
			<line fill="none" stroke="#000000" stroke-linecap="round" stroke-linejoin="round" stroke-miterlimit="10" x1="15.5" y1="3.5" x2="15.5" y2="6"/>
		
			<line fill="none" stroke="#000000" stroke-linecap="round" stroke-linejoin="round" stroke-miterlimit="10" x1="11" y1="3.5" x2="20" y2="3.5"/>
		
			<circle fill="none" stroke="#000000" stroke-linecap="round" stroke-linejoin="round" stroke-miterlimit="10" cx="15.5" cy="7" r="1"/>
		
			<circle fill="none" stroke="#000000" stroke-linecap="round" stroke-linejoin="round" stroke-miterlimit="10" cx="12" cy="7" r="1"/>
		
			<circle fill="none" stroke="#000000" stroke-linecap="round" stroke-linejoin="round" stroke-miterlimit="10" cx="19" cy="7" r="1"/>
		
			<line fill="none" stroke="#000000" stroke-linecap="round" stroke-linejoin="round" stroke-miterlimit="10" x1="18.5" y1="3.5" x2="18.5" y2="6.136"/>
		
			<line fill="none" stroke="#000000" stroke-linecap="round" stroke-linejoin="round" stroke-miterlimit="10" x1="12.5" y1="3.5" x2="12.5" y2="6.136"/>
		
			<line fill="none" stroke="#000000" stroke-linecap="round" stroke-linejoin="round" stroke-miterlimit="10" x1="15.5" y1="0.5" x2="15.5" y2="4"/>
	</g>
</g>
</svg>
