<?xml version="1.0" encoding="utf-8"?>
<!-- Generator: Adobe Illustrator 19.2.0, SVG Export Plug-In . SVG Version: 6.00 Build 0)  -->
<svg version="1.1" id="Layer_1" xmlns="http://www.w3.org/2000/svg" xmlns:xlink="http://www.w3.org/1999/xlink" x="0px" y="0px"
	 viewBox="0 0 24 24" enable-background="new 0 0 24 24" xml:space="preserve">
<g id="Filled_Icons" display="none">
	<g display="inline">
		<g>
			<path d="M12,10.506c-0.563,0-1.005-0.434-1.005-0.987c0-0.559,0.451-1.013,1.005-1.013c0.555,0,1.005,0.454,1.005,1.013
				C13.005,10.072,12.562,10.506,12,10.506z"/>
		</g>
		<g>
			<path d="M11,7.031c-0.276,0-0.5-0.224-0.5-0.5c0-0.29-0.225-0.525-0.5-0.525c-0.275,0-0.5,0.235-0.5,0.525
				c0,0.276-0.224,0.5-0.5,0.5c-0.276,0-0.5-0.224-0.5-0.5c0-0.841,0.673-1.525,1.5-1.525c0.827,0,1.5,0.685,1.5,1.525
				C11.5,6.808,11.276,7.031,11,7.031z"/>
		</g>
		<g>
			<path d="M15,7.031c-0.275,0-0.5-0.224-0.5-0.5c0-0.29-0.225-0.525-0.5-0.525c-0.275,0-0.5,0.235-0.5,0.525
				c0,0.276-0.225,0.5-0.5,0.5c-0.275,0-0.5-0.224-0.5-0.5c0-0.841,0.673-1.525,1.5-1.525c0.827,0,1.5,0.685,1.5,1.525
				C15.5,6.808,15.275,7.031,15,7.031z"/>
		</g>
		<g>
			<path d="M5.192,14.236l3.981,1.361l9.886-4.246l0.289-3.332c0.18-2.055-0.519-4.104-1.91-5.623
				C16.045,0.878,14.062,0.006,12,0.006c-2.062,0-4.043,0.872-5.437,2.392C5.17,3.915,4.474,5.965,4.651,8.021L5.192,14.236z
				 M12.042,2.006c3.032,0,5.5,2.524,5.5,5.627c0,3.063-2.364,5.373-5.5,5.373c-3.136,0-5.5-2.31-5.5-5.373
				C6.542,4.53,9.01,2.006,12.042,2.006z"/>
			<path d="M18.379,18.745c0.042-0.222,0.076-0.446,0.096-0.677l0.486-5.586l-8.377,3.598L18.379,18.745z"/>
			<path d="M5.287,15.325l0.238,2.743c0.294,3.386,3.078,5.938,6.475,5.938c2.818,0,5.212-1.762,6.113-4.295L5.287,15.325z"/>
		</g>
	</g>
</g>
<g id="Outline_Icons">
	<g>
		<path fill="none" stroke="#000000" stroke-linejoin="round" stroke-miterlimit="10" d="M5.149,7.972
			C4.983,6.052,5.628,4.15,6.931,2.73C8.234,1.309,10.073,0.5,12,0.5c1.928,0,3.768,0.809,5.068,2.229
			c1.303,1.42,1.949,3.322,1.781,5.242L17.977,18.02C17.707,21.12,15.111,23.5,12,23.5c-3.111,0-5.707-2.38-5.977-5.478L5.149,7.972
			z"/>
		<path fill="none" stroke="#000000" stroke-linejoin="round" stroke-miterlimit="10" d="M17.042,7.627c0,2.831-2.237,4.873-5,4.873
			c-2.762,0-5-2.042-5-4.873c0-2.831,2.238-5.127,5-5.127C14.805,2.5,17.042,4.796,17.042,7.627z"/>
		<path fill="none" stroke="#000000" stroke-linejoin="round" stroke-miterlimit="10" d="M12.505,9.513
			C12.505,9.796,12.279,10,12,10c-0.278,0-0.505-0.204-0.505-0.487C11.495,9.23,11.722,9,12,9C12.279,9,12.505,9.229,12.505,9.513z"
			/>
		<path fill="none" stroke="#000000" stroke-linecap="round" stroke-linejoin="round" stroke-miterlimit="10" d="M9,6.525
			C9,5.959,9.448,5.5,10,5.5c0.553,0,1,0.459,1,1.025"/>
		<path fill="none" stroke="#000000" stroke-linecap="round" stroke-linejoin="round" stroke-miterlimit="10" d="M13,6.525
			C13,5.959,13.447,5.5,14,5.5c0.553,0,1,0.459,1,1.025"/>
		
			<line fill="none" stroke="#000000" stroke-linecap="round" stroke-linejoin="round" stroke-miterlimit="10" x1="5.758" y1="14.961" x2="17.79" y2="19.072"/>
		
			<line fill="none" stroke="#000000" stroke-linecap="round" stroke-linejoin="round" stroke-miterlimit="10" x1="9.179" y1="16.134" x2="18.5" y2="12.125"/>
	</g>
</g>
</svg>
