<?xml version="1.0" encoding="utf-8"?>
<!-- Generator: Adobe Illustrator 19.2.0, SVG Export Plug-In . SVG Version: 6.00 Build 0)  -->
<svg version="1.1" id="Layer_1" xmlns="http://www.w3.org/2000/svg" xmlns:xlink="http://www.w3.org/1999/xlink" x="0px" y="0px"
	 viewBox="0 0 24 24" enable-background="new 0 0 24 24" xml:space="preserve">
<g id="Filled_Icons" display="none">
	<g display="inline">
		<g>
			<polygon points="0,14.006 4.072,14.006 4.637,9.832 0,4.532 			"/>
			<path d="M6.51,17.488c-0.004,0.004-0.377,0.168-0.823,0.168c-1.235,0-1.604-1.344-1.671-2.65H0v2
				c0,2.211,1.262,3.531,3.375,3.531c2.629,0,3.748-2.281,3.795-2.378c0.09-0.189,0.052-0.415-0.096-0.566
				C6.926,17.443,6.7,17.4,6.51,17.488z"/>
		</g>
		<path d="M8,7.506c0-0.828,0.671-1.5,1.5-1.5h0.489L3.52,0.57C2.662-0.146,1.421-0.089,0.633,0.7
			c-0.79,0.788-0.847,2.029-0.124,2.896L8,12.158V7.506z"/>
		<path d="M21.5,12.006H18v-2.5c0-1.379-1.122-2.5-2.5-2.5h-6c-0.276,0-0.5,0.224-0.5,0.5v10c0,0.275,0.224,0.5,0.5,0.5h12
			c0.275,0,0.5-0.225,0.5-0.5v-5C22,12.229,21.775,12.006,21.5,12.006z M14.5,12.006c0,0.276-0.225,0.5-0.5,0.5h-2.5
			c-0.276,0-0.5-0.224-0.5-0.5v-2.5c0-0.276,0.224-0.5,0.5-0.5H14c0.275,0,0.5,0.224,0.5,0.5V12.006z"/>
		<path d="M21.5,19.006h-11c-1.378,0-2.5,1.121-2.5,2.5c0,1.379,1.122,2.5,2.5,2.5h11c1.378,0,2.5-1.121,2.5-2.5
			C24,20.127,22.878,19.006,21.5,19.006z M11.5,23.006c-0.827,0-1.5-0.673-1.5-1.5c0-0.826,0.673-1.5,1.5-1.5
			c0.827,0,1.5,0.674,1.5,1.5C13,22.333,12.327,23.006,11.5,23.006z M16,23.006c-0.827,0-1.5-0.673-1.5-1.5
			c0-0.826,0.673-1.5,1.5-1.5c0.827,0,1.5,0.674,1.5,1.5C17.5,22.333,16.827,23.006,16,23.006z M20.5,23.006
			c-0.827,0-1.5-0.673-1.5-1.5c0-0.826,0.673-1.5,1.5-1.5c0.827,0,1.5,0.674,1.5,1.5C22,22.333,21.327,23.006,20.5,23.006z"/>
	</g>
</g>
<g id="Outline_Icons">
	<g>
		<path fill="none" stroke="#000000" stroke-linejoin="round" stroke-miterlimit="10" d="M9.5,17.5v-10h6c1.103,0,2,0.896,2,2v3h4v5
			H9.5z"/>
		<polyline fill="none" stroke="#000000" stroke-linejoin="round" stroke-miterlimit="10" points="0.5,2 0.5,14.5 3.5,14.5 
			4.458,7.416 		"/>
		<path fill="none" stroke="#000000" stroke-linejoin="round" stroke-miterlimit="10" d="M10.852,7.378L3.2,0.948
			c-0.652-0.544-1.612-0.501-2.213,0.1c-0.602,0.6-0.645,1.56-0.101,2.213l8.55,9.772"/>
		<path fill="none" stroke="#000000" stroke-linejoin="round" stroke-miterlimit="10" d="M0.5,14.5c0,0,0,1.188,0,2.5
			c0,1.313,0.531,3.031,2.875,3.031c2.344,0,3.344-2.094,3.344-2.094S3.5,19.438,3.5,14.5C0.781,14.5,0.5,14.5,0.5,14.5z"/>
		<path fill="none" stroke="#000000" stroke-linejoin="round" stroke-miterlimit="10" d="M23.5,21.5c0,1.104-0.897,2-2,2h-11
			c-1.104,0-2-0.896-2-2c0-1.103,0.896-2,2-2h11C22.603,19.5,23.5,20.397,23.5,21.5z"/>
		<polyline fill="none" stroke="#000000" stroke-linecap="round" stroke-linejoin="round" stroke-miterlimit="10" points="11.5,12 
			11.5,9.5 14,9.5 		"/>
		<circle fill="none" stroke="#000000" stroke-linejoin="round" stroke-miterlimit="10" cx="11.5" cy="21.5" r="1"/>
		<circle fill="none" stroke="#000000" stroke-linejoin="round" stroke-miterlimit="10" cx="16" cy="21.5" r="1"/>
		<circle fill="none" stroke="#000000" stroke-linejoin="round" stroke-miterlimit="10" cx="20.5" cy="21.5" r="1"/>
	</g>
</g>
</svg>
