<?xml version="1.0" encoding="utf-8"?>
<!-- Generator: Adobe Illustrator 19.2.0, SVG Export Plug-In . SVG Version: 6.00 Build 0)  -->
<svg version="1.1" id="Layer_1" xmlns="http://www.w3.org/2000/svg" xmlns:xlink="http://www.w3.org/1999/xlink" x="0px" y="0px"
	 viewBox="0 0 24 24" style="enable-background:new 0 0 24 24;" xml:space="preserve">
<style type="text/css">
	.st0{display:none;}
	.st1{display:inline;}
	.st2{fill:none;stroke:#000000;stroke-linecap:round;stroke-linejoin:round;stroke-miterlimit:10;}
	.st3{fill:none;stroke:#000000;stroke-linejoin:round;stroke-miterlimit:10;}
</style>
<g id="Filled_Icon" class="st0">
	<g class="st1">
		<path d="M16.5,3C16.2,3,16,3.2,16,3.5C16,3.8,16.2,4,16.5,4C17.3,4,18,4.7,18,5.5v16c0,0.8-0.7,1.5-1.5,1.5h-10
			C5.7,23,5,22.3,5,21.5v-16C5,4.7,5.7,4,6.5,4C6.8,4,7,3.8,7,3.5C7,3.2,6.8,3,6.5,3C5.1,3,4,4.1,4,5.5v16C4,22.9,5.1,24,6.5,24h10
			c1.4,0,2.5-1.1,2.5-2.5v-16C19,4.1,17.9,3,16.5,3z"/>
		<circle cx="11.5" cy="5.5" r="1.5"/>
		<path d="M11.5,3C11.8,3,12,2.8,12,2.5v-2C12,0.2,11.8,0,11.5,0C11.2,0,11,0.2,11,0.5v2C11,2.8,11.2,3,11.5,3z"/>
		<path d="M9,3.8c0.1,0.1,0.2,0.1,0.4,0.1c0.1,0,0.3,0,0.4-0.1c0.2-0.2,0.2-0.5,0-0.7L8.3,1.6c-0.2-0.2-0.5-0.2-0.7,0
			c-0.2,0.2-0.2,0.5,0,0.7L9,3.8z"/>
		<path d="M13.6,3.9c0.1,0,0.3,0,0.4-0.1l1.4-1.4c0.2-0.2,0.2-0.5,0-0.7c-0.2-0.2-0.5-0.2-0.7,0l-1.4,1.4c-0.2,0.2-0.2,0.5,0,0.7
			C13.4,3.9,13.5,3.9,13.6,3.9z"/>
		<path d="M17,5.5C17,5.2,16.8,5,16.5,5h-2C14.2,5,14,5.2,14,5.5C14,5.8,14.2,6,14.5,6h2C16.8,6,17,5.8,17,5.5z"/>
		<path d="M9,5.5C9,5.2,8.8,5,8.5,5h-2C6.2,5,6,5.2,6,5.5C6,5.8,6.2,6,6.5,6h2C8.8,6,9,5.8,9,5.5z"/>
		<path d="M9,22h5c0.3,0,0.5-0.2,0.5-0.5c0-0.3-0.2-0.5-0.5-0.5H9c-0.3,0-0.5,0.2-0.5,0.5C8.5,21.8,8.7,22,9,22z"/>
	</g>
</g>
<g id="Outline_Icons">
	<g>
		<path class="st2" d="M16.5,3.5c1.1,0,2,0.9,2,2v16c0,1.1-0.9,2-2,2h-10c-1.1,0-2-0.9-2-2v-16c0-1.1,0.9-2,2-2"/>
		<circle class="st3" cx="11.5" cy="5.5" r="1"/>
		<line class="st2" x1="11.5" y1="2.5" x2="11.5" y2="0.5"/>
		<line class="st2" x1="9.4" y1="3.4" x2="7.9" y2="2"/>
		<line class="st2" x1="13.6" y1="3.4" x2="15.1" y2="2"/>
		<line class="st2" x1="14.5" y1="5.5" x2="16.5" y2="5.5"/>
		<line class="st2" x1="6.5" y1="5.5" x2="8.5" y2="5.5"/>
		<line class="st2" x1="9" y1="21.5" x2="14" y2="21.5"/>
	</g>
</g>
</svg>
