<?xml version="1.0" encoding="utf-8"?>
<!-- Generator: Adobe Illustrator 19.2.0, SVG Export Plug-In . SVG Version: 6.00 Build 0)  -->
<svg version="1.1" id="Layer_1" xmlns="http://www.w3.org/2000/svg" xmlns:xlink="http://www.w3.org/1999/xlink" x="0px" y="0px"
	 viewBox="0 0 24 24" enable-background="new 0 0 24 24" xml:space="preserve">
<g id="Filled_Icons" display="none">
	<g display="inline">
		<path d="M15,17.006H9c-0.552,0-1,0.449-1,1v1h8v-1C16,17.456,15.551,17.006,15,17.006z"/>
		<path d="M18.5,10.506H17v-0.5h1.5c0.827,0,1.5-0.673,1.5-1.5v-5c0-1.929-1.57-3.5-3.5-3.5h-9c-1.93,0-3.5,1.571-3.5,3.5v5
			c0,0.827,0.673,1.5,1.5,1.5H7v0.5H5.5c-0.276,0-0.5,0.223-0.5,0.5v8.5v4c0,0.275,0.224,0.5,0.5,0.5H7v-6c0-1.104,0.896-2,2-2h6
			c1.103,0,2,0.896,2,2v6h1.5c0.275,0,0.5-0.225,0.5-0.5v-4v-8.5C19,10.729,18.775,10.506,18.5,10.506z M9,12.006H8v-4h1V12.006z
			 M14,10.506h-4v-0.5h4V10.506z M16,12.006h-1v-4h1V12.006z"/>
		<rect x="8" y="20.006" width="8" height="4"/>
		<path d="M4,16.006H2.5c-1.104,0-2,0.896-2,2v1h4v-2.5C4.5,16.229,4.276,16.006,4,16.006z"/>
		<path d="M0.5,22.506c0,0.827,0.672,1.5,1.5,1.5h2c0.276,0,0.5-0.225,0.5-0.5v-3.5h-4V22.506z"/>
		<path d="M19.5,23.506c0,0.275,0.225,0.5,0.5,0.5h2c0.827,0,1.5-0.673,1.5-1.5v-2.5h-4V23.506z"/>
		<path d="M21.5,16.006H20c-0.275,0-0.5,0.223-0.5,0.5v2.5h4v-1C23.5,16.902,22.603,16.006,21.5,16.006z"/>
	</g>
</g>
<g id="Outline_Icons">
	<g>
		<path fill="none" stroke="#000000" stroke-linecap="round" stroke-linejoin="round" stroke-miterlimit="10" d="M5.5,23.5h-2
			c-0.553,0-1-0.447-1-1V18c0-0.829,0.671-1.5,1.5-1.5h1.5V23.5z"/>
		<path fill="none" stroke="#000000" stroke-linecap="round" stroke-linejoin="round" stroke-miterlimit="10" d="M18.5,23.5h2
			c0.553,0,1-0.447,1-1V18c0-0.829-0.671-1.5-1.5-1.5h-1.5V23.5z"/>
		<path fill="none" stroke="#000000" stroke-linecap="round" stroke-linejoin="round" stroke-miterlimit="10" d="M16.5,23.5h-9V18
			c0-0.829,0.671-1.5,1.5-1.5h6c0.827,0,1.5,0.671,1.5,1.5V23.5z"/>
		<polyline fill="none" stroke="#000000" stroke-linecap="round" stroke-linejoin="round" stroke-miterlimit="10" points="
			18.5,10.5 18.5,23.5 5.5,23.5 5.5,10.5 		"/>
		
			<line fill="none" stroke="#000000" stroke-linecap="round" stroke-linejoin="round" stroke-miterlimit="10" x1="9.5" y1="10.5" x2="14.5" y2="10.5"/>
		
			<rect x="7.5" y="7.5" fill="none" stroke="#000000" stroke-linecap="round" stroke-linejoin="round" stroke-miterlimit="10" width="2" height="5"/>
		
			<rect x="14.5" y="7.5" fill="none" stroke="#000000" stroke-linecap="round" stroke-linejoin="round" stroke-miterlimit="10" width="2" height="5"/>
		
			<line fill="none" stroke="#000000" stroke-linecap="round" stroke-linejoin="round" stroke-miterlimit="10" x1="7.5" y1="19.5" x2="16.5" y2="19.5"/>
		
			<line fill="none" stroke="#000000" stroke-linecap="round" stroke-linejoin="round" stroke-miterlimit="10" x1="2.5" y1="19.5" x2="5.5" y2="19.5"/>
		
			<line fill="none" stroke="#000000" stroke-linecap="round" stroke-linejoin="round" stroke-miterlimit="10" x1="18.5" y1="19.5" x2="21.5" y2="19.5"/>
		<path fill="none" stroke="#000000" stroke-linecap="round" stroke-linejoin="round" stroke-miterlimit="10" d="M7.5,10.5h-2
			c-0.552,0-1-0.448-1-1v-6c0-1.657,1.344-3,3-3h9c1.657,0,3,1.343,3,3v6c0,0.552-0.447,1-1,1h-2"/>
	</g>
</g>
</svg>
