<?xml version="1.0" encoding="utf-8"?>
<!-- Generator: Adobe Illustrator 19.2.0, SVG Export Plug-In . SVG Version: 6.00 Build 0)  -->
<svg version="1.1" id="Layer_1" xmlns="http://www.w3.org/2000/svg" xmlns:xlink="http://www.w3.org/1999/xlink" x="0px" y="0px"
	 viewBox="0 0 24 24" style="enable-background:new 0 0 24 24;" xml:space="preserve">
<style type="text/css">
	.st0{display:none;}
	.st1{display:inline;}
	.st2{fill:none;stroke:#000000;stroke-linejoin:round;stroke-miterlimit:10;}
</style>
<g id="Filled_Icons" class="st0">
	<g class="st1">
		<path d="M18.7,16.3c-0.7-0.8-1.6-1.6-2.5-2.2c-2.2,4.6-7.2,7.4-12.4,6.6c0.9,0.8,1.9,1.5,2.9,2.1C14.7,23.8,18.7,16.3,18.7,16.3z"
			/>
		<path d="M5.1,15.4c1-0.2,2-0.5,3-0.9c-1.3-2-2-4.3-2-6.7c0-1.7,0.4-3.4,1.1-5c0-0.1,0.5-1.1,1.4-2.3c-1,0.3-1.9,0.7-2.7,1.2
			C4.6,3.1,4,4.4,4,4.4C3.3,5.9,3,7.4,3,9C3,11.3,3.7,13.5,5.1,15.4z"/>
		<path d="M12.4,4.3c-0.4,1-0.6,2-0.6,3.1c5.1-0.4,9.9,2.4,11.9,7.1c0.2-0.8,0.3-1.6,0.3-2.5c0-0.4,0-0.7-0.1-1.1
			C22,6.5,17.3,3.7,12.4,4.3z"/>
		<path d="M11.8,8.3c0,1.1,0.2,2.2,0.6,3.2c4,0.7,7.5,3.3,9.2,7.7c0.7-0.9,1.3-2,1.7-3.1C21.9,11.3,17.2,7.8,11.8,8.3z"/>
		<path d="M8,3.2c-0.7,1.4-1,3-1,4.6C7,10,7.7,12.2,8.9,14c0.9-0.6,1.8-1.3,2.5-2.1C11,10.6,10.8,9.3,10.8,8c0-2.8,0.9-5.4,2.9-7.9
			C13.2,0.1,12.6,0,12,0c-0.6,0-1.2,0.1-1.8,0.2C8.7,1.6,8,3.2,8,3.2z"/>
		<path d="M19.2,16.9c-2,4.2-6.2,6.5-9.6,6.8c0.8,0.2,1.6,0.2,2.4,0.2c3.5,0,6.6-1.5,8.8-3.9C20.4,18.9,19.8,17.8,19.2,16.9z"/>
		<path d="M3.9,15.5C2.7,13.6,2,11.4,2,9c0-1.7,0.4-3.4,1.1-5c0,0,0,0,0,0C1.2,6.1,0,8.9,0,12c0,1.1,0.2,2.2,0.4,3.2
			C1.7,15.5,2.8,15.6,3.9,15.5z"/>
		<path d="M12.9,3.2c4.4-0.3,8.3,2,10.4,4.6c-1.4-3.7-4.5-6.5-8.4-7.5C14,1.3,13.4,2.2,12.9,3.2z"/>
		<path d="M0.8,16.3c0.4,1.1,1,2.2,1.8,3.1c4.9,1.4,10.4-1,12.7-5.8c-1-0.5-2-0.8-3.1-1C9.5,15.6,5.5,17.2,0.8,16.3z"/>
		<polygon points="12,12 12,12 12,12 		"/>
	</g>
</g>
<g id="Outline_Icons">
	<g>
		<circle class="st2" cx="12" cy="12" r="11.5"/>
		<path class="st2" d="M20.8,19.3c-1.4-3.8-4.7-6.6-8.7-7.3"/>
		<path class="st2" d="M1.3,15.8C2,15.9,2.7,16,3.4,16c3.5,0,6.6-1.5,8.7-4"/>
		<path class="st2" d="M13.9,0.7c-1.7,2-2.7,4.5-2.7,7.3c0,1.4,0.3,2.8,0.7,4"/>
		<path class="st2" d="M12.1,12C12,12,12,12,12.1,12"/>
		<path class="st2" d="M4.8,15.9C3.4,14,2.5,11.6,2.5,9c0-1.7,0.4-3.3,1-4.8"/>
		<path class="st2" d="M8.6,14.7C7.3,12.8,6.5,10.5,6.5,8c0-2.6,0.9-5.1,2.4-7"/>
		<path class="st2" d="M12.1,3.8c2.3-0.3,4.7,0,7,1.2c1.5,0.8,2.8,1.9,3.8,3.1"/>
		<path class="st2" d="M11.3,7.8c2.3-0.3,4.6,0.1,6.8,1.2c2.3,1.2,4.1,3.1,5.1,5.3"/>
		<path class="st2" d="M19.1,16.2c-0.9,2.2-2.5,4.2-4.7,5.5c-1.5,0.9-3,1.4-4.6,1.6"/>
		<path class="st2" d="M16,13.5c-0.9,2.1-2.5,4-4.6,5.3c-2.3,1.4-4.8,1.9-7.2,1.6"/>
	</g>
</g>
</svg>
