<?xml version="1.0" encoding="utf-8"?>
<!-- Generator: Adobe Illustrator 19.2.0, SVG Export Plug-In . SVG Version: 6.00 Build 0)  -->
<svg version="1.1" id="Layer_1" xmlns="http://www.w3.org/2000/svg" xmlns:xlink="http://www.w3.org/1999/xlink" x="0px" y="0px"
	 viewBox="0 0 24 24" style="enable-background:new 0 0 24 24;" xml:space="preserve">
<style type="text/css">
	.st0{display:none;}
	.st1{display:inline;}
	.st2{fill:none;stroke:#000000;stroke-linejoin:round;stroke-miterlimit:10;}
	.st3{fill:none;stroke:#000000;stroke-linecap:round;stroke-linejoin:round;stroke-miterlimit:10;}
</style>
<g id="Filled_Icons" class="st0">
	<g class="st1">
		<g>
			<path d="M7.3,21.2l-4.9-5L2,16.6c-0.7,0.7-1,1.5-1,2.5c0,0.9,0.4,1.8,1,2.5c0.7,0.7,1.5,1,2.5,1c0.9,0,1.8-0.4,2.5-1L7.3,21.2
				L7.3,21.2L7.3,21.2z"/>
			<polygon points="8.7,19.8 3.8,14.8 3.1,15.5 3.1,15.5 8,20.5 			"/>
		</g>
		<path d="M5.9,15.5l8.7-11.8l-0.5-2.4C14.1,1.1,13.8,1,13.6,1L9.4,1.4C9.2,1.4,9,1.5,9,1.7L4.3,13.9L5.9,15.5z"/>
		<path d="M7.4,17L19,8.4l-0.7-2.8c0-0.2-0.2-0.3-0.4-0.4l-2.7-0.6L6.6,16.2L7.4,17z"/>
		<path d="M22.2,9.5L19.9,9L8.1,17.7l1.6,1.6l12.2-4.7c0.2-0.1,0.3-0.2,0.3-0.4l0.4-4.2C22.6,9.8,22.5,9.6,22.2,9.5z"/>
	</g>
</g>
<g id="Outline_Icons">
	<g>
		<path class="st2" d="M3.1,16.2l4.2,4.2l-0.7,0.7c-1.2,1.2-3.1,1.2-4.2,0c-1.2-1.2-1.2-3.1,0-4.2L3.1,16.2z"/>
		<rect x="4.9" y="14.7" transform="matrix(0.7073 -0.7069 0.7069 0.7073 -10.7485 9.3482)" class="st2" width="2" height="6"/>
		<polyline class="st3" points="4.5,14.8 9.4,1.9 13.6,1.5 14.4,4.9 6.3,15.9 		"/>
		<polyline class="st3" points="8.8,19.1 21.7,14.2 22.1,10 18.7,9.2 7.7,17.3 		"/>
		<polyline class="st3" points="6,16.2 14.4,4.9 17.8,5.7 18.7,9.2 7.3,17.7 		"/>
	</g>
</g>
</svg>
