<?xml version="1.0" encoding="utf-8"?>
<!-- Generator: Adobe Illustrator 19.2.0, SVG Export Plug-In . SVG Version: 6.00 Build 0)  -->
<svg version="1.1" id="Layer_1" xmlns="http://www.w3.org/2000/svg" xmlns:xlink="http://www.w3.org/1999/xlink" x="0px" y="0px"
	 viewBox="0 0 24 24" style="enable-background:new 0 0 24 24;" xml:space="preserve">
<style type="text/css">
	.st0{display:none;}
	.st1{display:inline;}
	.st2{fill:none;stroke:#000000;stroke-linejoin:round;stroke-miterlimit:10;}
</style>
<g id="Filled_Icons" class="st0">
	<g class="st1">
		<g>
			<path d="M21.4,24H1.6c-0.5,0-1-0.3-1.3-0.7c-0.3-0.4-0.3-1-0.1-1.5l9.9-19.6c0.3-0.5,0.8-0.8,1.3-0.8c0.6,0,1.1,0.3,1.3,0.8
				l9.9,19.6c0.2,0.5,0.2,1-0.1,1.5C22.4,23.7,21.9,24,21.4,24z M11.5,2.4c-0.2,0-0.4,0.1-0.4,0.3L1.2,22.3c-0.1,0.2-0.1,0.3,0,0.5
				C1.3,22.9,1.4,23,1.6,23h19.8c0.2,0,0.3-0.1,0.4-0.2c0.1-0.1,0.1-0.3,0-0.5L11.9,2.6C11.9,2.5,11.7,2.4,11.5,2.4z"/>
		</g>
		<g>
			<circle cx="6.5" cy="20" r="2"/>
			<circle cx="9" cy="15" r="2"/>
			<circle cx="14" cy="15" r="2"/>
			<circle cx="11.5" cy="20" r="2"/>
			<circle cx="11.5" cy="10" r="2"/>
			<circle cx="16.5" cy="20" r="2"/>
		</g>
	</g>
</g>
<g id="Outline_Icons">
	<g>
		<path class="st2" d="M22.3,22.1c0.2,0.3,0.1,0.7,0,1c-0.2,0.3-0.5,0.5-0.9,0.5H1.6c-0.3,0-0.7-0.2-0.9-0.5c-0.2-0.3-0.2-0.7,0-1
			l9.9-19.6c0.2-0.3,0.5-0.6,0.9-0.6c0.4,0,0.7,0.2,0.9,0.6L22.3,22.1z"/>
		<circle class="st2" cx="6.5" cy="20" r="1.5"/>
		<circle class="st2" cx="9" cy="15" r="1.5"/>
		<circle class="st2" cx="14" cy="15" r="1.5"/>
		<circle class="st2" cx="11.5" cy="20" r="1.5"/>
		<circle class="st2" cx="11.5" cy="10" r="1.5"/>
		<circle class="st2" cx="16.5" cy="20" r="1.5"/>
	</g>
</g>
</svg>
