<?xml version="1.0" encoding="utf-8"?>
<!-- Generator: Adobe Illustrator 19.2.0, SVG Export Plug-In . SVG Version: 6.00 Build 0)  -->
<svg version="1.1" id="Layer_1" xmlns="http://www.w3.org/2000/svg" xmlns:xlink="http://www.w3.org/1999/xlink" x="0px" y="0px"
	 viewBox="0 0 24 24" enable-background="new 0 0 24 24" xml:space="preserve">
<g id="Filled_Icons" display="none">
	<path display="inline" d="M19,8.006c0-4.636-3.154-8-7.5-8c-4.346,0-7.5,3.364-7.5,8c0,2.726,2.182,5.542,6.318,8.164l-1.247,2.078
		c-0.093,0.154-0.096,0.348-0.007,0.504c0.089,0.157,0.255,0.254,0.436,0.254H11v2.5c0,0.827,0.673,1.5,1.5,1.5
		c0.826,0,1.5-0.673,1.5-1.5c0-0.275,0.225-0.5,0.5-0.5c0.275,0,0.5,0.225,0.5,0.5v2c0,0.275,0.225,0.5,0.5,0.5
		c0.275,0,0.5-0.225,0.5-0.5v-2c0-0.826-0.674-1.5-1.5-1.5c-0.827,0-1.5,0.674-1.5,1.5c0,0.275-0.225,0.5-0.5,0.5
		c-0.276,0-0.5-0.225-0.5-0.5v-2.5h1.5c0.18,0,0.346-0.097,0.435-0.254c0.088-0.156,0.086-0.35-0.006-0.504l-1.248-2.078
		C16.816,13.548,19,10.731,19,8.006z M11.5,3.006c-2.481,0-4.5,2.02-4.5,4.5c0,0.276-0.225,0.5-0.5,0.5c-0.276,0-0.5-0.224-0.5-0.5
		c0-3.033,2.467-5.5,5.5-5.5c0.275,0,0.5,0.224,0.5,0.5C12,2.782,11.775,3.006,11.5,3.006z"/>
</g>
<g id="Outline_Icons">
	<g>
		<path fill="none" stroke="#000000" stroke-linecap="round" stroke-linejoin="round" stroke-miterlimit="10" d="M18.5,8
			c0-4.5-3-7.5-7-7.5s-7,3-7,7.5c0,4.007,5.283,7.256,6.5,8l-1.5,2.5h4L12,16C13.217,15.256,18.5,12.007,18.5,8z"/>
		<path fill="none" stroke="#000000" stroke-linecap="round" stroke-linejoin="round" stroke-miterlimit="10" d="M11.5,18.5v3
			c0,0.553,0.447,1,1,1c0.553,0,1-0.447,1-1c0-0.553,0.447-1,1-1c0.553,0,1,0.447,1,1v1v1"/>
		<path fill="none" stroke="#000000" stroke-linecap="round" stroke-linejoin="round" stroke-miterlimit="10" d="M6.5,7.5
			c0-2.762,2.238-5,5-5"/>
	</g>
</g>
</svg>
