<?xml version="1.0" encoding="utf-8"?>
<!-- Generator: Adobe Illustrator 19.2.0, SVG Export Plug-In . SVG Version: 6.00 Build 0)  -->
<svg version="1.1" id="Layer_1" xmlns="http://www.w3.org/2000/svg" xmlns:xlink="http://www.w3.org/1999/xlink" x="0px" y="0px"
	 viewBox="0 0 24 24" style="enable-background:new 0 0 24 24;" xml:space="preserve">
<style type="text/css">
	.st0{display:none;}
	.st1{display:inline;}
	.st2{fill:none;stroke:#000000;stroke-linejoin:round;stroke-miterlimit:10;}
</style>
<g id="Filled_Icons" class="st0">
	<g class="st1">
		<path d="M24,11.5c-0.1-2.6-1-5-2.6-6.9c-3.5,0.6-6.6,1.7-9.6,4.1c0.9,0.8,1.8,1.6,2.6,2.6c1.4-0.8,2.9-1.3,4.6-1.3
			C21,9.9,22.9,10.6,24,11.5z"/>
		<path d="M9.1,6.5C9.7,7,10.4,7.4,11,8c2.9-2.3,6.3-3.8,9.6-4.3c-2.2-2.3-5.3-3.7-8.6-3.7c-0.3,0-0.7,0-1,0.1
			C11.1,2.5,10.6,4.6,9.1,6.5z"/>
		<path d="M11,9.3c-3.7,3.2-5.8,7.1-7.2,11.4c2,1.9,4.7,3.1,7.7,3.2c-1-1.5-1.5-3.2-1.5-5c0-2.9,1.4-5.5,3.5-7.1
			C12.7,10.9,11.9,10,11,9.3z"/>
		<path d="M14.1,12.6c-1.9,1.5-3.1,3.8-3.1,6.3c0,2.5,1,4,1.7,5c1.9-0.1,3.7-0.7,5.3-1.6C17.4,18.8,16.5,15.8,14.1,12.6z"/>
		<path d="M10.2,8.6C9.6,8.1,9,7.7,8.4,7.3c-2,2-4.8,3-8.2,2.5C0.1,10.5,0,11.2,0,11.9c0,3,1.2,5.8,3,7.9
			C4.5,15.6,6.8,11.6,10.2,8.6z"/>
		<path d="M19,10.9c-1.5,0-2.8,0.4-4,1.1c2.2,3,3.4,6.1,3.9,9.7c2.9-2,4.8-5.3,5.1-9C22.6,11.7,21.1,10.9,19,10.9z"/>
		<path d="M8.2,6C9.8,4.1,10,2.3,10,0.1c-2.6,0.4-5,1.7-6.7,3.6C4.3,4.1,6,4.7,8.2,6z"/>
		<path d="M7.5,6.8c-1.6-0.9-3.1-1.6-4.3-2C3,4.7,2.8,4.6,2.6,4.5c-1,1.2-1.7,2.7-2.2,4.3C3.3,9.3,5.7,8.5,7.5,6.8z"/>
	</g>
</g>
<g id="Outline_Icons">
	<g>
		<circle class="st2" cx="12" cy="11.9" r="11.5"/>
		<path class="st2" d="M3.6,19.8C5,15.6,9.3,6.3,20.5,4.2"/>
		<path class="st2" d="M3.4,4.3c4.6,1.6,13.2,6.2,15,17.3"/>
		<path class="st2" d="M10.5,0.5c0,0.1,0,0.3,0,0.4c0,4.7-3.8,8.5-8.5,8.5c-0.4,0-0.8,0-1.2-0.1"/>
		<path class="st2" d="M11.8,23.4c-0.8-1.3-1.3-2.8-1.3-4.5c0-4.7,3.8-8.5,8.5-8.5c1.7,0,3.2,0.5,4.6,1.3"/>
	</g>
</g>
</svg>
