<?xml version="1.0" encoding="utf-8"?>
<!-- Generator: Adobe Illustrator 19.2.0, SVG Export Plug-In . SVG Version: 6.00 Build 0)  -->
<svg version="1.1" id="Layer_1" xmlns="http://www.w3.org/2000/svg" xmlns:xlink="http://www.w3.org/1999/xlink" x="0px" y="0px"
	 viewBox="0 0 24 24" style="enable-background:new 0 0 24 24;" xml:space="preserve">
<style type="text/css">
	.st0{display:none;}
	.st1{display:inline;}
	.st2{fill:none;stroke:#000000;stroke-linejoin:round;stroke-miterlimit:10;}
	.st3{fill:none;stroke:#000000;stroke-linecap:round;stroke-linejoin:round;stroke-miterlimit:10;}
</style>
<g id="Filled_Icons" class="st0">
	<g class="st1">
		<path d="M21.3,9.7C22,7.1,22.1,4.7,22,3.4c-0.1-0.7-0.6-1.3-1.3-1.3c-1.2-0.1-3.6,0-6.2,0.7L21.3,9.7z"/>
		<path d="M13.3,3C10.9,3.8,8.4,5,6.5,6.9C4.3,9.1,3.1,12,2.4,14.8l6.9,6.9c2.7-0.7,5.7-2,7.9-4.2c1.9-1.9,3.1-4.3,3.9-6.7L13.3,3z
			 M15,10.4c0.2,0.2,0.2,0.5,0,0.7c-0.1,0.1-0.2,0.1-0.4,0.1c-0.1,0-0.3,0-0.4-0.1l-0.7-0.7l-1.4,1.4l0.7,0.7c0.2,0.2,0.2,0.5,0,0.7
			c-0.1,0.1-0.2,0.1-0.4,0.1c-0.1,0-0.3,0-0.4-0.1l-0.7-0.7L10,14l0.7,0.7c0.2,0.2,0.2,0.5,0,0.7c-0.1,0.1-0.2,0.1-0.4,0.1
			c-0.1,0-0.3,0-0.4-0.1l-0.7-0.7l-0.7,0.7c-0.1,0.1-0.2,0.1-0.4,0.1c-0.1,0-0.3,0-0.4-0.1c-0.2-0.2-0.2-0.5,0-0.7L8.6,14l-0.7-0.7
			c-0.2-0.2-0.2-0.5,0-0.7c0.2-0.2,0.5-0.2,0.7,0l0.7,0.7l1.4-1.4L10,11.1c-0.2-0.2-0.2-0.5,0-0.7c0.2-0.2,0.5-0.2,0.7,0l0.7,0.7
			l1.4-1.4L12.2,9c-0.2-0.2-0.2-0.5,0-0.7c0.2-0.2,0.5-0.2,0.7,0L13.6,9l0.7-0.7c0.2-0.2,0.5-0.2,0.7,0c0.2,0.2,0.2,0.5,0,0.7
			l-0.7,0.7L15,10.4z"/>
		<path d="M2.1,15.9c-0.4,2.1-0.5,4-0.4,5.1C1.8,22.3,3,22.4,4,22.4c1.1,0,2.5-0.1,4.1-0.5L2.1,15.9z"/>
	</g>
</g>
<g id="Outline_Icons">
	<g>
		<line class="st2" x1="14.2" y1="3.3" x2="20.7" y2="9.8"/>
		<path class="st2" d="M20.6,2.5c0.5,0,0.9,0.4,0.9,0.9c0.2,2.4-0.5,9.5-4.7,13.7c-4.2,4.2-11.3,4.9-13.7,4.7
			c-0.5,0-0.8-0.4-0.9-0.9c-0.2-2.4,0.5-9.5,4.7-13.7C11.1,3,18.1,2.3,20.6,2.5z"/>
		<line class="st3" x1="8.3" y1="15" x2="14.6" y2="8.6"/>
		<line class="st3" x1="8.3" y1="12.9" x2="10.4" y2="15"/>
		<line class="st3" x1="10.4" y1="10.8" x2="12.5" y2="12.9"/>
		<line class="st3" x1="12.5" y1="8.6" x2="14.6" y2="10.8"/>
		<line class="st2" x1="2.6" y1="15.7" x2="8.3" y2="21.4"/>
	</g>
</g>
</svg>
