<?xml version="1.0" encoding="utf-8"?>
<!-- Generator: Adobe Illustrator 19.2.0, SVG Export Plug-In . SVG Version: 6.00 Build 0)  -->
<svg version="1.1" id="Layer_1" xmlns="http://www.w3.org/2000/svg" xmlns:xlink="http://www.w3.org/1999/xlink" x="0px" y="0px"
	 viewBox="0 0 24 24" style="enable-background:new 0 0 24 24;" xml:space="preserve">
<style type="text/css">
	.st0{display:none;}
	.st1{display:inline;}
	.st2{fill:none;stroke:#000000;stroke-linecap:round;stroke-linejoin:round;stroke-miterlimit:10;}
</style>
<g id="Filled_Icons" class="st0">
	<g class="st1">
		<path d="M3.7,3.3L4.2,9l2.6,1.3l4.7-3.4V3.6L6.4,1.4C5.4,1.9,4.5,2.6,3.7,3.3z"/>
		<path d="M12.5,6.9l4.8,3.5L19.8,9l0.5-5.6c-0.8-0.8-1.7-1.4-2.7-2l-5.1,2.2V6.9z"/>
		<path d="M6.5,11.2L3.9,9.9l-3.7,4.2c0.2,1.1,0.6,2.2,1,3.1l5.5,1.2l1.6-1.7L6.5,11.2z"/>
		<path d="M20.8,9.1l3.2,3.6c0-0.2,0-0.5,0-0.7c0-2.9-1-5.6-2.8-7.6L20.8,9.1z"/>
		<path d="M17.5,11.4l-1.7,5.4l1.6,1.7l5.5-1.3c0.5-1,0.8-2,1-3.1l-3.6-4.1L17.5,11.4z"/>
		<path d="M3.2,9.1L2.8,4.3C1.1,6.4,0,9.1,0,12c0,0.3,0,0.5,0,0.8L3.2,9.1z"/>
		<path d="M17.4,19.5L15,23.6c3-0.8,5.6-2.7,7.2-5.3L17.4,19.5z"/>
		<path d="M16.5,19.1L15,17.4H9.1l-1.6,1.7l2.9,4.8C10.9,24,11.5,24,12,24c0.6,0,1.1-0.1,1.7-0.1L16.5,19.1z"/>
		<polygon points="16.5,11 12,7.7 7.5,11 9.2,16.4 14.8,16.4 		"/>
		<path d="M12,2.7l4.4-1.9C15,0.3,13.5,0,12,0c-1.5,0-3,0.3-4.3,0.8L12,2.7z"/>
		<path d="M6.6,19.5l-4.7-1c1.6,2.5,4.2,4.4,7.2,5.2L6.6,19.5z"/>
	</g>
</g>
<g id="Outline_Icons">
	<g>
		<g>
			<path class="st2" d="M12,0.5C5.6,0.5,0.5,5.6,0.5,12c0,6.4,5.1,11.5,11.5,11.5c6.4,0,11.5-5.1,11.5-11.5
				C23.5,5.6,18.4,0.5,12,0.5L12,0.5z"/>
		</g>
		<polygon class="st2" points="8.9,16.9 6.9,10.8 12,7.1 17.1,10.8 15.2,16.9 		"/>
		<polyline class="st2" points="16.4,1.4 12,3.3 7.7,1.4 		"/>
		<polyline class="st2" points="3.3,4.6 3.7,9.3 0.6,12.9 		"/>
		<polyline class="st2" points="2.3,18 6.9,19 9.3,23.1 		"/>
		<polyline class="st2" points="14.7,23.1 17.1,19 21.7,18 		"/>
		<polyline class="st2" points="23.4,12.9 20.3,9.3 20.7,4.6 		"/>
		<line class="st2" x1="12" y1="3.3" x2="12" y2="7.1"/>
		<line class="st2" x1="17.1" y1="11" x2="20.3" y2="9.3"/>
		<line class="st2" x1="15.2" y1="16.9" x2="17.1" y2="19"/>
		<line class="st2" x1="8.9" y1="16.9" x2="6.9" y2="19"/>
		<line class="st2" x1="3.7" y1="9.3" x2="6.9" y2="10.8"/>
	</g>
</g>
</svg>
