<?xml version="1.0" encoding="utf-8"?>
<!-- Generator: Adobe Illustrator 19.2.0, SVG Export Plug-In . SVG Version: 6.00 Build 0)  -->
<svg version="1.1" id="Outline_Icons" xmlns="http://www.w3.org/2000/svg" xmlns:xlink="http://www.w3.org/1999/xlink" x="0px"
	 y="0px" viewBox="0 0 24 24" style="enable-background:new 0 0 24 24;" xml:space="preserve">
<style type="text/css">
	.st0{fill:none;stroke:#000000;stroke-linejoin:round;stroke-miterlimit:10;}
	.st1{fill:none;stroke:#000000;stroke-linecap:round;stroke-linejoin:round;stroke-miterlimit:10;}
</style>
<g>
	<line class="st0" x1="1.5" y1="21.5" x2="1.5" y2="12.5"/>
	<line class="st1" x1="0.5" y1="21.5" x2="6.5" y2="21.5"/>
	<line class="st1" x1="0.5" y1="23.5" x2="22.5" y2="23.5"/>
	<line class="st1" x1="0.5" y1="12.5" x2="6.5" y2="12.5"/>
	<line class="st1" x1="8.5" y1="21.5" x2="14.5" y2="21.5"/>
	<line class="st1" x1="8.5" y1="12.5" x2="14.5" y2="12.5"/>
	<line class="st0" x1="3.5" y1="21.5" x2="3.5" y2="12.5"/>
	<line class="st0" x1="5.5" y1="21.5" x2="5.5" y2="12.5"/>
	<line class="st0" x1="9.5" y1="21.5" x2="9.5" y2="12.5"/>
	<line class="st0" x1="11.5" y1="21.5" x2="11.5" y2="12.5"/>
	<line class="st0" x1="13.5" y1="21.5" x2="13.5" y2="12.5"/>
	<line class="st1" x1="16.5" y1="21.5" x2="22.5" y2="21.5"/>
	<line class="st1" x1="16.5" y1="12.5" x2="22.5" y2="12.5"/>
	<line class="st0" x1="17.5" y1="21.5" x2="17.5" y2="12.5"/>
	<line class="st0" x1="19.5" y1="21.5" x2="19.5" y2="12.5"/>
	<line class="st0" x1="21.5" y1="21.5" x2="21.5" y2="12.5"/>
	<polygon class="st0" points="0.5,10.5 22.5,10.5 12,1.5 	"/>
</g>
</svg>
