<?xml version="1.0" encoding="utf-8"?>
<!-- Generator: Adobe Illustrator 19.2.0, SVG Export Plug-In . SVG Version: 6.00 Build 0)  -->
<svg version="1.1" id="Layer_1" xmlns="http://www.w3.org/2000/svg" xmlns:xlink="http://www.w3.org/1999/xlink" x="0px" y="0px"
	 viewBox="0 0 24 24" style="enable-background:new 0 0 24 24;" xml:space="preserve">
<style type="text/css">
	.st0{display:none;}
	.st1{display:inline;}
	.st2{fill:none;stroke:#000000;stroke-linecap:round;stroke-linejoin:round;stroke-miterlimit:10;}
</style>
<g id="Filled_Icon" class="st0">
	<g class="st1">
		<path d="M0,4v15h24V4H0z M23,18H1V5h22V18z"/>
		<path d="M4.5,17h15c1.4,0,2.5-1.1,2.5-2.5v-6C22,7.1,20.9,6,19.5,6h-15C3.1,6,2,7.1,2,8.5v6C2,15.9,3.1,17,4.5,17z M19,13
			c0.6,0,1,0.4,1,1c0,0.6-0.4,1-1,1c-0.6,0-1-0.4-1-1C18,13.4,18.4,13,19,13z M12,8c1.9,0,3.5,1.6,3.5,3.5c0,1.9-1.6,3.5-3.5,3.5
			c-1.9,0-3.5-1.6-3.5-3.5C8.5,9.6,10.1,8,12,8z M5,8c0.6,0,1,0.4,1,1c0,0.6-0.4,1-1,1c-0.6,0-1-0.4-1-1C4,8.4,4.4,8,5,8z"/>
	</g>
</g>
<g id="Outline_Icons">
	<g>
		<rect x="0.5" y="4.5" class="st2" width="23" height="14"/>
		<circle class="st2" cx="12" cy="11.5" r="3"/>
		<circle class="st2" cx="5" cy="9" r="0.5"/>
		<circle class="st2" cx="19" cy="14" r="0.5"/>
		<path class="st2" d="M21.5,14.5c0,1.1-0.9,2-2,2h-15c-1.1,0-2-0.9-2-2v-6c0-1.1,0.9-2,2-2h15c1.1,0,2,0.9,2,2V14.5z"/>
	</g>
</g>
</svg>
