<?xml version="1.0" encoding="utf-8"?>
<!-- Generator: Adobe Illustrator 19.2.0, SVG Export Plug-In . SVG Version: 6.00 Build 0)  -->
<svg version="1.1" id="Layer_1" xmlns="http://www.w3.org/2000/svg" xmlns:xlink="http://www.w3.org/1999/xlink" x="0px" y="0px"
	 viewBox="0 0 24 24" style="enable-background:new 0 0 24 24;" xml:space="preserve">
<style type="text/css">
	.st0{display:none;}
	.st1{display:inline;}
	.st2{fill:none;stroke:#000000;stroke-linecap:round;stroke-linejoin:round;stroke-miterlimit:10;}
</style>
<g id="Filled_Icons" class="st0">
	<g class="st1">
		<path d="M2,19.5l0,1C2,20.8,2.2,21,2.5,21h19c0.3,0,0.5-0.2,0.5-0.5l0-1c0-0.3-0.2-0.5-0.5-0.5h-19C2.2,19,2,19.2,2,19.5z"/>
		<path d="M23.5,22h-23C0.2,22,0,22.2,0,22.5v1C0,23.8,0.2,24,0.5,24h23c0.3,0,0.5-0.2,0.5-0.5v-1C24,22.2,23.8,22,23.5,22z"/>
		<path d="M5.5,18C5.8,18,6,17.8,6,17.5v-7C6,10.2,5.8,10,5.5,10h-2C3.2,10,3,10.2,3,10.5v7C3,17.8,3.2,18,3.5,18H5.5z"/>
		<path d="M10.5,18c0.3,0,0.5-0.2,0.5-0.5v-7c0-0.3-0.2-0.5-0.5-0.5h-2C8.2,10,8,10.2,8,10.5v7C8,17.8,8.2,18,8.5,18H10.5z"/>
		<path d="M15.5,18c0.3,0,0.5-0.2,0.5-0.5v-7c0-0.3-0.2-0.5-0.5-0.5h-2c-0.3,0-0.5,0.2-0.5,0.5v7c0,0.3,0.2,0.5,0.5,0.5H15.5z"/>
		<path d="M20.5,18c0.3,0,0.5-0.2,0.5-0.5v-7c0-0.3-0.2-0.5-0.5-0.5h-2c-0.3,0-0.5,0.2-0.5,0.5v7c0,0.3,0.2,0.5,0.5,0.5H20.5z"/>
		<path d="M1.5,9h21C22.8,9,23,8.8,23,8.5v-2C23,6.2,22.8,6,22.5,6h-21C1.2,6,1,6.2,1,6.5v2C1,8.8,1.2,9,1.5,9z"/>
		<path d="M1.5,5h21c0,0,0,0,0,0C22.8,5,23,4.8,23,4.5c0-0.2-0.2-0.4-0.4-0.5L12.2,0C12.1,0,11.9,0,11.8,0L1.3,4
			C1.1,4.1,1,4.4,1,4.6C1.1,4.8,1.3,5,1.5,5z"/>
	</g>
</g>
<g id="Outline_Icons">
	<g>
		<rect x="2.5" y="19.5" class="st2" width="19" height="2"/>
		<rect x="3.5" y="8.5" class="st2" width="17" height="11"/>
		<line class="st2" x1="23.5" y1="23.5" x2="0.5" y2="23.5"/>
		<line class="st2" x1="23.5" y1="21.5" x2="0.5" y2="21.5"/>
		<line class="st2" x1="5.5" y1="8.5" x2="5.5" y2="19.5"/>
		<line class="st2" x1="10.5" y1="8.5" x2="10.5" y2="19.5"/>
		<line class="st2" x1="8.5" y1="8.5" x2="8.5" y2="19.5"/>
		<line class="st2" x1="13.5" y1="8.5" x2="13.5" y2="19.5"/>
		<line class="st2" x1="15.5" y1="8.5" x2="15.5" y2="19.5"/>
		<line class="st2" x1="18.5" y1="8.5" x2="18.5" y2="19.5"/>
		<rect x="1.5" y="6.5" class="st2" width="21" height="2"/>
		<polygon class="st2" points="22.5,6.5 1.5,6.5 12,0.5 		"/>
	</g>
</g>
</svg>
