<?xml version="1.0" encoding="utf-8"?>
<!-- Generator: Adobe Illustrator 19.2.0, SVG Export Plug-In . SVG Version: 6.00 Build 0)  -->
<svg version="1.1" id="Layer_1" xmlns="http://www.w3.org/2000/svg" xmlns:xlink="http://www.w3.org/1999/xlink" x="0px" y="0px"
	 viewBox="0 0 24 24" style="enable-background:new 0 0 24 24;" xml:space="preserve">
<style type="text/css">
	.st0{display:none;}
	.st1{display:inline;}
	.st2{fill:none;stroke:#000000;stroke-linecap:round;stroke-linejoin:round;stroke-miterlimit:10;}
	.st3{fill:none;stroke:#000000;stroke-linejoin:round;stroke-miterlimit:10;}
</style>
<g id="Filled_Icon" class="st0">
	<g class="st1">
		<path d="M23.5,6h-23C0.2,6,0,6.2,0,6.5v6C0,12.8,0.2,13,0.5,13h2.4l5.9-5.9C8.8,7.1,9,7,9.1,7h12.8c0.2,0,0.4,0.1,0.5,0.3
			c0.1,0.2,0,0.4-0.1,0.5l-1.9,1.9c0,0,0,0,0,0l-9.2,9.2L11.1,19h-0.2H0.5C0.2,19,0,19.2,0,19.5C0,19.8,0.2,20,0.5,20h11l7-7h5
			c0.3,0,0.5-0.2,0.5-0.5v-6C24,6.2,23.8,6,23.5,6z"/>
		<path d="M0.5,18h10c0.1,0,0.3-0.1,0.4-0.1L20.7,8h-1.2h-10H9.3l-9.1,9.1C0,17.3,0,17.5,0,17.7C0.1,17.9,0.3,18,0.5,18z M7.2,13.6
			c0.2-0.2,0.5-0.2,0.7-0.1C8.1,13.7,8.2,14,8,14.2c0,0.1-0.1,0.1-0.1,0.1c0,0,0,0,0,0c0.4,0,1.1-0.3,1.4-0.7c0-0.1,0.1-0.1,0.1-0.1
			c-0.4,0-0.8-0.2-0.9-0.5c-0.1-0.2-0.2-0.7,0.3-1.2c0.5-0.6,1.3-1,2-1.1l0.4-0.5c0.2-0.2,0.5-0.2,0.7-0.1c0.2,0.2,0.2,0.5,0.1,0.7
			l-0.1,0.1c0.1,0.1,0.1,0.1,0.1,0.2c0.1,0.2,0.2,0.7-0.3,1.2c-0.2,0.2-0.5,0.2-0.7,0.1c-0.2-0.2-0.2-0.5-0.1-0.7
			c0-0.1,0.1-0.1,0.1-0.1c0,0,0,0,0,0c-0.4,0-1.1,0.3-1.4,0.7c0,0.1-0.1,0.1-0.1,0.1c0.4,0,0.8,0.2,0.9,0.5c0.1,0.2,0.2,0.7-0.3,1.2
			c-0.5,0.6-1.3,1-2,1.1l-0.4,0.5C7.6,15.9,7.5,16,7.3,16c-0.1,0-0.2,0-0.3-0.1c-0.2-0.2-0.2-0.5-0.1-0.7l0.1-0.1
			C7,15,7,14.9,6.9,14.8C6.8,14.6,6.7,14.2,7.2,13.6z"/>
	</g>
</g>
<g id="Outline_Icons">
	<g>
		<line class="st2" x1="7.9" y1="14.9" x2="7.4" y2="15.5"/>
		<line class="st2" x1="11.5" y1="10.5" x2="11" y2="11.1"/>
		<path class="st2" d="M7.6,13.9c-0.4,0.5-0.3,0.9,0.3,1c0.6,0,1.4-0.4,1.8-0.9c0.4-0.5,0.3-0.9-0.3-1c-0.6,0-0.7-0.4-0.3-1
			c0.4-0.5,1.2-0.9,1.8-0.9c0.6,0,0.7,0.4,0.3,1"/>
		<polygon class="st2" points="19.5,8.5 10.5,17.5 0.5,17.5 9.5,8.5 		"/>
		<polyline class="st2" points="19.5,11 11,19.5 0.5,19.5 		"/>
		<polyline class="st3" points="18,12.5 23.5,12.5 23.5,6.5 0.5,6.5 0.5,12.5 5.5,12.5 		"/>
	</g>
</g>
</svg>
