<?xml version="1.0" encoding="utf-8"?>
<!-- Generator: Adobe Illustrator 19.2.0, SVG Export Plug-In . SVG Version: 6.00 Build 0)  -->
<svg version="1.1" id="Layer_1" xmlns="http://www.w3.org/2000/svg" xmlns:xlink="http://www.w3.org/1999/xlink" x="0px" y="0px"
	 viewBox="0 0 24 24" style="enable-background:new 0 0 24 24;" xml:space="preserve">
<style type="text/css">
	.st0{display:none;}
	.st1{display:inline;}
	.st2{fill:none;stroke:#000000;stroke-linecap:round;stroke-linejoin:round;stroke-miterlimit:10;}
</style>
<g id="Filled_Icons" class="st0">
	<g class="st1">
		<path d="M2,20.5L2,20.5C2,20.8,2.2,21,2.5,21h19c0.3,0,0.5-0.2,0.5-0.5l0,0c0-0.3-0.2-0.5-0.5-0.5h-19C2.2,20,2,20.2,2,20.5z"/>
		<path d="M5.5,19C5.8,19,6,18.8,6,18.5l0-8C6,10.2,5.7,10,5.5,10h-2C3.2,10,3,10.2,3,10.5l0,8C3,18.8,3.2,19,3.5,19H5.5z"/>
		<path d="M10.5,19c0.3,0,0.5-0.2,0.5-0.5l0-8c0-0.3-0.2-0.5-0.5-0.5h-2C8.2,10,8,10.2,8,10.5l0,8C8,18.8,8.2,19,8.5,19H10.5z"/>
		<path d="M15.5,19c0.3,0,0.5-0.2,0.5-0.5l0-8c0-0.3-0.2-0.5-0.5-0.5h-2c-0.3,0-0.5,0.2-0.5,0.5l0,8c0,0.3,0.2,0.5,0.5,0.5H15.5z"/>
		<path d="M20.5,19c0.3,0,0.5-0.2,0.5-0.5l0-8c0-0.3-0.2-0.5-0.5-0.5h-2c-0.3,0-0.5,0.2-0.5,0.5l0,8c0,0.3,0.2,0.5,0.5,0.5H20.5z"/>
		<path d="M3,6h18c0.3,0,0.5-0.2,0.5-0.5C21.5,2.3,17.6,0,12,0C6.4,0,2.5,2.3,2.5,5.5C2.5,5.8,2.7,6,3,6z M10.5,2
			C10.8,2,11,2.2,11,2.5C11,2.8,10.8,3,10.5,3c-1.2,0-3,0.6-3,1c0,0.3-0.2,0.5-0.5,0.5C6.7,4.5,6.5,4.3,6.5,4C6.5,2.5,9.5,2,10.5,2z
			"/>
		<path d="M1.5,9h21C22.8,9,23,8.8,23,8.5l0-1C23,7.2,22.7,7,22.5,7h-21C1.2,7,1,7.2,1,7.5l0,1C1,8.8,1.2,9,1.5,9z"/>
		<path d="M23.5,22h-23C0.2,22,0,22.2,0,22.5v1C0,23.8,0.2,24,0.5,24h23c0.3,0,0.5-0.2,0.5-0.5v-1C24,22.2,23.8,22,23.5,22z"/>
	</g>
</g>
<g id="Outline_Icons">
	<g>
		<rect x="3.5" y="8.5" class="st2" width="17" height="11"/>
		<line class="st2" x1="23.5" y1="23.5" x2="0.5" y2="23.5"/>
		<rect x="2.5" y="19.5" class="st2" width="19" height="2"/>
		<line class="st2" x1="5.5" y1="8.5" x2="5.5" y2="19.5"/>
		<line class="st2" x1="10.5" y1="8.5" x2="10.5" y2="19.5"/>
		<line class="st2" x1="8.5" y1="8.5" x2="8.5" y2="19.5"/>
		<line class="st2" x1="13.5" y1="8.5" x2="13.5" y2="19.5"/>
		<line class="st2" x1="15.5" y1="8.5" x2="15.5" y2="19.5"/>
		<line class="st2" x1="18.5" y1="8.5" x2="18.5" y2="19.5"/>
		<path class="st2" d="M21,6.5c0-2.8-2-6-9-6s-9,3.2-9,6H21z"/>
		<rect x="1.5" y="6.5" class="st2" width="21" height="2"/>
		<path class="st2" d="M7,4c0-1,2.5-1.5,3.5-1.5"/>
		<line class="st2" x1="0.5" y1="21.5" x2="23.5" y2="21.5"/>
	</g>
</g>
</svg>
