<?xml version="1.0" encoding="utf-8"?>
<!-- Generator: Adobe Illustrator 19.2.0, SVG Export Plug-In . SVG Version: 6.00 Build 0)  -->
<svg version="1.1" id="Layer_1" xmlns="http://www.w3.org/2000/svg" xmlns:xlink="http://www.w3.org/1999/xlink" x="0px" y="0px"
	 viewBox="0 0 24 24" style="enable-background:new 0 0 24 24;" xml:space="preserve">
<style type="text/css">
	.st0{display:none;}
	.st1{display:inline;}
	.st2{fill:none;stroke:#000000;stroke-linecap:round;stroke-linejoin:round;stroke-miterlimit:10;}
</style>
<g id="Filled_Icon" class="st0">
	<g class="st1">
		<path d="M20,3H0v13h20V3z M4.5,14h-2C2.2,14,2,13.8,2,13.5C2,13.2,2.2,13,2.5,13h2C4.8,13,5,13.2,5,13.5C5,13.8,4.8,14,4.5,14z
			 M10,13c-1.9,0-3.5-1.6-3.5-3.5C6.5,7.6,8.1,6,10,6c1.9,0,3.5,1.6,3.5,3.5C13.5,11.4,11.9,13,10,13z M17.5,6h-2
			C15.2,6,15,5.8,15,5.5C15,5.2,15.2,5,15.5,5h2C17.8,5,18,5.2,18,5.5C18,5.8,17.8,6,17.5,6z"/>
		<path d="M22,5.5C22,5.2,21.8,5,21.5,5C21.2,5,21,5.2,21,5.5V17H2.5C2.2,17,2,17.2,2,17.5C2,17.8,2.2,18,2.5,18H22V5.5z"/>
		<path d="M23.5,7C23.2,7,23,7.2,23,7.5V19H4.5C4.2,19,4,19.2,4,19.5C4,19.8,4.2,20,4.5,20H24V7.5C24,7.2,23.8,7,23.5,7z"/>
	</g>
</g>
<g id="Outline_Icons">
	<g>
		<rect x="0.5" y="3.5" class="st2" width="19" height="12"/>
		<polyline class="st2" points="21.5,5.5 21.5,17.5 2.5,17.5 		"/>
		<polyline class="st2" points="23.5,7.5 23.5,19.5 4.5,19.5 		"/>
		<circle class="st2" cx="10" cy="9.5" r="3"/>
		<line class="st2" x1="2.5" y1="13.5" x2="4.5" y2="13.5"/>
		<line class="st2" x1="15.5" y1="5.5" x2="17.5" y2="5.5"/>
	</g>
</g>
</svg>
