<?xml version="1.0" encoding="utf-8"?>
<!-- Generator: Adobe Illustrator 19.2.0, SVG Export Plug-In . SVG Version: 6.00 Build 0)  -->
<svg version="1.1" id="Layer_1" xmlns="http://www.w3.org/2000/svg" xmlns:xlink="http://www.w3.org/1999/xlink" x="0px" y="0px"
	 viewBox="0 0 24 24" style="enable-background:new 0 0 24 24;" xml:space="preserve">
<style type="text/css">
	.st0{display:none;}
	.st1{display:inline;}
	.st2{fill:none;stroke:#000000;stroke-linejoin:round;stroke-miterlimit:10;}
	.st3{fill:none;stroke:#000000;stroke-linecap:round;stroke-linejoin:round;stroke-miterlimit:10;}
</style>
<g id="Filled_Icon" class="st0">
	<g class="st1">
		<path d="M23.5,23h-23C0.2,23,0,23.2,0,23.5C0,23.8,0.2,24,0.5,24h23c0.3,0,0.5-0.2,0.5-0.5C24,23.2,23.8,23,23.5,23z"/>
		<path d="M0.5,22h23c0.3,0,0.5-0.2,0.5-0.5c0-0.3-0.2-0.5-0.5-0.5h-23C0.2,21,0,21.2,0,21.5C0,21.8,0.2,22,0.5,22z"/>
		<path d="M6.5,12C6.8,12,7,11.8,7,11.5C7,11.2,6.8,11,6.5,11h-5C1.2,11,1,11.2,1,11.5C1,11.8,1.2,12,1.5,12H2v7H1.5
			C1.2,19,1,19.2,1,19.5C1,19.8,1.2,20,1.5,20H2h4h0.5C6.8,20,7,19.8,7,19.5C7,19.2,6.8,19,6.5,19H6v-7H6.5z"/>
		<path d="M14.5,12c0.3,0,0.5-0.2,0.5-0.5c0-0.3-0.2-0.5-0.5-0.5h-5C9.2,11,9,11.2,9,11.5C9,11.8,9.2,12,9.5,12H10v7H9.5
			C9.2,19,9,19.2,9,19.5C9,19.8,9.2,20,9.5,20H10h4h0.5c0.3,0,0.5-0.2,0.5-0.5c0-0.3-0.2-0.5-0.5-0.5H14v-7H14.5z"/>
		<path d="M22.5,12c0.3,0,0.5-0.2,0.5-0.5c0-0.3-0.2-0.5-0.5-0.5h-5c-0.3,0-0.5,0.2-0.5,0.5c0,0.3,0.2,0.5,0.5,0.5H18v7h-0.5
			c-0.3,0-0.5,0.2-0.5,0.5c0,0.3,0.2,0.5,0.5,0.5H18h4h0.5c0.3,0,0.5-0.2,0.5-0.5c0-0.3-0.2-0.5-0.5-0.5H22v-7H22.5z"/>
		<path d="M0.5,10h23c0.2,0,0.4-0.1,0.5-0.3c0.1-0.2,0-0.4-0.2-0.6l-11.5-9c-0.2-0.1-0.4-0.1-0.6,0l-11.5,9C0,9.2,0,9.5,0,9.7
			C0.1,9.9,0.3,10,0.5,10z"/>
	</g>
</g>
<g id="Outline_Icons">
	<g>
		<line class="st2" x1="2.5" y1="19.5" x2="2.5" y2="11.5"/>
		<line class="st3" x1="1.5" y1="19.5" x2="6.5" y2="19.5"/>
		<line class="st3" x1="0.5" y1="23.5" x2="23.5" y2="23.5"/>
		<line class="st3" x1="0.5" y1="21.5" x2="23.5" y2="21.5"/>
		<line class="st3" x1="1.5" y1="11.5" x2="6.5" y2="11.5"/>
		<line class="st3" x1="9.5" y1="19.5" x2="14.5" y2="19.5"/>
		<line class="st3" x1="9.5" y1="11.5" x2="14.5" y2="11.5"/>
		<line class="st2" x1="5.5" y1="19.5" x2="5.5" y2="11.5"/>
		<line class="st2" x1="10.5" y1="19.5" x2="10.5" y2="11.5"/>
		<line class="st2" x1="13.5" y1="19.5" x2="13.5" y2="11.5"/>
		<line class="st3" x1="17.5" y1="19.5" x2="22.5" y2="19.5"/>
		<line class="st3" x1="17.5" y1="11.5" x2="22.5" y2="11.5"/>
		<line class="st2" x1="18.5" y1="19.5" x2="18.5" y2="11.5"/>
		<line class="st2" x1="21.5" y1="19.5" x2="21.5" y2="11.5"/>
		<polygon class="st2" points="0.5,9.5 23.5,9.5 12,0.5 		"/>
	</g>
</g>
</svg>
