<?xml version="1.0" encoding="utf-8"?>
<!-- Generator: Adobe Illustrator 19.2.0, SVG Export Plug-In . SVG Version: 6.00 Build 0)  -->
<svg version="1.1" id="Layer_1" xmlns="http://www.w3.org/2000/svg" xmlns:xlink="http://www.w3.org/1999/xlink" x="0px" y="0px"
	 viewBox="0 0 24 24" style="enable-background:new 0 0 24 24;" xml:space="preserve">
<style type="text/css">
	.st0{display:none;}
	.st1{display:inline;}
	.st2{fill:none;stroke:#000000;stroke-linecap:round;stroke-linejoin:round;stroke-miterlimit:10;}
	.st3{fill:none;stroke:#000000;stroke-linejoin:round;stroke-miterlimit:10;}
</style>
<g id="Filled_Icon" class="st0">
	<g class="st1">
		<path d="M0,12.5C0,12.8,0.2,13,0.5,13h4v-1h-4C0.2,12,0,12.2,0,12.5z"/>
		<path d="M0,14.5C0,14.8,0.2,15,0.5,15h4v-1h-4C0.2,14,0,14.2,0,14.5z"/>
		<path d="M0,16.5C0,16.8,0.2,17,0.5,17h4v-1h-4C0.2,16,0,16.2,0,16.5z"/>
		<path d="M0,18.5C0,18.8,0.2,19,0.5,19h4v-1h-4C0.2,18,0,18.2,0,18.5z"/>
		<path d="M23.2,8.1L17.3,12h-3.8v1h4c0.1,0,0.2,0,0.3-0.1l6-4c0.2-0.2,0.3-0.5,0.1-0.7C23.8,8,23.5,7.9,23.2,8.1z"/>
		<path d="M23.2,10.1L17.3,14h-3.8v1h4c0.1,0,0.2,0,0.3-0.1l6-4c0.2-0.2,0.3-0.5,0.1-0.7C23.8,10,23.5,9.9,23.2,10.1z"/>
		<path d="M23.2,12.1L17.3,16h-3.8v1h4c0.1,0,0.2,0,0.3-0.1l6-4c0.2-0.2,0.3-0.5,0.1-0.7C23.8,12,23.5,11.9,23.2,12.1z"/>
		<path d="M23.2,14.1L17.3,18h-3.8v1h4c0.1,0,0.2,0,0.3-0.1l6-4c0.2-0.2,0.3-0.5,0.1-0.7C23.8,14,23.5,13.9,23.2,14.1z"/>
		<path d="M13.5,11h4c0.1,0,0.2,0,0.3-0.1l6-4C24,6.8,24,6.6,24,6.4C23.9,6.1,23.7,6,23.5,6h-4l-6,4.5V11z"/>
		<path d="M6.5,6C6.4,6,6.3,6,6.2,6.1l-6,4C0,10.2,0,10.4,0,10.6C0.1,10.9,0.3,11,0.5,11h4V9.8c0-0.2,0.1-0.3,0.2-0.4L9.2,6H6.5z"/>
		<path d="M11.5,5.5l-6,4.5v9.5h7v-9.2c0-0.2,0.1-0.3,0.2-0.4l5.8-4.4H11.5z M9,13.5c1.1,0,2,0.9,2,2c0,0.9-0.6,1.7-1.5,1.9V18
			c0,0.3-0.2,0.5-0.5,0.5c-0.3,0-0.5-0.2-0.5-0.5v-0.6c-0.9-0.2-1.5-1-1.5-1.9C7,15.2,7.2,15,7.5,15C7.8,15,8,15.2,8,15.5
			c0,0.6,0.4,1,1,1c0.6,0,1-0.4,1-1c0-0.6-0.4-1-1-1c-1.1,0-2-0.9-2-2c0-0.9,0.6-1.7,1.5-1.9V10c0-0.3,0.2-0.5,0.5-0.5
			c0.3,0,0.5,0.2,0.5,0.5v0.6c0.9,0.2,1.5,1,1.5,1.9c0,0.3-0.2,0.5-0.5,0.5c-0.3,0-0.5-0.2-0.5-0.5c0-0.6-0.4-1-1-1
			c-0.6,0-1,0.4-1,1C8,13.1,8.4,13.5,9,13.5z"/>
	</g>
</g>
<g id="Outline_Icons">
	<g>
		<polyline class="st2" points="23.5,8.5 17.5,12.5 12.5,12.5 		"/>
		<polyline class="st2" points="23.5,10.5 17.5,14.5 12.5,14.5 		"/>
		<polyline class="st2" points="23.5,12.5 17.5,16.5 12.5,16.5 		"/>
		<polyline class="st2" points="23.5,14.5 17.5,18.5 12.5,18.5 		"/>
		<polygon class="st2" points="12.5,19.5 5.5,19.5 5.5,10 11.5,5.5 18.5,5.5 12.5,10 		"/>
		<line class="st2" x1="5.5" y1="12.5" x2="0.5" y2="12.5"/>
		<line class="st2" x1="5.5" y1="14.5" x2="0.5" y2="14.5"/>
		<line class="st2" x1="5.5" y1="16.5" x2="0.5" y2="16.5"/>
		<line class="st2" x1="5.5" y1="18.5" x2="0.5" y2="18.5"/>
		<polyline class="st3" points="17,6.5 23.5,6.5 17.5,10.5 12.5,10.5 		"/>
		<polyline class="st3" points="5.5,10.5 0.5,10.5 6.5,6.5 10,6.5 		"/>
		<line class="st2" x1="9" y1="17" x2="9" y2="18"/>
		<line class="st2" x1="9" y1="10" x2="9" y2="11"/>
		<path class="st2" d="M7.5,15.5C7.5,16.3,8.2,17,9,17c0.8,0,1.5-0.7,1.5-1.5c0-0.8-0.7-1.5-1.5-1.5c-0.8,0-1.5-0.7-1.5-1.5
			C7.5,11.7,8.2,11,9,11c0.8,0,1.5,0.7,1.5,1.5"/>
	</g>
</g>
</svg>
