<?xml version="1.0" encoding="utf-8"?>
<!-- Generator: Adobe Illustrator 19.2.0, SVG Export Plug-In . SVG Version: 6.00 Build 0)  -->
<svg version="1.1" id="Layer_1" xmlns="http://www.w3.org/2000/svg" xmlns:xlink="http://www.w3.org/1999/xlink" x="0px" y="0px"
	 viewBox="0 0 24 24" enable-background="new 0 0 24 24" xml:space="preserve">
<g id="Filled_Icons" display="none">
	<g display="inline">
		<path d="M6.183,14.289c-0.552,0.551-0.9,1.248-0.979,1.961c-0.063,0.568,0.048,1.098,0.314,1.531l-1.103,1.103
			c-0.195,0.195-0.195,0.513,0,0.707c0.778,0.78,0.778,2.05,0,2.829c-0.78,0.78-2.051,0.779-2.829,0c-0.78-0.779-0.78-2.049,0-2.828
			c0.195-0.195,0.195-0.513,0-0.707c-0.195-0.195-0.512-0.195-0.707,0c-1.17,1.17-1.17,3.072,0,4.242
			C1.464,23.713,2.232,24.005,3,24.005c0.769,0,1.537-0.292,2.122-0.878c1.048-1.049,1.155-2.687,0.324-3.859l0.783-0.783
			C6.583,18.7,7.001,18.82,7.452,18.82c0.808,0,1.633-0.362,2.266-0.995c0.553-0.554,0.9-1.25,0.979-1.964
			c0.084-0.756-0.139-1.438-0.626-1.926C9.129,12.992,7.312,13.159,6.183,14.289z"/>
		<path d="M15.023,11.816c-0.002-0.001-0.002-0.003-0.002-0.004l-2.83-2.828c-0.001-0.001-0.002-0.001-0.002-0.001l-1.402-1.402
			c-0.195-0.195-0.512-0.195-0.707,0c-0.195,0.195-0.195,0.512,0,0.708l1.051,1.05l-2.121,2.12l-1.05-1.05
			c-0.195-0.195-0.512-0.195-0.707,0c-0.195,0.196-0.195,0.513,0,0.707l5.647,5.646c0.098,0.098,0.226,0.146,0.353,0.146
			c0.128,0,0.256-0.049,0.354-0.146c0.195-0.195,0.195-0.512,0-0.705l-1.061-1.063l2.12-2.121l1.061,1.061
			c0.099,0.098,0.227,0.147,0.355,0.147c0.128,0,0.256-0.049,0.354-0.147c0.194-0.193,0.194-0.511,0-0.707L15.023,11.816z"/>
		<path d="M13.607,6.863c-0.976,0.975-0.976,2.561,0,3.535c0.473,0.473,1.1,0.732,1.768,0.732c0.668,0,1.295-0.26,1.768-0.732
			c0.975-0.975,0.975-2.561,0-3.535C16.197,5.919,14.553,5.919,13.607,6.863z"/>
		<path d="M23.29,0.714c-0.194-0.194-0.513-0.192-0.707,0.002l-1.549,1.556l-0.357-0.356c-0.566-0.568-1.555-0.568-2.121-0.001
			L16.082,4.39l-1.05-1.049c-0.195-0.196-0.513-0.196-0.707,0c-0.195,0.194-0.195,0.511,0,0.706l2.817,2.817l2.828,2.828
			c0.098,0.098,0.225,0.146,0.353,0.146c0.128,0,0.256-0.049,0.354-0.146c0.195-0.195,0.195-0.512,0-0.707l-1.06-1.061l2.475-2.475
			c0.283-0.283,0.44-0.66,0.44-1.06c0-0.401-0.156-0.777-0.44-1.061l-0.351-0.35l1.551-1.557C23.486,1.226,23.486,0.909,23.29,0.714
			z"/>
	</g>
</g>
<g id="Outline_Icons">
	<g>
		
			<ellipse transform="matrix(0.7071 -0.7072 0.7072 0.7071 -9.021 10.324)" fill="none" stroke="#000000" stroke-linejoin="round" stroke-miterlimit="10" cx="7.95" cy="16.05" rx="2.5" ry="2"/>
		
			<line fill="none" stroke="#000000" stroke-linecap="round" stroke-linejoin="round" stroke-miterlimit="10" x1="20.324" y1="9.332" x2="14.68" y2="3.687"/>
		
			<line fill="none" stroke="#000000" stroke-linecap="round" stroke-linejoin="round" stroke-miterlimit="10" x1="16.082" y1="13.575" x2="10.435" y2="7.929"/>
		
			<line fill="none" stroke="#000000" stroke-linecap="round" stroke-linejoin="round" stroke-miterlimit="10" x1="13.254" y1="16.402" x2="7.607" y2="10.757"/>
		<circle fill="none" stroke="#000000" stroke-linejoin="round" stroke-miterlimit="10" cx="15.375" cy="8.625" r="2"/>
		
			<rect x="9.839" y="10.161" transform="matrix(0.7072 -0.7071 0.7071 0.7072 -5.1314 11.9324)" fill="none" stroke="#000000" stroke-linecap="round" stroke-linejoin="round" stroke-miterlimit="10" width="4" height="4"/>
		<path fill="none" stroke="#000000" stroke-linecap="round" stroke-linejoin="round" stroke-miterlimit="10" d="M16.082,5.09
			l2.828,2.828l2.828-2.828c0.391-0.391,0.391-1.023,0-1.413l-1.414-1.414c-0.391-0.392-1.023-0.392-1.414,0L16.082,5.09z"/>
		
			<line fill="none" stroke="#000000" stroke-linecap="round" stroke-linejoin="round" stroke-miterlimit="10" x1="21.035" y1="2.973" x2="22.937" y2="1.063"/>
		<path fill="none" stroke="#000000" stroke-linecap="round" stroke-linejoin="round" stroke-miterlimit="10" d="M6.183,17.816
			l-1.414,1.414c0.975,0.977,0.975,2.56,0,3.537c-0.977,0.976-2.56,0.976-3.536,0c-0.976-0.978-0.977-2.561,0-3.537"/>
	</g>
</g>
</svg>
