<?xml version="1.0" encoding="utf-8"?>
<!-- Generator: Adobe Illustrator 19.2.0, SVG Export Plug-In . SVG Version: 6.00 Build 0)  -->
<svg version="1.1" id="Layer_1" xmlns="http://www.w3.org/2000/svg" xmlns:xlink="http://www.w3.org/1999/xlink" x="0px" y="0px"
	 viewBox="0 0 24 24" enable-background="new 0 0 24 24" xml:space="preserve">
<g id="Filled_Icons" display="none">
	<g display="inline">
		<path d="M16,1.031V0.506c0-0.275-0.225-0.5-0.5-0.5c-0.275,0-0.5,0.225-0.5,0.5v10.5H3.5c-0.276,0-0.5,0.225-0.5,0.5
			c0,2.482,1.399,4.642,3.45,5.737l-0.944,6.188C5.46,23.731,5.689,24.006,6,24.006c0.243,0,0.456-0.177,0.494-0.425l0.545-3.575
			h4.591l0.009,0.203c-0.671,0.322-1.139,1.004-1.139,1.797c0,1.104,0.896,2,2,2c1.103,0,2-0.896,2-2
			c0-1.059-0.828-1.916-1.868-1.986l-0.118-2.76c1.938-1.018,3.295-2.983,3.463-5.277C18.786,11.74,21,9.378,21,6.506
			C21,3.643,18.799,1.285,16,1.031z M8.5,13.006h2c0.275,0,0.5,0.225,0.5,0.5c0,0.275-0.225,0.5-0.5,0.5h-2
			c-0.276,0-0.5-0.225-0.5-0.5C8,13.231,8.224,13.006,8.5,13.006z M7.192,19.006l0.206-1.354c0.66,0.227,1.365,0.354,2.102,0.354
			c0.709,0,1.391-0.117,2.031-0.328l0.057,1.328H7.192z"/>
		<path d="M4.5,10.006h9c0.275,0,0.5-0.224,0.5-0.5c0-0.275-0.225-0.5-0.5-0.5h-9c-0.276,0-0.5,0.225-0.5,0.5
			C4,9.782,4.224,10.006,4.5,10.006z"/>
	</g>
</g>
<g id="Outline_Icons">
	<g>
		<path fill="none" stroke="#000000" stroke-linecap="round" stroke-linejoin="round" stroke-miterlimit="10" d="M20.5,6.5
			c0,2.762-2.24,5-5,5v-10C18.26,1.5,20.5,3.738,20.5,6.5z"/>
		
			<line fill="none" stroke="#000000" stroke-linecap="round" stroke-linejoin="round" stroke-miterlimit="10" x1="15.5" y1="1.5" x2="15.5" y2="0.5"/>
		
			<line fill="none" stroke="#000000" stroke-linecap="round" stroke-linejoin="round" stroke-miterlimit="10" x1="8.5" y1="13.5" x2="10.5" y2="13.5"/>
		
			<line fill="none" stroke="#000000" stroke-linecap="round" stroke-linejoin="round" stroke-miterlimit="10" x1="4.5" y1="9.5" x2="13.5" y2="9.5"/>
		
			<line fill="none" stroke="#000000" stroke-linecap="round" stroke-linejoin="round" stroke-miterlimit="10" x1="6" y1="23.5" x2="7" y2="16.953"/>
		
			<circle fill="none" stroke="#000000" stroke-linecap="round" stroke-linejoin="round" stroke-miterlimit="10" cx="12.5" cy="22" r="1.5"/>
		
			<line fill="none" stroke="#000000" stroke-linecap="round" stroke-linejoin="round" stroke-miterlimit="10" x1="12" y1="16.922" x2="12.154" y2="20.542"/>
		<line fill="none" stroke="#000000" stroke-linejoin="round" stroke-miterlimit="10" x1="6.625" y1="19.5" x2="12.109" y2="19.5"/>
		<path fill="none" stroke="#000000" stroke-linejoin="round" stroke-miterlimit="10" d="M9.5,17.5c3.312,0,6-2.687,6-6h-12
			C3.5,14.813,6.186,17.5,9.5,17.5z"/>
	</g>
</g>
</svg>
