<?xml version="1.0" encoding="utf-8"?>
<!-- Generator: Adobe Illustrator 19.2.0, SVG Export Plug-In . SVG Version: 6.00 Build 0)  -->
<svg version="1.1" id="Outline_Icons" xmlns="http://www.w3.org/2000/svg" xmlns:xlink="http://www.w3.org/1999/xlink" x="0px"
	 y="0px" viewBox="0 0 24 24" style="enable-background:new 0 0 24 24;" xml:space="preserve">
<style type="text/css">
	.st0{fill:none;stroke:#000000;stroke-linecap:round;stroke-linejoin:round;stroke-miterlimit:10;}
	.st1{fill:none;stroke:#000000;stroke-linejoin:round;stroke-miterlimit:10;}
</style>
<g>
	<polyline class="st0" points="0.5,18.5 0.5,21.5 3.5,21.5 	"/>
	<polyline class="st0" points="3.5,2.5 0.5,2.5 0.5,5.5 	"/>
	<polyline class="st0" points="23.5,5.5 23.5,2.5 20.5,2.5 	"/>
	<polyline class="st0" points="20.5,21.5 23.5,21.5 23.5,18.5 	"/>
	<line class="st1" x1="3.5" y1="7" x2="3.5" y2="17"/>
	<line class="st1" x1="5.5" y1="7" x2="5.5" y2="14"/>
	<line class="st1" x1="7.5" y1="7" x2="7.5" y2="14"/>
	<line class="st1" x1="10.5" y1="7" x2="10.5" y2="14"/>
	<line class="st1" x1="12.5" y1="7" x2="12.5" y2="14"/>
	<line class="st1" x1="14.5" y1="7" x2="14.5" y2="14"/>
	<line class="st1" x1="16.5" y1="7" x2="16.5" y2="14"/>
	<line class="st1" x1="18.5" y1="7" x2="18.5" y2="14"/>
	<line class="st1" x1="20.5" y1="7" x2="20.5" y2="17"/>
	<g>
		<polygon points="6,15 5,15 5,16 6,16 		"/>
	</g>
	<g>
		<polygon points="8,15 7,15 7,16 8,16 		"/>
	</g>
	<g>
		<polygon points="11,15 10,15 10,16 11,16 		"/>
	</g>
	<g>
		<polygon points="13,15 12,15 12,16 13,16 		"/>
	</g>
	<g>
		<polygon points="15,15 14,15 14,16 15,16 		"/>
	</g>
	<g>
		<polygon points="17,15 16,15 16,16 17,16 		"/>
	</g>
	<g>
		<polygon points="19,15 18,15 18,16 19,16 		"/>
	</g>
</g>
</svg>
