<?xml version="1.0" encoding="utf-8"?>
<!-- Generator: Adobe Illustrator 19.2.0, SVG Export Plug-In . SVG Version: 6.00 Build 0)  -->
<svg version="1.1" id="Outline_Icons" xmlns="http://www.w3.org/2000/svg" xmlns:xlink="http://www.w3.org/1999/xlink" x="0px"
	 y="0px" viewBox="0 0 24 24" style="enable-background:new 0 0 24 24;" xml:space="preserve">
<style type="text/css">
	.st0{fill:none;stroke:#000000;stroke-linejoin:round;stroke-miterlimit:10;}
</style>
<g>
	<path class="st0" d="M23.5,17.5c0,1.1-0.9,2-2,2h-19c-1.1,0-2-0.9-2-2v-10c0-1.1,0.9-2,2-2h19c1.1,0,2,0.9,2,2V17.5z"/>
	<line class="st0" x1="2.5" y1="8" x2="2.5" y2="17"/>
	<line class="st0" x1="4.5" y1="8" x2="4.5" y2="15"/>
	<line class="st0" x1="6.5" y1="8" x2="6.5" y2="15"/>
	<line class="st0" x1="9.5" y1="8" x2="9.5" y2="15"/>
	<line class="st0" x1="11.5" y1="8" x2="11.5" y2="15"/>
	<line class="st0" x1="15.5" y1="8" x2="15.5" y2="15"/>
	<line class="st0" x1="17.5" y1="8" x2="17.5" y2="15"/>
	<line class="st0" x1="19.5" y1="8" x2="19.5" y2="15"/>
	<line class="st0" x1="21.5" y1="8" x2="21.5" y2="17"/>
	<g>
		<polygon points="5,16 4,16 4,17 5,17 		"/>
	</g>
	<g>
		<polygon points="7,16 6,16 6,17 7,17 		"/>
	</g>
	<g>
		<polygon points="10,16 9,16 9,17 10,17 		"/>
	</g>
	<g>
		<polygon points="12,16 11,16 11,17 12,17 		"/>
	</g>
	<g>
		<polygon points="16,16 15,16 15,17 16,17 		"/>
	</g>
	<g>
		<polygon points="18,16 17,16 17,17 18,17 		"/>
	</g>
	<g>
		<polygon points="20,16 19,16 19,17 20,17 		"/>
	</g>
</g>
</svg>
