<?xml version="1.0" encoding="utf-8"?>
<!-- Generator: Adobe Illustrator 19.2.0, SVG Export Plug-In . SVG Version: 6.00 Build 0)  -->
<svg version="1.1" id="Layer_1" xmlns="http://www.w3.org/2000/svg" xmlns:xlink="http://www.w3.org/1999/xlink" x="0px" y="0px"
	 viewBox="0 0 24 24" style="enable-background:new 0 0 24 24;" xml:space="preserve">
<style type="text/css">
	.st0{display:none;}
	.st1{display:inline;}
	.st2{fill:none;stroke:#000000;stroke-linecap:round;stroke-linejoin:round;stroke-miterlimit:10;}
	.st3{fill:none;stroke:#000000;stroke-linejoin:round;stroke-miterlimit:10;}
</style>
<g id="Filled_Icons" class="st0">
	<g class="st1">
		<path d="M23.8,8.6L12.3,0.1c-0.2-0.1-0.4-0.1-0.6,0L0.2,8.6C0.1,8.7,0,8.8,0,9v3.5c0,0.2,0.1,0.4,0.3,0.4C0.3,13,0.4,13,0.5,13
			c0.1,0,0.2,0,0.3-0.1L12,4.6l11.2,8.3c0.2,0.1,0.4,0.1,0.5,0c0.2-0.1,0.3-0.3,0.3-0.4V9C24,8.8,23.9,8.7,23.8,8.6z"/>
		<path d="M23.5,23H22v-9.7L12,5.9L2,13.3V23H0.5C0.2,23,0,23.2,0,23.5C0,23.8,0.2,24,0.5,24h7.2l4.3-4.3l4.3,4.3h7.2
			c0.3,0,0.5-0.2,0.5-0.5C24,23.2,23.8,23,23.5,23z M12,8c1.4,0,2.5,1.1,2.5,2.5c0,1.4-1.1,2.5-2.5,2.5c-1.4,0-2.5-1.1-2.5-2.5
			C9.5,9.1,10.6,8,12,8z M7,23.3v-8.6l4.3,4.3L7,23.3z M7.7,14h8.6L12,18.3L7.7,14z M17,23.3L12.7,19l4.3-4.3V23.3z"/>
	</g>
</g>
<g id="Outline_Icons">
	<g>
		<line class="st2" x1="0.5" y1="23.5" x2="23.5" y2="23.5"/>
		<polyline class="st2" points="2.5,11 2.5,23.5 21.5,23.5 21.5,11 		"/>
		<polygon class="st2" points="23.5,9 12,0.5 0.5,9 0.5,12.5 12,4 23.5,12.5 		"/>
		<rect x="6.5" y="13.5" class="st2" width="11" height="10"/>
		<line class="st3" x1="6.5" y1="13.5" x2="17.5" y2="23.5"/>
		<line class="st3" x1="17.5" y1="13.5" x2="6.5" y2="23.5"/>
		<circle class="st3" cx="12" cy="9" r="2"/>
	</g>
</g>
</svg>
