<?xml version="1.0" encoding="utf-8"?>
<!-- Generator: Adobe Illustrator 19.2.0, SVG Export Plug-In . SVG Version: 6.00 Build 0)  -->
<svg version="1.1" id="Layer_1" xmlns="http://www.w3.org/2000/svg" xmlns:xlink="http://www.w3.org/1999/xlink" x="0px" y="0px"
	 viewBox="0 0 24 24" enable-background="new 0 0 24 24" xml:space="preserve">
<g id="Filled_Icons" display="none">
	<g display="inline">
		<path d="M9.958,5.006c0.967,0,2-0.263,2-1c0-0.737-1.033-1-2-1c-0.967,0-2,0.263-2,1C7.958,4.743,8.991,5.006,9.958,5.006z"/>
		<path d="M21.986,12.335c0.011-2.101-0.18-4.521-0.745-7.153c-0.209-1-0.142-0.602-0.294-1.276c-0.102-2.194-3.57-3.9-7.989-3.9
			c-4.418,0-7.885,1.705-7.989,3.899C4.951,3.97,4.813,4.58,4.696,5.174C4.16,7.845,3.984,10.299,3.999,12.42
			c0,0.004,0,0.008,0,0.012c0.033,4.537,0.922,7.529,0.979,7.71c0.045,0.157,1.182,3.862,7.98,3.862
			c6.798,0,7.936-3.705,7.976-3.843c0.004-0.016,0.017-0.051,0.031-0.104c0.176-0.562,0.998-3.459,1.022-7.699
			C21.986,12.352,21.986,12.344,21.986,12.335z M5.331,7.387c0.916,1.303,4.081,2.619,7.627,2.619c3.642,0,6.828-1.324,7.673-2.607
			c0.239,1.62,0.335,3.138,0.344,4.526c-1.55,1.237-4.613,2.081-8.017,2.081c-3.313,0-6.354-0.852-7.949-2.129
			C5.019,10.5,5.109,8.994,5.331,7.387z M12.958,17.006c2.769,0,6.088-0.507,7.876-1.835c-0.241,2.538-0.712,4.218-0.828,4.605
			c-1.984,0.869-4.606,1.23-7.006,1.23c-2.438,0-5.104-0.373-7.1-1.271c-0.121-0.437-0.539-2.074-0.76-4.527
			C6.939,16.506,10.218,17.006,12.958,17.006z M12.958,1.006c4.125,0,7,1.582,7,3c0,1.419-2.875,3-7,3s-7-1.581-7-3
			C5.958,2.587,8.833,1.006,12.958,1.006z"/>
	</g>
</g>
<g id="Outline_Icons">
	<g>
		
			<ellipse fill="none" stroke="#000000" stroke-linecap="round" stroke-linejoin="round" stroke-miterlimit="10" cx="12.958" cy="4" rx="7.5" ry="3.5"/>
		<path fill="none" stroke="#000000" stroke-linecap="round" stroke-linejoin="round" stroke-miterlimit="10" d="M21.339,14.682
			c-0.773,1.606-4.232,2.818-8.381,2.818c-4.082,0-7.495-1.173-8.341-2.741"/>
		<path fill="none" stroke="#000000" stroke-linecap="round" stroke-linejoin="round" stroke-miterlimit="10" d="M21.449,10.596
			c-0.773,1.607-4.342,2.904-8.491,2.904c-4.082,0-7.578-1.335-8.424-2.904"/>
		<path fill="none" stroke="#000000" stroke-linecap="round" stroke-linejoin="round" stroke-miterlimit="10" d="M21.008,17.656
			c-0.832,1.554-4.183,2.844-8.05,2.844c-6.698,0-8.222-3.139-7.995-2.738"/>
		<path fill="none" stroke="#000000" stroke-linecap="round" stroke-linejoin="round" stroke-miterlimit="10" d="M21.154,7.5
			c-0.832,1.553-4.329,3-8.196,3c-3.831,0-7.281-1.469-8.15-3"/>
		<path fill="none" stroke="#000000" stroke-linecap="round" stroke-linejoin="round" stroke-miterlimit="10" d="M20.458,4
			c2.313,9,0,16,0,16s-1,3.5-7.5,3.5s-7.5-3.5-7.5-3.5s-2.156-7,0-16"/>
		<ellipse fill="none" stroke="#000000" stroke-linejoin="round" stroke-miterlimit="10" cx="9.958" cy="4" rx="1.5" ry="0.5"/>
	</g>
</g>
</svg>
