<?xml version="1.0" encoding="utf-8"?>
<!-- Generator: Adobe Illustrator 19.2.0, SVG Export Plug-In . SVG Version: 6.00 Build 0)  -->
<svg version="1.1" id="Layer_1" xmlns="http://www.w3.org/2000/svg" xmlns:xlink="http://www.w3.org/1999/xlink" x="0px" y="0px"
	 viewBox="0 0 24 24" style="enable-background:new 0 0 24 24;" xml:space="preserve">
<style type="text/css">
	.st0{display:none;}
	.st1{display:inline;}
	.st2{fill:none;stroke:#000000;stroke-linejoin:round;stroke-miterlimit:10;}
</style>
<g id="Filled_Icons" class="st0">
	<g class="st1">
		<path d="M17.8,15.2c-1.7,0-3,1.3-3,3c0,1.7,1.3,3,3,3c1.7,0,3-1.3,3-3C20.8,16.6,19.5,15.2,17.8,15.2z"/>
		<g>
			<path d="M22.1,1.8c-0.7-0.7-1.8-1.1-2.8-1.1c-1.1,0.1-2,0.6-2.7,1.4L5.7,15.4h0l2.8,2.8l13.2-11c0.8-0.7,1.3-1.6,1.4-2.7
				C23.2,3.6,22.8,2.6,22.1,1.8z"/>
			<rect x="5.2" y="16.1" transform="matrix(0.7066 -0.7076 0.7076 0.7066 -11.0614 9.4936)" width="1.5" height="4"/>
			<path d="M6.1,20.7l-2.8-2.8L2.1,19c-0.6-0.2-1.2-0.2-1.7,0.3C0.2,19.6,0,20,0,20.4c0,0.4,0.2,0.8,0.4,1.1l2.1,2.1
				C2.8,23.8,3.2,24,3.6,24c0.4,0,0.8-0.2,1.1-0.4c0.3-0.3,0.4-0.7,0.4-1.1c0-0.2-0.1-0.4-0.1-0.6L6.1,20.7z"/>
		</g>
	</g>
</g>
<g id="Outline_Icons">
	<g>
		<circle class="st2" cx="17.8" cy="18.2" r="2.5"/>
		<path class="st2" d="M21.5,6.9c0.7-0.6,1.1-1.4,1.2-2.3c0-0.9-0.3-1.8-0.9-2.4c-0.6-0.6-1.5-1-2.4-0.9c-0.9,0.1-1.8,0.5-2.3,1.2
			L6.1,15.8l-3.9,3.9l2.1,2.1l3.9-3.9L21.5,6.9z"/>
		<path class="st2" d="M0.8,19.7c0.4-0.4,1-0.4,1.4,0l2.1,2.1c0.4,0.4,0.4,1,0,1.4c-0.4,0.4-1,0.4-1.4,0l-2.1-2.1
			C0.4,20.7,0.4,20.1,0.8,19.7z"/>
		<line class="st2" x1="5.7" y1="16.1" x2="7.9" y2="18.3"/>
		<line class="st2" x1="4" y1="17.9" x2="6.1" y2="20"/>
	</g>
</g>
</svg>
