<?xml version="1.0" encoding="utf-8"?>
<!-- Generator: Adobe Illustrator 19.2.0, SVG Export Plug-In . SVG Version: 6.00 Build 0)  -->
<svg version="1.1" id="Layer_1" xmlns="http://www.w3.org/2000/svg" xmlns:xlink="http://www.w3.org/1999/xlink" x="0px" y="0px"
	 viewBox="0 0 24 24" style="enable-background:new 0 0 24 24;" xml:space="preserve">
<style type="text/css">
	.st0{display:none;}
	.st1{display:inline;}
	.st2{fill:none;stroke:#000000;stroke-linecap:round;stroke-linejoin:round;stroke-miterlimit:10;}
	.st3{fill:none;stroke:#000000;stroke-linejoin:round;stroke-miterlimit:10;}
</style>
<g id="Filled_Icon" class="st0">
	<g class="st1">
		<g>
			<g>
				<g>
					<path d="M3.5,6C3.4,6,3.2,5.9,3.1,5.8C2.9,5.6,3,5.3,3.2,5.1l6-5C9.4-0.1,9.7,0,9.9,0.2c0.2,0.2,0.1,0.5-0.1,0.7l-6,5
						C3.7,6,3.6,6,3.5,6z"/>
				</g>
				<g>
					<path d="M17.5,6c-0.1,0-0.2,0-0.3-0.1l-6-5c-0.2-0.2-0.2-0.5-0.1-0.7c0.2-0.2,0.5-0.2,0.7-0.1l6,5c0.2,0.2,0.2,0.5,0.1,0.7
						C17.8,5.9,17.6,6,17.5,6z"/>
				</g>
			</g>
			<path d="M12,18.5c0-3.6,2.9-6.5,6.5-6.5c0.3,0,0.6,0,1,0.1l0.4-2.1h0.6c0.3,0,0.5-0.2,0.5-0.5v-2C21,7.2,20.8,7,20.5,7h-20
				C0.2,7,0,7.2,0,7.5v2C0,9.8,0.2,10,0.5,10h0.6L3,18.6C3.1,18.8,3.3,19,3.5,19H12C12,18.8,12,18.7,12,18.5z M1.5,9H1V8h19v1h-0.5
				H1.5z"/>
		</g>
		<path d="M18.5,13c-3,0-5.5,2.5-5.5,5.5c0,3,2.5,5.5,5.5,5.5c3,0,5.5-2.5,5.5-5.5C24,15.5,21.5,13,18.5,13z M21.4,17.4l-3,3
			c-0.1,0.1-0.2,0.1-0.4,0.1c-0.1,0-0.3-0.1-0.4-0.1l-2-2c-0.2-0.2-0.2-0.5,0-0.7c0.2-0.2,0.5-0.2,0.7,0l1.6,1.6l2.7-2.6
			c0.2-0.2,0.5-0.2,0.7,0C21.5,16.8,21.5,17.2,21.4,17.4z"/>
	</g>
</g>
<g id="Outline_Icons">
	<g>
		<polyline class="st2" points="11.5,18.5 3.5,18.5 1.5,9.5 19.5,9.5 18.9,12 		"/>
		<rect x="0.5" y="7.5" class="st2" width="20" height="2"/>
		<line class="st2" x1="3.5" y1="5.5" x2="9.5" y2="0.5"/>
		<line class="st2" x1="17.5" y1="5.5" x2="11.5" y2="0.5"/>
		<g>
			<polyline class="st2" points="21,17 18,20 16,18 			"/>
			<circle class="st3" cx="18.5" cy="18.5" r="5"/>
		</g>
	</g>
</g>
</svg>
