<?xml version="1.0" encoding="utf-8"?>
<!-- Generator: Adobe Illustrator 19.2.0, SVG Export Plug-In . SVG Version: 6.00 Build 0)  -->
<svg version="1.1" id="Layer_1" xmlns="http://www.w3.org/2000/svg" xmlns:xlink="http://www.w3.org/1999/xlink" x="0px" y="0px"
	 viewBox="0 0 24 24" style="enable-background:new 0 0 24 24;" xml:space="preserve">
<style type="text/css">
	.st0{display:none;}
	.st1{display:inline;}
	.st2{fill:none;stroke:#000000;stroke-linecap:round;stroke-linejoin:round;stroke-miterlimit:10;}
	.st3{fill:none;stroke:#000000;stroke-linejoin:round;stroke-miterlimit:10;}
</style>
<g id="Filled_Icon" class="st0">
	<g class="st1">
		<g>
			<g>
				<path d="M3.5,6C3.4,6,3.2,5.9,3.1,5.8C2.9,5.6,3,5.3,3.2,5.1l6-5C9.4-0.1,9.7,0,9.9,0.2c0.2,0.2,0.1,0.5-0.1,0.7l-6,5
					C3.7,6,3.6,6,3.5,6z"/>
			</g>
			<g>
				<path d="M17.5,6c-0.1,0-0.2,0-0.3-0.1l-6-5c-0.2-0.2-0.2-0.5-0.1-0.7c0.2-0.2,0.5-0.2,0.7-0.1l6,5c0.2,0.2,0.2,0.5,0.1,0.7
					C17.8,5.9,17.6,6,17.5,6z"/>
			</g>
		</g>
		<path d="M13,17.2c0-2.7,1.8-4,3.4-4c0.9,0,1.8,0.4,2.5,1l0.9-4.3h0.6c0.3,0,0.5-0.2,0.5-0.5v-2C21,7.2,20.8,7,20.5,7h-20
			C0.2,7,0,7.2,0,7.5v2C0,9.8,0.2,10,0.5,10h0.6L3,18.6C3.1,18.8,3.3,19,3.5,19h9.8C13.1,18.4,13,17.9,13,17.2z M1.5,9H1V8h19v1
			h-0.5H1.5z"/>
		<path d="M21.6,14.2c-0.9,0-1.9,0.5-2.6,1.6c-0.6-1-1.6-1.6-2.6-1.6c-1.2,0-2.4,0.9-2.4,3c0,4,4.6,6.6,4.8,6.7
			c0.1,0,0.2,0.1,0.2,0.1c0.1,0,0.2,0,0.2-0.1c0.2-0.1,4.8-2.7,4.8-6.9C24,15.1,22.8,14.2,21.6,14.2z"/>
	</g>
</g>
<g id="Outline_Icons">
	<g>
		<polyline class="st2" points="11.5,18.5 3.5,18.5 1.5,9.5 19.5,9.5 18.9,12 		"/>
		<rect x="0.5" y="7.5" class="st2" width="20" height="2"/>
		<line class="st2" x1="3.5" y1="5.5" x2="9.5" y2="0.5"/>
		<line class="st2" x1="17.5" y1="5.5" x2="11.5" y2="0.5"/>
		<path class="st3" d="M19,23.5c0,0,4.5-2.5,4.5-6.5c0-3-3.5-3-4.5,0c-1-3-4.5-3-4.5,0.2C14.5,21,19,23.5,19,23.5z"/>
	</g>
</g>
</svg>
