<?xml version="1.0" encoding="utf-8"?>
<!-- Generator: Adobe Illustrator 19.2.0, SVG Export Plug-In . SVG Version: 6.00 Build 0)  -->
<svg version="1.1" id="Layer_1" xmlns="http://www.w3.org/2000/svg" xmlns:xlink="http://www.w3.org/1999/xlink" x="0px" y="0px"
	 viewBox="0 0 24 24" style="enable-background:new 0 0 24 24;" xml:space="preserve">
<style type="text/css">
	.st0{display:none;}
	.st1{display:inline;}
	.st2{fill:none;stroke:#000000;stroke-linecap:round;stroke-linejoin:round;stroke-miterlimit:10;}
</style>
<g id="Filled_Icon" class="st0">
	<g class="st1">
		<path d="M23.5,9h-23C0.2,9,0,9.2,0,9.5v2C0,11.8,0.2,12,0.5,12h0.6L3,22.6c0,0.2,0.2,0.4,0.5,0.4h17c0.2,0,0.4-0.2,0.5-0.4
			L22.9,12h0.6c0.3,0,0.5-0.2,0.5-0.5v-2C24,9.2,23.8,9,23.5,9z M23,11h-0.5h-21H1v-1h22V11z"/>
		<path d="M3.5,8c0.1,0,0.3,0,0.4-0.1l6-6c0.2-0.2,0.2-0.5,0-0.7C9.7,1,9.3,1,9.1,1.1l-6,6C3,7.3,3,7.7,3.1,7.9C3.2,8,3.4,8,3.5,8z"
			/>
		<path d="M20.1,7.9C20.2,8,20.4,8,20.5,8c0.1,0,0.3,0,0.4-0.1c0.2-0.2,0.2-0.5,0-0.7l-6-6c-0.2-0.2-0.5-0.2-0.7,0
			c-0.2,0.2-0.2,0.5,0,0.7L20.1,7.9z"/>
	</g>
</g>
<g id="Outline_Icons">
	<g>
		<polygon class="st2" points="20.5,22.5 3.5,22.5 1.5,11.5 22.5,11.5 		"/>
		<rect x="0.5" y="9.5" class="st2" width="23" height="2"/>
		<line class="st2" x1="3.5" y1="7.5" x2="9.5" y2="1.5"/>
		<line class="st2" x1="20.5" y1="7.5" x2="14.5" y2="1.5"/>
	</g>
</g>
</svg>
