<?xml version="1.0" encoding="utf-8"?>
<!-- Generator: Adobe Illustrator 19.2.0, SVG Export Plug-In . SVG Version: 6.00 Build 0)  -->
<svg version="1.1" id="Layer_1" xmlns="http://www.w3.org/2000/svg" xmlns:xlink="http://www.w3.org/1999/xlink" x="0px" y="0px"
	 viewBox="0 0 24 24" style="enable-background:new 0 0 24 24;" xml:space="preserve">
<style type="text/css">
	.st0{display:none;}
	.st1{display:inline;}
	.st2{fill:none;stroke:#000000;stroke-linejoin:round;stroke-miterlimit:10;}
</style>
<g id="Filled_Icons" class="st0">
	<g class="st1">
		<path d="M23.8,5.1l-6.4-4C17.3,1,17.2,1,17.1,1H7C6.9,1,6.8,1,6.7,1.1l-6.5,4C0.1,5.2,0,5.3,0,5.5v9c0,0.2,0.1,0.4,0.3,0.5l4.5,2
			c0.1,0,0.1,0,0.2,0V8.5C5,8.2,5.2,8,5.5,8h13C18.8,8,19,8.2,19,8.5V17h0.1c0.1,0,0.1,0,0.2,0l4.4-2c0.2-0.1,0.3-0.3,0.3-0.5v-9
			C24,5.3,23.9,5.2,23.8,5.1z"/>
		<g>
			<rect x="11" y="17" width="2" height="2"/>
			<rect x="11" y="20" width="2" height="3"/>
			<path d="M14,16h2.7l0.3-2.4c0-0.1,0-0.3-0.1-0.4c-0.1-0.1-0.2-0.2-0.4-0.2H14V16z"/>
			<polygon points="10,17 7.4,17 7.6,19 10,19 			"/>
			<path d="M10,20H7.7L8,22.6C8,22.8,8.2,23,8.5,23H10V20z"/>
			<path d="M14,20v3h1.5c0.3,0,0.5-0.2,0.5-0.4l0.3-2.6H14z"/>
			<path d="M10,16v-3H7.5c-0.1,0-0.3,0.1-0.4,0.2C7,13.3,7,13.4,7,13.6L7.3,16H10z"/>
			<rect x="11" y="13" width="2" height="3"/>
			<polygon points="16.6,17 14,17 14,19 16.4,19 			"/>
		</g>
	</g>
</g>
<g id="Outline_Icons">
	<g>
		<polyline class="st2" points="8,16.5 5,16.5 0.5,14.5 0.5,5.5 7,1.5 17.1,1.5 23.5,5.5 23.5,14.5 19.1,16.5 16,16.5 		"/>
		<polyline class="st2" points="5.5,16.5 5.5,8.5 18.5,8.5 18.5,16.5 		"/>
		<polygon class="st2" points="7.5,13.5 16.5,13.5 15.5,22.5 8.5,22.5 		"/>
		<line class="st2" x1="8" y1="16.5" x2="16" y2="16.5"/>
		<line class="st2" x1="8.2" y1="19.5" x2="15.8" y2="19.5"/>
		<line class="st2" x1="10.5" y1="13.5" x2="10.5" y2="22.5"/>
		<line class="st2" x1="13.5" y1="13.5" x2="13.5" y2="22.5"/>
	</g>
</g>
</svg>
