<?xml version="1.0" encoding="utf-8"?>
<!-- Generator: Adobe Illustrator 19.2.0, SVG Export Plug-In . SVG Version: 6.00 Build 0)  -->
<svg version="1.1" id="Outline_Icons" xmlns="http://www.w3.org/2000/svg" xmlns:xlink="http://www.w3.org/1999/xlink" x="0px"
	 y="0px" viewBox="0 0 24 24" style="enable-background:new 0 0 24 24;" xml:space="preserve">
<style type="text/css">
	.st0{fill:none;stroke:#000000;stroke-linecap:round;stroke-linejoin:round;stroke-miterlimit:10;}
</style>
<g>
	<polyline class="st0" points="11.5,18.5 3.5,18.5 1.5,9.5 19.5,9.5 18.9,12 	"/>
	<rect x="0.5" y="7.5" class="st0" width="20" height="2"/>
	<line class="st0" x1="3.5" y1="5.5" x2="9.5" y2="0.5"/>
	<line class="st0" x1="17.5" y1="5.5" x2="11.5" y2="0.5"/>
	<g>
		<polyline class="st0" points="23.5,15 23.5,17.5 20.5,17.5 		"/>
		<path class="st0" d="M14.3,17.5c0.6-1.7,2.3-3,4.2-3s3.8,1.2,4.5,3"/>
		<g>
			<polyline class="st0" points="14.5,23 14.5,20.5 17,20.5 			"/>
			<path class="st0" d="M23.2,20.5c-0.6,1.7-2.3,3-4.2,3s-3.8-1.2-4.5-3"/>
		</g>
	</g>
</g>
</svg>
