<?xml version="1.0" encoding="utf-8"?>
<!-- Generator: Adobe Illustrator 19.2.0, SVG Export Plug-In . SVG Version: 6.00 Build 0)  -->
<svg version="1.1" id="Layer_1" xmlns="http://www.w3.org/2000/svg" xmlns:xlink="http://www.w3.org/1999/xlink" x="0px" y="0px"
	 viewBox="0 0 24 24" style="enable-background:new 0 0 24 24;" xml:space="preserve">
<style type="text/css">
	.st0{display:none;}
	.st1{display:inline;}
	.st2{fill:none;stroke:#000000;stroke-linecap:round;stroke-linejoin:round;stroke-miterlimit:10;}
	.st3{fill:none;stroke:#000000;stroke-linejoin:round;stroke-miterlimit:10;}
</style>
<g id="Filled_Icon" class="st0">
	<g class="st1">
		<path d="M18.5,12c0.3,0,0.6,0,0.9,0.1l0.5-2.1h0.6c0.3,0,0.5-0.2,0.5-0.5v-2C21,7.2,20.8,7,20.5,7h-20C0.2,7,0,7.2,0,7.5v2
			C0,9.8,0.2,10,0.5,10h0.6L3,18.6C3.1,18.8,3.3,19,3.5,19H12c0-0.2,0-0.3,0-0.5C12,14.9,14.9,12,18.5,12z M1.5,9H1V8h19v1h-0.5H1.5
			z"/>
		<path d="M3.5,6c0.1,0,0.2,0,0.3-0.1l6-5c0.2-0.2,0.2-0.5,0.1-0.7C9.7,0,9.4-0.1,9.2,0.1l-6,5C3,5.3,2.9,5.6,3.1,5.8
			C3.2,5.9,3.4,6,3.5,6z"/>
		<path d="M17.2,5.9C17.3,6,17.4,6,17.5,6c0.1,0,0.3-0.1,0.4-0.2c0.2-0.2,0.1-0.5-0.1-0.7l-6-5c-0.2-0.2-0.5-0.1-0.7,0.1
			c-0.2,0.2-0.1,0.5,0.1,0.7L17.2,5.9z"/>
		<path d="M18.5,13c-3,0-5.5,2.5-5.5,5.5c0,3,2.5,5.5,5.5,5.5c3,0,5.5-2.5,5.5-5.5C24,15.5,21.5,13,18.5,13z M21,19h-2v2
			c0,0.3-0.2,0.5-0.5,0.5c-0.3,0-0.5-0.2-0.5-0.5v-2h-0.5H16c-0.3,0-0.5-0.2-0.5-0.5c0-0.3,0.2-0.5,0.5-0.5h1.1H18v-2
			c0-0.3,0.2-0.5,0.5-0.5c0.3,0,0.5,0.2,0.5,0.5v2h2c0.3,0,0.5,0.2,0.5,0.5C21.5,18.8,21.3,19,21,19z"/>
	</g>
</g>
<g id="Outline_Icons">
	<g>
		<polyline class="st2" points="11.5,18.5 3.5,18.5 1.5,9.5 19.5,9.5 19,12 		"/>
		<rect x="0.5" y="7.5" class="st2" width="20" height="2"/>
		<line class="st2" x1="3.5" y1="5.5" x2="9.5" y2="0.5"/>
		<line class="st2" x1="17.5" y1="5.5" x2="11.5" y2="0.5"/>
		<g>
			<circle class="st3" cx="18.5" cy="18.5" r="5"/>
			<line class="st2" x1="18.5" y1="16" x2="18.5" y2="21"/>
			<line class="st2" x1="21" y1="18.5" x2="16" y2="18.5"/>
		</g>
	</g>
</g>
</svg>
