<?xml version="1.0" encoding="utf-8"?>
<!-- Generator: Adobe Illustrator 19.2.0, SVG Export Plug-In . SVG Version: 6.00 Build 0)  -->
<svg version="1.1" id="Layer_1" xmlns="http://www.w3.org/2000/svg" xmlns:xlink="http://www.w3.org/1999/xlink" x="0px" y="0px"
	 viewBox="0 0 24 24" style="enable-background:new 0 0 24 24;" xml:space="preserve">
<style type="text/css">
	.st0{display:none;}
	.st1{display:inline;}
	.st2{fill:none;stroke:#000000;stroke-linecap:round;stroke-linejoin:round;stroke-miterlimit:10;}
</style>
<g id="Filled_Icon" class="st0">
	<path class="st1" d="M23.5,10h-0.6l-0.8-3.7c-0.7-3-3.2-5.1-6.2-5.3c-0.2-0.6-0.8-1-1.4-1h-5C8.8,0,8.3,0.4,8.1,1
		c-3,0.2-5.5,2.3-6.2,5.3L1.1,10H0.5C0.2,10,0,10.2,0,10.5v2C0,12.8,0.2,13,0.5,13h0.6L3,23.6c0,0.2,0.2,0.4,0.5,0.4h17
		c0.2,0,0.4-0.2,0.5-0.4L22.9,13h0.6c0.3,0,0.5-0.2,0.5-0.5v-2C24,10.2,23.8,10,23.5,10z M2.9,6.5C3.5,4,5.6,2.2,8.1,2
		c0.2,0.6,0.8,1,1.4,1h5c0.6,0,1.2-0.4,1.4-1c2.5,0.2,4.6,2,5.2,4.5l0.8,3.5H2.1L2.9,6.5z M6,20.5C6,20.8,5.8,21,5.5,21
		C5.2,21,5,20.8,5,20.5v-6C5,14.2,5.2,14,5.5,14C5.8,14,6,14.2,6,14.5V20.5z M10,20.5c0,0.3-0.2,0.5-0.5,0.5C9.2,21,9,20.8,9,20.5
		v-6C9,14.2,9.2,14,9.5,14c0.3,0,0.5,0.2,0.5,0.5V20.5z M15,20.5c0,0.3-0.2,0.5-0.5,0.5c-0.3,0-0.5-0.2-0.5-0.5v-6
		c0-0.3,0.2-0.5,0.5-0.5c0.3,0,0.5,0.2,0.5,0.5V20.5z M19,20.5c0,0.3-0.2,0.5-0.5,0.5c-0.3,0-0.5-0.2-0.5-0.5v-6
		c0-0.3,0.2-0.5,0.5-0.5c0.3,0,0.5,0.2,0.5,0.5V20.5z M23,12h-0.5h-21H1v-1h0.5h21H23V12z"/>
</g>
<g id="Outline_Icons">
	<g>
		<polygon class="st2" points="20.5,23.5 3.5,23.5 1.5,12.5 22.5,12.5 		"/>
		<path class="st2" d="M8.5,1.5c-2.9,0-5.5,2-6.1,4.9l-0.9,4.1h21l-0.9-4.1c-0.6-2.9-3.2-4.9-6.1-4.9"/>
		<rect x="0.5" y="10.5" class="st2" width="23" height="2"/>
		<line class="st2" x1="14.5" y1="14.5" x2="14.5" y2="20.5"/>
		<line class="st2" x1="18.5" y1="14.5" x2="18.5" y2="20.5"/>
		<line class="st2" x1="9.5" y1="14.5" x2="9.5" y2="20.5"/>
		<line class="st2" x1="5.5" y1="14.5" x2="5.5" y2="20.5"/>
		<path class="st2" d="M15.5,1.5c0,0.6-0.4,1-1,1h-5c-0.6,0-1-0.4-1-1c0-0.6,0.4-1,1-1h5C15.1,0.5,15.5,0.9,15.5,1.5z"/>
	</g>
</g>
</svg>
