<?xml version="1.0" encoding="utf-8"?>
<!-- Generator: Adobe Illustrator 19.2.0, SVG Export Plug-In . SVG Version: 6.00 Build 0)  -->
<svg version="1.1" id="Layer_1" xmlns="http://www.w3.org/2000/svg" xmlns:xlink="http://www.w3.org/1999/xlink" x="0px" y="0px"
	 viewBox="0 0 24 24" style="enable-background:new 0 0 24 24;" xml:space="preserve">
<style type="text/css">
	.st0{display:none;}
	.st1{display:inline;}
	.st2{fill:none;stroke:#000000;stroke-linecap:round;stroke-linejoin:round;stroke-miterlimit:10;}
	.st3{fill:none;stroke:#000000;stroke-linejoin:round;stroke-miterlimit:10;}
</style>
<g id="Filled_Icon" class="st0">
	<g class="st1">
		<g>
			<g>
				<path d="M3.5,6C3.4,6,3.2,5.9,3.1,5.8C2.9,5.6,3,5.3,3.2,5.1l6-5C9.4-0.1,9.7,0,9.9,0.2c0.2,0.2,0.1,0.5-0.1,0.7l-6,5
					C3.7,6,3.6,6,3.5,6z"/>
			</g>
			<g>
				<path d="M17.5,6c-0.1,0-0.2,0-0.3-0.1l-6-5c-0.2-0.2-0.2-0.5-0.1-0.7c0.2-0.2,0.5-0.2,0.7-0.1l6,5c0.2,0.2,0.2,0.5,0.1,0.7
					C17.8,5.9,17.6,6,17.5,6z"/>
			</g>
		</g>
		<path d="M13,18c0-2.8,2.2-5,5-5c0.4,0,0.8,0.1,1.2,0.2l0.7-3.2h0.6c0.3,0,0.5-0.2,0.5-0.5v-2C21,7.2,20.8,7,20.5,7h-20
			C0.2,7,0,7.2,0,7.5v2C0,9.8,0.2,10,0.5,10h0.6L3,18.6C3.1,18.8,3.3,19,3.5,19h9.6C13,18.7,13,18.3,13,18z M1.5,9H1V8h19v1h-0.5
			H1.5z"/>
		<path d="M23.9,23.1l-2.7-2.7c0.5-0.7,0.9-1.5,0.9-2.4c0-2.2-1.8-4-4-4c-2.2,0-4,1.8-4,4c0,2.2,1.8,4,4,4c0.9,0,1.8-0.3,2.4-0.9
			l2.7,2.7c0.1,0.1,0.2,0.1,0.4,0.1c0.1,0,0.3,0,0.4-0.1C24.1,23.7,24.1,23.3,23.9,23.1z M15,18c0-1.7,1.3-3,3-3c1.7,0,3,1.3,3,3
			c0,0.8-0.3,1.5-0.9,2.1c0,0,0,0,0,0c0,0,0,0,0,0C19.6,20.7,18.8,21,18,21C16.4,21,15,19.7,15,18z"/>
	</g>
</g>
<g id="Outline_Icons">
	<g>
		<polyline class="st2" points="11.5,18.5 3.5,18.5 1.5,9.5 19.5,9.5 19,12 		"/>
		<rect x="0.5" y="7.5" class="st2" width="20" height="2"/>
		<line class="st2" x1="3.5" y1="5.5" x2="9.5" y2="0.5"/>
		<line class="st2" x1="17.5" y1="5.5" x2="11.5" y2="0.5"/>
		<g>
			<circle class="st3" cx="18" cy="18" r="3.5"/>
			<line class="st2" x1="23.5" y1="23.5" x2="20.5" y2="20.5"/>
		</g>
	</g>
</g>
</svg>
