<?xml version="1.0" encoding="utf-8"?>
<!-- Generator: Adobe Illustrator 19.2.0, SVG Export Plug-In . SVG Version: 6.00 Build 0)  -->
<svg version="1.1" id="Layer_1" xmlns="http://www.w3.org/2000/svg" xmlns:xlink="http://www.w3.org/1999/xlink" x="0px" y="0px"
	 viewBox="0 0 24 24" style="enable-background:new 0 0 24 24;" xml:space="preserve">
<style type="text/css">
	.st0{display:none;}
	.st1{display:inline;}
	.st2{fill:none;stroke:#000000;stroke-linecap:round;stroke-linejoin:round;stroke-miterlimit:10;}
	.st3{fill:none;stroke:#000000;stroke-linejoin:round;stroke-miterlimit:10;}
</style>
<g id="Filled_Icon" class="st0">
	<g class="st1">
		<g>
			<g>
				<path d="M3.5,6C3.4,6,3.2,5.9,3.1,5.8C2.9,5.6,3,5.3,3.2,5.1l6-5C9.4-0.1,9.7,0,9.9,0.2c0.2,0.2,0.1,0.5-0.1,0.7l-6,5
					C3.7,6,3.6,6,3.5,6z"/>
			</g>
			<g>
				<path d="M17.5,6c-0.1,0-0.2,0-0.3-0.1l-6-5c-0.2-0.2-0.2-0.5-0.1-0.7c0.2-0.2,0.5-0.2,0.7-0.1l6,5c0.2,0.2,0.2,0.5,0.1,0.7
					C17.8,5.9,17.6,6,17.5,6z"/>
			</g>
		</g>
		<path d="M13.4,18.9l5.8-5.8l0.7-3.2h0.6c0.3,0,0.5-0.2,0.5-0.5v-2C21,7.2,20.8,7,20.5,7h-20C0.2,7,0,7.2,0,7.5v2
			C0,9.8,0.2,10,0.5,10h0.6L3,18.6C3.1,18.8,3.3,19,3.5,19L13.4,18.9C13.4,19,13.4,19,13.4,18.9z M1.5,9H1V8h19v1h-0.5H1.5z"/>
		<g>
			<rect x="15.3" y="16.7" transform="matrix(0.7071 -0.7071 0.7071 0.7071 -8.1631 18.2926)" width="5.4" height="4.5"/>
			<path d="M13.9,20.1L13,23.4c-0.1,0.2,0,0.4,0.1,0.5c0.1,0.1,0.2,0.1,0.4,0.1c0,0,0.1,0,0.1,0l3.2-0.9L13.9,20.1z"/>
			<path d="M23.9,15.6l-2.5-2.5c-0.2-0.2-0.5-0.2-0.7,0L19,14.8l3.2,3.2l1.6-1.6C24,16.2,24,15.8,23.9,15.6z"/>
		</g>
	</g>
</g>
<g id="Outline_Icons">
	<g>
		<polyline class="st2" points="11.5,18.5 3.5,18.5 1.5,9.5 19.5,9.5 18.9,12 		"/>
		<rect x="0.5" y="7.5" class="st2" width="20" height="2"/>
		<line class="st2" x1="3.5" y1="5.5" x2="9.5" y2="0.5"/>
		<line class="st2" x1="17.5" y1="5.5" x2="11.5" y2="0.5"/>
		<g>
			<polygon class="st2" points="17,22.5 13.5,23.5 14.5,20 21,13.5 23.5,16 			"/>
			<line class="st3" x1="19" y1="15.5" x2="21.5" y2="18"/>
			<line class="st2" x1="14.5" y1="20" x2="17" y2="22.5"/>
		</g>
	</g>
</g>
</svg>
