<?xml version="1.0" encoding="utf-8"?>
<!-- Generator: Adobe Illustrator 19.2.0, SVG Export Plug-In . SVG Version: 6.00 Build 0)  -->
<svg version="1.1" id="Layer_1" xmlns="http://www.w3.org/2000/svg" xmlns:xlink="http://www.w3.org/1999/xlink" x="0px" y="0px"
	 viewBox="0 0 24 24" style="enable-background:new 0 0 24 24;" xml:space="preserve">
<style type="text/css">
	.st0{display:none;}
	.st1{display:inline;}
	.st2{fill:none;stroke:#000000;stroke-linejoin:round;stroke-miterlimit:10;}
	.st3{fill:none;stroke:#000000;stroke-linecap:round;stroke-linejoin:round;stroke-miterlimit:10;}
</style>
<g id="Filled_Icons" class="st0">
	<g class="st1">
		<path d="M9.6,4.9c0.1,0,0.1,0,0.2,0L11.6,4c0.2-0.1,0.4-0.4,0.2-0.7c-0.1-0.3-0.4-0.4-0.7-0.2L9.4,4C9.1,4.1,9,4.4,9.1,4.6
			C9.2,4.8,9.4,4.9,9.6,4.9z"/>
		<path d="M15.1,10.4c0.2,0,0.4-0.1,0.5-0.3l0.8-1.8c0.1-0.3,0-0.5-0.3-0.7c-0.3-0.1-0.5,0-0.7,0.3l-0.8,1.8c-0.1,0.3,0,0.5,0.3,0.7
			C15,10.4,15,10.4,15.1,10.4z"/>
		<path d="M11.4,8.1c0.1,0.1,0.2,0.1,0.4,0.1c0.1,0,0.3,0,0.4-0.1l1.4-1.4c0.2-0.2,0.2-0.5,0-0.7c-0.2-0.2-0.5-0.2-0.7,0l-1.4,1.4
			C11.2,7.5,11.2,7.9,11.4,8.1z"/>
		<path d="M23.5,14H22V3c0-1-0.6-1.9-1.5-2.3c-0.9-0.4-2-0.2-2.7,0.4l-0.6,0.6c-1.1-0.8-2.7-0.6-3.7,0.3L13,2.6
			c-0.2,0.2-0.2,0.5,0,0.7l3.4,3.4c0.1,0.1,0.2,0.1,0.4,0.1c0.1,0,0.3-0.1,0.4-0.1l0.6-0.6c1-1,1.1-2.6,0.3-3.7l0.6-0.6
			c0.4-0.4,1.1-0.5,1.6-0.2C20.7,1.8,21,2.4,21,3v11h-6v5.5c0,0.8-0.7,1.5-1.5,1.5h-7C5.7,21,5,20.3,5,19.5V14H0.5
			C0.2,14,0,14.2,0,14.5C0,19.7,4.3,24,9.5,24h5c5.2,0,9.5-4.3,9.5-9.5C24,14.2,23.8,14,23.5,14z"/>
		<path d="M6.5,20h7c0.3,0,0.5-0.2,0.5-0.5v-6c0-0.8-0.7-1.5-1.5-1.5h-5C6.7,12,6,12.7,6,13.5v6C6,19.8,6.2,20,6.5,20z"/>
	</g>
</g>
<g id="Outline_Icons">
	<g>
		<path class="st2" d="M13.5,14.5h10c0,5-4,9-9,9h-5c-5,0-9-4-9-9h6"/>
		<path class="st2" d="M17.3,2.4l0.9-0.9c0.6-0.5,1.4-0.7,2.1-0.3c0.7,0.3,1.2,1,1.2,1.8v11.5"/>
		<path class="st2" d="M17.3,5.7c0.9-0.9,0.9-2.4,0-3.4c-0.9-0.9-2.4-0.9-3.4,0l-0.6,0.6l3.4,3.4L17.3,5.7z"/>
		<line class="st3" x1="11.4" y1="3.6" x2="9.6" y2="4.4"/>
		<line class="st3" x1="15.9" y1="8.1" x2="15.1" y2="9.9"/>
		<line class="st3" x1="13.2" y1="6.3" x2="11.8" y2="7.7"/>
		<path class="st3" d="M13.5,13.5c0-0.6-0.4-1-1-1h-5c-0.6,0-1,0.4-1,1v6h7V13.5z"/>
	</g>
</g>
</svg>
