<?xml version="1.0" encoding="utf-8"?>
<!-- Generator: Adobe Illustrator 19.2.0, SVG Export Plug-In . SVG Version: 6.00 Build 0)  -->
<svg version="1.1" id="Layer_1" xmlns="http://www.w3.org/2000/svg" xmlns:xlink="http://www.w3.org/1999/xlink" x="0px" y="0px"
	 viewBox="0 0 24 24" style="enable-background:new 0 0 24 24;" xml:space="preserve">
<style type="text/css">
	.st0{display:none;}
	.st1{display:inline;}
	.st2{fill:none;stroke:#000000;stroke-linecap:round;stroke-linejoin:round;stroke-miterlimit:10;}
</style>
<g id="Filled_Icons" class="st0">
	<path class="st1" d="M23.5,8H21V5.5C21,5.2,20.8,5,20.5,5h-20C0.2,5,0,5.2,0,5.5v11C0,16.8,0.2,17,0.5,17H11v4.5
		c0,0.8,0.7,1.5,1.5,1.5c0.8,0,1.5-0.7,1.5-1.5V17h6.5c0.3,0,0.5-0.2,0.5-0.5V14h2.5c0.3,0,0.5-0.2,0.5-0.5v-5C24,8.2,23.8,8,23.5,8
		z M16,12.5c0,1.4-1.1,2.5-2.5,2.5H13v6.5c0,0.3-0.2,0.5-0.5,0.5c-0.3,0-0.5-0.2-0.5-0.5V15h-0.5C10.1,15,9,13.9,9,12.5v-4
		C9,8.2,9.2,8,9.5,8H11V6.5C11,6.3,11.2,6,11.5,6C11.8,6,12,6.3,12,6.5V8h1V6.5C13,6.3,13.2,6,13.5,6C13.8,6,14,6.3,14,6.5V8h1.5
		C15.8,8,16,8.2,16,8.5V12.5z"/>
</g>
<g id="Outline_Icons">
	<g>
		<polyline class="st2" points="15.5,16.5 20.5,16.5 20.5,13.5 23.5,13.5 23.5,8.5 20.5,8.5 20.5,5.5 15.5,5.5 		"/>
		<polyline class="st2" points="9.5,5.5 0.5,5.5 0.5,16.5 9.5,16.5 		"/>
		<path class="st2" d="M15.5,12.5c0,1.1-0.9,2-2,2h-2c-1.1,0-2-0.9-2-2v-4h6V12.5z"/>
		<line class="st2" x1="11.5" y1="8.5" x2="11.5" y2="6.5"/>
		<line class="st2" x1="13.5" y1="8.5" x2="13.5" y2="6.5"/>
		<line class="st2" x1="12.5" y1="21.5" x2="12.5" y2="14.5"/>
	</g>
</g>
</svg>
