<?xml version="1.0" encoding="utf-8"?>
<!-- Generator: Adobe Illustrator 19.2.0, SVG Export Plug-In . SVG Version: 6.00 Build 0)  -->
<svg version="1.1" id="Layer_1" xmlns="http://www.w3.org/2000/svg" xmlns:xlink="http://www.w3.org/1999/xlink" x="0px" y="0px"
	 viewBox="0 0 24 24" enable-background="new 0 0 24 24" xml:space="preserve">
<g id="Filled_Icons" display="none">
	<g display="inline">
		<path d="M15.665,13.006l7.354-8.07c0.094-0.104,0.141-0.241,0.129-0.379c-0.012-0.14-0.082-0.268-0.191-0.354l-3.95-3.064
			C18.846,1.015,18.624,1,18.449,1.102c-0.176,0.102-0.273,0.299-0.246,0.5l0.312,2.277l-2.336,0.32
			c-0.132,0.018-0.25,0.087-0.33,0.192c-0.08,0.106-0.115,0.239-0.098,0.37l0.31,2.271l-2.353,0.289
			c-0.133,0.018-0.254,0.086-0.335,0.191c-0.082,0.106-0.117,0.242-0.099,0.374l0.299,2.136h-3.155l0.299-2.136
			c0.019-0.132-0.016-0.265-0.097-0.371c-0.081-0.106-0.2-0.175-0.332-0.192l-2.361-0.32L8.24,4.745
			c0.019-0.132-0.017-0.266-0.097-0.37c-0.081-0.106-0.2-0.176-0.332-0.193L5.478,3.869l0.311-2.272
			c0.027-0.201-0.07-0.398-0.246-0.5C5.366,0.995,5.146,1.009,4.986,1.135l-3.95,3.067c-0.11,0.085-0.18,0.213-0.191,0.352
			C0.832,4.692,0.879,4.83,0.973,4.933l7.34,8.073H15.665z"/>
		<path d="M21.866,15.164c-1.007-0.844-1.733-1.451-1.382-3.033c0.371-1.678,2.125-2.082,3.531-2.125l-0.031-1
			c-2.487,0.077-4.077,1.11-4.478,2.908c-0.483,2.176,0.687,3.154,1.716,4.017c0.912,0.764,1.772,1.483,1.772,3.062
			c0,2.601-1.097,3.508-3.477,2.575l0.996-0.75c0.108-0.082,0.18-0.205,0.195-0.342c0.018-0.135-0.024-0.27-0.111-0.377
			l-5.035-6.094H8.427L3.392,20.1c-0.087,0.105-0.127,0.242-0.111,0.377c0.016,0.137,0.087,0.26,0.196,0.342l3.161,2.379
			c0.214,0.16,0.516,0.125,0.687-0.08l4.672-5.663l4.671,5.663c0.1,0.119,0.241,0.182,0.387,0.182c0.104,0,0.211-0.033,0.301-0.101
			l1.25-0.941c3.037,1.5,5.393,0.519,5.393-3.264C23.996,16.947,22.814,15.959,21.866,15.164z"/>
	</g>
</g>
<g id="Outline_Icons">
	<g>
		<polyline fill="none" stroke="#000000" stroke-linejoin="round" stroke-miterlimit="10" points="14.518,13.518 22.648,4.593 
			18.699,1.528 19.078,4.301 16.247,4.688 16.627,7.462 13.769,7.813 14.148,10.517 9.844,10.517 10.223,7.813 7.365,7.427 
			7.745,4.671 4.914,4.292 5.293,1.523 1.343,4.591 9.457,13.516 		"/>
		<path fill="none" stroke="#000000" stroke-linejoin="round" stroke-miterlimit="10" d="M18.557,21.66c0,0,4.94,2.888,4.94-2.676
			c0-3.75-4.307-3.336-3.5-6.968C20.455,9.95,22.615,9.543,24,9.5"/>
		<polygon fill="none" stroke="#000000" stroke-linejoin="round" stroke-miterlimit="10" points="20.215,20.412 14.518,13.518 
			9.475,13.518 3.777,20.412 6.938,22.792 11.996,16.661 17.053,22.792 		"/>
	</g>
</g>
</svg>
