<?xml version="1.0" encoding="utf-8"?>
<!-- Generator: Adobe Illustrator 19.2.0, SVG Export Plug-In . SVG Version: 6.00 Build 0)  -->
<svg version="1.1" id="Layer_1" xmlns="http://www.w3.org/2000/svg" xmlns:xlink="http://www.w3.org/1999/xlink" x="0px" y="0px"
	 viewBox="0 0 24 24" style="enable-background:new 0 0 24 24;" xml:space="preserve">
<style type="text/css">
	.st0{display:none;}
	.st1{display:inline;}
	.st2{fill:none;stroke:#000000;stroke-linecap:round;stroke-linejoin:round;stroke-miterlimit:10;}
	.st3{fill:none;stroke:#000000;stroke-linejoin:round;stroke-miterlimit:10;}
</style>
<g id="Filled_Icons" class="st0">
	<path class="st1" d="M23.5,9H21V6.5C21,6.2,20.8,6,20.5,6h-20C0.2,6,0,6.2,0,6.5v11C0,17.8,0.2,18,0.5,18h20c0.3,0,0.5-0.2,0.5-0.5
		V15h2.5c0.3,0,0.5-0.2,0.5-0.5v-5C24,9.2,23.8,9,23.5,9z M5.5,16h-3C2.2,16,2,15.8,2,15.5v-7C2,8.2,2.2,8,2.5,8h3V16z M6.5,16V8H10
		v7.9c0,0,0,0.1,0,0.1H6.5z M14.5,9v6v1H11c0,0,0-0.1,0-0.1V8h3.5V9z"/>
</g>
<g id="Outline_Icons">
	<g>
		<rect x="2.5" y="8.5" class="st2" width="4" height="7"/>
		<rect x="6.5" y="8.5" class="st2" width="4" height="7"/>
		<rect x="10.5" y="8.5" class="st2" width="4" height="7"/>
		<polygon class="st3" points="20.5,9.5 20.5,6.5 0.5,6.5 0.5,17.5 20.5,17.5 20.5,14.5 23.5,14.5 23.5,9.5 		"/>
	</g>
</g>
</svg>
