<?xml version="1.0" encoding="utf-8"?>
<!-- Generator: Adobe Illustrator 19.2.0, SVG Export Plug-In . SVG Version: 6.00 Build 0)  -->
<svg version="1.1" id="Outline_Icons" xmlns="http://www.w3.org/2000/svg" xmlns:xlink="http://www.w3.org/1999/xlink" x="0px"
	 y="0px" viewBox="0 0 24 24" style="enable-background:new 0 0 24 24;" xml:space="preserve">
<style type="text/css">
	.st0{fill:none;stroke:#000000;stroke-linecap:round;stroke-linejoin:round;stroke-miterlimit:10;}
</style>
<g>
	<path class="st0" d="M23.5,17.5h-6c-2.5,0-4.6,0.8-6,2"/>
	<line class="st0" x1="17.5" y1="17.5" x2="14.2" y2="9.1"/>
	<line class="st0" x1="11.6" y1="2.6" x2="11.2" y2="1.7"/>
	<path class="st0" d="M11.6,2.6c-4.9,1.9-8,5.5-6.6,9.1l0.4,0.9l2.3-0.9l0.6-1.3L9.5,11l9.3-3.7L19.4,6l1.3,0.6L23,5.6l-0.4-0.9
		C21.2,1.1,16.5,0.7,11.6,2.6z"/>
	<path class="st0" d="M23.5,23.5c-1,0-2-0.9-2-2c0,1.1-1,2-2,2s-2-0.9-2-2c0,1.1-1,2-2,2s-2-0.9-2-2c0,1.1-1,2-2,2s-2-0.9-2-2
		c0,1.1-1,2-2,2s-2-0.9-2-2c0,1.1-1,2-2,2s-2-0.9-2-2c0,0.7-0.5,1.3-1,1.7"/>
</g>
</svg>
