<?xml version="1.0" encoding="utf-8"?>
<!-- Generator: Adobe Illustrator 19.2.0, SVG Export Plug-In . SVG Version: 6.00 Build 0)  -->
<svg version="1.1" id="Layer_1" xmlns="http://www.w3.org/2000/svg" xmlns:xlink="http://www.w3.org/1999/xlink" x="0px" y="0px"
	 viewBox="0 0 24 24" style="enable-background:new 0 0 24 24;" xml:space="preserve">
<style type="text/css">
	.st0{display:none;}
	.st1{display:inline;}
	.st2{fill:none;stroke:#000000;stroke-linejoin:round;stroke-miterlimit:10;}
</style>
<g id="Filled_Icons" class="st0">
	<path class="st1" d="M23,3.4c0-0.5-0.5-1-1-1.1c0,0-0.1,0-0.2,0c-0.5,0-0.9,0.3-1.1,0.8c-0.6,1.6-1.9,4-2.5,5C16.6,7.1,12.8,7,12,7
		c-0.8,0-4.6,0.1-6.2,1.2c-0.6-1.1-2-3.5-2.5-5.1C3.1,2.6,2.7,2.3,2.2,2.3c0,0-0.1,0-0.2,0c-0.5,0.1-1,0.5-1,1.1c0,0.4,0,2.4,0,3
		C1,11.1,2.1,22,12,22c9.9,0,11-10.9,11-15.6C23,5.8,23,3.9,23,3.4z M12.7,14h-1.4c-0.6,0-0.8,0.3-0.8,0.6c-0.1,0.4-0.3,0.6-0.8,0.6
		c-1.2,0-2.5-1.3-2.8-2.4c-0.2-0.6,0-1,0.5-1.3c0.7-0.4,2.6-0.7,4.7-0.7c2.1,0,3.9,0.3,4.6,0.7c0.5,0.3,0.6,0.7,0.5,1.3
		c-0.3,1.1-1.6,2.4-2.8,2.4c-0.5,0-0.7-0.2-0.8-0.5C13.5,14.3,13.3,14,12.7,14z"/>
</g>
<g id="Outline_Icons">
	<g>
		<path class="st2" d="M22.5,3.5c0-0.3-0.3-0.6-0.6-0.6c-0.3,0-0.6,0.1-0.7,0.4C20.4,5.4,18.3,9,18.3,9C17,7,7,7,5.7,9
			c0,0-2.1-3.6-2.9-5.7C2.7,3,2.4,2.8,2.1,2.8c-0.3,0-0.5,0.3-0.6,0.6c0,0.4,0,2.4,0,3C1.5,10,2.2,21.5,12,21.5
			c9.8,0,10.5-11.5,10.5-15.1C22.5,5.8,22.5,3.9,22.5,3.5z M14.3,15.6c-0.9,0-1.2-0.6-1.3-0.9c0-0.2-0.2-0.2-0.3-0.2H12h-0.7
			c-0.2,0-0.3,0-0.3,0.2c-0.1,0.4-0.3,1-1.3,1c-2.3,0-4.6-3.5-2.6-4.6c1.8-1,8.1-1,9.8,0C18.9,12.2,16.6,15.6,14.3,15.6z"/>
	</g>
</g>
</svg>
