<?xml version="1.0" encoding="utf-8"?>
<!-- Generator: Adobe Illustrator 19.2.0, SVG Export Plug-In . SVG Version: 6.00 Build 0)  -->
<svg version="1.1" id="Layer_1" xmlns="http://www.w3.org/2000/svg" xmlns:xlink="http://www.w3.org/1999/xlink" x="0px" y="0px"
	 viewBox="0 0 24 24" style="enable-background:new 0 0 24 24;" xml:space="preserve">
<style type="text/css">
	.st0{display:none;}
	.st1{display:inline;}
	.st2{fill:none;stroke:#000000;stroke-linejoin:round;stroke-miterlimit:10;}
	.st3{fill:none;stroke:#000000;stroke-linecap:round;stroke-linejoin:round;stroke-miterlimit:10;}
</style>
<g id="Filled_Icons" class="st0">
	<g class="st1">
		<path d="M23.9,16L22,4.5V2c0-1.1-0.9-2-2-2H4C2.9,0,2,0.9,2,2v2.5L0.1,16H23.9z M18.9,4l0.3,2H14V4H18.9z M5.4,4H10v2H5.1L5.4,4z
			 M2.9,5h1.3L4,6.4c0,0.1,0,0.3,0.1,0.4C4.2,6.9,4.4,7,4.5,7h6C10.8,7,11,6.8,11,6.5V5h2l0,1.5C13,6.8,13.2,7,13.5,7h6.2
			c0.1,0,0.3-0.1,0.4-0.2c0.1-0.1,0.1-0.3,0.1-0.4L20,5h1l0.5,3H2.4L2.9,5z"/>
		<path d="M0,17v4c0,1.1,0.9,2,2,2h1v0.5C3,23.8,3.2,24,3.5,24C3.8,24,4,23.8,4,23.5V23h16v0.5c0,0.3,0.2,0.5,0.5,0.5
			c0.3,0,0.5-0.2,0.5-0.5V23h1c1.1,0,2-0.9,2-2v-4H0z"/>
	</g>
</g>
<g id="Outline_Icons">
	<g>
		<polyline class="st2" points="19.5,4.5 21.5,4.5 23.5,16.5 0.5,16.5 2.5,4.5 4.8,4.5 		"/>
		<path class="st3" d="M23.5,21c0,0.8-0.7,1.5-1.5,1.5H2c-0.8,0-1.5-0.7-1.5-1.5v-4.5h23V21z"/>
		<line class="st3" x1="2.2" y1="8.5" x2="21.8" y2="8.5"/>
		<polygon class="st3" points="10.5,6.5 4.5,6.5 4.9,3.5 10.6,3.5 		"/>
		<polygon class="st3" points="13.7,6.5 19.8,6.5 19.3,3.5 13.6,3.5 		"/>
		<path class="st3" d="M2.5,4.5V2c0-0.8,0.7-1.5,1.5-1.5h16c0.8,0,1.5,0.7,1.5,1.5v2.5"/>
		<line class="st3" x1="3.5" y1="22.5" x2="3.5" y2="23.5"/>
		<line class="st3" x1="20.5" y1="22.5" x2="20.5" y2="23.5"/>
		<line class="st3" x1="10.6" y1="4.6" x2="13.6" y2="4.6"/>
	</g>
</g>
</svg>
