<?xml version="1.0" encoding="utf-8"?>
<!-- Generator: Adobe Illustrator 19.2.0, SVG Export Plug-In . SVG Version: 6.00 Build 0)  -->
<svg version="1.1" id="Outline_Icons" xmlns="http://www.w3.org/2000/svg" xmlns:xlink="http://www.w3.org/1999/xlink" x="0px"
	 y="0px" viewBox="0 0 24 24" enable-background="new 0 0 24 24" xml:space="preserve">
<g>
	<path fill="none" stroke="#000000" stroke-linejoin="round" stroke-miterlimit="10" d="M18.5,3c-0.758,0-1.463,0.215-2.066,0.581
		C15.537,1.758,13.668,0.5,11.5,0.5c-2.167,0-4.038,1.258-4.934,3.081C5.963,3.215,5.257,3,4.5,3c-2.209,0-4,1.792-4,4
		c0,2.21,1.791,4,4,4c0.191,0,0.379-0.018,0.564-0.043C5.024,11.132,5,11.312,5,11.5C5,12.882,6.119,14,7.5,14s2.5-1.118,2.5-2.5
		c0-0.075-0.016-0.146-0.021-0.217c0.483,0.139,0.993,0.217,1.521,0.217c1.608,0,3.052-0.695,4.058-1.797
		C16.289,10.5,17.334,11,18.5,11c2.209,0,4-1.79,4-4C22.5,4.792,20.709,3,18.5,3z"/>
	<path fill="none" stroke="#000000" stroke-linejoin="round" stroke-miterlimit="10" d="M18.289,18.5c0,0,1.335,0,2.355,0
		s1.855-0.899,1.855-2v-3c0-1.1-0.9-2-2-2h-3"/>
	<path fill="none" stroke="#000000" stroke-linecap="round" stroke-linejoin="round" stroke-miterlimit="10" d="M20.5,22
		c0,0.825-0.675,1.5-1.5,1.5H4c-0.825,0-1.5-0.675-1.5-1.5l0,0c0-0.824,0.675-1.5,1.5-1.5h15C19.825,20.5,20.5,21.176,20.5,22
		L20.5,22z"/>
	
		<line fill="none" stroke="#000000" stroke-linecap="round" stroke-linejoin="round" stroke-miterlimit="10" x1="5.5" y1="13" x2="4.5" y2="20.5"/>
	
		<line fill="none" stroke="#000000" stroke-linecap="round" stroke-linejoin="round" stroke-miterlimit="10" x1="17.5" y1="10.873" x2="18.5" y2="20.5"/>
	
		<line fill="none" stroke="#000000" stroke-linecap="round" stroke-linejoin="round" stroke-miterlimit="10" x1="14.5" y1="13.5" x2="15" y2="18.5"/>
	
		<line fill="none" stroke="#000000" stroke-linecap="round" stroke-linejoin="round" stroke-miterlimit="10" x1="11.5" y1="13.5" x2="11.5" y2="18.5"/>
	
		<line fill="none" stroke="#000000" stroke-linecap="round" stroke-linejoin="round" stroke-miterlimit="10" x1="8.5" y1="14" x2="8" y2="18.5"/>
</g>
</svg>
