<?xml version="1.0" encoding="utf-8"?>
<!-- Generator: Adobe Illustrator 19.2.0, SVG Export Plug-In . SVG Version: 6.00 Build 0)  -->
<svg version="1.1" id="Layer_1" xmlns="http://www.w3.org/2000/svg" xmlns:xlink="http://www.w3.org/1999/xlink" x="0px" y="0px"
	 viewBox="0 0 24 24" style="enable-background:new 0 0 24 24;" xml:space="preserve">
<style type="text/css">
	.st0{display:none;}
	.st1{display:inline;}
	.st2{fill:none;stroke:#000000;stroke-linecap:round;stroke-linejoin:round;stroke-miterlimit:10;}
</style>
<g id="Filled_Icons" class="st0">
	<g class="st1">
		<path d="M21,16.8l-3-0.9V16c0,1.7-1.5,4.3-5.5,4.5V24H24v-3C24,19.1,22.8,17.4,21,16.8z M14.5,22.5c-0.6,0-1-0.4-1-1
			c0-0.6,0.4-1,1-1c0.6,0,1,0.4,1,1C15.5,22.1,15.1,22.5,14.5,22.5z"/>
		<path d="M6,16L6,16l-3.1,0.8C1.2,17.4,0,19.1,0,21v3h11.5v-3.5C7.5,20.3,6,17.7,6,16z"/>
		<path d="M17,16v-2.5c0.2-0.3,0.3-0.7,0.4-1c0-0.2,0.1-0.4,0.1-0.6c0.7-0.2,1.3-0.8,1.5-1.7c0.2-0.8,0-1.6-0.4-2c0-1.4,0-2.1,0-3.6
			V2.5C18.5,2.2,18.3,0,12,0C6.3,0,5.6,2.1,5.5,2.4l0,2.3l0,0c0,5.5,0-0.2,0,3.6c-0.5,0.4-0.6,1.2-0.4,2c0.2,0.9,0.8,1.5,1.5,1.7
			c0,0.2,0.1,0.4,0.1,0.6c0.1,0.4,0.2,0.7,0.4,1V16c0,1.4,1.3,3.5,5,3.5S17,17.4,17,16z M6.5,6V5.3C7.2,5.1,9,4.5,12,4.5
			c3,0,4.8,0.6,5.5,0.8V6v0.8c-0.8-0.3-2.4-0.7-4.8-0.8c-0.2,0-0.5,0-0.7,0C9.1,6,7.4,6.4,6.5,6.7V6z M12,16c-1.3,0-4.5-1.9-4.5-4.5
			V11H7c-0.5,0-0.9-0.5-1-1c-0.1-0.5,0-0.9,0.2-1l0.3-0.1v-1C7.1,7.6,8.7,7,12,7c2.7,0,4.7,0.6,5.5,0.9v1l0.3,0.1
			c0.2,0.1,0.3,0.6,0.2,1c-0.1,0.5-0.4,1-1,1h-0.5v0.5C16.5,14.1,13.3,16,12,16z"/>
		<path d="M10.1,8.5l-0.1,0l-0.1,0c-0.4,0-0.8,0-1.1,0.3C8.6,9,8.5,9.2,8.5,9.5C8.5,9.8,8.7,10,9,10c0.3,0,0.5-0.2,0.5-0.5
			c0.1,0,0.3,0,0.4,0l0.1,0l0.1,0c0.1,0,0.3,0,0.4,0c0,0.3,0.2,0.5,0.5,0.5c0.3,0,0.5-0.2,0.5-0.5c0-0.3-0.1-0.5-0.3-0.7
			C10.9,8.5,10.5,8.5,10.1,8.5z"/>
		<path d="M14.1,8.5l-0.1,0l-0.1,0c-0.4,0-0.8,0-1.1,0.3c-0.2,0.2-0.3,0.4-0.3,0.7c0,0.3,0.2,0.5,0.5,0.5c0.3,0,0.5-0.2,0.5-0.5
			c0.1,0,0.3,0,0.4,0l0.1,0l0.1,0c0.1,0,0.3,0,0.4,0c0,0.3,0.2,0.5,0.5,0.5c0.3,0,0.5-0.2,0.5-0.5c0-0.3-0.1-0.5-0.3-0.7
			C14.9,8.5,14.5,8.5,14.1,8.5z"/>
	</g>
</g>
<g id="Outline_Icons">
	<g>
		<path class="st2" d="M6,7.5v1c-1,0.5-0.5,3,1,3c0,3,3.5,5,5,5"/>
		<path class="st2" d="M18,7.5v1c1,0.5,0.5,3-1,3c0,3-3.5,5-5,5"/>
		<path class="st2" d="M7.5,13.4V16l-4.4,1.3c-1.6,0.6-2.6,2.1-2.6,3.7v2.5h23V21c0-1.7-1-3.2-2.6-3.7L16.5,16v-2.6"/>
		<path class="st2" d="M16.5,16c0,1-1,3-4.5,3s-4.5-2-4.5-3"/>
		<line class="st2" x1="12" y1="23.5" x2="12" y2="16.5"/>
		<path class="st2" d="M18,7.5c0,0-2-1-6-1s-6,1-6,1v-5c0,0,0.5-2,6-2c6,0,6,2,6,2V7.5z"/>
		<path class="st2" d="M18,5.5c0,0-2-1-6-1s-6,1-6,1"/>
		<circle class="st2" cx="14.5" cy="21" r="0.5"/>
		<path class="st2" d="M9,9.5C9,8.9,9.4,9,10,9c0.6,0,1-0.1,1,0.5"/>
		<path class="st2" d="M13,9.5C13,8.9,13.4,9,14,9c0.6,0,1-0.1,1,0.5"/>
	</g>
</g>
</svg>
