<?xml version="1.0" encoding="utf-8"?>
<!-- Generator: Adobe Illustrator 19.2.0, SVG Export Plug-In . SVG Version: 6.00 Build 0)  -->
<svg version="1.1" id="Outline_Icons" xmlns="http://www.w3.org/2000/svg" xmlns:xlink="http://www.w3.org/1999/xlink" x="0px"
	 y="0px" viewBox="0 0 24 24" enable-background="new 0 0 24 24" xml:space="preserve">
<g>
	<path fill="none" stroke="#000000" stroke-linejoin="round" stroke-miterlimit="10" d="M15.5,8c0-3.07,6-4,6,3c0,4-2,11.5-5,11.5
		c-2,0-1.958-1.417-1.958-1.417"/>
	<path fill="none" stroke="#000000" stroke-linejoin="round" stroke-miterlimit="10" d="M8.5,8c-0.042-3-6-4-6,3
		c0,4,2.042,11.5,5.042,11.5c2,0,1.958-1.417,1.958-1.417"/>
	<path fill="none" stroke="#000000" stroke-linecap="round" stroke-linejoin="round" stroke-miterlimit="10" d="M12.5,5.5v-2
		c0-1.1-0.4-2-1.5-2h-1"/>
	<path fill="none" stroke="#000000" stroke-linejoin="round" stroke-miterlimit="10" d="M8.25,9.493
		C8.185,8.457,8.551,7.441,9.261,6.686C9.972,5.929,10.963,5.5,12,5.5s2.028,0.429,2.738,1.186c0.711,0.756,1.077,1.771,1.012,2.808
		l-0.577,10.013C15.076,21.187,13.684,22.5,12,22.5s-3.076-1.313-3.173-2.994L8.25,9.493z"/>
</g>
</svg>
