<?xml version="1.0" encoding="utf-8"?>
<!-- Generator: Adobe Illustrator 19.2.0, SVG Export Plug-In . SVG Version: 6.00 Build 0)  -->
<svg version="1.1" id="Layer_1" xmlns="http://www.w3.org/2000/svg" xmlns:xlink="http://www.w3.org/1999/xlink" x="0px" y="0px"
	 viewBox="0 0 24 24" enable-background="new 0 0 24 24" xml:space="preserve">
<g id="Filled_Icons" display="none">
	<path display="inline" d="M23.5,16.006H20v-1h1c1.103,0,2-0.896,2-2c0-1.102-0.897-2-2-2h-1v-1h1c1.103,0,2-0.897,2-2
		c0-1.102-0.897-2-2-2H3c-1.104,0-2,0.898-2,2c0,1.103,0.896,2,2,2h1v1H3c-1.104,0-2,0.898-2,2c0,1.104,0.896,2,2,2h1v1H0.5
		c-0.276,0-0.5,0.225-0.5,0.5v3c0,0.275,0.224,0.5,0.5,0.5H2v3.5c0,0.275,0.224,0.5,0.5,0.5c0.275,0,0.5-0.225,0.5-0.5v-0.5h18v0.5
		c0,0.275,0.225,0.5,0.5,0.5c0.275,0,0.5-0.225,0.5-0.5v-3.5h1.5c0.275,0,0.5-0.225,0.5-0.5v-3C24,16.231,23.775,16.006,23.5,16.006
		z M5,10.006h14v1H5V10.006z M5,15.006h14v1H5V15.006z M21,22.006H3v-2h18V22.006z"/>
</g>
<g id="Outline_Icons">
	<g>
		
			<rect x="0.5" y="16.5" fill="none" stroke="#000000" stroke-linecap="round" stroke-linejoin="round" stroke-miterlimit="10" width="23" height="3"/>
		
			<line fill="none" stroke="#000000" stroke-linecap="round" stroke-linejoin="round" stroke-miterlimit="10" x1="2.5" y1="19.5" x2="2.5" y2="23.5"/>
		
			<line fill="none" stroke="#000000" stroke-linecap="round" stroke-linejoin="round" stroke-miterlimit="10" x1="21.5" y1="19.5" x2="21.5" y2="23.5"/>
		<path fill="none" stroke="#000000" stroke-linecap="round" stroke-linejoin="round" stroke-miterlimit="10" d="M22.5,13
			c0-0.83-0.672-1.5-1.5-1.5H3c-0.829,0-1.5,0.67-1.5,1.5c0,0.827,0.671,1.5,1.5,1.5h18C21.828,14.5,22.5,13.827,22.5,13z"/>
		<path fill="none" stroke="#000000" stroke-linecap="round" stroke-linejoin="round" stroke-miterlimit="10" d="M22.5,8
			c0-0.83-0.672-1.5-1.5-1.5H3C2.171,6.5,1.5,7.17,1.5,8c0,0.827,0.671,1.5,1.5,1.5h18C21.828,9.5,22.5,8.827,22.5,8z"/>
		
			<line fill="none" stroke="#000000" stroke-linecap="round" stroke-linejoin="round" stroke-miterlimit="10" x1="4.5" y1="14.5" x2="4.5" y2="16.5"/>
		
			<line fill="none" stroke="#000000" stroke-linecap="round" stroke-linejoin="round" stroke-miterlimit="10" x1="19.5" y1="14.5" x2="19.5" y2="16.5"/>
		
			<line fill="none" stroke="#000000" stroke-linecap="round" stroke-linejoin="round" stroke-miterlimit="10" x1="4.5" y1="9.5" x2="4.5" y2="11.5"/>
		
			<line fill="none" stroke="#000000" stroke-linecap="round" stroke-linejoin="round" stroke-miterlimit="10" x1="19.5" y1="9.5" x2="19.5" y2="11.5"/>
		
			<line fill="none" stroke="#000000" stroke-linecap="round" stroke-linejoin="round" stroke-miterlimit="10" x1="2.5" y1="22.5" x2="21.5" y2="22.5"/>
	</g>
</g>
</svg>
