<?xml version="1.0" encoding="utf-8"?>
<!-- Generator: Adobe Illustrator 19.2.0, SVG Export Plug-In . SVG Version: 6.00 Build 0)  -->
<svg version="1.1" id="Layer_1" xmlns="http://www.w3.org/2000/svg" xmlns:xlink="http://www.w3.org/1999/xlink" x="0px" y="0px"
	 viewBox="0 0 24 24" enable-background="new 0 0 24 24" xml:space="preserve">
<g id="Filled_Icons" display="none">
	<g display="inline">
		<circle cx="19.5" cy="19.506" r="1"/>
		<path d="M19.5,15.006c-0.522,0-1.022,0.094-1.488,0.258l-1.128-4.176l2.405,0.279c0.273,0.041,0.464,0.295,0.426,0.566
			c-0.04,0.273-0.299,0.462-0.566,0.424c-0.276-0.043-0.527,0.15-0.566,0.422c-0.039,0.273,0.15,0.529,0.423,0.566
			c0.821,0.121,1.581-0.449,1.7-1.271c0.115-0.818-0.454-1.58-1.285-1.7l-3.152-0.367c-0.164-0.023-0.328,0.045-0.437,0.17
			c-0.106,0.126-0.146,0.297-0.104,0.457l0.641,2.37H8.806l-0.998-2.371l1.034,0.345C8.895,10.997,8.947,11.006,9,11.006
			c0.209,0,0.404-0.133,0.474-0.342c0.088-0.263-0.054-0.546-0.315-0.633l-3-1C5.894,8.942,5.613,9.086,5.525,9.348
			C5.438,9.609,5.58,9.893,5.842,9.979l0.703,0.235l1.374,3.261L6.563,15.51c-0.619-0.32-1.319-0.505-2.063-0.505
			c-2.481,0-4.5,2.021-4.5,4.5c0,2.481,2.019,4.5,4.5,4.5c2.312,0,4.221-1.754,4.47-4h1.999c0.01,0,0.021,0.002,0.031,0.002
			c0.128,0,0.256-0.05,0.354-0.147l5.404-5.404l0.338,1.253c-1.258,0.8-2.096,2.2-2.096,3.798c0,2.48,2.019,4.5,4.5,4.5
			c2.48,0,4.5-2.02,4.5-4.5C24,17.025,21.98,15.006,19.5,15.006z M4.5,22.506c-1.654,0-3-1.346-3-3c0-1.654,1.346-3,3-3
			c1.654,0,3,1.346,3,3C7.5,21.16,6.154,22.506,4.5,22.506z M8.97,19.006c-0.13-1.176-0.716-2.215-1.575-2.939l0.989-1.484
			l1.863,4.425L8.97,19.006L8.97,19.006z M11.172,18.627l-1.945-4.621h6.566L11.172,18.627z M19.5,22.506c-1.654,0-3-1.346-3-3
			c0-1.654,1.346-3,3-3c1.654,0,3,1.346,3,3C22.5,21.16,21.154,22.506,19.5,22.506z"/>
		<circle cx="4.5" cy="19.506" r="1"/>
	</g>
</g>
<g id="Outline_Icons">
	<g>
		
			<circle fill="none" stroke="#000000" stroke-linecap="round" stroke-linejoin="round" stroke-miterlimit="10" cx="4.5" cy="19.5" r="4"/>
		
			<circle fill="none" stroke="#000000" stroke-linecap="round" stroke-linejoin="round" stroke-miterlimit="10" cx="19.5" cy="19.5" r="4"/>
		<polyline fill="none" stroke="#000000" stroke-linecap="round" stroke-linejoin="round" stroke-miterlimit="10" points="
			11,19.501 17,13.5 8.5,13.5 4.5,19.5 11,19.5 6.937,9.813 		"/>
		<path fill="none" stroke="#000000" stroke-linecap="round" stroke-linejoin="round" stroke-miterlimit="10" d="M19.5,19.5
			l-0.947-0.32l-2.344-8.68l3.152,0.367c0.546,0.08,0.926,0.586,0.848,1.133c-0.079,0.547-0.586,0.926-1.133,0.848"/>
		
			<line fill="none" stroke="#000000" stroke-linecap="round" stroke-linejoin="round" stroke-miterlimit="10" x1="6" y1="9.5" x2="9" y2="10.5"/>
	</g>
</g>
</svg>
