<?xml version="1.0" encoding="utf-8"?>
<!-- Generator: Adobe Illustrator 19.2.0, SVG Export Plug-In . SVG Version: 6.00 Build 0)  -->
<svg version="1.1" id="Layer_1" xmlns="http://www.w3.org/2000/svg" xmlns:xlink="http://www.w3.org/1999/xlink" x="0px" y="0px"
	 viewBox="0 0 24 24" enable-background="new 0 0 24 24" xml:space="preserve">
<g id="Filled_Icons" display="none">
	<g display="inline">
		<path d="M18,10.788v-5.18c0.748,0.205,2,0.787,2,2.397c0,0.276,0.225,0.5,0.5,0.5c0.275,0,0.5-0.224,0.5-0.5
			c0-2.539-2.264-3.398-3.459-3.498c-0.139-0.015-0.277,0.036-0.38,0.13C17.059,4.732,17,4.866,17,5.006v2h-1
			c-1.773,0-3.467,0.403-5,1.1v-2.1h1.5c0.275,0,0.5-0.224,0.5-0.5c0-0.276-0.225-0.5-0.5-0.5h-4c-0.276,0-0.5,0.224-0.5,0.5
			c0,0.276,0.224,0.5,0.5,0.5H10v2.609c-2.438,1.388-4.354,3.571-5.317,6.147c-0.02,0-0.038-0.007-0.058-0.007
			C2.074,14.756,0,16.831,0,19.381c0,2.551,2.074,4.625,4.625,4.625c2.55,0,4.625-2.074,4.625-4.625c0-2.174-1.515-3.99-3.54-4.483
			C7.291,10.924,11.359,8.006,16,8.006h1v2.77c-3.479,0.196-6.25,3.08-6.25,6.605c0,3.653,2.973,6.625,6.625,6.625
			c3.652,0,6.625-2.972,6.625-6.625C24,13.94,21.359,11.104,18,10.788z M8,19.381c0,1.861-1.515,3.375-3.375,3.375
			c-1.861,0-3.375-1.514-3.375-3.375c0-1.859,1.514-3.375,3.375-3.375C6.485,16.006,8,17.522,8,19.381z M17.375,22.756
			c-2.964,0-5.375-2.41-5.375-5.375c0-2.964,2.411-5.375,5.375-5.375c2.964,0,5.375,2.411,5.375,5.375
			C22.75,20.346,20.339,22.756,17.375,22.756z"/>
		<circle cx="17.375" cy="17.381" r="1"/>
		<circle cx="4.625" cy="19.381" r="1"/>
	</g>
</g>
<g id="Outline_Icons">
	<g>
		<circle fill="none" stroke="#000000" stroke-linejoin="round" stroke-miterlimit="10" cx="17.5" cy="17.5" r="6"/>
		<circle fill="none" stroke="#000000" stroke-linejoin="round" stroke-miterlimit="10" cx="17.5" cy="17.5" r="1"/>
		<circle fill="none" stroke="#000000" stroke-linejoin="round" stroke-miterlimit="10" cx="4.5" cy="19.5" r="4"/>
		<circle fill="none" stroke="#000000" stroke-linejoin="round" stroke-miterlimit="10" cx="4.5" cy="19.5" r="1"/>
		<path fill="none" stroke="#000000" stroke-linejoin="round" stroke-miterlimit="10" d="M17.5,7.5H16c-6.352,0-11.5,5.182-11.5,11"
			/>
		<path fill="none" stroke="#000000" stroke-linecap="round" stroke-linejoin="round" stroke-miterlimit="10" d="M17.5,16.5V5
			c0,0,3,0.25,3,3"/>
		<line fill="none" stroke="#000000" stroke-linejoin="round" stroke-miterlimit="10" x1="10.5" y1="8.898" x2="10.5" y2="5.5"/>
		<line fill="none" stroke="#000000" stroke-linejoin="round" stroke-miterlimit="10" x1="13" y1="5.5" x2="8" y2="5.5"/>
	</g>
</g>
</svg>
