<?xml version="1.0" encoding="utf-8"?>
<!-- Generator: Adobe Illustrator 19.2.0, SVG Export Plug-In . SVG Version: 6.00 Build 0)  -->
<svg version="1.1" id="Layer_1" xmlns="http://www.w3.org/2000/svg" xmlns:xlink="http://www.w3.org/1999/xlink" x="0px" y="0px"
	 viewBox="0 0 24 24" enable-background="new 0 0 24 24" xml:space="preserve">
<g id="Filled_Icons" display="none">
	<g display="inline">
		<circle cx="19.5" cy="19.506" r="1"/>
		<path d="M19.5,15.006c-0.371,0-0.731,0.051-1.076,0.135l-1.763-4.785l1.46-0.365c0.268-0.066,0.431-0.338,0.363-0.605
			c-0.066-0.269-0.34-0.434-0.605-0.364l-2,0.5c-0.138,0.034-0.255,0.126-0.32,0.251c-0.066,0.126-0.076,0.273-0.027,0.407
			l0.507,1.376l-6.78,2.332l-0.765-1.882H9.5c0.276,0,0.5-0.224,0.5-0.5c0-0.276-0.224-0.5-0.5-0.5H7.759c-0.002,0-0.004,0-0.006,0
			H6.5c-0.276,0-0.5,0.224-0.5,0.5c0,0.276,0.224,0.5,0.5,0.5h0.913l0.984,2.423l-1.281,1.424c-0.738-0.529-1.641-0.847-2.616-0.847
			c-2.481,0-4.5,2.021-4.5,4.5c0,2.482,2.019,4.5,4.5,4.5c2.312,0,4.221-1.754,4.47-4h1.998c0.011,0,0.021,0.002,0.031,0.002
			c0.153,0,0.304-0.071,0.402-0.202l5.132-6.904l0.953,2.586C16.014,16.229,15,17.748,15,19.506c0,2.48,2.019,4.5,4.5,4.5
			c2.48,0,4.5-2.02,4.5-4.5C24,17.025,21.98,15.006,19.5,15.006z M4.5,22.506c-1.654,0-3-1.346-3-3c0-1.654,1.346-3,3-3
			c1.654,0,3,1.346,3,3C7.5,21.16,6.154,22.506,4.5,22.506z M8.97,19.006c-0.105-0.949-0.509-1.809-1.111-2.484l0.957-1.064
			l1.441,3.549L8.97,19.006L8.97,19.006z M11.129,18.495l-1.495-3.681l5.685-1.955L11.129,18.495z M19.5,22.506
			c-1.654,0-3-1.346-3-3c0-1.654,1.346-3,3-3c1.654,0,3,1.346,3,3C22.5,21.16,21.154,22.506,19.5,22.506z"/>
		<circle cx="4.5" cy="19.506" r="1"/>
	</g>
</g>
<g id="Outline_Icons">
	<g>
		
			<circle fill="none" stroke="#000000" stroke-linecap="round" stroke-linejoin="round" stroke-miterlimit="10" cx="4.5" cy="19.5" r="4"/>
		
			<circle fill="none" stroke="#000000" stroke-linecap="round" stroke-linejoin="round" stroke-miterlimit="10" cx="19.5" cy="19.5" r="4"/>
		<polyline fill="none" stroke="#000000" stroke-linecap="round" stroke-linejoin="round" stroke-miterlimit="10" points="
			11,19.501 16.684,11.855 9,14.5 4.5,19.5 11,19.5 7.75,11.5 		"/>
		<polyline fill="none" stroke="#000000" stroke-linecap="round" stroke-linejoin="round" stroke-miterlimit="10" points="
			19.5,19.5 16,10 18,9.5 		"/>
		
			<line fill="none" stroke="#000000" stroke-linecap="round" stroke-linejoin="round" stroke-miterlimit="10" x1="6.5" y1="11.5" x2="9.5" y2="11.5"/>
	</g>
</g>
</svg>
