<?xml version="1.0" encoding="utf-8"?>
<!-- Generator: Adobe Illustrator 19.2.0, SVG Export Plug-In . SVG Version: 6.00 Build 0)  -->
<svg version="1.1" id="Layer_1" xmlns="http://www.w3.org/2000/svg" xmlns:xlink="http://www.w3.org/1999/xlink" x="0px" y="0px"
	 viewBox="0 0 24 24" style="enable-background:new 0 0 24 24;" xml:space="preserve">
<style type="text/css">
	.st0{display:none;}
	.st1{display:inline;}
	.st2{fill:none;stroke:#000000;stroke-linecap:round;stroke-linejoin:round;stroke-miterlimit:10;}
</style>
<g id="Filled_Icons" class="st0">
	<g class="st1">
		<polygon points="10.2,17 13.8,17 14,12 10,12 		"/>
		<polygon points="14,11 14.2,6 9.8,6 10,11 		"/>
		<path d="M13.7,18h-3.5l0.2,6c0,0,0,0,0,0h3c0,0,0,0,0,0L13.7,18z"/>
		<path d="M2,0.5C2,0.8,2.2,1,2.5,1h1l0.3,4h4.8L8.5,0h-6C2.2,0,2,0.2,2,0.5z"/>
		<polygon points="9.2,17 9,12 4.5,12 4.9,17 		"/>
		<path d="M9.3,18H5l0.5,5.5C5.5,23.8,5.7,24,6,24h3.5L9.3,18z"/>
		<polygon points="9.7,5 14.3,5 14.5,0 9.5,0 		"/>
		<polygon points="9,11 8.8,6 4,6 4.4,11 		"/>
		<polygon points="15,12 14.8,17 19.1,17 19.5,12 		"/>
		<path d="M14.7,18l-0.2,6H18c0.3,0,0.5-0.2,0.5-0.5L19,18H14.7z"/>
		<polygon points="15.2,6 15,11 19.6,11 20,6 		"/>
		<path d="M15.3,5h4.8l0.3-4h1C21.8,1,22,0.8,22,0.5C22,0.2,21.8,0,21.5,0H20c0,0,0,0,0,0h-4.5L15.3,5z"/>
	</g>
</g>
<g id="Outline_Icons">
	<g>
		<line class="st2" x1="6" y1="23.5" x2="18" y2="23.5"/>
		<line class="st2" x1="6" y1="23.5" x2="4" y2="0.5"/>
		<line class="st2" x1="18" y1="23.5" x2="20" y2="0.5"/>
		<line class="st2" x1="2.5" y1="0.5" x2="21.5" y2="0.5"/>
		<line class="st2" x1="9" y1="0.5" x2="10" y2="23.5"/>
		<line class="st2" x1="15" y1="0.5" x2="14" y2="23.5"/>
		<line class="st2" x1="5.5" y1="17.5" x2="18.5" y2="17.5"/>
		<line class="st2" x1="5" y1="11.5" x2="19" y2="11.5"/>
		<line class="st2" x1="4.5" y1="5.5" x2="19.5" y2="5.5"/>
	</g>
</g>
</svg>
