<?xml version="1.0" encoding="utf-8"?>
<!-- Generator: Adobe Illustrator 19.2.0, SVG Export Plug-In . SVG Version: 6.00 Build 0)  -->
<svg version="1.1" id="Layer_1" xmlns="http://www.w3.org/2000/svg" xmlns:xlink="http://www.w3.org/1999/xlink" x="0px" y="0px"
	 viewBox="0 0 24 24" style="enable-background:new 0 0 24 24;" xml:space="preserve">
<style type="text/css">
	.st0{display:none;}
	.st1{display:inline;}
	.st2{fill:none;stroke:#000000;stroke-linecap:round;stroke-linejoin:round;stroke-miterlimit:10;}
</style>
<g id="Filled_Icons" class="st0">
	<g class="st1">
		<path d="M23,3h-3h-3.5V0.5C16.5,0.2,16.3,0,16,0H8C7.7,0,7.5,0.2,7.5,0.5V3H4H1C0.7,3,0.5,3.2,0.5,3.5C0.5,3.8,0.7,4,1,4h2.5v19.5
			C3.5,23.8,3.7,24,4,24h16c0.3,0,0.5-0.2,0.5-0.5V4H23c0.3,0,0.5-0.2,0.5-0.5C23.5,3.2,23.3,3,23,3z M8.5,18.5
			C8.5,18.8,8.3,19,8,19c-0.3,0-0.5-0.2-0.5-0.5v-11C7.5,7.2,7.7,7,8,7c0.3,0,0.5,0.2,0.5,0.5V18.5z M8.5,1h7v2h-7V1z M12.5,18.5
			c0,0.3-0.2,0.5-0.5,0.5c-0.3,0-0.5-0.2-0.5-0.5v-11C11.5,7.2,11.7,7,12,7c0.3,0,0.5,0.2,0.5,0.5V18.5z M16.5,18.5
			c0,0.3-0.2,0.5-0.5,0.5c-0.3,0-0.5-0.2-0.5-0.5v-11C15.5,7.2,15.7,7,16,7c0.3,0,0.5,0.2,0.5,0.5V18.5z"/>
	</g>
</g>
<g id="Outline_Icons">
	<g>
		<rect x="3.5" y="3.5" class="st2" width="16" height="20"/>
		<rect x="7.5" y="0.5" class="st2" width="8" height="3"/>
		<line class="st2" x1="1" y1="3.5" x2="23" y2="3.5"/>
		<line class="st2" x1="7.5" y1="7" x2="7.5" y2="19"/>
		<line class="st2" x1="11.5" y1="7" x2="11.5" y2="19"/>
		<line class="st2" x1="15.5" y1="7" x2="15.5" y2="19"/>
	</g>
</g>
</svg>
