<?xml version="1.0" encoding="utf-8"?>
<!-- Generator: Adobe Illustrator 19.2.0, SVG Export Plug-In . SVG Version: 6.00 Build 0)  -->
<svg version="1.1" id="Layer_1" xmlns="http://www.w3.org/2000/svg" xmlns:xlink="http://www.w3.org/1999/xlink" x="0px" y="0px"
	 viewBox="0 0 24 24" style="enable-background:new 0 0 24 24;" xml:space="preserve">
<style type="text/css">
	.st0{display:none;}
	.st1{display:inline;}
	.st2{fill:none;stroke:#000000;stroke-linecap:round;stroke-linejoin:round;stroke-miterlimit:10;}
</style>
<g id="Filled_Icons" class="st0">
	<g class="st1">
		<path d="M16.5,10c0,0.3-0.2,0.5-0.5,0.5c-0.3,0-0.5-0.2-0.5-0.5c0-0.6-1-1.2-2.5-1.4v8.9c0,3,2.5,5.5,5.5,5.5c3,0,5.5-2.5,5.5-5.5
			c0-1.2-0.4-2.3-1.1-3.2l-3-7c0-0.1-0.1-0.1-0.1-0.2l-1.4-1.4L17,1.9c0-0.1-0.1-0.1-0.1-0.2c-1-1-2.8-1-3.7,0C13.1,1.8,13,2,13,2.1
			v5.5C15.1,7.8,16.5,8.8,16.5,10z M18.5,22C16,22,14,20,14,17.5c0-2.5,2-4.5,4.5-4.5c2.5,0,4.5,2,4.5,4.5C23,20,21,22,18.5,22z"/>
		<path d="M0,17.5c0,3,2.5,5.5,5.5,5.5c3,0,5.5-2.5,5.5-5.5V8.6C9.5,8.8,8.5,9.5,8.5,10c0,0.3-0.2,0.5-0.5,0.5
			c-0.3,0-0.5-0.2-0.5-0.5c0-1.2,1.4-2.2,3.5-2.4V2c0-0.1-0.1-0.3-0.1-0.4c-1-1-2.8-1-3.7,0C7.1,1.7,7.1,1.8,7,1.9L5.6,5.8L4.1,7.2
			c0,0-0.1,0.1-0.1,0.2l-3,7C0.4,15.2,0,16.3,0,17.5z M5.5,22C3,22,1,20,1,17.5C1,15.1,3,13,5.5,13c2.5,0,4.5,2,4.5,4.5
			C10,20,8,22,5.5,22z"/>
		<path d="M5.5,15C5.8,15,6,14.8,6,14.5C6,14.3,5.8,14,5.5,14C3.6,14,2,15.6,2,17.5C2,17.8,2.2,18,2.5,18C2.8,18,3,17.8,3,17.5
			C3,16.2,4.1,15,5.5,15z"/>
		<path d="M18.5,15c0.3,0,0.5-0.2,0.5-0.5c0-0.3-0.2-0.5-0.5-0.5c-1.9,0-3.5,1.6-3.5,3.5c0,0.3,0.2,0.5,0.5,0.5
			c0.3,0,0.5-0.2,0.5-0.5C16,16.2,17.1,15,18.5,15z"/>
	</g>
</g>
<g id="Outline_Icons">
	<g>
		<circle class="st2" cx="5.5" cy="17.5" r="5"/>
		<path class="st2" d="M10.5,6V2c-0.8-0.8-2.2-0.8-3,0L6,6L4.5,7.5l-3,7"/>
		<circle class="st2" cx="18.5" cy="17.5" r="5"/>
		<path class="st2" d="M13.5,6V2.1c0.8-0.7,2.2-0.7,3,0L18,6l1.5,1.5l3,7"/>
		<path class="st2" d="M8,10c0-1.1,1.8-2,4-2s4,0.9,4,2"/>
		<line class="st2" x1="10.5" y1="17.5" x2="10.5" y2="8.2"/>
		<line class="st2" x1="13.5" y1="17.5" x2="13.5" y2="8.2"/>
		<path class="st2" d="M2.5,17.5c0-1.7,1.3-3,3-3"/>
		<path class="st2" d="M15.5,17.5c0-1.7,1.3-3,3-3"/>
	</g>
</g>
</svg>
