<?xml version="1.0" encoding="utf-8"?>
<!-- Generator: Adobe Illustrator 19.2.0, SVG Export Plug-In . SVG Version: 6.00 Build 0)  -->
<svg version="1.1" id="Layer_1" xmlns="http://www.w3.org/2000/svg" xmlns:xlink="http://www.w3.org/1999/xlink" x="0px" y="0px"
	 viewBox="0 0 24 24" enable-background="new 0 0 24 24" xml:space="preserve">
<g id="Filled_Icons" display="none">
	<path display="inline" d="M22.5,21.006H21v-8.5c0-4.682-3.407-8.573-7.869-9.35c0.23-0.326,0.369-0.722,0.369-1.15
		c0-1.103-0.897-2-2-2c-1.103,0-2,0.897-2,2c0,0.429,0.139,0.824,0.369,1.15C5.406,3.933,2,7.824,2,12.506v8.5H0.5
		c-0.276,0-0.5,0.225-0.5,0.5v2c0,0.275,0.224,0.5,0.5,0.5h22c0.275,0,0.5-0.225,0.5-0.5v-2C23,21.229,22.775,21.006,22.5,21.006z
		 M11.5,14.006c0.276,0,0.5-0.225,0.5-0.5V4.031c1.464,0.086,2.827,0.54,4,1.277v15.697h-4v-4h2v-1H9v1h2v4H7V5.309
		c1.173-0.737,2.536-1.191,4-1.277v9.475C11,13.781,11.224,14.006,11.5,14.006z M20,12.506v8.5h-3V6.037
		C18.832,7.598,20,9.916,20,12.506z M3,12.506c0-2.59,1.167-4.908,3-6.469v14.969H3V12.506z"/>
</g>
<g id="Outline_Icons">
	<g>
		
			<rect x="0.5" y="21.5" fill="none" stroke="#000000" stroke-linecap="round" stroke-linejoin="round" stroke-miterlimit="10" width="22" height="2"/>
		
			<circle fill="none" stroke="#000000" stroke-linecap="round" stroke-linejoin="round" stroke-miterlimit="10" cx="11.5" cy="2" r="1.5"/>
		<line fill="none" stroke="#000000" stroke-linejoin="round" stroke-miterlimit="10" x1="6.5" y1="5.031" x2="6.5" y2="21.5"/>
		<line fill="none" stroke="#000000" stroke-linejoin="round" stroke-miterlimit="10" x1="16.5" y1="5.03" x2="16.5" y2="21.5"/>
		<path fill="none" stroke="#000000" stroke-linecap="round" stroke-linejoin="round" stroke-miterlimit="10" d="M2.5,12.5
			c0-4.971,4.029-9,9-9c4.971,0,9,4.029,9,9v9h-18V12.5z"/>
		<line fill="none" stroke="#000000" stroke-linejoin="round" stroke-miterlimit="10" x1="9" y1="16.5" x2="14" y2="16.5"/>
		
			<line fill="none" stroke="#000000" stroke-linecap="round" stroke-linejoin="round" stroke-miterlimit="10" x1="11.5" y1="16.5" x2="11.5" y2="21.5"/>
		
			<line fill="none" stroke="#000000" stroke-linecap="round" stroke-linejoin="round" stroke-miterlimit="10" x1="11.5" y1="3.5" x2="11.5" y2="13.5"/>
	</g>
</g>
</svg>
