<?xml version="1.0" encoding="utf-8"?>
<!-- Generator: Adobe Illustrator 19.2.0, SVG Export Plug-In . SVG Version: 6.00 Build 0)  -->
<svg version="1.1" id="Layer_1" xmlns="http://www.w3.org/2000/svg" xmlns:xlink="http://www.w3.org/1999/xlink" x="0px" y="0px"
	 viewBox="0 0 24 24" enable-background="new 0 0 24 24" xml:space="preserve">
<g id="Filled_Icons" display="none">
	<g display="inline">
		<path d="M23.5,22.998h-23c-0.276,0-0.5,0.225-0.5,0.5c0,0.277,0.224,0.5,0.5,0.5h23c0.275,0,0.5-0.223,0.5-0.5
			C24,23.223,23.775,22.998,23.5,22.998z"/>
		<path d="M3.5,21.998h17c1.378,0,2.5-1.121,2.5-2.5v-6.5v-2.5c0-0.275-0.225-0.5-0.5-0.5H20v-3.5c0-0.275-0.225-0.5-0.5-0.5h-2
			c-0.275,0-0.5,0.225-0.5,0.5v3.5h-3.5v-3.5c0-0.275-0.225-0.5-0.5-0.5h-2c-0.276,0-0.5,0.225-0.5,0.5v3.5H7v-3.5
			c0-0.275-0.224-0.5-0.5-0.5h-2c-0.276,0-0.5,0.225-0.5,0.5v3.5H1.5c-0.276,0-0.5,0.225-0.5,0.5v2.5v6.5
			C1,20.877,2.121,21.998,3.5,21.998z M2,10.998h20v2c0,1.067-1.247,2-2,2c-0.754,0-2-0.933-2-2c0-0.275-0.225-0.5-0.5-0.5
			c-0.275,0-0.5,0.225-0.5,0.5c0,1.212-1.236,2.25-2.25,2.25c-1.014,0-2.25-1.038-2.25-2.25c0-0.275-0.224-0.5-0.5-0.5
			c-0.276,0-0.5,0.225-0.5,0.5c0,1.212-1.237,2.25-2.25,2.25c-1.013,0-2.25-1.038-2.25-2.25c0-0.275-0.224-0.5-0.5-0.5
			c-0.276,0-0.5,0.225-0.5,0.5c0,1.067-1.247,2-2,2c-0.754,0-2-0.933-2-2V10.998z"/>
		<path d="M5.5,4.998c1.103,0,2-0.896,2-2c0-0.97-1.356-2.53-1.628-2.834c-0.189-0.211-0.555-0.211-0.744,0
			C4.855,0.468,3.5,2.028,3.5,2.998C3.5,4.102,4.396,4.998,5.5,4.998z"/>
		<path d="M18.5,4.998c1.103,0,2-0.896,2-2c0-0.97-1.356-2.53-1.628-2.834c-0.188-0.211-0.556-0.211-0.744,0
			C17.855,0.468,16.5,2.028,16.5,2.998C16.5,4.102,17.396,4.998,18.5,4.998z"/>
		<path d="M12,4.998c1.103,0,2-0.896,2-2c0-0.97-1.356-2.53-1.628-2.834c-0.189-0.211-0.555-0.211-0.744,0
			C11.355,0.468,10,2.028,10,2.998C10,4.102,10.896,4.998,12,4.998z"/>
	</g>
</g>
<g id="Outline_Icons">
	<g>
		
			<line fill="none" stroke="#000000" stroke-linecap="round" stroke-linejoin="round" stroke-miterlimit="10" x1="0.5" y1="23.5" x2="23.5" y2="23.5"/>
		<path fill="none" stroke="#000000" stroke-linecap="round" stroke-linejoin="round" stroke-miterlimit="10" d="M1.5,13v6.5
			c0,1.102,0.9,2,2,2h17c1.1,0,2-0.898,2-2V13"/>
		<path fill="none" stroke="#000000" stroke-linecap="round" stroke-linejoin="round" stroke-miterlimit="10" d="M1.5,13
			c0,1.381,1.5,2.5,2.5,2.5s2.5-1.119,2.5-2.5c0,1.522,1.5,2.75,2.75,2.75S12,14.522,12,13c0,1.522,1.5,2.75,2.75,2.75
			S17.5,14.522,17.5,13c0,1.381,1.5,2.5,2.5,2.5s2.5-1.119,2.5-2.5v-2.5h-21V13z"/>
		<path fill="none" stroke="#000000" stroke-linecap="round" stroke-linejoin="round" stroke-miterlimit="10" d="M7,3
			c0,0.829-0.672,1.5-1.5,1.5C4.671,4.5,4,3.829,4,3c0-0.827,1.5-2.5,1.5-2.5S7,2.173,7,3z"/>
		<path fill="none" stroke="#000000" stroke-linecap="round" stroke-linejoin="round" stroke-miterlimit="10" d="M20,3
			c0,0.829-0.672,1.5-1.5,1.5C17.671,4.5,17,3.829,17,3c0-0.827,1.5-2.5,1.5-2.5S20,2.173,20,3z"/>
		<path fill="none" stroke="#000000" stroke-linecap="round" stroke-linejoin="round" stroke-miterlimit="10" d="M13,3
			c0,0.829-0.672,1.5-1.5,1.5C10.671,4.5,10,3.829,10,3c0-0.827,1.5-2.5,1.5-2.5S13,2.173,13,3z"/>
		
			<rect x="10.5" y="6.5" fill="none" stroke="#000000" stroke-linecap="round" stroke-linejoin="round" stroke-miterlimit="10" width="2" height="4"/>
		
			<rect x="4.5" y="6.5" fill="none" stroke="#000000" stroke-linecap="round" stroke-linejoin="round" stroke-miterlimit="10" width="2" height="4"/>
		
			<rect x="17.5" y="6.5" fill="none" stroke="#000000" stroke-linecap="round" stroke-linejoin="round" stroke-miterlimit="10" width="2" height="4"/>
	</g>
</g>
</svg>
