<?xml version="1.0" encoding="utf-8"?>
<!-- Generator: Adobe Illustrator 19.2.0, SVG Export Plug-In . SVG Version: 6.00 Build 0)  -->
<svg version="1.1" id="Layer_1" xmlns="http://www.w3.org/2000/svg" xmlns:xlink="http://www.w3.org/1999/xlink" x="0px" y="0px"
	 viewBox="0 0 24 24" style="enable-background:new 0 0 24 24;" xml:space="preserve">
<style type="text/css">
	.st0{display:none;}
	.st1{display:inline;}
	.st2{fill:none;stroke:#000000;stroke-linecap:round;stroke-linejoin:round;stroke-miterlimit:10;}
	.st3{fill:none;stroke:#000000;stroke-linejoin:round;stroke-miterlimit:10;}
</style>
<g id="Filled_Icon" class="st0">
	<g class="st1">
		<path d="M11.5,4c0.9,0,1.8,0.2,2.7,0.5c-0.7-1.3-1.6-2.6-2.6-3.6l-0.1-0.1l-0.1,0.1c-1,1.1-1.9,2.4-2.6,3.7C9.6,4.2,10.6,4,11.5,4
			z"/>
		<path d="M0,11h4c0.1-2,1-3.7,2.4-5H1.3C0.5,7.5,0.1,9.2,0,11z"/>
		<path d="M13,8V6.5C13,6.2,12.8,6,12.5,6C12.2,6,12,6.2,12,6.5V8h-1V6.5C11,6.2,10.8,6,10.5,6C10.2,6,10,6.2,10,6.5V8H9.5
			C9.2,8,9,8.2,9,8.5v3v3C9,14.8,9.2,15,9.5,15H10v1.5c0,0.3,0.2,0.5,0.5,0.5c0.3,0,0.5-0.2,0.5-0.5V15h1v1.5c0,0.3,0.2,0.5,0.5,0.5
			c0.3,0,0.5-0.2,0.5-0.5V15c1.1,0,2-0.9,2-2c0-0.6-0.3-1.1-0.7-1.5c0.4-0.4,0.7-0.9,0.7-1.5C15,8.9,14.1,8,13,8z M13,14h-3v-2h3
			c0.6,0,1,0.4,1,1C14,13.6,13.6,14,13,14z M13,11h-3V9h3c0.6,0,1,0.4,1,1C14,10.6,13.6,11,13,11z"/>
		<path d="M22.1,16c0.5-1.2,0.8-2.6,0.9-4h-4c-0.1,1.5-0.6,2.9-1.5,4H22.1z"/>
		<path d="M4,12H0c0.1,1.4,0.4,2.8,0.9,4h4.5C4.7,14.9,4.1,13.5,4,12z"/>
		<path d="M11.5,19c-0.8,0-1.6-0.1-2.3-0.4c0.6,1.2,1.4,2.5,2.2,3.5l0.1,0.1l0.1-0.1c0.8-1,1.6-2.3,2.2-3.5
			C13.1,18.9,12.3,19,11.5,19z"/>
		<path d="M16.6,17c-0.4,0.4-0.9,0.7-1.4,1c-0.8,1.6-1.8,3.4-2.8,4.8L12.3,23c4-0.3,7.5-2.6,9.3-6L16.6,17L16.6,17z"/>
		<path d="M10.6,22.8c-1.1-1.4-2.1-3.1-2.8-4.8c-0.5-0.3-1-0.6-1.4-1H1.5c1.9,3.4,5.3,5.7,9.3,6L10.6,22.8z"/>
		<path d="M16.6,6c1.4,1.3,2.3,3,2.4,5h4c-0.1-1.8-0.5-3.5-1.4-5H16.6z"/>
		<path d="M7.5,5c0.8-1.7,1.9-3.4,3.2-4.8L10.8,0C7,0.2,3.8,2.1,1.9,5H7.5z"/>
		<path d="M12.4,0.2c1.3,1.4,2.4,3.1,3.2,4.8H21c-1.9-2.8-5.1-4.7-8.8-5L12.4,0.2z"/>
	</g>
</g>
<g id="Outline_Icons">
	<g>
		<line class="st2" x1="10.5" y1="6.5" x2="10.5" y2="8.5"/>
		<line class="st2" x1="12.5" y1="6.5" x2="12.5" y2="8.5"/>
		<line class="st2" x1="10.5" y1="14.5" x2="10.5" y2="16.5"/>
		<line class="st2" x1="12.5" y1="14.5" x2="12.5" y2="16.5"/>
		<path class="st2" d="M14.5,10c0,0.8-0.7,1.5-1.5,1.5H9.5v-3H13C13.8,8.5,14.5,9.2,14.5,10z"/>
		<path class="st2" d="M14.5,13c0,0.8-0.7,1.5-1.5,1.5H9.5v-3H13C13.8,11.5,14.5,12.2,14.5,13z"/>
		<path class="st3" d="M22.5,11.5c0,6.1-4.9,11-11,11c-6.1,0-11-5.1-11-11.2C0.5,5.3,5.2,0.7,11,0.5c0.2,0,0.3,0,0.5,0
			C17.6,0.5,22.5,5.4,22.5,11.5z"/>
		<path class="st3" d="M8.2,17.7c0.7,1.5,1.7,3.3,2.8,4.8"/>
		<path class="st3" d="M11,0.5C9.6,2,8.5,3.8,7.8,5.5"/>
		<path class="st3" d="M12,0.5c1.4,1.5,2.5,3.3,3.2,5"/>
		<line class="st3" x1="1.8" y1="16.5" x2="6.6" y2="16.5"/>
		<line class="st3" x1="16.4" y1="16.5" x2="21.3" y2="16.5"/>
		<line class="st3" x1="2.2" y1="5.5" x2="7.9" y2="5.5"/>
		<line class="st3" x1="15" y1="5.5" x2="20.8" y2="5.5"/>
		<line class="st3" x1="0.5" y1="11.5" x2="4.5" y2="11.5"/>
		<line class="st3" x1="18.5" y1="11.5" x2="22.5" y2="11.5"/>
		<circle class="st3" cx="11.5" cy="11.5" r="7"/>
		<path class="st3" d="M14.8,17.7c-0.7,1.5-1.7,3.3-2.8,4.8"/>
	</g>
</g>
</svg>
