<?xml version="1.0" encoding="utf-8"?>
<!-- Generator: Adobe Illustrator 19.2.0, SVG Export Plug-In . SVG Version: 6.00 Build 0)  -->
<svg version="1.1" id="Layer_1" xmlns="http://www.w3.org/2000/svg" xmlns:xlink="http://www.w3.org/1999/xlink" x="0px" y="0px"
	 viewBox="0 0 24 24" style="enable-background:new 0 0 24 24;" xml:space="preserve">
<style type="text/css">
	.st0{display:none;}
	.st1{display:inline;}
	.st2{fill:none;stroke:#000000;stroke-linecap:round;stroke-linejoin:round;stroke-miterlimit:10;}
</style>
<g id="Filled_Icon" class="st0">
	<g class="st1">
		<path d="M13,9h-3v2h3c0.6,0,1-0.4,1-1C14,9.4,13.6,9,13,9z"/>
		<path d="M13,12h-3v2h3c0.6,0,1-0.4,1-1C14,12.4,13.6,12,13,12z"/>
		<path d="M23.5,12c0.3,0,0.5-0.2,0.5-0.5c0-0.3-0.2-0.5-0.5-0.5H20V8h3.5C23.8,8,24,7.8,24,7.5C24,7.2,23.8,7,23.5,7H20V5.5
			C20,4.7,19.3,4,18.5,4H17V0.5C17,0.2,16.8,0,16.5,0C16.2,0,16,0.2,16,0.5V4h-4V0.5C12,0.2,11.8,0,11.5,0C11.2,0,11,0.2,11,0.5V4H8
			V0.5C8,0.2,7.8,0,7.5,0C7.2,0,7,0.2,7,0.5V4H5.5C4.7,4,4,4.7,4,5.5V7H0.5C0.2,7,0,7.2,0,7.5C0,7.8,0.2,8,0.5,8H4v4H0.5
			C0.2,12,0,12.2,0,12.5C0,12.8,0.2,13,0.5,13H4v3H0.5C0.2,16,0,16.2,0,16.5C0,16.8,0.2,17,0.5,17H4v1.5C4,19.3,4.7,20,5.5,20H7v3.5
			C7,23.8,7.2,24,7.5,24C7.8,24,8,23.8,8,23.5V20h4v3.5c0,0.3,0.2,0.5,0.5,0.5c0.3,0,0.5-0.2,0.5-0.5V20h3v3.5
			c0,0.3,0.2,0.5,0.5,0.5c0.3,0,0.5-0.2,0.5-0.5V20h1.5c0.8,0,1.5-0.7,1.5-1.5V17h3.5c0.3,0,0.5-0.2,0.5-0.5c0-0.3-0.2-0.5-0.5-0.5
			H20v-4H23.5z M15,13c0,1.1-0.9,2-2,2v1c0,0.3-0.2,0.5-0.5,0.5c-0.3,0-0.5-0.2-0.5-0.5v-1h-1v1c0,0.3-0.2,0.5-0.5,0.5
			c-0.3,0-0.5-0.2-0.5-0.5v-1H9.5C9.2,15,9,14.8,9,14.5v-3v-3C9,8.2,9.2,8,9.5,8H10V7c0-0.3,0.2-0.5,0.5-0.5C10.8,6.5,11,6.7,11,7v1
			h1V7c0-0.3,0.2-0.5,0.5-0.5C12.8,6.5,13,6.7,13,7v1c1.1,0,2,0.9,2,2c0,0.6-0.3,1.1-0.7,1.5C14.7,11.9,15,12.4,15,13z"/>
	</g>
</g>
<g id="Outline_Icons">
	<g>
		<line class="st2" x1="10.5" y1="7" x2="10.5" y2="8.5"/>
		<line class="st2" x1="12.5" y1="7" x2="12.5" y2="8.5"/>
		<line class="st2" x1="10.5" y1="14.5" x2="10.5" y2="16"/>
		<line class="st2" x1="12.5" y1="14.5" x2="12.5" y2="16"/>
		<path class="st2" d="M14.5,10c0,0.8-0.7,1.5-1.5,1.5H9.5v-3H13C13.8,8.5,14.5,9.2,14.5,10z"/>
		<path class="st2" d="M14.5,13c0,0.8-0.7,1.5-1.5,1.5H9.5v-3H13C13.8,11.5,14.5,12.2,14.5,13z"/>
		<path class="st2" d="M19.5,18.5c0,0.5-0.4,1-1,1h-13c-0.5,0-1-0.5-1-1v-13c0-0.5,0.5-1,1-1h13c0.6,0,1,0.5,1,1V18.5z"/>
		<line class="st2" x1="11.5" y1="0.5" x2="11.5" y2="4.5"/>
		<line class="st2" x1="7.5" y1="0.5" x2="7.5" y2="4.5"/>
		<line class="st2" x1="16.5" y1="0.5" x2="16.5" y2="4.5"/>
		<line class="st2" x1="0.5" y1="12.5" x2="4.5" y2="12.5"/>
		<line class="st2" x1="0.5" y1="16.5" x2="4.5" y2="16.5"/>
		<line class="st2" x1="0.5" y1="7.5" x2="4.5" y2="7.5"/>
		<line class="st2" x1="12.5" y1="23.5" x2="12.5" y2="19.5"/>
		<line class="st2" x1="16.5" y1="23.5" x2="16.5" y2="19.5"/>
		<line class="st2" x1="7.5" y1="23.5" x2="7.5" y2="19.5"/>
		<line class="st2" x1="23.5" y1="11.5" x2="19.5" y2="11.5"/>
		<line class="st2" x1="23.5" y1="7.5" x2="19.5" y2="7.5"/>
		<line class="st2" x1="23.5" y1="16.5" x2="19.5" y2="16.5"/>
	</g>
</g>
</svg>
