<?xml version="1.0" encoding="utf-8"?>
<!-- Generator: Adobe Illustrator 19.2.0, SVG Export Plug-In . SVG Version: 6.00 Build 0)  -->
<svg version="1.1" id="Layer_1" xmlns="http://www.w3.org/2000/svg" xmlns:xlink="http://www.w3.org/1999/xlink" x="0px" y="0px"
	 viewBox="0 0 24 24" style="enable-background:new 0 0 24 24;" xml:space="preserve">
<style type="text/css">
	.st0{display:none;}
	.st1{display:inline;}
	.st2{fill:none;stroke:#000000;stroke-linecap:round;stroke-linejoin:round;stroke-miterlimit:10;}
</style>
<g id="Filled_Icon" class="st0">
	<g class="st1">
		<path d="M15,11c0-0.6-0.4-1-1-1h-3v2h3C14.6,12,15,11.6,15,11z"/>
		<path d="M11,15h3c0.6,0,1-0.4,1-1c0-0.6-0.4-1-1-1h-3V15z"/>
		<path d="M21.9,11.9c0.3-1.1,0-2.3-0.6-3.2C20.5,7.6,19.3,7,18,7c0,0,0,0,0,0c-1-2.4-3.4-4-6-4C8.6,3,5.8,5.7,5.5,9
			C2.4,9.3,0,11.9,0,15c0,3.3,2.7,6,6,6h13c2.8,0,5-2.2,5-5C24,14.4,23.2,12.9,21.9,11.9z M16,14c0,1.1-0.9,2-2,2v1.5
			c0,0.3-0.2,0.5-0.5,0.5c-0.3,0-0.5-0.2-0.5-0.5V16h-1v1.5c0,0.3-0.2,0.5-0.5,0.5c-0.3,0-0.5-0.2-0.5-0.5V16h-0.5
			c-0.3,0-0.5-0.2-0.5-0.5v-3v-3C10,9.3,10.2,9,10.5,9H11V7.5C11,7.3,11.2,7,11.5,7C11.8,7,12,7.3,12,7.5V9h1V7.5
			C13,7.3,13.2,7,13.5,7C13.8,7,14,7.3,14,7.5V9c1.1,0,2,0.9,2,2c0,0.6-0.3,1.1-0.7,1.5C15.7,12.9,16,13.4,16,14z"/>
	</g>
</g>
<g id="Outline_Icons">
	<g>
		<g>
			<path class="st2" d="M21.3,12.1c0.8-2.4-1.1-4.9-3.6-4.6c-0.8-2.3-3-4-5.7-4c-3.3,0-6,2.7-6,6C3,9.5,0.5,12,0.5,15
				c0,3,2.5,5.5,5.5,5.5h13c2.5,0,4.5-2,4.5-4.5C23.5,14.4,22.6,12.9,21.3,12.1z"/>
		</g>
		<line class="st2" x1="11.5" y1="7.5" x2="11.5" y2="9.5"/>
		<line class="st2" x1="13.5" y1="7.5" x2="13.5" y2="9.5"/>
		<line class="st2" x1="11.5" y1="15.5" x2="11.5" y2="17.5"/>
		<line class="st2" x1="13.5" y1="15.5" x2="13.5" y2="17.5"/>
		<path class="st2" d="M15.5,11c0,0.8-0.7,1.5-1.5,1.5h-3.5v-3H14C14.8,9.5,15.5,10.2,15.5,11z"/>
		<path class="st2" d="M15.5,14c0,0.8-0.7,1.5-1.5,1.5h-3.5v-3H14C14.8,12.5,15.5,13.2,15.5,14z"/>
	</g>
</g>
</svg>
