<?xml version="1.0" encoding="utf-8"?>
<!-- Generator: Adobe Illustrator 19.2.0, SVG Export Plug-In . SVG Version: 6.00 Build 0)  -->
<svg version="1.1" id="Layer_1" xmlns="http://www.w3.org/2000/svg" xmlns:xlink="http://www.w3.org/1999/xlink" x="0px" y="0px"
	 viewBox="0 0 24 24" style="enable-background:new 0 0 24 24;" xml:space="preserve">
<style type="text/css">
	.st0{display:none;}
	.st1{display:inline;}
	.st2{fill:none;stroke:#000000;stroke-linecap:round;stroke-linejoin:round;stroke-miterlimit:10;}
</style>
<g id="Filled_Icon" class="st0">
	<g class="st1">
		<path d="M13,12.5h-3v2h3c0.6,0,1-0.4,1-1C14,12.9,13.6,12.5,13,12.5z"/>
		<path d="M24,7V4.5C24,3.1,22.9,2,21.5,2h-19C1.1,2,0,3.1,0,4.5V7H24z M10,4c0.6,0,1,0.4,1,1c0,0.6-0.4,1-1,1C9.4,6,9,5.6,9,5
			C9,4.4,9.4,4,10,4z M7,4c0.6,0,1,0.4,1,1c0,0.6-0.4,1-1,1C6.4,6,6,5.6,6,5C6,4.4,6.4,4,7,4z M4,4c0.6,0,1,0.4,1,1c0,0.6-0.4,1-1,1
			C3.4,6,3,5.6,3,5C3,4.4,3.4,4,4,4z"/>
		<path d="M13,15.5h-3v2h3c0.6,0,1-0.4,1-1C14,15.9,13.6,15.5,13,15.5z"/>
		<path d="M0,8v11.5C0,20.9,1.1,22,2.5,22h19c1.4,0,2.5-1.1,2.5-2.5V8H0z M15,16.5c0,1.1-0.9,2-2,2V20c0,0.3-0.2,0.5-0.5,0.5
			c-0.3,0-0.5-0.2-0.5-0.5v-1.5h-1V20c0,0.3-0.2,0.5-0.5,0.5c-0.3,0-0.5-0.2-0.5-0.5v-1.5H9.5C9.2,18.5,9,18.3,9,18v-3v-3
			c0-0.3,0.2-0.5,0.5-0.5H10V10c0-0.3,0.2-0.5,0.5-0.5c0.3,0,0.5,0.2,0.5,0.5v1.5h1V10c0-0.3,0.2-0.5,0.5-0.5c0.3,0,0.5,0.2,0.5,0.5
			v1.5c1.1,0,2,0.9,2,2c0,0.6-0.3,1.1-0.7,1.5C14.7,15.3,15,15.9,15,16.5z"/>
	</g>
</g>
<g id="Outline_Icons">
	<g>
		<line class="st2" x1="10.5" y1="9.5" x2="10.5" y2="11.5"/>
		<line class="st2" x1="12.5" y1="9.5" x2="12.5" y2="11.5"/>
		<line class="st2" x1="10.5" y1="17.5" x2="10.5" y2="19.5"/>
		<line class="st2" x1="12.5" y1="17.5" x2="12.5" y2="19.5"/>
		<path class="st2" d="M14.5,13c0,0.8-0.7,1.5-1.5,1.5H9.5v-3H13C13.8,11.5,14.5,12.2,14.5,13z"/>
		<path class="st2" d="M14.5,16c0,0.8-0.7,1.5-1.5,1.5H9.5v-3H13C13.8,14.5,14.5,15.2,14.5,16z"/>
		<g>
			<path class="st2" d="M23.5,19.5c0,1.1-0.9,2-2,2h-19c-1.1,0-2-0.9-2-2v-15c0-1.1,0.9-2,2-2h19c1.1,0,2,0.9,2,2V19.5z"/>
			<line class="st2" x1="0.5" y1="7.5" x2="23.5" y2="7.5"/>
			<circle class="st2" cx="4" cy="5" r="0.5"/>
			<circle class="st2" cx="7" cy="5" r="0.5"/>
			<circle class="st2" cx="10" cy="5" r="0.5"/>
		</g>
	</g>
</g>
</svg>
