<?xml version="1.0" encoding="utf-8"?>
<!-- Generator: Adobe Illustrator 19.2.0, SVG Export Plug-In . SVG Version: 6.00 Build 0)  -->
<svg version="1.1" id="Layer_1" xmlns="http://www.w3.org/2000/svg" xmlns:xlink="http://www.w3.org/1999/xlink" x="0px" y="0px"
	 viewBox="0 0 24 24" style="enable-background:new 0 0 24 24;" xml:space="preserve">
<style type="text/css">
	.st0{display:none;}
	.st1{display:inline;}
	.st2{fill:none;stroke:#000000;stroke-linecap:round;stroke-linejoin:round;stroke-miterlimit:10;}
</style>
<g id="Filled_Icon" class="st0">
	<g class="st1">
		<g>
			<path d="M14.5,11.5c0-0.6-0.4-1-1-1h-3v2h3C14.1,12.5,14.5,12,14.5,11.5z"/>
			<path d="M14.5,8.5c0-0.6-0.4-1-1-1h-3v2h3C14.1,9.5,14.5,9,14.5,8.5z"/>
			<path d="M9.5,16c0.7,0,1.2,0.4,1.4,1h2.2c0.2-0.6,0.8-1,1.4-1H23V5c0-1.1-0.9-2-2-2H3C1.9,3,1,3.9,1,5v11H9.5z M9.5,10V7
				c0-0.3,0.2-0.5,0.5-0.5h0.5V5c0-0.3,0.2-0.5,0.5-0.5c0.3,0,0.5,0.2,0.5,0.5v1.5h1V5c0-0.3,0.2-0.5,0.5-0.5c0.3,0,0.5,0.2,0.5,0.5
				v1.5c1.1,0,2,0.9,2,2c0,0.6-0.3,1.1-0.7,1.5c0.4,0.4,0.7,0.9,0.7,1.5c0,1.1-0.9,2-2,2V15c0,0.3-0.2,0.5-0.5,0.5
				c-0.3,0-0.5-0.2-0.5-0.5v-1.5h-1V15c0,0.3-0.2,0.5-0.5,0.5c-0.3,0-0.5-0.2-0.5-0.5v-1.5H10c-0.3,0-0.5-0.2-0.5-0.5V10z"/>
		</g>
		<path d="M23.5,17h-9c-0.3,0-0.5,0.2-0.5,0.5V18h-4v-0.5c0-0.3-0.2-0.5-0.5-0.5h-9C0.2,17,0,17.2,0,17.5v2C0,20.3,0.7,21,1.5,21h21
			c0.8,0,1.5-0.7,1.5-1.5v-2C24,17.2,23.8,17,23.5,17z"/>
	</g>
</g>
<g id="Outline_Icons">
	<g>
		<path class="st2" d="M1.5,17.5V5c0-0.8,0.7-1.5,1.5-1.5h18c0.8,0,1.5,0.7,1.5,1.5v12.5"/>
		<path class="st2" d="M14.5,17.5v1h-5v-1h-9v2c0,0.6,0.4,1,1,1h21c0.6,0,1-0.4,1-1v-2H14.5z"/>
		<line class="st2" x1="10.5" y1="5.5" x2="10.5" y2="7.5"/>
		<line class="st2" x1="12.5" y1="5.5" x2="12.5" y2="7.5"/>
		<line class="st2" x1="10.5" y1="13.5" x2="10.5" y2="15.5"/>
		<line class="st2" x1="12.5" y1="13.5" x2="12.5" y2="15.5"/>
		<path class="st2" d="M14.5,9c0,0.8-0.7,1.5-1.5,1.5H9.5v-3H13C13.8,7.5,14.5,8.2,14.5,9z"/>
		<path class="st2" d="M14.5,12c0,0.8-0.7,1.5-1.5,1.5H9.5v-3H13C13.8,10.5,14.5,11.2,14.5,12z"/>
	</g>
</g>
</svg>
