<?xml version="1.0" encoding="utf-8"?>
<!-- Generator: Adobe Illustrator 19.2.0, SVG Export Plug-In . SVG Version: 6.00 Build 0)  -->
<svg version="1.1" id="Layer_1" xmlns="http://www.w3.org/2000/svg" xmlns:xlink="http://www.w3.org/1999/xlink" x="0px" y="0px"
	 viewBox="0 0 24 24" enable-background="new 0 0 24 24" xml:space="preserve">
<g id="Filled_Icons" display="none">
	<g display="inline">
		<path d="M17.162,16.006H6.838L5.02,22.369c-0.043,0.15-0.014,0.312,0.081,0.437c0.095,0.125,0.242,0.198,0.399,0.198H9v0.5
			c0,0.276,0.224,0.5,0.5,0.5c0.276,0,0.5-0.224,0.5-0.5v-0.5h4v0.5c0,0.276,0.225,0.5,0.5,0.5c0.275,0,0.5-0.224,0.5-0.5v-0.5h3.5
			c0.157,0,0.305-0.073,0.398-0.198c0.096-0.125,0.125-0.287,0.082-0.437L17.162,16.006z M9.5,18.006c-0.276,0-0.5-0.225-0.5-0.5
			c0-0.275,0.224-0.5,0.5-0.5c0.276,0,0.5,0.225,0.5,0.5C10,17.781,9.776,18.006,9.5,18.006z M12,21.006c-0.827,0-1.5-0.673-1.5-1.5
			c0-0.826,0.673-1.5,1.5-1.5c0.827,0,1.5,0.674,1.5,1.5C13.5,20.333,12.827,21.006,12,21.006z M14.5,18.006
			c-0.275,0-0.5-0.225-0.5-0.5c0-0.275,0.225-0.5,0.5-0.5c0.275,0,0.5,0.225,0.5,0.5C15,17.781,14.775,18.006,14.5,18.006z"/>
		<path d="M18.809,3.006l-1.361-2.724C17.361,0.113,17.189,0.006,17,0.006H7c-0.189,0-0.362,0.107-0.447,0.276L5.191,3.006H18.809z"
			/>
		<path d="M19.5,5.006h-0.859l0.25-1H5.109l2.75,11H10V8.507c0-0.276,0.224-0.5,0.5-0.5c0.276,0,0.5,0.223,0.5,0.5v6.499h2V8.507
			c0-0.276,0.225-0.5,0.5-0.5c0.275,0,0.5,0.223,0.5,0.5v6.499h2.141l2.25-9H19.5c0.827,0,1.5,0.673,1.5,1.5v4.5
			c0,0.276,0.225,0.5,0.5,0.5c0.275,0,0.5-0.224,0.5-0.5v-4.5C22,6.128,20.879,5.006,19.5,5.006z"/>
	</g>
</g>
<g id="Outline_Icons">
	<g>
		<polygon fill="none" stroke="#000000" stroke-linejoin="round" stroke-miterlimit="10" points="18.5,22.5 5.5,22.5 7.5,15.5 
			16.5,15.5 		"/>
		<polygon fill="none" stroke="#000000" stroke-linejoin="round" stroke-miterlimit="10" points="8.5,15.5 5.5,3.5 18.5,3.5 
			15.5,15.5 		"/>
		
			<line fill="none" stroke="#000000" stroke-linecap="round" stroke-linejoin="round" stroke-miterlimit="10" x1="14.5" y1="22.5" x2="14.5" y2="23.5"/>
		
			<line fill="none" stroke="#000000" stroke-linecap="round" stroke-linejoin="round" stroke-miterlimit="10" x1="9.5" y1="22.5" x2="9.5" y2="23.5"/>
		<polygon fill="none" stroke="#000000" stroke-linejoin="round" stroke-miterlimit="10" points="5.5,3.5 7,0.5 17,0.5 18.5,3.5 		
			"/>
		<path fill="none" stroke="#000000" stroke-linecap="round" stroke-linejoin="round" stroke-miterlimit="10" d="M18,5.5h1.5
			c1.103,0,2,0.896,2,2V12"/>
		
			<circle fill="none" stroke="#000000" stroke-linecap="round" stroke-linejoin="round" stroke-miterlimit="10" cx="12" cy="19.5" r="1"/>
		<g>
			<path d="M9.5,17C9.224,17,9,17.225,9,17.5C9,17.775,9.224,18,9.5,18c0.276,0,0.5-0.225,0.5-0.5C10,17.225,9.776,17,9.5,17L9.5,17
				z"/>
		</g>
		<g>
			<path d="M14.5,17c-0.275,0-0.5,0.225-0.5,0.5c0,0.275,0.225,0.5,0.5,0.5c0.275,0,0.5-0.225,0.5-0.5C15,17.225,14.775,17,14.5,17
				L14.5,17z"/>
		</g>
		
			<line fill="none" stroke="#000000" stroke-linecap="round" stroke-linejoin="round" stroke-miterlimit="10" x1="10.5" y1="15.5" x2="10.5" y2="8.5"/>
		
			<line fill="none" stroke="#000000" stroke-linecap="round" stroke-linejoin="round" stroke-miterlimit="10" x1="13.5" y1="15.5" x2="13.5" y2="8.5"/>
	</g>
</g>
</svg>
