<?xml version="1.0" encoding="utf-8"?>
<!-- Generator: Adobe Illustrator 19.2.0, SVG Export Plug-In . SVG Version: 6.00 Build 0)  -->
<svg version="1.1" id="Layer_1" xmlns="http://www.w3.org/2000/svg" xmlns:xlink="http://www.w3.org/1999/xlink" x="0px" y="0px"
	 viewBox="0 0 24 24" enable-background="new 0 0 24 24" xml:space="preserve">
<g id="Filled_Icons" display="none">
	<path display="inline" d="M13.417,0.216c-0.185-0.28-0.649-0.28-0.834,0C12.272,0.685,5,11.747,5,15.992c0,4.41,3.589,8,8,8
		c4.411,0,8-3.59,8-8C21,11.747,13.727,0.685,13.417,0.216z M11.487,9.724C9.323,13.844,9,15.419,9,15.992
		c0,1.138,0.486,2.224,1.335,2.982c0.206,0.186,0.224,0.5,0.039,0.707c-0.099,0.109-0.235,0.166-0.372,0.166
		c-0.119,0-0.238-0.041-0.334-0.127C8.608,18.773,8,17.413,8,15.992c0-1.182,0.875-3.446,2.602-6.733
		c0.13-0.244,0.431-0.337,0.676-0.211C11.521,9.177,11.616,9.479,11.487,9.724z"/>
</g>
<g id="Outline_Icons">
	<g>
		<path fill="none" stroke="#000000" stroke-linecap="round" stroke-linejoin="round" stroke-miterlimit="10" d="M20.5,16
			c0,4.143-3.357,7.5-7.5,7.5c-4.144,0-7.5-3.357-7.5-7.5C5.5,11.857,13,0.5,13,0.5S20.5,11.857,20.5,16z"/>
		<path fill="none" stroke="#000000" stroke-linecap="round" stroke-linejoin="round" stroke-miterlimit="10" d="M10.002,19.356
			C9.08,18.531,8.5,17.335,8.5,16c0-1.352,1.331-4.19,2.545-6.5"/>
	</g>
</g>
</svg>
