<?xml version="1.0" encoding="utf-8"?>
<!-- Generator: Adobe Illustrator 19.2.0, SVG Export Plug-In . SVG Version: 6.00 Build 0)  -->
<svg version="1.1" id="Layer_1" xmlns="http://www.w3.org/2000/svg" xmlns:xlink="http://www.w3.org/1999/xlink" x="0px" y="0px"
	 viewBox="0 0 24 24" style="enable-background:new 0 0 24 24;" xml:space="preserve">
<style type="text/css">
	.st0{display:none;}
	.st1{display:inline;}
	.st2{fill:none;stroke:#000000;stroke-linecap:round;stroke-linejoin:round;stroke-miterlimit:10;}
</style>
<g id="Filled_Icons" class="st0">
	<path class="st1" d="M14.7,12l5-4.2c0.2-0.2,0.3-0.4,0.4-0.7c0-0.3-0.1-0.6-0.3-0.8l-6.1-6C13.4,0,13-0.1,12.6,0.1
		C12.3,0.2,12,0.6,12,1v8.7L6.7,5.2C6.2,4.9,5.6,4.9,5.3,5.4C4.9,5.8,5,6.4,5.4,6.8l6.2,5.2l-6.2,5.2c-0.4,0.4-0.5,1-0.1,1.4
		c0.4,0.4,1,0.5,1.4,0.1l5.4-4.5V23c0,0.4,0.2,0.8,0.6,0.9C12.8,24,12.9,24,13,24c0.3,0,0.5-0.1,0.7-0.3l6.1-6
		c0.2-0.2,0.3-0.5,0.3-0.8c0-0.3-0.1-0.5-0.4-0.7L14.7,12z M14,3.4l3.6,3.5l-3.6,3V3.4z M14,20.6V14l3.6,3L14,20.6z"/>
</g>
<g id="Outline_Icons">
	<g>
		<polyline class="st2" points="5.5,5.5 18.6,17.5 12.5,23.5 12.5,0.5 18.6,6.5 5.5,18.5 		"/>
	</g>
</g>
</svg>
