<?xml version="1.0" encoding="utf-8"?>
<!-- Generator: Adobe Illustrator 19.2.0, SVG Export Plug-In . SVG Version: 6.00 Build 0)  -->
<svg version="1.1" id="Layer_1" xmlns="http://www.w3.org/2000/svg" xmlns:xlink="http://www.w3.org/1999/xlink" x="0px" y="0px"
	 viewBox="0 0 24 24" style="enable-background:new 0 0 24 24;" xml:space="preserve">
<style type="text/css">
	.st0{display:none;}
	.st1{display:inline;}
	.st2{fill:none;stroke:#000000;stroke-linecap:round;stroke-linejoin:round;stroke-miterlimit:10;}
</style>
<g id="Filled_Icon" class="st0">
	<g class="st1">
		<path d="M9.3,12l5.6-5.1C15,6.8,15,6.6,15.1,6.5c0-0.1-0.1-0.3-0.1-0.4l-6.1-6C8.7,0,8.5,0,8.3,0C8.1,0.1,8,0.3,8,0.5v10.3
			L1.8,5.1C1.6,4.9,1.3,5,1.1,5.2C0.9,5.4,1,5.7,1.2,5.9L7.8,12l-6.7,6.1c-0.2,0.2-0.2,0.5,0,0.7c0.2,0.2,0.5,0.2,0.7,0L8,13.2v10.3
			c0,0.2,0.1,0.4,0.3,0.5c0.1,0,0.1,0,0.2,0c0.1,0,0.3-0.1,0.4-0.1l6.1-6c0.1-0.1,0.2-0.2,0.1-0.4c0-0.1-0.1-0.3-0.2-0.4L9.3,12z
			 M9,1.7l4.8,4.8L9,10.9V1.7z M9,22.3v-9.2l4.8,4.4L9,22.3z"/>
		<path d="M20.5,3.6c-0.2-0.2-0.5-0.2-0.7,0c-0.2,0.2-0.2,0.5,0,0.7c2.1,2.1,3.2,4.8,3.2,7.8c0,2.9-1.1,5.7-3.2,7.8
			c-0.2,0.2-0.2,0.5,0,0.7c0.1,0.1,0.2,0.1,0.4,0.1c0.1,0,0.3,0,0.4-0.1c2.3-2.3,3.5-5.3,3.5-8.5C24,8.9,22.8,5.9,20.5,3.6z"/>
		<path d="M17.7,6.5c-0.2-0.2-0.5-0.2-0.7,0c-0.2,0.2-0.2,0.5,0,0.7c1.3,1.3,2,3.1,2,5c0,1.9-0.7,3.6-2,4.9c-0.2,0.2-0.2,0.5,0,0.7
			c0.1,0.1,0.2,0.1,0.4,0.1c0.1,0,0.3,0,0.4-0.1c1.5-1.5,2.3-3.5,2.3-5.7C20,10,19.2,8,17.7,6.5z"/>
		<path d="M14.1,9.3c-0.2,0.2-0.2,0.5,0,0.7c0.6,0.6,0.9,1.3,0.9,2.1c0,0.8-0.3,1.6-0.9,2.1c-0.2,0.2-0.2,0.5,0,0.7
			c0.1,0.1,0.2,0.1,0.4,0.1c0.1,0,0.3,0,0.4-0.1c0.8-0.8,1.2-1.8,1.2-2.8c0-1.1-0.4-2.1-1.2-2.8C14.6,9.1,14.3,9.1,14.1,9.3z"/>
	</g>
</g>
<g id="Outline_Icons">
	<g>
		<g>
			<polyline class="st2" points="1.5,5.5 14.6,17.5 8.5,23.5 8.5,0.5 14.6,6.5 1.5,18.5 			"/>
		</g>
		<path class="st2" d="M20.1,4c2.1,2.1,3.4,5,3.4,8.1c0,3.2-1.3,6.1-3.4,8.1"/>
		<path class="st2" d="M17.3,6.8c1.4,1.4,2.2,3.2,2.2,5.3c0,2.1-0.8,3.9-2.2,5.3"/>
		<path class="st2" d="M14.5,9.6c0.6,0.6,1,1.5,1,2.5c0,1-0.4,1.8-1,2.5"/>
	</g>
</g>
</svg>
