<?xml version="1.0" encoding="utf-8"?>
<!-- Generator: Adobe Illustrator 19.2.0, SVG Export Plug-In . SVG Version: 6.00 Build 0)  -->
<svg version="1.1" id="Layer_1" xmlns="http://www.w3.org/2000/svg" xmlns:xlink="http://www.w3.org/1999/xlink" x="0px" y="0px"
	 viewBox="0 0 24 24" style="enable-background:new 0 0 24 24;" xml:space="preserve">
<style type="text/css">
	.st0{display:none;}
	.st1{display:inline;}
	.st2{fill:none;stroke:#000000;stroke-linecap:round;stroke-linejoin:round;stroke-miterlimit:10;}
</style>
<g id="Filled_Icon" class="st0">
	<g class="st1">
		<path d="M13.3,12l5.6-5.1C19,6.8,19,6.6,19.1,6.5c0-0.1-0.1-0.3-0.1-0.4l-6.1-6C12.7,0,12.5,0,12.3,0C12.1,0.1,12,0.3,12,0.5v10.3
			L5.8,5.1C5.6,4.9,5.3,5,5.1,5.2C4.9,5.4,5,5.7,5.2,5.9l6.7,6.1l-6.7,6.1c-0.2,0.2-0.2,0.5,0,0.7c0.2,0.2,0.5,0.2,0.7,0l6.2-5.7
			v10.3c0,0.2,0.1,0.4,0.3,0.5c0.1,0,0.1,0,0.2,0c0.1,0,0.3-0.1,0.4-0.1l6.1-6c0.1-0.1,0.2-0.2,0.1-0.4c0-0.1-0.1-0.3-0.2-0.4
			L13.3,12z M13,1.7l4.8,4.8L13,10.9V1.7z M13,22.3v-9.2l4.8,4.4L13,22.3z"/>
		<path d="M6,14.6c0.1,0,0.3,0,0.4-0.1l2.1-2.1c0.2-0.2,0.2-0.5,0-0.7L6.4,9.5c-0.2-0.2-0.5-0.2-0.7,0l-2.1,2.1
			c-0.2,0.2-0.2,0.5,0,0.7l2.1,2.1C5.7,14.6,5.9,14.6,6,14.6z"/>
		<path d="M21.5,11.6l-2.1-2.1c-0.2-0.2-0.5-0.2-0.7,0l-2.1,2.1c-0.2,0.2-0.2,0.5,0,0.7l2.1,2.1c0.1,0.1,0.2,0.1,0.4,0.1
			c0.1,0,0.3,0,0.4-0.1l2.1-2.1C21.7,12.2,21.7,11.8,21.5,11.6z"/>
	</g>
</g>
<g id="Outline_Icons">
	<g>
		<g>
			<polyline class="st2" points="5.5,5.5 18.6,17.5 12.5,23.5 12.5,0.5 18.6,6.5 5.5,18.5 			"/>
		</g>
		<rect x="4.5" y="10.5" transform="matrix(0.7071 -0.7071 0.7071 0.7071 -6.7279 7.7572)" class="st2" width="3" height="3"/>
		<rect x="17.5" y="10.5" transform="matrix(0.7071 -0.7071 0.7071 0.7071 -2.9203 16.9496)" class="st2" width="3" height="3"/>
	</g>
</g>
</svg>
