<?xml version="1.0" encoding="utf-8"?>
<!-- Generator: Adobe Illustrator 19.2.0, SVG Export Plug-In . SVG Version: 6.00 Build 0)  -->
<svg version="1.1" id="Layer_1" xmlns="http://www.w3.org/2000/svg" xmlns:xlink="http://www.w3.org/1999/xlink" x="0px" y="0px"
	 viewBox="0 0 24 24" style="enable-background:new 0 0 24 24;" xml:space="preserve">
<style type="text/css">
	.st0{display:none;}
	.st1{display:inline;}
	.st2{fill:none;stroke:#000000;stroke-linejoin:round;stroke-miterlimit:10;}
</style>
<g id="Filled_Icon" class="st0">
	<g class="st1">
		<circle cx="8.5" cy="4.5" r="2"/>
		<circle cx="8.5" cy="11.5" r="2"/>
		<circle cx="8.5" cy="18.5" r="2"/>
		<circle cx="2.5" cy="4.5" r="2.5"/>
		<circle cx="2.5" cy="11.5" r="2.5"/>
		<circle cx="2.5" cy="18.5" r="2.5"/>
		<circle cx="13.5" cy="4.5" r="1.5"/>
		<circle cx="13.5" cy="11.5" r="1.5"/>
		<circle cx="13.5" cy="18.5" r="1.5"/>
		<circle cx="18.5" cy="4.5" r="1"/>
		<circle cx="18.5" cy="11.5" r="1"/>
		<circle cx="18.5" cy="18.5" r="1"/>
		<g>
			<circle cx="22.5" cy="4.5" r="0.5"/>
		</g>
		<g>
			<circle cx="22.5" cy="11.5" r="0.5"/>
		</g>
		<g>
			<circle cx="22.5" cy="18.5" r="0.5"/>
		</g>
	</g>
</g>
<g id="Outline_Icons">
	<g>
		<circle class="st2" cx="8.5" cy="4.5" r="1.5"/>
		<circle class="st2" cx="8.5" cy="11.5" r="1.5"/>
		<circle class="st2" cx="8.5" cy="18.5" r="1.5"/>
		<circle class="st2" cx="2.5" cy="4.5" r="2"/>
		<circle class="st2" cx="2.5" cy="11.5" r="2"/>
		<circle class="st2" cx="2.5" cy="18.5" r="2"/>
		<circle class="st2" cx="13.5" cy="4.5" r="1"/>
		<circle class="st2" cx="13.5" cy="11.5" r="1"/>
		<circle class="st2" cx="13.5" cy="18.5" r="1"/>
		<circle class="st2" cx="18.5" cy="4.5" r="0.5"/>
		<circle class="st2" cx="18.5" cy="11.5" r="0.5"/>
		<circle class="st2" cx="18.5" cy="18.5" r="0.5"/>
		<g>
			<path d="M22.5,4C22.2,4,22,4.2,22,4.5C22,4.8,22.2,5,22.5,5C22.8,5,23,4.8,23,4.5C23,4.2,22.8,4,22.5,4L22.5,4z"/>
		</g>
		<g>
			<path d="M22.5,11c-0.3,0-0.5,0.2-0.5,0.5c0,0.3,0.2,0.5,0.5,0.5c0.3,0,0.5-0.2,0.5-0.5C23,11.2,22.8,11,22.5,11L22.5,11z"/>
		</g>
		<g>
			<path d="M22.5,18c-0.3,0-0.5,0.2-0.5,0.5c0,0.3,0.2,0.5,0.5,0.5c0.3,0,0.5-0.2,0.5-0.5C23,18.2,22.8,18,22.5,18L22.5,18z"/>
		</g>
	</g>
</g>
</svg>
