<?xml version="1.0" encoding="utf-8"?>
<!-- Generator: Adobe Illustrator 19.2.0, SVG Export Plug-In . SVG Version: 6.00 Build 0)  -->
<svg version="1.1" id="Layer_1" xmlns="http://www.w3.org/2000/svg" xmlns:xlink="http://www.w3.org/1999/xlink" x="0px" y="0px"
	 viewBox="0 0 24 24" enable-background="new 0 0 24 24" xml:space="preserve">
<g id="Filled_Icons" display="none">
	<g display="inline">
		<path d="M2,3.023h1.376l-1.865,8.392c-0.06,0.269,0.109,0.535,0.377,0.597c2.733,0.619,5.872,0.953,9.111,0.996v1.155
			l-6.146,1.883c-0.148,0.046-0.268,0.157-0.323,0.304c-0.054,0.146-0.037,0.31,0.045,0.44l0.84,1.34
			c0.333,0.098,0.634,0.297,0.823,0.602c0.028,0.045,0.895,1.351,2.341,1.351c1.508,0,2.297-1.267,2.33-1.319
			c0.272-0.447,0.768-0.736,1.292-0.736c0.518,0,1.002,0.268,1.275,0.707c0.029,0.043,0.896,1.35,2.344,1.35
			c0.223,0,0.425-0.033,0.615-0.08l1.988-3.213c0.082-0.133,0.098-0.294,0.043-0.438c-0.054-0.147-0.173-0.258-0.32-0.304L12,14.147
			v-1.131c3.341-0.022,6.491-0.365,9.119-1.005c0.264-0.064,0.429-0.329,0.369-0.595l-1.864-8.392H21c0.275,0,0.5-0.224,0.5-0.5
			c0-0.276-0.225-0.5-0.5-0.5h-2h-7V0.506c0-0.276-0.224-0.5-0.5-0.5c-0.276,0-0.5,0.223-0.5,0.5v1.518H4H2
			c-0.276,0-0.5,0.224-0.5,0.5C1.5,2.8,1.724,3.023,2,3.023z"/>
		<path d="M23.82,21.115c-0.116-0.096-0.27-0.133-0.418-0.101c-0.193,0.039-0.389,0.06-0.58,0.06c-1.793,0-2.942-1.799-2.954-1.815
			c-0.187-0.297-0.685-0.288-0.861,0.017c-0.01,0.018-1.065,1.806-3.188,1.806c-2.018,0-3.18-1.804-3.19-1.822
			c-0.188-0.295-0.684-0.284-0.859,0.015c-0.043,0.074-1.084,1.809-3.189,1.809c-2.018,0-3.18-1.805-3.191-1.822
			c-0.175-0.274-0.62-0.299-0.82-0.044c-0.016,0.021-1.521,1.9-3.392,1.9c-0.19,0-0.38-0.021-0.566-0.06
			c-0.147-0.031-0.301,0.006-0.418,0.1c-0.117,0.095-0.186,0.236-0.187,0.388L0,23.522c-0.001,0.133,0.052,0.26,0.146,0.354
			c0.094,0.095,0.222,0.146,0.354,0.146h23c0.275,0,0.499-0.223,0.5-0.498l0.005-2.021C24.005,21.354,23.937,21.211,23.82,21.115z"
			/>
	</g>
</g>
<g id="Outline_Icons">
	<g>
		
			<line fill="none" stroke="#000000" stroke-linecap="round" stroke-linejoin="round" stroke-miterlimit="10" x1="2" y1="2.518" x2="21" y2="2.518"/>
		<path fill="none" stroke="#000000" stroke-linejoin="round" stroke-miterlimit="10" d="M23.5,23.518l0.005-2.021
			c-2.505,0.521-4.06-1.979-4.06-1.979h-0.004c0,0-1.185,2.058-3.621,2.058c-2.334,0-3.614-2.058-3.614-2.058h-0.003
			c0,0-1.186,2.058-3.621,2.058c-2.334,0-3.615-2.058-3.615-2.058H4.962c0,0-2.004,2.543-4.455,2.021L0.5,23.518H23.5z"/>
		<polyline fill="none" stroke="#000000" stroke-linejoin="round" stroke-miterlimit="10" points="14.934,21.473 18,16.518 
			11.531,14.518 5,16.518 8.156,21.551 		"/>
		<path fill="none" stroke="#000000" stroke-linejoin="round" stroke-miterlimit="10" d="M4,2.518h15l2,9
			c-5.492,1.341-13.158,1.326-19,0L4,2.518z"/>
		
			<line fill="none" stroke="#000000" stroke-linecap="round" stroke-linejoin="round" stroke-miterlimit="10" x1="11.5" y1="14.518" x2="11.5" y2="12.518"/>
		
			<line fill="none" stroke="#000000" stroke-linecap="round" stroke-linejoin="round" stroke-miterlimit="10" x1="11.5" y1="2.5" x2="11.5" y2="0.5"/>
	</g>
</g>
</svg>
