<?xml version="1.0" encoding="utf-8"?>
<!-- Generator: Adobe Illustrator 19.2.0, SVG Export Plug-In . SVG Version: 6.00 Build 0)  -->
<svg version="1.1" id="Layer_1" xmlns="http://www.w3.org/2000/svg" xmlns:xlink="http://www.w3.org/1999/xlink" x="0px" y="0px"
	 viewBox="0 0 24 24" enable-background="new 0 0 24 24" xml:space="preserve">
<g id="Filled_Icons" display="none">
	<g display="inline">
		<path d="M22.904,14.212c-0.094-0.129-0.244-0.206-0.404-0.206H13v-2h3.5c0.075,0,0.15-0.017,0.219-0.05
			C16.853,11.891,20,10.312,20,6.006c0-4.305-3.147-5.885-3.281-5.949C16.65,0.023,16.575,0.006,16.5,0.006h-11
			c-0.23,0-0.43,0.158-0.485,0.382C4.96,0.61,5.065,0.844,5.27,0.95C5.381,1.008,8,2.419,8,6.006c0,3.588-2.619,4.998-2.73,5.057
			c-0.204,0.106-0.31,0.339-0.255,0.563c0.055,0.223,0.255,0.38,0.485,0.38H12v2H1.5c-0.16,0-0.311,0.077-0.405,0.206
			c-0.093,0.13-0.12,0.297-0.07,0.449c0.074,0.23,0.146,0.472,0.221,0.722c0.4,1.352,0.905,3.049,2.293,3.965l3.401-3.402
			c0.586-0.586,1.535-0.586,2.121,0c0.586,0.586,0.586,1.537,0,2.121l-1.939,1.939H8.38l4.061-4.061
			c0.586-0.586,1.536-0.586,2.122,0c0.586,0.586,0.586,1.535,0,2.121l-1.939,1.938h1.258l4.061-4.062
			c0.586-0.586,1.535-0.586,2.121,0c0.586,0.586,0.586,1.537,0,2.121L18.128,20c3.265-0.053,4.062-2.709,4.64-4.656
			c0.071-0.236,0.141-0.468,0.211-0.683C23.023,14.509,22.998,14.342,22.904,14.212z"/>
		<g>
			<path d="M1.568,23.938c-0.128,0-0.256-0.049-0.354-0.146c-0.196-0.194-0.196-0.513,0-0.707l6.432-6.433
				c0.195-0.194,0.512-0.194,0.707,0c0.195,0.195,0.195,0.513,0,0.707L1.92,23.792C1.823,23.889,1.695,23.938,1.568,23.938z"/>
		</g>
		<g>
			<path d="M7.068,23.938c-0.128,0-0.256-0.049-0.354-0.146c-0.196-0.194-0.196-0.513,0-0.707l6.433-6.433
				c0.194-0.194,0.512-0.194,0.707,0c0.194,0.195,0.194,0.513,0,0.707L7.42,23.792C7.323,23.889,7.195,23.938,7.068,23.938z"/>
		</g>
		<g>
			<path d="M12.568,23.938c-0.128,0-0.256-0.049-0.354-0.146c-0.196-0.194-0.196-0.513,0-0.707l6.433-6.433
				c0.194-0.194,0.512-0.194,0.707,0c0.194,0.195,0.194,0.513,0,0.707l-6.434,6.433C12.822,23.889,12.695,23.938,12.568,23.938z"/>
		</g>
	</g>
</g>
<g id="Outline_Icons">
	<g>
		<path fill="none" stroke="#000000" stroke-linejoin="round" stroke-miterlimit="10" d="M5.969,20.5h12.062
			c3.352,0,3.834-3.047,4.469-5h-21C2.154,17.51,2.596,20.5,5.969,20.5z"/>
		<path fill="none" stroke="#000000" stroke-linejoin="round" stroke-miterlimit="10" d="M5.5,1.5c0,0,3,1.542,3,5.5s-3,5.5-3,5.5
			c3,0,7.5,0,11,0c0,0,3-1.458,3-5.5s-3-5.5-3-5.5H5.5z"/>
		
			<line fill="none" stroke="#000000" stroke-linecap="round" stroke-linejoin="round" stroke-miterlimit="10" x1="12.5" y1="15.5" x2="12.5" y2="12.5"/>
		
			<line fill="none" stroke="#000000" stroke-linecap="round" stroke-linejoin="round" stroke-miterlimit="10" x1="9.021" y1="17.086" x2="2.588" y2="23.518"/>
		
			<line fill="none" stroke="#000000" stroke-linecap="round" stroke-linejoin="round" stroke-miterlimit="10" x1="13.021" y1="17.086" x2="6.588" y2="23.518"/>
		
			<line fill="none" stroke="#000000" stroke-linecap="round" stroke-linejoin="round" stroke-miterlimit="10" x1="17.021" y1="17.086" x2="10.588" y2="23.518"/>
	</g>
</g>
</svg>
