<?xml version="1.0" encoding="utf-8"?>
<!-- Generator: Adobe Illustrator 19.2.0, SVG Export Plug-In . SVG Version: 6.00 Build 0)  -->
<svg version="1.1" id="Layer_1" xmlns="http://www.w3.org/2000/svg" xmlns:xlink="http://www.w3.org/1999/xlink" x="0px" y="0px"
	 viewBox="0 0 24 24" enable-background="new 0 0 24 24" xml:space="preserve">
<g id="Filled_Icons" display="none">
	<g display="inline">
		<path d="M23.82,21.113c-0.116-0.094-0.271-0.131-0.418-0.102c-0.194,0.041-0.391,0.062-0.582,0.062
			c-1.791,0-2.94-1.799-2.952-1.815c-0.185-0.295-0.683-0.286-0.859,0.015c-0.043,0.072-1.084,1.807-3.188,1.807
			c-2.02,0-3.182-1.803-3.192-1.821c-0.187-0.296-0.685-0.286-0.859,0.017c-0.011,0.018-1.066,1.806-3.188,1.806
			c-2.018,0-3.18-1.804-3.191-1.821c-0.175-0.274-0.621-0.299-0.82-0.044c-0.016,0.021-1.521,1.899-3.391,1.899
			c-0.19,0-0.381-0.02-0.567-0.061c-0.146-0.029-0.301,0.006-0.418,0.102c-0.117,0.094-0.186,0.236-0.187,0.387L0,23.522
			c-0.001,0.133,0.052,0.26,0.146,0.354c0.094,0.095,0.222,0.146,0.354,0.146h23c0.275,0,0.499-0.223,0.5-0.498l0.005-2.021
			C24.005,21.354,23.937,21.21,23.82,21.113z"/>
		<path d="M2.813,16.006l-1.356,4.07c1.21-0.195,2.316-1.469,2.328-1.481c0.604-0.769,1.937-0.695,2.455,0.135
			c0.029,0.045,0.895,1.35,2.342,1.35c1.526,0,2.314-1.292,2.322-1.305c0.268-0.465,0.763-0.752,1.299-0.752
			c0.518,0,1.002,0.269,1.275,0.707c0.029,0.043,0.897,1.35,2.344,1.35c1.508,0,2.297-1.266,2.33-1.318
			c0.273-0.447,0.769-0.736,1.291-0.736c0.519,0,1.004,0.268,1.277,0.707c0.002,0.002,0.471,0.676,1.182,1.064l1.916-3.789
			L2.813,16.006L2.813,16.006z"/>
		<g>
			<path d="M1.563,12.023H5.86l-0.745,2.982H21.73l-1.18-1.5H13c-0.133,0-0.26-0.053-0.354-0.146l-3-3
				c-0.144-0.143-0.187-0.357-0.108-0.545C9.615,9.628,9.798,9.506,10,9.506h7.407l-1.015-1.291c-0.095-0.12-0.24-0.191-0.392-0.191
				L13.203,8.02l-3.85-3.85c-0.195-0.195-0.512-0.195-0.707,0c-0.195,0.195-0.195,0.512,0,0.707l3.14,3.141l-7.63-0.012l0,0
				c-0.146,0-0.284,0.063-0.379,0.175l-2.594,3.017c-0.127,0.148-0.156,0.356-0.075,0.534C1.189,11.91,1.367,12.023,1.563,12.023z"
				/>
		</g>
	</g>
</g>
<g id="Outline_Icons">
	<g>
		<path fill="none" stroke="#000000" stroke-linejoin="round" stroke-miterlimit="10" d="M23.5,23.518l0.005-2.021
			c-2.505,0.521-4.06-1.979-4.06-1.979h-0.004c0,0-1.185,2.057-3.621,2.057c-2.334,0-3.614-2.057-3.614-2.057h-0.003
			c0,0-1.186,2.057-3.621,2.057c-2.334,0-3.615-2.057-3.615-2.057H4.962c0,0-2.004,2.541-4.455,2.021L0.5,23.518H23.5z"/>
		<polyline fill="none" stroke="#000000" stroke-linejoin="round" stroke-miterlimit="10" points="20.771,20.912 23.5,15.518 
			3.5,15.518 1.5,21.518 		"/>
		<polygon fill="none" stroke="#000000" stroke-linejoin="round" stroke-miterlimit="10" points="16,8.518 4.156,8.5 1.563,11.518 
			6.5,11.518 5.5,15.518 21.5,15.518 		"/>
		<polyline fill="none" stroke="#000000" stroke-linejoin="round" stroke-miterlimit="10" points="17.5,10.518 9.5,10.518 
			12.5,13.518 20,13.518 		"/>
		
			<line fill="none" stroke="#000000" stroke-linecap="round" stroke-linejoin="round" stroke-miterlimit="10" x1="13" y1="8.518" x2="9" y2="4.518"/>
	</g>
</g>
</svg>
