<?xml version="1.0" encoding="utf-8"?>
<!-- Generator: Adobe Illustrator 19.2.0, SVG Export Plug-In . SVG Version: 6.00 Build 0)  -->
<svg version="1.1" id="Outline_Icons" xmlns="http://www.w3.org/2000/svg" xmlns:xlink="http://www.w3.org/1999/xlink" x="0px"
	 y="0px" viewBox="0 0 24 24" style="enable-background:new 0 0 24 24;" xml:space="preserve">
<style type="text/css">
	.st0{fill:none;stroke:#000000;stroke-linecap:round;stroke-linejoin:round;stroke-miterlimit:10;}
</style>
<g>
	<path class="st0" d="M21.5,23.5c-1,0-2-0.9-2-2c0,1.1-1,2-2,2s-2-0.9-2-2c0,1.1-1,2-2,2s-2-0.9-2-2c0,1.1-1,2-2,2s-2-0.9-2-2
		c0,1.1-1,2-2,2s-2-0.9-2-2c0,1.1-1,2-2,2"/>
	<path class="st0" d="M21.5,19.5c-1,0-2-0.9-2-2c0,1.1-1,2-2,2s-2-0.9-2-2c0,1.1-1,2-2,2s-2-0.9-2-2c0,1.1-1,2-2,2s-2-0.9-2-2
		c0,1.1-1,2-2,2s-2-0.9-2-2c0,1.1-1,2-2,2"/>
	<path class="st0" d="M17.5,15.5c1-0.5,1.5-2,1.5-3H3c0,1.1,0.5,2.5,1.7,3"/>
	<line class="st0" x1="10.5" y1="12.5" x2="10.5" y2="0.5"/>
	<polygon class="st0" points="17.5,9.5 10.5,9.5 10.5,1 	"/>
	<line class="st0" x1="10.5" y1="9.5" x2="18.5" y2="9.5"/>
</g>
</svg>
