<?xml version="1.0" encoding="utf-8"?>
<!-- Generator: Adobe Illustrator 19.2.0, SVG Export Plug-In . SVG Version: 6.00 Build 0)  -->
<svg version="1.1" id="Layer_1" xmlns="http://www.w3.org/2000/svg" xmlns:xlink="http://www.w3.org/1999/xlink" x="0px" y="0px"
	 viewBox="0 0 24 24" enable-background="new 0 0 24 24" xml:space="preserve">
<g id="Filled_Icons" display="none">
	<path display="inline" d="M23.021,11.006h-1.572c-0.193-1.87-0.934-3.578-2.055-4.968l1.099-1.099c0.39-0.391,0.39-1.024,0-1.414
		c-0.392-0.392-1.024-0.392-1.415,0l-1.096,1.094C16.592,3.488,14.877,2.74,13,2.543V1.006c0-0.552-0.447-1-1-1
		c-0.552,0-1,0.448-1,1v1.537C9.123,2.74,7.407,3.488,6.017,4.619L4.921,3.525c-0.39-0.392-1.023-0.392-1.414,0
		c-0.391,0.39-0.391,1.022,0,1.414l1.1,1.099c-1.121,1.39-1.862,3.098-2.055,4.968H1c-0.552,0-1,0.448-1,1c0,0.553,0.448,1,1,1
		h1.556c0.2,1.871,0.946,3.58,2.074,4.967l-1.123,1.123c-0.391,0.391-0.391,1.023,0,1.413c0.195,0.195,0.451,0.294,0.708,0.294
		c0.255,0,0.512-0.099,0.707-0.294l1.127-1.126C7.434,20.5,9.136,21.24,11,21.436v1.592c0,0.553,0.448,1,1,1c0.553,0,1-0.447,1-1
		v-1.592c1.863-0.194,3.566-0.936,4.952-2.053l1.126,1.126c0.195,0.195,0.451,0.294,0.707,0.294c0.256,0,0.512-0.099,0.708-0.294
		c0.39-0.391,0.39-1.023,0-1.413l-1.123-1.123c1.128-1.387,1.874-3.096,2.073-4.967h1.576c0.553,0,1-0.447,1-1
		C24.021,11.454,23.572,11.006,23.021,11.006z M19.428,11.006h-3.57c-0.094-0.36-0.235-0.698-0.42-1.013l2.529-2.529
		C18.736,8.477,19.254,9.687,19.428,11.006z M12,14.006c-1.103,0-2-0.896-2-2c0-1.103,0.897-2,2-2c1.103,0,2,0.897,2,2
		C14,13.109,13.103,14.006,12,14.006z M16.557,6.046l-2.531,2.53C13.708,8.389,13.365,8.243,13,8.148V4.564
		C14.327,4.742,15.543,5.267,16.557,6.046z M11,4.564v3.584c-0.366,0.095-0.709,0.24-1.026,0.428l-2.53-2.53
		C8.457,5.267,9.673,4.742,11,4.564z M6.033,7.464l2.529,2.53c-0.184,0.314-0.327,0.651-0.421,1.012H4.572
		C4.746,9.687,5.264,8.477,6.033,7.464z M4.577,13.006h3.564c0.096,0.366,0.24,0.709,0.429,1.025l-2.514,2.515
		C5.28,15.536,4.757,14.326,4.577,13.006z M7.475,17.957l2.513-2.516c0.314,0.186,0.652,0.328,1.013,0.422v3.552
		C9.687,19.238,8.482,18.723,7.475,17.957z M13,19.415v-3.552c0.359-0.094,0.697-0.236,1.012-0.42l2.514,2.514
		C15.518,18.723,14.312,19.238,13,19.415z M17.943,16.546l-2.514-2.515c0.188-0.316,0.332-0.659,0.428-1.025h3.564
		C19.243,14.326,18.721,15.536,17.943,16.546z"/>
</g>
<g id="Outline_Icons">
	<g>
		<circle fill="none" stroke="#000000" stroke-linejoin="round" stroke-miterlimit="10" cx="11.5" cy="12.483" r="3.5"/>
		<circle fill="none" stroke="#000000" stroke-linejoin="round" stroke-miterlimit="10" cx="11.5" cy="12.483" r="1.5"/>
		<circle fill="none" stroke="#000000" stroke-linejoin="round" stroke-miterlimit="10" cx="11.5" cy="12.483" r="8.5"/>
		
			<line fill="none" stroke="#000000" stroke-linecap="round" stroke-linejoin="round" stroke-miterlimit="10" x1="11.5" y1="15.982" x2="11.5" y2="23.522"/>
		
			<line fill="none" stroke="#000000" stroke-linecap="round" stroke-linejoin="round" stroke-miterlimit="10" x1="11.5" y1="1.5" x2="11.5" y2="8.983"/>
		
			<line fill="none" stroke="#000000" stroke-linecap="round" stroke-linejoin="round" stroke-miterlimit="10" x1="8.982" y1="15.027" x2="3.714" y2="20.296"/>
		
			<line fill="none" stroke="#000000" stroke-linecap="round" stroke-linejoin="round" stroke-miterlimit="10" x1="19.286" y1="4.726" x2="14.021" y2="9.989"/>
		
			<line fill="none" stroke="#000000" stroke-linecap="round" stroke-linejoin="round" stroke-miterlimit="10" x1="8.994" y1="10.005" x2="3.714" y2="4.726"/>
		
			<line fill="none" stroke="#000000" stroke-linecap="round" stroke-linejoin="round" stroke-miterlimit="10" x1="19.286" y1="20.296" x2="14.003" y2="15.014"/>
		
			<line fill="none" stroke="#000000" stroke-linecap="round" stroke-linejoin="round" stroke-miterlimit="10" x1="7.975" y1="12.5" x2="0.5" y2="12.5"/>
		
			<line fill="none" stroke="#000000" stroke-linecap="round" stroke-linejoin="round" stroke-miterlimit="10" x1="22.521" y1="12.5" x2="15.004" y2="12.5"/>
	</g>
</g>
</svg>
