<?xml version="1.0" encoding="utf-8"?>
<!-- Generator: Adobe Illustrator 19.2.0, SVG Export Plug-In . SVG Version: 6.00 Build 0)  -->
<svg version="1.1" id="Layer_1" xmlns="http://www.w3.org/2000/svg" xmlns:xlink="http://www.w3.org/1999/xlink" x="0px" y="0px"
	 viewBox="0 0 24 24" enable-background="new 0 0 24 24" xml:space="preserve">
<g id="Filled_Icons" display="none">
	<g display="inline">
		<path d="M14.519,18.008c-0.17-0.015-0.34,0.076-0.435,0.223l-0.563,0.842l-1.093-1.822c-0.181-0.301-0.677-0.301-0.857,0
			l-1.094,1.822l-0.562-0.842c-0.097-0.147-0.258-0.235-0.436-0.223c-0.174,0.006-0.331,0.102-0.417,0.254
			C8.803,18.727,7.5,21.094,7.5,22.006c0,1.104,0.896,2,2,2h5c1.103,0,2-0.896,2-2c0-0.912-1.303-3.279-1.565-3.744
			C14.852,18.109,14.691,18.014,14.519,18.008z"/>
		<path d="M19.5,5.006H18v-2h0.5c0.275,0,0.5-0.224,0.5-0.5c0-0.275-0.225-0.5-0.5-0.5h-1h-3.051c-0.232-1.139-1.242-2-2.449-2
			c-1.208,0-2.218,0.861-2.45,2H6.5h-1c-0.276,0-0.5,0.225-0.5,0.5c0,0.276,0.224,0.5,0.5,0.5H6v2H4.5c-0.276,0-0.5,0.225-0.5,0.5
			c0,0.276,0.224,0.5,0.5,0.5H6v7.5c0,1.379,1.121,2.5,2.5,2.5h7c1.378,0,2.5-1.121,2.5-2.5v-7.5h1.5c0.275,0,0.5-0.224,0.5-0.5
			C20,5.23,19.775,5.006,19.5,5.006z M10.592,2.006c0.207-0.58,0.757-1,1.408-1c0.65,0,1.2,0.42,1.407,1H10.592z"/>
	</g>
</g>
<g id="Outline_Icons">
	<g>
		<path fill="none" stroke="#000000" stroke-linecap="round" stroke-linejoin="round" stroke-miterlimit="10" d="M14.5,23.5
			c0.827,0,1.5-0.672,1.5-1.5c0-0.828-1.5-3.5-1.5-3.5l-1,1.5L12,17.5L10.5,20l-1-1.5c0,0-1.5,2.672-1.5,3.5
			c0,0.828,0.671,1.5,1.5,1.5H14.5z"/>
		<path fill="none" stroke="#000000" stroke-linecap="round" stroke-linejoin="round" stroke-miterlimit="10" d="M17.5,13.5
			c0,1.104-0.897,2-2,2h-7c-1.105,0-2-0.896-2-2v-11h11V13.5z"/>
		
			<line fill="none" stroke="#000000" stroke-linecap="round" stroke-linejoin="round" stroke-miterlimit="10" x1="6.5" y1="5.5" x2="4.5" y2="5.5"/>
		
			<line fill="none" stroke="#000000" stroke-linecap="round" stroke-linejoin="round" stroke-miterlimit="10" x1="17.5" y1="5.5" x2="19.5" y2="5.5"/>
		
			<line fill="none" stroke="#000000" stroke-linecap="round" stroke-linejoin="round" stroke-miterlimit="10" x1="5.5" y1="2.5" x2="18.5" y2="2.5"/>
		<path fill="none" stroke="#000000" stroke-linecap="round" stroke-linejoin="round" stroke-miterlimit="10" d="M10,2.5
			c0-1.105,0.895-2,2-2c1.103,0,2,0.895,2,2"/>
	</g>
</g>
</svg>
