<?xml version="1.0" encoding="utf-8"?>
<!-- Generator: Adobe Illustrator 19.2.0, SVG Export Plug-In . SVG Version: 6.00 Build 0)  -->
<svg version="1.1" id="Layer_1" xmlns="http://www.w3.org/2000/svg" xmlns:xlink="http://www.w3.org/1999/xlink" x="0px" y="0px"
	 viewBox="0 0 24 24" style="enable-background:new 0 0 24 24;" xml:space="preserve">
<style type="text/css">
	.st0{display:none;}
	.st1{display:inline;}
	.st2{fill:none;stroke:#000000;stroke-linecap:round;stroke-linejoin:round;stroke-miterlimit:10;}
</style>
<g id="Filled_Icon" class="st0">
	<path class="st1" d="M17.7,11C19.1,9.8,20,8,20,6c0-3.5-2.7-6-6.5-6H4C3.4,0,3,0.4,3,1c0,0.6,0.4,1,1,1h2v20H4c-0.6,0-1,0.4-1,1
		c0,0.6,0.4,1,1,1h11c3.9,0,7-3.1,7-7C22,14.2,20.3,11.9,17.7,11z M8,2h5.5C16.1,2,18,3.6,18,6c0,2.5-2,4.5-4.5,4.5h-2H8V2z M15,22
		H8v-9.5h3.5h2H15c2.9,0,5,1.9,5,4.5C20,19.8,17.8,22,15,22z"/>
</g>
<g id="Outline_Icons">
	<g>
		<line class="st2" x1="6.5" y1="0.5" x2="6.5" y2="23.5"/>
		<path class="st2" d="M6.5,11.5H13c3,0,5.5-2.5,5.5-5.5c0-3-2.5-5.5-5.5-5.5H3.5"/>
		<path class="st2" d="M11,11.5h3.5c3.3,0,6,2.7,6,6c0,3.3-2.7,6-6,6h-11"/>
	</g>
</g>
</svg>
