<?xml version="1.0" encoding="utf-8"?>
<!-- Generator: Adobe Illustrator 19.2.0, SVG Export Plug-In . SVG Version: 6.00 Build 0)  -->
<svg version="1.1" id="Layer_1" xmlns="http://www.w3.org/2000/svg" xmlns:xlink="http://www.w3.org/1999/xlink" x="0px" y="0px"
	 viewBox="0 0 24 24" enable-background="new 0 0 24 24" xml:space="preserve">
<g id="Filled_Icons" display="none">
	<path display="inline" d="M21.5,2.506c-0.827,0-1.5,0.671-1.5,1.5c0,0.827-0.673,1.5-1.5,1.5c-0.827,0-1.5-0.673-1.5-1.5
		c0-1.653-1.346-3-2.999-3c-1.654,0-3,1.347-3,3v2h-1.5c-0.276,0-0.5,0.223-0.5,0.5v1.09c-3.005,1.217-5,4.15-5,7.41
		c0,4.411,3.589,8,8,8c4.411,0,7.999-3.589,7.999-8c0-3.26-1.994-6.193-4.999-7.41v-1.09c0-0.277-0.224-0.5-0.5-0.5h-2.5v-2
		c0-1.104,0.895-2,2-2c1.102,0,1.999,0.896,1.999,2c0,1.378,1.122,2.5,2.5,2.5c1.379,0,2.5-1.122,2.5-2.5c0-0.275,0.225-0.5,0.5-0.5
		c0.275,0,0.5-0.225,0.5-0.5C22,2.729,21.775,2.506,21.5,2.506z M9.142,10.904c-2.262,1.577-2.819,4.7-1.242,6.962
		c0.157,0.226,0.102,0.536-0.125,0.694c-0.087,0.06-0.187,0.088-0.285,0.088c-0.158,0-0.313-0.072-0.41-0.211
		c-0.917-1.316-1.267-2.908-0.984-4.486c0.28-1.577,1.16-2.951,2.474-3.867c0.227-0.158,0.538-0.103,0.696,0.124
		C9.424,10.434,9.368,10.747,9.142,10.904z"/>
</g>
<g id="Outline_Icons">
	<g>
		<path fill="none" stroke="#000000" stroke-linecap="round" stroke-linejoin="round" stroke-miterlimit="10" d="M21.5,3
			c-0.553,0-1,0.448-1,1c0,1.104-0.895,2-2,2c-1.104,0-2-0.896-2-2c0-1.38-1.119-2.5-2.5-2.5c-1.381,0-2.5,1.12-2.5,2.5v2.5"/>
		<path fill="none" stroke="#000000" stroke-linecap="round" stroke-linejoin="round" stroke-miterlimit="10" d="M7.488,18.145
			c-1.736-2.492-1.125-5.919,1.367-7.657"/>
		<path fill="none" stroke="#000000" stroke-linecap="round" stroke-linejoin="round" stroke-miterlimit="10" d="M14.5,7.936V6.5h-5
			v1.436c-2.911,1.031-5,3.8-5,7.064c0,4.143,3.357,7.5,7.5,7.5c4.143,0,7.5-3.357,7.5-7.5C19.5,11.736,17.411,8.967,14.5,7.936z"/>
	</g>
</g>
</svg>
