<?xml version="1.0" encoding="utf-8"?>
<!-- Generator: Adobe Illustrator 19.2.0, SVG Export Plug-In . SVG Version: 6.00 Build 0)  -->
<svg version="1.1" id="Layer_1" xmlns="http://www.w3.org/2000/svg" xmlns:xlink="http://www.w3.org/1999/xlink" x="0px" y="0px"
	 viewBox="0 0 24 24" enable-background="new 0 0 24 24" xml:space="preserve">
<g id="Filled_Icons" display="none">
	<g display="inline">
		<path d="M12.368,13.955l-1.853-0.606l-0.508-1.746c-0.05-0.17-0.186-0.301-0.356-0.345c-0.17-0.044-0.353,0.006-0.478,0.131
			l-2.535,2.535c-0.038-0.041-0.072-0.077-0.099-0.102c-0.662-0.663-1.585-1.043-2.53-1.043c-0.927,0-1.788,0.352-2.426,0.99
			c-0.655,0.655-1.021,1.52-1.028,2.435c-0.008,0.921,0.349,1.789,1.003,2.442c0.656,0.656,1.535,1.002,2.47,1.002
			c-0.01,0.922,0.346,1.815,1.007,2.477c0.662,0.662,1.544,1.025,2.483,1.025c0.927,0,1.794-0.357,2.441-1.006
			c0.655-0.654,1.02-1.521,1.026-2.438c0.006-0.896-0.333-1.745-0.953-2.391l2.532-2.535c0.123-0.122,0.174-0.301,0.134-0.469
			C12.658,14.143,12.533,14.008,12.368,13.955z"/>
		<path d="M23.656,5.479c-0.241-0.897-0.814-1.647-1.615-2.113c-0.803-0.466-1.779-0.592-2.667-0.349
			c-0.228-0.896-0.804-1.67-1.618-2.146c-0.529-0.309-1.132-0.472-1.742-0.472c-1.231,0-2.382,0.661-3,1.724
			c-0.465,0.799-0.567,1.751-0.287,2.683c0.269,0.894,0.875,1.671,1.666,2.132c0.022,0.013,0.067,0.039,0.125,0.07l-1.904,3.27
			c-0.088,0.151-0.09,0.338-0.008,0.491c0.084,0.153,0.242,0.252,0.416,0.26l1.805,0.087l1.089,1.605
			c0.094,0.137,0.249,0.219,0.414,0.219c0.006,0,0.012,0,0.019,0c0.172-0.006,0.327-0.1,0.414-0.248l1.902-3.269
			c0.508,0.281,1.078,0.43,1.652,0.43c1.224,0,2.369-0.666,2.994-1.737C23.773,7.314,23.898,6.378,23.656,5.479z"/>
		<path d="M5.5,10.006h2c0.276,0,0.5-0.224,0.5-0.5c0-0.276-0.224-0.5-0.5-0.5h-2c-0.276,0-0.5,0.224-0.5,0.5
			C5,9.782,5.224,10.006,5.5,10.006z"/>
		<path d="M10.5,7.006c0.276,0,0.5-0.224,0.5-0.5v-2c0-0.276-0.224-0.5-0.5-0.5c-0.276,0-0.5,0.223-0.5,0.5v2
			C10,6.782,10.224,7.006,10.5,7.006z"/>
		<path d="M8.014,7.603c0.089,0.064,0.192,0.096,0.295,0.096c0.154,0,0.307-0.071,0.404-0.205c0.162-0.224,0.113-0.537-0.109-0.7
			L6.987,5.616C6.765,5.455,6.45,5.503,6.288,5.727C6.126,5.951,6.175,6.263,6.397,6.425L8.014,7.603z"/>
		<path d="M20.5,14.006h-2c-0.275,0-0.5,0.225-0.5,0.5c0,0.275,0.225,0.5,0.5,0.5h2c0.275,0,0.5-0.225,0.5-0.5
			C21,14.231,20.775,14.006,20.5,14.006z"/>
		<path d="M15.5,17.006c-0.275,0-0.5,0.225-0.5,0.5v2c0,0.275,0.225,0.5,0.5,0.5c0.275,0,0.5-0.225,0.5-0.5v-2
			C16,17.229,15.775,17.006,15.5,17.006z"/>
		<path d="M17.986,16.41c-0.223-0.162-0.536-0.114-0.698,0.109c-0.162,0.224-0.113,0.537,0.108,0.699l1.617,1.178
			c0.088,0.063,0.191,0.096,0.295,0.096c0.153,0,0.307-0.072,0.403-0.206c0.162-0.224,0.113-0.536-0.108-0.699L17.986,16.41z"/>
	</g>
</g>
<g id="Outline_Icons">
	<g>
		<path fill="none" stroke="#000000" stroke-linejoin="round" stroke-miterlimit="10" d="M12.213,14.423l-2.931,2.931
			c0.02-0.02,0.225,0.137,0.345,0.258c1.159,1.158,1.139,3.016-0.021,4.175c-1.158,1.159-3.059,1.138-4.218-0.021
			c-0.73-0.731-0.991-1.742-0.801-2.684c-0.942,0.19-1.945-0.064-2.676-0.795c-1.159-1.158-1.133-3.011,0.025-4.17
			c1.158-1.158,3.09-1.106,4.249,0.053c0.121,0.121,0.43,0.479,0.41,0.499l2.931-2.931l0.582,1.998L12.213,14.423z"/>
		<path fill="none" stroke="#000000" stroke-linejoin="round" stroke-miterlimit="10" d="M16.328,12.434l2.186-3.756
			C18.5,8.702,18.702,8.86,18.85,8.946c1.416,0.824,3.203,0.327,4.027-1.09c0.824-1.416,0.329-3.241-1.088-4.065
			c-0.893-0.52-1.951-0.523-2.812-0.098c-0.057-0.96-0.578-1.876-1.473-2.396c-1.416-0.824-3.234-0.345-4.059,1.071
			c-0.825,1.416-0.219,3.307,1.199,4.131c0.147,0.086,0.571,0.293,0.586,0.269l-2.187,3.756l2.054,0.099L16.328,12.434z"/>
		
			<line fill="none" stroke="#000000" stroke-linecap="round" stroke-linejoin="round" stroke-miterlimit="10" x1="7.5" y1="9.5" x2="5.5" y2="9.5"/>
		
			<line fill="none" stroke="#000000" stroke-linecap="round" stroke-linejoin="round" stroke-miterlimit="10" x1="10.5" y1="6.5" x2="10.5" y2="4.5"/>
		
			<line fill="none" stroke="#000000" stroke-linecap="round" stroke-linejoin="round" stroke-miterlimit="10" x1="8.309" y1="7.192" x2="6.692" y2="6.015"/>
		
			<line fill="none" stroke="#000000" stroke-linecap="round" stroke-linejoin="round" stroke-miterlimit="10" x1="18.5" y1="14.5" x2="20.5" y2="14.5"/>
		
			<line fill="none" stroke="#000000" stroke-linecap="round" stroke-linejoin="round" stroke-miterlimit="10" x1="15.5" y1="17.5" x2="15.5" y2="19.5"/>
		
			<line fill="none" stroke="#000000" stroke-linecap="round" stroke-linejoin="round" stroke-miterlimit="10" x1="17.691" y1="16.809" x2="19.309" y2="17.984"/>
	</g>
</g>
</svg>
