<?xml version="1.0" encoding="utf-8"?>
<!-- Generator: Adobe Illustrator 19.2.0, SVG Export Plug-In . SVG Version: 6.00 Build 0)  -->
<svg version="1.1" id="Layer_1" xmlns="http://www.w3.org/2000/svg" xmlns:xlink="http://www.w3.org/1999/xlink" x="0px" y="0px"
	 viewBox="0 0 24 24" style="enable-background:new 0 0 24 24;" xml:space="preserve">
<style type="text/css">
	.st0{display:none;}
	.st1{display:inline;}
	.st2{fill:none;stroke:#000000;stroke-linecap:round;stroke-linejoin:round;stroke-miterlimit:10;}
</style>
<g id="Filled_Icons" class="st0">
	<path class="st1" d="M23.9,22.6l-5-19.4c-0.1-0.3-0.3-0.4-0.6-0.4l-2.9,0.8c-0.1,0-0.2,0.1-0.3,0.2C15,4,15,4.1,15,4.3L16,8h-5V0.5
		C11,0.2,10.8,0,10.5,0h-6C4.2,0,4,0.2,4,0.5V3H0.5C0.2,3,0,3.2,0,3.5v20C0,23.8,0.2,24,0.5,24h4h6h6c0.3,0,0.5-0.2,0.5-0.5V11.9
		l3,11.7c0.1,0.2,0.3,0.4,0.5,0.4c0,0,0.1,0,0.1,0l2.9-0.8C23.8,23.2,24,22.9,23.9,22.6z M3,20.5C3,20.8,2.8,21,2.5,21
		C2.2,21,2,20.8,2,20.5v-14C2,6.2,2.2,6,2.5,6C2.8,6,3,6.2,3,6.5V20.5z M7,2.5C7,2.2,7.2,2,7.5,2C7.8,2,8,2.2,8,2.5v13
		C8,15.8,7.8,16,7.5,16C7.2,16,7,15.8,7,15.5V2.5z M9,21.5C9,21.8,8.8,22,8.5,22h-2C6.2,22,6,21.8,6,21.5v-4C6,17.2,6.2,17,6.5,17h2
		C8.8,17,9,17.2,9,17.5V21.5z M13,10.5c0-0.3,0.2-0.5,0.5-0.5c0.3,0,0.5,0.2,0.5,0.5v9c0,0.3-0.2,0.5-0.5,0.5
		c-0.3,0-0.5-0.2-0.5-0.5V10.5z M14.5,22h-2c-0.3,0-0.5-0.2-0.5-0.5c0-0.3,0.2-0.5,0.5-0.5h2c0.3,0,0.5,0.2,0.5,0.5
		C15,21.8,14.8,22,14.5,22z"/>
</g>
<g id="Outline_Icons">
	<g>
		<rect x="4.5" y="0.5" class="st2" width="6" height="23"/>
		<rect x="10.5" y="8.5" class="st2" width="6" height="15"/>
		<line class="st2" x1="12.5" y1="21.5" x2="14.5" y2="21.5"/>
		<line class="st2" x1="7.5" y1="2.5" x2="7.5" y2="15.5"/>
		<rect x="6.5" y="17.5" class="st2" width="2" height="4"/>
		<line class="st2" x1="13.5" y1="10.5" x2="13.5" y2="19.5"/>
		<line class="st2" x1="2.5" y1="6.5" x2="2.5" y2="20.5"/>
		<rect x="0.5" y="3.5" class="st2" width="4" height="20"/>
		<rect x="18" y="3.4" transform="matrix(0.9682 -0.25 0.25 0.9682 -2.7433 5.2903)" class="st2" width="3" height="20"/>
	</g>
</g>
</svg>
