<?xml version="1.0" encoding="utf-8"?>
<!-- Generator: Adobe Illustrator 19.2.0, SVG Export Plug-In . SVG Version: 6.00 Build 0)  -->
<svg version="1.1" id="Layer_1" xmlns="http://www.w3.org/2000/svg" xmlns:xlink="http://www.w3.org/1999/xlink" x="0px" y="0px"
	 viewBox="0 0 24 24" style="enable-background:new 0 0 24 24;" xml:space="preserve">
<style type="text/css">
	.st0{display:none;}
	.st1{display:inline;}
	.st2{fill:none;stroke:#000000;stroke-linejoin:round;stroke-miterlimit:10;}
</style>
<g id="Filled_Icons" class="st0">
	<g class="st1">
		<path d="M19.5,0h-6.3c-0.1,0-0.3,0.1-0.4,0.1L0.6,12.4c-0.2,0.2-0.2,0.5,0,0.7l6.2,6.3c0.1,0.1,0.2,0.1,0.4,0.1c0,0,0,0,0,0
			c0.1,0,0.3-0.1,0.4-0.1L19.9,6.9C20,6.8,20,6.7,20,6.6V0.5C20,0.2,19.8,0,19.5,0z M16,5.6c-0.8,0-1.5-0.7-1.5-1.5
			c0-0.8,0.7-1.5,1.5-1.5s1.5,0.7,1.5,1.5C17.5,4.9,16.8,5.6,16,5.6z"/>
		<path d="M18.5,14.9c-2,0-3.6,1.6-3.6,3.6c0,0.8,0.3,1.6,0.7,2.2l5-5C20.1,15.2,19.3,14.9,18.5,14.9z"/>
		<path d="M21.4,16.3l-5,5c0.6,0.5,1.3,0.7,2.2,0.7c2,0,3.6-1.6,3.6-3.6C22.1,17.7,21.8,16.9,21.4,16.3z"/>
		<path d="M18.5,13c-3.1,0-5.5,2.5-5.5,5.5c0,3.1,2.5,5.5,5.5,5.5c3.1,0,5.5-2.5,5.5-5.5C24,15.4,21.6,13,18.5,13z M18.5,23.1
			c-2.5,0-4.6-2.1-4.6-4.6c0-2.5,2.1-4.6,4.6-4.6c2.5,0,4.6,2.1,4.6,4.6C23.1,21,21,23.1,18.5,23.1z"/>
	</g>
</g>
<g id="Outline_Icons">
	<g>
		<polygon class="st2" points="7.2,19 19.5,6.5 19.5,0.5 13.2,0.5 1,12.8 		"/>
		<circle class="st2" cx="16" cy="4" r="1.5"/>
		<line class="st2" x1="22" y1="15" x2="15" y2="22"/>
		<circle class="st2" cx="18.5" cy="18.5" r="5"/>
	</g>
</g>
</svg>
