<?xml version="1.0" encoding="utf-8"?>
<!-- Generator: Adobe Illustrator 19.2.0, SVG Export Plug-In . SVG Version: 6.00 Build 0)  -->
<svg version="1.1" id="Layer_1" xmlns="http://www.w3.org/2000/svg" xmlns:xlink="http://www.w3.org/1999/xlink" x="0px" y="0px"
	 viewBox="0 0 24 24" style="enable-background:new 0 0 24 24;" xml:space="preserve">
<style type="text/css">
	.st0{display:none;}
	.st1{display:inline;}
	.st2{fill:none;stroke:#000000;stroke-linecap:round;stroke-linejoin:round;stroke-miterlimit:10;}
</style>
<g id="Filled_Icons" class="st0">
	<g class="st1">
		<path d="M0,23.5C0,23.8,0.2,24,0.5,24h23c0.3,0,0.5-0.2,0.5-0.5v-22C24,1.2,23.8,1,23.5,1H12V0.5C12,0.2,11.8,0,11.5,0h-8
			C3.2,0,3,0.2,3,0.5V1H0.5C0.2,1,0,1.2,0,1.5V23.5z M3.5,16h17c0.3,0,0.5,0.2,0.5,0.5c0,0.3-0.2,0.5-0.5,0.5h-17
			C3.2,17,3,16.8,3,16.5C3,16.2,3.2,16,3.5,16z M14.5,10h6c0.3,0,0.5,0.2,0.5,0.5c0,0.3-0.2,0.5-0.5,0.5h-6c-0.3,0-0.5-0.2-0.5-0.5
			C14,10.2,14.2,10,14.5,10z M14,7.5C14,7.2,14.2,7,14.5,7h6C20.8,7,21,7.2,21,7.5C21,7.8,20.8,8,20.5,8h-6C14.2,8,14,7.8,14,7.5z
			 M14.5,13h6c0.3,0,0.5,0.2,0.5,0.5c0,0.3-0.2,0.5-0.5,0.5h-6c-0.3,0-0.5-0.2-0.5-0.5C14,13.2,14.2,13,14.5,13z M3.5,19h13
			c0.3,0,0.5,0.2,0.5,0.5c0,0.3-0.2,0.5-0.5,0.5h-13C3.2,20,3,19.8,3,19.5C3,19.2,3.2,19,3.5,19z M4,1h7v11.3L7.9,9.2
			C7.8,9.1,7.6,9,7.5,9c-0.1,0-0.3,0-0.4,0.1L4,12.3V1z"/>
	</g>
</g>
<g id="Outline_Icons">
	<g>
		<polyline class="st2" points="11.5,1.5 23.5,1.5 23.5,23.5 0.5,23.5 0.5,1.5 3.5,1.5 		"/>
		<polygon class="st2" points="11.5,13.5 7.5,9.5 3.5,13.5 3.5,0.5 11.5,0.5 		"/>
		<line class="st2" x1="14.5" y1="7.5" x2="20.5" y2="7.5"/>
		<line class="st2" x1="14.5" y1="10.5" x2="20.5" y2="10.5"/>
		<line class="st2" x1="14.5" y1="13.5" x2="20.5" y2="13.5"/>
		<line class="st2" x1="3.5" y1="16.5" x2="20.5" y2="16.5"/>
		<line class="st2" x1="3.5" y1="19.5" x2="16.5" y2="19.5"/>
	</g>
</g>
</svg>
