<?xml version="1.0" encoding="utf-8"?>
<!-- Generator: Adobe Illustrator 19.2.0, SVG Export Plug-In . SVG Version: 6.00 Build 0)  -->
<svg version="1.1" id="Layer_1" xmlns="http://www.w3.org/2000/svg" xmlns:xlink="http://www.w3.org/1999/xlink" x="0px" y="0px"
	 viewBox="0 0 24 24" style="enable-background:new 0 0 24 24;" xml:space="preserve">
<style type="text/css">
	.st0{display:none;}
	.st1{display:inline;}
	.st2{fill:none;stroke:#000000;stroke-linecap:round;stroke-linejoin:round;stroke-miterlimit:10;}
</style>
<g id="Filled_Icons" class="st0">
	<path class="st1" d="M20.5,4H20V0.5C20,0.2,19.8,0,19.5,0h-14C4.1,0,3,1.1,3,2.5v19C3,22.9,4.1,24,5.5,24h15c0.3,0,0.5-0.2,0.5-0.5
		v-19C21,4.2,20.8,4,20.5,4z M18.3,12.9l-3.2,2.3l1.4,4.1c0.1,0.2,0,0.4-0.2,0.6C16.2,20,16.1,20,16,20c-0.1,0-0.2,0-0.3-0.1
		L12,17.6l-3.7,2.3c-0.2,0.1-0.4,0.1-0.6,0c-0.2-0.1-0.2-0.4-0.2-0.6l1.4-4.1l-3.2-2.3c-0.2-0.1-0.3-0.4-0.2-0.6
		C5.6,12.1,5.8,12,6,12h4.1l1.4-4.2c0.1-0.2,0.3-0.3,0.5-0.3c0.2,0,0.4,0.1,0.5,0.3l1.4,4.2H18c0.2,0,0.4,0.1,0.5,0.3
		C18.5,12.6,18.5,12.8,18.3,12.9z M19,4h-1V2.5C18,2.2,17.8,2,17.5,2h-12C5.2,2,5,2.2,5,2.5C5,2.8,5.2,3,5.5,3H17v1H5.5
		C4.7,4,4,3.3,4,2.5C4,1.7,4.7,1,5.5,1H19V4z"/>
</g>
<g id="Outline_Icons">
	<g>
		<polyline class="st2" points="5.5,2.5 17.5,2.5 17.5,4.5 		"/>
		<path class="st2" d="M19.5,4.5v-4h-14c-1.1,0-2,0.9-2,2c0,1.1,0.9,2,2,2h15v19h-15c-1.1,0-2-0.9-2-2v-19"/>
		<polygon class="st2" points="12,8 13.5,12.5 18,12.5 14.5,15 16,19.5 12,17 8,19.5 9.5,15 6,12.5 10.5,12.5 		"/>
	</g>
</g>
</svg>
