<?xml version="1.0" encoding="utf-8"?>
<!-- Generator: Adobe Illustrator 19.2.0, SVG Export Plug-In . SVG Version: 6.00 Build 0)  -->
<svg version="1.1" id="Layer_1" xmlns="http://www.w3.org/2000/svg" xmlns:xlink="http://www.w3.org/1999/xlink" x="0px" y="0px"
	 viewBox="0 0 24 24" style="enable-background:new 0 0 24 24;" xml:space="preserve">
<style type="text/css">
	.st0{display:none;}
	.st1{display:inline;}
	.st2{fill:none;stroke:#000000;stroke-linecap:round;stroke-linejoin:round;stroke-miterlimit:10;}
	.st3{fill:none;stroke:#000000;stroke-linecap:square;stroke-linejoin:round;stroke-miterlimit:10;}
</style>
<g id="Filled_Icons" class="st0">
	<g class="st1">
		<path d="M0.1,2L0.1,2C0,9.5,0,10.2,0,17.5C0,18.9,1.1,20,2.5,20H15V4H2.5C1.7,4,1,3.3,1,2.5C1,1.7,1.7,1,2.5,1H15V0H2.5
			C1.3,0,0.3,0.9,0.1,2z M4,10.5C4,10.2,4.2,10,4.5,10h2.3l3.4-2.9C10.3,7,10.5,7,10.7,7C10.9,7.1,11,7.3,11,7.5v9
			c0,0.2-0.1,0.4-0.3,0.5c-0.1,0-0.1,0-0.2,0c-0.1,0-0.2,0-0.3-0.1L6.8,14H4.5C4.2,14,4,13.8,4,13.5V10.5z"/>
		<path d="M2.5,2C2.2,2,2,2.2,2,2.5C2,2.8,2.2,3,2.5,3h11C13.8,3,14,2.8,14,2.5C14,2.2,13.8,2,13.5,2H2.5z"/>
		<path d="M19.5,7.1c-0.2-0.2-0.5-0.2-0.7,0c-0.2,0.2-0.2,0.5,0,0.7c1.1,1.1,1.8,2.6,1.8,4.2c0,1.6-0.6,3.1-1.8,4.2
			c-0.2,0.2-0.2,0.5,0,0.7c0.1,0.1,0.2,0.1,0.4,0.1c0.1,0,0.3,0,0.4-0.1c1.3-1.3,2-3.1,2-4.9C21.5,10.1,20.8,8.4,19.5,7.1z"/>
		<path d="M21.4,5.6c-0.2-0.2-0.5-0.2-0.7,0c-0.2,0.2-0.2,0.5,0,0.7C22.2,7.9,23,9.9,23,12c0,2.1-0.8,4.1-2.3,5.7
			c-0.2,0.2-0.2,0.5,0,0.7c0.1,0.1,0.2,0.1,0.4,0.1c0.1,0,0.3,0,0.4-0.1c1.7-1.7,2.6-4,2.6-6.4C24,9.6,23.1,7.3,21.4,5.6z"/>
		<path d="M17.5,8.5c-0.2-0.2-0.5-0.2-0.7,0c-0.2,0.2-0.2,0.5,0,0.7C17.6,9.9,18,10.9,18,12c0,1.1-0.4,2.1-1.2,2.8
			c-0.2,0.2-0.2,0.5,0,0.7c0.1,0.1,0.2,0.1,0.4,0.1c0.1,0,0.3,0,0.4-0.1c0.9-0.9,1.5-2.2,1.5-3.5C19,10.7,18.5,9.4,17.5,8.5z"/>
	</g>
</g>
<g id="Outline_Icons">
	<g>
		<polygon class="st2" points="7,13.5 4.5,13.5 4.5,10.5 7,10.5 10.5,7.5 10.5,16.5 		"/>
		<path class="st3" d="M14.5,0.5h-12c-1.1,0-2,0.9-2,2c0,1.1,0.9,2,2,2h12v15h-4h-6h-2c-1.1,0-2-0.9-2-2V3"/>
		<line class="st2" x1="2.5" y1="2.5" x2="13.5" y2="2.5"/>
		<path class="st2" d="M19.1,7.4C20.3,8.6,21,10.2,21,12c0,1.8-0.7,3.4-1.9,4.6"/>
		<path class="st2" d="M21,18c1.5-1.5,2.5-3.7,2.5-6c0-2.3-1-4.5-2.5-6"/>
		<path class="st2" d="M17.2,8.8c0.8,0.8,1.3,1.9,1.3,3.2c0,1.2-0.5,2.4-1.3,3.2"/>
	</g>
</g>
</svg>
