<?xml version="1.0" encoding="utf-8"?>
<!-- Generator: Adobe Illustrator 19.2.0, SVG Export Plug-In . SVG Version: 6.00 Build 0)  -->
<svg version="1.1" id="Layer_1" xmlns="http://www.w3.org/2000/svg" xmlns:xlink="http://www.w3.org/1999/xlink" x="0px" y="0px"
	 viewBox="0 0 24 24" style="enable-background:new 0 0 24 24;" xml:space="preserve">
<style type="text/css">
	.st0{display:none;}
	.st1{display:inline;}
	.st2{fill:none;stroke:#000000;stroke-linecap:round;stroke-linejoin:round;stroke-miterlimit:10;}
</style>
<g id="Filled_Icons" class="st0">
	<g class="st1">
		<path d="M21.5,3H19V1.5C19,1.2,18.8,1,18.5,1h-15C3.2,1,3,1.2,3,1.5v2h1.5c0.6,0,1,0.4,1,1c0,0.6-0.4,1-1,1H3v1h1.5
			c0.6,0,1,0.4,1,1c0,0.6-0.4,1-1,1H3v1h1.5c0.6,0,1,0.4,1,1c0,0.6-0.4,1-1,1H3v1h1.5c0.6,0,1,0.4,1,1c0,0.6-0.4,1-1,1H3v1h1.5
			c0.6,0,1,0.4,1,1c0,0.6-0.4,1-1,1H3v1h1.5c0.6,0,1,0.4,1,1c0,0.6-0.4,1-1,1H3v2C3,22.8,3.2,23,3.5,23h15c0.3,0,0.5-0.2,0.5-0.5V20
			h2.5c0.3,0,0.5-0.2,0.5-0.5v-4v-4v-4v-4C22,3.2,21.8,3,21.5,3z M15,9.5c0,0.3-0.2,0.5-0.5,0.5h-6C8.2,10,8,9.8,8,9.5v-4
			C8,5.2,8.2,5,8.5,5h6C14.8,5,15,5.2,15,5.5V9.5z M21,19h-2v-3h2V19z M21,15h-2v-3h2V15z M21,11h-2V8h2V11z M21,7h-2V4h2V7z"/>
		<path d="M2.5,5h2C4.8,5,5,4.8,5,4.5C5,4.2,4.8,4,4.5,4h-2C2.2,4,2,4.2,2,4.5C2,4.8,2.2,5,2.5,5z"/>
		<path d="M2.5,8h2C4.8,8,5,7.8,5,7.5C5,7.2,4.8,7,4.5,7h-2C2.2,7,2,7.2,2,7.5C2,7.8,2.2,8,2.5,8z"/>
		<path d="M2.5,11h2C4.8,11,5,10.8,5,10.5C5,10.2,4.8,10,4.5,10h-2C2.2,10,2,10.2,2,10.5C2,10.8,2.2,11,2.5,11z"/>
		<path d="M2.5,14h2C4.8,14,5,13.8,5,13.5C5,13.2,4.8,13,4.5,13h-2C2.2,13,2,13.2,2,13.5C2,13.8,2.2,14,2.5,14z"/>
		<path d="M2.5,17h2C4.8,17,5,16.8,5,16.5C5,16.2,4.8,16,4.5,16h-2C2.2,16,2,16.2,2,16.5C2,16.8,2.2,17,2.5,17z"/>
		<path d="M5,19.5C5,19.2,4.8,19,4.5,19h-2C2.2,19,2,19.2,2,19.5C2,19.8,2.2,20,2.5,20h2C4.8,20,5,19.8,5,19.5z"/>
	</g>
</g>
<g id="Outline_Icons">
	<g>
		<rect x="3.5" y="1.5" class="st2" width="15" height="21"/>
		<rect x="8.5" y="5.5" class="st2" width="6" height="4"/>
		<line class="st2" x1="2.5" y1="4.5" x2="4.5" y2="4.5"/>
		<line class="st2" x1="2.5" y1="7.5" x2="4.5" y2="7.5"/>
		<line class="st2" x1="2.5" y1="10.5" x2="4.5" y2="10.5"/>
		<line class="st2" x1="2.5" y1="13.5" x2="4.5" y2="13.5"/>
		<line class="st2" x1="2.5" y1="16.5" x2="4.5" y2="16.5"/>
		<line class="st2" x1="2.5" y1="19.5" x2="4.5" y2="19.5"/>
		<rect x="18.5" y="3.5" class="st2" width="3" height="4"/>
		<rect x="18.5" y="7.5" class="st2" width="3" height="4"/>
		<rect x="18.5" y="11.5" class="st2" width="3" height="4"/>
		<rect x="18.5" y="15.5" class="st2" width="3" height="4"/>
	</g>
</g>
</svg>
