<?xml version="1.0" encoding="utf-8"?>
<!-- Generator: Adobe Illustrator 19.2.0, SVG Export Plug-In . SVG Version: 6.00 Build 0)  -->
<svg version="1.1" id="Layer_1" xmlns="http://www.w3.org/2000/svg" xmlns:xlink="http://www.w3.org/1999/xlink" x="0px" y="0px"
	 viewBox="0 0 24 24" style="enable-background:new 0 0 24 24;" xml:space="preserve">
<style type="text/css">
	.st0{display:none;}
	.st1{display:inline;}
	.st2{fill:none;stroke:#000000;stroke-linecap:round;stroke-linejoin:round;stroke-miterlimit:10;}
</style>
<g id="Filled_Icons" class="st0">
	<g class="st1">
		<path d="M0.5,2C0.2,2,0,2.2,0,2.5v16C0,18.8,0.2,19,0.5,19h8c1.7,0,2.5,0.8,2.5,2.5V3c-0.6-0.7-1.5-1-2.5-1H0.5z"/>
		<path d="M22.5,2H21V1h-5v1h-1.5c-1,0-1.9,0.4-2.5,1v18.5c0-1.7,0.8-2.5,2.5-2.5h8c0.3,0,0.5-0.2,0.5-0.5v-16C23,2.2,22.8,2,22.5,2
			z M20,8.8l-1.5-1.5L17,8.8V2h3V8.8z"/>
	</g>
</g>
<g id="Outline_Icons">
	<g>
		<path class="st2" d="M16.5,2.5c0,0-1.9,0-2,0c-2,0-3,1.5-3,3.5c0-2-1-3.5-3-3.5c-0.5,0-8,0-8,0v16c0,0,6.5,0,8,0c2,0,3,1,3,3
			c0-2,1-3,3-3c1.5,0,8,0,8,0v-16h-2"/>
		<line class="st2" x1="11.5" y1="6" x2="11.5" y2="21"/>
		<polygon class="st2" points="20.5,10 18.5,8 16.5,10 16.5,1.5 20.5,1.5 		"/>
	</g>
</g>
</svg>
