<?xml version="1.0" encoding="utf-8"?>
<!-- Generator: Adobe Illustrator 19.2.0, SVG Export Plug-In . SVG Version: 6.00 Build 0)  -->
<svg version="1.1" id="Layer_1" xmlns="http://www.w3.org/2000/svg" xmlns:xlink="http://www.w3.org/1999/xlink" x="0px" y="0px"
	 viewBox="0 0 24 24" style="enable-background:new 0 0 24 24;" xml:space="preserve">
<style type="text/css">
	.st0{display:none;}
	.st1{display:inline;}
	.st2{fill:none;stroke:#000000;stroke-linejoin:round;stroke-miterlimit:10;}
</style>
<g id="Filled_Icons" class="st0">
	<g class="st1">
		<path d="M19.5,0h-6.3c-0.1,0-0.3,0.1-0.4,0.1L0.6,12.4c-0.2,0.2-0.2,0.5,0,0.7l6.2,6.3c0.1,0.1,0.2,0.1,0.4,0.1c0,0,0,0,0,0
			c0.1,0,0.3-0.1,0.4-0.1L19.9,6.9C20,6.8,20,6.7,20,6.6V0.5C20,0.2,19.8,0,19.5,0z M16,5.6c-0.8,0-1.5-0.7-1.5-1.5
			c0-0.8,0.7-1.5,1.5-1.5s1.5,0.7,1.5,1.5C17.5,4.9,16.8,5.6,16,5.6z"/>
		<path d="M20.5,14c-0.9,0-1.9,0.4-2.5,1.6c-0.6-1.1-1.6-1.6-2.5-1.6c-1.4,0-2.9,1.2-2.9,3.2c0,2.8,4.6,6.3,5.2,6.7
			c0.1,0.1,0.2,0.1,0.3,0.1s0.2,0,0.3-0.1c0.5-0.4,5.2-3.8,5.2-6.7C23.5,15.2,22,14,20.5,14z"/>
	</g>
</g>
<g id="Outline_Icons">
	<g>
		<polygon class="st2" points="7.3,19.1 19.6,6.6 19.6,0.5 13.3,0.5 1.1,12.8 		"/>
		<circle class="st2" cx="16.1" cy="4.1" r="1.5"/>
		<path class="st2" d="M18,23.5c0,0,5-3.6,5-6.3c0-3.1-4-4.1-5-0.3c-0.9-3.7-4.9-2.8-4.9,0.3C13.1,19.9,18,23.5,18,23.5z"/>
	</g>
</g>
</svg>
