<?xml version="1.0" encoding="utf-8"?>
<!-- Generator: Adobe Illustrator 19.2.0, SVG Export Plug-In . SVG Version: 6.00 Build 0)  -->
<svg version="1.1" id="Layer_1" xmlns="http://www.w3.org/2000/svg" xmlns:xlink="http://www.w3.org/1999/xlink" x="0px" y="0px"
	 viewBox="0 0 24 24" style="enable-background:new 0 0 24 24;" xml:space="preserve">
<style type="text/css">
	.st0{display:none;}
	.st1{display:inline;}
	.st2{fill:none;stroke:#000000;stroke-linecap:round;stroke-linejoin:round;stroke-miterlimit:10;}
	.st3{fill:none;stroke:#000000;stroke-linejoin:round;stroke-miterlimit:10;}
</style>
<g id="Filled_Icons" class="st0">
	<g class="st1">
		<path d="M18.5,19H18v2.5c0,1.4,1.1,2.5,2.5,2.5c1.4,0,2.5-1.1,2.5-2.5V19h-0.5H18.5z"/>
		<path d="M22.5,0C22.2,0,22,0.2,22,0.5v4.4V5c0,0.6-0.1,1.1-0.3,1.4C21.5,6.7,21,7,20.5,7c-0.5,0-1-0.3-1.2-0.6
			C19.1,6.1,19,5.6,19,5V0.5C19,0.2,18.8,0,18.5,0C18.2,0,18,0.2,18,0.5V5v0.5V16h5V5.5V4.9V0.5C23,0.2,22.8,0,22.5,0z"/>
		<polygon points="18,18 18.5,18 22.5,18 23,18 23,17 18,17 		"/>
		<path d="M20.5,6C20.8,6,21,5.8,21,5.5v-4C21,1.2,20.8,1,20.5,1C20.2,1,20,1.2,20,1.5v4C20,5.8,20.2,6,20.5,6z"/>
		<path d="M12.5,19H12v2.5c0,1.4,1.1,2.5,2.5,2.5c1.4,0,2.5-1.1,2.5-2.5V19h-0.5H12.5z"/>
		<polygon points="12,18 12.5,18 16.5,18 17,18 17,17 12,17 		"/>
		<path d="M16.5,0C16.2,0,16,0.2,16,0.5v4.4V5c0,0.6-0.1,1.1-0.3,1.4C15.5,6.7,15,7,14.5,7c-0.5,0-1-0.3-1.2-0.6
			C13.1,6.1,13,5.6,13,5V0.5C13,0.2,12.8,0,12.5,0C12.2,0,12,0.2,12,0.5V5v0.5V16h5V5.5V4.9V0.5C17,0.2,16.8,0,16.5,0z"/>
		<path d="M14.5,6C14.8,6,15,5.8,15,5.5v-4C15,1.2,14.8,1,14.5,1C14.2,1,14,1.2,14,1.5v4C14,5.8,14.2,6,14.5,6z"/>
		<polygon points="6,18 6.5,18 10.5,18 11,18 11,17 6,17 		"/>
		<path d="M6.5,19H6v2.5C6,22.9,7.1,24,8.5,24c1.4,0,2.5-1.1,2.5-2.5V19h-0.5H6.5z"/>
		<path d="M10.5,0C10.2,0,10,0.2,10,0.5v4.4V5c0,0.6-0.1,1.1-0.3,1.4C9.5,6.7,9,7,8.5,7C8,7,7.5,6.7,7.3,6.4C7.1,6.1,7,5.6,7,5V0.5
			C7,0.2,6.8,0,6.5,0C6.2,0,6,0.2,6,0.5V5v0.5V16h5V5.5V4.9V0.5C11,0.2,10.8,0,10.5,0z"/>
		<path d="M8.5,6C8.8,6,9,5.8,9,5.5v-4C9,1.2,8.8,1,8.5,1C8.2,1,8,1.2,8,1.5v4C8,5.8,8.2,6,8.5,6z"/>
		<polygon points="0,18 0.5,18 4.5,18 5,18 5,17 0,17 		"/>
		<path d="M0.5,19H0v2.5C0,22.9,1.1,24,2.5,24C3.9,24,5,22.9,5,21.5V19H4.5H0.5z"/>
		<path d="M4.5,0C4.2,0,4,0.2,4,0.5v4.4V5c0,0.6-0.1,1.1-0.3,1.4C3.5,6.7,3,7,2.5,7C2,7,1.5,6.7,1.3,6.4C1.1,6.1,1,5.6,1,5V0.5
			C1,0.2,0.8,0,0.5,0C0.2,0,0,0.2,0,0.5V5v0.5V16h5V5.5V4.9V0.5C5,0.2,4.8,0,4.5,0z"/>
		<path d="M2.5,6C2.8,6,3,5.8,3,5.5v-4C3,1.2,2.8,1,2.5,1C2.2,1,2,1.2,2,1.5v4C2,5.8,2.2,6,2.5,6z"/>
	</g>
</g>
<g id="Outline_Icons">
	<g>
		<path class="st2" d="M18.5,5v16.5c0,1.1,0.9,2,2,2c1.1,0,2-0.9,2-2V5"/>
		<path class="st2" d="M18.5,0.5v5c0,1.1,0.9,2,2,2c1.1,0,2-0.9,2-2v-5"/>
		<line class="st2" x1="20.5" y1="5.5" x2="20.5" y2="1.5"/>
		<path class="st2" d="M12.5,5v16.5c0,1.1,0.9,2,2,2c1.1,0,2-0.9,2-2V5"/>
		<path class="st2" d="M12.5,0.5v5c0,1.1,0.9,2,2,2c1.1,0,2-0.9,2-2v-5"/>
		<line class="st2" x1="14.5" y1="5.5" x2="14.5" y2="1.5"/>
		<path class="st2" d="M6.5,5v16.5c0,1.1,0.9,2,2,2s2-0.9,2-2V5"/>
		<path class="st2" d="M6.5,0.5v5c0,1.1,0.9,2,2,2s2-0.9,2-2v-5"/>
		<line class="st2" x1="8.5" y1="5.5" x2="8.5" y2="1.5"/>
		<path class="st2" d="M0.5,5v16.5c0,1.1,0.9,2,2,2s2-0.9,2-2V5"/>
		<path class="st2" d="M0.5,0.5v5c0,1.1,0.9,2,2,2s2-0.9,2-2v-5"/>
		<line class="st2" x1="2.5" y1="5.5" x2="2.5" y2="1.5"/>
		<line class="st3" x1="16.5" y1="18.5" x2="12.5" y2="18.5"/>
		<line class="st3" x1="16.5" y1="16.5" x2="12.5" y2="16.5"/>
		<line class="st3" x1="22.5" y1="18.5" x2="18.5" y2="18.5"/>
		<line class="st3" x1="22.5" y1="16.5" x2="18.5" y2="16.5"/>
		<line class="st3" x1="10.5" y1="18.5" x2="6.5" y2="18.5"/>
		<line class="st3" x1="10.5" y1="16.5" x2="6.5" y2="16.5"/>
		<line class="st3" x1="4.5" y1="18.5" x2="0.5" y2="18.5"/>
		<line class="st3" x1="4.5" y1="16.5" x2="0.5" y2="16.5"/>
	</g>
</g>
</svg>
