<?xml version="1.0" encoding="utf-8"?>
<!-- Generator: Adobe Illustrator 19.2.0, SVG Export Plug-In . SVG Version: 6.00 Build 0)  -->
<svg version="1.1" id="Layer_1" xmlns="http://www.w3.org/2000/svg" xmlns:xlink="http://www.w3.org/1999/xlink" x="0px" y="0px"
	 viewBox="0 0 24 24" style="enable-background:new 0 0 24 24;" xml:space="preserve">
<style type="text/css">
	.st0{display:none;}
	.st1{display:inline;}
	.st2{fill:none;stroke:#000000;stroke-linecap:round;stroke-linejoin:round;stroke-miterlimit:10;}
</style>
<g id="Filled_Icons" class="st0">
	<path class="st1" d="M20.5,4H20V0.5C20,0.2,19.8,0,19.5,0h-14C4.1,0,3,1.1,3,2.5v19C3,22.9,4.1,24,5.5,24h15c0.3,0,0.5-0.2,0.5-0.5
		v-19C21,4.2,20.8,4,20.5,4z M17,14.3l-2.5-2.5L12,14.3V4h5V14.3z M19,4h-1V3h-7v1H5.5C4.7,4,4,3.3,4,2.5C4,1.7,4.7,1,5.5,1H19V4z"
		/>
</g>
<g id="Outline_Icons">
	<g>
		<polygon class="st2" points="17.5,15.5 14.5,12.5 11.5,15.5 11.5,3.5 17.5,3.5 		"/>
		<path class="st2" d="M17.5,4.5h3v19h-15c-1.1,0-2-0.9-2-2v-19"/>
		<path class="st2" d="M19.5,4.5v-4h-14c-1.1,0-2,0.9-2,2c0,1.1,0.9,2,2,2h6"/>
	</g>
</g>
</svg>
