<?xml version="1.0" encoding="utf-8"?>
<!-- Generator: Adobe Illustrator 19.2.0, SVG Export Plug-In . SVG Version: 6.00 Build 0)  -->
<svg version="1.1" id="Layer_1" xmlns="http://www.w3.org/2000/svg" xmlns:xlink="http://www.w3.org/1999/xlink" x="0px" y="0px"
	 viewBox="0 0 24 24" style="enable-background:new 0 0 24 24;" xml:space="preserve">
<style type="text/css">
	.st0{display:none;}
	.st1{display:inline;}
	.st2{fill:none;stroke:#000000;stroke-linejoin:round;stroke-miterlimit:10;}
</style>
<g id="Filled_Icons" class="st0">
	<g class="st1">
		<path d="M0,9c0,0.1,0.1,0.3,0.1,0.4l14.5,14.5C14.8,24,14.9,24,15,24c0.1,0,0.3-0.1,0.4-0.1l8.5-8.5c0.1-0.1,0.1-0.2,0.1-0.4
			s-0.1-0.3-0.1-0.4L9.3,0.2C9.3,0.1,9.1,0,9,0L0.5,0l0,0C0.4,0,0.2,0.1,0.1,0.2C0.1,0.2,0,0.4,0,0.5L0,9z M8,5.5C8,6.9,6.9,8,5.5,8
			C4.1,8,3,6.9,3,5.5C3,4.1,4.1,3,5.5,3C6.9,3,8,4.1,8,5.5z"/>
	</g>
</g>
<g id="Outline_Icons">
	<g>
		<polygon class="st2" points="23.5,15 15,23.5 0.5,9 0.5,0.5 9,0.5 		"/>
		<circle class="st2" cx="5.5" cy="5.5" r="2"/>
	</g>
</g>
</svg>
