<?xml version="1.0" encoding="utf-8"?>
<!-- Generator: Adobe Illustrator 19.2.0, SVG Export Plug-In . SVG Version: 6.00 Build 0)  -->
<svg version="1.1" id="Layer_1" xmlns="http://www.w3.org/2000/svg" xmlns:xlink="http://www.w3.org/1999/xlink" x="0px" y="0px"
	 viewBox="0 0 24 24" style="enable-background:new 0 0 24 24;" xml:space="preserve">
<style type="text/css">
	.st0{display:none;}
	.st1{display:inline;}
	.st2{fill:none;stroke:#000000;stroke-linecap:round;stroke-linejoin:round;stroke-miterlimit:10;}
	.st3{fill:none;stroke:#000000;stroke-linejoin:round;stroke-miterlimit:10;}
</style>
<g id="Filled_Icons" class="st0">
	<g class="st1">
		<path d="M6.5,0C6.2,0,6,0.2,6,0.5V4c0,1.1,0,1.8-0.2,2.3c0,0,0,0,0,0c0,0,0,0.1-0.1,0.1C5.6,6.5,5.5,6.6,5.4,6.7
			C5,6.9,4.4,7,3.5,7C2.6,7,2,6.9,1.6,6.7C1.5,6.6,1.4,6.5,1.3,6.3c0,0,0-0.1-0.1-0.1c0,0,0,0,0,0C1,5.8,1,5.1,1,4V0.5
			C1,0.2,0.8,0,0.5,0C0.2,0,0,0.2,0,0.5V4v1.5V11h7V5.5V4V0.5C7,0.2,6.8,0,6.5,0z"/>
		<rect y="12" width="7" height="1"/>
		<rect y="18" width="7" height="1"/>
		<path d="M0,22c0,1.3,0.9,2,2.5,2h2C6.1,24,7,23.3,7,22v-2H0V22z"/>
		<rect y="14" width="7" height="3"/>
		<path d="M2.5,6C2.8,6,3,5.8,3,5.5v-4C3,1.2,2.8,1,2.5,1C2.2,1,2,1.2,2,1.5v4C2,5.8,2.2,6,2.5,6z"/>
		<path d="M4.5,6C4.8,6,5,5.8,5,5.5v-4C5,1.2,4.8,1,4.5,1C4.2,1,4,1.2,4,1.5v4C4,5.8,4.2,6,4.5,6z"/>
		<path d="M14.5,0C14.2,0,14,0.2,14,0.5V4c0,1.1,0,1.8-0.2,2.3c0,0,0,0,0,0c0,0,0,0.1-0.1,0.1c-0.1,0.1-0.2,0.3-0.4,0.4
			C13,6.9,12.4,7,11.5,7C10.6,7,10,6.9,9.6,6.7C9.5,6.6,9.4,6.5,9.3,6.3c0,0,0-0.1-0.1-0.1c0,0,0,0,0,0C9,5.8,9,5.1,9,4V0.5
			C9,0.2,8.8,0,8.5,0C8.2,0,8,0.2,8,0.5V4v1.5V11h7V5.5V4V0.5C15,0.2,14.8,0,14.5,0z"/>
		<rect x="8" y="12" width="7" height="1"/>
		<rect x="8" y="14" width="7" height="3"/>
		<path d="M8,22c0,1.3,0.9,2,2.5,2h2c1.6,0,2.5-0.7,2.5-2v-2H8V22z"/>
		<rect x="8" y="18" width="7" height="1"/>
		<path d="M10.5,6C10.8,6,11,5.8,11,5.5v-4C11,1.2,10.8,1,10.5,1C10.2,1,10,1.2,10,1.5v4C10,5.8,10.2,6,10.5,6z"/>
		<path d="M12.5,6C12.8,6,13,5.8,13,5.5v-4C13,1.2,12.8,1,12.5,1C12.2,1,12,1.2,12,1.5v4C12,5.8,12.2,6,12.5,6z"/>
		<path d="M22.5,0C22.2,0,22,0.2,22,0.5V4c0,1.1,0,1.8-0.2,2.3c0,0,0,0,0,0c0,0,0,0.1-0.1,0.1c-0.1,0.1-0.2,0.3-0.4,0.4
			C21,6.9,20.4,7,19.5,7c-0.9,0-1.5-0.1-1.9-0.3c-0.1-0.1-0.3-0.2-0.4-0.4c0,0,0-0.1-0.1-0.1c0,0,0,0,0,0C17,5.8,17,5.1,17,4V0.5
			C17,0.2,16.8,0,16.5,0C16.2,0,16,0.2,16,0.5V4v1.5V11h7V5.5V4V0.5C23,0.2,22.8,0,22.5,0z"/>
		<path d="M16,22c0,1.3,0.9,2,2.5,2h2c1.6,0,2.5-0.7,2.5-2v-2h-7V22z"/>
		<rect x="16" y="14" width="7" height="3"/>
		<rect x="16" y="18" width="7" height="1"/>
		<rect x="16" y="12" width="7" height="1"/>
		<path d="M18.5,6C18.8,6,19,5.8,19,5.5v-4C19,1.2,18.8,1,18.5,1C18.2,1,18,1.2,18,1.5v4C18,5.8,18.2,6,18.5,6z"/>
		<path d="M20.5,6C20.8,6,21,5.8,21,5.5v-4C21,1.2,20.8,1,20.5,1C20.2,1,20,1.2,20,1.5v4C20,5.8,20.2,6,20.5,6z"/>
	</g>
</g>
<g id="Outline_Icons">
	<g>
		<path class="st2" d="M0.5,0.5v5c0,1.1,0.9,2,2,2h2c1.1,0,2-0.9,2-2v-5"/>
		<path class="st3" d="M0.5,4v18c0,1.1,0.9,1.5,2,1.5h2c1.1,0,2-0.4,2-1.5V4"/>
		<path class="st2" d="M8.5,0.5v5c0,1.1,0.9,2,2,2h2c1.1,0,2-0.9,2-2v-5"/>
		<path class="st3" d="M8.5,4v18c0,1.1,0.9,1.5,2,1.5h2c1.1,0,2-0.4,2-1.5V4"/>
		<path class="st2" d="M16.5,0.5v5c0,1.1,0.9,2,2,2h2c1.1,0,2-0.9,2-2v-5"/>
		<path class="st3" d="M16.5,4v18c0,1.1,0.9,1.5,2,1.5h2c1.1,0,2-0.4,2-1.5V4"/>
		<line class="st3" x1="6.5" y1="19.5" x2="0.5" y2="19.5"/>
		<line class="st3" x1="6.5" y1="17.5" x2="0.5" y2="17.5"/>
		<line class="st3" x1="14.5" y1="19.5" x2="8.5" y2="19.5"/>
		<line class="st3" x1="14.5" y1="17.5" x2="8.5" y2="17.5"/>
		<line class="st3" x1="22.5" y1="19.5" x2="16.5" y2="19.5"/>
		<line class="st3" x1="22.5" y1="17.5" x2="16.5" y2="17.5"/>
		<line class="st3" x1="6.5" y1="13.5" x2="0.5" y2="13.5"/>
		<line class="st3" x1="6.5" y1="11.5" x2="0.5" y2="11.5"/>
		<line class="st3" x1="14.5" y1="13.5" x2="8.5" y2="13.5"/>
		<line class="st3" x1="14.5" y1="11.5" x2="8.5" y2="11.5"/>
		<line class="st3" x1="22.5" y1="13.5" x2="16.5" y2="13.5"/>
		<line class="st3" x1="22.5" y1="11.5" x2="16.5" y2="11.5"/>
		<line class="st2" x1="2.5" y1="5.5" x2="2.5" y2="1.5"/>
		<line class="st2" x1="4.5" y1="5.5" x2="4.5" y2="1.5"/>
		<line class="st2" x1="10.5" y1="5.5" x2="10.5" y2="1.5"/>
		<line class="st2" x1="12.5" y1="5.5" x2="12.5" y2="1.5"/>
		<line class="st2" x1="18.5" y1="5.5" x2="18.5" y2="1.5"/>
		<line class="st2" x1="20.5" y1="5.5" x2="20.5" y2="1.5"/>
	</g>
</g>
</svg>
