<?xml version="1.0" encoding="utf-8"?>
<!-- Generator: Adobe Illustrator 19.2.0, SVG Export Plug-In . SVG Version: 6.00 Build 0)  -->
<svg version="1.1" id="Layer_1" xmlns="http://www.w3.org/2000/svg" xmlns:xlink="http://www.w3.org/1999/xlink" x="0px" y="0px"
	 viewBox="0 0 24 24" style="enable-background:new 0 0 24 24;" xml:space="preserve">
<style type="text/css">
	.st0{display:none;}
	.st1{display:inline;}
	.st2{fill:none;stroke:#000000;stroke-linecap:round;stroke-linejoin:round;stroke-miterlimit:10;}
	.st3{fill:none;stroke:#000000;stroke-linejoin:round;stroke-miterlimit:10;}
</style>
<g id="Filled_Icons" class="st0">
	<g class="st1">
		<path d="M18.5,17.5c-0.9,0-1.6-0.7-1.6-1.6c0-0.9,0.7-1.6,1.6-1.6c0.9,0,1.6,0.7,1.6,1.6c0,0.3,0.2,0.5,0.5,0.5
			c0.3,0,0.5-0.2,0.5-0.5c0-1.2-0.9-2.3-2.1-2.5v-0.9c0-0.3-0.2-0.5-0.5-0.5c-0.3,0-0.5,0.2-0.5,0.5v0.9c-1.2,0.2-2.1,1.3-2.1,2.5
			c0,1.4,1.1,2.6,2.6,2.6c0.9,0,1.6,0.7,1.6,1.6c0,0.9-0.7,1.6-1.6,1.6c-0.9,0-1.6-0.7-1.6-1.6c0-0.3-0.2-0.5-0.5-0.5
			c-0.3,0-0.5,0.2-0.5,0.5c0,1.2,0.9,2.3,2.1,2.5v0.9c0,0.3,0.2,0.5,0.5,0.5c0.3,0,0.5-0.2,0.5-0.5v-0.9c1.2-0.2,2.1-1.3,2.1-2.5
			C21.1,18.7,19.9,17.5,18.5,17.5z"/>
		<path d="M19.5,0h-6.3c-0.1,0-0.3,0.1-0.4,0.1L0.6,12.4c-0.2,0.2-0.2,0.5,0,0.7l6.2,6.3c0.1,0.1,0.2,0.1,0.4,0.1c0,0,0,0,0,0
			c0.1,0,0.3-0.1,0.4-0.1L19.9,6.9C19.9,6.8,20,6.7,20,6.6V0.5C20,0.2,19.8,0,19.5,0z M16,5.6c-0.8,0-1.5-0.7-1.5-1.5
			c0-0.8,0.7-1.5,1.5-1.5s1.5,0.7,1.5,1.5C17.5,4.9,16.8,5.6,16,5.6z"/>
	</g>
</g>
<g id="Outline_Icons">
	<g>
		<g>
			<path class="st2" d="M16.4,20.1c0,1.1,0.9,2.1,2.1,2.1c1.1,0,2.1-0.9,2.1-2.1c0-1.1-0.9-2.1-2.1-2.1c-1.1,0-2.1-0.9-2.1-2.1
				c0-1.1,0.9-2.1,2.1-2.1c1.1,0,2.1,0.9,2.1,2.1"/>
			<line class="st2" x1="18.5" y1="22.1" x2="18.5" y2="23.5"/>
			<line class="st2" x1="18.5" y1="12.5" x2="18.5" y2="13.9"/>
		</g>
		<polygon class="st3" points="7.2,19.1 19.5,6.6 19.5,0.5 13.2,0.5 1,12.8 		"/>
		<circle class="st3" cx="16" cy="4.1" r="1.5"/>
	</g>
</g>
</svg>
