<?xml version="1.0" encoding="utf-8"?>
<!-- Generator: Adobe Illustrator 19.2.0, SVG Export Plug-In . SVG Version: 6.00 Build 0)  -->
<svg version="1.1" id="Layer_1" xmlns="http://www.w3.org/2000/svg" xmlns:xlink="http://www.w3.org/1999/xlink" x="0px" y="0px"
	 viewBox="0 0 24 24" style="enable-background:new 0 0 24 24;" xml:space="preserve">
<style type="text/css">
	.st0{display:none;}
	.st1{display:inline;}
	.st2{fill:none;stroke:#000000;stroke-linejoin:round;stroke-miterlimit:10;}
	.st3{fill:none;stroke:#000000;stroke-linecap:round;stroke-linejoin:round;stroke-miterlimit:10;}
</style>
<g id="Filled_Icons" class="st0">
	<g class="st1">
		<path d="M0,9.5c0,0.1,0.1,0.3,0.1,0.4l14,14c0.1,0.1,0.2,0.1,0.4,0.1c0,0,0.1,0,0.1,0c0.2,0,0.3-0.1,0.4-0.3l1.9-4.8l4.8-1.9
			c0.2-0.1,0.3-0.2,0.3-0.4c0-0.2,0-0.3-0.1-0.5l-14-14C7.8,2.1,7.6,2,7.5,2h-7C0.2,2,0,2.2,0,2.5V9.5z M7,7c0,1.1-0.9,2-2,2
			C3.9,9,3,8.1,3,7c0-1.1,0.9-2,2-2C6.1,5,7,5.9,7,7z"/>
		<path d="M21.5,14.2c0.1,0.2,0.3,0.3,0.5,0.3c0.1,0,0.1,0,0.2,0l1.5-0.5c0.2-0.1,0.3-0.2,0.3-0.4c0-0.2,0-0.3-0.1-0.5l-13-13
			C10.8,0.1,10.6,0,10.5,0h-7C3.2,0,3,0.2,3,0.5C3,0.8,3.2,1,3.5,1h6.8l12.3,12.3l-0.7,0.2C21.6,13.6,21.4,13.9,21.5,14.2z"/>
	</g>
</g>
<g id="Outline_Icons">
	<g>
		<polygon class="st2" points="21.5,16.5 16.5,18.5 14.5,23.5 0.5,9.5 0.5,2.5 7.5,2.5 		"/>
		<polyline class="st3" points="3.5,0.5 10.5,0.5 23.5,13.5 22,14 		"/>
		<circle class="st2" cx="5" cy="7" r="1.5"/>
	</g>
</g>
</svg>
