<?xml version="1.0" encoding="utf-8"?>
<!-- Generator: Adobe Illustrator 19.2.0, SVG Export Plug-In . SVG Version: 6.00 Build 0)  -->
<svg version="1.1" id="Layer_1" xmlns="http://www.w3.org/2000/svg" xmlns:xlink="http://www.w3.org/1999/xlink" x="0px" y="0px"
	 viewBox="0 0 24 24" style="enable-background:new 0 0 24 24;" xml:space="preserve">
<style type="text/css">
	.st0{display:none;}
	.st1{display:inline;}
	.st2{fill:none;stroke:#000000;stroke-linecap:round;stroke-linejoin:round;stroke-miterlimit:10;}
</style>
<g id="Filled_Icons" class="st0">
	<g class="st1">
		<path d="M4,23.5c0,0.2,0.1,0.4,0.3,0.5c0.2,0.1,0.4,0,0.5-0.1l4.6-4.6l4.6,4.6c0.1,0.1,0.2,0.1,0.4,0.1c0.1,0,0.1,0,0.2,0
			c0.2-0.1,0.3-0.3,0.3-0.5v-16V7V6V4.5C15,3.6,15.6,3,16.5,3C16.8,3,17,3.2,17,3.5C17,3.8,16.8,4,16.5,4C16.2,4,16,4.2,16,4.5V7
			h3.5C19.8,7,20,6.8,20,6.5V4c0-2.2-1.8-4-4-4H8C5.8,0,4,1.8,4,4V23.5z"/>
	</g>
</g>
<g id="Outline_Icons">
	<g>
		<path class="st2" d="M14.5,6.5h5V4c0-1.9-1.6-3.5-3.5-3.5H8C6.1,0.5,4.5,2.1,4.5,4v19.5l5-5l5,5v-19c0-1.1,0.9-2,2-2"/>
	</g>
</g>
</svg>
