<?xml version="1.0" encoding="utf-8"?>
<!-- Generator: Adobe Illustrator 19.2.0, SVG Export Plug-In . SVG Version: 6.00 Build 0)  -->
<svg version="1.1" id="Layer_1" xmlns="http://www.w3.org/2000/svg" xmlns:xlink="http://www.w3.org/1999/xlink" x="0px" y="0px"
	 viewBox="0 0 24 24" style="enable-background:new 0 0 24 24;" xml:space="preserve">
<style type="text/css">
	.st0{display:none;}
	.st1{display:inline;}
	.st2{fill:none;stroke:#000000;stroke-linejoin:round;stroke-miterlimit:10;}
	.st3{fill:none;stroke:#000000;stroke-linecap:round;stroke-linejoin:round;stroke-miterlimit:10;}
</style>
<g id="Filled_Icons" class="st0">
	<g class="st1">
		<path d="M19.5,0h-6.3c-0.1,0-0.3,0.1-0.4,0.1L0.6,12.4c-0.2,0.2-0.2,0.5,0,0.7l6.2,6.3c0.1,0.1,0.2,0.1,0.4,0.1c0,0,0,0,0,0
			c0.1,0,0.3-0.1,0.4-0.1L19.9,6.9C20,6.8,20,6.7,20,6.6V0.5C20,0.2,19.8,0,19.5,0z M16,5.6c-0.8,0-1.5-0.7-1.5-1.5
			c0-0.8,0.7-1.5,1.5-1.5s1.5,0.7,1.5,1.5C17.5,4.9,16.8,5.6,16,5.6z"/>
		<path d="M23.5,16H23v-0.5c0-1.9-1.6-3.5-3.5-3.5c-1.9,0-3.5,1.6-3.5,3.5V16h-0.5c-0.3,0-0.5,0.2-0.5,0.5v7c0,0.3,0.2,0.5,0.5,0.5
			h8c0.3,0,0.5-0.2,0.5-0.5v-7C24,16.2,23.8,16,23.5,16z M17,15.5c0-1.4,1.1-2.5,2.5-2.5c1.4,0,2.5,1.1,2.5,2.5V16h-5V15.5z
			 M20,19.8l0,1.7c0,0.3-0.2,0.5-0.5,0.5c-0.3,0-0.5-0.2-0.5-0.5l0-1.7c-0.3-0.2-0.5-0.5-0.5-0.8c0-0.6,0.4-1,1-1c0.6,0,1,0.4,1,1
			C20.5,19.4,20.3,19.7,20,19.8z"/>
	</g>
</g>
<g id="Outline_Icons">
	<g>
		<g>
			<g>
				<polygon class="st2" points="7.2,19.1 19.5,6.6 19.5,0.5 13.2,0.5 1,12.8 				"/>
				<circle class="st2" cx="16" cy="4.1" r="1.5"/>
			</g>
		</g>
		<g>
			<path class="st2" d="M20,19c0,0.3-0.2,0.5-0.5,0.5l0,0c-0.3,0-0.5-0.2-0.5-0.5l0,0c0-0.3,0.2-0.5,0.5-0.5l0,0
				C19.8,18.5,20,18.7,20,19L20,19z"/>
			<rect x="15.5" y="16.5" class="st3" width="8" height="7"/>
			<line class="st3" x1="19.5" y1="21.5" x2="19.5" y2="19.5"/>
			<path class="st3" d="M16.5,16.5v-1c0-1.7,1.3-3,3-3c1.7,0,3,1.3,3,3v1"/>
		</g>
	</g>
</g>
</svg>
