<?xml version="1.0" encoding="utf-8"?>
<!-- Generator: Adobe Illustrator 19.2.0, SVG Export Plug-In . SVG Version: 6.00 Build 0)  -->
<svg version="1.1" id="Layer_1" xmlns="http://www.w3.org/2000/svg" xmlns:xlink="http://www.w3.org/1999/xlink" x="0px" y="0px"
	 viewBox="0 0 24 24" style="enable-background:new 0 0 24 24;" xml:space="preserve">
<style type="text/css">
	.st0{display:none;}
	.st1{display:inline;}
	.st2{fill:none;stroke:#000000;stroke-linecap:round;stroke-linejoin:round;stroke-miterlimit:10;}
</style>
<g id="Filled_Icons" class="st0">
	<g class="st1">
		<path d="M10,17.5c0-4.1,3.4-7.5,7.5-7.5c1.5,0,2.8,0.4,4,1.2V4.5C21.5,4.2,21.3,4,21,4H4C3.2,4,2.5,3.3,2.5,2.5C2.5,1.7,3.2,1,4,1
			h17c0.3,0,0.5-0.2,0.5-0.5C21.5,0.2,21.3,0,21,0H4C2.6,0,1.5,1.1,1.5,2.5c0,7,0,11.9,0,19C1.5,22.9,2.6,24,4,24h9.8
			C11.5,22.7,10,20.3,10,17.5z"/>
		<path d="M17.5,11c-3.6,0-6.5,2.9-6.5,6.5s2.9,6.5,6.5,6.5s6.5-2.9,6.5-6.5S21.1,11,17.5,11z M19.9,18.4l-2,2c0,0-0.1,0.1-0.2,0.1
			c-0.1,0-0.1,0-0.2,0c-0.1,0-0.1,0-0.2,0c-0.1,0-0.1-0.1-0.2-0.1l-2-2c-0.2-0.2-0.2-0.5,0-0.7c0.2-0.2,0.5-0.2,0.7,0l1.1,1.1V15
			c0-0.3,0.2-0.5,0.5-0.5c0.3,0,0.5,0.2,0.5,0.5v3.8l1.1-1.1c0.2-0.2,0.5-0.2,0.7,0C20,17.8,20,18.2,19.9,18.4z"/>
		<path d="M4,2C3.7,2,3.5,2.2,3.5,2.5C3.5,2.8,3.7,3,4,3h16c0.3,0,0.5-0.2,0.5-0.5C20.5,2.2,20.3,2,20,2H4z"/>
	</g>
</g>
<g id="Outline_Icons">
	<g>
		<path class="st2" d="M10.5,23.5h-6c-1.1,0-2-0.9-2-2V3"/>
		<path class="st2" d="M21.5,0.5h-17c-1.1,0-2,0.9-2,2c0,1.1,0.9,2,2,2h17V9"/>
		<circle class="st2" cx="17.5" cy="17.5" r="6"/>
		<line class="st2" x1="17.5" y1="20" x2="17.5" y2="15"/>
		<polyline class="st2" points="15.5,18 17.5,20 19.5,18 		"/>
		<line class="st2" x1="4.5" y1="2.5" x2="20.5" y2="2.5"/>
	</g>
</g>
</svg>
