<?xml version="1.0" encoding="utf-8"?>
<!-- Generator: Adobe Illustrator 19.2.0, SVG Export Plug-In . SVG Version: 6.00 Build 0)  -->
<svg version="1.1" id="Layer_1" xmlns="http://www.w3.org/2000/svg" xmlns:xlink="http://www.w3.org/1999/xlink" x="0px" y="0px"
	 viewBox="0 0 24 24" style="enable-background:new 0 0 24 24;" xml:space="preserve">
<style type="text/css">
	.st0{display:none;}
	.st1{display:inline;}
	.st2{fill:none;stroke:#000000;stroke-linejoin:round;stroke-miterlimit:10;}
	.st3{fill:none;stroke:#000000;stroke-linecap:round;stroke-linejoin:round;stroke-miterlimit:10;}
</style>
<g id="Filled_Icons" class="st0">
	<g class="st1">
		<path d="M19.5,0h-6.3c-0.1,0-0.3,0.1-0.4,0.1L0.7,12.4c-0.2,0.2-0.2,0.5,0,0.7l6.2,6.3c0.1,0.1,0.2,0.1,0.4,0.1c0,0,0,0,0,0
			c0.1,0,0.3-0.1,0.4-0.1L19.9,6.9C20,6.8,20,6.7,20,6.6V0.5C20,0.2,19.8,0,19.5,0z M16,5.6c-0.8,0-1.5-0.7-1.5-1.5
			c0-0.8,0.7-1.5,1.5-1.5c0.8,0,1.5,0.7,1.5,1.5C17.5,4.9,16.8,5.6,16,5.6z"/>
		<g>
			<rect x="15.3" y="16.7" transform="matrix(0.7071 -0.7071 0.7071 0.7071 -8.1617 18.2924)" width="5.4" height="4.5"/>
			<path d="M13.9,20.1L13,23.4c0,0.2,0,0.4,0.1,0.5c0.1,0.1,0.2,0.1,0.4,0.1c0,0,0.1,0,0.1,0l3.2-0.9L13.9,20.1z"/>
			<path d="M23.9,15.6l-2.5-2.5c-0.2-0.2-0.5-0.2-0.7,0L19,14.8l3.2,3.2l1.6-1.6C24,16.2,24,15.8,23.9,15.6z"/>
		</g>
	</g>
</g>
<g id="Outline_Icons">
	<g>
		<polygon class="st2" points="7.2,19 19.5,6.5 19.5,0.5 13.2,0.5 1,12.8 		"/>
		<circle class="st2" cx="16" cy="4" r="1.5"/>
		<polygon class="st3" points="17,22.5 13.5,23.5 14.5,20 21,13.5 23.5,16 		"/>
		<line class="st2" x1="19" y1="15.5" x2="21.5" y2="18"/>
		<line class="st3" x1="14.5" y1="20" x2="17" y2="22.5"/>
	</g>
</g>
</svg>
