<?xml version="1.0" encoding="utf-8"?>
<!-- Generator: Adobe Illustrator 19.2.0, SVG Export Plug-In . SVG Version: 6.00 Build 0)  -->
<svg version="1.1" id="Layer_1" xmlns="http://www.w3.org/2000/svg" xmlns:xlink="http://www.w3.org/1999/xlink" x="0px" y="0px"
	 viewBox="0 0 24 24" style="enable-background:new 0 0 24 24;" xml:space="preserve">
<style type="text/css">
	.st0{display:none;}
	.st1{display:inline;}
	.st2{fill:none;stroke:#000000;stroke-linejoin:round;stroke-miterlimit:10;}
	.st3{fill:none;stroke:#000000;stroke-linecap:round;stroke-linejoin:round;stroke-miterlimit:10;}
</style>
<g id="Filled_Icons" class="st0">
	<g class="st1">
		<path d="M4.5,2C4.2,2,4,2.2,4,2.5C4,2.8,4.2,3,4.5,3h16C20.8,3,21,2.8,21,2.5C21,2.2,20.8,2,20.5,2H4.5z"/>
		<path d="M21.5,4h-17C3.7,4,3,3.3,3,2.5C3,1.7,3.7,1,4.5,1h17C21.8,1,22,0.8,22,0.5C22,0.2,21.8,0,21.5,0h-17C3.1,0,2,1.1,2,2.5v19
			C2,22.9,3.1,24,4.5,24h17c0.3,0,0.5-0.2,0.5-0.5v-19C22,4.2,21.8,4,21.5,4z M15.9,13.5V14v1c0,1.1-0.9,2-2,2c-1.1,0-2-0.9-2-2
			c0-1.1,0.9-2,2-2h1V8.3l-5,2.3v5.9V17v1c0,1.1-0.9,2-2,2c-1.1,0-2-0.9-2-2s0.9-2,2-2h1v-5.7c0-0.2,0.1-0.4,0.3-0.5l6-2.8
			c0.2-0.1,0.3-0.1,0.5,0c0.1,0.1,0.2,0.3,0.2,0.4L15.9,13.5L15.9,13.5z"/>
	</g>
</g>
<g id="Outline_Icons">
	<g>
		<path class="st2" d="M9.4,18c0,0.8-0.7,1.5-1.5,1.5c-0.8,0-1.5-0.7-1.5-1.5c0-0.8,0.7-1.5,1.5-1.5c0.3,0,1.2,0,1.5,0
			C9.4,17,9.4,17.4,9.4,18z"/>
		<path class="st2" d="M15.4,15c0,0.8-0.7,1.5-1.5,1.5c-0.8,0-1.5-0.7-1.5-1.5c0-0.8,0.7-1.5,1.5-1.5c0.3,0,1.2,0,1.5,0
			C15.4,14,15.4,14.5,15.4,15z"/>
		<polyline class="st2" points="9.4,17 9.4,10.3 15.4,7.5 15.4,14 		"/>
		<g>
			<path class="st3" d="M21.5,0.5h-17c-1.1,0-2,0.9-2,2c0,1.1,0.9,2,2,2h17v19h-17c-1.1,0-2-0.9-2-2v-19"/>
			<line class="st3" x1="4.5" y1="2.5" x2="20.5" y2="2.5"/>
		</g>
	</g>
</g>
</svg>
