<?xml version="1.0" encoding="utf-8"?>
<!-- Generator: Adobe Illustrator 19.2.0, SVG Export Plug-In . SVG Version: 6.00 Build 0)  -->
<svg version="1.1" id="Layer_1" xmlns="http://www.w3.org/2000/svg" xmlns:xlink="http://www.w3.org/1999/xlink" x="0px" y="0px"
	 viewBox="0 0 24 24" style="enable-background:new 0 0 24 24;" xml:space="preserve">
<style type="text/css">
	.st0{display:none;}
	.st1{display:inline;}
	.st2{fill:none;stroke:#000000;stroke-linejoin:round;stroke-miterlimit:10;}
	.st3{fill:none;stroke:#000000;stroke-linecap:round;stroke-linejoin:round;stroke-miterlimit:10;}
</style>
<g id="Filled_Icons" class="st0">
	<g class="st1">
		<path d="M7.9,2.2C7.8,2.1,7.6,2,7.5,2h-7C0.2,2,0,2.2,0,2.5v7c0,0.1,0.1,0.3,0.1,0.4l14,14c0.1,0.1,0.2,0.1,0.4,0.1
			c0.1,0,0.3,0,0.4-0.1l7-7c0.2-0.2,0.2-0.5,0-0.7L7.9,2.2z M5,9C3.9,9,3,8.1,3,7c0-1.1,0.9-2,2-2c1.1,0,2,0.9,2,2C7,8.1,6.1,9,5,9z
			"/>
		<path d="M23.9,13.2l-13-13C10.8,0.1,10.6,0,10.5,0h-7C3.2,0,3,0.2,3,0.5C3,0.8,3.2,1,3.5,1h6.8l12.5,12.5l-0.6,0.6
			c-0.2,0.2-0.2,0.5,0,0.7c0.1,0.1,0.2,0.1,0.4,0.1c0.1,0,0.3,0,0.4-0.1l1-1C24,13.7,24,13.3,23.9,13.2z"/>
	</g>
</g>
<g id="Outline_Icons">
	<g>
		<polygon class="st2" points="21.5,16.5 14.5,23.5 0.5,9.5 0.5,2.5 7.5,2.5 		"/>
		<polyline class="st3" points="3.5,0.5 10.5,0.5 23.5,13.5 22.5,14.5 		"/>
		<circle class="st2" cx="5" cy="7" r="1.5"/>
	</g>
</g>
</svg>
