<?xml version="1.0" encoding="utf-8"?>
<!-- Generator: Adobe Illustrator 19.2.0, SVG Export Plug-In . SVG Version: 6.00 Build 0)  -->
<svg version="1.1" id="Layer_1" xmlns="http://www.w3.org/2000/svg" xmlns:xlink="http://www.w3.org/1999/xlink" x="0px" y="0px"
	 viewBox="0 0 24 24" style="enable-background:new 0 0 24 24;" xml:space="preserve">
<style type="text/css">
	.st0{display:none;}
	.st1{display:inline;}
	.st2{fill:none;stroke:#000000;stroke-linejoin:round;stroke-miterlimit:10;}
</style>
<g id="Filled_Icon" class="st0">
	<path class="st1" d="M21.5,0h-19C1.1,0,0,1.1,0,2.5V24h3.4l1-3h15.3l1,3H24V2.5C24,1.1,22.9,0,21.5,0z M21,18h-1v-4.5
		c0-0.3-0.2-0.5-0.5-0.5H17v5h-1v-5h-2.5v5h-1v-5h-2c-0.3,0-0.5,0.2-0.5,0.5V18H3v-6h18V18z M21,9h-2.7l0.1,0
		c0.3-0.1,0.4-0.4,0.3-0.6L17,3.9c0-0.1-0.1-0.2-0.3-0.3c-0.1-0.1-0.3-0.1-0.4,0l-1.8,0.7c0,0,0.1,0.1,0.1,0.1l1.6,4.4
		c0,0.1,0,0.1,0,0.2H14V4.5C14,4.2,13.8,4,13.5,4H11v5h-1V4H7.5v5h-1V4h-2C4.2,4,4,4.2,4,4.5V9H3V3h18V9z"/>
</g>
<g id="Outline_Icons">
	<g>
		<path class="st2" d="M0.5,2.5c0-1.1,0.9-2,2-2h19c1.1,0,2,0.9,2,2v21H21l-1-3H4l-1,3H0.5V2.5z"/>
		<rect x="2.5" y="2.5" class="st2" width="19" height="7"/>
		<rect x="2.5" y="11.5" class="st2" width="19" height="7"/>
		<rect x="4.5" y="4.5" class="st2" width="3" height="5"/>
		<rect x="7.5" y="4.5" class="st2" width="3" height="5"/>
		<rect x="10.5" y="4.5" class="st2" width="3" height="5"/>
		<rect x="10.5" y="13.5" class="st2" width="3" height="5"/>
		<rect x="13.5" y="13.5" class="st2" width="3" height="5"/>
		<rect x="16.5" y="13.5" class="st2" width="3" height="5"/>
		<rect x="14.6" y="4.4" transform="matrix(0.9373 -0.3485 0.3485 0.9373 -1.3583 6.0098)" class="st2" width="2.9" height="4.7"/>
	</g>
</g>
</svg>
