<?xml version="1.0" encoding="utf-8"?>
<!-- Generator: Adobe Illustrator 19.2.0, SVG Export Plug-In . SVG Version: 6.00 Build 0)  -->
<svg version="1.1" id="Layer_1" xmlns="http://www.w3.org/2000/svg" xmlns:xlink="http://www.w3.org/1999/xlink" x="0px" y="0px"
	 viewBox="0 0 24 24" style="enable-background:new 0 0 24 24;" xml:space="preserve">
<style type="text/css">
	.st0{display:none;}
	.st1{display:inline;}
	.st2{fill:none;stroke:#000000;stroke-linecap:round;stroke-linejoin:round;stroke-miterlimit:10;}
</style>
<g id="Filled_Icons" class="st0">
	<g class="st1">
		<path d="M21.5,4h-17C3.7,4,3,3.3,3,2.5C3,1.7,3.7,1,4.5,1h17C21.8,1,22,0.8,22,0.5C22,0.2,21.8,0,21.5,0h-17C3.1,0,2,1.1,2,2.5
			c0,7,0,11.9,0,19C2,22.9,3.1,24,4.5,24h17c0.3,0,0.5-0.2,0.5-0.5v-19C22,4.2,21.8,4,21.5,4z M17.5,18.5l-0.7,0.7
			c-0.4,0.4-1,0.7-1.6,0.7c-0.4,0-0.9-0.1-1.3-0.4c-3.1-2.1-5.8-4.8-7.9-7.9c-0.6-0.9-0.5-2.1,0.3-2.9L7,8c0.6-0.6,1.8-0.6,2.4,0
			l1.3,1.3c0.3,0.3,0.5,0.7,0.5,1.2c0,0.5-0.2,0.9-0.5,1.2l-0.1,0.1c1,1.1,2,2.2,3.2,3.2l0.1-0.1c0.6-0.6,1.8-0.6,2.4,0l1.3,1.3
			c0.3,0.3,0.5,0.7,0.5,1.2C18,17.7,17.8,18.2,17.5,18.5z"/>
		<path d="M4.5,2C4.2,2,4,2.2,4,2.5C4,2.8,4.2,3,4.5,3h16C20.8,3,21,2.8,21,2.5C21,2.2,20.8,2,20.5,2H4.5z"/>
	</g>
</g>
<g id="Outline_Icons">
	<g>
		<path class="st2" d="M10.3,11.3c0.5-0.5,0.5-1.2,0-1.7L9.1,8.3c-0.5-0.5-1.2-0.5-1.7,0L6.7,9C6.1,9.6,6,10.6,6.5,11.3
			c2,3,4.7,5.7,7.7,7.7c0.7,0.5,1.6,0.4,2.2-0.2l0.7-0.7c0.5-0.5,0.5-1.2,0-1.7l-1.3-1.3c-0.5-0.5-1.2-0.5-1.7,0l-0.4,0.4
			c-1.4-1.1-2.7-2.5-3.9-3.9L10.3,11.3z"/>
		<g>
			<path class="st2" d="M21.5,0.5h-17c-1.1,0-2,0.9-2,2c0,1.1,0.9,2,2,2h17v19h-17c-1.1,0-2-0.9-2-2V3"/>
			<line class="st2" x1="4.5" y1="2.5" x2="20.5" y2="2.5"/>
		</g>
	</g>
</g>
</svg>
