<?xml version="1.0" encoding="utf-8"?>
<!-- Generator: Adobe Illustrator 19.2.0, SVG Export Plug-In . SVG Version: 6.00 Build 0)  -->
<svg version="1.1" id="Outline_Icons" xmlns="http://www.w3.org/2000/svg" xmlns:xlink="http://www.w3.org/1999/xlink" x="0px"
	 y="0px" viewBox="0 0 24 24" style="enable-background:new 0 0 24 24;" xml:space="preserve">
<style type="text/css">
	.st0{fill:none;stroke:#000000;stroke-linecap:round;stroke-linejoin:round;stroke-miterlimit:10;}
</style>
<path class="st0" d="M11.5,5c0-1.9,5.1-3.5,11-3.5V18c-5.9,0-11,1.6-11,3.5c0-1.9-5.1-3.5-11-3.5V1.5C6.4,1.5,11.5,3.1,11.5,5z"/>
<line class="st0" x1="11.5" y1="5" x2="11.5" y2="21.4"/>
<path class="st0" d="M9,7.2C7.4,6.6,5.1,6.2,2.5,6"/>
<path class="st0" d="M9,10.2C7.4,9.6,5.1,9.2,2.5,9"/>
<path class="st0" d="M9,13.2c-1.6-0.6-3.9-1.1-6.5-1.2"/>
<path class="st0" d="M9,16.2c-1.6-0.6-3.9-1.1-6.5-1.2"/>
<path class="st0" d="M14,7.2c1.6-0.6,3.9-1.1,6.5-1.2"/>
<path class="st0" d="M14,10.2c1.6-0.6,3.9-1.1,6.5-1.2"/>
<path class="st0" d="M14,13.2c1.6-0.6,3.9-1.1,6.5-1.2"/>
<path class="st0" d="M14,16.2c1.6-0.6,3.9-1.1,6.5-1.2"/>
</svg>
