<?xml version="1.0" encoding="utf-8"?>
<!-- Generator: Adobe Illustrator 19.2.0, SVG Export Plug-In . SVG Version: 6.00 Build 0)  -->
<svg version="1.1" id="Layer_1" xmlns="http://www.w3.org/2000/svg" xmlns:xlink="http://www.w3.org/1999/xlink" x="0px" y="0px"
	 viewBox="0 0 24 24" style="enable-background:new 0 0 24 24;" xml:space="preserve">
<style type="text/css">
	.st0{display:none;}
	.st1{display:inline;}
	.st2{fill:none;stroke:#000000;stroke-linecap:round;stroke-linejoin:round;stroke-miterlimit:10;}
</style>
<g id="Filled_Icons" class="st0">
	<g class="st1">
		<path d="M22.5,3H22v1v14.5c0,0.3-0.2,0.5-0.5,0.5h-5h-2c-1.2,0-1.5,0.3-1.5,1.5c0,0.3-0.2,0.5-0.5,0.5h-2c-0.3,0-0.5-0.2-0.5-0.5
			c0-1.2-0.3-1.5-1.5-1.5h-2h-5C1.2,19,1,18.8,1,18.5V4V3H0.5C0.2,3,0,3.2,0,3.5v16C0,19.8,0.2,20,0.5,20h6c0.9,0,3,0.2,3,2.5
			c0,0.3,0.2,0.5,0.5,0.5h3c0.3,0,0.5-0.2,0.5-0.5c0-2.3,2.1-2.5,3-2.5h6c0.3,0,0.5-0.2,0.5-0.5v-16C23,3.2,22.8,3,22.5,3z"/>
		<path d="M14.5,18h6H21v-0.5v-16C21,1.2,20.8,1,20.5,1h-6c-0.9,0-1.8,0.2-2.5,0.8V20h0C12.2,18.6,13,18,14.5,18z"/>
		<path d="M8.5,18c1.5,0,2.3,0.6,2.5,2h0V1.8C10.3,1.2,9.4,1,8.5,1h-6C2.2,1,2,1.2,2,1.5v16V18h0.5H8.5z"/>
	</g>
</g>
<g id="Outline_Icons">
	<g>
		<path class="st2" d="M11.5,20.5c0-2,1-3,3-3c1.5,0,6,0,6,0v-16c0,0-5.5,0-6,0c-2,0-3,1-3,3c0-2-1-3-3-3c-0.5,0-6,0-6,0v16
			c0,0,4.5,0,6,0C10.5,17.5,11.5,18.5,11.5,20.5z"/>
		<path class="st2" d="M20.5,3.5h2v16c0,0-4.5,0-6,0c-2,0-3.5,1-3.5,3h-3c0-2-1.5-3-3.5-3c-1.5,0-6,0-6,0v-16h2"/>
		<line class="st2" x1="11.5" y1="4.5" x2="11.5" y2="20"/>
	</g>
</g>
</svg>
