<?xml version="1.0" encoding="utf-8"?>
<!-- Generator: Adobe Illustrator 19.2.0, SVG Export Plug-In . SVG Version: 6.00 Build 0)  -->
<svg version="1.1" id="Layer_1" xmlns="http://www.w3.org/2000/svg" xmlns:xlink="http://www.w3.org/1999/xlink" x="0px" y="0px"
	 viewBox="0 0 24 24" style="enable-background:new 0 0 24 24;" xml:space="preserve">
<style type="text/css">
	.st0{display:none;}
	.st1{display:inline;}
	.st2{fill:none;stroke:#000000;stroke-linecap:round;stroke-linejoin:round;stroke-miterlimit:10;}
</style>
<g id="Filled_Icons" class="st0">
	<g class="st1">
		<path d="M0,1.5V18c0,0.3,0.2,0.5,0.5,0.5c5.9,0,10.5,1.6,10.5,3V3.3C9.1,1.8,4.7,1,0.5,1C0.2,1,0,1.2,0,1.5z"/>
		<path d="M22.5,1C18.3,1,13.9,1.8,12,3.3v18.2c0-1.4,4.6-3,10.5-3c0.3,0,0.5-0.2,0.5-0.5V1.5C23,1.2,22.8,1,22.5,1z"/>
	</g>
</g>
<g id="Outline_Icons">
	<g>
		<path class="st2" d="M11.5,5c0-1.9,5.1-3.5,11-3.5V18c-5.9,0-11,1.6-11,3.5c0-1.9-5.1-3.5-11-3.5V1.5C6.4,1.5,11.5,3.1,11.5,5z"/>
		<line class="st2" x1="11.5" y1="5" x2="11.5" y2="21.4"/>
	</g>
</g>
</svg>
