<?xml version="1.0" encoding="utf-8"?>
<!-- Generator: Adobe Illustrator 19.2.0, SVG Export Plug-In . SVG Version: 6.00 Build 0)  -->
<svg version="1.1" id="Layer_1" xmlns="http://www.w3.org/2000/svg" xmlns:xlink="http://www.w3.org/1999/xlink" x="0px" y="0px"
	 viewBox="0 0 24 24" style="enable-background:new 0 0 24 24;" xml:space="preserve">
<style type="text/css">
	.st0{display:none;}
	.st1{display:inline;}
	.st2{fill:none;stroke:#000000;stroke-linecap:round;stroke-linejoin:round;stroke-miterlimit:10;}
	.st3{fill:none;stroke:#000000;stroke-linejoin:round;stroke-miterlimit:10;}
</style>
<g id="Filled_Icons" class="st0">
	<g class="st1">
		<path d="M19.5,0h-6.3c-0.1,0-0.3,0.1-0.4,0.1L0.7,12.4c-0.2,0.2-0.2,0.5,0,0.7l6.2,6.3c0.1,0.1,0.2,0.1,0.4,0.1c0,0,0,0,0,0
			c0.1,0,0.3-0.1,0.4-0.1L19.9,6.9C20,6.8,20,6.7,20,6.6V0.5C20,0.2,19.8,0,19.5,0z M16,5.6c-0.8,0-1.5-0.7-1.5-1.5
			c0-0.8,0.7-1.5,1.5-1.5c0.8,0,1.5,0.7,1.5,1.5C17.5,4.9,16.8,5.6,16,5.6z"/>
		<path d="M21.5,19c-0.9,0-1.7,0.5-2.1,1.2L16,18.9c0-0.1,0-0.3,0-0.4c0-0.2,0-0.4-0.1-0.6l3.6-1.8c0.5,0.6,1.2,1,2,1
			c1.4,0,2.5-1.1,2.5-2.5c0-1.4-1.1-2.5-2.5-2.5c-1.4,0-2.5,1.1-2.5,2.5c0,0.2,0,0.4,0.1,0.6L15.5,17c-0.5-0.6-1.2-1-2-1
			c-1.4,0-2.5,1.1-2.5,2.5c0,1.4,1.1,2.5,2.5,2.5c0.9,0,1.7-0.5,2.1-1.2l3.4,1.3c0,0.1,0,0.3,0,0.4c0,1.4,1.1,2.5,2.5,2.5
			c1.4,0,2.5-1.1,2.5-2.5C24,20.1,22.9,19,21.5,19z M21.5,13c0.8,0,1.5,0.7,1.5,1.5c0,0.8-0.7,1.5-1.5,1.5c-0.8,0-1.5-0.7-1.5-1.5
			C20,13.7,20.7,13,21.5,13z M13.5,20c-0.8,0-1.5-0.7-1.5-1.5c0-0.8,0.7-1.5,1.5-1.5c0.8,0,1.5,0.7,1.5,1.5C15,19.3,14.3,20,13.5,20
			z M21.5,23c-0.8,0-1.5-0.7-1.5-1.5c0-0.8,0.7-1.5,1.5-1.5c0.8,0,1.5,0.7,1.5,1.5C23,22.3,22.3,23,21.5,23z"/>
	</g>
</g>
<g id="Outline_Icons">
	<g>
		<g>
			<circle class="st2" cx="21.5" cy="14.5" r="2"/>
			<circle class="st2" cx="21.5" cy="21.5" r="2"/>
			<circle class="st2" cx="13.5" cy="18.5" r="2"/>
			<line class="st2" x1="15.3" y1="17.6" x2="19.7" y2="15.4"/>
			<line class="st2" x1="15.4" y1="19.2" x2="19.6" y2="20.8"/>
		</g>
		<polygon class="st3" points="7.2,19 19.5,6.5 19.5,0.5 13.2,0.5 1,12.8 		"/>
		<circle class="st3" cx="16" cy="4" r="1.5"/>
	</g>
</g>
</svg>
