<?xml version="1.0" encoding="utf-8"?>
<!-- Generator: Adobe Illustrator 19.2.0, SVG Export Plug-In . SVG Version: 6.00 Build 0)  -->
<svg version="1.1" id="Layer_1" xmlns="http://www.w3.org/2000/svg" xmlns:xlink="http://www.w3.org/1999/xlink" x="0px" y="0px"
	 viewBox="0 0 24 24" style="enable-background:new 0 0 24 24;" xml:space="preserve">
<style type="text/css">
	.st0{display:none;}
	.st1{display:inline;}
	.st2{fill:none;stroke:#000000;stroke-linecap:round;stroke-linejoin:round;stroke-miterlimit:10;}
</style>
<g id="Filled_Icons" class="st0">
	<g class="st1">
		<path d="M19.5,4h-13C5.7,4,5,3.3,5,2.5C5,1.7,5.7,1,6.5,1h13C19.8,1,20,0.8,20,0.5C20,0.2,19.8,0,19.5,0h-13C5.1,0,4,1.1,4,2.5
			c0,10.3,0,3.7,0,14C4,17.9,5.1,19,6.5,19H11v-7c0-0.8,0.7-1.5,1.5-1.5c0.8,0,1.5,0.7,1.5,1.5v7h5.5c0.3,0,0.5-0.2,0.5-0.5v-14
			C20,4.2,19.8,4,19.5,4z"/>
		<path d="M15.4,20.6C15.4,20.6,15.3,20.6,15.4,20.6c-0.2-0.2-0.5-0.2-0.7,0c0,0,0,0,0,0l-1.1,1.1L13,22.3V12c0-0.3-0.2-0.5-0.5-0.5
			c-0.3,0-0.5,0.2-0.5,0.5v10.3l-0.5-0.5l-1.1-1.1c0,0-0.1-0.1-0.2-0.1c-0.1,0-0.1,0-0.2,0c-0.1,0-0.1,0-0.2,0
			c-0.1,0-0.1,0.1-0.2,0.1c0,0-0.1,0.1-0.1,0.2c0,0.1,0,0.1,0,0.2c0,0.1,0,0.1,0,0.2c0,0.1,0.1,0.1,0.1,0.2l1.7,1.7l0.8,0.8
			c0,0,0,0,0,0c0,0,0.1,0.1,0.1,0.1c0.1,0,0.1,0,0.2,0c0.1,0,0.1,0,0.2,0c0.1,0,0.1-0.1,0.2-0.1l0.8-0.8l1.7-1.7
			c0,0,0.1-0.1,0.1-0.2c0-0.1,0-0.1,0-0.2c0-0.1,0-0.1,0-0.2C15.4,20.8,15.4,20.7,15.4,20.6z"/>
		<path d="M6.5,2C6.2,2,6,2.2,6,2.5C6,2.8,6.2,3,6.5,3h12C18.8,3,19,2.8,19,2.5C19,2.2,18.8,2,18.5,2H6.5z"/>
	</g>
</g>
<g id="Outline_Icons">
	<g>
		<path class="st2" d="M9.5,18.5h-3c-1.1,0-2-0.9-2-2V3"/>
		<path class="st2" d="M19.5,0.5h-13c-1.1,0-2,0.9-2,2c0,1.1,0.9,2,2,2h13v14h-4"/>
		<g>
			<line class="st2" x1="12.5" y1="12" x2="12.5" y2="23.5"/>
			<line class="st2" x1="12.5" y1="12" x2="12.5" y2="23.5"/>
		</g>
		<polyline class="st2" points="15,21 12.5,23.5 10,21 		"/>
		<line class="st2" x1="6.5" y1="2.5" x2="18.5" y2="2.5"/>
	</g>
</g>
</svg>
