<?xml version="1.0" encoding="utf-8"?>
<!-- Generator: Adobe Illustrator 19.2.0, SVG Export Plug-In . SVG Version: 6.00 Build 0)  -->
<svg version="1.1" id="Layer_1" xmlns="http://www.w3.org/2000/svg" xmlns:xlink="http://www.w3.org/1999/xlink" x="0px" y="0px"
	 viewBox="0 0 24 24" style="enable-background:new 0 0 24 24;" xml:space="preserve">
<style type="text/css">
	.st0{display:none;}
	.st1{display:inline;}
	.st2{fill:none;stroke:#000000;stroke-linejoin:round;stroke-miterlimit:10;}
	.st3{fill:none;stroke:#000000;stroke-linecap:round;stroke-linejoin:round;stroke-miterlimit:10;}
</style>
<g id="Filled_Icons" class="st0">
	<g class="st1">
		<path d="M19.5,0h-6.3c-0.1,0-0.3,0.1-0.4,0.1L0.6,12.4c-0.2,0.2-0.2,0.5,0,0.7l6.2,6.3c0.1,0.1,0.2,0.1,0.4,0.1c0,0,0,0,0,0
			c0.1,0,0.3-0.1,0.4-0.1L19.9,6.9C20,6.8,20,6.7,20,6.6V0.5C20,0.2,19.8,0,19.5,0z M16,5.6c-0.8,0-1.5-0.7-1.5-1.5
			c0-0.8,0.7-1.5,1.5-1.5s1.5,0.7,1.5,1.5C17.5,4.9,16.8,5.6,16,5.6z"/>
		<path d="M18.5,13c-3,0-5.5,2.5-5.5,5.5c0,3,2.5,5.5,5.5,5.5c3,0,5.5-2.5,5.5-5.5C24,15.5,21.5,13,18.5,13z M15.4,17.5
			c0.4-1.2,1.6-2.1,2.9-2.1c0.8,0,1.5,0.3,2.1,0.8c0-0.3,0.2-0.5,0.5-0.5c0.3,0,0.5,0.2,0.5,0.5v1.5c0,0.3-0.2,0.5-0.5,0.5h-1.5
			c-0.3,0-0.5-0.2-0.5-0.5c0-0.3,0.2-0.5,0.5-0.5H20c-0.4-0.4-1-0.7-1.7-0.7c-0.9,0-1.7,0.6-2,1.4c-0.1,0.2-0.3,0.3-0.5,0.3
			c-0.1,0-0.1,0-0.2,0C15.5,18,15.3,17.7,15.4,17.5z M21.6,19.5c-0.4,1.2-1.6,2.1-2.9,2.1c-0.8,0-1.5-0.3-2.1-0.8
			c0,0.3-0.2,0.5-0.5,0.5c-0.3,0-0.5-0.2-0.5-0.5v-1.5c0-0.3,0.2-0.5,0.5-0.5h1.5c0.3,0,0.5,0.2,0.5,0.5c0,0.3-0.2,0.5-0.5,0.5H17
			c0.4,0.4,1,0.7,1.7,0.7c0.9,0,1.7-0.6,2-1.4c0.1-0.3,0.4-0.4,0.6-0.3C21.5,19,21.7,19.3,21.6,19.5z"/>
	</g>
</g>
<g id="Outline_Icons">
	<g>
		<polygon class="st2" points="7.2,19.1 19.5,6.6 19.5,0.5 13.2,0.5 1,12.8 		"/>
		<circle class="st2" cx="16" cy="4.1" r="1.5"/>
		<g>
			<polyline class="st3" points="22.8,15 22.8,17.5 20.3,17.5 			"/>
			<path class="st3" d="M14,17.5c0.6-1.7,2.3-3,4.2-3c2,0,3.8,1.2,4.5,3"/>
			<g>
				<polyline class="st3" points="14.3,23 14.3,20.5 16.8,20.5 				"/>
				<path class="st3" d="M23,20.5c-0.6,1.7-2.3,3-4.2,3c-2,0-3.8-1.2-4.5-3"/>
			</g>
		</g>
	</g>
</g>
</svg>
