<?xml version="1.0" encoding="utf-8"?>
<!-- Generator: Adobe Illustrator 19.2.0, SVG Export Plug-In . SVG Version: 6.00 Build 0)  -->
<svg version="1.1" id="Layer_1" xmlns="http://www.w3.org/2000/svg" xmlns:xlink="http://www.w3.org/1999/xlink" x="0px" y="0px"
	 viewBox="0 0 24 24" style="enable-background:new 0 0 24 24;" xml:space="preserve">
<style type="text/css">
	.st0{display:none;}
	.st1{display:inline;}
	.st2{fill:none;stroke:#000000;stroke-linecap:round;stroke-linejoin:round;stroke-miterlimit:10;}
</style>
<g id="Filled_Icons" class="st0">
	<g class="st1">
		<path d="M21.5,4h-17C3.7,4,3,3.3,3,2.5C3,1.7,3.7,1,4.5,1h17C21.8,1,22,0.8,22,0.5C22,0.2,21.8,0,21.5,0h-17C3.1,0,2,1.1,2,2.5v19
			C2,22.9,3.1,24,4.5,24h17c0.3,0,0.5-0.2,0.5-0.5v-19C22,4.2,21.8,4,21.5,4z M18.8,12.9l-3.2,2.3l1.4,4.2c0.1,0.2,0,0.4-0.2,0.6
			c-0.2,0.1-0.4,0.1-0.6,0l-3.7-2.3l-3.7,2.3C8.7,20,8.6,20,8.5,20c-0.1,0-0.2,0-0.3-0.1C8,19.8,8,19.6,8,19.4l1.4-4.2l-3.2-2.3
			C6,12.8,6,12.6,6,12.3C6.1,12.1,6.3,12,6.5,12h4.1L12,7.8c0.1-0.2,0.3-0.3,0.5-0.3c0.2,0,0.4,0.1,0.5,0.3l1.4,4.2h4.1
			c0.2,0,0.4,0.1,0.5,0.3C19,12.6,19,12.8,18.8,12.9z"/>
		<path d="M4.5,2C4.2,2,4,2.2,4,2.5C4,2.8,4.2,3,4.5,3h16C20.8,3,21,2.8,21,2.5C21,2.2,20.8,2,20.5,2H4.5z"/>
	</g>
</g>
<g id="Outline_Icons">
	<g>
		<polygon class="st2" points="11.5,8 13,12.5 17.5,12.5 14,15 15.5,19.5 11.5,17 7.5,19.5 9,15 5.5,12.5 10,12.5 		"/>
		<g>
			<path class="st2" d="M21.5,0.5h-17c-1.1,0-2,0.9-2,2c0,1.1,0.9,2,2,2h17v19h-17c-1.1,0-2-0.9-2-2V3"/>
			<line class="st2" x1="4.5" y1="2.5" x2="20.5" y2="2.5"/>
		</g>
	</g>
</g>
</svg>
