<?xml version="1.0" encoding="utf-8"?>
<!-- Generator: Adobe Illustrator 19.2.0, SVG Export Plug-In . SVG Version: 6.00 Build 0)  -->
<svg version="1.1" id="Layer_1" xmlns="http://www.w3.org/2000/svg" xmlns:xlink="http://www.w3.org/1999/xlink" x="0px" y="0px"
	 viewBox="0 0 24 24" style="enable-background:new 0 0 24 24;" xml:space="preserve">
<style type="text/css">
	.st0{display:none;}
	.st1{display:inline;}
	.st2{fill:none;stroke:#000000;stroke-linejoin:round;stroke-miterlimit:10;}
	.st3{fill:none;stroke:#000000;stroke-linecap:round;stroke-linejoin:round;stroke-miterlimit:10;}
</style>
<g id="Filled_Icons" class="st0">
	<g class="st1">
		<path d="M19.5,0h-6.3c-0.1,0-0.3,0.1-0.4,0.1L0.6,12.4c-0.2,0.2-0.2,0.5,0,0.7l6.2,6.3c0.1,0.1,0.2,0.1,0.4,0.1c0,0,0,0,0,0
			c0.1,0,0.3-0.1,0.4-0.1L19.9,6.9C20,6.8,20,6.7,20,6.6V0.5C20,0.2,19.8,0,19.5,0z M16,5.6c-0.8,0-1.5-0.7-1.5-1.5
			c0-0.8,0.7-1.5,1.5-1.5s1.5,0.7,1.5,1.5C17.5,4.9,16.8,5.6,16,5.6z"/>
		<path d="M18.5,13c-3,0-5.5,2.5-5.5,5.5c0,3,2.5,5.5,5.5,5.5c3,0,5.5-2.5,5.5-5.5C24,15.5,21.5,13,18.5,13z M21.4,17.4L18,20.7
			l-2.3-2.4c-0.2-0.2-0.2-0.5,0-0.7c0.2-0.2,0.5-0.2,0.7,0l1.6,1.6l2.7-2.6c0.2-0.2,0.5-0.2,0.7,0C21.5,16.8,21.5,17.2,21.4,17.4z"
			/>
	</g>
</g>
<g id="Outline_Icons">
	<g>
		<polygon class="st2" points="7.2,19 19.5,6.5 19.5,0.5 13.2,0.5 1,12.8 		"/>
		<circle class="st2" cx="16" cy="4" r="1.5"/>
		<polyline class="st3" points="21,17 18,20 16,18 		"/>
		<circle class="st2" cx="18.5" cy="18.5" r="5"/>
	</g>
</g>
</svg>
