<?xml version="1.0" encoding="utf-8"?>
<!-- Generator: Adobe Illustrator 19.2.0, SVG Export Plug-In . SVG Version: 6.00 Build 0)  -->
<svg version="1.1" id="Layer_1" xmlns="http://www.w3.org/2000/svg" xmlns:xlink="http://www.w3.org/1999/xlink" x="0px" y="0px"
	 viewBox="0 0 24 24" style="enable-background:new 0 0 24 24;" xml:space="preserve">
<style type="text/css">
	.st0{display:none;}
	.st1{display:inline;}
	.st2{fill:none;stroke:#000000;stroke-linejoin:round;stroke-miterlimit:10;}
	.st3{fill:none;stroke:#000000;stroke-linecap:round;stroke-linejoin:round;stroke-miterlimit:10;}
</style>
<g id="Filled_Icons" class="st0">
	<g class="st1">
		<path d="M19.5,0h-6.3c-0.1,0-0.3,0.1-0.4,0.1L0.7,12.4c-0.2,0.2-0.2,0.5,0,0.7l6.2,6.3c0.1,0.1,0.2,0.1,0.4,0.1c0,0,0,0,0,0
			c0.1,0,0.3-0.1,0.4-0.1L19.9,6.9C20,6.8,20,6.7,20,6.6V0.5C20,0.2,19.8,0,19.5,0z M16,5.6c-0.8,0-1.5-0.7-1.5-1.5
			c0-0.8,0.7-1.5,1.5-1.5c0.8,0,1.5,0.7,1.5,1.5C17.5,4.9,16.8,5.6,16,5.6z"/>
		<path d="M23.9,23.2l-4.9-9.9c-0.2-0.3-0.7-0.3-0.9,0l-5,10c-0.1,0.2-0.1,0.3,0,0.5c0.1,0.1,0.3,0.2,0.4,0.2h10c0,0,0,0,0,0
			c0.3,0,0.5-0.2,0.5-0.5C24,23.4,24,23.3,23.9,23.2z M18.5,22.1c-0.3,0-0.5-0.2-0.5-0.5c0-0.2,0.2-0.5,0.5-0.5s0.5,0.2,0.5,0.5
			C19,21.9,18.8,22.1,18.5,22.1z M19,20.3c0,0.3-0.2,0.5-0.5,0.5c-0.3,0-0.5-0.2-0.5-0.5v-2.7c0-0.3,0.2-0.5,0.5-0.5
			c0.3,0,0.5,0.2,0.5,0.5V20.3z"/>
	</g>
</g>
<g id="Outline_Icons">
	<g>
		<polygon class="st2" points="7.2,19 19.5,6.5 19.5,0.5 13.2,0.5 1,12.8 		"/>
		<circle class="st2" cx="16" cy="4" r="1.5"/>
		<g>
			<polygon class="st3" points="23.5,23.5 13.5,23.5 18.5,13.5 			"/>
			<line class="st3" x1="18.5" y1="17.6" x2="18.5" y2="20.3"/>
			<g>
				<g>
					<g>
						<path d="M18.5,21.2c-0.3,0-0.5,0.2-0.5,0.5c0,0.3,0.2,0.5,0.5,0.5s0.5-0.2,0.5-0.5C19,21.4,18.8,21.2,18.5,21.2L18.5,21.2z"/>
					</g>
				</g>
			</g>
		</g>
	</g>
</g>
</svg>
