<?xml version="1.0" encoding="utf-8"?>
<!-- Generator: Adobe Illustrator 19.2.0, SVG Export Plug-In . SVG Version: 6.00 Build 0)  -->
<svg version="1.1" id="Layer_1" xmlns="http://www.w3.org/2000/svg" xmlns:xlink="http://www.w3.org/1999/xlink" x="0px" y="0px"
	 viewBox="0 0 24 24" style="enable-background:new 0 0 24 24;" xml:space="preserve">
<style type="text/css">
	.st0{display:none;}
	.st1{display:inline;}
	.st2{fill:none;stroke:#000000;stroke-linecap:round;stroke-linejoin:round;stroke-miterlimit:10;}
	.st3{fill:none;stroke:#000000;stroke-linejoin:round;stroke-miterlimit:10;}
</style>
<g id="Filled_Icons" class="st0">
	<g class="st1">
		<path d="M23.9,23.1l-3.2-3.2c0.6-0.7,0.9-1.6,0.9-2.7c0-2.4-1.9-4.3-4.3-4.3c-2.4,0-4.3,1.9-4.3,4.3c0,2.4,1.9,4.3,4.3,4.3
			c1,0,1.9-0.4,2.7-0.9l3.2,3.2c0.1,0.1,0.2,0.1,0.4,0.1c0.1,0,0.3,0,0.4-0.1C24,23.6,24,23.3,23.9,23.1z M14,17.3
			c0-1.8,1.5-3.3,3.3-3.3c1.8,0,3.3,1.5,3.3,3.3c0,1.8-1.5,3.3-3.3,3.3C15.5,20.6,14,19.1,14,17.3z"/>
		<path d="M4.5,2C4.2,2,4,2.2,4,2.5C4,2.8,4.2,3,4.5,3h16C20.8,3,21,2.8,21,2.5C21,2.2,20.8,2,20.5,2H4.5z"/>
		<g>
			<path d="M21.9,19.8L21.9,19.8l0.1-0.1C22,19.7,22,19.7,21.9,19.8z"/>
			<path d="M19.8,21.9c-0.8,0.4-1.6,0.7-2.5,0.7c-2.9,0-5.3-2.4-5.3-5.3c0-2.9,2.4-5.3,5.3-5.3c2.1,0,3.8,1.2,4.7,2.9V4.5
				C22,4.2,21.8,4,21.5,4h-17C3.7,4,3,3.3,3,2.5C3,1.7,3.7,1,4.5,1h17C21.8,1,22,0.8,22,0.5C22,0.2,21.8,0,21.5,0h-17
				C3.1,0,2,1.1,2,2.5v19C2,22.9,3.1,24,4.5,24h17c0.1,0,0.2,0,0.3-0.1L19.8,21.9z"/>
		</g>
	</g>
</g>
<g id="Outline_Icons">
	<g>
		<path class="st2" d="M13.1,23.5H4.5c-1.1,0-2-0.9-2-2v-19"/>
		<path class="st2" d="M21.5,0.5h-17c-1.1,0-2,0.9-2,2c0,1.1,0.9,2,2,2h17V12"/>
		<line class="st2" x1="4.5" y1="2.5" x2="20.5" y2="2.5"/>
		<path class="st3" d="M21.1,17.3c0,2.1-1.7,3.8-3.8,3.8s-3.8-1.7-3.8-3.8c0-2.1,1.7-3.8,3.8-3.8S21.1,15.2,21.1,17.3z"/>
		<line class="st2" x1="20" y1="19.9" x2="23.5" y2="23.4"/>
	</g>
</g>
</svg>
