<?xml version="1.0" encoding="utf-8"?>
<!-- Generator: Adobe Illustrator 19.2.0, SVG Export Plug-In . SVG Version: 6.00 Build 0)  -->
<svg version="1.1" id="Layer_1" xmlns="http://www.w3.org/2000/svg" xmlns:xlink="http://www.w3.org/1999/xlink" x="0px" y="0px"
	 viewBox="0 0 24 24" style="enable-background:new 0 0 24 24;" xml:space="preserve">
<style type="text/css">
	.st0{display:none;}
	.st1{display:inline;}
	.st2{fill:none;stroke:#000000;stroke-linecap:round;stroke-linejoin:round;stroke-miterlimit:10;}
</style>
<g id="Filled_Icons" class="st0">
	<g class="st1">
		<path d="M19.5,4c0,0,0,0-13,1.5C5.7,5.5,5,4.8,5,4c0-1.1,0-1.2,4.6-1.8C11.4,2,14,1.6,17.6,1c0.3,0,0.5-0.3,0.4-0.6
			c0-0.3-0.3-0.5-0.6-0.4c-3.5,0.6-6.1,1-8,1.2C5,1.8,4,2,4,4v16.5C4,23.3,6.3,24,7.5,24c0,0,0,0,0.1,0l12-1.5
			c0.2,0,0.4-0.2,0.4-0.5V4.5C20,4.2,19.8,4,19.5,4z"/>
		<path d="M6.5,4.1c0,0.3,0.2,0.4,0.5,0.4c0,0,0,0,0.1,0L18.6,3C18.8,3,19,2.7,19,2.4C19,2.2,18.7,2,18.4,2L6.9,3.5
			C6.7,3.5,6.5,3.8,6.5,4.1z"/>
	</g>
</g>
<g id="Outline_Icons">
	<g>
		<g>
			<path class="st2" d="M4.5,8v12.5c0,3,3,3,3,3l12-1.5V4.5L6.5,6c-1.1,0-2-0.9-2-2c0-2.3,1.4-1.5,13-3.5"/>
		</g>
		<line class="st2" x1="7" y1="4" x2="18.5" y2="2.5"/>
	</g>
</g>
</svg>
