<?xml version="1.0" encoding="utf-8"?>
<!-- Generator: Adobe Illustrator 19.2.0, SVG Export Plug-In . SVG Version: 6.00 Build 0)  -->
<svg version="1.1" id="Layer_1" xmlns="http://www.w3.org/2000/svg" xmlns:xlink="http://www.w3.org/1999/xlink" x="0px" y="0px"
	 viewBox="0 0 24 24" style="enable-background:new 0 0 24 24;" xml:space="preserve">
<style type="text/css">
	.st0{display:none;}
	.st1{display:inline;}
	.st2{fill:none;stroke:#000000;stroke-linecap:round;stroke-linejoin:round;stroke-miterlimit:10;}
</style>
<g id="Filled_Icons" class="st0">
	<g class="st1">
		<path d="M4.5,2C4.2,2,4,2.2,4,2.5C4,2.8,4.2,3,4.5,3h16C20.8,3,21,2.8,21,2.5C21,2.2,20.8,2,20.5,2H4.5z"/>
		<g>
			<path d="M9.5,17c0.1,0,0.1,0,0.2,0l5.5-2.5c0.2-0.1,0.3-0.3,0.3-0.5c0-0.2-0.1-0.4-0.3-0.5L9.7,11c-0.2-0.1-0.3-0.1-0.5,0
				C9.1,11.2,9,11.3,9,11.5v5c0,0.2,0.1,0.3,0.2,0.4C9.3,17,9.4,17,9.5,17z"/>
			<path d="M21.5,4h-17C3.7,4,3,3.3,3,2.5C3,1.7,3.7,1,4.5,1h17C21.8,1,22,0.8,22,0.5C22,0.2,21.8,0,21.5,0h-17C3.1,0,2,1.1,2,2.5
				v19C2,22.9,3.1,24,4.5,24h17c0.3,0,0.5-0.2,0.5-0.5v-19C22,4.2,21.8,4,21.5,4z M19,20.5c0,0.3-0.2,0.5-0.5,0.5h-13
				C5.2,21,5,20.8,5,20.5V19h14V20.5z M19,18H5v-8h14V18z M19,9H5V7.5C5,7.2,5.2,7,5.5,7h13C18.8,7,19,7.2,19,7.5V9z"/>
		</g>
	</g>
</g>
<g id="Outline_Icons">
	<g>
		<g>
			<path class="st2" d="M21.5,0.5h-17c-1.1,0-2,0.9-2,2s0.9,2,2,2h17v19h-17c-1.1,0-2-0.9-2-2v-19"/>
			<line class="st2" x1="4.5" y1="2.5" x2="20.5" y2="2.5"/>
		</g>
		<polygon class="st2" points="9.5,16.5 9.5,11.5 15,14 		"/>
		<rect x="5.5" y="7.5" class="st2" width="13" height="13"/>
		<line class="st2" x1="5.5" y1="9.5" x2="18.5" y2="9.5"/>
		<line class="st2" x1="5.5" y1="18.5" x2="18.5" y2="18.5"/>
	</g>
</g>
</svg>
