<?xml version="1.0" encoding="utf-8"?>
<!-- Generator: Adobe Illustrator 19.2.0, SVG Export Plug-In . SVG Version: 6.00 Build 0)  -->
<svg version="1.1" id="Layer_1" xmlns="http://www.w3.org/2000/svg" xmlns:xlink="http://www.w3.org/1999/xlink" x="0px" y="0px"
	 viewBox="0 0 24 24" style="enable-background:new 0 0 24 24;" xml:space="preserve">
<style type="text/css">
	.st0{display:none;}
	.st1{display:inline;}
	.st2{fill:none;stroke:#000000;stroke-linecap:round;stroke-linejoin:round;stroke-miterlimit:10;}
</style>
<g id="Filled_Icons" class="st0">
	<g class="st1">
		<g>
			<circle cx="16.5" cy="16.5" r="1"/>
			<path d="M16.5,9C12.4,9,9,12.4,9,16.5c0,4.1,3.4,7.5,7.5,7.5c4.1,0,7.5-3.4,7.5-7.5C24,12.4,20.6,9,16.5,9z M16.5,19
				c-1.4,0-2.5-1.1-2.5-2.5c0-1.4,1.1-2.5,2.5-2.5c1.4,0,2.5,1.1,2.5,2.5C19,17.9,17.9,19,16.5,19z"/>
		</g>
		<path d="M4.5,2C4.2,2,4,2.2,4,2.5C4,2.8,4.2,3,4.5,3h16C20.8,3,21,2.8,21,2.5C21,2.2,20.8,2,20.5,2H4.5z"/>
		<g>
			<path d="M8,16.5C8,11.8,11.8,8,16.5,8c2.1,0,4,0.8,5.5,2V4.5C22,4.2,21.8,4,21.5,4h-17C3.7,4,3,3.3,3,2.5C3,1.7,3.7,1,4.5,1h17
				C21.8,1,22,0.8,22,0.5C22,0.2,21.8,0,21.5,0h-17C3.1,0,2,1.1,2,2.5v19C2,22.9,3.1,24,4.5,24h8C9.8,22.6,8,19.7,8,16.5z"/>
		</g>
	</g>
</g>
<g id="Outline_Icons">
	<g>
		<path class="st2" d="M9,23.5H4.5c-1.1,0-2-0.9-2-2v-19"/>
		<path class="st2" d="M21.5,0.5h-17c-1.1,0-2,0.9-2,2s0.9,2,2,2h17V8"/>
		<line class="st2" x1="4.5" y1="2.5" x2="20.5" y2="2.5"/>
		<circle class="st2" cx="16.5" cy="16.5" r="7"/>
		<circle class="st2" cx="16.5" cy="16.5" r="2"/>
		<g>
			<g>
				<path d="M16.5,16c-0.3,0-0.5,0.2-0.5,0.5c0,0.3,0.2,0.5,0.5,0.5c0.3,0,0.5-0.2,0.5-0.5C17,16.2,16.8,16,16.5,16L16.5,16z"/>
			</g>
		</g>
	</g>
</g>
</svg>
