<?xml version="1.0" encoding="utf-8"?>
<!-- Generator: Adobe Illustrator 19.2.0, SVG Export Plug-In . SVG Version: 6.00 Build 0)  -->
<svg version="1.1" id="Layer_1" xmlns="http://www.w3.org/2000/svg" xmlns:xlink="http://www.w3.org/1999/xlink" x="0px" y="0px"
	 viewBox="0 0 24 24" style="enable-background:new 0 0 24 24;" xml:space="preserve">
<style type="text/css">
	.st0{display:none;}
	.st1{display:inline;}
	.st2{fill:none;stroke:#000000;stroke-linecap:round;stroke-linejoin:round;stroke-miterlimit:10;}
</style>
<g id="Filled_Icons" class="st0">
	<g class="st1">
		<g>
			<path d="M20.5,3h-16C4.2,3,4,2.8,4,2.5C4,2.2,4.2,2,4.5,2h16C20.8,2,21,2.2,21,2.5C21,2.8,20.8,3,20.5,3z"/>
		</g>
		<g>
			<path d="M3.5,8h-2C1.2,8,1,7.8,1,7.5C1,7.2,1.2,7,1.5,7h2C3.8,7,4,7.2,4,7.5C4,7.8,3.8,8,3.5,8z"/>
		</g>
		<g>
			<path d="M3.5,11h-2C1.2,11,1,10.8,1,10.5C1,10.2,1.2,10,1.5,10h2C3.8,10,4,10.2,4,10.5C4,10.8,3.8,11,3.5,11z"/>
		</g>
		<g>
			<path d="M3.5,14h-2C1.2,14,1,13.8,1,13.5C1,13.2,1.2,13,1.5,13h2C3.8,13,4,13.2,4,13.5C4,13.8,3.8,14,3.5,14z"/>
		</g>
		<g>
			<path d="M3.5,17h-2C1.2,17,1,16.8,1,16.5C1,16.2,1.2,16,1.5,16h2C3.8,16,4,16.2,4,16.5C4,16.8,3.8,17,3.5,17z"/>
		</g>
		<g>
			<path d="M3.5,20h-2C1.2,20,1,19.8,1,19.5C1,19.2,1.2,19,1.5,19h2C3.8,19,4,19.2,4,19.5C4,19.8,3.8,20,3.5,20z"/>
		</g>
		<g>
			<path d="M3,2.5C3,1.7,3.7,1,4.5,1h17C21.8,1,22,0.8,22,0.5C22,0.2,21.8,0,21.5,0h-17C3.1,0,2,1.1,2,2.5v4h1.5c0.6,0,1,0.4,1,1
				c0,0.6-0.4,1-1,1H2v1h1.5c0.6,0,1,0.4,1,1c0,0.6-0.4,1-1,1H2v1h1.5c0.6,0,1,0.4,1,1c0,0.6-0.4,1-1,1H2v1h1.5c0.6,0,1,0.4,1,1
				c0,0.6-0.4,1-1,1H2v1h1.5c0.6,0,1,0.4,1,1c0,0.6-0.4,1-1,1H2v1C2,22.9,3.1,24,4.5,24H22V4H4.5C3.7,4,3,3.3,3,2.5z M12.5,7
				c2.4,0,4.3,1.9,4.3,4.3c0,2.2-3.5,7.6-3.9,8.2c-0.1,0.1-0.2,0.2-0.4,0.2s-0.3-0.1-0.4-0.2c-0.4-0.6-3.9-6-3.9-8.2
				C8.2,8.9,10.1,7,12.5,7z"/>
			<circle cx="12.5" cy="11.3" r="2"/>
		</g>
	</g>
</g>
<g id="Outline_Icons">
	<g>
		<g>
			<g>
				<path class="st2" d="M21.5,0.5h-17c-1.1,0-2,0.9-2,2s0.9,2,2,2h17v19h-17c-1.1,0-2-0.9-2-2v-19"/>
				<line class="st2" x1="4.5" y1="2.5" x2="20.5" y2="2.5"/>
			</g>
			<line class="st2" x1="1.5" y1="7.5" x2="3.5" y2="7.5"/>
			<line class="st2" x1="1.5" y1="10.5" x2="3.5" y2="10.5"/>
			<line class="st2" x1="1.5" y1="13.5" x2="3.5" y2="13.5"/>
			<line class="st2" x1="1.5" y1="16.5" x2="3.5" y2="16.5"/>
			<line class="st2" x1="1.5" y1="19.5" x2="3.5" y2="19.5"/>
		</g>
		<g>
			<path class="st2" d="M16.3,11.3c0,2.1-3.8,7.9-3.8,7.9s-3.8-5.8-3.8-7.9c0-2.1,1.7-3.8,3.8-3.8C14.6,7.5,16.3,9.2,16.3,11.3z"/>
			<circle class="st2" cx="12.5" cy="11.3" r="1.5"/>
		</g>
	</g>
</g>
</svg>
