<?xml version="1.0" encoding="utf-8"?>
<!-- Generator: Adobe Illustrator 19.2.0, SVG Export Plug-In . SVG Version: 6.00 Build 0)  -->
<svg version="1.1" id="Layer_1" xmlns="http://www.w3.org/2000/svg" xmlns:xlink="http://www.w3.org/1999/xlink" x="0px" y="0px"
	 viewBox="0 0 24 24" style="enable-background:new 0 0 24 24;" xml:space="preserve">
<style type="text/css">
	.st0{display:none;}
	.st1{display:inline;}
	.st2{fill:none;stroke:#000000;stroke-linecap:round;stroke-linejoin:round;stroke-miterlimit:10;}
</style>
<g id="Filled_Icons" class="st0">
	<g class="st1">
		<path d="M1.2,1.6C1.1,1.7,1,1.8,1,2v15.5c0,0.2,0.1,0.4,0.3,0.4l9.7,4.9V6.2L1.7,1.6C1.6,1.5,1.4,1.5,1.2,1.6z"/>
		<path d="M21.8,1.6c-0.1-0.1-0.3-0.1-0.5,0L12,6.2v16.6l9.7-4.9c0.2-0.1,0.3-0.3,0.3-0.4V2C22,1.8,21.9,1.7,21.8,1.6z"/>
		<path d="M19.9,0.2C19.8,0,19.5-0.1,19.3,0L11.5,4L3.7,0C3.5-0.1,3.2,0,3.1,0.2C2.9,0.5,3,0.8,3.3,0.9l8,4C11.3,5,11.4,5,11.5,5
			c0.1,0,0.2,0,0.2-0.1l8-4C20,0.8,20.1,0.5,19.9,0.2z"/>
	</g>
</g>
<g id="Outline_Icons">
	<g>
		<polygon class="st2" points="11.5,7 21.5,2 21.5,17.5 11.5,22.5 1.5,17.5 1.5,2 		"/>
		<polyline class="st2" points="19.5,0.5 11.5,4.5 3.5,0.5 		"/>
		<line class="st2" x1="11.5" y1="7" x2="11.5" y2="22.5"/>
	</g>
</g>
</svg>
