<?xml version="1.0" encoding="utf-8"?>
<!-- Generator: Adobe Illustrator 19.2.0, SVG Export Plug-In . SVG Version: 6.00 Build 0)  -->
<svg version="1.1" id="Layer_1" xmlns="http://www.w3.org/2000/svg" xmlns:xlink="http://www.w3.org/1999/xlink" x="0px" y="0px"
	 viewBox="0 0 24 24" style="enable-background:new 0 0 24 24;" xml:space="preserve">
<style type="text/css">
	.st0{display:none;}
	.st1{display:inline;}
	.st2{fill:none;stroke:#000000;stroke-linecap:round;stroke-linejoin:round;stroke-miterlimit:10;}
	.st3{fill:none;stroke:#000000;stroke-linejoin:round;stroke-miterlimit:10;}
</style>
<g id="Filled_Icons" class="st0">
	<g class="st1">
		<path d="M0,1.5V18c0,0.3,0.2,0.5,0.5,0.5c5.9,0,10.5,1.6,10.5,3V3.3C9.1,1.8,4.7,1,0.5,1C0.2,1,0,1.2,0,1.5z M2.5,5.5
			c2.6,0.2,5,0.6,6.6,1.3c0.3,0.1,0.4,0.4,0.3,0.6C9.4,7.6,9.2,7.7,9,7.7c-0.1,0-0.1,0-0.2,0C7.2,7.1,5,6.7,2.5,6.5
			C2.2,6.5,2,6.2,2,6C2,5.7,2.3,5.5,2.5,5.5z M2.5,8.5c2.6,0.2,5,0.6,6.6,1.3c0.3,0.1,0.4,0.4,0.3,0.6c-0.1,0.2-0.3,0.3-0.5,0.3
			c-0.1,0-0.1,0-0.2,0c-1.6-0.6-3.9-1-6.4-1.2C2.2,9.5,2,9.2,2,9C2,8.7,2.3,8.5,2.5,8.5z M2.5,11.5c2.6,0.2,5,0.6,6.6,1.3
			c0.3,0.1,0.4,0.4,0.3,0.6c-0.1,0.2-0.3,0.3-0.5,0.3c-0.1,0-0.1,0-0.2,0c-1.6-0.6-3.9-1-6.4-1.2C2.2,12.5,2,12.2,2,12
			C2,11.7,2.3,11.5,2.5,11.5z M2.5,14.5c2.6,0.2,5,0.6,6.6,1.3c0.3,0.1,0.4,0.4,0.3,0.6c-0.1,0.2-0.3,0.3-0.5,0.3
			c-0.1,0-0.1,0-0.2,0c-1.6-0.6-3.9-1-6.4-1.2C2.2,15.5,2,15.2,2,15C2,14.7,2.3,14.5,2.5,14.5z"/>
		<path d="M22.5,1C19.3,1,14.3,1.6,12,3.3v18.2c0-1.4,4.6-3,10.5-3c0.3,0,0.5-0.2,0.5-0.5V1.5C23,1.2,22.8,1,22.5,1z M17,2.5
			c0.7-0.1,2.1-0.3,3-0.4V9l-1.1-1.3c-0.1-0.1-0.2-0.2-0.4-0.2c0,0,0,0,0,0c-0.1,0-0.3,0.1-0.4,0.1L17,8.8V2.5z M20.5,15.5
			c-2.5,0.2-4.8,0.6-6.4,1.2c-0.1,0-0.1,0-0.2,0c-0.2,0-0.4-0.1-0.5-0.3c-0.1-0.3,0-0.5,0.3-0.6c1.7-0.6,4-1.1,6.6-1.3
			c0.3,0,0.5,0.2,0.5,0.5C21,15.2,20.8,15.5,20.5,15.5z M20.5,12.5c-2.5,0.2-4.8,0.6-6.4,1.2c-0.1,0-0.1,0-0.2,0
			c-0.2,0-0.4-0.1-0.5-0.3c-0.1-0.3,0-0.5,0.3-0.6c1.7-0.6,4-1.1,6.6-1.3c0.3,0,0.5,0.2,0.5,0.5C21,12.2,20.8,12.5,20.5,12.5z"/>
	</g>
</g>
<g id="Outline_Icons">
	<g>
		<path class="st2" d="M11.5,5c0-1.9,5.1-3.5,11-3.5V18c-5.9,0-11,1.6-11,3.5c0-1.9-5.1-3.5-11-3.5V1.5C6.4,1.5,11.5,3.1,11.5,5z"/>
		<line class="st2" x1="11.5" y1="5" x2="11.5" y2="21.4"/>
		<path class="st2" d="M9,7.2C7.4,6.6,5.1,6.2,2.5,6"/>
		<path class="st2" d="M9,10.2C7.4,9.6,5.1,9.2,2.5,9"/>
		<path class="st2" d="M9,13.2c-1.6-0.6-3.9-1.1-6.5-1.2"/>
		<path class="st2" d="M9,16.2c-1.6-0.6-3.9-1.1-6.5-1.2"/>
		<path class="st2" d="M14,13.2c1.6-0.6,3.9-1.1,6.5-1.2"/>
		<path class="st2" d="M14,16.2c1.6-0.6,3.9-1.1,6.5-1.2"/>
		<polyline class="st3" points="20.5,1.5 20.5,10 18.5,8 16.5,10 16.5,2 		"/>
	</g>
</g>
</svg>
