<?xml version="1.0" encoding="utf-8"?>
<!-- Generator: Adobe Illustrator 19.2.0, SVG Export Plug-In . SVG Version: 6.00 Build 0)  -->
<svg version="1.1" id="Layer_1" xmlns="http://www.w3.org/2000/svg" xmlns:xlink="http://www.w3.org/1999/xlink" x="0px" y="0px"
	 viewBox="0 0 24 24" style="enable-background:new 0 0 24 24;" xml:space="preserve">
<style type="text/css">
	.st0{display:none;}
	.st1{display:inline;}
	.st2{fill:none;stroke:#000000;stroke-linecap:round;stroke-linejoin:round;stroke-miterlimit:10;}
</style>
<g id="Filled_Icons" class="st0">
	<g class="st1">
		<path d="M8,0H5.5C5.2,0,5,0.2,5,0.5v23c0,0.2,0.1,0.4,0.3,0.5c0.2,0.1,0.4,0,0.5-0.1L8,21.7c0-0.1,0-0.1,0-0.2L8,0L8,0z"/>
		<path d="M16,21.5c0,0.1,0,0.1,0,0.2l2.2,2.2c0.1,0.1,0.2,0.1,0.4,0.1c0.1,0,0.1,0,0.2,0c0.2-0.1,0.3-0.3,0.3-0.5v-23
			C19,0.2,18.7,0,18.5,0H16L16,21.5L16,21.5z"/>
		<polygon points="15,0 9,0 9,20.7 12,17.7 15,20.7 		"/>
	</g>
</g>
<g id="Outline_Icons">
	<g>
		<polygon class="st2" points="18.5,23.5 12,17 5.5,23.5 5.5,0.5 18.5,0.5 		"/>
		<line class="st2" x1="8.5" y1="0.5" x2="8.5" y2="20.5"/>
		<line class="st2" x1="15.5" y1="0.5" x2="15.5" y2="20.5"/>
	</g>
</g>
</svg>
