<?xml version="1.0" encoding="utf-8"?>
<!-- Generator: Adobe Illustrator 19.2.0, SVG Export Plug-In . SVG Version: 6.00 Build 0)  -->
<svg version="1.1" id="Layer_1" xmlns="http://www.w3.org/2000/svg" xmlns:xlink="http://www.w3.org/1999/xlink" x="0px" y="0px"
	 viewBox="0 0 24 24" enable-background="new 0 0 24 24" xml:space="preserve">
<g id="Filled_Icons" display="none">
	<g display="inline">
		<path d="M10.025,7.006H7v0.5c0,0.51,0.045,1.008,0.109,1.5h3.235C10.169,8.363,10.062,7.694,10.025,7.006z"/>
		<rect x="7" y="4.006" width="3" height="2"/>
		<path d="M18,18.981c0.167,0.008,0.331,0.024,0.5,0.024H23v0.001h0.857c-0.446-1.721-1.998-3.001-3.857-3.001h-0.5
			c-0.512,0-1.01-0.052-1.5-0.13V18.981z"/>
		<path d="M11.769,12.006c-0.44-0.616-0.808-1.286-1.092-2H7.282c0.153,0.691,0.364,1.361,0.637,2H11.769z"/>
		<path d="M0,20.007v1.499c0,1.379,1.121,2.5,2.5,2.5H20c2.206,0,4-1.794,4-3.999H0z"/>
		<path d="M13.605,19.007c-2.755-1.178-4.995-3.323-6.313-6.001H5c-0.276,0-0.5-0.225-0.5-0.5c0-0.276,0.224-0.5,0.5-0.5h1.852
			c-0.25-0.645-0.459-1.309-0.6-2H4c-0.276,0-0.5-0.224-0.5-0.5c0-0.276,0.224-0.5,0.5-0.5h2.099C6.039,8.514,6,8.015,6,7.506v-0.5
			H4c-0.276,0-0.5-0.224-0.5-0.5c0-0.276,0.224-0.5,0.5-0.5h2v-2H4c-0.276,0-0.5-0.224-0.5-0.5c0-0.276,0.224-0.5,0.5-0.5h2v-3H0.5
			c-0.276,0-0.5,0.224-0.5,0.5v18.501H13.605z"/>
		<path d="M7,3.006h3v-2.5c0-0.276-0.224-0.5-0.5-0.5H7V3.006z"/>
		<path d="M17,18.897v-3.235c-1.711-0.468-3.227-1.399-4.409-2.655H8.404C10.129,16.159,13.29,18.41,17,18.897z"/>
	</g>
</g>
<g id="Outline_Icons">
	<g>
		<path fill="none" stroke="#000000" stroke-linejoin="round" stroke-miterlimit="10" d="M19.5,16.5c-5.523,0-10-4.478-10-10v-6h-9
			v21c0,1.104,0.896,2,2,2H20c1.934,0,3.5-1.566,3.5-3.5c0-1.934-1.566-3.5-3.5-3.5H19.5z"/>
		<path fill="none" stroke="#000000" stroke-linejoin="round" stroke-miterlimit="10" d="M6.5,0.5v7c0,6.628,5.373,12,12,12H23"/>
		<line fill="none" stroke="#000000" stroke-linejoin="round" stroke-miterlimit="10" x1="17.5" y1="16.3" x2="17.5" y2="19.458"/>
		<line fill="none" stroke="#000000" stroke-linejoin="round" stroke-miterlimit="10" x1="0.5" y1="19.5" x2="23.464" y2="19.5"/>
		
			<line fill="none" stroke="#000000" stroke-linecap="round" stroke-linejoin="round" stroke-miterlimit="10" x1="9.5" y1="3.5" x2="4" y2="3.5"/>
		
			<line fill="none" stroke="#000000" stroke-linecap="round" stroke-linejoin="round" stroke-miterlimit="10" x1="9.5" y1="6.5" x2="4" y2="6.5"/>
		
			<line fill="none" stroke="#000000" stroke-linecap="round" stroke-linejoin="round" stroke-miterlimit="10" x1="9.958" y1="9.5" x2="4" y2="9.5"/>
		
			<line fill="none" stroke="#000000" stroke-linecap="round" stroke-linejoin="round" stroke-miterlimit="10" x1="11.499" y1="12.5" x2="5" y2="12.5"/>
	</g>
</g>
</svg>
