<?xml version="1.0" encoding="utf-8"?>
<!-- Generator: Adobe Illustrator 19.2.0, SVG Export Plug-In . SVG Version: 6.00 Build 0)  -->
<svg version="1.1" id="Layer_1" xmlns="http://www.w3.org/2000/svg" xmlns:xlink="http://www.w3.org/1999/xlink" x="0px" y="0px"
	 viewBox="0 0 24 24" enable-background="new 0 0 24 24" xml:space="preserve">
<g id="Filled_Icons" display="none">
	<g display="inline">
		<path d="M23.618,4.521l-9.25-2.25c-0.257-0.061-0.515,0.083-0.595,0.333c-4.145,12.914-0.703,2.19-3.258,10.151
			c-0.308,0.806-0.905,1.447-1.642,1.839l0,0c-1.052,0.557-1.933,0.412-4.374,0.412c-2.481,0-4.5,2.02-4.5,4.5
			c0,0.528,0.108,1.028,0.276,1.5H24v-16C24,4.775,23.842,4.575,23.618,4.521z M17.867,15.005c-0.133,0.517-0.458,0.952-0.92,1.226
			c-0.311,0.184-0.659,0.278-1.014,0.278c-0.166,0-0.334-0.021-0.5-0.064l-5.315-1.5c0.584-0.487,1.057-1.115,1.34-1.858
			l0.529-1.649l4.439,1.136c0.518,0.132,0.952,0.457,1.225,0.916C17.923,13.947,18,14.486,17.867,15.005z M19.93,8.762
			c-0.186,0.956-1.025,1.622-1.966,1.622c-0.124,0-0.251-0.011-0.378-0.036l-4.939-0.964l1.226-3.814l4.47,0.851
			c0.525,0.102,0.979,0.4,1.279,0.843C19.92,7.704,20.029,8.237,19.93,8.762z"/>
		<path d="M4.5,24.006h17c1.208,0,2.217-0.859,2.449-2H0.762C1.57,23.211,2.943,24.006,4.5,24.006z"/>
	</g>
</g>
<g id="Outline_Icons">
	<g>
		<path fill="none" stroke="#000000" stroke-linejoin="round" stroke-miterlimit="10" d="M23.5,5v16.5c0,1.104-0.897,2-2,2h-17
			c-2.209,0-4-1.791-4-4s1.791-4,4-4h2.746c1.658,0,3.145-1.023,3.736-2.572L14.25,2.75L23.5,5z"/>
		<path fill="none" stroke="#000000" stroke-linejoin="round" stroke-miterlimit="10" d="M12.279,8.812l5.401,1.039
			c0.813,0.156,1.6-0.376,1.758-1.189c0.155-0.813-0.377-1.6-1.19-1.756l-5.021-0.967"/>
		<path fill="none" stroke="#000000" stroke-linejoin="round" stroke-miterlimit="10" d="M10.038,14.398l5.52,1.557
			c0.803,0.206,1.619-0.277,1.824-1.081c0.206-0.804-0.277-1.619-1.08-1.824l-4.953-1.269"/>
		<line fill="none" stroke="#000000" stroke-linejoin="round" stroke-miterlimit="10" x1="1" y1="21.5" x2="23.5" y2="21.5"/>
	</g>
</g>
</svg>
