<?xml version="1.0" encoding="utf-8"?>
<!-- Generator: Adobe Illustrator 19.2.0, SVG Export Plug-In . SVG Version: 6.00 Build 0)  -->
<svg version="1.1" id="Layer_1" xmlns="http://www.w3.org/2000/svg" xmlns:xlink="http://www.w3.org/1999/xlink" x="0px" y="0px"
	 viewBox="0 0 24 24" enable-background="new 0 0 24 24" xml:space="preserve">
<g id="Filled_Icons" display="none">
	<g display="inline">
		<path d="M15.391,21.006c0.525-0.521,1.104-0.887,1.609-1.035v1.035h5v-18.5c0-1.371-1.88-2.066-4-2.32v6.82c0,1.103-0.897,2-2,2
			c-1.104,0-2-0.897-2-2V0.187c-2.119,0.256-3.999,0.963-3.996,2.381l1.343,10.708c0.06,0.477-0.114,0.957-0.463,1.283
			c-0.739,0.691-1.747,1.002-2.913,1.362c-2.133,0.657-4.786,1.476-7.347,5.019c-0.015,0.019-0.012,0.045-0.022,0.066H15.391z"/>
		<path d="M17,22.006v1.5c0,0.275,0.225,0.5,0.5,0.5h4c0.275,0,0.5-0.225,0.5-0.5v-1.5H17z"/>
		<path d="M0.512,22.006L0.5,22.494c-0.004,0.172,0.08,0.333,0.223,0.428l1.5,1c0.082,0.055,0.179,0.084,0.277,0.084h10.958
			c0.235,0,0.438-0.164,0.487-0.395c0.131-0.6,0.369-1.133,0.658-1.605H0.512z"/>
	</g>
</g>
<g id="Outline_Icons">
	<g>
		<path fill="none" stroke="#000000" stroke-linejoin="round" stroke-miterlimit="10" d="M10.5,2.5c0-2.583,11-2.583,11,0v21h-4
			v-4.116c-1.375,0-3.5,1.616-4.042,4.116H2.5l-1.5-1l0.029-1.273c3.892-5.383,7.952-4.209,10.196-6.31
			c0.468-0.438,0.696-1.073,0.617-1.709L10.5,2.5z"/>
		<path fill="none" stroke="#000000" stroke-linejoin="round" stroke-miterlimit="10" d="M17.5,0.628V7c0,0.828-0.672,1.5-1.5,1.5
			c-0.828,0-1.5-0.672-1.5-1.5V0.628"/>
		<line fill="none" stroke="#000000" stroke-linejoin="round" stroke-miterlimit="10" x1="1.021" y1="21.5" x2="14.316" y2="21.5"/>
		<line fill="none" stroke="#000000" stroke-linejoin="round" stroke-miterlimit="10" x1="17.5" y1="21.5" x2="21.5" y2="21.5"/>
	</g>
</g>
</svg>
