<?xml version="1.0" encoding="utf-8"?>
<!-- Generator: Adobe Illustrator 19.2.0, SVG Export Plug-In . SVG Version: 6.00 Build 0)  -->
<svg version="1.1" id="Layer_1" xmlns="http://www.w3.org/2000/svg" xmlns:xlink="http://www.w3.org/1999/xlink" x="0px" y="0px"
	 viewBox="0 0 24 24" style="enable-background:new 0 0 24 24;" xml:space="preserve">
<style type="text/css">
	.st0{display:none;}
	.st1{display:inline;}
</style>
<g id="Filled_Icon" class="st0">
	<g class="st1">
		<circle cx="1" cy="1" r="1"/>
		<circle cx="1" cy="4.1" r="1"/>
		<circle cx="1" cy="7.3" r="1"/>
		<circle cx="1" cy="10.4" r="1"/>
		<circle cx="1" cy="13.6" r="1"/>
		<circle cx="1" cy="16.7" r="1"/>
		<circle cx="1" cy="19.9" r="1"/>
		<circle cx="23" cy="4.1" r="1"/>
		<circle cx="23" cy="7.3" r="1"/>
		<circle cx="23" cy="10.4" r="1"/>
		<circle cx="23" cy="13.6" r="1"/>
		<circle cx="23" cy="16.7" r="1"/>
		<circle cx="23" cy="19.9" r="1"/>
		<circle cx="12" cy="3.7" r="1"/>
		<circle cx="12" cy="6.9" r="1"/>
		<circle cx="12" cy="10" r="1"/>
		<circle cx="12" cy="14" r="1"/>
		<circle cx="12" cy="17.1" r="1"/>
		<circle cx="12" cy="20.3" r="1"/>
		<circle cx="1" cy="23" r="1"/>
		<circle cx="4.1" cy="1" r="1"/>
		<circle cx="7.3" cy="1" r="1"/>
		<circle cx="10.4" cy="1" r="1"/>
		<circle cx="13.6" cy="1" r="1"/>
		<circle cx="16.7" cy="1" r="1"/>
		<circle cx="19.9" cy="1" r="1"/>
		<circle cx="23" cy="1" r="1"/>
		<circle cx="4.1" cy="23" r="1"/>
		<circle cx="7.3" cy="23" r="1"/>
		<circle cx="10.4" cy="23" r="1"/>
		<circle cx="13.6" cy="23" r="1"/>
		<circle cx="16.7" cy="23" r="1"/>
		<circle cx="19.9" cy="23" r="1"/>
		<circle cx="3.7" cy="12" r="1"/>
		<circle cx="6.9" cy="12" r="1"/>
		<circle cx="10" cy="12" r="1"/>
		<circle cx="14" cy="12" r="1"/>
		<circle cx="17.1" cy="12" r="1"/>
		<circle cx="20.3" cy="12" r="1"/>
		<circle cx="23" cy="23" r="1"/>
	</g>
</g>
<g id="Outline_Icons">
	<g>
		<g>
			<g>
				<path d="M0.5,0C0.2,0,0,0.2,0,0.5C0,0.8,0.2,1,0.5,1C0.8,1,1,0.8,1,0.5C1,0.2,0.8,0,0.5,0L0.5,0z"/>
			</g>
		</g>
		<g>
			<g>
				<path d="M2.5,0C2.2,0,2,0.2,2,0.5C2,0.8,2.2,1,2.5,1C2.8,1,3,0.8,3,0.5C3,0.2,2.8,0,2.5,0L2.5,0z"/>
			</g>
		</g>
		<g>
			<g>
				<path d="M4.5,0C4.2,0,4,0.2,4,0.5C4,0.8,4.2,1,4.5,1C4.8,1,5,0.8,5,0.5C5,0.2,4.8,0,4.5,0L4.5,0z"/>
			</g>
		</g>
		<g>
			<g>
				<path d="M6.5,0C6.2,0,6,0.2,6,0.5C6,0.8,6.2,1,6.5,1C6.8,1,7,0.8,7,0.5C7,0.2,6.8,0,6.5,0L6.5,0z"/>
			</g>
		</g>
		<g>
			<g>
				<path d="M8.5,0C8.2,0,8,0.2,8,0.5C8,0.8,8.2,1,8.5,1C8.8,1,9,0.8,9,0.5C9,0.2,8.8,0,8.5,0L8.5,0z"/>
			</g>
		</g>
		<g>
			<g>
				<path d="M10.5,0C10.2,0,10,0.2,10,0.5C10,0.8,10.2,1,10.5,1C10.8,1,11,0.8,11,0.5C11,0.2,10.8,0,10.5,0L10.5,0z"/>
			</g>
		</g>
		<g>
			<g>
				<path d="M12.5,0C12.2,0,12,0.2,12,0.5C12,0.8,12.2,1,12.5,1C12.8,1,13,0.8,13,0.5C13,0.2,12.8,0,12.5,0L12.5,0z"/>
			</g>
		</g>
		<g>
			<g>
				<path d="M2.5,22C2.2,22,2,22.2,2,22.5C2,22.8,2.2,23,2.5,23C2.8,23,3,22.8,3,22.5C3,22.2,2.8,22,2.5,22L2.5,22z"/>
			</g>
		</g>
		<g>
			<g>
				<path d="M4.5,22C4.2,22,4,22.2,4,22.5C4,22.8,4.2,23,4.5,23C4.8,23,5,22.8,5,22.5C5,22.2,4.8,22,4.5,22L4.5,22z"/>
			</g>
		</g>
		<g>
			<g>
				<path d="M6.5,22C6.2,22,6,22.2,6,22.5C6,22.8,6.2,23,6.5,23C6.8,23,7,22.8,7,22.5C7,22.2,6.8,22,6.5,22L6.5,22z"/>
			</g>
		</g>
		<g>
			<g>
				<path d="M8.5,22C8.2,22,8,22.2,8,22.5C8,22.8,8.2,23,8.5,23C8.8,23,9,22.8,9,22.5C9,22.2,8.8,22,8.5,22L8.5,22z"/>
			</g>
		</g>
		<g>
			<g>
				<path d="M10.5,22c-0.3,0-0.5,0.2-0.5,0.5c0,0.3,0.2,0.5,0.5,0.5c0.3,0,0.5-0.2,0.5-0.5C11,22.2,10.8,22,10.5,22L10.5,22z"/>
			</g>
		</g>
		<g>
			<g>
				<path d="M12.5,22c-0.3,0-0.5,0.2-0.5,0.5c0,0.3,0.2,0.5,0.5,0.5c0.3,0,0.5-0.2,0.5-0.5C13,22.2,12.8,22,12.5,22L12.5,22z"/>
			</g>
		</g>
		<g>
			<g>
				<path d="M14.5,22c-0.3,0-0.5,0.2-0.5,0.5c0,0.3,0.2,0.5,0.5,0.5c0.3,0,0.5-0.2,0.5-0.5C15,22.2,14.8,22,14.5,22L14.5,22z"/>
			</g>
		</g>
		<g>
			<g>
				<path d="M16.5,22c-0.3,0-0.5,0.2-0.5,0.5c0,0.3,0.2,0.5,0.5,0.5c0.3,0,0.5-0.2,0.5-0.5C17,22.2,16.8,22,16.5,22L16.5,22z"/>
			</g>
		</g>
		<g>
			<g>
				<path d="M18.5,22c-0.3,0-0.5,0.2-0.5,0.5c0,0.3,0.2,0.5,0.5,0.5c0.3,0,0.5-0.2,0.5-0.5C19,22.2,18.8,22,18.5,22L18.5,22z"/>
			</g>
		</g>
		<g>
			<g>
				<path d="M20.5,22c-0.3,0-0.5,0.2-0.5,0.5c0,0.3,0.2,0.5,0.5,0.5c0.3,0,0.5-0.2,0.5-0.5C21,22.2,20.8,22,20.5,22L20.5,22z"/>
			</g>
		</g>
		<g>
			<g>
				<path d="M14.5,0C14.2,0,14,0.2,14,0.5C14,0.8,14.2,1,14.5,1C14.8,1,15,0.8,15,0.5C15,0.2,14.8,0,14.5,0L14.5,0z"/>
			</g>
		</g>
		<g>
			<g>
				<path d="M16.5,0C16.2,0,16,0.2,16,0.5C16,0.8,16.2,1,16.5,1C16.8,1,17,0.8,17,0.5C17,0.2,16.8,0,16.5,0L16.5,0z"/>
			</g>
		</g>
		<g>
			<g>
				<path d="M18.5,0C18.2,0,18,0.2,18,0.5C18,0.8,18.2,1,18.5,1C18.8,1,19,0.8,19,0.5C19,0.2,18.8,0,18.5,0L18.5,0z"/>
			</g>
		</g>
		<g>
			<g>
				<path d="M20.5,0C20.2,0,20,0.2,20,0.5C20,0.8,20.2,1,20.5,1C20.8,1,21,0.8,21,0.5C21,0.2,20.8,0,20.5,0L20.5,0z"/>
			</g>
		</g>
		<g>
			<g>
				<path d="M2.5,11C2.2,11,2,11.2,2,11.5C2,11.8,2.2,12,2.5,12C2.8,12,3,11.8,3,11.5C3,11.2,2.8,11,2.5,11L2.5,11z"/>
			</g>
		</g>
		<g>
			<g>
				<path d="M4.5,11C4.2,11,4,11.2,4,11.5C4,11.8,4.2,12,4.5,12C4.8,12,5,11.8,5,11.5C5,11.2,4.8,11,4.5,11L4.5,11z"/>
			</g>
		</g>
		<g>
			<g>
				<path d="M6.5,11C6.2,11,6,11.2,6,11.5C6,11.8,6.2,12,6.5,12C6.8,12,7,11.8,7,11.5C7,11.2,6.8,11,6.5,11L6.5,11z"/>
			</g>
		</g>
		<g>
			<g>
				<path d="M8.5,11C8.2,11,8,11.2,8,11.5C8,11.8,8.2,12,8.5,12C8.8,12,9,11.8,9,11.5C9,11.2,8.8,11,8.5,11L8.5,11z"/>
			</g>
		</g>
		<g>
			<g>
				<path d="M10.5,11c-0.3,0-0.5,0.2-0.5,0.5c0,0.3,0.2,0.5,0.5,0.5c0.3,0,0.5-0.2,0.5-0.5C11,11.2,10.8,11,10.5,11L10.5,11z"/>
			</g>
		</g>
		<g>
			<g>
				<path d="M12.5,11c-0.3,0-0.5,0.2-0.5,0.5c0,0.3,0.2,0.5,0.5,0.5c0.3,0,0.5-0.2,0.5-0.5C13,11.2,12.8,11,12.5,11L12.5,11z"/>
			</g>
		</g>
		<g>
			<g>
				<path d="M14.5,11c-0.3,0-0.5,0.2-0.5,0.5c0,0.3,0.2,0.5,0.5,0.5c0.3,0,0.5-0.2,0.5-0.5C15,11.2,14.8,11,14.5,11L14.5,11z"/>
			</g>
		</g>
		<g>
			<g>
				<path d="M16.5,11c-0.3,0-0.5,0.2-0.5,0.5c0,0.3,0.2,0.5,0.5,0.5c0.3,0,0.5-0.2,0.5-0.5C17,11.2,16.8,11,16.5,11L16.5,11z"/>
			</g>
		</g>
		<g>
			<g>
				<path d="M18.5,11c-0.3,0-0.5,0.2-0.5,0.5c0,0.3,0.2,0.5,0.5,0.5c0.3,0,0.5-0.2,0.5-0.5C19,11.2,18.8,11,18.5,11L18.5,11z"/>
			</g>
		</g>
		<g>
			<g>
				<path d="M20.5,11c-0.3,0-0.5,0.2-0.5,0.5c0,0.3,0.2,0.5,0.5,0.5c0.3,0,0.5-0.2,0.5-0.5C21,11.2,20.8,11,20.5,11L20.5,11z"/>
			</g>
		</g>
		<g>
			<g>
				<path d="M11.5,2C11.2,2,11,2.2,11,2.5C11,2.8,11.2,3,11.5,3C11.8,3,12,2.8,12,2.5C12,2.2,11.8,2,11.5,2L11.5,2z"/>
			</g>
		</g>
		<g>
			<g>
				<path d="M11.5,4C11.2,4,11,4.2,11,4.5C11,4.8,11.2,5,11.5,5C11.8,5,12,4.8,12,4.5C12,4.2,11.8,4,11.5,4L11.5,4z"/>
			</g>
		</g>
		<g>
			<g>
				<path d="M11.5,6C11.2,6,11,6.2,11,6.5C11,6.8,11.2,7,11.5,7C11.8,7,12,6.8,12,6.5C12,6.2,11.8,6,11.5,6L11.5,6z"/>
			</g>
		</g>
		<g>
			<g>
				<path d="M11.5,8C11.2,8,11,8.2,11,8.5C11,8.8,11.2,9,11.5,9C11.8,9,12,8.8,12,8.5C12,8.2,11.8,8,11.5,8L11.5,8z"/>
			</g>
		</g>
		<g>
			<g>
				<path d="M11.5,10c-0.3,0-0.5,0.2-0.5,0.5c0,0.3,0.2,0.5,0.5,0.5c0.3,0,0.5-0.2,0.5-0.5C12,10.2,11.8,10,11.5,10L11.5,10z"/>
			</g>
		</g>
		<g>
			<g>
				<path d="M11.5,12c-0.3,0-0.5,0.2-0.5,0.5c0,0.3,0.2,0.5,0.5,0.5c0.3,0,0.5-0.2,0.5-0.5C12,12.2,11.8,12,11.5,12L11.5,12z"/>
			</g>
		</g>
		<g>
			<g>
				<path d="M11.5,14c-0.3,0-0.5,0.2-0.5,0.5c0,0.3,0.2,0.5,0.5,0.5c0.3,0,0.5-0.2,0.5-0.5C12,14.2,11.8,14,11.5,14L11.5,14z"/>
			</g>
		</g>
		<g>
			<g>
				<path d="M11.5,16c-0.3,0-0.5,0.2-0.5,0.5c0,0.3,0.2,0.5,0.5,0.5c0.3,0,0.5-0.2,0.5-0.5C12,16.2,11.8,16,11.5,16L11.5,16z"/>
			</g>
		</g>
		<g>
			<g>
				<path d="M11.5,18c-0.3,0-0.5,0.2-0.5,0.5c0,0.3,0.2,0.5,0.5,0.5c0.3,0,0.5-0.2,0.5-0.5C12,18.2,11.8,18,11.5,18L11.5,18z"/>
			</g>
		</g>
		<g>
			<g>
				<path d="M11.5,20c-0.3,0-0.5,0.2-0.5,0.5c0,0.3,0.2,0.5,0.5,0.5c0.3,0,0.5-0.2,0.5-0.5C12,20.2,11.8,20,11.5,20L11.5,20z"/>
			</g>
		</g>
		<g>
			<g>
				<path d="M0.5,2C0.2,2,0,2.2,0,2.5C0,2.8,0.2,3,0.5,3C0.8,3,1,2.8,1,2.5C1,2.2,0.8,2,0.5,2L0.5,2z"/>
			</g>
		</g>
		<g>
			<g>
				<path d="M0.5,4C0.2,4,0,4.2,0,4.5C0,4.8,0.2,5,0.5,5C0.8,5,1,4.8,1,4.5C1,4.2,0.8,4,0.5,4L0.5,4z"/>
			</g>
		</g>
		<g>
			<g>
				<path d="M22.5,0C22.2,0,22,0.2,22,0.5C22,0.8,22.2,1,22.5,1C22.8,1,23,0.8,23,0.5C23,0.2,22.8,0,22.5,0L22.5,0z"/>
			</g>
		</g>
		<g>
			<g>
				<path d="M22.5,2C22.2,2,22,2.2,22,2.5C22,2.8,22.2,3,22.5,3C22.8,3,23,2.8,23,2.5C23,2.2,22.8,2,22.5,2L22.5,2z"/>
			</g>
		</g>
		<g>
			<g>
				<path d="M22.5,4C22.2,4,22,4.2,22,4.5C22,4.8,22.2,5,22.5,5C22.8,5,23,4.8,23,4.5C23,4.2,22.8,4,22.5,4L22.5,4z"/>
			</g>
		</g>
		<g>
			<g>
				<path d="M0.5,6C0.2,6,0,6.2,0,6.5C0,6.8,0.2,7,0.5,7C0.8,7,1,6.8,1,6.5C1,6.2,0.8,6,0.5,6L0.5,6z"/>
			</g>
		</g>
		<g>
			<g>
				<path d="M22.5,6C22.2,6,22,6.2,22,6.5C22,6.8,22.2,7,22.5,7C22.8,7,23,6.8,23,6.5C23,6.2,22.8,6,22.5,6L22.5,6z"/>
			</g>
		</g>
		<g>
			<g>
				<path d="M0.5,8C0.2,8,0,8.2,0,8.5C0,8.8,0.2,9,0.5,9C0.8,9,1,8.8,1,8.5C1,8.2,0.8,8,0.5,8L0.5,8z"/>
			</g>
		</g>
		<g>
			<g>
				<path d="M22.5,8C22.2,8,22,8.2,22,8.5C22,8.8,22.2,9,22.5,9C22.8,9,23,8.8,23,8.5C23,8.2,22.8,8,22.5,8L22.5,8z"/>
			</g>
		</g>
		<g>
			<g>
				<path d="M0.5,10C0.2,10,0,10.2,0,10.5C0,10.8,0.2,11,0.5,11C0.8,11,1,10.8,1,10.5C1,10.2,0.8,10,0.5,10L0.5,10z"/>
			</g>
		</g>
		<g>
			<g>
				<path d="M22.5,10c-0.3,0-0.5,0.2-0.5,0.5c0,0.3,0.2,0.5,0.5,0.5c0.3,0,0.5-0.2,0.5-0.5C23,10.2,22.8,10,22.5,10L22.5,10z"/>
			</g>
		</g>
		<g>
			<g>
				<path d="M0.5,12C0.2,12,0,12.2,0,12.5C0,12.8,0.2,13,0.5,13C0.8,13,1,12.8,1,12.5C1,12.2,0.8,12,0.5,12L0.5,12z"/>
			</g>
		</g>
		<g>
			<g>
				<path d="M22.5,12c-0.3,0-0.5,0.2-0.5,0.5c0,0.3,0.2,0.5,0.5,0.5c0.3,0,0.5-0.2,0.5-0.5C23,12.2,22.8,12,22.5,12L22.5,12z"/>
			</g>
		</g>
		<g>
			<g>
				<path d="M0.5,14C0.2,14,0,14.2,0,14.5C0,14.8,0.2,15,0.5,15C0.8,15,1,14.8,1,14.5C1,14.2,0.8,14,0.5,14L0.5,14z"/>
			</g>
		</g>
		<g>
			<g>
				<path d="M22.5,14c-0.3,0-0.5,0.2-0.5,0.5c0,0.3,0.2,0.5,0.5,0.5c0.3,0,0.5-0.2,0.5-0.5C23,14.2,22.8,14,22.5,14L22.5,14z"/>
			</g>
		</g>
		<g>
			<g>
				<path d="M0.5,16C0.2,16,0,16.2,0,16.5C0,16.8,0.2,17,0.5,17C0.8,17,1,16.8,1,16.5C1,16.2,0.8,16,0.5,16L0.5,16z"/>
			</g>
		</g>
		<g>
			<g>
				<path d="M22.5,16c-0.3,0-0.5,0.2-0.5,0.5c0,0.3,0.2,0.5,0.5,0.5c0.3,0,0.5-0.2,0.5-0.5C23,16.2,22.8,16,22.5,16L22.5,16z"/>
			</g>
		</g>
		<g>
			<g>
				<path d="M0.5,18C0.2,18,0,18.2,0,18.5C0,18.8,0.2,19,0.5,19C0.8,19,1,18.8,1,18.5C1,18.2,0.8,18,0.5,18L0.5,18z"/>
			</g>
		</g>
		<g>
			<g>
				<path d="M22.5,18c-0.3,0-0.5,0.2-0.5,0.5c0,0.3,0.2,0.5,0.5,0.5c0.3,0,0.5-0.2,0.5-0.5C23,18.2,22.8,18,22.5,18L22.5,18z"/>
			</g>
		</g>
		<g>
			<g>
				<path d="M0.5,20C0.2,20,0,20.2,0,20.5C0,20.8,0.2,21,0.5,21C0.8,21,1,20.8,1,20.5C1,20.2,0.8,20,0.5,20L0.5,20z"/>
			</g>
		</g>
		<g>
			<g>
				<path d="M22.5,20c-0.3,0-0.5,0.2-0.5,0.5c0,0.3,0.2,0.5,0.5,0.5c0.3,0,0.5-0.2,0.5-0.5C23,20.2,22.8,20,22.5,20L22.5,20z"/>
			</g>
		</g>
		<g>
			<g>
				<path d="M0.5,22C0.2,22,0,22.2,0,22.5C0,22.8,0.2,23,0.5,23C0.8,23,1,22.8,1,22.5C1,22.2,0.8,22,0.5,22L0.5,22z"/>
			</g>
		</g>
		<g>
			<g>
				<path d="M22.5,22c-0.3,0-0.5,0.2-0.5,0.5c0,0.3,0.2,0.5,0.5,0.5c0.3,0,0.5-0.2,0.5-0.5C23,22.2,22.8,22,22.5,22L22.5,22z"/>
			</g>
		</g>
	</g>
</g>
</svg>
