<?xml version="1.0" encoding="utf-8"?>
<!-- Generator: Adobe Illustrator 19.2.0, SVG Export Plug-In . SVG Version: 6.00 Build 0)  -->
<svg version="1.1" id="Layer_1" xmlns="http://www.w3.org/2000/svg" xmlns:xlink="http://www.w3.org/1999/xlink" x="0px" y="0px"
	 viewBox="0 0 24 24" style="enable-background:new 0 0 24 24;" xml:space="preserve">
<style type="text/css">
	.st0{display:none;}
	.st1{display:inline;}
	.st2{fill:none;stroke:#000000;stroke-linejoin:round;stroke-miterlimit:10;}
</style>
<g id="Filled_Icon" class="st0">
	<g class="st1">
		<path d="M11,11V0H1.5C0.7,0,0,0.7,0,1.5V11H11z"/>
		<path d="M12,11h11V1.5C23,0.7,22.3,0,21.5,0H12V11z"/>
		<path d="M11,12H0v9.5C0,22.3,0.7,23,1.5,23H11V12z"/>
		<path d="M12,12v11h9.5c0.8,0,1.5-0.7,1.5-1.5V12H12z"/>
	</g>
</g>
<g id="Outline_Icons">
	<g>
		<path class="st2" d="M0.5,1.5c0-0.6,0.4-1,1-1h20c0.6,0,1,0.4,1,1v20c0,0.6-0.4,1-1,1h-20c-0.6,0-1-0.4-1-1V1.5z"/>
		<line class="st2" x1="11.5" y1="0.5" x2="11.5" y2="22.5"/>
		<line class="st2" x1="22.5" y1="11.5" x2="0.5" y2="11.5"/>
	</g>
</g>
</svg>
