<?xml version="1.0" encoding="utf-8"?>
<!-- Generator: Adobe Illustrator 19.2.0, SVG Export Plug-In . SVG Version: 6.00 Build 0)  -->
<svg version="1.1" id="Layer_1" xmlns="http://www.w3.org/2000/svg" xmlns:xlink="http://www.w3.org/1999/xlink" x="0px" y="0px"
	 viewBox="0 0 24 24" style="enable-background:new 0 0 24 24;" xml:space="preserve">
<style type="text/css">
	.st0{display:none;}
	.st1{display:inline;}
	.st2{fill:none;stroke:#000000;stroke-linecap:round;stroke-linejoin:round;stroke-miterlimit:10;}
</style>
<g id="Filled_Icon" class="st0">
	<g class="st1">
		<path d="M21,11h-8V3c0-0.6-0.4-1-1-1c-0.6,0-1,0.4-1,1v8H3c-0.6,0-1,0.4-1,1c0,0.6,0.4,1,1,1h8v8c0,0.6,0.4,1,1,1c0.6,0,1-0.4,1-1
			v-8h8c0.6,0,1-0.4,1-1C22,11.4,21.6,11,21,11z"/>
		<circle cx="1" cy="1" r="1"/>
		<circle cx="1" cy="4.1" r="1"/>
		<circle cx="1" cy="7.3" r="1"/>
		<circle cx="1" cy="10.4" r="1"/>
		<circle cx="1" cy="13.6" r="1"/>
		<circle cx="1" cy="16.7" r="1"/>
		<circle cx="1" cy="19.9" r="1"/>
		<circle cx="23" cy="4.1" r="1"/>
		<circle cx="23" cy="7.3" r="1"/>
		<circle cx="23" cy="10.4" r="1"/>
		<circle cx="23" cy="13.6" r="1"/>
		<circle cx="23" cy="16.7" r="1"/>
		<circle cx="23" cy="19.9" r="1"/>
		<circle cx="1" cy="23" r="1"/>
		<circle cx="4.1" cy="1" r="1"/>
		<circle cx="7.3" cy="1" r="1"/>
		<circle cx="10.4" cy="1" r="1"/>
		<circle cx="13.6" cy="1" r="1"/>
		<circle cx="16.7" cy="1" r="1"/>
		<circle cx="19.9" cy="1" r="1"/>
		<circle cx="23" cy="1" r="1"/>
		<circle cx="4.1" cy="23" r="1"/>
		<circle cx="7.3" cy="23" r="1"/>
		<circle cx="10.4" cy="23" r="1"/>
		<circle cx="13.6" cy="23" r="1"/>
		<circle cx="16.7" cy="23" r="1"/>
		<circle cx="19.9" cy="23" r="1"/>
		<circle cx="23" cy="23" r="1"/>
	</g>
</g>
<g id="Outline_Icons">
	<g>
		<g>
			<g>
				<path d="M0.5,1C0.2,1,0,1.2,0,1.5C0,1.8,0.2,2,0.5,2C0.8,2,1,1.8,1,1.5C1,1.2,0.8,1,0.5,1L0.5,1z"/>
			</g>
		</g>
		<g>
			<g>
				<path d="M2.5,1C2.2,1,2,1.2,2,1.5C2,1.8,2.2,2,2.5,2C2.8,2,3,1.8,3,1.5C3,1.2,2.8,1,2.5,1L2.5,1z"/>
			</g>
		</g>
		<g>
			<g>
				<path d="M4.5,1C4.2,1,4,1.2,4,1.5C4,1.8,4.2,2,4.5,2C4.8,2,5,1.8,5,1.5C5,1.2,4.8,1,4.5,1L4.5,1z"/>
			</g>
		</g>
		<g>
			<g>
				<path d="M6.5,1C6.2,1,6,1.2,6,1.5C6,1.8,6.2,2,6.5,2C6.8,2,7,1.8,7,1.5C7,1.2,6.8,1,6.5,1L6.5,1z"/>
			</g>
		</g>
		<g>
			<g>
				<path d="M8.5,1C8.2,1,8,1.2,8,1.5C8,1.8,8.2,2,8.5,2C8.8,2,9,1.8,9,1.5C9,1.2,8.8,1,8.5,1L8.5,1z"/>
			</g>
		</g>
		<g>
			<g>
				<path d="M10.5,1C10.2,1,10,1.2,10,1.5C10,1.8,10.2,2,10.5,2C10.8,2,11,1.8,11,1.5C11,1.2,10.8,1,10.5,1L10.5,1z"/>
			</g>
		</g>
		<g>
			<g>
				<path d="M12.5,1C12.2,1,12,1.2,12,1.5C12,1.8,12.2,2,12.5,2C12.8,2,13,1.8,13,1.5C13,1.2,12.8,1,12.5,1L12.5,1z"/>
			</g>
		</g>
		<g>
			<g>
				<path d="M2.5,23C2.2,23,2,23.2,2,23.5C2,23.8,2.2,24,2.5,24C2.8,24,3,23.8,3,23.5C3,23.2,2.8,23,2.5,23L2.5,23z"/>
			</g>
		</g>
		<g>
			<g>
				<path d="M4.5,23C4.2,23,4,23.2,4,23.5C4,23.8,4.2,24,4.5,24C4.8,24,5,23.8,5,23.5C5,23.2,4.8,23,4.5,23L4.5,23z"/>
			</g>
		</g>
		<g>
			<g>
				<path d="M6.5,23C6.2,23,6,23.2,6,23.5C6,23.8,6.2,24,6.5,24C6.8,24,7,23.8,7,23.5C7,23.2,6.8,23,6.5,23L6.5,23z"/>
			</g>
		</g>
		<g>
			<g>
				<path d="M8.5,23C8.2,23,8,23.2,8,23.5C8,23.8,8.2,24,8.5,24C8.8,24,9,23.8,9,23.5C9,23.2,8.8,23,8.5,23L8.5,23z"/>
			</g>
		</g>
		<g>
			<g>
				<path d="M10.5,23c-0.3,0-0.5,0.2-0.5,0.5c0,0.3,0.2,0.5,0.5,0.5c0.3,0,0.5-0.2,0.5-0.5C11,23.2,10.8,23,10.5,23L10.5,23z"/>
			</g>
		</g>
		<g>
			<g>
				<path d="M12.5,23c-0.3,0-0.5,0.2-0.5,0.5c0,0.3,0.2,0.5,0.5,0.5c0.3,0,0.5-0.2,0.5-0.5C13,23.2,12.8,23,12.5,23L12.5,23z"/>
			</g>
		</g>
		<g>
			<g>
				<path d="M14.5,23c-0.3,0-0.5,0.2-0.5,0.5c0,0.3,0.2,0.5,0.5,0.5c0.3,0,0.5-0.2,0.5-0.5C15,23.2,14.8,23,14.5,23L14.5,23z"/>
			</g>
		</g>
		<g>
			<g>
				<path d="M16.5,23c-0.3,0-0.5,0.2-0.5,0.5c0,0.3,0.2,0.5,0.5,0.5c0.3,0,0.5-0.2,0.5-0.5C17,23.2,16.8,23,16.5,23L16.5,23z"/>
			</g>
		</g>
		<g>
			<g>
				<path d="M18.5,23c-0.3,0-0.5,0.2-0.5,0.5c0,0.3,0.2,0.5,0.5,0.5c0.3,0,0.5-0.2,0.5-0.5C19,23.2,18.8,23,18.5,23L18.5,23z"/>
			</g>
		</g>
		<g>
			<g>
				<path d="M20.5,23c-0.3,0-0.5,0.2-0.5,0.5c0,0.3,0.2,0.5,0.5,0.5c0.3,0,0.5-0.2,0.5-0.5C21,23.2,20.8,23,20.5,23L20.5,23z"/>
			</g>
		</g>
		<g>
			<g>
				<path d="M14.5,1C14.2,1,14,1.2,14,1.5C14,1.8,14.2,2,14.5,2C14.8,2,15,1.8,15,1.5C15,1.2,14.8,1,14.5,1L14.5,1z"/>
			</g>
		</g>
		<g>
			<g>
				<path d="M16.5,1C16.2,1,16,1.2,16,1.5C16,1.8,16.2,2,16.5,2C16.8,2,17,1.8,17,1.5C17,1.2,16.8,1,16.5,1L16.5,1z"/>
			</g>
		</g>
		<g>
			<g>
				<path d="M18.5,1C18.2,1,18,1.2,18,1.5C18,1.8,18.2,2,18.5,2C18.8,2,19,1.8,19,1.5C19,1.2,18.8,1,18.5,1L18.5,1z"/>
			</g>
		</g>
		<g>
			<g>
				<path d="M20.5,1C20.2,1,20,1.2,20,1.5C20,1.8,20.2,2,20.5,2C20.8,2,21,1.8,21,1.5C21,1.2,20.8,1,20.5,1L20.5,1z"/>
			</g>
		</g>
		<g>
			<g>
				<path d="M0.5,3C0.2,3,0,3.2,0,3.5C0,3.8,0.2,4,0.5,4C0.8,4,1,3.8,1,3.5C1,3.2,0.8,3,0.5,3L0.5,3z"/>
			</g>
		</g>
		<g>
			<g>
				<path d="M0.5,5C0.2,5,0,5.2,0,5.5C0,5.8,0.2,6,0.5,6C0.8,6,1,5.8,1,5.5C1,5.2,0.8,5,0.5,5L0.5,5z"/>
			</g>
		</g>
		<g>
			<g>
				<path d="M22.5,1C22.2,1,22,1.2,22,1.5C22,1.8,22.2,2,22.5,2C22.8,2,23,1.8,23,1.5C23,1.2,22.8,1,22.5,1L22.5,1z"/>
			</g>
		</g>
		<g>
			<g>
				<path d="M22.5,3C22.2,3,22,3.2,22,3.5C22,3.8,22.2,4,22.5,4C22.8,4,23,3.8,23,3.5C23,3.2,22.8,3,22.5,3L22.5,3z"/>
			</g>
		</g>
		<g>
			<g>
				<path d="M22.5,5C22.2,5,22,5.2,22,5.5C22,5.8,22.2,6,22.5,6C22.8,6,23,5.8,23,5.5C23,5.2,22.8,5,22.5,5L22.5,5z"/>
			</g>
		</g>
		<g>
			<g>
				<path d="M0.5,7C0.2,7,0,7.2,0,7.5C0,7.8,0.2,8,0.5,8C0.8,8,1,7.8,1,7.5C1,7.2,0.8,7,0.5,7L0.5,7z"/>
			</g>
		</g>
		<g>
			<g>
				<path d="M22.5,7C22.2,7,22,7.2,22,7.5C22,7.8,22.2,8,22.5,8C22.8,8,23,7.8,23,7.5C23,7.2,22.8,7,22.5,7L22.5,7z"/>
			</g>
		</g>
		<g>
			<g>
				<path d="M0.5,9C0.2,9,0,9.2,0,9.5C0,9.8,0.2,10,0.5,10C0.8,10,1,9.8,1,9.5C1,9.2,0.8,9,0.5,9L0.5,9z"/>
			</g>
		</g>
		<g>
			<g>
				<path d="M22.5,9C22.2,9,22,9.2,22,9.5c0,0.3,0.2,0.5,0.5,0.5c0.3,0,0.5-0.2,0.5-0.5C23,9.2,22.8,9,22.5,9L22.5,9z"/>
			</g>
		</g>
		<g>
			<g>
				<path d="M0.5,11C0.2,11,0,11.2,0,11.5C0,11.8,0.2,12,0.5,12C0.8,12,1,11.8,1,11.5C1,11.2,0.8,11,0.5,11L0.5,11z"/>
			</g>
		</g>
		<g>
			<g>
				<path d="M22.5,11c-0.3,0-0.5,0.2-0.5,0.5c0,0.3,0.2,0.5,0.5,0.5c0.3,0,0.5-0.2,0.5-0.5C23,11.2,22.8,11,22.5,11L22.5,11z"/>
			</g>
		</g>
		<g>
			<g>
				<path d="M0.5,13C0.2,13,0,13.2,0,13.5C0,13.8,0.2,14,0.5,14C0.8,14,1,13.8,1,13.5C1,13.2,0.8,13,0.5,13L0.5,13z"/>
			</g>
		</g>
		<g>
			<g>
				<path d="M22.5,13c-0.3,0-0.5,0.2-0.5,0.5c0,0.3,0.2,0.5,0.5,0.5c0.3,0,0.5-0.2,0.5-0.5C23,13.2,22.8,13,22.5,13L22.5,13z"/>
			</g>
		</g>
		<g>
			<g>
				<path d="M0.5,15C0.2,15,0,15.2,0,15.5C0,15.8,0.2,16,0.5,16C0.8,16,1,15.8,1,15.5C1,15.2,0.8,15,0.5,15L0.5,15z"/>
			</g>
		</g>
		<g>
			<g>
				<path d="M22.5,15c-0.3,0-0.5,0.2-0.5,0.5c0,0.3,0.2,0.5,0.5,0.5c0.3,0,0.5-0.2,0.5-0.5C23,15.2,22.8,15,22.5,15L22.5,15z"/>
			</g>
		</g>
		<g>
			<g>
				<path d="M0.5,17C0.2,17,0,17.2,0,17.5C0,17.8,0.2,18,0.5,18C0.8,18,1,17.8,1,17.5C1,17.2,0.8,17,0.5,17L0.5,17z"/>
			</g>
		</g>
		<g>
			<g>
				<path d="M22.5,17c-0.3,0-0.5,0.2-0.5,0.5c0,0.3,0.2,0.5,0.5,0.5c0.3,0,0.5-0.2,0.5-0.5C23,17.2,22.8,17,22.5,17L22.5,17z"/>
			</g>
		</g>
		<g>
			<g>
				<path d="M0.5,19C0.2,19,0,19.2,0,19.5C0,19.8,0.2,20,0.5,20C0.8,20,1,19.8,1,19.5C1,19.2,0.8,19,0.5,19L0.5,19z"/>
			</g>
		</g>
		<g>
			<g>
				<path d="M22.5,19c-0.3,0-0.5,0.2-0.5,0.5c0,0.3,0.2,0.5,0.5,0.5c0.3,0,0.5-0.2,0.5-0.5C23,19.2,22.8,19,22.5,19L22.5,19z"/>
			</g>
		</g>
		<g>
			<g>
				<path d="M0.5,21C0.2,21,0,21.2,0,21.5C0,21.8,0.2,22,0.5,22C0.8,22,1,21.8,1,21.5C1,21.2,0.8,21,0.5,21L0.5,21z"/>
			</g>
		</g>
		<g>
			<g>
				<path d="M22.5,21c-0.3,0-0.5,0.2-0.5,0.5c0,0.3,0.2,0.5,0.5,0.5c0.3,0,0.5-0.2,0.5-0.5C23,21.2,22.8,21,22.5,21L22.5,21z"/>
			</g>
		</g>
		<g>
			<g>
				<path d="M0.5,23C0.2,23,0,23.2,0,23.5C0,23.8,0.2,24,0.5,24C0.8,24,1,23.8,1,23.5C1,23.2,0.8,23,0.5,23L0.5,23z"/>
			</g>
		</g>
		<g>
			<g>
				<path d="M22.5,23c-0.3,0-0.5,0.2-0.5,0.5c0,0.3,0.2,0.5,0.5,0.5c0.3,0,0.5-0.2,0.5-0.5C23,23.2,22.8,23,22.5,23L22.5,23z"/>
			</g>
		</g>
		<line class="st2" x1="11.5" y1="2.5" x2="11.5" y2="22.5"/>
		<line class="st2" x1="21.5" y1="12.5" x2="1.5" y2="12.5"/>
	</g>
</g>
</svg>
