<?xml version="1.0" encoding="utf-8"?>
<!-- Generator: Adobe Illustrator 19.2.0, SVG Export Plug-In . SVG Version: 6.00 Build 0)  -->
<svg version="1.1" id="Layer_1" xmlns="http://www.w3.org/2000/svg" xmlns:xlink="http://www.w3.org/1999/xlink" x="0px" y="0px"
	 viewBox="0 0 24 24" style="enable-background:new 0 0 24 24;" xml:space="preserve">
<style type="text/css">
	.st0{display:none;}
	.st1{display:inline;}
	.st2{fill:none;stroke:#000000;stroke-linejoin:round;stroke-miterlimit:10;}
</style>
<g id="Filled_Icon" class="st0">
	<g class="st1">
		<path d="M22,0H2C0.9,0,0,0.9,0,2v20c0,1.1,0.9,2,2,2h20c1.1,0,2-0.9,2-2V2C24,0.9,23.1,0,22,0z M2,22V2h20l0,20H2z"/>
		<circle cx="12" cy="3.7" r="1"/>
		<circle cx="12" cy="6.9" r="1"/>
		<circle cx="12" cy="10" r="1"/>
		<circle cx="12" cy="14" r="1"/>
		<circle cx="12" cy="17.1" r="1"/>
		<circle cx="12" cy="20.3" r="1"/>
		<circle cx="3.7" cy="12" r="1"/>
		<circle cx="6.9" cy="12" r="1"/>
		<circle cx="10" cy="12" r="1"/>
		<circle cx="14" cy="12" r="1"/>
		<circle cx="17.1" cy="12" r="1"/>
		<circle cx="20.3" cy="12" r="1"/>
	</g>
</g>
<g id="Outline_Icons">
	<g>
		<g>
			<g>
				<path d="M2.5,12C2.2,12,2,12.2,2,12.5C2,12.8,2.2,13,2.5,13C2.8,13,3,12.8,3,12.5C3,12.2,2.8,12,2.5,12L2.5,12z"/>
			</g>
		</g>
		<g>
			<g>
				<path d="M4.5,12C4.2,12,4,12.2,4,12.5C4,12.8,4.2,13,4.5,13C4.8,13,5,12.8,5,12.5C5,12.2,4.8,12,4.5,12L4.5,12z"/>
			</g>
		</g>
		<g>
			<g>
				<path d="M6.5,12C6.2,12,6,12.2,6,12.5C6,12.8,6.2,13,6.5,13C6.8,13,7,12.8,7,12.5C7,12.2,6.8,12,6.5,12L6.5,12z"/>
			</g>
		</g>
		<g>
			<g>
				<path d="M8.5,12C8.2,12,8,12.2,8,12.5C8,12.8,8.2,13,8.5,13C8.8,13,9,12.8,9,12.5C9,12.2,8.8,12,8.5,12L8.5,12z"/>
			</g>
		</g>
		<g>
			<g>
				<path d="M10.5,12c-0.3,0-0.5,0.2-0.5,0.5c0,0.3,0.2,0.5,0.5,0.5c0.3,0,0.5-0.2,0.5-0.5C11,12.2,10.8,12,10.5,12L10.5,12z"/>
			</g>
		</g>
		<g>
			<g>
				<path d="M12.5,12c-0.3,0-0.5,0.2-0.5,0.5c0,0.3,0.2,0.5,0.5,0.5c0.3,0,0.5-0.2,0.5-0.5C13,12.2,12.8,12,12.5,12L12.5,12z"/>
			</g>
		</g>
		<g>
			<g>
				<path d="M14.5,12c-0.3,0-0.5,0.2-0.5,0.5c0,0.3,0.2,0.5,0.5,0.5c0.3,0,0.5-0.2,0.5-0.5C15,12.2,14.8,12,14.5,12L14.5,12z"/>
			</g>
		</g>
		<g>
			<g>
				<path d="M16.5,12c-0.3,0-0.5,0.2-0.5,0.5c0,0.3,0.2,0.5,0.5,0.5c0.3,0,0.5-0.2,0.5-0.5C17,12.2,16.8,12,16.5,12L16.5,12z"/>
			</g>
		</g>
		<g>
			<g>
				<path d="M18.5,12c-0.3,0-0.5,0.2-0.5,0.5c0,0.3,0.2,0.5,0.5,0.5c0.3,0,0.5-0.2,0.5-0.5C19,12.2,18.8,12,18.5,12L18.5,12z"/>
			</g>
		</g>
		<g>
			<g>
				<path d="M20.5,12c-0.3,0-0.5,0.2-0.5,0.5c0,0.3,0.2,0.5,0.5,0.5c0.3,0,0.5-0.2,0.5-0.5C21,12.2,20.8,12,20.5,12L20.5,12z"/>
			</g>
		</g>
		<g>
			<g>
				<path d="M11.5,3C11.2,3,11,3.2,11,3.5C11,3.8,11.2,4,11.5,4C11.8,4,12,3.8,12,3.5C12,3.2,11.8,3,11.5,3L11.5,3z"/>
			</g>
		</g>
		<g>
			<g>
				<path d="M11.5,5C11.2,5,11,5.2,11,5.5C11,5.8,11.2,6,11.5,6C11.8,6,12,5.8,12,5.5C12,5.2,11.8,5,11.5,5L11.5,5z"/>
			</g>
		</g>
		<g>
			<g>
				<path d="M11.5,7C11.2,7,11,7.2,11,7.5C11,7.8,11.2,8,11.5,8C11.8,8,12,7.8,12,7.5C12,7.2,11.8,7,11.5,7L11.5,7z"/>
			</g>
		</g>
		<g>
			<g>
				<path d="M11.5,9C11.2,9,11,9.2,11,9.5c0,0.3,0.2,0.5,0.5,0.5c0.3,0,0.5-0.2,0.5-0.5C12,9.2,11.8,9,11.5,9L11.5,9z"/>
			</g>
		</g>
		<g>
			<g>
				<path d="M11.5,11c-0.3,0-0.5,0.2-0.5,0.5c0,0.3,0.2,0.5,0.5,0.5c0.3,0,0.5-0.2,0.5-0.5C12,11.2,11.8,11,11.5,11L11.5,11z"/>
			</g>
		</g>
		<g>
			<g>
				<path d="M11.5,13c-0.3,0-0.5,0.2-0.5,0.5c0,0.3,0.2,0.5,0.5,0.5c0.3,0,0.5-0.2,0.5-0.5C12,13.2,11.8,13,11.5,13L11.5,13z"/>
			</g>
		</g>
		<g>
			<g>
				<path d="M11.5,15c-0.3,0-0.5,0.2-0.5,0.5c0,0.3,0.2,0.5,0.5,0.5c0.3,0,0.5-0.2,0.5-0.5C12,15.2,11.8,15,11.5,15L11.5,15z"/>
			</g>
		</g>
		<g>
			<g>
				<path d="M11.5,17c-0.3,0-0.5,0.2-0.5,0.5c0,0.3,0.2,0.5,0.5,0.5c0.3,0,0.5-0.2,0.5-0.5C12,17.2,11.8,17,11.5,17L11.5,17z"/>
			</g>
		</g>
		<g>
			<g>
				<path d="M11.5,19c-0.3,0-0.5,0.2-0.5,0.5c0,0.3,0.2,0.5,0.5,0.5c0.3,0,0.5-0.2,0.5-0.5C12,19.2,11.8,19,11.5,19L11.5,19z"/>
			</g>
		</g>
		<g>
			<g>
				<path d="M11.5,21c-0.3,0-0.5,0.2-0.5,0.5c0,0.3,0.2,0.5,0.5,0.5c0.3,0,0.5-0.2,0.5-0.5C12,21.2,11.8,21,11.5,21L11.5,21z"/>
			</g>
		</g>
		<path class="st2" d="M0.5,2.5c0-0.6,0.4-1,1-1h20c0.6,0,1,0.4,1,1v20c0,0.6-0.4,1-1,1h-20c-0.6,0-1-0.4-1-1V2.5z"/>
	</g>
</g>
</svg>
