<?xml version="1.0" encoding="utf-8"?>
<!-- Generator: Adobe Illustrator 19.2.0, SVG Export Plug-In . SVG Version: 6.00 Build 0)  -->
<svg version="1.1" id="Layer_1" xmlns="http://www.w3.org/2000/svg" xmlns:xlink="http://www.w3.org/1999/xlink" x="0px" y="0px"
	 viewBox="0 0 24 24" enable-background="new 0 0 24 24" xml:space="preserve">
<g id="Filled_Icons" display="none">
	<g display="inline">
		<path d="M14.353,6.109C13.973,5.515,13.5,4.775,13.5,4.506v-1.5h-4v1.5c0,0.269-0.473,1.009-0.854,1.604
			C7.913,7.259,7,8.688,7,10.006v12.75c0,0.311,0,1.25,4.5,1.25s4.5-0.939,4.5-1.25v-12.75C16,8.688,15.087,7.259,14.353,6.109z"/>
		<path d="M13.5,0.506c0-0.275-0.225-0.5-0.5-0.5h-3c-0.276,0-0.5,0.225-0.5,0.5v1.5h4V0.506z"/>
	</g>
</g>
<g id="Outline_Icons">
	<g>
		<path fill="none" stroke="#000000" stroke-linecap="round" stroke-linejoin="round" stroke-miterlimit="10" d="M13.5,4.5
			c0-1,0-4,0-4h-4c0,0,0,3,0,4s-2,3.5-2,5.5s0,11.75,0,12.75s8,1,8,0s0-10.75,0-12.75S13.5,5.5,13.5,4.5z"/>
		
			<line fill="none" stroke="#000000" stroke-linecap="round" stroke-linejoin="round" stroke-miterlimit="10" x1="9.5" y1="2.5" x2="13.5" y2="2.5"/>
	</g>
</g>
</svg>
