<?xml version="1.0" encoding="utf-8"?>
<!-- Generator: Adobe Illustrator 19.2.0, SVG Export Plug-In . SVG Version: 6.00 Build 0)  -->
<svg version="1.1" id="Layer_1" xmlns="http://www.w3.org/2000/svg" xmlns:xlink="http://www.w3.org/1999/xlink" x="0px" y="0px"
	 viewBox="0 0 24 24" enable-background="new 0 0 24 24" xml:space="preserve">
<g id="Filled_Icons" display="none">
	<g display="inline">
		<rect x="7" y="15.006" width="10" height="4"/>
		<path d="M14.853,9.153C14.146,8.446,14,8.3,14,7.006v-3h-4v3c0,1.294-0.147,1.44-0.854,2.147C8.396,9.902,7,11.3,7,13.506v0.5h10
			v-0.5C17,11.3,15.603,9.902,14.853,9.153z"/>
		<path d="M7,22.506c0,0.829,0.673,1.5,1.5,1.5h7c0.826,0,1.5-0.671,1.5-1.5v-2.5H7V22.506z"/>
		<path d="M14,0.506c0-0.275-0.225-0.5-0.5-0.5h-3c-0.276,0-0.5,0.225-0.5,0.5v2.5h4V0.506z"/>
	</g>
</g>
<g id="Outline_Icons">
	<g>
		<path fill="none" stroke="#000000" stroke-linecap="round" stroke-linejoin="round" stroke-miterlimit="10" d="M13.5,0.5
			c0,0,0,5,0,6.5s0.25,1.75,1,2.5s2,2,2,4s0,9,0,9c0,0.55-0.45,1-1,1h-7c-0.55,0-1-0.45-1-1c0,0,0-7,0-9s1.25-3.25,2-4s1-1,1-2.5
			s0-6.5,0-6.5"/>
		
			<rect x="7.5" y="14.5" fill="none" stroke="#000000" stroke-linecap="round" stroke-linejoin="round" stroke-miterlimit="10" width="9" height="5"/>
		
			<rect x="10.5" y="0.5" fill="none" stroke="#000000" stroke-linecap="round" stroke-linejoin="round" stroke-miterlimit="10" width="3" height="3"/>
	</g>
</g>
</svg>
