<?xml version="1.0" encoding="utf-8"?>
<!-- Generator: Adobe Illustrator 19.2.0, SVG Export Plug-In . SVG Version: 6.00 Build 0)  -->
<svg version="1.1" id="Layer_1" xmlns="http://www.w3.org/2000/svg" xmlns:xlink="http://www.w3.org/1999/xlink" x="0px" y="0px"
	 viewBox="0 0 24 24" enable-background="new 0 0 24 24" xml:space="preserve">
<g id="Filled_Icons" display="none">
	<g display="inline">
		<path d="M8.5,4.006h6c0.275,0,0.5-0.223,0.5-0.5v-3c0-0.275-0.225-0.5-0.5-0.5h-6c-0.276,0-0.5,0.225-0.5,0.5v3
			C8,3.783,8.224,4.006,8.5,4.006z"/>
		<path d="M14,7.656v-2.65c0-0.275-0.225-0.5-0.5-0.5h-4c-0.276,0-0.5,0.225-0.5,0.5v2.65c-2.655,1.028-4,3.332-4,6.85v8
			c0,0.829,0.673,1.5,1.5,1.5h10c0.827,0,1.5-0.671,1.5-1.5v-8C18,10.988,16.654,8.685,14,7.656z M15,15.506
			c0,0.277-0.225,0.5-0.5,0.5h-6c-0.276,0-0.5-0.223-0.5-0.5v-3c0-0.275,0.224-0.5,0.5-0.5h6c0.275,0,0.5,0.225,0.5,0.5V15.506z"/>
	</g>
</g>
<g id="Outline_Icons">
	<g>
		
			<rect x="8.5" y="0.5" fill="none" stroke="#000000" stroke-linecap="round" stroke-linejoin="round" stroke-miterlimit="10" width="6" height="3"/>
		<path fill="none" stroke="#000000" stroke-linecap="round" stroke-linejoin="round" stroke-miterlimit="10" d="M9.5,3.5
			c0,0,0,3.5,0,4.5c-3,1-4,3.5-4,6.5c0,2.243,0,6.165,0,8c0,0.553,0.447,1,1,1h10c0.553,0,1-0.447,1-1c0-1.835,0-5.757,0-8
			c0-3-1-5.5-4-6.5c0-1,0-4.5,0-4.5"/>
		
			<rect x="8.5" y="12.5" fill="none" stroke="#000000" stroke-linecap="round" stroke-linejoin="round" stroke-miterlimit="10" width="6" height="3"/>
	</g>
</g>
</svg>
