<?xml version="1.0" encoding="utf-8"?>
<!-- Generator: Adobe Illustrator 19.2.0, SVG Export Plug-In . SVG Version: 6.00 Build 0)  -->
<svg version="1.1" id="Layer_1" xmlns="http://www.w3.org/2000/svg" xmlns:xlink="http://www.w3.org/1999/xlink" x="0px" y="0px"
	 viewBox="0 0 24 24" enable-background="new 0 0 24 24" xml:space="preserve">
<g id="Filled_Icons" display="none">
	<g display="inline">
		<path d="M8.5,4.006h6c0.275,0,0.5-0.224,0.5-0.5v-3c0-0.276-0.225-0.5-0.5-0.5h-6c-0.276,0-0.5,0.224-0.5,0.5v3
			C8,3.782,8.224,4.006,8.5,4.006z"/>
		<path d="M14,7.655V5.006H9v2.649c-2.655,1.029-4,3.332-4,6.851v8c0,0.827,0.673,1.5,1.5,1.5h10c0.827,0,1.5-0.673,1.5-1.5v-8
			C18,10.986,16.654,8.684,14,7.655z M11.792,20.063c-0.087,0.063-0.189,0.094-0.292,0.094s-0.205-0.03-0.292-0.094
			C10.828,19.79,7.5,17.333,7.5,15.27c0-1.511,1.136-2.414,2.233-2.414c0.593,0,1.281,0.271,1.767,0.963
			c0.485-0.691,1.174-0.963,1.768-0.963c1.098,0,2.232,0.903,2.232,2.414C15.5,17.333,12.172,19.789,11.792,20.063z"/>
	</g>
</g>
<g id="Outline_Icons">
	<g>
		<path fill="none" stroke="#000000" stroke-linejoin="round" stroke-miterlimit="10" d="M11.5,19.65c0,0,3.5-2.521,3.5-4.387
			c0-2.154-2.863-2.835-3.5-0.216c-0.637-2.62-3.5-1.939-3.5,0.216C8,17.13,11.5,19.65,11.5,19.65z"/>
		
			<rect x="8.5" y="0.5" fill="none" stroke="#000000" stroke-linecap="round" stroke-linejoin="round" stroke-miterlimit="10" width="6" height="3"/>
		<path fill="none" stroke="#000000" stroke-linecap="round" stroke-linejoin="round" stroke-miterlimit="10" d="M9.5,3.5
			c0,0,0,3.5,0,4.5c-3,1-4,3.5-4,6.5c0,2.243,0,6.165,0,8c0,0.553,0.447,1,1,1h10c0.553,0,1-0.447,1-1c0-1.835,0-5.757,0-8
			c0-3-1-5.5-4-6.5c0-1,0-4.5,0-4.5"/>
	</g>
</g>
</svg>
