<?xml version="1.0" encoding="utf-8"?>
<!-- Generator: Adobe Illustrator 19.2.0, SVG Export Plug-In . SVG Version: 6.00 Build 0)  -->
<svg version="1.1" id="Layer_1" xmlns="http://www.w3.org/2000/svg" xmlns:xlink="http://www.w3.org/1999/xlink" x="0px" y="0px"
	 viewBox="0 0 24 24" enable-background="new 0 0 24 24" xml:space="preserve">
<g id="Filled_Icons" display="none">
	<g display="inline">
		<path d="M5.515,17.006c0.027,1.066,0.137,2.105,0.266,3h12.454c0.129-0.895,0.238-1.934,0.267-3H5.515z"/>
		<path d="M14.008,0.506c0-0.275-0.225-0.5-0.5-0.5h-3c-0.276,0-0.5,0.225-0.5,0.5v2.5h4V0.506z"/>
		<path d="M15.788,11.67c-0.916-1.007-1.78-1.958-1.78-2.665v-5h-4v5c0,0.706-0.865,1.657-1.78,2.665
			c-1.158,1.273-2.453,2.703-2.681,4.335h12.922C18.24,14.373,16.945,12.943,15.788,11.67z"/>
		<path d="M6.28,22.658c0.188,0.757,0.947,1.348,1.728,1.348h8c0.779,0,1.539-0.591,1.727-1.348
			c0.016-0.057,0.173-0.694,0.342-1.652H5.939C6.108,21.963,6.266,22.602,6.28,22.658z"/>
	</g>
</g>
<g id="Outline_Icons">
	<g>
		<path fill="none" stroke="#000000" stroke-linecap="round" stroke-linejoin="round" stroke-miterlimit="10" d="M13.5,0.5
			c0,0,0,6.5,0,8.5s4.5,4.5,4.5,7.5s-0.758,6.029-0.758,6.029C17.109,23.063,16.55,23.5,16,23.5H8c-0.55,0-1.109-0.437-1.242-0.971
			C6.758,22.529,6,19.5,6,16.5S10.5,11,10.5,9s0-8.5,0-8.5"/>
		
			<rect x="10.5" y="0.5" fill="none" stroke="#000000" stroke-linecap="round" stroke-linejoin="round" stroke-miterlimit="10" width="3" height="3"/>
		
			<line fill="none" stroke="#000000" stroke-linecap="round" stroke-linejoin="round" stroke-miterlimit="10" x1="6" y1="16.5" x2="18" y2="16.5"/>
		
			<line fill="none" stroke="#000000" stroke-linecap="round" stroke-linejoin="round" stroke-miterlimit="10" x1="6.359" y1="20.5" x2="17.625" y2="20.5"/>
	</g>
</g>
</svg>
