<?xml version="1.0" encoding="utf-8"?>
<!-- Generator: Adobe Illustrator 19.2.0, SVG Export Plug-In . SVG Version: 6.00 Build 0)  -->
<svg version="1.1" id="Layer_1" xmlns="http://www.w3.org/2000/svg" xmlns:xlink="http://www.w3.org/1999/xlink" x="0px" y="0px"
	 viewBox="0 0 24 24" style="enable-background:new 0 0 24 24;" xml:space="preserve">
<style type="text/css">
	.st0{display:none;}
	.st1{display:inline;}
	.st2{fill:none;stroke:#000000;stroke-linejoin:round;stroke-miterlimit:10;}
	.st3{fill:none;stroke:#000000;stroke-linecap:round;stroke-linejoin:round;stroke-miterlimit:10;}
</style>
<g id="Filled_Icons" class="st0">
	<g class="st1">
		<g>
			<path d="M2.7,9h4.9C7.5,8.3,7.7,7.7,7.8,7H2.5C2.7,8,2.8,8.3,2.7,9z"/>
			<path d="M8,6c0.3-2.1,0-3.7-0.7-4.6C6.7,0.8,6,0.5,5.2,0.5c-0.9,0-1.6,0.3-2.1,0.9C2.3,2.3,2.1,3.9,2.4,6H8z"/>
			<path d="M8,10H2.3c-3,5.2-3.5,9.3,1.1,14H7C11.6,19.3,11,15.2,8,10z"/>
		</g>
		<path d="M15.2,8c-2.3,0-4.3,0.9-5.7,2.4c1.5,2.8,3.1,7,0.4,11.5c1.4,1.3,3.3,2,5.3,2c4.4,0,8-3.6,8-8C23.2,11.6,19.6,8,15.2,8z
			 M12.7,12c0-0.8,0.7-1.5,1.5-1.5c0.8,0,1.5,0.7,1.5,1.5c0,0.8-0.7,1.5-1.5,1.5C13.3,13.5,12.7,12.8,12.7,12z M15.2,17.5
			c-0.8,0-1.5-0.7-1.5-1.5c0-0.8,0.7-1.5,1.5-1.5c0.8,0,1.5,0.7,1.5,1.5C16.7,16.8,16,17.5,15.2,17.5z M18.2,14.5
			c-0.8,0-1.5-0.7-1.5-1.5c0-0.8,0.7-1.5,1.5-1.5c0.8,0,1.5,0.7,1.5,1.5C19.7,13.8,19,14.5,18.2,14.5z"/>
	</g>
</g>
<g id="Outline_Icons">
	<g>
		<g>
			<g>
				<path class="st2" d="M6.8,23.5H3.6C-1.8,18,1.2,13,3,9.7c0.2-0.4,0.2-0.9,0.2-1.3c0-0.2-0.1-0.7-0.2-1.3C2.7,5.2,2.2,1,5.2,1
					s2.5,4.2,2.1,6.1C7.2,7.7,7.1,8.2,7.1,8.4c0,0.4,0,0.9,0.2,1.3C9.2,13,12.2,18,6.8,23.5z"/>
			</g>
		</g>
		<line class="st2" x1="2.9" y1="6.5" x2="7.4" y2="6.5"/>
		<line class="st2" x1="3.1" y1="9.5" x2="7.2" y2="9.5"/>
		<path class="st3" d="M10.1,10.4c1.3-1.2,3.1-1.9,5-1.9c4.1,0,7.5,3.4,7.5,7.5c0,4.1-3.4,7.5-7.5,7.5c-1.7,0-3.2-0.6-4.5-1.5"/>
		<circle class="st3" cx="14.2" cy="12" r="1"/>
		<circle class="st3" cx="18.2" cy="13" r="1"/>
		<circle class="st3" cx="15.2" cy="16" r="1"/>
	</g>
</g>
</svg>
