<?xml version="1.0" encoding="utf-8"?>
<!-- Generator: Adobe Illustrator 19.2.0, SVG Export Plug-In . SVG Version: 6.00 Build 0)  -->
<svg version="1.1" id="Layer_1" xmlns="http://www.w3.org/2000/svg" xmlns:xlink="http://www.w3.org/1999/xlink" x="0px" y="0px"
	 viewBox="0 0 24 24" enable-background="new 0 0 24 24" xml:space="preserve">
<g id="Filled_Icons" display="none">
	<g display="inline">
		<path d="M23.376,6.289c-0.392-0.281-0.896-0.359-1.353-0.206l-6.914,2.311C15.352,8.743,15.5,9.165,15.5,9.62v1.387h1
			c0.275,0,0.5,0.224,0.5,0.5c0,0.276-0.225,0.5-0.5,0.5h-1v1.613c0,0.469-0.171,0.881-0.447,1.205l6.973,2.329
			c0.154,0.054,0.313,0.078,0.474,0.078c0.311,0,0.62-0.098,0.879-0.283C23.768,16.667,24,16.212,24,15.731V7.508
			C24,7.027,23.768,6.572,23.376,6.289z"/>
		<path d="M8.5,12.006h-1c-0.276,0-0.5-0.224-0.5-0.5c0-0.276,0.224-0.5,0.5-0.5h1V9.619c0-0.456,0.149-0.879,0.393-1.23
			L1.974,6.083c-0.455-0.152-0.96-0.075-1.352,0.206C0.232,6.57,0,7.025,0,7.508v8.225c0,0.481,0.232,0.937,0.622,1.217
			c0.258,0.188,0.566,0.283,0.878,0.283c0.159,0,0.319-0.024,0.474-0.078l6.979-2.326C8.671,14.504,8.5,14.09,8.5,13.619V12.006z"/>
		<path d="M13.5,8.506h-3c-0.523,0-1,0.53-1,1.113v4l0,0c0,0.522,0.41,0.887,1,0.887h3c0.589,0,1-0.363,1-0.887l0,0v-4
			C14.5,9.036,14.023,8.506,13.5,8.506z"/>
	</g>
</g>
<g id="Outline_Icons">
	<g>
		<path fill="none" stroke="#000000" stroke-linecap="round" stroke-linejoin="round" stroke-miterlimit="10" d="M14.5,13.613
			c0,0.553-0.447,0.887-1,0.887h-3c-0.553,0-1-0.334-1-0.887V9.612c0-0.551,0.447-1.112,1-1.112h3c0.553,0,1,0.562,1,1.112V13.613z"
			/>
		<path fill="none" stroke="#000000" stroke-linecap="round" stroke-linejoin="round" stroke-miterlimit="10" d="M14.389,9.156
			l7.795-2.604c0.305-0.103,0.641-0.051,0.901,0.138C23.346,6.878,23.5,7.179,23.5,7.502v8.225c0,0.321-0.154,0.625-0.415,0.813
			c-0.262,0.188-0.597,0.238-0.901,0.137l-7.795-2.606"/>
		<path fill="none" stroke="#000000" stroke-linecap="round" stroke-linejoin="round" stroke-miterlimit="10" d="M9.613,9.149
			L1.815,6.552c-0.305-0.103-0.64-0.051-0.9,0.138C0.653,6.877,0.5,7.179,0.5,7.501v8.224c0,0.322,0.153,0.625,0.414,0.813
			c0.262,0.189,0.597,0.239,0.901,0.137l7.798-2.6"/>
		
			<line fill="none" stroke="#000000" stroke-linecap="round" stroke-linejoin="round" stroke-miterlimit="10" x1="7.5" y1="11.5" x2="9.5" y2="11.5"/>
		
			<line fill="none" stroke="#000000" stroke-linecap="round" stroke-linejoin="round" stroke-miterlimit="10" x1="16.5" y1="11.5" x2="14.5" y2="11.5"/>
	</g>
</g>
</svg>
