<?xml version="1.0" encoding="utf-8"?>
<!-- Generator: Adobe Illustrator 19.2.0, SVG Export Plug-In . SVG Version: 6.00 Build 0)  -->
<svg version="1.1" id="Layer_1" xmlns="http://www.w3.org/2000/svg" xmlns:xlink="http://www.w3.org/1999/xlink" x="0px" y="0px"
	 viewBox="0 0 24 24" style="enable-background:new 0 0 24 24;" xml:space="preserve">
<style type="text/css">
	.st0{display:none;}
	.st1{display:inline;}
	.st2{fill:none;stroke:#000000;stroke-linecap:round;stroke-linejoin:round;stroke-miterlimit:10;}
</style>
<g id="Filled_Icon" class="st0">
	<g class="st1">
		<path d="M7,0H4.5C4.4,0,4.2,0.1,4.1,0.1L0.3,4H7V0z"/>
		<path d="M15,8.1V5H0v10.5C0,15.8,0.2,16,0.5,16H8C8.3,12.1,11.2,8.8,15,8.1z"/>
		<path d="M10.9,0.1C10.8,0.1,10.6,0,10.5,0H8v4h6.7L10.9,0.1z"/>
		<path d="M16.5,9C12.4,9,9,12.4,9,16.5c0,4.1,3.4,7.5,7.5,7.5c4.1,0,7.5-3.4,7.5-7.5C24,12.4,20.6,9,16.5,9z M19.9,17.9l-3,3
			c-0.1,0.1-0.2,0.1-0.4,0.1c-0.1,0-0.3-0.1-0.4-0.1l-3-3c-0.2-0.2-0.2-0.5,0-0.7c0.2-0.2,0.5-0.2,0.7,0l2.1,2.1v-5.8
			c0-0.3,0.2-0.5,0.5-0.5c0.3,0,0.5,0.2,0.5,0.5v5.8l2.1-2.1c0.2-0.2,0.5-0.2,0.7,0C20,17.3,20,17.7,19.9,17.9z"/>
	</g>
</g>
<g id="Outline_Icons">
	<g>
		<polyline class="st2" points="6.5,15.5 0.5,15.5 0.5,4.5 14.5,4.5 14.5,6.5 		"/>
		<polygon class="st2" points="14.5,4.5 0.5,4.5 4.5,0.5 10.5,0.5 		"/>
		<circle class="st2" cx="16.5" cy="16.5" r="7"/>
		<polyline class="st2" points="19.5,17.5 16.5,20.5 13.5,17.5 		"/>
		<line class="st2" x1="16.5" y1="20.5" x2="16.5" y2="13.5"/>
		<line class="st2" x1="7.5" y1="0.5" x2="7.5" y2="4.5"/>
	</g>
</g>
</svg>
