<?xml version="1.0" encoding="utf-8"?>
<!-- Generator: Adobe Illustrator 19.2.0, SVG Export Plug-In . SVG Version: 6.00 Build 0)  -->
<svg version="1.1" id="Layer_1" xmlns="http://www.w3.org/2000/svg" xmlns:xlink="http://www.w3.org/1999/xlink" x="0px" y="0px"
	 viewBox="0 0 24 24" style="enable-background:new 0 0 24 24;" xml:space="preserve">
<style type="text/css">
	.st0{display:none;}
	.st1{display:inline;}
	.st2{fill:none;stroke:#000000;stroke-linejoin:round;stroke-miterlimit:10;}
	.st3{fill:none;stroke:#000000;stroke-linecap:round;stroke-linejoin:round;stroke-miterlimit:10;}
</style>
<g id="Filled_Icon" class="st0">
	<path class="st1" d="M23.5,12h-3c-0.3,0-0.5,0.2-0.5,0.5v8c0,0.3,0.2,0.5,0.5,0.5h3c0.3,0,0.5-0.2,0.5-0.5v-8
		C24,12.2,23.8,12,23.5,12z"/>
	<path class="st1" d="M17.5,2h-4v8.5l-3-2.5l-3,2.5V2h-4C3.2,2,3,2.2,3,2.5V14c0.3,0,0.6,0.1,0.9,0.2L6.7,15c0.4-0.6,1-1,1.8-1h3.2
		c0.1-0.1,0.2-0.1,0.2-0.2c0.9-0.6,2.5-1.8,4.6-1.8H18V2.5C18,2.2,17.8,2,17.5,2z"/>
	<path class="st1" d="M19,13h-2.5c-1.8,0-3.2,1-4,1.6C12.3,14.8,12,15,12,15h-0.5h-3c-0.2,0-0.3,0-0.4,0.1c0,0,0,0,0,0
		c-0.1,0-0.2,0.1-0.3,0.2c-0.2,0.2-0.3,0.5-0.3,0.7c0,0.5,0.3,1,1,1H14c0.3,0,0.5,0.2,0.5,0.5c0,0.3-0.2,0.5-0.5,0.5H8.5
		c-1.3,0-2-1-2-2c0,0,0,0,0,0l-2.9-0.9c-1.3-0.4-2.3,0-3.5,1.1C0,16.3,0,16.5,0,16.6c0,0.2,0.1,0.3,0.3,0.4c2,1,3.6,1.9,4.9,2.5
		c3.1,1.6,4.5,2.4,6.1,2.4c1.3,0,2.8-0.5,5.4-1.4c0.7-0.2,1.4-0.5,2.3-0.8L19,13L19,13z"/>
</g>
<g id="Outline_Icons">
	<g>
		<rect x="19.5" y="12.6" class="st2" width="4" height="8"/>
		<path class="st3" d="M19.5,19.1c-10.5,3.5-7,3.5-19-2.5c1.1-1.1,1.9-1.3,3-1L7.8,17"/>
		<path class="st3" d="M19.5,13.6h-3c-2.4,0-4,2-4.5,2c0,0-1.5,0-3.5,0c-1,0-1,2,0,2H14"/>
		<polyline class="st3" points="17.5,13.6 17.5,2.6 3.5,2.6 3.5,15.6 		"/>
		<polyline class="st2" points="7.5,2.6 7.5,10.6 10.5,8.1 13.5,10.6 13.5,2.6 		"/>
	</g>
</g>
</svg>
