<?xml version="1.0" encoding="utf-8"?>
<!-- Generator: Adobe Illustrator 19.2.0, SVG Export Plug-In . SVG Version: 6.00 Build 0)  -->
<svg version="1.1" id="Layer_1" xmlns="http://www.w3.org/2000/svg" xmlns:xlink="http://www.w3.org/1999/xlink" x="0px" y="0px"
	 viewBox="0 0 24 24" style="enable-background:new 0 0 24 24;" xml:space="preserve">
<style type="text/css">
	.st0{display:none;}
	.st1{display:inline;}
	.st2{fill:none;stroke:#000000;stroke-linejoin:round;stroke-miterlimit:10;}
	.st3{fill:none;stroke:#000000;stroke-linecap:round;stroke-linejoin:round;stroke-miterlimit:10;}
</style>
<g id="Filled_Icon" class="st0">
	<g class="st1">
		<path d="M7,4V0H4.5C4.4,0,4.2,0.1,4.1,0.1L0.3,4H7z"/>
		<path d="M8,4h6.7l-3.9-3.9C10.8,0.1,10.6,0,10.5,0H8V4z"/>
		<path d="M8,14.9C8,11.1,11.1,8,14.9,8c0,0,0.1,0,0.1,0V5H0v10.5C0,15.8,0.2,16,0.5,16h7.6C8.1,15.6,8,15.2,8,14.9z"/>
		<path d="M23.9,23.2l-4.6-4.6c0.9-1,1.4-2.3,1.4-3.7c0-3.2-2.6-5.8-5.8-5.8C11.6,9,9,11.6,9,14.9c0,3.2,2.6,5.8,5.8,5.8
			c1.4,0,2.7-0.5,3.7-1.4l4.6,4.6c0.1,0.1,0.2,0.1,0.4,0.1c0.1,0,0.3,0,0.4-0.1C24.1,23.7,24.1,23.4,23.9,23.2z M10,14.9
			c0-2.7,2.2-4.8,4.8-4.8c2.7,0,4.8,2.2,4.8,4.8c0,2.7-2.2,4.8-4.8,4.8C12.2,19.7,10,17.5,10,14.9z"/>
	</g>
</g>
<g id="Outline_Icons">
	<g>
		<g>
			<circle class="st2" cx="14.9" cy="14.9" r="5.3"/>
			<line class="st3" x1="18.6" y1="18.6" x2="23.5" y2="23.5"/>
		</g>
		<polyline class="st3" points="6.5,15.5 0.5,15.5 0.5,4.5 14.5,4.5 14.5,6.5 		"/>
		<polygon class="st3" points="14.5,4.5 0.5,4.5 4.5,0.5 10.5,0.5 		"/>
		<line class="st3" x1="7.5" y1="0.5" x2="7.5" y2="4.5"/>
	</g>
</g>
</svg>
