<?xml version="1.0" encoding="utf-8"?>
<!-- Generator: Adobe Illustrator 19.2.0, SVG Export Plug-In . SVG Version: 6.00 Build 0)  -->
<svg version="1.1" id="Layer_1" xmlns="http://www.w3.org/2000/svg" xmlns:xlink="http://www.w3.org/1999/xlink" x="0px" y="0px"
	 viewBox="0 0 24 24" style="enable-background:new 0 0 24 24;" xml:space="preserve">
<style type="text/css">
	.st0{display:none;}
	.st1{display:inline;}
	.st2{fill:none;stroke:#000000;stroke-linecap:round;stroke-linejoin:round;stroke-miterlimit:10;}
</style>
<g id="Filled_Icons" class="st0">
	<path class="st1" d="M12,7C12,7,12,7,12,7l10.8-3.2L12.1,1C12,1,12,1,11.9,1L1,3.9L12,7C12,7,12,7,12,7z"/>
	<g class="st1">
		<polygon points="12.5,7.9 12.5,22.9 23.7,19 24,18.5 24,4.5 		"/>
		<polygon points="11.5,7.9 0,4.6 0,18.5 0.3,19 11.5,22.9 		"/>
	</g>
</g>
<g id="Outline_Icons">
	<g>
		<polygon class="st2" points="11.5,7.5 0.5,4.5 12,1.5 23.5,4.5 		"/>
		<polyline class="st2" points="23.5,4.5 23.5,18.5 11.5,22.5 0.5,18.5 0.5,4.5 		"/>
		<line class="st2" x1="11.5" y1="7.5" x2="11.5" y2="22.5"/>
	</g>
</g>
</svg>
