<?xml version="1.0" encoding="utf-8"?>
<!-- Generator: Adobe Illustrator 19.2.0, SVG Export Plug-In . SVG Version: 6.00 Build 0)  -->
<svg version="1.1" id="Layer_1" xmlns="http://www.w3.org/2000/svg" xmlns:xlink="http://www.w3.org/1999/xlink" x="0px" y="0px"
	 viewBox="0 0 24 24" style="enable-background:new 0 0 24 24;" xml:space="preserve">
<style type="text/css">
	.st0{display:none;}
	.st1{display:inline;}
	.st2{fill:none;stroke:#000000;stroke-linecap:round;stroke-linejoin:round;stroke-miterlimit:10;}
	.st3{fill:none;stroke:#000000;stroke-linejoin:round;stroke-miterlimit:10;}
</style>
<g id="Filled_Icon" class="st0">
	<g class="st1">
		<polygon points="6.2,2.5 0.8,4.8 12,10 16.4,7.9 		"/>
		<path d="M0,18.5c0,0.2,0.1,0.4,0.3,0.5l11.2,4.9v-13L0,5.6V18.5z M3,10c0-0.2,0.1-0.3,0.2-0.4c0.1-0.1,0.3-0.1,0.5,0L9.2,12
			c0.2,0.1,0.3,0.3,0.3,0.5v5c0,0.2-0.1,0.3-0.2,0.4C9.2,18,9.1,18,9,18c-0.1,0-0.1,0-0.2,0l-5.5-2.5C3.1,15.4,3,15.2,3,15V10z"/>
		<path d="M12.5,10.8v13L23.7,19c0.2-0.1,0.3-0.3,0.3-0.5V5.6L12.5,10.8z"/>
		<path d="M23.2,4.8L12.2,0C12.1,0,11.9,0,11.8,0L7.4,2l10.1,5.5L23.2,4.8z"/>
	</g>
</g>
<g id="Outline_Icons">
	<g>
		<polygon class="st2" points="12.5,10.5 0.5,5.5 0.5,18.5 12.5,23.5 		"/>
		<polygon class="st2" points="12.5,10.5 23.5,5.5 23.5,18.5 12.5,23.5 		"/>
		<polyline class="st2" points="0.5,5.5 12,0.5 23.5,5.5 		"/>
		<line class="st3" x1="7.2" y1="2.6" x2="18.3" y2="7.9"/>
		<polygon class="st2" points="9.5,13 3.5,10 3.5,15 9.5,18 		"/>
	</g>
</g>
</svg>
