<?xml version="1.0" encoding="utf-8"?>
<!-- Generator: Adobe Illustrator 19.2.0, SVG Export Plug-In . SVG Version: 6.00 Build 0)  -->
<svg version="1.1" id="Layer_1" xmlns="http://www.w3.org/2000/svg" xmlns:xlink="http://www.w3.org/1999/xlink" x="0px" y="0px"
	 viewBox="0 0 24 24" style="enable-background:new 0 0 24 24;" xml:space="preserve">
<style type="text/css">
	.st0{display:none;}
	.st1{display:inline;}
	.st2{fill:none;stroke:#000000;stroke-linecap:round;stroke-linejoin:round;stroke-miterlimit:10;}
</style>
<g id="Filled_Icon" class="st0">
	<g class="st1">
		<path d="M7,4V0H4.5C4.4,0,4.2,0.1,4.1,0.1L0.3,4H7z"/>
		<path d="M8,4h6.7l-3.9-3.9C10.8,0.1,10.6,0,10.5,0H8V4z"/>
		<path d="M8.9,15.1c0.4-0.2,0.9-0.3,1.4-0.1l2,0.9l0.6-0.2l-1.2-0.8c-0.4-0.3-0.7-0.8-0.7-1.3c0-0.5,0.3-1,0.8-1.2l2-1
			c0.4-0.2,0.9-0.2,1.3,0V5H0v10.5C0,15.8,0.2,16,0.5,16h6.8L8.9,15.1z"/>
		<g>
			<path d="M13.8,15.3l3.4-1.4l-2.7-1.7c-0.1-0.1-0.3-0.1-0.5,0l-2,1c-0.2,0.1-0.3,0.2-0.3,0.4c0,0.2,0.1,0.3,0.2,0.4L13.8,15.3z"/>
			<path d="M23.8,14.1c-0.4-0.8-1.4-1.2-2.2-0.9L12.1,17L9.7,16c-0.1-0.1-0.3-0.1-0.5,0l-1.9,1.1c-0.2,0.1-0.2,0.2-0.3,0.4
				c0,0.2,0.1,0.3,0.2,0.4l4.4,2.8c0.1,0.1,0.3,0.1,0.5,0l3.3-1.3l-1.5,3.8c-0.1,0.2,0,0.4,0.1,0.6c0.1,0.1,0.2,0.1,0.3,0.1
				c0.1,0,0.2,0,0.2-0.1l2.2-1.1c0.1,0,0.2-0.1,0.2-0.2l2.6-4.7l3.2-1.4c0.4-0.2,0.8-0.5,0.9-1C24.1,15,24,14.6,23.8,14.1z"/>
		</g>
	</g>
</g>
<g id="Outline_Icons">
	<g>
		<polyline class="st2" points="7.5,15.5 0.5,15.5 0.5,4.5 14.5,4.5 14.5,8.5 		"/>
		<polygon class="st2" points="14.5,4.5 0.5,4.5 4.5,0.5 10.5,0.5 		"/>
		<line class="st2" x1="7.5" y1="0.5" x2="7.5" y2="4.5"/>
		<g>
			<path class="st2" d="M12.2,17.6l-2.6-1.1l-1.9,1.1l4.4,2.8l4.4-1.7l-1.9,4.8l2.2-1.1l2.7-4.9l3.3-1.5c0.3-0.1,0.5-0.4,0.7-0.7
				c0.1-0.3,0.1-0.6,0-0.9c-0.3-0.6-1-0.9-1.6-0.6L12.2,17.6z"/>
			<polyline class="st2" points="18.3,15.1 14.4,12.7 12.4,13.7 16,16.1 			"/>
		</g>
	</g>
</g>
</svg>
