<?xml version="1.0" encoding="utf-8"?>
<!-- Generator: Adobe Illustrator 19.2.0, SVG Export Plug-In . SVG Version: 6.00 Build 0)  -->
<svg version="1.1" id="Layer_1" xmlns="http://www.w3.org/2000/svg" xmlns:xlink="http://www.w3.org/1999/xlink" x="0px" y="0px"
	 viewBox="0 0 24 24" style="enable-background:new 0 0 24 24;" xml:space="preserve">
<style type="text/css">
	.st0{display:none;}
	.st1{display:inline;}
	.st2{fill:none;stroke:#000000;stroke-linecap:round;stroke-linejoin:round;stroke-miterlimit:10;}
	.st3{fill:none;stroke:#000000;stroke-linejoin:round;stroke-miterlimit:10;}
</style>
<g id="Filled_Icon" class="st0">
	<g class="st1">
		<path d="M7,4V0H4.5C4.4,0,4.2,0.1,4.1,0.1L0.3,4H7z"/>
		<path d="M8,4h6.7l-3.9-3.9C10.8,0.1,10.6,0,10.5,0H8V4z"/>
		<path d="M8,14.5C8,13.7,8.7,13,9.5,13H11v-0.5c0-0.8,0.7-1.5,1.5-1.5H15V5H0v10.5C0,15.8,0.2,16,0.5,16H8V14.5z"/>
		<g>
			<polygon points="16,16.5 16,15 12.5,15 12.5,15 12.5,17 16,17 			"/>
			<path d="M12.5,12v2h0H16v-1.5c0-0.3-0.2-0.5-0.5-0.5H12.5L12.5,12L12.5,12z"/>
			<path d="M20,14c0.3,0,0.5,0.2,0.5,0.5c0,0.3-0.2,0.5-0.5,0.5h-3v2h6v-4.5c0-0.3-0.2-0.5-0.5-0.5H22v-2c0-0.3-0.2-0.5-0.5-0.5
				C21.2,9.5,21,9.7,21,10v2h-3.5c-0.3,0-0.5,0.2-0.5,0.5V14H20z"/>
			<path d="M17,18h-1h-4h0c0,0,0,0,0,0H9H8.5c-0.2,0-0.3,0.1-0.4,0.2C8,18.4,8,18.5,8,18.7l1.1,2.7c0.4,0.2,0.9,0.4,1.4,0.4
				c1.5,0,3.1-1.3,3.6-1.8c0.6-0.6,1.5-0.6,2.1,0c0.5,0.5,2.2,1.8,3.6,1.8c0.8,0,1.4-0.3,1.8-0.6l1.3-2.5c0,0,0,0,0,0
				c0-0.1,0.1-0.1,0.1-0.2V18H17z"/>
			<path d="M11.5,17v-3h-2C9.2,14,9,14.2,9,14.5v2V17H11.5z"/>
		</g>
		<g>
			<path d="M19.8,23.9c-2,0-3.9-1.4-4.6-2c-0.7,0.6-2.6,2-4.6,2c-2.6,0-4-2.1-4-2.2c-0.1-0.2-0.1-0.5,0.1-0.7
				c0.2-0.2,0.5-0.1,0.7,0.1c0,0,1.2,1.8,3.2,1.8c2.2,0,4.2-2,4.3-2.1c0.2-0.2,0.5-0.2,0.7,0c0,0,2.2,2.1,4.3,2.1
				c2.1,0,3.2-1.7,3.2-1.7c0.1-0.2,0.5-0.3,0.7-0.2c0.2,0.1,0.3,0.5,0.2,0.7C23.8,21.8,22.5,23.9,19.8,23.9z"/>
		</g>
	</g>
</g>
<g id="Outline_Icons">
	<g>
		<polyline class="st2" points="7.5,15.5 0.5,15.5 0.5,4.5 14.5,4.5 14.5,8.5 		"/>
		<polygon class="st2" points="14.5,4.5 0.5,4.5 4.5,0.5 10.5,0.5 		"/>
		<line class="st2" x1="7.5" y1="0.5" x2="7.5" y2="4.5"/>
		<path class="st2" d="M23.4,21.4c0,0-1.2,1.9-3.6,1.9c-2.3,0-4.6-2.2-4.6-2.2h0c0,0-2.2,2.2-4.6,2.2c-2.3,0-3.6-2-3.6-2"/>
		<g>
			<polyline class="st3" points="10.5,23.4 8.5,18.5 22.5,18.5 19.9,23.4 			"/>
			<rect x="9.5" y="16.5" class="st2" width="3" height="2"/>
			<rect x="9.5" y="14.5" class="st2" width="3" height="2"/>
			<rect x="12.5" y="16.5" class="st2" width="3" height="2"/>
			<rect x="12.5" y="14.5" class="st2" width="3" height="2"/>
			<rect x="12.5" y="12.5" class="st2" width="3" height="2"/>
			<rect x="17.5" y="12.5" class="st2" width="5" height="6"/>
			<line class="st2" x1="17.5" y1="14.5" x2="20" y2="14.5"/>
			<line class="st2" x1="21.5" y1="12.5" x2="21.5" y2="10"/>
		</g>
	</g>
</g>
</svg>
