<?xml version="1.0" encoding="utf-8"?>
<!-- Generator: Adobe Illustrator 19.2.0, SVG Export Plug-In . SVG Version: 6.00 Build 0)  -->
<svg version="1.1" id="Layer_1" xmlns="http://www.w3.org/2000/svg" xmlns:xlink="http://www.w3.org/1999/xlink" x="0px" y="0px"
	 viewBox="0 0 24 24" style="enable-background:new 0 0 24 24;" xml:space="preserve">
<style type="text/css">
	.st0{display:none;}
	.st1{display:inline;}
	.st2{fill:none;stroke:#000000;stroke-linecap:round;stroke-linejoin:round;stroke-miterlimit:10;}
</style>
<g id="Filled_Icon" class="st0">
	<g class="st1">
		<path d="M7,4V0H4.5C4.4,0,4.2,0.1,4.1,0.1L0.3,4H7z"/>
		<path d="M8,4h6.7l-3.9-3.9C10.8,0.1,10.6,0,10.5,0H8V4z"/>
		<path d="M14.2,8.9c0.2-0.4,0.5-0.6,0.8-0.7V5H0v10.5C0,15.8,0.2,16,0.5,16h10.1L14.2,8.9z"/>
		<path d="M22.9,23.2L15.9,9.3c-0.2-0.3-0.7-0.3-0.9,0l-7,14c-0.1,0.2-0.1,0.3,0,0.5C8.2,23.9,8.3,24,8.5,24h14c0,0,0,0,0,0
			c0.3,0,0.5-0.2,0.5-0.5C23,23.4,23,23.3,22.9,23.2z M15,15.3c0-0.3,0.2-0.5,0.5-0.5c0.3,0,0.5,0.2,0.5,0.5v3.8
			c0,0.3-0.2,0.5-0.5,0.5c-0.3,0-0.5-0.2-0.5-0.5V15.3z M15.5,21.6c-0.4,0-0.6-0.3-0.6-0.6c0-0.4,0.3-0.6,0.6-0.6
			c0.4,0,0.6,0.3,0.6,0.6C16.1,21.3,15.9,21.6,15.5,21.6z"/>
	</g>
</g>
<g id="Outline_Icons">
	<g>
		<polyline class="st2" points="6.5,15.5 0.5,15.5 0.5,4.5 14.5,4.5 14.5,6.5 		"/>
		<polygon class="st2" points="14.5,4.5 0.5,4.5 4.5,0.5 10.5,0.5 		"/>
		<line class="st2" x1="7.5" y1="0.5" x2="7.5" y2="4.5"/>
		<g>
			<polygon class="st2" points="22.5,23.5 8.5,23.5 15.5,9.5 			"/>
			<line class="st2" x1="15.5" y1="15.3" x2="15.5" y2="19.1"/>
			<g>
				<g>
					<path d="M15.5,20.4c-0.4,0-0.6,0.3-0.6,0.6c0,0.4,0.3,0.6,0.6,0.6c0.4,0,0.6-0.3,0.6-0.6C16.1,20.6,15.9,20.4,15.5,20.4
						L15.5,20.4z"/>
				</g>
			</g>
		</g>
	</g>
</g>
</svg>
