<?xml version="1.0" encoding="utf-8"?>
<!-- Generator: Adobe Illustrator 19.2.0, SVG Export Plug-In . SVG Version: 6.00 Build 0)  -->
<svg version="1.1" id="Layer_1" xmlns="http://www.w3.org/2000/svg" xmlns:xlink="http://www.w3.org/1999/xlink" x="0px" y="0px"
	 viewBox="0 0 24 24" style="enable-background:new 0 0 24 24;" xml:space="preserve">
<style type="text/css">
	.st0{display:none;}
	.st1{display:inline;}
	.st2{fill:none;stroke:#000000;stroke-linecap:round;stroke-linejoin:round;stroke-miterlimit:10;}
</style>
<g id="Filled_Icons" class="st0">
	<g class="st1">
		<path d="M23.5,12h-7c-0.3,0-0.5,0.2-0.5,0.5V14H8v-1.5C8,12.2,7.8,12,7.5,12h-7C0.2,12,0,12.2,0,12.5v8C0,20.8,0.2,21,0.5,21h23
			c0.3,0,0.5-0.2,0.5-0.5v-8C24,12.2,23.8,12,23.5,12z"/>
		<path d="M9.5,12C9.2,12,9,12.2,9,12.5C9,12.8,9.2,13,9.5,13h5c0.3,0,0.5-0.2,0.5-0.5c0-0.3-0.2-0.5-0.5-0.5H9.5z"/>
		<path d="M2.5,11h19c0.3,0,0.5-0.2,0.5-0.5c0-0.3-0.2-0.5-0.5-0.5h-19C2.2,10,2,10.2,2,10.5C2,10.8,2.2,11,2.5,11z"/>
		<path d="M2.5,9h19C21.8,9,22,8.8,22,8.5C22,8.2,21.8,8,21.5,8h-19C2.2,8,2,8.2,2,8.5C2,8.8,2.2,9,2.5,9z"/>
		<path d="M2.5,7h19C21.8,7,22,6.8,22,6.5C22,6.2,21.8,6,21.5,6h-19C2.2,6,2,6.2,2,6.5C2,6.8,2.2,7,2.5,7z"/>
		<path d="M2.5,5h19C21.8,5,22,4.8,22,4.5C22,4.2,21.8,4,21.5,4h-19C2.2,4,2,4.2,2,4.5C2,4.8,2.2,5,2.5,5z"/>
	</g>
</g>
<g id="Outline_Icons">
	<g>
		<polygon class="st2" points="16.5,12.5 16.5,14.5 7.5,14.5 7.5,12.5 0.5,12.5 0.5,20.5 23.5,20.5 23.5,12.5 		"/>
		<line class="st2" x1="9.5" y1="12.5" x2="14.5" y2="12.5"/>
		<line class="st2" x1="2.5" y1="10.5" x2="21.5" y2="10.5"/>
		<line class="st2" x1="2.5" y1="8.5" x2="21.5" y2="8.5"/>
		<line class="st2" x1="2.5" y1="6.5" x2="21.5" y2="6.5"/>
		<line class="st2" x1="2.5" y1="4.5" x2="21.5" y2="4.5"/>
	</g>
</g>
</svg>
