<?xml version="1.0" encoding="utf-8"?>
<!-- Generator: Adobe Illustrator 19.2.0, SVG Export Plug-In . SVG Version: 6.00 Build 0)  -->
<svg version="1.1" id="Layer_1" xmlns="http://www.w3.org/2000/svg" xmlns:xlink="http://www.w3.org/1999/xlink" x="0px" y="0px"
	 viewBox="0 0 24 24" style="enable-background:new 0 0 24 24;" xml:space="preserve">
<style type="text/css">
	.st0{display:none;}
	.st1{display:inline;}
	.st2{fill:none;stroke:#000000;stroke-linecap:round;stroke-linejoin:round;stroke-miterlimit:10;}
	.st3{fill:none;stroke:#000000;stroke-linejoin:round;stroke-miterlimit:10;}
</style>
<g id="Filled_Icon" class="st0">
	<g class="st1">
		<g>
			<path d="M7,4V0H4.5C4.4,0,4.2,0.1,4.1,0.1L0.3,4H7z"/>
			<path d="M8,4h6.7l-3.9-3.9C10.8,0.1,10.6,0,10.5,0H8V4z"/>
			<path d="M15,8.1V5H0v10.5C0,15.8,0.2,16,0.5,16H8C8.3,12.1,11.2,8.8,15,8.1z"/>
		</g>
		<path d="M16.5,9C12.4,9,9,12.4,9,16.5c0,4.1,3.4,7.5,7.5,7.5c4.1,0,7.5-3.4,7.5-7.5C24,12.4,20.6,9,16.5,9z M16.5,15.9
			c1.2,0,2.1,1,2.1,2.1c0,1-0.7,1.8-1.6,2.1v0.6c0,0.3-0.2,0.5-0.5,0.5c-0.3,0-0.5-0.2-0.5-0.5v-0.6c-0.9-0.2-1.6-1.1-1.6-2.1
			c0-0.3,0.2-0.5,0.5-0.5c0.3,0,0.5,0.2,0.5,0.5c0,0.6,0.5,1.1,1.1,1.1c0.6,0,1.1-0.5,1.1-1.1c0-0.6-0.5-1.1-1.1-1.1
			c-1.2,0-2.1-1-2.1-2.1c0-1,0.7-1.8,1.6-2.1v-0.6c0-0.3,0.2-0.5,0.5-0.5c0.3,0,0.5,0.2,0.5,0.5v0.6c0.9,0.2,1.6,1.1,1.6,2.1
			c0,0.3-0.2,0.5-0.5,0.5c-0.3,0-0.5-0.2-0.5-0.5c0-0.6-0.5-1.1-1.1-1.1c-0.6,0-1.1,0.5-1.1,1.1C15.4,15.4,15.9,15.9,16.5,15.9z"/>
	</g>
</g>
<g id="Outline_Icons">
	<g>
		<polyline class="st2" points="6.5,15.5 0.5,15.5 0.5,4.5 14.5,4.5 14.5,6.5 		"/>
		<polygon class="st2" points="14.5,4.5 0.5,4.5 4.5,0.5 10.5,0.5 		"/>
		<line class="st2" x1="7.5" y1="0.5" x2="7.5" y2="4.5"/>
		<g>
			<circle class="st3" cx="16.5" cy="16.5" r="7"/>
			<g>
				<path class="st2" d="M14.9,18.1c0,0.9,0.7,1.6,1.6,1.6c0.9,0,1.6-0.7,1.6-1.6c0-0.9-0.7-1.6-1.6-1.6c-0.9,0-1.6-0.7-1.6-1.6
					c0-0.9,0.7-1.6,1.6-1.6c0.9,0,1.6,0.7,1.6,1.6"/>
				<line class="st2" x1="16.5" y1="19.7" x2="16.5" y2="20.8"/>
				<line class="st2" x1="16.5" y1="12.1" x2="16.5" y2="13.2"/>
			</g>
		</g>
	</g>
</g>
</svg>
