<?xml version="1.0" encoding="utf-8"?>
<!-- Generator: Adobe Illustrator 19.2.0, SVG Export Plug-In . SVG Version: 6.00 Build 0)  -->
<svg version="1.1" id="Layer_1" xmlns="http://www.w3.org/2000/svg" xmlns:xlink="http://www.w3.org/1999/xlink" x="0px" y="0px"
	 viewBox="0 0 24 24" style="enable-background:new 0 0 24 24;" xml:space="preserve">
<style type="text/css">
	.st0{display:none;}
	.st1{display:inline;}
	.st2{fill:none;stroke:#000000;stroke-linecap:round;stroke-linejoin:round;stroke-miterlimit:10;}
</style>
<g id="Filled_Icons" class="st0">
	<g class="st1">
		<path d="M4,3h5v10.5V15h6v-1.5c0-0.3,0.2-0.5,0.5-0.5H21V0.5C21,0.2,20.8,0,20.5,0h-11C9.2,0,9,0.2,9,0.5V2H3.5C3.2,2,3,2.2,3,2.5
			V13h1V3z M13.5,3h5C18.8,3,19,3.2,19,3.5C19,3.8,18.8,4,18.5,4h-5C13.2,4,13,3.8,13,3.5C13,3.2,13.2,3,13.5,3z M11.5,5h7
			C18.8,5,19,5.2,19,5.5C19,5.8,18.8,6,18.5,6h-7C11.2,6,11,5.8,11,5.5C11,5.2,11.2,5,11.5,5z M11.5,7h7C18.8,7,19,7.2,19,7.5
			C19,7.8,18.8,8,18.5,8h-7C11.2,8,11,7.8,11,7.5C11,7.2,11.2,7,11.5,7z M11.5,9h7C18.8,9,19,9.2,19,9.5c0,0.3-0.2,0.5-0.5,0.5h-7
			C11.2,10,11,9.8,11,9.5C11,9.2,11.2,9,11.5,9z M11.5,11h7c0.3,0,0.5,0.2,0.5,0.5c0,0.3-0.2,0.5-0.5,0.5h-7c-0.3,0-0.5-0.2-0.5-0.5
			C11,11.2,11.2,11,11.5,11z"/>
		<path d="M23.5,14h-7H16v0.5v1c0,0.3-0.2,0.5-0.5,0.5h-7H8v-0.5v-1C8,14.2,7.8,14,7.5,14h-7C0.2,14,0,14.2,0,14.5v8
			C0,22.8,0.2,23,0.5,23h23c0.3,0,0.5-0.2,0.5-0.5v-8C24,14.2,23.8,14,23.5,14z"/>
	</g>
</g>
<g id="Outline_Icons">
	<g>
		<polygon class="st2" points="16.5,14.5 16.5,16.5 7.5,16.5 7.5,14.5 0.5,14.5 0.5,22.5 23.5,22.5 23.5,14.5 		"/>
		<polyline class="st2" points="9.5,16.5 9.5,1.5 20.5,1.5 20.5,14.5 		"/>
		<polyline class="st2" points="3.5,14.5 3.5,3.5 9.5,3.5 		"/>
		<line class="st2" x1="13.5" y1="4.5" x2="18.5" y2="4.5"/>
		<line class="st2" x1="11.5" y1="6.5" x2="18.5" y2="6.5"/>
		<line class="st2" x1="11.5" y1="8.5" x2="18.5" y2="8.5"/>
		<line class="st2" x1="11.5" y1="10.5" x2="18.5" y2="10.5"/>
		<line class="st2" x1="11.5" y1="12.5" x2="18.5" y2="12.5"/>
	</g>
</g>
</svg>
