<?xml version="1.0" encoding="utf-8"?>
<!-- Generator: Adobe Illustrator 19.2.0, SVG Export Plug-In . SVG Version: 6.00 Build 0)  -->
<svg version="1.1" id="Layer_1" xmlns="http://www.w3.org/2000/svg" xmlns:xlink="http://www.w3.org/1999/xlink" x="0px" y="0px"
	 viewBox="0 0 24 24" style="enable-background:new 0 0 24 24;" xml:space="preserve">
<style type="text/css">
	.st0{display:none;}
	.st1{display:inline;}
	.st2{fill:none;stroke:#000000;stroke-linecap:round;stroke-linejoin:round;stroke-miterlimit:10;}
</style>
<g id="Filled_Icons" class="st0">
	<g class="st1">
		<path d="M23.5,3h-23C0.2,3,0,3.2,0,3.5v4C0,7.8,0.2,8,0.5,8h23C23.8,8,24,7.8,24,7.5v-4C24,3.2,23.8,3,23.5,3z"/>
		<path d="M22.5,9h-21C1.2,9,1,9.2,1,9.5v12C1,21.8,1.2,22,1.5,22h21c0.3,0,0.5-0.2,0.5-0.5v-12C23,9.2,22.8,9,22.5,9z M16,13.5
			c0,0.3-0.2,0.5-0.5,0.5h-7C8.2,14,8,13.8,8,13.5v-2C8,11.2,8.2,11,8.5,11h7c0.3,0,0.5,0.2,0.5,0.5V13.5z"/>
	</g>
</g>
<g id="Outline_Icons">
	<g>
		<rect x="0.5" y="3.5" class="st2" width="23" height="5"/>
		<rect x="1.5" y="8.5" class="st2" width="21" height="13"/>
		<rect x="8.5" y="11.5" class="st2" width="7" height="2"/>
	</g>
</g>
</svg>
