<?xml version="1.0" encoding="utf-8"?>
<!-- Generator: Adobe Illustrator 19.2.0, SVG Export Plug-In . SVG Version: 6.00 Build 0)  -->
<svg version="1.1" id="Layer_1" xmlns="http://www.w3.org/2000/svg" xmlns:xlink="http://www.w3.org/1999/xlink" x="0px" y="0px"
	 viewBox="0 0 24 24" style="enable-background:new 0 0 24 24;" xml:space="preserve">
<style type="text/css">
	.st0{display:none;}
	.st1{display:inline;}
	.st2{fill:none;stroke:#000000;stroke-linejoin:round;stroke-miterlimit:10;}
	.st3{fill:none;stroke:#000000;stroke-linecap:round;stroke-linejoin:round;stroke-miterlimit:10;}
</style>
<g id="Filled_Icon" class="st0">
	<g class="st1">
		<path d="M7,4V0H4.5C4.4,0,4.2,0.1,4.1,0.1L0.3,4H7z"/>
		<path d="M8,4h6.7l-3.9-3.9C10.8,0.1,10.6,0,10.5,0H8V4z"/>
		<path d="M8.5,15.6c-0.5-0.4-0.7-1.1-0.4-1.7c0.2-0.6,0.8-1,1.4-1H13l2-3.9V5H0v10.5C0,15.8,0.2,16,0.5,16H9L8.5,15.6z"/>
		<path d="M24,14.3c-0.1-0.2-0.3-0.3-0.5-0.3h-4.1L17,9.2c-0.1-0.2-0.3-0.3-0.4-0.3h0c-0.2,0-0.4,0.1-0.4,0.3L13.6,14H9.5
			c-0.2,0-0.4,0.1-0.5,0.3c-0.1,0.2,0,0.4,0.1,0.6l3.6,3l-1.8,5.4c-0.1,0.2,0,0.4,0.2,0.6c0.1,0.1,0.2,0.1,0.3,0.1
			c0.1,0,0.2,0,0.3-0.1l4.8-3.3l4.8,3.3c0.2,0.1,0.4,0.1,0.6,0c0.2-0.1,0.2-0.4,0.2-0.6l-1.8-5.4l3.6-3C24,14.7,24,14.5,24,14.3z"/>
	</g>
</g>
<g id="Outline_Icons">
	<g>
		<g>
			<polygon class="st2" points="16.5,9.4 19,14.5 23.5,14.5 19.7,17.7 21.6,23.5 16.5,20 11.4,23.5 13.3,17.7 9.5,14.5 14,14.5 			
				"/>
		</g>
		<polyline class="st3" points="7.5,15.5 0.5,15.5 0.5,4.5 14.5,4.5 14.5,8.5 		"/>
		<polygon class="st3" points="14.5,4.5 0.5,4.5 4.5,0.5 10.5,0.5 		"/>
		<line class="st3" x1="7.5" y1="0.5" x2="7.5" y2="4.5"/>
	</g>
</g>
</svg>
