<?xml version="1.0" encoding="utf-8"?>
<!-- Generator: Adobe Illustrator 19.2.0, SVG Export Plug-In . SVG Version: 6.00 Build 0)  -->
<svg version="1.1" id="Outline_Icons" xmlns="http://www.w3.org/2000/svg" xmlns:xlink="http://www.w3.org/1999/xlink" x="0px"
	 y="0px" viewBox="0 0 24 24" style="enable-background:new 0 0 24 24;" xml:space="preserve">
<style type="text/css">
	.st0{fill:none;stroke:#000000;stroke-linecap:round;stroke-linejoin:round;stroke-miterlimit:10;}
</style>
<g>
	<polyline class="st0" points="6.5,15.5 0.5,15.5 0.5,4.5 14.5,4.5 14.5,6.5 	"/>
	<polygon class="st0" points="14.5,4.5 0.5,4.5 4.5,0.5 10.5,0.5 	"/>
	<line class="st0" x1="7.5" y1="0.5" x2="7.5" y2="4.5"/>
	<g>
		<polyline class="st0" points="23.5,9.9 23.5,13.5 19.9,13.5 		"/>
		<path class="st0" d="M10.9,13.5c0.9-2.5,3.3-4.3,6.1-4.3s5.5,1.8,6.4,4.3"/>
		<g>
			<polyline class="st0" points="10.5,21.4 10.5,17.5 14.8,17.5 			"/>
			<path class="st0" d="M23.9,17.8c-0.9,2.5-3.3,4.3-6.1,4.3c-2.8,0-5.5-1.8-6.4-4.3"/>
		</g>
	</g>
</g>
</svg>
