<?xml version="1.0" encoding="utf-8"?>
<!-- Generator: Adobe Illustrator 19.2.0, SVG Export Plug-In . SVG Version: 6.00 Build 0)  -->
<svg version="1.1" id="Layer_1" xmlns="http://www.w3.org/2000/svg" xmlns:xlink="http://www.w3.org/1999/xlink" x="0px" y="0px"
	 viewBox="0 0 24 24" style="enable-background:new 0 0 24 24;" xml:space="preserve">
<style type="text/css">
	.st0{display:none;}
	.st1{display:inline;}
	.st2{fill:none;stroke:#000000;stroke-linecap:round;stroke-linejoin:round;stroke-miterlimit:10;}
</style>
<g id="Filled_Icon" class="st0">
	<g class="st1">
		<path d="M22.5,23H21v-3h1.5c0.3,0,0.5-0.2,0.5-0.5c0-0.3-0.2-0.5-0.5-0.5H0.5C0.3,19,0,19.2,0,19.5C0,19.8,0.3,20,0.5,20H2v3H0.5
			C0.3,23,0,23.2,0,23.5C0,23.8,0.3,24,0.5,24h21.9c0.3,0,0.5-0.2,0.5-0.5C23,23.2,22.7,23,22.5,23z M5,20h5v3H5V20z M13,20h5v3h-5
			V20z"/>
		<path d="M10.5,9.5h-3v3C7.5,12.8,7.3,13,7,13H5.5C5.2,13,5,12.8,5,12.5v-3H2c-0.3,0-0.5,0.2-0.5,0.5v7.5C1.5,17.8,1.7,18,2,18h8.5
			c0.3,0,0.5-0.2,0.5-0.5V10C11,9.7,10.8,9.5,10.5,9.5z"/>
		<path d="M21,9.5h-3v3c0,0.3-0.2,0.5-0.5,0.5H16c-0.3,0-0.5-0.2-0.5-0.5v-3h-3C12.2,9.5,12,9.7,12,10v7.5c0,0.3,0.2,0.5,0.5,0.5H21
			c0.3,0,0.5-0.2,0.5-0.5V10C21.5,9.7,21.3,9.5,21,9.5z"/>
		<path d="M16,0h-3v3c0,0.3-0.2,0.5-0.5,0.5H11c-0.3,0-0.5-0.2-0.5-0.5V0h-3C7.2,0,7,0.2,7,0.5V8c0,0.3,0.2,0.5,0.5,0.5H16
			c0.3,0,0.5-0.2,0.5-0.5V0.5C16.5,0.2,16.3,0,16,0z"/>
	</g>
</g>
<g id="Outline_Icons">
	<g>
		<line class="st2" x1="0.5" y1="19.5" x2="22.5" y2="19.5"/>
		<line class="st2" x1="0.5" y1="23.5" x2="22.5" y2="23.5"/>
		<line class="st2" x1="2.5" y1="19.5" x2="2.5" y2="23.5"/>
		<line class="st2" x1="4.5" y1="19.5" x2="4.5" y2="23.5"/>
		<line class="st2" x1="10.5" y1="19.5" x2="10.5" y2="23.5"/>
		<line class="st2" x1="12.5" y1="19.5" x2="12.5" y2="23.5"/>
		<line class="st2" x1="20.5" y1="19.5" x2="20.5" y2="23.5"/>
		<line class="st2" x1="18.5" y1="19.5" x2="18.5" y2="23.5"/>
		<rect x="2.5" y="9.5" class="st2" width="9" height="8"/>
		<rect x="11.5" y="9.5" class="st2" width="9" height="8"/>
		<rect x="7.5" y="1.5" class="st2" width="9" height="8"/>
		<rect x="10.5" y="1.5" class="st2" width="3" height="3"/>
		<rect x="5.5" y="9.5" class="st2" width="3" height="3"/>
		<rect x="14.5" y="9.5" class="st2" width="3" height="3"/>
	</g>
</g>
</svg>
