<?xml version="1.0" encoding="utf-8"?>
<!-- Generator: Adobe Illustrator 19.2.0, SVG Export Plug-In . SVG Version: 6.00 Build 0)  -->
<svg version="1.1" id="Layer_1" xmlns="http://www.w3.org/2000/svg" xmlns:xlink="http://www.w3.org/1999/xlink" x="0px" y="0px"
	 viewBox="0 0 24 24" style="enable-background:new 0 0 24 24;" xml:space="preserve">
<style type="text/css">
	.st0{display:none;}
	.st1{display:inline;}
	.st2{fill:none;stroke:#000000;stroke-linecap:round;stroke-linejoin:round;stroke-miterlimit:10;}
</style>
<g id="Filled_Icon" class="st0">
	<g class="st1">
		<path d="M7,4V0H4.5C4.4,0,4.2,0.1,4.1,0.1L0.3,4H7z"/>
		<path d="M8,4h6.7l-3.9-3.9C10.8,0.1,10.6,0,10.5,0H8V4z"/>
		<path d="M8,14.5C8,13.7,8.7,13,9.5,13h0c0.2-2.6,2.8-5,5.5-5V5H0v10.5C0,15.8,0.2,16,0.5,16H8V14.5z"/>
		<path d="M20.5,14h-1v-0.7c0-2.2-2.2-4.3-4.5-4.3c-2.3,0-4.5,2.1-4.5,4.3V14h-1C9.2,14,9,14.2,9,14.5v9C9,23.8,9.2,24,9.5,24h11
			c0.3,0,0.5-0.2,0.5-0.5v-9C21,14.2,20.8,14,20.5,14z M15.5,18.7V21c0,0.3-0.2,0.5-0.5,0.5c-0.3,0-0.5-0.2-0.5-0.5v-2.3
			c-0.3-0.2-0.6-0.5-0.6-1c0-0.6,0.5-1.1,1.1-1.1c0.6,0,1.1,0.5,1.1,1.1C16.1,18.2,15.8,18.5,15.5,18.7z M18.5,14h-7v-0.7
			c0-1.6,1.8-3.3,3.5-3.3c1.7,0,3.5,1.7,3.5,3.3V14z"/>
	</g>
</g>
<g id="Outline_Icons">
	<g>
		<g>
			<polyline class="st2" points="6.5,15.5 0.5,15.5 0.5,4.5 14.5,4.5 14.5,6.5 			"/>
			<polygon class="st2" points="14.5,4.5 0.5,4.5 4.5,0.5 10.5,0.5 			"/>
			<line class="st2" x1="7.5" y1="0.5" x2="7.5" y2="4.5"/>
		</g>
		<g>
			<rect x="9.5" y="14.5" class="st2" width="11" height="9"/>
			<line class="st2" x1="15" y1="21" x2="15" y2="18.4"/>
			<path class="st2" d="M11,14.5v-1.2c0-2,2-3.8,4-3.8c2,0,4,1.9,4,3.8v1.2"/>
			<circle class="st2" cx="15" cy="17.8" r="0.6"/>
		</g>
	</g>
</g>
</svg>
