<?xml version="1.0" encoding="utf-8"?>
<!-- Generator: Adobe Illustrator 19.2.0, SVG Export Plug-In . SVG Version: 6.00 Build 0)  -->
<svg version="1.1" id="Layer_1" xmlns="http://www.w3.org/2000/svg" xmlns:xlink="http://www.w3.org/1999/xlink" x="0px" y="0px"
	 viewBox="0 0 24 24" style="enable-background:new 0 0 24 24;" xml:space="preserve">
<style type="text/css">
	.st0{display:none;}
	.st1{display:inline;}
	.st2{fill:none;stroke:#000000;stroke-linecap:round;stroke-linejoin:round;stroke-miterlimit:10;}
</style>
<g id="Filled_Icon" class="st0">
	<g class="st1">
		<path d="M8.9,3.1C9,3.1,9.1,3,9.2,3L11,1.5v3C11,4.8,11.2,5,11.5,5C11.8,5,12,4.8,12,4.5v-3L13.7,3c0.2,0.2,0.5,0.1,0.7-0.1
			c0.2-0.2,0.1-0.5-0.1-0.7l-2.5-2.1c0,0,0,0,0,0C11.7,0,11.6,0,11.5,0c0,0,0,0,0,0h0c-0.1,0-0.2,0-0.3,0.1c0,0,0,0,0,0L8.6,2.2
			C8.4,2.3,8.3,2.7,8.5,2.9C8.6,3,8.7,3.1,8.9,3.1z"/>
		<path d="M22.8,9.1l-2-2.5c-0.2-0.2-0.5-0.3-0.7-0.1C19.9,6.7,19.9,7,20,7.2L21.4,9h-2.9C18.2,9,18,9.2,18,9.5
			c0,0.3,0.2,0.5,0.5,0.5h3L20,11.8c-0.2,0.2-0.1,0.5,0.1,0.7c0.1,0.1,0.2,0.1,0.3,0.1c0.1,0,0.3-0.1,0.4-0.2l2.1-2.5
			C23,9.7,23.1,9.3,22.8,9.1z"/>
		<path d="M4.6,9H1.6L3,7.2C3.2,7,3.1,6.7,2.9,6.5C2.7,6.4,2.4,6.4,2.2,6.6l-2,2.5C0,9.3,0,9.7,0.2,9.9l2.1,2.5
			c0.1,0.1,0.2,0.2,0.4,0.2c0.1,0,0.2,0,0.3-0.1C3.1,12.3,3.2,12,3,11.8L1.6,10h3c0.3,0,0.5-0.2,0.5-0.5C5.1,9.2,4.8,9,4.6,9z"/>
		<path d="M13.7,20L12,21.4v-3c0-0.3-0.2-0.5-0.5-0.5c-0.3,0-0.5,0.2-0.5,0.5v3L9.2,20c-0.2-0.2-0.5-0.1-0.7,0.1
			c-0.2,0.2-0.1,0.5,0.1,0.7l2.6,2.1c0.1,0,0.2,0.1,0.3,0.1c0.1,0,0.2-0.1,0.3-0.1l2.5-2.1c0.2-0.2,0.2-0.5,0.1-0.7
			C14.3,19.9,13.9,19.9,13.7,20z"/>
		<path d="M16.5,8.5l-4.8-2.4c-0.1-0.1-0.3-0.1-0.4,0L6.5,8.5l5,2.5L16.5,8.5z"/>
		<path d="M11,11.8L6,9.3V14c0,0.2,0.1,0.4,0.3,0.4l4.7,2.4L11,11.8z"/>
		<path d="M12,16.9l4.7-2.4c0.2-0.1,0.3-0.3,0.3-0.4V9.3l-5,2.5L12,16.9z"/>
	</g>
</g>
<g id="Outline_Icons">
	<g>
		<polygon class="st2" points="11.5,11.5 6.5,9 11.5,6.5 16.5,9 		"/>
		<polyline class="st2" points="16.5,9 16.5,14 11.5,16.5 6.5,14 6.5,9 		"/>
		<line class="st2" x1="11.5" y1="11.5" x2="11.5" y2="16.5"/>
		<polyline class="st2" points="8.9,2.6 11.5,0.5 14.1,2.6 		"/>
		<line class="st2" x1="11.5" y1="4.5" x2="11.5" y2="0.5"/>
		<g>
			<polyline class="st2" points="20.4,6.9 22.5,9.5 20.4,12.1 			"/>
			<line class="st2" x1="18.5" y1="9.5" x2="22.5" y2="9.5"/>
		</g>
		<g>
			<polyline class="st2" points="2.6,6.9 0.5,9.5 2.6,12.1 			"/>
			<line class="st2" x1="4.6" y1="9.5" x2="0.5" y2="9.5"/>
		</g>
		<polyline class="st2" points="8.9,20.4 11.5,22.5 14.1,20.4 		"/>
		<line class="st2" x1="11.5" y1="18.5" x2="11.5" y2="22.5"/>
	</g>
</g>
</svg>
