<?xml version="1.0" encoding="utf-8"?>
<!-- Generator: Adobe Illustrator 19.2.0, SVG Export Plug-In . SVG Version: 6.00 Build 0)  -->
<svg version="1.1" id="Layer_1" xmlns="http://www.w3.org/2000/svg" xmlns:xlink="http://www.w3.org/1999/xlink" x="0px" y="0px"
	 viewBox="0 0 24 24" style="enable-background:new 0 0 24 24;" xml:space="preserve">
<style type="text/css">
	.st0{display:none;}
	.st1{display:inline;}
	.st2{fill:none;stroke:#000000;stroke-linecap:round;stroke-linejoin:round;stroke-miterlimit:10;}
</style>
<g id="Filled_Icon" class="st0">
	<g class="st1">
		<path d="M23.6,5.5L12.1,2C12,2,12,2,11.9,2L0.4,5.5C0.1,5.6,0,5.8,0,6v2.5C0,8.8,0.2,9,0.5,9H2v14.5C2,23.8,2.2,24,2.5,24
			C2.8,24,3,23.8,3,23.5V9h18v14.5c0,0.3,0.2,0.5,0.5,0.5c0.3,0,0.5-0.2,0.5-0.5V9h1.5C23.8,9,24,8.8,24,8.5V6
			C24,5.8,23.9,5.6,23.6,5.5z"/>
		<path d="M15,10h-2v2.5c0,0.3-0.2,0.5-0.5,0.5H11c-0.3,0-0.5-0.2-0.5-0.5V10h-2C8.2,10,8,10.2,8,10.5V16c0,0.3,0.2,0.5,0.5,0.5H15
			c0.3,0,0.5-0.2,0.5-0.5v-5.5C15.5,10.2,15.3,10,15,10z"/>
		<path d="M11,17.5H9V20c0,0.3-0.2,0.5-0.5,0.5H7c-0.3,0-0.5-0.2-0.5-0.5v-2.5h-2C4.2,17.5,4,17.7,4,18v5.5C4,23.8,4.2,24,4.5,24H11
			c0.3,0,0.5-0.2,0.5-0.5V18C11.5,17.7,11.3,17.5,11,17.5z"/>
		<path d="M19.5,17.5h-2V20c0,0.3-0.2,0.5-0.5,0.5h-1.5c-0.3,0-0.5-0.2-0.5-0.5v-2.5h-2c-0.3,0-0.5,0.2-0.5,0.5v5.5
			c0,0.3,0.2,0.5,0.5,0.5h6.5c0.3,0,0.5-0.2,0.5-0.5V18C20,17.7,19.8,17.5,19.5,17.5z"/>
	</g>
</g>
<g id="Outline_Icons">
	<g>
		<polyline class="st2" points="2.5,22.5 2.5,8.5 0.5,8.5 0.5,6 12,2.5 22.5,6 22.5,8.5 20.5,8.5 20.5,22.5 		"/>
		<line class="st2" x1="2.7" y1="8.5" x2="20.7" y2="8.5"/>
		<rect x="4.5" y="16.5" class="st2" width="7" height="6"/>
		<rect x="11.5" y="16.5" class="st2" width="7" height="6"/>
		<rect x="7.5" y="10.5" class="st2" width="7" height="6"/>
		<rect x="9.5" y="10.5" class="st2" width="3" height="3"/>
		<rect x="6.5" y="16.5" class="st2" width="3" height="3"/>
		<rect x="13.5" y="16.5" class="st2" width="3" height="3"/>
	</g>
</g>
</svg>
