<?xml version="1.0" encoding="utf-8"?>
<!-- Generator: Adobe Illustrator 19.2.0, SVG Export Plug-In . SVG Version: 6.00 Build 0)  -->
<svg version="1.1" id="Layer_1" xmlns="http://www.w3.org/2000/svg" xmlns:xlink="http://www.w3.org/1999/xlink" x="0px" y="0px"
	 viewBox="0 0 24 24" style="enable-background:new 0 0 24 24;" xml:space="preserve">
<style type="text/css">
	.st0{display:none;}
	.st1{display:inline;}
	.st2{fill:none;stroke:#000000;stroke-linecap:round;stroke-linejoin:round;stroke-miterlimit:10;}
	.st3{fill:none;stroke:#000000;stroke-linejoin:round;stroke-miterlimit:10;}
</style>
<g id="Filled_Icon" class="st0">
	<g class="st1">
		<path d="M7,4V0H4.5C4.4,0,4.2,0.1,4.1,0.1L0.3,4H7z"/>
		<path d="M8,4h6.7l-3.9-3.9C10.8,0.1,10.6,0,10.5,0H8V4z"/>
		<path d="M7.6,14.7C7.2,14.4,7,14,7,13.5c0-0.5,0.2-0.9,0.6-1.2l5-4C13,8,13.6,7.9,14.1,8.1C14.7,8.4,15,8.9,15,9.5V5H0v10.5
			C0,15.8,0.2,16,0.5,16h8.7L7.6,14.7z"/>
		<path d="M14,11V9.5c0-0.2-0.1-0.4-0.3-0.5C13.5,9,13.3,9,13.2,9.1l-5,4C8.1,13.2,8,13.3,8,13.5c0,0.2,0.1,0.3,0.2,0.4l5,4
			c0.1,0.1,0.4,0.1,0.5,0.1c0.2-0.1,0.3-0.3,0.3-0.5V16c7.5,0.3,9,6.8,9,7.1c0,0.2,0.3,0.4,0.5,0.4c0,0,0,0,0,0
			c0.3,0,0.5-0.2,0.5-0.5C24,22.9,23.9,11.4,14,11z"/>
	</g>
</g>
<g id="Outline_Icons">
	<g>
		<polyline class="st2" points="6.5,15.5 0.5,15.5 0.5,4.5 14.5,4.5 14.5,6.5 		"/>
		<polygon class="st2" points="14.5,4.5 0.5,4.5 4.5,0.5 10.5,0.5 		"/>
		<line class="st2" x1="7.5" y1="0.5" x2="7.5" y2="4.5"/>
		<path class="st3" d="M13.5,17.5c0,0,0-0.5,0-2c8.5,0,10,7.5,10,7.5s0-11.5-10-11.5c0-0.5,0-2,0-2l-5,4L13.5,17.5z"/>
	</g>
</g>
</svg>
