<?xml version="1.0" encoding="utf-8"?>
<!-- Generator: Adobe Illustrator 19.2.0, SVG Export Plug-In . SVG Version: 6.00 Build 0)  -->
<svg version="1.1" id="Layer_1" xmlns="http://www.w3.org/2000/svg" xmlns:xlink="http://www.w3.org/1999/xlink" x="0px" y="0px"
	 viewBox="0 0 24 24" style="enable-background:new 0 0 24 24;" xml:space="preserve">
<style type="text/css">
	.st0{display:none;}
	.st1{display:inline;}
	.st2{fill:none;stroke:#000000;stroke-linecap:round;stroke-linejoin:round;stroke-miterlimit:10;}
	.st3{fill:none;stroke:#000000;stroke-linejoin:round;stroke-miterlimit:10;}
</style>
<g id="Filled_Icon" class="st0">
	<g class="st1">
		<g>
			<path d="M7,4V0H4.5C4.4,0,4.2,0.1,4.1,0.1L0.3,4H7z"/>
			<path d="M8,4h6.7l-3.9-3.9C10.8,0.1,10.6,0,10.5,0H8V4z"/>
			<path d="M0,5v10.5C0,15.8,0.2,16,0.5,16h8.2c1.2-2.4,3.2-4.6,6.3-5.5V5H0z"/>
		</g>
		<path d="M23.8,13.1l-5-4C18.7,9,18.5,9,18.3,9C18.1,9.1,18,9.3,18,9.5V11C8.1,11.4,8,22.9,8,23c0,0.3,0.2,0.5,0.5,0.5c0,0,0,0,0,0
			c0.2,0,0.4-0.2,0.5-0.4c0.1-0.3,1.5-6.8,9-7.1v1.5c0,0.2,0.1,0.4,0.3,0.5c0.2,0.1,0.4,0.1,0.5-0.1l5-4c0.1-0.1,0.2-0.2,0.2-0.4
			C24,13.3,23.9,13.2,23.8,13.1z"/>
	</g>
</g>
<g id="Outline_Icons">
	<g>
		<polyline class="st2" points="6.5,15.5 0.5,15.5 0.5,4.5 14.5,4.5 14.5,6.5 		"/>
		<polygon class="st2" points="14.5,4.5 0.5,4.5 4.5,0.5 10.5,0.5 		"/>
		<line class="st2" x1="7.5" y1="0.5" x2="7.5" y2="4.5"/>
		<path class="st3" d="M18.5,17.5c0,0,0-0.5,0-2c-8.5,0-10,7.5-10,7.5s0-11.5,10-11.5c0-0.5,0-2,0-2l5,4L18.5,17.5z"/>
	</g>
</g>
</svg>
