<?xml version="1.0" encoding="utf-8"?>
<!-- Generator: Adobe Illustrator 19.2.0, SVG Export Plug-In . SVG Version: 6.00 Build 0)  -->
<svg version="1.1" id="Layer_1" xmlns="http://www.w3.org/2000/svg" xmlns:xlink="http://www.w3.org/1999/xlink" x="0px" y="0px"
	 viewBox="0 0 24 24" style="enable-background:new 0 0 24 24;" xml:space="preserve">
<style type="text/css">
	.st0{display:none;}
	.st1{display:inline;}
	.st2{fill:none;stroke:#000000;stroke-linejoin:round;stroke-miterlimit:10;}
	.st3{fill:none;stroke:#000000;stroke-linecap:round;stroke-linejoin:round;stroke-miterlimit:10;}
</style>
<g id="Filled_Icon" class="st0">
	<g class="st1">
		<path d="M7,4V0H4.5C4.4,0,4.2,0.1,4.1,0.1L0.3,4H7z"/>
		<path d="M8,4h6.7l-3.9-3.9C10.8,0.1,10.6,0,10.5,0H8V4z"/>
		<path d="M6.6,13.2c0-3.6,2.7-5.8,5.3-5.8c1,0,2.1,0.3,3.1,1.1V5H0v10.5C0,15.8,0.2,16,0.5,16h6.8C6.9,15,6.6,14.1,6.6,13.2z"/>
		<path d="M19.7,8.4c-1.3,0-3,0.7-3.9,2.7c-0.9-2-2.5-2.7-3.9-2.7c-2.1,0-4.3,1.8-4.3,4.8c0,4.4,7.6,9.9,7.9,10.2
			c0.1,0.1,0.2,0.1,0.3,0.1c0.1,0,0.2,0,0.3-0.1c0.3-0.2,7.9-5.8,7.9-10.2C24,10.2,21.8,8.4,19.7,8.4z"/>
	</g>
</g>
<g id="Outline_Icons">
	<g>
		<g>
			<path class="st2" d="M15.8,22.9c0,0,7.7-5.6,7.7-9.7c0-4.8-6.3-6.3-7.7-0.5c-1.4-5.8-7.7-4.3-7.7,0.5
				C8.1,17.3,15.8,22.9,15.8,22.9z"/>
		</g>
		<polyline class="st3" points="6.5,15.5 0.5,15.5 0.5,4.5 14.5,4.5 14.5,6.5 		"/>
		<polygon class="st3" points="14.5,4.5 0.5,4.5 4.5,0.5 10.5,0.5 		"/>
		<line class="st3" x1="7.5" y1="0.5" x2="7.5" y2="4.5"/>
	</g>
</g>
</svg>
