<?xml version="1.0" encoding="utf-8"?>
<!-- Generator: Adobe Illustrator 19.2.0, SVG Export Plug-In . SVG Version: 6.00 Build 0)  -->
<svg version="1.1" id="Layer_1" xmlns="http://www.w3.org/2000/svg" xmlns:xlink="http://www.w3.org/1999/xlink" x="0px" y="0px"
	 viewBox="0 0 24 24" style="enable-background:new 0 0 24 24;" xml:space="preserve">
<style type="text/css">
	.st0{display:none;}
	.st1{display:inline;}
	.st2{fill:none;stroke:#000000;stroke-linecap:round;stroke-linejoin:round;stroke-miterlimit:10;}
</style>
<g id="Filled_Icon" class="st0">
	<g class="st1">
		<path d="M0,8v15.5C0,23.8,0.2,24,0.5,24h23c0.3,0,0.5-0.2,0.5-0.5V8H0z M22,21.5c0,0.3-0.2,0.5-0.5,0.5h-8c-0.3,0-0.5-0.2-0.5-0.5
			v-3c0-0.3,0.2-0.5,0.5-0.5h8c0.3,0,0.5,0.2,0.5,0.5V21.5z"/>
		<path d="M18.9,0.2C18.8,0.1,18.7,0,18.5,0H12v7h11.8L18.9,0.2z"/>
		<path d="M11,0H5.5C5.3,0,5.2,0.1,5.1,0.2L0.2,7H11V0z"/>
	</g>
</g>
<g id="Outline_Icons">
	<g>
		<rect x="0.5" y="7.5" class="st2" width="23" height="16"/>
		<polygon class="st2" points="23.5,7.5 0.5,7.5 5.5,0.5 18.5,0.5 		"/>
		<line class="st2" x1="11.5" y1="0.5" x2="11.5" y2="7.5"/>
		<rect x="13.5" y="18.5" class="st2" width="8" height="3"/>
	</g>
</g>
</svg>
