<?xml version="1.0" encoding="utf-8"?>
<!-- Generator: Adobe Illustrator 19.2.0, SVG Export Plug-In . SVG Version: 6.00 Build 0)  -->
<svg version="1.1" id="Layer_1" xmlns="http://www.w3.org/2000/svg" xmlns:xlink="http://www.w3.org/1999/xlink" x="0px" y="0px"
	 viewBox="0 0 24 24" style="enable-background:new 0 0 24 24;" xml:space="preserve">
<style type="text/css">
	.st0{display:none;}
	.st1{display:inline;}
	.st2{fill:none;stroke:#000000;stroke-linecap:round;stroke-linejoin:round;stroke-miterlimit:10;}
	.st3{fill:none;stroke:#000000;stroke-linejoin:round;stroke-miterlimit:10;}
</style>
<g id="Filled_Icon" class="st0">
	<g class="st1">
		<path d="M7,4V0H4.5C4.4,0,4.2,0.1,4.1,0.1L0.3,4H7z"/>
		<path d="M8,4h6.7l-3.9-3.9C10.8,0.1,10.6,0,10.5,0H8V4z"/>
		<path d="M7,12.5C7,11.7,7.7,11,8.5,11H15V5H0v10.5C0,15.8,0.2,16,0.5,16H7V12.5z"/>
		<g>
			<g>
				<path d="M19,17h4.6l-1.2-2.7C22.4,14.1,22.2,14,22,14h-3V17z"/>
				<path d="M10.5,22c0-1.7,1.3-3,3-3c1.7,0,3,1.3,3,3c0,0,0,0,0,0l1,0l0,0c0-0.6,0.2-1.2,0.5-1.7V14h0v-1.5c0-0.3-0.2-0.5-0.5-0.5
					h-9C8.2,12,8,12.2,8,12.5v9c0,0.1,0.1,0.3,0.1,0.4C8.2,22,8.4,22,8.5,22L10.5,22C10.5,22,10.5,22,10.5,22z"/>
				<path d="M19,19.4c0.4-0.3,1-0.4,1.5-0.4c1.7,0,3,1.3,3,3c0.3,0,0.5-0.2,0.5-0.5l0-3.5h-5V19.4z"/>
			</g>
			<circle cx="20.5" cy="22" r="2"/>
			<circle cx="13.5" cy="22" r="2"/>
		</g>
	</g>
</g>
<g id="Outline_Icons">
	<g>
		<polyline class="st2" points="6.5,15.5 0.5,15.5 0.5,4.5 14.5,4.5 14.5,9.5 		"/>
		<polygon class="st2" points="14.5,4.5 0.5,4.5 4.5,0.5 10.5,0.5 		"/>
		<line class="st2" x1="7.5" y1="0.5" x2="7.5" y2="4.5"/>
		<path class="st3" d="M17.5,14.5H22l1.5,4c0,0,0,1,0,1.5s0,1.5,0,1.5h-1.6"/>
		<polyline class="st3" points="14.9,21.5 17.5,21.5 17.5,12.5 8.5,12.5 8.5,21.5 12.1,21.5 		"/>
		<circle class="st3" cx="20.5" cy="22" r="1.5"/>
		<circle class="st3" cx="13.5" cy="22" r="1.5"/>
		<line class="st3" x1="17.5" y1="18.5" x2="23.5" y2="18.5"/>
		<line class="st3" x1="17.4" y1="21.5" x2="19.1" y2="21.5"/>
	</g>
</g>
</svg>
