<?xml version="1.0" encoding="utf-8"?>
<!-- Generator: Adobe Illustrator 19.2.0, SVG Export Plug-In . SVG Version: 6.00 Build 0)  -->
<svg version="1.1" id="Layer_1" xmlns="http://www.w3.org/2000/svg" xmlns:xlink="http://www.w3.org/1999/xlink" x="0px" y="0px"
	 viewBox="0 0 24 24" style="enable-background:new 0 0 24 24;" xml:space="preserve">
<style type="text/css">
	.st0{display:none;}
	.st1{display:inline;}
	.st2{fill:none;stroke:#000000;stroke-linejoin:round;stroke-miterlimit:10;}
	.st3{fill:none;stroke:#000000;stroke-linecap:round;stroke-linejoin:round;stroke-miterlimit:10;}
</style>
<g id="Filled_Icon" class="st0">
	<g class="st1">
		<g>
			<path d="M14,21v2.5c0,0.3,0.2,0.5,0.5,0.5h6c0.3,0,0.5-0.2,0.5-0.5V21H14z"/>
			<path d="M23.7,6.5c-0.1,0-0.7-0.2-1.5,0.3c-1.1,0.8-1.7,2.8-1.7,6.1l-1.6,1.6l0.3-1.3c0.3-1.1-0.2-1.8-0.8-2
				c-0.5-0.2-1.3-0.1-1.8,0.7c-0.7,1.1-1.6,4-1.6,4.1c0,0,0,0.1,0,0.1v4h5v-0.8c0.6-0.6,3.1-3.1,3.9-3.8c0.1-0.1,0.1-0.2,0.1-0.4
				V6.9C24,6.7,23.9,6.5,23.7,6.5z"/>
		</g>
		<g>
			<path d="M4,20h5v-4c0,0,0-0.1,0-0.1c0-0.1-0.9-3-1.6-4.1c-0.5-0.8-1.3-0.9-1.8-0.7c-0.6,0.2-1,1-0.8,2l0.3,1.3l-1.6-1.6
				c0-3.2-0.6-5.3-1.7-6.1C1.1,6.2,0.4,6.4,0.3,6.5C0.1,6.5,0,6.7,0,6.9V15c0,0.2,0.1,0.3,0.2,0.4C1,16.1,3.4,18.5,4,19.2V20z"/>
			<path d="M3,21v2.5C3,23.8,3.2,24,3.5,24h6c0.3,0,0.5-0.2,0.5-0.5V21H3z"/>
		</g>
		<g>
			<path d="M11.5,6.8L6,3.8v5.7c0,0.2,0.1,0.4,0.3,0.4l5.2,2.9V6.8z"/>
			<path d="M12,5.9l5.5-3l-5.3-2.9c-0.1-0.1-0.3-0.1-0.5,0L6.5,2.9L12,5.9z"/>
			<path d="M12.5,6.8v6l5.2-2.9C17.9,9.9,18,9.7,18,9.5V3.8L12.5,6.8z"/>
		</g>
	</g>
</g>
<g id="Outline_Icons">
	<g>
		<rect x="14.5" y="20.5" class="st2" width="6" height="3"/>
		<path class="st3" d="M19.5,20.5V19c0,0,3.2-3.2,4-4c0-1.4,0-8.1,0-8.1S21,6,21,13l-3,3l0.7-3c0.3-1.4-1-2.1-1.7-0.9
			c-0.7,1-1.5,4-1.5,4v4.5"/>
		<rect x="3.5" y="20.5" class="st2" width="6" height="3"/>
		<path class="st3" d="M4.5,20.5V19c0,0-3-3.2-4-4c0-1.4,0-8.1,0-8.1S3,6,3,13l3,3l-0.7-3c-0.3-1.4,1-2.1,1.7-0.9c0.7,1,1.5,4,1.5,4
			v4.5"/>
		<polygon class="st2" points="11.5,6.5 6.5,3.5 6.5,9.5 11.5,12.5 17.5,9.5 17.5,3.5 		"/>
		<polygon class="st2" points="12,0.5 6.5,3.5 11.5,6.5 17.5,3.5 		"/>
		<line class="st2" x1="11.5" y1="6.5" x2="11.5" y2="12.5"/>
	</g>
</g>
</svg>
