<?xml version="1.0" encoding="utf-8"?>
<!-- Generator: Adobe Illustrator 19.2.0, SVG Export Plug-In . SVG Version: 6.00 Build 0)  -->
<svg version="1.1" id="Layer_1" xmlns="http://www.w3.org/2000/svg" xmlns:xlink="http://www.w3.org/1999/xlink" x="0px" y="0px"
	 viewBox="0 0 24 24" style="enable-background:new 0 0 24 24;" xml:space="preserve">
<style type="text/css">
	.st0{display:none;}
	.st1{display:inline;}
	.st2{fill:none;stroke:#000000;stroke-linejoin:round;stroke-miterlimit:10;}
	.st3{fill:none;stroke:#000000;stroke-linecap:round;stroke-linejoin:round;stroke-miterlimit:10;}
</style>
<g id="Filled_Icon" class="st0">
	<g class="st1">
		<g>
			<path d="M7,4V0H4.5C4.4,0,4.2,0.1,4.1,0.1L0.3,4H7z"/>
			<path d="M8,4h6.7l-3.9-3.9C10.8,0.1,10.6,0,10.5,0H8V4z"/>
			<path d="M15,8.1V5H0v10.5C0,15.8,0.2,16,0.5,16H8C8.3,12.1,11.2,8.8,15,8.1z"/>
		</g>
		<path d="M16.5,9C12.4,9,9,12.4,9,16.5c0,4.1,3.4,7.5,7.5,7.5c4.1,0,7.5-3.4,7.5-7.5C24,12.4,20.6,9,16.5,9z M20.7,14.9l-4.5,4.9
			C16.1,19.9,16,20,15.9,20c0,0,0,0,0,0c-0.1,0-0.3-0.1-0.4-0.1l-3.2-3.2c-0.2-0.2-0.2-0.5,0-0.7c0.2-0.2,0.5-0.2,0.7,0l2.8,2.8
			l4.1-4.5c0.2-0.2,0.5-0.2,0.7,0C20.9,14.4,20.9,14.7,20.7,14.9z"/>
	</g>
</g>
<g id="Outline_Icons">
	<g>
		<g>
			<circle class="st2" cx="16.5" cy="16.5" r="7"/>
			<polyline class="st3" points="20.3,14.6 15.9,19.5 12.7,16.3 			"/>
		</g>
		<polyline class="st3" points="6.5,15.5 0.5,15.5 0.5,4.5 14.5,4.5 14.5,6.5 		"/>
		<polygon class="st3" points="14.5,4.5 0.5,4.5 4.5,0.5 10.5,0.5 		"/>
		<line class="st3" x1="7.5" y1="0.5" x2="7.5" y2="4.5"/>
	</g>
</g>
</svg>
