<?xml version="1.0" encoding="utf-8"?>
<!-- Generator: Adobe Illustrator 19.2.0, SVG Export Plug-In . SVG Version: 6.00 Build 0)  -->
<svg version="1.1" id="Layer_1" xmlns="http://www.w3.org/2000/svg" xmlns:xlink="http://www.w3.org/1999/xlink" x="0px" y="0px"
	 viewBox="0 0 24 24" style="enable-background:new 0 0 24 24;" xml:space="preserve">
<style type="text/css">
	.st0{display:none;}
	.st1{display:inline;}
	.st2{fill:none;stroke:#000000;stroke-linecap:round;stroke-linejoin:round;stroke-miterlimit:10;}
</style>
<g id="Filled_Icons" class="st0">
	<g class="st1">
		<path d="M10.5,12h-10C0.2,12,0,12.2,0,12.5v10C0,22.8,0.2,23,0.5,23h10c0.3,0,0.5-0.2,0.5-0.5v-10C11,12.2,10.8,12,10.5,12z
			 M5.5,15H3v2.5C3,17.8,2.8,18,2.5,18C2.2,18,2,17.8,2,17.5v-3C2,14.2,2.2,14,2.5,14h3C5.8,14,6,14.2,6,14.5C6,14.8,5.8,15,5.5,15z
			"/>
		<path d="M23.5,12h-10c-0.3,0-0.5,0.2-0.5,0.5v10c0,0.3,0.2,0.5,0.5,0.5h10c0.3,0,0.5-0.2,0.5-0.5v-10C24,12.2,23.8,12,23.5,12z
			 M18.5,15H16v2.5c0,0.3-0.2,0.5-0.5,0.5c-0.3,0-0.5-0.2-0.5-0.5v-3c0-0.3,0.2-0.5,0.5-0.5h3c0.3,0,0.5,0.2,0.5,0.5
			C19,14.8,18.8,15,18.5,15z"/>
		<path d="M7.5,11h10c0.3,0,0.5-0.2,0.5-0.5v-10C18,0.2,17.8,0,17.5,0h-10C7.2,0,7,0.2,7,0.5v10C7,10.8,7.2,11,7.5,11z M9,2.5
			C9,2.2,9.2,2,9.5,2h3C12.8,2,13,2.2,13,2.5C13,2.8,12.8,3,12.5,3H10v2.5C10,5.8,9.8,6,9.5,6C9.2,6,9,5.8,9,5.5V2.5z"/>
	</g>
</g>
<g id="Outline_Icons">
	<g>
		<rect x="0.5" y="12.5" class="st2" width="10" height="10"/>
		<rect x="13.5" y="12.5" class="st2" width="10" height="10"/>
		<rect x="7.5" y="0.5" class="st2" width="10" height="10"/>
		<polyline class="st2" points="2.5,17.5 2.5,14.5 5.5,14.5 		"/>
		<polyline class="st2" points="9.5,5.5 9.5,2.5 12.5,2.5 		"/>
		<polyline class="st2" points="15.5,17.5 15.5,14.5 18.5,14.5 		"/>
	</g>
</g>
</svg>
