<?xml version="1.0" encoding="utf-8"?>
<!-- Generator: Adobe Illustrator 19.2.0, SVG Export Plug-In . SVG Version: 6.00 Build 0)  -->
<svg version="1.1" id="Layer_1" xmlns="http://www.w3.org/2000/svg" xmlns:xlink="http://www.w3.org/1999/xlink" x="0px" y="0px"
	 viewBox="0 0 24 24" style="enable-background:new 0 0 24 24;" xml:space="preserve">
<style type="text/css">
	.st0{display:none;}
	.st1{display:inline;}
	.st2{fill:none;stroke:#000000;stroke-linecap:round;stroke-linejoin:round;stroke-miterlimit:10;}
</style>
<g id="Filled_Icons" class="st0">
	<g class="st1">
		<path d="M18,8.6v-6L13,4v7l4.7-1.9C17.9,9,18,8.8,18,8.6z"/>
		<path d="M12.5,3.1C12.5,3.1,12.5,3.1,12.5,3.1l5.2-1.4c0,0,0,0,0,0l-5-1.5c-0.1,0-0.2,0-0.3,0l-5,1.5c0,0,0,0,0,0L12.5,3.1
			C12.5,3.1,12.5,3.1,12.5,3.1z"/>
		<path d="M7.3,9.1L12,11V4L7,2.6v6C7,8.8,7.1,9,7.3,9.1z"/>
		<path d="M14,17.1c0,0.2,0.1,0.4,0.3,0.4l3.7,1.9v-5l-4-1.4V17.1z"/>
		<path d="M22.7,12.2l-4-1.5c-0.1,0-0.2,0-0.4,0l-4,1.5c0,0,0,0,0,0l4.2,1.4c0,0,0,0,0,0c0,0,0,0,0,0L22.7,12.2
			C22.7,12.2,22.7,12.2,22.7,12.2z"/>
		<path d="M19,14.5v5l3.7-1.9c0.2-0.1,0.3-0.3,0.3-0.4v-4L19,14.5z"/>
		<path d="M6.7,11.2c-0.1,0-0.2,0-0.3,0L1,13l5.5,2.2L12,13L6.7,11.2z"/>
		<path d="M0,21.6c0,0.2,0.1,0.4,0.3,0.5L6,24v-8l-6-2.3V21.6z"/>
		<path d="M7,24l5.7-1.9c0.2-0.1,0.3-0.3,0.3-0.5v-8L7,16V24z"/>
	</g>
</g>
<g id="Outline_Icons">
	<g>
		<polygon class="st2" points="12.5,10.5 17.5,8.5 17.5,2 12.5,3.5 7.5,2 7.5,8.5 		"/>
		<polyline class="st2" points="17.5,2 12.5,0.5 7.5,2 		"/>
		<line class="st2" x1="12.5" y1="3.5" x2="12.5" y2="10.5"/>
		<polygon class="st2" points="18.5,19 22.5,17 22.5,12.5 18.5,14 14.5,12.5 14.5,17 		"/>
		<polyline class="st2" points="22.5,12.5 18.5,11 14.5,12.5 		"/>
		<line class="st2" x1="18.5" y1="14" x2="18.5" y2="19"/>
		<polygon class="st2" points="6.5,23.5 12.5,21.5 12.5,13.5 6.5,15.5 0.5,13.5 0.5,21.5 		"/>
		<polyline class="st2" points="12.5,13.5 6.5,11.5 0.5,13.5 		"/>
		<line class="st2" x1="6.5" y1="15.5" x2="6.5" y2="23.5"/>
	</g>
</g>
</svg>
