<?xml version="1.0" encoding="utf-8"?>
<!-- Generator: Adobe Illustrator 19.2.0, SVG Export Plug-In . SVG Version: 6.00 Build 0)  -->
<svg version="1.1" id="Layer_1" xmlns="http://www.w3.org/2000/svg" xmlns:xlink="http://www.w3.org/1999/xlink" x="0px" y="0px"
	 viewBox="0 0 24 24" style="enable-background:new 0 0 24 24;" xml:space="preserve">
<style type="text/css">
	.st0{display:none;}
	.st1{display:inline;}
	.st2{fill:none;stroke:#000000;stroke-linecap:round;stroke-linejoin:round;stroke-miterlimit:10;}
	.st3{fill:none;stroke:#000000;stroke-linejoin:round;stroke-miterlimit:10;}
</style>
<g id="Filled_Icons" class="st0">
	<path class="st1" d="M21.2,2.2C19.9,0.8,18.1,0,16.2,0H9.5C7,0,5,2,5,4.4c0,0,0,0,0,0.1v4C5,10.2,6.2,11,8.5,11h7
		c1.3,0,2.5-0.4,2.5-3.5C18,7.2,18.2,7,18.5,7C18.8,7,19,7.2,19,7.5c0,1.1,0,4.5-3.5,4.5h-7C5.7,12,4,10.7,4,8.5V5.2
		C3.7,5.1,3.4,5,3.1,5C2.2,5,1.5,5.2,1,5.7C0.4,6.3,0,7.3,0,8.5c0,6.3,3.7,8,5,8.4v4.6C5,22.9,6.1,24,7.5,24h10
		c1.4,0,2.5-1.1,2.5-2.5v-6.7c0.7-0.5,2.4-2.4,2.9-7.5C23.1,5.5,22.4,3.6,21.2,2.2z M14.4,22.4c-0.1,0.1-0.2,0.1-0.4,0.1H7
		c-0.3,0-0.5-0.2-0.5-0.5v-4.5C6.5,17.2,6.7,17,7,17h7c0.3,0,0.5,0.2,0.5,0.5V22C14.5,22.1,14.4,22.3,14.4,22.4z"/>
</g>
<g id="Outline_Icons">
	<g>
		<path class="st2" d="M5.5,8v0.7C5.5,7,4.7,5.6,3,5.5c-1.7-0.1-2.5,1.3-2.5,3l0,0c0,7.2,5,8,5,8v5c0,1.1,0.9,2,2,2h10
			c1.1,0,2-0.9,2-2v-6.9c0,0,2.3-1.3,2.9-7.3c0.3-3.6-2.5-6.8-6.2-6.8H9.5c-2.2,0-4,1.8-4,4v4c0,2.2,1.8,3,4,3h7c2.2,0,3-1.5,3-4"/>
		<rect x="5.5" y="16.5" class="st3" width="8" height="5"/>
	</g>
</g>
</svg>
