<?xml version="1.0" encoding="utf-8"?>
<!-- Generator: Adobe Illustrator 19.2.0, SVG Export Plug-In . SVG Version: 6.00 Build 0)  -->
<svg version="1.1" id="Layer_1" xmlns="http://www.w3.org/2000/svg" xmlns:xlink="http://www.w3.org/1999/xlink" x="0px" y="0px"
	 viewBox="0 0 24 24" style="enable-background:new 0 0 24 24;" xml:space="preserve">
<style type="text/css">
	.st0{display:none;}
	.st1{display:inline;}
	.st2{fill:none;stroke:#000000;stroke-linejoin:round;stroke-miterlimit:10;}
	.st3{fill:none;stroke:#000000;stroke-linecap:round;stroke-linejoin:round;stroke-miterlimit:10;}
</style>
<g id="Filled_Icons" class="st0">
	<path class="st1" d="M19.5,2.8c-4.9-2.4-9.9-2.4-14.9,0C3,3.5,2,5.1,2,6.9v10.6C2,21.1,4.9,24,8.5,24h7c3.6,0,6.5-2.9,6.5-6.5V6.8
		C22,5.1,21,3.5,19.5,2.8z M7,4.5C7,4.2,7.2,4,7.5,4h9C16.8,4,17,4.2,17,4.5v3C17,7.8,16.8,8,16.5,8h-9C7.2,8,7,7.8,7,7.5V4.5z
		 M19,11.2c0,1.3-0.6,2.5-1.6,3.4c-1,0.8-1.5,1.6-1.4,2.2c0.1,0.7,0.9,1.2,1.6,1.6c0.2,0.1,0.7,0.4,0.8,0.6c0.2,0.5,0.1,1-0.2,1.4
		C18,20.8,17.6,21,17.1,21H7c-0.5,0-1-0.2-1.2-0.7c-0.3-0.4-0.3-0.9-0.2-1.4c0.1-0.2,0.6-0.5,0.8-0.6c0.7-0.4,1.5-0.9,1.6-1.6
		c0-0.6-0.4-1.3-1.4-2.1c-1-0.8-1.6-2.1-1.6-3.4V9.5C5,9.2,5.2,9,5.5,9h13C18.8,9,19,9.2,19,9.5V11.2z"/>
	<g class="st1">
		<path d="M9.5,14C9.2,14,9,13.8,9,13.5v-2C9,11.2,9.2,11,9.5,11c0.3,0,0.5,0.2,0.5,0.5v2C10,13.8,9.8,14,9.5,14z"/>
	</g>
	<g class="st1">
		<path d="M14.5,14c-0.3,0-0.5-0.2-0.5-0.5v-2c0-0.3,0.2-0.5,0.5-0.5c0.3,0,0.5,0.2,0.5,0.5v2C15,13.8,14.8,14,14.5,14z"/>
	</g>
	<g class="st1">
		<path d="M13.5,18h-3c-0.3,0-0.5-0.2-0.5-0.5c0-0.3,0.2-0.5,0.5-0.5h3c0.3,0,0.5,0.2,0.5,0.5C14,17.8,13.8,18,13.5,18z"/>
	</g>
</g>
<g id="Outline_Icons">
	<g>
		<g>
			<path class="st2" d="M2.5,6.9c0-1.5,0.9-2.9,2.3-3.6c4.8-2.3,9.6-2.3,14.5,0c1.4,0.7,2.3,2.1,2.3,3.6v10.7c0,3.3-2.7,6-6,6h-7
				c-3.3,0-6-2.7-6-6V6.9z"/>
			<path class="st2" d="M5.5,9.5h13v1.7c0,1.2-0.5,2.3-1.4,3c-3.6,3.1-0.1,4.2,0.9,4.9c0.1,0.3,0.1,0.7-0.1,0.9
				c-0.2,0.3-0.5,0.4-0.8,0.4H7c-0.3,0-0.6-0.2-0.8-0.4c-0.2-0.3-0.2-0.6-0.1-0.9c1-0.8,4.4-1.9,0.9-4.9c-0.9-0.8-1.4-1.8-1.4-3V9.5
				z"/>
			<rect x="7.5" y="4.5" class="st2" width="9" height="3"/>
		</g>
		<line class="st3" x1="9.5" y1="11.5" x2="9.5" y2="13.5"/>
		<line class="st3" x1="14.5" y1="11.5" x2="14.5" y2="13.5"/>
		<line class="st3" x1="10.5" y1="17.5" x2="13.5" y2="17.5"/>
	</g>
</g>
</svg>
