<?xml version="1.0" encoding="utf-8"?>
<!-- Generator: Adobe Illustrator 19.2.0, SVG Export Plug-In . SVG Version: 6.00 Build 0)  -->
<svg version="1.1" id="Layer_1" xmlns="http://www.w3.org/2000/svg" xmlns:xlink="http://www.w3.org/1999/xlink" x="0px" y="0px"
	 viewBox="0 0 24 24" enable-background="new 0 0 24 24" xml:space="preserve">
<g id="Filled_Icons" display="none">
	<path display="inline" d="M22.5,11.34V4.006c0-0.552-0.447-1-1-1c-0.553,0-1,0.448-1,1v6.972c-4.301,2.4-7.26,5.829-8.5,7.44
		c-1.15-1.482-4.171-5.016-8.5-7.438V4.006c0-0.552-0.447-1-1-1c-0.553,0-1,0.448-1,1v7.334C0.553,12.52,0,14.184,0,15.984
		c0,3.684,2.996,6.679,6.679,6.679c2.085,0,4.059-0.968,5.321-2.558c1.262,1.59,3.234,2.558,5.32,2.558
		c3.684,0,6.68-2.995,6.68-6.679C24,14.184,23.447,12.522,22.5,11.34z"/>
</g>
<g id="Outline_Icons">
	<g>
		<path fill="none" stroke="#000000" stroke-linejoin="round" stroke-miterlimit="10" d="M21.5,11
			c-4.951,2.52-8.356,6.659-9.5,8.246c1.091,1.747,3.109,2.91,5.32,2.91c3.412,0,6.18-2.766,6.18-6.178
			C23.5,14.091,22.834,12.133,21.5,11z"/>
		<path fill="none" stroke="#000000" stroke-linejoin="round" stroke-miterlimit="10" d="M2.5,11c4.949,2.52,8.357,6.659,9.5,8.246
			c-1.091,1.747-3.108,2.91-5.321,2.91c-3.411,0-6.179-2.766-6.179-6.178C0.5,14.091,1.164,12.133,2.5,11z"/>
		
			<line fill="none" stroke="#000000" stroke-linecap="round" stroke-linejoin="round" stroke-miterlimit="10" x1="2.5" y1="11" x2="2.5" y2="4"/>
		
			<line fill="none" stroke="#000000" stroke-linecap="round" stroke-linejoin="round" stroke-miterlimit="10" x1="21.5" y1="11" x2="21.5" y2="4"/>
	</g>
</g>
</svg>
