<?xml version="1.0" encoding="utf-8"?>
<!-- Generator: Adobe Illustrator 19.2.0, SVG Export Plug-In . SVG Version: 6.00 Build 0)  -->
<svg version="1.1" id="Layer_1" xmlns="http://www.w3.org/2000/svg" xmlns:xlink="http://www.w3.org/1999/xlink" x="0px" y="0px"
	 viewBox="0 0 24 24" enable-background="new 0 0 24 24" xml:space="preserve">
<g id="Filled_Icons" display="none">
	<g display="inline">
		<g>
			<path d="M10.038,17.006c-0.024-0.162-0.038-0.33-0.038-0.5c0-3.031,2.468-5.5,5.5-5.5h2.505l3.974-3.979
				c1.365-1.365,1.365-3.585,0-4.951c-1.365-1.364-3.586-1.362-4.949,0L15.79,3.317l0.06-0.029c0.209,0.429,0.59,0.765,0.924,1.062
				c0.438,0.388,0.851,0.753,0.856,1.292c0.004,0.34-0.159,0.657-0.498,0.972c-0.288,0.269-0.664,0.409-1.093,0.409
				c-0.954,0-1.912-0.686-2.537-1.416l-2.457,2.455L11.1,8.034c0.208,0.431,0.588,0.768,0.924,1.065
				c0.437,0.388,0.85,0.753,0.855,1.292c0.004,0.339-0.158,0.657-0.498,0.972c-0.288,0.268-0.664,0.408-1.093,0.408
				c-0.954,0-1.912-0.686-2.537-1.416l-2.206,2.206L6.6,12.534c0.208,0.431,0.588,0.769,0.924,1.065
				c0.437,0.387,0.85,0.752,0.855,1.291c0.004,0.34-0.159,0.657-0.498,0.973c-0.288,0.268-0.664,0.408-1.093,0.408
				c-0.954,0-1.912-0.687-2.537-1.416l-1.364,1.363c-0.233,0.233-0.419,0.504-0.576,0.786L10.038,17.006L10.038,17.006z"/>
		</g>
		<g>
			<path d="M22.949,17.006c0.033-0.16,0.051-0.328,0.051-0.5c0-2.449-1.971-4.44-4.408-4.49l0.31,0.591
				c0.043,0.092,0.814,1.779,0.242,3.609c-0.066,0.215-0.265,0.352-0.477,0.352c-0.049,0-0.101-0.008-0.149-0.022
				c-0.264-0.082-0.41-0.362-0.328-0.626c0.455-1.453-0.178-2.855-0.186-2.87l-0.545-1.043H16.57l0.326,0.593
				c0.047,0.101,0.818,1.787,0.248,3.619c-0.067,0.213-0.266,0.35-0.478,0.35c-0.049,0-0.1-0.006-0.148-0.021
				c-0.265-0.082-0.41-0.361-0.328-0.626c0.453-1.452-0.18-2.856-0.187-2.87l-0.442-0.802c-0.041-0.077-0.055-0.159-0.055-0.241
				H15.5c-0.303,0-0.596,0.033-0.88,0.089l0.276,0.502c0.047,0.102,0.818,1.789,0.248,3.619c-0.067,0.215-0.266,0.352-0.478,0.352
				c-0.049,0-0.1-0.008-0.148-0.022c-0.265-0.082-0.41-0.362-0.328-0.626c0.453-1.453-0.18-2.856-0.187-2.869l-0.351-0.637
				C12.093,13.121,11,14.686,11,16.506c0,0.172,0.018,0.34,0.051,0.5H22.949z"/>
		</g>
		<path d="M23.962,18.315c-0.077-0.188-0.26-0.31-0.462-0.31h-23c-0.202,0-0.385,0.122-0.462,0.31
			c-0.077,0.187-0.034,0.401,0.108,0.545l5,5c0.094,0.094,0.221,0.146,0.354,0.146h13c0.133,0,0.26-0.053,0.353-0.146l5-5
			C23.996,18.717,24.039,18.502,23.962,18.315z"/>
	</g>
</g>
<g id="Outline_Icons">
	<g>
		<polygon fill="none" stroke="#000000" stroke-linejoin="round" stroke-miterlimit="10" points="0.5,18.5 23.5,18.5 18.5,23.5 
			5.5,23.5 		"/>
		<path fill="none" stroke="#000000" stroke-linejoin="round" stroke-miterlimit="10" d="M11.5,16.5c0-2.209,1.791-4,4-4h3
			c2.209,0,4,1.791,4,4c0,1.104-0.897,2-2,2h-7C12.396,18.5,11.5,17.604,11.5,16.5z"/>
		<path fill="none" stroke="#000000" stroke-linecap="round" stroke-linejoin="round" stroke-miterlimit="10" d="M14.667,16.063
			c0.52-1.668-0.209-3.23-0.209-3.23l-0.092-0.168"/>
		<path fill="none" stroke="#000000" stroke-linecap="round" stroke-linejoin="round" stroke-miterlimit="10" d="M16.667,16.063
			c0.52-1.668-0.209-3.23-0.209-3.23L16.342,12.5"/>
		<path fill="none" stroke="#000000" stroke-linecap="round" stroke-linejoin="round" stroke-miterlimit="10" d="M18.667,16.063
			c0.52-1.668-0.209-3.23-0.209-3.23L18.305,12.5"/>
		
			<line fill="none" stroke="#000000" stroke-linejoin="round" stroke-miterlimit="10" x1="9.792" y1="18.5" x2="11.524" y2="16.809"/>
		<path fill="none" stroke="#000000" stroke-linejoin="round" stroke-miterlimit="10" d="M15.812,12.5l5.813-5.834
			c1.172-1.172,1.172-3.07,0-4.242c-1.172-1.171-3.07-1.171-4.242,0L3.24,16.566c-0.537,0.537-0.829,1.228-0.872,1.932"/>
		<path fill="none" stroke="#000000" stroke-linejoin="round" stroke-miterlimit="10" d="M9.443,10.348
			c0.945,1.207,2.347,1.75,3.041,1.105c1.086-1.01-0.74-1.394-1.392-2.745"/>
		<path fill="none" stroke="#000000" stroke-linejoin="round" stroke-miterlimit="10" d="M14.193,5.598
			c0.945,1.207,2.347,1.75,3.041,1.105c1.084-1.008-0.735-1.393-1.393-2.74"/>
		<path fill="none" stroke="#000000" stroke-linejoin="round" stroke-miterlimit="10" d="M4.943,14.848
			c0.945,1.207,2.347,1.75,3.041,1.105c1.087-1.01-0.74-1.395-1.392-2.745"/>
	</g>
</g>
</svg>
