<?xml version="1.0" encoding="utf-8"?>
<!-- Generator: Adobe Illustrator 19.2.0, SVG Export Plug-In . SVG Version: 6.00 Build 0)  -->
<svg version="1.1" id="Layer_1" xmlns="http://www.w3.org/2000/svg" xmlns:xlink="http://www.w3.org/1999/xlink" x="0px" y="0px"
	 viewBox="0 0 24 24" enable-background="new 0 0 24 24" xml:space="preserve">
<g id="Filled_Icons" display="none">
	<g display="inline">
		<path d="M11.5,13.006c1.93,0,3.5-1.57,3.5-3.5c0-1.881-2.016-4.5-4-4.5H4.5c-2.481,0-4.5,2.02-4.5,4.5
			c0,2.604,1.061,4.193,2.93,4.457l-0.925,6.473c-0.021,0.145,0.022,0.289,0.117,0.398c0.095,0.109,0.232,0.172,0.378,0.172h9.434
			l-0.93-7.438C10.957,13.326,11.163,13.006,11.5,13.006z"/>
		<path d="M19.5,5.006h-5.928C14.984,6.116,16,7.955,16,9.506c0,1.413-0.656,2.675-1.68,3.5h8.002C23.344,12.181,24,10.919,24,9.506
			C24,7.025,21.98,5.006,19.5,5.006z"/>
		<path d="M12.066,14.006l0.875,7H20.5c0.144,0,0.282-0.062,0.378-0.172c0.095-0.109,0.138-0.255,0.117-0.398l-0.919-6.43H12.066z"
			/>
	</g>
</g>
<g id="Outline_Icons">
	<g>
		<path fill="none" stroke="#000000" stroke-linecap="round" stroke-linejoin="round" stroke-miterlimit="10" d="M3.5,13.5
			c-2.208,0-3-1.791-3-4s1.792-4,4-4h7c2.209,0,4,1.791,4,4s-1.791,4-4,4l1,7"/>
		<path fill="none" stroke="#000000" stroke-linecap="round" stroke-linejoin="round" stroke-miterlimit="10" d="M3.5,13.5l-1,7h18
			l-1-7c2.209,0,4-1.791,4-4s-1.791-4-4-4h-8"/>
		
			<line fill="none" stroke="#000000" stroke-linecap="round" stroke-linejoin="round" stroke-miterlimit="10" x1="11.5" y1="13.5" x2="19.5" y2="13.5"/>
	</g>
</g>
</svg>
