<?xml version="1.0" encoding="utf-8"?>
<!-- Generator: Adobe Illustrator 19.2.0, SVG Export Plug-In . SVG Version: 6.00 Build 0)  -->
<svg version="1.1" id="Layer_1" xmlns="http://www.w3.org/2000/svg" xmlns:xlink="http://www.w3.org/1999/xlink" x="0px" y="0px"
	 viewBox="0 0 24 24" enable-background="new 0 0 24 24" xml:space="preserve">
<g id="Filled_Icons" display="none">
	<g display="inline">
		<path d="M17.898,20.945c-0.127,0.035-0.26,0.061-0.398,0.061h-2.371l-1.513,1.514c-0.294,0.293-0.677,0.438-1.061,0.438
			c-0.384,0-0.768-0.145-1.061-0.438c-0.586-0.586-0.586-1.535,0-2.121L13,18.893v-2.387c0-0.828,0.672-1.5,1.5-1.5
			c0.176,0,0.343,0.036,0.5,0.092v-0.592c0-0.828,0.672-1.5,1.5-1.5c0.164,0,0.318,0.036,0.468,0.086c0,0,0.017-0.941,0.082-0.949
			c0.163-0.652,0.748-1.137,1.45-1.137c0.176,0,0.343,0.036,0.5,0.092v-0.592c0-0.828,0.672-1.5,1.5-1.5
			c0.271,0,0.516,0.09,0.734,0.217C21.717,8.319,22,7.264,22,6.105c0-3.363-2.71-6.1-6.1-6.1H6.041C2.71,0.006,0,2.742,0,6.105
			c0,3.275,2.173,5.792,5.141,6.074L3.805,23.447c-0.018,0.142,0.027,0.283,0.122,0.391c0.095,0.107,0.231,0.168,0.374,0.168h13.398
			c0.008,0.001,0.016,0.001,0.02,0c0.276,0,0.5-0.225,0.5-0.5c0-0.068-0.014-0.135-0.039-0.195L17.898,20.945z"/>
		<path d="M23.5,13.006h-1.785l1.083-1.082c0.195-0.196,0.195-0.513,0-0.708c-0.194-0.194-0.512-0.194-0.707,0L21,12.307v-1.801
			c0-0.276-0.225-0.5-0.5-0.5c-0.275,0-0.5,0.224-0.5,0.5v2.801l-1,1v-1.801c0-0.276-0.225-0.5-0.5-0.5c-0.275,0-0.5,0.224-0.5,0.5
			v2.801l-1,1v-1.801c0-0.275-0.225-0.5-0.5-0.5c-0.275,0-0.5,0.225-0.5,0.5v2.801l-1,1v-1.801c0-0.275-0.225-0.5-0.5-0.5
			c-0.275,0-0.5,0.225-0.5,0.5v2.801l-1.798,1.799c-0.195,0.194-0.195,0.512,0,0.707c0.098,0.098,0.226,0.145,0.354,0.145
			c0.127,0,0.256-0.049,0.354-0.145l1.806-1.807H17.5c0.275,0,0.5-0.225,0.5-0.5c0-0.275-0.225-0.5-0.5-0.5h-1.785l1-1H19.5
			c0.275,0,0.5-0.225,0.5-0.5c0-0.275-0.225-0.5-0.5-0.5h-1.785l1-1H21.5c0.275,0,0.5-0.225,0.5-0.5c0-0.275-0.225-0.5-0.5-0.5
			h-1.785l1-1H23.5c0.275,0,0.5-0.225,0.5-0.5C24,13.231,23.775,13.006,23.5,13.006z"/>
	</g>
</g>
<g id="Outline_Icons">
	<g>
		<g>
			
				<line fill="none" stroke="#000000" stroke-linecap="round" stroke-linejoin="round" stroke-miterlimit="10" x1="22.443" y1="11.563" x2="12.557" y2="21.452"/>
			<polyline fill="none" stroke="#000000" stroke-linecap="round" stroke-linejoin="round" stroke-miterlimit="10" points="
				20.5,10.5 20.5,13.5 23.5,13.5 			"/>
			<polyline fill="none" stroke="#000000" stroke-linecap="round" stroke-linejoin="round" stroke-miterlimit="10" points="
				18.5,12.5 18.5,15.5 21.5,15.5 			"/>
			<polyline fill="none" stroke="#000000" stroke-linecap="round" stroke-linejoin="round" stroke-miterlimit="10" points="
				16.5,14.5 16.5,17.5 19.5,17.5 			"/>
			<polyline fill="none" stroke="#000000" stroke-linecap="round" stroke-linejoin="round" stroke-miterlimit="10" points="
				14.5,16.5 14.5,19.5 17.5,19.5 			"/>
		</g>
		<path fill="none" stroke="#000000" stroke-linecap="round" stroke-linejoin="round" stroke-miterlimit="10" d="M21.121,8.129
			C21.366,7.5,21.5,6.815,21.5,6.101c0-3.093-2.506-5.601-5.6-5.601H6.041C2.951,0.5,0.5,3.008,0.5,6.101c0,3.092,2.109,5.6,5.2,5.6
			L4.301,23.5h14"/>
	</g>
</g>
</svg>
