<?xml version="1.0" encoding="utf-8"?>
<!-- Generator: Adobe Illustrator 19.2.0, SVG Export Plug-In . SVG Version: 6.00 Build 0)  -->
<svg version="1.1" id="Layer_1" xmlns="http://www.w3.org/2000/svg" xmlns:xlink="http://www.w3.org/1999/xlink" x="0px" y="0px"
	 viewBox="0 0 24 24" enable-background="new 0 0 24 24" xml:space="preserve">
<g id="Filled_Icons" display="none">
	<g display="inline">
		<path d="M6.5,16.006h-6c-0.276,0-0.5,0.223-0.5,0.5v4c0,0.275,0.224,0.5,0.5,0.5h6c0.276,0,0.5-0.225,0.5-0.5v-4
			C7,16.229,6.776,16.006,6.5,16.006z"/>
		<path d="M15.5,16.006h-7c-0.276,0-0.5,0.223-0.5,0.5v4c0,0.275,0.224,0.5,0.5,0.5h7c0.275,0,0.5-0.225,0.5-0.5v-4
			C16,16.229,15.775,16.006,15.5,16.006z"/>
		<path d="M7.5,9.006h9c0.275,0,0.5-0.225,0.5-0.5v-4c0-0.277-0.225-0.5-0.5-0.5h-9c-0.276,0-0.5,0.223-0.5,0.5v4
			C7,8.782,7.224,9.006,7.5,9.006z"/>
		<path d="M2.5,15.006h8c0.276,0,0.5-0.225,0.5-0.5v-4c0-0.277-0.224-0.5-0.5-0.5h-8c-0.276,0-0.5,0.223-0.5,0.5v4
			C2,14.781,2.224,15.006,2.5,15.006z"/>
		<path d="M23.5,16.006h-6c-0.275,0-0.5,0.223-0.5,0.5v4c0,0.275,0.225,0.5,0.5,0.5h6c0.275,0,0.5-0.225,0.5-0.5v-4
			C24,16.229,23.775,16.006,23.5,16.006z"/>
		<path d="M13,10.506v4c0,0.275,0.225,0.5,0.5,0.5h8c0.275,0,0.5-0.225,0.5-0.5v-4c0-0.277-0.225-0.5-0.5-0.5h-8
			C13.225,10.006,13,10.229,13,10.506z"/>
	</g>
</g>
<g id="Outline_Icons">
	<g>
		
			<rect x="0.5" y="16.5" fill="none" stroke="#000000" stroke-linecap="round" stroke-linejoin="round" stroke-miterlimit="10" width="6" height="4"/>
		
			<rect x="8.5" y="16.5" fill="none" stroke="#000000" stroke-linecap="round" stroke-linejoin="round" stroke-miterlimit="10" width="7" height="4"/>
		
			<rect x="7.5" y="4.5" fill="none" stroke="#000000" stroke-linecap="round" stroke-linejoin="round" stroke-miterlimit="10" width="9" height="4"/>
		
			<rect x="2.5" y="10.5" fill="none" stroke="#000000" stroke-linecap="round" stroke-linejoin="round" stroke-miterlimit="10" width="8" height="4"/>
		
			<rect x="17.5" y="16.5" fill="none" stroke="#000000" stroke-linecap="round" stroke-linejoin="round" stroke-miterlimit="10" width="6" height="4"/>
		
			<rect x="13.5" y="10.5" fill="none" stroke="#000000" stroke-linecap="round" stroke-linejoin="round" stroke-miterlimit="10" width="8" height="4"/>
	</g>
</g>
</svg>
