<?xml version="1.0" encoding="utf-8"?>
<!-- Generator: Adobe Illustrator 19.2.0, SVG Export Plug-In . SVG Version: 6.00 Build 0)  -->
<svg version="1.1" id="Layer_1" xmlns="http://www.w3.org/2000/svg" xmlns:xlink="http://www.w3.org/1999/xlink" x="0px" y="0px"
	 viewBox="0 0 24 24" style="enable-background:new 0 0 24 24;" xml:space="preserve">
<style type="text/css">
	.st0{display:none;}
	.st1{display:inline;}
	.st2{fill:none;stroke:#000000;stroke-linejoin:round;stroke-miterlimit:10;}
	.st3{fill:none;stroke:#000000;stroke-linecap:square;stroke-linejoin:round;stroke-miterlimit:10;}
</style>
<g id="Filled_Icons" class="st0">
	<path class="st1" d="M22.5,5H16V4V3V2c0-0.6-0.4-1-1-1H9C8.4,1,8,1.4,8,2v2v1H1.5C0.7,5,0,5.7,0,6.5v14C0,21.3,0.7,22,1.5,22h21
		c0.8,0,1.5-0.7,1.5-1.5v-14C24,5.7,23.3,5,22.5,5z M9,4h6v1H9V4z M21,18H3v-1h18V18z M21,14H3v-1h18V14z M21,10H3V9h18V10z"/>
</g>
<g id="Outline_Icons">
	<g>
		<path class="st2" d="M23.5,20.5c0,0.5-0.5,1-1,1h-21c-0.5,0-1-0.5-1-1v-14c0-0.5,0.5-1,1-1h21c0.5,0,1,0.5,1,1V20.5z"/>
		<path class="st2" d="M8.5,5.5V2c0-0.3,0.2-0.5,0.5-0.5h6c0.3,0,0.5,0.2,0.5,0.5v3.5"/>
		<line class="st2" x1="8.5" y1="3.5" x2="15.5" y2="3.5"/>
		<line class="st3" x1="3.5" y1="9.5" x2="20.5" y2="9.5"/>
		<line class="st3" x1="3.5" y1="13.5" x2="20.5" y2="13.5"/>
		<line class="st3" x1="3.5" y1="17.5" x2="20.5" y2="17.5"/>
	</g>
</g>
</svg>
