<?xml version="1.0" encoding="utf-8"?>
<!-- Generator: Adobe Illustrator 19.2.0, SVG Export Plug-In . SVG Version: 6.00 Build 0)  -->
<svg version="1.1" id="Layer_1" xmlns="http://www.w3.org/2000/svg" xmlns:xlink="http://www.w3.org/1999/xlink" x="0px" y="0px"
	 viewBox="0 0 24 24" style="enable-background:new 0 0 24 24;" xml:space="preserve">
<style type="text/css">
	.st0{display:none;}
	.st1{display:inline;}
	.st2{fill:none;stroke:#000000;stroke-linecap:round;stroke-linejoin:round;stroke-miterlimit:10;}
</style>
<g id="Filled_Icons" class="st0">
	<g class="st1">
		<path d="M12,7.5c-2.5,0-4.5,2-4.5,4.5c0,2.5,2,4.5,4.5,4.5c2.5,0,4.5-2,4.5-4.5C16.5,9.5,14.5,7.5,12,7.5z"/>
		<path d="M12,6c0.6,0,1-0.4,1-1V1c0-0.6-0.4-1-1-1c-0.6,0-1,0.4-1,1v4C11,5.6,11.4,6,12,6z"/>
		<path d="M12,18c-0.6,0-1,0.4-1,1v4c0,0.6,0.4,1,1,1c0.6,0,1-0.4,1-1v-4C13,18.4,12.6,18,12,18z"/>
		<path d="M6.5,7.4c0.2,0.2,0.5,0.3,0.7,0.3c0.3,0,0.5-0.1,0.7-0.3c0.4-0.4,0.4-1,0-1.4L5.1,3.2c-0.4-0.4-1-0.4-1.4,0
			c-0.4,0.4-0.4,1,0,1.4L6.5,7.4z"/>
		<path d="M17.5,16.6c-0.4-0.4-1-0.4-1.4,0s-0.4,1,0,1.4l2.8,2.8c0.2,0.2,0.5,0.3,0.7,0.3c0.3,0,0.5-0.1,0.7-0.3
			c0.4-0.4,0.4-1,0-1.4L17.5,16.6z"/>
		<path d="M6,12.5c0-0.6-0.4-1-1-1H1c-0.6,0-1,0.4-1,1c0,0.6,0.4,1,1,1h4C5.6,13.5,6,13.1,6,12.5z"/>
		<path d="M23,11.5h-4c-0.6,0-1,0.4-1,1c0,0.6,0.4,1,1,1h4c0.6,0,1-0.4,1-1C24,11.9,23.6,11.5,23,11.5z"/>
		<path d="M6.5,16.6l-2.8,2.8c-0.4,0.4-0.4,1,0,1.4c0.2,0.2,0.5,0.3,0.7,0.3c0.3,0,0.5-0.1,0.7-0.3L7.9,18c0.4-0.4,0.4-1,0-1.4
			C7.5,16.2,6.9,16.2,6.5,16.6z"/>
		<path d="M16.8,7.7c0.3,0,0.5-0.1,0.7-0.3l2.8-2.8c0.4-0.4,0.4-1,0-1.4c-0.4-0.4-1-0.4-1.4,0L16.1,6c-0.4,0.4-0.4,1,0,1.4
			C16.3,7.6,16.5,7.7,16.8,7.7z"/>
	</g>
</g>
<g id="Outline_Icons">
	<g>
		<circle class="st2" cx="12" cy="12" r="4"/>
		<line class="st2" x1="12.5" y1="0.5" x2="12.5" y2="4.5"/>
		<line class="st2" x1="12.5" y1="19.5" x2="12.5" y2="23.5"/>
		<line class="st2" x1="3.9" y1="3.9" x2="6.7" y2="6.7"/>
		<line class="st2" x1="17.3" y1="17.3" x2="20.1" y2="20.1"/>
		<line class="st2" x1="0.5" y1="12.5" x2="4.5" y2="12.5"/>
		<line class="st2" x1="19.5" y1="12.5" x2="23.5" y2="12.5"/>
		<line class="st2" x1="3.9" y1="20.1" x2="6.7" y2="17.3"/>
		<line class="st2" x1="17.3" y1="6.7" x2="20.1" y2="3.9"/>
	</g>
</g>
</svg>
