<?xml version="1.0" encoding="utf-8"?>
<!-- Generator: Adobe Illustrator 19.2.0, SVG Export Plug-In . SVG Version: 6.00 Build 0)  -->
<svg version="1.1" id="Layer_1" xmlns="http://www.w3.org/2000/svg" xmlns:xlink="http://www.w3.org/1999/xlink" x="0px" y="0px"
	 viewBox="0 0 24 24" style="enable-background:new 0 0 24 24;" xml:space="preserve">
<style type="text/css">
	.st0{display:none;}
	.st1{display:inline;}
	.st2{fill:none;stroke:#000000;stroke-linecap:round;stroke-linejoin:round;stroke-miterlimit:10;}
</style>
<g id="Filled_Icons" class="st0">
	<g class="st1">
		<path d="M11.5,9C10.1,9,9,10.1,9,11.5c0,1.4,1.1,2.5,2.5,2.5c1.4,0,2.5-1.1,2.5-2.5C14,10.1,12.9,9,11.5,9z"/>
		<path d="M8,11.5c0-0.6-0.4-1-1-1H5c-0.6,0-1,0.4-1,1c0,0.6,0.4,1,1,1h2C7.6,12.5,8,12.1,8,11.5z"/>
		<path d="M7.6,14l-1.4,1.4c-0.4,0.4-0.4,1,0,1.4c0.2,0.2,0.5,0.3,0.7,0.3c0.3,0,0.5-0.1,0.7-0.3L9,15.4c0.4-0.4,0.4-1,0-1.4
			C8.6,13.6,8,13.6,7.6,14z"/>
		<path d="M11.5,15c-0.6,0-1,0.4-1,1v2c0,0.6,0.4,1,1,1c0.6,0,1-0.4,1-1v-2C12.5,15.4,12.1,15,11.5,15z"/>
		<path d="M15.4,14c-0.4-0.4-1-0.4-1.4,0c-0.4,0.4-0.4,1,0,1.4l1.4,1.4c0.2,0.2,0.5,0.3,0.7,0.3c0.3,0,0.5-0.1,0.7-0.3
			c0.4-0.4,0.4-1,0-1.4L15.4,14z"/>
		<path d="M18,10.5l-2,0l0,0c-0.6,0-1,0.4-1,1c0,0.6,0.4,1,1,1l2,0l0,0c0.6,0,1-0.4,1-1C19,10.9,18.6,10.5,18,10.5z"/>
		<path d="M14.7,9.3c0.3,0,0.5-0.1,0.7-0.3l1.4-1.4c0.4-0.4,0.4-1,0-1.4c-0.4-0.4-1-0.4-1.4,0L14,7.6c-0.4,0.4-0.4,1,0,1.4
			C14.2,9.2,14.4,9.3,14.7,9.3z"/>
		<path d="M11.5,8c0.6,0,1-0.4,1-1V5c0-0.6-0.4-1-1-1c-0.6,0-1,0.4-1,1v2C10.5,7.6,10.9,8,11.5,8z"/>
		<path d="M7.6,9c0.2,0.2,0.5,0.3,0.7,0.3C8.6,9.3,8.8,9.2,9,9c0.4-0.4,0.4-1,0-1.4L7.6,6.2c-0.4-0.4-1-0.4-1.4,0
			c-0.4,0.4-0.4,1,0,1.4L7.6,9z"/>
	</g>
</g>
<g id="Outline_Icons">
	<g>
		<circle class="st2" cx="11.5" cy="11.5" r="2"/>
		<line class="st2" x1="5" y1="11.5" x2="7" y2="11.5"/>
		<line class="st2" x1="6.9" y1="16.1" x2="8.3" y2="14.7"/>
		<line class="st2" x1="11.5" y1="18" x2="11.5" y2="16"/>
		<line class="st2" x1="16.1" y1="16.1" x2="14.7" y2="14.7"/>
		<line class="st2" x1="18" y1="11.5" x2="16" y2="11.5"/>
		<line class="st2" x1="16.1" y1="6.9" x2="14.7" y2="8.3"/>
		<line class="st2" x1="11.5" y1="5" x2="11.5" y2="7"/>
		<line class="st2" x1="6.9" y1="6.9" x2="8.3" y2="8.3"/>
	</g>
</g>
</svg>
