<?xml version="1.0" encoding="utf-8"?>
<!-- Generator: Adobe Illustrator 19.2.0, SVG Export Plug-In . SVG Version: 6.00 Build 0)  -->
<svg version="1.1" id="Layer_1" xmlns="http://www.w3.org/2000/svg" xmlns:xlink="http://www.w3.org/1999/xlink" x="0px" y="0px"
	 viewBox="0 0 24 24" enable-background="new 0 0 24 24" xml:space="preserve">
<g id="Filled_Icons" display="none">
	<g display="inline">
		<g>
			<path d="M21.656,10.135c-0.395-0.393-0.861-0.705-1.393-0.93c0.145-1.483-0.377-2.961-1.438-4.021
				c-1.059-1.058-2.532-1.581-4.02-1.436c-0.226-0.531-0.537-0.998-0.931-1.392c-1.756-1.756-4.612-1.754-6.364,0
				c-0.476,0.48-0.829,1.05-1.051,1.703c-0.689,0.069-1.738,0.383-2.836,1.48C2.681,6.483,2.16,7.738,2.16,9.074
				c0,1.335,0.521,2.591,1.465,3.536c0.17,0.17,0.383,0.33,0.604,0.475c0.839-1.16,1.579-2.484,2.083-4.094
				c-0.428-0.224-0.81-0.537-1.104-0.932c-0.165-0.223-0.119-0.535,0.103-0.7c0.22-0.166,0.533-0.12,0.7,0.102
				C6.44,8.037,7.097,8.367,7.815,8.367c0.781,0,1.495-0.396,1.909-1.059c0.146-0.234,0.458-0.303,0.688-0.159
				c0.205,0.128,0.275,0.379,0.193,0.597c3.179,1.473,5.92,5.486,5.58,5.695c0.233-0.146,0.543-0.075,0.689,0.158
				c0.145,0.234,0.075,0.543-0.159,0.689c-0.663,0.413-1.058,1.127-1.058,1.906c0,0.719,0.33,1.377,0.906,1.807
				c0.222,0.165,0.267,0.479,0.102,0.699c-0.098,0.132-0.248,0.201-0.4,0.201c-0.104,0-0.209-0.032-0.299-0.1
				c-0.396-0.296-0.711-0.68-0.936-1.109v0.002c-1.615,0.504-2.946,1.236-4.112,2.07c0.148,0.228,0.311,0.446,0.485,0.621
				c0.975,0.975,2.255,1.463,3.536,1.463c2.832,0,4.821-2.356,5.016-4.3c1.846-0.634,3.02-2.338,3.02-4.235
				C22.975,12.115,22.506,10.984,21.656,10.135z"/>
		</g>
		<g>
			<path d="M14.657,16.197c0-0.807,0.302-1.555,0.817-2.139c-0.004-0.01-0.007-0.018-0.011-0.027
				c-0.164-0.396-0.403-0.82-0.691-1.25l-3.371,3.363c-0.098,0.098-0.226,0.146-0.354,0.146c-0.128,0-0.256-0.049-0.354-0.146
				c-0.195-0.194-0.195-0.512,0-0.707l3.372-3.365c0.037-0.036,0.08-0.06,0.125-0.082c-0.616-0.771-1.362-1.523-2.142-2.148
				c-0.023,0.044-0.048,0.089-0.086,0.127L8.57,13.32c-0.098,0.097-0.225,0.144-0.352,0.144c-0.129,0-0.258-0.05-0.355-0.148
				c-0.194-0.195-0.192-0.512,0.004-0.707l3.389-3.346c-0.441-0.296-0.881-0.54-1.302-0.713c-0.582,0.514-1.332,0.817-2.14,0.817
				c-0.188,0-0.37-0.033-0.552-0.065c-1.437,4.581-4.553,7.004-6.834,9.326c-0.573,0.585-0.568,1.531,0.011,2.11l2.828,2.828
				c0.283,0.283,0.66,0.438,1.061,0.438h0.006c0.395-0.001,0.781-0.163,1.063-0.446c2.294-2.334,4.743-5.383,9.326-6.813
				C14.689,16.565,14.657,16.384,14.657,16.197z"/>
		</g>
	</g>
</g>
<g id="Outline_Icons">
	<g>
		<path fill="none" stroke="#000000" stroke-linejoin="round" stroke-miterlimit="10" d="M14.937,16.139
			c1.887-1.885-5.185-8.956-7.07-7.07c-1.414,4.951-4.755,7.533-7.081,9.904c-0.384,0.391-0.381,1.019,0.007,1.406l2.828,2.828
			c0.188,0.188,0.444,0.294,0.711,0.293c0.267-0.001,0.521-0.109,0.709-0.298C7.348,20.859,9.989,17.555,14.937,16.139z"/>
		<path fill="none" stroke="#000000" stroke-linejoin="round" stroke-miterlimit="10" d="M10.696,18.262
			c0.219,0.521,0.635,1.342,1.061,1.768c1.757,1.757,4.606,1.757,6.363,0c1.204-1.203,1.36-2.305,1.351-2.859
			c0.67-0.172,1.309-0.505,1.832-1.029c1.562-1.562,1.562-4.095,0-5.657c-0.461-0.46-1.009-0.768-1.589-0.957
			c0.257-1.404-0.153-2.907-1.239-3.993c-1.086-1.086-2.588-1.495-3.992-1.239c-0.189-0.579-0.498-1.128-0.957-1.588
			c-1.564-1.563-4.095-1.563-5.657,0c-0.525,0.522-0.858,1.159-1.03,1.83c-0.556-0.012-1.656,0.146-2.859,1.35
			c-1.758,1.757-1.758,4.605,0,6.364c0.425,0.425,1.245,0.841,1.768,1.062"/>
		<path fill="none" stroke="#000000" stroke-linecap="round" stroke-linejoin="round" stroke-miterlimit="10" d="M16.266,18.397
			c-0.673-0.5-1.107-1.303-1.107-2.205c0-0.983,0.517-1.848,1.294-2.332"/>
		<path fill="none" stroke="#000000" stroke-linecap="round" stroke-linejoin="round" stroke-miterlimit="10" d="M5.609,7.753
			C6.11,8.426,6.912,8.861,7.814,8.861c0.984,0,1.848-0.517,2.333-1.294"/>
		
			<line fill="none" stroke="#000000" stroke-linecap="round" stroke-linejoin="round" stroke-miterlimit="10" x1="14.128" y1="12.714" x2="11.05" y2="15.785"/>
		
			<line fill="none" stroke="#000000" stroke-linecap="round" stroke-linejoin="round" stroke-miterlimit="10" x1="11.321" y1="9.899" x2="8.221" y2="12.957"/>
	</g>
</g>
</svg>
