<?xml version="1.0" encoding="utf-8"?>
<!-- Generator: Adobe Illustrator 19.2.0, SVG Export Plug-In . SVG Version: 6.00 Build 0)  -->
<svg version="1.1" id="Layer_1" xmlns="http://www.w3.org/2000/svg" xmlns:xlink="http://www.w3.org/1999/xlink" x="0px" y="0px"
	 viewBox="0 0 24 24" style="enable-background:new 0 0 24 24;" xml:space="preserve">
<style type="text/css">
	.st0{display:none;}
	.st1{display:inline;}
	.st2{fill:none;stroke:#000000;stroke-linecap:round;stroke-linejoin:round;stroke-miterlimit:10;}
	.st3{fill:none;stroke:#000000;stroke-linejoin:round;stroke-miterlimit:10;}
</style>
<g id="Filled_Icons" class="st0">
	<g class="st1">
		<path d="M17.5,10c1.7,0,3.2,0.6,4.5,1.5v-11C22,0.2,21.8,0,21.5,0h-21C0.2,0,0,0.2,0,0.5v14C0,14.8,0.2,15,0.5,15H4v3.5
			c0,0.2,0.1,0.4,0.3,0.5c0.1,0,0.1,0,0.2,0c0.1,0,0.3-0.1,0.4-0.1L8.7,15h1.7C11.5,12.1,14.2,10,17.5,10z"/>
		<path d="M17.5,11c-3.6,0-6.5,2.9-6.5,6.5s2.9,6.5,6.5,6.5s6.5-2.9,6.5-6.5S21.1,11,17.5,11z M21.1,16.2L17,20.8l-3.1-3.1
			c-0.2-0.2-0.2-0.5,0-0.7c0.2-0.2,0.5-0.2,0.7,0l2.4,2.4l3.5-3.8c0.2-0.2,0.5-0.2,0.7,0C21.3,15.7,21.3,16,21.1,16.2z"/>
	</g>
</g>
<g id="Outline_Icons">
	<g>
		<polyline class="st2" points="9.5,14.5 8.5,14.5 4.5,18.5 4.5,14.5 0.5,14.5 0.5,0.5 21.5,0.5 21.5,9.5 		"/>
		<g>
			<circle class="st3" cx="17.5" cy="17.5" r="6"/>
			<polyline class="st2" points="20.8,15.9 17,20 14.2,17.3 			"/>
		</g>
	</g>
</g>
</svg>
