<?xml version="1.0" encoding="utf-8"?>
<!-- Generator: Adobe Illustrator 19.2.0, SVG Export Plug-In . SVG Version: 6.00 Build 0)  -->
<svg version="1.1" id="Layer_1" xmlns="http://www.w3.org/2000/svg" xmlns:xlink="http://www.w3.org/1999/xlink" x="0px" y="0px"
	 viewBox="0 0 24 24" style="enable-background:new 0 0 24 24;" xml:space="preserve">
<style type="text/css">
	.st0{display:none;}
	.st1{display:inline;}
	.st2{fill:none;stroke:#000000;stroke-linejoin:round;stroke-miterlimit:10;}
	.st3{fill:none;stroke:#000000;stroke-linecap:round;stroke-linejoin:round;stroke-miterlimit:10;}
</style>
<g id="Filled_Icons" class="st0">
	<g class="st1">
		<path d="M10.2,14.7l1.6-2.8c0.4-0.7,1.3-1,2-0.6l0.4,0.2c0,0,0.1,0,0.1-0.1v-0.4c0-0.8,0.7-1.5,1.5-1.5h3.3c0.8,0,1.5,0.7,1.5,1.5
			v0.4c0,0,0.1,0,0.1,0.1l0.4-0.2c0.3-0.2,0.6-0.2,0.9-0.2V0.5C22,0.2,21.8,0,21.5,0h-21C0.2,0,0,0.2,0,0.5v14C0,14.8,0.2,15,0.5,15
			H4v3.5c0,0.2,0.1,0.4,0.3,0.5c0.1,0,0.1,0,0.2,0c0.1,0,0.3-0.1,0.4-0.1L8.7,15h1.4C10.1,14.9,10.1,14.8,10.2,14.7z"/>
		<path d="M23.8,18.2l-0.9-0.5c0-0.2,0-0.4,0-0.6c0-0.2,0-0.4,0-0.6l0.9-0.5c0.1-0.1,0.2-0.2,0.2-0.3c0-0.1,0-0.3-0.1-0.4l-1.6-2.8
			c-0.1-0.1-0.2-0.2-0.3-0.2c-0.1,0-0.3,0-0.4,0.1l-0.9,0.5c-0.3-0.2-0.7-0.5-1.1-0.6v-1c0-0.3-0.2-0.5-0.5-0.5h-3.3
			c-0.3,0-0.5,0.2-0.5,0.5v1c-0.3,0.1-0.7,0.3-1.1,0.6l-0.9-0.5c-0.2-0.1-0.5-0.1-0.7,0.2l-1.6,2.8c-0.1,0.1-0.1,0.3,0,0.4
			c0,0.1,0.1,0.2,0.2,0.3l0.9,0.5c0,0.2,0,0.4,0,0.6c0,0.2,0,0.4,0,0.6l-0.9,0.5c-0.2,0.1-0.3,0.4-0.2,0.7l1.6,2.8
			c0.1,0.2,0.4,0.3,0.7,0.2l0.9-0.5c0.4,0.3,0.8,0.5,1.1,0.6v1c0,0.3,0.2,0.5,0.5,0.5h3.3c0.3,0,0.5-0.2,0.5-0.5v-1
			c0.4-0.2,0.8-0.4,1.1-0.6l0.9,0.5c0.1,0.1,0.3,0.1,0.4,0.1c0.1,0,0.2-0.1,0.3-0.2l1.6-2.8C24.1,18.6,24,18.3,23.8,18.2z
			 M17.5,19.2c-1.2,0-2.2-1-2.2-2.2c0-1.2,1-2.2,2.2-2.2c1.2,0,2.2,1,2.2,2.2C19.7,18.2,18.7,19.2,17.5,19.2z"/>
	</g>
</g>
<g id="Outline_Icons">
	<g>
		<g>
			<g>
				<path class="st2" d="M15.9,12.4c-0.5,0.2-1.1,0.5-1.6,0.9l-1.2-0.7l-1.6,2.8l1.2,0.7c-0.1,0.3-0.1,0.6-0.1,0.9
					c0,0.3,0,0.6,0.1,0.9l-1.2,0.7l1.6,2.8l1.2-0.7c0.5,0.4,1,0.7,1.6,0.9V23h3.3v-1.4c0.5-0.2,1.1-0.5,1.5-0.9l1.2,0.7l1.6-2.8
					l-1.2-0.7c0.1-0.3,0.1-0.6,0.1-0.9c0-0.3,0-0.6-0.1-0.9l1.2-0.7l-1.6-2.8l-1.2,0.7c-0.5-0.4-1-0.7-1.5-0.9v-1.4h-3.3L15.9,12.4
					L15.9,12.4z"/>
			</g>
			<circle class="st2" cx="17.5" cy="17" r="2.2"/>
		</g>
		<polyline class="st3" points="9.5,14.5 8.5,14.5 4.5,18.5 4.5,14.5 0.5,14.5 0.5,0.5 21.5,0.5 21.5,9.5 		"/>
	</g>
</g>
</svg>
