<?xml version="1.0" encoding="utf-8"?>
<!-- Generator: Adobe Illustrator 19.2.0, SVG Export Plug-In . SVG Version: 6.00 Build 0)  -->
<svg version="1.1" id="Layer_1" xmlns="http://www.w3.org/2000/svg" xmlns:xlink="http://www.w3.org/1999/xlink" x="0px" y="0px"
	 viewBox="0 0 24 24" style="enable-background:new 0 0 24 24;" xml:space="preserve">
<style type="text/css">
	.st0{display:none;}
	.st1{display:inline;}
	.st2{fill:none;stroke:#000000;stroke-linecap:round;stroke-linejoin:round;stroke-miterlimit:10;}
	.st3{fill:none;stroke:#000000;stroke-linejoin:round;stroke-miterlimit:10;}
</style>
<g id="Filled_Icons" class="st0">
	<g class="st1">
		<path d="M15.7,14.7l4.9-4.9c0.2-0.2,0.5-0.2,0.7,0l0.3,0.3C21.9,9.4,22,8.7,22,8c0-3.9-3.1-7-7-7H7C3.1,1,0,4.1,0,8
			c0,3.9,3.1,7,7,7v3.5c0,0.2,0.1,0.4,0.3,0.5c0.1,0,0.1,0,0.2,0c0.1,0,0.3-0.1,0.4-0.1l3.9-3.9H12C13.4,15,14.7,14.9,15.7,14.7z"/>
		<path d="M23.9,13.6l-2.5-2.5c0,0,0,0-0.1,0c0,0,0,0,0,0L21,10.8l-2,2l3.2,3.2l1.6-1.6c0.1-0.1,0.1-0.2,0.1-0.4
			C24,13.9,23.9,13.7,23.9,13.6z"/>
		<polygon points="17.7,14.1 17.7,14.1 13.5,18.3 16.7,21.5 21.5,16.7 18.3,13.5 		"/>
		<path d="M12,22.4c0,0.2,0,0.4,0.1,0.5c0.1,0.1,0.2,0.1,0.4,0.1c0,0,0.1,0,0.1,0l3.2-0.9l-2.9-2.9L12,22.4z"/>
	</g>
</g>
<g id="Outline_Icons">
	<g>
		<path class="st2" d="M13.5,14.5h-2l-4,4v-4H7c-3.6,0-6.5-2.9-6.5-6.5c0-3.6,2.9-6.5,6.5-6.5h8c3.6,0,6.5,2.9,6.5,6.5
			c0,0.3,0,0.7-0.1,1"/>
		<polygon class="st2" points="16.5,20.5 13,21.5 14,18 20.5,11.5 23,14 		"/>
		<line class="st3" x1="18.5" y1="13.5" x2="21" y2="16"/>
		<line class="st2" x1="14" y1="18" x2="16.5" y2="20.5"/>
	</g>
</g>
</svg>
