<?xml version="1.0" encoding="utf-8"?>
<!-- Generator: Adobe Illustrator 19.2.0, SVG Export Plug-In . SVG Version: 6.00 Build 0)  -->
<svg version="1.1" id="Layer_1" xmlns="http://www.w3.org/2000/svg" xmlns:xlink="http://www.w3.org/1999/xlink" x="0px" y="0px"
	 viewBox="0 0 24 24" style="enable-background:new 0 0 24 24;" xml:space="preserve">
<style type="text/css">
	.st0{display:none;}
	.st1{display:inline;}
	.st2{fill:none;stroke:#000000;stroke-linecap:round;stroke-linejoin:round;stroke-miterlimit:10;}
	.st3{fill:none;stroke:#000000;stroke-linejoin:round;stroke-miterlimit:10;}
</style>
<g id="Filled_Icons" class="st0">
	<g class="st1">
		<path d="M17.2,9.5c1.6,0,3,0.5,4.1,1.4c0-0.1,0.1-0.2,0.1-0.3C21.8,9.8,22,8.9,22,8c0-3.9-3.1-7-7-7H7C3.1,1,0,4.1,0,8
			c0,3.9,3.1,7,7,7v3.5c0,0.2,0.1,0.4,0.3,0.5c0.1,0,0.1,0,0.2,0c0.1,0,0.3-0.1,0.4-0.1l2.6-2.6C10.5,12.5,13.5,9.5,17.2,9.5z"/>
		<path d="M20.2,14L15,19.2c0.6,0.5,1.4,0.8,2.3,0.8c2.1,0,3.8-1.7,3.8-3.8C21,15.4,20.7,14.6,20.2,14z"/>
		<path d="M17.2,12.5c-2.1,0-3.8,1.7-3.8,3.8c0,0.9,0.3,1.6,0.8,2.3l5.2-5.2C18.9,12.8,18.1,12.5,17.2,12.5z"/>
		<path d="M17.2,10.5c-3.2,0-5.8,2.6-5.8,5.8c0,3.2,2.6,5.8,5.8,5.8c3.2,0,5.8-2.6,5.8-5.8C23,13.1,20.4,10.5,17.2,10.5z M17.2,21
			c-2.6,0-4.8-2.1-4.8-4.8c0-2.6,2.1-4.8,4.8-4.8c2.6,0,4.8,2.1,4.8,4.8C22,18.9,19.9,21,17.2,21z"/>
	</g>
</g>
<g id="Outline_Icons">
	<g>
		<path class="st2" d="M12,15h-0.5l-4,4v-4H7c-3.6,0-6.5-2.9-6.5-6.5c0-3.6,2.9-7,6.5-7h8c3.6,0,6.5,3.4,6.5,7
			c0,0.9-0.2,1.7-0.5,2.5"/>
		<line class="st3" x1="22.2" y1="13.8" x2="15.1" y2="20.9"/>
		<circle class="st3" cx="18.5" cy="17.5" r="5"/>
	</g>
</g>
</svg>
