<?xml version="1.0" encoding="utf-8"?>
<!-- Generator: Adobe Illustrator 19.2.0, SVG Export Plug-In . SVG Version: 6.00 Build 0)  -->
<svg version="1.1" id="Layer_1" xmlns="http://www.w3.org/2000/svg" xmlns:xlink="http://www.w3.org/1999/xlink" x="0px" y="0px"
	 viewBox="0 0 24 24" style="enable-background:new 0 0 24 24;" xml:space="preserve">
<style type="text/css">
	.st0{display:none;}
	.st1{display:inline;}
	.st2{fill:none;stroke:#000000;stroke-linecap:round;stroke-linejoin:round;stroke-miterlimit:10;}
</style>
<g id="Filled_Icons" class="st0">
	<path class="st1" d="M16,2H8c-4.4,0-8,3.6-8,8c0,4.4,3.6,8,8,8h0.5v3.5c0,0.2,0.1,0.4,0.3,0.5c0.1,0,0.1,0,0.2,0
		c0.1,0,0.3-0.1,0.4-0.1l3.9-3.9H16c4.4,0,8-3.6,8-8C24,5.6,20.4,2,16,2z"/>
</g>
<g id="Outline_Icons">
	<g>
		<path class="st2" d="M23.5,10c0,4.1-3.4,7.5-7.5,7.5h-3l-4,4v-4H8c-4.1,0-7.5-3.4-7.5-7.5S3.9,2.5,8,2.5h8
			C20.1,2.5,23.5,5.9,23.5,10z"/>
	</g>
</g>
</svg>
