<?xml version="1.0" encoding="utf-8"?>
<!-- Generator: Adobe Illustrator 19.2.0, SVG Export Plug-In . SVG Version: 6.00 Build 0)  -->
<svg version="1.1" id="Layer_1" xmlns="http://www.w3.org/2000/svg" xmlns:xlink="http://www.w3.org/1999/xlink" x="0px" y="0px"
	 viewBox="0 0 24 24" style="enable-background:new 0 0 24 24;" xml:space="preserve">
<style type="text/css">
	.st0{display:none;}
	.st1{display:inline;}
	.st2{fill:none;stroke:#000000;stroke-linecap:round;stroke-linejoin:round;stroke-miterlimit:10;}
</style>
<g id="Filled_Icons" class="st0">
	<g class="st1">
		<path d="M21.5,19c-0.8,0-1.5,0.4-1.9,0.9L16,18.8c0-0.1,0-0.2,0-0.3c0-0.2,0-0.4-0.1-0.6l3.8-1.7c0.5,0.5,1.1,0.8,1.8,0.8
			c1.4,0,2.5-1.1,2.5-2.5c0-1.4-1.1-2.5-2.5-2.5c-1.4,0-2.5,1.1-2.5,2.5c0,0.3,0.1,0.6,0.2,0.8L15.5,17c-0.5-0.6-1.2-1-2-1
			c-1.4,0-2.5,1.1-2.5,2.5c0,1.4,1.1,2.5,2.5,2.5c0.9,0,1.7-0.5,2.1-1.2l3.5,1.1C19,21,19,21.3,19,21.5c0,1.4,1.1,2.5,2.5,2.5
			c1.4,0,2.5-1.1,2.5-2.5C24,20.1,22.9,19,21.5,19z M21.5,13c0.8,0,1.5,0.7,1.5,1.5c0,0.8-0.7,1.5-1.5,1.5c-0.8,0-1.5-0.7-1.5-1.5
			C20,13.7,20.7,13,21.5,13z M13.5,20c-0.8,0-1.5-0.7-1.5-1.5c0-0.8,0.7-1.5,1.5-1.5c0.8,0,1.5,0.7,1.5,1.5C15,19.3,14.3,20,13.5,20
			z M21.5,23c-0.8,0-1.5-0.7-1.5-1.5c0-0.8,0.7-1.5,1.5-1.5c0.8,0,1.5,0.7,1.5,1.5C23,22.3,22.3,23,21.5,23z"/>
		<path d="M17.4,15l0.6-0.3c0-0.1,0-0.2,0-0.2c0-1.9,1.6-3.5,3.5-3.5c0.2,0,0.3,0,0.5,0.1V0.5C22,0.2,21.8,0,21.5,0h-21
			C0.2,0,0,0.2,0,0.5v14C0,14.8,0.2,15,0.5,15H4v3.5c0,0.2,0.1,0.4,0.3,0.5c0.1,0,0.1,0,0.2,0c0.1,0,0.3-0.1,0.4-0.1L8.7,15H17.4z"
			/>
	</g>
</g>
<g id="Outline_Icons">
	<g>
		<g>
			<circle class="st2" cx="21.5" cy="14.5" r="2"/>
			<circle class="st2" cx="21.5" cy="21.5" r="2"/>
			<circle class="st2" cx="13.5" cy="18.5" r="2"/>
			<line class="st2" x1="15.3" y1="17.6" x2="19.8" y2="15.6"/>
			<line class="st2" x1="15.5" y1="19.2" x2="19.8" y2="20.5"/>
		</g>
		<polyline class="st2" points="11,14.5 8.5,14.5 4.5,18.5 4.5,14.5 0.5,14.5 0.5,0.5 21.5,0.5 21.5,10.5 		"/>
	</g>
</g>
</svg>
