<?xml version="1.0" encoding="utf-8"?>
<!-- Generator: Adobe Illustrator 19.2.0, SVG Export Plug-In . SVG Version: 6.00 Build 0)  -->
<svg version="1.1" id="Layer_1" xmlns="http://www.w3.org/2000/svg" xmlns:xlink="http://www.w3.org/1999/xlink" x="0px" y="0px"
	 viewBox="0 0 24 24" style="enable-background:new 0 0 24 24;" xml:space="preserve">
<style type="text/css">
	.st0{display:none;}
	.st1{display:inline;}
	.st2{fill:none;stroke:#000000;stroke-linecap:round;stroke-linejoin:round;stroke-miterlimit:10;}
</style>
<g id="Filled_Icons" class="st0">
	<path class="st1" d="M23.5,2h-23C0.2,2,0,2.2,0,2.5v15C0,17.8,0.2,18,0.5,18H7v3.5c0,0.2,0.1,0.4,0.3,0.5c0.1,0,0.1,0,0.2,0
		c0.1,0,0.3-0.1,0.4-0.1l3.9-3.9h11.8c0.3,0,0.5-0.2,0.5-0.5v-15C24,2.2,23.8,2,23.5,2z M15.5,5C16.9,5,18,6.1,18,7.5
		C18,7.8,17.8,8,17.5,8C17.2,8,17,7.8,17,7.5C17,6.7,16.3,6,15.5,6C14.7,6,14,6.7,14,7.5C14,7.8,13.8,8,13.5,8C13.2,8,13,7.8,13,7.5
		C13,6.1,14.1,5,15.5,5z M8.5,5C9.9,5,11,6.1,11,7.5C11,7.8,10.8,8,10.5,8C10.2,8,10,7.8,10,7.5C10,6.7,9.3,6,8.5,6
		C7.7,6,7,6.7,7,7.5C7,7.8,6.8,8,6.5,8C6.2,8,6,7.8,6,7.5C6,6.1,7.1,5,8.5,5z M14,15h-4c-2.8,0-5-2.2-5-5c0-0.3,0.2-0.5,0.5-0.5
		C5.8,9.5,6,9.7,6,10c0,2.2,1.8,4,4,4h4c2.2,0,4-1.8,4-4c0-0.3,0.2-0.5,0.5-0.5c0.3,0,0.5,0.2,0.5,0.5C19,12.8,16.8,15,14,15z"/>
</g>
<g id="Outline_Icons">
	<g>
		<polygon class="st2" points="23.5,17.5 11.5,17.5 7.5,21.5 7.5,17.5 0.5,17.5 0.5,2.5 23.5,2.5 		"/>
		<path class="st2" d="M6.5,7.5c0-1.1,0.9-2,2-2s2,0.9,2,2"/>
		<path class="st2" d="M17.5,7.5c0-1.1-0.9-2-2-2c-1.1,0-2,0.9-2,2"/>
		<path class="st2" d="M5.5,10c0,2.5,2,4.5,4.5,4.5h4c2.5,0,4.5-2,4.5-4.5"/>
	</g>
</g>
</svg>
