<?xml version="1.0" encoding="utf-8"?>
<!-- Generator: Adobe Illustrator 19.2.0, SVG Export Plug-In . SVG Version: 6.00 Build 0)  -->
<svg version="1.1" id="Layer_1" xmlns="http://www.w3.org/2000/svg" xmlns:xlink="http://www.w3.org/1999/xlink" x="0px" y="0px"
	 viewBox="0 0 24 24" style="enable-background:new 0 0 24 24;" xml:space="preserve">
<style type="text/css">
	.st0{display:none;}
	.st1{display:inline;}
	.st2{fill:none;stroke:#000000;stroke-linecap:round;stroke-linejoin:round;stroke-miterlimit:10;}
	.st3{fill:none;stroke:#000000;stroke-linejoin:round;stroke-miterlimit:10;}
</style>
<g id="Filled_Icons" class="st0">
	<g class="st1">
		<path d="M10,17.5c0-4.1,3.4-7.5,7.5-7.5c1.5,0,3,0.5,4.1,1.3C21.9,10.5,22,9.8,22,9c0-5-4.9-9-11-9C4.9,0,0,4,0,9
			c0,2.4,1.1,4.5,2.9,6.1L1,19.3c-0.1,0.2,0,0.4,0.1,0.6C1.2,19.9,1.4,20,1.5,20c0.1,0,0.1,0,0.2,0l5.5-2.5c0.9,0.3,1.8,0.4,2.8,0.5
			C10,17.8,10,17.7,10,17.5z"/>
		<path d="M17.5,11c-3.6,0-6.5,2.9-6.5,6.5s2.9,6.5,6.5,6.5s6.5-2.9,6.5-6.5S21.1,11,17.5,11z M20,18.7l-2.1,2.1
			C17.8,21,17.7,21,17.5,21c0,0,0,0,0,0c0,0,0,0,0,0c-0.1,0-0.3,0-0.4-0.1l-2.2-2.2c-0.2-0.2-0.2-0.5,0-0.7c0.2-0.2,0.5-0.2,0.7,0
			l1.3,1.3v-4.6c0-0.3,0.2-0.5,0.5-0.5c0.3,0,0.5,0.2,0.5,0.5v4.5l1.3-1.3c0.2-0.2,0.5-0.2,0.7,0C20.2,18.2,20.2,18.5,20,18.7z"/>
	</g>
</g>
<g id="Outline_Icons">
	<g>
		<g>
			<polyline class="st2" points="15.3,18.4 17.5,20.5 19.7,18.4 			"/>
			<circle class="st3" cx="17.5" cy="17.5" r="6"/>
			<line class="st2" x1="17.5" y1="14.8" x2="17.5" y2="20.5"/>
		</g>
		<path class="st3" d="M9.5,17.4C8.6,17.3,7.7,17.2,7,17l-5.5,2.5l2-4.5c-1.9-1.5-3-3.6-3-6c0-4.7,4.7-8.5,10.4-8.5
			c5.8,0,10.6,3.8,10.6,8.5c0,0.3,0,0.7-0.1,1"/>
	</g>
</g>
</svg>
