<?xml version="1.0" encoding="utf-8"?>
<!-- Generator: Adobe Illustrator 19.2.0, SVG Export Plug-In . SVG Version: 6.00 Build 0)  -->
<svg version="1.1" id="Layer_1" xmlns="http://www.w3.org/2000/svg" xmlns:xlink="http://www.w3.org/1999/xlink" x="0px" y="0px"
	 viewBox="0 0 24 24" style="enable-background:new 0 0 24 24;" xml:space="preserve">
<style type="text/css">
	.st0{display:none;}
	.st1{display:inline;}
	.st2{fill:none;stroke:#000000;stroke-linecap:round;stroke-linejoin:round;stroke-miterlimit:10;}
	.st3{fill:none;stroke:#000000;stroke-linejoin:round;stroke-miterlimit:10;}
</style>
<g id="Filled_Icons" class="st0">
	<g class="st1">
		<path d="M23.5,2h-23C0.2,2,0,2.2,0,2.5v15C0,17.8,0.2,18,0.5,18H7v3.5c0,0.2,0.1,0.4,0.3,0.5c0.1,0,0.1,0,0.2,0
			c0.1,0,0.3,0,0.4-0.2l3.9-3.8h11.8c0.3,0,0.5-0.2,0.5-0.5v-15C24,2.2,23.8,2,23.5,2z M10,13.5c0,0.8-0.7,1.5-1.5,1.5
			C8.2,15,8,14.8,8,14.5C8,14.2,8.2,14,8.5,14C8.8,14,9,13.8,9,13.5V13H7.5C7.2,13,7,12.8,7,12.5v-3C7,9.2,7.2,9,7.5,9h2
			C9.8,9,10,9.2,10,9.5V13.5z M10,8c0,0.3-0.2,0.5-0.5,0.5C9.2,8.5,9,8.3,9,8V5.5C9,5.2,9.2,5,9.5,5C9.8,5,10,5.2,10,5.5V8z
			 M17,11.5c0,1.9-1.6,3.5-3.5,3.5c-0.3,0-0.5-0.2-0.5-0.5c0-0.3,0.2-0.5,0.5-0.5c1.4,0,2.5-1.1,2.5-2.5v-3C16,7.1,14.9,6,13.5,6
			C13.2,6,13,5.8,13,5.5C13,5.2,13.2,5,13.5,5C15.4,5,17,6.6,17,8.5V11.5z"/>
		<rect x="8" y="10" width="1" height="2"/>
	</g>
</g>
<g id="Outline_Icons">
	<g>
		<polygon class="st2" points="23.5,17.5 11.5,17.5 7.5,21.5 7.5,17.5 0.5,17.5 0.5,2.5 23.5,2.5 		"/>
		<rect x="7.5" y="9.5" class="st3" width="2" height="3"/>
		<path class="st2" d="M9.5,11.5v2c0,0.5-0.5,1-1,1"/>
		<line class="st2" x1="9.5" y1="5.5" x2="9.5" y2="8"/>
		<path class="st2" d="M13.5,5.5c1.7,0,3,1.4,3,3v3c0,1.7-1.3,3-3,3"/>
	</g>
</g>
</svg>
