<?xml version="1.0" encoding="utf-8"?>
<!-- Generator: Adobe Illustrator 19.2.0, SVG Export Plug-In . SVG Version: 6.00 Build 0)  -->
<svg version="1.1" id="Layer_1" xmlns="http://www.w3.org/2000/svg" xmlns:xlink="http://www.w3.org/1999/xlink" x="0px" y="0px"
	 viewBox="0 0 24 24" style="enable-background:new 0 0 24 24;" xml:space="preserve">
<style type="text/css">
	.st0{display:none;}
	.st1{display:inline;}
	.st2{fill:none;stroke:#000000;stroke-linecap:round;stroke-linejoin:round;stroke-miterlimit:10;}
	.st3{fill:none;stroke:#000000;stroke-linejoin:round;stroke-miterlimit:10;}
</style>
<g id="Filled_Icons" class="st0">
	<g class="st1">
		<path d="M13.3,15.5l0.2-0.4c0.2-0.4,0.5-0.6,0.9-0.7c0.4-0.1,0.8,0,1.2,0.2v-0.1c0-0.8,0.7-1.5,1.5-1.5h2c0.6,0,1.1,0.3,1.3,0.8
			C22,12.5,23,10.5,23,8.2c0-4-3.3-7.2-7.2-7.2H8.2C4.3,1,1,4.3,1,8.2c0,3.9,3.1,7.1,7,7.2V19c0,0.2,0.1,0.4,0.3,0.5
			c0.1,0,0.1,0,0.2,0c0.1,0,0.3-0.1,0.4-0.1l3.9-3.9H13.3z"/>
		<path d="M23.1,17.7c0-0.1,0-0.3,0-0.4l-1-1.7c-0.1-0.2-0.4-0.3-0.7-0.2l-0.8,0.4c-0.4-0.3-0.7-0.4-1-0.6v-0.8
			c0-0.3-0.2-0.5-0.5-0.5h-2c-0.3,0-0.5,0.2-0.5,0.5v0.8c-0.3,0.1-0.6,0.3-0.9,0.5L15,15.5c-0.1-0.1-0.3-0.1-0.4-0.1
			c-0.1,0-0.2,0.1-0.3,0.2l-1,1.7c-0.1,0.2-0.1,0.5,0.2,0.7l0.7,0.4c0,0.2,0,0.4,0,0.6c0,0.2,0,0.4,0,0.6L13.6,20
			c-0.2,0.1-0.3,0.4-0.2,0.7l1,1.7c0.1,0.1,0.2,0.2,0.3,0.2c0.1,0,0.3,0,0.4-0.1l0.6-0.4c0.3,0.2,0.6,0.4,0.9,0.5v0.8
			c0,0.3,0.2,0.5,0.5,0.5h2c0.3,0,0.5-0.2,0.5-0.5v-0.8c0.3-0.1,0.7-0.3,1-0.6l0.7,0.4c0.2,0.1,0.5,0.1,0.7-0.2l1-1.7
			c0.1-0.1,0.1-0.2,0.1-0.4c0-0.1-0.1-0.2-0.2-0.3l-0.7-0.4c0-0.2,0-0.4,0-0.6c0-0.2,0-0.4,0-0.6l0.7-0.4C23,18,23.1,17.9,23.1,17.7
			z M18.2,20.5c-0.8,0-1.5-0.7-1.5-1.5c0-0.8,0.7-1.5,1.5-1.5c0.8,0,1.5,0.7,1.5,1.5C19.7,19.8,19,20.5,18.2,20.5z"/>
	</g>
</g>
<g id="Outline_Icons">
	<g>
		<path class="st2" d="M13,15h-0.5l-4,4v-4H8c-3.6,0-6.5-2.9-6.5-6.5c0-3.6,2.9-7,6.5-7h8c3.6,0,6.5,3.4,6.5,7
			c0,0.9-0.2,1.7-0.5,2.5"/>
		<circle class="st3" cx="18.2" cy="19" r="1.5"/>
		<path class="st3" d="M21.7,19c0-0.3,0-0.5-0.1-0.8l1-0.6l-1-1.7l-1.1,0.6c-0.4-0.4-1-0.7-1.5-0.8v-1.1h-2v1.1
			c-0.5,0.2-0.9,0.4-1.3,0.8l-1-0.6l-1,1.7l1,0.6c-0.1,0.3-0.1,0.5-0.1,0.8c0,0.3,0,0.5,0.1,0.8l-1,0.6l1,1.7l0.9-0.6
			c0.4,0.4,0.8,0.7,1.3,0.8v1.1h2v-1.1c0.5-0.2,1.1-0.4,1.5-0.8l1,0.6l1-1.7l-1-0.6C21.7,19.5,21.7,19.3,21.7,19z"/>
	</g>
</g>
</svg>
