<?xml version="1.0" encoding="utf-8"?>
<!-- Generator: Adobe Illustrator 19.2.0, SVG Export Plug-In . SVG Version: 6.00 Build 0)  -->
<svg version="1.1" id="Layer_1" xmlns="http://www.w3.org/2000/svg" xmlns:xlink="http://www.w3.org/1999/xlink" x="0px" y="0px"
	 viewBox="0 0 24 24" style="enable-background:new 0 0 24 24;" xml:space="preserve">
<style type="text/css">
	.st0{display:none;}
	.st1{display:inline;}
	.st2{fill:none;stroke:#000000;stroke-linecap:round;stroke-linejoin:round;stroke-miterlimit:10;}
</style>
<g id="Filled_Icons" class="st0">
	<path class="st1" d="M22.5,2h-21C0.7,2,0,2.7,0,3.5v13C0,17.3,0.7,18,1.5,18H3v3.5c0,0.2,0.1,0.4,0.3,0.5c0.1,0,0.1,0,0.2,0
		c0.1,0,0.3-0.1,0.4-0.1L7.7,18h14.8c0.8,0,1.5-0.7,1.5-1.5v-13C24,2.7,23.3,2,22.5,2z M8.5,11c-0.6,0-1-0.4-1-1c0-0.6,0.4-1,1-1
		c0.6,0,1,0.4,1,1C9.5,10.6,9.1,11,8.5,11z M12.5,11c-0.6,0-1-0.4-1-1c0-0.6,0.4-1,1-1c0.6,0,1,0.4,1,1C13.5,10.6,13.1,11,12.5,11z
		 M16.5,11c-0.6,0-1-0.4-1-1c0-0.6,0.4-1,1-1c0.6,0,1,0.4,1,1C17.5,10.6,17.1,11,16.5,11z"/>
</g>
<g id="Outline_Icons">
	<g>
		<path class="st2" d="M0.5,16.5c0,0.6,0.4,1,1,1h2v4l4-4h15c0.6,0,1-0.4,1-1v-13c0-0.6-0.4-1-1-1h-21c-0.6,0-1,0.4-1,1V16.5z"/>
		<circle class="st2" cx="8.5" cy="10" r="0.5"/>
		<circle class="st2" cx="16.5" cy="10" r="0.5"/>
		<circle class="st2" cx="12.5" cy="10" r="0.5"/>
	</g>
</g>
</svg>
