<?xml version="1.0" encoding="utf-8"?>
<!-- Generator: Adobe Illustrator 19.2.0, SVG Export Plug-In . SVG Version: 6.00 Build 0)  -->
<svg version="1.1" id="Layer_1" xmlns="http://www.w3.org/2000/svg" xmlns:xlink="http://www.w3.org/1999/xlink" x="0px" y="0px"
	 viewBox="0 0 24 24" style="enable-background:new 0 0 24 24;" xml:space="preserve">
<style type="text/css">
	.st0{display:none;}
	.st1{display:inline;}
	.st2{fill:none;stroke:#000000;stroke-linecap:round;stroke-linejoin:round;stroke-miterlimit:10;}
	.st3{fill:none;stroke:#000000;stroke-linejoin:round;stroke-miterlimit:10;}
</style>
<g id="Filled_Icons" class="st0">
	<g class="st1">
		<path d="M17.2,10.5c1.9,0,3.5,0.7,4.8,2v-12C22,0.2,21.8,0,21.5,0h-21C0.2,0,0,0.2,0,0.5v14C0,14.8,0.2,15,0.5,15H4v3.5
			c0,0.2,0.1,0.4,0.3,0.5c0.1,0,0.1,0,0.2,0c0.1,0,0.3-0.1,0.4-0.1L8.7,15h2.2C11.8,12.4,14.3,10.5,17.2,10.5z"/>
		<path d="M17.2,11.5c-3.2,0-5.8,2.6-5.8,5.8c0,3.2,2.6,5.8,5.8,5.8c3.2,0,5.8-2.6,5.8-5.8C23,14.1,20.4,11.5,17.2,11.5z M17.2,22
			c-2.6,0-4.8-2.1-4.8-4.8c0-2.6,2.1-4.8,4.8-4.8c2.6,0,4.8,2.1,4.8,4.8C22,19.9,19.9,22,17.2,22z"/>
		<path d="M20.2,15L15,20.2c0.6,0.5,1.4,0.8,2.3,0.8c2.1,0,3.8-1.7,3.8-3.8C21,16.4,20.7,15.6,20.2,15z"/>
		<path d="M17.2,13.5c-2.1,0-3.8,1.7-3.8,3.8c0,0.9,0.3,1.6,0.8,2.3l5.2-5.2C18.9,13.8,18.1,13.5,17.2,13.5z"/>
	</g>
</g>
<g id="Outline_Icons">
	<g>
		<polyline class="st2" points="9.5,14.5 8.5,14.5 4.5,18.5 4.5,14.5 0.5,14.5 0.5,0.5 21.5,0.5 21.5,9.5 		"/>
		<g>
			<circle class="st3" cx="17.5" cy="17.5" r="6"/>
			<line class="st3" x1="13.3" y1="21.7" x2="21.7" y2="13.3"/>
		</g>
	</g>
</g>
</svg>
