<?xml version="1.0" encoding="utf-8"?>
<!-- Generator: Adobe Illustrator 19.2.0, SVG Export Plug-In . SVG Version: 6.00 Build 0)  -->
<svg version="1.1" id="Layer_1" xmlns="http://www.w3.org/2000/svg" xmlns:xlink="http://www.w3.org/1999/xlink" x="0px" y="0px"
	 viewBox="0 0 24 24" style="enable-background:new 0 0 24 24;" xml:space="preserve">
<style type="text/css">
	.st0{display:none;}
	.st1{display:inline;}
	.st2{fill:none;stroke:#000000;stroke-linejoin:round;stroke-miterlimit:10;}
</style>
<g id="Filled_Icons" class="st0">
	<g class="st1">
		<circle cx="1" cy="23" r="1"/>
		<path d="M16.3,0c-2.8,0-5.5,1.5-7,3.9C8.4,3.3,7.3,3,6.2,3C2.8,3,0,5.8,0,9.3c0,3.5,2.8,6.3,6.2,6.3c1.2,1.6,3,2.5,4.9,2.5
			c1.4,0,2.7-0.5,3.8-1.3c0.5,0.1,1,0.1,1.5,0.1c4.6,0,7.7-3.7,7.7-8.5C24,3.7,20.9,0,16.3,0z M7,11c-0.6,0-1-0.4-1-1
			c0-0.6,0.4-1,1-1c0.6,0,1,0.4,1,1C8,10.6,7.6,11,7,11z M12,11c-0.6,0-1-0.4-1-1c0-0.6,0.4-1,1-1c0.6,0,1,0.4,1,1
			C13,10.6,12.6,11,12,11z M17,11c-0.6,0-1-0.4-1-1c0-0.6,0.4-1,1-1c0.6,0,1,0.4,1,1C18,10.6,17.6,11,17,11z"/>
		<circle cx="4.5" cy="19.5" r="2"/>
	</g>
</g>
<g id="Outline_Icons">
	<g>
		<circle class="st2" cx="4.5" cy="19.5" r="1.5"/>
		<path class="st2" d="M16,0.5c-2.9,0-5.1,1.6-6.5,4.1C8.6,3.9,7.4,3.5,6.2,3.5c-3.2,0-5.7,2.6-5.7,5.8c0,3.2,2.6,5.8,5.7,5.8
			c0.1,0,0.1,0,0.2,0c1,1.5,2.7,2.5,4.7,2.5c1.4,0,2.6-0.5,3.6-1.3c0.5,0.1,1,0.2,1.6,0.2c4.3,0,7.2-3.6,7.2-8S20.3,0.5,16,0.5z"/>
		<g>
			<circle class="st2" cx="7" cy="10" r="0.5"/>
			<circle class="st2" cx="12" cy="10" r="0.5"/>
			<circle class="st2" cx="17" cy="10" r="0.5"/>
		</g>
		<circle class="st2" cx="1" cy="23" r="0.5"/>
	</g>
</g>
</svg>
