<?xml version="1.0" encoding="utf-8"?>
<!-- Generator: Adobe Illustrator 19.2.0, SVG Export Plug-In . SVG Version: 6.00 Build 0)  -->
<svg version="1.1" id="Layer_1" xmlns="http://www.w3.org/2000/svg" xmlns:xlink="http://www.w3.org/1999/xlink" x="0px" y="0px"
	 viewBox="0 0 24 24" style="enable-background:new 0 0 24 24;" xml:space="preserve">
<style type="text/css">
	.st0{display:none;}
	.st1{display:inline;}
	.st2{fill:none;stroke:#000000;stroke-linecap:round;stroke-linejoin:round;stroke-miterlimit:10;}
</style>
<g id="Filled_Icons" class="st0">
	<g class="st1">
		<path d="M16,11.1c0.3-0.6,0.8-0.9,1.5-0.9s1.2,0.3,1.5,0.9l2,3.9h0.6c0.3,0,0.5-0.2,0.5-0.5v-14C22,0.2,21.8,0,21.5,0h-21
			C0.2,0,0,0.2,0,0.5v14C0,14.8,0.2,15,0.5,15H4v3.5c0,0.2,0.1,0.4,0.3,0.5c0.1,0,0.1,0,0.2,0c0.1,0,0.3-0.1,0.4-0.1L8.7,15h5.4
			L16,11.1z"/>
		<path d="M24,23.4l-5.9-11.8c-0.1-0.2-0.3-0.4-0.6-0.4c-0.2,0-0.5,0.1-0.6,0.4l-5.9,11.8c-0.1,0.2-0.1,0.3,0,0.5
			c0.1,0.1,0.3,0.2,0.4,0.2h12c0,0,0,0,0,0c0.3,0,0.5-0.2,0.5-0.5C24,23.4,24,23.4,24,23.4z M17,16.4c0-0.3,0.2-0.5,0.5-0.5
			c0.3,0,0.5,0.2,0.5,0.5v3.3c0,0.3-0.2,0.5-0.5,0.5c-0.3,0-0.5-0.2-0.5-0.5V16.4z M17.5,21.9c-0.3,0-0.5-0.2-0.5-0.5
			c0-0.3,0.2-0.5,0.5-0.5c0.3,0,0.5,0.2,0.5,0.5C18,21.6,17.8,21.9,17.5,21.9z"/>
	</g>
</g>
<g id="Outline_Icons">
	<g>
		<polyline class="st2" points="12,14.5 8.5,14.5 4.5,18.5 4.5,14.5 0.5,14.5 0.5,0.5 21.5,0.5 21.5,10.5 		"/>
		<polygon class="st2" points="23.5,23.5 11.5,23.5 17.5,11.5 		"/>
		<line class="st2" x1="17.5" y1="16.4" x2="17.5" y2="19.7"/>
		<g>
			<g>
				<g>
					<path d="M17.5,20.8c-0.3,0-0.5,0.2-0.5,0.5c0,0.3,0.2,0.5,0.5,0.5c0.3,0,0.5-0.2,0.5-0.5C18,21,17.8,20.8,17.5,20.8L17.5,20.8z
						"/>
				</g>
			</g>
		</g>
	</g>
</g>
</svg>
