<?xml version="1.0" encoding="utf-8"?>
<!-- Generator: Adobe Illustrator 19.2.0, SVG Export Plug-In . SVG Version: 6.00 Build 0)  -->
<svg version="1.1" id="Layer_1" xmlns="http://www.w3.org/2000/svg" xmlns:xlink="http://www.w3.org/1999/xlink" x="0px" y="0px"
	 viewBox="0 0 24 24" style="enable-background:new 0 0 24 24;" xml:space="preserve">
<style type="text/css">
	.st0{display:none;}
	.st1{display:inline;}
	.st2{fill:none;stroke:#000000;stroke-linejoin:round;stroke-miterlimit:10;}
	.st3{fill:none;stroke:#000000;stroke-linecap:round;stroke-linejoin:round;stroke-miterlimit:10;}
</style>
<g id="Filled_Icons" class="st0">
	<g class="st1">
		<path d="M16,11.1c0.3-0.6,0.8-0.9,1.5-0.9s1.2,0.3,1.5,0.9l1.2,2.4c1.4-1.8,1.7-3.4,1.7-3.4c0.3-2.2-0.4-4.4-1.9-6.2
			C17.9,1.4,14.5,0,10.9,0C4.9,0,0,4,0,9c0,2.4,1,4.5,2.9,6.1L1,19.3c-0.1,0.2,0,0.4,0.1,0.6C1.2,19.9,1.4,20,1.5,20
			c0.1,0,0.1,0,0.2,0L7,17.5c0.9,0.3,1.7,0.4,2.4,0.4c1.2,0,2.3-0.1,3.3-0.3L16,11.1z"/>
		<path d="M24,23.4l-5.9-11.8c-0.1-0.2-0.3-0.4-0.6-0.4c-0.2,0-0.5,0.1-0.6,0.4l-5.9,11.8c-0.1,0.2-0.1,0.3,0,0.5
			c0.1,0.1,0.3,0.2,0.4,0.2h12c0,0,0,0,0,0C23.8,24,24.1,23.7,24,23.4z M17,16.4c0-0.3,0.2-0.5,0.5-0.5c0.3,0,0.5,0.2,0.5,0.5v3.3
			c0,0.3-0.2,0.5-0.5,0.5c-0.3,0-0.5-0.2-0.5-0.5V16.4z M17.5,21.9c-0.3,0-0.5-0.2-0.5-0.5c0-0.3,0.2-0.5,0.5-0.5
			c0.3,0,0.5,0.2,0.5,0.5C18,21.6,17.8,21.9,17.5,21.9z"/>
	</g>
</g>
<g id="Outline_Icons">
	<g>
		<path class="st2" d="M10,17.5c-1-0.1-2.1-0.2-3-0.5l-5.5,2.5l2-4.5c-1.9-1.5-3-3.6-3-6c0-4.7,4.7-8.5,10.4-8.5
			c5.8,0,10.6,3.8,10.6,8.5c0,0.5-0.1,1-0.2,1.5"/>
		<polygon class="st3" points="23.5,23.5 11.5,23.5 17.5,11.5 		"/>
		<line class="st3" x1="17.5" y1="16.4" x2="17.5" y2="19.7"/>
		<g>
			<g>
				<g>
					<path d="M17.5,20.8c-0.3,0-0.5,0.2-0.5,0.5c0,0.3,0.2,0.5,0.5,0.5c0.3,0,0.5-0.2,0.5-0.5C18,21,17.8,20.8,17.5,20.8L17.5,20.8z
						"/>
				</g>
			</g>
		</g>
	</g>
</g>
</svg>
