<?xml version="1.0" encoding="utf-8"?>
<!-- Generator: Adobe Illustrator 19.2.0, SVG Export Plug-In . SVG Version: 6.00 Build 0)  -->
<svg version="1.1" id="Layer_1" xmlns="http://www.w3.org/2000/svg" xmlns:xlink="http://www.w3.org/1999/xlink" x="0px" y="0px"
	 viewBox="0 0 24 24" style="enable-background:new 0 0 24 24;" xml:space="preserve">
<style type="text/css">
	.st0{display:none;}
	.st1{display:inline;}
	.st2{fill:none;stroke:#000000;stroke-linecap:round;stroke-linejoin:round;stroke-miterlimit:10;}
	.st3{fill:none;stroke:#000000;stroke-linejoin:round;stroke-miterlimit:10;}
</style>
<g id="Filled_Icons" class="st0">
	<path class="st1" d="M23.5,1h-23C0.2,1,0,1.2,0,1.5v16C0,17.8,0.2,18,0.5,18H7v3.5c0,0.2,0.1,0.4,0.3,0.5c0.1,0,0.1,0,0.2,0
		c0.1,0,0.3-0.1,0.4-0.1l3.9-3.9h11.8c0.3,0,0.5-0.2,0.5-0.5v-16C24,1.2,23.8,1,23.5,1z M11,4.5C11,4.2,11.2,4,11.5,4
		C11.8,4,12,4.2,12,4.5v6c0,0.3-0.2,0.5-0.5,0.5c-0.3,0-0.5-0.2-0.5-0.5V4.5z M11.5,14C11.5,14,11.5,14,11.5,14c-0.6,0-1-0.4-1-1
		c0-0.6,0.4-1,1-1c0,0,0,0,0,0c0.5,0,1,0.4,1,1C12.5,13.5,12.1,14,11.5,14z"/>
</g>
<g id="Outline_Icons">
	<g>
		<polygon class="st2" points="23.5,17.5 11.5,17.5 7.5,21.5 7.5,17.5 0.5,17.5 0.5,1.5 23.5,1.5 		"/>
		<line class="st2" x1="11.5" y1="10.5" x2="11.5" y2="4.5"/>
		<path class="st3" d="M12,13c0,0.3-0.2,0.5-0.5,0.5l0,0c-0.3,0-0.5-0.2-0.5-0.5l0,0c0-0.3,0.2-0.5,0.5-0.5l0,0
			C11.8,12.5,12,12.7,12,13L12,13z"/>
	</g>
</g>
</svg>
