<?xml version="1.0" encoding="utf-8"?>
<!-- Generator: Adobe Illustrator 19.2.0, SVG Export Plug-In . SVG Version: 6.00 Build 0)  -->
<svg version="1.1" id="Layer_1" xmlns="http://www.w3.org/2000/svg" xmlns:xlink="http://www.w3.org/1999/xlink" x="0px" y="0px"
	 viewBox="0 0 24 24" style="enable-background:new 0 0 24 24;" xml:space="preserve">
<style type="text/css">
	.st0{display:none;}
	.st1{display:inline;}
	.st2{fill:none;stroke:#000000;stroke-linejoin:round;stroke-miterlimit:10;}
</style>
<g id="Filled_Icons" class="st0">
	<g class="st1">
		<path d="M11,16.5c0-2.8,2.1-4.5,4.2-4.5c0.9,0,1.9,0.3,2.8,1.1c0.8-0.8,1.9-1.1,2.8-1.1c0.2,0,0.4,0,0.6,0.1c0.4-0.9,0.7-2,0.7-3
			c0-5-4.9-9-11-9C4.9,0,0,4,0,9c0,2.4,1.1,4.5,2.9,6.1L1,19.3c-0.1,0.2,0,0.4,0.1,0.6C1.2,19.9,1.4,20,1.5,20c0.1,0,0.1,0,0.2,0
			l5.5-2.5C8.4,17.8,9.7,18,11,18c0.1,0,0.2,0,0.3,0C11.1,17.5,11,17,11,16.5z"/>
		<path d="M20.8,13c-1,0-2.1,0.5-2.8,1.8c-0.7-1.3-1.8-1.8-2.8-1.8c-1.6,0-3.2,1.3-3.2,3.5c0,3.2,5.5,7.2,5.7,7.4
			c0.1,0.1,0.2,0.1,0.3,0.1c0.1,0,0.2,0,0.3-0.1c0.2-0.2,5.7-4.2,5.7-7.4C24,14.3,22.4,13,20.8,13z"/>
	</g>
</g>
<g id="Outline_Icons">
	<g>
		<g>
			<path class="st2" d="M18,23.5c0,0,5.5-4,5.5-7c0-3.4-4.5-4.5-5.5-0.3c-1-4.2-5.5-3.1-5.5,0.3C12.5,19.5,18,23.5,18,23.5z"/>
		</g>
		<path class="st2" d="M9.5,17.4C8.6,17.4,7.7,17.2,7,17l-5.5,2.5l2-4.5c-1.9-1.5-3-3.6-3-6c0-4.7,4.7-8.5,10.4-8.5
			c5.8,0,10.6,3.8,10.6,8.5c0,0.3,0,0.7-0.1,1"/>
	</g>
</g>
</svg>
