<?xml version="1.0" encoding="utf-8"?>
<!-- Generator: Adobe Illustrator 19.2.0, SVG Export Plug-In . SVG Version: 6.00 Build 0)  -->
<svg version="1.1" id="Layer_1" xmlns="http://www.w3.org/2000/svg" xmlns:xlink="http://www.w3.org/1999/xlink" x="0px" y="0px"
	 viewBox="0 0 24 24" style="enable-background:new 0 0 24 24;" xml:space="preserve">
<style type="text/css">
	.st0{display:none;}
	.st1{display:inline;}
	.st2{fill:none;stroke:#000000;stroke-linecap:round;stroke-linejoin:round;stroke-miterlimit:10;}
	.st3{fill:none;stroke:#000000;stroke-linejoin:round;stroke-miterlimit:10;}
</style>
<g id="Filled_Icons" class="st0">
	<g class="st1">
		<path d="M17.5,9c1.5,0,2.9,0.5,4.1,1.2C21.9,9.5,22,8.8,22,8c0-3.9-3.1-7-7-7H7C3.1,1,0,4.1,0,8c0,3.9,3.1,7,7,7v3.5
			c0,0.2,0.1,0.4,0.3,0.5c0.1,0,0.1,0,0.2,0c0.1,0,0.3-0.1,0.4-0.1l2.2-2.2c0-0.1,0-0.1,0-0.2C10,12.4,13.4,9,17.5,9z"/>
		<path d="M17.5,10c-3.6,0-6.5,2.9-6.5,6.5s2.9,6.5,6.5,6.5s6.5-2.9,6.5-6.5S21.1,10,17.5,10z M20.6,18.8c0.2,0.2,0.2,0.5,0,0.7
			c-0.1,0.1-0.2,0.1-0.4,0.1c-0.1,0-0.3,0-0.4-0.1l-2.3-2.3l-2.3,2.3c-0.1,0.1-0.2,0.1-0.4,0.1c-0.1,0-0.3,0-0.4-0.1
			c-0.2-0.2-0.2-0.5,0-0.7l2.3-2.3l-2.3-2.3c-0.2-0.2-0.2-0.5,0-0.7c0.2-0.2,0.5-0.2,0.7,0l2.3,2.3l2.3-2.3c0.2-0.2,0.5-0.2,0.7,0
			c0.2,0.2,0.2,0.5,0,0.7l-2.3,2.3L20.6,18.8z"/>
	</g>
</g>
<g id="Outline_Icons">
	<g>
		<path class="st2" d="M12,15h-0.5l-4,4v-4H7c-3.6,0-6.5-2.9-6.5-6.5c0-3.6,2.9-7,6.5-7h8c3.6,0,6.5,3.4,6.5,7
			c0,0.9-0.2,1.7-0.5,2.5"/>
		<line class="st2" x1="20.3" y1="15.7" x2="16.7" y2="19.3"/>
		<line class="st2" x1="20.3" y1="19.3" x2="16.7" y2="15.7"/>
		<circle class="st3" cx="18.5" cy="17.5" r="5"/>
	</g>
</g>
</svg>
