<?xml version="1.0" encoding="utf-8"?>
<!-- Generator: Adobe Illustrator 19.2.0, SVG Export Plug-In . SVG Version: 6.00 Build 0)  -->
<svg version="1.1" id="Layer_1" xmlns="http://www.w3.org/2000/svg" xmlns:xlink="http://www.w3.org/1999/xlink" x="0px" y="0px"
	 viewBox="0 0 24 24" style="enable-background:new 0 0 24 24;" xml:space="preserve">
<style type="text/css">
	.st0{display:none;}
	.st1{display:inline;}
	.st2{fill:none;stroke:#000000;stroke-linejoin:round;stroke-miterlimit:10;}
	.st3{fill:none;stroke:#000000;stroke-linecap:round;stroke-linejoin:round;stroke-miterlimit:10;}
</style>
<g id="Filled_Icons" class="st0">
	<g class="st1">
		<path d="M17.5,10c1.5,0,2.9,0.4,4,1.2c0.3-0.7,0.4-1.1,0.4-1.1c0.3-2.2-0.4-4.4-1.9-6.2C17.9,1.4,14.5,0,10.9,0C4.9,0,0,4,0,9
			c0,2.4,1,4.5,2.9,6.1L1,19.3c-0.1,0.2,0,0.4,0.1,0.6C1.2,20,1.4,20,1.5,20c0.1,0,0.1,0,0.2,0L7,17.5c0.9,0.3,1.7,0.4,2.4,0.4
			c0.2,0,0.4,0,0.5,0c0-0.1,0-0.3,0-0.4C10,13.4,13.4,10,17.5,10z"/>
		<path d="M17.5,11c-3.6,0-6.5,2.9-6.5,6.5s2.9,6.5,6.5,6.5s6.5-2.9,6.5-6.5S21.1,11,17.5,11z M21.1,16.2L17,20.8l-3.1-3.1
			c-0.2-0.2-0.2-0.5,0-0.7c0.2-0.2,0.5-0.2,0.7,0l2.4,2.4l3.5-3.8c0.2-0.2,0.5-0.2,0.7,0C21.3,15.7,21.3,16,21.1,16.2z"/>
	</g>
</g>
<g id="Outline_Icons">
	<g>
		<path class="st2" d="M9.5,17.4C8.6,17.4,7.7,17.2,7,17l-5.5,2.5l2-4.5c-1.9-1.5-3-3.6-3-6c0-4.7,4.7-8.5,10.4-8.5
			c5.8,0,10.6,3.8,10.6,8.5c0,0.3,0,0.7-0.1,1"/>
		<g>
			<circle class="st2" cx="17.5" cy="17.5" r="6"/>
			<polyline class="st3" points="20.8,15.9 17,20 14.2,17.3 			"/>
		</g>
	</g>
</g>
</svg>
