<?xml version="1.0" encoding="utf-8"?>
<!-- Generator: Adobe Illustrator 19.2.0, SVG Export Plug-In . SVG Version: 6.00 Build 0)  -->
<svg version="1.1" id="Layer_1" xmlns="http://www.w3.org/2000/svg" xmlns:xlink="http://www.w3.org/1999/xlink" x="0px" y="0px"
	 viewBox="0 0 24 24" style="enable-background:new 0 0 24 24;" xml:space="preserve">
<style type="text/css">
	.st0{display:none;}
	.st1{display:inline;}
	.st2{fill:none;stroke:#000000;stroke-linejoin:round;stroke-miterlimit:10;}
	.st3{fill:none;stroke:#000000;stroke-linecap:round;stroke-linejoin:round;stroke-miterlimit:10;}
</style>
<g id="Filled_Icons" class="st0">
	<g class="st1">
		<path d="M20.6,10.7c0.2-0.2,0.5-0.2,0.7,0l0.3,0.3c0.2-0.5,0.3-0.9,0.3-0.9c0.3-2.2-0.4-4.4-1.9-6.2C17.9,1.4,14.5,0,10.9,0
			C4.9,0,0,4,0,9c0,2.4,1,4.5,2.9,6.1L1,19.3c-0.1,0.2,0,0.4,0.1,0.6C1.2,19.9,1.4,20,1.5,20c0.1,0,0.1,0,0.2,0L7,17.5
			c0.9,0.3,1.7,0.4,2.4,0.4c1.7,0,3.2-0.2,4.5-0.5L20.6,10.7z"/>
		<path d="M23.9,14.6l-2.5-2.5c-0.1-0.1-0.1-0.1-0.2-0.1c0,0,0,0,0-0.1L21,11.8l-2,2l3.2,3.2l1.6-1.6c0.1-0.1,0.1-0.2,0.1-0.4
			C24,14.9,23.9,14.7,23.9,14.6z"/>
		<polygon points="16.2,16.6 16.2,16.6 13.5,19.3 16.7,22.5 21.5,17.7 18.3,14.5 		"/>
		<path d="M12,23.4c0,0.2,0,0.4,0.1,0.5c0.1,0.1,0.2,0.1,0.4,0.1c0,0,0.1,0,0.1,0l3.2-0.9l-2.9-2.9L12,23.4z"/>
	</g>
</g>
<g id="Outline_Icons">
	<g>
		<path class="st2" d="M10,17.5c-1-0.1-2.1-0.2-3-0.5l-5.5,2.5l2-4.5c-1.9-1.5-3-3.6-3-6c0-4.7,4.7-8.5,10.4-8.5
			c5.8,0,10.6,3.8,10.6,8.5c0,0.5-0.1,1-0.2,1.5"/>
		<g>
			<polygon class="st3" points="16,22.5 12.5,23.5 13.5,20 21,12.5 23.5,15 			"/>
			<line class="st2" x1="19" y1="14.5" x2="21.5" y2="17"/>
			<line class="st3" x1="13.5" y1="20" x2="16" y2="22.5"/>
		</g>
	</g>
</g>
</svg>
