<?xml version="1.0" encoding="utf-8"?>
<!-- Generator: Adobe Illustrator 19.2.0, SVG Export Plug-In . SVG Version: 6.00 Build 0)  -->
<svg version="1.1" id="Layer_1" xmlns="http://www.w3.org/2000/svg" xmlns:xlink="http://www.w3.org/1999/xlink" x="0px" y="0px"
	 viewBox="0 0 24 24" style="enable-background:new 0 0 24 24;" xml:space="preserve">
<style type="text/css">
	.st0{display:none;}
	.st1{display:inline;}
	.st2{fill:none;stroke:#000000;stroke-linecap:round;stroke-linejoin:round;stroke-miterlimit:10;}
	.st3{fill:none;stroke:#000000;stroke-linejoin:round;stroke-miterlimit:10;}
</style>
<g id="Filled_Icons" class="st0">
	<path class="st1" d="M23.5,1h-23C0.2,1,0,1.2,0,1.5v16C0,17.8,0.2,18,0.5,18H7v3.3c0,0.2,0.1,0.4,0.3,0.5c0.1,0,0.1,0,0.2,0
		c0.1,0,0.2,0,0.3-0.1l3.9-3.6h11.8c0.3,0,0.5-0.2,0.5-0.5v-16C24,1.2,23.8,1,23.5,1z M8,3.5c1.4,0,2.5,1.1,2.5,2.5
		c0,1.4-1.1,2.5-2.5,2.5C6.6,8.5,5.5,7.4,5.5,6C5.5,4.6,6.6,3.5,8,3.5z M20.5,15h-17c-0.3,0-0.5-0.2-0.5-0.5c0-0.3,0.2-0.5,0.5-0.5
		h2.8l2.7-4.6c0.1-0.1,0.2-0.2,0.4-0.2c0.2,0,0.3,0.1,0.4,0.2l2,2.4L14,7c0.1-0.2,0.3-0.3,0.5-0.3c0.2,0,0.4,0.1,0.5,0.3l2.8,7h2.8
		c0.3,0,0.5,0.2,0.5,0.5C21,14.8,20.8,15,20.5,15z"/>
</g>
<g id="Outline_Icons">
	<g>
		<g>
			<polygon class="st2" points="23.5,17.5 11.5,17.5 7.5,21.3 7.5,17.5 0.5,17.5 0.5,1.5 23.5,1.5 			"/>
		</g>
		<g>
			<polyline class="st3" points="17.4,14.5 14.5,7.2 12,12.7 9.5,9.7 6.6,14.5 			"/>
			<line class="st2" x1="3.6" y1="14.5" x2="20.5" y2="14.5"/>
			<circle class="st3" cx="8" cy="6" r="2"/>
		</g>
	</g>
</g>
</svg>
