<?xml version="1.0" encoding="utf-8"?>
<!-- Generator: Adobe Illustrator 19.2.0, SVG Export Plug-In . SVG Version: 6.00 Build 0)  -->
<svg version="1.1" id="Layer_1" xmlns="http://www.w3.org/2000/svg" xmlns:xlink="http://www.w3.org/1999/xlink" x="0px" y="0px"
	 viewBox="0 0 24 24" style="enable-background:new 0 0 24 24;" xml:space="preserve">
<style type="text/css">
	.st0{display:none;}
	.st1{display:inline;}
	.st2{fill:none;stroke:#000000;stroke-linecap:round;stroke-linejoin:round;stroke-miterlimit:10;}
	.st3{fill:none;stroke:#000000;stroke-linejoin:round;stroke-miterlimit:10;}
</style>
<g id="Filled_Icons" class="st0">
	<g class="st1">
		<path d="M12,15.3c0-2.9,2.4-5.3,5.3-5.3c1.5,0,2.9,0.6,3.8,1.7c0.5-1,0.9-2.2,0.9-3.4c0-4-3.3-7.2-7.2-7.2H7.2C3.3,1,0,4.3,0,8.2
			c0,3.9,3.1,7.1,7,7.2V19c0,0.2,0.1,0.4,0.3,0.5c0.1,0,0.1,0,0.2,0c0.1,0,0.3-0.1,0.4-0.1l3.9-3.9H12C12,15.4,12,15.4,12,15.3z"/>
		<path d="M23.9,21.1L20.7,18c0.6-0.7,0.9-1.6,0.9-2.7c0-2.4-1.9-4.3-4.3-4.3c-2.4,0-4.3,1.9-4.3,4.3c0,2.4,1.9,4.3,4.3,4.3
			c1,0,1.9-0.4,2.7-0.9l3.2,3.2c0.1,0.1,0.2,0.1,0.4,0.1c0.1,0,0.3,0,0.4-0.1C24,21.7,24,21.3,23.9,21.1z M14,15.3
			c0-1.8,1.5-3.3,3.3-3.3c1.8,0,3.3,1.5,3.3,3.3c0,1.8-1.5,3.3-3.3,3.3C15.5,18.6,14,17.1,14,15.3z"/>
	</g>
</g>
<g id="Outline_Icons">
	<g>
		<path class="st2" d="M12,15h-0.5l-4,4v-4H7c-3.6,0-6.5-2.9-6.5-6.5c0-3.6,2.9-7,6.5-7h8c3.6,0,6.5,3.4,6.5,7
			c0,0.9-0.2,1.7-0.5,2.5"/>
		<circle class="st3" cx="17.3" cy="15.3" r="3.8"/>
		<line class="st2" x1="20" y1="18" x2="23.5" y2="21.5"/>
	</g>
</g>
</svg>
