<?xml version="1.0" encoding="utf-8"?>
<!-- Generator: Adobe Illustrator 19.2.0, SVG Export Plug-In . SVG Version: 6.00 Build 0)  -->
<svg version="1.1" id="Layer_1" xmlns="http://www.w3.org/2000/svg" xmlns:xlink="http://www.w3.org/1999/xlink" x="0px" y="0px"
	 viewBox="0 0 24 24" style="enable-background:new 0 0 24 24;" xml:space="preserve">
<style type="text/css">
	.st0{display:none;}
	.st1{display:inline;}
	.st2{fill:none;stroke:#000000;stroke-linecap:round;stroke-linejoin:round;stroke-miterlimit:10;}
</style>
<g id="Filled_Icons" class="st0">
	<g class="st1">
		<path d="M14.6,15c0.3-2.2,2.1-4,4.4-4c1.2,0,2.2,0.4,3,1.2V0.5C22,0.2,21.8,0,21.5,0h-21C0.2,0,0,0.2,0,0.5v14
			C0,14.8,0.2,15,0.5,15H4v3.5c0,0.2,0.1,0.4,0.3,0.5c0.1,0,0.1,0,0.2,0c0.1,0,0.3-0.1,0.4-0.1L8.7,15H14.6L14.6,15z"/>
		<path d="M23.5,16h-1v-0.5c0-1.9-1.6-3.5-3.5-3.5c-1.9,0-3.5,1.6-3.5,3.5V16h-1c-0.3,0-0.5,0.2-0.5,0.5v7c0,0.3,0.2,0.5,0.5,0.5h9
			c0.3,0,0.5-0.2,0.5-0.5v-7C24,16.2,23.8,16,23.5,16z M19.5,19.8v1.7c0,0.3-0.2,0.5-0.5,0.5c-0.3,0-0.5-0.2-0.5-0.5v-1.7
			C18.2,19.7,18,19.4,18,19c0-0.6,0.4-1,1-1c0.6,0,1,0.4,1,1C20,19.4,19.8,19.7,19.5,19.8z M21.5,16h-5v-0.5c0-1.4,1.1-2.5,2.5-2.5
			c1.4,0,2.5,1.1,2.5,2.5V16z"/>
	</g>
</g>
<g id="Outline_Icons">
	<g>
		<g>
			<polyline class="st2" points="13.5,14.5 8.5,14.5 4.5,18.5 4.5,14.5 0.5,14.5 0.5,0.5 21.5,0.5 21.5,9 			"/>
		</g>
		<g>
			<rect x="14.5" y="16.5" class="st2" width="9" height="7"/>
			<line class="st2" x1="19" y1="21.5" x2="19" y2="19.5"/>
			<path class="st2" d="M16,16.5v-1c0-1.7,1.3-3,3-3c1.7,0,3,1.3,3,3v1"/>
			<circle class="st2" cx="19" cy="19" r="0.5"/>
		</g>
	</g>
</g>
</svg>
