<?xml version="1.0" encoding="utf-8"?>
<!-- Generator: Adobe Illustrator 19.2.0, SVG Export Plug-In . SVG Version: 6.00 Build 0)  -->
<svg version="1.1" id="Layer_1" xmlns="http://www.w3.org/2000/svg" xmlns:xlink="http://www.w3.org/1999/xlink" x="0px" y="0px"
	 viewBox="0 0 24 24" style="enable-background:new 0 0 24 24;" xml:space="preserve">
<style type="text/css">
	.st0{display:none;}
	.st1{display:inline;}
	.st2{fill:none;stroke:#000000;stroke-linecap:round;stroke-linejoin:round;stroke-miterlimit:10;}
</style>
<g id="Filled_Icons" class="st0">
	<g class="st1">
		<path d="M23.5,1h-23C0.2,1,0,1.2,0,1.5v16C0,17.8,0.2,18,0.5,18H7v3.3c0,0.2,0.1,0.4,0.3,0.5c0.1,0,0.1,0,0.2,0
			c0.1,0,0.2,0,0.3-0.1l3.9-3.6h11.8c0.3,0,0.5-0.2,0.5-0.5v-16C24,1.2,23.8,1,23.5,1z M20.5,15h-1h-3h-2h-3h-2h-3h-3
			C3.2,15,3,14.8,3,14.5v-10C3,4.2,3.2,4,3.5,4C3.8,4,4,4.2,4,4.5V14h2V8.5C6,8.2,6.2,8,6.5,8h3C9.8,8,10,8.2,10,8.5V14h1v-3.5
			c0-0.3,0.2-0.5,0.5-0.5h3c0.3,0,0.5,0.2,0.5,0.5V14h1V4.5C16,4.2,16.2,4,16.5,4h3C19.8,4,20,4.2,20,4.5V14h0.5
			c0.3,0,0.5,0.2,0.5,0.5C21,14.8,20.8,15,20.5,15z"/>
	</g>
</g>
<g id="Outline_Icons">
	<g>
		<g>
			<polygon class="st2" points="23.5,17.5 11.5,17.5 7.5,21.3 7.5,17.5 0.5,17.5 0.5,1.5 23.5,1.5 			"/>
		</g>
		<rect x="6.5" y="8.5" class="st2" width="3" height="6"/>
		<rect x="11.5" y="10.5" class="st2" width="3" height="4"/>
		<rect x="16.5" y="4.5" class="st2" width="3" height="10"/>
		<polyline class="st2" points="3.5,4.5 3.5,14.5 20.5,14.5 		"/>
	</g>
</g>
</svg>
