<?xml version="1.0" encoding="utf-8"?>
<!-- Generator: Adobe Illustrator 19.2.0, SVG Export Plug-In . SVG Version: 6.00 Build 0)  -->
<svg version="1.1" id="Layer_1" xmlns="http://www.w3.org/2000/svg" xmlns:xlink="http://www.w3.org/1999/xlink" x="0px" y="0px"
	 viewBox="0 0 24 24" style="enable-background:new 0 0 24 24;" xml:space="preserve">
<style type="text/css">
	.st0{display:none;}
	.st1{display:inline;}
	.st2{fill:none;stroke:#000000;stroke-linecap:round;stroke-linejoin:round;stroke-miterlimit:10;}
	.st3{fill:none;stroke:#000000;stroke-linejoin:round;stroke-miterlimit:10;}
</style>
<g id="Filled_Icons" class="st0">
	<g class="st1">
		<path d="M12,15.2c0-2.6,2-4.2,4-4.2c0.8,0,1.7,0.3,2.5,1c0.8-0.7,1.7-1,2.5-1c0.1,0,0.3,0,0.5,0c0.4-0.9,0.5-1.8,0.5-2.8
			c0-4-3.3-7.2-7.2-7.2H7.2C3.3,1,0,4.3,0,8.2c0,3.9,3.1,7.1,7,7.2V19c0,0.2,0.1,0.4,0.3,0.5c0.1,0,0.1,0,0.2,0
			c0.1,0,0.3-0.1,0.4-0.1l3.9-3.9h0.4C12.1,15.4,12,15.3,12,15.2z"/>
		<path d="M21,12c-0.9,0-1.9,0.4-2.5,1.6C17.9,12.4,16.9,12,16,12c-1.5,0-3,1.2-3,3.2c0,2.8,4.6,6.3,5.2,6.7
			c0.1,0.1,0.2,0.1,0.3,0.1c0.1,0,0.2,0,0.3-0.1c0.5-0.4,5.2-3.8,5.2-6.7C24,13.2,22.4,12,21,12z"/>
	</g>
</g>
<g id="Outline_Icons">
	<g>
		<path class="st2" d="M12,15h-0.5l-4,4v-4H7c-3.6,0-6.5-2.9-6.5-6.5c0-3.6,2.9-7,6.5-7h8c3.6,0,6.5,3.4,6.5,7
			c0,0.9-0.2,1.7-0.5,2.5"/>
		<path class="st3" d="M18.5,21.5c0,0,5-3.6,5-6.3c0-3.1-4-4.1-5-0.3c-0.9-3.7-4.9-2.8-4.9,0.3C13.5,17.9,18.5,21.5,18.5,21.5z"/>
	</g>
</g>
</svg>
