<?xml version="1.0" encoding="utf-8"?>
<!-- Generator: Adobe Illustrator 19.2.0, SVG Export Plug-In . SVG Version: 6.00 Build 0)  -->
<svg version="1.1" id="Layer_1" xmlns="http://www.w3.org/2000/svg" xmlns:xlink="http://www.w3.org/1999/xlink" x="0px" y="0px"
	 viewBox="0 0 24 24" style="enable-background:new 0 0 24 24;" xml:space="preserve">
<style type="text/css">
	.st0{display:none;}
	.st1{display:inline;}
	.st2{fill:none;stroke:#000000;stroke-linejoin:round;stroke-miterlimit:10;}
	.st3{fill:none;stroke:#000000;stroke-linecap:round;stroke-linejoin:round;stroke-miterlimit:10;}
</style>
<g id="Filled_Icons" class="st0">
	<path class="st1" d="M12,0.9c-6.6,0-12,4.4-12,9.9c0,2.6,1.2,5,3.3,6.8l-2.4,4.8C0.8,22.6,0.9,22.8,1,23c0.1,0.1,0.2,0.2,0.4,0.2
		c0.1,0,0.1,0,0.2,0l6.4-3c1.3,0.4,2.6,0.6,4,0.6c6.6,0,12-4.4,12-9.9C24,5.3,18.6,0.9,12,0.9z M8.4,4.8c1.4,0,2.5,1.1,2.5,2.5
		c0,1.4-1.1,2.5-2.5,2.5c-1.4,0-2.5-1.1-2.5-2.5C5.9,6,7.1,4.8,8.4,4.8z M19.4,16.3H5.5c-0.3,0-0.5-0.2-0.5-0.5
		c0-0.3,0.2-0.5,0.5-0.5h1.2l2.7-4.6c0.1-0.1,0.2-0.2,0.4-0.2c0.2,0,0.3,0.1,0.4,0.2l2,2.4l2.2-4.8C14.5,8.1,14.7,8,14.9,8
		c0.2,0,0.4,0.1,0.5,0.3l2.8,7h1.2c0.3,0,0.5,0.2,0.5,0.5C19.9,16.1,19.7,16.3,19.4,16.3z"/>
</g>
<g id="Outline_Icons">
	<g>
		<g>
			<path class="st2" d="M23.5,10.8c0,5.2-5.1,9.4-11.5,9.4c-1.4,0-2.8-0.2-4-0.6l-6.6,3.1L4,17.5c-2.1-1.7-3.5-4.1-3.5-6.7
				c0-5.2,5.1-9.4,11.5-9.4C18.4,1.4,23.5,5.6,23.5,10.8z"/>
		</g>
		<polyline class="st2" points="17.8,15.8 14.9,8.5 12.4,14 9.9,11 7,15.8 		"/>
		<line class="st3" x1="5.5" y1="16" x2="19.4" y2="16"/>
		<circle class="st2" cx="8.4" cy="7.3" r="2"/>
	</g>
</g>
</svg>
