<?xml version="1.0" encoding="utf-8"?>
<!-- Generator: Adobe Illustrator 19.2.0, SVG Export Plug-In . SVG Version: 6.00 Build 0)  -->
<svg version="1.1" id="Layer_1" xmlns="http://www.w3.org/2000/svg" xmlns:xlink="http://www.w3.org/1999/xlink" x="0px" y="0px"
	 viewBox="0 0 24 24" style="enable-background:new 0 0 24 24;" xml:space="preserve">
<style type="text/css">
	.st0{display:none;}
	.st1{display:inline;}
	.st2{fill:none;stroke:#000000;stroke-linecap:round;stroke-linejoin:round;stroke-miterlimit:10;}
	.st3{fill:none;stroke:#000000;stroke-linejoin:round;stroke-miterlimit:10;}
</style>
<g id="Filled_Icons" class="st0">
	<path class="st1" d="M23.5,2h-23C0.2,2,0,2.2,0,2.5v15C0,17.8,0.2,18,0.5,18H7v3.5c0,0.2,0.1,0.4,0.3,0.5c0.1,0,0.1,0,0.2,0
		c0.1,0,0.3-0.1,0.4-0.1l3.9-3.9h11.8c0.3,0,0.5-0.2,0.5-0.5v-15C24,2.2,23.8,2,23.5,2z M12,5c0.6,0,1,0.4,1,1c0,0.6-0.4,1-1,1
		c-0.6,0-1-0.4-1-1C11,5.4,11.4,5,12,5z M14.5,15h-4c-0.3,0-0.5-0.2-0.5-0.5c0-0.3,0.2-0.5,0.5-0.5H12V9h-1.5C10.2,9,10,8.8,10,8.5
		C10,8.2,10.2,8,10.5,8h2C12.8,8,13,8.2,13,8.5V14h1.5c0.3,0,0.5,0.2,0.5,0.5C15,14.8,14.8,15,14.5,15z"/>
</g>
<g id="Outline_Icons">
	<g>
		<polygon class="st2" points="23.5,17.5 11.5,17.5 7.5,21.5 7.5,17.5 0.5,17.5 0.5,2.5 23.5,2.5 		"/>
		<polyline class="st2" points="12.5,14.5 12.5,8.5 10.5,8.5 		"/>
		<line class="st2" x1="10.5" y1="14.5" x2="14.5" y2="14.5"/>
		<path class="st3" d="M12.5,6c0,0.3-0.2,0.5-0.5,0.5l0,0c-0.3,0-0.5-0.2-0.5-0.5l0,0c0-0.3,0.2-0.5,0.5-0.5l0,0
			C12.3,5.5,12.5,5.7,12.5,6L12.5,6z"/>
	</g>
</g>
</svg>
