<?xml version="1.0" encoding="utf-8"?>
<!-- Generator: Adobe Illustrator 19.2.0, SVG Export Plug-In . SVG Version: 6.00 Build 0)  -->
<svg version="1.1" id="Layer_1" xmlns="http://www.w3.org/2000/svg" xmlns:xlink="http://www.w3.org/1999/xlink" x="0px" y="0px"
	 viewBox="0 0 24 24" style="enable-background:new 0 0 24 24;" xml:space="preserve">
<style type="text/css">
	.st0{display:none;}
	.st1{display:inline;}
	.st2{fill:none;stroke:#000000;stroke-linejoin:round;stroke-miterlimit:10;}
	.st3{fill:none;stroke:#000000;stroke-linecap:round;stroke-linejoin:round;stroke-miterlimit:10;}
</style>
<g id="Filled_Icons" class="st0">
	<g class="st1">
		<path d="M11.8,16.6c0-2.9,2.4-5.3,5.3-5.3c1.5,0,2.9,0.6,3.8,1.7C21.6,11.7,22,10.4,22,9c0-5-4.9-9-11-9C4.9,0,0,4,0,9
			c0,2.4,1.1,4.5,2.9,6.1L1,19.3c-0.1,0.2,0,0.4,0.1,0.6C1.2,19.9,1.4,20,1.5,20c0.1,0,0.1,0,0.2,0l5.5-2.5C8.4,17.8,9.7,18,11,18
			c0.3,0,0.6,0,1,0C11.8,17.5,11.8,17,11.8,16.6z"/>
		<path d="M23.6,22.4l-3.2-3.2c0.6-0.7,0.9-1.6,0.9-2.7c0-2.4-1.9-4.3-4.3-4.3c-2.4,0-4.3,1.9-4.3,4.3c0,2.4,1.9,4.3,4.3,4.3
			c1,0,1.9-0.4,2.7-0.9l3.2,3.2c0.1,0.1,0.2,0.1,0.4,0.1c0.1,0,0.3,0,0.4-0.1C23.8,22.9,23.8,22.6,23.6,22.4z M13.8,16.6
			c0-1.8,1.5-3.3,3.3-3.3c1.8,0,3.3,1.5,3.3,3.3c0,1.8-1.5,3.3-3.3,3.3C15.2,19.9,13.8,18.4,13.8,16.6z"/>
	</g>
</g>
<g id="Outline_Icons">
	<g>
		<g>
			<circle class="st2" cx="17.1" cy="16.6" r="3.8"/>
			<line class="st3" x1="19.8" y1="19.2" x2="23.2" y2="22.8"/>
		</g>
		<path class="st2" d="M9.8,18.2C8.9,18.1,8,18,7.2,17.8l-5.5,2.5l2-4.5c-1.9-1.5-3-3.6-3-6c0-4.7,4.7-8.5,10.4-8.5
			c5.8,0,10.6,3.8,10.6,8.5c0,0.3,0,0.7-0.1,1"/>
	</g>
</g>
</svg>
