<?xml version="1.0" encoding="utf-8"?>
<!-- Generator: Adobe Illustrator 19.2.0, SVG Export Plug-In . SVG Version: 6.00 Build 0)  -->
<svg version="1.1" id="Layer_1" xmlns="http://www.w3.org/2000/svg" xmlns:xlink="http://www.w3.org/1999/xlink" x="0px" y="0px"
	 viewBox="0 0 24 24" style="enable-background:new 0 0 24 24;" xml:space="preserve">
<style type="text/css">
	.st0{display:none;}
	.st1{display:inline;}
	.st2{fill:none;stroke:#000000;stroke-linecap:round;stroke-linejoin:round;stroke-miterlimit:10;}
</style>
<g id="Filled_Icons" class="st0">
	<path class="st1" d="M23.5,1h-23C0.2,1,0,1.2,0,1.5v16C0,17.8,0.2,18,0.5,18H7v3.5c0,0.2,0.1,0.4,0.3,0.5c0.1,0,0.1,0,0.2,0
		c0.1,0,0.3-0.1,0.4-0.1l3.9-3.9h11.8c0.3,0,0.5-0.2,0.5-0.5v-16C24,1.2,23.8,1,23.5,1z M5.5,6h9C14.8,6,15,6.2,15,6.5
		C15,6.8,14.8,7,14.5,7h-9C5.2,7,5,6.8,5,6.5C5,6.2,5.2,6,5.5,6z M18.5,13h-13C5.2,13,5,12.8,5,12.5C5,12.2,5.2,12,5.5,12h13
		c0.3,0,0.5,0.2,0.5,0.5C19,12.8,18.8,13,18.5,13z M18.5,10h-13C5.2,10,5,9.8,5,9.5C5,9.2,5.2,9,5.5,9h13C18.8,9,19,9.2,19,9.5
		C19,9.8,18.8,10,18.5,10z"/>
</g>
<g id="Outline_Icons">
	<g>
		<polygon class="st2" points="23.5,17.5 11.5,17.5 7.5,21.5 7.5,17.5 0.5,17.5 0.5,1.5 23.5,1.5 		"/>
		<line class="st2" x1="5.5" y1="6.5" x2="14.5" y2="6.5"/>
		<line class="st2" x1="5.5" y1="9.5" x2="18.5" y2="9.5"/>
		<line class="st2" x1="5.5" y1="12.5" x2="18.5" y2="12.5"/>
	</g>
</g>
</svg>
