<?xml version="1.0" encoding="utf-8"?>
<!-- Generator: Adobe Illustrator 19.2.0, SVG Export Plug-In . SVG Version: 6.00 Build 0)  -->
<svg version="1.1" id="Layer_1" xmlns="http://www.w3.org/2000/svg" xmlns:xlink="http://www.w3.org/1999/xlink" x="0px" y="0px"
	 viewBox="0 0 24 24" style="enable-background:new 0 0 24 24;" xml:space="preserve">
<style type="text/css">
	.st0{display:none;}
	.st1{display:inline;}
	.st2{fill:none;stroke:#000000;stroke-linecap:round;stroke-linejoin:round;stroke-miterlimit:10;}
	.st3{fill:none;stroke:#000000;stroke-linejoin:round;stroke-miterlimit:10;}
</style>
<g id="Filled_Icons" class="st0">
	<g class="st1">
		<path d="M20.6,10.7c0.2-0.2,0.5-0.2,0.7,0l0.6,0.6V0.5C22,0.2,21.8,0,21.5,0h-21C0.2,0,0,0.2,0,0.5v14C0,14.8,0.2,15,0.5,15H4v3.5
			c0,0.2,0.1,0.4,0.3,0.5c0.1,0,0.1,0,0.2,0c0.1,0,0.3-0.1,0.4-0.1L8.7,15h7.7L20.6,10.7z"/>
		<path d="M23.9,14.6L22,12.8l0,0l-1-1l-2,2l3.2,3.2l1.6-1.6c0.1-0.1,0.1-0.2,0.1-0.4C24,14.9,23.9,14.7,23.9,14.6z"/>
		<path d="M12,23.4c-0.1,0.2,0,0.4,0.1,0.5c0.1,0.1,0.2,0.1,0.4,0.1c0,0,0.1,0,0.1,0l3.2-0.9l-2.9-2.9L12,23.4z"/>
		<polygon points="17.8,15 17.8,15 13.5,19.3 16.7,22.5 21.5,17.7 18.3,14.5 		"/>
	</g>
</g>
<g id="Outline_Icons">
	<g>
		<polyline class="st2" points="13.5,14.5 8.5,14.5 4.5,18.5 4.5,14.5 0.5,14.5 0.5,0.5 21.5,0.5 21.5,9 		"/>
		<g>
			<polygon class="st2" points="16,22.5 12.5,23.5 13.5,20 21,12.5 23.5,15 			"/>
			<line class="st3" x1="19" y1="14.5" x2="21.5" y2="17"/>
			<line class="st2" x1="13.5" y1="20" x2="16" y2="22.5"/>
		</g>
	</g>
</g>
</svg>
