<?xml version="1.0" encoding="utf-8"?>
<!-- Generator: Adobe Illustrator 19.2.0, SVG Export Plug-In . SVG Version: 6.00 Build 0)  -->
<svg version="1.1" id="Layer_1" xmlns="http://www.w3.org/2000/svg" xmlns:xlink="http://www.w3.org/1999/xlink" x="0px" y="0px"
	 viewBox="0 0 24 24" style="enable-background:new 0 0 24 24;" xml:space="preserve">
<style type="text/css">
	.st0{display:none;}
	.st1{display:inline;}
	.st2{fill:none;stroke:#000000;stroke-linecap:round;stroke-linejoin:round;stroke-miterlimit:10;}
	.st3{fill:none;stroke:#000000;stroke-linejoin:round;stroke-miterlimit:10;}
</style>
<g id="Filled_Icons" class="st0">
	<g class="st1">
		<rect x="7" y="7" width="3" height="3"/>
		<rect x="14" y="7" width="3" height="3"/>
		<path d="M23.5,2h-23C0.2,2,0,2.2,0,2.5v15C0,17.8,0.2,18,0.5,18H7v3.5c0,0.2,0.1,0.4,0.3,0.5c0.1,0,0.1,0,0.2,0
			c0.1,0,0.3-0.1,0.4-0.1l3.9-3.9h11.8c0.3,0,0.5-0.2,0.5-0.5v-15C24,2.2,23.8,2,23.5,2z M11,10.5V12c0,1.4-1.1,2.5-2.5,2.5
			C8.2,14.5,8,14.3,8,14c0-0.3,0.2-0.5,0.5-0.5c0.8,0,1.5-0.7,1.5-1.5v-1H6.5C6.2,11,6,10.8,6,10.5v-4C6,6.2,6.2,6,6.5,6h4
			C10.8,6,11,6.2,11,6.5V10.5z M18,10.5V12c0,1.4-1.1,2.5-2.5,2.5c-0.3,0-0.5-0.2-0.5-0.5c0-0.3,0.2-0.5,0.5-0.5
			c0.8,0,1.5-0.7,1.5-1.5v-1h-3.5c-0.3,0-0.5-0.2-0.5-0.5v-4C13,6.2,13.2,6,13.5,6h4C17.8,6,18,6.2,18,6.5V10.5z"/>
	</g>
</g>
<g id="Outline_Icons">
	<g>
		<polygon class="st2" points="23.5,17.5 11.5,17.5 7.5,21.5 7.5,17.5 0.5,17.5 0.5,2.5 23.5,2.5 		"/>
		<rect x="6.5" y="6.5" class="st3" width="4" height="4"/>
		<path class="st2" d="M10.5,10.5V12c0,1.1-0.9,2-2,2"/>
		<rect x="13.5" y="6.5" class="st3" width="4" height="4"/>
		<path class="st2" d="M17.5,10.5V12c0,1.1-0.9,2-2,2"/>
	</g>
</g>
</svg>
