<?xml version="1.0" encoding="utf-8"?>
<!-- Generator: Adobe Illustrator 19.2.0, SVG Export Plug-In . SVG Version: 6.00 Build 0)  -->
<svg version="1.1" id="Layer_1" xmlns="http://www.w3.org/2000/svg" xmlns:xlink="http://www.w3.org/1999/xlink" x="0px" y="0px"
	 viewBox="0 0 24 24" style="enable-background:new 0 0 24 24;" xml:space="preserve">
<style type="text/css">
	.st0{display:none;}
	.st1{display:inline;}
	.st2{fill:none;stroke:#000000;stroke-linejoin:round;stroke-miterlimit:10;}
	.st3{fill:none;stroke:#000000;stroke-linecap:round;stroke-linejoin:round;stroke-miterlimit:10;}
</style>
<g id="Filled_Icons" class="st0">
	<g class="st1">
		<path d="M15.2,12.1c0.9,0,1.9,0.3,2.8,1.1c0.8-0.8,1.9-1.1,2.8-1.1c0.4,0,0.8,0.1,1.2,0.2V0.5C22,0.2,21.8,0,21.5,0h-21
			C0.2,0,0,0.2,0,0.5v14C0,14.8,0.2,15,0.5,15H4v3.5c0,0.2,0.1,0.4,0.3,0.5c0.1,0,0.1,0,0.2,0c0.1,0,0.3-0.1,0.4-0.1L8.7,15h2.6
			C11.9,13.1,13.6,12.1,15.2,12.1z"/>
		<path d="M20.8,13c-1,0-2.1,0.5-2.8,1.8c-0.7-1.3-1.8-1.8-2.8-1.8c-1.6,0-3.2,1.3-3.2,3.5c0,3.2,5.5,7.2,5.7,7.4
			C17.8,24,17.9,24,18,24c0.1,0,0.2,0,0.3-0.1c0.2-0.2,5.7-4.2,5.7-7.4C24,14.3,22.4,13,20.8,13z"/>
	</g>
</g>
<g id="Outline_Icons">
	<g>
		<g>
			<path class="st2" d="M18,23.6c0,0,5.5-4,5.5-7c0-3.4-4.5-4.5-5.5-0.3c-1-4.2-5.5-3.1-5.5,0.3C12.5,19.6,18,23.6,18,23.6z"/>
		</g>
		<polyline class="st3" points="9.5,14.5 8.5,14.5 4.5,18.5 4.5,14.5 0.5,14.5 0.5,0.5 21.5,0.5 21.5,9.5 		"/>
	</g>
</g>
</svg>
