<?xml version="1.0" encoding="utf-8"?>
<!-- Generator: Adobe Illustrator 19.2.0, SVG Export Plug-In . SVG Version: 6.00 Build 0)  -->
<svg version="1.1" id="Layer_1" xmlns="http://www.w3.org/2000/svg" xmlns:xlink="http://www.w3.org/1999/xlink" x="0px" y="0px"
	 viewBox="0 0 24 24" style="enable-background:new 0 0 24 24;" xml:space="preserve">
<style type="text/css">
	.st0{display:none;}
	.st1{display:inline;}
	.st2{fill:none;stroke:#000000;stroke-linecap:round;stroke-linejoin:round;stroke-miterlimit:10;}
	.st3{fill:none;stroke:#000000;stroke-linejoin:round;stroke-miterlimit:10;}
</style>
<g id="Filled_Icons" class="st0">
	<g class="st1">
		<path d="M15.1,15l1.5-2.9c0.3-0.6,0.8-0.9,1.5-0.9c0.6,0,1.2,0.4,1.5,0.9l1.5,2.9h0.6c0.3,0,0.5-0.2,0.5-0.5v-14
			C22,0.2,21.8,0,21.5,0h-21C0.2,0,0,0.2,0,0.5v14C0,14.8,0.2,15,0.5,15H4v3.5c0,0.2,0.1,0.4,0.3,0.5c0.1,0,0.1,0,0.2,0
			c0.1,0,0.3-0.1,0.4-0.1L8.7,15h4H15.1z"/>
		<path d="M23.8,16.4c-0.1-0.2-0.3-0.4-0.6-0.4h-2.9l0,0l-1.7-3.5c-0.1-0.2-0.3-0.4-0.6-0.4c-0.2,0-0.4,0.1-0.6,0.4L15.7,16l0,0
			h-2.9c-0.3,0-0.5,0.2-0.6,0.4c-0.1,0.2,0,0.5,0.2,0.7l2.5,2.1l0,0l0,0l-1.3,3.9c0,0,0,0,0,0c-0.1,0.4,0,0.5,0.3,0.8
			c0.3,0,0.4,0,0.6-0.1l3.5-2.4l3.5,2.4c0.2,0.2,0.4,0.1,0.7,0.1c0.2-0.3,0.3-0.4,0.2-0.8c0,0,0,0,0,0l-1.3-3.9l0,0l0,0l2.5-2.1
			C23.9,16.9,23.9,16.6,23.8,16.4z"/>
	</g>
</g>
<g id="Outline_Icons">
	<g>
		<polyline class="st2" points="11,14.5 8.5,14.5 4.5,18.5 4.5,14.5 0.5,14.5 0.5,0.5 21.5,0.5 21.5,10.5 		"/>
		<g>
			<polygon class="st3" points="18,12.5 20,16.5 23.5,16.5 20.5,19 22,23.5 18,20.8 14,23.5 15.5,19 12.5,16.5 16,16.5 			"/>
		</g>
	</g>
</g>
</svg>
