<?xml version="1.0" encoding="utf-8"?>
<!-- Generator: Adobe Illustrator 19.2.0, SVG Export Plug-In . SVG Version: 6.00 Build 0)  -->
<svg version="1.1" id="Layer_1" xmlns="http://www.w3.org/2000/svg" xmlns:xlink="http://www.w3.org/1999/xlink" x="0px" y="0px"
	 viewBox="0 0 24 24" style="enable-background:new 0 0 24 24;" xml:space="preserve">
<style type="text/css">
	.st0{display:none;}
	.st1{display:inline;}
	.st2{fill:none;stroke:#000000;stroke-linejoin:round;stroke-miterlimit:10;}
</style>
<g id="Filled_Icons" class="st0">
	<g class="st1">
		<path d="M11.2,16c0.2-0.6,0.8-1,1.5-1h2.3l1.5-2.9c0.3-0.6,0.8-0.9,1.5-0.9c0.6,0,1.2,0.4,1.5,0.9l0.7,1.4
			c1.4-1.8,1.7-3.4,1.7-3.4c0.3-2.2-0.4-4.4-1.9-6.2C17.9,1.4,14.5,0,10.9,0C4.9,0,0,4,0,9c0,2.4,1,4.5,2.9,6.1L1,19.3
			c-0.1,0.2,0,0.4,0.1,0.6C1.2,19.9,1.4,20,1.5,20c0.1,0,0.1,0,0.2,0L7,17.5c0.9,0.3,1.7,0.4,2.4,0.4c0.8,0,1.5,0,2.2-0.1
			C11.2,17.4,11,16.7,11.2,16z"/>
		<path d="M23.8,16.4c-0.1-0.2-0.3-0.4-0.6-0.4h-2.9l0,0l-1.7-3.5c-0.1-0.2-0.3-0.4-0.6-0.4c-0.2,0-0.4,0.1-0.6,0.4L15.7,16l0,0
			h-2.9c-0.3,0-0.5,0.1-0.6,0.4c-0.2,0.5,0.5,0.9,0.9,1.2l0,0l1.9,1.6l0,0l0,0l-1.3,3.9c0,0,0,0,0,0c-0.1,0.4,0,0.5,0.3,0.8
			c0.3,0,0.4,0,0.6-0.1l3.5-2.4l3.5,2.4c0.2,0.2,0.4,0.1,0.7,0.1c0.2-0.3,0.3-0.4,0.2-0.8l0,0l-1.3-3.9l0,0l0,0l2.5-2.1
			C23.9,16.9,23.9,16.6,23.8,16.4z"/>
	</g>
</g>
<g id="Outline_Icons">
	<g>
		<path class="st2" d="M10,17.5c-1-0.1-2.1-0.2-3-0.5l-5.5,2.5l2-4.5c-1.9-1.5-3-3.6-3-6c0-4.7,4.7-8.5,10.4-8.5
			c5.8,0,10.6,3.8,10.6,8.5c0,0.5-0.1,1-0.2,1.5"/>
		<g>
			<polygon class="st2" points="18,12.5 20,16.5 23.5,16.5 20.5,19 22,23.5 18,20.8 14,23.5 15.5,19 12.5,16.5 16,16.5 			"/>
		</g>
	</g>
</g>
</svg>
