<?xml version="1.0" encoding="utf-8"?>
<!-- Generator: Adobe Illustrator 19.2.0, SVG Export Plug-In . SVG Version: 6.00 Build 0)  -->
<svg version="1.1" id="Outline_Icons" xmlns="http://www.w3.org/2000/svg" xmlns:xlink="http://www.w3.org/1999/xlink" x="0px"
	 y="0px" viewBox="0 0 24 24" style="enable-background:new 0 0 24 24;" xml:space="preserve">
<style type="text/css">
	.st0{fill:none;stroke:#000000;stroke-linejoin:round;stroke-miterlimit:10;}
	.st1{fill:none;stroke:#000000;stroke-linecap:round;stroke-linejoin:round;stroke-miterlimit:10;}
</style>
<g>
	<g>
		<path class="st0" d="M9.9,18.2C9,18.1,8.1,18,7.4,17.8l-5.5,2.5l2-4.5c-1.9-1.5-3-3.6-3-6c0-4.7,4.7-8.5,10.4-8.5
			s10.6,3.8,10.6,8.5c0,0.3,0,0.7-0.1,1"/>
	</g>
	<g>
		<polyline class="st1" points="22.5,15 22.5,17.5 20,17.5 		"/>
		<path class="st1" d="M13.6,17.5c0.6-1.7,2.3-3,4.2-3s3.8,1.2,4.5,3"/>
		<g>
			<polyline class="st1" points="13.5,23 13.5,20.5 16.3,20.5 			"/>
			<path class="st1" d="M22.6,20.5c-0.6,1.7-2.3,3-4.2,3s-3.8-1.2-4.5-3"/>
		</g>
	</g>
</g>
</svg>
