<?xml version="1.0" encoding="utf-8"?>
<!-- Generator: Adobe Illustrator 19.2.0, SVG Export Plug-In . SVG Version: 6.00 Build 0)  -->
<svg version="1.1" id="Layer_1" xmlns="http://www.w3.org/2000/svg" xmlns:xlink="http://www.w3.org/1999/xlink" x="0px" y="0px"
	 viewBox="0 0 24 24" style="enable-background:new 0 0 24 24;" xml:space="preserve">
<style type="text/css">
	.st0{display:none;}
	.st1{display:inline;}
	.st2{fill:none;stroke:#000000;stroke-linecap:round;stroke-linejoin:round;stroke-miterlimit:10;}
</style>
<g id="Filled_Icons" class="st0">
	<g class="st1">
		<path d="M12,16c0.6,0,1.1,0,1.6-0.1l2.4-4.9c0.3-0.6,0.8-0.9,1.5-0.9s1.2,0.3,1.5,0.9l1.2,2.5c0.9-0.9,1.2-1.7,1.3-1.9
			C21.8,10.8,22,9.9,22,9c0-3.9-3.1-7-7-7H7C3.1,2,0,5.1,0,9c0,3.9,3.1,7,7,7v3.5c0,0.2,0.1,0.4,0.3,0.5c0.1,0,0.1,0,0.2,0
			c0.1,0,0.3-0.1,0.4-0.1l3.9-3.9H12z"/>
		<path d="M24,23.4l-5.9-11.8c-0.1-0.2-0.3-0.4-0.6-0.4c-0.2,0-0.5,0.1-0.6,0.4l-5.9,11.8c-0.1,0.2-0.1,0.3,0,0.5
			c0.1,0.1,0.3,0.2,0.4,0.2h12c0,0,0,0,0,0c0.3,0,0.5-0.2,0.5-0.5C24,23.4,24,23.4,24,23.4z M17,16.4c0-0.3,0.2-0.5,0.5-0.5
			c0.3,0,0.5,0.2,0.5,0.5v3.3c0,0.3-0.2,0.5-0.5,0.5c-0.3,0-0.5-0.2-0.5-0.5V16.4z M17.5,21.9c-0.3,0-0.5-0.2-0.5-0.5
			c0-0.3,0.2-0.5,0.5-0.5c0.3,0,0.5,0.2,0.5,0.5C18,21.6,17.8,21.9,17.5,21.9z"/>
	</g>
</g>
<g id="Outline_Icons">
	<g>
		<path class="st2" d="M12,15.5h-0.5l-4,4v-4H7c-3.6,0-6.5-2.9-6.5-6.5c0-3.6,2.9-6.5,6.5-6.5h8c3.6,0,6.5,2.9,6.5,6.5
			c0,0.9-0.2,1.7-0.5,2.5"/>
		<polygon class="st2" points="23,21.5 13,21.5 18,11.5 		"/>
		<line class="st2" x1="18" y1="16" x2="18" y2="18"/>
		<g>
			<g>
				<g>
					<path d="M18,19c-0.3,0-0.5,0.2-0.5,0.5c0,0.3,0.2,0.5,0.5,0.5c0.3,0,0.5-0.2,0.5-0.5C18.5,19.2,18.3,19,18,19L18,19z"/>
				</g>
			</g>
		</g>
	</g>
</g>
</svg>
