<?xml version="1.0" encoding="utf-8"?>
<!-- Generator: Adobe Illustrator 19.2.0, SVG Export Plug-In . SVG Version: 6.00 Build 0)  -->
<svg version="1.1" id="Layer_1" xmlns="http://www.w3.org/2000/svg" xmlns:xlink="http://www.w3.org/1999/xlink" x="0px" y="0px"
	 viewBox="0 0 24 24" style="enable-background:new 0 0 24 24;" xml:space="preserve">
<style type="text/css">
	.st0{display:none;}
	.st1{display:inline;}
	.st2{fill:none;stroke:#000000;stroke-linejoin:round;stroke-miterlimit:10;}
	.st3{fill:none;stroke:#000000;stroke-linecap:round;stroke-linejoin:round;stroke-miterlimit:10;}
</style>
<g id="Filled_Icons" class="st0">
	<path class="st1" d="M12,0.9c-6.6,0-12,4.4-12,9.9c0,2.6,1.2,5,3.3,6.8l-2.4,4.8C0.8,22.6,0.9,22.8,1,23c0.1,0.1,0.2,0.2,0.4,0.2
		c0.1,0,0.1,0,0.2,0l6.4-3c1.3,0.4,2.6,0.6,4,0.6c6.6,0,12-4.4,12-9.9C24,5.3,18.6,0.9,12,0.9z M18.5,16.3h-1h-2h-2h-2h-2h-2h-2
		c-0.3,0-0.5-0.2-0.5-0.5v-9c0-0.3,0.2-0.5,0.5-0.5C5.8,6.3,6,6.6,6,6.8v8.5h1V9.8c0-0.3,0.2-0.5,0.5-0.5h2c0.3,0,0.5,0.2,0.5,0.5
		v5.5h1v-3.5c0-0.3,0.2-0.5,0.5-0.5h2c0.3,0,0.5,0.2,0.5,0.5v3.5h1V6.8c0-0.3,0.2-0.5,0.5-0.5h2c0.3,0,0.5,0.2,0.5,0.5v8.5h0.5
		c0.3,0,0.5,0.2,0.5,0.5C19,16.1,18.8,16.3,18.5,16.3z"/>
</g>
<g id="Outline_Icons">
	<g>
		<g>
			<path class="st2" d="M23.5,10.8c0,5.2-5.1,9.4-11.5,9.4c-1.4,0-2.8-0.2-4-0.6l-6.6,3.1L4,17.5c-2.1-1.7-3.5-4.1-3.5-6.7
				c0-5.2,5.1-9.4,11.5-9.4C18.4,1.4,23.5,5.6,23.5,10.8z"/>
		</g>
		<rect x="7.5" y="10" class="st3" width="2" height="6"/>
		<rect x="11.5" y="12" class="st3" width="2" height="4"/>
		<rect x="15.5" y="7" class="st3" width="2" height="9"/>
		<polyline class="st3" points="5.5,7 5.5,16 18.5,16 		"/>
	</g>
</g>
</svg>
