<?xml version="1.0" encoding="utf-8"?>
<!-- Generator: Adobe Illustrator 19.2.0, SVG Export Plug-In . SVG Version: 6.00 Build 0)  -->
<svg version="1.1" id="Layer_1" xmlns="http://www.w3.org/2000/svg" xmlns:xlink="http://www.w3.org/1999/xlink" x="0px" y="0px"
	 viewBox="0 0 24 24" style="enable-background:new 0 0 24 24;" xml:space="preserve">
<style type="text/css">
	.st0{display:none;}
	.st1{display:inline;}
	.st2{fill:none;stroke:#000000;stroke-linecap:round;stroke-linejoin:round;stroke-miterlimit:10;}
	.st3{fill:none;stroke:#000000;stroke-linejoin:round;stroke-miterlimit:10;}
</style>
<g id="Filled_Icons" class="st0">
	<g class="st1">
		<path d="M18.5,11c0.9,0,1.8,0.2,2.6,0.5c0.3-0.4,0.4-0.7,0.4-0.9C21.8,9.8,22,8.9,22,8c0-3.9-3.1-7-7-7H7C3.1,1,0,4.1,0,8
			c0,3.9,3.1,7,7,7v3.5c0,0.2,0.1,0.4,0.3,0.5c0.1,0,0.1,0,0.2,0c0.1,0,0.3-0.1,0.4-0.1l3.9-3.9H12c0.2,0,0.3,0,0.5,0
			C13.5,12.6,15.8,11,18.5,11z"/>
		<path d="M18.5,12c-3,0-5.5,2.5-5.5,5.5c0,3,2.5,5.5,5.5,5.5c3,0,5.5-2.5,5.5-5.5C24,14.5,21.5,12,18.5,12z M21,18h-2v2
			c0,0.3-0.2,0.5-0.5,0.5c-0.3,0-0.5-0.2-0.5-0.5v-2h-2c-0.3,0-0.5-0.2-0.5-0.5c0-0.3,0.2-0.5,0.5-0.5h2v-2c0-0.3,0.2-0.5,0.5-0.5
			c0.3,0,0.5,0.2,0.5,0.5v2h2c0.3,0,0.5,0.2,0.5,0.5C21.5,17.8,21.3,18,21,18z"/>
	</g>
</g>
<g id="Outline_Icons">
	<g>
		<path class="st2" d="M12,14.5h-0.5l-4,4v-4H7c-3.6,0-6.5-2.9-6.5-6.5c0-3.6,2.9-6.5,6.5-6.5h8c3.6,0,6.5,2.9,6.5,6.5
			c0,0.9-0.2,1.7-0.5,2.5"/>
		<g>
			<circle class="st3" cx="18.5" cy="17.5" r="5"/>
			<line class="st2" x1="18.5" y1="15" x2="18.5" y2="20"/>
			<line class="st2" x1="21" y1="17.5" x2="16" y2="17.5"/>
		</g>
	</g>
</g>
</svg>
