<?xml version="1.0" encoding="utf-8"?>
<!-- Generator: Adobe Illustrator 19.2.0, SVG Export Plug-In . SVG Version: 6.00 Build 0)  -->
<svg version="1.1" id="Layer_1" xmlns="http://www.w3.org/2000/svg" xmlns:xlink="http://www.w3.org/1999/xlink" x="0px" y="0px"
	 viewBox="0 0 24 24" style="enable-background:new 0 0 24 24;" xml:space="preserve">
<style type="text/css">
	.st0{display:none;}
	.st1{display:inline;}
	.st2{fill:none;stroke:#000000;stroke-linecap:round;stroke-linejoin:round;stroke-miterlimit:10;}
	.st3{fill:none;stroke:#000000;stroke-linejoin:round;stroke-miterlimit:10;}
</style>
<g id="Filled_Icons" class="st0">
	<g class="st1">
		<path d="M15.1,14l1.5-2.9c0.3-0.6,0.8-0.9,1.5-0.9c0.6,0,1.2,0.4,1.5,0.9l0.7,1.5c0.9-0.9,1.2-1.7,1.3-1.9C21.8,9.8,22,8.9,22,8
			c0-3.9-3.1-7-7-7H7C3.1,1,0,4.1,0,8c0,3.9,3.1,7,7,7v3.5c0,0.2,0.1,0.4,0.3,0.5c0.1,0,0.1,0,0.2,0c0.1,0,0.3-0.1,0.4-0.1l3.3-3.3
			c0-0.2,0-0.4,0.1-0.5c0.2-0.6,0.8-1,1.5-1H15.1z"/>
		<path d="M23.8,15.4c0-0.1,0-0.1-0.1-0.1c0,0,0,0,0,0c0,0-0.1-0.1-0.1-0.1c0,0,0,0-0.1,0c0,0-0.1,0-0.1-0.1c-0.1,0-0.1,0-0.2,0
			h-2.9l0,0l-1.7-3.5c-0.1-0.2-0.3-0.4-0.6-0.4c-0.2,0-0.4,0.1-0.6,0.4L15.7,15l0,0h-2.9c-0.1,0-0.1,0-0.2,0c0,0-0.1,0-0.1,0.1
			c0,0,0,0-0.1,0c0,0-0.1,0.1-0.1,0.1c0,0,0,0,0,0c0,0-0.1,0.1-0.1,0.1c0,0.1,0,0.1,0,0.2c0,0,0,0.1,0,0.1c0,0,0,0.1,0,0.1
			c0,0,0,0.1,0,0.1c0,0,0,0.1,0,0.1c0,0.1,0.1,0.1,0.1,0.2l2.5,2.1l0,0l0,0l-1.3,3.9c0,0,0,0,0,0c0,0.1,0,0.1,0,0.2c0,0,0,0.1,0,0.1
			c0,0,0,0.1,0,0.1c0,0,0,0.1,0,0.1c0,0,0,0,0,0.1c0,0,0,0.1,0.1,0.1c0,0,0,0,0,0l0.2,0.2h0.3c0.1,0,0.3,0,0.4-0.1l3.5-2.4l3.5,2.4
			c0.1,0,0.1,0.1,0.2,0.1c0,0,0,0,0,0c0.1,0,0.1,0,0.2,0h0l0.3,0l0.2-0.2c0,0,0,0,0,0c0,0,0-0.1,0.1-0.1c0,0,0,0,0,0
			c0,0,0-0.1,0-0.1c0,0,0,0,0-0.1c0,0,0-0.1,0-0.1c0-0.1,0-0.1,0-0.2c0,0,0,0,0,0l-1.3-3.9l0,0l0,0l2.5-2.1c0.1,0,0.1-0.1,0.1-0.2
			c0,0,0-0.1,0.1-0.1c0,0,0,0,0-0.1c0,0,0-0.1,0-0.1c0,0,0,0,0-0.1C23.9,15.5,23.9,15.4,23.8,15.4z"/>
	</g>
</g>
<g id="Outline_Icons">
	<g>
		<path class="st2" d="M12,14.5h-0.5l-4,4v-4H7c-3.6,0-6.5-2.9-6.5-6.5c0-3.6,2.9-6.5,6.5-6.5h8c3.6,0,6.5,2.9,6.5,6.5
			c0,0.9-0.2,1.7-0.5,2.5"/>
		<polygon class="st3" points="18.5,12 20,15.5 23.5,15.5 20.5,18 22,22 18.5,19.5 15,22 16.5,18 13.5,15.5 17,15.5 		"/>
	</g>
</g>
</svg>
