<?xml version="1.0" encoding="utf-8"?>
<!-- Generator: Adobe Illustrator 19.2.0, SVG Export Plug-In . SVG Version: 6.00 Build 0)  -->
<svg version="1.1" id="Layer_1" xmlns="http://www.w3.org/2000/svg" xmlns:xlink="http://www.w3.org/1999/xlink" x="0px" y="0px"
	 viewBox="0 0 24 24" style="enable-background:new 0 0 24 24;" xml:space="preserve">
<style type="text/css">
	.st0{display:none;}
	.st1{display:inline;}
	.st2{fill:none;stroke:#000000;stroke-linejoin:round;stroke-miterlimit:10;}
	.st3{fill:none;stroke:#000000;stroke-linecap:round;stroke-linejoin:round;stroke-miterlimit:10;}
</style>
<g id="Filled_Icons" class="st0">
	<g class="st1">
		<path d="M4,18.5c0,0.2,0.1,0.4,0.3,0.5c0,0,0.1,0,0.1,0c1.1-3.8,3.8-7.9,9.4-8.6V9.8c0-0.6,0.3-1.1,0.9-1.4
			c0.5-0.2,1.1-0.2,1.6,0.2l0.7,0.6C17,9.1,17,9,17.1,8.9c0.5-0.6,1.5-0.8,2.1-0.2l2.8,2.2V0.5C22,0.2,21.8,0,21.5,0h-21
			C0.2,0,0,0.2,0,0.5v14C0,14.8,0.2,15,0.5,15H4V18.5z"/>
		<path d="M20.6,13.4l-5-4c-0.2-0.1-0.4-0.1-0.5-0.1c-0.2,0.1-0.3,0.3-0.3,0.5v1.5c-9.9,0.4-10,11.9-10,12c0,0.3,0.2,0.5,0.5,0.5
			c0,0,0,0,0,0c0.2,0,0.4-0.2,0.5-0.4c0.1-0.3,1.5-6.8,9-7.1v1.5c0,0.2,0.1,0.4,0.3,0.5c0.2,0.1,0.4,0.1,0.5-0.1l5-4
			c0.1-0.1,0.2-0.2,0.2-0.4C20.8,13.7,20.7,13.5,20.6,13.4z"/>
		<g>
			<path d="M18.3,18.3c-0.1,0-0.3-0.1-0.4-0.2c-0.2-0.2-0.1-0.5,0.1-0.7l4.5-3.6L18,10.2c-0.2-0.2-0.2-0.5-0.1-0.7
				c0.2-0.2,0.5-0.3,0.7-0.1l5,4c0.1,0.1,0.2,0.2,0.2,0.4c0,0.2-0.1,0.3-0.2,0.4l-5,4C18.5,18.3,18.4,18.3,18.3,18.3z"/>
		</g>
	</g>
</g>
<g id="Outline_Icons">
	<g>
		<path class="st2" d="M15.3,17.8c0,0,0-0.5,0-2c-8.5,0-10,7.5-10,7.5s0-11.5,10-11.5c0-0.5,0-2,0-2l5,4L15.3,17.8z"/>
		<polyline class="st3" points="18.3,9.8 23.3,13.8 18.3,17.8 		"/>
		<polyline class="st3" points="4.5,17.5 4.5,14.5 0.5,14.5 0.5,0.5 21.5,0.5 21.5,8.5 		"/>
	</g>
</g>
</svg>
