<?xml version="1.0" encoding="utf-8"?>
<!-- Generator: Adobe Illustrator 19.2.0, SVG Export Plug-In . SVG Version: 6.00 Build 0)  -->
<svg version="1.1" id="Layer_1" xmlns="http://www.w3.org/2000/svg" xmlns:xlink="http://www.w3.org/1999/xlink" x="0px" y="0px"
	 viewBox="0 0 24 24" style="enable-background:new 0 0 24 24;" xml:space="preserve">
<style type="text/css">
	.st0{display:none;}
	.st1{display:inline;}
	.st2{fill:none;stroke:#000000;stroke-linejoin:round;stroke-miterlimit:10;}
	.st3{fill:none;stroke:#000000;stroke-linecap:round;stroke-linejoin:round;stroke-miterlimit:10;}
</style>
<g id="Filled_Icons" class="st0">
	<g class="st1">
		<g>
			<path d="M13.9,10.5V9.9c0-0.6,0.3-1.1,0.8-1.4c0.5-0.2,1.1-0.2,1.6,0.2L17,9.3c0.1-0.1,0.1-0.2,0.2-0.3c0.5-0.6,1.5-0.8,2.1-0.2
				l2.5,2C21.9,10.2,22,9.6,22,9c0-5-4.9-9-11-9C4.9,0,0,4,0,9c0,2.4,1.1,4.5,2.9,6.1L1,19.3c-0.1,0.2,0,0.4,0.1,0.6
				C1.2,19.9,1.4,20,1.5,20c0.1,0,0.1,0,0.2,0l3-1.3C5.8,14.9,8.5,11.1,13.9,10.5z"/>
		</g>
		<g>
			<path d="M20.9,13.9c0-0.2-0.1-0.3-0.2-0.4l-5-4c-0.2-0.1-0.4-0.1-0.5-0.1c-0.2,0.1-0.3,0.3-0.3,0.5v1.5c-9.9,0.4-10,11.9-10,12
				c0,0.3,0.2,0.5,0.4,0.5c0,0,0,0,0.1,0c0.2,0,0.4-0.2,0.5-0.4c0.1-0.3,1.5-6.8,9-7.1v1.5c0,0.2,0.1,0.4,0.3,0.5
				c0.2,0.1,0.4,0.1,0.5-0.1l5-4C20.8,14.2,20.9,14.1,20.9,13.9z"/>
			<path d="M23.7,13.5l-5-4c-0.2-0.2-0.5-0.1-0.7,0.1c-0.2,0.2-0.1,0.5,0.1,0.7l4.5,3.6l-4.5,3.6c-0.2,0.2-0.2,0.5-0.1,0.7
				c0.1,0.1,0.2,0.2,0.4,0.2c0.1,0,0.2,0,0.3-0.1l5-4c0.1-0.1,0.2-0.2,0.2-0.4C23.9,13.8,23.8,13.6,23.7,13.5z"/>
		</g>
	</g>
</g>
<g id="Outline_Icons">
	<g>
		<path class="st2" d="M15.4,17.9c0,0,0-0.5,0-2c-8.5,0-10,7.5-10,7.5s0-11.5,10-11.5c0-0.5,0-2,0-2l5,4L15.4,17.9z"/>
		<polyline class="st3" points="18.4,9.9 23.4,13.9 18.4,17.9 		"/>
		<path class="st2" d="M4.1,18.4l-2.5,1.1l2-4.5c-1.9-1.5-3-3.6-3-6c0-4.7,4.7-8.5,10.4-8.5c5.8,0,10.6,3.8,10.6,8.5"/>
	</g>
</g>
</svg>
