<?xml version="1.0" encoding="utf-8"?>
<!-- Generator: Adobe Illustrator 19.2.0, SVG Export Plug-In . SVG Version: 6.00 Build 0)  -->
<svg version="1.1" id="Outline_Icons" xmlns="http://www.w3.org/2000/svg" xmlns:xlink="http://www.w3.org/1999/xlink" x="0px"
	 y="0px" viewBox="0 0 24 24" style="enable-background:new 0 0 24 24;" xml:space="preserve">
<style type="text/css">
	.st0{fill:none;stroke:#000000;stroke-linecap:round;stroke-linejoin:round;stroke-miterlimit:10;}
</style>
<g>
	<g>
		<path class="st0" d="M13,15h-0.5l-4,4v-4H8c-3.6,0-6.5-2.9-6.5-6.5s2.9-7,6.5-7h8c3.6,0,6.5,3.4,6.5,7c0,0.9-0.2,1.7-0.5,2.5"/>
	</g>
	<g>
		<polyline class="st0" points="22.5,15 22.5,17.5 20,17.5 		"/>
		<path class="st0" d="M13.8,17.5c0.6-1.7,2.3-3,4.2-3s3.8,1.2,4.5,3"/>
		<g>
			<polyline class="st0" points="13.5,23 13.5,20.5 16.5,20.5 			"/>
			<path class="st0" d="M22.8,20.5c-0.6,1.7-2.3,3-4.2,3s-3.8-1.2-4.5-3"/>
		</g>
	</g>
</g>
</svg>
