<?xml version="1.0" encoding="utf-8"?>
<!-- Generator: Adobe Illustrator 19.2.0, SVG Export Plug-In . SVG Version: 6.00 Build 0)  -->
<svg version="1.1" id="Layer_1" xmlns="http://www.w3.org/2000/svg" xmlns:xlink="http://www.w3.org/1999/xlink" x="0px" y="0px"
	 viewBox="0 0 24 24" style="enable-background:new 0 0 24 24;" xml:space="preserve">
<style type="text/css">
	.st0{display:none;}
	.st1{display:inline;}
	.st2{fill:none;stroke:#000000;stroke-linecap:round;stroke-linejoin:round;stroke-miterlimit:10;}
</style>
<g id="Filled_Icons" class="st0">
	<g class="st1">
		<path d="M14.8,15.5C14.8,15.5,14.8,15.5,14.8,15.5l1.4-2.7c0.3-0.5,0.8-0.8,1.3-0.8c0.6,0,1.1,0.3,1.3,0.8l0.5,1
			C21,12.5,22,10.5,22,8.2c0-4-3.3-7.2-7.2-7.2H7.2C3.3,1,0,4.3,0,8.2c0,3.9,3.1,7.1,7,7.2V19c0,0.2,0.1,0.4,0.3,0.5
			c0.1,0,0.1,0,0.2,0c0.1,0,0.3-0.1,0.4-0.1l3.9-3.9H14.8z"/>
		<path d="M22.9,23.2l-4.9-9.9c-0.2-0.3-0.7-0.3-0.9,0l-5,10c-0.1,0.2-0.1,0.3,0,0.5c0.1,0.1,0.3,0.2,0.4,0.2h10c0,0,0,0,0,0
			c0.3,0,0.5-0.2,0.5-0.5C23,23.4,23,23.3,22.9,23.2z M17.5,22.1c-0.2,0-0.5-0.2-0.5-0.5c0-0.2,0.2-0.5,0.5-0.5
			c0.3,0,0.5,0.2,0.5,0.5C18,21.9,17.8,22.1,17.5,22.1z M18,20.3c0,0.3-0.2,0.5-0.5,0.5c-0.3,0-0.5-0.2-0.5-0.5v-2.7
			c0-0.3,0.2-0.5,0.5-0.5c0.3,0,0.5,0.2,0.5,0.5V20.3z"/>
	</g>
</g>
<g id="Outline_Icons">
	<g>
		<path class="st2" d="M12.5,15H12l-3.5,4v-4h-1C3.9,15,1,12.1,1,8.5c0-3.6,2.9-7,6.5-7h8c3.6,0,6.5,3.4,6.5,7
			c0,0.9-0.2,1.7-0.5,2.5"/>
		<polygon class="st2" points="22.5,23.5 12.5,23.5 17.5,13.5 		"/>
		<line class="st2" x1="17.5" y1="17.6" x2="17.5" y2="20.3"/>
		<g>
			<g>
				<g>
					<path d="M17.5,21.2c-0.2,0-0.5,0.2-0.5,0.5c0,0.3,0.2,0.5,0.5,0.5c0.3,0,0.5-0.2,0.5-0.5C18,21.4,17.8,21.2,17.5,21.2
						L17.5,21.2z"/>
				</g>
			</g>
		</g>
	</g>
</g>
</svg>
