<?xml version="1.0" encoding="utf-8"?>
<!-- Generator: Adobe Illustrator 19.2.0, SVG Export Plug-In . SVG Version: 6.00 Build 0)  -->
<svg version="1.1" id="Layer_1" xmlns="http://www.w3.org/2000/svg" xmlns:xlink="http://www.w3.org/1999/xlink" x="0px" y="0px"
	 viewBox="0 0 24 24" style="enable-background:new 0 0 24 24;" xml:space="preserve">
<style type="text/css">
	.st0{display:none;}
	.st1{display:inline;}
	.st2{fill:none;stroke:#000000;stroke-linejoin:round;stroke-miterlimit:10;}
	.st3{fill:none;stroke:#000000;stroke-linecap:round;stroke-linejoin:round;stroke-miterlimit:10;}
</style>
<g id="Filled_Icons" class="st0">
	<path class="st1" d="M12,0.9c-6.6,0-12,4.4-12,9.9c0,2.6,1.2,5,3.3,6.8l-2.4,4.8C0.8,22.6,0.9,22.8,1,23c0.1,0.1,0.2,0.2,0.4,0.2
		c0.1,0,0.1,0,0.2,0l6.4-3c1.3,0.4,2.6,0.6,4,0.6c6.6,0,12-4.4,12-9.9C24,5.3,18.6,0.9,12,0.9z M12,5.4c0.6,0,1,0.4,1,1
		c0,0.6-0.4,1-1,1c-0.6,0-1-0.4-1-1C11,5.8,11.4,5.4,12,5.4z M14.5,15.9h-4c-0.3,0-0.5-0.2-0.5-0.5c0-0.3,0.2-0.5,0.5-0.5H12v-5
		h-1.5c-0.3,0-0.5-0.2-0.5-0.5c0-0.3,0.2-0.5,0.5-0.5h2c0.3,0,0.5,0.2,0.5,0.5v5.5h1.5c0.3,0,0.5,0.2,0.5,0.5
		C15,15.7,14.8,15.9,14.5,15.9z"/>
</g>
<g id="Outline_Icons">
	<g>
		<path class="st2" d="M23.5,10.8c0,5.2-5.1,9.4-11.5,9.4c-1.4,0-2.8-0.2-4-0.6l-6.6,3.1L4,17.5c-2.1-1.7-3.5-4.1-3.5-6.7
			c0-5.2,5.1-9.4,11.5-9.4C18.4,1.4,23.5,5.6,23.5,10.8z"/>
		<polyline class="st3" points="12.5,14.5 12.5,8.5 10.5,8.5 		"/>
		<line class="st3" x1="10.5" y1="14.5" x2="14.5" y2="14.5"/>
		<path class="st2" d="M12.5,5.5C12.5,5.8,12.3,6,12,6l0,0c-0.3,0-0.5-0.2-0.5-0.5l0,0C11.5,5.2,11.7,5,12,5l0,0
			C12.3,5,12.5,5.2,12.5,5.5L12.5,5.5z"/>
	</g>
</g>
</svg>
