<?xml version="1.0" encoding="utf-8"?>
<!-- Generator: Adobe Illustrator 19.2.0, SVG Export Plug-In . SVG Version: 6.00 Build 0)  -->
<svg version="1.1" id="Layer_1" xmlns="http://www.w3.org/2000/svg" xmlns:xlink="http://www.w3.org/1999/xlink" x="0px" y="0px"
	 viewBox="0 0 24 24" style="enable-background:new 0 0 24 24;" xml:space="preserve">
<style type="text/css">
	.st0{display:none;}
	.st1{display:inline;}
	.st2{fill:none;stroke:#000000;stroke-linejoin:round;stroke-miterlimit:10;}
	.st3{fill:none;stroke:#000000;stroke-linecap:round;stroke-linejoin:round;stroke-miterlimit:10;}
</style>
<g id="Filled_Icons" class="st0">
	<g class="st1">
		<path d="M23.5,23H22v-6h1.5c0.3,0,0.5-0.2,0.5-0.5c0-0.3-0.2-0.5-0.5-0.5h-23C0.2,16,0,16.2,0,16.5C0,16.8,0.2,17,0.5,17H2v6H0.5
			C0.2,23,0,23.2,0,23.5C0,23.8,0.2,24,0.5,24h23c0.3,0,0.5-0.2,0.5-0.5C24,23.2,23.8,23,23.5,23z M6.5,21c0,0.3-0.2,0.5-0.5,0.5
			c-0.3,0-0.5-0.2-0.5-0.5v-2.5C5.5,18.2,5.7,18,6,18c0.3,0,0.5,0.2,0.5,0.5V21z M10.5,21c0,0.3-0.2,0.5-0.5,0.5
			c-0.3,0-0.5-0.2-0.5-0.5v-2.5c0-0.3,0.2-0.5,0.5-0.5c0.3,0,0.5,0.2,0.5,0.5V21z M14.5,21c0,0.3-0.2,0.5-0.5,0.5
			c-0.3,0-0.5-0.2-0.5-0.5v-2.5c0-0.3,0.2-0.5,0.5-0.5c0.3,0,0.5,0.2,0.5,0.5V21z M18.5,21c0,0.3-0.2,0.5-0.5,0.5
			c-0.3,0-0.5-0.2-0.5-0.5v-2.5c0-0.3,0.2-0.5,0.5-0.5c0.3,0,0.5,0.2,0.5,0.5V21z"/>
		<path d="M18.3,8c-0.6-2.7-3-4.8-5.8-5V0.5C12.5,0.3,12.3,0,12,0c-0.3,0-0.5,0.2-0.5,0.5V3C8.7,3.2,6.3,5.3,5.7,8H18.3z"/>
		<path d="M3.5,10H6v5h12v-5h2.5c0.3,0,0.5-0.2,0.5-0.5C21,9.2,20.8,9,20.5,9H20H3.5C3.2,9,3,9.2,3,9.5C3,9.8,3.2,10,3.5,10z
			 M13.5,11c0-0.3,0.2-0.5,0.5-0.5c0.3,0,0.5,0.2,0.5,0.5v2.5c0,0.3-0.2,0.5-0.5,0.5c-0.3,0-0.5-0.2-0.5-0.5V11z M9.5,11
			c0-0.3,0.2-0.5,0.5-0.5c0.3,0,0.5,0.2,0.5,0.5v2.5c0,0.3-0.2,0.5-0.5,0.5c-0.3,0-0.5-0.2-0.5-0.5V11z"/>
	</g>
</g>
<g id="Outline_Icons">
	<g>
		<line class="st2" x1="0" y1="23.5" x2="23" y2="23.5"/>
		<line class="st2" x1="0" y1="16.5" x2="23" y2="16.5"/>
		<line class="st2" x1="1.5" y1="16.5" x2="1.5" y2="23.5"/>
		<line class="st2" x1="21.5" y1="16.5" x2="21.5" y2="23.5"/>
		<line class="st2" x1="3" y1="9.5" x2="20" y2="9.5"/>
		<line class="st2" x1="5.5" y1="9.5" x2="5.5" y2="16.5"/>
		<line class="st2" x1="9.5" y1="12" x2="9.5" y2="14.5"/>
		<line class="st2" x1="13.5" y1="12" x2="13.5" y2="14.5"/>
		<line class="st2" x1="9.5" y1="18.5" x2="9.5" y2="21"/>
		<line class="st2" x1="5.5" y1="18.5" x2="5.5" y2="21"/>
		<line class="st2" x1="13.5" y1="18.5" x2="13.5" y2="21"/>
		<line class="st2" x1="17.5" y1="18.5" x2="17.5" y2="21"/>
		<line class="st2" x1="17.5" y1="9.5" x2="17.5" y2="16.5"/>
		<path class="st3" d="M5.5,9.5c0-3.3,2.7-6,6-6c3.3,0,6,2.7,6,6H5.5z"/>
		<line class="st3" x1="11.5" y1="3.5" x2="11.5" y2="0.5"/>
	</g>
</g>
</svg>
