<?xml version="1.0" encoding="utf-8"?>
<!-- Generator: Adobe Illustrator 19.2.0, SVG Export Plug-In . SVG Version: 6.00 Build 0)  -->
<svg version="1.1" id="Layer_1" xmlns="http://www.w3.org/2000/svg" xmlns:xlink="http://www.w3.org/1999/xlink" x="0px" y="0px"
	 viewBox="0 0 24 24" style="enable-background:new 0 0 24 24;" xml:space="preserve">
<style type="text/css">
	.st0{display:none;}
	.st1{display:inline;}
	.st2{fill:none;stroke:#000000;stroke-linecap:round;stroke-linejoin:round;stroke-miterlimit:10;}
</style>
<g id="Filled_Icons" class="st0">
	<g class="st1">
		<path d="M23.5,12H21v9h2.5c0.3,0,0.5-0.2,0.5-0.5v-8C24,12.2,23.8,12,23.5,12z"/>
		<path d="M0,12.5v8C0,20.8,0.2,21,0.5,21H3v-9H0.5C0.2,12,0,12.2,0,12.5z"/>
		<path d="M18.5,8h-6.2l6.7,2.7V8.5C19,8.2,18.8,8,18.5,8z"/>
		<path d="M5.5,8C5.2,8,5,8.2,5,8.5v2.2L11.7,8H5.5z"/>
		<rect x="14" y="15" width="2" height="6"/>
		<rect x="11" y="15" width="2" height="6"/>
		<rect x="8" y="15" width="2" height="6"/>
		<polygon points="12,9 4,12.2 4,14 20,14 20,12.2 		"/>
		<path d="M4,22v1.5C4,23.8,4.2,24,4.5,24h15c0.3,0,0.5-0.2,0.5-0.5V22H4z"/>
		<rect x="17" y="15" width="3" height="6"/>
		<polygon points="7,15 4,15 4,20.5 4,21 7,21 		"/>
		<path d="M5.5,7h13c0,0,0,0,0,0C18.8,7,19,6.8,19,6.5c0,0,0-0.1,0-0.1c-0.1-3.7-4.3-4.7-6.5-4.9v-1C12.5,0.2,12.3,0,12,0
			c-0.3,0-0.5,0.2-0.5,0.5v1C9.3,1.7,5,2.7,5,6.5C5,6.8,5.2,7,5.5,7z"/>
	</g>
</g>
<g id="Outline_Icons">
	<g>
		<polyline class="st2" points="19.5,12.5 23.5,12.5 23.5,20.5 19.5,20.5 		"/>
		<polyline class="st2" points="4.5,20.5 0.5,20.5 0.5,12.5 4.5,12.5 		"/>
		<polygon class="st2" points="19.5,23.5 4.5,23.5 4.5,12.5 12,9.5 19.5,12.5 		"/>
		<polyline class="st2" points="5.5,12 5.5,8.5 18.5,8.5 18.5,12 		"/>
		<path class="st2" d="M5.5,8.5C5.5,4.9,8.4,2,12,2c3.6,0,6.5,2.9,6.5,6.5"/>
		<line class="st2" x1="12" y1="2" x2="12" y2="0.5"/>
		<line class="st2" x1="7.5" y1="21.5" x2="7.5" y2="14.5"/>
		<line class="st2" x1="10.5" y1="21.5" x2="10.5" y2="14.5"/>
		<line class="st2" x1="13.5" y1="21.5" x2="13.5" y2="14.5"/>
		<line class="st2" x1="16.5" y1="21.5" x2="16.5" y2="14.5"/>
		<line class="st2" x1="4.5" y1="14.5" x2="19.5" y2="14.5"/>
		<line class="st2" x1="4.5" y1="21.5" x2="19.5" y2="21.5"/>
	</g>
</g>
</svg>
