<?xml version="1.0" encoding="utf-8"?>
<!-- Generator: Adobe Illustrator 19.2.0, SVG Export Plug-In . SVG Version: 6.00 Build 0)  -->
<svg version="1.1" id="Layer_1" xmlns="http://www.w3.org/2000/svg" xmlns:xlink="http://www.w3.org/1999/xlink" x="0px" y="0px"
	 viewBox="0 0 24 24" style="enable-background:new 0 0 24 24;" xml:space="preserve">
<style type="text/css">
	.st0{display:none;}
	.st1{display:inline;}
	.st2{fill:none;stroke:#000000;stroke-linejoin:round;stroke-miterlimit:10;}
</style>
<g id="Filled_Icons" class="st0">
	<path class="st1" d="M0,0v24h8v-4c0-2.2,1.8-4,4-4c2.2,0,4,1.8,4,4v4h8V0H0z M2,2.5C2,2.2,2.2,2,2.5,2h5C7.8,2,8,2.2,8,2.5V7H2V2.5
		z M7,20.5C7,20.8,6.8,21,6.5,21h-4C2.2,21,2,20.8,2,20.5v-5C2,15.2,2.2,15,2.5,15h4C6.8,15,7,15.2,7,15.5V20.5z M7.5,13h-5
		C2.2,13,2,12.8,2,12.5V8h6v4.5C8,12.8,7.8,13,7.5,13z M15,12.5c0,0.3-0.2,0.5-0.5,0.5h-5C9.2,13,9,12.8,9,12.5V8h6V12.5z M15,7H9
		V2.5C9,2.2,9.2,2,9.5,2h5C14.8,2,15,2.2,15,2.5V7z M22,20.5c0,0.3-0.2,0.5-0.5,0.5h-4c-0.3,0-0.5-0.2-0.5-0.5v-5
		c0-0.3,0.2-0.5,0.5-0.5h4c0.3,0,0.5,0.2,0.5,0.5V20.5z M22,12.5c0,0.3-0.2,0.5-0.5,0.5h-5c-0.3,0-0.5-0.2-0.5-0.5V8h6V12.5z M22,7
		h-6V2.5C16,2.2,16.2,2,16.5,2h5C21.8,2,22,2.2,22,2.5V7z"/>
</g>
<g id="Outline_Icons">
	<g>
		<rect x="0.5" y="0.5" class="st2" width="23" height="23"/>
		<path class="st2" d="M15.5,20c0-1.9-1.6-3.5-3.5-3.5c-1.9,0-3.5,1.6-3.5,3.5v3.5h7V20z"/>
		<rect x="17.5" y="15.5" class="st2" width="4" height="5"/>
		<rect x="2.5" y="15.5" class="st2" width="4" height="5"/>
		<rect x="2.5" y="2.5" class="st2" width="5" height="5"/>
		<rect x="9.5" y="2.5" class="st2" width="5" height="5"/>
		<rect x="16.5" y="2.5" class="st2" width="5" height="5"/>
		<rect x="2.5" y="7.5" class="st2" width="5" height="5"/>
		<rect x="9.5" y="7.5" class="st2" width="5" height="5"/>
		<rect x="16.5" y="7.5" class="st2" width="5" height="5"/>
	</g>
</g>
</svg>
