<?xml version="1.0" encoding="utf-8"?>
<!-- Generator: Adobe Illustrator 19.2.0, SVG Export Plug-In . SVG Version: 6.00 Build 0)  -->
<svg version="1.1" id="Layer_1" xmlns="http://www.w3.org/2000/svg" xmlns:xlink="http://www.w3.org/1999/xlink" x="0px" y="0px"
	 viewBox="0 0 24 24" style="enable-background:new 0 0 24 24;" xml:space="preserve">
<style type="text/css">
	.st0{display:none;}
	.st1{display:inline;}
	.st2{fill:none;stroke:#000000;stroke-linecap:round;stroke-linejoin:round;stroke-miterlimit:10;}
</style>
<g id="Filled_Icons" class="st0">
	<g class="st1">
		<path d="M2.5,14H3v6h6v-2c0-1.7,1.3-3,3-3c1.7,0,3,1.3,3,3v2h6v-6h0.5c0.3,0,0.5-0.2,0.5-0.5c0-0.3-0.2-0.5-0.5-0.5h-19
			C2.2,13,2,13.2,2,13.5C2,13.8,2.2,14,2.5,14z M16.5,15.5c0-0.3,0.2-0.5,0.5-0.5h2c0.3,0,0.5,0.2,0.5,0.5v2c0,0.3-0.2,0.5-0.5,0.5
			h-2c-0.3,0-0.5-0.2-0.5-0.5V15.5z M4.5,15.5C4.5,15.2,4.7,15,5,15h2c0.3,0,0.5,0.2,0.5,0.5v2C7.5,17.8,7.3,18,7,18H5
			c-0.3,0-0.5-0.2-0.5-0.5V15.5z"/>
		<path d="M18.9,6c-0.5-3.4-3.4-6-6.9-6C8.5,0,5.6,2.6,5.1,6H18.9z"/>
		<path d="M3.5,8H5v4h14V8h1.5C20.8,8,21,7.8,21,7.5C21,7.2,20.8,7,20.5,7H19H5H4H3.5C3.2,7,3,7.2,3,7.5C3,7.8,3.2,8,3.5,8z M13.5,8
			h3C16.8,8,17,8.2,17,8.5C17,8.8,16.8,9,16.5,9h-3C13.2,9,13,8.8,13,8.5C13,8.2,13.2,8,13.5,8z M13.5,10h3c0.3,0,0.5,0.2,0.5,0.5
			c0,0.3-0.2,0.5-0.5,0.5h-3c-0.3,0-0.5-0.2-0.5-0.5C13,10.2,13.2,10,13.5,10z M7.5,8h3C10.8,8,11,8.2,11,8.5C11,8.8,10.8,9,10.5,9
			h-3C7.2,9,7,8.8,7,8.5C7,8.2,7.2,8,7.5,8z M7.5,10h3c0.3,0,0.5,0.2,0.5,0.5c0,0.3-0.2,0.5-0.5,0.5h-3C7.2,11,7,10.8,7,10.5
			C7,10.2,7.2,10,7.5,10z"/>
		<path d="M22,22v-0.5c0-0.3-0.2-0.5-0.5-0.5h-19C2.2,21,2,21.2,2,21.5V22H22z"/>
		<path d="M23.5,23h-23C0.2,23,0,23.2,0,23.5C0,23.8,0.2,24,0.5,24h23c0.3,0,0.5-0.2,0.5-0.5C24,23.2,23.8,23,23.5,23z"/>
	</g>
</g>
<g id="Outline_Icons">
	<g>
		<rect x="2.5" y="21.5" class="st2" width="19" height="2"/>
		<rect x="3.5" y="13.5" class="st2" width="17" height="8"/>
		<line class="st2" x1="23.5" y1="23.5" x2="0.5" y2="23.5"/>
		<line class="st2" x1="20.5" y1="7.5" x2="3.5" y2="7.5"/>
		<line class="st2" x1="21.5" y1="13.5" x2="2.5" y2="13.5"/>
		<rect x="5.5" y="7.5" class="st2" width="13" height="6"/>
		<path class="st2" d="M5.5,7c0-3.6,2.9-6.5,6.5-6.5c3.6,0,6.5,2.9,6.5,6.5v0.5h-13V7z"/>
		<path class="st2" d="M14.5,18c0-1.4-1.1-2.5-2.5-2.5c-1.4,0-2.5,1.1-2.5,2.5v3.5h5V18z"/>
		<rect x="5.5" y="15.5" class="st2" width="2" height="2"/>
		<rect x="16.5" y="15.5" class="st2" width="2" height="2"/>
		<line class="st2" x1="13.5" y1="9.5" x2="16.5" y2="9.5"/>
		<line class="st2" x1="13.5" y1="11.5" x2="16.5" y2="11.5"/>
		<line class="st2" x1="7.5" y1="9.5" x2="10.5" y2="9.5"/>
		<line class="st2" x1="7.5" y1="11.5" x2="10.5" y2="11.5"/>
	</g>
</g>
</svg>
