<?xml version="1.0" encoding="utf-8"?>
<!-- Generator: Adobe Illustrator 19.2.0, SVG Export Plug-In . SVG Version: 6.00 Build 0)  -->
<svg version="1.1" id="Layer_1" xmlns="http://www.w3.org/2000/svg" xmlns:xlink="http://www.w3.org/1999/xlink" x="0px" y="0px"
	 viewBox="0 0 24 24" style="enable-background:new 0 0 24 24;" xml:space="preserve">
<style type="text/css">
	.st0{display:none;}
	.st1{display:inline;}
	.st2{fill:none;stroke:#000000;stroke-linecap:round;stroke-linejoin:round;stroke-miterlimit:10;}
</style>
<g id="Filled_Icons" class="st0">
	<path class="st1" d="M22.5,6l-2.2,0c-1.4-3.6-4.9-6-8.8-6C7.6,0,4.1,2.4,2.7,6H0.5C0.2,6,0,6.2,0,6.5v4C0,10.8,0.2,11,0.5,11H2
		v12.5C2,23.8,2.2,24,2.5,24h18c0.3,0,0.5-0.2,0.5-0.5V11h1.5c0.3,0,0.5-0.2,0.5-0.5v-4C23,6.2,22.8,6,22.5,6z M17.8,10h-5.1
		l3.2-3.2C16.9,7.6,17.5,8.7,17.8,10z M12,5c1.2,0.1,2.2,0.5,3.2,1.1L12,9.3V5z M11,5v4.3L7.8,6.1C8.8,5.5,9.8,5.1,11,5z M7.1,6.8
		l3.2,3.2H5.2C5.5,8.7,6.1,7.6,7.1,6.8z M9,22H5v-6h4V22z M9,15H5v-3.5c0-0.2,0-0.3,0-0.5h4V15z M13,22h-3v-6h3V22z M13,15h-3v-4h3
		V15z M18,22h-4v-6h4V22z M18,15h-4v-4h4c0,0.2,0,0.3,0,0.5V15z"/>
</g>
<g id="Outline_Icons">
	<g>
		<path class="st2" d="M5.5,11.5c0-3.3,2.7-6,6-6c3.3,0,6,2.7,6,6v10h-12V11.5z"/>
		<line class="st2" x1="5.6" y1="10.5" x2="17.4" y2="10.5"/>
		<line class="st2" x1="13.5" y1="10.5" x2="13.5" y2="21.5"/>
		<line class="st2" x1="9.5" y1="10.5" x2="9.5" y2="21.5"/>
		<line class="st2" x1="11.5" y1="5.5" x2="11.5" y2="10.5"/>
		<line class="st2" x1="11.5" y1="10.5" x2="15.3" y2="6.8"/>
		<line class="st2" x1="11.5" y1="10.5" x2="7.8" y2="6.8"/>
		<line class="st2" x1="5.5" y1="15.5" x2="17.5" y2="15.5"/>
		<path class="st2" d="M0.5,10.5v-4H3l0,0c1.2-3.5,4.6-6,8.5-6c3.9,0,7.3,2.5,8.5,6l0,0h2.5v4h-2v13h-18v-13H0.5z"/>
	</g>
</g>
</svg>
