<?xml version="1.0" encoding="utf-8"?>
<!-- Generator: Adobe Illustrator 19.2.0, SVG Export Plug-In . SVG Version: 6.00 Build 0)  -->
<svg version="1.1" id="Layer_1" xmlns="http://www.w3.org/2000/svg" xmlns:xlink="http://www.w3.org/1999/xlink" x="0px" y="0px"
	 viewBox="0 0 24 24" style="enable-background:new 0 0 24 24;" xml:space="preserve">
<style type="text/css">
	.st0{display:none;}
	.st1{display:inline;}
	.st2{fill:none;stroke:#000000;stroke-linecap:round;stroke-linejoin:round;stroke-miterlimit:10;}
</style>
<g id="Filled_Icons" class="st0">
	<path class="st1" d="M23.5,23H23v-9.5c0-0.3-0.2-0.5-0.5-0.5H20v-0.5c0-0.3-0.2-0.5-0.5-0.5c-0.3,0-0.5,0.2-0.5,0.5V13h-0.5
		c-0.3,0-0.5,0.2-0.5,0.5V23h-1V4.5C17,4.2,16.8,4,16.5,4H14V2.5C14,2.2,13.8,2,13.5,2H13V0.5C13,0.2,12.8,0,12.5,0
		C12.2,0,12,0.2,12,0.5V2h-1.5C10.2,2,10,2.2,10,2.5V4H7.5C7.2,4,7,4.2,7,4.5V23H6v-9.5C6,13.2,5.8,13,5.5,13H5v-0.5
		C5,12.2,4.8,12,4.5,12C4.2,12,4,12.2,4,12.5V13H1.5C1.2,13,1,13.2,1,13.5V23H0.5C0.2,23,0,23.2,0,23.5C0,23.8,0.2,24,0.5,24h23
		c0.3,0,0.5-0.2,0.5-0.5C24,23.2,23.8,23,23.5,23z M14.5,20h-5C9.2,20,9,19.8,9,19.5C9,19.2,9.2,19,9.5,19h5c0.3,0,0.5,0.2,0.5,0.5
		C15,19.8,14.8,20,14.5,20z M14.5,17h-5C9.2,17,9,16.8,9,16.5C9,16.2,9.2,16,9.5,16h5c0.3,0,0.5,0.2,0.5,0.5
		C15,16.8,14.8,17,14.5,17z M14.5,14h-5C9.2,14,9,13.8,9,13.5C9,13.2,9.2,13,9.5,13h5c0.3,0,0.5,0.2,0.5,0.5
		C15,13.8,14.8,14,14.5,14z M14.5,11h-5C9.2,11,9,10.8,9,10.5C9,10.2,9.2,10,9.5,10h5c0.3,0,0.5,0.2,0.5,0.5
		C15,10.8,14.8,11,14.5,11z M14.5,8h-5C9.2,8,9,7.8,9,7.5C9,7.2,9.2,7,9.5,7h5C14.8,7,15,7.2,15,7.5C15,7.8,14.8,8,14.5,8z"/>
</g>
<g id="Outline_Icons">
	<g>
		<line class="st2" x1="0.5" y1="23.5" x2="23.5" y2="23.5"/>
		<rect x="7.5" y="4.5" class="st2" width="9" height="19"/>
		<rect x="18.5" y="13.5" class="st2" width="4" height="10"/>
		<rect x="1.5" y="13.5" class="st2" width="4" height="10"/>
		<line class="st2" x1="4.5" y1="13.5" x2="4.5" y2="12.5"/>
		<line class="st2" x1="19.5" y1="13.5" x2="19.5" y2="12.5"/>
		<rect x="10.5" y="2.5" class="st2" width="3" height="2"/>
		<line class="st2" x1="12.5" y1="2.5" x2="12.5" y2="0.5"/>
		<line class="st2" x1="9.5" y1="7.5" x2="14.5" y2="7.5"/>
		<line class="st2" x1="9.5" y1="10.5" x2="14.5" y2="10.5"/>
		<line class="st2" x1="9.5" y1="13.5" x2="14.5" y2="13.5"/>
		<line class="st2" x1="9.5" y1="16.5" x2="14.5" y2="16.5"/>
		<line class="st2" x1="9.5" y1="19.5" x2="14.5" y2="19.5"/>
	</g>
</g>
</svg>
