<?xml version="1.0" encoding="utf-8"?>
<!-- Generator: Adobe Illustrator 19.2.0, SVG Export Plug-In . SVG Version: 6.00 Build 0)  -->
<svg version="1.1" id="Layer_1" xmlns="http://www.w3.org/2000/svg" xmlns:xlink="http://www.w3.org/1999/xlink" x="0px" y="0px"
	 viewBox="0 0 24 24" style="enable-background:new 0 0 24 24;" xml:space="preserve">
<style type="text/css">
	.st0{display:none;}
	.st1{display:inline;}
	.st2{fill:none;stroke:#000000;stroke-linecap:round;stroke-linejoin:round;stroke-miterlimit:10;}
</style>
<g id="Filled_Icons" class="st0">
	<g class="st1">
		<path d="M9,6.1C9,6.1,9,6,9,6H2v1h7V6.1z"/>
		<rect x="11" y="10" width="2" height="4"/>
		<path d="M23.5,23H23V8h-9v15h-0.5c-0.3,0-0.5,0.2-0.5,0.5c0,0.3,0.2,0.5,0.5,0.5h10c0.3,0,0.5-0.2,0.5-0.5
			C24,23.2,23.8,23,23.5,23z M20.5,20h-4c-0.3,0-0.5-0.2-0.5-0.5c0-0.3,0.2-0.5,0.5-0.5h4c0.3,0,0.5,0.2,0.5,0.5
			C21,19.8,20.8,20,20.5,20z M20.5,17h-4c-0.3,0-0.5-0.2-0.5-0.5c0-0.3,0.2-0.5,0.5-0.5h4c0.3,0,0.5,0.2,0.5,0.5
			C21,16.8,20.8,17,20.5,17z M20.5,14h-4c-0.3,0-0.5-0.2-0.5-0.5c0-0.3,0.2-0.5,0.5-0.5h4c0.3,0,0.5,0.2,0.5,0.5
			C21,13.8,20.8,14,20.5,14z M20.5,11h-4c-0.3,0-0.5-0.2-0.5-0.5c0-0.3,0.2-0.5,0.5-0.5h4c0.3,0,0.5,0.2,0.5,0.5
			C21,10.8,20.8,11,20.5,11z"/>
		<path d="M21.5,5l-2.6-4.8C18.8,0.1,18.6,0,18.5,0c-0.2,0-0.3,0.1-0.4,0.2L15.5,5H21.5z"/>
		<path d="M22,6.1c0,0,0-0.1,0-0.1h-7v1h7V6.1z"/>
		<path d="M8.5,5L5.9,0.2C5.8,0.1,5.6,0,5.5,0C5.3,0,5.1,0.1,5,0.3L2.5,5H8.5z"/>
		<path d="M10.5,23H10V8H1v15H0.5C0.2,23,0,23.2,0,23.5C0,23.8,0.2,24,0.5,24h10c0.3,0,0.5-0.2,0.5-0.5C11,23.2,10.8,23,10.5,23z
			 M7.5,20h-4C3.2,20,3,19.8,3,19.5C3,19.2,3.2,19,3.5,19h4C7.8,19,8,19.2,8,19.5C8,19.8,7.8,20,7.5,20z M7.5,17h-4
			C3.2,17,3,16.8,3,16.5C3,16.2,3.2,16,3.5,16h4C7.8,16,8,16.2,8,16.5C8,16.8,7.8,17,7.5,17z M7.5,14h-4C3.2,14,3,13.8,3,13.5
			C3,13.2,3.2,13,3.5,13h4C7.8,13,8,13.2,8,13.5C8,13.8,7.8,14,7.5,14z M7.5,11h-4C3.2,11,3,10.8,3,10.5C3,10.2,3.2,10,3.5,10h4
			C7.8,10,8,10.2,8,10.5C8,10.8,7.8,11,7.5,11z"/>
	</g>
</g>
<g id="Outline_Icons">
	<g>
		<line class="st2" x1="0.5" y1="23.5" x2="10.5" y2="23.5"/>
		<line class="st2" x1="13.5" y1="23.5" x2="23.5" y2="23.5"/>
		<line class="st2" x1="16.5" y1="10.5" x2="20.5" y2="10.5"/>
		<line class="st2" x1="16.5" y1="13.5" x2="20.5" y2="13.5"/>
		<line class="st2" x1="16.5" y1="16.5" x2="20.5" y2="16.5"/>
		<line class="st2" x1="16.5" y1="19.5" x2="20.5" y2="19.5"/>
		<line class="st2" x1="3.5" y1="10.5" x2="7.5" y2="10.5"/>
		<line class="st2" x1="3.5" y1="13.5" x2="7.5" y2="13.5"/>
		<line class="st2" x1="3.5" y1="16.5" x2="7.5" y2="16.5"/>
		<line class="st2" x1="3.5" y1="19.5" x2="7.5" y2="19.5"/>
		<rect x="1.5" y="7.5" class="st2" width="8" height="16"/>
		<rect x="14.5" y="7.5" class="st2" width="8" height="16"/>
		<rect x="9.5" y="10.5" class="st2" width="5" height="3"/>
		<rect x="2.5" y="5.5" class="st2" width="6" height="2"/>
		<rect x="15.5" y="5.5" class="st2" width="6" height="2"/>
		<polygon class="st2" points="2.5,5.5 5.5,0.5 8.5,5.5 		"/>
		<polygon class="st2" points="15.5,5.5 18.5,0.5 21.5,5.5 		"/>
	</g>
</g>
</svg>
