<?xml version="1.0" encoding="utf-8"?>
<!-- Generator: Adobe Illustrator 19.2.0, SVG Export Plug-In . SVG Version: 6.00 Build 0)  -->
<svg version="1.1" id="Layer_1" xmlns="http://www.w3.org/2000/svg" xmlns:xlink="http://www.w3.org/1999/xlink" x="0px" y="0px"
	 viewBox="0 0 24 24" style="enable-background:new 0 0 24 24;" xml:space="preserve">
<style type="text/css">
	.st0{display:none;}
	.st1{display:inline;}
	.st2{fill:none;stroke:#000000;stroke-linecap:round;stroke-linejoin:round;stroke-miterlimit:10;}
</style>
<g id="Filled_Icons" class="st0">
	<path class="st1" d="M20.9,2.2C20.9,2.2,20.9,2.2,20.9,2.2l-2-2C18.8,0.1,18.6,0,18.5,0h-13C5.4,0,5.2,0.1,5.1,0.2l-2,2
		c0,0,0,0,0,0C3.1,2.2,3,2.4,3,2.5v21C3,23.8,3.2,24,3.5,24H10v-4.5c0-0.3,0.2-0.5,0.5-0.5h3c0.3,0,0.5,0.2,0.5,0.5V24h6.5
		c0.3,0,0.5-0.2,0.5-0.5v-21C21,2.4,20.9,2.2,20.9,2.2z M8.5,17h-3v-3h3V17z M8.5,12h-3V9h3V12z M8.5,7h-3V4h3V7z M13.5,17h-3v-3h3
		V17z M13.5,12h-3V9h3V12z M13.5,7h-3V4h3V7z M18.5,17h-3v-3h3V17z M18.5,12h-3V9h3V12z M18.5,7h-3V4h3V7z M4.7,2l1-1h12.6l1,1H4.7z
		"/>
</g>
<g id="Outline_Icons">
	<g>
		<rect x="3.5" y="2.5" class="st2" width="17" height="21"/>
		<rect x="10.5" y="19.5" class="st2" width="3" height="4"/>
		<rect x="10.5" y="14.5" class="st2" width="3" height="3"/>
		<rect x="15.5" y="14.5" class="st2" width="3" height="3"/>
		<rect x="5.5" y="14.5" class="st2" width="3" height="3"/>
		<rect x="10.5" y="9.5" class="st2" width="3" height="3"/>
		<rect x="15.5" y="9.5" class="st2" width="3" height="3"/>
		<rect x="5.5" y="9.5" class="st2" width="3" height="3"/>
		<rect x="10.5" y="4.5" class="st2" width="3" height="3"/>
		<rect x="15.5" y="4.5" class="st2" width="3" height="3"/>
		<rect x="5.5" y="4.5" class="st2" width="3" height="3"/>
		<polygon class="st2" points="18.5,0.5 5.5,0.5 3.5,2.5 20.5,2.5 		"/>
	</g>
</g>
</svg>
