<?xml version="1.0" encoding="utf-8"?>
<!-- Generator: Adobe Illustrator 19.2.0, SVG Export Plug-In . SVG Version: 6.00 Build 0)  -->
<svg version="1.1" id="Layer_1" xmlns="http://www.w3.org/2000/svg" xmlns:xlink="http://www.w3.org/1999/xlink" x="0px" y="0px"
	 viewBox="0 0 24 24" style="enable-background:new 0 0 24 24;" xml:space="preserve">
<style type="text/css">
	.st0{display:none;}
	.st1{display:inline;}
	.st2{fill:none;stroke:#000000;stroke-linecap:round;stroke-linejoin:round;stroke-miterlimit:10;}
	.st3{fill:none;stroke:#000000;stroke-linejoin:round;stroke-miterlimit:10;}
</style>
<g id="Filled_Icons" class="st0">
	<path class="st1" d="M18,23h-5v-2h1.5c0.8,0,1.5-0.7,1.5-1.5c0-0.8-0.7-1.5-1.5-1.5H13v-1h1.5c0.8,0,1.5-0.7,1.5-1.5
		c0-0.8-0.7-1.5-1.5-1.5H13v-1.3c1.1-0.4,2-1.2,2.5-2.2H17c0.3,0,0.5-0.2,0.5-0.5V7c0-0.3-0.2-0.5-0.5-0.5h-1.5
		c-0.7-1.3-2-2.3-3.5-2.5V0.5C12,0.2,11.8,0,11.5,0C11.2,0,11,0.2,11,0.5V4C9.5,4.2,8.1,5.2,7.5,6.5H6C5.7,6.5,5.5,6.7,5.5,7v3
		c0,0.3,0.2,0.5,0.5,0.5h1.5c0.5,1,1.4,1.8,2.5,2.2V14H8.5C7.7,14,7,14.7,7,15.5C7,16.3,7.7,17,8.5,17H10v1H8.5
		C7.7,18,7,18.7,7,19.5C7,20.3,7.7,21,8.5,21H10v2H5c-0.3,0-0.5,0.2-0.5,0.5C4.5,23.8,4.7,24,5,24h5.5h2H18c0.3,0,0.5-0.2,0.5-0.5
		C18.5,23.2,18.3,23,18,23z M6.5,9.5v-2h10v2H6.5z M8.5,16C8.2,16,8,15.8,8,15.5C8,15.2,8.2,15,8.5,15h6c0.3,0,0.5,0.2,0.5,0.5
		c0,0.3-0.2,0.5-0.5,0.5H8.5z M8.5,20C8.2,20,8,19.8,8,19.5C8,19.2,8.2,19,8.5,19h6c0.3,0,0.5,0.2,0.5,0.5c0,0.3-0.2,0.5-0.5,0.5
		H8.5z"/>
</g>
<g id="Outline_Icons">
	<g>
		<line class="st2" x1="5" y1="23.5" x2="18" y2="23.5"/>
		<line class="st2" x1="11.5" y1="4.5" x2="11.5" y2="0.5"/>
		<line class="st2" x1="8.5" y1="19.5" x2="14.5" y2="19.5"/>
		<line class="st2" x1="8.5" y1="16.5" x2="14.5" y2="16.5"/>
		<line class="st3" x1="12.5" y1="12.4" x2="12.5" y2="23.5"/>
		<line class="st3" x1="10.5" y1="12.4" x2="10.5" y2="23.5"/>
		<path class="st2" d="M16.5,7.5h-1.1c-0.4-1.7-2-3-3.9-3c-1.9,0-3.4,1.3-3.9,3H6.5v2h1.1c0.4,1.7,2,3,3.9,3c1.9,0,3.4-1.3,3.9-3
			h1.1V7.5z"/>
		<line class="st2" x1="7.5" y1="7.5" x2="15.5" y2="7.5"/>
		<line class="st2" x1="7.5" y1="9.5" x2="15.5" y2="9.5"/>
	</g>
</g>
</svg>
