<?xml version="1.0" encoding="utf-8"?>
<!-- Generator: Adobe Illustrator 19.2.0, SVG Export Plug-In . SVG Version: 6.00 Build 0)  -->
<svg version="1.1" id="Layer_1" xmlns="http://www.w3.org/2000/svg" xmlns:xlink="http://www.w3.org/1999/xlink" x="0px" y="0px"
	 viewBox="0 0 24 24" style="enable-background:new 0 0 24 24;" xml:space="preserve">
<style type="text/css">
	.st0{display:none;}
	.st1{display:inline;}
	.st2{fill:none;stroke:#000000;stroke-linejoin:round;stroke-miterlimit:10;}
	.st3{fill:none;stroke:#000000;stroke-linecap:round;stroke-linejoin:round;stroke-miterlimit:10;}
</style>
<g id="Filled_Icons" class="st0">
	<g class="st1">
		<path d="M19.5,4H12V3h2.5C14.8,3,15,2.8,15,2.5v-2C15,0.2,14.8,0,14.5,0h-3C11.2,0,11,0.2,11,0.5V1v1.5V4H4.5C4.2,4,4,4.2,4,4.5v1
			C4,5.8,4.2,6,4.5,6h15C19.8,6,20,5.8,20,5.5v-1C20,4.2,19.8,4,19.5,4z"/>
		<g>
			<path d="M18,7.5C18,7.2,17.8,7,17.5,7h-11C6.2,7,6,7.2,6,7.5V17h12V7.5z M11,15c0,0.3-0.2,0.5-0.5,0.5h-2C8.2,15.5,8,15.3,8,15
				v-2c0-0.3,0.2-0.5,0.5-0.5h2c0.3,0,0.5,0.2,0.5,0.5V15z M11,11c0,0.3-0.2,0.5-0.5,0.5h-2C8.2,11.5,8,11.3,8,11V9
				c0-0.3,0.2-0.5,0.5-0.5h2C10.8,8.5,11,8.7,11,9V11z M16,15c0,0.3-0.2,0.5-0.5,0.5h-2c-0.3,0-0.5-0.2-0.5-0.5v-2
				c0-0.3,0.2-0.5,0.5-0.5h2c0.3,0,0.5,0.2,0.5,0.5V15z M16,11c0,0.3-0.2,0.5-0.5,0.5h-2c-0.3,0-0.5-0.2-0.5-0.5V9
				c0-0.3,0.2-0.5,0.5-0.5h2C15.8,8.5,16,8.7,16,9V11z"/>
			<path d="M6,23.5C6,23.8,6.2,24,6.5,24h11c0.3,0,0.5-0.2,0.5-0.5V18H6V23.5z M13,20c0-0.3,0.2-0.5,0.5-0.5h2
				c0.3,0,0.5,0.2,0.5,0.5v2c0,0.3-0.2,0.5-0.5,0.5h-2c-0.3,0-0.5-0.2-0.5-0.5V20z M8,20c0-0.3,0.2-0.5,0.5-0.5h2
				c0.3,0,0.5,0.2,0.5,0.5v2c0,0.3-0.2,0.5-0.5,0.5h-2C8.2,22.5,8,22.3,8,22V20z"/>
		</g>
		<g>
			<path d="M0.5,13H2v3.5h3V12H2.5h-2C0.2,12,0,12.2,0,12.5C0,12.8,0.2,13,0.5,13z"/>
			<path d="M5,23.5v-6H2H1.5h-1C0.2,17.5,0,17.7,0,18c0,0.3,0.2,0.5,0.5,0.5H2v5C2,23.8,2.2,24,2.5,24h2.6C5,23.8,5,23.7,5,23.5z"/>
		</g>
		<g>
			<path d="M19,16.5h3V13h1.5c0.3,0,0.5-0.2,0.5-0.5c0-0.3-0.2-0.5-0.5-0.5h-2H19V16.5z"/>
			<path d="M23.5,17.5H23h-1h-3v6c0,0.2,0,0.3-0.1,0.5h2.6c0.3,0,0.5-0.2,0.5-0.5v-5h1.5c0.3,0,0.5-0.2,0.5-0.5
				C24,17.7,23.8,17.5,23.5,17.5z"/>
		</g>
	</g>
</g>
<g id="Outline_Icons">
	<g>
		<rect x="6.5" y="6.5" class="st2" width="11" height="11"/>
		<rect x="6.5" y="17.5" class="st2" width="11" height="6"/>
		<line class="st3" x1="0.5" y1="17.5" x2="23.5" y2="17.5"/>
		<line class="st3" x1="0.5" y1="12.5" x2="6" y2="12.5"/>
		<line class="st3" x1="18" y1="12.5" x2="23.5" y2="12.5"/>
		<polyline class="st2" points="17,23.5 21.5,23.5 21.5,12.5 17.5,12.5 		"/>
		<polyline class="st2" points="7,23.5 2.5,23.5 2.5,12.5 6.5,12.5 		"/>
		<rect x="4.5" y="4.5" class="st2" width="15" height="2"/>
		<rect x="11.5" y="0.5" class="st2" width="3" height="2"/>
		<line class="st2" x1="11.5" y1="1" x2="11.5" y2="4.5"/>
		<rect x="8.5" y="8.5" class="st2" width="2" height="2"/>
		<rect x="13.5" y="8.5" class="st2" width="2" height="2"/>
		<rect x="8.5" y="12.5" class="st2" width="2" height="2"/>
		<rect x="13.5" y="12.5" class="st2" width="2" height="2"/>
		<rect x="8.5" y="19.5" class="st2" width="2" height="2"/>
		<rect x="13.5" y="19.5" class="st2" width="2" height="2"/>
	</g>
</g>
</svg>
