<?xml version="1.0" encoding="utf-8"?>
<!-- Generator: Adobe Illustrator 19.2.0, SVG Export Plug-In . SVG Version: 6.00 Build 0)  -->
<svg version="1.1" id="Layer_1" xmlns="http://www.w3.org/2000/svg" xmlns:xlink="http://www.w3.org/1999/xlink" x="0px" y="0px"
	 viewBox="0 0 24 24" style="enable-background:new 0 0 24 24;" xml:space="preserve">
<style type="text/css">
	.st0{display:none;}
	.st1{display:inline;}
	.st2{fill:none;stroke:#000000;stroke-linecap:round;stroke-linejoin:round;stroke-miterlimit:10;}
</style>
<g id="Filled_Icons" class="st0">
	<g class="st1">
		<path d="M3.5,4.5h17C20.8,4.5,21,4.3,21,4V3c0-0.2-0.1-0.4-0.4-0.5L12.1,0C12,0,12,0,11.9,0L3.4,2.5C3.1,2.6,3,2.8,3,3v1
			C3,4.3,3.2,4.5,3.5,4.5z"/>
		<path d="M23.5,23H20V5.5C20,5.2,19.8,5,19.5,5h-15C4.2,5,4,5.2,4,5.5V23H0.5C0.2,23,0,23.2,0,23.5C0,23.8,0.2,24,0.5,24h23
			c0.3,0,0.5-0.2,0.5-0.5C24,23.2,23.8,23,23.5,23z M8.5,20.5h-2v-2h2V20.5z M8.5,16.5h-2v-2h2V16.5z M8.5,12.5h-2v-2h2V12.5z
			 M8.5,8.5h-2v-2h2V8.5z M10.5,6.5h3v2h-3V6.5z M10.5,10.5h3v2h-3V10.5z M10.5,14.5h3v2h-3V14.5z M14,23h-4v-4.5
			c0-0.3,0.2-0.5,0.5-0.5h3c0.3,0,0.5,0.2,0.5,0.5V23z M17.5,20.5h-2v-2h2V20.5z M17.5,16.5h-2v-2h2V16.5z M17.5,12.5h-2v-2h2V12.5z
			 M17.5,8.5h-2v-2h2V8.5z"/>
	</g>
</g>
<g id="Outline_Icons">
	<g>
		<line class="st2" x1="0.5" y1="23.5" x2="23.5" y2="23.5"/>
		<rect x="4.5" y="4.5" class="st2" width="15" height="19"/>
		<polygon class="st2" points="20.5,3.5 12,0.5 3.5,3.5 3.5,4.5 20.5,4.5 		"/>
		<rect x="10.5" y="18.5" class="st2" width="3" height="5"/>
		<rect x="6.5" y="6.5" class="st2" width="2" height="2"/>
		<rect x="10.5" y="6.5" class="st2" width="3" height="2"/>
		<rect x="15.5" y="6.5" class="st2" width="2" height="2"/>
		<rect x="6.5" y="10.5" class="st2" width="2" height="2"/>
		<rect x="10.5" y="10.5" class="st2" width="3" height="2"/>
		<rect x="15.5" y="10.5" class="st2" width="2" height="2"/>
		<rect x="6.5" y="14.5" class="st2" width="2" height="2"/>
		<rect x="10.5" y="14.5" class="st2" width="3" height="2"/>
		<rect x="15.5" y="14.5" class="st2" width="2" height="2"/>
		<rect x="6.5" y="18.5" class="st2" width="2" height="2"/>
		<rect x="15.5" y="18.5" class="st2" width="2" height="2"/>
	</g>
</g>
</svg>
