<?xml version="1.0" encoding="utf-8"?>
<!-- Generator: Adobe Illustrator 19.2.0, SVG Export Plug-In . SVG Version: 6.00 Build 0)  -->
<svg version="1.1" id="Layer_1" xmlns="http://www.w3.org/2000/svg" xmlns:xlink="http://www.w3.org/1999/xlink" x="0px" y="0px"
	 viewBox="0 0 24 24" style="enable-background:new 0 0 24 24;" xml:space="preserve">
<style type="text/css">
	.st0{display:none;}
	.st1{display:inline;}
	.st2{fill:none;stroke:#000000;stroke-linecap:round;stroke-linejoin:round;stroke-miterlimit:10;}
</style>
<g id="Filled_Icons" class="st0">
	<g class="st1">
		<path d="M11.5,9H10V3.5C10,3.2,9.8,3,9.5,3H6V0.5C6,0.2,5.8,0,5.5,0C5.2,0,5,0.2,5,0.5V3H2.5C2.2,3,2,3.2,2,3.5V9H0.5
			C0.2,9,0,9.2,0,9.5v14C0,23.8,0.2,24,0.5,24H4v-2.5C4,21.2,4.2,21,4.5,21h2C6.8,21,7,21.2,7,21.5V24h4.5c0.3,0,0.5-0.2,0.5-0.5
			v-14C12,9.2,11.8,9,11.5,9z M4.5,5h3C7.8,5,8,5.2,8,5.5C8,5.8,7.8,6,7.5,6h-3C4.2,6,4,5.8,4,5.5C4,5.2,4.2,5,4.5,5z M4.5,7h3
			C7.8,7,8,7.2,8,7.5C8,7.8,7.8,8,7.5,8h-3C4.2,8,4,7.8,4,7.5C4,7.2,4.2,7,4.5,7z M9.5,19h-7C2.2,19,2,18.8,2,18.5
			C2,18.2,2.2,18,2.5,18h7c0.3,0,0.5,0.2,0.5,0.5C10,18.8,9.8,19,9.5,19z M9.5,16h-7C2.2,16,2,15.8,2,15.5C2,15.2,2.2,15,2.5,15h7
			c0.3,0,0.5,0.2,0.5,0.5C10,15.8,9.8,16,9.5,16z M9.5,13h-7C2.2,13,2,12.8,2,12.5C2,12.2,2.2,12,2.5,12h7c0.3,0,0.5,0.2,0.5,0.5
			C10,12.8,9.8,13,9.5,13z"/>
		<path d="M23.5,5h-9C14.2,5,14,5.2,14,5.5v18c0,0.3,0.2,0.5,0.5,0.5H18v-2.5c0-0.3,0.2-0.5,0.5-0.5h2c0.3,0,0.5,0.2,0.5,0.5V24h2.5
			c0.3,0,0.5-0.2,0.5-0.5v-18C24,5.2,23.8,5,23.5,5z M21.5,20h-5c-0.3,0-0.5-0.2-0.5-0.5c0-0.3,0.2-0.5,0.5-0.5h5
			c0.3,0,0.5,0.2,0.5,0.5C22,19.8,21.8,20,21.5,20z M21.5,18h-5c-0.3,0-0.5-0.2-0.5-0.5c0-0.3,0.2-0.5,0.5-0.5h5
			c0.3,0,0.5,0.2,0.5,0.5C22,17.8,21.8,18,21.5,18z M21.5,16h-5c-0.3,0-0.5-0.2-0.5-0.5c0-0.3,0.2-0.5,0.5-0.5h5
			c0.3,0,0.5,0.2,0.5,0.5C22,15.8,21.8,16,21.5,16z M21.5,14h-5c-0.3,0-0.5-0.2-0.5-0.5c0-0.3,0.2-0.5,0.5-0.5h5
			c0.3,0,0.5,0.2,0.5,0.5C22,13.8,21.8,14,21.5,14z M21.5,12h-5c-0.3,0-0.5-0.2-0.5-0.5c0-0.3,0.2-0.5,0.5-0.5h5
			c0.3,0,0.5,0.2,0.5,0.5C22,11.8,21.8,12,21.5,12z M21.5,10h-5C16.2,10,16,9.8,16,9.5C16,9.2,16.2,9,16.5,9h5C21.8,9,22,9.2,22,9.5
			C22,9.8,21.8,10,21.5,10z M21.5,8h-5C16.2,8,16,7.8,16,7.5C16,7.2,16.2,7,16.5,7h5C21.8,7,22,7.2,22,7.5C22,7.8,21.8,8,21.5,8z"/>
	</g>
</g>
<g id="Outline_Icons">
	<g>
		<rect x="0.5" y="9.5" class="st2" width="11" height="14"/>
		<rect x="2.5" y="3.5" class="st2" width="7" height="6"/>
		<line class="st2" x1="5.5" y1="3.5" x2="5.5" y2="0.5"/>
		<rect x="14.5" y="5.5" class="st2" width="9" height="18"/>
		<line class="st2" x1="16.5" y1="7.5" x2="21.5" y2="7.5"/>
		<line class="st2" x1="16.5" y1="9.5" x2="21.5" y2="9.5"/>
		<line class="st2" x1="16.5" y1="11.5" x2="21.5" y2="11.5"/>
		<line class="st2" x1="16.5" y1="13.5" x2="21.5" y2="13.5"/>
		<line class="st2" x1="16.5" y1="15.5" x2="21.5" y2="15.5"/>
		<line class="st2" x1="16.5" y1="17.5" x2="21.5" y2="17.5"/>
		<line class="st2" x1="16.5" y1="19.5" x2="21.5" y2="19.5"/>
		<line class="st2" x1="2.5" y1="12.5" x2="9.5" y2="12.5"/>
		<line class="st2" x1="2.5" y1="15.5" x2="9.5" y2="15.5"/>
		<line class="st2" x1="2.5" y1="18.5" x2="9.5" y2="18.5"/>
		<line class="st2" x1="4.5" y1="5.5" x2="7.5" y2="5.5"/>
		<line class="st2" x1="4.5" y1="7.5" x2="7.5" y2="7.5"/>
		<rect x="4.5" y="21.5" class="st2" width="2" height="2"/>
		<rect x="18.5" y="21.5" class="st2" width="2" height="2"/>
	</g>
</g>
</svg>
