<?xml version="1.0" encoding="utf-8"?>
<!-- Generator: Adobe Illustrator 19.2.0, SVG Export Plug-In . SVG Version: 6.00 Build 0)  -->
<svg version="1.1" id="Layer_1" xmlns="http://www.w3.org/2000/svg" xmlns:xlink="http://www.w3.org/1999/xlink" x="0px" y="0px"
	 viewBox="0 0 24 24" style="enable-background:new 0 0 24 24;" xml:space="preserve">
<style type="text/css">
	.st0{display:none;}
	.st1{display:inline;}
	.st2{fill:none;stroke:#000000;stroke-linecap:round;stroke-linejoin:round;stroke-miterlimit:10;}
</style>
<g id="Filled_Icons" class="st0">
	<path class="st1" d="M23.5,9H23V6.5C23,6.2,22.8,6,22.5,6h-5C17.2,6,17,6.2,17,6.5V9h-0.5C16.2,9,16,9.2,16,9.5V13h-6V7.5
		C10,7.2,9.8,7,9.5,7H9V3.5C9,3.2,8.8,3,8.5,3H5V0.5C5,0.2,4.8,0,4.5,0C4.2,0,4,0.2,4,0.5V3H1.5C1.2,3,1,3.2,1,3.5V7H0.5
		C0.2,7,0,7.2,0,7.5v16C0,23.8,0.2,24,0.5,24H3v-2.5C3,21.2,3.2,21,3.5,21h2C5.8,21,6,21.2,6,21.5V24h13v-2.5c0-0.3,0.2-0.5,0.5-0.5
		h2c0.3,0,0.5,0.2,0.5,0.5V24h1.5c0.3,0,0.5-0.2,0.5-0.5v-14C24,9.2,23.8,9,23.5,9z M3.5,5h3C6.8,5,7,5.2,7,5.5C7,5.8,6.8,6,6.5,6
		h-3C3.2,6,3,5.8,3,5.5C3,5.2,3.2,5,3.5,5z M7.5,20h-5C2.2,20,2,19.8,2,19.5C2,19.2,2.2,19,2.5,19h5C7.8,19,8,19.2,8,19.5
		C8,19.8,7.8,20,7.5,20z M7.5,18h-5C2.2,18,2,17.8,2,17.5C2,17.2,2.2,17,2.5,17h5C7.8,17,8,17.2,8,17.5C8,17.8,7.8,18,7.5,18z
		 M7.5,16h-5C2.2,16,2,15.8,2,15.5C2,15.2,2.2,15,2.5,15h5C7.8,15,8,15.2,8,15.5C8,15.8,7.8,16,7.5,16z M7.5,14h-5
		C2.2,14,2,13.8,2,13.5C2,13.2,2.2,13,2.5,13h5C7.8,13,8,13.2,8,13.5C8,13.8,7.8,14,7.5,14z M7.5,12h-5C2.2,12,2,11.8,2,11.5
		C2,11.2,2.2,11,2.5,11h5C7.8,11,8,11.2,8,11.5C8,11.8,7.8,12,7.5,12z M7.5,10h-5C2.2,10,2,9.8,2,9.5C2,9.2,2.2,9,2.5,9h5
		C7.8,9,8,9.2,8,9.5C8,9.8,7.8,10,7.5,10z M14.5,20h-3c-0.3,0-0.5-0.2-0.5-0.5c0-0.3,0.2-0.5,0.5-0.5h3c0.3,0,0.5,0.2,0.5,0.5
		C15,19.8,14.8,20,14.5,20z M14.5,18h-3c-0.3,0-0.5-0.2-0.5-0.5c0-0.3,0.2-0.5,0.5-0.5h3c0.3,0,0.5,0.2,0.5,0.5
		C15,17.8,14.8,18,14.5,18z M14.5,16h-3c-0.3,0-0.5-0.2-0.5-0.5c0-0.3,0.2-0.5,0.5-0.5h3c0.3,0,0.5,0.2,0.5,0.5
		C15,15.8,14.8,16,14.5,16z M21.5,20h-3c-0.3,0-0.5-0.2-0.5-0.5c0-0.3,0.2-0.5,0.5-0.5h3c0.3,0,0.5,0.2,0.5,0.5
		C22,19.8,21.8,20,21.5,20z M21.5,18h-3c-0.3,0-0.5-0.2-0.5-0.5c0-0.3,0.2-0.5,0.5-0.5h3c0.3,0,0.5,0.2,0.5,0.5
		C22,17.8,21.8,18,21.5,18z M21.5,16h-3c-0.3,0-0.5-0.2-0.5-0.5c0-0.3,0.2-0.5,0.5-0.5h3c0.3,0,0.5,0.2,0.5,0.5
		C22,15.8,21.8,16,21.5,16z M21.5,14h-3c-0.3,0-0.5-0.2-0.5-0.5c0-0.3,0.2-0.5,0.5-0.5h3c0.3,0,0.5,0.2,0.5,0.5
		C22,13.8,21.8,14,21.5,14z M21.5,12h-3c-0.3,0-0.5-0.2-0.5-0.5c0-0.3,0.2-0.5,0.5-0.5h3c0.3,0,0.5,0.2,0.5,0.5
		C22,11.8,21.8,12,21.5,12z"/>
</g>
<g id="Outline_Icons">
	<g>
		<rect x="0.5" y="7.5" class="st2" width="9" height="16"/>
		<rect x="1.5" y="3.5" class="st2" width="7" height="4"/>
		<line class="st2" x1="4.5" y1="3.5" x2="4.5" y2="0.5"/>
		<rect x="16.5" y="9.5" class="st2" width="7" height="14"/>
		<rect x="17.5" y="6.5" class="st2" width="5" height="3"/>
		<line class="st2" x1="9.5" y1="13.5" x2="16.5" y2="13.5"/>
		<line class="st2" x1="9.5" y1="23.5" x2="16.5" y2="23.5"/>
		<line class="st2" x1="3.5" y1="5.5" x2="6.5" y2="5.5"/>
		<line class="st2" x1="2.5" y1="9.5" x2="7.5" y2="9.5"/>
		<line class="st2" x1="2.5" y1="11.5" x2="7.5" y2="11.5"/>
		<line class="st2" x1="2.5" y1="13.5" x2="7.5" y2="13.5"/>
		<line class="st2" x1="2.5" y1="15.5" x2="7.5" y2="15.5"/>
		<line class="st2" x1="2.5" y1="17.5" x2="7.5" y2="17.5"/>
		<line class="st2" x1="2.5" y1="19.5" x2="7.5" y2="19.5"/>
		<line class="st2" x1="18.5" y1="11.5" x2="21.5" y2="11.5"/>
		<line class="st2" x1="18.5" y1="13.5" x2="21.5" y2="13.5"/>
		<line class="st2" x1="18.5" y1="15.5" x2="21.5" y2="15.5"/>
		<line class="st2" x1="18.5" y1="17.5" x2="21.5" y2="17.5"/>
		<line class="st2" x1="18.5" y1="19.5" x2="21.5" y2="19.5"/>
		<line class="st2" x1="11.5" y1="15.5" x2="14.5" y2="15.5"/>
		<line class="st2" x1="11.5" y1="17.5" x2="14.5" y2="17.5"/>
		<line class="st2" x1="11.5" y1="19.5" x2="14.5" y2="19.5"/>
		<rect x="3.5" y="21.5" class="st2" width="2" height="2"/>
		<rect x="19.5" y="21.5" class="st2" width="2" height="2"/>
	</g>
</g>
</svg>
