<?xml version="1.0" encoding="utf-8"?>
<!-- Generator: Adobe Illustrator 19.2.0, SVG Export Plug-In . SVG Version: 6.00 Build 0)  -->
<svg version="1.1" id="Layer_1" xmlns="http://www.w3.org/2000/svg" xmlns:xlink="http://www.w3.org/1999/xlink" x="0px" y="0px"
	 viewBox="0 0 24 24" style="enable-background:new 0 0 24 24;" xml:space="preserve">
<style type="text/css">
	.st0{display:none;}
	.st1{display:inline;}
	.st2{fill:none;stroke:#000000;stroke-linecap:round;stroke-linejoin:round;stroke-miterlimit:10;}
</style>
<g id="Filled_Icons" class="st0">
	<g class="st1">
		<path d="M20.5,0h-10C10.2,0,10,0.2,10,0.5V1h1h5.5C16.8,1,17,1.2,17,1.5C17,1.8,16.8,2,16.5,2H10v1h4.5C14.8,3,15,3.2,15,3.5
			C15,3.8,14.8,4,14.5,4H10v1h3.5C13.8,5,14,5.2,14,5.5C14,5.8,13.8,6,13.5,6H10v1h3.5C13.8,7,14,7.2,14,7.5V24h1v-3.5
			c0-0.3,0.2-0.5,0.5-0.5h3c0.3,0,0.5,0.2,0.5,0.5V24h1.5c0.3,0,0.5-0.2,0.5-0.5v-23C21,0.2,20.8,0,20.5,0z"/>
		<path d="M2.5,8C2.2,8,2,8.2,2,8.5V10h4.5C6.8,10,7,10.2,7,10.5C7,10.8,6.8,11,6.5,11H2v1h3.5C5.8,12,6,12.2,6,12.5
			C6,12.8,5.8,13,5.5,13H2v1h2.5C4.8,14,5,14.2,5,14.5C5,14.8,4.8,15,4.5,15H2v8.5C2,23.8,2.2,24,2.5,24H4v-3.5
			C4,20.2,4.2,20,4.5,20h3C7.8,20,8,20.2,8,20.5V24h5V8.5V8h-0.5H2.5z"/>
	</g>
</g>
<g id="Outline_Icons">
	<g>
		<rect x="2.5" y="8.5" class="st2" width="10" height="15"/>
		<polygon class="st2" points="20.5,23.5 12.5,23.5 12.5,8.5 10.5,8.5 10.5,0.5 20.5,0.5 		"/>
		<rect x="15.5" y="20.5" class="st2" width="3" height="3"/>
		<rect x="4.5" y="20.5" class="st2" width="3" height="3"/>
		<line class="st2" x1="2.5" y1="10.5" x2="6.5" y2="10.5"/>
		<line class="st2" x1="2.5" y1="12.5" x2="5.5" y2="12.5"/>
		<line class="st2" x1="10.5" y1="4.5" x2="14.5" y2="4.5"/>
		<line class="st2" x1="10.5" y1="2.5" x2="16.5" y2="2.5"/>
		<line class="st2" x1="10.5" y1="6.5" x2="13.5" y2="6.5"/>
		<line class="st2" x1="2.5" y1="14.5" x2="4.5" y2="14.5"/>
	</g>
</g>
</svg>
