<?xml version="1.0" encoding="utf-8"?>
<!-- Generator: Adobe Illustrator 19.2.0, SVG Export Plug-In . SVG Version: 6.00 Build 0)  -->
<svg version="1.1" id="Layer_1" xmlns="http://www.w3.org/2000/svg" xmlns:xlink="http://www.w3.org/1999/xlink" x="0px" y="0px"
	 viewBox="0 0 24 24" style="enable-background:new 0 0 24 24;" xml:space="preserve">
<style type="text/css">
	.st0{display:none;}
	.st1{display:inline;}
	.st2{fill:none;stroke:#000000;stroke-linecap:round;stroke-linejoin:round;stroke-miterlimit:10;}
	.st3{fill:none;stroke:#000000;stroke-linejoin:round;stroke-miterlimit:10;}
</style>
<g id="Filled_Icons" class="st0">
	<g class="st1">
		<path d="M17,0h-2c-0.3,0-0.5,0.2-0.5,0.5v4C14.5,4.8,14.7,5,15,5h2c0.3,0,0.5-0.2,0.5-0.5v-4C17.5,0.2,17.3,0,17,0z"/>
		<path d="M9,0H7C6.7,0,6.5,0.2,6.5,0.5v4C6.5,4.8,6.7,5,7,5h2c0.3,0,0.5-0.2,0.5-0.5v-4C9.5,0.2,9.3,0,9,0z"/>
		<g>
			<path d="M23.5,15h-23C0.3,15,0,15.2,0,15.5C0,15.8,0.3,16,0.5,16H2v7.5C2,23.8,2.2,24,2.5,24h7v-5c0-0.3,0.2-0.5,0.5-0.5h4
				c0.3,0,0.5,0.2,0.5,0.5v5h7c0.3,0,0.5-0.2,0.5-0.5V16h1.5c0.3,0,0.5-0.2,0.5-0.5C24,15.2,23.8,15,23.5,15z M7.5,20.5
				C7.5,20.8,7.3,21,7,21H4c-0.3,0-0.5-0.2-0.5-0.5v-3C3.5,17.2,3.7,17,4,17h3c0.3,0,0.5,0.2,0.5,0.5V20.5z M20.5,20.5
				c0,0.3-0.2,0.5-0.5,0.5h-3c-0.3,0-0.5-0.2-0.5-0.5v-3c0-0.3,0.2-0.5,0.5-0.5h3c0.3,0,0.5,0.2,0.5,0.5V20.5z"/>
			<path d="M0.5,9H2v5h20V9h1.5C23.7,9,24,8.8,24,8.5C24,8.2,23.7,8,23.5,8H0.5h0C0.2,8,0,8.2,0,8.5C0,8.8,0.2,9,0.5,9z M17,10
				c0-0.3,0.2-0.5,0.5-0.5h2c0.3,0,0.5,0.2,0.5,0.5v2c0,0.3-0.2,0.5-0.5,0.5h-2c-0.3,0-0.5-0.2-0.5-0.5V10z M13,10
				c0-0.3,0.2-0.5,0.5-0.5h2c0.3,0,0.5,0.2,0.5,0.5v2c0,0.3-0.2,0.5-0.5,0.5h-2c-0.3,0-0.5-0.2-0.5-0.5V10z M8,10
				c0-0.3,0.2-0.5,0.5-0.5h2c0.3,0,0.5,0.2,0.5,0.5v2c0,0.3-0.2,0.5-0.5,0.5h-2C8.2,12.5,8,12.3,8,12V10z M4,10
				c0-0.3,0.2-0.5,0.5-0.5h2C6.8,9.5,7,9.7,7,10v2c0,0.3-0.2,0.5-0.5,0.5h-2C4.2,12.5,4,12.3,4,12V10z"/>
			<path d="M22.8,7l-2.4-4.7C20.4,2.1,20.2,2,20,2h-1.5v2.5C18.5,5.3,17.8,6,17,6h-2c-0.8,0-1.5-0.7-1.5-1.5V2h-3v2.5
				C10.5,5.3,9.8,6,9,6H7C6.2,6,5.5,5.3,5.5,4.5V2H4C3.8,2,3.6,2.1,3.6,2.3L1.2,7H22.8z"/>
		</g>
	</g>
</g>
<g id="Outline_Icons">
	<g>
		<rect x="2.5" y="7.5" class="st2" width="19" height="16"/>
		<line class="st2" x1="0.5" y1="13.5" x2="23.5" y2="13.5"/>
		<line class="st2" x1="0.5" y1="7.5" x2="23.5" y2="7.5"/>
		<line class="st2" x1="9.5" y1="2.5" x2="14.5" y2="2.5"/>
		<polyline class="st2" points="17.5,2.5 20,2.5 22.5,7.5 1.5,7.5 4,2.5 6.5,2.5 		"/>
		<rect x="17.5" y="9.5" class="st3" width="2" height="2"/>
		<rect x="13.5" y="9.5" class="st3" width="2" height="2"/>
		<rect x="8.5" y="9.5" class="st3" width="2" height="2"/>
		<rect x="4.5" y="9.5" class="st3" width="2" height="2"/>
		<rect x="9.5" y="18.5" class="st3" width="5" height="5"/>
		<rect x="16.5" y="15.5" class="st3" width="3" height="3"/>
		<rect x="4.5" y="15.5" class="st3" width="3" height="3"/>
		<rect x="14.5" y="0.5" class="st3" width="3" height="5"/>
		<rect x="6.5" y="0.5" class="st3" width="3" height="5"/>
	</g>
</g>
</svg>
