<?xml version="1.0" encoding="utf-8"?>
<!-- Generator: Adobe Illustrator 19.2.0, SVG Export Plug-In . SVG Version: 6.00 Build 0)  -->
<svg version="1.1" id="Layer_1" xmlns="http://www.w3.org/2000/svg" xmlns:xlink="http://www.w3.org/1999/xlink" x="0px" y="0px"
	 viewBox="0 0 24 24" style="enable-background:new 0 0 24 24;" xml:space="preserve">
<style type="text/css">
	.st0{display:none;}
	.st1{display:inline;}
	.st2{fill:none;stroke:#000000;stroke-linecap:round;stroke-linejoin:round;stroke-miterlimit:10;}
</style>
<g id="Filled_Icons" class="st0">
	<path class="st1" d="M23.5,23H22V5h1.5C23.8,5,24,4.8,24,4.5C24,4.2,23.8,4,23.5,4H21V2.5C21,2.2,20.8,2,20.5,2H15V0.5
		C15,0.2,14.8,0,14.5,0h-5C9.2,0,9,0.2,9,0.5V2H3.5C3.2,2,3,2.2,3,2.5V4H0.5C0.2,4,0,4.2,0,4.5C0,4.8,0.2,5,0.5,5H2v18H0.5
		C0.2,23,0,23.2,0,23.5C0,23.8,0.2,24,0.5,24H10v-4.5c0-0.3,0.2-0.5,0.5-0.5h3c0.3,0,0.5,0.2,0.5,0.5V24h9.5c0.3,0,0.5-0.2,0.5-0.5
		C24,23.2,23.8,23,23.5,23z M8.5,21h-3C5.2,21,5,20.8,5,20.5C5,20.2,5.2,20,5.5,20h3C8.8,20,9,20.2,9,20.5C9,20.8,8.8,21,8.5,21z
		 M10.5,17h-5C5.2,17,5,16.8,5,16.5C5,16.2,5.2,16,5.5,16h5c0.3,0,0.5,0.2,0.5,0.5C11,16.8,10.8,17,10.5,17z M10.5,14h-5
		C5.2,14,5,13.8,5,13.5C5,13.2,5.2,13,5.5,13h5c0.3,0,0.5,0.2,0.5,0.5C11,13.8,10.8,14,10.5,14z M10.5,11h-5C5.2,11,5,10.8,5,10.5
		C5,10.2,5.2,10,5.5,10h5c0.3,0,0.5,0.2,0.5,0.5C11,10.8,10.8,11,10.5,11z M10.5,8h-5C5.2,8,5,7.8,5,7.5C5,7.2,5.2,7,5.5,7h5
		C10.8,7,11,7.2,11,7.5C11,7.8,10.8,8,10.5,8z M18.5,21h-3c-0.3,0-0.5-0.2-0.5-0.5c0-0.3,0.2-0.5,0.5-0.5h3c0.3,0,0.5,0.2,0.5,0.5
		C19,20.8,18.8,21,18.5,21z M18.5,17h-5c-0.3,0-0.5-0.2-0.5-0.5c0-0.3,0.2-0.5,0.5-0.5h5c0.3,0,0.5,0.2,0.5,0.5
		C19,16.8,18.8,17,18.5,17z M18.5,14h-5c-0.3,0-0.5-0.2-0.5-0.5c0-0.3,0.2-0.5,0.5-0.5h5c0.3,0,0.5,0.2,0.5,0.5
		C19,13.8,18.8,14,18.5,14z M18.5,11h-5c-0.3,0-0.5-0.2-0.5-0.5c0-0.3,0.2-0.5,0.5-0.5h5c0.3,0,0.5,0.2,0.5,0.5
		C19,10.8,18.8,11,18.5,11z M18.5,8h-5C13.2,8,13,7.8,13,7.5C13,7.2,13.2,7,13.5,7h5C18.8,7,19,7.2,19,7.5C19,7.8,18.8,8,18.5,8z"/>
</g>
<g id="Outline_Icons">
	<g>
		<line class="st2" x1="0.5" y1="23.5" x2="23.5" y2="23.5"/>
		<rect x="2.5" y="4.5" class="st2" width="19" height="19"/>
		<line class="st2" x1="0.5" y1="4.5" x2="23.5" y2="4.5"/>
		<rect x="3.5" y="2.5" class="st2" width="17" height="2"/>
		<rect x="9.5" y="0.5" class="st2" width="5" height="2"/>
		<rect x="10.5" y="19.5" class="st2" width="3" height="4"/>
		<line class="st2" x1="5.5" y1="20.5" x2="8.5" y2="20.5"/>
		<line class="st2" x1="15.5" y1="20.5" x2="18.5" y2="20.5"/>
		<line class="st2" x1="5.5" y1="16.5" x2="10.5" y2="16.5"/>
		<line class="st2" x1="13.5" y1="16.5" x2="18.5" y2="16.5"/>
		<line class="st2" x1="5.5" y1="13.5" x2="10.5" y2="13.5"/>
		<line class="st2" x1="13.5" y1="13.5" x2="18.5" y2="13.5"/>
		<line class="st2" x1="5.5" y1="10.5" x2="10.5" y2="10.5"/>
		<line class="st2" x1="13.5" y1="10.5" x2="18.5" y2="10.5"/>
		<line class="st2" x1="5.5" y1="7.5" x2="10.5" y2="7.5"/>
		<line class="st2" x1="13.5" y1="7.5" x2="18.5" y2="7.5"/>
	</g>
</g>
</svg>
