<?xml version="1.0" encoding="utf-8"?>
<!-- Generator: Adobe Illustrator 19.2.0, SVG Export Plug-In . SVG Version: 6.00 Build 0)  -->
<svg version="1.1" id="Layer_1" xmlns="http://www.w3.org/2000/svg" xmlns:xlink="http://www.w3.org/1999/xlink" x="0px" y="0px"
	 viewBox="0 0 24 24" style="enable-background:new 0 0 24 24;" xml:space="preserve">
<style type="text/css">
	.st0{display:none;}
	.st1{display:inline;}
	.st2{fill:none;stroke:#000000;stroke-linejoin:round;stroke-miterlimit:10;}
</style>
<g id="Filled_Icons" class="st0">
	<g class="st1">
		<rect x="15" y="22" width="9" height="1"/>
		<rect x="15" y="20" width="9" height="1"/>
		<rect x="15" y="18" width="9" height="1"/>
		<path d="M15,17h1.5v-5.5c0-1.4,1.1-2.5,2.5-2.5h1c1.4,0,2.5,1.1,2.5,2.5V17H24V0.5C24,0.2,23.8,0,23.5,0H15V17z M19.5,2.5
			C20.9,2.5,22,3.6,22,5c0,1.4-1.1,2.5-2.5,2.5C18.1,7.5,17,6.4,17,5C17,3.6,18.1,2.5,19.5,2.5z"/>
		<path d="M14,17V0H0.5C0.2,0,0,0.2,0,0.5v23C0,23.8,0.2,24,0.5,24H14v-6V17z M6.5,19.5C6.5,19.8,6.3,20,6,20H2
			c-0.3,0-0.5-0.2-0.5-0.5v-5C1.5,13.1,2.6,12,4,12c1.4,0,2.5,1.1,2.5,2.5V19.5z M6.5,9.5C6.5,9.8,6.3,10,6,10H2
			c-0.3,0-0.5-0.2-0.5-0.5v-5C1.5,3.1,2.6,2,4,2c1.4,0,2.5,1.1,2.5,2.5V9.5z M12.5,19.5c0,0.3-0.2,0.5-0.5,0.5H8
			c-0.3,0-0.5-0.2-0.5-0.5v-5c0-1.4,1.1-2.5,2.5-2.5c1.4,0,2.5,1.1,2.5,2.5V19.5z M12.5,9.5c0,0.3-0.2,0.5-0.5,0.5H8
			c-0.3,0-0.5-0.2-0.5-0.5v-5C7.5,3.1,8.6,2,10,2c1.4,0,2.5,1.1,2.5,2.5V9.5z"/>
	</g>
</g>
<g id="Outline_Icons">
	<g>
		<polyline class="st2" points="15,23.5 0.5,23.5 0.5,0.5 23.5,0.5 23.5,18 		"/>
		<path class="st2" d="M6.5,4.5c0-1.1-0.9-2-2-2s-2,0.9-2,2v5h4V4.5z"/>
		<path class="st2" d="M12.5,4.5c0-1.1-0.9-2-2-2s-2,0.9-2,2v5h4V4.5z"/>
		<path class="st2" d="M6.5,14.5c0-1.1-0.9-2-2-2s-2,0.9-2,2v5h4V14.5z"/>
		<path class="st2" d="M12.5,14.5c0-1.1-0.9-2-2-2s-2,0.9-2,2v5h4V14.5z"/>
		<path class="st2" d="M21.5,11.5c0-1.1-0.9-2-2-2h-1c-1.1,0-2,0.9-2,2v6h5V11.5z"/>
		<circle class="st2" cx="19" cy="5" r="2"/>
		<rect x="14.5" y="17.5" class="st2" width="9" height="6"/>
		<line class="st2" x1="14.5" y1="19.5" x2="23.5" y2="19.5"/>
		<line class="st2" x1="14.5" y1="21.5" x2="23.5" y2="21.5"/>
		<line class="st2" x1="14.5" y1="0.5" x2="14.5" y2="18"/>
	</g>
</g>
</svg>
