<?xml version="1.0" encoding="utf-8"?>
<!-- Generator: Adobe Illustrator 19.2.0, SVG Export Plug-In . SVG Version: 6.00 Build 0)  -->
<svg version="1.1" id="Layer_1" xmlns="http://www.w3.org/2000/svg" xmlns:xlink="http://www.w3.org/1999/xlink" x="0px" y="0px"
	 viewBox="0 0 24 24" style="enable-background:new 0 0 24 24;" xml:space="preserve">
<style type="text/css">
	.st0{display:none;}
	.st1{display:inline;}
	.st2{fill:none;stroke:#000000;stroke-linejoin:round;stroke-miterlimit:10;}
	.st3{fill:none;stroke:#000000;stroke-linecap:round;stroke-linejoin:round;stroke-miterlimit:10;}
</style>
<g id="Filled_Icons" class="st0">
	<g class="st1">
		<rect x="7" y="5" width="9" height="2"/>
		<path d="M18,8H5v9h13V8z M11,15.5c0,0.3-0.2,0.5-0.5,0.5h-2C8.2,16,8,15.8,8,15.5v-2C8,13.2,8.2,13,8.5,13h2
			c0.3,0,0.5,0.2,0.5,0.5V15.5z M11,11.5c0,0.3-0.2,0.5-0.5,0.5h-2C8.2,12,8,11.8,8,11.5v-2C8,9.2,8.2,9,8.5,9h2
			C10.8,9,11,9.2,11,9.5V11.5z M15,15.5c0,0.3-0.2,0.5-0.5,0.5h-2c-0.3,0-0.5-0.2-0.5-0.5v-2c0-0.3,0.2-0.5,0.5-0.5h2
			c0.3,0,0.5,0.2,0.5,0.5V15.5z M15,11.5c0,0.3-0.2,0.5-0.5,0.5h-2c-0.3,0-0.5-0.2-0.5-0.5v-2C12,9.2,12.2,9,12.5,9h2
			C14.8,9,15,9.2,15,9.5V11.5z"/>
		<path d="M15.7,4l-3.9-3.9c-0.2-0.2-0.5-0.2-0.7,0L7.3,4H15.7z"/>
		<path d="M3,18v5.5C3,23.8,3.2,24,3.5,24h16c0.3,0,0.5-0.2,0.5-0.5V18H3z M8,21.5C8,21.8,7.8,22,7.5,22h-2C5.2,22,5,21.8,5,21.5v-2
			C5,19.2,5.2,19,5.5,19h2C7.8,19,8,19.2,8,19.5V21.5z M13,21.5c0,0.3-0.2,0.5-0.5,0.5h-2c-0.3,0-0.5-0.2-0.5-0.5v-2
			c0-0.3,0.2-0.5,0.5-0.5h2c0.3,0,0.5,0.2,0.5,0.5V21.5z M18,21.5c0,0.3-0.2,0.5-0.5,0.5h-2c-0.3,0-0.5-0.2-0.5-0.5v-2
			c0-0.3,0.2-0.5,0.5-0.5h2c0.3,0,0.5,0.2,0.5,0.5V21.5z"/>
	</g>
</g>
<g id="Outline_Icons">
	<g>
		<rect x="3.5" y="17.5" class="st2" width="16" height="6"/>
		<rect x="5.5" y="7.5" class="st2" width="12" height="10"/>
		<rect x="7.5" y="4.5" class="st2" width="8" height="3"/>
		<polygon class="st2" points="11.5,0.5 7.5,4.5 15.5,4.5 		"/>
		<rect x="8.5" y="9.5" class="st3" width="2" height="2"/>
		<rect x="12.5" y="9.5" class="st3" width="2" height="2"/>
		<rect x="8.5" y="13.5" class="st3" width="2" height="2"/>
		<rect x="12.5" y="13.5" class="st3" width="2" height="2"/>
		<rect x="5.5" y="19.5" class="st3" width="2" height="2"/>
		<rect x="10.5" y="19.5" class="st3" width="2" height="2"/>
		<rect x="15.5" y="19.5" class="st3" width="2" height="2"/>
	</g>
</g>
</svg>
