<?xml version="1.0" encoding="utf-8"?>
<!-- Generator: Adobe Illustrator 19.2.0, SVG Export Plug-In . SVG Version: 6.00 Build 0)  -->
<svg version="1.1" id="Layer_1" xmlns="http://www.w3.org/2000/svg" xmlns:xlink="http://www.w3.org/1999/xlink" x="0px" y="0px"
	 viewBox="0 0 24 24" enable-background="new 0 0 24 24" xml:space="preserve">
<g id="Filled_Icons" display="none">
	<g display="inline">
		<path d="M12.093,7.506c1.474,0,3.22-2.127,3.8-6.88c-0.156,1.53-2.076,2.229-3.795,2.229c-1.721,0-3.642-0.699-3.802-2.23
			C8.879,5.381,10.621,7.506,12.093,7.506z"/>
		<path d="M23.721,11.621c-4.326-1.545-3.787-4.872-2.551-9.405c0.07-0.256-0.072-0.522-0.326-0.606l-3.897-1.281l-0.061,0.416
			c-0.695,5.719-2.933,7.761-4.793,7.761h-0.001c-1.86,0-4.097-2.044-4.792-7.779L7.244,0.324l-3.901,1.29
			C3.091,1.697,2.947,1.963,3.018,2.22c1.235,4.529,1.776,7.856-2.551,9.401c-0.242,0.087-0.38,0.343-0.317,0.593l2.207,8.792l0,0
			l0.658,2.622c0.057,0.224,0.256,0.378,0.485,0.378h17.187c0.23,0,0.43-0.156,0.485-0.378l0.658-2.622l0,0l2.207-8.792
			C24.102,11.964,23.963,11.708,23.721,11.621z M13.094,10.506c0-0.828,0.674-1.5,1.5-1.5h2c0.827,0,1.5,0.672,1.5,1.5v1
			c0,0.827-0.673,1.5-1.5,1.5h-2c-0.826,0-1.5-0.673-1.5-1.5V10.506z M5.094,10.506c0-0.828,0.673-1.5,1.5-1.5h2
			c0.827,0,1.5,0.672,1.5,1.5v1c0,0.827-0.673,1.5-1.5,1.5h-2c-0.827,0-1.5-0.673-1.5-1.5V10.506z M2.635,18.006h2.959
			c0.276,0,0.5-0.225,0.5-0.5c0-0.277-0.224-0.5-0.5-0.5h-3.21l-0.753-3h6.963c1.379,0,2.5,1.122,2.5,2.5v2
			c0,1.378-1.121,2.5-2.5,2.5H3.388L2.635,18.006z M15.594,21.006c-1.379,0-2.5-1.122-2.5-2.5v-2c0-1.378,1.121-2.5,2.5-2.5h6.963
			l-0.752,3h-3.211c-0.275,0-0.5,0.223-0.5,0.5c0,0.275,0.225,0.5,0.5,0.5h2.959l-0.753,3H15.594z"/>
	</g>
</g>
<g id="Outline_Icons">
	<g>
		<path fill="none" stroke="#000000" stroke-linejoin="round" stroke-miterlimit="10" d="M23.553,12.086L20.687,23.5H3.5
			L0.635,12.086C5.648,10.295,4.574,6.021,3.5,2.082l4.297-1.421c0.357,3.58,8.235,3.585,8.594,0.005l4.297,1.413
			C19.613,6.018,18.539,10.295,23.553,12.086z"/>
		<path fill="none" stroke="#000000" stroke-linejoin="round" stroke-miterlimit="10" d="M1.24,14.5h7.354c1.104,0,2,0.897,2,2v2
			c0,1.104-0.896,2-2,2H2.746"/>
		<path fill="none" stroke="#000000" stroke-linejoin="round" stroke-miterlimit="10" d="M22.945,14.5h-7.352c-1.105,0-2,0.897-2,2
			v2c0,1.104,0.895,2,2,2h5.847"/>
		<path fill="none" stroke="#000000" stroke-linejoin="round" stroke-miterlimit="10" d="M7.797,0.661
			c1.188,9.789,7.406,9.781,8.594,0.005"/>
		<path fill="none" stroke="#000000" stroke-linejoin="round" stroke-miterlimit="10" d="M9.594,11.5c0,0.552-0.447,1-1,1h-2
			c-0.553,0-1-0.448-1-1v-1c0-0.552,0.447-1,1-1h2c0.553,0,1,0.448,1,1V11.5z"/>
		<path fill="none" stroke="#000000" stroke-linejoin="round" stroke-miterlimit="10" d="M17.594,11.5c0,0.552-0.447,1-1,1h-2
			c-0.553,0-1-0.448-1-1v-1c0-0.552,0.447-1,1-1h2c0.553,0,1,0.448,1,1V11.5z"/>
		
			<line fill="none" stroke="#000000" stroke-linecap="round" stroke-linejoin="round" stroke-miterlimit="10" x1="1.994" y1="17.5" x2="5.594" y2="17.5"/>
		
			<line fill="none" stroke="#000000" stroke-linecap="round" stroke-linejoin="round" stroke-miterlimit="10" x1="22.193" y1="17.5" x2="18.594" y2="17.5"/>
	</g>
	<g>
		<path fill="none" stroke="#000000" stroke-linejoin="round" stroke-miterlimit="10" d="M23.553,12.086L20.687,23.5H3.5
			L0.635,12.086C5.648,10.295,4.574,6.021,3.5,2.082l4.297-1.421c0.357,3.58,8.235,3.585,8.594,0.005l4.297,1.413
			C19.613,6.018,18.539,10.295,23.553,12.086z"/>
		<path fill="none" stroke="#000000" stroke-linejoin="round" stroke-miterlimit="10" d="M1.24,14.5h7.354c1.104,0,2,0.897,2,2v2
			c0,1.104-0.896,2-2,2H2.746"/>
		<path fill="none" stroke="#000000" stroke-linejoin="round" stroke-miterlimit="10" d="M22.945,14.5h-7.352c-1.105,0-2,0.897-2,2
			v2c0,1.104,0.895,2,2,2h5.847"/>
		<path fill="none" stroke="#000000" stroke-linejoin="round" stroke-miterlimit="10" d="M7.797,0.661
			c1.188,9.789,7.406,9.781,8.594,0.005"/>
		<path fill="none" stroke="#000000" stroke-linejoin="round" stroke-miterlimit="10" d="M9.594,11.5c0,0.552-0.447,1-1,1h-2
			c-0.553,0-1-0.448-1-1v-1c0-0.552,0.447-1,1-1h2c0.553,0,1,0.448,1,1V11.5z"/>
		<path fill="none" stroke="#000000" stroke-linejoin="round" stroke-miterlimit="10" d="M17.594,11.5c0,0.552-0.447,1-1,1h-2
			c-0.553,0-1-0.448-1-1v-1c0-0.552,0.447-1,1-1h2c0.553,0,1,0.448,1,1V11.5z"/>
		
			<line fill="none" stroke="#000000" stroke-linecap="round" stroke-linejoin="round" stroke-miterlimit="10" x1="1.994" y1="17.5" x2="5.594" y2="17.5"/>
		
			<line fill="none" stroke="#000000" stroke-linecap="round" stroke-linejoin="round" stroke-miterlimit="10" x1="22.193" y1="17.5" x2="18.594" y2="17.5"/>
	</g>
</g>
</svg>
