<?xml version="1.0" encoding="utf-8"?>
<!-- Generator: Adobe Illustrator 19.2.0, SVG Export Plug-In . SVG Version: 6.00 Build 0)  -->
<svg version="1.1" id="Layer_1" xmlns="http://www.w3.org/2000/svg" xmlns:xlink="http://www.w3.org/1999/xlink" x="0px" y="0px"
	 viewBox="0 0 24 24" enable-background="new 0 0 24 24" xml:space="preserve">
<g id="Filled_Icons" display="none">
	<g display="inline">
		<path d="M1.5,8.006c0.276,0,0.5-0.225,0.5-0.5v-0.5h13.969l0,0v-6H2v-0.5c0-0.277-0.224-0.5-0.5-0.5c-0.276,0-0.5,0.223-0.5,0.5v7
			C1,7.782,1.224,8.006,1.5,8.006z"/>
		<path d="M23,4.006c0-1.754-3.057-2.874-6.031-2.989v5.977C19.943,6.881,23,5.761,23,4.006z"/>
		<path d="M7,14.995V9.018c-2.976,0.115-6,1.234-6,2.989C1,13.762,4.024,14.881,7,14.995z"/>
		<path d="M22.5,8.006c-0.275,0-0.5,0.223-0.5,0.5v0.5H8v6l0,0h14v0.5c0,0.275,0.225,0.5,0.5,0.5c0.275,0,0.5-0.225,0.5-0.5v-7
			C23,8.229,22.775,8.006,22.5,8.006z"/>
		<path d="M16,17.006H2v-0.5c0-0.277-0.224-0.5-0.5-0.5c-0.276,0-0.5,0.223-0.5,0.5v7c0,0.275,0.224,0.5,0.5,0.5
			c0.276,0,0.5-0.225,0.5-0.5v-0.5h14l0,0V17.006z"/>
		<path d="M17,17.018v5.978c2.975-0.113,6-1.233,6-2.988C23,18.253,19.975,17.132,17,17.018z"/>
	</g>
</g>
<g id="Outline_Icons">
	<g>
		
			<rect x="1.5" y="1.5" fill="none" stroke="#000000" stroke-linecap="round" stroke-linejoin="round" stroke-miterlimit="10" width="15" height="5"/>
		
			<line fill="none" stroke="#000000" stroke-linecap="round" stroke-linejoin="round" stroke-miterlimit="10" x1="1.5" y1="0.5" x2="1.5" y2="7.5"/>
		<path fill="none" stroke="#000000" stroke-linecap="round" stroke-linejoin="round" stroke-miterlimit="10" d="M16.5,6.5
			c3.037,0,6-1.119,6-2.5c0-1.38-2.963-2.5-6-2.5"/>
		
			<rect x="7.5" y="9.5" fill="none" stroke="#000000" stroke-linecap="round" stroke-linejoin="round" stroke-miterlimit="10" width="15" height="5"/>
		
			<line fill="none" stroke="#000000" stroke-linecap="round" stroke-linejoin="round" stroke-miterlimit="10" x1="22.5" y1="8.5" x2="22.5" y2="15.5"/>
		<path fill="none" stroke="#000000" stroke-linecap="round" stroke-linejoin="round" stroke-miterlimit="10" d="M7.5,14.5
			c-3.038,0-6-1.119-6-2.5c0-1.38,2.962-2.5,6-2.5"/>
		
			<rect x="1.5" y="17.5" fill="none" stroke="#000000" stroke-linecap="round" stroke-linejoin="round" stroke-miterlimit="10" width="15" height="5"/>
		
			<line fill="none" stroke="#000000" stroke-linecap="round" stroke-linejoin="round" stroke-miterlimit="10" x1="1.5" y1="16.5" x2="1.5" y2="23.5"/>
		<path fill="none" stroke="#000000" stroke-linecap="round" stroke-linejoin="round" stroke-miterlimit="10" d="M16.5,22.5
			c3.037,0,6-1.119,6-2.5c0-1.38-2.963-2.5-6-2.5"/>
	</g>
</g>
</svg>
