<?xml version="1.0" encoding="utf-8"?>
<!-- Generator: Adobe Illustrator 19.2.0, SVG Export Plug-In . SVG Version: 6.00 Build 0)  -->
<svg version="1.1" id="Layer_1" xmlns="http://www.w3.org/2000/svg" xmlns:xlink="http://www.w3.org/1999/xlink" x="0px" y="0px"
	 viewBox="0 0 24 24" enable-background="new 0 0 24 24" xml:space="preserve">
<g id="Filled_Icons" display="none">
	<g display="inline">
		<path d="M3.5,8.006c0-0.117-0.041-0.23-0.116-0.32l-2.5-3C0.707,4.475,0.393,4.444,0.18,4.622
			c-0.212,0.177-0.241,0.492-0.064,0.704L2.5,8.187v4.819v3v2.819l-2.385,2.86c-0.176,0.211-0.147,0.526,0.064,0.703
			c0.094,0.078,0.207,0.116,0.319,0.116c0.144,0,0.286-0.062,0.385-0.18l2.5-3c0.075-0.091,0.116-0.203,0.116-0.32v-3H6v-3H3.5
			V8.006z"/>
		<path d="M21.5,19.006h-12c-1.519,0-2.5,0.98-2.5,2.5c0,1.52,0.981,2.5,2.5,2.5h12c1.519,0,2.5-0.98,2.5-2.5
			C24,19.986,23.019,19.006,21.5,19.006z M11,23.006c-0.827,0-1.5-0.673-1.5-1.5c0-0.826,0.673-1.5,1.5-1.5
			c0.827,0,1.5,0.674,1.5,1.5C12.5,22.333,11.827,23.006,11,23.006z M15.5,23.006c-0.827,0-1.5-0.673-1.5-1.5
			c0-0.826,0.673-1.5,1.5-1.5c0.827,0,1.5,0.674,1.5,1.5C17,22.333,16.327,23.006,15.5,23.006z M20,23.006
			c-0.827,0-1.5-0.673-1.5-1.5c0-0.826,0.673-1.5,1.5-1.5c0.827,0,1.5,0.674,1.5,1.5C21.5,22.333,20.827,23.006,20,23.006z"/>
		<path d="M23.5,3.006h-9c-0.223,0-0.419,0.148-0.481,0.362l-1.61,5.638H24v-5.5C24,3.229,23.775,3.006,23.5,3.006z M19.5,7.506
			c0,0.276-0.225,0.5-0.5,0.5L15.643,8.01h-0.002c-0.156,0-0.305-0.073-0.397-0.198c-0.095-0.126-0.125-0.288-0.082-0.439
			l0.858-3.004c0.062-0.214,0.258-0.362,0.48-0.362H19c0.275,0,0.5,0.224,0.5,0.5V7.506z"/>
		<path d="M9.5,10.006c-1.378,0-2.5,1.121-2.5,2.5v5c0,0.275,0.224,0.5,0.5,0.5h16c0.275,0,0.5-0.225,0.5-0.5v-6.5v-0.5v-0.5H9.5z
			 M14,14.506h-4c-0.276,0-0.5-0.225-0.5-0.5c0-0.275,0.224-0.5,0.5-0.5h4c0.275,0,0.5,0.225,0.5,0.5
			C14.5,14.281,14.275,14.506,14,14.506z M14.5,12.006c0,0.276-0.225,0.5-0.5,0.5h-4c-0.276,0-0.5-0.224-0.5-0.5
			c0-0.276,0.224-0.5,0.5-0.5h4C14.275,11.506,14.5,11.729,14.5,12.006z"/>
	</g>
</g>
<g id="Outline_Icons">
	<g>
		<path fill="none" stroke="#000000" stroke-linejoin="round" stroke-miterlimit="10" d="M23.5,18.5v-8h-14c-1.104,0-2,0.896-2,2v6
			H23.5z"/>
		<polygon fill="none" stroke="#000000" stroke-linejoin="round" stroke-miterlimit="10" points="14.5,3.5 23.5,3.5 23.5,10.5 
			12.5,10.5 		"/>
		<polyline fill="none" stroke="#000000" stroke-linecap="round" stroke-linejoin="round" stroke-miterlimit="10" points="
			15.643,8.504 16.5,5.5 19,5.5 		"/>
		<polyline fill="none" stroke="#000000" stroke-linecap="round" stroke-linejoin="round" stroke-miterlimit="10" points="1,6 
			3.5,9 3.5,20 1,23 		"/>
		<line fill="none" stroke="#000000" stroke-linejoin="round" stroke-miterlimit="10" x1="3.5" y1="14.5" x2="7.5" y2="14.5"/>
		<line fill="none" stroke="#000000" stroke-linejoin="round" stroke-miterlimit="10" x1="3.5" y1="16.5" x2="7.5" y2="16.5"/>
		
			<line fill="none" stroke="#000000" stroke-linecap="round" stroke-linejoin="round" stroke-miterlimit="10" x1="10" y1="12.5" x2="14" y2="12.5"/>
		
			<line fill="none" stroke="#000000" stroke-linecap="round" stroke-linejoin="round" stroke-miterlimit="10" x1="10" y1="14.5" x2="14" y2="14.5"/>
		<path fill="none" stroke="#000000" stroke-linejoin="round" stroke-miterlimit="10" d="M7.5,21c0,1.381,1.119,2.5,2.5,2.5h11
			c1.381,0,2.5-1.119,2.5-2.5c0-1.381-1.119-2.5-2.5-2.5H10C8.619,18.5,7.5,19.619,7.5,21z"/>
		<circle fill="none" stroke="#000000" stroke-linejoin="round" stroke-miterlimit="10" cx="11" cy="21" r="1"/>
		<circle fill="none" stroke="#000000" stroke-linejoin="round" stroke-miterlimit="10" cx="15.5" cy="21" r="1"/>
		<circle fill="none" stroke="#000000" stroke-linejoin="round" stroke-miterlimit="10" cx="20" cy="21" r="1"/>
	</g>
</g>
</svg>
