<?xml version="1.0" encoding="utf-8"?>
<!-- Generator: Adobe Illustrator 19.2.0, SVG Export Plug-In . SVG Version: 6.00 Build 0)  -->
<svg version="1.1" id="Layer_1" xmlns="http://www.w3.org/2000/svg" xmlns:xlink="http://www.w3.org/1999/xlink" x="0px" y="0px"
	 viewBox="0 0 24 24" enable-background="new 0 0 24 24" xml:space="preserve">
<g id="Filled_Icons" display="none">
	<g display="inline">
		<rect x="7" y="4.006" width="9" height="1.5"/>
		<path d="M18.757,11.506l-0.764-4.582c-0.04-0.241-0.249-0.418-0.493-0.418h-12c-0.245,0-0.453,0.177-0.493,0.418l-0.764,4.582
			H18.757z M15,8.021c0-0.276,0.225-0.5,0.5-0.5c0.275,0,0.5,0.224,0.5,0.5v1.984c0,0.276-0.225,0.5-0.5,0.5
			c-0.275,0-0.5-0.224-0.5-0.5V8.021z M13,8.006c0-0.276,0.225-0.5,0.5-0.5c0.275,0,0.5,0.224,0.5,0.5V9.99
			c0,0.276-0.225,0.5-0.5,0.5c-0.275,0-0.5-0.223-0.5-0.5V8.006z M11,8.006c0-0.276,0.224-0.5,0.5-0.5c0.276,0,0.5,0.224,0.5,0.5
			V9.99c0,0.276-0.224,0.5-0.5,0.5c-0.276,0-0.5-0.223-0.5-0.5V8.006z M9,8.006c0-0.276,0.224-0.5,0.5-0.5
			c0.276,0,0.5,0.224,0.5,0.5V9.99c0,0.276-0.224,0.5-0.5,0.5c-0.276,0-0.5-0.223-0.5-0.5V8.006z M7,8.006
			c0-0.276,0.224-0.5,0.5-0.5c0.276,0,0.5,0.223,0.5,0.5V9.99c0,0.276-0.224,0.5-0.5,0.5c-0.276,0-0.5-0.223-0.5-0.5V8.006z"/>
		<path d="M16,3.006v-1c0-0.276-0.225-0.5-0.5-0.5h-8c-0.276,0-0.5,0.224-0.5,0.5v1H16z"/>
		<path d="M22.5,21.506c0.144,0,0.279-0.062,0.375-0.169c0.096-0.106,0.139-0.251,0.121-0.393l-1-8
			c-0.031-0.25-0.244-0.438-0.496-0.438h-20c-0.252,0-0.465,0.188-0.496,0.438l-1,8c-0.019,0.142,0.026,0.285,0.121,0.393
			c0.095,0.108,0.231,0.169,0.375,0.169H22.5z M4,17.506h15c0.275,0,0.5,0.225,0.5,0.5c0,0.275-0.225,0.5-0.5,0.5H4
			c-0.276,0-0.5-0.225-0.5-0.5C3.5,17.731,3.724,17.506,4,17.506z"/>
		<path d="M2,22.506v1c0,0.275,0.224,0.5,0.5,0.5h4c0.276,0,0.5-0.225,0.5-0.5v-1H2z"/>
		<path d="M16,22.506v1c0,0.275,0.225,0.5,0.5,0.5h4c0.275,0,0.5-0.225,0.5-0.5v-1H16z"/>
	</g>
</g>
<g id="Outline_Icons">
	<g>
		<polygon fill="none" stroke="#000000" stroke-linejoin="round" stroke-miterlimit="10" points="1.5,13.5 21.5,13.5 22.5,21.5 
			0.5,21.5 		"/>
		
			<line fill="none" stroke="#000000" stroke-linecap="round" stroke-linejoin="round" stroke-miterlimit="10" x1="4" y1="18.5" x2="19" y2="18.5"/>
		<rect x="7.5" y="2.5" fill="none" stroke="#000000" stroke-linejoin="round" stroke-miterlimit="10" width="8" height="5"/>
		<rect x="2.5" y="21.5" fill="none" stroke="#000000" stroke-linejoin="round" stroke-miterlimit="10" width="4" height="2"/>
		<rect x="16.5" y="21.5" fill="none" stroke="#000000" stroke-linejoin="round" stroke-miterlimit="10" width="4" height="2"/>
		<polygon fill="none" stroke="#000000" stroke-linecap="round" stroke-linejoin="round" stroke-miterlimit="10" points="5.5,7.5 
			17.5,7.5 18.5,13.5 4.5,13.5 		"/>
		
			<line fill="none" stroke="#000000" stroke-linecap="round" stroke-linejoin="round" stroke-miterlimit="10" x1="7.5" y1="9.516" x2="7.5" y2="11.5"/>
		
			<line fill="none" stroke="#000000" stroke-linecap="round" stroke-linejoin="round" stroke-miterlimit="10" x1="9.5" y1="9.516" x2="9.5" y2="11.5"/>
		
			<line fill="none" stroke="#000000" stroke-linecap="round" stroke-linejoin="round" stroke-miterlimit="10" x1="11.5" y1="9.516" x2="11.5" y2="11.5"/>
		
			<line fill="none" stroke="#000000" stroke-linecap="round" stroke-linejoin="round" stroke-miterlimit="10" x1="13.5" y1="9.516" x2="13.5" y2="11.5"/>
		
			<line fill="none" stroke="#000000" stroke-linecap="round" stroke-linejoin="round" stroke-miterlimit="10" x1="15.5" y1="9.516" x2="15.5" y2="11.5"/>
		
			<line fill="none" stroke="#000000" stroke-linecap="round" stroke-linejoin="round" stroke-miterlimit="10" x1="7.5" y1="4.5" x2="15.5" y2="4.5"/>
	</g>
</g>
</svg>
