<?xml version="1.0" encoding="utf-8"?>
<!-- Generator: Adobe Illustrator 19.2.0, SVG Export Plug-In . SVG Version: 6.00 Build 0)  -->
<svg version="1.1" id="Layer_1" xmlns="http://www.w3.org/2000/svg" xmlns:xlink="http://www.w3.org/1999/xlink" x="0px" y="0px"
	 viewBox="0 0 24 24" enable-background="new 0 0 24 24" xml:space="preserve">
<g id="Filled_Icons" display="none">
	<g display="inline">
		<path d="M8.149,20.006c0.365,0.764,0.392,1.354,0.301,2h7.101c-0.092-0.643-0.066-1.234,0.301-2H8.149z"/>
		<path d="M23.5,0.006h-18c-1.378,0-2.5,1.121-2.5,2.5v12.5H1.5c-0.245,0-0.453,0.178-0.493,0.418L0.41,19.006h2.148
			c0.631-0.617,1.492-1,2.441-1c0.95,0,1.811,0.383,2.442,1h9.116c0.631-0.617,1.492-1,2.441-1c0.949,0,1.811,0.383,2.441,1H24
			v-18.5C24,0.229,23.775,0.006,23.5,0.006z M8,14.506c0,0.275-0.224,0.5-0.5,0.5h-3c-0.276,0-0.5-0.225-0.5-0.5v-3
			c0-0.276,0.224-0.5,0.5-0.5h3c0.276,0,0.5,0.224,0.5,0.5V14.506z M8,7.006c0,0.276-0.224,0.5-0.5,0.5h-3
			c-0.276,0-0.5-0.224-0.5-0.5v-3c0-0.276,0.224-0.5,0.5-0.5h3c0.276,0,0.5,0.224,0.5,0.5V7.006z M13,14.506
			c0,0.275-0.225,0.5-0.5,0.5h-3c-0.276,0-0.5-0.225-0.5-0.5v-3c0-0.276,0.224-0.5,0.5-0.5h3c0.275,0,0.5,0.224,0.5,0.5V14.506z
			 M13,7.006c0,0.276-0.225,0.5-0.5,0.5h-3c-0.276,0-0.5-0.224-0.5-0.5v-3c0-0.276,0.224-0.5,0.5-0.5h3c0.275,0,0.5,0.224,0.5,0.5
			V7.006z M18,14.506c0,0.275-0.225,0.5-0.5,0.5h-3c-0.275,0-0.5-0.225-0.5-0.5v-3c0-0.276,0.225-0.5,0.5-0.5h3
			c0.275,0,0.5,0.224,0.5,0.5V14.506z M18,7.006c0,0.276-0.225,0.5-0.5,0.5h-3c-0.275,0-0.5-0.224-0.5-0.5v-3
			c0-0.276,0.225-0.5,0.5-0.5h3c0.275,0,0.5,0.224,0.5,0.5V7.006z M23,14.506c0,0.275-0.225,0.5-0.5,0.5h-3
			c-0.275,0-0.5-0.225-0.5-0.5v-3c0-0.276,0.225-0.5,0.5-0.5h3c0.275,0,0.5,0.224,0.5,0.5V14.506z M23,7.006
			c0,0.276-0.225,0.5-0.5,0.5h-3c-0.275,0-0.5-0.224-0.5-0.5v-3c0-0.276,0.225-0.5,0.5-0.5h3c0.275,0,0.5,0.224,0.5,0.5V7.006z"/>
		<path d="M0.243,20.006l-0.236,1.418c-0.024,0.145,0.017,0.293,0.112,0.405c0.095,0.112,0.234,0.177,0.381,0.177h1.051
			c-0.092-0.643-0.066-1.234,0.301-2H0.243z"/>
		<path d="M22.45,22.006h1.05c0.275,0,0.5-0.225,0.5-0.5v-1.5h-1.852C22.516,20.77,22.542,21.359,22.45,22.006z"/>
		<path d="M5,19.006c-1.378,0-2.5,1.121-2.5,2.5c0,1.379,1.122,2.5,2.5,2.5c1.379,0,2.5-1.121,2.5-2.5
			C7.5,20.127,6.379,19.006,5,19.006z"/>
		<path d="M19,19.006c-1.378,0-2.5,1.121-2.5,2.5c0,1.379,1.122,2.5,2.5,2.5c1.379,0,2.5-1.121,2.5-2.5
			C21.5,20.127,20.379,19.006,19,19.006z"/>
	</g>
</g>
<g id="Outline_Icons">
	<g>
		
			<circle fill="none" stroke="#000000" stroke-linecap="round" stroke-linejoin="round" stroke-miterlimit="10" cx="5" cy="21.5" r="2"/>
		
			<circle fill="none" stroke="#000000" stroke-linecap="round" stroke-linejoin="round" stroke-miterlimit="10" cx="19" cy="21.5" r="2"/>
		
			<line fill="none" stroke="#000000" stroke-linecap="round" stroke-linejoin="round" stroke-miterlimit="10" x1="7" y1="21.5" x2="17" y2="21.5"/>
		<path fill="none" stroke="#000000" stroke-linecap="round" stroke-linejoin="round" stroke-miterlimit="10" d="M3,21.5H0.5l1-6h2
			v-9l0,0c0-0.854,0-2.607,0-4c0-1.104,0.895-2,2-2c1.341,0,3.033,0,4,0h14v21H21"/>
		
			<line fill="none" stroke="#000000" stroke-linecap="round" stroke-linejoin="round" stroke-miterlimit="10" x1="0.833" y1="19.5" x2="23.5" y2="19.5"/>
		
			<line fill="none" stroke="#000000" stroke-linecap="round" stroke-linejoin="round" stroke-miterlimit="10" x1="3.5" y1="7.5" x2="23.5" y2="7.5"/>
		
			<line fill="none" stroke="#000000" stroke-linecap="round" stroke-linejoin="round" stroke-miterlimit="10" x1="3.5" y1="11.5" x2="23.5" y2="11.5"/>
		
			<line fill="none" stroke="#000000" stroke-linecap="round" stroke-linejoin="round" stroke-miterlimit="10" x1="3" y1="15.5" x2="23.5" y2="15.5"/>
		
			<line fill="none" stroke="#000000" stroke-linecap="round" stroke-linejoin="round" stroke-miterlimit="10" x1="8.5" y1="3.5" x2="8.5" y2="7.5"/>
		
			<line fill="none" stroke="#000000" stroke-linecap="round" stroke-linejoin="round" stroke-miterlimit="10" x1="13.5" y1="3.5" x2="13.5" y2="7.5"/>
		
			<line fill="none" stroke="#000000" stroke-linecap="round" stroke-linejoin="round" stroke-miterlimit="10" x1="18.5" y1="3.5" x2="18.5" y2="7.5"/>
		
			<line fill="none" stroke="#000000" stroke-linecap="round" stroke-linejoin="round" stroke-miterlimit="10" x1="8.5" y1="11.5" x2="8.5" y2="15.5"/>
		
			<line fill="none" stroke="#000000" stroke-linecap="round" stroke-linejoin="round" stroke-miterlimit="10" x1="13.5" y1="11.5" x2="13.5" y2="15.5"/>
		
			<line fill="none" stroke="#000000" stroke-linecap="round" stroke-linejoin="round" stroke-miterlimit="10" x1="18.5" y1="11.5" x2="18.5" y2="15.5"/>
		
			<line fill="none" stroke="#000000" stroke-linecap="round" stroke-linejoin="round" stroke-miterlimit="10" x1="23.5" y1="3.5" x2="3.5" y2="3.5"/>
	</g>
</g>
</svg>
