<?xml version="1.0" encoding="utf-8"?>
<!-- Generator: Adobe Illustrator 19.2.0, SVG Export Plug-In . SVG Version: 6.00 Build 0)  -->
<svg version="1.1" id="Layer_1" xmlns="http://www.w3.org/2000/svg" xmlns:xlink="http://www.w3.org/1999/xlink" x="0px" y="0px"
	 viewBox="0 0 24 24" enable-background="new 0 0 24 24" xml:space="preserve">
<g id="Filled_Icons" display="none">
	<path display="inline" d="M4,16.006v-6h9v6H4z M5.5,8.006c-0.276,0-0.5-0.224-0.5-0.5v-3c0-0.276,0.224-0.5,0.5-0.5h13
		c0.275,0,0.5,0.224,0.5,0.5v3c0,0.276-0.225,0.5-0.5,0.5H5.5z M17,10.006h2v6h-2V10.006z M20.5,10.006c0.275,0,0.5-0.224,0.5-0.5
		v-6c0-1.93-1.57-3.5-3.5-3.5h-11c-1.972,0-3.5,1.612-3.5,3v6.5v7v1.492v2.5v1c0,0.277,0.224,0.5,0.5,0.5H4v1.508
		c0,0.275,0.224,0.5,0.5,0.5H7c0.276,0,0.5-0.225,0.5-0.5v-1.508h9v1.508c0,0.275,0.225,0.5,0.5,0.5h2.5c0.275,0,0.5-0.225,0.5-0.5
		v-1.508h0.5c0.275,0,0.5-0.223,0.5-0.5v-1v-2.5v-1.492c0-0.275-0.225-0.5-0.5-0.5H20v-6H20.5z M6.5,23.006H5v-1.508h1.5V23.006z
		 M6.5,19.998H4v-1.5h2.5V19.998z M8.383,20.998l0.9-1.5h5.434l0.899,1.5H8.383z M19,23.006h-1.5v-1.508H19V23.006z M20,19.998h-2.5
		v-1.5H20V19.998z"/>
</g>
<g id="Outline_Icons">
	<g>
		<path fill="none" stroke="#000000" stroke-linecap="round" stroke-linejoin="round" stroke-miterlimit="10" d="M3.5,22.5h17v-6h-1
			v-7h1v-6c0-1.657-1.344-3-3-3h-11c-1.657,0-3,1.343-3,3V22.5z"/>
		
			<rect x="4.5" y="22.5" fill="none" stroke="#000000" stroke-linecap="round" stroke-linejoin="round" stroke-miterlimit="10" width="2" height="1"/>
		
			<rect x="17.5" y="22.5" fill="none" stroke="#000000" stroke-linecap="round" stroke-linejoin="round" stroke-miterlimit="10" width="2" height="1"/>
		<polygon fill="none" stroke="#000000" stroke-linecap="round" stroke-linejoin="round" stroke-miterlimit="10" points="15,19.5 
			9,19.5 7.5,22.5 16.5,22.5 		"/>
		
			<rect x="3.5" y="18.5" fill="none" stroke="#000000" stroke-linecap="round" stroke-linejoin="round" stroke-miterlimit="10" width="3" height="2"/>
		
			<rect x="17.5" y="18.5" fill="none" stroke="#000000" stroke-linecap="round" stroke-linejoin="round" stroke-miterlimit="10" width="3" height="2"/>
		
			<rect x="16.5" y="9.5" fill="none" stroke="#000000" stroke-linecap="round" stroke-linejoin="round" stroke-miterlimit="10" width="3" height="7"/>
		
			<rect x="3.5" y="9.5" fill="none" stroke="#000000" stroke-linecap="round" stroke-linejoin="round" stroke-miterlimit="10" width="10" height="7"/>
		
			<rect x="5.5" y="4.5" fill="none" stroke="#000000" stroke-linecap="round" stroke-linejoin="round" stroke-miterlimit="10" width="13" height="3"/>
	</g>
</g>
</svg>
