<?xml version="1.0" encoding="utf-8"?>
<!-- Generator: Adobe Illustrator 19.2.0, SVG Export Plug-In . SVG Version: 6.00 Build 0)  -->
<svg version="1.1" id="Layer_1" xmlns="http://www.w3.org/2000/svg" xmlns:xlink="http://www.w3.org/1999/xlink" x="0px" y="0px"
	 viewBox="0 0 24 24" enable-background="new 0 0 24 24" xml:space="preserve">
<g id="Filled_Icons" display="none">
	<g display="inline">
		<path d="M22.5,4.006h-2c-0.012,0-0.022,0.006-0.031,0.007c-0.011-0.001-0.022-0.007-0.031-0.007h-1.44
			c-0.019-2.208-1.804-4-3.997-4H8c-2.194,0-3.978,1.792-3.997,4H2.5h-2c-0.276,0-0.5,0.224-0.5,0.5v5c0,0.276,0.224,0.5,0.5,0.5
			h1.793l1.21,1.21C2.62,11.603,2,12.482,2,13.506v3.669c0.314-0.102,0.647-0.169,1-0.169h17c0.353,0,0.685,0.066,1,0.169v-3.669
			c0-1.023-0.62-1.903-1.503-2.29l1.21-1.21H22.5c0.275,0,0.5-0.224,0.5-0.5v-5C23,4.229,22.775,4.006,22.5,4.006z M15.5,2.006
			c0.275,0,0.5,0.224,0.5,0.5c0,0.276-0.225,0.5-0.5,0.5c-0.275,0-0.5-0.224-0.5-0.5C15,2.23,15.225,2.006,15.5,2.006z M12,5.506
			c0-0.276,0.224-0.5,0.5-0.5h5c0.275,0,0.5,0.224,0.5,0.5v5c0,0.276-0.225,0.5-0.5,0.5h-5c-0.276,0-0.5-0.224-0.5-0.5V5.506z
			 M7.5,2.006c0.276,0,0.5,0.224,0.5,0.5c0,0.276-0.224,0.5-0.5,0.5c-0.276,0-0.5-0.224-0.5-0.5C7,2.23,7.224,2.006,7.5,2.006z
			 M5,5.506c0-0.276,0.224-0.5,0.5-0.5h5c0.276,0,0.5,0.224,0.5,0.5v5c0,0.276-0.224,0.5-0.5,0.5h-5c-0.276,0-0.5-0.224-0.5-0.5
			V5.506z M3,5.006h1v5.293l-1-1V5.006z M5.5,16.006c-0.827,0-1.5-0.673-1.5-1.5c0-0.826,0.673-1.5,1.5-1.5
			c0.827,0,1.5,0.674,1.5,1.5C7,15.333,6.327,16.006,5.5,16.006z M13.5,16.006H9.484c-0.276,0-0.5-0.225-0.5-0.5
			c0-0.275,0.224-0.5,0.5-0.5H13.5c0.275,0,0.5,0.225,0.5,0.5C14,15.781,13.775,16.006,13.5,16.006z M13.5,14.006H9.484
			c-0.276,0-0.5-0.225-0.5-0.5c0-0.275,0.224-0.5,0.5-0.5H13.5c0.275,0,0.5,0.225,0.5,0.5C14,13.781,13.775,14.006,13.5,14.006z
			 M17.5,16.006c-0.827,0-1.5-0.673-1.5-1.5c0-0.826,0.673-1.5,1.5-1.5c0.827,0,1.5,0.674,1.5,1.5
			C19,15.333,18.327,16.006,17.5,16.006z M20,9.299l-1,1V5.006h1V9.299z"/>
		<path d="M3,23.506c0,0.275,0.224,0.5,0.5,0.5h3c0.276,0,0.5-0.225,0.5-0.5v-1H3V23.506z"/>
		<path d="M16,23.506c0,0.275,0.225,0.5,0.5,0.5h3c0.275,0,0.5-0.225,0.5-0.5v-1h-4V23.506z"/>
		<path d="M20,18.006H3c-1.103,0-2,0.785-2,1.75c0,0.965,0.897,1.75,2,1.75h17c1.103,0,2-0.785,2-1.75
			C22,18.791,21.103,18.006,20,18.006z"/>
	</g>
</g>
<g id="Outline_Icons">
	<g>
		<path fill="none" stroke="#000000" stroke-linecap="round" stroke-linejoin="round" stroke-miterlimit="10" d="M4.5,11.5V4.034
			C4.5,2.102,6.067,0.5,8,0.5h7c1.934,0,3.5,1.602,3.5,3.534V11.5"/>
		
			<rect x="3.5" y="21.5" fill="none" stroke="#000000" stroke-linecap="round" stroke-linejoin="round" stroke-miterlimit="10" width="3" height="2"/>
		
			<rect x="16.5" y="21.5" fill="none" stroke="#000000" stroke-linecap="round" stroke-linejoin="round" stroke-miterlimit="10" width="3" height="2"/>
		
			<rect x="0.5" y="4.5" fill="none" stroke="#000000" stroke-linecap="round" stroke-linejoin="round" stroke-miterlimit="10" width="2" height="5"/>
		
			<rect x="20.5" y="4.5" fill="none" stroke="#000000" stroke-linecap="round" stroke-linejoin="round" stroke-miterlimit="10" width="2" height="5"/>
		<path fill="none" stroke="#000000" stroke-linecap="round" stroke-linejoin="round" stroke-miterlimit="10" d="M1.5,20
			c0,0.828,0.671,1.5,1.5,1.5h17c0.828,0,1.5-0.672,1.5-1.5c0-0.828-0.672-1.5-1.5-1.5H3C2.171,18.5,1.5,19.172,1.5,20z"/>
		
			<line fill="none" stroke="#000000" stroke-linecap="round" stroke-linejoin="round" stroke-miterlimit="10" x1="20.437" y1="4.5" x2="2.5" y2="4.5"/>
		
			<circle fill="none" stroke="#000000" stroke-linecap="round" stroke-linejoin="round" stroke-miterlimit="10" cx="17.5" cy="15" r="1"/>
		
			<circle fill="none" stroke="#000000" stroke-linecap="round" stroke-linejoin="round" stroke-miterlimit="10" cx="5.5" cy="15" r="1"/>
		
			<line fill="none" stroke="#000000" stroke-linecap="round" stroke-linejoin="round" stroke-miterlimit="10" x1="11.5" y1="4.5" x2="11.5" y2="11.5"/>
		
			<line fill="none" stroke="#000000" stroke-linecap="round" stroke-linejoin="round" stroke-miterlimit="10" x1="9.5" y1="14.5" x2="13.516" y2="14.5"/>
		
			<line fill="none" stroke="#000000" stroke-linecap="round" stroke-linejoin="round" stroke-miterlimit="10" x1="9.5" y1="16.5" x2="13.516" y2="16.5"/>
		<path fill="none" stroke="#000000" stroke-linecap="round" stroke-linejoin="round" stroke-miterlimit="10" d="M2.5,13.5
			c0-1.104,0.896-2,2-2h14c1.103,0,2,0.896,2,2v5h-18V13.5z"/>
		<g>
			<path d="M15.5,2C15.225,2,15,2.224,15,2.5C15,2.776,15.225,3,15.5,3C15.775,3,16,2.776,16,2.5C16,2.224,15.775,2,15.5,2L15.5,2z"
				/>
		</g>
		<g>
			<path d="M7.5,2C7.224,2,7,2.224,7,2.5C7,2.776,7.224,3,7.5,3C7.776,3,8,2.776,8,2.5C8,2.224,7.776,2,7.5,2L7.5,2z"/>
		</g>
		
			<line fill="none" stroke="#000000" stroke-linecap="round" stroke-linejoin="round" stroke-miterlimit="10" x1="20.5" y1="9.5" x2="18.5" y2="11.5"/>
		
			<line fill="none" stroke="#000000" stroke-linecap="round" stroke-linejoin="round" stroke-miterlimit="10" x1="2.5" y1="9.5" x2="4.5" y2="11.5"/>
	</g>
</g>
</svg>
