<?xml version="1.0" encoding="utf-8"?>
<!-- Generator: Adobe Illustrator 19.2.0, SVG Export Plug-In . SVG Version: 6.00 Build 0)  -->
<svg version="1.1" id="Layer_1" xmlns="http://www.w3.org/2000/svg" xmlns:xlink="http://www.w3.org/1999/xlink" x="0px" y="0px"
	 viewBox="0 0 24 24" enable-background="new 0 0 24 24" xml:space="preserve">
<g id="Filled_Icons" display="none">
	<g display="inline">
		<g>
			<path d="M5.5,16.006c-1.378,0-2.5,1.122-2.5,2.5c0,1.379,1.122,2.5,2.5,2.5c1.378,0,2.5-1.121,2.5-2.5
				C8,17.128,6.878,16.006,5.5,16.006z"/>
			<path d="M16.5,16.006c-1.378,0-2.5,1.122-2.5,2.5c0,1.379,1.122,2.5,2.5,2.5c1.378,0,2.5-1.121,2.5-2.5
				C19,17.128,17.878,16.006,16.5,16.006z"/>
		</g>
		<g>
			<path d="M24,5.006c0-0.827-0.673-1.5-1.5-1.5h-15c-0.827,0-1.5,0.673-1.5,1.5v6.5H2.5c-0.827,0-1.5,0.673-1.5,1.5h23V5.006z
				 M10,10.006c0,0.276-0.224,0.5-0.5,0.5h-1c-0.276,0-0.5-0.224-0.5-0.5v-2c0-0.276,0.224-0.5,0.5-0.5h1c0.276,0,0.5,0.224,0.5,0.5
				V10.006z M9.5,6.506h-1c-0.276,0-0.5-0.224-0.5-0.5c0-0.276,0.224-0.5,0.5-0.5h1c0.276,0,0.5,0.224,0.5,0.5
				C10,6.282,9.776,6.506,9.5,6.506z M13,10.006c0,0.276-0.225,0.5-0.5,0.5h-1c-0.276,0-0.5-0.224-0.5-0.5v-2
				c0-0.276,0.224-0.5,0.5-0.5h1c0.275,0,0.5,0.224,0.5,0.5V10.006z M16,10.006c0,0.276-0.225,0.5-0.5,0.5h-1
				c-0.275,0-0.5-0.224-0.5-0.5v-2c0-0.276,0.225-0.5,0.5-0.5h1c0.275,0,0.5,0.224,0.5,0.5V10.006z M19,10.006
				c0,0.276-0.225,0.5-0.5,0.5h-1c-0.275,0-0.5-0.224-0.5-0.5v-2c0-0.276,0.225-0.5,0.5-0.5h1c0.275,0,0.5,0.224,0.5,0.5V10.006z
				 M19,6.006c0-0.276,0.225-0.5,0.5-0.5h1c0.275,0,0.5,0.224,0.5,0.5c0,0.276-0.225,0.5-0.5,0.5h-1C19.225,6.506,19,6.282,19,6.006
				z M22,10.006c0,0.276-0.225,0.5-0.5,0.5h-1c-0.275,0-0.5-0.224-0.5-0.5v-2c0-0.276,0.225-0.5,0.5-0.5h1
				c0.275,0,0.5,0.224,0.5,0.5V10.006z"/>
			<path d="M1,14.006v3.5H0.5c-0.276,0-0.5,0.225-0.5,0.5c0,0.275,0.224,0.5,0.5,0.5H2c0-1.93,1.57-3.5,3.5-3.5
				c1.93,0,3.5,1.57,3.5,3.5h4c0-1.93,1.57-3.5,3.5-3.5c1.93,0,3.5,1.57,3.5,3.5h2.5c0.4,0,0.777-0.156,1.06-0.439
				C23.84,17.788,24,17.4,24,17.006v-3H1z"/>
		</g>
	</g>
</g>
<g id="Outline_Icons">
	<g>
		
			<circle fill="none" stroke="#000000" stroke-linecap="round" stroke-linejoin="round" stroke-miterlimit="10" cx="5.5" cy="18.5" r="2"/>
		
			<circle fill="none" stroke="#000000" stroke-linecap="round" stroke-linejoin="round" stroke-miterlimit="10" cx="16.5" cy="18.5" r="2"/>
		
			<line fill="none" stroke="#000000" stroke-linecap="round" stroke-linejoin="round" stroke-miterlimit="10" x1="7.5" y1="18.5" x2="14.5" y2="18.5"/>
		
			<line fill="none" stroke="#000000" stroke-linecap="round" stroke-linejoin="round" stroke-miterlimit="10" x1="0.5" y1="18.5" x2="3.5" y2="18.5"/>
		<path fill="none" stroke="#000000" stroke-linecap="round" stroke-linejoin="round" stroke-miterlimit="10" d="M18.5,18.5h4
			c0.266,0,0.519-0.105,0.708-0.293C23.396,18.02,23.5,17.766,23.5,17.5v-12c0-0.553-0.447-1-1-1h-15c-0.552,0-1,0.447-1,1v7h-4
			c-0.552,0-1,0.447-1,1v5"/>
		<polyline fill="none" stroke="#000000" stroke-linecap="round" stroke-linejoin="round" stroke-miterlimit="10" points="8.5,10.5 
			8.5,8.5 9.5,8.5 		"/>
		<polyline fill="none" stroke="#000000" stroke-linecap="round" stroke-linejoin="round" stroke-miterlimit="10" points="
			11.5,10.5 11.5,8.5 12.5,8.5 		"/>
		<polyline fill="none" stroke="#000000" stroke-linecap="round" stroke-linejoin="round" stroke-miterlimit="10" points="
			14.5,10.5 14.5,8.5 15.5,8.5 		"/>
		<polyline fill="none" stroke="#000000" stroke-linecap="round" stroke-linejoin="round" stroke-miterlimit="10" points="
			17.5,10.5 17.5,8.5 18.5,8.5 		"/>
		<polyline fill="none" stroke="#000000" stroke-linecap="round" stroke-linejoin="round" stroke-miterlimit="10" points="
			20.5,10.5 20.5,8.5 21.5,8.5 		"/>
		<line fill="none" stroke="#000000" stroke-linejoin="round" stroke-miterlimit="10" x1="8" y1="6.5" x2="10" y2="6.5"/>
		<line fill="none" stroke="#000000" stroke-linejoin="round" stroke-miterlimit="10" x1="19" y1="6.5" x2="21" y2="6.5"/>
		
			<line fill="none" stroke="#000000" stroke-linecap="round" stroke-linejoin="round" stroke-miterlimit="10" x1="1.5" y1="14.5" x2="23.5" y2="14.5"/>
	</g>
</g>
</svg>
