<?xml version="1.0" encoding="utf-8"?>
<!-- Generator: Adobe Illustrator 19.2.0, SVG Export Plug-In . SVG Version: 6.00 Build 0)  -->
<svg version="1.1" id="Layer_1" xmlns="http://www.w3.org/2000/svg" xmlns:xlink="http://www.w3.org/1999/xlink" x="0px" y="0px"
	 viewBox="0 0 24 24" enable-background="new 0 0 24 24" xml:space="preserve">
<g id="Filled_Icons" display="none">
	<path display="inline" d="M23.5,7.006h-2H20v-0.5v-2.5c0-2.206-1.795-4-4-4H8c-2.206,0-4,1.794-4,4v2.5v0.5H2.5h-2
		c-0.276,0-0.5,0.224-0.5,0.5v7c0,0.275,0.224,0.5,0.5,0.5h2c0.276,0,0.5-0.225,0.5-0.5v-6.5h1v7.5v6c0,0.65,0.419,1.201,1,1.407
		v0.593c0,0.275,0.224,0.5,0.5,0.5h2c0.276,0,0.5-0.225,0.5-0.5v-0.5h8v0.5c0,0.275,0.225,0.5,0.5,0.5h2c0.275,0,0.5-0.225,0.5-0.5
		v-0.593c0.58-0.206,1-0.757,1-1.407v-6v-7.5h1v6.5c0,0.275,0.225,0.5,0.5,0.5h2c0.275,0,0.5-0.225,0.5-0.5v-7
		C24,7.229,23.775,7.006,23.5,7.006z M8.5,2.506c0-0.276,0.224-0.5,0.5-0.5h6c0.275,0,0.5,0.224,0.5,0.5v2
		c0,0.276-0.225,0.5-0.5,0.5H9c-0.276,0-0.5-0.224-0.5-0.5V2.506z M9.5,20.006h-3c-0.276,0-0.5-0.225-0.5-0.5
		c0-0.275,0.224-0.5,0.5-0.5h3c0.276,0,0.5,0.225,0.5,0.5C10,19.781,9.776,20.006,9.5,20.006z M17.5,20.006h-3
		c-0.275,0-0.5-0.225-0.5-0.5c0-0.275,0.225-0.5,0.5-0.5h3c0.275,0,0.5,0.225,0.5,0.5C18,19.781,17.775,20.006,17.5,20.006z
		 M19,15.006H5v-8h14V15.006z"/>
</g>
<g id="Outline_Icons">
	<g>
		<path fill="none" stroke="#000000" stroke-linecap="round" stroke-linejoin="round" stroke-miterlimit="10" d="M19.5,21.5
			c0,0.553-0.447,1-1,1h-13c-0.553,0-1-0.447-1-1V4c0-1.934,1.566-3.5,3.5-3.5h8c1.934,0,3.5,1.566,3.5,3.5V21.5z"/>
		
			<rect x="5.5" y="22.5" fill="none" stroke="#000000" stroke-linecap="round" stroke-linejoin="round" stroke-miterlimit="10" width="2" height="1"/>
		
			<rect x="16.5" y="22.5" fill="none" stroke="#000000" stroke-linecap="round" stroke-linejoin="round" stroke-miterlimit="10" width="2" height="1"/>
		
			<rect x="4.5" y="6.5" fill="none" stroke="#000000" stroke-linecap="round" stroke-linejoin="round" stroke-miterlimit="10" width="15" height="9"/>
		
			<rect x="9.5" y="2.5" fill="none" stroke="#000000" stroke-linecap="round" stroke-linejoin="round" stroke-miterlimit="10" width="5" height="2"/>
		
			<line fill="none" stroke="#000000" stroke-linecap="round" stroke-linejoin="round" stroke-miterlimit="10" x1="6.5" y1="19.5" x2="9.5" y2="19.5"/>
		
			<line fill="none" stroke="#000000" stroke-linecap="round" stroke-linejoin="round" stroke-miterlimit="10" x1="14.5" y1="19.5" x2="17.5" y2="19.5"/>
		
			<rect x="0.5" y="7.5" fill="none" stroke="#000000" stroke-linecap="round" stroke-linejoin="round" stroke-miterlimit="10" width="2" height="7"/>
		
			<rect x="21.5" y="7.5" fill="none" stroke="#000000" stroke-linecap="round" stroke-linejoin="round" stroke-miterlimit="10" width="2" height="7"/>
		
			<line fill="none" stroke="#000000" stroke-linecap="round" stroke-linejoin="round" stroke-miterlimit="10" x1="2.5" y1="7.5" x2="4.5" y2="7.5"/>
		
			<line fill="none" stroke="#000000" stroke-linecap="round" stroke-linejoin="round" stroke-miterlimit="10" x1="19.5" y1="7.5" x2="21.5" y2="7.5"/>
	</g>
</g>
</svg>
