<?xml version="1.0" encoding="utf-8"?>
<!-- Generator: Adobe Illustrator 19.2.0, SVG Export Plug-In . SVG Version: 6.00 Build 0)  -->
<svg version="1.1" id="Layer_1" xmlns="http://www.w3.org/2000/svg" xmlns:xlink="http://www.w3.org/1999/xlink" x="0px" y="0px"
	 viewBox="0 0 24 24" enable-background="new 0 0 24 24" xml:space="preserve">
<g id="Filled_Icons" display="none">
	<path display="inline" d="M3.784,18.596c0.604-0.769,1.938-0.695,2.455,0.135c0.028,0.045,0.895,1.351,2.342,1.351
		c1.525,0,2.313-1.292,2.321-1.306c0.268-0.465,0.763-0.752,1.299-0.752c0.518,0,1.002,0.269,1.275,0.707
		c0.029,0.045,0.896,1.351,2.344,1.351c1.525,0,2.313-1.292,2.32-1.306c0.269-0.465,0.764-0.752,1.301-0.752
		c0.519,0,1.002,0.269,1.276,0.709c0.003,0.002,0.675,0.968,1.634,1.25c0.551-1.078,0.946-2.219,1.142-3.375
		c0.024-0.145-0.017-0.293-0.111-0.405c-0.096-0.112-0.234-0.179-0.382-0.179l-7.661,0.004l5.375-3.036
		c0.126-0.071,0.217-0.195,0.244-0.339c0.027-0.142-0.007-0.29-0.098-0.404l-6.969-8.906c-0.131-0.169-0.354-0.235-0.557-0.165
		C13.135,3.245,13,3.436,13,3.648v12.379l-1,0.002V0.648c0-0.21-0.131-0.397-0.329-0.47c-0.199-0.071-0.42-0.012-0.555,0.149
		L1.147,12.233c-0.103,0.124-0.141,0.289-0.101,0.445c0.039,0.155,0.151,0.282,0.301,0.342l7.623,3.01l-7.969,0.005
		c-0.147,0-0.287,0.065-0.382,0.178c-0.096,0.112-0.136,0.261-0.111,0.406c0.192,1.136,0.605,2.303,1.171,3.405
		C2.798,19.723,3.773,18.607,3.784,18.596z"/>
	<path display="inline" d="M23.82,21.113c-0.116-0.094-0.27-0.131-0.418-0.102c-0.194,0.041-0.391,0.062-0.582,0.062
		c-1.791,0-2.94-1.799-2.952-1.815c-0.187-0.297-0.685-0.288-0.861,0.017c-0.01,0.018-1.065,1.806-3.188,1.806
		c-2.018,0-3.18-1.804-3.19-1.822c-0.188-0.296-0.686-0.288-0.86,0.017c-0.011,0.018-1.066,1.807-3.188,1.807
		c-2.019,0-3.18-1.805-3.191-1.822c-0.175-0.274-0.621-0.299-0.82-0.044c-0.016,0.021-1.521,1.9-3.392,1.9
		c-0.19,0-0.381-0.021-0.566-0.06c-0.148-0.031-0.301,0.006-0.418,0.1c-0.117,0.096-0.186,0.236-0.187,0.388L0,23.522
		c-0.001,0.133,0.052,0.26,0.146,0.354c0.094,0.095,0.222,0.146,0.354,0.146h23c0.275,0,0.499-0.223,0.5-0.498l0.005-2.021
		C24.005,21.354,23.937,21.21,23.82,21.113z"/>
</g>
<g id="Outline_Icons">
	<g>
		<path fill="none" stroke="#000000" stroke-linejoin="round" stroke-miterlimit="10" d="M23.5,23.518l0.005-2.021
			c-2.505,0.521-4.06-1.979-4.06-1.979h-0.004c0,0-1.185,2.058-3.621,2.058c-2.334,0-3.614-2.058-3.614-2.058h-0.003
			c0,0-1.186,2.058-3.621,2.058c-2.334,0-3.615-2.058-3.615-2.058H4.962c0,0-2.004,2.541-4.455,2.021L0.5,23.518H23.5z"/>
		<path fill="none" stroke="#000000" stroke-linejoin="round" stroke-miterlimit="10" d="M2.929,21.16
			c-0.914-1.323-1.648-2.979-1.928-4.633l22-0.01c-0.28,1.658-0.967,3.252-1.884,4.58"/>
		<polygon fill="none" stroke="#000000" stroke-linejoin="round" stroke-miterlimit="10" points="11.5,16.486 1.531,12.549 
			11.5,0.643 		"/>
		<polygon fill="none" stroke="#000000" stroke-linejoin="round" stroke-miterlimit="10" points="13.5,16.486 20.469,12.549 
			13.5,3.643 		"/>
	</g>
</g>
</svg>
