<?xml version="1.0" encoding="utf-8"?>
<!-- Generator: Adobe Illustrator 19.2.0, SVG Export Plug-In . SVG Version: 6.00 Build 0)  -->
<svg version="1.1" id="Layer_1" xmlns="http://www.w3.org/2000/svg" xmlns:xlink="http://www.w3.org/1999/xlink" x="0px" y="0px"
	 viewBox="0 0 24 24" style="enable-background:new 0 0 24 24;" xml:space="preserve">
<style type="text/css">
	.st0{display:none;}
	.st1{display:inline;}
	.st2{fill:none;stroke:#000000;stroke-linejoin:round;stroke-miterlimit:10;}
</style>
<g id="Filled_Icons" class="st0">
	<g class="st1">
		<g>
			<g>
				<path d="M6.5,0c-2.2,0-4,1.8-4,4c0,2.2,1.8,4,4,4c2.2,0,4-1.8,4-4C10.5,1.8,8.7,0,6.5,0z"/>
				<path d="M7.5,9L8,15.7l-1.5,1.5L5,15.7L5.5,9h-5v0.5c0,3.6,1.3,6.4,3.5,7.8V24h5v-6.7c2.2-1.4,3.5-4.2,3.5-7.8V9H7.5z"/>
			</g>
		</g>
		<path d="M22,5.5C22,3.6,20.5,2,18.5,2C16.6,2,15,3.6,15,5.5c0,1.4,0.8,2.6,2,3.1v1.9c0,0.3,0.2,0.5,0.5,0.5h2
			c0.3,0,0.5-0.2,0.5-0.5V8.6C21.2,8.1,22,6.9,22,5.5z M18.5,8C17.1,8,16,6.9,16,5.5C16,4.1,17.1,3,18.5,3C19.9,3,21,4.1,21,5.5
			C21,6.9,19.9,8,18.5,8z"/>
		<g>
			<rect x="18" width="1" height="1"/>
		</g>
		<g>
			<rect x="21.5" y="1.4" transform="matrix(0.7069 -0.7074 0.7074 0.7069 5.0826 16.1623)" width="1" height="1"/>
		</g>
		<g>
			<rect x="23" y="5" width="1" height="1"/>
		</g>
		<g>
			<rect x="21.5" y="8.5" transform="matrix(0.7079 -0.7064 0.7064 0.7079 6.763773e-02 18.2043)" width="1" height="1"/>
		</g>
		<g>
			<rect x="14.5" y="8.5" transform="matrix(0.7071 -0.7071 0.7071 0.7071 -1.994 13.2281)" width="1" height="1"/>
		</g>
		<g>
			<rect x="13" y="5" width="1" height="1"/>
		</g>
		<g>
			<rect x="14.5" y="1.4" transform="matrix(0.7071 -0.7071 0.7071 0.7071 3.0065 11.1568)" width="1" height="1"/>
		</g>
	</g>
</g>
<g id="Outline_Icons">
	<g>
		<circle class="st2" cx="6.5" cy="4" r="3.5"/>
		<path class="st2" d="M12,9.5H1c0,4.1,1.6,6.4,3.5,7.5v6.5h4V17C10.4,15.9,12,13.6,12,9.5z"/>
		<g>
			<polygon class="st2" points="7,9.5 6,9.5 5.5,15.5 6.5,16.5 7.5,15.5 			"/>
		</g>
		<polyline class="st2" points="19.5,8.3 19.5,10.5 17.5,10.5 17.5,8.3 		"/>
		<circle class="st2" cx="18.5" cy="5.5" r="3"/>
		<line class="st2" x1="18.5" y1="0" x2="18.5" y2="1"/>
		<line class="st2" x1="22.4" y1="1.6" x2="21.7" y2="2.3"/>
		<line class="st2" x1="24" y1="5.5" x2="23" y2="5.5"/>
		<line class="st2" x1="22.4" y1="9.4" x2="21.7" y2="8.7"/>
		<line class="st2" x1="14.6" y1="9.4" x2="15.3" y2="8.7"/>
		<line class="st2" x1="13" y1="5.5" x2="14" y2="5.5"/>
		<line class="st2" x1="14.6" y1="1.6" x2="15.3" y2="2.3"/>
	</g>
</g>
</svg>
