<?xml version="1.0" encoding="utf-8"?>
<!-- Generator: Adobe Illustrator 19.2.0, SVG Export Plug-In . SVG Version: 6.00 Build 0)  -->
<svg version="1.1" id="Layer_1" xmlns="http://www.w3.org/2000/svg" xmlns:xlink="http://www.w3.org/1999/xlink" x="0px" y="0px"
	 viewBox="0 0 24 24" style="enable-background:new 0 0 24 24;" xml:space="preserve">
<style type="text/css">
	.st0{display:none;}
	.st1{display:inline;}
	.st2{fill:none;stroke:#000000;stroke-linejoin:round;stroke-miterlimit:10;}
	.st3{fill:none;stroke:#000000;stroke-linecap:round;stroke-linejoin:round;stroke-miterlimit:10;}
</style>
<g id="Filled_Icons" class="st0">
	<g class="st1">
		<g>
			<path d="M6.5,0c-2.2,0-4,1.8-4,4c0,2.2,1.8,4,4,4c2.2,0,4-1.8,4-4C10.5,1.8,8.7,0,6.5,0z"/>
			<path d="M7.5,9L8,15.7l-1.5,1.5L5,15.7L5.6,9h-5v0.5c0,3.6,1.3,6.4,3.5,7.8V24h5v-6.7c2.2-1.4,3.5-4.2,3.5-7.8V9H7.5z"/>
		</g>
		<path d="M10.5,1c0.6,0.8,1,1.9,1,3c0,1.6-0.8,3.1-2,4h4v1.5c0,2.6-0.6,4.8-1.8,6.5H24V1H10.5z M22,13.5c0,0.3-0.2,0.5-0.5,0.5
			c0,0,0,0,0,0c0,0,0,0,0,0h-6c-0.3,0-0.5-0.2-0.5-0.5c0-0.3,0.2-0.5,0.5-0.5H17V9.5C17,9.2,17.2,9,17.5,9C17.8,9,18,9.2,18,9.5V13
			h1V7.5C19,7.2,19.2,7,19.5,7C19.8,7,20,7.2,20,7.5V13h1V4.5C21,4.2,21.2,4,21.5,4C21.8,4,22,4.2,22,4.5V13.5z"/>
	</g>
</g>
<g id="Outline_Icons">
	<g>
		<circle class="st2" cx="6.5" cy="4" r="3.5"/>
		<path class="st2" d="M12,9.5H1c0,4.1,1.6,6.4,3.5,7.5v6.5h4V17C10.4,15.9,12,13.6,12,9.5z"/>
		<g>
			<polygon class="st2" points="7,9.5 6,9.5 5.5,15.5 6.5,16.5 7.5,15.5 			"/>
		</g>
		<polyline class="st3" points="14,15.5 23.5,15.5 23.5,1.5 13,1.5 		"/>
		<line class="st3" x1="14.5" y1="13.5" x2="20.5" y2="13.5"/>
		<line class="st3" x1="16.5" y1="13.5" x2="16.5" y2="9.5"/>
		<line class="st3" x1="18.5" y1="13.5" x2="18.5" y2="7.5"/>
		<line class="st3" x1="20.5" y1="13.5" x2="20.5" y2="4.5"/>
	</g>
</g>
</svg>
