<?xml version="1.0" encoding="utf-8"?>
<!-- Generator: Adobe Illustrator 19.2.0, SVG Export Plug-In . SVG Version: 6.00 Build 0)  -->
<svg version="1.1" id="Layer_1" xmlns="http://www.w3.org/2000/svg" xmlns:xlink="http://www.w3.org/1999/xlink" x="0px" y="0px"
	 viewBox="0 0 24 24" style="enable-background:new 0 0 24 24;" xml:space="preserve">
<style type="text/css">
	.st0{display:none;}
	.st1{display:inline;}
	.st2{fill:none;stroke:#000000;stroke-linejoin:round;stroke-miterlimit:10;}
</style>
<g id="Filled_Icons" class="st0">
	<g class="st1">
		<g>
			<g>
				<path d="M6.5,0c-2.2,0-4,1.8-4,4c0,2.2,1.8,4,4,4c2.2,0,4-1.8,4-4C10.5,1.8,8.7,0,6.5,0z"/>
				<path d="M7.5,9L8,15.7l-1.5,1.5L5,15.7L5.5,9h-5v0.5c0,3.6,1.3,6.4,3.5,7.8V24h5v-6.7c2.2-1.4,3.5-4.2,3.5-7.8V9H7.5z"/>
			</g>
		</g>
		<path d="M23.8,19L23,18.6c0-0.2,0-0.4,0-0.6c0-0.2,0-0.4,0-0.6l0.8-0.5c0.2-0.1,0.3-0.4,0.2-0.7l-1.5-2.6
			c-0.1-0.1-0.2-0.2-0.3-0.2c-0.1,0-0.3,0-0.4,0.1L21,14c-0.3-0.2-0.6-0.4-1-0.6v-0.9c0-0.3-0.2-0.5-0.5-0.5h-3
			c-0.3,0-0.5,0.2-0.5,0.5v0.9c-0.3,0.1-0.6,0.3-1,0.6l-0.8-0.5c-0.2-0.1-0.5-0.1-0.7,0.2l-1.5,2.6C12,16.4,12,16.6,12,16.7
			c0,0.1,0.1,0.2,0.2,0.3l0.8,0.5c0,0.2,0,0.4,0,0.6c0,0.2,0,0.4,0,0.6L12.2,19c-0.1,0.1-0.2,0.2-0.2,0.3c0,0.1,0,0.3,0.1,0.4
			l1.5,2.6c0.1,0.2,0.4,0.3,0.7,0.2L15,22c0.3,0.2,0.7,0.4,1,0.6v0.9c0,0.3,0.2,0.5,0.5,0.5h3c0.3,0,0.5-0.2,0.5-0.5v-0.9
			c0.3-0.2,0.7-0.3,1-0.6l0.8,0.5c0.1,0.1,0.3,0.1,0.4,0.1c0.1,0,0.2-0.1,0.3-0.2l1.5-2.6C24.1,19.5,24,19.2,23.8,19z M18,20
			c-1.1,0-2-0.9-2-2c0-1.1,0.9-2,2-2c1.1,0,2,0.9,2,2C20,19.1,19.1,20,18,20z"/>
	</g>
</g>
<g id="Outline_Icons">
	<g>
		<circle class="st2" cx="6.5" cy="4" r="3.5"/>
		<path class="st2" d="M12,9.5H1c0,4.1,1.6,6.4,3.5,7.5v6.5h4V17C10.4,15.9,12,13.6,12,9.5z"/>
		<g>
			<polygon class="st2" points="7,9.5 6,9.5 5.5,15.5 6.5,16.5 7.5,15.5 			"/>
		</g>
		<g>
			<path class="st2" d="M16.5,13.8c-0.5,0.2-1,0.5-1.4,0.8L14,14l-1.5,2.6l1.1,0.6c0,0.3-0.1,0.5-0.1,0.8c0,0.3,0,0.6,0.1,0.8
				l-1.1,0.6L14,22l1.1-0.6c0.4,0.4,0.9,0.6,1.4,0.8v1.3h3v-1.3c0.5-0.2,1-0.5,1.4-0.8L22,22l1.5-2.6l-1.1-0.6
				c0-0.3,0.1-0.5,0.1-0.8c0-0.3,0-0.6-0.1-0.8l1.1-0.6L22,14l-1.1,0.6c-0.4-0.4-0.9-0.6-1.4-0.8v-1.3h-3V13.8z"/>
			<circle class="st2" cx="18" cy="18" r="2"/>
		</g>
	</g>
</g>
</svg>
