<?xml version="1.0" encoding="utf-8"?>
<!-- Generator: Adobe Illustrator 19.2.0, SVG Export Plug-In . SVG Version: 6.00 Build 0)  -->
<svg version="1.1" id="Outline_Icons" xmlns="http://www.w3.org/2000/svg" xmlns:xlink="http://www.w3.org/1999/xlink" x="0px"
	 y="0px" viewBox="0 0 24 24" style="enable-background:new 0 0 24 24;" xml:space="preserve">
<style type="text/css">
	.st0{fill:none;stroke:#000000;stroke-linecap:round;stroke-linejoin:round;stroke-miterlimit:10;}
</style>
<g>
	<path class="st0" d="M23.5,8.5c0-1.6-1.4-3-3-3h-17c-1.6,0-3,1.4-3,3v10c0,1.6,1.4,3,3,3h17c1.6,0,3-1.4,3-3V8.5z"/>
	<path class="st0" d="M8.5,5.5v-2c0-1.1,0.9-2,2-2h3c1.1,0,2,0.9,2,2v2"/>
	<path class="st0" d="M10.1,15.6c0,1.1,0.9,1.9,1.9,1.9s1.9-0.9,1.9-1.9c0-1-0.9-1.9-1.9-1.9s-1.9-0.9-1.9-1.9c0-1,0.9-1.9,1.9-1.9
		s1.9,0.9,1.9,1.9"/>
	<line class="st0" x1="12.5" y1="8.5" x2="11.5" y2="19"/>
</g>
</svg>
