<?xml version="1.0" encoding="utf-8"?>
<!-- Generator: Adobe Illustrator 19.2.0, SVG Export Plug-In . SVG Version: 6.00 Build 0)  -->
<svg version="1.1" id="Layer_1" xmlns="http://www.w3.org/2000/svg" xmlns:xlink="http://www.w3.org/1999/xlink" x="0px" y="0px"
	 viewBox="0 0 24 24" style="enable-background:new 0 0 24 24;" xml:space="preserve">
<style type="text/css">
	.st0{display:none;}
	.st1{display:inline;}
	.st2{fill:none;stroke:#000000;stroke-linecap:round;stroke-linejoin:round;stroke-miterlimit:10;}
	.st3{fill:none;stroke:#000000;stroke-linejoin:round;stroke-miterlimit:10;}
</style>
<g id="Filled_Icons" class="st0">
	<g class="st1">
		<polygon points="9.1,24 14.9,24 15.8,17 8.2,17 		"/>
		<path d="M7,14h10l0.1-0.2l0-0.1c0.5-1.3,0.8-2.8,0.8-4.2V9H6v0.5c0,1.4,0.3,2.9,0.8,4.2L7,14z M11.2,9.5h1.7l0.3,4h-2.3L11.2,9.5z
			"/>
		<path d="M21.5,15h-19C2.2,15,2,15.2,2,15.5C2,15.8,2.2,16,2.5,16h19c0.3,0,0.5-0.2,0.5-0.5C22,15.2,21.8,15,21.5,15z"/>
		<path d="M12,8c2.2,0,4-1.8,4-4c0-2.2-1.8-4-4-4C9.8,0,8,1.8,8,4C8,6.2,9.8,8,12,8z"/>
	</g>
</g>
<g id="Outline_Icons">
	<g>
		<path class="st2" d="M16.7,13.5c0.6-1.3,0.8-2.8,0.8-4h-11c0,1.2,0.2,2.7,0.8,4"/>
		<polygon class="st2" points="15.5,15.5 8.5,15.5 9.5,23.5 14.5,23.5 		"/>
		<line class="st2" x1="2.5" y1="15.5" x2="21.5" y2="15.5"/>
		<circle class="st3" cx="12" cy="4" r="3.5"/>
		<polygon class="st3" points="11.5,9.5 11.2,13.5 12.8,13.5 12.5,9.5 		"/>
	</g>
</g>
</svg>
