<?xml version="1.0" encoding="utf-8"?>
<!-- Generator: Adobe Illustrator 19.2.0, SVG Export Plug-In . SVG Version: 6.00 Build 0)  -->
<svg version="1.1" id="Layer_1" xmlns="http://www.w3.org/2000/svg" xmlns:xlink="http://www.w3.org/1999/xlink" x="0px" y="0px"
	 viewBox="0 0 24 24" style="enable-background:new 0 0 24 24;" xml:space="preserve">
<style type="text/css">
	.st0{display:none;}
	.st1{display:inline;}
	.st2{fill:none;stroke:#000000;stroke-linejoin:round;stroke-miterlimit:10;}
</style>
<g id="Filled_Icons" class="st0">
	<g class="st1">
		<path d="M10.5,8c2.2,0,4-1.8,4-4c0-2.2-1.8-4-4-4c-2.2,0-4,1.8-4,4C6.5,6.2,8.3,8,10.5,8z"/>
		<path d="M16.5,9h-5l0.6,6.7l-1.5,1.5L9,15.7L9.5,9h-5v0.5c0,3.6,1.3,6.4,3.5,7.8V24h5v-6.7c2.2-1.4,3.5-4.2,3.5-7.8V9z"/>
		<polygon points="18.5,16 18.5,15 17.5,15 17.5,16 16,16 16,24 20,24 20,16 		"/>
	</g>
</g>
<g id="Outline_Icons">
	<g>
		<circle class="st2" cx="10.5" cy="4" r="3.5"/>
		<path class="st2" d="M16,9.5H5c0,4.1,1.6,6.4,3.5,7.5v6.5h4V17C14.4,15.9,16,13.6,16,9.5z"/>
		<polygon class="st2" points="18,16.5 19.5,16.5 19.5,23.5 16.5,23.5 16.5,16.5 		"/>
		<line class="st2" x1="18" y1="16.5" x2="18" y2="15"/>
		<g>
			<polygon class="st2" points="11,9.5 10,9.5 9.5,15.5 10.5,16.5 11.5,15.5 			"/>
		</g>
	</g>
</g>
</svg>
