<?xml version="1.0" encoding="utf-8"?>
<!-- Generator: Adobe Illustrator 19.2.0, SVG Export Plug-In . SVG Version: 6.00 Build 0)  -->
<svg version="1.1" id="Layer_1" xmlns="http://www.w3.org/2000/svg" xmlns:xlink="http://www.w3.org/1999/xlink" x="0px" y="0px"
	 viewBox="0 0 24 24" style="enable-background:new 0 0 24 24;" xml:space="preserve">
<style type="text/css">
	.st0{display:none;}
	.st1{display:inline;}
	.st2{fill:none;stroke:#000000;stroke-linejoin:round;stroke-miterlimit:10;}
	.st3{fill:none;stroke:#000000;stroke-linecap:round;stroke-linejoin:round;stroke-miterlimit:10;}
</style>
<g id="Filled_Icons" class="st0">
	<g class="st1">
		<g>
			<g>
				<path d="M6.5,0c-2.2,0-4,1.8-4,4c0,2.2,1.8,4,4,4c2.2,0,4-1.8,4-4C10.5,1.8,8.7,0,6.5,0z"/>
				<path d="M7.5,9L8,15.7l-1.5,1.5L5,15.7L5.5,9h-5v0.5c0,3.6,1.3,6.4,3.5,7.8V24h5v-6.7c2.2-1.4,3.5-4.2,3.5-7.8V9H7.5z"/>
			</g>
		</g>
		<path d="M18,12c-3.3,0-6,2.7-6,6c0,3.3,2.7,6,6,6c3.3,0,6-2.7,6-6C24,14.7,21.3,12,18,12z M18,21.4c-0.3,0-0.5-0.2-0.5-0.5
			c0-0.3,0.2-0.5,0.5-0.5c0.3,0,0.5,0.2,0.5,0.5C18.5,21.1,18.3,21.4,18,21.4z M18.5,18.3v1.2c0,0.3-0.2,0.5-0.5,0.5
			c-0.3,0-0.5-0.2-0.5-0.5v-1.6c0-0.3,0.2-0.5,0.5-0.5c0.6,0,1.1-0.5,1.1-1.1c0-0.6-0.5-1.1-1.1-1.1c-0.6,0-1.1,0.5-1.1,1.1
			c0,0.3-0.2,0.5-0.5,0.5c-0.3,0-0.5-0.2-0.5-0.5c0-1.2,1-2.1,2.1-2.1c1.2,0,2.1,0.9,2.1,2.1C20.1,17.3,19.4,18.1,18.5,18.3z"/>
	</g>
</g>
<g id="Outline_Icons">
	<g>
		<circle class="st2" cx="6.5" cy="4" r="3.5"/>
		<path class="st2" d="M12,9.5H1c0,4.1,1.6,6.4,3.5,7.5v6.5h4V17C10.4,15.9,12,13.6,12,9.5z"/>
		<g>
			<polygon class="st2" points="7,9.5 6,9.5 5.5,15.5 6.5,16.5 7.5,15.5 			"/>
		</g>
		<circle class="st3" cx="18" cy="18" r="5.5"/>
		<g>
			<g>
				<g>
					<path d="M17.7,20.6c-0.3,0-0.5,0.2-0.5,0.5c0,0.3,0.2,0.5,0.5,0.5c0.3,0,0.5-0.2,0.5-0.5C18.2,20.9,18,20.6,17.7,20.6
						L17.7,20.6z"/>
				</g>
			</g>
		</g>
		<path class="st3" d="M16.1,16.6c0-0.9,0.7-1.6,1.6-1.6c0.9,0,1.6,0.7,1.6,1.6c0,0.9-0.7,1.6-1.6,1.6v1.6"/>
	</g>
</g>
</svg>
