<?xml version="1.0" encoding="utf-8"?>
<!-- Generator: Adobe Illustrator 19.2.0, SVG Export Plug-In . SVG Version: 6.00 Build 0)  -->
<svg version="1.1" id="Layer_1" xmlns="http://www.w3.org/2000/svg" xmlns:xlink="http://www.w3.org/1999/xlink" x="0px" y="0px"
	 viewBox="0 0 24 24" style="enable-background:new 0 0 24 24;" xml:space="preserve">
<style type="text/css">
	.st0{display:none;}
	.st1{display:inline;}
	.st2{fill:none;stroke:#000000;stroke-linejoin:round;stroke-miterlimit:10;}
	.st3{fill:none;stroke:#000000;stroke-linecap:round;stroke-linejoin:round;stroke-miterlimit:10;}
</style>
<g id="Filled_Icons" class="st0">
	<g class="st1">
		<g>
			<g>
				<path d="M6.5,0c-2.2,0-4,1.8-4,4c0,2.2,1.8,4,4,4c2.2,0,4-1.8,4-4C10.5,1.8,8.7,0,6.5,0z"/>
				<path d="M7.5,9L8,15.7l-1.5,1.5L5,15.7L5.5,9h-5v0.5c0,3.6,1.3,6.4,3.5,7.8V24h5v-6.7c2.2-1.4,3.5-4.2,3.5-7.8V9H7.5z"/>
			</g>
		</g>
		<path d="M15.5,2c-1.5,0-2.9,0.4-4.1,1.1c0.1,0.3,0.1,0.6,0.1,0.9c0,1.6-0.8,3.1-2,4h4v1.5c0,3.4-1.1,6.1-3,7.9
			c1.4,1,3.1,1.6,5,1.6c4.7,0,8.5-3.8,8.5-8.5C24,5.8,20.2,2,15.5,2z M20.5,11H15V5c0-0.3,0.2-0.5,0.5-0.5C15.8,4.5,16,4.7,16,5v5
			h4.5c0.3,0,0.5,0.2,0.5,0.5C21,10.8,20.8,11,20.5,11z"/>
	</g>
</g>
<g id="Outline_Icons">
	<g>
		<circle class="st2" cx="6.5" cy="6" r="3.5"/>
		<path class="st2" d="M12,11.5H1c0,4.1,1.6,6.4,3.5,7.5v4.5h4V19C10.4,17.9,12,15.6,12,11.5z"/>
		<polygon class="st2" points="7,11.5 6,11.5 5.5,17.5 6.5,18.5 7.5,17.5 		"/>
		<polyline class="st3" points="14.5,5 14.5,10.5 19.5,10.5 		"/>
		<path class="st3" d="M11.1,1C12,0.7,13,0.5,14,0.5c5.2,0,9.5,4.2,9.5,9.5c0,5.2-4.2,9.5-9.5,9.5"/>
	</g>
</g>
</svg>
