<?xml version="1.0" encoding="utf-8"?>
<!-- Generator: Adobe Illustrator 19.2.0, SVG Export Plug-In . SVG Version: 6.00 Build 0)  -->
<svg version="1.1" id="Layer_1" xmlns="http://www.w3.org/2000/svg" xmlns:xlink="http://www.w3.org/1999/xlink" x="0px" y="0px"
	 viewBox="0 0 24 24" style="enable-background:new 0 0 24 24;" xml:space="preserve">
<style type="text/css">
	.st0{display:none;}
	.st1{display:inline;}
	.st2{fill:none;stroke:#000000;stroke-linejoin:round;stroke-miterlimit:10;}
</style>
<g id="Filled_Icons" class="st0">
	<g class="st1">
		<g>
			<g>
				<path d="M6.5,0c-2.2,0-4,1.8-4,4c0,2.2,1.8,4,4,4c2.2,0,4-1.8,4-4C10.5,1.8,8.7,0,6.5,0z"/>
				<path d="M7.5,9L8,15.7l-1.5,1.5L5,15.7L5.5,9h-5v0.5c0,3.6,1.3,6.4,3.5,7.8V24h5v-6.7c2.2-1.4,3.5-4.2,3.5-7.8V9H7.5z"/>
			</g>
		</g>
		<path d="M19.5,6h4C23.8,6,24,5.8,24,5.5v-4C24,1.2,23.8,1,23.5,1h-4C19.2,1,19,1.2,19,1.5V3h-2.5C16.2,3,16,3.2,16,3.5V12h-2
			c-0.3,0-0.5,0.2-0.5,0.5c0,0.3,0.2,0.5,0.5,0.5h2v7.5c0,0.3,0.2,0.5,0.5,0.5H19v1.5c0,0.3,0.2,0.5,0.5,0.5h4
			c0.3,0,0.5-0.2,0.5-0.5v-4c0-0.3-0.2-0.5-0.5-0.5h-4c-0.3,0-0.5,0.2-0.5,0.5V20h-2v-7h2v1.5c0,0.3,0.2,0.5,0.5,0.5h4
			c0.3,0,0.5-0.2,0.5-0.5v-4c0-0.3-0.2-0.5-0.5-0.5h-4c-0.3,0-0.5,0.2-0.5,0.5V12h-2V4h2v1.5C19,5.8,19.2,6,19.5,6z"/>
	</g>
</g>
<g id="Outline_Icons">
	<g>
		<circle class="st2" cx="6.5" cy="4" r="3.5"/>
		<path class="st2" d="M12,9.5H1c0,4.1,1.6,6.4,3.5,7.5v6.5h4V17C10.4,15.9,12,13.6,12,9.5z"/>
		<g>
			<polygon class="st2" points="7,9.5 6,9.5 5.5,15.5 6.5,16.5 7.5,15.5 			"/>
		</g>
		<line class="st2" x1="14" y1="12.5" x2="19.5" y2="12.5"/>
		<polyline class="st2" points="19.5,3.5 16.5,3.5 16.5,20.5 19.5,20.5 		"/>
		<rect x="19.5" y="1.5" class="st2" width="4" height="4"/>
		<rect x="19.5" y="10.5" class="st2" width="4" height="4"/>
		<rect x="19.5" y="18.5" class="st2" width="4" height="4"/>
	</g>
</g>
</svg>
