<?xml version="1.0" encoding="utf-8"?>
<!-- Generator: Adobe Illustrator 19.2.0, SVG Export Plug-In . SVG Version: 6.00 Build 0)  -->
<svg version="1.1" id="Layer_1" xmlns="http://www.w3.org/2000/svg" xmlns:xlink="http://www.w3.org/1999/xlink" x="0px" y="0px"
	 viewBox="0 0 24 24" style="enable-background:new 0 0 24 24;" xml:space="preserve">
<style type="text/css">
	.st0{display:none;}
	.st1{display:inline;}
	.st2{fill:none;stroke:#000000;stroke-linejoin:round;stroke-miterlimit:10;}
</style>
<g id="Filled_Icons" class="st0">
	<g class="st1">
		<circle cx="12" cy="3" r="3"/>
		<path d="M17.6,7.5l-3.5-1c-0.2-0.1-0.5,0-0.6,0.3L12,9.9l-1.6-3.1c-0.1-0.2-0.4-0.3-0.6-0.3l-3.5,1C6.1,7.6,6,7.8,6,8v7.5
			C6,15.8,6.2,16,6.5,16H8l1,7.6C9,23.8,9.2,24,9.5,24h5c0.3,0,0.5-0.2,0.5-0.4l1-7.6h1.5c0.3,0,0.5-0.2,0.5-0.5V8
			C18,7.8,17.9,7.6,17.6,7.5z"/>
	</g>
</g>
<g id="Outline_Icons">
	<g>
		<circle class="st2" cx="12" cy="3" r="2.5"/>
		<polygon class="st2" points="12,23.5 14.5,23.5 15.5,15.5 17.5,15.5 17.5,8 14,7 12,11 10,7 6.5,8 6.5,15.5 8.5,15.5 9.5,23.5 		
			"/>
	</g>
</g>
</svg>
