<?xml version="1.0" encoding="utf-8"?>
<!-- Generator: Adobe Illustrator 19.2.0, SVG Export Plug-In . SVG Version: 6.00 Build 0)  -->
<svg version="1.1" id="Layer_1" xmlns="http://www.w3.org/2000/svg" xmlns:xlink="http://www.w3.org/1999/xlink" x="0px" y="0px"
	 viewBox="0 0 24 24" style="enable-background:new 0 0 24 24;" xml:space="preserve">
<style type="text/css">
	.st0{display:none;}
	.st1{display:inline;}
	.st2{fill:none;stroke:#000000;stroke-linecap:round;stroke-linejoin:round;stroke-miterlimit:10;}
	.st3{fill:none;stroke:#000000;stroke-linejoin:round;stroke-miterlimit:10;}
</style>
<g id="Filled_Icon" class="st0">
	<g class="st1">
		<path d="M13.9,3.2l-2.1-2.6c-0.2-0.2-0.5-0.2-0.7-0.1C10.9,0.7,10.9,1,11,1.2L12.4,3h-3C9.2,3,9,3.2,9,3.5C9,3.8,9.2,4,9.5,4h3
			L11,5.8c-0.2,0.2-0.1,0.5,0.1,0.7c0.1,0.1,0.2,0.1,0.3,0.1c0.1,0,0.3-0.1,0.4-0.2l2.1-2.6c0,0,0,0,0,0C13.9,3.7,14,3.6,14,3.5
			C14,3.4,13.9,3.3,13.9,3.2C13.9,3.2,13.9,3.2,13.9,3.2z"/>
		<path d="M13.5,20h-3l1.4-1.8c0.2-0.2,0.1-0.5-0.1-0.7c-0.2-0.2-0.5-0.1-0.7,0.1l-2.1,2.6c0,0,0,0,0,0C9,20.3,9,20.4,9,20.5
			c0,0.1,0,0.2,0.1,0.3c0,0,0,0,0,0l2.1,2.6c0.1,0.1,0.2,0.2,0.4,0.2c0.1,0,0.2,0,0.3-0.1c0.2-0.2,0.2-0.5,0.1-0.7L10.5,21h3
			c0.3,0,0.5-0.2,0.5-0.5C14,20.2,13.8,20,13.5,20z"/>
		<path d="M12.1,14.2c-0.4,0-0.8-0.4-0.8-0.8c0-0.3-0.2-0.5-0.5-0.5c-0.3,0-0.5,0.2-0.5,0.5c0,0.8,0.5,1.5,1.2,1.7v0.6
			c0,0.3,0.2,0.5,0.5,0.5c0.3,0,0.5-0.2,0.5-0.5v-0.6c0.8-0.2,1.3-0.9,1.3-1.7c0-1-0.8-1.8-1.8-1.8c-0.4,0-0.8-0.4-0.8-0.8
			c0-0.4,0.4-0.8,0.8-0.8c0.4,0,0.8,0.4,0.8,0.8c0,0.3,0.2,0.5,0.5,0.5c0.3,0,0.5-0.2,0.5-0.5c0-0.8-0.6-1.5-1.3-1.7V8.5
			C12.5,8.2,12.3,8,12,8c-0.3,0-0.5,0.2-0.5,0.5v0.6c-0.7,0.2-1.2,0.9-1.2,1.7c0,1,0.8,1.8,1.8,1.8c0.4,0,0.8,0.4,0.8,0.8
			C12.9,13.8,12.5,14.2,12.1,14.2z"/>
		<circle cx="3" cy="8" r="3"/>
		<path d="M3,12c-1.7,0-3,1.3-3,3v7h6v-7C6,13.3,4.7,12,3,12z"/>
		<circle cx="21" cy="8" r="3"/>
		<path d="M21,12c-1.7,0-3,1.3-3,3v7h6v-7C24,13.3,22.7,12,21,12z"/>
	</g>
</g>
<g id="Outline_Icons">
	<g>
		<g>
			<polyline class="st2" points="11.4,0.9 13.5,3.5 11.4,6.1 			"/>
			<line class="st2" x1="9.5" y1="3.5" x2="13.5" y2="3.5"/>
		</g>
		<g>
			<polyline class="st2" points="11.5,17.9 9.5,20.5 11.5,23.1 			"/>
			<line class="st2" x1="13.5" y1="20.5" x2="9.5" y2="20.5"/>
		</g>
		<g>
			<path class="st2" d="M10.8,13.4c0,0.7,0.6,1.3,1.3,1.3c0.7,0,1.3-0.6,1.3-1.3c0-0.7-0.6-1.3-1.3-1.3c-0.7,0-1.3-0.6-1.3-1.3
				c0-0.7,0.6-1.3,1.3-1.3c0.7,0,1.3,0.6,1.3,1.3"/>
			<line class="st2" x1="12" y1="8.5" x2="12" y2="9.5"/>
			<line class="st2" x1="12" y1="14.7" x2="12" y2="15.7"/>
		</g>
		<circle class="st3" cx="3" cy="8" r="2.5"/>
		<path class="st3" d="M5.5,21.5h-5V15c0-1.4,1.1-2.5,2.5-2.5c1.4,0,2.5,1.1,2.5,2.5V21.5z"/>
		<circle class="st3" cx="21" cy="8" r="2.5"/>
		<path class="st3" d="M23.5,21.5h-5V15c0-1.4,1.1-2.5,2.5-2.5c1.4,0,2.5,1.1,2.5,2.5V21.5z"/>
	</g>
</g>
</svg>
