<?xml version="1.0" encoding="utf-8"?>
<!-- Generator: Adobe Illustrator 19.2.0, SVG Export Plug-In . SVG Version: 6.00 Build 0)  -->
<svg version="1.1" id="Layer_1" xmlns="http://www.w3.org/2000/svg" xmlns:xlink="http://www.w3.org/1999/xlink" x="0px" y="0px"
	 viewBox="0 0 24 24" style="enable-background:new 0 0 24 24;" xml:space="preserve">
<style type="text/css">
	.st0{display:none;}
	.st1{display:inline;}
	.st2{fill:none;stroke:#000000;stroke-linejoin:round;stroke-miterlimit:10;}
	.st3{fill:none;stroke:#000000;stroke-linecap:round;stroke-linejoin:round;stroke-miterlimit:10;}
</style>
<g id="Filled_Icons" class="st0">
	<g class="st1">
		<g>
			<g>
				<path d="M6.5,0c-2.2,0-4,1.8-4,4c0,2.2,1.8,4,4,4c2.2,0,4-1.8,4-4C10.5,1.8,8.7,0,6.5,0z"/>
				<path d="M7.5,9L8,15.7l-1.5,1.5L5,15.7L5.5,9h-5v0.5c0,3.6,1.3,6.4,3.5,7.8V24h5v-6.7c2.2-1.4,3.5-4.2,3.5-7.8V9H7.5z"/>
			</g>
		</g>
		<path d="M23.6,3.9c-0.1,0-5.9-1.6-7.8-3.5c-0.2-0.2-0.5-0.2-0.7,0c-0.8,0.8-2.3,1.6-3.8,2.2c0.1,0.4,0.2,0.9,0.2,1.4
			c0,1.6-0.8,3.1-2,4c3.1,0,1.6,0,4.5,0V5.5C14,5.2,14.2,5,14.5,5h2C16.8,5,17,5.2,17,5.5V8h2.5C19.8,8,20,8.2,20,8.5v2
			c0,0.3-0.2,0.5-0.5,0.5H17v2.5c0,0.3-0.2,0.5-0.5,0.5h-2c-0.3,0-0.5-0.2-0.5-0.5v-2V11h-0.6c-0.3,2.5-1.2,4.6-2.6,6.1
			c1.1,1,2.6,1.9,4.5,2.6c0.1,0,0.1,0,0.2,0h0c0.1,0,0.1,0,0.2,0c7.7-2.9,8.3-8.4,8.3-15.3C24,4.2,23.8,4,23.6,3.9z"/>
	</g>
</g>
<g id="Outline_Icons">
	<g>
		<circle class="st2" cx="6.5" cy="4" r="3.5"/>
		<path class="st2" d="M12,9.5H1c0,4.1,1.6,6.4,3.5,7.5v6.5h4V17C10.4,15.9,12,13.6,12,9.5z"/>
		<g>
			<polygon class="st2" points="7,9.5 6,9.5 5.5,15.5 6.5,16.5 7.5,15.5 			"/>
		</g>
		<path class="st3" d="M11.9,17.3c1,0.7,2.1,1.3,3.6,1.9c7.6-2.8,8-8.4,8-14.8c0,0-6-1.6-8-3.6h0c-0.7,0.7-1.8,1.3-3,1.8"/>
		<polyline class="st3" points="14.5,8.5 14.5,5.5 16.5,5.5 16.5,8.5 19.5,8.5 19.5,10.5 16.5,10.5 16.5,13.5 14.5,13.5 14.5,11 		
			"/>
	</g>
</g>
</svg>
