<?xml version="1.0" encoding="utf-8"?>
<!-- Generator: Adobe Illustrator 19.2.0, SVG Export Plug-In . SVG Version: 6.00 Build 0)  -->
<svg version="1.1" id="Layer_1" xmlns="http://www.w3.org/2000/svg" xmlns:xlink="http://www.w3.org/1999/xlink" x="0px" y="0px"
	 viewBox="0 0 24 24" style="enable-background:new 0 0 24 24;" xml:space="preserve">
<style type="text/css">
	.st0{display:none;}
	.st1{display:inline;}
	.st2{fill:none;stroke:#000000;stroke-linejoin:round;stroke-miterlimit:10;}
	.st3{fill:none;stroke:#000000;stroke-linecap:round;stroke-linejoin:round;stroke-miterlimit:10;}
</style>
<g id="Filled_Icon" class="st0">
	<path class="st1" d="M23.5,0h-23C0.2,0,0,0.2,0,0.5v23C0,23.8,0.2,24,0.5,24h23c0.3,0,0.5-0.2,0.5-0.5v-23C24,0.2,23.8,0,23.5,0z
		 M9,22.5C9,22.8,8.8,23,8.5,23h-7C1.2,23,1,22.8,1,22.5v-21C1,1.2,1.2,1,1.5,1H9v1H5v5H4V2H2v7h5V5h1v4.5C8,9.8,7.8,10,7.5,10H2v12
		h6v-1H4.5C4.2,21,4,20.8,4,20.5V12h1v8h3.5C8.8,20,9,20.2,9,20.5V22.5z M12,23h-1v-4H7.5C7.2,19,7,18.8,7,18.5v-6
		C7,12.2,7.2,12,7.5,12H10V7.5C10,7.2,10.2,7,10.5,7H13V2.7l-1.1,1.1c-0.2,0.2-0.5,0.2-0.7,0c-0.2-0.2-0.2-0.5,0-0.7l2-2
		c0.2-0.2,0.5-0.2,0.7,0l2,2c0.2,0.2,0.2,0.5,0,0.7C15.8,4,15.6,4,15.5,4c-0.1,0-0.3,0-0.4-0.1L14,2.7v4.8C14,7.8,13.8,8,13.5,8H11
		v4.5c0,0.3-0.2,0.5-0.5,0.5H8v5h3.5c0.3,0,0.5,0.2,0.5,0.5V23z M9,16v-1h5.5c0.3,0,0.5,0.2,0.5,0.5V20h-1v-4H9z M23,22.5
		c0,0.3-0.2,0.5-0.5,0.5H14v-1h3v-8.5c0-0.3,0.2-0.5,0.5-0.5H20v1h-2v8h4v-2h-2v-1h2v-2h-2v-1h2v-5h-8v2h-1v-3h3V5h4v3h-1V6h-2v4h5
		V2h-4V1h4.5C22.8,1,23,1.2,23,1.5V22.5z"/>
</g>
<g id="Outline_Icons">
	<g>
		<polyline class="st2" points="17,1.5 21.5,1.5 21.5,22.5 13,22.5 		"/>
		<polyline class="st2" points="10.5,24 10.5,18.5 6.5,18.5 6.5,12.5 9.5,12.5 9.5,7.5 12.5,7.5 12.5,0.5 		"/>
		<polyline class="st3" points="9.5,3.5 12.5,0.5 15.5,3.5 		"/>
		<line class="st2" x1="3.5" y1="1.5" x2="3.5" y2="7"/>
		<polyline class="st2" points="0.5,9.5 6.5,9.5 6.5,5 		"/>
		<polyline class="st2" points="8,15.5 13.5,15.5 13.5,20 		"/>
		<polyline class="st2" points="3.5,12 3.5,20.5 7.5,20.5 7.5,22.5 0.5,22.5 0.5,1.5 8,1.5 		"/>
		<polyline class="st2" points="16.5,22.5 16.5,13.5 19,13.5 		"/>
		<line class="st2" x1="21.5" y1="19.5" x2="19" y2="19.5"/>
		<line class="st2" x1="21.5" y1="16.5" x2="19" y2="16.5"/>
		<polyline class="st2" points="21.5,10.5 12.5,10.5 12.5,13 		"/>
		<polyline class="st2" points="15.5,10.5 15.5,5.5 18.5,5.5 18.5,8 		"/>
	</g>
</g>
</svg>
