<?xml version="1.0" encoding="utf-8"?>
<!-- Generator: Adobe Illustrator 19.2.0, SVG Export Plug-In . SVG Version: 6.00 Build 0)  -->
<svg version="1.1" id="Layer_1" xmlns="http://www.w3.org/2000/svg" xmlns:xlink="http://www.w3.org/1999/xlink" x="0px" y="0px"
	 viewBox="0 0 24 24" style="enable-background:new 0 0 24 24;" xml:space="preserve">
<style type="text/css">
	.st0{display:none;}
	.st1{display:inline;}
	.st2{fill:none;stroke:#000000;stroke-linejoin:round;stroke-miterlimit:10;}
	.st3{fill:none;stroke:#000000;stroke-linecap:round;stroke-linejoin:round;stroke-miterlimit:10;}
</style>
<g id="Filled_Icons" class="st0">
	<g class="st1">
		<circle cx="18.5" cy="4" r="1.5"/>
		<path d="M19.4,9.9C20.3,9.4,21,8.4,21,6.5h-5c0,1.9,0.7,2.9,1.6,3.4C18.5,10.3,19.4,9.9,19.4,9.9z"/>
		<path d="M3.3,13.9c-0.6-0.6-0.6-1.5,0-2.1c0.6-0.6,1.5-0.6,2.1,0l4.6,4.6c1.6-1.6,2.5-4,2.5-6.9V9h-12v0.5c0,3.6,1.3,6.4,3.5,7.8
			V24h5v-4.3L3.3,13.9z"/>
		<path d="M24,17.1c0-0.3-0.2-0.5-0.5-0.5c-0.3,0-0.5,0.2-0.5,0.5v5.2l-6.6-7.1c-0.2-0.2-0.5-0.2-0.7,0L11,18.9l-6.3-6.3
			c-0.2-0.2-0.5-0.2-0.7,0c-0.2,0.2-0.2,0.5,0,0.7l6.6,6.6c0.2,0.2,0.5,0.2,0.7,0l4.6-3.7l6.4,6.8h-5.8c-0.3,0-0.5,0.2-0.5,0.5
			c0,0.3,0.2,0.5,0.5,0.5h6.9c0.1,0,0.1,0,0.2,0c0,0,0.1,0,0.1,0c0,0,0.1,0,0.1,0c0,0,0,0,0,0c0,0,0-0.1,0.1-0.1c0,0,0,0,0-0.1
			c0,0,0,0,0-0.1c0,0,0-0.1,0-0.1c0,0,0,0,0,0L24,17.1L24,17.1z"/>
		<path d="M6.5,0c-2.2,0-4,1.8-4,4c0,2.2,1.8,4,4,4c2.2,0,4-1.8,4-4C10.5,1.8,8.7,0,6.5,0z"/>
	</g>
</g>
<g id="Outline_Icons">
	<g>
		<circle class="st2" cx="18.5" cy="4.1" r="1.5"/>
		<path class="st2" d="M19.4,9.9C20.3,9.4,21,8.4,21,6.5h-5c0,1.9,0.7,2.9,1.6,3.4"/>
		<g>
			<polyline class="st3" points="4.4,12.9 11,19.5 16,15.5 23.5,23.5 			"/>
			<polyline class="st3" points="16.6,23.5 23.5,23.5 23.5,17.1 			"/>
		</g>
		<circle class="st2" cx="6.5" cy="4" r="3.5"/>
		<path class="st3" d="M10.3,15.5c1-1.3,1.7-3.3,1.7-6H1c0,4.1,1.5,6.4,3.5,7.5v6.5h4v-3.6"/>
	</g>
</g>
</svg>
