<?xml version="1.0" encoding="utf-8"?>
<!-- Generator: Adobe Illustrator 19.2.0, SVG Export Plug-In . SVG Version: 6.00 Build 0)  -->
<svg version="1.1" id="Layer_1" xmlns="http://www.w3.org/2000/svg" xmlns:xlink="http://www.w3.org/1999/xlink" x="0px" y="0px"
	 viewBox="0 0 24 24" style="enable-background:new 0 0 24 24;" xml:space="preserve">
<style type="text/css">
	.st0{display:none;}
	.st1{display:inline;}
	.st2{fill:none;stroke:#000000;stroke-linejoin:round;stroke-miterlimit:10;}
	.st3{fill:none;stroke:#000000;stroke-linecap:round;stroke-linejoin:round;stroke-miterlimit:10;}
</style>
<g id="Filled_Icons" class="st0">
	<g class="st1">
		<path d="M6.5,0c-2.2,0-4,1.8-4,4c0,2.2,1.8,4,4,4c2.2,0,4-1.8,4-4C10.5,1.8,8.7,0,6.5,0z"/>
		<circle cx="16.5" cy="2" r="1.5"/>
		<path d="M17.4,7.9C18.3,7.4,19,6.4,19,4.5h-5c0,1.9,0.7,2.9,1.6,3.4C16.5,8.3,17.4,7.9,17.4,7.9z"/>
		<g>
			<path d="M4,17.3v1.1l4.9-4.9c0.5-0.5,1.4-0.6,2-0.1l0.8,0.6c0.5-1.3,0.8-2.8,0.8-4.4V9h-12v0.5C0.5,13.1,1.8,15.9,4,17.3z"/>
			<polygon points="4,22.6 4,24 9,24 9,17.6 			"/>
		</g>
		<path d="M23,10.5c0,0,0-0.1,0-0.1c0,0,0,0,0-0.1c0,0,0,0,0-0.1c0,0,0-0.1-0.1-0.1c0,0,0,0,0,0c0,0,0,0-0.1,0c0,0-0.1,0-0.1-0.1
			c0,0-0.1,0-0.1,0c0,0,0,0-0.1,0h-6.9c-0.3,0-0.5,0.2-0.5,0.5c0,0.3,0.2,0.5,0.5,0.5h5.8L15,17.8l-4.6-3.7c-0.2-0.2-0.5-0.1-0.7,0
			l-9,9c-0.2,0.2-0.2,0.5,0,0.7C0.7,24,0.9,24,1,24c0.1,0,0.3,0,0.4-0.1l8.7-8.7l4.6,3.7c0.2,0.2,0.5,0.1,0.7,0l6.6-7.1V17
			c0,0.3,0.2,0.5,0.5,0.5c0.3,0,0.5-0.2,0.5-0.5L23,10.5C23,10.5,23,10.5,23,10.5z"/>
	</g>
</g>
<g id="Outline_Icons">
	<g>
		<circle class="st2" cx="6.5" cy="4" r="3.5"/>
		<polyline class="st3" points="4.5,22.1 4.5,23.5 8.5,23.5 8.5,19 		"/>
		<path class="st3" d="M11.5,13c0.3-1,0.5-2.1,0.5-3.5H1c0,4.1,1.5,6.4,3.5,7.5"/>
		<circle class="st2" cx="16.5" cy="2" r="1.5"/>
		<path class="st2" d="M17.4,7.9C18.3,7.4,19,6.4,19,4.5h-5c0,1.9,0.7,2.9,1.6,3.4"/>
		<g>
			<polyline class="st3" points="1,23.5 10,14.5 15,18.5 22.5,10.5 			"/>
			<polyline class="st3" points="15.6,10.5 22.5,10.5 22.5,17 			"/>
		</g>
	</g>
</g>
</svg>
