<?xml version="1.0" encoding="utf-8"?>
<!-- Generator: Adobe Illustrator 19.2.0, SVG Export Plug-In . SVG Version: 6.00 Build 0)  -->
<svg version="1.1" id="Layer_1" xmlns="http://www.w3.org/2000/svg" xmlns:xlink="http://www.w3.org/1999/xlink" x="0px" y="0px"
	 viewBox="0 0 24 24" style="enable-background:new 0 0 24 24;" xml:space="preserve">
<style type="text/css">
	.st0{display:none;}
	.st1{display:inline;}
	.st2{fill:none;stroke:#000000;stroke-linejoin:round;stroke-miterlimit:10;}
	.st3{fill:none;stroke:#000000;stroke-linecap:round;stroke-linejoin:round;stroke-miterlimit:10;}
</style>
<g id="Filled_Icons" class="st0">
	<g class="st1">
		<path d="M23.4,0.3c-0.7-0.5-1.6-0.4-2.1,0.3l-1.2,1.6C19,1.5,17.7,1,16.2,1c-2,0-3.9,0.9-5.1,2.4c0,0.2,0.1,0.4,0.1,0.6
			c0,1.4-0.6,2.6-1.5,3.5c0,0.2,0,0.3,0,0.5h3.5v1.5c0,1.3-0.2,2.4-0.4,3.5c1,0.6,2.2,1,3.4,1c3.6,0,6.5-2.9,6.5-6.5
			c0-1-0.3-2-0.7-2.9l1.6-2.2C24.2,1.7,24.1,0.8,23.4,0.3z M22.9,1.8L16.8,10c-0.1,0.1-0.2,0.2-0.4,0.2c0,0,0,0,0,0
			c-0.1,0-0.3-0.1-0.4-0.1l-2.7-2.7c-0.2-0.2-0.2-0.5,0-0.7c0.2-0.2,0.5-0.2,0.7,0l2.3,2.3l5.8-7.7c0.2-0.2,0.5-0.3,0.7-0.1
			C23,1.3,23.1,1.6,22.9,1.8z"/>
		<g>
			<path d="M6.2,0c-2.2,0-4,1.8-4,4c0,2.2,1.8,4,4,4c2.2,0,4-1.8,4-4C10.2,1.8,8.5,0,6.2,0z"/>
			<path d="M7.2,9l0.6,6.7l-1.5,1.5l-1.5-1.5L5.3,9h-5v0.5c0,3.6,1.3,6.4,3.5,7.8V24h5v-6.7c2.2-1.4,3.5-4.2,3.5-7.8V9H7.2z"/>
		</g>
	</g>
</g>
<g id="Outline_Icons">
	<g>
		<circle class="st2" cx="6.2" cy="4" r="3.5"/>
		<path class="st2" d="M11.8,9.5h-11c0,4.1,1.6,6.4,3.5,7.5v6.5h4V17C10.1,15.9,11.8,13.6,11.8,9.5z"/>
		<g>
			<polygon class="st2" points="6.8,9.5 5.8,9.5 5.2,15.5 6.2,16.5 7.2,15.5 			"/>
		</g>
		<path class="st3" d="M12.4,2.9c1-0.9,2.4-1.4,3.9-1.4c3.3,0,6,2.7,6,6s-2.7,6-6,6c-0.8,0-1.6-0.2-2.4-0.5"/>
		<polyline class="st3" points="23.2,0.5 16.4,9.7 13.7,7 		"/>
	</g>
</g>
</svg>
