<?xml version="1.0" encoding="utf-8"?>
<!-- Generator: Adobe Illustrator 19.2.0, SVG Export Plug-In . SVG Version: 6.00 Build 0)  -->
<svg version="1.1" id="Layer_1" xmlns="http://www.w3.org/2000/svg" xmlns:xlink="http://www.w3.org/1999/xlink" x="0px" y="0px"
	 viewBox="0 0 24 24" style="enable-background:new 0 0 24 24;" xml:space="preserve">
<style type="text/css">
	.st0{display:none;}
	.st1{display:inline;}
	.st2{fill:none;stroke:#000000;stroke-linecap:round;stroke-linejoin:round;stroke-miterlimit:10;}
	.st3{fill:none;stroke:#000000;stroke-linejoin:round;stroke-miterlimit:10;}
</style>
<g id="Filled_Icons" class="st0">
	<g class="st1">
		<path d="M4.3,20c-0.2,0-0.3-0.1-0.4-0.2c-0.1-0.1-0.1-0.3-0.1-0.5l1.2-3.7C2.3,16.2,0,17.1,0,20.2V24h4.3c0-0.1,0-0.1,0-0.2
			L6.1,20H4.3z"/>
		<path d="M15.7,15.2c0.9-0.8,1.6-1.9,1.7-3.3c0.4-0.1,0.8-0.5,1.1-0.9c0.4-0.8,0.5-1.8,0.1-2.4c-0.1-0.2-0.2-0.3-0.4-0.4l0.1-0.3
			c0.2-0.1,0.3-0.2,0.3-0.4l0.3-2c0-0.1,0.2-2-1.2-3.5c-1.2-1.3-3.1-2-5.8-2C9.4,0,7.5,0.7,6.3,2C4.8,3.6,5,5.5,5,5.6l0.5,2.8
			c0,0-0.1,0.1-0.1,0.1C5.2,8.8,5.1,9.1,5.1,9.6c0,1,0.6,2.1,1.4,2.4c0.1,1.3,0.8,2.4,1.7,3.3c-0.2,0-0.4,0.1-0.6,0.1l1.8,6l1.6-1.9
			c-0.7-0.3-1.1-1-1.1-1.8v-1.1c0.8,0.4,1.5,0.6,2,0.6c0.5,0,1.2-0.2,2-0.6v1.1c0,0.8-0.5,1.5-1.1,1.8l1.5,1.8l1.8-5.8
			C16,15.2,15.9,15.2,15.7,15.2z M12,16c-1.3,0-4.5-1.9-4.5-4.5C7.5,11.2,7.3,11,7,11c-0.5,0-0.9-0.8-0.9-1.4c0-0.2,0-0.4,0.1-0.5
			c0,0,0-0.1,0.1-0.1c0.5-0.1,1-0.3,1.4-0.7C8.3,7.7,8.7,6.8,9,6c0.5,0.9,1.5,1.4,3.1,1.7c1.3,0.2,3,0.3,5.2,0.3l-0.1,0.4
			c-0.1,0.2,0,0.3,0.1,0.5C17.3,9,17.5,9,17.7,9c0.1,0,0.1,0,0.2,0.1C18,9.4,18,10,17.7,10.5C17.6,10.7,17.4,11,17,11
			c-0.3,0-0.5,0.2-0.5,0.5C16.5,14.1,13.3,16,12,16z"/>
		<path d="M18.7,15.6l1.3,3.7c0.1,0.2,0,0.3-0.1,0.5c-0.1,0.1-0.2,0.2-0.4,0.2h-1.7l1.7,3.8c0,0.1,0,0.1,0,0.2H24v-3.8
			C24,17,21.6,16.1,18.7,15.6z"/>
		<path d="M10.1,8.5l-0.1,0l-0.1,0c-0.4,0-0.8,0-1.1,0.3C8.6,9,8.5,9.2,8.5,9.5C8.5,9.8,8.7,10,9,10c0.3,0,0.5-0.2,0.5-0.5
			c0.1,0,0.2,0,0.4,0l0.1,0l0.1,0c0.1,0,0.3,0,0.4,0c0,0.3,0.2,0.5,0.5,0.5c0.3,0,0.5-0.2,0.5-0.5c0-0.3-0.1-0.5-0.3-0.7
			C10.9,8.5,10.5,8.5,10.1,8.5z"/>
		<path d="M14.1,8.5l-0.1,0l-0.1,0c-0.4,0-0.8,0-1.1,0.3c-0.2,0.2-0.3,0.4-0.3,0.7c0,0.3,0.2,0.5,0.5,0.5c0.3,0,0.5-0.2,0.5-0.5
			c0.1,0,0.3,0,0.4,0l0.1,0l0.1,0c0.1,0,0.3,0,0.4,0c0,0.3,0.2,0.5,0.5,0.5c0.3,0,0.5-0.2,0.5-0.5c0-0.3-0.1-0.5-0.3-0.7
			C14.9,8.5,14.5,8.5,14.1,8.5z"/>
		<path d="M16.6,19.2c0.1-0.1,0.2-0.2,0.4-0.2h1.8l-1.2-3.5l-0.5-0.1l-2.5,8.1h3.6l-1.7-3.8C16.5,19.5,16.5,19.4,16.6,19.2z"/>
		<path d="M6.2,15.5L5,19h1.8c0.2,0,0.3,0.1,0.4,0.2c0.1,0.1,0.1,0.3,0,0.5l-1.7,3.8h3.6l-2.5-8.1L6.2,15.5z"/>
	</g>
</g>
<g id="Outline_Icons">
	<g>
		<path class="st2" d="M9,9.5C9,8.9,9.4,9,10,9c0.6,0,1-0.1,1,0.5"/>
		<path class="st2" d="M13,9.5C13,8.9,13.4,9,14,9c0.6,0,1-0.1,1,0.5"/>
		<path class="st2" d="M9.4,15.5c-4.3,0.7-8.9,0.6-8.9,4.7v3.3h23v-3.3c0-4.2-4.5-4-8.9-4.7"/>
		<path class="st2" d="M18,8.6l0.5-3.1c0,0,0.5-5-6.5-5s-6.5,5-6.5,5l0.5,3"/>
		<polyline class="st3" points="14.4,21.9 12,19 9.6,21.9 		"/>
		<path class="st3" d="M10.5,16.1v1.4c0,0.8,0.7,1.5,1.5,1.5c0.8,0,1.5-0.7,1.5-1.5v-1.4"/>
		<path class="st3" d="M6,8.5c2,0,3-3.5,3-5c0,3.5,1.7,4,9.2,4"/>
		<line class="st2" x1="10" y1="23.5" x2="8" y2="15.7"/>
		<polyline class="st3" points="6,16 4.5,19.5 7,19.5 5,23.5 		"/>
		<line class="st2" x1="14" y1="23.5" x2="16" y2="15.7"/>
		<polyline class="st3" points="18,16 19.5,19.5 17,19.5 19,23.5 		"/>
		<path class="st3" d="M6.5,8.4c-1.5,0-1,3.1,0.5,3.1c0,3,3.5,5,5,5s5-2,5-5c1.3,0,1.8-2.3,1-2.9"/>
	</g>
</g>
</svg>
