<?xml version="1.0" encoding="utf-8"?>
<!-- Generator: Adobe Illustrator 19.2.0, SVG Export Plug-In . SVG Version: 6.00 Build 0)  -->
<svg version="1.1" id="Layer_1" xmlns="http://www.w3.org/2000/svg" xmlns:xlink="http://www.w3.org/1999/xlink" x="0px" y="0px"
	 viewBox="0 0 24 24" style="enable-background:new 0 0 24 24;" xml:space="preserve">
<style type="text/css">
	.st0{display:none;}
	.st1{display:inline;}
	.st2{fill:none;stroke:#000000;stroke-linejoin:round;stroke-miterlimit:10;}
	.st3{fill:none;stroke:#000000;stroke-linecap:round;stroke-linejoin:round;stroke-miterlimit:10;}
</style>
<g id="Filled_Icons" class="st0">
	<g class="st1">
		<g>
			<path d="M6.5,0c-2.2,0-4,1.8-4,4c0,2.2,1.8,4,4,4c2.2,0,4-1.8,4-4C10.5,1.8,8.7,0,6.5,0z"/>
			<path d="M7.5,9L8,15.7l-1.5,1.5L5,15.7L5.5,9h-5v0.5c0,3.6,1.3,6.4,3.5,7.8V24h5v-6.7c2.2-1.4,3.5-4.2,3.5-7.8V9H7.5z"/>
		</g>
		<g>
			<path d="M16.4,6.5c0.1,0.1,0.2,0.1,0.4,0.1c0.1,0,0.3,0,0.4-0.1c0.2-0.2,0.2-0.5,0-0.7l-1.6-1.6l1.6-1.6c0.2-0.2,0.2-0.5,0-0.7
				c-0.2-0.2-0.5-0.2-0.7,0l-1.6,1.6L13.3,2c-0.2-0.2-0.5-0.2-0.7,0c-0.2,0.2-0.2,0.5,0,0.7l1.6,1.6l-1.6,1.6
				c-0.2,0.2-0.2,0.5,0,0.7c0.1,0.1,0.2,0.1,0.4,0.1c0.1,0,0.3,0,0.4-0.1L14.9,5L16.4,6.5z"/>
			<path d="M21.5,9c-1.4,0-2.5,1.1-2.5,2.5c0,1.4,1.1,2.5,2.5,2.5c1.4,0,2.5-1.1,2.5-2.5C24,10.1,22.9,9,21.5,9z M21.5,13
				c-0.8,0-1.5-0.7-1.5-1.5c0-0.8,0.7-1.5,1.5-1.5c0.8,0,1.5,0.7,1.5,1.5C23,12.3,22.3,13,21.5,13z"/>
			<path d="M20.8,7.6c-0.1,0.3,0,0.5,0.2,0.7c0.1,0,0.1,0,0.2,0c0.2,0,0.4-0.1,0.5-0.3L23,5.4c0,0,0,0,0,0c0-0.1,0-0.1,0-0.2
				c0,0,0-0.1,0-0.1c0,0,0-0.1,0-0.1c0,0,0,0,0,0c0,0,0,0,0,0c0,0,0,0,0,0c0,0-0.1-0.1-0.1-0.1c0,0,0,0-0.1,0c0,0-0.1,0-0.1-0.1
				c0,0,0,0,0,0l-3-0.6C19.3,4,19.1,4.2,19,4.5C19,4.7,19.1,5,19.4,5.1l1.4,0.3c-2.7,1.3-4.9,3.5-6.2,6.2c-0.1,0.2,0,0.5,0.2,0.7
				c0.1,0,0.1,0.1,0.2,0.1c0.2,0,0.4-0.1,0.4-0.3c1.3-2.6,3.5-4.7,6.1-5.8L20.8,7.6z"/>
		</g>
	</g>
</g>
<g id="Outline_Icons">
	<g>
		<circle class="st2" cx="6.5" cy="4" r="3.5"/>
		<path class="st2" d="M12,9.5H1c0,4.1,1.6,6.4,3.5,7.5v6.5h4V17C10.4,15.9,12,13.6,12,9.5z"/>
		<g>
			<polygon class="st2" points="7,9.5 6,9.5 5.5,15.5 6.5,16.5 7.5,15.5 			"/>
		</g>
		<line class="st3" x1="13" y1="2.4" x2="16.8" y2="6.2"/>
		<line class="st3" x1="16.8" y1="2.4" x2="13" y2="6.2"/>
		<circle class="st3" cx="21.5" cy="11.5" r="2"/>
		<path class="st3" d="M15,11.7c1.5-3.1,4.2-5.4,7.5-6.5"/>
		<polyline class="st3" points="19.5,4.6 22.5,5.2 21.3,7.8 		"/>
	</g>
</g>
</svg>
