<?xml version="1.0" encoding="utf-8"?>
<!-- Generator: Adobe Illustrator 19.2.0, SVG Export Plug-In . SVG Version: 6.00 Build 0)  -->
<svg version="1.1" id="Layer_1" xmlns="http://www.w3.org/2000/svg" xmlns:xlink="http://www.w3.org/1999/xlink" x="0px" y="0px"
	 viewBox="0 0 24 24" style="enable-background:new 0 0 24 24;" xml:space="preserve">
<style type="text/css">
	.st0{display:none;}
	.st1{display:inline;}
	.st2{fill:none;stroke:#000000;stroke-linejoin:round;stroke-miterlimit:10;}
</style>
<g id="Filled_Icons" class="st0">
	<path class="st1" d="M23,18.7c-0.7-1.1-2.6-1.8-4.8-2.7c-0.4-0.2-0.9-0.3-1.3-0.5c0,0,0,0,0,0c-0.4-0.5-0.9-0.9-1.4-1.1L15,14.1
		v-1.4c0.4-0.4,1.4-1.3,1.5-2.9c0.2-0.2,0.4-0.5,0.5-1c0.2-0.7,0.1-1.5-0.4-2c0-0.1,0.1-0.2,0.1-0.2c0.4-1,1.1-2.8,0.8-4.2
		C17.2,0.7,14.9,0,13,0c-1.6,0-3.6,0.3-4.3,1.5C8.1,1.5,7.7,1.8,7.3,2.2C6.5,3.4,7.1,5.5,7.4,6.6c0,0.1,0,0.1,0.1,0.2
		C7,7.2,6.9,8.1,7,8.8c0.1,0.4,0.3,0.7,0.5,0.9c0.1,1.6,1,2.6,1.5,2.9v1.5l-0.3,0.2c-0.5,0.2-1,0.7-1.4,1.2
		c-0.4,0.2-0.9,0.4-1.3,0.5c-2.2,0.8-4.1,1.5-4.8,2.6C0.1,20.3,0,23.4,0,23.5c0,0.1,0,0.3,0.1,0.4C0.2,23.9,0.4,24,0.5,24h23
		c0.3,0,0.5-0.2,0.5-0.5C24,23.4,24.1,20.3,23,18.7z M11,17.7l1-0.6l1,0.5v0.3c0,0.6-0.4,1-1,1c-0.6,0-1-0.4-1-1V17.7z M7.5,17
		c0.2-0.6,0.8-1.4,1.5-1.7v0.2c0,0.1,0.1,0.3,0.1,0.4c0.3,0.3,1,0.7,1.6,0.9l-3.8,2.2L7.5,17z M12,23.5h-2c0.4-1.5,1.4-3.5,2.1-3.5
		c0.7,0,1.5,2,1.9,3.5H12z M13.8,16.9C13.8,16.9,13.7,16.9,13.8,16.9l-0.1-0.1l-0.3-0.2c0.6-0.2,1.2-0.5,1.5-0.9
		c0.1-0.1,0.1-0.2,0.1-0.4v-0.2c0.6,0.3,1.3,1.1,1.5,1.8l0.6,1.8L13.8,16.9z"/>
</g>
<g id="Outline_Icons">
	<g>
		<path class="st2" d="M12,23.5H0.5c0,0,0.1-3.1,1.1-4.6c0.8-1.2,3.5-2,6-3"/>
		<path class="st2" d="M12,23.5h11.5c0,0,0.1-3.1-0.9-4.6c-0.8-1.2-3.4-2-5.9-3"/>
		<path class="st2" d="M12,19.4c-1.5,0-2.6,4.1-2.6,4.1h5C14.4,23.5,13.5,19.4,12,19.4z"/>
		<path class="st2" d="M12.1,16.4c-0.7,0-2.1-0.5-2.6-1v-1l-0.6,0.3c-0.7,0.4-1.5,1.3-1.8,2.1l-1,3.1L12.1,16.4z"/>
		<path class="st2" d="M12,16.4c0.7,0,2-0.5,2.5-1v-1l0.7,0.3c0.7,0.4,1.6,1.3,1.8,2.1l1,3.1L12,16.4z"/>
		<path class="st2" d="M10.5,17.4v0.6c0,0.8,0.7,1.5,1.5,1.5c0.8,0,1.5-0.7,1.5-1.5v-0.6"/>
		<path class="st2" d="M14.5,15.4v-3c0,0,1.5-1,1.5-3c0.5,0,1-2,0-2.5c0-0.3,1.3-2.8,1-4.5c-0.5-2.5-7.5-2.5-8-0.5c-3,0-1,4.6-1,5
			c-1,0.5-0.5,2.5,0,2.5c0,2,1.5,3,1.5,3v3"/>
	</g>
</g>
</svg>
