<?xml version="1.0" encoding="utf-8"?>
<!-- Generator: Adobe Illustrator 19.2.0, SVG Export Plug-In . SVG Version: 6.00 Build 0)  -->
<svg version="1.1" id="Layer_1" xmlns="http://www.w3.org/2000/svg" xmlns:xlink="http://www.w3.org/1999/xlink" x="0px" y="0px"
	 viewBox="0 0 24 24" style="enable-background:new 0 0 24 24;" xml:space="preserve">
<style type="text/css">
	.st0{display:none;}
	.st1{display:inline;}
	.st2{fill:none;stroke:#000000;stroke-linecap:round;stroke-linejoin:round;stroke-miterlimit:10;}
	.st3{fill:none;stroke:#000000;stroke-linejoin:round;stroke-miterlimit:10;}
</style>
<g id="Filled_Icon" class="st0">
	<g class="st1">
		<path d="M23.5,18H7v-3.5c2-0.9,3-3.7,3-6C10,8.2,9.8,8,9.5,8h-9C0.2,8,0,8.2,0,8.5c0,2.3,1,5.1,3,6V18H0.5C0.2,18,0,18.2,0,18.5
			C0,18.8,0.2,19,0.5,19h10l-3.4,4.2C7,23.3,7,23.5,7,23.7C7.1,23.9,7.3,24,7.5,24h8c0.2,0,0.4-0.1,0.5-0.3c0.1-0.2,0.1-0.4-0.1-0.5
			L12.5,19h11c0.3,0,0.5-0.2,0.5-0.5C24,18.2,23.8,18,23.5,18z"/>
		<path d="M18.5,16c3,0,5.5-2.5,5.5-5.5c0-3-2.5-5.5-5.5-5.5c-3,0-5.5,2.5-5.5,5.5C13,13.5,15.5,16,18.5,16z M18.5,11
			c-0.9,0-1.7-0.7-1.7-1.7c0-0.7,0.5-1.4,1.2-1.6V7.4c0-0.3,0.2-0.5,0.5-0.5c0.3,0,0.5,0.2,0.5,0.5v0.4c0.7,0.2,1.2,0.8,1.2,1.6
			c0,0.3-0.2,0.5-0.5,0.5c-0.3,0-0.5-0.2-0.5-0.5c0-0.4-0.3-0.7-0.7-0.7c-0.4,0-0.7,0.3-0.7,0.7c0,0.4,0.3,0.7,0.7,0.7
			c0.9,0,1.7,0.7,1.7,1.7c0,0.7-0.5,1.4-1.2,1.6v0.4c0,0.3-0.2,0.5-0.5,0.5c-0.3,0-0.5-0.2-0.5-0.5v-0.4c-0.7-0.2-1.2-0.8-1.2-1.6
			c0-0.3,0.2-0.5,0.5-0.5c0.3,0,0.5,0.2,0.5,0.5c0,0.4,0.3,0.7,0.7,0.7c0.4,0,0.7-0.3,0.7-0.7C19.2,11.3,18.9,11,18.5,11z"/>
		<path d="M5,7c1.9,0,3.5-1.6,3.5-3.5C8.5,1.6,6.9,0,5,0C3.1,0,1.5,1.6,1.5,3.5C1.5,5.4,3.1,7,5,7z"/>
	</g>
</g>
<g id="Outline_Icons">
	<g>
		<polygon class="st2" points="11.5,18.5 7.5,23.5 15.5,23.5 		"/>
		<line class="st2" x1="0.5" y1="18.5" x2="23.5" y2="18.5"/>
		<g>
			<circle class="st3" cx="18.5" cy="10.5" r="5"/>
			<path class="st2" d="M17.3,11.7c0,0.6,0.5,1.2,1.2,1.2c0.6,0,1.2-0.5,1.2-1.2c0-0.6-0.5-1.2-1.2-1.2c-0.6,0-1.2-0.5-1.2-1.2
				c0-0.6,0.5-1.2,1.2-1.2c0.6,0,1.2,0.5,1.2,1.2"/>
			<line class="st2" x1="18.5" y1="12.8" x2="18.5" y2="13.6"/>
			<line class="st2" x1="18.5" y1="7.4" x2="18.5" y2="8.2"/>
		</g>
		<circle class="st2" cx="5" cy="3.5" r="3"/>
		<path class="st2" d="M9.5,8.5h-9c0,2.1,1,5,3,5.7v4.3h3v-4.3C8.5,13.5,9.5,10.6,9.5,8.5z"/>
	</g>
</g>
</svg>
