<?xml version="1.0" encoding="utf-8"?>
<!-- Generator: Adobe Illustrator 19.2.0, SVG Export Plug-In . SVG Version: 6.00 Build 0)  -->
<svg version="1.1" id="Layer_1" xmlns="http://www.w3.org/2000/svg" xmlns:xlink="http://www.w3.org/1999/xlink" x="0px" y="0px"
	 viewBox="0 0 24 24" enable-background="new 0 0 24 24" xml:space="preserve">
<g id="Filled_Icons" display="none">
	<g display="inline">
		<path d="M22.687,21.518L10.929,2.334c-0.07-0.113-0.182-0.194-0.311-0.225c-0.128-0.032-0.265-0.01-0.378,0.06l-0.187,0.114
			C7.62,3.775,8.112,7.063,9.598,9.487c1.408,2.297,3.952,4.138,6.207,2.759l0.021-0.012l6.01,9.805
			c0.095,0.152,0.259,0.238,0.427,0.238c0.09,0,0.18-0.023,0.262-0.072C22.759,22.061,22.832,21.752,22.687,21.518z"/>
		<path d="M17.396,16.713l-1.957-3.193c-2.246,0.75-4.897-0.58-6.693-3.509c-1.719-2.803-2.248-6.701,0.97-8.693
			c0.339-0.208,0.746-0.273,1.135-0.181c0.388,0.093,0.722,0.335,0.931,0.675l5.495,8.967c0.002,0.003,0.005,0.006,0.006,0.008
			l0.712,1.161C20.363,11.209,22,8.945,22,6.105c0-3.363-2.71-6.1-6.1-6.1H6.041C2.71,0.006,0,2.742,0,6.105
			c0,3.275,2.173,5.792,5.141,6.074L3.805,23.447c-0.018,0.142,0.027,0.283,0.122,0.391c0.095,0.107,0.231,0.168,0.374,0.168h13.398
			c0.008,0.001,0.016,0.001,0.02,0c0.276,0,0.5-0.225,0.5-0.5C18.219,23.506,18.24,23.818,17.396,16.713z M12.777,19.139
			c-0.524,0.385-1.198,0.577-1.868,0.577c-0.707,0-1.409-0.214-1.932-0.637c-0.429-0.349-1.28-1.313-0.67-3.177
			c-0.76-0.229-1.401-0.834-1.756-1.689c-0.52-1.254-0.281-2.686,0.595-3.561c0.195-0.195,0.512-0.195,0.707,0
			c0.195,0.195,0.195,0.512,0,0.707c-0.685,0.685-0.684,1.735-0.378,2.471C7.78,14.566,8.351,15.006,9,15.006
			c0.17,0,0.328,0.088,0.42,0.229c0.093,0.144,0.105,0.324,0.035,0.479c-0.528,1.162-0.474,2.081,0.152,2.59
			c0.664,0.538,1.869,0.553,2.578,0.029c0.512-0.377,0.627-0.928,0.346-1.635c-0.102-0.256,0.023-0.549,0.279-0.649
			c0.258-0.104,0.547,0.022,0.65,0.279C13.913,17.461,13.664,18.484,12.777,19.139z"/>
	</g>
</g>
<g id="Outline_Icons">
	<g>
		<path fill="none" stroke="#000000" stroke-linecap="round" stroke-linejoin="round" stroke-miterlimit="10" d="M18.425,11.1
			c1.825-0.923,3.075-2.816,3.075-5c0-3.093-2.506-5.6-5.6-5.6H6.041C2.951,0.5,0.5,3.007,0.5,6.1c0,3.092,2.11,5.6,5.2,5.6
			L4.301,23.5h14l-1.455-7.154"/>
		<path fill="none" stroke="#000000" stroke-linecap="round" stroke-linejoin="round" stroke-miterlimit="10" d="M22.262,21.772
			L10.502,2.589l-0.187,0.114c-4.076,2.5,1.341,11.494,5.248,9.1l0.439-0.242"/>
		<path fill="none" stroke="#000000" stroke-linecap="round" stroke-linejoin="round" stroke-miterlimit="10" d="M9,11
			c-1.5,1.5-0.5,4.5,1.5,4.5c-2.225,4.895,5.445,4.643,3.996,1.006"/>
	</g>
</g>
</svg>
