<?xml version="1.0" encoding="utf-8"?>
<!-- Generator: Adobe Illustrator 19.2.0, SVG Export Plug-In . SVG Version: 6.00 Build 0)  -->
<svg version="1.1" id="Layer_1" xmlns="http://www.w3.org/2000/svg" xmlns:xlink="http://www.w3.org/1999/xlink" x="0px" y="0px"
	 viewBox="0 0 24 24" style="enable-background:new 0 0 24 24;" xml:space="preserve">
<style type="text/css">
	.st0{display:none;}
	.st1{display:inline;}
	.st2{fill:none;stroke:#000000;stroke-linecap:round;stroke-linejoin:round;stroke-miterlimit:10;}
</style>
<g id="Filled_Icon" class="st0">
	<path class="st1" d="M19.5,0h-15C2,0,0,2,0,4.5v15C0,22,2,24,4.5,24h15c2.5,0,4.5-2,4.5-4.5v-15C24,2,22,0,19.5,0z M18,12.5
		c0,0.3-0.2,0.5-0.5,0.5H7.7l2.1,2.1c0.2,0.2,0.2,0.5,0,0.7C9.8,16,9.6,16,9.5,16c-0.1,0-0.3,0-0.4-0.1l-3-3c-0.2-0.2-0.2-0.5,0-0.7
		l3-3C9.3,9,9.7,9,9.9,9.1c0.2,0.2,0.2,0.5,0,0.7L7.7,12H17V8.5C17,8.2,17.2,8,17.5,8C17.8,8,18,8.2,18,8.5V12.5z"/>
</g>
<g id="Outline_Icons">
	<g>
		<path class="st2" d="M23.5,19.5c0,2.2-1.8,4-4,4h-15c-2.2,0-4-1.8-4-4v-15c0-2.2,1.8-4,4-4h15c2.2,0,4,1.8,4,4V19.5z"/>
		<polyline class="st2" points="6.5,12.5 17.5,12.5 17.5,8.5 		"/>
		<polyline class="st2" points="9.5,9.5 6.5,12.5 9.5,15.5 		"/>
	</g>
</g>
</svg>
