<?xml version="1.0" encoding="utf-8"?>
<!-- Generator: Adobe Illustrator 19.2.0, SVG Export Plug-In . SVG Version: 6.00 Build 0)  -->
<svg version="1.1" id="Layer_1" xmlns="http://www.w3.org/2000/svg" xmlns:xlink="http://www.w3.org/1999/xlink" x="0px" y="0px"
	 viewBox="0 0 24 24" style="enable-background:new 0 0 24 24;" xml:space="preserve">
<style type="text/css">
	.st0{display:none;}
	.st1{display:inline;}
	.st2{fill:none;stroke:#000000;stroke-linejoin:round;stroke-miterlimit:10;}
	.st3{fill:none;stroke:#000000;stroke-linecap:round;stroke-linejoin:round;stroke-miterlimit:10;}
</style>
<g id="Filled_Icons" class="st0">
	<g class="st1">
		<path d="M22,10.4c0-1.8-1-3.5-2.5-4.4C17.9,5,16,5,14.4,5.9L14,6.1V17c0,1.7-1.3,3-3,3c-1.7,0-3-1.3-3-3V6.1L7.6,5.9
			C6,5,4.1,5,2.5,5.9C1,6.9,0,8.5,0,10.4c0,3.3,2.3,4.3,5.5,6c-1.5,0.6-2.5,2-2.5,3.7C3.1,22.6,5,24,7,24c1.6,0,3.2-0.9,4-2.9
			c0.8,1.9,2.4,2.8,4,2.8c2,0,3.9-1.4,3.9-4c0-1.6-1-3.1-2.5-3.7C19.8,14.7,22,13.6,22,10.4z M4.5,12.5C3.1,12.5,2,11.4,2,10
			c0-1.4,1.1-2.5,2.5-2.5C5.9,7.5,7,8.6,7,10C7,11.4,5.9,12.5,4.5,12.5z M15,10c0-1.4,1.1-2.5,2.5-2.5c1.4,0,2.5,1.1,2.5,2.5
			c0,1.4-1.1,2.5-2.5,2.5C16.1,12.5,15,11.4,15,10z"/>
		<g>
			<rect x="9" y="12" width="4" height="2"/>
			<rect x="9" y="9" width="4" height="2"/>
			<path d="M16.4,0.4c-0.2-0.2-0.5-0.2-0.7,0l-3.8,3.8C11.6,4.1,11.3,4,11,4s-0.6,0.1-0.9,0.2L6.4,0.4c-0.2-0.2-0.5-0.2-0.7,0
				C5.5,0.6,5.5,1,5.6,1.2l3.7,3.7C9.1,5.2,9,5.6,9,6v2h4V6c0-0.4-0.1-0.8-0.4-1.1l3.7-3.7C16.5,1,16.5,0.6,16.4,0.4z"/>
			<path d="M9,15v2c0,1.1,0.9,2,2,2s2-0.9,2-2v-2H9z"/>
		</g>
	</g>
</g>
<g id="Outline_Icons">
	<g>
		<path class="st2" d="M9.5,6c0-0.8,0.7-1.5,1.5-1.5c0.8,0,1.5,0.7,1.5,1.5v11c0,0.8-0.7,1.5-1.5,1.5c-0.8,0-1.5-0.7-1.5-1.5V6z"/>
		<line class="st3" x1="10.1" y1="4.8" x2="6" y2="0.8"/>
		<line class="st3" x1="11.9" y1="4.8" x2="16" y2="0.8"/>
		<path class="st3" d="M11,18.5c0,6.6-7.4,6.3-7.4,1.5c0-1.9,1.6-3.5,3.5-3.5c-4.1-2.1-6.6-2.9-6.6-6.2c0-1.6,0.9-3.1,2.3-4
			c1.4-0.8,3.2-0.8,4.6-0.1l2.1,1.2"/>
		<path class="st3" d="M11,18.5c0,6.5,7.4,6.3,7.4,1.5c0-1.9-1.6-3.5-3.5-3.5c4.1-2.1,6.6-2.9,6.6-6.2c0-1.6-0.9-3.1-2.3-4
			c-1.4-0.8-3.2-0.8-4.6-0.1l-2.1,1.2"/>
		<circle class="st3" cx="5.5" cy="10.5" r="2"/>
		<circle class="st3" cx="16.5" cy="10.5" r="2"/>
		<line class="st3" x1="9.5" y1="14.5" x2="12.5" y2="14.5"/>
		<line class="st3" x1="9.5" y1="11.5" x2="12.5" y2="11.5"/>
		<line class="st3" x1="9.5" y1="8.5" x2="12.5" y2="8.5"/>
	</g>
</g>
</svg>
