<?xml version="1.0" encoding="utf-8"?>
<!-- Generator: Adobe Illustrator 19.2.0, SVG Export Plug-In . SVG Version: 6.00 Build 0)  -->
<svg version="1.1" id="Layer_1" xmlns="http://www.w3.org/2000/svg" xmlns:xlink="http://www.w3.org/1999/xlink" x="0px" y="0px"
	 viewBox="0 0 24 24" style="enable-background:new 0 0 24 24;" xml:space="preserve">
<style type="text/css">
	.st0{display:none;}
	.st1{display:inline;}
	.st2{fill:none;stroke:#000000;stroke-linecap:round;stroke-linejoin:round;stroke-miterlimit:10;}
</style>
<g id="Filled_Icon" class="st0">
	<g class="st1">
		<path d="M19.5,0h-15C2,0,0,2,0,4.5v15C0,22,2,24,4.5,24h15c2.5,0,4.5-2,4.5-4.5v-15C24,2,22,0,19.5,0z M19,15.5
			c0,0.3-0.2,0.5-0.5,0.5H8c-0.1,0-0.3-0.1-0.4-0.1l-3.5-3.5c-0.2-0.2-0.2-0.5,0-0.7l3.5-3.5C7.7,8.1,7.9,8,8,8h10.5
			C18.8,8,19,8.2,19,8.5V15.5z"/>
		<path d="M14.9,10.1c-0.2-0.2-0.5-0.2-0.7,0L13,11.3l-1.1-1.1c-0.2-0.2-0.5-0.2-0.7,0c-0.2,0.2-0.2,0.5,0,0.7l1.1,1.1l-1.1,1.1
			c-0.2,0.2-0.2,0.5,0,0.7c0.1,0.1,0.2,0.1,0.4,0.1c0.1,0,0.3,0,0.4-0.1l1.1-1.1l1.1,1.1c0.1,0.1,0.2,0.1,0.4,0.1
			c0.1,0,0.3,0,0.4-0.1c0.2-0.2,0.2-0.5,0-0.7L13.7,12l1.1-1.1C15,10.7,15,10.3,14.9,10.1z"/>
	</g>
</g>
<g id="Outline_Icons">
	<g>
		<path class="st2" d="M23.5,19.5c0,2.2-1.8,4-4,4h-15c-2.2,0-4-1.8-4-4v-15c0-2.2,1.8-4,4-4h15c2.2,0,4,1.8,4,4V19.5z"/>
		<line class="st2" x1="14.5" y1="10.5" x2="11.5" y2="13.5"/>
		<line class="st2" x1="14.5" y1="13.5" x2="11.5" y2="10.5"/>
		<polygon class="st2" points="18.5,15.5 8,15.5 4.5,12 8,8.5 18.5,8.5 		"/>
	</g>
</g>
</svg>
