<?xml version="1.0" encoding="utf-8"?>
<!-- Generator: Adobe Illustrator 19.2.0, SVG Export Plug-In . SVG Version: 6.00 Build 0)  -->
<svg version="1.1" id="Layer_1" xmlns="http://www.w3.org/2000/svg" xmlns:xlink="http://www.w3.org/1999/xlink" x="0px" y="0px"
	 viewBox="0 0 24 24" style="enable-background:new 0 0 24 24;" xml:space="preserve">
<style type="text/css">
	.st0{display:none;}
	.st1{display:inline;}
	.st2{fill:none;stroke:#000000;stroke-linecap:round;stroke-linejoin:round;stroke-miterlimit:10;}
</style>
<g id="Filled_Icon" class="st0">
	<path class="st1" d="M19.5,0h-15C2,0,0,2,0,4.5v15C0,22,2,24,4.5,24h15c2.5,0,4.5-2,4.5-4.5v-15C24,2,22,0,19.5,0z M12,5.2l6.8,6.8
		H5.2L12,5.2z M19.5,18h-15v-3h15V18z"/>
</g>
<g id="Outline_Icons">
	<g>
		<path class="st2" d="M23.5,19.5c0,2.2-1.8,4-4,4h-15c-2.2,0-4-1.8-4-4v-15c0-2.2,1.8-4,4-4h15c2.2,0,4,1.8,4,4V19.5z"/>
		<rect x="4.5" y="14.5" class="st2" width="15" height="4"/>
		<polygon class="st2" points="12,4.5 4.5,12.5 19.5,12.5 		"/>
	</g>
</g>
</svg>
