<?xml version="1.0" encoding="utf-8"?>
<!-- Generator: Adobe Illustrator 19.2.0, SVG Export Plug-In . SVG Version: 6.00 Build 0)  -->
<svg version="1.1" id="Layer_1" xmlns="http://www.w3.org/2000/svg" xmlns:xlink="http://www.w3.org/1999/xlink" x="0px" y="0px"
	 viewBox="0 0 24 24" style="enable-background:new 0 0 24 24;" xml:space="preserve">
<style type="text/css">
	.st0{display:none;}
	.st1{display:inline;}
	.st2{fill:none;stroke:#000000;stroke-linecap:round;stroke-linejoin:round;stroke-miterlimit:10;}
</style>
<g id="Filled_Icon" class="st0">
	<path class="st1" d="M19.5,0h-15C2,0,0,2,0,4.5v15C0,22,2,24,4.5,24h15c2.5,0,4.5-2,4.5-4.5v-15C24,2,22,0,19.5,0z M20.5,17h-5
		c-0.1,0-0.3-0.1-0.4-0.1L8.3,10H3.5C3.2,10,3,9.8,3,9.5C3,9.2,3.2,9,3.5,9h5c0.1,0,0.3,0.1,0.4,0.1l6.9,6.9h4.8
		c0.3,0,0.5,0.2,0.5,0.5C21,16.8,20.8,17,20.5,17z M20.5,10h-6C14.2,10,14,9.8,14,9.5C14,9.2,14.2,9,14.5,9h6C20.8,9,21,9.2,21,9.5
		C21,9.8,20.8,10,20.5,10z"/>
</g>
<g id="Outline_Icons">
	<g>
		<path class="st2" d="M23.5,19.5c0,2.2-1.8,4-4,4h-15c-2.2,0-4-1.8-4-4v-15c0-2.2,1.8-4,4-4h15c2.2,0,4,1.8,4,4V19.5z"/>
		<polyline class="st2" points="3.5,9.5 8.5,9.5 15.5,16.5 20.5,16.5 		"/>
		<line class="st2" x1="14.5" y1="9.5" x2="20.5" y2="9.5"/>
	</g>
</g>
</svg>
