<?xml version="1.0" encoding="utf-8"?>
<!-- Generator: Adobe Illustrator 19.2.0, SVG Export Plug-In . SVG Version: 6.00 Build 0)  -->
<svg version="1.1" id="Layer_1" xmlns="http://www.w3.org/2000/svg" xmlns:xlink="http://www.w3.org/1999/xlink" x="0px" y="0px"
	 viewBox="0 0 24 24" style="enable-background:new 0 0 24 24;" xml:space="preserve">
<style type="text/css">
	.st0{display:none;}
	.st1{display:inline;}
	.st2{fill:none;stroke:#000000;stroke-linecap:round;stroke-linejoin:round;stroke-miterlimit:10;}
</style>
<g id="Filled_Icons" class="st0">
	<g class="st1">
		<path d="M12,0C5.4,0,0,5.4,0,12c0,3.2,1.2,6.2,3.5,8.5C5.8,22.7,8.8,24,12,24h0c6.6,0,12-5.4,12-12C24,5.4,18.6,0,12,0z M12,22
			L12,22L12,22c-2.7,0-5.2-1.1-7.1-2.9C3,17.2,2,14.7,2,12C2,6.5,6.5,2,12,2c5.5,0,10,4.5,10,10C22,17.5,17.5,22,12,22z"/>
		<path d="M12,6L12,6c-0.6,0-1,0.4-1,1l0,9.5c0,0.6,0.4,1,1,1h0c0.6,0,1-0.4,1-1L13,7C13,6.4,12.6,6,12,6z"/>
	</g>
</g>
<g id="Outline_Icons">
	<g>
		<circle class="st2" cx="11.5" cy="11.5" r="11"/>
		<line class="st2" x1="11.5" y1="16" x2="11.5" y2="6.5"/>
	</g>
</g>
</svg>
