<?xml version="1.0" encoding="utf-8"?>
<!-- Generator: Adobe Illustrator 19.2.0, SVG Export Plug-In . SVG Version: 6.00 Build 0)  -->
<svg version="1.1" id="Layer_1" xmlns="http://www.w3.org/2000/svg" xmlns:xlink="http://www.w3.org/1999/xlink" x="0px" y="0px"
	 viewBox="0 0 24 24" style="enable-background:new 0 0 24 24;" xml:space="preserve">
<style type="text/css">
	.st0{display:none;}
	.st1{display:inline;}
	.st2{fill:none;stroke:#000000;stroke-linejoin:round;stroke-miterlimit:10;}
	.st3{fill:none;stroke:#000000;stroke-linecap:round;stroke-linejoin:round;stroke-miterlimit:10;}
</style>
<g id="Filled_Icon" class="st0">
	<g class="st1">
		<path d="M17.5,1h-10C7.2,1,7,1.2,7,1.5v10C7,11.8,7.2,12,7.5,12h10c0.3,0,0.5-0.2,0.5-0.5v-10C18,1.2,17.8,1,17.5,1z M15.4,6.4
			c-0.1,0.1-0.2,0.1-0.4,0.1c-0.1,0-0.3,0-0.4-0.1L13,4.7v4.8c0,0.3-0.2,0.5-0.5,0.5C12.2,10,12,9.8,12,9.5V4.7l-1.6,1.6
			c-0.2,0.2-0.5,0.2-0.7,0c-0.2-0.2-0.2-0.5,0-0.7l2.5-2.5c0.2-0.2,0.5-0.2,0.7,0l2.5,2.5C15.5,5.8,15.5,6.2,15.4,6.4z"/>
		<path d="M10.5,13h-10C0.2,13,0,13.2,0,13.5v10C0,23.8,0.2,24,0.5,24h10c0.3,0,0.5-0.2,0.5-0.5v-10C11,13.2,10.8,13,10.5,13z
			 M8.5,19H3.9l1.9,1.6c0.2,0.2,0.2,0.5,0.1,0.7c-0.1,0.1-0.2,0.2-0.4,0.2c-0.1,0-0.2,0-0.3-0.1l-2.9-2.5c0,0,0,0,0,0
			c-0.2-0.2-0.2-0.5,0-0.7c0,0,0,0,0,0l2.9-2.5c0.2-0.2,0.5-0.2,0.7,0.1c0.2,0.2,0.2,0.5-0.1,0.7L4,18h4.5C8.8,18,9,18.2,9,18.5
			C9,18.8,8.8,19,8.5,19z"/>
		<path d="M23.5,13h-10c-0.3,0-0.5,0.2-0.5,0.5v10c0,0.3,0.2,0.5,0.5,0.5h10c0.3,0,0.5-0.2,0.5-0.5v-10C24,13.2,23.8,13,23.5,13z
			 M21.7,18.9C21.7,18.9,21.7,18.9,21.7,18.9l-2.9,2.5c-0.1,0.1-0.2,0.1-0.3,0.1c-0.1,0-0.3-0.1-0.4-0.2c-0.2-0.2-0.2-0.5,0.1-0.7
			l1.9-1.6h-4.5c-0.3,0-0.5-0.2-0.5-0.5c0-0.3,0.2-0.5,0.5-0.5H20l-1.9-1.6c-0.2-0.2-0.2-0.5-0.1-0.7c0.2-0.2,0.5-0.2,0.7-0.1
			l2.9,2.5c0,0,0,0,0,0C22,18.3,22,18.7,21.7,18.9z"/>
	</g>
</g>
<g id="Outline_Icons">
	<g>
		<rect x="0.5" y="13.5" class="st2" width="10" height="10"/>
		<rect x="13.5" y="13.5" class="st2" width="10" height="10"/>
		<rect x="7.5" y="1.5" class="st2" width="10" height="10"/>
		<line class="st3" x1="12.5" y1="9.5" x2="12.5" y2="3.5"/>
		<polyline class="st3" points="10,6 12.5,3.5 15,6 		"/>
		<line class="st3" x1="8.5" y1="18.5" x2="2.6" y2="18.5"/>
		<polyline class="st3" points="5.5,21 2.6,18.5 5.5,16 		"/>
		<line class="st3" x1="15.5" y1="18.5" x2="21.4" y2="18.5"/>
		<polyline class="st3" points="18.5,21 21.4,18.5 18.5,16 		"/>
	</g>
</g>
</svg>
