<?xml version="1.0" encoding="utf-8"?>
<!-- Generator: Adobe Illustrator 19.2.0, SVG Export Plug-In . SVG Version: 6.00 Build 0)  -->
<svg version="1.1" id="Layer_1" xmlns="http://www.w3.org/2000/svg" xmlns:xlink="http://www.w3.org/1999/xlink" x="0px" y="0px"
	 viewBox="0 0 24 24" style="enable-background:new 0 0 24 24;" xml:space="preserve">
<style type="text/css">
	.st0{display:none;}
	.st1{display:inline;}
	.st2{fill:none;stroke:#000000;stroke-linecap:round;stroke-linejoin:round;stroke-miterlimit:10;}
</style>
<g id="Filled_Icon" class="st0">
	<path class="st1" d="M19.5,0h-15C2,0,0,2,0,4.5v15C0,22,2,24,4.5,24h15c2.5,0,4.5-2,4.5-4.5v-15C24,2,22,0,19.5,0z M4,4.5
		c0-0.1,0-0.1,0-0.2C4.1,4.2,4.2,4.1,4.3,4c0.1,0,0.1,0,0.2,0H9c0.3,0,0.5,0.2,0.5,0.5C9.5,4.8,9.3,5,9,5H5.7l6.6,6.6
		c0.2,0.2,0.2,0.5,0,0.7c-0.1,0.1-0.2,0.1-0.4,0.1c-0.1,0-0.3,0-0.4-0.1L5,5.7V9c0,0.3-0.2,0.5-0.5,0.5C4.2,9.5,4,9.3,4,9V4.5z
		 M12,21c-5,0-9-4-9-9c0-0.3,0.2-0.5,0.5-0.5C3.8,11.5,4,11.7,4,12c0,4.4,3.6,8,8,8c4.4,0,8-3.6,8-8c0-4.4-3.6-8-8-8
		c-0.3,0-0.5-0.2-0.5-0.5C11.5,3.2,11.7,3,12,3c5,0,9,4,9,9C21,17,17,21,12,21z"/>
</g>
<g id="Outline_Icons">
	<g>
		<path class="st2" d="M23.5,19.5c0,2.2-1.8,4-4,4h-15c-2.2,0-4-1.8-4-4v-15c0-2.2,1.8-4,4-4h15c2.2,0,4,1.8,4,4V19.5z"/>
		<path class="st2" d="M12,3.5c4.7,0,8.5,3.8,8.5,8.5c0,4.7-3.8,8.5-8.5,8.5c-4.7,0-8.5-3.8-8.5-8.5"/>
		<line class="st2" x1="12" y1="12" x2="4.5" y2="4.5"/>
		<polyline class="st2" points="9,4.5 4.5,4.5 4.5,9 		"/>
	</g>
</g>
</svg>
