<?xml version="1.0" encoding="utf-8"?>
<!-- Generator: Adobe Illustrator 19.2.0, SVG Export Plug-In . SVG Version: 6.00 Build 0)  -->
<svg version="1.1" id="Layer_1" xmlns="http://www.w3.org/2000/svg" xmlns:xlink="http://www.w3.org/1999/xlink" x="0px" y="0px"
	 viewBox="0 0 24 24" style="enable-background:new 0 0 24 24;" xml:space="preserve">
<style type="text/css">
	.st0{display:none;}
	.st1{display:inline;}
	.st2{fill:none;stroke:#000000;stroke-linecap:round;stroke-linejoin:round;stroke-miterlimit:10;}
</style>
<g id="Filled_Icon" class="st0">
	<path class="st1" d="M19.5,0h-15C2,0,0,2,0,4.5v15C0,22,2,24,4.5,24h15c2.5,0,4.5-2,4.5-4.5v-15C24,2,22,0,19.5,0z M7,14.5
		C7,14.8,6.8,15,6.5,15C6.2,15,6,14.8,6,14.5v-6C6,8.2,6.2,8,6.5,8C6.8,8,7,8.2,7,8.5V14.5z M18.5,12h-7.8l2.1,2.1
		c0.2,0.2,0.2,0.5,0,0.7C12.8,15,12.6,15,12.5,15c-0.1,0-0.3,0-0.4-0.1l-3-3c-0.2-0.2-0.2-0.5,0-0.7l3-3c0.2-0.2,0.5-0.2,0.7,0
		c0.2,0.2,0.2,0.5,0,0.7L10.7,11h7.8c0.3,0,0.5,0.2,0.5,0.5C19,11.8,18.8,12,18.5,12z"/>
</g>
<g id="Outline_Icons">
	<g>
		<path class="st2" d="M23.5,19.5c0,2.2-1.8,4-4,4h-15c-2.2,0-4-1.8-4-4v-15c0-2.2,1.8-4,4-4h15c2.2,0,4,1.8,4,4V19.5z"/>
		<line class="st2" x1="18.5" y1="11.5" x2="9.5" y2="11.5"/>
		<polyline class="st2" points="12.5,14.5 9.5,11.5 12.5,8.5 		"/>
		<line class="st2" x1="6.5" y1="8.5" x2="6.5" y2="14.5"/>
	</g>
</g>
</svg>
