<?xml version="1.0" encoding="utf-8"?>
<!-- Generator: Adobe Illustrator 19.2.0, SVG Export Plug-In . SVG Version: 6.00 Build 0)  -->
<svg version="1.1" id="Layer_1" xmlns="http://www.w3.org/2000/svg" xmlns:xlink="http://www.w3.org/1999/xlink" x="0px" y="0px"
	 viewBox="0 0 24 24" style="enable-background:new 0 0 24 24;" xml:space="preserve">
<style type="text/css">
	.st0{display:none;}
	.st1{display:inline;}
	.st2{fill:none;stroke:#000000;stroke-linecap:round;stroke-linejoin:round;stroke-miterlimit:10;}
</style>
<g id="Filled_Icons" class="st0">
	<g class="st1">
		<path d="M15.4,6.6c-0.5-0.3-1.1-0.1-1.4,0.3c-0.3,0.5-0.1,1.1,0.3,1.4C16,9.3,17,11.1,17,13c0,1.5-0.6,2.8-1.6,3.9
			c-1,1-2.4,1.6-3.9,1.6c0,0,0,0,0,0C8.5,18.5,6,16,6,13c0-1.9,1-3.7,2.6-4.7C9.1,8,9.3,7.4,9,6.9C8.7,6.4,8.1,6.3,7.6,6.6
			C5.4,8,4,10.3,4,13c0,2,0.8,3.9,2.2,5.3c1.4,1.4,3.3,2.2,5.3,2.2c0,0,0,0,0,0c2,0,3.9-0.8,5.3-2.2C18.2,16.9,19,15,19,13
			C19,10.4,17.6,7.9,15.4,6.6z"/>
		<path d="M11.5,12.5L11.5,12.5c0.6,0,1-0.4,1-1l0-6.5c0-0.6-0.4-1-1-1c-0.5,0-1,0.4-1,1l0,6.5C10.5,12,10.9,12.5,11.5,12.5z"/>
	</g>
</g>
<g id="Outline_Icons">
	<g>
		<path class="st2" d="M14,7c2.3,1,4,3.3,4,6c0,3.6-2.9,6.5-6.5,6.5C7.9,19.5,5,16.6,5,13c0-2.7,1.6-5,4-6"/>
		<line class="st2" x1="11.5" y1="5" x2="11.5" y2="11.5"/>
	</g>
</g>
</svg>
