<?xml version="1.0" encoding="utf-8"?>
<!-- Generator: Adobe Illustrator 19.2.0, SVG Export Plug-In . SVG Version: 6.00 Build 0)  -->
<svg version="1.1" id="Layer_1" xmlns="http://www.w3.org/2000/svg" xmlns:xlink="http://www.w3.org/1999/xlink" x="0px" y="0px"
	 viewBox="0 0 24 24" enable-background="new 0 0 24 24" xml:space="preserve">
<g id="Filled_Icons" display="none">
	<g display="inline">
		<path d="M12,5.006c-3.859,0-7,3.141-7,7c0,3.86,3.141,7,7,7c3.859,0,7-3.14,7-7C19,8.146,15.859,5.006,12,5.006z M12,6.006
			c1.103,0,2,0.897,2,2c0,1.103-0.897,2-2,2c-1.103,0-2-0.897-2-2C10,6.903,10.897,6.006,12,6.006z M8,14.006c-1.103,0-2-0.896-2-2
			c0-1.103,0.897-2,2-2s2,0.897,2,2C10,13.109,9.103,14.006,8,14.006z M12,18.006c-1.103,0-2-0.896-2-2c0-1.104,0.897-2,2-2
			c1.103,0,2,0.896,2,2C14,17.109,13.103,18.006,12,18.006z M18,12.006c0,1.104-0.897,2-2,2c-1.104,0-2-0.896-2-2
			c0-1.103,0.896-2,2-2C17.103,10.006,18,10.903,18,12.006z"/>
		<path d="M12,0.006c-6.617,0-12,5.384-12,12c0,6.617,5.383,12,12,12c6.617,0,12-5.383,12-12C24,5.39,18.617,0.006,12,0.006z
			 M12,20.006c-4.411,0-8-3.589-8-8c0-4.411,3.589-8,8-8c4.411,0,8,3.589,8,8C20,16.417,16.411,20.006,12,20.006z"/>
	</g>
</g>
<g id="Outline_Icons">
	<g>
		
			<circle fill="none" stroke="#000000" stroke-linecap="round" stroke-linejoin="round" stroke-miterlimit="10" cx="12" cy="12" r="11.5"/>
		
			<circle fill="none" stroke="#000000" stroke-linecap="round" stroke-linejoin="round" stroke-miterlimit="10" cx="12" cy="12" r="7.5"/>
		
			<circle fill="none" stroke="#000000" stroke-linecap="round" stroke-linejoin="round" stroke-miterlimit="10" cx="12" cy="8" r="1.5"/>
		
			<circle fill="none" stroke="#000000" stroke-linecap="round" stroke-linejoin="round" stroke-miterlimit="10" cx="12" cy="16" r="1.5"/>
		
			<circle fill="none" stroke="#000000" stroke-linecap="round" stroke-linejoin="round" stroke-miterlimit="10" cx="16" cy="12" r="1.5"/>
		
			<circle fill="none" stroke="#000000" stroke-linecap="round" stroke-linejoin="round" stroke-miterlimit="10" cx="8" cy="12" r="1.5"/>
	</g>
</g>
</svg>
