<?xml version="1.0" encoding="utf-8"?>
<!-- Generator: Adobe Illustrator 19.2.0, SVG Export Plug-In . SVG Version: 6.00 Build 0)  -->
<svg version="1.1" id="Layer_1" xmlns="http://www.w3.org/2000/svg" xmlns:xlink="http://www.w3.org/1999/xlink" x="0px" y="0px"
	 viewBox="0 0 24 24" enable-background="new 0 0 24 24" xml:space="preserve">
<g id="Filled_Icons" display="none">
	<g display="inline">
		<path d="M20.287,10.199c-0.094-0.122-0.24-0.193-0.394-0.193H4.104c-0.153,0-0.299,0.07-0.394,0.191
			c-3.6,4.594-3.603,9.176-0.008,13.623c0.095,0.117,0.238,0.186,0.389,0.186h15.821c0.15,0,0.292-0.066,0.388-0.186
			C23.894,19.41,23.891,14.826,20.287,10.199z M11,18.506c0,0.275-0.224,0.5-0.5,0.5h-5c-0.276,0-0.5-0.225-0.5-0.5v-5
			c0-0.275,0.224-0.5,0.5-0.5h5c0.276,0,0.5,0.225,0.5,0.5V18.506z M19,18.506c0,0.275-0.225,0.5-0.5,0.5h-5
			c-0.275,0-0.5-0.225-0.5-0.5v-5c0-0.275,0.225-0.5,0.5-0.5h5c0.275,0,0.5,0.225,0.5,0.5V18.506z"/>
		<g>
			<path d="M16,9.006v-1.5c0-0.276-0.225-0.5-0.5-0.5h-7c-0.276,0-0.5,0.224-0.5,0.5v1.5H16z"/>
		</g>
		<g>
			<path d="M23.48,0.373c-0.073-0.268-0.35-0.425-0.615-0.348L14,2.492V1.506c0-0.276-0.225-0.5-0.5-0.5h-3
				c-0.276,0-0.5,0.224-0.5,0.5v2.115L0.873,6.023c-0.268,0.07-0.427,0.343-0.356,0.61c0.059,0.225,0.261,0.373,0.482,0.373
				c0.043,0,0.085-0.005,0.128-0.016L10,4.654v1.352h4V3.529l9.134-2.542C23.398,0.913,23.557,0.638,23.48,0.373z"/>
		</g>
	</g>
</g>
<g id="Outline_Icons">
	<g>
		<g>
			<path fill="none" stroke="#000000" stroke-linejoin="round" stroke-miterlimit="10" d="M19.5,23.5h-15c-4-4.583-4-9.25,0-14h15
				C23.502,14.291,23.5,18.959,19.5,23.5z"/>
			<rect x="8.5" y="6.5" fill="none" stroke="#000000" stroke-linejoin="round" stroke-miterlimit="10" width="7" height="3"/>
			<rect x="10.5" y="0.5" fill="none" stroke="#000000" stroke-linejoin="round" stroke-miterlimit="10" width="3" height="6"/>
			<rect x="5.5" y="12.5" fill="none" stroke="#000000" stroke-linejoin="round" stroke-miterlimit="10" width="5" height="5"/>
			<rect x="13.5" y="12.5" fill="none" stroke="#000000" stroke-linejoin="round" stroke-miterlimit="10" width="5" height="5"/>
		</g>
		
			<line fill="none" stroke="#000000" stroke-linecap="round" stroke-linejoin="round" stroke-miterlimit="10" x1="1" y1="6.5" x2="10.5" y2="4"/>
		
			<line fill="none" stroke="#000000" stroke-linecap="round" stroke-linejoin="round" stroke-miterlimit="10" x1="13.5" y1="3.144" x2="23" y2="0.5"/>
	</g>
</g>
</svg>
