<?xml version="1.0" encoding="utf-8"?>
<!-- Generator: Adobe Illustrator 19.2.0, SVG Export Plug-In . SVG Version: 6.00 Build 0)  -->
<svg version="1.1" id="Layer_1" xmlns="http://www.w3.org/2000/svg" xmlns:xlink="http://www.w3.org/1999/xlink" x="0px" y="0px"
	 viewBox="0 0 24 24" style="enable-background:new 0 0 24 24;" xml:space="preserve">
<style type="text/css">
	.st0{display:none;}
	.st1{display:inline;}
	.st2{fill:none;stroke:#000000;stroke-linecap:round;stroke-linejoin:round;stroke-miterlimit:10;}
</style>
<g id="Filled_Icons" class="st0">
	<g class="st1">
		<path d="M17.5,18h-11c-0.1,0-0.3,0.1-0.4,0.2C6,18.3,6,18.5,6,18.6l1,5c0,0.2,0.3,0.4,0.5,0.4h9c0.2,0,0.4-0.2,0.5-0.4l1-5
			c0-0.1,0-0.3-0.1-0.4C17.8,18.1,17.6,18,17.5,18z"/>
		<path d="M22,11.5h-1c0-0.1,0-0.1,0-0.2l0.9-0.9c0.2-0.2,0.2-0.5,0-0.7c-0.2-0.2-0.5-0.2-0.7,0l-0.7,0.7c-0.1-0.1-0.3-0.2-0.5-0.3
			V9c0-0.3-0.2-0.5-0.5-0.5C19.2,8.5,19,8.7,19,9v1.1c-0.2,0.1-0.3,0.1-0.5,0.3l-0.7-0.7c-0.2-0.2-0.5-0.2-0.7,0
			c-0.2,0.2-0.2,0.5,0,0.7l0.9,0.9c0,0,0,0.1,0,0.1c-0.1,0.6-0.2,0.6-0.5,0.6H16V6.5c0-0.1,0-0.3-0.1-0.5h1.6C17.8,6,18,5.8,18,5.5
			C18,5.2,17.8,5,17.5,5h-1.9c-0.1-0.3-0.3-0.7-0.5-1l1.3-1.7c0.2-0.2,0.1-0.5-0.1-0.7c-0.2-0.2-0.5-0.1-0.7,0.1l-1.2,1.6
			c-0.5-0.4-1.1-0.7-1.9-0.8v-2C12.5,0.2,12.3,0,12,0c-0.3,0-0.5,0.2-0.5,0.5v2c-0.8,0.1-1.4,0.4-1.9,0.8L8.4,1.7
			C8.2,1.5,7.9,1.4,7.7,1.6C7.5,1.8,7.4,2.1,7.6,2.3L8.9,4C8.2,5,8,6.1,8,6.5V9H7.5C7.3,9,7,8.7,7,8.5V7c0-0.4-0.1-0.9-0.4-1.3
			l0.8-0.9c0.2-0.2,0.2-0.5,0-0.7C7.1,3.9,6.8,4,6.6,4.2l-0.9,1c-0.1,0-0.2-0.1-0.2-0.1V4c0-0.3-0.2-0.5-0.5-0.5
			C4.7,3.5,4.5,3.7,4.5,4v1.1c-0.1,0-0.1,0-0.2,0.1l-1.1-1C3,4,2.7,4,2.5,4.2c-0.2,0.2-0.2,0.5,0,0.7l0.9,0.8C3.1,6.1,3,6.6,3,7v3
			c0,1.5,1.2,2,2,2h3v2H6.5C6.2,14,6,14.2,6,14.5C6,14.8,6.2,15,6.5,15H8v1.5C8,16.8,8.2,17,8.5,17h7c0.3,0,0.5-0.2,0.5-0.5V15h3
			c1.3,0,2-1.3,2-2v-0.5h1c0.3,0,0.5-0.2,0.5-0.5C22.5,11.7,22.3,11.5,22,11.5z"/>
	</g>
</g>
<g id="Outline_Icons">
	<g>
		<polygon class="st2" points="16.5,23.5 7.5,23.5 6.5,17.5 17.5,17.5 		"/>
		<path class="st2" d="M8.5,17.5v-6c-0.5,0-3.5,0-3.5,0s-1.5,0-1.5-1.5s0-2.5,0-3c0,0,0-1.5,1.5-1.5S6.5,7,6.5,7v1.5
			c0,0.5,0.5,1,1,1s1,0,1,0s0-2.5,0-3S9,3,12,3s3.5,3,3.5,3.5s0,6,0,6s1,0,2,0c1.5,0,0.5-2,2-2c1,0,1,1,1,1.5c0,1,0,0.5,0,1
			S20,14.5,19,14.5s-3.5,0-3.5,0v3"/>
		<line class="st2" x1="19.5" y1="9" x2="19.5" y2="10.5"/>
		<line class="st2" x1="21.5" y1="10" x2="20.4" y2="11.1"/>
		<line class="st2" x1="22" y1="12" x2="20.5" y2="12"/>
		<line class="st2" x1="17.5" y1="10" x2="18.6" y2="11.1"/>
		<line class="st2" x1="11.5" y1="0.5" x2="11.5" y2="3"/>
		<line class="st2" x1="16" y1="2" x2="14.5" y2="4"/>
		<line class="st2" x1="8" y1="2" x2="9.5" y2="4"/>
		<line class="st2" x1="17.5" y1="5.5" x2="15.3" y2="5.5"/>
		<line class="st2" x1="5" y1="4" x2="5" y2="5.5"/>
		<line class="st2" x1="7" y1="4.5" x2="5.9" y2="5.7"/>
		<line class="st2" x1="2.9" y1="4.5" x2="4.2" y2="5.7"/>
		<line class="st2" x1="6.5" y1="14.5" x2="8.5" y2="14.5"/>
	</g>
</g>
</svg>
