<?xml version="1.0" encoding="utf-8"?>
<!-- Generator: Adobe Illustrator 19.2.0, SVG Export Plug-In . SVG Version: 6.00 Build 0)  -->
<svg version="1.1" id="Layer_1" xmlns="http://www.w3.org/2000/svg" xmlns:xlink="http://www.w3.org/1999/xlink" x="0px" y="0px"
	 viewBox="0 0 24 24" enable-background="new 0 0 24 24" xml:space="preserve">
<g id="Filled_Icons" display="none">
	<g display="inline">
		<path d="M0,22.006c0,1.104,0.896,2,2,2h21.5c0.275,0,0.5-0.225,0.5-0.5v-3.5H0V22.006z"/>
		<path d="M16.853,8.152c-0.002-0.001-0.004-0.002-0.006-0.004C16.943,7.783,17,7.401,17,7.006c0-1.689-0.938-3.162-2.318-3.932
			c0.897-1.586,2.81-2.13,4.821-1.308c0.254,0.104,0.548-0.019,0.651-0.274c0.104-0.254-0.018-0.548-0.273-0.652
			c-2.516-1.028-5.018-0.248-6.13,1.847c-0.398-0.114-0.817-0.181-1.251-0.181c-1.231,0-2.348,0.498-3.161,1.303
			c-5.257,1.19-9.091,5.83-9.317,11.197h23.686L16.853,8.152z M12.5,10.506c-1.93,0-3.5-1.569-3.5-3.5c0-1.93,1.57-3.5,3.5-3.5
			c1.93,0,3.5,1.57,3.5,3.5C16,8.937,14.43,10.506,12.5,10.506z"/>
		<rect y="16.006" width="24" height="3"/>
	</g>
</g>
<g id="Outline_Icons">
	<g>
		<line fill="none" stroke="#000000" stroke-linejoin="round" stroke-miterlimit="10" x1="0.5" y1="19.5" x2="23.5" y2="19.5"/>
		<path fill="none" stroke="#000000" stroke-linejoin="round" stroke-miterlimit="10" d="M0.5,22c0,0.828,0.672,1.5,1.5,1.5h21.5v-8
			h-23V22z"/>
		
			<line fill="none" stroke="#000000" stroke-linecap="round" stroke-linejoin="round" stroke-miterlimit="10" x1="16.5" y1="8.5" x2="23.5" y2="15.5"/>
		
			<circle fill="none" stroke="#000000" stroke-linecap="round" stroke-linejoin="round" stroke-miterlimit="10" cx="12.5" cy="7" r="4"/>
		<path fill="none" stroke="#000000" stroke-linecap="round" stroke-linejoin="round" stroke-miterlimit="10" d="M14.014,3.297
			c0.94-2.301,3.379-2.94,5.68-2"/>
		<path fill="none" stroke="#000000" stroke-linecap="round" stroke-linejoin="round" stroke-miterlimit="10" d="M0.5,15.5
			c0-5.526,3.898-10.144,9.096-11.248"/>
		
			<line fill="none" stroke="#000000" stroke-linecap="round" stroke-linejoin="round" stroke-miterlimit="10" x1="16.273" y1="8.274" x2="23.5" y2="15.5"/>
	</g>
</g>
</svg>
