<?xml version="1.0" encoding="utf-8"?>
<!-- Generator: Adobe Illustrator 19.2.0, SVG Export Plug-In . SVG Version: 6.00 Build 0)  -->
<svg version="1.1" id="Layer_1" xmlns="http://www.w3.org/2000/svg" xmlns:xlink="http://www.w3.org/1999/xlink" x="0px" y="0px"
	 viewBox="0 0 24 24" style="enable-background:new 0 0 24 24;" xml:space="preserve">
<style type="text/css">
	.st0{display:none;}
	.st1{display:inline;}
	.st2{fill:none;stroke:#000000;stroke-linecap:round;stroke-linejoin:round;stroke-miterlimit:10;}
</style>
<g id="Filled_Icon" class="st0">
	<g class="st1">
		<path d="M19.5,0h-14C4.7,0,4,0.7,4,1.5v21C4,23.3,4.7,24,5.5,24h14c0.8,0,1.5-0.7,1.5-1.5v-21C21,0.7,20.3,0,19.5,0z M8.5,21h-1
			C7.2,21,7,20.8,7,20.5C7,20.2,7.2,20,7.5,20h1C8.8,20,9,20.2,9,20.5C9,20.8,8.8,21,8.5,21z M8.5,18h-1C7.2,18,7,17.8,7,17.5
			C7,17.2,7.2,17,7.5,17h1C8.8,17,9,17.2,9,17.5C9,17.8,8.8,18,8.5,18z M8.5,15h-1C7.2,15,7,14.8,7,14.5C7,14.2,7.2,14,7.5,14h1
			C8.8,14,9,14.2,9,14.5C9,14.8,8.8,15,8.5,15z M8.5,12h-1C7.2,12,7,11.8,7,11.5C7,11.2,7.2,11,7.5,11h1C8.8,11,9,11.2,9,11.5
			C9,11.8,8.8,12,8.5,12z M11.5,21h-1c-0.3,0-0.5-0.2-0.5-0.5c0-0.3,0.2-0.5,0.5-0.5h1c0.3,0,0.5,0.2,0.5,0.5
			C12,20.8,11.8,21,11.5,21z M11.5,18h-1c-0.3,0-0.5-0.2-0.5-0.5c0-0.3,0.2-0.5,0.5-0.5h1c0.3,0,0.5,0.2,0.5,0.5
			C12,17.8,11.8,18,11.5,18z M11.5,15h-1c-0.3,0-0.5-0.2-0.5-0.5c0-0.3,0.2-0.5,0.5-0.5h1c0.3,0,0.5,0.2,0.5,0.5
			C12,14.8,11.8,15,11.5,15z M11.5,12h-1c-0.3,0-0.5-0.2-0.5-0.5c0-0.3,0.2-0.5,0.5-0.5h1c0.3,0,0.5,0.2,0.5,0.5
			C12,11.8,11.8,12,11.5,12z M17.5,21h-4c-0.3,0-0.5-0.2-0.5-0.5c0-0.3,0.2-0.5,0.5-0.5h4c0.3,0,0.5,0.2,0.5,0.5
			C18,20.8,17.8,21,17.5,21z M13.5,14h1c0.3,0,0.5,0.2,0.5,0.5c0,0.3-0.2,0.5-0.5,0.5h-1c-0.3,0-0.5-0.2-0.5-0.5
			C13,14.2,13.2,14,13.5,14z M13,11.5c0-0.3,0.2-0.5,0.5-0.5h1c0.3,0,0.5,0.2,0.5,0.5c0,0.3-0.2,0.5-0.5,0.5h-1
			C13.2,12,13,11.8,13,11.5z M13.5,17h1c0.3,0,0.5,0.2,0.5,0.5c0,0.3-0.2,0.5-0.5,0.5h-1c-0.3,0-0.5-0.2-0.5-0.5
			C13,17.2,13.2,17,13.5,17z M17.5,18h-1c-0.3,0-0.5-0.2-0.5-0.5c0-0.3,0.2-0.5,0.5-0.5h1c0.3,0,0.5,0.2,0.5,0.5
			C18,17.8,17.8,18,17.5,18z M17.5,15h-1c-0.3,0-0.5-0.2-0.5-0.5c0-0.3,0.2-0.5,0.5-0.5h1c0.3,0,0.5,0.2,0.5,0.5
			C18,14.8,17.8,15,17.5,15z M17.5,12h-1c-0.3,0-0.5-0.2-0.5-0.5c0-0.3,0.2-0.5,0.5-0.5h1c0.3,0,0.5,0.2,0.5,0.5
			C18,11.8,17.8,12,17.5,12z M19,7.5C19,7.8,18.8,8,18.5,8h-12C6.2,8,6,7.8,6,7.5v-5C6,2.2,6.2,2,6.5,2h12C18.8,2,19,2.2,19,2.5V7.5
			z"/>
		<path d="M16.5,4C16.2,4,16,4.2,16,4.5v1C16,5.8,16.2,6,16.5,6C16.8,6,17,5.8,17,5.5v-1C17,4.2,16.8,4,16.5,4z"/>
	</g>
</g>
<g id="Outline_Icons">
	<g>
		<path class="st2" d="M20.5,22.5c0,0.5-0.4,1-1,1h-14c-0.5,0-1-0.5-1-1v-21c0-0.5,0.5-1,1-1h14c0.6,0,1,0.5,1,1V22.5z"/>
		<rect x="6.5" y="2.5" class="st2" width="12" height="5"/>
		<line class="st2" x1="16.5" y1="4.5" x2="16.5" y2="5.5"/>
		<line class="st2" x1="7.5" y1="11.5" x2="8.5" y2="11.5"/>
		<line class="st2" x1="10.5" y1="11.5" x2="11.5" y2="11.5"/>
		<line class="st2" x1="13.5" y1="11.5" x2="14.5" y2="11.5"/>
		<line class="st2" x1="16.5" y1="11.5" x2="17.5" y2="11.5"/>
		<line class="st2" x1="7.5" y1="14.5" x2="8.5" y2="14.5"/>
		<line class="st2" x1="10.5" y1="14.5" x2="11.5" y2="14.5"/>
		<line class="st2" x1="13.5" y1="14.5" x2="14.5" y2="14.5"/>
		<line class="st2" x1="16.5" y1="14.5" x2="17.5" y2="14.5"/>
		<line class="st2" x1="7.5" y1="17.5" x2="8.5" y2="17.5"/>
		<line class="st2" x1="10.5" y1="17.5" x2="11.5" y2="17.5"/>
		<line class="st2" x1="13.5" y1="17.5" x2="14.5" y2="17.5"/>
		<line class="st2" x1="16.5" y1="17.5" x2="17.5" y2="17.5"/>
		<line class="st2" x1="7.5" y1="20.5" x2="8.5" y2="20.5"/>
		<line class="st2" x1="10.5" y1="20.5" x2="11.5" y2="20.5"/>
		<line class="st2" x1="13.5" y1="20.5" x2="17.5" y2="20.5"/>
	</g>
</g>
</svg>
