<?xml version="1.0" encoding="utf-8"?>
<!-- Generator: Adobe Illustrator 19.2.0, SVG Export Plug-In . SVG Version: 6.00 Build 0)  -->
<svg version="1.1" id="Layer_1" xmlns="http://www.w3.org/2000/svg" xmlns:xlink="http://www.w3.org/1999/xlink" x="0px" y="0px"
	 viewBox="0 0 24 24" style="enable-background:new 0 0 24 24;" xml:space="preserve">
<style type="text/css">
	.st0{display:none;}
	.st1{display:inline;}
	.st2{fill:none;stroke:#000000;stroke-linecap:round;stroke-linejoin:round;stroke-miterlimit:10;}
</style>
<g id="Filled_Icon" class="st0">
	<g class="st1">
		<path d="M0,3.5V11h11V0H3.5C1.6,0,0,1.6,0,3.5z M5,4c0-0.3,0.2-0.5,0.5-0.5C5.8,3.5,6,3.7,6,4v2h2c0.3,0,0.5,0.2,0.5,0.5
			C8.5,6.8,8.3,7,8,7H6v2c0,0.3-0.2,0.5-0.5,0.5C5.2,9.5,5,9.3,5,9V7H3C2.7,7,2.5,6.8,2.5,6.5C2.5,6.2,2.7,6,3,6h2V4z"/>
		<path d="M12,24h8.5c1.9,0,3.5-1.6,3.5-3.5V12H12V24z M15,16h5c0.3,0,0.5,0.2,0.5,0.5c0,0.3-0.2,0.5-0.5,0.5h-5
			c-0.3,0-0.5-0.2-0.5-0.5C14.5,16.2,14.7,16,15,16z M15,18h5c0.3,0,0.5,0.2,0.5,0.5c0,0.3-0.2,0.5-0.5,0.5h-5
			c-0.3,0-0.5-0.2-0.5-0.5C14.5,18.2,14.7,18,15,18z"/>
		<path d="M20.5,0H12v11h12V3.5C24,1.6,22.4,0,20.5,0z M20,7h-5c-0.3,0-0.5-0.2-0.5-0.5C14.5,6.2,14.7,6,15,6h5
			c0.3,0,0.5,0.2,0.5,0.5C20.5,6.8,20.3,7,20,7z"/>
		<path d="M0,20.5C0,22.4,1.6,24,3.5,24H11V12H0V20.5z M3.6,15.9c-0.2-0.2-0.2-0.5,0-0.7c0.2-0.2,0.5-0.2,0.7,0L6,16.8l1.6-1.6
			c0.2-0.2,0.5-0.2,0.7,0c0.2,0.2,0.2,0.5,0,0.7l-1.6,1.6l1.6,1.6c0.2,0.2,0.2,0.5,0,0.7C8.3,20,8.1,20,8,20c-0.1,0-0.3,0-0.4-0.1
			L6,18.2l-1.6,1.6C4.3,20,4.1,20,4,20c-0.1,0-0.3,0-0.4-0.1c-0.2-0.2-0.2-0.5,0-0.7l1.6-1.6L3.6,15.9z"/>
	</g>
</g>
<g id="Outline_Icons">
	<g>
		<line class="st2" x1="8" y1="19.5" x2="4" y2="15.5"/>
		<line class="st2" x1="4" y1="19.5" x2="8" y2="15.5"/>
		<line class="st2" x1="5.5" y1="4" x2="5.5" y2="9"/>
		<line class="st2" x1="8" y1="6.5" x2="3" y2="6.5"/>
		<line class="st2" x1="15" y1="6.5" x2="20" y2="6.5"/>
		<line class="st2" x1="15" y1="18.5" x2="20" y2="18.5"/>
		<line class="st2" x1="15" y1="18.5" x2="20" y2="18.5"/>
		<line class="st2" x1="15" y1="16.5" x2="20" y2="16.5"/>
		<line class="st2" x1="11.5" y1="0.5" x2="11.5" y2="23.5"/>
		<line class="st2" x1="0.5" y1="11.5" x2="23.5" y2="11.5"/>
		<path class="st2" d="M23.5,20.5c0,1.7-1.3,3-3,3h-17c-1.7,0-3-1.3-3-3v-17c0-1.7,1.3-3,3-3h17c1.7,0,3,1.3,3,3V20.5z"/>
	</g>
</g>
</svg>
