<?xml version="1.0" encoding="utf-8"?>
<!-- Generator: Adobe Illustrator 19.2.0, SVG Export Plug-In . SVG Version: 6.00 Build 0)  -->
<svg version="1.1" id="Outline_Icons" xmlns="http://www.w3.org/2000/svg" xmlns:xlink="http://www.w3.org/1999/xlink" x="0px"
	 y="0px" viewBox="0 0 24 24" style="enable-background:new 0 0 24 24;" xml:space="preserve">
<style type="text/css">
	.st0{fill:none;stroke:#000000;stroke-linejoin:round;stroke-miterlimit:10;}
</style>
<g>
	<path class="st0" d="M20.5,21c0,1.4-1.1,2.5-2.5,2.5H5c-1.4,0-2.5-1.1-2.5-2.5V3c0-1.4,1.1-2.5,2.5-2.5h13c1.4,0,2.5,1.1,2.5,2.5
		V21z"/>
	<path class="st0" d="M18.5,5.6c0,0.5-0.4,0.9-0.9,0.9H5.4c-0.5,0-0.9-0.4-0.9-0.9V3.4c0-0.5,0.4-0.9,0.9-0.9h12.2
		c0.5,0,0.9,0.4,0.9,0.9V5.6z"/>
	<line class="st0" x1="2.5" y1="15.5" x2="20.5" y2="15.5"/>
	<line class="st0" x1="2.5" y1="8.5" x2="20.5" y2="8.5"/>
	<line class="st0" x1="11.5" y1="8.5" x2="11.5" y2="23.5"/>
	<line class="st0" x1="4.5" y1="12.5" x2="8.5" y2="12.5"/>
	<line class="st0" x1="14" y1="12.5" x2="18" y2="12.5"/>
	<line class="st0" x1="5.4" y1="17.8" x2="8.6" y2="21"/>
	<line class="st0" x1="5.4" y1="21" x2="8.6" y2="17.8"/>
	<line class="st0" x1="14" y1="20.5" x2="18" y2="20.5"/>
	<line class="st0" x1="14" y1="18.5" x2="18" y2="18.5"/>
	<line class="st0" x1="6.5" y1="10.5" x2="6.5" y2="14.5"/>
</g>
</svg>
