<?xml version="1.0" encoding="utf-8"?>
<!-- Generator: Adobe Illustrator 19.2.0, SVG Export Plug-In . SVG Version: 6.00 Build 0)  -->
<svg version="1.1" id="Layer_1" xmlns="http://www.w3.org/2000/svg" xmlns:xlink="http://www.w3.org/1999/xlink" x="0px" y="0px"
	 viewBox="0 0 24 24" style="enable-background:new 0 0 24 24;" xml:space="preserve">
<style type="text/css">
	.st0{display:none;}
	.st1{display:inline;}
	.st2{fill:none;stroke:#000000;stroke-linecap:round;stroke-linejoin:round;stroke-miterlimit:10;}
</style>
<g id="Filled_Icons" class="st0">
	<g class="st1">
		<rect x="12.5" y="16" width="4.5" height="3"/>
		<rect x="7" y="16" width="4.5" height="3"/>
		<rect x="12.5" y="12" width="4.5" height="3"/>
		<rect x="7" y="12" width="4.5" height="3"/>
		<path d="M0,23.5C0,23.8,0.2,24,0.5,24h23c0.3,0,0.5-0.2,0.5-0.5V8H0V23.5z M2.5,16C2.2,16,2,15.8,2,15.5C2,15.2,2.2,15,2.5,15H6
			v-3H2.5C2.2,12,2,11.8,2,11.5C2,11.2,2.2,11,2.5,11H6V9.5C6,9.2,6.2,9,6.5,9C6.8,9,7,9.2,7,9.5V11h4.5V9.5C11.5,9.2,11.7,9,12,9
			c0.3,0,0.5,0.2,0.5,0.5V11H17V9.5C17,9.2,17.2,9,17.5,9C17.8,9,18,9.2,18,9.5V11h3.5c0.3,0,0.5,0.2,0.5,0.5c0,0.3-0.2,0.5-0.5,0.5
			H18v3h3.5c0.3,0,0.5,0.2,0.5,0.5c0,0.3-0.2,0.5-0.5,0.5H18v3h3.5c0.3,0,0.5,0.2,0.5,0.5c0,0.3-0.2,0.5-0.5,0.5H18v1.5
			c0,0.3-0.2,0.5-0.5,0.5c-0.3,0-0.5-0.2-0.5-0.5V20h-4.5v1.5c0,0.3-0.2,0.5-0.5,0.5c-0.3,0-0.5-0.2-0.5-0.5V20H7v1.5
			C7,21.8,6.8,22,6.5,22C6.2,22,6,21.8,6,21.5V20H2.5C2.2,20,2,19.8,2,19.5C2,19.2,2.2,19,2.5,19H6v-3H2.5z"/>
		<path d="M23.5,2H20V0.5C20,0.2,19.8,0,19.5,0h-3C16.2,0,16,0.2,16,0.5V2H8V0.5C8,0.2,7.8,0,7.5,0h-3C4.2,0,4,0.2,4,0.5V2H0.5
			C0.2,2,0,2.2,0,2.5V7h24V2.5C24,2.2,23.8,2,23.5,2z M7,4H5V1h2V4z M19,4h-2V1h2V4z"/>
	</g>
</g>
<g id="Outline_Icons">
	<g>
		<polyline class="st2" points="4.5,2.5 0.5,2.5 0.5,23.5 23.5,23.5 23.5,2.5 19.5,2.5 		"/>
		<rect x="4.5" y="0.5" class="st2" width="3" height="4"/>
		<rect x="16.5" y="0.5" class="st2" width="3" height="4"/>
		<line class="st2" x1="7.5" y1="2.5" x2="16.5" y2="2.5"/>
		<line class="st2" x1="0.5" y1="7.5" x2="23.5" y2="7.5"/>
		<line class="st2" x1="6.5" y1="9.5" x2="6.5" y2="21.5"/>
		<line class="st2" x1="11.5" y1="9.5" x2="11.5" y2="21.5"/>
		<line class="st2" x1="16.5" y1="9.5" x2="16.5" y2="21.5"/>
		<line class="st2" x1="2.5" y1="11.5" x2="21.5" y2="11.5"/>
		<line class="st2" x1="2.5" y1="15.5" x2="21.5" y2="15.5"/>
		<line class="st2" x1="2.5" y1="19.5" x2="21.5" y2="19.5"/>
	</g>
</g>
</svg>
