<?xml version="1.0" encoding="utf-8"?>
<!-- Generator: Adobe Illustrator 19.2.0, SVG Export Plug-In . SVG Version: 6.00 Build 0)  -->
<svg version="1.1" id="Layer_1" xmlns="http://www.w3.org/2000/svg" xmlns:xlink="http://www.w3.org/1999/xlink" x="0px" y="0px"
	 viewBox="0 0 24 24" style="enable-background:new 0 0 24 24;" xml:space="preserve">
<style type="text/css">
	.st0{display:none;}
	.st1{display:inline;}
	.st2{fill:none;stroke:#000000;stroke-linecap:round;stroke-linejoin:round;stroke-miterlimit:10;}
</style>
<g id="Filled_Icons" class="st0">
	<g class="st1">
		<path d="M0,23.5C0,23.8,0.2,24,0.5,24h23c0.3,0,0.5-0.2,0.5-0.5V8H0V23.5z M11.5,11.5c0-0.3,0.2-0.5,0.5-0.5h5
			c0.2,0,0.3,0.1,0.4,0.2c0.1,0.1,0.1,0.3,0.1,0.5L16.2,15h0.3c0.3,0,0.5,0.2,0.5,0.5c0,0.3-0.2,0.5-0.5,0.5h-0.7l-1.4,3.7
			C14.4,19.9,14.2,20,14,20c-0.1,0-0.1,0-0.2,0c-0.3-0.1-0.4-0.4-0.3-0.6l1.2-3.3h-1.3c-0.3,0-0.5-0.2-0.5-0.5
			c0-0.3,0.2-0.5,0.5-0.5h1.7l1.1-3h-3.8v0.5c0,0.3-0.2,0.5-0.5,0.5c-0.3,0-0.5-0.2-0.5-0.5V11.5z M7.9,13.9c-0.2,0.2-0.5,0.2-0.7,0
			c-0.2-0.2-0.2-0.5,0-0.7l2-2C9.3,11,9.5,11,9.7,11c0.2,0.1,0.3,0.3,0.3,0.5V19h1.5c0.3,0,0.5,0.2,0.5,0.5c0,0.3-0.2,0.5-0.5,0.5
			h-4C7.2,20,7,19.8,7,19.5C7,19.2,7.2,19,7.5,19H9v-6.3L7.9,13.9z"/>
		<path d="M23.5,2H20V0.5C20,0.2,19.8,0,19.5,0h-3C16.2,0,16,0.2,16,0.5V2H8V0.5C8,0.2,7.8,0,7.5,0h-3C4.2,0,4,0.2,4,0.5V2H0.5
			C0.2,2,0,2.2,0,2.5V7h24V2.5C24,2.2,23.8,2,23.5,2z M7,4H5V1h2V4z M19,4h-2V1h2V4z"/>
	</g>
</g>
<g id="Outline_Icons">
	<g>
		<polyline class="st2" points="4.5,2.5 0.5,2.5 0.5,23.5 23.5,23.5 23.5,2.5 19.5,2.5 		"/>
		<rect x="4.5" y="0.5" class="st2" width="3" height="4"/>
		<rect x="16.5" y="0.5" class="st2" width="3" height="4"/>
		<line class="st2" x1="7.5" y1="2.5" x2="16.5" y2="2.5"/>
		<line class="st2" x1="0.5" y1="7.5" x2="23.5" y2="7.5"/>
		<g>
			<polyline class="st2" points="9.5,19.5 9.5,11.5 7.5,13.5 			"/>
			<line class="st2" x1="7.5" y1="19.5" x2="11.5" y2="19.5"/>
		</g>
		<g>
			<polyline class="st2" points="14,19.5 17,11.5 12,11.5 12,12.5 			"/>
			<line class="st2" x1="13.5" y1="15.5" x2="16.5" y2="15.5"/>
		</g>
	</g>
</g>
</svg>
