<?xml version="1.0" encoding="utf-8"?>
<!-- Generator: Adobe Illustrator 19.2.0, SVG Export Plug-In . SVG Version: 6.00 Build 0)  -->
<svg version="1.1" id="Layer_1" xmlns="http://www.w3.org/2000/svg" xmlns:xlink="http://www.w3.org/1999/xlink" x="0px" y="0px"
	 viewBox="0 0 24 24" style="enable-background:new 0 0 24 24;" xml:space="preserve">
<style type="text/css">
	.st0{display:none;}
	.st1{display:inline;}
	.st2{fill:none;stroke:#000000;stroke-linecap:round;stroke-linejoin:round;stroke-miterlimit:10;}
</style>
<g id="Filled_Icon" class="st0">
	<path class="st1" d="M22.5,4h-21C1.2,4,1,4.2,1,4.5v14C1,18.8,1.2,19,1.5,19h21c0.3,0,0.5-0.2,0.5-0.5v-14C23,4.2,22.8,4,22.5,4z
		 M8.5,8H5v3.5C5,11.8,4.8,12,4.5,12C4.2,12,4,11.8,4,11.5v-4C4,7.2,4.2,7,4.5,7h4C8.8,7,9,7.2,9,7.5C9,7.8,8.8,8,8.5,8z M20,15.5
		c0,0.3-0.2,0.5-0.5,0.5h-4c-0.3,0-0.5-0.2-0.5-0.5c0-0.3,0.2-0.5,0.5-0.5H19v-3.5c0-0.3,0.2-0.5,0.5-0.5c0.3,0,0.5,0.2,0.5,0.5
		V15.5z"/>
</g>
<g id="Outline_Icons">
	<g>
		<rect x="1.5" y="4.5" class="st2" width="21" height="14"/>
		<polyline class="st2" points="4.5,11.5 4.5,7.5 8.5,7.5 		"/>
		<polyline class="st2" points="19.5,11.5 19.5,15.5 15.5,15.5 		"/>
	</g>
</g>
</svg>
