<?xml version="1.0" encoding="utf-8"?>
<!-- Generator: Adobe Illustrator 19.2.0, SVG Export Plug-In . SVG Version: 6.00 Build 0)  -->
<svg version="1.1" id="Layer_1" xmlns="http://www.w3.org/2000/svg" xmlns:xlink="http://www.w3.org/1999/xlink" x="0px" y="0px"
	 viewBox="0 0 24 24" style="enable-background:new 0 0 24 24;" xml:space="preserve">
<style type="text/css">
	.st0{display:none;}
	.st1{display:inline;}
	.st2{fill:none;stroke:#000000;stroke-linecap:round;stroke-linejoin:round;stroke-miterlimit:10;}
</style>
<g id="Filled_Icon" class="st0">
	<path class="st1" d="M21.5,1h-19C1.1,1,0,2.1,0,3.5v17C0,21.9,1.1,23,2.5,23h19c1.4,0,2.5-1.1,2.5-2.5v-17C24,2.1,22.9,1,21.5,1z
		 M8.5,9h-2C5.7,9,5,9.7,5,10.5v3C5,14.3,5.7,15,6.5,15h2c0.8,0,1.5-0.7,1.5-1.5c0-0.3,0.2-0.5,0.5-0.5c0.3,0,0.5,0.2,0.5,0.5
		c0,1.4-1.1,2.5-2.5,2.5h-2C5.1,16,4,14.9,4,13.5v-3C4,9.1,5.1,8,6.5,8h2C9.9,8,11,9.1,11,10.5c0,0.3-0.2,0.5-0.5,0.5
		c-0.3,0-0.5-0.2-0.5-0.5v0C10,9.7,9.3,9,8.5,9z M17.5,9h-2C14.7,9,14,9.7,14,10.5v3c0,0.8,0.7,1.5,1.5,1.5h2c0.8,0,1.5-0.7,1.5-1.5
		c0-0.3,0.2-0.5,0.5-0.5c0.3,0,0.5,0.2,0.5,0.5c0,1.4-1.1,2.5-2.5,2.5h-2c-1.4,0-2.5-1.1-2.5-2.5v-3C13,9.1,14.1,8,15.5,8h2
		c1.4,0,2.5,1.1,2.5,2.5c0,0.3-0.2,0.5-0.5,0.5c-0.3,0-0.5-0.2-0.5-0.5v0C19,9.7,18.3,9,17.5,9z"/>
</g>
<g id="Outline_Icons">
	<g>
		<path class="st2" d="M0.5,3.5c0-1.1,0.9-2,2-2h19c1.1,0,2,0.9,2,2v17c0,1.1-0.9,2-2,2h-19c-1.1,0-2-0.9-2-2V3.5z"/>
		<path class="st2" d="M10.5,10.5L10.5,10.5c0-1.1-0.9-2-2-2h-2c-1.1,0-2,0.9-2,2v3c0,1.1,0.9,2,2,2h2c1.1,0,2-0.9,2-2v0"/>
		<path class="st2" d="M19.5,10.5L19.5,10.5c0-1.1-0.9-2-2-2h-2c-1.1,0-2,0.9-2,2v3c0,1.1,0.9,2,2,2h2c1.1,0,2-0.9,2-2v0"/>
	</g>
</g>
</svg>
