<?xml version="1.0" encoding="utf-8"?>
<!-- Generator: Adobe Illustrator 19.2.0, SVG Export Plug-In . SVG Version: 6.00 Build 0)  -->
<svg version="1.1" id="Layer_1" xmlns="http://www.w3.org/2000/svg" xmlns:xlink="http://www.w3.org/1999/xlink" x="0px" y="0px"
	 viewBox="0 0 24 24" style="enable-background:new 0 0 24 24;" xml:space="preserve">
<style type="text/css">
	.st0{display:none;}
	.st1{display:inline;}
	.st2{fill:none;stroke:#000000;stroke-linecap:round;stroke-linejoin:round;stroke-miterlimit:10;}
	.st3{fill:none;stroke:#000000;stroke-linejoin:round;stroke-miterlimit:10;}
</style>
<g id="Filled_Icon" class="st0">
	<g class="st1">
		<path d="M6.5,7v1C5.7,8,5,8.7,5,9.5v6C5,16.3,5.7,17,6.5,17h10c0.8,0,1.5-0.7,1.5-1.5v-6C18,8.7,17.3,8,16.5,8h-1.2l-0.1-0.2
			C15,7.3,14.5,7,13.9,7h-2.3c-0.6,0-1.1,0.3-1.3,0.8L10.2,8H8V7H6.5z M12.5,10c1.4,0,2.5,1.1,2.5,2.5c0,1.4-1.1,2.5-2.5,2.5
			c-1.4,0-2.5-1.1-2.5-2.5C10,11.1,11.1,10,12.5,10z"/>
		<path d="M11.5,2.5c2.4,0,4.7,0.9,6.4,2.5l-2.8,0.2c-0.3,0-0.5,0.3-0.5,0.5c0,0.3,0.2,0.5,0.5,0.5c0,0,0,0,0,0L19,5.9
			c0.3,0,0.6-0.4,0.4-0.7l-0.4-3.8C19,1.2,18.8,1,18.5,1c-0.3,0-0.5,0.3-0.4,0.6l0.3,2.5c-1.9-1.6-4.3-2.5-6.8-2.5
			C5.7,1.5,1,6.2,1,12c0,0.3,0.2,0.5,0.5,0.5C1.8,12.5,2,12.3,2,12C2,6.8,6.3,2.5,11.5,2.5z"/>
		<path d="M21.5,11.5c-0.3,0-0.5,0.2-0.5,0.5c0,5.2-4.3,9.5-9.5,9.5c-2.3,0-4.4-0.8-6.1-2.2l2.8-0.4c0.3,0,0.5-0.3,0.4-0.6
			c0-0.3-0.3-0.5-0.6-0.4l-3.8,0.5c-0.3,0-0.6,0.4-0.4,0.8l0.6,3.7c0,0.2,0.3,0.4,0.5,0.4c0,0,0.1,0,0.1,0c0.3,0,0.5-0.3,0.4-0.6
			l-0.4-2.4c1.8,1.4,4,2.2,6.4,2.2C17.3,22.5,22,17.8,22,12C22,11.7,21.8,11.5,21.5,11.5z"/>
	</g>
</g>
<g id="Outline_Icons">
	<g>
		<polyline class="st2" points="18.6,1.5 19,5.4 15.2,5.8 		"/>
		<path class="st3" d="M17.5,15.5c0,0.6-0.4,1-1,1h-10c-0.6,0-1-0.4-1-1v-6c0-0.6,0.4-1,1-1h4l0.2-0.4c0.2-0.3,0.5-0.6,0.9-0.6h2.3
			c0.4,0,0.7,0.2,0.9,0.6L15,8.5h1.5c0.6,0,1,0.4,1,1V15.5z"/>
		<circle class="st3" cx="12.5" cy="12.5" r="2"/>
		<rect x="7" y="7.5" class="st3" width="0.5" height="1"/>
		<polyline class="st2" points="5,22.8 4.4,18.9 8.2,18.4 		"/>
		<path class="st2" d="M1.5,12c0-5.5,4.5-10,10-10c3,0,5.7,1.3,7.5,3.4"/>
		<path class="st2" d="M21.5,12c0,5.5-4.5,10-10,10c-2.8,0-5.4-1.2-7.2-3"/>
	</g>
</g>
</svg>
