<?xml version="1.0" encoding="utf-8"?>
<!-- Generator: Adobe Illustrator 19.2.0, SVG Export Plug-In . SVG Version: 6.00 Build 0)  -->
<svg version="1.1" id="Layer_1" xmlns="http://www.w3.org/2000/svg" xmlns:xlink="http://www.w3.org/1999/xlink" x="0px" y="0px"
	 viewBox="0 0 24 24" style="enable-background:new 0 0 24 24;" xml:space="preserve">
<style type="text/css">
	.st0{display:none;}
	.st1{display:inline;}
	.st2{fill:none;stroke:#000000;stroke-linejoin:round;stroke-miterlimit:10;}
</style>
<g id="Filled_Icon" class="st0">
	<g class="st1">
		<path d="M21.5,3h-19C1.1,3,0,4.1,0,5.5v13C0,19.9,1.1,21,2.5,21h19c1.4,0,2.5-1.1,2.5-2.5v-13C24,4.1,22.9,3,21.5,3z M18.7,12.4
			L17,14.1v2.4c0,0.3-0.2,0.5-0.5,0.5h-2.4l-1.7,1.7c-0.1,0.1-0.2,0.1-0.4,0.1c-0.1,0-0.3,0-0.4-0.1L9.9,17H7.5
			C7.2,17,7,16.8,7,16.5v-2.4l-1.7-1.7c-0.1-0.1-0.1-0.2-0.1-0.4c0-0.1,0.1-0.3,0.1-0.4L7,9.9V7.5C7,7.2,7.2,7,7.5,7h2.4l1.7-1.7
			c0.2-0.2,0.5-0.2,0.7,0L14.1,7h2.4C16.8,7,17,7.2,17,7.5v2.4l1.7,1.7c0.1,0.1,0.1,0.2,0.1,0.4C18.9,12.1,18.8,12.3,18.7,12.4z"/>
		<path d="M11.5,8.5C11.2,8.5,11,8.7,11,9v6c0,0.3,0.2,0.5,0.5,0.5c2.1,0,3.5-1.4,3.5-3.5C15,9.9,13.6,8.5,11.5,8.5z"/>
	</g>
</g>
<g id="Outline_Icons">
	<g>
		<path class="st2" d="M23.5,18.5c0,1.1-0.9,2-2,2h-19c-1.1,0-2-0.9-2-2v-13c0-1.1,0.9-2,2-2h19c1.1,0,2,0.9,2,2V18.5z"/>
		<polygon class="st2" points="16.5,13.9 18.4,12 16.5,10.1 16.5,7.5 13.9,7.5 12,5.6 10.1,7.5 7.5,7.5 7.5,10.1 5.6,12 7.5,13.9 
			7.5,16.5 10.1,16.5 12,18.4 13.9,16.5 16.5,16.5 		"/>
		<path class="st2" d="M11.5,9c2,0,3,1.3,3,3c0,1.7-1,3-3,3V9z"/>
	</g>
</g>
</svg>
