<?xml version="1.0" encoding="utf-8"?>
<!-- Generator: Adobe Illustrator 19.2.0, SVG Export Plug-In . SVG Version: 6.00 Build 0)  -->
<svg version="1.1" id="Layer_1" xmlns="http://www.w3.org/2000/svg" xmlns:xlink="http://www.w3.org/1999/xlink" x="0px" y="0px"
	 viewBox="0 0 24 24" style="enable-background:new 0 0 24 24;" xml:space="preserve">
<style type="text/css">
	.st0{display:none;}
	.st1{display:inline;}
	.st2{fill:none;stroke:#000000;stroke-linecap:round;stroke-linejoin:round;stroke-miterlimit:10;}
</style>
<g id="Filled_Icon" class="st0">
	<g class="st1">
		<path d="M17,0v8H7V0H2v24h5v-7h10v7h5V0H17z M6,23H4v-2h2V23z M6,19H4v-2h2V19z M6,15H4v-2h2V15z M6,11H4V9h2V11z M6,7H4V5h2V7z
			 M6,3H4V1h2V3z M17,16H7V9h10V16z M20,23h-2v-2h2V23z M20,19h-2v-2h2V19z M20,15h-2v-2h2V15z M20,11h-2V9h2V11z M20,7h-2V5h2V7z
			 M20,3h-2V1h2V3z"/>
		<rect x="8" y="1" width="8" height="6"/>
		<rect x="8" y="10" width="8" height="5"/>
		<rect x="8" y="18" width="8" height="6"/>
	</g>
</g>
<g id="Outline_Icons">
	<g>
		<rect x="7.5" y="0.5" class="st2" width="9" height="6"/>
		<rect x="7.5" y="8.5" class="st2" width="9" height="6"/>
		<rect x="7.5" y="16.5" class="st2" width="9" height="6"/>
		<line class="st2" x1="2.5" y1="23.5" x2="2.5" y2="0.5"/>
		<line class="st2" x1="21.5" y1="0.5" x2="21.5" y2="23.5"/>
		<rect x="4.5" y="1.5" class="st2" width="1" height="1"/>
		<rect x="4.5" y="5.5" class="st2" width="1" height="1"/>
		<rect x="4.5" y="9.5" class="st2" width="1" height="1"/>
		<rect x="4.5" y="13.5" class="st2" width="1" height="1"/>
		<rect x="4.5" y="17.5" class="st2" width="1" height="1"/>
		<rect x="4.5" y="21.5" class="st2" width="1" height="1"/>
		<rect x="18.5" y="1.5" class="st2" width="1" height="1"/>
		<rect x="18.5" y="5.5" class="st2" width="1" height="1"/>
		<rect x="18.5" y="9.5" class="st2" width="1" height="1"/>
		<rect x="18.5" y="13.5" class="st2" width="1" height="1"/>
		<rect x="18.5" y="17.5" class="st2" width="1" height="1"/>
		<rect x="18.5" y="21.5" class="st2" width="1" height="1"/>
	</g>
</g>
</svg>
