<?xml version="1.0" encoding="utf-8"?>
<!-- Generator: Adobe Illustrator 19.2.0, SVG Export Plug-In . SVG Version: 6.00 Build 0)  -->
<svg version="1.1" id="Layer_1" xmlns="http://www.w3.org/2000/svg" xmlns:xlink="http://www.w3.org/1999/xlink" x="0px" y="0px"
	 viewBox="0 0 24 24" style="enable-background:new 0 0 24 24;" xml:space="preserve">
<style type="text/css">
	.st0{display:none;}
	.st1{display:inline;}
	.st2{fill:none;stroke:#000000;stroke-linecap:round;stroke-linejoin:round;stroke-miterlimit:10;}
</style>
<g id="Filled_Icon" class="st0">
	<g class="st1">
		<g>
			<path d="M14,13.5c-0.1,0-0.3-0.1-0.4-0.2c-0.2-0.2-0.2-0.5,0-0.7l1.8-1.6c0.2-0.2,0.5-0.2,0.7,0c0.2,0.2,0.2,0.5,0,0.7l-1.8,1.6
				C14.3,13.4,14.1,13.5,14,13.5z"/>
		</g>
		<g>
			<path d="M14,17.5c-0.1,0-0.3-0.1-0.4-0.2c-0.2-0.2-0.2-0.5,0-0.7l3.8-3.6c0.2-0.2,0.5-0.2,0.7,0c0.2,0.2,0.2,0.5,0,0.7l-3.8,3.6
				C14.3,17.4,14.1,17.5,14,17.5z"/>
		</g>
		<g>
			<path d="M16,19.5c-0.1,0-0.3-0.1-0.4-0.2c-0.2-0.2-0.2-0.5,0-0.7l3.8-3.6c0.2-0.2,0.5-0.2,0.7,0c0.2,0.2,0.2,0.5,0,0.7l-3.8,3.6
				C16.3,19.4,16.1,19.5,16,19.5z"/>
		</g>
		<g>
			<path d="M20,19.5c-0.1,0-0.3-0.1-0.4-0.2c-0.2-0.2-0.2-0.5,0-0.7l1.8-1.6c0.2-0.2,0.5-0.2,0.7,0c0.2,0.2,0.2,0.5,0,0.7l-1.8,1.6
				C20.3,19.4,20.1,19.5,20,19.5z"/>
		</g>
		<path d="M23.5,20H13V10h1.5c0.2,0,0.4-0.1,0.5-0.3c0.1-0.2,0-0.4-0.1-0.5l-7-6.5c-0.2-0.2-0.5-0.2-0.7,0l-7,6.5C0,9.3,0,9.5,0,9.7
			C0.1,9.9,0.3,10,0.5,10H2v10H0.5C0.2,20,0,20.2,0,20.5C0,20.8,0.2,21,0.5,21h2h3v-4.5C5.5,16.2,5.7,16,6,16h3
			c0.3,0,0.5,0.2,0.5,0.5V21h3h11c0.3,0,0.5-0.2,0.5-0.5C24,20.2,23.8,20,23.5,20z"/>
	</g>
</g>
<g id="Outline_Icons">
	<g>
		<line class="st2" x1="0.5" y1="20.5" x2="23.5" y2="20.5"/>
		<polygon class="st2" points="7.5,3 0.5,9.5 2.5,9.5 2.5,20.5 12.5,20.5 12.5,9.5 14.5,9.5 		"/>
		<line class="st2" x1="15.8" y1="11.4" x2="14" y2="13"/>
		<line class="st2" x1="17.8" y1="13.4" x2="14" y2="17"/>
		<line class="st2" x1="19.8" y1="15.4" x2="16" y2="19"/>
		<line class="st2" x1="21.8" y1="17.4" x2="20" y2="19"/>
		<rect x="5.5" y="16.5" class="st2" width="4" height="4"/>
	</g>
</g>
</svg>
