<?xml version="1.0" encoding="utf-8"?>
<!-- Generator: Adobe Illustrator 19.2.0, SVG Export Plug-In . SVG Version: 6.00 Build 0)  -->
<svg version="1.1" id="Layer_1" xmlns="http://www.w3.org/2000/svg" xmlns:xlink="http://www.w3.org/1999/xlink" x="0px" y="0px"
	 viewBox="0 0 24 24" style="enable-background:new 0 0 24 24;" xml:space="preserve">
<style type="text/css">
	.st0{display:none;}
	.st1{display:inline;}
	.st2{fill:none;stroke:#000000;stroke-linecap:round;stroke-linejoin:round;stroke-miterlimit:10;}
</style>
<g id="Filled_Icon" class="st0">
	<g class="st1">
		<path d="M0,2v20h24V2H0z M2,4h4v1H3v3H2V4z M6,20H2v-4h1v3h3V20z M12.5,17v1.5c0,0.3-0.2,0.5-0.5,0.5c-0.3,0-0.5-0.2-0.5-0.5V17
			c-2.4-0.2-4.2-2.1-4.5-4.5H5.5C5.2,12.5,5,12.3,5,12c0-0.3,0.2-0.5,0.5-0.5H7C7.3,9.1,9.1,7.3,11.5,7V5.5C11.5,5.2,11.7,5,12,5
			c0.3,0,0.5,0.2,0.5,0.5V7c2.4,0.2,4.2,2.1,4.5,4.5h1.5c0.3,0,0.5,0.2,0.5,0.5c0,0.3-0.2,0.5-0.5,0.5H17
			C16.7,14.9,14.9,16.7,12.5,17z M22,20h-4v-1h3v-3h1V20z M22,8h-1V5h-3V4h4V8z"/>
		<circle cx="12" cy="12" r="1"/>
	</g>
</g>
<g id="Outline_Icons">
	<g>
		<rect x="0.5" y="2.5" class="st2" width="23" height="19"/>
		<polyline class="st2" points="5.5,4.5 2.5,4.5 2.5,7.5 		"/>
		<polyline class="st2" points="18.5,4.5 21.5,4.5 21.5,7.5 		"/>
		<polyline class="st2" points="5.5,19.5 2.5,19.5 2.5,16.5 		"/>
		<polyline class="st2" points="18.5,19.5 21.5,19.5 21.5,16.5 		"/>
		<circle class="st2" cx="12" cy="12" r="0.5"/>
		<circle class="st2" cx="12" cy="12" r="4.5"/>
		<line class="st2" x1="12" y1="5.5" x2="12" y2="7.5"/>
		<line class="st2" x1="5.5" y1="12" x2="7.5" y2="12"/>
		<line class="st2" x1="12" y1="18.5" x2="12" y2="16.5"/>
		<line class="st2" x1="18.5" y1="12" x2="16.5" y2="12"/>
	</g>
</g>
</svg>
