<?xml version="1.0" encoding="utf-8"?>
<!-- Generator: Adobe Illustrator 19.2.0, SVG Export Plug-In . SVG Version: 6.00 Build 0)  -->
<svg version="1.1" id="Outline_Icons" xmlns="http://www.w3.org/2000/svg" xmlns:xlink="http://www.w3.org/1999/xlink" x="0px"
	 y="0px" viewBox="0 0 24 24" style="enable-background:new 0 0 24 24;" xml:space="preserve">
<style type="text/css">
	.st0{fill:none;stroke:#000000;stroke-linecap:round;stroke-linejoin:round;stroke-miterlimit:10;}
	.st1{fill:none;stroke:#000000;stroke-linejoin:round;stroke-miterlimit:10;}
</style>
<g>
	<path class="st0" d="M8.5,17v1l-5.6,2.1c-1.4,0.5-2.4,1.9-2.4,3.4h23c0-1.5-1-2.9-2.4-3.4L15.5,18v-3.5"/>
	<path class="st0" d="M6.6,4.6C7.7,2.4,9.6,1,11.8,1c3.3,0,6.1,3.3,6.1,7.3c0,3.1-1.6,5.7-3.9,6.8"/>
	<path class="st0" d="M17.8,6.9c-0.2,0-0.3,0-0.5,0c-2.1,0.4-3.4-0.3-4.5-2.3c-0.3,0.5-0.7,0.9-1.3,1.3"/>
	<path class="st1" d="M12.5,14.5c0,0.6-0.4,1-1,1h-10c-0.6,0-1-0.4-1-1v-6c0-0.6,0.4-1,1-1h4l0.2-0.4c0.2-0.3,0.5-0.6,0.9-0.6h2.3
		c0.4,0,0.7,0.2,0.9,0.6L10,7.5h1.5c0.6,0,1,0.4,1,1V14.5z"/>
	<circle class="st1" cx="7.5" cy="11" r="2"/>
	<rect x="2" y="6.5" class="st1" width="0.5" height="1"/>
</g>
</svg>
