<?xml version="1.0" encoding="utf-8"?>
<!-- Generator: Adobe Illustrator 19.2.0, SVG Export Plug-In . SVG Version: 6.00 Build 0)  -->
<svg version="1.1" id="Layer_1" xmlns="http://www.w3.org/2000/svg" xmlns:xlink="http://www.w3.org/1999/xlink" x="0px" y="0px"
	 viewBox="0 0 24 24" style="enable-background:new 0 0 24 24;" xml:space="preserve">
<style type="text/css">
	.st0{display:none;}
	.st1{display:inline;}
	.st2{fill:none;stroke:#000000;stroke-linejoin:round;stroke-miterlimit:10;}
</style>
<g id="Filled_Icon" class="st0">
	<path class="st1" d="M23.1,11.8l-3-3V4.6c0-0.3-0.2-0.5-0.5-0.5h-4.2l-3-3c-0.2-0.2-0.5-0.2-0.7,0l-3,3H4.6c-0.3,0-0.5,0.2-0.5,0.5
		v4.2l-3,3c-0.2,0.2-0.2,0.5,0,0.7l3,3v4.2c0,0.3,0.2,0.5,0.5,0.5h4.2l3,3c0.1,0.1,0.2,0.1,0.4,0.1c0.1,0,0.3,0,0.4-0.1l3-3h4.2
		c0.3,0,0.5-0.2,0.5-0.5v-4.2l3-3C23.3,12.3,23.3,11.9,23.1,11.8z M12.1,18.6c-3.6,0-6.5-2.9-6.5-6.5c0-3.6,2.9-6.5,6.5-6.5
		c3.6,0,6.5,2.9,6.5,6.5C18.6,15.7,15.7,18.6,12.1,18.6z"/>
</g>
<g id="Outline_Icons">
	<g>
		<polygon class="st2" points="19.6,15.2 22.7,12.1 19.6,9 19.6,4.6 15.2,4.6 12.1,1.5 9,4.6 4.6,4.6 4.6,9 1.5,12.1 4.6,15.2 
			4.6,19.6 9,19.6 12.1,22.7 15.2,19.6 19.6,19.6 		"/>
		<circle class="st2" cx="12.1" cy="12.1" r="6"/>
	</g>
</g>
</svg>
