<?xml version="1.0" encoding="utf-8"?>
<!-- Generator: Adobe Illustrator 19.2.0, SVG Export Plug-In . SVG Version: 6.00 Build 0)  -->
<svg version="1.1" id="Layer_1" xmlns="http://www.w3.org/2000/svg" xmlns:xlink="http://www.w3.org/1999/xlink" x="0px" y="0px"
	 viewBox="0 0 24 24" style="enable-background:new 0 0 24 24;" xml:space="preserve">
<style type="text/css">
	.st0{display:none;}
	.st1{display:inline;}
	.st2{fill:none;stroke:#000000;stroke-linecap:round;stroke-linejoin:round;stroke-miterlimit:10;}
</style>
<g id="Filled_Icon" class="st0">
	<g class="st1">
		<path d="M16.5,8C14,8,12,10,12,12.5c0,2.5,2,4.5,4.5,4.5c2.5,0,4.5-2,4.5-4.5C21,10,19,8,16.5,8z M18.5,14.5h-4v-4h4V14.5z"/>
		<path d="M22.5,5h-15V4.5C7.5,3.7,6.8,3,6,3H4C3.2,3,2.5,3.7,2.5,4.5V5h-1C0.7,5,0,5.7,0,6.5V10h8c0.3,0,0.5,0.2,0.5,0.5
			C8.5,10.8,8.3,11,8,11H0v1h8c0.3,0,0.5,0.2,0.5,0.5C8.5,12.8,8.3,13,8,13H0v1h8c0.3,0,0.5,0.2,0.5,0.5C8.5,14.8,8.3,15,8,15H0v3.5
			C0,19.3,0.7,20,1.5,20h21c0.8,0,1.5-0.7,1.5-1.5v-12C24,5.7,23.3,5,22.5,5z M16.5,18c-3,0-5.5-2.5-5.5-5.5c0-3,2.5-5.5,5.5-5.5
			c3,0,5.5,2.5,5.5,5.5C22,15.5,19.5,18,16.5,18z"/>
	</g>
</g>
<g id="Outline_Icons">
	<g>
		<path class="st2" d="M23.5,18.5c0,0.5-0.5,1-1,1h-21c-0.5,0-1-0.5-1-1v-12c0-0.5,0.5-1,1-1h21c0.5,0,1,0.5,1,1V18.5z"/>
		<path class="st2" d="M3,5.5v-1c0-0.5,0.5-1,1-1h2c0.5,0,1,0.5,1,1v1"/>
		<line class="st2" x1="0.5" y1="10.5" x2="8" y2="10.5"/>
		<line class="st2" x1="0.5" y1="12.5" x2="8" y2="12.5"/>
		<line class="st2" x1="0.5" y1="14.5" x2="8" y2="14.5"/>
		<circle class="st2" cx="16.5" cy="12.5" r="5"/>
		<rect x="14.5" y="10.5" class="st2" width="4" height="4"/>
	</g>
</g>
</svg>
