<?xml version="1.0" encoding="utf-8"?>
<!-- Generator: Adobe Illustrator 19.2.0, SVG Export Plug-In . SVG Version: 6.00 Build 0)  -->
<svg version="1.1" id="Layer_1" xmlns="http://www.w3.org/2000/svg" xmlns:xlink="http://www.w3.org/1999/xlink" x="0px" y="0px"
	 viewBox="0 0 24 24" style="enable-background:new 0 0 24 24;" xml:space="preserve">
<style type="text/css">
	.st0{display:none;}
	.st1{display:inline;}
	.st2{fill:none;stroke:#000000;stroke-linecap:round;stroke-linejoin:round;stroke-miterlimit:10;}
	.st3{fill:none;stroke:#000000;stroke-linejoin:round;stroke-miterlimit:10;}
</style>
<g id="Filled_Icon" class="st0">
	<path class="st1" d="M14.7,15.4c-0.2-0.2-0.2-0.5,0-0.7c0.2-0.2,0.5-0.2,0.7,0l5.4,5.4c2-2.1,3.2-5,3.2-8.1c0-6.6-5.4-12-12-12
		C8.9,0,6,1.2,3.9,3.2l3.6,3.6c0.2,0.2,0.2,0.5,0,0.7C7.4,7.5,7.2,7.6,7.1,7.6c-0.1,0-0.3,0-0.4-0.1L3.2,3.9C1.2,6,0,8.9,0,12
		c0,6.6,5.4,12,12,12c3.1,0,6-1.2,8.1-3.2L14.7,15.4z M7.3,20.2l3.1-7.7H6.7l4.9-9h4.5l-3.7,6h4.7L7.3,20.2z"/>
</g>
<g id="Outline_Icons">
	<g>
		<circle class="st2" cx="12" cy="12" r="11.5"/>
		<line class="st2" x1="7.1" y1="7.1" x2="3.9" y2="3.9"/>
		<line class="st2" x1="20.1" y1="20.1" x2="15.1" y2="15.1"/>
		<polygon class="st3" points="11.6,3.5 16.2,3.5 12.4,9.5 17.1,9.5 7.3,20.2 10.4,12.5 6.7,12.5 		"/>
	</g>
</g>
</svg>
