<?xml version="1.0" encoding="utf-8"?>
<!-- Generator: Adobe Illustrator 19.2.0, SVG Export Plug-In . SVG Version: 6.00 Build 0)  -->
<svg version="1.1" id="Outline_Icons" xmlns="http://www.w3.org/2000/svg" xmlns:xlink="http://www.w3.org/1999/xlink" x="0px"
	 y="0px" viewBox="0 0 24 24" style="enable-background:new 0 0 24 24;" xml:space="preserve">
<style type="text/css">
	.st0{fill:none;stroke:#000000;stroke-linecap:round;stroke-linejoin:round;stroke-miterlimit:10;}
	.st1{fill:none;stroke:#000000;stroke-linejoin:round;stroke-miterlimit:10;}
</style>
<g>
	<line class="st0" x1="12.5" y1="17.5" x2="12.5" y2="23.5"/>
	<line class="st0" x1="6.5" y1="23.5" x2="12.5" y2="18"/>
	<line class="st0" x1="18.5" y1="23.5" x2="12.5" y2="18"/>
	<path class="st0" d="M13.5,11.5V17c0,0.3-0.2,0.5-0.5,0.5h-1c-0.3,0-0.5-0.2-0.5-0.5v-5.5"/>
	<line class="st0" x1="9.5" y1="11.5" x2="15.5" y2="11.5"/>
	<path class="st1" d="M18.5,8.5c0,0.6-0.4,1-1,1h-10c-0.6,0-1-0.4-1-1v-6c0-0.6,0.4-1,1-1h4l0.2-0.4c0.2-0.3,0.5-0.6,0.9-0.6h2.3
		c0.4,0,0.7,0.2,0.9,0.6L16,1.5h1.5c0.6,0,1,0.4,1,1V8.5z"/>
	<circle class="st1" cx="13.5" cy="5.5" r="2"/>
	<rect x="8" y="0.5" class="st1" width="0.5" height="1"/>
</g>
</svg>
