<?xml version="1.0" encoding="utf-8"?>
<!-- Generator: Adobe Illustrator 19.2.0, SVG Export Plug-In . SVG Version: 6.00 Build 0)  -->
<svg version="1.1" id="Layer_1" xmlns="http://www.w3.org/2000/svg" xmlns:xlink="http://www.w3.org/1999/xlink" x="0px" y="0px"
	 viewBox="0 0 24 24" style="enable-background:new 0 0 24 24;" xml:space="preserve">
<style type="text/css">
	.st0{display:none;}
	.st1{display:inline;}
	.st2{fill:none;stroke:#000000;stroke-linejoin:round;stroke-miterlimit:10;}
</style>
<g id="Filled_Icon" class="st0">
	<g class="st1">
		<rect x="17.5" y="3.5" width="1.5" height="1"/>
		<path d="M14.5,6c0-1.4-1.1-2.5-2.5-2.5c-1.4,0-2.5,1.1-2.5,2.5c0,1.4,1.1,2.5,2.5,2.5C13.4,8.5,14.5,7.4,14.5,6z"/>
		<circle cx="5.8" cy="9.3" r="0.2"/>
		<path d="M11.5,9.5v2h1v-2c-0.2,0-0.3,0-0.5,0C11.8,9.5,11.7,9.5,11.5,9.5z"/>
		<path d="M10.5,9.2c-1.2-0.6-2-1.8-2-3.2c0-1.4,0.8-2.6,2-3.2V0.5h1v2c0.2,0,0.3,0,0.5,0c0.2,0,0.3,0,0.5,0v-2h1v2.3
			c1.2,0.6,2,1.8,2,3.2c0,1.4-0.8,2.6-2,3.2v2.3H22v-8C22,1.6,20.4,0,18.5,0h-13C3.6,0,2,1.6,2,3.5v8h8.5V9.2z M16.5,2.5H20v3h-3.5
			V2.5z M5.8,10C5.3,10,5,9.7,5,9.3c0-0.4,0.3-0.8,0.8-0.8c0.4,0,0.8,0.3,0.8,0.8C6.5,9.7,6.2,10,5.8,10z"/>
		<path d="M0,15v3c0,1.1,0.9,2,2,2h2.2c-0.4,1-1.1,2.1-2.1,3.1L1.3,24h21.6l-1.1-0.9c-1-0.9-1.7-2-2.1-3.1H22c1.1,0,2-0.9,2-2v-3H0z
			 M20.3,23H3.6c0.3-0.3,0.5-0.7,0.7-1h15.2C19.8,22.3,20,22.7,20.3,23z M22,17h-4c0.1,0.8,0.3,2.4,1,4H4.9c0.8-1.7,1-3.2,1.1-4H2
			v-1h3h14h3V17z"/>
		<polygon points="22.5,12.5 1.5,12.5 0.3,14 23.7,14 		"/>
	</g>
</g>
<g id="Outline_Icons">
	<g>
		<path class="st2" d="M19,19.5h3c0.8,0,1.5-0.7,1.5-1.5v-3.5l-2-2v-9c0-1.7-1.3-3-3-3h-13c-1.7,0-3,1.3-3,3v9l-2,2V18
			c0,0.8,0.7,1.5,1.5,1.5h3"/>
		<path class="st2" d="M21.5,23.5c-2,0-17.5,0-19,0c3-3,3-7,3-7h13C18.5,16.5,18.5,21,21.5,23.5z"/>
		<circle class="st2" cx="12" cy="6" r="3"/>
		<circle class="st2" cx="5.8" cy="9.3" r="0.2"/>
		<rect x="16.5" y="2.5" class="st2" width="3" height="2"/>
		<line class="st2" x1="10.5" y1="3.4" x2="10.5" y2="0.5"/>
		<line class="st2" x1="13.5" y1="3.4" x2="13.5" y2="0.5"/>
		<line class="st2" x1="10.5" y1="12.5" x2="10.5" y2="8.6"/>
		<line class="st2" x1="13.5" y1="12.5" x2="13.5" y2="8.7"/>
		<line class="st2" x1="2.5" y1="12.5" x2="21.5" y2="12.5"/>
		<line class="st2" x1="0.5" y1="14.5" x2="23.5" y2="14.5"/>
		<line class="st2" x1="2" y1="16.5" x2="22" y2="16.5"/>
		<line class="st2" x1="4" y1="21.5" x2="20" y2="21.5"/>
	</g>
</g>
</svg>
