<?xml version="1.0" encoding="utf-8"?>
<!-- Generator: Adobe Illustrator 19.2.0, SVG Export Plug-In . SVG Version: 6.00 Build 0)  -->
<svg version="1.1" id="Layer_1" xmlns="http://www.w3.org/2000/svg" xmlns:xlink="http://www.w3.org/1999/xlink" x="0px" y="0px"
	 viewBox="0 0 24 24" style="enable-background:new 0 0 24 24;" xml:space="preserve">
<style type="text/css">
	.st0{display:none;}
	.st1{display:inline;}
	.st2{fill:none;stroke:#000000;stroke-linecap:round;stroke-linejoin:round;stroke-miterlimit:10;}
	.st3{fill:none;stroke:#000000;stroke-linejoin:round;stroke-miterlimit:10;}
</style>
<g id="Filled_Icon" class="st0">
	<path class="st1" d="M19,4h-3l-2-1.9C13.9,2,13.8,2,13.6,2h-3.3c-0.1,0-0.2,0-0.3,0.1L8,4H5C3.9,4,3,5,3,6.2V13c0,1.1,0.9,2,2,2h14
		c1.1,0,2-0.9,2-2V6.2C21,5,20.1,4,19,4z M12,12.3c-1.8,0-3.2-1.4-3.2-3.2c0-1.8,1.4-3.2,3.2-3.2c1.8,0,3.2,1.4,3.2,3.2
		C15.2,10.8,13.8,12.3,12,12.3z M18,8c-0.3,0-0.5-0.2-0.5-0.5c0-0.3,0.2-0.5,0.5-0.5c0.3,0,0.5,0.2,0.5,0.5C18.5,7.7,18.3,8,18,8z"
		/>
	<g class="st1">
		<path d="M22.6,12.6c-0.2-0.2-0.5-0.1-0.7,0.1c-0.2,0.2-0.1,0.5,0.1,0.7c0.7,0.5,1,1.1,1,1.6c0,1.8-3.8,3.8-10,4
			c-0.3,0-0.5,0.2-0.5,0.5c0,0.3,0.2,0.5,0.5,0.5c0,0,0,0,0,0c6.4-0.2,11-2.3,11-5C24,14.2,23.5,13.3,22.6,12.6z"/>
		<path d="M9.4,19L9.4,19C9.4,19,9.4,19,9.4,19l-2.5-3.2c-0.2-0.2-0.5-0.3-0.7-0.1C6,16,6,16.3,6.1,16.5l1.7,2.2
			C3.9,18.1,1,16.6,1,15c0-0.5,0.3-1.1,1-1.6c0.2-0.2,0.3-0.5,0.1-0.7c-0.2-0.2-0.5-0.3-0.7-0.1C0.5,13.3,0,14.2,0,15
			c0,2.1,3,3.9,7.5,4.7l-2.3,1.4c-0.2,0.1-0.3,0.5-0.2,0.7C5.2,21.9,5.3,22,5.5,22c0.1,0,0.2,0,0.3-0.1l3.5-2.1
			C9.5,19.6,9.6,19.3,9.4,19z"/>
	</g>
</g>
<g id="Outline_Icons">
	<g>
		<polyline class="st2" points="6.5,16.2 9,19.3 5.5,21.5 		"/>
		<circle class="st3" cx="12" cy="9" r="2.7"/>
		<path class="st2" d="M15.8,4.5H19c0.8,0,1.5,0.8,1.5,1.7V13c0,0.8-0.7,1.5-1.5,1.5H5c-0.8,0-1.5-0.7-1.5-1.5V6.2
			c0-0.8,0.7-1.7,1.5-1.7h3.2"/>
		<polyline class="st2" points="8.2,4.5 10.4,2.5 13.6,2.5 15.8,4.5 		"/>
		<g>
			<g>
				<path d="M18,6.9c-0.3,0-0.5,0.2-0.5,0.5C17.5,7.7,17.7,8,18,8c0.3,0,0.5-0.2,0.5-0.5C18.5,7.1,18.3,6.9,18,6.9L18,6.9z"/>
			</g>
		</g>
		<path class="st2" d="M22.3,13c0.8,0.6,1.2,1.3,1.2,2c0,2.4-4.6,4.3-10.5,4.5"/>
		<path class="st2" d="M9,19.3c-4.9-0.5-8.5-2.3-8.5-4.3c0-0.7,0.4-1.4,1.2-2"/>
	</g>
</g>
</svg>
