<?xml version="1.0" encoding="utf-8"?>
<!-- Generator: Adobe Illustrator 19.2.0, SVG Export Plug-In . SVG Version: 6.00 Build 0)  -->
<svg version="1.1" id="Layer_1" xmlns="http://www.w3.org/2000/svg" xmlns:xlink="http://www.w3.org/1999/xlink" x="0px" y="0px"
	 viewBox="0 0 24 24" style="enable-background:new 0 0 24 24;" xml:space="preserve">
<style type="text/css">
	.st0{display:none;}
	.st1{display:inline;}
	.st2{opacity:0.3;fill:none;stroke:#000000;stroke-linejoin:round;stroke-miterlimit:10;enable-background:new    ;}
	.st3{fill:none;stroke:#000000;stroke-linejoin:round;stroke-miterlimit:10;}
</style>
<g id="Filled_Icon" class="st0">
	<g class="st1">
		<circle cx="5" cy="15" r="1"/>
		<path d="M14.5,13c-2.2,0-4,1.8-4,4c0,2.2,1.8,4,4,4c2.2,0,4-1.8,4-4C18.5,14.8,16.7,13,14.5,13z M14.5,20c-1.7,0-3-1.3-3-3
			c0-1.7,1.3-3,3-3c1.7,0,3,1.3,3,3C17.5,18.7,16.2,20,14.5,20z"/>
		<circle cx="14.5" cy="17" r="2"/>
		<path d="M21,11h-1.8l-1.6-1.6L18.4,7h1.1C19.8,7,20,6.8,20,6.5v-6C20,0.2,19.8,0,19.5,0h-11C8.2,0,8,0.2,8,0.5v6
			C8,6.8,8.2,7,8.5,7h1.1l0.8,2.4L8.8,11H7v-0.5C7,9.7,6.3,9,5.5,9h-1C3.7,9,3,9.7,3,10.5V11c-1.1,0-2,0.9-2,2v9c0,1.1,0.9,2,2,2h18
			c1.1,0,2-0.9,2-2v-9C23,11.9,22.1,11,21,11z M5,17c-1.1,0-2-0.9-2-2c0-1.1,0.9-2,2-2s2,0.9,2,2C7,16.1,6.1,17,5,17z M10,4.5v-2
			C10,2.2,10.2,2,10.5,2h7C17.8,2,18,2.2,18,2.5v2C18,4.8,17.8,5,17.5,5h-7C10.2,5,10,4.8,10,4.5z M17.3,7l-0.7,2h-5.3l-0.7-2H17.3z
			 M14.5,22c-2.8,0-5-2.2-5-5c0-2.8,2.2-5,5-5c2.8,0,5,2.2,5,5C19.5,19.8,17.3,22,14.5,22z"/>
	</g>
</g>
<g id="Outline_Icons">
	<g>
		<path class="st2" d="M3.5,11v-0.5c0-0.6,0.4-1,1-1h1c0.6,0,1,0.4,1,1V11"/>
		<path class="st3" d="M22.5,22c0,0.8-0.7,1.5-1.5,1.5H3c-0.8,0-1.5-0.7-1.5-1.5v-9c0-0.8,0.7-1.5,1.5-1.5h6l2-2h6l2,2h2
			c0.8,0,1.5,0.7,1.5,1.5V22z"/>
		<path class="st3" d="M3.5,11.5v-1c0-0.6,0.4-1,1-1h1c0.6,0,1,0.4,1,1v1"/>
		<circle class="st3" cx="5" cy="15" r="1.5"/>
		<circle class="st3" cx="14.5" cy="17" r="2.5"/>
		<circle class="st3" cx="14.5" cy="17" r="4.5"/>
		<rect x="8.5" y="0.5" class="st3" width="11" height="6"/>
		<rect x="10.5" y="2.5" class="st3" width="7" height="2"/>
		<line class="st3" x1="10" y1="6.5" x2="11" y2="9.5"/>
		<line class="st3" x1="18" y1="6.5" x2="17" y2="9.5"/>
	</g>
</g>
</svg>
