<?xml version="1.0" encoding="utf-8"?>
<!-- Generator: Adobe Illustrator 19.2.0, SVG Export Plug-In . SVG Version: 6.00 Build 0)  -->
<svg version="1.1" id="Layer_1" xmlns="http://www.w3.org/2000/svg" xmlns:xlink="http://www.w3.org/1999/xlink" x="0px" y="0px"
	 viewBox="0 0 24 24" style="enable-background:new 0 0 24 24;" xml:space="preserve">
<style type="text/css">
	.st0{display:none;}
	.st1{display:inline;}
	.st2{fill:none;stroke:#000000;stroke-linejoin:round;stroke-miterlimit:10;}
	.st3{fill:none;stroke:#000000;stroke-linecap:round;stroke-linejoin:round;stroke-miterlimit:10;}
</style>
<g id="Filled_Icon" class="st0">
	<g class="st1">
		<rect x="19" y="16" width="2" height="1"/>
		<path d="M20.5,12H17v-1h-1V9h0.5C17.9,9,19,7.9,19,6.5V1H6v5.5C6,7.9,7.1,9,8.5,9H9v2H8v1H3.5C1.6,12,0,13.6,0,15.5v2
			C0,19.4,1.6,21,3.5,21H8v1h9v-1h3.5c1.9,0,3.5-1.6,3.5-3.5v-2C24,13.6,22.4,12,20.5,12z M16,3h1v4h-1V3z M4.5,19
			C3.1,19,2,17.9,2,16.5C2,15.1,3.1,14,4.5,14C5.9,14,7,15.1,7,16.5C7,17.9,5.9,19,4.5,19z M12,3h1v4h-1V3z M10,3h1v4h-1V3z M9,7H8
			V3h1V7z M14.7,18.5c-0.1,0-0.1,0-0.2,0c-0.2,0-0.4-0.1-0.5-0.3l-0.9-2.7h-1.3L11,18.2c-0.1,0.3-0.4,0.4-0.6,0.3
			c-0.3-0.1-0.4-0.4-0.3-0.6l1-3c0.1-0.2,0.3-0.3,0.5-0.3h2c0.2,0,0.4,0.1,0.5,0.3l1,3C15.1,18.1,14.9,18.4,14.7,18.5z M15,11h-5V9
			h5V11z M15,7h-1V3h1V7z M22,18h-4v-3h4V18z"/>
		<circle cx="4.5" cy="16.5" r="1.5"/>
	</g>
</g>
<g id="Outline_Icons">
	<g>
		<path class="st2" d="M18.5,6.5c0,1.1-0.9,2-2,2h-8c-1.1,0-2-0.9-2-2v-5h12V6.5z"/>
		<rect x="8.5" y="11.5" class="st2" width="8" height="10"/>
		<circle class="st2" cx="4.5" cy="16.5" r="2"/>
		<polyline class="st3" points="10.5,17.5 11.5,14.5 13.5,14.5 14.5,17.5 		"/>
		<line class="st2" x1="8.5" y1="3" x2="8.5" y2="7"/>
		<line class="st2" x1="10.5" y1="3" x2="10.5" y2="7"/>
		<line class="st2" x1="12.5" y1="3" x2="12.5" y2="7"/>
		<line class="st2" x1="14.5" y1="3" x2="14.5" y2="7"/>
		<line class="st2" x1="16.5" y1="3" x2="16.5" y2="7"/>
		<line class="st2" x1="9.5" y1="8.5" x2="9.5" y2="11.5"/>
		<line class="st2" x1="15.5" y1="8.5" x2="15.5" y2="11.5"/>
		<rect x="18.5" y="15.5" class="st2" width="3" height="2"/>
		<path class="st2" d="M16.5,12.5h4c1.7,0,3,1.3,3,3v2c0,1.7-1.3,3-3,3h-4"/>
		<path class="st2" d="M8.5,20.5h-5c-1.6,0-3-1.3-3-3v-2c0-1.7,1.4-3,3-3h5"/>
	</g>
</g>
</svg>
