<?xml version="1.0" encoding="utf-8"?>
<!-- Generator: Adobe Illustrator 19.2.0, SVG Export Plug-In . SVG Version: 6.00 Build 0)  -->
<svg version="1.1" id="Layer_1" xmlns="http://www.w3.org/2000/svg" xmlns:xlink="http://www.w3.org/1999/xlink" x="0px" y="0px"
	 viewBox="0 0 24 24" style="enable-background:new 0 0 24 24;" xml:space="preserve">
<style type="text/css">
	.st0{display:none;}
	.st1{display:inline;}
	.st2{fill:none;stroke:#000000;stroke-linecap:round;stroke-linejoin:round;stroke-miterlimit:10;}
	.st3{fill:none;stroke:#000000;stroke-linejoin:round;stroke-miterlimit:10;}
</style>
<g id="Filled_Icon" class="st0">
	<g class="st1">
		<path d="M23.7,7.1c-0.2-0.1-0.3-0.1-0.5,0l-5,3c-0.2,0.1-0.2,0.3-0.2,0.4v5c0,0.2,0.1,0.3,0.2,0.4l5,3c0.1,0,0.2,0.1,0.3,0.1
			c0.1,0,0.2,0,0.2-0.1c0.2-0.1,0.3-0.3,0.3-0.4v-11C24,7.4,23.9,7.2,23.7,7.1z"/>
		<g>
			<path d="M3,8.2c0,0.1,0,0.2,0,0.3V10v5v2.5C3,18.3,3.7,19,4.5,19H8h4h1.9L3,8.2z"/>
			<path d="M17,17.8c0-0.1,0-0.2,0-0.3V15v-5V8.5C17,7.7,16.3,7,15.5,7H12H8H6.1L17,17.8z"/>
		</g>
		<g>
			<path d="M18.4,21.9c-0.1,0-0.3,0-0.4-0.1L0.3,4c-0.2-0.2-0.2-0.5,0-0.7c0.2-0.2,0.5-0.2,0.7,0L18.7,21c0.2,0.2,0.2,0.5,0,0.7
				C18.7,21.8,18.5,21.9,18.4,21.9z"/>
		</g>
	</g>
</g>
<g id="Outline_Icons">
	<g>
		<path class="st2" d="M8,7.5h7.5c0.5,0,1,0.5,1,1V15"/>
		<path class="st2" d="M12,18.5H4.5c-0.5,0-1-0.4-1-1V10"/>
		<polygon class="st3" points="23.5,18.5 18.5,15.5 18.5,10.5 23.5,7.5 		"/>
		<line class="st2" x1="0.6" y1="3.6" x2="18.4" y2="21.4"/>
	</g>
</g>
</svg>
