<?xml version="1.0" encoding="utf-8"?>
<!-- Generator: Adobe Illustrator 19.2.0, SVG Export Plug-In . SVG Version: 6.00 Build 0)  -->
<svg version="1.1" id="Layer_1" xmlns="http://www.w3.org/2000/svg" xmlns:xlink="http://www.w3.org/1999/xlink" x="0px" y="0px"
	 viewBox="0 0 24 24" style="enable-background:new 0 0 24 24;" xml:space="preserve">
<style type="text/css">
	.st0{display:none;}
	.st1{display:inline;}
	.st2{fill:none;stroke:#000000;stroke-linejoin:round;stroke-miterlimit:10;}
</style>
<g id="Filled_Icon" class="st0">
	<g class="st1">
		<circle cx="4" cy="10" r="1"/>
		<path d="M14.5,8c-2.8,0-5,2.2-5,5c0,2.8,2.2,5,5,5c2.8,0,5-2.2,5-5C19.5,10.2,17.3,8,14.5,8z M14.5,16.5c-1.9,0-3.5-1.6-3.5-3.5
			c0-1.9,1.6-3.5,3.5-3.5c1.9,0,3.5,1.6,3.5,3.5C18,14.9,16.4,16.5,14.5,16.5z"/>
		<path d="M21.4,6h-1.6l-0.9-1.7l0-0.1C18.4,3.4,17.7,3,17,3h-5c-0.7,0-1.4,0.4-1.9,1.2L8.8,6H6V5.5C6,4.7,5.3,4,4.4,4H3.5
			C2.7,4,2,4.7,2,5.5L2,6C0.4,6.2,0,7.3,0,8.2v10.4C0,20.1,0.9,21,2.6,21h18.9c1.6,0,2.6-0.9,2.6-2.4V8.2C24,7.2,23.6,6,21.4,6z
			 M4,12c-1.1,0-2-0.9-2-2c0-1.1,0.9-2,2-2s2,0.9,2,2C6,11.1,5.1,12,4,12z M14.5,19c-3.3,0-6-2.7-6-6c0-3.3,2.7-6,6-6
			c3.3,0,6,2.7,6,6C20.5,16.3,17.8,19,14.5,19z"/>
	</g>
</g>
<g id="Outline_Icons">
	<g>
		<path class="st2" d="M2.5,6.5l0-1c0-0.5,0.4-1,1-1h0.9c0.6,0,1.1,0.5,1.1,1v1"/>
		<path class="st2" d="M19.5,6.5l-1-2c-0.4-0.5-0.9-1-1.5-1h-5c-0.6,0-1.1,0.5-1.5,1L9,6.5H2.5c-1.5,0-2,0.7-2,1.7v10.4
			c0,1,0.5,1.9,2.1,1.9h18.9c1.6,0,2.1-0.8,2.1-1.9V8.2c0-1-0.5-1.7-2.1-1.7H19.5z"/>
		<circle class="st2" cx="14.5" cy="13" r="5.5"/>
		<circle class="st2" cx="14.5" cy="13" r="3"/>
		<circle class="st2" cx="4" cy="10" r="1.5"/>
	</g>
</g>
</svg>
