<?xml version="1.0" encoding="utf-8"?>
<!-- Generator: Adobe Illustrator 19.2.0, SVG Export Plug-In . SVG Version: 6.00 Build 0)  -->
<svg version="1.1" id="Layer_1" xmlns="http://www.w3.org/2000/svg" xmlns:xlink="http://www.w3.org/1999/xlink" x="0px" y="0px"
	 viewBox="0 0 24 24" style="enable-background:new 0 0 24 24;" xml:space="preserve">
<style type="text/css">
	.st0{display:none;}
	.st1{display:inline;}
	.st2{fill:none;stroke:#000000;stroke-linejoin:round;stroke-miterlimit:10;}
	.st3{fill:none;stroke:#000000;stroke-linecap:round;stroke-linejoin:round;stroke-miterlimit:10;}
</style>
<g id="Filled_Icon" class="st0">
	<g class="st1">
		<path d="M17.5,11c-1.9,0-3.5,1.6-3.5,3.5c0,1.9,1.6,3.5,3.5,3.5c1.9,0,3.5-1.6,3.5-3.5C21,12.6,19.4,11,17.5,11z M17,12.5
			c0-0.3,0.2-0.5,0.5-0.5c0.3,0,0.5,0.2,0.5,0.5v1c0,0.3-0.2,0.5-0.5,0.5c-0.3,0-0.5-0.2-0.5-0.5V12.5z M16.5,15h-1
			c-0.3,0-0.5-0.2-0.5-0.5c0-0.3,0.2-0.5,0.5-0.5h1c0.3,0,0.5,0.2,0.5,0.5C17,14.8,16.8,15,16.5,15z M18,16.5c0,0.3-0.2,0.5-0.5,0.5
			c-0.3,0-0.5-0.2-0.5-0.5v-1c0-0.3,0.2-0.5,0.5-0.5c0.3,0,0.5,0.2,0.5,0.5V16.5z M19.5,15h-1c-0.3,0-0.5-0.2-0.5-0.5
			c0-0.3,0.2-0.5,0.5-0.5h1c0.3,0,0.5,0.2,0.5,0.5C20,14.8,19.8,15,19.5,15z"/>
		<path d="M21.4,6h-1.6l-0.9-1.7l0-0.1C18.4,3.4,17.7,3,17,3h-5c-0.7,0-1.4,0.4-1.9,1.2L8.8,6H6V5.5C6,4.7,5.3,4,4.5,4h-1
			C2.7,4,2,4.7,2,5.5V6C0.4,6.2,0,7.3,0,8.2v10.4C0,20.1,0.9,21,2.6,21h18.9c1.6,0,2.6-0.9,2.6-2.4V8.2C24,7.2,23.6,6,21.4,6z M8,8
			c0.3,0,0.5,0.2,0.5,0.5C8.5,8.8,8.3,9,8,9C7.7,9,7.5,8.8,7.5,8.5C7.5,8.2,7.7,8,8,8z M6,8c0.3,0,0.5,0.2,0.5,0.5
			C6.5,8.8,6.3,9,6,9C5.7,9,5.5,8.8,5.5,8.5C5.5,8.2,5.7,8,6,8z M4,8c0.3,0,0.5,0.2,0.5,0.5C4.5,8.8,4.3,9,4,9
			C3.7,9,3.5,8.8,3.5,8.5C3.5,8.2,3.7,8,4,8z M12,17.5c0,0.8-0.7,1.5-1.5,1.5h-7C2.7,19,2,18.3,2,17.5v-6C2,10.7,2.7,10,3.5,10h7
			c0.8,0,1.5,0.7,1.5,1.5V17.5z M17.5,19C15,19,13,17,13,14.5c0-2.5,2-4.5,4.5-4.5c2.5,0,4.5,2,4.5,4.5C22,17,20,19,17.5,19z"/>
	</g>
</g>
<g id="Outline_Icons">
	<g>
		<path class="st2" d="M19.5,6.5l-1-2c-0.4-0.5-0.9-1-1.5-1h-5c-0.6,0-1.1,0.5-1.5,1L9,6.5H2.5c-1.5,0-2,0.7-2,1.7v10.4
			c0,1,0.5,1.9,2.1,1.9h18.9c1.6,0,2.1-0.8,2.1-1.9V8.2c0-1-0.5-1.7-2.1-1.7H19.5z"/>
		<path class="st2" d="M2.5,6.5v-1c0-0.6,0.4-1,1-1h1c0.6,0,1,0.4,1,1v1"/>
		<g>
			<g>
				<path d="M4,8C3.7,8,3.5,8.2,3.5,8.5C3.5,8.8,3.7,9,4,9c0.3,0,0.5-0.2,0.5-0.5C4.5,8.2,4.3,8,4,8L4,8z"/>
			</g>
		</g>
		<g>
			<g>
				<path d="M6,8C5.7,8,5.5,8.2,5.5,8.5C5.5,8.8,5.7,9,6,9c0.3,0,0.5-0.2,0.5-0.5C6.5,8.2,6.3,8,6,8L6,8z"/>
			</g>
		</g>
		<g>
			<g>
				<path d="M8,8C7.7,8,7.5,8.2,7.5,8.5C7.5,8.8,7.7,9,8,9c0.3,0,0.5-0.2,0.5-0.5C8.5,8.2,8.3,8,8,8L8,8z"/>
			</g>
		</g>
		<circle class="st2" cx="17.5" cy="14.5" r="4"/>
		<path class="st2" d="M11.5,17.5c0,0.5-0.5,1-1,1h-7c-0.5,0-1-0.5-1-1v-6c0-0.5,0.5-1,1-1h7c0.5,0,1,0.5,1,1V17.5z"/>
		<line class="st3" x1="17.5" y1="12.5" x2="17.5" y2="13.5"/>
		<line class="st3" x1="17.5" y1="15.5" x2="17.5" y2="16.5"/>
		<line class="st3" x1="19.5" y1="14.5" x2="18.5" y2="14.5"/>
		<line class="st3" x1="16.5" y1="14.5" x2="15.5" y2="14.5"/>
	</g>
</g>
</svg>
