<?xml version="1.0" encoding="utf-8"?>
<!-- Generator: Adobe Illustrator 19.2.0, SVG Export Plug-In . SVG Version: 6.00 Build 0)  -->
<svg version="1.1" id="Layer_1" xmlns="http://www.w3.org/2000/svg" xmlns:xlink="http://www.w3.org/1999/xlink" x="0px" y="0px"
	 viewBox="0 0 24 24" style="enable-background:new 0 0 24 24;" xml:space="preserve">
<style type="text/css">
	.st0{display:none;}
	.st1{display:inline;}
	.st2{fill:none;stroke:#000000;stroke-linecap:round;stroke-linejoin:round;stroke-miterlimit:10;}
</style>
<g id="Filled_Icon" class="st0">
	<path class="st1" d="M21.5,1h-19C1.1,1,0,2.1,0,3.5v17C0,21.9,1.1,23,2.5,23h19c1.4,0,2.5-1.1,2.5-2.5v-17C24,2.1,22.9,1,21.5,1z
		 M16.5,7.5h-7v3h7v3h-7v3h7v3h-10v-15h10V7.5z"/>
</g>
<g id="Outline_Icons">
	<g>
		<path class="st2" d="M0.5,3.5c0-1.1,0.9-2,2-2h19c1.1,0,2,0.9,2,2v17c0,1.1-0.9,2-2,2h-19c-1.1,0-2-0.9-2-2V3.5z"/>
		<polygon class="st2" points="16.5,7.5 16.5,4.5 6.5,4.5 6.5,19.5 16.5,19.5 16.5,16.5 9.5,16.5 9.5,13.5 16.5,13.5 16.5,10.5 
			9.5,10.5 9.5,7.5 		"/>
	</g>
</g>
</svg>
