<?xml version="1.0" encoding="utf-8"?>
<!-- Generator: Adobe Illustrator 19.2.0, SVG Export Plug-In . SVG Version: 6.00 Build 0)  -->
<svg version="1.1" id="Layer_1" xmlns="http://www.w3.org/2000/svg" xmlns:xlink="http://www.w3.org/1999/xlink" x="0px" y="0px"
	 viewBox="0 0 24 24" style="enable-background:new 0 0 24 24;" xml:space="preserve">
<style type="text/css">
	.st0{display:none;}
	.st1{display:inline;}
	.st2{fill:none;stroke:#000000;stroke-linecap:round;stroke-linejoin:round;stroke-miterlimit:10;}
	.st3{fill:none;stroke:#000000;stroke-linejoin:round;stroke-miterlimit:10;}
</style>
<g id="Filled_Icon" class="st0">
	<g class="st1">
		<g>
			<path d="M16,11.1V1.5C16,0.7,15.3,0,14.5,0h-13C0.7,0,0,0.7,0,1.5v11C0,13.3,0.7,14,1.5,14h9.8C12.3,12.4,14,11.4,16,11.1z"/>
			<path d="M23.8,1.1c-0.1-0.1-0.3-0.1-0.5,0l-6,3C17.1,4.1,17,4.3,17,4.5v5c0,0.2,0.1,0.4,0.3,0.4l6,3c0.1,0,0.1,0.1,0.2,0.1
				c0.1,0,0.2,0,0.3-0.1c0.1-0.1,0.2-0.3,0.2-0.4v-11C24,1.3,23.9,1.2,23.8,1.1z"/>
		</g>
		<path d="M17,12c-3.3,0-6,2.7-6,6c0,3.3,2.7,6,6,6c3.3,0,6-2.7,6-6C23,14.7,20.3,12,17,12z M20,20.5c0,0.3-0.2,0.5-0.5,0.5h-5
			c-0.3,0-0.5-0.2-0.5-0.5v-5c0-0.3,0.2-0.5,0.5-0.5h5c0.3,0,0.5,0.2,0.5,0.5V20.5z"/>
	</g>
</g>
<g id="Outline_Icons">
	<g>
		<circle class="st2" cx="17" cy="18" r="5.5"/>
		<path class="st2" d="M11,13.5H1.5c-0.5,0-1-0.5-1-1v-11c0-0.5,0.5-1,1-1h13c0.5,0,1,0.5,1,1V10"/>
		<polygon class="st3" points="23.5,12.5 17.5,9.5 17.5,4.5 23.5,1.5 		"/>
		<rect x="14.5" y="15.5" class="st2" width="5" height="5"/>
	</g>
</g>
</svg>
