<?xml version="1.0" encoding="utf-8"?>
<!-- Generator: Adobe Illustrator 19.2.0, SVG Export Plug-In . SVG Version: 6.00 Build 0)  -->
<svg version="1.1" id="Layer_1" xmlns="http://www.w3.org/2000/svg" xmlns:xlink="http://www.w3.org/1999/xlink" x="0px" y="0px"
	 viewBox="0 0 24 24" style="enable-background:new 0 0 24 24;" xml:space="preserve">
<style type="text/css">
	.st0{display:none;}
	.st1{display:inline;}
	.st2{fill:none;stroke:#000000;stroke-linejoin:round;stroke-miterlimit:10;}
</style>
<g id="Filled_Icon" class="st0">
	<path class="st1" d="M19.9,6.3C19.9,6.1,19.7,6,19.5,6h-4.2l3.6-5.2c0.1-0.2,0.1-0.4,0-0.5C18.8,0.1,18.6,0,18.5,0h-5
		c-0.2,0-0.4,0.1-0.4,0.3l-5.4,10c-0.1,0.2-0.1,0.3,0,0.5C7.7,10.9,7.8,11,8,11h3.3l-3.5,6.4l-2.1-1c-0.2-0.1-0.4-0.1-0.5,0
		C5.1,16.5,5,16.7,5,16.9l0.7,6.6c0,0.2,0.1,0.3,0.2,0.4c0.1,0.1,0.3,0.1,0.5,0l6.8-3c0.2-0.1,0.3-0.2,0.3-0.4
		c0-0.2-0.1-0.4-0.2-0.5l-2.5-1.5l9.1-11.7C20,6.7,20,6.5,19.9,6.3z"/>
</g>
<g id="Outline_Icons">
	<g>
		<polygon class="st2" points="5.5,16.8 6.2,23.4 13.1,20.4 10.1,18.6 19.5,6.5 14.3,6.5 18.5,0.5 13.4,0.5 8,10.5 12.1,10.5 8,18 
					"/>
	</g>
</g>
</svg>
