<?xml version="1.0" encoding="utf-8"?>
<!-- Generator: Adobe Illustrator 19.2.0, SVG Export Plug-In . SVG Version: 6.00 Build 0)  -->
<svg version="1.1" id="Layer_1" xmlns="http://www.w3.org/2000/svg" xmlns:xlink="http://www.w3.org/1999/xlink" x="0px" y="0px"
	 viewBox="0 0 24 24" style="enable-background:new 0 0 24 24;" xml:space="preserve">
<style type="text/css">
	.st0{display:none;}
	.st1{display:inline;}
	.st2{fill:none;stroke:#000000;stroke-linejoin:round;stroke-miterlimit:10;}
</style>
<g id="Filled_Icon" class="st0">
	<g class="st1">
		<path d="M5,7.3V3.7L2.4,1.1C2.2,1.5,2,2,2,2.5v6c0,0.5,0.2,1,0.4,1.4L5,7.3z"/>
		<path d="M5.7,3h11.6l2.6-2.6C19.5,0.2,19,0,18.5,0h-14C4,0,3.5,0.2,3.1,0.4L5.7,3z"/>
		<path d="M9,21v2.5C9,23.8,9.2,24,9.5,24h4c0.3,0,0.5-0.2,0.5-0.5V21H9z"/>
		<path d="M17.3,8H5.7l-2.6,2.6C3.5,10.8,4,11,4.5,11h0.6h12.9h0.6c0.5,0,1-0.2,1.4-0.4L17.3,8z"/>
		<path d="M5.2,12L6,19.6C6,19.8,6.2,20,6.5,20h1H9h5h1h1.5c0.3,0,0.5-0.2,0.5-0.4l0.8-7.6H5.2z M13,18c-1.1,0-2-0.9-2-2
			c0-1.1,0.9-2,2-2c1.1,0,2,0.9,2,2C15,17.1,14.1,18,13,18z"/>
		<path d="M20.6,1.1L18,3.7v3.6l2.6,2.6C20.8,9.5,21,9,21,8.5v-6C21,2,20.8,1.5,20.6,1.1z"/>
	</g>
</g>
<g id="Outline_Icons">
	<g>
		<polygon class="st2" points="16.5,19.5 6.5,19.5 5.5,10.5 17.5,10.5 		"/>
		<path class="st2" d="M2.5,8.5c0,1.1,0.9,2,2,2h14c1.1,0,2-0.9,2-2v-6c0-1.1-0.9-2-2-2h-14c-1.1,0-2,0.9-2,2V8.5z"/>
		<rect x="9.5" y="19.5" class="st2" width="4" height="4"/>
		<rect x="5.5" y="3.5" class="st2" width="12" height="4"/>
		<line class="st2" x1="17.5" y1="3.5" x2="19.9" y2="1.1"/>
		<line class="st2" x1="17.5" y1="7.5" x2="19.9" y2="9.9"/>
		<line class="st2" x1="5.5" y1="3.5" x2="3.1" y2="1.1"/>
		<line class="st2" x1="5.5" y1="7.5" x2="3.1" y2="9.9"/>
		<circle class="st2" cx="13" cy="16" r="1.5"/>
	</g>
</g>
</svg>
