<?xml version="1.0" encoding="utf-8"?>
<!-- Generator: Adobe Illustrator 19.2.0, SVG Export Plug-In . SVG Version: 6.00 Build 0)  -->
<svg version="1.1" id="Layer_1" xmlns="http://www.w3.org/2000/svg" xmlns:xlink="http://www.w3.org/1999/xlink" x="0px" y="0px"
	 viewBox="0 0 24 24" style="enable-background:new 0 0 24 24;" xml:space="preserve">
<style type="text/css">
	.st0{display:none;}
	.st1{display:inline;}
	.st2{fill:none;stroke:#000000;stroke-linecap:round;stroke-linejoin:round;stroke-miterlimit:10;}
	.st3{fill:none;stroke:#000000;stroke-linejoin:round;stroke-miterlimit:10;}
</style>
<g id="Filled_Icon" class="st0">
	<g class="st1">
		<path d="M23.1,11.8l-3-3V4.6c0-0.3-0.2-0.5-0.5-0.5h-4.2l-3-3c-0.2-0.2-0.5-0.2-0.7,0l-3,3H4.6c-0.3,0-0.5,0.2-0.5,0.5v4.2l-3,3
			c-0.2,0.2-0.2,0.5,0,0.7l3,3v4.2c0,0.3,0.2,0.5,0.5,0.5h4.2l3,3c0.1,0.1,0.2,0.1,0.4,0.1c0.1,0,0.3,0,0.4-0.1l3-3h4.2
			c0.3,0,0.5-0.2,0.5-0.5v-4.2l3-3C23.3,12.3,23.3,11.9,23.1,11.8z M15.3,16.1c-0.1,0-0.1,0-0.2,0c-0.2,0-0.4-0.1-0.5-0.3L14,14.1
			h-3.8l-0.6,1.7c-0.1,0.3-0.4,0.4-0.6,0.3c-0.3-0.1-0.4-0.4-0.3-0.6l3-8c0.1-0.2,0.3-0.3,0.5-0.3c0.2,0,0.4,0.1,0.5,0.3l3,8
			C15.7,15.7,15.6,16,15.3,16.1z"/>
		<polygon points="10.6,13.1 13.6,13.1 12.1,9 		"/>
	</g>
</g>
<g id="Outline_Icons">
	<g>
		<polyline class="st2" points="9.1,15.6 12.1,7.6 15.1,15.6 		"/>
		<line class="st3" x1="9.9" y1="13.6" x2="14.4" y2="13.6"/>
		<polygon class="st3" points="19.6,15.2 22.7,12.1 19.6,9 19.6,4.6 15.2,4.6 12.1,1.5 9,4.6 4.6,4.6 4.6,9 1.5,12.1 4.6,15.2 
			4.6,19.6 9,19.6 12.1,22.7 15.2,19.6 19.6,19.6 		"/>
	</g>
</g>
</svg>
