<?xml version="1.0" encoding="utf-8"?>
<!-- Generator: Adobe Illustrator 19.2.0, SVG Export Plug-In . SVG Version: 6.00 Build 0)  -->
<svg version="1.1" id="Outline_Icons" xmlns="http://www.w3.org/2000/svg" xmlns:xlink="http://www.w3.org/1999/xlink" x="0px"
	 y="0px" viewBox="0 0 24 24" style="enable-background:new 0 0 24 24;" xml:space="preserve">
<style type="text/css">
	.st0{fill:none;stroke:#000000;stroke-linejoin:round;stroke-miterlimit:10;}
	.st1{fill:none;stroke:#000000;stroke-linecap:square;stroke-linejoin:round;stroke-miterlimit:10;}
</style>
<g>
	<rect x="1.5" y="4.5" class="st0" width="9" height="15"/>
	<path class="st0" d="M21.5,13.5c-1.4,0-2,0.6-2,2v2h-9v-11h13v7H21.5z"/>
	<line class="st1" x1="12.5" y1="8.5" x2="12.5" y2="9.5"/>
	<line class="st1" x1="14.5" y1="8.5" x2="14.5" y2="9.5"/>
	<line class="st1" x1="16.5" y1="8.5" x2="16.5" y2="9.5"/>
	<line class="st1" x1="12.5" y1="14.5" x2="12.5" y2="15.5"/>
	<line class="st1" x1="14.5" y1="14.5" x2="14.5" y2="15.5"/>
	<line class="st1" x1="16.5" y1="14.5" x2="16.5" y2="15.5"/>
	<line class="st1" x1="18.5" y1="8.5" x2="18.5" y2="9.5"/>
	<line class="st1" x1="20.5" y1="8.5" x2="20.5" y2="9.5"/>
	<path class="st1" d="M11.5,4.5h-11V3c0-0.3,0.2-0.5,0.5-0.5h10c0.3,0,0.5,0.2,0.5,0.5V4.5z"/>
	<path class="st1" d="M11.5,21c0,0.3-0.2,0.5-0.5,0.5H1c-0.3,0-0.5-0.2-0.5-0.5v-1.5h11V21z"/>
</g>
</svg>
