<?xml version="1.0" encoding="utf-8"?>
<!-- Generator: Adobe Illustrator 19.2.0, SVG Export Plug-In . SVG Version: 6.00 Build 0)  -->
<svg version="1.1" id="Layer_1" xmlns="http://www.w3.org/2000/svg" xmlns:xlink="http://www.w3.org/1999/xlink" x="0px" y="0px"
	 viewBox="0 0 24 24" style="enable-background:new 0 0 24 24;" xml:space="preserve">
<style type="text/css">
	.st0{display:none;}
	.st1{display:inline;}
	.st2{fill:none;stroke:#000000;stroke-linejoin:round;stroke-miterlimit:10;}
</style>
<g id="Filled_Icon" class="st0">
	<g class="st1">
		<path d="M17,15v7h1.5c0.3,0,0.5-0.2,0.5-0.5v-6.8C18.4,14.9,17.7,15,17,15z"/>
		<circle cx="8" cy="19" r="3"/>
		<g>
			<path d="M3,13.5C3,13.2,3.2,13,3.5,13h8.2c-1.2-1-2.1-2.4-2.5-4H0.5C0.2,9,0,9.2,0,9.5v14C0,23.8,0.2,24,0.5,24H3V13.5z M3.5,11
				C3.8,11,4,11.2,4,11.5C4,11.8,3.8,12,3.5,12C3.2,12,3,11.8,3,11.5C3,11.2,3.2,11,3.5,11z"/>
			<path d="M13,13.9V24h2.5c0.3,0,0.5-0.2,0.5-0.5v-8.6C14.9,14.8,13.9,14.4,13,13.9z"/>
		</g>
		<g>
			<path d="M19.5,7c0,0.5-0.2,1-0.4,1.4l3.6,2.7C23.5,10,24,8.5,24,7c0-1.6-0.5-3-1.4-4.1l-3.6,2.7C19.3,6,19.5,6.5,19.5,7z"/>
			<path d="M15.7,4.9c0.4-0.2,0.8-0.4,1.3-0.4c0.5,0,1,0.1,1.3,0.4L22,2.1c-1.3-1.3-3-2.1-5-2.1c-1.9,0-3.7,0.8-5,2.1L15.7,4.9z"/>
			<path d="M11.4,2.8C10.5,4,10,5.4,10,7c0,1.6,0.5,3,1.4,4.2l3.5-2.8C14.7,8,14.5,7.5,14.5,7c0-0.5,0.2-1,0.4-1.4L11.4,2.8z"/>
			<path d="M18.3,9.1C18,9.4,17.5,9.5,17,9.5c-0.5,0-1-0.1-1.3-0.4L12,11.9c1.3,1.3,3,2.1,5,2.1c2,0,3.7-0.8,5-2.1L18.3,9.1z"/>
		</g>
	</g>
</g>
<g id="Outline_Icons">
	<g>
		<polyline class="st2" points="15.5,21 15.5,23.5 0.5,23.5 0.5,9.5 9,9.5 		"/>
		<circle class="st2" cx="17" cy="7" r="6.5"/>
		<circle class="st2" cx="17" cy="7" r="2"/>
		<polyline class="st2" points="18.5,13.3 18.5,21.5 15.5,21.5 15.5,13.3 		"/>
		<rect x="3.5" y="13.5" class="st2" width="9" height="10"/>
		<circle class="st2" cx="8" cy="19" r="2.5"/>
		<g>
			<path d="M3.5,11C3.2,11,3,11.2,3,11.5C3,11.8,3.2,12,3.5,12C3.8,12,4,11.8,4,11.5C4,11.2,3.8,11,3.5,11L3.5,11z"/>
		</g>
		<line class="st2" x1="15.7" y1="5.5" x2="12.1" y2="2.7"/>
		<line class="st2" x1="18.3" y1="5.5" x2="21.9" y2="2.8"/>
		<line class="st2" x1="18.3" y1="8.5" x2="21.9" y2="11.2"/>
		<line class="st2" x1="15.7" y1="8.5" x2="12.1" y2="11.3"/>
	</g>
</g>
</svg>
