<?xml version="1.0" encoding="utf-8"?>
<!-- Generator: Adobe Illustrator 19.2.0, SVG Export Plug-In . SVG Version: 6.00 Build 0)  -->
<svg version="1.1" id="Layer_1" xmlns="http://www.w3.org/2000/svg" xmlns:xlink="http://www.w3.org/1999/xlink" x="0px" y="0px"
	 viewBox="0 0 24 24" style="enable-background:new 0 0 24 24;" xml:space="preserve">
<style type="text/css">
	.st0{display:none;}
	.st1{display:inline;}
	.st2{fill:none;stroke:#000000;stroke-linecap:round;stroke-linejoin:round;stroke-miterlimit:10;}
</style>
<g id="Filled_Icon" class="st0">
	<g class="st1">
		<path d="M0,2v20h24V2H0z M2,4h4v1H3v3H2V4z M6,20H2v-4h1v3h3V20z M4.1,12.3L3.8,12l0.3-0.3C4.3,11.5,8.3,7,12,7
			c3.7,0,7.7,4.5,7.9,4.7l0.3,0.3l-0.3,0.3C19.7,12.5,15.7,17,12,17C8.3,17,4.3,12.5,4.1,12.3z M22,20h-4v-1h3v-3h1V20z M22,8h-1V5
			h-3V4h4V8z"/>
		<path d="M12,8c-2.7,0-5.8,3-6.8,4c1,1,4.1,4,6.8,4c2.7,0,5.8-3,6.8-4C17.8,11,14.7,8,12,8z M12,15c-1.7,0-3-1.3-3-3
			c0-1.7,1.3-3,3-3c1.7,0,3,1.3,3,3C15,13.7,13.7,15,12,15z"/>
		<circle cx="12" cy="12" r="1"/>
	</g>
</g>
<g id="Outline_Icons">
	<g>
		<rect x="0.5" y="2.5" class="st2" width="23" height="19"/>
		<polyline class="st2" points="5.5,4.5 2.5,4.5 2.5,7.5 		"/>
		<polyline class="st2" points="18.5,4.5 21.5,4.5 21.5,7.5 		"/>
		<polyline class="st2" points="5.5,19.5 2.5,19.5 2.5,16.5 		"/>
		<polyline class="st2" points="18.5,19.5 21.5,19.5 21.5,16.5 		"/>
		<path class="st2" d="M19.5,12c0,0-4,4.5-7.5,4.5S4.5,12,4.5,12s4-4.5,7.5-4.5S19.5,12,19.5,12z"/>
		<circle class="st2" cx="12" cy="12" r="2.5"/>
		<circle class="st2" cx="12" cy="12" r="0.5"/>
	</g>
</g>
</svg>
