<?xml version="1.0" encoding="utf-8"?>
<!-- Generator: Adobe Illustrator 19.2.0, SVG Export Plug-In . SVG Version: 6.00 Build 0)  -->
<svg version="1.1" id="Layer_1" xmlns="http://www.w3.org/2000/svg" xmlns:xlink="http://www.w3.org/1999/xlink" x="0px" y="0px"
	 viewBox="0 0 24 24" style="enable-background:new 0 0 24 24;" xml:space="preserve">
<style type="text/css">
	.st0{display:none;}
	.st1{display:inline;}
	.st2{fill:none;stroke:#000000;stroke-linejoin:round;stroke-miterlimit:10;}
	.st3{fill:none;stroke:#000000;stroke-linecap:round;stroke-linejoin:round;stroke-miterlimit:10;}
</style>
<g id="Filled_Icon" class="st0">
	<g class="st1">
		<path d="M12,0C5.4,0,0,5.4,0,12c0,6.6,5.4,12,12,12c6.6,0,12-5.4,12-12C24,5.4,18.6,0,12,0z M19,15c0,0.6-0.4,1-1,1H6
			c-0.6,0-1-0.4-1-1v-5c0-0.6,0.4-1,1-1h2.5c0.1,0,0.3-0.1,0.4-0.1L10.7,7h2.6l1.9,1.9C15.2,8.9,15.4,9,15.5,9H18c0.6,0,1,0.4,1,1
			V15z"/>
		<path d="M12,9c-1.7,0-3,1.3-3,3c0,1.7,1.3,3,3,3c1.7,0,3-1.3,3-3C15,10.3,13.7,9,12,9z M12,14c-1.1,0-2-0.9-2-2c0-1.1,0.9-2,2-2
			c1.1,0,2,0.9,2,2C14,13.1,13.1,14,12,14z"/>
		<circle cx="17.5" cy="10" r="0.5"/>
	</g>
</g>
<g id="Outline_Icons">
	<g>
		<circle class="st2" cx="12" cy="12" r="2.5"/>
		<path class="st3" d="M15.5,8.5H18c0.8,0,1.5,0.7,1.5,1.5v5c0,0.8-0.7,1.5-1.5,1.5H6c-0.8,0-1.5-0.7-1.5-1.5v-5
			c0-0.8,0.7-1.5,1.5-1.5h2.5"/>
		<polyline class="st3" points="8.5,8.5 10.5,6.5 13.5,6.5 15.5,8.5 		"/>
		<g>
			<g>
				<path d="M17.5,9.5C17.2,9.5,17,9.7,17,10c0,0.3,0.2,0.5,0.5,0.5c0.3,0,0.5-0.2,0.5-0.5C18,9.7,17.8,9.5,17.5,9.5L17.5,9.5z"/>
			</g>
		</g>
		<circle class="st2" cx="12" cy="12" r="11.5"/>
	</g>
</g>
</svg>
