<?xml version="1.0" encoding="utf-8"?>
<!-- Generator: Adobe Illustrator 19.2.0, SVG Export Plug-In . SVG Version: 6.00 Build 0)  -->
<svg version="1.1" id="Layer_1" xmlns="http://www.w3.org/2000/svg" xmlns:xlink="http://www.w3.org/1999/xlink" x="0px" y="0px"
	 viewBox="0 0 24 24" style="enable-background:new 0 0 24 24;" xml:space="preserve">
<style type="text/css">
	.st0{display:none;}
	.st1{display:inline;}
	.st2{fill:none;stroke:#000000;stroke-linejoin:round;stroke-miterlimit:10;}
	.st3{fill:none;stroke:#000000;stroke-linecap:round;stroke-linejoin:round;stroke-miterlimit:10;}
</style>
<g id="Filled_Icon" class="st0">
	<g class="st1">
		<path d="M19.5,0h-15C2,0,0,2,0,4.5v15C0,22,2,24,4.5,24h15c2.5,0,4.5-2,4.5-4.5v-15C24,2,22,0,19.5,0z M20,16c0,0.6-0.4,1-1,1H5
			c-0.6,0-1-0.4-1-1V9.2c0-0.6,0.4-1,1-1h3.2c0.1,0,0.3-0.1,0.4-0.1l2-2h2.9l2,2c0.1,0.1,0.2,0.1,0.4,0.1H19c0.6,0,1,0.4,1,1V16z"/>
		<circle cx="18" cy="10.4" r="0.5"/>
		<path d="M12,8.8c-1.8,0-3.2,1.4-3.2,3.2c0,1.8,1.4,3.2,3.2,3.2c1.8,0,3.2-1.4,3.2-3.2C15.2,10.3,13.8,8.8,12,8.8z M12,14.3
			c-1.2,0-2.2-1-2.2-2.2c0-1.2,1-2.2,2.2-2.2c1.2,0,2.2,1,2.2,2.2C14.2,13.3,13.2,14.3,12,14.3z"/>
	</g>
</g>
<g id="Outline_Icons">
	<g>
		<circle class="st2" cx="12" cy="12" r="2.7"/>
		<path class="st3" d="M15.8,7.5H19c0.8,0,1.5,0.8,1.5,1.7V16c0,0.8-0.7,1.5-1.5,1.5H5c-0.8,0-1.5-0.7-1.5-1.5V9.2
			c0-0.8,0.7-1.7,1.5-1.7h3.2"/>
		<polyline class="st3" points="8.2,7.5 10.4,5.5 13.6,5.5 15.8,7.5 		"/>
		<g>
			<g>
				<path d="M18,9.9c-0.3,0-0.5,0.2-0.5,0.5c0,0.3,0.2,0.5,0.5,0.5c0.3,0,0.5-0.2,0.5-0.5C18.5,10.1,18.3,9.9,18,9.9L18,9.9z"/>
			</g>
		</g>
		<path class="st2" d="M23.5,19.5c0,2.2-1.8,4-4,4h-15c-2.2,0-4-1.8-4-4v-15c0-2.2,1.8-4,4-4h15c2.2,0,4,1.8,4,4V19.5z"/>
	</g>
</g>
</svg>
