<?xml version="1.0" encoding="utf-8"?>
<!-- Generator: Adobe Illustrator 19.2.0, SVG Export Plug-In . SVG Version: 6.00 Build 0)  -->
<svg version="1.1" id="Layer_1" xmlns="http://www.w3.org/2000/svg" xmlns:xlink="http://www.w3.org/1999/xlink" x="0px" y="0px"
	 viewBox="0 0 24 24" style="enable-background:new 0 0 24 24;" xml:space="preserve">
<style type="text/css">
	.st0{display:none;}
	.st1{display:inline;}
	.st2{fill:none;stroke:#000000;stroke-linecap:round;stroke-linejoin:round;stroke-miterlimit:10;}
	.st3{fill:none;stroke:#000000;stroke-linejoin:round;stroke-miterlimit:10;}
</style>
<g id="Filled_Icon" class="st0">
	<g class="st1">
		<polygon points="13.9,17 16.1,17 15,14 		"/>
		<path d="M12,0C5.4,0,0,5.4,0,12c0,6.6,5.4,12,12,12c6.6,0,12-5.4,12-12C24,5.4,18.6,0,12,0z M7.3,20.2l3.1-7.7H6.7l4.9-9h4.5
			l-3.7,6h4.7l-1,1.1l-0.5,0.5c-0.2-0.1-0.3-0.1-0.5-0.1c0,0,0,0,0,0c-0.6,0-1.2,0.4-1.4,1l-0.8,2.1l-1.3,1.4L7.3,20.2z M17.8,20
			c-0.1,0-0.1,0-0.2,0c-0.2,0-0.4-0.1-0.5-0.3L16.5,18h-3l-0.6,1.7c-0.1,0.3-0.4,0.4-0.6,0.3c-0.3-0.1-0.4-0.4-0.3-0.6l2.6-6.9
			c0.1-0.2,0.3-0.3,0.5-0.3c0,0,0,0,0,0c0.2,0,0.4,0.1,0.5,0.3l2.6,6.9C18.2,19.6,18,19.9,17.8,20z"/>
	</g>
</g>
<g id="Outline_Icons">
	<g>
		<circle class="st2" cx="12" cy="12" r="11.5"/>
		<polyline class="st2" points="11.5,15.6 7.3,20.2 10.4,12.5 6.7,12.5 11.6,3.5 16.2,3.5 12.4,9.5 17.1,9.5 16,10.6 		"/>
		<polyline class="st2" points="12.4,19.5 15,12.6 17.6,19.5 		"/>
		<line class="st3" x1="13.2" y1="17.5" x2="16.9" y2="17.5"/>
	</g>
</g>
</svg>
