<?xml version="1.0" encoding="utf-8"?>
<!-- Generator: Adobe Illustrator 19.2.0, SVG Export Plug-In . SVG Version: 6.00 Build 0)  -->
<svg version="1.1" id="Layer_1" xmlns="http://www.w3.org/2000/svg" xmlns:xlink="http://www.w3.org/1999/xlink" x="0px" y="0px"
	 viewBox="0 0 24 24" style="enable-background:new 0 0 24 24;" xml:space="preserve">
<style type="text/css">
	.st0{display:none;}
	.st1{display:inline;}
	.st2{fill:none;stroke:#000000;stroke-linecap:round;stroke-linejoin:round;stroke-miterlimit:10;}
	.st3{fill:none;stroke:#000000;stroke-linejoin:round;stroke-miterlimit:10;}
</style>
<g id="Filled_Icon" class="st0">
	<g class="st1">
		<path d="M7.9,8.5C7.7,9.3,7.5,10.1,7.5,11h5c0-0.8,0.1-1.7,0.3-2.5H7.9z"/>
		<path d="M7.5,12c0,0.9,0.2,1.7,0.3,2.5h5c-0.2-0.8-0.3-1.7-0.3-2.5H7.5z"/>
		<path d="M8.9,4H8c-1.8,0-3.5,3.7-3.5,7.5C4.5,15.3,6.2,19,8,19h0.9c-1.5-1.5-2.4-4.6-2.4-7.5C6.5,8.6,7.4,5.5,8.9,4z"/>
		<path d="M8.1,15.5c0.7,2,1.8,3.5,2.9,3.5h3.9c-0.8-0.8-1.4-2.1-1.9-3.5H8.1z"/>
		<path d="M19.5,4C17.7,4,16,7.7,16,11.5c0,3.8,1.7,7.5,3.5,7.5c2.5,0,4.5-3.3,4.5-7.5C24,7.3,22,4,19.5,4z"/>
		<path d="M5.2,5C0.4,7.9,0,8.2,0,11.5c0,3.3,0.3,3.6,5.2,6.5c-1-1.7-1.7-4.2-1.7-6.5C3.5,9.2,4.1,6.7,5.2,5z"/>
		<path d="M13.1,7.5c0.4-1.4,1.1-2.7,1.9-3.5H11C9.9,4,8.8,5.5,8.1,7.5H13.1z"/>
		<path d="M17.4,4H17c-1.8,0-3.5,3.7-3.5,7.5c0,3.8,1.7,7.5,3.5,7.5h0.4c-1.5-1.5-2.4-4.6-2.4-7.5C15,8.6,15.9,5.5,17.4,4z"/>
	</g>
</g>
<g id="Outline_Icons">
	<g>
		<ellipse class="st2" cx="19.5" cy="11.5" rx="4" ry="7"/>
		<path class="st2" d="M8,18.5c-2.2,0-4-3.1-4-7c0-3.9,1.8-7,4-7"/>
		<path class="st2" d="M17,18.5c-2.2,0-4-3.1-4-7c0-3.9,1.8-7,4-7"/>
		<path class="st2" d="M11,18.5c-2.2,0-4-3.1-4-7c0-3.9,1.8-7,4-7"/>
		<path class="st3" d="M19,18.5H7c-6.3-3.8-6.5-3.6-6.5-7c0-3.4,0.2-3.2,6.5-7h12"/>
		<line class="st3" x1="7.7" y1="7.5" x2="13.7" y2="7.5"/>
		<line class="st3" x1="7" y1="11.5" x2="13" y2="11.5"/>
		<line class="st3" x1="7.7" y1="15.5" x2="13.7" y2="15.5"/>
	</g>
</g>
</svg>
