<?xml version="1.0" encoding="utf-8"?>
<!-- Generator: Adobe Illustrator 19.2.0, SVG Export Plug-In . SVG Version: 6.00 Build 0)  -->
<svg version="1.1" id="Layer_1" xmlns="http://www.w3.org/2000/svg" xmlns:xlink="http://www.w3.org/1999/xlink" x="0px" y="0px"
	 viewBox="0 0 24 24" enable-background="new 0 0 24 24" xml:space="preserve">
<g id="Filled_Icons" display="none">
	<g display="inline">
		<circle cx="18.252" cy="18.506" r="2.5"/>
		<path d="M23.5,5.006h-12c-2.481,0-4.5,2.02-4.5,4.5v8.5H0.563c-0.276,0-0.5,0.225-0.5,0.5c0,0.275,0.224,0.5,0.5,0.5H7.5h1.313
			h5.99c-0.023-0.164-0.051-0.328-0.051-0.5c0-1.93,1.57-3.5,3.5-3.5c1.93,0,3.5,1.57,3.5,3.5c0,0.172-0.025,0.336-0.051,0.5H23.5
			c0.275,0,0.5-0.225,0.5-0.5v-13C24,5.229,23.775,5.006,23.5,5.006z M16,12.006c0,0.276-0.225,0.5-0.5,0.5h-3
			c-0.276,0-0.5-0.224-0.5-0.5v-3c0-0.276,0.224-0.5,0.5-0.5h3c0.275,0,0.5,0.224,0.5,0.5V12.006z M21,12.006
			c0,0.276-0.225,0.5-0.5,0.5h-3c-0.275,0-0.5-0.224-0.5-0.5v-3c0-0.276,0.225-0.5,0.5-0.5h3c0.275,0,0.5,0.224,0.5,0.5V12.006z"/>
	</g>
</g>
<g id="Outline_Icons">
	<g>
		
			<circle fill="none" stroke="#000000" stroke-linecap="round" stroke-linejoin="round" stroke-miterlimit="10" cx="18.252" cy="18.5" r="2"/>
		<path fill="none" stroke="#000000" stroke-linecap="round" stroke-linejoin="round" stroke-miterlimit="10" d="M16.252,18.5H7.5
			v-9c0-2.209,1.791-4,4-4h12v13h-3.248"/>
		
			<line fill="none" stroke="#000000" stroke-linecap="round" stroke-linejoin="round" stroke-miterlimit="10" x1="8.813" y1="18.5" x2="0.563" y2="18.5"/>
		
			<rect x="12.5" y="8.5" fill="none" stroke="#000000" stroke-linecap="round" stroke-linejoin="round" stroke-miterlimit="10" width="8" height="4"/>
		
			<line fill="none" stroke="#000000" stroke-linecap="round" stroke-linejoin="round" stroke-miterlimit="10" x1="16.5" y1="8.5" x2="16.5" y2="12.5"/>
	</g>
</g>
</svg>
