<?xml version="1.0" encoding="utf-8"?>
<!-- Generator: Adobe Illustrator 19.2.0, SVG Export Plug-In . SVG Version: 6.00 Build 0)  -->
<svg version="1.1" id="Layer_1" xmlns="http://www.w3.org/2000/svg" xmlns:xlink="http://www.w3.org/1999/xlink" x="0px" y="0px"
	 viewBox="0 0 24 24" enable-background="new 0 0 24 24" xml:space="preserve">
<g id="Filled_Icons" display="none">
	<g display="inline">
		<path d="M17.853,8.151l-2.145-2.146H16c0.275,0,0.5-0.224,0.5-0.5c0-0.276-0.225-0.5-0.5-0.5h-5.793L8.354,3.151
			c-0.195-0.194-0.512-0.194-0.707,0c-0.195,0.195-0.195,0.512,0,0.707l1.146,1.147H7c-0.276,0-0.5,0.224-0.5,0.5
			c0,0.276,0.224,0.5,0.5,0.5h0.293L5.146,8.151C5.053,8.247,5,8.373,5,8.506v13.5c0,0.133,0.053,0.26,0.146,0.354l1.5,1.5
			C6.74,23.954,6.867,24.006,7,24.006h9c0.133,0,0.26-0.052,0.353-0.146l1.5-1.5C17.947,22.266,18,22.139,18,22.006v-13.5
			C18,8.373,17.947,8.247,17.853,8.151z M14.939,13.742l-3.5,6.5c-0.113,0.21-0.354,0.304-0.563,0.248
			c-0.223-0.057-0.378-0.256-0.378-0.484v-4h-2c-0.183,0-0.351-0.1-0.438-0.259c-0.088-0.16-0.082-0.354,0.017-0.509l3.5-5.5
			c0.119-0.188,0.348-0.275,0.562-0.212c0.213,0.063,0.36,0.258,0.36,0.48v3h2c0.176,0,0.339,0.092,0.43,0.243
			C15.019,13.4,15.023,13.588,14.939,13.742z"/>
		<circle cx="14" cy="1.506" r="0.5"/>
		<circle cx="13" cy="3.506" r="0.5"/>
		<circle cx="12" cy="0.506" r="0.5"/>
	</g>
</g>
<g id="Outline_Icons">
	<g>
		<polygon fill="none" stroke="#000000" stroke-linejoin="round" stroke-miterlimit="10" points="10.5,20 10.5,15.5 8,15.5 11.5,10 
			11.5,13.5 14,13.5 		"/>
		<polygon fill="none" stroke="#000000" stroke-linecap="round" stroke-linejoin="round" stroke-miterlimit="10" points="16,23.5 
			7,23.5 5.5,22 5.5,8.5 8.5,5.5 14.5,5.5 17.5,8.5 17.5,22 		"/>
		
			<line fill="none" stroke="#000000" stroke-linecap="round" stroke-linejoin="round" stroke-miterlimit="10" x1="7" y1="5.5" x2="16" y2="5.5"/>
		
			<line fill="none" stroke="#000000" stroke-linecap="round" stroke-linejoin="round" stroke-miterlimit="10" x1="10" y1="5.5" x2="8" y2="3.5"/>
		<g>
			<g>
				<path d="M14,1c-0.275,0-0.5,0.225-0.5,0.5C13.5,1.776,13.725,2,14,2c0.275,0,0.5-0.224,0.5-0.5C14.5,1.225,14.275,1,14,1L14,1z"
					/>
			</g>
		</g>
		<g>
			<g>
				<path d="M13,3c-0.275,0-0.5,0.225-0.5,0.5C12.5,3.776,12.725,4,13,4c0.275,0,0.5-0.224,0.5-0.5C13.5,3.225,13.275,3,13,3L13,3z"
					/>
			</g>
		</g>
		<g>
			<g>
				<path d="M12,0c-0.276,0-0.5,0.225-0.5,0.5C11.5,0.776,11.724,1,12,1c0.276,0,0.5-0.224,0.5-0.5C12.5,0.225,12.276,0,12,0L12,0z"
					/>
			</g>
		</g>
	</g>
</g>
</svg>
