<?xml version="1.0" encoding="utf-8"?>
<!-- Generator: Adobe Illustrator 19.2.0, SVG Export Plug-In . SVG Version: 6.00 Build 0)  -->
<svg version="1.1" id="Layer_1" xmlns="http://www.w3.org/2000/svg" xmlns:xlink="http://www.w3.org/1999/xlink" x="0px" y="0px"
	 viewBox="0 0 24 24" enable-background="new 0 0 24 24" xml:space="preserve">
<g id="Filled_Icons" display="none">
	<g display="inline">
		<path d="M17.853,8.151l-2.145-2.146H16c0.275,0,0.5-0.224,0.5-0.5c0-0.276-0.225-0.5-0.5-0.5h-5.793L8.354,3.151
			c-0.195-0.194-0.512-0.194-0.707,0c-0.195,0.195-0.195,0.512,0,0.707l1.146,1.147H7c-0.276,0-0.5,0.224-0.5,0.5
			c0,0.276,0.224,0.5,0.5,0.5h0.293L5.146,8.151C5.053,8.247,5,8.373,5,8.506v13.5c0,0.133,0.053,0.26,0.146,0.354l1.5,1.5
			C6.74,23.954,6.867,24.006,7,24.006h9c0.133,0,0.26-0.052,0.353-0.146l1.5-1.5C17.947,22.266,18,22.139,18,22.006v-13.5
			C18,8.373,17.947,8.247,17.853,8.151z M9.5,21.506c0,0.275-0.224,0.5-0.5,0.5c-0.276,0-0.5-0.225-0.5-0.5v-4
			c0-0.275,0.224-0.5,0.5-0.5c0.276,0,0.5,0.225,0.5,0.5V21.506z M11.5,21.506c0,0.275-0.224,0.5-0.5,0.5
			c-0.276,0-0.5-0.225-0.5-0.5v-1.5c0-0.275,0.224-0.5,0.5-0.5c0.276,0,0.5,0.225,0.5,0.5V21.506z M11.5,16.006
			c-1.76,0-3.217-1.309-3.461-3h6.921C14.716,14.697,13.259,16.006,11.5,16.006z M8.039,12.006c0.244-1.693,1.701-3,3.461-3
			c1.759,0,3.216,1.307,3.46,3H8.039z"/>
		<circle cx="14" cy="1.506" r="0.5"/>
		<circle cx="13" cy="3.506" r="0.5"/>
		<circle cx="12" cy="0.506" r="0.5"/>
	</g>
</g>
<g id="Outline_Icons">
	<g>
		
			<circle fill="none" stroke="#000000" stroke-linecap="round" stroke-linejoin="round" stroke-miterlimit="10" cx="11.5" cy="12.5" r="3"/>
		
			<line fill="none" stroke="#000000" stroke-linecap="round" stroke-linejoin="round" stroke-miterlimit="10" x1="8.5" y1="12.5" x2="14.5" y2="12.5"/>
		
			<line fill="none" stroke="#000000" stroke-linecap="round" stroke-linejoin="round" stroke-miterlimit="10" x1="8.5" y1="17.5" x2="8.5" y2="21.5"/>
		
			<line fill="none" stroke="#000000" stroke-linecap="round" stroke-linejoin="round" stroke-miterlimit="10" x1="10.5" y1="20" x2="10.5" y2="21.5"/>
		<polygon fill="none" stroke="#000000" stroke-linecap="round" stroke-linejoin="round" stroke-miterlimit="10" points="16,23.5 
			7,23.5 5.5,22 5.5,8.5 8.5,5.5 14.5,5.5 17.5,8.5 17.5,22 		"/>
		
			<line fill="none" stroke="#000000" stroke-linecap="round" stroke-linejoin="round" stroke-miterlimit="10" x1="7" y1="5.5" x2="16" y2="5.5"/>
		
			<line fill="none" stroke="#000000" stroke-linecap="round" stroke-linejoin="round" stroke-miterlimit="10" x1="10" y1="5.5" x2="8" y2="3.5"/>
		<g>
			<g>
				<path d="M14,1c-0.275,0-0.5,0.225-0.5,0.5C13.5,1.776,13.725,2,14,2c0.275,0,0.5-0.224,0.5-0.5C14.5,1.225,14.275,1,14,1L14,1z"
					/>
			</g>
		</g>
		<g>
			<g>
				<path d="M13,3c-0.275,0-0.5,0.225-0.5,0.5C12.5,3.776,12.725,4,13,4c0.275,0,0.5-0.224,0.5-0.5C13.5,3.225,13.275,3,13,3L13,3z"
					/>
			</g>
		</g>
		<g>
			<g>
				<path d="M12,0c-0.276,0-0.5,0.225-0.5,0.5C11.5,0.776,11.724,1,12,1c0.276,0,0.5-0.224,0.5-0.5C12.5,0.225,12.276,0,12,0L12,0z"
					/>
			</g>
		</g>
	</g>
</g>
</svg>
