<?xml version="1.0" encoding="utf-8"?>
<!-- Generator: Adobe Illustrator 19.2.0, SVG Export Plug-In . SVG Version: 6.00 Build 0)  -->
<svg version="1.1" id="Layer_1" xmlns="http://www.w3.org/2000/svg" xmlns:xlink="http://www.w3.org/1999/xlink" x="0px" y="0px"
	 viewBox="0 0 24 24" enable-background="new 0 0 24 24" xml:space="preserve">
<g id="Filled_Icons" display="none">
	<path display="inline" d="M12,0.006c-6.262,0-10,1.496-10,4v16c0,2.504,3.738,4,10,4c6.262,0,10-1.496,10-4v-16
		C22,1.502,18.262,0.006,12,0.006z M17,18.523c0,0.24-0.17,0.447-0.404,0.492c-1.736,0.334-3.197,0.49-4.598,0.49h-0.001
		c-1.419,0-2.836-0.15-4.592-0.49C7.17,18.971,7,18.764,7,18.523v-5.517c0-0.148,0.066-0.291,0.182-0.387
		c0.115-0.094,0.269-0.133,0.413-0.103c3.384,0.652,5.424,0.652,8.811,0c0.146-0.03,0.298,0.01,0.412,0.105
		C16.934,12.715,17,12.857,17,13.006V18.523z M12,7.006c-6.218,0-9-1.508-9-3c0-1.494,2.782-3,9-3c6.217,0,9,1.506,9,3
		C21,5.499,18.217,7.006,12,7.006z"/>
</g>
<g id="Outline_Icons">
	<g>
		<path fill="none" stroke="#000000" stroke-linecap="round" stroke-linejoin="round" stroke-miterlimit="10" d="M21.5,4
			c0,1.933-3.148,3.5-9.5,3.5C5.648,7.5,2.5,5.933,2.5,4c0-1.933,3.148-3.5,9.5-3.5C18.352,0.5,21.5,2.067,21.5,4z"/>
		<path fill="none" stroke="#000000" stroke-linecap="round" stroke-linejoin="round" stroke-miterlimit="10" d="M21.5,4v16
			c0,1.934-3.148,3.5-9.5,3.5c-6.352,0-9.5-1.566-9.5-3.5V4"/>
		<path fill="none" stroke="#000000" stroke-linecap="round" stroke-linejoin="round" stroke-miterlimit="10" d="M7.5,18.52
			c3.316,0.642,5.664,0.644,9,0V13c-3.331,0.643-5.679,0.643-9,0V18.52z"/>
	</g>
</g>
</svg>
