<?xml version="1.0" encoding="utf-8"?>
<!-- Generator: Adobe Illustrator 19.2.0, SVG Export Plug-In . SVG Version: 6.00 Build 0)  -->
<svg version="1.1" id="Layer_1" xmlns="http://www.w3.org/2000/svg" xmlns:xlink="http://www.w3.org/1999/xlink" x="0px" y="0px"
	 viewBox="0 0 24 24" enable-background="new 0 0 24 24" xml:space="preserve">
<g id="Filled_Icons" display="none">
	<g display="inline">
		<path d="M12.31,11.345c-1.827,0-3.692-0.601-5.615-1.797c-0.298,0.766-0.424,1.577-0.396,2.388
			c3.974,3.168,8.191,3.17,11.969,0.006c0.002-0.07,0.01-0.14,0.01-0.21c0-0.794-0.154-1.563-0.446-2.276
			C16.014,10.71,14.182,11.345,12.31,11.345z"/>
		<path d="M6.526,13.346c0.142,0.51,0.35,1.004,0.621,1.469c-0.436-0.166-0.911-0.254-1.43-0.254c-2.197,0-4.366,1.531-4.458,1.596
			c-0.201,0.146-0.267,0.414-0.154,0.636c0.111,0.22,0.37,0.325,0.604,0.247c1.379-0.455,2.773,0.935,2.313,2.312
			c-0.06,0.18-0.013,0.379,0.121,0.512c0.135,0.135,0.333,0.185,0.512,0.121c1.373-0.453,2.774,0.933,2.313,2.313
			c-0.078,0.235,0.027,0.491,0.248,0.604c0.072,0.037,0.149,0.056,0.227,0.056c0.157,0,0.311-0.075,0.407-0.21
			c0.11-0.154,2.32-3.314,1.344-5.872c0.923,0.556,1.978,0.856,3.081,0.856c1.603,0,3.109-0.625,4.243-1.758
			c0.735-0.736,1.252-1.629,1.526-2.604c-1.815,1.285-3.739,1.939-5.684,1.939C10.405,15.311,8.431,14.648,6.526,13.346z"/>
		<path d="M23.445,6.673c-0.112-0.222-0.367-0.325-0.604-0.248c-1.368,0.462-2.774-0.933-2.314-2.313
			c0.061-0.18,0.014-0.378-0.12-0.512c-0.132-0.133-0.33-0.18-0.513-0.121c-1.365,0.459-2.775-0.929-2.312-2.314
			c0.078-0.234-0.027-0.49-0.248-0.604c-0.221-0.112-0.49-0.047-0.634,0.155c-0.11,0.155-2.32,3.315-1.345,5.873
			c-0.922-0.555-1.978-0.857-3.081-0.857c-1.603,0-3.109,0.624-4.243,1.757C7.678,7.843,7.396,8.24,7.148,8.65
			c3.601,2.276,6.849,2.252,10.15-0.048c0.464,0.195,0.976,0.3,1.535,0.3c2.196,0,4.364-1.53,4.457-1.596
			C23.492,7.163,23.559,6.894,23.445,6.673z"/>
	</g>
</g>
<g id="Outline_Icons">
	<g>
		<path fill="none" stroke="#000000" stroke-linejoin="round" stroke-miterlimit="10" d="M17.107,1
			c-0.59,1.769,1.179,3.536,2.945,2.947C19.464,5.715,21.232,7.482,23,6.894c0,0-4.125,2.946-6.482,0.589
			C14.161,5.125,17.107,1,17.107,1z"/>
		<path fill="none" stroke="#000000" stroke-linejoin="round" stroke-miterlimit="10" d="M7.443,22.45
			c0.59-1.769-1.179-3.536-2.946-2.946c0.59-1.77-1.179-3.535-2.946-2.945c0,0,4.125-2.947,6.482-0.59
			C10.39,18.325,7.443,22.45,7.443,22.45z"/>
		<circle fill="none" stroke="#000000" stroke-linejoin="round" stroke-miterlimit="10" cx="12.275" cy="11.725" r="5.5"/>
		<path fill="none" stroke="#000000" stroke-linejoin="round" stroke-miterlimit="10" d="M17.742,12.235
			c-3.135,2.638-7.725,2.654-10.876,0.048"/>
		<path fill="none" stroke="#000000" stroke-linejoin="round" stroke-miterlimit="10" d="M16.955,8.823
			c-2.827,1.868-6.525,1.869-9.354,0.003"/>
	</g>
</g>
</svg>
