<?xml version="1.0" encoding="utf-8"?>
<!-- Generator: Adobe Illustrator 19.2.0, SVG Export Plug-In . SVG Version: 6.00 Build 0)  -->
<svg version="1.1" id="Layer_1" xmlns="http://www.w3.org/2000/svg" xmlns:xlink="http://www.w3.org/1999/xlink" x="0px" y="0px"
	 viewBox="0 0 24 24" enable-background="new 0 0 24 24" xml:space="preserve">
<g id="Filled_Icons" display="none">
	<path display="inline" d="M23.76,17.059c-0.105-0.064-2.617-1.574-5.76-1.574c-0.322,0-0.648,0.017-0.977,0.047
		c0.609-0.453,1.238-0.978,1.84-1.581c2.781-2.783,3.959-6.06,4.008-6.196c0.062-0.182,0.018-0.384-0.118-0.521
		c-0.137-0.137-0.339-0.183-0.521-0.118c-0.139,0.049-3.416,1.224-6.198,4.007c-0.531,0.531-1.005,1.083-1.425,1.628
		C14.843,11.604,15,10.333,15,8.985c0-4.761-1.975-8.572-2.059-8.731c-0.172-0.33-0.712-0.33-0.884,0
		C11.973,0.413,10,4.224,10,8.985c0,1.346,0.157,2.619,0.39,3.767c-0.419-0.545-0.894-1.098-1.426-1.629
		C6.182,8.34,2.904,7.165,2.767,7.116c-0.182-0.065-0.384-0.019-0.52,0.118C2.11,7.37,2.064,7.572,2.129,7.754
		c0.049,0.137,1.225,3.413,4.006,6.196c0.603,0.602,1.23,1.128,1.841,1.581C7.647,15.501,7.322,15.484,7,15.484
		c-3.143,0-5.655,1.51-5.761,1.574C1.091,17.148,1,17.311,1,17.484c0,0.175,0.091,0.336,0.239,0.427
		C1.345,17.977,3.857,19.484,7,19.484c0.49,0,0.988-0.037,1.492-0.108c-1.546,1.612-2.107,3.546-2.131,3.63
		c-0.052,0.184,0.005,0.379,0.146,0.508c0.141,0.127,0.343,0.164,0.519,0.094c0.146-0.058,3.111-1.23,4.975-2.584v2.463
		c0,0.275,0.224,0.5,0.5,0.5c0.276,0,0.5-0.225,0.5-0.5v-2.441c1.871,1.346,4.828,2.508,4.974,2.565
		c0.061,0.022,0.121,0.035,0.183,0.035c0.122,0,0.243-0.045,0.337-0.131c0.14-0.127,0.195-0.324,0.145-0.507
		c-0.022-0.083-0.584-2.016-2.129-3.63c0.504,0.072,1.002,0.109,1.492,0.109c3.142,0,5.654-1.51,5.76-1.572
		c0.149-0.092,0.24-0.254,0.24-0.428C24,17.311,23.909,17.148,23.76,17.059z"/>
</g>
<g id="Outline_Icons">
	<g>
		
			<line fill="none" stroke="#000000" stroke-linecap="round" stroke-linejoin="round" stroke-miterlimit="10" x1="12.5" y1="23.5" x2="12.5" y2="21.5"/>
		<path fill="none" stroke="#000000" stroke-linecap="round" stroke-linejoin="round" stroke-miterlimit="10" d="M14.621,21.036
			c1.563,1.563,3.533,2.12,3.533,2.12s-0.559-1.973-2.119-3.534c-0.545-0.544-1.139-0.966-1.68-1.285C15.324,18.682,16.6,19,18,19
			c3.038,0,5.5-1.5,5.5-1.5S21.038,16,18,16c-1.445,0-2.758,0.34-3.738,0.695c1.186-0.623,2.793-1.627,4.248-3.084
			c2.734-2.734,3.891-6.01,3.891-6.01s-3.277,1.154-6.012,3.889c-1.639,1.639-2.705,3.467-3.302,4.673
			C13.678,14.652,14.5,12.013,14.5,9c0-4.693-2-8.5-2-8.5s-2,3.807-2,8.5c0,3.013,0.822,5.652,1.411,7.163
			c-0.595-1.207-1.661-3.034-3.301-4.673C5.877,8.756,2.6,7.601,2.6,7.601s1.154,3.275,3.889,6.01
			c1.457,1.457,3.063,2.461,4.25,3.084C9.758,16.341,8.446,16,7,16c-3.038,0-5.5,1.5-5.5,1.5S3.962,19,7,19
			c1.4,0,2.675-0.318,3.647-0.663c-0.545,0.319-1.139,0.741-1.683,1.285c-1.563,1.563-2.122,3.534-2.122,3.534
			s1.974-0.559,3.536-2.12"/>
	</g>
</g>
</svg>
