<?xml version="1.0" encoding="utf-8"?>
<!-- Generator: Adobe Illustrator 19.2.0, SVG Export Plug-In . SVG Version: 6.00 Build 0)  -->
<svg version="1.1" id="Layer_1" xmlns="http://www.w3.org/2000/svg" xmlns:xlink="http://www.w3.org/1999/xlink" x="0px" y="0px"
	 viewBox="0 0 24 24" enable-background="new 0 0 24 24" xml:space="preserve">
<g id="Filled_Icons" display="none">
	<g display="inline">
		<path d="M23.947,9.282l-2.5-5c-0.12-0.24-0.409-0.342-0.655-0.228L5.68,10.959c-1.564,0.715-2.297,2.516-1.688,4.12
			c-0.038,0.792-0.689,1.427-1.492,1.427c-0.827,0-1.5-0.673-1.5-1.5c0-0.277-0.224-0.5-0.5-0.5c-0.276,0-0.5,0.223-0.5,0.5
			c0,1.378,1.121,2.5,2.5,2.5c0.856,0,1.614-0.434,2.064-1.093c0.24,0.387,0.598,0.694,1.026,0.862
			c0.249,0.099,0.513,0.146,0.777,0.146c0.11,0,0.22-0.02,0.329-0.037C6.73,17.5,6.769,17.611,6.81,17.721L1,19.798v-0.292
			c0-0.277-0.224-0.5-0.5-0.5c-0.276,0-0.5,0.223-0.5,0.5v1c0,0.323,0.336,0.59,0.668,0.471l6.581-2.35
			c0.882,1.426,2.455,2.379,4.251,2.379c2.757,0,5-2.244,5-5c0-0.887-0.234-1.72-0.643-2.445l7.851-3.6
			c0.123-0.058,0.22-0.162,0.265-0.29C24.018,9.544,24.008,9.404,23.947,9.282z M11.5,20.006c-2.206,0-4-1.795-4-4
			c0-2.206,1.794-4,4-4c2.205,0,4,1.794,4,4C15.5,18.211,13.705,20.006,11.5,20.006z"/>
		<circle cx="11.5" cy="16.006" r="1.5"/>
	</g>
</g>
<g id="Outline_Icons">
	<g>
		
			<line fill="none" stroke="#000000" stroke-linecap="round" stroke-linejoin="round" stroke-miterlimit="10" x1="0.5" y1="20.5" x2="7.5" y2="18"/>
		
			<circle fill="none" stroke="#000000" stroke-linecap="round" stroke-linejoin="round" stroke-miterlimit="10" cx="11.5" cy="16" r="4.5"/>
		<path fill="none" stroke="#000000" stroke-linecap="round" stroke-linejoin="round" stroke-miterlimit="10" d="M15.128,13.339
			L23.5,9.5l-2.5-5L5.889,11.409c-1.338,0.611-1.959,2.165-1.413,3.53l0.382,0.955c0.167,0.416,0.498,0.746,0.916,0.91
			c0.418,0.166,0.885,0.149,1.291-0.043"/>
		
			<circle fill="none" stroke="#000000" stroke-linecap="round" stroke-linejoin="round" stroke-miterlimit="10" cx="11.5" cy="16" r="1"/>
		<path fill="none" stroke="#000000" stroke-linecap="round" stroke-linejoin="round" stroke-miterlimit="10" d="M4.5,15
			c0,1.104-0.896,2-2,2s-2-0.896-2-2"/>
		
			<line fill="none" stroke="#000000" stroke-linecap="round" stroke-linejoin="round" stroke-miterlimit="10" x1="0.5" y1="20.5" x2="0.5" y2="19.5"/>
	</g>
</g>
</svg>
