<?xml version="1.0" encoding="utf-8"?>
<!-- Generator: Adobe Illustrator 19.2.0, SVG Export Plug-In . SVG Version: 6.00 Build 0)  -->
<svg version="1.1" id="Layer_1" xmlns="http://www.w3.org/2000/svg" xmlns:xlink="http://www.w3.org/1999/xlink" x="0px" y="0px"
	 viewBox="0 0 24 24" style="enable-background:new 0 0 24 24;" xml:space="preserve">
<style type="text/css">
	.st0{display:none;}
	.st1{display:inline;}
	.st2{fill:none;stroke:#000000;stroke-linejoin:round;stroke-miterlimit:10;}
</style>
<g id="Filled_Icons" class="st0">
	<g class="st1">
		<g>
			<path d="M14,12.3c0.6,0.7,1,1.6,1,2.7c0,1.9-1.2,3.5-2.5,3.5c-1,0-2-1-2.3-2.3l-1.5,1.5c1,3.8,2.9,6.3,3.9,6.3
				c1.3,0,4.5-4.8,4.5-11c0-1.1-0.1-2.3-0.3-3.4L14,12.3z"/>
			<path d="M15.9,6.1c-1-3.5-2.5-6.1-3.4-6.1C11,0,8,7,8,13c0,0.4,0,0.7,0,1L15.9,6.1z"/>
		</g>
		<path d="M23.9,3.2L21,0.3c-0.2-0.2-0.5-0.2-0.7,0l-2.8,2.8c-0.9,0.9-1,2.2-0.3,3.1L6.5,17c-1-0.6-2.3-0.5-3.1,0.3l-2.8,2.8
			c-0.2,0.2-0.2,0.5,0,0.7l2.8,2.8c0.1,0.1,0.2,0.1,0.4,0.1c0.1,0,0.3,0,0.4-0.1l2.8-2.8c0.9-0.9,1-2.2,0.3-3.1L17.9,7
			c0.4,0.3,0.9,0.4,1.4,0.4c0.7,0,1.3-0.3,1.8-0.7l2.8-2.8C24,3.8,24,3.7,24,3.5C24,3.4,24,3.3,23.9,3.2z"/>
	</g>
</g>
<g id="Outline_Icons">
	<g>
		<path class="st2" d="M16.5,13c0,6.4-3.2,10.5-4,10.5c-0.8,0-4-4.1-4-10.5c0-6.4,3.2-12.5,4-12.5C13.3,0.5,16.5,6.6,16.5,13z"/>
		<path class="st2" d="M14.5,15c0,1.7-1,3-2,3s-2-1.3-2-3c0-1.7,1-3,2-3S14.5,13.3,14.5,15z"/>
		<line class="st2" x1="8.7" y1="15.5" x2="6.5" y2="17.7"/>
		<line class="st2" x1="17.9" y1="6.3" x2="16" y2="8.2"/>
		<path class="st2" d="M23.5,3.5l-2.8-2.8l-2.8,2.8c-0.8,0.8-0.8,2,0,2.8c0.8,0.8,2,0.8,2.8,0L23.5,3.5z"/>
		<path class="st2" d="M0.9,20.5l2.8,2.8l2.8-2.8c0.8-0.8,0.8-2,0-2.8c-0.8-0.8-2-0.8-2.8,0L0.9,20.5z"/>
	</g>
</g>
</svg>
