<?xml version="1.0" encoding="utf-8"?>
<!-- Generator: Adobe Illustrator 19.2.0, SVG Export Plug-In . SVG Version: 6.00 Build 0)  -->
<svg version="1.1" id="Layer_1" xmlns="http://www.w3.org/2000/svg" xmlns:xlink="http://www.w3.org/1999/xlink" x="0px" y="0px"
	 viewBox="0 0 24 24" enable-background="new 0 0 24 24" xml:space="preserve">
<g id="Filled_Icons" display="none">
	<g display="inline">
		<path d="M12,1.006c-0.829,0-1.5,0.672-1.5,1.5h3C13.5,1.678,12.827,1.006,12,1.006z"/>
		<path d="M22.998,17.406v-3.4c0-6.064-4.936-11-11-11c-6.065,0-11,4.936-11,11v3.398C4.25,15.938,8.473,15.006,12,15.006
			C15.521,15.006,19.744,15.938,22.998,17.406z M6.671,12.943C6.517,13,6.346,12.979,6.212,12.885
			c-0.134-0.094-0.214-0.246-0.214-0.41v-4c0-0.209,0.13-0.396,0.326-0.469c1.798-0.664,3.707-1,5.674-1
			c1.967,0,3.875,0.336,5.673,1c0.196,0.072,0.327,0.26,0.327,0.469v4c0,0.164-0.08,0.316-0.215,0.41
			c-0.086,0.061-0.186,0.09-0.285,0.09c0,0-2.477-0.969-5.5-0.969C10.149,12.006,8.357,12.322,6.671,12.943z"/>
		<path d="M23.992,23.417l-0.877-4.851c-3.144-1.535-7.584-2.561-11.115-2.561c-3.533,0-7.971,1.025-11.114,2.559l-0.878,4.853
			c-0.036,0.2,0.053,0.402,0.225,0.512c0.172,0.108,0.392,0.104,0.558-0.016C4.168,21.51,8.751,21.006,12,21.006
			c3.25,0,7.833,0.504,11.21,2.907c0.171,0.121,0.392,0.122,0.559,0.015C23.939,23.818,24.027,23.617,23.992,23.417z"/>
	</g>
</g>
<g id="Outline_Icons">
	<g>
		<path fill="none" stroke="#000000" stroke-linejoin="round" stroke-miterlimit="10" d="M1.498,18.19V14
			c0-5.799,4.7-10.5,10.5-10.5c5.797,0,10.5,4.701,10.5,10.5v4.19"/>
		<path fill="none" stroke="#000000" stroke-linejoin="round" stroke-miterlimit="10" d="M17.498,12.469c-3.5-1.292-7.5-1.292-11,0
			v-4c3.5-1.292,7.5-1.292,11,0V12.469z"/>
		<g>
			<g>
				<path d="M12,1c-0.829,0-1.5,0.672-1.5,1.5h3C13.5,1.672,12.827,1,12,1L12,1z"/>
			</g>
		</g>
		<path fill="none" stroke="#000000" stroke-linecap="round" stroke-linejoin="round" stroke-miterlimit="10" d="M23.5,23.5
			c-3.106-2.209-7.4-3-11.5-3c-4.101,0-8.396,0.792-11.5,3l1-5.529C4.659,16.391,8.225,15.5,12,15.5c3.771,0,7.339,0.891,10.5,2.471
			L23.5,23.5z"/>
	</g>
</g>
</svg>
