<?xml version="1.0" encoding="utf-8"?>
<!-- Generator: Adobe Illustrator 19.2.0, SVG Export Plug-In . SVG Version: 6.00 Build 0)  -->
<svg version="1.1" id="Layer_1" xmlns="http://www.w3.org/2000/svg" xmlns:xlink="http://www.w3.org/1999/xlink" x="0px" y="0px"
	 viewBox="0 0 24 24" enable-background="new 0 0 24 24" xml:space="preserve">
<g id="Filled_Icons" display="none">
	<g display="inline">
		<path d="M12,19.006c-0.276,0-0.5-0.225-0.5-0.5c0-0.275,0.224-0.5,0.5-0.5h5v-0.5c0-0.133-0.053-0.26-0.147-0.354l-1.926-1.928
			l-1.963-4.905c-0.076-0.19-0.26-0.314-0.464-0.314h-8c-0.205,0-0.389,0.124-0.465,0.314l-1.962,4.905l-1.927,1.928
			C0.053,17.246,0,17.373,0,17.506v0.5h5c0.276,0,0.5,0.225,0.5,0.5c0,0.275-0.224,0.5-0.5,0.5H0v1.5c0,0.275,0.224,0.5,0.5,0.5H1
			v1.5c0,0.275,0.224,0.5,0.5,0.5h3c0.276,0,0.5-0.225,0.5-0.5v-1.5h7v1.5c0,0.275,0.224,0.5,0.5,0.5h3c0.275,0,0.5-0.225,0.5-0.5
			v-1.5h0.5c0.275,0,0.5-0.225,0.5-0.5v-1.5H12z M3.238,15.006l1.6-4h7.323l1.601,4H3.238z"/>
		<g>
			<path d="M23.93,11.265L19,16.212v2.338l5-4.997v-2.047C24,11.416,23.971,11.337,23.93,11.265z"/>
			<polygon points="19,22.299 24,17.299 24,14.967 19,19.963 			"/>
			<path d="M23.5,23.006c0.275,0,0.5-0.225,0.5-0.5v-3.793l-4.293,4.293H23.5z"/>
			<path d="M19,14.796l3.775-3.79h-3.09L8.45,1.376c-0.209-0.18-0.524-0.154-0.705,0.055C7.565,1.64,7.59,1.956,7.8,2.136l11.2,9.6
				V14.796z"/>
		</g>
	</g>
</g>
<g id="Outline_Icons">
	<g>
		<g>
			
				<rect x="1.5" y="20.5" fill="none" stroke="#000000" stroke-linecap="round" stroke-linejoin="round" stroke-miterlimit="10" width="3" height="2"/>
			
				<rect x="12.5" y="20.5" fill="none" stroke="#000000" stroke-linecap="round" stroke-linejoin="round" stroke-miterlimit="10" width="3" height="2"/>
			<polygon fill="none" stroke="#000000" stroke-linecap="round" stroke-linejoin="round" stroke-miterlimit="10" points="
				16.5,20.5 16.5,17.5 14.5,15.5 2.5,15.5 0.5,17.5 0.5,20.5 			"/>
			<polygon fill="none" stroke="#000000" stroke-linecap="round" stroke-linejoin="round" stroke-miterlimit="10" points="
				12.5,10.5 4.5,10.5 2.5,15.5 14.5,15.5 			"/>
			
				<line fill="none" stroke="#000000" stroke-linecap="round" stroke-linejoin="round" stroke-miterlimit="10" x1="0.5" y1="18.5" x2="5" y2="18.5"/>
			
				<line fill="none" stroke="#000000" stroke-linecap="round" stroke-linejoin="round" stroke-miterlimit="10" x1="12" y1="18.5" x2="16.5" y2="18.5"/>
			
				<rect x="19.5" y="11.5" fill="none" stroke="#000000" stroke-linecap="round" stroke-linejoin="round" stroke-miterlimit="10" width="4" height="11"/>
			
				<line fill="none" stroke="#000000" stroke-linecap="round" stroke-linejoin="round" stroke-miterlimit="10" x1="19.5" y1="11.5" x2="8.125" y2="1.75"/>
		</g>
		
			<line fill="none" stroke="#000000" stroke-linecap="round" stroke-linejoin="round" stroke-miterlimit="10" x1="19.5" y1="15" x2="22.978" y2="11.5"/>
		
			<line fill="none" stroke="#000000" stroke-linecap="round" stroke-linejoin="round" stroke-miterlimit="10" x1="19.5" y1="18.75" x2="23.5" y2="14.754"/>
		
			<line fill="none" stroke="#000000" stroke-linecap="round" stroke-linejoin="round" stroke-miterlimit="10" x1="19.5" y1="22.5" x2="23.5" y2="18.5"/>
	</g>
</g>
</svg>
