<?xml version="1.0" encoding="utf-8"?>
<!-- Generator: Adobe Illustrator 19.2.0, SVG Export Plug-In . SVG Version: 6.00 Build 0)  -->
<svg version="1.1" id="Layer_1" xmlns="http://www.w3.org/2000/svg" xmlns:xlink="http://www.w3.org/1999/xlink" x="0px" y="0px"
	 viewBox="0 0 24 24" enable-background="new 0 0 24 24" xml:space="preserve">
<g id="Filled_Icons" display="none">
	<g display="inline">
		<path d="M21.881,13.909c-0.775-0.429-1.632-0.585-2.468-0.485l-0.786-4.981c-0.108-0.691-0.705-1.437-1.481-1.437H6.854
			c-0.774,0-1.373,0.745-1.482,1.436l-0.786,4.982c-0.836-0.1-1.691,0.059-2.468,0.489C0.802,14.643,0.01,15.975,0,17.506
			c0,1.955,1.255,3.617,3,4.237v1.763c0,0.275,0.224,0.5,0.5,0.5h3c0.276,0,0.5-0.225,0.5-0.5v-1.5h2v0.5c0,0.275,0.224,0.5,0.5,0.5
			h5c0.275,0,0.5-0.225,0.5-0.5v-0.5h2v1.5c0,0.275,0.225,0.5,0.5,0.5h3c0.275,0,0.5-0.225,0.5-0.5v-1.763
			c1.744-0.62,3-2.289,3-4.269C23.988,15.973,23.197,14.641,21.881,13.909z M6.359,8.598C6.405,8.31,6.66,8.006,6.854,8.006h10.292
			c0.193,0,0.446,0.304,0.492,0.592l0.789,4.996c-1.615-1.326-3.927-2.088-6.429-2.088c-2.503,0-4.814,0.762-6.43,2.09L6.359,8.598z
			 M3,17.506c0-0.552,0.448-1,1-1c0.551,0,1,0.448,1,1c0,0.551-0.449,1-1,1C3.448,18.506,3,18.057,3,17.506z M6,23.006H4v-0.965
			l2-0.027V23.006z M14,22.006h-4v-2h4V22.006z M13.607,16.544c-0.994,0.612-2.21,0.619-3.178,0.023l-3.945-2.426
			c1.417-1.033,3.421-1.636,5.516-1.636c2.093,0,4.098,0.602,5.516,1.634L13.607,16.544z M20,23.006h-2v-1.072l2-0.041V23.006z
			 M20,18.506c-0.553,0-1-0.449-1-1c0-0.552,0.447-1,1-1c0.551,0,1,0.448,1,1C21,18.057,20.551,18.506,20,18.506z"/>
		<circle cx="12" cy="15.506" r="0.5"/>
	</g>
</g>
<g id="Outline_Icons">
	<g>
		<path fill="none" stroke="#000000" stroke-linecap="round" stroke-linejoin="round" stroke-miterlimit="10" d="M14.5,21.5h5
			c2.209,0,4-1.791,4-4c0-0.009,0-0.019,0-0.027c-0.02-2.804-3.102-4.525-5.504-3.048l-4.126,2.539
			c-1.115,0.687-2.547,0.733-3.702,0.022l-4.165-2.562C3.606,12.95,0.519,14.671,0.5,17.473c0,0.01,0,0.019,0,0.027
			c0,2.209,1.791,4,4,4h5"/>
		<g>
			<path fill="none" stroke="#000000" stroke-linecap="round" stroke-linejoin="round" stroke-miterlimit="10" d="M18.402,14.212
				C16.943,12.871,14.622,12,12,12c-2.623,0-4.943,0.871-6.402,2.212"/>
		</g>
		
			<circle fill="none" stroke="#000000" stroke-linecap="round" stroke-linejoin="round" stroke-miterlimit="10" cx="4" cy="17.5" r="1.5"/>
		
			<circle fill="none" stroke="#000000" stroke-linecap="round" stroke-linejoin="round" stroke-miterlimit="10" cx="20" cy="17.5" r="1.5"/>
		
			<rect x="9.5" y="19.5" fill="none" stroke="#000000" stroke-linecap="round" stroke-linejoin="round" stroke-miterlimit="10" width="5" height="3"/>
		<g>
			<g>
				<path d="M12,15c-0.276,0-0.5,0.225-0.5,0.5c0,0.275,0.224,0.5,0.5,0.5c0.276,0,0.5-0.225,0.5-0.5C12.5,15.225,12.276,15,12,15
					L12,15z"/>
			</g>
		</g>
		<path fill="none" stroke="#000000" stroke-linecap="round" stroke-linejoin="round" stroke-miterlimit="10" d="M5,14l0.866-5.486
			C5.943,8.027,6.362,7.5,6.855,7.5h10.291c0.49,0,0.91,0.527,0.986,1.014L19,14"/>
		<polyline fill="none" stroke="#000000" stroke-linecap="round" stroke-linejoin="round" stroke-miterlimit="10" points="
			3.5,21.375 3.5,23.5 6.5,23.5 6.5,21.5 		"/>
		<polyline fill="none" stroke="#000000" stroke-linecap="round" stroke-linejoin="round" stroke-miterlimit="10" points="
			17.5,21.5 17.5,23.5 20.5,23.5 20.5,21.375 		"/>
	</g>
</g>
</svg>
