<?xml version="1.0" encoding="utf-8"?>
<!-- Generator: Adobe Illustrator 19.2.0, SVG Export Plug-In . SVG Version: 6.00 Build 0)  -->
<svg version="1.1" id="Layer_1" xmlns="http://www.w3.org/2000/svg" xmlns:xlink="http://www.w3.org/1999/xlink" x="0px" y="0px"
	 viewBox="0 0 24 24" enable-background="new 0 0 24 24" xml:space="preserve">
<g id="Filled_Icons" display="none">
	<g display="inline">
		<path d="M23.5,6.006h-23c-0.276,0-0.5,0.224-0.5,0.5v14c0,0.275,0.224,0.5,0.5,0.5h23c0.275,0,0.5-0.225,0.5-0.5v-14
			C24,6.229,23.775,6.006,23.5,6.006z M8,13.506H3c-0.552,0-1-0.447-1-1c0-0.553,0.448-1,1-1h5c0.552,0,1,0.447,1,1
			C9,13.059,8.552,13.506,8,13.506z M21,13.506h-1.5v1.5c0,0.553-0.447,1-1,1c-0.553,0-1-0.447-1-1v-1.5H16c-0.553,0-1-0.447-1-1
			c0-0.553,0.447-1,1-1h1.5v-1.5c0-0.553,0.447-1,1-1c0.553,0,1,0.447,1,1v1.5H21c0.553,0,1,0.447,1,1
			C22,13.059,21.553,13.506,21,13.506z"/>
		<g>
			<path d="M21,5.006v-1.5c0-0.276-0.225-0.5-0.5-0.5h-4c-0.275,0-0.5,0.224-0.5,0.5v1.5H21z"/>
		</g>
		<g>
			<path d="M8,5.006v-1.5c0-0.276-0.224-0.5-0.5-0.5h-4c-0.276,0-0.5,0.224-0.5,0.5v1.5H8z"/>
		</g>
	</g>
</g>
<g id="Outline_Icons">
	<g>
		<rect x="0.5" y="6.5" fill="none" stroke="#000000" stroke-linejoin="round" stroke-miterlimit="10" width="23" height="14"/>
		<rect x="3.5" y="3.5" fill="none" stroke="#000000" stroke-linejoin="round" stroke-miterlimit="10" width="4" height="3"/>
		<rect x="16.5" y="3.5" fill="none" stroke="#000000" stroke-linejoin="round" stroke-miterlimit="10" width="4" height="3"/>
		
			<line fill="none" stroke="#000000" stroke-linecap="round" stroke-linejoin="round" stroke-miterlimit="10" x1="3" y1="12.5" x2="8" y2="12.5"/>
		
			<line fill="none" stroke="#000000" stroke-linecap="round" stroke-linejoin="round" stroke-miterlimit="10" x1="16" y1="12.5" x2="21" y2="12.5"/>
		
			<line fill="none" stroke="#000000" stroke-linecap="round" stroke-linejoin="round" stroke-miterlimit="10" x1="18.5" y1="10" x2="18.5" y2="15"/>
	</g>
</g>
</svg>
