<?xml version="1.0" encoding="utf-8"?>
<!-- Generator: Adobe Illustrator 19.2.0, SVG Export Plug-In . SVG Version: 6.00 Build 0)  -->
<svg version="1.1" id="Layer_1" xmlns="http://www.w3.org/2000/svg" xmlns:xlink="http://www.w3.org/1999/xlink" x="0px" y="0px"
	 viewBox="0 0 24 24" style="enable-background:new 0 0 24 24;" xml:space="preserve">
<style type="text/css">
	.st0{display:none;}
	.st1{display:inline;}
	.st2{fill:none;stroke:#000000;stroke-linecap:round;stroke-linejoin:round;stroke-miterlimit:10;}
</style>
<g id="Filled_Icons" class="st0">
	<path class="st1" d="M22.5,3H9.3C8.6,1.2,6.9,0,5,0C2.5,0,0.5,2,0.5,4.5S2.5,9,5,9c1.9,0,3.6-1.2,4.2-3H14v1.5
		C14,7.8,14.2,8,14.5,8h2C16.8,8,17,7.8,17,7.5V6h1v1.5C18,7.8,18.2,8,18.5,8h2C20.8,8,21,7.8,21,7.5V6h1.5C23.3,6,24,5.3,24,4.5
		C24,3.7,23.3,3,22.5,3z M5,6.5c-1.1,0-2-0.9-2-2c0-1.1,0.9-2,2-2s2,0.9,2,2C7,5.6,6.1,6.5,5,6.5z"/>
	<g class="st1">
		<path d="M17,20c-0.3,0-0.5-0.2-0.5-0.5c0-0.3,0.2-0.5,0.5-0.5h5v-1.5c0-0.1-0.1-0.3-0.1-0.4L20.7,16H3.3l-1.1,1.1
			C2.1,17.2,2,17.4,2,17.5V19h5c0.3,0,0.5,0.2,0.5,0.5C7.5,19.8,7.3,20,7,20H2v1.5C2,21.8,2.2,22,2.5,22H3v1.5C3,23.8,3.2,24,3.5,24
			h3C6.8,24,7,23.8,7,23.5V22h10v1.5c0,0.3,0.2,0.5,0.5,0.5h3c0.3,0,0.5-0.2,0.5-0.5V22h0.5c0.3,0,0.5-0.2,0.5-0.5V20H17z"/>
		<path d="M19.8,15L18,10.3c-0.1-0.2-0.3-0.3-0.5-0.3h-11c-0.2,0-0.4,0.1-0.5,0.3L4.2,15H19.8z"/>
	</g>
</g>
<g id="Outline_Icons">
	<g>
		<rect x="3.5" y="21.5" class="st2" width="3" height="2"/>
		<rect x="17.5" y="21.5" class="st2" width="3" height="2"/>
		<polygon class="st2" points="21.5,21.5 21.5,17.5 19.5,15.5 4.5,15.5 2.5,17.5 2.5,21.5 		"/>
		<polygon class="st2" points="17.5,10.5 6.5,10.5 4.5,15.5 19.5,15.5 		"/>
		<line class="st2" x1="2.5" y1="19.5" x2="7" y2="19.5"/>
		<line class="st2" x1="17" y1="19.5" x2="21.5" y2="19.5"/>
		<circle class="st2" cx="5" cy="4.5" r="1.5"/>
		<path class="st2" d="M8.9,5.5c-0.4,1.7-2,3-3.9,3c-2.2,0-4-1.8-4-4s1.8-4,4-4c1.9,0,3.4,1.2,3.9,3h13.6c0.6,0,1,0.4,1,1
			c0,0.6-0.4,1-1,1h-2v2h-2v-2h-2v2h-2v-2H8.9z"/>
	</g>
</g>
</svg>
