<?xml version="1.0" encoding="utf-8"?>
<!-- Generator: Adobe Illustrator 19.2.0, SVG Export Plug-In . SVG Version: 6.00 Build 0)  -->
<svg version="1.1" id="Layer_1" xmlns="http://www.w3.org/2000/svg" xmlns:xlink="http://www.w3.org/1999/xlink" x="0px" y="0px"
	 viewBox="0 0 24 24" enable-background="new 0 0 24 24" xml:space="preserve">
<g id="Filled_Icons" display="none">
	<g display="inline">
		<g>
			<path d="M16.307,12.006c1.149,0,2.207,0.377,3.075,1H21v-1.5c0-0.133-0.053-0.26-0.147-0.354l-1.926-1.928L16.964,4.32
				c-0.077-0.19-0.26-0.314-0.464-0.314h-11c-0.205,0-0.389,0.124-0.465,0.314L3.073,9.225l-1.927,1.928
				C1.053,11.246,1,11.373,1,11.506v1.5h5c0.276,0,0.5,0.225,0.5,0.5c0,0.275-0.224,0.5-0.5,0.5H1v1.5c0,0.275,0.224,0.5,0.5,0.5H2
				v1.5c0,0.275,0.224,0.5,0.5,0.5h3c0.276,0,0.5-0.225,0.5-0.5v-1.5h5.182C11.768,13.713,13.833,12.006,16.307,12.006z
				 M4.238,9.006l1.6-4h10.323l1.601,4H4.238z"/>
		</g>
		<path d="M22.853,23.152l-3.185-3.187c0.581-0.733,0.943-1.649,0.943-2.655c0-2.375-1.932-4.306-4.305-4.306
			c-2.375,0-4.307,1.933-4.307,4.306c0,2.375,1.932,4.306,4.307,4.306c1.006,0,1.92-0.361,2.653-0.941l3.186,3.187
			c0.099,0.098,0.227,0.146,0.355,0.146c0.128,0,0.256-0.049,0.354-0.146C23.049,23.664,23.049,23.348,22.853,23.152z M13,17.311
			c0-1.822,1.482-3.305,3.307-3.305c1.821,0,3.305,1.482,3.305,3.305c0,1.823-1.482,3.306-3.305,3.306
			C14.482,20.615,13,19.133,13,17.311z"/>
	</g>
</g>
<g id="Outline_Icons">
	<g>
		<circle fill="none" stroke="#000000" stroke-linejoin="round" stroke-miterlimit="10" cx="16.305" cy="17.305" r="3.805"/>
		
			<line fill="none" stroke="#000000" stroke-linecap="round" stroke-linejoin="round" stroke-miterlimit="10" x1="19" y1="20" x2="22.5" y2="23.5"/>
		
			<rect x="2.5" y="15.5" fill="none" stroke="#000000" stroke-linecap="round" stroke-linejoin="round" stroke-miterlimit="10" width="3" height="2"/>
		<polyline fill="none" stroke="#000000" stroke-linecap="round" stroke-linejoin="round" stroke-miterlimit="10" points="
			20.5,11.5 18.5,9.5 3.5,9.5 1.5,11.5 1.5,15.5 9.955,15.5 		"/>
		<polygon fill="none" stroke="#000000" stroke-linecap="round" stroke-linejoin="round" stroke-miterlimit="10" points="16.5,4.5 
			5.5,4.5 3.5,9.5 18.5,9.5 		"/>
		
			<line fill="none" stroke="#000000" stroke-linecap="round" stroke-linejoin="round" stroke-miterlimit="10" x1="1.5" y1="13.5" x2="6" y2="13.5"/>
	</g>
</g>
</svg>
