<?xml version="1.0" encoding="utf-8"?>
<!-- Generator: Adobe Illustrator 19.2.0, SVG Export Plug-In . SVG Version: 6.00 Build 0)  -->
<svg version="1.1" id="Layer_1" xmlns="http://www.w3.org/2000/svg" xmlns:xlink="http://www.w3.org/1999/xlink" x="0px" y="0px"
	 viewBox="0 0 24 24" enable-background="new 0 0 24 24" xml:space="preserve">
<g id="Filled_Icons" display="none">
	<g display="inline">
		<g>
			<circle cx="6.5" cy="20.006" r="3"/>
			<circle cx="16.5" cy="20.006" r="3"/>
		</g>
		<path d="M23.5,17.006h-0.473L23,11.504c-0.001-0.167-0.085-0.321-0.223-0.414L22,10.572V2.526c0-0.276-0.225-0.5-0.5-0.5
			c-0.275,0-0.5,0.224-0.5,0.5v7.38L16.777,7.09c-0.082-0.055-0.18-0.084-0.277-0.084h-9c-0.276,0-0.5,0.224-0.5,0.5v3.566
			L0.429,12.01C0.183,12.046,0,12.258,0,12.506v5c0,0.275,0.224,0.5,0.5,0.5h2c0.276,0,0.5-0.225,0.5-0.5c0-1.378,1.122-2.5,2.5-2.5
			h2c1.378,0,2.5,1.122,2.5,2.5c0,0.275,0.224,0.5,0.5,0.5h2c0.275,0,0.5-0.225,0.5-0.5c0-1.378,1.122-2.5,2.5-2.5h2
			c1.378,0,2.5,1.122,2.5,2.5c0,0.275,0.225,0.5,0.5,0.5h3c0.275,0,0.5-0.225,0.5-0.5C24,17.231,23.775,17.006,23.5,17.006z
			 M11,11.006c0,0.276-0.224,0.5-0.5,0.5H9c-0.276,0-0.5-0.224-0.5-0.5v-2.5c0-0.276,0.224-0.5,0.5-0.5h1.5
			c0.276,0,0.5,0.224,0.5,0.5V11.006z"/>
	</g>
</g>
<g id="Outline_Icons">
	<g>
		
			<circle fill="none" stroke="#000000" stroke-linecap="round" stroke-linejoin="round" stroke-miterlimit="10" cx="6.5" cy="20" r="2.5"/>
		
			<circle fill="none" stroke="#000000" stroke-linecap="round" stroke-linejoin="round" stroke-miterlimit="10" cx="16.5" cy="20" r="2.5"/>
		<polyline fill="none" stroke="#000000" stroke-linecap="round" stroke-linejoin="round" stroke-miterlimit="10" points="9.5,11.5 
			9.5,9.5 10.5,9.5 		"/>
		
			<line fill="none" stroke="#000000" stroke-linecap="round" stroke-linejoin="round" stroke-miterlimit="10" x1="21.5" y1="10.834" x2="21.5" y2="2.521"/>
		<path fill="none" stroke="#000000" stroke-linecap="round" stroke-linejoin="round" stroke-miterlimit="10" d="M22.531,17.5
			l-0.031-6l-6-4h-9v4l-7,1v5h2c0-1.656,1.343-3,3-3h2c1.657,0,3,1.344,3,3h2c0-1.656,1.343-3,3-3h2c1.657,0,3,1.344,3,3h3"/>
	</g>
</g>
</svg>
