<?xml version="1.0" encoding="utf-8"?>
<!-- Generator: Adobe Illustrator 19.2.0, SVG Export Plug-In . SVG Version: 6.00 Build 0)  -->
<svg version="1.1" id="Layer_1" xmlns="http://www.w3.org/2000/svg" xmlns:xlink="http://www.w3.org/1999/xlink" x="0px" y="0px"
	 viewBox="0 0 24 24" enable-background="new 0 0 24 24" xml:space="preserve">
<g id="Filled_Icons" display="none">
	<g display="inline">
		<g>
			<path d="M15.518,13.424c0.023-0.144,0.105-0.263,0.226-0.337c0.434-0.636,0.812-1.155,1.056-1.479
				c0.566-0.758,1.837-0.758,2.402,0c0.232,0.31,0.59,0.801,1,1.398H21v-1.5c0-0.133-0.053-0.26-0.147-0.354l-1.926-1.928
				L16.964,4.32c-0.077-0.19-0.26-0.314-0.464-0.314h-11c-0.205,0-0.389,0.124-0.465,0.314L3.073,9.225l-1.927,1.928
				C1.053,11.246,1,11.373,1,11.506v1.5h5c0.276,0,0.5,0.225,0.5,0.5c0,0.275-0.224,0.5-0.5,0.5H1v1.5c0,0.275,0.224,0.5,0.5,0.5H2
				v1.5c0,0.275,0.224,0.5,0.5,0.5h3c0.276,0,0.5-0.225,0.5-0.5v-1.5h7.954C14.441,15.092,15.003,14.193,15.518,13.424z
				 M4.238,9.006l1.6-4h10.323l1.601,4H4.238z"/>
		</g>
		<path d="M18.4,12.206c-0.188-0.252-0.612-0.252-0.801,0c-0.4,0.536-3.908,5.287-3.908,7.491c0,2.375,1.934,4.309,4.309,4.309
			s4.309-1.934,4.309-4.309C22.309,17.493,18.8,12.742,18.4,12.206z M17.935,21.882c-0.096,0.083-0.213,0.123-0.33,0.123
			c-0.14,0-0.277-0.058-0.377-0.172C16.437,20.924,16,19.758,16,18.55c0-0.276,0.225-0.5,0.5-0.5c0.275,0,0.5,0.224,0.5,0.5
			c0,0.966,0.35,1.899,0.982,2.628C18.165,21.385,18.143,21.7,17.935,21.882z"/>
	</g>
</g>
<g id="Outline_Icons">
	<g>
		
			<rect x="2.5" y="15.5" fill="none" stroke="#000000" stroke-linecap="round" stroke-linejoin="round" stroke-miterlimit="10" width="3" height="2"/>
		<polyline fill="none" stroke="#000000" stroke-linecap="round" stroke-linejoin="round" stroke-miterlimit="10" points="
			20.5,11.5 18.5,9.5 3.5,9.5 1.5,11.5 1.5,15.5 12.971,15.5 		"/>
		<polygon fill="none" stroke="#000000" stroke-linecap="round" stroke-linejoin="round" stroke-miterlimit="10" points="16.5,4.5 
			5.5,4.5 3.5,9.5 18.5,9.5 		"/>
		
			<line fill="none" stroke="#000000" stroke-linecap="round" stroke-linejoin="round" stroke-miterlimit="10" x1="1.5" y1="13.5" x2="6" y2="13.5"/>
		<path fill="none" stroke="#000000" stroke-linecap="round" stroke-linejoin="round" stroke-miterlimit="10" d="M21.809,19.691
			c0,2.103-1.705,3.809-3.809,3.809c-2.104,0-3.809-1.705-3.809-3.809C14.191,17.589,18,12.5,18,12.5S21.809,17.59,21.809,19.691z"
			/>
		<path fill="none" stroke="#000000" stroke-linecap="round" stroke-linejoin="round" stroke-miterlimit="10" d="M17.605,21.499
			c-0.688-0.791-1.105-1.824-1.105-2.955"/>
	</g>
</g>
</svg>
