<?xml version="1.0" encoding="utf-8"?>
<!-- Generator: Adobe Illustrator 19.2.0, SVG Export Plug-In . SVG Version: 6.00 Build 0)  -->
<svg version="1.1" id="Layer_1" xmlns="http://www.w3.org/2000/svg" xmlns:xlink="http://www.w3.org/1999/xlink" x="0px" y="0px"
	 viewBox="0 0 24 24" enable-background="new 0 0 24 24" xml:space="preserve">
<g id="Filled_Icons" display="none">
	<g display="inline">
		<path d="M12,4.006c-4.411,0-8,3.589-8,8c0,4.411,3.589,8,8,8c4.411,0,8-3.589,8-8C20,7.595,16.411,4.006,12,4.006z M18,12.006
			c0,0.994-0.247,1.93-0.678,2.758l-1.721-1.854l2.392-1.052C17.994,11.908,18,11.957,18,12.006z M6,12.006
			c0-0.049,0.006-0.098,0.008-0.148L8.4,12.91l-1.723,1.853C6.247,13.936,6,13,6,12.006z M10.5,12.006c0-0.827,0.673-1.5,1.5-1.5
			c0.827,0,1.5,0.673,1.5,1.5c0,0.827-0.673,1.5-1.5,1.5C11.173,13.506,10.5,12.833,10.5,12.006z M16.557,8.111L14.083,9.21
			C14.055,9.189,14.029,9.162,14,9.142V6.355C15,6.711,15.879,7.32,16.557,8.111z M10,6.355v2.786
			C9.97,9.162,9.945,9.189,9.916,9.21L7.444,8.111C8.122,7.32,9,6.711,10,6.355z M9.579,17.492l1.914-2.037
			c0.167,0.023,0.333,0.051,0.507,0.051c0.174,0,0.34-0.027,0.507-0.051l1.913,2.037c-0.74,0.328-1.559,0.514-2.42,0.514
			C11.139,18.006,10.32,17.82,9.579,17.492z"/>
		<path d="M12,0.006c-6.617,0-12,5.383-12,12c0,6.617,5.383,12,12,12c6.616,0,12-5.383,12-12C24,5.389,18.616,0.006,12,0.006z
			 M12,21.006c-4.963,0-9-4.037-9-9c0-4.963,4.037-9,9-9c4.962,0,9,4.037,9,9C21,16.969,16.962,21.006,12,21.006z"/>
	</g>
</g>
<g id="Outline_Icons">
	<g>
		<circle fill="none" stroke="#000000" stroke-linejoin="round" stroke-miterlimit="10" cx="12" cy="12.022" r="11.5"/>
		<circle fill="none" stroke="#000000" stroke-linejoin="round" stroke-miterlimit="10" cx="12" cy="12.022" r="8.5"/>
		<circle fill="none" stroke="#000000" stroke-linejoin="round" stroke-miterlimit="10" cx="12" cy="12.022" r="6.5"/>
		<circle fill="none" stroke="#000000" stroke-linejoin="round" stroke-miterlimit="10" cx="12" cy="12.022" r="3"/>
		<line fill="none" stroke="#000000" stroke-linejoin="round" stroke-miterlimit="10" x1="10.5" y1="9.459" x2="10.5" y2="5.696"/>
		<line fill="none" stroke="#000000" stroke-linejoin="round" stroke-miterlimit="10" x1="13.5" y1="5.696" x2="13.5" y2="9.459"/>
		
			<line fill="none" stroke="#000000" stroke-linejoin="round" stroke-miterlimit="10" x1="14.053" y1="9.788" x2="17.391" y2="8.304"/>
		
			<line fill="none" stroke="#000000" stroke-linejoin="round" stroke-miterlimit="10" x1="18.439" y1="11.132" x2="14.928" y2="12.675"/>
		
			<line fill="none" stroke="#000000" stroke-linejoin="round" stroke-miterlimit="10" x1="14.906" y1="12.912" x2="17.375" y2="15.568"/>
		
			<line fill="none" stroke="#000000" stroke-linejoin="round" stroke-miterlimit="10" x1="15.281" y1="17.693" x2="12.721" y2="14.969"/>
		
			<line fill="none" stroke="#000000" stroke-linejoin="round" stroke-miterlimit="10" x1="9.948" y1="9.788" x2="6.609" y2="8.304"/>
		
			<line fill="none" stroke="#000000" stroke-linejoin="round" stroke-miterlimit="10" x1="5.562" y1="11.132" x2="9.072" y2="12.675"/>
		
			<line fill="none" stroke="#000000" stroke-linejoin="round" stroke-miterlimit="10" x1="9.094" y1="12.912" x2="6.625" y2="15.568"/>
		
			<line fill="none" stroke="#000000" stroke-linejoin="round" stroke-miterlimit="10" x1="8.719" y1="17.693" x2="11.28" y2="14.969"/>
		<circle fill="none" stroke="#000000" stroke-linejoin="round" stroke-miterlimit="10" cx="12" cy="12.022" r="1"/>
	</g>
</g>
</svg>
