<?xml version="1.0" encoding="utf-8"?>
<!-- Generator: Adobe Illustrator 19.2.0, SVG Export Plug-In . SVG Version: 6.00 Build 0)  -->
<svg version="1.1" id="Layer_1" xmlns="http://www.w3.org/2000/svg" xmlns:xlink="http://www.w3.org/1999/xlink" x="0px" y="0px"
	 viewBox="0 0 24 24" enable-background="new 0 0 24 24" xml:space="preserve">
<g id="Filled_Icons" display="none">
	<path display="inline" d="M18.926,15.225l-0.63-1.576l0.083,0.209C22.486,12.26,22.5,7.506,22.5,7.506s-2.031,0.906-4.5,0
		c0,0-0.438-3.927,1.437-6.969C16.5,1.006,11.5,3.506,12,7.09c-2-0.013-4-3.709-4-3.709s-2.628,4.067-0.502,6.625H5.5
		c-0.205,0-0.389,0.124-0.465,0.314l-1.962,4.905l-1.927,1.928C1.053,17.246,1,17.373,1,17.506v1.5h5c0.276,0,0.5,0.225,0.5,0.5
		c0,0.275-0.224,0.5-0.5,0.5H1v1.5c0,0.275,0.224,0.5,0.5,0.5H2v1.5c0,0.275,0.224,0.5,0.5,0.5h3c0.276,0,0.5-0.225,0.5-0.5v-1.5h10
		v1.5c0,0.275,0.225,0.5,0.5,0.5h3c0.275,0,0.5-0.225,0.5-0.5v-1.5h0.5c0.275,0,0.5-0.225,0.5-0.5v-1.5h-5
		c-0.275,0-0.5-0.225-0.5-0.5c0-0.275,0.225-0.5,0.5-0.5h5v-1.5c0-0.133-0.053-0.26-0.147-0.354L18.926,15.225z M9,7.506
		c0.969,1.292,4.025,3.774,6.5-2c0.5,4,1.365,4.627,4.5,4l-2.272,2.726l-0.764-1.911c-0.076-0.19-0.26-0.314-0.464-0.314H9.495
		C9.113,9.523,8.702,8.696,9,7.506z M4.238,15.006l1.6-4h10.323l1.601,4H4.238z"/>
</g>
<g id="Outline_Icons">
	<g>
		<g>
			<path fill="none" stroke="#000000" stroke-linecap="round" stroke-linejoin="round" stroke-miterlimit="10" d="M18,14
				c4.5-1.437,4.5-6.5,4.5-6.5s-2.031,0.906-4.5,0c0,0-0.438-3.927,1.437-6.969C16.5,1,11.5,3.5,12,7.084c-2-0.013-4-3.709-4-3.709
				S5,8.016,8,10.5"/>
			
				<rect x="2.5" y="21.5" fill="none" stroke="#000000" stroke-linecap="round" stroke-linejoin="round" stroke-miterlimit="10" width="3" height="2"/>
			
				<rect x="16.5" y="21.5" fill="none" stroke="#000000" stroke-linecap="round" stroke-linejoin="round" stroke-miterlimit="10" width="3" height="2"/>
			<polygon fill="none" stroke="#000000" stroke-linecap="round" stroke-linejoin="round" stroke-miterlimit="10" points="
				20.5,21.5 20.5,17.5 18.5,15.5 3.5,15.5 1.5,17.5 1.5,21.5 			"/>
			<polygon fill="none" stroke="#000000" stroke-linecap="round" stroke-linejoin="round" stroke-miterlimit="10" points="
				16.5,10.5 5.5,10.5 3.5,15.5 18.5,15.5 			"/>
			
				<line fill="none" stroke="#000000" stroke-linecap="round" stroke-linejoin="round" stroke-miterlimit="10" x1="1.5" y1="19.5" x2="6" y2="19.5"/>
			
				<line fill="none" stroke="#000000" stroke-linecap="round" stroke-linejoin="round" stroke-miterlimit="10" x1="16" y1="19.5" x2="20.5" y2="19.5"/>
		</g>
		<path fill="none" stroke="#000000" stroke-linecap="round" stroke-linejoin="round" stroke-miterlimit="10" d="M10,10.5
			c0,0-1.5-1-1-3c0.969,1.292,4.025,3.774,6.5-2c0.5,4,1.365,4.627,4.5,4l-2.5,3"/>
	</g>
</g>
</svg>
