<?xml version="1.0" encoding="utf-8"?>
<!-- Generator: Adobe Illustrator 19.2.0, SVG Export Plug-In . SVG Version: 6.00 Build 0)  -->
<svg version="1.1" id="Layer_1" xmlns="http://www.w3.org/2000/svg" xmlns:xlink="http://www.w3.org/1999/xlink" x="0px" y="0px"
	 viewBox="0 0 24 24" enable-background="new 0 0 24 24" xml:space="preserve">
<g id="Filled_Icons" display="none">
	<path display="inline" d="M24,14.506v-2c0-0.276-0.225-0.5-0.5-0.5h-3c-0.104,0-0.195,0.039-0.275,0.094l-1.25-3.752
		c-0.068-0.204-0.26-0.342-0.475-0.342h-13c-0.216,0-0.406,0.138-0.475,0.342L3.775,12.1c-0.08-0.055-0.172-0.094-0.275-0.094h-3
		c-0.276,0-0.5,0.224-0.5,0.5v2c0,0.275,0.224,0.5,0.5,0.5h1.793l-2.146,2.146c-0.046,0.045-0.083,0.101-0.108,0.162
		C0.013,17.373,0,17.44,0,17.506v2.5v1.5c0,0.275,0.224,0.5,0.5,0.5H1v1.5c0,0.275,0.224,0.5,0.5,0.5h3c0.276,0,0.5-0.225,0.5-0.5
		v-1.5h3v0.5c0,0.275,0.224,0.5,0.5,0.5h7c0.275,0,0.5-0.225,0.5-0.5v-0.5h3v1.5c0,0.275,0.225,0.5,0.5,0.5h3
		c0.275,0,0.5-0.225,0.5-0.5v-1.5h0.5c0.275,0,0.5-0.225,0.5-0.5v-1.5v-2.5c0-0.066-0.014-0.133-0.039-0.191
		c-0.025-0.063-0.062-0.117-0.107-0.162l-2.146-2.146H23.5C23.775,15.006,24,14.781,24,14.506z M1,14.006v-1h2v1H1z M4,23.006H2v-1
		h2V23.006z M4,19.506H1v-1.5h3V19.506z M15,22.006H9v-2h6V22.006z M11.5,17.506v-1c0-0.275,0.224-0.5,0.5-0.5
		c0.276,0,0.5,0.225,0.5,0.5v1c0,0.275-0.224,0.5-0.5,0.5C11.724,18.006,11.5,17.781,11.5,17.506z M4.193,14.006l1.667-5h12.281
		l1.666,5H4.193z M22,23.006h-2v-1h2V23.006z M23,18.006v1.5h-3v-1.5H23z M23,14.006h-2v-1h2V14.006z"/>
</g>
<g id="Outline_Icons">
	<g>
		
			<rect x="1.5" y="21.5" fill="none" stroke="#000000" stroke-linecap="round" stroke-linejoin="round" stroke-miterlimit="10" width="3" height="2"/>
		
			<rect x="19.5" y="21.5" fill="none" stroke="#000000" stroke-linecap="round" stroke-linejoin="round" stroke-miterlimit="10" width="3" height="2"/>
		
			<rect x="8.5" y="19.5" fill="none" stroke="#000000" stroke-linecap="round" stroke-linejoin="round" stroke-miterlimit="10" width="7" height="3"/>
		<polyline fill="none" stroke="#000000" stroke-linecap="round" stroke-linejoin="round" stroke-miterlimit="10" points="
			15.5,21.5 23.5,21.5 23.5,17.5 20.5,14.5 3.5,14.5 0.5,17.5 0.5,21.5 8.5,21.5 		"/>
		<polygon fill="none" stroke="#000000" stroke-linecap="round" stroke-linejoin="round" stroke-miterlimit="10" points="18.5,8.5 
			5.5,8.5 3.5,14.5 20.5,14.5 		"/>
		
			<rect x="0.5" y="12.5" fill="none" stroke="#000000" stroke-linecap="round" stroke-linejoin="round" stroke-miterlimit="10" width="3" height="2"/>
		
			<rect x="20.5" y="12.5" fill="none" stroke="#000000" stroke-linecap="round" stroke-linejoin="round" stroke-miterlimit="10" width="3" height="2"/>
		
			<rect x="0.5" y="17.5" fill="none" stroke="#000000" stroke-linecap="round" stroke-linejoin="round" stroke-miterlimit="10" width="4" height="2"/>
		
			<rect x="19.5" y="17.5" fill="none" stroke="#000000" stroke-linecap="round" stroke-linejoin="round" stroke-miterlimit="10" width="4" height="2"/>
		
			<line fill="none" stroke="#000000" stroke-linecap="round" stroke-linejoin="round" stroke-miterlimit="10" x1="12" y1="17.5" x2="12" y2="16.5"/>
	</g>
</g>
</svg>
