<?xml version="1.0" encoding="utf-8"?>
<!-- Generator: Adobe Illustrator 19.2.0, SVG Export Plug-In . SVG Version: 6.00 Build 0)  -->
<svg version="1.1" id="Layer_1" xmlns="http://www.w3.org/2000/svg" xmlns:xlink="http://www.w3.org/1999/xlink" x="0px" y="0px"
	 viewBox="0 0 24 24" enable-background="new 0 0 24 24" xml:space="preserve">
<g id="Filled_Icons" display="none">
	<g display="inline">
		<path d="M10.203,15.805l1.501-2.598c0.414-0.717,1.329-0.963,2.047-0.551l0.274,0.158v-0.31c0-0.828,0.672-1.5,1.5-1.5h3
			c0.83,0,1.5,0.672,1.5,1.5v0.298l0.246-0.144c0.225-0.13,0.475-0.191,0.729-0.196v-0.958c0-0.133-0.053-0.26-0.147-0.354
			l-1.926-1.928L16.964,4.32c-0.077-0.19-0.26-0.314-0.464-0.314h-11c-0.205,0-0.389,0.124-0.465,0.314L3.073,9.225l-1.927,1.928
			C1.053,11.246,1,11.373,1,11.506v1.5h5c0.276,0,0.5,0.225,0.5,0.5c0,0.275-0.224,0.5-0.5,0.5H1v1.5c0,0.275,0.224,0.5,0.5,0.5H2
			v1.5c0,0.275,0.224,0.5,0.5,0.5h3c0.276,0,0.5-0.225,0.5-0.5v-1.5h4.112C10.139,15.938,10.165,15.87,10.203,15.805z M4.238,9.006
			l1.6-4h10.323l1.601,4H4.238z"/>
		<path d="M23.012,19.327c-0.035-0.128-0.119-0.237-0.232-0.302l-0.797-0.461c0.021-0.189,0.033-0.373,0.033-0.56
			c0-0.183-0.013-0.366-0.035-0.558l0.797-0.461c0.238-0.139,0.32-0.443,0.183-0.684l-1.5-2.598
			c-0.066-0.115-0.177-0.199-0.304-0.232c-0.129-0.033-0.266-0.017-0.381,0.051l-0.791,0.459c-0.291-0.211-0.613-0.397-0.957-0.551
			v-0.928c0-0.276-0.225-0.5-0.5-0.5h-3c-0.277,0-0.5,0.224-0.5,0.5v0.926c-0.295,0.131-0.637,0.312-0.973,0.555l-0.803-0.463
			c-0.24-0.137-0.544-0.055-0.684,0.185l-1.5,2.599c-0.138,0.238-0.056,0.545,0.184,0.682l0.796,0.461
			c-0.022,0.191-0.033,0.378-0.033,0.559c0,0.186,0.011,0.369,0.033,0.559l-0.797,0.459c-0.115,0.066-0.199,0.177-0.233,0.305
			c-0.034,0.129-0.017,0.266,0.05,0.38l1.5,2.599c0.139,0.237,0.443,0.319,0.682,0.184l0.807-0.463
			c0.334,0.244,0.678,0.425,0.973,0.556v0.925c0,0.276,0.223,0.5,0.5,0.5h3c0.275,0,0.5-0.224,0.5-0.5V22.58
			c0.343-0.152,0.666-0.34,0.957-0.553l0.795,0.459c0.115,0.068,0.252,0.084,0.38,0.052c0.128-0.034,0.237-0.118,0.304-0.233
			l1.499-2.598C23.027,19.592,23.045,19.456,23.012,19.327z M17.014,20.006c-1.103,0-2-0.896-2-2c0-1.104,0.897-2,2-2
			c1.105,0,2,0.896,2,2C19.014,19.109,18.119,20.006,17.014,20.006z"/>
	</g>
</g>
<g id="Outline_Icons">
	<g>
		
			<rect x="2.5" y="15.5" fill="none" stroke="#000000" stroke-linecap="round" stroke-linejoin="round" stroke-miterlimit="10" width="3" height="2"/>
		<polyline fill="none" stroke="#000000" stroke-linecap="round" stroke-linejoin="round" stroke-miterlimit="10" points="
			20.5,11.5 18.5,9.5 3.5,9.5 1.5,11.5 1.5,15.5 8.955,15.5 		"/>
		<polygon fill="none" stroke="#000000" stroke-linecap="round" stroke-linejoin="round" stroke-miterlimit="10" points="16.5,4.5 
			5.5,4.5 3.5,9.5 18.5,9.5 		"/>
		
			<line fill="none" stroke="#000000" stroke-linecap="round" stroke-linejoin="round" stroke-miterlimit="10" x1="1.5" y1="13.5" x2="6" y2="13.5"/>
		<path fill="none" stroke="#000000" stroke-linejoin="round" stroke-miterlimit="10" d="M15.527,13.762
			c-0.5,0.188-1.014,0.465-1.428,0.82l-1.097-0.631l-1.501,2.598l1.091,0.631c-0.049,0.266-0.079,0.541-0.079,0.82
			c0,0.281,0.029,0.555,0.078,0.82L11.5,19.451l1.5,2.598l1.1-0.63c0.414,0.354,0.928,0.634,1.428,0.819V23.5h3v-1.262
			c0.5-0.186,1-0.465,1.414-0.819l1.088,0.63l1.5-2.598l-1.092-0.631c0.049-0.266,0.078-0.539,0.078-0.82
			c0-0.279-0.031-0.555-0.08-0.82l1.092-0.631l-1.5-2.598l-1.086,0.631c-0.414-0.355-0.914-0.635-1.414-0.82V12.5h-3V13.762z"/>
		<circle fill="none" stroke="#000000" stroke-linejoin="round" stroke-miterlimit="10" cx="17.014" cy="18" r="2"/>
	</g>
</g>
</svg>
