<?xml version="1.0" encoding="utf-8"?>
<!-- Generator: Adobe Illustrator 19.2.0, SVG Export Plug-In . SVG Version: 6.00 Build 0)  -->
<svg version="1.1" id="Layer_1" xmlns="http://www.w3.org/2000/svg" xmlns:xlink="http://www.w3.org/1999/xlink" x="0px" y="0px"
	 viewBox="0 0 24 24" enable-background="new 0 0 24 24" xml:space="preserve">
<g id="Filled_Icons" display="none">
	<g display="inline">
		<path d="M17,19.006h5v-1.5c0-0.133-0.053-0.26-0.147-0.354l-1.926-1.928l-1.963-4.905c-0.076-0.19-0.26-0.314-0.464-0.314h-11
			c-0.205,0-0.389,0.124-0.465,0.314l-1.962,4.905l-1.927,1.928C2.053,17.246,2,17.373,2,17.506v1.5h5c0.276,0,0.5,0.225,0.5,0.5
			c0,0.275-0.224,0.5-0.5,0.5H2v1.5c0,0.275,0.224,0.5,0.5,0.5H3v1.5c0,0.275,0.224,0.5,0.5,0.5h3c0.276,0,0.5-0.225,0.5-0.5v-1.5
			h10v1.5c0,0.275,0.225,0.5,0.5,0.5h3c0.275,0,0.5-0.225,0.5-0.5v-1.5h0.5c0.275,0,0.5-0.225,0.5-0.5v-1.5h-5
			c-0.275,0-0.5-0.225-0.5-0.5C16.5,19.231,16.725,19.006,17,19.006z M5.238,15.006l1.6-4h10.323l1.601,4H5.238z"/>
		<path d="M17.975,6.988c0.098,0.098,0.226,0.146,0.354,0.146c0.128,0,0.256-0.049,0.354-0.146c0.195-0.195,0.195-0.512,0-0.707
			c-1.812-1.812-4.205-2.768-6.678-2.768h-0.001l0,0c-0.001,0-0.002,0-0.002,0c-2.457,0-4.851,0.939-6.678,2.768
			c-0.195,0.195-0.195,0.512,0,0.707c0.195,0.195,0.512,0.195,0.707,0C7.68,5.336,9.854,4.514,12,4.514h0.001
			C14.166,4.514,16.33,5.345,17.975,6.988z"/>
		<path d="M3.143,4.709c0.128,0,0.256-0.049,0.354-0.146c4.689-4.688,12.319-4.688,17.008,0c0.195,0.195,0.513,0.195,0.707,0
			c0.195-0.195,0.195-0.512,0-0.707C16.134-1.222,7.87-1.22,2.79,3.856c-0.195,0.195-0.195,0.512,0,0.707
			C2.887,4.66,3.015,4.709,3.143,4.709z"/>
		<path d="M7.851,8.706c-0.195,0.195-0.195,0.512,0,0.707C7.948,9.511,8.076,9.56,8.204,9.56c0.128,0,0.256-0.049,0.354-0.147
			c1.898-1.896,4.987-1.896,6.885,0c0.195,0.195,0.513,0.195,0.709,0c0.195-0.195,0.195-0.512,0-0.707
			C13.861,6.419,10.139,6.419,7.851,8.706z"/>
	</g>
</g>
<g id="Outline_Icons">
	<g>
		
			<rect x="3.5" y="21.5" fill="none" stroke="#000000" stroke-linecap="round" stroke-linejoin="round" stroke-miterlimit="10" width="3" height="2"/>
		
			<rect x="17.5" y="21.5" fill="none" stroke="#000000" stroke-linecap="round" stroke-linejoin="round" stroke-miterlimit="10" width="3" height="2"/>
		<polygon fill="none" stroke="#000000" stroke-linecap="round" stroke-linejoin="round" stroke-miterlimit="10" points="21.5,21.5 
			21.5,17.5 19.5,15.5 4.5,15.5 2.5,17.5 2.5,21.5 		"/>
		<polygon fill="none" stroke="#000000" stroke-linecap="round" stroke-linejoin="round" stroke-miterlimit="10" points="17.5,10.5 
			6.5,10.5 4.5,15.5 19.5,15.5 		"/>
		
			<line fill="none" stroke="#000000" stroke-linecap="round" stroke-linejoin="round" stroke-miterlimit="10" x1="2.5" y1="19.5" x2="7" y2="19.5"/>
		
			<line fill="none" stroke="#000000" stroke-linecap="round" stroke-linejoin="round" stroke-miterlimit="10" x1="17" y1="19.5" x2="21.5" y2="19.5"/>
		<path fill="none" stroke="#000000" stroke-linecap="round" stroke-linejoin="round" stroke-miterlimit="10" d="M5.675,6.629
			c3.491-3.492,9.155-3.497,12.652,0"/>
		<path fill="none" stroke="#000000" stroke-linecap="round" stroke-linejoin="round" stroke-miterlimit="10" d="M20.857,4.203
			c-4.889-4.888-12.816-4.896-17.714,0"/>
		<path fill="none" stroke="#000000" stroke-linecap="round" stroke-linejoin="round" stroke-miterlimit="10" d="M8.204,9.054
			c2.096-2.095,5.493-2.098,7.593,0"/>
		<path fill="none" stroke="#000000" stroke-linecap="round" stroke-linejoin="round" stroke-miterlimit="10" d="M18.327,6.629
			c-3.491-3.492-9.156-3.497-12.652,0"/>
		<path fill="none" stroke="#000000" stroke-linecap="round" stroke-linejoin="round" stroke-miterlimit="10" d="M15.797,9.054
			c-2.096-2.095-5.494-2.098-7.593,0"/>
	</g>
</g>
</svg>
