<?xml version="1.0" encoding="utf-8"?>
<!-- Generator: Adobe Illustrator 19.2.0, SVG Export Plug-In . SVG Version: 6.00 Build 0)  -->
<svg version="1.1" id="Layer_1" xmlns="http://www.w3.org/2000/svg" xmlns:xlink="http://www.w3.org/1999/xlink" x="0px" y="0px"
	 viewBox="0 0 24 24" enable-background="new 0 0 24 24" xml:space="preserve">
<g id="Filled_Icons" display="none">
	<g display="inline">
		<path d="M1.5,7.006H3V7.34l-2.75,3.666h22.5L20,7.34V7.006h1.5c0.275,0,0.5-0.224,0.5-0.5v-4c0-0.276-0.225-0.5-0.5-0.5h-1.551
			c-0.232-1.14-1.242-2-2.449-2h-12c-1.207,0-2.217,0.86-2.449,2H1.5c-0.276,0-0.5,0.224-0.5,0.5v4C1,6.782,1.224,7.006,1.5,7.006z
			 M12,1.006h5.5c0.827,0,1.5,0.673,1.5,1.5v4v0.5h-7V1.006z M4,6.506v-4c0-0.827,0.673-1.5,1.5-1.5H11v6H4V6.506z"/>
		<path d="M0,12.006v5.5c0,0.275,0.224,0.5,0.5,0.5h22c0.275,0,0.5-0.225,0.5-0.5v-5.5H0z M4,17.006c-1.103,0-2-0.896-2-2
			c0-1.104,0.897-2,2-2s2,0.896,2,2C6,16.109,5.103,17.006,4,17.006z M8,16.006c0,0.275-0.224,0.5-0.5,0.5
			c-0.276,0-0.5-0.225-0.5-0.5v-1.969c0-0.275,0.224-0.5,0.5-0.5c0.276,0,0.5,0.225,0.5,0.5V16.006z M10,16.006
			c0,0.275-0.224,0.5-0.5,0.5c-0.276,0-0.5-0.225-0.5-0.5v-1.969c0-0.275,0.224-0.5,0.5-0.5c0.276,0,0.5,0.225,0.5,0.5V16.006z
			 M12,16.006c0,0.275-0.224,0.5-0.5,0.5c-0.276,0-0.5-0.225-0.5-0.5v-1.969c0-0.275,0.224-0.5,0.5-0.5c0.276,0,0.5,0.225,0.5,0.5
			V16.006z M14,16.006c0,0.275-0.225,0.5-0.5,0.5c-0.275,0-0.5-0.225-0.5-0.5v-1.969c0-0.275,0.225-0.5,0.5-0.5
			c0.275,0,0.5,0.225,0.5,0.5V16.006z M16,16.006c0,0.275-0.225,0.5-0.5,0.5c-0.275,0-0.5-0.225-0.5-0.5v-1.969
			c0-0.275,0.225-0.5,0.5-0.5c0.275,0,0.5,0.225,0.5,0.5V16.006z M19,17.006c-1.104,0-2-0.896-2-2c0-1.104,0.896-2,2-2
			c1.103,0,2,0.896,2,2C21,16.109,20.103,17.006,19,17.006z"/>
		<g>
			<path d="M7.456,19.006L6,19.998v-0.992H0v4.5c0,0.275,0.224,0.5,0.5,0.5h5c0.276,0,0.5-0.225,0.5-0.5v-2.298l3.232-2.202H7.456z"
				/>
		</g>
		<g>
			<path d="M17,19.006v0.992l-1.456-0.992h-1.776L17,21.208v2.298c0,0.275,0.225,0.5,0.5,0.5h5c0.275,0,0.5-0.225,0.5-0.5v-4.5H17z"
				/>
		</g>
	</g>
</g>
<g id="Outline_Icons">
	<g>
		
			<rect x="1.5" y="2.5" fill="none" stroke="#000000" stroke-linecap="round" stroke-linejoin="round" stroke-miterlimit="10" width="2" height="4"/>
		
			<rect x="19.5" y="2.5" fill="none" stroke="#000000" stroke-linecap="round" stroke-linejoin="round" stroke-miterlimit="10" width="2" height="4"/>
		<path fill="none" stroke="#000000" stroke-linejoin="round" stroke-miterlimit="10" d="M19.5,7.5h-16v-5c0-1.104,0.896-2,2-2h12
			c1.103,0,2,0.896,2,2V7.5z"/>
		<polygon fill="none" stroke="#000000" stroke-linejoin="round" stroke-miterlimit="10" points="3.5,7.5 19.5,7.5 22.5,11.5 
			0.5,11.5 		"/>
		<rect x="0.5" y="11.5" fill="none" stroke="#000000" stroke-linejoin="round" stroke-miterlimit="10" width="22" height="6"/>
		<rect x="0.5" y="17.5" fill="none" stroke="#000000" stroke-linejoin="round" stroke-miterlimit="10" width="5" height="6"/>
		<rect x="17.5" y="17.5" fill="none" stroke="#000000" stroke-linejoin="round" stroke-miterlimit="10" width="5" height="6"/>
		
			<line fill="none" stroke="#000000" stroke-linecap="round" stroke-linejoin="round" stroke-miterlimit="10" x1="7.5" y1="13.531" x2="7.5" y2="15.5"/>
		
			<line fill="none" stroke="#000000" stroke-linecap="round" stroke-linejoin="round" stroke-miterlimit="10" x1="9.5" y1="13.531" x2="9.5" y2="15.5"/>
		
			<line fill="none" stroke="#000000" stroke-linecap="round" stroke-linejoin="round" stroke-miterlimit="10" x1="11.5" y1="13.531" x2="11.5" y2="15.5"/>
		
			<line fill="none" stroke="#000000" stroke-linecap="round" stroke-linejoin="round" stroke-miterlimit="10" x1="13.5" y1="13.531" x2="13.5" y2="15.5"/>
		
			<line fill="none" stroke="#000000" stroke-linecap="round" stroke-linejoin="round" stroke-miterlimit="10" x1="15.5" y1="13.531" x2="15.5" y2="15.5"/>
		
			<circle fill="none" stroke="#000000" stroke-linecap="round" stroke-linejoin="round" stroke-miterlimit="10" cx="19" cy="14.5" r="1.5"/>
		
			<circle fill="none" stroke="#000000" stroke-linecap="round" stroke-linejoin="round" stroke-miterlimit="10" cx="4" cy="14.5" r="1.5"/>
		
			<line fill="none" stroke="#000000" stroke-linecap="round" stroke-linejoin="round" stroke-miterlimit="10" x1="11.5" y1="0.5" x2="11.5" y2="7.5"/>
		
			<line fill="none" stroke="#000000" stroke-linecap="round" stroke-linejoin="round" stroke-miterlimit="10" x1="5.5" y1="20.938" x2="10.5" y2="17.531"/>
		
			<line fill="none" stroke="#000000" stroke-linecap="round" stroke-linejoin="round" stroke-miterlimit="10" x1="17.5" y1="20.938" x2="12.5" y2="17.531"/>
	</g>
</g>
</svg>
