<?xml version="1.0" encoding="utf-8"?>
<!-- Generator: Adobe Illustrator 19.2.0, SVG Export Plug-In . SVG Version: 6.00 Build 0)  -->
<svg version="1.1" id="Outline_Icons" xmlns="http://www.w3.org/2000/svg" xmlns:xlink="http://www.w3.org/1999/xlink" x="0px"
	 y="0px" viewBox="0 0 24 24" enable-background="new 0 0 24 24" xml:space="preserve">
<g>
	<path fill="none" stroke="#000000" stroke-linejoin="round" stroke-miterlimit="10" d="M5,13.5c2,0,4.5,8,4.5,8H2.842
		c-0.907,0-1.702-0.611-1.934-1.487C0.294,17.687,0.109,13.5,5,13.5z"/>
	<path fill="none" stroke="#000000" stroke-linejoin="round" stroke-miterlimit="10" d="M19,13.5c-2,0-4.5,8-4.5,8h6.658
		c0.907,0,1.702-0.611,1.934-1.487C23.706,17.687,23.891,13.5,19,13.5z"/>
	<path fill="none" stroke="#000000" stroke-linejoin="round" stroke-miterlimit="10" d="M5.953,9.973C6.264,6.865,8.878,4.5,12,4.5
		s5.736,2.365,6.047,5.473L18.5,13.5c-4.333-2-8.667-2-13,0L5.953,9.973z"/>
	<path fill="none" stroke="#000000" stroke-linecap="round" stroke-linejoin="round" stroke-miterlimit="10" d="M8.977,9.736
		C9.132,8.184,10.439,7,12,7"/>
	<line fill="none" stroke="#000000" stroke-linejoin="round" stroke-miterlimit="10" x1="9" y1="21.5" x2="15" y2="21.5"/>
	<rect x="17.5" y="21.5" fill="none" stroke="#000000" stroke-linejoin="round" stroke-miterlimit="10" width="4" height="2"/>
	<rect x="2.5" y="21.5" fill="none" stroke="#000000" stroke-linejoin="round" stroke-miterlimit="10" width="4" height="2"/>
	<circle fill="none" stroke="#000000" stroke-linejoin="round" stroke-miterlimit="10" cx="20" cy="17.784" r="1.5"/>
	<circle fill="none" stroke="#000000" stroke-linejoin="round" stroke-miterlimit="10" cx="4" cy="17.784" r="1.5"/>
</g>
</svg>
