<?xml version="1.0" encoding="utf-8"?>
<!-- Generator: Adobe Illustrator 19.2.0, SVG Export Plug-In . SVG Version: 6.00 Build 0)  -->
<svg version="1.1" id="Layer_1" xmlns="http://www.w3.org/2000/svg" xmlns:xlink="http://www.w3.org/1999/xlink" x="0px" y="0px"
	 viewBox="0 0 24 24" enable-background="new 0 0 24 24" xml:space="preserve">
<g id="Filled_Icons" display="none">
	<g display="inline">
		<path d="M15,20.006c-0.275,0-0.5-0.225-0.5-0.5c0-0.275,0.225-0.5,0.5-0.5h5v-1.5c0-0.133-0.053-0.26-0.147-0.354l-1.926-1.928
			l-1.963-4.905c-0.076-0.19-0.26-0.314-0.464-0.314h-11c-0.205,0-0.389,0.124-0.465,0.314l-1.962,4.905l-1.927,1.928
			C0.053,17.246,0,17.373,0,17.506v1.5h5c0.276,0,0.5,0.225,0.5,0.5c0,0.275-0.224,0.5-0.5,0.5H0v1.5c0,0.275,0.224,0.5,0.5,0.5H1
			v1.5c0,0.275,0.224,0.5,0.5,0.5h3c0.276,0,0.5-0.225,0.5-0.5v-1.5h10v1.5c0,0.275,0.225,0.5,0.5,0.5h3c0.275,0,0.5-0.225,0.5-0.5
			v-1.5h0.5c0.275,0,0.5-0.225,0.5-0.5v-1.5H15z M3.238,15.006l1.6-4h10.323l1.601,4H3.238z"/>
		<g>
			<path d="M9.5,3.006c-0.276,0-0.5-0.224-0.5-0.5v-2c0-0.276,0.224-0.5,0.5-0.5c0.276,0,0.5,0.224,0.5,0.5v2
				C10,2.782,9.776,3.006,9.5,3.006z"/>
		</g>
		<g>
			<path d="M12.583,3.602c-0.223,0-0.426-0.149-0.484-0.376l-0.498-1.938c-0.069-0.267,0.092-0.539,0.36-0.608
				c0.269-0.068,0.54,0.092,0.607,0.36l0.5,1.938c0.068,0.267-0.092,0.539-0.36,0.608C12.666,3.597,12.624,3.602,12.583,3.602z"/>
		</g>
		<g>
			<path d="M12.789,8.598c-0.223,0-0.426-0.149-0.484-0.376l-0.498-1.938c-0.068-0.267,0.093-0.539,0.36-0.608
				c0.268-0.066,0.54,0.092,0.608,0.36l0.498,1.938c0.069,0.267-0.092,0.539-0.358,0.608C12.872,8.593,12.831,8.598,12.789,8.598z"
				/>
		</g>
		<g>
			<path d="M15.31,6.848c-0.224,0-0.427-0.149-0.484-0.376l-0.498-1.938c-0.069-0.267,0.092-0.539,0.359-0.608
				c0.268-0.066,0.539,0.092,0.608,0.36l0.498,1.938c0.069,0.267-0.093,0.539-0.36,0.608C15.393,6.843,15.352,6.848,15.31,6.848z"/>
		</g>
		<g>
			<path d="M3.752,6.848c-0.041,0-0.083-0.005-0.125-0.016C3.36,6.763,3.198,6.49,3.268,6.224l0.498-1.938
				c0.069-0.269,0.343-0.428,0.608-0.36c0.268,0.069,0.429,0.342,0.36,0.608L4.236,6.472C4.178,6.698,3.975,6.848,3.752,6.848z"/>
		</g>
		<g>
			<path d="M6.442,3.604c-0.04,0-0.08-0.005-0.12-0.015C6.055,3.523,5.891,3.252,5.956,2.984l0.478-1.942
				c0.065-0.269,0.34-0.432,0.604-0.366C7.306,0.742,7.47,1.013,7.404,1.28L6.927,3.223C6.872,3.451,6.667,3.604,6.442,3.604z"/>
		</g>
		<g>
			<path d="M6.29,8.601c-0.04,0-0.08-0.005-0.121-0.015C5.901,8.521,5.737,8.249,5.804,7.981L6.281,6.04
				c0.067-0.269,0.336-0.43,0.605-0.366c0.269,0.065,0.432,0.337,0.366,0.604L6.774,8.22C6.718,8.448,6.514,8.601,6.29,8.601z"/>
		</g>
		<g>
			<path d="M9.5,9.006c-0.276,0-0.5-0.224-0.5-0.5v-2c0-0.276,0.224-0.5,0.5-0.5c0.276,0,0.5,0.224,0.5,0.5v2
				C10,8.782,9.776,9.006,9.5,9.006z"/>
		</g>
	</g>
</g>
<g id="Outline_Icons">
	<g>
		
			<rect x="1.5" y="21.5" fill="none" stroke="#000000" stroke-linecap="round" stroke-linejoin="round" stroke-miterlimit="10" width="3" height="2"/>
		
			<rect x="15.5" y="21.5" fill="none" stroke="#000000" stroke-linecap="round" stroke-linejoin="round" stroke-miterlimit="10" width="3" height="2"/>
		<polygon fill="none" stroke="#000000" stroke-linecap="round" stroke-linejoin="round" stroke-miterlimit="10" points="19.5,21.5 
			19.5,17.5 17.5,15.5 2.5,15.5 0.5,17.5 0.5,21.5 		"/>
		<polygon fill="none" stroke="#000000" stroke-linecap="round" stroke-linejoin="round" stroke-miterlimit="10" points="15.5,10.5 
			4.5,10.5 2.5,15.5 17.5,15.5 		"/>
		
			<line fill="none" stroke="#000000" stroke-linecap="round" stroke-linejoin="round" stroke-miterlimit="10" x1="0.5" y1="19.5" x2="5" y2="19.5"/>
		
			<line fill="none" stroke="#000000" stroke-linecap="round" stroke-linejoin="round" stroke-miterlimit="10" x1="15" y1="19.5" x2="19.5" y2="19.5"/>
		
			<line fill="none" stroke="#000000" stroke-linecap="round" stroke-linejoin="round" stroke-miterlimit="10" x1="9.5" y1="0.5" x2="9.5" y2="2.5"/>
		
			<line fill="none" stroke="#000000" stroke-linecap="round" stroke-linejoin="round" stroke-miterlimit="10" x1="12.085" y1="1.158" x2="12.583" y2="3.096"/>
		
			<line fill="none" stroke="#000000" stroke-linecap="round" stroke-linejoin="round" stroke-miterlimit="10" x1="12.292" y1="6.154" x2="12.79" y2="8.092"/>
		
			<line fill="none" stroke="#000000" stroke-linecap="round" stroke-linejoin="round" stroke-miterlimit="10" x1="14.812" y1="4.404" x2="15.31" y2="6.342"/>
		
			<line fill="none" stroke="#000000" stroke-linecap="round" stroke-linejoin="round" stroke-miterlimit="10" x1="4.25" y1="4.404" x2="3.752" y2="6.342"/>
		
			<line fill="none" stroke="#000000" stroke-linecap="round" stroke-linejoin="round" stroke-miterlimit="10" x1="6.919" y1="1.155" x2="6.442" y2="3.098"/>
		
			<line fill="none" stroke="#000000" stroke-linecap="round" stroke-linejoin="round" stroke-miterlimit="10" x1="6.767" y1="6.153" x2="6.289" y2="8.095"/>
		
			<line fill="none" stroke="#000000" stroke-linecap="round" stroke-linejoin="round" stroke-miterlimit="10" x1="9.5" y1="6.5" x2="9.5" y2="8.5"/>
	</g>
</g>
</svg>
