<?xml version="1.0" encoding="utf-8"?>
<!-- Generator: Adobe Illustrator 19.2.0, SVG Export Plug-In . SVG Version: 6.00 Build 0)  -->
<svg version="1.1" id="Layer_1" xmlns="http://www.w3.org/2000/svg" xmlns:xlink="http://www.w3.org/1999/xlink" x="0px" y="0px"
	 viewBox="0 0 24 24" style="enable-background:new 0 0 24 24;" xml:space="preserve">
<style type="text/css">
	.st0{display:none;}
	.st1{display:inline;}
	.st2{fill:none;stroke:#000000;stroke-linejoin:round;stroke-miterlimit:10;}
	.st3{fill:none;stroke:#000000;stroke-linecap:round;stroke-linejoin:round;stroke-miterlimit:10;}
</style>
<g id="Filled_Icons" class="st0">
	<g class="st1">
		<path d="M8.1,10.5c-0.2-0.2-0.5-0.2-0.7,0L6,11.9c-0.2,0.2-0.2,0.5,0,0.7l1.4,1.4c0.1,0.1,0.2,0.1,0.4,0.1c0.1,0,0.3,0,0.4-0.1
			l1.4-1.4c0.2-0.2,0.2-0.5,0-0.7L8.1,10.5z"/>
		<path d="M10.9,7.7c-0.2-0.2-0.5-0.2-0.7,0L8.8,9.1c-0.2,0.2-0.2,0.5,0,0.7l1.4,1.4c0.1,0.1,0.2,0.1,0.4,0.1c0.1,0,0.3,0,0.4-0.1
			l1.4-1.4c0.2-0.2,0.2-0.5,0-0.7L10.9,7.7z"/>
		<path d="M15.5,8c0.3,0,0.5,0,0.8-0.1c0.5,1.2,1.8,2.1,3.2,2.1c0.2,0,0.3,0,0.5-0.1V13c0,0.3,0.2,0.5,0.5,0.5
			c0.3,0,0.5-0.2,0.5-0.5V9.7c1.2-0.6,2-1.8,2-3.1C23,4.6,21.4,3,19.5,3c-0.3,0-0.5,0-0.8,0.1C18.2,1.9,16.9,1,15.5,1
			C13.6,1,12,2.6,12,4.5c0,0.1,0,0.2,0,0.3c-0.7-0.4-1.4-0.6-2.2-0.6c-1.2,0-2.3,0.5-3.2,1.3l-5,4.9c-1.8,1.8-1.8,4.6,0,6.4l1.4,1.4
			c0.9,0.9,2,1.3,3.2,1.3c1.2,0,2.3-0.5,3.2-1.3l5-4.9c0.8-0.9,1.3-2,1.3-3.2c0-0.8-0.2-1.5-0.6-2.2C15.3,8,15.4,8,15.5,8z M19.5,4
			C20.9,4,22,5.1,22,6.5c0,0.8-0.4,1.5-1,2V8c0-0.3-0.2-0.5-0.5-0.5C20.2,7.5,20,7.7,20,8V9C19.8,9,19.7,9,19.5,9
			c-1,0-1.9-0.6-2.3-1.5c1.1-0.6,1.8-1.7,1.8-3c0-0.1,0-0.3,0-0.4C19.1,4,19.3,4,19.5,4z M17,6.5c0-0.8,0.4-1.5,1-2
			C18,5.3,17.6,6,17,6.5z M15.5,2c1,0,1.9,0.6,2.3,1.5c-1.1,0.6-1.8,1.7-1.8,3c0,0.1,0,0.3,0,0.4C15.9,7,15.7,7,15.5,7
			c-0.7,0-1.3-0.3-1.8-0.7l0,0C13.3,5.8,13,5.2,13,4.5C13,3.1,14.1,2,15.5,2z M13,7l0.7,0.7c0.7,0.7,1,1.5,1,2.5c0,0,0,0,0,0
			l-5.3,5.3C9,16,8.4,16.2,7.7,16.2c-0.6,0-1.3-0.2-1.8-0.7l-1.4-1.4c-0.5-0.5-0.7-1.1-0.7-1.8c0-0.7,0.3-1.3,0.7-1.8l5.3-5.3
			c0,0,0,0,0,0c0.9,0,1.8,0.4,2.5,1L13,7C13,7,13,7,13,7z"/>
		<path d="M22,11.1V13c0,0.8-0.7,1.5-1.5,1.5c-0.8,0-1.5-0.7-1.5-1.5v-1.9c-1.1,0.2-2,1.2-2,2.4v3c0,0.3,0.2,0.5,0.5,0.5h6
			c0.3,0,0.5-0.2,0.5-0.5v-3C24,12.3,23.1,11.3,22,11.1z"/>
		<path d="M19,21.5c0,0.1,0,0.2,0.1,0.2l1,2c0.1,0.2,0.3,0.3,0.4,0.3c0,0,0,0,0,0c0.2,0,0.4-0.1,0.4-0.3l1-2c0-0.1,0-0.1,0-0.2V18
			h-3V21.5z"/>
	</g>
</g>
<g id="Outline_Icons">
	<g>
		<path class="st2" d="M9.1,17.9c-1.6,1.6-4.1,1.6-5.7,0l-1.4-1.4c-1.6-1.6-1.6-4.1,0-5.7L7,5.9c1.6-1.6,4.1-1.6,5.7,0l1.4,1.4
			c1.6,1.6,1.6,4.1,0,5.7L9.1,17.9z"/>
		<path class="st2" d="M10.9,4.9l-6,6c-0.8,0.8-0.8,2,0,2.8l1.4,1.4c0.8,0.8,2,0.8,2.8,0l6-6"/>
		<rect x="6.7" y="11.3" transform="matrix(0.7071 -0.7071 0.7071 0.7071 -6.4201 9.063)" class="st2" width="2" height="2"/>
		<rect x="9.6" y="8.5" transform="matrix(0.7071 -0.7071 0.7071 0.7071 -3.592 10.2349)" class="st2" width="2" height="2"/>
		<circle class="st2" cx="15.5" cy="4.5" r="3"/>
		<circle class="st2" cx="19.5" cy="6.5" r="3"/>
		<path class="st2" d="M17.5,13.5c0-1.1,0.9-2,2-2h2c1.1,0,2,0.9,2,2v3h-6V13.5z"/>
		<polygon class="st2" points="21.5,16.5 19.5,16.5 19.5,21.5 20.5,23.5 21.5,21.5 		"/>
		<line class="st3" x1="20.5" y1="13" x2="20.5" y2="8"/>
	</g>
</g>
</svg>
