<?xml version="1.0" encoding="utf-8"?>
<!-- Generator: Adobe Illustrator 19.2.0, SVG Export Plug-In . SVG Version: 6.00 Build 0)  -->
<svg version="1.1" id="Layer_1" xmlns="http://www.w3.org/2000/svg" xmlns:xlink="http://www.w3.org/1999/xlink" x="0px" y="0px"
	 viewBox="0 0 24 24" enable-background="new 0 0 24 24" xml:space="preserve">
<g id="Filled_Icons" display="none">
	<g display="inline">
		<g>
			<path d="M20,17.006h0.5c0.275,0,0.5-0.225,0.5-0.5v-1.5h0.5c0.275,0,0.5-0.225,0.5-0.5v-1.5h-2V17.006z"/>
			<path d="M21.853,10.152l-1.926-1.928L17.964,3.32c-0.077-0.19-0.26-0.314-0.464-0.314h-11c-0.205,0-0.389,0.124-0.465,0.314
				L4.073,8.225l-1.927,1.928C2.053,10.246,2,10.373,2,10.506v1.5h5c0.276,0,0.5,0.224,0.5,0.5c0,0.275-0.224,0.5-0.5,0.5H2v1.5
				c0,0.275,0.224,0.5,0.5,0.5H3v1.5c0,0.275,0.224,0.5,0.5,0.5h3c0.276,0,0.5-0.225,0.5-0.5v-1.5h4v-1.703
				c0-0.584,0.339-1.115,0.869-1.361l6-2.779c0.464-0.215,1.006-0.18,1.438,0.098C19.738,9.535,20,10.012,20,10.523v1.482h2v-1.5
				C22,10.373,21.947,10.246,21.853,10.152z M5.238,8.006l1.6-4h10.323l1.601,4H5.238z"/>
		</g>
		<path d="M18.769,10.103c-0.144-0.093-0.324-0.104-0.479-0.033l-6,2.78c-0.177,0.082-0.29,0.26-0.29,0.453v5.715h-1
			c-1.103,0-2,0.897-2,2c0,1.104,0.897,2,2,2c1.065,0,2-0.935,2-2v-7.395l5-2.316V16h-1c-1.104,0-2,0.897-2,2c0,1.104,0.896,2,2,2
			c1.064,0,2-0.935,2-2v-7.477C19,10.353,18.913,10.194,18.769,10.103z"/>
	</g>
</g>
<g id="Outline_Icons">
	<g>
		
			<rect x="3.5" y="14.5" fill="none" stroke="#000000" stroke-linecap="round" stroke-linejoin="round" stroke-miterlimit="10" width="3" height="2"/>
		<polyline fill="none" stroke="#000000" stroke-linecap="round" stroke-linejoin="round" stroke-miterlimit="10" points="
			21.5,10.5 19.5,8.5 4.5,8.5 2.5,10.5 2.5,14.5 10.955,14.5 		"/>
		<polygon fill="none" stroke="#000000" stroke-linecap="round" stroke-linejoin="round" stroke-miterlimit="10" points="17.5,3.5 
			6.5,3.5 4.5,8.5 19.5,8.5 		"/>
		
			<line fill="none" stroke="#000000" stroke-linecap="round" stroke-linejoin="round" stroke-miterlimit="10" x1="2.5" y1="12.5" x2="7" y2="12.5"/>
		<g>
			<path fill="none" stroke="#000000" stroke-linejoin="round" stroke-miterlimit="10" d="M12.5,21.012c0,0.75-0.671,1.5-1.5,1.5
				c-0.828,0-1.5-0.67-1.5-1.5c0-0.828,0.672-1.5,1.5-1.5c0.273,0,1.25,0,1.5,0C12.5,20.012,12.5,20.457,12.5,21.012z"/>
			<path fill="none" stroke="#000000" stroke-linejoin="round" stroke-miterlimit="10" d="M18.5,17.994c0,0.75-0.671,1.5-1.5,1.5
				c-0.828,0-1.5-0.672-1.5-1.5c0-0.828,0.672-1.5,1.5-1.5c0.273,0,1.25,0,1.5,0C18.5,16.994,18.5,17.494,18.5,17.994z"/>
			<polyline fill="none" stroke="#000000" stroke-linejoin="round" stroke-miterlimit="10" points="12.5,20 12.5,13.297 
				18.5,10.518 18.5,17 			"/>
		</g>
	</g>
</g>
</svg>
