<?xml version="1.0" encoding="utf-8"?>
<!-- Generator: Adobe Illustrator 19.2.0, SVG Export Plug-In . SVG Version: 6.00 Build 0)  -->
<svg version="1.1" id="Layer_1" xmlns="http://www.w3.org/2000/svg" xmlns:xlink="http://www.w3.org/1999/xlink" x="0px" y="0px"
	 viewBox="0 0 24 24" enable-background="new 0 0 24 24" xml:space="preserve">
<g id="Filled_Icons" display="none">
	<g display="inline">
		<path d="M11,14.516c0-0.559,0.311-1.07,0.806-1.33c0.494-0.256,1.092-0.221,1.553,0.101c0.606,0.424,0.932,0.48,1.146,0.48
			c0.33,0,0.618-0.137,0.812-0.384c0.568-0.724,1.798-0.724,2.365,0c0.193,0.247,0.481,0.384,0.812,0.384
			c0.215,0,0.539-0.056,1.146-0.48c0.4-0.279,0.905-0.329,1.357-0.169v-0.61c0-0.133-0.053-0.26-0.147-0.354l-1.926-1.928
			L16.964,5.32c-0.077-0.19-0.26-0.314-0.464-0.314h-11c-0.205,0-0.389,0.124-0.465,0.314l-1.962,4.904l-1.927,1.928
			C1.053,12.246,1,12.373,1,12.506v1.5h5c0.276,0,0.5,0.225,0.5,0.5c0,0.275-0.224,0.5-0.5,0.5H1v1.5c0,0.275,0.224,0.5,0.5,0.5H2
			v1.5c0,0.275,0.224,0.5,0.5,0.5h3c0.276,0,0.5-0.225,0.5-0.5v-1.5h5V14.516z M4.238,10.006l1.6-4h10.323l1.601,4H4.238z"/>
		<path d="M20.73,14.072c-0.166-0.088-0.363-0.073-0.518,0.033c-0.652,0.455-1.184,0.658-1.719,0.658
			c-0.635,0-1.217-0.279-1.598-0.767c-0.189-0.241-0.603-0.242-0.793,0c-0.383,0.485-0.965,0.767-1.599,0.767
			c-0.537,0-1.067-0.203-1.719-0.658c-0.152-0.107-0.354-0.121-0.518-0.033C12.104,14.158,12,14.329,12,14.516v5.924
			c0,0.045,0.006,0.09,0.018,0.133c0.501,1.848,3.482,3.434,4.482,3.434s3.978-1.588,4.48-3.434C20.994,20.529,21,20.484,21,20.44
			v-5.924C21,14.329,20.896,14.158,20.73,14.072z M18.5,19.006H17v1.5c0,0.275-0.225,0.5-0.5,0.5c-0.275,0-0.5-0.225-0.5-0.5v-1.5
			h-1.484c-0.275,0-0.5-0.225-0.5-0.5c0-0.275,0.225-0.5,0.5-0.5H16v-1.5c0-0.275,0.225-0.5,0.5-0.5c0.275,0,0.5,0.225,0.5,0.5v1.5
			h1.5c0.275,0,0.5,0.225,0.5,0.5C19,18.781,18.775,19.006,18.5,19.006z"/>
	</g>
</g>
<g id="Outline_Icons">
	<g>
		
			<rect x="2.5" y="16.617" fill="none" stroke="#000000" stroke-linecap="round" stroke-linejoin="round" stroke-miterlimit="10" width="3" height="2"/>
		<polyline fill="none" stroke="#000000" stroke-linecap="round" stroke-linejoin="round" stroke-miterlimit="10" points="
			20.5,12.617 18.5,10.617 3.5,10.617 1.5,12.617 1.5,16.617 9.955,16.617 		"/>
		<polygon fill="none" stroke="#000000" stroke-linecap="round" stroke-linejoin="round" stroke-miterlimit="10" points="
			16.5,5.617 5.5,5.617 3.5,10.617 18.5,10.617 		"/>
		
			<line fill="none" stroke="#000000" stroke-linecap="round" stroke-linejoin="round" stroke-miterlimit="10" x1="1.5" y1="14.617" x2="6" y2="14.617"/>
		<path fill="none" stroke="#000000" stroke-linecap="round" stroke-linejoin="round" stroke-miterlimit="10" d="M18.495,15.258
			c-0.804,0-1.521-0.357-1.992-0.957h-0.006c-0.472,0.6-1.189,0.957-1.992,0.957c-0.704,0-1.342-0.285-2.005-0.748v5.924
			c0,0,0.58,2.109,4,3.066c3.42-0.957,4-3.066,4-3.066V14.51C19.836,14.973,19.199,15.258,18.495,15.258z"/>
		
			<line fill="none" stroke="#000000" stroke-linecap="round" stroke-linejoin="round" stroke-miterlimit="10" x1="16.5" y1="20.5" x2="16.5" y2="16.5"/>
		
			<line fill="none" stroke="#000000" stroke-linecap="round" stroke-linejoin="round" stroke-miterlimit="10" x1="14.516" y1="18.5" x2="18.5" y2="18.5"/>
	</g>
</g>
</svg>
