<?xml version="1.0" encoding="utf-8"?>
<!-- Generator: Adobe Illustrator 19.2.0, SVG Export Plug-In . SVG Version: 6.00 Build 0)  -->
<svg version="1.1" id="Layer_1" xmlns="http://www.w3.org/2000/svg" xmlns:xlink="http://www.w3.org/1999/xlink" x="0px" y="0px"
	 viewBox="0 0 24 24" enable-background="new 0 0 24 24" xml:space="preserve">
<g id="Filled_Icons" display="none">
	<g display="inline">
		<path d="M17.926,15.225c-0.568-0.291-1.164-0.219-1.164-0.219H3.238l1.6-4h5.244c-0.186-0.32-0.352-0.653-0.493-1H4.5
			c-0.205,0-0.389,0.124-0.465,0.314l-1.962,4.905l-1.927,1.928C0.053,17.246,0,17.373,0,17.506v1.5h5c0.276,0,0.5,0.225,0.5,0.5
			c0,0.275-0.224,0.5-0.5,0.5H0v1.5c0,0.275,0.224,0.5,0.5,0.5H1v1.5c0,0.275,0.224,0.5,0.5,0.5h3c0.276,0,0.5-0.225,0.5-0.5v-1.5
			h10v1.5c0,0.275,0.225,0.5,0.5,0.5h3c0.275,0,0.5-0.225,0.5-0.5v-1.5h0.5c0.275,0,0.5-0.225,0.5-0.5v-1.5h-5
			c-0.275,0-0.5-0.225-0.5-0.5c0-0.275,0.225-0.5,0.5-0.5h5v-1.5c0-0.133-0.053-0.26-0.147-0.354L17.926,15.225z"/>
		<g>
			<path d="M17.5,4.006H16v3h1.5c0.827,0,1.5-0.673,1.5-1.5C19,4.679,18.327,4.006,17.5,4.006z"/>
			<path d="M17,0.006c-3.859,0-7,3.141-7,7c0,3.859,3.141,7,7,7c3.859,0,7-3.141,7-7C24,3.147,20.859,0.006,17,0.006z M17.5,8.006
				H16v2.5c0,0.276-0.225,0.5-0.5,0.5c-0.275,0-0.5-0.224-0.5-0.5v-7c0-0.276,0.225-0.5,0.5-0.5h2c1.378,0,2.5,1.121,2.5,2.5
				C20,6.885,18.878,8.006,17.5,8.006z"/>
		</g>
	</g>
</g>
<g id="Outline_Icons">
	<g>
		
			<rect x="1.5" y="21.5" fill="none" stroke="#000000" stroke-linecap="round" stroke-linejoin="round" stroke-miterlimit="10" width="3" height="2"/>
		
			<rect x="15.5" y="21.5" fill="none" stroke="#000000" stroke-linecap="round" stroke-linejoin="round" stroke-miterlimit="10" width="3" height="2"/>
		<polygon fill="none" stroke="#000000" stroke-linecap="round" stroke-linejoin="round" stroke-miterlimit="10" points="19.5,21.5 
			19.5,17.5 17.5,15.5 2.5,15.5 0.5,17.5 0.5,21.5 		"/>
		<polyline fill="none" stroke="#000000" stroke-linecap="round" stroke-linejoin="round" stroke-miterlimit="10" points="
			8.951,10.5 4.5,10.5 2.5,15.5 17.5,15.5 		"/>
		
			<line fill="none" stroke="#000000" stroke-linecap="round" stroke-linejoin="round" stroke-miterlimit="10" x1="0.5" y1="19.5" x2="5" y2="19.5"/>
		
			<line fill="none" stroke="#000000" stroke-linecap="round" stroke-linejoin="round" stroke-miterlimit="10" x1="15" y1="19.5" x2="19.5" y2="19.5"/>
		
			<circle fill="none" stroke="#000000" stroke-linecap="round" stroke-linejoin="round" stroke-miterlimit="10" cx="17" cy="7" r="6.5"/>
		<path fill="none" stroke="#000000" stroke-linecap="round" stroke-linejoin="round" stroke-miterlimit="10" d="M15.5,10.5v-7h2
			c1.103,0,2,0.896,2,2s-0.897,2-2,2h-2"/>
	</g>
</g>
</svg>
