<?xml version="1.0" encoding="utf-8"?>
<!-- Generator: Adobe Illustrator 19.2.0, SVG Export Plug-In . SVG Version: 6.00 Build 0)  -->
<svg version="1.1" id="Layer_1" xmlns="http://www.w3.org/2000/svg" xmlns:xlink="http://www.w3.org/1999/xlink" x="0px" y="0px"
	 viewBox="0 0 24 24" enable-background="new 0 0 24 24" xml:space="preserve">
<g id="Filled_Icons" display="none">
	<path display="inline" d="M12,0.006c-6.627,0-12,5.373-12,12c0,6.627,5.373,12,12,12s12-5.373,12-12
		C24,5.379,18.627,0.006,12,0.006z M18.6,17.93c-1.582,1.704-3.733,2.689-6.058,2.775c-3.535,0.127-6.748-1.863-8.222-5.039
		c-0.116-0.251-0.007-0.548,0.244-0.664c0.25-0.119,0.548-0.007,0.664,0.242c1.311,2.824,4.178,4.6,7.277,4.461
		c2.058-0.075,3.961-0.947,5.361-2.456c1.399-1.507,2.13-3.47,2.055-5.526c-0.075-2.058-0.948-3.962-2.456-5.362
		c-1.508-1.4-3.475-2.134-5.526-2.054c-2.167,0.079-4.217,1.07-5.624,2.719c-1.177,1.377-1.801,3.115-1.827,4.98l2.177-2.488
		C6.847,9.309,7.162,9.289,7.37,9.471c0.208,0.182,0.229,0.497,0.047,0.705l-3.023,3.455c-0.095,0.11-0.232,0.171-0.376,0.171
		c-0.011,0-0.021,0-0.033,0C3.83,13.792,3.689,13.71,3.602,13.58L1.011,9.692C0.857,9.463,0.92,9.152,1.149,8.999
		C1.378,8.846,1.69,8.908,1.843,9.138l1.655,2.483c0.104-1.959,0.804-3.779,2.056-5.246c1.588-1.859,3.902-2.978,6.348-3.068
		c2.319-0.077,4.542,0.739,6.245,2.321c1.703,1.582,2.689,3.733,2.773,6.058C21.006,14.009,20.182,16.227,18.6,17.93z M7.904,13.8
		c-0.276,0-0.5-0.224-0.5-0.5s0.224-0.5,0.5-0.5c1.055,0,1.937,0.741,2.165,1.729h4.305c0.229-0.987,1.11-1.729,2.166-1.729
		c0.276,0,0.5,0.224,0.5,0.5s-0.224,0.5-0.5,0.5c-0.677,0-1.228,0.552-1.228,1.229c0,0.677,0.551,1.227,1.228,1.227
		c0.276,0,0.5,0.224,0.5,0.5c0,0.276-0.224,0.5-0.5,0.5c-1.056,0-1.938-0.739-2.166-1.727h-4.305
		c-0.229,0.986-1.11,1.727-2.165,1.727c-0.276,0-0.5-0.224-0.5-0.5c0-0.276,0.224-0.5,0.5-0.5c0.676,0,1.227-0.551,1.227-1.227
		C9.131,14.352,8.581,13.8,7.904,13.8z M10.688,8.296c-0.176,0-0.319,0.136-0.326,0.31c-0.011,0.275-0.244,0.476-0.52,0.479
		c-0.275-0.012-0.49-0.243-0.479-0.521c0.028-0.711,0.61-1.269,1.325-1.269c0.731,0,1.326,0.594,1.326,1.323
		c0,0.365-0.141,0.613-0.247,0.769l-0.955,1.364h0.692c0.276,0,0.5,0.224,0.5,0.5c0,0.276-0.224,0.5-0.5,0.5H9.851
		c-0.187,0-0.357-0.104-0.444-0.27c-0.086-0.165-0.073-0.364,0.034-0.518l1.503-2.147c0.038-0.055,0.069-0.107,0.069-0.198
		C11.014,8.44,10.867,8.296,10.688,8.296z M15.093,9.992c0,0.196-0.112,0.366-0.278,0.448v0.812c0,0.276-0.224,0.5-0.5,0.5
		c-0.275,0-0.5-0.224-0.5-0.5v-0.76H12.79c-0.187,0-0.356-0.104-0.442-0.269c-0.087-0.165-0.074-0.363,0.032-0.517l1.524-2.196
		c0.125-0.18,0.351-0.253,0.561-0.192c0.208,0.065,0.352,0.259,0.352,0.478v1.748C14.98,9.626,15.093,9.796,15.093,9.992z"/>
</g>
<g id="Outline_Icons">
	<g>
		<g>
			<g>
				<polyline fill="none" stroke="#000000" stroke-linecap="round" stroke-linejoin="round" stroke-miterlimit="10" points="
					0.5,9.001 3.5,13.501 7,9.501 				"/>
				<path fill="none" stroke="#000000" stroke-linecap="round" stroke-linejoin="round" stroke-miterlimit="10" d="M3.532,13.438
					C2.781,7.223,7.407,2.7,12.65,2.507c5.242-0.192,9.649,3.901,9.843,9.145c0.192,5.245-3.901,9.651-9.144,9.843
					c-3.942,0.146-7.412-2.134-8.974-5.501"/>
			</g>
			<line fill="none" stroke="#000000" stroke-linejoin="round" stroke-miterlimit="10" x1="10" y1="15.5" x2="16" y2="15.5"/>
			<path fill="none" stroke="#000000" stroke-linecap="round" stroke-linejoin="round" stroke-miterlimit="10" d="M18,17.5
				c-1.104,0-2-0.896-2-2c0-1.103,0.896-2,2-2"/>
			<path fill="none" stroke="#000000" stroke-linecap="round" stroke-linejoin="round" stroke-miterlimit="10" d="M8,13.5
				c1.104,0,2,0.897,2,2c0,1.104-0.896,2-2,2"/>
		</g>
		<polyline fill="none" stroke="#000000" stroke-linecap="round" stroke-linejoin="round" stroke-miterlimit="10" points="
			15.424,11.126 15.424,7.126 13.658,9.67 15.745,9.67 		"/>
		<path fill="none" stroke="#000000" stroke-linecap="round" stroke-linejoin="round" stroke-miterlimit="10" d="M10.267,8.04
			c0.021-0.509,0.44-0.914,0.956-0.914c0.528,0,0.957,0.427,0.957,0.953c0,0.273-0.109,0.451-0.184,0.562l-1.74,2.485h1.913"/>
	</g>
</g>
</svg>
