<?xml version="1.0" encoding="utf-8"?>
<!-- Generator: Adobe Illustrator 19.2.0, SVG Export Plug-In . SVG Version: 6.00 Build 0)  -->
<svg version="1.1" id="Layer_1" xmlns="http://www.w3.org/2000/svg" xmlns:xlink="http://www.w3.org/1999/xlink" x="0px" y="0px"
	 viewBox="0 0 24 24" enable-background="new 0 0 24 24" xml:space="preserve">
<g id="Filled_Icons" display="none">
	<g display="inline">
		<path d="M18.926,15.225l-0.087-0.219h-1.077H11.5H4.238l1.6-4H10v-1H5.5c-0.205,0-0.389,0.124-0.465,0.314l-1.962,4.905
			l-1.927,1.928C1.053,17.246,1,17.373,1,17.506v1.5h5c0.276,0,0.5,0.225,0.5,0.5c0,0.275-0.224,0.5-0.5,0.5H1v1.5
			c0,0.275,0.224,0.5,0.5,0.5H2v1.5c0,0.275,0.224,0.5,0.5,0.5h3c0.276,0,0.5-0.225,0.5-0.5v-1.5h10v1.5c0,0.275,0.225,0.5,0.5,0.5
			h3c0.275,0,0.5-0.225,0.5-0.5v-1.5h0.5c0.275,0,0.5-0.225,0.5-0.5v-1.5h-5c-0.275,0-0.5-0.225-0.5-0.5c0-0.275,0.225-0.5,0.5-0.5
			h5v-1.5c0-0.133-0.053-0.26-0.147-0.354L18.926,15.225z"/>
		<path d="M22.5,0.006h-11c-0.276,0-0.5,0.224-0.5,0.5v13c0,0.275,0.224,0.5,0.5,0.5h11c0.275,0,0.5-0.225,0.5-0.5v-13
			C23,0.229,22.775,0.006,22.5,0.006z M21,11.506c0,0.276-0.225,0.5-0.5,0.5h-7c-0.275,0-0.5-0.224-0.5-0.5v-9
			c0-0.276,0.225-0.5,0.5-0.5h7c0.275,0,0.5,0.224,0.5,0.5V11.506z"/>
		<g>
			<path d="M16.25,6.965c-0.022,0-0.043-0.001-0.065-0.004c-0.142-0.019-0.27-0.099-0.351-0.219l-0.75-1.125
				c-0.152-0.229-0.091-0.54,0.139-0.693c0.229-0.154,0.541-0.091,0.693,0.139l0.432,0.647l1.779-1.578
				c0.205-0.183,0.523-0.165,0.706,0.042c0.185,0.207,0.165,0.522-0.042,0.706l-2.208,1.959C16.488,6.921,16.372,6.965,16.25,6.965z
				"/>
		</g>
		<g>
			<path d="M16.25,9.943c-0.022,0-0.043-0.001-0.065-0.004c-0.142-0.019-0.27-0.098-0.351-0.219l-0.75-1.124
				c-0.152-0.229-0.091-0.54,0.139-0.693c0.229-0.153,0.539-0.091,0.693,0.139l0.432,0.646l1.779-1.577
				c0.206-0.184,0.521-0.165,0.705,0.042c0.184,0.207,0.165,0.523-0.042,0.706l-2.209,1.958C16.488,9.899,16.372,9.943,16.25,9.943z
				"/>
		</g>
	</g>
</g>
<g id="Outline_Icons">
	<g>
		
			<rect x="2.5" y="21.5" fill="none" stroke="#000000" stroke-linecap="round" stroke-linejoin="round" stroke-miterlimit="10" width="3" height="2"/>
		
			<rect x="16.5" y="21.5" fill="none" stroke="#000000" stroke-linecap="round" stroke-linejoin="round" stroke-miterlimit="10" width="3" height="2"/>
		<polygon fill="none" stroke="#000000" stroke-linecap="round" stroke-linejoin="round" stroke-miterlimit="10" points="20.5,21.5 
			20.5,17.5 18.5,15.5 3.5,15.5 1.5,17.5 1.5,21.5 		"/>
		<polyline fill="none" stroke="#000000" stroke-linecap="round" stroke-linejoin="round" stroke-miterlimit="10" points="
			9.188,10.5 5.5,10.5 3.5,15.5 18.5,15.5 		"/>
		
			<line fill="none" stroke="#000000" stroke-linecap="round" stroke-linejoin="round" stroke-miterlimit="10" x1="1.5" y1="19.5" x2="6" y2="19.5"/>
		
			<line fill="none" stroke="#000000" stroke-linecap="round" stroke-linejoin="round" stroke-miterlimit="10" x1="16" y1="19.5" x2="20.5" y2="19.5"/>
		
			<rect x="11.5" y="0.5" fill="none" stroke="#000000" stroke-linecap="round" stroke-linejoin="round" stroke-miterlimit="10" width="11" height="13"/>
		
			<rect x="13.5" y="2.5" fill="none" stroke="#000000" stroke-linecap="round" stroke-linejoin="round" stroke-miterlimit="10" width="7" height="9"/>
		<polyline fill="none" stroke="#000000" stroke-linecap="round" stroke-linejoin="round" stroke-miterlimit="10" points="
			15.542,4.875 16.292,6 18.5,4.041 		"/>
		<polyline fill="none" stroke="#000000" stroke-linecap="round" stroke-linejoin="round" stroke-miterlimit="10" points="
			15.542,7.854 16.292,8.979 18.5,7.021 		"/>
	</g>
</g>
</svg>
