<?xml version="1.0" encoding="utf-8"?>
<!-- Generator: Adobe Illustrator 19.2.0, SVG Export Plug-In . SVG Version: 6.00 Build 0)  -->
<svg version="1.1" id="Layer_1" xmlns="http://www.w3.org/2000/svg" xmlns:xlink="http://www.w3.org/1999/xlink" x="0px" y="0px"
	 viewBox="0 0 24 24" enable-background="new 0 0 24 24" xml:space="preserve">
<g id="Filled_Icons" display="none">
	<g display="inline">
		<path d="M4.5,23.006c-1.329,0-2.548-0.475-3.5-1.261v1.761c0,0.275,0.224,0.5,0.5,0.5h3c0.276,0,0.5-0.225,0.5-0.5v-0.5H4.5z"/>
		<path d="M19.5,23.006H19v0.5c0,0.275,0.225,0.5,0.5,0.5h3c0.275,0,0.5-0.225,0.5-0.5v-1.761
			C22.048,22.531,20.828,23.006,19.5,23.006z"/>
		<g>
			<path d="M24,13.506v-2c0-0.276-0.225-0.5-0.5-0.5h-3c-0.247,0-0.441,0.182-0.482,0.416l-2.07-4.14
				c-0.084-0.169-0.258-0.276-0.446-0.276h-11c-0.189,0-0.362,0.107-0.447,0.276l-2.07,4.14c-0.041-0.234-0.236-0.416-0.482-0.416
				h-3c-0.276,0-0.5,0.224-0.5,0.5v2c0,0.275,0.224,0.5,0.5,0.5h1.206C0.675,14.831,0,16.085,0,17.506c0,2.48,2.019,4.5,4.5,4.5
				h3.591c0.212,0.598,0.773,1,1.409,1h5c0.637,0,1.197-0.402,1.409-1H19.5c2.48,0,4.5-2.02,4.5-4.5c0-1.421-0.675-2.675-1.707-3.5
				H23.5C23.775,14.006,24,13.781,24,13.506z M6.809,8.006h10.38l2.5,5H19.5h-1.682h-3.609H14h-4H9.815H6.19H4.5H4.309L6.809,8.006z
				 M22,18.506c0,0.275-0.225,0.5-0.5,0.5h-5.641l-0.887,2.658c-0.068,0.204-0.259,0.342-0.474,0.342h-5
				c-0.215,0-0.406-0.138-0.474-0.342L8.14,19.006H2.5c-0.276,0-0.5-0.225-0.5-0.5v-2c0-0.275,0.224-0.5,0.5-0.5h2.19l1-2h3.624
				l-1.004,2H10v-2h4v2h1.693l-0.989-2h3.612l0.992,2h2.19c0.276,0,0.5,0.225,0.5,0.5L22,18.506L22,18.506z"/>
			<polygon points="3,18.006 8.5,18.006 15.5,18.006 21,18.006 21,17.006 3,17.006 			"/>
		</g>
	</g>
</g>
<g id="Outline_Icons">
	<g>
		<g>
			<polyline fill="none" stroke="#000000" stroke-linecap="round" stroke-linejoin="round" stroke-miterlimit="10" points="
				4.5,21.5 4.5,23.5 1.5,23.5 1.5,20.145 			"/>
			<polyline fill="none" stroke="#000000" stroke-linecap="round" stroke-linejoin="round" stroke-miterlimit="10" points="
				22.5,20.145 22.5,23.5 19.5,23.5 19.5,21.5 			"/>
			<polygon fill="none" stroke="#000000" stroke-linecap="round" stroke-linejoin="round" stroke-miterlimit="10" points="17.5,7.5 
				6.5,7.5 3.5,13.5 20.5,13.5 			"/>
			
				<rect x="0.5" y="11.5" fill="none" stroke="#000000" stroke-linecap="round" stroke-linejoin="round" stroke-miterlimit="10" width="3" height="2"/>
			
				<rect x="20.5" y="11.5" fill="none" stroke="#000000" stroke-linecap="round" stroke-linejoin="round" stroke-miterlimit="10" width="3" height="2"/>
			<path fill="none" stroke="#000000" stroke-linecap="round" stroke-linejoin="round" stroke-miterlimit="10" d="M7,21.5H4.5
				c-2.209,0-4-1.791-4-4s1.791-4,4-4h15c2.209,0,4,1.791,4,4s-1.791,4-4,4H16H7z"/>
			
				<rect x="2.5" y="16.5" fill="none" stroke="#000000" stroke-linecap="round" stroke-linejoin="round" stroke-miterlimit="10" width="19" height="2"/>
			<polygon fill="none" stroke="#000000" stroke-linecap="round" stroke-linejoin="round" stroke-miterlimit="10" points="8.5,18.5 
				15.5,18.5 14.5,21.5 9.5,21.5 			"/>
		</g>
		<g>
			
				<line fill="none" stroke="#000000" stroke-linecap="round" stroke-linejoin="round" stroke-miterlimit="10" x1="19" y1="16.5" x2="17.5" y2="13.5"/>
			
				<line fill="none" stroke="#000000" stroke-linecap="round" stroke-linejoin="round" stroke-miterlimit="10" x1="16.5" y1="16.5" x2="15" y2="13.5"/>
		</g>
		<g>
			
				<line fill="none" stroke="#000000" stroke-linecap="round" stroke-linejoin="round" stroke-miterlimit="10" x1="5" y1="16.5" x2="6.5" y2="13.5"/>
			
				<line fill="none" stroke="#000000" stroke-linecap="round" stroke-linejoin="round" stroke-miterlimit="10" x1="7.5" y1="16.5" x2="9" y2="13.5"/>
		</g>
		<g>
			
				<line fill="none" stroke="#000000" stroke-linecap="round" stroke-linejoin="round" stroke-miterlimit="10" x1="10.5" y1="16.5" x2="10.5" y2="13.5"/>
			
				<line fill="none" stroke="#000000" stroke-linecap="round" stroke-linejoin="round" stroke-miterlimit="10" x1="13.5" y1="16.5" x2="13.5" y2="13.5"/>
		</g>
	</g>
</g>
</svg>
