<?xml version="1.0" encoding="utf-8"?>
<!-- Generator: Adobe Illustrator 19.2.0, SVG Export Plug-In . SVG Version: 6.00 Build 0)  -->
<svg version="1.1" id="Layer_1" xmlns="http://www.w3.org/2000/svg" xmlns:xlink="http://www.w3.org/1999/xlink" x="0px" y="0px"
	 viewBox="0 0 24 24" enable-background="new 0 0 24 24" xml:space="preserve">
<g id="Filled_Icons" display="none">
	<g display="inline">
		<path d="M5.5,16.006c-1.378,0-2.5,1.122-2.5,2.5c0,1.379,1.122,2.5,2.5,2.5c1.378,0,2.5-1.121,2.5-2.5
			C8,17.128,6.878,16.006,5.5,16.006z"/>
		<path d="M5.521,13.006c1.861,0,4.101,1.182,6.077,2.225l0.262,0.138c0.951-1.205,2.22-2.377,4.641-2.377
			c3.037,0,5.552,2.591,6.5,3.715v-2.199c0-3.584-2.916-6.5-6.5-6.5H12c-0.189,0-0.362,0.107-0.447,0.276L9.69,12.006H3.347
			c-0.736,0-1.358,0.527-1.479,1.254l-0.263,1.578C2.489,13.878,3.769,13.006,5.521,13.006z M11.553,11.282l1-2
			C12.639,9.113,12.81,9.006,13,9.006h1c0.275,0,0.5,0.224,0.5,0.5v1.86c0.014,0.044,0.021,0.092,0.021,0.141
			c0,0.276-0.226,0.5-0.5,0.5c-0.008-0.001-0.015-0.001-0.021,0l-2-0.001c-0.173,0-0.335-0.09-0.426-0.237
			C11.483,11.622,11.475,11.438,11.553,11.282z"/>
		<path d="M23.5,18.006H23v-0.009c-0.154,0-0.307-0.063-0.404-0.197c-0.027-0.038-2.814-3.81-6.096-3.81
			c-2.186,0-3.225,1.144-4.1,2.314c-0.146,0.195-0.414,0.26-0.632,0.145l-0.638-0.336c-1.78-0.939-3.997-2.107-5.61-2.107
			c-2.39,0-3.77,2.107-4.299,3.131l-0.145,0.869H0.5c-0.276,0-0.5,0.225-0.5,0.5c0,0.275,0.224,0.5,0.5,0.5h1.551
			C2.026,18.842,2,18.678,2,18.506c0-1.93,1.57-3.5,3.5-3.5c1.93,0,3.5,1.57,3.5,3.5c0,0.172-0.026,0.336-0.051,0.5h4.102
			C13.025,18.842,13,18.678,13,18.506c0-1.93,1.57-3.5,3.5-3.5c1.93,0,3.5,1.57,3.5,3.5c0,0.172-0.025,0.336-0.051,0.5H23.5
			c0.275,0,0.5-0.225,0.5-0.5C24,18.231,23.775,18.006,23.5,18.006z"/>
		<path d="M16.5,16.006c-1.378,0-2.5,1.122-2.5,2.5c0,1.379,1.122,2.5,2.5,2.5c1.378,0,2.5-1.121,2.5-2.5
			C19,17.128,17.878,16.006,16.5,16.006z"/>
	</g>
</g>
<g id="Outline_Icons">
	<g>
		
			<circle fill="none" stroke="#000000" stroke-linecap="round" stroke-linejoin="round" stroke-miterlimit="10" cx="5.5" cy="18.5" r="2"/>
		
			<line fill="none" stroke="#000000" stroke-linecap="round" stroke-linejoin="round" stroke-miterlimit="10" x1="18.5" y1="18.5" x2="23.5" y2="18.5"/>
		
			<circle fill="none" stroke="#000000" stroke-linecap="round" stroke-linejoin="round" stroke-miterlimit="10" cx="16.5" cy="18.5" r="2"/>
		
			<line fill="none" stroke="#000000" stroke-linecap="round" stroke-linejoin="round" stroke-miterlimit="10" x1="7.5" y1="18.5" x2="14.5" y2="18.5"/>
		
			<line fill="none" stroke="#000000" stroke-linecap="round" stroke-linejoin="round" stroke-miterlimit="10" x1="0.5" y1="18.5" x2="3.5" y2="18.5"/>
		<polyline fill="none" stroke="#000000" stroke-linecap="round" stroke-linejoin="round" stroke-miterlimit="10" points="
			12.5,12.5 13.5,10.5 14.5,10.5 		"/>
		<path fill="none" stroke="#000000" stroke-linecap="round" stroke-linejoin="round" stroke-miterlimit="10" d="M1.792,16.958
			c0,0,0.771-2.458,3.729-2.458c1.938,0,5.169,1.51,7.17,2.553c0.867-1.16,1.324-2.568,3.809-2.568c3.583,0,6,4.017,6,4.017v-4
			c0-3.313-2.686-6-6-6H12l-2,4H3.347c-0.489,0-0.906,0.355-0.986,0.836L1.5,18.5"/>
	</g>
</g>
</svg>
