<?xml version="1.0" encoding="utf-8"?>
<!-- Generator: Adobe Illustrator 19.2.0, SVG Export Plug-In . SVG Version: 6.00 Build 0)  -->
<svg version="1.1" id="Layer_1" xmlns="http://www.w3.org/2000/svg" xmlns:xlink="http://www.w3.org/1999/xlink" x="0px" y="0px"
	 viewBox="0 0 24 24" enable-background="new 0 0 24 24" xml:space="preserve">
<g id="Filled_Icons" display="none">
	<g display="inline">
		<path d="M23.5,18.006h-0.576l-0.708-4.255c-0.745-4.487-4.585-7.745-9.127-7.745c-3.899,0-7.41,2.316-8.946,5.898l-0.477,1.112
			C0,13.241,0,17.186,0,18.506c0,0.275,0.224,0.5,0.5,0.5h0.551C1.026,18.842,1,18.678,1,18.506c0-1.93,1.57-3.5,3.5-3.5
			c1.93,0,3.5,1.57,3.5,3.5c0,0.172-0.026,0.336-0.051,0.5h7.102C15.025,18.842,15,18.678,15,18.506c0-1.93,1.57-3.5,3.5-3.5
			c1.93,0,3.5,1.57,3.5,3.5c0,0.172-0.025,0.336-0.051,0.5H23.5c0.275,0,0.5-0.225,0.5-0.5C24,18.231,23.775,18.006,23.5,18.006z
			 M11,12.506c0,0.275-0.224,0.5-0.5,0.5H6c-0.172,0-0.332-0.088-0.423-0.232c-0.092-0.146-0.103-0.328-0.028-0.481
			c1.104-2.313,2.92-3.911,4.858-4.276c0.145-0.028,0.297,0.011,0.412,0.106C10.934,8.216,11,8.357,11,8.506V12.506z M13,16.506
			c0,0.275-0.225,0.5-0.5,0.5c-0.276,0-0.5-0.225-0.5-0.5v-8c0-0.276,0.224-0.5,0.5-0.5c0.275,0,0.5,0.224,0.5,0.5V16.506z
			 M19.423,12.773c-0.092,0.145-0.251,0.231-0.423,0.231h-4.5c-0.275,0-0.5-0.224-0.5-0.5v-4c0-0.148,0.066-0.29,0.182-0.385
			c0.114-0.095,0.264-0.133,0.411-0.106c1.939,0.365,3.755,1.964,4.858,4.276C19.525,12.445,19.516,12.628,19.423,12.773z"/>
		<g>
			<path d="M4.5,16.006c-1.378,0-2.5,1.122-2.5,2.5c0,1.379,1.122,2.5,2.5,2.5c1.378,0,2.5-1.121,2.5-2.5
				C7,17.128,5.878,16.006,4.5,16.006z"/>
		</g>
		<g>
			<path d="M18.5,16.006c-1.378,0-2.5,1.122-2.5,2.5c0,1.379,1.122,2.5,2.5,2.5c1.378,0,2.5-1.121,2.5-2.5
				C21,17.128,19.878,16.006,18.5,16.006z"/>
		</g>
	</g>
</g>
<g id="Outline_Icons">
	<g>
		
			<circle fill="none" stroke="#000000" stroke-linecap="round" stroke-linejoin="round" stroke-miterlimit="10" cx="4.5" cy="18.5" r="2"/>
		
			<line fill="none" stroke="#000000" stroke-linecap="round" stroke-linejoin="round" stroke-miterlimit="10" x1="20.5" y1="18.5" x2="23.5" y2="18.5"/>
		
			<circle fill="none" stroke="#000000" stroke-linecap="round" stroke-linejoin="round" stroke-miterlimit="10" cx="18.5" cy="18.5" r="2"/>
		
			<line fill="none" stroke="#000000" stroke-linecap="round" stroke-linejoin="round" stroke-miterlimit="10" x1="6.5" y1="18.5" x2="16.5" y2="18.5"/>
		<path fill="none" stroke="#000000" stroke-linecap="round" stroke-linejoin="round" stroke-miterlimit="10" d="M22.5,18.5
			c0,0-0.361-2.175-0.777-4.673C21.021,9.604,17.369,6.5,13.088,6.5c-3.693,0-7.031,2.201-8.486,5.596L4,13.5c-3,0-3.5,2.583-3.5,5
			h2"/>
		<path fill="none" stroke="#000000" stroke-linecap="round" stroke-linejoin="round" stroke-miterlimit="10" d="M13.5,8.5
			c2.424,0,4.545,2,5.5,4h-5.5"/>
		<path fill="none" stroke="#000000" stroke-linecap="round" stroke-linejoin="round" stroke-miterlimit="10" d="M11.16,8.58
			C9.093,8.97,7.343,10.734,6.5,12.5H11"/>
		
			<line fill="none" stroke="#000000" stroke-linecap="round" stroke-linejoin="round" stroke-miterlimit="10" x1="13.5" y1="8.5" x2="13.5" y2="16.5"/>
	</g>
</g>
</svg>
