<?xml version="1.0" encoding="utf-8"?>
<!-- Generator: Adobe Illustrator 19.2.0, SVG Export Plug-In . SVG Version: 6.00 Build 0)  -->
<svg version="1.1" id="Layer_1" xmlns="http://www.w3.org/2000/svg" xmlns:xlink="http://www.w3.org/1999/xlink" x="0px" y="0px"
	 viewBox="0 0 24 24" enable-background="new 0 0 24 24" xml:space="preserve">
<g id="Filled_Icons" display="none">
	<g display="inline">
		<path d="M23.5,23.006H23v-17.5c0-0.276-0.225-0.5-0.5-0.5h-2c-0.275,0-0.5,0.224-0.5,0.5v5.5h-2v-1h0.5c0.275,0,0.5-0.224,0.5-0.5
			v-1.5h-3c-0.275,0-0.5-0.224-0.5-0.5c0-0.276,0.225-0.5,0.5-0.5h3v-0.5c0-0.133-0.053-0.26-0.147-0.354L16.951,4.25l-0.967-3.865
			C15.93,0.162,15.73,0.006,15.5,0.006h-7c-0.229,0-0.43,0.156-0.485,0.379L7.049,4.25L5.146,6.152C5.053,6.246,5,6.373,5,6.506v0.5
			h3c0.276,0,0.5,0.224,0.5,0.5c0,0.276-0.224,0.5-0.5,0.5H5v1.5c0,0.276,0.224,0.5,0.5,0.5H6v1H4v-5.5c0-0.276-0.224-0.5-0.5-0.5
			h-2c-0.276,0-0.5,0.224-0.5,0.5v17.5H0.5c-0.276,0-0.5,0.225-0.5,0.5c0,0.275,0.224,0.5,0.5,0.5h4c0.276,0,0.5-0.225,0.5-0.5
			c0-0.275-0.224-0.5-0.5-0.5H4v-11h16v11h-0.5c-0.275,0-0.5,0.225-0.5,0.5c0,0.275,0.225,0.5,0.5,0.5h4c0.275,0,0.5-0.225,0.5-0.5
			C24,23.231,23.775,23.006,23.5,23.006z M9,10.006h6v1H9V10.006z M8.891,1.006h6.218l0.75,3H8.141L8.891,1.006z"/>
		<path d="M16.584,18.956l-0.691-0.398c0.023-0.182,0.037-0.367,0.037-0.553c0-0.182-0.015-0.367-0.041-0.554l0.688-0.397
			c0.239-0.138,0.321-0.443,0.183-0.683l-1-1.731c-0.066-0.117-0.178-0.201-0.308-0.234c-0.13-0.034-0.269-0.014-0.382,0.056
			l-0.65,0.39c-0.283-0.222-0.594-0.406-0.919-0.545v-0.8c0-0.276-0.224-0.5-0.5-0.5h-2c-0.276,0-0.5,0.224-0.5,0.5v0.798
			c-0.362,0.146-0.703,0.338-0.992,0.555l-0.713-0.402c-0.238-0.139-0.541-0.055-0.679,0.184l-1.01,1.729
			c-0.066,0.114-0.085,0.252-0.051,0.38c0.034,0.129,0.117,0.238,0.233,0.305l0.683,0.397c-0.027,0.188-0.041,0.373-0.041,0.555
			c0,0.186,0.013,0.369,0.039,0.555l-0.688,0.396c-0.115,0.065-0.199,0.176-0.233,0.304c-0.034,0.129-0.017,0.266,0.05,0.381
			l1,1.731c0.137,0.235,0.437,0.319,0.677,0.187l0.73-0.406c0.289,0.218,0.631,0.41,0.995,0.559v0.796c0,0.276,0.224,0.5,0.5,0.5h2
			c0.276,0,0.5-0.224,0.5-0.5v-0.799c0.326-0.14,0.638-0.323,0.922-0.548l0.668,0.394c0.115,0.067,0.251,0.084,0.382,0.053
			c0.129-0.035,0.239-0.119,0.307-0.235l0.99-1.731C16.906,19.398,16.822,19.094,16.584,18.956z M12,19.506
			c-0.828,0-1.5-0.671-1.5-1.5c0-0.828,0.672-1.5,1.5-1.5c0.827,0,1.5,0.672,1.5,1.5C13.5,18.835,12.827,19.506,12,19.506z"/>
	</g>
</g>
<g id="Outline_Icons">
	<g>
		
			<rect x="6.5" y="9.5" fill="none" stroke="#000000" stroke-linecap="round" stroke-linejoin="round" stroke-miterlimit="10" width="2" height="2"/>
		
			<rect x="15.5" y="9.5" fill="none" stroke="#000000" stroke-linecap="round" stroke-linejoin="round" stroke-miterlimit="10" width="2" height="2"/>
		<polygon fill="none" stroke="#000000" stroke-linecap="round" stroke-linejoin="round" stroke-miterlimit="10" points="18.5,9.5 
			18.5,6.5 16.5,4.5 7.5,4.5 5.5,6.5 5.5,9.5 		"/>
		<polygon fill="none" stroke="#000000" stroke-linecap="round" stroke-linejoin="round" stroke-miterlimit="10" points="15.5,0.5 
			8.5,0.5 7.5,4.5 16.5,4.5 		"/>
		
			<line fill="none" stroke="#000000" stroke-linecap="round" stroke-linejoin="round" stroke-miterlimit="10" x1="5.5" y1="7.5" x2="8" y2="7.5"/>
		
			<line fill="none" stroke="#000000" stroke-linecap="round" stroke-linejoin="round" stroke-miterlimit="10" x1="16" y1="7.5" x2="18.5" y2="7.5"/>
		
			<line fill="none" stroke="#000000" stroke-linecap="round" stroke-linejoin="round" stroke-miterlimit="10" x1="0.5" y1="23.5" x2="4.5" y2="23.5"/>
		
			<rect x="1.5" y="5.5" fill="none" stroke="#000000" stroke-linecap="round" stroke-linejoin="round" stroke-miterlimit="10" width="2" height="18"/>
		
			<line fill="none" stroke="#000000" stroke-linecap="round" stroke-linejoin="round" stroke-miterlimit="10" x1="19.5" y1="23.5" x2="23.5" y2="23.5"/>
		
			<rect x="20.5" y="5.5" fill="none" stroke="#000000" stroke-linecap="round" stroke-linejoin="round" stroke-miterlimit="10" width="2" height="18"/>
		
			<line fill="none" stroke="#000000" stroke-linecap="round" stroke-linejoin="round" stroke-miterlimit="10" x1="3.5" y1="11.5" x2="20.5" y2="11.5"/>
		<circle fill="none" stroke="#000000" stroke-linejoin="round" stroke-miterlimit="10" cx="12" cy="18" r="1.5"/>
		<path fill="none" stroke="#000000" stroke-linejoin="round" stroke-miterlimit="10" d="M15.43,18c0-0.279-0.037-0.55-0.099-0.81
			l0.995-0.573l-1-1.732l-0.96,0.575C13.975,15.087,13.5,14.807,13,14.647V13.5h-2v1.147c-0.5,0.158-1.044,0.439-1.437,0.812
			l-1.015-0.575L7.54,16.616l0.991,0.573c-0.062,0.261-0.1,0.531-0.1,0.81c0,0.279,0.034,0.549,0.097,0.811l-0.997,0.573l1,1.731
			l1.031-0.574C9.955,20.913,10.5,21.195,11,21.354V22.5h2v-1.146c0.5-0.158,0.975-0.439,1.367-0.813l0.977,0.575l0.991-1.732
			l-0.999-0.573C15.396,18.55,15.43,18.279,15.43,18z"/>
	</g>
</g>
</svg>
