<?xml version="1.0" encoding="utf-8"?>
<!-- Generator: Adobe Illustrator 19.2.0, SVG Export Plug-In . SVG Version: 6.00 Build 0)  -->
<svg version="1.1" id="Layer_1" xmlns="http://www.w3.org/2000/svg" xmlns:xlink="http://www.w3.org/1999/xlink" x="0px" y="0px"
	 viewBox="0 0 24 24" enable-background="new 0 0 24 24" xml:space="preserve">
<g id="Filled_Icons" display="none">
	<g display="inline">
		<path d="M12,20.504c-0.001-0.275-0.225-0.498-0.5-0.498h-8c-0.133,0-0.261,0.055-0.354,0.146C3.052,20.248,2.999,20.376,3,20.509
			l0.016,3c0.001,0.275,0.225,0.497,0.5,0.497h8c0.133,0,0.261-0.053,0.354-0.146c0.094-0.094,0.146-0.223,0.146-0.354L12,20.504z"
			/>
		<g>
			<path d="M14.5,0.006h-8c-0.827,0-1.5,0.673-1.5,1.5v11.498l1.718-4.275C6.994,8.008,7.541,7.462,8.25,7.211
				c0.595-0.213,1.268-0.196,1.895,0.045c1.484,0.57,2.21,2.152,1.653,3.602c-0.308,0.799-0.474,1.617-0.551,2.07
				c0.249,0.641,0.435,1.338,0.563,2.078h2.69c0.827,0,1.5-0.673,1.5-1.5v-12C16,0.679,15.327,0.006,14.5,0.006z"/>
		</g>
		<path d="M21.07,3.807c-0.209-0.342-0.539-0.58-0.93-0.672l-3.125-0.743v11.114c0,1.379-1.121,2.5-2.5,2.5h-3.584v0.001
			c-0.113-1.095-0.347-2.091-0.715-2.96c0.052-0.367,0.231-1.466,0.647-2.549c0.214-0.557,0.152-1.127-0.176-1.604
			C10.34,8.389,9.725,8.063,9.12,8.063c-0.674,0-1.227,0.391-1.476,1.038l-1.948,4.853c-0.19,0.394-0.56,0.648-0.938,0.648
			c-0.141,0-0.341-0.037-0.501-0.218c-0.083-0.093-0.146-0.215-0.189-0.358c-0.035-0.18-0.053-0.355-0.053-0.52V4.42
			c-0.316,0.659-0.607,1.256-0.87,1.799c-2.687,5.525-2.791,5.741-0.61,9.693c0.411,0.746,0.901,1.635,1.466,2.74v0.354h7.016v-1.5
			c0-0.39-0.019-0.766-0.046-1.134l5.703,1.355c0.116,0.028,0.234,0.043,0.352,0.043c0.273,0,0.543-0.076,0.783-0.225
			c0.342-0.21,0.58-0.54,0.672-0.93L21.255,4.94C21.348,4.551,21.282,4.147,21.07,3.807z"/>
	</g>
</g>
<g id="Outline_Icons">
	<g>
		<rect x="3.516" y="19.5" fill="none" stroke="#000000" stroke-linejoin="round" stroke-miterlimit="10" width="8" height="4"/>
		<path fill="none" stroke="#000000" stroke-linecap="round" stroke-linejoin="round" stroke-miterlimit="10" d="M4.987,19.5
			c-4.503-9.188-4.972-5.312,0.528-17.083"/>
		<path fill="none" stroke="#000000" stroke-linecap="round" stroke-linejoin="round" stroke-miterlimit="10" d="M10.203,14.5h4.312
			c0.553,0,1-0.447,1-1v-12c0-0.551-0.447-1-1-1h-8c-0.552,0-1,0.449-1,1v12c0,0.393,0.211,0.915,0.632,0.665L8.11,9.281
			c0.572-1.487,2.86-0.456,2.288,1.031c-0.538,1.4-0.694,2.801-0.694,2.801c0.287,0.645,0.813,2.035,0.813,4.387v2"/>
		<path fill="none" stroke="#000000" stroke-linecap="round" stroke-linejoin="round" stroke-miterlimit="10" d="M10.47,15.732
			l6.319,1.502c0.537,0.129,1.076-0.203,1.203-0.74l2.775-11.675c0.127-0.538-0.203-1.077-0.742-1.204L15.588,2.56"/>
	</g>
</g>
</svg>
