<?xml version="1.0" encoding="utf-8"?>
<!-- Generator: Adobe Illustrator 19.2.0, SVG Export Plug-In . SVG Version: 6.00 Build 0)  -->
<svg version="1.1" id="Layer_1" xmlns="http://www.w3.org/2000/svg" xmlns:xlink="http://www.w3.org/1999/xlink" x="0px" y="0px"
	 viewBox="0 0 24 24" enable-background="new 0 0 24 24" xml:space="preserve">
<g id="Filled_Icons" display="none">
	<g display="inline">
		<path d="M5.522,20.965c-0.008,0-0.016,0-0.022,0c-0.129,0-0.253-0.049-0.346-0.139C5.056,20.732,5,20.602,5,20.465V7.014
			L0.309,8.957c-0.123,0.051-0.22,0.147-0.271,0.271c-0.051,0.122-0.051,0.26,0,0.383l5.74,13.858
			c0.051,0.123,0.148,0.221,0.271,0.271c0.122,0.05,0.259,0.051,0.383,0l4.008-1.662l-2.91-1.205L5.522,20.965z M3.303,10.964
			l-0.651-0.271l0.269-0.652l0.655,0.27L3.303,10.964z"/>
		<path d="M18,4.419c0-0.276-0.225-0.5-0.5-0.5h-3.865L18,5.727V4.419z"/>
		<path d="M12.334,3.919H6.5c-0.276,0-0.5,0.224-0.5,0.5v14.793l6.333-15.291L12.334,3.919z M9,6.919H8v-1h1V6.919z"/>
		<path d="M23.962,9.437c-0.051-0.123-0.147-0.22-0.271-0.271L19,7.223l-1-0.414l0,0l-4.936-2.043L6.943,19.548l0.763,0.315h0.001
			l2.179,0.902H9.885l1.861,0.771l0,0l5.822,2.41c0.062,0.027,0.127,0.039,0.19,0.039c0.195,0,0.382-0.116,0.462-0.309l5.74-13.86
			C24.014,9.696,24.014,9.559,23.962,9.437z M14.609,7.57l0.271,0.654l-0.651,0.27l-0.271-0.652L14.609,7.57z M16.482,21.335
			l-0.268-0.651l0.652-0.271l0.271,0.654L16.482,21.335z M17.675,15.634l-2.995,2.007c-0.137,0.09-0.312,0.111-0.471,0.047
			c-0.154-0.064-0.268-0.201-0.299-0.365l-0.7-3.537c-0.04-0.198,0.044-0.4,0.212-0.514l2.996-2.005
			c0.141-0.092,0.316-0.109,0.471-0.046c0.153,0.063,0.266,0.2,0.299,0.364l0.701,3.537C17.928,15.318,17.843,15.522,17.675,15.634z
			"/>
	</g>
</g>
<g id="Outline_Icons">
	<g>
		<polygon fill="none" stroke="#000000" stroke-linejoin="round" stroke-miterlimit="10" points="14.4,15.243 13.7,11.706 
			16.695,9.7 17.396,13.236 		"/>
		
			<rect x="8.047" y="6.972" transform="matrix(0.3826 -0.9239 0.9239 0.3826 -1.9245 22.0634)" fill="none" stroke="#000000" stroke-linejoin="round" stroke-miterlimit="10" width="15.001" height="11"/>
		<g>
			<g>
				<polygon points="16.867,18.43 16.215,18.702 16.482,19.354 17.139,19.084 				"/>
			</g>
		</g>
		<g>
			<g>
				<polygon points="14.609,5.589 13.958,5.86 14.228,6.514 14.881,6.241 				"/>
			</g>
		</g>
		<g>
			<g>
				<polygon points="2.921,8.058 2.651,8.713 3.304,8.982 3.575,8.33 				"/>
			</g>
		</g>
		<g>
			<g>
				<polygon points="2.921,8.058 2.651,8.713 3.304,8.982 3.575,8.33 				"/>
			</g>
		</g>
		<polyline fill="none" stroke="#000000" stroke-linejoin="round" stroke-miterlimit="10" points="8,17.438 6.5,17.438 6.5,2.5 
			17.5,2.5 17.5,4.938 		"/>
		<polyline fill="none" stroke="#000000" stroke-linejoin="round" stroke-miterlimit="10" points="11.747,19.016 6.24,21.297 
			0.5,7.438 6.505,4.95 		"/>
		<g>
			<g>
				<polygon points="9,3.971 8,3.971 8,4.971 9,4.971 				"/>
			</g>
		</g>
	</g>
</g>
</svg>
