<?xml version="1.0" encoding="utf-8"?>
<!-- Generator: Adobe Illustrator 19.2.0, SVG Export Plug-In . SVG Version: 6.00 Build 0)  -->
<svg version="1.1" id="Outline_Icons" xmlns="http://www.w3.org/2000/svg" xmlns:xlink="http://www.w3.org/1999/xlink" x="0px"
	 y="0px" viewBox="0 0 24 24" enable-background="new 0 0 24 24" xml:space="preserve">
<g>
	<path fill="none" stroke="#000000" stroke-linecap="round" stroke-linejoin="round" stroke-miterlimit="10" d="M20.5,21.5
		c0,1.101-0.9,2-2,2h-14c-1.1,0-2-0.899-2-2v-19c0-1.1,0.9-2,2-2h14c1.1,0,2,0.9,2,2V21.5z"/>
	<path fill="none" stroke="#000000" stroke-linecap="round" stroke-linejoin="round" stroke-miterlimit="10" d="M18,19.521
		c0,0.828-0.672,0.979-1.5,0.979S15,20.35,15,19.521s1.5-2.021,1.5-2.021S18,18.692,18,19.521z"/>
	
		<line fill="none" stroke="#000000" stroke-linecap="round" stroke-linejoin="round" stroke-miterlimit="10" x1="16.5" y1="20.5" x2="16.5" y2="22"/>
	<path fill="none" stroke="#000000" stroke-linecap="round" stroke-linejoin="round" stroke-miterlimit="10" d="M8,4.522
		C8,5.35,7.328,5.5,6.5,5.5S5,5.35,5,4.522C5,3.692,6.5,2.5,6.5,2.5S8,3.692,8,4.522z"/>
	
		<line fill="none" stroke="#000000" stroke-linecap="round" stroke-linejoin="round" stroke-miterlimit="10" x1="6.5" y1="5.5" x2="6.5" y2="7"/>
	<path fill="none" stroke="#000000" stroke-linecap="round" stroke-linejoin="round" stroke-miterlimit="10" d="M14.5,13
		c0,1.656-1.343,2-3,2s-3-0.344-3-2s3-5,3-5S14.5,11.344,14.5,13z"/>
	
		<line fill="none" stroke="#000000" stroke-linecap="round" stroke-linejoin="round" stroke-miterlimit="10" x1="11.5" y1="17.5" x2="11.5" y2="15"/>
</g>
</svg>
