<?xml version="1.0" encoding="utf-8"?>
<!-- Generator: Adobe Illustrator 19.2.0, SVG Export Plug-In . SVG Version: 6.00 Build 0)  -->
<svg version="1.1" id="Outline_Icons" xmlns="http://www.w3.org/2000/svg" xmlns:xlink="http://www.w3.org/1999/xlink" x="0px"
	 y="0px" viewBox="0 0 24 24" enable-background="new 0 0 24 24" xml:space="preserve">
<g>
	<g>
		<path fill="none" stroke="#000000" stroke-linejoin="round" stroke-miterlimit="10" d="M11.5,16.302c0,0,3.5-2.521,3.5-5.084
			c0-2.763-2.917-3.009-3.5-0.395C10.729,8.25,8,8.456,8,11.218C8,13.981,11.5,16.302,11.5,16.302z"/>
	</g>
	<path fill="none" stroke="#000000" stroke-linecap="round" stroke-linejoin="round" stroke-miterlimit="10" d="M20.5,21.5
		c0,1.101-0.9,2-2,2h-14c-1.1,0-2-0.899-2-2v-19c0-1.1,0.9-2,2-2h14c1.1,0,2,0.9,2,2V21.5z"/>
	<path fill="none" stroke="#000000" stroke-linecap="round" stroke-linejoin="round" stroke-miterlimit="10" d="M5,3.48
		C5,2.651,5.672,2.5,6.5,2.5S8,2.651,8,3.48C8,4.308,6.5,5.5,6.5,5.5S5,4.308,5,3.48z"/>
	<path fill="none" stroke="#000000" stroke-linecap="round" stroke-linejoin="round" stroke-miterlimit="10" d="M15,19.48
		c0-0.829,0.672-0.98,1.5-0.98c0.828,0,1.5,0.151,1.5,0.98c0,0.827-1.5,2.02-1.5,2.02S15,20.308,15,19.48z"/>
</g>
</svg>
