<?xml version="1.0" encoding="utf-8"?>
<!-- Generator: Adobe Illustrator 19.2.0, SVG Export Plug-In . SVG Version: 6.00 Build 0)  -->
<svg version="1.1" id="Layer_1" xmlns="http://www.w3.org/2000/svg" xmlns:xlink="http://www.w3.org/1999/xlink" x="0px" y="0px"
	 viewBox="0 0 24 24" enable-background="new 0 0 24 24" xml:space="preserve">
<g id="Filled_Icons" display="none">
	<path display="inline" d="M23.965,5.955c-0.098-0.259-0.388-0.39-0.644-0.293l-4.408,1.654c-0.223-0.274-0.462-0.529-0.701-0.787
		l4.032-4.072c0.194-0.196,0.192-0.514-0.005-0.708c-0.195-0.193-0.512-0.192-0.706,0.004L17.505,5.82
		c-0.267-0.248-0.53-0.496-0.815-0.725l1.609-4.333c0.096-0.259-0.035-0.547-0.295-0.643c-0.261-0.098-0.546,0.036-0.643,0.295
		L15.848,4.49c-0.211-0.146-0.41-0.308-0.632-0.444c-0.868-0.536-2.091-0.302-2.698,0.516l-0.758,1.03l3.676,3.674
		c0.194,0.195,0.194,0.511,0,0.707c-0.099,0.098-0.226,0.146-0.354,0.146c-0.128,0-0.256-0.049-0.354-0.146l-3.566-3.566
		L0.363,21.086c-0.547,0.734-0.475,1.738,0.172,2.385c0.345,0.346,0.804,0.535,1.291,0.535c0.396,0,0.775-0.126,1.092-0.361
		l7.345-5.401l-2.254-2.261c-0.194-0.194-0.194-0.512,0.001-0.707c0.195-0.193,0.513-0.194,0.708,0.002l2.36,2.365l3.271-2.404
		l-3.511-3.496c-0.196-0.195-0.196-0.512-0.002-0.707c0.195-0.196,0.512-0.196,0.707-0.001l3.619,3.604l4.284-3.152
		c0.85-0.635,1.068-1.795,0.51-2.701c-0.137-0.219-0.294-0.417-0.439-0.627l4.155-1.56C23.932,6.502,24.062,6.214,23.965,5.955z"/>
</g>
<g id="Outline_Icons">
	<g>
		<path fill="none" stroke="#000000" stroke-linejoin="round" stroke-miterlimit="10" d="M19.148,11.08L2.622,23.234
			c-0.531,0.396-1.268,0.343-1.733-0.123c-0.466-0.467-0.52-1.202-0.124-1.733L12.92,4.852c0.475-0.637,1.356-0.805,2.033-0.387
			c1.885,1.171,3.412,2.697,4.579,4.578C19.952,9.724,19.787,10.603,19.148,11.08z"/>
		
			<line fill="none" stroke="#000000" stroke-linecap="round" stroke-linejoin="round" stroke-miterlimit="10" x1="16.111" y1="5.208" x2="17.83" y2="0.582"/>
		
			<line fill="none" stroke="#000000" stroke-linecap="round" stroke-linejoin="round" stroke-miterlimit="10" x1="18.793" y1="7.89" x2="23.497" y2="6.125"/>
		
			<line fill="none" stroke="#000000" stroke-linecap="round" stroke-linejoin="round" stroke-miterlimit="10" x1="17.527" y1="6.503" x2="21.889" y2="2.099"/>
		
			<line fill="none" stroke="#000000" stroke-linecap="round" stroke-linejoin="round" stroke-miterlimit="10" x1="11.898" y1="6.431" x2="15.081" y2="9.613"/>
		
			<line fill="none" stroke="#000000" stroke-linecap="round" stroke-linejoin="round" stroke-miterlimit="10" x1="11.191" y1="11.381" x2="14.4" y2="14.572"/>
		
			<line fill="none" stroke="#000000" stroke-linecap="round" stroke-linejoin="round" stroke-miterlimit="10" x1="8.363" y1="15.623" x2="10.31" y2="17.581"/>
	</g>
</g>
</svg>
