<?xml version="1.0" encoding="utf-8"?>
<!-- Generator: Adobe Illustrator 19.2.0, SVG Export Plug-In . SVG Version: 6.00 Build 0)  -->
<svg version="1.1" id="Layer_1" xmlns="http://www.w3.org/2000/svg" xmlns:xlink="http://www.w3.org/1999/xlink" x="0px" y="0px"
	 viewBox="0 0 24 24" style="enable-background:new 0 0 24 24;" xml:space="preserve">
<style type="text/css">
	.st0{display:none;}
	.st1{display:inline;}
	.st2{fill:none;stroke:#000000;stroke-linecap:round;stroke-linejoin:round;stroke-miterlimit:10;}
</style>
<g id="Filled_Icon" class="st0">
	<g class="st1">
		<path d="M14,20H9c-0.3,0-0.5,0.2-0.5,0.5C8.5,20.8,8.7,21,9,21h5c0.3,0,0.5-0.2,0.5-0.5C14.5,20.2,14.3,20,14,20z"/>
		<path d="M14,22H9c-0.3,0-0.5,0.2-0.5,0.5C8.5,22.8,8.7,23,9,23h2v0.5c0,0.3,0.2,0.5,0.5,0.5c0.3,0,0.5-0.2,0.5-0.5V23h2
			c0.3,0,0.5-0.2,0.5-0.5C14.5,22.2,14.3,22,14,22z"/>
		<path d="M11.5,0C6.3,0,2,4,2,9c0,3.9,2.7,7.3,6.5,8.5v1C8.5,18.8,8.7,19,9,19h5c0.3,0,0.5-0.2,0.5-0.5v-1C18.3,16.3,21,12.9,21,9
			C21,4,16.7,0,11.5,0z M11.5,8.4c1.4,0,2.5,1.1,2.5,2.5c0,1.2-0.9,2.3-2,2.5v0.9c0,0.3-0.2,0.5-0.5,0.5c-0.3,0-0.5-0.2-0.5-0.5
			v-0.9c-1.2-0.2-2-1.3-2-2.5c0-0.3,0.2-0.5,0.5-0.5c0.3,0,0.5,0.2,0.5,0.5c0,0.9,0.7,1.5,1.5,1.5c0.9,0,1.5-0.7,1.5-1.5
			c0-0.9-0.7-1.5-1.5-1.5C10.1,9.4,9,8.3,9,6.9c0-1.2,0.9-2.3,2-2.5V3.5C11,3.2,11.2,3,11.5,3C11.8,3,12,3.2,12,3.5v0.9
			c1.2,0.2,2,1.3,2,2.5c0,0.3-0.2,0.5-0.5,0.5S13,7.2,13,6.9c0-0.9-0.7-1.5-1.5-1.5C10.6,5.3,10,6,10,6.9C10,7.7,10.6,8.4,11.5,8.4z
			"/>
	</g>
</g>
<g id="Outline_Icons">
	<g>
		<line class="st2" x1="9" y1="20.5" x2="14" y2="20.5"/>
		<line class="st2" x1="9" y1="22.5" x2="14" y2="22.5"/>
		<line class="st2" x1="11.5" y1="22.5" x2="11.5" y2="23.5"/>
		<path class="st2" d="M20.5,9c0-4.7-4-8.5-9-8.5c-5,0-9,3.8-9,8.5c0,3.9,2.7,7.1,6.5,8.2v1.3h5v-1.3C17.8,16.1,20.5,12.9,20.5,9z"
			/>
		<path class="st2" d="M9.5,11c0,1.1,0.9,2,2,2c1.1,0,2-0.9,2-2c0-1.1-0.9-2-2-2c-1.1,0-2-0.9-2-2c0-1.1,0.9-2,2-2c1.1,0,2,0.9,2,2"
			/>
		<line class="st2" x1="11.5" y1="13" x2="11.5" y2="14.4"/>
		<line class="st2" x1="11.5" y1="3.5" x2="11.5" y2="4.8"/>
	</g>
</g>
</svg>
