<?xml version="1.0" encoding="utf-8"?>
<!-- Generator: Adobe Illustrator 19.2.0, SVG Export Plug-In . SVG Version: 6.00 Build 0)  -->
<svg version="1.1" id="Layer_1" xmlns="http://www.w3.org/2000/svg" xmlns:xlink="http://www.w3.org/1999/xlink" x="0px" y="0px"
	 viewBox="0 0 24 24" style="enable-background:new 0 0 24 24;" xml:space="preserve">
<style type="text/css">
	.st0{display:none;}
	.st1{display:inline;}
	.st2{fill:none;stroke:#000000;stroke-linecap:round;stroke-linejoin:round;stroke-miterlimit:10;}
</style>
<g id="Filled_Icon" class="st0">
	<g class="st1">
		<path d="M13.5,14c0-0.9-0.6-1.7-1.5-1.9v3.9C12.9,15.7,13.5,14.9,13.5,14z"/>
		<path d="M9.5,9c0,0.9,0.6,1.7,1.5,1.9V7C10.1,7.3,9.5,8,9.5,9z"/>
		<path d="M21.7,0.6c-0.2-0.1-0.4-0.1-0.5,0c-1.8,1.2-3.2,1.8-4.7,1.8c-1.8,0-3.5-0.8-4.6-2.2c-0.2-0.2-0.6-0.2-0.8,0
			C10,1.6,8.3,2.4,6.5,2.4c-1.5,0-3-0.5-4.7-1.8c-0.2-0.1-0.4-0.1-0.5,0C1.1,0.7,1,0.8,1,1v14.8c0,0,0,0.1,0,0.1
			c0.1,0.2,1.6,5.6,10.3,8c0,0,0.1,0,0.1,0c0,0,0.1,0,0.1,0c8.7-2.4,10.3-7.8,10.3-8c0,0,0-0.1,0-0.1V1C22,0.8,21.9,0.7,21.7,0.6z
			 M14.5,14c0,1.5-1.1,2.7-2.5,2.9V18c0,0.3-0.2,0.5-0.5,0.5c-0.3,0-0.5-0.2-0.5-0.5v-1.1c-1.4-0.2-2.5-1.5-2.5-2.9
			c0-0.3,0.2-0.5,0.5-0.5c0.3,0,0.5,0.2,0.5,0.5c0,0.9,0.6,1.7,1.5,1.9v-4C9.6,11.7,8.5,10.5,8.5,9C8.5,7.5,9.6,6.3,11,6V5
			c0-0.3,0.2-0.5,0.5-0.5C11.8,4.5,12,4.7,12,5V6c1.4,0.2,2.5,1.5,2.5,2.9c0,0.3-0.2,0.5-0.5,0.5c-0.3,0-0.5-0.2-0.5-0.5
			C13.5,8,12.9,7.3,12,7v4C13.4,11.3,14.5,12.5,14.5,14z"/>
	</g>
</g>
<g id="Outline_Icons">
	<g>
		<path class="st2" d="M16.5,2.9c-2,0-3.8-0.9-5-2.4h0c-1.2,1.5-3,2.4-5,2.4c-1.8,0-3.4-0.7-5-1.9v14.8c0,0,1.5,5.3,10,7.7
			c8.5-2.4,10-7.7,10-7.7V1C19.8,2.2,18.2,2.9,16.5,2.9z"/>
		<path class="st2" d="M9,14c0,1.4,1.1,2.5,2.5,2.5c1.4,0,2.5-1.1,2.5-2.5c0-1.4-1.1-2.5-2.5-2.5C10.1,11.5,9,10.4,9,9
			c0-1.4,1.1-2.5,2.5-2.5C12.9,6.5,14,7.6,14,9"/>
		<line class="st2" x1="11.5" y1="5" x2="11.5" y2="18"/>
	</g>
</g>
</svg>
