<?xml version="1.0" encoding="utf-8"?>
<!-- Generator: Adobe Illustrator 19.2.0, SVG Export Plug-In . SVG Version: 6.00 Build 0)  -->
<svg version="1.1" id="Layer_1" xmlns="http://www.w3.org/2000/svg" xmlns:xlink="http://www.w3.org/1999/xlink" x="0px" y="0px"
	 viewBox="0 0 24 24" enable-background="new 0 0 24 24" xml:space="preserve">
<g id="Filled_Icons" display="none">
	<path display="inline" d="M12,0.006c-6.595,0-12,5.375-12,12c0,6.559,5.352,12,12,12c6.548,0,12-5.338,12-12
		C24,5.51,18.717,0.006,12,0.006z M12,2.632c0.553,0,1,0.449,1,1c0,0.552-0.447,1-1,1c-0.552,0-1-0.448-1-1
		C11,3.081,11.448,2.632,12,2.632z M7.557,1.951l1.955,4.602c-1.353,0.62-2.438,1.723-3.026,3.093L1.884,7.691
		C2.979,5.135,5.018,3.078,7.557,1.951z M4.563,12.068c0,0.552-0.448,1-1,1c-0.552,0-1-0.448-1-1c0-0.551,0.448-1,1-1
		C4.115,11.068,4.563,11.518,4.563,12.068z M7.64,22.102c-2.545-1.104-4.591-3.143-5.708-5.681l4.594-1.972
		c0.607,1.357,1.703,2.447,3.064,3.048L7.64,22.102z M12,21.506c-0.552,0-1-0.447-1-1c0-0.551,0.448-1,1-1c0.553,0,1,0.449,1,1
		C13,21.059,12.553,21.506,12,21.506z M12,11.506c0.988,0,1.628,0.705,1.628,1.797c0,1.094-0.64,1.799-1.628,1.799h-1.128
		c-0.276,0-0.5-0.225-0.5-0.5c0-0.276,0.224-0.5,0.5-0.5H12c0.155,0,0.628,0,0.628-0.799c0-0.797-0.473-0.797-0.628-0.797h-1.128
		c-0.276,0-0.5-0.224-0.5-0.5V9.413c0-0.276,0.224-0.5,0.5-0.5h2.256c0.276,0,0.5,0.224,0.5,0.5c0,0.276-0.224,0.5-0.5,0.5h-1.756
		v1.593H12z M16.316,1.891c2.562,1.097,4.619,3.141,5.744,5.688l-4.602,1.953c-0.62-1.363-1.731-2.457-3.11-3.046L16.316,1.891z
		 M21.437,12.068c0,0.552-0.447,1-1,1c-0.551,0-1-0.448-1-1c0-0.551,0.449-1,1-1C20.99,11.068,21.437,11.518,21.437,12.068z
		 M16.396,22.082l-1.967-4.596c1.375-0.61,2.479-1.723,3.076-3.103l4.598,1.967C20.999,18.908,18.949,20.964,16.396,22.082z"/>
</g>
<g id="Outline_Icons">
	<g>
		<circle fill="none" stroke="#000000" stroke-linejoin="round" stroke-miterlimit="10" cx="12" cy="12" r="11.5"/>
		<circle fill="none" stroke="#000000" stroke-linejoin="round" stroke-miterlimit="10" cx="12" cy="12" r="5.5"/>
		
			<line fill="none" stroke="#000000" stroke-linejoin="round" stroke-miterlimit="10" x1="16.937" y1="1.657" x2="14.531" y2="7.313"/>
		
			<line fill="none" stroke="#000000" stroke-linejoin="round" stroke-miterlimit="10" x1="6.875" y1="1.657" x2="9.281" y2="7.313"/>
		
			<line fill="none" stroke="#000000" stroke-linejoin="round" stroke-miterlimit="10" x1="22.303" y1="16.979" x2="16.646" y2="14.572"/>
		
			<line fill="none" stroke="#000000" stroke-linejoin="round" stroke-miterlimit="10" x1="22.303" y1="6.917" x2="16.646" y2="9.323"/>
		
			<line fill="none" stroke="#000000" stroke-linejoin="round" stroke-miterlimit="10" x1="6.979" y1="22.346" x2="9.386" y2="16.688"/>
		
			<line fill="none" stroke="#000000" stroke-linejoin="round" stroke-miterlimit="10" x1="17.042" y1="22.346" x2="14.637" y2="16.688"/>
		
			<line fill="none" stroke="#000000" stroke-linejoin="round" stroke-miterlimit="10" x1="1.615" y1="7.021" x2="7.271" y2="9.428"/>
		
			<line fill="none" stroke="#000000" stroke-linejoin="round" stroke-miterlimit="10" x1="1.615" y1="17.084" x2="7.271" y2="14.678"/>
		<circle fill="none" stroke="#000000" stroke-linejoin="round" stroke-miterlimit="10" cx="12" cy="3.626" r="0.5"/>
		<circle fill="none" stroke="#000000" stroke-linejoin="round" stroke-miterlimit="10" cx="12" cy="20.5" r="0.5"/>
		<circle fill="none" stroke="#000000" stroke-linejoin="round" stroke-miterlimit="10" cx="20.437" cy="12.063" r="0.5"/>
		<circle fill="none" stroke="#000000" stroke-linejoin="round" stroke-miterlimit="10" cx="3.563" cy="12.063" r="0.5"/>
		<path fill="none" stroke="#000000" stroke-linecap="round" stroke-linejoin="round" stroke-miterlimit="10" d="M13.128,9.407
			h-2.256V12H12c0.96,0,1.128,0.834,1.128,1.297c0,0.465-0.168,1.299-1.128,1.299h-1.128"/>
	</g>
</g>
</svg>
