<?xml version="1.0" encoding="utf-8"?>
<!-- Generator: Adobe Illustrator 19.2.0, SVG Export Plug-In . SVG Version: 6.00 Build 0)  -->
<svg version="1.1" id="Layer_1" xmlns="http://www.w3.org/2000/svg" xmlns:xlink="http://www.w3.org/1999/xlink" x="0px" y="0px"
	 viewBox="0 0 24 24" style="enable-background:new 0 0 24 24;" xml:space="preserve">
<style type="text/css">
	.st0{display:none;}
	.st1{display:inline;}
	.st2{fill:none;stroke:#000000;stroke-linecap:round;stroke-linejoin:round;stroke-miterlimit:10;}
</style>
<g id="Filled_Icon" class="st0">
	<g class="st1">
		<path d="M19.5,11.5h0.4c-0.2-0.4-0.5-0.8-0.9-0.9V11c0,0.3-0.2,0.5-0.5,0.5c-0.3,0-0.5-0.2-0.5-0.5v-0.4c-0.4,0.1-0.8,0.5-0.9,0.9
			h0.4c0.3,0,0.5,0.2,0.5,0.5c0,0.3-0.2,0.5-0.5,0.5h-0.4c0.2,0.4,0.5,0.8,0.9,0.9V13c0-0.3,0.2-0.5,0.5-0.5c0.3,0,0.5,0.2,0.5,0.5
			v0.4c0.4-0.2,0.8-0.5,0.9-0.9h-0.4c-0.3,0-0.5-0.2-0.5-0.5C19,11.7,19.2,11.5,19.5,11.5z"/>
		<path d="M6,13v0.4c0.4-0.2,0.8-0.5,0.9-0.9H6.5C6.2,12.5,6,12.3,6,12c0-0.3,0.2-0.5,0.5-0.5h0.4c-0.2-0.4-0.5-0.8-0.9-0.9V11
			c0,0.3-0.2,0.5-0.5,0.5C5.2,11.5,5,11.3,5,11v-0.4c-0.4,0.1-0.8,0.5-0.9,0.9h0.4C4.8,11.5,5,11.7,5,12c0,0.3-0.2,0.5-0.5,0.5H4.1
			c0.2,0.4,0.5,0.8,0.9,0.9V13c0-0.3,0.2-0.5,0.5-0.5C5.8,12.5,6,12.7,6,13z"/>
		<path d="M22,4H2C0.9,4,0,4.9,0,6v12c0,1.1,0.9,2,2,2h20c1.1,0,2-0.9,2-2V6C24,4.9,23.1,4,22,4z M3,12c0-1.4,1.1-2.5,2.5-2.5
			C6.9,9.5,8,10.6,8,12c0,1.4-1.1,2.5-2.5,2.5C4.1,14.5,3,13.4,3,12z M19.5,19L19.5,19h-15c-0.2,0-0.4-0.1-0.5-0.3
			c-0.1-0.2,0-0.4,0.2-0.6l2.5-2C6.8,16,6.9,16,7,16h10c0.1,0,0.2,0,0.3,0.1l2.4,2c0.2,0.1,0.3,0.2,0.3,0.4C20,18.8,19.8,19,19.5,19
			z M9,12.5v-2C9,10.2,9.2,10,9.5,10h5c0.3,0,0.5,0.2,0.5,0.5v2c0,0.3-0.2,0.5-0.5,0.5h-5C9.2,13,9,12.8,9,12.5z M18.5,14.5
			c-1.4,0-2.5-1.1-2.5-2.5c0-1.4,1.1-2.5,2.5-2.5c1.4,0,2.5,1.1,2.5,2.5C21,13.4,19.9,14.5,18.5,14.5z M20.5,7h-17
			C3.2,7,3,6.8,3,6.5C3,6.2,3.2,6,3.5,6h17C20.8,6,21,6.2,21,6.5C21,6.8,20.8,7,20.5,7z"/>
	</g>
</g>
<g id="Outline_Icons">
	<g>
		<path class="st2" d="M23.5,18c0,0.8-0.7,1.5-1.5,1.5H2c-0.8,0-1.5-0.7-1.5-1.5V6c0-0.8,0.7-1.5,1.5-1.5h20c0.8,0,1.5,0.7,1.5,1.5
			V18z"/>
		<polygon class="st2" points="20,19.5 4,19.5 7,16.5 17,16.5 		"/>
		<circle class="st2" cx="5.5" cy="12" r="2"/>
		<rect x="9.5" y="10.5" class="st2" width="5" height="2"/>
		<line class="st2" x1="5.5" y1="11" x2="5.5" y2="10"/>
		<line class="st2" x1="4.5" y1="12" x2="3.5" y2="12"/>
		<line class="st2" x1="5.5" y1="13" x2="5.5" y2="14"/>
		<line class="st2" x1="6.5" y1="12" x2="7.5" y2="12"/>
		<circle class="st2" cx="18.5" cy="12" r="2"/>
		<line class="st2" x1="18.5" y1="11" x2="18.5" y2="10"/>
		<line class="st2" x1="17.5" y1="12" x2="16.5" y2="12"/>
		<line class="st2" x1="18.5" y1="13" x2="18.5" y2="14"/>
		<line class="st2" x1="19.5" y1="12" x2="20.5" y2="12"/>
		<line class="st2" x1="3.5" y1="6.5" x2="20.5" y2="6.5"/>
	</g>
</g>
</svg>
