<?xml version="1.0" encoding="utf-8"?>
<!-- Generator: Adobe Illustrator 19.2.0, SVG Export Plug-In . SVG Version: 6.00 Build 0)  -->
<svg version="1.1" id="Layer_1" xmlns="http://www.w3.org/2000/svg" xmlns:xlink="http://www.w3.org/1999/xlink" x="0px" y="0px"
	 viewBox="0 0 24 24" style="enable-background:new 0 0 24 24;" xml:space="preserve">
<style type="text/css">
	.st0{display:none;}
	.st1{display:inline;}
	.st2{fill:none;stroke:#000000;stroke-linecap:round;stroke-linejoin:round;stroke-miterlimit:10;}
</style>
<g id="Filled_Icon" class="st0">
	<g class="st1">
		<path d="M17.5,8h-9C7.7,8,7,8.7,7,9.5V10H5.5C5.2,10,5,10.2,5,10.5v6C5,16.8,5.2,17,5.5,17H7v5.5C7,23.3,7.7,24,8.5,24h9
			c0.8,0,1.5-0.7,1.5-1.5v-13C19,8.7,18.3,8,17.5,8z M7,16H6v-2h1V16z M7,13H6v-2h1V13z M16.5,22h-7C9.2,22,9,21.8,9,21.5
			C9,21.2,9.2,21,9.5,21h7c0.3,0,0.5,0.2,0.5,0.5C17,21.8,16.8,22,16.5,22z M17,19.5c0,0.3-0.2,0.5-0.5,0.5h-7C9.2,20,9,19.8,9,19.5
			v-9C9,10.2,9.2,10,9.5,10h7c0.3,0,0.5,0.2,0.5,0.5V19.5z"/>
		<circle cx="13.5" cy="13.5" r="0.5"/>
		<circle cx="13.5" cy="16.5" r="0.5"/>
		<path d="M12,0C5.4,0,0,5.4,0,12v3c0,0.3,0.2,0.5,0.5,0.5H1v1C1,17.3,1.7,18,2.5,18C3.3,18,4,17.3,4,16.5v-3C4,12.7,3.3,12,2.5,12
			C1.7,12,1,12.7,1,13.5V12C1,5.9,5.9,1,12,1c6.1,0,11,4.9,11,11v1.5c0-0.8-0.7-1.5-1.5-1.5c-0.8,0-1.5,0.7-1.5,1.5v3
			c0,0.8,0.7,1.5,1.5,1.5c0.8,0,1.5-0.7,1.5-1.5v-1h0.5c0.3,0,0.5-0.2,0.5-0.5v-3C24,5.4,18.6,0,12,0z"/>
	</g>
</g>
<g id="Outline_Icons">
	<g>
		<path class="st2" d="M18.5,22.5c0,0.5-0.5,1-1,1h-9c-0.5,0-1-0.5-1-1v-13c0-0.5,0.5-1,1-1h9c0.5,0,1,0.5,1,1V22.5z"/>
		<rect x="5.5" y="10.5" class="st2" width="2" height="6"/>
		<line class="st2" x1="5.5" y1="13.5" x2="7.5" y2="13.5"/>
		<line class="st2" x1="9.5" y1="21.5" x2="16.5" y2="21.5"/>
		<rect x="9.5" y="10.5" class="st2" width="7" height="9"/>
		<g>
			<g>
				<path d="M13.5,13c-0.3,0-0.5,0.2-0.5,0.5c0,0.3,0.2,0.5,0.5,0.5c0.3,0,0.5-0.2,0.5-0.5C14,13.2,13.8,13,13.5,13L13.5,13z"/>
			</g>
		</g>
		<g>
			<g>
				<path d="M13.5,16c-0.3,0-0.5,0.2-0.5,0.5c0,0.3,0.2,0.5,0.5,0.5c0.3,0,0.5-0.2,0.5-0.5C14,16.2,13.8,16,13.5,16L13.5,16z"/>
			</g>
		</g>
		<path class="st2" d="M3.5,16.5c0,0.5-0.5,1-1,1l0,0c-0.5,0-1-0.5-1-1v-3c0-0.5,0.5-1,1-1l0,0c0.5,0,1,0.5,1,1V16.5z"/>
		<path class="st2" d="M22.5,16.5c0,0.5-0.5,1-1,1l0,0c-0.5,0-1-0.5-1-1v-3c0-0.5,0.5-1,1-1l0,0c0.5,0,1,0.5,1,1V16.5z"/>
		<path class="st2" d="M22.5,15h1v-3c0-6.4-5.1-11.5-11.5-11.5C5.6,0.5,0.5,5.6,0.5,12v3h1"/>
	</g>
</g>
</svg>
