<?xml version="1.0" encoding="utf-8"?>
<!-- Generator: Adobe Illustrator 19.2.0, SVG Export Plug-In . SVG Version: 6.00 Build 0)  -->
<svg version="1.1" id="Layer_1" xmlns="http://www.w3.org/2000/svg" xmlns:xlink="http://www.w3.org/1999/xlink" x="0px" y="0px"
	 viewBox="0 0 24 24" style="enable-background:new 0 0 24 24;" xml:space="preserve">
<style type="text/css">
	.st0{display:none;}
	.st1{display:inline;}
	.st2{fill:none;stroke:#000000;stroke-linecap:round;stroke-linejoin:round;stroke-miterlimit:10;}
	.st3{fill:none;stroke:#000000;stroke-linejoin:round;stroke-miterlimit:10;}
</style>
<g id="Filled_Icon" class="st0">
	<g class="st1">
		<path d="M13.3,9h-2.7c-0.8,2.3-3,4-5.6,4c-0.7,0-1.4-0.1-2-0.3v6.8C3,20.9,4.1,22,5.5,22h13c1.4,0,2.5-1.1,2.5-2.5v-6.8
			c-0.6,0.2-1.3,0.3-2,0.3C16.4,13,14.2,11.3,13.3,9z M14,13c0.8,0,1.5,0.7,1.5,1.5c0,0.8-0.7,1.5-1.5,1.5c-0.8,0-1.5-0.7-1.5-1.5
			C12.5,13.7,13.2,13,14,13z M10,13c0.8,0,1.5,0.7,1.5,1.5c0,0.8-0.7,1.5-1.5,1.5c-0.8,0-1.5-0.7-1.5-1.5C8.5,13.7,9.2,13,10,13z
			 M6,18.5c-0.6,0-1-0.4-1-1c0-0.6,0.4-1,1-1c0.6,0,1,0.4,1,1C7,18.1,6.6,18.5,6,18.5z M16,21c0,0.3-0.2,0.5-0.5,0.5h-7
			C8.2,21.5,8,21.3,8,21v-1.5C8,19.2,8.2,19,8.5,19h7c0.3,0,0.5,0.2,0.5,0.5V21z M18,18.5c-0.6,0-1-0.4-1-1c0-0.6,0.4-1,1-1
			c0.6,0,1,0.4,1,1C19,18.1,18.6,18.5,18,18.5z"/>
		<path d="M10,7c0-2.8-2.2-5-5-5C2.2,2,0,4.2,0,7c0,2.8,2.2,5,5,5C7.8,12,10,9.8,10,7z M5.7,7.4c0.1-0.2,0.4-0.3,0.7-0.2l1.2,0.7
			c0.2,0.1,0.3,0.4,0.2,0.7C7.7,8.8,7.5,8.9,7.3,8.9c-0.1,0-0.2,0-0.2-0.1L5.9,8.1C5.7,8,5.6,7.7,5.7,7.4z M4.1,8.1L2.9,8.8
			c-0.1,0-0.2,0.1-0.2,0.1c-0.2,0-0.3-0.1-0.4-0.2C2.1,8.4,2.2,8.1,2.4,7.9l1.2-0.7c0.2-0.1,0.5-0.1,0.7,0.2C4.4,7.7,4.3,8,4.1,8.1z
			 M4.5,5.6V4.3C4.5,4,4.7,3.8,5,3.8c0.3,0,0.5,0.2,0.5,0.5v1.4c0,0.3-0.2,0.5-0.5,0.5C4.7,6.1,4.5,5.9,4.5,5.6z"/>
		<path d="M19,2c-2.8,0-5,2.2-5,5c0,2.8,2.2,5,5,5c2.8,0,5-2.2,5-5C24,4.2,21.8,2,19,2z M18.1,8.1l-1.2,0.7c-0.1,0-0.2,0.1-0.2,0.1
			c-0.2,0-0.3-0.1-0.4-0.2c-0.1-0.2-0.1-0.5,0.2-0.7l1.2-0.7c0.2-0.1,0.5-0.1,0.7,0.2C18.4,7.7,18.3,8,18.1,8.1z M19.5,5.6
			c0,0.3-0.2,0.5-0.5,0.5c-0.3,0-0.5-0.2-0.5-0.5V4.3c0-0.3,0.2-0.5,0.5-0.5c0.3,0,0.5,0.2,0.5,0.5V5.6z M21.8,8.6
			c-0.1,0.2-0.3,0.2-0.4,0.2c-0.1,0-0.2,0-0.2-0.1l-1.2-0.7c-0.2-0.1-0.3-0.4-0.2-0.7c0.1-0.2,0.4-0.3,0.7-0.2l1.2,0.7
			C21.8,8.1,21.9,8.4,21.8,8.6z"/>
	</g>
</g>
<g id="Outline_Icons">
	<g>
		<circle class="st2" cx="5.5" cy="7.5" r="5"/>
		<circle class="st2" cx="18.5" cy="7.5" r="5"/>
		<rect x="8.5" y="19.5" class="st2" width="7" height="2"/>
		<circle class="st2" cx="6" cy="17.5" r="0.5"/>
		<circle class="st2" cx="18" cy="17.5" r="0.5"/>
		<circle class="st2" cx="14" cy="14.5" r="1"/>
		<circle class="st2" cx="10" cy="14.5" r="1"/>
		<path class="st3" d="M20.5,12.1v7.4c0,1.1-0.9,2-2,2h-13c-1.1,0-2-0.9-2-2v-7.4"/>
		<line class="st3" x1="10.1" y1="9.5" x2="13.9" y2="9.5"/>
		<line class="st2" x1="5.5" y1="6" x2="5.5" y2="4.5"/>
		<line class="st2" x1="18.5" y1="6" x2="18.5" y2="4.5"/>
		<line class="st2" x1="17.2" y1="8.2" x2="15.9" y2="9"/>
		<line class="st2" x1="19.8" y1="8.2" x2="21.1" y2="9"/>
		<line class="st2" x1="4.2" y1="8.2" x2="2.9" y2="9"/>
		<line class="st2" x1="6.8" y1="8.2" x2="8.1" y2="9"/>
	</g>
</g>
</svg>
