<?xml version="1.0" encoding="utf-8"?>
<!-- Generator: Adobe Illustrator 19.2.0, SVG Export Plug-In . SVG Version: 6.00 Build 0)  -->
<svg version="1.1" id="Layer_1" xmlns="http://www.w3.org/2000/svg" xmlns:xlink="http://www.w3.org/1999/xlink" x="0px" y="0px"
	 viewBox="0 0 24 24" style="enable-background:new 0 0 24 24;" xml:space="preserve">
<style type="text/css">
	.st0{display:none;}
	.st1{display:inline;}
	.st2{fill:none;stroke:#000000;stroke-linecap:round;stroke-linejoin:round;stroke-miterlimit:10;}
	.st3{fill:none;stroke:#000000;stroke-linejoin:round;stroke-miterlimit:10;}
</style>
<g id="Filled_Icons" class="st0">
	<g class="st1">
		<path d="M4,15v-1.5C4,13.2,3.8,13,3.5,13h-3C0.2,13,0,13.2,0,13.5v10C0,23.8,0.2,24,0.5,24h2.4l1.3-9H4z"/>
		<path d="M23.5,13h-3c-0.3,0-0.5,0.2-0.5,0.5V15h-0.2l1.3,9h2.4c0.3,0,0.5-0.2,0.5-0.5v-10C24,13.2,23.8,13,23.5,13z"/>
		<path d="M19,10c1.1,0,2-0.9,2-2V4.5C21,4.2,20.8,4,20.5,4h-2C18.2,4,18,4.2,18,4.5V5c0,0.6-0.4,1-1,1c-0.6,0-1-0.4-1-1V4.5
			C16,4.2,15.8,4,15.5,4h-2C13.2,4,13,4.2,13,4.5V5c0,0.4-0.2,0.7-0.5,0.9V2c0.1,0,2-0.5,2.1-0.5C14.8,1.4,15,1.2,15,1
			c0-0.2-0.2-0.4-0.4-0.5c-0.1,0-2-0.5-2.1-0.5H12c-0.3,0-0.5,0.2-0.5,0.5v1v4.4C11.2,5.7,11,5.4,11,5V4.5C11,4.2,10.8,4,10.5,4h-2
			C8.2,4,8,4.2,8,4.5V5c0,0.6-0.4,1-1,1C6.4,6,6,5.6,6,5V4.5C6,4.2,5.8,4,5.5,4h-2C3.2,4,3,4.2,3,4.5V8c0,1.1,0.9,2,2,2h0.9l-2,14
			h0.6h6c0.3,0,0.5-0.2,0.5-0.5v-4c0-0.6,0.4-1,1-1c0.6,0,1,0.4,1,1v4c0,0.3,0.2,0.5,0.5,0.5h6h0.6l-2-14H19z M13,14h-0.5v0.5
			c0,0.3-0.2,0.5-0.5,0.5c-0.3,0-0.5-0.2-0.5-0.5V14H11c-0.3,0-0.5-0.2-0.5-0.5c0-0.3,0.2-0.5,0.5-0.5h0.5v-0.5
			c0-0.3,0.2-0.5,0.5-0.5c0.3,0,0.5,0.2,0.5,0.5V13H13c0.3,0,0.5,0.2,0.5,0.5C13.5,13.8,13.3,14,13,14z"/>
	</g>
</g>
<g id="Outline_Icons">
	<g>
		<path class="st2" d="M19.5,23.5l-2-14h-11l-2,14h6v-4c0-0.8,0.7-1.5,1.5-1.5c0.8,0,1.5,0.7,1.5,1.5v4H19.5z"/>
		<line class="st2" x1="10.5" y1="13.5" x2="12.5" y2="13.5"/>
		<line class="st2" x1="11.5" y1="12.5" x2="11.5" y2="14.5"/>
		<line class="st2" x1="11.5" y1="0.5" x2="11.5" y2="6.5"/>
		<polygon class="st2" points="12,1.5 11.5,1.5 11.5,0.5 12,0.5 14,1 		"/>
		<polyline class="st3" points="19.5,23.5 23.5,23.5 23.5,13.5 20.5,13.5 20.5,15.5 18.4,15.5 		"/>
		<polyline class="st3" points="5.6,15.5 3.5,15.5 3.5,13.5 0.5,13.5 0.5,23.5 4.5,23.5 		"/>
		<path class="st2" d="M10,5V4.5H8V5c0,0.8-0.6,1.5-1.3,1.5C6,6.5,5.5,5.8,5.5,5V4.5h-2V8c0,0.8,0.7,1.5,1.5,1.5h14
			c0.8,0,1.5-0.7,1.5-1.5V4.5h-2V5c0,0.8-0.7,1.5-1.5,1.5c-0.8,0-1.5-0.7-1.5-1.5V4.5h-2V5c0,0.8-0.8,1.5-1.8,1.5
			C10.8,6.5,10,5.8,10,5z"/>
	</g>
</g>
</svg>
