<?xml version="1.0" encoding="utf-8"?>
<!-- Generator: Adobe Illustrator 19.2.0, SVG Export Plug-In . SVG Version: 6.00 Build 0)  -->
<svg version="1.1" id="Layer_1" xmlns="http://www.w3.org/2000/svg" xmlns:xlink="http://www.w3.org/1999/xlink" x="0px" y="0px"
	 viewBox="0 0 24 24" enable-background="new 0 0 24 24" xml:space="preserve">
<g id="Filled_Icons" display="none">
	<g display="inline">
		<path d="M4.5,3.006h9c0.275,0,0.5-0.224,0.5-0.5v-1.5c0-0.276-0.225-0.5-0.5-0.5h-9c-0.276,0-0.5,0.224-0.5,0.5v1.5
			C4,2.782,4.224,3.006,4.5,3.006z"/>
		<rect x="6" y="8.006" width="6" height="1"/>
		<path d="M21.5,11.006H12v-1H6v1H1.5c-0.276,0-0.5,0.224-0.5,0.5v1.5c0,0.275,0.224,0.5,0.5,0.5h20c0.275,0,0.5-0.225,0.5-0.5v-1.5
			C22,11.229,21.775,11.006,21.5,11.006z"/>
		<rect x="6" y="4.006" width="6" height="1"/>
		<rect x="6" y="6.006" width="6" height="1"/>
		<rect x="3" y="18.506" width="6" height="1"/>
		<rect x="3" y="16.506" width="6" height="1"/>
		<rect x="14" y="18.506" width="6" height="1"/>
		<rect x="3" y="14.506" width="6" height="1"/>
		<path d="M21.5,21.506H20v-1h-6v1H9v-1H3v1H1.5c-0.276,0-0.5,0.225-0.5,0.5v1.5c0,0.275,0.224,0.5,0.5,0.5h20
			c0.275,0,0.5-0.225,0.5-0.5v-1.5C22,21.729,21.775,21.506,21.5,21.506z"/>
		<rect x="14" y="16.506" width="6" height="1"/>
		<rect x="14" y="14.506" width="6" height="1"/>
		<path d="M13,8.178c0.92-1.668,2.669-3.684,6-4.961v1.881c-0.581,0.207-1,0.757-1,1.408c0,0.827,0.673,1.5,1.5,1.5
			c0.827,0,1.5-0.673,1.5-1.5c0-0.651-0.419-1.201-1-1.408V2.507c0-0.161-0.077-0.312-0.208-0.405
			c-0.131-0.095-0.299-0.12-0.451-0.069c-3.163,1.055-5.118,2.7-6.341,4.295V8.178z"/>
	</g>
</g>
<g id="Outline_Icons">
	<g>
		<rect x="3.5" y="13.5" fill="none" stroke="#000000" stroke-linejoin="round" stroke-miterlimit="10" width="5" height="8"/>
		<rect x="6.5" y="3.5" fill="none" stroke="#000000" stroke-linejoin="round" stroke-miterlimit="10" width="5" height="8"/>
		<rect x="14.5" y="13.5" fill="none" stroke="#000000" stroke-linejoin="round" stroke-miterlimit="10" width="5" height="8"/>
		<rect x="1.5" y="21.5" fill="none" stroke="#000000" stroke-linejoin="round" stroke-miterlimit="10" width="20" height="2"/>
		<rect x="1.5" y="11.5" fill="none" stroke="#000000" stroke-linejoin="round" stroke-miterlimit="10" width="20" height="2"/>
		<line fill="none" stroke="#000000" stroke-linejoin="round" stroke-miterlimit="10" x1="3.5" y1="15.5" x2="8.5" y2="15.5"/>
		<line fill="none" stroke="#000000" stroke-linejoin="round" stroke-miterlimit="10" x1="3.5" y1="17.5" x2="8.5" y2="17.5"/>
		<line fill="none" stroke="#000000" stroke-linejoin="round" stroke-miterlimit="10" x1="3.5" y1="19.5" x2="8.5" y2="19.5"/>
		<line fill="none" stroke="#000000" stroke-linejoin="round" stroke-miterlimit="10" x1="14.5" y1="15.5" x2="19.5" y2="15.5"/>
		<line fill="none" stroke="#000000" stroke-linejoin="round" stroke-miterlimit="10" x1="14.5" y1="17.5" x2="19.5" y2="17.5"/>
		<line fill="none" stroke="#000000" stroke-linejoin="round" stroke-miterlimit="10" x1="14.5" y1="19.5" x2="19.5" y2="19.5"/>
		<rect x="4.5" y="1.5" fill="none" stroke="#000000" stroke-linejoin="round" stroke-miterlimit="10" width="9" height="2"/>
		<line fill="none" stroke="#000000" stroke-linejoin="round" stroke-miterlimit="10" x1="6.5" y1="5.5" x2="11.5" y2="5.5"/>
		<line fill="none" stroke="#000000" stroke-linejoin="round" stroke-miterlimit="10" x1="6.5" y1="7.5" x2="11.5" y2="7.5"/>
		<line fill="none" stroke="#000000" stroke-linejoin="round" stroke-miterlimit="10" x1="6.5" y1="9.5" x2="11.5" y2="9.5"/>
		<path fill="none" stroke="#000000" stroke-linejoin="round" stroke-miterlimit="10" d="M11.5,11.001c0,0,0.5-6,8-8.5
			c0,1.5,0,3.5,0,3.5"/>
		<circle fill="none" stroke="#000000" stroke-linejoin="round" stroke-miterlimit="10" cx="19.5" cy="7" r="1"/>
	</g>
</g>
</svg>
