<?xml version="1.0" encoding="utf-8"?>
<!-- Generator: Adobe Illustrator 19.2.0, SVG Export Plug-In . SVG Version: 6.00 Build 0)  -->
<svg version="1.1" id="Layer_1" xmlns="http://www.w3.org/2000/svg" xmlns:xlink="http://www.w3.org/1999/xlink" x="0px" y="0px"
	 viewBox="0 0 24 24" enable-background="new 0 0 24 24" xml:space="preserve">
<g id="Filled_Icons" display="none">
	<g display="inline">
		<path d="M9.501,14.006c-0.276,0-0.5,0.223-0.5,0.5v3c0,1.378-1.122,2.5-2.5,2.5h-5.5v-1.5c0-0.277-0.225-0.5-0.5-0.5
			c-0.276,0-0.5,0.223-0.5,0.5v4c0,0.275,0.224,0.5,0.5,0.5c0.275,0,0.5-0.225,0.5-0.5v-1.5h5.5c1.93,0,3.5-1.568,3.5-3.5v-3
			C10.001,14.229,9.776,14.006,9.501,14.006z"/>
		<path d="M23.501,1.006h-19c-2.313,0-4.221,1.754-4.471,4h4.471c0.275,0,0.5,0.223,0.5,0.5c0,0.275-0.225,0.5-0.5,0.5h-4.5v2h5.5
			c0.275,0,0.5,0.223,0.5,0.5c0,0.275-0.225,0.5-0.5,0.5H0.03c0.25,2.246,2.158,4,4.471,4h13.5c0.995,0,2-0.772,2-2.5h1.5
			c0.274,0,0.5-0.225,0.5-0.5V5.535l1.765-1.104c0.146-0.093,0.235-0.253,0.235-0.424v-2.5C24.001,1.229,23.775,1.006,23.501,1.006z
			 M10.001,10.506c-1.104,0-2-0.898-2-2c0-1.104,0.896-2,2-2c1.103,0,2,0.896,2,2C12.001,9.608,11.104,10.506,10.001,10.506z
			 M21.001,9.506h-1V6.783l1-0.625V9.506z"/>
		<circle cx="10.001" cy="8.506" r="1"/>
	</g>
</g>
<g id="Outline_Icons">
	<g>
		<path fill="none" stroke="#000000" stroke-linecap="round" stroke-linejoin="round" stroke-miterlimit="10" d="M0.5,20.5h6
			c1.656,0,3-1.344,3-3v-3"/>
		
			<line fill="none" stroke="#000000" stroke-linecap="round" stroke-linejoin="round" stroke-miterlimit="10" x1="0.5" y1="18.5" x2="0.5" y2="22.5"/>
		<polyline fill="none" stroke="#000000" stroke-linecap="round" stroke-linejoin="round" stroke-miterlimit="10" points="
			21.5,5.266 21.5,10 19.5,10 		"/>
		<path fill="none" stroke="#000000" stroke-linecap="round" stroke-linejoin="round" stroke-miterlimit="10" d="M18.5,1.5h-14
			c-2.209,0-4,1.791-4,4v3c0,2.209,1.791,4,4,4H18c0.828,0,1.5-0.672,1.5-2v-4l4-2.5V1.5H18.5z"/>
		
			<circle fill="none" stroke="#000000" stroke-linecap="round" stroke-linejoin="round" stroke-miterlimit="10" cx="10" cy="8.5" r="1.5"/>
		
			<line fill="none" stroke="#000000" stroke-linecap="round" stroke-linejoin="round" stroke-miterlimit="10" x1="0.5" y1="8.5" x2="5.5" y2="8.5"/>
		
			<line fill="none" stroke="#000000" stroke-linecap="round" stroke-linejoin="round" stroke-miterlimit="10" x1="0.5" y1="5.5" x2="4.5" y2="5.5"/>
	</g>
</g>
</svg>
