<?xml version="1.0" encoding="utf-8"?>
<!-- Generator: Adobe Illustrator 19.2.0, SVG Export Plug-In . SVG Version: 6.00 Build 0)  -->
<svg version="1.1" id="Layer_1" xmlns="http://www.w3.org/2000/svg" xmlns:xlink="http://www.w3.org/1999/xlink" x="0px" y="0px"
	 viewBox="0 0 24 24" enable-background="new 0 0 24 24" xml:space="preserve">
<g id="Filled_Icons" display="none">
	<g display="inline">
		<path d="M17.001,10.506c0,0.275-0.226,0.5-0.5,0.5H5.514c0.457,0.604,1.174,1,1.987,1h12c0.274,0,0.5-0.225,0.5-0.5V7.78l-3,0.856
			V10.506z"/>
		<path d="M21.501,7.506c-0.276,0-0.5,0.223-0.5,0.5v2c0,0.275,0.224,0.5,0.5,0.5c0.274,0,0.5-0.225,0.5-0.5v-2
			C22.001,7.729,21.775,7.506,21.501,7.506z"/>
		<path d="M12.501,13.006h-4c-0.276,0-0.5,0.223-0.5,0.5c0,0.275,0.224,0.5,0.5,0.5h1.5v4.09l-9,1.801v-1.391
			c0-0.277-0.225-0.5-0.5-0.5c-0.276,0-0.5,0.223-0.5,0.5v4c0,0.275,0.224,0.5,0.5,0.5c0.275,0,0.5-0.225,0.5-0.5v-1.589l9.598-1.92
			c0.233-0.046,0.402-0.252,0.402-0.491v-4.5h1.5c0.274,0,0.5-0.225,0.5-0.5C13.001,13.229,12.775,13.006,12.501,13.006z"/>
		<path d="M23.906,2.214c-0.094-0.13-0.245-0.208-0.405-0.208h-16.5c-1.654,0-3,1.347-3,3v4.5c0,0.275,0.224,0.5,0.5,0.5h11h0.5
			v-0.5V8.261c0-0.224,0.147-0.42,0.362-0.48l6.273-1.794c0.159-0.044,0.285-0.166,0.338-0.321l1-3.002
			C24.025,2.511,24,2.344,23.906,2.214z"/>
	</g>
</g>
<g id="Outline_Icons">
	<g>
		<path fill="none" stroke="#000000" stroke-linecap="round" stroke-linejoin="round" stroke-miterlimit="10" d="M15.5,9.5h-11V5
			c0-1.381,1.118-2.5,2.5-2.5h16.5l-1,3l-7,2V9.5z"/>
		<path fill="none" stroke="#000000" stroke-linecap="round" stroke-linejoin="round" stroke-miterlimit="10" d="M19.5,6.359V11.5
			h-12c-1.105,0-2-0.824-2-1.928"/>
		
			<line fill="none" stroke="#000000" stroke-linecap="round" stroke-linejoin="round" stroke-miterlimit="10" x1="21.5" y1="8" x2="21.5" y2="10"/>
		
			<line fill="none" stroke="#000000" stroke-linecap="round" stroke-linejoin="round" stroke-miterlimit="10" x1="8.5" y1="13.5" x2="12.5" y2="13.5"/>
		<polyline fill="none" stroke="#000000" stroke-linecap="round" stroke-linejoin="round" stroke-miterlimit="10" points="
			10.5,13.5 10.5,18.5 0.5,20.5 		"/>
		
			<line fill="none" stroke="#000000" stroke-linecap="round" stroke-linejoin="round" stroke-miterlimit="10" x1="0.5" y1="18.5" x2="0.5" y2="22.5"/>
	</g>
</g>
</svg>
