<?xml version="1.0" encoding="utf-8"?>
<!-- Generator: Adobe Illustrator 19.2.0, SVG Export Plug-In . SVG Version: 6.00 Build 0)  -->
<svg version="1.1" id="Layer_1" xmlns="http://www.w3.org/2000/svg" xmlns:xlink="http://www.w3.org/1999/xlink" x="0px" y="0px"
	 viewBox="0 0 24 24" style="enable-background:new 0 0 24 24;" xml:space="preserve">
<style type="text/css">
	.st0{display:none;}
	.st1{display:inline;}
	.st2{fill:none;stroke:#000000;stroke-linecap:round;stroke-linejoin:round;stroke-miterlimit:10;}
</style>
<g id="Filled_Icon" class="st0">
	<g class="st1">
		<path d="M0,1.5v20C0,21.8,0.2,22,0.5,22H3V1H0.5C0.2,1,0,1.2,0,1.5z"/>
		<path d="M23.5,1H4v21h19.5c0.3,0,0.5-0.2,0.5-0.5v-20C24,1.2,23.8,1,23.5,1z M13.5,20C8.8,20,5,16.2,5,11.5C5,6.8,8.8,3,13.5,3
			c4.7,0,8.5,3.8,8.5,8.5C22,16.2,18.2,20,13.5,20z"/>
		<path d="M13.5,4C9.4,4,6,7.4,6,11.5c0,4.1,3.4,7.5,7.5,7.5c4.1,0,7.5-3.4,7.5-7.5C21,7.4,17.6,4,13.5,4z M13.5,14
			c-1.4,0-2.5-1.1-2.5-2.5c0-1.4,1.1-2.5,2.5-2.5c1.4,0,2.5,1.1,2.5,2.5C16,12.9,14.9,14,13.5,14z"/>
		<circle cx="13.5" cy="11.5" r="0.5"/>
	</g>
</g>
<g id="Outline_Icons">
	<g>
		<rect x="0.5" y="1.5" class="st2" width="23" height="20"/>
		<circle class="st2" cx="13.5" cy="11.5" r="8"/>
		<line class="st2" x1="3.5" y1="1.5" x2="3.5" y2="21.5"/>
		<circle class="st2" cx="13.5" cy="11.5" r="2"/>
		<g>
			<g>
				<path d="M13.5,11c-0.3,0-0.5,0.2-0.5,0.5c0,0.3,0.2,0.5,0.5,0.5c0.3,0,0.5-0.2,0.5-0.5C14,11.2,13.8,11,13.5,11L13.5,11z"/>
			</g>
		</g>
	</g>
</g>
</svg>
