<?xml version="1.0" encoding="utf-8"?>
<!-- Generator: Adobe Illustrator 19.2.0, SVG Export Plug-In . SVG Version: 6.00 Build 0)  -->
<svg version="1.1" id="Layer_1" xmlns="http://www.w3.org/2000/svg" xmlns:xlink="http://www.w3.org/1999/xlink" x="0px" y="0px"
	 viewBox="0 0 24 24" style="enable-background:new 0 0 24 24;" xml:space="preserve">
<style type="text/css">
	.st0{display:none;}
	.st1{display:inline;}
	.st2{fill:none;stroke:#000000;stroke-linecap:round;stroke-linejoin:round;stroke-miterlimit:10;}
</style>
<g id="Filled_Icon" class="st0">
	<g class="st1">
		<path d="M12,10c-1.1,0-2,0.9-2,2c0,1.1,0.9,2,2,2c1.1,0,2-0.9,2-2C14,10.9,13.1,10,12,10z M12,12.5c-0.3,0-0.5-0.2-0.5-0.5
			c0-0.3,0.2-0.5,0.5-0.5c0.3,0,0.5,0.2,0.5,0.5C12.5,12.3,12.3,12.5,12,12.5z"/>
		<path d="M12,0C5.4,0,0,5.4,0,12c0,6.6,5.4,12,12,12c6.6,0,12-5.4,12-12C24,5.4,18.6,0,12,0z M10.2,21.3c-3.9-0.7-7-3.9-7.6-7.8
			l1-0.2c0.6,3.5,3.3,6.3,6.8,7L10.2,21.3z M10.6,19.4c-3.1-0.6-5.5-3.1-6-6.2l1-0.2c0.4,2.7,2.5,4.8,5.2,5.4L10.6,19.4z M11,17.4
			c-2.3-0.4-4-2.3-4.4-4.5l1-0.2c0.3,1.9,1.7,3.4,3.6,3.7L11,17.4z M12,15c-1.7,0-3-1.3-3-3c0-1.7,1.3-3,3-3c1.7,0,3,1.3,3,3
			C15,13.7,13.7,15,12,15z M16.4,11.3c-0.3-1.9-1.7-3.4-3.6-3.7l0.2-1c2.3,0.4,4,2.3,4.4,4.5L16.4,11.3z M18.4,11
			c-0.4-2.7-2.5-4.8-5.2-5.4l0.2-1c3.1,0.6,5.5,3.1,6,6.2L18.4,11z M20.4,10.7c-0.6-3.5-3.3-6.3-6.8-7l0.2-1c3.9,0.7,7,3.9,7.6,7.8
			L20.4,10.7z"/>
	</g>
</g>
<g id="Outline_Icons">
	<g>
		<circle class="st2" cx="12" cy="12" r="11.5"/>
		<circle class="st2" cx="12" cy="12" r="2.5"/>
		<g>
			<g>
				<path d="M12,11.5c-0.3,0-0.5,0.2-0.5,0.5c0,0.3,0.2,0.5,0.5,0.5c0.3,0,0.5-0.2,0.5-0.5C12.5,11.7,12.3,11.5,12,11.5L12,11.5z"/>
			</g>
		</g>
		<path class="st2" d="M20.9,10.6c-0.6-3.7-3.5-6.7-7.2-7.4"/>
		<path class="st2" d="M18.9,10.9c-0.5-2.9-2.7-5.2-5.6-5.8"/>
		<path class="st2" d="M16.9,11.2c-0.3-2.1-1.9-3.7-4-4.1"/>
		<path class="st2" d="M3.1,13.4c0.6,3.7,3.5,6.7,7.2,7.4"/>
		<path class="st2" d="M5.1,13.1c0.5,2.9,2.7,5.2,5.6,5.8"/>
		<path class="st2" d="M7.1,12.8c0.3,2.1,1.9,3.7,4,4.1"/>
	</g>
</g>
</svg>
