<?xml version="1.0" encoding="utf-8"?>
<!-- Generator: Adobe Illustrator 19.2.0, SVG Export Plug-In . SVG Version: 6.00 Build 0)  -->
<svg version="1.1" id="Layer_1" xmlns="http://www.w3.org/2000/svg" xmlns:xlink="http://www.w3.org/1999/xlink" x="0px" y="0px"
	 viewBox="0 0 24 24" style="enable-background:new 0 0 24 24;" xml:space="preserve">
<style type="text/css">
	.st0{display:none;}
	.st1{display:inline;}
	.st2{fill:none;stroke:#000000;stroke-linecap:round;stroke-linejoin:round;stroke-miterlimit:10;}
</style>
<g id="Filled_Icon" class="st0">
	<g class="st1">
		<circle cx="17.5" cy="8.5" r="1"/>
		<path d="M12,0C5.4,0,0,5.4,0,12c0,6.6,5.4,12,12,12c6.6,0,12-5.4,12-12C24,5.4,18.6,0,12,0z M14.6,18.6c-1.1,0.6-2.3,0.9-3.6,0.9
			c-4.1,0-7.5-3.4-7.5-7.5c0-4.1,3.4-7.5,7.5-7.5c1.2,0,2.4,0.3,3.5,0.8c0.5,0.3,0.7,0.9,0.4,1.3c-0.3,0.5-0.9,0.7-1.3,0.4
			c-0.8-0.4-1.6-0.6-2.5-0.6C8,6.5,5.5,9,5.5,12c0,3,2.5,5.5,5.5,5.5c0.9,0,1.8-0.2,2.6-0.7c0.5-0.3,1.1-0.1,1.4,0.4
			C15.2,17.7,15.1,18.3,14.6,18.6z M17.5,10.5c-1.1,0-2-0.9-2-2c0-1.1,0.9-2,2-2c1.1,0,2,0.9,2,2C19.5,9.6,18.6,10.5,17.5,10.5z"/>
	</g>
</g>
<g id="Outline_Icons">
	<g>
		<circle class="st2" cx="12" cy="12" r="11.5"/>
		<path class="st2" d="M14.1,17.7c-0.9,0.5-2,0.8-3.1,0.8c-3.6,0-6.5-2.9-6.5-6.5c0-3.6,2.9-6.5,6.5-6.5c1.1,0,2.1,0.3,3,0.7"/>
		<circle class="st2" cx="17.5" cy="8.5" r="1.5"/>
	</g>
</g>
</svg>
