<?xml version="1.0" encoding="utf-8"?>
<!-- Generator: Adobe Illustrator 19.2.0, SVG Export Plug-In . SVG Version: 6.00 Build 0)  -->
<svg version="1.1" id="Layer_1" xmlns="http://www.w3.org/2000/svg" xmlns:xlink="http://www.w3.org/1999/xlink" x="0px" y="0px"
	 viewBox="0 0 24 24" enable-background="new 0 0 24 24" xml:space="preserve">
<g id="Filled_Icons" display="none">
	<g display="inline">
		<polygon points="14.798,1.006 3.203,1.006 0.475,6.007 17.505,6.006 		"/>
		<path d="M24,8.006V6.324l-2.766-3.318H18v14H9.5c3.816,0,7.053-2.529,8.123-6H0.376c1.07,3.471,4.306,6,8.124,6H0v4h0.185
			c0.414-1.16,1.513-2,2.815-2c1.302,0,2.401,0.84,2.815,2h12.369c0.414-1.16,1.514-2,2.815-2c1.302,0,2.401,0.84,2.815,2H24v-8h-3
			v-1h3v-1h-3v-1h3v-1h-3v-1H24z"/>
		<circle cx="21" cy="22.006" r="2"/>
		<circle cx="3" cy="22.006" r="2"/>
	</g>
</g>
<g id="Outline_Icons">
	<g>
		
			<circle fill="none" stroke="#000000" stroke-linecap="round" stroke-linejoin="round" stroke-miterlimit="10" cx="21" cy="22" r="1.5"/>
		
			<circle fill="none" stroke="#000000" stroke-linecap="round" stroke-linejoin="round" stroke-miterlimit="10" cx="3" cy="22" r="1.5"/>
		<polygon fill="none" stroke="#000000" stroke-linejoin="round" stroke-miterlimit="10" points="21,3.5 18.5,3.5 18.5,17.5 
			0.5,17.5 0.5,20.5 23.5,20.5 23.5,6.499 		"/>
		<path fill="none" stroke="#000000" stroke-linejoin="round" stroke-miterlimit="10" d="M17.5,8.5c0,4.418-3.582,8-8,8h-1
			c-4.418,0-8-3.582-8-8V7l3-5.5h11l3,5.542V8.5z"/>
		<line fill="none" stroke="#000000" stroke-linejoin="round" stroke-miterlimit="10" x1="1" y1="6" x2="1" y2="6"/>
		<line fill="none" stroke="#000000" stroke-linejoin="round" stroke-miterlimit="10" x1="0.773" y1="6.5" x2="17.247" y2="6.5"/>
		<line fill="none" stroke="#000000" stroke-linejoin="round" stroke-miterlimit="10" x1="0.753" y1="10.5" x2="17.247" y2="10.5"/>
		<line fill="none" stroke="#000000" stroke-linejoin="round" stroke-miterlimit="10" x1="23.5" y1="8.5" x2="21" y2="8.5"/>
		<line fill="none" stroke="#000000" stroke-linejoin="round" stroke-miterlimit="10" x1="23.5" y1="10.5" x2="21" y2="10.5"/>
		<line fill="none" stroke="#000000" stroke-linejoin="round" stroke-miterlimit="10" x1="23.5" y1="12.499" x2="21" y2="12.499"/>
	</g>
</g>
</svg>
