<?xml version="1.0" encoding="utf-8"?>
<!-- Generator: Adobe Illustrator 19.2.0, SVG Export Plug-In . SVG Version: 6.00 Build 0)  -->
<svg version="1.1" id="Layer_1" xmlns="http://www.w3.org/2000/svg" xmlns:xlink="http://www.w3.org/1999/xlink" x="0px" y="0px"
	 viewBox="0 0 24 24" style="enable-background:new 0 0 24 24;" xml:space="preserve">
<style type="text/css">
	.st0{display:none;}
	.st1{display:inline;}
	.st2{fill:none;stroke:#000000;stroke-linecap:round;stroke-linejoin:round;stroke-miterlimit:10;}
</style>
<g id="Filled_Icons" class="st0">
	<g class="st1">
		<path d="M15.5,10h5c0.6,0,1-0.4,1-1c0-0.6-0.4-1-1-1h-2.7l6-6.3c0.4-0.4,0.4-1,0-1.4c-0.4-0.4-1-0.4-1.4,0l-5.8,6.1V4
			c0-0.6-0.4-1-1-1c-0.6,0-1,0.4-1,1v5C14.5,9.6,14.9,10,15.5,10z"/>
		<path d="M8.5,3c-0.6,0-1,0.4-1,1v2.4L1.7,0.3c-0.4-0.4-1-0.4-1.4,0c-0.4,0.4-0.4,1,0,1.4l6,6.3H3.5c-0.6,0-1,0.4-1,1
			c0,0.6,0.4,1,1,1h5c0.6,0,1-0.4,1-1v0c0,0,0-0.1,0-0.1V4C9.5,3.4,9.1,3,8.5,3z"/>
		<path d="M17.8,16h2.7c0.6,0,1-0.4,1-1c0-0.6-0.4-1-1-1h-5c-0.6,0-1,0.4-1,1v5c0,0.6,0.4,1,1,1c0.6,0,1-0.4,1-1v-2.4l5.8,6.1
			c0.2,0.2,0.5,0.3,0.7,0.3c0.2,0,0.5-0.1,0.7-0.3c0.4-0.4,0.4-1,0-1.4L17.8,16z"/>
		<path d="M8.5,14h-5c-0.6,0-1,0.4-1,1c0,0.6,0.4,1,1,1h2.8l-6,6.3c-0.4,0.4-0.4,1,0,1.4C0.5,23.9,0.8,24,1,24
			c0.3,0,0.5-0.1,0.7-0.3l5.8-6.1V20c0,0.6,0.4,1,1,1c0.6,0,1-0.4,1-1v-4.8c0,0,0-0.1,0-0.1v0C9.5,14.4,9.1,14,8.5,14z"/>
		<circle cx="12" cy="12" r="2"/>
	</g>
</g>
<g id="Outline_Icons">
	<g>
		<line class="st2" x1="15.5" y1="8.5" x2="23.5" y2="0.5"/>
		<line class="st2" x1="0.5" y1="23.5" x2="8.5" y2="15.5"/>
		<polyline class="st2" points="20.5,8.5 15.5,8.5 15.5,3.5 		"/>
		<polyline class="st2" points="8.5,20.5 8.5,15.5 3.5,15.5 		"/>
		<line class="st2" x1="15.5" y1="15.5" x2="23.5" y2="23.5"/>
		<line class="st2" x1="0.5" y1="0.5" x2="8.5" y2="8.5"/>
		<polyline class="st2" points="15.5,20.5 15.5,15.5 20.5,15.5 		"/>
		<polyline class="st2" points="3.5,8.5 8.5,8.5 8.5,3.5 		"/>
		<circle class="st2" cx="12" cy="12" r="2"/>
	</g>
</g>
</svg>
