<?xml version="1.0" encoding="utf-8"?>
<!-- Generator: Adobe Illustrator 19.2.0, SVG Export Plug-In . SVG Version: 6.00 Build 0)  -->
<svg version="1.1" id="Layer_1" xmlns="http://www.w3.org/2000/svg" xmlns:xlink="http://www.w3.org/1999/xlink" x="0px" y="0px"
	 viewBox="0 0 24 24" style="enable-background:new 0 0 24 24;" xml:space="preserve">
<style type="text/css">
	.st0{display:none;}
	.st1{display:inline;}
	.st2{fill:none;stroke:#000000;stroke-linecap:round;stroke-linejoin:round;stroke-miterlimit:10;}
	.st3{fill:none;stroke:#000000;stroke-linejoin:round;stroke-miterlimit:10;}
</style>
<g id="Filled_Icons" class="st0">
	<g class="st1">
		<path d="M20.9,18.2c-0.6,0.8-1.5,1.3-2.4,1.3c-1,0-1.9-0.5-2.4-1.3c-0.4,0-0.7-0.2-1.1-0.3v5.6c0,0.2,0.1,0.4,0.3,0.5
			c0.2,0.1,0.4,0.1,0.5-0.1l2.7-2.2l2.7,2.2c0.1,0.1,0.2,0.1,0.3,0.1c0.1,0,0.1,0,0.2,0c0.2-0.1,0.3-0.3,0.3-0.5v-5.6
			C21.7,18.1,21.3,18.2,20.9,18.2z"/>
		<g>
			<path d="M13.3,17c-0.4-0.6-0.5-1.3-0.4-2H5.5c-0.1,0-0.3-0.1-0.4-0.1C5.1,14.8,5,14.6,5,14.5C5,13.1,3.9,12,2.5,12
				C2.2,12,2,11.8,2,11.5v-6C2,5.2,2.2,5,2.5,5C3.9,5,5,3.9,5,2.5C5,2.2,5.2,2,5.5,2h13C18.8,2,19,2.2,19,2.5C19,3.9,20.1,5,21.5,5
				C21.8,5,22,5.2,22,5.5v4c0.7,0.3,1.3,0.8,1.7,1.5c0.1,0.2,0.2,0.5,0.3,0.7V0.5C24,0.2,23.8,0,23.5,0h-23C0.2,0,0,0.2,0,0.5v16
				c0,0.1,0.1,0.3,0.1,0.4C0.2,16.9,0.4,17,0.5,17L13.3,17L13.3,17z"/>
		</g>
		<path d="M22.8,14c0.4-0.8,0.5-1.7,0-2.5c-0.4-0.8-1.3-1.2-2.2-1.2h0C20.2,9.5,19.4,9,18.5,9c-0.9,0-1.7,0.5-2.2,1.3c0,0,0,0,0,0
			c-0.9,0-1.7,0.5-2.2,1.2c-0.5,0.8-0.4,1.7,0,2.5c-0.4,0.8-0.5,1.7,0,2.5c0.4,0.8,1.3,1.2,2.2,1.2h0c0.4,0.8,1.3,1.3,2.2,1.3
			c0.9,0,1.7-0.5,2.2-1.3c0,0,0,0,0,0c0.9,0,1.7-0.5,2.2-1.2C23.3,15.7,23.3,14.8,22.8,14z M18.5,15.5c-0.8,0-1.5-0.7-1.5-1.5
			c0-0.8,0.7-1.5,1.5-1.5c0.8,0,1.5,0.7,1.5,1.5C20,14.8,19.3,15.5,18.5,15.5z"/>
	</g>
</g>
<g id="Outline_Icons">
	<g>
		<polyline class="st2" points="12,16.5 0.5,16.5 0.5,0.5 23.5,0.5 23.5,9 		"/>
		<polyline class="st3" points="21.5,17 21.5,23.5 18.5,21 15.5,23.5 15.5,17 		"/>
		<circle class="st2" cx="18.5" cy="14" r="1.5"/>
		<path class="st2" d="M22.2,14c0.5-0.6,0.6-1.5,0.2-2.2c-0.4-0.7-1.2-1.1-2-1c-0.3-0.7-1-1.3-1.9-1.3c-0.8,0-1.6,0.5-1.9,1.3
			c-0.8-0.1-1.6,0.2-2,1c-0.4,0.7-0.3,1.6,0.2,2.2c-0.5,0.6-0.6,1.5-0.2,2.2c0.4,0.7,1.2,1.1,2,1c0.3,0.7,1,1.3,1.9,1.3
			c0.8,0,1.6-0.5,1.9-1.3c0.8,0.1,1.6-0.2,2-1C22.8,15.5,22.7,14.6,22.2,14z"/>
		<path class="st2" d="M21.5,8V5.5c-1.7,0-3-1.3-3-3h-13c0,1.7-1.3,3-3,3v6c1.7,0,3,1.3,3,3H12"/>
	</g>
</g>
</svg>
