<?xml version="1.0" encoding="utf-8"?>
<!-- Generator: Adobe Illustrator 19.2.0, SVG Export Plug-In . SVG Version: 6.00 Build 0)  -->
<svg version="1.1" id="Layer_1" xmlns="http://www.w3.org/2000/svg" xmlns:xlink="http://www.w3.org/1999/xlink" x="0px" y="0px"
	 viewBox="0 0 24 24" style="enable-background:new 0 0 24 24;" xml:space="preserve">
<style type="text/css">
	.st0{display:none;}
	.st1{display:inline;}
	.st2{fill:none;stroke:#000000;stroke-linecap:round;stroke-linejoin:round;stroke-miterlimit:10;}
</style>
<g id="Filled_Icons" class="st0">
	<path class="st1" d="M17.5,0c-0.2,0-0.3,0.1-0.4,0.2l-5.7,8.1c-0.8,0.1-1.5,0.4-2,1c-0.6,0.6-0.9,1.3-1,2l-8.1,5.7
		C0.1,17.2,0,17.3,0,17.5c0,2.1,4.1,6.2,6.2,6.2c0.2,0,0.3-0.1,0.4-0.2l5.5-7.8l5.8,5.8c0.1,0.1,0.2,0.1,0.4,0.1c0.1,0,0.1,0,0.2,0
		c0.2-0.1,0.3-0.3,0.3-0.5v-2.3H21c0.2,0,0.4-0.1,0.5-0.3c0.1-0.2,0-0.4-0.1-0.5L15.6,12l7.8-5.5c0.1-0.1,0.2-0.2,0.2-0.4
		C23.6,4.1,19.5,0,17.5,0z M15.7,8.6l-1.8,1.8c0.6,1,0.5,2.3-0.3,3.1c-0.5,0.5-1.1,0.7-1.8,0.7c-0.5,0-1-0.1-1.4-0.4l-1.8,1.8
		c-0.1,0.1-0.2,0.1-0.4,0.1c-0.1,0-0.3,0-0.4-0.1c-0.2-0.2-0.2-0.5,0-0.7l1.8-1.8c-0.3-0.4-0.4-0.9-0.4-1.4c0-0.7,0.3-1.3,0.7-1.8
		c0.5-0.5,1.1-0.7,1.8-0.7c0.5,0,1,0.1,1.4,0.4L15,7.9c0.2-0.2,0.5-0.2,0.7,0C15.9,8.1,15.9,8.4,15.7,8.6z"/>
</g>
<g id="Outline_Icons">
	<g>
		<circle class="st2" cx="11.8" cy="11.8" r="3"/>
		<path class="st2" d="M11.6,8.8l5.8-8.3c1.8,0,5.7,3.9,5.7,5.7L14.8,12"/>
		<path class="st2" d="M8.8,11.6l-8.3,5.8c0,1.8,3.9,5.7,5.7,5.7l5.8-8.3"/>
		<polyline class="st2" points="14.8,12 21,18.2 18.2,18.2 18.2,21 12,14.8 		"/>
		<line class="st2" x1="9.7" y1="13.9" x2="8.3" y2="15.3"/>
		<line class="st2" x1="13.9" y1="9.7" x2="15.3" y2="8.3"/>
	</g>
</g>
</svg>
