<?xml version="1.0" encoding="utf-8"?>
<!-- Generator: Adobe Illustrator 19.2.0, SVG Export Plug-In . SVG Version: 6.00 Build 0)  -->
<svg version="1.1" id="Layer_1" xmlns="http://www.w3.org/2000/svg" xmlns:xlink="http://www.w3.org/1999/xlink" x="0px" y="0px"
	 viewBox="0 0 24 24" enable-background="new 0 0 24 24" xml:space="preserve">
<g id="Filled_Icons" display="none">
	<path display="inline" d="M22.5,9.006H19v-2.5v-5v-1c0-0.276-0.225-0.5-0.5-0.5c-0.275,0-0.5,0.224-0.5,0.5v0.5H6v-0.5
		c0-0.276-0.224-0.5-0.5-0.5c-0.276,0-0.5,0.224-0.5,0.5v1v5v2.5H1.5c-0.276,0-0.5,0.224-0.5,0.5c0,0.276,0.224,0.5,0.5,0.5H3v4.5
		c0,0.01,0.004,0.016,0.004,0.023c0.017,0.293,0.252,0.477,0.496,0.477h1.356l6.195,3.848l-6.815,4.228
		c-0.235,0.147-0.307,0.454-0.161,0.69c0.095,0.15,0.258,0.234,0.425,0.234c0.09,0,0.182-0.024,0.264-0.074L12,19.44l7.236,4.492
		c0.082,0.053,0.173,0.075,0.263,0.075c0.167,0,0.331-0.084,0.426-0.235c0.146-0.235,0.073-0.541-0.161-0.689l-6.814-4.229
		l6.193-3.847H20.5c0.248,0,0.478-0.186,0.495-0.477c0-0.008,0.005-0.014,0.005-0.023v-4.5h1.5c0.275,0,0.5-0.224,0.5-0.5
		C23,9.23,22.775,9.006,22.5,9.006z M5,11.356l-1,1.5v-2.85h1V11.356z M12,18.264l-5.248-3.257h10.495L12,18.264z M18,11.006H6v-4
		h12V11.006z M20,12.856l-1-1.5v-1.35h1V12.856z"/>
</g>
<g id="Outline_Icons">
	<g>
		
			<line fill="none" stroke="#000000" stroke-linecap="round" stroke-linejoin="round" stroke-miterlimit="10" x1="5.5" y1="11.5" x2="5.5" y2="0.5"/>
		
			<line fill="none" stroke="#000000" stroke-linecap="round" stroke-linejoin="round" stroke-miterlimit="10" x1="18.5" y1="11.5" x2="18.5" y2="0.5"/>
		
			<rect x="5.5" y="1.5" fill="none" stroke="#000000" stroke-linecap="round" stroke-linejoin="round" stroke-miterlimit="10" width="13" height="5"/>
		<polygon fill="none" stroke="#000000" stroke-linecap="round" stroke-linejoin="round" stroke-miterlimit="10" points="18.5,11.5 
			5.5,11.5 3.5,14.5 20.5,14.5 		"/>
		
			<line fill="none" stroke="#000000" stroke-linecap="round" stroke-linejoin="round" stroke-miterlimit="10" x1="3.5" y1="14.5" x2="3.5" y2="9.5"/>
		
			<line fill="none" stroke="#000000" stroke-linecap="round" stroke-linejoin="round" stroke-miterlimit="10" x1="5.5" y1="9.5" x2="1.5" y2="9.5"/>
		
			<line fill="none" stroke="#000000" stroke-linecap="round" stroke-linejoin="round" stroke-miterlimit="10" x1="20.5" y1="14.5" x2="20.5" y2="9.5"/>
		
			<line fill="none" stroke="#000000" stroke-linecap="round" stroke-linejoin="round" stroke-miterlimit="10" x1="18.5" y1="9.5" x2="22.5" y2="9.5"/>
		
			<line fill="none" stroke="#000000" stroke-linecap="round" stroke-linejoin="round" stroke-miterlimit="10" x1="5" y1="14.5" x2="19.5" y2="23.5"/>
		
			<line fill="none" stroke="#000000" stroke-linecap="round" stroke-linejoin="round" stroke-miterlimit="10" x1="19" y1="14.5" x2="4.5" y2="23.5"/>
	</g>
</g>
</svg>
