<?xml version="1.0" encoding="utf-8"?>
<!-- Generator: Adobe Illustrator 19.2.0, SVG Export Plug-In . SVG Version: 6.00 Build 0)  -->
<svg version="1.1" id="Outline_Icons" xmlns="http://www.w3.org/2000/svg" xmlns:xlink="http://www.w3.org/1999/xlink" x="0px"
	 y="0px" viewBox="0 0 24 24" enable-background="new 0 0 24 24" xml:space="preserve">
<g>
	<path fill="none" stroke="#000000" stroke-linecap="round" stroke-linejoin="round" stroke-miterlimit="10" d="M7.5,11
		c0,1.381,1.119,2.5,2.5,2.5s2.5-1.119,2.5-2.5c0,1.381,1.119,2.5,2.5,2.5s2.5-1.119,2.5-2.5c0,1.381,1.119,2.5,2.5,2.5
		c0.262,0,0.514-0.04,0.75-0.114c0.667-0.211,1.176-0.754,1.342-1.433c0.166-0.679-0.034-1.396-0.528-1.89L12.5,0.5l-9.195,9.61
		c-0.425,0.47-0.603,1.113-0.478,1.734c0.124,0.621,0.534,1.147,1.106,1.417C4.257,13.415,4.618,13.5,5,13.5
		C6.381,13.5,7.5,12.381,7.5,11"/>
	<line fill="none" stroke="#000000" stroke-linejoin="round" stroke-miterlimit="10" x1="12.5" y1="24" x2="12.5" y2="0.5"/>
	<polyline fill="none" stroke="#000000" stroke-linecap="round" stroke-linejoin="round" stroke-miterlimit="10" points="
		21.5,16.016 20.5,20.5 15.5,20.5 15.5,23.484 	"/>
	<polyline fill="none" stroke="#000000" stroke-linecap="round" stroke-linejoin="round" stroke-miterlimit="10" points="
		3.5,16.016 4.5,20.5 9.5,20.5 9.5,23.484 	"/>
	
		<line fill="none" stroke="#000000" stroke-linecap="round" stroke-linejoin="round" stroke-miterlimit="10" x1="7.5" y1="11" x2="12.5" y2="0.5"/>
	
		<line fill="none" stroke="#000000" stroke-linecap="round" stroke-linejoin="round" stroke-miterlimit="10" x1="17.5" y1="11" x2="12.5" y2="0.5"/>
	
		<line fill="none" stroke="#000000" stroke-linecap="round" stroke-linejoin="round" stroke-miterlimit="10" x1="4.5" y1="20.5" x2="4.5" y2="23.5"/>
	
		<line fill="none" stroke="#000000" stroke-linecap="round" stroke-linejoin="round" stroke-miterlimit="10" x1="20.5" y1="20.5" x2="20.5" y2="23.5"/>
</g>
</svg>
