<?xml version="1.0" encoding="utf-8"?>
<!-- Generator: Adobe Illustrator 19.2.0, SVG Export Plug-In . SVG Version: 6.00 Build 0)  -->
<svg version="1.1" id="Layer_1" xmlns="http://www.w3.org/2000/svg" xmlns:xlink="http://www.w3.org/1999/xlink" x="0px" y="0px"
	 viewBox="0 0 24 24" enable-background="new 0 0 24 24" xml:space="preserve">
<g id="Filled_Icons" display="none">
	<g display="inline">
		<path d="M19.508,7.006c-1.379,0-2.5,1.122-2.5,2.5c0,0.276,0.225,0.5,0.5,0.5h1.5v5h-1c0-0.809-0.643-1.469-1.443-1.499
			c-3.26-0.667-6.769-0.655-10.057-0.001c-0.827,0-1.5,0.672-1.5,1.5h-1v-5h1.5c0.276,0,0.5-0.224,0.5-0.5
			c0-1.378-1.121-2.5-2.5-2.5c-1.379,0-2.5,1.122-2.5,2.5c0,0.276,0.224,0.5,0.5,0.5h1.5v5.5c0,0.275,0.224,0.5,0.5,0.5h1.5v0.5
			c0,0.827,0.673,1.5,1.5,1.5h4.499l-0.006,5H4.508c-0.276,0-0.5,0.223-0.5,0.5c0,0.275,0.224,0.5,0.5,0.5h13.984
			c0.275,0,0.5-0.225,0.5-0.5c0-0.277-0.225-0.5-0.5-0.5h-6.491l0.006-5h4.501c0.827,0,1.5-0.673,1.5-1.5v-0.5h1.5
			c0.276,0,0.5-0.225,0.5-0.5v-5.5h1.5c0.276,0,0.5-0.224,0.5-0.5C22.008,8.128,20.887,7.006,19.508,7.006z"/>
		<path d="M16.008,12.394V5.006h-9V12.4C10.077,11.892,13.098,11.889,16.008,12.394z"/>
		<path d="M16.008,3.506c0-1.378-1.121-2.5-2.5-2.5h-4c-1.379,0-2.5,1.122-2.5,2.5v0.5h9V3.506z"/>
	</g>
</g>
<g id="Outline_Icons">
	<g>
		
			<line fill="none" stroke="#000000" stroke-linecap="round" stroke-linejoin="round" stroke-miterlimit="10" x1="11.5" y1="23.5" x2="11.508" y2="17.5"/>
		<path fill="none" stroke="#000000" stroke-linejoin="round" stroke-miterlimit="10" d="M17.508,16.5c0,0.555-0.447,1-1,1h-10
			c-0.552,0-1-0.445-1-1V15c0-0.551,0.448-1,1-1c3.444-0.666,6.777-0.666,10,0c0.553,0,1,0.449,1,1V16.5z"/>
		<polyline fill="none" stroke="#000000" stroke-linejoin="round" stroke-miterlimit="10" points="17.508,15.5 19.508,15.5 
			19.508,9.5 		"/>
		<path fill="none" stroke="#000000" stroke-linejoin="round" stroke-miterlimit="10" d="M17.508,9.5h4c0-1.1-0.9-2-2-2
			S17.508,8.4,17.508,9.5z"/>
		<polyline fill="none" stroke="#000000" stroke-linejoin="round" stroke-miterlimit="10" points="5.508,15.5 3.508,15.5 3.508,9.5 
					"/>
		<path fill="none" stroke="#000000" stroke-linejoin="round" stroke-miterlimit="10" d="M5.508,9.5h-4c0-1.1,0.9-2,2-2
			C4.608,7.5,5.508,8.4,5.508,9.5z"/>
		<path fill="none" stroke="#000000" stroke-linejoin="round" stroke-miterlimit="10" d="M15.508,13.816V3.5c0-1.104-0.897-2-2-2h-4
			c-1.104,0-2,0.896-2,2v10.325"/>
		
			<line fill="none" stroke="#000000" stroke-linecap="round" stroke-linejoin="round" stroke-miterlimit="10" x1="4.508" y1="23.5" x2="18.492" y2="23.5"/>
		<line fill="none" stroke="#000000" stroke-linejoin="round" stroke-miterlimit="10" x1="7.508" y1="4.5" x2="15.508" y2="4.5"/>
	</g>
</g>
</svg>
