<?xml version="1.0" encoding="utf-8"?>
<!-- Generator: Adobe Illustrator 19.2.0, SVG Export Plug-In . SVG Version: 6.00 Build 0)  -->
<svg version="1.1" id="Layer_1" xmlns="http://www.w3.org/2000/svg" xmlns:xlink="http://www.w3.org/1999/xlink" x="0px" y="0px"
	 viewBox="0 0 24 24" enable-background="new 0 0 24 24" xml:space="preserve">
<g id="Filled_Icons" display="none">
	<g display="inline">
		<path d="M11.583,0.006c-5.291,0-11.322,6.268-11.322,11.766c0,2.119,0.905,3.894,2.617,5.132c1.839,1.332,4.575,2.029,8.122,2.091
			v4.011H5c-0.276,0-0.5,0.223-0.5,0.5c0,0.275,0.224,0.5,0.5,0.5h13c0.275,0,0.5-0.225,0.5-0.5c0-0.277-0.225-0.5-0.5-0.5h-6
			v-4.011c3.49-0.062,6.178-0.741,7.973-2.035c1.674-1.206,2.557-2.944,2.557-5.027C22.529,6.471,16.596,0.006,11.583,0.006z
			 M15.928,15.006l-8.941-0.021c-3.59-1.084-3.824-3.291-3.644-4.506c0.508-3.429,5.464-7.555,8.194-7.555
			c2.329,0,7.488,4.126,8.016,7.644C19.913,12.971,18.236,14.275,15.928,15.006z"/>
		<g>
			<path d="M18.546,11.599c-1.86-0.664-6.327-0.704-7.32-0.704c-2.079,0-5.372,0.102-6.866,0.682
				c0.221,1.089,1.167,1.907,2.847,2.429h8.568C17.428,13.484,18.348,12.674,18.546,11.599z"/>
			<path d="M19.426,12.258l0.03-0.07l-0.007-0.006C19.441,12.208,19.434,12.232,19.426,12.258z"/>
		</g>
	</g>
</g>
<g id="Outline_Icons">
	<g>
		<path fill="none" stroke="#000000" stroke-linecap="round" stroke-linejoin="round" stroke-miterlimit="10" d="M11.583,0.5
			c7.944,0,18.917,18-0.083,18S2.733,0.5,11.583,0.5z"/>
		<path fill="none" stroke="#000000" stroke-linecap="round" stroke-linejoin="round" stroke-miterlimit="10" d="M11.537,3.416
			C14.618,3.416,24,12,15.852,14.5H7.131C-1.031,12.031,7.91,3.416,11.537,3.416z"/>
		
			<line fill="none" stroke="#000000" stroke-linecap="round" stroke-linejoin="round" stroke-miterlimit="10" x1="11.5" y1="18.5" x2="11.5" y2="23.5"/>
		
			<line fill="none" stroke="#000000" stroke-linecap="round" stroke-linejoin="round" stroke-miterlimit="10" x1="5" y1="23.5" x2="18" y2="23.5"/>
		<path fill="none" stroke="#000000" stroke-linecap="round" stroke-linejoin="round" stroke-miterlimit="10" d="M4.068,12.32
			c0.771-1.258,13.541-1.219,14.793-0.011"/>
	</g>
</g>
</svg>
