<?xml version="1.0" encoding="utf-8"?>
<!-- Generator: Adobe Illustrator 19.2.0, SVG Export Plug-In . SVG Version: 6.00 Build 0)  -->
<svg version="1.1" id="Layer_1" xmlns="http://www.w3.org/2000/svg" xmlns:xlink="http://www.w3.org/1999/xlink" x="0px" y="0px"
	 viewBox="0 0 24 24" style="enable-background:new 0 0 24 24;" xml:space="preserve">
<style type="text/css">
	.st0{display:none;}
	.st1{display:inline;}
	.st2{fill:none;stroke:#000000;stroke-linecap:round;stroke-linejoin:round;stroke-miterlimit:10;}
</style>
<g id="Filled_Icons" class="st0">
	<g class="st1">
		<path d="M23.5,11H9.2l-4.4,3.4c-0.1,0.1-0.2,0.1-0.3,0.1c-0.1,0-0.1,0-0.2-0.1C4.1,14.4,4,14.2,4,14v-3H0.5C0.2,11,0,11.2,0,11.5
			v7C0,18.8,0.2,19,0.5,19h13.3l4.4,3.9c0.1,0.1,0.2,0.1,0.3,0.1c0.1,0,0.1,0,0.2,0c0.2-0.1,0.3-0.3,0.3-0.5V19h4.5
			c0.3,0,0.5-0.2,0.5-0.5v-7C24,11.2,23.8,11,23.5,11z"/>
		<path d="M23.5,0h-23C0.2,0,0,0.2,0,0.5v8C0,8.8,0.2,9,0.5,9h4H5v0.5V12v1l5-3.9v0L10.2,9h0.2h13.2C23.8,9,24,8.8,24,8.5v-8
			C24,0.2,23.8,0,23.5,0z"/>
	</g>
</g>
<g id="Outline_Icons">
	<g>
		<polygon class="st2" points="23.5,8.5 10,8.5 5.5,12 5.5,8.5 0.5,8.5 0.5,0.5 23.5,0.5 		"/>
		<polyline class="st2" points="3,11.5 0.5,11.5 0.5,18.5 14,18.5 18.5,22.5 18.5,18.5 23.5,18.5 23.5,11.5 10.5,11.5 		"/>
	</g>
</g>
</svg>
