<?xml version="1.0" encoding="utf-8"?>
<!-- Generator: Adobe Illustrator 19.2.0, SVG Export Plug-In . SVG Version: 6.00 Build 0)  -->
<svg version="1.1" id="Layer_1" xmlns="http://www.w3.org/2000/svg" xmlns:xlink="http://www.w3.org/1999/xlink" x="0px" y="0px"
	 viewBox="0 0 24 24" style="enable-background:new 0 0 24 24;" xml:space="preserve">
<style type="text/css">
	.st0{display:none;}
	.st1{display:inline;}
	.st2{fill:none;stroke:#000000;stroke-linejoin:round;stroke-miterlimit:10;}
</style>
<g id="Filled_Icons" class="st0">
	<g class="st1">
		<path d="M16.5,8.8c0.5,0,0.9,0,1.4,0.1C18,8.5,18,8.1,18,7.7c0-4.1-4-7.4-9-7.4c-5,0-9,3.3-9,7.4c0,2,0.9,3.8,2.4,5.2L0.6,16
			c-0.1,0.2-0.1,0.4,0.1,0.6c0.1,0.1,0.2,0.2,0.4,0.2c0.1,0,0.1,0,0.2,0L6,14.8c0.4,0.1,0.9,0.2,1.3,0.3c0,0,0.1,0,0.1,0
			c0.1,0,0.3,0,0.7,0C8.8,11.5,12.4,8.8,16.5,8.8z"/>
		<path d="M16.5,9.8c-4.1,0-7.5,3-7.5,6.5c0,3.4,2.9,6.2,6.4,6.6c0,0,0,0,0,0c1.3,0.1,2.6-0.1,3.6-0.5c0.3,0.1,3.5,1.3,3.8,1.4
			c0.2,0.1,0.4,0,0.5-0.1c0.1-0.2,0.2-0.4,0.1-0.6c-0.3-0.6-1.1-2.1-1.3-2.7c1.2-1.1,1.9-2.5,1.9-4.1C24,12.7,20.6,9.8,16.5,9.8z"/>
	</g>
</g>
<g id="Outline_Icons">
	<g>
		<path class="st2" d="M7.4,14.6c-0.5-0.1-1-0.2-1.4-0.3l-5,2l2-3.5c-1.6-1.3-2.5-3.1-2.5-5.1c0-3.8,3.8-6.9,8.5-6.9
			c4.7,0,8.5,3.1,8.5,6.9"/>
		<path class="st2" d="M9.5,16.2c0,4.3,5,7.5,9.5,5.5l4,1.5l-1.5-3c1.3-1,2-2.4,2-4c0-3.2-3.1-6-7-6C12.6,10.2,9.5,13.1,9.5,16.2z"
			/>
	</g>
</g>
</svg>
