<?xml version="1.0" encoding="utf-8"?>
<!-- Generator: Adobe Illustrator 19.2.0, SVG Export Plug-In . SVG Version: 6.00 Build 0)  -->
<svg version="1.1" id="Layer_1" xmlns="http://www.w3.org/2000/svg" xmlns:xlink="http://www.w3.org/1999/xlink" x="0px" y="0px"
	 viewBox="0 0 24 24" style="enable-background:new 0 0 24 24;" xml:space="preserve">
<style type="text/css">
	.st0{display:none;}
	.st1{display:inline;}
	.st2{fill:none;stroke:#000000;stroke-linecap:round;stroke-linejoin:round;stroke-miterlimit:10;}
</style>
<g id="Filled_Icons" class="st0">
	<g class="st1">
		<path d="M20,1.5C20,1.2,19.8,1,19.5,1h-19C0.2,1,0,1.2,0,1.5v12C0,13.8,0.2,14,0.5,14H3v3.5c0,0.2,0.1,0.4,0.3,0.5
			c0.1,0,0.1,0,0.2,0c0.1,0,0.3-0.1,0.4-0.1L7.7,14H10V9.5C10,9.2,10.2,9,10.5,9H20V1.5z"/>
		<path d="M23.5,10h-12H11v0.5v8c0,0.3,0.2,0.5,0.5,0.5h5.1h0.2l0.1,0.1l0,0l4.2,3.7c0.1,0.1,0.2,0.1,0.3,0.1c0.1,0,0.1,0,0.2,0
			c0.2-0.1,0.3-0.3,0.3-0.5v-3V19h0.5h1c0.3,0,0.5-0.2,0.5-0.5v-8C24,10.2,23.8,10,23.5,10z"/>
	</g>
</g>
<g id="Outline_Icons">
	<g>
		<polyline class="st2" points="8.5,13.5 7.5,13.5 3.5,17.5 3.5,13.5 0.5,13.5 0.5,1.5 19.5,1.5 19.5,8 		"/>
		<polygon class="st2" points="11.5,18.5 17,18.5 21.5,22.5 21.5,18.5 23.5,18.5 23.5,10.5 11.5,10.5 		"/>
	</g>
</g>
</svg>
