<?xml version="1.0" encoding="utf-8"?>
<!-- Generator: Adobe Illustrator 19.2.0, SVG Export Plug-In . SVG Version: 6.00 Build 0)  -->
<svg version="1.1" id="Layer_1" xmlns="http://www.w3.org/2000/svg" xmlns:xlink="http://www.w3.org/1999/xlink" x="0px" y="0px"
	 viewBox="0 0 24 24" style="enable-background:new 0 0 24 24;" xml:space="preserve">
<style type="text/css">
	.st0{display:none;}
	.st1{display:inline;}
	.st2{fill:none;stroke:#000000;stroke-linecap:round;stroke-linejoin:round;stroke-miterlimit:10;}
</style>
<g id="Filled_Icons" class="st0">
	<path class="st1" d="M12,0C5.4,0,0,5.4,0,12c0,6.6,5.4,12,12,12c6.6,0,12-5.4,12-12C24,5.4,18.6,0,12,0z M17.3,8.9l-7.5,7
		C9.7,16,9.6,16,9.5,16c-0.1,0-0.3,0-0.4-0.1l-2.5-2.5c-0.2-0.2-0.2-0.5,0-0.7c0.2-0.2,0.5-0.2,0.7,0l2.2,2.2l7.1-6.7
		c0.2-0.2,0.5-0.2,0.7,0C17.6,8.4,17.5,8.7,17.3,8.9z"/>
</g>
<g id="Outline_Icons">
	<g>
		<polyline class="st2" points="17,8.5 9.5,15.5 7,13 		"/>
		<circle class="st2" cx="12" cy="12" r="11.5"/>
	</g>
</g>
</svg>
