<?xml version="1.0" encoding="utf-8"?>
<!-- Generator: Adobe Illustrator 19.2.0, SVG Export Plug-In . SVG Version: 6.00 Build 0)  -->
<svg version="1.1" id="Layer_1" xmlns="http://www.w3.org/2000/svg" xmlns:xlink="http://www.w3.org/1999/xlink" x="0px" y="0px"
	 viewBox="0 0 24 24" enable-background="new 0 0 24 24" xml:space="preserve">
<g id="Filled_Icons" display="none">
	<g display="inline">
		<circle cx="4" cy="20.006" r="1"/>
		<circle cx="9" cy="15.006" r="1"/>
		<circle cx="4" cy="10.006" r="1"/>
		<circle cx="9" cy="5.006" r="1"/>
		<circle cx="19" cy="5.006" r="1"/>
		<circle cx="14" cy="10.006" r="1"/>
		<circle cx="14" cy="20.006" r="1"/>
		<circle cx="19" cy="15.006" r="1"/>
		<path d="M20,1.506H3c-1.379,0-2.5,1.122-2.5,2.5v17c0,1.379,1.121,2.5,2.5,2.5h17c1.379,0,2.5-1.121,2.5-2.5v-17
			C22.5,2.628,21.379,1.506,20,1.506z M11.5,2.506v5h-5v-5H11.5z M16.5,7.506v5h-5v-5H16.5z M1.5,7.506h5v5h-5V7.506z M21.5,17.506
			h-5v5h-5v-5h-5v5H3c-0.827,0-1.5-0.673-1.5-1.5v-3.5h5v-5h5v5h5v-5h5V17.506z M21.5,7.506h-5v-5H20c0.827,0,1.5,0.673,1.5,1.5
			V7.506z"/>
	</g>
</g>
<g id="Outline_Icons">
	<g>
		<path fill="none" stroke="#000000" stroke-linejoin="round" stroke-miterlimit="10" d="M21.5,4.5c0-1.104-0.897-2-2-2h-16
			c-1.104,0-2,0.896-2,2v16c0,1.104,0.896,2,2,2h16c1.103,0,2-0.896,2-2V4.5z"/>
		<line fill="none" stroke="#000000" stroke-linejoin="round" stroke-miterlimit="10" x1="6.5" y1="22.5" x2="6.5" y2="2.5"/>
		<line fill="none" stroke="#000000" stroke-linejoin="round" stroke-miterlimit="10" x1="11.5" y1="22.5" x2="11.5" y2="2.5"/>
		<line fill="none" stroke="#000000" stroke-linejoin="round" stroke-miterlimit="10" x1="16.5" y1="22.5" x2="16.5" y2="2.5"/>
		<line fill="none" stroke="#000000" stroke-linejoin="round" stroke-miterlimit="10" x1="1.5" y1="7.5" x2="21.5" y2="7.5"/>
		<line fill="none" stroke="#000000" stroke-linejoin="round" stroke-miterlimit="10" x1="1.5" y1="12.5" x2="21.5" y2="12.5"/>
		<line fill="none" stroke="#000000" stroke-linejoin="round" stroke-miterlimit="10" x1="1.5" y1="17.5" x2="21.5" y2="17.5"/>
		<g>
			<path d="M4,19c-0.553,0-1,0.447-1,1c0,0.553,0.447,1,1,1c0.553,0,1-0.447,1-1C5,19.447,4.553,19,4,19L4,19z"/>
		</g>
		<g>
			<path d="M9,14c-0.553,0-1,0.447-1,1c0,0.553,0.447,1,1,1c0.553,0,1-0.447,1-1C10,14.447,9.553,14,9,14L9,14z"/>
		</g>
		<g>
			<path d="M4,9c-0.553,0-1,0.448-1,1c0,0.553,0.447,1,1,1c0.553,0,1-0.447,1-1C5,9.448,4.553,9,4,9L4,9z"/>
		</g>
		<g>
			<path d="M9,4C8.447,4,8,4.448,8,5c0,0.553,0.447,1,1,1c0.553,0,1-0.447,1-1C10,4.448,9.553,4,9,4L9,4z"/>
		</g>
		<g>
			<path d="M19,4c-0.553,0-1,0.448-1,1c0,0.553,0.447,1,1,1c0.553,0,1-0.447,1-1C20,4.448,19.553,4,19,4L19,4z"/>
		</g>
		<g>
			<path d="M14,9c-0.553,0-1,0.448-1,1c0,0.553,0.447,1,1,1c0.553,0,1-0.447,1-1C15,9.448,14.553,9,14,9L14,9z"/>
		</g>
		<g>
			<path d="M14,19c-0.553,0-1,0.447-1,1c0,0.553,0.447,1,1,1c0.553,0,1-0.447,1-1C15,19.447,14.553,19,14,19L14,19z"/>
		</g>
		<g>
			<path d="M19,14c-0.553,0-1,0.447-1,1c0,0.553,0.447,1,1,1c0.553,0,1-0.447,1-1C20,14.447,19.553,14,19,14L19,14z"/>
		</g>
	</g>
</g>
</svg>
