<?xml version="1.0" encoding="utf-8"?>
<!-- Generator: Adobe Illustrator 19.2.0, SVG Export Plug-In . SVG Version: 6.00 Build 0)  -->
<svg version="1.1" id="Layer_1" xmlns="http://www.w3.org/2000/svg" xmlns:xlink="http://www.w3.org/1999/xlink" x="0px" y="0px"
	 viewBox="0 0 24 24" style="enable-background:new 0 0 24 24;" xml:space="preserve">
<style type="text/css">
	.st0{display:none;}
	.st1{display:inline;}
	.st2{fill:none;stroke:#000000;stroke-linecap:round;stroke-linejoin:round;stroke-miterlimit:10;}
	.st3{fill:none;stroke:#000000;stroke-linejoin:round;stroke-miterlimit:10;}
</style>
<g id="Filled_Icons" class="st0">
	<path class="st1" d="M21.5,0h-19C2.2,0,2,0.2,2,0.5v7.3c0,6.8,3.7,13,9.8,16.2c0.1,0,0.2,0.1,0.2,0.1c0.1,0,0.2,0,0.2-0.1
		c6-3.2,9.8-9.4,9.8-16.2V0.5C22,0.2,21.8,0,21.5,0z M17.8,7.4l-7.5,7c-0.1,0.1-0.2,0.1-0.3,0.1c-0.1,0-0.3,0-0.4-0.1l-2.5-2.5
		c-0.2-0.2-0.2-0.5,0-0.7c0.2-0.2,0.5-0.2,0.7,0l2.2,2.2l7.1-6.7c0.2-0.2,0.5-0.2,0.7,0C18.1,6.9,18,7.2,17.8,7.4z"/>
</g>
<g id="Outline_Icons">
	<g>
		<polyline class="st2" points="17.5,7 10,14 7.5,11.5 		"/>
		<path class="st3" d="M2.5,0.5h19v7.3c0,6.6-3.7,12.7-9.5,15.7c-5.8-3.1-9.5-9.1-9.5-15.7V0.5z"/>
	</g>
</g>
</svg>
