<?xml version="1.0" encoding="utf-8"?>
<!-- Generator: Adobe Illustrator 19.2.0, SVG Export Plug-In . SVG Version: 6.00 Build 0)  -->
<svg version="1.1" id="Layer_1" xmlns="http://www.w3.org/2000/svg" xmlns:xlink="http://www.w3.org/1999/xlink" x="0px" y="0px"
	 viewBox="0 0 24 24" style="enable-background:new 0 0 24 24;" xml:space="preserve">
<style type="text/css">
	.st0{display:none;}
	.st1{display:inline;}
	.st2{fill:none;stroke:#000000;stroke-width:1.0351;stroke-linecap:round;stroke-linejoin:round;stroke-miterlimit:10;}
	.st3{fill:none;stroke:#000000;stroke-linecap:round;stroke-linejoin:round;stroke-miterlimit:10;}
</style>
<g id="Filled_Icons" class="st0">
	<g class="st1">
		<path d="M23.5,0C23.2,0,23,0.2,23,0.5V1H1V0.5C1,0.2,0.8,0,0.5,0C0.2,0,0,0.2,0,0.5v1v13v9C0,23.8,0.2,24,0.5,24
			C0.8,24,1,23.8,1,23.5V15h22v8.5c0,0.3,0.2,0.5,0.5,0.5c0.3,0,0.5-0.2,0.5-0.5v-9v-13v-1C24,0.2,23.8,0,23.5,0z M23,6h-2v2h2v2h-2
			v2h2v2h-2v-2h-2v2h-2v-2h-2v2h-2v-2h-2v2H9v-2H7v2H5v-2H3v2H1v-2h2v-2H1V8h2V6H1V4h2V2h2v2h2V2h2v2h2V2h2v2h2V2h2v2h2V2h2v2h2V6z"
			/>
		<rect x="3" y="4" width="2" height="2"/>
		<rect x="7" y="4" width="2" height="2"/>
		<rect x="11" y="4" width="2" height="2"/>
		<rect x="15" y="4" width="2" height="2"/>
		<rect x="19" y="4" width="2" height="2"/>
		<rect x="5" y="6" width="2" height="2"/>
		<rect x="9" y="6" width="2" height="2"/>
		<rect x="13" y="6" width="2" height="2"/>
		<rect x="17" y="6" width="2" height="2"/>
		<rect x="3" y="8" width="2" height="2"/>
		<rect x="7" y="8" width="2" height="2"/>
		<rect x="11" y="8" width="2" height="2"/>
		<rect x="15" y="8" width="2" height="2"/>
		<rect x="19" y="8" width="2" height="2"/>
		<rect x="5" y="10" width="2" height="2"/>
		<rect x="9" y="10" width="2" height="2"/>
		<rect x="13" y="10" width="2" height="2"/>
		<rect x="17" y="10" width="2" height="2"/>
	</g>
</g>
<g id="Outline_Icons">
	<g>
		<rect x="0.5" y="1.5" class="st2" width="23" height="13"/>
		<line class="st3" x1="0.5" y1="0.5" x2="0.5" y2="23.5"/>
		<g>
			<g>
				<g>
					<polygon points="3,2 1,2 1,4 3,4 					"/>
				</g>
			</g>
		</g>
		<g>
			<g>
				<g>
					<polygon points="7,2 5,2 5,4 7,4 					"/>
				</g>
			</g>
		</g>
		<g>
			<g>
				<g>
					<polygon points="11,2 9,2 9,4 11,4 					"/>
				</g>
			</g>
		</g>
		<g>
			<g>
				<g>
					<polygon points="15,2 13,2 13,4 15,4 					"/>
				</g>
			</g>
		</g>
		<g>
			<g>
				<g>
					<polygon points="19,2 17,2 17,4 19,4 					"/>
				</g>
			</g>
		</g>
		<g>
			<g>
				<g>
					<polygon points="23,2 21,2 21,4 23,4 					"/>
				</g>
			</g>
		</g>
		<g>
			<g>
				<g>
					<polygon points="5,4 3,4 3,6 5,6 					"/>
				</g>
			</g>
		</g>
		<g>
			<g>
				<g>
					<polygon points="9,4 7,4 7,6 9,6 					"/>
				</g>
			</g>
		</g>
		<g>
			<g>
				<g>
					<polygon points="13,4 11,4 11,6 13,6 					"/>
				</g>
			</g>
		</g>
		<g>
			<g>
				<g>
					<polygon points="17,4 15,4 15,6 17,6 					"/>
				</g>
			</g>
		</g>
		<g>
			<g>
				<g>
					<polygon points="21,4 19,4 19,6 21,6 					"/>
				</g>
			</g>
		</g>
		<g>
			<g>
				<g>
					<polygon points="3,6 1,6 1,8 3,8 					"/>
				</g>
			</g>
		</g>
		<g>
			<g>
				<g>
					<polygon points="7,6 5,6 5,8 7,8 					"/>
				</g>
			</g>
		</g>
		<g>
			<g>
				<g>
					<polygon points="11,6 9,6 9,8 11,8 					"/>
				</g>
			</g>
		</g>
		<g>
			<g>
				<g>
					<polygon points="15,6 13,6 13,8 15,8 					"/>
				</g>
			</g>
		</g>
		<g>
			<g>
				<g>
					<polygon points="19,6 17,6 17,8 19,8 					"/>
				</g>
			</g>
		</g>
		<g>
			<g>
				<g>
					<polygon points="23,6 21,6 21,8 23,8 					"/>
				</g>
			</g>
		</g>
		<g>
			<g>
				<g>
					<polygon points="5,8 3,8 3,10 5,10 					"/>
				</g>
			</g>
		</g>
		<g>
			<g>
				<g>
					<polygon points="9,8 7,8 7,10 9,10 					"/>
				</g>
			</g>
		</g>
		<g>
			<g>
				<g>
					<polygon points="13,8 11,8 11,10 13,10 					"/>
				</g>
			</g>
		</g>
		<g>
			<g>
				<g>
					<polygon points="17,8 15,8 15,10 17,10 					"/>
				</g>
			</g>
		</g>
		<g>
			<g>
				<g>
					<polygon points="21,8 19,8 19,10 21,10 					"/>
				</g>
			</g>
		</g>
		<g>
			<g>
				<g>
					<polygon points="3,10 1,10 1,12 3,12 					"/>
				</g>
			</g>
		</g>
		<g>
			<g>
				<g>
					<polygon points="7,10 5,10 5,12 7,12 					"/>
				</g>
			</g>
		</g>
		<g>
			<g>
				<g>
					<polygon points="11,10 9,10 9,12 11,12 					"/>
				</g>
			</g>
		</g>
		<g>
			<g>
				<g>
					<polygon points="15,10 13,10 13,12 15,12 					"/>
				</g>
			</g>
		</g>
		<g>
			<g>
				<g>
					<polygon points="19,10 17,10 17,12 19,12 					"/>
				</g>
			</g>
		</g>
		<g>
			<g>
				<g>
					<polygon points="23,10 21,10 21,12 23,12 					"/>
				</g>
			</g>
		</g>
		<g>
			<g>
				<g>
					<polygon points="5,12 3,12 3,14 5,14 					"/>
				</g>
			</g>
		</g>
		<g>
			<g>
				<g>
					<polygon points="9,12 7,12 7,14 9,14 					"/>
				</g>
			</g>
		</g>
		<g>
			<g>
				<g>
					<polygon points="13,12 11,12 11,14 13,14 					"/>
				</g>
			</g>
		</g>
		<g>
			<g>
				<g>
					<polygon points="17,12 15,12 15,14 17,14 					"/>
				</g>
			</g>
		</g>
		<g>
			<g>
				<g>
					<polygon points="21,12 19,12 19,14 21,14 					"/>
				</g>
			</g>
		</g>
		<line class="st3" x1="23.5" y1="0.5" x2="23.5" y2="23.5"/>
	</g>
</g>
</svg>
