<?xml version="1.0" encoding="utf-8"?>
<!-- Generator: Adobe Illustrator 19.2.0, SVG Export Plug-In . SVG Version: 6.00 Build 0)  -->
<svg version="1.1" id="Layer_1" xmlns="http://www.w3.org/2000/svg" xmlns:xlink="http://www.w3.org/1999/xlink" x="0px" y="0px"
	 viewBox="0 0 24 24" style="enable-background:new 0 0 24 24;" xml:space="preserve">
<style type="text/css">
	.st0{display:none;}
	.st1{display:inline;}
	.st2{fill:none;stroke:#000000;stroke-linecap:round;stroke-linejoin:round;stroke-miterlimit:10;}
</style>
<g id="Filled_Icons" class="st0">
	<g class="st1">
		<path d="M23.6,0.2c-0.4-0.3-1.1-0.3-1.4,0.2L9.4,16.5l-4.2-4.2c-0.4-0.4-1-0.4-1.4,0c-0.4,0.4-0.4,1,0,1.4l5,5
			C9,18.9,9.2,19,9.5,19c0,0,0,0,0.1,0c0.3,0,0.5-0.2,0.7-0.4l13.5-17C24.1,1.2,24.1,0.6,23.6,0.2z"/>
		<path d="M18.6,11c-0.5,0.1-0.9,0.7-0.8,1.2c0.1,0.6,0.2,1.2,0.2,1.8c0,4.4-3.6,8-8,8c-4.4,0-8-3.6-8-8c0-4.4,3.6-8,8-8
			c1.2,0,2.4,0.3,3.6,0.8c0.5,0.2,1.1,0,1.3-0.5c0.2-0.5,0-1.1-0.5-1.3c-1.4-0.7-2.9-1-4.4-1C4.5,4,0,8.5,0,14c0,5.5,4.5,10,10,10
			c5.5,0,10-4.5,10-10c0-0.7-0.1-1.5-0.3-2.2C19.6,11.2,19.1,10.9,18.6,11z"/>
	</g>
</g>
<g id="Outline_Icons">
	<g>
		<polyline class="st2" points="23.5,0.5 9,18.5 4,13.5 		"/>
		<path class="st2" d="M18.3,12.5c0.1,0.6,0.2,1.3,0.2,2c0,5-4,9-9,9c-5,0-9-4-9-9c0-5,4-9,9-9c1.4,0,2.8,0.3,4,0.9"/>
	</g>
</g>
</svg>
