<?xml version="1.0" encoding="utf-8"?>
<!-- Generator: Adobe Illustrator 19.2.0, SVG Export Plug-In . SVG Version: 6.00 Build 0)  -->
<svg version="1.1" id="Layer_1" xmlns="http://www.w3.org/2000/svg" xmlns:xlink="http://www.w3.org/1999/xlink" x="0px" y="0px"
	 viewBox="0 0 24 24" style="enable-background:new 0 0 24 24;" xml:space="preserve">
<style type="text/css">
	.st0{display:none;}
	.st1{display:inline;}
	.st2{fill:none;stroke:#000000;stroke-linejoin:round;stroke-miterlimit:10;}
</style>
<g id="Filled_Icons" class="st0">
	<path class="st1" d="M23.9,7.1l-3.5-3.5c-0.2-0.2-0.5-0.2-0.7,0L7.5,15.8l-3.1-3.1c-0.2-0.2-0.5-0.2-0.7,0l-3.5,3.5
		c-0.2,0.2-0.2,0.5,0,0.7l7,7C7.2,24,7.4,24,7.5,24c0.1,0,0.3,0,0.4-0.1l16-16C24,7.7,24,7.3,23.9,7.1z"/>
</g>
<g id="Outline_Icons">
	<g>
		<polygon class="st2" points="20,2.2 7.5,14.8 4,11.2 0.5,14.8 7.5,21.8 23.5,5.8 		"/>
	</g>
</g>
</svg>
