<?xml version="1.0" encoding="utf-8"?>
<!-- Generator: Adobe Illustrator 19.2.0, SVG Export Plug-In . SVG Version: 6.00 Build 0)  -->
<svg version="1.1" id="Layer_1" xmlns="http://www.w3.org/2000/svg" xmlns:xlink="http://www.w3.org/1999/xlink" x="0px" y="0px"
	 viewBox="0 0 24 24" style="enable-background:new 0 0 24 24;" xml:space="preserve">
<style type="text/css">
	.st0{display:none;}
	.st1{display:inline;}
	.st2{fill:none;stroke:#000000;stroke-linejoin:round;stroke-miterlimit:10;}
	.st3{fill:none;stroke:#000000;stroke-linecap:round;stroke-linejoin:round;stroke-miterlimit:10;}
</style>
<g id="Filled_Icons" class="st0">
	<path class="st1" d="M23.5,0h-23C0.2,0,0,0.2,0,0.5v23C0,23.8,0.2,24,0.5,24h23c0.3,0,0.5-0.2,0.5-0.5v-23C24,0.2,23.8,0,23.5,0z
		 M10.9,13.9l-5,5C5.8,19,5.6,19,5.5,19c-0.1,0-0.3,0-0.4-0.1l-2-2c-0.2-0.2-0.2-0.5,0-0.7c0.2-0.2,0.5-0.2,0.7,0l1.6,1.6l4.6-4.6
		c0.2-0.2,0.5-0.2,0.7,0C11,13.3,11,13.7,10.9,13.9z M10.9,4.4l-5,5C5.8,9.5,5.6,9.5,5.5,9.5c-0.1,0-0.3,0-0.4-0.1l-2-2
		C3,7.2,3,6.8,3.1,6.6c0.2-0.2,0.5-0.2,0.7,0l1.6,1.6l4.6-4.6c0.2-0.2,0.5-0.2,0.7,0C11,3.8,11,4.2,10.9,4.4z M20.5,18h-8
		c-0.3,0-0.5-0.2-0.5-0.5c0-0.3,0.2-0.5,0.5-0.5h8c0.3,0,0.5,0.2,0.5,0.5C21,17.8,20.8,18,20.5,18z M20.5,9h-8C12.2,9,12,8.8,12,8.5
		C12,8.2,12.2,8,12.5,8h8C20.8,8,21,8.2,21,8.5C21,8.8,20.8,9,20.5,9z"/>
</g>
<g id="Outline_Icons">
	<g>
		<rect x="0.5" y="0.5" class="st2" width="23" height="23"/>
		<polyline class="st3" points="3.5,7.5 5.5,9.5 10.5,4.5 		"/>
		<polyline class="st3" points="3.5,16.5 5.5,18.5 10.5,13.5 		"/>
		<line class="st3" x1="12.5" y1="8.5" x2="20.5" y2="8.5"/>
		<line class="st3" x1="12.5" y1="17.5" x2="20.5" y2="17.5"/>
	</g>
</g>
</svg>
