<?xml version="1.0" encoding="utf-8"?>
<!-- Generator: Adobe Illustrator 19.2.0, SVG Export Plug-In . SVG Version: 6.00 Build 0)  -->
<svg version="1.1" id="Layer_1" xmlns="http://www.w3.org/2000/svg" xmlns:xlink="http://www.w3.org/1999/xlink" x="0px" y="0px"
	 viewBox="0 0 24 24" style="enable-background:new 0 0 24 24;" xml:space="preserve">
<style type="text/css">
	.st0{display:none;}
	.st1{display:inline;}
	.st2{fill:none;stroke:#000000;stroke-linecap:round;stroke-linejoin:round;stroke-miterlimit:10;}
</style>
<g id="Filled_Icons" class="st0">
	<g class="st1">
		<path d="M22.5,1h-19C3.2,1,3,1.2,3,1.5v11C3,12.8,3.2,13,3.5,13h19c0.3,0,0.5-0.2,0.5-0.5v-11C23,1.2,22.7,1,22.5,1z M22,6h-2v2h2
			v2h-2v2h-2v-2h-2v2h-2v-2h-2v2h-2v-2H8v2H6v-2H4V8h2V6H4V4h2V2h2v2h2V2h2v2h2V2h2v2h2V2h2v2h2V6z"/>
		<path d="M1.5,0C1.2,0,1,0.2,1,0.5v23C1,23.8,1.2,24,1.5,24C1.7,24,2,23.8,2,23.5v-23C2,0.2,1.7,0,1.5,0z"/>
		<rect x="6" y="4" width="2" height="2"/>
		<rect x="10" y="4" width="2" height="2"/>
		<rect x="14" y="4" width="2" height="2"/>
		<rect x="18" y="4" width="2" height="2"/>
		<rect x="8" y="6" width="2" height="2"/>
		<rect x="12" y="6" width="2" height="2"/>
		<rect x="16" y="6" width="2" height="2"/>
		<rect x="6" y="8" width="2" height="2"/>
		<rect x="10" y="8" width="2" height="2"/>
		<rect x="14" y="8" width="2" height="2"/>
		<rect x="18" y="8" width="2" height="2"/>
	</g>
</g>
<g id="Outline_Icons">
	<g>
		<rect x="3.5" y="1.5" class="st2" width="19" height="11"/>
		<line class="st2" x1="1.5" y1="0.5" x2="1.5" y2="23.5"/>
		<g>
			<g>
				<g>
					<polygon points="6,2 4,2 4,4 6,4 					"/>
				</g>
			</g>
		</g>
		<g>
			<g>
				<g>
					<polygon points="10,2 8,2 8,4 10,4 					"/>
				</g>
			</g>
		</g>
		<g>
			<g>
				<g>
					<polygon points="14,2 12,2 12,4 14,4 					"/>
				</g>
			</g>
		</g>
		<g>
			<g>
				<g>
					<polygon points="18,2 16,2 16,4 18,4 					"/>
				</g>
			</g>
		</g>
		<g>
			<g>
				<g>
					<polygon points="22,2 20,2 20,4 22,4 					"/>
				</g>
			</g>
		</g>
		<g>
			<g>
				<g>
					<polygon points="8,4 6,4 6,6 8,6 					"/>
				</g>
			</g>
		</g>
		<g>
			<g>
				<g>
					<polygon points="12,4 10,4 10,6 12,6 					"/>
				</g>
			</g>
		</g>
		<g>
			<g>
				<g>
					<polygon points="16,4 14,4 14,6 16,6 					"/>
				</g>
			</g>
		</g>
		<g>
			<g>
				<g>
					<polygon points="20,4 18,4 18,6 20,6 					"/>
				</g>
			</g>
		</g>
		<g>
			<g>
				<g>
					<polygon points="6,6 4,6 4,8 6,8 					"/>
				</g>
			</g>
		</g>
		<g>
			<g>
				<g>
					<polygon points="10,6 8,6 8,8 10,8 					"/>
				</g>
			</g>
		</g>
		<g>
			<g>
				<g>
					<polygon points="14,6 12,6 12,8 14,8 					"/>
				</g>
			</g>
		</g>
		<g>
			<g>
				<g>
					<polygon points="18,6 16,6 16,8 18,8 					"/>
				</g>
			</g>
		</g>
		<g>
			<g>
				<g>
					<polygon points="22,6 20,6 20,8 22,8 					"/>
				</g>
			</g>
		</g>
		<g>
			<g>
				<g>
					<polygon points="8,8 6,8 6,10 8,10 					"/>
				</g>
			</g>
		</g>
		<g>
			<g>
				<g>
					<polygon points="12,8 10,8 10,10 12,10 					"/>
				</g>
			</g>
		</g>
		<g>
			<g>
				<g>
					<polygon points="16,8 14,8 14,10 16,10 					"/>
				</g>
			</g>
		</g>
		<g>
			<g>
				<g>
					<polygon points="20,8 18,8 18,10 20,10 					"/>
				</g>
			</g>
		</g>
		<g>
			<g>
				<g>
					<polygon points="6,10 4,10 4,12 6,12 					"/>
				</g>
			</g>
		</g>
		<g>
			<g>
				<g>
					<polygon points="10,10 8,10 8,12 10,12 					"/>
				</g>
			</g>
		</g>
		<g>
			<g>
				<g>
					<polygon points="14,10 12,10 12,12 14,12 					"/>
				</g>
			</g>
		</g>
		<g>
			<g>
				<g>
					<polygon points="18,10 16,10 16,12 18,12 					"/>
				</g>
			</g>
		</g>
		<g>
			<g>
				<g>
					<polygon points="22,10 20,10 20,12 22,12 					"/>
				</g>
			</g>
		</g>
	</g>
</g>
</svg>
