<?xml version="1.0" encoding="utf-8"?>
<!-- Generator: Adobe Illustrator 19.2.0, SVG Export Plug-In . SVG Version: 6.00 Build 0)  -->
<svg version="1.1" id="Layer_1" xmlns="http://www.w3.org/2000/svg" xmlns:xlink="http://www.w3.org/1999/xlink" x="0px" y="0px"
	 viewBox="0 0 24 24" style="enable-background:new 0 0 24 24;" xml:space="preserve">
<style type="text/css">
	.st0{display:none;}
	.st1{display:inline;}
	.st2{fill:none;stroke:#000000;stroke-linecap:round;stroke-linejoin:round;stroke-miterlimit:10;}
</style>
<g id="Filled_Icons" class="st0">
	<g class="st1">
		<path d="M22.6,1.7c-0.4-0.3-1.1-0.3-1.4,0.1L9.4,16.5l-4.2-4.2c-0.4-0.4-1-0.4-1.4,0c-0.4,0.4-0.4,1,0,1.4l5,5
			C9,18.9,9.2,19,9.5,19c0.3,0,0.6-0.1,0.8-0.4L22.8,3.1C23.1,2.7,23.1,2.1,22.6,1.7z"/>
		<path d="M19,11c-0.6,0-1,0.4-1,1v10H2V6h12c0.6,0,1-0.4,1-1c0-0.6-0.4-1-1-1H1C0.4,4,0,4.4,0,5v18c0,0.6,0.4,1,1,1h18
			c0.6,0,1-0.4,1-1V12C20,11.4,19.6,11,19,11z"/>
	</g>
</g>
<g id="Outline_Icons">
	<g>
		<polyline class="st2" points="22.5,1.8 10,17.2 5,12.2 		"/>
		<polyline class="st2" points="19.5,11 19.5,22.5 1.5,22.5 1.5,4.5 14,4.5 		"/>
	</g>
</g>
</svg>
