<?xml version="1.0" encoding="utf-8"?>
<!-- Generator: Adobe Illustrator 19.2.0, SVG Export Plug-In . SVG Version: 6.00 Build 0)  -->
<svg version="1.1" id="Layer_1" xmlns="http://www.w3.org/2000/svg" xmlns:xlink="http://www.w3.org/1999/xlink" x="0px" y="0px"
	 viewBox="0 0 24 24" style="enable-background:new 0 0 24 24;" xml:space="preserve">
<style type="text/css">
	.st0{display:none;}
	.st1{display:inline;}
	.st2{fill:none;stroke:#000000;stroke-linecap:round;stroke-linejoin:round;stroke-miterlimit:10;}
</style>
<g id="Filled_Icons" class="st0">
	<g class="st1">
		<g>
			<path d="M5.1,22c-0.3,0-0.5-0.1-0.7-0.3l-4-4.1c-0.4-0.4-0.4-1,0-1.4c0.4-0.4,1-0.4,1.4,0L5,19.5c0.3-0.4,0.9-0.5,1.4-0.2
				c0.4,0.3,0.6,0.9,0.2,1.4l-0.7,1C5.7,21.8,5.4,22,5.1,22z"/>
		</g>
		<g>
			<path d="M9.1,16.4c-0.2,0-0.4-0.1-0.6-0.2c-0.4-0.3-0.6-0.9-0.2-1.4l8.3-11.6c0.3-0.4,0.9-0.6,1.4-0.2c0.4,0.3,0.6,0.9,0.2,1.4
				L10,15.9C9.8,16.2,9.5,16.4,9.1,16.4z"/>
		</g>
		<g>
			<path d="M10.6,22c-0.3,0-0.5-0.1-0.7-0.3l-5-5c-0.4-0.4-0.4-1,0-1.4c0.4-0.4,1-0.4,1.4,0l4.2,4.2L22.2,3.2
				c0.3-0.4,0.9-0.6,1.4-0.2c0.4,0.3,0.6,0.9,0.2,1.4L11.4,21.6C11.2,21.8,10.9,22,10.6,22z"/>
		</g>
	</g>
</g>
<g id="Outline_Icons">
	<g>
		<polyline class="st2" points="7,18.6 5.5,20.6 0.6,15.6 		"/>
		<line class="st2" x1="17.9" y1="3.4" x2="9.1" y2="15.7"/>
		<polyline class="st2" points="23.4,3.4 11.1,20.6 6.1,15.6 		"/>
	</g>
</g>
</svg>
