<?xml version="1.0" encoding="utf-8"?>
<!-- Generator: Adobe Illustrator 19.2.0, SVG Export Plug-In . SVG Version: 6.00 Build 0)  -->
<svg version="1.1" id="Layer_1" xmlns="http://www.w3.org/2000/svg" xmlns:xlink="http://www.w3.org/1999/xlink" x="0px" y="0px"
	 viewBox="0 0 24 24" style="enable-background:new 0 0 24 24;" xml:space="preserve">
<style type="text/css">
	.st0{display:none;}
	.st1{display:inline;}
	.st2{fill:none;stroke:#000000;stroke-linecap:round;stroke-linejoin:round;stroke-miterlimit:10;}
</style>
<g id="Filled_Icon" class="st0">
	<g class="st1">
		<path d="M15.5,0h-12C1.6,0,0,1.6,0,3.5v13C0,16.8,0.2,17,0.5,17H3v6.5C3,23.8,3.2,24,3.5,24h12c0.3,0,0.5-0.2,0.5-0.5V7
			c1.7-0.2,3-1.7,3-3.5C19,1.6,17.4,0,15.5,0z M3,4.5v2V16H1V3.5C1,2.1,2.1,1,3.5,1C4.9,1,6,2.1,6,3.5C6,3.7,6,3.8,5.9,4H3.5
			C3.2,4,3,4.2,3,4.5z M4,6L4,6l0-1h1.5c0,0.1-0.1,0.1-0.1,0.1C5,5.6,4.5,5.8,4,6z M8.4,12.9l-2,2C6.3,15,6.1,15,6,15
			c-0.1,0-0.3,0-0.4-0.1l-0.5-0.5c-0.2-0.2-0.2-0.5,0-0.7c0.2-0.2,0.5-0.2,0.7,0L6,13.8l1.6-1.6c0.2-0.2,0.5-0.2,0.7,0
			C8.5,12.3,8.5,12.7,8.4,12.9z M8.4,8.9l-2,2C6.3,11,6.1,11,6,11c-0.1,0-0.3,0-0.4-0.1l-0.5-0.5C5,10.2,5,9.8,5.1,9.6
			c0.2-0.2,0.5-0.2,0.7,0L6,9.8l1.6-1.6C7.8,8,8.2,8,8.4,8.1C8.5,8.3,8.5,8.7,8.4,8.9z M13.5,19h-4C9.2,19,9,18.8,9,18.5
			C9,18.2,9.2,18,9.5,18h4c0.3,0,0.5,0.2,0.5,0.5C14,18.8,13.8,19,13.5,19z M13.5,15h-4C9.2,15,9,14.8,9,14.5C9,14.2,9.2,14,9.5,14
			h4c0.3,0,0.5,0.2,0.5,0.5C14,14.8,13.8,15,13.5,15z M13.5,11h-4C9.2,11,9,10.8,9,10.5C9,10.2,9.2,10,9.5,10h4
			c0.3,0,0.5,0.2,0.5,0.5C14,10.8,13.8,11,13.5,11z"/>
		<rect x="20" y="15" width="4" height="6"/>
		<path d="M22,5.5c-0.7,0-1.4,0.4-1.7,1H20c-1.1,0-2,0.9-2,2V16c0,0.3,0.2,0.5,0.5,0.5c0.3,0,0.5-0.2,0.5-0.5V8.5c0-0.6,0.4-1,1-1
			V14h4V7.5C24,6.4,23.1,5.5,22,5.5z"/>
		<path d="M22,24c1.1,0,2-0.9,2-2h-4C20,23.1,20.9,24,22,24z"/>
	</g>
</g>
<g id="Outline_Icons">
	<g>
		<rect x="3.5" y="6.5" class="st2" width="12" height="17"/>
		<path class="st2" d="M3.5,16.5h-3v-13c0-1.7,1.3-3,3-3c1.7,0,3,1.3,3,3c0,1.7-1.3,3-3,3v-2h2.8"/>
		<path class="st2" d="M15.5,6.5c1.7,0,3-1.3,3-3c0-1.7-1.3-3-3-3h-12"/>
		<line class="st2" x1="9.5" y1="10.5" x2="13.5" y2="10.5"/>
		<line class="st2" x1="9.5" y1="14.5" x2="13.5" y2="14.5"/>
		<line class="st2" x1="9.5" y1="18.5" x2="13.5" y2="18.5"/>
		<polyline class="st2" points="5.5,10 6,10.5 8,8.5 		"/>
		<polyline class="st2" points="5.5,14 6,14.5 8,12.5 		"/>
		<path class="st2" d="M23.5,22c0,0.8-0.7,1.5-1.5,1.5c-0.8,0-1.5-0.7-1.5-1.5V7.5C20.5,6.7,21.2,6,22,6c0.8,0,1.5,0.7,1.5,1.5V22z"
			/>
		<line class="st2" x1="20.5" y1="21.5" x2="23.5" y2="21.5"/>
		<line class="st2" x1="20.5" y1="14.5" x2="23.5" y2="14.5"/>
		<path class="st2" d="M18.5,16V8.5C18.5,7.7,19.2,7,20,7h0.5"/>
	</g>
</g>
</svg>
