<?xml version="1.0" encoding="utf-8"?>
<!-- Generator: Adobe Illustrator 19.2.0, SVG Export Plug-In . SVG Version: 6.00 Build 0)  -->
<svg version="1.1" id="Layer_1" xmlns="http://www.w3.org/2000/svg" xmlns:xlink="http://www.w3.org/1999/xlink" x="0px" y="0px"
	 viewBox="0 0 24 24" style="enable-background:new 0 0 24 24;" xml:space="preserve">
<style type="text/css">
	.st0{display:none;}
	.st1{display:inline;}
	.st2{fill:none;stroke:#000000;stroke-linejoin:round;stroke-miterlimit:10;}
</style>
<g id="Filled_Icons" class="st0">
	<g class="st1">
		<g>
			<path d="M10.1,10.6c-0.1,0-0.3,0-0.4-0.1c-0.2-0.2-0.2-0.5,0-0.7L15.5,4c0.2-0.2,0.5-0.2,0.7,0l1.2,1.2c0.2,0.2,0.2,0.5,0,0.7
				c-0.2,0.2-0.5,0.2-0.7,0L15.8,5l-5.4,5.4C10.3,10.5,10.2,10.6,10.1,10.6z"/>
		</g>
		<g>
			<path d="M6,20.2c-0.1,0-0.3,0-0.4-0.1l-5.5-5.5C0,14.3,0,14,0.2,13.8l2.8-2.8c0.2-0.2,0.5-0.2,0.7,0l1,1c0.2,0.2,0.2,0.5,0,0.7
				c-0.2,0.2-0.5,0.2-0.7,0l-0.7-0.7l-2,2L6,19l0.5-0.5c0.2-0.2,0.5-0.2,0.7,0c0.2,0.2,0.2,0.5,0,0.7L6.4,20
				C6.3,20.1,6.1,20.2,6,20.2z"/>
		</g>
		<path d="M23.8,6.7L21.1,4c-0.2-0.2-0.5-0.2-0.7,0l-9.5,9.5l-2.4-2.4c-0.2-0.2-0.5-0.2-0.7,0l-2.7,2.7c-0.2,0.2-0.2,0.5,0,0.7
			l5.5,5.5c0.1,0.1,0.2,0.1,0.4,0.1c0.1,0,0.3-0.1,0.4-0.1L23.8,7.4C24,7.2,24,6.9,23.8,6.7z"/>
	</g>
</g>
<g id="Outline_Icons">
	<g>
		<polyline class="st2" points="17.3,5.8 15.8,4.3 9.7,10.4 		"/>
		<polyline class="st2" points="4.6,12.8 3.3,11.4 0.5,14.2 6,19.7 7.1,18.6 		"/>
		<g>
			<polygon class="st2" points="20.7,4.3 10.9,14.2 8.2,11.4 5.4,14.2 10.9,19.7 23.5,7.1 			"/>
		</g>
	</g>
</g>
</svg>
