<?xml version="1.0" encoding="utf-8"?>
<!-- Generator: Adobe Illustrator 19.2.0, SVG Export Plug-In . SVG Version: 6.00 Build 0)  -->
<svg version="1.1" id="Layer_1" xmlns="http://www.w3.org/2000/svg" xmlns:xlink="http://www.w3.org/1999/xlink" x="0px" y="0px"
	 viewBox="0 0 24 24" enable-background="new 0 0 24 24" xml:space="preserve">
<g id="Filled_Icons" display="none">
	<g display="inline">
		<path d="M19.58,4.48l-0.001-0.003c-0.017-2.469-2.026-4.472-4.498-4.472h-6c-2.472,0-4.482,2.003-4.499,4.47L4.581,4.48
			L3.663,21.902c-0.028,0.545,0.171,1.086,0.547,1.479c0.376,0.396,0.904,0.624,1.451,0.624h12.838c0.546,0,1.075-0.228,1.45-0.622
			c0.375-0.394,0.574-0.935,0.548-1.482L19.58,4.48z M7.581,21.006c-0.552,0-1-0.447-1-1c0-0.551,0.448-1,1-1c0.551,0,1,0.449,1,1
			C8.581,20.559,8.132,21.006,7.581,21.006z M14.081,11.006c0-0.551,0.448-1,1-1c0.551,0,1,0.449,1,1c0,0.553-0.449,1-1,1
			C14.529,12.006,14.081,11.559,14.081,11.006z M14.581,14.006c0,0.553-0.449,1-1,1c-0.552,0-1-0.447-1-1c0-0.551,0.448-1,1-1
			C14.132,13.006,14.581,13.455,14.581,14.006z M13.581,9.006c-0.552,0-1-0.447-1-1c0-0.551,0.448-1,1-1c0.551,0,1,0.449,1,1
			C14.581,8.559,14.132,9.006,13.581,9.006z M13.081,11.006c0,0.553-0.449,1-1,1c-0.552,0-1-0.447-1-1c0-0.551,0.448-1,1-1
			C12.632,10.006,13.081,10.455,13.081,11.006z M11.581,14.006c0,0.553-0.449,1-1,1c-0.552,0-1-0.447-1-1c0-0.551,0.448-1,1-1
			C11.132,13.006,11.581,13.455,11.581,14.006z M10.581,9.006c-0.552,0-1-0.447-1-1c0-0.551,0.448-1,1-1c0.551,0,1,0.449,1,1
			C11.581,8.559,11.132,9.006,10.581,9.006z M10.081,11.006c0,0.553-0.449,1-1,1c-0.552,0-1-0.447-1-1c0-0.551,0.448-1,1-1
			C9.632,10.006,10.081,10.455,10.081,11.006z M7.581,9.006c-0.552,0-1-0.447-1-1c0-0.551,0.448-1,1-1c0.551,0,1,0.449,1,1
			C8.581,8.559,8.132,9.006,7.581,9.006z M7.581,13.006c0.551,0,1,0.449,1,1c0,0.553-0.449,1-1,1c-0.552,0-1-0.447-1-1
			C6.581,13.455,7.029,13.006,7.581,13.006z M8.081,17.006c0-0.551,0.448-1,1-1c0.551,0,1,0.449,1,1c0,0.553-0.449,1-1,1
			C8.529,18.006,8.081,17.559,8.081,17.006z M10.581,21.006c-0.552,0-1-0.447-1-1c0-0.551,0.448-1,1-1c0.551,0,1,0.449,1,1
			C11.581,20.559,11.132,21.006,10.581,21.006z M11.081,17.006c0-0.551,0.448-1,1-1c0.551,0,1,0.449,1,1c0,0.553-0.449,1-1,1
			C11.529,18.006,11.081,17.559,11.081,17.006z M13.581,21.006c-0.552,0-1-0.447-1-1c0-0.551,0.448-1,1-1c0.551,0,1,0.449,1,1
			C14.581,20.559,14.132,21.006,13.581,21.006z M14.081,17.006c0-0.551,0.448-1,1-1c0.551,0,1,0.449,1,1c0,0.553-0.449,1-1,1
			C14.529,18.006,14.081,17.559,14.081,17.006z M16.581,21.006c-0.552,0-1-0.447-1-1c0-0.551,0.448-1,1-1c0.551,0,1,0.449,1,1
			C17.581,20.559,17.132,21.006,16.581,21.006z M16.581,15.006c-0.552,0-1-0.447-1-1c0-0.551,0.448-1,1-1c0.551,0,1,0.449,1,1
			C17.581,14.559,17.132,15.006,16.581,15.006z M16.581,9.006c-0.552,0-1-0.447-1-1c0-0.551,0.448-1,1-1c0.551,0,1,0.449,1,1
			C17.581,8.559,17.132,9.006,16.581,9.006z M5.616,4.006c0.243-1.693,1.704-3,3.465-3h6c1.76,0,3.222,1.307,3.464,3H5.616z"/>
	</g>
</g>
<g id="Outline_Icons">
	<g>
		<path fill="none" stroke="#000000" stroke-linecap="round" stroke-linejoin="round" stroke-miterlimit="10" d="M19.998,21.922
			c0.021,0.411-0.128,0.812-0.411,1.109c-0.282,0.3-0.676,0.469-1.088,0.469H5.661c-0.411,0-0.805-0.169-1.088-0.469
			c-0.283-0.297-0.432-0.698-0.41-1.109L5.081,4.5h14L19.998,21.922z"/>
		
			<circle fill="none" stroke="#000000" stroke-linecap="round" stroke-linejoin="round" stroke-miterlimit="10" cx="7.581" cy="8" r="0.5"/>
		
			<circle fill="none" stroke="#000000" stroke-linecap="round" stroke-linejoin="round" stroke-miterlimit="10" cx="10.581" cy="8" r="0.5"/>
		
			<circle fill="none" stroke="#000000" stroke-linecap="round" stroke-linejoin="round" stroke-miterlimit="10" cx="13.581" cy="8" r="0.5"/>
		
			<circle fill="none" stroke="#000000" stroke-linecap="round" stroke-linejoin="round" stroke-miterlimit="10" cx="16.581" cy="8" r="0.5"/>
		
			<circle fill="none" stroke="#000000" stroke-linecap="round" stroke-linejoin="round" stroke-miterlimit="10" cx="9.081" cy="11" r="0.5"/>
		
			<circle fill="none" stroke="#000000" stroke-linecap="round" stroke-linejoin="round" stroke-miterlimit="10" cx="12.081" cy="11" r="0.5"/>
		
			<circle fill="none" stroke="#000000" stroke-linecap="round" stroke-linejoin="round" stroke-miterlimit="10" cx="15.081" cy="11" r="0.5"/>
		
			<circle fill="none" stroke="#000000" stroke-linecap="round" stroke-linejoin="round" stroke-miterlimit="10" cx="9.081" cy="17" r="0.5"/>
		
			<circle fill="none" stroke="#000000" stroke-linecap="round" stroke-linejoin="round" stroke-miterlimit="10" cx="12.081" cy="17" r="0.5"/>
		
			<circle fill="none" stroke="#000000" stroke-linecap="round" stroke-linejoin="round" stroke-miterlimit="10" cx="15.081" cy="17" r="0.5"/>
		
			<circle fill="none" stroke="#000000" stroke-linecap="round" stroke-linejoin="round" stroke-miterlimit="10" cx="7.581" cy="14" r="0.5"/>
		
			<circle fill="none" stroke="#000000" stroke-linecap="round" stroke-linejoin="round" stroke-miterlimit="10" cx="10.581" cy="14" r="0.5"/>
		
			<circle fill="none" stroke="#000000" stroke-linecap="round" stroke-linejoin="round" stroke-miterlimit="10" cx="13.581" cy="14" r="0.5"/>
		
			<circle fill="none" stroke="#000000" stroke-linecap="round" stroke-linejoin="round" stroke-miterlimit="10" cx="16.581" cy="14" r="0.5"/>
		
			<circle fill="none" stroke="#000000" stroke-linecap="round" stroke-linejoin="round" stroke-miterlimit="10" cx="7.581" cy="20" r="0.5"/>
		
			<circle fill="none" stroke="#000000" stroke-linecap="round" stroke-linejoin="round" stroke-miterlimit="10" cx="10.581" cy="20" r="0.5"/>
		
			<circle fill="none" stroke="#000000" stroke-linecap="round" stroke-linejoin="round" stroke-miterlimit="10" cx="13.581" cy="20" r="0.5"/>
		
			<circle fill="none" stroke="#000000" stroke-linecap="round" stroke-linejoin="round" stroke-miterlimit="10" cx="16.581" cy="20" r="0.5"/>
		<path fill="none" stroke="#000000" stroke-linecap="round" stroke-linejoin="round" stroke-miterlimit="10" d="M19.081,4.5
			c0-2.209-1.791-4-4-4h-6c-2.21,0-4,1.791-4,4H19.081L19.081,4.5z"/>
	</g>
</g>
</svg>
