<?xml version="1.0" encoding="utf-8"?>
<!-- Generator: Adobe Illustrator 19.2.0, SVG Export Plug-In . SVG Version: 6.00 Build 0)  -->
<svg version="1.1" id="Layer_1" xmlns="http://www.w3.org/2000/svg" xmlns:xlink="http://www.w3.org/1999/xlink" x="0px" y="0px"
	 viewBox="0 0 24 24" enable-background="new 0 0 24 24" xml:space="preserve">
<g id="Filled_Icons" display="none">
	<g display="inline">
		<path d="M21.5,16.506h-19c-1.565,0-2.5,0.748-2.5,2c0,1.253,0.935,2,2.5,2h19c1.564,0,2.5-0.747,2.5-2
			C24,17.254,23.064,16.506,21.5,16.506z M21.277,17.922l-3,2c-0.084,0.057-0.18,0.084-0.277,0.084
			c-0.055,0-0.107-0.007-0.158-0.025l-6-2c-0.232-0.078-0.375-0.313-0.336-0.555c0.04-0.24,0.249-0.42,0.494-0.42h9
			c0.221,0,0.414,0.145,0.478,0.355C21.542,17.572,21.46,17.801,21.277,17.922z"/>
		<path d="M21.5,21.006h-19c-0.276,0-0.5,0.225-0.5,0.5v0.5c0,1.253,0.935,2,2.5,2h15c1.564,0,2.5-0.747,2.5-2v-0.5
			C22,21.231,21.775,21.006,21.5,21.006z"/>
		<path d="M24,11.006c0-1.158-1.33-1.693-2.022-1.894C21.773,3.896,17.56,0.006,12,0.006c-5.561,0-9.775,3.89-9.98,9.106
			C1.329,9.313,0,9.848,0,11.006c0,0.473,0.133,0.873,0.382,1.188C0.144,12.576,0,13.023,0,13.506c0,1.379,1.121,2.5,2.5,2.5h19
			c1.378,0,2.5-1.121,2.5-2.5c0-0.482-0.145-0.93-0.383-1.313C23.867,11.878,24,11.479,24,11.006z M17,4.006
			c0.275,0,0.5,0.225,0.5,0.5c0,0.276-0.225,0.5-0.5,0.5c-0.275,0-0.5-0.224-0.5-0.5C16.5,4.231,16.725,4.006,17,4.006z M14.5,3.006
			c0.275,0,0.5,0.225,0.5,0.5c0,0.276-0.225,0.5-0.5,0.5c-0.275,0-0.5-0.224-0.5-0.5C14,3.231,14.225,3.006,14.5,3.006z M12,4.006
			c0.275,0,0.5,0.225,0.5,0.5c0,0.276-0.225,0.5-0.5,0.5c-0.276,0-0.5-0.224-0.5-0.5C11.5,4.231,11.724,4.006,12,4.006z M9.5,3.006
			c0.275,0,0.5,0.225,0.5,0.5c0,0.276-0.225,0.5-0.5,0.5c-0.276,0-0.5-0.224-0.5-0.5C9,3.231,9.224,3.006,9.5,3.006z M7,4.006
			c0.275,0,0.5,0.225,0.5,0.5c0,0.276-0.225,0.5-0.5,0.5c-0.276,0-0.5-0.224-0.5-0.5C6.5,4.231,6.724,4.006,7,4.006z M21.5,12.006
			c-0.463,0-0.928-0.145-1.156-0.362c-0.111-0.106-0.268-0.155-0.42-0.131c-0.152,0.022-0.285,0.117-0.361,0.251
			c-0.313,0.566-0.926,1.242-2.062,1.242c-1.065,0-1.676-0.357-2.042-1.199c-0.079-0.182-0.259-0.301-0.458-0.301
			c-0.199,0-0.379,0.119-0.459,0.301c-0.387,0.884-1.564,1.199-2.541,1.199c-0.977,0-2.156-0.314-2.542-1.199
			C9.379,11.625,9.199,11.506,9,11.506c-0.199,0-0.379,0.119-0.459,0.301c-0.366,0.841-0.978,1.199-2.041,1.199
			c-1.138,0-1.749-0.675-2.063-1.241c-0.075-0.135-0.208-0.229-0.361-0.252c-0.155-0.024-0.309,0.024-0.421,0.131
			c-0.229,0.217-0.693,0.362-1.155,0.362c-1.5,0-1.5-0.752-1.5-1c0-0.5,1.033-0.885,1.552-1h18.895c0.519,0.115,1.553,0.5,1.553,1
			C23,11.254,23,12.006,21.5,12.006z"/>
	</g>
</g>
<g id="Outline_Icons">
	<g>
		<g>
			<g>
				<path d="M7.5,4.006c-0.276,0-0.5,0.223-0.5,0.5c0,0.275,0.224,0.5,0.5,0.5c0.276,0,0.5-0.225,0.5-0.5
					C8,4.229,7.776,4.006,7.5,4.006L7.5,4.006z"/>
			</g>
		</g>
		<g>
			<g>
				<path d="M9.5,3.006c-0.276,0-0.5,0.223-0.5,0.5c0,0.275,0.224,0.5,0.5,0.5c0.276,0,0.5-0.225,0.5-0.5
					C10,3.229,9.776,3.006,9.5,3.006L9.5,3.006z"/>
			</g>
		</g>
		<g>
			<g>
				<path d="M14.5,3.006c-0.275,0-0.5,0.223-0.5,0.5c0,0.275,0.225,0.5,0.5,0.5c0.275,0,0.5-0.225,0.5-0.5
					C15,3.229,14.775,3.006,14.5,3.006L14.5,3.006z"/>
			</g>
		</g>
		<g>
			<g>
				<path d="M12,4.006c-0.276,0-0.5,0.223-0.5,0.5c0,0.275,0.224,0.5,0.5,0.5c0.276,0,0.5-0.225,0.5-0.5
					C12.5,4.229,12.276,4.006,12,4.006L12,4.006z"/>
			</g>
		</g>
		<g>
			<g>
				<path d="M16.542,4.006c-0.276,0-0.5,0.223-0.5,0.5c0,0.275,0.224,0.5,0.5,0.5c0.276,0,0.5-0.225,0.5-0.5
					C17.042,4.229,16.818,4.006,16.542,4.006L16.542,4.006z"/>
			</g>
		</g>
		<polyline fill="none" stroke="#000000" stroke-linecap="round" stroke-linejoin="round" stroke-miterlimit="10" points="
			12,16.506 18,19.506 21,16.506 		"/>
		<path fill="none" stroke="#000000" stroke-linecap="round" stroke-linejoin="round" stroke-miterlimit="10" d="M23.5,18.506
			c0,1.104-0.895,2-2,2h-19c-1.104,0-2-0.896-2-2c0-1.105,0.896-2,2-2h19C22.605,16.506,23.5,17.4,23.5,18.506z"/>
		<path fill="none" stroke="#000000" stroke-linecap="round" stroke-linejoin="round" stroke-miterlimit="10" d="M21.5,12.506
			c1.105,0,2,0.895,2,2c0,1.104-0.895,2-2,2h-19c-1.104,0-2-0.896-2-2c0-1.105,0.896-2,2-2"/>
		<path fill="none" stroke="#000000" stroke-linecap="round" stroke-linejoin="round" stroke-miterlimit="10" d="M2.5,20.506v1
			c0,1.104,0.896,2,2,2h15c1.105,0,2-0.896,2-2v-1H2.5z"/>
		<path fill="none" stroke="#000000" stroke-linecap="round" stroke-linejoin="round" stroke-miterlimit="10" d="M21.5,9.506
			c0-5.247-4.254-9-9.5-9c-5.247,0-9.5,3.753-9.5,9H21.5z"/>
		<path fill="none" stroke="#000000" stroke-linecap="round" stroke-linejoin="round" stroke-miterlimit="10" d="M2.5,9.506
			c0,0-2,0.395-2,1.5c0,1.104,0.896,1.5,2,1.5c0.533,0,1.142-0.161,1.5-0.5c0.511,0.924,1.368,1.5,2.5,1.5
			c1.23,0,2.037-0.439,2.5-1.5c0.462,1.061,1.769,1.5,3,1.5c1.23,0,2.537-0.439,3-1.5c0.462,1.061,1.269,1.5,2.5,1.5
			c1.131,0,1.988-0.576,2.5-1.5c0.357,0.339,0.967,0.5,1.5,0.5c1.105,0,2-0.396,2-1.5c0-1.105-2-1.5-2-1.5"/>
	</g>
</g>
</svg>
