<?xml version="1.0" encoding="utf-8"?>
<!-- Generator: Adobe Illustrator 19.2.0, SVG Export Plug-In . SVG Version: 6.00 Build 0)  -->
<svg version="1.1" id="Layer_1" xmlns="http://www.w3.org/2000/svg" xmlns:xlink="http://www.w3.org/1999/xlink" x="0px" y="0px"
	 viewBox="0 0 24 24" enable-background="new 0 0 24 24" xml:space="preserve">
<g id="Filled_Icons" display="none">
	<g display="inline">
		<path d="M0,12.006v5.5c0,0.275,0.224,0.5,0.5,0.5c0.826,0,1.5,0.674,1.5,1.5c0,0.827-0.674,1.5-1.5,1.5
			c-0.276,0-0.5,0.225-0.5,0.5v2c0,0.145,0.062,0.281,0.17,0.376c0.092,0.081,0.209,0.124,0.33,0.124c0.021,0,0.043,0,0.064-0.004
			l23-3C23.812,20.971,24,20.758,24,20.506V9.01C24,9.01,0.021,12.006,0,12.006z M6,15.506c-0.827,0-1.5-0.673-1.5-1.5
			c0-0.826,0.673-1.5,1.5-1.5c0.826,0,1.5,0.674,1.5,1.5C7.5,14.833,6.826,15.506,6,15.506z M11,20.506c-1.379,0-2.5-1.121-2.5-2.5
			c0-1.378,1.121-2.5,2.5-2.5c1.378,0,2.5,1.122,2.5,2.5C13.5,19.385,12.378,20.506,11,20.506z M14,14.506c-0.553,0-1-0.447-1-1
			c0-0.551,0.447-1,1-1c0.551,0,1,0.449,1,1C15,14.059,14.551,14.506,14,14.506z M18,18.006c-0.553,0-1-0.447-1-1
			c0-0.551,0.447-1,1-1c0.551,0,1,0.449,1,1C19,17.559,18.551,18.006,18,18.006z M20,14.506c-1.104,0-2-0.896-2-2
			c0-1.103,0.896-2,2-2c1.103,0,2,0.897,2,2C22,13.609,21.103,14.506,20,14.506z"/>
		<path d="M23.98,8.014C23.605,2.852,17.357,0.006,13,0.006c-0.122,0-0.24,0.045-0.33,0.125L0.368,10.957L23.937,8.01
			C23.953,8.009,23.967,8.014,23.98,8.014z"/>
	</g>
</g>
<g id="Outline_Icons">
	<g>
		<path fill="none" stroke="#000000" stroke-linecap="round" stroke-linejoin="round" stroke-miterlimit="10" d="M0.5,11.5L13,0.5
			c4.5,0,10.5,3,10.5,8"/>
		
			<circle fill="none" stroke="#000000" stroke-linecap="round" stroke-linejoin="round" stroke-miterlimit="10" cx="20" cy="12.5" r="1.5"/>
		
			<circle fill="none" stroke="#000000" stroke-linecap="round" stroke-linejoin="round" stroke-miterlimit="10" cx="6" cy="14" r="1"/>
		
			<circle fill="none" stroke="#000000" stroke-linecap="round" stroke-linejoin="round" stroke-miterlimit="10" cx="18" cy="17" r="0.5"/>
		<g>
			<g>
				<path d="M14,13c-0.275,0-0.5,0.225-0.5,0.5c0,0.275,0.225,0.5,0.5,0.5c0.275,0,0.5-0.225,0.5-0.5C14.5,13.225,14.275,13,14,13
					L14,13z"/>
			</g>
		</g>
		
			<circle fill="none" stroke="#000000" stroke-linecap="round" stroke-linejoin="round" stroke-miterlimit="10" cx="11" cy="18" r="2"/>
		<path fill="none" stroke="#000000" stroke-linecap="round" stroke-linejoin="round" stroke-miterlimit="10" d="M0.5,11.5v6
			c1.105,0,2,0.895,2,2c0,1.104-0.895,2-2,2v2l23-3v-12L0.5,11.5z"/>
	</g>
</g>
</svg>
