<?xml version="1.0" encoding="utf-8"?>
<!-- Generator: Adobe Illustrator 19.2.0, SVG Export Plug-In . SVG Version: 6.00 Build 0)  -->
<svg version="1.1" id="Layer_1" xmlns="http://www.w3.org/2000/svg" xmlns:xlink="http://www.w3.org/1999/xlink" x="0px" y="0px"
	 viewBox="0 0 24 24" style="enable-background:new 0 0 24 24;" xml:space="preserve">
<style type="text/css">
	.st0{display:none;}
	.st1{display:inline;}
	.st2{fill:none;stroke:#000000;stroke-linecap:round;stroke-linejoin:round;stroke-miterlimit:10;}
</style>
<g id="Filled_Icons" class="st0">
	<g class="st1">
		<path d="M21.1,18.5l-5.2-1.4c0.6-0.8,1.1-1.7,1.2-2.8c0.3-0.1,0.7-0.4,0.9-1c0.2-0.5,0.3-1.1,0.3-1.8c0-0.7-0.1-1.1-0.3-1.3
			l0.4-3.4c0.7-0.5,1-1.3,1-2.1c0-1.5-1.2-2.8-2.8-2.8c-0.1,0-0.1,0-0.2,0c0.2,0.7,0.3,1.4,0.3,1.9c0,0.3-0.2,0.5-0.5,0.5
			c-0.3,0-0.5-0.2-0.5-0.5c0-0.5-0.1-1.1-0.3-1.7C14.9,0.9,13.5,0,12,0c-1.3,0-2.6,0.7-3.3,1.8C8.4,2.3,8.2,3.2,8.2,3.9
			c0,0.3-0.2,0.5-0.5,0.5c-0.3,0-0.5-0.2-0.5-0.5c0-0.5,0.1-1.2,0.3-1.9C7.4,2,7.3,2,7.2,2C5.7,2,4.5,3.2,4.5,4.8
			c0,0.8,0.4,1.6,1,2.1L6,10.2c-0.1,0.1-0.2,0.2-0.3,0.4c-0.1,0.2-0.2,0.6-0.2,0.9c0,1,0.5,2.5,1.4,2.9c0.1,1,0.6,2,1.2,2.8L3,18.5
			l0,0c-1.7,0.7-2.9,3.1-2.9,5V24h11.5v-4.6c0.2,0,0.3,0.1,0.5,0.1c0.2,0,0.3,0,0.5-0.1V24H24v-0.5C24,21.6,22.8,19.2,21.1,18.5z
			 M12,18.5c-1.1,0-4.1-1.8-4.1-4.5v-0.5H7.4c-0.2,0-0.5-0.2-0.6-0.7c-0.3-0.7-0.3-1.5-0.2-1.8l0.2-0.2c0,0,0.3-0.2,1.1-0.4
			C8.7,10.3,10,10,12,10c2,0,3.3,0.3,4.2,0.5c0.7,0.2,1,0.4,1.1,0.4l0,0c0.1,0.4,0.1,1.6-0.3,2.3c-0.2,0.3-0.3,0.3-0.3,0.3h-0.5V14
			C16.1,16.7,13.1,18.5,12,18.5z"/>
		<path d="M10.5,14c-1,0-1.5,1-1.5,2h3C12,15.2,11.5,14,10.5,14z"/>
		<path d="M13.5,14c-1,0-1.5,1.2-1.5,2h3C15,15,14.5,14,13.5,14z"/>
		<path d="M9.5,12c0.1,0,0.3,0,0.4,0H10h0.1c0.1,0,0.3,0,0.4,0c0,0.3,0.2,0.5,0.5,0.5c0.3,0,0.5-0.2,0.5-0.5c0-0.3-0.1-0.5-0.3-0.7
			C10.9,11,10.5,11,10.1,11H10H9.9c-0.4,0-0.8,0-1.1,0.3c-0.2,0.2-0.3,0.4-0.3,0.7c0,0.3,0.2,0.5,0.5,0.5C9.3,12.5,9.5,12.3,9.5,12z
			"/>
		<path d="M14.1,11H14h-0.1c-0.4,0-0.8,0-1.1,0.3c-0.2,0.2-0.3,0.4-0.3,0.7c0,0.3,0.2,0.5,0.5,0.5c0.3,0,0.5-0.2,0.5-0.5
			c0.1,0,0.3,0,0.4,0H14h0.1c0.1,0,0.3,0,0.4,0c0,0.3,0.2,0.5,0.5,0.5c0.3,0,0.5-0.2,0.5-0.5c0-0.3-0.1-0.5-0.3-0.7
			C14.9,11,14.5,11,14.1,11z"/>
	</g>
</g>
<g id="Outline_Icons">
	<g>
		<path class="st2" d="M9,17.5L3.1,19c-1.6,0.6-2.6,2.8-2.6,4.5l0,0h23l0,0c0-1.7-1-3.9-2.6-4.5L15,17.5"/>
		<line class="st2" x1="11.5" y1="23.5" x2="11.5" y2="19"/>
		<path class="st2" d="M6.5,10.5c-1,0-0.5,3.5,0.9,3.5c0,3,3.2,5,4.6,5"/>
		<path class="st2" d="M17.5,10.5c0.5,0,0.5,3.5-0.9,3.5c0,3-3.2,5-4.6,5"/>
		<g>
			<path class="st2" d="M6,6.6l0.5,3.9c0,0,1.5-1,5.5-1s5.5,1,5.5,1L18,6.6"/>
			<path class="st2" d="M8.5,4c0-0.3,0.1-0.7,0.1-1C8.3,2.7,7.8,2.5,7.2,2.5C6,2.5,5,3.5,5,4.8c0,0.8,0.4,1.5,1,1.9"/>
			<path class="st2" d="M18,6.6c0.6-0.4,1-1.1,1-1.9c0-1.2-1-2.2-2.2-2.2c-0.5,0-1,0.2-1.4,0.5c0.1,0.3,0.1,0.7,0.1,1"/>
			<path class="st2" d="M15.4,3c-0.4-1.4-1.8-2.5-3.4-2.5S9.1,1.6,8.6,3"/>
			<path class="st2" d="M8.6,3C8.6,3.3,8.5,3.7,8.5,4"/>
			<path class="st2" d="M15.5,4c0-0.3-0.1-0.7-0.1-1"/>
		</g>
		<g>
			<g>
				<g>
					<path d="M10.5,14c-1,0-1.5,1-1.5,2h3C12,15.2,11.5,14,10.5,14L10.5,14z"/>
				</g>
			</g>
		</g>
		<g>
			<g>
				<g>
					<path d="M13.5,14c-1,0-1.5,1.2-1.5,2h3C15,15,14.5,14,13.5,14L13.5,14z"/>
				</g>
			</g>
		</g>
		<path class="st2" d="M9,12c0-0.6,0.4-0.5,1-0.5c0.6,0,1-0.1,1,0.5"/>
		<path class="st2" d="M13,12c0-0.6,0.4-0.5,1-0.5c0.6,0,1-0.1,1,0.5"/>
	</g>
</g>
</svg>
