<?xml version="1.0" encoding="utf-8"?>
<!-- Generator: Adobe Illustrator 19.2.0, SVG Export Plug-In . SVG Version: 6.00 Build 0)  -->
<svg version="1.1" id="Layer_1" xmlns="http://www.w3.org/2000/svg" xmlns:xlink="http://www.w3.org/1999/xlink" x="0px" y="0px"
	 viewBox="0 0 24 24" enable-background="new 0 0 24 24" xml:space="preserve">
<g id="Filled_Icons" display="none">
	<g display="inline">
		<path d="M6.499,20.006h-1v3.5c0,0.275,0.224,0.5,0.5,0.5h11c0.276,0,0.5-0.225,0.5-0.5v-3.5h-1H6.499z"/>
		<path d="M17.001,2.566c-0.465,0-0.929,0.082-1.362,0.24c-0.697-1.638-2.326-2.74-4.138-2.74c-1.811,0-3.439,1.103-4.139,2.74
			c-0.435-0.158-0.896-0.24-1.361-0.24C3.795,2.566,2,4.361,2,6.566c0,2.074,1.501,3.732,3.499,3.971v8.469h1h2v-3.5
			c0-0.275,0.224-0.5,0.5-0.5c0.276,0,0.5,0.225,0.5,0.5v3.5h1.5v-4.5c0-0.275,0.224-0.5,0.5-0.5c0.276,0,0.5,0.225,0.5,0.5v4.5h1.5
			v-3.5c0-0.275,0.224-0.5,0.5-0.5c0.276,0,0.5,0.225,0.5,0.5v3.5h2h1v-8.469C19.498,10.299,21,8.641,21,6.566
			C21,4.361,19.206,2.566,17.001,2.566z"/>
	</g>
</g>
<g id="Outline_Icons">
	<g>
		<path fill="none" stroke="#000000" stroke-linecap="round" stroke-linejoin="round" stroke-miterlimit="10" d="M17.533,3.062
			c-0.6,0-1.162,0.15-1.654,0.415c-0.475-1.681-2.518-2.915-4.349-2.915c-1.832,0-3.901,1.234-4.376,2.915
			C6.662,3.212,6.099,3.062,5.502,3.062c-1.934,0-3.501,1.567-3.501,3.5c0,1.933,1.499,3.5,3.499,3.5V23.5h12.029V10.062
			c2,0,3.502-1.567,3.502-3.5C21.031,4.629,19.465,3.062,17.533,3.062z"/>
		
			<line fill="none" stroke="#000000" stroke-linecap="round" stroke-linejoin="round" stroke-miterlimit="10" x1="5.5" y1="19.5" x2="17.529" y2="19.5"/>
		
			<line fill="none" stroke="#000000" stroke-linecap="round" stroke-linejoin="round" stroke-miterlimit="10" x1="8.51" y1="15.5" x2="8.51" y2="19.5"/>
		
			<line fill="none" stroke="#000000" stroke-linecap="round" stroke-linejoin="round" stroke-miterlimit="10" x1="11.5" y1="14.5" x2="11.5" y2="19.5"/>
		
			<line fill="none" stroke="#000000" stroke-linecap="round" stroke-linejoin="round" stroke-miterlimit="10" x1="14.521" y1="15.5" x2="14.521" y2="19.5"/>
	</g>
</g>
</svg>
