<?xml version="1.0" encoding="utf-8"?>
<!-- Generator: Adobe Illustrator 19.2.0, SVG Export Plug-In . SVG Version: 6.00 Build 0)  -->
<svg version="1.1" id="Layer_1" xmlns="http://www.w3.org/2000/svg" xmlns:xlink="http://www.w3.org/1999/xlink" x="0px" y="0px"
	 viewBox="0 0 24 24" style="enable-background:new 0 0 24 24;" xml:space="preserve">
<style type="text/css">
	.st0{display:none;}
	.st1{display:inline;}
	.st2{fill:none;stroke:#000000;stroke-linecap:round;stroke-linejoin:round;stroke-miterlimit:10;}
</style>
<g id="Filled_Icon" class="st0">
	<g class="st1">
		<path d="M23.5,8h-9.3l-7.3,7.3c-0.1,0.1-0.1,0.1-0.2,0.1c0,0,0,0,0,0l-3,1c-0.1,0-0.1,0-0.2,0c-0.1,0-0.3-0.1-0.4-0.1
			c-0.1-0.1-0.2-0.3-0.1-0.5l1-3c0,0,0,0,0,0c0-0.1,0.1-0.1,0.1-0.2L8.8,8H0.5C0.2,8,0,8.2,0,8.5v13C0,21.8,0.2,22,0.5,22h23
			c0.3,0,0.5-0.2,0.5-0.5v-13C24,8.2,23.8,8,23.5,8z M20.5,18h-12C8.2,18,8,17.8,8,17.5C8,17.2,8.2,17,8.5,17h12
			c0.3,0,0.5,0.2,0.5,0.5C21,17.8,20.8,18,20.5,18z M20.5,15h-8c-0.3,0-0.5-0.2-0.5-0.5c0-0.3,0.2-0.5,0.5-0.5h8
			c0.3,0,0.5,0.2,0.5,0.5C21,14.8,20.8,15,20.5,15z"/>
		<rect x="4.5" y="9.3" transform="matrix(0.707 -0.7072 0.7072 0.707 -4.455 9.5793)" width="9.6" height="1.8"/>
		<polygon points="4.4,15.1 5.7,14.7 4.8,13.8 		"/>
		<path d="M9.6,5.9c0.1,0,0.3,0,0.4-0.1l2.6-2.6l0.5,0.5l0.7,0.7l-1,1l1.3,1.3l2.8-2.8l-1.3-1.3l-1,1L13.8,3l-0.9-0.9
			c-0.2-0.2-0.5-0.2-0.7,0l-3,3C9,5.3,9,5.6,9.2,5.8C9.3,5.9,9.5,5.9,9.6,5.9z"/>
	</g>
</g>
<g id="Outline_Icons">
	<g>
		<polygon class="st2" points="5.5,16 2.5,17 3.5,14 14.5,3 16.5,5 		"/>
		<line class="st2" x1="3.5" y1="14" x2="5.5" y2="16"/>
		<line class="st2" x1="8.5" y1="17.5" x2="20.5" y2="17.5"/>
		<line class="st2" x1="12.5" y1="14.5" x2="20.5" y2="14.5"/>
		<polyline class="st2" points="13,8.5 23.5,8.5 23.5,21.5 0.5,21.5 0.5,8.5 9,8.5 		"/>
		<line class="st2" x1="11" y1="6.5" x2="13" y2="8.5"/>
		<polyline class="st2" points="8.5,6.5 11.5,3.5 12.8,4.8 		"/>
	</g>
</g>
</svg>
