<?xml version="1.0" encoding="utf-8"?>
<!-- Generator: Adobe Illustrator 19.2.0, SVG Export Plug-In . SVG Version: 6.00 Build 0)  -->
<svg version="1.1" id="Layer_1" xmlns="http://www.w3.org/2000/svg" xmlns:xlink="http://www.w3.org/1999/xlink" x="0px" y="0px"
	 viewBox="0 0 24 24" enable-background="new 0 0 24 24" xml:space="preserve">
<g id="Filled_Icons" display="none">
	<path display="inline" d="M16.609,12.012c-0.897-3.668-0.795-7.433,0.244-10.952c0.06-0.201-0.014-0.417-0.181-0.542
		c-0.167-0.125-0.396-0.133-0.569-0.021c-4.23,2.725-7.401,6.83-8.978,11.58C4.231,12.502,2,14.995,2,18.006c0,3.309,2.691,6,6,6
		c3.309,0,6-2.691,6-6c0-3.238-2.58-5.879-5.792-5.989c1.397-3.957,3.957-7.428,7.343-9.924c-0.736,3.229-0.748,6.62,0.049,9.984
		c-0.938,0.144-1.82,0.506-2.586,1.054C14.24,14.393,15,16.111,15,18.006c0,1.895-0.76,3.612-1.986,4.874
		c1.008,0.724,2.217,1.126,3.486,1.126c3.309,0,6-2.691,6-6C22.5,14.734,19.867,12.07,16.609,12.012z"/>
</g>
<g id="Outline_Icons">
	<g>
		<circle fill="none" stroke="#000000" stroke-linejoin="round" stroke-miterlimit="10" cx="8" cy="18" r="5.5"/>
		<path fill="none" stroke="#000000" stroke-linejoin="round" stroke-miterlimit="10" d="M12.25,14.509
			c1.008-1.228,2.538-2.009,4.25-2.009c3.037,0,5.5,2.462,5.5,5.5c0,3.037-2.463,5.5-5.5,5.5c-1.712,0-3.24-0.781-4.249-2.008"/>
		<path fill="none" stroke="#000000" stroke-linejoin="round" stroke-miterlimit="10" d="M16.213,12.51
			C15.748,10.752,15.5,8.904,15.5,7c0-2.115,0.305-4.157,0.874-6.088C12.199,3.6,9.016,7.693,7.492,12.523"/>
	</g>
</g>
</svg>
