<?xml version="1.0" encoding="utf-8"?>
<!-- Generator: Adobe Illustrator 19.2.0, SVG Export Plug-In . SVG Version: 6.00 Build 0)  -->
<svg version="1.1" id="Layer_1" xmlns="http://www.w3.org/2000/svg" xmlns:xlink="http://www.w3.org/1999/xlink" x="0px" y="0px"
	 viewBox="0 0 24 24" enable-background="new 0 0 24 24" xml:space="preserve">
<g id="Filled_Icons" display="none">
	<g display="inline">
		<path d="M16.833,17.006c-1.378-3.25-2.273-6.036-0.873-9.303c0.065-0.154,0.05-0.332-0.043-0.473
			c-0.092-0.14-0.249-0.225-0.417-0.225h-7c-0.168,0-0.325,0.085-0.417,0.225C7.99,7.371,7.975,7.549,8.04,7.703
			c1.401,3.267,0.506,6.053-0.872,9.303H16.833z"/>
		<path d="M18.924,18.006H5.076c-0.54,0.521-0.912,1.219-1.025,2h15.898C19.836,19.225,19.464,18.527,18.924,18.006z"/>
		<path d="M15.426,6.006c0.352-0.59,0.574-1.264,0.574-2c0-2.205-1.794-4-4-4c-2.206,0-4,1.795-4,4c0,0.736,0.223,1.41,0.574,2
			H15.426z"/>
		<path d="M3,21.006v2.5c0,0.275,0.224,0.5,0.5,0.5h17c0.275,0,0.5-0.225,0.5-0.5v-2.5H3z"/>
	</g>
</g>
<g id="Outline_Icons">
	<g>
		
			<circle fill="none" stroke="#000000" stroke-linecap="round" stroke-linejoin="round" stroke-miterlimit="10" cx="12" cy="4" r="3.5"/>
		<path fill="none" stroke="#000000" stroke-linecap="round" stroke-linejoin="round" stroke-miterlimit="10" d="M8.5,7.5h7
			c-1.5,3.5-0.5,6.5,1,10h-9C9,14,10,11,8.5,7.5z"/>
		
			<rect x="3.5" y="20.5" fill="none" stroke="#000000" stroke-linecap="round" stroke-linejoin="round" stroke-miterlimit="10" width="17" height="3"/>
		<path fill="none" stroke="#000000" stroke-linecap="round" stroke-linejoin="round" stroke-miterlimit="10" d="M19.5,20.5
			c0-1.656-1.344-3-3-3h-9c-1.657,0-3,1.344-3,3H19.5z"/>
	</g>
</g>
</svg>
