<?xml version="1.0" encoding="utf-8"?>
<!-- Generator: Adobe Illustrator 19.2.0, SVG Export Plug-In . SVG Version: 6.00 Build 0)  -->
<svg version="1.1" id="Layer_1" xmlns="http://www.w3.org/2000/svg" xmlns:xlink="http://www.w3.org/1999/xlink" x="0px" y="0px"
	 viewBox="0 0 24 24" enable-background="new 0 0 24 24" xml:space="preserve">
<g id="Filled_Icons" display="none">
	<g display="inline">
		<path d="M13.478,5.564c0-0.526-0.213-1.042-0.586-1.414c-0.749-0.749-2.075-0.751-2.829,0L9.009,5.206V2.535c0-1.103-0.897-2-2-2
			s-2,0.897-2,2v2.672L3.983,4.182c-0.749-0.75-2.078-0.75-2.828,0C0.777,4.56,0.569,5.062,0.569,5.596
			c0,0.526,0.213,1.042,0.586,1.414l3.854,3.853v3.672c0,1.103,0.897,2,2,2s2-0.897,2-2v-3.672l3.886-3.885
			C13.266,6.606,13.478,6.091,13.478,5.564z"/>
		<path d="M23.831,13.962c-0.212-0.481-0.616-0.866-1.104-1.058c-0.494-0.19-1.049-0.18-1.531,0.031l-1.368,0.603l0.969-2.489
			c0.192-0.497,0.183-1.041-0.032-1.53c-0.215-0.488-0.607-0.865-1.104-1.059c-1.015-0.394-2.198,0.132-2.591,1.138L16.1,12.086
			l-0.584-1.326c-0.215-0.49-0.607-0.866-1.104-1.059c-0.491-0.191-1.047-0.18-1.53,0.032c-0.482,0.213-0.869,0.615-1.059,1.105
			c-0.192,0.491-0.181,1.05,0.031,1.53l2.193,4.989l-1.332,3.42c-0.4,1.027,0.11,2.189,1.139,2.591
			c0.232,0.091,0.478,0.137,0.726,0.137c0.831,0,1.564-0.5,1.864-1.274l1.332-3.422l5.029-2.209
			c0.489-0.217,0.864-0.608,1.059-1.106C24.057,14.997,24.046,14.453,23.831,13.962z"/>
	</g>
</g>
<g id="Outline_Icons">
	<g>
		<path fill="none" stroke="#000000" stroke-linejoin="round" stroke-miterlimit="10" d="M12.54,6.619
			c0.28-0.281,0.438-0.663,0.438-1.061c0-0.398-0.158-0.779-0.438-1.061c-0.281-0.282-0.663-0.439-1.061-0.439
			c-0.398,0-0.779,0.158-1.062,0.439l-1.909,1.91V2.529c0-0.829-0.672-1.5-1.5-1.5c-0.828,0-1.5,0.671-1.5,1.5v3.879L3.63,4.529
			C3.349,4.248,2.967,4.09,2.569,4.09c-0.398,0-0.779,0.158-1.061,0.439C1.226,4.81,1.069,5.191,1.069,5.59
			c0,0.397,0.158,0.779,0.439,1.061l4,4v3.878c0,0.828,0.672,1.5,1.5,1.5c0.828,0,1.5-0.672,1.5-1.5V10.65L12.54,6.619z"/>
		<path fill="none" stroke="#000000" stroke-linejoin="round" stroke-miterlimit="10" d="M22.603,16.137
			c0.363-0.16,0.649-0.459,0.795-0.83c0.145-0.369,0.136-0.783-0.024-1.147c-0.16-0.363-0.459-0.649-0.829-0.793
			c-0.371-0.145-0.783-0.138-1.148,0.023l-2.473,1.088l1.407-3.615c0.301-0.771-0.081-1.641-0.854-1.941
			c-0.772-0.3-1.642,0.081-1.941,0.854l-1.406,3.614l-1.068-2.433c-0.16-0.364-0.459-0.65-0.83-0.794
			c-0.369-0.145-0.783-0.136-1.146,0.024c-0.363,0.16-0.65,0.459-0.794,0.829c-0.145,0.37-0.137,0.784,0.023,1.147l2.276,5.179
			l-1.407,3.614c-0.301,0.771,0.082,1.643,0.854,1.941c0.773,0.301,1.642-0.08,1.942-0.854l1.406-3.613L22.603,16.137z"/>
	</g>
</g>
</svg>
