<?xml version="1.0" encoding="utf-8"?>
<!-- Generator: Adobe Illustrator 19.2.0, SVG Export Plug-In . SVG Version: 6.00 Build 0)  -->
<svg version="1.1" id="Layer_1" xmlns="http://www.w3.org/2000/svg" xmlns:xlink="http://www.w3.org/1999/xlink" x="0px" y="0px"
	 viewBox="0 0 24 24" enable-background="new 0 0 24 24" xml:space="preserve">
<g id="Filled_Icons" display="none">
	<g display="inline">
		<path d="M9.731,17.087l-2.828-2.829l-1.488,1.488c-0.744-0.818-1.627-1.264-2.532-1.264c-1.144,0-2.214,0.731-2.664,1.818
			c-0.461,1.112-0.188,2.323,0.729,3.24c0.814,0.815,1.936,0.951,2.637,0.928c-0.026,0.695,0.084,1.793,0.883,2.592
			c0.617,0.619,1.357,0.944,2.142,0.944c1.245,0,2.387-0.837,2.775-2.036c0.38-1.174-0.044-2.412-1.139-3.396L9.731,17.087z"/>
		<path d="M21.826,2.236c-1.393-1.392-2.914-2.097-4.525-2.097c-4.408,0-8.187,5.258-9.65,8.792c-0.51,1.23-1.232,3.427-0.345,4.314
			l3.535,3.534c0.241,0.242,0.615,0.363,1.112,0.363c2.748,0,9.652-3.666,11.488-8.099C24.437,6.644,23.878,4.289,21.826,2.236z"/>
	</g>
</g>
<g id="Outline_Icons">
	<g>
		<path fill="none" stroke="#000000" stroke-linejoin="round" stroke-miterlimit="10" d="M4.821,22.702
			c-1.053-1.054-0.673-2.796-0.673-2.796s-1.76,0.363-2.847-0.725c-2.493-2.492,1.381-6.367,4.076-2.697l2.939-2.939l2.122,2.121
			L7.5,18.606C11.19,21.277,7.315,25.197,4.821,22.702z"/>
		<path fill="none" stroke="#000000" stroke-linejoin="round" stroke-miterlimit="10" d="M11.194,16.422l-3.535-3.535
			c-1.89-1.892,6.437-17.68,13.813-10.303C28.902,10.014,12.846,18.07,11.194,16.422z"/>
	</g>
</g>
</svg>
