<?xml version="1.0" encoding="utf-8"?>
<!-- Generator: Adobe Illustrator 19.2.0, SVG Export Plug-In . SVG Version: 6.00 Build 0)  -->
<svg version="1.1" id="Layer_1" xmlns="http://www.w3.org/2000/svg" xmlns:xlink="http://www.w3.org/1999/xlink" x="0px" y="0px"
	 viewBox="0 0 24 24" enable-background="new 0 0 24 24" xml:space="preserve">
<g id="Filled_Icons" display="none">
	<g display="inline">
		<path d="M22.857,0.806c-0.221-0.167-0.535-0.125-0.7,0.095L18.98,5.076c-0.359-0.168-0.734-0.279-1.133-0.279
			c-1.384,0-2.693,1.036-3.568,1.929c2.865-0.15,4.715,1.106,5.375,3.557c0.507-0.954,1.003-2.235,0.807-3.356
			c-0.089-0.507-0.312-0.934-0.652-1.287l3.144-4.133C23.12,1.286,23.077,0.973,22.857,0.806z"/>
		<path d="M18.863,11.324c-0.387-2.788-2.146-3.992-5.315-3.544c-2.158,0.308-3.879,3.839-5.397,6.955
			c-0.625,1.283-1.221,2.504-1.754,3.301l2.382,1.189c0.247,0.123,0.347,0.424,0.224,0.67c-0.088,0.176-0.265,0.276-0.447,0.276
			c-0.075,0-0.151-0.019-0.224-0.053l-2.51-1.253l0.708,2.149c0.087,0.262-0.056,0.545-0.318,0.633
			C6.16,21.663,6.108,21.67,6.056,21.67c-0.21,0-0.405-0.133-0.475-0.344l-0.612-1.856c-1.211,0.766-2.464,0.663-3.34,0.617
			c-0.347-0.02-0.632-0.033-0.868-0.008c-0.306,0.033-0.57,0.229-0.689,0.508c-0.123,0.279-0.085,0.605,0.1,0.852
			c0.716,0.953,2.804,2.566,6.085,2.566c3.093,0,6.77-2.956,9.179-5.723C17.268,16.178,19.131,13.244,18.863,11.324z"/>
	</g>
</g>
<g id="Outline_Icons">
	<g>
		<path fill="none" stroke="#000000" stroke-linejoin="round" stroke-miterlimit="10" d="M18.369,11.387
			c-0.379-2.724-2.16-3.484-4.751-3.117c-2.861,0.407-5.214,8.02-7.063,10.396c-2.021,2.6-4.693,1.798-5.74,1.904
			c-0.126,0.015-0.235,0.095-0.285,0.211c-0.051,0.115-0.035,0.25,0.041,0.352c0.597,0.795,2.53,2.367,5.686,2.367
			C11.202,23.5,18.846,14.818,18.369,11.387z"/>
		<path fill="none" stroke="#000000" stroke-linejoin="round" stroke-miterlimit="10" d="M13.618,8.27c0,0,2.952-4.213,5.436-2.619
			c2.484,1.595-0.686,5.736-0.686,5.736"/>
		
			<line fill="none" stroke="#000000" stroke-linecap="round" stroke-linejoin="round" stroke-miterlimit="10" x1="6.555" y1="18.666" x2="8.555" y2="19.666"/>
		
			<line fill="none" stroke="#000000" stroke-linecap="round" stroke-linejoin="round" stroke-miterlimit="10" x1="5.555" y1="19.666" x2="6.055" y2="21.166"/>
		
			<line fill="none" stroke="#000000" stroke-linecap="round" stroke-linejoin="round" stroke-miterlimit="10" x1="19.129" y1="5.7" x2="22.555" y2="1.197"/>
	</g>
</g>
</svg>
