<?xml version="1.0" encoding="utf-8"?>
<!-- Generator: Adobe Illustrator 19.2.0, SVG Export Plug-In . SVG Version: 6.00 Build 0)  -->
<svg version="1.1" id="Layer_1" xmlns="http://www.w3.org/2000/svg" xmlns:xlink="http://www.w3.org/1999/xlink" x="0px" y="0px"
	 viewBox="0 0 24 24" enable-background="new 0 0 24 24" xml:space="preserve">
<g id="Filled_Icons" display="none">
	<g display="inline">
		<path d="M17.445,19.576c-0.154,0.41-0.481,0.732-0.893,0.882c-0.166,0.062-0.34,0.09-0.513,0.09c-0.257,0-0.513-0.066-0.739-0.194
			L4,13.945v7.561c0,1.379,1.121,2.5,2.5,2.5h10c1.379,0,2.5-1.121,2.5-2.5V15.44L17.445,19.576z"/>
		<path d="M18.911,12.222c-0.095-0.135-0.247-0.216-0.411-0.216h-14c-0.227,0-0.426,0.153-0.483,0.373
			c-0.058,0.219,0.039,0.45,0.237,0.562l11.541,6.543c0.075,0.043,0.16,0.063,0.246,0.063c0.059,0,0.115-0.009,0.171-0.028
			c0.138-0.051,0.246-0.158,0.297-0.295l2.459-6.543C19.025,12.527,19.005,12.356,18.911,12.222z"/>
		<g>
			<polygon points="5.852,5.006 11,5.006 11,0.593 			"/>
			<path d="M18,5.006v-3.5c0-0.27-0.077-0.521-0.203-0.739l-4.945,4.239H18z"/>
			<polygon points="17.148,6.006 12,6.006 12,10.419 			"/>
			<polygon points="11,6.593 5.852,11.006 11,11.006 			"/>
			<polygon points="5,6.006 5,10.419 10.148,6.006 			"/>
			<path d="M12,4.419l5.029-4.312c-0.164-0.063-0.342-0.102-0.529-0.102H12V4.419z"/>
			<path d="M10.148,0.006H6.5c-0.827,0-1.5,0.673-1.5,1.5v2.913L10.148,0.006z"/>
			<polygon points="18,6.593 12.852,11.006 18,11.006 			"/>
		</g>
	</g>
</g>
<g id="Outline_Icons">
	<g>
		<path fill="none" stroke="#000000" stroke-linejoin="round" stroke-miterlimit="10" d="M18.5,21.5c0,1.104-0.897,2-2,2h-10
			c-1.104,0-2-0.896-2-2v-9h14V21.5z"/>
		<path fill="none" stroke="#000000" stroke-linejoin="round" stroke-miterlimit="10" d="M17.5,1.5c0-0.553-0.447-1-1-1h-10
			c-0.553,0-1,0.447-1,1v11h12V1.5z"/>
		<polygon fill="none" stroke="#000000" stroke-linejoin="round" stroke-miterlimit="10" points="4.5,12.5 16.041,19.042 18.5,12.5 
					"/>
		<line fill="none" stroke="#000000" stroke-linejoin="round" stroke-miterlimit="10" x1="11.5" y1="12.5" x2="11.5" y2="0.5"/>
		<line fill="none" stroke="#000000" stroke-linejoin="round" stroke-miterlimit="10" x1="5.5" y1="6.5" x2="17.5" y2="6.5"/>
		<line fill="none" stroke="#000000" stroke-linejoin="round" stroke-miterlimit="10" x1="6" y1="6.5" x2="11.234" y2="0.5"/>
		<line fill="none" stroke="#000000" stroke-linejoin="round" stroke-miterlimit="10" x1="12" y1="6.5" x2="17.25" y2="0.842"/>
		<line fill="none" stroke="#000000" stroke-linejoin="round" stroke-miterlimit="10" x1="5.781" y1="12.5" x2="11" y2="6.5"/>
		<line fill="none" stroke="#000000" stroke-linejoin="round" stroke-miterlimit="10" x1="11.781" y1="12.5" x2="17.25" y2="6.5"/>
	</g>
</g>
</svg>
