<?xml version="1.0" encoding="utf-8"?>
<!-- Generator: Adobe Illustrator 19.2.0, SVG Export Plug-In . SVG Version: 6.00 Build 0)  -->
<svg version="1.1" id="Layer_1" xmlns="http://www.w3.org/2000/svg" xmlns:xlink="http://www.w3.org/1999/xlink" x="0px" y="0px"
	 viewBox="0 0 24 24" enable-background="new 0 0 24 24" xml:space="preserve">
<g id="Filled_Icons" display="none">
	<g display="inline">
		<path d="M5.084,12.229c-0.103,0.153-0.112,0.351-0.024,0.514c0.087,0.161,0.256,0.264,0.44,0.264h2l-0.638,0.851l10.287-2.777
			l-2.176-3.266l-8.531,2.378L5.084,12.229z M13.5,10.006c0.275,0,0.5,0.225,0.5,0.5c0,0.277-0.225,0.5-0.5,0.5
			c-0.275,0-0.5-0.223-0.5-0.5C13,10.23,13.225,10.006,13.5,10.006z M11.5,11.006c0.275,0,0.5,0.225,0.5,0.5
			c0,0.277-0.225,0.5-0.5,0.5c-0.276,0-0.5-0.223-0.5-0.5C11,11.23,11.224,11.006,11.5,11.006z M9.5,10.006
			c0.275,0,0.5,0.225,0.5,0.5c0,0.277-0.225,0.5-0.5,0.5c-0.276,0-0.5-0.223-0.5-0.5C9,10.23,9.224,10.006,9.5,10.006z"/>
		<path d="M7.5,7.006h1.065l-1.273,1.91l8.706-2.427c-0.003-0.091-4.082-6.261-4.082-6.261c-0.186-0.277-0.646-0.277-0.832,0l-4,6
			C6.981,6.382,6.972,6.579,7.06,6.742C7.146,6.904,7.315,7.006,7.5,7.006z M11.5,4.006c0.275,0,0.5,0.225,0.5,0.5
			c0,0.277-0.225,0.5-0.5,0.5c-0.276,0-0.5-0.223-0.5-0.5C11,4.23,11.224,4.006,11.5,4.006z M11.5,6.006c0.275,0,0.5,0.225,0.5,0.5
			c0,0.277-0.225,0.5-0.5,0.5c-0.276,0-0.5-0.223-0.5-0.5C11,6.23,11.224,6.006,11.5,6.006z"/>
		<path d="M15.5,13.006h2c0.185,0,0.353-0.102,0.439-0.264c0.088-0.163,0.078-0.36-0.023-0.514l-0.182-0.273L5.887,15.154
			L3.6,18.206c-0.113,0.151-0.132,0.354-0.047,0.522c0.085,0.17,0.258,0.277,0.447,0.277h6.5v4c0,0.553,0.447,1,1,1
			c0.553,0,1-0.447,1-1v-4H19c0.189,0,0.361-0.108,0.447-0.275c0.085-0.17,0.066-0.373-0.047-0.524L15.5,13.006z M7.5,17.006
			c-0.276,0-0.5-0.223-0.5-0.5c0-0.275,0.224-0.5,0.5-0.5c0.275,0,0.5,0.225,0.5,0.5C8,16.783,7.775,17.006,7.5,17.006z
			 M10.5,17.006c-0.276,0-0.5-0.223-0.5-0.5c0-0.275,0.224-0.5,0.5-0.5c0.275,0,0.5,0.225,0.5,0.5
			C11,16.783,10.775,17.006,10.5,17.006z M13.5,15.006c-0.275,0-0.5-0.223-0.5-0.5c0-0.275,0.225-0.5,0.5-0.5
			c0.275,0,0.5,0.225,0.5,0.5C14,14.783,13.775,15.006,13.5,15.006z M14.5,17.006c-0.275,0-0.5-0.223-0.5-0.5
			c0-0.275,0.225-0.5,0.5-0.5c0.275,0,0.5,0.225,0.5,0.5C15,16.783,14.775,17.006,14.5,17.006z"/>
	</g>
</g>
<g id="Outline_Icons">
	<g>
		<g>
			<polygon fill="none" stroke="#000000" stroke-linejoin="round" stroke-miterlimit="10" points="17.5,12.5 13.5,6.5 15.5,6.5 
				11.5,0.5 7.5,6.5 9.5,6.5 5.5,12.5 8.5,12.5 4,18.5 19,18.5 14.5,12.5 			"/>
			
				<line fill="none" stroke="#000000" stroke-linecap="round" stroke-linejoin="round" stroke-miterlimit="10" x1="11.5" y1="18.5" x2="11.5" y2="23.5"/>
		</g>
		<g>
			<path d="M11.5,11c-0.276,0-0.5,0.225-0.5,0.5c0,0.277,0.224,0.5,0.5,0.5c0.275,0,0.5-0.223,0.5-0.5C12,11.225,11.775,11,11.5,11
				L11.5,11z"/>
		</g>
		<g>
			<path d="M14.5,16c-0.275,0-0.5,0.225-0.5,0.5c0,0.277,0.225,0.5,0.5,0.5c0.275,0,0.5-0.223,0.5-0.5C15,16.225,14.775,16,14.5,16
				L14.5,16z"/>
		</g>
		<g>
			<path d="M9.5,10C9.224,10,9,10.225,9,10.5C9,10.777,9.224,11,9.5,11c0.275,0,0.5-0.223,0.5-0.5C10,10.225,9.775,10,9.5,10L9.5,10
				z"/>
		</g>
		<g>
			<path d="M11.5,4C11.224,4,11,4.225,11,4.5C11,4.777,11.224,5,11.5,5C11.775,5,12,4.777,12,4.5C12,4.225,11.775,4,11.5,4L11.5,4z"
				/>
		</g>
		<g>
			<path d="M13.5,14c-0.275,0-0.5,0.225-0.5,0.5c0,0.277,0.225,0.5,0.5,0.5c0.275,0,0.5-0.223,0.5-0.5C14,14.225,13.775,14,13.5,14
				L13.5,14z"/>
		</g>
		<g>
			<path d="M13.5,10c-0.275,0-0.5,0.225-0.5,0.5c0,0.277,0.225,0.5,0.5,0.5c0.275,0,0.5-0.223,0.5-0.5C14,10.225,13.775,10,13.5,10
				L13.5,10z"/>
		</g>
		<g>
			<path d="M7.5,16C7.224,16,7,16.225,7,16.5C7,16.777,7.224,17,7.5,17C7.775,17,8,16.777,8,16.5C8,16.225,7.775,16,7.5,16L7.5,16z"
				/>
		</g>
		<g>
			<path d="M10.5,16c-0.276,0-0.5,0.225-0.5,0.5c0,0.277,0.224,0.5,0.5,0.5c0.275,0,0.5-0.223,0.5-0.5C11,16.225,10.775,16,10.5,16
				L10.5,16z"/>
		</g>
		<g>
			<path d="M11.5,6C11.224,6,11,6.225,11,6.5C11,6.777,11.224,7,11.5,7C11.775,7,12,6.777,12,6.5C12,6.225,11.775,6,11.5,6L11.5,6z"
				/>
		</g>
		
			<line fill="none" stroke="#000000" stroke-linejoin="round" stroke-miterlimit="10" x1="7.396" y1="9.656" x2="14.329" y2="7.744"/>
		
			<line fill="none" stroke="#000000" stroke-linejoin="round" stroke-miterlimit="10" x1="6.729" y1="14.875" x2="14.664" y2="12.719"/>
	</g>
</g>
</svg>
