<?xml version="1.0" encoding="utf-8"?>
<!-- Generator: Adobe Illustrator 19.2.0, SVG Export Plug-In . SVG Version: 6.00 Build 0)  -->
<svg version="1.1" id="Layer_1" xmlns="http://www.w3.org/2000/svg" xmlns:xlink="http://www.w3.org/1999/xlink" x="0px" y="0px"
	 viewBox="0 0 24 24" enable-background="new 0 0 24 24" xml:space="preserve">
<g id="Filled_Icons" display="none">
	<g display="inline">
		<g>
			<polygon points="7,18.106 16,15.322 16,13.119 7,15.902 			"/>
			<polygon points="16,16.369 7,19.152 7,21.356 16,18.572 			"/>
			<path d="M7,22.402v1.104c0,0.275,0.224,0.5,0.5,0.5h8c0.275,0,0.5-0.225,0.5-0.5v-3.887L7,22.402z"/>
			<path d="M16,12.072V9.506c0-0.159-0.075-0.309-0.204-0.403c-0.128-0.093-0.293-0.12-0.444-0.074l-8,2.5
				C7.143,11.594,7,11.787,7,12.006v2.85L16,12.072z"/>
		</g>
		<path d="M10.409,0.506c1.319,0.97,1.245,2.853,0.728,3.637c-0.355-0.292-0.673-0.61-0.728-1.091
			c-1.214,0.48-1.818,1.431-1.818,2.545c0,1.606,1.303,2.909,2.909,2.909c1.605,0,2.909-1.303,2.909-2.909
			C14.409,3.249,12.719,1.037,10.409,0.506z"/>
	</g>
</g>
<g id="Outline_Icons">
	<g>
		<polygon fill="none" stroke="#000000" stroke-linecap="round" stroke-linejoin="round" stroke-miterlimit="10" points="15.5,23.5 
			7.5,23.5 7.5,12 15.5,9.5 		"/>
		
			<line fill="none" stroke="#000000" stroke-linecap="round" stroke-linejoin="round" stroke-miterlimit="10" x1="7.5" y1="15.25" x2="15.5" y2="12.75"/>
		
			<line fill="none" stroke="#000000" stroke-linecap="round" stroke-linejoin="round" stroke-miterlimit="10" x1="7.5" y1="18.5" x2="15.5" y2="16"/>
		
			<line fill="none" stroke="#000000" stroke-linecap="round" stroke-linejoin="round" stroke-miterlimit="10" x1="7.5" y1="21.75" x2="15.5" y2="19.25"/>
		<path fill="none" stroke="#000000" stroke-linejoin="round" stroke-miterlimit="10" d="M10.409,0.5
			c1.319,0.97,1.245,2.853,0.728,3.637c-0.355-0.292-0.673-0.61-0.728-1.091c-1.214,0.48-1.818,1.431-1.818,2.545
			C8.591,7.197,9.894,8.5,11.5,8.5c1.605,0,2.909-1.303,2.909-2.909C14.409,3.243,12.719,1.031,10.409,0.5z"/>
	</g>
</g>
</svg>
