<?xml version="1.0" encoding="utf-8"?>
<!-- Generator: Adobe Illustrator 19.2.0, SVG Export Plug-In . SVG Version: 6.00 Build 0)  -->
<svg version="1.1" id="Layer_1" xmlns="http://www.w3.org/2000/svg" xmlns:xlink="http://www.w3.org/1999/xlink" x="0px" y="0px"
	 viewBox="0 0 24 24" enable-background="new 0 0 24 24" xml:space="preserve">
<g id="Filled_Icons" display="none">
	<g display="inline">
		<path d="M5.87,9.153l2.632,2.646l2.67-2.647c0.196-0.196,0.513-0.193,0.707,0.001l2.637,2.645l2.631-2.644
			c0.188-0.188,0.488-0.196,0.687-0.021l3.513,3.12C20.657,8.397,17.751,5.306,14,4.335V2.506c0-0.276-0.225-0.5-0.5-0.5H12v-1.5
			c0-0.276-0.224-0.5-0.5-0.5c-0.276,0-0.5,0.223-0.5,0.5v1.5H9.5c-0.276,0-0.5,0.224-0.5,0.5v1.829
			C5.243,5.308,2.333,8.406,1.652,12.27l3.531-3.138C5.381,8.956,5.683,8.966,5.87,9.153z"/>
		<path d="M17.5,19.006c-0.129,0-0.257-0.05-0.354-0.146l-2.631-2.645l-2.637,2.645c-0.194,0.195-0.511,0.197-0.707,0.002
			l-2.67-2.647L5.87,18.857c-0.187,0.189-0.487,0.197-0.686,0.023l-3.52-3.112c0.837,4.676,4.924,8.237,9.835,8.237
			c4.905,0,8.989-3.555,9.832-8.222L17.83,18.88C17.736,18.964,17.618,19.006,17.5,19.006z"/>
		<path d="M11.146,12.238l-1.414,1.415c-0.195,0.195-0.195,0.512,0,0.707l1.414,1.414c0.098,0.098,0.226,0.146,0.354,0.146
			c0.128,0,0.256-0.049,0.354-0.146l1.414-1.414c0.195-0.195,0.195-0.512,0-0.707l-1.414-1.415
			C11.658,12.043,11.342,12.043,11.146,12.238z"/>
		<path d="M17.146,12.238l-1.414,1.415c-0.195,0.195-0.195,0.512,0,0.707l1.414,1.414c0.098,0.098,0.226,0.146,0.354,0.146
			c0.128,0,0.256-0.049,0.353-0.146l1.414-1.414c0.195-0.195,0.195-0.512,0-0.707l-1.414-1.415
			C17.658,12.043,17.342,12.043,17.146,12.238z"/>
		<path d="M5.146,12.238l-1.414,1.415c-0.195,0.195-0.195,0.512,0,0.707l1.414,1.414C5.244,15.871,5.372,15.92,5.5,15.92
			c0.128,0,0.256-0.049,0.354-0.147l1.414-1.414c0.195-0.194,0.195-0.512,0-0.707l-1.414-1.413
			C5.658,12.043,5.342,12.043,5.146,12.238z"/>
	</g>
</g>
<g id="Outline_Icons">
	<g>
		
			<circle fill="none" stroke="#000000" stroke-linecap="round" stroke-linejoin="round" stroke-miterlimit="10" cx="11.5" cy="14" r="9.5"/>
		<path fill="none" stroke="#000000" stroke-linecap="round" stroke-linejoin="round" stroke-miterlimit="10" d="M11.5,4.5
			c0.687,0,1.353,0.076,2,0.215V2.5h-4v2.215C10.146,4.576,10.813,4.5,11.5,4.5z"/>
		<polyline fill="none" stroke="#000000" stroke-linecap="round" stroke-linejoin="round" stroke-miterlimit="10" points="
			2.118,12.5 5.516,9.5 8.5,12.5 11.524,9.5 14.516,12.5 17.5,9.5 20.882,12.5 		"/>
		<polyline fill="none" stroke="#000000" stroke-linecap="round" stroke-linejoin="round" stroke-miterlimit="10" points="
			2.118,15.5 5.516,18.5 8.5,15.5 11.524,18.5 14.516,15.5 17.5,18.5 20.882,15.5 		"/>
		
			<rect x="10.5" y="13" transform="matrix(0.7071 -0.7071 0.7071 0.7071 -6.5312 12.2322)" fill="none" stroke="#000000" stroke-linecap="round" stroke-linejoin="round" stroke-miterlimit="10" width="2" height="2"/>
		
			<rect x="16.5" y="13" transform="matrix(0.7071 -0.7071 0.7071 0.7071 -4.7739 16.4748)" fill="none" stroke="#000000" stroke-linecap="round" stroke-linejoin="round" stroke-miterlimit="10" width="2" height="2"/>
		
			<rect x="4.5" y="13" transform="matrix(0.7071 -0.7071 0.7071 0.7071 -8.2886 7.9896)" fill="none" stroke="#000000" stroke-linecap="round" stroke-linejoin="round" stroke-miterlimit="10" width="2" height="2"/>
		
			<line fill="none" stroke="#000000" stroke-linecap="round" stroke-linejoin="round" stroke-miterlimit="10" x1="11.5" y1="2.5" x2="11.5" y2="0.5"/>
	</g>
</g>
</svg>
