<?xml version="1.0" encoding="utf-8"?>
<!-- Generator: Adobe Illustrator 19.2.0, SVG Export Plug-In . SVG Version: 6.00 Build 0)  -->
<svg version="1.1" id="Outline_Icons" xmlns="http://www.w3.org/2000/svg" xmlns:xlink="http://www.w3.org/1999/xlink" x="0px"
	 y="0px" viewBox="0 0 24 24" style="enable-background:new 0 0 24 24;" xml:space="preserve">
<style type="text/css">
	.st0{fill:none;stroke:#000000;stroke-linecap:round;stroke-linejoin:round;stroke-miterlimit:10;}
</style>
<g>
	<line class="st0" x1="0.5" y1="23.6" x2="23.5" y2="23.6"/>
	<polyline class="st0" points="8.5,13.8 2.5,15.6 2.5,23.6 21.5,23.6 21.5,15.6 15.5,13.8 	"/>
	<path class="st0" d="M15.5,13.1c0-1.9-1.6-3.5-3.5-3.5c-1.9,0-3.5,1.6-3.5,3.5v10.5h7V13.1z"/>
	<rect x="4.5" y="16.6" class="st0" width="2" height="2"/>
	<rect x="17.5" y="16.6" class="st0" width="2" height="2"/>
	<path class="st0" d="M13.5,19.1c0-0.8-0.7-1.5-1.5-1.5s-1.5,0.7-1.5,1.5v4.5h3V19.1z"/>
	<circle class="st0" cx="12" cy="13.1" r="1.5"/>
	<line class="st0" x1="11.5" y1="9.6" x2="11.5" y2="2.6"/>
	<line class="st0" x1="9.5" y1="4.6" x2="13.5" y2="4.6"/>
</g>
</svg>
