<?xml version="1.0" encoding="utf-8"?>
<!-- Generator: Adobe Illustrator 19.2.0, SVG Export Plug-In . SVG Version: 6.00 Build 0)  -->
<svg version="1.1" id="Layer_1" xmlns="http://www.w3.org/2000/svg" xmlns:xlink="http://www.w3.org/1999/xlink" x="0px" y="0px"
	 viewBox="0 0 24 24" style="enable-background:new 0 0 24 24;" xml:space="preserve">
<style type="text/css">
	.st0{display:none;}
	.st1{display:inline;}
	.st2{fill:none;stroke:#000000;stroke-linecap:round;stroke-linejoin:round;stroke-dasharray:7.5052,2.8145;}
	.st3{fill:none;stroke:#000000;stroke-linecap:round;stroke-linejoin:round;stroke-miterlimit:10;}
</style>
<g id="Filled_Icon" class="st0">
	<g class="st1">
		<path d="M22.7,9.3c0.1,0.2,0.3,0.4,0.5,0.4c0,0,0.1,0,0.1,0c0.3-0.1,0.4-0.3,0.4-0.6c-0.6-2.5-2.1-4.8-4.2-6.5
			c-0.2-0.2-0.5-0.1-0.7,0.1c-0.2,0.2-0.1,0.5,0.1,0.7C20.7,4.9,22.1,7,22.7,9.3z"/>
		<path d="M1.4,7.5c0.1,0,0.1,0.1,0.2,0.1c0.2,0,0.4-0.1,0.5-0.3c1-2.2,2.8-4,4.9-5c0.2-0.1,0.3-0.4,0.2-0.7
			C7.1,1.3,6.8,1.2,6.5,1.3C4.2,2.5,2.3,4.5,1.2,6.8C1.1,7.1,1.2,7.4,1.4,7.5z"/>
		<path d="M1,12c0-0.7,0.1-1.5,0.2-2.2c0.1-0.3-0.1-0.5-0.4-0.6C0.6,9.2,0.3,9.3,0.2,9.6C0.1,10.4,0,11.2,0,12
			c0,1.8,0.4,3.6,1.2,5.2c0.1,0.2,0.3,0.3,0.5,0.3c0.1,0,0.1,0,0.2,0c0.2-0.1,0.4-0.4,0.2-0.7C1.4,15.3,1,13.7,1,12z"/>
		<path d="M9.5,1.3c2.3-0.5,4.8-0.3,7,0.7c0.1,0,0.1,0,0.2,0c0.2,0,0.4-0.1,0.5-0.3c0.1-0.3,0-0.5-0.2-0.7C14.6,0,11.8-0.3,9.3,0.3
			C9,0.4,8.9,0.6,8.9,0.9C9,1.2,9.2,1.3,9.5,1.3z"/>
		<path d="M18.9,20.6c-1.9,1.5-4.2,2.3-6.6,2.4c-0.3,0-0.5,0.2-0.5,0.5c0,0.3,0.2,0.5,0.5,0.5c0,0,0,0,0,0c2.7-0.1,5.2-1,7.2-2.6
			c0.2-0.2,0.2-0.5,0.1-0.7C19.4,20.5,19.1,20.4,18.9,20.6z"/>
		<path d="M23.5,11.5c-0.3,0-0.5,0.2-0.5,0.5c0,2.4-0.8,4.7-2.3,6.7c-0.2,0.2-0.1,0.5,0.1,0.7c0.1,0.1,0.2,0.1,0.3,0.1
			c0.2,0,0.3-0.1,0.4-0.2c1.6-2.1,2.5-4.6,2.5-7.3v0C24,11.7,23.8,11.5,23.5,11.5z"/>
		<path d="M9.6,22.7c-2.3-0.5-4.5-1.8-6-3.7c-0.2-0.2-0.5-0.2-0.7-0.1c-0.2,0.2-0.2,0.5-0.1,0.7c1.7,2,4,3.4,6.6,4c0,0,0.1,0,0.1,0
			c0.2,0,0.4-0.2,0.5-0.4C10,23.1,9.8,22.8,9.6,22.7z"/>
		<path d="M6,7.5C6,7.2,5.8,7,5.5,7C5.2,7,5,7.2,5,7.5v10C5,17.8,5.2,18,5.5,18h13c0.3,0,0.5-0.2,0.5-0.5c0-0.3-0.2-0.5-0.5-0.5H6
			v-4.4l2.6-1.4l2.8,3.9c0.1,0.1,0.2,0.2,0.4,0.2c0,0,0,0,0,0c0.2,0,0.3-0.1,0.4-0.2l3.2-5.1l2.8-0.6c0.3-0.1,0.4-0.3,0.4-0.6
			c-0.1-0.3-0.3-0.4-0.6-0.4l-3,0.6c-0.1,0-0.3,0.1-0.3,0.2L11.8,14l-2.6-3.6C9,10.1,8.7,10,8.5,10.2L6,11.5V7.5z"/>
	</g>
</g>
<g id="Outline_Icons">
	<g>
		<g>
			<circle class="st2" cx="12" cy="12" r="11.5"/>
		</g>
		<polyline class="st3" points="18.5,17.5 5.5,17.5 5.5,7.5 		"/>
		<polyline class="st3" points="5.5,12.3 8.8,10.6 11.8,14.8 15.2,9.6 18.2,9 		"/>
	</g>
</g>
</svg>
