<?xml version="1.0" encoding="utf-8"?>
<!-- Generator: Adobe Illustrator 19.2.0, SVG Export Plug-In . SVG Version: 6.00 Build 0)  -->
<svg version="1.1" id="Layer_1" xmlns="http://www.w3.org/2000/svg" xmlns:xlink="http://www.w3.org/1999/xlink" x="0px" y="0px"
	 viewBox="0 0 24 24" style="enable-background:new 0 0 24 24;" xml:space="preserve">
<style type="text/css">
	.st0{display:none;}
	.st1{display:inline;}
	.st2{fill:none;stroke:#000000;stroke-linecap:round;stroke-linejoin:round;stroke-dasharray:7.5052,2.8145;}
	.st3{fill:none;stroke:#000000;stroke-linecap:round;stroke-linejoin:round;stroke-miterlimit:10;}
</style>
<g id="Filled_Icon" class="st0">
	<g class="st1">
		<path d="M1.4,7.5c0.1,0,0.1,0.1,0.2,0.1c0.2,0,0.4-0.1,0.5-0.3c1-2.2,2.8-4,4.9-5c0.2-0.1,0.3-0.4,0.2-0.7
			C7.1,1.3,6.8,1.2,6.5,1.3C4.2,2.5,2.3,4.5,1.2,6.8C1.1,7.1,1.2,7.4,1.4,7.5z"/>
		<path d="M9.5,1.3c2.3-0.5,4.8-0.3,7,0.7c0.1,0,0.1,0,0.2,0c0.2,0,0.4-0.1,0.5-0.3c0.1-0.3,0-0.5-0.2-0.7C14.6,0,11.8-0.3,9.3,0.3
			C9,0.4,8.9,0.6,8.9,0.9C9,1.2,9.2,1.3,9.5,1.3z"/>
		<path d="M1,12c0-0.7,0.1-1.5,0.2-2.2c0.1-0.3-0.1-0.5-0.4-0.6C0.6,9.2,0.3,9.3,0.2,9.6C0.1,10.4,0,11.2,0,12
			c0,1.8,0.4,3.6,1.2,5.2c0.1,0.2,0.3,0.3,0.5,0.3c0.1,0,0.1,0,0.2,0c0.2-0.1,0.4-0.4,0.2-0.7C1.4,15.3,1,13.7,1,12z"/>
		<path d="M22.7,9.3c0.1,0.2,0.3,0.4,0.5,0.4c0,0,0.1,0,0.1,0c0.3-0.1,0.4-0.3,0.4-0.6c-0.6-2.5-2.1-4.8-4.2-6.5
			c-0.2-0.2-0.5-0.1-0.7,0.1c-0.2,0.2-0.1,0.5,0.1,0.7C20.7,4.9,22.1,7,22.7,9.3z"/>
		<path d="M9.6,22.7c-2.3-0.5-4.5-1.8-6-3.7c-0.2-0.2-0.5-0.2-0.7-0.1c-0.2,0.2-0.2,0.5-0.1,0.7c1.7,2,4,3.4,6.6,4c0,0,0.1,0,0.1,0
			c0.2,0,0.4-0.2,0.5-0.4C10,23.1,9.8,22.8,9.6,22.7z"/>
		<path d="M18.9,20.6c-1.9,1.5-4.2,2.3-6.6,2.4c-0.3,0-0.5,0.2-0.5,0.5c0,0.3,0.2,0.5,0.5,0.5c0,0,0,0,0,0c2.7-0.1,5.2-1,7.2-2.6
			c0.2-0.2,0.2-0.5,0.1-0.7C19.4,20.5,19.1,20.4,18.9,20.6z"/>
		<path d="M23.5,11.5c-0.3,0-0.5,0.2-0.5,0.5c0,2.4-0.8,4.7-2.3,6.7c-0.2,0.2-0.1,0.5,0.1,0.7c0.1,0.1,0.2,0.1,0.3,0.1
			c0.2,0,0.3-0.1,0.4-0.2c1.6-2.1,2.5-4.6,2.5-7.3v0C24,11.7,23.8,11.5,23.5,11.5z"/>
		<path d="M12.5,19.5c0.6,0,1-0.4,1-1v-0.8c1.4-0.4,2.4-1.7,2.4-3.3c0-1.9-1.5-3.4-3.4-3.4c-0.8,0-1.4-0.6-1.4-1.4
			c0-0.8,0.6-1.4,1.4-1.4s1.4,0.6,1.4,1.4c0,0.6,0.4,1,1,1c0.6,0,1-0.4,1-1c0-1.5-1-2.8-2.4-3.3V5.5c0-0.6-0.4-1-1-1
			c-0.6,0-1,0.4-1,1v0.8C10.1,6.7,9.1,8,9.1,9.6c0,1.9,1.5,3.4,3.4,3.4c0.8,0,1.4,0.6,1.4,1.4s-0.6,1.4-1.4,1.4s-1.4-0.6-1.4-1.4
			c0-0.6-0.4-1-1-1c-0.6,0-1,0.4-1,1c0,1.5,1,2.8,2.4,3.3v0.8C11.5,19.1,11.9,19.5,12.5,19.5z"/>
	</g>
</g>
<g id="Outline_Icons">
	<g>
		<g>
			<circle class="st2" cx="12" cy="12" r="11.5"/>
		</g>
		<path class="st3" d="M10.1,14.4c0,1.3,1.1,2.4,2.4,2.4c1.3,0,2.4-1.1,2.4-2.4c0-1.3-1.1-2.4-2.4-2.4c-1.3,0-2.4-1.1-2.4-2.4
			c0-1.3,1.1-2.4,2.4-2.4c1.3,0,2.4,1.1,2.4,2.4"/>
		<line class="st3" x1="12.5" y1="16.9" x2="12.5" y2="18.5"/>
		<line class="st3" x1="12.5" y1="5.5" x2="12.5" y2="7.1"/>
	</g>
</g>
</svg>
