<?xml version="1.0" encoding="utf-8"?>
<!-- Generator: Adobe Illustrator 19.2.0, SVG Export Plug-In . SVG Version: 6.00 Build 0)  -->
<svg version="1.1" id="Layer_1" xmlns="http://www.w3.org/2000/svg" xmlns:xlink="http://www.w3.org/1999/xlink" x="0px" y="0px"
	 viewBox="0 0 24 24" style="enable-background:new 0 0 24 24;" xml:space="preserve">
<style type="text/css">
	.st0{display:none;}
	.st1{display:inline;}
	.st2{fill:none;stroke:#000000;stroke-linecap:round;stroke-linejoin:round;stroke-dasharray:7.5052,2.8145;}
	.st3{fill:none;stroke:#000000;stroke-linecap:round;stroke-linejoin:round;stroke-miterlimit:10;}
</style>
<g id="Filled_Icon" class="st0">
	<g class="st1">
		<path d="M1.4,7.5c0.1,0,0.1,0.1,0.2,0.1c0.2,0,0.4-0.1,0.5-0.3c1-2.2,2.8-4,4.9-5c0.2-0.1,0.3-0.4,0.2-0.7
			C7.1,1.3,6.8,1.2,6.6,1.3C4.3,2.5,2.3,4.5,1.2,6.8C1.1,7.1,1.2,7.4,1.4,7.5z"/>
		<path d="M9.6,1.3c2.3-0.5,4.8-0.3,7,0.7c0.1,0,0.1,0,0.2,0c0.2,0,0.4-0.1,0.5-0.3c0.1-0.3,0-0.5-0.2-0.7C14.6,0,11.9-0.3,9.3,0.3
			C9.1,0.4,8.9,0.6,9,0.9C9,1.2,9.3,1.3,9.6,1.3z"/>
		<path d="M22.7,9.3c0.1,0.2,0.3,0.4,0.5,0.4c0,0,0.1,0,0.1,0c0.3-0.1,0.4-0.3,0.4-0.6c-0.6-2.5-2.1-4.8-4.2-6.5
			c-0.2-0.2-0.5-0.1-0.7,0.1c-0.2,0.2-0.1,0.5,0.1,0.7C20.8,4.9,22.1,7,22.7,9.3z"/>
		<path d="M9.6,22.7c-2.3-0.5-4.5-1.8-6-3.7c-0.2-0.2-0.5-0.2-0.7-0.1c-0.2,0.2-0.2,0.5-0.1,0.7c1.7,2,4,3.4,6.6,4c0,0,0.1,0,0.1,0
			c0.2,0,0.4-0.2,0.5-0.4C10,23.1,9.9,22.8,9.6,22.7z"/>
		<path d="M18.9,20.6c-1.9,1.5-4.2,2.3-6.6,2.4c-0.3,0-0.5,0.2-0.5,0.5c0,0.3,0.2,0.5,0.5,0.5c0,0,0,0,0,0c2.7-0.1,5.2-1,7.2-2.6
			c0.2-0.2,0.2-0.5,0.1-0.7C19.4,20.5,19.1,20.4,18.9,20.6z"/>
		<path d="M23.5,11.5c-0.3,0-0.5,0.2-0.5,0.5c0,2.4-0.8,4.7-2.3,6.7c-0.2,0.2-0.1,0.5,0.1,0.7c0.1,0.1,0.2,0.1,0.3,0.1
			c0.2,0,0.3-0.1,0.4-0.2c1.6-2.1,2.5-4.6,2.5-7.3v0C24,11.7,23.8,11.5,23.5,11.5z"/>
		<path d="M1,12c0-0.7,0.1-1.5,0.2-2.2c0.1-0.3-0.1-0.5-0.4-0.6C0.6,9.2,0.3,9.3,0.3,9.6C0.1,10.4,0,11.2,0,12
			c0,1.8,0.4,3.6,1.2,5.2c0.1,0.2,0.3,0.3,0.5,0.3c0.1,0,0.1,0,0.2,0c0.2-0.1,0.4-0.4,0.2-0.7C1.4,15.3,1,13.7,1,12z"/>
		<path d="M16.9,7.9c-0.2-0.2-0.5-0.2-0.7,0l-8,8c-0.2,0.2-0.2,0.5,0,0.7c0.1,0.1,0.2,0.1,0.4,0.1c0.1,0,0.3,0,0.4-0.1l8-8
			C17,8.4,17,8.1,16.9,7.9z"/>
		<path d="M9.5,7.3c-1.1,0-2,0.9-2,2c0,1.1,0.9,2,2,2s2-0.9,2-2C11.5,8.2,10.6,7.3,9.5,7.3z M9.5,10.3c-0.6,0-1-0.4-1-1
			c0-0.6,0.4-1,1-1c0.6,0,1,0.4,1,1C10.5,9.8,10.1,10.3,9.5,10.3z"/>
		<path d="M15.5,13.3c-1.1,0-2,0.9-2,2c0,1.1,0.9,2,2,2c1.1,0,2-0.9,2-2C17.5,14.2,16.6,13.3,15.5,13.3z M15.5,16.3
			c-0.6,0-1-0.4-1-1c0-0.6,0.4-1,1-1c0.6,0,1,0.4,1,1C16.5,15.8,16.1,16.3,15.5,16.3z"/>
	</g>
</g>
<g id="Outline_Icons">
	<g>
		<g>
			<circle class="st2" cx="12" cy="12" r="11.5"/>
		</g>
		<line class="st3" x1="8.5" y1="16.3" x2="16.5" y2="8.3"/>
		<circle class="st3" cx="9.5" cy="9.3" r="1.5"/>
		<circle class="st3" cx="15.5" cy="15.3" r="1.5"/>
	</g>
</g>
</svg>
