<?xml version="1.0" encoding="utf-8"?>
<!-- Generator: Adobe Illustrator 19.2.0, SVG Export Plug-In . SVG Version: 6.00 Build 0)  -->
<svg version="1.1" id="Layer_1" xmlns="http://www.w3.org/2000/svg" xmlns:xlink="http://www.w3.org/1999/xlink" x="0px" y="0px"
	 viewBox="0 0 24 24" enable-background="new 0 0 24 24" xml:space="preserve">
<g id="Filled_Icons" display="none">
	<g display="inline">
		<path d="M12.356,6.075l4.4-2.641c0.157-0.093,0.25-0.266,0.243-0.447c-0.008-0.183-0.112-0.347-0.276-0.429l-5-2.5
			c-0.154-0.077-0.34-0.068-0.486,0.022C11.09,0.172,11,0.333,11,0.506v5.268l-6.184,5.232h13.368L12.356,6.075z"/>
		<path d="M22.911,23.223c-0.043-0.062-4.132-6.039-4.388-11.217H4.476C4.22,17.178,0.132,23.16,0.089,23.223
			c-0.105,0.152-0.118,0.352-0.031,0.516c0.086,0.166,0.257,0.268,0.442,0.268h5.618L11,14.882v9.124h1v-9.123l4.771,9.123H22.5
			c0.185,0,0.355-0.104,0.443-0.268C23.029,23.574,23.018,23.375,22.911,23.223z"/>
	</g>
</g>
<g id="Outline_Icons">
	<g>
		<path fill="none" stroke="#000000" stroke-linejoin="round" stroke-miterlimit="10" d="M0.578,23.5H22.5c0,0-4.5-6.5-4.5-12H5
			C5,17,0.578,23.5,0.578,23.5z"/>
		<polygon fill="none" stroke="#000000" stroke-linejoin="round" stroke-miterlimit="10" points="5,11.5 18,11.5 11.5,6 		"/>
		<polygon fill="none" stroke="#000000" stroke-linecap="round" stroke-linejoin="round" stroke-miterlimit="10" points="11.5,6 
			11.5,0.5 16.5,3 		"/>
		<polygon fill="none" stroke="#000000" stroke-linejoin="round" stroke-miterlimit="10" points="6.938,23.5 11.5,15 15.937,23.5 		
			"/>
		<line fill="none" stroke="#000000" stroke-linejoin="round" stroke-miterlimit="10" x1="11.5" y1="15" x2="11.5" y2="23.5"/>
	</g>
</g>
</svg>
