<?xml version="1.0" encoding="utf-8"?>
<!-- Generator: Adobe Illustrator 19.2.0, SVG Export Plug-In . SVG Version: 6.00 Build 0)  -->
<svg version="1.1" id="Layer_1" xmlns="http://www.w3.org/2000/svg" xmlns:xlink="http://www.w3.org/1999/xlink" x="0px" y="0px"
	 viewBox="0 0 24 24" style="enable-background:new 0 0 24 24;" xml:space="preserve">
<style type="text/css">
	.st0{display:none;}
	.st1{display:inline;}
	.st2{fill:none;stroke:#000000;stroke-linecap:round;stroke-linejoin:round;stroke-dasharray:7.5052,2.8145;}
	.st3{fill:none;stroke:#000000;stroke-linejoin:round;stroke-miterlimit:10;}
	.st4{fill:none;stroke:#000000;stroke-linecap:round;stroke-linejoin:round;stroke-miterlimit:10;}
</style>
<g id="Filled_Icon" class="st0">
	<g class="st1">
		<g>
			<g>
				<path d="M12.2,24c-0.3,0-0.5-0.2-0.5-0.5c0-0.3,0.2-0.5,0.5-0.5c2.4-0.1,4.7-0.9,6.6-2.4c0.2-0.2,0.5-0.1,0.7,0.1
					c0.2,0.2,0.1,0.5-0.1,0.7C17.4,23,14.9,23.9,12.2,24C12.3,24,12.2,24,12.2,24z M9.5,23.7c0,0-0.1,0-0.1,0c-2.5-0.6-4.9-2-6.6-4
					c-0.2-0.2-0.1-0.5,0.1-0.7c0.2-0.2,0.5-0.1,0.7,0.1c1.5,1.8,3.7,3.2,6,3.7c0.3,0.1,0.4,0.3,0.4,0.6C9.9,23.6,9.7,23.7,9.5,23.7z
					 M21.1,19.5c-0.1,0-0.2,0-0.3-0.1c-0.2-0.2-0.3-0.5-0.1-0.7c1.5-1.9,2.3-4.2,2.3-6.7c0-0.3,0.2-0.5,0.5-0.5
					c0.3,0,0.5,0.2,0.5,0.5v0c0,2.7-0.9,5.2-2.5,7.3C21.4,19.4,21.3,19.5,21.1,19.5z M1.6,17.5c-0.2,0-0.4-0.1-0.5-0.3
					C0.4,15.6,0,13.8,0,12c0-0.8,0.1-1.6,0.2-2.4c0.1-0.3,0.3-0.4,0.6-0.4c0.3,0.1,0.4,0.3,0.4,0.6C1.1,10.5,1,11.3,1,12
					c0,1.7,0.4,3.3,1.1,4.8c0.1,0.2,0,0.5-0.2,0.7C1.8,17.5,1.7,17.5,1.6,17.5z M23.1,9.7c-0.2,0-0.4-0.2-0.5-0.4
					c-0.6-2.3-1.9-4.4-3.8-5.9c-0.2-0.2-0.3-0.5-0.1-0.7c0.2-0.2,0.5-0.3,0.7-0.1C21.5,4.2,23,6.5,23.6,9c0.1,0.3-0.1,0.5-0.4,0.6
					C23.2,9.7,23.2,9.7,23.1,9.7z M1.6,7.5c-0.1,0-0.1,0-0.2-0.1C1.2,7.4,1.1,7.1,1.2,6.8c1.1-2.4,3-4.3,5.4-5.5
					c0.2-0.1,0.5,0,0.7,0.2c0.1,0.2,0,0.5-0.2,0.7c-2.1,1.1-3.9,2.9-4.9,5C2,7.4,1.8,7.5,1.6,7.5z M16.7,2c-0.1,0-0.1,0-0.2,0
					c-2.2-1-4.7-1.2-7-0.7C9.2,1.3,9,1.2,8.9,0.9C8.9,0.6,9,0.4,9.3,0.3c2.5-0.6,5.3-0.3,7.7,0.8c0.3,0.1,0.4,0.4,0.2,0.7
					C17.1,1.9,16.9,2,16.7,2z"/>
			</g>
		</g>
		<g>
			<path d="M13,5c-3.9,0-7,2.6-7,5.8c0,1.5,0.6,2.8,1.8,3.9l-1.3,2.6c-0.1,0.2-0.1,0.4,0.1,0.6C6.7,18,6.8,18,6.9,18
				c0.1,0,0.1,0,0.2,0l3.6-1.7c0.7,0.2,1.5,0.3,2.2,0.3c3.9,0,7-2.6,7-5.8C20,7.6,16.8,5,13,5z M15.5,13h-5c-0.3,0-0.5-0.2-0.5-0.5
				c0-0.3,0.2-0.5,0.5-0.5h5c0.3,0,0.5,0.2,0.5,0.5C16,12.8,15.7,13,15.5,13z M15.5,11h-5c-0.3,0-0.5-0.2-0.5-0.5
				c0-0.3,0.2-0.5,0.5-0.5h5c0.3,0,0.5,0.2,0.5,0.5C16,10.8,15.7,11,15.5,11z M15.5,9h-5C10.2,9,10,8.8,10,8.5C10,8.2,10.2,8,10.5,8
				h5C15.7,8,16,8.2,16,8.5C16,8.8,15.7,9,15.5,9z"/>
		</g>
	</g>
</g>
<g id="Outline_Icons">
	<g>
		<g>
			<circle class="st2" cx="12" cy="12" r="11.5"/>
		</g>
		<path class="st3" d="M19.5,10.8c0,2.9-2.9,5.3-6.5,5.3c-0.8,0-1.6-0.1-2.3-0.3l-3.7,1.7l1.5-2.9c-1.2-1-2-2.3-2-3.8
			c0-2.9,2.9-5.3,6.5-5.3C16.5,5.5,19.5,7.9,19.5,10.8z"/>
		<line class="st4" x1="10.5" y1="8.5" x2="15.5" y2="8.5"/>
		<line class="st4" x1="10.5" y1="10.5" x2="15.5" y2="10.5"/>
		<line class="st4" x1="10.5" y1="12.5" x2="15.5" y2="12.5"/>
	</g>
</g>
</svg>
