<?xml version="1.0" encoding="utf-8"?>
<!-- Generator: Adobe Illustrator 19.2.0, SVG Export Plug-In . SVG Version: 6.00 Build 0)  -->
<svg version="1.1" id="Layer_1" xmlns="http://www.w3.org/2000/svg" xmlns:xlink="http://www.w3.org/1999/xlink" x="0px" y="0px"
	 viewBox="0 0 24 24" enable-background="new 0 0 24 24" xml:space="preserve">
<g id="Filled_Icons" display="none">
	<g display="inline">
		<path d="M12,3.006c-4.963,0-9,4.038-9,9c0,4.963,4.037,9,9,9c4.963,0,9-4.037,9-9C21,7.044,16.963,3.006,12,3.006z M6.997,7.109
			c0.508-0.518,1.255-0.727,1.958-0.544c0.703,0.185,1.254,0.73,1.444,1.432l0.886,3.31L7.779,10.44
			c-0.655-0.229-1.148-0.776-1.306-1.45C6.314,8.314,6.512,7.605,6.997,7.109z M10.418,16.221c-0.229,0.654-0.778,1.146-1.454,1.301
			c-0.676,0.156-1.384-0.043-1.878-0.528c-0.518-0.511-0.722-1.261-0.536-1.962c0.186-0.702,0.733-1.252,1.436-1.438l3.313-0.875
			L10.418,16.221z M13.611,7.802c0.234-0.652,0.787-1.139,1.465-1.29c0.676-0.152,1.384,0.054,1.873,0.545
			c0.515,0.513,0.714,1.262,0.521,1.965c-0.189,0.699-0.742,1.244-1.445,1.427L12.707,11.3L13.611,7.802z M16.968,16.938
			c-0.513,0.517-1.261,0.719-1.963,0.529c-0.7-0.188-1.248-0.738-1.435-1.441l-0.86-3.315l3.499,0.894
			c0.652,0.231,1.143,0.783,1.296,1.459C17.658,15.738,17.456,16.445,16.968,16.938z"/>
		<path d="M12,0.006c-6.617,0-12,5.384-12,12c0,6.617,5.383,12,12,12c6.617,0,12-5.383,12-12C24,5.39,18.617,0.006,12,0.006z
			 M12,22.006c-5.514,0-10-4.484-10-10c0-5.514,4.486-10,10-10c5.514,0,10,4.486,10,10C22,17.522,17.514,22.006,12,22.006z"/>
	</g>
</g>
<g id="Outline_Icons">
	<g>
		<circle fill="none" stroke="#000000" stroke-linejoin="round" stroke-miterlimit="10" cx="12" cy="12" r="11.5"/>
		<circle fill="none" stroke="#000000" stroke-linejoin="round" stroke-miterlimit="10" cx="12" cy="12" r="9.5"/>
		<path fill="none" stroke="#000000" stroke-linejoin="round" stroke-miterlimit="10" d="M16.025,10.442
			c0.703-0.183,1.256-0.728,1.445-1.428c0.191-0.702-0.008-1.451-0.521-1.965c-0.489-0.49-1.197-0.696-1.873-0.544
			c-0.678,0.151-1.228,0.638-1.465,1.289l-0.904,3.498L16.025,10.442z"/>
		<path fill="none" stroke="#000000" stroke-linejoin="round" stroke-miterlimit="10" d="M13.57,16.02
			c0.186,0.703,0.732,1.252,1.435,1.441c0.702,0.188,1.45-0.014,1.963-0.529c0.488-0.492,0.69-1.199,0.537-1.877
			c-0.153-0.676-0.644-1.227-1.296-1.459l-3.499-0.893L13.57,16.02z"/>
		<path fill="none" stroke="#000000" stroke-linejoin="round" stroke-miterlimit="10" d="M7.985,13.586
			c-0.702,0.188-1.25,0.736-1.436,1.437c-0.186,0.703,0.019,1.451,0.536,1.961c0.494,0.486,1.202,0.688,1.878,0.531
			c0.676-0.158,1.225-0.646,1.454-1.302l0.88-3.504L7.985,13.586z"/>
		<path fill="none" stroke="#000000" stroke-linejoin="round" stroke-miterlimit="10" d="M10.399,7.991
			C10.209,7.29,9.658,6.744,8.955,6.56c-0.703-0.183-1.45,0.025-1.958,0.544C6.512,7.6,6.314,8.309,6.473,8.983
			c0.159,0.674,0.651,1.222,1.307,1.45l3.506,0.867L10.399,7.991z"/>
	</g>
</g>
</svg>
