<?xml version="1.0" encoding="utf-8"?>
<!-- Generator: Adobe Illustrator 19.2.0, SVG Export Plug-In . SVG Version: 6.00 Build 0)  -->
<svg version="1.1" id="Layer_1" xmlns="http://www.w3.org/2000/svg" xmlns:xlink="http://www.w3.org/1999/xlink" x="0px" y="0px"
	 viewBox="0 0 24 24" style="enable-background:new 0 0 24 24;" xml:space="preserve">
<style type="text/css">
	.st0{display:none;}
	.st1{display:inline;}
	.st2{fill:none;stroke:#000000;stroke-linecap:round;stroke-linejoin:round;stroke-miterlimit:10;}
	.st3{fill:none;stroke:#000000;stroke-linejoin:round;stroke-miterlimit:10;}
</style>
<g id="Filled_Icon" class="st0">
	<g class="st1">
		<g>
			<g>
				<path d="M11,18c0-3.9,3.1-7,7-7c2.5,0,4.8,1.4,6,3.4V7H0v13.1c0,1,0.9,1.9,1.9,1.9h10.3C11.5,20.9,11,19.5,11,18z"/>
			</g>
			<g>
				<polygon points="16.5,0 14,0 8,6 10.5,6 				"/>
				<polygon points="20.4,0 17.9,0 11.9,6 14.4,6 				"/>
				<polygon points="12.6,0 10.1,0 4.1,6 6.6,6 				"/>
				<polygon points="0.2,6 2.7,6 8.7,0 6.2,0 				"/>
				<polygon points="19.7,6 24,6 24,1.7 				"/>
				<path d="M4.8,0H1.5C0.7,0,0,0.7,0,1.5v3.3L4.8,0z"/>
				<path d="M23.7,0.6C23.4,0.2,23,0,22.5,0h-0.7l-6,6h2.5L23.7,0.6z"/>
			</g>
		</g>
		<path d="M18,12c-3.3,0-6,2.7-6,6c0,3.3,2.7,6,6,6c3.3,0,6-2.7,6-6C24,14.7,21.3,12,18,12z M17.9,20.9C17.8,21,17.6,21,17.5,21
			c-0.1,0-0.3,0-0.4-0.1l-2.5-2.5c-0.2-0.2-0.2-0.5,0-0.7l2.5-2.5c0.2-0.2,0.5-0.2,0.7,0c0.2,0.2,0.2,0.5,0,0.7L15.7,18l2.1,2.2
			C18,20.4,18,20.7,17.9,20.9z M21,20.5c0,0.2-0.1,0.4-0.3,0.5c-0.1,0-0.1,0-0.2,0c-0.1,0-0.2,0-0.3-0.1l-3-2.5
			C17.1,18.3,17,18.1,17,18c0-0.1,0.1-0.3,0.2-0.4l3-2.5c0.2-0.1,0.4-0.2,0.5-0.1c0.2,0.1,0.3,0.3,0.3,0.5V20.5z"/>
	</g>
</g>
<g id="Outline_Icons">
	<g>
		<polygon class="st2" points="20.5,15.5 20.5,20.5 17.5,18 		"/>
		<circle class="st2" cx="18" cy="18" r="5.5"/>
		<polyline class="st2" points="17.5,15.5 15,18 17.5,20.5 		"/>
		<g>
			<path class="st3" d="M10,21.5H1.9c-0.8,0-1.4-0.6-1.4-1.4V7.5h23V12"/>
			<path class="st3" d="M23.5,5.5h-23v-4c0-0.6,0.4-1,1-1h21c0.6,0,1,0.4,1,1V5.5z"/>
			<line class="st3" x1="0.5" y1="5" x2="5" y2="0.5"/>
			<line class="st3" x1="3.5" y1="5.5" x2="8.5" y2="0.5"/>
			<line class="st3" x1="7.5" y1="5.5" x2="12.5" y2="0.5"/>
			<line class="st3" x1="11.5" y1="5.5" x2="16.5" y2="0.5"/>
			<line class="st3" x1="15.5" y1="5.5" x2="20.5" y2="0.5"/>
			<line class="st3" x1="19.5" y1="5.5" x2="23.5" y2="1.5"/>
		</g>
	</g>
</g>
</svg>
