<?xml version="1.0" encoding="utf-8"?>
<!-- Generator: Adobe Illustrator 19.2.0, SVG Export Plug-In . SVG Version: 6.00 Build 0)  -->
<svg version="1.1" id="Layer_1" xmlns="http://www.w3.org/2000/svg" xmlns:xlink="http://www.w3.org/1999/xlink" x="0px" y="0px"
	 viewBox="0 0 24 24" enable-background="new 0 0 24 24" xml:space="preserve">
<g id="Filled_Icons" display="none">
	<g display="inline">
		<g>
			<path d="M0.5,16.006c1.759,0,3.204,1.309,3.449,3h20.019c-0.077-0.545-0.435-1.02-0.964-1.208l-8.171-2.918l-1.48,1.479
				c-0.098,0.098-0.226,0.146-0.353,0.146c-0.128,0-0.256-0.049-0.354-0.146c-0.195-0.195-0.195-0.512,0-0.707l1.145-1.146
				l-0.803-0.286l-1.635,1.637c-0.098,0.1-0.226,0.148-0.354,0.148c-0.128,0-0.256-0.049-0.354-0.146
				c-0.195-0.194-0.195-0.512,0-0.707l1.301-1.303l-2.279-0.814c-0.151-0.055-0.322-0.03-0.456,0.062
				C9.079,13.191,9,13.344,9,13.506c0,0.403-0.953,1-3,1c-1.703,0-3-0.666-3-1c0-0.275-0.224-0.5-0.5-0.5h-1
				c-0.827,0-1.5,0.674-1.5,1.5v1.5H0.5z"/>
			<path d="M0.5,17.006H0v2h2.949C2.717,17.866,1.708,17.006,0.5,17.006z"/>
			<path d="M0,20.006v1.5c0,0.275,0.224,0.5,0.5,0.5H4v0.5c0,0.275,0.224,0.5,0.5,0.5c0.276,0,0.5-0.225,0.5-0.5v-0.5h8v0.5
				c0,0.275,0.225,0.5,0.5,0.5c0.275,0,0.5-0.225,0.5-0.5v-0.5h2v0.5c0,0.275,0.225,0.5,0.5,0.5c0.275,0,0.5-0.225,0.5-0.5v-0.5h2
				v0.5c0,0.275,0.225,0.5,0.5,0.5c0.275,0,0.5-0.225,0.5-0.5v-0.5h2v0.5c0,0.275,0.225,0.5,0.5,0.5c0.275,0,0.5-0.225,0.5-0.5v-0.5
				h0.5c0.275,0,0.5-0.225,0.5-0.5v-1.5H0z"/>
		</g>
		<g>
			<path d="M23.5,8.006H24v-2h-2.949C21.283,7.146,22.292,8.006,23.5,8.006z"/>
			<path d="M24,5.006v-1.5c0-0.276-0.225-0.5-0.5-0.5H23v-0.5c0-0.276-0.225-0.5-0.5-0.5c-0.275,0-0.5,0.223-0.5,0.5v0.5h-2v-0.5
				c0-0.276-0.225-0.5-0.5-0.5c-0.275,0-0.5,0.223-0.5,0.5v0.5h-8v-0.5c0-0.276-0.224-0.5-0.5-0.5c-0.276,0-0.5,0.223-0.5,0.5v0.5H8
				v-0.5c0-0.276-0.224-0.5-0.5-0.5c-0.276,0-0.5,0.223-0.5,0.5v0.5H5v-0.5c0-0.276-0.224-0.5-0.5-0.5c-0.276,0-0.5,0.223-0.5,0.5
				v0.5H0.5c-0.276,0-0.5,0.224-0.5,0.5v1.5H24z"/>
			<path d="M23.5,9.006c-1.759,0-3.204-1.309-3.449-3H0.032c0.077,0.545,0.435,1.018,0.964,1.208l8.171,2.918l1.479-1.479
				c0.195-0.195,0.512-0.195,0.707,0c0.195,0.195,0.195,0.512,0,0.707l-1.145,1.145l0.804,0.287l1.632-1.638
				c0.195-0.196,0.515-0.195,0.707-0.001c0.196,0.194,0.196,0.511,0.002,0.706l-1.299,1.305l2.277,0.813
				c0.056,0.02,0.11,0.029,0.168,0.029c0.103,0,0.202-0.031,0.288-0.091C14.921,11.82,15,11.669,15,11.506c0-0.403,0.953-1,3-1
				c1.703,0,3,0.667,3,1c0,0.276,0.225,0.5,0.5,0.5h1c0.827,0,1.5-0.673,1.5-1.5v-1.5H23.5z"/>
		</g>
	</g>
</g>
<g id="Outline_Icons">
	<g>
		<path fill="none" stroke="#000000" stroke-linecap="round" stroke-linejoin="round" stroke-miterlimit="10" d="M9.5,13.5
			l13.336,4.764c0.398,0.142,0.664,0.519,0.664,0.941V21.5h-23v-7c0-0.553,0.447-1,1-1h1C2.5,14.329,4.256,15,6,15
			C8.209,15,9.5,14.329,9.5,13.5z"/>
		<line fill="none" stroke="#000000" stroke-linejoin="round" stroke-miterlimit="10" x1="0.5" y1="19.5" x2="23.5" y2="19.5"/>
		
			<line fill="none" stroke="#000000" stroke-linecap="round" stroke-linejoin="round" stroke-miterlimit="10" x1="12.076" y1="14.419" x2="11" y2="15.5"/>
		
			<line fill="none" stroke="#000000" stroke-linecap="round" stroke-linejoin="round" stroke-miterlimit="10" x1="13.92" y1="15.079" x2="13" y2="16"/>
		<path fill="none" stroke="#000000" stroke-linecap="round" stroke-linejoin="round" stroke-miterlimit="10" d="M3.5,19.5
			c0-1.656-1.344-3-3-3"/>
		
			<line fill="none" stroke="#000000" stroke-linecap="round" stroke-linejoin="round" stroke-miterlimit="10" x1="1.5" y1="22.5" x2="1.5" y2="21.5"/>
		
			<line fill="none" stroke="#000000" stroke-linecap="round" stroke-linejoin="round" stroke-miterlimit="10" x1="4.5" y1="22.5" x2="4.5" y2="21.5"/>
		
			<line fill="none" stroke="#000000" stroke-linecap="round" stroke-linejoin="round" stroke-miterlimit="10" x1="22.5" y1="22.5" x2="22.5" y2="21.5"/>
		
			<line fill="none" stroke="#000000" stroke-linecap="round" stroke-linejoin="round" stroke-miterlimit="10" x1="19.5" y1="22.5" x2="19.5" y2="21.5"/>
		
			<line fill="none" stroke="#000000" stroke-linecap="round" stroke-linejoin="round" stroke-miterlimit="10" x1="16.5" y1="22.5" x2="16.5" y2="21.5"/>
		
			<line fill="none" stroke="#000000" stroke-linecap="round" stroke-linejoin="round" stroke-miterlimit="10" x1="13.5" y1="22.5" x2="13.5" y2="21.5"/>
		<path fill="none" stroke="#000000" stroke-linecap="round" stroke-linejoin="round" stroke-miterlimit="10" d="M14.5,11.5
			L1.164,6.737C0.768,6.595,0.5,6.218,0.5,5.795V3.5h23v7c0,0.552-0.445,1-1,1h-1c0-0.829-1.756-1.5-3.5-1.5
			C15.791,10,14.5,10.671,14.5,11.5z"/>
		<line fill="none" stroke="#000000" stroke-linejoin="round" stroke-miterlimit="10" x1="23.5" y1="5.5" x2="0.5" y2="5.5"/>
		
			<line fill="none" stroke="#000000" stroke-linecap="round" stroke-linejoin="round" stroke-miterlimit="10" x1="11.926" y1="10.581" x2="13" y2="9.5"/>
		
			<line fill="none" stroke="#000000" stroke-linecap="round" stroke-linejoin="round" stroke-miterlimit="10" x1="10.08" y1="9.921" x2="11" y2="9"/>
		<path fill="none" stroke="#000000" stroke-linecap="round" stroke-linejoin="round" stroke-miterlimit="10" d="M20.5,5.5
			c0,1.656,1.346,3,3,3"/>
		
			<line fill="none" stroke="#000000" stroke-linecap="round" stroke-linejoin="round" stroke-miterlimit="10" x1="22.5" y1="2.5" x2="22.5" y2="3.5"/>
		
			<line fill="none" stroke="#000000" stroke-linecap="round" stroke-linejoin="round" stroke-miterlimit="10" x1="19.5" y1="2.5" x2="19.5" y2="3.5"/>
		
			<line fill="none" stroke="#000000" stroke-linecap="round" stroke-linejoin="round" stroke-miterlimit="10" x1="1.5" y1="2.5" x2="1.5" y2="3.5"/>
		
			<line fill="none" stroke="#000000" stroke-linecap="round" stroke-linejoin="round" stroke-miterlimit="10" x1="4.5" y1="2.5" x2="4.5" y2="3.5"/>
		
			<line fill="none" stroke="#000000" stroke-linecap="round" stroke-linejoin="round" stroke-miterlimit="10" x1="7.5" y1="2.5" x2="7.5" y2="3.5"/>
		
			<line fill="none" stroke="#000000" stroke-linecap="round" stroke-linejoin="round" stroke-miterlimit="10" x1="10.5" y1="2.5" x2="10.5" y2="3.5"/>
	</g>
</g>
</svg>
