<?xml version="1.0" encoding="utf-8"?>
<!-- Generator: Adobe Illustrator 19.2.0, SVG Export Plug-In . SVG Version: 6.00 Build 0)  -->
<svg version="1.1" id="Layer_1" xmlns="http://www.w3.org/2000/svg" xmlns:xlink="http://www.w3.org/1999/xlink" x="0px" y="0px"
	 viewBox="0 0 24 24" style="enable-background:new 0 0 24 24;" xml:space="preserve">
<style type="text/css">
	.st0{display:none;}
	.st1{display:inline;}
	.st2{fill:none;stroke:#000000;stroke-linecap:round;stroke-linejoin:round;stroke-miterlimit:10;}
</style>
<g id="Filled_Icons" class="st0">
	<path class="st1" d="M19.4,4.7c-0.1-0.1-0.2-0.2-0.4-0.2c-0.2,0-0.3,0-0.4,0.1C18,5.3,17.1,6,16.5,6.3c-0.1-1.6-0.8-2.2-1.4-2.7
		c-0.6-0.5-1.1-0.9-0.6-3c0-0.2,0-0.3-0.1-0.5C14.2,0.1,14.1,0,13.9,0c-2.5,0.4-4.1,1.2-5,2.5c-0.7,1-0.9,2.3-0.6,3.9
		c-1.6-0.3-3-1.8-3-1.8C5.2,4.5,5.1,4.5,5,4.5c-0.1,0-0.3,0.1-0.4,0.2c0,0-3.1,4.2,0.2,7.8C4.3,13.6,4,14.7,4,16c0,4.4,3.6,8,8,8
		c4.4,0,8-3.6,8-8c0-1.2-0.3-2.3-0.7-3.4C21.8,10.4,20.5,6.5,19.4,4.7z M15.8,19.7c-0.1,0.1-0.2,0.2-0.4,0.2c-0.1,0-0.2,0-0.3-0.1
		l-3.9-3.4C11.1,16.3,11,16.1,11,16v-4c0-0.3,0.2-0.5,0.5-0.5c0.3,0,0.5,0.2,0.5,0.5v3.8l3.7,3.2C15.9,19.2,16,19.5,15.8,19.7z
		 M12,8c-2.8,0-5.2,1.4-6.7,3.6C3.4,9.3,4.5,6.8,5.1,5.7C5.8,6.4,7.4,7.5,9,7.5c0.1,0,0.3-0.1,0.4-0.2C9.5,7.2,9.5,7,9.5,6.9
		C9.1,5.3,9.2,4,9.8,3.1c0.6-0.9,1.8-1.6,3.6-2c-0.3,1.9,0.3,2.6,1.1,3.3C15,4.9,15.5,5.4,15.5,7c0,0.1,0.1,0.3,0.1,0.4
		c0.1,0.1,0.2,0.1,0.4,0.1c0.9,0,2.2-1,2.9-1.7c0.6,1.2,1.7,4.1-0.1,5.9C17.3,9.5,14.8,8,12,8z"/>
</g>
<g id="Outline_Icons">
	<g>
		<circle class="st2" cx="12" cy="16" r="7.5"/>
		<polyline class="st2" points="11.5,12 11.5,16 15.4,19.4 		"/>
		<path class="st2" d="M18.7,12.5C22,10,19,5,19,5s-2,2-3,2c0-4-3-2-2-6.5C9.8,1.2,8,3.1,9,7C7,7,5,5,5,5s-3,4,0.3,7.4"/>
	</g>
</g>
</svg>
