<?xml version="1.0" encoding="utf-8"?>
<!-- Generator: Adobe Illustrator 19.2.0, SVG Export Plug-In . SVG Version: 6.00 Build 0)  -->
<svg version="1.1" id="Layer_1" xmlns="http://www.w3.org/2000/svg" xmlns:xlink="http://www.w3.org/1999/xlink" x="0px" y="0px"
	 viewBox="0 0 24 24" style="enable-background:new 0 0 24 24;" xml:space="preserve">
<style type="text/css">
	.st0{display:none;}
	.st1{display:inline;}
	.st2{fill:none;stroke:#000000;stroke-linecap:round;stroke-linejoin:round;stroke-miterlimit:10;}
</style>
<g id="Filled_Icons" class="st0">
	<path class="st1" d="M12,0C5.4,0,0,5.4,0,12c0,6.6,5.4,12,12,12c6.6,0,12-5.4,12-12C24,5.4,18.6,0,12,0z M18.4,18.4
		c-0.2,0.2-0.5,0.2-0.7,0L13,13.7c-0.3,0.2-0.6,0.3-1,0.3c-1.1,0-2-0.9-2-2c0-0.7,0.4-1.4,1-1.7V6.5C11,6.2,11.2,6,11.5,6
		C11.8,6,12,6.2,12,6.5V10c1.1,0,2,0.9,2,2c0,0.4-0.1,0.7-0.3,1l4.6,4.6C18.5,17.8,18.5,18.2,18.4,18.4z"/>
</g>
<g id="Outline_Icons">
	<g>
		<circle class="st2" cx="12" cy="12" r="11.5"/>
		<line class="st2" x1="18" y1="18" x2="13.1" y2="13.1"/>
		<circle class="st2" cx="12" cy="12" r="1.5"/>
		<line class="st2" x1="11.5" y1="6.5" x2="11.5" y2="10.6"/>
	</g>
</g>
</svg>
