<?xml version="1.0" encoding="utf-8"?>
<!-- Generator: Adobe Illustrator 19.2.0, SVG Export Plug-In . SVG Version: 6.00 Build 0)  -->
<svg version="1.1" id="Layer_1" xmlns="http://www.w3.org/2000/svg" xmlns:xlink="http://www.w3.org/1999/xlink" x="0px" y="0px"
	 viewBox="0 0 24 24" style="enable-background:new 0 0 24 24;" xml:space="preserve">
<style type="text/css">
	.st0{display:none;}
	.st1{display:inline;}
	.st2{fill:none;stroke:#000000;stroke-linejoin:round;stroke-miterlimit:10;}
	.st3{fill:none;stroke:#000000;stroke-linecap:round;stroke-linejoin:round;stroke-miterlimit:10;}
</style>
<g id="Filled_Icons" class="st0">
	<path class="st1" d="M21.5,0h-19C2.2,0,2,0.2,2,0.5v7.3c0,6.8,3.7,13,9.8,16.2c0.1,0,0.2,0.1,0.2,0.1c0.1,0,0.2,0,0.2-0.1
		c6-3.2,9.8-9.4,9.8-16.2V0.5C22,0.2,21.8,0,21.5,0z M16.9,13.6c0.2,0.2,0.2,0.5,0,0.7c-0.2,0.2-0.5,0.2-0.7,0L12,10.2l-4.1,4.1
		c-0.2,0.2-0.5,0.2-0.7,0c-0.2-0.2-0.2-0.5,0-0.7l4.1-4.1L7.1,5.4C7,5.2,7,4.8,7.1,4.6c0.2-0.2,0.5-0.2,0.7,0L12,8.8l4.1-4.1
		c0.2-0.2,0.5-0.2,0.7,0c0.2,0.2,0.2,0.5,0,0.7l-4.1,4.1L16.9,13.6z"/>
</g>
<g id="Outline_Icons">
	<g>
		<path class="st2" d="M2.5,0.5h19v7.3c0,6.6-3.7,12.7-9.5,15.7c-5.8-3.1-9.5-9.1-9.5-15.7V0.5z"/>
		<line class="st3" x1="7.5" y1="5" x2="16.5" y2="14"/>
		<line class="st3" x1="16.5" y1="5" x2="7.5" y2="14"/>
	</g>
</g>
</svg>
