<?xml version="1.0" encoding="utf-8"?>
<!-- Generator: Adobe Illustrator 19.2.0, SVG Export Plug-In . SVG Version: 6.00 Build 0)  -->
<svg version="1.1" id="Layer_1" xmlns="http://www.w3.org/2000/svg" xmlns:xlink="http://www.w3.org/1999/xlink" x="0px" y="0px"
	 viewBox="0 0 24 24" style="enable-background:new 0 0 24 24;" xml:space="preserve">
<style type="text/css">
	.st0{display:none;}
	.st1{display:inline;}
	.st2{fill:none;stroke:#000000;stroke-linecap:round;stroke-linejoin:round;stroke-miterlimit:10;}
</style>
<g id="Filled_Icons" class="st0">
	<g class="st1">
		<path d="M12.5,4.5l0-1C12.5,3.2,12.3,3,12,3c-0.6,0-1-0.4-1-1c0-0.6,0.4-1,1-1c0.6,0,1,0.4,1,1c0,0.3,0.2,0.5,0.5,0.5
			C13.8,2.5,14,2.3,14,2c0-1.1-0.9-2-2-2c-1.1,0-2,0.9-2,2c0,0.9,0.6,1.7,1.5,1.9l0,0.6C6.7,4.9,0,9.8,0,11.9c0,0.4,0.2,0.7,0.5,0.9
			c0.3,0.2,0.6,0.2,1,0.2H4v-1H1.5C1.1,12,1,11.9,1,11.9c0-0.1,0-0.3,0.4-0.8C3.1,8.9,8.3,5.5,12,5.5c3.5,0,8.8,3.4,10.5,5.6
			c0.5,0.6,0.5,0.8,0.5,0.8c0,0-0.1,0.1-0.5,0.1H20v1h2.5c0.4,0,0.8-0.1,1-0.2c0.3-0.2,0.5-0.5,0.5-0.9C24,9.9,17.2,4.9,12.5,4.5z"
			/>
		<g>
			<path d="M5,21v2.5C5,23.8,5.2,24,5.5,24h13c0.3,0,0.5-0.2,0.5-0.5V21H5z"/>
			<path d="M19,20V9.5C19,9.2,18.8,9,18.5,9h-13C5.2,9,5,9.2,5,9.5V20H19z"/>
		</g>
	</g>
</g>
<g id="Outline_Icons">
	<g>
		<path class="st2" d="M18.5,12.5h4c4,0-5.1-7.5-10.5-7.5C6.3,5-2.4,12.5,1.5,12.5h4"/>
		<path class="st2" d="M13.5,2c0-0.8-0.7-1.5-1.5-1.5c-0.8,0-1.5,0.7-1.5,1.5c0,0.8,0.7,1.5,1.5,1.5L12,5"/>
		<rect x="5.5" y="9.5" class="st2" width="13" height="14"/>
		<line class="st2" x1="5.5" y1="20.5" x2="18.5" y2="20.5"/>
	</g>
</g>
</svg>
