<?xml version="1.0" encoding="utf-8"?>
<!-- Generator: Adobe Illustrator 19.2.0, SVG Export Plug-In . SVG Version: 6.00 Build 0)  -->
<svg version="1.1" id="Layer_1" xmlns="http://www.w3.org/2000/svg" xmlns:xlink="http://www.w3.org/1999/xlink" x="0px" y="0px"
	 viewBox="0 0 24 24" enable-background="new 0 0 24 24" xml:space="preserve">
<g id="Filled_Icons" display="none">
	<path display="inline" d="M22.88,16.186c-0.089-0.061-9.586-5.029-9.681-5.08c1.191-0.687,2.109-2.17,2.109-3.1
		c0-1.93-1.57-3.5-3.5-3.5s-3.5,1.57-3.5,3.5c0,0.553,0.448,1,1,1c0.553,0,1-0.447,1-1c0-0.827,0.673-1.5,1.5-1.5
		c0.827,0,1.5,0.673,1.502,1.456c-0.043,0.266-0.586,1.209-1.227,1.481c-0.604,0.256-0.997,0.823-1.171,1.403L0.845,16.12
		c-0.639,0.336-1.032,1.185-0.753,2.073c0.246,0.785,0.936,1.312,1.717,1.312h20c0.78,0,1.471-0.527,1.717-1.312
		C23.769,17.416,23.516,16.627,22.88,16.186z M2.51,17.506l9.299-4.871l9.3,4.871H2.51z"/>
</g>
<g id="Outline_Icons">
	<g>
		<path fill="none" stroke="#000000" stroke-linecap="round" stroke-linejoin="round" stroke-miterlimit="10" d="M11.807,11.5
			l-11,5.5c-0.609,0.424-0.24,1.5,0.5,1.5h21c0.738,0,1.109-1.075,0.5-1.5L11.807,11.5z"/>
		<path fill="none" stroke="#000000" stroke-linecap="round" stroke-linejoin="round" stroke-miterlimit="10" d="M9.307,8
			c0-1.381,1.118-2.5,2.5-2.5c1.38,0,2.499,1.119,2.499,2.5c0,0.521-0.777,1.909-1.834,2.358c-0.403,0.171-0.665,0.704-0.665,1.142"
			/>
	</g>
</g>
</svg>
