<?xml version="1.0" encoding="utf-8"?>
<!-- Generator: Adobe Illustrator 19.2.0, SVG Export Plug-In . SVG Version: 6.00 Build 0)  -->
<svg version="1.1" id="Layer_1" xmlns="http://www.w3.org/2000/svg" xmlns:xlink="http://www.w3.org/1999/xlink" x="0px" y="0px"
	 viewBox="0 0 24 24" style="enable-background:new 0 0 24 24;" xml:space="preserve">
<style type="text/css">
	.st0{display:none;}
	.st1{display:inline;}
	.st2{fill:none;stroke:#000000;stroke-linecap:round;stroke-linejoin:round;stroke-miterlimit:10;}
</style>
<g id="Filled_Icons" class="st0">
	<g class="st1">
		<path d="M17.9,6.6c-1.2-2.3-3.7-3.8-6.4-3.8C7.9,2.8,4.9,5.5,4.4,9C2,8.9,0,10.8,0,13.1c0,3.3,2.8,4.2,4.3,4.2H10V12
			c0-0.8,0.7-1.5,1.5-1.5c0.8,0,1.5,0.7,1.5,1.5v5.3h5.2l0,0c0,0,4.7-0.8,4.7-5.4C23,9,20.7,6.7,17.9,6.6z"/>
		<path d="M14.9,18.7C14.9,18.6,14.9,18.6,14.9,18.7c-0.2-0.2-0.5-0.2-0.7,0c0,0,0,0,0,0l-1.1,1.1L12,20.8V12c0-0.3-0.2-0.5-0.5-0.5
			c-0.3,0-0.5,0.2-0.5,0.5v8.8l-1.1-1.1l-1.1-1.1c-0.2-0.2-0.5-0.2-0.7,0c-0.2,0.2-0.2,0.5,0,0.7L8.8,20l2.3,2.3
			c0.2,0.2,0.5,0.2,0.7,0l2.3-2.3l0.7-0.7C15,19.2,15,18.8,14.9,18.7z"/>
	</g>
</g>
<g id="Outline_Icons">
	<g>
		<path class="st2" d="M16.7,16.5h1.5c0,0,4.3-0.6,4.3-4.8c0-2.7-2.2-4.9-5-4.8c-1.1-2.3-3.4-3.8-6-3.8C7.9,3.1,5,5.9,4.8,9.4
			c-2.2-0.5-4.3,1.2-4.3,3.5c0,3.6,3.8,3.6,3.8,3.6h1.9"/>
		<line class="st2" x1="11.5" y1="21.8" x2="11.5" y2="11.8"/>
		<polyline class="st2" points="8.5,18.8 11.5,21.8 14.5,18.8 		"/>
	</g>
</g>
</svg>
