<?xml version="1.0" encoding="utf-8"?>
<!-- Generator: Adobe Illustrator 19.2.0, SVG Export Plug-In . SVG Version: 6.00 Build 0)  -->
<svg version="1.1" id="Layer_1" xmlns="http://www.w3.org/2000/svg" xmlns:xlink="http://www.w3.org/1999/xlink" x="0px" y="0px"
	 viewBox="0 0 24 24" style="enable-background:new 0 0 24 24;" xml:space="preserve">
<style type="text/css">
	.st0{display:none;}
	.st1{display:inline;}
	.st2{fill:none;stroke:#000000;stroke-linecap:round;stroke-linejoin:round;stroke-miterlimit:10;}
</style>
<g id="Filled_Icons" class="st0">
	<g class="st1">
		<path d="M18.9,5.8C17.6,3.5,15.2,2,12.5,2C8.9,2,5.8,4.7,5.4,8.2C3,8.1,1,10,1,12.3c0,2.1,1.1,3.1,2.1,3.6c1,0.5,2,0.5,2.2,0.5H6
			v-3.9c0-0.6,0.3-1.1,0.8-1.3c0.5-0.3,1.1-0.2,1.6,0.1c0.6,0.4,0.9,0.5,1.1,0.5c0.3,0,0.6-0.1,0.8-0.4c0.6-0.7,1.8-0.7,2.4,0
			c0.2,0.2,0.5,0.4,0.8,0.4c0.2,0,0.5-0.1,1.1-0.5c0.5-0.3,1.1-0.4,1.6-0.1c0.5,0.3,0.8,0.8,0.8,1.3v3.9h2.3c0,0,4.7-0.7,4.7-5.3
			C24,8.2,21.7,5.9,18.9,5.8z"/>
		<path d="M15.7,12c-0.2-0.1-0.4-0.1-0.5,0c-0.7,0.5-1.2,0.7-1.7,0.7c-0.6,0-1.2-0.3-1.6-0.8c-0.2-0.2-0.6-0.2-0.8,0
			c-0.4,0.5-1,0.8-1.6,0.8c-0.5,0-1.1-0.2-1.7-0.7c-0.2-0.1-0.4-0.1-0.5,0C7.1,12.1,7,12.3,7,12.5v5.9c0,0,0,0.1,0,0.1
			c0,0.1,0.7,2.4,4.3,3.4c0,0,0.1,0,0.1,0c0,0,0.1,0,0.1,0c3.6-1,4.3-3.3,4.3-3.4c0,0,0-0.1,0-0.1v-5.9C16,12.3,15.9,12.1,15.7,12z
			 M13.5,17H12v1.5c0,0.3-0.2,0.5-0.5,0.5c-0.3,0-0.5-0.2-0.5-0.5V17H9.5C9.2,17,9,16.7,9,16.5C9,16.2,9.2,16,9.5,16H11v-1.5
			c0-0.3,0.2-0.5,0.5-0.5c0.3,0,0.5,0.2,0.5,0.5V16h1.5c0.3,0,0.5,0.2,0.5,0.5C14,16.7,13.8,17,13.5,17z"/>
	</g>
</g>
<g id="Outline_Icons">
	<g>
		<g>
			<path class="st2" d="M13.5,13.2c-0.8,0-1.5-0.4-2-1h0c-0.5,0.6-1.2,1-2,1c-0.7,0-1.3-0.3-2-0.8v5.9c0,0,0.6,2.1,4,3.1
				c3.4-1,4-3.1,4-3.1v-5.9C14.8,12.9,14.2,13.2,13.5,13.2z"/>
			<line class="st2" x1="11.5" y1="18.5" x2="11.5" y2="14.5"/>
			<line class="st2" x1="9.5" y1="16.5" x2="13.5" y2="16.5"/>
		</g>
		<path class="st2" d="M19.2,15.7c0,0,4.3-0.5,4.3-4.7c0-2.7-2.2-4.8-5-4.7c-1.1-2.3-3.4-3.8-6-3.8C8.9,2.5,6,5.3,5.8,8.8
			c-2.2-0.5-4.3,1.1-4.3,3.4c0,2.4,1.7,3.2,2.8,3.4"/>
	</g>
</g>
</svg>
