<?xml version="1.0" encoding="utf-8"?>
<!-- Generator: Adobe Illustrator 19.2.0, SVG Export Plug-In . SVG Version: 6.00 Build 0)  -->
<svg version="1.1" id="Layer_1" xmlns="http://www.w3.org/2000/svg" xmlns:xlink="http://www.w3.org/1999/xlink" x="0px" y="0px"
	 viewBox="0 0 24 24" style="enable-background:new 0 0 24 24;" xml:space="preserve">
<style type="text/css">
	.st0{display:none;}
	.st1{display:inline;}
	.st2{fill:none;stroke:#000000;stroke-linecap:round;stroke-linejoin:round;stroke-miterlimit:10;}
</style>
<g id="Filled_Icons" class="st0">
	<g class="st1">
		<path d="M18.9,6.6c-1.2-2.3-3.7-3.8-6.4-3.8C8.9,2.8,5.8,5.5,5.4,9C3,8.8,1,10.7,1,13.1c0,2.1,1.1,3.1,2.1,3.6
			C3.8,17,4.6,17.1,5,17.1v-4.6C5,11.7,5.7,11,6.5,11h2c0.7,0,1.2,0.4,1.4,1h5.6c0.8,0,1.5,0.7,1.5,1.5v0.6c0.6,0.2,1,0.8,1,1.4v1.7
			h1.3c0,0,4.7-0.7,4.7-5.3C24,9,21.7,6.7,18.9,6.6z"/>
		<path d="M16.5,15H16v-1.5c0-0.3-0.2-0.5-0.5-0.5H9v-0.5C9,12.2,8.8,12,8.5,12h-2C6.2,12,6,12.2,6,12.5v7C6,20.3,6.7,21,7.5,21H15
			c1.1,0,2-0.9,2-2v-3.5C17,15.2,16.8,15,16.5,15z M8,15.5v4C8,19.8,7.8,20,7.5,20C7.2,20,7,19.8,7,19.5V13h1v0.5
			C8,13.8,8.2,14,8.5,14H15v1H8.5C8.2,15,8,15.2,8,15.5z"/>
	</g>
</g>
<g id="Outline_Icons">
	<g>
		<path class="st2" d="M19.2,16.5c0,0,4.3-0.5,4.3-4.7c0-2.7-2.2-4.8-5-4.7c-1.1-2.3-3.4-3.8-6-3.8C8.9,3.3,6,6.1,5.8,9.6
			C3.6,9.1,1.5,10.7,1.5,13c0,2.4,1.7,3.2,2.8,3.4"/>
		<path class="st2" d="M7.5,20.5H15c0.8,0,1.5-0.7,1.5-1.5v-3.5h-8v4C8.5,20.1,8.1,20.5,7.5,20.5c-0.6,0-1-0.4-1-1v-7h2v1h7v2"/>
	</g>
</g>
</svg>
