<?xml version="1.0" encoding="utf-8"?>
<!-- Generator: Adobe Illustrator 19.2.0, SVG Export Plug-In . SVG Version: 6.00 Build 0)  -->
<svg version="1.1" id="Layer_1" xmlns="http://www.w3.org/2000/svg" xmlns:xlink="http://www.w3.org/1999/xlink" x="0px" y="0px"
	 viewBox="0 0 24 24" style="enable-background:new 0 0 24 24;" xml:space="preserve">
<style type="text/css">
	.st0{display:none;}
	.st1{display:inline;}
	.st2{fill:none;stroke:#000000;stroke-linecap:round;stroke-linejoin:round;stroke-miterlimit:10;}
</style>
<g id="Filled_Icon" class="st0">
	<path class="st1" d="M21.9,10.9c0.3-1.1,0-2.3-0.6-3.2C20.5,6.6,19.3,6,18,6c0,0,0,0,0,0c-1-2.4-3.4-4-6-4C8.6,2,5.8,4.6,5.5,8
		C2.4,8.2,0,10.8,0,14c0,3.3,2.7,6,6,6h13c2.8,0,5-2.2,5-5C24,13.4,23.2,11.8,21.9,10.9z"/>
</g>
<g id="Outline_Icons">
	<g>
		<path class="st2" d="M21.3,11.1c0.8-2.4-1.1-4.9-3.6-4.6c-0.8-2.3-3-4-5.7-4c-3.3,0-6,2.7-6,6C3,8.5,0.5,11,0.5,14
			c0,3,2.5,5.5,5.5,5.5h13c2.5,0,4.5-2,4.5-4.5C23.5,13.4,22.6,11.9,21.3,11.1z"/>
	</g>
</g>
</svg>
