<?xml version="1.0" encoding="utf-8"?>
<!-- Generator: Adobe Illustrator 19.2.0, SVG Export Plug-In . SVG Version: 6.00 Build 0)  -->
<svg version="1.1" id="Layer_1" xmlns="http://www.w3.org/2000/svg" xmlns:xlink="http://www.w3.org/1999/xlink" x="0px" y="0px"
	 viewBox="0 0 24 24" style="enable-background:new 0 0 24 24;" xml:space="preserve">
<style type="text/css">
	.st0{display:none;}
	.st1{display:inline;}
	.st2{fill:none;stroke:#000000;stroke-linejoin:round;stroke-miterlimit:10;}
</style>
<g id="Filled_Icons" class="st0">
	<circle class="st1" cx="4" cy="16" r="0.5"/>
	<circle class="st1" cx="4" cy="21" r="0.5"/>
	<g class="st1">
		<path d="M14,2.9C13,1.1,11.1,0,9,0C6.2,0,3.8,2,3.4,4.6C1.6,4.5,0,6,0,7.8C0,10.3,2.2,11,3.4,11l10.8,0c1.3-0.2,3.8-1.2,3.8-4.1
			C18,4.7,16.2,2.9,14,2.9z"/>
		<g>
			<circle cx="4" cy="16" r="0.5"/>
			<path d="M18,18v-4.5c0-0.3-0.2-0.5-0.5-0.5h-17C0.2,13,0,13.2,0,13.5V18H18z M14,15c0.6,0,1,0.4,1,1c0,0.6-0.4,1-1,1
				c-0.6,0-1-0.4-1-1C13,15.4,13.4,15,14,15z M11,15c0.6,0,1,0.4,1,1c0,0.6-0.4,1-1,1c-0.6,0-1-0.4-1-1C10,15.4,10.4,15,11,15z
				 M4,14.5c0.8,0,1.5,0.7,1.5,1.5c0,0.8-0.7,1.5-1.5,1.5c-0.8,0-1.5-0.7-1.5-1.5C2.5,15.2,3.2,14.5,4,14.5z"/>
			<circle cx="4" cy="21" r="0.5"/>
			<path d="M0,19v4.5C0,23.8,0.2,24,0.5,24h17c0.3,0,0.5-0.2,0.5-0.5V19H0z M4,22.5c-0.8,0-1.5-0.7-1.5-1.5c0-0.8,0.7-1.5,1.5-1.5
				c0.8,0,1.5,0.7,1.5,1.5C5.5,21.8,4.8,22.5,4,22.5z M11,22c-0.6,0-1-0.4-1-1c0-0.6,0.4-1,1-1c0.6,0,1,0.4,1,1
				C12,21.6,11.6,22,11,22z M14,22c-0.6,0-1-0.4-1-1c0-0.6,0.4-1,1-1c0.6,0,1,0.4,1,1C15,21.6,14.6,22,14,22z"/>
		</g>
	</g>
</g>
<g id="Outline_Icons">
	<g>
		<g>
			<path class="st2" d="M17.5,6.9c0-2-1.7-3.6-3.8-3.6C12.8,1.7,11.1,0.5,9,0.5c-2.8,0-5,2.1-5.2,4.7C2.1,4.9,0.5,6.1,0.5,7.8
				c0,2.7,3,2.7,3,2.7h10.7C14.2,10.5,17.5,10.1,17.5,6.9z"/>
		</g>
		<rect x="0.5" y="13.5" class="st2" width="17" height="5"/>
		<rect x="0.5" y="18.5" class="st2" width="17" height="5"/>
		<circle class="st2" cx="4" cy="16" r="1"/>
		<circle class="st2" cx="14" cy="16" r="0.5"/>
		<circle class="st2" cx="11" cy="16" r="0.5"/>
		<circle class="st2" cx="4" cy="21" r="1"/>
		<circle class="st2" cx="14" cy="21" r="0.5"/>
		<circle class="st2" cx="11" cy="21" r="0.5"/>
	</g>
</g>
</svg>
