<?xml version="1.0" encoding="utf-8"?>
<!-- Generator: Adobe Illustrator 19.2.0, SVG Export Plug-In . SVG Version: 6.00 Build 0)  -->
<svg version="1.1" id="Layer_1" xmlns="http://www.w3.org/2000/svg" xmlns:xlink="http://www.w3.org/1999/xlink" x="0px" y="0px"
	 viewBox="0 0 24 24" style="enable-background:new 0 0 24 24;" xml:space="preserve">
<style type="text/css">
	.st0{display:none;}
	.st1{display:inline;}
	.st2{fill:none;stroke:#000000;stroke-linejoin:round;stroke-miterlimit:10;}
	.st3{fill:none;stroke:#000000;stroke-linecap:round;stroke-linejoin:round;stroke-miterlimit:10;}
</style>
<g id="Filled_Icons" class="st0">
	<g class="st1">
		<path d="M18.9,6.3c-1.2-2.3-3.7-3.8-6.4-3.8c-3.6,0-6.7,2.7-7.1,6.2C3,8.6,1,10.5,1,12.8c0,2.1,1.1,3.1,2.1,3.6
			c1,0.5,2,0.5,2.2,0.5h1.1L6,16.5c-0.5-0.4-0.7-1.1-0.5-1.7c0.2-0.6,0.8-1,1.4-1h2.5l1.1-2.6c0.2-0.6,0.8-0.9,1.4-0.9c0,0,0,0,0,0
			c0.6,0,1.1,0.4,1.4,0.9l1.1,2.6H17c0.6,0,1.2,0.4,1.4,1c0.2,0.6,0,1.3-0.5,1.7l-0.4,0.3h1.8c0,0,4.7-0.7,4.7-5.3
			C24,8.7,21.7,6.4,18.9,6.3z"/>
		<path d="M17.4,15.2c-0.1-0.2-0.3-0.3-0.5-0.3h-3.2l-1.4-3.2c-0.1-0.2-0.3-0.3-0.5-0.3c0,0,0,0,0,0c-0.2,0-0.4,0.1-0.5,0.3
			l-1.4,3.2H7c-0.2,0-0.4,0.1-0.5,0.3c-0.1,0.2,0,0.4,0.2,0.6L9.4,18L8,21.7c-0.1,0.2,0,0.4,0.2,0.6c0.2,0.1,0.4,0.1,0.6,0L12,20
			l3.2,2.3c0.1,0.1,0.2,0.1,0.3,0.1c0.1,0,0.2,0,0.3-0.1c0.2-0.1,0.2-0.4,0.2-0.6L14.6,18l2.7-2.2C17.4,15.6,17.5,15.4,17.4,15.2z"
			/>
	</g>
</g>
<g id="Outline_Icons">
	<g>
		<polygon class="st2" points="12,11.8 13.5,15.4 17,15.4 14,17.8 15.5,21.8 12,19.3 8.5,21.8 10,17.8 7,15.4 10.5,15.4 		"/>
		<path class="st3" d="M19.2,16.4c0,0,4.3-0.6,4.3-4.8c0-2.7-2.2-4.9-5-4.8c-1.1-2.3-3.4-3.8-6-3.8C8.9,3,6,5.8,5.8,9.3
			c-2.2-0.5-4.3,1.2-4.3,3.5c0,3,2.6,3.5,3.5,3.6"/>
	</g>
</g>
</svg>
