<?xml version="1.0" encoding="utf-8"?>
<!-- Generator: Adobe Illustrator 19.2.0, SVG Export Plug-In . SVG Version: 6.00 Build 0)  -->
<svg version="1.1" id="Layer_1" xmlns="http://www.w3.org/2000/svg" xmlns:xlink="http://www.w3.org/1999/xlink" x="0px" y="0px"
	 viewBox="0 0 24 24" style="enable-background:new 0 0 24 24;" xml:space="preserve">
<style type="text/css">
	.st0{display:none;}
	.st1{display:inline;}
	.st2{fill:none;stroke:#000000;stroke-linecap:round;stroke-linejoin:round;stroke-miterlimit:10;}
</style>
<g id="Filled_Icons" class="st0">
	<g class="st1">
		<path d="M18.9,6.4c-1.2-2.3-3.7-3.8-6.4-3.8c-3.6,0-6.6,2.7-7.1,6.2c-0.1,0-0.2,0-0.3,0C2.8,8.8,1,10.7,1,12.9c0,3.5,3.1,4,4,4.1
			h0.7c0.1-3.6,3.1-6.5,6.7-6.5c3.6,0,6.6,2.9,6.7,6.5l0,0c0,0,4.7-0.7,4.7-5.3C24,8.9,21.7,6.5,18.9,6.4z"/>
		<path d="M12.5,11.5c-3.2,0-5.8,2.6-5.8,5.8c0,3.2,2.6,5.8,5.8,5.8c3.2,0,5.8-2.6,5.8-5.8C18.2,14.1,15.7,11.5,12.5,11.5z
			 M15.5,19.2c-0.7,0.9-1.8,1.5-3,1.5c-1.9,0-3.5-1.5-3.7-3.4l-0.4,0.4c-0.2,0.2-0.5,0.2-0.7,0c-0.2-0.2-0.2-0.5,0-0.7l1.2-1.2h0
			l0.4-0.4l0.4,0.4h0l1.2,1.2c0.2,0.2,0.2,0.5,0,0.7c-0.1,0.1-0.2,0.1-0.4,0.1c-0.1,0-0.3,0-0.4-0.1l-0.3-0.3
			c0.2,1.3,1.3,2.3,2.7,2.3c0.9,0,1.7-0.4,2.2-1.1c0.2-0.2,0.5-0.3,0.7-0.1C15.6,18.7,15.7,19,15.5,19.2z M17.3,16.2
			c0.2,0.2,0.2,0.5,0,0.7l-1.2,1.2v0l-0.4,0.4l-0.4-0.4v0L14.2,17c-0.2-0.2-0.2-0.5,0-0.7c0.2-0.2,0.5-0.2,0.7,0l0.3,0.3
			c-0.2-1.3-1.3-2.3-2.7-2.3c-0.9,0-1.7,0.4-2.2,1.1c-0.2,0.2-0.5,0.3-0.7,0.1c-0.2-0.2-0.3-0.5-0.1-0.7c0.7-0.9,1.8-1.5,3-1.5
			c1.9,0,3.5,1.5,3.7,3.4l0.4-0.4C16.8,16.1,17.1,16.1,17.3,16.2z"/>
	</g>
</g>
<g id="Outline_Icons">
	<g>
		<path class="st2" d="M20.1,16.2c1.3-0.4,3.4-1.6,3.4-4.6c0-2.7-2.2-4.9-5-4.8c-1.1-2.3-3.4-3.8-6-3.8C8.9,3,6,5.8,5.8,9.3
			c-2.2-0.5-4.3,1.2-4.3,3.5c0,2.8,2.3,3.4,3.3,3.6"/>
		<path class="st2" d="M9.3,14.3c0.7-1,1.9-1.6,3.2-1.6c2.2,0,4,1.8,4,4v1"/>
		<path class="st2" d="M15.7,19.1c-0.7,1-1.9,1.6-3.2,1.6c-2.2,0-4-1.8-4-4v-1"/>
		<polyline class="st2" points="7,17.2 8.5,15.7 10,17.2 		"/>
		<polyline class="st2" points="18,16.2 16.5,17.7 15,16.2 		"/>
	</g>
</g>
</svg>
