<?xml version="1.0" encoding="utf-8"?>
<!-- Generator: Adobe Illustrator 19.2.0, SVG Export Plug-In . SVG Version: 6.00 Build 0)  -->
<svg version="1.1" id="Layer_1" xmlns="http://www.w3.org/2000/svg" xmlns:xlink="http://www.w3.org/1999/xlink" x="0px" y="0px"
	 viewBox="0 0 24 24" style="enable-background:new 0 0 24 24;" xml:space="preserve">
<style type="text/css">
	.st0{display:none;}
	.st1{display:inline;}
	.st2{fill:none;stroke:#000000;stroke-linejoin:round;stroke-miterlimit:10;}
	.st3{fill:none;stroke:#000000;stroke-linecap:round;stroke-linejoin:round;stroke-miterlimit:10;}
</style>
<g id="Filled_Icons" class="st0">
	<g class="st1">
		<path d="M18.9,6.3c-1.2-2.3-3.7-3.8-6.4-3.8c-3.6,0-6.7,2.7-7.1,6.2C3,8.6,1,10.5,1,12.8c0,2.1,1.1,3.1,2.1,3.6
			c1,0.5,2,0.5,2.2,0.5h1.8L7,16.8c-0.7-0.4-1-1.3-0.6-2l1-1.7c0.2-0.4,0.5-0.6,0.9-0.7c0.4-0.1,0.8,0,1.2,0.2v-0.1
			c0-0.8,0.7-1.5,1.5-1.5h2c0.8,0,1.5,0.7,1.5,1.5v0.2c0,0,0.1,0,0.1,0l0.3-0.1c0.7-0.4,1.6-0.1,2,0.6l1,1.7
			c0.2,0.3,0.3,0.8,0.2,1.1c-0.1,0.4-0.4,0.7-0.7,0.9l-0.1,0.1h2.1c0,0,4.7-0.7,4.7-5.3C24,8.7,21.7,6.4,18.9,6.3z"/>
		<path d="M17.1,15.6c0-0.1,0-0.3-0.1-0.4l-1-1.7c-0.1-0.2-0.4-0.3-0.7-0.2l-0.8,0.4c-0.4-0.3-0.7-0.4-1-0.6v-0.8
			c0-0.3-0.2-0.5-0.5-0.5h-2c-0.3,0-0.5,0.2-0.5,0.5v0.8c-0.3,0.1-0.6,0.3-0.9,0.5L9,13.3c-0.1-0.1-0.3-0.1-0.4-0.1
			c-0.1,0-0.2,0.1-0.3,0.2l-1,1.7c-0.1,0.2-0.1,0.5,0.2,0.7l0.7,0.4c0,0.2,0,0.4,0,0.6c0,0.2,0,0.4,0,0.6l-0.7,0.4
			c-0.2,0.1-0.3,0.4-0.2,0.7l1,1.7c0.1,0.1,0.2,0.2,0.3,0.2c0.1,0,0.3,0,0.4-0.1L9.6,20c0.3,0.2,0.6,0.4,0.9,0.5v0.8
			c0,0.3,0.2,0.5,0.5,0.5h2c0.3,0,0.5-0.2,0.5-0.5v-0.8c0.3-0.1,0.7-0.3,1-0.6l0.7,0.4c0.2,0.1,0.5,0.1,0.7-0.2l1-1.7
			c0.1-0.1,0.1-0.2,0.1-0.4c0-0.1-0.1-0.2-0.2-0.3l-0.7-0.4c0-0.2,0-0.4,0-0.6c0-0.2,0-0.4,0-0.6l0.7-0.4
			C16.9,15.9,17,15.8,17.1,15.6z M12.2,18.4c-0.8,0-1.5-0.7-1.5-1.5s0.7-1.5,1.5-1.5c0.8,0,1.5,0.7,1.5,1.5S13,18.4,12.2,18.4z"/>
	</g>
</g>
<g id="Outline_Icons">
	<g>
		<g>
			<circle class="st2" cx="12.2" cy="16.9" r="1.5"/>
			<path class="st2" d="M15.7,16.9c0-0.3,0-0.6-0.1-0.8l1-0.6l-1-1.7l-1.1,0.6c-0.4-0.4-1-0.7-1.5-0.8v-1.1h-2v1.1
				c-0.5,0.2-0.9,0.4-1.3,0.8l-1-0.6l-1,1.7l1,0.6c-0.1,0.3-0.1,0.5-0.1,0.8c0,0.3,0,0.5,0.1,0.8l-1,0.6l1,1.7l0.9-0.6
				c0.4,0.4,0.8,0.7,1.3,0.8v1.1h2v-1.1c0.5-0.2,1.1-0.4,1.5-0.8l1,0.6l1-1.7l-1-0.6C15.6,17.4,15.7,17.2,15.7,16.9z"/>
		</g>
		<path class="st3" d="M19.2,16.4c0,0,4.3-0.6,4.3-4.8c0-2.7-2.2-4.9-5-4.8c-1.1-2.3-3.4-3.8-6-3.8C8.9,3,6,5.8,5.8,9.3
			c-2.2-0.5-4.3,1.2-4.3,3.5c0,3,2.6,3.5,3.5,3.6"/>
	</g>
</g>
</svg>
