<?xml version="1.0" encoding="utf-8"?>
<!-- Generator: Adobe Illustrator 19.2.0, SVG Export Plug-In . SVG Version: 6.00 Build 0)  -->
<svg version="1.1" id="Outline_Icons" xmlns="http://www.w3.org/2000/svg" xmlns:xlink="http://www.w3.org/1999/xlink" x="0px"
	 y="0px" viewBox="0 0 24 24" style="enable-background:new 0 0 24 24;" xml:space="preserve">
<style type="text/css">
	.st0{fill:none;stroke:#000000;stroke-linecap:round;stroke-linejoin:round;stroke-miterlimit:10;}
	.st1{fill:none;stroke:#000000;stroke-linejoin:round;stroke-miterlimit:10;}
</style>
<g>
	<line class="st0" x1="5" y1="23.5" x2="11" y2="23.5"/>
	<line class="st0" x1="8" y1="21.5" x2="8" y2="23.5"/>
	<line class="st1" x1="0.5" y1="19.5" x2="15.5" y2="19.5"/>
	<path class="st0" d="M8.5,10.5V8.2c0-2.1,1.7-3.8,3.8-3.8H14"/>
	<polyline class="st0" points="10.5,8.5 8.5,10.5 6.5,8.5 	"/>
	<path class="st0" d="M12.5,11.5H14c0.8,0,1.5,0.7,1.5,1.5v7c0,0.8-0.7,1.5-1.5,1.5H2c-0.8,0-1.5-0.7-1.5-1.5v-7
		c0-0.8,0.7-1.5,1.5-1.5h1.5"/>
	<polyline class="st0" points="12.5,3 14,4.5 12.5,6 	"/>
	<path class="st1" d="M12,8.5h8.8c0,0,2.7-0.3,2.7-2.9c0-1.6-1.4-2.9-3.2-2.9c-0.7-1.4-2.1-2.3-3.8-2.3c-0.9,0-1.7,0.2-2.4,0.7"/>
</g>
</svg>
