<?xml version="1.0" encoding="utf-8"?>
<!-- Generator: Adobe Illustrator 19.2.0, SVG Export Plug-In . SVG Version: 6.00 Build 0)  -->
<svg version="1.1" id="Layer_1" xmlns="http://www.w3.org/2000/svg" xmlns:xlink="http://www.w3.org/1999/xlink" x="0px" y="0px"
	 viewBox="0 0 24 24" style="enable-background:new 0 0 24 24;" xml:space="preserve">
<style type="text/css">
	.st0{display:none;}
	.st1{display:inline;}
	.st2{fill:none;stroke:#000000;stroke-linecap:round;stroke-linejoin:round;stroke-miterlimit:10;}
</style>
<g id="Filled_Icons" class="st0">
	<g class="st1">
		<g>
			<path d="M20.6,18.5c1.4-0.6,3.4-2,3.4-5c0-3-2.4-5.4-5.4-5.5c-1.3-2.4-3.9-4-6.6-4c-1.6,0-3.2,0.5-4.4,1.5L20.6,18.5z"/>
			<path d="M5.6,7.7c-0.5,0.8-0.9,1.8-1,2.8c-0.1,0-0.2,0-0.3,0c-2.3,0-4.2,1.9-4.2,4.3c0,2.2,1.2,3.2,2.2,3.7C3.2,19,4.3,19,4.5,19
				h12.4L5.6,7.7z"/>
		</g>
		<g>
			<path d="M22.7,23.2c-0.1,0-0.3,0-0.4-0.1L0.9,1.6c-0.2-0.2-0.2-0.5,0-0.7c0.2-0.2,0.5-0.2,0.7,0l21.4,21.4c0.2,0.2,0.2,0.5,0,0.7
				C23,23.2,22.9,23.2,22.7,23.2z"/>
		</g>
	</g>
</g>
<g id="Outline_Icons">
	<g>
		<line class="st2" x1="1.3" y1="1.3" x2="22.7" y2="22.7"/>
		<path class="st2" d="M22,17.1c0.8-0.8,1.5-1.9,1.5-3.6c0-2.8-2.3-5.1-5.2-5c-1.1-2.4-3.5-4-6.3-4c-1,0-2,0.2-2.9,0.6"/>
		<path class="st2" d="M5.5,9c-0.2,0.6-0.4,1.3-0.4,2c-2.3-0.5-4.5,1.3-4.5,3.7c0,3.8,4,3.8,4,3.8H15"/>
	</g>
</g>
</svg>
