<?xml version="1.0" encoding="utf-8"?>
<!-- Generator: Adobe Illustrator 19.2.0, SVG Export Plug-In . SVG Version: 6.00 Build 0)  -->
<svg version="1.1" id="Layer_1" xmlns="http://www.w3.org/2000/svg" xmlns:xlink="http://www.w3.org/1999/xlink" x="0px" y="0px"
	 viewBox="0 0 24 24" style="enable-background:new 0 0 24 24;" xml:space="preserve">
<style type="text/css">
	.st0{display:none;}
	.st1{display:inline;}
	.st2{fill:none;stroke:#000000;stroke-linecap:round;stroke-linejoin:round;stroke-miterlimit:10;}
</style>
<g id="Filled_Icons" class="st0">
	<g class="st1">
		<path d="M18.9,6.4c-1.2-2.3-3.7-3.8-6.4-3.8c-3.6,0-6.6,2.7-7.1,6.2c-0.1,0-0.2,0-0.3,0C2.8,8.8,1,10.7,1,12.9c0,3.5,3.1,4,4,4.1
			h0.5c0-3.6,2.9-6.5,6.5-6.5c3.6,0,6.5,2.9,6.5,6.5l0.7,0l0,0c0,0,4.7-0.7,4.7-5.3C24,8.9,21.7,6.5,18.9,6.4z"/>
		<path d="M12,11.5c-3,0-5.5,2.5-5.5,5.5c0,3,2.5,5.5,5.5,5.5c3,0,5.5-2.5,5.5-5.5C17.5,14,15,11.5,12,11.5z M14.4,16.4l-2.5,2.5
			C11.8,19,11.6,19,11.5,19c-0.1,0-0.3,0-0.4-0.1l-1.5-1.5c-0.2-0.2-0.2-0.5,0-0.7c0.2-0.2,0.5-0.2,0.7,0l1.1,1.1l2.1-2.1
			c0.2-0.2,0.5-0.2,0.7,0C14.5,15.8,14.5,16.2,14.4,16.4z"/>
	</g>
</g>
<g id="Outline_Icons">
	<g>
		<path class="st2" d="M19.2,16.4c0,0,4.3-0.6,4.3-4.8c0-2.7-2.2-4.9-5-4.8c-1.1-2.3-3.4-3.8-6-3.8C8.9,3,6,5.8,5.8,9.3
			c-2.2-0.5-4.3,1.2-4.3,3.5c0,3,2.6,3.5,3.5,3.6"/>
		<circle class="st2" cx="12" cy="16.7" r="5"/>
		<polyline class="st2" points="14,15.7 11.5,18.2 10,16.7 		"/>
	</g>
</g>
</svg>
