<?xml version="1.0" encoding="utf-8"?>
<!-- Generator: Adobe Illustrator 19.2.0, SVG Export Plug-In . SVG Version: 6.00 Build 0)  -->
<svg version="1.1" id="Layer_1" xmlns="http://www.w3.org/2000/svg" xmlns:xlink="http://www.w3.org/1999/xlink" x="0px" y="0px"
	 viewBox="0 0 24 24" style="enable-background:new 0 0 24 24;" xml:space="preserve">
<style type="text/css">
	.st0{display:none;}
	.st1{display:inline;}
	.st2{fill:none;stroke:#000000;stroke-linejoin:round;stroke-miterlimit:10;}
</style>
<g id="Filled_Icons" class="st0">
	<path class="st1" d="M18.6,8c-1.3-2.4-3.9-4-6.6-4c-3.8,0-6.9,2.8-7.4,6.5C2.1,10.3,0,12.3,0,14.8c0,2.2,1.2,3.2,2.2,3.7
		C3.2,19,4.3,19,4.5,19H19l0.1,0c0,0,4.9-0.7,4.9-5.5C24,10.5,21.6,8.1,18.6,8z"/>
</g>
<g id="Outline_Icons">
	<g>
		<path class="st2" d="M23.5,13.5c0-2.8-2.3-5.1-5.2-5c-1.1-2.4-3.5-4-6.3-4c-3.7,0-6.8,2.9-7,6.6c-2.3-0.5-4.5,1.3-4.5,3.7
			c0,3.8,4,3.8,4,3.8H19C19,18.5,23.5,17.9,23.5,13.5z"/>
	</g>
</g>
</svg>
