<?xml version="1.0" encoding="utf-8"?>
<!-- Generator: Adobe Illustrator 19.2.0, SVG Export Plug-In . SVG Version: 6.00 Build 0)  -->
<svg version="1.1" id="Layer_1" xmlns="http://www.w3.org/2000/svg" xmlns:xlink="http://www.w3.org/1999/xlink" x="0px" y="0px"
	 viewBox="0 0 24 24" style="enable-background:new 0 0 24 24;" xml:space="preserve">
<style type="text/css">
	.st0{display:none;}
	.st1{display:inline;}
	.st2{fill:none;stroke:#000000;stroke-linecap:round;stroke-linejoin:round;stroke-miterlimit:10;}
	.st3{fill:none;stroke:#000000;stroke-linejoin:round;stroke-miterlimit:10;}
</style>
<g id="Filled_Icons" class="st0">
	<g class="st1">
		<path d="M18.9,5.1c-1.2-2.3-3.7-3.8-6.4-3.8C8.9,1.3,5.8,4,5.4,7.5C3,7.3,1,9.2,1,11.6c0,2.1,1.1,3.1,2.1,3.6
			c0.7,0.4,1.5,0.5,1.9,0.5v-3.1C5,11.7,5.7,11,6.5,11h11c0.8,0,1.5,0.7,1.5,1.5v3.2h0.3c0,0,4.7-0.7,4.7-5.3
			C24,7.5,21.7,5.2,18.9,5.1z"/>
		<path d="M17.5,12h-11C6.2,12,6,12.2,6,12.5v11C6,23.8,6.2,24,6.5,24h11c0.3,0,0.5-0.2,0.5-0.5v-11C18,12.2,17.8,12,17.5,12z
			 M10,14c0.6,0,1,0.4,1,1c0,0.6-0.4,1-1,1c-0.6,0-1-0.4-1-1C9,14.4,9.4,14,10,14z M17,23H7v-1.7L8.6,18c0.1-0.2,0.2-0.3,0.4-0.3
			c0.2,0,0.3,0.1,0.4,0.2l1.7,2.4l3-5.3c0.1-0.2,0.3-0.3,0.5-0.2c0.2,0,0.4,0.1,0.4,0.3l1.9,5.5V23z"/>
	</g>
</g>
<g id="Outline_Icons">
	<g>
		<path class="st2" d="M19.2,15c0,0,4.3-0.5,4.3-4.7c0-2.7-2.2-4.8-5-4.7c-1.1-2.3-3.4-3.8-6-3.8C8.9,1.8,6,4.6,5.8,8.1
			c-2.2-0.5-4.3,1.1-4.3,3.4c0,2.4,1.7,3.2,2.8,3.4"/>
		<polyline class="st3" points="17.5,23.5 14.6,15.2 11.2,21.2 9.1,18.2 6.5,23.5 		"/>
		<circle class="st3" cx="10" cy="15" r="0.5"/>
		<rect x="6.5" y="12.5" class="st2" width="11" height="11"/>
	</g>
</g>
</svg>
