<?xml version="1.0" encoding="utf-8"?>
<!-- Generator: Adobe Illustrator 19.2.0, SVG Export Plug-In . SVG Version: 6.00 Build 0)  -->
<svg version="1.1" id="Layer_1" xmlns="http://www.w3.org/2000/svg" xmlns:xlink="http://www.w3.org/1999/xlink" x="0px" y="0px"
	 viewBox="0 0 24 24" style="enable-background:new 0 0 24 24;" xml:space="preserve">
<style type="text/css">
	.st0{display:none;}
	.st1{display:inline;}
	.st2{fill:none;stroke:#000000;stroke-linejoin:round;stroke-miterlimit:10;}
	.st3{fill:none;stroke:#000000;stroke-linecap:round;stroke-linejoin:round;stroke-miterlimit:10;}
</style>
<g id="Filled_Icons" class="st0">
	<g class="st1">
		<g>
			<path d="M18.9,6.3c-1.2-2.3-3.7-3.8-6.4-3.8c-3.6,0-6.7,2.7-7.1,6.2C3,8.6,1,10.5,1,12.8c0,2.1,1.1,3.1,2.1,3.6
				c1,0.5,2,0.5,2.2,0.5h0.2c0.1-1.5,0.8-2.9,1.9-4C8.6,11.7,10.3,11,12,11c1.7,0,3.4,0.7,4.6,1.9c1.1,1.1,1.7,2.5,1.9,4h0.8
				c0,0,4.7-0.7,4.7-5.3C24,8.7,21.7,6.4,18.9,6.3z"/>
		</g>
		<path d="M12,13.9c-2,0-3.6,1.6-3.6,3.6c0,0.8,0.3,1.6,0.7,2.2l5-5C13.6,14.2,12.8,13.9,12,13.9z"/>
		<path d="M14.9,15.4l-5,5c0.6,0.5,1.3,0.7,2.2,0.7c2,0,3.6-1.6,3.6-3.6C15.6,16.7,15.4,16,14.9,15.4z"/>
		<path d="M12,12c-3.1,0-5.5,2.5-5.5,5.5c0,3.1,2.5,5.5,5.5,5.5c3.1,0,5.5-2.5,5.5-5.5C17.6,14.5,15.1,12,12,12z M12,22.1
			c-2.5,0-4.6-2.1-4.6-4.6c0-2.5,2.1-4.6,4.6-4.6c2.5,0,4.6,2.1,4.6,4.6C16.6,20.1,14.6,22.1,12,22.1z"/>
	</g>
</g>
<g id="Outline_Icons">
	<g>
		<line class="st2" x1="15.5" y1="14" x2="8.5" y2="21"/>
		<circle class="st2" cx="12" cy="17.5" r="5"/>
		<path class="st3" d="M19.2,16.4c0,0,4.3-0.6,4.3-4.8c0-2.7-2.2-4.9-5-4.8c-1.1-2.3-3.4-3.8-6-3.8C8.9,3,6,5.8,5.8,9.3
			c-2.2-0.5-4.3,1.2-4.3,3.5c0,3,2.6,3.5,3.5,3.6"/>
	</g>
</g>
</svg>
