<?xml version="1.0" encoding="utf-8"?>
<!-- Generator: Adobe Illustrator 19.2.0, SVG Export Plug-In . SVG Version: 6.00 Build 0)  -->
<svg version="1.1" id="Layer_1" xmlns="http://www.w3.org/2000/svg" xmlns:xlink="http://www.w3.org/1999/xlink" x="0px" y="0px"
	 viewBox="0 0 24 24" style="enable-background:new 0 0 24 24;" xml:space="preserve">
<style type="text/css">
	.st0{display:none;}
	.st1{display:inline;}
	.st2{fill:none;stroke:#000000;stroke-linecap:round;stroke-linejoin:round;stroke-miterlimit:10;}
</style>
<g id="Filled_Icons" class="st0">
	<g class="st1">
		<path d="M18.9,6.3c-1.2-2.3-3.7-3.8-6.4-3.8c-3.6,0-6.6,2.7-7.1,6.2C3,8.6,1,10.5,1,12.8C1,16.1,3.8,17,5.3,17h2.4
			c0-0.2,0-0.3,0-0.5c0-2.4,1.7-4.3,4-4.7l-0.3-0.3c-0.1-0.1-0.2-0.3-0.2-0.5c0-0.2,0.1-0.4,0.2-0.5c0.3-0.3,0.8-0.3,1.1,0l2,2l-2,2
			c-0.3,0.3-0.8,0.3-1.1,0c-0.1-0.1-0.2-0.3-0.2-0.5c0-0.2,0.1-0.4,0.2-0.5l0.1-0.1c-1.3,0.4-2.3,1.7-2.3,3.1c0,0.2,0,0.3,0,0.5h6.4
			c0-0.2,0-0.3,0-0.5c0-0.6-0.2-1.1-0.4-1.6c-0.2-0.4-0.1-0.8,0.3-1c0.3-0.2,0.8-0.1,1,0.3c0.4,0.7,0.6,1.5,0.6,2.4
			c0,0.2,0,0.3,0,0.5h2l0,0c0,0,4.7-0.8,4.7-5.4C24,8.7,21.7,6.4,18.9,6.3z"/>
		<path d="M15.8,14.3c-0.1,0.1-0.2,0.2-0.1,0.3c0.3,0.6,0.5,1.2,0.5,1.9c0,2.1-1.7,3.8-3.8,3.8c-2.1,0-3.8-1.7-3.8-3.8
			c0-2,1.5-3.6,3.5-3.7l0.7,0l-1.1,1.1c0,0-0.1,0.1-0.1,0.2c0,0.1,0,0.1,0.1,0.2c0.1,0.1,0.3,0.1,0.4,0l1.7-1.7l-1.7-1.7
			c0,0-0.1-0.1-0.2-0.1c-0.1,0-0.1,0-0.2,0.1c0,0-0.1,0.1-0.1,0.2c0,0.1,0,0.1,0.1,0.2l1.1,1.1l-0.6,0c-2.3,0.1-4.1,2-4.1,4.2
			c0,2.3,1.9,4.2,4.2,4.2c2.3,0,4.2-1.9,4.2-4.2c0-0.7-0.2-1.5-0.6-2.1C16.1,14.3,16,14.2,15.8,14.3z"/>
	</g>
</g>
<g id="Outline_Icons">
	<g>
		<path class="st2" d="M19.2,16.4c0,0,4.3-0.6,4.3-4.8c0-2.7-2.2-4.9-5-4.8c-1.1-2.3-3.4-3.8-6-3.8C8.9,3,6,5.8,5.8,9.3
			c-2.2-0.5-4.3,1.2-4.3,3.5c0,3.6,3.8,3.6,3.8,3.6"/>
		<path class="st2" d="M16,14.5c0.3,0.6,0.5,1.3,0.5,2c0,2.2-1.8,4-4,4c-2.2,0-4-1.8-4-4s1.8-4,4-4h1"/>
		<polyline class="st2" points="12,11 13.5,12.5 12,14 		"/>
	</g>
</g>
</svg>
