<?xml version="1.0" encoding="utf-8"?>
<!-- Generator: Adobe Illustrator 19.2.0, SVG Export Plug-In . SVG Version: 6.00 Build 0)  -->
<svg version="1.1" id="Layer_1" xmlns="http://www.w3.org/2000/svg" xmlns:xlink="http://www.w3.org/1999/xlink" x="0px" y="0px"
	 viewBox="0 0 24 24" style="enable-background:new 0 0 24 24;" xml:space="preserve">
<style type="text/css">
	.st0{display:none;}
	.st1{display:inline;}
	.st2{fill:none;stroke:#000000;stroke-linecap:round;stroke-linejoin:round;stroke-miterlimit:10;}
	.st3{fill:none;stroke:#000000;stroke-linejoin:round;stroke-miterlimit:10;}
</style>
<g id="Filled_Icons" class="st0">
	<g class="st1">
		<path d="M18.9,6.3c-1.2-2.3-3.7-3.8-6.4-3.8c-3.6,0-6.7,2.7-7.1,6.2C3,8.6,1,10.5,1,12.8c0,2.1,1.1,3.1,2.1,3.6
			c1,0.5,2,0.5,2.2,0.5h0.2c0-0.1,0-0.2,0-0.4c0-3.6,2.9-6.5,6.5-6.5s6.5,2.9,6.5,6.5c0,0.1,0,0.2,0,0.4h0.8c0,0,4.7-0.7,4.7-5.3
			C24,8.7,21.7,6.4,18.9,6.3z"/>
		<path d="M12,11c-3,0-5.5,2.5-5.5,5.5c0,3,2.5,5.5,5.5,5.5c3,0,5.5-2.5,5.5-5.5C17.5,13.5,15,11,12,11z M12,15.9
			c0.9,0,1.7,0.7,1.7,1.7c0,0.7-0.5,1.4-1.2,1.6v0.4c0,0.3-0.2,0.5-0.5,0.5c-0.3,0-0.5-0.2-0.5-0.5v-0.4c-0.7-0.2-1.2-0.8-1.2-1.6
			c0-0.3,0.2-0.5,0.5-0.5c0.3,0,0.5,0.2,0.5,0.5c0,0.4,0.3,0.7,0.7,0.7c0.4,0,0.7-0.3,0.7-0.7c0-0.4-0.3-0.7-0.7-0.7
			c-0.9,0-1.7-0.7-1.7-1.7c0-0.7,0.5-1.4,1.2-1.6v-0.4c0-0.3,0.2-0.5,0.5-0.5c0.3,0,0.5,0.2,0.5,0.5v0.4c0.7,0.2,1.2,0.8,1.2,1.6
			c0,0.3-0.2,0.5-0.5,0.5c-0.3,0-0.5-0.2-0.5-0.5c0-0.4-0.3-0.7-0.7-0.7c-0.4,0-0.7,0.3-0.7,0.7C11.3,15.6,11.6,15.9,12,15.9z"/>
	</g>
</g>
<g id="Outline_Icons">
	<g>
		<path class="st2" d="M19.2,16.4c0,0,4.3-0.6,4.3-4.8c0-2.7-2.2-4.9-5-4.8c-1.1-2.3-3.4-3.8-6-3.8C8.9,3,6,5.8,5.8,9.3
			c-2.2-0.5-4.3,1.2-4.3,3.5c0,3,2.6,3.5,3.5,3.6"/>
		<g>
			<circle class="st3" cx="12" cy="16.5" r="5"/>
			<g>
				<path class="st2" d="M10.8,17.6c0,0.6,0.5,1.2,1.2,1.2c0.6,0,1.2-0.5,1.2-1.2c0-0.6-0.5-1.2-1.2-1.2c-0.6,0-1.2-0.5-1.2-1.2
					c0-0.6,0.5-1.2,1.2-1.2c0.6,0,1.2,0.5,1.2,1.2"/>
				<line class="st2" x1="12" y1="18.8" x2="12" y2="19.5"/>
				<line class="st2" x1="12" y1="13.4" x2="12" y2="14.1"/>
			</g>
		</g>
	</g>
</g>
</svg>
