<?xml version="1.0" encoding="utf-8"?>
<!-- Generator: Adobe Illustrator 19.2.0, SVG Export Plug-In . SVG Version: 6.00 Build 0)  -->
<svg version="1.1" id="Layer_1" xmlns="http://www.w3.org/2000/svg" xmlns:xlink="http://www.w3.org/1999/xlink" x="0px" y="0px"
	 viewBox="0 0 24 24" style="enable-background:new 0 0 24 24;" xml:space="preserve">
<style type="text/css">
	.st0{display:none;}
	.st1{display:inline;}
	.st2{fill:none;stroke:#000000;stroke-linejoin:round;stroke-miterlimit:10;}
	.st3{fill:none;stroke:#000000;stroke-linecap:round;stroke-linejoin:round;stroke-miterlimit:10;}
</style>
<g id="Filled_Icons" class="st0">
	<g class="st1">
		<path d="M18.9,5.1c-1.2-2.3-3.7-3.8-6.4-3.8C8.9,1.3,5.8,4,5.4,7.5C3,7.3,1,9.2,1,11.6c0,2.1,1.1,3.1,2.1,3.6c1,0.5,2,0.5,2.2,0.5
			l1.2,0c0.2-2.8,2.5-4.9,5.3-4.9c2.8,0,5.1,2.2,5.3,4.9h2.2c0,0,4.7-0.7,4.7-5.3C24,7.5,21.7,5.2,18.9,5.1z"/>
		<path d="M18.4,21.9l-3.2-3.2c0.6-0.7,0.9-1.6,0.9-2.7c0-2.4-1.9-4.3-4.3-4.3c-2.4,0-4.3,1.9-4.3,4.3c0,2.4,1.9,4.3,4.3,4.3
			c1,0,1.9-0.4,2.7-0.9l3.2,3.2c0.1,0.1,0.2,0.1,0.4,0.1c0.1,0,0.3,0,0.4-0.1C18.5,22.4,18.5,22.1,18.4,21.9z M8.5,16
			c0-1.8,1.5-3.3,3.3-3.3c1.8,0,3.3,1.5,3.3,3.3c0,1.8-1.5,3.3-3.3,3.3C10,19.3,8.5,17.8,8.5,16z"/>
	</g>
</g>
<g id="Outline_Icons">
	<g>
		<circle class="st2" cx="11.8" cy="16" r="3.8"/>
		<line class="st3" x1="14.5" y1="18.7" x2="18" y2="22.2"/>
		<path class="st3" d="M19.2,16.2c0,0,4.3-0.5,4.3-4.7c0-2.7-2.2-4.8-5-4.7c-1.1-2.3-3.4-3.8-6-3.8C8.9,3,6,5.8,5.8,9.3
			c-2.2-0.5-4.3,1.1-4.3,3.4c0,2.4,1.7,3.2,2.8,3.4"/>
	</g>
</g>
</svg>
