<?xml version="1.0" encoding="utf-8"?>
<!-- Generator: Adobe Illustrator 19.2.0, SVG Export Plug-In . SVG Version: 6.00 Build 0)  -->
<svg version="1.1" id="Layer_1" xmlns="http://www.w3.org/2000/svg" xmlns:xlink="http://www.w3.org/1999/xlink" x="0px" y="0px"
	 viewBox="0 0 24 24" style="enable-background:new 0 0 24 24;" xml:space="preserve">
<style type="text/css">
	.st0{display:none;}
	.st1{display:inline;}
	.st2{fill:none;stroke:#000000;stroke-linecap:round;stroke-linejoin:round;stroke-miterlimit:10;}
	.st3{fill:none;stroke:#000000;stroke-linejoin:round;stroke-miterlimit:10;}
</style>
<g id="Filled_Icons" class="st0">
	<g class="st1">
		<g>
			<path d="M18.9,5.1c-1.2-2.3-3.7-3.8-6.4-3.8C8.9,1.3,5.8,4,5.4,7.5C3,7.3,1,9.2,1,11.6c0,2.1,1.1,3.1,2.1,3.6
				c1,0.5,2,0.5,2.2,0.5l2.7,0v-1.9c0-0.6,0.3-1.1,0.9-1.4l6-2.8c0.5-0.2,1-0.2,1.4,0.1C16.7,10,17,10.5,17,11v4.6l2.3,0
				c0,0,4.7-0.7,4.7-5.3C24,7.5,21.7,5.2,18.9,5.1z"/>
		</g>
		<path d="M15.8,10.6c-0.1-0.1-0.3-0.1-0.5,0l-6,2.8C9.1,13.4,9,13.6,9,13.8v5.7H8c-1.1,0-2,0.9-2,2c0,1.1,0.9,2,2,2
			c1.1,0,2-0.9,2-2v-1V20v-5.9l5-2.3v4.7h-1c-1.1,0-2,0.9-2,2c0,1.1,0.9,2,2,2c1.1,0,2-0.9,2-2v-1V17v-6
			C16,10.8,15.9,10.7,15.8,10.6z"/>
	</g>
</g>
<g id="Outline_Icons">
	<g>
		<path class="st2" d="M19.2,15c0,0,4.3-0.5,4.3-4.7c0-2.7-2.2-4.8-5-4.7c-1.1-2.3-3.4-3.8-6-3.8C8.9,1.8,6,4.6,5.8,8.1
			c-2.2-0.5-4.3,1.1-4.3,3.4c0,2.4,1.7,3.2,2.8,3.4"/>
		<path class="st3" d="M9.5,21.5C9.5,22.2,8.8,23,8,23c-0.8,0-1.5-0.7-1.5-1.5C6.5,20.7,7.2,20,8,20c0.3,0,1.2,0,1.5,0
			C9.5,20.5,9.5,20.9,9.5,21.5z"/>
		<path class="st3" d="M15.5,18.5c0,0.8-0.7,1.5-1.5,1.5c-0.8,0-1.5-0.7-1.5-1.5c0-0.8,0.7-1.5,1.5-1.5c0.3,0,1.2,0,1.5,0
			C15.5,17.5,15.5,18,15.5,18.5z"/>
		<polyline class="st3" points="9.5,20.5 9.5,13.8 15.5,11 15.5,17.5 		"/>
	</g>
</g>
</svg>
