<?xml version="1.0" encoding="utf-8"?>
<!-- Generator: Adobe Illustrator 19.2.0, SVG Export Plug-In . SVG Version: 6.00 Build 0)  -->
<svg version="1.1" id="Layer_1" xmlns="http://www.w3.org/2000/svg" xmlns:xlink="http://www.w3.org/1999/xlink" x="0px" y="0px"
	 viewBox="0 0 24 24" style="enable-background:new 0 0 24 24;" xml:space="preserve">
<style type="text/css">
	.st0{display:none;}
	.st1{display:inline;}
	.st2{fill:none;stroke:#000000;stroke-linejoin:round;stroke-miterlimit:10;}
	.st3{fill:none;stroke:#000000;stroke-linecap:round;stroke-linejoin:round;stroke-miterlimit:10;}
</style>
<g id="Filled_Icons" class="st0">
	<g class="st1">
		<path d="M18.6,12c-1.3-2.4-3.9-4-6.6-4c-3.8,0-6.9,2.8-7.4,6.5C2.1,14.3,0,16.3,0,18.8c0,2.2,1.2,3.2,2.2,3.7
			C3.2,23,4.3,23,4.5,23l14.6,0c0,0,4.9-0.7,4.9-5.5C24,14.5,21.6,12.1,18.6,12z"/>
		<path d="M7.1,3.3c2.6-1.8,6.2-1.8,8.9,0c0.1,0.1,0.2,0.1,0.3,0.1c0.2,0,0.3-0.1,0.4-0.2c0.2-0.2,0.1-0.5-0.1-0.7c-3-2-7-2-10,0
			C6.3,2.7,6.3,3,6.4,3.2C6.6,3.4,6.9,3.5,7.1,3.3z"/>
		<path d="M15.6,4.9c0.2-0.2,0.1-0.5-0.1-0.7c-2.3-1.5-5.5-1.5-7.8,0C7.5,4.3,7.4,4.6,7.5,4.9C7.6,5,7.8,5.1,8,5.1
			c0.1,0,0.2,0,0.3-0.1c2-1.3,4.7-1.3,6.7,0C15.1,5.2,15.4,5.1,15.6,4.9z"/>
		<path d="M8.8,5.8C8.6,6,8.5,6.3,8.6,6.5c0.2,0.2,0.5,0.3,0.7,0.1c1.3-0.9,3.1-0.9,4.4,0c0.1,0.1,0.2,0.1,0.3,0.1
			c0.2,0,0.3-0.1,0.4-0.2c0.2-0.2,0.1-0.5-0.1-0.7C12.7,4.7,10.4,4.7,8.8,5.8z"/>
	</g>
</g>
<g id="Outline_Icons">
	<g>
		<g>
			<path class="st2" d="M23.5,17.5c0-2.8-2.3-5.1-5.2-5c-1.1-2.4-3.5-4-6.3-4c-3.7,0-6.8,2.9-7,6.6c-2.3-0.5-4.5,1.3-4.5,3.7
				c0,3.8,4,3.8,4,3.8H19C19,22.5,23.5,21.9,23.5,17.5z"/>
		</g>
		<path class="st3" d="M16.3,2.9c-1.3-0.9-3-1.4-4.7-1.4C9.8,1.5,8.2,2,6.8,2.9"/>
		<path class="st3" d="M15.2,4.6c-1-0.7-2.3-1.1-3.6-1.1C10.2,3.5,9,3.9,8,4.6"/>
		<path class="st3" d="M14.1,6.3c-0.7-0.5-1.6-0.8-2.5-0.8c-0.9,0-1.8,0.3-2.5,0.8"/>
	</g>
</g>
</svg>
