<?xml version="1.0" encoding="utf-8"?>
<!-- Generator: Adobe Illustrator 19.2.0, SVG Export Plug-In . SVG Version: 6.00 Build 0)  -->
<svg version="1.1" id="Layer_1" xmlns="http://www.w3.org/2000/svg" xmlns:xlink="http://www.w3.org/1999/xlink" x="0px" y="0px"
	 viewBox="0 0 24 24" style="enable-background:new 0 0 24 24;" xml:space="preserve">
<style type="text/css">
	.st0{display:none;}
	.st1{display:inline;}
	.st2{fill:none;stroke:#000000;stroke-linejoin:round;stroke-miterlimit:10;}
	.st3{fill:none;stroke:#000000;stroke-linecap:round;stroke-linejoin:round;stroke-miterlimit:10;}
</style>
<g id="Filled_Icons" class="st0">
	<path class="st1" d="M2.6,14.7l0.9-1.9c0.5-1,1.6-1.8,2.8-1.8H17c1.1,0,2.3,0.7,2.8,1.6l1.1,1.8c1.4-0.6,3.1-2,3.1-4.9
		c0-1.5-0.6-2.9-1.7-4c-1-1-2.3-1.5-3.7-1.5c-1.3-2.4-3.9-4-6.6-4C8.2,0,5.1,2.8,4.6,6.5c-1.1-0.1-2.2,0.2-3,0.9
		c-1,0.8-1.6,2-1.6,3.3c0,1.3,0.4,2.3,1.1,3C1.6,14.2,2.1,14.5,2.6,14.7z"/>
	<path class="st1" d="M21.9,18.1l-2.9-5C18.6,12.5,17.7,12,17,12H6.2c-0.7,0-1.6,0.5-1.9,1.2L2,18.3c0,0,0,0,0,0c0,0.1,0,0.1,0,0.2
		V21c0,1.7,1.3,3,3,3h14c1.7,0,3-1.3,3-3v-2.4c0,0,0-0.1,0-0.1C22,18.4,22,18.2,21.9,18.1z M18,22h-3c-0.3,0-0.5-0.2-0.5-0.5
		c0-0.3,0.2-0.5,0.5-0.5h3c0.3,0,0.5,0.2,0.5,0.5C18.5,21.8,18.3,22,18,22z M3.3,18l2-4.4c0.1-0.3,0.6-0.6,1-0.6H17
		c0.4,0,0.9,0.3,1.1,0.6l2.6,4.4H3.3z"/>
</g>
<g id="Outline_Icons">
	<g>
		<path class="st2" d="M19.2,14.5c0,0,4.3-0.6,4.3-5c0-2.8-2.3-5.1-5.2-5c-1.1-2.4-3.5-4-6.3-4c-3.7,0-6.8,2.9-7,6.6
			c-2.3-0.5-4.5,1.3-4.5,3.7c0,3.8,3.8,3.7,3.8,3.7"/>
		<path class="st3" d="M21.5,21c0,1.4-1.1,2.5-2.5,2.5H5c-1.4,0-2.5-1.1-2.5-2.5v-2.5h19V21z"/>
		<path class="st3" d="M2.5,18.5l2.3-5.1c0.2-0.5,0.9-0.9,1.4-0.9H17c0.5,0,1.2,0.4,1.5,0.9l3,5.1H2.5z"/>
		<line class="st3" x1="15" y1="21.5" x2="18" y2="21.5"/>
	</g>
</g>
</svg>
