<?xml version="1.0" encoding="utf-8"?>
<!-- Generator: Adobe Illustrator 19.2.0, SVG Export Plug-In . SVG Version: 6.00 Build 0)  -->
<svg version="1.1" id="Layer_1" xmlns="http://www.w3.org/2000/svg" xmlns:xlink="http://www.w3.org/1999/xlink" x="0px" y="0px"
	 viewBox="0 0 24 24" style="enable-background:new 0 0 24 24;" xml:space="preserve">
<style type="text/css">
	.st0{display:none;}
	.st1{display:inline;}
	.st2{fill:none;stroke:#000000;stroke-linecap:round;stroke-linejoin:round;stroke-miterlimit:10;}
</style>
<g id="Filled_Icons" class="st0">
	<g class="st1">
		<path d="M18.9,6.3c-1.2-2.3-3.7-3.8-6.4-3.8c-3.6,0-6.7,2.7-7.1,6.2C3,8.6,1,10.5,1,12.8c0,2.1,1.1,3.1,2.1,3.6
			c1,0.5,2,0.5,2.2,0.5H7v-1.4c0-0.7,0.4-1.2,1-1.4c0.2-2.3,2.1-4.1,4.5-4.1c2.3,0,4.2,1.8,4.5,4.1c0.6,0.2,1,0.8,1,1.4v1.4h1.3
			c0,0,4.7-0.7,4.7-5.3C24,8.7,21.7,6.4,18.9,6.3z"/>
		<path d="M16.5,15H16v-0.5c0-1.9-1.6-3.5-3.5-3.5C10.6,11,9,12.6,9,14.5V15H8.5C8.2,15,8,15.2,8,15.5v6C8,21.8,8.2,22,8.5,22h8
			c0.3,0,0.5-0.2,0.5-0.5v-6C17,15.2,16.8,15,16.5,15z M10,14.5c0-1.4,1.1-2.5,2.5-2.5c1.4,0,2.5,1.1,2.5,2.5V15h-5V14.5z M13,18.8
			v0.7c0,0.3-0.2,0.5-0.5,0.5c-0.3,0-0.5-0.2-0.5-0.5v-0.7c-0.3-0.2-0.5-0.5-0.5-0.8c0-0.6,0.4-1,1-1c0.6,0,1,0.4,1,1
			C13.5,18.4,13.3,18.7,13,18.8z"/>
	</g>
</g>
<g id="Outline_Icons">
	<g>
		<path class="st2" d="M19.2,16.4c0,0,4.3-0.6,4.3-4.8c0-2.7-2.2-4.9-5-4.8c-1.1-2.3-3.4-3.8-6-3.8C8.9,3,6,5.8,5.8,9.3
			c-2.2-0.5-4.3,1.2-4.3,3.5c0,3,2.6,3.5,3.5,3.6"/>
		<g>
			<rect x="8.5" y="15.5" class="st2" width="8" height="6"/>
			<line class="st2" x1="12.5" y1="19.5" x2="12.5" y2="18.5"/>
			<path class="st2" d="M9.5,15.5v-1c0-1.7,1.3-3,3-3c1.7,0,3,1.3,3,3v1"/>
			<circle class="st2" cx="12.5" cy="18" r="0.5"/>
		</g>
	</g>
</g>
</svg>
