<?xml version="1.0" encoding="utf-8"?>
<!-- Generator: Adobe Illustrator 19.2.0, SVG Export Plug-In . SVG Version: 6.00 Build 0)  -->
<svg version="1.1" id="Layer_1" xmlns="http://www.w3.org/2000/svg" xmlns:xlink="http://www.w3.org/1999/xlink" x="0px" y="0px"
	 viewBox="0 0 24 24" style="enable-background:new 0 0 24 24;" xml:space="preserve">
<style type="text/css">
	.st0{display:none;}
	.st1{display:inline;}
	.st2{fill:none;stroke:#000000;stroke-linecap:round;stroke-linejoin:round;stroke-miterlimit:10;}
</style>
<g id="Filled_Icons" class="st0">
	<g class="st1">
		<path d="M17.9,6.6c-1.2-2.3-3.7-3.8-6.4-3.8C7.9,2.8,4.9,5.5,4.4,9C2,8.9,0,10.8,0,13.1c0,3.3,2.8,4.2,4.3,4.2H10v-2.7l-0.4,0.4
			c-0.6,0.6-1.6,0.6-2.1,0C7.2,14.8,7,14.4,7,14c0-0.4,0.2-0.8,0.4-1.1l3-3c0.1-0.1,0.3-0.2,0.5-0.3c0.4-0.2,0.8-0.1,1.1,0
			c0.2,0.1,0.4,0.2,0.5,0.3l3,3c0.3,0.3,0.4,0.7,0.4,1.1c0,0.4-0.2,0.8-0.4,1.1c-0.6,0.6-1.6,0.6-2.1,0L13,14.6v2.7
			c0.1,0,5.3,0,5.3,0s4.7-0.8,4.7-5.4C23,9,20.7,6.7,17.9,6.6z"/>
		<path d="M14.9,14.4c0.1-0.1,0.1-0.2,0.1-0.4c0-0.1-0.1-0.3-0.1-0.4l-3-3c0,0-0.1-0.1-0.2-0.1c-0.1,0-0.3-0.1-0.4,0
			c-0.1,0-0.1,0.1-0.2,0.1l-3,3C8.1,13.7,8,13.9,8,14c0,0.1,0.1,0.3,0.1,0.4c0.2,0.2,0.5,0.2,0.7,0l2.1-2.1V22
			c0,0.3,0.2,0.5,0.5,0.5c0.3,0,0.5-0.2,0.5-0.5v-9.8l2.1,2.1C14.3,14.5,14.7,14.5,14.9,14.4z"/>
	</g>
</g>
<g id="Outline_Icons">
	<g>
		<path class="st2" d="M15.8,16.5h2.4c0,0,4.3-0.6,4.3-4.8c0-2.7-2.2-4.9-5-4.8c-1.1-2.3-3.4-3.8-6-3.8C7.9,3.1,5,5.9,4.8,9.4
			c-2.2-0.5-4.3,1.2-4.3,3.5c0,3.6,3.8,3.6,3.8,3.6h2.9"/>
		<line class="st2" x1="11.5" y1="10.8" x2="11.5" y2="21.8"/>
		<polyline class="st2" points="14.5,13.8 11.5,10.8 8.5,13.8 		"/>
	</g>
</g>
</svg>
