<?xml version="1.0" encoding="utf-8"?>
<!-- Generator: Adobe Illustrator 19.2.0, SVG Export Plug-In . SVG Version: 6.00 Build 0)  -->
<svg version="1.1" id="Layer_1" xmlns="http://www.w3.org/2000/svg" xmlns:xlink="http://www.w3.org/1999/xlink" x="0px" y="0px"
	 viewBox="0 0 24 24" style="enable-background:new 0 0 24 24;" xml:space="preserve">
<style type="text/css">
	.st0{display:none;}
	.st1{display:inline;}
	.st2{fill:none;stroke:#000000;stroke-linecap:round;stroke-linejoin:round;stroke-miterlimit:10;}
</style>
<g id="Filled_Icon" class="st0">
	<g class="st1">
		<path d="M23.5,6.5H24L24,5h-0.5c-3.1,0.1-6.6,1.9-8,4.1c0.4,0.4,0.7,0.8,0.9,1.2C18.2,7.9,20.5,6.6,23.5,6.5z"/>
		<path d="M24,1.5L24,1.5v-1c0-0.1-0.1-0.3-0.2-0.4C23.8,0.1,23.6,0,23.5,0C18.5,0.2,14,2.6,11,6.6C10.9,6.8,10.9,6.9,11,7
			c0.6,0,1.1,0.1,1.7,0.3C15.1,3.9,19.6,1.5,24,1.5z"/>
		<path d="M24,2.5c-4.6,0-8.4,2.6-10.4,5.3C14,8,14.4,8.2,14.7,8.5c1.6-2.4,5.4-4.3,8.7-4.5H24L24,2.5L24,2.5z"/>
		<path d="M23.5,7.5c-2.6,0.1-4.6,1.1-6.1,3.2c0.5,0.2,0.9,0.4,1.3,0.7c1.2-1.4,3-2.3,4.8-2.4C23.8,9,24,8.8,24,8.5l0-1H23.5z"/>
	</g>
	<path class="st1" d="M19.3,16.1c0.3-1,0.2-2.1-0.4-2.9c-0.7-1-1.8-1.6-3-1.6C15,9.4,12.8,8,10.5,8c-3,0-5.5,2.2-5.9,5.1
		C1.9,13.6,0,15.8,0,18.5c0,3,2.5,5.5,5.5,5.5h11c2.5,0,4.5-2,4.5-4.5C21,18.2,20.4,16.9,19.3,16.1z"/>
</g>
<g id="Outline_Icons">
	<g>
		<path class="st2" d="M18.8,16.2c0.9-2.1-0.8-4.5-3.1-4.2c-0.8-2.1-2.8-3.5-5.1-3.5c-2.9,0-5.2,2.2-5.5,5c-2.5,0.2-4.5,2.4-4.5,5
			c0,2.8,2.2,5,5,5h11c2.2,0,4-1.8,4-4C20.5,18.1,19.8,16.9,18.8,16.2z"/>
		<path class="st2" d="M11.4,6.9c2.7-3.8,7.1-6.3,12.1-6.4"/>
		<path class="st2" d="M15.5,8.3c2-2.2,4.8-3.6,8-3.7"/>
		<path class="st2" d="M18.7,10.7c1.2-1.3,2.9-2.1,4.8-2.2"/>
	</g>
</g>
</svg>
