<?xml version="1.0" encoding="utf-8"?>
<!-- Generator: Adobe Illustrator 19.2.0, SVG Export Plug-In . SVG Version: 6.00 Build 0)  -->
<svg version="1.1" id="Layer_1" xmlns="http://www.w3.org/2000/svg" xmlns:xlink="http://www.w3.org/1999/xlink" x="0px" y="0px"
	 viewBox="0 0 24 24" style="enable-background:new 0 0 24 24;" xml:space="preserve">
<style type="text/css">
	.st0{display:none;}
	.st1{display:inline;}
	.st2{fill:none;stroke:#000000;stroke-linecap:round;stroke-linejoin:round;stroke-miterlimit:10;}
</style>
<g id="Filled_Icons" class="st0">
	<g class="st1">
		<path d="M18.9,6.3c-1.2-2.3-3.7-3.8-6.4-3.8c-3.6,0-6.7,2.7-7.1,6.2C3,8.6,1,10.5,1,12.8c0,2.1,1.1,3.1,2.1,3.6
			c1,0.5,2,0.5,2.2,0.5h0.8l4-8C10.4,8.3,10.9,8,11.5,8c0.6,0,1.1,0.3,1.3,0.8l4,8l2.4,0c0,0,4.7-0.7,4.7-5.3
			C24,8.7,21.7,6.4,18.9,6.3z"/>
		<path d="M17.4,20.2L11.9,9.3c-0.2-0.3-0.7-0.3-0.9,0l-5.5,11c-0.1,0.2-0.1,0.3,0,0.5C5.7,20.9,5.8,21,6,21h11c0,0,0,0,0,0
			c0.3,0,0.5-0.2,0.5-0.5C17.5,20.4,17.5,20.3,17.4,20.2z M11.5,19c-0.3,0-0.5-0.2-0.5-0.5c0-0.3,0.2-0.5,0.5-0.5
			c0.3,0,0.5,0.2,0.5,0.5C12,18.8,11.8,19,11.5,19z M12,17c0,0.3-0.2,0.5-0.5,0.5c-0.3,0-0.5-0.2-0.5-0.5v-3c0-0.3,0.2-0.5,0.5-0.5
			c0.3,0,0.5,0.2,0.5,0.5V17z"/>
	</g>
</g>
<g id="Outline_Icons">
	<g>
		<g>
			<polygon class="st2" points="17,20.5 6,20.5 11.5,9.5 			"/>
			<line class="st2" x1="11.5" y1="14" x2="11.5" y2="17"/>
			<g>
				<g>
					<g>
						<path d="M11.5,18c-0.3,0-0.5,0.2-0.5,0.5c0,0.3,0.2,0.5,0.5,0.5c0.3,0,0.5-0.2,0.5-0.5C12,18.2,11.8,18,11.5,18L11.5,18z"/>
					</g>
				</g>
			</g>
		</g>
		<path class="st2" d="M19.2,16.2c0,0,4.3-0.5,4.3-4.7c0-2.7-2.2-4.8-5-4.7c-1.1-2.3-3.4-3.8-6-3.8C8.9,3,6,5.8,5.8,9.3
			c-2.2-0.5-4.3,1.1-4.3,3.4c0,2.4,1.7,3.2,2.8,3.4"/>
	</g>
</g>
</svg>
