<?xml version="1.0" encoding="utf-8"?>
<!-- Generator: Adobe Illustrator 19.2.0, SVG Export Plug-In . SVG Version: 6.00 Build 0)  -->
<svg version="1.1" id="Layer_1" xmlns="http://www.w3.org/2000/svg" xmlns:xlink="http://www.w3.org/1999/xlink" x="0px" y="0px"
	 viewBox="0 0 24 24" style="enable-background:new 0 0 24 24;" xml:space="preserve">
<style type="text/css">
	.st0{display:none;}
	.st1{display:inline;}
	.st2{fill:none;stroke:#000000;stroke-linecap:round;stroke-linejoin:round;stroke-miterlimit:10;}
</style>
<g id="Filled_Icons" class="st0">
	<g class="st1">
		<path d="M18.9,6.4c-1.2-2.3-3.7-3.8-6.4-3.8c-3.6,0-6.6,2.7-7.1,6.2c-0.1,0-0.2,0-0.3,0C2.8,8.8,1,10.7,1,12.9c0,3.5,3.1,4,4,4.1
			h0.5c0.1-3.5,3-6.3,6.5-6.3c3.5,0,6.4,2.8,6.5,6.3l0.7,0l0,0c0,0,4.7-0.7,4.7-5.3C24,8.9,21.7,6.5,18.9,6.4z"/>
		<path d="M12,11.7c-3,0-5.5,2.5-5.5,5.5c0,3,2.5,5.5,5.5,5.5c3,0,5.5-2.5,5.5-5.5C17.5,14.2,15,11.7,12,11.7z M14.5,17.5h-5
			C9.2,17.5,9,17.3,9,17c0-0.3,0.2-0.5,0.5-0.5h5c0.3,0,0.5,0.2,0.5,0.5C15,17.3,14.8,17.5,14.5,17.5z"/>
	</g>
</g>
<g id="Outline_Icons">
	<g>
		<path class="st2" d="M19.2,16.4c0,0,4.3-0.6,4.3-4.8c0-2.7-2.2-4.9-5-4.8c-1.1-2.3-3.4-3.8-6-3.8C8.9,3,6,5.8,5.8,9.3
			c-2.2-0.5-4.3,1.2-4.3,3.5c0,3,2.5,3.5,3.5,3.6"/>
		<circle class="st2" cx="12" cy="16.7" r="5"/>
		<line class="st2" x1="14.5" y1="16.5" x2="9.5" y2="16.5"/>
	</g>
</g>
</svg>
