<?xml version="1.0" encoding="utf-8"?>
<!-- Generator: Adobe Illustrator 19.2.0, SVG Export Plug-In . SVG Version: 6.00 Build 0)  -->
<svg version="1.1" id="Layer_1" xmlns="http://www.w3.org/2000/svg" xmlns:xlink="http://www.w3.org/1999/xlink" x="0px" y="0px"
	 viewBox="0 0 24 24" style="enable-background:new 0 0 24 24;" xml:space="preserve">
<style type="text/css">
	.st0{display:none;}
	.st1{display:inline;}
	.st2{fill:none;stroke:#000000;stroke-linejoin:round;stroke-miterlimit:10;}
	.st3{fill:none;stroke:#000000;stroke-linecap:round;stroke-linejoin:round;stroke-miterlimit:10;}
</style>
<g id="Filled_Icons" class="st0">
	<g class="st1">
		<path d="M18.9,5.8C17.6,3.5,15.2,2,12.5,2C8.9,2,5.8,4.7,5.4,8.2C3,8.1,1,10,1,12.3c0,2.1,1.1,3.1,2.1,3.6c1,0.5,2,0.5,2.2,0.5
			h0.2c0-0.1,0-0.2,0-0.4c0-3.6,2.9-6.5,6.5-6.5s6.5,2.9,6.5,6.5c0,0.1,0,0.2,0,0.4h0.8c0,0,4.7-0.7,4.7-5.3
			C24,8.2,21.7,5.9,18.9,5.8z"/>
		<path d="M12,10.5c-3,0-5.5,2.5-5.5,5.5c0,3,2.5,5.5,5.5,5.5c3,0,5.5-2.5,5.5-5.5C17.5,13,15,10.5,12,10.5z M12,19.2
			c-0.3,0-0.5-0.2-0.5-0.5c0-0.3,0.2-0.5,0.5-0.5c0.3,0,0.5,0.2,0.5,0.5C12.5,19,12.3,19.2,12,19.2z M12.5,16.4v1
			c0,0.3-0.2,0.5-0.5,0.5c-0.3,0-0.5-0.2-0.5-0.5V16c0-0.3,0.2-0.5,0.5-0.5c0.5,0,1-0.4,1-1c0-0.5-0.4-1-1-1s-1,0.4-1,1
			c0,0.3-0.2,0.5-0.5,0.5c-0.3,0-0.5-0.2-0.5-0.5c0-1.1,0.9-2,2-2c1.1,0,2,0.9,2,2C14,15.4,13.4,16.2,12.5,16.4z"/>
	</g>
</g>
<g id="Outline_Icons">
	<g>
		<g>
			<circle class="st2" cx="12" cy="16" r="5"/>
			<g>
				<g>
					<g>
						<path d="M12,18.2c-0.3,0-0.5,0.2-0.5,0.5c0,0.3,0.2,0.5,0.5,0.5c0.3,0,0.5-0.2,0.5-0.5C12.5,18.5,12.3,18.2,12,18.2L12,18.2z"
							/>
					</g>
				</g>
			</g>
			<path class="st3" d="M10.5,14.5c0-0.8,0.7-1.5,1.5-1.5c0.8,0,1.5,0.7,1.5,1.5c0,0.8-0.7,1.5-1.5,1.5v1.5"/>
		</g>
		<path class="st3" d="M19.2,15.7c0,0,4.3-0.5,4.3-4.7c0-2.7-2.2-4.8-5-4.7c-1.1-2.3-3.4-3.8-6-3.8C8.9,2.5,6,5.3,5.8,8.8
			c-2.2-0.5-4.3,1.1-4.3,3.4c0,2.4,1.7,3.2,2.8,3.4"/>
	</g>
</g>
</svg>
