<?xml version="1.0" encoding="utf-8"?>
<!-- Generator: Adobe Illustrator 19.2.0, SVG Export Plug-In . SVG Version: 6.00 Build 0)  -->
<svg version="1.1" id="Layer_1" xmlns="http://www.w3.org/2000/svg" xmlns:xlink="http://www.w3.org/1999/xlink" x="0px" y="0px"
	 viewBox="0 0 24 24" style="enable-background:new 0 0 24 24;" xml:space="preserve">
<style type="text/css">
	.st0{display:none;}
	.st1{display:inline;}
	.st2{fill:none;stroke:#000000;stroke-linecap:round;stroke-linejoin:round;stroke-miterlimit:10;}
</style>
<g id="Filled_Icon" class="st0">
	<g class="st1">
		<path d="M22.3,8c0.3-1,0.2-2.1-0.4-2.9c-0.6-1-1.7-1.6-2.9-1.6c0,0,0,0-0.1,0C18,1.4,15.8,0,13.5,0c-3,0-5.5,2.2-5.9,5.1
			C4.9,5.5,3,7.8,3,10.5c0,0.7,0.1,1.3,0.3,1.9c0.1,0,0.3-0.1,0.4-0.1C4.5,9.2,7.3,7,10.5,7c2.5,0,4.8,1.4,6.1,3.5
			c1.3,0.2,2.5,0.9,3.2,2c0.6,0.9,0.9,2,0.7,3.1c0.1,0.1,0.1,0.1,0.2,0.2c1.9-0.5,3.4-2.3,3.4-4.4C24,10.1,23.4,8.9,22.3,8z"/>
		<path d="M19.3,16C19.3,16,19.4,16,19.3,16c0.2,0,0.4-1.7-0.4-2.9c-0.6-0.9-1.6-1.5-2.7-1.6c-0.2,0-0.3-0.1-0.4-0.3
			c-1-2-3.1-3.2-5.3-3.2c-2.8,0-5.3,2-5.9,4.8c0,0.2-0.2,0.3-0.4,0.4C1.8,13.7,0,15.9,0,18.5c0,3,2.5,5.5,5.5,5.5h11
			c2.5,0,4.5-2,4.5-4.5C21,18.1,20.3,16.8,19.3,16z"/>
	</g>
</g>
<g id="Outline_Icons">
	<g>
		<path class="st2" d="M18.7,16.2c0.9-2.1-0.8-4.5-3.1-4.2c-0.8-2.1-2.8-3.5-5.1-3.5c-2.9,0-5.2,2.2-5.5,5c-2.5,0.2-4.5,2.4-4.5,5
			c0,2.8,2.2,5,5,5h11c2.2,0,4-1.8,4-4C20.5,18.1,19.8,16.9,18.7,16.2z"/>
		<path class="st2" d="M22,14.6c0.9-0.7,1.5-1.9,1.5-3.1c0-1.4-0.7-2.6-1.7-3.3c0.9-2.1-0.8-4.5-3.1-4.2c-0.8-2.1-2.8-3.5-5.1-3.5
			c-2.9,0-5.2,2.2-5.5,5c-2.5,0.2-4.5,2.4-4.5,5"/>
	</g>
</g>
</svg>
