<?xml version="1.0" encoding="utf-8"?>
<!-- Generator: Adobe Illustrator 19.2.0, SVG Export Plug-In . SVG Version: 6.00 Build 0)  -->
<svg version="1.1" id="Layer_1" xmlns="http://www.w3.org/2000/svg" xmlns:xlink="http://www.w3.org/1999/xlink" x="0px" y="0px"
	 viewBox="0 0 24 24" style="enable-background:new 0 0 24 24;" xml:space="preserve">
<style type="text/css">
	.st0{display:none;}
	.st1{display:inline;}
	.st2{fill:none;stroke:#000000;stroke-linecap:round;stroke-linejoin:round;stroke-miterlimit:10;}
	.st3{fill:none;stroke:#000000;stroke-linejoin:round;stroke-miterlimit:10;}
</style>
<g id="Filled_Icons" class="st0">
	<g class="st1">
		<path d="M18.9,5.8C17.6,3.5,15.2,2,12.5,2C8.9,2,5.8,4.7,5.4,8.2C3,8.1,1,10,1,12.3c0,2.1,1.1,3.1,2.1,3.6c1,0.5,2,0.5,2.2,0.5
			h0.3c0-0.3-0.1-0.6-0.1-0.9C5.5,11.9,8.4,9,12,9s6.5,2.9,6.5,6.5c0,0.3,0,0.6-0.1,0.9h0.8c0,0,4.7-0.7,4.7-5.3
			C24,8.2,21.7,5.9,18.9,5.8z"/>
		<path d="M12,10c-3,0-5.5,2.5-5.5,5.5c0,3,2.5,5.5,5.5,5.5c3,0,5.5-2.5,5.5-5.5C17.5,12.5,15,10,12,10z M14,17h-2.5
			c-0.3,0-0.5-0.2-0.5-0.5V13c0-0.3,0.2-0.5,0.5-0.5c0.3,0,0.5,0.2,0.5,0.5v3h2c0.3,0,0.5,0.2,0.5,0.5C14.5,16.8,14.3,17,14,17z"/>
	</g>
</g>
<g id="Outline_Icons">
	<g>
		<path class="st2" d="M19.2,15.7c0,0,4.3-0.5,4.3-4.7c0-2.7-2.2-4.8-5-4.7c-1.1-2.3-3.4-3.8-6-3.8C8.9,2.5,6,5.3,5.8,8.8
			c-2.2-0.5-4.3,1.1-4.3,3.4c0,2.4,1.7,3.2,2.8,3.4"/>
		<g>
			<circle class="st3" cx="12" cy="15.5" r="5"/>
			<polyline class="st2" points="14,16.5 11.5,16.5 11.5,13 			"/>
		</g>
	</g>
</g>
</svg>
