<?xml version="1.0" encoding="utf-8"?>
<!-- Generator: Adobe Illustrator 19.2.0, SVG Export Plug-In . SVG Version: 6.00 Build 0)  -->
<svg version="1.1" id="Layer_1" xmlns="http://www.w3.org/2000/svg" xmlns:xlink="http://www.w3.org/1999/xlink" x="0px" y="0px"
	 viewBox="0 0 24 24" style="enable-background:new 0 0 24 24;" xml:space="preserve">
<style type="text/css">
	.st0{display:none;}
	.st1{display:inline;}
	.st2{fill:none;stroke:#000000;stroke-linejoin:round;stroke-miterlimit:10;}
</style>
<g id="Filled_Icons" class="st0">
	<g class="st1">
		<path d="M18.6,4c-1.3-2.4-3.9-4-6.6-4C8.2,0,5.1,2.8,4.6,6.5C2.1,6.3,0,8.3,0,10.8c0,2.2,1.2,3.2,2.2,3.7C3.2,15,4.3,15,4.5,15
			l14.6,0c0,0,4.9-0.7,4.9-5.5C24,6.5,21.6,4.1,18.6,4z M4.5,14.5L4.5,14.5L4.5,14.5L4.5,14.5z"/>
		<g>
			<path d="M8.8,17l-5.5,5.5c0.3,0.2,0.7,0.4,1.1,0.5l5.9-5.9H8.8z"/>
			<polygon points="16.4,17 14.8,17 8.8,23 10.4,23 			"/>
			<polygon points="13.4,17 11.8,17 5.8,23 7.4,23 			"/>
			<path d="M19,17h-1.2l-6,6H19c1.7,0,3-1.3,3-3C22,18.3,20.7,17,19,17z"/>
			<path d="M7.4,17H5c-1.7,0-3,1.3-3,3c0,0.7,0.2,1.3,0.6,1.8L7.4,17z"/>
		</g>
	</g>
</g>
<g id="Outline_Icons">
	<g>
		<g>
			<path class="st2" d="M23.5,9.5c0-2.8-2.3-5.1-5.2-5c-1.1-2.4-3.5-4-6.3-4c-3.7,0-6.8,2.9-7,6.6c-2.3-0.5-4.5,1.3-4.5,3.7
				c0,3.8,4,3.8,4,3.8H19C19,14.5,23.5,13.9,23.5,9.5z"/>
		</g>
		<path class="st2" d="M2.5,20c0-1.4,1.1-2.5,2.5-2.5h14c1.4,0,2.5,1.1,2.5,2.5c0,1.4-1.1,2.5-2.5,2.5H5C3.6,22.5,2.5,21.4,2.5,20z"
			/>
		<line class="st2" x1="3.3" y1="21.8" x2="7.6" y2="17.5"/>
		<line class="st2" x1="5.6" y1="22.5" x2="10.6" y2="17.5"/>
		<line class="st2" x1="8.6" y1="22.5" x2="13.6" y2="17.5"/>
		<line class="st2" x1="11.6" y1="22.5" x2="16.6" y2="17.5"/>
	</g>
</g>
</svg>
