<?xml version="1.0" encoding="utf-8"?>
<!-- Generator: Adobe Illustrator 19.2.0, SVG Export Plug-In . SVG Version: 6.00 Build 0)  -->
<svg version="1.1" id="Layer_1" xmlns="http://www.w3.org/2000/svg" xmlns:xlink="http://www.w3.org/1999/xlink" x="0px" y="0px"
	 viewBox="0 0 24 24" style="enable-background:new 0 0 24 24;" xml:space="preserve">
<style type="text/css">
	.st0{display:none;}
	.st1{display:inline;}
	.st2{fill:none;stroke:#000000;stroke-linecap:round;stroke-linejoin:round;stroke-miterlimit:10;}
</style>
<g id="Filled_Icons" class="st0">
	<g class="st1">
		<path d="M23.7,17.1l-6.4-5.4c-0.2-0.2-0.5-0.2-0.6,0l-6.5,5.5C10,17.3,10,17.5,10,17.7c0.1,0.2,0.3,0.3,0.5,0.3H13v5
			c0,0.3,0.2,0.5,0.5,0.5h2V19c0-0.3,0.2-0.5,0.5-0.5h2c0.3,0,0.5,0.2,0.5,0.5v4.5h2c0.3,0,0.5-0.2,0.5-0.5v-5l2.5,0c0,0,0,0,0,0
			c0,0,0,0,0,0c0.3,0,0.5-0.2,0.5-0.5C24,17.3,23.9,17.2,23.7,17.1z"/>
		<path d="M15,6c0-1.9-1.5-3.4-3.3-3.5C10.8,0.9,9.2,0,7.5,0C5.2,0,3.2,1.7,2.8,4C1.3,4,0,5.2,0,6.7c0,2.2,1.9,2.8,2.9,2.8l8.9,0
			C12.9,9.4,15,8.5,15,6z M2.9,9L2.9,9L2.9,9L2.9,9z"/>
		<path d="M11,20.5H7v-8.3l1.1,1.1c0.1,0.1,0.2,0.1,0.4,0.1c0.1,0,0.3,0,0.4-0.1c0.2-0.2,0.2-0.5,0-0.7l-2-2c0,0-0.1-0.1-0.2-0.1
			c-0.1-0.1-0.3-0.1-0.4,0c-0.1,0-0.1,0.1-0.2,0.1l-2,2c-0.2,0.2-0.2,0.5,0,0.7c0.2,0.2,0.5,0.2,0.7,0L6,12.2V21
			c0,0.3,0.2,0.5,0.5,0.5H11c0.3,0,0.5-0.2,0.5-0.5C11.5,20.7,11.3,20.5,11,20.5z"/>
		<path d="M22.2,14.5c0.1,0.1,0.2,0.1,0.3,0.1c0.1,0,0.1,0,0.2,0c0.2-0.1,0.3-0.3,0.3-0.5V12c0-0.3-0.2-0.5-0.5-0.5H20
			c-0.2,0-0.4,0.1-0.5,0.3c-0.1,0.2,0,0.4,0.1,0.6L22.2,14.5z"/>
	</g>
</g>
<g id="Outline_Icons">
	<g>
		<polyline class="st2" points="4.5,13.5 6.5,11.5 8.5,13.5 		"/>
		<polyline class="st2" points="13.5,18.5 13.5,23.5 20.5,23.5 20.5,18.5 		"/>
		<polyline class="st2" points="10.5,18 17,12.5 23.5,18 		"/>
		<polyline class="st2" points="20,12.5 22.5,12.5 22.5,15 		"/>
		<rect x="15.5" y="19.5" class="st2" width="3" height="4"/>
		<path class="st2" d="M10.8,9.5h0.9c0,0,2.7-0.4,2.7-3c0-1.7-1.4-3.1-3.2-3C10.7,2,9.2,1,7.5,1C5.2,1,3.4,2.8,3.3,5
			C1.8,4.7,0.5,5.8,0.5,7.2c0,2.3,2.4,2.3,2.4,2.3h1.2H10.8z"/>
		<polyline class="st2" points="6.5,11.5 6.5,21.5 11,21.5 		"/>
	</g>
</g>
</svg>
