<?xml version="1.0" encoding="utf-8"?>
<!-- Generator: Adobe Illustrator 19.2.0, SVG Export Plug-In . SVG Version: 6.00 Build 0)  -->
<svg version="1.1" id="Layer_1" xmlns="http://www.w3.org/2000/svg" xmlns:xlink="http://www.w3.org/1999/xlink" x="0px" y="0px"
	 viewBox="0 0 24 24" style="enable-background:new 0 0 24 24;" xml:space="preserve">
<style type="text/css">
	.st0{display:none;}
	.st1{display:inline;}
	.st2{fill:none;stroke:#000000;stroke-linecap:round;stroke-linejoin:round;stroke-miterlimit:10;}
</style>
<g id="Filled_Icons" class="st0">
	<path class="st1" d="M23,9c0-2.3-3.4-4.4-6-3c0.3-0.6,0.5-1.1,0.5-1.5C17.5,2.4,16.1,0,14,0c-1,0-1.8,0.4-2.5,1.1
		C10.8,0.4,10,0,9,0C6.9,0,5.5,2.4,5.5,4.5C5.5,4.9,5.7,5.4,6,6C3.4,4.6,0,6.7,0,9c0,1,0.4,1.8,1.1,2.5C0.4,12.2,0,13.1,0,14
		c0,2.1,2.4,3.5,4.5,3.5c1.6,0,5-1.5,6.5-2.2v6.2c0,1.4,0.9,2.5,2,2.5h1.5c0.3,0,0.5-0.2,0.5-0.5c0-0.3-0.2-0.5-0.5-0.5H13
		c-0.5,0-1-0.7-1-1.5v-6.2c1.5,0.7,4.9,2.2,6.5,2.2c2.1,0,4.5-1.4,4.5-3.5c0-1-0.4-1.8-1.1-2.5C22.6,10.9,23,10,23,9z"/>
</g>
<g id="Outline_Icons">
	<g>
		<path class="st2" d="M21.2,11.5C22,11,22.5,10,22.5,9c0-1.7-2-3-4-3c-1,0-2.8,1.4-4.2,2.8C15.6,7.2,17,5.5,17,4.5c0-2-1.3-4-3-4
			c-1,0-2,0.5-2.5,1.3C11,1,10,0.5,9,0.5c-1.7,0-3,2-3,4c0,1,1.4,2.8,2.8,4.2C7.2,7.4,5.5,6,4.5,6c-2,0-4,1.3-4,3c0,1,0.5,2,1.3,2.5
			C1,12,0.5,13,0.5,14c0,1.7,2,3,4,3s7-2.5,7-2.5s5,2.5,7,2.5s4-1.3,4-3C22.5,13,22,12,21.2,11.5z"/>
		<path class="st2" d="M11.5,14.5v7c0,1.1,0.7,2,1.5,2c0.8,0,1.5,0,1.5,0"/>
	</g>
</g>
</svg>
