<?xml version="1.0" encoding="utf-8"?>
<!-- Generator: Adobe Illustrator 19.2.0, SVG Export Plug-In . SVG Version: 6.00 Build 0)  -->
<svg version="1.1" id="Layer_1" xmlns="http://www.w3.org/2000/svg" xmlns:xlink="http://www.w3.org/1999/xlink" x="0px" y="0px"
	 viewBox="0 0 24 24" enable-background="new 0 0 24 24" xml:space="preserve">
<g id="Filled_Icons" display="none">
	<g display="inline">
		<path d="M22.287,21.098l-3.91-2.748C16.746,19.99,14.49,21.006,12,21.006c-2.479,0-4.728-1.008-6.356-2.635l-3.929,2.725
			c-0.18,0.125-0.257,0.352-0.192,0.561c0.065,0.209,0.259,0.351,0.478,0.351h5.881l3.894,1.97c0.071,0.035,0.148,0.053,0.226,0.053
			c0.078,0,0.154-0.018,0.226-0.053l3.894-1.97H22c0.218,0,0.411-0.141,0.477-0.349C22.543,21.45,22.466,21.223,22.287,21.098z"/>
		<path d="M3,12.006c0-1.379,0.321-2.682,0.878-3.852L1.683,7.511C1.514,7.462,1.329,7.506,1.199,7.626
			C1.07,7.748,1.015,7.929,1.055,8.102l0.398,1.752l-1.271,1.321c-0.188,0.195-0.186,0.504,0.004,0.698l1.266,1.288l-0.396,1.733
			c-0.04,0.172,0.015,0.353,0.144,0.475c0.095,0.089,0.218,0.137,0.344,0.137c0.046,0,0.093-0.006,0.139-0.02l1.827-0.527
			C3.185,14.031,3,13.041,3,12.006z"/>
		<path d="M23.818,11.175l-1.272-1.321l0.398-1.752c0.039-0.174-0.016-0.355-0.146-0.477c-0.13-0.122-0.314-0.164-0.484-0.113
			l-2.186,0.656C20.682,9.334,21,10.632,21,12.006c0,1.035-0.186,2.025-0.508,2.953l1.826,0.527c0.047,0.014,0.094,0.02,0.14,0.02
			c0.126,0,0.249-0.048,0.345-0.137c0.129-0.121,0.184-0.303,0.143-0.475l-0.396-1.733l1.267-1.288
			C24.004,11.679,24.006,11.37,23.818,11.175z"/>
		<g>
			<path d="M15.863,5.006H19c0.275,0,0.5-0.224,0.5-0.5c0-0.276-0.225-0.5-0.5-0.5H5c-0.276,0-0.5,0.224-0.5,0.5
				c0,0.276,0.224,0.5,0.5,0.5h3.136C5.673,6.371,4,8.996,4,12.006c0,4.411,3.589,8,8,8c4.411,0,8-3.589,8-8
				C20,8.996,18.327,6.371,15.863,5.006z M13.5,8.006H14v-0.5c0-0.276,0.225-0.5,0.5-0.5c0.275,0,0.5,0.224,0.5,0.5v0.5h0.5
				c0.275,0,0.5,0.224,0.5,0.5c0,0.276-0.225,0.5-0.5,0.5H15v0.5c0,0.276-0.225,0.5-0.5,0.5c-0.275,0-0.5-0.224-0.5-0.5v-0.5h-0.5
				c-0.275,0-0.5-0.224-0.5-0.5C13,8.23,13.225,8.006,13.5,8.006z M14.478,13.506c0,1.379-1.121,2.5-2.499,2.5
				c-1.379,0-2.5-1.121-2.5-2.5c0-1.378,1.121-2.5,2.5-2.5C13.357,11.006,14.478,12.128,14.478,13.506z M8.5,8.006H9v-0.5
				c0-0.276,0.224-0.5,0.5-0.5c0.276,0,0.5,0.224,0.5,0.5v0.5h0.5c0.276,0,0.5,0.224,0.5,0.5c0,0.276-0.224,0.5-0.5,0.5H10v0.5
				c0,0.276-0.224,0.5-0.5,0.5c-0.276,0-0.5-0.224-0.5-0.5v-0.5H8.5c-0.276,0-0.5-0.224-0.5-0.5C8,8.23,8.224,8.006,8.5,8.006z
				 M18,12.006c0,3.309-2.691,6-6,6c-3.309,0-6-2.691-6-6c0-0.276,0.224-0.5,0.5-0.5c0.276,0,0.5,0.224,0.5,0.5c0,2.758,2.243,5,5,5
				c2.757,0,5-2.242,5-5c0-0.276,0.225-0.5,0.5-0.5C17.775,11.506,18,11.729,18,12.006z"/>
			<path d="M16,3.006v-0.5c0-1.378-1.121-2.5-2.5-2.5h-3c-1.379,0-2.5,1.122-2.5,2.5v0.5H16z"/>
		</g>
	</g>
</g>
<g id="Outline_Icons">
	<g>
		<circle fill="none" stroke="#000000" stroke-linejoin="round" stroke-miterlimit="10" cx="12" cy="12" r="7.5"/>
		<path fill="none" stroke="#000000" stroke-linecap="round" stroke-linejoin="round" stroke-miterlimit="10" d="M17.5,12
			c0,3.038-2.462,5.5-5.5,5.5c-3.037,0-5.5-2.462-5.5-5.5"/>
		<polyline fill="none" stroke="#000000" stroke-linejoin="round" stroke-miterlimit="10" points="7.286,17.834 2,21.5 8,21.5 
			12,23.522 16,21.5 22,21.5 16.781,17.834 		"/>
		
			<line fill="none" stroke="#000000" stroke-linecap="round" stroke-linejoin="round" stroke-miterlimit="10" x1="5" y1="4.5" x2="19" y2="4.5"/>
		<path fill="none" stroke="#000000" stroke-linejoin="round" stroke-miterlimit="10" d="M15.5,2.5c0-1.104-0.897-2-2-2h-3
			c-1.104,0-2,0.896-2,2v2h7V2.5z"/>
		<circle fill="none" stroke="#000000" stroke-linejoin="round" stroke-miterlimit="10" cx="11.979" cy="13.5" r="2"/>
		<line fill="none" stroke="#000000" stroke-linejoin="round" stroke-miterlimit="10" x1="8" y1="8.5" x2="11" y2="8.5"/>
		<line fill="none" stroke="#000000" stroke-linejoin="round" stroke-miterlimit="10" x1="9.5" y1="7" x2="9.5" y2="10"/>
		<line fill="none" stroke="#000000" stroke-linejoin="round" stroke-miterlimit="10" x1="13" y1="8.5" x2="16" y2="8.5"/>
		<line fill="none" stroke="#000000" stroke-linejoin="round" stroke-miterlimit="10" x1="14.5" y1="7" x2="14.5" y2="10"/>
		<polyline fill="none" stroke="#000000" stroke-linejoin="round" stroke-miterlimit="10" points="18.898,9.054 22.458,7.984 22,10 
			23.458,11.516 22,13 22.458,15 19.213,14.063 		"/>
		<polyline fill="none" stroke="#000000" stroke-linejoin="round" stroke-miterlimit="10" points="5.111,9.031 1.542,7.984 2,10 
			0.542,11.516 2,13 1.542,15 4.787,14.063 		"/>
	</g>
</g>
</svg>
