<?xml version="1.0" encoding="utf-8"?>
<!-- Generator: Adobe Illustrator 19.2.0, SVG Export Plug-In . SVG Version: 6.00 Build 0)  -->
<svg version="1.1" id="Layer_1" xmlns="http://www.w3.org/2000/svg" xmlns:xlink="http://www.w3.org/1999/xlink" x="0px" y="0px"
	 viewBox="0 0 24 24" enable-background="new 0 0 24 24" xml:space="preserve">
<g id="Filled_Icons" display="none">
	<path display="inline" d="M18.5,10.006h-2.734l0.393-3.016C17.461,6.908,18.5,5.831,18.5,4.506c0-1.1-0.721-2.026-1.71-2.359
		l0.205-1.576c0.036-0.272-0.157-0.524-0.431-0.56c-0.279-0.04-0.524,0.157-0.562,0.431l-0.207,1.585
		C14.516,2.132,13.5,3.198,13.5,4.506c0,1.086,0.699,2.002,1.668,2.347l-0.412,3.153H4.5c-0.301,0-0.539,0.293-0.494,0.577
		l0.789,5.133l0.906,5.89c0.204,1.326,1.46,2.4,2.799,2.4h6c1.339,0,2.594-1.074,2.798-2.4l0.908-5.899l0.788-5.124
		C19.038,10.302,18.803,10.006,18.5,10.006z M14.103,15.006H5.698l-0.616-4h9.544L14.103,15.006z M17.303,15.006h-2.189l0.521-4
		h2.283L17.303,15.006z"/>
</g>
<g id="Outline_Icons">
	<g>
		<path fill="none" stroke="#000000" stroke-linecap="round" stroke-linejoin="round" stroke-miterlimit="10" d="M18.5,10.5
			l-1.695,11.023C16.637,22.609,15.6,23.5,14.5,23.5h-6c-1.1,0-2.137-0.891-2.305-1.977L4.5,10.5"/>
		
			<line fill="none" stroke="#000000" stroke-linecap="round" stroke-linejoin="round" stroke-miterlimit="10" x1="4.5" y1="10.5" x2="18.5" y2="10.5"/>
		
			<line fill="none" stroke="#000000" stroke-linecap="round" stroke-linejoin="round" stroke-miterlimit="10" x1="5.271" y1="15.5" x2="17.708" y2="15.5"/>
		
			<circle fill="none" stroke="#000000" stroke-linecap="round" stroke-linejoin="round" stroke-miterlimit="10" cx="16" cy="4.5" r="2"/>
		
			<line fill="none" stroke="#000000" stroke-linecap="round" stroke-linejoin="round" stroke-miterlimit="10" x1="16.236" y1="2.514" x2="16.5" y2="0.5"/>
		
			<line fill="none" stroke="#000000" stroke-linecap="round" stroke-linejoin="round" stroke-miterlimit="10" x1="13.5" y1="23.5" x2="15.721" y2="6.479"/>
	</g>
</g>
</svg>
