<?xml version="1.0" encoding="utf-8"?>
<!-- Generator: Adobe Illustrator 19.2.0, SVG Export Plug-In . SVG Version: 6.00 Build 0)  -->
<svg version="1.1" id="Layer_1" xmlns="http://www.w3.org/2000/svg" xmlns:xlink="http://www.w3.org/1999/xlink" x="0px" y="0px"
	 viewBox="0 0 24 24" enable-background="new 0 0 24 24" xml:space="preserve">
<g id="Filled_Icons" display="none">
	<path display="inline" d="M20.5,2.006c-1.93,0-3.5,1.57-3.5,3.5c0,0.17,0.018,0.336,0.041,0.5H7.727l-3.5-4H0v1h3.772l2.625,3H4.5
		c-0.202,0-0.385,0.122-0.462,0.309C3.96,6.502,4.003,6.717,4.146,6.859L12,14.714v8.292H8.5c-0.276,0-0.5,0.225-0.5,0.5
		c0,0.275,0.224,0.5,0.5,0.5h8c0.275,0,0.5-0.225,0.5-0.5c0-0.275-0.225-0.5-0.5-0.5H13v-8.292l6.032-6.033
		C19.49,8.892,19.99,9.006,20.5,9.006c1.93,0,3.5-1.569,3.5-3.5C24,3.576,22.43,2.006,20.5,2.006z M20.5,8.006
		c-0.236,0-0.471-0.033-0.695-0.098l1.049-1.049c0.144-0.143,0.187-0.357,0.108-0.544c-0.077-0.187-0.26-0.309-0.462-0.309h-2.445
		C18.021,5.844,18,5.677,18,5.506c0-1.378,1.121-2.5,2.5-2.5c1.378,0,2.5,1.122,2.5,2.5C23,6.885,21.878,8.006,20.5,8.006z"/>
</g>
<g id="Outline_Icons">
	<g>
		<polygon fill="none" stroke="#000000" stroke-linecap="round" stroke-linejoin="round" stroke-miterlimit="10" points="4.5,6.5 
			12.5,14.5 20.5,6.5 		"/>
		
			<line fill="none" stroke="#000000" stroke-linecap="round" stroke-linejoin="round" stroke-miterlimit="10" x1="12.5" y1="14.5" x2="12.5" y2="23.5"/>
		
			<line fill="none" stroke="#000000" stroke-linecap="round" stroke-linejoin="round" stroke-miterlimit="10" x1="8.5" y1="23.5" x2="16.5" y2="23.5"/>
		<polyline fill="none" stroke="#000000" stroke-linejoin="round" stroke-miterlimit="10" points="7.5,6.5 4,2.5 0,2.5 		"/>
		<path fill="none" stroke="#000000" stroke-linejoin="round" stroke-miterlimit="10" d="M17.669,6.497
			C17.559,6.186,17.5,5.85,17.5,5.5c0-1.658,1.343-3,3-3c1.654,0,3,1.342,3,3c0,1.658-1.346,3-3,3c-0.574,0-1.109-0.16-1.565-0.438"
			/>
	</g>
</g>
</svg>
