<?xml version="1.0" encoding="utf-8"?>
<!-- Generator: Adobe Illustrator 19.2.0, SVG Export Plug-In . SVG Version: 6.00 Build 0)  -->
<svg version="1.1" id="Layer_1" xmlns="http://www.w3.org/2000/svg" xmlns:xlink="http://www.w3.org/1999/xlink" x="0px" y="0px"
	 viewBox="0 0 24 24" enable-background="new 0 0 24 24" xml:space="preserve">
<g id="Filled_Icons" display="none">
	<g display="inline">
		<path d="M17,23.006h-2v-2H9v2H7c-0.276,0-0.5,0.225-0.5,0.5c0,0.275,0.224,0.5,0.5,0.5h10c0.275,0,0.5-0.225,0.5-0.5
			C17.5,23.231,17.275,23.006,17,23.006z"/>
		<path d="M6.605,4.581L8.92,20.006h6.16l2.314-15.425V4.579l0.6-3.998c0.021-0.145-0.021-0.291-0.115-0.401
			c-0.095-0.111-0.232-0.174-0.379-0.174h-11c-0.146,0-0.284,0.063-0.379,0.174C6.026,0.29,5.984,0.436,6.006,0.581l0.6,3.998
			L6.605,4.581L6.605,4.581z M12,12.006c-1.654,0-3-1.346-3-3c0-1.654,1.346-3,3-3c1.654,0,3,1.346,3,3
			C15,10.66,13.654,12.006,12,12.006z M16.919,1.006l-0.45,3H7.531l-0.45-3H16.919z"/>
	</g>
</g>
<g id="Outline_Icons">
	<g>
		<polygon fill="none" stroke="#000000" stroke-linecap="round" stroke-linejoin="round" stroke-miterlimit="10" points="17.5,0.5 
			6.5,0.5 9.5,20.5 14.5,20.5 		"/>
		
			<circle fill="none" stroke="#000000" stroke-linecap="round" stroke-linejoin="round" stroke-miterlimit="10" cx="12" cy="9" r="2.5"/>
		
			<line fill="none" stroke="#000000" stroke-linecap="round" stroke-linejoin="round" stroke-miterlimit="10" x1="7.3" y1="4.5" x2="16.699" y2="4.5"/>
		
			<rect x="9.5" y="20.5" fill="none" stroke="#000000" stroke-linecap="round" stroke-linejoin="round" stroke-miterlimit="10" width="5" height="3"/>
		
			<line fill="none" stroke="#000000" stroke-linecap="round" stroke-linejoin="round" stroke-miterlimit="10" x1="7" y1="23.5" x2="17" y2="23.5"/>
	</g>
</g>
</svg>
