<?xml version="1.0" encoding="utf-8"?>
<!-- Generator: Adobe Illustrator 19.2.0, SVG Export Plug-In . SVG Version: 6.00 Build 0)  -->
<svg version="1.1" id="Layer_1" xmlns="http://www.w3.org/2000/svg" xmlns:xlink="http://www.w3.org/1999/xlink" x="0px" y="0px"
	 viewBox="0 0 24 24" enable-background="new 0 0 24 24" xml:space="preserve">
<g id="Filled_Icons" display="none">
	<path display="inline" d="M20.5,1.006c-1.93,0-3.5,1.57-3.5,3.5c0,0.17,0.019,0.336,0.043,0.5H6.89L6.458,3.278
		c-0.334-1.337-1.532-2.272-2.91-2.272H0v1h3.548c0.919,0,1.718,0.624,1.94,1.516l0.371,1.484H3.698l0.198,0.648
		C4.948,9.072,8.109,12.688,12,12.979v10.027H8.5c-0.276,0-0.5,0.225-0.5,0.5c0,0.275,0.224,0.5,0.5,0.5h8
		c0.275,0,0.5-0.225,0.5-0.5c0-0.275-0.225-0.5-0.5-0.5H13V12.979c3.005-0.226,5.568-2.431,7.066-5.001
		c0.145,0.02,0.289,0.028,0.434,0.028c1.93,0,3.5-1.569,3.5-3.5C24,2.576,22.43,1.006,20.5,1.006z M20.585,6.999
		c0.354-0.767,0.474-1.203,0.717-1.993h-3.247C18.021,4.843,18,4.677,18,4.506c0-1.378,1.121-2.5,2.5-2.5c1.378,0,2.5,1.122,2.5,2.5
		C23,5.855,21.924,6.951,20.585,6.999z"/>
</g>
<g id="Outline_Icons">
	<g>
		<path fill="none" stroke="#000000" stroke-linecap="round" stroke-linejoin="round" stroke-miterlimit="10" d="M4.375,5.5
			c1.068,3.475,4.301,7,8.125,7c3.824,0,7.059-3.525,8.125-7H4.375z"/>
		
			<line fill="none" stroke="#000000" stroke-linecap="round" stroke-linejoin="round" stroke-miterlimit="10" x1="12.5" y1="12.5" x2="12.5" y2="23.5"/>
		
			<line fill="none" stroke="#000000" stroke-linecap="round" stroke-linejoin="round" stroke-miterlimit="10" x1="8.5" y1="23.5" x2="16.5" y2="23.5"/>
		<path fill="none" stroke="#000000" stroke-linejoin="round" stroke-miterlimit="10" d="M0,1.5h3.548
			c1.147,0,2.147,0.781,2.426,1.894L6.5,5.5"/>
		<path fill="none" stroke="#000000" stroke-linejoin="round" stroke-miterlimit="10" d="M17.676,5.514
			C17.562,5.197,17.5,4.855,17.5,4.5c0-1.657,1.344-3,3-3c1.657,0,3,1.343,3,3c0,1.657-1.343,3-3,3
			c-0.234,0-0.463-0.027-0.682-0.078"/>
	</g>
</g>
</svg>
