<?xml version="1.0" encoding="utf-8"?>
<!-- Generator: Adobe Illustrator 19.2.0, SVG Export Plug-In . SVG Version: 6.00 Build 0)  -->
<svg version="1.1" id="Layer_1" xmlns="http://www.w3.org/2000/svg" xmlns:xlink="http://www.w3.org/1999/xlink" x="0px" y="0px"
	 viewBox="0 0 24 24" enable-background="new 0 0 24 24" xml:space="preserve">
<g id="Filled_Icons" display="none">
	<path display="inline" d="M23.5,23.006h-9.637c2.464-1.363,4.137-3.988,4.137-7h2c1.995,0,3.5-1.72,3.5-4c0-2.279-1.505-4-3.5-4h-2
		v-0.5c0-0.275-0.225-0.5-0.5-0.5h-15c-0.276,0-0.5,0.225-0.5,0.5v8.5c0,3.012,1.672,5.637,4.135,7H0.5c-0.276,0-0.5,0.225-0.5,0.5
		c0,0.275,0.224,0.5,0.5,0.5h23c0.275,0,0.5-0.225,0.5-0.5C24,23.231,23.775,23.006,23.5,23.006z M18,9.006h2
		c1.624,0,2.5,1.546,2.5,3c0,1.454-0.876,3-2.5,3h-2V9.006z"/>
</g>
<g id="Outline_Icons">
	<g>
		<path fill="none" stroke="#000000" stroke-linecap="round" stroke-linejoin="round" stroke-miterlimit="10" d="M17.5,16V7.5h-15
			V16c0,4.143,3.356,7.5,7.5,7.5C14.143,23.5,17.5,20.143,17.5,16z"/>
		<path fill="none" stroke="#000000" stroke-linecap="round" stroke-linejoin="round" stroke-miterlimit="10" d="M17.5,15.5H20
			c1.841,0,3-1.66,3-3.5c0-1.842-1.159-3.5-3-3.5h-2.5"/>
		
			<line fill="none" stroke="#000000" stroke-linecap="round" stroke-linejoin="round" stroke-miterlimit="10" x1="0.5" y1="23.5" x2="23.5" y2="23.5"/>
	</g>
</g>
</svg>
