<?xml version="1.0" encoding="utf-8"?>
<!-- Generator: Adobe Illustrator 19.2.0, SVG Export Plug-In . SVG Version: 6.00 Build 0)  -->
<svg version="1.1" id="Layer_1" xmlns="http://www.w3.org/2000/svg" xmlns:xlink="http://www.w3.org/1999/xlink" x="0px" y="0px"
	 viewBox="0 0 24 24" enable-background="new 0 0 24 24" xml:space="preserve">
<g id="Filled_Icons" display="none">
	<path display="inline" d="M18,4.532V2.506c0-0.276-0.225-0.5-0.5-0.5h-17c-0.276,0-0.5,0.224-0.5,0.5v15c0,2.482,2.019,4.5,4.5,4.5
		h9c2.48,0,4.5-2.018,4.5-4.5v-0.025c3.35-0.256,6-3.06,6-6.476C24,7.591,21.35,4.789,18,4.532z M4,17.006
		c0,0.275-0.224,0.5-0.5,0.5c-0.276,0-0.5-0.225-0.5-0.5v-11c0-0.276,0.224-0.5,0.5-0.5c0.276,0,0.5,0.223,0.5,0.5V17.006z
		 M18,13.961V8.052c1.416,0.239,2.5,1.471,2.5,2.954C20.5,12.49,19.416,13.723,18,13.961z"/>
</g>
<g id="Outline_Icons">
	<g>
		<path fill="none" stroke="#000000" stroke-linecap="round" stroke-linejoin="round" stroke-miterlimit="10" d="M17.5,2.5v15
			c0,2.2-1.8,4-4,4h-9c-2.2,0-4-1.8-4-4v-15"/>
		<path fill="none" stroke="#000000" stroke-linejoin="round" stroke-miterlimit="10" d="M17.5,5c3.314,0,6,2.687,6,6
			c0,3.313-2.686,6-6,6"/>
		
			<line fill="none" stroke="#000000" stroke-linecap="round" stroke-linejoin="round" stroke-miterlimit="10" x1="0.5" y1="2.5" x2="17.5" y2="2.5"/>
		<path fill="none" stroke="#000000" stroke-linejoin="round" stroke-miterlimit="10" d="M17.5,7.5c1.934,0,3.5,1.566,3.5,3.5
			c0,1.934-1.566,3.5-3.5,3.5"/>
		
			<line fill="none" stroke="#000000" stroke-linecap="round" stroke-linejoin="round" stroke-miterlimit="10" x1="3.5" y1="6" x2="3.5" y2="17"/>
	</g>
</g>
</svg>
