<?xml version="1.0" encoding="utf-8"?>
<!-- Generator: Adobe Illustrator 19.2.0, SVG Export Plug-In . SVG Version: 6.00 Build 0)  -->
<svg version="1.1" id="Layer_1" xmlns="http://www.w3.org/2000/svg" xmlns:xlink="http://www.w3.org/1999/xlink" x="0px" y="0px"
	 viewBox="0 0 24 24" enable-background="new 0 0 24 24" xml:space="preserve">
<g id="Filled_Icons" display="none">
	<g display="inline">
		<path d="M6.501,23.539C6.519,23.803,6.736,24.006,7,24.006h10c0.264,0,0.48-0.203,0.499-0.467L18.4,10.006H5.599L6.501,23.539z
			 M6.635,12.165C6.729,12.063,6.861,12.006,7,12.006c1.723,0,3.233,1.402,3.233,3c0,1.684-1.274,3-2.9,3
			c-0.264,0-0.481-0.203-0.499-0.467l-0.333-5C6.491,12.401,6.54,12.266,6.635,12.165z"/>
		<path d="M19.5,5.006H6.76L3.409,0.22L2.59,0.793l2.949,4.213H4.5c-0.276,0-0.5,0.225-0.5,0.5v3c0,0.276,0.224,0.5,0.5,0.5h15
			c0.275,0,0.5-0.224,0.5-0.5v-3C20,5.23,19.775,5.006,19.5,5.006z"/>
	</g>
</g>
<g id="Outline_Icons">
	<g>
		<polygon fill="none" stroke="#000000" stroke-linecap="round" stroke-linejoin="round" stroke-miterlimit="10" points="
			17.25,23.5 7.25,23.5 6.25,8.5 18.25,8.5 		"/>
		
			<rect x="4.5" y="5.5" fill="none" stroke="#000000" stroke-linecap="round" stroke-linejoin="round" stroke-miterlimit="10" width="15" height="3"/>
		
			<line fill="none" stroke="#000000" stroke-linecap="round" stroke-linejoin="round" stroke-miterlimit="10" x1="6.75" y1="5.5" x2="3.25" y2="0.5"/>
		<path fill="none" stroke="#000000" stroke-linecap="round" stroke-linejoin="round" stroke-miterlimit="10" d="M6.517,12.5
			c1.381,0,2.733,1.119,2.733,2.5c0,1.38-1.02,2.5-2.4,2.5"/>
	</g>
</g>
</svg>
