<?xml version="1.0" encoding="utf-8"?>
<!-- Generator: Adobe Illustrator 19.2.0, SVG Export Plug-In . SVG Version: 6.00 Build 0)  -->
<svg version="1.1" id="Layer_1" xmlns="http://www.w3.org/2000/svg" xmlns:xlink="http://www.w3.org/1999/xlink" x="0px" y="0px"
	 viewBox="0 0 24 24" enable-background="new 0 0 24 24" xml:space="preserve">
<g id="Filled_Icons" display="none">
	<g display="inline">
		<path d="M18.5,8.006h-14c-0.139,0-0.271,0.058-0.365,0.159C4.04,8.266,3.991,8.401,4.001,8.539l0.164,2.467h14.669l0.165-2.467
			c0.009-0.138-0.04-0.273-0.134-0.374C18.771,8.063,18.639,8.006,18.5,8.006z"/>
		<path d="M5.001,23.539c0.018,0.264,0.235,0.467,0.499,0.467h12c0.264,0,0.48-0.203,0.499-0.467l0.368-5.533H4.632L5.001,23.539z"
			/>
		<path d="M4.565,17.006h13.869l0.334-5H4.231L4.565,17.006z M9,14.006h5c0.275,0,0.5,0.225,0.5,0.5c0,0.275-0.225,0.5-0.5,0.5H9
			c-0.276,0-0.5-0.225-0.5-0.5C8.5,14.231,8.724,14.006,9,14.006z"/>
		<path d="M19.5,4.006h-16c-0.276,0-0.5,0.225-0.5,0.5v1.993c0,0.276,0.224,0.5,0.5,0.5h16c0.275,0,0.5-0.224,0.5-0.5V4.506
			C20,4.23,19.775,4.006,19.5,4.006z"/>
		<path d="M4.5,2.999h14C18.504,3,18.508,3,18.51,2.999c0.276,0,0.5-0.224,0.5-0.5c0-0.1-0.029-0.192-0.08-0.271l-0.966-1.906
			c-0.075-0.19-0.26-0.316-0.464-0.316h-12c-0.205,0-0.389,0.125-0.465,0.316l-1,1.992C3.974,2.468,3.993,2.643,4.086,2.78
			C4.179,2.917,4.334,2.999,4.5,2.999z"/>
	</g>
</g>
<g id="Outline_Icons">
	<g>
		<polygon fill="none" stroke="#000000" stroke-linecap="round" stroke-linejoin="round" stroke-miterlimit="10" points="17.5,23.5 
			5.5,23.5 4.5,7.5 18.5,7.5 		"/>
		
			<rect x="3.5" y="3.5" fill="none" stroke="#000000" stroke-linecap="round" stroke-linejoin="round" stroke-miterlimit="10" width="16" height="4"/>
		<polygon fill="none" stroke="#000000" stroke-linecap="round" stroke-linejoin="round" stroke-miterlimit="10" points="18.5,3.5 
			4.5,3.5 5.5,0.5 17.5,0.5 		"/>
		<line fill="none" stroke="#000000" stroke-linejoin="round" stroke-miterlimit="10" x1="4.75" y1="11.5" x2="18.25" y2="11.5"/>
		<line fill="none" stroke="#000000" stroke-linejoin="round" stroke-miterlimit="10" x1="5.125" y1="17.5" x2="17.896" y2="17.5"/>
		
			<line fill="none" stroke="#000000" stroke-linecap="round" stroke-linejoin="round" stroke-miterlimit="10" x1="9" y1="14.5" x2="14" y2="14.5"/>
	</g>
</g>
</svg>
