<?xml version="1.0" encoding="utf-8"?>
<!-- Generator: Adobe Illustrator 19.2.0, SVG Export Plug-In . SVG Version: 6.00 Build 0)  -->
<svg version="1.1" id="Layer_1" xmlns="http://www.w3.org/2000/svg" xmlns:xlink="http://www.w3.org/1999/xlink" x="0px" y="0px"
	 viewBox="0 0 24 24" enable-background="new 0 0 24 24" xml:space="preserve">
<g id="Filled_Icons" display="none">
	<path display="inline" d="M20.407,7.216l-5-7c-0.095-0.132-0.246-0.21-0.407-0.21H8c-0.161,0-0.313,0.078-0.407,0.21l-5,7
		C2.508,7.335,2.48,7.486,2.515,7.627l4,16C6.57,23.85,6.771,24.006,7,24.006h9c0.228,0,0.43-0.156,0.484-0.379l4-16
		C20.521,7.486,20.492,7.335,20.407,7.216z M16,9.506c0,0.276-0.225,0.5-0.5,0.5H13v8.5c0,0.275-0.225,0.5-0.5,0.5h-2
		c-0.276,0-0.5-0.225-0.5-0.5v-8.5H7.5c-0.276,0-0.5-0.224-0.5-0.5v-2c0-0.277,0.224-0.5,0.5-0.5H10v-2.5c0-0.277,0.224-0.5,0.5-0.5
		h2c0.275,0,0.5,0.223,0.5,0.5v2.5h2.5c0.275,0,0.5,0.223,0.5,0.5V9.506z"/>
</g>
<g id="Outline_Icons">
	<g>
		<polygon fill="none" stroke="#000000" stroke-linejoin="round" stroke-miterlimit="10" points="15.5,7.5 12.5,7.5 12.5,4.5 
			10.5,4.5 10.5,7.5 7.5,7.5 7.5,9.5 10.5,9.5 10.5,18.5 12.5,18.5 12.5,9.5 15.5,9.5 		"/>
		<polygon fill="none" stroke="#000000" stroke-linejoin="round" stroke-miterlimit="10" points="7,23.5 16,23.5 20,7.5 15,0.5 
			8,0.5 3,7.5 		"/>
	</g>
</g>
</svg>
