<?xml version="1.0" encoding="utf-8"?>
<!-- Generator: Adobe Illustrator 19.2.0, SVG Export Plug-In . SVG Version: 6.00 Build 0)  -->
<svg version="1.1" id="Layer_1" xmlns="http://www.w3.org/2000/svg" xmlns:xlink="http://www.w3.org/1999/xlink" x="0px" y="0px"
	 viewBox="0 0 24 24" enable-background="new 0 0 24 24" xml:space="preserve">
<g id="Filled_Icons" display="none">
	<path display="inline" d="M22.908,11.922c-0.67-2.226-1.902-4.224-3.567-5.78C19.249,6.055,19.127,6.006,19,6.006h-2.293
		l1.146-1.146c0.194-0.194,0.194-0.511,0-0.707c-0.195-0.194-0.513-0.194-0.707,0l-1.854,1.853H3.5c-0.276,0-0.5,0.225-0.5,0.5
		c0,0.276,0.224,0.5,0.5,0.5h15.3c1.466,1.416,2.552,3.211,3.15,5.205c0.231,0.77,0.084,1.617-0.398,2.264
		c-0.38,0.512-0.941,0.856-1.558,0.979c-0.052-3.04-1.667-5.628-3.873-7.342c-0.087-0.068-0.194-0.105-0.308-0.105H1.5
		c-0.171,0-0.33,0.087-0.422,0.232C0.986,8.381,0.975,8.562,1.046,8.717l0.739,1.598C0.757,11.819,0,13.805,0,16.006
		c0,1.65,0.412,3.289,1.191,4.737c0.088,0.163,0.257,0.263,0.44,0.263h16.734c0.185,0,0.354-0.1,0.44-0.263
		c0.707-1.314,1.109-2.783,1.18-4.274c0.938-0.129,1.8-0.631,2.369-1.398C23.023,14.172,23.23,12.994,22.908,11.922z M1.959,12.006
		c0.248-0.496,0.525-0.965,0.803-1.341c0.109-0.146,0.129-0.341,0.053-0.507L2.281,9.006h13.36c1.035,0.834,1.894,1.88,2.473,3
		H1.959z"/>
</g>
<g id="Outline_Icons">
	<g>
		<path fill="none" stroke="#000000" stroke-linecap="round" stroke-linejoin="round" stroke-miterlimit="10" d="M4.183,8.5h11.633
			c2.236,1.738,3.685,4.447,3.685,7.5c0,1.628-0.412,3.159-1.134,4.5H1.632C0.91,19.159,0.5,17.628,0.5,16
			c0-2.113,0.691-4.062,1.86-5.639L1.5,8.5H4H4.183z"/>
		<path fill="none" stroke="#000000" stroke-linecap="round" stroke-linejoin="round" stroke-miterlimit="10" d="M3.5,6.5H19
			c1.607,1.503,2.783,3.409,3.43,5.559c0.278,0.927,0.102,1.932-0.476,2.707C21.377,15.543,20.466,16,19.5,16"/>
		
			<line fill="none" stroke="#000000" stroke-linecap="round" stroke-linejoin="round" stroke-miterlimit="10" x1="15.5" y1="6.5" x2="17.5" y2="4.5"/>
		<line fill="none" stroke="#000000" stroke-linejoin="round" stroke-miterlimit="10" x1="1.171" y1="12.5" x2="18.812" y2="12.5"/>
	</g>
</g>
</svg>
