<?xml version="1.0" encoding="utf-8"?>
<!-- Generator: Adobe Illustrator 19.2.0, SVG Export Plug-In . SVG Version: 6.00 Build 0)  -->
<svg version="1.1" id="Layer_1" xmlns="http://www.w3.org/2000/svg" xmlns:xlink="http://www.w3.org/1999/xlink" x="0px" y="0px"
	 viewBox="0 0 24 24" style="enable-background:new 0 0 24 24;" xml:space="preserve">
<style type="text/css">
	.st0{display:none;}
	.st1{display:inline;}
	.st2{fill:none;stroke:#000000;stroke-linecap:round;stroke-linejoin:round;stroke-miterlimit:10;}
	.st3{fill:none;stroke:#000000;stroke-linejoin:round;stroke-miterlimit:10;}
</style>
<g id="Filled_Icons" class="st0">
	<g class="st1">
		<path d="M19.5,0h-15C2,0,0,2,0,4.5v15C0,22,2,24,4.5,24h15c2.5,0,4.5-2,4.5-4.5v-15C24,2,22,0,19.5,0z M19.4,14.7l-1.7,3
			c-0.1,0.1-0.2,0.2-0.3,0.2c-0.1,0-0.3,0-0.4-0.1l-1.1-0.6c-0.5,0.4-1,0.7-1.6,0.9v1.2c0,0.3-0.2,0.5-0.5,0.5h-3.5
			c-0.3,0-0.5-0.2-0.5-0.5v-1.2c-0.6-0.2-1.1-0.5-1.6-1L7.1,18c-0.2,0.1-0.5,0.1-0.7-0.2l-1.8-3c-0.1-0.1-0.1-0.2,0-0.4
			c0-0.1,0.1-0.2,0.2-0.3l1.1-0.6c0-0.3-0.1-0.6-0.1-0.9c0-0.3,0-0.6,0.1-0.9l-1.1-0.6c-0.1-0.1-0.2-0.2-0.2-0.3
			c0-0.1,0-0.3,0.1-0.4l1.8-3C6.5,7,6.8,6.9,7.1,7l1.1,0.6c0.5-0.4,1.1-0.7,1.6-0.9V5.5C9.8,5.2,10,5,10.3,5h3.5
			c0.3,0,0.5,0.2,0.5,0.5v1.2c0.6,0.2,1.1,0.5,1.6,0.9l1-0.6C17,7,17.2,7,17.3,7c0.1,0,0.2,0.1,0.3,0.2l1.8,3c0.1,0.1,0.1,0.3,0,0.4
			c0,0.1-0.1,0.2-0.2,0.3l-1.1,0.6c0,0.3,0.1,0.6,0.1,0.9c0,0.3,0,0.6-0.1,0.9l1.1,0.6C19.4,14.2,19.5,14.5,19.4,14.7z"/>
		<circle cx="12" cy="12.5" r="3.1"/>
	</g>
</g>
<g id="Outline_Icons">
	<g>
		<path class="st2" d="M23.5,19.5c0,2.2-1.8,4-4,4h-15c-2.2,0-4-1.8-4-4v-15c0-2.2,1.8-4,4-4h15c2.2,0,4,1.8,4,4V19.5z"/>
		<g>
			<circle class="st3" cx="12" cy="12.5" r="2.6"/>
			<path class="st3" d="M17.7,12.5c0-0.4,0-0.8-0.1-1.2l1.4-0.8l-1.8-3l-1.4,0.8c-0.6-0.5-1.1-0.9-2-1.2V5.5h-3.5v1.6
				C9.4,7.3,8.8,7.8,8.2,8.3L6.8,7.5l-1.8,3l1.4,0.8c-0.1,0.4-0.1,0.8-0.1,1.2c0,0.4,0,0.8,0.1,1.2l-1.4,0.8l1.8,3l1.4-0.8
				c0.6,0.5,1.2,0.9,2.1,1.2v1.6h3.5v-1.6c0.9-0.2,1.4-0.7,2-1.2l1.4,0.8l1.7-3l-1.4-0.8C17.6,13.3,17.7,12.9,17.7,12.5z"/>
		</g>
	</g>
</g>
</svg>
