<?xml version="1.0" encoding="utf-8"?>
<!-- Generator: Adobe Illustrator 19.2.0, SVG Export Plug-In . SVG Version: 6.00 Build 0)  -->
<svg version="1.1" id="Layer_1" xmlns="http://www.w3.org/2000/svg" xmlns:xlink="http://www.w3.org/1999/xlink" x="0px" y="0px"
	 viewBox="0 0 24 24" style="enable-background:new 0 0 24 24;" xml:space="preserve">
<style type="text/css">
	.st0{display:none;}
	.st1{display:inline;}
	.st2{fill:none;stroke:#000000;stroke-linecap:round;stroke-linejoin:round;stroke-miterlimit:10;}
</style>
<g id="Filled_Icons" class="st0">
	<g class="st1">
		<path d="M23.5,10h-2.9c-0.2-0.8-0.5-1.7-0.8-2.3l2-2C22,5.5,22,5.4,22,5.3C22,5.1,22,5,21.9,4.9l-2.8-2.8c-0.2-0.2-0.5-0.2-0.7,0
			l-2,2c-0.7-0.3-1.5-0.6-2.3-0.8V0.5C14,0.2,13.8,0,13.5,0h-3C10.2,0,10,0.2,10,0.5v2.9C9.2,3.6,8.3,3.8,7.7,4.1l-2-2
			c-0.2-0.2-0.5-0.2-0.7,0L2.1,4.9C2,5,2,5.1,2,5.3C2,5.4,2,5.5,2.1,5.6l2,2C3.8,8.3,3.6,9.2,3.4,10H0.5C0.2,10,0,10.2,0,10.5v3
			C0,13.8,0.2,14,0.5,14h2.9c0.2,0.8,0.5,1.7,0.8,2.3l-2,2C2,18.5,2,18.6,2,18.7C2,18.9,2,19,2.1,19.1l2.8,2.8
			c0.2,0.2,0.5,0.2,0.7,0l2-2c0.7,0.3,1.5,0.6,2.3,0.8v2.9c0,0.3,0.2,0.5,0.5,0.5h3c0.3,0,0.5-0.2,0.5-0.5v-2.9
			c0.8-0.2,1.7-0.5,2.3-0.8l2,2c0.2,0.2,0.5,0.2,0.7,0l2.8-2.8c0.2-0.2,0.2-0.5,0-0.7l-2-2c0.3-0.7,0.6-1.5,0.8-2.3h2.9
			c0.3,0,0.5-0.2,0.5-0.5v-3C24,10.2,23.8,10,23.5,10z M17.5,12c0,3-2.5,5.5-5.5,5.5c-3,0-5.5-2.5-5.5-5.5C6.5,9,9,6.5,12,6.5
			C15,6.5,17.5,9,17.5,12z"/>
		<path d="M15.3,11.6l-4.5-2.9c-0.2-0.1-0.4-0.1-0.5,0C10.1,8.7,10,8.9,10,9.1V15c0,0.2,0.1,0.4,0.3,0.4c0.1,0,0.2,0.1,0.2,0.1
			c0.1,0,0.2,0,0.3-0.1l4.5-3c0.1-0.1,0.2-0.2,0.2-0.4C15.5,11.8,15.4,11.7,15.3,11.6z"/>
	</g>
</g>
<g id="Outline_Icons">
	<g>
		<g>
			<path class="st2" d="M20.3,13.5h3.2v-3h-3.2c-0.2-0.9-0.6-2.2-1-2.9l2.3-2.3l-2.8-2.8l-2.3,2.3c-0.7-0.5-2.1-0.8-2.9-1V0.5h-3
				v3.2C9.6,4,8.3,4.3,7.6,4.8L5.3,2.5L2.5,5.3l2.3,2.3c-0.5,0.7-0.8,2.1-1,2.9H0.5v3h3.2c0.2,0.9,0.6,2.2,1,2.9l-2.3,2.3l2.8,2.8
				l2.3-2.3c0.7,0.5,2.1,0.8,2.9,1v3.2h3v-3.2c0.9-0.2,2.2-0.6,2.9-1l2.3,2.3l2.8-2.8l-2.3-2.3C19.7,15.7,20,14.4,20.3,13.5z"/>
			<circle class="st2" cx="12" cy="12" r="6"/>
		</g>
		<polygon class="st2" points="10.5,9.1 10.5,15 15,12 		"/>
	</g>
</g>
</svg>
