<?xml version="1.0" encoding="utf-8"?>
<!-- Generator: Adobe Illustrator 19.2.0, SVG Export Plug-In . SVG Version: 6.00 Build 0)  -->
<svg version="1.1" id="Layer_1" xmlns="http://www.w3.org/2000/svg" xmlns:xlink="http://www.w3.org/1999/xlink" x="0px" y="0px"
	 viewBox="0 0 24 24" style="enable-background:new 0 0 24 24;" xml:space="preserve">
<style type="text/css">
	.st0{display:none;}
	.st1{display:inline;}
	.st2{fill:none;stroke:#000000;stroke-linejoin:round;stroke-miterlimit:10;}
</style>
<g id="Filled_Icons" class="st0">
	<g class="st1">
		<path d="M16.7,17.3l-1.3-0.7c0.1-0.4,0.1-0.7,0.1-1.1c0-0.4,0-0.7-0.1-1.1l1.3-0.7c0.2-0.1,0.3-0.4,0.2-0.7l-2-3.5
			c-0.1-0.1-0.2-0.2-0.3-0.2c-0.1,0-0.3,0-0.4,0.1L13,10.1c-0.6-0.5-1.1-0.8-1.9-1.1V7.5c0-0.3-0.2-0.5-0.5-0.5h-4
			C6.3,7,6.1,7.2,6.1,7.5V9c-0.7,0.2-1.3,0.6-1.9,1.1L2.8,9.3C2.6,9.2,2.3,9.3,2.2,9.5l-2,3.5c-0.1,0.1-0.1,0.2-0.1,0.4
			c0,0.1,0.1,0.2,0.2,0.3l1.3,0.7c-0.1,0.4-0.1,0.7-0.1,1.1c0,0.4,0,0.7,0.1,1.1l-1.3,0.7C0.1,17.5,0,17.8,0.1,18l2,3.5
			c0.1,0.2,0.4,0.3,0.7,0.2l1.3-0.7c0.6,0.5,1.2,0.9,1.9,1.1v1.5c0,0.3,0.2,0.5,0.5,0.5h4c0.3,0,0.5-0.2,0.5-0.5V22
			c0.7-0.3,1.3-0.6,1.9-1.1l1.2,0.7c0.1,0.1,0.3,0.1,0.4,0.1c0.1,0,0.2-0.1,0.3-0.2l2-3.5C17,17.8,16.9,17.5,16.7,17.3z M8.5,19
			C6.6,19,5,17.4,5,15.5C5,13.6,6.6,12,8.5,12c1.9,0,3.5,1.6,3.5,3.5C12,17.4,10.4,19,8.5,19z"/>
		<path d="M23.7,6L23,5.6c0-0.2,0-0.4,0-0.6c0-0.2,0-0.4,0-0.6L23.7,4c0.2-0.1,0.3-0.4,0.2-0.7l-1-1.7c-0.1-0.1-0.2-0.2-0.3-0.2
			c-0.1,0-0.3,0-0.4,0.1l-0.6,0.4c-0.3-0.2-0.6-0.4-0.9-0.5V0.5c0-0.3-0.2-0.5-0.5-0.5h-2c-0.3,0-0.5,0.2-0.5,0.5v0.8
			c-0.4,0.1-0.7,0.3-1,0.6l-0.7-0.4c-0.2-0.1-0.5-0.1-0.7,0.2l-1,1.7c-0.1,0.1-0.1,0.3-0.1,0.4c0,0.1,0.1,0.2,0.2,0.3l0.7,0.4
			c0,0.2,0,0.4,0,0.6c0,0.2,0,0.4,0,0.6L14.4,6c-0.1,0.1-0.2,0.2-0.2,0.3c0,0.1,0,0.3,0,0.4l1,1.7c0.1,0.2,0.4,0.3,0.7,0.2l0.7-0.4
			c0.3,0.2,0.6,0.4,1,0.6v0.8c0,0.3,0.2,0.5,0.5,0.5h2c0.3,0,0.5-0.2,0.5-0.5V8.7c0.3-0.1,0.6-0.3,0.9-0.5l0.7,0.4
			c0.1,0.1,0.3,0.1,0.4,0.1c0.1,0,0.2-0.1,0.3-0.2l1-1.7C24,6.4,23.9,6.1,23.7,6z M19,7c-1.1,0-2-0.9-2-2s0.9-2,2-2c1.1,0,2,0.9,2,2
			S20.1,7,19,7z"/>
	</g>
</g>
<g id="Outline_Icons">
	<g>
		<circle class="st2" cx="8.5" cy="15.5" r="3"/>
		<circle class="st2" cx="19" cy="5" r="1.5"/>
		<path class="st2" d="M15,15.5c0-0.5-0.1-0.9-0.1-1.4l1.6-0.9l-2-3.5l-1.5,0.9c-0.7-0.6-1.3-1.1-2.3-1.4V7.5h-4v1.8
			c-1,0.3-1.7,0.8-2.4,1.4L2.6,9.8l-2,3.5l1.6,0.9C2.1,14.6,2,15,2,15.5c0,0.5,0,0.9,0.1,1.4l-1.6,0.9l2,3.5l1.6-0.9
			c0.7,0.6,1.4,1.1,2.4,1.4v1.8h4v-1.8c1-0.3,1.6-0.8,2.3-1.4l1.6,0.9l2-3.5l-1.6-0.9C15,16.4,15,16,15,15.5z"/>
		<path class="st2" d="M22.5,5c0-0.3,0-0.5-0.1-0.8l1-0.6l-1-1.7l-1,0.6c-0.4-0.4-0.9-0.7-1.4-0.8V0.5h-2v1.1
			c-0.5,0.2-1,0.4-1.4,0.8l-1-0.6l-1,1.7l1,0.6c-0.1,0.3-0.1,0.5-0.1,0.8c0,0.3,0,0.5,0.1,0.8l-1,0.6l1,1.7l1-0.6
			c0.4,0.4,0.9,0.7,1.4,0.8v1.1h2V8.4c0.5-0.2,1-0.4,1.4-0.8l1,0.6l1-1.7l-1-0.6C22.5,5.5,22.5,5.3,22.5,5z"/>
	</g>
</g>
</svg>
