<?xml version="1.0" encoding="utf-8"?>
<!-- Generator: Adobe Illustrator 19.2.0, SVG Export Plug-In . SVG Version: 6.00 Build 0)  -->
<svg version="1.1" id="Layer_1" xmlns="http://www.w3.org/2000/svg" xmlns:xlink="http://www.w3.org/1999/xlink" x="0px" y="0px"
	 viewBox="0 0 24 24" style="enable-background:new 0 0 24 24;" xml:space="preserve">
<style type="text/css">
	.st0{display:none;}
	.st1{display:inline;}
	.st2{fill:none;stroke:#000000;stroke-linecap:round;stroke-linejoin:round;stroke-miterlimit:10;}
	.st3{fill:none;stroke:#000000;stroke-linejoin:round;stroke-miterlimit:10;}
</style>
<g id="Filled_Icons" class="st0">
	<g class="st1">
		<path d="M23.7,22.3l-5.1-5.1c1.5-1.8,2.4-4.1,2.4-6.7C21,4.7,16.3,0,10.5,0S0,4.7,0,10.5S4.7,21,10.5,21c2.5,0,4.9-0.9,6.7-2.4
			l5.1,5.1c0.2,0.2,0.5,0.3,0.7,0.3c0.3,0,0.5-0.1,0.7-0.3C24.1,23.3,24.1,22.7,23.7,22.3z M15.9,11.3l1.2,0.7
			c0.1,0.1,0.2,0.2,0.2,0.3c0,0.1,0,0.3,0,0.4l-1.5,2.6c-0.1,0.1-0.2,0.2-0.3,0.2c-0.1,0-0.3,0-0.4-0.1L14,14.8
			c-0.4,0.3-0.8,0.5-1.4,0.8V17c0,0.3-0.2,0.5-0.5,0.5h-3c-0.3,0-0.5-0.2-0.5-0.5v-1.3c-0.7-0.2-1.1-0.5-1.5-0.9l-1.2,0.7
			c-0.2,0.1-0.5,0-0.7-0.2l-1.5-2.6c-0.1-0.1-0.1-0.3,0-0.4c0-0.1,0.1-0.2,0.2-0.3l1.2-0.7C5,10.8,5,10.2,5.1,9.7L3.9,9
			C3.8,8.9,3.7,8.8,3.7,8.7c0-0.1,0-0.3,0.1-0.4l1.5-2.6c0.1-0.2,0.4-0.3,0.7-0.2l1.2,0.7c0.4-0.4,0.8-0.7,1.5-0.9V4
			c0-0.3,0.2-0.5,0.5-0.5h3c0.3,0,0.5,0.2,0.5,0.5v1.4c0.6,0.3,1,0.5,1.4,0.8l1.1-0.7c0.1-0.1,0.3-0.1,0.4-0.1
			c0.1,0,0.2,0.1,0.3,0.2l1.5,2.6c0.1,0.1,0.1,0.3,0,0.4c0,0.1-0.1,0.2-0.2,0.3l-1.2,0.7C16,10.2,16,10.8,15.9,11.3z"/>
		<circle cx="10.5" cy="10.5" r="2.5"/>
	</g>
</g>
<g id="Outline_Icons">
	<g>
		<circle class="st2" cx="10.5" cy="10.5" r="10"/>
		<line class="st2" x1="17.6" y1="17.6" x2="23.5" y2="23.5"/>
		<g>
			<path class="st3" d="M15.4,15l1.5-2.6l-1.5-0.9c0.2-0.7,0.2-1.4,0-2.2l1.5-0.9L15.4,6l-1.4,0.9c-0.5-0.5-1.3-0.9-1.8-1.1V4h-3
				v1.7C8.1,6,7.7,6.3,7.2,6.8L5.6,6L4.1,8.5l1.5,0.9c-0.2,0.7-0.2,1.4,0,2.2l-1.5,0.9L5.6,15l1.6-0.9c0.5,0.5,0.9,0.9,1.9,1.1V17h3
				v-1.7c0.5-0.2,1.3-0.6,1.8-1.1L15.4,15z"/>
			<circle class="st3" cx="10.5" cy="10.5" r="2"/>
		</g>
	</g>
</g>
</svg>
