<?xml version="1.0" encoding="utf-8"?>
<!-- Generator: Adobe Illustrator 19.2.0, SVG Export Plug-In . SVG Version: 6.00 Build 0)  -->
<svg version="1.1" id="Layer_1" xmlns="http://www.w3.org/2000/svg" xmlns:xlink="http://www.w3.org/1999/xlink" x="0px" y="0px"
	 viewBox="0 0 24 24" style="enable-background:new 0 0 24 24;" xml:space="preserve">
<style type="text/css">
	.st0{display:none;}
	.st1{display:inline;}
	.st2{fill:none;stroke:#000000;stroke-linejoin:round;stroke-miterlimit:10;}
</style>
<g id="Filled_Icons" class="st0">
	<path class="st1" d="M23.4,8.5l-1.2-0.7c0.1-0.6,0.1-1.1,0-1.7l1.2-0.7c0.1-0.1,0.2-0.2,0.2-0.3c0-0.1,0-0.3,0-0.4l-1.5-2.6
		C22,2.1,21.9,2,21.8,2c-0.1,0-0.3,0-0.4,0.1l-1.1,0.7c-0.4-0.3-0.8-0.5-1.4-0.8V0.5c0-0.3-0.2-0.5-0.5-0.5h-3
		c-0.3,0-0.5,0.2-0.5,0.5v1.3c-0.7,0.2-1.1,0.5-1.5,0.9L12.1,2c-0.2-0.1-0.5-0.1-0.7,0.2L10,4.8C9.9,4.9,9.9,5,9.9,5.2
		c0,0.1,0.1,0.2,0.2,0.3l1.2,0.7c-0.1,0.6-0.1,1.1,0,1.7l-1.2,0.7C10,8.6,9.9,8.7,9.9,8.8c0,0.1,0,0.3,0,0.4l1.5,2.6
		c0.1,0.2,0.2,0.2,0.4,0.2l-1.1,0.7c-0.4-0.3-0.8-0.5-1.4-0.8v-1.4c0-0.3-0.2-0.5-0.5-0.5h-3c-0.3,0-0.5,0.2-0.5,0.5v1.3
		c-0.7,0.2-1.1,0.5-1.5,0.9L2.6,12C2.4,11.9,2.1,12,2,12.2l-1.5,2.6c-0.1,0.1-0.1,0.3-0.1,0.4c0,0.1,0.1,0.2,0.2,0.3l1.2,0.7
		c-0.1,0.6-0.1,1.1,0,1.7l-1.2,0.7c-0.1,0.1-0.2,0.2-0.2,0.3c0,0.1,0,0.3,0,0.4l1.5,2.6C2.1,22,2.4,22.1,2.6,22l1.2-0.7
		c0.4,0.3,0.8,0.7,1.5,0.9v1.3c0,0.3,0.2,0.5,0.5,0.5h3c0.3,0,0.5-0.2,0.5-0.5v-1.4c0.6-0.3,1-0.5,1.4-0.8l1.1,0.7
		c0.1,0.1,0.3,0.1,0.4,0.1c0.1,0,0.2-0.1,0.3-0.2l1.5-2.6c0.1-0.2,0.1-0.5-0.2-0.7l-1.2-0.7c0.1-0.6,0.1-1.1,0-1.7l1.2-0.7
		c0.1-0.1,0.2-0.2,0.2-0.3c0-0.1,0-0.3-0.1-0.4l-1.5-2.6c-0.1-0.1-0.2-0.2-0.3-0.2c0,0-0.1,0-0.1,0l1.2-0.7c0.4,0.3,0.8,0.7,1.5,0.9
		v1.3c0,0.3,0.2,0.5,0.5,0.5h3c0.3,0,0.5-0.2,0.5-0.5v-1.4c0.6-0.3,1-0.5,1.4-0.8l1.1,0.7c0.1,0.1,0.3,0.1,0.4,0.1
		c0.1,0,0.2-0.1,0.3-0.2l1.5-2.6C23.7,9,23.6,8.7,23.4,8.5z M7.2,19.5c-1.4,0-2.5-1.1-2.5-2.5c0-1.4,1.1-2.5,2.5-2.5
		c1.4,0,2.5,1.1,2.5,2.5C9.7,18.4,8.6,19.5,7.2,19.5z M16.7,9.5c-1.4,0-2.5-1.1-2.5-2.5c0-1.4,1.1-2.5,2.5-2.5
		c1.4,0,2.5,1.1,2.5,2.5C19.2,8.4,18.1,9.5,16.7,9.5z"/>
</g>
<g id="Outline_Icons">
	<g>
		<path class="st2" d="M21.6,11.5L23.1,9l-1.5-0.9c0.2-0.7,0.2-1.4,0-2.2L23.1,5l-1.5-2.6l-1.4,0.9c-0.5-0.5-1.3-0.9-1.8-1.1V0.5h-3
			v1.7c-1,0.2-1.4,0.6-1.9,1.1l-1.5-0.9L10.4,5l1.5,0.9c-0.2,0.7-0.2,1.4,0,2.2L10.4,9l1.5,2.6l1.6-0.9c0.5,0.5,0.9,0.9,1.9,1.1v1.7
			h3v-1.7c0.5-0.2,1.3-0.6,1.8-1.1L21.6,11.5z"/>
		<circle class="st2" cx="16.8" cy="7" r="2"/>
		<path class="st2" d="M12.1,21.5l1.5-2.6l-1.5-0.9c0.2-0.7,0.2-1.4,0-2.2l1.5-0.9l-1.5-2.6l-1.4,0.9c-0.5-0.5-1.3-0.9-1.8-1.1v-1.7
			h-3v1.7c-1,0.2-1.4,0.6-1.9,1.1l-1.5-0.9L0.9,15l1.5,0.9c-0.2,0.7-0.2,1.4,0,2.2L0.9,19l1.5,2.6l1.6-0.9c0.5,0.5,0.9,0.9,1.9,1.1
			v1.7h3v-1.7c0.5-0.2,1.3-0.6,1.8-1.1L12.1,21.5z"/>
		<circle class="st2" cx="7.2" cy="17" r="2"/>
	</g>
</g>
</svg>
