<?xml version="1.0" encoding="utf-8"?>
<!-- Generator: Adobe Illustrator 19.2.0, SVG Export Plug-In . SVG Version: 6.00 Build 0)  -->
<svg version="1.1" id="Layer_1" xmlns="http://www.w3.org/2000/svg" xmlns:xlink="http://www.w3.org/1999/xlink" x="0px" y="0px"
	 viewBox="0 0 24 24" style="enable-background:new 0 0 24 24;" xml:space="preserve">
<style type="text/css">
	.st0{display:none;}
	.st1{display:inline;}
	.st2{fill:none;stroke:#000000;stroke-linecap:round;stroke-linejoin:round;stroke-miterlimit:10;}
</style>
<g id="Filled_Icon" class="st0">
	<g class="st1">
		<path d="M8,13c0.4,0,0.9,0,1.3,0c2.2-0.9,5.4-1,6.7-1v-0.5l0,0l0,0V9.8c-1.8,1-5.5,1.2-8,1.2c-2.5,0-6.2-0.3-8-1.2v1.7
			C0.1,12,3,13,8,13z"/>
		<path d="M8,7c5,0,7.9-1,8-1.5V3.8C14.2,4.7,10.5,5,8,5C5.5,5,1.8,4.7,0,3.8v1.7C0.1,6,3,7,8,7z"/>
		<path d="M0,14.5C0.1,15,2.6,15.9,7,16v-0.5c0-0.6,0.2-1.1,0.6-1.5c-2.5,0-5.9-0.3-7.6-1.2V14.5z"/>
		<path d="M8,4c5,0,7.9-1,8-1.5C16,0.8,11.9,0,8,0C4.1,0,0,0.8,0,2.5C0.1,3,3,4,8,4z"/>
		<path d="M8,10c5,0,7.9-1,8-1.5V6.8C14.2,7.7,10.5,8,8,8C5.5,8,1.8,7.7,0,6.8v1.7C0.1,9,3,10,8,10z"/>
		<path d="M0,17.5c0,1.6,3.5,2.4,7,2.5v-3c-2.4-0.1-5.5-0.4-7-1.2V17.5z"/>
		<path d="M8,15.5C8.2,16,11.4,17,16,17c4.5,0,7.8-1,8-1.5c0-2.2-5.8-2.5-8-2.5C13.8,13,8,13.4,8,15.5z"/>
		<path d="M8,19.7v1.8c0,2.2,5.8,2.5,8,2.5c2.2,0,8-0.3,8-2.5v-1.8c-1.9,1-6.2,1.3-8,1.3C14.2,21,9.9,20.7,8,19.7z"/>
		<path d="M16,18c-1.8,0-6.1-0.3-8-1.3v1.8C8.2,19,11.4,20,16,20c4.5,0,7.8-1,8-1.5v-1.8C22.1,17.7,17.8,18,16,18z"/>
	</g>
</g>
<g id="Outline_Icons">
	<g>
		<ellipse class="st2" cx="8" cy="2.5" rx="7.5" ry="2"/>
		<path class="st2" d="M15.5,2.5v3c0,1.1-3.4,2-7.5,2c-4.1,0-7.5-0.9-7.5-2v-3"/>
		<path class="st2" d="M15.5,5.5v3c0,1.1-3.4,2-7.5,2c-4.1,0-7.5-0.9-7.5-2v-3"/>
		<ellipse class="st2" cx="16" cy="15.5" rx="7.5" ry="2"/>
		<path class="st2" d="M23.5,15.5v3c0,1.1-3.4,2-7.5,2c-4.1,0-7.5-0.9-7.5-2v-3"/>
		<path class="st2" d="M23.5,18.5v3c0,1.1-3.4,2-7.5,2c-4.1,0-7.5-0.9-7.5-2v-3"/>
		<path class="st2" d="M15.5,8.5v3c0,1.1-3.4,2-7.5,2c-4.1,0-7.5-0.9-7.5-2v-3"/>
		<path class="st2" d="M0.5,11.5v3c0,1.1,3.4,2,7.5,2h0.5"/>
		<path class="st2" d="M0.5,14.5v3c0,1.1,3.4,2,7.5,2h0.5"/>
		<line class="st2" x1="15.5" y1="11.5" x2="15.5" y2="13.5"/>
	</g>
</g>
</svg>
