<?xml version="1.0" encoding="utf-8"?>
<!-- Generator: Adobe Illustrator 19.2.0, SVG Export Plug-In . SVG Version: 6.00 Build 0)  -->
<svg version="1.1" id="Layer_1" xmlns="http://www.w3.org/2000/svg" xmlns:xlink="http://www.w3.org/1999/xlink" x="0px" y="0px"
	 viewBox="0 0 24 24" style="enable-background:new 0 0 24 24;" xml:space="preserve">
<style type="text/css">
	.st0{display:none;}
	.st1{display:inline;}
	.st2{fill:none;stroke:#000000;stroke-linecap:round;stroke-linejoin:round;stroke-miterlimit:10;}
</style>
<g id="Filled_Icon" class="st0">
	<g class="st1">
		<path d="M8,8C8,8,8,8,8,8c-4.4,0-8,3.6-8,8c0,4.4,3.6,8,8,8c4.4,0,8-3.6,8-8c0,0,0,0,0,0C11.7,15.7,8.3,12.3,8,8z M8,15.5
			c1.1,0,2,0.9,2,2c0,0.9-0.6,1.7-1.5,1.9V20c0,0.3-0.2,0.5-0.5,0.5c-0.3,0-0.5-0.2-0.5-0.5v-0.6c-0.9-0.2-1.5-1-1.5-1.9
			C6,17.2,6.2,17,6.5,17C6.8,17,7,17.2,7,17.5c0,0.6,0.4,1,1,1c0.6,0,1-0.4,1-1c0-0.6-0.4-1-1-1c-1.1,0-2-0.9-2-2
			c0-0.9,0.6-1.7,1.5-1.9V12c0-0.3,0.2-0.5,0.5-0.5c0.3,0,0.5,0.2,0.5,0.5v0.6c0.9,0.2,1.5,1,1.5,1.9c0,0.3-0.2,0.5-0.5,0.5
			C9.2,15,9,14.8,9,14.5c0-0.6-0.4-1-1-1c-0.6,0-1,0.4-1,1C7,15.1,7.4,15.5,8,15.5z"/>
		<path d="M16.5,0C12.4,0,9,3.4,9,7.5c0,4.1,3.4,7.5,7.5,7.5c4.1,0,7.5-3.4,7.5-7.5C24,3.4,20.6,0,16.5,0z M16.5,7
			c1,0,1.9,0.9,1.9,1.9c0,0.9-0.6,1.6-1.4,1.8v0.5c0,0.3-0.2,0.5-0.5,0.5c-0.3,0-0.5-0.2-0.5-0.5v-0.5c-0.8-0.2-1.4-1-1.4-1.8
			c0-0.3,0.2-0.5,0.5-0.5c0.3,0,0.5,0.2,0.5,0.5c0,0.5,0.4,0.9,0.9,0.9c0.5,0,0.9-0.4,0.9-0.9C17.4,8.4,17,8,16.5,8
			c-1,0-1.9-0.9-1.9-1.9c0-0.9,0.6-1.6,1.4-1.8V3.8c0-0.3,0.2-0.5,0.5-0.5c0.3,0,0.5,0.2,0.5,0.5v0.5c0.8,0.2,1.4,1,1.4,1.8
			c0,0.3-0.2,0.5-0.5,0.5c-0.3,0-0.5-0.2-0.5-0.5c0-0.5-0.4-0.9-0.9-0.9c-0.5,0-0.9,0.4-0.9,0.9C15.6,6.6,16,7,16.5,7z"/>
	</g>
</g>
<g id="Outline_Icons">
	<g>
		<circle class="st2" cx="16" cy="8" r="7.5"/>
		<line class="st2" x1="15.5" y1="11" x2="15.5" y2="12"/>
		<line class="st2" x1="15.5" y1="4" x2="15.5" y2="5"/>
		<path class="st2" d="M14,9.5c0,0.8,0.7,1.5,1.5,1.5c0.8,0,1.5-0.7,1.5-1.5C17,8.7,16.3,8,15.5,8C14.7,8,14,7.3,14,6.5
			C14,5.7,14.7,5,15.5,5C16.3,5,17,5.7,17,6.5"/>
		<line class="st2" x1="7.5" y1="19" x2="7.5" y2="20"/>
		<line class="st2" x1="7.5" y1="12" x2="7.5" y2="13"/>
		<path class="st2" d="M6,17.5C6,18.3,6.7,19,7.5,19C8.3,19,9,18.3,9,17.5C9,16.7,8.3,16,7.5,16C6.7,16,6,15.3,6,14.5
			C6,13.7,6.7,13,7.5,13C8.3,13,9,13.7,9,14.5"/>
		<path class="st2" d="M8.5,8.5c-0.2,0-0.3,0-0.5,0c-4.1,0-7.5,3.4-7.5,7.5c0,4.1,3.4,7.5,7.5,7.5c4.1,0,7.5-3.4,7.5-7.5
			c0-0.2,0-0.4,0-0.5"/>
	</g>
</g>
</svg>
