<?xml version="1.0" encoding="utf-8"?>
<!-- Generator: Adobe Illustrator 19.2.0, SVG Export Plug-In . SVG Version: 6.00 Build 0)  -->
<svg version="1.1" id="Layer_1" xmlns="http://www.w3.org/2000/svg" xmlns:xlink="http://www.w3.org/1999/xlink" x="0px" y="0px"
	 viewBox="0 0 24 24" style="enable-background:new 0 0 24 24;" xml:space="preserve">
<style type="text/css">
	.st0{display:none;}
	.st1{display:inline;}
	.st2{fill:none;stroke:#000000;stroke-linejoin:round;stroke-miterlimit:10;}
	.st3{fill:none;stroke:#000000;stroke-linecap:round;stroke-linejoin:round;stroke-miterlimit:10;}
</style>
<g id="Filled_Icon" class="st0">
	<g class="st1">
		<path d="M4.5,13h-4C0.2,13,0,13.2,0,13.5V21c0,0.3,0.2,0.5,0.5,0.5h4C4.8,21.5,5,21.3,5,21v-7.5C5,13.2,4.8,13,4.5,13z"/>
		<path d="M23.9,17.1c-1.2-1.2-2.2-1.5-3.5-1.1l-3,1c0,0.2,0,0.3,0,0.5c0,0.6-0.2,1.2-0.6,1.7C16.4,19.7,15.7,20,15,20h-5
			c-0.3,0-0.5-0.2-0.5-0.5c0-0.3,0.2-0.5,0.5-0.5h5c0.4,0,0.8-0.2,1-0.4c0.2-0.3,0.4-0.7,0.4-1.1c0-0.6-0.3-1.5-1.4-1.5h-2.8H12
			c-0.1,0-0.3-0.1-0.4-0.1C11.2,15.4,9.8,14,7.5,14H6c-0.3,0-0.5,0.2-0.5,0.5V20c0,0.2,0.1,0.4,0.3,0.5c1.6,0.5,2.8,1,3.8,1.3
			c1.9,0.7,3,1.1,4,1.1c1.1,0,2.1-0.5,4.2-1.7c1.4-0.8,3.2-1.8,6-3.2c0.1-0.1,0.2-0.2,0.3-0.4C24,17.4,24,17.3,23.9,17.1z"/>
		<path d="M17,7c1.9,0,3.5-1.6,3.5-3.5C20.5,1.6,18.9,0,17,0c-1.9,0-3.5,1.6-3.5,3.5C13.5,5.4,15.1,7,17,7z M16.5,2.5
			C16.5,2.2,16.7,2,17,2c0.3,0,0.5,0.2,0.5,0.5v2C17.5,4.8,17.3,5,17,5c-0.3,0-0.5-0.2-0.5-0.5V2.5z"/>
		<path d="M12.5,14c1.9,0,3.5-1.6,3.5-3.5C16,8.6,14.4,7,12.5,7C10.6,7,9,8.6,9,10.5C9,12.4,10.6,14,12.5,14z M12,9.5
			C12,9.2,12.2,9,12.5,9C12.8,9,13,9.2,13,9.5v2c0,0.3-0.2,0.5-0.5,0.5c-0.3,0-0.5-0.2-0.5-0.5V9.5z"/>
	</g>
</g>
<g id="Outline_Icons">
	<g>
		<rect x="0.5" y="13.5" class="st2" width="4" height="8"/>
		<path class="st3" d="M4.5,20c10.5,3.5,7,3.5,19-2.5c-1.1-1.1-1.9-1.3-3-1L16.1,18"/>
		<path class="st3" d="M4.5,14.5h3c2.4,0,4,1.5,4.5,2c0,0,1.5,0,3,0c1.6,0,1.6,2,0,2H9.5"/>
		<circle class="st3" cx="17.5" cy="3.5" r="3"/>
		<circle class="st3" cx="12.5" cy="10.5" r="3"/>
		<line class="st3" x1="12.5" y1="9.5" x2="12.5" y2="11.5"/>
		<line class="st3" x1="17.5" y1="2.5" x2="17.5" y2="4.5"/>
	</g>
</g>
</svg>
