<?xml version="1.0" encoding="utf-8"?>
<!-- Generator: Adobe Illustrator 19.2.0, SVG Export Plug-In . SVG Version: 6.00 Build 0)  -->
<svg version="1.1" id="Layer_1" xmlns="http://www.w3.org/2000/svg" xmlns:xlink="http://www.w3.org/1999/xlink" x="0px" y="0px"
	 viewBox="0 0 24 24" style="enable-background:new 0 0 24 24;" xml:space="preserve">
<style type="text/css">
	.st0{display:none;}
	.st1{display:inline;}
	.st2{fill:none;stroke:#000000;stroke-linecap:round;stroke-linejoin:round;stroke-miterlimit:10;}
</style>
<g id="Filled_Icon" class="st0">
	<g class="st1">
		<path d="M10,2.5v-2C10,0.2,9.8,0,9.5,0H8v3h1.5C9.8,3,10,2.8,10,2.5z"/>
		<polygon points="7,3 7,0 3,0 3,3 4.5,3 		"/>
		<path d="M0.5,3H2V0H0.5C0.2,0,0,0.2,0,0.5v2C0,2.8,0.2,3,0.5,3z"/>
		<polygon points="5,6.5 8.5,6.5 9,6.5 9,3.5 7.5,3.5 5,3.5 		"/>
		<path d="M2,6c0,0.3,0.2,0.5,0.5,0.5h1H4v-3H2.5C2.2,3.5,2,3.7,2,4V6z"/>
		<path d="M12,4c0-0.3-0.2-0.5-0.5-0.5H10v3h1.5C11.8,6.5,12,6.3,12,6V4z"/>
		<path d="M3,7H1.5C1.2,7,1,7.2,1,7.5v2C1,9.8,1.2,10,1.5,10h1H3V7z"/>
		<polygon points="8,7 4.5,7 4,7 4,10 7.5,10 8,10 		"/>
		<path d="M10.5,7h-1H9v3h1.5c0.3,0,0.5-0.2,0.5-0.5v-2C11,7.2,10.8,7,10.5,7z"/>
		<path d="M9.5,13.5c0.3,0,0.5-0.2,0.5-0.5v-2c0-0.3-0.2-0.5-0.5-0.5h-1H8v3h0.5H9.5z"/>
		<polygon points="7,13.5 7,10.5 3.5,10.5 3,10.5 3,13.5 3.5,13.5 		"/>
		<path d="M0.5,13.5H2v-3H0.5C0.2,10.5,0,10.7,0,11v2C0,13.3,0.2,13.5,0.5,13.5z"/>
		<path d="M1.5,14C1.2,14,1,14.2,1,14.5v2C1,16.8,1.2,17,1.5,17h1H3v-3H2.5H1.5z"/>
		<polygon points="8,17 8,14 7.5,14 4,14 4,17 7.5,17 		"/>
		<path d="M10.5,14H9v3h1.5c0.3,0,0.5-0.2,0.5-0.5v-2C11,14.2,10.8,14,10.5,14z"/>
		<path d="M10,20v-2c0-0.3-0.2-0.5-0.5-0.5h-1H8v3h0.5h1C9.8,20.5,10,20.3,10,20z"/>
		<polygon points="7,17.5 3.5,17.5 3,17.5 3,20.5 3.5,20.5 7,20.5 		"/>
		<path d="M2,17.5H0.5C0.2,17.5,0,17.7,0,18v2c0,0.3,0.2,0.5,0.5,0.5H2V17.5z"/>
		<path d="M1.5,21C1.2,21,1,21.2,1,21.5v2C1,23.8,1.2,24,1.5,24H3v-3H2.5H1.5z"/>
		<polygon points="4,21 4,24 8,24 8,21 7.5,21 		"/>
		<path d="M10.5,21H9v3h1.5c0.3,0,0.5-0.2,0.5-0.5v-2C11,21.2,10.8,21,10.5,21z"/>
		<polygon points="19,17 19,14 15,14 15,17 15.5,17 		"/>
		<path d="M12,16.5c0,0.3,0.2,0.5,0.5,0.5H14v-3h-1.5c-0.3,0-0.5,0.2-0.5,0.5V16.5z"/>
		<path d="M21.5,17c0.3,0,0.5-0.2,0.5-0.5v-2c0-0.3-0.2-0.5-0.5-0.5H20v3h0.5H21.5z"/>
		<polygon points="20,17.5 19.5,17.5 16,17.5 16,20.5 19.5,20.5 20,20.5 		"/>
		<path d="M15,17.5h-0.5h-1c-0.3,0-0.5,0.2-0.5,0.5v2c0,0.3,0.2,0.5,0.5,0.5h1H15V17.5z"/>
		<path d="M22.5,17.5H21v3h1.5c0.3,0,0.5-0.2,0.5-0.5v-2C23,17.7,22.8,17.5,22.5,17.5z"/>
		<path d="M21.5,21h-1H20v3h1.5c0.3,0,0.5-0.2,0.5-0.5v-2C22,21.2,21.8,21,21.5,21z"/>
		<polygon points="15,21 15,24 19,24 19,21 15.5,21 		"/>
		<path d="M12,21.5v2c0,0.3,0.2,0.5,0.5,0.5H14v-3h-1.5C12.2,21,12,21.2,12,21.5z"/>
	</g>
</g>
<g id="Outline_Icons">
	<g>
		<rect x="0.5" y="2.5" class="st2" width="9" height="3"/>
		<line class="st2" x1="7.5" y1="2.5" x2="7.5" y2="5.5"/>
		<line class="st2" x1="2.5" y1="2.5" x2="2.5" y2="5.5"/>
		<rect x="2.5" y="5.5" class="st2" width="9" height="3"/>
		<line class="st2" x1="9.5" y1="5.5" x2="9.5" y2="8.5"/>
		<line class="st2" x1="4.5" y1="5.5" x2="4.5" y2="8.5"/>
		<rect x="1.5" y="8.5" class="st2" width="9" height="3"/>
		<line class="st2" x1="8.5" y1="8.5" x2="8.5" y2="11.5"/>
		<line class="st2" x1="3.5" y1="8.5" x2="3.5" y2="11.5"/>
		<rect x="0.5" y="11.5" class="st2" width="9" height="3"/>
		<line class="st2" x1="7.5" y1="11.5" x2="7.5" y2="14.5"/>
		<line class="st2" x1="2.5" y1="11.5" x2="2.5" y2="14.5"/>
		<rect x="1.5" y="14.5" class="st2" width="9" height="3"/>
		<line class="st2" x1="8.5" y1="14.5" x2="8.5" y2="17.5"/>
		<line class="st2" x1="3.5" y1="14.5" x2="3.5" y2="17.5"/>
		<rect x="0.5" y="17.5" class="st2" width="9" height="3"/>
		<line class="st2" x1="7.5" y1="17.5" x2="7.5" y2="20.5"/>
		<line class="st2" x1="2.5" y1="17.5" x2="2.5" y2="20.5"/>
		<rect x="1.5" y="20.5" class="st2" width="9" height="3"/>
		<line class="st2" x1="8.5" y1="20.5" x2="8.5" y2="23.5"/>
		<line class="st2" x1="3.5" y1="20.5" x2="3.5" y2="23.5"/>
		<rect x="12.5" y="14.5" class="st2" width="9" height="3"/>
		<line class="st2" x1="14.5" y1="14.5" x2="14.5" y2="17.5"/>
		<line class="st2" x1="19.5" y1="14.5" x2="19.5" y2="17.5"/>
		<rect x="13.5" y="17.5" class="st2" width="9" height="3"/>
		<line class="st2" x1="15.5" y1="17.5" x2="15.5" y2="20.5"/>
		<line class="st2" x1="20.5" y1="17.5" x2="20.5" y2="20.5"/>
		<rect x="12.5" y="20.5" class="st2" width="9" height="3"/>
		<line class="st2" x1="14.5" y1="20.5" x2="14.5" y2="23.5"/>
		<line class="st2" x1="19.5" y1="20.5" x2="19.5" y2="23.5"/>
	</g>
</g>
</svg>
