<?xml version="1.0" encoding="utf-8"?>
<!-- Generator: Adobe Illustrator 19.2.0, SVG Export Plug-In . SVG Version: 6.00 Build 0)  -->
<svg version="1.1" id="Layer_1" xmlns="http://www.w3.org/2000/svg" xmlns:xlink="http://www.w3.org/1999/xlink" x="0px" y="0px"
	 viewBox="0 0 24 24" style="enable-background:new 0 0 24 24;" xml:space="preserve">
<style type="text/css">
	.st0{display:none;}
	.st1{display:inline;}
	.st2{fill:none;stroke:#000000;stroke-linecap:round;stroke-linejoin:round;stroke-miterlimit:10;}
</style>
<g id="Filled_Icon" class="st0">
	<g class="st1">
		<polygon points="0,0 0,15 2,15 2,14 1,14 1,1 23,1 23,14 15,14 15,15 24,15 24,0 		"/>
		<path d="M15,13h4.5c1.4,0,2.5-1.1,2.5-2.5v-6C22,3.1,20.9,2,19.5,2h-15C3.1,2,2,3.1,2,4.5v6c0,0.4,0.1,0.8,0.3,1.1
			C2.9,10.5,5,10,8.5,10c4.4,0,6.5,0.8,6.5,2.5V13z M5,6C4.4,6,4,5.6,4,5c0-0.6,0.4-1,1-1c0.6,0,1,0.4,1,1C6,5.6,5.6,6,5,6z
			 M11.5,9.5c-1.7,0-3-1.3-3-3c0-1.7,1.3-3,3-3c1.7,0,3,1.3,3,3C14.5,8.2,13.2,9.5,11.5,9.5z M19,9c0.6,0,1,0.4,1,1c0,0.6-0.4,1-1,1
			c-0.6,0-1-0.4-1-1C18,9.4,18.4,9,19,9z"/>
		<path d="M8.5,22c-1.4,0-2.9-0.1-4.1-0.3c-0.6-0.1-1-0.2-1.4-0.3v1.1C3,23.9,7.1,24,8.5,24c1.4,0,5.5-0.1,5.5-1.5v-1.1
			c-0.4,0.1-0.8,0.2-1.4,0.3C11.4,21.9,9.9,22,8.5,22z"/>
		<path d="M8.5,14c-1.4,0-2.9-0.1-4.1-0.3c-0.6-0.1-1-0.2-1.4-0.3v0.9C3.5,14.6,5.9,15,8.5,15c2.6,0,5-0.4,5.5-0.7v-0.9
			c-0.4,0.1-0.8,0.2-1.4,0.3C11.4,13.9,9.9,14,8.5,14z"/>
		<path d="M14,12.3c-0.2-0.9-2.2-1.3-5.5-1.3c-3.3,0-5.3,0.5-5.5,1.3C3.6,12.6,5.9,13,8.5,13C11.1,13,13.4,12.6,14,12.3z"/>
		<path d="M8.5,20c-1.4,0-2.9-0.1-4.1-0.3c-0.6-0.1-1-0.2-1.4-0.3v0.9C3.5,20.6,5.9,21,8.5,21c2.6,0,5-0.4,5.5-0.7v-0.9
			c-0.4,0.1-0.8,0.2-1.4,0.3C11.4,19.9,9.9,20,8.5,20z"/>
		<path d="M8.5,16c-1.4,0-2.9-0.1-4.1-0.3c-0.6-0.1-1-0.2-1.4-0.3v0.9C3.5,16.6,5.9,17,8.5,17c2.6,0,5-0.4,5.5-0.7v-0.9
			c-0.4,0.1-0.8,0.2-1.4,0.3C11.4,15.9,9.9,16,8.5,16z"/>
		<path d="M8.5,18c-1.4,0-2.9-0.1-4.1-0.3c-0.6-0.1-1-0.2-1.4-0.3v0.9C3.5,18.6,5.9,19,8.5,19c2.6,0,5-0.4,5.5-0.7v-0.9
			c-0.4,0.1-0.8,0.2-1.4,0.3C11.4,17.9,9.9,18,8.5,18z"/>
	</g>
</g>
<g id="Outline_Icons">
	<g>
		<ellipse class="st2" cx="9.5" cy="12.5" rx="5" ry="1"/>
		<path class="st2" d="M4.5,12.5v2c0,0.6,2.2,1,5,1c2.8,0,5-0.4,5-1v-2"/>
		<path class="st2" d="M14.5,14.5v2c0,0.6-2.2,1-5,1c-2.8,0-5-0.4-5-1v-2"/>
		<path class="st2" d="M14.5,16.5v2c0,0.6-2.2,1-5,1c-2.8,0-5-0.4-5-1v-2"/>
		<path class="st2" d="M14.5,18.5v2c0,0.6-2.2,1-5,1c-2.8,0-5-0.4-5-1v-2"/>
		<path class="st2" d="M14.5,20.5v2c0,0.6-2.2,1-5,1c-2.8,0-5-0.4-5-1v-2"/>
		<polyline class="st2" points="4.5,14.5 0.5,14.5 0.5,0.5 23.5,0.5 23.5,14.5 14.5,14.5 		"/>
		<circle class="st2" cx="12" cy="7.5" r="3"/>
		<circle class="st2" cx="5" cy="5" r="0.5"/>
		<circle class="st2" cx="19" cy="10" r="0.5"/>
		<path class="st2" d="M4.5,12.5c-1.1,0-2-0.9-2-2v-6c0-1.1,0.9-2,2-2h15c1.1,0,2,0.9,2,2v6c0,1.1-0.9,2-2,2h-5"/>
	</g>
</g>
</svg>
