<?xml version="1.0" encoding="utf-8"?>
<!-- Generator: Adobe Illustrator 19.2.0, SVG Export Plug-In . SVG Version: 6.00 Build 0)  -->
<svg version="1.1" id="Outline_Icons" xmlns="http://www.w3.org/2000/svg" xmlns:xlink="http://www.w3.org/1999/xlink" x="0px"
	 y="0px" viewBox="0 0 24 24" style="enable-background:new 0 0 24 24;" xml:space="preserve">
<style type="text/css">
	.st0{fill:none;stroke:#000000;stroke-linecap:round;stroke-linejoin:round;stroke-miterlimit:10;}
	.st1{fill:none;stroke:#000000;stroke-linejoin:round;stroke-miterlimit:10;}
</style>
<g>
	<path class="st0" d="M8,5c1.9-2.5,3.5-4.5,3.5-4.5S20,10.3,20,15c0,0.7-0.1,1.4-0.2,2"/>
	<path class="st0" d="M17.5,21c-1.5,1.5-3.7,2.5-6,2.5C6.8,23.5,3,19.7,3,15c0-1.7,1.1-4,2.5-6.3"/>
	<line class="st1" x1="11.5" y1="15" x2="11.5" y2="23.5"/>
	<line class="st1" x1="11.5" y1="0.5" x2="11.5" y2="9"/>
	<line class="st1" x1="13.5" y1="17" x2="13.5" y2="23.1"/>
	<line class="st1" x1="13.5" y1="3" x2="13.5" y2="12"/>
	<line class="st1" x1="15.5" y1="19" x2="15.5" y2="22.2"/>
	<line class="st1" x1="15.5" y1="5.5" x2="15.5" y2="13.5"/>
	<line class="st1" x1="17.5" y1="8.5" x2="17.5" y2="16"/>
	<line class="st0" x1="0.8" y1="1.3" x2="22.2" y2="22.7"/>
</g>
</svg>
