<?xml version="1.0" encoding="utf-8"?>
<!-- Generator: Adobe Illustrator 19.2.0, SVG Export Plug-In . SVG Version: 6.00 Build 0)  -->
<svg version="1.1" id="Layer_1" xmlns="http://www.w3.org/2000/svg" xmlns:xlink="http://www.w3.org/1999/xlink" x="0px" y="0px"
	 viewBox="0 0 24 24" style="enable-background:new 0 0 24 24;" xml:space="preserve">
<style type="text/css">
	.st0{display:none;}
	.st1{display:inline;}
	.st2{fill:none;stroke:#000000;stroke-linecap:round;stroke-linejoin:round;stroke-miterlimit:10;}
</style>
<g id="Filled_Icon" class="st0">
	<g class="st1">
		<path d="M20.5,12.7c0.1-0.2,0-0.4-0.1-0.5l-9-9C11.3,3,11.1,3,11,3V2.5C11,1.1,9.9,0,8.5,0C7.1,0,6,1.1,6,2.5v5.3l-3.9,3.9
			c-1,1-1,2.6,0,3.5l4.7,4.7c0.5,0.5,1.1,0.7,1.8,0.7c0.7,0,1.3-0.3,1.8-0.7l6.9-6.9H20C20.2,13,20.4,12.9,20.5,12.7z M10,3.8l-3,3
			V2.5C7,1.7,7.7,1,8.5,1C9.3,1,10,1.7,10,2.5V3.8z"/>
		<path d="M21.4,15.2c-0.2-0.3-0.7-0.3-0.9,0C20.3,15.7,18,19.5,18,21c0,1.7,1.3,3,3,3c1.7,0,3-1.3,3-3C24,19.5,21.7,15.7,21.4,15.2
			z"/>
	</g>
</g>
<g id="Outline_Icons">
	<g>
		<path class="st2" d="M20,12.5l-9-9L2.5,12c-0.8,0.8-0.8,2,0,2.8l4.7,4.7c0.8,0.8,2,0.8,2.8,0l7-7H20z"/>
		<path class="st2" d="M10.5,10.5v-8c0-1.1-0.9-2-2-2l0,0c-1.1,0-2,0.9-2,2V8"/>
		<path class="st2" d="M23.5,21c0,1.4-1.1,2.5-2.5,2.5c-1.4,0-2.5-1.1-2.5-2.5c0-1.4,2.5-5.5,2.5-5.5S23.5,19.6,23.5,21z"/>
	</g>
</g>
</svg>
