<?xml version="1.0" encoding="utf-8"?>
<!-- Generator: Adobe Illustrator 19.2.0, SVG Export Plug-In . SVG Version: 6.00 Build 0)  -->
<svg version="1.1" id="Layer_1" xmlns="http://www.w3.org/2000/svg" xmlns:xlink="http://www.w3.org/1999/xlink" x="0px" y="0px"
	 viewBox="0 0 24 24" style="enable-background:new 0 0 24 24;" xml:space="preserve">
<style type="text/css">
	.st0{display:none;}
	.st1{display:inline;}
	.st2{fill:none;stroke:#000000;stroke-linejoin:round;stroke-miterlimit:10;}
</style>
<g id="Filled_Icon" class="st0">
	<g class="st1">
		<path d="M20.8,7.1l-4-3.5c0,0.3,0,0.7-0.2,1l-6.2,16.8L20.9,9.3C21.5,8.6,21.4,7.7,20.8,7.1z"/>
	</g>
	<path class="st1" d="M14.8,2.4l-5-1.8c0.1,0.3,0.2,0.6,0.2,1v18.1l5.7-15.3C16,3.5,15.6,2.7,14.8,2.4z"/>
	<g class="st1">
		<circle cx="4.5" cy="21.5" r="0.5"/>
		<path d="M7.5,0h-6C0.7,0,0,0.7,0,1.5v21C0,23.3,0.7,24,1.5,24h6C8.3,24,9,23.3,9,22.5v-21C9,0.7,8.3,0,7.5,0z M4.5,23
			C3.7,23,3,22.3,3,21.5C3,20.7,3.7,20,4.5,20C5.3,20,6,20.7,6,21.5C6,22.3,5.3,23,4.5,23z M7,18.5C7,18.8,6.8,19,6.5,19h-4
			C2.2,19,2,18.8,2,18.5v-4C2,14.2,2.2,14,2.5,14h4C6.8,14,7,14.2,7,14.5V18.5z M7,12.5C7,12.8,6.8,13,6.5,13h-4
			C2.2,13,2,12.8,2,12.5v-4C2,8.2,2.2,8,2.5,8h4C6.8,8,7,8.2,7,8.5V12.5z M7,6.5C7,6.8,6.8,7,6.5,7h-4C2.2,7,2,6.8,2,6.5v-4
			C2,2.2,2.2,2,2.5,2h4C6.8,2,7,2.2,7,2.5V6.5z"/>
	</g>
</g>
<g id="Outline_Icons">
	<g>
		<path class="st2" d="M8.5,22.5c0,0.6-0.4,1-1,1h-6c-0.6,0-1-0.4-1-1v-21c0-0.6,0.4-1,1-1h6c0.6,0,1,0.4,1,1V22.5z"/>
		<path class="st2" d="M8.3,0.8c0.2-0.1,0.4-0.1,0.7,0l5.6,2.1c0.5,0.2,0.8,0.8,0.6,1.3L8.6,22.1"/>
		<path class="st2" d="M15.3,3.4c0.2,0,0.4,0.1,0.6,0.2l4.6,3.9c0.4,0.4,0.5,1,0.1,1.4L8.1,23.3"/>
		<rect x="2.5" y="2.5" class="st2" width="4" height="4"/>
		<rect x="2.5" y="8.5" class="st2" width="4" height="4"/>
		<rect x="2.5" y="14.5" class="st2" width="4" height="4"/>
		<circle class="st2" cx="4.5" cy="21" r="1"/>
	</g>
</g>
</svg>
