<?xml version="1.0" encoding="utf-8"?>
<!-- Generator: Adobe Illustrator 19.2.0, SVG Export Plug-In . SVG Version: 6.00 Build 0)  -->
<svg version="1.1" id="Layer_1" xmlns="http://www.w3.org/2000/svg" xmlns:xlink="http://www.w3.org/1999/xlink" x="0px" y="0px"
	 viewBox="0 0 24 24" style="enable-background:new 0 0 24 24;" xml:space="preserve">
<style type="text/css">
	.st0{display:none;}
	.st1{display:inline;}
	.st2{fill:none;stroke:#000000;stroke-linecap:round;stroke-linejoin:round;stroke-miterlimit:10;}
</style>
<g id="Filled_Icons" class="st0">
	<path class="st1" d="M22.8,16.2L9.9,3.6C9.2,2.9,8.2,2.4,7.1,2.4C6,2.4,5,2.9,4.3,3.7L0.4,7.6C0.1,7.9,0,8.2,0,8.6
		C0,9,0.2,9.4,0.5,9.7c0.6,0.6,1.6,0.5,2.1,0l3-3.1l0.3,0l0.6,0.6l-3.5,3.6c-0.2,0.2-0.2,0.5,0,0.7c0.1,0.1,0.2,0.1,0.4,0.1
		c0.1,0,0.3,0,0.4-0.1l3.5-3.6l0.7,0.7l-3.5,3.6c-0.2,0.2-0.2,0.5,0,0.7C4.5,12.9,4.6,13,4.7,13c0.1,0,0.3,0,0.4-0.1l3.5-3.6L9.3,10
		l-3.5,3.6c-0.2,0.2-0.2,0.5,0,0.7c0.1,0.1,0.2,0.1,0.3,0.1c0.1,0,0.3,0,0.4-0.2l3.5-3.6l0.7,0.7l-3.5,3.6c-0.2,0.2-0.2,0.5,0,0.7
		c0.1,0.1,0.2,0.1,0.4,0.1c0.1,0,0.3-0.1,0.4-0.1l3.5-3.6l0.7,0.7l-3.5,3.6c-0.2,0.2-0.2,0.5,0,0.7c0.1,0.1,0.2,0.1,0.3,0.1
		c0.1,0,0.3-0.1,0.4-0.2l3.5-3.6l0.6,0.6l0,0.3l-3,3.1C10.2,17.7,10,18,10,18.4c0,0.4,0.2,0.8,0.5,1.1c0.6,0.6,1.6,0.5,2.1,0l3-3.1
		l0.3,0l3.4,3.4c0.5,0.5,1.1,0.7,1.7,0.7c0.7,0,1.3-0.3,1.8-0.8C23.8,18.7,23.8,17.1,22.8,16.2z"/>
</g>
<g id="Outline_Icons">
	<g>
		<line class="st2" x1="6.2" y1="13.9" x2="10" y2="10"/>
		<line class="st2" x1="7.6" y1="15.3" x2="11.4" y2="11.4"/>
		<line class="st2" x1="4.7" y1="12.5" x2="8.6" y2="8.6"/>
		<line class="st2" x1="3.3" y1="11.1" x2="7.1" y2="7.1"/>
		<line class="st2" x1="9" y1="16.7" x2="12.9" y2="12.7"/>
		<path class="st2" d="M22.5,19.4c-0.8,0.8-2,0.8-2.8,0l-3.6-3.5l-0.7,0l-3.1,3.2c-0.4,0.4-1,0.4-1.4,0c-0.4-0.4-0.4-1,0-1.4
			l3.1-3.2l0-0.7L6.1,6.1l-0.7,0L2.2,9.3c-0.4,0.4-1,0.4-1.4,0c-0.4-0.4-0.4-1,0-1.4l3.1-3.2L4.6,4c1.4-1.4,3.6-1.4,5-0.1l12.9,12.6
			C23.2,17.3,23.3,18.6,22.5,19.4z"/>
	</g>
</g>
</svg>
