<?xml version="1.0" encoding="utf-8"?>
<!-- Generator: Adobe Illustrator 19.2.0, SVG Export Plug-In . SVG Version: 6.00 Build 0)  -->
<svg version="1.1" id="Layer_1" xmlns="http://www.w3.org/2000/svg" xmlns:xlink="http://www.w3.org/1999/xlink" x="0px" y="0px"
	 viewBox="0 0 24 24" enable-background="new 0 0 24 24" xml:space="preserve">
<g id="Filled_Icons" display="none">
	<g display="inline">
		<path d="M11,18.006c0-1.869,0.728-3.628,2.05-4.949c1.322-1.322,3.081-2.051,4.95-2.051c0.439,0,0.874,0.044,1.298,0.123
			l-7.252-10.38c-0.121-0.175-0.34-0.256-0.544-0.195c-0.204,0.057-0.35,0.236-0.365,0.447l-0.365,5.38L3.37,3.371
			C3.176,3.29,2.951,3.343,2.811,3.498C2.669,3.653,2.641,3.88,2.737,4.066l3.532,6.741l-5.272,0.336
			c-0.212,0.014-0.393,0.159-0.45,0.364c-0.058,0.204,0.021,0.423,0.195,0.545l10.38,7.252C11.044,18.881,11,18.447,11,18.006z
			 M12.089,6.936c0.234-0.147,0.542-0.075,0.688,0.159l1.662,2.662c0.146,0.234,0.074,0.542-0.16,0.688
			c-0.082,0.052-0.174,0.076-0.264,0.076c-0.166,0-0.33-0.083-0.425-0.235l-1.663-2.662C11.783,7.39,11.854,7.082,12.089,6.936z
			 M9,9.006c0.195-0.195,0.512-0.195,0.707,0l2.6,2.6c0.195,0.195,0.195,0.512,0,0.707c-0.097,0.098-0.226,0.146-0.354,0.146
			c-0.128,0-0.255-0.049-0.354-0.146L9,9.713C8.805,9.518,8.805,9.201,9,9.006z M10.379,14.221
			c-0.094,0.153-0.258,0.238-0.426,0.238c-0.089,0-0.18-0.023-0.262-0.074l-2.601-1.6c-0.234-0.145-0.308-0.452-0.163-0.688
			c0.144-0.234,0.45-0.312,0.688-0.164l2.601,1.6C10.45,13.678,10.524,13.984,10.379,14.221z"/>
		<path d="M23.99,18.075l-0.233,0.153c-0.561,0.371-1.212,0.567-1.882,0.567c-1.884,0-3.417-1.532-3.417-3.416
			c0-1.118,0.551-2.167,1.474-2.808l0.229-0.158l0.003-0.003c-0.682-0.264-1.412-0.406-2.164-0.406
			c-1.604,0-3.109,0.624-4.243,1.759C12.624,14.897,12,16.402,12,18.006c0,1.604,0.624,3.109,1.757,4.243
			c0.294,0.293,0.613,0.551,0.952,0.774l0.004-0.01l-0.061-0.166c-0.104-0.289-0.152-0.565-0.152-0.843c0-1.379,1.122-2.5,2.5-2.5
			c1.378,0,2.5,1.121,2.5,2.5c0,0.7-0.288,1.352-0.811,1.834l-0.131,0.121l-0.002,0.019c1.393-0.127,2.686-0.73,3.686-1.73
			c1.117-1.117,1.736-2.599,1.754-4.175L23.99,18.075z"/>
	</g>
</g>
<g id="Outline_Icons">
	<g>
		<circle fill="none" stroke="#000000" stroke-linejoin="round" stroke-miterlimit="10" cx="18" cy="18" r="5.5"/>
		<polyline fill="none" stroke="#000000" stroke-linejoin="round" stroke-miterlimit="10" points="19.882,12.831 11.636,1.029 
			11.224,7.099 3.181,3.828 7.07,11.252 1.029,11.637 12.831,19.882 		"/>
		
			<line fill="none" stroke="#000000" stroke-linecap="round" stroke-linejoin="round" stroke-miterlimit="10" x1="14.663" y1="10.662" x2="13" y2="8"/>
		
			<line fill="none" stroke="#000000" stroke-linecap="round" stroke-linejoin="round" stroke-miterlimit="10" x1="10.6" y1="14.6" x2="8" y2="13"/>
		
			<line fill="none" stroke="#000000" stroke-linecap="round" stroke-linejoin="round" stroke-miterlimit="10" x1="12.6" y1="12.6" x2="10" y2="10"/>
		<path fill="none" stroke="#000000" stroke-linejoin="round" stroke-miterlimit="10" d="M21.889,14.111
			c-0.496-0.496-1.068-0.865-1.673-1.133c-0.759,0.526-1.257,1.401-1.257,2.396c0,1.611,1.307,2.916,2.917,2.916
			c0.595,0,1.145-0.18,1.606-0.484C23.435,16.465,22.914,15.137,21.889,14.111z"/>
		<path fill="none" stroke="#000000" stroke-linejoin="round" stroke-miterlimit="10" d="M17,20c-1.104,0-2,0.897-2,2
			c0,0.236,0.049,0.462,0.125,0.674c0.984,0.605,2.109,0.863,3.227,0.793C18.748,23.102,19,22.582,19,22C19,20.897,18.103,20,17,20z
			"/>
	</g>
</g>
</svg>
