<?xml version="1.0" encoding="utf-8"?>
<!-- Generator: Adobe Illustrator 19.2.0, SVG Export Plug-In . SVG Version: 6.00 Build 0)  -->
<svg version="1.1" id="Layer_1" xmlns="http://www.w3.org/2000/svg" xmlns:xlink="http://www.w3.org/1999/xlink" x="0px" y="0px"
	 viewBox="0 0 24 24" style="enable-background:new 0 0 24 24;" xml:space="preserve">
<style type="text/css">
	.st0{display:none;}
	.st1{display:inline;}
	.st2{fill:none;stroke:#000000;stroke-linejoin:round;stroke-miterlimit:10;}
</style>
<g id="Filled_Icon" class="st0">
	<path class="st1" d="M19.5,15H17V9h2.5C22,9,24,7,24,4.5S22,0,19.5,0C17,0,15,2,15,4.5V7H9V4.5C9,2,7,0,4.5,0S0,2,0,4.5S2,9,4.5,9
		H7v6H4.5C2,15,0,17,0,19.5C0,22,2,24,4.5,24S9,22,9,19.5V17h6v2.5c0,2.5,2,4.5,4.5,4.5c2.5,0,4.5-2,4.5-4.5C24,17,22,15,19.5,15z
		 M17,4.5C17,3.1,18.1,2,19.5,2C20.9,2,22,3.1,22,4.5C22,5.9,20.9,7,19.5,7H17V4.5z M4.5,7C3.1,7,2,5.9,2,4.5C2,3.1,3.1,2,4.5,2
		C5.9,2,7,3.1,7,4.5V7H4.5z M7,19.5C7,20.9,5.9,22,4.5,22C3.1,22,2,20.9,2,19.5C2,18.1,3.1,17,4.5,17H7V19.5z M9,15V9h6v6H9z
		 M19.5,22c-1.4,0-2.5-1.1-2.5-2.5V17h2.5c1.4,0,2.5,1.1,2.5,2.5C22,20.9,20.9,22,19.5,22z"/>
</g>
<g id="Outline_Icons">
	<g>
		<path class="st2" d="M0.5,20c0,1.9,1.6,3.5,3.5,3.5c1.9,0,3.5-1.6,3.5-3.5v-3.5H4C2.1,16.5,0.5,18.1,0.5,20z"/>
		<path class="st2" d="M4,0.5C2.1,0.5,0.5,2.1,0.5,4c0,1.9,1.6,3.5,3.5,3.5h3.5V4C7.5,2.1,5.9,0.5,4,0.5z"/>
		<path class="st2" d="M20,16.5h-3.5V20c0,1.9,1.6,3.5,3.5,3.5c1.9,0,3.5-1.6,3.5-3.5C23.5,18.1,21.9,16.5,20,16.5z"/>
		<rect x="7.5" y="7.5" class="st2" width="9" height="9"/>
		<path class="st2" d="M23.5,4c0-1.9-1.6-3.5-3.5-3.5c-1.9,0-3.5,1.6-3.5,3.5v3.5H20C21.9,7.5,23.5,5.9,23.5,4z"/>
	</g>
</g>
</svg>
