<?xml version="1.0" encoding="utf-8"?>
<!-- Generator: Adobe Illustrator 19.2.0, SVG Export Plug-In . SVG Version: 6.00 Build 0)  -->
<svg version="1.1" id="Outline_Icons" xmlns="http://www.w3.org/2000/svg" xmlns:xlink="http://www.w3.org/1999/xlink" x="0px"
	 y="0px" viewBox="0 0 24 24" enable-background="new 0 0 24 24" xml:space="preserve">
<g>
	<polygon fill="none" stroke="#000000" stroke-linecap="round" stroke-linejoin="round" stroke-miterlimit="10" points="3.5,6.5 
		19.5,6.5 19.5,4.5 4.5,4.5 	"/>
	<polygon fill="none" stroke="#000000" stroke-linecap="round" stroke-linejoin="round" stroke-miterlimit="10" points="3.5,16.5 
		16.5,16.5 16.5,18.5 4.5,18.5 	"/>
	
		<line fill="none" stroke="#000000" stroke-linecap="round" stroke-linejoin="round" stroke-miterlimit="10" x1="8.5" y1="4.5" x2="8.5" y2="2.5"/>
	
		<line fill="none" stroke="#000000" stroke-linecap="round" stroke-linejoin="round" stroke-miterlimit="10" x1="8.5" y1="18.5" x2="8.5" y2="20.5"/>
	<path fill="none" stroke="#000000" stroke-linecap="round" stroke-linejoin="round" stroke-miterlimit="10" d="M11.5,21.5
		c0,0.552-0.447,1-1,1h-4c-0.553,0-1-0.448-1-1s0.447-1,1-1h4C11.053,20.5,11.5,20.948,11.5,21.5z"/>
	<path fill="none" stroke="#000000" stroke-linecap="round" stroke-linejoin="round" stroke-miterlimit="10" d="M11.5,1.5
		c0,0.552-0.447,1-1,1h-4c-0.553,0-1-0.448-1-1s0.447-1,1-1h4C11.053,0.5,11.5,0.948,11.5,1.5z"/>
	<polygon fill="none" stroke="#000000" stroke-linecap="round" stroke-linejoin="round" stroke-miterlimit="10" points="21.5,23.5 
		14.5,23.5 14.5,21.97 16.5,21 16.5,16.5 19.5,16.5 19.5,21 21.5,22.031 	"/>
	
		<line fill="none" stroke="#000000" stroke-linecap="round" stroke-linejoin="round" stroke-miterlimit="10" x1="16.521" y1="10.5" x2="19.5" y2="10.5"/>
	
		<line fill="none" stroke="#000000" stroke-linecap="round" stroke-linejoin="round" stroke-miterlimit="10" x1="16.521" y1="8.5" x2="19.5" y2="8.5"/>
	
		<line fill="none" stroke="#000000" stroke-linecap="round" stroke-linejoin="round" stroke-miterlimit="10" x1="16.521" y1="12.5" x2="19.5" y2="12.5"/>
	
		<line fill="none" stroke="#000000" stroke-linecap="round" stroke-linejoin="round" stroke-miterlimit="10" x1="16.521" y1="14.5" x2="19.5" y2="14.5"/>
	
		<rect x="2.5" y="6.5" fill="none" stroke="#000000" stroke-linecap="round" stroke-linejoin="round" stroke-miterlimit="10" width="12" height="3"/>
	
		<rect x="2.5" y="13.5" fill="none" stroke="#000000" stroke-linecap="round" stroke-linejoin="round" stroke-miterlimit="10" width="12" height="3"/>
</g>
</svg>
