<?xml version="1.0" encoding="utf-8"?>
<!-- Generator: Adobe Illustrator 19.2.0, SVG Export Plug-In . SVG Version: 6.00 Build 0)  -->
<svg version="1.1" id="Layer_1" xmlns="http://www.w3.org/2000/svg" xmlns:xlink="http://www.w3.org/1999/xlink" x="0px" y="0px"
	 viewBox="0 0 24 24" style="enable-background:new 0 0 24 24;" xml:space="preserve">
<style type="text/css">
	.st0{display:none;}
	.st1{display:inline;}
	.st2{fill:none;stroke:#000000;stroke-linecap:round;stroke-linejoin:round;stroke-miterlimit:10;}
</style>
<g id="Filled_Icons" class="st0">
	<g class="st1">
		<path d="M23.5,12.5c0.3,0,0.5-0.2,0.5-0.5c0-0.3-0.2-0.5-0.5-0.5H20V8h3.5C23.8,8,24,7.8,24,7.5C24,7.2,23.8,7,23.5,7H20V5.5
			C20,4.7,19.3,4,18.5,4H17V0.5C17,0.2,16.8,0,16.5,0C16.2,0,16,0.2,16,0.5V4h-3.5V0.5C12.5,0.2,12.3,0,12,0c-0.3,0-0.5,0.2-0.5,0.5
			V4H8V0.5C8,0.2,7.8,0,7.5,0C7.2,0,7,0.2,7,0.5V4H5.5C4.7,4,4,4.7,4,5.5V7H0.5C0.2,7,0,7.2,0,7.5C0,7.8,0.2,8,0.5,8H4v3.5H0.5
			C0.2,11.5,0,11.7,0,12c0,0.3,0.2,0.5,0.5,0.5H4V16H0.5C0.2,16,0,16.2,0,16.5C0,16.8,0.2,17,0.5,17H4v1.5C4,19.3,4.7,20,5.5,20H7
			v3.5C7,23.8,7.2,24,7.5,24C7.8,24,8,23.8,8,23.5V20h3.5v3.5c0,0.3,0.2,0.5,0.5,0.5c0.3,0,0.5-0.2,0.5-0.5V20H16v3.5
			c0,0.3,0.2,0.5,0.5,0.5c0.3,0,0.5-0.2,0.5-0.5V20h1.5c0.8,0,1.5-0.7,1.5-1.5V17h3.5c0.3,0,0.5-0.2,0.5-0.5c0-0.3-0.2-0.5-0.5-0.5
			H20v-3.5H23.5z M18,15.5c0,1.4-1.1,2.5-2.5,2.5h-7C7.1,18,6,16.9,6,15.5v-7C6,7.1,7.1,6,8.5,6h7C16.9,6,18,7.1,18,8.5V15.5z"/>
		<path d="M9.5,10h4c0.3,0,0.5-0.2,0.5-0.5C14,9.2,13.8,9,13.5,9h-4C9.2,9,9,9.2,9,9.5C9,9.8,9.2,10,9.5,10z"/>
		<path d="M11.5,11h-2C9.2,11,9,11.2,9,11.5C9,11.8,9.2,12,9.5,12h2c0.3,0,0.5-0.2,0.5-0.5C12,11.2,11.8,11,11.5,11z"/>
		<path d="M14.5,14h-2c-0.3,0-0.5,0.2-0.5,0.5c0,0.3,0.2,0.5,0.5,0.5h2c0.3,0,0.5-0.2,0.5-0.5C15,14.2,14.8,14,14.5,14z"/>
	</g>
</g>
<g id="Outline_Icons">
	<g>
		<path class="st2" d="M19.5,18.5c0,0.5-0.4,1-1,1h-13c-0.5,0-1-0.5-1-1v-13c0-0.5,0.5-1,1-1h13c0.6,0,1,0.5,1,1V18.5z"/>
		<line class="st2" x1="11.5" y1="0.5" x2="11.5" y2="4.5"/>
		<line class="st2" x1="7.5" y1="0.5" x2="7.5" y2="4.5"/>
		<line class="st2" x1="16.5" y1="0.5" x2="16.5" y2="4.5"/>
		<line class="st2" x1="0.5" y1="12.5" x2="4.5" y2="12.5"/>
		<line class="st2" x1="0.5" y1="16.5" x2="4.5" y2="16.5"/>
		<line class="st2" x1="0.5" y1="7.5" x2="4.5" y2="7.5"/>
		<line class="st2" x1="12.5" y1="23.5" x2="12.5" y2="19.5"/>
		<line class="st2" x1="16.5" y1="23.5" x2="16.5" y2="19.5"/>
		<line class="st2" x1="7.5" y1="23.5" x2="7.5" y2="19.5"/>
		<line class="st2" x1="23.5" y1="11.5" x2="19.5" y2="11.5"/>
		<line class="st2" x1="23.5" y1="7.5" x2="19.5" y2="7.5"/>
		<line class="st2" x1="23.5" y1="16.5" x2="19.5" y2="16.5"/>
		<path class="st2" d="M17.5,15.5c0,1.1-0.9,2-2,2h-7c-1.1,0-2-0.9-2-2v-7c0-1.1,0.9-2,2-2h7c1.1,0,2,0.9,2,2V15.5z"/>
		<line class="st2" x1="9.5" y1="9.5" x2="13.5" y2="9.5"/>
		<line class="st2" x1="9.5" y1="11.5" x2="11.5" y2="11.5"/>
		<line class="st2" x1="12.5" y1="14.5" x2="14.5" y2="14.5"/>
	</g>
</g>
</svg>
