<?xml version="1.0" encoding="utf-8"?>
<!-- Generator: Adobe Illustrator 19.2.0, SVG Export Plug-In . SVG Version: 6.00 Build 0)  -->
<svg version="1.1" id="Layer_1" xmlns="http://www.w3.org/2000/svg" xmlns:xlink="http://www.w3.org/1999/xlink" x="0px" y="0px"
	 viewBox="0 0 24 24" style="enable-background:new 0 0 24 24;" xml:space="preserve">
<style type="text/css">
	.st0{display:none;}
	.st1{display:inline;}
	.st2{fill:none;stroke:#000000;stroke-linecap:round;stroke-linejoin:round;stroke-miterlimit:10;}
</style>
<g id="Filled_Icons" class="st0">
	<g class="st1">
		<path d="M9.6,12l3-6.3c0.1-0.2,0-0.4-0.1-0.6C12.2,5,12,5,11.8,5.1L0.3,11.6C0.1,11.7,0,11.8,0,12c0,0.2,0.1,0.3,0.3,0.4l11.6,6.5
			c0.2,0.1,0.4,0.1,0.6-0.1c0.2-0.1,0.2-0.4,0.1-0.6L9.6,12z"/>
		<path d="M18,6c-3.3,0-6,2.7-6,6c0,3.3,2.7,6,6,6c3.3,0,6-2.7,6-6C24,8.7,21.3,6,18,6z M19.3,14.7c0,0.2-0.2,0.4-0.5,0.4
			c0,0,0,0,0,0c-0.2,0-0.4-0.1-0.5-0.3L18,13.7l-0.3,1.1c-0.1,0.2-0.3,0.4-0.5,0.3c-0.2,0-0.4-0.2-0.5-0.4l-0.8-5.2
			c0-0.3,0.1-0.5,0.4-0.6c0.3,0,0.5,0.1,0.6,0.4l0.5,3.1l0.2-0.6c0.1-0.4,0.8-0.4,1,0l0.2,0.6l0.5-3.1c0-0.3,0.3-0.5,0.6-0.4
			c0.3,0,0.5,0.3,0.4,0.6L19.3,14.7z"/>
	</g>
</g>
<g id="Outline_Icons">
	<g>
		<g>
			<polygon class="st2" points="12.1,5.5 0.5,12 12.1,18.5 9,12 			"/>
			<circle class="st2" cx="18" cy="12" r="5.5"/>
		</g>
		<polyline class="st2" points="19.6,9.4 18.8,14.6 18,12 17.2,14.6 16.3,9.4 		"/>
	</g>
</g>
</svg>
