<?xml version="1.0" encoding="utf-8"?>
<!-- Generator: Adobe Illustrator 19.2.0, SVG Export Plug-In . SVG Version: 6.00 Build 0)  -->
<svg version="1.1" id="Layer_1" xmlns="http://www.w3.org/2000/svg" xmlns:xlink="http://www.w3.org/1999/xlink" x="0px" y="0px"
	 viewBox="0 0 24 24" style="enable-background:new 0 0 24 24;" xml:space="preserve">
<style type="text/css">
	.st0{display:none;}
	.st1{display:inline;}
	.st2{fill:none;stroke:#000000;stroke-linejoin:round;stroke-miterlimit:10;}
</style>
<g id="Filled_Icons" class="st0">
	<g class="st1">
		<path d="M22.3,15H1.8l-1.7,6h23.7L22.3,15z M7.4,20l0.8-3h7.8l0.7,3H7.4z"/>
		<path d="M0,22c0,1.1,0.9,2,2,2h20c1.1,0,2-0.9,2-2H0z"/>
		<path d="M22,13.9V3c0-1.1-0.9-2-2-2H4C2.9,1,2,1.9,2,3v11L22,13.9L22,13.9z M20,12.5H4v-10h16V12.5z"/>
	</g>
</g>
<g id="Outline_Icons">
	<g>
		<polygon class="st2" points="16,19.5 8,19.5 8.5,17.5 15.5,17.5 		"/>
		<path class="st2" d="M21.5,3c0-0.8-0.7-1.5-1.5-1.5H4C3.2,1.5,2.5,2.2,2.5,3v11.5l-2,7V22c0,0.8,0.7,1.5,1.5,1.5h20
			c0.8,0,1.5-0.7,1.5-1.5v-0.5l-2-7.5V3z"/>
		<line class="st2" x1="2.5" y1="14.5" x2="21.5" y2="14.5"/>
		<line class="st2" x1="0.5" y1="21.5" x2="23.5" y2="21.5"/>
		<rect x="4.5" y="3.5" class="st2" width="15" height="9"/>
	</g>
</g>
</svg>
