<?xml version="1.0" encoding="utf-8"?>
<!-- Generator: Adobe Illustrator 19.2.0, SVG Export Plug-In . SVG Version: 6.00 Build 0)  -->
<svg version="1.1" id="Layer_1" xmlns="http://www.w3.org/2000/svg" xmlns:xlink="http://www.w3.org/1999/xlink" x="0px" y="0px"
	 viewBox="0 0 24 24" style="enable-background:new 0 0 24 24;" xml:space="preserve">
<style type="text/css">
	.st0{display:none;}
	.st1{display:inline;}
	.st2{fill:none;stroke:#000000;stroke-linecap:round;stroke-linejoin:round;stroke-miterlimit:10;}
</style>
<g id="Filled_Icon" class="st0">
	<g class="st1">
		<path d="M4.3,9h15.5c-0.9-1.2-2-2.2-3.3-2.9c0.6-0.6,1-1.3,1.3-2.1c1-0.1,1.8-0.9,1.8-2c0-1.1-0.9-2-2-2c-1.1,0-2,0.9-2,2
			c0,0.8,0.5,1.5,1.1,1.8c-0.3,0.7-0.7,1.3-1.2,1.8C14.3,5.2,13.2,5,12,5c-1.2,0-2.3,0.2-3.4,0.6C8,5.1,7.6,4.5,7.4,3.8
			C8,3.5,8.5,2.8,8.5,2c0-1.1-0.9-2-2-2c-1.1,0-2,0.9-2,2c0,1.1,0.8,1.9,1.8,2c0.3,0.8,0.7,1.5,1.3,2.1C6.3,6.8,5.1,7.8,4.3,9z"/>
		<path d="M3.5,10.2L1.7,9.4C1.4,9.3,1.1,9.4,1,9.6c-0.1,0.3,0,0.5,0.3,0.7l1.8,0.8C2.8,12,2.6,13,2.5,14h-2C0.2,14,0,14.2,0,14.5
			C0,14.8,0.2,15,0.5,15h2c0.1,1.1,0.3,2.2,0.7,3.2l-1.8,0.9c-0.2,0.1-0.4,0.4-0.2,0.7C1.3,19.9,1.5,20,1.7,20c0.1,0,0.1,0,0.2,0
			l1.8-0.9c1.5,2.8,4.4,4.7,7.8,4.9V10H3.6C3.6,10.1,3.6,10.1,3.5,10.2z"/>
		<path d="M23.5,14h-2c-0.1-1-0.3-2-0.6-2.9l1.8-0.8c0.3-0.1,0.4-0.4,0.3-0.7c-0.1-0.3-0.4-0.4-0.7-0.3l-1.8,0.8
			c0-0.1-0.1-0.1-0.1-0.2h-7.9v14c3.4-0.2,6.3-2.1,7.8-4.9l1.8,0.9c0.1,0,0.1,0,0.2,0c0.2,0,0.4-0.1,0.5-0.3c0.1-0.2,0-0.5-0.2-0.7
			l-1.8-0.9c0.4-1,0.7-2.1,0.7-3.2h2c0.3,0,0.5-0.2,0.5-0.5C24,14.2,23.8,14,23.5,14z"/>
	</g>
</g>
<g id="Outline_Icons">
	<g>
		<circle class="st2" cx="12" cy="14.5" r="9"/>
		<circle class="st2" cx="6.5" cy="2" r="1.5"/>
		<circle class="st2" cx="17.5" cy="2" r="1.5"/>
		<line class="st2" x1="4.5" y1="9.5" x2="19.5" y2="9.5"/>
		<line class="st2" x1="11.5" y1="9.5" x2="11.5" y2="23.5"/>
		<line class="st2" x1="0.5" y1="14.5" x2="3" y2="14.5"/>
		<line class="st2" x1="1.7" y1="19.5" x2="3.9" y2="18.4"/>
		<line class="st2" x1="1.5" y1="9.8" x2="3.8" y2="10.8"/>
		<line class="st2" x1="23.5" y1="14.5" x2="21" y2="14.5"/>
		<line class="st2" x1="22.3" y1="19.5" x2="20.1" y2="18.4"/>
		<line class="st2" x1="22.5" y1="9.8" x2="20.2" y2="10.8"/>
		<path class="st2" d="M6.7,3.5c0.3,1.1,0.9,2,1.8,2.7"/>
		<path class="st2" d="M15.5,6.2c0.8-0.7,1.5-1.7,1.8-2.7"/>
	</g>
</g>
</svg>
