<?xml version="1.0" encoding="utf-8"?>
<!-- Generator: Adobe Illustrator 19.2.0, SVG Export Plug-In . SVG Version: 6.00 Build 0)  -->
<svg version="1.1" id="Outline_Icons" xmlns="http://www.w3.org/2000/svg" xmlns:xlink="http://www.w3.org/1999/xlink" x="0px"
	 y="0px" viewBox="0 0 24 24" style="enable-background:new 0 0 24 24;" xml:space="preserve">
<style type="text/css">
	.st0{fill:none;stroke:#000000;stroke-linecap:round;stroke-linejoin:round;stroke-miterlimit:10;}
</style>
<g>
	<path class="st0" d="M4.5,15.5V19l-2,4.5l-2-4.5V5.5c0-1.1,0.9-2,2-2s2,0.9,2,2v8"/>
	<line class="st0" x1="4.5" y1="6.5" x2="0.5" y2="6.5"/>
	<line class="st0" x1="4" y1="19.5" x2="1" y2="19.5"/>
	<polyline class="st0" points="14.5,7.5 22.3,19.9 20,21.3 11.5,7.6 	"/>
	<line class="st0" x1="21.2" y1="20.6" x2="22.9" y2="23.5"/>
	<path class="st0" d="M8.5,3.5c0-1.7,1.3-3,3-3s3,1.3,3,3v4h-6V3.5z"/>
	<polyline class="st0" points="8.4,7.5 6.3,13.5 0.5,13.5 0.5,15.5 8.5,15.5 11.6,7.6 	"/>
</g>
</svg>
