<?xml version="1.0" encoding="utf-8"?>
<!-- Generator: Adobe Illustrator 19.2.0, SVG Export Plug-In . SVG Version: 6.00 Build 0)  -->
<svg version="1.1" id="Layer_1" xmlns="http://www.w3.org/2000/svg" xmlns:xlink="http://www.w3.org/1999/xlink" x="0px" y="0px"
	 viewBox="0 0 24 24" style="enable-background:new 0 0 24 24;" xml:space="preserve">
<style type="text/css">
	.st0{display:none;}
	.st1{display:inline;}
	.st2{fill:none;stroke:#000000;stroke-linecap:round;stroke-linejoin:round;stroke-miterlimit:10;}
	.st3{fill:none;stroke:#000000;stroke-linejoin:round;stroke-miterlimit:10;}
</style>
<g id="Filled_Icons" class="st0">
	<g class="st1">
		<path d="M1,16H0v1.9C0,19.1,0.9,20,2,20h9.5v1H5c-0.3,0-0.5,0.2-0.5,0.5C4.5,21.8,4.7,22,5,22h14c0.3,0,0.5-0.2,0.5-0.5
			c0-0.3-0.2-0.5-0.5-0.5h-6.5v-1H22c1.1,0,2-0.9,2-2.1V16h-1H1z M12,16.5c0.6,0,1,0.4,1,1c0,0.6-0.4,1-1,1c-0.6,0-1-0.4-1-1
			C11,16.9,11.4,16.5,12,16.5z"/>
		<path d="M22,1H2C0.9,1,0,1.9,0,3.1V15h1h22h1V3.1C24,1.9,23.1,1,22,1z"/>
	</g>
</g>
<g id="Outline_Icons">
	<g>
		<path class="st2" d="M23.5,17.9c0,0.9-0.7,1.6-1.5,1.6H2c-0.8,0-1.5-0.7-1.5-1.6V3.1c0-0.9,0.7-1.6,1.5-1.6h20
			c0.8,0,1.5,0.7,1.5,1.6V17.9z"/>
		<line class="st2" x1="5" y1="21.5" x2="19" y2="21.5"/>
		<line class="st2" x1="12" y1="19.5" x2="12" y2="21.5"/>
		<circle class="st3" cx="12" cy="17.5" r="0.5"/>
		<line class="st3" x1="0.5" y1="15.5" x2="23.5" y2="15.5"/>
	</g>
</g>
</svg>
