<?xml version="1.0" encoding="utf-8"?>
<!-- Generator: Adobe Illustrator 19.2.0, SVG Export Plug-In . SVG Version: 6.00 Build 0)  -->
<svg version="1.1" id="Layer_1" xmlns="http://www.w3.org/2000/svg" xmlns:xlink="http://www.w3.org/1999/xlink" x="0px" y="0px"
	 viewBox="0 0 24 24" style="enable-background:new 0 0 24 24;" xml:space="preserve">
<style type="text/css">
	.st0{display:none;}
	.st1{display:inline;}
	.st2{fill:none;stroke:#000000;stroke-linejoin:round;stroke-miterlimit:10;}
</style>
<g id="Filled_Icons" class="st0">
	<path class="st1" d="M23.6,12.5l-7.2,1.2L15.3,12l1.1-1.7l7.2,1.2c0.2,0,0.4,0.2,0.4,0.5c0-6.6-5.4-12-12-12c0.2,0,0.5,0.2,0.5,0.4
		l1.2,7.2L12,8.7l-1.7-1.1l1.2-7.2C11.5,0.2,11.8,0,12,0C5.4,0,0,5.4,0,12c0-0.2,0.2-0.5,0.4-0.5l7.2-1.2L8.7,12l-1.1,1.7l-7.2-1.2
		C0.2,12.5,0,12.2,0,12c0,6.6,5.4,12,12,12c-0.2,0-0.5-0.2-0.5-0.4l-1.2-7.1l1.7-1.1l1.7,1.1l-1.2,7.2c0,0.2-0.2,0.4-0.5,0.4
		c6.6,0,12-5.4,12-12C24,12.2,23.8,12.5,23.6,12.5z M16.9,16.9C16.8,17,16.6,17,16.5,17c-0.1,0-0.2,0-0.3-0.1L12,14.1l-4.2,2.8
		c-0.2,0.1-0.5,0.1-0.6-0.1C7,16.7,7,16.4,7.1,16.2L9.9,12L7.1,7.8C7,7.6,7,7.3,7.1,7.2C7.3,7,7.6,7,7.8,7.1L12,9.9l4.2-2.8
		C16.4,7,16.7,7,16.9,7.2C17,7.3,17,7.6,16.9,7.8L14.1,12l2.8,4.2C17,16.4,17,16.7,16.9,16.9z"/>
</g>
<g id="Outline_Icons">
	<g>
		<circle class="st2" cx="12" cy="12" r="11.5"/>
		<polygon class="st2" points="7.5,16.5 12,13.5 16.5,16.5 13.5,12 16.5,7.5 12,10.5 7.5,7.5 10.5,12 		"/>
		<polyline class="st2" points="10.5,9.5 12,0.5 13.5,9.5 		"/>
		<polyline class="st2" points="14.5,10.5 23.5,12 14.5,13.5 		"/>
		<polyline class="st2" points="13.5,14.5 12,23.5 10.5,14.5 		"/>
		<polyline class="st2" points="9.5,13.5 0.5,12 9.5,10.5 		"/>
	</g>
</g>
</svg>
