<?xml version="1.0" encoding="utf-8"?>
<!-- Generator: Adobe Illustrator 19.2.0, SVG Export Plug-In . SVG Version: 6.00 Build 0)  -->
<svg version="1.1" id="Layer_1" xmlns="http://www.w3.org/2000/svg" xmlns:xlink="http://www.w3.org/1999/xlink" x="0px" y="0px"
	 viewBox="0 0 24 24" style="enable-background:new 0 0 24 24;" xml:space="preserve">
<style type="text/css">
	.st0{display:none;}
	.st1{display:inline;}
	.st2{fill:none;stroke:#000000;stroke-linecap:round;stroke-linejoin:round;stroke-miterlimit:10;}
</style>
<g id="Filled_Icons" class="st0">
	<g class="st1">
		<path d="M22,16H2c-1.1,0-2,0.9-2,2v5.5C0,23.8,0.2,24,0.5,24h23c0.3,0,0.5-0.2,0.5-0.5V18C24,16.9,23.1,16,22,16z M5.5,21h-3
			C2.2,21,2,20.8,2,20.5C2,20.2,2.2,20,2.5,20h3C5.8,20,6,20.2,6,20.5C6,20.8,5.8,21,5.5,21z M8.5,19h-6C2.2,19,2,18.8,2,18.5
			C2,18.2,2.2,18,2.5,18h6C8.8,18,9,18.2,9,18.5C9,18.8,8.8,19,8.5,19z M22,21H12v-3h10V21z"/>
		<path d="M3.3,15h17.3c1.3,0,2.3-1.1,2.3-2.5v-10C23,1.1,22,0,20.7,0H3.3C2,0,1,1.1,1,2.5v10C1,13.9,2,15,3.3,15z M3,2h18v11H3V2z"
			/>
	</g>
</g>
<g id="Outline_Icons">
	<g>
		<path class="st2" d="M0.5,23.5V18c0-0.8,0.7-1.5,1.5-1.5h20c0.8,0,1.5,0.7,1.5,1.5v5.5H0.5z"/>
		<path class="st2" d="M22.5,12.5c0,1.1-0.8,2-1.8,2H3.3c-1,0-1.8-0.9-1.8-2v-10c0-1.1,0.8-2,1.8-2h17.3c1,0,1.8,0.9,1.8,2V12.5z"/>
		<rect x="3.5" y="2.5" class="st2" width="17" height="10"/>
		<line class="st2" x1="2.5" y1="18.5" x2="8.5" y2="18.5"/>
		<line class="st2" x1="2.5" y1="20.5" x2="5.5" y2="20.5"/>
		<rect x="12.5" y="18.5" class="st2" width="9" height="2"/>
	</g>
</g>
</svg>
