<?xml version="1.0" encoding="utf-8"?>
<!-- Generator: Adobe Illustrator 19.2.0, SVG Export Plug-In . SVG Version: 6.00 Build 0)  -->
<svg version="1.1" id="Layer_1" xmlns="http://www.w3.org/2000/svg" xmlns:xlink="http://www.w3.org/1999/xlink" x="0px" y="0px"
	 viewBox="0 0 24 24" style="enable-background:new 0 0 24 24;" xml:space="preserve">
<style type="text/css">
	.st0{display:none;}
	.st1{display:inline;}
	.st2{fill:none;stroke:#000000;stroke-linecap:round;stroke-linejoin:round;stroke-miterlimit:10;}
</style>
<g id="Filled_Icons" class="st0">
	<path class="st1" d="M12,0C5.4,0,0,5.4,0,12c0,6.6,5.4,12,12,12c6.6,0,12-5.4,12-12C24,5.4,18.6,0,12,0z M6.2,18.5
		c-0.2,0.1-0.4,0-0.5-0.1c-0.1-0.1-0.2-0.4-0.1-0.5l3.4-8.2l5.5,5.5L6.2,18.5z M18.5,6.2l-3.4,8.2L9.6,8.9l8.2-3.4
		c0.2-0.1,0.4,0,0.5,0.1C18.5,5.8,18.5,6,18.5,6.2z"/>
</g>
<g id="Outline_Icons">
	<g>
		<circle class="st2" cx="12" cy="12" r="11.5"/>
		<polygon class="st2" points="14.5,14.5 9.5,9.5 18,6 		"/>
		<polygon class="st2" points="14.5,14.5 9.5,9.5 6,18 		"/>
	</g>
</g>
</svg>
