<?xml version="1.0" encoding="utf-8"?>
<!-- Generator: Adobe Illustrator 19.2.0, SVG Export Plug-In . SVG Version: 6.00 Build 0)  -->
<svg version="1.1" id="Layer_1" xmlns="http://www.w3.org/2000/svg" xmlns:xlink="http://www.w3.org/1999/xlink" x="0px" y="0px"
	 viewBox="0 0 24 24" style="enable-background:new 0 0 24 24;" xml:space="preserve">
<style type="text/css">
	.st0{display:none;}
	.st1{display:inline;}
	.st2{fill:none;stroke:#000000;stroke-linecap:round;stroke-linejoin:round;stroke-miterlimit:10;}
</style>
<g id="Filled_Icons" class="st0">
	<g class="st1">
		<path d="M23.5,12c0.3,0,0.5-0.2,0.5-0.5c0-0.3-0.2-0.5-0.5-0.5H20V8h3.5C23.8,8,24,7.8,24,7.5C24,7.2,23.8,7,23.5,7H20V5.5
			C20,4.7,19.3,4,18.5,4H17V0.5C17,0.2,16.8,0,16.5,0C16.2,0,16,0.2,16,0.5V4h-4V0.5C12,0.2,11.8,0,11.5,0C11.2,0,11,0.2,11,0.5V4H8
			V0.5C8,0.2,7.8,0,7.5,0C7.2,0,7,0.2,7,0.5V4H5.5C4.7,4,4,4.7,4,5.5V7H0.5C0.2,7,0,7.2,0,7.5C0,7.8,0.2,8,0.5,8H4v4H0.5
			C0.2,12,0,12.2,0,12.5C0,12.8,0.2,13,0.5,13H4v3H0.5C0.2,16,0,16.2,0,16.5C0,16.8,0.2,17,0.5,17H4v1.5C4,19.3,4.7,20,5.5,20H7v3.5
			C7,23.8,7.2,24,7.5,24C7.8,24,8,23.8,8,23.5V20h4v3.5c0,0.3,0.2,0.5,0.5,0.5c0.3,0,0.5-0.2,0.5-0.5V20h3v3.5
			c0,0.3,0.2,0.5,0.5,0.5c0.3,0,0.5-0.2,0.5-0.5V20h1.5c0.8,0,1.5-0.7,1.5-1.5V17h3.5c0.3,0,0.5-0.2,0.5-0.5c0-0.3-0.2-0.5-0.5-0.5
			H20v-4H23.5z M18,15.5c0,1.4-1.1,2.5-2.5,2.5h-7C7.1,18,6,16.9,6,15.5v-7C6,7.1,7.1,6,8.5,6h7C16.9,6,18,7.1,18,8.5V15.5z"/>
		<path d="M15.2,11c0-0.8-0.6-1.4-1.4-1.4c-0.8,0-1.4,0.6-1.4,1.4c0,0.3,0.2,0.5,0.5,0.5c0.3,0,0.5-0.2,0.5-0.5
			c0-0.2,0.2-0.4,0.4-0.4c0.2,0,0.4,0.2,0.4,0.4c0,0.1,0,0.2-0.1,0.3l-1.7,2.4c-0.1,0.2-0.1,0.4,0,0.5c0.1,0.2,0.3,0.3,0.4,0.3h1.9
			c0.3,0,0.5-0.2,0.5-0.5c0-0.3-0.2-0.5-0.5-0.5h-0.9l1.2-1.6C15,11.6,15.2,11.4,15.2,11z"/>
		<path d="M10.1,9.5c-0.8,0-1.4,0.6-1.4,1.4c0,0.3,0.2,0.5,0.5,0.5c0.3,0,0.5-0.2,0.5-0.5c0-0.5,0.3-0.5,0.4-0.5
			c0.2,0,0.4,0,0.4,0.5c0,0.5-0.3,0.5-0.4,0.5c-0.3,0-0.5,0.2-0.5,0.5c0,0.3,0.2,0.5,0.5,0.5c0.2,0,0.4,0,0.4,0.5
			c0,0.5-0.3,0.5-0.4,0.5c-0.2,0-0.4,0-0.4-0.5c0-0.3-0.3-0.5-0.5-0.5c-0.3,0-0.5,0.2-0.5,0.5c0,0.9,0.6,1.4,1.4,1.4
			c1,0,1.4-0.8,1.4-1.5c0-0.4-0.1-0.7-0.3-1c0.2-0.3,0.3-0.6,0.3-1C11.6,10.1,11,9.5,10.1,9.5z"/>
	</g>
</g>
<g id="Outline_Icons">
	<g>
		<g>
			<path class="st2" d="M19.5,18.5c0,0.5-0.5,1-1,1h-13c-0.5,0-1-0.5-1-1v-13c0-0.5,0.5-1,1-1h13c0.5,0,1,0.5,1,1V18.5z"/>
			<line class="st2" x1="11.5" y1="0.5" x2="11.5" y2="4.5"/>
			<line class="st2" x1="7.5" y1="0.5" x2="7.5" y2="4.5"/>
			<line class="st2" x1="16.5" y1="0.5" x2="16.5" y2="4.5"/>
			<line class="st2" x1="0.5" y1="12.5" x2="4.5" y2="12.5"/>
			<line class="st2" x1="0.5" y1="16.5" x2="4.5" y2="16.5"/>
			<line class="st2" x1="0.5" y1="7.5" x2="4.5" y2="7.5"/>
			<line class="st2" x1="12.5" y1="23.5" x2="12.5" y2="19.5"/>
			<line class="st2" x1="16.5" y1="23.5" x2="16.5" y2="19.5"/>
			<line class="st2" x1="7.5" y1="23.5" x2="7.5" y2="19.5"/>
			<line class="st2" x1="23.5" y1="11.5" x2="19.5" y2="11.5"/>
			<line class="st2" x1="23.5" y1="7.5" x2="19.5" y2="7.5"/>
			<line class="st2" x1="23.5" y1="16.5" x2="19.5" y2="16.5"/>
			<path class="st2" d="M17.5,15.5c0,1.1-0.9,2-2,2h-7c-1.1,0-2-0.9-2-2v-7c0-1.1,0.9-2,2-2h7c1.1,0,2,0.9,2,2V15.5z"/>
		</g>
		<path class="st2" d="M12.8,10.9c0-0.5,0.4-0.9,0.9-0.9c0.5,0,0.9,0.4,0.9,0.9c0,0.3-0.1,0.4-0.2,0.5l-1.7,2.4h1.9"/>
		<g>
			<path class="st2" d="M9.2,10.9c0-0.4,0.2-0.9,0.9-0.9c0.8,0,0.9,0.6,0.9,1c0,0.4-0.1,1-0.9,1"/>
			<path class="st2" d="M9.2,13.1c0,0.4,0.2,0.9,0.9,0.9c0.8,0,0.9-0.6,0.9-1c0-0.4-0.1-1-0.9-1"/>
		</g>
	</g>
</g>
</svg>
