<?xml version="1.0" encoding="utf-8"?>
<!-- Generator: Adobe Illustrator 19.2.0, SVG Export Plug-In . SVG Version: 6.00 Build 0)  -->
<svg version="1.1" id="Layer_1" xmlns="http://www.w3.org/2000/svg" xmlns:xlink="http://www.w3.org/1999/xlink" x="0px" y="0px"
	 viewBox="0 0 24 24" style="enable-background:new 0 0 24 24;" xml:space="preserve">
<style type="text/css">
	.st0{display:none;}
	.st1{display:inline;}
	.st2{fill:none;stroke:#000000;stroke-linejoin:round;stroke-miterlimit:10;}
	.st3{fill:none;stroke:#000000;stroke-linecap:round;stroke-linejoin:round;stroke-miterlimit:10;}
</style>
<g id="Filled_Icon" class="st0">
	<g class="st1">
		<g>
			<path d="M18,6.5v-6C18,0.2,17.7,0,17.5,0h-11C6.2,0,6,0.2,6,0.5v6H18z"/>
			<path d="M7,10h10c1.4,0,2.5-1.1,2.5-2.5h-15C4.5,8.9,5.6,10,7,10z"/>
		</g>
		<g>
			<path d="M4,20h5v-4c0,0,0-0.1,0-0.1c0-0.1-0.9-3-1.6-4.1c-0.5-0.8-1.3-0.9-1.8-0.7c-0.6,0.2-1,1-0.8,2l0.3,1.3l-1.6-1.6
				c0-3.2-0.6-5.3-1.7-6.1C1.1,6.2,0.4,6.4,0.3,6.5C0.1,6.5,0,6.7,0,6.9V15c0,0.2,0.1,0.3,0.2,0.4C1,16.1,3.4,18.5,4,19.2V20z"/>
			<path d="M3,21v2.5C3,23.8,3.2,24,3.5,24h6c0.3,0,0.5-0.2,0.5-0.5V21H3z"/>
		</g>
		<g>
			<path d="M20,19.2c0.6-0.6,3.1-3.1,3.9-3.8c0.1-0.1,0.1-0.2,0.1-0.4V6.9c0-0.2-0.1-0.4-0.3-0.5c-0.1,0-0.7-0.2-1.5,0.3
				c-1.1,0.8-1.7,2.8-1.7,6.1l-1.6,1.6l0.3-1.3c0.3-1.1-0.2-1.8-0.8-2c-0.5-0.2-1.3-0.1-1.8,0.7c-0.7,1.1-1.6,4-1.6,4.1
				c0,0,0,0.1,0,0.1v4h5V19.2z"/>
			<path d="M14,21v2.5c0,0.3,0.2,0.5,0.5,0.5h6c0.3,0,0.5-0.2,0.5-0.5V21H14z"/>
		</g>
	</g>
</g>
<g id="Outline_Icons">
	<g>
		<g>
			<rect x="14.5" y="20.5" class="st2" width="6" height="3"/>
			<path class="st3" d="M19.5,20.5V19c0,0,3.2-3.2,4-4c0-1.4,0-8.1,0-8.1S21,6,21,13l-3,3l0.7-3c0.3-1.4-1-2.1-1.7-0.9
				c-0.7,1-1.5,4-1.5,4v4.5"/>
			<rect x="3.5" y="20.5" class="st2" width="6" height="3"/>
			<path class="st3" d="M4.5,20.5V19c0,0-3-3.2-4-4c0-1.4,0-8.1,0-8.1S3,6,3,13l3,3l-0.7-3c-0.3-1.4,1-2.1,1.7-0.9
				c0.7,1,1.5,4,1.5,4v4.5"/>
		</g>
		<g>
			<path class="st3" d="M5,7.5c0,1.1,0.9,2,2,2h10c1.1,0,2-0.9,2-2l0,0H5L5,7.5z"/>
			<rect x="6.5" y="0.5" class="st3" width="11" height="7"/>
		</g>
	</g>
</g>
</svg>
