<?xml version="1.0" encoding="utf-8"?>
<!-- Generator: Adobe Illustrator 19.2.0, SVG Export Plug-In . SVG Version: 6.00 Build 0)  -->
<svg version="1.1" id="Layer_1" xmlns="http://www.w3.org/2000/svg" xmlns:xlink="http://www.w3.org/1999/xlink" x="0px" y="0px"
	 viewBox="0 0 24 24" style="enable-background:new 0 0 24 24;" xml:space="preserve">
<style type="text/css">
	.st0{display:none;}
	.st1{display:inline;}
	.st2{fill:none;stroke:#000000;stroke-linejoin:round;stroke-miterlimit:10;}
	.st3{fill:none;stroke:#000000;stroke-linecap:round;stroke-linejoin:round;stroke-miterlimit:10;}
</style>
<g id="Filled_Icons" class="st0">
	<g class="st1">
		<g>
			<path d="M1,13.1C1,13.2,1,13.2,1,13.1C1,13.2,1,13.1,1,13.1L1,13.1z"/>
			<path d="M23,13.2C23,13.2,23,13.2,23,13.2l0-0.2C23,13.1,23,13.2,23,13.2c0-0.1,0-0.2-0.1-0.3L20.5,2.3C20.2,1,18.8,0,17.5,0h-11
				c-1.3,0-2.6,1-3,2.3L1.1,12.9C1,13.1,1,13.3,1,13.5v3C1,17.9,2.1,19,3.5,19C3.8,19,4,18.8,4,18.5C4,18.2,3.8,18,3.5,18
				C2.7,18,2,17.3,2,16.5v-3C2,12.7,2.7,12,3.5,12h17c0.8,0,1.5,0.7,1.5,1.5v3c0,0.8-0.7,1.5-1.5,1.5c-0.3,0-0.5,0.2-0.5,0.5
				c0,0.3,0.2,0.5,0.5,0.5c1.4,0,2.5-1.1,2.5-2.5v-3C23,13.4,23,13.3,23,13.2z M20,10h-4c-0.3,0-0.5-0.2-0.5-0.5
				C15.5,9.2,15.7,9,16,9h4c0.3,0,0.5,0.2,0.5,0.5C20.5,9.8,20.3,10,20,10z"/>
		</g>
		<g>
			<path d="M19.5,14H17H6.9H4.5C4.2,14,4,14.2,4,14.5C4,14.8,4.2,15,4.5,15h1.7c-0.5,0.9-0.8,1.9-0.8,2.8c0,3.2,2.9,5.9,6.5,5.9
				c3.6,0,6.5-2.6,6.5-5.9c0-0.9-0.3-1.9-0.8-2.8h1.8c0.3,0,0.5-0.2,0.5-0.5C20,14.2,19.8,14,19.5,14z M12,19
				c-0.7,0-1.2-0.5-1.2-1.1c0-0.6,0.5-1.1,1.2-1.1c0.7,0,1.2,0.5,1.2,1.1C13.2,18.5,12.6,19,12,19z"/>
		</g>
	</g>
</g>
<g id="Outline_Icons">
	<g>
		<path class="st2" d="M16.8,14.5H7.1c-0.8,1-1.2,2.1-1.2,3.3c0,2.9,2.7,5.4,6,5.4c3.3,0,6-2.5,6-5.4C18,16.6,17.5,15.5,16.8,14.5z
			 M12,19c-0.7,0-1.2-0.5-1.2-1.1c0-0.6,0.5-1.1,1.2-1.1c0.7,0,1.2,0.5,1.2,1.1C13.2,18.5,12.6,19,12,19z"/>
		<line class="st3" x1="4.5" y1="14.5" x2="19.5" y2="14.5"/>
		<path class="st3" d="M22.5,13.2L20,2.4c-0.3-1.1-1.4-1.9-2.5-1.9h-11C5.4,0.5,4.3,1.4,4,2.4L1.5,13.2"/>
		<path class="st3" d="M3.5,18.5c-1.1,0-2-0.9-2-2v-3c0-1.1,0.9-2,2-2h17c1.1,0,2,0.9,2,2v3c0,1.1-0.9,2-2,2"/>
		<line class="st2" x1="16" y1="9.5" x2="20" y2="9.5"/>
	</g>
</g>
</svg>
