<?xml version="1.0" encoding="utf-8"?>
<!-- Generator: Adobe Illustrator 19.2.0, SVG Export Plug-In . SVG Version: 6.00 Build 0)  -->
<svg version="1.1" id="Layer_1" xmlns="http://www.w3.org/2000/svg" xmlns:xlink="http://www.w3.org/1999/xlink" x="0px" y="0px"
	 viewBox="0 0 24 24" style="enable-background:new 0 0 24 24;" xml:space="preserve">
<style type="text/css">
	.st0{display:none;}
	.st1{display:inline;}
	.st2{fill:none;stroke:#000000;stroke-linecap:round;stroke-linejoin:round;stroke-miterlimit:10;}
	.st3{fill:none;stroke:#000000;stroke-linejoin:round;stroke-miterlimit:10;}
</style>
<g id="Filled_Icons" class="st0">
	<g class="st1">
		<path d="M18.5,1h-13C4.1,1,3,2.1,3,3.5v17C3,21.9,4.1,23,5.5,23h13c1.4,0,2.5-1.1,2.5-2.5v-17C21,2.1,19.9,1,18.5,1z M11.8,20.5
			c0,0.1-0.1,0.2-0.2,0.2h-6c-0.1,0-0.2-0.1-0.2-0.2v-4c0-0.1,0.1-0.2,0.1-0.2l3.5-3.5c0.1-0.1,0.3-0.1,0.4,0c0,0,0.1,0.1,0.1,0.2
			c0,0.1,0,0.1-0.1,0.2l-3.3,3.3l5.7,2.8c0.1,0,0.1,0.1,0.1,0.2V20.5z M17.5,20c-0.3,0-0.5-0.2-0.5-0.5c0-0.3,0.2-0.5,0.5-0.5
			c0.3,0,0.5,0.2,0.5,0.5C18,19.8,17.8,20,17.5,20z M12,16c-1.4,0-2.7-0.5-3.7-1.3l1.2-1.2c0.1-0.1,0.2-0.3,0.2-0.5
			c0-0.2-0.1-0.4-0.2-0.5c-0.3-0.3-0.8-0.3-1.1,0l-1.2,1.2C6.5,12.7,6,11.4,6,10c0-3.3,2.7-6,6-6c3.3,0,6,2.7,6,6
			C18,13.3,15.3,16,12,16z"/>
		<circle cx="12" cy="10" r="1"/>
	</g>
</g>
<g id="Outline_Icons">
	<g>
		<path class="st2" d="M20.5,20.5c0,1.1-0.9,2-2,2h-13c-1.1,0-2-0.9-2-2v-17c0-1.1,0.9-2,2-2h13c1.1,0,2,0.9,2,2V20.5z"/>
		<circle class="st2" cx="12" cy="10" r="6.5"/>
		<line class="st2" x1="9" y1="13" x2="5.5" y2="16.5"/>
		<polygon class="st2" points="11.5,20.5 5.5,20.5 5.5,16.5 11.5,19.5 		"/>
		<g>
			<g>
				<g>
					<path d="M17.5,19c-0.3,0-0.5,0.2-0.5,0.5c0,0.3,0.2,0.5,0.5,0.5c0.3,0,0.5-0.2,0.5-0.5C18,19.2,17.8,19,17.5,19L17.5,19z"/>
				</g>
			</g>
		</g>
		<path class="st3" d="M12.5,10c0,0.3-0.2,0.5-0.5,0.5l0,0c-0.3,0-0.5-0.2-0.5-0.5l0,0c0-0.3,0.2-0.5,0.5-0.5l0,0
			C12.3,9.5,12.5,9.7,12.5,10L12.5,10z"/>
	</g>
</g>
</svg>
