<?xml version="1.0" encoding="utf-8"?>
<!-- Generator: Adobe Illustrator 19.2.0, SVG Export Plug-In . SVG Version: 6.00 Build 0)  -->
<svg version="1.1" id="Layer_1" xmlns="http://www.w3.org/2000/svg" xmlns:xlink="http://www.w3.org/1999/xlink" x="0px" y="0px"
	 viewBox="0 0 24 24" style="enable-background:new 0 0 24 24;" xml:space="preserve">
<style type="text/css">
	.st0{display:none;}
	.st1{display:inline;}
	.st2{fill:none;stroke:#000000;stroke-linecap:round;stroke-linejoin:round;stroke-miterlimit:10;}
</style>
<g id="Filled_Icons" class="st0">
	<g class="st1">
		<path d="M21.5,12c0.7,0,1.3,0.2,1.8,0.5l-1.8-7.2C21.2,4,19.8,3,18.5,3h-13c-1.3,0-2.7,1-3,2.3l-1.9,7.2C1.2,12.2,1.8,12,2.5,12
			H21.5z"/>
		<path d="M21.5,13h-19C1.1,13,0,14.1,0,15.5v4C0,20.9,1.1,22,2.5,22h19c1.4,0,2.5-1.1,2.5-2.5v-4C24,14.1,22.9,13,21.5,13z
			 M18.5,16c0.3,0,0.5,0.2,0.5,0.5c0,0.3-0.2,0.5-0.5,0.5c-0.3,0-0.5-0.2-0.5-0.5C18,16.2,18.2,16,18.5,16z M20.5,19h-17
			C3.2,19,3,18.8,3,18.5C3,18.2,3.2,18,3.5,18h17c0.3,0,0.5,0.2,0.5,0.5C21,18.8,20.8,19,20.5,19z M20.5,17c-0.3,0-0.5-0.2-0.5-0.5
			c0-0.3,0.2-0.5,0.5-0.5c0.3,0,0.5,0.2,0.5,0.5C21,16.8,20.8,17,20.5,17z"/>
	</g>
</g>
<g id="Outline_Icons">
	<g>
		<path class="st2" d="M23.5,19.5c0,1.1-0.9,2-2,2h-19c-1.1,0-2-0.9-2-2v-4c0-1.1,0.9-2,2-2h19c1.1,0,2,0.9,2,2V19.5z"/>
		<line class="st2" x1="3.5" y1="18.5" x2="20.5" y2="18.5"/>
		<g>
			<g>
				<g>
					<path d="M20.5,16c-0.3,0-0.5,0.2-0.5,0.5c0,0.3,0.2,0.5,0.5,0.5c0.3,0,0.5-0.2,0.5-0.5C21,16.2,20.8,16,20.5,16L20.5,16z"/>
				</g>
			</g>
		</g>
		<g>
			<g>
				<g>
					<path d="M18.5,16c-0.3,0-0.5,0.2-0.5,0.5c0,0.3,0.2,0.5,0.5,0.5c0.3,0,0.5-0.2,0.5-0.5C19,16.2,18.8,16,18.5,16L18.5,16z"/>
				</g>
			</g>
		</g>
		<path class="st2" d="M23.5,15L21,5.4c-0.3-1.1-1.4-1.9-2.5-1.9h-13C4.4,3.5,3.3,4.4,3,5.4L0.5,15"/>
	</g>
</g>
</svg>
