<?xml version="1.0" encoding="utf-8"?>
<!-- Generator: Adobe Illustrator 19.2.0, SVG Export Plug-In . SVG Version: 6.00 Build 0)  -->
<svg version="1.1" id="Layer_1" xmlns="http://www.w3.org/2000/svg" xmlns:xlink="http://www.w3.org/1999/xlink" x="0px" y="0px"
	 viewBox="0 0 24 24" style="enable-background:new 0 0 24 24;" xml:space="preserve">
<style type="text/css">
	.st0{display:none;}
	.st1{display:inline;}
	.st2{fill:none;stroke:#000000;stroke-linejoin:round;stroke-miterlimit:10;}
	.st3{fill:none;stroke:#000000;stroke-linecap:round;stroke-linejoin:round;stroke-miterlimit:10;}
</style>
<g id="Filled_Icons" class="st0">
	<path class="st1" d="M22.5,2h-21C0.7,2,0,2.7,0,3.5v13C0,17.3,0.7,18,1.5,18H10v2H7c-0.3,0-0.5,0.2-0.5,0.5C6.5,20.8,6.7,21,7,21
		h10c0.3,0,0.5-0.2,0.5-0.5c0-0.3-0.2-0.5-0.5-0.5h-3v-2h8.5c0.8,0,1.5-0.7,1.5-1.5v-13C24,2.7,23.3,2,22.5,2z M22,16H2V4h20V16z"/>
</g>
<g id="Outline_Icons">
	<g>
		<path class="st2" d="M23.5,16.5c0,0.5-0.4,1-1,1h-21c-0.5,0-1-0.5-1-1v-13c0-0.5,0.5-1,1-1h21c0.6,0,1,0.5,1,1V16.5z"/>
		<rect x="2.5" y="4.5" class="st2" width="19" height="11"/>
		<line class="st3" x1="7" y1="20.5" x2="17" y2="20.5"/>
		<line class="st2" x1="10.5" y1="17.5" x2="10.5" y2="20.5"/>
		<line class="st2" x1="13.5" y1="17.5" x2="13.5" y2="20.5"/>
	</g>
</g>
</svg>
