<?xml version="1.0" encoding="utf-8"?>
<!-- Generator: Adobe Illustrator 19.2.0, SVG Export Plug-In . SVG Version: 6.00 Build 0)  -->
<svg version="1.1" id="Outline_Icons" xmlns="http://www.w3.org/2000/svg" xmlns:xlink="http://www.w3.org/1999/xlink" x="0px"
	 y="0px" viewBox="0 0 24 24" style="enable-background:new 0 0 24 24;" xml:space="preserve">
<style type="text/css">
	.st0{fill:none;stroke:#000000;stroke-linecap:round;stroke-linejoin:round;stroke-miterlimit:10;}
	.st1{fill:none;stroke:#000000;stroke-linejoin:round;stroke-miterlimit:10;}
</style>
<g>
	<path class="st0" d="M23.5,15.5c0,0.6-0.4,1.1-1,1.2L13,18.3c-0.5,0.1-1.4,0.1-2,0l-9.5-1.7c-0.5-0.1-1-0.6-1-1.2v-12
		c0-0.5,0.4-1,1-1h21c0.6,0,1,0.5,1,1V15.5z"/>
	<rect x="2.5" y="4.5" class="st1" width="19" height="10"/>
	<g>
		<g>
			<g>
				<path d="M12,16c-0.3,0-0.5,0.2-0.5,0.5c0,0.3,0.2,0.5,0.5,0.5s0.5-0.2,0.5-0.5C12.5,16.2,12.3,16,12,16L12,16z"/>
			</g>
		</g>
	</g>
	<line class="st0" x1="10.5" y1="18.5" x2="10.5" y2="21"/>
	<line class="st0" x1="13.5" y1="18.5" x2="13.5" y2="21"/>
	<path class="st0" d="M19.4,22.5C17.7,21.6,15,21,12,21c-3,0-5.7,0.6-7.4,1.5"/>
</g>
</svg>
