<?xml version="1.0" encoding="utf-8"?>
<!-- Generator: Adobe Illustrator 19.2.0, SVG Export Plug-In . SVG Version: 6.00 Build 0)  -->
<svg version="1.1" id="Layer_1" xmlns="http://www.w3.org/2000/svg" xmlns:xlink="http://www.w3.org/1999/xlink" x="0px" y="0px"
	 viewBox="0 0 24 24" style="enable-background:new 0 0 24 24;" xml:space="preserve">
<style type="text/css">
	.st0{display:none;}
	.st1{display:inline;}
	.st2{fill:none;stroke:#000000;stroke-linecap:round;stroke-linejoin:round;stroke-miterlimit:10;}
</style>
<g id="Filled_Icons" class="st0">
	<g class="st1">
		<path d="M1.5,17h21c0.3,0,0.5-0.2,0.5-0.5v-13c0-1.1-0.9-2-2-2H3c-1.1,0-2,0.9-2,2v13C1,16.8,1.2,17,1.5,17z M3,3.5h18v11H3V3.5z"
			/>
		<path d="M23.5,18h-9c-0.3,0-0.5,0.2-0.5,0.5V19h-4v-0.5c0-0.3-0.2-0.5-0.5-0.5h-9C0.2,18,0,18.2,0,18.5v1C0,20.3,0.7,21,1.5,21h21
			c0.8,0,1.5-0.7,1.5-1.5v-1C24,18.2,23.8,18,23.5,18z"/>
	</g>
</g>
<g id="Outline_Icons">
	<g>
		<polygon class="st2" points="20.5,15.5 12,15.5 3.5,15.5 3.5,5.5 20.5,5.5 		"/>
		<path class="st2" d="M1.5,17.5V5c0-0.8,0.7-1.5,1.5-1.5h18c0.8,0,1.5,0.7,1.5,1.5v12.5"/>
		<path class="st2" d="M14.5,17.5v1h-5v-1h-9v2c0,0.6,0.4,1,1,1h21c0.6,0,1-0.4,1-1v-2H14.5z"/>
	</g>
</g>
</svg>
