<?xml version="1.0" encoding="utf-8"?>
<!-- Generator: Adobe Illustrator 19.2.0, SVG Export Plug-In . SVG Version: 6.00 Build 0)  -->
<svg version="1.1" id="Layer_1" xmlns="http://www.w3.org/2000/svg" xmlns:xlink="http://www.w3.org/1999/xlink" x="0px" y="0px"
	 viewBox="0 0 24 24" style="enable-background:new 0 0 24 24;" xml:space="preserve">
<style type="text/css">
	.st0{display:none;}
	.st1{display:inline;}
	.st2{fill:none;stroke:#000000;stroke-linejoin:round;stroke-miterlimit:10;}
</style>
<g id="Filled_Icons" class="st0">
	<path class="st1" d="M23.7,6.5l-6.4-6.4c-0.2-0.2-0.5-0.2-0.7,0L9.6,7.2C9.5,7.3,9.4,7.4,9.4,7.6c0,0.1,0.1,0.3,0.1,0.4l0.4,0.4
		c0.2,0.2,0.3,0.4,0.3,0.7c0,0.3-0.1,0.5-0.3,0.7c-0.4,0.4-1,0.4-1.4,0L8.2,9.3C8,9.1,7.6,9.1,7.5,9.3l-7.1,7.1
		c-0.1,0.1-0.1,0.2-0.1,0.4c0,0.1,0.1,0.3,0.1,0.4l6.4,6.4c0.1,0.1,0.2,0.1,0.4,0.1c0.1,0,0.3,0,0.4-0.1L23.7,7.2
		c0.1-0.1,0.1-0.2,0.1-0.4C23.9,6.7,23.8,6.6,23.7,6.5z M16.3,1.9l1.4,1.4L17,4l-1.4-1.4L16.3,1.9z M14.9,3.3l1.4,1.4l-0.7,0.7
		L14.2,4L14.9,3.3z M13.5,4.7l1.4,1.4l-0.7,0.7l-1.4-1.4L13.5,4.7z M12,6.1l1.4,1.4l-0.7,0.7l-1.4-1.4L12,6.1z M7.1,11.1l1.4,1.4
		l-0.7,0.7l-1.4-1.4L7.1,11.1z M5.7,12.5l1.4,1.4l-0.7,0.7L5,13.2L5.7,12.5z M4.3,13.9l1.4,1.4L5,16.1l-1.4-1.4L4.3,13.9z M3.6,17.5
		l-1.4-1.4l0.7-0.7l1.4,1.4L3.6,17.5z M7.1,20.3L5,18.2l3.5-3.5l2.1,2.1L7.1,20.3z M12.1,15.3l-2.1-2.1l3.5-3.5l2.1,2.1L12.1,15.3z
		 M17,10.4l-2.1-2.1l3.5-3.5l2.1,2.1L17,10.4z"/>
</g>
<g id="Outline_Icons">
	<g>
		<path class="st2" d="M23.4,6.9L7.1,23.1l-6.4-6.4l7.1-7.1L8.2,10c0.6,0.6,1.5,0.6,2.1,0c0.6-0.6,0.6-1.5,0-2.1L9.9,7.6L17,0.5
			L23.4,6.9z"/>
		<rect x="5.3" y="16" transform="matrix(0.7071 -0.7071 0.7071 0.7071 -10.067 10.638)" class="st2" width="5" height="3"/>
		<rect x="10.3" y="11" transform="matrix(0.7071 -0.7072 0.7072 0.7071 -5.1173 12.6898)" class="st2" width="5" height="3"/>
		<rect x="15.2" y="6.1" transform="matrix(0.7071 -0.7071 0.7071 0.7071 -0.1672 14.7386)" class="st2" width="5" height="3"/>
		<line class="st2" x1="2.2" y1="15.4" x2="3.9" y2="17.1"/>
		<line class="st2" x1="3.6" y1="14" x2="5.3" y2="15.7"/>
		<line class="st2" x1="5" y1="12.5" x2="6.7" y2="14.3"/>
		<line class="st2" x1="6.4" y1="11.1" x2="8.2" y2="12.9"/>
		<line class="st2" x1="11.3" y1="6.2" x2="13.1" y2="7.9"/>
		<line class="st2" x1="12.8" y1="4.7" x2="14.5" y2="6.5"/>
		<line class="st2" x1="14.2" y1="3.3" x2="15.9" y2="5.1"/>
		<line class="st2" x1="15.6" y1="1.9" x2="17.4" y2="3.7"/>
	</g>
</g>
</svg>
