<?xml version="1.0" encoding="utf-8"?>
<!-- Generator: Adobe Illustrator 19.2.0, SVG Export Plug-In . SVG Version: 6.00 Build 0)  -->
<svg version="1.1" id="Layer_1" xmlns="http://www.w3.org/2000/svg" xmlns:xlink="http://www.w3.org/1999/xlink" x="0px" y="0px"
	 viewBox="0 0 24 24" style="enable-background:new 0 0 24 24;" xml:space="preserve">
<style type="text/css">
	.st0{display:none;}
	.st1{display:inline;}
	.st2{fill:none;stroke:#000000;stroke-linecap:round;stroke-linejoin:round;stroke-miterlimit:10;}
</style>
<g id="Filled_Icon" class="st0">
	<g class="st1">
		<path d="M6,8.4c0,0.1,0,0.3,0.1,0.4C6.2,8.9,6.4,9,6.5,9h9.9c0.1,0,0.3-0.1,0.4-0.2C16.9,8.7,17,8.6,17,8.4
			c-0.2-1.6-1.1-3.1-2.4-4l0.5-0.6C15.6,3.2,16,2.2,16,1.5l0-1C16,0.2,15.8,0,15.5,0h0C15.2,0,15,0.2,15,0.5l0,1
			c0,0.4-0.3,1.2-0.7,1.8L13.7,4c-0.7-0.3-1.5-0.5-2.2-0.5c-0.8,0-1.6,0.2-2.2,0.5L8.7,3.3C8.3,2.7,8,1.9,8,1.5l0-1
			C8,0.2,7.8,0,7.5,0h0C7.2,0,7,0.2,7,0.5l0,1c0,0.7,0.4,1.7,0.9,2.4l0.5,0.6C7.1,5.4,6.2,6.8,6,8.4z"/>
		<path d="M17.8,14c0.6,0,1.4,0.4,1.9,0.9l1,1C20.7,16,20.9,16,21,16c0.1,0,0.3,0,0.4-0.1c0.2-0.2,0.2-0.5,0-0.7l-1-1
			c-0.6-0.6-1.8-1.1-2.6-1.1H17v-2h0.8c0.6,0,1.4,0.4,1.9,0.9l1,1C20.7,13,20.9,13,21,13c0.1,0,0.3,0,0.4-0.1c0.2-0.2,0.2-0.5,0-0.7
			l-1-1c-0.6-0.6-1.8-1.1-2.6-1.1h-1.2c0,0,0,0,0,0h-10c0,0,0,0,0,0H5.2c-0.8,0-2,0.5-2.6,1.1l-1,1c-0.2,0.2-0.2,0.5,0,0.7
			C1.7,13,1.9,13,2,13c0.1,0,0.3,0,0.4-0.1l1-1C3.8,11.4,4.7,11,5.2,11H6v2H5.2c-0.8,0-2,0.5-2.6,1.1l-1,1c-0.2,0.2-0.2,0.5,0,0.7
			C1.7,16,1.9,16,2,16c0.1,0,0.3,0,0.4-0.1l1-1C3.8,14.4,4.7,14,5.2,14H6v2H5.2c-0.8,0-2,0.5-2.6,1.1l-1,1c-0.2,0.2-0.2,0.5,0,0.7
			C1.7,19,1.9,19,2,19c0.1,0,0.3,0,0.4-0.1l1-1C3.8,17.4,4.7,17,5.2,17H6c0.5,2.9,4.9,6.7,5.1,6.9c0.1,0.1,0.2,0.1,0.3,0.1
			c0.1,0,0.2,0,0.3-0.1c0.2-0.2,4.6-4,5.1-6.9h0.8c0.6,0,1.4,0.4,1.9,0.9l1,1C20.7,19,20.9,19,21,19c0.1,0,0.3,0,0.4-0.1
			c0.2-0.2,0.2-0.5,0-0.7l-1-1c-0.6-0.6-1.8-1.1-2.6-1.1H17v-2H17.8z"/>
	</g>
</g>
<g id="Outline_Icons">
	<g>
		<path class="st2" d="M16.5,8.5C16.2,6,14.1,4,11.5,4c-2.6,0-4.7,2-5,4.5H16.5z"/>
		<path class="st2" d="M7.5,0.5c0,0,0,0.4,0,1C7.5,2,7.9,3,8.3,3.6c0.4,0.6,0.8,1.1,0.8,1.1"/>
		<path class="st2" d="M15.5,0.5c0,0,0,0.4,0,1c0,0.5-0.4,1.5-0.8,2.1c-0.4,0.6-0.8,1.1-0.8,1.1"/>
		<path class="st2" d="M6.5,10.5v6c0,2.8,5,7,5,7s5-4.2,5-7v-6H6.5z"/>
		<path class="st2" d="M6.5,10.5c0,0-0.6,0-1.2,0S3.6,11,3,11.5c-0.5,0.5-1,1-1,1"/>
		<path class="st2" d="M6.5,13.5c0,0-0.6,0-1.2,0S3.6,14,3,14.5c-0.5,0.5-1,1-1,1"/>
		<path class="st2" d="M6.5,16.5c0,0-0.6,0-1.2,0S3.6,17,3,17.5c-0.5,0.5-1,1-1,1"/>
		<path class="st2" d="M16.5,10.5c0,0,0.6,0,1.2,0c0.7,0,1.7,0.5,2.2,1c0.6,0.5,1,1,1,1"/>
		<path class="st2" d="M16.5,13.5c0,0,0.6,0,1.2,0c0.7,0,1.7,0.5,2.2,1c0.6,0.5,1,1,1,1"/>
		<path class="st2" d="M16.5,16.5c0,0,0.6,0,1.2,0c0.7,0,1.7,0.5,2.2,1c0.6,0.5,1,1,1,1"/>
	</g>
</g>
</svg>
