<?xml version="1.0" encoding="utf-8"?>
<!-- Generator: Adobe Illustrator 19.2.0, SVG Export Plug-In . SVG Version: 6.00 Build 0)  -->
<svg version="1.1" id="Layer_1" xmlns="http://www.w3.org/2000/svg" xmlns:xlink="http://www.w3.org/1999/xlink" x="0px" y="0px"
	 viewBox="0 0 24 24" style="enable-background:new 0 0 24 24;" xml:space="preserve">
<style type="text/css">
	.st0{display:none;}
	.st1{display:inline;}
	.st2{fill:none;stroke:#000000;stroke-linecap:round;stroke-linejoin:round;stroke-miterlimit:10;}
</style>
<g id="Filled_Icons" class="st0">
	<path class="st1" d="M22,1H2C0.9,1,0,1.9,0,3v15c0,1.1,0.9,2,2,2h6.8l-0.7,2H5c-0.3,0-0.5,0.2-0.5,0.5C4.5,22.8,4.7,23,5,23h3.5h7
		h0H19c0.3,0,0.5-0.2,0.5-0.5c0-0.3-0.2-0.5-0.5-0.5h-3.1l-0.7-2H22c1.1,0,2-0.9,2-2V3C24,1.9,23.1,1,22,1z M12,18.5
		c-0.6,0-1-0.4-1-1c0-0.6,0.4-1,1-1c0.6,0,1,0.4,1,1C13,18.1,12.6,18.5,12,18.5z M22,16H2V3h20V16z"/>
</g>
<g id="Outline_Icons">
	<g>
		<path class="st2" d="M23.5,18c0,0.8-0.7,1.5-1.5,1.5H2c-0.8,0-1.5-0.7-1.5-1.5V3c0-0.8,0.7-1.5,1.5-1.5h20c0.8,0,1.5,0.7,1.5,1.5
			V18z"/>
		<line class="st2" x1="5" y1="22.5" x2="19" y2="22.5"/>
		<polygon class="st2" points="15.5,22.5 8.5,22.5 9.5,19.5 14.5,19.5 		"/>
		<rect x="2.5" y="3.5" class="st2" width="19" height="12"/>
		<circle class="st2" cx="12" cy="17.5" r="0.5"/>
	</g>
</g>
</svg>
