<?xml version="1.0" encoding="utf-8"?>
<!-- Generator: Adobe Illustrator 19.2.0, SVG Export Plug-In . SVG Version: 6.00 Build 0)  -->
<svg version="1.1" id="Layer_1" xmlns="http://www.w3.org/2000/svg" xmlns:xlink="http://www.w3.org/1999/xlink" x="0px" y="0px"
	 viewBox="0 0 24 24" enable-background="new 0 0 24 24" xml:space="preserve">
<g id="Filled_Icons" display="none">
	<g display="inline">
		<path d="M15,11.006v2v1h9v-3H15z M19.5,13.006c-0.275,0-0.5-0.222-0.5-0.5c0-0.275,0.225-0.5,0.5-0.5c0.275,0,0.5,0.225,0.5,0.5
			C20,12.784,19.775,13.006,19.5,13.006z"/>
		<path d="M15,10.006h9v-1.5c0-0.277-0.225-0.5-0.5-0.5H16h-0.5H15V10.006z"/>
		<path d="M15,17.006v6.5c0,0.275,0.225,0.5,0.5,0.5h8c0.275,0,0.5-0.225,0.5-0.5v-6.5H15z M19.5,19.006c-0.275,0-0.5-0.222-0.5-0.5
			c0-0.275,0.225-0.5,0.5-0.5c0.275,0,0.5,0.225,0.5,0.5C20,18.784,19.775,19.006,19.5,19.006z"/>
		<polygon points="24,15.006 15,15.006 15,15.506 15,16.006 24,16.006 		"/>
		<path d="M14,8.006H0.5c-0.276,0-0.5,0.223-0.5,0.5v15c0,0.275,0.224,0.5,0.5,0.5c0.276,0,0.5-0.225,0.5-0.5v-10.5h13V8.006z"/>
	</g>
</g>
<g id="Outline_Icons">
	<g>
		<rect x="0.5" y="8.5" fill="none" stroke="#000000" stroke-linejoin="round" stroke-miterlimit="10" width="15" height="4"/>
		<polyline fill="none" stroke="#000000" stroke-linecap="round" stroke-linejoin="round" stroke-miterlimit="10" points="0.5,23.5 
			0.5,8.5 16,8.5 		"/>
		<rect x="15.5" y="8.5" fill="none" stroke="#000000" stroke-linejoin="round" stroke-miterlimit="10" width="8" height="6"/>
		<rect x="15.5" y="14.5" fill="none" stroke="#000000" stroke-linejoin="round" stroke-miterlimit="10" width="8" height="9"/>
		<g>
			<path d="M19.5,12c-0.275,0-0.5,0.225-0.5,0.5c0,0.277,0.225,0.5,0.5,0.5c0.275,0,0.5-0.223,0.5-0.5C20,12.225,19.775,12,19.5,12
				L19.5,12z"/>
		</g>
		<g>
			<path d="M19.5,18c-0.275,0-0.5,0.225-0.5,0.5c0,0.277,0.225,0.5,0.5,0.5c0.275,0,0.5-0.223,0.5-0.5C20,18.225,19.775,18,19.5,18
				L19.5,18z"/>
		</g>
		<line fill="none" stroke="#000000" stroke-linejoin="round" stroke-miterlimit="10" x1="23.5" y1="10.5" x2="15.5" y2="10.5"/>
		<line fill="none" stroke="#000000" stroke-linejoin="round" stroke-miterlimit="10" x1="23.5" y1="16.5" x2="15.5" y2="16.5"/>
	</g>
</g>
</svg>
