<?xml version="1.0" encoding="utf-8"?>
<!-- Generator: Adobe Illustrator 19.2.0, SVG Export Plug-In . SVG Version: 6.00 Build 0)  -->
<svg version="1.1" id="Layer_1" xmlns="http://www.w3.org/2000/svg" xmlns:xlink="http://www.w3.org/1999/xlink" x="0px" y="0px"
	 viewBox="0 0 24 24" style="enable-background:new 0 0 24 24;" xml:space="preserve">
<style type="text/css">
	.st0{display:none;}
	.st1{display:inline;}
	.st2{fill:none;stroke:#000000;stroke-linejoin:round;stroke-miterlimit:10;}
	.st3{fill:none;stroke:#000000;stroke-linecap:round;stroke-linejoin:round;stroke-miterlimit:10;}
</style>
<g id="Filled_Icons" class="st0">
	<g class="st1">
		<path d="M12.5,7h-11C0.7,7,0,7.7,0,8.5v8C0,17.3,0.7,18,1.5,18H5v2H4c-0.3,0-0.5,0.2-0.5,0.5C3.5,20.8,3.7,21,4,21h6
			c0.3,0,0.5-0.2,0.5-0.5c0-0.3-0.2-0.5-0.5-0.5H9v-2h3.5c0.8,0,1.5-0.7,1.5-1.5v-8C14,7.7,13.3,7,12.5,7z M12,16H2V9h10V16z"/>
		<g>
			<circle cx="19.5" cy="13" r="0.5"/>
			<rect x="18" y="6" width="3" height="1"/>
			<path d="M22.3,3h-5.6L15,5.3V21h9V5.3L22.3,3z M22,19h-5v-1h5V19z M22,17h-5v-1h5V17z M18,13c0-0.8,0.7-1.5,1.5-1.5
				c0.8,0,1.5,0.7,1.5,1.5c0,0.8-0.7,1.5-1.5,1.5C18.7,14.5,18,13.8,18,13z M22,8h-5V5h5V8z"/>
		</g>
	</g>
</g>
<g id="Outline_Icons">
	<g>
		<path class="st2" d="M13.5,16.5c0,0.5-0.4,1-1,1h-11c-0.5,0-1-0.5-1-1v-8c0-0.5,0.5-1,1-1h11c0.6,0,1,0.5,1,1V16.5z"/>
		<rect x="2.5" y="9.5" class="st2" width="9" height="6"/>
		<line class="st3" x1="4" y1="20.5" x2="10" y2="20.5"/>
		<line class="st2" x1="5.5" y1="17.5" x2="5.5" y2="20.5"/>
		<line class="st2" x1="8.5" y1="17.5" x2="8.5" y2="20.5"/>
		<polygon class="st2" points="23.5,5.5 22,3.5 16.9,3.5 15.5,5.5 15.5,20.5 23.5,20.5 		"/>
		<rect x="17.5" y="5.5" class="st2" width="4" height="2"/>
		<circle class="st2" cx="19.5" cy="13" r="1"/>
		<line class="st2" x1="17" y1="16.5" x2="22" y2="16.5"/>
		<line class="st2" x1="17" y1="18.5" x2="22" y2="18.5"/>
	</g>
</g>
</svg>
