<?xml version="1.0" encoding="utf-8"?>
<!-- Generator: Adobe Illustrator 19.2.0, SVG Export Plug-In . SVG Version: 6.00 Build 0)  -->
<svg version="1.1" id="Layer_1" xmlns="http://www.w3.org/2000/svg" xmlns:xlink="http://www.w3.org/1999/xlink" x="0px" y="0px"
	 viewBox="0 0 24 24" style="enable-background:new 0 0 24 24;" xml:space="preserve">
<style type="text/css">
	.st0{display:none;}
	.st1{display:inline;}
	.st2{fill:none;stroke:#000000;stroke-linecap:round;stroke-linejoin:round;stroke-miterlimit:10;}
</style>
<g id="Filled_Icons" class="st0">
	<g class="st1">
		<path d="M18.9,11.6c-0.1-0.2-0.4-0.2-0.6-0.1l-6.3,3l-6.3-3c-0.2-0.1-0.4,0-0.6,0.1C5,11.8,5,12,5.1,12.2l6.5,11.6
			c0.1,0.2,0.3,0.3,0.4,0.3c0.2,0,0.3-0.1,0.4-0.3l6.5-11.6C19,12,19,11.8,18.9,11.6z"/>
		<path d="M12,0C8.7,0,6,2.7,6,6c0,3.3,2.7,6,6,6c3.3,0,6-2.7,6-6C18,2.7,15.3,0,12,0z M12,9c-0.9,0-1.7-0.8-1.7-1.7
			c0-0.3,0.2-0.5,0.5-0.5c0.3,0,0.5,0.2,0.5,0.5C11.3,7.7,11.6,8,12,8c0.4,0,0.7-0.4,0.7-0.8c0-0.6-0.4-0.7-0.9-0.9
			c-1.3-0.3-1.6-1.2-1.6-1.8c0-1,0.8-1.8,1.7-1.8c0.9,0,1.7,0.8,1.7,1.7c0,0.3-0.2,0.5-0.5,0.5c-0.3,0-0.5-0.2-0.5-0.5
			c0-0.4-0.4-0.8-0.7-0.8c-0.4,0-0.7,0.4-0.7,0.8c0,0.6,0.4,0.7,0.9,0.9c1.3,0.3,1.6,1.2,1.6,1.8C13.7,8.2,13,9,12,9z"/>
	</g>
</g>
<g id="Outline_Icons">
	<g>
		<g>
			<polygon class="st2" points="18.5,11.9 12,23.5 5.5,11.9 12,15 			"/>
			<circle class="st2" cx="12" cy="6" r="5.5"/>
		</g>
		<path class="st2" d="M10.8,7.3c0,0.7,0.6,1.2,1.2,1.2c0.7,0,1.2-0.6,1.2-1.3c0-1.1-1-1.3-1.2-1.3c-0.2-0.1-1.2-0.2-1.2-1.3
			c0-0.7,0.6-1.3,1.2-1.3c0.7,0,1.2,0.5,1.2,1.2"/>
	</g>
</g>
</svg>
