<?xml version="1.0" encoding="utf-8"?>
<!-- Generator: Adobe Illustrator 19.2.0, SVG Export Plug-In . SVG Version: 6.00 Build 0)  -->
<svg version="1.1" id="Layer_1" xmlns="http://www.w3.org/2000/svg" xmlns:xlink="http://www.w3.org/1999/xlink" x="0px" y="0px"
	 viewBox="0 0 24 24" enable-background="new 0 0 24 24" xml:space="preserve">
<g id="Filled_Icons" display="none">
	<path display="inline" d="M23.127,0.657c-0.567-0.567-1.555-0.567-2.121,0l-0.578,0.578c-0.377,0.377-0.931,0.527-1.451,0.388
		c-1.535-0.41-3.211,0.033-4.334,1.155L1.561,15.859l-0.707-0.707c-0.195-0.196-0.512-0.196-0.707,0
		c-0.195,0.195-0.195,0.512,0,0.707l7.778,7.779c0.098,0.096,0.226,0.145,0.354,0.145c0.128,0,0.256-0.05,0.354-0.145
		c0.195-0.197,0.195-0.513,0-0.709l-0.708-0.707l13.081-13.08c1.127-1.128,1.569-2.788,1.155-4.334
		c-0.14-0.518,0.01-1.074,0.388-1.452l0.578-0.579c0.283-0.283,0.439-0.66,0.439-1.062C23.566,1.317,23.41,0.939,23.127,0.657z
		 M18.749,4.725c-0.992-0.062-1.978,0.302-2.683,1.008l-2.43,2.43c-0.099,0.097-0.226,0.146-0.354,0.146
		c-0.128,0-0.255-0.049-0.352-0.146c-0.195-0.196-0.195-0.512,0-0.708l2.43-2.43c0.908-0.909,2.162-1.38,3.457-1.299
		c0.274,0.019,0.482,0.257,0.466,0.532C19.264,4.534,19.046,4.738,18.749,4.725z"/>
</g>
<g id="Outline_Icons">
	<g>
		
			<line fill="none" stroke="#000000" stroke-linecap="round" stroke-linejoin="round" stroke-miterlimit="10" x1="0.5" y1="15.5" x2="8.278" y2="23.277"/>
		<path fill="none" stroke="#000000" stroke-linecap="round" stroke-linejoin="round" stroke-miterlimit="10" d="M21.678,4.932
			c-0.184-0.69,0.014-1.43,0.518-1.935l0.578-0.578c0.392-0.391,0.392-1.024,0-1.415c-0.391-0.391-1.022-0.391-1.414,0l-0.577,0.579
			c-0.507,0.506-1.243,0.703-1.934,0.517c-1.33-0.356-2.808-0.019-3.852,1.026L1.561,16.561l5.656,5.658L20.652,8.783
			C21.697,7.737,22.034,6.262,21.678,4.932z"/>
		<path fill="none" stroke="#000000" stroke-linecap="round" stroke-linejoin="round" stroke-miterlimit="10" d="M18.782,4.22
			c-1.102-0.072-2.227,0.31-3.069,1.153l-2.43,2.43"/>
	</g>
</g>
</svg>
