<?xml version="1.0" encoding="utf-8"?>
<!-- Generator: Adobe Illustrator 19.2.0, SVG Export Plug-In . SVG Version: 6.00 Build 0)  -->
<svg version="1.1" id="Layer_1" xmlns="http://www.w3.org/2000/svg" xmlns:xlink="http://www.w3.org/1999/xlink" x="0px" y="0px"
	 viewBox="0 0 24 24" style="enable-background:new 0 0 24 24;" xml:space="preserve">
<style type="text/css">
	.st0{display:none;}
	.st1{display:inline;}
	.st2{fill:none;stroke:#000000;stroke-linejoin:round;stroke-miterlimit:10;}
</style>
<g id="Filled_Icon" class="st0">
	<path class="st1" d="M19.6,19.4L12,0.3c-0.2-0.4-0.8-0.4-0.9,0L3.5,19.2C3.2,19.6,3,20,3,20.5c0,2.1,3.2,3.5,8,3.5
		c4.4,0,9-1.2,9-3.5C20,20.1,19.9,19.8,19.6,19.4z M11.5,1.8l6.6,16.4C16.3,17.4,13.6,17,11,17c-2.5,0-4.6,0.4-6,1.1L11.5,1.8z
		 M11,23c-4.5,0-6.9-1.2-7-2.4l0.3-0.9C5.2,18.8,7.4,18,11,18c4.1,0,6.9,1,7.7,1.9l0.2,0.6C18.9,21.6,15.9,23,11,23z"/>
</g>
<g id="Outline_Icons">
	<g>
		<path class="st2" d="M19.5,20.5c0,1.7-3.8,3-8.5,3c-4.7,0-7.5-1.3-7.5-3c0-1.7,2.8-3,7.5-3C15.7,17.5,19.5,18.8,19.5,20.5z"/>
		<polyline class="st2" points="3.5,20.5 11.5,0.5 19.5,20.5 		"/>
	</g>
</g>
</svg>
