<?xml version="1.0" encoding="utf-8"?>
<!-- Generator: Adobe Illustrator 19.2.0, SVG Export Plug-In . SVG Version: 6.00 Build 0)  -->
<svg version="1.1" id="Layer_1" xmlns="http://www.w3.org/2000/svg" xmlns:xlink="http://www.w3.org/1999/xlink" x="0px" y="0px"
	 viewBox="0 0 24 24" enable-background="new 0 0 24 24" xml:space="preserve">
<g id="Filled_Icons" display="none">
	<g display="inline">
		<path d="M7.499,18.006H0.5c-0.276,0-0.5,0.225-0.5,0.5v5c0,0.275,0.224,0.5,0.5,0.5h6.999c0.277,0,0.5-0.225,0.5-0.5v-5
			C7.999,18.229,7.776,18.006,7.499,18.006z"/>
		<path d="M23.5,18.006h-5c-0.275,0-0.5,0.225-0.5,0.5v5c0,0.275,0.225,0.5,0.5,0.5h5c0.275,0,0.5-0.225,0.5-0.5v-5
			C24,18.229,23.775,18.006,23.5,18.006z"/>
		<path d="M0.5,17.006h4c0.276,0,0.5-0.225,0.5-0.5v-5c0-0.276-0.224-0.5-0.5-0.5h-4c-0.276,0-0.5,0.224-0.5,0.5v5
			C0,16.781,0.224,17.006,0.5,17.006z"/>
		<path d="M0.5,10.006h7c0.276,0,0.5-0.224,0.5-0.5v-5c0-0.276-0.224-0.5-0.5-0.5h-7c-0.276,0-0.5,0.224-0.5,0.5v5
			C0,9.782,0.224,10.006,0.5,10.006z"/>
		<path d="M11.074,20.775c-0.176,0.066-0.36,0.101-0.543,0.101c-0.391,0-0.774-0.151-1.061-0.438
			c-0.251-0.252-0.385-0.578-0.418-0.918c-0.02-0.002-0.03-0.014-0.052-0.014v4c0,0.275,0.224,0.5,0.5,0.5h7
			c0.275,0,0.5-0.225,0.5-0.5v-5c0-0.012-0.006-0.021-0.007-0.033L11.074,20.775z"/>
		<path d="M6.5,11.006c-0.276,0-0.5,0.224-0.5,0.5v5c0,0.275,0.224,0.5,0.5,0.5h3.344l2.333-6H6.5z"/>
		<path d="M9.5,10.006h3.064l0.043-0.108c0.363-1.212,1.455-2.02,2.746-2.02c0.287,0,0.57,0.056,0.848,0.135l-0.316-0.364
			c-0.002-0.002-0.005-0.004-0.007-0.006c-0.522-0.593-0.794-1.385-0.743-2.174c0.032-0.523,0.219-1.026,0.506-1.463H9.5
			c-0.276,0-0.5,0.224-0.5,0.5v5C9,9.782,9.224,10.006,9.5,10.006z"/>
		<path d="M10.531,19.876c0.153,0,8.981-3.46,9.123-3.517c0.656-0.164,1.134-0.627,1.312-1.271c0.198-0.718-0.024-1.511-0.579-2.067
			l-0.434-0.433l-2.491,2.197c-0.284,0.251-0.64,0.375-0.991,0.375c-0.416,0-0.828-0.173-1.125-0.509
			c-0.549-0.621-0.49-1.568,0.133-2.116l2.35-2.073l-0.941-0.941c-0.41-0.41-0.969-0.645-1.531-0.645
			c-0.875,0-1.584,0.538-1.787,1.316l-3.5,9c-0.072,0.186-0.028,0.395,0.112,0.535C10.273,19.825,10.401,19.876,10.531,19.876z"/>
		<path d="M16.639,6.989L16.639,6.989l2.877,3.317l-3.377,2.98c-0.207,0.183-0.228,0.499-0.045,0.706
			c0.1,0.111,0.237,0.169,0.375,0.169c0.117,0,0.235-0.041,0.33-0.125l3.75-3.309c0.207-0.182,0.228-0.495,0.047-0.703L18.51,7.621
			c0.348-0.068,0.676-0.227,0.947-0.468l3.853-3.5c0.401-0.354,0.642-0.843,0.674-1.375c0.035-0.524-0.146-1.053-0.496-1.448
			c-0.7-0.794-2.019-0.885-2.826-0.172l-3.855,3.501c-0.396,0.349-0.64,0.85-0.672,1.372c-0.033,0.526,0.147,1.054,0.495,1.449
			C16.632,6.984,16.635,6.986,16.639,6.989z"/>
	</g>
</g>
<g id="Outline_Icons">
	<g>
		<polyline fill="none" stroke="#000000" stroke-linejoin="round" stroke-miterlimit="10" points="10,13.5 0.5,13.5 0.5,19 		"/>
		<polyline fill="none" stroke="#000000" stroke-linejoin="round" stroke-miterlimit="10" points="0.5,14 0.5,8.5 13,8.5 		"/>
		<rect x="0.5" y="3.5" fill="none" stroke="#000000" stroke-linejoin="round" stroke-miterlimit="10" width="11" height="5"/>
		<line fill="none" stroke="#000000" stroke-linejoin="round" stroke-miterlimit="10" x1="4.5" y1="3.5" x2="4.5" y2="8.5"/>
		<line fill="none" stroke="#000000" stroke-linejoin="round" stroke-miterlimit="10" x1="8.5" y1="8.5" x2="8.5" y2="13.5"/>
		<line fill="none" stroke="#000000" stroke-linejoin="round" stroke-miterlimit="10" x1="4.5" y1="13.5" x2="4.5" y2="18.5"/>
		<line fill="none" stroke="#000000" stroke-linejoin="round" stroke-miterlimit="10" x1="16.5" y1="19" x2="16.5" y2="23.5"/>
		<g>
			<path fill="none" stroke="#000000" stroke-linecap="round" stroke-linejoin="round" stroke-miterlimit="10" d="M17.004,6.645
				c0.549,0.622,1.496,0.682,2.117,0.133l3.859-3.506c0.299-0.263,0.48-0.633,0.504-1.031c0.025-0.396-0.108-0.787-0.371-1.085
				c-0.549-0.621-1.495-0.681-2.116-0.133l-3.86,3.505c-0.298,0.264-0.479,0.635-0.504,1.031S16.741,6.347,17.004,6.645z"/>
			<polyline fill="none" stroke="#000000" stroke-linecap="round" stroke-linejoin="round" stroke-miterlimit="10" points="
				17.016,6.656 20.219,10.348 16.469,13.656 			"/>
			<path fill="none" stroke="#000000" stroke-linecap="round" stroke-linejoin="round" stroke-miterlimit="10" d="M14.031,10.37
				c0.295-1.115,1.683-1.316,2.5-0.5l3.5,3.5c0.824,0.825,0.623,2.217-0.5,2.5l-9.001,3.5L14.031,10.37z"/>
		</g>
		<polyline fill="none" stroke="#000000" stroke-linejoin="round" stroke-miterlimit="10" points="18.516,18.5 23.5,18.5 23.5,23.5 
			0.5,23.5 0.5,18.5 8,18.5 8.5,18.5 8.5,23.5 		"/>
	</g>
</g>
</svg>
