<?xml version="1.0" encoding="utf-8"?>
<!-- Generator: Adobe Illustrator 19.2.0, SVG Export Plug-In . SVG Version: 6.00 Build 0)  -->
<svg version="1.1" id="Layer_1" xmlns="http://www.w3.org/2000/svg" xmlns:xlink="http://www.w3.org/1999/xlink" x="0px" y="0px"
	 viewBox="0 0 24 24" enable-background="new 0 0 24 24" xml:space="preserve">
<g id="Filled_Icons" display="none">
	<g display="inline">
		<g>
			<path d="M3.5,12.506c0.276,0,0.5-0.224,0.5-0.5v-4h8.092C12.036,7.849,12,7.682,12,7.506v-3.5H0.5c-0.276,0-0.5,0.224-0.5,0.5v3
				c0,0.276,0.224,0.5,0.5,0.5H3v3.559c-1.036,0.248-1.813,1.248-1.813,2.441c0,1.332,1.256,2.5,2.688,2.5
				c1.354,0,2.375-1.074,2.375-2.5c0-0.275-0.224-0.5-0.5-0.5c-0.276,0-0.5,0.225-0.5,0.5c0,0.869-0.578,1.5-1.375,1.5
				c-0.884,0-1.688-0.715-1.688-1.5C2.188,13.18,2.776,12.506,3.5,12.506z"/>
			<path d="M23.5,4.006H22v3.5c0,0.176-0.036,0.343-0.092,0.5H23.5c0.275,0,0.5-0.224,0.5-0.5v-3C24,4.229,23.775,4.006,23.5,4.006z
				"/>
			<path d="M15,23.506c0,0.275,0.225,0.5,0.5,0.5h4c0.275,0,0.5-0.225,0.5-0.5v-14.5h-5V23.506z"/>
		</g>
		<path d="M12.5,18.006h-12c-0.276,0-0.5,0.225-0.5,0.5v5c0,0.275,0.224,0.5,0.5,0.5h12c0.275,0,0.5-0.225,0.5-0.5v-5
			C13,18.229,12.775,18.006,12.5,18.006z"/>
		<path d="M20.801,0.106c-0.125-0.096-0.289-0.126-0.439-0.081l-7,2C13.146,2.087,13,2.282,13,2.506v5c0,0.276,0.225,0.5,0.5,0.5h7
			c0.275,0,0.5-0.224,0.5-0.5v-7C21,0.349,20.926,0.201,20.801,0.106z M17.521,6.006c-0.008,0-0.014-0.001-0.021,0h-2
			c-0.275,0-0.5-0.224-0.5-0.5v-1.5c0-0.229,0.156-0.43,0.379-0.485l2-0.5c0.146-0.037,0.307-0.004,0.43,0.091
			C17.93,3.206,18,3.352,18,3.506v1.859c0.014,0.046,0.021,0.092,0.021,0.141C18.021,5.782,17.796,6.006,17.521,6.006z"/>
	</g>
</g>
<g id="Outline_Icons">
	<g>
		<path fill="none" stroke="#000000" stroke-linecap="round" stroke-linejoin="round" stroke-miterlimit="10" d="M5.75,14
			c0,1.104-0.771,2-1.875,2s-2.188-0.896-2.188-2c0-1.103,0.813-2,1.813-2V7.5"/>
		<rect x="15.5" y="7.5" fill="none" stroke="#000000" stroke-linejoin="round" stroke-miterlimit="10" width="4" height="16"/>
		<rect x="0.5" y="4.5" fill="none" stroke="#000000" stroke-linejoin="round" stroke-miterlimit="10" width="13" height="3"/>
		<polygon fill="none" stroke="#000000" stroke-linejoin="round" stroke-miterlimit="10" points="13.5,2.5 20.5,0.5 20.5,7.5 
			13.5,7.5 		"/>
		<rect x="20.5" y="4.5" fill="none" stroke="#000000" stroke-linejoin="round" stroke-miterlimit="10" width="3" height="3"/>
		
			<rect x="0.5" y="18.5" fill="none" stroke="#000000" stroke-linecap="round" stroke-linejoin="round" stroke-miterlimit="10" width="12" height="5"/>
		<polyline fill="none" stroke="#000000" stroke-linecap="round" stroke-linejoin="round" stroke-miterlimit="10" points="17.5,3.5 
			15.5,4 15.5,5.5 		"/>
	</g>
</g>
</svg>
