<?xml version="1.0" encoding="utf-8"?>
<!-- Generator: Adobe Illustrator 19.2.0, SVG Export Plug-In . SVG Version: 6.00 Build 0)  -->
<svg version="1.1" id="Layer_1" xmlns="http://www.w3.org/2000/svg" xmlns:xlink="http://www.w3.org/1999/xlink" x="0px" y="0px"
	 viewBox="0 0 24 24" enable-background="new 0 0 24 24" xml:space="preserve">
<g id="Filled_Icons" display="none">
	<g display="inline">
		<path d="M5.197,22.762c0.303-0.529,1.788-3.048,3.909-5.515c-1.004-0.812-2.201-1.241-3.536-1.241
			c-3.66,0-5.479,7.077-5.556,7.378c-0.037,0.149-0.004,0.308,0.091,0.431c0.094,0.121,0.24,0.191,0.394,0.191h4.597
			C4.952,23.6,4.979,23.147,5.197,22.762z"/>
		<path d="M8.048,11.851c-0.195,0.195-0.195,0.512,0,0.707l2.824,2.823c1.7-1.618,3.644-2.944,5.655-3.281l-0.291-1.152
			c-0.021-0.088-0.066-0.168-0.131-0.23l-3.108-3.109c-0.189-0.188-0.52-0.188-0.707,0l-1.768,1.769L4.158,3.012l2.121-2.121
			c0.195-0.195,0.195-0.512,0-0.707c-0.195-0.195-0.512-0.195-0.707,0L0.623,5.133c-0.195,0.195-0.195,0.512,0,0.707
			c0.098,0.098,0.226,0.146,0.354,0.146c0.128,0,0.255-0.048,0.353-0.146l2.121-2.121l6.364,6.364L8.048,11.851z"/>
		<path d="M17.5,13.006c-5.517,0-11.195,9.833-11.435,10.252c-0.088,0.155-0.088,0.346,0.002,0.499
			c0.09,0.154,0.254,0.249,0.433,0.249h17c0.137,0,0.268-0.056,0.359-0.154c0.096-0.098,0.146-0.229,0.14-0.365
			C23.98,23.059,23.494,13.006,17.5,13.006z"/>
	</g>
</g>
<g id="Outline_Icons">
	<g>
		<path fill="none" stroke="#000000" stroke-linejoin="round" stroke-miterlimit="10" d="M6.5,23.5h17c0,0-0.417-10-6-10
			C12.211,13.5,6.5,23.5,6.5,23.5z"/>
		<path fill="none" stroke="#000000" stroke-linejoin="round" stroke-miterlimit="10" d="M9.881,18.777
			C8.624,17.045,7.026,16.5,5.57,16.5c-3.313,0-5.07,7-5.07,7H7"/>
		
			<line fill="none" stroke="#000000" stroke-linejoin="round" stroke-miterlimit="10" x1="3.451" y1="3.006" x2="10.522" y2="10.077"/>
		<polyline fill="none" stroke="#000000" stroke-linejoin="round" stroke-miterlimit="10" points="16.375,13.531 15.753,11.064 
			12.644,7.955 8.401,12.198 11.488,15.285 12.5,15.656 		"/>
		
			<line fill="none" stroke="#000000" stroke-linecap="round" stroke-linejoin="round" stroke-miterlimit="10" x1="0.977" y1="5.48" x2="5.926" y2="0.531"/>
	</g>
</g>
</svg>
