<?xml version="1.0" encoding="utf-8"?>
<!-- Generator: Adobe Illustrator 19.2.0, SVG Export Plug-In . SVG Version: 6.00 Build 0)  -->
<svg version="1.1" id="Layer_1" xmlns="http://www.w3.org/2000/svg" xmlns:xlink="http://www.w3.org/1999/xlink" x="0px" y="0px"
	 viewBox="0 0 24 24" enable-background="new 0 0 24 24" xml:space="preserve">
<g id="Filled_Icons" display="none">
	<path display="inline" d="M24,3.661c0-0.195-0.115-0.374-0.294-0.454l-6.97-3.156c-0.116-0.054-0.25-0.059-0.373-0.017L7.6,3.104
		L0.702,0.049C0.548-0.019,0.369-0.005,0.227,0.087C0.085,0.18,0,0.337,0,0.507L0.021,20.33c0,0.197,0.116,0.376,0.297,0.456
		l7.042,3.135c0.116,0.052,0.248,0.058,0.368,0.015l8.779-3.067l6.808,3.073c0.066,0.029,0.137,0.045,0.207,0.045
		c0.094,0,0.189-0.027,0.271-0.08c0.143-0.092,0.229-0.252,0.229-0.422L24,3.661z M2.22,3.519c0.138-0.093,0.314-0.111,0.467-0.05
		l4.906,1.983L14,3.307v5.657c0,0.276,0.225,0.5,0.5,0.5c0.275,0,0.5-0.224,0.5-0.5V3.006c0-0.012-0.006-0.021-0.007-0.032
		l1.378-0.462c0.124-0.042,0.26-0.034,0.377,0.024l4.97,2.416C21.891,5.035,22,5.21,22,5.401v9.271l-5.402-2.091
		c-0.129-0.052-0.271-0.045-0.396,0.015l-1.917,0.916C14.109,13.596,14,13.772,14,13.964v5.401l-2,0.67V14.9
		c0-0.16-0.078-0.312-0.21-0.406c-0.132-0.094-0.299-0.118-0.453-0.064l-3.675,1.26L2,13.598V8.26l2.282,0.918
		C4.3,9.187,4.317,9.193,4.336,9.199l1.962,0.789C6.304,9.99,6.309,9.992,6.314,9.995l0.999,0.401
		c0.06,0.024,0.123,0.036,0.187,0.036c0.041,0,0.082-0.005,0.122-0.016l3.969-1c0.268-0.067,0.43-0.339,0.362-0.606
		c-0.068-0.267-0.339-0.432-0.606-0.362L9,9.039V7.964c0-0.276-0.224-0.5-0.5-0.5c-0.276,0-0.5,0.224-0.5,0.5v1.327L7.535,9.408
		L7,9.193V7.964c0-0.276-0.224-0.5-0.5-0.5c-0.276,0-0.5,0.224-0.5,0.5v0.827L5,8.389V6.964c0-0.276-0.224-0.5-0.5-0.5
		c-0.276,0-0.5,0.224-0.5,0.5v1.022L2,7.183v-3.25C2,3.767,2.082,3.611,2.22,3.519z M7.721,21.469
		c-0.051,0.018-0.104,0.026-0.158,0.026c-0.063,0-0.125-0.013-0.185-0.035l-5.063-2.005C2.125,19.38,2,19.195,2,18.99v-4.327
		l5.482,2.026c0.108,0.041,0.228,0.043,0.336,0.004L11,15.602v4.769L7.721,21.469z M21.781,20.361
		c-0.137,0.094-0.311,0.111-0.465,0.052l-4.799-1.892L15,19.029v-4.75l1.437-0.688L22,15.744v4.203
		C22,20.113,21.918,20.27,21.781,20.361z"/>
</g>
<g id="Outline_Icons">
	<g>
		<g>
			<polygon fill="none" stroke="#000000" stroke-linejoin="round" stroke-miterlimit="10" points="23.521,23.479 23.5,3.656 
				16.529,0.5 7.578,3.636 0.5,0.5 0.521,20.322 7.563,23.458 16.529,20.322 			"/>
		</g>
		<polygon fill="none" stroke="#000000" stroke-linejoin="round" stroke-miterlimit="10" points="2.5,3.927 2.5,18.984 
			7.563,20.988 16.529,17.984 21.5,19.941 21.5,5.396 16.529,2.979 7.578,5.979 		"/>
		
			<line fill="none" stroke="#000000" stroke-linecap="round" stroke-linejoin="round" stroke-miterlimit="10" x1="14.5" y1="8.958" x2="14.5" y2="3.66"/>
		<polyline fill="none" stroke="#000000" stroke-linecap="round" stroke-linejoin="round" stroke-miterlimit="10" points="
			2.5,14.328 7.656,16.216 11.5,14.897 11.5,19.67 		"/>
		<polyline fill="none" stroke="#000000" stroke-linecap="round" stroke-linejoin="round" stroke-miterlimit="10" points="
			14.5,18.665 14.5,13.958 16.417,13.042 21.5,15 		"/>
		<polyline fill="none" stroke="#000000" stroke-linecap="round" stroke-linejoin="round" stroke-miterlimit="10" points="
			2.5,7.926 7.5,9.927 11.469,8.927 		"/>
		
			<line fill="none" stroke="#000000" stroke-linecap="round" stroke-linejoin="round" stroke-miterlimit="10" x1="4.5" y1="8.727" x2="4.5" y2="6.958"/>
		
			<line fill="none" stroke="#000000" stroke-linecap="round" stroke-linejoin="round" stroke-miterlimit="10" x1="8.5" y1="9.675" x2="8.5" y2="7.958"/>
		
			<line fill="none" stroke="#000000" stroke-linecap="round" stroke-linejoin="round" stroke-miterlimit="10" x1="6.5" y1="9.526" x2="6.5" y2="7.958"/>
	</g>
</g>
</svg>
