<?xml version="1.0" encoding="utf-8"?>
<!-- Generator: Adobe Illustrator 19.2.0, SVG Export Plug-In . SVG Version: 6.00 Build 0)  -->
<svg version="1.1" id="Layer_1" xmlns="http://www.w3.org/2000/svg" xmlns:xlink="http://www.w3.org/1999/xlink" x="0px" y="0px"
	 viewBox="0 0 24 24" enable-background="new 0 0 24 24" xml:space="preserve">
<g id="Filled_Icons" display="none">
	<g display="inline">
		<polygon points="5.372,6.923 6.505,9.376 15.876,0.006 12.29,0.006 		"/>
		<path d="M6.951,10.344l0.998,2.162h0.426L18,2.881V0.506c0-0.276-0.225-0.5-0.5-0.5h-0.21L6.951,10.344z"/>
		<path d="M10.876,0.006H5.5c-0.276,0-0.5,0.224-0.5,0.5v5.375L10.876,0.006z"/>
		<path d="M9.79,12.506h5.263l2.9-6.247C17.982,6.192,18,6.121,18,6.048V4.295L9.79,12.506z"/>
		<path d="M15,18.506c-0.553,0-1,0.447-1,1c0,1.379-1.122,2.5-2.5,2.5c-1.378,0-2.5-1.121-2.5-2.5c0-1.379,1.122-2.5,2.5-2.5
			c0.552,0,1-0.447,1-1v-2.5h-2v1.612C8.498,15.574,7,17.368,7,19.506c0,2.48,2.019,4.5,4.5,4.5c2.48,0,4.5-2.02,4.5-4.5
			C16,18.953,15.553,18.506,15,18.506z"/>
	</g>
</g>
<g id="Outline_Icons">
	<g>
		<polygon fill="none" stroke="#000000" stroke-linejoin="round" stroke-miterlimit="10" points="17.5,0.5 5.5,0.5 5.5,7 8.5,13.5 
			14.5,13.5 17.5,7.042 		"/>
		<path fill="none" stroke="#000000" stroke-linecap="round" stroke-linejoin="round" stroke-miterlimit="10" d="M15,20
			c0,1.934-1.566,3.5-3.5,3.5C9.567,23.5,8,21.934,8,20c0-1.934,1.567-3.5,3.5-3.5v-3"/>
		
			<line fill="none" stroke="#000000" stroke-linejoin="round" stroke-miterlimit="10" x1="5.438" y1="7.146" x2="12.031" y2="0.552"/>
		<line fill="none" stroke="#000000" stroke-linejoin="round" stroke-miterlimit="10" x1="7.072" y1="10.51" x2="17.083" y2="0.5"/>
		
			<line fill="none" stroke="#000000" stroke-linejoin="round" stroke-miterlimit="10" x1="9.063" y1="13.522" x2="17.541" y2="5.041"/>
	</g>
</g>
</svg>
