<?xml version="1.0" encoding="utf-8"?>
<!-- Generator: Adobe Illustrator 19.2.0, SVG Export Plug-In . SVG Version: 6.00 Build 0)  -->
<svg version="1.1" id="Layer_1" xmlns="http://www.w3.org/2000/svg" xmlns:xlink="http://www.w3.org/1999/xlink" x="0px" y="0px"
	 viewBox="0 0 24 24" enable-background="new 0 0 24 24" xml:space="preserve">
<g id="Filled_Icons" display="none">
	<g display="inline">
		<path d="M23.5,5.006h-1.38l-3.001,3h1.38c0.276,0,0.5,0.224,0.5,0.499v3.501H16v1h5v1h-5v1h5v5.5c0,0.275-0.225,0.5-0.5,0.5H18
			v-4.5c0-0.133-0.053-0.26-0.147-0.354c-0.092-0.094-0.221-0.146-0.353-0.146h-5c-0.276,0-0.5,0.225-0.5,0.5v4.5H8v-4.5
			c0-0.133-0.053-0.26-0.146-0.354c-0.093-0.094-0.221-0.146-0.354-0.146H3v-2h5v-1H3v-4.5c0-0.276,0.224-0.5,0.5-0.5h6.938
			l0.118-0.412c0.01-0.034,0.029-0.063,0.041-0.097c0.015-0.038,0.031-0.073,0.048-0.111c0.074-0.161,0.166-0.314,0.293-0.44
			l1.939-1.939H0.5c-0.276,0-0.5,0.224-0.5,0.5v18c0,0.276,0.224,0.5,0.5,0.5h23c0.275,0,0.5-0.224,0.5-0.5v-18
			C24,5.229,23.775,5.006,23.5,5.006z M17,17.006v1h-4v-1H17z M13,19.006h4v2h-4.001L13,19.006z M3,20.506v-3.5h4v4H3.5
			C3.224,21.006,3,20.781,3,20.506z"/>
		<g>
			<path d="M11.437,8.151l-0.92,3.217c-0.05,0.175-0.001,0.363,0.128,0.491c0.095,0.095,0.223,0.146,0.354,0.146
				c0.046,0,0.092-0.006,0.137-0.02l3.217-0.919L11.437,8.151z"/>
			<rect x="12.609" y="4.237" transform="matrix(0.7072 -0.707 0.707 0.7072 0.0857 13.2162)" width="6.78" height="4.535"/>
			<path d="M22.353,2.651l-2.5-2.5c-0.194-0.195-0.512-0.195-0.707,0L17.5,1.797l3.207,3.207l1.646-1.646
				c0.094-0.093,0.147-0.22,0.147-0.353C22.5,2.872,22.447,2.745,22.353,2.651z"/>
		</g>
	</g>
</g>
<g id="Outline_Icons">
	<g>
		<g>
			<polygon fill="none" stroke="#000000" stroke-linecap="round" stroke-linejoin="round" stroke-miterlimit="10" points="
				14.498,10.5 10.998,11.5 11.998,8 19.5,0.499 22,2.999 			"/>
			<line fill="none" stroke="#000000" stroke-linejoin="round" stroke-miterlimit="10" x1="17.5" y1="2.499" x2="20" y2="4.999"/>
			
				<line fill="none" stroke="#000000" stroke-linecap="round" stroke-linejoin="round" stroke-miterlimit="10" x1="11.998" y1="8" x2="14.498" y2="10.5"/>
		</g>
		<polyline fill="none" stroke="#000000" stroke-linejoin="round" stroke-miterlimit="10" points="22,5.5 23.5,5.5 23.5,23.5 
			0.5,23.5 0.5,5.5 12,5.5 		"/>
		<polyline fill="none" stroke="#000000" stroke-linejoin="round" stroke-miterlimit="10" points="8,8.5 3.5,8.5 3.5,20.5 
			12.5,20.5 12.5,16.5 17.5,16.5 17.5,20.5 20.5,20.5 20.5,9 		"/>
		<line fill="none" stroke="#000000" stroke-linejoin="round" stroke-miterlimit="10" x1="12.5" y1="18.5" x2="17.5" y2="18.5"/>
		<line fill="none" stroke="#000000" stroke-linejoin="round" stroke-miterlimit="10" x1="12.5" y1="20.5" x2="17.5" y2="20.5"/>
		<line fill="none" stroke="#000000" stroke-linejoin="round" stroke-miterlimit="10" x1="3.5" y1="13.5" x2="8" y2="13.5"/>
		<line fill="none" stroke="#000000" stroke-linejoin="round" stroke-miterlimit="10" x1="16" y1="14.5" x2="20.5" y2="14.5"/>
		<line fill="none" stroke="#000000" stroke-linejoin="round" stroke-miterlimit="10" x1="16" y1="12.5" x2="20.5" y2="12.5"/>
		<polyline fill="none" stroke="#000000" stroke-linejoin="round" stroke-miterlimit="10" points="3.5,16.5 7.5,16.5 7.5,20 		"/>
	</g>
</g>
</svg>
