<?xml version="1.0" encoding="utf-8"?>
<!-- Generator: Adobe Illustrator 19.2.0, SVG Export Plug-In . SVG Version: 6.00 Build 0)  -->
<svg version="1.1" id="Layer_1" xmlns="http://www.w3.org/2000/svg" xmlns:xlink="http://www.w3.org/1999/xlink" x="0px" y="0px"
	 viewBox="0 0 24 24" style="enable-background:new 0 0 24 24;" xml:space="preserve">
<style type="text/css">
	.st0{display:none;}
	.st1{display:inline;}
	.st2{fill:none;stroke:#000000;stroke-linecap:round;stroke-linejoin:round;stroke-miterlimit:10;}
</style>
<g id="Filled_Icon" class="st0">
	<path class="st1" d="M23.8,11.6L9.8,1.1C9.6,1,9.4,1,9.3,1.1C9.1,1.1,9,1.3,9,1.5v5.9L0.8,0.1C0.7,0,0.5,0,0.3,0
		C0.1,0.1,0,0.3,0,0.5v23c0,0.2,0.1,0.4,0.3,0.5c0.1,0,0.1,0,0.2,0c0.1,0,0.2,0,0.3-0.1L9,16.6v5.9c0,0.2,0.1,0.4,0.3,0.4
		c0.2,0.1,0.4,0.1,0.5,0l14-10.5c0.1-0.1,0.2-0.2,0.2-0.4C24,11.8,23.9,11.7,23.8,11.6z"/>
</g>
<g id="Outline_Icons">
	<g>
		<polygon class="st2" points="0.5,23.5 9.5,15.5 9.5,22.5 23.5,12 9.5,1.5 9.5,8.5 0.5,0.5 		"/>
	</g>
</g>
</svg>
