<?xml version="1.0" encoding="utf-8"?>
<!-- Generator: Adobe Illustrator 19.2.0, SVG Export Plug-In . SVG Version: 6.00 Build 0)  -->
<svg version="1.1" id="Layer_1" xmlns="http://www.w3.org/2000/svg" xmlns:xlink="http://www.w3.org/1999/xlink" x="0px" y="0px"
	 viewBox="0 0 24 24" style="enable-background:new 0 0 24 24;" xml:space="preserve">
<style type="text/css">
	.st0{display:none;}
	.st1{display:inline;}
	.st2{fill:none;stroke:#000000;stroke-linejoin:round;stroke-miterlimit:10;}
	.st3{fill:none;stroke:#000000;stroke-linecap:round;stroke-linejoin:round;stroke-miterlimit:10;}
</style>
<g id="Filled_Icons" class="st0">
	<g class="st1">
		<g>
			<path d="M6.5,12C6.2,12,6,12.2,6,12.5v5C6,17.8,6.2,18,6.5,18C6.8,18,7,17.8,7,17.5v-5C7,12.2,6.8,12,6.5,12z"/>
			<path d="M18.9,12.6c-0.2-0.1-0.5,0-0.7,0.2l-2.2,4.5c-0.1,0.2,0,0.5,0.2,0.7c0.1,0,0.1,0.1,0.2,0.1c0.2,0,0.4-0.1,0.4-0.3
				l2.2-4.5C19.3,13,19.2,12.7,18.9,12.6z"/>
			<path d="M17.5,10H14V8.5C14,8.2,13.8,8,13.5,8H12V3.5C12,3.2,11.8,3,11.5,3C11.2,3,11,3.2,11,3.5V8H9.5C9.2,8,9,8.2,9,8.5V10H5.5
				C3,10,1,12,1,14.5v5C1,22,3,24,5.5,24h12c2.5,0,4.5-2,4.5-4.5v-5C22,12,20,10,17.5,10z M8,12.3C8.1,12.1,8.3,12,8.5,12h6
				c0.2,0,0.4,0.1,0.5,0.3c0.1,0.2,0,0.4-0.1,0.5l-2,2c-0.1,0.1-0.2,0.1-0.4,0.1h-2c-0.1,0-0.3-0.1-0.4-0.1l-2-2
				C8,12.7,8,12.5,8,12.3z M6.5,21C4.6,21,3,19.4,3,17.5c0-1.6,1-2.9,2.5-3.3v-1.7c0-0.6,0.4-1,1-1c0.6,0,1,0.4,1,1v1.7
				C9,14.6,10,15.9,10,17.5C10,19.4,8.5,21,6.5,21z M13,22h-3c-0.3,0-0.5-0.2-0.5-0.5c0-0.3,0.2-0.5,0.5-0.5h3
				c0.3,0,0.5,0.2,0.5,0.5C13.5,21.8,13.3,22,13,22z M16.5,21c-1.9,0-3.5-1.6-3.5-3.5c0-1.9,1.6-3.5,3.5-3.5c0.2,0,0.4,0,0.6,0.1
				l0.7-1.5c0.2-0.5,0.8-0.7,1.3-0.5c0.5,0.2,0.7,0.8,0.5,1.3l-0.7,1.5c0.7,0.6,1.1,1.5,1.1,2.6C20,19.4,18.5,21,16.5,21z"/>
		</g>
		<g>
			<path d="M20.1,7.1c0,0-0.1,0-0.1,0c-0.3-0.1-0.4-0.3-0.4-0.6C19.9,5.5,20,4.6,20,3.6c0-1-0.1-2-0.4-3C19.5,0.4,19.7,0.1,20,0
				c0.3-0.1,0.5,0.1,0.6,0.3C20.9,1.4,21,2.5,21,3.6c0,1-0.1,2.1-0.4,3.1C20.6,6.9,20.4,7.1,20.1,7.1z"/>
		</g>
		<g>
			<path d="M17.1,6.5c-0.1,0-0.1,0-0.2,0c-0.3-0.1-0.4-0.4-0.3-0.6C16.9,5.1,17,4.4,17,3.6c0-0.8-0.1-1.6-0.4-2.4
				c-0.1-0.3,0-0.5,0.3-0.6c0.3-0.1,0.5,0,0.6,0.3C17.8,1.7,18,2.7,18,3.6c0,0.9-0.1,1.7-0.4,2.6C17.5,6.4,17.3,6.5,17.1,6.5z"/>
		</g>
		<g>
			<path d="M14,5.9c-0.1,0-0.2,0-0.3-0.1c-0.2-0.1-0.3-0.5-0.2-0.7c0.3-0.5,0.4-1,0.4-1.6C14,3,13.8,2.5,13.5,2
				c-0.2-0.2-0.1-0.5,0.1-0.7c0.2-0.1,0.5-0.1,0.7,0.1C14.8,2.1,15,2.8,15,3.6c0,0.7-0.2,1.5-0.6,2.1C14.3,5.9,14.2,5.9,14,5.9z"/>
		</g>
		<g>
			<path d="M2.9,7.1c-0.2,0-0.4-0.1-0.5-0.4C2.1,5.7,2,4.7,2,3.6c0-1.1,0.2-2.2,0.4-3.2C2.5,0.1,2.8-0.1,3,0
				c0.3,0.1,0.4,0.4,0.3,0.6c-0.3,1-0.4,2-0.4,3c0,1,0.1,1.9,0.4,2.8C3.4,6.7,3.3,7,3,7C3,7.1,2.9,7.1,2.9,7.1z"/>
		</g>
		<g>
			<path d="M5.9,6.5c-0.2,0-0.4-0.1-0.5-0.3C5.1,5.3,5,4.5,5,3.6c0-0.9,0.2-1.9,0.5-2.8c0.1-0.3,0.4-0.4,0.6-0.3
				c0.3,0.1,0.4,0.4,0.3,0.6C6.1,2,6,2.8,6,3.6c0,0.8,0.1,1.5,0.4,2.2C6.4,6.1,6.3,6.4,6,6.5C6,6.5,5.9,6.5,5.9,6.5z"/>
		</g>
		<g>
			<path d="M9,5.9c-0.2,0-0.3-0.1-0.4-0.2C8.2,5.1,8,4.4,8,3.6c0-0.8,0.2-1.5,0.6-2.2c0.2-0.2,0.5-0.3,0.7-0.1
				C9.6,1.4,9.6,1.8,9.5,2C9.2,2.5,9,3,9,3.6c0,0.6,0.2,1.1,0.4,1.6c0.1,0.2,0.1,0.5-0.2,0.7C9.2,5.9,9.1,5.9,9,5.9z"/>
		</g>
	</g>
</g>
<g id="Outline_Icons">
	<g>
		<path class="st2" d="M21.5,19.5c0,2.2-1.8,4-4,4h-12c-2.2,0-4-1.8-4-4v-5c0-2.2,1.8-4,4-4h12c2.2,0,4,1.8,4,4V19.5z"/>
		<circle class="st2" cx="16.5" cy="17.5" r="3"/>
		<circle class="st2" cx="6.5" cy="17.5" r="3"/>
		<polygon class="st2" points="12.5,14.5 10.5,14.5 8.5,12.5 14.5,12.5 		"/>
		<line class="st2" x1="10" y1="21.5" x2="13" y2="21.5"/>
		<line class="st3" x1="16.5" y1="17.5" x2="18.7" y2="13"/>
		<line class="st3" x1="6.5" y1="17.5" x2="6.5" y2="12.5"/>
		<rect x="9.5" y="8.5" class="st3" width="4" height="2"/>
		<line class="st3" x1="11.5" y1="8.5" x2="11.5" y2="3.5"/>
		<path class="st3" d="M20.1,0.5c0.3,1,0.4,2,0.4,3.1c0,1-0.1,2-0.4,2.9"/>
		<path class="st3" d="M17.1,1c0.3,0.8,0.5,1.7,0.5,2.6c0,0.8-0.1,1.6-0.4,2.4"/>
		<path class="st3" d="M13.9,1.7c0.4,0.5,0.6,1.2,0.6,1.9c0,0.7-0.2,1.3-0.5,1.8"/>
		<path class="st3" d="M2.9,0.5c-0.3,1-0.4,2-0.4,3.1c0,1,0.1,2,0.4,2.9"/>
		<path class="st3" d="M5.9,1C5.6,1.8,5.5,2.7,5.5,3.6c0,0.8,0.1,1.6,0.4,2.4"/>
		<path class="st3" d="M9,1.7C8.7,2.3,8.5,2.9,8.5,3.6c0,0.7,0.2,1.3,0.5,1.8"/>
	</g>
</g>
</svg>
