<?xml version="1.0" encoding="utf-8"?>
<!-- Generator: Adobe Illustrator 19.2.0, SVG Export Plug-In . SVG Version: 6.00 Build 0)  -->
<svg version="1.1" id="Layer_1" xmlns="http://www.w3.org/2000/svg" xmlns:xlink="http://www.w3.org/1999/xlink" x="0px" y="0px"
	 viewBox="0 0 24 24" style="enable-background:new 0 0 24 24;" xml:space="preserve">
<style type="text/css">
	.st0{display:none;}
	.st1{display:inline;}
	.st2{fill:none;stroke:#000000;stroke-linecap:round;stroke-linejoin:round;stroke-miterlimit:10;}
</style>
<g id="Filled_Icon" class="st0">
	<g class="st1">
		<path d="M10.5,0h-5C5.3,0,5,0.2,5,0.5v23C5,23.8,5.3,24,5.5,24h5c0.3,0,0.5-0.2,0.5-0.5v-23C11,0.2,10.8,0,10.5,0z"/>
		<path d="M18.5,0h-5C13.3,0,13,0.2,13,0.5v23c0,0.3,0.2,0.5,0.5,0.5h5c0.3,0,0.5-0.2,0.5-0.5v-23C19,0.2,18.8,0,18.5,0z"/>
	</g>
</g>
<g id="Outline_Icons">
	<g>
		<rect x="5.5" y="0.5" class="st2" width="5" height="23"/>
		<rect x="13.5" y="0.5" class="st2" width="5" height="23"/>
	</g>
</g>
</svg>
