<?xml version="1.0" encoding="utf-8"?>
<!-- Generator: Adobe Illustrator 19.2.0, SVG Export Plug-In . SVG Version: 6.00 Build 0)  -->
<svg version="1.1" id="Layer_1" xmlns="http://www.w3.org/2000/svg" xmlns:xlink="http://www.w3.org/1999/xlink" x="0px" y="0px"
	 viewBox="0 0 24 24" style="enable-background:new 0 0 24 24;" xml:space="preserve">
<style type="text/css">
	.st0{display:none;}
	.st1{display:inline;}
	.st2{fill:none;stroke:#000000;stroke-linecap:round;stroke-linejoin:round;stroke-miterlimit:10;}
</style>
<g id="Filled_Icon" class="st0">
	<g class="st1">
		<path d="M24,15.1L12.6,2.2C12.4,2,12,2,11.8,2.2l-11.5,13c-0.1,0.1-0.2,0.4-0.1,0.5C0.3,15.9,0.5,16,0.7,16h23c0,0,0,0,0,0
			c0.3,0,0.5-0.2,0.5-0.5C24.2,15.3,24.1,15.2,24,15.1z"/>
		<path d="M23.5,18h-23C0.3,18,0,18.2,0,18.5v4C0,22.8,0.3,23,0.5,23h23c0.3,0,0.5-0.2,0.5-0.5v-4C24,18.2,23.8,18,23.5,18z"/>
	</g>
</g>
<g id="Outline_Icons">
	<g>
		<polygon class="st2" points="0.7,15.5 12.2,2.5 23.7,15.5 		"/>
		<rect x="0.5" y="18.5" class="st2" width="23" height="4"/>
	</g>
</g>
</svg>
