<?xml version="1.0" encoding="utf-8"?>
<!-- Generator: Adobe Illustrator 19.2.0, SVG Export Plug-In . SVG Version: 6.00 Build 0)  -->
<svg version="1.1" id="Layer_1" xmlns="http://www.w3.org/2000/svg" xmlns:xlink="http://www.w3.org/1999/xlink" x="0px" y="0px"
	 viewBox="0 0 24 24" style="enable-background:new 0 0 24 24;" xml:space="preserve">
<style type="text/css">
	.st0{display:none;}
	.st1{display:inline;}
	.st2{fill:none;stroke:#000000;stroke-linecap:round;stroke-linejoin:round;stroke-miterlimit:10;}
</style>
<g id="Filled_Icon" class="st0">
	<path class="st1" d="M23.7,0c-0.2-0.1-0.4,0-0.5,0.1L15,7.4V1.5c0-0.2-0.1-0.4-0.3-0.4c-0.2-0.1-0.4-0.1-0.5,0l-14,10.5
		C0.1,11.7,0,11.8,0,12c0,0.2,0.1,0.3,0.2,0.4l14,10.5c0.2,0.1,0.4,0.1,0.5,0c0.2-0.1,0.3-0.3,0.3-0.4v-5.9l8.2,7.3
		c0.1,0.1,0.2,0.1,0.3,0.1c0.1,0,0.1,0,0.2,0c0.2-0.1,0.3-0.3,0.3-0.5v-23C24,0.3,23.9,0.1,23.7,0z"/>
</g>
<g id="Outline_Icons">
	<g>
		<polygon class="st2" points="23.5,0.5 14.5,8.5 14.5,1.5 0.5,12 14.5,22.5 14.5,15.5 23.5,23.5 		"/>
	</g>
</g>
</svg>
