<?xml version="1.0" encoding="utf-8"?>
<!-- Generator: Adobe Illustrator 19.2.0, SVG Export Plug-In . SVG Version: 6.00 Build 0)  -->
<svg version="1.1" id="Layer_1" xmlns="http://www.w3.org/2000/svg" xmlns:xlink="http://www.w3.org/1999/xlink" x="0px" y="0px"
	 viewBox="0 0 24 24" style="enable-background:new 0 0 24 24;" xml:space="preserve">
<style type="text/css">
	.st0{display:none;}
	.st1{display:inline;}
	.st2{fill:none;stroke:#000000;stroke-linecap:round;stroke-linejoin:round;stroke-miterlimit:10;}
</style>
<g id="Filled_Icon" class="st0">
	<g class="st1">
		<path d="M22.7,0c-0.2-0.1-0.4,0-0.5,0.1l-13,11.5C9.1,11.7,9,11.9,9,12c0,0.1,0.1,0.3,0.2,0.4l13,11.5c0.1,0.1,0.2,0.1,0.3,0.1
			c0.1,0,0.1,0,0.2,0c0.2-0.1,0.3-0.3,0.3-0.5v-23C23,0.3,22.9,0.1,22.7,0z"/>
		<path d="M6.5,0h-4C2.2,0,2,0.2,2,0.5v23C2,23.8,2.2,24,2.5,24h4C6.8,24,7,23.8,7,23.5v-23C7,0.2,6.8,0,6.5,0z"/>
	</g>
</g>
<g id="Outline_Icons">
	<g>
		<polygon class="st2" points="22.5,23.5 9.5,12 22.5,0.5 		"/>
		<rect x="2.5" y="0.5" class="st2" width="4" height="23"/>
	</g>
</g>
</svg>
