<?xml version="1.0" encoding="utf-8"?>
<!-- Generator: Adobe Illustrator 19.2.0, SVG Export Plug-In . SVG Version: 6.00 Build 0)  -->
<svg version="1.1" id="Layer_1" xmlns="http://www.w3.org/2000/svg" xmlns:xlink="http://www.w3.org/1999/xlink" x="0px" y="0px"
	 viewBox="0 0 24 24" style="enable-background:new 0 0 24 24;" xml:space="preserve">
<style type="text/css">
	.st0{display:none;}
	.st1{display:inline;}
	.st2{fill:none;stroke:#000000;stroke-linecap:round;stroke-linejoin:round;stroke-miterlimit:10;}
</style>
<g id="Filled_Icon" class="st0">
	<g class="st1">
		<path d="M2.9,0.1C2.7,0,2.5,0,2.3,0C2.1,0.1,2,0.3,2,0.5v23c0,0.2,0.1,0.4,0.3,0.5c0.1,0,0.1,0,0.2,0c0.1,0,0.2,0,0.3-0.1l13-11.5
			C16,12.3,16,12.1,16,12c0-0.1-0.1-0.3-0.2-0.4L2.9,0.1z"/>
		<path d="M22.5,0h-4C18.3,0,18,0.2,18,0.5v23c0,0.3,0.2,0.5,0.5,0.5h4c0.3,0,0.5-0.2,0.5-0.5v-23C23,0.2,22.8,0,22.5,0z"/>
	</g>
</g>
<g id="Outline_Icons">
	<g>
		<polygon class="st2" points="2.5,0.5 15.5,12 2.5,23.5 		"/>
		<rect x="18.5" y="0.5" class="st2" width="4" height="23"/>
	</g>
</g>
</svg>
