<?xml version="1.0" encoding="utf-8"?>
<!-- Generator: Adobe Illustrator 19.2.0, SVG Export Plug-In . SVG Version: 6.00 Build 0)  -->
<svg version="1.1" id="Layer_1" xmlns="http://www.w3.org/2000/svg" xmlns:xlink="http://www.w3.org/1999/xlink" x="0px" y="0px"
	 viewBox="0 0 24 24" enable-background="new 0 0 24 24" xml:space="preserve">
<g id="Filled_Icons" display="none">
	<path display="inline" d="M22.477,6.185c-0.066-0.118-0.178-0.204-0.309-0.238C22.038,5.909,21.896,5.931,21.782,6
		C21.223,6.336,20.622,6.506,20,6.506c-1.482,0-2.807-0.95-3.294-2.365c-0.052-0.148-0.168-0.264-0.316-0.313
		c-0.147-0.049-0.312-0.026-0.439,0.063C15.363,4.293,14.689,4.506,14,4.506c-1.93,0-3.5-1.57-3.5-3.5
		c0-0.313,0.123-0.457-0.131-0.689c-0.114-0.104-0.272-0.149-0.422-0.124C4.184,1.189,0,6.158,0,12.006c0,6.617,5.383,12,12,12
		c6.617,0,12-5.383,12-12C24,9.981,23.473,7.969,22.477,6.185z M4,14.006c-0.552,0-1-0.447-1-1c0-0.551,0.448-1,1-1
		c0.552,0,1,0.449,1,1C5,13.559,4.552,14.006,4,14.006z M5.5,9.006c0-1.378,1.121-2.5,2.5-2.5c1.379,0,2.5,1.122,2.5,2.5
		c0,1.379-1.121,2.5-2.5,2.5C6.621,11.506,5.5,10.385,5.5,9.006z M9,19.506c-1.379,0-2.5-1.121-2.5-2.5c0-1.378,1.121-2.5,2.5-2.5
		c1.379,0,2.5,1.122,2.5,2.5C11.5,18.385,10.379,19.506,9,19.506z M15,20.006c-0.553,0-1-0.447-1-1c0-0.551,0.447-1,1-1
		c0.553,0,1,0.449,1,1C16,19.559,15.553,20.006,15,20.006z M15,15.506c-0.827,0-1.5-0.673-1.5-1.5c0-0.826,0.673-1.5,1.5-1.5
		c0.827,0,1.5,0.674,1.5,1.5C16.5,14.833,15.827,15.506,15,15.506z M16,11.006c-0.553,0-1-0.448-1-1c0-0.551,0.447-1,1-1
		c0.553,0,1,0.449,1,1C17,10.558,16.553,11.006,16,11.006z"/>
</g>
<g id="Outline_Icons">
	<g>
		<path fill="none" stroke="#000000" stroke-linejoin="round" stroke-miterlimit="10" d="M20,7c-1.753,0-3.227-1.135-3.768-2.703
			C15.598,4.734,14.833,5,14,5c-2.209,0-4-1.791-4-4c0-0.109,0.023-0.213,0.032-0.32C4.62,1.615,0.5,6.321,0.5,12
			c0,6.352,5.148,11.5,11.5,11.5c6.352,0,11.5-5.148,11.5-11.5c0-2.028-0.537-3.925-1.461-5.577C21.439,6.781,20.748,7,20,7z"/>
		<circle fill="none" stroke="#000000" stroke-linejoin="round" stroke-miterlimit="10" cx="8" cy="9" r="2"/>
		<circle fill="none" stroke="#000000" stroke-linejoin="round" stroke-miterlimit="10" cx="15" cy="14" r="1"/>
		<circle fill="none" stroke="#000000" stroke-linejoin="round" stroke-miterlimit="10" cx="9" cy="17" r="2"/>
		<circle fill="none" stroke="#000000" stroke-linejoin="round" stroke-miterlimit="10" cx="16" cy="10" r="0.5"/>
		<circle fill="none" stroke="#000000" stroke-linejoin="round" stroke-miterlimit="10" cx="4" cy="13" r="0.5"/>
		<circle fill="none" stroke="#000000" stroke-linejoin="round" stroke-miterlimit="10" cx="15" cy="19" r="0.5"/>
	</g>
</g>
</svg>
