<?xml version="1.0" encoding="utf-8"?>
<!-- Generator: Adobe Illustrator 19.2.0, SVG Export Plug-In . SVG Version: 6.00 Build 0)  -->
<svg version="1.1" id="Layer_1" xmlns="http://www.w3.org/2000/svg" xmlns:xlink="http://www.w3.org/1999/xlink" x="0px" y="0px"
	 viewBox="0 0 24 24" enable-background="new 0 0 24 24" xml:space="preserve">
<g id="Filled_Icons" display="none">
	<path display="inline" d="M11.418,0.006c-5.297,0-10.998,3.756-10.998,12c0,4.551,2.916,11.408,3.04,11.697
		c0.079,0.186,0.26,0.303,0.46,0.303h15c0.2,0,0.381-0.117,0.459-0.303c0.124-0.289,3.041-7.146,3.041-11.697
		C22.42,3.762,16.717,0.006,11.418,0.006z M11,3.506c0-0.275,0.224-0.5,0.5-0.5c0.276,0,0.5,0.224,0.5,0.5v1
		c0,0.276-0.224,0.5-0.5,0.5c-0.276,0-0.5-0.224-0.5-0.5V3.506z M11,6.027v2.979c0,0.276,0.224,0.5,0.5,0.5
		c0.276,0,0.5-0.224,0.5-0.5V6.043c2.482,0.289,4.42,2.403,4.42,4.963c0,2.758-2.242,5-5,5c-2.757,0-5-2.242-5-5
		C6.42,8.392,8.439,6.242,11,6.027z M12,17.506v1c0,0.275-0.224,0.5-0.5,0.5c-0.276,0-0.5-0.225-0.5-0.5v-1
		c0-0.275,0.224-0.5,0.5-0.5C11.776,17.006,12,17.231,12,17.506z M5,11.506H4c-0.276,0-0.5-0.224-0.5-0.5c0-0.275,0.224-0.5,0.5-0.5
		h1c0.276,0,0.5,0.225,0.5,0.5C5.5,11.282,5.276,11.506,5,11.506z M5.763,5.35C5.958,5.156,6.274,5.156,6.47,5.351l0.707,0.708
		c0.195,0.195,0.195,0.512,0,0.707C7.079,6.863,6.951,6.911,6.823,6.911c-0.128,0-0.257-0.048-0.354-0.146L5.762,6.057
		C5.567,5.861,5.567,5.545,5.763,5.35z M6.116,16.811c-0.128,0-0.256-0.049-0.354-0.146c-0.195-0.195-0.195-0.514,0-0.707
		l0.707-0.708c0.195-0.194,0.512-0.194,0.707,0c0.195,0.194,0.195,0.513,0,0.708L6.47,16.664
		C6.372,16.762,6.244,16.811,6.116,16.811z M16,22.006H7c-0.276,0-0.5-0.225-0.5-0.5c0-0.275,0.224-0.5,0.5-0.5h9
		c0.275,0,0.5,0.225,0.5,0.5C16.5,21.781,16.275,22.006,16,22.006z M17.076,16.664c-0.098,0.098-0.227,0.146-0.354,0.146
		c-0.129,0-0.257-0.049-0.354-0.146l-0.707-0.707c-0.195-0.195-0.195-0.514,0-0.708c0.194-0.194,0.512-0.194,0.707,0l0.707,0.708
		C17.271,16.15,17.271,16.469,17.076,16.664z M17.076,6.057l-0.707,0.708c-0.098,0.099-0.226,0.146-0.354,0.146
		c-0.129,0-0.257-0.048-0.354-0.146c-0.195-0.195-0.195-0.512-0.001-0.707l0.707-0.708c0.195-0.194,0.513-0.194,0.708-0.001
		C17.271,5.545,17.271,5.861,17.076,6.057z M19,11.506h-1c-0.275,0-0.5-0.224-0.5-0.5c0-0.275,0.225-0.5,0.5-0.5h1
		c0.275,0,0.5,0.225,0.5,0.5C19.5,11.282,19.275,11.506,19,11.506z"/>
</g>
<g id="Outline_Icons">
	<g>
		<path fill="none" stroke="#000000" stroke-linecap="round" stroke-linejoin="round" stroke-miterlimit="10" d="M21.92,12
			c0,4.5-3,11.5-3,11.5h-15c0,0-3-7-3-11.5C0.92-3.336,21.92-3.33,21.92,12z"/>
		
			<circle fill="none" stroke="#000000" stroke-linecap="round" stroke-linejoin="round" stroke-miterlimit="10" cx="11.42" cy="11" r="4.5"/>
		
			<line fill="none" stroke="#000000" stroke-linecap="round" stroke-linejoin="round" stroke-miterlimit="10" x1="11.5" y1="3.5" x2="11.5" y2="4.5"/>
		
			<line fill="none" stroke="#000000" stroke-linecap="round" stroke-linejoin="round" stroke-miterlimit="10" x1="6.116" y1="5.697" x2="6.823" y2="6.405"/>
		
			<line fill="none" stroke="#000000" stroke-linecap="round" stroke-linejoin="round" stroke-miterlimit="10" x1="4" y1="11" x2="5" y2="11"/>
		
			<line fill="none" stroke="#000000" stroke-linecap="round" stroke-linejoin="round" stroke-miterlimit="10" x1="6.116" y1="16.305" x2="6.823" y2="15.598"/>
		
			<line fill="none" stroke="#000000" stroke-linecap="round" stroke-linejoin="round" stroke-miterlimit="10" x1="11.5" y1="18.5" x2="11.5" y2="17.5"/>
		
			<line fill="none" stroke="#000000" stroke-linecap="round" stroke-linejoin="round" stroke-miterlimit="10" x1="16.723" y1="16.305" x2="16.016" y2="15.598"/>
		
			<line fill="none" stroke="#000000" stroke-linecap="round" stroke-linejoin="round" stroke-miterlimit="10" x1="19" y1="11" x2="18" y2="11"/>
		
			<line fill="none" stroke="#000000" stroke-linecap="round" stroke-linejoin="round" stroke-miterlimit="10" x1="16.723" y1="5.697" x2="16.016" y2="6.405"/>
		
			<line fill="none" stroke="#000000" stroke-linecap="round" stroke-linejoin="round" stroke-miterlimit="10" x1="7" y1="21.5" x2="16" y2="21.5"/>
		
			<line fill="none" stroke="#000000" stroke-linecap="round" stroke-linejoin="round" stroke-miterlimit="10" x1="11.5" y1="9" x2="11.5" y2="6.5"/>
	</g>
</g>
</svg>
