<?xml version="1.0" encoding="utf-8"?>
<!-- Generator: Adobe Illustrator 19.2.0, SVG Export Plug-In . SVG Version: 6.00 Build 0)  -->
<svg version="1.1" id="Layer_1" xmlns="http://www.w3.org/2000/svg" xmlns:xlink="http://www.w3.org/1999/xlink" x="0px" y="0px"
	 viewBox="0 0 24 24" enable-background="new 0 0 24 24" xml:space="preserve">
<g id="Filled_Icons" display="none">
	<g display="inline">
		<g>
			<g>
				<path d="M7.521,24.006c-0.128,0-0.256-0.049-0.354-0.146c-0.195-0.194-0.195-0.512,0-0.707c0.541-0.541,0.376-0.758-0.064-1.342
					c-0.428-0.566-1.144-1.517,0.04-2.699c0.195-0.195,0.512-0.195,0.707,0c0.195,0.195,0.195,0.513,0,0.707
					c-0.568,0.568-0.387,0.809,0.051,1.39c0.423,0.56,1.13,1.496-0.026,2.651C7.777,23.957,7.649,24.006,7.521,24.006z"/>
			</g>
			<g>
				<path d="M12.021,24.006c-0.128,0-0.256-0.049-0.354-0.146c-0.195-0.194-0.195-0.512,0-0.707
					c0.541-0.541,0.376-0.758-0.064-1.342c-0.428-0.566-1.144-1.517,0.04-2.699c0.195-0.195,0.512-0.195,0.707,0
					c0.195,0.195,0.195,0.513,0,0.707c-0.568,0.568-0.387,0.809,0.051,1.39c0.423,0.56,1.13,1.496-0.026,2.651
					C12.277,23.957,12.149,24.006,12.021,24.006z"/>
			</g>
			<g>
				<path d="M16.521,24.006c-0.129,0-0.256-0.049-0.354-0.146c-0.194-0.194-0.194-0.512,0-0.707
					c0.541-0.541,0.376-0.758-0.064-1.342c-0.429-0.566-1.144-1.517,0.039-2.699c0.195-0.195,0.512-0.195,0.707,0
					c0.195,0.195,0.195,0.513,0,0.707c-0.567,0.568-0.387,0.809,0.051,1.39c0.424,0.56,1.131,1.496-0.025,2.651
					C16.777,23.957,16.648,24.006,16.521,24.006z"/>
			</g>
		</g>
		<g>
			<polygon points="23.685,12.007 17.852,7.007 6.148,7.007 0.314,12.007 			"/>
			<path d="M17,6.007V0.506c0-0.276-0.225-0.5-0.5-0.5h-9c-0.276,0-0.5,0.224-0.5,0.5v5.501H17z"/>
			<path d="M0,13.007v3.499c0,0.275,0.224,0.5,0.5,0.5h23c0.275,0,0.5-0.225,0.5-0.5v-3.499H0z M7.5,15.506H3.547
				c-0.276,0-0.5-0.225-0.5-0.5c0-0.275,0.224-0.5,0.5-0.5H7.5c0.276,0,0.5,0.225,0.5,0.5C8,15.281,7.776,15.506,7.5,15.506z
				 M13.5,15.506H9.547c-0.276,0-0.5-0.225-0.5-0.5c0-0.275,0.224-0.5,0.5-0.5H13.5c0.275,0,0.5,0.225,0.5,0.5
				C14,15.281,13.775,15.506,13.5,15.506z M17.5,15.506c-0.275,0-0.5-0.225-0.5-0.5c0-0.275,0.225-0.5,0.5-0.5
				c0.275,0,0.5,0.225,0.5,0.5C18,15.281,17.775,15.506,17.5,15.506z M20.5,15.506c-0.275,0-0.5-0.225-0.5-0.5
				c0-0.275,0.225-0.5,0.5-0.5c0.275,0,0.5,0.225,0.5,0.5C21,15.281,20.775,15.506,20.5,15.506z"/>
		</g>
	</g>
</g>
<g id="Outline_Icons">
	<g>
		<rect x="7.5" y="0.5" fill="none" stroke="#000000" stroke-linejoin="round" stroke-miterlimit="10" width="9" height="6"/>
		<polygon fill="none" stroke="#000000" stroke-linejoin="round" stroke-miterlimit="10" points="7.5,6.5 16.5,6.5 23.5,12.5 
			0.5,12.5 		"/>
		<rect x="0.5" y="12.5" fill="none" stroke="#000000" stroke-linejoin="round" stroke-miterlimit="10" width="23" height="4"/>
		
			<line fill="none" stroke="#000000" stroke-linecap="round" stroke-linejoin="round" stroke-miterlimit="10" x1="3.547" y1="14.5" x2="7.5" y2="14.5"/>
		
			<line fill="none" stroke="#000000" stroke-linecap="round" stroke-linejoin="round" stroke-miterlimit="10" x1="9.547" y1="14.5" x2="13.5" y2="14.5"/>
		<g>
			<path d="M20.5,14c-0.275,0-0.5,0.225-0.5,0.5c0,0.275,0.225,0.5,0.5,0.5c0.275,0,0.5-0.225,0.5-0.5C21,14.225,20.775,14,20.5,14
				L20.5,14z"/>
		</g>
		<g>
			<path d="M17.5,14c-0.275,0-0.5,0.225-0.5,0.5c0,0.275,0.225,0.5,0.5,0.5c0.275,0,0.5-0.225,0.5-0.5C18,14.225,17.775,14,17.5,14
				L17.5,14z"/>
		</g>
		<g>
			<path fill="none" stroke="#000000" stroke-linecap="round" stroke-linejoin="round" stroke-miterlimit="10" d="M7.497,19.458
				c-1.742,1.743,1.73,2.336,0.024,4.042"/>
			<path fill="none" stroke="#000000" stroke-linecap="round" stroke-linejoin="round" stroke-miterlimit="10" d="M11.997,19.458
				c-1.742,1.743,1.729,2.336,0.024,4.042"/>
			<path fill="none" stroke="#000000" stroke-linecap="round" stroke-linejoin="round" stroke-miterlimit="10" d="M16.497,19.458
				c-1.742,1.743,1.729,2.336,0.024,4.042"/>
		</g>
	</g>
</g>
</svg>
