<?xml version="1.0" encoding="utf-8"?>
<!-- Generator: Adobe Illustrator 19.2.0, SVG Export Plug-In . SVG Version: 6.00 Build 0)  -->
<svg version="1.1" id="Layer_1" xmlns="http://www.w3.org/2000/svg" xmlns:xlink="http://www.w3.org/1999/xlink" x="0px" y="0px"
	 viewBox="0 0 24 24" enable-background="new 0 0 24 24" xml:space="preserve">
<g id="Filled_Icons" display="none">
	<g display="inline">
		<path d="M14.962,4.3c1.608,0.558,2.589,2.184,2.328,3.865c-0.006,0.038-0.013,0.075-0.021,0.111l-1.408,6.027l0.828,1.816
			c0.002,0.002,0.002,0.004,0.002,0.006l0.934,2.043l4.577-2.09l-0.763-1.669l1.492-6.396c0.188-1.204-0.515-2.368-1.666-2.769
			c-1.209-0.417-2.724,0.157-3.246,1.669L17.598,5.99c-1.184-2.594-3.234-4.142-5.488-4.142c-0.768,0-1.547,0.178-2.316,0.529
			c-0.061,0.027-0.115,0.061-0.175,0.09c0.744,0.648,1.402,1.473,1.935,2.456C12.461,4.166,13.787,3.893,14.962,4.3z"/>
		<path d="M22.616,16.988l-4.652,2.123c0.024,0.229,0.004,0.464-0.079,0.685c-0.139,0.373-0.421,0.675-0.781,0.841l-4.246,1.938
			l0.521,1.14c0.084,0.184,0.267,0.292,0.455,0.292c0.069,0,0.142-0.014,0.208-0.045l9.277-4.233
			c0.119-0.056,0.214-0.156,0.261-0.281c0.046-0.123,0.041-0.262-0.015-0.381L22.616,16.988z"/>
	</g>
	<g display="inline">
		<path d="M15.57,16.078l-0.762-1.669l1.492-6.396c0.188-1.204-0.515-2.368-1.667-2.769c-1.194-0.412-2.716,0.142-3.246,1.669
			l-0.421-0.922C9.784,3.397,7.732,1.85,5.479,1.85c-0.768,0-1.547,0.178-2.316,0.529C0.117,3.77-0.841,7.09,0.779,10.641
			l4.605,10.087L15.57,16.078z"/>
		<path d="M15.986,16.988L5.8,21.639l0.947,2.075c0.084,0.184,0.266,0.292,0.455,0.292c0.069,0,0.141-0.014,0.208-0.045l9.277-4.234
			c0.119-0.055,0.213-0.156,0.26-0.279c0.047-0.125,0.041-0.262-0.014-0.383L15.986,16.988z"/>
	</g>
</g>
<g id="Outline_Icons">
	<g>
		<path fill="none" stroke="#000000" stroke-linecap="round" stroke-linejoin="round" stroke-miterlimit="10" d="M14.471,5.711
			c-1.055-0.365-2.206,0.194-2.571,1.25l-0.446,1.291l-0.94-2.06C9.131,3.165,6.399,1.445,3.371,2.827
			c-3.027,1.383-3.519,4.572-2.137,7.6l4.813,10.543l9.277-4.234l-1.04-2.28l1.522-6.525C15.957,6.965,15.394,6.031,14.471,5.711z"
			/>
		
			<rect x="6.165" y="18.726" transform="matrix(0.9097 -0.4152 0.4152 0.9097 -7.3358 6.4926)" fill="none" stroke="#000000" stroke-linecap="round" stroke-linejoin="round" stroke-miterlimit="10" width="10.198" height="2.783"/>
		<polyline fill="none" stroke="#000000" stroke-linecap="round" stroke-linejoin="round" stroke-miterlimit="10" points="
			21.954,16.734 23.109,19.266 13.831,23.5 12.676,20.971 		"/>
		<path fill="none" stroke="#000000" stroke-linecap="round" stroke-linejoin="round" stroke-miterlimit="10" d="M18.23,18.436
			l3.724-1.699l-1.041-2.28l1.524-6.525c0.148-0.965-0.414-1.898-1.338-2.219c-1.056-0.365-2.205,0.194-2.57,1.25l-0.447,1.291
			l-0.939-2.06c-1.383-3.027-4.113-4.747-7.142-3.365c-0.503,0.229-0.933,0.51-1.299,0.831"/>
	</g>
</g>
</svg>
