<?xml version="1.0" encoding="utf-8"?>
<!-- Generator: Adobe Illustrator 19.2.0, SVG Export Plug-In . SVG Version: 6.00 Build 0)  -->
<svg version="1.1" id="Layer_1" xmlns="http://www.w3.org/2000/svg" xmlns:xlink="http://www.w3.org/1999/xlink" x="0px" y="0px"
	 viewBox="0 0 24 24" enable-background="new 0 0 24 24" xml:space="preserve">
<g id="Filled_Icons" display="none">
	<g display="inline">
		<path d="M5.793,11.006h12.434l0.633-0.651C18.949,10.261,19,10.136,19,10.006v-1.5c0-1.862-0.936-3.506-2.356-4.5H7.356
			C5.935,5,5,6.644,5,8.506v1.5c0,0.133,0.053,0.26,0.146,0.354L5.793,11.006z"/>
		<path d="M15,3.006v-1.5c0-0.827-0.673-1.5-1.5-1.5h-3c-0.827,0-1.5,0.673-1.5,1.5v1.5H15z"/>
		<path d="M18.167,18.006H5.836l-0.687,0.676C5.054,18.775,5,18.904,5,19.037v2.469c0,1.379,1.121,2.5,2.5,2.5h9
			c1.379,0,2.5-1.121,2.5-2.5v-2.469c0-0.133-0.055-0.262-0.148-0.355L18.167,18.006z"/>
		<path d="M5.148,12.667C5.054,12.762,5,12.889,5,13.022v2.984c0,0.133,0.052,0.258,0.145,0.351l0.642,0.648h12.441l0.625-0.626
			C18.947,16.286,19,16.159,19,16.025v-3.004c0-0.133-0.055-0.264-0.15-0.357l-0.672-0.659H5.815L5.148,12.667z"/>
	</g>
</g>
<g id="Outline_Icons">
	<g>
		<path fill="none" stroke="#000000" stroke-linejoin="round" stroke-miterlimit="10" d="M18.5,8.5c0-2.761-2.238-5-5-5h-3
			c-2.762,0-5,2.239-5,5V10l1.516,1.516l-1.516,1.5V16l1.521,1.535L5.5,19.031V21.5c0,1.104,0.896,2,2,2h9c1.103,0,2-0.896,2-2
			v-2.469l-1.516-1.496L18.5,16.02v-3.004L17,11.547L18.5,10V8.5z"/>
		<line fill="none" stroke="#000000" stroke-linejoin="round" stroke-miterlimit="10" x1="7" y1="17.5" x2="17" y2="17.5"/>
		<line fill="none" stroke="#000000" stroke-linejoin="round" stroke-miterlimit="10" x1="7" y1="11.5" x2="17" y2="11.5"/>
		<path fill="none" stroke="#000000" stroke-linejoin="round" stroke-miterlimit="10" d="M14.5,1.5c0-0.552-0.447-1-1-1h-3
			c-0.553,0-1,0.448-1,1v2h5V1.5z"/>
	</g>
</g>
</svg>
