<?xml version="1.0" encoding="utf-8"?>
<!-- Generator: Adobe Illustrator 19.2.0, SVG Export Plug-In . SVG Version: 6.00 Build 0)  -->
<svg version="1.1" id="Layer_1" xmlns="http://www.w3.org/2000/svg" xmlns:xlink="http://www.w3.org/1999/xlink" x="0px" y="0px"
	 viewBox="0 0 24 24" enable-background="new 0 0 24 24" xml:space="preserve">
<g id="Filled_Icons" display="none">
	<g display="inline">
		<path d="M4.5,21C4.224,21,4,20.775,4,20.5V5V4H3.5C3.224,4,3,4.224,3,4.5v17C3,21.775,3.224,22,3.5,22h13
			c0.275,0,0.5-0.225,0.5-0.5V21h-1H4.5z"/>
		<path d="M18.853,7.146l-5-5C13.76,2.053,13.632,2,13.5,2h-8C5.224,2,5,2.224,5,2.5v17V20h0.5h13c0.275,0,0.5-0.225,0.5-0.5v-12
			C19,7.367,18.947,7.24,18.853,7.146z M13.5,7.5v-5l5,5H13.5z"/>
	</g>
</g>
<g id="Outline_Icons">
	<g>
		<polygon fill="none" stroke="#000000" stroke-linecap="round" stroke-linejoin="round" stroke-miterlimit="10" points="18.5,19.5 
			5.5,19.5 5.5,2.5 13.5,2.5 18.5,7.5 		"/>
		<polyline fill="none" stroke="#000000" stroke-linecap="round" stroke-linejoin="round" stroke-miterlimit="10" points="
			16.5,19.5 16.5,21.5 3.5,21.5 3.5,4.5 5.5,4.5 		"/>
		<polyline fill="none" stroke="#000000" stroke-linecap="round" stroke-linejoin="round" stroke-miterlimit="10" points="13.5,2.5 
			13.5,7.5 18.5,7.5 		"/>
	</g>
</g>
</svg>
