<?xml version="1.0" encoding="utf-8"?>
<!-- Generator: Adobe Illustrator 19.2.0, SVG Export Plug-In . SVG Version: 6.00 Build 0)  -->
<svg version="1.1" id="Layer_1" xmlns="http://www.w3.org/2000/svg" xmlns:xlink="http://www.w3.org/1999/xlink" x="0px" y="0px"
	 viewBox="0 0 24 24" enable-background="new 0 0 24 24" xml:space="preserve">
<g id="Filled_Icons" display="none">
	<g display="inline">
		<path d="M5,21.5V3H3.5C3.224,3,3,3.224,3,3.5v20C3,23.775,3.224,24,3.5,24h14c0.275,0,0.5-0.225,0.5-0.5V22H5.5
			C5.224,22,5,21.775,5,21.5z"/>
		<path d="M20.853,6.146l-6-6C14.76,0.053,14.632,0,14.5,0h-8C6.224,0,6,0.224,6,0.5v20V21h0.5h14c0.275,0,0.5-0.225,0.5-0.5v-14
			C21,6.367,20.947,6.24,20.853,6.146z M14.5,6.5v-6l6,6H14.5z"/>
	</g>
</g>
<g id="Outline_Icons">
	<g>
		<polygon fill="none" stroke="#000000" stroke-linecap="round" stroke-linejoin="round" stroke-miterlimit="10" points="20.5,20.5 
			6.5,20.5 6.5,0.5 14.5,0.5 20.5,6.5 		"/>
		<polyline fill="none" stroke="#000000" stroke-linecap="round" stroke-linejoin="round" stroke-miterlimit="10" points="14.5,0.5 
			14.5,6.5 20.5,6.5 		"/>
		<polyline fill="none" stroke="#000000" stroke-linecap="round" stroke-linejoin="round" stroke-miterlimit="10" points="
			17.5,20.5 17.5,23.5 3.5,23.5 3.5,3.5 6.5,3.5 		"/>
	</g>
</g>
</svg>
