<?xml version="1.0" encoding="utf-8"?>
<!-- Generator: Adobe Illustrator 19.2.0, SVG Export Plug-In . SVG Version: 6.00 Build 0)  -->
<svg version="1.1" id="Layer_1" xmlns="http://www.w3.org/2000/svg" xmlns:xlink="http://www.w3.org/1999/xlink" x="0px" y="0px"
	 viewBox="0 0 24 24" style="enable-background:new 0 0 24 24;" xml:space="preserve">
<style type="text/css">
	.st0{display:none;}
	.st1{display:inline;}
	.st2{fill:none;stroke:#000000;stroke-linecap:round;stroke-linejoin:round;stroke-miterlimit:10;}
</style>
<g id="Filled_Icon" class="st0">
	<g class="st1">
		<path d="M3,7.5V6V3H0.5C0.2,3,0,3.2,0,3.5v20C0,23.8,0.2,24,0.5,24H11v-4H3V7.5z"/>
		<path d="M17,3.5C17,3.2,16.8,3,16.5,3H14v3v1.5V12h3V3.5z"/>
		<path d="M4.5,7h8C12.8,7,13,6.8,13,6.5v-4C13,2.2,12.8,2,12.5,2h-1.6c-0.2-1.1-1.3-2-2.4-2C7.3,0,6.3,0.9,6,2H4.5
			C4.2,2,4,2.2,4,2.5v4C4,6.8,4.2,7,4.5,7z"/>
		<path d="M23.9,15.1l-2-2c-0.1-0.1-0.2-0.1-0.4-0.1h-9c-0.3,0-0.5,0.2-0.5,0.5v10V24h0.5h4h7c0.3,0,0.5-0.2,0.5-0.5v-8
			C24,15.4,23.9,15.2,23.9,15.1z M14.5,15h5c0.3,0,0.5,0.2,0.5,0.5c0,0.3-0.2,0.5-0.5,0.5h-5c-0.3,0-0.5-0.2-0.5-0.5
			C14,15.2,14.2,15,14.5,15z M21.5,22h-7c-0.3,0-0.5-0.2-0.5-0.5c0-0.3,0.2-0.5,0.5-0.5h7c0.3,0,0.5,0.2,0.5,0.5
			C22,21.8,21.8,22,21.5,22z M21.5,20h-7c-0.3,0-0.5-0.2-0.5-0.5c0-0.3,0.2-0.5,0.5-0.5h7c0.3,0,0.5,0.2,0.5,0.5
			C22,19.8,21.8,20,21.5,20z M21.5,18h-7c-0.3,0-0.5-0.2-0.5-0.5c0-0.3,0.2-0.5,0.5-0.5h7c0.3,0,0.5,0.2,0.5,0.5
			C22,17.8,21.8,18,21.5,18z"/>
	</g>
</g>
<g id="Outline_Icons">
	<g>
		<polygon class="st2" points="12.5,13.5 21.5,13.5 23.5,15.5 23.5,23.5 12.5,23.5 		"/>
		<polyline class="st2" points="9.5,23.5 0.5,23.5 0.5,3.5 4.5,3.5 		"/>
		<polyline class="st2" points="12.5,3.5 16.5,3.5 16.5,10.5 		"/>
		<path class="st2" d="M10.5,2.5c0-1.1-0.9-2-2-2c-1.1,0-2,0.9-2,2h-2v4h8v-4H10.5z"/>
		<polyline class="st2" points="14.5,10.5 14.5,5.5 12.5,5.5 		"/>
		<polyline class="st2" points="4.5,5.5 2.5,5.5 2.5,20.5 9.5,20.5 		"/>
		<line class="st2" x1="14.5" y1="21.5" x2="21.5" y2="21.5"/>
		<line class="st2" x1="14.5" y1="19.5" x2="21.5" y2="19.5"/>
		<line class="st2" x1="14.5" y1="17.5" x2="21.5" y2="17.5"/>
		<line class="st2" x1="14.5" y1="15.5" x2="19.5" y2="15.5"/>
	</g>
</g>
</svg>
