<?xml version="1.0" encoding="utf-8"?>
<!-- Generator: Adobe Illustrator 19.2.0, SVG Export Plug-In . SVG Version: 6.00 Build 0)  -->
<svg version="1.1" id="Layer_1" xmlns="http://www.w3.org/2000/svg" xmlns:xlink="http://www.w3.org/1999/xlink" x="0px" y="0px"
	 viewBox="0 0 24 24" enable-background="new 0 0 24 24" xml:space="preserve">
<g id="Filled_Icons" display="none">
	<g display="inline">
		<g>
			<polygon points="10,13.006 8.594,13.006 10,14.786 			"/>
			<polygon points="14,13.006 14,14.387 15.379,13.006 			"/>
			<polygon points="13,13.006 11,13.006 11,16.053 11.588,16.797 13,15.387 			"/>
			<path d="M14,9.006v3h2.379c0.113-0.113,0.363-0.338,0.434-0.479L16.62,9.006H14z"/>
			<path d="M10,9.006H7.385l-0.174,2.27c0.256,0.295,0.331,0.398,0.594,0.73H10V9.006z"/>
			<rect x="11" y="9.006" width="2" height="3"/>
			<polygon points="14,8.006 16.542,8.006 16.312,5.006 14,5.006 			"/>
			<path d="M11,4.006h2V0.141c-0.322-0.08-0.654-0.135-1-0.135c-0.346,0-0.677,0.056-1,0.135V4.006z"/>
			<path d="M10,4.006V0.529C8.756,1.203,7.869,2.466,7.77,3.96L7.766,4.006H10z"/>
			<rect x="11" y="5.006" width="2" height="3"/>
			<path d="M14,4.006h2.234L16.23,3.965c-0.1-1.498-0.986-2.762-2.23-3.435V4.006z"/>
			<polygon points="7.461,8.006 10,8.006 10,5.006 7.689,5.006 			"/>
		</g>
		<path d="M20.339,13.214l-0.341-3.753c-0.021-0.223-0.186-0.404-0.405-0.445c-0.224-0.043-0.441,0.067-0.54,0.268l-1.464,2.927
			l-5.377,5.378l1.966,2.489c0.146,0.186,0.247,0.402,0.293,0.635l0.453,2.266c0.062,0.164,0.096,0.342,0.096,0.528
			c0,0.021-0.006,0.042-0.006,0.063c0.491-0.276,0.922-0.664,1.178-1.102l3.351-5.693C20.086,15.848,20.437,14.283,20.339,13.214z"
			/>
		<path d="M13.964,23.275l-0.474-2.367c-0.016-0.077-0.049-0.149-0.098-0.213l-6.881-8.713C6.103,11.461,5.27,10.95,4.617,10.82
			l-4.02-0.804c-0.214-0.044-0.435,0.06-0.538,0.255c-0.104,0.193-0.069,0.434,0.087,0.588l1.458,1.458l5.409,8.886
			c0.955,1.572,3.146,2.803,4.986,2.803h1.5c0.007,0.001,0.015,0.002,0.02,0c0.275,0,0.5-0.225,0.5-0.5
			C14.019,23.424,14,23.346,13.964,23.275z"/>
	</g>
</g>
<g id="Outline_Icons">
	<g>
		<path fill="none" stroke="#000000" stroke-linecap="round" stroke-linejoin="round" stroke-miterlimit="10" d="M7.5,13.969
			l0.768-9.976C8.398,2.027,10.03,0.5,12,0.5c1.971,0,3.602,1.527,3.732,3.492l0.768,9.976"/>
		
			<line fill="none" stroke="#000000" stroke-linecap="round" stroke-linejoin="round" stroke-miterlimit="10" x1="8.333" y1="4.5" x2="15.667" y2="4.5"/>
		
			<line fill="none" stroke="#000000" stroke-linecap="round" stroke-linejoin="round" stroke-miterlimit="10" x1="8" y1="8.5" x2="16" y2="8.5"/>
		
			<line fill="none" stroke="#000000" stroke-linecap="round" stroke-linejoin="round" stroke-miterlimit="10" x1="7.688" y1="12.5" x2="16.312" y2="12.5"/>
		
			<line fill="none" stroke="#000000" stroke-linecap="round" stroke-linejoin="round" stroke-miterlimit="10" x1="10.5" y1="17.834" x2="10.5" y2="0.814"/>
		
			<line fill="none" stroke="#000000" stroke-linecap="round" stroke-linejoin="round" stroke-miterlimit="10" x1="13.5" y1="17" x2="13.5" y2="0.814"/>
		<path fill="none" stroke="#000000" stroke-linecap="round" stroke-linejoin="round" stroke-miterlimit="10" d="M13.5,23.5H12
			c-1.65,0-3.702-1.152-4.56-2.562L2,12l-1.5-1.5l4.02,0.805c0.539,0.107,1.26,0.549,1.6,0.98L13,21L13.5,23.5z"/>
		<path fill="none" stroke="#000000" stroke-linecap="round" stroke-linejoin="round" stroke-miterlimit="10" d="M11.5,19l6.5-6.5
			l1.5-3l0.341,3.754c0.089,0.961-0.241,2.428-0.729,3.26l-3.35,5.694c-0.42,0.711-1.436,1.292-2.262,1.292"/>
	</g>
</g>
</svg>
