<?xml version="1.0" encoding="utf-8"?>
<!-- Generator: Adobe Illustrator 19.2.0, SVG Export Plug-In . SVG Version: 6.00 Build 0)  -->
<svg version="1.1" id="Layer_1" xmlns="http://www.w3.org/2000/svg" xmlns:xlink="http://www.w3.org/1999/xlink" x="0px" y="0px"
	 viewBox="0 0 24 24" enable-background="new 0 0 24 24" xml:space="preserve">
<g id="Filled_Icons" display="none">
	<g display="inline">
		<path d="M4.998,15.506v0.5h6.501v-7H6.498c-2.139,0-3.931,1.502-4.385,3.506C3.714,12.574,4.998,13.891,4.998,15.506z"/>
		<path d="M18.999,15.506c-0.001-0.801,0.311-1.554,0.878-2.122c0.539-0.538,1.249-0.843,2.007-0.872
			c-0.454-2.004-2.245-3.506-4.386-3.506h-4.999v7h6.499L18.999,15.506z"/>
		<path d="M21.999,13.506c-0.134,0-0.267,0.014-0.394,0.039c-0.385,0.076-0.738,0.266-1.021,0.549
			c-0.378,0.377-0.586,0.879-0.585,1.413l-0.001,1c0,0.276-0.225,0.5-0.5,0.5H12h-0.001h-0.001H4.499c-0.276,0-0.5-0.224-0.5-0.5
			l-0.001-1c0-0.688-0.351-1.299-0.882-1.657c-0.319-0.216-0.704-0.343-1.118-0.343c-0.138,0-0.272,0.015-0.402,0.04
			c-0.911,0.188-1.598,0.995-1.598,1.961l0.001,3.999c0,1.208,0.859,2.218,2,2.45v1.55c0,0.276,0.224,0.5,0.5,0.5
			c0.276,0,0.5-0.224,0.5-0.5v-1.5h18v1.5c0,0.276,0.224,0.5,0.5,0.5c0.276,0,0.5-0.224,0.5-0.5v-1.55c1.14-0.232,2-1.242,2-2.45v-4
			C23.999,14.404,23.102,13.506,21.999,13.506z"/>
	</g>
</g>
<g id="Outline_Icons">
	<g>
		
			<line fill="none" stroke="#000000" stroke-linecap="round" stroke-linejoin="round" stroke-miterlimit="10" x1="2.5" y1="21.5" x2="2.5" y2="23.5"/>
		
			<line fill="none" stroke="#000000" stroke-linecap="round" stroke-linejoin="round" stroke-miterlimit="10" x1="21.5" y1="21.5" x2="21.5" y2="23.5"/>
		<path fill="none" stroke="#000000" stroke-linecap="round" stroke-linejoin="round" stroke-miterlimit="10" d="M0.5,15.5v1v3
			c0,1.104,0.895,2,2,2h19c1.103,0,2-0.896,2-2v-3v-1"/>
		<path fill="none" stroke="#000000" stroke-linecap="round" stroke-linejoin="round" stroke-miterlimit="10" d="M20.5,15.5v1
			c0,0.551-0.447,1-1,1h-15c-0.553,0-1-0.449-1-1v-1"/>
		<path fill="none" stroke="#000000" stroke-linecap="round" stroke-linejoin="round" stroke-miterlimit="10" d="M21.5,14.063V13.5
			c0-2.21-1.791-4-4-4h-11c-2.21,0-4,1.79-4,4v0.577"/>
		<path fill="none" stroke="#000000" stroke-linecap="round" stroke-linejoin="round" stroke-miterlimit="10" d="M0.5,15.5
			C0.5,14.67,1.171,14,2,14c0.828,0,1.5,0.67,1.5,1.5"/>
		<path fill="none" stroke="#000000" stroke-linecap="round" stroke-linejoin="round" stroke-miterlimit="10" d="M23.5,15.5
			c0-0.83-0.672-1.5-1.5-1.5c-0.829,0-1.5,0.67-1.5,1.5"/>
		
			<line fill="none" stroke="#000000" stroke-linecap="round" stroke-linejoin="round" stroke-miterlimit="10" x1="11.5" y1="9.5" x2="11.5" y2="17.5"/>
	</g>
</g>
</svg>
