<?xml version="1.0" encoding="utf-8"?>
<!-- Generator: Adobe Illustrator 19.2.0, SVG Export Plug-In . SVG Version: 6.00 Build 0)  -->
<svg version="1.1" id="Outline_Icons" xmlns="http://www.w3.org/2000/svg" xmlns:xlink="http://www.w3.org/1999/xlink" x="0px"
	 y="0px" viewBox="0 0 24 24" style="enable-background:new 0 0 24 24;" xml:space="preserve">
<style type="text/css">
	.st0{fill:none;stroke:#000000;stroke-linecap:round;stroke-linejoin:round;stroke-miterlimit:10;}
</style>
<g>
	<path class="st0" d="M23.5,15c-1.7,0-3-1.3-3-3c0-1.7,1.3-3,3-3V4.5h-23V9c1.7,0,3,1.3,3,3c0,1.7-1.3,3-3,3v4.5h23V15z"/>
	<g>
		<g>
			<polygon points="19,6 18,6 18,7 19,7 			"/>
		</g>
	</g>
	<g>
		<g>
			<polygon points="19,8 18,8 18,9 19,9 			"/>
		</g>
	</g>
	<g>
		<g>
			<polygon points="19,10 18,10 18,11 19,11 			"/>
		</g>
	</g>
	<g>
		<g>
			<polygon points="19,13 18,13 18,14 19,14 			"/>
		</g>
	</g>
	<g>
		<g>
			<polygon points="19,15 18,15 18,16 19,16 			"/>
		</g>
	</g>
	<g>
		<g>
			<polygon points="19,17 18,17 18,18 19,18 			"/>
		</g>
	</g>
	<line class="st0" x1="7" y1="16" x2="15" y2="8"/>
	<circle class="st0" cx="8" cy="9" r="1.5"/>
	<circle class="st0" cx="14" cy="15" r="1.5"/>
</g>
</svg>
