<?xml version="1.0" encoding="utf-8"?>
<!-- Generator: Adobe Illustrator 19.2.0, SVG Export Plug-In . SVG Version: 6.00 Build 0)  -->
<svg version="1.1" id="Layer_1" xmlns="http://www.w3.org/2000/svg" xmlns:xlink="http://www.w3.org/1999/xlink" x="0px" y="0px"
	 viewBox="0 0 24 24" enable-background="new 0 0 24 24" xml:space="preserve">
<g id="Filled_Icons" display="none">
	<path display="inline" d="M23.8,18.742c-0.075-0.121-1.725-2.727-4.247-3.17c0.027-0.066,0.057-0.131,0.084-0.196
		c0.264-0.626,0.526-1.251,0.815-1.864c0.107-0.226,0.03-0.494-0.179-0.632c-0.354-0.233-0.729-0.444-1.11-0.646
		c1.14-0.643,3.188-2.172,3.612-5.051c0.002-0.014-0.002-0.025-0.002-0.039c0.228-0.869,0.017-1.856-0.652-2.824
		c-1.215-1.758-3.501-2.986-5.561-2.986c-1.328,0-2.52,0.497-3.447,1.437c-0.12,0.123-0.17,0.302-0.129,0.47
		c0.041,0.169,0.168,0.304,0.332,0.357c0.023,0.008,1.951,0.641,3.094,1.922c-0.115,0.004-0.235,0.006-0.361,0.006
		c-0.887,0-1.719-0.093-1.729-0.094c-0.18-0.021-0.357,0.06-0.463,0.209c-0.104,0.147-0.121,0.341-0.043,0.505
		c0.886,1.839,3.357,3.279,5.629,3.279l0,0c0.591,0,1.125-0.103,1.59-0.294c-1.09,1.793-2.893,2.505-2.992,2.544
		c-0.014,0.005-0.022,0.017-0.035,0.021c-1.848-0.766-3.91-1.184-6.014-1.184c-2.146,0-4.248,0.433-6.117,1.227
		c-0.028-0.011-1.834-0.771-2.922-2.614c0.468,0.196,1.008,0.299,1.604,0.299c2.271,0,4.743-1.44,5.628-3.279
		c0.079-0.164,0.063-0.357-0.042-0.505C10.038,5.493,9.86,5.412,9.679,5.432C9.669,5.433,8.525,5.551,7.591,5.52
		c1.141-1.277,3.069-1.915,3.092-1.923c0.165-0.053,0.291-0.188,0.332-0.356c0.041-0.168-0.008-0.347-0.129-0.47
		c-0.927-0.94-2.119-1.437-3.448-1.437c-2.059,0-4.345,1.229-5.56,2.986C1.21,5.288,0.999,6.275,1.226,7.145
		C1.227,7.158,1.222,7.17,1.224,7.184c0.424,2.869,2.413,4.43,3.523,5.093c-0.352,0.188-0.694,0.388-1.022,0.604
		C3.516,13.02,3.442,13.29,3.55,13.516c0.299,0.621,0.57,1.256,0.843,1.894c0.023,0.055,0.047,0.108,0.07,0.163
		c-2.521,0.447-4.186,3.048-4.262,3.169c-0.146,0.233-0.075,0.543,0.158,0.688c0.083,0.053,0.175,0.076,0.266,0.076
		c0.166,0,0.329-0.082,0.424-0.234c0.017-0.025,1.611-2.523,3.827-2.748c0.195,0.438,0.4,0.873,0.62,1.307
		c-2.484,0.466-3.96,3.062-4.027,3.186c-0.134,0.241-0.047,0.545,0.194,0.678c0.077,0.043,0.16,0.063,0.242,0.063
		c0.176,0,0.347-0.093,0.438-0.257c0.015-0.025,1.456-2.551,3.668-2.73c0.272,0.461,0.572,0.912,0.911,1.352
		c-2.4,0.562-4.07,2.99-4.148,3.107c-0.155,0.228-0.095,0.539,0.135,0.694c0.085,0.058,0.183,0.084,0.279,0.084
		c0.16,0,0.318-0.077,0.414-0.22c0.019-0.027,1.803-2.624,4.097-2.771c0.795,0.825,1.772,1.584,3.027,2.229
		c0.07,0.036,0.149,0.055,0.229,0.055h2.101c0.078,0,0.154-0.019,0.225-0.053c1.273-0.638,2.263-1.396,3.064-2.229
		c2.279,0.146,4.033,2.74,4.051,2.768c0.098,0.144,0.256,0.225,0.418,0.225c0.095,0,0.19-0.027,0.274-0.084
		c0.229-0.15,0.294-0.462,0.142-0.691c-0.076-0.116-1.715-2.551-4.111-3.112c0.337-0.437,0.635-0.888,0.904-1.349
		c2.192,0.203,3.621,2.703,3.636,2.729c0.091,0.164,0.262,0.258,0.438,0.258c0.082,0,0.164-0.021,0.241-0.065
		c0.241-0.133,0.328-0.438,0.194-0.678c-0.067-0.121-1.533-2.701-4.002-3.181c0.219-0.435,0.423-0.871,0.615-1.311
		c2.203,0.227,3.789,2.721,3.806,2.748c0.095,0.15,0.258,0.234,0.426,0.234c0.09,0,0.181-0.023,0.263-0.074
		C23.873,19.285,23.945,18.979,23.8,18.742z M9.875,16.077c-0.069,0.032-0.142,0.048-0.214,0.048c-0.188,0-0.367-0.105-0.452-0.286
		l-0.854-1.81c-0.118-0.25-0.011-0.547,0.238-0.666c0.25-0.115,0.549-0.012,0.666,0.24l0.854,1.809
		C10.231,15.661,10.124,15.96,9.875,16.077z M12.5,15.298c0,0.276-0.224,0.5-0.5,0.5c-0.276,0-0.5-0.224-0.5-0.5v-2
		c0-0.276,0.224-0.5,0.5-0.5c0.276,0,0.5,0.224,0.5,0.5V15.298z M14.76,15.839c-0.085,0.181-0.265,0.286-0.451,0.286
		c-0.072,0-0.145-0.016-0.215-0.048c-0.248-0.117-0.356-0.416-0.238-0.665l0.855-1.809c0.118-0.252,0.417-0.356,0.666-0.24
		c0.249,0.119,0.356,0.416,0.237,0.666L14.76,15.839z"/>
</g>
<g id="Outline_Icons">
	<g>
		<path fill="none" stroke="#000000" stroke-linejoin="round" stroke-miterlimit="10" d="M13.471,3.115c0,0,2.793,0.899,3.854,2.82
			c-1.211,0.195-3.059-0.013-3.059-0.013c1.381,2.868,6.822,4.371,7.984,1.298C23.381,4.229,16.994-0.458,13.471,3.115z"/>
		<path fill="none" stroke="#000000" stroke-linejoin="round" stroke-miterlimit="10" d="M13.057,22.792h-2.102
			C6.46,20.481,5.628,16.671,4,13.292c4.604-3.039,11.346-3.055,16,0C18.378,16.732,17.551,20.542,13.057,22.792z"/>
		<path fill="none" stroke="#000000" stroke-linecap="round" stroke-linejoin="round" stroke-miterlimit="10" d="M23.375,19
			c0,0-1.863-3.006-4.547-3.006"/>
		<path fill="none" stroke="#000000" stroke-linecap="round" stroke-linejoin="round" stroke-miterlimit="10" d="M22.094,21.25
			c0,0-1.666-3.006-4.351-3.006"/>
		<path fill="none" stroke="#000000" stroke-linecap="round" stroke-linejoin="round" stroke-miterlimit="10" d="M20.812,23.5
			c0,0-1.983-3.006-4.668-3.006"/>
		<path fill="none" stroke="#000000" stroke-linecap="round" stroke-linejoin="round" stroke-miterlimit="10" d="M0.625,19
			c0,0,1.883-3.006,4.567-3.006"/>
		<path fill="none" stroke="#000000" stroke-linecap="round" stroke-linejoin="round" stroke-miterlimit="10" d="M1.906,21.25
			c0,0,1.666-3.006,4.351-3.006"/>
		<path fill="none" stroke="#000000" stroke-linecap="round" stroke-linejoin="round" stroke-miterlimit="10" d="M3.188,23.5
			c0,0,2.028-3.006,4.712-3.006"/>
		<path fill="none" stroke="#000000" stroke-linecap="round" stroke-linejoin="round" stroke-miterlimit="10" d="M18.219,12.136
			c0,0,3.516-1.328,4.063-5.031"/>
		<path fill="none" stroke="#000000" stroke-linejoin="round" stroke-miterlimit="10" d="M10.529,3.115c0,0-2.792,0.899-3.853,2.82
			C7.887,6.13,9.734,5.922,9.734,5.922c-1.38,2.869-6.822,4.372-7.984,1.299C0.619,4.229,7.006-0.458,10.529,3.115z"/>
		<path fill="none" stroke="#000000" stroke-linecap="round" stroke-linejoin="round" stroke-miterlimit="10" d="M5.688,12.198
			c0,0-3.422-1.391-3.969-5.094"/>
		
			<line fill="none" stroke="#000000" stroke-linecap="round" stroke-linejoin="round" stroke-miterlimit="10" x1="12" y1="13.292" x2="12" y2="15.292"/>
		
			<line fill="none" stroke="#000000" stroke-linecap="round" stroke-linejoin="round" stroke-miterlimit="10" x1="15.161" y1="13.811" x2="14.309" y2="15.619"/>
		
			<line fill="none" stroke="#000000" stroke-linecap="round" stroke-linejoin="round" stroke-miterlimit="10" x1="8.808" y1="13.811" x2="9.661" y2="15.619"/>
	</g>
</g>
</svg>
