<?xml version="1.0" encoding="utf-8"?>
<!-- Generator: Adobe Illustrator 19.2.0, SVG Export Plug-In . SVG Version: 6.00 Build 0)  -->
<svg version="1.1" id="Layer_1" xmlns="http://www.w3.org/2000/svg" xmlns:xlink="http://www.w3.org/1999/xlink" x="0px" y="0px"
	 viewBox="0 0 24 24" style="enable-background:new 0 0 24 24;" xml:space="preserve">
<style type="text/css">
	.st0{display:none;}
	.st1{display:inline;}
	.st2{fill:none;stroke:#000000;stroke-linejoin:round;stroke-miterlimit:10;}
</style>
<g id="Filled_Icon" class="st0">
	<g class="st1">
		<rect x="4" y="13" width="16" height="3"/>
		<rect x="4" y="9" width="16" height="3"/>
		<polygon points="20.5,4.5 20.5,4.5 20.5,4.5 		"/>
		<rect x="4" y="17" width="16" height="3"/>
		<rect x="4" y="5" width="16" height="3"/>
		<polygon points="3.7,21 0.7,24 23.3,24 20.3,21 		"/>
		<polygon points="20.3,4 23.3,1 0.7,1 3.7,4 		"/>
		<polygon points="21,4.7 21,20.3 24,23.3 24,1.7 		"/>
		<polygon points="3,4.7 0,1.7 0,23.3 3,20.3 		"/>
	</g>
</g>
<g id="Outline_Icons">
	<g>
		<line class="st2" x1="3.5" y1="4.5" x2="3.5" y2="20.5"/>
		<line class="st2" x1="20.5" y1="20.5" x2="20.5" y2="4.5"/>
		<line class="st2" x1="3.5" y1="4.5" x2="20.5" y2="4.5"/>
		<line class="st2" x1="3.5" y1="20.5" x2="20.5" y2="20.5"/>
		<rect x="0.5" y="1.5" class="st2" width="23" height="22"/>
		<line class="st2" x1="0.5" y1="1.5" x2="3.5" y2="4.5"/>
		<line class="st2" x1="20.5" y1="4.5" x2="23.5" y2="1.5"/>
		<line class="st2" x1="20.5" y1="20.5" x2="23.5" y2="23.5"/>
		<line class="st2" x1="0.5" y1="23.5" x2="3.5" y2="20.5"/>
		<line class="st2" x1="3.5" y1="8.5" x2="20.5" y2="8.5"/>
		<line class="st2" x1="3.5" y1="12.5" x2="20.5" y2="12.5"/>
		<line class="st2" x1="3.5" y1="16.5" x2="20.5" y2="16.5"/>
	</g>
</g>
</svg>
