<?xml version="1.0" encoding="utf-8"?>
<!-- Generator: Adobe Illustrator 19.2.0, SVG Export Plug-In . SVG Version: 6.00 Build 0)  -->
<svg version="1.1" id="Layer_1" xmlns="http://www.w3.org/2000/svg" xmlns:xlink="http://www.w3.org/1999/xlink" x="0px" y="0px"
	 viewBox="0 0 24 24" style="enable-background:new 0 0 24 24;" xml:space="preserve">
<style type="text/css">
	.st0{display:none;}
	.st1{display:inline;}
	.st2{fill:none;stroke:#000000;stroke-linecap:round;stroke-linejoin:round;stroke-miterlimit:10;}
</style>
<g id="Filled_Icon" class="st0">
	<g class="st1">
		<path d="M21.9,23.1l-2.1-2C19.8,21,19.6,21,19.5,21h-8.6c0-0.2,0.1-0.3,0.1-0.5c0-0.2,0-0.3-0.1-0.5h9.6c0.3,0,0.5-0.2,0.5-0.5v-9
			c0-0.3-0.2-0.5-0.5-0.5h-10c-0.3,0-0.5,0.2-0.5,0.5v7.6c-0.3-0.3-0.6-0.5-1-0.7V0.5C9,0.2,8.8,0,8.5,0h-3C5.2,0,5,0.2,5,0.5
			C5,0.8,5.2,1,5.5,1H8v16.1C7.8,17,7.7,17,7.5,17C5.6,17,4,18.6,4,20.5C4,22.4,5.6,24,7.5,24c1.4,0,2.6-0.8,3.1-2h8.7l1.9,1.9
			c0.1,0.1,0.2,0.1,0.3,0.1c0.1,0,0.3-0.1,0.4-0.2C22.1,23.6,22.1,23.3,21.9,23.1z M16.5,17h2c0.3,0,0.5,0.2,0.5,0.5
			c0,0.3-0.2,0.5-0.5,0.5h-2c-0.3,0-0.5-0.2-0.5-0.5C16,17.2,16.2,17,16.5,17z"/>
		<path d="M10.5,9h7C17.8,9,18,8.8,18,8.5v-5C18,3.2,17.8,3,17.5,3h-7C10.2,3,10,3.2,10,3.5v5C10,8.8,10.2,9,10.5,9z M12.5,6h1
			C13.8,6,14,6.2,14,6.5C14,6.8,13.8,7,13.5,7h-1C12.2,7,12,6.8,12,6.5C12,6.2,12.2,6,12.5,6z"/>
	</g>
</g>
<g id="Outline_Icons">
	<g>
		<circle class="st2" cx="7.5" cy="20.5" r="3"/>
		<polyline class="st2" points="8.5,17.7 8.5,0.5 5.5,0.5 		"/>
		<polyline class="st2" points="10.3,21.5 19.5,21.5 21.6,23.5 		"/>
		<rect x="10.5" y="10.5" class="st2" width="10" height="9"/>
		<rect x="10.5" y="5.5" class="st2" width="7" height="5"/>
		<line class="st2" x1="18.5" y1="17.5" x2="16.5" y2="17.5"/>
		<line class="st2" x1="13.5" y1="8.5" x2="12.5" y2="8.5"/>
	</g>
</g>
</svg>
