<?xml version="1.0" encoding="utf-8"?>
<!-- Generator: Adobe Illustrator 19.2.0, SVG Export Plug-In . SVG Version: 6.00 Build 0)  -->
<svg version="1.1" id="Layer_1" xmlns="http://www.w3.org/2000/svg" xmlns:xlink="http://www.w3.org/1999/xlink" x="0px" y="0px"
	 viewBox="0 0 24 24" style="enable-background:new 0 0 24 24;" xml:space="preserve">
<style type="text/css">
	.st0{display:none;}
	.st1{display:inline;}
	.st2{fill:none;stroke:#000000;stroke-linejoin:round;stroke-miterlimit:10;}
</style>
<g id="Filled_Icon" class="st0">
	<g class="st1">
		<g>
			<path d="M5,0.4C4.9,0.2,4.7,0,4.5,0h-2C2.3,0,2.1,0.2,2,0.4L1.1,5h4.8L5,0.4z"/>
			<rect y="21" width="7" height="3"/>
			<rect y="6" width="7" height="2"/>
			<rect y="9" width="7" height="11"/>
		</g>
		<g>
			<path d="M13,0.4c0-0.2-0.3-0.4-0.5-0.4h-2c-0.2,0-0.4,0.2-0.5,0.4L9.1,5h4.8L13,0.4z"/>
			<rect x="8" y="21" width="7" height="3"/>
			<rect x="8" y="9" width="7" height="11"/>
			<rect x="8" y="6" width="7" height="2"/>
		</g>
		<g>
			<path d="M21,0.4c0-0.2-0.3-0.4-0.5-0.4h-2c-0.2,0-0.4,0.2-0.5,0.4L17.1,5h4.8L21,0.4z"/>
			<rect x="16" y="21" width="7" height="3"/>
			<rect x="16" y="9" width="7" height="11"/>
			<rect x="16" y="6" width="7" height="2"/>
		</g>
	</g>
</g>
<g id="Outline_Icons">
	<g>
		<rect x="0.5" y="5.5" class="st2" width="6" height="18"/>
		<rect x="8.5" y="5.5" class="st2" width="6" height="18"/>
		<rect x="16.5" y="5.5" class="st2" width="6" height="18"/>
		<polygon class="st2" points="4.5,0.5 2.5,0.5 1.5,5.5 5.5,5.5 		"/>
		<line class="st2" x1="0.5" y1="8.5" x2="6.5" y2="8.5"/>
		<line class="st2" x1="0.5" y1="20.5" x2="6.5" y2="20.5"/>
		<polygon class="st2" points="12.5,0.5 10.5,0.5 9.5,5.5 13.5,5.5 		"/>
		<line class="st2" x1="8.5" y1="8.5" x2="14.5" y2="8.5"/>
		<line class="st2" x1="8.5" y1="20.5" x2="14.5" y2="20.5"/>
		<polygon class="st2" points="20.5,0.5 18.5,0.5 17.5,5.5 21.5,5.5 		"/>
		<line class="st2" x1="16.5" y1="8.5" x2="22.5" y2="8.5"/>
		<line class="st2" x1="16.5" y1="20.5" x2="22.5" y2="20.5"/>
	</g>
</g>
</svg>
