<?xml version="1.0" encoding="utf-8"?>
<!-- Generator: Adobe Illustrator 19.2.0, SVG Export Plug-In . SVG Version: 6.00 Build 0)  -->
<svg version="1.1" id="Layer_1" xmlns="http://www.w3.org/2000/svg" xmlns:xlink="http://www.w3.org/1999/xlink" x="0px" y="0px"
	 viewBox="0 0 24 24" style="enable-background:new 0 0 24 24;" xml:space="preserve">
<style type="text/css">
	.st0{display:none;}
	.st1{display:inline;}
	.st2{fill:none;stroke:#000000;stroke-linejoin:round;stroke-miterlimit:10;}
</style>
<g id="Filled_Icons" class="st0">
	<g class="st1">
		<path d="M19.3,8.5c1.2-2.4,0.9-5.1-0.8-8.2C18.4,0.1,18.2,0,18,0c-0.2,0-0.3,0.1-0.4,0.2l-0.2,0.3C16.5,2,15.5,3.6,12,3.6
			c-5.4,0-6.9,3.1-7.3,4.9H19.3z"/>
		<path d="M19.5,9.5h-15h0C3.1,9.5,2,10.6,2,12h20C22,10.6,20.9,9.5,19.5,9.5z"/>
		<path d="M23.5,13h-23C0.2,13,0,13.2,0,13.5v6C0,20.9,1.1,22,2.5,22h19c1.4,0,2.5-1.1,2.5-2.5v-6C24,13.2,23.8,13,23.5,13z
			 M20,19.5c0,0.3-0.2,0.5-0.5,0.5h-15C4.2,20,4,19.8,4,19.5v-4C4,15.2,4.2,15,4.5,15h15c0.3,0,0.5,0.2,0.5,0.5V19.5z"/>
	</g>
</g>
<g id="Outline_Icons">
	<g>
		<path class="st2" d="M23.5,19.5c0,1.1-0.9,2-2,2h-19c-1.1,0-2-0.9-2-2v-6h23V19.5z"/>
		<path class="st2" d="M21.5,12.5c0-1.1-0.9-2-2-2h-15c-1.1,0-2,0.9-2,2v1h19V12.5z"/>
		<rect x="4.5" y="15.5" class="st2" width="15" height="4"/>
		<path class="st2" d="M5,10.5c0,0,0-5.5,7-5.5c4,0,5-2,6-3.6c2,3.6,2,6.6,0,9.1C14,10.5,5,10.5,5,10.5z"/>
	</g>
</g>
</svg>
