<?xml version="1.0" encoding="utf-8"?>
<!-- Generator: Adobe Illustrator 19.2.0, SVG Export Plug-In . SVG Version: 6.00 Build 0)  -->
<svg version="1.1" id="Layer_1" xmlns="http://www.w3.org/2000/svg" xmlns:xlink="http://www.w3.org/1999/xlink" x="0px" y="0px"
	 viewBox="0 0 24 24" style="enable-background:new 0 0 24 24;" xml:space="preserve">
<style type="text/css">
	.st0{display:none;}
	.st1{display:inline;}
	.st2{fill:none;stroke:#000000;stroke-linecap:round;stroke-linejoin:round;stroke-miterlimit:10;}
</style>
<g id="Filled_Icon" class="st0">
	<g class="st1">
		<path d="M18.2,10.5L18.2,10.5c-0.1,0-0.3,0.7-0.4,1l-0.5,1h1.1l-0.1-1C18.2,11.2,18.2,10.5,18.2,10.5z"/>
		<path d="M21.5,3h-19C1.1,3,0,4.1,0,5.5v13C0,19.9,1.1,21,2.5,21h19c1.4,0,2.5-1.1,2.5-2.5v-13C24,4.1,22.9,3,21.5,3z M13.3,12.4
			c-0.5-0.3-1.1-0.7-1.1-1.3c0-1,0.9-1.6,2-1.6c0.6,0,1,0.1,1.2,0.3l-0.3,0.9c-0.2-0.1-0.5-0.2-0.9-0.2c-0.5,0-0.8,0.3-0.8,0.5
			c0,0.3,0.3,0.5,0.7,0.7c0.6,0.3,1,0.7,1,1.3c0,1.1-0.9,1.7-2.1,1.7c-0.7,0-1.2-0.2-1.4-0.4l0.4-0.9c0.3,0.2,0.7,0.3,1.2,0.3
			c0.4,0,0.8-0.2,0.8-0.6C14,12.8,13.8,12.6,13.3,12.4z M10.8,14.5H9.7l1-5h1.1L10.8,14.5z M7.5,14.5H6.2l-0.5-4H4.9
			c-0.3,0-0.5-0.2-0.5-0.5c0-0.3,0.2-0.5,0.5-0.5h1.3c0,0,0,0,0,0h0.5l0.2,2.4C7,12.5,7,13,7.1,13.5h0c0.2-0.5,0.4-1.1,0.7-1.6
			l1.1-2.4h1.2L7.5,14.5z M18.5,14.5L18.4,13H17l-0.6,1.5h-1.1l2.5-5h1.4l0.6,5H18.5z"/>
	</g>
</g>
<g id="Outline_Icons">
	<g>
		<g>
			<path class="st2" d="M23.5,18.5c0,1.1-0.9,2-2,2h-19c-1.1,0-2-0.9-2-2v-13c0-1.1,0.9-2,2-2h19c1.1,0,2,0.9,2,2V18.5z"/>
		</g>
		<g>
			<polyline class="st2" points="5,10 6.2,10 6.6,14 7.3,14 9.3,9.9 			"/>
			<line class="st2" x1="11.1" y1="10" x2="10.3" y2="14"/>
			<path class="st2" d="M14.8,9.9c0,0-1.4-0.4-1.8,0.4c-0.5,0.8,0.3,1.3,0.8,1.6c0.5,0.3,1,0.8,0.9,1.3c-0.1,0.5-0.7,1.3-2.3,0.8"/>
			<polyline class="st2" points="16,14 17.9,10 18.7,10 19,14 			"/>
			<line class="st2" x1="16.6" y1="12.8" x2="18.9" y2="12.8"/>
		</g>
	</g>
</g>
</svg>
