<?xml version="1.0" encoding="utf-8"?>
<!-- Generator: Adobe Illustrator 19.2.0, SVG Export Plug-In . SVG Version: 6.00 Build 0)  -->
<svg version="1.1" id="Layer_1" xmlns="http://www.w3.org/2000/svg" xmlns:xlink="http://www.w3.org/1999/xlink" x="0px" y="0px"
	 viewBox="0 0 24 24" style="enable-background:new 0 0 24 24;" xml:space="preserve">
<style type="text/css">
	.st0{display:none;}
	.st1{display:inline;}
	.st2{fill:none;stroke:#000000;stroke-linecap:round;stroke-linejoin:round;stroke-miterlimit:10;}
</style>
<g id="Filled_Icon" class="st0">
	<g class="st1">
		<g>
			<path d="M18,3V2.5C18,1.1,16.9,0,15.5,0h0h-13h0C1.1,0,0,1.1,0,2.5V3H18z"/>
			<path d="M11.5,13c1.4-1.8,3.5-3,6-3c0.2,0,0.3,0,0.5,0V4H0v6.5C0,11.9,1.1,13,2.5,13h4H11.5L11.5,13z M13.5,5h2
				C15.8,5,16,5.2,16,5.5C16,5.8,15.8,6,15.5,6h-2C13.2,6,13,5.8,13,5.5C13,5.2,13.2,5,13.5,5z M6.5,8h-3C3.2,8,3,7.8,3,7.5
				C3,7.2,3.2,7,3.5,7h3C6.8,7,7,7.2,7,7.5C7,7.8,6.8,8,6.5,8z M8.5,6h-5C3.2,6,3,5.8,3,5.5C3,5.2,3.2,5,3.5,5h5C8.8,5,9,5.2,9,5.5
				C9,5.8,8.8,6,8.5,6z"/>
		</g>
		<path d="M17.5,11c-3.6,0-6.5,2.9-6.5,6.5s2.9,6.5,6.5,6.5s6.5-2.9,6.5-6.5S21.1,11,17.5,11z M21.5,19.2c-0.6,1.6-2.1,2.7-3.8,2.7
			c-1.1,0-2.2-0.5-3-1.2v0.3c0,0.3-0.2,0.5-0.5,0.5c-0.3,0-0.5-0.2-0.5-0.5V19c0-0.3,0.2-0.5,0.5-0.5h1.9c0.3,0,0.5,0.2,0.5,0.5
			c0,0.3-0.2,0.5-0.5,0.5h-1.1c0.6,0.8,1.6,1.3,2.6,1.3c1.3,0,2.4-0.8,2.8-2c0.1-0.3,0.4-0.4,0.6-0.3C21.4,18.6,21.6,18.9,21.5,19.2
			z M21.5,16.5c0,0.3-0.2,0.5-0.5,0.5h-1.9c-0.3,0-0.5-0.2-0.5-0.5c0-0.3,0.2-0.5,0.5-0.5h1.1c-0.6-0.8-1.6-1.3-2.6-1.3
			c-1.3,0-2.4,0.8-2.8,2c-0.1,0.2-0.3,0.3-0.5,0.3c-0.1,0-0.1,0-0.2,0c-0.3-0.1-0.4-0.4-0.3-0.6c0.6-1.6,2.1-2.7,3.8-2.7
			c1.1,0,2.2,0.5,3,1.2v-0.3c0-0.3,0.2-0.5,0.5-0.5c0.3,0,0.5,0.2,0.5,0.5L21.5,16.5L21.5,16.5z"/>
	</g>
</g>
<g id="Outline_Icons">
	<g>
		<g>
			<path class="st2" d="M11.5,12.5h-9c-1.1,0-2-0.9-2-2v-8c0-1.1,0.9-2,2-2h13c1.1,0,2,0.9,2,2v4"/>
			<line class="st2" x1="0.5" y1="3.5" x2="17.5" y2="3.5"/>
			<line class="st2" x1="8.5" y1="5.5" x2="3.5" y2="5.5"/>
			<line class="st2" x1="15.5" y1="5.5" x2="13.5" y2="5.5"/>
			<line class="st2" x1="6.5" y1="7.5" x2="3.5" y2="7.5"/>
		</g>
		<polyline class="st2" points="23.5,13 23.5,15.5 21,15.5 		"/>
		<polyline class="st2" points="14.5,20.5 14.5,18.5 16.5,18.5 		"/>
		<path class="st2" d="M14.8,15.5c0.6-1.7,2.3-3,4.2-3c2,0,3.8,1.2,4.5,3"/>
		<path class="st2" d="M23.2,18.5c-0.6,1.7-2.3,3-4.2,3s-3.9-1.2-4.5-3"/>
	</g>
</g>
</svg>
