<?xml version="1.0" encoding="utf-8"?>
<!-- Generator: Adobe Illustrator 19.2.0, SVG Export Plug-In . SVG Version: 6.00 Build 0)  -->
<svg version="1.1" id="Layer_1" xmlns="http://www.w3.org/2000/svg" xmlns:xlink="http://www.w3.org/1999/xlink" x="0px" y="0px"
	 viewBox="0 0 24 24" style="enable-background:new 0 0 24 24;" xml:space="preserve">
<style type="text/css">
	.st0{display:none;}
	.st1{display:inline;}
	.st2{fill:none;stroke:#000000;stroke-linecap:round;stroke-linejoin:round;stroke-miterlimit:10;}
</style>
<g id="Filled_Icon" class="st0">
	<g class="st1">
		<path d="M14.5,15.5c0-0.8,0.7-1.5,1.5-1.5c0.8,0,1.5,0.7,1.5,1.5c0,0.5,0.2,0.9,0.5,1.2v-3.5c-1.5-0.5-2.8-1.7-3.2-3.3H0v7.5
			C0,18.9,1.1,20,2.5,20h14.9C15.7,19.2,14.5,17.5,14.5,15.5z M6.5,15h-3C3.2,15,3,14.8,3,14.5C3,14.2,3.2,14,3.5,14h3
			C6.8,14,7,14.2,7,14.5C7,14.8,6.8,15,6.5,15z M11.5,13h-8C3.2,13,3,12.8,3,12.5C3,12.2,3.2,12,3.5,12h8c0.3,0,0.5,0.2,0.5,0.5
			C12,12.8,11.8,13,11.5,13z"/>
		<path d="M14.5,8.6c0-1.4,0.6-2.7,1.5-3.6H2.5C1.1,5,0,6.1,0,7.5V9h14.6C14.6,8.9,14.5,8.7,14.5,8.6z"/>
		<path d="M20,11.6l0-5.9c1.4,0.2,2.5,1.5,2.5,2.9c0,0.3,0.2,0.5,0.5,0.5c0.3,0,0.5-0.2,0.5-0.5c0-2-1.5-3.7-3.5-3.9L20,3
			c0-0.3-0.2-0.5-0.5-0.5C19.2,2.5,19,2.7,19,3l0,1.6c-2,0.2-3.5,1.9-3.5,3.9c0,2,1.5,3.7,3.5,3.9l0,5.9c-1.4-0.2-2.5-1.5-2.5-2.9
			c0-0.3-0.2-0.5-0.5-0.5c-0.3,0-0.5,0.2-0.5,0.5c0,2,1.5,3.7,3.5,3.9V21c0,0.3,0.2,0.5,0.5,0.5c0.3,0,0.5-0.2,0.5-0.5v-1.6
			c2-0.2,3.5-1.9,3.5-3.9S22,11.8,20,11.6z M16.5,8.6c0-1.5,1.1-2.7,2.5-2.9l0,5.8C17.6,11.2,16.5,10,16.5,8.6z M20,18.4l0-5.8
			c1.4,0.2,2.5,1.5,2.5,2.9C22.5,17,21.4,18.2,20,18.4z"/>
	</g>
</g>
<g id="Outline_Icons">
	<g>
		<path class="st2" d="M14.5,19.5h-12c-1.1,0-2-0.9-2-2v-10c0-1.1,0.9-2,2-2h11"/>
		<line class="st2" x1="0.5" y1="9.5" x2="13.5" y2="9.5"/>
		<line class="st2" x1="11.5" y1="12.5" x2="3.5" y2="12.5"/>
		<line class="st2" x1="6.5" y1="14.5" x2="3.5" y2="14.5"/>
		<path class="st2" d="M16,15.5c0,1.9,1.6,3.5,3.5,3.5c1.9,0,3.5-1.6,3.5-3.5c0-1.9-1.6-3.5-3.5-3.5c-1.9,0-3.5-1.6-3.5-3.5
			c0-1.9,1.6-3.5,3.5-3.5c1.9,0,3.5,1.6,3.5,3.5"/>
		<line class="st2" x1="19.5" y1="3" x2="19.5" y2="21"/>
	</g>
</g>
</svg>
