<?xml version="1.0" encoding="utf-8"?>
<!-- Generator: Adobe Illustrator 19.2.0, SVG Export Plug-In . SVG Version: 6.00 Build 0)  -->
<svg version="1.1" id="Layer_1" xmlns="http://www.w3.org/2000/svg" xmlns:xlink="http://www.w3.org/1999/xlink" x="0px" y="0px"
	 viewBox="0 0 24 24" style="enable-background:new 0 0 24 24;" xml:space="preserve">
<style type="text/css">
	.st0{display:none;}
	.st1{display:inline;}
	.st2{fill:none;stroke:#000000;stroke-linecap:round;stroke-linejoin:round;stroke-miterlimit:10;}
</style>
<g id="Filled_Icon" class="st0">
	<g class="st1">
		<polygon points="4.3,12.5 5.5,12.5 4.9,11.1 		"/>
		<path d="M21.5,3h-19C1.1,3,0,4.1,0,5.5v13C0,19.9,1.1,21,2.5,21h19c1.4,0,2.5-1.1,2.5-2.5v-13C24,4.1,22.9,3,21.5,3z M6.1,14
			l-0.3-1H4.1l-0.3,1H2.5l1.7-4h1.3l1.7,4H6.1z M12.5,14H11v-2.3L10.1,13H10l-1-1.3V14H8v-4h0.9l1.2,1.5l1.2-1.5h1.2V14z M16.5,14
			h-3v-4H16v1h-1.5v0.5H16v1h-1.5V13h2V14z M19.9,14l-0.4-0.5c0,0-0.1-0.1-0.2-0.3C19.1,13,19,12.9,19,12.8
			c-0.2,0.3-0.4,0.5-0.6,0.7L18.1,14h-1.5l1.7-2.1L16.7,10h1.5l0.3,0.4c0.2,0.2,0.3,0.5,0.6,0.7c0.2-0.3,0.4-0.6,0.5-0.7l0.3-0.4
			h1.5l-1.5,1.9l1.7,2.1H19.9z"/>
	</g>
</g>
<g id="Outline_Icons">
	<g>
		<path class="st2" d="M23.5,18.5c0,1.1-0.9,2-2,2h-19c-1.1,0-2-0.9-2-2v-13c0-1.1,0.9-2,2-2h19c1.1,0,2,0.9,2,2V18.5z"/>
		<g>
			<g>
				<path d="M5.6,10H4.3l-1.7,4h1.2l0.3-1h1.7l0.3,1h1.2L5.6,10L5.6,10z M4.3,12.5l0.6-1.4l0.6,1.4H4.3L4.3,12.5z"/>
			</g>
			<g>
				<polygon points="12.5,10 11.3,10 10.1,11.5 8.9,10 8,10 8,14 9,14 9,11.7 10,13 10.1,13 11,11.7 11,14 12.5,14 				"/>
			</g>
			<g>
				<polygon points="16,10 13.5,10 13.5,14 16.5,14 16.5,13 14.5,13 14.5,12.5 16,12.5 16,11.5 14.5,11.5 14.5,11 16,11 				"/>
			</g>
			<g>
				<path d="M21.3,10h-1.5l-0.3,0.4c-0.1,0.1-0.3,0.4-0.5,0.7c-0.2-0.3-0.4-0.5-0.6-0.7L18.2,10h-1.5l1.6,1.9L16.6,14h1.5l0.4-0.4
					c0.1-0.2,0.3-0.4,0.6-0.7c0,0.1,0.1,0.2,0.3,0.4c0.2,0.2,0.2,0.3,0.2,0.3l0.4,0.5h1.5l-1.7-2.1L21.3,10L21.3,10z"/>
			</g>
		</g>
	</g>
</g>
</svg>
