<?xml version="1.0" encoding="utf-8"?>
<!-- Generator: Adobe Illustrator 19.2.0, SVG Export Plug-In . SVG Version: 6.00 Build 0)  -->
<svg version="1.1" id="Layer_1" xmlns="http://www.w3.org/2000/svg" xmlns:xlink="http://www.w3.org/1999/xlink" x="0px" y="0px"
	 viewBox="0 0 24 24" style="enable-background:new 0 0 24 24;" xml:space="preserve">
<style type="text/css">
	.st0{display:none;}
	.st1{display:inline;}
	.st2{fill:none;stroke:#000000;stroke-linecap:round;stroke-linejoin:round;stroke-miterlimit:10;}
	.st3{fill:none;stroke:#000000;stroke-linejoin:round;stroke-miterlimit:10;}
</style>
<g id="Filled_Icon" class="st0">
	<g class="st1">
		<path d="M18,9V4H0v6.5C0,11.9,1.1,13,2.5,13H14C14.3,10.9,15.9,9.3,18,9z M6.5,8h-3C3.2,8,3,7.8,3,7.5C3,7.2,3.2,7,3.5,7h3
			C6.8,7,7,7.2,7,7.5C7,7.8,6.8,8,6.5,8z M8.5,6h-5C3.2,6,3,5.8,3,5.5C3,5.2,3.2,5,3.5,5h5C8.8,5,9,5.2,9,5.5C9,5.8,8.8,6,8.5,6z
			 M13,5.5C13,5.2,13.2,5,13.5,5h2C15.8,5,16,5.2,16,5.5C16,5.8,15.8,6,15.5,6h-2C13.2,6,13,5.8,13,5.5z"/>
		<path d="M18,2.5C18,1.1,16.9,0,15.5,0h-13C1.1,0,0,1.1,0,2.5V3h18V2.5z"/>
		<path d="M23.5,15H22v-1.5c0-1.9-1.6-3.5-3.5-3.5c-1.9,0-3.5,1.6-3.5,3.5V15h-1.5c-0.3,0-0.5,0.2-0.5,0.5v8c0,0.3,0.2,0.5,0.5,0.5
			h10c0.3,0,0.5-0.2,0.5-0.5v-8C24,15.2,23.8,15,23.5,15z M19,19.9c0,0,0,0.1,0,0.1v1.5c0,0.3-0.2,0.5-0.5,0.5
			c-0.3,0-0.5-0.2-0.5-0.5V20c0,0,0-0.1,0-0.1c-0.3-0.2-0.5-0.5-0.5-0.9c0-0.6,0.4-1,1-1c0.6,0,1,0.4,1,1
			C19.5,19.4,19.3,19.7,19,19.9z M21,15h-5v-1.5c0-1.4,1.1-2.5,2.5-2.5c1.4,0,2.5,1.1,2.5,2.5V15z"/>
	</g>
</g>
<g id="Outline_Icons">
	<g>
		<path class="st2" d="M11.5,12.5h-9c-1.1,0-2-0.9-2-2v-8c0-1.1,0.9-2,2-2h13c1.1,0,2,0.9,2,2v4"/>
		<line class="st2" x1="0.5" y1="3.5" x2="17.5" y2="3.5"/>
		<line class="st2" x1="8.5" y1="5.5" x2="3.5" y2="5.5"/>
		<line class="st2" x1="15.5" y1="5.5" x2="13.5" y2="5.5"/>
		<line class="st2" x1="6.5" y1="7.5" x2="3.5" y2="7.5"/>
		<rect x="13.5" y="15.5" class="st2" width="10" height="8"/>
		<line class="st2" x1="18.5" y1="21.5" x2="18.5" y2="19.5"/>
		<path class="st2" d="M15.5,15.5v-2c0-1.7,1.3-3,3-3c1.7,0,3,1.3,3,3v2"/>
		<path class="st3" d="M19,19c0,0.3-0.2,0.5-0.5,0.5l0,0c-0.3,0-0.5-0.2-0.5-0.5l0,0c0-0.3,0.2-0.5,0.5-0.5l0,0
			C18.8,18.5,19,18.7,19,19L19,19z"/>
	</g>
</g>
</svg>
