<?xml version="1.0" encoding="utf-8"?>
<!-- Generator: Adobe Illustrator 19.2.0, SVG Export Plug-In . SVG Version: 6.00 Build 0)  -->
<svg version="1.1" id="Outline_Icons" xmlns="http://www.w3.org/2000/svg" xmlns:xlink="http://www.w3.org/1999/xlink" x="0px"
	 y="0px" viewBox="0 0 24 24" style="enable-background:new 0 0 24 24;" xml:space="preserve">
<style type="text/css">
	.st0{fill:none;stroke:#000000;stroke-linecap:round;stroke-linejoin:round;stroke-miterlimit:10;}
</style>
<g>
	<path class="st0" d="M23.5,18.5c0,1.1-0.9,2-2,2h-19c-1.1,0-2-0.9-2-2v-13c0-1.1,0.9-2,2-2h19c1.1,0,2,0.9,2,2V18.5z"/>
	<path class="st0" d="M12.3,9.3c0.9-1.1,2.2-1.8,3.8-1.8c2.7,0,4.9,2.2,4.9,4.9s-2.2,4.9-4.9,4.9c-1.5,0-2.8-0.6-3.7-1.7"/>
	<g>
		<g>
			<polygon points="7,9 6,9 6,10 7,10 			"/>
		</g>
	</g>
	<g>
		<g>
			<polygon points="11,9 10,9 10,10 11,10 			"/>
		</g>
	</g>
	<g>
		<g>
			<polygon points="11,11 10,11 10,12 11,12 			"/>
		</g>
	</g>
	<g>
		<g>
			<polygon points="11,13 10,13 10,14 11,14 			"/>
		</g>
	</g>
	<g>
		<g>
			<polygon points="11,15 10,15 10,16 11,16 			"/>
		</g>
	</g>
	<g>
		<g>
			<polygon points="7,11 6,11 6,12 7,12 			"/>
		</g>
	</g>
	<g>
		<g>
			<polygon points="7,13 6,13 6,14 7,14 			"/>
		</g>
	</g>
	<g>
		<g>
			<polygon points="7,15 6,15 6,16 7,16 			"/>
		</g>
	</g>
	<g>
		<g>
			<polygon points="9,10 8,10 8,11 9,11 			"/>
		</g>
	</g>
	<g>
		<g>
			<polygon points="9,7.5 8,7.5 8,9 9,9 			"/>
		</g>
	</g>
	<g>
		<g>
			<polygon points="9,12 8,12 8,13 9,13 			"/>
		</g>
	</g>
	<g>
		<g>
			<polygon points="13,12 12,12 12,13 13,13 			"/>
		</g>
	</g>
	<g>
		<g>
			<polygon points="9,14 8,14 8,15 9,15 			"/>
		</g>
	</g>
	<g>
		<g>
			<polygon points="9,16 8,16 8,17 9,17 			"/>
		</g>
	</g>
	<g>
		<g>
			<polygon points="5,12 4,12 4,13 5,13 			"/>
		</g>
	</g>
	<g>
		<g>
			<polygon points="5,14 4,14 4,15 5,15 			"/>
		</g>
	</g>
	<g>
		<g>
			<polygon points="13,14 12,14 12,15 13,15 			"/>
		</g>
	</g>
	<g>
		<g>
			<path d="M12.5,10H12v1h1v-0.1C12.9,10.6,12.7,10.3,12.5,10L12.5,10z"/>
		</g>
	</g>
	<g>
		<g>
			<path d="M11,16.5h-1v1h0.6c0.1-0.1,0.2-0.1,0.4-0.2V16.5L11,16.5z"/>
		</g>
	</g>
	<g>
		<g>
			<path d="M7,16.5H6v0.8c0.1,0.1,0.2,0.1,0.3,0.2H7V16.5L7,16.5z"/>
		</g>
	</g>
	<g>
		<g>
			<path d="M5,10H4.5c-0.2,0.3-0.4,0.5-0.5,0.8V11h1V10L5,10z"/>
		</g>
	</g>
	<circle class="st0" cx="8.5" cy="12.5" r="5"/>
</g>
</svg>
