<?xml version="1.0" encoding="utf-8"?>
<!-- Generator: Adobe Illustrator 19.2.0, SVG Export Plug-In . SVG Version: 6.00 Build 0)  -->
<svg version="1.1" id="Layer_1" xmlns="http://www.w3.org/2000/svg" xmlns:xlink="http://www.w3.org/1999/xlink" x="0px" y="0px"
	 viewBox="0 0 24 24" style="enable-background:new 0 0 24 24;" xml:space="preserve">
<style type="text/css">
	.st0{display:none;}
	.st1{display:inline;}
	.st2{fill:none;stroke:#000000;stroke-linecap:round;stroke-linejoin:round;stroke-miterlimit:10;}
</style>
<g id="Filled_Icon" class="st0">
	<g class="st1">
		<path d="M21.5,5h-19C1.1,5,0,6.1,0,7.5V9h24V7.5C24,6.1,22.9,5,21.5,5z"/>
		<path d="M0,17.5C0,18.9,1.1,20,2.5,20h19c1.4,0,2.5-1.1,2.5-2.5V10H0V17.5z M17.5,12h3c0.3,0,0.5,0.2,0.5,0.5
			c0,0.3-0.2,0.5-0.5,0.5h-3c-0.3,0-0.5-0.2-0.5-0.5C17,12.2,17.2,12,17.5,12z M3.5,12h8c0.3,0,0.5,0.2,0.5,0.5
			c0,0.3-0.2,0.5-0.5,0.5h-8C3.2,13,3,12.8,3,12.5C3,12.2,3.2,12,3.5,12z M3.5,14h3C6.8,14,7,14.2,7,14.5C7,14.8,6.8,15,6.5,15h-3
			C3.2,15,3,14.8,3,14.5C3,14.2,3.2,14,3.5,14z"/>
	</g>
</g>
<g id="Outline_Icons">
	<g>
		<path class="st2" d="M23.5,17.5c0,1.1-0.9,2-2,2h-19c-1.1,0-2-0.9-2-2v-10c0-1.1,0.9-2,2-2h19c1.1,0,2,0.9,2,2V17.5z"/>
		<line class="st2" x1="0.5" y1="9.5" x2="23.5" y2="9.5"/>
		<line class="st2" x1="20.5" y1="12.5" x2="17.5" y2="12.5"/>
		<line class="st2" x1="11.5" y1="12.5" x2="3.5" y2="12.5"/>
		<line class="st2" x1="6.5" y1="14.5" x2="3.5" y2="14.5"/>
	</g>
</g>
</svg>
