<?xml version="1.0" encoding="utf-8"?>
<!-- Generator: Adobe Illustrator 19.2.0, SVG Export Plug-In . SVG Version: 6.00 Build 0)  -->
<svg version="1.1" id="Layer_1" xmlns="http://www.w3.org/2000/svg" xmlns:xlink="http://www.w3.org/1999/xlink" x="0px" y="0px"
	 viewBox="0 0 24 24" enable-background="new 0 0 24 24" xml:space="preserve">
<g id="Filled_Icons" display="none">
	<g display="inline">
		<path d="M6.023,12.619c0.301-0.053,0.613-0.049,0.922,0.033l2.002,0.547c0.262-0.111,0.546-0.178,0.846-0.178h4.292
			c0.317,0,0.618,0.072,0.893,0.197L17,12.669v-1.663h1c1.626,0,3-1.362,3-3c0-1.654-1.346-3-3-3h-1v-0.5c0-0.276-0.225-0.5-0.5-0.5
			h-10c-0.276,0-0.5,0.224-0.5,0.5v8.098C6.009,12.607,6.015,12.615,6.023,12.619z M17,6.006h1c1.103,0,2,0.896,2,2
			c0,1.103-0.897,2-2,2h-1V6.006z"/>
		<path d="M19.538,13.753l1.774,3.463c0.041,0.082,0.069,0.168,0.102,0.253c1.453-2.207,1.749-4.91,1.214-6.203
			c-0.296-0.715-0.772-0.821-1.032-0.821c-0.812,0-1.227,0.699-1.628,1.376c-0.26,0.438-0.543,0.906-0.95,1.283
			C19.227,13.281,19.407,13.497,19.538,13.753z"/>
		<path d="M2.687,17.217l1.775-3.464c0.131-0.255,0.312-0.472,0.521-0.647c-0.407-0.379-0.691-0.848-0.951-1.285
			c-0.401-0.677-0.816-1.376-1.628-1.376c-0.259,0-0.736,0.106-1.032,0.821c-0.535,1.292-0.239,3.996,1.214,6.203
			C2.617,17.384,2.645,17.299,2.687,17.217z"/>
		<path d="M6.095,19.291l1.654-4.799C7.807,14.307,7.896,14.137,8,13.979L6.685,13.62c-0.531-0.14-1.085,0.106-1.333,0.59
			l-1.774,3.463c-0.273,0.535-0.098,1.181,0.408,1.503c0.447,0.285,1.176,0.696,2.023,0.986C5.979,19.876,6.003,19.581,6.095,19.291
			z"/>
		<path d="M20.423,17.672l-1.774-3.463c-0.248-0.484-0.808-0.732-1.334-0.59l-1.424,0.389c0.104,0.16,0.191,0.334,0.252,0.523
			l1.629,4.723c0.103,0.32,0.121,0.641,0.084,0.949c0.904-0.291,1.688-0.729,2.16-1.028C20.521,18.854,20.695,18.207,20.423,17.672z
			"/>
		<path d="M16.826,19.58l-1.639-4.749c-0.151-0.483-0.596-0.81-1.103-0.81H9.793c-0.508,0-0.951,0.324-1.099,0.795l-1.646,4.775
			c-0.186,0.586,0.12,1.217,0.697,1.432c1.39,0.521,2.801,0.785,4.194,0.785c1.393,0,2.804-0.266,4.193-0.785
			C16.71,20.807,17.018,20.178,16.826,19.58z"/>
	</g>
</g>
<g id="Outline_Icons">
	<g>
		<path fill="none" stroke="#000000" stroke-linejoin="round" stroke-miterlimit="10" d="M18.025,14.209
			c2.341-0.637,2.369-3.271,3.57-3.271c1.198,0,1.239,4.652-1.523,7.416"/>
		<path fill="none" stroke="#000000" stroke-linejoin="round" stroke-miterlimit="10" d="M14.728,14.836l2.717-0.74
			c0.301-0.08,0.615,0.059,0.758,0.336l1.774,3.463c0.154,0.301,0.055,0.672-0.23,0.853c-0.688,0.438-1.995,1.149-3.348,1.24"/>
		<path fill="none" stroke="#000000" stroke-linejoin="round" stroke-miterlimit="10" d="M5.973,14.209
			c-2.339-0.637-2.368-3.271-3.568-3.271c-1.199,0-1.24,4.652,1.523,7.416"/>
		<path fill="none" stroke="#000000" stroke-linejoin="round" stroke-miterlimit="10" d="M9.271,14.836l-2.718-0.74
			c-0.3-0.08-0.615,0.059-0.757,0.336l-1.774,3.463c-0.154,0.301-0.054,0.672,0.231,0.853c0.687,0.438,1.995,1.149,3.347,1.24"/>
		<path fill="none" stroke="#000000" stroke-linejoin="round" stroke-miterlimit="10" d="M14.711,14.975
			c-0.086-0.273-0.34-0.459-0.626-0.459H9.793c-0.286,0-0.54,0.186-0.626,0.459l-1.643,4.764c-0.105,0.332,0.068,0.689,0.396,0.812
			c2.679,1.004,5.357,1.004,8.036,0c0.327-0.123,0.502-0.481,0.396-0.812L14.711,14.975z"/>
		<polyline fill="none" stroke="#000000" stroke-linecap="round" stroke-linejoin="round" stroke-miterlimit="10" points="6.5,14 
			6.5,4.5 16.5,4.5 16.5,14.354 		"/>
		<path fill="none" stroke="#000000" stroke-linecap="round" stroke-linejoin="round" stroke-miterlimit="10" d="M16.5,5.5H18
			c1.381,0,2.5,1.119,2.5,2.5c0,1.381-1.119,2.5-2.5,2.5h-1.5"/>
	</g>
</g>
</svg>
