<?xml version="1.0" encoding="utf-8"?>
<!-- Generator: Adobe Illustrator 19.2.0, SVG Export Plug-In . SVG Version: 6.00 Build 0)  -->
<svg version="1.1" id="Layer_1" xmlns="http://www.w3.org/2000/svg" xmlns:xlink="http://www.w3.org/1999/xlink" x="0px" y="0px"
	 viewBox="0 0 24 24" style="enable-background:new 0 0 24 24;" xml:space="preserve">
<style type="text/css">
	.st0{display:none;}
	.st1{display:inline;}
	.st2{fill:none;stroke:#000000;stroke-linecap:round;stroke-linejoin:round;stroke-miterlimit:10;}
</style>
<g id="Filled_Icon" class="st0">
	<g class="st1">
		<g>
			<path d="M16.5,16c-0.3,0-0.5,0.2-0.5,0.5c0,0.3,0.2,0.5,0.5,0.5c0.3,0,0.5-0.2,0.5-0.5C17,16.2,16.8,16,16.5,16L16.5,16z"/>
		</g>
	</g>
	<g class="st1">
		<path d="M8.5,23H8v-0.5C8,22.2,7.8,22,7.5,22C7.2,22,7,22.2,7,22.5v1C7,23.8,7.2,24,7.5,24h1C8.8,24,9,23.8,9,23.5
			C9,23.2,8.8,23,8.5,23z"/>
		<path d="M23.5,22c-0.3,0-0.5,0.2-0.5,0.5V23h-0.5c-0.3,0-0.5,0.2-0.5,0.5c0,0.3,0.2,0.5,0.5,0.5h1c0.3,0,0.5-0.2,0.5-0.5v-1
			C24,22.2,23.8,22,23.5,22z"/>
		<path d="M7.5,21C7.8,21,8,20.8,8,20.5v-1C8,19.2,7.8,19,7.5,19C7.2,19,7,19.2,7,19.5v1C7,20.8,7.2,21,7.5,21z"/>
		<path d="M11.5,23h-1c-0.3,0-0.5,0.2-0.5,0.5c0,0.3,0.2,0.5,0.5,0.5h1c0.3,0,0.5-0.2,0.5-0.5C12,23.2,11.8,23,11.5,23z"/>
		<path d="M14.5,23h-1c-0.3,0-0.5,0.2-0.5,0.5c0,0.3,0.2,0.5,0.5,0.5h1c0.3,0,0.5-0.2,0.5-0.5C15,23.2,14.8,23,14.5,23z"/>
		<path d="M11.5,16h-1c-0.3,0-0.5,0.2-0.5,0.5c0,0.3,0.2,0.5,0.5,0.5h1c0.3,0,0.5-0.2,0.5-0.5C12,16.2,11.8,16,11.5,16z"/>
		<path d="M14.5,16h-1c-0.3,0-0.5,0.2-0.5,0.5c0,0.3,0.2,0.5,0.5,0.5h1c0.3,0,0.5-0.2,0.5-0.5C15,16.2,14.8,16,14.5,16z"/>
		<path d="M17.5,23h-1c-0.3,0-0.5,0.2-0.5,0.5c0,0.3,0.2,0.5,0.5,0.5h1c0.3,0,0.5-0.2,0.5-0.5C18,23.2,17.8,23,17.5,23z"/>
		<path d="M20.5,23h-1c-0.3,0-0.5,0.2-0.5,0.5c0,0.3,0.2,0.5,0.5,0.5h1c0.3,0,0.5-0.2,0.5-0.5C21,23.2,20.8,23,20.5,23z"/>
		<path d="M20.5,7h-1C19.2,7,19,7.2,19,7.5C19,7.8,19.2,8,19.5,8h1C20.8,8,21,7.8,21,7.5C21,7.2,20.8,7,20.5,7z"/>
		<path d="M17.5,7H17V1c0-0.6-0.4-1-1-1H1C0.4,0,0,0.4,0,1v15.5c0,0.6,0.4,1,1,1h6C7,17.8,7.2,18,7.5,18C7.8,18,8,17.8,8,17.5h0.5
			c0.6,0,1-0.4,1-1c0-0.6-0.4-1-1-1H2V2h13v6.5c0,0.6,0.4,1,1,1c0.6,0,1-0.4,1-1V8h0.5C17.8,8,18,7.8,18,7.5C18,7.2,17.8,7,17.5,7z"
			/>
		<path d="M23.5,7h-1C22.2,7,22,7.2,22,7.5C22,7.8,22.2,8,22.5,8H23v0.5C23,8.8,23.2,9,23.5,9C23.8,9,24,8.8,24,8.5v-1
			C24,7.2,23.8,7,23.5,7z"/>
		<path d="M23.5,10c-0.3,0-0.5,0.2-0.5,0.5v1c0,0.3,0.2,0.5,0.5,0.5c0.3,0,0.5-0.2,0.5-0.5v-1C24,10.2,23.8,10,23.5,10z"/>
		<path d="M23.5,13c-0.3,0-0.5,0.2-0.5,0.5v1c0,0.3,0.2,0.5,0.5,0.5c0.3,0,0.5-0.2,0.5-0.5v-1C24,13.2,23.8,13,23.5,13z"/>
		<path d="M16.5,12c0.3,0,0.5-0.2,0.5-0.5v-1c0-0.3-0.2-0.5-0.5-0.5c-0.3,0-0.5,0.2-0.5,0.5v1C16,11.8,16.2,12,16.5,12z"/>
		<path d="M16,14.5c0,0.3,0.2,0.5,0.5,0.5c0.3,0,0.5-0.2,0.5-0.5v-1c0-0.3-0.2-0.5-0.5-0.5c-0.3,0-0.5,0.2-0.5,0.5V14.5z"/>
		<path d="M23.5,16c-0.3,0-0.5,0.2-0.5,0.5v1c0,0.3,0.2,0.5,0.5,0.5c0.3,0,0.5-0.2,0.5-0.5v-1C24,16.2,23.8,16,23.5,16z"/>
		<path d="M23.5,19c-0.3,0-0.5,0.2-0.5,0.5v1c0,0.3,0.2,0.5,0.5,0.5c0.3,0,0.5-0.2,0.5-0.5v-1C24,19.2,23.8,19,23.5,19z"/>
	</g>
</g>
<g id="Outline_Icons">
	<g>
		<g>
			<g>
				<path d="M16.5,16c-0.3,0-0.5,0.2-0.5,0.5c0,0.3,0.2,0.5,0.5,0.5c0.3,0,0.5-0.2,0.5-0.5C17,16.2,16.8,16,16.5,16L16.5,16z"/>
			</g>
		</g>
		<polyline class="st2" points="8.5,23.5 7.5,23.5 7.5,22.5 		"/>
		<polyline class="st2" points="22.5,23.5 23.5,23.5 23.5,22.5 		"/>
		<line class="st2" x1="7.5" y1="20.5" x2="7.5" y2="19.5"/>
		<line class="st2" x1="7.5" y1="17.5" x2="7.5" y2="16.5"/>
		<line class="st2" x1="11.5" y1="23.5" x2="10.5" y2="23.5"/>
		<line class="st2" x1="14.5" y1="23.5" x2="13.5" y2="23.5"/>
		<line class="st2" x1="11.5" y1="16.5" x2="10.5" y2="16.5"/>
		<line class="st2" x1="14.5" y1="16.5" x2="13.5" y2="16.5"/>
		<line class="st2" x1="17.5" y1="23.5" x2="16.5" y2="23.5"/>
		<line class="st2" x1="20.5" y1="23.5" x2="19.5" y2="23.5"/>
		<line class="st2" x1="20.5" y1="7.5" x2="19.5" y2="7.5"/>
		<line class="st2" x1="17.5" y1="7.5" x2="16.5" y2="7.5"/>
		<polyline class="st2" points="22.5,7.5 23.5,7.5 23.5,8.5 		"/>
		<line class="st2" x1="23.5" y1="10.5" x2="23.5" y2="11.5"/>
		<line class="st2" x1="23.5" y1="13.5" x2="23.5" y2="14.5"/>
		<line class="st2" x1="16.5" y1="10.5" x2="16.5" y2="11.5"/>
		<line class="st2" x1="16.5" y1="13.5" x2="16.5" y2="14.5"/>
		<line class="st2" x1="23.5" y1="16.5" x2="23.5" y2="17.5"/>
		<line class="st2" x1="23.5" y1="19.5" x2="23.5" y2="20.5"/>
		<polyline class="st2" points="8.5,16.5 0.5,16.5 0.5,0.5 16.5,0.5 16.5,8.5 		"/>
	</g>
</g>
</svg>
