<?xml version="1.0" encoding="utf-8"?>
<!-- Generator: Adobe Illustrator 19.2.0, SVG Export Plug-In . SVG Version: 6.00 Build 0)  -->
<svg version="1.1" id="Layer_1" xmlns="http://www.w3.org/2000/svg" xmlns:xlink="http://www.w3.org/1999/xlink" x="0px" y="0px"
	 viewBox="0 0 24 24" style="enable-background:new 0 0 24 24;" xml:space="preserve">
<style type="text/css">
	.st0{display:none;}
	.st1{display:inline;}
	.st2{fill:none;stroke:#000000;stroke-linecap:round;stroke-linejoin:round;stroke-miterlimit:10;}
</style>
<g id="Filled_Icon" class="st0">
	<g class="st1">
		<path d="M23.5,10h-3c-0.3,0-0.5,0.2-0.5,0.5V20H9.5C9.2,20,9,20.2,9,20.5v3C9,23.8,9.2,24,9.5,24h14c0.3,0,0.5-0.2,0.5-0.5v-13
			C24,10.2,23.8,10,23.5,10z"/>
		<path d="M14,4.5v-4C14,0.2,13.8,0,13.5,0h-13C0.2,0,0,0.2,0,0.5v14C0,14.8,0.2,15,0.5,15h4C4.8,15,5,14.8,5,14.5V5h8.5
			C13.8,5,14,4.8,14,4.5z"/>
		<path d="M18,17.5v-10C18,7.2,17.8,7,17.5,7h-10C7.2,7,7,7.2,7,7.5v10C7,17.8,7.2,18,7.5,18h10C17.8,18,18,17.8,18,17.5z"/>
	</g>
</g>
<g id="Outline_Icons">
	<g>
		<polygon class="st2" points="20.5,20.5 20.5,10.5 23.5,10.5 23.5,23.5 9.5,23.5 9.5,20.5 		"/>
		<polygon class="st2" points="4.5,4.5 4.5,14.5 0.5,14.5 0.5,0.5 13.5,0.5 13.5,4.5 		"/>
		<rect x="7.5" y="7.5" class="st2" width="10" height="10"/>
	</g>
</g>
</svg>
