<?xml version="1.0" encoding="utf-8"?>
<!-- Generator: Adobe Illustrator 19.2.0, SVG Export Plug-In . SVG Version: 6.00 Build 0)  -->
<svg version="1.1" id="Layer_1" xmlns="http://www.w3.org/2000/svg" xmlns:xlink="http://www.w3.org/1999/xlink" x="0px" y="0px"
	 viewBox="0 0 24 24" style="enable-background:new 0 0 24 24;" xml:space="preserve">
<style type="text/css">
	.st0{display:none;}
	.st1{display:inline;}
	.st2{fill:none;stroke:#000000;stroke-linecap:round;stroke-linejoin:round;stroke-miterlimit:10;}
</style>
<g id="Filled_Icons" class="st0">
	<g class="st1">
		<path d="M23,15.5c0-0.6-0.4-1-1-1H10V3.4l2.3,2.3C12.5,5.9,12.7,6,13,6c0.3,0,0.5-0.1,0.7-0.3c0.4-0.4,0.4-1,0-1.4l-4-4
			C9.6,0.2,9.5,0.1,9.4,0.1C9.1,0,8.9,0,8.6,0.1C8.5,0.1,8.4,0.2,8.3,0.3l-4,4c-0.4,0.4-0.4,1,0,1.4c0.4,0.4,1,0.4,1.4,0L8,3.4v12.1
			c0,0.6,0.4,1,1,1h13C22.6,16.5,23,16.1,23,15.5z"/>
		<path d="M11,8c0,0.6,0.4,1,1,1h5v3.5c0,0.6,0.4,1,1,1c0.6,0,1-0.4,1-1V8c0-0.6-0.4-1-1-1h-6C11.4,7,11,7.4,11,8z"/>
		<path d="M6,7H2C1.4,7,1,7.4,1,8c0,0.6,0.4,1,1,1h4c0.6,0,1-0.4,1-1C7,7.4,6.6,7,6,7z"/>
		<path d="M21.3,17.8L19,20.3v-1.8c0-0.6-0.4-1-1-1c-0.6,0-1,0.4-1,1v1.8l-2.3-2.5c-0.4-0.4-1-0.5-1.4-0.1c-0.4,0.4-0.4,1-0.1,1.4
			l4,4.5c0,0,0,0,0,0c0.1,0.1,0.2,0.1,0.2,0.2c0,0,0.1,0,0.1,0.1c0.1,0.1,0.3,0.1,0.4,0.1c0.1,0,0.3,0,0.4-0.1c0,0,0.1,0,0.1-0.1
			c0.1-0.1,0.2-0.1,0.2-0.2c0,0,0,0,0,0l4-4.5c0.4-0.4,0.3-1-0.1-1.4C22.3,17.3,21.6,17.4,21.3,17.8z"/>
	</g>
</g>
<g id="Outline_Icons">
	<g>
		<polyline class="st2" points="22,16.5 8.5,16.5 8.5,0.5 		"/>
		<polyline class="st2" points="4.5,4.7 8.5,0.5 12.5,4.7 		"/>
		<line class="st2" x1="18.5" y1="19" x2="18.5" y2="23.5"/>
		<polyline class="st2" points="11,7.5 18.5,7.5 18.5,14 		"/>
		<line class="st2" x1="2" y1="7.5" x2="6" y2="7.5"/>
		<polyline class="st2" points="22.5,19.2 18.5,23.5 14.5,19.2 		"/>
	</g>
</g>
</svg>
