<?xml version="1.0" encoding="utf-8"?>
<!-- Generator: Adobe Illustrator 19.2.0, SVG Export Plug-In . SVG Version: 6.00 Build 0)  -->
<svg version="1.1" id="Layer_1" xmlns="http://www.w3.org/2000/svg" xmlns:xlink="http://www.w3.org/1999/xlink" x="0px" y="0px"
	 viewBox="0 0 24 24" style="enable-background:new 0 0 24 24;" xml:space="preserve">
<style type="text/css">
	.st0{display:none;}
	.st1{display:inline;}
	.st2{fill:none;stroke:#000000;stroke-linejoin:round;stroke-miterlimit:10;}
	.st3{fill:none;stroke:#000000;stroke-linecap:round;stroke-linejoin:round;stroke-miterlimit:10;}
</style>
<g id="Filled_Icon" class="st0">
	<g class="st1">
		<path d="M23.5,17H21V3.5C21,3.2,20.8,3,20.5,3H7V0.5C7,0.2,6.8,0,6.5,0h-3C3.2,0,3,0.2,3,0.5V3H0.5C0.2,3,0,3.2,0,3.5v3
			C0,6.8,0.2,7,0.5,7H3v13.5C3,20.8,3.2,21,3.5,21H17v2.5c0,0.3,0.2,0.5,0.5,0.5h3c0.3,0,0.5-0.2,0.5-0.5V21h2.5
			c0.3,0,0.5-0.2,0.5-0.5v-3C24,17.2,23.8,17,23.5,17z M17,7v7.5l-1.9-5.5c-0.1-0.2-0.2-0.3-0.4-0.3c-0.2,0-0.4,0.1-0.5,0.2l-3,5.3
			L9.5,12c-0.1-0.1-0.3-0.2-0.4-0.2c-0.2,0-0.3,0.1-0.4,0.3L7,15.3V7H17z"/>
		<circle cx="10" cy="9" r="1.5"/>
	</g>
</g>
<g id="Outline_Icons">
	<g>
		<polyline class="st2" points="17.5,17.5 14.6,9.2 11.2,15.2 9.1,12.2 6.5,17.5 		"/>
		<circle class="st2" cx="10" cy="9" r="1"/>
		<polygon class="st3" points="0.5,6.5 0.5,3.5 3.5,3.5 3.5,0.5 6.5,0.5 6.5,3.5 20.5,3.5 20.5,17.5 23.5,17.5 23.5,20.5 20.5,20.5 
			20.5,23.5 17.5,23.5 17.5,20.5 3.5,20.5 3.5,6.5 		"/>
		<rect x="6.5" y="6.5" class="st3" width="11" height="11"/>
	</g>
</g>
</svg>
