<?xml version="1.0" encoding="utf-8"?>
<!-- Generator: Adobe Illustrator 19.2.0, SVG Export Plug-In . SVG Version: 6.00 Build 0)  -->
<svg version="1.1" id="Layer_1" xmlns="http://www.w3.org/2000/svg" xmlns:xlink="http://www.w3.org/1999/xlink" x="0px" y="0px"
	 viewBox="0 0 24 24" style="enable-background:new 0 0 24 24;" xml:space="preserve">
<style type="text/css">
	.st0{display:none;}
	.st1{display:inline;}
	.st2{fill:none;stroke:#000000;stroke-linecap:round;stroke-linejoin:round;stroke-miterlimit:10;}
</style>
<g id="Filled_Icons" class="st0">
	<g class="st1">
		<path d="M1,7h5c1.8,0,2.9,1.7,3.4,2.4c0.2,0.3,0.5,0.5,0.9,0.5c0.2,0,0.3,0,0.5-0.1c0.5-0.3,0.6-0.9,0.4-1.4C10.5,7.4,8.8,5,6,5H1
			C0.4,5,0,5.4,0,6C0,6.6,0.4,7,1,7z"/>
		<path d="M23.9,16.7C23.9,16.7,23.9,16.7,23.9,16.7c0-0.1-0.1-0.2-0.1-0.3c0,0,0,0,0,0l0,0c0,0,0,0,0,0l-2-3
			c-0.3-0.5-0.9-0.6-1.4-0.3c-0.5,0.3-0.6,0.9-0.3,1.4l1,1.4L18,16c-1.7,0-3.1-1.3-3.7-2c-0.4-0.4-1-0.5-1.4-0.1
			c-0.4,0.4-0.5,1-0.1,1.4c0.9,1,2.7,2.7,5.2,2.7l3.1,0l-1,1.4c-0.3,0.5-0.2,1.1,0.3,1.4c0.2,0.1,0.4,0.2,0.6,0.2
			c0.3,0,0.6-0.2,0.8-0.4l2-3l0,0l0,0c0,0,0,0,0,0c0-0.1,0.1-0.1,0.1-0.2c0,0,0,0,0-0.1c0-0.1,0-0.2,0-0.3l0,0
			C24,16.9,24,16.8,23.9,16.7z"/>
		<path d="M18,7C18,7,18,7,18,7l3.1,0l-1,1.4c-0.3,0.5-0.2,1.1,0.3,1.4C20.6,9.9,20.8,10,21,10c0.3,0,0.6-0.2,0.8-0.4l2-3l0,0l0,0
			c0,0,0,0,0,0c0-0.1,0.1-0.1,0.1-0.2c0,0,0,0,0-0.1c0-0.1,0-0.2,0-0.3v0c0-0.1,0-0.2,0-0.3c0,0,0,0,0-0.1c0-0.1-0.1-0.2-0.1-0.2
			c0,0,0,0,0,0l0,0l0,0l-2-3c-0.3-0.5-0.9-0.6-1.4-0.3c-0.5,0.3-0.6,0.9-0.3,1.4l1,1.4L18,5c0,0,0,0,0,0c-3,0-5,3-6.8,6
			c-1.6,2.5-3.2,5-5.2,5c0,0,0,0,0,0H1c-0.6,0-1,0.4-1,1c0,0.6,0.4,1,1,1h5c0,0,0,0,0,0c3,0,5-3,6.8-6C14.4,9.6,16,7,18,7z"/>
	</g>
</g>
<g id="Outline_Icons">
	<g>
		<path class="st2" d="M10.5,10c0,0-1.5-3.5-4.5-3.5H0.5"/>
		<path class="st2" d="M23.5,6.5H18c-5,0-7,11-12,11H0.5"/>
		<path class="st2" d="M13,14.5c0,0,2,3,5,3h5.5"/>
		<polyline class="st2" points="21.5,3.5 23.5,6.5 21.5,9.5 		"/>
		<polyline class="st2" points="21.5,14.5 23.5,17.5 21.5,20.5 		"/>
	</g>
</g>
</svg>
