<?xml version="1.0" encoding="utf-8"?>
<!-- Generator: Adobe Illustrator 19.2.0, SVG Export Plug-In . SVG Version: 6.00 Build 0)  -->
<svg version="1.1" id="Layer_1" xmlns="http://www.w3.org/2000/svg" xmlns:xlink="http://www.w3.org/1999/xlink" x="0px" y="0px"
	 viewBox="0 0 24 24" style="enable-background:new 0 0 24 24;" xml:space="preserve">
<style type="text/css">
	.st0{display:none;}
	.st1{display:inline;}
	.st2{fill:none;stroke:#000000;stroke-linecap:round;stroke-linejoin:round;stroke-miterlimit:10;}
</style>
<g id="Filled_Icons" class="st0">
	<g class="st1">
		<path d="M1,13h1.6c0.5,4.4,4,8,8.4,8.4V23c0,0.6,0.4,1,1,1c0.6,0,1-0.4,1-1v-1.6c4.4-0.5,8-4,8.4-8.4H23c0.6,0,1-0.4,1-1
			c0-0.6-0.4-1-1-1h-1.6c-0.5-4.4-4-8-8.4-8.4V1c0-0.6-0.4-1-1-1c-0.6,0-1,0.4-1,1v1.6C6.6,3,3,6.6,2.6,11H1c-0.6,0-1,0.4-1,1
			C0,12.6,0.4,13,1,13z M4.6,13h2.2c0.4,2.1,2.1,3.8,4.2,4.2v2.2C7.7,19,5,16.3,4.6,13z M13,13h2.1c-0.3,1-1.1,1.8-2.1,2.1V13z
			 M13,11V8.9c1,0.3,1.8,1.1,2.1,2.1H13z M11,11H8.9C9.2,10,10,9.2,11,8.9V11z M11,13v2.1C10,14.8,9.2,14,8.9,13H11z M13,19.4v-2.2
			c2.1-0.4,3.8-2.1,4.2-4.2h2.2C19,16.3,16.3,19,13,19.4z M19.4,11h-2.2c-0.4-2.1-2.1-3.8-4.2-4.2V4.6C16.3,5,19,7.7,19.4,11z
			 M11,4.6v2.2C8.9,7.2,7.2,8.9,6.8,11H4.6C5,7.7,7.7,5,11,4.6z"/>
	</g>
</g>
<g id="Outline_Icons">
	<g>
		<circle class="st2" cx="11.5" cy="11.5" r="9.1"/>
		<circle class="st2" cx="11.5" cy="11.5" r="4.3"/>
		<line class="st2" x1="11.5" y1="0.5" x2="11.5" y2="22.5"/>
		<line class="st2" x1="22.5" y1="11.5" x2="0.5" y2="11.5"/>
	</g>
</g>
</svg>
