<?xml version="1.0" encoding="utf-8"?>
<!-- Generator: Adobe Illustrator 19.2.0, SVG Export Plug-In . SVG Version: 6.00 Build 0)  -->
<svg version="1.1" id="Layer_1" xmlns="http://www.w3.org/2000/svg" xmlns:xlink="http://www.w3.org/1999/xlink" x="0px" y="0px"
	 viewBox="0 0 24 24" style="enable-background:new 0 0 24 24;" xml:space="preserve">
<style type="text/css">
	.st0{display:none;}
	.st1{display:inline;}
	.st2{fill:none;stroke:#000000;stroke-linecap:round;stroke-linejoin:round;stroke-miterlimit:10;}
</style>
<g id="Filled_Icons" class="st0">
	<g class="st1">
		<path d="M1,13h1.9c0.5,4.2,3.8,7.6,8.1,8.1V23c0,0.6,0.4,1,1,1c0.6,0,1-0.4,1-1v-1.9c4.2-0.5,7.6-3.8,8.1-8.1H23c0.6,0,1-0.4,1-1
			c0-0.6-0.4-1-1-1h-1.9c-0.5-4.2-3.8-7.6-8.1-8.1V1c0-0.6-0.4-1-1-1c-0.6,0-1,0.4-1,1v1.9C6.8,3.4,3.4,6.8,2.9,11H1
			c-0.6,0-1,0.4-1,1C0,12.6,0.4,13,1,13z M11,4.9v1.8c0,0.6,0.4,1,1,1c0.6,0,1-0.4,1-1V4.9c3.1,0.4,5.6,2.9,6.1,6.1h-1.8
			c-0.6,0-1,0.4-1,1c0,0.6,0.4,1,1,1h1.8c-0.4,3.1-2.9,5.6-6.1,6.1v-1.8c0-0.6-0.4-1-1-1c-0.6,0-1,0.4-1,1v1.8
			c-3.1-0.4-5.6-2.9-6.1-6.1h1.8c0.6,0,1-0.4,1-1c0-0.6-0.4-1-1-1H4.9C5.4,7.9,7.9,5.4,11,4.9z"/>
	</g>
</g>
<g id="Outline_Icons">
	<g>
		<circle class="st2" cx="11.5" cy="11.5" r="8.1"/>
		<line class="st2" x1="11.5" y1="0.5" x2="11.5" y2="6.2"/>
		<line class="st2" x1="0.5" y1="11.5" x2="6.2" y2="11.5"/>
		<line class="st2" x1="11.5" y1="22.5" x2="11.5" y2="16.8"/>
		<line class="st2" x1="22.5" y1="11.5" x2="16.8" y2="11.5"/>
	</g>
</g>
</svg>
