<?xml version="1.0" encoding="utf-8"?>
<!-- Generator: Adobe Illustrator 19.2.0, SVG Export Plug-In . SVG Version: 6.00 Build 0)  -->
<svg version="1.1" id="Layer_1" xmlns="http://www.w3.org/2000/svg" xmlns:xlink="http://www.w3.org/1999/xlink" x="0px" y="0px"
	 viewBox="0 0 24 24" style="enable-background:new 0 0 24 24;" xml:space="preserve">
<style type="text/css">
	.st0{display:none;}
	.st1{display:inline;}
	.st2{fill:none;stroke:#000000;stroke-linecap:round;stroke-linejoin:round;stroke-miterlimit:10;}
</style>
<g id="Filled_Icons" class="st0">
	<g class="st1">
		<path d="M12,9c0.6,0,1-0.4,1-1V1c0-0.6-0.4-1-1-1c-0.6,0-1,0.4-1,1v7C11,8.6,11.4,9,12,9z"/>
		<path d="M8,11H1c-0.6,0-1,0.4-1,1c0,0.6,0.4,1,1,1h7c0.6,0,1-0.4,1-1C9,11.4,8.6,11,8,11z"/>
		<path d="M12,15c-0.6,0-1,0.4-1,1v7c0,0.6,0.4,1,1,1c0.6,0,1-0.4,1-1v-7C13,15.4,12.6,15,12,15z"/>
		<path d="M23,11h-7c-0.6,0-1,0.4-1,1c0,0.6,0.4,1,1,1h7c0.6,0,1-0.4,1-1C24,11.4,23.6,11,23,11z"/>
		<circle cx="12" cy="12" r="1.5"/>
	</g>
</g>
<g id="Outline_Icons">
	<g>
		<line class="st2" x1="11.5" y1="0.5" x2="11.5" y2="8.2"/>
		<line class="st2" x1="0.5" y1="11.5" x2="8.2" y2="11.5"/>
		<line class="st2" x1="11.5" y1="22.5" x2="11.5" y2="14.8"/>
		<line class="st2" x1="22.5" y1="11.5" x2="14.8" y2="11.5"/>
		<circle class="st2" cx="11.5" cy="11.5" r="0.5"/>
	</g>
</g>
</svg>
