<?xml version="1.0" encoding="utf-8"?>
<!-- Generator: Adobe Illustrator 19.2.0, SVG Export Plug-In . SVG Version: 6.00 Build 0)  -->
<svg version="1.1" id="Layer_1" xmlns="http://www.w3.org/2000/svg" xmlns:xlink="http://www.w3.org/1999/xlink" x="0px" y="0px"
	 viewBox="0 0 24 24" style="enable-background:new 0 0 24 24;" xml:space="preserve">
<style type="text/css">
	.st0{display:none;}
	.st1{display:inline;}
	.st2{fill:none;stroke:#000000;stroke-linecap:round;stroke-linejoin:round;stroke-miterlimit:10;}
</style>
<g id="Filled_Icons" class="st0">
	<g class="st1">
		<path d="M21.5,8.5c0,0.6,0.4,1,1,1c0.6,0,1-0.4,1-1v-6c0-0.1,0-0.3-0.1-0.4c-0.1-0.2-0.3-0.4-0.5-0.5c-0.1-0.1-0.3-0.1-0.4-0.1h-6
			c-0.6,0-1,0.4-1,1c0,0.6,0.4,1,1,1h3.5L2.4,21.2c-0.4,0.4-0.4,1,0,1.4c0.2,0.2,0.5,0.3,0.7,0.3c0.3,0,0.5-0.1,0.7-0.3L21.5,4.9
			V8.5z"/>
		<path d="M23.2,23.2C23.2,23.2,23.2,23.2,23.2,23.2c0.1-0.1,0.2-0.2,0.2-0.3c0.1-0.1,0.1-0.3,0.1-0.4l0,0v-6c0-0.6-0.4-1-1-1
			c-0.6,0-1,0.4-1,1v3.5l-5.8-5.8c-0.4-0.4-1-0.4-1.4,0c-0.4,0.4-0.4,1,0,1.4l5.8,5.8h-3.6c-0.6,0-1,0.4-1,1c0,0.6,0.4,1,1,1h6
			c0.1,0,0.3,0,0.4-0.1C23,23.4,23.1,23.3,23.2,23.2C23.2,23.2,23.2,23.2,23.2,23.2z"/>
		<path d="M9.3,10.7C9.5,10.9,9.7,11,10,11c0.3,0,0.5-0.1,0.7-0.3c0.4-0.4,0.4-1,0-1.4L3.8,2.4C3.4,2,2.7,2,2.4,2.4
			C2,2.8,2,3.4,2.4,3.8L9.3,10.7z"/>
	</g>
</g>
<g id="Outline_Icons">
	<g>
		<polyline class="st2" points="22.5,8.5 22.5,2.5 16.5,2.5 		"/>
		<line class="st2" x1="3.1" y1="21.9" x2="22.5" y2="2.5"/>
		<polyline class="st2" points="16.5,22.5 22.5,22.5 22.5,16.6 		"/>
		<line class="st2" x1="14.5" y1="14.5" x2="22.5" y2="22.5"/>
		<line class="st2" x1="3.1" y1="3.1" x2="10.5" y2="10.5"/>
	</g>
</g>
</svg>
