<?xml version="1.0" encoding="utf-8"?>
<!-- Generator: Adobe Illustrator 19.2.0, SVG Export Plug-In . SVG Version: 6.00 Build 0)  -->
<svg version="1.1" id="Outline_Icons" xmlns="http://www.w3.org/2000/svg" xmlns:xlink="http://www.w3.org/1999/xlink" x="0px"
	 y="0px" viewBox="0 0 24 24" style="enable-background:new 0 0 24 24;" xml:space="preserve">
<style type="text/css">
	.st0{fill:none;stroke:#000000;stroke-linecap:round;stroke-linejoin:round;stroke-miterlimit:10;}
	.st1{fill:none;stroke:#000000;stroke-linejoin:round;stroke-miterlimit:10;}
</style>
<path class="st0" d="M21,22.5H3c-2,0-2-3,0-3h18C23,19.5,23,22.5,21,22.5z"/>
<path class="st0" d="M17.6,16.5c0.2-0.6,0.4-1.3,0.4-2c0-3.3-2.7-6-6-6s-6,2.7-6,6c0,0.7,0.1,1.4,0.3,2"/>
<circle class="st1" cx="12" cy="3.5" r="3"/>
<line class="st0" x1="9" y1="3.5" x2="15" y2="3.5"/>
<line class="st0" x1="12" y1="6.5" x2="12" y2="8.5"/>
<path class="st1" d="M9.2,9.2C8.4,8.7,7.5,8.5,6.5,8.5c-3.3,0-6,2.7-6,6c0,2.1,1.1,3.9,2.7,5h17.6c1.6-1.1,2.7-2.9,2.7-5
	c0-3.3-2.7-6-6-6c-1,0-1.9,0.2-2.8,0.7"/>
</svg>
