<?xml version="1.0" encoding="utf-8"?>
<!-- Generator: Adobe Illustrator 19.2.0, SVG Export Plug-In . SVG Version: 6.00 Build 0)  -->
<svg version="1.1" id="Layer_1" xmlns="http://www.w3.org/2000/svg" xmlns:xlink="http://www.w3.org/1999/xlink" x="0px" y="0px"
	 viewBox="0 0 24 24" style="enable-background:new 0 0 24 24;" xml:space="preserve">
<style type="text/css">
	.st0{display:none;}
	.st1{display:inline;}
	.st2{fill:none;stroke:#000000;stroke-linecap:round;stroke-linejoin:round;stroke-miterlimit:10;}
</style>
<g id="Filled_Icons" class="st0">
	<g class="st1">
		<path d="M22,4.9c-1.1,0-2,0.9-2,2c0,0.9,0.6,1.6,1.4,1.9C21,10,19.8,13,17,13c-2.9,0-4.1-4.5-4.4-6.1c1.1-0.3,1.9-1.2,1.9-2.4
			C14.5,3.1,13.4,2,12,2c-1.4,0-2.5,1.1-2.5,2.5c0,1.2,0.8,2.2,1.9,2.4C11.1,8.5,9.9,13,7,13c-2.9,0-4-3.1-4.4-4.3
			C3.4,8.5,4,7.7,4,6.8c0-1.1-0.9-2-2-2c-1.1,0-2,0.9-2,2c0,1,0.7,1.8,1.6,2l1.9,10.8C3.6,19.8,3.8,20,4,20h16
			c0.2,0,0.4-0.2,0.5-0.4l2-10.7c0.9-0.2,1.6-1,1.6-1.9C24,5.8,23.1,4.9,22,4.9z"/>
		<path d="M20,21H4c-0.3,0-0.5,0.2-0.5,0.5C3.5,21.8,3.7,22,4,22h16c0.3,0,0.5-0.2,0.5-0.5C20.5,21.2,20.3,21,20,21z"/>
	</g>
</g>
<g id="Outline_Icons">
	<g>
		<circle class="st2" cx="2" cy="6.8" r="1.5"/>
		<circle class="st2" cx="22" cy="6.9" r="1.5"/>
		<line class="st2" x1="4" y1="21.5" x2="20" y2="21.5"/>
		<path class="st2" d="M4,19.5L2,8.3c0,0,1,5.2,5,5.2s5-7,5-7s1,7,5,7s5-5.1,5-5.1l-2,11.1H4z"/>
		<circle class="st2" cx="12" cy="4.5" r="2"/>
	</g>
</g>
</svg>
