<?xml version="1.0" encoding="utf-8"?>
<!-- Generator: Adobe Illustrator 19.2.0, SVG Export Plug-In . SVG Version: 6.00 Build 0)  -->
<svg version="1.1" id="Layer_1" xmlns="http://www.w3.org/2000/svg" xmlns:xlink="http://www.w3.org/1999/xlink" x="0px" y="0px"
	 viewBox="0 0 24 24" style="enable-background:new 0 0 24 24;" xml:space="preserve">
<style type="text/css">
	.st0{display:none;}
	.st1{display:inline;}
	.st2{fill:none;stroke:#000000;stroke-linecap:round;stroke-linejoin:round;stroke-miterlimit:10;}
</style>
<g id="Filled_Icons" class="st0">
	<g class="st1">
		<path d="M22,5.5c-1.1,0-2,0.9-2,2c0,0.7,0.3,1.2,0.8,1.6l-3.3,3.2l-4.6-5C13.9,6.9,14.5,6,14.5,5c0-1.4-1.1-2.5-2.5-2.5
			c-1.4,0-2.5,1.1-2.5,2.5c0,1,0.6,1.9,1.5,2.3l-4.5,5L3.2,9.1C3.7,8.7,4,8.2,4,7.5c0-1.1-0.9-2-2-2c-1.1,0-2,0.9-2,2
			c0,1.1,0.9,2,2,2L4,17.6C4.1,17.8,4.3,18,4.5,18h15c0.2,0,0.4-0.2,0.5-0.4l2.1-8.1c1.1,0,1.9-0.9,1.9-2C24,6.4,23.1,5.5,22,5.5z"
			/>
		<path d="M20,19H4c-1.3,0-2,1-2,2c0,1,0.7,2,2,2h16c1.3,0,2-1,2-2C22,20,21.3,19,20,19z"/>
	</g>
</g>
<g id="Outline_Icons">
	<g>
		<polygon class="st2" points="21.7,9 17.5,13 12,7 6.5,13 2.3,8.9 4.5,17.5 19.5,17.5 		"/>
		<circle class="st2" cx="12" cy="5" r="2"/>
		<circle class="st2" cx="2" cy="7.5" r="1.5"/>
		<circle class="st2" cx="22" cy="7.5" r="1.5"/>
		<path class="st2" d="M20,20.5H4c-2,0-2-3,0-3h16C22,17.5,22,20.5,20,20.5z"/>
	</g>
</g>
</svg>
