<?xml version="1.0" encoding="utf-8"?>
<!-- Generator: Adobe Illustrator 19.2.0, SVG Export Plug-In . SVG Version: 6.00 Build 0)  -->
<svg version="1.1" id="Layer_1" xmlns="http://www.w3.org/2000/svg" xmlns:xlink="http://www.w3.org/1999/xlink" x="0px" y="0px"
	 viewBox="0 0 24 24" enable-background="new 0 0 24 24" xml:space="preserve">
<g id="Filled_Icons" display="none">
	<path display="inline" d="M23.414,5.541l-4.95-4.948c-0.754-0.757-2.071-0.758-2.827-0.002C14.982,1.244,14.885,2.235,15.324,3
		l-7.523,7.408c-0.191,0.188-0.299,0.444-0.299,0.713v4.001l-3.424,3.423l0,0c-0.152-0.152-0.384-0.189-0.577-0.095l-2.829,1.415
		c-0.144,0.072-0.244,0.207-0.27,0.367c-0.026,0.158,0.026,0.32,0.14,0.434l2.829,2.829c0.095,0.095,0.222,0.146,0.354,0.146
		c0.026,0,0.054,0,0.08-0.006c0.159-0.025,0.295-0.127,0.367-0.27l1.414-2.83c0.096-0.191,0.059-0.424-0.094-0.577l3.46-3.459h3.965
		c0.267,0,0.522-0.106,0.71-0.295l7.43-7.496C21.346,8.864,21.664,8.956,22,8.956c0.534,0,1.036-0.208,1.414-0.585
		C24.193,7.591,24.193,6.321,23.414,5.541z M15.798,11.174l-2.939-2.939l3.824-3.767l2.894,2.894L15.798,11.174z M12.5,14.5H9.502
		v-2.961l1.932-1.901l2.957,2.955L12.5,14.5z"/>
</g>
<g id="Outline_Icons">
	<g>
		<polyline fill="none" stroke="#000000" stroke-linejoin="round" stroke-miterlimit="10" points="16.366,3.371 8.502,11.114 
			8.502,15.494 12.917,15.494 20.695,7.647 		"/>
		<path fill="none" stroke="#000000" stroke-linejoin="round" stroke-miterlimit="10" d="M15.988,0.939
			c-0.586,0.586-0.586,1.535,0,2.121l4.951,4.95c0.586,0.585,1.535,0.585,2.121,0c0.586-0.586,0.586-1.536,0-2.122l-4.951-4.949
			C17.525,0.354,16.575,0.354,15.988,0.939z"/>
		
			<line fill="none" stroke="#000000" stroke-linecap="round" stroke-linejoin="round" stroke-miterlimit="10" x1="8.686" y1="15.348" x2="4.465" y2="19.566"/>
		<polygon fill="none" stroke="#000000" stroke-linecap="round" stroke-linejoin="round" stroke-miterlimit="10" points="
			3.725,18.893 5.139,20.307 3.725,23.137 0.896,20.307 		"/>
		
			<line fill="none" stroke="#000000" stroke-linecap="round" stroke-linejoin="round" stroke-miterlimit="10" x1="11.502" y1="8.286" x2="15.756" y2="12.54"/>
	</g>
</g>
</svg>
