<?xml version="1.0" encoding="utf-8"?>
<!-- Generator: Adobe Illustrator 19.2.0, SVG Export Plug-In . SVG Version: 6.00 Build 0)  -->
<svg version="1.1" id="Layer_1" xmlns="http://www.w3.org/2000/svg" xmlns:xlink="http://www.w3.org/1999/xlink" x="0px" y="0px"
	 viewBox="0 0 24 24" enable-background="new 0 0 24 24" xml:space="preserve">
<g id="Filled_Icons" display="none">
	<g display="inline">
		<path d="M16.997,3.451c-0.011-0.098-0.05-0.189-0.113-0.266l-2.5-3c-0.094-0.112-0.231-0.177-0.378-0.179
			c-0.139-0.024-0.285,0.06-0.382,0.17l-3.5,4c-0.074,0.085-0.117,0.191-0.123,0.303L9.826,7.838
			C9.873,7.931,9.923,8.02,9.949,8.119l2.313,8.672l3.824-10.787c0.108-0.305,0.312-0.567,0.582-0.747l0.491-0.327L16.997,3.451z
			 M14.961,5.876c-0.013,0.002-0.025,0.002-0.038,0.002c-0.259,0-0.48-0.2-0.498-0.463L14.281,3.08L13.632,2.3
			c-0.177-0.212-0.147-0.528,0.064-0.704c0.211-0.176,0.525-0.15,0.703,0.064l0.752,0.904c0.067,0.08,0.107,0.178,0.115,0.282
			l0.156,2.495C15.443,5.617,15.236,5.856,14.961,5.876z"/>
		<path d="M23.171,15.129l-0.42,0.366l-2.828,8.485c-0.003,0.01-0.01,0.017-0.014,0.025H22.5c0.252,0,0.465-0.188,0.496-0.438l1-8
			c0.025-0.207-0.078-0.406-0.262-0.504C23.553,14.966,23.328,14.993,23.171,15.129z"/>
		<path d="M22.478,3.362c-0.045-0.151-0.16-0.272-0.31-0.326c-0.149-0.054-0.315-0.034-0.446,0.054l-4.5,3
			c-0.09,0.06-0.158,0.147-0.193,0.249L12.717,18.5l1.232,4.62c0.078,0.298,0.056,0.604-0.045,0.887H18.5
			c0.215,0,0.406-0.137,0.475-0.341l5-15c0.032-0.099,0.034-0.203,0.004-0.303L22.478,3.362z M21.896,8.432l-1.895,5.69
			c-0.069,0.209-0.267,0.342-0.476,0.342c-0.053,0-0.104-0.008-0.157-0.026c-0.263-0.086-0.403-0.369-0.316-0.631l1.847-5.54
			L20.376,6.52c-0.08-0.264,0.069-0.543,0.335-0.623c0.264-0.078,0.543,0.07,0.622,0.335l0.569,1.896
			C21.932,8.229,21.93,8.334,21.896,8.432z"/>
		<path d="M5.058,23.918l-1.972-6.9l-2.191-2.818c-0.144-0.184-0.397-0.244-0.607-0.144c-0.212,0.1-0.326,0.332-0.275,0.561l2,9
			c0.051,0.229,0.254,0.392,0.488,0.392h2.6C5.088,23.975,5.066,23.951,5.058,23.918z"/>
		<path d="M12.982,23.378l-4-15c-0.026-0.097-0.081-0.186-0.158-0.25l-3.5-3c-0.11-0.096-0.263-0.135-0.4-0.115
			C4.78,5.035,4.653,5.118,4.576,5.241l-2.5,4C2.001,9.361,1.98,9.508,2.02,9.644l4,14.001c0.062,0.215,0.257,0.362,0.48,0.362h6
			c0.154,0,0.303-0.073,0.396-0.196C12.99,23.688,13.023,23.527,12.982,23.378z M7.629,13.758C7.586,13.77,7.542,13.775,7.5,13.775
			c-0.222,0-0.424-0.148-0.483-0.371L5.994,9.57L5.183,8.875c-0.21-0.18-0.234-0.496-0.055-0.706c0.18-0.21,0.498-0.232,0.705-0.055
			l0.93,0.796C6.84,8.978,6.895,9.065,6.921,9.163l1.063,3.985C8.055,13.414,7.896,13.688,7.629,13.758z"/>
	</g>
</g>
<g id="Outline_Icons">
	<g>
		<polygon fill="none" stroke="#000000" stroke-linejoin="round" stroke-miterlimit="10" points="8.5,8.5 5,5.5 2.5,9.5 6.5,23.5 
			12.5,23.5 		"/>
		<polyline fill="none" stroke="#000000" stroke-linecap="round" stroke-linejoin="round" stroke-miterlimit="10" points="
			7.5,13.27 6.438,9.285 5.508,8.489 		"/>
		<polyline fill="none" stroke="#000000" stroke-linejoin="round" stroke-miterlimit="10" points="16.986,7.947 16.5,3.5 14,0.5 
			10.5,4.5 10,14.126 		"/>
		<polyline fill="none" stroke="#000000" stroke-linecap="round" stroke-linejoin="round" stroke-miterlimit="10" points="
			14.947,7.942 14.715,4.818 13.963,3.916 		"/>
		<polyline fill="none" stroke="#000000" stroke-linejoin="round" stroke-miterlimit="10" points="12.5,23.5 18.5,23.5 23.5,8.5 
			22,3.5 17.5,6.5 12.075,21.803 		"/>
		<polyline fill="none" stroke="#000000" stroke-linecap="round" stroke-linejoin="round" stroke-miterlimit="10" points="
			19.525,13.958 21.423,8.268 20.853,6.371 		"/>
		<polygon fill="none" stroke="#000000" stroke-linejoin="round" stroke-miterlimit="10" points="20.209,18.372 23.5,15.5 
			22.5,23.5 18.5,23.5 		"/>
		<polyline fill="none" stroke="#000000" stroke-linejoin="round" stroke-miterlimit="10" points="7.5,23.5 2.5,23.5 0.5,14.5 
			5.977,21.542 		"/>
	</g>
</g>
</svg>
