<?xml version="1.0" encoding="utf-8"?>
<!-- Generator: Adobe Illustrator 19.2.0, SVG Export Plug-In . SVG Version: 6.00 Build 0)  -->
<svg version="1.1" id="Layer_1" xmlns="http://www.w3.org/2000/svg" xmlns:xlink="http://www.w3.org/1999/xlink" x="0px" y="0px"
	 viewBox="0 0 24 24" enable-background="new 0 0 24 24" xml:space="preserve">
<g id="Filled_Icons" display="none">
	<g display="inline">
		<g>
			<polygon points="11,5.867 11,1.3 7.367,4.971 			"/>
			<polygon points="12,5.867 15.633,4.972 12,1.3 			"/>
			<polygon points="12,17.703 16,15.729 16,5.911 12,6.898 			"/>
			<polygon points="11,18.816 7.17,16.913 11,22.699 			"/>
			<polygon points="11,17.699 11,6.898 7,5.911 7,15.712 			"/>
			<polygon points="12,18.816 12,22.699 15.816,16.934 			"/>
		</g>
		<g>
			<path d="M17,5.382c-0.128,0-0.256-0.049-0.354-0.146c-0.195-0.195-0.195-0.512,0-0.708l1.875-1.876
				c0.194-0.195,0.512-0.195,0.707,0c0.194,0.195,0.194,0.512,0,0.708l-1.875,1.876C17.256,5.333,17.128,5.382,17,5.382z"/>
		</g>
		<g>
			<path d="M18.875,20.506c-0.128,0-0.256-0.049-0.354-0.146l-1.875-1.875c-0.195-0.194-0.195-0.51,0-0.707
				c0.194-0.195,0.512-0.195,0.707,0l1.875,1.875c0.194,0.195,0.194,0.512,0,0.707C19.131,20.458,19.003,20.506,18.875,20.506z"/>
		</g>
		<g>
			<path d="M22.5,12.006h-3c-0.275,0-0.5-0.224-0.5-0.5c0-0.277,0.225-0.5,0.5-0.5h3c0.275,0,0.5,0.223,0.5,0.5
				C23,11.783,22.775,12.006,22.5,12.006z"/>
		</g>
		<g>
			<path d="M6,5.382c-0.128,0-0.256-0.049-0.354-0.146L3.771,3.36c-0.195-0.195-0.195-0.512,0-0.708
				c0.195-0.196,0.512-0.195,0.707,0l1.875,1.876c0.195,0.195,0.195,0.513,0,0.708C6.256,5.333,6.128,5.382,6,5.382z"/>
		</g>
		<g>
			<path d="M4.125,20.506c-0.128,0-0.256-0.049-0.354-0.146c-0.195-0.194-0.195-0.512,0-0.707l1.875-1.875
				c0.195-0.195,0.512-0.195,0.707,0c0.195,0.197,0.195,0.512,0,0.707l-1.874,1.875C4.381,20.458,4.253,20.506,4.125,20.506z"/>
		</g>
		<g>
			<path d="M3.5,12.006h-3c-0.276,0-0.5-0.224-0.5-0.5c0-0.277,0.224-0.5,0.5-0.5h3c0.276,0,0.5,0.223,0.5,0.5
				C4,11.783,3.776,12.006,3.5,12.006z"/>
		</g>
	</g>
</g>
<g id="Outline_Icons">
	<g>
		<polygon fill="none" stroke="#000000" stroke-linejoin="round" stroke-miterlimit="10" points="15.5,5.5 11.5,6.5 7.5,5.5 
			7.5,16.5 11.5,18.5 15.5,16.5 		"/>
		<polyline fill="none" stroke="#000000" stroke-linejoin="round" stroke-miterlimit="10" points="7.5,16.5 11.5,22.542 15.5,16.5 
					"/>
		<polyline fill="none" stroke="#000000" stroke-linejoin="round" stroke-miterlimit="10" points="15.5,5.542 11.5,1.5 7.5,5.542 		
			"/>
		<line fill="none" stroke="#000000" stroke-linejoin="round" stroke-miterlimit="10" x1="11.5" y1="1.5" x2="11.5" y2="22.542"/>
		
			<line fill="none" stroke="#000000" stroke-linecap="round" stroke-linejoin="round" stroke-miterlimit="10" x1="17" y1="4.876" x2="18.875" y2="3"/>
		
			<line fill="none" stroke="#000000" stroke-linecap="round" stroke-linejoin="round" stroke-miterlimit="10" x1="17" y1="18.126" x2="18.875" y2="20"/>
		
			<line fill="none" stroke="#000000" stroke-linecap="round" stroke-linejoin="round" stroke-miterlimit="10" x1="19.5" y1="11.5" x2="22.5" y2="11.5"/>
		
			<line fill="none" stroke="#000000" stroke-linecap="round" stroke-linejoin="round" stroke-miterlimit="10" x1="6" y1="4.876" x2="4.125" y2="3"/>
		
			<line fill="none" stroke="#000000" stroke-linecap="round" stroke-linejoin="round" stroke-miterlimit="10" x1="6" y1="18.126" x2="4.125" y2="20"/>
		
			<line fill="none" stroke="#000000" stroke-linecap="round" stroke-linejoin="round" stroke-miterlimit="10" x1="3.5" y1="11.5" x2="0.5" y2="11.5"/>
	</g>
</g>
</svg>
