<?xml version="1.0" encoding="utf-8"?>
<!-- Generator: Adobe Illustrator 19.2.0, SVG Export Plug-In . SVG Version: 6.00 Build 0)  -->
<svg version="1.1" id="Layer_1" xmlns="http://www.w3.org/2000/svg" xmlns:xlink="http://www.w3.org/1999/xlink" x="0px" y="0px"
	 viewBox="0 0 24 24" style="enable-background:new 0 0 24 24;" xml:space="preserve">
<style type="text/css">
	.st0{display:none;}
	.st1{display:inline;}
	.st2{fill:none;stroke:#000000;stroke-linecap:round;stroke-linejoin:round;stroke-miterlimit:10;}
</style>
<g id="Filled_Icon" class="st0">
	<path class="st1" d="M23.9,0.2C23.8,0.1,23.6,0,23.5,0h-23C0.4,0,0.2,0.1,0.1,0.2C0,0.3,0,0.4,0,0.6l3,20c0,0.2,0.2,0.3,0.3,0.4
		l8.5,3c0.1,0,0.1,0,0.2,0c0.1,0,0.1,0,0.2,0l8.5-3c0.2-0.1,0.3-0.2,0.3-0.4l3-20C24,0.4,24,0.3,23.9,0.2z M17.8,4.9L9.3,10h7.2
		c0.1,0,0.3,0.1,0.4,0.2c0.1,0.1,0.1,0.3,0.1,0.4l-1,7c0,0.2-0.2,0.4-0.4,0.4l-3.5,1c0,0-0.1,0-0.1,0c0,0-0.1,0-0.1,0l-3.5-1
		C8.2,17.9,8,17.8,8,17.6l-0.5-3C7.5,14.3,7.7,14,8,14c0.3,0,0.5,0.1,0.6,0.4l0.4,2.7L12,18l3.1-0.9l0.9-6.1H7.5
		c-0.2,0-0.4-0.1-0.5-0.4c-0.1-0.2,0-0.4,0.2-0.6L15.7,5H6.5C6.2,5,6,4.8,6,4.5C6,4.2,6.2,4,6.5,4h11c0.2,0,0.4,0.1,0.5,0.4
		C18,4.6,18,4.8,17.8,4.9z"/>
</g>
<g id="Outline_Icons">
	<g>
		<polygon class="st2" points="20.5,20.5 12,23.5 3.5,20.5 0.5,0.5 23.5,0.5 		"/>
		<polyline class="st2" points="6.5,4.5 17.5,4.5 7.5,10.5 16.5,10.5 15.5,17.5 12,18.5 8.5,17.5 8,14.5 		"/>
	</g>
</g>
</svg>
