<?xml version="1.0" encoding="utf-8"?>
<!-- Generator: Adobe Illustrator 19.2.0, SVG Export Plug-In . SVG Version: 6.00 Build 0)  -->
<svg version="1.1" id="Layer_1" xmlns="http://www.w3.org/2000/svg" xmlns:xlink="http://www.w3.org/1999/xlink" x="0px" y="0px"
	 viewBox="0 0 24 24" enable-background="new 0 0 24 24" xml:space="preserve">
<g id="Filled_Icons" display="none">
	<g display="inline">
		<rect x="6" y="9.006" width="12" height="3"/>
		<path d="M14,19.006h4v-4h-4V19.006z M16,16.506c0.277,0,0.5,0.223,0.5,0.5c0,0.278-0.223,0.5-0.5,0.5c-0.275,0-0.5-0.222-0.5-0.5
			C15.5,16.729,15.725,16.506,16,16.506z"/>
		<path d="M6,19.006h4v-4H6V19.006z M8,16.506c0.277,0,0.5,0.223,0.5,0.5c0,0.278-0.223,0.5-0.5,0.5c-0.276,0-0.5-0.222-0.5-0.5
			C7.5,16.729,7.724,16.506,8,16.506z"/>
		<path d="M22,0.006H2c-0.276,0-0.5,0.223-0.5,0.5c0,0.276,0.224,0.5,0.5,0.5h1v20.5c0,0.275,0.224,0.5,0.5,0.5H6v1.5
			c0,0.275,0.224,0.5,0.5,0.5c0.276,0,0.5-0.225,0.5-0.5v-1.5h10v1.5c0,0.275,0.225,0.5,0.5,0.5c0.275,0,0.5-0.225,0.5-0.5v-1.5h2.5
			c0.275,0,0.5-0.225,0.5-0.5v-20.5h1c0.275,0,0.5-0.224,0.5-0.5C22.5,0.229,22.275,0.006,22,0.006z M11,19.506
			c0,0.275-0.224,0.5-0.5,0.5h-5c-0.276,0-0.5-0.225-0.5-0.5v-5c0-0.277,0.224-0.5,0.5-0.5h5c0.276,0,0.5,0.223,0.5,0.5V19.506z
			 M19,19.506c0,0.275-0.225,0.5-0.5,0.5h-5c-0.275,0-0.5-0.225-0.5-0.5v-5c0-0.277,0.225-0.5,0.5-0.5h5c0.275,0,0.5,0.223,0.5,0.5
			V19.506z M19,12.506c0,0.275-0.225,0.5-0.5,0.5h-13c-0.276,0-0.5-0.225-0.5-0.5v-4c0-0.277,0.224-0.5,0.5-0.5h13
			c0.275,0,0.5,0.223,0.5,0.5V12.506z M19,6.506c0,0.276-0.225,0.5-0.5,0.5h-13c-0.276,0-0.5-0.224-0.5-0.5v-4
			c0-0.277,0.224-0.5,0.5-0.5h13c0.275,0,0.5,0.223,0.5,0.5V6.506z"/>
		<rect x="6" y="3.006" width="12" height="3"/>
	</g>
</g>
<g id="Outline_Icons">
	<g>
		
			<rect x="3.5" y="0.5" fill="none" stroke="#000000" stroke-linecap="round" stroke-linejoin="round" stroke-miterlimit="10" width="17" height="21"/>
		
			<line fill="none" stroke="#000000" stroke-linecap="round" stroke-linejoin="round" stroke-miterlimit="10" x1="2" y1="0.5" x2="22" y2="0.5"/>
		
			<line fill="none" stroke="#000000" stroke-linecap="round" stroke-linejoin="round" stroke-miterlimit="10" x1="6.5" y1="23.5" x2="6.5" y2="21.5"/>
		
			<line fill="none" stroke="#000000" stroke-linecap="round" stroke-linejoin="round" stroke-miterlimit="10" x1="17.5" y1="23.5" x2="17.5" y2="21.5"/>
		
			<rect x="5.5" y="14.5" fill="none" stroke="#000000" stroke-linecap="round" stroke-linejoin="round" stroke-miterlimit="10" width="5" height="5"/>
		
			<rect x="13.5" y="14.5" fill="none" stroke="#000000" stroke-linecap="round" stroke-linejoin="round" stroke-miterlimit="10" width="5" height="5"/>
		
			<rect x="5.5" y="2.5" fill="none" stroke="#000000" stroke-linecap="round" stroke-linejoin="round" stroke-miterlimit="10" width="13" height="4"/>
		
			<rect x="5.5" y="8.5" fill="none" stroke="#000000" stroke-linecap="round" stroke-linejoin="round" stroke-miterlimit="10" width="13" height="4"/>
		<g>
			<path d="M16,16.5c-0.275,0-0.5,0.225-0.5,0.5c0,0.277,0.225,0.5,0.5,0.5c0.277,0,0.5-0.223,0.5-0.5
				C16.5,16.725,16.277,16.5,16,16.5L16,16.5z"/>
		</g>
		<g>
			<path d="M8,16.5c-0.276,0-0.5,0.225-0.5,0.5c0,0.277,0.224,0.5,0.5,0.5c0.277,0,0.5-0.223,0.5-0.5C8.5,16.725,8.277,16.5,8,16.5
				L8,16.5z"/>
		</g>
	</g>
</g>
</svg>
