<?xml version="1.0" encoding="utf-8"?>
<!-- Generator: Adobe Illustrator 19.2.0, SVG Export Plug-In . SVG Version: 6.00 Build 0)  -->
<svg version="1.1" id="Layer_1" xmlns="http://www.w3.org/2000/svg" xmlns:xlink="http://www.w3.org/1999/xlink" x="0px" y="0px"
	 viewBox="0 0 24 24" enable-background="new 0 0 24 24" xml:space="preserve">
<g id="Filled_Icons" display="none">
	<g display="inline">
		<path d="M22.5,8.006h-21c-0.276,0-0.5,0.223-0.5,0.5v15c0,0.275,0.224,0.5,0.5,0.5c0.276,0,0.5-0.225,0.5-0.5v-1.5h20v1.5
			c0,0.275,0.225,0.5,0.5,0.5c0.275,0,0.5-0.225,0.5-0.5v-15C23,8.229,22.775,8.006,22.5,8.006z M3,9.506c0-0.277,0.224-0.5,0.5-0.5
			h7c0.276,0,0.5,0.223,0.5,0.5v4c0,0.275-0.224,0.5-0.5,0.5h-7c-0.276,0-0.5-0.225-0.5-0.5V9.506z M21,19.506
			c0,0.275-0.225,0.5-0.5,0.5h-17c-0.276,0-0.5-0.225-0.5-0.5v-4c0-0.277,0.224-0.5,0.5-0.5h17c0.275,0,0.5,0.223,0.5,0.5V19.506z
			 M21,13.506c0,0.275-0.225,0.5-0.5,0.5h-7c-0.275,0-0.5-0.225-0.5-0.5v-4c0-0.277,0.225-0.5,0.5-0.5h7c0.275,0,0.5,0.223,0.5,0.5
			V13.506z"/>
		<path d="M23.5,3.006h-23c-0.276,0-0.5,0.223-0.5,0.5v3c0,0.275,0.224,0.5,0.5,0.5h23c0.275,0,0.5-0.225,0.5-0.5v-3
			C24,3.229,23.775,3.006,23.5,3.006z"/>
		<path d="M4,19.006h16v-3H4V19.006z M12,17.006c0.275,0,0.5,0.223,0.5,0.5c0,0.275-0.225,0.5-0.5,0.5c-0.277,0-0.5-0.225-0.5-0.5
			C11.5,17.229,11.723,17.006,12,17.006z"/>
		<path d="M14,13.006h6v-3h-6V13.006z M17,11.006c0.275,0,0.5,0.223,0.5,0.5c0,0.275-0.225,0.5-0.5,0.5c-0.277,0-0.5-0.225-0.5-0.5
			C16.5,11.229,16.723,11.006,17,11.006z"/>
		<path d="M10,10.006H4v3h6V10.006z M7,12.006c-0.277,0-0.5-0.225-0.5-0.5c0-0.277,0.223-0.5,0.5-0.5c0.275,0,0.5,0.223,0.5,0.5
			C7.5,11.782,7.275,12.006,7,12.006z"/>
	</g>
</g>
<g id="Outline_Icons">
	<g>
		
			<rect x="1.5" y="7.5" fill="none" stroke="#000000" stroke-linecap="round" stroke-linejoin="round" stroke-miterlimit="10" width="21" height="14"/>
		
			<line fill="none" stroke="#000000" stroke-linecap="round" stroke-linejoin="round" stroke-miterlimit="10" x1="1.5" y1="21.5" x2="1.5" y2="23.5"/>
		
			<line fill="none" stroke="#000000" stroke-linecap="round" stroke-linejoin="round" stroke-miterlimit="10" x1="22.5" y1="21.5" x2="22.5" y2="23.5"/>
		
			<rect x="0.5" y="4.5" fill="none" stroke="#000000" stroke-linecap="round" stroke-linejoin="round" stroke-miterlimit="10" width="23" height="3"/>
		
			<rect x="3.5" y="15.5" fill="none" stroke="#000000" stroke-linecap="round" stroke-linejoin="round" stroke-miterlimit="10" width="17" height="4"/>
		
			<rect x="13.5" y="9.5" fill="none" stroke="#000000" stroke-linecap="round" stroke-linejoin="round" stroke-miterlimit="10" width="7" height="4"/>
		
			<rect x="3.5" y="9.5" fill="none" stroke="#000000" stroke-linecap="round" stroke-linejoin="round" stroke-miterlimit="10" width="7" height="4"/>
		<g>
			<g>
				<path d="M12,17c-0.277,0-0.5,0.225-0.5,0.5c0,0.275,0.223,0.5,0.5,0.5c0.275,0,0.5-0.225,0.5-0.5C12.5,17.225,12.275,17,12,17
					L12,17z"/>
			</g>
		</g>
		<g>
			<g>
				<path d="M7,11c-0.277,0-0.5,0.224-0.5,0.5C6.5,11.775,6.723,12,7,12c0.275,0,0.5-0.225,0.5-0.5C7.5,11.224,7.275,11,7,11L7,11z"
					/>
			</g>
		</g>
		<g>
			<g>
				<path d="M17,11c-0.277,0-0.5,0.224-0.5,0.5c0,0.275,0.223,0.5,0.5,0.5c0.275,0,0.5-0.225,0.5-0.5C17.5,11.224,17.275,11,17,11
					L17,11z"/>
			</g>
		</g>
	</g>
</g>
</svg>
