<?xml version="1.0" encoding="utf-8"?>
<!-- Generator: Adobe Illustrator 19.2.0, SVG Export Plug-In . SVG Version: 6.00 Build 0)  -->
<svg version="1.1" id="Layer_1" xmlns="http://www.w3.org/2000/svg" xmlns:xlink="http://www.w3.org/1999/xlink" x="0px" y="0px"
	 viewBox="0 0 24 24" enable-background="new 0 0 24 24" xml:space="preserve">
<g id="Filled_Icons" display="none">
	<g display="inline">
		<g>
			<path d="M10.576,24.003h2.867l0.746-5.454c-1.34,0.59-2.958,0.6-4.333-0.009L10.576,24.003z"/>
			<path d="M18,19.127c-0.977,0-1.932-0.312-2.764-0.852l-0.784,5.727H17.5c0.225,0,0.42-0.147,0.48-0.362l1.342-4.699
				C18.9,19.05,18.465,19.127,18,19.127z"/>
			<path d="M8.801,18.186C7.975,18.713,7.016,19.01,6,19.01c-0.479,0-0.927-0.076-1.356-0.186l1.376,4.816
				c0.061,0.215,0.257,0.361,0.48,0.361h3.067L8.801,18.186z"/>
		</g>
		<path d="M16.42,7.791c-0.375,2.105-2.208,3.712-4.42,3.712c-2.221,0-4.059-1.621-4.423-3.739C4.194,8.955,2,11.355,2,14.006
			c0,2.357,1.645,4.004,4,4.004c1.143,0,2.206-0.447,2.999-1.246c0.799,0.813,1.864,1.271,3.001,1.271
			c1.148,0,2.212-0.439,2.997-1.224c0.811,0.834,1.897,1.316,3.003,1.316c2.329,0,4.019-1.734,4.019-4.124
			C22.019,11.38,19.82,8.996,16.42,7.791z"/>
		<path d="M12.545,3.559C12.756,2.392,13.773,1.503,15,1.503c0.275,0,0.5-0.224,0.5-0.5c0-0.276-0.225-0.5-0.5-0.5
			c-1.773,0-3.229,1.332-3.454,3.046C9.832,3.773,8.5,5.229,8.5,7.003c0,1.93,1.57,3.5,3.5,3.5c1.93,0,3.5-1.57,3.5-3.5
			C15.5,5.26,14.215,3.822,12.545,3.559z"/>
	</g>
</g>
<g id="Outline_Icons">
	<g>
		<polyline fill="none" stroke="#000000" stroke-linejoin="round" stroke-miterlimit="10" points="19.236,17.418 17.5,23.496 
			6.5,23.496 4.73,17.303 		"/>
		
			<line fill="none" stroke="#000000" stroke-linejoin="round" stroke-miterlimit="10" x1="9.993" y1="23.496" x2="8.949" y2="16.059"/>
		
			<line fill="none" stroke="#000000" stroke-linejoin="round" stroke-miterlimit="10" x1="14.006" y1="23.496" x2="15.055" y2="16.109"/>
		<path fill="none" stroke="#000000" stroke-linejoin="round" stroke-miterlimit="10" d="M14.921,7.86
			c3.604,0.86,6.599,3.212,6.599,6.136c0,2.07-1.447,3.625-3.519,3.625c-1.232,0-2.316-0.664-3-1.582
			c-0.686,0.918-1.77,1.488-3,1.488c-1.232,0-2.316-0.618-3-1.536c-0.685,0.918-1.769,1.513-3,1.513c-2.07,0-3.5-1.432-3.5-3.504
			c0-2.949,2.918-5.281,6.477-6.139l0.138-0.046"/>
		<circle fill="none" stroke="#000000" stroke-linejoin="round" stroke-miterlimit="10" cx="12" cy="6.996" r="3"/>
		<path fill="none" stroke="#000000" stroke-linecap="round" stroke-linejoin="round" stroke-miterlimit="10" d="M12,3.996
			c0-1.656,1.344-3,3-3"/>
	</g>
</g>
</svg>
