<?xml version="1.0" encoding="utf-8"?>
<!-- Generator: Adobe Illustrator 19.2.0, SVG Export Plug-In . SVG Version: 6.00 Build 0)  -->
<svg version="1.1" id="Layer_1" xmlns="http://www.w3.org/2000/svg" xmlns:xlink="http://www.w3.org/1999/xlink" x="0px" y="0px"
	 viewBox="0 0 24 24" enable-background="new 0 0 24 24" xml:space="preserve">
<g id="Filled_Icons" display="none">
	<path display="inline" d="M23.923,11.888c0.102-0.244,0.102-0.52,0-0.764c-0.051-0.123-0.124-0.234-0.217-0.326l-2.999-2.999
		c-0.391-0.391-1.023-0.391-1.414,0c-0.391,0.391-0.391,1.023,0,1.414l1.293,1.293H1.877l4.991-6.645
		c0.239,0.115,0.498,0.195,0.776,0.224c4.67,0.48,6.452,3.032,7.081,5.421h3.558c-0.966-4.71-4.628-8.135-9.424-8.472
		C8.68,1.021,8.542,0.874,8.542,0.697V0.506c0-0.276-0.224-0.5-0.5-0.5h-2c-0.276,0-0.5,0.224-0.5,0.5v1.252
		c0,0.564,0.204,1.08,0.54,1.486l-5.56,7.4c-0.295,0.164-0.498,0.462-0.514,0.819c-0.001,0.011-0.006,0.02-0.007,0.03
		C0.002,11.498,0,11.502,0,11.506c0,0.326,0.166,0.602,0.407,0.784l5.543,8.687c-0.256,0.383-0.408,0.838-0.408,1.33v1.199
		c0,0.275,0.224,0.5,0.5,0.5h2c0.276,0,0.5-0.238,0.5-0.516c0-0.264,0.205-0.486,0.468-0.508c5.133-0.43,8.84-4.246,9.437-9.477
		h-3.533c-0.377,2.282-1.837,5.822-7.234,6.415c-0.365,0.04-0.698,0.168-0.993,0.35l-4.954-7.765h18.854l-1.293,1.293
		c-0.392,0.392-0.392,1.022,0,1.414c0.194,0.194,0.451,0.293,0.707,0.293c0.256,0,0.513-0.099,0.707-0.293l2.999-2.999
		C23.799,12.122,23.872,12.011,23.923,11.888z"/>
</g>
<g id="Outline_Icons">
	<g>
		<path fill="none" stroke="#000000" stroke-linejoin="round" stroke-miterlimit="10" d="M8.042,23.484
			c0-0.525,0.402-0.963,0.926-1.006C14.45,22.02,18.042,17.496,18.042,12c0-5.543-3.655-10.082-9.219-10.473
			C8.384,1.496,8.042,1.131,8.042,0.691V0.5h-2v1.252c0,0.945,0.714,1.732,1.653,1.83c6.171,0.635,7.847,4.865,7.847,8.439
			c0,3.376-1.692,7.719-7.809,8.391c-0.965,0.105-1.691,0.918-1.691,1.889V23.5h2V23.484z"/>
		
			<line fill="none" stroke="#000000" stroke-linecap="round" stroke-linejoin="round" stroke-miterlimit="10" x1="0.542" y1="11.5" x2="22.947" y2="11.5"/>
		<polyline fill="none" stroke="#000000" stroke-linecap="round" stroke-linejoin="round" stroke-miterlimit="10" points="
			19.562,8.043 23.036,11.527 19.559,15 		"/>
		<polyline fill="none" stroke="#000000" stroke-linejoin="round" stroke-miterlimit="10" points="6.698,3.25 0.5,11.5 
			6.542,20.969 		"/>
	</g>
</g>
</svg>
