<?xml version="1.0" encoding="utf-8"?>
<!-- Generator: Adobe Illustrator 19.2.0, SVG Export Plug-In . SVG Version: 6.00 Build 0)  -->
<svg version="1.1" id="Outline_Icons" xmlns="http://www.w3.org/2000/svg" xmlns:xlink="http://www.w3.org/1999/xlink" x="0px"
	 y="0px" viewBox="0 0 24 24" style="enable-background:new 0 0 24 24;" xml:space="preserve">
<style type="text/css">
	.st0{fill:none;stroke:#000000;stroke-linecap:round;stroke-linejoin:round;stroke-miterlimit:10;}
</style>
<g>
	<circle class="st0" cx="11.5" cy="3.3" r="2.8"/>
	<path class="st0" d="M15.9,10.5H7.1C7.1,8,9,6,11.5,6S15.9,8,15.9,10.5z"/>
	<polyline class="st0" points="3.5,13.5 3.5,12.5 19.5,12.5 19.5,13.5 	"/>
	<line class="st0" x1="11.5" y1="10.5" x2="11.5" y2="13.5"/>
	<g>
		<path class="st0" d="M2,21c0,0.8,0.7,1.5,1.5,1.5S5,21.8,5,21s-0.7-1.5-1.5-1.5S2,18.8,2,18c0-0.8,0.7-1.5,1.5-1.5S5,17.2,5,18"/>
		<line class="st0" x1="3.5" y1="22.5" x2="3.5" y2="23.5"/>
		<line class="st0" x1="3.5" y1="15.5" x2="3.5" y2="16.5"/>
	</g>
	<line class="st0" x1="11.5" y1="19.5" x2="11.5" y2="23.5"/>
	<polyline class="st0" points="13.5,16.5 11.5,19.5 9.5,16.5 	"/>
	<line class="st0" x1="10.5" y1="20.5" x2="12.5" y2="20.5"/>
	<line class="st0" x1="10.5" y1="22" x2="12.5" y2="22"/>
	<path class="st0" d="M20.8,17.7c0-0.6-0.5-1.2-1.1-1.2s-1.1,0.5-1.1,1.2v4.1c0,0.6-0.8,1.8-1.4,1.8H21"/>
	<line class="st0" x1="16.5" y1="20.5" x2="21" y2="20.5"/>
</g>
</svg>
