<?xml version="1.0" encoding="utf-8"?>
<!-- Generator: Adobe Illustrator 19.2.0, SVG Export Plug-In . SVG Version: 6.00 Build 0)  -->
<svg version="1.1" id="Layer_1" xmlns="http://www.w3.org/2000/svg" xmlns:xlink="http://www.w3.org/1999/xlink" x="0px" y="0px"
	 viewBox="0 0 24 24" style="enable-background:new 0 0 24 24;" xml:space="preserve">
<style type="text/css">
	.st0{display:none;}
	.st1{display:inline;}
	.st2{fill:none;stroke:#000000;stroke-linecap:round;stroke-linejoin:round;stroke-miterlimit:10;}
	.st3{fill:none;stroke:#000000;stroke-linecap:round;stroke-linejoin:round;}
	.st4{fill:none;stroke:#000000;stroke-linecap:round;stroke-linejoin:round;stroke-dasharray:1.0909,2.1818;}
</style>
<g id="Filled_Icon" class="st0">
	<g class="st1">
		<path d="M11,17h-0.5c-0.3,0-0.5,0.2-0.5,0.5c0,0.3,0.2,0.5,0.5,0.5H11c0.3,0,0.5-0.2,0.5-0.5C11.5,17.2,11.3,17,11,17z"/>
		<path d="M17.5,17h-1.1c-0.3,0-0.5,0.2-0.5,0.5c0,0.3,0.2,0.5,0.5,0.5h1.1c0.3,0,0.5-0.2,0.5-0.5C18,17.2,17.8,17,17.5,17z"/>
		<path d="M20.8,17h-1.1c-0.3,0-0.5,0.2-0.5,0.5c0,0.3,0.2,0.5,0.5,0.5h1.1c0.3,0,0.5-0.2,0.5-0.5C21.3,17.2,21.1,17,20.8,17z"/>
		<path d="M14.3,17h-1.1c-0.3,0-0.5,0.2-0.5,0.5c0,0.3,0.2,0.5,0.5,0.5h1.1c0.3,0,0.5-0.2,0.5-0.5C14.8,17.2,14.5,17,14.3,17z"/>
		<path d="M23.5,17H23c-0.3,0-0.5,0.2-0.5,0.5c0,0.3,0.2,0.5,0.5,0.5h0.5c0.3,0,0.5-0.2,0.5-0.5C24,17.2,23.8,17,23.5,17z"/>
		<path d="M10.9,16c0.1,0,0.3,0,0.4-0.1c0.2-0.2,0.2-0.5,0-0.7c-0.6-0.7-1.2-1.4-1.7-2.1l7.8,3c0.1,0,0.1,0,0.2,0
			c0.2,0,0.4-0.1,0.5-0.3c0.1-0.3,0-0.5-0.3-0.6l-7.9-3l13.9-5.5C23.9,6.5,24,6.3,24,6.1c0-0.2-0.1-0.4-0.3-0.5
			c-1.6-0.8-3.4-1.1-5.2-1.1c-3.8,0-7.6,2.4-10.1,6.4C7.5,9,7,7,7,5c0-1.9-1.6-3.5-3.5-3.5C1.6,1.5,0,3.1,0,5c0,1.9,1.6,3.5,3.5,3.5
			c1.1,0,2-0.5,2.7-1.3C6.5,8.9,7,10.5,7.8,12c-0.8,1.5-1.3,3.2-1.6,4.8c-0.6-0.8-1.6-1.3-2.7-1.3C1.6,15.5,0,17.1,0,19
			c0,1.9,1.6,3.5,3.5,3.5C5.4,22.5,7,20.9,7,19c0-1.9,0.5-4,1.4-6c0.6,1,1.3,2,2.2,2.8C10.7,16,10.8,16,10.9,16z M3.5,6.5
			C2.7,6.5,2,5.8,2,5c0-0.8,0.7-1.5,1.5-1.5C4.3,3.5,5,4.2,5,5C5,5.8,4.3,6.5,3.5,6.5z M3.5,20.5C2.7,20.5,2,19.8,2,19
			c0-0.8,0.7-1.5,1.5-1.5C4.3,17.5,5,18.2,5,19C5,19.8,4.3,20.5,3.5,20.5z"/>
	</g>
</g>
<g id="Outline_Icons">
	<g>
		<circle class="st2" cx="3.5" cy="19" r="3"/>
		<circle class="st2" cx="3.5" cy="5" r="3"/>
		<g>
			<g>
				<line class="st3" x1="10.5" y1="17.5" x2="11" y2="17.5"/>
				<line class="st4" x1="13.2" y1="17.5" x2="21.9" y2="17.5"/>
				<line class="st3" x1="23" y1="17.5" x2="23.5" y2="17.5"/>
			</g>
		</g>
		<path class="st2" d="M10.9,15.5C8.2,12.7,6.5,8.8,6.5,5"/>
		<path class="st2" d="M6.5,19c0-6.6,5.4-14,12-14c1.8,0,3.5,0.4,5,1.1L8.5,12l9,3.5"/>
	</g>
</g>
</svg>
