<?xml version="1.0" encoding="utf-8"?>
<!-- Generator: Adobe Illustrator 19.2.0, SVG Export Plug-In . SVG Version: 6.00 Build 0)  -->
<svg version="1.1" id="Layer_1" xmlns="http://www.w3.org/2000/svg" xmlns:xlink="http://www.w3.org/1999/xlink" x="0px" y="0px"
	 viewBox="0 0 24 24" enable-background="new 0 0 24 24" xml:space="preserve">
<g id="Filled_Icons" display="none">
	<g display="inline">
		<path d="M5.182,15.38c-0.122-0.122-0.216-0.265-0.289-0.418L0.586,19.27C0.208,19.647,0,20.148,0,20.684
			c0,0.535,0.208,1.037,0.586,1.414c0.378,0.379,0.88,0.586,1.414,0.586c0.534,0,1.036-0.207,1.414-0.586l4.242-4.242L5.182,15.38z"
			/>
		<g>
			<path d="M21.799,6.542l-3.889-3.89c-0.094-0.094-0.221-0.146-0.354-0.146c-0.134,0-0.261,0.053-0.354,0.146L5.889,13.966
				c-0.094,0.095-0.146,0.222-0.146,0.354s0.053,0.26,0.146,0.353l3.89,3.889L21.799,6.542z M16.85,5.835
				c0.377-0.378,1.037-0.378,1.414,0c0.391,0.39,0.391,1.024,0,1.414c-0.188,0.189-0.439,0.293-0.707,0.293
				c-0.267,0-0.518-0.104-0.707-0.293C16.46,6.859,16.46,6.225,16.85,5.835z"/>
			<path d="M23.566,8.31l-1.062-1.061L10.485,19.27l1.061,1.062c0.098,0.099,0.226,0.145,0.354,0.145
				c0.128,0,0.256-0.049,0.354-0.145L23.566,9.017C23.762,8.822,23.762,8.506,23.566,8.31z"/>
		</g>
	</g>
</g>
<g id="Outline_Icons">
	<g>
		
			<rect x="6.728" y="7.484" transform="matrix(0.7071 -0.7071 0.7071 0.7071 -3.8075 13.7775)" fill="none" stroke="#000000" stroke-linecap="round" stroke-linejoin="round" stroke-miterlimit="10" width="15.999" height="8.001"/>
		
			<line fill="none" stroke="#000000" stroke-linejoin="round" stroke-miterlimit="10" x1="10.485" y1="18.557" x2="21.799" y2="7.243"/>
		<path fill="none" stroke="#000000" stroke-linecap="round" stroke-linejoin="round" stroke-miterlimit="10" d="M0.939,21.738
			c0.586,0.586,1.535,0.586,2.121,0l5.304-5.305l-2.122-2.121l-5.303,5.305C0.354,20.203,0.354,21.152,0.939,21.738z"/>
		<circle fill="none" stroke="#000000" stroke-linejoin="round" stroke-miterlimit="10" cx="17.557" cy="6.536" r="0.5"/>
	</g>
</g>
</svg>
