<?xml version="1.0" encoding="utf-8"?>
<!-- Generator: Adobe Illustrator 19.2.0, SVG Export Plug-In . SVG Version: 6.00 Build 0)  -->
<svg version="1.1" id="Layer_1" xmlns="http://www.w3.org/2000/svg" xmlns:xlink="http://www.w3.org/1999/xlink" x="0px" y="0px"
	 viewBox="0 0 24 24" enable-background="new 0 0 24 24" xml:space="preserve">
<g id="Filled_Icons" display="none">
	<g display="inline">
		<path d="M6.389,14.789C6.267,14.666,6.173,14.523,6.1,14.37l-5.367,5.368c-0.975,0.975-0.975,2.56,0,3.535
			c0.466,0.465,1.109,0.732,1.768,0.732c0.668,0,1.295-0.26,1.768-0.732l5.301-5.303L6.389,14.789z"/>
		<g>
			<path d="M11.32,17.6c4.733-5.041,7.688-11.486,6.866-14.977L18.1,2.369L7.096,13.375c-0.094,0.094-0.146,0.221-0.146,0.354
				c0,0.133,0.053,0.26,0.146,0.353l3.871,3.871L11.32,17.6z"/>
			<path d="M20.178,1c-0.094-0.094-0.221-0.146-0.354-0.146c-0.133,0-0.26,0.052-0.353,0.146l-0.58,0.581l0.256,0.768
				c0.92,3.896-2.074,10.582-7.107,15.946l-0.364,0.364l1.08,1.079c0.099,0.098,0.226,0.146,0.354,0.146
				c0.127,0,0.256-0.049,0.354-0.146C19.48,13.719,23.721,4.542,20.178,1z"/>
		</g>
	</g>
</g>
<g id="Outline_Icons">
	<g>
		<path fill="none" stroke="#000000" stroke-linecap="round" stroke-linejoin="round" stroke-miterlimit="10" d="M13.107,19.379
			l-5.658-5.656L19.824,1.348C23.006,4.529,19.117,13.368,13.107,19.379z"/>
		<path fill="none" stroke="#000000" stroke-linecap="round" stroke-linejoin="round" stroke-miterlimit="10" d="M7.449,13.723
			L18.672,2.501c0.898,3.812-2.291,10.431-6.998,15.444L7.449,13.723z"/>
		<path fill="none" stroke="#000000" stroke-linecap="round" stroke-linejoin="round" stroke-miterlimit="10" d="M10.277,16.55
			l-2.828-2.827l-6.363,6.363c-0.781,0.781-0.781,2.047,0,2.828C1.461,23.289,1.971,23.5,2.5,23.5c0.531,0,1.039-0.211,1.414-0.586
			L10.277,16.55z"/>
	</g>
</g>
</svg>
