<?xml version="1.0" encoding="utf-8"?>
<!-- Generator: Adobe Illustrator 19.2.0, SVG Export Plug-In . SVG Version: 6.00 Build 0)  -->
<svg version="1.1" id="Layer_1" xmlns="http://www.w3.org/2000/svg" xmlns:xlink="http://www.w3.org/1999/xlink" x="0px" y="0px"
	 viewBox="0 0 24 24" style="enable-background:new 0 0 24 24;" xml:space="preserve">
<style type="text/css">
	.st0{display:none;}
	.st1{display:inline;}
	.st2{fill:none;stroke:#000000;stroke-linecap:round;stroke-linejoin:round;stroke-miterlimit:10;}
</style>
<g id="Filled_Icons" class="st0">
	<g class="st1">
		<g>
			<path d="M7.5,0C3.4,0,0,3.4,0,7.5C0,11.6,3.4,15,7.5,15c0.1,0,0.2,0,0.3,0l0.5-0.7L7.8,13H7c-0.8,0-1.5-0.7-1.5-1.5
				C5.5,10.7,6.2,10,7,10h4c0.8,0,1.5,0.7,1.5,1.5c0,0.8-0.6,1.5-1.5,1.5l0,0h1.5c1.5-1.4,2.4-3.3,2.4-5.5C15,3.4,11.6,0,7.5,0z
				 M11,8H7.5C7.2,8,7,7.8,7,7.5V3c0-0.3,0.2-0.5,0.5-0.5C7.8,2.5,8,2.7,8,3v4h3c0.3,0,0.5,0.2,0.5,0.5C11.5,7.8,11.3,8,11,8z"/>
		</g>
		<g>
			<circle cx="6.5" cy="19.8" r="1"/>
			<path d="M19.8,15.6c-0.4,0-0.8,0.1-1.2,0.2l-0.9-3.4l2.1,0.2c0.2,0,0.4,0.2,0.3,0.5c0,0.2-0.2,0.4-0.4,0.3
				c-0.3,0-0.5,0.1-0.6,0.4c0,0.3,0.1,0.5,0.4,0.6c0.8,0.1,1.5-0.4,1.6-1.2c0.1-0.8-0.4-1.5-1.2-1.6L17,11.3c-0.2,0-0.3,0-0.4,0.2
				c-0.1,0.1-0.1,0.3-0.1,0.5l0.6,2h-6.6l-0.9-2H11c0.3,0,0.5-0.2,0.5-0.5c0-0.3-0.2-0.5-0.5-0.5H7c-0.3,0-0.5,0.2-0.5,0.5
				C6.5,11.8,6.7,12,7,12h1.4l1.1,2.4L8.3,16h0c-0.6-0.3-1.2-0.4-1.8-0.4c-2.3,0-4.2,1.9-4.2,4.2c0,2.3,1.9,4.2,4.2,4.2
				c4.5,0,4.3-5.3,4.2-4h1.6h0c0.1,0,0.2,0,0.3-0.1l0,0c0,0,0,0,0,0l4.8-4.4l0.2,0.8c-1.2,0.7-2,2.1-2,3.6c0,2.3,1.9,4.2,4.2,4.2
				c2.3,0,4.2-1.9,4.2-4.2C24,17.5,22.1,15.6,19.8,15.6z M6.5,22.8c-1.6,0-3-1.3-3-3c0-1.6,1.3-3,3-3c1.6,0,3,1.3,3,3
				C9.5,21.4,8.1,22.8,6.5,22.8z M10.6,19c-0.2-1-0.7-1.8-1.5-2.4l0.8-1.1l1.6,3.5H10.6z M12.5,18.7L10.8,15h5.6L12.5,18.7z
				 M19.8,22.8c-1.6,0-3-1.3-3-3c0-1.6,1.3-3,3-3c1.6,0,3,1.3,3,3C22.8,21.4,21.4,22.8,19.8,22.8z"/>
			<circle cx="19.8" cy="19.8" r="1"/>
		</g>
	</g>
</g>
<g id="Outline_Icons">
	<g>
		<circle class="st2" cx="6.5" cy="19.9" r="3.6"/>
		<circle class="st2" cx="19.9" cy="19.9" r="3.6"/>
		<polyline class="st2" points="12.3,19.5 17.7,14.5 10,14.5 6.5,19.5 12.3,19.5 8.8,11.5 		"/>
		<path class="st2" d="M19.9,19.9l-0.9-0.3L17,11.8l2.8,0.3c0.5,0.1,0.8,0.5,0.8,1c-0.1,0.5-0.5,0.8-1,0.8"/>
		<polyline class="st2" points="6.5,4 6.5,8.5 10,8.5 		"/>
		<path class="st2" d="M3.9,13.5c-2.1-1.2-3.4-3.5-3.4-6c0-3.9,3.1-7,7-7c3.9,0,7,3.1,7,7c0,0.1,0,0.2,0,0.2"/>
		<line class="st2" x1="7" y1="11.5" x2="11" y2="11.5"/>
	</g>
</g>
</svg>
