<?xml version="1.0" encoding="utf-8"?>
<!-- Generator: Adobe Illustrator 19.2.0, SVG Export Plug-In . SVG Version: 6.00 Build 0)  -->
<svg version="1.1" id="Layer_1" xmlns="http://www.w3.org/2000/svg" xmlns:xlink="http://www.w3.org/1999/xlink" x="0px" y="0px"
	 viewBox="0 0 24 24" style="enable-background:new 0 0 24 24;" xml:space="preserve">
<style type="text/css">
	.st0{display:none;}
	.st1{display:inline;}
	.st2{fill:none;stroke:#000000;stroke-linecap:round;stroke-linejoin:round;stroke-miterlimit:10;}
</style>
<g id="Filled_Icon" class="st0">
	<g class="st1">
		<g>
			<g>
				<g>
					<path d="M20.5,23c-0.3,0-0.5,0.2-0.5,0.5c0,0.3,0.2,0.5,0.5,0.5c0.3,0,0.5-0.2,0.5-0.5C21,23.2,20.8,23,20.5,23L20.5,23z"/>
				</g>
			</g>
			<g>
				<g>
					<path d="M14.5,21.5c-0.3,0-0.5,0.2-0.5,0.5c0,0.3,0.2,0.5,0.5,0.5c0.3,0,0.5-0.2,0.5-0.5C15,21.7,14.8,21.5,14.5,21.5
						L14.5,21.5z"/>
				</g>
			</g>
			<g>
				<g>
					<path d="M18.5,21.5c-0.3,0-0.5,0.2-0.5,0.5c0,0.3,0.2,0.5,0.5,0.5c0.3,0,0.5-0.2,0.5-0.5C19,21.7,18.8,21.5,18.5,21.5
						L18.5,21.5z"/>
				</g>
			</g>
			<g>
				<g>
					<path d="M16.5,23c-0.3,0-0.5,0.2-0.5,0.5c0,0.3,0.2,0.5,0.5,0.5c0.3,0,0.5-0.2,0.5-0.5C17,23.2,16.8,23,16.5,23L16.5,23z"/>
				</g>
			</g>
			<g>
				<g>
					<path d="M12.5,23c-0.3,0-0.5,0.2-0.5,0.5c0,0.3,0.2,0.5,0.5,0.5c0.3,0,0.5-0.2,0.5-0.5C13,23.2,12.8,23,12.5,23L12.5,23z"/>
				</g>
			</g>
			<g>
				<g>
					<path d="M10.5,21.5c-0.3,0-0.5,0.2-0.5,0.5c0,0.3,0.2,0.5,0.5,0.5c0.3,0,0.5-0.2,0.5-0.5C11,21.7,10.8,21.5,10.5,21.5
						L10.5,21.5z"/>
				</g>
			</g>
			<g>
				<g>
					<path d="M8.5,23C8.2,23,8,23.2,8,23.5C8,23.8,8.2,24,8.5,24C8.8,24,9,23.8,9,23.5C9,23.2,8.8,23,8.5,23L8.5,23z"/>
				</g>
			</g>
		</g>
		<g>
			<path d="M2.8,3.3c-0.1,0-0.3,0-0.4-0.1L1.7,2.4c-0.2-0.2-0.2-0.5,0-0.7c0.2-0.2,0.5-0.2,0.7,0l0.8,0.8c0.2,0.2,0.2,0.5,0,0.7
				C3.1,3.3,3,3.3,2.8,3.3z"/>
		</g>
		<g>
			<path d="M12.2,3.3c-0.1,0-0.3,0-0.4-0.1c-0.2-0.2-0.2-0.5,0-0.7l0.8-0.8c0.2-0.2,0.5-0.2,0.7,0c0.2,0.2,0.2,0.5,0,0.7l-0.8,0.8
				C12.4,3.3,12.3,3.3,12.2,3.3z"/>
		</g>
		<g>
			<path d="M1.5,7h-1C0.2,7,0,6.8,0,6.5C0,6.2,0.2,6,0.5,6h1C1.8,6,2,6.2,2,6.5C2,6.8,1.8,7,1.5,7z"/>
		</g>
		<g>
			<path d="M7.5,2C7.2,2,7,1.8,7,1.5v-1C7,0.2,7.2,0,7.5,0C7.8,0,8,0.2,8,0.5v1C8,1.8,7.8,2,7.5,2z"/>
		</g>
		<g>
			<path d="M6.7,9.3c0.6-2.1,2.1-3.9,4.1-4.7C10.1,3.6,8.9,3,7.5,3C5,3,3,5,3,7.5c0,1.2,0.5,2.3,1.3,3.1C5,10,5.8,9.5,6.7,9.3z"/>
		</g>
		<g>
			<path d="M22.3,13c0.3-1,0.2-2.1-0.4-2.9c-0.7-1-1.8-1.6-3-1.6C18,6.4,15.8,5,13.5,5c-3,0-5.5,2.2-5.9,5.1C4.9,10.5,3,12.8,3,15.5
				c0,3,2.5,5.5,5.5,5.5h11c2.5,0,4.5-2,4.5-4.5C24,15.2,23.4,13.9,22.3,13z M8.5,20.5C8.2,20.5,8,20.3,8,20c0-0.3,0.2-0.5,0.5-0.5
				C8.8,19.5,9,19.7,9,20C9,20.3,8.8,20.5,8.5,20.5z M10.5,19c-0.3,0-0.5-0.2-0.5-0.5c0-0.3,0.2-0.5,0.5-0.5c0.3,0,0.5,0.2,0.5,0.5
				C11,18.8,10.8,19,10.5,19z M12.5,20.5c-0.3,0-0.5-0.2-0.5-0.5c0-0.3,0.2-0.5,0.5-0.5c0.3,0,0.5,0.2,0.5,0.5
				C13,20.3,12.8,20.5,12.5,20.5z M14.5,19c-0.3,0-0.5-0.2-0.5-0.5c0-0.3,0.2-0.5,0.5-0.5c0.3,0,0.5,0.2,0.5,0.5
				C15,18.8,14.8,19,14.5,19z M16.5,20.5c-0.3,0-0.5-0.2-0.5-0.5c0-0.3,0.2-0.5,0.5-0.5c0.3,0,0.5,0.2,0.5,0.5
				C17,20.3,16.8,20.5,16.5,20.5z M18.5,19c-0.3,0-0.5-0.2-0.5-0.5c0-0.3,0.2-0.5,0.5-0.5c0.3,0,0.5,0.2,0.5,0.5
				C19,18.8,18.8,19,18.5,19z M20.5,20.5c-0.3,0-0.5-0.2-0.5-0.5c0-0.3,0.2-0.5,0.5-0.5c0.3,0,0.5,0.2,0.5,0.5
				C21,20.3,20.8,20.5,20.5,20.5z"/>
		</g>
	</g>
</g>
<g id="Outline_Icons">
	<g>
		<g>
			<g>
				<g>
					<path d="M14.5,18c-0.3,0-0.5,0.2-0.5,0.5c0,0.3,0.2,0.5,0.5,0.5c0.3,0,0.5-0.2,0.5-0.5C15,18.2,14.8,18,14.5,18L14.5,18z"/>
				</g>
			</g>
			<g>
				<g>
					<path d="M20.5,19.5c-0.3,0-0.5,0.2-0.5,0.5c0,0.3,0.2,0.5,0.5,0.5c0.3,0,0.5-0.2,0.5-0.5C21,19.7,20.8,19.5,20.5,19.5
						L20.5,19.5z"/>
				</g>
			</g>
			<g>
				<g>
					<path d="M20.5,22.5c-0.3,0-0.5,0.2-0.5,0.5c0,0.3,0.2,0.5,0.5,0.5c0.3,0,0.5-0.2,0.5-0.5C21,22.7,20.8,22.5,20.5,22.5
						L20.5,22.5z"/>
				</g>
			</g>
			<g>
				<g>
					<path d="M14.5,21c-0.3,0-0.5,0.2-0.5,0.5c0,0.3,0.2,0.5,0.5,0.5c0.3,0,0.5-0.2,0.5-0.5C15,21.2,14.8,21,14.5,21L14.5,21z"/>
				</g>
			</g>
			<g>
				<g>
					<path d="M18.5,21c-0.3,0-0.5,0.2-0.5,0.5c0,0.3,0.2,0.5,0.5,0.5c0.3,0,0.5-0.2,0.5-0.5C19,21.2,18.8,21,18.5,21L18.5,21z"/>
				</g>
			</g>
			<g>
				<g>
					<path d="M16.5,22.5c-0.3,0-0.5,0.2-0.5,0.5c0,0.3,0.2,0.5,0.5,0.5c0.3,0,0.5-0.2,0.5-0.5C17,22.7,16.8,22.5,16.5,22.5
						L16.5,22.5z"/>
				</g>
			</g>
			<g>
				<g>
					<path d="M18.5,18c-0.3,0-0.5,0.2-0.5,0.5c0,0.3,0.2,0.5,0.5,0.5c0.3,0,0.5-0.2,0.5-0.5C19,18.2,18.8,18,18.5,18L18.5,18z"/>
				</g>
			</g>
			<g>
				<g>
					<path d="M16.5,19.5c-0.3,0-0.5,0.2-0.5,0.5c0,0.3,0.2,0.5,0.5,0.5c0.3,0,0.5-0.2,0.5-0.5C17,19.7,16.8,19.5,16.5,19.5
						L16.5,19.5z"/>
				</g>
			</g>
			<g>
				<g>
					<path d="M12.5,19.5c-0.3,0-0.5,0.2-0.5,0.5c0,0.3,0.2,0.5,0.5,0.5c0.3,0,0.5-0.2,0.5-0.5C13,19.7,12.8,19.5,12.5,19.5
						L12.5,19.5z"/>
				</g>
			</g>
			<g>
				<g>
					<path d="M12.5,22.5c-0.3,0-0.5,0.2-0.5,0.5c0,0.3,0.2,0.5,0.5,0.5c0.3,0,0.5-0.2,0.5-0.5C13,22.7,12.8,22.5,12.5,22.5
						L12.5,22.5z"/>
				</g>
			</g>
			<g>
				<g>
					<path d="M10.5,21c-0.3,0-0.5,0.2-0.5,0.5c0,0.3,0.2,0.5,0.5,0.5c0.3,0,0.5-0.2,0.5-0.5C11,21.2,10.8,21,10.5,21L10.5,21z"/>
				</g>
			</g>
			<g>
				<g>
					<path d="M8.5,22.5C8.2,22.5,8,22.7,8,23c0,0.3,0.2,0.5,0.5,0.5C8.8,23.5,9,23.3,9,23C9,22.7,8.8,22.5,8.5,22.5L8.5,22.5z"/>
				</g>
			</g>
			<g>
				<g>
					<path d="M10.5,18c-0.3,0-0.5,0.2-0.5,0.5c0,0.3,0.2,0.5,0.5,0.5c0.3,0,0.5-0.2,0.5-0.5C11,18.2,10.8,18,10.5,18L10.5,18z"/>
				</g>
			</g>
			<g>
				<g>
					<path d="M8.5,19.5C8.2,19.5,8,19.7,8,20c0,0.3,0.2,0.5,0.5,0.5C8.8,20.5,9,20.3,9,20C9,19.7,8.8,19.5,8.5,19.5L8.5,19.5z"/>
				</g>
			</g>
		</g>
		<line class="st2" x1="2.1" y1="2" x2="2.8" y2="2.8"/>
		<line class="st2" x1="12.9" y1="2" x2="12.2" y2="2.8"/>
		<path class="st2" d="M22,19.6c0.9-0.7,1.5-1.9,1.5-3.1c0-1.4-0.7-2.6-1.7-3.3c0.9-2.1-0.8-4.5-3.1-4.2c-0.8-2.1-2.8-3.5-5.1-3.5
			c-2.9,0-5.2,2.2-5.5,5c-2.5,0.2-4.5,2.4-4.5,5c0,1.8,1,3.4,2.5,4.3"/>
		<path class="st2" d="M4.2,9.7C3.7,9.1,3.5,8.3,3.5,7.5c0-2.2,1.8-4,4-4c1,0,1.8,0.3,2.5,0.9"/>
		<line class="st2" x1="0.5" y1="6.5" x2="1.5" y2="6.5"/>
		<line class="st2" x1="7.5" y1="0.5" x2="7.5" y2="1.5"/>
	</g>
</g>
</svg>
