<?xml version="1.0" encoding="utf-8"?>
<!-- Generator: Adobe Illustrator 19.2.0, SVG Export Plug-In . SVG Version: 6.00 Build 0)  -->
<svg version="1.1" id="Layer_1" xmlns="http://www.w3.org/2000/svg" xmlns:xlink="http://www.w3.org/1999/xlink" x="0px" y="0px"
	 viewBox="0 0 24 24" style="enable-background:new 0 0 24 24;" xml:space="preserve">
<style type="text/css">
	.st0{display:none;}
	.st1{display:inline;}
	.st2{fill:none;stroke:#000000;stroke-linecap:round;stroke-linejoin:round;stroke-miterlimit:10;}
</style>
<g id="Filled_Icon" class="st0">
	<g class="st1">
		<path d="M4.2,10.6C5,10,5.8,9.5,6.7,9.2c0.6-2.1,2.1-3.9,4.1-4.7C10,3.6,8.8,3,7.5,3C5,3,3,5,3,7.5C3,8.7,3.5,9.8,4.2,10.6z"/>
		<path d="M22.3,13c0.3-1,0.2-2.1-0.4-2.9c-0.7-1-1.8-1.6-3-1.6C18,6.4,15.8,5,13.5,5c-3,0-5.5,2.2-5.9,5.1C4.9,10.5,3,12.8,3,15.5
			c0,2.2,1.3,4.1,3.1,4.9c0.1-0.2,0.2-0.3,0.3-0.5l2.5-2.5c0.6-0.6,1.5-0.6,2.1,0c0.6,0.6,0.6,1.5,0,2.1l-0.2,0.2
			c0.2,0.1,0.3,0.3,0.4,0.4c0.1-0.1,0.1-0.2,0.2-0.3l2.5-2.5c0.6-0.6,1.5-0.6,2.1,0c0.6,0.6,0.6,1.5,0,2.1l-0.2,0.2
			c0.2,0.1,0.3,0.3,0.4,0.4c0.1-0.1,0.1-0.2,0.2-0.3l2.5-2.5c0.6-0.6,1.5-0.6,2.1,0c0.6,0.6,0.6,1.5,0,2.1l-0.2,0.2
			c0.2,0.2,0.4,0.4,0.5,0.7c0,0,0,0.1,0,0.1c1.5-0.7,2.6-2.3,2.6-4C24,15.1,23.4,13.9,22.3,13z"/>
		<path d="M10.4,18.1c-0.2-0.2-0.5-0.2-0.7,0l-2.5,2.5C7,20.8,7,21,7,21.2c0.1,0.2,0.3,0.3,0.5,0.3h1.3l-1.6,1.6
			c-0.2,0.2-0.2,0.5,0,0.7C7.2,23.9,7.4,24,7.5,24c0.1,0,0.3,0,0.4-0.1l2.5-2.5c0.1-0.1,0.2-0.4,0.1-0.5c-0.1-0.2-0.3-0.3-0.5-0.3
			H8.7l1.6-1.7C10.5,18.7,10.5,18.3,10.4,18.1z"/>
		<path d="M15.4,18.1c-0.2-0.2-0.5-0.2-0.7,0l-2.5,2.5C12,20.8,12,21,12,21.2c0.1,0.2,0.3,0.3,0.5,0.3h1.3l-1.6,1.6
			c-0.2,0.2-0.2,0.5,0,0.7c0.1,0.1,0.2,0.1,0.4,0.1c0.1,0,0.3,0,0.4-0.1l2.5-2.5c0.1-0.1,0.2-0.4,0.1-0.5c-0.1-0.2-0.3-0.3-0.5-0.3
			h-1.3l1.6-1.7C15.5,18.7,15.5,18.3,15.4,18.1z"/>
		<path d="M20.4,18.1c-0.2-0.2-0.5-0.2-0.7,0l-2.5,2.5C17,20.8,17,21,17,21.2c0.1,0.2,0.3,0.3,0.5,0.3h1.3l-1.6,1.6
			c-0.2,0.2-0.2,0.5,0,0.7c0.1,0.1,0.2,0.1,0.4,0.1c0.1,0,0.3,0,0.4-0.1l2.5-2.5c0.1-0.1,0.2-0.4,0.1-0.5c-0.1-0.2-0.3-0.3-0.5-0.3
			h-1.3l1.6-1.7C20.5,18.7,20.5,18.3,20.4,18.1z"/>
		<path d="M3.2,2.5L2.4,1.7c-0.2-0.2-0.5-0.2-0.7,0c-0.2,0.2-0.2,0.5,0,0.7l0.8,0.8c0.1,0.1,0.2,0.1,0.4,0.1c0.1,0,0.3,0,0.4-0.1
			C3.4,3,3.4,2.7,3.2,2.5z"/>
		<path d="M12.2,3.3c0.1,0,0.3,0,0.4-0.1l0.8-0.8c0.2-0.2,0.2-0.5,0-0.7c-0.2-0.2-0.5-0.2-0.7,0l-0.8,0.8c-0.2,0.2-0.2,0.5,0,0.7
			C11.9,3.3,12,3.3,12.2,3.3z"/>
		<path d="M1.5,6h-1C0.2,6,0,6.2,0,6.5C0,6.8,0.2,7,0.5,7h1C1.8,7,2,6.8,2,6.5C2,6.2,1.8,6,1.5,6z"/>
		<path d="M7.5,2C7.8,2,8,1.8,8,1.5v-1C8,0.2,7.8,0,7.5,0C7.2,0,7,0.2,7,0.5v1C7,1.8,7.2,2,7.5,2z"/>
	</g>
</g>
<g id="Outline_Icons">
	<g>
		<polyline class="st2" points="7.5,23.5 10,21 7.5,21 10,18.5 		"/>
		<polyline class="st2" points="12.5,23.5 15,21 12.5,21 15,18.5 		"/>
		<polyline class="st2" points="17.5,23.5 20,21 17.5,21 20,18.5 		"/>
		<line class="st2" x1="2.1" y1="2" x2="2.8" y2="2.8"/>
		<line class="st2" x1="12.9" y1="2" x2="12.2" y2="2.8"/>
		<path class="st2" d="M22,19.6c0.9-0.7,1.5-1.9,1.5-3.1c0-1.4-0.7-2.6-1.7-3.3c0.9-2.1-0.8-4.5-3.1-4.2c-0.8-2.1-2.8-3.5-5.1-3.5
			c-2.9,0-5.2,2.2-5.5,5c-2.5,0.2-4.5,2.4-4.5,5c0,1.8,1,3.4,2.5,4.3"/>
		<path class="st2" d="M4.2,9.7C3.7,9.1,3.5,8.3,3.5,7.5c0-2.2,1.8-4,4-4c1,0,1.8,0.3,2.5,0.9"/>
		<line class="st2" x1="0.5" y1="6.5" x2="1.5" y2="6.5"/>
		<line class="st2" x1="7.5" y1="0.5" x2="7.5" y2="1.5"/>
	</g>
</g>
</svg>
