<?xml version="1.0" encoding="utf-8"?>
<!-- Generator: Adobe Illustrator 19.2.0, SVG Export Plug-In . SVG Version: 6.00 Build 0)  -->
<svg version="1.1" id="Layer_1" xmlns="http://www.w3.org/2000/svg" xmlns:xlink="http://www.w3.org/1999/xlink" x="0px" y="0px"
	 viewBox="0 0 24 24" style="enable-background:new 0 0 24 24;" xml:space="preserve">
<style type="text/css">
	.st0{display:none;}
	.st1{display:inline;}
	.st2{fill:none;stroke:#000000;stroke-linecap:round;stroke-linejoin:round;stroke-miterlimit:10;}
</style>
<g id="Filled_Icon" class="st0">
	<g class="st1">
		<g>
			<path d="M6.7,9.2c0.6-2.1,2.1-3.9,4.1-4.7C10,3.6,8.8,3,7.5,3C5,3,3,5,3,7.5c0,1.2,0.5,2.3,1.2,3.1C5,10,5.8,9.5,6.7,9.2z"/>
		</g>
		<g>
			<g>
				<path d="M22.3,13c0.3-1,0.2-2.1-0.4-2.9c-0.7-1-1.8-1.6-3-1.6C18,6.4,15.8,5,13.5,5c-3,0-5.5,2.2-5.9,5.1
					C4.9,10.5,3,12.8,3,15.5c0,2.1,1.2,4,3,4.9l2.9-2.9c0.6-0.6,1.5-0.6,2.1,0c0.4,0.4,0.5,1,0.3,1.6l1.5-1.5c0.6-0.6,1.5-0.6,2.1,0
					c0.6,0.6,0.6,1.5,0,2.1l-0.2,0.2c0.2,0.2,0.4,0.4,0.5,0.7c0.1,0.1,0.1,0.3,0.1,0.4l3.4-3.4c0.6-0.6,1.5-0.6,2.1,0
					c0.6,0.6,0.6,1.5,0,2.1L19.6,21c2.4-0.1,4.4-2,4.4-4.5C24,15.1,23.4,13.9,22.3,13z"/>
			</g>
		</g>
		<g>
			<path d="M11.5,24c-0.1,0-0.3,0-0.4-0.1c-0.2-0.2-0.2-0.5,0-0.7l1.6-1.6h-1.3c-0.2,0-0.4-0.1-0.5-0.3c-0.1-0.2,0-0.4,0.1-0.5
				l2.5-2.5c0.2-0.2,0.5-0.2,0.7,0c0.2,0.2,0.2,0.5,0,0.7l-1.6,1.7H14c0.2,0,0.4,0.1,0.5,0.3c0.1,0.2,0,0.4-0.1,0.5l-2.5,2.5
				C11.8,23.9,11.6,24,11.5,24z"/>
		</g>
		<g>
			<path d="M15,24c-0.1,0-0.3,0-0.4-0.1c-0.2-0.2-0.2-0.5,0-0.7l5-5c0.2-0.2,0.5-0.2,0.7,0c0.2,0.2,0.2,0.5,0,0.7l-5,5
				C15.3,23.9,15.1,24,15,24z"/>
		</g>
		<g>
			<path d="M5,24c-0.1,0-0.3,0-0.4-0.1c-0.2-0.2-0.2-0.5,0-0.7l5-5c0.2-0.2,0.5-0.2,0.7,0c0.2,0.2,0.2,0.5,0,0.7l-5,5
				C5.3,23.9,5.1,24,5,24z"/>
		</g>
		<g>
			<path d="M2.8,3.3c-0.1,0-0.3,0-0.4-0.1L1.7,2.4c-0.2-0.2-0.2-0.5,0-0.7c0.2-0.2,0.5-0.2,0.7,0l0.8,0.8c0.2,0.2,0.2,0.5,0,0.7
				C3.1,3.3,3,3.3,2.8,3.3z"/>
		</g>
		<g>
			<path d="M12.2,3.3c-0.1,0-0.3,0-0.4-0.1c-0.2-0.2-0.2-0.5,0-0.7l0.8-0.8c0.2-0.2,0.5-0.2,0.7,0c0.2,0.2,0.2,0.5,0,0.7l-0.8,0.8
				C12.4,3.3,12.3,3.3,12.2,3.3z"/>
		</g>
		<g>
			<path d="M1.5,7h-1C0.2,7,0,6.8,0,6.5C0,6.2,0.2,6,0.5,6h1C1.8,6,2,6.2,2,6.5C2,6.8,1.8,7,1.5,7z"/>
		</g>
		<g>
			<path d="M7.5,2C7.2,2,7,1.8,7,1.5v-1C7,0.2,7.2,0,7.5,0C7.8,0,8,0.2,8,0.5v1C8,1.8,7.8,2,7.5,2z"/>
		</g>
	</g>
</g>
<g id="Outline_Icons">
	<g>
		<polyline class="st2" points="11.5,23.5 14,21 11.5,21 14,18.5 		"/>
		<line class="st2" x1="15" y1="23.5" x2="20" y2="18.5"/>
		<line class="st2" x1="5" y1="23.5" x2="10" y2="18.5"/>
		<line class="st2" x1="2.1" y1="2" x2="2.8" y2="2.8"/>
		<line class="st2" x1="12.9" y1="2" x2="12.2" y2="2.8"/>
		<path class="st2" d="M22,19.6c0.9-0.7,1.5-1.9,1.5-3.1c0-1.4-0.7-2.6-1.7-3.3c0.9-2.1-0.8-4.5-3.1-4.2c-0.8-2.1-2.8-3.5-5.1-3.5
			c-2.9,0-5.2,2.2-5.5,5c-2.5,0.2-4.5,2.4-4.5,5c0,1.8,1,3.4,2.5,4.3"/>
		<path class="st2" d="M4.2,9.7C3.7,9.1,3.5,8.3,3.5,7.5c0-2.2,1.8-4,4-4c1,0,1.8,0.3,2.5,0.9"/>
		<line class="st2" x1="0.5" y1="6.5" x2="1.5" y2="6.5"/>
		<line class="st2" x1="7.5" y1="0.5" x2="7.5" y2="1.5"/>
	</g>
</g>
</svg>
