<?xml version="1.0" encoding="utf-8"?>
<!-- Generator: Adobe Illustrator 19.2.0, SVG Export Plug-In . SVG Version: 6.00 Build 0)  -->
<svg version="1.1" id="Layer_1" xmlns="http://www.w3.org/2000/svg" xmlns:xlink="http://www.w3.org/1999/xlink" x="0px" y="0px"
	 viewBox="0 0 24 24" style="enable-background:new 0 0 24 24;" xml:space="preserve">
<style type="text/css">
	.st0{display:none;}
	.st1{display:inline;}
	.st2{fill:none;stroke:#000000;stroke-linecap:round;stroke-linejoin:round;stroke-miterlimit:10;}
</style>
<g id="Filled_Icon" class="st0">
	<g class="st1">
		<path d="M9.5,2C9.8,2,10,1.8,10,1.5v-1C10,0.2,9.8,0,9.5,0C9.2,0,9,0.2,9,0.5v1C9,1.8,9.2,2,9.5,2z"/>
		<path d="M3.5,4c0.1,0,0.3,0,0.4-0.1C4,3.6,4,3.3,3.9,3.1l-1-1c-0.2-0.2-0.5-0.2-0.7,0C2,2.3,2,2.6,2.1,2.8l1,1
			C3.2,3.9,3.4,4,3.5,4z"/>
		<path d="M15.5,4c0.1,0,0.3,0,0.4-0.1l1-1c0.2-0.2,0.2-0.5,0-0.7c-0.2-0.2-0.5-0.2-0.7,0l-1,1c-0.2,0.2-0.2,0.5,0,0.7
			C15.2,3.9,15.4,4,15.5,4z"/>
		<path d="M1.5,9h-1C0.2,9,0,9.2,0,9.5C0,9.8,0.2,10,0.5,10h1C1.8,10,2,9.8,2,9.5C2,9.2,1.8,9,1.5,9z"/>
		<path d="M6.7,12.2C7.5,9.2,10.3,7,13.5,7c0.7,0,1.4,0.1,2.1,0.3C14.7,4.8,12.3,3,9.5,3C5.9,3,3,5.9,3,9.5c0,1.5,0.5,2.9,1.4,4
			C5,12.9,5.8,12.5,6.7,12.2z"/>
		<path d="M22.3,16c0.7-2.3-1.1-4.6-3.4-4.5C18,9.4,15.8,8,13.5,8c-2.8,0-5.3,2-5.9,4.8c0,0.2-0.2,0.3-0.4,0.4
			C4.8,13.7,3,15.9,3,18.5c0,3,2.5,5.5,5.5,5.5h11c2.5,0,4.5-2,4.5-4.5C24,18.1,23.4,16.8,22.3,16z"/>
	</g>
</g>
<g id="Outline_Icons">
	<g>
		<line class="st2" x1="9.5" y1="0.5" x2="9.5" y2="1.5"/>
		<line class="st2" x1="2.5" y1="2.5" x2="3.5" y2="3.5"/>
		<line class="st2" x1="16.5" y1="2.5" x2="15.5" y2="3.5"/>
		<line class="st2" x1="0.5" y1="9.5" x2="1.5" y2="9.5"/>
		<path class="st2" d="M21.8,16.2c0.9-2.1-0.8-4.5-3.1-4.2c-0.8-2.1-2.8-3.5-5.1-3.5c-2.9,0-5.2,2.2-5.5,5c-2.5,0.2-4.5,2.4-4.5,5
			c0,2.8,2.2,5,5,5h11c2.2,0,4-1.8,4-4C23.5,18.1,22.8,16.9,21.8,16.2z"/>
		<path class="st2" d="M14,5.5c-1.1-1.2-2.7-2-4.5-2c-3.3,0-6,2.7-6,6c0,0.7,0.1,1.3,0.3,2"/>
	</g>
</g>
</svg>
