<?xml version="1.0" encoding="utf-8"?>
<!-- Generator: Adobe Illustrator 19.2.0, SVG Export Plug-In . SVG Version: 6.00 Build 0)  -->
<svg version="1.1" id="Layer_1" xmlns="http://www.w3.org/2000/svg" xmlns:xlink="http://www.w3.org/1999/xlink" x="0px" y="0px"
	 viewBox="0 0 24 24" style="enable-background:new 0 0 24 24;" xml:space="preserve">
<style type="text/css">
	.st0{display:none;}
	.st1{display:inline;}
	.st2{fill:none;stroke:#000000;stroke-linecap:round;stroke-linejoin:round;stroke-miterlimit:10;}
	.st3{fill:none;stroke:#000000;stroke-linejoin:round;stroke-miterlimit:10;}
</style>
<g id="Filled_Icons" class="st0">
	<g class="st1">
		<path d="M12,0C5.4,0,0,5.4,0,12c0,6.6,5.4,12,12,12c6.6,0,12-5.4,12-12C24,5.4,18.6,0,12,0z M12.3,20.5c-2.1,0-3.5-0.7-5.1-1.8
			L18.7,7.2c0.7,1,1.8,2.5,1.8,5.1C20.5,16.8,16.8,20.5,12.3,20.5z M11.7,3.5c2.1,0,3.5,0.7,5.1,1.8L5.3,16.8
			c-0.7-1-1.8-2.5-1.8-5.1C3.5,7.2,7.2,3.5,11.7,3.5z"/>
	</g>
</g>
<g id="Outline_Icons">
	<g>
		<circle class="st2" cx="12" cy="12" r="11.5"/>
		<path class="st3" d="M12,4.3c-4.2,0-7.7,3.4-7.7,7.7c0,1.6,0.5,3.1,1.3,4.3L16.3,5.7C15.1,4.8,13.6,4.3,12,4.3z"/>
		<path class="st3" d="M7.7,18.3c1.2,0.8,2.7,1.3,4.3,1.3c4.2,0,7.7-3.4,7.7-7.7c0-1.6-0.5-3.1-1.3-4.3L7.7,18.3z"/>
	</g>
</g>
</svg>
