<?xml version="1.0" encoding="utf-8"?>
<!-- Generator: Adobe Illustrator 19.2.0, SVG Export Plug-In . SVG Version: 6.00 Build 0)  -->
<svg version="1.1" id="Layer_1" xmlns="http://www.w3.org/2000/svg" xmlns:xlink="http://www.w3.org/1999/xlink" x="0px" y="0px"
	 viewBox="0 0 24 24" style="enable-background:new 0 0 24 24;" xml:space="preserve">
<style type="text/css">
	.st0{display:none;}
	.st1{display:inline;}
	.st2{fill:none;stroke:#000000;stroke-linecap:round;stroke-linejoin:round;stroke-miterlimit:10;}
</style>
<g id="Filled_Icons" class="st0">
	<g class="st1">
		<path d="M3.2,20.1l8.1-8.1L3.2,3.9C1.2,6,0,8.9,0,12C0,15.1,1.2,18,3.2,20.1z"/>
		<path d="M12,12.7l-8.1,8.1c2.1,2,5,3.2,8.1,3.2c3.1,0,6-1.2,8.1-3.2L12,12.7z"/>
		<path d="M12.7,12l8.1,8.1c2-2.1,3.2-5,3.2-8.1c0-3.1-1.2-6-3.2-8.1L12.7,12z"/>
		<path d="M12,11.3l8.1-8.1C18,1.2,15.1,0,12,0C8.9,0,6,1.2,3.9,3.2L12,11.3z"/>
	</g>
</g>
<g id="Outline_Icons">
	<g>
		<circle class="st2" cx="12" cy="12" r="11.5"/>
		<line class="st2" x1="3.9" y1="3.9" x2="20.1" y2="20.1"/>
		<line class="st2" x1="20.1" y1="3.9" x2="3.9" y2="20.1"/>
	</g>
</g>
</svg>
