<?xml version="1.0" encoding="utf-8"?>
<!-- Generator: Adobe Illustrator 19.2.0, SVG Export Plug-In . SVG Version: 6.00 Build 0)  -->
<svg version="1.1" id="Layer_1" xmlns="http://www.w3.org/2000/svg" xmlns:xlink="http://www.w3.org/1999/xlink" x="0px" y="0px"
	 viewBox="0 0 24 24" enable-background="new 0 0 24 24" xml:space="preserve">
<g id="Filled_Icons" display="none">
	<g display="inline">
		<path d="M12.047,13.006c2.469,0,4.478-2.009,4.478-4.479c0-0.938-0.293-1.809-0.787-2.529c1.104-1.411,0.979-3.576-0.29-4.845
			c-0.195-0.195-0.513-0.195-0.707,0c-0.195,0.195-0.195,0.512,0,0.707c0.862,0.862,0.979,2.354,0.309,3.367
			c-0.796-0.726-1.843-1.18-3.002-1.18c-1.159,0-2.208,0.455-3.004,1.18C8.373,4.214,8.49,2.723,9.354,1.86
			c0.195-0.195,0.195-0.512,0-0.707c-0.195-0.195-0.512-0.195-0.707,0c-1.269,1.269-1.394,3.433-0.29,4.844
			c-0.497,0.721-0.79,1.591-0.79,2.53C7.567,10.997,9.577,13.006,12.047,13.006z"/>
		<path d="M4,12.006H3v-6H2v6H1v-4H0v4.5c0,0.275,0.224,0.5,0.5,0.5H2v11h1v-11h1.5c0.276,0,0.5-0.225,0.5-0.5v-4.5H4V12.006z"/>
		<path d="M23.785,14.366l-1.953-1.734c-0.178-0.158-0.441-0.169-0.633-0.024l-2.281,1.719c-0.221,0.166-0.266,0.479-0.1,0.699
			c0.166,0.223,0.479,0.266,0.701,0.1L21,14.009v2.997c0,1.654-1.346,3-3,3h-1.543l1.771-5.754c0.232-0.756,0.092-1.587-0.379-2.221
			c-0.268-0.363-0.635-0.631-1.041-0.804c-0.943,1.656-2.723,2.778-4.762,2.778c-2.039,0-3.818-1.122-4.762-2.778
			c-0.407,0.173-0.772,0.44-1.041,0.804c-0.47,0.636-0.611,1.466-0.379,2.221l2.893,9.402c0.065,0.209,0.259,0.353,0.479,0.353l0,0
			l5.623-0.004c0.22,0,0.414-0.143,0.477-0.352l0.813-2.646H18c2.206,0,4-1.794,4-4v-2.888l1.121,0.996
			c0.095,0.084,0.214,0.125,0.332,0.125c0.138,0,0.274-0.057,0.374-0.168C24.01,14.866,23.991,14.55,23.785,14.366z"/>
	</g>
</g>
<g id="Outline_Icons">
	<g>
		<circle fill="none" stroke="#000000" stroke-linejoin="round" stroke-miterlimit="10" cx="12.046" cy="8.521" r="3.979"/>
		<path fill="none" stroke="#000000" stroke-linejoin="round" stroke-miterlimit="10" d="M9.42,11.51H8.255
			c-0.635,0-1.231,0.302-1.608,0.812c-0.377,0.51-0.49,1.169-0.303,1.777l2.893,9.401l5.623-0.004l2.892-9.397
			c0.188-0.607,0.075-1.268-0.303-1.777c-0.378-0.511-0.974-0.812-1.608-0.812h-1.167"/>
		<path fill="none" stroke="#000000" stroke-linecap="round" stroke-linejoin="round" stroke-miterlimit="10" d="M9,1.501
			c-1.1,1.1-1.205,2.993-0.233,4.208L9,6.001"/>
		<path fill="none" stroke="#000000" stroke-linecap="round" stroke-linejoin="round" stroke-miterlimit="10" d="M15.094,1.501
			c1.1,1.1,1.205,2.993,0.233,4.208l-0.233,0.292"/>
		<path fill="none" stroke="#000000" stroke-linejoin="round" stroke-miterlimit="10" d="M21.5,13v4c0,1.934-1.566,3.5-3.5,3.5
			h-2.221"/>
		<polyline fill="none" stroke="#000000" stroke-linejoin="round" stroke-miterlimit="10" points="4.5,8 4.5,12.5 0.5,12.5 0.5,8 		
			"/>
		<line fill="none" stroke="#000000" stroke-linejoin="round" stroke-miterlimit="10" x1="2.5" y1="6" x2="2.5" y2="24"/>
		<polyline fill="none" stroke="#000000" stroke-linecap="round" stroke-linejoin="round" stroke-miterlimit="10" points="
			19.219,14.719 21.5,13 23.453,14.734 		"/>
	</g>
</g>
</svg>
