<?xml version="1.0" encoding="utf-8"?>
<!-- Generator: Adobe Illustrator 19.2.0, SVG Export Plug-In . SVG Version: 6.00 Build 0)  -->
<svg version="1.1" id="Layer_1" xmlns="http://www.w3.org/2000/svg" xmlns:xlink="http://www.w3.org/1999/xlink" x="0px" y="0px"
	 viewBox="0 0 24 24" enable-background="new 0 0 24 24" xml:space="preserve">
<g id="Filled_Icons" display="none">
	<path display="inline" d="M21.63,4.523c-0.073-0.02-7.397-2.016-9.769-4.391c-0.188-0.189-0.536-0.189-0.724,0
		C8.77,2.506,1.443,4.504,1.37,4.523C1.151,4.583,1,4.78,1,5.006c0,8.569,0.761,15.405,10.326,18.948
		c0.057,0.021,0.115,0.03,0.174,0.03c0.059,0,0.117-0.01,0.174-0.03C21.238,20.411,22,13.575,22,5.006
		C22,4.78,21.85,4.583,21.63,4.523z M16.167,16.266c0,0.662-0.064,1.313-0.192,1.936c-0.102,0.495-0.543,0.855-1.049,0.855
		c-0.537,0-0.986-0.402-1.044-0.938c-0.196-1.841-1.22-3.23-2.382-3.23c-1.157,0-2.18,1.381-2.38,3.213
		c-0.059,0.543-0.517,0.953-1.064,0.953c-0.493,0-0.925-0.35-1.024-0.834c-0.131-0.627-0.197-1.285-0.197-1.957
		c0-1.138,0.195-2.25,0.566-3.24C6.471,11.969,6,10.537,6,8.766c0-2.161,1.409-3.853,3.209-3.853c0.876,0,1.694,0.352,2.291,0.965
		c0.597-0.613,1.415-0.965,2.292-0.965C15.591,4.913,17,6.605,17,8.766c0,1.771-0.471,3.204-1.4,4.259
		C15.973,14.018,16.167,15.13,16.167,16.266z"/>
</g>
<g id="Outline_Icons">
	<g>
		<path fill="none" stroke="#000000" stroke-linejoin="round" stroke-miterlimit="10" d="M16.5,8.76
			c0-1.875-1.213-3.354-2.708-3.354c-0.967,0-1.813,0.508-2.292,1.271c-0.479-0.762-1.325-1.271-2.291-1.271
			C7.713,5.406,6.5,6.885,6.5,8.76c0,2.028,0.651,3.322,1.482,4.151c-0.41,0.968-0.648,2.116-0.648,3.349
			c0,0.646,0.064,1.27,0.187,1.855c0.053,0.254,0.276,0.436,0.535,0.436c0.292,0,0.536-0.218,0.567-0.508
			c0.227-2.076,1.429-3.658,2.877-3.658c1.452,0,2.657,1.592,2.879,3.676c0.03,0.278,0.266,0.49,0.547,0.49
			c0.272,0,0.504-0.19,0.559-0.455c0.119-0.58,0.184-1.197,0.184-1.836c0-1.233-0.238-2.381-0.649-3.349
			C15.85,12.082,16.5,10.788,16.5,8.76z"/>
		<path fill="none" stroke="#000000" stroke-linecap="round" stroke-linejoin="round" stroke-miterlimit="10" d="M11.508,0.479
			h-0.017C9,2.977,1.5,5,1.5,5c0,7.961,0.5,14.961,10,18.479C21,19.961,21.5,12.961,21.5,5C21.5,5,14,2.977,11.508,0.479z"/>
	</g>
</g>
</svg>
