<?xml version="1.0" encoding="utf-8"?>
<!-- Generator: Adobe Illustrator 19.2.0, SVG Export Plug-In . SVG Version: 6.00 Build 0)  -->
<svg version="1.1" id="Layer_1" xmlns="http://www.w3.org/2000/svg" xmlns:xlink="http://www.w3.org/1999/xlink" x="0px" y="0px"
	 viewBox="0 0 24 24" enable-background="new 0 0 24 24" xml:space="preserve">
<g id="Filled_Icons" display="none">
	<path display="inline" d="M21,6.859c0-3.476-2.242-6.199-5.104-6.199c-1.521,0-2.933,0.666-3.896,1.811
		C11.035,1.326,9.624,0.66,8.104,0.66C5.242,0.66,3,3.384,3,6.859c0,3.014,0.818,5.424,2.434,7.17
		c-0.666,1.693-1.018,3.613-1.018,5.58c0,1.109,0.11,2.205,0.329,3.258c0.138,0.658,0.726,1.139,1.399,1.139
		c0.751,0,1.38-0.562,1.461-1.309c0.358-3.293,2.248-5.774,4.395-5.774c2.154,0,4.045,2.494,4.396,5.8
		c0.076,0.732,0.689,1.283,1.426,1.283c0.693,0,1.3-0.494,1.439-1.175c0.213-1.04,0.32-2.124,0.32-3.222
		c0-1.967-0.352-3.889-1.018-5.578C20.182,12.282,21,9.871,21,6.859z M16,11.506c0,0.276-0.225,0.5-0.5,0.5H14v1.5
		c0,0.275-0.225,0.5-0.5,0.5h-3c-0.276,0-0.5-0.225-0.5-0.5v-1.5H8.5c-0.276,0-0.5-0.224-0.5-0.5v-3c0-0.276,0.224-0.5,0.5-0.5H10
		v-1.5c0-0.276,0.224-0.5,0.5-0.5h3c0.275,0,0.5,0.224,0.5,0.5v1.5h1.5c0.275,0,0.5,0.224,0.5,0.5V11.506z"/>
</g>
<g id="Outline_Icons">
	<g>
		<path fill="none" stroke="#000000" stroke-linejoin="round" stroke-miterlimit="10" d="M20.5,6.854
			c0-3.187-2.063-5.699-4.604-5.699c-1.644,0-3.082,0.863-3.896,2.157c-0.815-1.294-2.253-2.157-3.896-2.157
			C5.562,1.154,3.5,3.667,3.5,6.854c0,3.448,1.105,5.648,2.52,7.058c-0.697,1.646-1.104,3.598-1.104,5.691
			c0,1.099,0.111,2.158,0.318,3.156c0.09,0.432,0.47,0.741,0.91,0.741c0.495,0,0.91-0.372,0.964-0.862
			c0.385-3.531,2.429-6.221,4.892-6.221c2.469,0,4.518,2.705,4.894,6.248c0.051,0.477,0.451,0.836,0.93,0.836
			c0.46,0,0.855-0.324,0.949-0.775c0.201-0.988,0.311-2.037,0.311-3.121c0-2.094-0.404-4.047-1.104-5.692
			C19.394,12.502,20.5,10.301,20.5,6.854z"/>
		<polygon fill="none" stroke="#000000" stroke-linejoin="round" stroke-miterlimit="10" points="10.5,11.5 10.5,13.5 13.5,13.5 
			13.5,11.5 15.5,11.5 15.5,8.5 13.5,8.5 13.5,6.5 10.5,6.5 10.5,8.5 8.5,8.5 8.5,11.5 		"/>
	</g>
</g>
</svg>
