<?xml version="1.0" encoding="utf-8"?>
<!-- Generator: Adobe Illustrator 19.2.0, SVG Export Plug-In . SVG Version: 6.00 Build 0)  -->
<svg version="1.1" id="Layer_1" xmlns="http://www.w3.org/2000/svg" xmlns:xlink="http://www.w3.org/1999/xlink" x="0px" y="0px"
	 viewBox="0 0 24 24" style="enable-background:new 0 0 24 24;" xml:space="preserve">
<style type="text/css">
	.st0{display:none;}
	.st1{display:inline;}
	.st2{fill:none;stroke:#000000;stroke-linecap:round;stroke-linejoin:round;stroke-miterlimit:10;}
</style>
<g id="Filled_Icon" class="st0">
	<g class="st1">
		<path d="M15.5,12H15v-0.5c0-0.3-0.2-0.5-0.5-0.5h-13C1.2,11,1,11.2,1,11.5v10C1,22.9,2.1,24,3.5,24h9c1.4,0,2.5-1.1,2.5-2.5V19
			h0.5c1.9,0,3.5-1.6,3.5-3.5C19,13.6,17.4,12,15.5,12z M15.5,18H15v-5h0.5c1.4,0,2.5,1.1,2.5,2.5C18,16.9,16.9,18,15.5,18z"/>
		<path d="M11.5,10h2c0.2,0,0.4-0.1,0.4-0.3l1.5-3.1c1-0.1,1.8-1,1.9-2.3c0.2-1.6-0.6-3.7-2.9-4.2c-0.2,0-0.4,0-0.5,0.2
			c-0.1,0.2-0.1,0.4,0,0.6c0.5,0.8,0.2,1.3-0.4,2c-0.2,0.3-0.4,0.5-0.5,0.8c-0.2,0.6-0.2,1.1,0,1.6c0.1,0.2,0.2,0.4,0.4,0.6l-2,2.8
			c0,0.1-0.1,0.1-0.1,0.2l-0.2,0.3c-0.1,0.2-0.1,0.4,0,0.5C11.1,9.9,11.3,10,11.5,10z M14,4c0.1-0.2,0.2-0.4,0.4-0.6
			c0.4-0.5,0.9-1.1,0.8-2c0.9,0.6,1.3,1.7,1.2,2.7c-0.1,0.7-0.4,1.5-1.2,1.5l0,0l-0.9-0.3C14.2,5.2,14,5.1,14,4.9
			C13.8,4.7,13.9,4.4,14,4z"/>
		<path d="M0.8,4.1C0.6,4,0.4,4,0.2,4.1C0.1,4.2,0,4.4,0,4.6l0.5,2.8l2.4-2L0.8,4.1z"/>
		<path d="M2.5,10h3c0,0,0,0,0,0C5.8,10,6,9.8,6,9.5C6,9.8,6.2,10,6.5,10h4c0.3,0,0.5-0.2,0.5-0.5V9h-1H9.8C9.5,9,9.2,8.8,9.2,8.5
			C9.2,8.2,9.5,8,9.8,8H11V7H8.5C8.2,7,8,6.8,8,6.5C8,6.2,8.2,6,8.5,6H11V5H9.8C9.5,5,9.2,4.8,9.2,4.5C9.2,4.2,9.5,4,9.8,4H11V3H8.5
			C8.2,3,8,2.8,8,2.5C8,2.2,8.2,2,8.5,2H11V0.5C11,0.2,10.8,0,10.5,0h-4C6.2,0,6,0.2,6,0.5v9c0-0.1-0.1-0.2-0.1-0.3L3.6,6L1,8.3
			l1.1,1.5C2.2,9.9,2.3,10,2.5,10z"/>
	</g>
</g>
<g id="Outline_Icons">
	<g>
		<path class="st2" d="M14.5,12.5h1c1.7,0,3,1.3,3,3c0,1.7-1.3,3-3,3h-1"/>
		<path class="st2" d="M14.5,21.5c0,1.1-0.9,2-2,2h-9c-1.1,0-2-0.9-2-2v-11h13V21.5z"/>
		<path class="st2" d="M14.4,0.6c1,1.6-0.5,2.4-0.9,3.3c-0.4,0.9,0,1.8,0.9,2.1C17.3,7.2,18.2,1.5,14.4,0.6z"/>
		<line class="st2" x1="11.5" y1="10.5" x2="14.1" y2="5.8"/>
		<line class="st2" x1="15.1" y1="6.2" x2="13.5" y2="10.5"/>
		<polygon class="st2" points="5.5,10.5 2.5,10.5 1,7.5 0.5,4.5 3,6 		"/>
		<line class="st2" x1="1" y1="7.5" x2="3" y2="6"/>
		<rect x="6.5" y="0.5" class="st2" width="4" height="10"/>
		<line class="st2" x1="10.5" y1="2.5" x2="8.5" y2="2.5"/>
		<line class="st2" x1="10.5" y1="4.5" x2="9.5" y2="4.5"/>
		<line class="st2" x1="10.5" y1="6.5" x2="8.5" y2="6.5"/>
		<line class="st2" x1="10.5" y1="8.5" x2="9.5" y2="8.5"/>
	</g>
</g>
</svg>
