<?xml version="1.0" encoding="utf-8"?>
<!-- Generator: Adobe Illustrator 19.2.0, SVG Export Plug-In . SVG Version: 6.00 Build 0)  -->
<svg version="1.1" id="Layer_1" xmlns="http://www.w3.org/2000/svg" xmlns:xlink="http://www.w3.org/1999/xlink" x="0px" y="0px"
	 viewBox="0 0 24 24" enable-background="new 0 0 24 24" xml:space="preserve">
<g id="Filled_Icons" display="none">
	<g display="inline">
		<polygon points="15.616,7.006 12,0.978 8.383,7.006 		"/>
		<polygon points="8.154,8.006 12,22.106 15.846,8.006 		"/>
		<polygon points="16.882,8.006 12.678,23.42 23.757,8.006 		"/>
		<polygon points="0.242,8.006 11.321,23.42 7.117,8.006 		"/>
		<polygon points="4.818,0.6 0.243,7.006 6.819,7.006 		"/>
		<polygon points="18.473,0.006 12.583,0.006 16.369,6.317 		"/>
		<polygon points="11.416,0.006 5.68,0.006 7.645,6.294 		"/>
		<polygon points="23.757,7.006 19.281,0.741 17.193,7.006 		"/>
	</g>
</g>
<g id="Outline_Icons">
	<g>
		
			<line fill="none" stroke="#000000" stroke-linecap="round" stroke-linejoin="round" stroke-miterlimit="10" x1="23.5" y1="7.5" x2="0.5" y2="7.5"/>
		<polygon fill="none" stroke="#000000" stroke-linecap="round" stroke-linejoin="round" stroke-miterlimit="10" points="12,23.5 
			0.5,7.5 5.5,0.5 18.5,0.5 23.5,7.5 		"/>
		<polygon fill="none" stroke="#000000" stroke-linecap="round" stroke-linejoin="round" stroke-miterlimit="10" points="7.5,7.5 
			12,0.5 16.5,7.5 12,23.5 		"/>
		
			<line fill="none" stroke="#000000" stroke-linecap="round" stroke-linejoin="round" stroke-miterlimit="10" x1="5.5" y1="0.5" x2="7.5" y2="7.5"/>
		
			<line fill="none" stroke="#000000" stroke-linecap="round" stroke-linejoin="round" stroke-miterlimit="10" x1="18.5" y1="0.5" x2="16.5" y2="7.5"/>
	</g>
</g>
</svg>
