<?xml version="1.0" encoding="utf-8"?>
<!-- Generator: Adobe Illustrator 19.2.0, SVG Export Plug-In . SVG Version: 6.00 Build 0)  -->
<svg version="1.1" id="Layer_1" xmlns="http://www.w3.org/2000/svg" xmlns:xlink="http://www.w3.org/1999/xlink" x="0px" y="0px"
	 viewBox="0 0 24 24" enable-background="new 0 0 24 24" xml:space="preserve">
<g id="Filled_Icons" display="none">
	<g display="inline">
		<path d="M15.258,6.625l-0.837,1.171c-0.094,0.132-0.245,0.209-0.405,0.209H9.985c-0.162,0-0.313-0.078-0.407-0.209L8.742,6.625
			C5.387,7.934,3,11.194,3,15.006c0,4.963,4.037,9,9,9c4.962,0,9-4.037,9-9C21,11.194,18.611,7.934,15.258,6.625z M12,21.006
			c-3.309,0-6-2.691-6-6c0-3.309,2.691-6,6-6c3.309,0,6,2.691,6,6C18,18.315,15.309,21.006,12,21.006z"/>
		<polygon points="7.742,2.999 9.741,6.305 9.741,6.305 10.242,7.006 13.757,7.006 14.258,6.305 14.258,6.305 16.257,2.999 		"/>
		<path d="M14.93,0.25c-0.092-0.151-0.254-0.243-0.43-0.243h-5c-0.176,0-0.339,0.092-0.429,0.243L7.717,1.999h8.565L14.93,0.25z"/>
	</g>
</g>
<g id="Outline_Icons">
	<g>
		<polygon fill="none" stroke="#000000" stroke-linecap="round" stroke-linejoin="round" stroke-miterlimit="10" points="10.5,6.5 
			8,2.542 9.5,0.5 14.5,0.5 16,2.542 13.5,6.5 		"/>
		
			<line fill="none" stroke="#000000" stroke-linecap="round" stroke-linejoin="round" stroke-miterlimit="10" x1="8" y1="2.541" x2="16" y2="2.541"/>
		<path fill="none" stroke="#000000" stroke-linecap="round" stroke-linejoin="round" stroke-miterlimit="10" d="M8.592,7.216
			C5.595,8.529,3.5,11.518,3.5,15c0,4.693,3.805,8.5,8.5,8.5c4.693,0,8.5-3.807,8.5-8.5c0-3.482-2.098-6.471-5.094-7.784"/>
		
			<circle fill="none" stroke="#000000" stroke-linecap="round" stroke-linejoin="round" stroke-miterlimit="10" cx="12" cy="15" r="6.5"/>
	</g>
</g>
</svg>
