<?xml version="1.0" encoding="utf-8"?>
<!-- Generator: Adobe Illustrator 19.2.0, SVG Export Plug-In . SVG Version: 6.00 Build 0)  -->
<svg version="1.1" id="Layer_1" xmlns="http://www.w3.org/2000/svg" xmlns:xlink="http://www.w3.org/1999/xlink" x="0px" y="0px"
	 viewBox="0 0 24 24" enable-background="new 0 0 24 24" xml:space="preserve">
<g id="Filled_Icons" display="none">
	<g display="inline">
		<path d="M22.32,2.428l-7.672-2.399c-0.098-0.03-0.201-0.03-0.299,0L6.35,2.531C6.258,2.56,6.182,2.616,6.122,2.687l8.364,2.788
			L22.32,2.428z M13.5,3.008c0-0.554,0.447-1,1-1c0.553,0,1,0.446,1,1c0,0.551-0.447,1-1,1C13.947,4.008,13.5,3.559,13.5,3.008z"/>
		<path d="M15,6.348v1.307l3.648,1.142C18.857,8.86,19,9.054,19,9.273v5.67l3.685-1.475C22.875,13.395,23,13.21,23,13.006v-9.77
			L15,6.348z M20.5,12.506c-0.553,0-1-0.447-1-1c0-0.552,0.447-1,1-1c0.553,0,1,0.448,1,1C21.5,12.059,21.053,12.506,20.5,12.506z
			 M20.5,7.506c-0.553,0-1-0.447-1-1c0-0.552,0.447-1,1-1c0.553,0,1,0.448,1,1C21.5,7.059,21.053,7.506,20.5,7.506z"/>
		<path d="M9.649,5.98L14,7.342V6.366L6,3.699v3.329L9.351,5.98C9.448,5.95,9.552,5.95,9.649,5.98z"/>
		<path d="M1,20.006c0,0.198,0.117,0.377,0.299,0.457L9,23.832V13.506c0-0.053,0.015-0.1,0.029-0.146L1,10.236V20.006z M7,18.506
			c0.552,0,1,0.448,1,1c0,0.553-0.448,1-1,1c-0.553,0-1-0.447-1-1C6,18.954,6.447,18.506,7,18.506z M4,13.506c0.552,0,1,0.448,1,1
			c0,0.553-0.448,1-1,1c-0.553,0-1-0.447-1-1C3,13.954,3.447,13.506,4,13.506z"/>
		<path d="M10,13.506v10.326l7.701-3.369C17.883,20.383,18,20.204,18,20.006v-9.77l-8.03,3.122C9.984,13.406,10,13.453,10,13.506z
			 M15,13.506c0.553,0,1,0.448,1,1c0,0.553-0.447,1-1,1c-0.553,0-1-0.447-1-1C14,13.954,14.447,13.506,15,13.506z M13.5,16.006
			c0.553,0,1,0.448,1,1c0,0.553-0.447,1-1,1c-0.553,0-1-0.447-1-1C12.5,16.454,12.947,16.006,13.5,16.006z M12,18.506
			c0.553,0,1,0.448,1,1c0,0.553-0.447,1-1,1c-0.553,0-1-0.447-1-1C11,18.954,11.447,18.506,12,18.506z"/>
		<path d="M9.5,6.981L1.679,9.428L9.5,12.469l7.82-3.041L9.5,6.981z M9.5,11.008c-0.553,0-1-0.449-1-1c0-0.554,0.447-1,1-1
			c0.552,0,1,0.446,1,1C10.5,10.559,10.052,11.008,9.5,11.008z"/>
	</g>
</g>
<g id="Outline_Icons">
	<g>
		<polyline fill="none" stroke="#000000" stroke-linejoin="round" stroke-miterlimit="10" points="14.5,9 14.5,6 6.5,3 6.5,8.5 		
			"/>
		<polygon fill="none" stroke="#000000" stroke-linecap="round" stroke-linejoin="round" stroke-miterlimit="10" points="9.5,13 
			1.5,10 1.5,20 9.5,23.5 		"/>
		<polygon fill="none" stroke="#000000" stroke-linecap="round" stroke-linejoin="round" stroke-miterlimit="10" points="9.5,13 
			17.5,10 17.5,20 9.5,23.5 		"/>
		<polyline fill="none" stroke="#000000" stroke-linecap="round" stroke-linejoin="round" stroke-miterlimit="10" points="
			17.5,10.002 9.5,7.5 1.5,10.002 		"/>
		<polyline fill="none" stroke="#000000" stroke-linejoin="round" stroke-miterlimit="10" points="14.5,6 22.5,3 22.5,13 17.5,15 		
			"/>
		<polyline fill="none" stroke="#000000" stroke-linecap="round" stroke-linejoin="round" stroke-miterlimit="10" points="
			22.5,3.002 14.5,0.5 6.5,3.002 		"/>
		<path fill="none" stroke="#000000" stroke-linejoin="round" stroke-miterlimit="10" d="M15,3c0,0.276-0.225,0.5-0.5,0.5l0,0
			C14.225,3.5,14,3.276,14,3l0,0c0-0.276,0.225-0.5,0.5-0.5l0,0C14.775,2.5,15,2.724,15,3L15,3z"/>
		<path fill="none" stroke="#000000" stroke-linejoin="round" stroke-miterlimit="10" d="M20.5,6.5C20.5,6.776,20.275,7,20,7l0,0
			c-0.275,0-0.5-0.224-0.5-0.5l0,0C19.5,6.224,19.725,6,20,6l0,0C20.275,6,20.5,6.224,20.5,6.5L20.5,6.5z"/>
		<path fill="none" stroke="#000000" stroke-linejoin="round" stroke-miterlimit="10" d="M20.5,11.5c0,0.276-0.225,0.5-0.5,0.5l0,0
			c-0.275,0-0.5-0.224-0.5-0.5l0,0c0-0.276,0.225-0.5,0.5-0.5l0,0C20.275,11,20.5,11.224,20.5,11.5L20.5,11.5z"/>
		<path fill="none" stroke="#000000" stroke-linejoin="round" stroke-miterlimit="10" d="M10,10c0,0.276-0.224,0.5-0.5,0.5l0,0
			C9.224,10.5,9,10.276,9,10l0,0c0-0.276,0.224-0.5,0.5-0.5l0,0C9.776,9.5,10,9.724,10,10L10,10z"/>
		<path fill="none" stroke="#000000" stroke-linejoin="round" stroke-miterlimit="10" d="M4.5,14.5C4.5,14.775,4.276,15,4,15l0,0
			c-0.276,0-0.5-0.225-0.5-0.5l0,0C3.5,14.225,3.724,14,4,14l0,0C4.276,14,4.5,14.225,4.5,14.5L4.5,14.5z"/>
		<path fill="none" stroke="#000000" stroke-linejoin="round" stroke-miterlimit="10" d="M7.5,19.5C7.5,19.775,7.276,20,7,20l0,0
			c-0.276,0-0.5-0.225-0.5-0.5l0,0C6.5,19.225,6.724,19,7,19l0,0C7.276,19,7.5,19.225,7.5,19.5L7.5,19.5z"/>
		<path fill="none" stroke="#000000" stroke-linejoin="round" stroke-miterlimit="10" d="M12.5,19.5c0,0.275-0.224,0.5-0.5,0.5l0,0
			c-0.276,0-0.5-0.225-0.5-0.5l0,0c0-0.275,0.224-0.5,0.5-0.5l0,0C12.276,19,12.5,19.225,12.5,19.5L12.5,19.5z"/>
		<path fill="none" stroke="#000000" stroke-linejoin="round" stroke-miterlimit="10" d="M14,17c0,0.275-0.225,0.5-0.5,0.5l0,0
			c-0.275,0-0.5-0.225-0.5-0.5l0,0c0-0.275,0.225-0.5,0.5-0.5l0,0C13.775,16.5,14,16.725,14,17L14,17z"/>
		<path fill="none" stroke="#000000" stroke-linejoin="round" stroke-miterlimit="10" d="M15.5,14.5c0,0.275-0.225,0.5-0.5,0.5l0,0
			c-0.275,0-0.5-0.225-0.5-0.5l0,0c0-0.275,0.225-0.5,0.5-0.5l0,0C15.275,14,15.5,14.225,15.5,14.5L15.5,14.5z"/>
	</g>
</g>
</svg>
