<?xml version="1.0" encoding="utf-8"?>
<!-- Generator: Adobe Illustrator 19.2.0, SVG Export Plug-In . SVG Version: 6.00 Build 0)  -->
<svg version="1.1" id="Layer_1" xmlns="http://www.w3.org/2000/svg" xmlns:xlink="http://www.w3.org/1999/xlink" x="0px" y="0px"
	 viewBox="0 0 24 24" enable-background="new 0 0 24 24" xml:space="preserve">
<g id="Filled_Icons" display="none">
	<g display="inline">
		<path d="M22.5,1.006h-12c-0.827,0-1.5,0.673-1.5,1.5v4.5h4.5c1.378,0,2.5,1.121,2.5,2.5v6.5h6.5c0.827,0,1.5-0.673,1.5-1.5v-12
			C24,1.679,23.327,1.006,22.5,1.006z M14,6.006c-0.553,0-1-0.447-1-1c0-0.552,0.447-1,1-1c0.553,0,1,0.448,1,1
			C15,5.559,14.553,6.006,14,6.006z M19,13.006c-0.553,0-1-0.447-1-1c0-0.552,0.447-1,1-1c0.553,0,1,0.448,1,1
			C20,12.559,19.553,13.006,19,13.006z M19,6.006c-0.553,0-1-0.447-1-1c0-0.552,0.447-1,1-1c0.553,0,1,0.448,1,1
			C20,5.559,19.553,6.006,19,6.006z"/>
		<path d="M13.5,8.006h-12c-0.827,0-1.5,0.673-1.5,1.5v12c0,0.827,0.673,1.5,1.5,1.5h12c0.827,0,1.5-0.673,1.5-1.5v-12
			C15,8.679,14.327,8.006,13.5,8.006z M4,19.006c-0.552,0-1-0.447-1-1c0-0.552,0.448-1,1-1c0.552,0,1,0.448,1,1
			C5,18.559,4.552,19.006,4,19.006z M4,14.006c-0.552,0-1-0.447-1-1c0-0.552,0.448-1,1-1c0.552,0,1,0.448,1,1
			C5,13.559,4.552,14.006,4,14.006z M7.5,19.006c-0.552,0-1-0.447-1-1c0-0.552,0.448-1,1-1c0.552,0,1,0.448,1,1
			C8.5,18.559,8.052,19.006,7.5,19.006z M7.5,14.006c-0.552,0-1-0.447-1-1c0-0.552,0.448-1,1-1c0.552,0,1,0.448,1,1
			C8.5,13.559,8.052,14.006,7.5,14.006z M11,19.006c-0.552,0-1-0.447-1-1c0-0.552,0.448-1,1-1c0.552,0,1,0.448,1,1
			C12,18.559,11.552,19.006,11,19.006z M11,14.006c-0.552,0-1-0.447-1-1c0-0.552,0.448-1,1-1c0.552,0,1,0.448,1,1
			C12,13.559,11.552,14.006,11,14.006z"/>
	</g>
</g>
<g id="Outline_Icons">
	<g>
		<path fill="none" stroke="#000000" stroke-linecap="round" stroke-linejoin="round" stroke-miterlimit="10" d="M14.5,9.5
			c0-0.55-0.45-1-1-1h-12c-0.55,0-1,0.45-1,1v12c0,0.55,0.45,1,1,1h12c0.55,0,1-0.45,1-1V9.5z"/>
		<path fill="none" stroke="#000000" stroke-linecap="round" stroke-linejoin="round" stroke-miterlimit="10" d="M14.5,15.5h8
			c0.55,0,1-0.45,1-1v-12c0-0.55-0.45-1-1-1h-12c-0.55,0-1,0.45-1,1v6"/>
		<path fill="none" stroke="#000000" stroke-linejoin="round" stroke-miterlimit="10" d="M14.5,5c0,0.276-0.225,0.5-0.5,0.5l0,0
			c-0.275,0-0.5-0.224-0.5-0.5l0,0c0-0.276,0.225-0.5,0.5-0.5l0,0C14.275,4.5,14.5,4.724,14.5,5L14.5,5z"/>
		<path fill="none" stroke="#000000" stroke-linejoin="round" stroke-miterlimit="10" d="M19.5,5c0,0.276-0.225,0.5-0.5,0.5l0,0
			c-0.275,0-0.5-0.224-0.5-0.5l0,0c0-0.276,0.225-0.5,0.5-0.5l0,0C19.275,4.5,19.5,4.724,19.5,5L19.5,5z"/>
		<path fill="none" stroke="#000000" stroke-linejoin="round" stroke-miterlimit="10" d="M19.5,12c0,0.276-0.225,0.5-0.5,0.5l0,0
			c-0.275,0-0.5-0.224-0.5-0.5l0,0c0-0.276,0.225-0.5,0.5-0.5l0,0C19.275,11.5,19.5,11.724,19.5,12L19.5,12z"/>
		<path fill="none" stroke="#000000" stroke-linejoin="round" stroke-miterlimit="10" d="M11.5,13c0,0.275-0.224,0.5-0.5,0.5l0,0
			c-0.276,0-0.5-0.225-0.5-0.5l0,0c0-0.275,0.224-0.5,0.5-0.5l0,0C11.276,12.5,11.5,12.725,11.5,13L11.5,13z"/>
		<path fill="none" stroke="#000000" stroke-linejoin="round" stroke-miterlimit="10" d="M11.5,18c0,0.275-0.224,0.5-0.5,0.5l0,0
			c-0.276,0-0.5-0.225-0.5-0.5l0,0c0-0.275,0.224-0.5,0.5-0.5l0,0C11.276,17.5,11.5,17.725,11.5,18L11.5,18z"/>
		<path fill="none" stroke="#000000" stroke-linejoin="round" stroke-miterlimit="10" d="M8,18c0,0.275-0.224,0.5-0.5,0.5l0,0
			C7.224,18.5,7,18.275,7,18l0,0c0-0.275,0.224-0.5,0.5-0.5l0,0C7.776,17.5,8,17.725,8,18L8,18z"/>
		<path fill="none" stroke="#000000" stroke-linejoin="round" stroke-miterlimit="10" d="M8,13c0,0.275-0.224,0.5-0.5,0.5l0,0
			C7.224,13.5,7,13.275,7,13l0,0c0-0.275,0.224-0.5,0.5-0.5l0,0C7.776,12.5,8,12.725,8,13L8,13z"/>
		<path fill="none" stroke="#000000" stroke-linejoin="round" stroke-miterlimit="10" d="M4.5,13c0,0.275-0.224,0.5-0.5,0.5l0,0
			c-0.276,0-0.5-0.225-0.5-0.5l0,0c0-0.275,0.224-0.5,0.5-0.5l0,0C4.276,12.5,4.5,12.725,4.5,13L4.5,13z"/>
		<path fill="none" stroke="#000000" stroke-linejoin="round" stroke-miterlimit="10" d="M4.5,18c0,0.275-0.224,0.5-0.5,0.5l0,0
			c-0.276,0-0.5-0.225-0.5-0.5l0,0c0-0.275,0.224-0.5,0.5-0.5l0,0C4.276,17.5,4.5,17.725,4.5,18L4.5,18z"/>
	</g>
</g>
</svg>
