<?xml version="1.0" encoding="utf-8"?>
<!-- Generator: Adobe Illustrator 19.2.0, SVG Export Plug-In . SVG Version: 6.00 Build 0)  -->
<svg version="1.1" id="Layer_1" xmlns="http://www.w3.org/2000/svg" xmlns:xlink="http://www.w3.org/1999/xlink" x="0px" y="0px"
	 viewBox="0 0 24 24" style="enable-background:new 0 0 24 24;" xml:space="preserve">
<style type="text/css">
	.st0{display:none;}
	.st1{display:inline;}
	.st2{fill:none;stroke:#000000;stroke-linejoin:round;stroke-miterlimit:10;}
</style>
<g id="Filled_Icon" class="st0">
	<g class="st1">
		<path d="M22.8,12L19,3.3C18.9,3.1,18.7,3,18.5,3h-13C5.3,3,5.1,3.1,5,3.3L1.2,12H22.8z"/>
		<path d="M22.1,16H1.9l-0.5,3.1c-0.1,0.7,0.1,1.5,0.6,2C2.4,21.7,3.1,22,3.9,22h16.3c0.7,0,1.4-0.3,1.9-0.9s0.7-1.3,0.6-2L22.1,16z
			 M11,19.5c0,0.3-0.2,0.5-0.5,0.5h-6C4.2,20,4,19.8,4,19.5v-2C4,17.2,4.2,17,4.5,17h6c0.3,0,0.5,0.2,0.5,0.5V19.5z M15.5,19.5
			c-0.6,0-1-0.4-1-1c0-0.6,0.4-1,1-1c0.6,0,1,0.4,1,1C16.5,19.1,16,19.5,15.5,19.5z M18.5,19.5c-0.6,0-1-0.4-1-1c0-0.6,0.4-1,1-1
			c0.6,0,1,0.4,1,1C19.5,19.1,19,19.5,18.5,19.5z"/>
		<path d="M1.1,13l0.4,1.3C1.7,14.6,1.8,14.8,2,15H22c0.2-0.2,0.3-0.4,0.4-0.7l0.4-1.3H1.1z"/>
	</g>
</g>
<g id="Outline_Icons">
	<g>
		<path class="st2" d="M22.1,19.2c0.1,0.6-0.1,1.2-0.4,1.6c-0.4,0.4-0.9,0.7-1.5,0.7H3.9c-0.6,0-1.1-0.3-1.5-0.7
			c-0.4-0.4-0.5-1-0.4-1.6l0.6-3.7h19L22.1,19.2z"/>
		<path class="st2" d="M5.5,3.5h13l4,9L22,14.1c-0.3,0.8-1,1.4-1.9,1.4H3.9c-0.9,0-1.6-0.5-1.9-1.4l-0.5-1.6L5.5,3.5z"/>
		<line class="st2" x1="1.5" y1="12.5" x2="22.5" y2="12.5"/>
		<rect x="4.5" y="17.5" class="st2" width="6" height="2"/>
		<circle class="st2" cx="15.5" cy="18.5" r="0.5"/>
		<circle class="st2" cx="18.5" cy="18.5" r="0.5"/>
	</g>
</g>
</svg>
