<?xml version="1.0" encoding="utf-8"?>
<!-- Generator: Adobe Illustrator 19.2.0, SVG Export Plug-In . SVG Version: 6.00 Build 0)  -->
<svg version="1.1" id="Layer_1" xmlns="http://www.w3.org/2000/svg" xmlns:xlink="http://www.w3.org/1999/xlink" x="0px" y="0px"
	 viewBox="0 0 24 24" enable-background="new 0 0 24 24" xml:space="preserve">
<g id="Filled_Icons" display="none">
	<g display="inline">
		<path d="M20.719,1.506H20.5c-0.275,0-0.5,0.224-0.5,0.5v20.5c0,0.275,0.225,0.5,0.5,0.5c0.275,0,0.5-0.225,0.5-0.5v-6.5h2.5
			c0.275,0,0.5-0.225,0.5-0.5C24,8.549,22.873,1.506,20.719,1.506z"/>
		<path d="M7,7.006v-4c0-0.276-0.224-0.5-0.5-0.5c-0.276,0-0.5,0.223-0.5,0.5v4c0,1.208-0.86,2.217-2,2.449V3.006
			c0-0.276-0.224-0.5-0.5-0.5c-0.276,0-0.5,0.223-0.5,0.5v6.449C1.86,9.223,1,8.214,1,7.006v-4c0-0.276-0.224-0.5-0.5-0.5
			c-0.276,0-0.5,0.223-0.5,0.5v4c0,1.759,1.309,3.205,3,3.449v12.051c0,0.275,0.224,0.5,0.5,0.5c0.276,0,0.5-0.225,0.5-0.5V10.455
			C5.691,10.21,7,8.765,7,7.006z"/>
		<path d="M12,9.006c-3.859,0-7,3.141-7,7c0,3.86,3.141,7,7,7c3.859,0,7-3.14,7-7C19,12.146,15.859,9.006,12,9.006z M12.292,19.897
			C12.205,19.959,12.103,19.99,12,19.99s-0.205-0.031-0.292-0.096c-0.366-0.263-3.578-2.633-3.578-4.629
			c0-1.466,1.103-2.342,2.168-2.342c0.571,0,1.231,0.256,1.702,0.913c0.471-0.657,1.131-0.913,1.702-0.913
			c1.066,0,2.168,0.876,2.168,2.342C15.87,17.262,12.658,19.633,12.292,19.897z"/>
	</g>
</g>
<g id="Outline_Icons">
	<g>
		<path fill="none" stroke="#000000" stroke-linecap="round" stroke-linejoin="round" stroke-miterlimit="10" d="M20.5,15.5h3
			c0-8-1.4-13.5-2.781-13.5H20.5v20.5"/>
		<path fill="none" stroke="#000000" stroke-linecap="round" stroke-linejoin="round" stroke-miterlimit="10" d="M0.5,3v4
			c0,1.657,1.343,3,3,3c1.656,0,3-1.343,3-3V3"/>
		
			<line fill="none" stroke="#000000" stroke-linecap="round" stroke-linejoin="round" stroke-miterlimit="10" x1="3.5" y1="3" x2="3.5" y2="22.5"/>
		<circle fill="none" stroke="#000000" stroke-linejoin="round" stroke-miterlimit="10" cx="12" cy="16" r="6.5"/>
		<path fill="none" stroke="#000000" stroke-linejoin="round" stroke-miterlimit="10" d="M12,19.484c0,0,3.37-2.428,3.37-4.226
			c0-2.073-2.757-2.729-3.37-0.206c-0.613-2.523-3.37-1.867-3.37,0.206C8.63,17.059,12,19.484,12,19.484z"/>
	</g>
</g>
</svg>
