<?xml version="1.0" encoding="utf-8"?>
<!-- Generator: Adobe Illustrator 19.2.0, SVG Export Plug-In . SVG Version: 6.00 Build 0)  -->
<svg version="1.1" id="Layer_1" xmlns="http://www.w3.org/2000/svg" xmlns:xlink="http://www.w3.org/1999/xlink" x="0px" y="0px"
	 viewBox="0 0 24 24" style="enable-background:new 0 0 24 24;" xml:space="preserve">
<style type="text/css">
	.st0{display:none;}
	.st1{display:inline;}
	.st2{fill:none;stroke:#000000;stroke-linecap:round;stroke-linejoin:round;stroke-miterlimit:10;}
	.st3{fill:none;stroke:#000000;stroke-linejoin:round;stroke-miterlimit:10;}
</style>
<g id="Filled_Icons" class="st0">
	<g class="st1">
		<path d="M20.5,0.5C20.2,0.5,20,0.7,20,1v21.5c0,0.3,0.2,0.5,0.5,0.5c0.3,0,0.5-0.2,0.5-0.5V16h2.5c0.3,0,0.5-0.2,0.5-0.5
			C24,12.4,23.6,0.5,20.5,0.5z"/>
		<path d="M7,7V2c0-0.3-0.2-0.5-0.5-0.5C6.2,1.5,6,1.7,6,2v5c0,1.2-0.9,2.2-2,2.4V2c0-0.3-0.2-0.5-0.5-0.5C3.2,1.5,3,1.7,3,2v7.4
			C1.9,9.2,1,8.2,1,7V2c0-0.3-0.2-0.5-0.5-0.5C0.2,1.5,0,1.7,0,2v5c0,1.8,1.3,3.2,3,3.4v12.1C3,22.8,3.2,23,3.5,23
			C3.8,23,4,22.8,4,22.5V10.5C5.7,10.2,7,8.8,7,7z"/>
		<path d="M12,9c-3.9,0-7,3.1-7,7c0,3.9,3.1,7,7,7c3.9,0,7-3.1,7-7C19,12.1,15.9,9,12,9z"/>
	</g>
</g>
<g id="Outline_Icons">
	<g>
		<line class="st2" x1="20.5" y1="1" x2="20.5" y2="22.5"/>
		<path class="st2" d="M20.7,1c1.4,0,2.8,6.5,2.8,14.5h-3"/>
		<path class="st2" d="M0.5,2v5c0,1.7,1.3,3,3,3c1.7,0,3-1.3,3-3V2"/>
		<line class="st2" x1="3.5" y1="2" x2="3.5" y2="22.5"/>
		<circle class="st3" cx="12" cy="16" r="6.5"/>
	</g>
</g>
</svg>
