<?xml version="1.0" encoding="utf-8"?>
<!-- Generator: Adobe Illustrator 19.2.0, SVG Export Plug-In . SVG Version: 6.00 Build 0)  -->
<svg version="1.1" id="Layer_1" xmlns="http://www.w3.org/2000/svg" xmlns:xlink="http://www.w3.org/1999/xlink" x="0px" y="0px"
	 viewBox="0 0 24 24" style="enable-background:new 0 0 24 24;" xml:space="preserve">
<style type="text/css">
	.st0{display:none;}
	.st1{display:inline;}
	.st2{fill:none;stroke:#000000;stroke-linecap:round;stroke-linejoin:round;stroke-miterlimit:10;}
</style>
<g id="Filled_Icons" class="st0">
	<g class="st1">
		<path d="M11.6,10.4c0.1,0.1,0.2,0.1,0.4,0.1c0.1,0,0.3,0,0.4-0.1l2.5-2.5C14.9,7.8,15,7.6,15,7.5v-7C15,0.2,14.8,0,14.5,0h-5
			C9.2,0,9,0.2,9,0.5v7c0,0.1,0.1,0.3,0.1,0.4L11.6,10.4z"/>
		<path d="M23.5,9h-7c-0.1,0-0.3,0.1-0.4,0.1l-2.5,2.5c-0.2,0.2-0.2,0.5,0,0.7l2.5,2.5c0.1,0.1,0.2,0.1,0.4,0.1h7
			c0.3,0,0.5-0.2,0.5-0.5v-5C24,9.2,23.8,9,23.5,9z"/>
		<path d="M12.4,13.6c-0.2-0.2-0.5-0.2-0.7,0l-2.5,2.5C9.1,16.2,9,16.4,9,16.5v7C9,23.8,9.2,24,9.5,24h5c0.3,0,0.5-0.2,0.5-0.5v-7
			c0-0.1-0.1-0.3-0.1-0.4L12.4,13.6z"/>
		<path d="M10.4,11.6L7.9,9.1C7.8,9.1,7.6,9,7.5,9h-7C0.2,9,0,9.2,0,9.5v5C0,14.8,0.2,15,0.5,15h7.6c0.2,0,0.3-0.1,0.4-0.2l1.9-2.5
			C10.5,12.1,10.5,11.8,10.4,11.6z"/>
	</g>
</g>
<g id="Outline_Icons">
	<g>
		<polygon class="st2" points="14.5,0.5 9.5,0.5 9.5,7.5 12,10 14.5,7.5 		"/>
		<polygon class="st2" points="23.5,14.5 23.5,9.5 16.5,9.5 14,12 16.5,14.5 		"/>
		<polygon class="st2" points="9.5,23.5 14.5,23.5 14.5,16.5 12,14 9.5,16.5 		"/>
		<polygon class="st2" points="0.5,9.5 0.5,14.5 8.1,14.5 10,12 7.5,9.5 		"/>
	</g>
</g>
</svg>
