<?xml version="1.0" encoding="utf-8"?>
<!-- Generator: Adobe Illustrator 19.2.0, SVG Export Plug-In . SVG Version: 6.00 Build 0)  -->
<svg version="1.1" id="Layer_1" xmlns="http://www.w3.org/2000/svg" xmlns:xlink="http://www.w3.org/1999/xlink" x="0px" y="0px"
	 viewBox="0 0 24 24" style="enable-background:new 0 0 24 24;" xml:space="preserve">
<style type="text/css">
	.st0{display:none;}
	.st1{display:inline;}
	.st2{fill:none;stroke:#000000;stroke-linecap:round;stroke-linejoin:round;stroke-miterlimit:10;}
</style>
<g id="Filled_Icons" class="st0">
	<path class="st1" d="M20.5,9c0.1,0,0.3-0.1,0.4-0.1l3-3c0.2-0.2,0.2-0.5,0-0.7l-3-3C20.8,2.1,20.6,2,20.5,2H12V0.5
		C12,0.2,11.8,0,11.5,0C11.2,0,11,0.2,11,0.5V2H3.5C3.2,2,3,2.2,3,2.5v6C3,8.8,3.2,9,3.5,9H11v1H3.5c-0.1,0-0.3,0.1-0.4,0.1l-3,3
		c-0.2,0.2-0.2,0.5,0,0.7l3,3C3.2,17,3.4,17,3.5,17H11v6.5c0,0.3,0.2,0.5,0.5,0.5c0.3,0,0.5-0.2,0.5-0.5V17h8.5
		c0.3,0,0.5-0.2,0.5-0.5v-6c0-0.3-0.2-0.5-0.5-0.5H12V9H20.5z"/>
</g>
<g id="Outline_Icons">
	<g>
		<line class="st2" x1="11.5" y1="16.5" x2="11.5" y2="23.5"/>
		<line class="st2" x1="11.5" y1="0.5" x2="11.5" y2="2.5"/>
		<line class="st2" x1="11.5" y1="8.5" x2="11.5" y2="10.5"/>
		<polygon class="st2" points="20.5,8.5 3.5,8.5 3.5,2.5 20.5,2.5 23.5,5.5 		"/>
		<polygon class="st2" points="3.5,16.5 20.5,16.5 20.5,10.5 3.5,10.5 0.5,13.5 		"/>
	</g>
</g>
</svg>
