<?xml version="1.0" encoding="utf-8"?>
<!-- Generator: Adobe Illustrator 19.2.0, SVG Export Plug-In . SVG Version: 6.00 Build 0)  -->
<svg version="1.1" id="Layer_1" xmlns="http://www.w3.org/2000/svg" xmlns:xlink="http://www.w3.org/1999/xlink" x="0px" y="0px"
	 viewBox="0 0 24 24" style="enable-background:new 0 0 24 24;" xml:space="preserve">
<style type="text/css">
	.st0{display:none;}
	.st1{display:inline;}
	.st2{fill:none;stroke:#000000;stroke-linecap:round;stroke-linejoin:round;stroke-miterlimit:10;}
</style>
<g id="Filled_Icons" class="st0">
	<path class="st1" d="M22.5,1h-21C1.2,1,1,1.2,1,1.5v20C1,21.8,1.2,22,1.5,22h21c0.3,0,0.5-0.2,0.5-0.5v-20C23,1.2,22.8,1,22.5,1z
		 M7,14.5c0,0.2-0.1,0.4-0.3,0.5c-0.1,0-0.1,0-0.2,0c-0.1,0-0.3-0.1-0.4-0.1l-3-3c-0.2-0.2-0.2-0.5,0-0.7l3-3C6.3,8,6.5,8,6.7,8.1
		C6.9,8.1,7,8.3,7,8.5V14.5z M15.4,16.9l-3,3C12.3,20,12.1,20,12,20c-0.1,0-0.3,0-0.4-0.1l-3-3c-0.1-0.1-0.2-0.4-0.1-0.5
		C8.6,16.1,8.8,16,9,16h6c0.2,0,0.4,0.1,0.5,0.3C15.5,16.5,15.5,16.7,15.4,16.9z M15.5,6.7C15.4,6.9,15.2,7,15,7H9
		C8.8,7,8.6,6.9,8.5,6.7c-0.1-0.2,0-0.4,0.1-0.5l3-3c0.2-0.2,0.5-0.2,0.7,0l3,3C15.5,6.3,15.5,6.5,15.5,6.7z M20.9,11.9l-3,3
		C17.8,15,17.6,15,17.5,15c-0.1,0-0.1,0-0.2,0c-0.2-0.1-0.3-0.3-0.3-0.5v-6c0-0.2,0.1-0.4,0.3-0.5c0.2-0.1,0.4,0,0.5,0.1l3,3
		C21,11.4,21,11.7,20.9,11.9z"/>
</g>
<g id="Outline_Icons">
	<g>
		<rect x="1.5" y="1.5" class="st2" width="21" height="20"/>
		<polygon class="st2" points="17.5,8.5 20.5,11.5 17.5,14.5 		"/>
		<polygon class="st2" points="6.5,8.5 3.5,11.5 6.5,14.5 		"/>
		<polygon class="st2" points="15,16.5 12,19.5 9,16.5 		"/>
		<polygon class="st2" points="15,6.5 12,3.5 9,6.5 		"/>
	</g>
</g>
</svg>
