<?xml version="1.0" encoding="utf-8"?>
<!-- Generator: Adobe Illustrator 19.2.0, SVG Export Plug-In . SVG Version: 6.00 Build 0)  -->
<svg version="1.1" id="Layer_1" xmlns="http://www.w3.org/2000/svg" xmlns:xlink="http://www.w3.org/1999/xlink" x="0px" y="0px"
	 viewBox="0 0 24 24" style="enable-background:new 0 0 24 24;" xml:space="preserve">
<style type="text/css">
	.st0{display:none;}
	.st1{display:inline;}
	.st2{fill:none;stroke:#000000;stroke-linecap:round;stroke-linejoin:round;stroke-miterlimit:10;}
</style>
<g id="Filled_Icons" class="st0">
	<path class="st1" d="M21.5,7h-3C17.7,7,17,6.3,17,5.5v-3C17,1.1,15.9,0,14.5,0h-5C8.1,0,7,1.1,7,2.5v3C7,6.3,6.3,7,5.5,7h-3
		C1.1,7,0,8.1,0,9.5v5C0,15.9,1.1,17,2.5,17h3C6.3,17,7,17.7,7,18.5v3C7,22.9,8.1,24,9.5,24h5c1.4,0,2.5-1.1,2.5-2.5v-3
		c0-0.8,0.7-1.5,1.5-1.5h3c1.4,0,2.5-1.1,2.5-2.5v-5C24,8.1,22.9,7,21.5,7z M6.3,14.1c0.2,0.2,0.2,0.5,0,0.7C6.2,14.9,6.1,15,6,15
		c-0.1,0-0.3,0-0.4-0.1l-2.5-2.5C3.1,12.3,3,12.1,3,12c0-0.1,0.1-0.3,0.1-0.4l2.5-2.5C5.8,9,6.1,9,6.3,9.2c0.2,0.2,0.2,0.5,0,0.7
		L4.2,12L6.3,14.1z M14.8,18.4l-2.5,2.5C12.3,21,12.1,21,12,21c-0.1,0-0.3,0-0.4-0.1l-2.5-2.5c-0.2-0.2-0.2-0.5,0-0.7
		c0.2-0.2,0.5-0.2,0.7,0l2.1,2.1l2.1-2.1c0.2-0.2,0.5-0.2,0.7,0C15,17.9,15,18.2,14.8,18.4z M14.8,6.3c-0.1,0.1-0.2,0.1-0.4,0.1
		c-0.1,0-0.3,0-0.4-0.1L12,4.2L9.9,6.3c-0.2,0.2-0.5,0.2-0.7,0C9,6.1,9,5.8,9.2,5.6l2.5-2.5c0.2-0.2,0.5-0.2,0.7,0l2.5,2.5
		C15,5.8,15,6.1,14.8,6.3z M20.9,12.4l-2.5,2.5C18.3,14.9,18.2,15,18,15c-0.1,0-0.3,0-0.4-0.1c-0.2-0.2-0.2-0.5,0-0.7l2.1-2.1
		l-2.1-2.1c-0.2-0.2-0.2-0.5,0-0.7c0.2-0.2,0.5-0.2,0.7,0l2.5,2.5c0.1,0.1,0.1,0.2,0.1,0.4C21,12.1,20.9,12.3,20.9,12.4z"/>
</g>
<g id="Outline_Icons">
	<g>
		<path class="st2" d="M23.5,9.5c0-1.1-0.9-2-2-2h-3c-1.1,0-2-0.9-2-2v-3c0-1.1-0.9-2-2-2h-5c-1.1,0-2,0.9-2,2v3c0,1.1-0.9,2-2,2h-3
			c-1.1,0-2,0.9-2,2v5c0,1.1,0.9,2,2,2h3c1.1,0,2,0.9,2,2v3c0,1.1,0.9,2,2,2h5c1.1,0,2-0.9,2-2v-3c0-1.1,0.9-2,2-2h3
			c1.1,0,2-0.9,2-2V9.5z"/>
		<polyline class="st2" points="9.5,6 12,3.5 14.5,6 		"/>
		<polyline class="st2" points="18,9.5 20.5,12 18,14.5 		"/>
		<polyline class="st2" points="14.5,18 12,20.5 9.5,18 		"/>
		<polyline class="st2" points="6,14.5 3.5,12 6,9.5 		"/>
	</g>
</g>
</svg>
