<?xml version="1.0" encoding="utf-8"?>
<!-- Generator: Adobe Illustrator 19.2.0, SVG Export Plug-In . SVG Version: 6.00 Build 0)  -->
<svg version="1.1" id="Layer_1" xmlns="http://www.w3.org/2000/svg" xmlns:xlink="http://www.w3.org/1999/xlink" x="0px" y="0px"
	 viewBox="0 0 24 24" style="enable-background:new 0 0 24 24;" xml:space="preserve">
<style type="text/css">
	.st0{display:none;}
	.st1{display:inline;}
	.st2{fill:none;stroke:#000000;stroke-linecap:round;stroke-linejoin:round;stroke-miterlimit:10;}
	.st3{fill:none;stroke:#000000;stroke-linejoin:round;stroke-miterlimit:10;}
</style>
<g id="Filled_Icons" class="st0">
	<path class="st1" d="M22.4,20.2c-0.2-0.5-0.7-0.8-1.3-0.6c-0.4,0.1-0.8,0.2-1.1,0.3c-0.1-0.3-0.2-0.8-0.3-1.1
		c-0.5-2.4-0.9-4.2-2.3-4.2c-0.9,0-5.4,0.9-7.7,1.3l-0.4-3.1l4.9-1.2c0.5-0.1,0.9-0.7,0.7-1.2c-0.1-0.5-0.7-0.9-1.2-0.7l-4.6,1.2
		L8.6,7.2C10,6.6,11,5.3,11,3.7C11,1.7,9.3,0,7.2,0C5.2,0,3.5,1.7,3.5,3.7c0,1.8,1.4,3.4,3.1,3.7l0.5,3.8c-2.6,0.8-4.7,3.5-4.7,6.3
		c0,3.6,2.9,6.5,6.4,6.5c3.6,0,6.6-3,6.6-6.5v-0.7c0.7-0.1,1.3-0.2,1.7-0.3c0.3,0.6,0.5,1.9,0.7,2.6c0.4,1.9,0.6,2.8,1.6,2.8
		c0.6,0,1.8-0.4,2.3-0.6C22.3,21.3,22.6,20.7,22.4,20.2z M5.5,3.7c0-1,0.8-1.7,1.7-1.7C8.2,2,9,2.8,9,3.7c0,1-0.8,1.7-1.7,1.7
		C6.3,5.5,5.5,4.7,5.5,3.7z M13.5,17.5c0,2.4-2.1,4.5-4.6,4.5c-2.4,0-4.4-2.1-4.4-4.5c0-2,1.4-3.7,2.9-4.3l0.6,4
		c0,0.3,0.2,0.5,0.4,0.7C8.6,18,8.9,18,9.2,18c1.4-0.3,3-0.6,4.3-0.8L13.5,17.5L13.5,17.5z"/>
</g>
<g id="Outline_Icons">
	<g>
		<path class="st2" d="M7.5,6L9,17.5c0,0,7.5-1.5,8.5-1.5s1.5,5.5,2,5.5s2-0.5,2-0.5"/>
		<path class="st3" d="M8.4,12.4c-0.2,0-0.3,0.1-0.5,0.1c-2.3,0.4-4.4,2.7-4.4,5.4c0,3,2.4,5.5,5.4,5.5c3,0,5.6-2.5,5.6-5.5v-1.5"/>
		<circle class="st2" cx="7.2" cy="3.2" r="2.7"/>
		<line class="st2" x1="8" y1="12.5" x2="14" y2="11"/>
	</g>
</g>
</svg>
