<?xml version="1.0" encoding="utf-8"?>
<!-- Generator: Adobe Illustrator 19.2.0, SVG Export Plug-In . SVG Version: 6.00 Build 0)  -->
<svg version="1.1" id="Layer_1" xmlns="http://www.w3.org/2000/svg" xmlns:xlink="http://www.w3.org/1999/xlink" x="0px" y="0px"
	 viewBox="0 0 24 24" enable-background="new 0 0 24 24" xml:space="preserve">
<g id="Filled_Icons" display="none">
	<g display="inline">
		<g>
			<rect x="11" y="0.006" width="1" height="3.518"/>
		</g>
		<g>
			<path d="M16.568,5.11c-0.1,0-0.197-0.028-0.284-0.088C16.057,4.865,16,4.554,16.157,4.326l1.137-1.646
				c0.157-0.228,0.47-0.283,0.694-0.127c0.229,0.157,0.285,0.468,0.128,0.695l-1.138,1.646C16.883,5.035,16.727,5.11,16.568,5.11z"
				/>
		</g>
		<g>
			<path d="M20.371,11.641c-0.254,0-0.473-0.194-0.497-0.452c-0.026-0.275,0.175-0.52,0.45-0.546l1.99-0.193
				c0.26-0.024,0.521,0.174,0.547,0.449c0.025,0.275-0.176,0.52-0.45,0.546l-1.991,0.193C20.404,11.639,20.389,11.641,20.371,11.641
				z"/>
		</g>
		<g>
			<path d="M18.609,21.777c-0.139,0-0.277-0.057-0.377-0.17l-1.312-1.512c-0.182-0.207-0.158-0.523,0.051-0.705
				c0.209-0.181,0.522-0.16,0.705,0.051l1.312,1.509c0.181,0.209,0.158,0.524-0.051,0.706
				C18.844,21.738,18.727,21.777,18.609,21.777z"/>
		</g>
		<g>
			<path d="M4.235,21.745c-0.116,0-0.232-0.04-0.327-0.122c-0.209-0.182-0.231-0.496-0.051-0.705l1.31-1.512
				c0.181-0.209,0.497-0.231,0.705-0.051c0.209,0.181,0.231,0.496,0.051,0.705l-1.31,1.512C4.515,21.688,4.375,21.745,4.235,21.745z
				"/>
		</g>
		<g>
			<path d="M2.52,11.585c-0.017,0-0.032,0-0.049-0.002L0.48,11.392c-0.274-0.026-0.477-0.271-0.45-0.546
				c0.027-0.275,0.275-0.478,0.546-0.449l1.991,0.191c0.274,0.026,0.477,0.271,0.45,0.545C2.991,11.392,2.773,11.585,2.52,11.585z"
				/>
		</g>
		<g>
			<path d="M6.611,4.925c-0.164,0-0.325-0.081-0.42-0.229L5.108,3.014c-0.15-0.231-0.083-0.541,0.149-0.691
				c0.231-0.149,0.541-0.082,0.69,0.149L7.03,4.155c0.15,0.232,0.083,0.541-0.149,0.691C6.798,4.899,6.704,4.925,6.611,4.925z"/>
		</g>
		<g>
			<g>
				<path d="M7.459,15.147c-0.13-0.683-0.208-1.399-0.235-2.139H4.358C5.136,13.93,5.784,14.557,7.459,15.147z"/>
			</g>
			<g>
				<path d="M10.999,8.234V5.26L10.61,5.583C9.857,6.211,9.245,7.234,8.824,8.479C9.518,8.344,10.246,8.263,10.999,8.234z"/>
			</g>
			<g>
				<path d="M10.999,13.008H8.224c0.034,0.855,0.143,1.684,0.324,2.45c0.768,0.183,1.595,0.29,2.451,0.325V13.008z"/>
			</g>
			<g>
				<path d="M4.358,12.008h2.86c0.022-0.734,0.092-1.447,0.215-2.125C5.755,10.479,5.127,11.099,4.358,12.008z"/>
			</g>
			<g>
				<path d="M15.551,9.842c0.129,0.691,0.203,1.417,0.227,2.166h2.967C17.971,11.082,17.305,10.438,15.551,9.842z"/>
			</g>
			<g>
				<path d="M11.999,5.263V8.23c0.748,0.022,1.474,0.098,2.165,0.226c-0.41-1.203-1.001-2.197-1.723-2.823L11.999,5.263z"/>
			</g>
			<g>
				<path d="M11.999,12.008h2.776c-0.027-0.86-0.133-1.692-0.311-2.467c-0.775-0.179-1.607-0.283-2.467-0.312L11.999,12.008
					L11.999,12.008z"/>
			</g>
			<g>
				<path d="M10.999,12.008V9.233c-0.864,0.036-1.7,0.145-2.475,0.33c-0.175,0.769-0.277,1.591-0.306,2.444h2.781V12.008z"/>
			</g>
			<g>
				<path d="M7.73,16.275c-2.368-0.69-3.294-1.625-4.138-2.627c0.507,3.488,3.265,6.248,6.752,6.756
					C9.345,19.561,8.415,18.631,7.73,16.275z"/>
			</g>
			<g>
				<path d="M13.089,4.87c0.983,0.854,1.737,2.218,2.199,3.848c2.125,0.601,3.229,1.458,4.101,2.501
					c-0.549-3.388-3.225-6.063-6.611-6.61L13.089,4.87z"/>
			</g>
			<g>
				<path d="M7.693,8.754c0.47-1.687,1.254-3.086,2.277-3.939l0.246-0.204C6.781,5.168,4.08,7.914,3.588,11.369
					C4.435,10.368,5.349,9.443,7.693,8.754z"/>
			</g>
			<g>
				<path d="M10.999,19.647v-2.865c-0.74-0.025-1.457-0.104-2.139-0.234C9.456,18.236,10.08,18.873,10.999,19.647z"/>
			</g>
			<g>
				<path d="M15.252,16.313c-0.686,2.324-1.6,3.246-2.6,4.092c3.437-0.498,6.166-3.186,6.731-6.6
					C18.287,15.12,16.978,15.832,15.252,16.313z"/>
			</g>
			<g>
				<path d="M18.746,13.008h-2.975c-0.027,0.754-0.109,1.48-0.244,2.174C17.279,14.589,17.967,13.943,18.746,13.008z"/>
			</g>
			<g>
				<path d="M11.999,16.787v2.859c0.911-0.772,1.528-1.401,2.124-3.074C13.443,16.695,12.732,16.766,11.999,16.787z"/>
			</g>
			<g>
				<path d="M11.999,13.008v2.779c0.853-0.027,1.675-0.131,2.442-0.305c0.187-0.774,0.295-1.61,0.33-2.476h-2.772V13.008z"/>
			</g>
		</g>
	</g>
</g>
<g id="Outline_Icons">
	<g>
		<circle fill="none" stroke="#000000" stroke-linejoin="round" stroke-miterlimit="10" cx="11.5" cy="12.491" r="7.5"/>
		<path fill="none" stroke="#000000" stroke-linecap="round" stroke-linejoin="round" stroke-miterlimit="10" d="M18.759,13.702
			c-1.271,1.532-4.044,2.596-7.259,2.596c-3.21,0-5.979-1.062-7.253-2.59"/>
		<path fill="none" stroke="#000000" stroke-linecap="round" stroke-linejoin="round" stroke-miterlimit="10" d="M4.171,11.341
			C5.408,9.762,8.224,8.657,11.5,8.657c3.209,0,5.978,1.062,7.252,2.59"/>
		<path fill="none" stroke="#000000" stroke-linecap="round" stroke-linejoin="round" stroke-miterlimit="10" d="M10.298,19.704
			c-1.533-1.271-2.597-4.043-2.597-7.258c0-3.211,1.061-5.979,2.59-7.254"/>
		<path fill="none" stroke="#000000" stroke-linecap="round" stroke-linejoin="round" stroke-miterlimit="10" d="M12.769,5.248
			c1.494,1.297,2.524,4.032,2.524,7.198c0,3.208-1.059,5.977-2.588,7.252"/>
		<line fill="none" stroke="#000000" stroke-linejoin="round" stroke-miterlimit="10" x1="11.5" y1="5" x2="11.5" y2="0"/>
		
			<line fill="none" stroke="#000000" stroke-linecap="round" stroke-linejoin="round" stroke-miterlimit="10" x1="11.5" y1="1" x2="11.5" y2="3"/>
		
			<line fill="none" stroke="#000000" stroke-linecap="round" stroke-linejoin="round" stroke-miterlimit="10" x1="17.705" y1="2.958" x2="16.568" y2="4.604"/>
		
			<line fill="none" stroke="#000000" stroke-linecap="round" stroke-linejoin="round" stroke-miterlimit="10" x1="22.363" y1="10.94" x2="20.372" y2="11.134"/>
		
			<line fill="none" stroke="#000000" stroke-linecap="round" stroke-linejoin="round" stroke-miterlimit="10" x1="18.609" y1="21.272" x2="17.299" y2="19.764"/>
		
			<line fill="none" stroke="#000000" stroke-linecap="round" stroke-linejoin="round" stroke-miterlimit="10" x1="4.235" y1="21.238" x2="5.545" y2="19.729"/>
		
			<line fill="none" stroke="#000000" stroke-linecap="round" stroke-linejoin="round" stroke-miterlimit="10" x1="0.527" y1="10.888" x2="2.519" y2="11.079"/>
		
			<line fill="none" stroke="#000000" stroke-linecap="round" stroke-linejoin="round" stroke-miterlimit="10" x1="5.528" y1="2.737" x2="6.611" y2="4.419"/>
		<line fill="none" stroke="#000000" stroke-linejoin="round" stroke-miterlimit="10" x1="11.5" y1="20" x2="11.5" y2="5"/>
		<line fill="none" stroke="#000000" stroke-linejoin="round" stroke-miterlimit="10" x1="4" y1="12.5" x2="19" y2="12.5"/>
	</g>
</g>
</svg>
