<?xml version="1.0" encoding="utf-8"?>
<!-- Generator: Adobe Illustrator 19.2.0, SVG Export Plug-In . SVG Version: 6.00 Build 0)  -->
<svg version="1.1" id="Layer_1" xmlns="http://www.w3.org/2000/svg" xmlns:xlink="http://www.w3.org/1999/xlink" x="0px" y="0px"
	 viewBox="0 0 24 24" style="enable-background:new 0 0 24 24;" xml:space="preserve">
<style type="text/css">
	.st0{display:none;}
	.st1{display:inline;}
	.st2{fill:none;stroke:#000000;stroke-linecap:round;stroke-linejoin:round;stroke-miterlimit:10;}
</style>
<g id="Filled_Icon" class="st0">
	<g class="st1">
		<rect x="4" y="19" width="10" height="1"/>
		<path d="M21.5,15h-19C1.1,15,0,16.1,0,17.5v3C0,21.9,1.1,23,2.5,23H3v0.5C3,23.8,3.2,24,3.5,24C3.8,24,4,23.8,4,23.5V23h16v0.5
			c0,0.3,0.2,0.5,0.5,0.5c0.3,0,0.5-0.2,0.5-0.5V23h0.5c1.4,0,2.5-1.1,2.5-2.5v-3C24,16.1,22.9,15,21.5,15z M15,20.5
			c0,0.3-0.2,0.5-0.5,0.5h-11C3.2,21,3,20.8,3,20.5v-2C3,18.2,3.2,18,3.5,18h11c0.3,0,0.5,0.2,0.5,0.5V20.5z M17.5,19.5
			c-0.6,0-1-0.4-1-1c0-0.6,0.4-1,1-1c0.6,0,1,0.4,1,1C18.5,19.1,18.1,19.5,17.5,19.5z M20.5,19.5c-0.6,0-1-0.4-1-1c0-0.6,0.4-1,1-1
			c0.6,0,1,0.4,1,1C21.5,19.1,21.1,19.5,20.5,19.5z"/>
		<path d="M12,11.5c1.4,0,2.5-1.1,2.5-2.5c0-1.4-1.1-2.5-2.5-2.5c-1.4,0-2.5,1.1-2.5,2.5C9.5,10.4,10.6,11.5,12,11.5z M12,7.5
			c0.8,0,1.5,0.7,1.5,1.5c0,0.8-0.7,1.5-1.5,1.5c-0.8,0-1.5-0.7-1.5-1.5C10.5,8.2,11.2,7.5,12,7.5z"/>
		<circle cx="12" cy="9" r="0.5"/>
		<path d="M3.9,14h16.1c0.2,0,0.4-0.1,0.4-0.3c0.7-1.3,1-2.7,1-4.2C21.5,4.3,17.2,0,12,0C6.8,0,2.5,4.3,2.5,9.5c0,1.5,0.3,2.9,1,4.2
			C3.6,13.9,3.8,14,3.9,14z M12,2.5c3.6,0,6.5,2.9,6.5,6.5c0,0.3-0.2,0.5-0.5,0.5c-0.3,0-0.5-0.2-0.5-0.5c0-3-2.5-5.5-5.5-5.5
			c-0.3,0-0.5-0.2-0.5-0.5C11.5,2.7,11.7,2.5,12,2.5z M12,5.5c1.9,0,3.5,1.6,3.5,3.5c0,1.9-1.6,3.5-3.5,3.5c-1.9,0-3.5-1.6-3.5-3.5
			C8.5,7.1,10.1,5.5,12,5.5z"/>
	</g>
</g>
<g id="Outline_Icons">
	<g>
		<line class="st2" x1="20.5" y1="22.5" x2="20.5" y2="23.5"/>
		<line class="st2" x1="3.5" y1="22.5" x2="3.5" y2="23.5"/>
		<rect x="3.5" y="18.5" class="st2" width="11" height="2"/>
		<circle class="st2" cx="17.5" cy="18.5" r="0.5"/>
		<circle class="st2" cx="20.5" cy="18.5" r="0.5"/>
		<circle class="st2" cx="12" cy="9.5" r="1"/>
		<path class="st2" d="M23.5,17.5c0-1.1-0.9-2-2-2h-19c-1.1,0-2,0.9-2,2v3c0,1.1,0.9,2,2,2h19c1.1,0,2-0.9,2-2V17.5z"/>
		<circle class="st2" cx="12" cy="9.5" r="3"/>
		<path class="st2" d="M12,3.5c3.3,0,6,2.7,6,6"/>
		<path class="st2" d="M20.1,13.5c0.6-1.2,0.9-2.6,0.9-4c0-5-4-9-9-9c-5,0-9,4-9,9c0,1.4,0.3,2.8,0.9,4"/>
	</g>
</g>
</svg>
