<?xml version="1.0" encoding="utf-8"?>
<!-- Generator: Adobe Illustrator 19.2.0, SVG Export Plug-In . SVG Version: 6.00 Build 0)  -->
<svg version="1.1" id="Layer_1" xmlns="http://www.w3.org/2000/svg" xmlns:xlink="http://www.w3.org/1999/xlink" x="0px" y="0px"
	 viewBox="0 0 24 24" style="enable-background:new 0 0 24 24;" xml:space="preserve">
<style type="text/css">
	.st0{display:none;}
	.st1{display:inline;}
	.st2{fill:none;stroke:#000000;stroke-linecap:round;stroke-linejoin:round;stroke-miterlimit:10;}
</style>
<g id="Filled_Icons" class="st0">
	<g class="st1">
		<path d="M9,9.4L3.6,3.4C1.4,5.6,0,8.6,0,12l8-0.3C8.1,10.8,8.4,10,9,9.4z"/>
		<path d="M14.4,0.2l-1.3,7.9c1.7,0.5,2.9,2,2.9,3.9c0,0.9-0.3,1.8-0.8,2.4l5.7,5.7c2-2.1,3.2-5,3.2-8.1C24,6.2,19.9,1.3,14.4,0.2z"
			/>
		<path d="M12,16c-2,0-3.6-1.4-3.9-3.3L0,13c0.5,6.2,5.7,11,12,11c3.1,0,6-1.2,8.1-3.2l-5.7-5.7C13.8,15.7,12.9,16,12,16z"/>
		<path d="M12,8C12,8,12.1,8,12,8l1.4-7.9C12.9,0,12.5,0,12,0C9.1,0,6.4,1,4.3,2.8l5.4,5.9C10.4,8.3,11.2,8,12,8z"/>
	</g>
</g>
<g id="Outline_Icons">
	<g>
		<circle class="st2" cx="12" cy="12" r="11.5"/>
		<circle class="st2" cx="12" cy="12" r="3.5"/>
		<line class="st2" x1="12.5" y1="8.5" x2="13.6" y2="0.6"/>
		<line class="st2" x1="14.5" y1="14.5" x2="20.1" y2="20.1"/>
		<line class="st2" x1="9.7" y1="9.4" x2="4.3" y2="3.4"/>
		<line class="st2" x1="8.5" y1="12.2" x2="0.5" y2="12.5"/>
	</g>
</g>
</svg>
