<?xml version="1.0" encoding="utf-8"?>
<!-- Generator: Adobe Illustrator 19.2.0, SVG Export Plug-In . SVG Version: 6.00 Build 0)  -->
<svg version="1.1" id="Layer_1" xmlns="http://www.w3.org/2000/svg" xmlns:xlink="http://www.w3.org/1999/xlink" x="0px" y="0px"
	 viewBox="0 0 24 24" style="enable-background:new 0 0 24 24;" xml:space="preserve">
<style type="text/css">
	.st0{display:none;}
	.st1{display:inline;}
	.st2{fill:none;stroke:#000000;stroke-linecap:round;stroke-linejoin:round;stroke-miterlimit:10;}
	.st3{fill:none;stroke:#000000;stroke-linejoin:round;stroke-miterlimit:10;}
</style>
<g id="Filled_Icons" class="st0">
	<g class="st1">
		<path d="M23.5,0h-23C0.2,0,0,0.2,0,0.5v23C0,23.8,0.2,24,0.5,24h23c0.3,0,0.5-0.2,0.5-0.5v-23C24,0.2,23.8,0,23.5,0z M12,21
			c-5,0-9-4-9-9c0-5,4-9,9-9c5,0,9,4,9,9C21,17,17,21,12,21z"/>
		<path d="M12,9c-1.7,0-3,1.3-3,3c0,1.7,1.3,3,3,3c1.7,0,3-1.3,3-3C15,10.3,13.7,9,12,9z M12,14c-1.1,0-2-0.9-2-2c0-1.1,0.9-2,2-2
			c1.1,0,2,0.9,2,2C14,13.1,13.1,14,12,14z"/>
		<circle cx="12" cy="12" r="1"/>
		<path d="M12,6c-0.3,0-0.5,0.2-0.5,0.5C11.5,6.8,11.7,7,12,7c2.8,0,5,2.2,5,5c0,0.3,0.2,0.5,0.5,0.5c0.3,0,0.5-0.2,0.5-0.5
			C18,8.7,15.3,6,12,6z"/>
		<path d="M12,17c-2.8,0-5-2.2-5-5c0-0.3-0.2-0.5-0.5-0.5C6.2,11.5,6,11.7,6,12c0,3.3,2.7,6,6,6c0.3,0,0.5-0.2,0.5-0.5
			C12.5,17.2,12.3,17,12,17z"/>
		<path d="M12,4c-0.3,0-0.5,0.2-0.5,0.5C11.5,4.8,11.7,5,12,5c3.9,0,7,3.1,7,7c0,0.3,0.2,0.5,0.5,0.5c0.3,0,0.5-0.2,0.5-0.5
			C20,7.6,16.4,4,12,4z"/>
		<path d="M12,19c-3.9,0-7-3.1-7-7c0-0.3-0.2-0.5-0.5-0.5C4.2,11.5,4,11.7,4,12c0,4.4,3.6,8,8,8c0.3,0,0.5-0.2,0.5-0.5
			C12.5,19.2,12.3,19,12,19z"/>
	</g>
</g>
<g id="Outline_Icons">
	<g>
		<rect x="0.5" y="0.5" class="st2" width="23" height="23"/>
		<circle class="st2" cx="12" cy="12" r="9.5"/>
		<circle class="st2" cx="12" cy="12" r="2.5"/>
		<g>
			<path class="st3" d="M12.5,12c0,0.3-0.2,0.5-0.5,0.5l0,0c-0.3,0-0.5-0.2-0.5-0.5l0,0c0-0.3,0.2-0.5,0.5-0.5l0,0
				C12.3,11.5,12.5,11.7,12.5,12L12.5,12z"/>
		</g>
		<path class="st2" d="M12,6.5c3,0,5.5,2.5,5.5,5.5"/>
		<path class="st2" d="M12.4,16.5c-3,0-5.5-2.5-5.5-5.5"/>
		<path class="st2" d="M12,4.5c4.1,0,7.5,3.4,7.5,7.5"/>
		<path class="st2" d="M12.4,18.5c-4.1,0-7.5-3.4-7.5-7.5"/>
	</g>
</g>
</svg>
