<?xml version="1.0" encoding="utf-8"?>
<!-- Generator: Adobe Illustrator 19.2.0, SVG Export Plug-In . SVG Version: 6.00 Build 0)  -->
<svg version="1.1" id="Layer_1" xmlns="http://www.w3.org/2000/svg" xmlns:xlink="http://www.w3.org/1999/xlink" x="0px" y="0px"
	 viewBox="0 0 24 24" style="enable-background:new 0 0 24 24;" xml:space="preserve">
<style type="text/css">
	.st0{display:none;}
	.st1{display:inline;}
	.st2{fill:none;stroke:#000000;stroke-linecap:round;stroke-linejoin:round;stroke-miterlimit:10;}
	.st3{fill:none;stroke:#000000;stroke-linejoin:round;stroke-miterlimit:10;}
</style>
<g id="Filled_Icons" class="st0">
	<g class="st1">
		<circle cx="11.7" cy="16" r="1"/>
		<path d="M19.2,4.7c-0.1-0.1-0.2-0.2-0.4-0.2c-0.2,0-0.3,0-0.4,0.1c-0.7,0.7-1.6,1.4-2.2,1.7c-0.1-1.6-0.8-2.2-1.4-2.7
			c-0.6-0.5-1.1-0.9-0.6-3c0-0.2,0-0.3-0.1-0.5C14,0.1,13.8,0,13.7,0c-2.5,0.4-4.1,1.2-5,2.5C8,3.6,7.8,4.9,8.1,6.4
			c-1.5-0.4-3-1.8-3-1.8C5,4.5,4.8,4.5,4.7,4.5c-0.1,0-0.3,0.1-0.4,0.2c0,0-3.1,4.2,0.2,7.8C4,13.6,3.7,14.7,3.7,16c0,4.4,3.6,8,8,8
			c4.4,0,8-3.6,8-8c0-1.2-0.3-2.3-0.7-3.4C21.5,10.4,20.2,6.5,19.2,4.7z M11.7,20.8c-2.7,0-4.8-2.2-4.8-4.8c0-0.3,0.2-0.5,0.5-0.5
			c0.3,0,0.5,0.2,0.5,0.5c0,2.1,1.7,3.8,3.8,3.8c0.3,0,0.5,0.2,0.5,0.5C12.2,20.6,12,20.8,11.7,20.8z M11.7,18.5
			c-1.4,0-2.5-1.1-2.5-2.5c0-1.4,1.1-2.5,2.5-2.5c1.4,0,2.5,1.1,2.5,2.5C14.2,17.4,13.1,18.5,11.7,18.5z M16.1,16.5
			c-0.3,0-0.5-0.2-0.5-0.5c0-2.1-1.7-3.8-3.8-3.8c-0.3,0-0.5-0.2-0.5-0.5c0-0.3,0.2-0.5,0.5-0.5c2.7,0,4.8,2.2,4.8,4.8
			C16.6,16.3,16.4,16.5,16.1,16.5z M11.7,8C9,8,6.5,9.4,5.1,11.6C3.2,9.3,4.3,6.8,4.8,5.8c0.7,0.6,2.3,1.7,3.9,1.7c0,0,0,0,0,0
			c0.2,0,0.3-0.1,0.4-0.2C9.2,7.2,9.3,7,9.2,6.9C8.8,5.3,8.9,4,9.5,3.1c0.6-0.9,1.8-1.6,3.6-2c-0.3,1.9,0.3,2.6,1.1,3.3
			c0.5,0.5,1.1,0.9,1.1,2.6c0,0.1,0.1,0.3,0.1,0.4c0.1,0.1,0.2,0.1,0.4,0.1c0.9,0,2.2-1,2.9-1.7c0.6,1.2,1.7,4.1-0.1,5.9
			C17.1,9.5,14.6,8,11.7,8z"/>
	</g>
</g>
<g id="Outline_Icons">
	<g>
		<circle class="st2" cx="11.7" cy="16" r="7.5"/>
		<circle class="st2" cx="11.7" cy="16" r="2"/>
		<g>
			<path class="st3" d="M11.7,15.5c-0.3,0-0.5,0.2-0.5,0.5c0,0.3,0.2,0.5,0.5,0.5c0.3,0,0.5-0.2,0.5-0.5
				C12.2,15.7,12,15.5,11.7,15.5L11.7,15.5z"/>
		</g>
		<path class="st2" d="M11.7,11.7c2.4,0,4.3,1.9,4.3,4.3"/>
		<path class="st2" d="M11.7,20.3c-2.4,0-4.3-1.9-4.3-4.3"/>
		<path class="st2" d="M18.4,12.5C21.7,10,18.7,5,18.7,5s-2,2-3,2c0-4-3-2-2-6.5c-4.2,0.7-6,2.6-5,6.5c-2,0-4-2-4-2s-3,4,0.3,7.4"/>
	</g>
</g>
</svg>
