<?xml version="1.0" encoding="utf-8"?>
<!-- Generator: Adobe Illustrator 19.2.0, SVG Export Plug-In . SVG Version: 6.00 Build 0)  -->
<svg version="1.1" id="Layer_1" xmlns="http://www.w3.org/2000/svg" xmlns:xlink="http://www.w3.org/1999/xlink" x="0px" y="0px"
	 viewBox="0 0 24 24" style="enable-background:new 0 0 24 24;" xml:space="preserve">
<style type="text/css">
	.st0{display:none;}
	.st1{display:inline;}
	.st2{fill:none;stroke:#000000;stroke-linecap:round;stroke-linejoin:round;stroke-miterlimit:10;}
</style>
<g id="Filled_Icons" class="st0">
	<g class="st1">
		<path d="M15.2,0.4L12.3,5h2.8c0.2,0,0.4,0.1,0.5,0.3c0.1,0.2,0,0.4-0.1,0.5l-7.8,8.7c-0.2,0.2-0.4,0.2-0.6,0.1
			c-0.2-0.1-0.3-0.4-0.2-0.6l2.8-6H6.7C6.5,8,6.4,7.9,6.3,7.7c-0.1-0.2-0.1-0.4,0-0.5l4.4-7.1C4.6,0.8,0,5.8,0,12
			c0,6.6,5.4,12,12,12c6.6,0,12-5.4,12-12C24,6.6,20.3,1.8,15.2,0.4z M12,16c-1.1,0-2-0.4-2.8-1.1c-0.2-0.2-0.2-0.5,0-0.7
			c0.2-0.2,0.5-0.2,0.7,0c0.6,0.6,1.3,0.9,2.1,0.9c1.7,0,3-1.3,3-3c0-0.8-0.3-1.6-0.9-2.2c-0.2-0.2-0.2-0.5,0-0.7
			c0.2-0.2,0.5-0.2,0.7,0C15.5,9.8,16,10.9,16,12C16,14.2,14.2,16,12,16z"/>
	</g>
</g>
<g id="Outline_Icons">
	<g>
		<path class="st2" d="M14.4,9.4c0.7,0.6,1.1,1.5,1.1,2.6c0,1.9-1.6,3.5-3.5,3.5c-1,0-1.8-0.4-2.5-1"/>
		<path class="st2" d="M14.4,0.7l-2.9,4.8h3.7l-7.8,8.7l3.1-6.7H6.7L11,0.6C5.1,1.1,0.5,6,0.5,12c0,6.4,5.1,11.5,11.5,11.5
			c6.4,0,11.5-5.1,11.5-11.5C23.5,6.5,19.6,1.8,14.4,0.7z"/>
	</g>
</g>
</svg>
