<?xml version="1.0" encoding="utf-8"?>
<!-- Generator: Adobe Illustrator 19.2.0, SVG Export Plug-In . SVG Version: 6.00 Build 0)  -->
<svg version="1.1" id="Outline_Icons" xmlns="http://www.w3.org/2000/svg" xmlns:xlink="http://www.w3.org/1999/xlink" x="0px"
	 y="0px" viewBox="0 0 24 24" enable-background="new 0 0 24 24" xml:space="preserve">
<g>
	<circle fill="none" stroke="#000000" stroke-linejoin="round" stroke-miterlimit="10" cx="12" cy="7" r="2.5"/>
	<polygon fill="none" stroke="#000000" stroke-linejoin="round" stroke-miterlimit="10" points="2.5,16.5 21.5,16.5 23.5,23.5 
		0.5,23.5 	"/>
	<ellipse fill="none" stroke="#000000" stroke-linejoin="round" stroke-miterlimit="10" cx="7.01" cy="20" rx="2.5" ry="1.5"/>
	<ellipse fill="none" stroke="#000000" stroke-linejoin="round" stroke-miterlimit="10" cx="17" cy="20" rx="2.5" ry="1.5"/>
	<path fill="none" stroke="#000000" stroke-linejoin="round" stroke-miterlimit="10" d="M7.5,4.521c0-2.021,1.738-4,4.5-4
		c2.761,0,4.5,1.98,4.5,4"/>
	<path fill="none" stroke="#000000" stroke-linejoin="round" stroke-miterlimit="10" d="M16.5,4.5h1c1.104,0,2,0.896,2,2
		s-0.896,2-2,2h-1V4.5z"/>
	<path fill="none" stroke="#000000" stroke-linejoin="round" stroke-miterlimit="10" d="M7.5,4.5H6.459C5.377,4.5,4.5,5.396,4.5,6.5
		s0.877,2,1.959,2H7.5V4.5z"/>
	<path fill="none" stroke="#000000" stroke-linejoin="round" stroke-miterlimit="10" d="M7.5,15c0-1.933,1.566-3.5,3.5-3.5h2
		c1.933,0,3.5,1.567,3.5,3.5v1.5h-9V15z"/>
</g>
</svg>
