<?xml version="1.0" encoding="utf-8"?>
<!-- Generator: Adobe Illustrator 19.2.0, SVG Export Plug-In . SVG Version: 6.00 Build 0)  -->
<svg version="1.1" id="Layer_1" xmlns="http://www.w3.org/2000/svg" xmlns:xlink="http://www.w3.org/1999/xlink" x="0px" y="0px"
	 viewBox="0 0 24 24" style="enable-background:new 0 0 24 24;" xml:space="preserve">
<style type="text/css">
	.st0{display:none;}
	.st1{display:inline;}
	.st2{fill:none;stroke:#000000;stroke-linecap:round;stroke-linejoin:round;stroke-miterlimit:10;}
</style>
<g id="Filled_Icons" class="st0">
	<g class="st1">
		<path d="M15.7,15.2c0.9-0.8,1.6-1.9,1.7-3.3c0.7-0.2,1.1-1,1.1-1.9c0-0.3,0-0.5-0.1-0.8L19,5.5c0-0.1,0.2-2-1.2-3.5
			c-1.2-1.3-3.1-2-5.8-2C9.4,0,7.5,0.7,6.3,2C4.8,3.6,5,5.5,5,5.6l0.5,3.6C5.4,9.4,5.4,9.7,5.4,10c0,1,0.5,1.7,1.1,1.9
			c0.1,1.3,0.8,2.4,1.7,3.3C4.4,15.7,0,16,0,20.2V24h11.5l0,0l0-6.7c0-0.3,0.2-0.5,0.5-0.5l0,0c0.3,0,0.5,0.2,0.5,0.5l0,6.7H24v-3.8
			C24,16,19.8,15.8,15.7,15.2z M8,20.5H7v1C7,21.8,6.8,22,6.5,22C6.2,22,6,21.8,6,21.5v-1H5c-0.3,0-0.5-0.2-0.5-0.5
			c0-0.3,0.2-0.5,0.5-0.5h1v-1C6,18.2,6.2,18,6.5,18C6.8,18,7,18.2,7,18.5v1h1c0.3,0,0.5,0.2,0.5,0.5C8.5,20.3,8.3,20.5,8,20.5z
			 M14,22c-0.3,0-0.5-0.2-0.5-0.5c0-0.3,0.2-0.5,0.5-0.5c0.3,0,0.5,0.2,0.5,0.5C14.5,21.8,14.3,22,14,22z M14,20
			c-0.3,0-0.5-0.2-0.5-0.5c0-0.3,0.2-0.5,0.5-0.5c0.3,0,0.5,0.2,0.5,0.5C14.5,19.8,14.3,20,14,20z M12,16c-1.3,0-4.5-1.9-4.5-4.5
			C7.5,11.2,7.3,11,7,11c-0.5,0-0.6-0.7-0.6-1c0-0.3,0.1-1,0.6-1c0.2,0,0.4-0.2,0.5-0.4l0.4-2.1c2.6-0.1,3.6-0.8,4.1-1.6
			c0.5,0.8,1.5,1.5,4.1,1.6l0.4,2.1C16.6,8.8,16.8,9,17,9c0.5,0,0.6,0.7,0.6,1c0,0.3-0.1,1-0.6,1c-0.3,0-0.5,0.2-0.5,0.5
			C16.5,14.1,13.3,16,12,16z"/>
		<path d="M10.1,8.5l-0.1,0l-0.1,0c-0.4,0-0.8,0-1.1,0.3C8.6,9,8.5,9.2,8.5,9.5C8.5,9.8,8.7,10,9,10c0.3,0,0.5-0.2,0.5-0.5
			c0.1,0,0.2,0,0.4,0l0.1,0l0.1,0c0.1,0,0.3,0,0.4,0c0,0.3,0.2,0.5,0.5,0.5c0.3,0,0.5-0.2,0.5-0.5c0-0.3-0.1-0.5-0.3-0.7
			C10.9,8.5,10.5,8.5,10.1,8.5z"/>
		<path d="M14.1,8.5l-0.1,0l-0.1,0c-0.4,0-0.8,0-1.1,0.3c-0.2,0.2-0.3,0.4-0.3,0.7c0,0.3,0.2,0.5,0.5,0.5c0.3,0,0.5-0.2,0.5-0.5
			c0.1,0,0.2,0,0.4,0l0.1,0l0.1,0c0.1,0,0.3,0,0.4,0c0,0.3,0.2,0.5,0.5,0.5c0.3,0,0.5-0.2,0.5-0.5c0-0.3-0.1-0.5-0.3-0.7
			C14.9,8.5,14.5,8.5,14.1,8.5z"/>
	</g>
</g>
<g id="Outline_Icons">
	<g>
		<path class="st2" d="M9,9.5C9,8.9,9.4,9,10,9c0.6,0,1-0.1,1,0.5"/>
		<path class="st2" d="M13,9.5C13,8.9,13.4,9,14,9c0.6,0,1-0.1,1,0.5"/>
		<path class="st2" d="M9.4,15.5c-4.3,0.7-8.9,0.6-8.9,4.7v3.3h23v-3.3c0-4.2-4.5-4-8.9-4.7"/>
		<path class="st2" d="M12,16.5c1.5,0,5-2,5-5c1.5,0,1.5-3,0-3L16.5,6c-4,0-4-1.5-4.5-2c-0.5,0.5-0.5,2-4.5,2L7,8.5
			c-1.5,0-1.5,3,0,3C7,14.5,10.5,16.5,12,16.5z"/>
		<path class="st2" d="M18,9.3l0.5-3.8c0,0,0.5-5-6.5-5s-6.5,5-6.5,5L6,9.3"/>
		<line class="st2" x1="11.5" y1="16.5" x2="11.5" y2="23.5"/>
		<line class="st2" x1="6.5" y1="18" x2="6.5" y2="21"/>
		<line class="st2" x1="5" y1="19.5" x2="8" y2="19.5"/>
		<g>
			<g>
				<g>
					<path d="M14.5,19c-0.3,0-0.5,0.2-0.5,0.5c0,0.3,0.2,0.5,0.5,0.5c0.3,0,0.5-0.2,0.5-0.5C15,19.2,14.8,19,14.5,19L14.5,19z"/>
				</g>
			</g>
		</g>
		<g>
			<g>
				<g>
					<path d="M14.5,21c-0.3,0-0.5,0.2-0.5,0.5c0,0.3,0.2,0.5,0.5,0.5c0.3,0,0.5-0.2,0.5-0.5C15,21.2,14.8,21,14.5,21L14.5,21z"/>
				</g>
			</g>
		</g>
	</g>
</g>
</svg>
