<?xml version="1.0" encoding="utf-8"?>
<!-- Generator: Adobe Illustrator 19.2.0, SVG Export Plug-In . SVG Version: 6.00 Build 0)  -->
<svg version="1.1" id="Layer_1" xmlns="http://www.w3.org/2000/svg" xmlns:xlink="http://www.w3.org/1999/xlink" x="0px" y="0px"
	 viewBox="0 0 24 24" style="enable-background:new 0 0 24 24;" xml:space="preserve">
<style type="text/css">
	.st0{display:none;}
	.st1{display:inline;}
	.st2{fill:none;stroke:#000000;stroke-linecap:round;stroke-linejoin:round;stroke-miterlimit:10;}
	.st3{fill:none;stroke:#000000;stroke-linejoin:round;stroke-miterlimit:10;}
</style>
<g id="Filled_Icon" class="st0">
	<g class="st1">
		<g>
			<path d="M21,10V7.5C21,6.1,19.9,5,18.5,5H17v3h1c0.3,0,0.5,0.2,0.5,0.5C18.5,8.8,18.3,9,18,9h-1.5h-10H5C4.7,9,4.5,8.8,4.5,8.5
				C4.5,8.2,4.7,8,5,8h1V5H4.5C3.1,5,2,6.1,2,7.5V10H21z"/>
			<path d="M16,11v0.5c0,1.9,0,3.7,1.3,4.6c0.2,0.2,0.3,0.5,0.1,0.7C17.3,16.9,17.2,17,17,17c-0.1,0-0.2,0-0.3-0.1
				C15,15.8,15,13.6,15,11.5V11h-1v2c0,3.6,0.8,4.4,0.8,4.4c0.2,0.2,0.3,0.5,0.1,0.7c-0.1,0.1-0.2,0.2-0.4,0.2c-0.1,0-0.2,0-0.3-0.1
				C14,18,13,17,13,13v-2h-1v7c0,0.3-0.2,0.5-0.5,0.5c-0.3,0-0.5-0.2-0.5-0.5v-7h-1v2c0,4-1,5-1.2,5.2c-0.1,0.1-0.2,0.1-0.3,0.1
				c-0.2,0-0.3-0.1-0.4-0.2c-0.2-0.2-0.1-0.5,0.1-0.7c0,0,0.8-0.9,0.8-4.4v-2H8v0.5c0,2.1,0,4.3-1.7,5.4C6.2,17,6.1,17,6,17
				c-0.2,0-0.3-0.1-0.4-0.2c-0.2-0.2-0.1-0.5,0.1-0.7C7,15.2,7,13.4,7,11.5V11H2v11.5C2,22.8,2.2,23,2.5,23H4v0.5
				C4,23.8,4.2,24,4.5,24C4.8,24,5,23.8,5,23.5V23h13v0.5c0,0.3,0.2,0.5,0.5,0.5c0.3,0,0.5-0.2,0.5-0.5V23h1.5
				c0.3,0,0.5-0.2,0.5-0.5V11H16z"/>
		</g>
		<path d="M16,8V0.5C16,0.2,15.8,0,15.5,0h-8C7.2,0,7,0.2,7,0.5V8H16z"/>
	</g>
</g>
<g id="Outline_Icons">
	<g>
		<line class="st2" x1="4.5" y1="23.5" x2="4.5" y2="22.5"/>
		<line class="st2" x1="18.5" y1="23.5" x2="18.5" y2="22.5"/>
		<rect x="2.5" y="10.5" class="st3" width="18" height="12"/>
		<rect x="6.5" y="0.5" class="st3" width="10" height="8"/>
		<path class="st3" d="M16.5,5.5h2c1.1,0,2,0.9,2,2v3h-18v-3c0-1.1,0.9-2,2-2h2"/>
		<path class="st2" d="M8.5,17.8c0,0,1-0.8,1-4.8c0-1.3,0-2.5,0-2.5V11"/>
		<line class="st3" x1="18" y1="8.5" x2="5" y2="8.5"/>
		<path class="st2" d="M6,16.5c1.5-1,1.5-3,1.5-5V11v-0.5"/>
		<path class="st2" d="M17,16.5c-1.5-1-1.5-3-1.5-5V11v-0.5"/>
		<path class="st2" d="M14.5,17.8c0,0-1-0.8-1-4.8c0-1.3,0-2.5,0-2.5V11"/>
		<polyline class="st2" points="11.5,18 11.5,10.5 11.5,11 		"/>
	</g>
</g>
</svg>
