<?xml version="1.0" encoding="utf-8"?>
<!-- Generator: Adobe Illustrator 19.2.0, SVG Export Plug-In . SVG Version: 6.00 Build 0)  -->
<svg version="1.1" id="Layer_1" xmlns="http://www.w3.org/2000/svg" xmlns:xlink="http://www.w3.org/1999/xlink" x="0px" y="0px"
	 viewBox="0 0 24 24" enable-background="new 0 0 24 24" xml:space="preserve">
<g id="Filled_Icons" display="none">
	<g display="inline">
		<path d="M12,8.627l-9,9v6.379h5v-5c0-2.206,1.794-4,4-4c2.206,0,4,1.794,4,4v5h5v-6.379L12,8.627z"/>
		<path d="M23.853,12.652l-11.499-11.5c-0.195-0.195-0.512-0.195-0.707,0l-11.5,11.5C0.053,12.746,0,12.873,0,13.006v5
			c0,0.202,0.122,0.385,0.309,0.463c0.187,0.076,0.401,0.034,0.545-0.109L12,7.213l11.146,11.146
			c0.096,0.096,0.224,0.146,0.354,0.146c0.064,0,0.129-0.013,0.191-0.038C23.878,18.391,24,18.208,24,18.006v-5
			C24,12.873,23.947,12.746,23.853,12.652z"/>
	</g>
</g>
<g id="Outline_Icons">
	<g>
		<path fill="none" stroke="#000000" stroke-linecap="round" stroke-linejoin="round" stroke-miterlimit="10" d="M3.5,14.997V23.5h4
			V19c0-2.484,2.016-4.5,4.5-4.5c2.486,0,4.5,2.016,4.5,4.5v4.5h4V15"/>
		<polygon fill="none" stroke="#000000" stroke-linecap="round" stroke-linejoin="round" stroke-miterlimit="10" points="0.5,18 
			12,6.5 23.5,18 23.5,13 12,1.5 0.5,13 		"/>
	</g>
</g>
</svg>
