<?xml version="1.0" encoding="utf-8"?>
<!-- Generator: Adobe Illustrator 19.2.0, SVG Export Plug-In . SVG Version: 6.00 Build 0)  -->
<svg version="1.1" id="Layer_1" xmlns="http://www.w3.org/2000/svg" xmlns:xlink="http://www.w3.org/1999/xlink" x="0px" y="0px"
	 viewBox="0 0 24 24" style="enable-background:new 0 0 24 24;" xml:space="preserve">
<style type="text/css">
	.st0{display:none;}
	.st1{display:inline;}
	.st2{fill:none;stroke:#000000;stroke-linecap:round;stroke-linejoin:round;stroke-miterlimit:10;}
	.st3{fill:none;stroke:#000000;stroke-linejoin:round;stroke-miterlimit:10;}
</style>
<g id="Filled_Icon" class="st0">
	<g class="st1">
		<path d="M8,16.1c0.7-0.2,1.2-0.9,1.2-1.6c0-0.8-0.5-1.4-1.2-1.6V16.1z"/>
		<path d="M5.8,10c0,0.8,0.5,1.4,1.2,1.6V8.4C6.3,8.6,5.8,9.3,5.8,10z"/>
		<path d="M18.1,2.1c0,0-0.1,0-0.1,0l-2.1,5.4h3.4l-7.2,7.8l2.3-5.8h-2.7l3.5-8.9c0,0,0,0,0,0C14,0.2,12.8,0,11.5,0
			C5.2,0,0,5.2,0,11.5C0,17.8,5.2,23,11.5,23C17.8,23,23,17.8,23,11.5C23,7.8,21.2,4.3,18.1,2.1z M10.2,14.5c0,1.3-1,2.4-2.2,2.7V18
			c0,0.3-0.2,0.5-0.5,0.5C7.2,18.5,7,18.3,7,18v-0.9c-1.3-0.2-2.2-1.3-2.2-2.7C4.8,14.2,5,14,5.3,14c0.3,0,0.5,0.2,0.5,0.5
			c0,0.8,0.5,1.4,1.2,1.6v-3.4c-1.3-0.2-2.2-1.3-2.2-2.7c0-1.3,1-2.4,2.2-2.7V6.5C7,6.2,7.2,6,7.5,6C7.8,6,8,6.2,8,6.5v0.9
			c1.3,0.2,2.2,1.3,2.2,2.7c0,0.3-0.2,0.5-0.5,0.5c-0.3,0-0.5-0.2-0.5-0.5c0-0.8-0.5-1.4-1.2-1.6v3.4C9.3,12,10.2,13.1,10.2,14.5z"
			/>
	</g>
</g>
<g id="Outline_Icons">
	<g>
		<path class="st2" d="M5.3,14.5c0,1.2,1,2.2,2.2,2.2c1.2,0,2.2-1,2.2-2.2c0-1.2-1-2.2-2.2-2.2c-1.2,0-2.2-1-2.2-2.2
			c0-1.2,1-2.2,2.2-2.2c1.2,0,2.2,1,2.2,2.2"/>
		<line class="st2" x1="7.5" y1="6.5" x2="7.5" y2="18"/>
		<path class="st3" d="M17.9,2.5l-1.9,5h3.4l-7.2,7.8l2.3-5.8h-2.7l3.3-8.4c-1.1-0.4-2.3-0.6-3.6-0.6c-6.1,0-11,4.9-11,11
			c0,6.1,4.9,11,11,11c6.1,0,11-4.9,11-11C22.5,7.8,20.7,4.5,17.9,2.5z"/>
	</g>
</g>
</svg>
