<?xml version="1.0" encoding="utf-8"?>
<!-- Generator: Adobe Illustrator 19.2.0, SVG Export Plug-In . SVG Version: 6.00 Build 0)  -->
<svg version="1.1" id="Layer_1" xmlns="http://www.w3.org/2000/svg" xmlns:xlink="http://www.w3.org/1999/xlink" x="0px" y="0px"
	 viewBox="0 0 24 24" style="enable-background:new 0 0 24 24;" xml:space="preserve">
<style type="text/css">
	.st0{display:none;}
	.st1{display:inline;}
	.st2{fill:none;stroke:#000000;stroke-linecap:round;stroke-linejoin:round;stroke-miterlimit:10;}
</style>
<g id="Filled_Icon" class="st0">
	<path class="st1" d="M12.8,11.5V5c1.6,0.2,2.8,1.6,2.8,3.2c0,0.6,0.4,1,1,1c0.6,0,1-0.4,1-1c0-2.7-2.1-5-4.8-5.2V1c0-0.6-0.4-1-1-1
		c-0.6,0-1,0.4-1,1v2.2C8.6,3.9,7,5.9,7,8.2c0,2.4,1.6,4.4,3.8,5v6.4C9.7,19.1,9,18,9,16.8c0-0.6-0.4-1-1-1c-0.6,0-1,0.4-1,1
		c0,2.4,1.6,4.4,3.8,5V23c0,0.6,0.4,1,1,1c0.6,0,1-0.4,1-1v-1c2.7-0.3,4.8-2.5,4.8-5.2C17.5,14,15.4,11.8,12.8,11.5z M10.8,11.1
		C9.7,10.6,9,9.5,9,8.2C9,7,9.7,5.9,10.8,5.4V11.1z M12.8,20v-6.4c1.6,0.2,2.8,1.6,2.8,3.2C15.5,18.4,14.3,19.7,12.8,20z"/>
</g>
<g id="Outline_Icons">
	<g>
		<line class="st2" x1="11.5" y1="0.5" x2="11.5" y2="23.5"/>
		<path class="st2" d="M7.5,16.5c0,2.5,2,4.5,4.5,4.5c2.5,0,4.5-2,4.5-4.5c0-2.5-2-4.5-4.5-4.5c-2.5,0-4.5-2-4.5-4.5
			C7.5,5,9.5,3,12,3c2.5,0,4.5,2,4.5,4.5"/>
	</g>
</g>
</svg>
