<?xml version="1.0" encoding="utf-8"?>
<!-- Generator: Adobe Illustrator 19.2.0, SVG Export Plug-In . SVG Version: 6.00 Build 0)  -->
<svg version="1.1" id="Layer_1" xmlns="http://www.w3.org/2000/svg" xmlns:xlink="http://www.w3.org/1999/xlink" x="0px" y="0px"
	 viewBox="0 0 24 24" style="enable-background:new 0 0 24 24;" xml:space="preserve">
<style type="text/css">
	.st0{display:none;}
	.st1{display:inline;}
	.st2{fill:none;stroke:#000000;stroke-linejoin:round;stroke-miterlimit:10;}
	.st3{fill:none;stroke:#000000;stroke-linecap:round;stroke-linejoin:round;stroke-miterlimit:10;}
</style>
<g id="Filled_Icon" class="st0">
	<g class="st1">
		<path d="M19,11.5V5.3c1.5,0.2,2.6,1.5,2.6,3.1c0,0.3,0.2,0.5,0.5,0.5c0.3,0,0.5-0.2,0.5-0.5c0-2.1-1.6-3.8-3.6-4.1V2.5
			C19,2.3,18.8,2,18.5,2C18.2,2,18,2.3,18,2.5v1.7c-2,0.2-3.6,2-3.6,4.1c0,2.1,1.6,3.8,3.6,4.1v6.3c-1.5-0.2-2.6-1.5-2.6-3.1
			c0-0.3-0.2-0.5-0.5-0.5c-0.3,0-0.5,0.2-0.5,0.5c0,2.1,1.6,3.8,3.6,4.1v1.7c0,0.3,0.2,0.5,0.5,0.5c0.3,0,0.5-0.2,0.5-0.5v-1.7
			c2-0.2,3.6-2,3.6-4.1C22.6,13.5,21,11.8,19,11.5z M15.4,8.3c0-1.6,1.1-2.8,2.6-3.1v6.1C16.5,11.2,15.4,9.9,15.4,8.3z M19,18.7
			v-6.2c1.5,0.2,2.6,1.5,2.6,3.1C21.6,17.1,20.5,18.4,19,18.7z"/>
		<g>
			<path d="M13,18H8.9c0.7,1.7,1.7,3.5,3,5.2l0.6,0.8l0.5,0V18z"/>
			<path d="M8.5,17H13v-5H7.5C7.6,13.6,7.9,15.3,8.5,17z"/>
			<path d="M1,7c-0.5,1.2-0.9,2.6-1,4h6.5c0-1.4,0.2-2.7,0.6-4H1z"/>
			<path d="M6.6,12H0c0,1.8,0.4,3.5,1.2,5h6.3C6.9,15.3,6.6,13.6,6.6,12z"/>
			<path d="M7.5,6c0.8-2.1,2-4,3.6-5.8L11.3,0C7,0.3,3.4,2.6,1.5,6H7.5z"/>
			<path d="M11.1,23.8c-1.4-1.9-2.5-3.8-3.3-5.8H1.7c2,3.4,5.5,5.7,9.5,6L11.1,23.8z"/>
			<path d="M12.7,0l-0.8,0.8C10.4,2.5,9.3,4.2,8.5,6H13V0L12.7,0z"/>
			<path d="M8.2,7c-0.4,1.3-0.6,2.6-0.7,4H13V7H8.2z"/>
		</g>
	</g>
</g>
<g id="Outline_Icons">
	<g>
		<path class="st2" d="M11.5,23.5c-6-8-6-16.5,0-23"/>
		<line class="st2" x1="2" y1="17.5" x2="12.5" y2="17.5"/>
		<line class="st2" x1="1.8" y1="6.5" x2="12.5" y2="6.5"/>
		<line class="st2" x1="0.6" y1="11.5" x2="12.5" y2="11.5"/>
		<path class="st2" d="M12.5,0.5c-0.2,0-0.3,0-0.5,0C5.6,0.5,0.5,5.4,0.5,11.7c0,6.4,5.1,11.8,11.5,11.8c0.2,0,0.4,0,0.5,0V0.5z"/>
		<path class="st3" d="M14.9,15.6c0,2,1.6,3.6,3.6,3.6c2,0,3.6-1.6,3.6-3.6S20.5,12,18.5,12c-2,0-3.6-1.6-3.6-3.6
			c0-2,1.6-3.6,3.6-3.6c2,0,3.6,1.6,3.6,3.6"/>
		<line class="st3" x1="18.5" y1="2.5" x2="18.5" y2="21.4"/>
	</g>
</g>
</svg>
