<?xml version="1.0" encoding="utf-8"?>
<!-- Generator: Adobe Illustrator 19.2.0, SVG Export Plug-In . SVG Version: 6.00 Build 0)  -->
<svg version="1.1" id="Layer_1" xmlns="http://www.w3.org/2000/svg" xmlns:xlink="http://www.w3.org/1999/xlink" x="0px" y="0px"
	 viewBox="0 0 24 24" style="enable-background:new 0 0 24 24;" xml:space="preserve">
<style type="text/css">
	.st0{display:none;}
	.st1{display:inline;}
	.st2{fill:none;stroke:#000000;stroke-linecap:round;stroke-linejoin:round;stroke-miterlimit:10;}
	.st3{fill:none;stroke:#000000;stroke-linejoin:round;stroke-miterlimit:10;}
</style>
<g id="Filled_Icon" class="st0">
	<path class="st1" d="M21,7.4V5.5C21,5.2,20.8,5,20.5,5h-17C3.2,5,3,5.2,3,5.5v1.9C1.2,8.2,0,10,0,12c0,2,1.2,3.8,3,4.6v1.9
		C3,18.8,3.2,19,3.5,19h17c0.3,0,0.5-0.2,0.5-0.5v-1.9c1.8-0.8,3-2.6,3-4.6C24,10,22.8,8.2,21,7.4z M12,11.5c1.1,0,2,0.9,2,2
		c0,0.9-0.6,1.7-1.5,1.9V16c0,0.3-0.2,0.5-0.5,0.5c-0.3,0-0.5-0.2-0.5-0.5v-0.6c-0.9-0.2-1.5-1-1.5-1.9c0-0.3,0.2-0.5,0.5-0.5
		c0.3,0,0.5,0.2,0.5,0.5c0,0.6,0.4,1,1,1c0.6,0,1-0.4,1-1c0-0.6-0.4-1-1-1c-1.1,0-2-0.9-2-2c0-0.9,0.6-1.7,1.5-1.9V8
		c0-0.3,0.2-0.5,0.5-0.5c0.3,0,0.5,0.2,0.5,0.5v0.6c0.9,0.2,1.5,1,1.5,1.9c0,0.3-0.2,0.5-0.5,0.5c-0.3,0-0.5-0.2-0.5-0.5
		c0-0.6-0.4-1-1-1c-0.6,0-1,0.4-1,1C11,11.1,11.4,11.5,12,11.5z"/>
</g>
<g id="Outline_Icons">
	<g>
		<g>
			<path class="st2" d="M10,13.5c0,0.8,0.7,1.5,1.5,1.5c0.8,0,1.5-0.7,1.5-1.5c0-0.8-0.7-1.5-1.5-1.5c-0.8,0-1.5-0.7-1.5-1.5
				C10,9.7,10.7,9,11.5,9c0.8,0,1.5,0.7,1.5,1.5"/>
			<line class="st2" x1="11.5" y1="15" x2="11.5" y2="16"/>
			<line class="st2" x1="11.5" y1="8" x2="11.5" y2="9"/>
		</g>
		<path class="st3" d="M23.5,12c0-2-1.3-3.6-3-4.2V5.5h-17v2.3c-1.7,0.6-3,2.3-3,4.2c0,2,1.3,3.6,3,4.2v2.3h17v-2.3
			C22.2,15.6,23.5,14,23.5,12z"/>
	</g>
</g>
</svg>
