<?xml version="1.0" encoding="utf-8"?>
<!-- Generator: Adobe Illustrator 19.2.0, SVG Export Plug-In . SVG Version: 6.00 Build 0)  -->
<svg version="1.1" id="Layer_1" xmlns="http://www.w3.org/2000/svg" xmlns:xlink="http://www.w3.org/1999/xlink" x="0px" y="0px"
	 viewBox="0 0 24 24" enable-background="new 0 0 24 24" xml:space="preserve">
<g id="Filled_Icons" display="none">
	<g display="inline">
		<path d="M6.624,8.337l-5.901,5.901c-0.466,0.465-0.722,1.084-0.722,1.742s0.256,1.277,0.722,1.744l5.561,5.561
			c0.466,0.466,1.085,0.723,1.743,0.723c0.658,0,1.277-0.257,1.743-0.723l5.9-5.901L6.624,8.337z M4.783,16.397
			c-0.391,0.391-1.023,0.391-1.414,0c-0.391-0.392-0.391-1.024,0-1.414c0.391-0.392,1.023-0.392,1.414,0
			C5.174,15.372,5.174,16.005,4.783,16.397z M6.197,13.566c-0.391-0.392-0.391-1.023,0-1.414c0.391-0.391,1.023-0.391,1.414,0
			c0.391,0.39,0.391,1.022,0,1.414C7.221,13.958,6.588,13.958,6.197,13.566z M9.025,20.641c-0.391,0.389-1.023,0.389-1.414,0
			c-0.391-0.393-0.391-1.024,0-1.416c0.391-0.391,1.023-0.391,1.414,0C9.416,19.615,9.416,20.248,9.025,20.641z M10.439,17.811
			c-0.391-0.392-0.391-1.023,0-1.414c0.391-0.392,1.023-0.392,1.414,0c0.391,0.391,0.391,1.022,0,1.414
			C11.462,18.201,10.83,18.2,10.439,17.811z"/>
		<path d="M22.277,7.288l-5.559-5.56c-0.932-0.932-2.555-0.932-3.485,0L7.331,7.63l9.046,9.048l5.9-5.901
			C23.238,9.813,23.238,8.249,22.277,7.288z M12.56,8.617c-0.391,0.392-1.022,0.392-1.413,0c-0.391-0.391-0.391-1.023,0-1.414
			c0.391-0.391,1.023-0.391,1.413,0C12.952,7.594,12.951,8.227,12.56,8.617z M19.633,10.031c-0.391,0.392-1.023,0.392-1.414,0
			c-0.391-0.39-0.391-1.022,0-1.414c0.391-0.391,1.023-0.391,1.414,0C20.023,9.009,20.023,9.642,19.633,10.031z"/>
	</g>
</g>
<g id="Outline_Icons">
	<g>
		<path fill="none" stroke="#000000" stroke-linejoin="round" stroke-miterlimit="10" d="M9.416,22.926
			c-0.768,0.768-2.012,0.768-2.779,0l-5.561-5.561c-0.768-0.767-0.768-2.014,0-2.779l12.51-12.51c0.768-0.768,2.012-0.768,2.779,0
			l5.559,5.559c0.768,0.767,0.768,2.014,0,2.781L9.416,22.926z"/>
		
			<line fill="none" stroke="#000000" stroke-linejoin="round" stroke-miterlimit="10" x1="7.258" y1="8.258" x2="15.744" y2="16.744"/>
		<g>
			<path d="M6.904,11.854c-0.256,0-0.512,0.098-0.707,0.293c-0.391,0.391-0.391,1.023,0,1.414c0.195,0.195,0.451,0.293,0.707,0.293
				c0.256,0,0.512-0.098,0.707-0.293c0.391-0.391,0.391-1.022,0-1.414C7.416,11.951,7.16,11.854,6.904,11.854L6.904,11.854z"/>
		</g>
		<g>
			<path d="M11.854,6.904c-0.256,0-0.512,0.098-0.707,0.293c-0.391,0.391-0.391,1.023,0,1.414c0.195,0.195,0.451,0.293,0.707,0.293
				c0.256,0,0.512-0.098,0.706-0.293c0.392-0.391,0.392-1.023,0-1.414C12.365,7.002,12.109,6.904,11.854,6.904L11.854,6.904z"/>
		</g>
		<g>
			<path d="M18.926,8.318c-0.256,0-0.512,0.098-0.707,0.293c-0.391,0.391-0.391,1.023,0,1.414c0.195,0.195,0.451,0.293,0.707,0.293
				c0.256,0,0.512-0.098,0.707-0.293c0.391-0.391,0.391-1.023,0-1.414C19.437,8.416,19.182,8.318,18.926,8.318L18.926,8.318z"/>
		</g>
		<g>
			<path d="M11.146,16.096c-0.256,0-0.512,0.098-0.707,0.293c-0.391,0.391-0.391,1.023,0,1.414c0.195,0.195,0.451,0.293,0.707,0.293
				c0.256,0,0.512-0.098,0.707-0.293c0.391-0.391,0.391-1.023,0-1.414C11.658,16.193,11.402,16.096,11.146,16.096L11.146,16.096z"/>
		</g>
		<g>
			<path d="M4.076,14.682c-0.256,0-0.512,0.1-0.707,0.295c-0.391,0.39-0.391,1.021,0,1.412c0.195,0.195,0.451,0.293,0.707,0.293
				c0.256,0,0.512-0.098,0.707-0.293c0.391-0.391,0.391-1.023,0-1.412C4.588,14.779,4.332,14.682,4.076,14.682L4.076,14.682z"/>
		</g>
		<g>
			<path d="M8.318,18.926c-0.256,0-0.512,0.098-0.707,0.291c-0.391,0.393-0.391,1.025,0,1.416c0.195,0.195,0.451,0.293,0.707,0.293
				c0.256,0,0.512-0.098,0.707-0.293c0.391-0.391,0.391-1.023,0-1.416C8.83,19.022,8.574,18.926,8.318,18.926L8.318,18.926z"/>
		</g>
	</g>
</g>
</svg>
