<?xml version="1.0" encoding="utf-8"?>
<!-- Generator: Adobe Illustrator 19.2.0, SVG Export Plug-In . SVG Version: 6.00 Build 0)  -->
<svg version="1.1" id="Layer_1" xmlns="http://www.w3.org/2000/svg" xmlns:xlink="http://www.w3.org/1999/xlink" x="0px" y="0px"
	 viewBox="0 0 24 24" style="enable-background:new 0 0 24 24;" xml:space="preserve">
<style type="text/css">
	.st0{display:none;}
	.st1{display:inline;}
	.st2{fill:none;stroke:#000000;stroke-linecap:round;stroke-linejoin:round;stroke-miterlimit:10;}
</style>
<g id="Filled_Icons" class="st0">
	<path class="st1" d="M12,0C8.7,0,6,2.7,6,6c0,0.3,0.2,0.5,0.5,0.5C6.8,6.5,7,6.3,7,6c0-2.8,2.2-5,5-5c2.8,0,5,2.2,5,5
		c0,2.8-2.2,5-5,5c-3.5,0-6,2.9-6,7v5.5C6,23.8,6.2,24,6.5,24h11c0.3,0,0.5-0.2,0.5-0.5V6C18,2.7,15.3,0,12,0z M9.5,20h5
		c0.3,0,0.5,0.2,0.5,0.5c0,0.3-0.2,0.5-0.5,0.5h-5C9.2,21,9,20.8,9,20.5C9,20.2,9.2,20,9.5,20z"/>
</g>
<g id="Outline_Icons">
	<g>
		<path class="st2" d="M6.5,6C6.5,3,9,0.5,12,0.5c3,0,5.5,2.5,5.5,5.5c0,3-2.5,5.5-5.5,5.5c-3,0-5.5,2.5-5.5,6.5v5.5h11V6"/>
		<line class="st2" x1="9.5" y1="20.5" x2="14.5" y2="20.5"/>
	</g>
</g>
</svg>
