<?xml version="1.0" encoding="utf-8"?>
<!-- Generator: Adobe Illustrator 19.2.0, SVG Export Plug-In . SVG Version: 6.00 Build 0)  -->
<svg version="1.1" id="Layer_1" xmlns="http://www.w3.org/2000/svg" xmlns:xlink="http://www.w3.org/1999/xlink" x="0px" y="0px"
	 viewBox="0 0 24 24" style="enable-background:new 0 0 24 24;" xml:space="preserve">
<style type="text/css">
	.st0{display:none;}
	.st1{display:inline;}
	.st2{fill:none;stroke:#000000;stroke-linecap:round;stroke-linejoin:round;stroke-miterlimit:10;}
</style>
<g id="Filled_Icons" class="st0">
	<g class="st1">
		<path d="M21.5,15h-19C1.1,15,0,16.1,0,17.5v4C0,22.9,1.1,24,2.5,24h19c1.4,0,2.5-1.1,2.5-2.5v-4C24,16.1,22.9,15,21.5,15z
			 M18.5,18c0.3,0,0.5,0.2,0.5,0.5c0,0.3-0.2,0.5-0.5,0.5c-0.3,0-0.5-0.2-0.5-0.5C18,18.2,18.2,18,18.5,18z M20.5,21h-17
			C3.2,21,3,20.8,3,20.5C3,20.2,3.2,20,3.5,20h17c0.3,0,0.5,0.2,0.5,0.5C21,20.8,20.8,21,20.5,21z M20.5,19c-0.3,0-0.5-0.2-0.5-0.5
			c0-0.3,0.2-0.5,0.5-0.5c0.3,0,0.5,0.2,0.5,0.5C21,18.8,20.8,19,20.5,19z"/>
		<path d="M11.1,12.9c0,0,0.1,0.1,0.2,0.1c0.1,0,0.1,0,0.2,0c0.1,0,0.1,0,0.2,0c0.1,0,0.1-0.1,0.2-0.1l5.5-5.5
			c0.2-0.2,0.2-0.5,0-0.7c-0.2-0.2-0.5-0.2-0.7,0L12,11.3V0.5C12,0.2,11.8,0,11.5,0C11.2,0,11,0.2,11,0.5v10.8L6.4,6.6
			c-0.2-0.2-0.5-0.2-0.7,0c-0.2,0.2-0.2,0.5,0,0.7L11.1,12.9z"/>
	</g>
</g>
<g id="Outline_Icons">
	<g>
		<path class="st2" d="M23.5,21.5c0,1.1-0.9,2-2,2h-19c-1.1,0-2-0.9-2-2v-4c0-1.1,0.9-2,2-2h19c1.1,0,2,0.9,2,2V21.5z"/>
		<line class="st2" x1="3.5" y1="20.5" x2="20.5" y2="20.5"/>
		<g>
			<g>
				<g>
					<path d="M18.5,18c-0.3,0-0.5,0.2-0.5,0.5c0,0.3,0.2,0.5,0.5,0.5c0.3,0,0.5-0.2,0.5-0.5C19,18.2,18.8,18,18.5,18L18.5,18z"/>
				</g>
			</g>
		</g>
		<g>
			<g>
				<g>
					<path d="M20.5,18c-0.3,0-0.5,0.2-0.5,0.5c0,0.3,0.2,0.5,0.5,0.5c0.3,0,0.5-0.2,0.5-0.5C21,18.2,20.8,18,20.5,18L20.5,18z"/>
				</g>
			</g>
		</g>
		<line class="st2" x1="11.5" y1="12.5" x2="11.5" y2="0.5"/>
		<polyline class="st2" points="17,7 11.5,12.5 6,7 		"/>
	</g>
</g>
</svg>
