<?xml version="1.0" encoding="utf-8"?>
<!-- Generator: Adobe Illustrator 19.2.0, SVG Export Plug-In . SVG Version: 6.00 Build 0)  -->
<svg version="1.1" id="Layer_1" xmlns="http://www.w3.org/2000/svg" xmlns:xlink="http://www.w3.org/1999/xlink" x="0px" y="0px"
	 viewBox="0 0 24 24" style="enable-background:new 0 0 24 24;" xml:space="preserve">
<style type="text/css">
	.st0{display:none;}
	.st1{display:inline;}
	.st2{fill:none;stroke:#000000;stroke-linecap:round;stroke-linejoin:round;stroke-miterlimit:10;}
</style>
<g id="Filled_Icons" class="st0">
	<g class="st1">
		<path d="M17.7,13.3c-0.4-0.4-1-0.4-1.4,0l-3.8,3.8V5c0-0.6-0.4-1-1-1c-0.6,0-1,0.4-1,1v12.1l-3.8-3.8c-0.4-0.4-1-0.4-1.4,0
			c-0.4,0.4-0.4,1,0,1.4l5.5,5.5c0.4,0.4,1,0.4,1.4,0l5.5-5.5C18.1,14.3,18.1,13.7,17.7,13.3z"/>
		<path d="M23,0h-6c-0.6,0-1,0.4-1,1c0,0.6,0.4,1,1,1h5v20h-5c-0.6,0-1,0.4-1,1c0,0.6,0.4,1,1,1h6c0.6,0,1-0.4,1-1V1
			C24,0.4,23.6,0,23,0z"/>
		<path d="M6,22H2V2h4c0.6,0,1-0.4,1-1c0-0.6-0.4-1-1-1H1C0.4,0,0,0.4,0,1v22c0,0.6,0.4,1,1,1h5c0.6,0,1-0.4,1-1C7,22.4,6.6,22,6,22
			z"/>
	</g>
</g>
<g id="Outline_Icons">
	<g>
		<line class="st2" x1="11.5" y1="19.5" x2="11.5" y2="5"/>
		<polyline class="st2" points="17,14 11.5,19.5 6,14 		"/>
		<polyline class="st2" points="17.5,0.5 23.5,0.5 23.5,23.5 17.5,23.5 		"/>
		<polyline class="st2" points="6.5,0.5 0.5,0.5 0.5,23.5 6.5,23.5 		"/>
	</g>
</g>
</svg>
