<?xml version="1.0" encoding="utf-8"?>
<!-- Generator: Adobe Illustrator 19.2.0, SVG Export Plug-In . SVG Version: 6.00 Build 0)  -->
<svg version="1.1" id="Layer_1" xmlns="http://www.w3.org/2000/svg" xmlns:xlink="http://www.w3.org/1999/xlink" x="0px" y="0px"
	 viewBox="0 0 24 24" style="enable-background:new 0 0 24 24;" xml:space="preserve">
<style type="text/css">
	.st0{display:none;}
	.st1{display:inline;}
	.st2{fill:none;stroke:#000000;stroke-linecap:round;stroke-linejoin:round;stroke-miterlimit:10;}
</style>
<g id="Filled_Icons" class="st0">
	<g class="st1">
		<path d="M19.4,16.1c-0.1-0.4-0.5-0.6-0.9-0.6H15v-2c0-0.6-0.4-1-1-1c-0.6,0-1,0.4-1,1v3c0,0.6,0.4,1,1,1h2l-4.5,4.1L7,17.5h2
			c0.6,0,1-0.4,1-1v-3c0-0.6-0.4-1-1-1c-0.6,0-1,0.4-1,1v2H4.5c-0.4,0-0.8,0.3-0.9,0.6c-0.1,0.4-0.1,0.8,0.3,1.1l7,6.5
			c0.2,0.2,0.4,0.3,0.7,0.3c0.2,0,0.5-0.1,0.7-0.3l7-6.5C19.5,17,19.6,16.5,19.4,16.1z"/>
		<path d="M14,11.5c0.6,0,1-0.4,1-1v-2c0-0.6-0.4-1-1-1c-0.6,0-1,0.4-1,1v2C13,11.1,13.4,11.5,14,11.5z"/>
		<path d="M9,11.5c0.6,0,1-0.4,1-1v-2c0-0.6-0.4-1-1-1c-0.6,0-1,0.4-1,1v2C8,11.1,8.4,11.5,9,11.5z"/>
		<path d="M14,6.5c0.6,0,1-0.4,1-1v-1c0-0.6-0.4-1-1-1c-0.6,0-1,0.4-1,1v1C13,6.1,13.4,6.5,14,6.5z"/>
		<path d="M9,6.5c0.6,0,1-0.4,1-1v-1c0-0.6-0.4-1-1-1c-0.6,0-1,0.4-1,1v1C8,6.1,8.4,6.5,9,6.5z"/>
		<path d="M14,2.5c0.6,0,1-0.4,1-1V1c0-0.6-0.4-1-1-1c-0.6,0-1,0.4-1,1v0.5C13,2.1,13.4,2.5,14,2.5z"/>
		<path d="M9,2.5c0.6,0,1-0.4,1-1V1c0-0.6-0.4-1-1-1C8.4,0,8,0.4,8,1v0.5C8,2.1,8.4,2.5,9,2.5z"/>
	</g>
</g>
<g id="Outline_Icons">
	<g>
		<polyline class="st2" points="14.5,11 14.5,15.5 19,15.5 12,22.5 5,15.5 9.5,15.5 9.5,11 		"/>
		<line class="st2" x1="14.5" y1="9" x2="14.5" y2="6.5"/>
		<line class="st2" x1="9.5" y1="9" x2="9.5" y2="6.5"/>
		<line class="st2" x1="14.5" y1="4.5" x2="14.5" y2="3"/>
		<line class="st2" x1="9.5" y1="4.5" x2="9.5" y2="3"/>
		<line class="st2" x1="14.5" y1="1" x2="14.5" y2="0.5"/>
		<line class="st2" x1="9.5" y1="1" x2="9.5" y2="0.5"/>
	</g>
</g>
</svg>
