<?xml version="1.0" encoding="utf-8"?>
<!-- Generator: Adobe Illustrator 19.2.0, SVG Export Plug-In . SVG Version: 6.00 Build 0)  -->
<svg version="1.1" id="Layer_1" xmlns="http://www.w3.org/2000/svg" xmlns:xlink="http://www.w3.org/1999/xlink" x="0px" y="0px"
	 viewBox="0 0 24 24" style="enable-background:new 0 0 24 24;" xml:space="preserve">
<style type="text/css">
	.st0{display:none;}
	.st1{display:inline;}
	.st2{fill:none;stroke:#000000;stroke-linecap:round;stroke-linejoin:round;stroke-miterlimit:10;}
</style>
<g id="Filled_Icons" class="st0">
	<path class="st1" d="M23.5,0h-23C0.2,0,0,0.2,0,0.5v23C0,23.8,0.2,24,0.5,24h23c0.3,0,0.5-0.2,0.5-0.5v-23C24,0.2,23.8,0,23.5,0z
		 M18.4,13.9l-6,6C12.3,20,12.1,20,12,20c-0.1,0-0.3,0-0.4-0.1l-6-6c-0.1-0.1-0.2-0.4-0.1-0.5C5.6,13.1,5.8,13,6,13h3v-2.5
		C9,10.2,9.2,10,9.5,10c0.3,0,0.5,0.2,0.5,0.5v3c0,0.3-0.2,0.5-0.5,0.5H7.2l4.8,4.8l4.8-4.8h-2.3c-0.3,0-0.5-0.2-0.5-0.5v-3
		c0-0.3,0.2-0.5,0.5-0.5c0.3,0,0.5,0.2,0.5,0.5V13h3c0.2,0,0.4,0.1,0.5,0.3C18.5,13.5,18.5,13.7,18.4,13.9z M9.5,6
		C9.8,6,10,6.2,10,6.5v2C10,8.8,9.8,9,9.5,9C9.2,9,9,8.8,9,8.5v-2C9,6.2,9.2,6,9.5,6z M9,4.5v-2C9,2.2,9.2,2,9.5,2
		C9.8,2,10,2.2,10,2.5v2C10,4.8,9.8,5,9.5,5C9.2,5,9,4.8,9,4.5z M14.5,6C14.8,6,15,6.2,15,6.5v2C15,8.8,14.8,9,14.5,9
		C14.2,9,14,8.8,14,8.5v-2C14,6.2,14.2,6,14.5,6z M14,4.5v-2C14,2.2,14.2,2,14.5,2C14.8,2,15,2.2,15,2.5v2C15,4.8,14.8,5,14.5,5
		C14.2,5,14,4.8,14,4.5z"/>
</g>
<g id="Outline_Icons">
	<g>
		<polyline class="st2" points="14.5,10.5 14.5,13.5 18,13.5 12,19.5 6,13.5 9.5,13.5 9.5,10.5 		"/>
		<line class="st2" x1="14.5" y1="8.5" x2="14.5" y2="6.5"/>
		<line class="st2" x1="9.5" y1="8.5" x2="9.5" y2="6.5"/>
		<line class="st2" x1="14.5" y1="4.5" x2="14.5" y2="2.5"/>
		<line class="st2" x1="9.5" y1="4.5" x2="9.5" y2="2.5"/>
		<rect x="0.5" y="0.5" class="st2" width="23" height="23"/>
	</g>
</g>
</svg>
