<?xml version="1.0" encoding="utf-8"?>
<!-- Generator: Adobe Illustrator 19.2.0, SVG Export Plug-In . SVG Version: 6.00 Build 0)  -->
<svg version="1.1" id="Layer_1" xmlns="http://www.w3.org/2000/svg" xmlns:xlink="http://www.w3.org/1999/xlink" x="0px" y="0px"
	 viewBox="0 0 24 24" style="enable-background:new 0 0 24 24;" xml:space="preserve">
<style type="text/css">
	.st0{display:none;}
	.st1{display:inline;}
	.st2{fill:none;stroke:#000000;stroke-linecap:round;stroke-linejoin:round;stroke-miterlimit:10;}
</style>
<g id="Filled_Icons" class="st0">
	<g class="st1">
		<path d="M11.6,13.9C11.7,14,11.9,14,12,14c0.1,0,0.3,0,0.4-0.1l8-8c0.1-0.1,0.2-0.4,0.1-0.5C20.4,5.1,20.2,5,20,5H4
			C3.8,5,3.6,5.1,3.5,5.3c-0.1,0.2,0,0.4,0.1,0.5L11.6,13.9z"/>
		<path d="M23,17H1c-0.6,0-1,0.4-1,1c0,0.6,0.4,1,1,1h22c0.6,0,1-0.4,1-1C24,17.4,23.6,17,23,17z"/>
	</g>
</g>
<g id="Outline_Icons">
	<g>
		<polygon class="st2" points="20,5.5 12,13.5 4,5.5 		"/>
		<line class="st2" x1="0.5" y1="18.5" x2="23.5" y2="18.5"/>
	</g>
</g>
</svg>
