<?xml version="1.0" encoding="utf-8"?>
<!-- Generator: Adobe Illustrator 19.2.0, SVG Export Plug-In . SVG Version: 6.00 Build 0)  -->
<svg version="1.1" id="Layer_1" xmlns="http://www.w3.org/2000/svg" xmlns:xlink="http://www.w3.org/1999/xlink" x="0px" y="0px"
	 viewBox="0 0 24 24" style="enable-background:new 0 0 24 24;" xml:space="preserve">
<style type="text/css">
	.st0{display:none;}
	.st1{display:inline;}
	.st2{fill:none;stroke:#000000;stroke-linecap:round;stroke-linejoin:round;stroke-miterlimit:10;}
</style>
<g id="Filled_Icons" class="st0">
	<g class="st1">
		<path d="M11.6,18.9c0.1,0.1,0.2,0.1,0.4,0.1c0.1,0,0.3-0.1,0.4-0.1l7-7c0.1-0.1,0.2-0.4,0.1-0.5C19.4,11.1,19.2,11,19,11l-3,0V0.5
			C16,0.2,15.8,0,15.5,0h-7C8.2,0,8,0.2,8,0.5V11H5c-0.2,0-0.4,0.1-0.5,0.3c-0.1,0.2,0,0.4,0.1,0.5L11.6,18.9z"/>
		<path d="M23,17.5c-0.6,0-1,0.4-1,1V22H2v-3.5c0-0.6-0.4-1-1-1c-0.6,0-1,0.4-1,1V23c0,0.6,0.4,1,1,1h22c0.6,0,1-0.4,1-1v-4.5
			C24,17.9,23.6,17.5,23,17.5z"/>
	</g>
</g>
<g id="Outline_Icons">
	<g>
		<polygon class="st2" points="5,11.5 12,18.5 19,11.5 15.5,11.5 15.5,0.5 8.5,0.5 8.5,11.5 		"/>
		<polyline class="st2" points="23.5,18.5 23.5,23.5 0.5,23.5 0.5,18.5 		"/>
	</g>
</g>
</svg>
