<?xml version="1.0" encoding="utf-8"?>
<!-- Generator: Adobe Illustrator 19.2.0, SVG Export Plug-In . SVG Version: 6.00 Build 0)  -->
<svg version="1.1" id="Layer_1" xmlns="http://www.w3.org/2000/svg" xmlns:xlink="http://www.w3.org/1999/xlink" x="0px" y="0px"
	 viewBox="0 0 24 24" style="enable-background:new 0 0 24 24;" xml:space="preserve">
<style type="text/css">
	.st0{display:none;}
	.st1{display:inline;}
	.st2{fill:none;stroke:#000000;stroke-linecap:round;stroke-linejoin:round;stroke-miterlimit:10;}
</style>
<g id="Filled_Icons" class="st0">
	<g class="st1">
		<path d="M11.1,17c0.2,0.3,0.5,0.5,0.9,0.5c0.3,0,0.7-0.2,0.9-0.5l8-13c0.3-0.5,0.1-1.1-0.3-1.4c-0.5-0.3-1.1-0.1-1.4,0.3L12,14.6
			L4.9,3C4.6,2.5,3.9,2.4,3.5,2.6C3,2.9,2.9,3.6,3.1,4L11.1,17z"/>
		<path d="M23,20H1c-0.6,0-1,0.4-1,1c0,0.6,0.4,1,1,1h22c0.6,0,1-0.4,1-1C24,20.4,23.6,20,23,20z"/>
	</g>
</g>
<g id="Outline_Icons">
	<g>
		<polyline class="st2" points="20,3.5 12,16.5 4,3.5 		"/>
		<line class="st2" x1="0.5" y1="21.5" x2="23.5" y2="21.5"/>
	</g>
</g>
</svg>
