<?xml version="1.0" encoding="utf-8"?>
<!-- Generator: Adobe Illustrator 19.2.0, SVG Export Plug-In . SVG Version: 6.00 Build 0)  -->
<svg version="1.1" id="Layer_1" xmlns="http://www.w3.org/2000/svg" xmlns:xlink="http://www.w3.org/1999/xlink" x="0px" y="0px"
	 viewBox="0 0 24 24" style="enable-background:new 0 0 24 24;" xml:space="preserve">
<style type="text/css">
	.st0{display:none;}
	.st1{display:inline;}
	.st2{fill:none;stroke:#000000;stroke-linecap:round;stroke-linejoin:round;stroke-miterlimit:10;}
</style>
<g id="Filled_Icons" class="st0">
	<g class="st1">
		<path d="M15.8,11.7c-0.2-0.2-0.5-0.1-0.7,0.1L12,15.7V0.5C12,0.2,11.8,0,11.5,0C11.2,0,11,0.2,11,0.5v15.2l-3.1-3.9
			c-0.2-0.2-0.5-0.2-0.7-0.1c-0.2,0.2-0.2,0.5-0.1,0.7l4,5c0,0,0,0,0,0c0,0,0.1,0.1,0.1,0.1c0,0,0,0,0.1,0c0.1,0,0.1,0,0.2,0
			c0.1,0,0.1,0,0.2,0c0,0,0,0,0.1,0c0,0,0.1-0.1,0.1-0.1c0,0,0,0,0,0l4-5C16.1,12.2,16,11.9,15.8,11.7z"/>
		<path d="M19.5,7H13v5.8l1.3-1.7c0.5-0.6,1.5-0.8,2.1-0.2c0.6,0.5,0.8,1.5,0.2,2.1l-4,5c-0.6,0.8-1.8,0.7-2.3,0l-4-5
			c-0.5-0.6-0.4-1.6,0.2-2.1c0.6-0.5,1.6-0.4,2.1,0.2l1.3,1.7V7H3.5C3.2,7,3,7.2,3,7.5v16C3,23.8,3.2,24,3.5,24h16
			c0.3,0,0.5-0.2,0.5-0.5v-16C20,7.2,19.8,7,19.5,7z"/>
	</g>
</g>
<g id="Outline_Icons">
	<g>
		<g>
			<line class="st2" x1="11.5" y1="0.5" x2="11.5" y2="17.1"/>
			<polyline class="st2" points="15.5,12.1 11.5,17.1 7.5,12.1 			"/>
		</g>
		<polyline class="st2" points="9,7.5 3.5,7.5 3.5,23.5 19.5,23.5 19.5,7.5 14,7.5 		"/>
	</g>
</g>
</svg>
