<?xml version="1.0" encoding="utf-8"?>
<!-- Generator: Adobe Illustrator 19.2.0, SVG Export Plug-In . SVG Version: 6.00 Build 0)  -->
<svg version="1.1" id="Layer_1" xmlns="http://www.w3.org/2000/svg" xmlns:xlink="http://www.w3.org/1999/xlink" x="0px" y="0px"
	 viewBox="0 0 24 24" style="enable-background:new 0 0 24 24;" xml:space="preserve">
<style type="text/css">
	.st0{display:none;}
	.st1{display:inline;}
	.st2{fill:none;stroke:#000000;stroke-linecap:round;stroke-linejoin:round;stroke-miterlimit:10;}
</style>
<g id="Filled_Icons" class="st0">
	<g class="st1">
		<path d="M22.5,20H22V8c0-1.1-0.9-2-2-2h-7v2h6.5C19.8,8,20,8.2,20,8.5v10c0,0.3-0.2,0.5-0.5,0.5h-16C3.2,19,3,18.8,3,18.5v-10
			C3,8.2,3.2,8,3.5,8H10V6H3C1.9,6,1,6.9,1,8v12H0.5C0.2,20,0,20.2,0,20.5v2C0,23.3,0.7,24,1.5,24h20c0.8,0,1.5-0.7,1.5-1.5v-2
			C23,20.2,22.8,20,22.5,20z M22,22.5c0,0.3-0.2,0.5-0.5,0.5h-20C1.2,23,1,22.8,1,22.5V21h0.5H9v0.5l0,0C9,21.8,9.2,22,9.5,22h4
			c0.3,0,0.5-0.2,0.5-0.5l0,0V21h7.5H22V22.5z"/>
		<path d="M15.9,10.6c-0.2-0.2-0.5-0.2-0.7,0L12,13.8V0.5C12,0.2,11.8,0,11.5,0C11.2,0,11,0.2,11,0.5v13.3l-3.1-3.1
			c-0.2-0.2-0.5-0.2-0.7,0c-0.2,0.2-0.2,0.5,0,0.7l4,4c0,0,0.1,0.1,0.2,0.1c0.1,0,0.1,0,0.2,0c0.1,0,0.1,0,0.2,0
			c0.1,0,0.1-0.1,0.2-0.1l4-4C16,11.2,16,10.8,15.9,10.6z"/>
	</g>
</g>
<g id="Outline_Icons">
	<g>
		<polyline class="st2" points="15,8.5 19.5,8.5 19.5,18.5 12,18.5 3.5,18.5 3.5,8.5 8,8.5 		"/>
		<path class="st2" d="M15,6.5h5c0.8,0,1.5,0.7,1.5,1.5v12.5"/>
		<path class="st2" d="M1.5,20.5V8c0-0.8,0.7-1.5,1.5-1.5h5"/>
		<path class="st2" d="M13.5,20.5v1h-4v-1h-9v2c0,0.6,0.4,1,1,1h20c0.6,0,1-0.4,1-1v-2H13.5z"/>
		<line class="st2" x1="11.5" y1="15" x2="11.5" y2="0.5"/>
		<polyline class="st2" points="7.5,11 11.5,15 15.5,11 		"/>
	</g>
</g>
</svg>
