<?xml version="1.0" encoding="utf-8"?>
<!-- Generator: Adobe Illustrator 19.2.0, SVG Export Plug-In . SVG Version: 6.00 Build 0)  -->
<svg version="1.1" id="Layer_1" xmlns="http://www.w3.org/2000/svg" xmlns:xlink="http://www.w3.org/1999/xlink" x="0px" y="0px"
	 viewBox="0 0 24 24" style="enable-background:new 0 0 24 24;" xml:space="preserve">
<style type="text/css">
	.st0{display:none;}
	.st1{display:inline;}
	.st2{fill:none;stroke:#000000;stroke-linecap:round;stroke-linejoin:round;stroke-miterlimit:10;}
</style>
<g id="Filled_Icons" class="st0">
	<g class="st1">
		<path d="M10.8,13.7c0.4,0.4,1,0.4,1.4,0l5.5-5.5c0.4-0.4,0.4-1,0-1.4c-0.4-0.4-1-0.4-1.4,0l-3.8,3.8V1c0-0.6-0.4-1-1-1
			c-0.6,0-1,0.4-1,1v9.6L6.7,6.8c-0.4-0.4-1-0.4-1.4,0c-0.4,0.4-0.4,1,0,1.4L10.8,13.7z"/>
		<path d="M18,22H5c-0.6,0-1,0.4-1,1c0,0.6,0.4,1,1,1h13c0.6,0,1-0.4,1-1C19,22.4,18.6,22,18,22z"/>
		<path d="M18,19H5c-0.6,0-1,0.4-1,1c0,0.6,0.4,1,1,1h13c0.6,0,1-0.4,1-1C19,19.4,18.6,19,18,19z"/>
		<path d="M5,18h13c0.6,0,1-0.4,1-1c0-0.6-0.4-1-1-1H5c-0.6,0-1,0.4-1,1C4,17.6,4.4,18,5,18z"/>
	</g>
</g>
<g id="Outline_Icons">
	<g>
		<line class="st2" x1="11.5" y1="13.5" x2="11.5" y2="0.5"/>
		<polyline class="st2" points="17,8 11.5,13.5 6,8 		"/>
		<line class="st2" x1="5" y1="23.5" x2="18" y2="23.5"/>
		<line class="st2" x1="5" y1="20.5" x2="18" y2="20.5"/>
		<line class="st2" x1="5" y1="17.5" x2="18" y2="17.5"/>
	</g>
</g>
</svg>
