<?xml version="1.0" encoding="utf-8"?>
<!-- Generator: Adobe Illustrator 19.2.0, SVG Export Plug-In . SVG Version: 6.00 Build 0)  -->
<svg version="1.1" id="Layer_1" xmlns="http://www.w3.org/2000/svg" xmlns:xlink="http://www.w3.org/1999/xlink" x="0px" y="0px"
	 viewBox="0 0 24 24" style="enable-background:new 0 0 24 24;" xml:space="preserve">
<style type="text/css">
	.st0{display:none;}
	.st1{display:inline;}
	.st2{fill:none;stroke:#000000;stroke-linecap:round;stroke-linejoin:round;stroke-miterlimit:10;}
</style>
<g id="Filled_Icons" class="st0">
	<g class="st1">
		<path d="M24,17.5c0-0.1,0-0.1,0-0.2c0,0,0,0,0,0c0,0,0-0.1-0.1-0.1l-5-6c-0.1-0.1-0.2-0.2-0.4-0.2H17c-0.3,0-0.5,0.2-0.5,0.5
			c0,0.3,0.2,0.5,0.5,0.5h1.3l4.2,5H1.6l4.2-5h0.8C6.8,12,7,11.8,7,11.5C7,11.2,6.8,11,6.5,11h-1c-0.1,0-0.3,0.1-0.4,0.2l-5,6
			c0,0-0.1,0.1-0.1,0.1c0,0,0,0,0,0c0,0.1,0,0.1,0,0.2c0,0,0,0,0,0v4C0,22.9,1.1,24,2.5,24h19c1.4,0,2.5-1.1,2.5-2.5L24,17.5
			C24,17.5,24,17.5,24,17.5z M20,21h-4c-0.3,0-0.5-0.2-0.5-0.5c0-0.3,0.2-0.5,0.5-0.5h4c0.3,0,0.5,0.2,0.5,0.5
			C20.5,20.8,20.3,21,20,21z"/>
		<path d="M11.1,12.9c0,0,0.1,0.1,0.2,0.1c0.1,0,0.1,0,0.2,0c0.1,0,0.1,0,0.2,0c0.1,0,0.1-0.1,0.2-0.1l4-4c0.2-0.2,0.2-0.5,0-0.7
			c-0.2-0.2-0.5-0.2-0.7,0L12,11.3V0.5C12,0.2,11.8,0,11.5,0C11.2,0,11,0.2,11,0.5v10.8L7.9,8.1C7.7,8,7.3,8,7.1,8.1
			C7,8.3,7,8.7,7.1,8.9L11.1,12.9z"/>
	</g>
</g>
<g id="Outline_Icons">
	<g>
		<line class="st2" x1="11.5" y1="12.5" x2="11.5" y2="0.5"/>
		<polyline class="st2" points="7.5,8.5 11.5,12.5 15.5,8.5 		"/>
		<polyline class="st2" points="6.5,11.5 5.5,11.5 0.5,17.5 23.5,17.5 18.5,11.5 17,11.5 		"/>
		<line class="st2" x1="20" y1="20.5" x2="16" y2="20.5"/>
		<path class="st2" d="M0.5,17.5v4c0,1.1,0.9,2,2,2h19c1.1,0,2-0.9,2-2v-4"/>
	</g>
</g>
</svg>
