<?xml version="1.0" encoding="utf-8"?>
<!-- Generator: Adobe Illustrator 19.2.0, SVG Export Plug-In . SVG Version: 6.00 Build 0)  -->
<svg version="1.1" id="Layer_1" xmlns="http://www.w3.org/2000/svg" xmlns:xlink="http://www.w3.org/1999/xlink" x="0px" y="0px"
	 viewBox="0 0 24 24" enable-background="new 0 0 24 24" xml:space="preserve">
<g id="Filled_Icons" display="none">
	<path display="inline" d="M23.5,0.006h-23c-0.276,0-0.5,0.223-0.5,0.5v23c0,0.275,0.224,0.5,0.5,0.5h23c0.275,0,0.5-0.225,0.5-0.5
		v-23C24,0.229,23.775,0.006,23.5,0.006z M11,21.506c0,0.275-0.224,0.5-0.5,0.5h-8c-0.276,0-0.5-0.225-0.5-0.5v-5
		c0-0.277,0.224-0.5,0.5-0.5h3v2c0,0.275,0.224,0.5,0.5,0.5h1c0.276,0,0.5-0.225,0.5-0.5v-2h3c0.276,0,0.5,0.223,0.5,0.5V21.506z
		 M11,14.506c0,0.275-0.224,0.5-0.5,0.5H7H6H2.5c-0.276,0-0.5-0.225-0.5-0.5v-5c0-0.277,0.224-0.5,0.5-0.5h3v2
		c0,0.276,0.224,0.5,0.5,0.5h1c0.276,0,0.5-0.224,0.5-0.5v-2h3c0.276,0,0.5,0.223,0.5,0.5V14.506z M11,7.506
		c0,0.276-0.224,0.5-0.5,0.5H7H6H2.5c-0.276,0-0.5-0.224-0.5-0.5v-5c0-0.277,0.224-0.5,0.5-0.5h3v2c0,0.276,0.224,0.5,0.5,0.5h1
		c0.276,0,0.5-0.224,0.5-0.5v-2h3c0.276,0,0.5,0.223,0.5,0.5V7.506z M22,21.506c0,0.275-0.225,0.5-0.5,0.5h-8
		c-0.275,0-0.5-0.225-0.5-0.5v-5c0-0.277,0.225-0.5,0.5-0.5h3v2c0,0.275,0.225,0.5,0.5,0.5h1c0.275,0,0.5-0.225,0.5-0.5v-2h3
		c0.275,0,0.5,0.223,0.5,0.5V21.506z M22,14.506c0,0.275-0.225,0.5-0.5,0.5H18h-1h-3.5c-0.275,0-0.5-0.225-0.5-0.5v-5
		c0-0.277,0.225-0.5,0.5-0.5h3v2c0,0.276,0.225,0.5,0.5,0.5h1c0.275,0,0.5-0.224,0.5-0.5v-2h3c0.275,0,0.5,0.223,0.5,0.5V14.506z
		 M22,7.506c0,0.276-0.225,0.5-0.5,0.5H18h-1h-3.5c-0.275,0-0.5-0.224-0.5-0.5v-5c0-0.277,0.225-0.5,0.5-0.5h3v2
		c0,0.276,0.225,0.5,0.5,0.5h1c0.275,0,0.5-0.224,0.5-0.5v-2h3c0.275,0,0.5,0.223,0.5,0.5V7.506z"/>
</g>
<g id="Outline_Icons">
	<g>
		<rect x="0.5" y="0.5" fill="none" stroke="#000000" stroke-linejoin="round" stroke-miterlimit="10" width="23" height="23"/>
		<rect x="2.5" y="2.5" fill="none" stroke="#000000" stroke-linejoin="round" stroke-miterlimit="10" width="8" height="5"/>
		<rect x="13.5" y="2.5" fill="none" stroke="#000000" stroke-linejoin="round" stroke-miterlimit="10" width="8" height="5"/>
		<rect x="2.5" y="9.5" fill="none" stroke="#000000" stroke-linejoin="round" stroke-miterlimit="10" width="8" height="5"/>
		<rect x="13.5" y="9.5" fill="none" stroke="#000000" stroke-linejoin="round" stroke-miterlimit="10" width="8" height="5"/>
		<rect x="2.5" y="16.5" fill="none" stroke="#000000" stroke-linejoin="round" stroke-miterlimit="10" width="8" height="5"/>
		<rect x="13.5" y="16.5" fill="none" stroke="#000000" stroke-linejoin="round" stroke-miterlimit="10" width="8" height="5"/>
		<rect x="16.5" y="2.5" fill="none" stroke="#000000" stroke-linejoin="round" stroke-miterlimit="10" width="2" height="2"/>
		<rect x="5.5" y="2.5" fill="none" stroke="#000000" stroke-linejoin="round" stroke-miterlimit="10" width="2" height="2"/>
		<rect x="16.5" y="16.5" fill="none" stroke="#000000" stroke-linejoin="round" stroke-miterlimit="10" width="2" height="2"/>
		<rect x="5.5" y="16.5" fill="none" stroke="#000000" stroke-linejoin="round" stroke-miterlimit="10" width="2" height="2"/>
		<rect x="5.5" y="9.5" fill="none" stroke="#000000" stroke-linejoin="round" stroke-miterlimit="10" width="2" height="2"/>
		<rect x="16.5" y="9.5" fill="none" stroke="#000000" stroke-linejoin="round" stroke-miterlimit="10" width="2" height="2"/>
	</g>
</g>
</svg>
