<?xml version="1.0" encoding="utf-8"?>
<!-- Generator: Adobe Illustrator 19.2.0, SVG Export Plug-In . SVG Version: 6.00 Build 0)  -->
<svg version="1.1" id="Layer_1" xmlns="http://www.w3.org/2000/svg" xmlns:xlink="http://www.w3.org/1999/xlink" x="0px" y="0px"
	 viewBox="0 0 24 24" style="enable-background:new 0 0 24 24;" xml:space="preserve">
<style type="text/css">
	.st0{display:none;}
	.st1{display:inline;}
	.st2{fill:none;stroke:#000000;stroke-linecap:round;stroke-linejoin:round;stroke-miterlimit:10;}
</style>
<g id="Filled_Icons" class="st0">
	<g class="st1">
		<path d="M6,14h12v-4H6V14z M10.5,11h3c0.3,0,0.5,0.2,0.5,0.5c0,0.3-0.2,0.5-0.5,0.5h-3c-0.3,0-0.5-0.2-0.5-0.5
			C10,11.2,10.2,11,10.5,11z"/>
		<path d="M6,21h12v-4H6V21z M10.5,18h3c0.3,0,0.5,0.2,0.5,0.5c0,0.3-0.2,0.5-0.5,0.5h-3c-0.3,0-0.5-0.2-0.5-0.5
			C10,18.2,10.2,18,10.5,18z"/>
		<path d="M6,7h12V3H6V7z M10.5,4h3C13.8,4,14,4.2,14,4.5C14,4.8,13.8,5,13.5,5h-3C10.2,5,10,4.8,10,4.5C10,4.2,10.2,4,10.5,4z"/>
		<path d="M20.5,0h-17C3.2,0,3,0.2,3,0.5v23C3,23.8,3.2,24,3.5,24h17c0.3,0,0.5-0.2,0.5-0.5v-23C21,0.2,20.8,0,20.5,0z M19,21.5
			c0,0.3-0.2,0.5-0.5,0.5h-13C5.2,22,5,21.8,5,21.5v-5C5,16.2,5.2,16,5.5,16h13c0.3,0,0.5,0.2,0.5,0.5V21.5z M19,14.5
			c0,0.3-0.2,0.5-0.5,0.5h-13C5.2,15,5,14.8,5,14.5v-5C5,9.2,5.2,9,5.5,9h13C18.8,9,19,9.2,19,9.5V14.5z M19,7.5
			C19,7.8,18.8,8,18.5,8h-13C5.2,8,5,7.8,5,7.5v-5C5,2.2,5.2,2,5.5,2h13C18.8,2,19,2.2,19,2.5V7.5z"/>
	</g>
</g>
<g id="Outline_Icons">
	<g>
		<rect x="3.5" y="0.5" class="st2" width="17" height="23"/>
		<rect x="5.5" y="2.5" class="st2" width="13" height="5"/>
		<rect x="5.5" y="9.5" class="st2" width="13" height="5"/>
		<rect x="5.5" y="16.5" class="st2" width="13" height="5"/>
		<line class="st2" x1="10.5" y1="4.5" x2="13.5" y2="4.5"/>
		<line class="st2" x1="10.5" y1="11.5" x2="13.5" y2="11.5"/>
		<line class="st2" x1="10.5" y1="18.5" x2="13.5" y2="18.5"/>
	</g>
</g>
</svg>
