<?xml version="1.0" encoding="utf-8"?>
<!-- Generator: Adobe Illustrator 19.2.0, SVG Export Plug-In . SVG Version: 6.00 Build 0)  -->
<svg version="1.1" id="Layer_1" xmlns="http://www.w3.org/2000/svg" xmlns:xlink="http://www.w3.org/1999/xlink" x="0px" y="0px"
	 viewBox="0 0 24 24" style="enable-background:new 0 0 24 24;" xml:space="preserve">
<style type="text/css">
	.st0{display:none;}
	.st1{display:inline;}
	.st2{fill:none;stroke:#000000;stroke-linejoin:round;stroke-miterlimit:10;}
</style>
<g id="Filled_Icons" class="st0">
	<g class="st1">
		<path d="M2,21c0,1.7,1.3,3,3,3h13c1.7,0,3-1.3,3-3v-5H2V21z M8.1,19.2C8.2,19.1,8.3,19,8.5,19H14c0.2,0,0.3,0.1,0.4,0.2
			c0.1,0.1,0.1,0.3,0,0.5l-1,2C13.4,21.9,13.2,22,13,22H9.5c-0.2,0-0.4-0.1-0.4-0.3l-1-2C8,19.6,8,19.4,8.1,19.2z"/>
		<path d="M2,15h19V8H2V15z M8.1,10.2C8.2,10.1,8.3,10,8.5,10H14c0.2,0,0.3,0.1,0.4,0.2c0.1,0.1,0.1,0.3,0,0.5l-1,2
			C13.4,12.9,13.2,13,13,13H9.5c-0.2,0-0.4-0.1-0.4-0.3l-1-2C8,10.6,8,10.4,8.1,10.2z"/>
		<path d="M18,0H5C3.3,0,2,1.3,2,3v4h19V3C21,1.3,19.7,0,18,0z M14.4,3.7l-1,2C13.4,5.9,13.2,6,13,6H9.5C9.3,6,9.1,5.9,9.1,5.7l-1-2
			C8,3.6,8,3.4,8.1,3.2C8.2,3.1,8.3,3,8.5,3H14c0.2,0,0.3,0.1,0.4,0.2C14.5,3.4,14.5,3.6,14.4,3.7z"/>
	</g>
</g>
<g id="Outline_Icons">
	<g>
		<path class="st2" d="M20.5,21c0,1.4-1.1,2.5-2.5,2.5H5c-1.4,0-2.5-1.1-2.5-2.5V3c0-1.4,1.1-2.5,2.5-2.5h13c1.4,0,2.5,1.1,2.5,2.5
			V21z"/>
		<line class="st2" x1="2.5" y1="7.5" x2="20.5" y2="7.5"/>
		<line class="st2" x1="2.5" y1="15.5" x2="20.5" y2="15.5"/>
		<polygon class="st2" points="13.3,5.5 9.8,5.5 8.8,3.5 14.3,3.5 		"/>
		<polygon class="st2" points="13.3,12.5 9.8,12.5 8.8,10.5 14.3,10.5 		"/>
		<polygon class="st2" points="13.3,21.5 9.8,21.5 8.8,19.5 14.3,19.5 		"/>
	</g>
</g>
</svg>
