<?xml version="1.0" encoding="utf-8"?>
<!-- Generator: Adobe Illustrator 19.2.0, SVG Export Plug-In . SVG Version: 6.00 Build 0)  -->
<svg version="1.1" id="Layer_1" xmlns="http://www.w3.org/2000/svg" xmlns:xlink="http://www.w3.org/1999/xlink" x="0px" y="0px"
	 viewBox="0 0 24 24" enable-background="new 0 0 24 24" xml:space="preserve">
<g id="Filled_Icons" display="none">
	<g display="inline">
		<path d="M19.5,11.006H12v-7.5c0-1.103,0.896-2,2-2c1.103,0,2,0.897,2,2v2h1v-2c0-1.654-1.346-3-3-3c-1.654,0-3,1.346-3,3v7.5H4.5
			c-0.276,0-0.5,0.223-0.5,0.5v1c0,1.958,1.054,3.783,2.75,4.764C8.138,18.072,9,19.566,9,21.167v2.339c0,0.275,0.224,0.5,0.5,0.5h5
			c0.275,0,0.5-0.225,0.5-0.5v-2.339c0-1.601,0.861-3.095,2.25-3.897c1.695-0.98,2.75-2.806,2.75-4.764v-1
			C20,11.229,19.775,11.006,19.5,11.006z"/>
		<path d="M16.109,6.694c-0.318,0.398-1.324,1.768-0.891,2.672c0.141,0.292,0.479,0.641,1.28,0.641c0.802,0,1.14-0.349,1.28-0.641
			c0.435-0.904-0.571-2.273-0.891-2.672C16.701,6.457,16.299,6.457,16.109,6.694z"/>
	</g>
</g>
<g id="Outline_Icons">
	<g>
		<path fill="none" stroke="#000000" stroke-linejoin="round" stroke-miterlimit="10" d="M19.5,11.5h-15v1
			c0,1.85,1.006,3.467,2.5,4.331c1.544,0.893,2.5,2.547,2.5,4.331V23.5h5v-2.339c0-1.785,0.954-3.437,2.5-4.331
			c1.494-0.864,2.5-2.48,2.5-4.331V11.5z"/>
		<path fill="none" stroke="#000000" stroke-linejoin="round" stroke-miterlimit="10" d="M11.5,11.5v-8C11.5,2.119,12.619,1,14,1
			c1.381,0,2.5,1.119,2.5,2.5v2"/>
		<path fill="none" stroke="#000000" stroke-linecap="round" stroke-linejoin="round" stroke-miterlimit="10" d="M16.5,7
			c0,0,2,2.5,0,2.5S16.5,7,16.5,7z"/>
	</g>
</g>
</svg>
