<?xml version="1.0" encoding="utf-8"?>
<!-- Generator: Adobe Illustrator 19.2.0, SVG Export Plug-In . SVG Version: 6.00 Build 0)  -->
<svg version="1.1" id="Layer_1" xmlns="http://www.w3.org/2000/svg" xmlns:xlink="http://www.w3.org/1999/xlink" x="0px" y="0px"
	 viewBox="0 0 24 24" style="enable-background:new 0 0 24 24;" xml:space="preserve">
<style type="text/css">
	.st0{display:none;}
	.st1{display:inline;}
	.st2{fill:none;stroke:#000000;stroke-linejoin:round;stroke-miterlimit:10;}
	.st3{fill:none;stroke:#000000;stroke-linecap:round;stroke-linejoin:round;stroke-miterlimit:10;}
</style>
<g id="Filled_Icon" class="st0">
	<g class="st1">
		<polygon points="9.2,14 3.1,14 7.8,17.7 		"/>
		<polygon points="14.9,18.8 13,14 10.2,14 8.6,18.3 11.8,20.9 		"/>
		<path d="M7.3,18.6l-1.7-1.3L0,20.9v2.6C0,23.8,0.2,24,0.5,24h2.6C3.7,23.2,4.9,21.6,7.3,18.6z"/>
		<path d="M23.5,14h-0.2l-3.1,3.3l3.9,6.1v-8.8C24,14.2,23.8,14,23.5,14z"/>
		<path d="M16.8,24l1.9-5.9l-3,1.3L12.1,22C12,22,11.9,22,11.8,22c-0.1,0-0.2,0-0.3-0.1l-3.4-2.7c-1.2,1.5-2.7,3.5-3.7,4.8H16.8z"/>
		<polygon points="19.7,18.4 17.9,24 23.2,24 		"/>
		<path d="M4.8,16.6L1.5,14h-1C0.2,14,0,14.2,0,14.5v5.2L4.8,16.6z"/>
		<path d="M16.2,9.4C16.2,9.4,16.2,9.4,16.2,9.4C16.3,9.4,16.3,9.4,16.2,9.4l1.8,0.9V14h-3.9l1.6,4.3l3.5-1.5l2.7-2.8H19V7.3
			l1.7-0.9c0,0,0,0,0,0c0,0,0,0,0,0l3-2C24,4.3,24.1,4,23.9,3.7c-0.2-0.2-0.5-0.3-0.7-0.1l-1.9,1.3L22,2.1c0.1-0.3-0.1-0.5-0.4-0.6
			c-0.3-0.1-0.5,0.1-0.6,0.4l-0.9,3.8L19,6.2V1c0-0.3-0.2-0.5-0.5-0.5C18.2,0.5,18,0.7,18,1v8.2l-1.1-0.5L16,4.9
			c-0.1-0.3-0.3-0.4-0.6-0.4c-0.3,0.1-0.4,0.3-0.4,0.6l0.7,2.7l-1.9-1.3c-0.2-0.2-0.5-0.1-0.7,0.1C12.9,7,13,7.3,13.2,7.4L16.2,9.4z
			"/>
	</g>
	<path class="st1" d="M6,0C3.2,0,1,2.2,1,5c0,2.8,2.2,5,5,5c2.8,0,5-2.2,5-5C11,2.2,8.8,0,6,0z"/>
</g>
<g id="Outline_Icons">
	<g>
		<rect x="0.5" y="14.5" class="st2" width="23" height="9"/>
		<path class="st2" d="M2.9,14.5l5.1,4c0,0-4,5-3.8,5"/>
		<polyline class="st2" points="13.8,14.5 15.5,19 11.8,21.5 8,18.5 9.5,14.5 		"/>
		<polyline class="st2" points="15.5,19 19.5,17.2 23.5,23.5 		"/>
		<line class="st2" x1="0.5" y1="20" x2="5.6" y2="16.6"/>
		<polyline class="st2" points="17.5,23.5 19.5,17.2 22.1,14.5 		"/>
		<circle class="st3" cx="6" cy="5" r="4.5"/>
		<line class="st3" x1="18.5" y1="14.5" x2="18.5" y2="1"/>
		<polyline class="st3" points="18.5,7 20.5,6 21.5,2 		"/>
		<line class="st3" x1="20.5" y1="6" x2="23.5" y2="4"/>
		<polyline class="st3" points="18.5,10 16.5,9 15.5,5 		"/>
		<line class="st3" x1="16.5" y1="9" x2="13.5" y2="7"/>
	</g>
</g>
</svg>
