<?xml version="1.0" encoding="utf-8"?>
<!-- Generator: Adobe Illustrator 19.2.0, SVG Export Plug-In . SVG Version: 6.00 Build 0)  -->
<svg version="1.1" id="Layer_1" xmlns="http://www.w3.org/2000/svg" xmlns:xlink="http://www.w3.org/1999/xlink" x="0px" y="0px"
	 viewBox="0 0 24 24" style="enable-background:new 0 0 24 24;" xml:space="preserve">
<style type="text/css">
	.st0{display:none;}
	.st1{display:inline;}
	.st2{fill:none;stroke:#000000;stroke-linejoin:round;stroke-miterlimit:10;}
	.st3{fill:none;stroke:#000000;stroke-linecap:round;stroke-linejoin:round;stroke-miterlimit:10;}
</style>
<g id="Filled_Icon" class="st0">
	<path class="st1" d="M11.5,0C5.9,0,0,1.5,0,4v3c0,3.4,1.8,7,5.3,9.2l-2.2,7.2c-0.1,0.3,0.1,0.5,0.3,0.6c0.3,0.1,0.5-0.1,0.6-0.3
		l2.1-7c1.6,0.8,3,1.2,4.8,1.3v5.5c0,0.3,0.2,0.5,0.5,0.5c0.3,0,0.5-0.2,0.5-0.5V18c1.7-0.1,3.1-0.4,4.9-1.3l2.1,7
		c0.1,0.3,0.4,0.4,0.6,0.3c0.3-0.1,0.4-0.4,0.3-0.6l-2.2-7.2C21.1,14,23,10.5,23,7V4C23,1.5,17.2,0,11.5,0z M11.5,1
		C17.4,1,22,2.6,22,4c0,1.7-5.8,3-10.5,3C6.6,7,1,5.6,1,4C1,2.6,5.6,1,11.5,1z M1.5,10C1.2,9,1,8,1,7V5.7c0.5,0.4,1.2,0.7,2,1v1.8
		C3,9.2,2.4,10,1.5,10z M11.5,13c-0.8,0-1.5-0.7-1.5-1.5V8c0.5,0,1,0,1.5,0c0.5,0,1,0,1.5,0v3.5C13,12.3,12.3,13,11.5,13z M21.5,10
		C20.6,10,20,9.3,20,8.5V6.7c0.8-0.3,1.5-0.6,2-1V7C22,8,21.8,9,21.5,10z"/>
</g>
<g id="Outline_Icons">
	<g>
		<path class="st2" d="M22.5,4c0,1.9-5.2,3.5-11,3.5c-5.8,0-11-1.6-11-3.5c0-1.9,5.2-3.5,11-3.5C17.3,0.5,22.5,2.1,22.5,4z"/>
		<path class="st2" d="M0.5,4v3c0,5.8,5.2,10.5,11,10.5c5.8,0,11-4.7,11-10.5V4"/>
		<line class="st3" x1="11.5" y1="23.5" x2="11.5" y2="17.5"/>
		<line class="st3" x1="19.5" y1="23.5" x2="17.2" y2="16"/>
		<line class="st3" x1="3.6" y1="23.5" x2="5.9" y2="16"/>
		<path class="st3" d="M10.5,7.5h2v4c0,0.6-0.4,1-1,1c-0.6,0-1-0.4-1-1V7.5z"/>
		<line class="st3" x1="22.5" y1="5" x2="22.5" y2="7"/>
		<path class="st3" d="M22.1,9.3c-0.2,0.1-0.4,0.2-0.6,0.2c-0.6,0-1-0.4-1-1V6"/>
		<path class="st3" d="M0.9,9.3c0.2,0.1,0.4,0.2,0.6,0.2c0.6,0,1-0.4,1-1V6"/>
	</g>
</g>
</svg>
