<?xml version="1.0" encoding="utf-8"?>
<!-- Generator: Adobe Illustrator 19.2.0, SVG Export Plug-In . SVG Version: 6.00 Build 0)  -->
<svg version="1.1" id="Layer_1" xmlns="http://www.w3.org/2000/svg" xmlns:xlink="http://www.w3.org/1999/xlink" x="0px" y="0px"
	 viewBox="0 0 24 24" style="enable-background:new 0 0 24 24;" xml:space="preserve">
<style type="text/css">
	.st0{display:none;}
	.st1{display:inline;}
	.st2{fill:none;stroke:#000000;stroke-linejoin:round;stroke-miterlimit:10;}
	.st3{fill:none;stroke:#000000;stroke-linecap:round;stroke-linejoin:round;stroke-miterlimit:10;}
</style>
<g id="Filled_Icon" class="st0">
	<g class="st1">
		<g>
			<path d="M9,2.5c-0.8,0-1.5,0.4-2,1L1.2,0.6C1,0.4,0.7,0.5,0.6,0.8C0.4,1,0.5,1.3,0.8,1.4l5.8,2.9C6.5,4.6,6.5,4.8,6.5,5
				c0,1.4,1.1,2.5,2.5,2.5c1.4,0,2.5-1.1,2.5-2.5C11.5,3.6,10.4,2.5,9,2.5z"/>
			<path d="M23.4,0.8c-0.1-0.2-0.4-0.3-0.7-0.2L17,3.5c-0.5-0.6-1.2-1-2-1c-1.4,0-2.5,1.1-2.5,2.5c0,1.4,1.1,2.5,2.5,2.5
				c1.4,0,2.5-1.1,2.5-2.5c0-0.2,0-0.4-0.1-0.6l5.8-2.9C23.5,1.3,23.6,1,23.4,0.8z"/>
		</g>
		<g>
			<rect x="10" y="12" width="4" height="8"/>
			<rect x="6" y="12" width="1" height="8"/>
			<path d="M24,11V8.5C24,8.2,23.8,8,23.5,8h-23C0.2,8,0,8.2,0,8.5V11H24z"/>
			<rect x="2" y="12" width="3" height="8"/>
			<rect x="8" y="12" width="1" height="8"/>
			<rect x="15" y="12" width="1" height="8"/>
			<path d="M0,21v2.5C0,23.8,0.2,24,0.5,24h23c0.3,0,0.5-0.2,0.5-0.5V21H0z"/>
			<rect x="19" y="12" width="3" height="8"/>
			<rect x="17" y="12" width="1" height="8"/>
		</g>
	</g>
</g>
<g id="Outline_Icons">
	<g>
		<rect x="2.5" y="11.5" class="st2" width="19" height="9"/>
		<rect x="0.5" y="8.5" class="st2" width="23" height="3"/>
		<rect x="0.5" y="20.5" class="st2" width="23" height="3"/>
		<line class="st2" x1="5.5" y1="11.5" x2="5.5" y2="20.5"/>
		<line class="st2" x1="7.5" y1="11.5" x2="7.5" y2="20.5"/>
		<line class="st2" x1="16.5" y1="11.5" x2="16.5" y2="20.5"/>
		<line class="st2" x1="9.5" y1="11.5" x2="9.5" y2="20.5"/>
		<line class="st2" x1="14.5" y1="11.5" x2="14.5" y2="20.5"/>
		<line class="st2" x1="18.5" y1="11.5" x2="18.5" y2="20.5"/>
		<line class="st3" x1="1" y1="1" x2="7.2" y2="4.1"/>
		<circle class="st3" cx="9" cy="5" r="2"/>
		<line class="st3" x1="23" y1="1" x2="16.8" y2="4.1"/>
		<circle class="st3" cx="15" cy="5" r="2"/>
	</g>
</g>
</svg>
