<?xml version="1.0" encoding="utf-8"?>
<!-- Generator: Adobe Illustrator 19.2.0, SVG Export Plug-In . SVG Version: 6.00 Build 0)  -->
<svg version="1.1" id="Layer_1" xmlns="http://www.w3.org/2000/svg" xmlns:xlink="http://www.w3.org/1999/xlink" x="0px" y="0px"
	 viewBox="0 0 24 24" style="enable-background:new 0 0 24 24;" xml:space="preserve">
<style type="text/css">
	.st0{display:none;}
	.st1{display:inline;}
	.st2{fill:none;stroke:#000000;stroke-linejoin:round;stroke-miterlimit:10;}
</style>
<g id="Filled_Icons" class="st0">
	<g class="st1">
		<path d="M23.2,7.2L23.2,7.2L23.2,7.2c0.8-0.8,0.8-2.1,0-2.8l-3.5-3.5c-0.8-0.8-2.1-0.8-2.8,0L23.2,7.2z"/>
		<path d="M7,23.4l-6.4-6.4v0C0.2,17.4,0,17.9,0,18.5c0,0.5,0.2,1,0.6,1.4l3.5,3.5C4.5,23.8,5,24,5.5,24C6.1,24,6.6,23.8,7,23.4
			L7,23.4z"/>
		<path d="M1.3,13.5c-0.8,0.8-0.8,2,0,2.8l6.4,6.4c0.4,0.4,0.9,0.6,1.4,0.6c0.5,0,1-0.2,1.4-0.6L1.3,13.5z"/>
		<path d="M13.3,1.5l9.2,9.2c0.4-0.4,0.6-0.9,0.6-1.4c0-0.5-0.2-1-0.6-1.4l-6.4-6.4C15.4,0.7,14.1,0.7,13.3,1.5L13.3,1.5z"/>
		<rect x="9.4" y="10.1" transform="matrix(0.7069 -0.7073 0.7073 0.7069 -5.0758 11.9662)" width="5" height="4"/>
		<path d="M14,19.2L4.8,10C4.1,9.2,2.8,9.2,2,10c-0.8,0.8-0.8,2,0,2.8l9.2,9.2c0.4,0.4,0.9,0.6,1.4,0.6c0.5,0,1-0.2,1.4-0.6
			c0.4-0.4,0.6-0.9,0.6-1.4C14.6,20.1,14.4,19.6,14,19.2z"/>
		<path d="M21.8,11.4l-9.2-9.2c-0.8-0.8-2.1-0.8-2.8,0C9,3,9,4.3,9.8,5l9.2,9.2c0.4,0.4,0.9,0.6,1.4,0.6c0.5,0,1-0.2,1.4-0.6
			c0.4-0.4,0.6-0.9,0.6-1.4C22.4,12.3,22.2,11.8,21.8,11.4z"/>
	</g>
</g>
<g id="Outline_Icons">
	<g>
		<g>
			<line class="st2" x1="13.7" y1="8.2" x2="8" y2="13.9"/>
			<line class="st2" x1="15.8" y1="10.3" x2="10.1" y2="16"/>
		</g>
		<path class="st2" d="M1.6,16c-0.6-0.6-0.6-1.5,0-2.1c0.6-0.6,1.5-0.6,2.1,0l6.4,6.4c0.6,0.6,0.6,1.5,0,2.1c-0.6,0.6-1.5,0.6-2.1,0
			L1.6,16z"/>
		<path class="st2" d="M2.4,12.5c-0.6-0.6-0.6-1.5,0-2.1c0.6-0.6,1.5-0.6,2.1,0l9.2,9.2c0.6,0.6,0.6,1.5,0,2.1
			c-0.6,0.6-1.5,0.6-2.1,0L2.4,12.5z"/>
		<path class="st2" d="M10.1,4.7c-0.6-0.6-0.6-1.5,0-2.1c0.6-0.6,1.5-0.6,2.1,0l9.2,9.2c0.6,0.6,0.6,1.5,0,2.1
			c-0.6,0.6-1.5,0.6-2.1,0L10.1,4.7z"/>
		<path class="st2" d="M0.9,19.5c-0.6-0.6-0.6-1.5,0-2.1c0.6-0.6,1.5-0.6,2.1,0l3.5,3.5c0.6,0.6,0.6,1.5,0,2.1
			c-0.6,0.6-1.5,0.6-2.1,0L0.9,19.5z"/>
		<path class="st2" d="M13.7,4c-0.6-0.6-0.6-1.5,0-2.1c0.6-0.6,1.5-0.6,2.1,0l6.4,6.4c0.6,0.6,0.6,1.5,0,2.1c-0.6,0.6-1.5,0.6-2.1,0
			L13.7,4z"/>
		<path class="st2" d="M17.2,3.3c-0.6-0.6-0.6-1.5,0-2.1c0.6-0.6,1.5-0.6,2.1,0l3.5,3.5c0.6,0.6,0.6,1.5,0,2.1
			c-0.6,0.6-1.5,0.6-2.1,0L17.2,3.3z"/>
	</g>
</g>
</svg>
