<?xml version="1.0" encoding="utf-8"?>
<!-- Generator: Adobe Illustrator 19.2.0, SVG Export Plug-In . SVG Version: 6.00 Build 0)  -->
<svg version="1.1" id="Layer_1" xmlns="http://www.w3.org/2000/svg" xmlns:xlink="http://www.w3.org/1999/xlink" x="0px" y="0px"
	 viewBox="0 0 24 24" style="enable-background:new 0 0 24 24;" xml:space="preserve">
<style type="text/css">
	.st0{display:none;}
	.st1{display:inline;}
	.st2{fill:none;stroke:#000000;stroke-linecap:round;stroke-linejoin:round;stroke-miterlimit:10;}
</style>
<g id="Filled_Icons" class="st0">
	<g class="st1">
		<path d="M3.5,13h-1C1.7,13,1,13.7,1,14.5v2H0.5C0.2,16.5,0,16.7,0,17c0,0.3,0.2,0.5,0.5,0.5H1v2C1,20.3,1.7,21,2.5,21h1
			C3.8,21,4,20.8,4,20.5v-7C4,13.2,3.8,13,3.5,13z"/>
		<path d="M17.5,10h-2c-0.8,0-1.5,0.7-1.5,1.5V17h-4v-5.5c0-0.8-0.7-1.5-1.5-1.5h-2C5.7,10,5,10.7,5,11.5v11C5,23.3,5.7,24,6.5,24h2
			c0.8,0,1.5-0.7,1.5-1.5V18h4v4.5c0,0.8,0.7,1.5,1.5,1.5h2c0.8,0,1.5-0.7,1.5-1.5v-11C19,10.7,18.3,10,17.5,10z"/>
		<path d="M23.5,16.5H23v-2c0-0.8-0.7-1.5-1.5-1.5h-1c-0.3,0-0.5,0.2-0.5,0.5v7c0,0.3,0.2,0.5,0.5,0.5h1c0.8,0,1.5-0.7,1.5-1.5v-2
			h0.5c0.3,0,0.5-0.2,0.5-0.5C24,16.7,23.8,16.5,23.5,16.5z"/>
	</g>
</g>
<g id="Outline_Icons">
	<g>
		<line class="st2" x1="9.5" y1="12.5" x2="14.5" y2="12.5"/>
		<path class="st2" d="M4.5,17.5c0,0.6,0.4,1,1,1h3c0.6,0,1-0.4,1-1v-11c0-0.6-0.4-1-1-1h-3c-0.6,0-1,0.4-1,1V17.5z"/>
		<path class="st2" d="M1.5,14.5c0,0.6,0.4,1,1,1h2v-7h-2c-0.6,0-1,0.4-1,1V14.5z"/>
		<line class="st2" x1="1.5" y1="12" x2="0.5" y2="12"/>
		<path class="st2" d="M19.5,17.5c0,0.6-0.4,1-1,1h-3c-0.6,0-1-0.4-1-1v-11c0-0.6,0.4-1,1-1h3c0.6,0,1,0.4,1,1V17.5z"/>
		<path class="st2" d="M22.5,14.5c0,0.6-0.4,1-1,1h-2v-7h2c0.6,0,1,0.4,1,1V14.5z"/>
		<line class="st2" x1="22.5" y1="12" x2="23.5" y2="12"/>
	</g>
</g>
</svg>
