<?xml version="1.0" encoding="utf-8"?>
<!-- Generator: Adobe Illustrator 19.2.0, SVG Export Plug-In . SVG Version: 6.00 Build 0)  -->
<svg version="1.1" id="Layer_1" xmlns="http://www.w3.org/2000/svg" xmlns:xlink="http://www.w3.org/1999/xlink" x="0px" y="0px"
	 viewBox="0 0 24 24" style="enable-background:new 0 0 24 24;" xml:space="preserve">
<style type="text/css">
	.st0{display:none;}
	.st1{display:inline;}
	.st2{fill:none;stroke:#000000;stroke-linecap:round;stroke-linejoin:round;stroke-miterlimit:10;}
</style>
<g id="Filled_Icon" class="st0">
	<path class="st1" d="M23.5,11H20V9h3c0,0,0,0,0,0c0.3,0,0.5-0.2,0.5-0.5c0-0.1,0-0.2-0.1-0.3L20,0.3C19.8,0,19.2,0,19,0.3l-3.5,8
		c-0.1,0.2-0.1,0.3,0,0.5C15.7,8.9,15.8,9,16,9h3v2h-5c-0.2,0-0.3,0.1-0.4,0.2l-1.7,2.7c-0.1,0.2-0.1,0.5,0.1,0.7l3.1,2.1l-2.4,2
		c-0.1,0.1-0.2,0.2-0.2,0.4c0,0.2,0.1,0.3,0.2,0.4l0.8,0.6l-2.1,2l0.3-2c0-0.2-0.1-0.5-0.3-0.5L10,18.9l2.2-1.9
		c0.1-0.1,0.2-0.3,0.2-0.4c0-0.2-0.1-0.3-0.2-0.4L9,14l1.5-2.3c0.1-0.2,0.1-0.4,0-0.5C10.4,11.1,10.2,11,10,11H5V9h3c0,0,0,0,0,0
		c0.3,0,0.5-0.2,0.5-0.5c0-0.1,0-0.2-0.1-0.3L5,0.3C4.8,0,4.2,0,4,0.3l-3.5,8c-0.1,0.2-0.1,0.3,0,0.5C0.7,8.9,0.8,9,1,9h3v2H0.5
		C0.2,11,0,11.2,0,11.5v12C0,23.8,0.2,24,0.5,24h10.3h12.7c0.3,0,0.5-0.2,0.5-0.5v-12C24,11.2,23.8,11,23.5,11z"/>
</g>
<g id="Outline_Icons">
	<g>
		<polygon class="st2" points="9.1,19 12,16.6 8.3,14.2 10,11.5 0.5,11.5 0.5,23.5 10.8,23.5 11.4,20 		"/>
		<polygon class="st2" points="14,11.5 12.3,14.2 16,16.6 13.1,19 14.4,20 10.8,23.5 23.5,23.5 23.5,11.5 		"/>
		<line class="st2" x1="4.5" y1="11.5" x2="4.5" y2="8.5"/>
		<polygon class="st2" points="8,8.5 1,8.5 4.5,0.5 		"/>
		<line class="st2" x1="19.5" y1="11.5" x2="19.5" y2="8.5"/>
		<polygon class="st2" points="23,8.5 16,8.5 19.5,0.5 		"/>
	</g>
</g>
</svg>
