<?xml version="1.0" encoding="utf-8"?>
<!-- Generator: Adobe Illustrator 19.2.0, SVG Export Plug-In . SVG Version: 6.00 Build 0)  -->
<svg version="1.1" id="Layer_1" xmlns="http://www.w3.org/2000/svg" xmlns:xlink="http://www.w3.org/1999/xlink" x="0px" y="0px"
	 viewBox="0 0 24 24" style="enable-background:new 0 0 24 24;" xml:space="preserve">
<style type="text/css">
	.st0{display:none;}
	.st1{display:inline;}
	.st2{fill:none;stroke:#000000;stroke-linejoin:round;stroke-miterlimit:10;}
	.st3{fill:none;stroke:#000000;stroke-linecap:round;stroke-linejoin:round;stroke-miterlimit:10;}
</style>
<g id="Filled_Icons" class="st0">
	<path class="st1" d="M18.5,13H16c0-0.5-0.1-1.1-0.3-1.6l2.3-1c0.3-0.1,0.4-0.4,0.3-0.7c-0.1-0.3-0.4-0.4-0.7-0.3l-2.3,1
		c-0.2-0.4-0.5-0.9-0.8-1.2l1.8-1.8c0.2-0.2,0.2-0.5,0-0.7c-0.2-0.2-0.5-0.2-0.7,0l-1.8,1.8c-0.4-0.3-0.9-0.6-1.3-0.9l0.9-2.3
		c0.1-0.3,0-0.5-0.3-0.6c-0.3-0.1-0.5,0-0.7,0.3l-0.9,2.3C11,7.2,10.5,7.1,10,7V4.5C10,4.3,9.8,4,9.5,4C9.2,4,9,4.3,9,4.5V7
		c-0.5,0-1,0.1-1.5,0.3L6.6,5C6.5,4.7,6.2,4.6,6,4.7C5.7,4.8,5.6,5.1,5.7,5.4l0.9,2.3C6.1,7.9,5.7,8.2,5.3,8.6L3.5,6.8
		C3.3,6.6,3,6.6,2.8,6.8C2.6,7,2.6,7.3,2.8,7.5l1.8,1.8C4.2,9.7,4,10.1,3.7,10.5l-2.3-1c-0.3-0.1-0.5,0-0.7,0.3
		c-0.1,0.3,0,0.5,0.3,0.7l2.3,1c-0.2,0.5-0.3,1-0.3,1.6H0.5C0.3,13,0,13.2,0,13.5C0,13.8,0.3,14,0.5,14H3c0,0.5,0.1,1.1,0.3,1.6
		l-2.3,1c-0.3,0.1-0.4,0.4-0.3,0.7c0.1,0.2,0.3,0.3,0.5,0.3c0.1,0,0.1,0,0.2,0l2.3-1c0.2,0.4,0.5,0.9,0.8,1.2l-1.8,1.8
		c-0.2,0.2-0.2,0.5,0,0.7c0.1,0.1,0.2,0.1,0.4,0.1c0.1,0,0.3,0,0.4-0.1l1.8-1.8c0.4,0.3,0.9,0.6,1.3,0.9l-0.9,2.3
		c-0.1,0.3,0,0.5,0.3,0.7c0.1,0,0.1,0,0.2,0c0.2,0,0.4-0.1,0.5-0.3l0.9-2.3C8,19.8,8.5,19.9,9,20v2.5C9,22.8,9.2,23,9.5,23
		c0.3,0,0.5-0.2,0.5-0.5V20c0.5,0,1-0.1,1.5-0.3l0.9,2.3c0.1,0.2,0.3,0.3,0.5,0.3c0.1,0,0.1,0,0.2,0c0.3-0.1,0.4-0.4,0.3-0.7
		l-0.9-2.3c0.5-0.2,0.9-0.5,1.3-0.9l1.8,1.8c0.1,0.1,0.2,0.1,0.4,0.1c0.1,0,0.3,0,0.4-0.1c0.2-0.2,0.2-0.5,0-0.7l-1.8-1.8
		c0.3-0.4,0.6-0.8,0.8-1.2l2.3,1c0.1,0,0.1,0,0.2,0c0.2,0,0.4-0.1,0.5-0.3c0.1-0.3,0-0.5-0.3-0.7l-2.3-1c0.2-0.5,0.3-1,0.3-1.6h2.5
		c0.3,0,0.5-0.2,0.5-0.5C19,13.2,18.7,13,18.5,13z M8,17c-1.1,0-2-0.9-2-2c0-1.1,0.9-2,2-2s2,0.9,2,2C10,16.1,9.1,17,8,17z M10,11
		c0-0.6,0.4-1,1-1c0.6,0,1,0.4,1,1c0,0.6-0.4,1-1,1C10.4,12,10,11.6,10,11z M12.5,15c-0.3,0-0.5-0.2-0.5-0.5c0-0.3,0.2-0.5,0.5-0.5
		c0.3,0,0.5,0.2,0.5,0.5C13,14.8,12.8,15,12.5,15z"/>
	<path class="st1" d="M23.5,3h-0.6c-0.1-0.3-0.2-0.6-0.4-0.9L23,1.7c0.2-0.2,0.2-0.5,0-0.7c-0.2-0.2-0.5-0.2-0.7,0l-0.4,0.4
		c-0.3-0.2-0.6-0.3-0.9-0.4V0.5C21,0.2,20.8,0,20.5,0C20.2,0,20,0.2,20,0.5v0.6c-0.3,0.1-0.6,0.2-0.9,0.4L18.7,1
		c-0.2-0.2-0.5-0.2-0.7,0c-0.2,0.2-0.2,0.5,0,0.7l0.4,0.4c-0.2,0.3-0.3,0.6-0.4,0.9h-0.6C17.2,3,17,3.2,17,3.5C17,3.8,17.2,4,17.5,4
		h0.6c0.1,0.3,0.2,0.6,0.4,0.9L18,5.3c-0.2,0.2-0.2,0.5,0,0.7c0.1,0.1,0.2,0.1,0.4,0.1c0.1,0,0.3,0,0.4-0.1l0.4-0.4
		C19.4,5.8,19.7,5.9,20,6v0.6C20,6.8,20.2,7,20.5,7C20.8,7,21,6.8,21,6.5V6c0.3-0.1,0.6-0.2,0.9-0.4L22.3,6c0.1,0.1,0.2,0.1,0.4,0.1
		c0.1,0,0.3,0,0.4-0.1c0.2-0.2,0.2-0.5,0-0.7l-0.4-0.4C22.8,4.6,22.9,4.3,23,4h0.5C23.8,4,24,3.8,24,3.5C24,3.2,23.8,3,23.5,3z"/>
</g>
<g id="Outline_Icons">
	<g>
		<circle class="st2" cx="9.5" cy="13.5" r="6"/>
		<line class="st3" x1="9.5" y1="7.5" x2="9.5" y2="4.5"/>
		<line class="st3" x1="11.7" y1="7.9" x2="12.9" y2="5.2"/>
		<line class="st3" x1="15" y1="11.2" x2="17.8" y2="10"/>
		<line class="st3" x1="13.7" y1="9.3" x2="15.8" y2="7.2"/>
		<line class="st3" x1="7.3" y1="7.9" x2="6.1" y2="5.2"/>
		<line class="st3" x1="4" y1="11.2" x2="1.2" y2="10"/>
		<line class="st3" x1="11.7" y1="19.1" x2="12.9" y2="21.8"/>
		<line class="st3" x1="15" y1="15.8" x2="17.8" y2="17"/>
		<line class="st3" x1="7.3" y1="19.1" x2="6.1" y2="21.8"/>
		<line class="st3" x1="4" y1="15.8" x2="1.2" y2="17"/>
		<line class="st3" x1="5.3" y1="9.3" x2="3.2" y2="7.2"/>
		<line class="st3" x1="15.5" y1="13.5" x2="18.5" y2="13.5"/>
		<line class="st3" x1="13.7" y1="17.7" x2="15.8" y2="19.8"/>
		<line class="st3" x1="9.5" y1="19.5" x2="9.5" y2="22.5"/>
		<line class="st3" x1="5.3" y1="17.7" x2="3.2" y2="19.8"/>
		<line class="st3" x1="3.5" y1="13.5" x2="0.5" y2="13.5"/>
		<circle class="st3" cx="8" cy="15" r="1.5"/>
		<circle class="st3" cx="11" cy="11" r="0.5"/>
		<g>
			<path d="M12.5,14c-0.3,0-0.5,0.2-0.5,0.5c0,0.3,0.2,0.5,0.5,0.5c0.3,0,0.5-0.2,0.5-0.5C13,14.2,12.8,14,12.5,14L12.5,14z"/>
		</g>
		<circle class="st3" cx="20.5" cy="3.5" r="2"/>
		<line class="st3" x1="20.5" y1="1.5" x2="20.5" y2="0.5"/>
		<line class="st3" x1="21.9" y1="2.1" x2="22.6" y2="1.4"/>
		<line class="st3" x1="22.5" y1="3.5" x2="23.5" y2="3.5"/>
		<line class="st3" x1="21.9" y1="4.9" x2="22.6" y2="5.6"/>
		<line class="st3" x1="20.5" y1="5.5" x2="20.5" y2="6.5"/>
		<line class="st3" x1="19.1" y1="4.9" x2="18.4" y2="5.6"/>
		<line class="st3" x1="18.5" y1="3.5" x2="17.5" y2="3.5"/>
		<line class="st3" x1="19.1" y1="2.1" x2="18.4" y2="1.4"/>
	</g>
</g>
</svg>
