<?xml version="1.0" encoding="utf-8"?>
<!-- Generator: Adobe Illustrator 19.2.0, SVG Export Plug-In . SVG Version: 6.00 Build 0)  -->
<svg version="1.1" id="Layer_1" xmlns="http://www.w3.org/2000/svg" xmlns:xlink="http://www.w3.org/1999/xlink" x="0px" y="0px"
	 viewBox="0 0 24 24" style="enable-background:new 0 0 24 24;" xml:space="preserve">
<style type="text/css">
	.st0{display:none;}
	.st1{display:inline;}
	.st2{fill:none;stroke:#000000;stroke-linecap:round;stroke-linejoin:round;stroke-miterlimit:10;}
	.st3{fill:none;stroke:#000000;stroke-linejoin:round;stroke-miterlimit:10;}
</style>
<g id="Filled_Icons" class="st0">
	<g class="st1">
		<path d="M23.9,12.2c0-0.1-0.1-0.3-0.2-0.4c-0.1-0.1-0.3-0.1-0.4,0c-1.4,0.6-2.6,0.5-3.7,0.5c-1.3,0-2.6-0.1-3.9,0.7
			c-1.1,0.7-1.8,1.6-1.8,2.5c0,0.6,0.3,1.2,0.8,1.8c-1.9,2-3.3,4-3.6,4.4c-0.5,0.7-0.3,1.6,0.4,2.1c0.7,0.5,1.6,0.3,2.1-0.4
			c0.6-1,1.6-2.2,2.6-3.3c0.5,1.1,1.3,1.4,2,1.4c0.6,0,1.3-0.2,2.1-0.7C22.3,19.5,24.4,15.1,23.9,12.2z M20.8,15.5
			c-3.6,0.8-7.9,7.2-8,7.3c-0.2,0.2-0.5,0.3-0.7,0.1c-0.2-0.2-0.3-0.5-0.1-0.7c0.2-0.3,4.6-6.8,8.6-7.7c0.3-0.1,0.5,0.1,0.6,0.4
			C21.2,15.1,21.1,15.4,20.8,15.5z"/>
		<path d="M19.9,0.2C19.8,0.1,19.6,0,19.5,0h0l-6.3,0c-0.1,0-0.3,0.1-0.4,0.1L0.6,12.4c-0.2,0.2-0.2,0.5,0,0.7l6.2,6.2
			c0.1,0.1,0.2,0.1,0.4,0.1c0,0,0,0,0,0c0.1,0,0.3-0.1,0.4-0.1L19.9,6.9C19.9,6.8,20,6.6,20,6.5v-6C20,0.4,19.9,0.2,19.9,0.2z M16,6
			c-1.1,0-2-0.9-2-2c0-1.1,0.9-2,2-2c1.1,0,2,0.9,2,2C18,5.1,17.1,6,16,6z"/>
	</g>
</g>
<g id="Outline_Icons">
	<g>
		<path class="st2" d="M15.8,14.1c-1.7,1-2.5,2.7,0.4,4.5c0.3,3.3,1.9,3.5,3.8,2.4c1.9-1.2,3.8-5.3,3.4-7.9
			C20.6,14.2,18,12.8,15.8,14.1z"/>
		<path class="st2" d="M12.4,23.2c0,0,4.5-6.7,8.3-7.5"/>
		<g>
			<polygon class="st3" points="7.2,19 19.5,6.5 19.5,0.5 13.2,0.5 1,12.8 			"/>
			<circle class="st3" cx="16" cy="4" r="1.5"/>
		</g>
	</g>
</g>
</svg>
