<?xml version="1.0" encoding="utf-8"?>
<!-- Generator: Adobe Illustrator 19.2.0, SVG Export Plug-In . SVG Version: 6.00 Build 0)  -->
<svg version="1.1" id="Layer_1" xmlns="http://www.w3.org/2000/svg" xmlns:xlink="http://www.w3.org/1999/xlink" x="0px" y="0px"
	 viewBox="0 0 24 24" style="enable-background:new 0 0 24 24;" xml:space="preserve">
<style type="text/css">
	.st0{display:none;}
	.st1{display:inline;}
	.st2{fill:none;stroke:#000000;stroke-linecap:round;stroke-linejoin:round;stroke-miterlimit:10;}
</style>
<g id="Filled_Icons" class="st0">
	<g class="st1">
		<path d="M19.8,2.7c-0.1-0.1-0.2-0.2-0.4-0.2c-1.4-0.1-2.5-0.7-3.5-1.2c-1.2-0.6-2.4-1.2-3.8-1.1c-1.3,0.1-2.3,0.6-2.7,1.4
			c-0.3,0.6-0.3,1.2,0,2C6.8,4.5,4.7,5.7,4.3,5.9c-0.7,0.4-1,1.3-0.6,2C4,8.4,4.5,8.7,5,8.7c0.3,0,0.5-0.1,0.7-0.2
			c1-0.6,2.4-1.2,3.8-1.8c0,0.6,0.1,1,0.4,1.4c0.6,0.9,1.9,1.1,3,1c2.3-0.2,6.1-3.1,7-6C19.9,3,19.9,2.8,19.8,2.7z M16.2,4.2
			c-0.1,0.3-0.3,0.4-0.6,0.4c-3.6-0.9-10.3,3-10.4,3C5.2,7.7,5.1,7.7,5,7.7c-0.2,0-0.3-0.1-0.4-0.3C4.4,7.2,4.5,6.9,4.8,6.8
			c0.3-0.2,7.2-4.1,11.1-3.1C16.1,3.7,16.3,4,16.2,4.2z"/>
		<g>
			<path d="M19.8,14l-1.9-3.7c-0.1-0.2-0.3-0.3-0.4-0.3h-11c-0.2,0-0.4,0.1-0.4,0.3L4.2,14H19.8z"/>
			<path d="M18.5,19.5c-0.3,0-0.5-0.2-0.5-0.5v-1.5c0-0.3,0.2-0.5,0.5-0.5h4.2l-2-2H3.3l-2,2h4.2C5.8,17,6,17.2,6,17.5V19
				c0,0.3-0.2,0.5-0.5,0.5H1v2C1,21.8,1.2,22,1.5,22H2v1.5C2,23.8,2.2,24,2.5,24h3C5.8,24,6,23.8,6,23.5V22h1.5v-1.5
				C7.5,19.7,8.2,19,9,19h6c0.8,0,1.5,0.7,1.5,1.5V22H18v1.5c0,0.3,0.2,0.5,0.5,0.5h3c0.3,0,0.5-0.2,0.5-0.5V22h0.5
				c0.3,0,0.5-0.2,0.5-0.5v-2H18.5z M12.5,17.5c0,0.3-0.2,0.5-0.5,0.5c-0.3,0-0.5-0.2-0.5-0.5v-1c0-0.3,0.2-0.5,0.5-0.5
				c0.3,0,0.5,0.2,0.5,0.5V17.5z"/>
		</g>
		<path d="M15,20H9c-0.3,0-0.5,0.2-0.5,0.5v2C8.5,22.8,8.7,23,9,23h6c0.3,0,0.5-0.2,0.5-0.5v-2C15.5,20.2,15.3,20,15,20z"/>
	</g>
</g>
<g id="Outline_Icons">
	<g>
		<rect x="2.5" y="21.5" class="st2" width="3" height="2"/>
		<rect x="18.5" y="21.5" class="st2" width="3" height="2"/>
		<rect x="8.5" y="19.5" class="st2" width="7" height="3"/>
		<polyline class="st2" points="15.5,21.5 22.5,21.5 22.5,17.5 19.5,14.5 4.5,14.5 1.5,17.5 1.5,21.5 8.5,21.5 		"/>
		<polygon class="st2" points="17.5,10.5 6.5,10.5 4.5,14.5 19.5,14.5 		"/>
		<rect x="1.5" y="17.5" class="st2" width="4" height="2"/>
		<rect x="18.5" y="17.5" class="st2" width="4" height="2"/>
		<line class="st2" x1="12" y1="17.5" x2="12" y2="16.5"/>
		<path class="st2" d="M12.2,0.6c-2,0.2-3.4,1.3-1.6,4.2c-1.2,3.1,0.2,4,2.4,3.8c2.2-0.2,5.7-3,6.5-5.6C16.4,2.7,14.7,0.4,12.2,0.6z
			"/>
		<path class="st2" d="M5,7.2c0,0,7-4,10.8-3.1"/>
	</g>
</g>
</svg>
