<?xml version="1.0" encoding="utf-8"?>
<!-- Generator: Adobe Illustrator 19.2.0, SVG Export Plug-In . SVG Version: 6.00 Build 0)  -->
<svg version="1.1" id="Layer_1" xmlns="http://www.w3.org/2000/svg" xmlns:xlink="http://www.w3.org/1999/xlink" x="0px" y="0px"
	 viewBox="0 0 24 24" style="enable-background:new 0 0 24 24;" xml:space="preserve">
<style type="text/css">
	.st0{display:none;}
	.st1{display:inline;}
	.st2{fill:none;stroke:#000000;stroke-linecap:round;stroke-linejoin:round;stroke-miterlimit:10;}
</style>
<g id="Filled_Icons" class="st0">
	<path class="st1" d="M17,2.5C17,2.2,16.8,2,16.5,2h-15C1.2,2,1,2.2,1,2.5V10h16V2.5z M15,8c0,0.3-0.2,0.5-0.5,0.5h-11
		C3.2,8.5,3,8.3,3,8V4c0-0.3,0.2-0.5,0.5-0.5h11C14.8,3.5,15,3.7,15,4V8z"/>
	<g class="st1">
		<path d="M9.2,14.2c-0.7,0.2-1.3,0.3-2,0.8c-0.6,0.4-0.9,0.9-0.9,1.4c0,0.4,0.3,0.8,0.6,1.1c0.6-0.7,1.4-1.4,2.3-1.8
			c0.2-0.1,0.5,0,0.7,0.2c0.1,0.2,0,0.5-0.2,0.7c-0.8,0.4-1.5,1-2.1,1.7c0.4,0.7,0.8,1.1,1.3,1.1l0,0c0.5,0,1.1-0.3,1.7-0.9
			c0.8-0.9,1.4-3.4,1-5C10.7,13.8,9.9,14,9.2,14.2z"/>
		<path d="M22.8,4.9c0.2-0.2,0.2-0.5,0-0.7c-0.2-0.2-0.5-0.2-0.7,0C21,5.2,19,7.1,19,8v1.5v3v3c0,0.8-0.7,1.5-1.5,1.5H17v-6H1v12.5
			C1,23.8,1.2,24,1.5,24h15c0.3,0,0.5-0.2,0.5-0.5V18h0.5c1.4,0,2.5-1.1,2.5-2.5v-2.7l1.7-0.9c0.2-0.1,0.3-0.3,0.3-0.4v-2
			C22,9.2,21.8,9,21.5,9H20l0-1C20.1,7.6,21.5,6.1,22.8,4.9z M11.3,19c-0.7,0.8-1.6,1.2-2.4,1.2l0,0c-0.6,0-1.4-0.2-2-1.2
			c-1,1.4-1.5,2.7-1.5,2.7c-0.1,0.2-0.4,0.4-0.6,0.3c-0.3-0.1-0.4-0.4-0.3-0.6c0-0.1,0.6-1.7,1.8-3.2c-0.8-0.7-1-1.4-1-1.9
			c0-0.8,0.5-1.6,1.4-2.2c0.8-0.5,1.5-0.7,2.3-0.9c0.9-0.2,1.7-0.4,2.5-1.1c0.1-0.1,0.3-0.1,0.4-0.1c0.1,0,0.3,0.1,0.3,0.3
			C13.2,14.3,12.5,17.8,11.3,19z"/>
	</g>
</g>
<g id="Outline_Icons">
	<g>
		<rect x="1.5" y="2.5" class="st2" width="15" height="21"/>
		<polygon class="st2" points="21.5,11.5 19.5,12.5 19.5,9.5 21.5,9.5 		"/>
		<path class="st2" d="M19.5,9.5V8c0-0.8,3-3.5,3-3.5"/>
		<path class="st2" d="M19.5,12.5v3c0,1.1-0.9,2-2,2h-1"/>
		<line class="st2" x1="1.5" y1="10.5" x2="16.5" y2="10.5"/>
		<rect x="3.5" y="4.5" class="st2" width="11" height="4"/>
		<path class="st2" d="M7,14.5c-1.2,0.8-1.8,2.3,0,3.5c1,2.5,2.9,1.8,4,0.7c1.1-1.2,1.7-4.4,0.9-6.2C10.1,13.8,8.5,13.5,7,14.5z"/>
		<path class="st2" d="M9.5,16c-3,1.5-4.5,5.5-4.5,5.5"/>
	</g>
</g>
</svg>
