<?xml version="1.0" encoding="utf-8"?>
<!-- Generator: Adobe Illustrator 19.2.0, SVG Export Plug-In . SVG Version: 6.00 Build 0)  -->
<svg version="1.1" id="Layer_1" xmlns="http://www.w3.org/2000/svg" xmlns:xlink="http://www.w3.org/1999/xlink" x="0px" y="0px"
	 viewBox="0 0 24 24" style="enable-background:new 0 0 24 24;" xml:space="preserve">
<style type="text/css">
	.st0{display:none;}
	.st1{display:inline;}
	.st2{fill:none;stroke:#000000;stroke-linecap:round;stroke-linejoin:round;stroke-miterlimit:10;}
	.st3{fill:none;stroke:#000000;stroke-linejoin:round;stroke-miterlimit:10;}
</style>
<g id="Filled_Icons" class="st0">
	<g class="st1">
		<path d="M23.8,10.9c-0.2-0.1-0.3-0.1-0.5,0l-5.2,3v-2.5c0-0.2-0.1-0.3-0.2-0.4c-0.2-0.1-0.3-0.1-0.5,0l-5.3,3v-2.6
			c0-0.2-0.1-0.4-0.3-0.4c-0.2-0.1-0.4-0.1-0.5,0l-4.6,3L4.8,5.4C4.8,5.2,4.6,5,4.3,5H1.9C1.7,5,1.5,5.2,1.4,5.4L0,15.7v7.8
			C0,23.8,0.2,24,0.5,24h23c0.3,0,0.5-0.2,0.5-0.5V11.3C24,11.1,23.9,11,23.8,10.9z M9,21H7.5C7.2,21,7,20.8,7,20.5
			C7,20.2,7.2,20,7.5,20H9c0.3,0,0.5,0.2,0.5,0.5C9.5,20.8,9.3,21,9,21z M9,19H7.5C7.2,19,7,18.8,7,18.5C7,18.2,7.2,18,7.5,18H9
			c0.3,0,0.5,0.2,0.5,0.5C9.5,18.8,9.3,19,9,19z M15,21h-1.5c-0.3,0-0.5-0.2-0.5-0.5c0-0.3,0.2-0.5,0.5-0.5H15
			c0.3,0,0.5,0.2,0.5,0.5C15.5,20.8,15.3,21,15,21z M15,19h-1.5c-0.3,0-0.5-0.2-0.5-0.5c0-0.3,0.2-0.5,0.5-0.5H15
			c0.3,0,0.5,0.2,0.5,0.5C15.5,18.8,15.3,19,15,19z M21,21h-1.5c-0.3,0-0.5-0.2-0.5-0.5c0-0.3,0.2-0.5,0.5-0.5H21
			c0.3,0,0.5,0.2,0.5,0.5C21.5,20.8,21.3,21,21,21z M21,19h-1.5c-0.3,0-0.5-0.2-0.5-0.5c0-0.3,0.2-0.5,0.5-0.5H21
			c0.3,0,0.5,0.2,0.5,0.5C21.5,18.8,21.3,19,21,19z"/>
		<path d="M22.1,2.7c-0.1-0.1-0.2-0.2-0.4-0.2c-1.4-0.1-2.5-0.7-3.5-1.2c-1.2-0.6-2.4-1.2-3.8-1.1c-1.3,0.1-2.3,0.6-2.7,1.4
			c-0.3,0.6-0.3,1.2,0,2C9.1,4.5,6.9,5.7,6.5,5.9c-0.7,0.4-1,1.3-0.6,2c0.3,0.5,0.8,0.8,1.3,0.8c0.3,0,0.5-0.1,0.7-0.2
			c1-0.6,2.4-1.2,3.8-1.8c0,0.6,0.1,1,0.4,1.4c0.6,0.9,1.9,1.1,3,1c2.3-0.2,6.1-3.1,7-6C22.2,3,22.1,2.8,22.1,2.7z M18.5,4.2
			c-0.1,0.3-0.3,0.4-0.6,0.4c-3.6-0.9-10.3,3-10.4,3c-0.1,0-0.2,0.1-0.2,0.1c-0.2,0-0.3-0.1-0.4-0.3C6.7,7.2,6.8,6.9,7,6.8
			c0.3-0.2,7.2-4.1,11.1-3.1C18.4,3.7,18.6,4,18.5,4.2z"/>
	</g>
</g>
<g id="Outline_Icons">
	<g>
		<path class="st2" d="M14.4,0.6c-2,0.2-3.4,1.3-1.6,4.2c-1.2,3.1,0.2,4,2.4,3.8c2.2-0.2,5.7-3,6.5-5.6C18.6,2.7,16.9,0.4,14.4,0.6z
			"/>
		<path class="st2" d="M7.2,7.2c0,0,7-4,10.8-3.1"/>
		<line class="st2" x1="7.5" y1="18.5" x2="9" y2="18.5"/>
		<line class="st2" x1="7.5" y1="20.5" x2="9" y2="20.5"/>
		<line class="st2" x1="13.5" y1="18.5" x2="15" y2="18.5"/>
		<line class="st2" x1="13.5" y1="20.5" x2="15" y2="20.5"/>
		<line class="st2" x1="19.5" y1="18.5" x2="21" y2="18.5"/>
		<line class="st2" x1="19.5" y1="20.5" x2="21" y2="20.5"/>
		<polygon class="st3" points="0.5,23.5 0.5,15.7 1.9,5.5 4.3,5.5 6.2,14.7 11.5,11.3 11.5,14.7 17.5,11.3 17.5,14.8 23.5,11.3 
			23.5,23.5 13,23.5 		"/>
	</g>
</g>
</svg>
