<?xml version="1.0" encoding="utf-8"?>
<!-- Generator: Adobe Illustrator 19.2.0, SVG Export Plug-In . SVG Version: 6.00 Build 0)  -->
<svg version="1.1" id="Layer_1" xmlns="http://www.w3.org/2000/svg" xmlns:xlink="http://www.w3.org/1999/xlink" x="0px" y="0px"
	 viewBox="0 0 24 24" style="enable-background:new 0 0 24 24;" xml:space="preserve">
<style type="text/css">
	.st0{display:none;}
	.st1{display:inline;}
	.st2{fill:none;stroke:#000000;stroke-linejoin:round;stroke-miterlimit:10;}
	.st3{fill:none;stroke:#000000;stroke-linecap:round;stroke-linejoin:round;stroke-miterlimit:10;}
</style>
<g id="Filled_Icons" class="st0">
	<g class="st1">
		<path d="M12.2,16H15c0.7,0,1.2,0.2,1.6,0.6c3.4-1.1,5.9-4.3,5.9-8.1C22.5,3.8,18.7,0,14,0C9.3,0,5.5,3.8,5.5,8.5
			c0,2.1,0.8,4,2,5.5C9.8,14,11.5,15.3,12.2,16z M10.5,5.2c1.7-0.3,1.7,0.3,1.7,0.3c0.7,0.7,2.1,0,2.8,0c0,0,0.3-2.4-0.3-2.1
			c-0.7,0.3-1.3,0.1-1.4-0.7c-0.1-1.1,3.1-1.9,3.1-1.9s1.1,0.2,2,0.9C18.9,2.1,20,3.2,20,3.2s-0.4,1.9-1.8,2.6
			c-1.4-0.3-2.8,0.7-2.4,0.7c0.3,0,0.7,1.4,0.7,1.4c0.3,0.3,1,0,1,0c0.9,0.9-1.4,2.4-1.4,2.8c0,0.3,0.9,0.5,0.3,1
			c-0.5,0.5-1,0.7-1,0.7c0,1.7-1.7,1.7-2.1,1.7c-0.3,0-1-1.4-1-1.7c0-0.3,0.3-0.7,0.3-1c0-0.3-0.7-1-0.7-1c0-1.4-1-1-2.1-1
			c-1,0-1-1.4-1-1.4S8.8,5.5,10.5,5.2z"/>
		<path d="M4,14H0.5C0.2,14,0,14.2,0,14.5v8C0,22.8,0.2,23,0.5,23H4c0.3,0,0.5-0.2,0.5-0.5v-8C4.5,14.2,4.3,14,4,14z"/>
		<path d="M23.9,18.2c-1.2-1.2-2.2-1.5-3.5-1.1l-3,1c0,0.2,0,0.3,0,0.5c0,0.6-0.2,1.2-0.6,1.7C16.4,20.7,15.7,21,15,21H9.5
			C9.2,21,9,20.8,9,20.5C9,20.2,9.2,20,9.5,20H15c0.4,0,0.8-0.2,1-0.4c0.2-0.3,0.4-0.7,0.4-1.1c0-0.6-0.3-1.5-1.4-1.5h-3
			c-0.1,0-0.3-0.1-0.4-0.1C11.1,16.3,9.6,15,7.5,15h-2C5.2,15,5,15.2,5,15.5V21c0,0.2,0.1,0.4,0.3,0.5c1.6,0.5,2.8,1,3.8,1.3
			c2,0.7,3.1,1.1,4.1,1.1c1.2,0,2.3-0.6,4.5-1.8c1.4-0.8,3.2-1.8,6-3.2c0.1-0.1,0.2-0.2,0.3-0.4C24,18.4,24,18.3,23.9,18.2z"/>
	</g>
</g>
<g id="Outline_Icons">
	<g>
		<rect x="0.5" y="14.5" class="st2" width="4" height="8"/>
		<path class="st3" d="M4.5,21c10.7,3.6,6.8,3.6,19-2.5c-1.1-1.1-1.9-1.3-3-1L16.1,19"/>
		<path class="st3" d="M4.5,15.5h3c2.4,0,4,1.5,4.5,2c0,0,1.5,0,3,0c1.6,0,1.6,2,0,2H9.5"/>
		<path class="st3" d="M6.9,12.2C6.3,11.1,6,9.9,6,8.6c0-4.4,3.6-8,8-8c4.4,0,8,3.6,8,8c0,2.9-1.6,5.5-3.9,6.9"/>
		<path class="st3" d="M19.9,3.2c0,0-0.3,1.9-1.7,2.6c-1.4-0.3-2.8,0.7-2.4,0.7c0.3,0,0.7,1.4,0.7,1.4c0.3,0.3,1,0,1,0
			c0.9,0.9-1.4,2.4-1.4,2.8c0,0.3,0.9,0.5,0.3,1c-0.5,0.5-1,0.7-1,0.7c0,1.7-1.7,1.7-2.1,1.7c-0.3,0-1-1.4-1-1.7
			c0-0.3,0.3-0.7,0.3-1c0-0.3-0.7-1-0.7-1c0-1.4-1-1-2.1-1c-1,0-1-1.4-1-1.4s0-2.4,1.7-2.8c1.7-0.4,1.7,0.3,1.7,0.3
			c0.7,0.7,2.1,0,2.8,0c0,0,0.3-2.4-0.3-2.1c-0.7,0.4-1.3,0.1-1.4-0.7c-0.1-1.1,3-1.7,3-1.7"/>
	</g>
</g>
</svg>
