<?xml version="1.0" encoding="utf-8"?>
<!-- Generator: Adobe Illustrator 19.2.0, SVG Export Plug-In . SVG Version: 6.00 Build 0)  -->
<svg version="1.1" id="Layer_1" xmlns="http://www.w3.org/2000/svg" xmlns:xlink="http://www.w3.org/1999/xlink" x="0px" y="0px"
	 viewBox="0 0 24 24" style="enable-background:new 0 0 24 24;" xml:space="preserve">
<style type="text/css">
	.st0{display:none;}
	.st1{display:inline;}
	.st2{fill:none;stroke:#000000;stroke-linejoin:round;stroke-miterlimit:10;}
	.st3{fill:none;stroke:#000000;stroke-linecap:round;stroke-linejoin:round;stroke-miterlimit:10;}
</style>
<g id="Filled_Icons" class="st0">
	<g class="st1">
		<g>
			<path d="M10.3,21.1c0.1-0.2,1.4-2,3.1-3.9c-0.4-0.6-0.5-1.1-0.5-1.8c0-0.9,0.4-2.2,2.2-3.3c0.6-0.4,1.3-0.6,1.9-0.7V5.5
				c0-0.1-0.1-0.3-0.1-0.4l-5-5C11.8,0.1,11.6,0,11.5,0h-11C0.2,0,0,0.2,0,0.5v21C0,21.8,0.2,22,0.5,22H10
				C10,21.7,10.2,21.4,10.3,21.1z M11,0.8L16.2,6h-4.7C11.2,6,11,5.8,11,5.5V0.8z"/>
		</g>
		<path d="M23.9,12.2c0-0.1-0.1-0.3-0.2-0.4c-0.1-0.1-0.3-0.1-0.4,0c-1.4,0.6-2.6,0.5-3.7,0.5c-1.3,0-2.6-0.1-3.9,0.7
			c-1.1,0.7-1.8,1.6-1.8,2.5c0,0.6,0.3,1.2,0.8,1.8c-1.9,2-3.3,4-3.6,4.4c-0.5,0.7-0.3,1.6,0.4,2.1c0.7,0.5,1.6,0.3,2.1-0.4
			c0.6-1,1.6-2.2,2.6-3.3c0.5,1.1,1.3,1.4,2,1.4c0.6,0,1.3-0.2,2.1-0.7C22.3,19.5,24.4,15.1,23.9,12.2z M20.8,15.5
			c-3.6,0.8-7.9,7.2-8,7.3c-0.2,0.2-0.5,0.3-0.7,0.1c-0.2-0.2-0.3-0.5-0.1-0.7c0.2-0.3,4.6-6.8,8.6-7.7c0.3-0.1,0.5,0.1,0.6,0.4
			C21.2,15.1,21.1,15.4,20.8,15.5z"/>
	</g>
</g>
<g id="Outline_Icons">
	<g>
		<polyline class="st2" points="11,21.5 0.5,21.5 0.5,0.5 11.5,0.5 16.5,5.5 16.5,12 		"/>
		<polyline class="st3" points="11.5,0.5 11.5,5.5 16.5,5.5 		"/>
		<path class="st3" d="M15.8,14.1c-1.7,1-2.5,2.7,0.4,4.5c0.3,3.3,1.9,3.5,3.8,2.4c1.9-1.2,3.8-5.3,3.4-7.9
			C20.6,14.2,18,12.8,15.8,14.1z"/>
		<path class="st3" d="M12.4,23.2c0,0,4.5-6.7,8.3-7.5"/>
	</g>
</g>
</svg>
