<?xml version="1.0" encoding="utf-8"?>
<!-- Generator: Adobe Illustrator 19.2.0, SVG Export Plug-In . SVG Version: 6.00 Build 0)  -->
<svg version="1.1" id="Layer_1" xmlns="http://www.w3.org/2000/svg" xmlns:xlink="http://www.w3.org/1999/xlink" x="0px" y="0px"
	 viewBox="0 0 24 24" style="enable-background:new 0 0 24 24;" xml:space="preserve">
<style type="text/css">
	.st0{display:none;}
	.st1{display:inline;}
	.st2{fill:none;stroke:#000000;stroke-linecap:round;stroke-linejoin:round;stroke-miterlimit:10;}
</style>
<g id="Filled_Icons" class="st0">
	<g class="st1">
		<path d="M11.4,12.2c1.9,1.6,2.9,1.2,3.4-0.9c0.4-1.8-0.8-5.4-2.6-7.1c-0.6,1.1-1.5,2-2.2,2.7C9.1,7.9,8.3,8.6,8,9.7
			c-0.5,2,0.4,2.7,2.4,2.3c0.1-1.9,0.4-3.8,1.1-5c0.1-0.2,0.5-0.3,0.7-0.2c0.2,0.1,0.3,0.5,0.2,0.7C11.8,8.7,11.5,10.5,11.4,12.2z"
			/>
		<path d="M11.5,0C6.3,0,2,4,2,9c0,3.9,2.7,7.3,6.5,8.5v1C8.5,18.8,8.7,19,9,19h2c-0.1-0.5-0.5-3.1-0.5-5.9c-2.8,0.4-4-1.1-3.4-3.6
			c0.3-1.4,1.3-2.3,2.3-3.2c0.9-0.8,1.8-1.7,2.3-3C11.7,3.2,11.8,3.1,12,3c0.1,0,0.3,0,0.4,0.1c2.4,1.7,4,6.2,3.4,8.5
			c-0.6,2.5-2.2,3.3-4.4,1.9C11.5,16.2,12,19,12,19h2c0.3,0,0.5-0.2,0.5-0.5v-1C18.3,16.3,21,12.9,21,9C21,4,16.7,0,11.5,0z"/>
		<path d="M14,20H9c-0.3,0-0.5,0.2-0.5,0.5C8.5,20.8,8.7,21,9,21h5c0.3,0,0.5-0.2,0.5-0.5C14.5,20.2,14.3,20,14,20z"/>
		<path d="M14,22H9c-0.3,0-0.5,0.2-0.5,0.5C8.5,22.8,8.7,23,9,23h2v0.5c0,0.3,0.2,0.5,0.5,0.5c0.3,0,0.5-0.2,0.5-0.5V23h2
			c0.3,0,0.5-0.2,0.5-0.5C14.5,22.2,14.3,22,14,22z"/>
	</g>
</g>
<g id="Outline_Icons">
	<g>
		<path class="st2" d="M7.5,9.6c-0.5,1.9,0.2,3.6,3.4,2.9c2.6,2.2,3.8,1.1,4.4-1c0.5-2.1-1-6.4-3.2-8C10.9,6.3,8.1,7.2,7.5,9.6z"/>
		<line class="st2" x1="9" y1="20.5" x2="14" y2="20.5"/>
		<line class="st2" x1="9" y1="22.5" x2="14" y2="22.5"/>
		<line class="st2" x1="11.5" y1="22.5" x2="11.5" y2="23.5"/>
		<path class="st2" d="M11.5,18.5c0,0-1.6-7.9,0.5-11.2"/>
		<path class="st2" d="M20.5,9c0-4.7-4-8.5-9-8.5c-5,0-9,3.8-9,8.5c0,3.9,2.7,7.1,6.5,8.2v1.3h5v-1.3C17.8,16.1,20.5,12.9,20.5,9z"
			/>
	</g>
</g>
</svg>
