<?xml version="1.0" encoding="utf-8"?>
<!-- Generator: Adobe Illustrator 19.2.0, SVG Export Plug-In . SVG Version: 6.00 Build 0)  -->
<svg version="1.1" id="Layer_1" xmlns="http://www.w3.org/2000/svg" xmlns:xlink="http://www.w3.org/1999/xlink" x="0px" y="0px"
	 viewBox="0 0 24 24" style="enable-background:new 0 0 24 24;" xml:space="preserve">
<style type="text/css">
	.st0{display:none;}
	.st1{display:inline;}
	.st2{fill:none;stroke:#000000;stroke-linejoin:round;stroke-miterlimit:10;}
	.st3{fill:none;stroke:#000000;stroke-linecap:round;stroke-linejoin:round;stroke-miterlimit:10;}
</style>
<g id="Filled_Icons" class="st0">
	<g class="st1">
		<path d="M21.5,9.9c-0.3-0.5-0.7-1.2-0.7-1.5c0-5.3-4.9-8.4-9.6-8.4C5.5,0,1.1,4.4,1.1,10.1c0,3.7,1.3,6.3,3.9,8v5.5
			C5,23.8,5.2,24,5.5,24h10c0.3,0,0.5-0.2,0.5-0.5v-3c1.8,0,2.9-0.2,3.7-1c0.8-0.8,1-3.3,1-4.5c0.3,0,0.7,0,1,0c0.4,0,0.8-0.2,1-0.5
			c0.2-0.3,0.2-0.5,0.2-0.8C22.9,12.6,22.5,11.7,21.5,9.9z M14.3,11.9c-0.6,0.7-1.6,1.6-2.7,1.6c-0.4,0-0.8-0.1-1.3-0.5
			c-1,1.9-1.3,3.3-1.3,3.4c-0.2,0.7-0.8,1.2-1.5,1.2c-0.1,0-0.2,0-0.3,0c-0.8-0.2-1.3-1-1.1-1.8c0-0.1,0.5-2.3,2-4.9
			c-0.3-0.3-0.6-0.7-0.7-1.1c-0.2-0.9,0.1-1.8,1-2.8c0.8-0.9,1.9-1.3,3-1.6c1-0.3,1.9-0.6,2.8-1.3c0.1-0.1,0.3-0.1,0.4-0.1
			c0.1,0,0.3,0.1,0.3,0.3C16.1,6.4,15.6,10.4,14.3,11.9z"/>
		<path d="M12.5,7c-4.2,3.8-5.3,8.7-5.4,8.9c-0.1,0.3,0.1,0.5,0.4,0.6c0,0,0.1,0,0.1,0c0.2,0,0.4-0.2,0.5-0.4c0,0,1.1-4.8,5.1-8.4
			c0.2-0.2,0.2-0.5,0-0.7C13,6.8,12.7,6.8,12.5,7z"/>
	</g>
</g>
<g id="Outline_Icons">
	<g>
		<path class="st2" d="M20.3,8.4c0-5-4.8-7.9-9.1-7.9c-5.4,0-9.6,4.2-9.6,9.6c0,3,0.9,5.9,3.9,7.7v5.8h10V20c2,0,3.1-0.1,3.8-0.8
			c0.9-0.9,0.9-4.7,0.9-4.7s0.9,0,1.5,0c0.2,0,0.5-0.1,0.6-0.3c0.1-0.2,0.1-0.4,0.1-0.6C22.5,12,20.3,9.2,20.3,8.4z"/>
		<path class="st3" d="M8.8,7.2c-1.1,1.3-1.7,3,0.9,4.1c1.2,2.6,3,1.7,4.2,0.3c1.2-1.4,1.7-5.2,0.6-7.2C12.6,6,10.2,5.6,8.8,7.2z"/>
		<path class="st3" d="M7.6,16c0,0,1.1-4.9,5.2-8.7"/>
	</g>
</g>
</svg>
