<?xml version="1.0" encoding="utf-8"?>
<!-- Generator: Adobe Illustrator 19.2.0, SVG Export Plug-In . SVG Version: 6.00 Build 0)  -->
<svg version="1.1" id="Layer_1" xmlns="http://www.w3.org/2000/svg" xmlns:xlink="http://www.w3.org/1999/xlink" x="0px" y="0px"
	 viewBox="0 0 24 24" style="enable-background:new 0 0 24 24;" xml:space="preserve">
<style type="text/css">
	.st0{display:none;}
	.st1{display:inline;}
	.st2{fill:none;stroke:#000000;stroke-linecap:round;stroke-linejoin:round;stroke-miterlimit:10;}
	.st3{fill:none;stroke:#000000;stroke-linejoin:round;stroke-miterlimit:10;}
</style>
<g id="Filled_Icons" class="st0">
	<g class="st1">
		<path d="M4,14H0.5C0.2,14,0,14.2,0,14.5v8C0,22.8,0.2,23,0.5,23H4c0.3,0,0.5-0.2,0.5-0.5v-8C4.5,14.2,4.3,14,4,14z"/>
		<path d="M23.9,18.2c-1.2-1.2-2.2-1.5-3.5-1.1l-3,1c0,0.2,0,0.3,0,0.5c0,0.6-0.2,1.2-0.6,1.7C16.4,20.7,15.7,21,15,21H9.5
			C9.2,21,9,20.8,9,20.5C9,20.2,9.2,20,9.5,20H15c0.4,0,0.8-0.2,1-0.4c0.2-0.3,0.4-0.7,0.4-1.1c0-0.6-0.3-1.5-1.4-1.5h-2.8H12
			c-0.1,0-0.3-0.1-0.4-0.1C11.1,16.3,9.6,15,7.5,15h-2C5.2,15,5,15.2,5,15.5V21c0,0.2,0.1,0.4,0.3,0.5c1.6,0.5,2.8,1,3.8,1.3
			c2,0.7,3.1,1.1,4.1,1.1c1.2,0,2.3-0.6,4.5-1.8c1.4-0.8,3.2-1.8,6-3.2c0.1-0.1,0.2-0.2,0.3-0.4C24,18.4,24,18.3,23.9,18.2z"/>
		<path d="M8.7,11.3c0.8,0,1.5-0.4,2-1.1c1.4,2.5,1.8,4.5,1.8,4.5c0.1,0.4,0.4,0.8,1,0.8c0.4,0,0.8-0.3,0.9-0.6
			c0-0.1,0.5-1.2,1.3-2.4c0.6,0.6,1.2,0.8,1.7,0.8l0,0c0.8,0,1.7-0.4,2.4-1.2c1.2-1.3,1.9-4.7,1-6.7c-0.1-0.1-0.2-0.2-0.3-0.3
			c-0.1,0-0.3,0-0.4,0.1c-0.9,0.7-1.7,0.9-2.5,1.1C16.7,6.3,16,6.5,15.2,7c-0.9,0.6-1.4,1.4-1.4,2.2c0,0.4,0.1,0.9,0.6,1.5
			c-0.3,0.4-0.5,0.7-0.8,1.1c-0.4-0.9-0.9-2-1.5-3.2c0.7-0.5,1.2-1.1,1.4-1.8c0.2-1-0.2-2.1-1.1-3.3c-0.9-1.1-2.2-1.5-3.5-1.9
			C7.8,1.4,6.6,1,5.5,0.1C5.4,0,5.3,0,5.1,0C5,0,4.8,0.1,4.8,0.3C3.4,2.9,4,7.6,5.5,9.4C6.3,10.2,7.4,11.3,8.7,11.3z M6.9,3.7
			c0.2-0.2,0.5-0.2,0.8,0.1c1.6,1.5,3,3.2,4.1,5.1c0,0,0,0,0,0c1,1.7,1.4,2.9,1.8,4.1c1-1.8,2.3-3.6,4.2-4.5c0.2-0.1,0.5,0,0.6,0.2
			c0.2,0.3,0,0.5-0.2,0.7c-2.2,1.1-3.8,4-4.3,5.2l0,0c-0.2,0.4-0.8,0.4-0.9,0c-0.4-1-0.5-2.3-2-4.9l0,0C10.1,8,8.8,6.1,6.9,4.4
			C6.7,4.3,6.7,3.9,6.9,3.7z"/>
	</g>
</g>
<g id="Outline_Icons">
	<g>
		<path class="st2" d="M15.5,7.4c-1.2,0.8-1.8,2.3,0,3.5c1,2.5,2.9,1.8,4,0.7c1.1-1.2,1.7-4.4,0.9-6.2C18.6,6.8,17,6.4,15.5,7.4z"/>
		<path class="st2" d="M12,3.9c1.3,1.5,2,3.5-1.1,4.9c-1.4,3.2-3.6,2-5,0.3c-1.4-1.7-2-6.2-0.7-8.6C7.5,2.5,10.4,2,12,3.9z"/>
		<path class="st2" d="M18,8.9c-3,1.5-4.5,5.5-4.5,5.5S12.2,8.6,7.2,4.1"/>
		<rect x="0.5" y="14.5" class="st3" width="4" height="8"/>
		<path class="st2" d="M4.5,21c10.7,3.6,6.8,3.6,19-2.5c-1.1-1.1-1.9-1.3-3-1L16.1,19"/>
		<path class="st2" d="M4.5,15.5h3c2.4,0,4,1.5,4.5,2c0,0,1.5,0,3,0c1.6,0,1.6,2,0,2H9.5"/>
	</g>
</g>
</svg>
