<?xml version="1.0" encoding="utf-8"?>
<!-- Generator: Adobe Illustrator 19.2.0, SVG Export Plug-In . SVG Version: 6.00 Build 0)  -->
<svg version="1.1" id="Layer_1" xmlns="http://www.w3.org/2000/svg" xmlns:xlink="http://www.w3.org/1999/xlink" x="0px" y="0px"
	 viewBox="0 0 24 24" style="enable-background:new 0 0 24 24;" xml:space="preserve">
<style type="text/css">
	.st0{display:none;}
	.st1{display:inline;}
	.st2{fill:none;stroke:#000000;stroke-linecap:round;stroke-linejoin:round;stroke-miterlimit:10;}
</style>
<g id="Filled_Icons" class="st0">
	<g class="st1">
		<path d="M17.5,0h-4C13.2,0,13,0.2,13,0.5v1C13,1.8,13.2,2,13.5,2h4C17.8,2,18,1.8,18,1.5v-1C18,0.2,17.8,0,17.5,0z"/>
		<g>
			<path d="M1.5,11H3v5h8.9c0-0.9,0.5-2.1,2.2-3.2c1.2-0.7,2.5-0.8,3.6-0.8c0.3,0,0.6,0,0.8,0c0.1,0,0.3,0,0.4,0v-1h1.5
				c0.3,0,0.5-0.2,0.5-0.5c0-0.3-0.2-0.5-0.5-0.5H19H3H1.5C1.2,10,1,10.2,1,10.5C1,10.8,1.2,11,1.5,11z"/>
			<path d="M1.5,4H3v5h16V4h1.5C20.8,4,21,3.8,21,3.5C21,3.2,20.8,3,20.5,3h-2h-15h-2C1.2,3,1,3.2,1,3.5C1,3.8,1.2,4,1.5,4z"/>
			<path d="M10.2,22.4c0.2-0.3,1.3-1.9,2.9-3.7c-0.5-0.5-0.9-1.1-1-1.7H3H1.5C1.2,17,1,17.2,1,17.5C1,17.8,1.2,18,1.5,18H3v5H1.5
				C1.2,23,1,23.2,1,23.5C1,23.8,1.2,24,1.5,24h2h5h1.7C9.9,23.5,9.9,22.9,10.2,22.4z"/>
			<path d="M20.5,23H19c0,0-1.2,0.1-1.7,0.1c-0.8,0-1.9-0.3-2.7-1.6c-0.7,0.9-1.4,1.8-1.9,2.5h7.8c0.3,0,0.5-0.2,0.5-0.5
				C21,23.2,20.8,23,20.5,23z"/>
		</g>
		<g>
			<path d="M23,12.9c0-0.1-0.1-0.3-0.2-0.4c-0.1-0.1-0.3-0.1-0.4,0c-1.4,0.6-2.6,0.5-3.7,0.5c-1.3,0-2.6-0.1-3.9,0.7
				c-1.1,0.7-1.8,1.6-1.8,2.5c0,0.6,0.3,1.2,0.8,1.8c1.6-1.7,3.6-3.3,5.6-3.8c0.8-0.2,1.6,0.3,1.8,1.1c0.2,0.8-0.3,1.6-1.1,1.8
				c-1.4,0.3-3.2,1.9-4.7,3.6c0.5,1.1,1.3,1.4,2,1.4c0.6,0,1.3-0.2,2.1-0.7C21.4,20.1,23.5,15.8,23,12.9z"/>
		</g>
		<g>
			<path d="M11.5,23.7c-0.1,0-0.2,0-0.3-0.1c-0.2-0.2-0.3-0.5-0.1-0.7c0.2-0.3,4.6-6.8,8.6-7.7c0.3-0.1,0.5,0.1,0.6,0.4
				c0.1,0.3-0.1,0.5-0.4,0.6c-3.6,0.8-7.9,7.2-8,7.3C11.8,23.6,11.6,23.7,11.5,23.7z"/>
		</g>
	</g>
</g>
<g id="Outline_Icons">
	<g>
		<path class="st2" d="M14.9,14.1c-1.7,1-2.5,2.7,0.4,4.5c0.3,3.3,1.9,3.5,3.8,2.4c1.9-1.2,3.8-5.3,3.4-7.9
			C19.7,14.2,17.1,12.8,14.9,14.1z"/>
		<path class="st2" d="M11.5,23.2c0,0,4.5-6.7,8.3-7.5"/>
		<polyline class="st2" points="9,23.5 3.5,23.5 3.5,2.5 18.5,2.5 18.5,11 		"/>
		<line class="st2" x1="1.5" y1="2.5" x2="20.5" y2="2.5"/>
		<line class="st2" x1="1.5" y1="23.5" x2="8.5" y2="23.5"/>
		<line class="st2" x1="1.5" y1="16.5" x2="10.5" y2="16.5"/>
		<line class="st2" x1="1.5" y1="9.5" x2="20.5" y2="9.5"/>
		<rect x="13.5" y="0.5" class="st2" width="4" height="2"/>
	</g>
</g>
</svg>
