<?xml version="1.0" encoding="utf-8"?>
<!-- Generator: Adobe Illustrator 19.2.0, SVG Export Plug-In . SVG Version: 6.00 Build 0)  -->
<svg version="1.1" id="Outline_Icons" xmlns="http://www.w3.org/2000/svg" xmlns:xlink="http://www.w3.org/1999/xlink" x="0px"
	 y="0px" viewBox="0 0 24 24" style="enable-background:new 0 0 24 24;" xml:space="preserve">
<style type="text/css">
	.st0{fill:none;stroke:#000000;stroke-linecap:round;stroke-linejoin:round;stroke-miterlimit:10;}
</style>
<g>
	<path class="st0" d="M15.5,7.9c-1.3,1.5-2,3.5,1.1,4.9c1.4,3.2,3.6,2,5,0.3c1.4-1.7,2-6.2,0.7-8.6C20,6.5,17.1,6,15.5,7.9z"/>
	<path class="st0" d="M14,18.4c0,0,1.3-5.9,6.3-10.4"/>
	<path class="st0" d="M12,23.4C9.8,22.7,8,17.8,8,12C8,6.2,9.7,1.4,12,0.6"/>
	<path class="st0" d="M11.7,23.4C7.4,22.9,4,18,4,12C4,6.1,7.3,1.3,11.5,0.6"/>
	<line class="st0" x1="2" y1="6.5" x2="12.5" y2="6.5"/>
	<line class="st0" x1="0.5" y1="11.5" x2="12.5" y2="11.5"/>
	<line class="st0" x1="1.5" y1="16.5" x2="12.5" y2="16.5"/>
	<path class="st0" d="M12.5,0.5c-0.2,0-0.3,0-0.5,0C5.6,0.5,0.5,5.6,0.5,12S5.6,23.5,12,23.5c0.2,0,0.3,0,0.5,0V0.5z"/>
</g>
</svg>
