<?xml version="1.0" encoding="utf-8"?>
<!-- Generator: Adobe Illustrator 19.2.0, SVG Export Plug-In . SVG Version: 6.00 Build 0)  -->
<svg version="1.1" id="Layer_1" xmlns="http://www.w3.org/2000/svg" xmlns:xlink="http://www.w3.org/1999/xlink" x="0px" y="0px"
	 viewBox="0 0 24 24" enable-background="new 0 0 24 24" xml:space="preserve">
<g id="Filled_Icons" display="none">
	<g display="inline">
		<path d="M10.908,0.318c-4.6,0-8.755,1.861-10.106,4.525c-1.578,3.115-0.597,4.979,0.89,7.801c0.968,1.838,2.173,4.125,3.116,7.558
			c0.664,2.417,2.648,3.804,5.445,3.804c0,0,0,0,0.001,0c2.75,0,5.837-1.32,8.258-3.533c2.76-2.521,4.278-5.861,4.278-9.403
			C22.79,3.134,16.391,0.318,10.908,0.318z M9.79,13.068c-2.757,0-5-2.242-5-5c0-2.757,2.243-5,5-5c2.757,0,5,2.243,5,5
			C14.79,10.826,12.547,13.068,9.79,13.068z"/>
		<g>
			<path d="M7.246,9.301c-0.159,0-0.317-0.076-0.414-0.219c-0.281-0.415-0.43-0.9-0.43-1.404c0-1.378,1.121-2.5,2.5-2.5
				c0.49,0,0.965,0.143,1.373,0.411c0.23,0.151,0.294,0.462,0.143,0.692c-0.154,0.23-0.464,0.294-0.693,0.143
				C9.48,6.263,9.196,6.178,8.902,6.178c-0.827,0-1.5,0.673-1.5,1.5c0,0.303,0.089,0.595,0.258,0.844
				C7.814,8.749,7.756,9.06,7.527,9.215C7.441,9.273,7.343,9.301,7.246,9.301z"/>
		</g>
	</g>
</g>
<g id="Outline_Icons">
	<g>
		<circle fill="none" stroke="#000000" stroke-linejoin="round" stroke-miterlimit="10" cx="9.79" cy="8.063" r="4.5"/>
		<path fill="none" stroke="#000000" stroke-linecap="round" stroke-linejoin="round" stroke-miterlimit="10" d="M8.134,9.187
			C7.917,8.867,7.79,8.48,7.79,8.063c0-1.104,0.896-2,2-2c0.405,0,0.783,0.121,1.098,0.328"/>
		<path fill="none" stroke="#000000" stroke-linejoin="round" stroke-miterlimit="10" d="M1.248,5.063
			c-2.435,4.804,1.645,6.276,4.042,15c2.051,7.465,17,2,17-9C22.29-1.937,4.29-0.937,1.248,5.063z"/>
	</g>
</g>
</svg>
