<?xml version="1.0" encoding="utf-8"?>
<!-- Generator: Adobe Illustrator 19.2.0, SVG Export Plug-In . SVG Version: 6.00 Build 0)  -->
<svg version="1.1" id="Layer_1" xmlns="http://www.w3.org/2000/svg" xmlns:xlink="http://www.w3.org/1999/xlink" x="0px" y="0px"
	 viewBox="0 0 24 24" enable-background="new 0 0 24 24" xml:space="preserve">
<g id="Filled_Icons" display="none">
	<g display="inline">
		<path d="M14,0.006c-5.514,0-10,4.486-10,10c0,2.397,0.85,4.6,2.262,6.324l-5.969,5.969c-0.391,0.391-0.391,1.024,0,1.414
			C0.488,23.908,0.744,24.006,1,24.006c0.256,0,0.512-0.098,0.707-0.293l5.969-5.969C9.4,19.156,11.603,20.006,14,20.006
			c5.514,0,10-4.484,10-10C24,4.492,19.514,0.006,14,0.006z M16.529,16.748c-0.205,0.077-0.422,0.115-0.643,0.115
			c-0.373,0-0.734-0.111-1.041-0.324c-0.492-0.342-0.787-0.902-0.787-1.504c0-2.189-1.782-3.971-3.972-3.971
			c-0.474,0-0.939,0.086-1.384,0.256c-0.434,0.165-0.925,0.105-1.301-0.154c-0.382-0.265-0.609-0.697-0.609-1.16
			C6.794,6.032,10.026,2.8,14,2.8c3.975,0,7.206,3.232,7.206,7.206C21.206,12.992,19.327,15.701,16.529,16.748z"/>
		<path d="M14,5.035c-1.508,0-2.735,1.228-2.735,2.736c0,1.508,1.228,2.734,2.735,2.734c1.507,0,2.734-1.227,2.734-2.734
			C16.734,6.263,15.508,5.035,14,5.035z"/>
	</g>
</g>
<g id="Outline_Icons">
	<g>
		<circle fill="none" stroke="#000000" stroke-linejoin="round" stroke-miterlimit="10" cx="14" cy="10" r="9.5"/>
		<circle fill="none" stroke="#000000" stroke-linejoin="round" stroke-miterlimit="10" cx="14" cy="7.765" r="2.235"/>
		<path fill="none" stroke="#000000" stroke-linejoin="round" stroke-miterlimit="10" d="M14,3.294
			c-3.703,0-6.706,3.003-6.706,6.706c0,0.299,0.147,0.578,0.394,0.748c0.245,0.169,0.559,0.206,0.838,0.1
			c0.485-0.186,1.011-0.289,1.563-0.289c2.47,0,4.472,2.001,4.472,4.47c0,0.436,0.213,0.846,0.571,1.094
			c0.358,0.248,0.816,0.305,1.224,0.15c2.543-0.951,4.353-3.397,4.353-6.272C20.706,6.297,17.703,3.294,14,3.294z"/>
		
			<line fill="none" stroke="#000000" stroke-linecap="round" stroke-linejoin="round" stroke-miterlimit="10" x1="7.281" y1="16.719" x2="0.619" y2="23.381"/>
	</g>
</g>
</svg>
