<?xml version="1.0" encoding="utf-8"?>
<!-- Generator: Adobe Illustrator 19.2.0, SVG Export Plug-In . SVG Version: 6.00 Build 0)  -->
<svg version="1.1" id="Layer_1" xmlns="http://www.w3.org/2000/svg" xmlns:xlink="http://www.w3.org/1999/xlink" x="0px" y="0px"
	 viewBox="0 0 24 24" style="enable-background:new 0 0 24 24;" xml:space="preserve">
<style type="text/css">
	.st0{display:none;}
	.st1{display:inline;}
	.st2{fill:none;stroke:#000000;stroke-linecap:round;stroke-linejoin:round;stroke-miterlimit:10;}
</style>
<g id="Filled_Icons" class="st0">
	<g class="st1">
		<path d="M11.7,5h2.8C14.8,5,15,4.8,15,4.5C15,4.2,14.8,4,14.5,4H14V2.5C14,2.2,13.8,2,13.5,2C13.2,2,13,2.2,13,2.5V4h-1V2.5
			C12,2.2,11.8,2,11.5,2C11.2,2,11,2.2,11,2.5V4H4V2.5C4,2.2,3.8,2,3.5,2C3.2,2,3,2.2,3,2.5V4H2V2.5C2,2.2,1.8,2,1.5,2
			C1.2,2,1,2.2,1,2.5V4H0.6C0.3,4,0.1,4.2,0.1,4.5C0.1,4.8,0.3,5,0.6,5h2.7L7,9.7v13.8C7,23.8,7.2,24,7.5,24C7.8,24,8,23.8,8,23.5
			V9.7L11.7,5z M4.6,5h5.9L7.5,8.7L4.6,5z"/>
		<path d="M23.5,11H23v-0.5c0-0.3-0.2-0.5-0.5-0.5c-0.3,0-0.5,0.2-0.5,0.5V11h-7v-0.5c0-0.3-0.2-0.5-0.5-0.5c-0.3,0-0.5,0.2-0.5,0.5
			V11h-1v-0.5c0-0.3-0.2-0.5-0.5-0.5c-0.3,0-0.5,0.2-0.5,0.5V11h-0.4c-0.3,0-0.5,0.2-0.5,0.5c0,0.3,0.2,0.5,0.5,0.5h2.7l2.7,3.7v7.8
			c0,0.3,0.2,0.5,0.5,0.5c0.3,0,0.5-0.2,0.5-0.5v-7.8l2.7-3.7h2.8c0.3,0,0.5-0.2,0.5-0.5C24,11.2,23.8,11,23.5,11z M17.5,14.7
			l-2-2.7h4L17.5,14.7z"/>
	</g>
</g>
<g id="Outline_Icons">
	<g>
		<line class="st2" x1="0.6" y1="4.5" x2="14.5" y2="4.5"/>
		<line class="st2" x1="7.5" y1="9.5" x2="7.5" y2="23.5"/>
		<line class="st2" x1="1.5" y1="2.5" x2="1.5" y2="4.5"/>
		<line class="st2" x1="3.5" y1="2.5" x2="3.5" y2="4.5"/>
		<line class="st2" x1="11.5" y1="2.5" x2="11.5" y2="4.5"/>
		<line class="st2" x1="13.5" y1="2.5" x2="13.5" y2="4.5"/>
		<polyline class="st2" points="11.5,4.5 7.5,9.5 3.5,4.5 		"/>
		<line class="st2" x1="11.6" y1="11.5" x2="23.5" y2="11.5"/>
		<line class="st2" x1="17.5" y1="15.5" x2="17.5" y2="23.5"/>
		<line class="st2" x1="12.5" y1="10.5" x2="12.5" y2="11.5"/>
		<line class="st2" x1="14.5" y1="10.5" x2="14.5" y2="11.5"/>
		<line class="st2" x1="22.5" y1="10.5" x2="22.5" y2="11.5"/>
		<polyline class="st2" points="20.5,11.5 17.5,15.5 14.5,11.5 		"/>
	</g>
</g>
</svg>
