<?xml version="1.0" encoding="utf-8"?>
<!-- Generator: Adobe Illustrator 19.2.0, SVG Export Plug-In . SVG Version: 6.00 Build 0)  -->
<svg version="1.1" id="Outline_Icons" xmlns="http://www.w3.org/2000/svg" xmlns:xlink="http://www.w3.org/1999/xlink" x="0px"
	 y="0px" viewBox="0 0 24 24" style="enable-background:new 0 0 24 24;" xml:space="preserve">
<style type="text/css">
	.st0{fill:none;stroke:#000000;stroke-linejoin:round;stroke-miterlimit:10;}
</style>
<g>
	<circle class="st0" cx="11.5" cy="9.5" r="8"/>
	<circle class="st0" cx="11.5" cy="9.5" r="2"/>
	<polyline class="st0" points="9.5,17.2 9.5,20.5 13.5,20.5 13.5,17.2 	"/>
	<path class="st0" d="M3.5,22c0,0.8,0.7,1.5,1.5,1.5h13c0.8,0,1.5-0.7,1.5-1.5c0-0.8-0.7-1.5-1.5-1.5H5C4.2,20.5,3.5,21.2,3.5,22z"
		/>
	<line class="st0" x1="9.5" y1="9.7" x2="3.7" y2="11.1"/>
	<line class="st0" x1="7" y1="16.1" x2="10.5" y2="11.2"/>
	<line class="st0" x1="13.5" y1="9.7" x2="19.4" y2="11.1"/>
	<line class="st0" x1="16.1" y1="16.1" x2="12.5" y2="11.2"/>
	<line class="st0" x1="10.6" y1="7.7" x2="8.3" y2="2.1"/>
	<line class="st0" x1="14.6" y1="2.1" x2="12.4" y2="7.7"/>
	<line class="st0" x1="15.5" y1="20.5" x2="15.5" y2="22"/>
	<line class="st0" x1="17.5" y1="20.5" x2="17.5" y2="22"/>
</g>
</svg>
