<?xml version="1.0" encoding="utf-8"?>
<!-- Generator: Adobe Illustrator 19.2.0, SVG Export Plug-In . SVG Version: 6.00 Build 0)  -->
<svg version="1.1" id="Layer_1" xmlns="http://www.w3.org/2000/svg" xmlns:xlink="http://www.w3.org/1999/xlink" x="0px" y="0px"
	 viewBox="0 0 24 24" style="enable-background:new 0 0 24 24;" xml:space="preserve">
<style type="text/css">
	.st0{display:none;}
	.st1{display:inline;}
	.st2{fill:none;stroke:#000000;stroke-linejoin:round;stroke-miterlimit:10;}
	.st3{fill:none;stroke:#000000;stroke-linecap:round;stroke-linejoin:round;stroke-miterlimit:10;}
</style>
<g id="Filled_Icons" class="st0">
	<g class="st1">
		<path d="M21.5,1h-14C6.1,1,5,2.1,5,3.5V19H4.5C3.7,19,3,18.3,3,17.5v-8C3,8.1,2,7,0.7,7C0.4,7,0.2,7.2,0.2,7.5
			C0.2,7.8,0.4,8,0.7,8C1.6,8,2,8.8,2,9.5v8C2,18.9,3.1,20,4.5,20H5v0.5C5,21.9,6.1,23,7.5,23h14c1.4,0,2.5-1.1,2.5-2.5v-17
			C24,2.1,22.9,1,21.5,1z M10.5,19.5C9.1,19.5,8,18.4,8,17c0-1.4,1.1-2.5,2.5-2.5c1.4,0,2.5,1.1,2.5,2.5
			C13,18.4,11.9,19.5,10.5,19.5z M10.5,9.5C9.1,9.5,8,8.4,8,7c0-1.4,1.1-2.5,2.5-2.5C11.9,4.5,13,5.6,13,7C13,8.4,11.9,9.5,10.5,9.5
			z M18.5,19.5c-1.4,0-2.5-1.1-2.5-2.5c0-1.4,1.1-2.5,2.5-2.5c1.4,0,2.5,1.1,2.5,2.5C21,18.4,19.9,19.5,18.5,19.5z M18.5,9.5
			C17.1,9.5,16,8.4,16,7c0-1.4,1.1-2.5,2.5-2.5C19.9,4.5,21,5.6,21,7C21,8.4,19.9,9.5,18.5,9.5z"/>
		<path d="M17.5,6C17.2,6,17,6.3,17,6.5v1C17,7.8,17.2,8,17.5,8C17.8,8,18,7.8,18,7.5v-1C18,6.3,17.8,6,17.5,6z"/>
		<path d="M19.5,6C19.2,6,19,6.3,19,6.5v1C19,7.8,19.2,8,19.5,8C19.8,8,20,7.8,20,7.5v-1C20,6.3,19.8,6,19.5,6z"/>
		<path d="M9.5,6C9.2,6,9,6.3,9,6.5v1C9,7.8,9.2,8,9.5,8C9.8,8,10,7.8,10,7.5v-1C10,6.3,9.8,6,9.5,6z"/>
		<path d="M11.5,6C11.2,6,11,6.3,11,6.5v1C11,7.8,11.2,8,11.5,8C11.8,8,12,7.8,12,7.5v-1C12,6.3,11.8,6,11.5,6z"/>
		<path d="M17.5,16c-0.3,0-0.5,0.2-0.5,0.5v1c0,0.3,0.2,0.5,0.5,0.5c0.3,0,0.5-0.2,0.5-0.5v-1C18,16.3,17.8,16,17.5,16z"/>
		<path d="M19.5,16c-0.3,0-0.5,0.2-0.5,0.5v1c0,0.3,0.2,0.5,0.5,0.5c0.3,0,0.5-0.2,0.5-0.5v-1C20,16.3,19.8,16,19.5,16z"/>
		<path d="M9.5,16C9.2,16,9,16.3,9,16.5v1C9,17.8,9.2,18,9.5,18c0.3,0,0.5-0.2,0.5-0.5v-1C10,16.3,9.8,16,9.5,16z"/>
		<path d="M11.5,16c-0.3,0-0.5,0.2-0.5,0.5v1c0,0.3,0.2,0.5,0.5,0.5c0.3,0,0.5-0.2,0.5-0.5v-1C12,16.3,11.8,16,11.5,16z"/>
	</g>
</g>
<g id="Outline_Icons">
	<g>
		<path class="st2" d="M5.5,20.5c0,1.1,0.9,2,2,2h14c1.1,0,2-0.9,2-2v-17c0-1.1-0.9-2-2-2h-14c-1.1,0-2,0.9-2,2V20.5z"/>
		<line class="st3" x1="17.5" y1="6.5" x2="17.5" y2="7.5"/>
		<line class="st3" x1="19.5" y1="6.5" x2="19.5" y2="7.5"/>
		<circle class="st3" cx="18.5" cy="7" r="3"/>
		<line class="st3" x1="9.5" y1="6.5" x2="9.5" y2="7.5"/>
		<line class="st3" x1="11.5" y1="6.5" x2="11.5" y2="7.5"/>
		<circle class="st3" cx="10.5" cy="7" r="3"/>
		<line class="st3" x1="17.5" y1="16.5" x2="17.5" y2="17.5"/>
		<line class="st3" x1="19.5" y1="16.5" x2="19.5" y2="17.5"/>
		<circle class="st3" cx="18.5" cy="17" r="3"/>
		<line class="st3" x1="9.5" y1="16.5" x2="9.5" y2="17.5"/>
		<line class="st3" x1="11.5" y1="16.5" x2="11.5" y2="17.5"/>
		<circle class="st3" cx="10.5" cy="17" r="3"/>
		<path class="st3" d="M5.4,19.5H4.5c-1.1,0-2-0.9-2-2v-8c0-1.1-0.7-2-1.8-2"/>
	</g>
</g>
</svg>
