<?xml version="1.0" encoding="utf-8"?>
<!-- Generator: Adobe Illustrator 19.2.0, SVG Export Plug-In . SVG Version: 6.00 Build 0)  -->
<svg version="1.1" id="Layer_1" xmlns="http://www.w3.org/2000/svg" xmlns:xlink="http://www.w3.org/1999/xlink" x="0px" y="0px"
	 viewBox="0 0 24 24" style="enable-background:new 0 0 24 24;" xml:space="preserve">
<style type="text/css">
	.st0{display:none;}
	.st1{display:inline;}
	.st2{fill:none;stroke:#000000;stroke-linejoin:round;stroke-miterlimit:10;}
	.st3{fill:none;stroke:#000000;stroke-linecap:round;stroke-linejoin:round;stroke-miterlimit:10;}
</style>
<g id="Filled_Icons" class="st0">
	<g class="st1">
		<path d="M5.9,0.2C5.7,0,5.3,0,5.1,0.2l-3,3C2,3.3,2,3.7,2.1,3.9c0.2,0.2,0.5,0.2,0.7,0L5,1.7v5.8C5,7.8,5.2,8,5.5,8
			C5.8,8,6,7.8,6,7.5V1.7l2.1,2.1C8.2,4,8.4,4,8.5,4c0.1,0,0.3,0,0.4-0.1C9,3.7,9,3.3,8.9,3.2L5.9,0.2z"/>
		<path d="M21.9,4.2c-0.2-0.2-0.5-0.2-0.7,0L19,6.3V0.5C19,0.2,18.8,0,18.5,0C18.2,0,18,0.2,18,0.5v5.8l-2.1-2.1
			c-0.2-0.2-0.5-0.2-0.7,0c-0.2,0.2-0.2,0.5,0,0.7l3,3c0.2,0.2,0.5,0.2,0.7,0l3-3C22,4.7,22,4.3,21.9,4.2z"/>
	</g>
	<path class="st1" d="M23.5,9h-23C0.2,9,0,9.2,0,9.5v14C0,23.8,0.2,24,0.5,24h23c0.3,0,0.5-0.2,0.5-0.5v-14C24,9.2,23.8,9,23.5,9z
		 M19,11.5c0.8,0,1.5,0.7,1.5,1.5c0,0.8-0.7,1.5-1.5,1.5c-0.8,0-1.5-0.7-1.5-1.5C17.5,12.2,18.2,11.5,19,11.5z M12,11.5
		c0.8,0,1.5,0.7,1.5,1.5c0,0.8-0.7,1.5-1.5,1.5c-0.8,0-1.5-0.7-1.5-1.5C10.5,12.2,11.2,11.5,12,11.5z M5,11.5c0.8,0,1.5,0.7,1.5,1.5
		c0,0.8-0.7,1.5-1.5,1.5c-0.8,0-1.5-0.7-1.5-1.5C3.5,12.2,4.2,11.5,5,11.5z M6.5,18.4v3.1h-3v-3.1c0,0-1-1.4-1-2.9h5
		C7.5,17,6.5,18.4,6.5,18.4z M13.5,18.4v3.1h-3v-3.1c0,0-1-1.4-1-2.9h5C14.5,17,13.5,18.4,13.5,18.4z M20.5,18.4v3.1h-3v-3.1
		c0,0-1-1.4-1-2.9h5C21.5,17,20.5,18.4,20.5,18.4z"/>
</g>
<g id="Outline_Icons">
	<g>
		<rect x="0.5" y="9.5" class="st2" width="23" height="14"/>
		<path class="st2" d="M7.5,15.5c0,1.5-1,2.9-1,2.9v3.1h-3v-3.1c0,0-1-1.4-1-2.9H7.5z"/>
		<line class="st3" x1="5.5" y1="0.5" x2="5.5" y2="7.5"/>
		<polyline class="st3" points="8.5,3.5 5.5,0.5 2.5,3.5 		"/>
		<line class="st3" x1="18.5" y1="7.5" x2="18.5" y2="0.5"/>
		<polyline class="st3" points="15.5,4.5 18.5,7.5 21.5,4.5 		"/>
		<circle class="st2" cx="5" cy="13.5" r="1.5"/>
		<path class="st2" d="M14.5,15.5c0,1.5-1,2.9-1,2.9v3.1h-3v-3.1c0,0-1-1.4-1-2.9H14.5z"/>
		<circle class="st2" cx="12" cy="13.5" r="1.5"/>
		<path class="st2" d="M21.5,15.5c0,1.5-1,2.9-1,2.9v3.1h-3v-3.1c0,0-1-1.4-1-2.9H21.5z"/>
		<circle class="st2" cx="19" cy="13.5" r="1.5"/>
	</g>
</g>
</svg>
