<?xml version="1.0" encoding="utf-8"?>
<!-- Generator: Adobe Illustrator 19.2.0, SVG Export Plug-In . SVG Version: 6.00 Build 0)  -->
<svg version="1.1" id="Layer_1" xmlns="http://www.w3.org/2000/svg" xmlns:xlink="http://www.w3.org/1999/xlink" x="0px" y="0px"
	 viewBox="0 0 24 24" style="enable-background:new 0 0 24 24;" xml:space="preserve">
<style type="text/css">
	.st0{display:none;}
	.st1{display:inline;}
	.st2{fill:none;stroke:#000000;stroke-linecap:round;stroke-linejoin:round;stroke-miterlimit:10;}
</style>
<g id="Filled_Icons" class="st0">
	<g class="st1">
		<path d="M17.8,15.9C17.7,16,17.6,16,17.5,16c-0.2,0-0.3-0.1-0.4-0.2c-0.2-0.2-0.1-0.5,0.1-0.7l6.2-4.3L20,8.5v-8
			C20,0.2,19.8,0,19.5,0h-15C4.2,0,4,0.2,4,0.5v8l-3.3,2.3l6.1,4.3c0.2,0.2,0.3,0.5,0.1,0.7C6.8,15.9,6.7,16,6.5,16
			c-0.1,0-0.2,0-0.3-0.1L0,11.5V22c0,1.1,0.9,2,2,2h20c1.1,0,2-0.9,2-2V11.6L17.8,15.9z M5,13V1h14v12H5z M20.9,20.8
			c-0.1,0.1-0.2,0.2-0.4,0.2c-0.1,0-0.2,0-0.3-0.1L15.3,17H8.7l-4.9,3.9c-0.2,0.2-0.5,0.1-0.7-0.1c-0.2-0.2-0.1-0.5,0.1-0.7l5-4
			C8.3,16,8.4,16,8.5,16h7c0.1,0,0.2,0,0.3,0.1l5,4C21,20.3,21.1,20.6,20.9,20.8z"/>
		<path d="M7.5,3h2C9.8,3,10,2.8,10,2.5C10,2.2,9.8,2,9.5,2h-2C7.2,2,7,2.2,7,2.5C7,2.8,7.2,3,7.5,3z"/>
		<path d="M16.5,5h-7C9.2,5,9,5.2,9,5.5C9,5.8,9.2,6,9.5,6h7C16.8,6,17,5.8,17,5.5C17,5.2,16.8,5,16.5,5z"/>
		<path d="M16.5,8h-9C7.2,8,7,8.2,7,8.5C7,8.8,7.2,9,7.5,9h9C16.8,9,17,8.8,17,8.5C17,8.2,16.8,8,16.5,8z"/>
		<path d="M16.5,11h-9C7.2,11,7,11.2,7,11.5C7,11.8,7.2,12,7.5,12h9c0.3,0,0.5-0.2,0.5-0.5C17,11.2,16.8,11,16.5,11z"/>
	</g>
</g>
<g id="Outline_Icons">
	<g>
		<path class="st2" d="M19.5,8.8l4,2.8V22c0,0.8-0.7,1.5-1.5,1.5H2c-0.8,0-1.5-0.7-1.5-1.5V11.5l4-2.8"/>
		<polyline class="st2" points="3.5,20.5 8.5,16.5 15.5,16.5 20.5,20.5 		"/>
		<line class="st2" x1="23.5" y1="11.5" x2="17.5" y2="15.5"/>
		<line class="st2" x1="0.5" y1="11.5" x2="6.5" y2="15.5"/>
		<polyline class="st2" points="19.5,14 19.5,0.5 4.5,0.5 4.5,14 		"/>
		<line class="st2" x1="7.5" y1="3.5" x2="9.5" y2="3.5"/>
		<line class="st2" x1="9.5" y1="6.5" x2="16.5" y2="6.5"/>
		<line class="st2" x1="7.5" y1="9.5" x2="16.5" y2="9.5"/>
		<line class="st2" x1="7.5" y1="12.5" x2="16.5" y2="12.5"/>
	</g>
</g>
</svg>
