<?xml version="1.0" encoding="utf-8"?>
<!-- Generator: Adobe Illustrator 19.2.0, SVG Export Plug-In . SVG Version: 6.00 Build 0)  -->
<svg version="1.1" id="Layer_1" xmlns="http://www.w3.org/2000/svg" xmlns:xlink="http://www.w3.org/1999/xlink" x="0px" y="0px"
	 viewBox="0 0 24 24" style="enable-background:new 0 0 24 24;" xml:space="preserve">
<style type="text/css">
	.st0{display:none;}
	.st1{display:inline;}
	.st2{fill:none;stroke:#000000;stroke-linecap:round;stroke-linejoin:round;stroke-miterlimit:10;}
	.st3{fill:none;stroke:#000000;stroke-linejoin:round;stroke-miterlimit:10;}
</style>
<g id="Filled_Icons" class="st0">
	<g class="st1">
		<path d="M18,9c1.5,0,2.9,0.5,4,1.3V3c0-0.4-0.1-0.7-0.3-1L11.3,8.4c-0.1,0.1-0.2,0.1-0.3,0.1c-0.1,0-0.2,0-0.3-0.1L0.3,2
			C0.1,2.3,0,2.6,0,3v11c0,1.1,0.9,2,2,2h9C11,12.1,14.1,9,18,9z"/>
		<path d="M21,1.3C20.7,1.1,20.3,1,20,1H2C1.7,1,1.3,1.1,1,1.3l10,6.2L21,1.3z"/>
		<path d="M18,10c-3.3,0-6,2.7-6,6c0,3.3,2.7,6,6,6c3.3,0,6-2.7,6-6C24,12.7,21.3,10,18,10z M19.5,17H17v-4c0-0.3,0.2-0.5,0.5-0.5
			c0.3,0,0.5,0.2,0.5,0.5v3h1.5c0.3,0,0.5,0.2,0.5,0.5C20,16.8,19.8,17,19.5,17z"/>
	</g>
</g>
<g id="Outline_Icons">
	<g>
		<path class="st2" d="M10,15.5H2c-0.8,0-1.5-0.7-1.5-1.5V3c0-0.8,0.7-1.5,1.5-1.5h18c0.8,0,1.5,0.7,1.5,1.5v5.5"/>
		<polyline class="st2" points="21,2 11,10 1,2 		"/>
		<circle class="st3" cx="18" cy="15" r="5.5"/>
		<polyline class="st2" points="19.5,15.5 17.5,15.5 17.5,12 		"/>
	</g>
</g>
</svg>
