<?xml version="1.0" encoding="utf-8"?>
<!-- Generator: Adobe Illustrator 19.2.0, SVG Export Plug-In . SVG Version: 6.00 Build 0)  -->
<svg version="1.1" id="Layer_1" xmlns="http://www.w3.org/2000/svg" xmlns:xlink="http://www.w3.org/1999/xlink" x="0px" y="0px"
	 viewBox="0 0 24 24" style="enable-background:new 0 0 24 24;" xml:space="preserve">
<style type="text/css">
	.st0{display:none;}
	.st1{display:inline;}
	.st2{fill:none;stroke:#000000;stroke-linejoin:round;stroke-miterlimit:10;}
	.st3{fill:none;stroke:#000000;stroke-linecap:round;stroke-linejoin:round;stroke-miterlimit:10;}
</style>
<g id="Filled_Icons" class="st0">
	<g class="st1">
		<path d="M21,1.3C20.7,1.1,20.3,1,20,1H2C1.7,1,1.3,1.1,1,1.3l10,6.2L21,1.3z"/>
		<path d="M18.2,9.5c1.4,0,2.7,0.4,3.8,1.1V3c0-0.4-0.1-0.7-0.3-1L11.3,8.4c-0.1,0.1-0.2,0.1-0.3,0.1c-0.1,0-0.2,0-0.3-0.1L0.3,2
			C0.1,2.3,0,2.6,0,3v11c0,1.1,0.9,2,2,2h9.5C11.6,12.4,14.6,9.5,18.2,9.5z"/>
		<path d="M18.2,12.5c-2.1,0-3.8,1.7-3.8,3.7c0,0.9,0.3,1.6,0.8,2.3l5.2-5.2C19.9,12.8,19.1,12.5,18.2,12.5z"/>
		<path d="M18.2,10.5c-3.2,0-5.8,2.6-5.8,5.7s2.6,5.8,5.8,5.8c3.2,0,5.8-2.6,5.8-5.8C24,13.1,21.4,10.5,18.2,10.5z M18.2,21
			c-2.6,0-4.8-2.1-4.8-4.8c0-2.6,2.1-4.7,4.8-4.7c2.6,0,4.8,2.1,4.8,4.7C23,18.9,20.9,21,18.2,21z"/>
		<path d="M21.2,14L16,19.2c0.6,0.5,1.4,0.8,2.3,0.8c2.1,0,3.8-1.7,3.8-3.8C22,15.4,21.7,14.6,21.2,14z"/>
	</g>
</g>
<g id="Outline_Icons">
	<g>
		<circle class="st2" cx="17.5" cy="15.5" r="6"/>
		<line class="st2" x1="13.3" y1="19.7" x2="21.7" y2="11.3"/>
		<path class="st3" d="M9.5,15.5H2c-0.8,0-1.5-0.7-1.5-1.5V3c0-0.8,0.7-1.5,1.5-1.5h18c0.8,0,1.5,0.7,1.5,1.5v4.5"/>
		<polyline class="st3" points="21,2 11,10 1,2 		"/>
	</g>
</g>
</svg>
