<?xml version="1.0" encoding="utf-8"?>
<!-- Generator: Adobe Illustrator 19.2.0, SVG Export Plug-In . SVG Version: 6.00 Build 0)  -->
<svg version="1.1" id="Layer_1" xmlns="http://www.w3.org/2000/svg" xmlns:xlink="http://www.w3.org/1999/xlink" x="0px" y="0px"
	 viewBox="0 0 24 24" style="enable-background:new 0 0 24 24;" xml:space="preserve">
<style type="text/css">
	.st0{display:none;}
	.st1{display:inline;}
	.st2{fill:none;stroke:#000000;stroke-linecap:round;stroke-linejoin:round;stroke-miterlimit:10;}
</style>
<g id="Filled_Icons" class="st0">
	<g class="st1">
		<path d="M21.7,12l-9.4,7.4c-0.1,0.1-0.2,0.1-0.3,0.1c-0.1,0-0.2,0-0.3-0.1L2.3,12C2.1,12.3,2,12.6,2,13v9c0,1.1,0.9,2,2,2h16
			c1.1,0,2-0.9,2-2v-9C22,12.6,21.9,12.3,21.7,12z"/>
		<path d="M21,11.3c-0.3-0.2-0.6-0.3-1-0.3H4c-0.4,0-0.7,0.1-1,0.3l9,7.1L21,11.3z"/>
		<path d="M11.1,9.4c0,0,0.1,0.1,0.2,0.1c0.1,0,0.1,0,0.2,0c0.1,0,0.1,0,0.2,0c0.1,0,0.1-0.1,0.2-0.1l4.5-4.5c0.2-0.2,0.2-0.5,0-0.7
			c-0.2-0.2-0.5-0.2-0.7,0L12,7.8V0.5C12,0.2,11.8,0,11.5,0C11.2,0,11,0.2,11,0.5v7.3L7.4,4.1C7.2,4,6.8,4,6.6,4.1
			c-0.2,0.2-0.2,0.5,0,0.7L11.1,9.4z"/>
	</g>
</g>
<g id="Outline_Icons">
	<g>
		<path class="st2" d="M21.5,22c0,0.8-0.7,1.5-1.5,1.5H4c-0.8,0-1.5-0.7-1.5-1.5v-9c0-0.8,0.7-1.5,1.5-1.5h16c0.8,0,1.5,0.7,1.5,1.5
			V22z"/>
		<polyline class="st2" points="21,12 12,19 3,12 		"/>
		<g>
			<line class="st2" x1="11.5" y1="9" x2="11.5" y2="0.5"/>
			<polyline class="st2" points="16,4.5 11.5,9 7,4.5 			"/>
		</g>
	</g>
</g>
</svg>
