<?xml version="1.0" encoding="utf-8"?>
<!-- Generator: Adobe Illustrator 19.2.0, SVG Export Plug-In . SVG Version: 6.00 Build 0)  -->
<svg version="1.1" id="Layer_1" xmlns="http://www.w3.org/2000/svg" xmlns:xlink="http://www.w3.org/1999/xlink" x="0px" y="0px"
	 viewBox="0 0 24 24" style="enable-background:new 0 0 24 24;" xml:space="preserve">
<style type="text/css">
	.st0{display:none;}
	.st1{display:inline;}
	.st2{fill:none;stroke:#000000;stroke-linecap:round;stroke-linejoin:round;stroke-miterlimit:10;}
	.st3{fill:none;stroke:#000000;stroke-linejoin:round;stroke-miterlimit:10;}
</style>
<g id="Filled_Icons" class="st0">
	<g class="st1">
		<path d="M15.2,10c1,0,2,0.4,2.8,1.1c0.8-0.7,1.7-1.1,2.8-1.1c0.4,0,0.8,0.1,1.2,0.2V3c0-0.4-0.1-0.7-0.3-1L11.3,8.4
			c-0.1,0.1-0.2,0.1-0.3,0.1c-0.1,0-0.2,0-0.3-0.1L0.3,2C0.1,2.3,0,2.6,0,3v11c0,1.1,0.9,2,2,2h9.3c-0.2-0.5-0.3-1-0.3-1.5
			C11,11.7,13.1,10,15.2,10z"/>
		<path d="M21,1.3C20.7,1.1,20.3,1,20,1H2C1.7,1,1.3,1.1,1,1.3l10,6.2L21,1.3z"/>
		<path d="M23.8,13.4C23.4,11.9,22,11,20.8,11c-0.9,0-1.8,0.4-2.4,1.2c-0.2,0.2-0.6,0.2-0.8,0C17,11.4,16.1,11,15.2,11
			c-1.3,0-2.6,0.9-3.1,2.4c-0.1,0.3-0.2,0.7-0.2,1.1c0,2.6,3.7,5.9,5.7,7.4c0,0,0,0,0,0C17.8,22,17.9,22,18,22c0.1,0,0.2,0,0.3-0.1
			c0,0,0,0,0,0c2.1-1.5,5.7-4.8,5.7-7.4C24,14.1,23.9,13.7,23.8,13.4z"/>
	</g>
</g>
<g id="Outline_Icons">
	<g>
		<path class="st2" d="M10,16.5H2c-0.8,0-1.5-0.7-1.5-1.5V4c0-0.8,0.7-1.5,1.5-1.5h18c0.8,0,1.5,0.7,1.5,1.5v4.5"/>
		<polyline class="st2" points="21.1,3 11,11 0.9,2.9 		"/>
		<path class="st3" d="M18,21.5c0,0,5.5-4,5.5-7c0-3.4-4.5-4.5-5.5-0.3c-1-4.2-5.5-3.1-5.5,0.3C12.5,17.5,18,21.5,18,21.5z"/>
	</g>
</g>
</svg>
