<?xml version="1.0" encoding="utf-8"?>
<!-- Generator: Adobe Illustrator 19.2.0, SVG Export Plug-In . SVG Version: 6.00 Build 0)  -->
<svg version="1.1" id="Layer_1" xmlns="http://www.w3.org/2000/svg" xmlns:xlink="http://www.w3.org/1999/xlink" x="0px" y="0px"
	 viewBox="0 0 24 24" style="enable-background:new 0 0 24 24;" xml:space="preserve">
<style type="text/css">
	.st0{display:none;}
	.st1{display:inline;}
	.st2{fill:none;stroke:#000000;stroke-linecap:round;stroke-linejoin:round;stroke-miterlimit:10;}
</style>
<g id="Filled_Icons" class="st0">
	<path class="st1" d="M22,4H2C0.9,4,0,4.9,0,6v12c0,1.1,0.9,2,2,2h20c1.1,0,2-0.9,2-2V6C24,4.9,23.1,4,22,4z M7.2,14.4l-3.5,2
		c-0.1,0-0.2,0.1-0.2,0.1c-0.2,0-0.3-0.1-0.4-0.3C2.9,16,3,15.7,3.3,15.6l3.5-2c0.2-0.1,0.5-0.1,0.7,0.2C7.6,14,7.5,14.3,7.2,14.4z
		 M12,14.5c-0.1,0-0.2,0-0.3-0.1L3.2,8.9C3,8.8,2.9,8.5,3.1,8.2C3.2,8,3.5,7.9,3.8,8.1l8.2,5.3l8.2-5.3c0.2-0.1,0.5-0.1,0.7,0.1
		c0.2,0.2,0.1,0.5-0.1,0.7l-8.5,5.5C12.2,14.5,12.1,14.5,12,14.5z M20.9,16.2c-0.1,0.2-0.3,0.3-0.4,0.3c-0.1,0-0.2,0-0.2-0.1l-3.5-2
		c-0.2-0.1-0.3-0.4-0.2-0.7c0.1-0.2,0.4-0.3,0.7-0.2l3.5,2C21,15.7,21.1,16,20.9,16.2z"/>
</g>
<g id="Outline_Icons">
	<g>
		<path class="st2" d="M23.5,18c0,0.8-0.7,1.5-1.5,1.5H2c-0.8,0-1.5-0.7-1.5-1.5V6c0-0.8,0.7-1.5,1.5-1.5h20c0.8,0,1.5,0.7,1.5,1.5
			V18z"/>
		<polyline class="st2" points="20.5,8.5 12,14 3.5,8.5 		"/>
		<line class="st2" x1="3.5" y1="16" x2="7" y2="14"/>
		<line class="st2" x1="20.5" y1="16" x2="17" y2="14"/>
	</g>
</g>
</svg>
