<?xml version="1.0" encoding="utf-8"?>
<!-- Generator: Adobe Illustrator 19.2.0, SVG Export Plug-In . SVG Version: 6.00 Build 0)  -->
<svg version="1.1" id="Layer_1" xmlns="http://www.w3.org/2000/svg" xmlns:xlink="http://www.w3.org/1999/xlink" x="0px" y="0px"
	 viewBox="0 0 24 24" style="enable-background:new 0 0 24 24;" xml:space="preserve">
<style type="text/css">
	.st0{display:none;}
	.st1{display:inline;}
	.st2{fill:none;stroke:#000000;stroke-linecap:round;stroke-linejoin:round;stroke-miterlimit:10;}
</style>
<g id="Filled_Icons" class="st0">
	<g class="st1">
		<path d="M21,1.3C20.7,1.1,20.3,1,20,1H2C1.7,1,1.3,1.1,1,1.3l10,6.2L21,1.3z"/>
		<path d="M16,9c0.3-0.6,0.8-0.9,1.5-0.9S18.7,8.4,19,9l3,6.1V3c0-0.4-0.1-0.7-0.3-1L11.3,8.4c-0.1,0.1-0.2,0.1-0.3,0.1
			c-0.1,0-0.2,0-0.3-0.1L0.3,2C0.1,2.3,0,2.6,0,3v11c0,1.1,0.9,2,2,2h10.6L16,9z"/>
		<path d="M23.9,21.2L23.9,21.2L21.3,16l0,0l-3.3-6.6c-0.1-0.2-0.3-0.4-0.6-0.4c-0.2,0-0.5,0.1-0.6,0.4L13.7,16l-2.6,5.3
			c-0.1,0.2-0.1,0.3,0,0.5c0.1,0.1,0.3,0.2,0.4,0.2h12c0,0,0,0,0,0c0.3,0,0.5-0.2,0.5-0.5C24,21.4,24,21.3,23.9,21.2z M17,13.9
			c0-0.3,0.2-0.5,0.5-0.5c0.3,0,0.5,0.2,0.5,0.5v3.3c0,0.3-0.2,0.5-0.5,0.5c-0.3,0-0.5-0.2-0.5-0.5V13.9z M17.5,19.8
			c-0.3,0-0.5-0.2-0.5-0.5c0-0.3,0.2-0.5,0.5-0.5c0.3,0,0.5,0.2,0.5,0.5C18,19.5,17.8,19.8,17.5,19.8z"/>
	</g>
</g>
<g id="Outline_Icons">
	<g>
		<path class="st2" d="M10,15.5H2c-0.8,0-1.5-0.7-1.5-1.5V3c0-0.8,0.7-1.5,1.5-1.5h18c0.8,0,1.5,0.7,1.5,1.5v5.5"/>
		<polyline class="st2" points="21,2 11,10 1,2 		"/>
		<polygon class="st2" points="23.5,20.5 11.5,20.5 17.5,8.5 		"/>
		<line class="st2" x1="17.5" y1="13.4" x2="17.5" y2="16.7"/>
		<g>
			<g>
				<g>
					<path d="M17.5,17.8c-0.3,0-0.5,0.2-0.5,0.5c0,0.3,0.2,0.5,0.5,0.5c0.3,0,0.5-0.2,0.5-0.5C18,18,17.8,17.8,17.5,17.8L17.5,17.8z
						"/>
				</g>
			</g>
		</g>
	</g>
</g>
</svg>
