<?xml version="1.0" encoding="utf-8"?>
<!-- Generator: Adobe Illustrator 19.2.0, SVG Export Plug-In . SVG Version: 6.00 Build 0)  -->
<svg version="1.1" id="Layer_1" xmlns="http://www.w3.org/2000/svg" xmlns:xlink="http://www.w3.org/1999/xlink" x="0px" y="0px"
	 viewBox="0 0 24 24" style="enable-background:new 0 0 24 24;" xml:space="preserve">
<style type="text/css">
	.st0{display:none;}
	.st1{display:inline;}
	.st2{fill:none;stroke:#000000;stroke-linecap:round;stroke-linejoin:round;stroke-miterlimit:10;}
	.st3{fill:none;stroke:#000000;stroke-linejoin:round;stroke-miterlimit:10;}
</style>
<g id="Filled_Icons" class="st0">
	<g class="st1">
		<path d="M11.2,14.1c0.2-0.6,0.8-1,1.5-1h2.3l1.5-2.9c0.3-0.6,0.8-0.9,1.5-0.9c0.6,0,1.2,0.4,1.5,0.9l1.5,2.9H22V3
			c0-0.4-0.1-0.7-0.3-1L11.3,8.4c-0.1,0.1-0.2,0.1-0.3,0.1c-0.1,0-0.2,0-0.3-0.1L0.3,2C0.1,2.3,0,2.6,0,3v11c0,1.1,0.9,2,2,2h10
			l-0.2-0.2C11.2,15.4,11,14.7,11.2,14.1z"/>
		<path d="M21,1.3C20.7,1.1,20.3,1,20,1H2C1.7,1,1.3,1.1,1,1.3l10,6.2L21,1.3z"/>
		<path d="M23.8,14.4c-0.1-0.2-0.3-0.4-0.6-0.4h-2.9l0,0l-1.7-3.5c-0.1-0.2-0.3-0.4-0.6-0.4c-0.2,0-0.4,0.1-0.6,0.4L15.7,14l0,0
			h-2.9c-0.3,0-0.5,0.1-0.6,0.4c-0.1,0.2,0,0.5,0.2,0.7l1.1,1l0,0l1.4,1.2l0,0l0,0l-1.3,3.9c0,0,0,0,0,0c-0.1,0.4,0,0.5,0.3,0.8
			c0.3,0,0.4,0,0.6-0.1l3.5-2.4l3.5,2.4c0.2,0.2,0.4,0.1,0.7,0.1c0.2-0.3,0.3-0.4,0.2-0.8c0,0,0,0,0,0l-1.3-3.9l0,0l0,0l2.5-2.1
			C23.9,14.9,23.9,14.6,23.8,14.4z"/>
	</g>
</g>
<g id="Outline_Icons">
	<g>
		<path class="st2" d="M10,15.5H2c-0.8,0-1.5-0.7-1.5-1.5V3c0-0.8,0.7-1.5,1.5-1.5h18c0.8,0,1.5,0.7,1.5,1.5v5.5"/>
		<polyline class="st2" points="21,2 11,10 1,2 		"/>
		<g>
			<polygon class="st3" points="18,9.5 20,13.5 23.5,13.5 20.5,16 22,20.5 18,17.8 14,20.5 15.5,16 12.5,13.5 16,13.5 			"/>
		</g>
	</g>
</g>
</svg>
