<?xml version="1.0" encoding="utf-8"?>
<!-- Generator: Adobe Illustrator 19.2.0, SVG Export Plug-In . SVG Version: 6.00 Build 0)  -->
<svg version="1.1" id="Layer_1" xmlns="http://www.w3.org/2000/svg" xmlns:xlink="http://www.w3.org/1999/xlink" x="0px" y="0px"
	 viewBox="0 0 24 24" style="enable-background:new 0 0 24 24;" xml:space="preserve">
<style type="text/css">
	.st0{display:none;}
	.st1{display:inline;}
	.st2{fill:none;stroke:#000000;stroke-linecap:round;stroke-linejoin:round;stroke-miterlimit:10;}
</style>
<g id="Filled_Icons" class="st0">
	<g class="st1">
		<path d="M8.9,15.8l4.2,7.9c0.1,0.2,0.3,0.3,0.4,0.3c0,0,0,0,0,0c0.2,0,0.4-0.1,0.4-0.3l10-22.9L8.9,15.8z"/>
		<path d="M0.3,10C0.1,10.1,0,10.3,0,10.5c0,0.2,0.1,0.4,0.3,0.5l7.9,4.2l15-15L0.3,10z"/>
	</g>
</g>
<g id="Outline_Icons">
	<g>
		<line class="st2" x1="23.5" y1="0.5" x2="9" y2="15"/>
		<polygon class="st2" points="13.5,23.5 9,15 0.5,10.5 23.5,0.5 		"/>
	</g>
</g>
</svg>
