<?xml version="1.0" encoding="utf-8"?>
<!-- Generator: Adobe Illustrator 19.2.0, SVG Export Plug-In . SVG Version: 6.00 Build 0)  -->
<svg version="1.1" id="Layer_1" xmlns="http://www.w3.org/2000/svg" xmlns:xlink="http://www.w3.org/1999/xlink" x="0px" y="0px"
	 viewBox="0 0 24 24" style="enable-background:new 0 0 24 24;" xml:space="preserve">
<style type="text/css">
	.st0{display:none;}
	.st1{display:inline;}
	.st2{fill:none;stroke:#000000;stroke-linecap:round;stroke-linejoin:round;stroke-miterlimit:10;}
	.st3{fill:none;stroke:#000000;stroke-linejoin:round;stroke-miterlimit:10;}
</style>
<g id="Filled_Icons" class="st0">
	<g class="st1">
		<g>
			<path d="M16.9,10.8l-2.1-5.2c-0.1-0.2-0.2-0.3-0.4-0.3c-0.2,0-0.4,0.1-0.5,0.2l-2,3l-2-1.7C9.8,6.8,9.6,6.7,9.5,6.8
				C9.3,6.8,9.2,6.9,9.1,7l-1.9,3.7c-0.1,0.2-0.1,0.3,0,0.5c0.1,0.1,0.3,0.2,0.4,0.2h8.8c0.2,0,0.3-0.1,0.4-0.2
				C17,11.1,17,11,16.9,10.8z"/>
			<circle cx="9.7" cy="3.7" r="1.4"/>
		</g>
		<path d="M17.8,15.9C17.7,16,17.6,16,17.5,16c-0.2,0-0.3-0.1-0.4-0.2c-0.2-0.2-0.1-0.5,0.1-0.7l6.3-4.2L20,8.5v-8
			C20,0.2,19.8,0,19.5,0h-15C4.2,0,4,0.2,4,0.5v8l-3.5,2.4l6.3,4.2c0.2,0.2,0.3,0.5,0.1,0.7C6.8,15.9,6.7,16,6.5,16
			c-0.1,0-0.2,0-0.3-0.1L0,11.8V22c0,1.1,0.9,2,2,2h20c1.1,0,2-0.9,2-2V11.8L17.8,15.9z M5,13V1h14v12H5z M20.9,20.8
			c-0.1,0.1-0.2,0.2-0.4,0.2c-0.1,0-0.2,0-0.3-0.1L15.3,17H8.7l-4.9,3.9c-0.2,0.2-0.5,0.1-0.7-0.1c-0.2-0.2-0.1-0.5,0.1-0.7l5-4
			C8.3,16,8.4,16,8.5,16h7c0.1,0,0.2,0,0.3,0.1l5,4C21,20.3,21.1,20.6,20.9,20.8z"/>
	</g>
</g>
<g id="Outline_Icons">
	<g>
		<path class="st2" d="M19.5,8.8l4,2.8V22c0,0.8-0.7,1.5-1.5,1.5H2c-0.8,0-1.5-0.7-1.5-1.5V11.5l4-2.8"/>
		<polyline class="st2" points="3.5,20.5 8.5,16.5 15.5,16.5 20.5,20.5 		"/>
		<line class="st2" x1="23.5" y1="11.5" x2="17.5" y2="15.5"/>
		<line class="st2" x1="0.5" y1="11.5" x2="6.5" y2="15.5"/>
		<polyline class="st2" points="19.5,14.2 19.5,0.5 4.5,0.5 4.5,14.2 		"/>
		<polygon class="st3" points="16.5,11.5 14.3,6.3 12,9.8 9.6,7.8 7.6,11.5 		"/>
		<circle class="st3" cx="9.7" cy="4.2" r="0.9"/>
	</g>
</g>
</svg>
