<?xml version="1.0" encoding="utf-8"?>
<!-- Generator: Adobe Illustrator 19.2.0, SVG Export Plug-In . SVG Version: 6.00 Build 0)  -->
<svg version="1.1" id="Layer_1" xmlns="http://www.w3.org/2000/svg" xmlns:xlink="http://www.w3.org/1999/xlink" x="0px" y="0px"
	 viewBox="0 0 24 24" style="enable-background:new 0 0 24 24;" xml:space="preserve">
<style type="text/css">
	.st0{display:none;}
	.st1{display:inline;}
	.st2{fill:none;stroke:#000000;stroke-linecap:round;stroke-linejoin:round;stroke-miterlimit:10;}
</style>
<g id="Filled_Icons" class="st0">
	<g class="st1">
		<path d="M23.8,7.6C23.5,7.2,23,7,22.5,7h-12c-1,0-2.2,0.8-2.6,1.8l-2.8,7c-0.2,0.6-0.2,1.1,0.1,1.6C5.5,17.8,5.9,18,6.5,18h12
			c1,0,2.2-0.8,2.6-1.8l2.8-7C24.1,8.6,24,8,23.8,7.6z M11.4,13.9l-3.5,2.5c-0.1,0.1-0.2,0.1-0.3,0.1c-0.2,0-0.3-0.1-0.4-0.2
			c-0.2-0.2-0.1-0.5,0.1-0.7l3.5-2.5c0.2-0.2,0.5-0.1,0.7,0.1C11.7,13.4,11.6,13.7,11.4,13.9z M18.8,16.4c-0.1,0-0.2,0.1-0.3,0.1
			c-0.2,0-0.3-0.1-0.4-0.2l-1.5-2.5c-0.1-0.2-0.1-0.5,0.2-0.7c0.2-0.1,0.5-0.1,0.7,0.2l1.5,2.5C19.2,16,19.1,16.3,18.8,16.4z
			 M21.4,9.9l-7.1,4c-0.1,0-0.2,0.1-0.2,0.1c-0.1,0-0.3-0.1-0.4-0.2l-3.9-4c-0.2-0.2-0.2-0.5,0-0.7c0.2-0.2,0.5-0.2,0.7,0l3.6,3.7
			l6.8-3.8c0.2-0.1,0.5,0,0.7,0.2C21.8,9.5,21.7,9.8,21.4,9.9z"/>
		<path d="M0.5,8h5C5.8,8,6,7.8,6,7.5C6,7.2,5.8,7,5.5,7h-5C0.2,7,0,7.2,0,7.5C0,7.8,0.2,8,0.5,8z"/>
		<path d="M2.5,16h-2C0.2,16,0,16.2,0,16.5C0,16.8,0.2,17,0.5,17h2C2.8,17,3,16.8,3,16.5C3,16.2,2.8,16,2.5,16z"/>
		<path d="M3.5,11h-3C0.2,11,0,11.2,0,11.5C0,11.8,0.2,12,0.5,12h3C3.8,12,4,11.8,4,11.5C4,11.2,3.8,11,3.5,11z"/>
	</g>
</g>
<g id="Outline_Icons">
	<g>
		<path class="st2" d="M20.6,16c-0.3,0.8-1.3,1.5-2.1,1.5h-12c-0.8,0-1.2-0.7-0.9-1.5l2.8-7c0.3-0.8,1.3-1.5,2.1-1.5h12
			c0.8,0,1.2,0.7,0.9,1.5L20.6,16z"/>
		<polyline class="st2" points="21.2,9.5 14.1,13.5 10.2,9.5 		"/>
		<line class="st2" x1="7.6" y1="16" x2="11.1" y2="13.5"/>
		<line class="st2" x1="18.6" y1="16" x2="17.1" y2="13.5"/>
		<line class="st2" x1="5.5" y1="7.5" x2="0.5" y2="7.5"/>
		<line class="st2" x1="2.5" y1="16.5" x2="0.5" y2="16.5"/>
		<line class="st2" x1="3.5" y1="11.5" x2="0.5" y2="11.5"/>
	</g>
</g>
</svg>
