<?xml version="1.0" encoding="utf-8"?>
<!-- Generator: Adobe Illustrator 19.2.0, SVG Export Plug-In . SVG Version: 6.00 Build 0)  -->
<svg version="1.1" id="Layer_1" xmlns="http://www.w3.org/2000/svg" xmlns:xlink="http://www.w3.org/1999/xlink" x="0px" y="0px"
	 viewBox="0 0 24 24" style="enable-background:new 0 0 24 24;" xml:space="preserve">
<style type="text/css">
	.st0{display:none;}
	.st1{display:inline;}
	.st2{fill:none;stroke:#000000;stroke-linecap:round;stroke-linejoin:round;stroke-miterlimit:10;}
</style>
<g id="Filled_Icons" class="st0">
	<g class="st1">
		<path d="M18.4,10.1L18.4,10.1c1.3,0,2.5,0.4,3.6,1.1l0.1-8c0-0.4-0.1-0.8-0.4-1.2L11.3,8.4c-0.1,0.1-0.2,0.1-0.3,0.1
			c-0.1,0-0.2,0-0.3-0.1L0.3,2C0.2,2.3,0.1,2.6,0.1,2.9L0,13.9c0,1.1,0.9,2,2,2L12,16C12.3,12.7,15.1,10.1,18.4,10.1z"/>
		<path d="M18.5,11.1c-3.2,0-5.5,2.5-5.6,5.4c0,3.2,2.6,5.8,5.9,5.6c2.8-0.2,5-2.5,5.1-5.3c0,0,0-0.1,0-0.1
			C24,13.6,21.5,11.1,18.5,11.1z M14.4,16.6c0-2.2,1.9-4,4.1-3.9c1,0,1.9,0.4,2.6,1l0-0.5c0-0.3,0.3-0.5,0.5-0.5
			c0.3,0,0.5,0.2,0.5,0.5l0,2.4l-2.4,0c-0.3,0-0.5-0.2-0.5-0.5c0-0.3,0.2-0.5,0.5-0.5l1,0c-0.5-0.6-1.3-1-2.2-1c0,0,0,0,0,0
			c-1.6,0-3,1.3-3,3L14.4,16.6z M18.4,20.6C18.4,20.6,18.4,20.6,18.4,20.6c-1,0-1.9-0.4-2.7-1l0,0.1c0,0.3-0.2,0.5-0.5,0.5
			c0,0,0,0,0,0c-0.3,0-0.5-0.2-0.5-0.5l0-2.1l2.1,0c0.3,0,0.5,0.2,0.5,0.5c0,0.3-0.2,0.5-0.5,0.5l-0.6,0c0.5,0.6,1.3,1,2.2,1
			c1.6,0,3-1.3,3-3l1,0C22.4,18.8,20.6,20.6,18.4,20.6z"/>
		<path d="M20.9,1.3c-0.2-0.1-0.5-0.2-0.8-0.2l-18-0.2C1.7,0.9,1.3,1,1,1.2l10,6.2L20.9,1.3z"/>
	</g>
</g>
<g id="Outline_Icons">
	<g>
		<g>
			<path class="st2" d="M10,15.5H2c-0.8,0-1.5-0.7-1.5-1.5V3c0-0.8,0.7-1.5,1.5-1.5h18c0.8,0,1.5,0.7,1.5,1.5v5.5"/>
			<polyline class="st2" points="21,2 11,10 1,2 			"/>
		</g>
		<g>
			<polyline class="st2" points="23,12 23,14.5 20.5,14.5 			"/>
			<path class="st2" d="M14.3,14.5c0.6-1.7,2.3-3,4.2-3s3.8,1.2,4.5,3"/>
			<g>
				<polyline class="st2" points="14.5,20 14.5,17.5 17,17.5 				"/>
				<path class="st2" d="M23.2,17.5c-0.6,1.7-2.3,3-4.2,3s-3.8-1.2-4.5-3"/>
			</g>
		</g>
	</g>
</g>
</svg>
