<?xml version="1.0" encoding="utf-8"?>
<!-- Generator: Adobe Illustrator 19.2.0, SVG Export Plug-In . SVG Version: 6.00 Build 0)  -->
<svg version="1.1" id="Layer_1" xmlns="http://www.w3.org/2000/svg" xmlns:xlink="http://www.w3.org/1999/xlink" x="0px" y="0px"
	 viewBox="0 0 24 24" style="enable-background:new 0 0 24 24;" xml:space="preserve">
<style type="text/css">
	.st0{display:none;}
	.st1{display:inline;}
	.st2{fill:none;stroke:#000000;stroke-linecap:round;stroke-linejoin:round;stroke-miterlimit:10;}
	.st3{fill:none;stroke:#000000;stroke-linejoin:round;stroke-miterlimit:10;}
</style>
<g id="Filled_Icons" class="st0">
	<g class="st1">
		<path d="M20.6,8.7c0.2-0.2,0.5-0.2,0.7,0L22,9.4V3c0-0.4-0.1-0.7-0.3-1L11.3,8.4c-0.1,0.1-0.2,0.1-0.3,0.1c-0.1,0-0.2,0-0.3-0.1
			L0.3,2C0.1,2.3,0,2.6,0,3v11c0,1.1,0.9,2,2,2h11.4L20.6,8.7z"/>
		<path d="M21,1.2C20.7,1.1,20.3,1,20,1H2C1.7,1,1.3,1.1,1,1.2l10,6.2L21,1.2z"/>
		<path d="M23.9,12.6L22,10.8l0,0l-1-1l-2,2l3.2,3.2l1.6-1.6c0.1-0.1,0.1-0.2,0.1-0.4C24,12.9,23.9,12.7,23.9,12.6z"/>
		<path d="M12,21.4c-0.1,0.2,0,0.4,0.1,0.5c0.1,0.1,0.3,0.2,0.5,0.1l3.2-0.9l-2.9-2.9L12,21.4z"/>
		<polygon points="14.8,16 14.8,16 13.5,17.3 16.7,20.5 21.2,16 21.2,16 21.5,15.7 18.3,12.5 		"/>
	</g>
</g>
<g id="Outline_Icons">
	<g>
		<path class="st2" d="M10,15.5H2c-0.8,0-1.5-0.7-1.5-1.5V3c0-0.8,0.7-1.5,1.5-1.5h18c0.8,0,1.5,0.7,1.5,1.5v5.5"/>
		<polyline class="st2" points="21,2 11,10 1,2 		"/>
		<g>
			<polygon class="st2" points="15.5,20.5 12,21.5 13,18 20.5,10.5 23,13 			"/>
			<line class="st3" x1="18.5" y1="12.5" x2="21" y2="15"/>
			<line class="st2" x1="13" y1="18" x2="15.5" y2="20.5"/>
		</g>
	</g>
</g>
</svg>
