<?xml version="1.0" encoding="utf-8"?>
<!-- Generator: Adobe Illustrator 19.2.0, SVG Export Plug-In . SVG Version: 6.00 Build 0)  -->
<svg version="1.1" id="Layer_1" xmlns="http://www.w3.org/2000/svg" xmlns:xlink="http://www.w3.org/1999/xlink" x="0px" y="0px"
	 viewBox="0 0 24 24" style="enable-background:new 0 0 24 24;" xml:space="preserve">
<style type="text/css">
	.st0{display:none;}
	.st1{display:inline;}
	.st2{fill:none;stroke:#000000;stroke-linecap:round;stroke-linejoin:round;stroke-miterlimit:10;}
</style>
<g id="Filled_Icons" class="st0">
	<g class="st1">
		<path d="M12,0C5.4,0,0,5.4,0,12c0,6.6,5.4,12,12,12c6.6,0,12-5.4,12-12C24,5.4,18.6,0,12,0z M20,16c0,1.1-0.9,2-2,2H6
			c-1.1,0-2-0.9-2-2V8c0-1.1,0.9-2,2-2h12c1.1,0,2,0.9,2,2V16z"/>
		<path d="M17.9,8.2c-0.2-0.2-0.5-0.2-0.7-0.1L12,12.4L6.8,8.1C6.6,7.9,6.3,8,6.1,8.2C5.9,8.4,6,8.7,6.2,8.9l3.6,3l-3.6,2.2
			c-0.2,0.1-0.3,0.5-0.2,0.7C6.2,14.9,6.3,15,6.5,15c0.1,0,0.2,0,0.3-0.1l3.9-2.4l1.1,0.9c0.1,0.1,0.2,0.1,0.3,0.1
			c0.1,0,0.2,0,0.3-0.1l1.1-0.9l3.9,2.4c0.1,0.1,0.2,0.1,0.3,0.1c0.2,0,0.3-0.1,0.4-0.2c0.1-0.2,0.1-0.5-0.2-0.7l-3.6-2.2l3.6-3
			C18,8.7,18.1,8.4,17.9,8.2z"/>
	</g>
</g>
<g id="Outline_Icons">
	<g>
		<path class="st2" d="M19.5,16c0,0.8-0.7,1.5-1.5,1.5H6c-0.8,0-1.5-0.7-1.5-1.5V8c0-0.8,0.7-1.5,1.5-1.5h12c0.8,0,1.5,0.7,1.5,1.5
			V16z"/>
		<polyline class="st2" points="17.5,8.5 12,13 6.5,8.5 		"/>
		<line class="st2" x1="17.5" y1="14.5" x2="13.5" y2="12"/>
		<line class="st2" x1="6.5" y1="14.5" x2="10.5" y2="12"/>
		<circle class="st2" cx="12" cy="12" r="11.5"/>
	</g>
</g>
</svg>
