<?xml version="1.0" encoding="utf-8"?>
<!-- Generator: Adobe Illustrator 19.2.0, SVG Export Plug-In . SVG Version: 6.00 Build 0)  -->
<svg version="1.1" id="Layer_1" xmlns="http://www.w3.org/2000/svg" xmlns:xlink="http://www.w3.org/1999/xlink" x="0px" y="0px"
	 viewBox="0 0 24 24" style="enable-background:new 0 0 24 24;" xml:space="preserve">
<style type="text/css">
	.st0{display:none;}
	.st1{display:inline;}
	.st2{fill:none;stroke:#000000;stroke-linejoin:round;stroke-miterlimit:10;}
</style>
<g id="Filled_Icons" class="st0">
	<g class="st1">
		<path d="M0.3,10.5C0.1,10.6,0,10.8,0,11c0,0.2,0.1,0.4,0.3,0.5l8.3,3.2L23.2,1.1L0.3,10.5z"/>
		<path d="M9,15.7L9,15.7l0,6.8C9,22.8,9.2,23,9.5,23c0.2,0,0.3-0.1,0.4-0.2l3.3-5.6l6,3.3c0.1,0.1,0.3,0.1,0.4,0
			c0.1-0.1,0.2-0.2,0.3-0.3l4-18.4L9,15.7z"/>
	</g>
</g>
<g id="Outline_Icons">
	<g>
		<polygon class="st2" points="23.5,1.5 0.5,11 9.5,14.5 		"/>
		<polygon class="st2" points="23.5,1.5 19.5,20 9.5,14.5 		"/>
		<polyline class="st2" points="9.5,14.5 9.5,22.5 13,16.5 		"/>
	</g>
</g>
</svg>
