<?xml version="1.0" encoding="utf-8"?>
<!-- Generator: Adobe Illustrator 19.2.0, SVG Export Plug-In . SVG Version: 6.00 Build 0)  -->
<svg version="1.1" id="Layer_1" xmlns="http://www.w3.org/2000/svg" xmlns:xlink="http://www.w3.org/1999/xlink" x="0px" y="0px"
	 viewBox="0 0 24 24" style="enable-background:new 0 0 24 24;" xml:space="preserve">
<style type="text/css">
	.st0{display:none;}
	.st1{display:inline;}
	.st2{fill:none;stroke:#000000;stroke-linecap:round;stroke-linejoin:round;stroke-miterlimit:10;}
	.st3{fill:none;stroke:#000000;stroke-linejoin:round;stroke-miterlimit:10;}
</style>
<g id="Filled_Icons" class="st0">
	<g class="st1">
		<path d="M11.1,8.4l10.1-8C20.9,0.1,20.5,0,20.1,0h-18C1.7,0,1.4,0.1,1,0.3L11.1,8.4z"/>
		<g>
			<path d="M12.1,9.3c0.2,0.2,0.2,0.4,0.3,0.7l1.1-0.9c0.4-0.4,1.1-0.4,1.6-0.2c0.5,0.2,0.9,0.8,0.9,1.4v0.4
				c2.2,0.3,4.1,1.2,5.5,2.6c0.2,0.2,0.3,0.3,0.5,0.5c0.1-0.2,0.2-0.5,0.2-0.8V2c0-0.3-0.1-0.6-0.2-0.9l-10,8
				C11.9,9.1,12,9.2,12.1,9.3z"/>
			<path d="M5.6,15C5.2,14.7,5,14.3,5,13.8c0-0.5,0.2-0.9,0.6-1.2L10,9.1C10.1,9,10.1,9,10.2,8.9L0.4,1C0.2,1.3,0.1,1.6,0.1,2v11
				c0,1.1,0.9,2,2,2L5.6,15L5.6,15z"/>
		</g>
		<path d="M20.8,14c-1.5-1.5-3.4-2.3-5.8-2.4v-1.3c0-0.2-0.1-0.4-0.3-0.5c-0.2-0.1-0.4-0.1-0.5,0.1l-4.4,3.6
			c-0.1,0.1-0.2,0.2-0.2,0.4c0,0.2,0.1,0.3,0.2,0.4l4.4,3.6c0.1,0.1,0.4,0.1,0.5,0.1c0.2-0.1,0.3-0.3,0.3-0.4v-1.3
			c7,0.3,7.9,6,7.9,6.2c0,0.2,0.2,0.4,0.5,0.4c0,0,0,0,0,0c0.3,0,0.5-0.2,0.5-0.5C23.8,22,23.9,17.1,20.8,14z"/>
		<g>
			<path d="M10.9,17.9c-0.1,0-0.2,0-0.3-0.1l-4.4-3.6C6.1,14.1,6,14,6,13.8c0-0.2,0.1-0.3,0.2-0.4l4.4-3.6c0.2-0.2,0.5-0.1,0.7,0.1
				c0.2,0.2,0.1,0.5-0.1,0.7l-4,3.2l4,3.2c0.2,0.2,0.2,0.5,0.1,0.7C11.2,17.8,11.1,17.9,10.9,17.9z"/>
		</g>
	</g>
</g>
<g id="Outline_Icons">
	<g>
		<path class="st2" d="M5,14.5H2c-0.8,0-1.5-0.7-1.5-1.5V2c0-0.8,0.7-1.5,1.5-1.5h18c0.8,0,1.5,0.7,1.5,1.5v7.1"/>
		<polyline class="st2" points="21,1 11,8 1,1 		"/>
		<path class="st3" d="M14.5,17.4c0,0,0-0.4,0-1.8c8,0,8.9,6.7,8.9,6.7S23.5,12,14.5,12c0-0.4,0-1.8,0-1.8L10,13.8L14.5,17.4z"/>
		<polyline class="st2" points="10.9,10.2 6.5,13.8 10.9,17.4 		"/>
	</g>
</g>
</svg>
