<?xml version="1.0" encoding="utf-8"?>
<!-- Generator: Adobe Illustrator 19.2.0, SVG Export Plug-In . SVG Version: 6.00 Build 0)  -->
<svg version="1.1" id="Layer_1" xmlns="http://www.w3.org/2000/svg" xmlns:xlink="http://www.w3.org/1999/xlink" x="0px" y="0px"
	 viewBox="0 0 24 24" style="enable-background:new 0 0 24 24;" xml:space="preserve">
<style type="text/css">
	.st0{display:none;}
	.st1{display:inline;}
	.st2{fill:none;stroke:#000000;stroke-linecap:round;stroke-linejoin:round;stroke-miterlimit:10;}
</style>
<g id="Filled_Icons" class="st0">
	<g class="st1">
		<path d="M12,2C9.2,2,7,4.2,7,7c0,2.8,2.2,5,5,5c1,0,2-0.3,2.8-0.9c0.2-0.2,0.3-0.5,0.1-0.7c-0.2-0.2-0.5-0.3-0.7-0.1
			C13.6,10.8,12.8,11,12,11c-2.2,0-4-1.8-4-4c0-2.2,1.8-4,4-4c2.2,0,4,1.8,4,4v0.4c0,0.5-0.4,0.9-0.9,0.9c-0.5,0-0.9-0.4-0.9-0.9V7
			c0-1.2-1-2.3-2.3-2.3c-1.2,0-2.3,1-2.3,2.3c0,1.2,1,2.3,2.3,2.3c0.7,0,1.2-0.3,1.7-0.7C14,9,14.5,9.3,15.1,9.3
			c1,0,1.9-0.8,1.9-1.9V7C17,4.2,14.8,2,12,2z M12,8.3c-0.7,0-1.3-0.6-1.3-1.3c0-0.7,0.6-1.3,1.3-1.3c0.7,0,1.3,0.6,1.3,1.3
			C13.3,7.7,12.7,8.3,12,8.3z"/>
		<path d="M17.8,15.9C17.7,16,17.6,16,17.5,16c-0.2,0-0.3-0.1-0.4-0.2c-0.2-0.2-0.1-0.5,0.1-0.7l6.3-4.2L20,8.5v-8
			C20,0.2,19.8,0,19.5,0h-15C4.2,0,4,0.2,4,0.5v8l-3.5,2.4l6.3,4.2c0.2,0.2,0.3,0.5,0.1,0.7C6.8,15.9,6.7,16,6.5,16
			c-0.1,0-0.2,0-0.3-0.1L0,11.8V22c0,1.1,0.9,2,2,2h20c1.1,0,2-0.9,2-2V11.8L17.8,15.9z M5,13V1h14v12H5z M20.9,20.8
			c-0.1,0.1-0.2,0.2-0.4,0.2c-0.1,0-0.2,0-0.3-0.1L15.3,17H8.7l-4.9,3.9c-0.2,0.2-0.5,0.1-0.7-0.1c-0.2-0.2-0.1-0.5,0.1-0.7l5-4
			C8.3,16,8.4,16,8.5,16h7c0.1,0,0.2,0,0.3,0.1l5,4C21,20.3,21.1,20.6,20.9,20.8z"/>
	</g>
</g>
<g id="Outline_Icons">
	<g>
		<path class="st2" d="M19.5,8.8l4,2.8V22c0,0.8-0.7,1.5-1.5,1.5H2c-0.8,0-1.5-0.7-1.5-1.5V11.5l4-2.8"/>
		<polyline class="st2" points="3.5,20.5 8.5,16.5 15.5,16.5 20.5,20.5 		"/>
		<line class="st2" x1="23.5" y1="11.5" x2="17.5" y2="15.5"/>
		<line class="st2" x1="0.5" y1="11.5" x2="6.5" y2="15.5"/>
		<polyline class="st2" points="19.5,14.2 19.5,0.5 4.5,0.5 4.5,14.2 		"/>
		<g>
			<circle class="st2" cx="12" cy="8" r="1.8"/>
			<path class="st2" d="M14.5,11.7c-0.7,0.5-1.6,0.8-2.5,0.8c-2.5,0-4.5-2-4.5-4.5c0-2.5,2-4.5,4.5-4.5c2.5,0,4.5,2,4.5,4.5v0.4
				c0,0.8-0.6,1.4-1.4,1.4c-0.8,0-1.4-0.6-1.4-1.4V8"/>
		</g>
	</g>
</g>
</svg>
