<?xml version="1.0" encoding="utf-8"?>
<!-- Generator: Adobe Illustrator 19.2.0, SVG Export Plug-In . SVG Version: 6.00 Build 0)  -->
<svg version="1.1" id="Layer_1" xmlns="http://www.w3.org/2000/svg" xmlns:xlink="http://www.w3.org/1999/xlink" x="0px" y="0px"
	 viewBox="0 0 24 24" style="enable-background:new 0 0 24 24;" xml:space="preserve">
<style type="text/css">
	.st0{display:none;}
	.st1{display:inline;}
	.st2{fill:none;stroke:#000000;stroke-linecap:round;stroke-linejoin:round;stroke-miterlimit:10;}
	.st3{fill:none;stroke:#000000;stroke-linejoin:round;stroke-miterlimit:10;}
</style>
<g id="Filled_Icons" class="st0">
	<g class="st1">
		<g>
			<path d="M11,8.4l10.1-8C20.8,0.1,20.4,0,20,0H2C1.6,0,1.3,0.1,1,0.3L11,8.4z"/>
			<path d="M9.2,14.9c-0.4-0.3-0.6-0.7-0.6-1.2c0-0.5,0.2-0.9,0.6-1.2l4.3-3.5c0.5-0.4,1.1-0.4,1.6-0.2c0.5,0.2,0.8,0.8,0.8,1.4v0.3
				c2.2,0.3,4.1,1.2,5.6,2.7c0.1,0.1,0.2,0.3,0.3,0.4C22,13.5,22,13.2,22,13V2c0-0.3-0.1-0.6-0.2-0.9L11.3,9.4
				c-0.1,0.1-0.2,0.1-0.3,0.1c-0.1,0-0.2,0-0.3-0.1L0.3,1C0.1,1.3,0,1.6,0,2v11c0,1.1,0.9,2,2,2L9.2,14.9L9.2,14.9z"/>
		</g>
		<path d="M20.8,14c-1.5-1.5-3.4-2.3-5.8-2.4v-1.2c0-0.2-0.1-0.4-0.3-0.5c-0.2-0.1-0.4-0.1-0.5,0.1l-4.3,3.5
			c-0.1,0.1-0.2,0.2-0.2,0.4c0,0.2,0.1,0.3,0.2,0.4l4.3,3.5c0.2,0.1,0.4,0.1,0.5,0.1c0.2-0.1,0.3-0.3,0.3-0.5V16
			c7,0.3,7.6,5.8,7.7,6c0,0.3,0.2,0.4,0.5,0.4c0,0,0,0,0,0c0.3,0,0.5-0.2,0.5-0.5C23.7,21.8,23.8,17,20.8,14z"/>
	</g>
</g>
<g id="Outline_Icons">
	<g>
		<path class="st2" d="M7,14.5H2c-0.8,0-1.5-0.7-1.5-1.5V2c0-0.8,0.7-1.5,1.5-1.5h18c0.8,0,1.5,0.7,1.5,1.5v7.1"/>
		<polyline class="st2" points="21,1 11,9 1,1 		"/>
		<path class="st3" d="M14.5,17.2c0,0,0-0.4,0-1.7c8,0,8.7,6.5,8.7,6.5s0.3-10-8.7-10c0-0.4,0-1.7,0-1.7l-4.3,3.5L14.5,17.2z"/>
	</g>
</g>
</svg>
