<?xml version="1.0" encoding="utf-8"?>
<!-- Generator: Adobe Illustrator 19.2.0, SVG Export Plug-In . SVG Version: 6.00 Build 0)  -->
<svg version="1.1" id="Layer_1" xmlns="http://www.w3.org/2000/svg" xmlns:xlink="http://www.w3.org/1999/xlink" x="0px" y="0px"
	 viewBox="0 0 24 24" style="enable-background:new 0 0 24 24;" xml:space="preserve">
<style type="text/css">
	.st0{display:none;}
	.st1{display:inline;}
	.st2{fill:none;stroke:#000000;stroke-linecap:round;stroke-linejoin:round;stroke-miterlimit:10;}
	.st3{fill:none;stroke:#000000;stroke-linejoin:round;stroke-miterlimit:10;}
</style>
<g id="Filled_Icons" class="st0">
	<g class="st1">
		<path d="M19,9c1,0,2.1,0.5,3,1.3V3c0-0.4-0.1-0.7-0.3-1L11.3,8.4c-0.1,0.1-0.2,0.1-0.3,0.1c-0.1,0-0.2,0-0.3-0.1L0.3,2
			C0.1,2.3,0,2.6,0,3v11c0,1.1,0.9,2,2,2h10.9v-1.9c0-0.6,0.5-0.9,0.9-0.9h0.7C14.6,10.9,17.1,9,19,9z"/>
		<path d="M21,1.3C20.7,1.1,20.3,1,20,1H2C1.7,1,1.3,1.1,1,1.3l10,6.2L21,1.3z"/>
		<path d="M23.5,14h-0.7v-0.5c0-1.9-1.9-3.8-3.8-3.8c-1.9,0-3.8,1.9-3.8,3.8V14h-0.7c-0.3,0-0.5,0.2-0.5,0.5v7
			c0,0.3,0.2,0.5,0.5,0.5h9c0.3,0,0.5-0.2,0.5-0.5v-7C24,14.2,23.8,14,23.5,14z M19.6,17.8C19.6,17.8,19.5,17.8,19.6,17.8l-0.1,1.9
			c0,0.3-0.2,0.5-0.5,0.5c-0.3,0-0.5-0.2-0.5-0.5v-1.8c-0.2-0.1-0.3-0.4-0.3-0.6c0-0.5,0.4-0.8,0.8-0.8l0,0c0.5,0,0.8,0.4,0.8,0.8
			C19.8,17.4,19.7,17.6,19.6,17.8z M16.2,14.1L16.2,14.1v-0.6c0-1.3,1.4-2.8,2.8-2.8c1.3,0,2.8,1.4,2.8,2.8v0.6l0,0H16.2z"/>
	</g>
</g>
<g id="Outline_Icons">
	<g>
		<path class="st2" d="M11,16.5H2c-0.8,0-1.5-0.7-1.5-1.5V4c0-0.8,0.7-1.5,1.5-1.5h18c0.8,0,1.5,0.7,1.5,1.5v4.5"/>
		<polyline class="st2" points="21,3 11,11 1,3 		"/>
		<rect x="14.5" y="14.5" class="st2" width="9" height="7"/>
		<line class="st2" x1="19" y1="19.5" x2="19" y2="17.5"/>
		<path class="st2" d="M16,14.5v-1c0-1.7,1.3-3,3-3c1.7,0,3,1.3,3,3v1"/>
		<path class="st3" d="M19.5,17c0,0.3-0.2,0.5-0.5,0.5l0,0c-0.3,0-0.5-0.2-0.5-0.5l0,0c0-0.3,0.2-0.5,0.5-0.5l0,0
			C19.3,16.5,19.5,16.7,19.5,17L19.5,17z"/>
	</g>
</g>
</svg>
