<?xml version="1.0" encoding="utf-8"?>
<!-- Generator: Adobe Illustrator 19.2.0, SVG Export Plug-In . SVG Version: 6.00 Build 0)  -->
<svg version="1.1" id="Layer_1" xmlns="http://www.w3.org/2000/svg" xmlns:xlink="http://www.w3.org/1999/xlink" x="0px" y="0px"
	 viewBox="0 0 24 24" style="enable-background:new 0 0 24 24;" xml:space="preserve">
<style type="text/css">
	.st0{display:none;}
	.st1{display:inline;}
	.st2{fill:none;stroke:#000000;stroke-linecap:round;stroke-linejoin:round;stroke-miterlimit:10;}
	.st3{fill:none;stroke:#000000;stroke-linejoin:round;stroke-miterlimit:10;}
</style>
<g id="Filled_Icons" class="st0">
	<g class="st1">
		<path d="M11.1,15.5C11.1,15.5,11.1,15.4,11.1,15.5c-1.2-0.7-1.3-1.6-0.9-2.4c0.8-1.3,1.9-4.3,3.7-3.3l0.3,0.2c0,0,0.1,0,0.1-0.1
			V9.5c0-0.9,0.7-1.5,1.6-1.5h3.2c0.9,0,1.6,0.7,1.6,1.5v0.4c0,0,0.1,0,0.1,0.1l0.7-0.4l0.6,0V3c0-0.4-0.1-0.7-0.3-1L11.3,8.4
			c-0.1,0.1-0.2,0.1-0.3,0.1c-0.1,0-0.2,0-0.3-0.1L0.3,2C0.1,2.3,0,2.6,0,3v11c0,1.1,0.9,2,2,2h8.5C10.7,15.8,10.8,15.7,11.1,15.5
			C11.1,15.5,11.1,15.5,11.1,15.5z"/>
		<path d="M23.7,16.6c-0.1-0.1-0.7-0.4-0.8-0.5c0-0.2,0-0.4,0-0.6c0-0.2,0-0.4,0-0.6l0.4-0.3l0.4-0.2c0.1-0.1,0.2-0.2,0.3-0.3
			c0-0.1,0-0.3-0.1-0.4c-0.2-0.3-1.4-2.4-1.6-2.7c-0.1-0.3-0.3-0.3-0.6-0.3l-1,0.6L20.5,11c-0.2-0.1-0.4-0.2-0.6-0.3l-0.3-0.1v-1
			c0-0.3-0.2-0.5-0.6-0.5h-3.2c-0.3,0-0.6,0.2-0.6,0.5v1l-0.3,0.1c-0.2,0.1-0.4,0.2-0.6,0.3l-0.3,0.2l-0.8-0.5
			c-0.1,0-0.2-0.1-0.3-0.1c-0.5,0-1.8,2.5-2.1,3C11,13.7,11,13.9,11,14c0.1,0.3,0.7,0.6,1.1,0.8c0,0.2,0,0.4,0,0.6
			c0,0.2,0,0.4,0,0.6l0,0l0,0l-0.6,0.4l-0.2,0.1c-0.2,0.1-0.4,0.5-0.2,0.8l1.6,2.7c0.1,0.1,0.2,0.2,0.3,0.3c0.1,0,0.3,0,0.4-0.1
			l0.9-0.5c0.1,0.1,0.3,0.2,0.4,0.2c0.1,0.1,0.2,0.1,0.3,0.2c0.1,0.1,0.3,0.1,0.4,0.2v0v1c0,0.3,0.2,0.6,0.5,0.6h3.2
			c0.3,0,0.5-0.2,0.5-0.6v-1v0c0.3-0.1,0.8-0.4,1.1-0.6l0,0l0,0L21,20l0.6,0.3c0.1,0.1,0.3,0.1,0.4,0.1c0.1,0,0.3-0.1,0.3-0.3
			l1.6-2.7C24,17.1,24,16.8,23.7,16.6z M17.5,18.2c-1.5,0-2.7-1.2-2.7-2.7c0-1.5,1.2-2.7,2.7-2.7c1.5,0,2.7,1.2,2.7,2.7
			C20.2,17,19,18.2,17.5,18.2z"/>
		<path d="M21,1.3C20.7,1.1,20.3,1,20,1H2C1.7,1,1.3,1.1,1,1.3l10,6.2L21,1.3z"/>
	</g>
</g>
<g id="Outline_Icons">
	<g>
		<path class="st2" d="M9.5,15.5H2c-0.8,0-1.5-0.7-1.5-1.5V3c0-0.8,0.6-1.5,1.5-1.5h18c0.8,0,1.5,0.7,1.5,1.5v4.5"/>
		<polyline class="st2" points="21,2 11,10 0.9,2 		"/>
		<g>
			<path class="st3" d="M15.9,10.4c-0.5,0.2-1.1,0.5-1.6,0.9l-1.2-0.7l-1.6,2.8l1.2,0.7c-0.1,0.3-0.1,0.6-0.1,0.9
				c0,0.3,0,0.6,0.1,0.9l-1.2,0.7l1.6,2.8l1.2-0.7c0.5,0.4,1,0.7,1.6,0.9V21h3.3v-1.4c0.5-0.2,1.1-0.5,1.5-0.9l1.2,0.7l1.6-2.8
				l-1.2-0.7c0.1-0.3,0.1-0.6,0.1-0.9c0-0.3,0-0.6-0.1-0.9l1.2-0.7l-1.6-2.8l-1.2,0.7c-0.5-0.4-1-0.7-1.5-0.9V9h-3.3L15.9,10.4
				L15.9,10.4z"/>
		</g>
		<circle class="st3" cx="17.5" cy="15" r="2.2"/>
	</g>
</g>
</svg>
