<?xml version="1.0" encoding="utf-8"?>
<!-- Generator: Adobe Illustrator 19.2.0, SVG Export Plug-In . SVG Version: 6.00 Build 0)  -->
<svg version="1.1" id="Layer_1" xmlns="http://www.w3.org/2000/svg" xmlns:xlink="http://www.w3.org/1999/xlink" x="0px" y="0px"
	 viewBox="0 0 24 24" style="enable-background:new 0 0 24 24;" xml:space="preserve">
<style type="text/css">
	.st0{display:none;}
	.st1{display:inline;}
	.st2{fill:none;stroke:#000000;stroke-linecap:round;stroke-linejoin:round;stroke-miterlimit:10;}
</style>
<g id="Filled_Icons" class="st0">
	<g class="st1">
		<path d="M21.5,18c-0.9,0-1.7,0.5-2.1,1.2L16,17.9c0-0.1,0-0.3,0-0.4c0-0.2,0-0.4-0.1-0.6l3.6-1.8c0.5,0.6,1.2,1,2,1
			c1.4,0,2.5-1.1,2.5-2.5c0-1.4-1.1-2.5-2.5-2.5c-1.4,0-2.5,1.1-2.5,2.5c0,0.2,0,0.4,0.1,0.6L15.5,16c-0.5-0.6-1.2-1-2-1
			c-1.4,0-2.5,1.1-2.5,2.5c0,1.4,1.1,2.5,2.5,2.5c0.9,0,1.7-0.5,2.1-1.2l3.4,1.3c0,0.1,0,0.3,0,0.4c0,1.4,1.1,2.5,2.5,2.5
			c1.4,0,2.5-1.1,2.5-2.5C24,19.1,22.9,18,21.5,18z M21.5,12c0.8,0,1.5,0.7,1.5,1.5c0,0.8-0.7,1.5-1.5,1.5c-0.8,0-1.5-0.7-1.5-1.5
			C20,12.7,20.7,12,21.5,12z M13.5,19c-0.8,0-1.5-0.7-1.5-1.5c0-0.8,0.7-1.5,1.5-1.5c0.8,0,1.5,0.7,1.5,1.5C15,18.3,14.3,19,13.5,19
			z M21.5,22c-0.8,0-1.5-0.7-1.5-1.5c0-0.8,0.7-1.5,1.5-1.5c0.8,0,1.5,0.7,1.5,1.5C23,21.3,22.3,22,21.5,22z"/>
		<path d="M11,9.4l10.1-8C20.8,1.1,20.4,1,20,1H2C1.6,1,1.2,1.1,0.9,1.3L11,9.4z"/>
		<path d="M13.5,14c0.8,0,1.5,0.3,2.1,0.8l2.4-1.2c0,0,0,0,0-0.1c0-1.9,1.6-3.5,3.5-3.5c0.2,0,0.3,0,0.5,0.1V3
			c0-0.3-0.1-0.7-0.2-0.9l-10.4,8.3c-0.1,0.1-0.2,0.1-0.3,0.1c-0.1,0-0.2,0-0.3-0.1L0.3,2C0.1,2.3,0,2.6,0,3v11c0,1.1,0.9,2,2,2h8.4
			C10.9,14.8,12.1,14,13.5,14z"/>
	</g>
</g>
<g id="Outline_Icons">
	<g>
		<path class="st2" d="M10,15.5H2c-0.8,0-1.5-0.7-1.5-1.5V3c0-0.8,0.7-1.5,1.5-1.5h18c0.8,0,1.5,0.7,1.5,1.5v5.5"/>
		<polyline class="st2" points="21,2 11,10 1,2 		"/>
		<g>
			<circle class="st2" cx="21.5" cy="13.5" r="2"/>
			<circle class="st2" cx="21.5" cy="20.5" r="2"/>
			<circle class="st2" cx="13.5" cy="17.5" r="2"/>
			<line class="st2" x1="15.3" y1="16.6" x2="19.7" y2="14.4"/>
			<line class="st2" x1="15.4" y1="18.2" x2="19.6" y2="19.8"/>
		</g>
	</g>
</g>
</svg>
