<?xml version="1.0" encoding="utf-8"?>
<!-- Generator: Adobe Illustrator 19.2.0, SVG Export Plug-In . SVG Version: 6.00 Build 0)  -->
<svg version="1.1" id="Layer_1" xmlns="http://www.w3.org/2000/svg" xmlns:xlink="http://www.w3.org/1999/xlink" x="0px" y="0px"
	 viewBox="0 0 24 24" style="enable-background:new 0 0 24 24;" xml:space="preserve">
<style type="text/css">
	.st0{display:none;}
	.st1{display:inline;}
	.st2{fill:none;stroke:#000000;stroke-linecap:round;stroke-linejoin:round;stroke-miterlimit:10;}
	.st3{fill:none;stroke:#000000;stroke-linejoin:round;stroke-miterlimit:10;}
</style>
<g id="Filled_Icons" class="st0">
	<g class="st1">
		<path d="M11,8.4l10.1-8C20.8,0.1,20.4,0,20,0H2C1.6,0,1.3,0.1,0.9,0.3L11,8.4z"/>
		<path d="M9,13.5c0-0.8,0.7-1.5,1.5-1.5H16v-1.5c0-0.6,0.4-1.1,0.9-1.4c0.5-0.2,1.2-0.1,1.6,0.3l3.5,3.2V2c0-0.3-0.1-0.6-0.2-0.9
			L11.3,9.4c-0.1,0.1-0.2,0.1-0.3,0.1c-0.1,0-0.2,0-0.3-0.1L0.3,1C0.1,1.3,0,1.6,0,2v11c0,1.1,0.9,2,2,2h7V13.5z"/>
		<path d="M23.8,15.6l-6-5.5C17.7,10,17.5,10,17.3,10c-0.2,0.1-0.3,0.3-0.3,0.5V13h-6.5c-0.3,0-0.5,0.2-0.5,0.5v5
			c0,0.3,0.2,0.5,0.5,0.5H17v2.5c0,0.2,0.1,0.4,0.3,0.5c0.1,0,0.1,0,0.2,0c0.1,0,0.2,0,0.3-0.1l6-5.5c0.1-0.1,0.2-0.2,0.2-0.4
			C24,15.9,23.9,15.7,23.8,15.6z"/>
	</g>
</g>
<g id="Outline_Icons">
	<g>
		<path class="st2" d="M8,15.5H2c-0.8,0-1.5-0.7-1.5-1.5V3c0-0.8,0.7-1.5,1.5-1.5h18c0.8,0,1.5,0.7,1.5,1.5v6.1"/>
		<polyline class="st2" points="21,2 11,10 1,2 		"/>
		<polygon class="st3" points="17.5,18.5 17.5,21.5 23.5,16 17.5,10.5 17.5,13.5 10.5,13.5 10.5,18.5 		"/>
	</g>
</g>
</svg>
