<?xml version="1.0" encoding="utf-8"?>
<!-- Generator: Adobe Illustrator 19.2.0, SVG Export Plug-In . SVG Version: 6.00 Build 0)  -->
<svg version="1.1" id="Layer_1" xmlns="http://www.w3.org/2000/svg" xmlns:xlink="http://www.w3.org/1999/xlink" x="0px" y="0px"
	 viewBox="0 0 24 24" style="enable-background:new 0 0 24 24;" xml:space="preserve">
<style type="text/css">
	.st0{display:none;}
	.st1{display:inline;}
	.st2{fill:none;stroke:#000000;stroke-linecap:round;stroke-linejoin:round;stroke-miterlimit:10;}
	.st3{fill:none;stroke:#000000;stroke-linejoin:round;stroke-miterlimit:10;}
</style>
<g id="Filled_Icons" class="st0">
	<g class="st1">
		<path d="M17.8,12.5c1.2,0,2.3,0.4,3.2,1.1v-5l-6.3,3.4c-0.1,0-0.2,0.1-0.2,0.1c-0.2,0-0.3-0.1-0.4-0.3c-0.1-0.2,0-0.5,0.2-0.7
			l6.1-3.3l-9.6-7.7c-0.2-0.1-0.4-0.1-0.6,0L0.6,7.8l6.1,3.3c0.2,0.1,0.3,0.4,0.2,0.7C6.9,11.9,6.7,12,6.5,12c-0.1,0-0.2,0-0.2-0.1
			L0,8.6V18c0,1.1,0.9,2,2,2h11c-0.3-0.7-0.5-1.4-0.5-2.2C12.5,14.9,14.9,12.5,17.8,12.5z M3.8,16.9C3.7,17,3.6,17,3.5,17
			c-0.1,0-0.3-0.1-0.4-0.2c-0.2-0.2-0.1-0.5,0.1-0.7l5-4C8.3,12,8.4,12,8.5,12h4c0.3,0,0.5,0.2,0.5,0.5c0,0.3-0.2,0.5-0.5,0.5H8.7
			L3.8,16.9z"/>
		<path d="M23.9,23.1l-2-2l-0.7-0.7c0.6-0.7,0.9-1.7,0.9-2.7c0-2.4-1.9-4.3-4.3-4.3s-4.3,1.9-4.3,4.3c0,2.4,1.9,4.3,4.3,4.3
			c1,0,1.9-0.3,2.7-0.9l0.7,0.7l2,2c0.1,0.1,0.2,0.1,0.4,0.1c0.1,0,0.3,0,0.4-0.1C24,23.7,24,23.3,23.9,23.1z M17.8,21.1
			c-1.8,0-3.3-1.5-3.3-3.3c0-1.8,1.5-3.3,3.3-3.3c1.8,0,3.3,1.5,3.3,3.3C21.1,19.6,19.6,21.1,17.8,21.1z"/>
	</g>
</g>
<g id="Outline_Icons">
	<g>
		<g>
			<path class="st2" d="M11,19.5H2c-0.8,0-1.5-0.7-1.5-1.5V8.5l10-8l10,8v4"/>
			<polyline class="st2" points="3.5,16.5 8.5,12.5 12.5,12.5 			"/>
			<line class="st2" x1="20.5" y1="8.5" x2="14.5" y2="11.5"/>
			<line class="st2" x1="0.5" y1="8.5" x2="6.5" y2="11.5"/>
		</g>
		<g>
			<circle class="st3" cx="17.8" cy="17.8" r="3.8"/>
			<line class="st2" x1="20.5" y1="20.5" x2="23.5" y2="23.5"/>
		</g>
	</g>
</g>
</svg>
