<?xml version="1.0" encoding="utf-8"?>
<!-- Generator: Adobe Illustrator 19.2.0, SVG Export Plug-In . SVG Version: 6.00 Build 0)  -->
<svg version="1.1" id="Layer_1" xmlns="http://www.w3.org/2000/svg" xmlns:xlink="http://www.w3.org/1999/xlink" x="0px" y="0px"
	 viewBox="0 0 24 24" style="enable-background:new 0 0 24 24;" xml:space="preserve">
<style type="text/css">
	.st0{display:none;}
	.st1{display:inline;}
	.st2{fill:none;stroke:#000000;stroke-linecap:round;stroke-linejoin:round;stroke-miterlimit:10;}
</style>
<g id="Filled_Icons" class="st0">
	<g class="st1">
		<path d="M23.9,23.1l-3-3l0,0l-1.5-1.5c-0.1-0.1-0.2-0.1-0.4-0.1c-0.1,0-0.3,0.1-0.4,0.1c-0.1,0.1-0.1,0.2-0.1,0.4
			c0,0.1,0.1,0.3,0.1,0.4l1.5,1.5l0,0l3,3c0,0,0,0,0,0c0.2,0.2,0.5,0.2,0.7,0c0,0,0,0,0,0C24,23.7,24,23.3,23.9,23.1z"/>
		<path d="M19.7,5.7C19.5,5.9,19.3,6,19,6c-0.3,0-0.5-0.1-0.7-0.3C18.1,5.5,18,5.3,18,5c0-0.3,0.1-0.5,0.3-0.7l1.5-1.4
			C17.7,1.1,14.9,0,12,0C9.1,0,6.3,1.1,4.3,2.8l1.5,1.4C5.9,4.5,6,4.7,6,5c0,0.3-0.1,0.5-0.3,0.7C5.5,5.9,5.3,6,5,6
			C4.7,6,4.5,5.9,4.3,5.7L2.8,4.3C1.1,6.3,0,9.1,0,12c0,2.9,1.1,5.7,2.8,7.7l1.5-1.5c0.4-0.4,1-0.4,1.4,0C5.9,18.5,6,18.7,6,19
			c0,0.3-0.1,0.5-0.3,0.7l-1.5,1.4C6.3,22.9,9.1,24,12,24c2.9,0,5.7-1.1,7.7-2.8l-1.5-1.4C18.1,19.5,18,19.3,18,19
			c0-0.3,0.1-0.5,0.3-0.7c0.4-0.4,1-0.4,1.4,0l1.5,1.5c1.8-2.1,2.8-4.8,2.8-7.7c0-2.9-1.1-5.7-2.8-7.7L19.7,5.7z M19,16
			c0,1.1-0.9,2-2,2H7c-1.1,0-2-0.9-2-2V9c0-1.1,0.9-2,2-2h10c1.1,0,2,0.9,2,2V16z"/>
		<path d="M18.5,5c0,0.1,0.1,0.3,0.1,0.4c0.2,0.2,0.5,0.2,0.7,0l1.5-1.5l0,0l3-3c0.2-0.2,0.2-0.5,0-0.7c-0.2-0.2-0.5-0.2-0.7,0l-3,3
			l0,0l-1.5,1.5C18.6,4.7,18.5,4.9,18.5,5z"/>
		<path d="M0.1,0.9l3,3l0,0l1.5,1.5c0.2,0.2,0.5,0.2,0.7,0C5.4,5.3,5.5,5.1,5.5,5c0-0.1-0.1-0.3-0.1-0.4L3.9,3.2l0,0l-3-3
			C0.7,0,0.3,0,0.1,0.1C0,0.3,0,0.7,0.1,0.9z"/>
		<path d="M14.2,12.4l2.6-2c0.2-0.2,0.3-0.5,0.1-0.7c-0.2-0.2-0.5-0.3-0.7-0.1L12,12.9L7.8,9.6C7.6,9.4,7.3,9.5,7.1,9.7
			C6.9,9.9,7,10.2,7.2,10.4l2.6,2l-2.6,2.2c-0.2,0.2-0.2,0.5-0.1,0.7c0.1,0.1,0.2,0.2,0.4,0.2c0.1,0,0.2,0,0.3-0.1l2.8-2.3l1.1,0.8
			C11.8,14,11.9,14,12,14c0.1,0,0.2,0,0.3-0.1l1.1-0.8l2.8,2.3c0.1,0.1,0.2,0.1,0.3,0.1c0.1,0,0.3-0.1,0.4-0.2
			c0.2-0.2,0.1-0.5-0.1-0.7L14.2,12.4z"/>
		<path d="M5.5,19c0-0.1-0.1-0.3-0.1-0.4c-0.1-0.1-0.2-0.1-0.4-0.1c-0.1,0-0.3,0.1-0.4,0.1l-1.5,1.5l0,0l-3,3
			c-0.2,0.2-0.2,0.5,0,0.7c0,0,0,0,0,0c0.2,0.2,0.5,0.2,0.7,0c0,0,0,0,0,0l3-3l0,0l1.5-1.5C5.4,19.3,5.5,19.1,5.5,19z"/>
	</g>
</g>
<g id="Outline_Icons">
	<g>
		<path class="st2" d="M18.5,16c0,0.8-0.7,1.5-1.5,1.5H7c-0.8,0-1.5-0.7-1.5-1.5V9c0-0.8,0.7-1.5,1.5-1.5h10c0.8,0,1.5,0.7,1.5,1.5
			V16z"/>
		<polyline class="st2" points="16.5,10 12,13.5 7.5,10 		"/>
		<line class="st2" x1="16.5" y1="15" x2="13.5" y2="12.5"/>
		<line class="st2" x1="7.5" y1="15" x2="10.5" y2="12.5"/>
		<path class="st2" d="M18.2,2.3c-1.8-1.1-3.9-1.8-6.2-1.8c-2.3,0-4.4,0.7-6.2,1.8"/>
		<path class="st2" d="M21.7,18.2c1.1-1.8,1.8-3.9,1.8-6.2c0-2.3-0.7-4.4-1.8-6.2"/>
		<path class="st2" d="M2.3,5.8C1.2,7.6,0.5,9.7,0.5,12c0,2.3,0.7,4.4,1.8,6.2"/>
		<path class="st2" d="M5.8,21.7c1.8,1.1,3.9,1.8,6.2,1.8c2.3,0,4.4-0.7,6.2-1.8"/>
		<line class="st2" x1="23.5" y1="23.5" x2="19" y2="19"/>
		<line class="st2" x1="0.5" y1="23.5" x2="5" y2="19"/>
		<line class="st2" x1="23.5" y1="0.5" x2="19" y2="5"/>
		<line class="st2" x1="0.5" y1="0.5" x2="5" y2="5"/>
	</g>
</g>
</svg>
