<?xml version="1.0" encoding="utf-8"?>
<!-- Generator: Adobe Illustrator 19.2.0, SVG Export Plug-In . SVG Version: 6.00 Build 0)  -->
<svg version="1.1" id="Layer_1" xmlns="http://www.w3.org/2000/svg" xmlns:xlink="http://www.w3.org/1999/xlink" x="0px" y="0px"
	 viewBox="0 0 24 24" style="enable-background:new 0 0 24 24;" xml:space="preserve">
<style type="text/css">
	.st0{display:none;}
	.st1{display:inline;}
	.st2{fill:none;stroke:#000000;stroke-linecap:round;stroke-linejoin:round;stroke-miterlimit:10;}
	.st3{fill:none;stroke:#000000;stroke-linejoin:round;stroke-miterlimit:10;}
</style>
<g id="Filled_Icons" class="st0">
	<g class="st1">
		<path d="M21,1.3C20.7,1.1,20.3,1,20,1H2C1.7,1,1.3,1.1,1,1.3l10,6.2L21,1.3z"/>
		<path d="M17.5,8c1.7,0,3.2,0.6,4.5,1.5V3c0-0.4-0.1-0.7-0.3-1L11.3,8.4c-0.1,0.1-0.2,0.1-0.3,0.1c-0.1,0-0.2,0-0.3-0.1L0.3,2
			C0.1,2.3,0,2.6,0,3v11c0,1.1,0.9,2,2,2h8c0-0.2,0-0.3,0-0.5C10,11.4,13.4,8,17.5,8z"/>
		<path d="M17.5,9c-3.6,0-6.5,2.9-6.5,6.5s2.9,6.5,6.5,6.5s6.5-2.9,6.5-6.5S21.1,9,17.5,9z M20,16.7l-2.5,2.5l-2.5-2.5
			c-0.2-0.2-0.2-0.5,0-0.7c0.2-0.2,0.5-0.2,0.7,0l1.3,1.3v-4.5c0-0.3,0.2-0.5,0.5-0.5c0.3,0,0.5,0.2,0.5,0.5v4.5l1.3-1.3
			c0.2-0.2,0.5-0.2,0.7,0C20.2,16.2,20.2,16.5,20,16.7z"/>
	</g>
</g>
<g id="Outline_Icons">
	<g>
		<polyline class="st2" points="15.3,16.3 17.5,18.5 19.7,16.3 		"/>
		<path class="st2" d="M9.5,15.5H2c-0.8,0-1.5-0.7-1.5-1.5V3c0-0.8,0.7-1.5,1.5-1.5h18c0.8,0,1.5,0.7,1.5,1.5v4.5"/>
		<polyline class="st2" points="21.1,2 11,10 0.9,2 		"/>
		<circle class="st3" cx="17.5" cy="15.5" r="6"/>
		<line class="st2" x1="17.5" y1="12.8" x2="17.5" y2="18.5"/>
	</g>
</g>
</svg>
