<?xml version="1.0" encoding="utf-8"?>
<!-- Generator: Adobe Illustrator 19.2.0, SVG Export Plug-In . SVG Version: 6.00 Build 0)  -->
<svg version="1.1" id="Layer_1" xmlns="http://www.w3.org/2000/svg" xmlns:xlink="http://www.w3.org/1999/xlink" x="0px" y="0px"
	 viewBox="0 0 24 24" style="enable-background:new 0 0 24 24;" xml:space="preserve">
<style type="text/css">
	.st0{display:none;}
	.st1{display:inline;}
	.st2{fill:none;stroke:#000000;stroke-linecap:round;stroke-linejoin:round;stroke-miterlimit:10;}
</style>
<g id="Filled_Icons" class="st0">
	<g class="st1">
		<path d="M12,1.5c-2.8,0-5,2.2-5,5V7c0,1.2,0.9,2.2,2,2.5V10c0,1.4,1.1,2.5,2.5,2.5h1c1.4,0,2.5-1.1,2.5-2.5V9.5
			c1.1-0.2,2-1.2,2-2.5V6.5C17,3.7,14.8,1.5,12,1.5z M10,6.5c-0.6,0-1-0.4-1-1c0-0.6,0.4-1,1-1c0.6,0,1,0.4,1,1
			C11,6.1,10.6,6.5,10,6.5z M14,6.5c-0.6,0-1-0.4-1-1c0-0.6,0.4-1,1-1c0.6,0,1,0.4,1,1C15,6.1,14.6,6.5,14,6.5z"/>
		<path d="M17.8,15.9C17.7,16,17.6,16,17.5,16c-0.2,0-0.3-0.1-0.4-0.2c-0.2-0.2-0.1-0.5,0.1-0.7l6.3-4.2L20,8.5v-8
			C20,0.2,19.8,0,19.5,0h-15C4.2,0,4,0.2,4,0.5v8l-3.5,2.4l6.3,4.2c0.2,0.2,0.3,0.5,0.1,0.7C6.8,15.9,6.7,16,6.5,16
			c-0.1,0-0.2,0-0.3-0.1L0,11.8V22c0,1.1,0.9,2,2,2h20c1.1,0,2-0.9,2-2V11.8L17.8,15.9z M5,13V1h14v12H5z M20.9,20.8
			c-0.1,0.1-0.2,0.2-0.4,0.2c-0.1,0-0.2,0-0.3-0.1L15.3,17H8.7l-4.9,3.9c-0.2,0.2-0.5,0.1-0.7-0.1c-0.2-0.2-0.1-0.5,0.1-0.7l5-4
			C8.3,16,8.4,16,8.5,16h7c0.1,0,0.2,0,0.3,0.1l5,4C21,20.3,21.1,20.6,20.9,20.8z"/>
	</g>
</g>
<g id="Outline_Icons">
	<g>
		<path class="st2" d="M19.5,8.8l4,2.8V22c0,0.8-0.7,1.5-1.5,1.5H2c-0.8,0-1.5-0.7-1.5-1.5V11.5l4-2.8"/>
		<polyline class="st2" points="3.5,20.5 8.5,16.5 15.5,16.5 20.5,20.5 		"/>
		<line class="st2" x1="23.5" y1="11.5" x2="17.5" y2="15.5"/>
		<line class="st2" x1="0.5" y1="11.5" x2="6.5" y2="15.5"/>
		<polyline class="st2" points="19.5,14.2 19.5,0.5 4.5,0.5 4.5,14.2 		"/>
		<path class="st2" d="M12,3.5c-2.5,0-4.5,2-4.5,4.5v0.5c0,1.1,0.9,2,2,2v1c0,1.1,0.9,2,2,2h1c1.1,0,2-0.9,2-2v-1c1.1,0,2-0.9,2-2V8
			C16.5,5.5,14.5,3.5,12,3.5z"/>
		<circle class="st2" cx="10" cy="7" r="1"/>
		<circle class="st2" cx="14" cy="7" r="1"/>
	</g>
</g>
</svg>
