<?xml version="1.0" encoding="utf-8"?>
<!-- Generator: Adobe Illustrator 19.2.0, SVG Export Plug-In . SVG Version: 6.00 Build 0)  -->
<svg version="1.1" id="Layer_1" xmlns="http://www.w3.org/2000/svg" xmlns:xlink="http://www.w3.org/1999/xlink" x="0px" y="0px"
	 viewBox="0 0 24 24" style="enable-background:new 0 0 24 24;" xml:space="preserve">
<style type="text/css">
	.st0{display:none;}
	.st1{display:inline;}
	.st2{fill:none;stroke:#000000;stroke-linecap:round;stroke-linejoin:round;stroke-miterlimit:10;}
	.st3{fill:none;stroke:#000000;stroke-linejoin:round;stroke-miterlimit:10;}
</style>
<g id="Filled_Icons" class="st0">
	<g class="st1">
		<path d="M17.3,10c2,0,3.8,1.2,4.7,2.8V3c0-0.4-0.1-0.7-0.3-1L11.3,8.4c-0.1,0.1-0.2,0.1-0.3,0.1c-0.1,0-0.2,0-0.3-0.1L0.3,2
			C0.1,2.3,0,2.6,0,3v11c0,1.1,0.9,2,2,2h10.1c0-0.2-0.1-0.5-0.1-0.7C12,12.4,14.4,10,17.3,10z"/>
		<path d="M21,1.3C20.7,1.1,20.3,1,20,1H2C1.7,1,1.3,1.1,1,1.3l10,6.2L21,1.3z"/>
		<path d="M23.9,21.2l-2.5-2.5L20.7,18c0.6-0.7,0.9-1.7,0.9-2.7c0-2.4-1.9-4.3-4.3-4.3S13,13,13,15.3s1.9,4.3,4.3,4.3
			c1,0,1.9-0.4,2.7-0.9l0.7,0.7l2.5,2.5c0.2,0.2,0.5,0.2,0.7,0C24,21.7,24,21.4,23.9,21.2z M17.3,18.6c-1.8,0-3.3-1.5-3.3-3.3
			c0-1.8,1.5-3.3,3.3-3.3c1.8,0,3.3,1.5,3.3,3.3C20.6,17.1,19.1,18.6,17.3,18.6z"/>
	</g>
</g>
<g id="Outline_Icons">
	<g>
		<path class="st2" d="M10,15.5H2c-0.8,0-1.5-0.7-1.5-1.5V3c0-0.8,0.7-1.5,1.5-1.5h18c0.8,0,1.5,0.7,1.5,1.5v5.5"/>
		<polyline class="st2" points="21,2 11,10 1,2 		"/>
		<g>
			<circle class="st3" cx="17.3" cy="15.3" r="3.8"/>
			<line class="st2" x1="20" y1="18" x2="23.5" y2="21.5"/>
		</g>
	</g>
</g>
</svg>
