<?xml version="1.0" encoding="utf-8"?>
<!-- Generator: Adobe Illustrator 19.2.0, SVG Export Plug-In . SVG Version: 6.00 Build 0)  -->
<svg version="1.1" id="Layer_1" xmlns="http://www.w3.org/2000/svg" xmlns:xlink="http://www.w3.org/1999/xlink" x="0px" y="0px"
	 viewBox="0 0 24 24" style="enable-background:new 0 0 24 24;" xml:space="preserve">
<style type="text/css">
	.st0{display:none;}
	.st1{display:inline;}
	.st2{fill:none;stroke:#000000;stroke-linecap:round;stroke-linejoin:round;stroke-miterlimit:10;}
</style>
<g id="Filled_Icons" class="st0">
	<g class="st1">
		<path d="M21.2,12l-9.4,7.4c-0.1,0.1-0.2,0.1-0.3,0.1c-0.1,0-0.2,0-0.3-0.1L1.8,12c-0.2,0.3-0.3,0.6-0.3,1v9c0,1.1,0.9,2,2,2h16
			c1.1,0,2-0.9,2-2v-9C21.5,12.6,21.4,12.3,21.2,12z"/>
		<path d="M20.5,11.3c-0.3-0.2-0.6-0.3-1-0.3h-16c-0.4,0-0.7,0.1-1,0.3l9,7.1L20.5,11.3z"/>
		<path d="M7.4,5.4L11,1.7V9c0,0.3,0.2,0.5,0.5,0.5C11.8,9.5,12,9.3,12,9V1.7l3.6,3.6c0.1,0.1,0.2,0.1,0.4,0.1c0.1,0,0.3,0,0.4-0.1
			c0.2-0.2,0.2-0.5,0-0.7l-4.5-4.5c0,0-0.1-0.1-0.2-0.1C11.6,0,11.4,0,11.3,0c-0.1,0-0.1,0.1-0.2,0.1L6.6,4.6
			c-0.2,0.2-0.2,0.5,0,0.7C6.8,5.5,7.2,5.5,7.4,5.4z"/>
	</g>
</g>
<g id="Outline_Icons">
	<g>
		<path class="st2" d="M21.5,22c0,0.8-0.7,1.5-1.5,1.5H4c-0.8,0-1.5-0.7-1.5-1.5v-9c0-0.8,0.7-1.5,1.5-1.5h16c0.8,0,1.5,0.7,1.5,1.5
			V22z"/>
		<polyline class="st2" points="21.1,12 12,19 2.9,11.9 		"/>
		<g>
			<line class="st2" x1="11.5" y1="0.5" x2="11.5" y2="9"/>
			<polyline class="st2" points="7,5 11.5,0.5 16,5 			"/>
		</g>
	</g>
</g>
</svg>
