<?xml version="1.0" encoding="utf-8"?>
<!-- Generator: Adobe Illustrator 19.2.0, SVG Export Plug-In . SVG Version: 6.00 Build 0)  -->
<svg version="1.1" id="Outline_Icons" xmlns="http://www.w3.org/2000/svg" xmlns:xlink="http://www.w3.org/1999/xlink" x="0px"
	 y="0px" viewBox="0 0 24 24" style="enable-background:new 0 0 24 24;" xml:space="preserve">
<style type="text/css">
	.st0{fill:none;stroke:#000000;stroke-linecap:round;stroke-linejoin:round;stroke-miterlimit:10;}
</style>
<g>
	<path class="st0" d="M21.5,22c0,0.8-0.7,1.5-1.5,1.5H4c-0.8,0-1.5-0.7-1.5-1.5v-9c0-0.8,0.7-1.5,1.5-1.5h16c0.8,0,1.5,0.7,1.5,1.5
		V22z"/>
	<polyline class="st0" points="21.1,12 12,19 2.9,11.9 	"/>
	<g>
		<polyline class="st0" points="16.5,1 16.5,3.5 14,3.5 		"/>
		<path class="st0" d="M7.8,3.5c0.6-1.7,2.3-3,4.2-3s3.8,1.2,4.5,3"/>
		<g>
			<polyline class="st0" points="7.5,9 7.5,6.5 10.5,6.5 			"/>
			<path class="st0" d="M16.7,6.5c-0.6,1.7-2.3,3-4.2,3S8.7,8.3,8,6.5"/>
		</g>
	</g>
</g>
</svg>
