<?xml version="1.0" encoding="utf-8"?>
<!-- Generator: Adobe Illustrator 19.2.0, SVG Export Plug-In . SVG Version: 6.00 Build 0)  -->
<svg version="1.1" id="Layer_1" xmlns="http://www.w3.org/2000/svg" xmlns:xlink="http://www.w3.org/1999/xlink" x="0px" y="0px"
	 viewBox="0 0 24 24" style="enable-background:new 0 0 24 24;" xml:space="preserve">
<style type="text/css">
	.st0{display:none;}
	.st1{display:inline;}
	.st2{fill:none;stroke:#000000;stroke-linecap:round;stroke-linejoin:round;stroke-miterlimit:10;}
</style>
<g id="Filled_Icons" class="st0">
	<g class="st1">
		<path d="M22.7,5l-10.4,8.4c-0.1,0.1-0.2,0.1-0.3,0.1c-0.1,0-0.2,0-0.3-0.1L1.3,5C1.1,5.3,1,5.6,1,6v11c0,1.1,0.9,2,2,2h18
			c1.1,0,2-0.9,2-2V6C23,5.6,22.9,5.3,22.7,5z"/>
		<path d="M22,4.3C21.7,4.1,21.4,4,21,4H3C2.6,4,2.3,4.1,2,4.3l10,8.1L22,4.3z"/>
	</g>
</g>
<g id="Outline_Icons">
	<g>
		<path class="st2" d="M22.5,17c0,0.8-0.7,1.5-1.5,1.5H3c-0.8,0-1.5-0.7-1.5-1.5V6c0-0.8,0.7-1.5,1.5-1.5h18c0.8,0,1.5,0.7,1.5,1.5
			V17z"/>
		<polyline class="st2" points="22,5 12,13 2,5 		"/>
	</g>
</g>
</svg>
