<?xml version="1.0" encoding="utf-8"?>
<!-- Generator: Adobe Illustrator 19.2.0, SVG Export Plug-In . SVG Version: 6.00 Build 0)  -->
<svg version="1.1" id="Layer_1" xmlns="http://www.w3.org/2000/svg" xmlns:xlink="http://www.w3.org/1999/xlink" x="0px" y="0px"
	 viewBox="0 0 24 24" style="enable-background:new 0 0 24 24;" xml:space="preserve">
<style type="text/css">
	.st0{display:none;}
	.st1{display:inline;}
	.st2{fill:none;stroke:#000000;stroke-linecap:round;stroke-linejoin:round;stroke-miterlimit:10;}
</style>
<g id="Filled_Icons" class="st0">
	<path class="st1" d="M17.8,14.4c-0.1,0.1-0.2,0.1-0.3,0.1c-0.2,0-0.3-0.1-0.4-0.2c-0.2-0.2-0.1-0.5,0.1-0.7l6.2-4.3L12.3,1.6
		c-0.2-0.1-0.4-0.1-0.6,0L0.6,9.3l6.2,4.3c0.2,0.2,0.3,0.5,0.1,0.7c-0.1,0.1-0.3,0.2-0.4,0.2c-0.1,0-0.2,0-0.3-0.1L0,10.1V21
		c0,1.1,0.9,2,2,2h20c1.1,0,2-0.9,2-2V10.1L17.8,14.4z M20.9,19.3c-0.1,0.1-0.3,0.2-0.4,0.2c-0.1,0-0.2,0-0.3-0.1L15.3,16H8.7
		l-4.9,3.4c-0.2,0.2-0.5,0.1-0.7-0.1c-0.2-0.2-0.1-0.5,0.1-0.7l5-3.5C8.3,15,8.4,15,8.5,15h7c0.1,0,0.2,0,0.3,0.1l5,3.5
		C21,18.7,21.1,19.1,20.9,19.3z"/>
</g>
<g id="Outline_Icons">
	<g>
		<path class="st2" d="M23.5,21c0,0.8-0.7,1.5-1.5,1.5H2c-0.8,0-1.5-0.7-1.5-1.5V10L12,2l11.5,8V21z"/>
		<polyline class="st2" points="3.5,19 8.5,15.5 15.5,15.5 20.5,19 		"/>
		<line class="st2" x1="23.5" y1="10" x2="17.5" y2="14"/>
		<line class="st2" x1="0.5" y1="10" x2="6.5" y2="14"/>
	</g>
</g>
</svg>
