<?xml version="1.0" encoding="utf-8"?>
<!-- Generator: Adobe Illustrator 19.2.0, SVG Export Plug-In . SVG Version: 6.00 Build 0)  -->
<svg version="1.1" id="Layer_1" xmlns="http://www.w3.org/2000/svg" xmlns:xlink="http://www.w3.org/1999/xlink" x="0px" y="0px"
	 viewBox="0 0 24 24" enable-background="new 0 0 24 24" xml:space="preserve">
<g id="Filled_Icons" display="none">
	<g display="inline">
		<g>
			<path d="M7.5,0.006h-3c-0.276,0-0.5,0.224-0.5,0.5v4c0,0.276,0.224,0.5,0.5,0.5h3c0.276,0,0.5-0.224,0.5-0.5v-4
				C8,0.229,7.776,0.006,7.5,0.006z"/>
			<path d="M19.5,0.006h-3c-0.275,0-0.5,0.224-0.5,0.5v4c0,0.276,0.225,0.5,0.5,0.5h3c0.275,0,0.5-0.224,0.5-0.5v-4
				C20,0.229,19.775,0.006,19.5,0.006z"/>
		</g>
		<g>
			<circle cx="11.952" cy="17.506" r="2.5"/>
			<path d="M0,8.006v15.5c0,0.275,0.224,0.5,0.5,0.5h23c0.275,0,0.5-0.225,0.5-0.5v-15.5H0z M11.952,22.006
				c-2.481,0-4.5-2.02-4.5-4.5c0-1.855,1.13-3.451,2.738-4.14l-1.073-1.104c-0.164-0.168-0.188-0.428-0.059-0.624l0.929-1.408
				c0.092-0.141,0.249-0.225,0.417-0.225H13.5c0.168,0,0.325,0.084,0.417,0.225l0.929,1.408c0.131,0.196,0.105,0.456-0.059,0.624
				l-1.073,1.104c1.608,0.689,2.738,2.282,2.738,4.14C16.452,19.986,14.434,22.006,11.952,22.006z"/>
			<path d="M24,7.006v-4.5c0-0.276-0.225-0.5-0.5-0.5H21v2.5c0,0.828-0.672,1.5-1.5,1.5h-3c-0.828,0-1.5-0.672-1.5-1.5v-2.5H9v2.5
				c0,0.828-0.672,1.5-1.5,1.5h-3c-0.828,0-1.5-0.672-1.5-1.5v-2.5H0.5c-0.276,0-0.5,0.224-0.5,0.5v4.5H24z"/>
		</g>
	</g>
</g>
<g id="Outline_Icons">
	<g>
		<polyline fill="none" stroke="#000000" stroke-linecap="round" stroke-linejoin="round" stroke-miterlimit="10" points="4.5,2.5 
			0.5,2.5 0.5,23.5 23.5,23.5 23.5,2.5 19.5,2.5 		"/>
		
			<rect x="4.5" y="0.5" fill="none" stroke="#000000" stroke-linecap="round" stroke-linejoin="round" stroke-miterlimit="10" width="3" height="4"/>
		
			<rect x="16.5" y="0.5" fill="none" stroke="#000000" stroke-linecap="round" stroke-linejoin="round" stroke-miterlimit="10" width="3" height="4"/>
		
			<line fill="none" stroke="#000000" stroke-linecap="round" stroke-linejoin="round" stroke-miterlimit="10" x1="7.5" y1="2.5" x2="16.5" y2="2.5"/>
		
			<line fill="none" stroke="#000000" stroke-linecap="round" stroke-linejoin="round" stroke-miterlimit="10" x1="0.5" y1="7.5" x2="23.5" y2="7.5"/>
		<polygon fill="none" stroke="#000000" stroke-linecap="round" stroke-linejoin="round" stroke-miterlimit="10" points="
			11.023,13.5 9.476,11.908 10.404,10.5 13.5,10.5 14.43,11.908 12.881,13.5 		"/>
		
			<circle fill="none" stroke="#000000" stroke-linecap="round" stroke-linejoin="round" stroke-miterlimit="10" cx="11.952" cy="17.5" r="4"/>
		
			<circle fill="none" stroke="#000000" stroke-linecap="round" stroke-linejoin="round" stroke-miterlimit="10" cx="11.952" cy="17.5" r="2"/>
	</g>
</g>
</svg>
