<?xml version="1.0" encoding="utf-8"?>
<!-- Generator: Adobe Illustrator 19.2.0, SVG Export Plug-In . SVG Version: 6.00 Build 0)  -->
<svg version="1.1" id="Layer_1" xmlns="http://www.w3.org/2000/svg" xmlns:xlink="http://www.w3.org/1999/xlink" x="0px" y="0px"
	 viewBox="0 0 24 24" style="enable-background:new 0 0 24 24;" xml:space="preserve">
<style type="text/css">
	.st0{display:none;}
	.st1{display:inline;}
	.st2{fill:none;stroke:#000000;stroke-linecap:round;stroke-linejoin:round;stroke-miterlimit:10;}
</style>
<g id="Filled_Icons" class="st0">
	<g class="st1">
		<path d="M22,7H2C0.9,7,0,7.9,0,9v12c0,1.1,0.9,2,2,2h20c1.1,0,2-0.9,2-2V9C24,7.9,23.1,7,22,7z M4.5,11h2C6.8,11,7,11.2,7,11.5
			C7,11.8,6.8,12,6.5,12h-2C4.2,12,4,11.8,4,11.5C4,11.2,4.2,11,4.5,11z M4.5,17h9c0.3,0,0.5,0.2,0.5,0.5c0,0.3-0.2,0.5-0.5,0.5h-9
			C4.2,18,4,17.8,4,17.5C4,17.2,4.2,17,4.5,17z M16.5,20h-12C4.2,20,4,19.8,4,19.5C4,19.2,4.2,19,4.5,19h12c0.3,0,0.5,0.2,0.5,0.5
			C17,19.8,16.8,20,16.5,20z M21,14.5c0,0.3-0.2,0.5-0.5,0.5h-4c-0.3,0-0.5-0.2-0.5-0.5v-4c0-0.3,0.2-0.5,0.5-0.5h4
			c0.3,0,0.5,0.2,0.5,0.5V14.5z"/>
		<path d="M2.5,6h19C21.8,6,22,5.8,22,5.5C22,5.2,21.8,5,21.5,5h-19C2.2,5,2,5.2,2,5.5C2,5.8,2.2,6,2.5,6z"/>
		<path d="M4.5,4h15C19.8,4,20,3.8,20,3.5C20,3.2,19.8,3,19.5,3h-15C4.2,3,4,3.2,4,3.5C4,3.8,4.2,4,4.5,4z"/>
		<path d="M6.5,2h11C17.8,2,18,1.8,18,1.5C18,1.2,17.8,1,17.5,1h-11C6.2,1,6,1.2,6,1.5C6,1.8,6.2,2,6.5,2z"/>
	</g>
</g>
<g id="Outline_Icons">
	<g>
		<g>
			<path class="st2" d="M23.5,21c0,0.8-0.7,1.5-1.5,1.5H2c-0.8,0-1.5-0.7-1.5-1.5V9c0-0.8,0.7-1.5,1.5-1.5h20c0.8,0,1.5,0.7,1.5,1.5
				V21z"/>
			<rect x="16.5" y="10.5" class="st2" width="4" height="4"/>
			<line class="st2" x1="4.5" y1="11.5" x2="6.5" y2="11.5"/>
			<line class="st2" x1="4.5" y1="17.5" x2="13.5" y2="17.5"/>
			<line class="st2" x1="4.5" y1="19.5" x2="16.5" y2="19.5"/>
		</g>
		<line class="st2" x1="2.5" y1="5.5" x2="21.5" y2="5.5"/>
		<line class="st2" x1="4.5" y1="3.5" x2="19.5" y2="3.5"/>
		<line class="st2" x1="6.5" y1="1.5" x2="17.5" y2="1.5"/>
	</g>
</g>
</svg>
