<?xml version="1.0" encoding="utf-8"?>
<!-- Generator: Adobe Illustrator 19.2.0, SVG Export Plug-In . SVG Version: 6.00 Build 0)  -->
<svg version="1.1" id="Layer_1" xmlns="http://www.w3.org/2000/svg" xmlns:xlink="http://www.w3.org/1999/xlink" x="0px" y="0px"
	 viewBox="0 0 24 24" style="enable-background:new 0 0 24 24;" xml:space="preserve">
<style type="text/css">
	.st0{display:none;}
	.st1{display:inline;}
	.st2{fill:none;stroke:#000000;stroke-linecap:round;stroke-linejoin:round;stroke-miterlimit:10;}
</style>
<g id="Filled_Icons" class="st0">
	<g class="st1">
		<path d="M7.2,4h8.6c0,0,1.2-0.2,1.3-0.3L20.4,0H2.6l3.3,3.7C6,3.8,7.2,4,7.2,4z"/>
		<path d="M4.6,20.2C4.7,20.1,4.9,20,5,20h6V5H7.1C6.7,5,5.5,4.8,5.1,4.3L2,0.8v22.4L4.6,20.2z"/>
		<path d="M17.8,4.3C17.5,4.8,16.3,5,15.9,5H12v15h6c0.1,0,0.3,0.1,0.4,0.2l2.6,3V0.8L17.8,4.3z"/>
		<polygon points="17.8,21 5.2,21 2.6,24 20.4,24 		"/>
	</g>
</g>
<g id="Outline_Icons">
	<g>
		<path class="st2" d="M17.5,4c-0.4,0.5-1.6,0.5-1.6,0.5H7.1c0,0-1.2,0-1.6-0.5l-3-3.5h18L17.5,4z"/>
		<polygon class="st2" points="20.5,23.5 2.5,23.5 5,20.5 18,20.5 		"/>
		<line class="st2" x1="11.5" y1="4.5" x2="11.5" y2="20.5"/>
		<line class="st2" x1="2.5" y1="23.5" x2="2.5" y2="0.5"/>
		<line class="st2" x1="20.5" y1="0.5" x2="20.5" y2="23.5"/>
	</g>
</g>
</svg>
