<?xml version="1.0" encoding="utf-8"?>
<!-- Generator: Adobe Illustrator 19.2.0, SVG Export Plug-In . SVG Version: 6.00 Build 0)  -->
<svg version="1.1" id="Layer_1" xmlns="http://www.w3.org/2000/svg" xmlns:xlink="http://www.w3.org/1999/xlink" x="0px" y="0px"
	 viewBox="0 0 24 24" style="enable-background:new 0 0 24 24;" xml:space="preserve">
<style type="text/css">
	.st0{display:none;}
	.st1{display:inline;}
	.st2{fill:none;stroke:#000000;stroke-linecap:round;stroke-linejoin:round;stroke-miterlimit:10;}
</style>
<g id="Filled_Icons" class="st0">
	<path class="st1" d="M22,4H2C0.9,4,0,4.9,0,6v12c0,1.1,0.9,2,2,2h20c1.1,0,2-0.9,2-2V6C24,4.9,23.1,4,22,4z M4.5,8h2
		C6.8,8,7,8.2,7,8.5C7,8.8,6.8,9,6.5,9h-2C4.2,9,4,8.8,4,8.5C4,8.2,4.2,8,4.5,8z M4.5,14h9c0.3,0,0.5,0.2,0.5,0.5
		c0,0.3-0.2,0.5-0.5,0.5h-9C4.2,15,4,14.8,4,14.5C4,14.2,4.2,14,4.5,14z M16.5,17h-12C4.2,17,4,16.8,4,16.5C4,16.2,4.2,16,4.5,16h12
		c0.3,0,0.5,0.2,0.5,0.5C17,16.8,16.8,17,16.5,17z M21,11.5c0,0.3-0.2,0.5-0.5,0.5h-4c-0.3,0-0.5-0.2-0.5-0.5v-4
		C16,7.2,16.2,7,16.5,7h4C20.8,7,21,7.2,21,7.5V11.5z"/>
</g>
<g id="Outline_Icons">
	<g>
		<path class="st2" d="M23.5,18c0,0.8-0.7,1.5-1.5,1.5H2c-0.8,0-1.5-0.7-1.5-1.5V6c0-0.8,0.7-1.5,1.5-1.5h20c0.8,0,1.5,0.7,1.5,1.5
			V18z"/>
		<rect x="16.5" y="7.5" class="st2" width="4" height="4"/>
		<line class="st2" x1="4.5" y1="8.5" x2="6.5" y2="8.5"/>
		<line class="st2" x1="4.5" y1="14.5" x2="13.5" y2="14.5"/>
		<line class="st2" x1="4.5" y1="16.5" x2="16.5" y2="16.5"/>
	</g>
</g>
</svg>
