<?xml version="1.0" encoding="utf-8"?>
<!-- Generator: Adobe Illustrator 19.2.0, SVG Export Plug-In . SVG Version: 6.00 Build 0)  -->
<svg version="1.1" id="Layer_1" xmlns="http://www.w3.org/2000/svg" xmlns:xlink="http://www.w3.org/1999/xlink" x="0px" y="0px"
	 viewBox="0 0 24 24" style="enable-background:new 0 0 24 24;" xml:space="preserve">
<style type="text/css">
	.st0{display:none;}
	.st1{display:inline;}
	.st2{fill:none;stroke:#000000;stroke-linecap:round;stroke-linejoin:round;stroke-miterlimit:10;}
</style>
<g id="Filled_Icon" class="st0">
	<g class="st1">
		<g>
			<path d="M8.5,22.5C8.2,22.5,8,22.3,8,22V4c0-0.3,0.2-0.5,0.5-0.5C8.8,3.5,9,3.7,9,4v18C9,22.3,8.8,22.5,8.5,22.5z"/>
		</g>
		<g>
			<path d="M11.5,23.5c-0.3,0-0.5-0.2-0.5-0.5V1c0-0.3,0.2-0.5,0.5-0.5C11.8,0.5,12,0.7,12,1v22C12,23.3,11.8,23.5,11.5,23.5z"/>
		</g>
		<g>
			<path d="M14.5,21.5c-0.3,0-0.5-0.2-0.5-0.5V3c0-0.3,0.2-0.5,0.5-0.5C14.8,2.5,15,2.7,15,3v18C15,21.3,14.8,21.5,14.5,21.5z"/>
		</g>
		<g>
			<path d="M17.5,18.5c-0.3,0-0.5-0.2-0.5-0.5V8c0-0.3,0.2-0.5,0.5-0.5C17.8,7.5,18,7.7,18,8v10C18,18.3,17.8,18.5,17.5,18.5z"/>
		</g>
		<g>
			<path d="M5.5,18.5C5.2,18.5,5,18.3,5,18V8c0-0.3,0.2-0.5,0.5-0.5C5.8,7.5,6,7.7,6,8v10C6,18.3,5.8,18.5,5.5,18.5z"/>
		</g>
		<g>
			<path d="M20.5,17.5c-0.3,0-0.5-0.2-0.5-0.5V9c0-0.3,0.2-0.5,0.5-0.5C20.8,8.5,21,8.7,21,9v8C21,17.3,20.8,17.5,20.5,17.5z"/>
		</g>
		<g>
			<path d="M2.5,17.5C2.2,17.5,2,17.3,2,17V9c0-0.3,0.2-0.5,0.5-0.5C2.8,8.5,3,8.7,3,9v8C3,17.3,2.8,17.5,2.5,17.5z"/>
		</g>
		<g>
			<path d="M0.5,14.5C0.2,14.5,0,14.3,0,14v-2c0-0.3,0.2-0.5,0.5-0.5C0.8,11.5,1,11.7,1,12v2C1,14.3,0.8,14.5,0.5,14.5z"/>
		</g>
		<g>
			<path d="M22.5,14.5c-0.3,0-0.5-0.2-0.5-0.5v-2c0-0.3,0.2-0.5,0.5-0.5c0.3,0,0.5,0.2,0.5,0.5v2C23,14.3,22.8,14.5,22.5,14.5z"/>
		</g>
	</g>
</g>
<g id="Outline_Icons">
	<g>
		<line class="st2" x1="8.5" y1="4" x2="8.5" y2="22"/>
		<line class="st2" x1="11.5" y1="1" x2="11.5" y2="23"/>
		<line class="st2" x1="14.5" y1="3" x2="14.5" y2="21"/>
		<line class="st2" x1="17.5" y1="8" x2="17.5" y2="18"/>
		<line class="st2" x1="5.5" y1="8" x2="5.5" y2="18"/>
		<line class="st2" x1="20.5" y1="9" x2="20.5" y2="17"/>
		<line class="st2" x1="2.5" y1="9" x2="2.5" y2="17"/>
		<line class="st2" x1="0.5" y1="12" x2="0.5" y2="14"/>
		<line class="st2" x1="22.5" y1="12" x2="22.5" y2="14"/>
	</g>
</g>
</svg>
