<?xml version="1.0" encoding="utf-8"?>
<!-- Generator: Adobe Illustrator 19.2.0, SVG Export Plug-In . SVG Version: 6.00 Build 0)  -->
<svg version="1.1" id="Layer_1" xmlns="http://www.w3.org/2000/svg" xmlns:xlink="http://www.w3.org/1999/xlink" x="0px" y="0px"
	 viewBox="0 0 24 24" style="enable-background:new 0 0 24 24;" xml:space="preserve">
<style type="text/css">
	.st0{display:none;}
	.st1{display:inline;}
	.st2{fill:none;stroke:#000000;stroke-linecap:round;stroke-linejoin:round;stroke-miterlimit:10;}
</style>
<g id="Filled_Icon" class="st0">
	<path class="st1" d="M23.5,0h-23C0.2,0,0,0.2,0,0.5v23C0,23.8,0.2,24,0.5,24h23c0.3,0,0.5-0.2,0.5-0.5v-23C24,0.2,23.8,0,23.5,0z
		 M4,15h4c0.3,0,0.5,0.2,0.5,0.5C8.5,15.8,8.3,16,8,16H4c-0.3,0-0.5-0.2-0.5-0.5C3.5,15.2,3.7,15,4,15z M3.5,13.5
		C3.5,13.2,3.7,13,4,13h4c0.3,0,0.5,0.2,0.5,0.5C8.5,13.8,8.3,14,8,14H4C3.7,14,3.5,13.8,3.5,13.5z M4,17h4c0.3,0,0.5,0.2,0.5,0.5
		C8.5,17.8,8.3,18,8,18H4c-0.3,0-0.5-0.2-0.5-0.5C3.5,17.2,3.7,17,4,17z M4,19h4c0.3,0,0.5,0.2,0.5,0.5C8.5,19.8,8.3,20,8,20H4
		c-0.3,0-0.5-0.2-0.5-0.5C3.5,19.2,3.7,19,4,19z M10,7h4c0.3,0,0.5,0.2,0.5,0.5C14.5,7.8,14.3,8,14,8h-4C9.7,8,9.5,7.8,9.5,7.5
		C9.5,7.2,9.7,7,10,7z M9.5,5.5C9.5,5.2,9.7,5,10,5h4c0.3,0,0.5,0.2,0.5,0.5C14.5,5.8,14.3,6,14,6h-4C9.7,6,9.5,5.8,9.5,5.5z M10,9
		h4c0.3,0,0.5,0.2,0.5,0.5c0,0.3-0.2,0.5-0.5,0.5h-4c-0.3,0-0.5-0.2-0.5-0.5C9.5,9.2,9.7,9,10,9z M10,11h4c0.3,0,0.5,0.2,0.5,0.5
		c0,0.3-0.2,0.5-0.5,0.5h-4c-0.3,0-0.5-0.2-0.5-0.5C9.5,11.2,9.7,11,10,11z M10,13h4c0.3,0,0.5,0.2,0.5,0.5c0,0.3-0.2,0.5-0.5,0.5
		h-4c-0.3,0-0.5-0.2-0.5-0.5C9.5,13.2,9.7,13,10,13z M10,15h4c0.3,0,0.5,0.2,0.5,0.5c0,0.3-0.2,0.5-0.5,0.5h-4
		c-0.3,0-0.5-0.2-0.5-0.5C9.5,15.2,9.7,15,10,15z M10,17h4c0.3,0,0.5,0.2,0.5,0.5c0,0.3-0.2,0.5-0.5,0.5h-4c-0.3,0-0.5-0.2-0.5-0.5
		C9.5,17.2,9.7,17,10,17z M10,19h4c0.3,0,0.5,0.2,0.5,0.5c0,0.3-0.2,0.5-0.5,0.5h-4c-0.3,0-0.5-0.2-0.5-0.5C9.5,19.2,9.7,19,10,19z
		 M15.5,19.5c0-0.3,0.2-0.5,0.5-0.5h4c0.3,0,0.5,0.2,0.5,0.5c0,0.3-0.2,0.5-0.5,0.5h-4C15.7,20,15.5,19.8,15.5,19.5z M20,18h-4
		c-0.3,0-0.5-0.2-0.5-0.5c0-0.3,0.2-0.5,0.5-0.5h4c0.3,0,0.5,0.2,0.5,0.5C20.5,17.8,20.3,18,20,18z"/>
</g>
<g id="Outline_Icons">
	<g>
		<line class="st2" x1="4" y1="19.5" x2="8" y2="19.5"/>
		<line class="st2" x1="4" y1="17.5" x2="8" y2="17.5"/>
		<line class="st2" x1="4" y1="15.5" x2="8" y2="15.5"/>
		<line class="st2" x1="4" y1="13.5" x2="8" y2="13.5"/>
		<line class="st2" x1="10" y1="19.5" x2="14" y2="19.5"/>
		<line class="st2" x1="10" y1="17.5" x2="14" y2="17.5"/>
		<line class="st2" x1="10" y1="15.5" x2="14" y2="15.5"/>
		<line class="st2" x1="10" y1="13.5" x2="14" y2="13.5"/>
		<line class="st2" x1="10" y1="11.5" x2="14" y2="11.5"/>
		<line class="st2" x1="10" y1="9.5" x2="14" y2="9.5"/>
		<line class="st2" x1="10" y1="7.5" x2="14" y2="7.5"/>
		<line class="st2" x1="10" y1="5.5" x2="14" y2="5.5"/>
		<line class="st2" x1="16" y1="19.5" x2="20" y2="19.5"/>
		<line class="st2" x1="16" y1="17.5" x2="20" y2="17.5"/>
		<rect x="0.5" y="0.5" class="st2" width="23" height="23"/>
	</g>
</g>
</svg>
