<?xml version="1.0" encoding="utf-8"?>
<!-- Generator: Adobe Illustrator 19.2.0, SVG Export Plug-In . SVG Version: 6.00 Build 0)  -->
<svg version="1.1" id="Layer_1" xmlns="http://www.w3.org/2000/svg" xmlns:xlink="http://www.w3.org/1999/xlink" x="0px" y="0px"
	 viewBox="0 0 24 24" style="enable-background:new 0 0 24 24;" xml:space="preserve">
<style type="text/css">
	.st0{display:none;}
	.st1{display:inline;}
	.st2{fill:none;stroke:#000000;stroke-linecap:round;stroke-linejoin:round;stroke-miterlimit:10;}
</style>
<g id="Filled_Icon" class="st0">
	<path class="st1" d="M7.2,20.5H2.8c-0.4,0-0.8,0.3-0.8,0.8C2,21.7,2.3,22,2.8,22h4.5C7.7,22,8,21.7,8,21.2
		C8,20.8,7.7,20.5,7.2,20.5z"/>
	<path class="st1" d="M7.2,18.5H2.8c-0.4,0-0.8,0.3-0.8,0.8C2,19.7,2.3,20,2.8,20h4.5C7.7,20,8,19.7,8,19.2
		C8,18.8,7.7,18.5,7.2,18.5z"/>
	<path class="st1" d="M7.2,16.5H2.8c-0.4,0-0.8,0.3-0.8,0.8C2,17.7,2.3,18,2.8,18h4.5C7.7,18,8,17.7,8,17.2
		C8,16.8,7.7,16.5,7.2,16.5z"/>
	<path class="st1" d="M7.2,14.5H2.8c-0.4,0-0.8,0.3-0.8,0.8C2,15.7,2.3,16,2.8,16h4.5C7.7,16,8,15.7,8,15.2
		C8,14.8,7.7,14.5,7.2,14.5z"/>
	<path class="st1" d="M7.2,12.5H2.8c-0.4,0-0.8,0.3-0.8,0.8C2,13.7,2.3,14,2.8,14h4.5C7.7,14,8,13.7,8,13.2
		C8,12.8,7.7,12.5,7.2,12.5z"/>
	<path class="st1" d="M14.2,20.5H9.8c-0.4,0-0.8,0.3-0.8,0.8C9,21.7,9.3,22,9.8,22h4.5c0.4,0,0.8-0.3,0.8-0.8
		C15,20.8,14.7,20.5,14.2,20.5z"/>
	<path class="st1" d="M14.2,18.5H9.8c-0.4,0-0.8,0.3-0.8,0.8C9,19.7,9.3,20,9.8,20h4.5c0.4,0,0.8-0.3,0.8-0.8
		C15,18.8,14.7,18.5,14.2,18.5z"/>
	<path class="st1" d="M14.2,16.5H9.8c-0.4,0-0.8,0.3-0.8,0.8C9,17.7,9.3,18,9.8,18h4.5c0.4,0,0.8-0.3,0.8-0.8
		C15,16.8,14.7,16.5,14.2,16.5z"/>
	<path class="st1" d="M14.2,14.5H9.8c-0.4,0-0.8,0.3-0.8,0.8C9,15.7,9.3,16,9.8,16h4.5c0.4,0,0.8-0.3,0.8-0.8
		C15,14.8,14.7,14.5,14.2,14.5z"/>
	<path class="st1" d="M14.2,12.5H9.8c-0.4,0-0.8,0.3-0.8,0.8C9,13.7,9.3,14,9.8,14h4.5c0.4,0,0.8-0.3,0.8-0.8
		C15,12.8,14.7,12.5,14.2,12.5z"/>
	<path class="st1" d="M14.2,10.5H9.8c-0.4,0-0.8,0.3-0.8,0.8C9,11.7,9.3,12,9.8,12h4.5c0.4,0,0.8-0.3,0.8-0.8
		C15,10.8,14.7,10.5,14.2,10.5z"/>
	<path class="st1" d="M14.2,8.5H9.8C9.3,8.5,9,8.8,9,9.2C9,9.7,9.3,10,9.8,10h4.5c0.4,0,0.8-0.3,0.8-0.8C15,8.8,14.7,8.5,14.2,8.5z"
		/>
	<path class="st1" d="M14.2,6.5H9.8C9.3,6.5,9,6.8,9,7.2C9,7.7,9.3,8,9.8,8h4.5C14.7,8,15,7.7,15,7.2C15,6.8,14.7,6.5,14.2,6.5z"/>
	<path class="st1" d="M14.2,4.5H9.8C9.3,4.5,9,4.8,9,5.2C9,5.7,9.3,6,9.8,6h4.5C14.7,6,15,5.7,15,5.2C15,4.8,14.7,4.5,14.2,4.5z"/>
	<path class="st1" d="M14.2,2.5H9.8C9.3,2.5,9,2.8,9,3.2C9,3.7,9.3,4,9.8,4h4.5C14.7,4,15,3.7,15,3.2C15,2.8,14.7,2.5,14.2,2.5z"/>
	<path class="st1" d="M21.2,20.5h-4.5c-0.4,0-0.8,0.3-0.8,0.8c0,0.4,0.3,0.8,0.8,0.8h4.5c0.4,0,0.8-0.3,0.8-0.8
		C22,20.8,21.7,20.5,21.2,20.5z"/>
	<path class="st1" d="M21.2,18.5h-4.5c-0.4,0-0.8,0.3-0.8,0.8c0,0.4,0.3,0.8,0.8,0.8h4.5c0.4,0,0.8-0.3,0.8-0.8
		C22,18.8,21.7,18.5,21.2,18.5z"/>
	<path class="st1" d="M16.8,18h4.5c0.4,0,0.8-0.3,0.8-0.8c0-0.4-0.3-0.8-0.8-0.8h-4.5c-0.4,0-0.8,0.3-0.8,0.8
		C16,17.7,16.3,18,16.8,18z"/>
</g>
<g id="Outline_Icons">
	<g>
		<line class="st2" x1="2.5" y1="21.5" x2="7.5" y2="21.5"/>
		<line class="st2" x1="2.5" y1="19.5" x2="7.5" y2="19.5"/>
		<line class="st2" x1="2.5" y1="17.5" x2="7.5" y2="17.5"/>
		<line class="st2" x1="2.5" y1="15.5" x2="7.5" y2="15.5"/>
		<line class="st2" x1="2.5" y1="13.5" x2="7.5" y2="13.5"/>
		<line class="st2" x1="9.5" y1="21.5" x2="14.5" y2="21.5"/>
		<line class="st2" x1="9.5" y1="19.5" x2="14.5" y2="19.5"/>
		<line class="st2" x1="9.5" y1="17.5" x2="14.5" y2="17.5"/>
		<line class="st2" x1="9.5" y1="15.5" x2="14.5" y2="15.5"/>
		<line class="st2" x1="9.5" y1="13.5" x2="14.5" y2="13.5"/>
		<line class="st2" x1="9.5" y1="11.5" x2="14.5" y2="11.5"/>
		<line class="st2" x1="9.5" y1="9.5" x2="14.5" y2="9.5"/>
		<line class="st2" x1="9.5" y1="7.5" x2="14.5" y2="7.5"/>
		<line class="st2" x1="9.5" y1="5.5" x2="14.5" y2="5.5"/>
		<line class="st2" x1="9.5" y1="3.5" x2="14.5" y2="3.5"/>
		<line class="st2" x1="16.5" y1="21.5" x2="21.5" y2="21.5"/>
		<line class="st2" x1="16.5" y1="19.5" x2="21.5" y2="19.5"/>
		<line class="st2" x1="16.5" y1="17.5" x2="21.5" y2="17.5"/>
	</g>
</g>
</svg>
