<?xml version="1.0" encoding="utf-8"?>
<!-- Generator: Adobe Illustrator 19.2.0, SVG Export Plug-In . SVG Version: 6.00 Build 0)  -->
<svg version="1.1" id="Layer_1" xmlns="http://www.w3.org/2000/svg" xmlns:xlink="http://www.w3.org/1999/xlink" x="0px" y="0px"
	 viewBox="0 0 24 24" style="enable-background:new 0 0 24 24;" xml:space="preserve">
<style type="text/css">
	.st0{display:none;}
	.st1{display:inline;}
	.st2{fill:none;stroke:#000000;stroke-linecap:round;stroke-linejoin:round;stroke-miterlimit:10;}
</style>
<g id="Filled_Icon" class="st0">
	<g class="st1">
		<g>
			<path d="M19,24H4c-0.3,0-0.5-0.2-0.5-0.5C3.5,23.2,3.7,23,4,23h15c0.3,0,0.5,0.2,0.5,0.5C19.5,23.8,19.3,24,19,24z"/>
		</g>
		<path d="M3.5,12.8l-2.8,2.8c-1,1-1,2.6,0,3.6l1.4,1.6C2.2,20.9,2.4,21,2.5,21h5.7c0.1,0,0.3-0.1,0.4-0.2l1.5-1.6L3.5,12.8z"/>
		<path d="M21.5,6.8l-5.7-5.7c-0.3-0.3-0.7-0.4-1.1-0.4l0,0c-0.4,0-0.8,0.2-1.1,0.4L3.9,11c-0.2,0.2-0.2,0.5,0,0.7l7.1,7.1
			c0.1,0.1,0.2,0.1,0.4,0.1c0.1,0,0.3,0,0.4-0.1l9.9-9.9C21.8,8.6,22,8.2,22,7.8C22,7.4,21.8,7.1,21.5,6.8z"/>
	</g>
</g>
<g id="Outline_Icons">
	<g>
		<line class="st2" x1="4" y1="23.5" x2="19" y2="23.5"/>
		<path class="st2" d="M11.3,18.4l-7.1-7.1l9.9-9.9c0.4-0.4,1-0.4,1.4,0l5.7,5.7c0.4,0.4,0.4,1,0,1.4L11.3,18.4z"/>
		<path class="st2" d="M2.5,20.5l-1.4-1.6c-0.8-0.8-0.8-2.1,0-2.9l3.8-3.9l5.8,5.7l-2.5,2.7H2.5z"/>
	</g>
</g>
</svg>
