<?xml version="1.0" encoding="utf-8"?>
<!-- Generator: Adobe Illustrator 19.2.0, SVG Export Plug-In . SVG Version: 6.00 Build 0)  -->
<svg version="1.1" id="Layer_1" xmlns="http://www.w3.org/2000/svg" xmlns:xlink="http://www.w3.org/1999/xlink" x="0px" y="0px"
	 viewBox="0 0 24 24" style="enable-background:new 0 0 24 24;" xml:space="preserve">
<style type="text/css">
	.st0{display:none;}
	.st1{display:inline;}
	.st2{fill:none;stroke:#000000;stroke-linecap:round;stroke-linejoin:round;stroke-miterlimit:10;}
</style>
<g id="Filled_Icon" class="st0">
	<g class="st1">
		<path d="M22.4,11.3c1-1,1-2.6,0-3.5l-5.2-5.2c-0.5-0.5-1.1-0.7-1.8-0.7c-0.7,0-1.3,0.3-1.8,0.7L9.5,6.8l8.7,8.7L22.4,11.3z"/>
		<path d="M3.7,20.4C4.6,21.3,6.3,22,7.5,22h2c1.2,0,2.9-0.7,3.8-1.6l4.2-4.2L8.8,7.5l-7.2,7.2c-0.5,0.5-0.7,1.1-0.7,1.8
			c0,0.7,0.3,1.3,0.7,1.8L3.7,20.4z"/>
		<path d="M23.5,23h-23C0.2,23,0,23.2,0,23.5C0,23.8,0.2,24,0.5,24h23c0.3,0,0.5-0.2,0.5-0.5C24,23.2,23.8,23,23.5,23z"/>
	</g>
</g>
<g id="Outline_Icons">
	<g>
		<path class="st2" d="M7.5,21.5c-1.1,0-2.6-0.6-3.4-1.4l-2.2-2.2c-0.8-0.8-0.8-2.1,0-2.8L14.1,2.9c0.8-0.8,2.1-0.8,2.8,0l5.2,5.2
			c0.8,0.8,0.8,2.1,0,2.8l-9.2,9.2c-0.8,0.8-2.3,1.4-3.4,1.4H7.5z"/>
		<line class="st2" x1="9.5" y1="7.5" x2="17.5" y2="15.5"/>
		<line class="st2" x1="0.5" y1="23.5" x2="23.5" y2="23.5"/>
	</g>
</g>
</svg>
