<?xml version="1.0" encoding="utf-8"?>
<!-- Generator: Adobe Illustrator 19.2.0, SVG Export Plug-In . SVG Version: 6.00 Build 0)  -->
<svg version="1.1" id="Layer_1" xmlns="http://www.w3.org/2000/svg" xmlns:xlink="http://www.w3.org/1999/xlink" x="0px" y="0px"
	 viewBox="0 0 24 24" style="enable-background:new 0 0 24 24;" xml:space="preserve">
<style type="text/css">
	.st0{display:none;}
	.st1{display:inline;}
	.st2{fill:none;stroke:#000000;stroke-linejoin:round;stroke-miterlimit:10;}
	.st3{fill:none;stroke:#000000;stroke-linecap:round;stroke-linejoin:round;stroke-miterlimit:10;}
</style>
<g id="Filled_Icons" class="st0">
	<g class="st1">
		<path d="M20.5,17h-3.6L9.6,9.2C9.5,9.1,9.3,9,9.2,9H3.5C1.6,9,0,10.6,0,12.5C0,14.4,1.6,16,3.5,16h3.1l7.4,7.8
			c0.1,0.1,0.2,0.2,0.4,0.2h6.2c1.9,0,3.5-1.6,3.5-3.5C24,18.6,22.4,17,20.5,17z"/>
		<path d="M22.5,6.5c0-0.6-0.4-1-1-1c-0.6,0-1,0.4-1,1v2.6l-6.3-6.3c-0.4-0.4-1-0.4-1.4,0c-0.4,0.4-0.4,1,0,1.4l6.3,6.3h-2.6
			c-0.6,0-1,0.4-1,1c0,0.6,0.4,1,1,1h5c0.5,0,1-0.5,1-1V6.5z"/>
	</g>
</g>
<g id="Outline_Icons">
	<g>
		<g>
			<path class="st2" d="M14.3,23.5h6.2c1.7,0,3-1.3,3-3c0-1.7-1.3-3-3-3h-3.8l-7.5-8H3.5c-1.7,0-3,1.3-3,3c0,1.7,1.3,3,3,3h3.3
				L14.3,23.5z"/>
		</g>
		<line class="st3" x1="13.5" y1="3.5" x2="21.5" y2="11.5"/>
		<polyline class="st3" points="16.5,11.5 21.5,11.5 21.5,6.5 		"/>
	</g>
</g>
</svg>
