<?xml version="1.0" encoding="utf-8"?>
<!-- Generator: Adobe Illustrator 19.2.0, SVG Export Plug-In . SVG Version: 6.00 Build 0)  -->
<svg version="1.1" id="Layer_1" xmlns="http://www.w3.org/2000/svg" xmlns:xlink="http://www.w3.org/1999/xlink" x="0px" y="0px"
	 viewBox="0 0 24 24" style="enable-background:new 0 0 24 24;" xml:space="preserve">
<style type="text/css">
	.st0{display:none;}
	.st1{display:inline;}
	.st2{fill:none;stroke:#000000;stroke-linejoin:round;stroke-miterlimit:10;}
	.st3{fill:none;stroke:#000000;stroke-linecap:round;stroke-linejoin:round;stroke-miterlimit:10;}
</style>
<g id="Filled_Icons" class="st0">
	<g class="st1">
		<path d="M20.5,9h-5.7c-0.1,0-0.3,0.1-0.4,0.2L7.1,17H3.5C1.6,17,0,18.6,0,20.5C0,22.4,1.6,24,3.5,24h6.2c0.1,0,0.3-0.1,0.4-0.2
			l7.4-7.8h3.1c1.9,0,3.5-1.6,3.5-3.5C24,10.6,22.4,9,20.5,9z"/>
		<path d="M3.2,12.2l6.3-6.3v2.6c0,0.6,0.4,1,1,1c0.6,0,1-0.4,1-1v-5c0-0.5-0.5-1-1-1h-5c-0.6,0-1,0.4-1,1c0,0.6,0.4,1,1,1h2.6
			l-6.3,6.3c-0.4,0.4-0.4,1,0,1.4C2.2,12.6,2.8,12.6,3.2,12.2z"/>
	</g>
</g>
<g id="Outline_Icons">
	<g>
		<g>
			<path class="st2" d="M9.7,23.5H3.5c-1.7,0-3-1.3-3-3c0-1.7,1.3-3,3-3h3.8l7.5-8h5.7c1.7,0,3,1.3,3,3c0,1.7-1.3,3-3,3h-3.3
				L9.7,23.5z"/>
		</g>
		<line class="st3" x1="2.5" y1="11.5" x2="10.5" y2="3.5"/>
		<polyline class="st3" points="5.5,3.5 10.5,3.5 10.5,8.5 		"/>
	</g>
</g>
</svg>
