<?xml version="1.0" encoding="utf-8"?>
<!-- Generator: Adobe Illustrator 19.2.0, SVG Export Plug-In . SVG Version: 6.00 Build 0)  -->
<svg version="1.1" id="Layer_1" xmlns="http://www.w3.org/2000/svg" xmlns:xlink="http://www.w3.org/1999/xlink" x="0px" y="0px"
	 viewBox="0 0 24 24" style="enable-background:new 0 0 24 24;" xml:space="preserve">
<style type="text/css">
	.st0{display:none;}
	.st1{display:inline;}
	.st2{fill:none;stroke:#000000;stroke-linecap:round;stroke-linejoin:round;stroke-miterlimit:10;}
</style>
<g id="Filled_Icons" class="st0">
	<path class="st1" d="M23.5,0h-23C0.2,0,0,0.2,0,0.5v23C0,23.8,0.2,24,0.5,24h23c0.3,0,0.5-0.2,0.5-0.5v-23C24,0.2,23.8,0,23.5,0z
		 M21,16.5c0,0.3-0.2,0.5-0.5,0.5H15v1.5c0,0.3-0.2,0.5-0.5,0.5h-5C9.2,19,9,18.8,9,18.5V17H3.5C3.2,17,3,16.8,3,16.5v-12
		C3,4.2,3.2,4,3.5,4H7v4.5C7,8.8,7.2,9,7.5,9C7.8,9,8,8.8,8,8.5V4h2v4.5C10,8.8,10.2,9,10.5,9C10.8,9,11,8.8,11,8.5V4h2v4.5
		C13,8.8,13.2,9,13.5,9C13.8,9,14,8.8,14,8.5V4h2v4.5C16,8.8,16.2,9,16.5,9C16.8,9,17,8.8,17,8.5V4h3.5C20.8,4,21,4.2,21,4.5V16.5z"
		/>
</g>
<g id="Outline_Icons">
	<g>
		<rect x="0.5" y="0.5" class="st2" width="23" height="23"/>
		<polygon class="st2" points="3.5,4.5 3.5,16.5 9.5,16.5 9.5,18.5 14.5,18.5 14.5,16.5 20.5,16.5 20.5,4.5 		"/>
		<line class="st2" x1="7.5" y1="4.5" x2="7.5" y2="8.5"/>
		<line class="st2" x1="10.5" y1="4.5" x2="10.5" y2="8.5"/>
		<line class="st2" x1="13.5" y1="4.5" x2="13.5" y2="8.5"/>
		<line class="st2" x1="16.5" y1="4.5" x2="16.5" y2="8.5"/>
	</g>
</g>
</svg>
