<?xml version="1.0" encoding="utf-8"?>
<!-- Generator: Adobe Illustrator 19.2.0, SVG Export Plug-In . SVG Version: 6.00 Build 0)  -->
<svg version="1.1" id="Layer_1" xmlns="http://www.w3.org/2000/svg" xmlns:xlink="http://www.w3.org/1999/xlink" x="0px" y="0px"
	 viewBox="0 0 24 24" style="enable-background:new 0 0 24 24;" xml:space="preserve">
<style type="text/css">
	.st0{display:none;}
	.st1{display:inline;}
	.st2{fill:none;stroke:#000000;stroke-linecap:round;stroke-linejoin:round;stroke-miterlimit:10;}
</style>
<g id="Filled_Icon" class="st0">
	<g class="st1">
		<path d="M23.5,12C23.5,12,23.5,12,23.5,12l-3.9,0c-0.3,0-0.5,0.2-0.5,0.5c0,0.3,0.2,0.5,0.5,0.5h2.7L16,18.8l-4.7-3.7
			c-0.2-0.2-0.5-0.1-0.6,0l-9,8c-0.2,0.2-0.2,0.5,0,0.7C1.7,23.9,1.9,24,2,24c0.1,0,0.2,0,0.3-0.1l8.7-7.7l4.7,3.7
			c0.2,0.2,0.5,0.1,0.7,0l6.7-6.2v2.8c0,0.3,0.2,0.5,0.5,0.5c0.3,0,0.5-0.2,0.5-0.5v-4C24,12.3,23.8,12,23.5,12z"/>
		<path d="M9,0C4,0,0,4,0,9c0,4,2.7,7.5,6.4,8.6l3.6-3.2c0.5-0.5,1.4-0.5,1.9,0l2.4,1.9C16.5,14.6,18,12,18,9C18,4,14,0,9,0z M10,7
			c0.3,0,0.5,0.2,0.5,0.5C10.5,7.8,10.3,8,10,8H7.3c0,0.3,0.1,0.7,0.1,1H10c0.3,0,0.5,0.2,0.5,0.5c0,0.3-0.2,0.5-0.5,0.5H7.9
			c0.7,1.2,2,2,3.5,2c0.3,0,0.5,0.2,0.5,0.5c0,0.3-0.2,0.5-0.5,0.5c-2,0-3.8-1.2-4.6-3H5c-0.3,0-0.5-0.2-0.5-0.5C4.5,9.3,4.7,9,5,9
			h1.4C6.4,8.7,6.3,8.4,6.3,8H5C4.7,8,4.5,7.8,4.5,7.5C4.5,7.3,4.7,7,5,7h1.4c0.5-2.3,2.5-4,4.9-4c0.3,0,0.5,0.2,0.5,0.5
			c0,0.3-0.2,0.5-0.5,0.5C9.5,4,7.9,5.3,7.5,7H10z"/>
	</g>
</g>
<g id="Outline_Icons">
	<g>
		<polyline class="st2" points="2,23.5 11,15.5 16,19.5 23.5,12.5 		"/>
		<polyline class="st2" points="19.6,12.5 23.5,12.5 23.5,16.5 		"/>
		<path class="st2" d="M5,16.5C2.3,15.1,0.5,12.3,0.5,9c0-4.7,3.8-8.5,8.5-8.5c4.7,0,8.5,3.8,8.5,8.5c0,1.8-0.6,3.5-1.6,4.9"/>
		<line class="st2" x1="5" y1="10.5" x2="10" y2="10.5"/>
		<line class="st2" x1="5" y1="8.5" x2="10" y2="8.5"/>
		<path class="st2" d="M11.4,4.5c-2.5,0-4.5,2-4.5,4.5c0,2.5,2,4.5,4.5,4.5"/>
	</g>
</g>
</svg>
