<?xml version="1.0" encoding="utf-8"?>
<!-- Generator: Adobe Illustrator 19.2.0, SVG Export Plug-In . SVG Version: 6.00 Build 0)  -->
<svg version="1.1" id="Layer_1" xmlns="http://www.w3.org/2000/svg" xmlns:xlink="http://www.w3.org/1999/xlink" x="0px" y="0px"
	 viewBox="0 0 24 24" style="enable-background:new 0 0 24 24;" xml:space="preserve">
<style type="text/css">
	.st0{display:none;}
	.st1{display:inline;}
	.st2{fill:none;stroke:#000000;stroke-linecap:round;stroke-linejoin:round;stroke-miterlimit:10;}
</style>
<g id="Filled_Icon" class="st0">
	<path class="st1" d="M12,0C5.4,0,0,5.4,0,12c0,6.6,5.4,12,12,12c6.6,0,12-5.4,12-12C24,5.4,18.6,0,12,0z M13,11
		c0.3,0,0.5,0.2,0.5,0.5c0,0.3-0.2,0.5-0.5,0.5H8.5c0,0.4,0,0.7,0.1,1H12c0.3,0,0.5,0.2,0.5,0.5c0,0.3-0.2,0.5-0.5,0.5H8.8
		c0.6,2.1,2.4,3,5.7,3c0.3,0,0.5,0.2,0.5,0.5c0,0.3-0.2,0.5-0.5,0.5c-2.6,0-5.9-0.5-6.8-4H6.5C6.2,14,6,13.8,6,13.5
		C6,13.2,6.2,13,6.5,13h1.1c0-0.3-0.1-0.6-0.1-1h-1C6.2,12,6,11.8,6,11.5C6,11.2,6.2,11,6.5,11h1.1c0.5-4.5,4.1-5,6.9-5
		C14.8,6,15,6.2,15,6.5C15,6.8,14.8,7,14.5,7c-3.8,0-5.6,1.2-5.9,4H13z"/>
</g>
<g id="Outline_Icons">
	<g>
		<circle class="st2" cx="12" cy="12" r="11.5"/>
		<path class="st2" d="M14.5,17.5c-3.6,0-6.5-1-6.5-5.5s2.9-5.5,6.5-5.5"/>
		<line class="st2" x1="6.5" y1="13.5" x2="12" y2="13.5"/>
		<line class="st2" x1="6.5" y1="11.5" x2="13" y2="11.5"/>
	</g>
</g>
</svg>
