<?xml version="1.0" encoding="utf-8"?>
<!-- Generator: Adobe Illustrator 19.2.0, SVG Export Plug-In . SVG Version: 6.00 Build 0)  -->
<svg version="1.1" id="Layer_1" xmlns="http://www.w3.org/2000/svg" xmlns:xlink="http://www.w3.org/1999/xlink" x="0px" y="0px"
	 viewBox="0 0 24 24" style="enable-background:new 0 0 24 24;" xml:space="preserve">
<style type="text/css">
	.st0{display:none;}
	.st1{display:inline;}
	.st2{fill:none;stroke:#000000;stroke-linecap:round;stroke-linejoin:round;stroke-miterlimit:10;}
</style>
<g id="Filled_Icon" class="st0">
	<g class="st1">
		<path d="M23.5,19c-0.3,0-0.5,0.2-0.5,0.5v2.8l-6.7-6.2c-0.2-0.2-0.5-0.2-0.7,0L11,19.9l-8.7-7.7c-0.2-0.2-0.5-0.2-0.7,0
			c-0.2,0.2-0.2,0.5,0,0.7l9,8c0.2,0.2,0.5,0.2,0.6,0l4.7-3.7l6.2,5.8h-2.7c-0.3,0-0.5,0.2-0.5,0.5c0,0.3,0.2,0.5,0.5,0.5h3.9
			c0.3,0,0.5-0.2,0.5-0.5v-4C24,19.2,23.8,19,23.5,19z"/>
		<path d="M15,0c-5,0-9,4-9,9c0,4,2.6,7.4,6.3,8.6l2.8-2.2c0.6-0.5,1.4-0.4,2,0.1l1.8,1.7c3-1.4,5.2-4.5,5.2-8.1C24,4,20,0,15,0z
			 M16,7.5c0.3,0,0.5,0.2,0.5,0.5c0,0.3-0.2,0.5-0.5,0.5h-2.7c0,0.3,0.1,0.7,0.1,1H16c0.3,0,0.5,0.2,0.5,0.5c0,0.3-0.2,0.5-0.5,0.5
			h-2.1c0.7,1.2,2,2,3.5,2c0.3,0,0.5,0.2,0.5,0.5c0,0.3-0.2,0.5-0.5,0.5c-2,0-3.8-1.2-4.6-3H11c-0.3,0-0.5-0.2-0.5-0.5
			c0-0.3,0.2-0.5,0.5-0.5h1.4c-0.1-0.3-0.1-0.7-0.1-1H11c-0.3,0-0.5-0.2-0.5-0.5c0-0.3,0.2-0.5,0.5-0.5h1.4c0.5-2.3,2.5-4,4.9-4
			c0.3,0,0.5,0.2,0.5,0.5c0,0.3-0.2,0.5-0.5,0.5c-1.9,0-3.4,1.3-3.9,3H16z"/>
	</g>
</g>
<g id="Outline_Icons">
	<g>
		<polyline class="st2" points="2,12.5 11,20.5 16,16.5 23.5,23.5 		"/>
		<polyline class="st2" points="19.6,23.5 23.5,23.5 23.5,19.5 		"/>
		<path class="st2" d="M9.1,15.1C7.5,13.5,6.5,11.4,6.5,9c0-4.7,3.8-8.5,8.5-8.5c4.7,0,8.5,3.8,8.5,8.5c0,2.3-1,4.5-2.5,6"/>
		<line class="st2" x1="11" y1="10.5" x2="16" y2="10.5"/>
		<line class="st2" x1="11" y1="8.5" x2="16" y2="8.5"/>
		<path class="st2" d="M17.4,4.5c-2.5,0-4.5,2-4.5,4.5c0,2.5,2,4.5,4.5,4.5"/>
	</g>
</g>
</svg>
