<?xml version="1.0" encoding="utf-8"?>
<!-- Generator: Adobe Illustrator 19.2.0, SVG Export Plug-In . SVG Version: 6.00 Build 0)  -->
<svg version="1.1" id="Layer_1" xmlns="http://www.w3.org/2000/svg" xmlns:xlink="http://www.w3.org/1999/xlink" x="0px" y="0px"
	 viewBox="0 0 24 24" style="enable-background:new 0 0 24 24;" xml:space="preserve">
<style type="text/css">
	.st0{display:none;}
	.st1{display:inline;}
	.st2{fill:none;stroke:#000000;stroke-linecap:round;stroke-linejoin:round;stroke-miterlimit:10;}
	.st3{fill:none;stroke:#000000;stroke-linejoin:round;stroke-miterlimit:10;}
</style>
<g id="Filled_Icon" class="st0">
	<g class="st1">
		<path d="M23.5,19c-2.7,0-5-1.7-6-4h4c0.3,0,0.5-0.2,0.5-0.5c0-0.3-0.2-0.5-0.5-0.5h-4.4c-0.1-0.5-0.2-1-0.2-1.5c0-0.2,0-0.3,0-0.5
			h4.5c0.3,0,0.5-0.2,0.5-0.5c0-0.3-0.2-0.5-0.5-0.5h-4.4c0.7-2.9,3.2-5,6.3-5C23.8,6,24,5.8,24,5.5C24,5.2,23.8,5,23.5,5
			c-3.6,0-6.7,2.6-7.4,6h-1.5c-0.3,0-0.5,0.2-0.5,0.5c0,0.3,0.2,0.5,0.5,0.5H16c0,0.2,0,0.3,0,0.5c0,0.5,0.1,1,0.2,1.5h-1.5
			c-0.3,0-0.5,0.2-0.5,0.5c0,0.3,0.2,0.5,0.5,0.5h1.8c1,2.9,3.8,5,7.1,5c0.3,0,0.5-0.2,0.5-0.5C24,19.2,23.8,19,23.5,19z"/>
		<g>
			<path d="M13,18H8.9c0.7,1.7,1.7,3.5,3,5.2l0.6,0.8l0.5,0L13,18L13,18z"/>
			<path d="M8.5,17H13v-5H7.5C7.6,13.7,7.9,15.3,8.5,17z"/>
			<path d="M1,7c-0.5,1.2-0.9,2.6-1,4h6.5c0-1.4,0.2-2.7,0.6-4H1z"/>
			<path d="M6.5,12H0c0,1.8,0.4,3.5,1.2,5h6.3C6.9,15.3,6.6,13.7,6.5,12z"/>
			<path d="M7.5,6c0.8-2.1,2-4,3.6-5.8l0.1-0.1C7,0.3,3.4,2.6,1.5,6H7.5z"/>
			<path d="M11.1,23.8C9.7,21.9,8.6,20,7.8,18H1.7c2,3.4,5.5,5.7,9.5,6L11.1,23.8z"/>
			<path d="M12.7,0.1l-0.8,0.8C10.4,2.5,9.3,4.2,8.5,6H13v-6L12.7,0.1z"/>
			<path d="M8.2,7c-0.4,1.3-0.6,2.6-0.7,4H13V7H8.2z"/>
		</g>
	</g>
</g>
<g id="Outline_Icons">
	<g>
		<line class="st2" x1="14.6" y1="14.5" x2="21.5" y2="14.5"/>
		<line class="st2" x1="14.6" y1="11.5" x2="21.5" y2="11.5"/>
		<path class="st3" d="M11.5,23.5c-6-8-6-16.5,0-23"/>
		<line class="st3" x1="2" y1="17.5" x2="12.5" y2="17.5"/>
		<line class="st3" x1="1.8" y1="6.5" x2="12.5" y2="6.5"/>
		<line class="st3" x1="0.6" y1="11.5" x2="12.5" y2="11.5"/>
		<path class="st3" d="M12.5,0.5c-0.2,0-0.3,0-0.5,0C5.6,0.5,0.5,5.4,0.5,11.7c0,6.4,5.1,11.8,11.5,11.8c0.2,0,0.4,0,0.5,0V0.5z"/>
		<path class="st2" d="M23.5,5.5c-3.9,0-7,3.1-7,7c0,3.9,3.1,7,7,7"/>
	</g>
</g>
</svg>
