<?xml version="1.0" encoding="utf-8"?>
<!-- Generator: Adobe Illustrator 19.2.0, SVG Export Plug-In . SVG Version: 6.00 Build 0)  -->
<svg version="1.1" id="Layer_1" xmlns="http://www.w3.org/2000/svg" xmlns:xlink="http://www.w3.org/1999/xlink" x="0px" y="0px"
	 viewBox="0 0 24 24" style="enable-background:new 0 0 24 24;" xml:space="preserve">
<style type="text/css">
	.st0{display:none;}
	.st1{display:inline;}
	.st2{fill:none;stroke:#000000;stroke-linecap:round;stroke-linejoin:round;stroke-miterlimit:10;}
</style>
<g id="Filled_Icon" class="st0">
	<path class="st1" d="M19.5,16.5c-0.6,0-1,0.4-1,1c0,2.5-2,4.5-4.5,4.5c-2.5,0-4.5-2-4.5-4.5V16h6c0.6,0,1-0.4,1-1c0-0.6-0.4-1-1-1
		h-6v-2h8c0.6,0,1-0.4,1-1c0-0.6-0.4-1-1-1h-8V6.5C9.5,4,11.5,2,14,2c2.5,0,4.5,2,4.5,4.5c0,0.6,0.4,1,1,1c0.6,0,1-0.4,1-1
		C20.5,2.9,17.6,0,14,0S7.5,2.9,7.5,6.5V10h-5c-0.6,0-1,0.4-1,1c0,0.6,0.4,1,1,1h5v2h-5c-0.6,0-1,0.4-1,1c0,0.6,0.4,1,1,1h5v1.5
		c0,3.6,2.9,6.5,6.5,6.5s6.5-2.9,6.5-6.5C20.5,16.9,20.1,16.5,19.5,16.5z"/>
</g>
<g id="Outline_Icons">
	<g>
		<path class="st2" d="M19.5,6c0-3-2.5-5.5-5.5-5.5C11,0.5,8.5,3,8.5,6v12c0,3,2.5,5.5,5.5,5.5c3,0,5.5-2.5,5.5-5.5"/>
		<line class="st2" x1="2.5" y1="10.5" x2="17.5" y2="10.5"/>
		<line class="st2" x1="2.5" y1="13.5" x2="15.5" y2="13.5"/>
	</g>
</g>
</svg>
