<?xml version="1.0" encoding="utf-8"?>
<!-- Generator: Adobe Illustrator 19.2.0, SVG Export Plug-In . SVG Version: 6.00 Build 0)  -->
<svg version="1.1" id="Layer_1" xmlns="http://www.w3.org/2000/svg" xmlns:xlink="http://www.w3.org/1999/xlink" x="0px" y="0px"
	 viewBox="0 0 24 24" style="enable-background:new 0 0 24 24;" xml:space="preserve">
<style type="text/css">
	.st0{display:none;}
	.st1{display:inline;}
	.st2{fill:none;stroke:#000000;stroke-linecap:round;stroke-linejoin:round;stroke-miterlimit:10;}
	.st3{fill:none;stroke:#000000;stroke-linejoin:round;stroke-miterlimit:10;}
</style>
<g id="Filled_Icon" class="st0">
	<g class="st1">
		<path d="M9,17H6v2h3c0.6,0,1-0.4,1-1C10,17.4,9.6,17,9,17z"/>
		<path d="M9,14H6v2h3c0.6,0,1-0.4,1-1C10,14.4,9.6,14,9,14z"/>
		<path d="M7.5,9C3.4,9,0,12.4,0,16.5C0,20.6,3.4,24,7.5,24c4.1,0,7.5-3.4,7.5-7.5C15,12.4,11.6,9,7.5,9z M11,18c0,1.1-0.9,2-2,2
			v1.5C9,21.8,8.8,22,8.5,22C8.2,22,8,21.8,8,21.5V20H7v1.5C7,21.8,6.8,22,6.5,22C6.2,22,6,21.8,6,21.5V20H5.5C5.2,20,5,19.8,5,19.5
			v-3v-3C5,13.2,5.2,13,5.5,13H6v-1.5C6,11.2,6.2,11,6.5,11C6.8,11,7,11.2,7,11.5V13h1v-1.5C8,11.2,8.2,11,8.5,11
			C8.8,11,9,11.2,9,11.5V13c1.1,0,2,0.9,2,2c0,0.6-0.3,1.1-0.7,1.5C10.7,16.9,11,17.4,11,18z"/>
		<path d="M18.5,11c3,0,5.5-2.5,5.5-5.5c0-3-2.5-5.5-5.5-5.5c-3,0-5.5,2.5-5.5,5.5C13,8.5,15.5,11,18.5,11z M18.5,6
			c-0.9,0-1.7-0.7-1.7-1.7c0-0.7,0.5-1.4,1.2-1.6V2.4c0-0.3,0.2-0.5,0.5-0.5c0.3,0,0.5,0.2,0.5,0.5v0.4c0.7,0.2,1.2,0.8,1.2,1.6
			c0,0.3-0.2,0.5-0.5,0.5c-0.3,0-0.5-0.2-0.5-0.5c0-0.4-0.3-0.7-0.7-0.7c-0.4,0-0.7,0.3-0.7,0.7c0,0.4,0.3,0.7,0.7,0.7
			c0.9,0,1.7,0.7,1.7,1.7c0,0.7-0.5,1.4-1.2,1.6v0.4c0,0.3-0.2,0.5-0.5,0.5c-0.3,0-0.5-0.2-0.5-0.5V8.2c-0.7-0.2-1.2-0.8-1.2-1.6
			c0-0.3,0.2-0.5,0.5-0.5c0.3,0,0.5,0.2,0.5,0.5c0,0.4,0.3,0.7,0.7,0.7c0.4,0,0.7-0.3,0.7-0.7C19.2,6.3,18.9,6,18.5,6z"/>
		<path d="M3.6,7.4L3.6,7.4L3.6,7.4C3.6,7.4,3.6,7.4,3.6,7.4C3.7,7.5,3.9,7.5,4,7.5h0c0,0,0,0,0,0c0.1,0,0.2,0,0.3-0.1l2-2
			c0.2-0.2,0.2-0.5,0-0.7c-0.2-0.2-0.5-0.2-0.7,0L4.5,5.8c0.1-1.1,0.5-2.2,1.3-3C6.6,2,7.8,1.5,9,1.5c0.3,0,0.5-0.2,0.5-0.5
			c0-0.3-0.2-0.5-0.5-0.5h0c-1.5,0-2.8,0.6-3.9,1.6c-1,1-1.5,2.3-1.6,3.7L2.3,4.7c-0.2-0.2-0.5-0.2-0.7,0c-0.2,0.2-0.2,0.5,0,0.7
			L3.6,7.4z"/>
		<path d="M21.4,14.6L21.4,14.6L21.4,14.6C21.4,14.6,21.4,14.6,21.4,14.6c-0.1-0.1-0.2-0.1-0.3-0.1c0,0,0,0,0,0l0,0
			c-0.1,0-0.3,0.1-0.4,0.1l-2,2c-0.2,0.2-0.2,0.5,0,0.7c0.1,0.1,0.2,0.1,0.4,0.1c0.1,0,0.3-0.1,0.4-0.1l1.1-1.1
			c-0.1,2.4-2.1,4.3-4.5,4.3c-0.3,0-0.5,0.2-0.5,0.5c0,0.3,0.2,0.5,0.5,0.5c0,0,0,0,0,0c3,0,5.4-2.4,5.5-5.3l1.2,1.2
			c0.2,0.2,0.5,0.2,0.7,0c0.2-0.2,0.2-0.5,0-0.7L21.4,14.6z"/>
	</g>
</g>
<g id="Outline_Icons">
	<g>
		<line class="st2" x1="6.5" y1="11.5" x2="6.5" y2="13.5"/>
		<line class="st2" x1="8.5" y1="11.5" x2="8.5" y2="13.5"/>
		<line class="st2" x1="6.5" y1="19.5" x2="6.5" y2="21.5"/>
		<line class="st2" x1="8.5" y1="19.5" x2="8.5" y2="21.5"/>
		<path class="st2" d="M10.5,15c0,0.8-0.7,1.5-1.5,1.5H5.5v-3H9C9.8,13.5,10.5,14.2,10.5,15z"/>
		<path class="st2" d="M10.5,18c0,0.8-0.7,1.5-1.5,1.5H5.5v-3H9C9.8,16.5,10.5,17.2,10.5,18z"/>
		<circle class="st3" cx="18.5" cy="5.5" r="5"/>
		<circle class="st3" cx="7.5" cy="16.5" r="7"/>
		<path class="st2" d="M17.3,6.7c0,0.6,0.5,1.2,1.2,1.2c0.6,0,1.2-0.5,1.2-1.2c0-0.6-0.5-1.2-1.2-1.2c-0.6,0-1.2-0.5-1.2-1.2
			c0-0.6,0.5-1.2,1.2-1.2c0.6,0,1.2,0.5,1.2,1.2"/>
		<line class="st2" x1="18.5" y1="7.8" x2="18.5" y2="8.6"/>
		<line class="st2" x1="18.5" y1="2.4" x2="18.5" y2="3.2"/>
		<polyline class="st2" points="2,5 4,7 6,5 		"/>
		<path class="st2" d="M9,1C6.2,1,4,3.3,4,6l0,1"/>
		<polyline class="st2" points="23,17 21,15 19,17 		"/>
		<path class="st2" d="M16,21c2.8,0,5-2.3,5-5l0-1"/>
	</g>
</g>
</svg>
