<?xml version="1.0" encoding="utf-8"?>
<!-- Generator: Adobe Illustrator 19.2.0, SVG Export Plug-In . SVG Version: 6.00 Build 0)  -->
<svg version="1.1" id="Layer_1" xmlns="http://www.w3.org/2000/svg" xmlns:xlink="http://www.w3.org/1999/xlink" x="0px" y="0px"
	 viewBox="0 0 24 24" style="enable-background:new 0 0 24 24;" xml:space="preserve">
<style type="text/css">
	.st0{display:none;}
	.st1{display:inline;}
	.st2{fill:none;stroke:#000000;stroke-linecap:round;stroke-linejoin:round;stroke-miterlimit:10;}
</style>
<g id="Filled_Icon" class="st0">
	<g class="st1">
		<path d="M8.8,13.3c-1,0.1-1.9,0.6-2.3,1.5h2.1C8.8,14.8,9,15,9,15.3c0,0.3-0.2,0.5-0.5,0.5H6.1C6,15.9,6,16.1,6,16.3
			c0,0.2,0,0.3,0.1,0.5h2.4C8.8,16.8,9,17,9,17.3c0,0.3-0.2,0.5-0.5,0.5H6.4c0.5,0.9,1.5,1.5,2.6,1.5c0.3,0,0.5,0.2,0.5,0.5
			c0,0.3-0.2,0.5-0.5,0.5c-1.7,0-3.1-1-3.7-2.5H4.5c-0.3,0-0.5-0.2-0.5-0.5c0-0.3,0.2-0.5,0.5-0.5h0.6C5,16.6,5,16.5,5,16.3
			c0-0.2,0-0.3,0.1-0.5H4.5c-0.3,0-0.5-0.2-0.5-0.5c0-0.3,0.2-0.5,0.5-0.5h0.8c0.5-1.2,1.6-2.1,2.8-2.4C7.4,11.1,7,9.6,7,8.1
			C3.1,8.6,0,11.9,0,16c0,4.4,3.6,8,8,8c4.1,0,7.4-3.1,7.9-7C13,17,10.4,15.5,8.8,13.3z"/>
		<path d="M2.6,7.4c0.2,0.2,0.5,0.2,0.7,0l2-2c0.2-0.2,0.2-0.5,0-0.7c-0.2-0.2-0.5-0.2-0.7,0L3.5,5.8C3.6,3.4,5.6,1.5,8,1.5
			c0.3,0,0.5-0.2,0.5-0.5c0-0.3-0.2-0.5-0.5-0.5c0,0,0,0,0,0c-1.5,0-2.8,0.6-3.9,1.6c-1,1-1.5,2.3-1.6,3.7L1.3,4.7
			c-0.2-0.2-0.5-0.2-0.7,0c-0.2,0.2-0.2,0.5,0,0.7L2.6,7.4z"/>
		<path d="M21.4,16.6L21.4,16.6L21.4,16.6C21.4,16.6,21.4,16.6,21.4,16.6c-0.2-0.2-0.5-0.2-0.7,0l-2,2c-0.2,0.2-0.2,0.5,0,0.7
			c0.1,0.1,0.2,0.1,0.4,0.1s0.3,0,0.4-0.1l1.1-1.1c-0.1,2.4-2.1,4.3-4.5,4.3c-0.3,0-0.5,0.2-0.5,0.5c0,0.3,0.2,0.5,0.5,0.5
			c0,0,0,0,0,0c3,0,5.4-2.4,5.5-5.3l1.2,1.2c0.2,0.2,0.5,0.2,0.7,0c0.2-0.2,0.2-0.5,0-0.7L21.4,16.6z"/>
		<path d="M16,16c4.4,0,8-3.6,8-8c0-4.4-3.6-8-8-8c-4.4,0-8,3.6-8,8C8,12.4,11.6,16,16,16z M16,8.5c-1.1,0-2-0.9-2-2
			c0-0.9,0.6-1.7,1.5-1.9V4c0-0.3,0.2-0.5,0.5-0.5c0.3,0,0.5,0.2,0.5,0.5v0.6c0.9,0.2,1.5,1,1.5,1.9C18,6.8,17.8,7,17.5,7
			C17.2,7,17,6.8,17,6.5c0-0.6-0.4-1-1-1c-0.6,0-1,0.4-1,1c0,0.6,0.4,1,1,1c1.1,0,2,0.9,2,2c0,0.9-0.6,1.7-1.5,1.9V12
			c0,0.3-0.2,0.5-0.5,0.5c-0.3,0-0.5-0.2-0.5-0.5v-0.6c-0.9-0.2-1.5-1-1.5-1.9C14,9.2,14.2,9,14.5,9C14.8,9,15,9.2,15,9.5
			c0,0.6,0.4,1,1,1c0.6,0,1-0.4,1-1C17,8.9,16.6,8.5,16,8.5z"/>
	</g>
</g>
<g id="Outline_Icons">
	<g>
		<circle class="st2" cx="16" cy="8" r="7.5"/>
		<line class="st2" x1="16" y1="11" x2="16" y2="12"/>
		<line class="st2" x1="16" y1="4" x2="16" y2="5"/>
		<path class="st2" d="M14.5,9.5c0,0.8,0.7,1.5,1.5,1.5c0.8,0,1.5-0.7,1.5-1.5C17.5,8.7,16.8,8,16,8c-0.8,0-1.5-0.7-1.5-1.5
			C14.5,5.7,15.2,5,16,5c0.8,0,1.5,0.7,1.5,1.5"/>
		<path class="st2" d="M8.5,8.5c-0.2,0-0.3,0-0.5,0c-4.1,0-7.5,3.4-7.5,7.5c0,4.1,3.4,7.5,7.5,7.5c4.1,0,7.5-3.4,7.5-7.5
			c0-0.2,0-0.4,0-0.5"/>
		<path class="st2" d="M9,19.8c-1.9,0-3.5-1.6-3.5-3.5c0-1.9,1.6-3.5,3.5-3.5"/>
		<line class="st2" x1="4.5" y1="15.3" x2="8.5" y2="15.3"/>
		<line class="st2" x1="4.5" y1="17.3" x2="8.5" y2="17.3"/>
		<polyline class="st2" points="1,5 3,7 5,5 		"/>
		<path class="st2" d="M8,1C5.2,1,3,3.3,3,6v1"/>
		<polyline class="st2" points="23,19 21,17 19,19 		"/>
		<path class="st2" d="M16,23c2.8,0,5-2.3,5-5l0-1"/>
	</g>
</g>
</svg>
