<?xml version="1.0" encoding="utf-8"?>
<!-- Generator: Adobe Illustrator 19.2.0, SVG Export Plug-In . SVG Version: 6.00 Build 0)  -->
<svg version="1.1" id="Layer_1" xmlns="http://www.w3.org/2000/svg" xmlns:xlink="http://www.w3.org/1999/xlink" x="0px" y="0px"
	 viewBox="0 0 24 24" style="enable-background:new 0 0 24 24;" xml:space="preserve">
<style type="text/css">
	.st0{display:none;}
	.st1{display:inline;}
	.st2{fill:none;stroke:#000000;stroke-linejoin:round;stroke-miterlimit:10;}
	.st3{fill:none;stroke:#000000;stroke-linecap:round;stroke-linejoin:round;stroke-miterlimit:10;}
</style>
<g id="Filled_Icon" class="st0">
	<g class="st1">
		<path d="M19.3,5.6L23,4.1c-0.7-1.3-1.8-2.3-3.1-3l-1.6,3.6C18.7,4.9,19,5.2,19.3,5.6z"/>
		<path d="M20.1,8c0,0.5-0.1,1-0.3,1.5l3.6,1.5c0.4-0.9,0.6-1.9,0.6-3c0-1.1-0.2-2.1-0.6-3l-3.6,1.5C20,6.9,20.1,7.5,20.1,8z"/>
		<circle cx="16" cy="8" r="3.1"/>
		<path d="M8.6,11.1l3.6-1.6C12,9,11.9,8.5,11.9,8c0-0.5,0.1-1,0.3-1.5L8.6,5C8.2,5.9,8,7,8,8C8,9.1,8.2,10.1,8.6,11.1z"/>
		<path d="M9.1,12c0.7,1.3,1.8,2.3,3,3l1.6-3.6c-0.4-0.3-0.7-0.6-0.9-0.9L9.1,12z"/>
		<path d="M23,11.9l-3.7-1.5c-0.3,0.4-0.6,0.7-0.9,1l1.6,3.6C21.2,14.2,22.3,13.2,23,11.9z"/>
		<path d="M16,3.9c0.5,0,1,0.1,1.4,0.3L19,0.6C18.1,0.2,17.1,0,16,0c-1.1,0-2.1,0.2-3.1,0.6l1.5,3.6C14.9,4,15.5,3.9,16,3.9z"/>
		<path d="M19,15.4l-1.5-3.6c-0.5,0.2-1,0.3-1.5,0.3c-0.5,0-1-0.1-1.5-0.3L13,15.4c0.9,0.4,1.9,0.6,3,0.6C17.1,16,18.1,15.8,19,15.4
			z"/>
		<path d="M13.6,4.7L12,1.1c-1.3,0.7-2.3,1.8-3,3.1l3.7,1.5C12.9,5.3,13.2,5,13.6,4.7z"/>
		<path d="M9.6,14.5c0,0.3-0.2,0.5-0.5,0.5c-0.3,0-0.5-0.2-0.5-0.5c0-0.6-0.5-1.1-1.1-1.1c-0.6,0-1.1,0.5-1.1,1.1
			c0,0.6,0.5,1.1,1.1,1.1c1.2,0,2.1,1,2.1,2.1c0,1-0.7,1.8-1.6,2.1v0.6C8,20.8,7.8,21,7.5,21C7.2,21,7,20.8,7,20.5v-0.6
			c-0.9-0.2-1.6-1.1-1.6-2.1c0-0.3,0.2-0.5,0.5-0.5c0.3,0,0.5,0.2,0.5,0.5c0,0.6,0.5,1.1,1.1,1.1c0.6,0,1.1-0.5,1.1-1.1
			c0-0.6-0.5-1.1-1.1-1.1c-1.2,0-2.1-1-2.1-2.1c0-1,0.7-1.8,1.6-2.1v-0.6c0-0.3,0.2-0.5,0.5-0.5c0.1,0,0.1,0,0.2,0
			C7.3,10.6,7.1,9.7,7,8.9c-3.9,0.3-7,3.6-7,7.6C0,20.6,3.4,24,7.6,24c4,0,7.3-3.1,7.6-7c-2.2-0.2-4.1-1.2-5.5-2.6
			C9.6,14.4,9.6,14.5,9.6,14.5z"/>
		<path d="M2.6,7.4L2.6,7.4L2.6,7.4C2.6,7.4,2.6,7.4,2.6,7.4c0.2,0.2,0.5,0.2,0.7,0l2-2c0.2-0.2,0.2-0.5,0-0.7
			c-0.2-0.2-0.5-0.2-0.7,0L3.5,5.8C3.6,3.4,5.6,1.5,8,1.5c0.3,0,0.5-0.2,0.5-0.5c0-0.3-0.2-0.5-0.5-0.5c0,0,0,0,0,0
			c-1.5,0-2.8,0.6-3.9,1.6c-1,1-1.5,2.3-1.6,3.7L1.3,4.7c-0.2-0.2-0.5-0.2-0.7,0c-0.2,0.2-0.2,0.5,0,0.7L2.6,7.4z"/>
		<path d="M21.4,16.6L21.4,16.6L21.4,16.6C21.4,16.6,21.4,16.6,21.4,16.6c-0.2-0.2-0.5-0.2-0.7,0l-2,2c-0.2,0.2-0.2,0.5,0,0.7
			c0.1,0.1,0.2,0.1,0.4,0.1s0.3,0,0.4-0.1l1.1-1.1c-0.1,2.4-2.1,4.3-4.5,4.3c-0.3,0-0.5,0.2-0.5,0.5c0,0.3,0.2,0.5,0.5,0.5
			c0,0,0,0,0,0c3,0,5.4-2.4,5.5-5.3l1.2,1.2c0.2,0.2,0.5,0.2,0.7,0c0.2-0.2,0.2-0.5,0-0.7L21.4,16.6z"/>
	</g>
</g>
<g id="Outline_Icons">
	<g>
		<g>
			<circle class="st2" cx="16" cy="8" r="7.5"/>
			<circle class="st2" cx="16" cy="8" r="3.6"/>
			<line class="st2" x1="19.2" y1="1.3" x2="17.7" y2="4.8"/>
			<line class="st2" x1="12.7" y1="1.3" x2="14.2" y2="4.9"/>
			<line class="st2" x1="22.7" y1="11.2" x2="19.1" y2="9.7"/>
			<line class="st2" x1="22.7" y1="4.7" x2="19.1" y2="6.2"/>
			<line class="st2" x1="12.7" y1="14.7" x2="14.3" y2="11.1"/>
			<line class="st2" x1="19.3" y1="14.7" x2="17.8" y2="11.1"/>
			<line class="st2" x1="9.2" y1="4.8" x2="12.9" y2="6.3"/>
			<line class="st2" x1="9.2" y1="11.3" x2="12.9" y2="9.8"/>
		</g>
		<line class="st3" x1="7.6" y1="19.7" x2="7.6" y2="20.8"/>
		<line class="st3" x1="7.6" y1="12.1" x2="7.6" y2="13.2"/>
		<path class="st3" d="M6,18c0,0.9,0.7,1.6,1.6,1.6c0.9,0,1.6-0.7,1.6-1.6c0-0.9-0.7-1.6-1.6-1.6c-0.9,0-1.6-0.7-1.6-1.6
			c0-0.9,0.7-1.6,1.6-1.6c0.9,0,1.6,0.7,1.6,1.6"/>
		<path class="st3" d="M8.1,9.4c-0.2,0-0.3,0-0.5,0c-3.9,0-7.1,3.2-7.1,7.1c0,3.9,3.2,7.1,7.1,7.1c3.9,0,7.1-3.2,7.1-7.1
			c0-0.2,0-0.3,0-0.5"/>
		<polyline class="st3" points="1,5 3,7 5,5 		"/>
		<path class="st3" d="M8,1C5.2,1,3,3.3,3,6l0,1"/>
		<polyline class="st3" points="23,19 21,17 19,19 		"/>
		<path class="st3" d="M16,23c2.8,0,5-2.3,5-5l0-1"/>
	</g>
</g>
</svg>
