<?xml version="1.0" encoding="utf-8"?>
<!-- Generator: Adobe Illustrator 19.2.0, SVG Export Plug-In . SVG Version: 6.00 Build 0)  -->
<svg version="1.1" id="Layer_1" xmlns="http://www.w3.org/2000/svg" xmlns:xlink="http://www.w3.org/1999/xlink" x="0px" y="0px"
	 viewBox="0 0 24 24" style="enable-background:new 0 0 24 24;" xml:space="preserve">
<style type="text/css">
	.st0{display:none;}
	.st1{display:inline;}
	.st2{fill:none;stroke:#000000;stroke-linecap:round;stroke-linejoin:round;stroke-miterlimit:10;}
</style>
<g id="Filled_Icons" class="st0">
	<path class="st1" d="M21.5,5h-19C1.1,5,0,6.1,0,7.5v8C0,16.9,1.1,18,2.5,18h19c1.4,0,2.5-1.1,2.5-2.5v-8C24,6.1,22.9,5,21.5,5z
		 M8,11c0.3,0,0.5,0.2,0.5,0.5C8.5,11.8,8.3,12,8,12H6v1h2c0.3,0,0.5,0.2,0.5,0.5C8.5,13.8,8.3,14,8,14H5.5C5.2,14,5,13.8,5,13.5v-4
		C5,9.2,5.2,9,5.5,9H8c0.3,0,0.5,0.2,0.5,0.5C8.5,9.8,8.3,10,8,10H6v1H8z M12.9,13.2c0.2,0.2,0.1,0.5-0.1,0.7
		C12.7,14,12.6,14,12.5,14c-0.2,0-0.3-0.1-0.4-0.2L11,12.3l-1.1,1.5C9.8,13.9,9.7,14,9.5,14c-0.1,0-0.2,0-0.3-0.1
		C9,13.7,9,13.4,9.1,13.2l1.3-1.7L9.1,9.8C9,9.6,9,9.3,9.2,9.1C9.5,8.9,9.8,9,9.9,9.2l1.1,1.5l1.1-1.5c0.2-0.2,0.5-0.3,0.7-0.1
		c0.2,0.2,0.3,0.5,0.1,0.7l-1.3,1.7L12.9,13.2z M15,13.5c0,0.3-0.2,0.5-0.5,0.5c-0.3,0-0.5-0.2-0.5-0.5v-4C14,9.2,14.2,9,14.5,9
		C14.8,9,15,9.2,15,9.5V13.5z M18.5,10H18v3.5c0,0.3-0.2,0.5-0.5,0.5c-0.3,0-0.5-0.2-0.5-0.5V10h-0.5C16.2,10,16,9.8,16,9.5
		C16,9.2,16.2,9,16.5,9h2C18.8,9,19,9.2,19,9.5C19,9.8,18.8,10,18.5,10z"/>
</g>
<g id="Outline_Icons">
	<g>
		<path class="st2" d="M23.5,15.5c0,1.1-0.9,2-2,2h-19c-1.1,0-2-0.9-2-2v-8c0-1.1,0.9-2,2-2h19c1.1,0,2,0.9,2,2V15.5z"/>
		<polyline class="st2" points="8,9.5 5.5,9.5 5.5,13.5 8,13.5 		"/>
		<line class="st2" x1="8" y1="11.5" x2="5.5" y2="11.5"/>
		<line class="st2" x1="9.5" y1="9.5" x2="12.5" y2="13.5"/>
		<line class="st2" x1="12.5" y1="9.5" x2="9.5" y2="13.5"/>
		<line class="st2" x1="14.5" y1="9.5" x2="14.5" y2="13.5"/>
		<line class="st2" x1="17.5" y1="9.5" x2="17.5" y2="13.5"/>
		<line class="st2" x1="18.5" y1="9.5" x2="16.5" y2="9.5"/>
	</g>
</g>
</svg>
