<?xml version="1.0" encoding="utf-8"?>
<!-- Generator: Adobe Illustrator 19.2.0, SVG Export Plug-In . SVG Version: 6.00 Build 0)  -->
<svg version="1.1" id="Layer_1" xmlns="http://www.w3.org/2000/svg" xmlns:xlink="http://www.w3.org/1999/xlink" x="0px" y="0px"
	 viewBox="0 0 24 24" style="enable-background:new 0 0 24 24;" xml:space="preserve">
<style type="text/css">
	.st0{display:none;}
	.st1{display:inline;}
	.st2{fill:none;stroke:#000000;stroke-linecap:round;stroke-linejoin:round;stroke-miterlimit:10;}
</style>
<g id="Filled_Icons" class="st0">
	<g class="st1">
		<path d="M13.3,7.7C13.5,7.9,13.7,8,14,8c0.3,0,0.5-0.1,0.7-0.3c0.4-0.4,0.4-1,0-1.4l-3-3c-0.4-0.4-1.1-0.4-1.4,0l-3,3
			c-0.4,0.4-0.4,1,0,1.4c0.4,0.4,1,0.4,1.4,0L10,6.4v11.2l-1.3-1.3c-0.4-0.4-1-0.4-1.4,0c-0.4,0.4-0.4,1,0,1.4l3,3
			c0.4,0.4,1,0.4,1.4,0l3-3c0.4-0.4,0.4-1,0-1.4c-0.4-0.4-1-0.4-1.4,0L12,17.6V6.4L13.3,7.7z"/>
		<path d="M18,22H5c-0.6,0-1,0.4-1,1c0,0.6,0.4,1,1,1h13c0.6,0,1-0.4,1-1C19,22.4,18.6,22,18,22z"/>
		<path d="M5,2h13c0.6,0,1-0.4,1-1c0-0.6-0.4-1-1-1H5C4.4,0,4,0.4,4,1C4,1.6,4.4,2,5,2z"/>
	</g>
</g>
<g id="Outline_Icons">
	<g>
		<polyline class="st2" points="14.5,6.5 11.5,3.5 8.5,6.5 		"/>
		<line class="st2" x1="11.5" y1="20.5" x2="11.5" y2="3.5"/>
		<polyline class="st2" points="14.5,17.5 11.5,20.5 8.5,17.5 		"/>
		<line class="st2" x1="5.5" y1="23.5" x2="18.5" y2="23.5"/>
		<line class="st2" x1="5.5" y1="0.5" x2="18.5" y2="0.5"/>
	</g>
</g>
</svg>
