<?xml version="1.0" encoding="utf-8"?>
<!-- Generator: Adobe Illustrator 19.2.0, SVG Export Plug-In . SVG Version: 6.00 Build 0)  -->
<svg version="1.1" id="Layer_1" xmlns="http://www.w3.org/2000/svg" xmlns:xlink="http://www.w3.org/1999/xlink" x="0px" y="0px"
	 viewBox="0 0 24 24" style="enable-background:new 0 0 24 24;" xml:space="preserve">
<style type="text/css">
	.st0{display:none;}
	.st1{display:inline;}
	.st2{fill:none;stroke:#000000;stroke-linecap:round;stroke-linejoin:round;stroke-miterlimit:10;}
</style>
<g id="Filled_Icon" class="st0">
	<g class="st1">
		<path d="M23.5,22c-0.3,0-0.5,0.2-0.5,0.5V23h-0.5c-0.3,0-0.5,0.2-0.5,0.5c0,0.3,0.2,0.5,0.5,0.5h1c0.3,0,0.5-0.2,0.5-0.5v-1
			C24,22.2,23.8,22,23.5,22z"/>
		<path d="M11.5,23h-1c-0.3,0-0.5,0.2-0.5,0.5c0,0.3,0.2,0.5,0.5,0.5h1c0.3,0,0.5-0.2,0.5-0.5C12,23.2,11.8,23,11.5,23z"/>
		<path d="M8.5,23h-1C7.2,23,7,23.2,7,23.5C7,23.8,7.2,24,7.5,24h1C8.8,24,9,23.8,9,23.5C9,23.2,8.8,23,8.5,23z"/>
		<path d="M14.5,23h-1c-0.3,0-0.5,0.2-0.5,0.5c0,0.3,0.2,0.5,0.5,0.5h1c0.3,0,0.5-0.2,0.5-0.5C15,23.2,14.8,23,14.5,23z"/>
		<path d="M17.5,23h-1c-0.3,0-0.5,0.2-0.5,0.5c0,0.3,0.2,0.5,0.5,0.5h1c0.3,0,0.5-0.2,0.5-0.5C18,23.2,17.8,23,17.5,23z"/>
		<path d="M20.5,23h-1c-0.3,0-0.5,0.2-0.5,0.5c0,0.3,0.2,0.5,0.5,0.5h1c0.3,0,0.5-0.2,0.5-0.5C21,23.2,20.8,23,20.5,23z"/>
		<path d="M23.5,16c-0.3,0-0.5,0.2-0.5,0.5v1c0,0.3,0.2,0.5,0.5,0.5c0.3,0,0.5-0.2,0.5-0.5v-1C24,16.2,23.8,16,23.5,16z"/>
		<path d="M23.5,13c-0.3,0-0.5,0.2-0.5,0.5v1c0,0.3,0.2,0.5,0.5,0.5c0.3,0,0.5-0.2,0.5-0.5v-1C24,13.2,23.8,13,23.5,13z"/>
		<path d="M23.5,10c-0.3,0-0.5,0.2-0.5,0.5v1c0,0.3,0.2,0.5,0.5,0.5c0.3,0,0.5-0.2,0.5-0.5v-1C24,10.2,23.8,10,23.5,10z"/>
		<path d="M23.5,7C23.2,7,23,7.2,23,7.5v1C23,8.8,23.2,9,23.5,9C23.8,9,24,8.8,24,8.5v-1C24,7.2,23.8,7,23.5,7z"/>
		<path d="M23.5,19c-0.3,0-0.5,0.2-0.5,0.5v1c0,0.3,0.2,0.5,0.5,0.5c0.3,0,0.5-0.2,0.5-0.5v-1C24,19.2,23.8,19,23.5,19z"/>
		<path d="M23.7,6.2c0.5-0.4,0.5-1.1,0-1.5c0,0,0,0,0,0l-5-4c-0.4-0.3-1.1-0.3-1.4,0.2c-0.3,0.4-0.3,1.1,0.2,1.4l2.8,2.2H5.5
			c-0.6,0-1,0.4-1,1v14.7l-2.2-2.8c-0.3-0.4-1-0.5-1.4-0.2c-0.4,0.3-0.5,1-0.2,1.4l4,5c0,0,0,0,0,0c0.4,0.5,1.1,0.5,1.5,0
			c0,0,0,0,0,0l4-5c0.3-0.4,0.3-1.1-0.2-1.4c-0.4-0.3-1.1-0.3-1.4,0.2l-2.2,2.8V6.5h13.6l-2.8,2.2c-0.4,0.3-0.5,1-0.2,1.4
			c0.2,0.2,0.5,0.4,0.8,0.4c0.2,0,0.4-0.1,0.6-0.2L23.7,6.2C23.6,6.3,23.6,6.3,23.7,6.2z"/>
	</g>
</g>
<g id="Outline_Icons">
	<g>
		<polyline class="st2" points="21.5,22.5 22.5,22.5 22.5,21.5 		"/>
		<line class="st2" x1="10.5" y1="22.5" x2="9.5" y2="22.5"/>
		<line class="st2" x1="7.5" y1="22.5" x2="6.5" y2="22.5"/>
		<line class="st2" x1="13.5" y1="22.5" x2="12.5" y2="22.5"/>
		<line class="st2" x1="16.5" y1="22.5" x2="15.5" y2="22.5"/>
		<line class="st2" x1="19.5" y1="22.5" x2="18.5" y2="22.5"/>
		<line class="st2" x1="22.5" y1="15.5" x2="22.5" y2="16.5"/>
		<line class="st2" x1="22.5" y1="12.5" x2="22.5" y2="13.5"/>
		<line class="st2" x1="22.5" y1="9.5" x2="22.5" y2="10.5"/>
		<line class="st2" x1="22.5" y1="6.5" x2="22.5" y2="7.5"/>
		<line class="st2" x1="22.5" y1="18.5" x2="22.5" y2="19.5"/>
		<g>
			<polyline class="st2" points="4.5,22.5 4.5,4.5 22.5,4.5 			"/>
			<polyline class="st2" points="17.5,0.5 22.5,4.5 17.5,8.5 			"/>
			<polyline class="st2" points="0.5,17.5 4.5,22.5 8.5,17.5 			"/>
		</g>
	</g>
</g>
</svg>
