<?xml version="1.0" encoding="utf-8"?>
<!-- Generator: Adobe Illustrator 19.2.0, SVG Export Plug-In . SVG Version: 6.00 Build 0)  -->
<svg version="1.1" id="Layer_1" xmlns="http://www.w3.org/2000/svg" xmlns:xlink="http://www.w3.org/1999/xlink" x="0px" y="0px"
	 viewBox="0 0 24 24" style="enable-background:new 0 0 24 24;" xml:space="preserve">
<style type="text/css">
	.st0{display:none;}
	.st1{display:inline;}
	.st2{fill:none;stroke:#000000;stroke-linecap:round;stroke-linejoin:round;stroke-miterlimit:10;}
</style>
<g id="Filled_Icons" class="st0">
	<g class="st1">
		<path d="M20.7,11.8C20.7,11.8,20.7,11.8,20.7,11.8L20.7,11.8L20.7,11.8l-3-3c-0.4-0.4-1-0.4-1.4,0c-0.4,0.4-0.4,1,0,1.4l1.3,1.3
			l-11.2,0l1.3-1.3c0.4-0.4,0.4-1,0-1.4c-0.4-0.4-1-0.4-1.4,0l-3,3C3.1,12,3,12.2,3,12.5l0,0l0,0c0,0.3,0.2,0.6,0.4,0.8l2.9,2.9
			c0.2,0.2,0.5,0.3,0.7,0.3c0.3,0,0.5-0.1,0.7-0.3c0.4-0.4,0.4-1,0-1.4l-1.3-1.3l11.1,0l-1.3,1.3c-0.4,0.4-0.4,1,0,1.4
			c0.2,0.2,0.5,0.3,0.7,0.3c0.3,0,0.5-0.1,0.7-0.3l3-3v0C21.1,12.9,21.1,12.2,20.7,11.8z"/>
		<path d="M1,5C1,5,1,5,1,5C0.5,5,0,5.4,0,6l0,13c0,0.6,0.4,1,1,1h0c0.6,0,1-0.4,1-1L2,6C2,5.4,1.6,5,1,5z"/>
		<path d="M23,5c-0.6,0-1,0.4-1,1v13c0,0.6,0.4,1,1,1c0.6,0,1-0.4,1-1V6C24,5.5,23.6,5,23,5z"/>
	</g>
</g>
<g id="Outline_Icons">
	<g>
		<polyline class="st2" points="17.5,15.5 20.5,12.5 17.5,9.5 		"/>
		<line class="st2" x1="3.5" y1="12.5" x2="20.5" y2="12.5"/>
		<polyline class="st2" points="6.5,15.5 3.5,12.5 6.5,9.5 		"/>
		<line class="st2" x1="0.5" y1="6" x2="0.5" y2="19"/>
		<line class="st2" x1="23.5" y1="6" x2="23.5" y2="19"/>
	</g>
</g>
</svg>
