<?xml version="1.0" encoding="utf-8"?>
<!-- Generator: Adobe Illustrator 19.2.0, SVG Export Plug-In . SVG Version: 6.00 Build 0)  -->
<svg version="1.1" id="Layer_1" xmlns="http://www.w3.org/2000/svg" xmlns:xlink="http://www.w3.org/1999/xlink" x="0px" y="0px"
	 viewBox="0 0 24 24" style="enable-background:new 0 0 24 24;" xml:space="preserve">
<style type="text/css">
	.st0{display:none;}
	.st1{display:inline;}
	.st2{fill:none;stroke:#000000;stroke-linecap:round;stroke-linejoin:round;stroke-miterlimit:10;}
</style>
<g id="Filled_Icons" class="st0">
	<g class="st1">
		<path d="M17.5,16.5v-9c0-0.6-0.4-1-1-1h-9c-0.6,0-1,0.4-1,1v9c0,0.6,0.4,1,1,1h9C17.1,17.5,17.5,17.1,17.5,16.5z M15.5,15.5h-7v-7
			h7V15.5z"/>
		<path d="M23.9,0.6c-0.1-0.2-0.3-0.4-0.5-0.5C23.3,0,23.1,0,23,0h-5c-0.6,0-1,0.4-1,1c0,0.6,0.4,1,1,1h2.6l-2.3,2.3
			c-0.4,0.4-0.4,1,0,1.4C18.5,5.9,18.7,6,19,6c0.3,0,0.5-0.1,0.7-0.3L22,3.4V6c0,0.6,0.4,1,1,1c0.6,0,1-0.4,1-1V1
			C24,0.9,24,0.7,23.9,0.6z"/>
		<path d="M6,22H3.4l2.3-2.3c0.4-0.4,0.4-1,0-1.4c-0.4-0.4-1-0.4-1.4,0L2,20.6V18c0-0.6-0.4-1-1-1c-0.6,0-1,0.4-1,1v5
			c0,0.1,0,0.3,0.1,0.4c0.1,0.2,0.3,0.4,0.5,0.5C0.7,24,0.9,24,1,24h5c0.6,0,1-0.4,1-1C7,22.4,6.6,22,6,22z"/>
		<path d="M1,7c0.6,0,1-0.4,1-1V3.4l2.3,2.3C4.5,5.9,4.7,6,5,6c0.3,0,0.5-0.1,0.7-0.3c0.4-0.4,0.4-1,0-1.4L3.4,2H6c0.6,0,1-0.4,1-1
			c0-0.6-0.4-1-1-1H1C0.9,0,0.7,0,0.6,0.1C0.4,0.2,0.2,0.4,0.1,0.6C0,0.7,0,0.9,0,1v5C0,6.6,0.4,7,1,7z"/>
		<path d="M23,17c-0.6,0-1,0.4-1,1v2.6l-2.3-2.3c-0.4-0.4-1-0.4-1.4,0c-0.4,0.4-0.4,1,0,1.4l2.3,2.3H18c-0.6,0-1,0.4-1,1
			c0,0.6,0.4,1,1,1h5c0.1,0,0.3,0,0.4-0.1c0.2-0.1,0.4-0.3,0.5-0.5C24,23.3,24,23.1,24,23v-5C24,17.4,23.6,17,23,17z"/>
	</g>
</g>
<g id="Outline_Icons">
	<g>
		<rect x="6.5" y="6.5" class="st2" width="11" height="11"/>
		<line class="st2" x1="19.5" y1="4.5" x2="23.5" y2="0.5"/>
		<line class="st2" x1="0.5" y1="23.5" x2="4.5" y2="19.5"/>
		<polyline class="st2" points="5.5,23.5 0.5,23.5 0.5,18.5 		"/>
		<polyline class="st2" points="23.5,5.5 23.5,0.5 18.5,0.5 		"/>
		<line class="st2" x1="19.5" y1="19.5" x2="23.5" y2="23.5"/>
		<line class="st2" x1="0.5" y1="0.5" x2="4.5" y2="4.5"/>
		<polyline class="st2" points="0.5,5.5 0.5,0.5 5.5,0.5 		"/>
		<polyline class="st2" points="18.5,23.5 23.5,23.5 23.5,18.5 		"/>
	</g>
</g>
</svg>
