<?xml version="1.0" encoding="utf-8"?>
<!-- Generator: Adobe Illustrator 19.2.0, SVG Export Plug-In . SVG Version: 6.00 Build 0)  -->
<svg version="1.1" id="Layer_1" xmlns="http://www.w3.org/2000/svg" xmlns:xlink="http://www.w3.org/1999/xlink" x="0px" y="0px"
	 viewBox="0 0 24 24" style="enable-background:new 0 0 24 24;" xml:space="preserve">
<style type="text/css">
	.st0{display:none;}
	.st1{display:inline;}
	.st2{fill:none;stroke:#000000;stroke-linecap:round;stroke-linejoin:round;stroke-miterlimit:10;}
</style>
<g id="Filled_Icons" class="st0">
	<path class="st1" d="M23.6,11.2l-2.8-2.9c-0.4-0.4-1-0.4-1.4,0c-0.4,0.4-0.4,1,0,1.4l1.3,1.3H13V1c0-0.6-0.4-1-1-1s-1,0.4-1,1v10
		H3.5l1.3-1.3c0.4-0.4,0.4-1,0-1.4c-0.4-0.4-1-0.4-1.4,0l-3.1,3C0.1,11.5,0,11.7,0,12c0,0.3,0.1,0.5,0.3,0.7l3.1,3
		C3.6,15.9,3.8,16,4.1,16c0.3,0,0.5-0.1,0.7-0.3c0.4-0.4,0.4-1,0-1.4L3.5,13H11v10c0,0.6,0.4,1,1,1s1-0.4,1-1V13h7.6l-1.3,1.3
		c-0.4,0.4-0.4,1,0,1.4c0.2,0.2,0.4,0.3,0.7,0.3c0.3,0,0.5-0.1,0.7-0.3l2.8-2.9c0.2-0.2,0.4-0.5,0.4-0.8
		C24,11.7,23.9,11.4,23.6,11.2z"/>
</g>
<g id="Outline_Icons">
	<g>
		<line class="st2" x1="11.5" y1="0.5" x2="11.5" y2="22.5"/>
		<line class="st2" x1="22.5" y1="11.5" x2="0.5" y2="11.5"/>
		<polyline class="st2" points="3.5,8.5 0.5,11.5 3.5,14.5 		"/>
		<polyline class="st2" points="19.5,14.5 22.5,11.5 19.5,8.5 		"/>
	</g>
</g>
</svg>
