<?xml version="1.0" encoding="utf-8"?>
<!-- Generator: Adobe Illustrator 19.2.0, SVG Export Plug-In . SVG Version: 6.00 Build 0)  -->
<svg version="1.1" id="Layer_1" xmlns="http://www.w3.org/2000/svg" xmlns:xlink="http://www.w3.org/1999/xlink" x="0px" y="0px"
	 viewBox="0 0 24 24" style="enable-background:new 0 0 24 24;" xml:space="preserve">
<style type="text/css">
	.st0{display:none;}
	.st1{display:inline;}
	.st2{fill:none;stroke:#000000;stroke-linecap:round;stroke-linejoin:round;stroke-miterlimit:10;}
</style>
<g id="Filled_Icons" class="st0">
	<path class="st1" d="M20.2,3.8c-0.2-0.2-0.5-0.3-0.7-0.3c0,0,0,0,0,0l-4,0h0c-0.6,0-1,0.4-1,1c0,0.6,0.4,1,1,1l1.6,0L4.5,18.1
		l0-1.6c0-0.6-0.4-1-1-1h0c-0.6,0-1,0.4-1,1l0,4l0,0c0,0.6,0.5,1,1,1l4,0c0,0,0,0,0,0c0.6,0,1-0.4,1-1c0-0.6-0.4-1-1-1l-1.6,0
		L18.5,6.9l0,1.6c0,0.6,0.4,1,1,1c0,0,0,0,0,0c0.6,0,1-0.4,1-1l0-3.9C20.5,4.3,20.5,4,20.2,3.8z"/>
</g>
<g id="Outline_Icons">
	<g>
		<polyline class="st2" points="19.5,8.5 19.5,4.5 15.5,4.5 		"/>
		<line class="st2" x1="3.5" y1="20.5" x2="19.5" y2="4.5"/>
		<polyline class="st2" points="7.5,20.5 3.5,20.5 3.5,16.5 		"/>
	</g>
</g>
</svg>
