<?xml version="1.0" encoding="utf-8"?>
<!-- Generator: Adobe Illustrator 19.2.0, SVG Export Plug-In . SVG Version: 6.00 Build 0)  -->
<svg version="1.1" id="Layer_1" xmlns="http://www.w3.org/2000/svg" xmlns:xlink="http://www.w3.org/1999/xlink" x="0px" y="0px"
	 viewBox="0 0 24 24" style="enable-background:new 0 0 24 24;" xml:space="preserve">
<style type="text/css">
	.st0{display:none;}
	.st1{display:inline;}
	.st2{fill:none;stroke:#000000;stroke-linecap:round;stroke-linejoin:round;stroke-miterlimit:10;}
</style>
<g id="Filled_Icons" class="st0">
	<g class="st1">
		<path d="M15.7,7.8c-0.4-0.4-1-0.4-1.4,0l-6.5,6.5c-0.4,0.4-0.4,1,0,1.4C8,15.9,8.2,16,8.5,16c0.3,0,0.5-0.1,0.7-0.3l6.5-6.5
			C16.1,8.8,16.1,8.2,15.7,7.8z"/>
		<path d="M23,18c-0.6,0-1,0.4-1,1v1.6l-6.3-6.3c-0.4-0.4-1-0.4-1.4,0c-0.4,0.4-0.4,1,0,1.4l6.3,6.3H19c-0.6,0-1,0.4-1,1
			c0,0.6,0.4,1,1,1h4c0.5,0,1-0.4,1-1v-4C24,18.4,23.6,18,23,18z"/>
		<path d="M8.5,9.5c0.3,0,0.5-0.1,0.7-0.3c0.4-0.4,0.4-1,0-1.4L3.4,2H5c0.6,0,1-0.4,1-1c0-0.6-0.4-1-1-1H1c0,0,0,0,0,0
			C0.4,0,0,0.5,0,1v4c0,0.6,0.4,1,1,1c0.6,0,1-0.4,1-1V3.4l5.8,5.8C8,9.4,8.2,9.5,8.5,9.5z"/>
	</g>
</g>
<g id="Outline_Icons">
	<g>
		<line class="st2" x1="8.5" y1="15" x2="15" y2="8.5"/>
		<line class="st2" x1="23.5" y1="23.5" x2="15" y2="15"/>
		<polyline class="st2" points="23.5,19.5 23.5,23.5 19.5,23.5 		"/>
		<line class="st2" x1="0.5" y1="0.5" x2="8.5" y2="8.5"/>
		<polyline class="st2" points="4.5,0.5 0.5,0.5 0.5,4.5 		"/>
	</g>
</g>
</svg>
