<?xml version="1.0" encoding="utf-8"?>
<!-- Generator: Adobe Illustrator 19.2.0, SVG Export Plug-In . SVG Version: 6.00 Build 0)  -->
<svg version="1.1" id="Layer_1" xmlns="http://www.w3.org/2000/svg" xmlns:xlink="http://www.w3.org/1999/xlink" x="0px" y="0px"
	 viewBox="0 0 24 24" style="enable-background:new 0 0 24 24;" xml:space="preserve">
<style type="text/css">
	.st0{display:none;}
	.st1{display:inline;}
	.st2{fill:none;stroke:#000000;stroke-linecap:round;stroke-linejoin:round;stroke-miterlimit:10;}
</style>
<g id="Filled_Icons" class="st0">
	<path class="st1" d="M23.2,11.8C23.2,11.8,23.2,11.8,23.2,11.8L23.2,11.8C23.2,11.8,23.2,11.8,23.2,11.8l-5-5c-0.4-0.4-1-0.4-1.4,0
		c-0.4,0.4-0.4,1,0,1.4l3.3,3.3l-16.2,0l3.3-3.3c0.4-0.4,0.4-1,0-1.4c-0.4-0.4-1-0.4-1.4,0l-5,5c-0.2,0.2-0.3,0.4-0.3,0.7
		c0,0,0,0,0,0v0c0,0.3,0.2,0.6,0.4,0.8l4.9,4.9c0.2,0.2,0.5,0.3,0.7,0.3c0.3,0,0.5-0.1,0.7-0.3c0.4-0.4,0.4-1,0-1.4l-3.3-3.3l16.2,0
		l-3.3,3.3c-0.4,0.4-0.4,1,0,1.4c0.2,0.2,0.5,0.3,0.7,0.3c0.3,0,0.5-0.1,0.7-0.3l5-5h0C23.6,12.8,23.6,12.2,23.2,11.8z"/>
</g>
<g id="Outline_Icons">
	<g>
		<line class="st2" x1="0.5" y1="12.5" x2="23.5" y2="12.5"/>
		<polyline class="st2" points="5.5,17.5 0.5,12.5 5.5,7.5 		"/>
		<polyline class="st2" points="18.5,17.5 23.5,12.5 18.5,7.5 		"/>
	</g>
</g>
</svg>
