<?xml version="1.0" encoding="utf-8"?>
<!-- Generator: Adobe Illustrator 19.2.0, SVG Export Plug-In . SVG Version: 6.00 Build 0)  -->
<svg version="1.1" id="Layer_1" xmlns="http://www.w3.org/2000/svg" xmlns:xlink="http://www.w3.org/1999/xlink" x="0px" y="0px"
	 viewBox="0 0 24 24" style="enable-background:new 0 0 24 24;" xml:space="preserve">
<style type="text/css">
	.st0{display:none;}
	.st1{display:inline;}
	.st2{fill:none;stroke:#000000;stroke-linecap:round;stroke-linejoin:round;stroke-miterlimit:10;}
</style>
<g id="Filled_Icons" class="st0">
	<path class="st1" d="M23,7c0.6,0,1-0.4,1-1V1c0-0.5-0.4-1-1-1c0,0,0,0,0,0l-5,0l0,0c-0.6,0-1,0.4-1,1c0,0.6,0.4,1,1,1l2.6,0
		L12,10.6L3.4,2L6,2h0c0.6,0,1-0.4,1-1c0-0.6-0.4-1-1-1L1,0h0C0.5,0,0,0.4,0,1c0,0,0,0,0,0l0,5c0,0.6,0.4,1,1,1h0c0.6,0,1-0.4,1-1
		l0-2.6l8.6,8.6L2,20.6V18c0-0.6-0.4-1-1-1c-0.6,0-1,0.4-1,1v5c0,0.6,0.5,1,1,1h4.5c0.6,0,1-0.4,1-1s-0.4-1-1-1H3.4l8.6-8.6l8.6,8.6
		H18c-0.6,0-1,0.4-1,1s0.4,1,1,1h5h0c0,0,0,0,0,0c0.3,0,0.5-0.1,0.7-0.3c0.2-0.2,0.3-0.5,0.3-0.8v-5c0-0.6-0.4-1-1-1s-1,0.4-1,1v2.6
		L13.4,12L22,3.4V6C22,6.6,22.5,7,23,7z"/>
</g>
<g id="Outline_Icons">
	<g>
		<line class="st2" x1="0.5" y1="23.5" x2="23.5" y2="0.5"/>
		<polyline class="st2" points="5.5,23.5 0.5,23.5 0.5,18.5 		"/>
		<polyline class="st2" points="23.5,5.5 23.5,0.5 18.5,0.5 		"/>
		<line class="st2" x1="0.5" y1="0.5" x2="23.5" y2="23.5"/>
		<polyline class="st2" points="0.5,5.5 0.5,0.5 5.5,0.5 		"/>
		<polyline class="st2" points="18.5,23.5 23.5,23.5 23.5,18.5 		"/>
	</g>
</g>
</svg>
