<?xml version="1.0" encoding="utf-8"?>
<!-- Generator: Adobe Illustrator 19.2.0, SVG Export Plug-In . SVG Version: 6.00 Build 0)  -->
<svg version="1.1" id="Layer_1" xmlns="http://www.w3.org/2000/svg" xmlns:xlink="http://www.w3.org/1999/xlink" x="0px" y="0px"
	 viewBox="0 0 24 24" style="enable-background:new 0 0 24 24;" xml:space="preserve">
<style type="text/css">
	.st0{display:none;}
	.st1{display:inline;}
	.st2{fill:none;stroke:#000000;stroke-linecap:round;stroke-linejoin:round;stroke-miterlimit:10;}
</style>
<g id="Filled_Icons" class="st0">
	<g class="st1">
		<path d="M9.8,12.8L2,20.6v-4.1c0-0.6-0.4-1-1-1c-0.6,0-1,0.4-1,1V23v0c0,0.6,0.5,1,1,1h6.5c0.6,0,1-0.4,1-1c0-0.6-0.4-1-1-1H3.4
			l7.8-7.8c0.4-0.4,0.4-1,0-1.4C10.8,12.4,10.2,12.4,9.8,12.8z"/>
		<path d="M24,1c0-0.6-0.5-1-1-1h0h-6.5c-0.6,0-1,0.4-1,1c0,0.6,0.4,1,1,1h4.1l-7.8,7.8c-0.4,0.4-0.4,1,0,1.4
			c0.2,0.2,0.5,0.3,0.7,0.3c0.3,0,0.5-0.1,0.7-0.3L22,3.4v4.1c0,0.6,0.4,1,1,1c0.6,0,1-0.4,1-1L24,1L24,1L24,1C24,1,24,1,24,1z"/>
	</g>
</g>
<g id="Outline_Icons">
	<g>
		<line class="st2" x1="23.5" y1="0.5" x2="14" y2="10"/>
		<line class="st2" x1="10" y1="14" x2="0.5" y2="23.5"/>
		<polyline class="st2" points="17,0.5 23.5,0.5 23.5,7 		"/>
		<polyline class="st2" points="0.5,17 0.5,23.5 7,23.5 		"/>
	</g>
</g>
</svg>
