<?xml version="1.0" encoding="utf-8"?>
<!-- Generator: Adobe Illustrator 19.2.0, SVG Export Plug-In . SVG Version: 6.00 Build 0)  -->
<svg version="1.1" id="Layer_1" xmlns="http://www.w3.org/2000/svg" xmlns:xlink="http://www.w3.org/1999/xlink" x="0px" y="0px"
	 viewBox="0 0 24 24" style="enable-background:new 0 0 24 24;" xml:space="preserve">
<style type="text/css">
	.st0{display:none;}
	.st1{display:inline;}
	.st2{fill:none;stroke:#000000;stroke-linecap:round;stroke-linejoin:round;stroke-miterlimit:10;}
</style>
<g id="Filled_Icons" class="st0">
	<path class="st1" d="M13.8,18.8l-1.3,1.3l0-16.2l1.3,1.3c0.2,0.2,0.5,0.3,0.7,0.3c0.3,0,0.5-0.1,0.7-0.3c0.4-0.4,0.4-1,0-1.4l-3-3
		l0,0c-0.4-0.4-0.9-0.4-1.4,0l-3,3c-0.4,0.4-0.4,1,0,1.4c0.4,0.4,1,0.4,1.4,0l1.3-1.3l0,16.2l-1.3-1.3c-0.4-0.4-1-0.4-1.4,0
		c-0.4,0.4-0.4,1,0,1.4l3,3c0.2,0.2,0.5,0.3,0.7,0.3c0,0,0,0,0,0c0,0,0,0,0,0l0,0c0.3,0,0.6-0.2,0.8-0.4l2.9-2.9
		c0.4-0.4,0.4-1,0-1.4C14.8,18.4,14.2,18.4,13.8,18.8z"/>
</g>
<g id="Outline_Icons">
	<g>
		<polyline class="st2" points="14.5,3.5 11.5,0.5 8.5,3.5 		"/>
		<line class="st2" x1="11.5" y1="23.5" x2="11.5" y2="0.5"/>
		<polyline class="st2" points="14.5,20.5 11.5,23.5 8.5,20.5 		"/>
	</g>
</g>
</svg>
