<?xml version="1.0" encoding="utf-8"?>
<!-- Generator: Adobe Illustrator 19.2.0, SVG Export Plug-In . SVG Version: 6.00 Build 0)  -->
<svg version="1.1" id="Layer_1" xmlns="http://www.w3.org/2000/svg" xmlns:xlink="http://www.w3.org/1999/xlink" x="0px" y="0px"
	 viewBox="0 0 24 24" style="enable-background:new 0 0 24 24;" xml:space="preserve">
<style type="text/css">
	.st0{display:none;}
	.st1{display:inline;}
	.st2{fill:none;stroke:#000000;stroke-linejoin:round;stroke-miterlimit:10;}
</style>
<g id="Filled_Icon" class="st0">
	<path class="st1" d="M22,2.5h-6.5H2c-1.1,0-2,0.9-2,2v14c0,1.1,0.9,2,2,2h20c1.1,0,2-0.9,2-2v-10v-4C24,3.4,23.1,2.5,22,2.5z
		 M22,4.5v4h-6.5v-4H22z M2,18.5v-14h11.5v5c0,0.6,0.4,1,1,1H22l0,0l0,8H2z"/>
</g>
<g id="Outline_Icons">
	<g>
		<path class="st2" d="M23.5,18.5c0,0.6-0.4,1-1,1h-21c-0.6,0-1-0.4-1-1v-14c0-0.6,0.4-1,1-1h21c0.6,0,1,0.4,1,1V18.5z"/>
		<path class="st2" d="M23.5,4.5c0-0.6-0.4-1-1-1h-7c-0.6,0-1,0.4-1,1v5h8c0.6,0,1-0.4,1-1V4.5z"/>
	</g>
</g>
</svg>
