<?xml version="1.0" encoding="utf-8"?>
<!-- Generator: Adobe Illustrator 19.2.0, SVG Export Plug-In . SVG Version: 6.00 Build 0)  -->
<svg version="1.1" id="Layer_1" xmlns="http://www.w3.org/2000/svg" xmlns:xlink="http://www.w3.org/1999/xlink" x="0px" y="0px"
	 viewBox="0 0 24 24" style="enable-background:new 0 0 24 24;" xml:space="preserve">
<style type="text/css">
	.st0{display:none;}
	.st1{display:inline;}
	.st2{fill:none;stroke:#000000;stroke-linecap:round;stroke-linejoin:round;stroke-miterlimit:10;}
</style>
<g id="Filled_Icons" class="st0">
	<g class="st1">
		<path d="M23,14H1c-0.6,0-1,0.4-1,1s0.4,1,1,1h9.5v4.6l-1.3-1.3c-0.4-0.4-1-0.4-1.4,0c-0.4,0.4-0.4,1,0,1.4l3,3
			c0.4,0.4,1,0.4,1.4,0l3-3c0.4-0.4,0.4-1,0-1.4c-0.4-0.4-1-0.4-1.4,0l-1.3,1.3V16H23c0.6,0,1-0.4,1-1S23.6,14,23,14z"/>
		<path d="M1,12h22c0.6,0,1-0.4,1-1c0-0.6-0.4-1-1-1H12.5V3.4l1.3,1.3C14,4.9,14.2,5,14.5,5c0.3,0,0.5-0.1,0.7-0.3
			c0.4-0.4,0.4-1,0-1.4l-3-3c-0.4-0.4-1.1-0.4-1.4,0l-3,3c-0.4,0.4-0.4,1,0,1.4c0.4,0.4,1,0.4,1.4,0l1.3-1.3V10H1c-0.6,0-1,0.4-1,1
			C0,11.5,0.4,12,1,12z"/>
	</g>
</g>
<g id="Outline_Icons">
	<g>
		<line class="st2" x1="23.5" y1="14.5" x2="0.5" y2="14.5"/>
		<line class="st2" x1="23.5" y1="10.5" x2="0.5" y2="10.5"/>
		<line class="st2" x1="11.5" y1="23.5" x2="11.5" y2="14.5"/>
		<line class="st2" x1="11.5" y1="10.5" x2="11.5" y2="1"/>
		<polyline class="st2" points="8.5,20.5 11.5,23.5 14.5,20.5 		"/>
		<polyline class="st2" points="8.5,3.5 11.5,0.5 14.5,3.5 		"/>
	</g>
</g>
</svg>
