<?xml version="1.0" encoding="utf-8"?>
<!-- Generator: Adobe Illustrator 19.2.0, SVG Export Plug-In . SVG Version: 6.00 Build 0)  -->
<svg version="1.1" id="Layer_1" xmlns="http://www.w3.org/2000/svg" xmlns:xlink="http://www.w3.org/1999/xlink" x="0px" y="0px"
	 viewBox="0 0 24 24" style="enable-background:new 0 0 24 24;" xml:space="preserve">
<style type="text/css">
	.st0{display:none;}
	.st1{display:inline;}
	.st2{fill:none;stroke:#000000;stroke-linecap:round;stroke-linejoin:round;stroke-miterlimit:10;}
</style>
<g id="Filled_Icons" class="st0">
	<path class="st1" d="M23.7,5.3C23.7,5.3,23.7,5.3,23.7,5.3L23.7,5.3L23.7,5.3l-5-5c-0.4-0.4-1-0.4-1.4,0c-0.4,0.4-0.4,1,0,1.4
		L20.6,5L6,5l0,0C5.7,5,5.5,5.1,5.3,5.3C5.1,5.5,5,5.7,5,6l0,14.6l-3.3-3.3c-0.4-0.4-1-0.4-1.4,0c-0.4,0.4-0.4,1,0,1.4l5,5
		C5.5,23.9,5.8,24,6,24c0.3,0,0.5-0.1,0.7-0.3l5-5c0.4-0.4,0.4-1,0-1.4c-0.4-0.4-1-0.4-1.4,0L7,20.6L7,7l13.6,0l-3.3,3.3
		c-0.4,0.4-0.4,1,0,1.4c0.2,0.2,0.5,0.3,0.7,0.3c0.3,0,0.5-0.1,0.7-0.3l5-5l0,0C24.1,6.4,24.1,5.7,23.7,5.3z"/>
</g>
<g id="Outline_Icons">
	<g>
		<polyline class="st2" points="5.5,23.5 5.5,5.5 23.5,5.5 		"/>
		<polyline class="st2" points="18.5,0.5 23.5,5.5 18.5,10.5 		"/>
		<polyline class="st2" points="0.5,18.5 5.5,23.5 10.5,18.5 		"/>
	</g>
</g>
</svg>
