<?xml version="1.0" encoding="utf-8"?>
<!-- Generator: Adobe Illustrator 19.2.0, SVG Export Plug-In . SVG Version: 6.00 Build 0)  -->
<svg version="1.1" id="Layer_1" xmlns="http://www.w3.org/2000/svg" xmlns:xlink="http://www.w3.org/1999/xlink" x="0px" y="0px"
	 viewBox="0 0 24 24" style="enable-background:new 0 0 24 24;" xml:space="preserve">
<style type="text/css">
	.st0{display:none;}
	.st1{display:inline;}
	.st2{fill:none;stroke:#000000;stroke-linecap:round;stroke-linejoin:round;stroke-miterlimit:10;}
</style>
<g id="Filled_Icons" class="st0">
	<g class="st1">
		<path d="M4.2,10.2L12,2.4l7.8,7.8c0.2,0.2,0.5,0.3,0.7,0.3c0.3,0,0.5-0.1,0.7-0.3c0.4-0.4,0.4-1,0-1.4l-8.5-8.5
			c-0.4-0.4-1-0.4-1.4,0L2.8,8.8c-0.4,0.4-0.4,1,0,1.4C3.2,10.6,3.8,10.6,4.2,10.2z"/>
		<path d="M19.8,13.8L12,21.6l-7.8-7.8c-0.4-0.4-1-0.4-1.4,0c-0.4,0.4-0.4,1,0,1.4l8.5,8.5c0.2,0.2,0.5,0.3,0.7,0.3
			c0.3,0,0.5-0.1,0.7-0.3l8.5-8.5c0.4-0.4,0.4-1,0-1.4C20.8,13.4,20.2,13.4,19.8,13.8z"/>
	</g>
</g>
<g id="Outline_Icons">
	<g>
		<polyline class="st2" points="20.5,9 12,0.5 3.5,9 		"/>
		<polyline class="st2" points="20.5,15 12,23.5 3.5,15 		"/>
	</g>
</g>
</svg>
