<?xml version="1.0" encoding="utf-8"?>
<!-- Generator: Adobe Illustrator 19.2.0, SVG Export Plug-In . SVG Version: 6.00 Build 0)  -->
<svg version="1.1" id="Layer_1" xmlns="http://www.w3.org/2000/svg" xmlns:xlink="http://www.w3.org/1999/xlink" x="0px" y="0px"
	 viewBox="0 0 24 24" style="enable-background:new 0 0 24 24;" xml:space="preserve">
<style type="text/css">
	.st0{display:none;}
	.st1{display:inline;}
	.st2{fill:none;stroke:#000000;stroke-linecap:round;stroke-linejoin:round;stroke-miterlimit:10;}
</style>
<g id="Filled_Icons" class="st0">
	<g class="st1">
		<path d="M24,1c0-0.6-0.5-1-1-1l-5,0h0c-0.6,0-1,0.4-1,1c0,0.6,0.4,1,1,1l2.6,0l-6.3,6.3c-0.4,0.4-0.4,1,0,1.4
			C14.5,9.9,14.7,10,15,10c0.3,0,0.5-0.1,0.7-0.3L22,3.4L22,6c0,0.6,0.4,1,1,1h0c0.6,0,1-0.4,1-1L24,1L24,1z"/>
		<path d="M8.3,14.3L2,20.6L2,18c0-0.6-0.4-1-1-1l0,0c-0.6,0-1,0.4-1,1l0,4.9C0,23.5,0.4,24,1,24h5c0.6,0,1-0.4,1-1s-0.4-1-1-1H3.4
			l6.3-6.3c0.4-0.4,0.4-1,0-1.4C9.3,13.9,8.7,13.9,8.3,14.3z"/>
		<path d="M1,7L1,7c0.6,0,1-0.4,1-1l0-2.6l6.3,6.3C8.5,9.9,8.7,10,9,10c0.3,0,0.5-0.1,0.7-0.3c0.4-0.4,0.4-1,0-1.4L3.4,2L6,2l0,0
			c0.6,0,1-0.4,1-1c0-0.6-0.4-1-1-1L1.1,0C0.5,0,0,0.4,0,1l0,5C0,6.6,0.5,7,1,7z"/>
		<path d="M23,17L23,17c-0.6,0-1,0.4-1,1l0,2.6l-6.3-6.3c-0.4-0.4-1-0.4-1.4,0c-0.4,0.4-0.4,1,0,1.4l6.3,6.3L18,22c0,0,0,0,0,0
			c-0.6,0-1,0.4-1,1c0,0.6,0.4,1,1,1l5,0h0c0.6,0,1-0.5,1-1c0,0,0,0,0,0l0-5C24,17.5,23.6,17,23,17z"/>
	</g>
</g>
<g id="Outline_Icons">
	<g>
		<line class="st2" x1="15.5" y1="8.5" x2="23.5" y2="0.5"/>
		<line class="st2" x1="0.5" y1="23.5" x2="8.5" y2="15.5"/>
		<polyline class="st2" points="5.5,23.5 0.5,23.5 0.5,18.5 		"/>
		<polyline class="st2" points="23.5,5.5 23.5,0.5 18.5,0.5 		"/>
		<line class="st2" x1="15.5" y1="15.5" x2="23.5" y2="23.5"/>
		<line class="st2" x1="0.5" y1="0.5" x2="8.5" y2="8.5"/>
		<polyline class="st2" points="0.5,5.5 0.5,0.5 5.5,0.5 		"/>
		<polyline class="st2" points="18.5,23.5 23.5,23.5 23.5,18.5 		"/>
	</g>
</g>
</svg>
