<?xml version="1.0" encoding="utf-8"?>
<!-- Generator: Adobe Illustrator 19.2.0, SVG Export Plug-In . SVG Version: 6.00 Build 0)  -->
<svg version="1.1" id="Layer_1" xmlns="http://www.w3.org/2000/svg" xmlns:xlink="http://www.w3.org/1999/xlink" x="0px" y="0px"
	 viewBox="0 0 24 24" style="enable-background:new 0 0 24 24;" xml:space="preserve">
<style type="text/css">
	.st0{display:none;}
	.st1{display:inline;}
	.st2{fill:none;stroke:#000000;stroke-linecap:round;stroke-linejoin:round;stroke-miterlimit:10;}
</style>
<g id="Filled_Icons" class="st0">
	<path class="st1" d="M23.2,10.8C23.2,10.8,23.2,10.8,23.2,10.8L23.2,10.8L23.2,10.8l-3-3c-0.4-0.4-1-0.4-1.4,0
		c-0.4,0.4-0.4,1,0,1.4l1.3,1.3l-16.2,0l1.3-1.3c0.4-0.4,0.4-1,0-1.4c-0.4-0.4-1-0.4-1.4,0l-3,3c-0.2,0.2-0.3,0.4-0.3,0.7v0v0
		c0,0.3,0.2,0.6,0.4,0.8l2.9,2.9c0.2,0.2,0.5,0.3,0.7,0.3c0.3,0,0.5-0.1,0.7-0.3c0.4-0.4,0.4-1,0-1.4l-1.3-1.3l16.2,0l-1.3,1.3
		c-0.4,0.4-0.4,1,0,1.4c0.2,0.2,0.5,0.3,0.7,0.3c0.3,0,0.5-0.1,0.7-0.3l3-3l0,0C23.6,11.8,23.6,11.2,23.2,10.8z"/>
</g>
<g id="Outline_Icons">
	<g>
		<polyline class="st2" points="20.5,14.5 23.5,11.5 20.5,8.5 		"/>
		<line class="st2" x1="0.5" y1="11.5" x2="23.5" y2="11.5"/>
		<polyline class="st2" points="3.5,14.5 0.5,11.5 3.5,8.5 		"/>
	</g>
</g>
</svg>
