<?xml version="1.0" encoding="utf-8"?>
<!-- Generator: Adobe Illustrator 19.2.0, SVG Export Plug-In . SVG Version: 6.00 Build 0)  -->
<svg version="1.1" id="Layer_1" xmlns="http://www.w3.org/2000/svg" xmlns:xlink="http://www.w3.org/1999/xlink" x="0px" y="0px"
	 viewBox="0 0 24 24" style="enable-background:new 0 0 24 24;" xml:space="preserve">
<style type="text/css">
	.st0{display:none;}
	.st1{display:inline;}
	.st2{fill:none;stroke:#000000;stroke-linecap:round;stroke-linejoin:round;stroke-miterlimit:10;}
</style>
<g id="Filled_Icons" class="st0">
	<g class="st1">
		<path d="M10.5,14h-10C0.2,14,0,14.2,0,14.5v9C0,23.8,0.2,24,0.5,24h10c0.3,0,0.5-0.2,0.5-0.5v-9C11,14.2,10.8,14,10.5,14z"/>
		<path d="M23,0C23,0,23,0,23,0h-5.5c-0.6,0-1,0.4-1,1c0,0.6,0.4,1,1,1h3.1l-9.3,9.3c-0.4,0.4-0.4,1,0,1.4c0.2,0.2,0.5,0.3,0.7,0.3
			c0.3,0,0.5-0.1,0.7-0.3L22,3.4v3.1c0,0.6,0.4,1,1,1c0.6,0,1-0.4,1-1V1C24,0.5,23.6,0,23,0z"/>
	</g>
</g>
<g id="Outline_Icons">
	<g>
		<rect x="0.5" y="14.5" class="st2" width="9" height="9"/>
		<line class="st2" x1="11.5" y1="12.5" x2="23.5" y2="0.5"/>
		<polyline class="st2" points="17.5,0.5 23.5,0.5 23.5,6.5 		"/>
	</g>
</g>
</svg>
