<?xml version="1.0" encoding="utf-8"?>
<!-- Generator: Adobe Illustrator 19.2.0, SVG Export Plug-In . SVG Version: 6.00 Build 0)  -->
<svg version="1.1" id="Layer_1" xmlns="http://www.w3.org/2000/svg" xmlns:xlink="http://www.w3.org/1999/xlink" x="0px" y="0px"
	 viewBox="0 0 24 24" style="enable-background:new 0 0 24 24;" xml:space="preserve">
<style type="text/css">
	.st0{display:none;}
	.st1{display:inline;}
	.st2{fill:none;stroke:#000000;stroke-linecap:round;stroke-linejoin:round;stroke-miterlimit:10;}
</style>
<g id="Filled_Icons" class="st0">
	<g class="st1">
		<path d="M23.7,11.8l-3-3c-0.4-0.4-1-0.4-1.4,0c-0.4,0.4-0.4,1,0,1.4l1.3,1.3h-5.1V1c0-0.6-0.4-1-1-1c-0.6,0-1,0.4-1,1v22
			c0,0.6,0.4,1,1,1c0.6,0,1-0.4,1-1v-9.5h5.1l-1.3,1.3c-0.4,0.4-0.4,1,0,1.4c0.2,0.2,0.5,0.3,0.7,0.3c0.3,0,0.5-0.1,0.7-0.3l3-3
			C24.1,12.8,24.1,12.2,23.7,11.8z"/>
		<path d="M10.5,0c-0.6,0-1,0.4-1,1v10.5H3.4l1.3-1.3c0.4-0.4,0.4-1,0-1.4c-0.4-0.4-1-0.4-1.4,0l-3,3c-0.4,0.4-0.4,1,0,1.4l3,3
			c0.2,0.2,0.5,0.3,0.7,0.3c0.3,0,0.5-0.1,0.7-0.3c0.4-0.4,0.4-1,0-1.4l-1.3-1.3h6.1V23c0,0.6,0.4,1,1,1c0.6,0,1-0.4,1-1V1
			C11.5,0.4,11.1,0,10.5,0z"/>
	</g>
</g>
<g id="Outline_Icons">
	<g>
		<line class="st2" x1="14.5" y1="0.5" x2="14.5" y2="23.5"/>
		<line class="st2" x1="10.5" y1="0.5" x2="10.5" y2="23.5"/>
		<line class="st2" x1="23.5" y1="12.5" x2="14.5" y2="12.5"/>
		<line class="st2" x1="10.5" y1="12.5" x2="0.5" y2="12.5"/>
		<polyline class="st2" points="20.5,15.5 23.5,12.5 20.5,9.5 		"/>
		<polyline class="st2" points="3.5,15.5 0.5,12.5 3.5,9.5 		"/>
	</g>
</g>
</svg>
