<?xml version="1.0" encoding="utf-8"?>
<!-- Generator: Adobe Illustrator 19.2.0, SVG Export Plug-In . SVG Version: 6.00 Build 0)  -->
<svg version="1.1" id="Layer_1" xmlns="http://www.w3.org/2000/svg" xmlns:xlink="http://www.w3.org/1999/xlink" x="0px" y="0px"
	 viewBox="0 0 24 24" style="enable-background:new 0 0 24 24;" xml:space="preserve">
<style type="text/css">
	.st0{display:none;}
	.st1{display:inline;}
	.st2{fill:none;stroke:#000000;stroke-linecap:round;stroke-linejoin:round;stroke-miterlimit:10;}
</style>
<g id="Filled_Icons" class="st0">
	<g class="st1">
		<path d="M16.5,11H7c-0.6,0-1,0.4-1,1c0,0.6,0.4,1,1,1h9.5c0.6,0,1-0.4,1-1C17.5,11.4,17.1,11,16.5,11z"/>
		<path d="M13.8,19.3l-1.3,1.3v-5.1c0-0.6-0.4-1-1-1c-0.6,0-1,0.4-1,1v5.1l-1.3-1.3c-0.4-0.4-1-0.4-1.4,0c-0.4,0.4-0.4,1,0,1.4l3,3
			l0,0c0.4,0.4,1,0.4,1.4,0l0,0l3-3c0.4-0.4,0.4-1,0-1.4C14.8,18.9,14.2,18.9,13.8,19.3z"/>
		<path d="M9.2,4.7l1.3-1.3v5.1c0,0.6,0.4,1,1,1c0.6,0,1-0.4,1-1V3.4l1.3,1.3C14,4.9,14.2,5,14.5,5c0.3,0,0.5-0.1,0.7-0.3
			c0.4-0.4,0.4-1,0-1.4l-3-3l0,0c-0.4-0.4-1-0.4-1.4,0h0l-3,3c-0.4,0.4-0.4,1,0,1.4C8.2,5.1,8.8,5.1,9.2,4.7z"/>
	</g>
</g>
<g id="Outline_Icons">
	<g>
		<line class="st2" x1="16.5" y1="12.5" x2="7" y2="12.5"/>
		<line class="st2" x1="11.5" y1="23.5" x2="11.5" y2="15.5"/>
		<polyline class="st2" points="8.5,20.5 11.5,23.5 14.5,20.5 		"/>
		<line class="st2" x1="11.5" y1="0.5" x2="11.5" y2="8.5"/>
		<polyline class="st2" points="8.5,3.5 11.5,0.5 14.5,3.5 		"/>
	</g>
</g>
</svg>
