<?xml version="1.0" encoding="utf-8"?>
<!-- Generator: Adobe Illustrator 19.2.0, SVG Export Plug-In . SVG Version: 6.00 Build 0)  -->
<svg version="1.1" id="Layer_1" xmlns="http://www.w3.org/2000/svg" xmlns:xlink="http://www.w3.org/1999/xlink" x="0px" y="0px"
	 viewBox="0 0 24 24" style="enable-background:new 0 0 24 24;" xml:space="preserve">
<style type="text/css">
	.st0{display:none;}
	.st1{display:inline;}
	.st2{fill:none;stroke:#000000;stroke-linecap:round;stroke-linejoin:round;stroke-miterlimit:10;}
</style>
<g id="Filled_Icons" class="st0">
	<g class="st1">
		<path d="M9.7,7.8c-0.4-0.4-1-0.4-1.4,0c-0.4,0.4-0.4,1,0,1.4l6.5,6.5c0.2,0.2,0.5,0.3,0.7,0.3c0.3,0,0.5-0.1,0.7-0.3
			c0.4-0.4,0.4-1,0-1.4L9.7,7.8z"/>
		<path d="M8.3,14.3L2,20.6V19c0-0.6-0.4-1-1-1c-0.6,0-1,0.4-1,1v4c0,0.6,0.5,1,1,1h4c0.6,0,1-0.4,1-1c0-0.6-0.4-1-1-1H3.4l6.3-6.3
			c0.4-0.4,0.4-1,0-1.4C9.3,13.9,8.7,13.9,8.3,14.3z"/>
		<path d="M23,0C23,0,23,0,23,0l-4,0c-0.6,0-1,0.4-1,1c0,0.6,0.4,1,1,1h1.6l-5.8,5.8c-0.4,0.4-0.4,1,0,1.4c0.2,0.2,0.5,0.3,0.7,0.3
			c0.3,0,0.5-0.1,0.7-0.3L22,3.4V5c0,0.6,0.4,1,1,1c0.6,0,1-0.4,1-1V1C24,0.5,23.6,0,23,0z"/>
	</g>
</g>
<g id="Outline_Icons">
	<g>
		<line class="st2" x1="15.5" y1="15" x2="9" y2="8.5"/>
		<line class="st2" x1="0.5" y1="23.5" x2="9" y2="15"/>
		<polyline class="st2" points="0.5,19.5 0.5,23.5 4.5,23.5 		"/>
		<line class="st2" x1="23.5" y1="0.5" x2="15.5" y2="8.5"/>
		<polyline class="st2" points="19.5,0.5 23.5,0.5 23.5,4.5 		"/>
	</g>
</g>
</svg>
