<?xml version="1.0" encoding="utf-8"?>
<!-- Generator: Adobe Illustrator 19.2.0, SVG Export Plug-In . SVG Version: 6.00 Build 0)  -->
<svg version="1.1" id="Layer_1" xmlns="http://www.w3.org/2000/svg" xmlns:xlink="http://www.w3.org/1999/xlink" x="0px" y="0px"
	 viewBox="0 0 24 24" style="enable-background:new 0 0 24 24;" xml:space="preserve">
<style type="text/css">
	.st0{display:none;}
	.st1{display:inline;}
	.st2{fill:none;stroke:#000000;stroke-linecap:round;stroke-linejoin:round;stroke-miterlimit:10;}
</style>
<g id="Filled_Icons" class="st0">
	<g class="st1">
		<path d="M11.5,7c-0.6,0-1,0.4-1,1v9c0,0.6,0.4,1,1,1c0.6,0,1-0.4,1-1V8C12.5,7.4,12.1,7,11.5,7z"/>
		<path d="M23.7,11.8L23.7,11.8l-3-3c-0.4-0.4-1-0.4-1.4,0c-0.4,0.4-0.4,1,0,1.4l1.3,1.3h-6.1c-0.6,0-1,0.4-1,1c0,0.6,0.4,1,1,1h6.1
			l-1.3,1.3c-0.4,0.4-0.4,1,0,1.4c0.2,0.2,0.5,0.3,0.7,0.3c0.3,0,0.5-0.1,0.7-0.3l3-3l0,0C24.1,12.8,24.1,12.2,23.7,11.8z"/>
		<path d="M8.5,11.5H3.4l1.3-1.3c0.4-0.4,0.4-1,0-1.4c-0.4-0.4-1-0.4-1.4,0l-3,3l0,0c-0.4,0.4-0.4,1,0,1.4l0,0l3,3
			c0.2,0.2,0.5,0.3,0.7,0.3c0.3,0,0.5-0.1,0.7-0.3c0.4-0.4,0.4-1,0-1.4l-1.3-1.3h5.1c0.6,0,1-0.4,1-1C9.5,11.9,9.1,11.5,8.5,11.5z"
			/>
	</g>
</g>
<g id="Outline_Icons">
	<g>
		<line class="st2" x1="11.5" y1="8" x2="11.5" y2="17"/>
		<line class="st2" x1="23.5" y1="12.5" x2="14.5" y2="12.5"/>
		<polyline class="st2" points="20.5,15.5 23.5,12.5 20.5,9.5 		"/>
		<line class="st2" x1="0.5" y1="12.5" x2="8.5" y2="12.5"/>
		<polyline class="st2" points="3.5,15.5 0.5,12.5 3.5,9.5 		"/>
	</g>
</g>
</svg>
