<?xml version="1.0" encoding="utf-8"?>
<!-- Generator: Adobe Illustrator 19.2.0, SVG Export Plug-In . SVG Version: 6.00 Build 0)  -->
<svg version="1.1" id="Layer_1" xmlns="http://www.w3.org/2000/svg" xmlns:xlink="http://www.w3.org/1999/xlink" x="0px" y="0px"
	 viewBox="0 0 24 24" style="enable-background:new 0 0 24 24;" xml:space="preserve">
<style type="text/css">
	.st0{display:none;}
	.st1{display:inline;}
	.st2{fill:none;stroke:#000000;stroke-linecap:round;stroke-linejoin:round;stroke-miterlimit:10;}
</style>
<g id="Filled_Icons" class="st0">
	<path class="st1" d="M15.8,16.8l-3.3,3.3l0-16.2l3.3,3.3c0.2,0.2,0.5,0.3,0.7,0.3c0.3,0,0.5-0.1,0.7-0.3c0.4-0.4,0.4-1,0-1.4l-5-5
		l0,0c-0.4-0.4-1-0.4-1.4,0c0,0,0.2-0.2-5,5c-0.4,0.4-0.4,1,0,1.4c0.4,0.4,1,0.4,1.4,0l3.3-3.3l0,16.2l-3.3-3.3
		c-0.4-0.4-1-0.4-1.4,0c-0.4,0.4-0.4,1,0,1.4l5,5c0.2,0.2,0.4,0.3,0.7,0.3h0c0,0,0,0,0,0c0,0,0,0,0,0h0c0.4,0,0.7-0.2,0.8-0.5
		l4.8-4.8c0.4-0.4,0.4-1,0-1.4C16.8,16.4,16.2,16.4,15.8,16.8z"/>
</g>
<g id="Outline_Icons">
	<g>
		<line class="st2" x1="11.5" y1="0.5" x2="11.5" y2="23.5"/>
		<polyline class="st2" points="6.5,5.5 11.5,0.5 16.5,5.5 		"/>
		<polyline class="st2" points="6.5,18.5 11.5,23.5 16.5,18.5 		"/>
	</g>
</g>
</svg>
