<?xml version="1.0" encoding="utf-8"?>
<!-- Generator: Adobe Illustrator 19.2.0, SVG Export Plug-In . SVG Version: 6.00 Build 0)  -->
<svg version="1.1" id="Layer_1" xmlns="http://www.w3.org/2000/svg" xmlns:xlink="http://www.w3.org/1999/xlink" x="0px" y="0px"
	 viewBox="0 0 24 24" style="enable-background:new 0 0 24 24;" xml:space="preserve">
<style type="text/css">
	.st0{display:none;}
	.st1{display:inline;}
	.st2{fill:none;stroke:#000000;stroke-linejoin:round;stroke-miterlimit:10;}
	.st3{fill:none;stroke:#000000;stroke-linecap:round;stroke-linejoin:round;stroke-miterlimit:10;}
</style>
<g id="Filled_Icons" class="st0">
	<g class="st1">
		<path d="M10,13H1c-0.3,0-0.5,0.1-0.7,0.3C0.1,13.5,0,13.7,0,14v9c0,0.6,0.4,1,1,1h9c0.6,0,1-0.4,1-1v-9c0-0.3-0.1-0.5-0.3-0.7
			C10.5,13.1,10.3,13,10,13z M9,22H2v-7h7V22z"/>
		<path d="M10,0H1C0.4,0,0,0.4,0,1v9c0,0.6,0.4,1,1,1c0.6,0,1-0.4,1-1V2h8c0.6,0,1-0.4,1-1C11,0.4,10.6,0,10,0z"/>
		<path d="M23,0h-9c-0.6,0-1,0.4-1,1c0,0.6,0.4,1,1,1h8v8c0,0.6,0.4,1,1,1c0.6,0,1-0.4,1-1V1C24,0.4,23.6,0,23,0z"/>
		<path d="M23,13c-0.6,0-1,0.4-1,1v8h-8c-0.6,0-1,0.4-1,1c0,0.6,0.4,1,1,1h9c0.6,0,1-0.4,1-1v-9C24,13.4,23.6,13,23,13z"/>
	</g>
</g>
<g id="Outline_Icons">
	<g>
		<rect x="0.5" y="13.5" class="st2" width="10" height="10"/>
		<polyline class="st3" points="0.5,10.5 0.5,0.5 10.5,0.5 		"/>
		<polyline class="st3" points="13.5,0.5 23.5,0.5 23.5,10.5 		"/>
		<polyline class="st3" points="23.5,13.5 23.5,23.5 13.5,23.5 		"/>
	</g>
</g>
</svg>
