<?xml version="1.0" encoding="utf-8"?>
<!-- Generator: Adobe Illustrator 19.2.0, SVG Export Plug-In . SVG Version: 6.00 Build 0)  -->
<svg version="1.1" id="Layer_1" xmlns="http://www.w3.org/2000/svg" xmlns:xlink="http://www.w3.org/1999/xlink" x="0px" y="0px"
	 viewBox="0 0 24 24" style="enable-background:new 0 0 24 24;" xml:space="preserve">
<style type="text/css">
	.st0{display:none;}
	.st1{display:inline;}
	.st2{fill:none;stroke:#000000;stroke-linecap:round;stroke-linejoin:round;stroke-miterlimit:10;}
</style>
<g id="Filled_Icons" class="st0">
	<path class="st1" d="M21.5,2.5c0-0.5-0.5-1-1-1l-7,0h0c-0.6,0-1,0.4-1,1c0,0.6,0.4,1,1,1l4.6,0L4.5,17.1l0-4.6c0-0.6-0.4-1-1-1h0
		c-0.6,0-1,0.4-1,1l0,7l0,0c0,0.5,0.4,1,1,1c0,0,0,0,0,0l7,0h0c0.6,0,1-0.4,1-1c0-0.6-0.4-1-1-1l-4.6,0L19.5,4.9l0,4.6
		c0,0.6,0.4,1,1,1l0,0c0.6,0,1-0.4,1-1L21.5,2.5L21.5,2.5z"/>
</g>
<g id="Outline_Icons">
	<g>
		<polyline class="st2" points="10.5,19.5 3.5,19.5 3.5,12.5 		"/>
		<polyline class="st2" points="20.5,9.5 20.5,2.5 13.5,2.5 		"/>
		<line class="st2" x1="3.5" y1="19.5" x2="20.5" y2="2.5"/>
	</g>
</g>
</svg>
