<?xml version="1.0" encoding="utf-8"?>
<!-- Generator: Adobe Illustrator 19.2.0, SVG Export Plug-In . SVG Version: 6.00 Build 0)  -->
<svg version="1.1" id="Layer_1" xmlns="http://www.w3.org/2000/svg" xmlns:xlink="http://www.w3.org/1999/xlink" x="0px" y="0px"
	 viewBox="0 0 24 24" style="enable-background:new 0 0 24 24;" xml:space="preserve">
<style type="text/css">
	.st0{display:none;}
	.st1{display:inline;}
	.st2{fill:none;stroke:#000000;stroke-linejoin:round;stroke-miterlimit:10;}
</style>
<g id="Filled_Icon" class="st0">
	<g class="st1">
		<path d="M12,0C5.4,0,0,5.4,0,12c0,6.6,5.4,12,12,12c6.6,0,12-5.4,12-12C24,5.4,18.6,0,12,0z M12,21c-5,0-9-4-9-9c0-5,4-9,9-9
			c5,0,9,4,9,9C21,17,17,21,12,21z"/>
		<path d="M12,4L12,4C9.4,4,7.2,5.2,5.7,7.1L8,10.9L12,4z"/>
		<path d="M19.4,9h-4.5l4,7c0.7-1.2,1.1-2.5,1.1-4C20,10.9,19.8,9.9,19.4,9z"/>
		<path d="M12,20c2.6,0,4.8-1.2,6.3-3.1L16,13L12,20z"/>
		<path d="M5.1,8C4.4,9.2,4,10.5,4,12c0,1.1,0.2,2.1,0.6,3h4.7L5.1,8z"/>
		<path d="M18.9,8c-1.2-2.1-3.3-3.6-5.8-3.9L10.8,8H18.9z"/>
		<path d="M5.1,16c1.2,2.1,3.3,3.6,5.8,3.9l2.3-3.9H5.1z"/>
	</g>
</g>
<g id="Outline_Icons">
	<g>
		<circle class="st2" cx="12" cy="12" r="11.5"/>
		<circle class="st2" cx="12" cy="12" r="8.5"/>
		<line class="st2" x1="4.3" y1="15.5" x2="14" y2="15.5"/>
		<line class="st2" x1="11.2" y1="20.5" x2="16" y2="12"/>
		<line class="st2" x1="18.9" y1="17" x2="14" y2="8.5"/>
		<line class="st2" x1="19.5" y1="8.5" x2="10" y2="8.5"/>
		<line class="st2" x1="12.8" y1="3.5" x2="8" y2="12"/>
		<line class="st2" x1="5.1" y1="7" x2="10" y2="15.5"/>
	</g>
</g>
</svg>
