<?xml version="1.0" encoding="utf-8"?>
<!-- Generator: Adobe Illustrator 19.2.0, SVG Export Plug-In . SVG Version: 6.00 Build 0)  -->
<svg version="1.1" id="Layer_1" xmlns="http://www.w3.org/2000/svg" xmlns:xlink="http://www.w3.org/1999/xlink" x="0px" y="0px"
	 viewBox="0 0 24 24" style="enable-background:new 0 0 24 24;" xml:space="preserve">
<style type="text/css">
	.st0{display:none;}
	.st1{display:inline;}
	.st2{fill:none;stroke:#000000;stroke-linecap:round;stroke-linejoin:round;stroke-miterlimit:10;}
	.st3{fill:none;stroke:#000000;stroke-linejoin:round;stroke-miterlimit:10;}
</style>
<g id="Filled_Icon" class="st0">
	<g class="st1">
		<path d="M22.9,0.4C22.5,0.2,22,0,21.5,0h-19C1.1,0,0,1.1,0,2.5v19c0,0.5,0.2,1,0.4,1.4L22.9,0.4z M3.5,4.5h7v3h-7V4.5z"/>
		<path d="M1.1,23.6C1.5,23.8,2,24,2.5,24h19c1.4,0,2.5-1.1,2.5-2.5v-19c0-0.5-0.2-1-0.4-1.4L1.1,23.6z M20.5,18.5h-2v2h-3v-2h-2v-3
			h2v-2h3v2h2V18.5z"/>
	</g>
</g>
<g id="Outline_Icons">
	<g>
		<path class="st2" d="M23.5,21.5c0,1.1-0.9,2-2,2h-19c-1.1,0-2-0.9-2-2v-19c0-1.1,0.9-2,2-2h19c1.1,0,2,0.9,2,2V21.5z"/>
		<line class="st3" x1="23" y1="1" x2="1" y2="23"/>
		<rect x="3.5" y="4.5" class="st3" width="7" height="3"/>
		<polygon class="st3" points="20.5,15.5 18.5,15.5 18.5,13.5 15.5,13.5 15.5,15.5 13.5,15.5 13.5,18.5 15.5,18.5 15.5,20.5 
			18.5,20.5 18.5,18.5 20.5,18.5 		"/>
	</g>
</g>
</svg>
