<?xml version="1.0" encoding="utf-8"?>
<!-- Generator: Adobe Illustrator 19.2.0, SVG Export Plug-In . SVG Version: 6.00 Build 0)  -->
<svg version="1.1" id="Layer_1" xmlns="http://www.w3.org/2000/svg" xmlns:xlink="http://www.w3.org/1999/xlink" x="0px" y="0px"
	 viewBox="0 0 24 24" style="enable-background:new 0 0 24 24;" xml:space="preserve">
<style type="text/css">
	.st0{display:none;}
	.st1{display:inline;}
	.st2{fill:none;stroke:#000000;stroke-linecap:round;stroke-linejoin:round;stroke-miterlimit:10;}
</style>
<g id="Filled_Icon" class="st0">
	<g class="st1">
		<path d="M8,8H6.5C6.2,8,6,8.2,6,8.5C6,8.8,6.2,9,6.5,9H8v2h2.5c0.3,0,0.5,0.2,0.5,0.5c0,0.3-0.2,0.5-0.5,0.5H8v1h2.5
			c0.3,0,0.5,0.2,0.5,0.5c0,0.3-0.2,0.5-0.5,0.5H8v1h2.5c0.3,0,0.5,0.2,0.5,0.5c0,0.3-0.2,0.5-0.5,0.5H8v1.5c0,1.8,1,3.4,2,4.1v1.9
			c0,0.3,0.2,0.5,0.5,0.5h3c0.3,0,0.5-0.2,0.5-0.5v-1.9c1-0.7,2-2.3,2-4.1V9h1.5C17.8,9,18,8.8,18,8.5C18,8.2,17.8,8,17.5,8H16H8z"
			/>
		<path d="M16,4.5C16,2,14.2,0,12,0C9.8,0,8,2,8,4.5V7h8V4.5z"/>
	</g>
</g>
<g id="Outline_Icons">
	<g>
		<line class="st2" x1="6.5" y1="8.5" x2="17.5" y2="8.5"/>
		<line class="st2" x1="8.5" y1="11.5" x2="10.5" y2="11.5"/>
		<line class="st2" x1="8.5" y1="13.5" x2="10.5" y2="13.5"/>
		<line class="st2" x1="8.5" y1="15.5" x2="10.5" y2="15.5"/>
		<path class="st2" d="M12,0.5c-1.9,0-3.5,1.8-3.5,4v13c0,1.8,1.1,3.3,2,3.8v2.2h3v-2.2c0.9-0.5,2-2,2-3.8v-13
			C15.5,2.3,13.9,0.5,12,0.5z"/>
	</g>
</g>
</svg>
