<?xml version="1.0" encoding="utf-8"?>
<!-- Generator: Adobe Illustrator 19.2.0, SVG Export Plug-In . SVG Version: 6.00 Build 0)  -->
<svg version="1.1" id="Layer_1" xmlns="http://www.w3.org/2000/svg" xmlns:xlink="http://www.w3.org/1999/xlink" x="0px" y="0px"
	 viewBox="0 0 24 24" style="enable-background:new 0 0 24 24;" xml:space="preserve">
<style type="text/css">
	.st0{display:none;}
	.st1{display:inline;}
	.st2{fill:none;stroke:#000000;stroke-linecap:round;stroke-linejoin:round;stroke-miterlimit:10;}
</style>
<g id="Filled_Icon" class="st0">
	<g class="st1">
		<path d="M16.5,8h-9C7.2,8,7,8.2,7,8.5C7,8.8,7.2,9,7.5,9H9v7c0,1.2,0.7,2.1,1,2.5v2c0,0.3,0.2,0.5,0.5,0.5h3
			c0.3,0,0.5-0.2,0.5-0.5v-2c0.3-0.4,1-1.3,1-2.5V9h1.5C16.8,9,17,8.8,17,8.5C17,8.2,16.8,8,16.5,8z"/>
		<path d="M15,5c0-1.7-1.3-3-3-3c-1.7,0-3,1.3-3,3v2h6V5z"/>
	</g>
</g>
<g id="Outline_Icons">
	<g>
		<line class="st2" x1="7.5" y1="8.5" x2="16.5" y2="8.5"/>
		<path class="st2" d="M12,2.5c-1.4,0-2.5,1.1-2.5,2.5v11c0,1,0.6,1.9,1,2.3v2.2h3v-2.2c0.4-0.4,1-1.3,1-2.3V5
			C14.5,3.6,13.4,2.5,12,2.5z"/>
	</g>
</g>
</svg>
