<?xml version="1.0" encoding="utf-8"?>
<!-- Generator: Adobe Illustrator 19.2.0, SVG Export Plug-In . SVG Version: 6.00 Build 0)  -->
<svg version="1.1" id="Layer_1" xmlns="http://www.w3.org/2000/svg" xmlns:xlink="http://www.w3.org/1999/xlink" x="0px" y="0px"
	 viewBox="0 0 24 24" style="enable-background:new 0 0 24 24;" xml:space="preserve">
<style type="text/css">
	.st0{display:none;}
	.st1{display:inline;}
	.st2{fill:none;stroke:#000000;stroke-linecap:round;stroke-linejoin:round;stroke-miterlimit:10;}
</style>
<g id="Filled_Icon" class="st0">
	<g class="st1">
		<path d="M17.5,6h-9C8.2,6,8,6.2,8,6.5C8,6.8,8.2,7,8.5,7H10v7c0,1.1,0.6,2.1,1.5,2.6v1.9c0,0.3,0.2,0.5,0.5,0.5h2
			c0.3,0,0.5-0.2,0.5-0.5v-1.9c0.9-0.5,1.5-1.5,1.5-2.6V7h1.5C17.8,7,18,6.8,18,6.5C18,6.2,17.8,6,17.5,6z M14,14c0,0.6-0.4,1-1,1
			c-0.6,0-1-0.4-1-1V8.5C12,8.2,12.2,8,12.5,8h1C13.8,8,14,8.2,14,8.5V14z"/>
		<path d="M10.5,5h5C15.8,5,16,4.8,16,4.5V3c0-1.7-1.3-3-3-3c-1.7,0-3,1.3-3,3v1.5C10,4.8,10.2,5,10.5,5z"/>
		<path d="M12.6,20.2c-0.3,0.5-1.1,1.6-1.1,2.3c0,0.8,0.7,1.5,1.5,1.5c0.8,0,1.5-0.7,1.5-1.5c0-0.6-0.8-1.8-1.1-2.3
			C13.2,19.9,12.8,19.9,12.6,20.2z"/>
	</g>
</g>
<g id="Outline_Icons">
	<g>
		<line class="st2" x1="7.5" y1="6.5" x2="16.5" y2="6.5"/>
		<path class="st2" d="M12,0.5c-1.4,0-2.5,1.1-2.5,2.5v11c0,1,0.6,1.9,1.5,2.3v2.2h2v-2.2c0.9-0.4,1.5-1.3,1.5-2.3V3
			C14.5,1.6,13.4,0.5,12,0.5z"/>
		<path class="st2" d="M12.5,14c0,0.3-0.2,0.5-0.5,0.5c-0.3,0-0.5-0.2-0.5-0.5V8.5h1V14z"/>
		<path class="st2" d="M13,22.5c0,0.6-0.4,1-1,1c-0.6,0-1-0.4-1-1c0-0.6,1-2,1-2S13,21.9,13,22.5z"/>
	</g>
</g>
</svg>
