<?xml version="1.0" encoding="utf-8"?>
<!-- Generator: Adobe Illustrator 19.2.0, SVG Export Plug-In . SVG Version: 6.00 Build 0)  -->
<svg version="1.1" id="Layer_1" xmlns="http://www.w3.org/2000/svg" xmlns:xlink="http://www.w3.org/1999/xlink" x="0px" y="0px"
	 viewBox="0 0 24 24" style="enable-background:new 0 0 24 24;" xml:space="preserve">
<style type="text/css">
	.st0{display:none;}
	.st1{display:inline;}
	.st2{fill:none;stroke:#000000;stroke-linecap:round;stroke-linejoin:round;stroke-miterlimit:10;}
	.st3{fill:none;stroke:#000000;stroke-linejoin:round;stroke-miterlimit:10;}
</style>
<g id="Filled_Icons" class="st0">
	<g class="st1">
		<path d="M18,13.9v-3.4l-6,3.4v-3.5l-5.4,3.5L4.8,5H1.5L0,15.6L0,24h24V10.4L18,13.9z M9,21.5H7.5C7.3,21.5,7,21.3,7,21
			c0-0.3,0.2-0.5,0.5-0.5H9c0.3,0,0.5,0.2,0.5,0.5C9.5,21.3,9.3,21.5,9,21.5z M9,19H7.5C7.3,19,7,18.8,7,18.5C7,18.2,7.3,18,7.5,18
			H9c0.3,0,0.5,0.2,0.5,0.5C9.5,18.8,9.3,19,9,19z M15.1,21.5h-1.5c-0.3,0-0.5-0.2-0.5-0.5c0-0.3,0.2-0.5,0.5-0.5h1.5
			c0.3,0,0.5,0.2,0.5,0.5C15.6,21.3,15.3,21.5,15.1,21.5z M15.1,19h-1.5c-0.3,0-0.5-0.2-0.5-0.5c0-0.3,0.2-0.5,0.5-0.5h1.5
			c0.3,0,0.5,0.2,0.5,0.5C15.6,18.8,15.3,19,15.1,19z M21.1,21.5h-1.5c-0.3,0-0.5-0.2-0.5-0.5c0-0.3,0.2-0.5,0.5-0.5h1.5
			c0.3,0,0.5,0.2,0.5,0.5C21.6,21.3,21.4,21.5,21.1,21.5z M21.1,19h-1.5c-0.3,0-0.5-0.2-0.5-0.5c0-0.3,0.2-0.5,0.5-0.5h1.5
			c0.3,0,0.5,0.2,0.5,0.5C21.6,18.8,21.4,19,21.1,19z"/>
		<path d="M2.8,3.4c0.5-0.3,1-0.4,1.5-0.4c2,0,4.1,1.8,6.7,1.8c2,0,3.8-1.1,5.5-3.5c0.2-0.2,0.1-0.5-0.1-0.7c-0.2-0.2-0.5-0.2-0.7,0
			c-0.8,0.7-1.6,1.1-2.6,1.1c-2.1,0-4.3-1.5-6.6-1.5c-1.7,0-3.1,0.8-4.4,2.5C2,2.8,2,3.1,2.1,3.3C2.3,3.4,2.6,3.5,2.8,3.4z"/>
	</g>
</g>
<g id="Outline_Icons">
	<g>
		<path class="st2" d="M2.5,3C7-3,11.5,5,16,1C10.5,8.5,6.5,0.5,2.5,3z"/>
		<line class="st2" x1="7.5" y1="17.5" x2="9" y2="17.5"/>
		<line class="st2" x1="7.5" y1="20.5" x2="9" y2="20.5"/>
		<line class="st2" x1="13.5" y1="17.5" x2="15" y2="17.5"/>
		<line class="st2" x1="13.5" y1="20.5" x2="15" y2="20.5"/>
		<line class="st2" x1="19.5" y1="17.5" x2="21" y2="17.5"/>
		<line class="st2" x1="19.5" y1="20.5" x2="21" y2="20.5"/>
		<polygon class="st3" points="0.5,23.5 0.5,15.7 1.9,5.5 4.3,5.5 6.2,14.7 11.5,11.3 11.5,14.7 17.5,11.3 17.5,14.8 23.5,11.3 
			23.5,23.5 13,23.5 		"/>
	</g>
</g>
</svg>
