<?xml version="1.0" encoding="utf-8"?>
<!-- Generator: Adobe Illustrator 19.2.0, SVG Export Plug-In . SVG Version: 6.00 Build 0)  -->
<svg version="1.1" id="Layer_1" xmlns="http://www.w3.org/2000/svg" xmlns:xlink="http://www.w3.org/1999/xlink" x="0px" y="0px"
	 viewBox="0 0 24 24" style="enable-background:new 0 0 24 24;" xml:space="preserve">
<style type="text/css">
	.st0{display:none;}
	.st1{display:inline;}
	.st2{fill:none;stroke:#000000;stroke-linecap:round;stroke-linejoin:round;stroke-miterlimit:10;}
</style>
<g id="Filled_Icon" class="st0">
	<g class="st1">
		<circle cx="17.5" cy="8.5" r="1"/>
		<path d="M12,0C5.4,0,0,5.4,0,12c0,6.6,5.4,12,12,12c6.6,0,12-5.4,12-12C24,5.4,18.6,0,12,0z M14,7.5H8.5v3H13c0.6,0,1,0.4,1,1
			c0,0.6-0.4,1-1,1H8.5v6c0,0.6-0.4,1-1,1c-0.6,0-1-0.4-1-1v-12c0-0.6,0.4-1,1-1H14c0.6,0,1,0.4,1,1C15,7.1,14.6,7.5,14,7.5z
			 M17.5,10.5c-1.1,0-2-0.9-2-2c0-1.1,0.9-2,2-2c1.1,0,2,0.9,2,2C19.5,9.6,18.6,10.5,17.5,10.5z"/>
	</g>
</g>
<g id="Outline_Icons">
	<g>
		<circle class="st2" cx="12" cy="12" r="11.5"/>
		<circle class="st2" cx="17.5" cy="8.5" r="1.5"/>
		<polyline class="st2" points="7.5,18.5 7.5,6.5 14,6.5 		"/>
		<line class="st2" x1="7.5" y1="11.5" x2="13" y2="11.5"/>
	</g>
</g>
</svg>
