<?xml version="1.0" encoding="utf-8"?>
<!-- Generator: Adobe Illustrator 19.2.0, SVG Export Plug-In . SVG Version: 6.00 Build 0)  -->
<svg version="1.1" id="Layer_1" xmlns="http://www.w3.org/2000/svg" xmlns:xlink="http://www.w3.org/1999/xlink" x="0px" y="0px"
	 viewBox="0 0 24 24" style="enable-background:new 0 0 24 24;" xml:space="preserve">
<style type="text/css">
	.st0{display:none;}
	.st1{display:inline;}
	.st2{fill:none;stroke:#000000;stroke-linecap:round;stroke-linejoin:round;stroke-miterlimit:10;}
</style>
<g id="Filled_Icon" class="st0">
	<path class="st1" d="M12,24c6.6,0,12-5.4,12-12c0-6.6-5.4-12-12-12C5.4,0,0,5.4,0,12C0,18.6,5.4,24,12,24z M8,7.5
		c0-0.2,0.1-0.4,0.3-0.4C8.4,7,8.6,7,8.8,7.1l3.7,2.5V7.5c0-0.2,0.1-0.4,0.3-0.5C13,7,13.2,7,13.3,7.1l5.5,4.5
		c0.1,0.1,0.2,0.2,0.2,0.4c0,0.1-0.1,0.3-0.2,0.4l-5.5,4.5C13.2,17,13.1,17,13,17c-0.1,0-0.1,0-0.2,0c-0.2-0.1-0.3-0.3-0.3-0.5v-2.1
		l-3.7,2.5c-0.2,0.1-0.4,0.1-0.5,0C8.1,16.9,8,16.7,8,16.5V7.5z"/>
</g>
<g id="Outline_Icons">
	<g>
		<circle class="st2" cx="12" cy="12" r="11.5"/>
		<polygon class="st2" points="18.5,12 13,7.5 13,10.5 8.5,7.5 8.5,16.5 13,13.5 13,16.5 		"/>
	</g>
</g>
</svg>
