<?xml version="1.0" encoding="utf-8"?>
<!-- Generator: Adobe Illustrator 19.2.0, SVG Export Plug-In . SVG Version: 6.00 Build 0)  -->
<svg version="1.1" id="Layer_1" xmlns="http://www.w3.org/2000/svg" xmlns:xlink="http://www.w3.org/1999/xlink" x="0px" y="0px"
	 viewBox="0 0 24 24" style="enable-background:new 0 0 24 24;" xml:space="preserve">
<style type="text/css">
	.st0{display:none;}
	.st1{display:inline;}
	.st2{fill:none;stroke:#000000;stroke-linejoin:round;stroke-miterlimit:10;}
</style>
<g id="Filled_Icons" class="st0">
	<g class="st1">
		<path d="M11.5,8c2.2,0,4-1.8,4-4c0-2.2-1.8-4-4-4c-2.2,0-4,1.8-4,4C7.5,6.2,9.3,8,11.5,8z"/>
		<path d="M11.5,9c-3.4,0-6,4.4-6,10v0.5H9V24h5v-4.5h3.5V19C17.5,13.4,14.9,9,11.5,9z"/>
	</g>
</g>
<g id="Outline_Icons">
	<g>
		<circle class="st2" cx="11.5" cy="4" r="3.5"/>
		<path class="st2" d="M11.5,9C8.5,9,6,13.5,6,18.5h3.5v5h4v-5H17C17,13.5,14.5,9,11.5,9z"/>
	</g>
</g>
</svg>
