<?xml version="1.0" encoding="utf-8"?>
<!-- Generator: Adobe Illustrator 19.2.0, SVG Export Plug-In . SVG Version: 6.00 Build 0)  -->
<svg version="1.1" id="Layer_1" xmlns="http://www.w3.org/2000/svg" xmlns:xlink="http://www.w3.org/1999/xlink" x="0px" y="0px"
	 viewBox="0 0 24 24" style="enable-background:new 0 0 24 24;" xml:space="preserve">
<style type="text/css">
	.st0{display:none;}
	.st1{display:inline;}
	.st2{fill:none;stroke:#000000;stroke-linejoin:round;stroke-miterlimit:10;}
</style>
<g id="Filled_Icons" class="st0">
	<g class="st1">
		<path d="M2.6,19.2l-2,2c-0.3,0.3-0.4,0.7-0.4,1.1c0,0.4,0.2,0.8,0.4,1.1c0.3,0.3,0.7,0.4,1.1,0.4c0.4,0,0.8-0.2,1.1-0.4l2-2
			L2.6,19.2z"/>
		<path d="M23.9,0.2c-0.2-0.2-0.5-0.2-0.7,0L7.8,13.5c0.6,0.3,1.1,0.7,1.6,1.1c0.5,0.5,0.8,1,1.1,1.6L23.9,0.8
			C24,0.6,24,0.3,23.9,0.2z"/>
		<path d="M8.7,15.4c-0.9-0.9-2.1-1.4-3.4-1.4c-1.4,0-2.9,0.6-4,1.8c-0.1,0.1-0.1,0.2-0.1,0.4c0,0.1,0.1,0.3,0.1,0.4l6.4,6.4
			c0.1,0.1,0.2,0.1,0.4,0.1c0.1,0,0.3,0,0.4-0.1c1.1-1.1,1.7-2.5,1.8-3.8C10.1,17.6,9.6,16.3,8.7,15.4z"/>
	</g>
</g>
<g id="Outline_Icons">
	<g>
		<path class="st2" d="M1.6,16.1c2.1-2.1,5-2.1,6.7-0.4c1.8,1.8,1.8,4.6-0.4,6.7L1.6,16.1z"/>
		<path class="st2" d="M4.1,18.5l1.4,1.4l-2.8,2.8c-0.4,0.4-1,0.4-1.4,0c-0.4-0.4-0.4-1,0-1.4L4.1,18.5z"/>
		<polyline class="st2" points="7.1,14.8 23.5,0.5 9.2,16.9 		"/>
	</g>
</g>
</svg>
