<?xml version="1.0" encoding="utf-8"?>
<!-- Generator: Adobe Illustrator 19.2.0, SVG Export Plug-In . SVG Version: 6.00 Build 0)  -->
<svg version="1.1" id="Layer_1" xmlns="http://www.w3.org/2000/svg" xmlns:xlink="http://www.w3.org/1999/xlink" x="0px" y="0px"
	 viewBox="0 0 24 24" enable-background="new 0 0 24 24" xml:space="preserve">
<g id="Filled_Icons" display="none">
	<g display="inline">
		<path d="M13.164,14.272C12.798,14.4,12.41,14.484,12,14.484c-0.41,0-0.798-0.084-1.164-0.215l-4.287,9.021
			c-0.074,0.154-0.063,0.337,0.028,0.482C6.669,23.918,6.828,24.006,7,24.006h10c0.172,0,0.331-0.088,0.423-0.233
			c0.093-0.146,0.102-0.326,0.028-0.481L13.164,14.272z"/>
		<path d="M14.5,10.984c0-1.378-1.121-2.5-2.5-2.5c-1.379,0-2.5,1.122-2.5,2.5c0,1.379,1.121,2.5,2.5,2.5
			C13.379,13.484,14.5,12.363,14.5,10.984z"/>
		<path d="M23,9.506v-3c0-1.378-1.121-2.5-2.5-2.5h-1c-0.505,0-0.975,0.153-1.367,0.412c-0.941-0.889-2.011-1.557-3.138-1.959
			c-0.024-1.356-1.132-2.453-2.495-2.453h-1c-1.379,0-2.5,1.122-2.5,2.5v0.008c-1.159,0.41-2.226,1.062-3.13,1.905
			C5.476,4.159,5.006,4.006,4.5,4.006h-1c-1.379,0-2.5,1.122-2.5,2.5v3c0,0.276,0.224,0.5,0.5,0.5h1.56
			C3.024,10.332,3,10.658,3,10.984c0,0.357,0.028,0.713,0.07,1.065C1.896,12.256,1,13.275,1,14.506v3c0,0.275,0.224,0.5,0.5,0.5
			h4.841c0.444,0.36,0.914,0.691,1.419,0.963l0.473-0.883C7.794,17.852,7.387,17.565,7,17.255v-2.749c0-1.378-1.121-2.5-2.5-2.5
			H4.072C4.029,11.669,4,11.328,4,10.984c0-0.326,0.027-0.652,0.067-0.979H6.5c0.276,0,0.5-0.224,0.5-0.5v-3
			C7,5.994,6.845,5.52,6.58,5.123C7.29,4.466,8.109,3.943,9,3.582v1.924c0,0.276,0.224,0.5,0.5,0.5h5c0.275,0,0.5-0.224,0.5-0.5
			V3.529c0.863,0.359,1.684,0.899,2.422,1.591C17.156,5.518,17,5.993,17,6.506v3c0,0.276,0.225,0.5,0.5,0.5h2.435
			C19.975,10.329,20,10.656,20,10.984c0,0.387-0.023,0.711-0.063,1.021H19.5c-1.379,0-2.5,1.122-2.5,2.5v2.755
			c-0.346,0.277-0.71,0.534-1.1,0.754l0.49,0.871c0.452-0.255,0.877-0.555,1.276-0.88H22.5c0.275,0,0.5-0.224,0.5-0.5v-3
			c0-1.228-0.893-2.246-2.061-2.455C20.977,11.723,21,11.382,21,10.984c0-0.328-0.023-0.654-0.059-0.979H22.5
			C22.775,10.006,23,9.782,23,9.506z"/>
	</g>
</g>
<g id="Outline_Icons">
	<g>
		<circle fill="none" stroke="#000000" stroke-linejoin="round" stroke-miterlimit="10" cx="12" cy="10.979" r="2"/>
		<path fill="none" stroke="#000000" stroke-linejoin="round" stroke-miterlimit="10" d="M14.5,2.5c0-1.104-0.897-2-2-2h-1
			c-1.104,0-2,0.896-2,2v3h5V2.5z"/>
		<path fill="none" stroke="#000000" stroke-linejoin="round" stroke-miterlimit="10" d="M22.5,6.5c0-1.104-0.897-2-2-2h-1
			c-1.104,0-2,0.896-2,2v3h5V6.5z"/>
		<path fill="none" stroke="#000000" stroke-linejoin="round" stroke-miterlimit="10" d="M6.5,6.5c0-1.104-0.896-2-2-2h-1
			c-1.104,0-2,0.896-2,2v3h5V6.5z"/>
		<path fill="none" stroke="#000000" stroke-linejoin="round" stroke-miterlimit="10" d="M22.5,14.5c0-1.103-0.897-2-2-2h-1
			c-1.104,0-2,0.897-2,2v3h5V14.5z"/>
		<path fill="none" stroke="#000000" stroke-linejoin="round" stroke-miterlimit="10" d="M6.5,14.5c0-1.103-0.896-2-2-2h-1
			c-1.104,0-2,0.897-2,2v3h5V14.5z"/>
		<polyline fill="none" stroke="#000000" stroke-linecap="round" stroke-linejoin="round" stroke-miterlimit="10" points="
			12,12.979 7,23.5 17,23.5 12,12.979 		"/>
		<path fill="none" stroke="#000000" stroke-linecap="round" stroke-linejoin="round" stroke-miterlimit="10" d="M18.105,5.065
			c-0.988-1.021-2.211-1.843-3.605-2.268"/>
		<path fill="none" stroke="#000000" stroke-linecap="round" stroke-linejoin="round" stroke-miterlimit="10" d="M20.376,12.5
			c0.095-0.506,0.124-0.988,0.124-1.521c0-0.497-0.042-0.983-0.124-1.457"/>
		<path fill="none" stroke="#000000" stroke-linecap="round" stroke-linejoin="round" stroke-miterlimit="10" d="M3.63,9.493
			c-0.085,0.484-0.13,0.98-0.13,1.486c0,0.519,0.046,1.025,0.135,1.519"/>
		<path fill="none" stroke="#000000" stroke-linecap="round" stroke-linejoin="round" stroke-miterlimit="10" d="M9.473,2.861
			C8.099,3.288,6.875,4.055,5.897,5.063"/>
		<path fill="none" stroke="#000000" stroke-linejoin="round" stroke-miterlimit="10" d="M7.996,18.522
			c-0.597-0.319-1.15-0.707-1.65-1.153"/>
		<path fill="none" stroke="#000000" stroke-linejoin="round" stroke-miterlimit="10" d="M17.533,17.473
			c-0.428,0.367-0.893,0.692-1.387,0.971"/>
	</g>
</g>
</svg>
