<?xml version="1.0" encoding="utf-8"?>
<!-- Generator: Adobe Illustrator 19.2.0, SVG Export Plug-In . SVG Version: 6.00 Build 0)  -->
<svg version="1.1" id="Layer_1" xmlns="http://www.w3.org/2000/svg" xmlns:xlink="http://www.w3.org/1999/xlink" x="0px" y="0px"
	 viewBox="0 0 24 24" style="enable-background:new 0 0 24 24;" xml:space="preserve">
<style type="text/css">
	.st0{display:none;}
	.st1{display:inline;}
	.st2{fill:none;stroke:#000000;stroke-linecap:round;stroke-linejoin:round;stroke-miterlimit:10;}
</style>
<g id="Filled_Icons" class="st0">
	<g class="st1">
		<g>
			<path d="M19.5,9h-1.4c-0.3,0-0.5-0.2-0.5-0.5c0-0.3,0.2-0.5,0.5-0.5h1.4C19.8,8,20,8.2,20,8.5C20,8.8,19.8,9,19.5,9z"/>
		</g>
		<g>
			<path d="M16.4,4.1c-0.1,0-0.3,0-0.4-0.1c-0.2-0.2-0.2-0.5,0-0.7l1-1c0.2-0.2,0.5-0.2,0.7,0c0.2,0.2,0.2,0.5,0,0.7l-1,1
				C16.6,4.1,16.5,4.1,16.4,4.1z"/>
		</g>
		<g>
			<path d="M11.5,2.4c-0.3,0-0.5-0.2-0.5-0.5V0.5C11,0.2,11.2,0,11.5,0C11.8,0,12,0.2,12,0.5v1.4C12,2.2,11.8,2.4,11.5,2.4z"/>
		</g>
		<g>
			<path d="M6.6,4.1c-0.1,0-0.3,0-0.4-0.1l-1-1C5,2.8,5,2.4,5.2,2.2C5.4,2,5.7,2,5.9,2.2l1,1C7.2,3.5,7.2,3.8,7,4
				C6.9,4.1,6.8,4.1,6.6,4.1z"/>
		</g>
		<g>
			<path d="M4.9,9H3.5C3.2,9,3,8.8,3,8.5C3,8.2,3.2,8,3.5,8h1.4c0.3,0,0.5,0.2,0.5,0.5C5.4,8.8,5.2,9,4.9,9z"/>
		</g>
		<g>
			<path d="M11.6,11.4c1.5,0,3,0.1,4.4,0.3c0.7-0.9,1-2,1-3.2c0-3-2.5-5.5-5.5-5.5C8.5,3,6,5.5,6,8.5c0,1.2,0.4,2.3,1,3.2
				C8.5,11.5,10,11.4,11.6,11.4z"/>
		</g>
		<g>
			<path d="M12.7,12.4c-0.2,0-0.4,0-0.7,0V24h4.3L12.7,12.4z"/>
			<path d="M6.7,24H11V12.4c-0.2,0-0.4,0-0.6,0L6.7,24z"/>
			<path d="M23,22.3v-6.8c0-0.2-0.1-0.3-0.2-0.4c-1.9-1.2-4.6-2.1-7.7-2.5L23,22.3z"/>
			<path d="M9.2,12.7l-9,11.1C0.2,24,0.4,24,0.5,24h5.2L9.2,12.7z"/>
			<path d="M8,12.6C5,13,2.2,13.8,0.2,15.1C0.1,15.2,0,15.3,0,15.5v7L8,12.6z"/>
			<path d="M13.7,12.5L17.3,24h5.2c0.2,0,0.3-0.1,0.4-0.2L13.7,12.5z"/>
		</g>
	</g>
</g>
<g id="Outline_Icons">
	<g>
		<line class="st2" x1="18.1" y1="8.5" x2="19.5" y2="8.5"/>
		<line class="st2" x1="16.4" y1="3.6" x2="17.4" y2="2.6"/>
		<line class="st2" x1="11.5" y1="1.9" x2="11.5" y2="0.5"/>
		<line class="st2" x1="6.6" y1="3.6" x2="5.6" y2="2.6"/>
		<line class="st2" x1="4.9" y1="8.5" x2="3.5" y2="8.5"/>
		<path class="st2" d="M0.5,15.5v8h22v-8C17,12,6,12,0.5,15.5z"/>
		<line class="st2" x1="16.6" y1="23.5" x2="13.4" y2="12.9"/>
		<line class="st2" x1="22.5" y1="22.5" x2="14.8" y2="13.1"/>
		<line class="st2" x1="6.4" y1="23.5" x2="9.6" y2="12.9"/>
		<line class="st2" x1="0.6" y1="22.5" x2="8.3" y2="13.1"/>
		<line class="st2" x1="11.5" y1="23.5" x2="11.5" y2="12.9"/>
		<path class="st2" d="M9.2,13c-1.6-0.8-2.7-2.5-2.7-4.5c0-2.8,2.2-5,5-5c2.8,0,5,2.2,5,5c0,1.9-1.1,3.6-2.7,4.4"/>
	</g>
</g>
</svg>
