<?xml version="1.0" encoding="utf-8"?>
<!-- Generator: Adobe Illustrator 19.2.0, SVG Export Plug-In . SVG Version: 6.00 Build 0)  -->
<svg version="1.1" id="Layer_1" xmlns="http://www.w3.org/2000/svg" xmlns:xlink="http://www.w3.org/1999/xlink" x="0px" y="0px"
	 viewBox="0 0 24 24" enable-background="new 0 0 24 24" xml:space="preserve">
<g id="Filled_Icons" display="none">
	<path display="inline" d="M21.853,6.146l-6-6C15.76,0.053,15.633,0,15.5,0h-13C2.225,0,2,0.224,2,0.5v23C2,23.775,2.225,24,2.5,24
		h19c0.275,0,0.5-0.225,0.5-0.5v-17C22,6.367,21.947,6.24,21.853,6.146z M8.5,21h-2C6.224,21,6,20.775,6,20.5
		C6,20.225,6.224,20,6.5,20h2C8.776,20,9,20.225,9,20.5C9,20.775,8.776,21,8.5,21z M8.5,19h-2C6.224,19,6,18.775,6,18.5
		C6,18.225,6.224,18,6.5,18h2C8.776,18,9,18.225,9,18.5C9,18.775,8.776,19,8.5,19z M8.5,17h-2C6.224,17,6,16.775,6,16.5
		C6,16.225,6.224,16,6.5,16h2C8.776,16,9,16.225,9,16.5C9,16.775,8.776,17,8.5,17z M8.5,15h-2C6.224,15,6,14.775,6,14.5
		C6,14.225,6.224,14,6.5,14h2C8.776,14,9,14.225,9,14.5C9,14.775,8.776,15,8.5,15z M8.5,13h-2C6.224,13,6,12.775,6,12.5
		C6,12.224,6.224,12,6.5,12h2C8.776,12,9,12.224,9,12.5C9,12.775,8.776,13,8.5,13z M8.5,11h-2C6.224,11,6,10.776,6,10.5
		C6,10.224,6.224,10,6.5,10h2C8.776,10,9,10.224,9,10.5C9,10.776,8.776,11,8.5,11z M8.5,9h-2C6.224,9,6,8.776,6,8.5
		C6,8.224,6.224,8,6.5,8h2C8.776,8,9,8.224,9,8.5C9,8.776,8.776,9,8.5,9z M13.5,21h-3c-0.276,0-0.5-0.225-0.5-0.5
		c0-0.275,0.224-0.5,0.5-0.5h3c0.275,0,0.5,0.225,0.5,0.5C14,20.775,13.775,21,13.5,21z M13.5,19h-3c-0.276,0-0.5-0.225-0.5-0.5
		c0-0.275,0.224-0.5,0.5-0.5h3c0.275,0,0.5,0.225,0.5,0.5C14,18.775,13.775,19,13.5,19z M13.5,17h-3c-0.276,0-0.5-0.225-0.5-0.5
		c0-0.275,0.224-0.5,0.5-0.5h3c0.275,0,0.5,0.225,0.5,0.5C14,16.775,13.775,17,13.5,17z M17.5,21h-2c-0.275,0-0.5-0.225-0.5-0.5
		c0-0.275,0.225-0.5,0.5-0.5h2c0.275,0,0.5,0.225,0.5,0.5C18,20.775,17.775,21,17.5,21z M17.5,19h-2c-0.275,0-0.5-0.225-0.5-0.5
		c0-0.275,0.225-0.5,0.5-0.5h2c0.275,0,0.5,0.225,0.5,0.5C18,18.775,17.775,19,17.5,19z M17.5,17h-2c-0.275,0-0.5-0.225-0.5-0.5
		c0-0.275,0.225-0.5,0.5-0.5h2c0.275,0,0.5,0.225,0.5,0.5C18,16.775,17.775,17,17.5,17z M17.5,15h-2c-0.275,0-0.5-0.225-0.5-0.5
		c0-0.275,0.225-0.5,0.5-0.5h2c0.275,0,0.5,0.225,0.5,0.5C18,14.775,17.775,15,17.5,15z M17.5,13h-2c-0.275,0-0.5-0.225-0.5-0.5
		c0-0.276,0.225-0.5,0.5-0.5h2c0.275,0,0.5,0.224,0.5,0.5C18,12.775,17.775,13,17.5,13z M15.5,6.5v-6l6,6H15.5z"/>
</g>
<g id="Outline_Icons">
	<g>
		
			<line fill="none" stroke="#000000" stroke-linecap="round" stroke-linejoin="round" stroke-miterlimit="10" x1="6.5" y1="20.5" x2="8.5" y2="20.5"/>
		
			<line fill="none" stroke="#000000" stroke-linecap="round" stroke-linejoin="round" stroke-miterlimit="10" x1="6.5" y1="18.5" x2="8.5" y2="18.5"/>
		
			<line fill="none" stroke="#000000" stroke-linecap="round" stroke-linejoin="round" stroke-miterlimit="10" x1="6.5" y1="16.5" x2="8.5" y2="16.5"/>
		
			<line fill="none" stroke="#000000" stroke-linecap="round" stroke-linejoin="round" stroke-miterlimit="10" x1="6.5" y1="14.5" x2="8.5" y2="14.5"/>
		
			<line fill="none" stroke="#000000" stroke-linecap="round" stroke-linejoin="round" stroke-miterlimit="10" x1="6.5" y1="12.5" x2="8.5" y2="12.5"/>
		
			<line fill="none" stroke="#000000" stroke-linecap="round" stroke-linejoin="round" stroke-miterlimit="10" x1="6.5" y1="10.5" x2="8.5" y2="10.5"/>
		
			<line fill="none" stroke="#000000" stroke-linecap="round" stroke-linejoin="round" stroke-miterlimit="10" x1="6.5" y1="8.5" x2="8.5" y2="8.5"/>
		
			<line fill="none" stroke="#000000" stroke-linecap="round" stroke-linejoin="round" stroke-miterlimit="10" x1="10.5" y1="20.5" x2="13.5" y2="20.5"/>
		
			<line fill="none" stroke="#000000" stroke-linecap="round" stroke-linejoin="round" stroke-miterlimit="10" x1="10.5" y1="18.5" x2="13.5" y2="18.5"/>
		
			<line fill="none" stroke="#000000" stroke-linecap="round" stroke-linejoin="round" stroke-miterlimit="10" x1="10.5" y1="16.5" x2="13.5" y2="16.5"/>
		
			<line fill="none" stroke="#000000" stroke-linecap="round" stroke-linejoin="round" stroke-miterlimit="10" x1="15.5" y1="20.5" x2="17.5" y2="20.5"/>
		
			<line fill="none" stroke="#000000" stroke-linecap="round" stroke-linejoin="round" stroke-miterlimit="10" x1="15.5" y1="18.5" x2="17.5" y2="18.5"/>
		
			<line fill="none" stroke="#000000" stroke-linecap="round" stroke-linejoin="round" stroke-miterlimit="10" x1="15.5" y1="16.5" x2="17.5" y2="16.5"/>
		
			<line fill="none" stroke="#000000" stroke-linecap="round" stroke-linejoin="round" stroke-miterlimit="10" x1="15.5" y1="14.5" x2="17.5" y2="14.5"/>
		
			<line fill="none" stroke="#000000" stroke-linecap="round" stroke-linejoin="round" stroke-miterlimit="10" x1="15.5" y1="12.5" x2="17.5" y2="12.5"/>
		<g>
			<polygon fill="none" stroke="#000000" stroke-linecap="round" stroke-linejoin="round" stroke-miterlimit="10" points="
				21.5,23.5 2.5,23.5 2.5,0.5 15.5,0.5 21.5,6.5 			"/>
			<polyline fill="none" stroke="#000000" stroke-linecap="round" stroke-linejoin="round" stroke-miterlimit="10" points="
				15.5,0.5 15.5,6.5 21.5,6.5 			"/>
		</g>
	</g>
</g>
</svg>
