<?xml version="1.0" encoding="utf-8"?>
<!-- Generator: Adobe Illustrator 19.2.0, SVG Export Plug-In . SVG Version: 6.00 Build 0)  -->
<svg version="1.1" id="Layer_1" xmlns="http://www.w3.org/2000/svg" xmlns:xlink="http://www.w3.org/1999/xlink" x="0px" y="0px"
	 viewBox="0 0 24 24" enable-background="new 0 0 24 24" xml:space="preserve">
<g id="Filled_Icons" display="none">
	<path display="inline" d="M21.853,6.146l-6-6C15.76,0.053,15.632,0,15.5,0h-13C2.224,0,2,0.224,2,0.5v23C2,23.775,2.224,24,2.5,24
		h19c0.275,0,0.5-0.225,0.5-0.5v-17C22,6.367,21.947,6.24,21.853,6.146z M9.188,18.471c0.119,0.25,0.014,0.549-0.235,0.668
		c-0.07,0.032-0.143,0.049-0.215,0.049c-0.187,0-0.366-0.105-0.452-0.285l-0.79-1.649l-0.79,1.649
		c-0.086,0.181-0.265,0.285-0.452,0.285c-0.072,0-0.146-0.017-0.215-0.049c-0.249-0.119-0.354-0.418-0.235-0.668l1.138-2.377
		l-1.138-2.379c-0.119-0.249-0.014-0.548,0.235-0.666c0.25-0.121,0.547-0.016,0.667,0.234l0.79,1.65l0.79-1.65
		c0.119-0.248,0.417-0.356,0.667-0.234c0.249,0.118,0.354,0.417,0.235,0.666L8.05,16.094L9.188,18.471z M13.997,19.188h-2.48
		c-0.276,0-0.5-0.225-0.5-0.5v-5.189c0-0.276,0.224-0.5,0.5-0.5c0.276,0,0.5,0.224,0.5,0.5v4.689h1.98c0.276,0,0.5,0.224,0.5,0.5
		C14.497,18.963,14.273,19.188,13.997,19.188z M17.171,19.301c-0.918,0-1.683-0.752-1.739-1.713
		c-0.017-0.275,0.194-0.512,0.469-0.527c0.289-0.008,0.513,0.193,0.529,0.469c0.026,0.434,0.352,0.771,0.741,0.771
		c0.408,0,0.74-0.371,0.74-0.826c0-0.513-0.322-0.701-0.806-0.824c-0.002-0.002-0.121-0.032-0.121-0.032
		c-1.284-0.339-1.555-1.162-1.555-1.793c0-1.007,0.782-1.825,1.742-1.825c0.917,0,1.682,0.751,1.737,1.71
		c0.017,0.276-0.194,0.515-0.47,0.528c-0.289,0.018-0.512-0.192-0.528-0.469c-0.026-0.432-0.351-0.771-0.739-0.771
		c-0.408,0-0.742,0.37-0.742,0.825c0,0.509,0.323,0.697,0.809,0.826l-0.01,0.514l0.125-0.483c1.287,0.33,1.558,1.157,1.558,1.793
		C18.911,18.481,18.13,19.301,17.171,19.301z M15.5,6.5v-6l6,6H15.5z"/>
</g>
<g id="Outline_Icons">
	<g>
		<g>
			<polygon fill="none" stroke="#000000" stroke-linecap="round" stroke-linejoin="round" stroke-miterlimit="10" points="
				21.5,23.5 2.5,23.5 2.5,0.5 15.5,0.5 21.5,6.5 			"/>
			<polyline fill="none" stroke="#000000" stroke-linecap="round" stroke-linejoin="round" stroke-miterlimit="10" points="
				15.5,0.5 15.5,6.5 21.5,6.5 			"/>
		</g>
		<g>
			<polyline fill="none" stroke="#000000" stroke-linecap="round" stroke-linejoin="round" stroke-miterlimit="10" points="
				13.997,18.688 11.517,18.688 11.517,13.499 			"/>
			<g>
				
					<line fill="none" stroke="#000000" stroke-linecap="round" stroke-linejoin="round" stroke-miterlimit="10" x1="6.255" y1="13.499" x2="8.737" y2="18.688"/>
				
					<line fill="none" stroke="#000000" stroke-linecap="round" stroke-linejoin="round" stroke-miterlimit="10" x1="8.737" y1="13.499" x2="6.255" y2="18.688"/>
			</g>
			<path fill="none" stroke="#000000" stroke-linecap="round" stroke-linejoin="round" stroke-miterlimit="10" d="M15.932,17.559
				c0.041,0.692,0.58,1.242,1.239,1.242c0.687,0,1.24-0.595,1.24-1.326c0-1.08-1.021-1.263-1.238-1.324
				c-0.217-0.063-1.241-0.246-1.241-1.325c0-0.732,0.557-1.325,1.241-1.325c0.658,0,1.197,0.548,1.238,1.24"/>
		</g>
	</g>
</g>
</svg>
