<?xml version="1.0" encoding="utf-8"?>
<!-- Generator: Adobe Illustrator 19.2.0, SVG Export Plug-In . SVG Version: 6.00 Build 0)  -->
<svg version="1.1" id="Outline_Icons" xmlns="http://www.w3.org/2000/svg" xmlns:xlink="http://www.w3.org/1999/xlink" x="0px"
	 y="0px" viewBox="0 0 24 24" enable-background="new 0 0 24 24" xml:space="preserve">
<g>
	<g>
		<polyline fill="none" stroke="#000000" stroke-linecap="round" stroke-linejoin="round" stroke-miterlimit="10" points="
			15.5,18.501 15.5,13.5 18.062,13.5 		"/>
		
			<line fill="none" stroke="#000000" stroke-linecap="round" stroke-linejoin="round" stroke-miterlimit="10" x1="15.807" y1="15.5" x2="17.447" y2="15.5"/>
	</g>
	<path fill="none" stroke="#000000" stroke-linecap="round" stroke-linejoin="round" stroke-miterlimit="10" d="M8.872,15.964
		c0,1.462-0.124,2.649-1.372,2.649s-1.56-1.187-1.56-2.649c0-1.464,0.218-2.464,1.466-2.464C8.654,13.5,8.872,14.5,8.872,15.964z"/>
	<g>
		
			<line fill="none" stroke="#000000" stroke-linecap="round" stroke-linejoin="round" stroke-miterlimit="10" x1="11.5" y1="18.501" x2="11.5" y2="13.5"/>
		
			<line fill="none" stroke="#000000" stroke-linecap="round" stroke-linejoin="round" stroke-miterlimit="10" x1="10" y1="13.5" x2="13.41" y2="13.5"/>
	</g>
	<g>
		<g>
			<g>
				<polygon fill="none" stroke="#000000" stroke-linecap="round" stroke-linejoin="round" stroke-miterlimit="10" points="
					21.5,23.5 2.5,23.5 2.5,0.5 15.5,0.5 21.5,6.5 				"/>
				<polyline fill="none" stroke="#000000" stroke-linecap="round" stroke-linejoin="round" stroke-miterlimit="10" points="
					15.5,0.5 15.5,6.5 21.5,6.5 				"/>
			</g>
		</g>
	</g>
</g>
</svg>
