<?xml version="1.0" encoding="utf-8"?>
<!-- Generator: Adobe Illustrator 19.2.0, SVG Export Plug-In . SVG Version: 6.00 Build 0)  -->
<svg version="1.1" id="Layer_1" xmlns="http://www.w3.org/2000/svg" xmlns:xlink="http://www.w3.org/1999/xlink" x="0px" y="0px"
	 viewBox="0 0 24 24" enable-background="new 0 0 24 24" xml:space="preserve">
<g id="Filled_Icons" display="none">
	<g display="inline">
		<path d="M23.842,23.147l-3.185-3.187c0.58-0.733,0.941-1.647,0.941-2.655c0-2.373-1.931-4.306-4.305-4.306
			c-2.374,0-4.307,1.933-4.307,4.306c0,2.375,1.933,4.307,4.307,4.307c1.007,0,1.921-0.362,2.654-0.943l3.187,3.186
			C23.232,23.951,23.359,24,23.488,24c0.128,0,0.256-0.049,0.354-0.146C24.037,23.658,24.037,23.342,23.842,23.147z M13.988,17.305
			c0-1.822,1.482-3.305,3.306-3.305c1.823,0,3.306,1.482,3.306,3.305c0,1.823-1.482,3.307-3.306,3.307
			C15.471,20.611,13.988,19.127,13.988,17.305z"/>
		<g>
			<rect x="6" y="8" width="1" height="8"/>
			<rect x="4" y="13" width="1" height="3"/>
			<rect x="8" y="11" width="1" height="5"/>
			<path d="M12,17.307c0-2.822,2.219-5.113,5-5.275V5.5c0-0.133-0.053-0.26-0.147-0.354l-4.999-5C11.76,0.053,11.633,0,11.5,0h-11
				C0.225,0,0,0.224,0,0.5v21C0,21.775,0.225,22,0.5,22h14.389C13.182,21.117,12,19.356,12,17.307z M10,16.5
				c0,0.275-0.224,0.5-0.5,0.5h-7C2.224,17,2,16.775,2,16.5C2,16.225,2.224,16,2.5,16H3v-3.5C3,12.224,3.224,12,3.5,12H5V7.5
				C5,7.224,5.224,7,5.5,7h2C7.776,7,8,7.224,8,7.5V10h1.5c0.276,0,0.5,0.224,0.5,0.5V16.5z M11.5,0.5l5,5h-5V0.5z"/>
		</g>
	</g>
</g>
<g id="Outline_Icons">
	<g>
		<g>
			<polyline fill="none" stroke="#000000" stroke-linejoin="round" stroke-miterlimit="10" points="11,21.5 0.5,21.5 0.5,0.5 
				11.5,0.5 16.5,5.5 16.5,10 			"/>
			<polyline fill="none" stroke="#000000" stroke-linecap="round" stroke-linejoin="round" stroke-miterlimit="10" points="
				11.5,0.5 11.5,5.5 16.5,5.5 			"/>
		</g>
		<g>
			
				<rect x="3.5" y="12.5" fill="none" stroke="#000000" stroke-linecap="round" stroke-linejoin="round" stroke-miterlimit="10" width="2" height="4"/>
			
				<rect x="7.5" y="10.5" fill="none" stroke="#000000" stroke-linecap="round" stroke-linejoin="round" stroke-miterlimit="10" width="2" height="6"/>
			
				<rect x="5.5" y="7.5" fill="none" stroke="#000000" stroke-linecap="round" stroke-linejoin="round" stroke-miterlimit="10" width="2" height="9"/>
			
				<line fill="none" stroke="#000000" stroke-linecap="round" stroke-linejoin="round" stroke-miterlimit="10" x1="2.5" y1="16.5" x2="9.5" y2="16.5"/>
		</g>
		<g>
			<circle fill="none" stroke="#000000" stroke-linejoin="round" stroke-miterlimit="10" cx="17.305" cy="17.306" r="3.805"/>
			
				<line fill="none" stroke="#000000" stroke-linecap="round" stroke-linejoin="round" stroke-miterlimit="10" x1="20" y1="20" x2="23.5" y2="23.5"/>
		</g>
	</g>
</g>
</svg>
