<?xml version="1.0" encoding="utf-8"?>
<!-- Generator: Adobe Illustrator 19.2.0, SVG Export Plug-In . SVG Version: 6.00 Build 0)  -->
<svg version="1.1" id="Layer_1" xmlns="http://www.w3.org/2000/svg" xmlns:xlink="http://www.w3.org/1999/xlink" x="0px" y="0px"
	 viewBox="0 0 24 24" enable-background="new 0 0 24 24" xml:space="preserve">
<g id="Filled_Icons" display="none">
	<g display="inline">
		<path d="M21.484,19c-0.892,0-1.668,0.471-2.11,1.172l-3.429-1.285c0.019-0.125,0.039-0.254,0.039-0.387
			c0-0.225-0.039-0.437-0.096-0.644l3.639-1.818C19.986,16.619,20.687,17,21.484,17c1.379,0,2.5-1.122,2.5-2.5
			c0-1.379-1.121-2.5-2.5-2.5c-1.379,0-2.5,1.121-2.5,2.5c0,0.225,0.039,0.438,0.095,0.645l-3.638,1.818
			C14.982,16.381,14.279,16,13.484,16c-1.379,0-2.5,1.121-2.5,2.5c0,1.378,1.121,2.5,2.5,2.5c0.891,0,1.668-0.473,2.111-1.176
			l3.428,1.285c-0.021,0.127-0.039,0.256-0.039,0.391c0,1.378,1.121,2.5,2.5,2.5c1.379,0,2.5-1.122,2.5-2.5
			C23.984,20.121,22.863,19,21.484,19z M21.484,13c0.826,0,1.5,0.672,1.5,1.5c0,0.827-0.674,1.5-1.5,1.5c-0.827,0-1.5-0.673-1.5-1.5
			C19.984,13.672,20.657,13,21.484,13z M13.484,20c-0.827,0-1.5-0.673-1.5-1.5c0-0.828,0.673-1.5,1.5-1.5c0.826,0,1.5,0.672,1.5,1.5
			C14.984,19.327,14.312,20,13.484,20z M21.484,23c-0.827,0-1.5-0.673-1.5-1.5c0-0.828,0.673-1.5,1.5-1.5c0.826,0,1.5,0.672,1.5,1.5
			C22.984,22.327,22.312,23,21.484,23z"/>
		<g>
			<path d="M10,18.5c0-0.171,0.026-0.336,0.051-0.5H3.5C3.224,18,3,17.775,3,17.5v-10C3,7.224,3.224,7,3.5,7C3.776,7,4,7.224,4,7.5
				v4.793l1.896-1.896c0.195-0.195,0.512-0.195,0.707,0l1.646,1.646l2.896-2.896c0.195-0.195,0.512-0.195,0.707,0
				c0.195,0.195,0.195,0.512,0,0.707l-3.25,3.25c-0.195,0.195-0.512,0.195-0.707,0L6.25,11.457L4,13.707V17h6.352
				c0.563-1.178,1.758-2,3.148-2c0.81,0,1.547,0.288,2.141,0.752L17,15.072V5.5c0-0.133-0.053-0.26-0.147-0.354l-4.999-5
				C11.76,0.053,11.633,0,11.5,0h-11C0.225,0,0,0.224,0,0.5v21C0,21.775,0.225,22,0.5,22h13C11.57,22,10,20.43,10,18.5z M11.5,0.5
				l5,5h-5V0.5z"/>
		</g>
	</g>
</g>
<g id="Outline_Icons">
	<g>
		<g>
			<g>
				
					<circle fill="none" stroke="#000000" stroke-linecap="round" stroke-linejoin="round" stroke-miterlimit="10" cx="21.488" cy="14.5" r="2"/>
				
					<circle fill="none" stroke="#000000" stroke-linecap="round" stroke-linejoin="round" stroke-miterlimit="10" cx="21.488" cy="21.5" r="2"/>
				
					<circle fill="none" stroke="#000000" stroke-linecap="round" stroke-linejoin="round" stroke-miterlimit="10" cx="13.488" cy="18.5" r="2"/>
				
					<line fill="none" stroke="#000000" stroke-linecap="round" stroke-linejoin="round" stroke-miterlimit="10" x1="15.275" y1="17.606" x2="19.701" y2="15.395"/>
				
					<line fill="none" stroke="#000000" stroke-linecap="round" stroke-linejoin="round" stroke-miterlimit="10" x1="15.363" y1="19.203" x2="19.617" y2="20.799"/>
			</g>
		</g>
		<g>
			<polyline fill="none" stroke="#000000" stroke-linejoin="round" stroke-miterlimit="10" points="11,21.5 0.5,21.5 0.5,0.5 
				11.5,0.5 16.5,5.5 16.5,14 			"/>
			<polyline fill="none" stroke="#000000" stroke-linecap="round" stroke-linejoin="round" stroke-miterlimit="10" points="
				11.5,0.5 11.5,5.5 16.5,5.5 			"/>
		</g>
		<g>
			<polyline fill="none" stroke="#000000" stroke-linecap="round" stroke-linejoin="round" stroke-miterlimit="10" points="
				3.484,7.5 3.484,17.5 9.484,17.5 			"/>
			<polyline fill="none" stroke="#000000" stroke-linecap="round" stroke-linejoin="round" stroke-miterlimit="10" points="
				3.484,13.5 6.234,10.75 8.234,12.75 11.484,9.5 			"/>
		</g>
	</g>
</g>
</svg>
