<?xml version="1.0" encoding="utf-8"?>
<!-- Generator: Adobe Illustrator 19.2.0, SVG Export Plug-In . SVG Version: 6.00 Build 0)  -->
<svg version="1.1" id="Outline_Icons" xmlns="http://www.w3.org/2000/svg" xmlns:xlink="http://www.w3.org/1999/xlink" x="0px"
	 y="0px" viewBox="0 0 24 24" enable-background="new 0 0 24 24" xml:space="preserve">
<g>
	<path fill="none" stroke="#000000" stroke-linecap="round" stroke-linejoin="round" stroke-miterlimit="10" d="M15.5,18.5v-5h0.828
		c1.152,0,1.77,1.161,1.77,2.594s-0.617,2.406-1.77,2.406H15.5z"/>
	<path fill="none" stroke="#000000" stroke-linecap="round" stroke-linejoin="round" stroke-miterlimit="10" d="M5.5,18.5v-5h1.632
		c1.056,0,1.239,0.582,1.239,1.297c0,0.717-0.184,1.297-1.239,1.703H5.891"/>
	<path fill="none" stroke="#000000" stroke-linecap="round" stroke-linejoin="round" stroke-miterlimit="10" d="M10.612,17.503
		c0.041,0.692,0.58,0.997,1.24,0.997c0.686,0,1.241-0.35,1.241-1.081c0-1.08-1.022-1.262-1.239-1.325
		c-0.217-0.062-1.242-0.245-1.242-1.325c0-0.733,0.557-1.326,1.242-1.326c0.659,0,1.198,0.548,1.239,1.24"/>
	<g>
		<g>
			<g>
				<polygon fill="none" stroke="#000000" stroke-linecap="round" stroke-linejoin="round" stroke-miterlimit="10" points="
					21.5,23.5 2.5,23.5 2.5,0.5 15.5,0.5 21.5,6.5 				"/>
				<polyline fill="none" stroke="#000000" stroke-linecap="round" stroke-linejoin="round" stroke-miterlimit="10" points="
					15.5,0.5 15.5,6.5 21.5,6.5 				"/>
			</g>
		</g>
	</g>
</g>
</svg>
