<?xml version="1.0" encoding="utf-8"?>
<!-- Generator: Adobe Illustrator 19.2.0, SVG Export Plug-In . SVG Version: 6.00 Build 0)  -->
<svg version="1.1" id="Layer_1" xmlns="http://www.w3.org/2000/svg" xmlns:xlink="http://www.w3.org/1999/xlink" x="0px" y="0px"
	 viewBox="0 0 24 24" enable-background="new 0 0 24 24" xml:space="preserve">
<g id="Filled_Icons" display="none">
	<g display="inline">
		<path d="M16.853,5.146l-4.999-5C11.76,0.053,11.632,0,11.5,0h-11C0.224,0,0,0.224,0,0.5v21C0,21.775,0.224,22,0.5,22h10.868
			l0.689-2.411c0.07-0.245,0.202-0.468,0.382-0.647L17,14.379V5.5C17,5.367,16.947,5.24,16.853,5.146z M6,7.5C6,7.224,6.224,7,6.5,7
			h3C9.776,7,10,7.224,10,7.5v3c0,0.276-0.224,0.5-0.5,0.5h-3C6.224,11,6,10.776,6,10.5V7.5z M7,15.5C7,15.775,6.776,16,6.5,16h-3
			C3.224,16,3,15.775,3,15.5v-3C3,12.224,3.224,12,3.5,12h3C6.776,12,7,12.224,7,12.5V15.5z M13,15.5c0,0.275-0.225,0.5-0.5,0.5h-3
			C9.224,16,9,15.775,9,15.5v-3C9,12.224,9.224,12,9.5,12h3c0.275,0,0.5,0.224,0.5,0.5V15.5z M11.5,5.5v-5l5,5H11.5z"/>
		<g>
			<path d="M12.937,20.143l-0.918,3.217c-0.05,0.175-0.001,0.361,0.127,0.49c0.095,0.096,0.223,0.146,0.354,0.146
				c0.046,0,0.092-0.008,0.137-0.02l3.217-0.92L12.937,20.143z"/>
			<rect x="14.109" y="16.227" transform="matrix(0.707 -0.7072 0.7072 0.707 -7.9526 17.7938)" width="6.78" height="4.535"/>
			<path d="M23.853,14.641l-2.5-2.5c-0.187-0.188-0.519-0.188-0.707,0L19,13.787l3.207,3.207l1.646-1.646
				C24.05,15.152,24.05,14.836,23.853,14.641z"/>
		</g>
	</g>
</g>
<g id="Outline_Icons">
	<g>
		<g>
			<polyline fill="none" stroke="#000000" stroke-linejoin="round" stroke-miterlimit="10" points="9,21.5 0.5,21.5 0.5,0.5 
				11.499,0.5 16.5,5.5 16.5,13 			"/>
			<polyline fill="none" stroke="#000000" stroke-linecap="round" stroke-linejoin="round" stroke-miterlimit="10" points="
				11.499,0.5 11.5,5.5 16.5,5.5 			"/>
			<polygon fill="none" stroke="#000000" stroke-linecap="round" stroke-linejoin="round" stroke-miterlimit="10" points="
				15.999,22.501 12.499,23.501 13.499,20.001 21,12.5 23.5,15 			"/>
			<line fill="none" stroke="#000000" stroke-linejoin="round" stroke-miterlimit="10" x1="19" y1="14.5" x2="21.5" y2="17"/>
			
				<line fill="none" stroke="#000000" stroke-linecap="round" stroke-linejoin="round" stroke-miterlimit="10" x1="13.499" y1="20.001" x2="15.999" y2="22.501"/>
		</g>
		<rect x="6.5" y="7.5" fill="none" stroke="#000000" stroke-linejoin="round" stroke-miterlimit="10" width="3" height="3"/>
		<rect x="3.5" y="12.5" fill="none" stroke="#000000" stroke-linejoin="round" stroke-miterlimit="10" width="3" height="3"/>
		<rect x="9.5" y="12.5" fill="none" stroke="#000000" stroke-linejoin="round" stroke-miterlimit="10" width="3" height="3"/>
	</g>
</g>
</svg>
