<?xml version="1.0" encoding="utf-8"?>
<!-- Generator: Adobe Illustrator 19.2.0, SVG Export Plug-In . SVG Version: 6.00 Build 0)  -->
<svg version="1.1" id="Outline_Icons" xmlns="http://www.w3.org/2000/svg" xmlns:xlink="http://www.w3.org/1999/xlink" x="0px"
	 y="0px" viewBox="0 0 24 24" enable-background="new 0 0 24 24" xml:space="preserve">
<g>
	<polyline fill="none" stroke="#000000" stroke-linecap="round" stroke-linejoin="round" stroke-miterlimit="10" points="
		16.18,18.5 13.5,18.5 13.5,13.5 	"/>
	<path fill="none" stroke="#000000" stroke-linecap="round" stroke-linejoin="round" stroke-miterlimit="10" d="M3.976,17.343
		c0.041,0.692,0.58,1.24,1.24,1.24c0.686,0,1.24-0.593,1.24-1.324c0-1.08-1.022-1.262-1.238-1.325
		c-0.217-0.064-1.242-0.245-1.242-1.325c0-0.732,0.557-1.108,1.242-1.108c0.658,0,1.197,0.331,1.238,1.023"/>
	<g>
		<path fill="none" stroke="#000000" stroke-linecap="round" stroke-linejoin="round" stroke-miterlimit="10" d="M11.544,15.933
			c0,1.464-0.219,2.65-1.467,2.65s-1.465-1.187-1.465-2.65S8.829,13.5,10.077,13.5S11.544,14.47,11.544,15.933z"/>
		<path fill="none" stroke="#000000" stroke-linecap="round" stroke-linejoin="round" stroke-miterlimit="10" d="M10.077,19.056
			c0.4-0.303,1.158,0.304,1.467,0"/>
	</g>
	<g>
		<g>
			<polygon fill="none" stroke="#000000" stroke-linecap="round" stroke-linejoin="round" stroke-miterlimit="10" points="
				19.5,23.5 0.5,23.5 0.5,0.5 13.5,0.5 19.5,6.5 			"/>
			<polyline fill="none" stroke="#000000" stroke-linecap="round" stroke-linejoin="round" stroke-miterlimit="10" points="
				13.5,0.5 13.5,6.5 19.5,6.5 			"/>
		</g>
	</g>
</g>
</svg>
