<?xml version="1.0" encoding="utf-8"?>
<!-- Generator: Adobe Illustrator 19.2.0, SVG Export Plug-In . SVG Version: 6.00 Build 0)  -->
<svg version="1.1" id="Layer_1" xmlns="http://www.w3.org/2000/svg" xmlns:xlink="http://www.w3.org/1999/xlink" x="0px" y="0px"
	 viewBox="0 0 24 24" enable-background="new 0 0 24 24" xml:space="preserve">
<g id="Filled_Icons" display="none">
	<g display="inline">
		<path d="M10.477,16.037c0-2.84,2.147-4.537,4.224-4.537c0.746,0,1.564,0.237,2.3,0.76v-1.18V5.5c0-0.133-0.054-0.26-0.146-0.354
			l-5-5C11.76,0.053,11.633,0,11.5,0h-11C0.225,0,0,0.224,0,0.5v21C0,21.775,0.225,22,0.5,22h12.05h1.417
			C12.287,20.382,10.477,18.152,10.477,16.037z M11.5,0.5l5,5h-5V0.5z M5,5c1.103,0,2,0.897,2,2S6.103,9,5,9S3,8.103,3,7
			S3.897,5,5,5z M3.5,18c-0.173,0-0.334-0.089-0.426-0.236c-0.091-0.148-0.099-0.332-0.021-0.486l2.5-5
			c0.072-0.144,0.209-0.244,0.367-0.27c0.158-0.026,0.32,0.026,0.434,0.14l1.527,1.527l2.681-4.913
			c0.092-0.168,0.251-0.285,0.466-0.26c0.192,0.01,0.361,0.13,0.435,0.309l0.93,2.259c-1.638,0.836-2.915,2.566-2.915,4.969
			c0,0.659,0.152,1.317,0.394,1.963L3.5,18L3.5,18z"/>
		<path d="M20.275,12.463c-0.949,0-2.069,0.492-2.775,1.784c-0.706-1.292-1.826-1.784-2.775-1.784c-1.586,0-3.225,1.323-3.225,3.537
			c0,3.182,5.473,7.197,5.706,7.367c0.088,0.064,0.19,0.096,0.294,0.096c0.103,0,0.206-0.031,0.294-0.096
			C18.027,23.197,23.5,19.182,23.5,16C23.5,13.786,21.861,12.463,20.275,12.463z"/>
	</g>
</g>
<g id="Outline_Icons">
	<g>
		<g>
			<path fill="none" stroke="#000000" stroke-linejoin="round" stroke-miterlimit="10" d="M17.477,23c0,0,5.5-4,5.5-6.963
				c0-3.418-4.5-4.5-5.5-0.34c-1-4.16-5.5-3.078-5.5,0.34C11.977,19,17.477,23,17.477,23z"/>
		</g>
		<g>
			<polyline fill="none" stroke="#000000" stroke-linecap="round" stroke-linejoin="round" stroke-miterlimit="10" points="
				11.86,11.091 11,9 8,14.5 6,12.5 3.5,17.5 8.96,17.5 			"/>
			
				<circle fill="none" stroke="#000000" stroke-linecap="round" stroke-linejoin="round" stroke-miterlimit="10" cx="5" cy="7" r="1.5"/>
			<polyline fill="none" stroke="#000000" stroke-linejoin="round" stroke-miterlimit="10" points="12.479,21.5 0.5,21.5 0.5,0.5 
				11.5,0.5 16.5,5.5 16.5,11 			"/>
			<polyline fill="none" stroke="#000000" stroke-linecap="round" stroke-linejoin="round" stroke-miterlimit="10" points="
				11.5,0.5 11.5,5.5 16.5,5.5 			"/>
		</g>
	</g>
</g>
</svg>
