<?xml version="1.0" encoding="utf-8"?>
<!-- Generator: Adobe Illustrator 19.2.0, SVG Export Plug-In . SVG Version: 6.00 Build 0)  -->
<svg version="1.1" id="Layer_1" xmlns="http://www.w3.org/2000/svg" xmlns:xlink="http://www.w3.org/1999/xlink" x="0px" y="0px"
	 viewBox="0 0 24 24" enable-background="new 0 0 24 24" xml:space="preserve">
<g id="Filled_Icons" display="none">
	<g display="inline">
		<g>
			<rect x="8" y="17" width="1" height="1"/>
			<rect x="6" y="7" width="1" height="1"/>
			<path d="M10,17.534V18.5c0,0.275-0.224,0.5-0.5,0.5h-2C7.224,19,7,18.775,7,18.5v-2C7,16.225,7.224,16,7.5,16h2
				c0.276,0,0.5,0.225,0.5,0.5V17.534c0-3.968,3.098-7.216,7-7.475V5.5c0-0.133-0.053-0.26-0.147-0.354l-4.999-5
				C11.76,0.053,11.633,0,11.5,0h-11C0.225,0,0,0.224,0,0.5v21C0,21.775,0.225,22,0.5,22h10.988C10.558,20.751,10,19.208,10,17.534z
				 M8,13.5C8,13.775,7.776,14,7.5,14C7.224,14,7,13.775,7,13.5v-2C7,11.224,7.224,11,7.5,11C7.776,11,8,11.224,8,11.5V13.5z
				 M11.5,0.5l5,5h-5V0.5z M9,6.5C9,6.224,9.224,6,9.5,6C9.776,6,10,6.224,10,6.5v2C10,8.776,9.776,9,9.5,9C9.224,9,9,8.776,9,8.5
				V6.5z M9,11.5C9,11.224,9.224,11,9.5,11c0.276,0,0.5,0.224,0.5,0.5v2c0,0.275-0.224,0.5-0.5,0.5C9.224,14,9,13.775,9,13.5V11.5z
				 M5,6.5C5,6.224,5.224,6,5.5,6h2C7.776,6,8,6.224,8,6.5v2C8,8.776,7.776,9,7.5,9h-2C5.224,9,5,8.776,5,8.5V6.5z M3,6.5
				C3,6.224,3.224,6,3.5,6C3.776,6,4,6.224,4,6.5v2C4,8.776,3.776,9,3.5,9C3.224,9,3,8.776,3,8.5V6.5z M4,18.5
				C4,18.775,3.776,19,3.5,19C3.224,19,3,18.775,3,18.5v-2C3,16.225,3.224,16,3.5,16C3.776,16,4,16.225,4,16.5V18.5z M6,18.5
				C6,18.775,5.776,19,5.5,19C5.224,19,5,18.775,5,18.5v-2C5,16.225,5.224,16,5.5,16C5.776,16,6,16.225,6,16.5V18.5z M6,13.5
				C6,13.775,5.776,14,5.5,14h-2C3.224,14,3,13.775,3,13.5v-2C3,11.224,3.224,11,3.5,11h2C5.776,11,6,11.224,6,11.5V13.5z"/>
			<rect x="4" y="12" width="1" height="1"/>
		</g>
		<path d="M17.5,11c-3.584,0-6.5,2.914-6.5,6.5c0,3.584,2.916,6.5,6.5,6.5s6.5-2.916,6.5-6.5C24,13.914,21.084,11,17.5,11z
			 M22.05,14.404l-0.565,2.219c-0.061,0.264-0.381,0.438-0.607,0.361l-2.217-0.566c-0.268-0.066-0.43-0.34-0.361-0.607
			c0.068-0.267,0.34-0.43,0.608-0.358l1.202,0.306c-0.317-0.509-0.748-0.938-1.287-1.236c-0.832-0.453-1.79-0.561-2.697-0.293
			c-0.911,0.265-1.663,0.867-2.119,1.699c-0.457,0.83-0.562,1.788-0.297,2.696c0.266,0.912,0.869,1.662,1.699,2.12
			c0.832,0.456,1.789,0.561,2.699,0.295c0.266-0.079,0.543,0.074,0.621,0.341c0.076,0.265-0.076,0.544-0.342,0.619
			c-0.421,0.123-0.851,0.185-1.277,0.185c-0.754,0-1.502-0.189-2.182-0.563c-1.064-0.584-1.84-1.55-2.179-2.716
			c-0.34-1.164-0.205-2.395,0.379-3.459c0.585-1.065,1.55-1.84,2.716-2.18c1.165-0.338,2.393-0.205,3.459,0.379
			c0.635,0.35,1.149,0.846,1.547,1.424l0.232-0.91c0.067-0.268,0.34-0.43,0.606-0.361C21.956,13.865,22.118,14.137,22.05,14.404z"/>
	</g>
</g>
<g id="Outline_Icons">
	<g>
		
			<line fill="none" stroke="#000000" stroke-linecap="round" stroke-linejoin="round" stroke-miterlimit="10" x1="3.5" y1="6.5" x2="3.5" y2="8.5"/>
		
			<line fill="none" stroke="#000000" stroke-linecap="round" stroke-linejoin="round" stroke-miterlimit="10" x1="9.5" y1="6.5" x2="9.5" y2="8.5"/>
		
			<line fill="none" stroke="#000000" stroke-linecap="round" stroke-linejoin="round" stroke-miterlimit="10" x1="7.5" y1="11.5" x2="7.5" y2="13.5"/>
		
			<line fill="none" stroke="#000000" stroke-linecap="round" stroke-linejoin="round" stroke-miterlimit="10" x1="9.5" y1="11.5" x2="9.5" y2="13.5"/>
		
			<rect x="5.5" y="6.5" fill="none" stroke="#000000" stroke-linecap="round" stroke-linejoin="round" stroke-miterlimit="10" width="2" height="2"/>
		
			<rect x="3.5" y="11.5" fill="none" stroke="#000000" stroke-linecap="round" stroke-linejoin="round" stroke-miterlimit="10" width="2" height="2"/>
		
			<rect x="7.5" y="16.5" fill="none" stroke="#000000" stroke-linecap="round" stroke-linejoin="round" stroke-miterlimit="10" width="2" height="2"/>
		
			<line fill="none" stroke="#000000" stroke-linecap="round" stroke-linejoin="round" stroke-miterlimit="10" x1="3.5" y1="16.5" x2="3.5" y2="18.5"/>
		
			<line fill="none" stroke="#000000" stroke-linecap="round" stroke-linejoin="round" stroke-miterlimit="10" x1="5.5" y1="16.5" x2="5.5" y2="18.5"/>
		<g>
			<g>
				<path fill="none" stroke="#000000" stroke-linecap="round" stroke-linejoin="round" stroke-miterlimit="10" d="M18.402,23.299
					c-2.65,0.771-5.428-0.751-6.199-3.402c-0.772-2.649,0.751-5.426,3.402-6.197c2.649-0.773,5.426,0.75,6.197,3.4"/>
				<polyline fill="none" stroke="#000000" stroke-linecap="round" stroke-linejoin="round" stroke-miterlimit="10" points="
					22.502,14.357 21.805,17.1 19.064,16.4 				"/>
			</g>
		</g>
		<g>
			<polyline fill="none" stroke="#000000" stroke-linejoin="round" stroke-miterlimit="10" points="11,21.5 0.5,21.5 0.5,0.5 
				11.5,0.5 16.5,5.5 16.492,11.001 			"/>
			<polyline fill="none" stroke="#000000" stroke-linecap="round" stroke-linejoin="round" stroke-miterlimit="10" points="
				11.5,0.5 11.5,5.5 16.5,5.5 			"/>
		</g>
	</g>
</g>
</svg>
