<?xml version="1.0" encoding="utf-8"?>
<!-- Generator: Adobe Illustrator 19.2.0, SVG Export Plug-In . SVG Version: 6.00 Build 0)  -->
<svg version="1.1" id="Outline_Icons" xmlns="http://www.w3.org/2000/svg" xmlns:xlink="http://www.w3.org/1999/xlink" x="0px"
	 y="0px" viewBox="0 0 24 24" enable-background="new 0 0 24 24" xml:space="preserve">
<g>
	<path fill="none" stroke="#000000" stroke-linecap="round" stroke-linejoin="round" stroke-miterlimit="10" d="M7.978,16.5
		c-2.486,0-4.5-2.015-4.5-4.5s2.014-4.5,4.5-4.5c2.153,0,3.952,1.512,4.395,3.531"/>
	<polyline fill="none" stroke="#000000" stroke-linecap="round" stroke-linejoin="round" stroke-miterlimit="10" points="7.478,10 
		7.478,12.5 8.979,12.5 	"/>
	<g>
		<g>
			<circle fill="none" stroke="#000000" stroke-linejoin="round" stroke-miterlimit="10" cx="17.5" cy="17.5" r="6"/>
			<g>
				<g>
					<path d="M17.5,20.175c-0.328,0-0.593,0.266-0.593,0.593c0,0.328,0.265,0.593,0.593,0.593c0.327,0,0.593-0.265,0.593-0.593
						C18.093,20.44,17.827,20.175,17.5,20.175L17.5,20.175z"/>
				</g>
			</g>
			<path fill="none" stroke="#000000" stroke-linecap="round" stroke-linejoin="round" stroke-miterlimit="10" d="M15.722,15.729
				c0-0.982,0.796-1.779,1.778-1.779c0.981,0,1.778,0.797,1.778,1.779s-0.797,1.778-1.778,1.778v1.778"/>
		</g>
	</g>
	<g>
		<polyline fill="none" stroke="#000000" stroke-linejoin="round" stroke-miterlimit="10" points="11,21.5 0.5,21.5 0.5,0.5 
			11.5,0.5 16.5,5.5 16.5,10 		"/>
		<polyline fill="none" stroke="#000000" stroke-linecap="round" stroke-linejoin="round" stroke-miterlimit="10" points="11.5,0.5 
			11.5,5.5 16.5,5.5 		"/>
	</g>
</g>
</svg>
