<?xml version="1.0" encoding="utf-8"?>
<!-- Generator: Adobe Illustrator 19.2.0, SVG Export Plug-In . SVG Version: 6.00 Build 0)  -->
<svg version="1.1" id="Layer_1" xmlns="http://www.w3.org/2000/svg" xmlns:xlink="http://www.w3.org/1999/xlink" x="0px" y="0px"
	 viewBox="0 0 24 24" enable-background="new 0 0 24 24" xml:space="preserve">
<g id="Filled_Icons" display="none">
	<path display="inline" d="M20.853,4.147l-4-4C16.76,0.053,16.632,0,16.5,0H14v13c0,0.202-0.122,0.385-0.309,0.462
		C13.629,13.488,13.564,13.5,13.5,13.5c-0.13,0-0.258-0.051-0.354-0.146L11,11.207l-2.146,2.147
		c-0.143,0.144-0.358,0.186-0.545,0.108C8.122,13.385,8,13.202,8,13V0H3.5C3.224,0,3,0.224,3,0.5v23C3,23.775,3.224,24,3.5,24h17
		c0.275,0,0.5-0.225,0.5-0.5v-19C21,4.367,20.947,4.24,20.853,4.147z"/>
</g>
<g id="Outline_Icons">
	<g>
		<polygon fill="none" stroke="#000000" stroke-linecap="round" stroke-linejoin="round" stroke-miterlimit="10" points="20.5,23.5 
			3.5,23.5 3.5,0.5 16.5,0.5 20.5,4.5 		"/>
		<polyline fill="none" stroke="#000000" stroke-linecap="round" stroke-linejoin="round" stroke-miterlimit="10" points="13.5,0.5 
			13.5,13 11,10.5 8.5,13 8.5,0.5 		"/>
	</g>
</g>
</svg>
