<?xml version="1.0" encoding="utf-8"?>
<!-- Generator: Adobe Illustrator 19.2.0, SVG Export Plug-In . SVG Version: 6.00 Build 0)  -->
<svg version="1.1" id="Layer_1" xmlns="http://www.w3.org/2000/svg" xmlns:xlink="http://www.w3.org/1999/xlink" x="0px" y="0px"
	 viewBox="0 0 24 24" enable-background="new 0 0 24 24" xml:space="preserve">
<g id="Filled_Icons" display="none">
	<g display="inline">
		<path d="M20.277,12.5c-0.951,0-2.071,0.492-2.777,1.785c-0.706-1.293-1.826-1.785-2.777-1.785c-1.584,0-3.223,1.322-3.223,3.537
			c0,3.182,5.473,7.199,5.706,7.369c0.088,0.062,0.19,0.095,0.294,0.095c0.103,0,0.206-0.03,0.294-0.095
			c0.233-0.17,5.706-4.188,5.706-7.369C23.5,13.822,21.861,12.5,20.277,12.5z"/>
		<path d="M10.96,18H3.5C3.224,18,3,17.775,3,17.5v-10C3,7.224,3.224,7,3.5,7C3.776,7,4,7.224,4,7.5v4.793l1.896-1.896
			c0.195-0.195,0.512-0.195,0.707,0l1.646,1.646l2.896-2.896c0.195-0.195,0.512-0.195,0.707,0c0.195,0.195,0.195,0.512,0,0.707
			l-3.25,3.25c-0.195,0.195-0.512,0.195-0.707,0L6.25,11.457L4,13.707V17h6.629c-0.075-0.322-0.129-0.644-0.129-0.963
			c0-2.84,2.146-4.537,4.225-4.537c0.737,0,1.547,0.23,2.275,0.741V5.5c0-0.133-0.053-0.26-0.147-0.354l-4.999-5
			C11.76,0.053,11.633,0,11.5,0h-11C0.225,0,0,0.224,0,0.5v21C0,21.775,0.225,22,0.5,22h13.49C12.827,20.879,11.604,19.469,10.96,18
			z M11.5,0.5l5,5h-5V0.5z"/>
	</g>
</g>
<g id="Outline_Icons">
	<g>
		<g>
			<g>
				<path fill="none" stroke="#000000" stroke-linejoin="round" stroke-miterlimit="10" d="M17.5,23c0,0,5.5-4,5.5-6.963
					c0-3.42-4.5-4.5-5.5-0.342c-1-4.158-5.5-3.078-5.5,0.342C12,19,17.5,23,17.5,23z"/>
			</g>
		</g>
		<g>
			<polyline fill="none" stroke="#000000" stroke-linejoin="round" stroke-miterlimit="10" points="12.479,21.5 0.5,21.5 0.5,0.5 
				11.5,0.5 16.5,5.5 16.5,11 			"/>
			<polyline fill="none" stroke="#000000" stroke-linecap="round" stroke-linejoin="round" stroke-miterlimit="10" points="
				11.5,0.5 11.5,5.5 16.5,5.5 			"/>
		</g>
		<g>
			<polyline fill="none" stroke="#000000" stroke-linecap="round" stroke-linejoin="round" stroke-miterlimit="10" points="3.5,7.5 
				3.5,17.5 9.5,17.5 			"/>
			<polyline fill="none" stroke="#000000" stroke-linecap="round" stroke-linejoin="round" stroke-miterlimit="10" points="
				3.5,13.5 6.25,10.75 8.25,12.75 11.5,9.5 			"/>
		</g>
	</g>
</g>
</svg>
