<?xml version="1.0" encoding="utf-8"?>
<!-- Generator: Adobe Illustrator 19.2.0, SVG Export Plug-In . SVG Version: 6.00 Build 0)  -->
<svg version="1.1" id="Layer_1" xmlns="http://www.w3.org/2000/svg" xmlns:xlink="http://www.w3.org/1999/xlink" x="0px" y="0px"
	 viewBox="0 0 24 24" enable-background="new 0 0 24 24" xml:space="preserve">
<g id="Filled_Icons" display="none">
	<g display="inline">
		<g>
			<path d="M9.984,18.535c0-1.93,1.57-3.5,3.5-3.5c0.809,0,1.547,0.287,2.141,0.751L17,15.1v-0.72V5.5
				c0-0.133-0.053-0.26-0.147-0.354l-4.999-5C11.76,0.053,11.632,0,11.5,0h-11C0.224,0,0,0.224,0,0.5v21C0,21.775,0.224,22,0.5,22
				l12.644,0.001C11.376,21.827,9.984,20.348,9.984,18.535z M11.5,0.5l5,5h-5V0.5z"/>
		</g>
		<path d="M21.484,19.035c-0.891,0-1.668,0.471-2.11,1.173l-3.429-1.286c0.019-0.127,0.039-0.255,0.039-0.388
			c0-0.226-0.039-0.439-0.096-0.646l3.639-1.816c0.457,0.58,1.16,0.962,1.957,0.962c1.377,0,2.5-1.122,2.5-2.5
			c0-1.378-1.123-2.5-2.5-2.5c-1.379,0-2.5,1.122-2.5,2.5c0,0.224,0.039,0.437,0.094,0.644l-3.639,1.819
			c-0.459-0.582-1.16-0.962-1.957-0.962c-1.377,0-2.5,1.121-2.5,2.5c0,1.378,1.122,2.5,2.5,2.5c0.892,0,1.668-0.471,2.111-1.176
			l3.428,1.285c-0.019,0.129-0.039,0.258-0.039,0.391c0,1.378,1.121,2.5,2.5,2.5c1.377,0,2.5-1.122,2.5-2.5
			C23.982,20.156,22.863,19.035,21.484,19.035z M21.484,13.035c0.826,0,1.5,0.672,1.5,1.5c0,0.826-0.674,1.5-1.5,1.5
			c-0.827,0-1.5-0.674-1.5-1.5C19.984,13.708,20.657,13.035,21.484,13.035z M13.484,20.035c-0.827,0-1.5-0.674-1.5-1.5
			c0-0.828,0.673-1.5,1.5-1.5c0.826,0,1.5,0.672,1.5,1.5C14.984,19.361,14.312,20.035,13.484,20.035z M21.484,23.035
			c-0.827,0-1.5-0.674-1.5-1.5c0-0.828,0.673-1.5,1.5-1.5c0.826,0,1.5,0.672,1.5,1.5C22.984,22.361,22.312,23.035,21.484,23.035z"/>
	</g>
</g>
<g id="Outline_Icons">
	<g>
		<g>
			<g>
				
					<circle fill="none" stroke="#000000" stroke-linecap="round" stroke-linejoin="round" stroke-miterlimit="10" cx="21.484" cy="14.535" r="2"/>
				
					<circle fill="none" stroke="#000000" stroke-linecap="round" stroke-linejoin="round" stroke-miterlimit="10" cx="21.484" cy="21.535" r="2"/>
				
					<circle fill="none" stroke="#000000" stroke-linecap="round" stroke-linejoin="round" stroke-miterlimit="10" cx="13.484" cy="18.535" r="2"/>
				
					<line fill="none" stroke="#000000" stroke-linecap="round" stroke-linejoin="round" stroke-miterlimit="10" x1="15.271" y1="17.641" x2="19.697" y2="15.428"/>
				
					<line fill="none" stroke="#000000" stroke-linecap="round" stroke-linejoin="round" stroke-miterlimit="10" x1="15.359" y1="19.236" x2="19.613" y2="20.833"/>
			</g>
		</g>
		<g>
			<polyline fill="none" stroke="#000000" stroke-linejoin="round" stroke-miterlimit="10" points="11,21.5 0.5,21.5 0.5,0.5 
				11.5,0.5 16.5,5.5 16.5,14 			"/>
			<polyline fill="none" stroke="#000000" stroke-linecap="round" stroke-linejoin="round" stroke-miterlimit="10" points="
				11.5,0.5 11.5,5.5 16.5,5.5 			"/>
		</g>
	</g>
</g>
</svg>
