<?xml version="1.0" encoding="utf-8"?>
<!-- Generator: Adobe Illustrator 19.2.0, SVG Export Plug-In . SVG Version: 6.00 Build 0)  -->
<svg version="1.1" id="Layer_1" xmlns="http://www.w3.org/2000/svg" xmlns:xlink="http://www.w3.org/1999/xlink" x="0px" y="0px"
	 viewBox="0 0 24 24" enable-background="new 0 0 24 24" xml:space="preserve">
<g id="Filled_Icons" display="none">
	<g display="inline">
		<path d="M10.099,13.229c0.476,0,0.764,0.199,0.934,0.648c0.098,0.258,0.386,0.389,0.646,0.289c0.258-0.098,0.388-0.387,0.29-0.644
			c-0.316-0.834-0.98-1.294-1.869-1.294C9.314,12.229,8,12.588,8,15c0,2.41,1.314,2.772,2.099,2.772
			c0.887,0,1.549-0.457,1.865-1.287c0.099-0.256-0.03-0.547-0.288-0.645c-0.255-0.098-0.547,0.03-0.646,0.289
			c-0.17,0.443-0.457,0.643-0.932,0.643c-0.3,0-1.098,0-1.098-1.772C9,13.229,9.798,13.229,10.099,13.229z"/>
		<path d="M19.853,6.146l-6-6C13.76,0.053,13.633,0,13.5,0h-13C0.225,0,0,0.224,0,0.5v23C0,23.775,0.225,24,0.5,24h19
			c0.275,0,0.5-0.225,0.5-0.5v-17C20,6.367,19.947,6.24,19.853,6.146z M14.577,18.87l-1.724-1.724c-0.195-0.195-0.513-0.195-0.707,0
			c-0.195,0.194-0.195,0.512,0,0.707l1.724,1.724C12.824,20.463,11.475,21,10,21c-3.309,0-6-2.691-6-6
			c0-1.475,0.537-2.824,1.423-3.87l1.724,1.724C7.244,12.951,7.372,13,7.5,13c0.128,0,0.256-0.049,0.354-0.146
			c0.195-0.194,0.195-0.512,0-0.707L6.13,10.423C7.176,9.537,8.525,9,10,9c3.309,0,6,2.691,6,6
			C16,16.475,15.463,17.825,14.577,18.87z M13.5,6.5v-6l6,6H13.5z"/>
	</g>
</g>
<g id="Outline_Icons">
	<g>
		
			<circle fill="none" stroke="#000000" stroke-linecap="round" stroke-linejoin="round" stroke-miterlimit="10" cx="10" cy="15" r="5.5"/>
		
			<line fill="none" stroke="#000000" stroke-linecap="round" stroke-linejoin="round" stroke-miterlimit="10" x1="12.293" y1="17.018" x2="13.9" y2="18.881"/>
		
			<line fill="none" stroke="#000000" stroke-linecap="round" stroke-linejoin="round" stroke-miterlimit="10" x1="6.736" y1="10.576" x2="7.966" y2="12.001"/>
		<g>
			<polygon fill="none" stroke="#000000" stroke-linecap="round" stroke-linejoin="round" stroke-miterlimit="10" points="
				19.5,23.5 0.5,23.5 0.5,0.5 13.5,0.5 19.5,6.5 			"/>
			<polyline fill="none" stroke="#000000" stroke-linecap="round" stroke-linejoin="round" stroke-miterlimit="10" points="
				13.5,0.5 13.5,6.5 19.5,6.5 			"/>
		</g>
		<path fill="none" stroke="#000000" stroke-linecap="round" stroke-linejoin="round" stroke-miterlimit="10" d="M11.155,13.7
			c-0.223-0.587-0.655-0.972-1.401-0.972c-1.217,0-1.599,1.018-1.599,2.271c0,1.254,0.382,2.272,1.599,2.272
			c0.744,0,1.176-0.381,1.398-0.965"/>
	</g>
</g>
</svg>
