<?xml version="1.0" encoding="utf-8"?>
<!-- Generator: Adobe Illustrator 19.2.0, SVG Export Plug-In . SVG Version: 6.00 Build 0)  -->
<svg version="1.1" id="Outline_Icons" xmlns="http://www.w3.org/2000/svg" xmlns:xlink="http://www.w3.org/1999/xlink" x="0px"
	 y="0px" viewBox="0 0 24 24" enable-background="new 0 0 24 24" xml:space="preserve">
<g>
	<path fill="none" stroke="#000000" stroke-linecap="round" stroke-linejoin="round" stroke-miterlimit="10" d="M15.938,14.741
		c-0.168-0.746-0.547-1.241-1.359-1.241c-1.258,0-1.477,1.186-1.477,2.65s0.219,2.65,1.477,2.65c1.048,0,1.375-0.823,1.455-1.945
		H14.59"/>
	<polyline fill="none" stroke="#000000" stroke-linecap="round" stroke-linejoin="round" stroke-miterlimit="10" points="
		8.534,13.5 10,18.687 11.466,13.5 	"/>
	<path fill="none" stroke="#000000" stroke-linecap="round" stroke-linejoin="round" stroke-miterlimit="10" d="M4.072,17.56
		c0.04,0.692,0.579,1.241,1.238,1.241c0.687,0,1.242-0.594,1.242-1.326c0-1.08-1.022-1.262-1.24-1.324
		c-0.217-0.063-1.24-0.246-1.24-1.325c0-0.732,0.555-1.325,1.24-1.325c0.66,0,1.199,0.548,1.24,1.24"/>
	<g>
		<g>
			<g>
				<g>
					<polygon fill="none" stroke="#000000" stroke-linecap="round" stroke-linejoin="round" stroke-miterlimit="10" points="
						19.5,23.5 0.5,23.5 0.5,0.5 13.5,0.5 19.5,6.5 					"/>
					<polyline fill="none" stroke="#000000" stroke-linecap="round" stroke-linejoin="round" stroke-miterlimit="10" points="
						13.5,0.5 13.5,6.5 19.5,6.5 					"/>
				</g>
			</g>
		</g>
	</g>
</g>
</svg>
