<?xml version="1.0" encoding="utf-8"?>
<!-- Generator: Adobe Illustrator 19.2.0, SVG Export Plug-In . SVG Version: 6.00 Build 0)  -->
<svg version="1.1" id="Outline_Icons" xmlns="http://www.w3.org/2000/svg" xmlns:xlink="http://www.w3.org/1999/xlink" x="0px"
	 y="0px" viewBox="0 0 24 24" enable-background="new 0 0 24 24" xml:space="preserve">
<g>
	<g>
		<path fill="none" stroke="#000000" stroke-linecap="round" stroke-linejoin="round" stroke-miterlimit="10" d="M3.549,15.907h1.24
			c1.055,0,1.24,0.58,1.24,1.297c0,0.716-0.186,1.297-1.24,1.297h-1.24V13.5h1.24c1.055,0,1.24,0.394,1.24,1.11
			c0,0.717-0.186,1.297-1.24,1.297H3.549z"/>
		<polyline fill="none" stroke="#000000" stroke-linecap="round" stroke-linejoin="round" stroke-miterlimit="10" points="
			11.5,18.501 11.5,13.5 10.035,15.907 8.5,13.5 8.5,18.501 		"/>
		<path fill="none" stroke="#000000" stroke-linecap="round" stroke-linejoin="round" stroke-miterlimit="10" d="M13.5,18.501V13.5
			h1.781c1.056,0,1.239,0.394,1.239,1.11c0,0.717-0.184,1.89-1.239,1.89H13.5"/>
	</g>
	<g>
		<g>
			<g>
				<g>
					<polygon fill="none" stroke="#000000" stroke-linecap="round" stroke-linejoin="round" stroke-miterlimit="10" points="
						19.5,23.5 0.5,23.5 0.5,0.5 13.5,0.5 19.5,6.5 					"/>
					<polyline fill="none" stroke="#000000" stroke-linecap="round" stroke-linejoin="round" stroke-miterlimit="10" points="
						13.5,0.5 13.5,6.5 19.5,6.5 					"/>
				</g>
			</g>
		</g>
	</g>
</g>
</svg>
