<?xml version="1.0" encoding="utf-8"?>
<!-- Generator: Adobe Illustrator 19.2.0, SVG Export Plug-In . SVG Version: 6.00 Build 0)  -->
<svg version="1.1" id="Layer_1" xmlns="http://www.w3.org/2000/svg" xmlns:xlink="http://www.w3.org/1999/xlink" x="0px" y="0px"
	 viewBox="0 0 24 24" enable-background="new 0 0 24 24" xml:space="preserve">
<g id="Filled_Icons" display="none">
	<g display="inline">
		<path d="M17.5,11c-3.584,0-6.5,2.916-6.5,6.5s2.916,6.5,6.5,6.5s6.5-2.916,6.5-6.5S21.084,11,17.5,11z M17.5,16.928
			c1.043,0,1.891,0.85,1.891,1.893c0,0.867-0.592,1.595-1.391,1.815v0.502c0,0.277-0.225,0.5-0.5,0.5c-0.275,0-0.5-0.223-0.5-0.5
			v-0.502c-0.799-0.221-1.391-0.947-1.391-1.815c0-0.276,0.224-0.5,0.5-0.5c0.275,0,0.5,0.224,0.5,0.5
			c0,0.49,0.398,0.891,0.891,0.891c0.492,0,0.891-0.398,0.891-0.891c0-0.492-0.398-0.893-0.891-0.893
			c-1.043,0-1.891-0.848-1.891-1.891c0-0.868,0.592-1.596,1.391-1.814v-0.504c0-0.275,0.225-0.5,0.5-0.5c0.275,0,0.5,0.225,0.5,0.5
			v0.504c0.799,0.221,1.391,0.946,1.391,1.814c0,0.277-0.224,0.5-0.5,0.5c-0.275,0-0.5-0.223-0.5-0.5
			c0-0.49-0.398-0.891-0.891-0.891c-0.492,0-0.891,0.399-0.891,0.891C16.609,16.529,17.009,16.928,17.5,16.928z"/>
		<g>
			<rect x="4" y="13" width="1" height="3"/>
			<rect x="6" y="8" width="1" height="8"/>
			<rect x="8" y="11" width="1" height="5"/>
			<path d="M10.016,17.465c0-3.961,3.089-7.207,6.984-7.474V5.5c0-0.133-0.053-0.26-0.147-0.354l-4.999-5
				C11.76,0.053,11.633,0,11.5,0h-11C0.225,0,0,0.224,0,0.5v21C0,21.775,0.225,22,0.5,22h11.056
				C10.594,20.738,10.016,19.17,10.016,17.465z M11.5,0.5l5,5h-5V0.5z M10,16.5c0,0.275-0.224,0.5-0.5,0.5h-7
				C2.224,17,2,16.775,2,16.5C2,16.225,2.224,16,2.5,16H3v-3.5C3,12.224,3.224,12,3.5,12H5V7.5C5,7.224,5.224,7,5.5,7h2
				C7.776,7,8,7.224,8,7.5V10h1.5c0.276,0,0.5,0.224,0.5,0.5V16.5z"/>
		</g>
	</g>
</g>
<g id="Outline_Icons">
	<g>
		<g>
			<g>
				<circle fill="none" stroke="#000000" stroke-linejoin="round" stroke-miterlimit="10" cx="17.5" cy="17.5" r="6"/>
				<g>
					<path fill="none" stroke="#000000" stroke-linecap="round" stroke-linejoin="round" stroke-miterlimit="10" d="M16.109,18.82
						c0,0.768,0.623,1.391,1.391,1.391c0.768,0,1.391-0.623,1.391-1.391c0-0.768-0.623-1.393-1.391-1.393
						c-0.768,0-1.391-0.621-1.391-1.392c0-0.769,0.623-1.392,1.391-1.392c0.768,0,1.391,0.623,1.391,1.392"/>
					
						<line fill="none" stroke="#000000" stroke-linecap="round" stroke-linejoin="round" stroke-miterlimit="10" x1="17.5" y1="20.211" x2="17.5" y2="21.139"/>
					
						<line fill="none" stroke="#000000" stroke-linecap="round" stroke-linejoin="round" stroke-miterlimit="10" x1="17.5" y1="13.721" x2="17.5" y2="14.647"/>
				</g>
			</g>
		</g>
		<g>
			<polyline fill="none" stroke="#000000" stroke-linejoin="round" stroke-miterlimit="10" points="11,21.5 0.5,21.5 0.5,0.5 
				11.5,0.5 16.5,5.5 16.5,10 			"/>
			<polyline fill="none" stroke="#000000" stroke-linecap="round" stroke-linejoin="round" stroke-miterlimit="10" points="
				11.5,0.5 11.5,5.5 16.5,5.5 			"/>
		</g>
		<g>
			
				<rect x="3.5" y="12.5" fill="none" stroke="#000000" stroke-linecap="round" stroke-linejoin="round" stroke-miterlimit="10" width="2" height="4"/>
			
				<rect x="7.5" y="10.5" fill="none" stroke="#000000" stroke-linecap="round" stroke-linejoin="round" stroke-miterlimit="10" width="2" height="6"/>
			
				<rect x="5.5" y="7.5" fill="none" stroke="#000000" stroke-linecap="round" stroke-linejoin="round" stroke-miterlimit="10" width="2" height="9"/>
			
				<line fill="none" stroke="#000000" stroke-linecap="round" stroke-linejoin="round" stroke-miterlimit="10" x1="2.5" y1="16.5" x2="9.5" y2="16.5"/>
		</g>
	</g>
</g>
</svg>
