<?xml version="1.0" encoding="utf-8"?>
<!-- Generator: Adobe Illustrator 19.2.0, SVG Export Plug-In . SVG Version: 6.00 Build 0)  -->
<svg version="1.1" id="Layer_1" xmlns="http://www.w3.org/2000/svg" xmlns:xlink="http://www.w3.org/1999/xlink" x="0px" y="0px"
	 viewBox="0 0 24 24" enable-background="new 0 0 24 24" xml:space="preserve">
<g id="Filled_Icons" display="none">
	<g display="inline">
		<g>
			<path d="M12.937,19.147l-0.918,3.217c-0.05,0.175-0.001,0.363,0.128,0.49C12.241,22.949,12.369,23,12.5,23
				c0.045,0,0.092-0.006,0.137-0.018l3.217-0.92L12.937,19.147z"/>
			<rect x="14.11" y="15.231" transform="matrix(0.707 -0.7073 0.7073 0.707 -7.2479 17.5048)" width="6.78" height="4.535"/>
			<path d="M23.853,13.647l-2.5-2.501c-0.187-0.188-0.519-0.188-0.707,0L19,12.792l3.207,3.207l1.646-1.645
				C24.049,14.156,24.049,13.841,23.853,13.647z"/>
		</g>
		<path d="M12.037,18.621c0.01-0.034,0.029-0.062,0.041-0.098c0.015-0.039,0.031-0.073,0.048-0.11
			c0.074-0.161,0.166-0.313,0.293-0.44L17,13.393V5.5c0-0.133-0.053-0.26-0.147-0.354l-4.999-5C11.76,0.053,11.633,0,11.5,0h-11
			C0.225,0,0,0.224,0,0.5v21C0,21.775,0.225,22,0.5,22h10.571L12.037,18.621z M11.5,0.5l5,5h-5V0.5z M9,13.688
			c0,1.227-1.317,2.186-3,2.186c-1.683,0-3-0.96-3-2.186C3,12.46,4.317,11.5,6,11.5c0.779,0,1.472,0.212,2,0.555V6.496
			c0-0.193,0.112-0.371,0.288-0.452C8.464,5.962,8.671,5.988,8.82,6.112l3,2.504c0.212,0.177,0.24,0.492,0.063,0.704
			c-0.177,0.213-0.492,0.24-0.704,0.064L9,7.564V13.5c0,0.025-0.011,0.049-0.015,0.075C8.987,13.611,9,13.648,9,13.688z"/>
	</g>
</g>
<g id="Outline_Icons">
	<g>
		<g>
			
				<ellipse fill="none" stroke="#000000" stroke-linecap="round" stroke-linejoin="round" stroke-miterlimit="10" cx="5.981" cy="13.69" rx="2.5" ry="1.687"/>
			<polyline fill="none" stroke="#000000" stroke-linecap="round" stroke-linejoin="round" stroke-miterlimit="10" points="
				8.5,13.502 8.513,6.5 11.481,9.002 			"/>
		</g>
		<g>
			<polygon fill="none" stroke="#000000" stroke-linecap="round" stroke-linejoin="round" stroke-miterlimit="10" points="
				15.978,21.533 12.479,22.533 13.478,19.033 20.98,11.531 23.48,14.031 			"/>
			
				<line fill="none" stroke="#000000" stroke-linejoin="round" stroke-miterlimit="10" x1="18.98" y1="13.531" x2="21.48" y2="16.031"/>
			
				<line fill="none" stroke="#000000" stroke-linecap="round" stroke-linejoin="round" stroke-miterlimit="10" x1="13.478" y1="19.033" x2="15.978" y2="21.533"/>
		</g>
		<g>
			<polyline fill="none" stroke="#000000" stroke-linejoin="round" stroke-miterlimit="10" points="11,21.5 0.5,21.5 0.5,0.5 
				11.5,0.5 16.5,5.5 16.48,12.033 			"/>
			<polyline fill="none" stroke="#000000" stroke-linecap="round" stroke-linejoin="round" stroke-miterlimit="10" points="
				11.5,0.5 11.5,5.5 16.5,5.5 			"/>
		</g>
		<g>
			
				<ellipse fill="none" stroke="#000000" stroke-linecap="round" stroke-linejoin="round" stroke-miterlimit="10" cx="5.981" cy="13.69" rx="2.5" ry="1.687"/>
		</g>
	</g>
</g>
</svg>
