<?xml version="1.0" encoding="utf-8"?>
<!-- Generator: Adobe Illustrator 19.2.0, SVG Export Plug-In . SVG Version: 6.00 Build 0)  -->
<svg version="1.1" id="Layer_1" xmlns="http://www.w3.org/2000/svg" xmlns:xlink="http://www.w3.org/1999/xlink" x="0px" y="0px"
	 viewBox="0 0 24 24" style="enable-background:new 0 0 24 24;" xml:space="preserve">
<style type="text/css">
	.st0{display:none;}
	.st1{display:inline;}
	.st2{fill:none;stroke:#000000;stroke-linecap:round;stroke-linejoin:round;stroke-miterlimit:10;}
</style>
<g id="Filled_Icons" class="st0">
	<g class="st1">
		<path d="M20.9,3.1l-3-3C17.8,0.1,17.6,0,17.5,0h-5C12.2,0,12,0.2,12,0.5V4h-0.5C11.2,4,11,4.2,11,4.5C11,4.8,11.2,5,11.5,5H12v5.5
			c0,0.3,0.2,0.5,0.5,0.5h8c0.3,0,0.5-0.2,0.5-0.5v-7C21,3.4,20.9,3.2,20.9,3.1z M17.5,3.5v-3l3,3H17.5z"/>
		<path d="M17.9,13.1c-0.1-0.1-0.2-0.1-0.4-0.1h-5c-0.3,0-0.5,0.2-0.5,0.5V19h-0.5c-0.3,0-0.5,0.2-0.5,0.5c0,0.3,0.2,0.5,0.5,0.5H12
			v3.5c0,0.3,0.2,0.5,0.5,0.5h8c0.3,0,0.5-0.2,0.5-0.5v-7c0-0.1-0.1-0.3-0.1-0.4L17.9,13.1z M17.5,16.5v-3l3,3H17.5z"/>
		<path d="M2.5,2C2.8,2,3,1.8,3,1.5v-1C3,0.2,2.8,0,2.5,0C2.2,0,2,0.2,2,0.5v1C2,1.8,2.2,2,2.5,2z"/>
		<path d="M2.5,8C2.8,8,3,7.8,3,7.5v-1C3,6.2,2.8,6,2.5,6C2.2,6,2,6.2,2,6.5v1C2,7.8,2.2,8,2.5,8z"/>
		<path d="M3.5,4H3V3.5C3,3.2,2.8,3,2.5,3C2.2,3,2,3.2,2,3.5v1C2,4.8,2.2,5,2.5,5h1C3.8,5,4,4.8,4,4.5C4,4.2,3.8,4,3.5,4z"/>
		<path d="M2.5,11C2.8,11,3,10.8,3,10.5v-1C3,9.2,2.8,9,2.5,9C2.2,9,2,9.2,2,9.5v1C2,10.8,2.2,11,2.5,11z"/>
		<path d="M2.5,14C2.8,14,3,13.8,3,13.5v-1C3,12.2,2.8,12,2.5,12C2.2,12,2,12.2,2,12.5v1C2,13.8,2.2,14,2.5,14z"/>
		<path d="M2.5,17C2.8,17,3,16.8,3,16.5v-1C3,15.2,2.8,15,2.5,15C2.2,15,2,15.2,2,15.5v1C2,16.8,2.2,17,2.5,17z"/>
		<path d="M3.5,19H3v-0.5C3,18.2,2.8,18,2.5,18C2.2,18,2,18.2,2,18.5v1C2,19.8,2.2,20,2.5,20h1C3.8,20,4,19.8,4,19.5
			C4,19.2,3.8,19,3.5,19z"/>
		<path d="M6.5,4h-1C5.2,4,5,4.2,5,4.5C5,4.8,5.2,5,5.5,5h1C6.8,5,7,4.8,7,4.5C7,4.2,6.8,4,6.5,4z"/>
		<path d="M9.5,4h-1C8.2,4,8,4.2,8,4.5C8,4.8,8.2,5,8.5,5h1C9.8,5,10,4.8,10,4.5C10,4.2,9.8,4,9.5,4z"/>
		<path d="M6.5,19h-1C5.2,19,5,19.2,5,19.5C5,19.8,5.2,20,5.5,20h1C6.8,20,7,19.8,7,19.5C7,19.2,6.8,19,6.5,19z"/>
		<path d="M9.5,19h-1C8.2,19,8,19.2,8,19.5C8,19.8,8.2,20,8.5,20h1c0.3,0,0.5-0.2,0.5-0.5C10,19.2,9.8,19,9.5,19z"/>
	</g>
</g>
<g id="Outline_Icons">
	<g>
		<polygon class="st2" points="20.5,10.5 12.5,10.5 12.5,0.5 17.5,0.5 20.5,3.5 		"/>
		<polyline class="st2" points="17.5,0.5 17.5,3.5 20.5,3.5 		"/>
		<polygon class="st2" points="20.5,23.5 12.5,23.5 12.5,13.5 17.5,13.5 20.5,16.5 		"/>
		<polyline class="st2" points="17.5,13.5 17.5,16.5 20.5,16.5 		"/>
		<line class="st2" x1="2.5" y1="0.5" x2="2.5" y2="1.5"/>
		<line class="st2" x1="2.5" y1="6.5" x2="2.5" y2="7.5"/>
		<polyline class="st2" points="2.5,3.5 2.5,4.5 3.5,4.5 		"/>
		<line class="st2" x1="2.5" y1="9.5" x2="2.5" y2="10.5"/>
		<line class="st2" x1="2.5" y1="12.5" x2="2.5" y2="13.5"/>
		<line class="st2" x1="2.5" y1="15.5" x2="2.5" y2="16.5"/>
		<polyline class="st2" points="2.5,18.5 2.5,19.5 3.5,19.5 		"/>
		<line class="st2" x1="5.5" y1="4.5" x2="6.5" y2="4.5"/>
		<line class="st2" x1="8.5" y1="4.5" x2="9.5" y2="4.5"/>
		<line class="st2" x1="11.5" y1="4.5" x2="12.5" y2="4.5"/>
		<line class="st2" x1="5.5" y1="19.5" x2="6.5" y2="19.5"/>
		<line class="st2" x1="8.5" y1="19.5" x2="9.5" y2="19.5"/>
		<line class="st2" x1="11.5" y1="19.5" x2="12.5" y2="19.5"/>
	</g>
</g>
</svg>
