<?xml version="1.0" encoding="utf-8"?>
<!-- Generator: Adobe Illustrator 19.2.0, SVG Export Plug-In . SVG Version: 6.00 Build 0)  -->
<svg version="1.1" id="Layer_1" xmlns="http://www.w3.org/2000/svg" xmlns:xlink="http://www.w3.org/1999/xlink" x="0px" y="0px"
	 viewBox="0 0 24 24" enable-background="new 0 0 24 24" xml:space="preserve">
<g id="Filled_Icons" display="none">
	<g display="inline">
		<path d="M3.5,22V5h-1C2.224,5,2,5.224,2,5.5v18C2,23.775,2.224,24,2.5,24h14c0.275,0,0.5-0.225,0.5-0.5v-1H4
			C3.724,22.5,3.5,22.275,3.5,22z"/>
		<path d="M6.5,20C6.224,20,6,19.775,6,19.5V3H5C4.724,3,4.5,3.224,4.5,3.5V21v0.5H5h13.5c0.275,0,0.5-0.225,0.5-0.5v-1H6.5z"/>
		<path d="M20.853,6.146L19.06,4.353L17.986,3.28L17.707,3l-1-1l-0.854-0.854C15.76,1.053,15.632,1,15.5,1h-8C7.224,1,7,1.224,7,1.5
			v17V19h0.5h13c0.275,0,0.5-0.225,0.5-0.5v-12C21,6.367,20.947,6.24,20.853,6.146z M15.5,6.5v-5l5,5H15.5z"/>
	</g>
</g>
<g id="Outline_Icons">
	<g>
		<polygon fill="none" stroke="#000000" stroke-linecap="round" stroke-linejoin="round" stroke-miterlimit="10" points="20.5,18.5 
			7.5,18.5 7.5,1.5 15.5,1.5 20.5,6.5 		"/>
		<polyline fill="none" stroke="#000000" stroke-linecap="round" stroke-linejoin="round" stroke-miterlimit="10" points="
			18.5,18.5 18.5,20.5 5.5,20.5 5.5,3.5 7.5,3.5 		"/>
		<polyline fill="none" stroke="#000000" stroke-linecap="round" stroke-linejoin="round" stroke-miterlimit="10" points="
			16.5,20.5 16.5,22.5 3.5,22.5 3.5,5.5 5.5,5.5 		"/>
		<polyline fill="none" stroke="#000000" stroke-linecap="round" stroke-linejoin="round" stroke-miterlimit="10" points="15.5,1.5 
			15.5,6.5 20.5,6.5 		"/>
	</g>
</g>
</svg>
