<?xml version="1.0" encoding="utf-8"?>
<!-- Generator: Adobe Illustrator 19.2.0, SVG Export Plug-In . SVG Version: 6.00 Build 0)  -->
<svg version="1.1" id="Layer_1" xmlns="http://www.w3.org/2000/svg" xmlns:xlink="http://www.w3.org/1999/xlink" x="0px" y="0px"
	 viewBox="0 0 24 24" enable-background="new 0 0 24 24" xml:space="preserve">
<g id="Filled_Icons" display="none">
	<path display="inline" d="M19.853,6.146l-6-6C13.76,0.053,13.633,0,13.5,0h-13C0.225,0,0,0.224,0,0.5v23C0,23.775,0.225,24,0.5,24
		h19c0.275,0,0.5-0.225,0.5-0.5v-17C20,6.367,19.947,6.24,19.853,6.146z M7.584,11.195c0.05,0.963,0.117,2.319-1.076,3.124
		c1.193,0.807,1.126,2.162,1.076,3.125c-0.031,0.59-0.06,1.147,0.163,1.383c0.138,0.144,0.416,0.218,0.829,0.218
		c0.276,0,0.5,0.224,0.5,0.5c0,0.276-0.224,0.5-0.5,0.5c-0.708,0-1.216-0.173-1.555-0.528c-0.519-0.547-0.477-1.35-0.437-2.123
		c0.071-1.361,0.038-2.213-1.456-2.588c-0.489-0.123-0.506-0.843,0-0.971c1.494-0.373,1.527-1.227,1.456-2.587
		c-0.04-0.774-0.082-1.577,0.437-2.122c0.339-0.357,0.847-0.53,1.555-0.53c0.276,0,0.5,0.224,0.5,0.5c0,0.276-0.224,0.5-0.5,0.5
		c-0.413,0-0.691,0.073-0.829,0.218C7.524,10.047,7.553,10.604,7.584,11.195z M14.871,14.805c-1.493,0.375-1.525,1.227-1.455,2.588
		c0.04,0.774,0.082,1.576-0.438,2.123c-0.338,0.355-0.847,0.528-1.554,0.528c-0.276,0-0.5-0.224-0.5-0.5c0-0.276,0.224-0.5,0.5-0.5
		c0.412,0,0.691-0.073,0.828-0.218c0.223-0.234,0.194-0.793,0.163-1.383c-0.05-0.963-0.117-2.318,1.076-3.125
		c-1.193-0.805-1.126-2.16-1.076-3.124c0.031-0.591,0.06-1.148-0.163-1.383c-0.137-0.145-0.416-0.218-0.828-0.218
		c-0.276,0-0.5-0.224-0.5-0.5c0-0.276,0.224-0.5,0.5-0.5c0.707,0,1.216,0.173,1.554,0.529c0.52,0.546,0.478,1.348,0.438,2.123
		c-0.07,1.361-0.038,2.214,1.455,2.587C15.365,13.951,15.366,14.682,14.871,14.805z M13.5,6.5v-6l6,6H13.5z"/>
</g>
<g id="Outline_Icons">
	<g>
		<g>
			<polygon fill="none" stroke="#000000" stroke-linecap="round" stroke-linejoin="round" stroke-miterlimit="10" points="
				19.5,23.5 0.5,23.5 0.5,0.5 13.5,0.5 19.5,6.5 			"/>
			<polyline fill="none" stroke="#000000" stroke-linecap="round" stroke-linejoin="round" stroke-miterlimit="10" points="
				13.5,0.5 13.5,6.5 19.5,6.5 			"/>
		</g>
		<g>
			<g>
				<path fill="none" stroke="#000000" stroke-linecap="round" stroke-linejoin="round" d="M8.576,9.095
					c-3.326,0,0.475,4.274-3.326,5.225"/>
				<path fill="none" stroke="#000000" stroke-linecap="round" stroke-linejoin="round" d="M8.576,19.544
					c-3.326,0,0.475-4.274-3.326-5.226"/>
			</g>
			<g>
				<path fill="none" stroke="#000000" stroke-linecap="round" stroke-linejoin="round" d="M11.426,9.095
					c3.324,0-0.475,4.274,3.324,5.225"/>
				<path fill="none" stroke="#000000" stroke-linecap="round" stroke-linejoin="round" d="M11.426,19.544
					c3.324,0-0.475-4.274,3.324-5.226"/>
			</g>
		</g>
	</g>
</g>
</svg>
