<?xml version="1.0" encoding="utf-8"?>
<!-- Generator: Adobe Illustrator 19.2.0, SVG Export Plug-In . SVG Version: 6.00 Build 0)  -->
<svg version="1.1" id="Layer_1" xmlns="http://www.w3.org/2000/svg" xmlns:xlink="http://www.w3.org/1999/xlink" x="0px" y="0px"
	 viewBox="0 0 24 24" enable-background="new 0 0 24 24" xml:space="preserve">
<g id="Filled_Icons" display="none">
	<g display="inline">
		<path d="M9.982,17.535c0-3.973,3.107-7.225,7.018-7.476V5.5c0-0.133-0.053-0.26-0.147-0.354l-4.999-5C11.76,0.053,11.632,0,11.5,0
			h-11C0.224,0,0,0.224,0,0.5v21C0,21.775,0.224,22,0.5,22h10.971C10.54,20.752,9.982,19.209,9.982,17.535z M11.5,0.5l5,5h-5V0.5z"
			/>
		<path d="M17.5,11c-3.584,0-6.5,2.916-6.5,6.5s2.916,6.5,6.5,6.5s6.5-2.916,6.5-6.5S21.084,11,17.5,11z M17.5,21.359
			c-0.327,0-0.592-0.266-0.592-0.594c0-0.326,0.265-0.593,0.592-0.593c0.328,0,0.594,0.267,0.594,0.593
			C18.094,21.094,17.828,21.359,17.5,21.359z M18,17.951v1.333c0,0.276-0.225,0.5-0.5,0.5c-0.275,0-0.5-0.224-0.5-0.5v-1.778
			c0-0.277,0.225-0.5,0.5-0.5c0.706,0,1.279-0.574,1.279-1.279c0-0.705-0.574-1.277-1.279-1.277c-0.704,0-1.277,0.572-1.277,1.277
			c0,0.276-0.224,0.5-0.5,0.5c-0.275,0-0.5-0.224-0.5-0.5c0-1.256,1.021-2.277,2.277-2.277c1.257,0,2.279,1.022,2.279,2.277
			C19.779,16.813,19.018,17.723,18,17.951z"/>
	</g>
</g>
<g id="Outline_Icons">
	<g>
		<g>
			<g>
				<circle fill="none" stroke="#000000" stroke-linejoin="round" stroke-miterlimit="10" cx="17.479" cy="17.535" r="6"/>
				<g>
					<g>
						<path d="M17.478,20.209c-0.326,0-0.592,0.266-0.592,0.594c0,0.326,0.266,0.592,0.592,0.592c0.328,0,0.594-0.266,0.594-0.592
							C18.072,20.475,17.807,20.209,17.478,20.209L17.478,20.209z"/>
					</g>
				</g>
				<path fill="none" stroke="#000000" stroke-linecap="round" stroke-linejoin="round" stroke-miterlimit="10" d="M15.701,15.764
					c0-0.983,0.795-1.779,1.777-1.779c0.982,0,1.778,0.797,1.778,1.779c0,0.981-0.797,1.777-1.778,1.777v1.779"/>
			</g>
		</g>
		<g>
			<polyline fill="none" stroke="#000000" stroke-linejoin="round" stroke-miterlimit="10" points="11,21.5 0.5,21.5 0.5,0.5 
				11.5,0.5 16.5,5.5 16.5,10 			"/>
			<polyline fill="none" stroke="#000000" stroke-linecap="round" stroke-linejoin="round" stroke-miterlimit="10" points="
				11.5,0.5 11.5,5.5 16.5,5.5 			"/>
		</g>
	</g>
</g>
</svg>
