<?xml version="1.0" encoding="utf-8"?>
<!-- Generator: Adobe Illustrator 19.2.0, SVG Export Plug-In . SVG Version: 6.00 Build 0)  -->
<svg version="1.1" id="Layer_1" xmlns="http://www.w3.org/2000/svg" xmlns:xlink="http://www.w3.org/1999/xlink" x="0px" y="0px"
	 viewBox="0 0 24 24" enable-background="new 0 0 24 24" xml:space="preserve">
<g id="Filled_Icons" display="none">
	<g display="inline">
		<g>
			<rect x="8" y="17" width="1" height="1"/>
			<rect x="4" y="12" width="1" height="1"/>
			<path d="M13.745,19.531l-2.213-1.846c-0.485-0.404-0.665-1.068-0.45-1.662c0.215-0.594,0.778-0.989,1.41-0.989h2.574l1.593-3.173
				c0.085-0.168,0.206-0.307,0.341-0.429V5.5c0-0.133-0.053-0.26-0.147-0.354l-4.999-5C11.76,0.053,11.633,0,11.5,0h-11
				C0.225,0,0,0.224,0,0.5v21C0,21.775,0.225,22,0.5,22h12.423L13.745,19.531z M11.5,0.5l5,5h-5V0.5z M5,6.5C5,6.224,5.224,6,5.5,6
				h2C7.776,6,8,6.224,8,6.5v2C8,8.776,7.776,9,7.5,9h-2C5.224,9,5,8.776,5,8.5V6.5z M8,11.5v2C8,13.775,7.776,14,7.5,14
				C7.224,14,7,13.775,7,13.5v-2C7,11.224,7.224,11,7.5,11C7.776,11,8,11.224,8,11.5z M3,6.5C3,6.224,3.224,6,3.5,6
				C3.776,6,4,6.224,4,6.5v2C4,8.776,3.776,9,3.5,9C3.224,9,3,8.776,3,8.5V6.5z M4,18.5C4,18.775,3.776,19,3.5,19
				C3.224,19,3,18.775,3,18.5v-2C3,16.225,3.224,16,3.5,16C3.776,16,4,16.225,4,16.5V18.5z M6,18.5C6,18.775,5.776,19,5.5,19
				C5.224,19,5,18.775,5,18.5v-2C5,16.225,5.224,16,5.5,16C5.776,16,6,16.225,6,16.5V18.5z M6,13.5C6,13.775,5.776,14,5.5,14h-2
				C3.224,14,3,13.775,3,13.5v-2C3,11.224,3.224,11,3.5,11h2C5.776,11,6,11.224,6,11.5V13.5z M10,18.5c0,0.275-0.224,0.5-0.5,0.5h-2
				C7.224,19,7,18.775,7,18.5v-2C7,16.225,7.224,16,7.5,16h2c0.276,0,0.5,0.225,0.5,0.5V18.5z M10,13.5c0,0.275-0.224,0.5-0.5,0.5
				C9.224,14,9,13.775,9,13.5v-2C9,11.224,9.224,11,9.5,11c0.276,0,0.5,0.224,0.5,0.5V13.5z M10,8.5C10,8.776,9.776,9,9.5,9
				C9.224,9,9,8.776,9,8.5v-2C9,6.224,9.224,6,9.5,6C9.776,6,10,6.224,10,6.5V8.5z"/>
			<rect x="6" y="7" width="1" height="1"/>
		</g>
		<path d="M23.963,16.329C23.893,16.131,23.704,16,23.493,16h-3.191l-1.853-3.724C18.363,12.107,18.191,12,18.002,12h-0.001
			c-0.189,0-0.362,0.105-0.446,0.275L15.685,16h-3.191c-0.211,0-0.398,0.131-0.47,0.329c-0.072,0.198-0.012,0.42,0.149,0.556
			l2.738,2.28l-1.393,4.177c-0.066,0.204,0.002,0.428,0.174,0.557c0.172,0.131,0.406,0.136,0.584,0.015l3.718-2.552l3.717,2.552
			C21.796,23.971,21.894,24,21.993,24c0.106,0,0.212-0.034,0.301-0.102c0.172-0.129,0.241-0.354,0.174-0.558l-1.393-4.177
			l2.737-2.28C23.975,16.749,24.035,16.527,23.963,16.329z"/>
	</g>
</g>
<g id="Outline_Icons">
	<g>
		
			<line fill="none" stroke="#000000" stroke-linecap="round" stroke-linejoin="round" stroke-miterlimit="10" x1="3.5" y1="6.5" x2="3.5" y2="8.5"/>
		
			<line fill="none" stroke="#000000" stroke-linecap="round" stroke-linejoin="round" stroke-miterlimit="10" x1="9.5" y1="6.5" x2="9.5" y2="8.5"/>
		
			<line fill="none" stroke="#000000" stroke-linecap="round" stroke-linejoin="round" stroke-miterlimit="10" x1="7.5" y1="11.5" x2="7.5" y2="13.5"/>
		
			<line fill="none" stroke="#000000" stroke-linecap="round" stroke-linejoin="round" stroke-miterlimit="10" x1="9.5" y1="11.5" x2="9.5" y2="13.5"/>
		
			<rect x="5.5" y="6.5" fill="none" stroke="#000000" stroke-linecap="round" stroke-linejoin="round" stroke-miterlimit="10" width="2" height="2"/>
		
			<rect x="3.5" y="11.5" fill="none" stroke="#000000" stroke-linecap="round" stroke-linejoin="round" stroke-miterlimit="10" width="2" height="2"/>
		
			<rect x="7.5" y="16.5" fill="none" stroke="#000000" stroke-linecap="round" stroke-linejoin="round" stroke-miterlimit="10" width="2" height="2"/>
		
			<line fill="none" stroke="#000000" stroke-linecap="round" stroke-linejoin="round" stroke-miterlimit="10" x1="3.5" y1="16.5" x2="3.5" y2="18.5"/>
		
			<line fill="none" stroke="#000000" stroke-linecap="round" stroke-linejoin="round" stroke-miterlimit="10" x1="5.5" y1="16.5" x2="5.5" y2="18.5"/>
		<g>
			<polygon fill="none" stroke="#000000" stroke-linejoin="round" stroke-miterlimit="10" points="18.008,12.498 20,16.498 
				23.5,16.498 20.5,18.998 22,23.499 18,20.752 14,23.5 15.5,18.998 12.5,16.498 16,16.498 			"/>
		</g>
		<g>
			<polyline fill="none" stroke="#000000" stroke-linejoin="round" stroke-miterlimit="10" points="12.492,21.5 0.5,21.5 0.5,0.5 
				11.5,0.5 16.5,5.5 16.5,11 			"/>
			<polyline fill="none" stroke="#000000" stroke-linecap="round" stroke-linejoin="round" stroke-miterlimit="10" points="
				11.5,0.5 11.5,5.5 16.5,5.5 			"/>
		</g>
	</g>
</g>
</svg>
