<?xml version="1.0" encoding="utf-8"?>
<!-- Generator: Adobe Illustrator 19.2.0, SVG Export Plug-In . SVG Version: 6.00 Build 0)  -->
<svg version="1.1" id="Layer_1" xmlns="http://www.w3.org/2000/svg" xmlns:xlink="http://www.w3.org/1999/xlink" x="0px" y="0px"
	 viewBox="0 0 24 24" enable-background="new 0 0 24 24" xml:space="preserve">
<g id="Filled_Icons" display="none">
	<g display="inline">
		<g>
			<rect x="8" y="17" width="1" height="1"/>
			<rect x="6" y="7" width="1" height="1"/>
			<path d="M10,17.534V18.5c0,0.275-0.224,0.5-0.5,0.5h-2C7.224,19,7,18.775,7,18.5v-2C7,16.225,7.224,16,7.5,16h2
				c0.276,0,0.5,0.225,0.5,0.5V17.534c0-3.968,3.098-7.216,7-7.475V5.5c0-0.133-0.053-0.26-0.147-0.354l-4.999-5
				C11.76,0.053,11.633,0,11.5,0h-11C0.225,0,0,0.224,0,0.5v21C0,21.775,0.225,22,0.5,22h10.988C10.558,20.751,10,19.208,10,17.534z
				 M8,13.5C8,13.775,7.776,14,7.5,14C7.224,14,7,13.775,7,13.5v-2C7,11.224,7.224,11,7.5,11C7.776,11,8,11.224,8,11.5V13.5z
				 M11.5,0.5l5,5h-5V0.5z M9,6.5C9,6.224,9.224,6,9.5,6C9.776,6,10,6.224,10,6.5v2C10,8.776,9.776,9,9.5,9C9.224,9,9,8.776,9,8.5
				V6.5z M9,11.5C9,11.224,9.224,11,9.5,11c0.276,0,0.5,0.224,0.5,0.5v2c0,0.275-0.224,0.5-0.5,0.5C9.224,14,9,13.775,9,13.5V11.5z
				 M5,6.5C5,6.224,5.224,6,5.5,6h2C7.776,6,8,6.224,8,6.5v2C8,8.776,7.776,9,7.5,9h-2C5.224,9,5,8.776,5,8.5V6.5z M3,6.5
				C3,6.224,3.224,6,3.5,6C3.776,6,4,6.224,4,6.5v2C4,8.776,3.776,9,3.5,9C3.224,9,3,8.776,3,8.5V6.5z M4,18.5
				C4,18.775,3.776,19,3.5,19C3.224,19,3,18.775,3,18.5v-2C3,16.225,3.224,16,3.5,16C3.776,16,4,16.225,4,16.5V18.5z M6,18.5
				C6,18.775,5.776,19,5.5,19C5.224,19,5,18.775,5,18.5v-2C5,16.225,5.224,16,5.5,16C5.776,16,6,16.225,6,16.5V18.5z M6,13.5
				C6,13.775,5.776,14,5.5,14h-2C3.224,14,3,13.775,3,13.5v-2C3,11.224,3.224,11,3.5,11h2C5.776,11,6,11.224,6,11.5V13.5z"/>
			<rect x="4" y="12" width="1" height="1"/>
		</g>
		<path d="M17.5,11c-3.584,0-6.5,2.916-6.5,6.5s2.916,6.5,6.5,6.5s6.5-2.916,6.5-6.5S21.084,11,17.5,11z M17.5,21.359
			c-0.328,0-0.593-0.266-0.593-0.594c0-0.326,0.265-0.593,0.593-0.593c0.327,0,0.593,0.267,0.593,0.593
			C18.093,21.094,17.827,21.359,17.5,21.359z M18,17.951v1.332c0,0.277-0.225,0.5-0.5,0.5c-0.275,0-0.5-0.223-0.5-0.5v-1.776
			c0-0.276,0.225-0.5,0.5-0.5c0.705,0,1.277-0.575,1.277-1.278c0-0.707-0.572-1.278-1.277-1.278c-0.705,0-1.277,0.571-1.277,1.278
			c0,0.275-0.225,0.5-0.5,0.5c-0.277,0-0.5-0.225-0.5-0.5c0-1.258,1.021-2.278,2.277-2.278c1.256,0,2.277,1.021,2.277,2.278
			C19.777,16.813,19.018,17.723,18,17.951z"/>
	</g>
</g>
<g id="Outline_Icons">
	<g>
		
			<line fill="none" stroke="#000000" stroke-linecap="round" stroke-linejoin="round" stroke-miterlimit="10" x1="3.5" y1="6.5" x2="3.5" y2="8.5"/>
		
			<line fill="none" stroke="#000000" stroke-linecap="round" stroke-linejoin="round" stroke-miterlimit="10" x1="9.5" y1="6.5" x2="9.5" y2="8.5"/>
		
			<line fill="none" stroke="#000000" stroke-linecap="round" stroke-linejoin="round" stroke-miterlimit="10" x1="7.5" y1="11.5" x2="7.5" y2="13.5"/>
		
			<line fill="none" stroke="#000000" stroke-linecap="round" stroke-linejoin="round" stroke-miterlimit="10" x1="9.5" y1="11.5" x2="9.5" y2="13.5"/>
		
			<rect x="5.5" y="6.5" fill="none" stroke="#000000" stroke-linecap="round" stroke-linejoin="round" stroke-miterlimit="10" width="2" height="2"/>
		
			<rect x="3.5" y="11.5" fill="none" stroke="#000000" stroke-linecap="round" stroke-linejoin="round" stroke-miterlimit="10" width="2" height="2"/>
		
			<rect x="7.5" y="16.5" fill="none" stroke="#000000" stroke-linecap="round" stroke-linejoin="round" stroke-miterlimit="10" width="2" height="2"/>
		
			<line fill="none" stroke="#000000" stroke-linecap="round" stroke-linejoin="round" stroke-miterlimit="10" x1="3.5" y1="16.5" x2="3.5" y2="18.5"/>
		
			<line fill="none" stroke="#000000" stroke-linecap="round" stroke-linejoin="round" stroke-miterlimit="10" x1="5.5" y1="16.5" x2="5.5" y2="18.5"/>
		<g>
			<g>
				<circle fill="none" stroke="#000000" stroke-linejoin="round" stroke-miterlimit="10" cx="17.5" cy="17.5" r="6"/>
				<g>
					<g>
						<path d="M17.5,20.175c-0.327,0-0.592,0.267-0.592,0.593c0,0.328,0.265,0.594,0.592,0.594c0.328,0,0.594-0.266,0.594-0.594
							S17.828,20.175,17.5,20.175L17.5,20.175z"/>
					</g>
				</g>
				<path fill="none" stroke="#000000" stroke-linecap="round" stroke-linejoin="round" stroke-miterlimit="10" d="M15.723,15.729
					c0-0.981,0.795-1.778,1.777-1.778c0.982,0,1.779,0.797,1.779,1.778c0,0.982-0.797,1.778-1.779,1.778v1.778"/>
			</g>
		</g>
		<g>
			<polyline fill="none" stroke="#000000" stroke-linejoin="round" stroke-miterlimit="10" points="11,21.5 0.5,21.5 0.5,0.5 
				11.5,0.5 16.5,5.5 16.5,10 			"/>
			<polyline fill="none" stroke="#000000" stroke-linecap="round" stroke-linejoin="round" stroke-miterlimit="10" points="
				11.5,0.5 11.5,5.5 16.5,5.5 			"/>
		</g>
	</g>
</g>
</svg>
