<?xml version="1.0" encoding="utf-8"?>
<!-- Generator: Adobe Illustrator 19.2.0, SVG Export Plug-In . SVG Version: 6.00 Build 0)  -->
<svg version="1.1" id="Layer_1" xmlns="http://www.w3.org/2000/svg" xmlns:xlink="http://www.w3.org/1999/xlink" x="0px" y="0px"
	 viewBox="0 0 24 24" enable-background="new 0 0 24 24" xml:space="preserve">
<g id="Filled_Icons" display="none">
	<g display="inline">
		<path d="M17.5,11c-3.584,0-6.5,2.916-6.5,6.5s2.916,6.5,6.5,6.5s6.5-2.916,6.5-6.5S21.084,11,17.5,11z M17.5,21.359
			c-0.328,0-0.593-0.266-0.593-0.594c0-0.326,0.265-0.593,0.593-0.593c0.327,0,0.593,0.267,0.593,0.593
			C18.093,21.094,17.827,21.359,17.5,21.359z M18,17.951v1.333c0,0.276-0.225,0.5-0.5,0.5c-0.275,0-0.5-0.224-0.5-0.5v-1.777
			c0-0.276,0.225-0.5,0.5-0.5c0.705,0,1.277-0.573,1.277-1.278S18.205,14.45,17.5,14.45c-0.705,0-1.277,0.573-1.277,1.278
			c0,0.275-0.225,0.5-0.5,0.5c-0.277,0-0.5-0.225-0.5-0.5c0-1.258,1.021-2.278,2.277-2.278c1.256,0,2.277,1.021,2.277,2.278
			C19.777,16.813,19.018,17.723,18,17.951z"/>
		<path d="M10.025,18H3.5C3.224,18,3,17.775,3,17.5v-10C3,7.224,3.224,7,3.5,7C3.776,7,4,7.224,4,7.5v4.793l1.896-1.896
			c0.195-0.195,0.512-0.195,0.707,0l1.646,1.646l2.896-2.896c0.195-0.195,0.512-0.195,0.707,0c0.195,0.195,0.195,0.512,0,0.707
			l-3.25,3.25c-0.195,0.195-0.512,0.195-0.707,0L6.25,11.457L4,13.707V17h6.025c0.248-3.736,3.239-6.727,6.975-6.975V5.5
			c0-0.133-0.053-0.26-0.147-0.354l-4.999-5C11.76,0.053,11.633,0,11.5,0h-11C0.225,0,0,0.224,0,0.5v21C0,21.775,0.225,22,0.5,22
			h11.014C10.663,20.87,10.125,19.496,10.025,18z M11.5,0.5l5,5h-5V0.5z"/>
	</g>
</g>
<g id="Outline_Icons">
	<g>
		<g>
			<g>
				<circle fill="none" stroke="#000000" stroke-linejoin="round" stroke-miterlimit="10" cx="17.5" cy="17.5" r="6"/>
				<g>
					<g>
						<path d="M17.5,20.175c-0.328,0-0.593,0.267-0.593,0.593c0,0.328,0.265,0.594,0.593,0.594c0.327,0,0.593-0.266,0.593-0.594
							S17.827,20.175,17.5,20.175L17.5,20.175z"/>
					</g>
				</g>
				<path fill="none" stroke="#000000" stroke-linecap="round" stroke-linejoin="round" stroke-miterlimit="10" d="M15.723,15.729
					c0-0.981,0.795-1.778,1.777-1.778c0.98,0,1.777,0.797,1.777,1.778c0,0.982-0.797,1.778-1.777,1.778v1.778"/>
			</g>
		</g>
		<g>
			<polyline fill="none" stroke="#000000" stroke-linejoin="round" stroke-miterlimit="10" points="11,21.5 0.5,21.5 0.5,0.5 
				11.5,0.5 16.5,5.5 16.5,10 			"/>
			<polyline fill="none" stroke="#000000" stroke-linecap="round" stroke-linejoin="round" stroke-miterlimit="10" points="
				11.5,0.5 11.5,5.5 16.5,5.5 			"/>
		</g>
		<g>
			<polyline fill="none" stroke="#000000" stroke-linecap="round" stroke-linejoin="round" stroke-miterlimit="10" points="3.5,7.5 
				3.5,17.5 9.5,17.5 			"/>
			<polyline fill="none" stroke="#000000" stroke-linecap="round" stroke-linejoin="round" stroke-miterlimit="10" points="
				3.5,13.5 6.25,10.75 8.25,12.75 11.5,9.5 			"/>
		</g>
	</g>
</g>
</svg>
