<?xml version="1.0" encoding="utf-8"?>
<!-- Generator: Adobe Illustrator 19.2.0, SVG Export Plug-In . SVG Version: 6.00 Build 0)  -->
<svg version="1.1" id="Layer_1" xmlns="http://www.w3.org/2000/svg" xmlns:xlink="http://www.w3.org/1999/xlink" x="0px" y="0px"
	 viewBox="0 0 24 24" enable-background="new 0 0 24 24" xml:space="preserve">
<g id="Filled_Icons" display="none">
	<g display="inline">
		<path d="M19.853,6.146l-6-6C13.76,0.053,13.632,0,13.5,0h-13C0.224,0,0,0.224,0,0.5v23C0,23.775,0.224,24,0.5,24h19
			c0.275,0,0.5-0.225,0.5-0.5v-17C20,6.367,19.947,6.24,19.853,6.146z M15.727,16.902L14.458,19.1
			c-0.067,0.115-0.179,0.2-0.308,0.232c-0.129,0.034-0.269,0.016-0.383-0.055l-0.92-0.553c-0.289,0.215-0.647,0.424-1.08,0.631V20.5
			c0,0.275-0.224,0.5-0.5,0.5H8.729c-0.276,0-0.5-0.225-0.5-0.5v-1.081c-0.55-0.176-0.896-0.424-1.208-0.694l-1.01,0.562
			C5.773,19.42,5.472,19.335,5.335,19.1l-1.269-2.197C4,16.787,3.983,16.65,4.017,16.522c0.035-0.127,0.119-0.237,0.233-0.303
			l0.967-0.557c-0.063-0.441-0.063-0.879,0.002-1.324l-0.958-0.557c-0.115-0.066-0.198-0.176-0.232-0.303
			c-0.034-0.129-0.016-0.267,0.051-0.381L5.361,10.9c0.138-0.237,0.439-0.318,0.678-0.183l0.985,0.557
			c0.313-0.272,0.66-0.517,1.205-0.691V9.5c0-0.276,0.224-0.5,0.5-0.5h2.539c0.276,0,0.5,0.224,0.5,0.5v1.145
			c0.433,0.207,0.79,0.415,1.08,0.63l0.92-0.552c0.116-0.069,0.252-0.09,0.383-0.055c0.131,0.033,0.242,0.117,0.309,0.234
			l1.269,2.198c0.065,0.114,0.084,0.25,0.049,0.379c-0.033,0.127-0.117,0.237-0.232,0.303l-0.964,0.557
			c0.063,0.441,0.063,0.879,0,1.324l0.964,0.557C15.783,16.356,15.865,16.662,15.727,16.902z M13.5,6.5v-6l6,6H13.5z"/>
		<circle cx="9.897" cy="15" r="1.692"/>
	</g>
</g>
<g id="Outline_Icons">
	<g>
		<g>
			<path fill="none" stroke="#000000" stroke-linejoin="round" stroke-miterlimit="10" d="M14.025,18.881l1.268-2.197l-1.268-0.732
				c0.132-0.6,0.142-1.198-0.002-1.838l1.271-0.731l-1.268-2.198l-1.223,0.733c-0.45-0.413-1.113-0.733-1.535-0.919V9.532H8.729
				v1.465c-0.846,0.186-1.188,0.506-1.637,0.92l-1.299-0.734l-1.281,2.198l1.262,0.732c-0.131,0.593-0.145,1.193-0.002,1.837
				L4.5,16.684l1.269,2.198l1.322-0.733c0.451,0.414,0.793,0.733,1.639,0.92v1.465h2.539v-1.465c0.422-0.187,1.085-0.508,1.536-0.92
				L14.025,18.881z"/>
			<circle fill="none" stroke="#000000" stroke-linejoin="round" stroke-miterlimit="10" cx="9.897" cy="15.032" r="1.692"/>
		</g>
		<g>
			<polygon fill="none" stroke="#000000" stroke-linecap="round" stroke-linejoin="round" stroke-miterlimit="10" points="
				19.5,23.531 0.5,23.531 0.5,0.532 13.5,0.532 19.5,6.532 			"/>
			<polyline fill="none" stroke="#000000" stroke-linecap="round" stroke-linejoin="round" stroke-miterlimit="10" points="
				13.5,0.532 13.5,6.532 19.5,6.532 			"/>
		</g>
	</g>
</g>
</svg>
