<?xml version="1.0" encoding="utf-8"?>
<!-- Generator: Adobe Illustrator 19.2.0, SVG Export Plug-In . SVG Version: 6.00 Build 0)  -->
<svg version="1.1" id="Layer_1" xmlns="http://www.w3.org/2000/svg" xmlns:xlink="http://www.w3.org/1999/xlink" x="0px" y="0px"
	 viewBox="0 0 24 24" enable-background="new 0 0 24 24" xml:space="preserve">
<g id="Filled_Icons" display="none">
	<g display="inline">
		<g>
			<rect x="14.109" y="16.231" transform="matrix(0.7071 -0.7071 0.7071 0.7071 -7.9552 17.7929)" width="6.781" height="4.535"/>
			<path d="M12.937,20.147l-0.918,3.217c-0.05,0.174-0.001,0.361,0.127,0.49C12.242,23.949,12.369,24,12.5,24
				c0.046,0,0.092-0.006,0.137-0.019l3.217-0.918L12.937,20.147z"/>
			<path d="M23.855,14.645l-2.5-2.5c-0.195-0.195-0.513-0.195-0.707,0l-1.646,1.646l3.207,3.207l1.646-1.646
				C24.051,15.156,24.051,14.84,23.855,14.645z"/>
		</g>
		<path d="M12.057,19.588c0.07-0.244,0.202-0.468,0.382-0.648L17,14.379V5.5c0-0.133-0.053-0.26-0.147-0.354l-4.999-5
			C11.76,0.053,11.632,0,11.5,0h-11C0.224,0,0,0.224,0,0.5v21C0,21.775,0.224,22,0.5,22h10.868L12.057,19.588z M11.5,0.5l5,5h-5V0.5
			z M9,10h4c0.275,0,0.5,0.224,0.5,0.5c0,0.276-0.225,0.5-0.5,0.5H9c-0.276,0-0.5-0.224-0.5-0.5C8.5,10.224,8.724,10,9,10z
			 M7.854,12.868l-2.5,2.5C5.256,15.466,5.128,15.516,5,15.516c-0.128,0-0.256-0.05-0.354-0.147l-1.5-1.5
			c-0.195-0.195-0.195-0.512,0-0.707c0.195-0.195,0.512-0.195,0.707,0L5,14.309l2.146-2.146c0.195-0.195,0.512-0.195,0.707,0
			C8.048,12.357,8.049,12.673,7.854,12.868z M7.854,8.854l-2.5,2.5C5.256,11.451,5.128,11.5,5,11.5
			c-0.128,0-0.256-0.049-0.354-0.146l-1.5-1.5c-0.195-0.195-0.195-0.512,0-0.707c0.195-0.195,0.512-0.195,0.707,0L5,10.293
			l2.146-2.146c0.195-0.195,0.512-0.195,0.707,0C8.048,8.342,8.049,8.658,7.854,8.854z M8.5,14.5C8.5,14.225,8.724,14,9,14h4
			c0.275,0,0.5,0.225,0.5,0.5c0,0.275-0.225,0.5-0.5,0.5H9C8.724,15,8.5,14.775,8.5,14.5z"/>
	</g>
</g>
<g id="Outline_Icons">
	<g>
		<g>
			<polygon fill="none" stroke="#000000" stroke-linecap="round" stroke-linejoin="round" stroke-miterlimit="10" points="
				15.999,22.5 12.499,23.5 13.499,20 21,12.5 23.5,15 			"/>
			<line fill="none" stroke="#000000" stroke-linejoin="round" stroke-miterlimit="10" x1="19" y1="14.5" x2="21.5" y2="17"/>
			
				<line fill="none" stroke="#000000" stroke-linecap="round" stroke-linejoin="round" stroke-miterlimit="10" x1="13.499" y1="20" x2="15.999" y2="22.5"/>
			
				<line fill="none" stroke="#000000" stroke-linecap="round" stroke-linejoin="round" stroke-miterlimit="10" x1="9" y1="10.5" x2="13" y2="10.5"/>
			
				<line fill="none" stroke="#000000" stroke-linecap="round" stroke-linejoin="round" stroke-miterlimit="10" x1="9" y1="14.5" x2="13" y2="14.5"/>
			<polyline fill="none" stroke="#000000" stroke-linecap="round" stroke-linejoin="round" stroke-miterlimit="10" points="7.5,8.5 
				5,11 3.5,9.5 			"/>
			<polyline fill="none" stroke="#000000" stroke-linecap="round" stroke-linejoin="round" stroke-miterlimit="10" points="
				7.5,12.516 5,15.016 3.5,13.516 			"/>
		</g>
		<g>
			<polyline fill="none" stroke="#000000" stroke-linejoin="round" stroke-miterlimit="10" points="9,21.5 0.5,21.5 0.5,0.5 
				11.499,0.5 16.5,5.5 16.5,13 			"/>
			<polyline fill="none" stroke="#000000" stroke-linecap="round" stroke-linejoin="round" stroke-miterlimit="10" points="
				11.499,0.5 11.5,5.5 16.5,5.5 			"/>
		</g>
	</g>
</g>
</svg>
