<?xml version="1.0" encoding="utf-8"?>
<!-- Generator: Adobe Illustrator 19.2.0, SVG Export Plug-In . SVG Version: 6.00 Build 0)  -->
<svg version="1.1" id="Layer_1" xmlns="http://www.w3.org/2000/svg" xmlns:xlink="http://www.w3.org/1999/xlink" x="0px" y="0px"
	 viewBox="0 0 24 24" enable-background="new 0 0 24 24" xml:space="preserve">
<g id="Filled_Icons" display="none">
	<g display="inline">
		<path d="M23.893,23.166l-5.945-11.89c-0.17-0.339-0.725-0.339-0.895,0l-5.999,12c-0.077,0.156-0.069,0.34,0.021,0.488
			C11.166,23.91,11.327,24,11.5,24h12c0.007,0,0.016,0,0.019,0c0.276,0,0.5-0.225,0.5-0.5
			C24.019,23.371,23.973,23.254,23.893,23.166z M17.5,22c-0.275,0-0.5-0.225-0.5-0.5c0-0.275,0.225-0.5,0.5-0.5
			c0.275,0,0.5,0.225,0.5,0.5C18,21.775,17.775,22,17.5,22z M18,19.682c0,0.275-0.225,0.5-0.5,0.5c-0.275,0-0.5-0.225-0.5-0.5
			v-3.272c0-0.275,0.225-0.5,0.5-0.5c0.275,0,0.5,0.225,0.5,0.5V19.682z"/>
		<g>
			<rect x="6" y="8" width="1" height="8"/>
			<rect x="4" y="13" width="1" height="3"/>
			<rect x="8" y="11" width="1" height="5"/>
			<path d="M16.158,10.829c0.176-0.352,0.482-0.604,0.842-0.733V5.5c0-0.133-0.053-0.26-0.147-0.354l-4.999-5
				C11.76,0.053,11.633,0,11.5,0h-11C0.225,0,0,0.224,0,0.5v21C0,21.775,0.225,22,0.5,22h10.072L16.158,10.829z M11.5,0.5l5,5h-5
				V0.5z M9.5,17h-7C2.224,17,2,16.775,2,16.5C2,16.225,2.224,16,2.5,16H3v-3.5C3,12.224,3.224,12,3.5,12H5V7.5
				C5,7.224,5.224,7,5.5,7h2C7.776,7,8,7.224,8,7.5V10h1.5c0.276,0,0.5,0.224,0.5,0.5v6C10,16.775,9.776,17,9.5,17z"/>
		</g>
	</g>
</g>
<g id="Outline_Icons">
	<g>
		<g>
			<polygon fill="none" stroke="#000000" stroke-linecap="round" stroke-linejoin="round" stroke-miterlimit="10" points="
				23.5,23.5 11.5,23.5 17.5,11.5 			"/>
			
				<line fill="none" stroke="#000000" stroke-linecap="round" stroke-linejoin="round" stroke-miterlimit="10" x1="17.5" y1="16.41" x2="17.5" y2="19.682"/>
			<g>
				<path d="M17.5,21c-0.275,0-0.5,0.223-0.5,0.5c0,0.275,0.225,0.5,0.5,0.5c0.275,0,0.5-0.225,0.5-0.5C18,21.223,17.775,21,17.5,21
					L17.5,21z"/>
			</g>
		</g>
		<g>
			<polyline fill="none" stroke="#000000" stroke-linejoin="round" stroke-miterlimit="10" points="11,21.5 0.5,21.5 0.5,0.5 
				11.5,0.5 16.5,5.5 16.5,10 			"/>
			<polyline fill="none" stroke="#000000" stroke-linecap="round" stroke-linejoin="round" stroke-miterlimit="10" points="
				11.5,0.5 11.5,5.5 16.5,5.5 			"/>
		</g>
		<g>
			
				<rect x="3.5" y="12.5" fill="none" stroke="#000000" stroke-linecap="round" stroke-linejoin="round" stroke-miterlimit="10" width="2" height="4"/>
			
				<rect x="7.5" y="10.5" fill="none" stroke="#000000" stroke-linecap="round" stroke-linejoin="round" stroke-miterlimit="10" width="2" height="6"/>
			
				<rect x="5.5" y="7.5" fill="none" stroke="#000000" stroke-linecap="round" stroke-linejoin="round" stroke-miterlimit="10" width="2" height="9"/>
			
				<line fill="none" stroke="#000000" stroke-linecap="round" stroke-linejoin="round" stroke-miterlimit="10" x1="2.5" y1="16.5" x2="9.5" y2="16.5"/>
		</g>
	</g>
</g>
</svg>
