<?xml version="1.0" encoding="utf-8"?>
<!-- Generator: Adobe Illustrator 19.2.0, SVG Export Plug-In . SVG Version: 6.00 Build 0)  -->
<svg version="1.1" id="Layer_1" xmlns="http://www.w3.org/2000/svg" xmlns:xlink="http://www.w3.org/1999/xlink" x="0px" y="0px"
	 viewBox="0 0 24 24" enable-background="new 0 0 24 24" xml:space="preserve">
<g id="Filled_Icons" display="none">
	<g display="inline">
		<g>
			<path d="M21,14.707L14.707,21c0.77,0.616,1.732,1,2.793,1c2.48,0,4.5-2.018,4.5-4.5C22,16.44,21.616,15.479,21,14.707z"/>
			<path d="M20.293,14c-0.77-0.615-1.733-1-2.793-1c-2.481,0-4.5,2.02-4.5,4.5c0,1.061,0.384,2.023,1,2.793L20.293,14z"/>
			<path d="M17.5,11c-3.584,0-6.5,2.916-6.5,6.5s2.916,6.5,6.5,6.5s6.5-2.916,6.5-6.5S21.084,11,17.5,11z M17.5,23
				c-3.033,0-5.5-2.467-5.5-5.5c0-3.033,2.467-5.5,5.5-5.5c3.033,0,5.5,2.467,5.5,5.5C23,20.533,20.533,23,17.5,23z"/>
		</g>
		<path d="M10,17.5c0-3.967,3.098-7.215,7-7.474V5.5c0-0.133-0.053-0.26-0.147-0.354l-4.999-5C11.76,0.053,11.633,0,11.5,0h-11
			C0.225,0,0,0.224,0,0.5v21C0,21.775,0.225,22,0.5,22h11.014C10.568,20.745,10,19.19,10,17.5z M11.5,0.5l5,5h-5V0.5z M9,13.5
			c0,0.025-0.011,0.049-0.015,0.075C8.987,13.611,9,13.648,9,13.688c0,1.227-1.317,2.186-3,2.186c-1.683,0-3-0.96-3-2.186
			C3,12.46,4.317,11.5,6,11.5c0.779,0,1.472,0.212,2,0.555V6.496c0-0.193,0.112-0.371,0.288-0.452
			C8.464,5.962,8.671,5.988,8.82,6.112l3,2.504c0.212,0.177,0.24,0.492,0.063,0.704c-0.177,0.213-0.492,0.24-0.704,0.064L9,7.564
			V13.5z"/>
	</g>
</g>
<g id="Outline_Icons">
	<g>
		<circle fill="none" stroke="#000000" stroke-linejoin="round" stroke-miterlimit="10" cx="17.49" cy="17.533" r="6"/>
		
			<line fill="none" stroke="#000000" stroke-linejoin="round" stroke-miterlimit="10" x1="13.25" y1="21.773" x2="21.732" y2="13.292"/>
		<g>
			<polyline fill="none" stroke="#000000" stroke-linejoin="round" stroke-miterlimit="10" points="11,21.5 0.5,21.5 0.5,0.5 
				11.5,0.5 16.5,5.5 16.5,10 			"/>
			<polyline fill="none" stroke="#000000" stroke-linecap="round" stroke-linejoin="round" stroke-miterlimit="10" points="
				11.5,0.5 11.5,5.5 16.5,5.5 			"/>
		</g>
		<g>
			
				<ellipse fill="none" stroke="#000000" stroke-linecap="round" stroke-linejoin="round" stroke-miterlimit="10" cx="5.99" cy="13.69" rx="2.5" ry="1.687"/>
			<polyline fill="none" stroke="#000000" stroke-linecap="round" stroke-linejoin="round" stroke-miterlimit="10" points="
				8.5,13.502 8.521,6.5 11.49,9.002 			"/>
		</g>
	</g>
</g>
</svg>
