<?xml version="1.0" encoding="utf-8"?>
<!-- Generator: Adobe Illustrator 19.2.0, SVG Export Plug-In . SVG Version: 6.00 Build 0)  -->
<svg version="1.1" id="Layer_1" xmlns="http://www.w3.org/2000/svg" xmlns:xlink="http://www.w3.org/1999/xlink" x="0px" y="0px"
	 viewBox="0 0 24 24" enable-background="new 0 0 24 24" xml:space="preserve">
<g id="Filled_Icons" display="none">
	<g display="inline">
		<path d="M17,5.5c0-0.133-0.053-0.26-0.147-0.354l-4.999-5C11.76,0.053,11.632,0,11.5,0h-11C0.224,0,0,0.224,0,0.5v21
			C0,21.775,0.224,22,0.5,22h10.073L17,9.146V5.5z M11.5,5.5v-5l5,5H11.5z"/>
		<path d="M23.984,23.354l-6.039-12.079c-0.17-0.337-0.723-0.337-0.893,0l-6,12.002c-0.077,0.154-0.068,0.339,0.022,0.486
			C11.166,23.911,11.327,24,11.5,24h12c0.003-0.001,0.006-0.001,0.01,0C23.839,24,24.09,23.682,23.984,23.354z M17,16.409
			c0-0.276,0.225-0.5,0.5-0.5c0.275,0,0.5,0.224,0.5,0.5v3.272c0,0.275-0.225,0.5-0.5,0.5c-0.275,0-0.5-0.225-0.5-0.5V16.409z
			 M17.5,21.863c-0.301,0-0.545-0.244-0.545-0.545c0-0.301,0.244-0.547,0.545-0.547c0.301,0,0.545,0.246,0.545,0.547
			C18.045,21.619,17.801,21.863,17.5,21.863z"/>
	</g>
</g>
<g id="Outline_Icons">
	<g>
		<polyline fill="none" stroke="#000000" stroke-linejoin="round" stroke-miterlimit="10" points="10.5,21.5 0.5,21.5 0.5,0.5 
			11.5,0.5 16.5,5.5 16.5,9.5 		"/>
		<polyline fill="none" stroke="#000000" stroke-linecap="round" stroke-linejoin="round" stroke-miterlimit="10" points="11.5,0.5 
			11.5,5.5 16.5,5.5 		"/>
		<polygon fill="none" stroke="#000000" stroke-linecap="round" stroke-linejoin="round" stroke-miterlimit="10" points="23.5,23.5 
			11.5,23.5 17.5,11.5 		"/>
		
			<line fill="none" stroke="#000000" stroke-linecap="round" stroke-linejoin="round" stroke-miterlimit="10" x1="17.5" y1="16.409" x2="17.5" y2="19.682"/>
		<g>
			<g>
				<path d="M17.5,20.772c-0.301,0-0.545,0.246-0.545,0.547c0,0.302,0.244,0.545,0.545,0.545c0.303,0,0.545-0.243,0.545-0.545
					C18.045,21.018,17.803,20.772,17.5,20.772L17.5,20.772z"/>
			</g>
		</g>
	</g>
</g>
</svg>
