<?xml version="1.0" encoding="utf-8"?>
<!-- Generator: Adobe Illustrator 19.2.0, SVG Export Plug-In . SVG Version: 6.00 Build 0)  -->
<svg version="1.1" id="Layer_1" xmlns="http://www.w3.org/2000/svg" xmlns:xlink="http://www.w3.org/1999/xlink" x="0px" y="0px"
	 viewBox="0 0 24 24" enable-background="new 0 0 24 24" xml:space="preserve">
<g id="Filled_Icons" display="none">
	<g display="inline">
		<path d="M9.75,18.195l1.15-0.664c-0.037-0.281-0.056-0.559-0.056-0.826c0-0.273,0.019-0.546,0.056-0.828l-1.148-0.664
			c-0.239-0.139-0.321-0.445-0.183-0.684l1.992-3.446c0.138-0.239,0.443-0.322,0.682-0.182l1.159,0.666
			c0.506-0.375,1.146-0.726,1.672-0.956V9.5c0-0.277,0.224-0.5,0.5-0.5H17V5.5c0-0.133-0.053-0.26-0.147-0.354l-4.999-5
			C11.76,0.052,11.632,0,11.5,0h-11C0.224,0,0,0.223,0,0.5v21C0,21.775,0.224,22,0.5,22h10.868l-1.801-3.121
			C9.429,18.641,9.511,18.334,9.75,18.195z M11.5,0.5l5,5h-5V0.5z"/>
		<path d="M22.928,18.227c-0.183-0.106-0.279-0.316-0.242-0.524c0.064-0.338,0.096-0.674,0.096-0.997
			c0-0.325-0.032-0.651-0.096-0.998c-0.039-0.208,0.059-0.418,0.241-0.524l1.015-0.586l-1.489-2.579l-1.005,0.585
			c-0.184,0.106-0.415,0.086-0.577-0.053l-0.168-0.145c-0.476-0.41-0.925-0.798-1.437-0.987c-0.195-0.073-0.326-0.26-0.326-0.469V10
			h-2.867v0.95c0,0.209-0.129,0.396-0.325,0.469c-0.657,0.244-1.507,0.73-1.978,1.132c-0.16,0.139-0.39,0.16-0.574,0.055
			l-1.019-0.587L10.684,14.6l1.014,0.584c0.183,0.106,0.279,0.317,0.241,0.524c-0.064,0.349-0.096,0.675-0.096,0.998
			c0,0.323,0.031,0.649,0.095,0.997c0.039,0.208-0.058,0.418-0.241,0.524l-1.015,0.586l1.49,2.58l1.023-0.588
			c0.184-0.104,0.414-0.084,0.574,0.053c0.461,0.395,1.754,0.959,2.461,1.224c0.196,0.071,0.326,0.259,0.326,0.468V23.5h2.383
			v-0.951c0-0.208,0.129-0.396,0.326-0.468c0.426-0.159,0.834-0.53,1.229-0.888c0.125-0.114,0.25-0.229,0.375-0.336
			c0.16-0.139,0.393-0.158,0.576-0.053l1.01,0.586l1.486-2.58L22.928,18.227z M17.312,19.857c-1.738,0-3.152-1.414-3.152-3.151
			c0-1.739,1.414-3.153,3.152-3.153s3.152,1.414,3.152,3.153C20.464,18.443,19.05,19.857,17.312,19.857z"/>
	</g>
</g>
<g id="Outline_Icons">
	<g>
		<polyline fill="none" stroke="#000000" stroke-linejoin="round" stroke-miterlimit="10" points="9,21.5 0.5,21.5 0.5,0.5 
			11.5,0.5 16.5,5.5 16.5,9 		"/>
		<polyline fill="none" stroke="#000000" stroke-linecap="round" stroke-linejoin="round" stroke-miterlimit="10" points="11.5,0.5 
			11.5,5.5 16.5,5.5 		"/>
		<path fill="none" stroke="#000000" stroke-linejoin="round" stroke-miterlimit="10" d="M16.5,13.762
			c-0.5,0.186-1.014,0.465-1.428,0.82l-1.096-0.63l-1.502,2.598l1.089,0.632c-0.049,0.266-0.078,0.539-0.078,0.819
			c0,0.28,0.029,0.556,0.078,0.819l-1.091,0.632l1.5,2.598l1.1-0.63c0.414,0.356,0.928,0.635,1.428,0.82v1.26h3v-1.262
			c0.5-0.186,1-0.465,1.415-0.819l1.089,0.63l1.498-2.598l-1.093-0.631c0.049-0.266,0.077-0.541,0.077-0.82
			c0-0.279-0.029-0.555-0.078-0.82l1.092-0.631L22,13.951l-1.085,0.63C20.5,14.227,20,13.947,19.5,13.762V12.5h-3V13.762z"/>
		<circle fill="none" stroke="#000000" stroke-linejoin="round" stroke-miterlimit="10" cx="17.986" cy="18" r="2"/>
	</g>
</g>
</svg>
