<?xml version="1.0" encoding="utf-8"?>
<!-- Generator: Adobe Illustrator 19.2.0, SVG Export Plug-In . SVG Version: 6.00 Build 0)  -->
<svg version="1.1" id="Layer_1" xmlns="http://www.w3.org/2000/svg" xmlns:xlink="http://www.w3.org/1999/xlink" x="0px" y="0px"
	 viewBox="0 0 24 24" enable-background="new 0 0 24 24" xml:space="preserve">
<g id="Filled_Icons" display="none">
	<path display="inline" d="M17.853,6.146l-5.999-6C11.76,0.053,11.633,0,11.5,0h-11C0.225,0,0,0.224,0,0.5v23
		C0,23.775,0.225,24,0.5,24h17c0.275,0,0.5-0.225,0.5-0.5v-17C18,6.367,17.947,6.24,17.853,6.146z M14.5,20h-11
		C3.225,20,3,19.775,3,19.5V8c0-0.276,0.225-0.5,0.5-0.5C3.775,7.5,4,7.724,4,8v7.293l3.146-3.146
		c0.168-0.169,0.432-0.195,0.631-0.063l2.647,1.766l3.46-3.69c0.189-0.202,0.507-0.212,0.707-0.023
		c0.201,0.189,0.212,0.506,0.023,0.707l-3.749,4c-0.168,0.178-0.439,0.211-0.643,0.073l-2.658-1.772L4,16.707V19h10.5
		c0.275,0,0.5,0.225,0.5,0.5C15,19.775,14.775,20,14.5,20z M11.5,6.5v-6l6,6H11.5z"/>
</g>
<g id="Outline_Icons">
	<g>
		<polygon fill="none" stroke="#000000" stroke-linecap="round" stroke-linejoin="round" stroke-miterlimit="10" points="17.5,23.5 
			0.5,23.5 0.5,0.5 11.5,0.5 17.5,6.5 		"/>
		<polyline fill="none" stroke="#000000" stroke-linecap="round" stroke-linejoin="round" stroke-miterlimit="10" points="11.5,0.5 
			11.5,6.5 17.5,6.5 		"/>
		<polyline fill="none" stroke="#000000" stroke-linecap="round" stroke-linejoin="round" stroke-miterlimit="10" points="3.5,16.5 
			7.5,12.5 10.5,14.5 14.25,10.5 		"/>
		<polyline fill="none" stroke="#000000" stroke-linecap="round" stroke-linejoin="round" stroke-miterlimit="10" points="3.5,8 
			3.5,19.5 14.5,19.5 		"/>
	</g>
</g>
</svg>
