<?xml version="1.0" encoding="utf-8"?>
<!-- Generator: Adobe Illustrator 19.2.0, SVG Export Plug-In . SVG Version: 6.00 Build 0)  -->
<svg version="1.1" id="Outline_Icons" xmlns="http://www.w3.org/2000/svg" xmlns:xlink="http://www.w3.org/1999/xlink" x="0px"
	 y="0px" viewBox="0 0 24 24" enable-background="new 0 0 24 24" xml:space="preserve">
<g>
	<g>
		<path fill="none" stroke="#000000" stroke-linecap="round" stroke-linejoin="round" stroke-miterlimit="10" d="M6.019,17.315
			c0,0-0.094,1.24,1.24,1.24c1.311,0,1.24-1.197,1.24-1.197V13.5"/>
		<path fill="none" stroke="#000000" stroke-linecap="round" stroke-linejoin="round" stroke-miterlimit="10" d="M11.024,17.345
			c0.041,0.691,0.58,1.24,1.239,1.24c0.687,0,1.241-0.594,1.241-1.326c0-1.08-1.021-1.262-1.239-1.324
			c-0.217-0.062-1.241-0.246-1.241-1.324c0-0.733,0.556-1.11,1.241-1.11c0.659,0,1.198,0.333,1.239,1.024"/>
	</g>
	<g>
		<g>
			<polygon fill="none" stroke="#000000" stroke-linecap="round" stroke-linejoin="round" stroke-miterlimit="10" points="
				19.5,23.5 0.5,23.5 0.5,0.5 13.5,0.5 19.5,6.5 			"/>
			<polyline fill="none" stroke="#000000" stroke-linecap="round" stroke-linejoin="round" stroke-miterlimit="10" points="
				13.5,0.5 13.5,6.5 19.5,6.5 			"/>
		</g>
	</g>
</g>
</svg>
