<?xml version="1.0" encoding="utf-8"?>
<!-- Generator: Adobe Illustrator 19.2.0, SVG Export Plug-In . SVG Version: 6.00 Build 0)  -->
<svg version="1.1" id="Layer_1" xmlns="http://www.w3.org/2000/svg" xmlns:xlink="http://www.w3.org/1999/xlink" x="0px" y="0px"
	 viewBox="0 0 24 24" enable-background="new 0 0 24 24" xml:space="preserve">
<g id="Filled_Icons" display="none">
	<g display="inline">
		<path d="M16.158,10.829c0.176-0.352,0.482-0.605,0.842-0.733V5.5c0-0.133-0.053-0.26-0.147-0.354l-4.999-5
			C11.76,0.053,11.633,0,11.5,0h-11C0.225,0,0,0.224,0,0.5v21C0,21.775,0.225,22,0.5,22h10.072L16.158,10.829z M11.5,0.5l5,5h-5V0.5
			z M9,13.688c0,1.227-1.317,2.186-3,2.186c-1.683,0-3-0.96-3-2.186C3,12.46,4.317,11.5,6,11.5c0.779,0,1.472,0.212,2,0.555V6.496
			c0-0.193,0.112-0.371,0.288-0.452C8.464,5.962,8.671,5.988,8.82,6.112l3,2.504c0.212,0.177,0.24,0.492,0.063,0.704
			c-0.177,0.213-0.492,0.24-0.704,0.064L9,7.564V13.5c0,0.025-0.011,0.049-0.015,0.075C8.987,13.611,9,13.648,9,13.688z"/>
		<path d="M23.893,23.166l-5.945-11.89c-0.17-0.339-0.725-0.339-0.895,0l-5.999,12c-0.077,0.156-0.069,0.34,0.021,0.486
			C11.166,23.911,11.327,24,11.5,24h12c0.007,0,0.016,0,0.019,0c0.276,0,0.5-0.225,0.5-0.5
			C24.019,23.372,23.973,23.254,23.893,23.166z M17.5,22c-0.275,0-0.5-0.225-0.5-0.5c0-0.277,0.225-0.5,0.5-0.5
			c0.275,0,0.5,0.223,0.5,0.5C18,21.775,17.775,22,17.5,22z M18,19.682c0,0.275-0.225,0.5-0.5,0.5c-0.275,0-0.5-0.225-0.5-0.5
			v-3.273c0-0.276,0.225-0.5,0.5-0.5c0.275,0,0.5,0.224,0.5,0.5V19.682z"/>
	</g>
</g>
<g id="Outline_Icons">
	<g>
		<g>
			<polygon fill="none" stroke="#000000" stroke-linecap="round" stroke-linejoin="round" stroke-miterlimit="10" points="
				23.5,23.5 11.5,23.5 17.5,11.5 			"/>
			
				<line fill="none" stroke="#000000" stroke-linecap="round" stroke-linejoin="round" stroke-miterlimit="10" x1="17.5" y1="16.408" x2="17.5" y2="19.682"/>
			<g>
				<path d="M17.5,21c-0.275,0-0.5,0.223-0.5,0.5c0,0.275,0.225,0.5,0.5,0.5c0.275,0,0.5-0.225,0.5-0.5C18,21.223,17.775,21,17.5,21
					L17.5,21z"/>
			</g>
		</g>
		<g>
			<polyline fill="none" stroke="#000000" stroke-linejoin="round" stroke-miterlimit="10" points="11,21.5 0.5,21.5 0.5,0.5 
				11.5,0.5 16.5,5.5 16.5,10 			"/>
			<polyline fill="none" stroke="#000000" stroke-linecap="round" stroke-linejoin="round" stroke-miterlimit="10" points="
				11.5,0.5 11.5,5.5 16.5,5.5 			"/>
		</g>
		<g>
			
				<ellipse fill="none" stroke="#000000" stroke-linecap="round" stroke-linejoin="round" stroke-miterlimit="10" cx="6" cy="13.69" rx="2.5" ry="1.687"/>
			<polyline fill="none" stroke="#000000" stroke-linecap="round" stroke-linejoin="round" stroke-miterlimit="10" points="
				8.5,13.502 8.5,6.5 11.5,9.002 			"/>
		</g>
	</g>
</g>
</svg>
