<?xml version="1.0" encoding="utf-8"?>
<!-- Generator: Adobe Illustrator 19.2.0, SVG Export Plug-In . SVG Version: 6.00 Build 0)  -->
<svg version="1.1" id="Layer_1" xmlns="http://www.w3.org/2000/svg" xmlns:xlink="http://www.w3.org/1999/xlink" x="0px" y="0px"
	 viewBox="0 0 24 24" enable-background="new 0 0 24 24" xml:space="preserve">
<g id="Filled_Icons" display="none">
	<g display="inline">
		<path d="M23.853,5.146l-5-5C18.76,0.053,18.632,0,18.5,0h-8C10.224,0,10,0.224,10,0.5v14c0,0.167,0.083,0.322,0.223,0.416l4.5,3
			C14.805,17.971,14.9,18,15,18h8.5c0.275,0,0.5-0.225,0.5-0.5v-12C24,5.367,23.947,5.24,23.853,5.146z M18.5,5.5v-5l5,5H18.5z"/>
		<path d="M4.5,16h-4C0.224,16,0,16.225,0,16.5v7C0,23.775,0.224,24,0.5,24h4C4.776,24,5,23.775,5,23.5v-7C5,16.225,4.776,16,4.5,16
			z"/>
		<path d="M15.5,19h-1.787c-0.007-0.008-0.014-0.014-0.022-0.021C13.088,18.336,11.832,17,9.5,17H6c-0.276,0-0.5,0.225-0.5,0.5v5
			C5.5,22.775,5.724,23,6,23h17c0.275,0,0.5-0.225,0.5-0.5C23.5,20.438,19.284,19,15.5,19z"/>
	</g>
</g>
<g id="Outline_Icons">
	<g>
		<polyline fill="none" stroke="#000000" stroke-linejoin="round" stroke-miterlimit="10" points="14,17.5 23.5,17.5 23.5,5.5 
			18.5,0.5 10.5,0.5 10.5,14.5 		"/>
		<polyline fill="none" stroke="#000000" stroke-linecap="round" stroke-linejoin="round" stroke-miterlimit="10" points="18.5,0.5 
			18.5,5.5 23.5,5.5 		"/>
		<rect x="0.5" y="16.5" fill="none" stroke="#000000" stroke-linejoin="round" stroke-miterlimit="10" width="4" height="7"/>
		<path fill="none" stroke="#000000" stroke-linecap="round" stroke-linejoin="round" stroke-miterlimit="10" d="M4.5,22.5h17
			c0-1.5-3.5-3-7.5-3H7"/>
		<path fill="none" stroke="#000000" stroke-linejoin="round" stroke-miterlimit="10" d="M4.5,17.5H8c2.353,0,3.5,1.5,4,2"/>
	</g>
</g>
</svg>
