<?xml version="1.0" encoding="utf-8"?>
<!-- Generator: Adobe Illustrator 19.2.0, SVG Export Plug-In . SVG Version: 6.00 Build 0)  -->
<svg version="1.1" id="Layer_1" xmlns="http://www.w3.org/2000/svg" xmlns:xlink="http://www.w3.org/1999/xlink" x="0px" y="0px"
	 viewBox="0 0 24 24" enable-background="new 0 0 24 24" xml:space="preserve">
<g id="Filled_Icons" display="none">
	<g display="inline">
		<path d="M10.477,16.07c0-2.84,2.147-4.536,4.224-4.536c0.746,0,1.564,0.236,2.3,0.76V5.5c0-0.133-0.054-0.26-0.146-0.354l-5-5
			C11.76,0.053,11.633,0,11.5,0h-11C0.225,0,0,0.224,0,0.5v21C0,21.775,0.225,22,0.5,22h10.988h2.444
			C12.262,20.385,10.477,18.171,10.477,16.07z M11.5,0.5l5,5h-5V0.5z M5.416,13.416c0.195,0.195,0.195,0.512,0,0.707
			C5.318,14.221,5.19,14.27,5.063,14.27c-0.127,0-0.256-0.049-0.354-0.146l-2.77-2.77c-0.195-0.195-0.195-0.512,0-0.707l2.77-2.77
			c0.195-0.195,0.512-0.195,0.707,0c0.195,0.195,0.195,0.512,0,0.707L3,11L5.416,13.416z M8.524,14.27
			c-0.128,0-0.256-0.049-0.354-0.146c-0.195-0.194-0.195-0.513,0-0.707L10.586,11L8.171,8.584c-0.195-0.195-0.195-0.512,0-0.707
			c0.195-0.195,0.512-0.195,0.707,0l2.769,2.77c0.195,0.195,0.195,0.512,0,0.707l-2.769,2.77C8.78,14.221,8.652,14.27,8.524,14.27z"
			/>
		<path d="M20.254,12.499c-0.951,0-2.07,0.492-2.777,1.784c-0.705-1.292-1.826-1.784-2.776-1.784c-1.584,0-3.223,1.323-3.223,3.537
			c0,3.183,5.473,7.198,5.707,7.368c0.088,0.064,0.189,0.096,0.293,0.096c0.104,0,0.207-0.031,0.295-0.096
			c0.232-0.17,5.705-4.186,5.705-7.368C23.477,13.822,21.838,12.499,20.254,12.499z"/>
	</g>
</g>
<g id="Outline_Icons">
	<g>
		<polyline fill="none" stroke="#000000" stroke-linecap="round" stroke-linejoin="round" stroke-miterlimit="10" points="
			5.748,8.765 2.979,11.534 5.748,14.305 		"/>
		<polyline fill="none" stroke="#000000" stroke-linecap="round" stroke-linejoin="round" stroke-miterlimit="10" points="
			9.209,8.765 11.979,11.534 9.209,14.305 		"/>
		<g>
			<g>
				<path fill="none" stroke="#000000" stroke-linejoin="round" stroke-miterlimit="10" d="M17.5,23c0,0,5.5-4,5.5-6.963
					c0-3.419-4.5-4.5-5.5-0.342c-1-4.158-5.5-3.077-5.5,0.342C12,19,17.5,23,17.5,23z"/>
			</g>
		</g>
		<g>
			<polyline fill="none" stroke="#000000" stroke-linejoin="round" stroke-miterlimit="10" points="12.479,21.5 0.5,21.5 0.5,0.5 
				11.5,0.5 16.5,5.5 16.5,11 			"/>
			<polyline fill="none" stroke="#000000" stroke-linecap="round" stroke-linejoin="round" stroke-miterlimit="10" points="
				11.5,0.5 11.5,5.5 16.5,5.5 			"/>
		</g>
	</g>
</g>
</svg>
