<?xml version="1.0" encoding="utf-8"?>
<!-- Generator: Adobe Illustrator 19.2.0, SVG Export Plug-In . SVG Version: 6.00 Build 0)  -->
<svg version="1.1" id="Outline_Icons" xmlns="http://www.w3.org/2000/svg" xmlns:xlink="http://www.w3.org/1999/xlink" x="0px"
	 y="0px" viewBox="0 0 24 24" enable-background="new 0 0 24 24" xml:space="preserve">
<g>
	
		<line fill="none" stroke="#000000" stroke-linecap="round" stroke-linejoin="round" stroke-miterlimit="10" x1="5.5" y1="18.687" x2="5.5" y2="13.5"/>
	<path fill="none" stroke="#000000" stroke-linecap="round" stroke-linejoin="round" stroke-miterlimit="10" d="M14.5,18.687V13.5
		h0.66c1.152,0,1.77,1.161,1.77,2.594c0,1.431-0.617,2.593-1.77,2.593H14.5z"/>
	<path fill="none" stroke="#000000" stroke-linecap="round" stroke-linejoin="round" stroke-miterlimit="10" d="M19.5,18.687V13.5
		h0.767c1.152,0,1.77,1.161,1.77,2.594c0,1.431-0.617,2.593-1.77,2.593H19.5z"/>
	<polyline fill="none" stroke="#000000" stroke-linecap="round" stroke-linejoin="round" stroke-miterlimit="10" points="
		8.656,18.687 8.656,13.5 11.5,18.687 11.5,13.5 	"/>
	<g>
		<g>
			<g>
				<polyline fill="none" stroke="#000000" stroke-linecap="round" stroke-linejoin="round" stroke-miterlimit="10" points="
					19.5,21 19.5,23.5 0.5,23.5 0.5,0.5 13.5,0.5 19.5,6.5 19.5,11 				"/>
				<polyline fill="none" stroke="#000000" stroke-linecap="round" stroke-linejoin="round" stroke-miterlimit="10" points="
					13.5,0.5 13.5,6.5 19.5,6.5 				"/>
			</g>
		</g>
	</g>
</g>
</svg>
