<?xml version="1.0" encoding="utf-8"?>
<!-- Generator: Adobe Illustrator 19.2.0, SVG Export Plug-In . SVG Version: 6.00 Build 0)  -->
<svg version="1.1" id="Layer_1" xmlns="http://www.w3.org/2000/svg" xmlns:xlink="http://www.w3.org/1999/xlink" x="0px" y="0px"
	 viewBox="0 0 24 24" enable-background="new 0 0 24 24" xml:space="preserve">
<g id="Filled_Icons" display="none">
	<g display="inline">
		<circle cx="10.5" cy="15.5" r="2.5"/>
		<path d="M19.853,6.146l-6-6C13.76,0.053,13.633,0,13.5,0h-13C0.225,0,0,0.224,0,0.5v23C0,23.775,0.225,24,0.5,24h19
			c0.275,0,0.5-0.225,0.5-0.5v-17C20,6.367,19.947,6.24,19.853,6.146z M16,18.5c0,0.827-0.673,1.5-1.5,1.5h-9
			C4.673,20,4,19.327,4,18.5v-6C4,11.673,4.673,11,5.5,11h0.25v-0.5c0-0.276,0.224-0.5,0.5-0.5h0.5c0.276,0,0.5,0.224,0.5,0.5V11
			h0.94l0.085-0.17C8.532,10.318,9.047,10,9.617,10h2.264c0.572,0,1.087,0.318,1.342,0.83L13.309,11H14.5c0.827,0,1.5,0.673,1.5,1.5
			V18.5z M13.5,6.5v-6l6,6H13.5z"/>
	</g>
</g>
<g id="Outline_Icons">
	<g>
		<path fill="none" stroke="#000000" stroke-linejoin="round" stroke-miterlimit="10" d="M15.5,18.5c0,0.553-0.447,1-1,1h-9
			c-0.553,0-1-0.447-1-1v-6c0-0.552,0.447-1,1-1h3l0.223-0.447c0.17-0.338,0.516-0.553,0.895-0.553h2.264
			c0.379,0,0.726,0.214,0.896,0.553L13,11.5h1.5c0.553,0,1,0.448,1,1V18.5z"/>
		<circle fill="none" stroke="#000000" stroke-linejoin="round" stroke-miterlimit="10" cx="10.5" cy="15.5" r="2"/>
		
			<rect x="6.25" y="10.5" fill="none" stroke="#000000" stroke-linejoin="round" stroke-miterlimit="10" width="0.5" height="0.987"/>
		<g>
			<polygon fill="none" stroke="#000000" stroke-linecap="round" stroke-linejoin="round" stroke-miterlimit="10" points="
				19.5,23.5 0.5,23.5 0.5,0.5 13.5,0.5 19.5,6.5 			"/>
			<polyline fill="none" stroke="#000000" stroke-linecap="round" stroke-linejoin="round" stroke-miterlimit="10" points="
				13.5,0.5 13.5,6.5 19.5,6.5 			"/>
		</g>
	</g>
</g>
</svg>
