<?xml version="1.0" encoding="utf-8"?>
<!-- Generator: Adobe Illustrator 19.2.0, SVG Export Plug-In . SVG Version: 6.00 Build 0)  -->
<svg version="1.1" id="Layer_1" xmlns="http://www.w3.org/2000/svg" xmlns:xlink="http://www.w3.org/1999/xlink" x="0px" y="0px"
	 viewBox="0 0 24 24" enable-background="new 0 0 24 24" xml:space="preserve">
<g id="Filled_Icons" display="none">
	<path display="inline" d="M23.853,9.146l-6-6C17.76,3.053,17.632,3,17.5,3h-17C0.224,3,0,3.224,0,3.5v17C0,20.775,0.224,21,0.5,21
		h23c0.275,0,0.5-0.225,0.5-0.5v-11C24,9.367,23.947,9.24,23.853,9.146z M5.5,7h7C12.775,7,13,7.224,13,7.5
		C13,7.776,12.775,8,12.5,8h-7C5.224,8,5,7.776,5,7.5C5,7.224,5.224,7,5.5,7z M5.5,10h7c0.275,0,0.5,0.224,0.5,0.5
		c0,0.276-0.225,0.5-0.5,0.5h-7C5.224,11,5,10.776,5,10.5C5,10.224,5.224,10,5.5,10z M18.5,17h-13C5.224,17,5,16.775,5,16.5
		C5,16.225,5.224,16,5.5,16h13c0.275,0,0.5,0.225,0.5,0.5C19,16.775,18.775,17,18.5,17z M18.5,14h-13C5.224,14,5,13.775,5,13.5
		C5,13.225,5.224,13,5.5,13h13c0.275,0,0.5,0.225,0.5,0.5C19,13.775,18.775,14,18.5,14z M17.5,9.5v-6l6,6H17.5z"/>
</g>
<g id="Outline_Icons">
	<g>
		<polygon fill="none" stroke="#000000" stroke-linecap="round" stroke-linejoin="round" stroke-miterlimit="10" points="0.5,3.5 
			0.5,20.5 23.5,20.5 23.5,9.5 17.5,3.5 		"/>
		<polyline fill="none" stroke="#000000" stroke-linecap="round" stroke-linejoin="round" stroke-miterlimit="10" points="23.5,9.5 
			17.5,9.5 17.5,3.5 		"/>
		
			<line fill="none" stroke="#000000" stroke-linecap="round" stroke-linejoin="round" stroke-miterlimit="10" x1="5.5" y1="7.5" x2="12.5" y2="7.5"/>
		
			<line fill="none" stroke="#000000" stroke-linecap="round" stroke-linejoin="round" stroke-miterlimit="10" x1="5.5" y1="10.5" x2="12.5" y2="10.5"/>
		
			<line fill="none" stroke="#000000" stroke-linecap="round" stroke-linejoin="round" stroke-miterlimit="10" x1="5.5" y1="16.5" x2="18.5" y2="16.5"/>
		
			<line fill="none" stroke="#000000" stroke-linecap="round" stroke-linejoin="round" stroke-miterlimit="10" x1="5.5" y1="13.5" x2="18.5" y2="13.5"/>
	</g>
</g>
</svg>
