<?xml version="1.0" encoding="utf-8"?>
<!-- Generator: Adobe Illustrator 19.2.0, SVG Export Plug-In . SVG Version: 6.00 Build 0)  -->
<svg version="1.1" id="Layer_1" xmlns="http://www.w3.org/2000/svg" xmlns:xlink="http://www.w3.org/1999/xlink" x="0px" y="0px"
	 viewBox="0 0 24 24" enable-background="new 0 0 24 24" xml:space="preserve">
<g id="Filled_Icons" display="none">
	<g display="inline">
		<path d="M17.5,11c-3.584,0-6.5,2.916-6.5,6.5s2.916,6.5,6.5,6.5s6.5-2.916,6.5-6.5S21.084,11,17.5,11z M22.05,14.404l-0.565,2.219
			c-0.059,0.242-0.358,0.445-0.607,0.361l-2.217-0.566c-0.268-0.067-0.43-0.34-0.361-0.606c0.069-0.268,0.34-0.431,0.608-0.36
			l1.202,0.306c-0.317-0.508-0.748-0.938-1.287-1.234c-0.832-0.455-1.79-0.561-2.697-0.295c-0.911,0.265-1.663,0.867-2.119,1.699
			c-0.457,0.83-0.562,1.788-0.297,2.697c0.266,0.912,0.869,1.663,1.699,2.12c0.832,0.456,1.789,0.562,2.699,0.295
			c0.266-0.08,0.543,0.075,0.621,0.34c0.076,0.265-0.076,0.544-0.342,0.62c-0.421,0.123-0.851,0.184-1.277,0.184
			c-0.754,0-1.502-0.189-2.182-0.562c-1.064-0.584-1.84-1.549-2.179-2.715c-0.34-1.165-0.205-2.395,0.379-3.461
			c0.585-1.064,1.55-1.838,2.716-2.178c1.165-0.34,2.393-0.205,3.459,0.379c0.635,0.349,1.149,0.845,1.547,1.424l0.232-0.911
			c0.067-0.269,0.34-0.431,0.606-0.361C21.955,13.867,22.118,14.137,22.05,14.404z"/>
		<path d="M10,17.5c0-3.967,3.098-7.215,7-7.474V5.5c0-0.133-0.053-0.26-0.147-0.354l-4.999-5C11.76,0.053,11.633,0,11.5,0h-11
			C0.225,0,0,0.224,0,0.5v21C0,21.775,0.225,22,0.5,22h11.014C10.568,20.745,10,19.19,10,17.5z M11.5,0.5l5,5h-5V0.5z M9,13.5
			c0,0.025-0.011,0.049-0.015,0.075C8.987,13.611,9,13.648,9,13.688c0,1.227-1.317,2.186-3,2.186c-1.683,0-3-0.96-3-2.186
			C3,12.46,4.317,11.5,6,11.5c0.779,0,1.472,0.212,2,0.555V6.496c0-0.193,0.112-0.371,0.288-0.452
			C8.464,5.962,8.671,5.988,8.82,6.112l3,2.504c0.212,0.177,0.24,0.492,0.063,0.704c-0.177,0.213-0.492,0.24-0.704,0.064L9,7.564
			V13.5z"/>
	</g>
</g>
<g id="Outline_Icons">
	<g>
		<g>
			<path fill="none" stroke="#000000" stroke-linecap="round" stroke-linejoin="round" stroke-miterlimit="10" d="M18.394,23.332
				c-2.65,0.774-5.427-0.75-6.2-3.402c-0.771-2.65,0.753-5.425,3.405-6.199c2.648-0.771,5.424,0.752,6.196,3.402"/>
			<polyline fill="none" stroke="#000000" stroke-linecap="round" stroke-linejoin="round" stroke-miterlimit="10" points="
				22.493,14.395 21.796,17.133 19.057,16.436 			"/>
		</g>
		<g>
			<polyline fill="none" stroke="#000000" stroke-linejoin="round" stroke-miterlimit="10" points="11,21.5 0.5,21.5 0.5,0.5 
				11.5,0.5 16.5,5.5 16.493,11 			"/>
			<polyline fill="none" stroke="#000000" stroke-linecap="round" stroke-linejoin="round" stroke-miterlimit="10" points="
				11.5,0.5 11.5,5.5 16.5,5.5 			"/>
		</g>
		<g>
			
				<ellipse fill="none" stroke="#000000" stroke-linecap="round" stroke-linejoin="round" stroke-miterlimit="10" cx="5.993" cy="13.69" rx="2.5" ry="1.687"/>
			<polyline fill="none" stroke="#000000" stroke-linecap="round" stroke-linejoin="round" stroke-miterlimit="10" points="
				8.5,13.502 8.5,6.5 11.493,9.002 			"/>
		</g>
	</g>
</g>
</svg>
