<?xml version="1.0" encoding="utf-8"?>
<!-- Generator: Adobe Illustrator 19.2.0, SVG Export Plug-In . SVG Version: 6.00 Build 0)  -->
<svg version="1.1" id="Layer_1" xmlns="http://www.w3.org/2000/svg" xmlns:xlink="http://www.w3.org/1999/xlink" x="0px" y="0px"
	 viewBox="0 0 24 24" enable-background="new 0 0 24 24" xml:space="preserve">
<g id="Filled_Icons" display="none">
	<g display="inline">
		<path d="M9.982,17.535c0-3.973,3.107-7.225,7.018-7.476V5.5c0-0.133-0.053-0.26-0.147-0.354l-4.999-5C11.76,0.053,11.632,0,11.5,0
			h-11C0.224,0,0,0.224,0,0.5v21C0,21.775,0.224,22,0.5,22h10.971C10.54,20.752,9.982,19.209,9.982,17.535z M11.5,0.5l5,5h-5V0.5z"
			/>
		<path d="M17.5,11c-3.584,0-6.5,2.916-6.5,6.5s2.916,6.5,6.5,6.5s6.5-2.916,6.5-6.5S21.084,11,17.5,11z M17.5,16.93
			c1.042,0,1.891,0.848,1.891,1.889c0,0.869-0.592,1.595-1.391,1.815v0.505c0,0.274-0.225,0.5-0.5,0.5c-0.275,0-0.5-0.226-0.5-0.5
			v-0.505c-0.799-0.221-1.391-0.946-1.391-1.815c0-0.275,0.224-0.5,0.5-0.5c0.275,0,0.5,0.225,0.5,0.5
			c0,0.492,0.398,0.892,0.891,0.892c0.492,0,0.891-0.399,0.891-0.892c0-0.489-0.398-0.889-0.891-0.889
			c-1.042,0-1.891-0.849-1.891-1.893c0-0.868,0.592-1.594,1.391-1.814v-0.502c0-0.277,0.225-0.5,0.5-0.5c0.275,0,0.5,0.223,0.5,0.5
			v0.502c0.799,0.221,1.391,0.947,1.391,1.814c0,0.275-0.224,0.5-0.5,0.5c-0.275,0-0.5-0.225-0.5-0.5
			c0-0.491-0.398-0.891-0.891-0.891c-0.492,0-0.891,0.398-0.891,0.891C16.609,16.529,17.009,16.93,17.5,16.93z"/>
	</g>
</g>
<g id="Outline_Icons">
	<g>
		<g>
			<g>
				<circle fill="none" stroke="#000000" stroke-linejoin="round" stroke-miterlimit="10" cx="17.482" cy="17.535" r="6"/>
				<g>
					<path fill="none" stroke="#000000" stroke-linecap="round" stroke-linejoin="round" stroke-miterlimit="10" d="M16.092,18.854
						c0,0.769,0.622,1.392,1.391,1.392c0.769,0,1.392-0.623,1.392-1.392c0-0.768-0.623-1.39-1.392-1.39
						c-0.768,0-1.391-0.624-1.391-1.392c0-0.768,0.622-1.391,1.391-1.391c0.769,0,1.392,0.623,1.392,1.391"/>
					
						<line fill="none" stroke="#000000" stroke-linecap="round" stroke-linejoin="round" stroke-miterlimit="10" x1="17.482" y1="20.245" x2="17.482" y2="21.173"/>
					
						<line fill="none" stroke="#000000" stroke-linecap="round" stroke-linejoin="round" stroke-miterlimit="10" x1="17.482" y1="13.755" x2="17.482" y2="14.682"/>
				</g>
			</g>
		</g>
		<g>
			<polyline fill="none" stroke="#000000" stroke-linejoin="round" stroke-miterlimit="10" points="11,21.5 0.5,21.5 0.5,0.5 
				11.5,0.5 16.5,5.5 16.5,10 			"/>
			<polyline fill="none" stroke="#000000" stroke-linecap="round" stroke-linejoin="round" stroke-miterlimit="10" points="
				11.5,0.5 11.5,5.5 16.5,5.5 			"/>
		</g>
	</g>
</g>
</svg>
