<?xml version="1.0" encoding="utf-8"?>
<!-- Generator: Adobe Illustrator 19.2.0, SVG Export Plug-In . SVG Version: 6.00 Build 0)  -->
<svg version="1.1" id="Layer_1" xmlns="http://www.w3.org/2000/svg" xmlns:xlink="http://www.w3.org/1999/xlink" x="0px" y="0px"
	 viewBox="0 0 24 24" enable-background="new 0 0 24 24" xml:space="preserve">
<g id="Filled_Icons" display="none">
	<g display="inline">
		<path d="M10,13.301c0.331,0,0.6,0.269,0.6,0.6c0,0.277,0.224,0.5,0.5,0.5c0.276,0,0.5-0.223,0.5-0.5
			c0-0.705-0.463-1.301-1.1-1.511v-0.321c0-0.276-0.224-0.5-0.5-0.5c-0.276,0-0.5,0.224-0.5,0.5v0.321
			C8.863,12.6,8.4,13.193,8.4,13.9c0,0.883,0.718,1.6,1.6,1.6c0.331,0,0.6,0.27,0.6,0.602c0,0.33-0.269,0.6-0.6,0.6
			c-0.331,0-0.6-0.27-0.6-0.6c0-0.276-0.224-0.5-0.5-0.5c-0.276,0-0.5,0.224-0.5,0.5c0,0.707,0.463,1.301,1.1,1.512v0.32
			c0,0.277,0.224,0.5,0.5,0.5c0.276,0,0.5-0.223,0.5-0.5v-0.32c0.637-0.211,1.1-0.805,1.1-1.512c0-0.883-0.718-1.602-1.6-1.602
			c-0.331,0-0.6-0.269-0.6-0.6C9.4,13.568,9.669,13.301,10,13.301z"/>
		<path d="M19.853,6.146l-6-6C13.76,0.053,13.633,0,13.5,0h-13C0.225,0,0,0.224,0,0.5v23C0,23.775,0.225,24,0.5,24h19
			c0.275,0,0.5-0.225,0.5-0.5v-17C20,6.367,19.947,6.24,19.853,6.146z M14.577,18.87l-1.724-1.724c-0.195-0.195-0.513-0.195-0.707,0
			c-0.195,0.194-0.195,0.512,0,0.707l1.724,1.724C12.824,20.463,11.475,21,10,21c-3.309,0-6-2.691-6-6
			c0-1.475,0.537-2.824,1.423-3.87l1.724,1.724C7.244,12.951,7.372,13,7.5,13c0.128,0,0.256-0.049,0.354-0.146
			c0.195-0.194,0.195-0.512,0-0.707L6.13,10.423C7.176,9.537,8.525,9,10,9c3.309,0,6,2.691,6,6
			C16,16.475,15.463,17.825,14.577,18.87z M13.5,6.5v-6l6,6H13.5z"/>
	</g>
</g>
<g id="Outline_Icons">
	<g>
		
			<circle fill="none" stroke="#000000" stroke-linecap="round" stroke-linejoin="round" stroke-miterlimit="10" cx="10" cy="15" r="5.5"/>
		
			<line fill="none" stroke="#000000" stroke-linecap="round" stroke-linejoin="round" stroke-miterlimit="10" x1="10" y1="17.201" x2="10" y2="17.934"/>
		
			<line fill="none" stroke="#000000" stroke-linecap="round" stroke-linejoin="round" stroke-miterlimit="10" x1="10" y1="12.067" x2="10" y2="12.801"/>
		<path fill="none" stroke="#000000" stroke-linecap="round" stroke-linejoin="round" stroke-miterlimit="10" d="M8.9,16.102
			c0,0.606,0.492,1.1,1.1,1.1c0.608,0,1.1-0.493,1.1-1.1C11.1,15.493,10.607,15,10,15c-0.607,0-1.1-0.492-1.1-1.1
			c0-0.608,0.492-1.101,1.1-1.101c0.608,0,1.1,0.492,1.1,1.101"/>
		
			<line fill="none" stroke="#000000" stroke-linecap="round" stroke-linejoin="round" stroke-miterlimit="10" x1="12.293" y1="17.018" x2="13.9" y2="18.881"/>
		
			<line fill="none" stroke="#000000" stroke-linecap="round" stroke-linejoin="round" stroke-miterlimit="10" x1="6.736" y1="10.576" x2="7.965" y2="12.001"/>
		<g>
			<polygon fill="none" stroke="#000000" stroke-linecap="round" stroke-linejoin="round" stroke-miterlimit="10" points="
				19.5,23.5 0.5,23.5 0.5,0.5 13.5,0.5 19.5,6.5 			"/>
			<polyline fill="none" stroke="#000000" stroke-linecap="round" stroke-linejoin="round" stroke-miterlimit="10" points="
				13.5,0.5 13.5,6.5 19.5,6.5 			"/>
		</g>
	</g>
</g>
</svg>
