<?xml version="1.0" encoding="utf-8"?>
<!-- Generator: Adobe Illustrator 19.2.0, SVG Export Plug-In . SVG Version: 6.00 Build 0)  -->
<svg version="1.1" id="Layer_1" xmlns="http://www.w3.org/2000/svg" xmlns:xlink="http://www.w3.org/1999/xlink" x="0px" y="0px"
	 viewBox="0 0 24 24" enable-background="new 0 0 24 24" xml:space="preserve">
<g id="Filled_Icons" display="none">
	<g display="inline">
		<path d="M13.746,19.498l-2.214-1.846c-0.484-0.404-0.664-1.069-0.449-1.662c0.215-0.594,0.778-0.99,1.41-0.99h2.573l1.594-3.173
			c0.084-0.168,0.205-0.306,0.34-0.428v-1.167V5.5c0-0.133-0.053-0.26-0.147-0.354l-4.999-5C11.76,0.053,11.633,0,11.5,0h-11
			C0.225,0,0,0.224,0,0.5v21C0,21.775,0.225,22,0.5,22h11.358h1.054L13.746,19.498z M11.5,0.5l5,5h-5V0.5z M5,5c1.103,0,2,0.897,2,2
			S6.103,9,5,9S3,8.103,3,7S3.897,5,5,5z M10.503,18H3.5c-0.173,0-0.334-0.089-0.426-0.236c-0.091-0.148-0.099-0.332-0.021-0.486
			l2.5-5c0.072-0.144,0.209-0.244,0.367-0.27c0.158-0.026,0.32,0.026,0.434,0.14l1.527,1.527l2.681-4.913
			c0.092-0.168,0.251-0.285,0.466-0.26c0.192,0.01,0.361,0.13,0.435,0.309L13.6,14h-1.106c-1.049,0-1.993,0.663-2.351,1.648
			C9.853,16.451,10.004,17.335,10.503,18z"/>
		<path d="M23.963,16.33c-0.07-0.197-0.259-0.33-0.47-0.33h-3.191l-1.853-3.723C18.363,12.107,18.191,12,18.002,12h-0.001
			c-0.189,0-0.362,0.106-0.446,0.276L15.685,16h-3.191c-0.211,0-0.398,0.132-0.47,0.33c-0.072,0.199-0.012,0.419,0.149,0.555
			l2.738,2.282l-1.393,4.177c-0.066,0.203,0.002,0.428,0.174,0.557c0.172,0.129,0.406,0.136,0.584,0.014l3.718-2.553l3.717,2.553
			c0.086,0.059,0.184,0.088,0.283,0.088c0.106,0,0.212-0.033,0.301-0.102c0.172-0.129,0.241-0.354,0.174-0.557l-1.393-4.177
			l2.737-2.282C23.975,16.749,24.035,16.527,23.963,16.33z"/>
	</g>
</g>
<g id="Outline_Icons">
	<g>
		<polygon fill="none" stroke="#000000" stroke-linejoin="round" stroke-miterlimit="10" points="18.001,12.5 19.993,16.5 
			23.493,16.5 20.493,19.001 21.993,23.501 17.993,20.755 13.993,23.501 15.493,19.001 12.493,16.5 15.993,16.5 		"/>
		<g>
			<polyline fill="none" stroke="#000000" stroke-linecap="round" stroke-linejoin="round" stroke-miterlimit="10" points="
				12.993,13.5 11,9 8,14.5 6,12.5 3.5,17.5 9.993,17.5 			"/>
			
				<circle fill="none" stroke="#000000" stroke-linecap="round" stroke-linejoin="round" stroke-miterlimit="10" cx="5" cy="7" r="1.5"/>
			<polyline fill="none" stroke="#000000" stroke-linejoin="round" stroke-miterlimit="10" points="12.493,21.5 0.5,21.5 0.5,0.5 
				11.5,0.5 16.5,5.5 16.5,11 			"/>
			<polyline fill="none" stroke="#000000" stroke-linecap="round" stroke-linejoin="round" stroke-miterlimit="10" points="
				11.5,0.5 11.5,5.5 16.5,5.5 			"/>
		</g>
	</g>
</g>
</svg>
