<?xml version="1.0" encoding="utf-8"?>
<!-- Generator: Adobe Illustrator 19.2.0, SVG Export Plug-In . SVG Version: 6.00 Build 0)  -->
<svg version="1.1" id="Outline_Icons" xmlns="http://www.w3.org/2000/svg" xmlns:xlink="http://www.w3.org/1999/xlink" x="0px"
	 y="0px" viewBox="0 0 24 24" enable-background="new 0 0 24 24" xml:space="preserve">
<g>
	<path fill="none" stroke="#000000" stroke-linecap="round" stroke-linejoin="round" stroke-miterlimit="10" d="M17.984,14.442
		c-0.168-0.746-0.547-1.055-1.359-1.055c-1.258,0-1.477,0.999-1.477,2.464c0,1.462,0.219,2.65,1.477,2.65
		c1.048,0,1.375-0.823,1.455-1.945h-1.443"/>
	<path fill="none" stroke="#000000" stroke-linecap="round" stroke-linejoin="round" stroke-miterlimit="10" d="M5.5,18.502V13.5
		h1.334c1.152,0,1.77,0.975,1.77,2.408c0,1.431-0.617,2.594-1.77,2.594H5.5z"/>
	<polyline fill="none" stroke="#000000" stroke-linecap="round" stroke-linejoin="round" stroke-miterlimit="10" points="
		13.589,13.5 12.764,18.502 11.938,15.91 11.11,18.502 10.284,13.5 	"/>
	<g>
		<g>
			<g>
				<polygon fill="none" stroke="#000000" stroke-linecap="round" stroke-linejoin="round" stroke-miterlimit="10" points="
					21.5,23.5 2.5,23.5 2.5,0.5 15.5,0.5 21.5,6.5 				"/>
				<polyline fill="none" stroke="#000000" stroke-linecap="round" stroke-linejoin="round" stroke-miterlimit="10" points="
					15.5,0.5 15.5,6.5 21.5,6.5 				"/>
			</g>
		</g>
	</g>
</g>
</svg>
