<?xml version="1.0" encoding="utf-8"?>
<!-- Generator: Adobe Illustrator 19.2.0, SVG Export Plug-In . SVG Version: 6.00 Build 0)  -->
<svg version="1.1" id="Layer_1" xmlns="http://www.w3.org/2000/svg" xmlns:xlink="http://www.w3.org/1999/xlink" x="0px" y="0px"
	 viewBox="0 0 24 24" enable-background="new 0 0 24 24" xml:space="preserve">
<g id="Filled_Icons" display="none">
	<g display="inline">
		<g>
			<path d="M12.937,19.147l-0.918,3.217c-0.05,0.175-0.001,0.363,0.128,0.49C12.241,22.949,12.369,23,12.5,23
				c0.045,0,0.092-0.006,0.137-0.018l3.217-0.922L12.937,19.147z"/>
			<rect x="14.109" y="15.232" transform="matrix(0.7067 -0.7075 0.7075 0.7067 -7.2481 17.5122)" width="6.781" height="4.534"/>
			<path d="M23.853,13.647l-2.5-2.501c-0.187-0.188-0.519-0.188-0.707,0L19,12.792l3.207,3.206l1.646-1.646
				C24.049,14.156,24.049,13.841,23.853,13.647z"/>
		</g>
		<path d="M12.056,18.59c0.01-0.033,0.029-0.064,0.041-0.097c0.015-0.039,0.031-0.074,0.048-0.112
			c0.074-0.16,0.166-0.312,0.293-0.439L17,13.379V5.5c0-0.133-0.053-0.26-0.147-0.354l-4.999-5C11.76,0.053,11.633,0,11.5,0h-11
			C0.225,0,0,0.224,0,0.5v21C0,21.775,0.225,22,0.5,22h10.581L12.056,18.59z M11.5,0.5l5,5h-5V0.5z M3,17.5v-10
			C3,7.224,3.224,7,3.5,7C3.776,7,4,7.224,4,7.5v4.793l1.896-1.896c0.195-0.195,0.512-0.195,0.707,0l1.646,1.646l2.896-2.896
			c0.195-0.195,0.512-0.195,0.707,0c0.195,0.195,0.195,0.512,0,0.707l-3.25,3.25c-0.195,0.195-0.512,0.195-0.707,0L6.25,11.457
			L4,13.707V17h7c0.276,0,0.5,0.225,0.5,0.5c0,0.275-0.224,0.5-0.5,0.5H3.5C3.224,18,3,17.775,3,17.5z"/>
	</g>
</g>
<g id="Outline_Icons">
	<g>
		<g>
			<g>
				<polygon fill="none" stroke="#000000" stroke-linecap="round" stroke-linejoin="round" stroke-miterlimit="10" points="16,21.5 
					12.5,22.5 13.5,19 21.002,11.498 23.502,13.998 				"/>
				
					<line fill="none" stroke="#000000" stroke-linejoin="round" stroke-miterlimit="10" x1="19.002" y1="13.498" x2="21.502" y2="15.998"/>
				
					<line fill="none" stroke="#000000" stroke-linecap="round" stroke-linejoin="round" stroke-miterlimit="10" x1="13.5" y1="19" x2="16" y2="21.5"/>
			</g>
		</g>
		<g>
			<polyline fill="none" stroke="#000000" stroke-linejoin="round" stroke-miterlimit="10" points="11,21.5 0.5,21.5 0.5,0.5 
				11.5,0.5 16.5,5.5 16.48,12.035 			"/>
			<polyline fill="none" stroke="#000000" stroke-linecap="round" stroke-linejoin="round" stroke-miterlimit="10" points="
				11.5,0.5 11.5,5.5 16.5,5.5 			"/>
		</g>
		<g>
			<polyline fill="none" stroke="#000000" stroke-linecap="round" stroke-linejoin="round" stroke-miterlimit="10" points="3.5,7.5 
				3.5,17.5 9.5,17.5 			"/>
			<polyline fill="none" stroke="#000000" stroke-linecap="round" stroke-linejoin="round" stroke-miterlimit="10" points="
				3.5,13.5 6.25,10.75 8.25,12.75 11.5,9.5 			"/>
		</g>
	</g>
</g>
</svg>
