<?xml version="1.0" encoding="utf-8"?>
<!-- Generator: Adobe Illustrator 19.2.0, SVG Export Plug-In . SVG Version: 6.00 Build 0)  -->
<svg version="1.1" id="Layer_1" xmlns="http://www.w3.org/2000/svg" xmlns:xlink="http://www.w3.org/1999/xlink" x="0px" y="0px"
	 viewBox="0 0 24 24" enable-background="new 0 0 24 24" xml:space="preserve">
<g id="Filled_Icons" display="none">
	<g display="inline">
		<path d="M17.5,11c-3.584,0-6.5,2.916-6.5,6.5s2.916,6.5,6.5,6.5s6.5-2.916,6.5-6.5S21.084,11,17.5,11z M17.5,21.5
			c-0.275,0-0.5-0.225-0.5-0.5c0-0.275,0.225-0.5,0.5-0.5c0.275,0,0.5,0.225,0.5,0.5C18,21.275,17.775,21.5,17.5,21.5z M18,17.951
			v1.334c0,0.275-0.225,0.5-0.5,0.5c-0.275,0-0.5-0.225-0.5-0.5v-1.779c0-0.275,0.225-0.5,0.5-0.5c0.705,0,1.277-0.572,1.277-1.277
			S18.205,14.45,17.5,14.45c-0.705,0-1.277,0.573-1.277,1.278c0,0.275-0.225,0.5-0.5,0.5c-0.277,0-0.5-0.225-0.5-0.5
			c0-1.256,1.021-2.278,2.277-2.278c1.256,0,2.277,1.023,2.277,2.278C19.777,16.813,19.018,17.723,18,17.951z"/>
		<path d="M10,17.5c0-3.967,3.098-7.215,7-7.474v-1V5.5c0-0.133-0.053-0.26-0.147-0.354l-4.999-5C11.76,0.053,11.633,0,11.5,0h-11
			C0.225,0,0,0.224,0,0.5v21C0,21.775,0.225,22,0.5,22h9.802h1.212C10.568,20.745,10,19.19,10,17.5z M11.5,0.5l5,5h-5V0.5z M5,5
			c1.103,0,2,0.897,2,2S6.103,9,5,9S3,8.103,3,7S3.897,5,5,5z M3.5,18c-0.173,0-0.334-0.089-0.426-0.236
			c-0.091-0.148-0.099-0.332-0.021-0.486l2.5-5c0.072-0.144,0.209-0.244,0.367-0.27c0.158-0.026,0.32,0.026,0.434,0.14l1.527,1.527
			l2.681-4.913c0.092-0.168,0.251-0.285,0.466-0.26c0.192,0.01,0.361,0.13,0.435,0.309l0.824,2.001C10.291,12.365,9,14.781,9,17.5
			c0,0.17,0.026,0.333,0.036,0.5H3.5z"/>
	</g>
</g>
<g id="Outline_Icons">
	<g>
		<g>
			<circle fill="none" stroke="#000000" stroke-linejoin="round" stroke-miterlimit="10" cx="17.479" cy="17.5" r="6"/>
			<path fill="none" stroke="#000000" stroke-linecap="round" stroke-linejoin="round" stroke-miterlimit="10" d="M15.701,15.729
				c0-0.981,0.796-1.777,1.777-1.777c0.982,0,1.778,0.797,1.778,1.777c0,0.982-0.797,1.778-1.778,1.778v1.779"/>
			<g>
				<path d="M17.478,20.5c-0.275,0-0.5,0.225-0.5,0.5c0,0.275,0.225,0.5,0.5,0.5c0.276,0,0.5-0.225,0.5-0.5
					C17.978,20.725,17.756,20.5,17.478,20.5L17.478,20.5z"/>
			</g>
		</g>
		<g>
			<polyline fill="none" stroke="#000000" stroke-linecap="round" stroke-linejoin="round" stroke-miterlimit="10" points="
				11.86,11.091 11,9 8,14.5 6,12.5 3.5,17.5 8.96,17.5 			"/>
			
				<circle fill="none" stroke="#000000" stroke-linecap="round" stroke-linejoin="round" stroke-miterlimit="10" cx="5" cy="7" r="1.5"/>
			<polyline fill="none" stroke="#000000" stroke-linejoin="round" stroke-miterlimit="10" points="11,21.5 0.5,21.5 0.5,0.5 
				11.5,0.5 16.5,5.5 16.5,10 			"/>
			<polyline fill="none" stroke="#000000" stroke-linecap="round" stroke-linejoin="round" stroke-miterlimit="10" points="
				11.5,0.5 11.5,5.5 16.5,5.5 			"/>
		</g>
	</g>
</g>
</svg>
