<?xml version="1.0" encoding="utf-8"?>
<!-- Generator: Adobe Illustrator 19.2.0, SVG Export Plug-In . SVG Version: 6.00 Build 0)  -->
<svg version="1.1" id="Layer_1" xmlns="http://www.w3.org/2000/svg" xmlns:xlink="http://www.w3.org/1999/xlink" x="0px" y="0px"
	 viewBox="0 0 24 24" enable-background="new 0 0 24 24" xml:space="preserve">
<g id="Filled_Icons" display="none">
	<g display="inline">
		<path d="M17,10.026V5.5c0-0.133-0.053-0.26-0.147-0.354l-4.999-5C11.76,0.053,11.632,0,11.5,0h-11C0.224,0,0,0.224,0,0.5v21
			C0,21.775,0.224,22,0.5,22h11.014C10.568,20.744,10,19.19,10,17.5C10,13.533,13.098,10.284,17,10.026z M11.5,0.5l5,5h-5V0.5z"/>
		<path d="M17.5,11c-3.584,0-6.5,2.916-6.5,6.5s2.916,6.5,6.5,6.5s6.5-2.916,6.5-6.5S21.084,11,17.5,11z M20.036,18.398
			l-2.183,2.182c-0.194,0.195-0.512,0.195-0.707,0l-2.182-2.182c-0.195-0.195-0.195-0.512,0-0.707c0.195-0.195,0.512-0.195,0.707,0
			L17,19.02v-4.248c0-0.276,0.225-0.5,0.5-0.5c0.275,0,0.5,0.224,0.5,0.5v4.248l1.328-1.328c0.195-0.194,0.512-0.194,0.708,0
			C20.232,17.887,20.23,18.203,20.036,18.398z"/>
	</g>
</g>
<g id="Outline_Icons">
	<g>
		<polyline fill="none" stroke="#000000" stroke-linejoin="round" stroke-miterlimit="10" points="10.5,21.5 0.5,21.5 0.5,0.5 
			11.5,0.5 16.5,5.502 16.5,9.5 		"/>
		<polyline fill="none" stroke="#000000" stroke-linecap="round" stroke-linejoin="round" stroke-miterlimit="10" points="11.5,0.5 
			11.5,5.5 16.5,5.5 		"/>
		<circle fill="none" stroke="#000000" stroke-linejoin="round" stroke-miterlimit="10" cx="17.5" cy="17.5" r="6"/>
		
			<line fill="none" stroke="#000000" stroke-linecap="round" stroke-linejoin="round" stroke-miterlimit="10" x1="17.5" y1="20.227" x2="17.5" y2="14.772"/>
		<polyline fill="none" stroke="#000000" stroke-linecap="round" stroke-linejoin="round" stroke-miterlimit="10" points="
			15.318,18.046 17.5,20.229 19.682,18.046 		"/>
	</g>
</g>
</svg>
