<?xml version="1.0" encoding="utf-8"?>
<!-- Generator: Adobe Illustrator 19.2.0, SVG Export Plug-In . SVG Version: 6.00 Build 0)  -->
<svg version="1.1" id="Layer_1" xmlns="http://www.w3.org/2000/svg" xmlns:xlink="http://www.w3.org/1999/xlink" x="0px" y="0px"
	 viewBox="0 0 24 24" enable-background="new 0 0 24 24" xml:space="preserve">
<g id="Filled_Icons" display="none">
	<g display="inline">
		<path d="M13.5,22c-1.93,0-3.5-1.57-3.5-3.5c0-1.93,1.57-3.5,3.5-3.5c0.81,0,1.548,0.288,2.143,0.752L17,15.072V14.38V5.5
			c0-0.133-0.053-0.26-0.147-0.354l-4.999-5C11.76,0.053,11.632,0,11.5,0h-11C0.224,0,0,0.224,0,0.5v21C0,21.775,0.224,22,0.5,22
			C0.5,22,14.443,22,13.5,22z M11.5,0.5l5,5h-5V0.5z M3.5,6H8c0.276,0,0.5,0.224,0.5,0.5C8.5,6.776,8.276,7,8,7H3.5
			C3.224,7,3,6.776,3,6.5C3,6.224,3.224,6,3.5,6z M3.5,9h8C11.776,9,12,9.224,12,9.5c0,0.276-0.224,0.5-0.5,0.5h-8
			C3.224,10,3,9.776,3,9.5C3,9.224,3.224,9,3.5,9z M8.5,16h-5C3.224,16,3,15.775,3,15.5C3,15.225,3.224,15,3.5,15h5
			C8.776,15,9,15.225,9,15.5C9,15.775,8.776,16,8.5,16z M9.5,13h-6C3.224,13,3,12.775,3,12.5C3,12.224,3.224,12,3.5,12h6
			c0.276,0,0.5,0.224,0.5,0.5C10,12.775,9.776,13,9.5,13z"/>
		<path d="M21.5,19c-0.891,0-1.668,0.473-2.111,1.174l-3.428-1.285C15.98,18.762,16,18.633,16,18.5c0-0.225-0.039-0.435-0.096-0.643
			l3.639-1.82C20.002,16.619,20.704,17,21.5,17c1.378,0,2.5-1.122,2.5-2.5c0-1.378-1.122-2.5-2.5-2.5c-1.378,0-2.5,1.122-2.5,2.5
			c0,0.225,0.039,0.438,0.096,0.645l-3.639,1.818C14.999,16.381,14.296,16,13.5,16c-1.378,0-2.5,1.122-2.5,2.5
			c0,1.378,1.122,2.5,2.5,2.5c0.891,0,1.668-0.473,2.111-1.174l3.428,1.285C19.019,21.238,19,21.367,19,21.5
			c0,1.378,1.122,2.5,2.5,2.5c1.378,0,2.5-1.122,2.5-2.5C24,20.122,22.878,19,21.5,19z M21.5,13c0.827,0,1.5,0.673,1.5,1.5
			c0,0.827-0.673,1.5-1.5,1.5c-0.827,0-1.5-0.673-1.5-1.5C20,13.673,20.673,13,21.5,13z M13.5,20c-0.827,0-1.5-0.673-1.5-1.5
			c0-0.827,0.673-1.5,1.5-1.5c0.827,0,1.5,0.673,1.5,1.5C15,19.327,14.327,20,13.5,20z M21.5,23c-0.827,0-1.5-0.673-1.5-1.5
			c0-0.827,0.673-1.5,1.5-1.5c0.827,0,1.5,0.673,1.5,1.5C23,22.327,22.327,23,21.5,23z"/>
	</g>
</g>
<g id="Outline_Icons">
	<g>
		
			<line fill="none" stroke="#000000" stroke-linecap="round" stroke-linejoin="round" stroke-miterlimit="10" x1="3.483" y1="6.532" x2="7.983" y2="6.532"/>
		
			<line fill="none" stroke="#000000" stroke-linecap="round" stroke-linejoin="round" stroke-miterlimit="10" x1="3.483" y1="9.532" x2="11.483" y2="9.532"/>
		
			<line fill="none" stroke="#000000" stroke-linecap="round" stroke-linejoin="round" stroke-miterlimit="10" x1="3.483" y1="12.531" x2="9.483" y2="12.531"/>
		
			<line fill="none" stroke="#000000" stroke-linecap="round" stroke-linejoin="round" stroke-miterlimit="10" x1="3.483" y1="15.531" x2="8.483" y2="15.531"/>
		<g>
			
				<circle fill="none" stroke="#000000" stroke-linecap="round" stroke-linejoin="round" stroke-miterlimit="10" cx="21.5" cy="14.5" r="2"/>
			
				<circle fill="none" stroke="#000000" stroke-linecap="round" stroke-linejoin="round" stroke-miterlimit="10" cx="21.5" cy="21.5" r="2"/>
			
				<circle fill="none" stroke="#000000" stroke-linecap="round" stroke-linejoin="round" stroke-miterlimit="10" cx="13.5" cy="18.5" r="2"/>
			
				<line fill="none" stroke="#000000" stroke-linecap="round" stroke-linejoin="round" stroke-miterlimit="10" x1="15.287" y1="17.607" x2="19.713" y2="15.395"/>
			
				<line fill="none" stroke="#000000" stroke-linecap="round" stroke-linejoin="round" stroke-miterlimit="10" x1="15.375" y1="19.203" x2="19.629" y2="20.798"/>
		</g>
		<g>
			<polyline fill="none" stroke="#000000" stroke-linejoin="round" stroke-miterlimit="10" points="11,21.531 0.5,21.531 0.5,0.532 
				11.5,0.532 16.5,5.532 16.5,14.031 			"/>
			<polyline fill="none" stroke="#000000" stroke-linecap="round" stroke-linejoin="round" stroke-miterlimit="10" points="
				11.5,0.532 11.5,5.532 16.5,5.532 			"/>
		</g>
	</g>
</g>
</svg>
