<?xml version="1.0" encoding="utf-8"?>
<!-- Generator: Adobe Illustrator 19.2.0, SVG Export Plug-In . SVG Version: 6.00 Build 0)  -->
<svg version="1.1" id="Layer_1" xmlns="http://www.w3.org/2000/svg" xmlns:xlink="http://www.w3.org/1999/xlink" x="0px" y="0px"
	 viewBox="0 0 24 24" enable-background="new 0 0 24 24" xml:space="preserve">
<g id="Filled_Icons" display="none">
	<g display="inline">
		<g>
			<path d="M13.747,19.531l-2.214-1.844c-0.485-0.404-0.665-1.07-0.45-1.664c0.029-0.078,0.078-0.143,0.118-0.215
				C10.331,16.541,9.224,17,8,17c-2.757,0-5-2.243-5-5c0-2.757,2.243-5,5-5c2.757,0,5,2.243,5,5c0,1.238-0.469,2.357-1.217,3.231
				c0.216-0.115,0.453-0.195,0.71-0.195h2.575l1.592-3.174c0.084-0.168,0.205-0.305,0.34-0.428V5.5c0-0.133-0.053-0.26-0.147-0.354
				l-4.999-5C11.76,0.053,11.632,0,11.5,0h-11C0.224,0,0,0.224,0,0.5v21C0,21.775,0.224,22,0.5,22h12.424L13.747,19.531z M11.5,0.5
				l5,5h-5V0.5z"/>
			<path d="M7.5,9.5C7.224,9.5,7,9.724,7,10v2.5C7,12.775,7.224,13,7.5,13H9c0.276,0,0.5-0.225,0.5-0.5C9.5,12.224,9.276,12,9,12H8
				v-2C8,9.724,7.776,9.5,7.5,9.5z"/>
		</g>
		<path d="M23.963,16.365c-0.072-0.199-0.26-0.33-0.47-0.33h-3.191l-1.853-3.724c-0.084-0.169-0.258-0.276-0.447-0.276
			c0,0,0,0-0.001,0c-0.189,0-0.362,0.105-0.446,0.275l-1.871,3.725h-3.19c-0.21,0-0.398,0.131-0.47,0.33
			c-0.072,0.197-0.012,0.419,0.15,0.554l2.738,2.281l-1.392,4.178c-0.068,0.204,0.002,0.429,0.172,0.558
			c0.09,0.066,0.195,0.102,0.302,0.102c0.099,0,0.198-0.029,0.282-0.088l3.718-2.555l3.717,2.553
			c0.177,0.121,0.412,0.117,0.584-0.012c0.171-0.131,0.242-0.354,0.173-0.559L21.075,19.2l2.737-2.281
			C23.975,16.784,24.035,16.563,23.963,16.365z"/>
	</g>
</g>
<g id="Outline_Icons">
	<g>
		<path fill="none" stroke="#000000" stroke-linecap="round" stroke-linejoin="round" stroke-miterlimit="10" d="M7.993,16.5
			c-2.486,0-4.5-2.014-4.5-4.5c0-2.485,2.014-4.5,4.5-4.5c2.152,0,3.952,1.512,4.396,3.531"/>
		<polyline fill="none" stroke="#000000" stroke-linecap="round" stroke-linejoin="round" stroke-miterlimit="10" points="7.493,10 
			7.493,12.5 8.993,12.5 		"/>
		<g>
			<polygon fill="none" stroke="#000000" stroke-linejoin="round" stroke-miterlimit="10" points="18.008,12.5 20,16.5 23.5,16.5 
				20.5,19 22,23.5 18,20.754 14,23.502 15.5,19 12.5,16.5 16,16.5 			"/>
		</g>
		<g>
			<polyline fill="none" stroke="#000000" stroke-linejoin="round" stroke-miterlimit="10" points="12.493,21.5 0.5,21.5 0.5,0.5 
				11.5,0.5 16.5,5.5 16.5,11 			"/>
			<polyline fill="none" stroke="#000000" stroke-linecap="round" stroke-linejoin="round" stroke-miterlimit="10" points="
				11.5,0.5 11.5,5.5 16.5,5.5 			"/>
		</g>
	</g>
</g>
</svg>
