<?xml version="1.0" encoding="utf-8"?>
<!-- Generator: Adobe Illustrator 19.2.0, SVG Export Plug-In . SVG Version: 6.00 Build 0)  -->
<svg version="1.1" id="Layer_1" xmlns="http://www.w3.org/2000/svg" xmlns:xlink="http://www.w3.org/1999/xlink" x="0px" y="0px"
	 viewBox="0 0 24 24" enable-background="new 0 0 24 24" xml:space="preserve">
<g id="Filled_Icons" display="none">
	<path display="inline" d="M20.853,6.146l-6-6C14.76,0.053,14.633,0,14.5,0h-11C3.224,0,3,0.224,3,0.5v23C3,23.775,3.224,24,3.5,24
		h17c0.275,0,0.5-0.225,0.5-0.5v-17C21,6.367,20.947,6.24,20.853,6.146z M10.854,17.354l-2.5,2.5C8.256,19.951,8.128,20,8,20
		c-0.128,0-0.256-0.049-0.354-0.146l-1.5-1.5c-0.195-0.194-0.195-0.512,0-0.707c0.195-0.194,0.512-0.194,0.707,0L8,18.793
		l2.146-2.146c0.195-0.194,0.512-0.194,0.707,0C11.048,16.842,11.049,17.158,10.854,17.354z M10.854,12.854l-2.5,2.5
		C8.256,15.451,8.128,15.5,8,15.5c-0.128,0-0.256-0.049-0.354-0.146l-1.5-1.5c-0.195-0.194-0.195-0.512,0-0.707
		c0.195-0.194,0.512-0.194,0.707,0L8,14.293l2.146-2.146c0.195-0.195,0.512-0.195,0.707,0
		C11.048,12.342,11.049,12.658,10.854,12.854z M10.854,8.354l-2.5,2.5C8.256,10.951,8.128,11,8,11c-0.128,0-0.256-0.049-0.354-0.146
		l-1.5-1.5c-0.195-0.195-0.195-0.512,0-0.707c0.195-0.195,0.512-0.195,0.707,0L8,9.793l2.146-2.146c0.195-0.195,0.512-0.195,0.707,0
		C11.048,7.842,11.049,8.158,10.854,8.354z M16.5,19h-4c-0.276,0-0.5-0.225-0.5-0.5c0-0.275,0.224-0.5,0.5-0.5h4
		c0.275,0,0.5,0.225,0.5,0.5C17,18.775,16.775,19,16.5,19z M16.5,15h-4c-0.276,0-0.5-0.225-0.5-0.5c0-0.275,0.224-0.5,0.5-0.5h4
		c0.275,0,0.5,0.225,0.5,0.5C17,14.775,16.775,15,16.5,15z M16.5,11h-4c-0.276,0-0.5-0.224-0.5-0.5c0-0.276,0.224-0.5,0.5-0.5h4
		c0.275,0,0.5,0.224,0.5,0.5C17,10.776,16.775,11,16.5,11z M14.5,6.5v-6l6,6H14.5z"/>
</g>
<g id="Outline_Icons">
	<g>
		<polygon fill="none" stroke="#000000" stroke-linecap="round" stroke-linejoin="round" stroke-miterlimit="10" points="20.5,23.5 
			3.5,23.5 3.5,0.5 14.5,0.5 20.5,6.5 		"/>
		<polyline fill="none" stroke="#000000" stroke-linecap="round" stroke-linejoin="round" stroke-miterlimit="10" points="14.5,0.5 
			14.5,6.5 20.5,6.5 		"/>
		
			<line fill="none" stroke="#000000" stroke-linecap="round" stroke-linejoin="round" stroke-miterlimit="10" x1="12.5" y1="10.5" x2="16.5" y2="10.5"/>
		
			<line fill="none" stroke="#000000" stroke-linecap="round" stroke-linejoin="round" stroke-miterlimit="10" x1="12.5" y1="14.5" x2="16.5" y2="14.5"/>
		
			<line fill="none" stroke="#000000" stroke-linecap="round" stroke-linejoin="round" stroke-miterlimit="10" x1="12.5" y1="18.5" x2="16.5" y2="18.5"/>
		<polyline fill="none" stroke="#000000" stroke-linecap="round" stroke-linejoin="round" stroke-miterlimit="10" points="10.5,8.5 
			8,11 6.5,9.5 		"/>
		<polyline fill="none" stroke="#000000" stroke-linecap="round" stroke-linejoin="round" stroke-miterlimit="10" points="
			10.5,12.5 8,15 6.5,13.5 		"/>
		<polyline fill="none" stroke="#000000" stroke-linecap="round" stroke-linejoin="round" stroke-miterlimit="10" points="
			10.5,16.5 8,19 6.5,17.5 		"/>
	</g>
</g>
</svg>
