<?xml version="1.0" encoding="utf-8"?>
<!-- Generator: Adobe Illustrator 19.2.0, SVG Export Plug-In . SVG Version: 6.00 Build 0)  -->
<svg version="1.1" id="Layer_1" xmlns="http://www.w3.org/2000/svg" xmlns:xlink="http://www.w3.org/1999/xlink" x="0px" y="0px"
	 viewBox="0 0 24 24" enable-background="new 0 0 24 24" xml:space="preserve">
<g id="Filled_Icons" display="none">
	<g display="inline">
		<path d="M10,17.5c0-3.967,3.098-7.215,7-7.474v-1V5.5c0-0.133-0.053-0.26-0.147-0.354l-4.999-5C11.76,0.053,11.633,0,11.5,0h-11
			C0.225,0,0,0.224,0,0.5v21C0,21.775,0.225,22,0.5,22h9.802h1.212C10.568,20.745,10,19.19,10,17.5z M11.5,0.5l5,5h-5V0.5z M5,5
			c1.103,0,2,0.897,2,2S6.103,9,5,9S3,8.103,3,7S3.897,5,5,5z M3.5,18c-0.173,0-0.334-0.089-0.426-0.236
			c-0.091-0.148-0.099-0.332-0.021-0.486l2.5-5c0.072-0.144,0.209-0.244,0.367-0.27c0.158-0.026,0.32,0.026,0.434,0.14l1.527,1.527
			l2.681-4.913c0.092-0.168,0.251-0.285,0.466-0.26c0.192,0.01,0.361,0.13,0.435,0.309l0.824,2.001C10.291,12.365,9,14.781,9,17.5
			c0,0.17,0.026,0.333,0.036,0.5H3.5z"/>
		<path d="M17.5,11c-3.584,0-6.5,2.916-6.5,6.5s2.916,6.5,6.5,6.5s6.5-2.916,6.5-6.5S21.084,11,17.5,11z M13.035,16.014
			c0.635-1.793,2.34-2.998,4.242-2.998c1.336,0,2.619,0.594,3.5,1.514V13.96c0-0.276,0.224-0.5,0.5-0.5c0.275,0,0.5,0.224,0.5,0.5
			v2.222c0,0.275-0.225,0.5-0.5,0.5h-2.223c-0.275,0-0.5-0.225-0.5-0.5c0-0.277,0.225-0.5,0.5-0.5h1.379
			c-0.654-0.992-1.873-1.666-3.156-1.666c-1.479,0-2.807,0.938-3.301,2.332c-0.072,0.205-0.267,0.334-0.472,0.334
			c-0.056,0-0.11-0.011-0.167-0.029C13.078,16.561,12.941,16.273,13.035,16.014z M21.965,18.986
			c-0.635,1.793-2.34,2.998-4.242,2.998c-1.336,0-2.619-0.592-3.5-1.512v0.568c0,0.275-0.223,0.5-0.5,0.5
			c-0.275,0-0.5-0.225-0.5-0.5v-2.223c0-0.277,0.225-0.5,0.5-0.5h2.223c0.277,0,0.5,0.223,0.5,0.5c0,0.275-0.223,0.5-0.5,0.5h-1.379
			c0.654,0.992,1.873,1.666,3.156,1.666c1.479,0,2.807-0.938,3.301-2.332c0.093-0.262,0.379-0.397,0.639-0.305
			C21.922,18.44,22.059,18.727,21.965,18.986z"/>
	</g>
</g>
<g id="Outline_Icons">
	<g>
		<g>
			<polyline fill="none" stroke="#000000" stroke-linecap="round" stroke-linejoin="round" stroke-miterlimit="10" points="
				12.496,12.5 11,9 8,14.5 6,12.5 3.5,17.5 9.996,17.5 			"/>
			
				<circle fill="none" stroke="#000000" stroke-linecap="round" stroke-linejoin="round" stroke-miterlimit="10" cx="5" cy="7" r="1.5"/>
			<polyline fill="none" stroke="#000000" stroke-linejoin="round" stroke-miterlimit="10" points="11,21.5 0.5,21.5 0.5,0.5 
				11.5,0.5 16.5,5.5 16.5,11 			"/>
			<polyline fill="none" stroke="#000000" stroke-linecap="round" stroke-linejoin="round" stroke-miterlimit="10" points="
				11.5,0.5 11.5,5.5 16.5,5.5 			"/>
		</g>
		<g>
			<polyline fill="none" stroke="#000000" stroke-linecap="round" stroke-linejoin="round" stroke-miterlimit="10" points="
				22.247,14.035 22.247,16.535 19.747,16.535 			"/>
			<path fill="none" stroke="#000000" stroke-linecap="round" stroke-linejoin="round" stroke-miterlimit="10" d="M13.503,16.533
				c0.618-1.747,2.285-2.998,4.244-2.998s3.84,1.23,4.458,2.979"/>
			<g>
				<polyline fill="none" stroke="#000000" stroke-linecap="round" stroke-linejoin="round" stroke-miterlimit="10" points="
					13.746,22 13.746,19.5 16.246,19.5 				"/>
				<path fill="none" stroke="#000000" stroke-linecap="round" stroke-linejoin="round" stroke-miterlimit="10" d="M22.49,19.501
					c-0.618,1.747-2.285,2.999-4.244,2.999s-3.84-1.23-4.458-2.978"/>
			</g>
		</g>
	</g>
</g>
</svg>
