<?xml version="1.0" encoding="utf-8"?>
<!-- Generator: Adobe Illustrator 19.2.0, SVG Export Plug-In . SVG Version: 6.00 Build 0)  -->
<svg version="1.1" id="Layer_1" xmlns="http://www.w3.org/2000/svg" xmlns:xlink="http://www.w3.org/1999/xlink" x="0px" y="0px"
	 viewBox="0 0 24 24" enable-background="new 0 0 24 24" xml:space="preserve">
<g id="Filled_Icons" display="none">
	<g display="inline">
		<path d="M10.689,20.201c-0.199-0.346-0.253-0.754-0.15-1.139c0.104-0.385,0.355-0.713,0.699-0.912L11.502,18v-0.001l-0.263-0.151
			c-0.717-0.414-0.962-1.332-0.548-2.049l1.501-2.598c0.415-0.717,1.33-0.961,2.046-0.551l0.275,0.16V12.5
			c0-0.829,0.672-1.5,1.5-1.5H17V5.5c0-0.133-0.053-0.26-0.147-0.354l-4.999-5C11.76,0.053,11.633,0,11.5,0h-11
			C0.225,0,0,0.224,0,0.5v21C0,21.775,0.225,22,0.5,22h11.229L10.689,20.201z M11.5,0.5l5,5h-5V0.5z M9,13.5
			c0,0.025-0.011,0.049-0.015,0.075C8.987,13.611,9,13.648,9,13.688c0,1.227-1.317,2.186-3,2.186c-1.683,0-3-0.96-3-2.186
			C3,12.46,4.317,11.5,6,11.5c0.779,0,1.472,0.212,2,0.555V6.496c0-0.193,0.112-0.371,0.288-0.452
			C8.464,5.962,8.671,5.988,8.82,6.112l3,2.504c0.212,0.177,0.24,0.492,0.063,0.704c-0.177,0.213-0.492,0.24-0.704,0.064L9,7.564
			V13.5z"/>
		<path d="M23.266,19.018l-0.795-0.459c0.021-0.188,0.031-0.373,0.031-0.558c0-0.185-0.011-0.369-0.033-0.558l0.797-0.461
			c0.238-0.137,0.32-0.443,0.182-0.683l-1.5-2.598c-0.066-0.115-0.176-0.199-0.303-0.231c-0.127-0.037-0.266-0.018-0.381,0.049
			l-0.791,0.459c-0.291-0.213-0.615-0.399-0.957-0.553V12.5c0-0.276-0.225-0.5-0.5-0.5h-3c-0.277,0-0.5,0.224-0.5,0.5v0.925
			c-0.295,0.13-0.638,0.311-0.973,0.554l-0.803-0.461c-0.235-0.135-0.543-0.056-0.682,0.184L11.557,16.3
			c-0.139,0.239-0.057,0.546,0.183,0.683l0.796,0.461c-0.022,0.189-0.034,0.375-0.034,0.558c0,0.185,0.012,0.368,0.033,0.558
			l-0.797,0.459c-0.115,0.066-0.198,0.176-0.233,0.305c-0.034,0.128-0.016,0.265,0.051,0.379l1.5,2.598
			c0.135,0.238,0.443,0.32,0.682,0.184l0.805-0.463c0.336,0.244,0.678,0.426,0.973,0.556V23.5c0,0.275,0.225,0.5,0.5,0.5h3
			c0.276,0,0.5-0.225,0.5-0.5v-0.926c0.344-0.153,0.668-0.34,0.959-0.553l0.793,0.461c0.115,0.066,0.254,0.084,0.381,0.049
			c0.129-0.033,0.238-0.117,0.305-0.232l1.498-2.598C23.587,19.462,23.505,19.156,23.266,19.018z M17.502,20.5
			c-1.379,0-2.5-1.122-2.5-2.5c0-1.378,1.121-2.5,2.5-2.5c1.379,0,2.5,1.122,2.5,2.5C20.002,19.378,18.881,20.5,17.502,20.5z"/>
	</g>
</g>
<g id="Outline_Icons">
	<g>
		<g>
			<g>
				<path fill="none" stroke="#000000" stroke-linejoin="round" stroke-miterlimit="10" d="M16.016,13.762
					c-0.5,0.186-1.014,0.465-1.43,0.818l-1.095-0.629l-1.501,2.598l1.091,0.631c-0.049,0.266-0.079,0.539-0.079,0.82
					c0,0.281,0.029,0.555,0.078,0.82l-1.092,0.631l1.5,2.598l1.098-0.631c0.416,0.355,0.93,0.635,1.43,0.82V23.5h3v-1.262
					c0.5-0.186,0.998-0.465,1.414-0.82l1.088,0.631l1.498-2.598l-1.091-0.631c0.05-0.266,0.077-0.539,0.077-0.82
					c0-0.281-0.029-0.555-0.078-0.82l1.092-0.631l-1.5-2.598L20.43,14.58c-0.416-0.354-0.914-0.633-1.414-0.818V12.5h-3V13.762z"/>
			</g>
			<circle fill="none" stroke="#000000" stroke-linejoin="round" stroke-miterlimit="10" cx="17.502" cy="18" r="2"/>
		</g>
		<g>
			<polyline fill="none" stroke="#000000" stroke-linejoin="round" stroke-miterlimit="10" points="11,21.5 0.5,21.5 0.5,0.5 
				11.5,0.5 16.5,5.5 16.488,11 			"/>
			<polyline fill="none" stroke="#000000" stroke-linecap="round" stroke-linejoin="round" stroke-miterlimit="10" points="
				11.5,0.5 11.5,5.5 16.5,5.5 			"/>
		</g>
		<g>
			
				<ellipse fill="none" stroke="#000000" stroke-linecap="round" stroke-linejoin="round" stroke-miterlimit="10" cx="5.988" cy="13.69" rx="2.5" ry="1.687"/>
			<polyline fill="none" stroke="#000000" stroke-linecap="round" stroke-linejoin="round" stroke-miterlimit="10" points="
				8.5,13.502 8.52,6.5 11.488,9.002 			"/>
		</g>
	</g>
</g>
</svg>
