<?xml version="1.0" encoding="utf-8"?>
<!-- Generator: Adobe Illustrator 19.2.0, SVG Export Plug-In . SVG Version: 6.00 Build 0)  -->
<svg version="1.1" id="Outline_Icons" xmlns="http://www.w3.org/2000/svg" xmlns:xlink="http://www.w3.org/1999/xlink" x="0px"
	 y="0px" viewBox="0 0 24 24" enable-background="new 0 0 24 24" xml:space="preserve">
<g>
	<path fill="none" stroke="#000000" stroke-linecap="round" stroke-linejoin="round" stroke-miterlimit="10" d="M10.592,18.502V13.5
		h0.937c1.152,0,1.77,0.975,1.77,2.408c0,1.431-0.617,2.594-1.77,2.594H10.592z"/>
	<path fill="none" stroke="#000000" stroke-linecap="round" stroke-linejoin="round" stroke-miterlimit="10" d="M15.535,17.373
		c0.04,0.693,0.579,1.242,1.238,1.242c0.687,0,1.242-0.594,1.242-1.325c0-1.082-1.022-1.261-1.24-1.325
		c-0.217-0.064-1.24-0.246-1.24-1.325c0-0.733,0.555-1.139,1.24-1.139c0.66,0,1.199,0.361,1.24,1.055"/>
	<g>
		<path fill="none" stroke="#000000" stroke-linecap="round" stroke-linejoin="round" stroke-miterlimit="10" d="M5.875,14.555
			C5.897,14.07,6.117,13.5,7.113,13.5c1.057,0,1.24,0.664,1.24,1.139c0,0.473-0.184,1.323-1.24,1.323"/>
		<path fill="none" stroke="#000000" stroke-linecap="round" stroke-linejoin="round" stroke-miterlimit="10" d="M5.875,17.373
			c0.022,0.482,0.242,1.24,1.238,1.24c1.057,0,1.24-0.85,1.24-1.323c0-0.476-0.184-1.327-1.24-1.327"/>
	</g>
	<g>
		<g>
			<g>
				<polygon fill="none" stroke="#000000" stroke-linecap="round" stroke-linejoin="round" stroke-miterlimit="10" points="
					21.5,23.5 2.5,23.5 2.5,0.5 15.5,0.5 21.5,6.5 				"/>
				<polyline fill="none" stroke="#000000" stroke-linecap="round" stroke-linejoin="round" stroke-miterlimit="10" points="
					15.5,0.5 15.5,6.5 21.5,6.5 				"/>
			</g>
		</g>
	</g>
</g>
</svg>
