<?xml version="1.0" encoding="utf-8"?>
<!-- Generator: Adobe Illustrator 19.2.0, SVG Export Plug-In . SVG Version: 6.00 Build 0)  -->
<svg version="1.1" id="Layer_1" xmlns="http://www.w3.org/2000/svg" xmlns:xlink="http://www.w3.org/1999/xlink" x="0px" y="0px"
	 viewBox="0 0 24 24" enable-background="new 0 0 24 24" xml:space="preserve">
<g id="Filled_Icons" display="none">
	<g display="inline">
		<path d="M8.739,12.531H6.855c-0.276,0-0.5,0.224-0.5,0.5c0,0.275,0.224,0.5,0.5,0.5h0.442v3.438c0,0.275,0.224,0.5,0.5,0.5
			c0.276,0,0.5-0.225,0.5-0.5v-3.438h0.441c0.276,0,0.5-0.225,0.5-0.5C9.238,12.755,9.016,12.531,8.739,12.531z"/>
		<path d="M13.284,12.551c-0.212-0.063-0.442,0.023-0.561,0.213l-0.833,1.307l-0.831-1.307c-0.12-0.188-0.353-0.276-0.562-0.213
			c-0.214,0.062-0.36,0.26-0.36,0.48v3.938c0,0.277,0.224,0.5,0.5,0.5c0.276,0,0.5-0.223,0.5-0.5v-2.221l0.331,0.522
			c0.092,0.145,0.251,0.23,0.422,0.23c0.171,0,0.33-0.087,0.422-0.23l0.333-0.522v2.224c0,0.276,0.224,0.5,0.5,0.5
			c0.275,0,0.5-0.224,0.5-0.5v-3.939C13.644,12.811,13.498,12.613,13.284,12.551z"/>
		<path d="M19.853,6.146l-6-6C13.76,0.053,13.633,0,13.5,0h-13C0.225,0,0,0.224,0,0.5v23C0,23.775,0.225,24,0.5,24h19
			c0.275,0,0.5-0.225,0.5-0.5v-17C20,6.367,19.947,6.24,19.853,6.146z M10,21c-3.309,0-6-2.691-6-6c0-3.309,2.691-6,6-6
			c3.309,0,6,2.691,6,6C16,18.309,13.309,21,10,21z M13.5,6.5v-6l6,6H13.5z"/>
	</g>
</g>
<g id="Outline_Icons">
	<g>
		
			<circle fill="none" stroke="#000000" stroke-linecap="round" stroke-linejoin="round" stroke-miterlimit="10" cx="10" cy="15" r="5.5"/>
		<g>
			<polygon fill="none" stroke="#000000" stroke-linecap="round" stroke-linejoin="round" stroke-miterlimit="10" points="
				19.5,23.5 0.5,23.5 0.5,0.5 13.5,0.5 19.5,6.5 			"/>
			<polyline fill="none" stroke="#000000" stroke-linecap="round" stroke-linejoin="round" stroke-miterlimit="10" points="
				13.5,0.5 13.5,6.5 19.5,6.5 			"/>
		</g>
		<g>
			<g>
				
					<line fill="none" stroke="#000000" stroke-linecap="round" stroke-linejoin="round" stroke-miterlimit="10" x1="7.798" y1="16.969" x2="7.798" y2="13.031"/>
				
					<line fill="none" stroke="#000000" stroke-linecap="round" stroke-linejoin="round" stroke-miterlimit="10" x1="6.855" y1="13.031" x2="8.739" y2="13.031"/>
			</g>
			<polyline fill="none" stroke="#000000" stroke-linecap="round" stroke-linejoin="round" stroke-miterlimit="10" points="
				13.144,16.969 13.144,13.031 11.89,15 10.637,13.031 10.637,16.969 			"/>
		</g>
	</g>
</g>
</svg>
