<?xml version="1.0" encoding="utf-8"?>
<!-- Generator: Adobe Illustrator 19.2.0, SVG Export Plug-In . SVG Version: 6.00 Build 0)  -->
<svg version="1.1" id="Layer_1" xmlns="http://www.w3.org/2000/svg" xmlns:xlink="http://www.w3.org/1999/xlink" x="0px" y="0px"
	 viewBox="0 0 24 24" enable-background="new 0 0 24 24" xml:space="preserve">
<g id="Filled_Icons" display="none">
	<g display="inline">
		<g>
			<path d="M9.984,18.5c0-1.93,1.57-3.5,3.5-3.5c0.811,0,1.548,0.288,2.142,0.752L17,15.065v-1.117V5.5
				c0-0.133-0.053-0.26-0.147-0.354l-4.999-5C11.76,0.053,11.633,0,11.5,0h-11C0.225,0,0,0.224,0,0.5v21C0,21.775,0.225,22,0.5,22
				h10.19h2.795C11.555,22,9.984,20.43,9.984,18.5z M11.5,0.5l5,5h-5V0.5z M5,5c1.103,0,2,0.897,2,2S6.103,9,5,9S3,8.103,3,7
				S3.897,5,5,5z M3.5,18c-0.173,0-0.334-0.089-0.426-0.236c-0.091-0.148-0.099-0.332-0.021-0.486l2.5-5
				c0.072-0.144,0.209-0.244,0.367-0.27c0.158-0.026,0.32,0.026,0.434,0.14l1.527,1.527l2.681-4.913
				c0.092-0.168,0.251-0.285,0.466-0.26c0.192,0.01,0.361,0.13,0.435,0.309l2.141,5.199C13.562,14.007,13.523,14,13.484,14
				c-2.311,0-4.197,1.756-4.449,4H3.5z"/>
		</g>
		<path d="M21.484,19c-0.892,0-1.668,0.471-2.111,1.174l-3.428-1.285c0.019-0.127,0.039-0.256,0.039-0.389
			c0-0.225-0.039-0.435-0.096-0.643l3.639-1.819C19.986,16.619,20.687,17,21.484,17c1.379,0,2.5-1.122,2.5-2.5
			c0-1.378-1.121-2.5-2.5-2.5c-1.379,0-2.5,1.122-2.5,2.5c0,0.225,0.039,0.438,0.095,0.645l-3.638,1.818
			C14.982,16.381,14.281,16,13.484,16c-1.379,0-2.5,1.122-2.5,2.5c0,1.378,1.121,2.5,2.5,2.5c0.891,0,1.668-0.471,2.111-1.174
			l3.428,1.285c-0.021,0.127-0.039,0.257-0.039,0.39c0,1.378,1.121,2.5,2.5,2.5c1.379,0,2.5-1.122,2.5-2.5
			C23.984,20.123,22.863,19,21.484,19z M21.484,13c0.826,0,1.5,0.673,1.5,1.5c0,0.827-0.674,1.5-1.5,1.5c-0.827,0-1.5-0.673-1.5-1.5
			C19.984,13.673,20.657,13,21.484,13z M13.484,20c-0.827,0-1.5-0.673-1.5-1.5c0-0.827,0.673-1.5,1.5-1.5c0.826,0,1.5,0.673,1.5,1.5
			C14.984,19.327,14.312,20,13.484,20z M21.484,23c-0.827,0-1.5-0.673-1.5-1.5c0-0.827,0.673-1.5,1.5-1.5c0.826,0,1.5,0.673,1.5,1.5
			C22.984,22.327,22.312,23,21.484,23z"/>
	</g>
</g>
<g id="Outline_Icons">
	<g>
		<g>
			
				<circle fill="none" stroke="#000000" stroke-linecap="round" stroke-linejoin="round" stroke-miterlimit="10" cx="21.484" cy="14.5" r="2"/>
			
				<circle fill="none" stroke="#000000" stroke-linecap="round" stroke-linejoin="round" stroke-miterlimit="10" cx="21.484" cy="21.5" r="2"/>
			
				<circle fill="none" stroke="#000000" stroke-linecap="round" stroke-linejoin="round" stroke-miterlimit="10" cx="13.484" cy="18.5" r="2"/>
			
				<line fill="none" stroke="#000000" stroke-linecap="round" stroke-linejoin="round" stroke-miterlimit="10" x1="15.271" y1="17.606" x2="19.697" y2="15.395"/>
			
				<line fill="none" stroke="#000000" stroke-linecap="round" stroke-linejoin="round" stroke-miterlimit="10" x1="15.359" y1="19.203" x2="19.613" y2="20.798"/>
		</g>
		<g>
			<polyline fill="none" stroke="#000000" stroke-linecap="round" stroke-linejoin="round" stroke-miterlimit="10" points="
				12.484,13.001 11,9 8,14.5 6,12.5 3.5,17.5 8.96,17.5 			"/>
			
				<circle fill="none" stroke="#000000" stroke-linecap="round" stroke-linejoin="round" stroke-miterlimit="10" cx="5" cy="7" r="1.5"/>
			<polyline fill="none" stroke="#000000" stroke-linejoin="round" stroke-miterlimit="10" points="11,21.5 0.5,21.5 0.5,0.5 
				11.5,0.5 16.5,5.5 16.5,14 			"/>
			<polyline fill="none" stroke="#000000" stroke-linecap="round" stroke-linejoin="round" stroke-miterlimit="10" points="
				11.5,0.5 11.5,5.5 16.5,5.5 			"/>
		</g>
	</g>
</g>
</svg>
