<?xml version="1.0" encoding="utf-8"?>
<!-- Generator: Adobe Illustrator 19.2.0, SVG Export Plug-In . SVG Version: 6.00 Build 0)  -->
<svg version="1.1" id="Layer_1" xmlns="http://www.w3.org/2000/svg" xmlns:xlink="http://www.w3.org/1999/xlink" x="0px" y="0px"
	 viewBox="0 0 24 24" enable-background="new 0 0 24 24" xml:space="preserve">
<g id="Filled_Icons" display="none">
	<g display="inline">
		<path d="M23.266,19.018l-0.795-0.459c0.021-0.188,0.031-0.373,0.031-0.559c0-0.184-0.011-0.369-0.033-0.559l0.797-0.459
			c0.238-0.139,0.32-0.444,0.182-0.684l-1.5-2.598c-0.066-0.115-0.176-0.199-0.303-0.232c-0.127-0.037-0.266-0.018-0.381,0.049
			l-0.791,0.461c-0.291-0.213-0.615-0.4-0.957-0.554V12.5c0-0.276-0.225-0.5-0.5-0.5h-3c-0.277,0-0.5,0.224-0.5,0.5v0.925
			c-0.295,0.13-0.638,0.311-0.973,0.554l-0.803-0.461c-0.235-0.136-0.543-0.057-0.682,0.184L11.557,16.3
			c-0.139,0.238-0.057,0.546,0.183,0.685l0.796,0.459c-0.022,0.19-0.034,0.377-0.034,0.559c0,0.184,0.012,0.368,0.033,0.559
			l-0.797,0.459c-0.115,0.066-0.198,0.176-0.233,0.305c-0.034,0.128-0.016,0.265,0.051,0.38l1.5,2.599
			c0.135,0.237,0.443,0.319,0.682,0.184l0.805-0.463c0.336,0.244,0.678,0.424,0.973,0.556V23.5c0,0.275,0.225,0.5,0.5,0.5h3
			c0.276,0,0.5-0.225,0.5-0.5v-0.926c0.344-0.154,0.668-0.34,0.959-0.553l0.793,0.461c0.115,0.066,0.254,0.084,0.381,0.049
			c0.129-0.033,0.238-0.117,0.305-0.232l1.498-2.599C23.587,19.462,23.505,19.156,23.266,19.018z M17.502,20.5
			c-1.379,0-2.5-1.121-2.5-2.5c0-1.379,1.121-2.5,2.5-2.5c1.379,0,2.5,1.121,2.5,2.5C20.002,19.379,18.881,20.5,17.502,20.5z"/>
		<g>
			<rect x="6" y="8" width="1" height="8"/>
			<rect x="4" y="13" width="1" height="3"/>
			<path d="M10.675,20.201c-0.199-0.344-0.253-0.754-0.15-1.139c0.104-0.385,0.354-0.711,0.699-0.91L11.487,18v-0.001l-0.263-0.151
				c-0.717-0.414-0.962-1.332-0.548-2.049l1.501-2.598c0.416-0.717,1.333-0.961,2.047-0.551l0.275,0.16V12.5
				c0-0.828,0.672-1.5,1.5-1.5h1V5.5c0-0.133-0.053-0.26-0.147-0.354l-4.999-5C11.76,0.053,11.633,0,11.5,0h-11
				C0.225,0,0,0.224,0,0.5v21C0,21.775,0.225,22,0.5,22h11.214L10.675,20.201z M11.5,0.5l5,5h-5V0.5z M10,16.5
				c0,0.275-0.224,0.5-0.5,0.5h-7C2.224,17,2,16.775,2,16.5C2,16.225,2.224,16,2.5,16H3v-3.5C3,12.224,3.224,12,3.5,12H5V7.5
				C5,7.224,5.224,7,5.5,7h2C7.776,7,8,7.224,8,7.5V10h1.5c0.276,0,0.5,0.224,0.5,0.5V16.5z"/>
			<rect x="8" y="11" width="1" height="5"/>
		</g>
	</g>
</g>
<g id="Outline_Icons">
	<g>
		<g>
			<g>
				<g>
					<path fill="none" stroke="#000000" stroke-linejoin="round" stroke-miterlimit="10" d="M16,13.762
						c-0.5,0.186-1.014,0.465-1.43,0.82l-1.094-0.631l-1.502,2.598l1.091,0.631c-0.049,0.266-0.08,0.539-0.08,0.82
						c0,0.281,0.029,0.555,0.078,0.82l-1.091,0.631l1.5,2.598l1.098-0.631c0.416,0.355,0.93,0.635,1.43,0.82V23.5h3v-1.262
						c0.5-0.186,0.999-0.465,1.415-0.82l1.088,0.631l1.498-2.598L21.91,18.82c0.049-0.266,0.076-0.539,0.076-0.82
						c0-0.281-0.028-0.555-0.077-0.82L23,16.549l-1.5-2.598l-1.085,0.631c-0.416-0.355-0.915-0.635-1.415-0.82V12.5h-3V13.762z"/>
				</g>
				<circle fill="none" stroke="#000000" stroke-linejoin="round" stroke-miterlimit="10" cx="17.486" cy="18" r="2"/>
			</g>
		</g>
		<g>
			<polyline fill="none" stroke="#000000" stroke-linejoin="round" stroke-miterlimit="10" points="11,21.5 0.5,21.5 0.5,0.5 
				11.5,0.5 16.5,5.5 16.5,10 			"/>
			<polyline fill="none" stroke="#000000" stroke-linecap="round" stroke-linejoin="round" stroke-miterlimit="10" points="
				11.5,0.5 11.5,5.5 16.5,5.5 			"/>
		</g>
		<g>
			
				<rect x="3.5" y="12.5" fill="none" stroke="#000000" stroke-linecap="round" stroke-linejoin="round" stroke-miterlimit="10" width="2" height="4"/>
			
				<rect x="7.5" y="10.5" fill="none" stroke="#000000" stroke-linecap="round" stroke-linejoin="round" stroke-miterlimit="10" width="2" height="6"/>
			
				<rect x="5.5" y="7.5" fill="none" stroke="#000000" stroke-linecap="round" stroke-linejoin="round" stroke-miterlimit="10" width="2" height="9"/>
			
				<line fill="none" stroke="#000000" stroke-linecap="round" stroke-linejoin="round" stroke-miterlimit="10" x1="2.5" y1="16.5" x2="9.5" y2="16.5"/>
		</g>
	</g>
</g>
</svg>
