<?xml version="1.0" encoding="utf-8"?>
<!-- Generator: Adobe Illustrator 19.2.0, SVG Export Plug-In . SVG Version: 6.00 Build 0)  -->
<svg version="1.1" id="Layer_1" xmlns="http://www.w3.org/2000/svg" xmlns:xlink="http://www.w3.org/1999/xlink" x="0px" y="0px"
	 viewBox="0 0 24 24" enable-background="new 0 0 24 24" xml:space="preserve">
<g id="Filled_Icons" display="none">
	<g display="inline">
		<path d="M10.689,20.234c-0.199-0.344-0.253-0.754-0.15-1.137c0.104-0.386,0.354-0.714,0.699-0.912l0.265-0.152l-0.263-0.151
			c-0.345-0.198-0.597-0.526-0.699-0.911c-0.103-0.385-0.049-0.793,0.15-1.139l1.502-2.598c0.415-0.717,1.333-0.96,2.048-0.549
			l0.274,0.158v-0.31c0-0.828,0.672-1.5,1.5-1.5H17V5.5c0-0.133-0.053-0.26-0.147-0.354l-4.999-5C11.76,0.053,11.633,0,11.5,0h-11
			C0.225,0,0,0.224,0,0.5v21C0,21.775,0.225,22,0.5,22h10.988h0.22L10.689,20.234z M11.5,0.5l5,5h-5V0.5z M5.416,13.416
			c0.195,0.195,0.195,0.512,0,0.707C5.318,14.221,5.19,14.27,5.063,14.27c-0.127,0-0.256-0.049-0.354-0.146l-2.77-2.77
			c-0.195-0.195-0.195-0.512,0-0.707l2.77-2.77c0.195-0.195,0.512-0.195,0.707,0c0.195,0.195,0.195,0.512,0,0.707L3,11L5.416,13.416
			z M8.524,14.27c-0.128,0-0.256-0.049-0.354-0.146c-0.195-0.194-0.195-0.513,0-0.707L10.586,11L8.171,8.584
			c-0.195-0.195-0.195-0.512,0-0.707c0.195-0.195,0.512-0.195,0.707,0l2.769,2.77c0.195,0.195,0.195,0.512,0,0.707l-2.769,2.77
			C8.78,14.221,8.652,14.27,8.524,14.27z"/>
		<path d="M23.266,19.018l-0.795-0.459c0.021-0.188,0.031-0.373,0.031-0.559c0-0.184-0.011-0.369-0.033-0.559l0.797-0.459
			c0.238-0.139,0.32-0.444,0.182-0.684l-1.5-2.598c-0.066-0.115-0.176-0.199-0.303-0.233c-0.127-0.035-0.266-0.017-0.381,0.051
			l-0.791,0.459c-0.291-0.211-0.615-0.398-0.957-0.552V12.5c0-0.276-0.225-0.5-0.5-0.5h-3c-0.277,0-0.5,0.224-0.5,0.5v0.925
			c-0.295,0.13-0.638,0.311-0.973,0.554l-0.803-0.461c-0.235-0.136-0.543-0.057-0.682,0.184L11.557,16.3
			c-0.139,0.238-0.057,0.546,0.183,0.685l0.796,0.459c-0.022,0.19-0.034,0.375-0.034,0.559c0,0.184,0.012,0.368,0.033,0.559
			l-0.797,0.459c-0.115,0.066-0.198,0.176-0.233,0.305c-0.034,0.128-0.016,0.265,0.051,0.38l1.5,2.599
			c0.135,0.237,0.443,0.319,0.682,0.184l0.805-0.465c0.336,0.246,0.678,0.426,0.973,0.558V23.5c0,0.275,0.225,0.5,0.5,0.5h3
			c0.276,0,0.5-0.225,0.5-0.5v-0.926c0.344-0.154,0.668-0.342,0.959-0.555l0.793,0.461c0.115,0.066,0.254,0.086,0.381,0.051
			c0.129-0.033,0.238-0.117,0.305-0.232l1.498-2.599C23.587,19.462,23.505,19.156,23.266,19.018z M17.502,20.5
			c-1.379,0-2.5-1.121-2.5-2.5c0-1.379,1.121-2.5,2.5-2.5c1.379,0,2.5,1.121,2.5,2.5C20.002,19.379,18.881,20.5,17.502,20.5z"/>
	</g>
</g>
<g id="Outline_Icons">
	<g>
		<polyline fill="none" stroke="#000000" stroke-linecap="round" stroke-linejoin="round" stroke-miterlimit="10" points="
			5.758,8.765 2.988,11.534 5.758,14.305 		"/>
		<polyline fill="none" stroke="#000000" stroke-linecap="round" stroke-linejoin="round" stroke-miterlimit="10" points="
			9.219,8.765 11.988,11.534 9.219,14.305 		"/>
		<g>
			<g>
				<g>
					<path fill="none" stroke="#000000" stroke-linejoin="round" stroke-miterlimit="10" d="M16,13.762
						c-0.5,0.186-1.014,0.465-1.43,0.82l-1.094-0.631l-1.502,2.598l1.092,0.631c-0.049,0.266-0.08,0.541-0.08,0.82
						c0,0.281,0.029,0.555,0.078,0.82l-1.092,0.631l1.501,2.598l1.098-0.63c0.416,0.354,0.93,0.634,1.43,0.819V23.5h3v-1.262
						c0.5-0.186,0.999-0.465,1.414-0.819l1.088,0.63l1.499-2.598L21.91,18.82c0.049-0.266,0.076-0.539,0.076-0.82
						c0-0.279-0.029-0.555-0.078-0.82L23,16.549l-1.5-2.598l-1.086,0.631c-0.415-0.355-0.914-0.635-1.414-0.82V12.5h-3V13.762z"/>
				</g>
				<circle fill="none" stroke="#000000" stroke-linejoin="round" stroke-miterlimit="10" cx="17.486" cy="18" r="2"/>
			</g>
		</g>
		<g>
			<polyline fill="none" stroke="#000000" stroke-linejoin="round" stroke-miterlimit="10" points="11,21.5 0.5,21.5 0.5,0.5 
				11.5,0.5 16.5,5.5 16.488,11 			"/>
			<polyline fill="none" stroke="#000000" stroke-linecap="round" stroke-linejoin="round" stroke-miterlimit="10" points="
				11.5,0.5 11.5,5.5 16.5,5.5 			"/>
		</g>
	</g>
</g>
</svg>
