<?xml version="1.0" encoding="utf-8"?>
<!-- Generator: Adobe Illustrator 19.2.0, SVG Export Plug-In . SVG Version: 6.00 Build 0)  -->
<svg version="1.1" id="Layer_1" xmlns="http://www.w3.org/2000/svg" xmlns:xlink="http://www.w3.org/1999/xlink" x="0px" y="0px"
	 viewBox="0 0 24 24" enable-background="new 0 0 24 24" xml:space="preserve">
<g id="Filled_Icons" display="none">
	<path display="inline" d="M19.853,6.146l-6-6C13.76,0.053,13.633,0,13.5,0h-13C0.225,0,0,0.224,0,0.5v23C0,23.775,0.225,24,0.5,24
		h19c0.275,0,0.5-0.225,0.5-0.5v-17C20,6.367,19.947,6.24,19.853,6.146z M7,7.165c1.103,0,2,0.897,2,2c0,1.103-0.897,2-2,2
		s-2-0.897-2-2C5,8.062,5.897,7.165,7,7.165z M15.9,19.964c-0.096,0.126-0.243,0.2-0.4,0.2h-10c-0.173,0-0.334-0.09-0.426-0.236
		c-0.091-0.146-0.099-0.332-0.021-0.486l2.5-5c0.072-0.143,0.209-0.244,0.367-0.271c0.159-0.024,0.32,0.026,0.434,0.14l1.527,1.528
		l2.682-4.913c0.097-0.178,0.295-0.278,0.49-0.257c0.201,0.021,0.37,0.162,0.428,0.355l2.5,8.499
		C16.023,19.675,15.995,19.838,15.9,19.964z M13.5,6.5v-6l6,6H13.5z"/>
</g>
<g id="Outline_Icons">
	<g>
		<polygon fill="none" stroke="#000000" stroke-linecap="round" stroke-linejoin="round" stroke-miterlimit="10" points="19.5,23.5 
			0.5,23.5 0.5,0.5 13.5,0.5 19.5,6.5 		"/>
		<polyline fill="none" stroke="#000000" stroke-linecap="round" stroke-linejoin="round" stroke-miterlimit="10" points="13.5,0.5 
			13.5,6.5 19.5,6.5 		"/>
		<polygon fill="none" stroke="#000000" stroke-linecap="round" stroke-linejoin="round" stroke-miterlimit="10" points="13,11.165 
			10,16.665 8,14.665 5.5,19.665 15.5,19.665 		"/>
		
			<circle fill="none" stroke="#000000" stroke-linecap="round" stroke-linejoin="round" stroke-miterlimit="10" cx="7" cy="9.165" r="1.5"/>
	</g>
</g>
</svg>
