<?xml version="1.0" encoding="utf-8"?>
<!-- Generator: Adobe Illustrator 19.2.0, SVG Export Plug-In . SVG Version: 6.00 Build 0)  -->
<svg version="1.1" id="Layer_1" xmlns="http://www.w3.org/2000/svg" xmlns:xlink="http://www.w3.org/1999/xlink" x="0px" y="0px"
	 viewBox="0 0 24 24" enable-background="new 0 0 24 24" xml:space="preserve">
<g id="Filled_Icons" display="none">
	<g display="inline">
		<g>
			<rect x="6" y="7" width="1" height="1"/>
			<rect x="8" y="17" width="1" height="1"/>
			<path d="M10.689,20.234c-0.199-0.344-0.253-0.754-0.15-1.137c0.104-0.386,0.354-0.714,0.699-0.912l0.265-0.152l-0.263-0.151
				c-0.345-0.198-0.597-0.526-0.699-0.911c-0.103-0.385-0.049-0.793,0.15-1.139l1.502-2.598c0.415-0.717,1.333-0.96,2.048-0.549
				l0.274,0.158v-0.31c0-0.828,0.672-1.5,1.5-1.5H17V5.5c0-0.133-0.053-0.26-0.147-0.354l-4.999-5C11.76,0.053,11.633,0,11.5,0h-11
				C0.225,0,0,0.224,0,0.5v21C0,21.775,0.225,22,0.5,22h11.208L10.689,20.234z M11.5,0.5l5,5h-5V0.5z M5,6.5C5,6.224,5.224,6,5.5,6
				h2C7.776,6,8,6.224,8,6.5v2C8,8.776,7.776,9,7.5,9h-2C5.224,9,5,8.776,5,8.5V6.5z M8,11.5v2C8,13.775,7.776,14,7.5,14
				C7.224,14,7,13.775,7,13.5v-2C7,11.224,7.224,11,7.5,11C7.776,11,8,11.224,8,11.5z M3,6.5C3,6.224,3.224,6,3.5,6
				C3.776,6,4,6.224,4,6.5v2C4,8.776,3.776,9,3.5,9C3.224,9,3,8.776,3,8.5V6.5z M4,18.5C4,18.775,3.776,19,3.5,19
				C3.224,19,3,18.775,3,18.5v-2C3,16.225,3.224,16,3.5,16C3.776,16,4,16.225,4,16.5V18.5z M6,18.5C6,18.775,5.776,19,5.5,19
				C5.224,19,5,18.775,5,18.5v-2C5,16.225,5.224,16,5.5,16C5.776,16,6,16.225,6,16.5V18.5z M6,13.5C6,13.775,5.776,14,5.5,14h-2
				C3.224,14,3,13.775,3,13.5v-2C3,11.224,3.224,11,3.5,11h2C5.776,11,6,11.224,6,11.5V13.5z M10,18.5c0,0.275-0.224,0.5-0.5,0.5h-2
				C7.224,19,7,18.775,7,18.5v-2C7,16.225,7.224,16,7.5,16h2c0.276,0,0.5,0.225,0.5,0.5V18.5z M10,13.5c0,0.275-0.224,0.5-0.5,0.5
				C9.224,14,9,13.775,9,13.5v-2C9,11.224,9.224,11,9.5,11c0.276,0,0.5,0.224,0.5,0.5V13.5z M10,8.5C10,8.776,9.776,9,9.5,9
				C9.224,9,9,8.776,9,8.5v-2C9,6.224,9.224,6,9.5,6C9.776,6,10,6.224,10,6.5V8.5z"/>
			<rect x="4" y="12" width="1" height="1"/>
		</g>
		<path d="M23.266,19.018l-0.795-0.459c0.021-0.188,0.031-0.373,0.031-0.559c0-0.185-0.011-0.369-0.033-0.559l0.797-0.459
			c0.238-0.139,0.32-0.445,0.182-0.684l-1.5-2.599c-0.066-0.115-0.176-0.198-0.303-0.233c-0.127-0.034-0.266-0.016-0.381,0.052
			l-0.791,0.459c-0.291-0.211-0.615-0.398-0.957-0.553V12.5c0-0.276-0.225-0.5-0.5-0.5h-3c-0.277,0-0.5,0.224-0.5,0.5v0.925
			c-0.295,0.13-0.638,0.311-0.973,0.554l-0.803-0.461c-0.235-0.137-0.543-0.057-0.682,0.184L11.557,16.3
			c-0.139,0.238-0.057,0.546,0.183,0.685l0.796,0.459c-0.022,0.19-0.034,0.375-0.034,0.559c0,0.184,0.012,0.367,0.033,0.559
			l-0.797,0.459c-0.115,0.066-0.198,0.176-0.233,0.303c-0.034,0.13-0.016,0.267,0.051,0.381l1.5,2.6
			c0.135,0.237,0.443,0.319,0.682,0.184l0.805-0.465c0.336,0.244,0.678,0.426,0.973,0.558V23.5c0,0.275,0.225,0.5,0.5,0.5h3
			c0.276,0,0.5-0.225,0.5-0.5v-0.928c0.344-0.152,0.668-0.34,0.959-0.553l0.793,0.461c0.115,0.065,0.254,0.086,0.381,0.051
			c0.129-0.034,0.238-0.118,0.305-0.232l1.498-2.6C23.587,19.461,23.505,19.154,23.266,19.018z M17.502,20.5
			c-1.379,0-2.5-1.122-2.5-2.5c0-1.379,1.121-2.5,2.5-2.5c1.379,0,2.5,1.121,2.5,2.5C20.002,19.378,18.881,20.5,17.502,20.5z"/>
	</g>
</g>
<g id="Outline_Icons">
	<g>
		
			<line fill="none" stroke="#000000" stroke-linecap="round" stroke-linejoin="round" stroke-miterlimit="10" x1="3.5" y1="6.5" x2="3.5" y2="8.5"/>
		
			<line fill="none" stroke="#000000" stroke-linecap="round" stroke-linejoin="round" stroke-miterlimit="10" x1="9.5" y1="6.5" x2="9.5" y2="8.5"/>
		
			<line fill="none" stroke="#000000" stroke-linecap="round" stroke-linejoin="round" stroke-miterlimit="10" x1="7.5" y1="11.5" x2="7.5" y2="13.5"/>
		
			<line fill="none" stroke="#000000" stroke-linecap="round" stroke-linejoin="round" stroke-miterlimit="10" x1="9.5" y1="11.5" x2="9.5" y2="13.5"/>
		
			<rect x="5.5" y="6.5" fill="none" stroke="#000000" stroke-linecap="round" stroke-linejoin="round" stroke-miterlimit="10" width="2" height="2"/>
		
			<rect x="3.5" y="11.5" fill="none" stroke="#000000" stroke-linecap="round" stroke-linejoin="round" stroke-miterlimit="10" width="2" height="2"/>
		
			<rect x="7.5" y="16.5" fill="none" stroke="#000000" stroke-linecap="round" stroke-linejoin="round" stroke-miterlimit="10" width="2" height="2"/>
		
			<line fill="none" stroke="#000000" stroke-linecap="round" stroke-linejoin="round" stroke-miterlimit="10" x1="3.5" y1="16.5" x2="3.5" y2="18.5"/>
		
			<line fill="none" stroke="#000000" stroke-linecap="round" stroke-linejoin="round" stroke-miterlimit="10" x1="5.5" y1="16.5" x2="5.5" y2="18.5"/>
		<g>
			<g>
				<g>
					<path fill="none" stroke="#000000" stroke-linejoin="round" stroke-miterlimit="10" d="M16,13.762
						c-0.5,0.186-1.014,0.465-1.43,0.82l-1.094-0.631l-1.502,2.598l1.092,0.631c-0.049,0.266-0.08,0.541-0.08,0.82
						c0,0.281,0.029,0.555,0.078,0.82l-1.092,0.631l1.501,2.598l1.098-0.63c0.416,0.354,0.93,0.634,1.43,0.819V23.5h3v-1.262
						c0.5-0.186,0.999-0.465,1.414-0.819l1.088,0.63l1.499-2.598L21.91,18.82c0.049-0.266,0.076-0.539,0.076-0.82
						c0-0.279-0.029-0.555-0.078-0.82L23,16.549l-1.5-2.598l-1.086,0.631c-0.415-0.355-0.914-0.635-1.414-0.82V12.5h-3V13.762z"/>
				</g>
				<circle fill="none" stroke="#000000" stroke-linejoin="round" stroke-miterlimit="10" cx="17.486" cy="18" r="2"/>
			</g>
		</g>
		<g>
			<polyline fill="none" stroke="#000000" stroke-linejoin="round" stroke-miterlimit="10" points="11,21.5 0.5,21.5 0.5,0.5 
				11.5,0.5 16.5,5.5 16.488,11 			"/>
			<polyline fill="none" stroke="#000000" stroke-linecap="round" stroke-linejoin="round" stroke-miterlimit="10" points="
				11.5,0.5 11.5,5.5 16.5,5.5 			"/>
		</g>
	</g>
</g>
</svg>
