<?xml version="1.0" encoding="utf-8"?>
<!-- Generator: Adobe Illustrator 19.2.0, SVG Export Plug-In . SVG Version: 6.00 Build 0)  -->
<svg version="1.1" id="Layer_1" xmlns="http://www.w3.org/2000/svg" xmlns:xlink="http://www.w3.org/1999/xlink" x="0px" y="0px"
	 viewBox="0 0 24 24" enable-background="new 0 0 24 24" xml:space="preserve">
<g id="Filled_Icons" display="none">
	<g display="inline">
		<path d="M23.853,7.146l-5-5C18.76,2.053,18.632,2,18.5,2H13c-0.275,0-0.5,0.224-0.5,0.5v19c0,0.275,0.225,0.5,0.5,0.5h10.5
			c0.275,0,0.5-0.225,0.5-0.5v-14C24,7.367,23.947,7.24,23.853,7.146z M18.5,7.5v-5l5,5H18.5z"/>
		<path d="M11,2H5.5C5.368,2,5.24,2.053,5.146,2.146l-5,5C0.053,7.24,0,7.367,0,7.5v14C0,21.775,0.224,22,0.5,22H11
			c0.276,0,0.5-0.225,0.5-0.5v-19C11.5,2.224,11.276,2,11,2z M5.5,7.5h-5l5-5V7.5z"/>
	</g>
</g>
<g id="Outline_Icons">
	<g>
		<polygon fill="none" stroke="#000000" stroke-linecap="round" stroke-linejoin="round" stroke-miterlimit="10" points="23.5,21.5 
			11.5,21.5 11.5,2.5 18.5,2.5 23.5,7.5 		"/>
		<polyline fill="none" stroke="#000000" stroke-linecap="round" stroke-linejoin="round" stroke-miterlimit="10" points="18.5,2.5 
			18.5,7.5 23.5,7.5 		"/>
		<polygon fill="none" stroke="#000000" stroke-linecap="round" stroke-linejoin="round" stroke-miterlimit="10" points="0.5,21.5 
			11.5,21.5 11.5,2.5 5.5,2.5 0.5,7.5 		"/>
		<polyline fill="none" stroke="#000000" stroke-linecap="round" stroke-linejoin="round" stroke-miterlimit="10" points="5.5,2.5 
			5.5,7.5 0.5,7.5 		"/>
	</g>
</g>
</svg>
