<?xml version="1.0" encoding="utf-8"?>
<!-- Generator: Adobe Illustrator 19.2.0, SVG Export Plug-In . SVG Version: 6.00 Build 0)  -->
<svg version="1.1" id="Layer_1" xmlns="http://www.w3.org/2000/svg" xmlns:xlink="http://www.w3.org/1999/xlink" x="0px" y="0px"
	 viewBox="0 0 24 24" enable-background="new 0 0 24 24" xml:space="preserve">
<g id="Filled_Icons" display="none">
	<g display="inline">
		<path d="M17.48,11c-3.584,0-6.499,2.916-6.499,6.5S13.896,24,17.48,24s6.5-2.916,6.5-6.5S21.064,11,17.48,11z M17.48,16.928
			c1.043,0,1.892,0.848,1.892,1.891c0,0.869-0.593,1.595-1.392,1.815v0.503c0,0.276-0.224,0.5-0.5,0.5c-0.275,0-0.5-0.224-0.5-0.5
			v-0.503c-0.799-0.221-1.391-0.946-1.391-1.815c0-0.275,0.225-0.5,0.5-0.5c0.276,0,0.5,0.225,0.5,0.5
			c0,0.492,0.399,0.892,0.891,0.892c0.492,0,0.892-0.399,0.892-0.892c0-0.491-0.399-0.891-0.892-0.891
			c-1.043,0-1.891-0.849-1.891-1.891c0-0.869,0.592-1.596,1.391-1.816v-0.502c0-0.277,0.225-0.5,0.5-0.5c0.276,0,0.5,0.223,0.5,0.5
			v0.502c0.799,0.221,1.392,0.947,1.392,1.816c0,0.275-0.224,0.5-0.5,0.5c-0.276,0-0.5-0.225-0.5-0.5
			c0-0.491-0.399-0.893-0.892-0.893c-0.492,0-0.891,0.4-0.891,0.893C16.59,16.529,16.99,16.928,17.48,16.928z"/>
		<path d="M10,17.5c0-3.967,3.098-7.215,7-7.474V5.5c0-0.133-0.053-0.26-0.147-0.354l-4.999-5C11.76,0.053,11.633,0,11.5,0h-11
			C0.225,0,0,0.224,0,0.5v21C0,21.775,0.225,22,0.5,22h11.014C10.568,20.745,10,19.19,10,17.5z M11.5,0.5l5,5h-5V0.5z M5.5,14.75
			c-0.083,0-0.167-0.021-0.242-0.062C5.099,14.6,5,14.432,5,14.25V7.5c0-0.182,0.099-0.349,0.258-0.438
			C5.417,6.975,5.61,6.98,5.765,7.076l5.4,3.375c0.146,0.091,0.235,0.251,0.235,0.424c0,0.173-0.089,0.333-0.235,0.424l-5.4,3.375
			C5.684,14.725,5.592,14.75,5.5,14.75z"/>
	</g>
</g>
<g id="Outline_Icons">
	<g>
		<g>
			<g>
				<circle fill="none" stroke="#000000" stroke-linejoin="round" stroke-miterlimit="10" cx="17.5" cy="17.5" r="6"/>
				<g>
					<path fill="none" stroke="#000000" stroke-linecap="round" stroke-linejoin="round" stroke-miterlimit="10" d="M16.109,18.82
						c0,0.769,0.623,1.391,1.391,1.391c0.768,0,1.391-0.622,1.391-1.391c0-0.768-0.623-1.393-1.391-1.393
						c-0.768,0-1.391-0.621-1.391-1.391c0-0.768,0.623-1.391,1.391-1.391c0.768,0,1.391,0.623,1.391,1.391"/>
					
						<line fill="none" stroke="#000000" stroke-linecap="round" stroke-linejoin="round" stroke-miterlimit="10" x1="17.5" y1="20.211" x2="17.5" y2="21.139"/>
					
						<line fill="none" stroke="#000000" stroke-linecap="round" stroke-linejoin="round" stroke-miterlimit="10" x1="17.5" y1="13.721" x2="17.5" y2="14.648"/>
				</g>
			</g>
		</g>
		<polygon fill="none" stroke="#000000" stroke-linecap="round" stroke-linejoin="round" stroke-miterlimit="10" points="5.481,7.5 
			10.882,10.875 5.481,14.25 		"/>
		<g>
			<polyline fill="none" stroke="#000000" stroke-linejoin="round" stroke-miterlimit="10" points="11,21.5 0.5,21.5 0.5,0.5 
				11.5,0.5 16.5,5.5 16.5,10 			"/>
			<polyline fill="none" stroke="#000000" stroke-linecap="round" stroke-linejoin="round" stroke-miterlimit="10" points="
				11.5,0.5 11.5,5.5 16.5,5.5 			"/>
		</g>
	</g>
</g>
</svg>
