<?xml version="1.0" encoding="utf-8"?>
<!-- Generator: Adobe Illustrator 19.2.0, SVG Export Plug-In . SVG Version: 6.00 Build 0)  -->
<svg version="1.1" id="Layer_1" xmlns="http://www.w3.org/2000/svg" xmlns:xlink="http://www.w3.org/1999/xlink" x="0px" y="0px"
	 viewBox="0 0 24 24" enable-background="new 0 0 24 24" xml:space="preserve">
<g id="Filled_Icons" display="none">
	<g display="inline">
		<g>
			<rect x="8" y="17" width="1" height="1"/>
			<rect x="4" y="12" width="1" height="1"/>
			<path d="M9.986,18.566C9.953,18.811,9.753,19,9.5,19h-2C7.224,19,7,18.775,7,18.5v-2C7,16.225,7.224,16,7.5,16h2
				c0.276,0,0.5,0.225,0.5,0.5v1.87c0.088-1.853,1.61-3.336,3.482-3.336c0.811,0,1.549,0.288,2.143,0.752L17,15.1V5.5
				c0-0.133-0.053-0.26-0.147-0.354l-4.999-5C11.76,0.053,11.633,0,11.5,0h-11C0.225,0,0,0.224,0,0.5v21C0,21.775,0.225,22,0.5,22
				h12.646C11.387,21.828,10.003,20.365,9.986,18.566z M11.5,0.5l5,5h-5V0.5z M8,13.5C8,13.775,7.776,14,7.5,14
				C7.224,14,7,13.775,7,13.5v-2C7,11.224,7.224,11,7.5,11C7.776,11,8,11.224,8,11.5V13.5z M9,6.5C9,6.224,9.224,6,9.5,6
				C9.776,6,10,6.224,10,6.5v2C10,8.776,9.776,9,9.5,9C9.224,9,9,8.776,9,8.5V6.5z M9,11.5C9,11.224,9.224,11,9.5,11
				c0.276,0,0.5,0.224,0.5,0.5v2c0,0.275-0.224,0.5-0.5,0.5C9.224,14,9,13.775,9,13.5V11.5z M5,6.5C5,6.224,5.224,6,5.5,6h2
				C7.776,6,8,6.224,8,6.5v2C8,8.776,7.776,9,7.5,9h-2C5.224,9,5,8.776,5,8.5V6.5z M3,6.5C3,6.224,3.224,6,3.5,6
				C3.776,6,4,6.224,4,6.5v2C4,8.776,3.776,9,3.5,9C3.224,9,3,8.776,3,8.5V6.5z M4,18.5C4,18.775,3.776,19,3.5,19
				C3.224,19,3,18.775,3,18.5v-2C3,16.225,3.224,16,3.5,16C3.776,16,4,16.225,4,16.5V18.5z M6,18.5C6,18.775,5.776,19,5.5,19
				C5.224,19,5,18.775,5,18.5v-2C5,16.225,5.224,16,5.5,16C5.776,16,6,16.225,6,16.5V18.5z M6,13.5C6,13.775,5.776,14,5.5,14h-2
				C3.224,14,3,13.775,3,13.5v-2C3,11.224,3.224,11,3.5,11h2C5.776,11,6,11.224,6,11.5V13.5z"/>
			<rect x="6" y="7" width="1" height="1"/>
		</g>
		<path d="M21.484,19c-0.892,0-1.668,0.471-2.11,1.173l-3.429-1.286c0.019-0.125,0.039-0.254,0.039-0.387
			c0-0.225-0.039-0.437-0.096-0.644l3.639-1.818C19.986,16.619,20.687,17,21.484,17c1.379,0,2.5-1.122,2.5-2.5
			c0-1.379-1.121-2.5-2.5-2.5c-1.379,0-2.5,1.121-2.5,2.5c0,0.225,0.039,0.438,0.095,0.645l-3.638,1.818
			C14.982,16.381,14.279,16,13.484,16c-1.379,0-2.5,1.121-2.5,2.5c0,1.378,1.121,2.5,2.5,2.5c0.891,0,1.668-0.473,2.111-1.175
			l3.428,1.284c-0.021,0.127-0.039,0.256-0.039,0.391c0,1.378,1.121,2.5,2.5,2.5c1.379,0,2.5-1.122,2.5-2.5
			C23.984,20.121,22.863,19,21.484,19z M21.484,13c0.826,0,1.5,0.673,1.5,1.5c0,0.827-0.674,1.5-1.5,1.5c-0.827,0-1.5-0.673-1.5-1.5
			C19.984,13.673,20.657,13,21.484,13z M13.484,20c-0.827,0-1.5-0.673-1.5-1.5c0-0.827,0.673-1.5,1.5-1.5c0.826,0,1.5,0.673,1.5,1.5
			C14.984,19.327,14.312,20,13.484,20z M21.484,23c-0.827,0-1.5-0.673-1.5-1.5c0-0.827,0.673-1.5,1.5-1.5c0.826,0,1.5,0.673,1.5,1.5
			C22.984,22.327,22.312,23,21.484,23z"/>
	</g>
</g>
<g id="Outline_Icons">
	<g>
		
			<line fill="none" stroke="#000000" stroke-linecap="round" stroke-linejoin="round" stroke-miterlimit="10" x1="3.5" y1="6.5" x2="3.5" y2="8.5"/>
		
			<line fill="none" stroke="#000000" stroke-linecap="round" stroke-linejoin="round" stroke-miterlimit="10" x1="9.5" y1="6.5" x2="9.5" y2="8.5"/>
		
			<line fill="none" stroke="#000000" stroke-linecap="round" stroke-linejoin="round" stroke-miterlimit="10" x1="7.5" y1="11.5" x2="7.5" y2="13.5"/>
		
			<line fill="none" stroke="#000000" stroke-linecap="round" stroke-linejoin="round" stroke-miterlimit="10" x1="9.5" y1="11.5" x2="9.5" y2="13.5"/>
		
			<rect x="5.5" y="6.5" fill="none" stroke="#000000" stroke-linecap="round" stroke-linejoin="round" stroke-miterlimit="10" width="2" height="2"/>
		
			<rect x="3.5" y="11.5" fill="none" stroke="#000000" stroke-linecap="round" stroke-linejoin="round" stroke-miterlimit="10" width="2" height="2"/>
		
			<rect x="7.5" y="16.5" fill="none" stroke="#000000" stroke-linecap="round" stroke-linejoin="round" stroke-miterlimit="10" width="2" height="2"/>
		
			<line fill="none" stroke="#000000" stroke-linecap="round" stroke-linejoin="round" stroke-miterlimit="10" x1="3.5" y1="16.5" x2="3.5" y2="18.5"/>
		
			<line fill="none" stroke="#000000" stroke-linecap="round" stroke-linejoin="round" stroke-miterlimit="10" x1="5.5" y1="16.5" x2="5.5" y2="18.5"/>
		<g>
			<g>
				
					<circle fill="none" stroke="#000000" stroke-linecap="round" stroke-linejoin="round" stroke-miterlimit="10" cx="21.5" cy="14.5" r="2"/>
				
					<circle fill="none" stroke="#000000" stroke-linecap="round" stroke-linejoin="round" stroke-miterlimit="10" cx="21.5" cy="21.5" r="2"/>
				
					<circle fill="none" stroke="#000000" stroke-linecap="round" stroke-linejoin="round" stroke-miterlimit="10" cx="13.5" cy="18.5" r="2"/>
				
					<line fill="none" stroke="#000000" stroke-linecap="round" stroke-linejoin="round" stroke-miterlimit="10" x1="15.289" y1="17.606" x2="19.713" y2="15.395"/>
				
					<line fill="none" stroke="#000000" stroke-linecap="round" stroke-linejoin="round" stroke-miterlimit="10" x1="15.376" y1="19.203" x2="19.63" y2="20.799"/>
			</g>
		</g>
		<g>
			<polyline fill="none" stroke="#000000" stroke-linejoin="round" stroke-miterlimit="10" points="11,21.5 0.5,21.5 0.5,0.5 
				11.5,0.5 16.5,5.5 16.5,14 			"/>
			<polyline fill="none" stroke="#000000" stroke-linecap="round" stroke-linejoin="round" stroke-miterlimit="10" points="
				11.5,0.5 11.5,5.5 16.5,5.5 			"/>
		</g>
	</g>
</g>
</svg>
