<?xml version="1.0" encoding="utf-8"?>
<!-- Generator: Adobe Illustrator 19.2.0, SVG Export Plug-In . SVG Version: 6.00 Build 0)  -->
<svg version="1.1" id="Layer_1" xmlns="http://www.w3.org/2000/svg" xmlns:xlink="http://www.w3.org/1999/xlink" x="0px" y="0px"
	 viewBox="0 0 24 24" enable-background="new 0 0 24 24" xml:space="preserve">
<g id="Filled_Icons" display="none">
	<g display="inline">
		<path d="M17.486,11c-3.584,0-6.501,2.916-6.501,6.5s2.917,6.5,6.501,6.5s6.5-2.916,6.5-6.5S21.07,11,17.486,11z M20.213,18h-2.227
			v2.227c0,0.276-0.225,0.5-0.5,0.5c-0.276,0-0.5-0.224-0.5-0.5V18h-2.229c-0.275,0-0.5-0.225-0.5-0.5c0-0.275,0.225-0.5,0.5-0.5
			h2.229v-2.228c0-0.277,0.224-0.5,0.5-0.5c0.275,0,0.5,0.223,0.5,0.5V17h2.227c0.275,0,0.5,0.225,0.5,0.5
			C20.713,17.775,20.488,18,20.213,18z"/>
		<g>
			<rect x="4" y="13" width="1" height="3"/>
			<rect x="6" y="8" width="1" height="8"/>
			<rect x="8" y="11" width="1" height="5"/>
			<path d="M10.016,17.465c0-3.961,3.089-7.207,6.984-7.474V5.5c0-0.133-0.053-0.26-0.147-0.354l-4.999-5
				C11.76,0.053,11.633,0,11.5,0h-11C0.225,0,0,0.224,0,0.5v21C0,21.775,0.225,22,0.5,22h11.056
				C10.594,20.738,10.016,19.17,10.016,17.465z M11.5,0.5l5,5h-5V0.5z M10,16.5c0,0.275-0.224,0.5-0.5,0.5h-7
				C2.224,17,2,16.775,2,16.5C2,16.225,2.224,16,2.5,16H3v-3.5C3,12.224,3.224,12,3.5,12H5V7.5C5,7.224,5.224,7,5.5,7h2
				C7.776,7,8,7.224,8,7.5V10h1.5c0.276,0,0.5,0.224,0.5,0.5V16.5z"/>
		</g>
	</g>
</g>
<g id="Outline_Icons">
	<g>
		<g>
			<polyline fill="none" stroke="#000000" stroke-linejoin="round" stroke-miterlimit="10" points="11,21.5 0.5,21.5 0.5,0.5 
				11.5,0.5 16.5,5.5 16.5,10 			"/>
			<polyline fill="none" stroke="#000000" stroke-linecap="round" stroke-linejoin="round" stroke-miterlimit="10" points="
				11.5,0.5 11.5,5.5 16.5,5.5 			"/>
		</g>
		<g>
			
				<rect x="3.5" y="12.5" fill="none" stroke="#000000" stroke-linecap="round" stroke-linejoin="round" stroke-miterlimit="10" width="2" height="4"/>
			
				<rect x="7.5" y="10.5" fill="none" stroke="#000000" stroke-linecap="round" stroke-linejoin="round" stroke-miterlimit="10" width="2" height="6"/>
			
				<rect x="5.5" y="7.5" fill="none" stroke="#000000" stroke-linecap="round" stroke-linejoin="round" stroke-miterlimit="10" width="2" height="9"/>
			
				<line fill="none" stroke="#000000" stroke-linecap="round" stroke-linejoin="round" stroke-miterlimit="10" x1="2.5" y1="16.5" x2="9.5" y2="16.5"/>
		</g>
		<g>
			<circle fill="none" stroke="#000000" stroke-linejoin="round" stroke-miterlimit="10" cx="17.5" cy="17.5" r="6"/>
			
				<line fill="none" stroke="#000000" stroke-linecap="round" stroke-linejoin="round" stroke-miterlimit="10" x1="14.771" y1="17.5" x2="20.227" y2="17.5"/>
			
				<line fill="none" stroke="#000000" stroke-linecap="round" stroke-linejoin="round" stroke-miterlimit="10" x1="17.5" y1="20.227" x2="17.5" y2="14.772"/>
		</g>
	</g>
</g>
</svg>
