<?xml version="1.0" encoding="utf-8"?>
<!-- Generator: Adobe Illustrator 19.2.0, SVG Export Plug-In . SVG Version: 6.00 Build 0)  -->
<svg version="1.1" id="Layer_1" xmlns="http://www.w3.org/2000/svg" xmlns:xlink="http://www.w3.org/1999/xlink" x="0px" y="0px"
	 viewBox="0 0 24 24" enable-background="new 0 0 24 24" xml:space="preserve">
<g id="Filled_Icons" display="none">
	<g display="inline">
		<path d="M11,21.5v-1c0-1.93,1.57-3.5,3.5-3.5H15v-1.363c-0.643-0.724-1-1.65-1-2.637c0-1.858,1.279-3.41,3-3.857V5.5
			c0-0.133-0.053-0.26-0.147-0.354l-4.999-5C11.76,0.053,11.632,0,11.5,0h-11C0.224,0,0,0.224,0,0.5v21C0,21.775,0.224,22,0.5,22
			h10.592C11.036,21.844,11,21.676,11,21.5z M11.5,0.5l5,5h-5V0.5z"/>
		<g>
			<path d="M22,23h-8c-0.275,0-0.5,0.225-0.5,0.5c0,0.275,0.225,0.5,0.5,0.5h8c0.275,0,0.5-0.225,0.5-0.5
				C22.5,23.225,22.275,23,22,23z"/>
			<path d="M21.5,18H20v-2.775c0.639-0.57,1-1.369,1-2.225c0-1.654-1.346-3-3-3c-1.654,0-3,1.346-3,3c0,0.857,0.361,1.654,1,2.225
				V18h-1.5c-1.378,0-2.5,1.121-2.5,2.5v1c0,0.275,0.224,0.5,0.5,0.5h11c0.275,0,0.5-0.225,0.5-0.5v-1C24,19.121,22.878,18,21.5,18z
				"/>
		</g>
	</g>
</g>
<g id="Outline_Icons">
	<g>
		<polyline fill="none" stroke="#000000" stroke-linejoin="round" stroke-miterlimit="10" points="9,21.5 0.5,21.5 0.5,0.5 
			11.499,0.5 16.5,5.5 16.5,9 		"/>
		<polyline fill="none" stroke="#000000" stroke-linecap="round" stroke-linejoin="round" stroke-miterlimit="10" points="
			11.499,0.5 11.5,5.5 16.5,5.5 		"/>
		
			<line fill="none" stroke="#000000" stroke-linecap="round" stroke-linejoin="round" stroke-miterlimit="10" x1="14" y1="23.5" x2="22" y2="23.5"/>
		<path fill="none" stroke="#000000" stroke-linecap="round" stroke-linejoin="round" stroke-miterlimit="10" d="M21.5,18.5h-2
			v-3.512c0.603-0.457,1-1.172,1-1.988c0-1.381-1.119-2.5-2.5-2.5c-1.381,0-2.5,1.119-2.5,2.5c0,0.816,0.396,1.531,1,1.988V18.5h-2
			c-1.106,0-2,0.897-2,2v1h11v-1C23.5,19.397,22.603,18.5,21.5,18.5z"/>
	</g>
</g>
</svg>
