<?xml version="1.0" encoding="utf-8"?>
<!-- Generator: Adobe Illustrator 19.2.0, SVG Export Plug-In . SVG Version: 6.00 Build 0)  -->
<svg version="1.1" id="Layer_1" xmlns="http://www.w3.org/2000/svg" xmlns:xlink="http://www.w3.org/1999/xlink" x="0px" y="0px"
	 viewBox="0 0 24 24" enable-background="new 0 0 24 24" xml:space="preserve">
<g id="Filled_Icons" display="none">
	<g display="inline">
		<path d="M17.5,11c-3.584,0-6.5,2.915-6.5,6.5c0,3.584,2.916,6.5,6.5,6.5s6.5-2.916,6.5-6.5C24,13.915,21.084,11,17.5,11z
			 M13.035,16.014c0.635-1.793,2.34-2.998,4.242-2.998c1.336,0,2.619,0.592,3.5,1.512V13.96c0-0.276,0.224-0.5,0.5-0.5
			c0.275,0,0.5,0.224,0.5,0.5v2.222c0,0.274-0.225,0.5-0.5,0.5h-2.223c-0.275,0-0.5-0.226-0.5-0.5c0-0.277,0.225-0.5,0.5-0.5h1.379
			c-0.654-0.992-1.873-1.666-3.156-1.666c-1.479,0-2.807,0.938-3.301,2.332c-0.072,0.205-0.267,0.334-0.472,0.334
			c-0.056,0-0.11-0.011-0.167-0.029C13.078,16.559,12.941,16.273,13.035,16.014z M21.965,18.986
			c-0.635,1.793-2.34,2.998-4.242,2.998c-1.336,0-2.619-0.592-3.5-1.512v0.567c0,0.276-0.223,0.5-0.5,0.5
			c-0.275,0-0.5-0.224-0.5-0.5v-2.222c0-0.278,0.225-0.5,0.5-0.5h2.223c0.277,0,0.5,0.222,0.5,0.5c0,0.275-0.223,0.5-0.5,0.5h-1.379
			c0.654,0.992,1.873,1.666,3.156,1.666c1.479,0,2.807-0.938,3.301-2.334c0.093-0.26,0.379-0.396,0.639-0.303
			C21.922,18.44,22.059,18.725,21.965,18.986z"/>
		<path d="M10,17.5c0-3.967,3.098-7.215,7-7.474V5.5c0-0.133-0.053-0.26-0.147-0.354l-4.999-5C11.76,0.053,11.633,0,11.5,0h-11
			C0.225,0,0,0.224,0,0.5v21C0,21.775,0.225,22,0.5,22h11.014C10.568,20.745,10,19.19,10,17.5z M11.5,0.5l5,5h-5V0.5z M5.5,14.75
			c-0.083,0-0.167-0.021-0.242-0.062C5.099,14.6,5,14.432,5,14.25V7.5c0-0.182,0.099-0.349,0.258-0.438
			C5.417,6.975,5.61,6.98,5.765,7.076l5.4,3.375c0.146,0.091,0.235,0.251,0.235,0.424c0,0.173-0.089,0.333-0.235,0.424l-5.4,3.375
			C5.684,14.725,5.592,14.75,5.5,14.75z"/>
	</g>
</g>
<g id="Outline_Icons">
	<g>
		<g>
			<polyline fill="none" stroke="#000000" stroke-linecap="round" stroke-linejoin="round" stroke-miterlimit="10" points="
				22.247,14.035 22.247,16.535 19.747,16.535 			"/>
			<path fill="none" stroke="#000000" stroke-linecap="round" stroke-linejoin="round" stroke-miterlimit="10" d="M13.503,16.533
				c0.618-1.747,2.285-2.998,4.244-2.998s3.84,1.23,4.458,2.979"/>
			<g>
				<polyline fill="none" stroke="#000000" stroke-linecap="round" stroke-linejoin="round" stroke-miterlimit="10" points="
					13.746,22 13.746,19.5 16.246,19.5 				"/>
				<path fill="none" stroke="#000000" stroke-linecap="round" stroke-linejoin="round" stroke-miterlimit="10" d="M22.49,19.502
					c-0.618,1.746-2.285,2.998-4.244,2.998s-3.84-1.23-4.458-2.978"/>
			</g>
		</g>
		<polygon fill="none" stroke="#000000" stroke-linecap="round" stroke-linejoin="round" stroke-miterlimit="10" points="5.496,7.5 
			10.896,10.875 5.496,14.25 		"/>
		<g>
			<polyline fill="none" stroke="#000000" stroke-linejoin="round" stroke-miterlimit="10" points="11,21.5 0.5,21.5 0.5,0.5 
				11.5,0.5 16.5,5.5 16.5,11 			"/>
			<polyline fill="none" stroke="#000000" stroke-linecap="round" stroke-linejoin="round" stroke-miterlimit="10" points="
				11.5,0.5 11.5,5.5 16.5,5.5 			"/>
		</g>
	</g>
</g>
</svg>
