<?xml version="1.0" encoding="utf-8"?>
<!-- Generator: Adobe Illustrator 19.2.0, SVG Export Plug-In . SVG Version: 6.00 Build 0)  -->
<svg version="1.1" id="Layer_1" xmlns="http://www.w3.org/2000/svg" xmlns:xlink="http://www.w3.org/1999/xlink" x="0px" y="0px"
	 viewBox="0 0 24 24" enable-background="new 0 0 24 24" xml:space="preserve">
<g id="Filled_Icons" display="none">
	<g display="inline">
		<path d="M23.814,11.08c-0.111-0.122-0.276-0.18-0.438-0.157c-0.105,0.015-2.612,0.37-4.919,1.383
			c-0.172,0.075-0.288,0.241-0.298,0.428c-0.001,0.021-0.114,1.746-1.159,2.172v-1.172c0-0.139-0.061-0.274-0.164-0.368
			c-0.104-0.095-0.246-0.142-0.384-0.128c-0.925,0.088-2.726,1.893-3.371,3.688c-0.363,1.01-0.365,1.948-0.026,2.776l-1.678,1.678
			c-0.586,0.585-0.586,1.535,0,2.12c0.586,0.587,1.535,0.587,2.121,0l1.934-1.934c1.709,0.135,3.504-1.174,4.721-2.391
			c2.596-2.594,3.734-7.441,3.781-7.646C23.969,11.369,23.925,11.201,23.814,11.08z M18.666,16.918l-5.875,5.875
			c-0.195,0.195-0.512,0.195-0.707,0c-0.195-0.195-0.195-0.512,0-0.707l5.875-5.875c0.195-0.195,0.512-0.195,0.707,0
			C18.861,16.406,18.861,16.725,18.666,16.918z"/>
		<path d="M10.67,20.671l1.251-1.25c-0.206-0.89-0.132-1.856,0.22-2.835c0.612-1.701,2.578-4.266,4.358-4.352
			c0.174,0,0.341,0.04,0.501,0.098V5.5c0-0.133-0.053-0.26-0.147-0.354l-4.999-5C11.76,0.053,11.632,0,11.5,0h-11
			C0.224,0,0,0.224,0,0.5v21C0,21.775,0.224,22,0.5,22h9.48C10.069,21.5,10.303,21.037,10.67,20.671z M11.5,0.5l5,5h-5V0.5z
			 M9.501,10.015h4c0.276,0,0.5,0.224,0.5,0.5c0,0.276-0.224,0.5-0.5,0.5h-4c-0.276,0-0.5-0.224-0.5-0.5
			C9.001,10.239,9.225,10.015,9.501,10.015z M3.146,9.146c0.195-0.195,0.512-0.195,0.707,0L5,10.293l2.146-2.146
			c0.195-0.195,0.512-0.195,0.707,0c0.195,0.195,0.195,0.512,0,0.707l-2.5,2.5C5.256,11.451,5.128,11.5,5,11.5
			c-0.128,0-0.256-0.049-0.354-0.146l-1.5-1.5C2.951,9.658,2.951,9.342,3.146,9.146z M7.854,12.868l-2.5,2.5
			C5.256,15.466,5.128,15.514,5,15.514c-0.128,0-0.256-0.049-0.354-0.146l-1.5-1.5c-0.195-0.195-0.195-0.513,0-0.707
			c0.195-0.195,0.512-0.195,0.707,0l1.146,1.146l2.146-2.146c0.195-0.195,0.512-0.195,0.707,0
			C8.047,12.356,8.05,12.673,7.854,12.868z M9.001,14.516c0-0.277,0.224-0.5,0.5-0.5h2c0.276,0,0.5,0.223,0.5,0.5
			c0,0.275-0.224,0.5-0.5,0.5h-2C9.225,15.016,9.001,14.791,9.001,14.516z"/>
	</g>
</g>
<g id="Outline_Icons">
	<g>
		<polyline fill="none" stroke="#000000" stroke-linejoin="round" stroke-miterlimit="10" points="9.5,21.5 0.5,21.5 0.5,0.5 
			11.5,0.5 16.5,5.5 16.5,11 		"/>
		<polyline fill="none" stroke="#000000" stroke-linecap="round" stroke-linejoin="round" stroke-miterlimit="10" points="11.5,0.5 
			11.5,5.5 16.5,5.5 		"/>
		
			<line fill="none" stroke="#000000" stroke-linecap="round" stroke-linejoin="round" stroke-miterlimit="10" x1="9.501" y1="10.515" x2="13.501" y2="10.515"/>
		
			<line fill="none" stroke="#000000" stroke-linecap="round" stroke-linejoin="round" stroke-miterlimit="10" x1="9.501" y1="14.516" x2="11.501" y2="14.516"/>
		<polyline fill="none" stroke="#000000" stroke-linecap="round" stroke-linejoin="round" stroke-miterlimit="10" points="7.5,8.5 
			5,11 3.5,9.5 		"/>
		<polyline fill="none" stroke="#000000" stroke-linecap="round" stroke-linejoin="round" stroke-miterlimit="10" points="
			7.501,12.516 5.001,15.016 3.501,13.516 		"/>
		
			<line fill="none" stroke="#000000" stroke-linecap="round" stroke-linejoin="round" stroke-miterlimit="10" x1="11.354" y1="23.522" x2="18.312" y2="16.563"/>
		<path fill="none" stroke="#000000" stroke-linecap="round" stroke-linejoin="round" stroke-miterlimit="10" d="M16.501,13.734
			c-0.983,0.094-4.965,4.135-2.28,6.818c0.938,0.938,3.057,0.791,5.579-1.732c2.522-2.521,3.646-7.404,3.646-7.404
			s-2.516,0.35-4.786,1.346c0,0-0.158,2.738-2.158,2.738C16.501,14.859,16.501,13.734,16.501,13.734z"/>
	</g>
</g>
</svg>
