<?xml version="1.0" encoding="utf-8"?>
<!-- Generator: Adobe Illustrator 19.2.0, SVG Export Plug-In . SVG Version: 6.00 Build 0)  -->
<svg version="1.1" id="Layer_1" xmlns="http://www.w3.org/2000/svg" xmlns:xlink="http://www.w3.org/1999/xlink" x="0px" y="0px"
	 viewBox="0 0 24 24" enable-background="new 0 0 24 24" xml:space="preserve">
<g id="Filled_Icons" display="none">
	<g display="inline">
		<path d="M23.853,4.146l-4-4C19.76,0.053,19.632,0,19.5,0h-7C12.224,0,12,0.224,12,0.5v15c0,0.275,0.224,0.5,0.5,0.5h11
			c0.275,0,0.5-0.225,0.5-0.5v-11C24,4.367,23.947,4.24,23.853,4.146z M19.5,4.5v-4l4,4H19.5z"/>
		<path d="M4.5,16h-4C0.224,16,0,16.225,0,16.5v7C0,23.775,0.224,24,0.5,24h4C4.776,24,5,23.775,5,23.5v-7C5,16.225,4.776,16,4.5,16
			z M2.5,22C2.224,22,2,21.775,2,21.5C2,21.225,2.224,21,2.5,21C2.776,21,3,21.225,3,21.5C3,21.775,2.776,22,2.5,22z"/>
		<path d="M15.5,19h-1.787c-0.007-0.008-0.014-0.014-0.022-0.021C13.088,18.336,11.832,17,9.5,17H6c-0.276,0-0.5,0.225-0.5,0.5v5
			C5.5,22.775,5.724,23,6,23h17c0.275,0,0.5-0.225,0.5-0.5C23.5,20.438,19.284,19,15.5,19z"/>
	</g>
</g>
<g id="Outline_Icons">
	<g>
		<polygon fill="none" stroke="#000000" stroke-linejoin="round" stroke-miterlimit="10" points="23.5,4.5 19.5,0.5 12.5,0.5 
			12.5,15.5 23.5,15.5 		"/>
		<polyline fill="none" stroke="#000000" stroke-linecap="round" stroke-linejoin="round" stroke-miterlimit="10" points="19.5,0.5 
			19.5,4.5 23.5,4.5 		"/>
		<rect x="0.5" y="16.5" fill="none" stroke="#000000" stroke-linejoin="round" stroke-miterlimit="10" width="4" height="7"/>
		<path fill="none" stroke="#000000" stroke-linecap="round" stroke-linejoin="round" stroke-miterlimit="10" d="M4.5,22.5h17
			c0-1.5-3.5-3-7.5-3H7"/>
		<path fill="none" stroke="#000000" stroke-linejoin="round" stroke-miterlimit="10" d="M4.5,17.5H8c2.353,0,3.5,1.5,4,2"/>
		<g>
			<g>
				<path d="M2.5,21C2.224,21,2,21.225,2,21.5C2,21.775,2.224,22,2.5,22C2.775,22,3,21.775,3,21.5C3,21.225,2.775,21,2.5,21L2.5,21z
					"/>
			</g>
		</g>
	</g>
</g>
</svg>
