<?xml version="1.0" encoding="utf-8"?>
<!-- Generator: Adobe Illustrator 19.2.0, SVG Export Plug-In . SVG Version: 6.00 Build 0)  -->
<svg version="1.1" id="Layer_1" xmlns="http://www.w3.org/2000/svg" xmlns:xlink="http://www.w3.org/1999/xlink" x="0px" y="0px"
	 viewBox="0 0 24 24" enable-background="new 0 0 24 24" xml:space="preserve">
<g id="Filled_Icons" display="none">
	<g display="inline">
		<path d="M9.982,17.535c0-3.975,3.107-7.225,7.018-7.476V5.5c0-0.133-0.053-0.26-0.147-0.354l-4.999-5C11.76,0.052,11.632,0,11.5,0
			h-11C0.224,0,0,0.223,0,0.5v21C0,21.775,0.224,22,0.5,22h10.971C10.54,20.751,9.982,19.208,9.982,17.535z M11.5,0.5l5,5h-5V0.5z"
			/>
		<path d="M17.5,11c-3.584,0-6.5,2.916-6.5,6.5s2.916,6.5,6.5,6.5s6.5-2.916,6.5-6.5S21.084,11,17.5,11z M22.05,14.404l-0.565,2.219
			c-0.047,0.195-0.258,0.393-0.522,0.372c-0.015-0.001-0.028-0.003-0.042-0.005c-0.101-0.017-2.16-0.545-2.26-0.57
			c-0.268-0.068-0.43-0.34-0.361-0.607c0.068-0.269,0.34-0.431,0.608-0.36l1.202,0.306c-0.317-0.508-0.748-0.938-1.289-1.234
			c-0.832-0.457-1.789-0.562-2.696-0.295c-0.911,0.265-1.663,0.867-2.119,1.699c-0.456,0.83-0.562,1.788-0.296,2.697
			c0.266,0.912,0.869,1.663,1.699,2.12c0.83,0.456,1.789,0.562,2.699,0.295c0.265-0.08,0.543,0.075,0.621,0.34
			c0.076,0.265-0.076,0.543-0.34,0.62c-0.422,0.123-0.852,0.184-1.279,0.184c-0.754,0-1.502-0.189-2.182-0.562
			c-1.064-0.584-1.839-1.549-2.178-2.715c-0.34-1.166-0.205-2.395,0.379-3.461c0.585-1.064,1.549-1.838,2.717-2.178
			c1.166-0.34,2.393-0.205,3.457,0.379c0.635,0.349,1.149,0.844,1.547,1.424l0.232-0.911c0.067-0.269,0.34-0.431,0.608-0.361
			C21.957,13.865,22.118,14.137,22.05,14.404z"/>
	</g>
</g>
<g id="Outline_Icons">
	<g>
		<g>
			<g>
				<path fill="none" stroke="#000000" stroke-linecap="round" stroke-linejoin="round" stroke-miterlimit="10" d="M18.394,23.367
					c-2.65,0.772-5.428-0.751-6.2-3.402c-0.772-2.65,0.751-5.427,3.403-6.197c2.649-0.774,5.426,0.75,6.197,3.4"/>
				<polyline fill="none" stroke="#000000" stroke-linecap="round" stroke-linejoin="round" stroke-miterlimit="10" points="
					22.493,14.428 21.795,17.168 19.057,16.471 				"/>
			</g>
		</g>
		<g>
			<polyline fill="none" stroke="#000000" stroke-linejoin="round" stroke-miterlimit="10" points="11,21.5 0.5,21.5 0.5,0.5 
				11.5,0.5 16.5,5.5 16.492,11.001 			"/>
			<polyline fill="none" stroke="#000000" stroke-linecap="round" stroke-linejoin="round" stroke-miterlimit="10" points="
				11.5,0.5 11.5,5.5 16.5,5.5 			"/>
		</g>
	</g>
</g>
</svg>
