<?xml version="1.0" encoding="utf-8"?>
<!-- Generator: Adobe Illustrator 19.2.0, SVG Export Plug-In . SVG Version: 6.00 Build 0)  -->
<svg version="1.1" id="Layer_1" xmlns="http://www.w3.org/2000/svg" xmlns:xlink="http://www.w3.org/1999/xlink" x="0px" y="0px"
	 viewBox="0 0 24 24" enable-background="new 0 0 24 24" xml:space="preserve">
<g id="Filled_Icons" display="none">
	<path display="inline" d="M20.853,6.146l-6-6C14.76,0.053,14.632,0,14.5,0h-11C3.224,0,3,0.224,3,0.5v23C3,23.775,3.224,24,3.5,24
		h17c0.275,0,0.5-0.225,0.5-0.5v-17C21,6.367,20.947,6.24,20.853,6.146z M7.5,7H12c0.276,0,0.5,0.224,0.5,0.5
		C12.5,7.776,12.276,8,12,8H7.5C7.224,8,7,7.776,7,7.5C7,7.224,7.224,7,7.5,7z M16.5,20h-9C7.224,20,7,19.775,7,19.5
		C7,19.225,7.224,19,7.5,19h9c0.275,0,0.5,0.225,0.5,0.5C17,19.775,16.775,20,16.5,20z M16.5,17h-9C7.224,17,7,16.775,7,16.5
		C7,16.225,7.224,16,7.5,16h9c0.275,0,0.5,0.225,0.5,0.5C17,16.775,16.775,17,16.5,17z M16.5,14h-9C7.224,14,7,13.775,7,13.5
		C7,13.225,7.224,13,7.5,13h9c0.275,0,0.5,0.225,0.5,0.5C17,13.775,16.775,14,16.5,14z M16.5,11h-9C7.224,11,7,10.776,7,10.5
		C7,10.224,7.224,10,7.5,10h9c0.275,0,0.5,0.224,0.5,0.5C17,10.776,16.775,11,16.5,11z M14.5,6.5v-6l6,6H14.5z"/>
</g>
<g id="Outline_Icons">
	<g>
		<polygon fill="none" stroke="#000000" stroke-linecap="round" stroke-linejoin="round" stroke-miterlimit="10" points="20.5,23.5 
			3.5,23.5 3.5,0.5 14.5,0.5 20.5,6.5 		"/>
		<polyline fill="none" stroke="#000000" stroke-linecap="round" stroke-linejoin="round" stroke-miterlimit="10" points="14.5,0.5 
			14.5,6.5 20.5,6.5 		"/>
		
			<line fill="none" stroke="#000000" stroke-linecap="round" stroke-linejoin="round" stroke-miterlimit="10" x1="7.5" y1="7.5" x2="12" y2="7.5"/>
		
			<line fill="none" stroke="#000000" stroke-linecap="round" stroke-linejoin="round" stroke-miterlimit="10" x1="7.5" y1="10.5" x2="16.5" y2="10.5"/>
		
			<line fill="none" stroke="#000000" stroke-linecap="round" stroke-linejoin="round" stroke-miterlimit="10" x1="7.5" y1="13.5" x2="16.5" y2="13.5"/>
		
			<line fill="none" stroke="#000000" stroke-linecap="round" stroke-linejoin="round" stroke-miterlimit="10" x1="7.5" y1="16.5" x2="16.5" y2="16.5"/>
		
			<line fill="none" stroke="#000000" stroke-linecap="round" stroke-linejoin="round" stroke-miterlimit="10" x1="7.5" y1="19.5" x2="16.5" y2="19.5"/>
	</g>
</g>
</svg>
