<?xml version="1.0" encoding="utf-8"?>
<!-- Generator: Adobe Illustrator 19.2.0, SVG Export Plug-In . SVG Version: 6.00 Build 0)  -->
<svg version="1.1" id="Layer_1" xmlns="http://www.w3.org/2000/svg" xmlns:xlink="http://www.w3.org/1999/xlink" x="0px" y="0px"
	 viewBox="0 0 24 24" enable-background="new 0 0 24 24" xml:space="preserve">
<g id="Filled_Icons" display="none">
	<g display="inline">
		<path d="M13.753,19.498l-2.214-1.846c-0.485-0.404-0.665-1.069-0.45-1.662C11.305,15.397,11.869,15,12.5,15h2.575l1.592-3.173
			c0.083-0.165,0.201-0.301,0.333-0.422V5.5c0-0.133-0.053-0.26-0.147-0.354l-4.999-5C11.76,0.053,11.632,0,11.5,0h-11
			C0.224,0,0,0.224,0,0.5v21C0,21.775,0.224,22,0.5,22l12.419,0.001L13.753,19.498z M11.5,0.5l5,5h-5V0.5z M3.5,6H8
			c0.276,0,0.5,0.224,0.5,0.5C8.5,6.776,8.276,7,8,7H3.5C3.224,7,3,6.776,3,6.5C3,6.224,3.224,6,3.5,6z M3.5,9h8
			C11.776,9,12,9.224,12,9.5c0,0.276-0.224,0.5-0.5,0.5h-8C3.224,10,3,9.776,3,9.5C3,9.224,3.224,9,3.5,9z M8.5,16h-5
			C3.224,16,3,15.775,3,15.5C3,15.225,3.224,15,3.5,15h5C8.776,15,9,15.225,9,15.5C9,15.775,8.776,16,8.5,16z M9.5,13h-6
			C3.224,13,3,12.775,3,12.5C3,12.224,3.224,12,3.5,12h6c0.276,0,0.5,0.224,0.5,0.5C10,12.775,9.776,13,9.5,13z"/>
		<path d="M23.971,16.33C23.898,16.132,23.71,16,23.5,16h-3.19l-1.854-3.723C18.371,12.107,18.197,12,18.009,12
			c-0.219-0.038-0.362,0.106-0.448,0.276L15.691,16H12.5c-0.21,0-0.398,0.132-0.47,0.33c-0.072,0.199-0.012,0.42,0.15,0.555
			l2.738,2.281l-1.393,4.178c-0.067,0.205,0.002,0.428,0.174,0.559c0.089,0.066,0.195,0.101,0.301,0.101
			c0.1,0,0.197-0.028,0.283-0.088L18,21.361l3.717,2.552c0.178,0.122,0.413,0.116,0.584-0.013c0.172-0.131,0.242-0.354,0.174-0.559
			l-1.393-4.177l2.738-2.281C23.982,16.75,24.042,16.527,23.971,16.33z"/>
	</g>
</g>
<g id="Outline_Icons">
	<g>
		
			<line fill="none" stroke="#000000" stroke-linecap="round" stroke-linejoin="round" stroke-miterlimit="10" x1="3.494" y1="6.532" x2="7.994" y2="6.532"/>
		
			<line fill="none" stroke="#000000" stroke-linecap="round" stroke-linejoin="round" stroke-miterlimit="10" x1="3.494" y1="9.532" x2="11.494" y2="9.532"/>
		
			<line fill="none" stroke="#000000" stroke-linecap="round" stroke-linejoin="round" stroke-miterlimit="10" x1="3.494" y1="12.531" x2="9.494" y2="12.531"/>
		
			<line fill="none" stroke="#000000" stroke-linecap="round" stroke-linejoin="round" stroke-miterlimit="10" x1="3.494" y1="15.531" x2="8.494" y2="15.531"/>
		<polygon fill="none" stroke="#000000" stroke-linejoin="round" stroke-miterlimit="10" points="18.008,12.5 20,16.5 23.5,16.5 
			20.5,19 22,23.501 18,20.754 14,23.502 15.5,19 12.5,16.5 16,16.5 		"/>
		<g>
			<polyline fill="none" stroke="#000000" stroke-linejoin="round" stroke-miterlimit="10" points="12.494,21.531 0.5,21.531 
				0.5,0.532 11.5,0.532 16.5,5.532 16.5,11.032 			"/>
			<polyline fill="none" stroke="#000000" stroke-linecap="round" stroke-linejoin="round" stroke-miterlimit="10" points="
				11.5,0.532 11.5,5.532 16.5,5.532 			"/>
		</g>
	</g>
</g>
</svg>
