<?xml version="1.0" encoding="utf-8"?>
<!-- Generator: Adobe Illustrator 19.2.0, SVG Export Plug-In . SVG Version: 6.00 Build 0)  -->
<svg version="1.1" id="Layer_1" xmlns="http://www.w3.org/2000/svg" xmlns:xlink="http://www.w3.org/1999/xlink" x="0px" y="0px"
	 viewBox="0 0 24 24" enable-background="new 0 0 24 24" xml:space="preserve">
<g id="Filled_Icons" display="none">
	<g display="inline">
		<path d="M10,17.5c0-3.967,3.098-7.215,7-7.474v-1V5.5c0-0.133-0.053-0.26-0.147-0.354l-4.999-5C11.76,0.053,11.633,0,11.5,0h-11
			C0.225,0,0,0.224,0,0.5v21C0,21.775,0.225,22,0.5,22h9.802h1.212C10.568,20.745,10,19.19,10,17.5z M11.5,0.5l5,5h-5V0.5z M5,5
			c1.103,0,2,0.897,2,2S6.103,9,5,9S3,8.103,3,7S3.897,5,5,5z M3.5,18c-0.173,0-0.334-0.089-0.426-0.236
			c-0.091-0.148-0.099-0.332-0.021-0.486l2.5-5c0.072-0.144,0.209-0.244,0.367-0.27c0.158-0.026,0.32,0.026,0.434,0.14l1.527,1.527
			l2.681-4.913c0.092-0.168,0.251-0.285,0.466-0.26c0.192,0.01,0.361,0.13,0.435,0.309l0.824,2.001C10.291,12.365,9,14.781,9,17.5
			c0,0.17,0.026,0.333,0.036,0.5H3.5z"/>
		<path d="M17.5,11c-3.584,0-6.5,2.916-6.5,6.5s2.916,6.5,6.5,6.5s6.5-2.916,6.5-6.5S21.084,11,17.5,11z M22.05,14.404l-0.565,2.219
			c-0.063,0.266-0.379,0.438-0.607,0.361l-2.217-0.566c-0.268-0.067-0.43-0.34-0.361-0.606c0.069-0.268,0.34-0.431,0.608-0.36
			l1.202,0.306c-0.317-0.508-0.748-0.938-1.287-1.234c-0.832-0.455-1.79-0.561-2.697-0.295c-0.911,0.265-1.663,0.867-2.119,1.699
			c-0.457,0.83-0.562,1.788-0.297,2.697c0.266,0.912,0.869,1.663,1.699,2.12c0.832,0.456,1.789,0.562,2.699,0.295
			c0.266-0.08,0.543,0.075,0.621,0.34c0.076,0.265-0.076,0.544-0.342,0.62c-0.421,0.123-0.851,0.184-1.277,0.184
			c-0.754,0-1.502-0.189-2.182-0.562c-1.064-0.584-1.84-1.549-2.179-2.715c-0.34-1.165-0.205-2.395,0.379-3.461
			c0.585-1.064,1.55-1.838,2.716-2.178c1.165-0.34,2.393-0.205,3.459,0.379c0.635,0.349,1.149,0.845,1.547,1.424l0.232-0.911
			c0.067-0.269,0.34-0.431,0.606-0.361C21.955,13.867,22.118,14.137,22.05,14.404z"/>
	</g>
</g>
<g id="Outline_Icons">
	<g>
		<g>
			<path fill="none" stroke="#000000" stroke-linecap="round" stroke-linejoin="round" stroke-miterlimit="10" d="M18.394,23.333
				c-2.65,0.773-5.427-0.751-6.2-3.401c-0.771-2.65,0.753-5.426,3.405-6.199c2.648-0.771,5.424,0.752,6.196,3.401"/>
			<polyline fill="none" stroke="#000000" stroke-linecap="round" stroke-linejoin="round" stroke-miterlimit="10" points="
				22.493,14.395 21.796,17.134 19.057,16.438 			"/>
		</g>
		<g>
			<polyline fill="none" stroke="#000000" stroke-linecap="round" stroke-linejoin="round" stroke-miterlimit="10" points="
				12.493,12.501 11,9 8,14.5 6,12.5 3.5,17.5 8.96,17.5 			"/>
			
				<circle fill="none" stroke="#000000" stroke-linecap="round" stroke-linejoin="round" stroke-miterlimit="10" cx="5" cy="7" r="1.5"/>
			<polyline fill="none" stroke="#000000" stroke-linejoin="round" stroke-miterlimit="10" points="11,21.5 0.5,21.5 0.5,0.5 
				11.5,0.5 16.5,5.5 16.493,11.001 			"/>
			<polyline fill="none" stroke="#000000" stroke-linecap="round" stroke-linejoin="round" stroke-miterlimit="10" points="
				11.5,0.5 11.5,5.5 16.5,5.5 			"/>
		</g>
	</g>
</g>
</svg>
