<?xml version="1.0" encoding="utf-8"?>
<!-- Generator: Adobe Illustrator 19.2.0, SVG Export Plug-In . SVG Version: 6.00 Build 0)  -->
<svg version="1.1" id="Layer_1" xmlns="http://www.w3.org/2000/svg" xmlns:xlink="http://www.w3.org/1999/xlink" x="0px" y="0px"
	 viewBox="0 0 24 24" enable-background="new 0 0 24 24" xml:space="preserve">
<g id="Filled_Icons" display="none">
	<g display="inline">
		<path d="M10,17.5c0-3.967,3.098-7.215,7-7.474V5.5c0-0.133-0.053-0.26-0.147-0.354l-4.999-5C11.76,0.053,11.632,0,11.5,0h-11
			C0.224,0,0,0.224,0,0.5v21C0,21.775,0.224,22,0.5,22h11.015C10.568,20.745,10,19.19,10,17.5z M11.5,0.5l5,5h-5V0.5z M3.5,6H8
			c0.276,0,0.5,0.224,0.5,0.5C8.5,6.776,8.276,7,8,7H3.5C3.224,7,3,6.776,3,6.5C3,6.224,3.224,6,3.5,6z M3.5,9h8
			C11.776,9,12,9.224,12,9.5c0,0.276-0.224,0.5-0.5,0.5h-8C3.224,10,3,9.776,3,9.5C3,9.224,3.224,9,3.5,9z M8.5,16h-5
			C3.224,16,3,15.775,3,15.5C3,15.225,3.224,15,3.5,15h5C8.776,15,9,15.225,9,15.5C9,15.775,8.776,16,8.5,16z M9.5,13h-6
			C3.224,13,3,12.775,3,12.5C3,12.224,3.224,12,3.5,12h6c0.276,0,0.5,0.224,0.5,0.5C10,12.775,9.776,13,9.5,13z"/>
		<path d="M17.5,11c-3.584,0-6.5,2.916-6.5,6.5s2.916,6.5,6.5,6.5s6.5-2.916,6.5-6.5S21.084,11,17.5,11z M20.553,19.846
			c0.195,0.195,0.195,0.512,0,0.707c-0.098,0.098-0.226,0.146-0.354,0.146c-0.127,0-0.256-0.049-0.353-0.146L17.5,18.207
			l-2.348,2.346c-0.098,0.098-0.225,0.146-0.354,0.146c-0.128,0-0.256-0.049-0.353-0.146c-0.195-0.195-0.195-0.512,0-0.707
			l2.347-2.346l-2.347-2.348c-0.195-0.195-0.195-0.512,0-0.707c0.195-0.194,0.512-0.194,0.707,0l2.347,2.348l2.347-2.348
			c0.195-0.194,0.512-0.194,0.707,0c0.195,0.195,0.195,0.512,0,0.707L18.207,17.5L20.553,19.846z"/>
	</g>
</g>
<g id="Outline_Icons">
	<g>
		
			<line fill="none" stroke="#000000" stroke-linecap="round" stroke-linejoin="round" stroke-miterlimit="10" x1="3.498" y1="6.532" x2="7.998" y2="6.532"/>
		
			<line fill="none" stroke="#000000" stroke-linecap="round" stroke-linejoin="round" stroke-miterlimit="10" x1="3.498" y1="9.532" x2="11.498" y2="9.532"/>
		
			<line fill="none" stroke="#000000" stroke-linecap="round" stroke-linejoin="round" stroke-miterlimit="10" x1="3.498" y1="12.531" x2="9.498" y2="12.531"/>
		
			<line fill="none" stroke="#000000" stroke-linecap="round" stroke-linejoin="round" stroke-miterlimit="10" x1="3.498" y1="15.531" x2="8.498" y2="15.531"/>
		<circle fill="none" stroke="#000000" stroke-linejoin="round" stroke-miterlimit="10" cx="17.5" cy="17.5" r="6"/>
		
			<line fill="none" stroke="#000000" stroke-linecap="round" stroke-linejoin="round" stroke-miterlimit="10" x1="15.297" y1="20.697" x2="20.697" y2="15.298"/>
		
			<line fill="none" stroke="#000000" stroke-linecap="round" stroke-linejoin="round" stroke-miterlimit="10" x1="20.199" y1="20.2" x2="14.799" y2="14.8"/>
		<g>
			<polyline fill="none" stroke="#000000" stroke-linejoin="round" stroke-miterlimit="10" points="11,21.531 0.5,21.531 0.5,0.532 
				11.5,0.532 16.5,5.532 16.5,10.032 			"/>
			<polyline fill="none" stroke="#000000" stroke-linecap="round" stroke-linejoin="round" stroke-miterlimit="10" points="
				11.5,0.532 11.5,5.532 16.5,5.532 			"/>
		</g>
	</g>
</g>
</svg>
