<?xml version="1.0" encoding="utf-8"?>
<!-- Generator: Adobe Illustrator 19.2.0, SVG Export Plug-In . SVG Version: 6.00 Build 0)  -->
<svg version="1.1" id="Layer_1" xmlns="http://www.w3.org/2000/svg" xmlns:xlink="http://www.w3.org/1999/xlink" x="0px" y="0px"
	 viewBox="0 0 24 24" enable-background="new 0 0 24 24" xml:space="preserve">
<g id="Filled_Icons" display="none">
	<g display="inline">
		<path d="M10,17.534c0-3.968,3.098-7.216,7-7.475V5.5c0-0.133-0.053-0.26-0.147-0.354l-4.999-5C11.76,0.053,11.633,0,11.5,0h-11
			C0.225,0,0,0.224,0,0.5v21C0,21.775,0.225,22,0.5,22h10.988C10.558,20.751,10,19.208,10,17.534z M11.5,0.5l5,5h-5V0.5z
			 M5.416,13.416c0.195,0.195,0.195,0.512,0,0.707C5.318,14.221,5.19,14.27,5.063,14.27c-0.127,0-0.256-0.049-0.354-0.146
			l-2.77-2.77c-0.195-0.195-0.195-0.512,0-0.707l2.77-2.77c0.195-0.195,0.512-0.195,0.707,0c0.195,0.195,0.195,0.512,0,0.707L3,11
			L5.416,13.416z M8.524,14.27c-0.128,0-0.256-0.049-0.354-0.146c-0.195-0.194-0.195-0.513,0-0.707L10.586,11L8.171,8.584
			c-0.195-0.195-0.195-0.512,0-0.707c0.195-0.195,0.512-0.195,0.707,0l2.769,2.77c0.195,0.195,0.195,0.512,0,0.707l-2.769,2.77
			C8.78,14.221,8.652,14.27,8.524,14.27z"/>
		<path d="M17.48,11c-3.584,0-6.499,2.916-6.499,6.5S13.896,24,17.48,24s6.5-2.916,6.5-6.5S21.064,11,17.48,11z M17.48,16.928
			c1.043,0,1.892,0.85,1.892,1.893c0,0.867-0.593,1.595-1.392,1.815v0.502c0,0.277-0.224,0.5-0.5,0.5c-0.275,0-0.5-0.223-0.5-0.5
			v-0.502c-0.799-0.221-1.391-0.947-1.391-1.815c0-0.276,0.225-0.5,0.5-0.5c0.276,0,0.5,0.224,0.5,0.5
			c0,0.49,0.399,0.891,0.891,0.891c0.492,0,0.892-0.398,0.892-0.891c0-0.492-0.399-0.893-0.892-0.893
			c-1.043,0-1.891-0.848-1.891-1.891c0-0.868,0.592-1.596,1.391-1.814v-0.504c0-0.275,0.225-0.5,0.5-0.5c0.276,0,0.5,0.225,0.5,0.5
			v0.504c0.799,0.221,1.392,0.946,1.392,1.814c0,0.275-0.224,0.5-0.5,0.5c-0.276,0-0.5-0.225-0.5-0.5
			c0-0.49-0.399-0.893-0.892-0.893c-0.492,0-0.891,0.401-0.891,0.893C16.591,16.529,16.99,16.928,17.48,16.928z"/>
	</g>
</g>
<g id="Outline_Icons">
	<g>
		<polyline fill="none" stroke="#000000" stroke-linecap="round" stroke-linejoin="round" stroke-miterlimit="10" points="
			5.75,8.765 2.98,11.534 5.75,14.305 		"/>
		<polyline fill="none" stroke="#000000" stroke-linecap="round" stroke-linejoin="round" stroke-miterlimit="10" points="
			9.211,8.765 11.98,11.534 9.211,14.305 		"/>
		<g>
			<g>
				<circle fill="none" stroke="#000000" stroke-linejoin="round" stroke-miterlimit="10" cx="17.5" cy="17.5" r="6"/>
				<g>
					<path fill="none" stroke="#000000" stroke-linecap="round" stroke-linejoin="round" stroke-miterlimit="10" d="M16.109,18.82
						c0,0.768,0.623,1.391,1.391,1.391c0.769,0,1.391-0.623,1.391-1.391c0-0.768-0.621-1.391-1.391-1.391
						c-0.768,0-1.391-0.623-1.391-1.392c0-0.769,0.623-1.392,1.391-1.392c0.769,0,1.391,0.623,1.391,1.392"/>
					
						<line fill="none" stroke="#000000" stroke-linecap="round" stroke-linejoin="round" stroke-miterlimit="10" x1="17.5" y1="20.211" x2="17.5" y2="21.139"/>
					
						<line fill="none" stroke="#000000" stroke-linecap="round" stroke-linejoin="round" stroke-miterlimit="10" x1="17.5" y1="13.721" x2="17.5" y2="14.647"/>
				</g>
			</g>
		</g>
		<g>
			<polyline fill="none" stroke="#000000" stroke-linejoin="round" stroke-miterlimit="10" points="11,21.5 0.5,21.5 0.5,0.5 
				11.5,0.5 16.5,5.5 16.5,10 			"/>
			<polyline fill="none" stroke="#000000" stroke-linecap="round" stroke-linejoin="round" stroke-miterlimit="10" points="
				11.5,0.5 11.5,5.5 16.5,5.5 			"/>
		</g>
	</g>
</g>
</svg>
