<?xml version="1.0" encoding="utf-8"?>
<!-- Generator: Adobe Illustrator 19.2.0, SVG Export Plug-In . SVG Version: 6.00 Build 0)  -->
<svg version="1.1" id="Layer_1" xmlns="http://www.w3.org/2000/svg" xmlns:xlink="http://www.w3.org/1999/xlink" x="0px" y="0px"
	 viewBox="0 0 24 24" enable-background="new 0 0 24 24" xml:space="preserve">
<g id="Filled_Icons" display="none">
	<g display="inline">
		<path d="M13.745,19.531l-2.213-1.846c-0.485-0.404-0.665-1.068-0.45-1.662c0.215-0.594,0.778-0.989,1.41-0.989h2.574l1.593-3.173
			c0.085-0.168,0.206-0.307,0.341-0.429V5.5c0-0.133-0.053-0.26-0.147-0.354l-4.999-5C11.76,0.053,11.633,0,11.5,0h-11
			C0.225,0,0,0.224,0,0.5v21C0,21.775,0.225,22,0.5,22h10.988h1.435L13.745,19.531z M11.5,0.5l5,5h-5V0.5z M5.416,13.416
			c0.195,0.195,0.195,0.512,0,0.707C5.318,14.221,5.19,14.27,5.063,14.27c-0.127,0-0.256-0.049-0.354-0.146l-2.77-2.77
			c-0.195-0.195-0.195-0.512,0-0.707l2.77-2.77c0.195-0.195,0.512-0.195,0.707,0c0.195,0.195,0.195,0.512,0,0.707L3,11L5.416,13.416
			z M8.524,14.27c-0.128,0-0.256-0.049-0.354-0.146c-0.195-0.194-0.195-0.513,0-0.707L10.586,11L8.171,8.584
			c-0.195-0.195-0.195-0.512,0-0.707c0.195-0.195,0.512-0.195,0.707,0l2.769,2.77c0.195,0.195,0.195,0.512,0,0.707l-2.769,2.77
			C8.78,14.221,8.652,14.27,8.524,14.27z"/>
		<path d="M23.963,16.33c-0.07-0.198-0.259-0.33-0.47-0.33h-3.191l-1.853-3.723C18.363,12.107,18.191,12,18.002,12h-0.001
			c-0.189,0-0.362,0.106-0.446,0.276L15.685,16h-3.191c-0.211,0-0.398,0.132-0.47,0.33c-0.072,0.197-0.012,0.42,0.149,0.555
			l2.738,2.28l-1.393,4.177c-0.066,0.205,0.002,0.428,0.174,0.559c0.172,0.129,0.406,0.135,0.584,0.013l3.718-2.552l3.717,2.552
			C21.796,23.971,21.894,24,21.993,24c0.106,0,0.212-0.033,0.301-0.102c0.172-0.129,0.241-0.352,0.174-0.558l-1.393-4.177
			l2.737-2.28C23.975,16.75,24.035,16.527,23.963,16.33z"/>
	</g>
</g>
<g id="Outline_Icons">
	<g>
		<polyline fill="none" stroke="#000000" stroke-linecap="round" stroke-linejoin="round" stroke-miterlimit="10" points="
			5.762,8.765 2.992,11.534 5.762,14.305 		"/>
		<polyline fill="none" stroke="#000000" stroke-linecap="round" stroke-linejoin="round" stroke-miterlimit="10" points="
			9.223,8.765 11.992,11.534 9.223,14.305 		"/>
		<g>
			<polygon fill="none" stroke="#000000" stroke-linejoin="round" stroke-miterlimit="10" points="18.008,12.5 20,16.5 23.5,16.5 
				20.5,19 22,23.501 18,20.754 14,23.502 15.5,19 12.5,16.5 16,16.5 			"/>
		</g>
		<g>
			<polyline fill="none" stroke="#000000" stroke-linejoin="round" stroke-miterlimit="10" points="12.492,21.5 0.5,21.5 0.5,0.5 
				11.5,0.5 16.5,5.5 16.5,11 			"/>
			<polyline fill="none" stroke="#000000" stroke-linecap="round" stroke-linejoin="round" stroke-miterlimit="10" points="
				11.5,0.5 11.5,5.5 16.5,5.5 			"/>
		</g>
	</g>
</g>
</svg>
