<?xml version="1.0" encoding="utf-8"?>
<!-- Generator: Adobe Illustrator 19.2.0, SVG Export Plug-In . SVG Version: 6.00 Build 0)  -->
<svg version="1.1" id="Layer_1" xmlns="http://www.w3.org/2000/svg" xmlns:xlink="http://www.w3.org/1999/xlink" x="0px" y="0px"
	 viewBox="0 0 24 24" enable-background="new 0 0 24 24" xml:space="preserve">
<g id="Filled_Icons" display="none">
	<g display="inline">
		<path d="M9.754,13.229c0.476,0,0.764,0.201,0.934,0.648c0.098,0.257,0.386,0.389,0.646,0.29c0.258-0.099,0.388-0.388,0.29-0.645
			c-0.316-0.834-0.98-1.294-1.869-1.294c-0.784,0-2.099,0.36-2.099,2.771c0,2.411,1.314,2.771,2.099,2.771
			c0.887,0,1.549-0.457,1.865-1.285c0.099-0.258-0.03-0.547-0.288-0.646c-0.255-0.098-0.546,0.03-0.646,0.289
			c-0.17,0.442-0.457,0.642-0.932,0.642c-0.301,0-1.099,0-1.099-1.771C8.655,13.229,9.453,13.229,9.754,13.229z"/>
		<path d="M19.853,6.146l-6-6C13.76,0.053,13.633,0,13.5,0h-13C0.225,0,0,0.224,0,0.5v23C0,23.775,0.225,24,0.5,24h19
			c0.275,0,0.5-0.225,0.5-0.5v-17C20,6.367,19.947,6.24,19.853,6.146z M10,21c-3.309,0-6-2.691-6-6c0-3.309,2.691-6,6-6
			c3.309,0,6,2.691,6,6C16,18.309,13.309,21,10,21z M13.5,6.5v-6l6,6H13.5z"/>
	</g>
</g>
<g id="Outline_Icons">
	<g>
		
			<circle fill="none" stroke="#000000" stroke-linecap="round" stroke-linejoin="round" stroke-miterlimit="10" cx="10" cy="15" r="5.5"/>
		<g>
			<polygon fill="none" stroke="#000000" stroke-linecap="round" stroke-linejoin="round" stroke-miterlimit="10" points="
				19.5,23.5 0.5,23.5 0.5,0.5 13.5,0.5 19.5,6.5 			"/>
			<polyline fill="none" stroke="#000000" stroke-linecap="round" stroke-linejoin="round" stroke-miterlimit="10" points="
				13.5,0.5 13.5,6.5 19.5,6.5 			"/>
		</g>
		<path fill="none" stroke="#000000" stroke-linecap="round" stroke-linejoin="round" stroke-miterlimit="10" d="M11.155,13.7
			c-0.223-0.587-0.655-0.972-1.401-0.972c-1.217,0-1.599,1.018-1.599,2.271c0,1.254,0.382,2.272,1.599,2.272
			c0.744,0,1.176-0.381,1.398-0.965"/>
	</g>
</g>
</svg>
