<?xml version="1.0" encoding="utf-8"?>
<!-- Generator: Adobe Illustrator 19.2.0, SVG Export Plug-In . SVG Version: 6.00 Build 0)  -->
<svg version="1.1" id="Layer_1" xmlns="http://www.w3.org/2000/svg" xmlns:xlink="http://www.w3.org/1999/xlink" x="0px" y="0px"
	 viewBox="0 0 24 24" enable-background="new 0 0 24 24" xml:space="preserve">
<g id="Filled_Icons" display="none">
	<g display="inline">
		<path d="M15,12.5c0-0.277,0.225-0.5,0.5-0.5H17V5.5c0-0.133-0.053-0.26-0.147-0.354l-4.999-5C11.76,0.052,11.632,0,11.5,0h-11
			C0.224,0,0,0.223,0,0.5v21C0,21.775,0.224,22,0.5,22H12v-3.5c0-0.277,0.224-0.5,0.5-0.5H15V12.5z M11.5,5.5v-5l5,5H11.5z"/>
		<path d="M23.5,19h-2h-2c-0.275,0-0.5,0.223-0.5,0.5v4c0,0.275,0.225,0.5,0.5,0.5h4c0.275,0,0.5-0.225,0.5-0.5v-4
			C24,19.223,23.775,19,23.5,19z"/>
		<path d="M17.5,19h-2h-2H13v0.5v4c0,0.275,0.225,0.5,0.5,0.5h4c0.275,0,0.5-0.225,0.5-0.5v-4C18,19.223,17.775,19,17.5,19z"/>
		<path d="M21,17.5v-4c0-0.277-0.225-0.5-0.5-0.5h-4H16v0.5v4V18h0.5h2h2C20.775,18,21,17.775,21,17.5z"/>
	</g>
</g>
<g id="Outline_Icons">
	<g>
		<polyline fill="none" stroke="#000000" stroke-linejoin="round" stroke-miterlimit="10" points="10.5,21.5 0.5,21.5 0.5,0.5 
			11.5,0.5 16.5,5.5 16.5,10 		"/>
		<polyline fill="none" stroke="#000000" stroke-linecap="round" stroke-linejoin="round" stroke-miterlimit="10" points="11.5,0.5 
			11.5,5.5 16.5,5.5 		"/>
		
			<rect x="19.5" y="19.5" fill="none" stroke="#000000" stroke-linecap="round" stroke-linejoin="round" stroke-miterlimit="10" width="4" height="4"/>
		
			<rect x="13.5" y="19.5" fill="none" stroke="#000000" stroke-linecap="round" stroke-linejoin="round" stroke-miterlimit="10" width="4" height="4"/>
		
			<rect x="16.5" y="13.5" fill="none" stroke="#000000" stroke-linecap="round" stroke-linejoin="round" stroke-miterlimit="10" width="4" height="4"/>
	</g>
</g>
</svg>
