<?xml version="1.0" encoding="utf-8"?>
<!-- Generator: Adobe Illustrator 19.2.0, SVG Export Plug-In . SVG Version: 6.00 Build 0)  -->
<svg version="1.1" id="Layer_1" xmlns="http://www.w3.org/2000/svg" xmlns:xlink="http://www.w3.org/1999/xlink" x="0px" y="0px"
	 viewBox="0 0 24 24" enable-background="new 0 0 24 24" xml:space="preserve">
<g id="Filled_Icons" display="none">
	<g display="inline">
		<path d="M10,17.534c0-3.968,3.098-7.216,7-7.475V5.5c0-0.133-0.053-0.26-0.147-0.354l-4.999-5C11.76,0.053,11.633,0,11.5,0h-11
			C0.225,0,0,0.224,0,0.5v21C0,21.775,0.225,22,0.5,22h10.988C10.558,20.751,10,19.208,10,17.534z M11.5,0.5l5,5h-5V0.5z
			 M5.416,13.416c0.195,0.195,0.195,0.512,0,0.707C5.318,14.221,5.19,14.27,5.063,14.27c-0.127,0-0.256-0.049-0.354-0.146
			l-2.77-2.77c-0.195-0.195-0.195-0.512,0-0.707l2.77-2.77c0.195-0.195,0.512-0.195,0.707,0c0.195,0.195,0.195,0.512,0,0.707L3,11
			L5.416,13.416z M8.524,14.27c-0.128,0-0.256-0.049-0.354-0.146c-0.195-0.194-0.195-0.513,0-0.707L10.586,11L8.171,8.584
			c-0.195-0.195-0.195-0.512,0-0.707c0.195-0.195,0.512-0.195,0.707,0l2.769,2.77c0.195,0.195,0.195,0.512,0,0.707l-2.769,2.77
			C8.78,14.221,8.652,14.27,8.524,14.27z"/>
		<path d="M17.5,11c-3.584,0-6.5,2.915-6.5,6.5c0,3.584,2.916,6.5,6.5,6.5s6.5-2.916,6.5-6.5C24,13.915,21.084,11,17.5,11z
			 M22.05,14.404l-0.565,2.219c-0.004,0.022-0.019,0.037-0.025,0.057c-0.012,0.03-0.024,0.062-0.043,0.088
			c-0.018,0.027-0.037,0.049-0.059,0.072c-0.023,0.024-0.047,0.047-0.074,0.065c-0.01,0.008-0.016,0.019-0.027,0.025
			c-0.011,0.004-0.027,0.004-0.041,0.012c-0.025,0.012-0.047,0.029-0.074,0.039c-0.031,0.008-0.063,0.006-0.097,0.008
			C21.027,16.988,21.016,17,21,17c-0.014,0-0.025-0.004-0.039-0.005c-0.016-0.001-0.027-0.003-0.042-0.005
			c-0.015-0.004-0.028-0.002-0.043-0.006l-2.217-0.566c-0.269-0.067-0.431-0.34-0.361-0.608c0.068-0.266,0.341-0.43,0.608-0.358
			l1.201,0.306c-0.316-0.509-0.748-0.938-1.287-1.234c-0.832-0.455-1.789-0.561-2.696-0.295c-0.911,0.265-1.663,0.869-2.119,1.699
			c-0.457,0.83-0.562,1.788-0.297,2.696c0.267,0.912,0.869,1.663,1.699,2.12c0.831,0.456,1.788,0.561,2.7,0.296
			c0.265-0.08,0.541,0.073,0.619,0.34c0.076,0.265-0.076,0.544-0.34,0.619c-0.422,0.123-0.852,0.185-1.279,0.185
			c-0.754,0-1.502-0.189-2.182-0.563c-1.064-0.584-1.839-1.55-2.178-2.716c-0.34-1.164-0.205-2.394,0.379-3.459
			c0.585-1.065,1.549-1.838,2.716-2.178c1.165-0.34,2.394-0.207,3.458,0.379c0.635,0.349,1.149,0.844,1.547,1.424l0.232-0.912
			c0.068-0.268,0.34-0.43,0.607-0.36C21.956,13.865,22.118,14.137,22.05,14.404z"/>
	</g>
</g>
<g id="Outline_Icons">
	<g>
		<polyline fill="none" stroke="#000000" stroke-linecap="round" stroke-linejoin="round" stroke-miterlimit="10" points="
			5.762,8.765 2.992,11.534 5.762,14.305 		"/>
		<polyline fill="none" stroke="#000000" stroke-linecap="round" stroke-linejoin="round" stroke-miterlimit="10" points="
			9.223,8.765 11.992,11.534 9.223,14.305 		"/>
		<g>
			<g>
				<path fill="none" stroke="#000000" stroke-linecap="round" stroke-linejoin="round" stroke-miterlimit="10" d="M18.394,23.299
					c-2.65,0.771-5.428-0.751-6.2-3.402c-0.772-2.649,0.751-5.426,3.403-6.197c2.649-0.773,5.426,0.75,6.197,3.4"/>
				<polyline fill="none" stroke="#000000" stroke-linecap="round" stroke-linejoin="round" stroke-miterlimit="10" points="
					22.493,14.357 21.795,17.1 19.057,16.4 				"/>
			</g>
		</g>
		<g>
			<polyline fill="none" stroke="#000000" stroke-linejoin="round" stroke-miterlimit="10" points="11,21.5 0.5,21.5 0.5,0.5 
				11.5,0.5 16.5,5.5 16.492,11.001 			"/>
			<polyline fill="none" stroke="#000000" stroke-linecap="round" stroke-linejoin="round" stroke-miterlimit="10" points="
				11.5,0.5 11.5,5.5 16.5,5.5 			"/>
		</g>
	</g>
</g>
</svg>
