<?xml version="1.0" encoding="utf-8"?>
<!-- Generator: Adobe Illustrator 19.2.0, SVG Export Plug-In . SVG Version: 6.00 Build 0)  -->
<svg version="1.1" id="Outline_Icons" xmlns="http://www.w3.org/2000/svg" xmlns:xlink="http://www.w3.org/1999/xlink" x="0px"
	 y="0px" viewBox="0 0 24 24" enable-background="new 0 0 24 24" xml:space="preserve">
<g>
	<path fill="none" stroke="#000000" stroke-linecap="round" stroke-linejoin="round" stroke-miterlimit="10" d="M16.077,14.523
		c-0.168-0.745-0.547-1.023-1.359-1.023c-1.258,0-1.477,0.97-1.477,2.434s0.219,2.65,1.477,2.65c1.048,0,1.375-0.823,1.455-1.945
		H14.73"/>
	<path fill="none" stroke="#000000" stroke-linecap="round" stroke-linejoin="round" stroke-miterlimit="10" d="M3.5,18.471V13.5
		h1.373c1.152,0,1.77,0.944,1.77,2.377s-0.617,2.594-1.77,2.594H3.5z"/>
	<polyline fill="none" stroke="#000000" stroke-linecap="round" stroke-linejoin="round" stroke-miterlimit="10" points="
		11.5,18.471 11.5,13.5 10.031,15.877 8.5,13.5 8.5,18.471 	"/>
	<g>
		<g>
			<polygon fill="none" stroke="#000000" stroke-linecap="round" stroke-linejoin="round" stroke-miterlimit="10" points="
				19.5,23.5 0.5,23.5 0.5,0.5 13.5,0.5 19.5,6.5 			"/>
			<polyline fill="none" stroke="#000000" stroke-linecap="round" stroke-linejoin="round" stroke-miterlimit="10" points="
				13.5,0.5 13.5,6.5 19.5,6.5 			"/>
		</g>
	</g>
</g>
</svg>
