<?xml version="1.0" encoding="utf-8"?>
<!-- Generator: Adobe Illustrator 19.2.0, SVG Export Plug-In . SVG Version: 6.00 Build 0)  -->
<svg version="1.1" id="Layer_1" xmlns="http://www.w3.org/2000/svg" xmlns:xlink="http://www.w3.org/1999/xlink" x="0px" y="0px"
	 viewBox="0 0 24 24" enable-background="new 0 0 24 24" xml:space="preserve">
<g id="Filled_Icons" display="none">
	<g display="inline">
		<path d="M11.176,20.201c-0.199-0.346-0.253-0.754-0.15-1.139s0.354-0.713,0.699-0.91L11.988,18l-0.263-0.152
			c-0.717-0.414-0.963-1.332-0.548-2.049l1.5-2.598c0.414-0.717,1.33-0.962,2.047-0.551L15,12.811V12.5c0-0.829,0.671-1.5,1.5-1.5
			H17V5.499c0-0.132-0.053-0.259-0.147-0.353l-4.999-5C11.76,0.052,11.632-0.001,11.5-0.001h-11c-0.276,0-0.5,0.225-0.5,0.5v21
			c0,0.276,0.224,0.5,0.5,0.5L12.214,22L11.176,20.201z M11.5,0.499l5,5h-5V0.499z M3.5,5.999H8c0.276,0,0.5,0.225,0.5,0.5
			c0,0.277-0.224,0.5-0.5,0.5H3.5c-0.276,0-0.5-0.223-0.5-0.5C3,6.223,3.224,5.999,3.5,5.999z M3.5,8.999h8
			c0.276,0,0.5,0.225,0.5,0.5c0,0.277-0.224,0.5-0.5,0.5h-8c-0.276,0-0.5-0.223-0.5-0.5C3,9.223,3.224,8.999,3.5,8.999z M8.5,15.999
			h-5c-0.276,0-0.5-0.224-0.5-0.5c0-0.274,0.224-0.5,0.5-0.5h5c0.276,0,0.5,0.226,0.5,0.5C9,15.775,8.776,15.999,8.5,15.999z
			 M9.5,12.999h-6c-0.276,0-0.5-0.224-0.5-0.5c0-0.275,0.224-0.5,0.5-0.5h6c0.276,0,0.5,0.225,0.5,0.5
			C10,12.775,9.776,12.999,9.5,12.999z"/>
		<path d="M23.752,19.018l-0.797-0.459c0.021-0.188,0.033-0.375,0.033-0.559c0-0.182-0.012-0.368-0.033-0.559l0.795-0.459
			c0.238-0.139,0.32-0.443,0.184-0.684l-1.5-2.598c-0.066-0.115-0.177-0.199-0.305-0.233c-0.129-0.037-0.266-0.017-0.38,0.051
			l-0.792,0.459c-0.291-0.211-0.614-0.397-0.958-0.551V12.5c0-0.276-0.224-0.5-0.5-0.5h-3c-0.276,0-0.5,0.224-0.5,0.5v0.926
			c-0.294,0.131-0.638,0.312-0.972,0.555l-0.803-0.463c-0.24-0.137-0.545-0.056-0.683,0.184L12.041,16.3
			c-0.138,0.239-0.056,0.546,0.183,0.683l0.795,0.461C13,17.632,12.988,17.818,12.988,18c0,0.184,0.011,0.369,0.033,0.559
			l-0.797,0.459c-0.115,0.066-0.199,0.176-0.233,0.305c-0.034,0.128-0.017,0.265,0.05,0.379l1.5,2.598
			c0.139,0.238,0.443,0.32,0.682,0.184l0.805-0.461c0.334,0.242,0.677,0.424,0.972,0.555V23.5c0,0.275,0.224,0.5,0.5,0.5h3
			c0.276,0,0.5-0.225,0.5-0.5v-0.925c0.344-0.154,0.667-0.341,0.958-0.554l0.795,0.461c0.115,0.066,0.251,0.084,0.38,0.049
			c0.128-0.034,0.237-0.117,0.304-0.232l1.498-2.598C24.072,19.462,23.991,19.156,23.752,19.018z M17.988,20.5
			c-1.379,0-2.5-1.122-2.5-2.5c0-1.378,1.121-2.5,2.5-2.5c1.378,0,2.5,1.122,2.5,2.5C20.488,19.378,19.367,20.5,17.988,20.5z"/>
	</g>
</g>
<g id="Outline_Icons">
	<g>
		
			<line fill="none" stroke="#000000" stroke-linecap="round" stroke-linejoin="round" stroke-miterlimit="10" x1="3.487" y1="6.5" x2="7.987" y2="6.5"/>
		
			<line fill="none" stroke="#000000" stroke-linecap="round" stroke-linejoin="round" stroke-miterlimit="10" x1="3.487" y1="9.5" x2="11.487" y2="9.5"/>
		
			<line fill="none" stroke="#000000" stroke-linecap="round" stroke-linejoin="round" stroke-miterlimit="10" x1="3.487" y1="12.5" x2="9.487" y2="12.5"/>
		
			<line fill="none" stroke="#000000" stroke-linecap="round" stroke-linejoin="round" stroke-miterlimit="10" x1="3.487" y1="15.5" x2="8.487" y2="15.5"/>
		<g>
			<g>
				<g>
					<path fill="none" stroke="#000000" stroke-linejoin="round" stroke-miterlimit="10" d="M16.5,13.762
						c-0.5,0.188-1.014,0.465-1.428,0.82l-1.096-0.63l-1.502,2.598l1.091,0.63c-0.049,0.266-0.078,0.541-0.078,0.82
						c0,0.281,0.029,0.555,0.078,0.82l-1.092,0.631l1.5,2.598l1.098-0.63C15.486,21.773,16,22.053,16.5,22.24v1.26h3v-1.26
						c0.5-0.188,1-0.465,1.415-0.821l1.089,0.63l1.498-2.598L22.41,18.82c0.049-0.266,0.078-0.539,0.078-0.82
						c0-0.279-0.029-0.555-0.078-0.82l1.09-0.63L22,13.951l-1.085,0.63C20.5,14.227,20,13.947,19.5,13.762V12.5h-3V13.762z"/>
				</g>
				<circle fill="none" stroke="#000000" stroke-linejoin="round" stroke-miterlimit="10" cx="17.988" cy="18" r="2"/>
			</g>
		</g>
		<g>
			<polyline fill="none" stroke="#000000" stroke-linejoin="round" stroke-miterlimit="10" points="11,21.5 0.5,21.5 0.5,0.5 
				11.5,0.5 16.5,5.5 16.488,11 			"/>
			<polyline fill="none" stroke="#000000" stroke-linecap="round" stroke-linejoin="round" stroke-miterlimit="10" points="
				11.5,0.5 11.5,5.5 16.5,5.5 			"/>
		</g>
	</g>
</g>
</svg>
