<?xml version="1.0" encoding="utf-8"?>
<!-- Generator: Adobe Illustrator 19.2.0, SVG Export Plug-In . SVG Version: 6.00 Build 0)  -->
<svg version="1.1" id="Layer_1" xmlns="http://www.w3.org/2000/svg" xmlns:xlink="http://www.w3.org/1999/xlink" x="0px" y="0px"
	 viewBox="0 0 24 24" enable-background="new 0 0 24 24" xml:space="preserve">
<g id="Filled_Icons" display="none">
	<g display="inline">
		<path d="M12,18.902c-0.528,0.188-1.138,0.082-1.561-0.342c-0.586-0.584-0.586-1.535,0-2.121l1.998-1.998
			c0.001-0.002,0.002-0.002,0.004-0.004l3.999-3.998c0.162-0.164,0.355-0.27,0.561-0.343V5.5c0-0.133-0.053-0.26-0.147-0.354
			l-4.999-5C11.76,0.053,11.632,0,11.5,0h-11C0.224,0,0,0.224,0,0.5v21C0,21.775,0.224,22,0.5,22H12V18.902z M11.5,0.5l5,5h-5V0.5z"
			/>
		<g>
			<g>
				<path d="M17.5,13.621l-4.5,4.5V23.5c0,0.275,0.225,0.5,0.5,0.5h2v-4.5c0-0.275,0.225-0.5,0.5-0.5h3c0.275,0,0.5,0.225,0.5,0.5
					V24h2c0.275,0,0.5-0.225,0.5-0.5v-5.379L17.5,13.621z"/>
			</g>
			<g>
				<path d="M23.5,18c-0.128,0-0.256-0.049-0.354-0.146L17.5,12.207l-5.646,5.647c-0.195,0.195-0.512,0.195-0.707,0
					c-0.195-0.194-0.195-0.512,0-0.707l5.999-6c0.195-0.195,0.513-0.195,0.707,0l6,6c0.195,0.195,0.195,0.513,0,0.707
					C23.756,17.951,23.628,18,23.5,18z"/>
			</g>
		</g>
	</g>
</g>
<g id="Outline_Icons">
	<g>
		<polyline fill="none" stroke="#000000" stroke-linejoin="round" stroke-miterlimit="10" points="9,21.5 0.5,21.5 0.5,0.5 
			11.5,0.5 16.5,5.5 16.5,9 		"/>
		<polyline fill="none" stroke="#000000" stroke-linecap="round" stroke-linejoin="round" stroke-miterlimit="10" points="11.5,0.5 
			11.5,5.5 16.5,5.5 		"/>
		<polyline fill="none" stroke="#000000" stroke-linecap="round" stroke-linejoin="round" stroke-miterlimit="10" points="
			21.5,15.5 21.5,23.5 13.5,23.5 13.5,15.5 		"/>
		
			<rect x="15.5" y="19.5" fill="none" stroke="#000000" stroke-linecap="round" stroke-linejoin="round" stroke-miterlimit="10" width="4" height="4"/>
		<polyline fill="none" stroke="#000000" stroke-linecap="round" stroke-linejoin="round" stroke-miterlimit="10" points="
			11.5,17.5 17.5,11.5 23.5,17.5 		"/>
	</g>
</g>
</svg>
