<?xml version="1.0" encoding="utf-8"?>
<!-- Generator: Adobe Illustrator 19.2.0, SVG Export Plug-In . SVG Version: 6.00 Build 0)  -->
<svg version="1.1" id="Layer_1" xmlns="http://www.w3.org/2000/svg" xmlns:xlink="http://www.w3.org/1999/xlink" x="0px" y="0px"
	 viewBox="0 0 24 24" enable-background="new 0 0 24 24" xml:space="preserve">
<g id="Filled_Icons" display="none">
	<g display="inline">
		<path d="M10.689,20.201c-0.199-0.346-0.253-0.754-0.15-1.139c0.104-0.385,0.355-0.713,0.699-0.91L11.502,18l-0.262-0.15
			c-0.345-0.199-0.596-0.527-0.699-0.912c-0.103-0.383-0.049-0.793,0.15-1.139l1.501-2.599c0.414-0.717,1.331-0.961,2.046-0.55
			l0.275,0.158V12.5c0-0.829,0.672-1.5,1.5-1.5H17v-1V5.5c0-0.133-0.053-0.26-0.147-0.354l-4.999-5C11.76,0.053,11.633,0,11.5,0h-11
			C0.225,0,0,0.224,0,0.5v21C0,21.775,0.225,22,0.5,22h10.073h1.154L10.689,20.201z M11.5,0.5l5,5h-5V0.5z M5,5c1.103,0,2,0.897,2,2
			S6.103,9,5,9S3,8.103,3,7S3.897,5,5,5z M3.5,18c-0.173,0-0.334-0.089-0.426-0.236c-0.091-0.148-0.099-0.332-0.021-0.486l2.5-5
			c0.072-0.144,0.209-0.244,0.367-0.27c0.158-0.026,0.32,0.026,0.434,0.14l1.527,1.527l2.681-4.913
			c0.092-0.168,0.251-0.285,0.466-0.26c0.192,0.01,0.361,0.13,0.435,0.309l1.165,2.828c-0.534,0.201-1.008,0.557-1.301,1.063
			l-1.501,2.598c-0.334,0.578-0.423,1.251-0.25,1.9C9.654,17.491,9.782,17.762,9.952,18H3.5z"/>
		<path d="M23.266,19.018l-0.795-0.459c0.021-0.189,0.031-0.375,0.031-0.559c0-0.184-0.011-0.368-0.033-0.559l0.797-0.459
			c0.238-0.137,0.32-0.442,0.182-0.683l-1.5-2.599c-0.066-0.115-0.176-0.199-0.303-0.233c-0.131-0.035-0.267-0.017-0.381,0.051
			l-0.791,0.459c-0.291-0.211-0.615-0.398-0.957-0.551V12.5c0-0.276-0.225-0.5-0.5-0.5h-3c-0.277,0-0.5,0.224-0.5,0.5v0.926
			c-0.295,0.131-0.638,0.312-0.973,0.555l-0.802-0.463c-0.239-0.137-0.546-0.056-0.683,0.184l-1.5,2.599
			c-0.066,0.114-0.085,0.251-0.051,0.38c0.035,0.127,0.118,0.236,0.233,0.303l0.796,0.459c-0.022,0.191-0.034,0.377-0.034,0.559
			c0,0.184,0.012,0.369,0.033,0.559l-0.797,0.459c-0.114,0.066-0.198,0.176-0.233,0.305c-0.034,0.128-0.016,0.265,0.051,0.379
			l1.5,2.599c0.137,0.238,0.443,0.319,0.682,0.183l0.806-0.463c0.335,0.244,0.677,0.424,0.972,0.556V23.5c0,0.275,0.225,0.5,0.5,0.5
			h3c0.276,0,0.5-0.225,0.5-0.5v-0.925c0.344-0.154,0.668-0.341,0.959-0.554l0.793,0.461c0.115,0.066,0.254,0.086,0.381,0.051
			c0.129-0.034,0.238-0.118,0.305-0.233l1.498-2.599C23.587,19.462,23.505,19.156,23.266,19.018z M17.502,20.5
			c-1.379,0-2.5-1.122-2.5-2.5c0-1.378,1.121-2.5,2.5-2.5c1.379,0,2.5,1.122,2.5,2.5C20.002,19.378,18.881,20.5,17.502,20.5z"/>
	</g>
</g>
<g id="Outline_Icons">
	<g>
		<g>
			<g>
				<path fill="none" stroke="#000000" stroke-linejoin="round" stroke-miterlimit="10" d="M16.016,13.762
					c-0.5,0.188-1.014,0.465-1.43,0.82l-1.095-0.63L11.99,16.55l1.091,0.63c-0.049,0.268-0.079,0.541-0.079,0.82
					c0,0.281,0.029,0.555,0.078,0.82l-1.092,0.631l1.5,2.599l1.098-0.631c0.416,0.354,0.93,0.634,1.43,0.819V23.5h3v-1.262
					c0.5-0.186,0.998-0.465,1.414-0.819l1.088,0.631l1.498-2.599l-1.091-0.631c0.05-0.266,0.077-0.539,0.077-0.82
					c0-0.279-0.029-0.555-0.078-0.82l1.092-0.63l-1.5-2.599l-1.086,0.63c-0.416-0.354-0.914-0.634-1.414-0.819V12.5h-3V13.762z"/>
			</g>
			<circle fill="none" stroke="#000000" stroke-linejoin="round" stroke-miterlimit="10" cx="17.502" cy="18" r="2"/>
		</g>
		<g>
			<polyline fill="none" stroke="#000000" stroke-linecap="round" stroke-linejoin="round" stroke-miterlimit="10" points="
				11.86,11.091 11,9 8,14.5 6,12.5 3.5,17.5 8.959,17.5 			"/>
			
				<circle fill="none" stroke="#000000" stroke-linecap="round" stroke-linejoin="round" stroke-miterlimit="10" cx="5" cy="7" r="1.5"/>
			<polyline fill="none" stroke="#000000" stroke-linejoin="round" stroke-miterlimit="10" points="11,21.5 0.5,21.5 0.5,0.5 
				11.5,0.5 16.5,5.5 16.488,11 			"/>
			<polyline fill="none" stroke="#000000" stroke-linecap="round" stroke-linejoin="round" stroke-miterlimit="10" points="
				11.5,0.5 11.5,5.5 16.5,5.5 			"/>
		</g>
	</g>
</g>
</svg>
