<?xml version="1.0" encoding="utf-8"?>
<!-- Generator: Adobe Illustrator 19.2.0, SVG Export Plug-In . SVG Version: 6.00 Build 0)  -->
<svg version="1.1" id="Layer_1" xmlns="http://www.w3.org/2000/svg" xmlns:xlink="http://www.w3.org/1999/xlink" x="0px" y="0px"
	 viewBox="0 0 24 24" enable-background="new 0 0 24 24" xml:space="preserve">
<g id="Filled_Icons" display="none">
	<g display="inline">
		<g>
			<path d="M9.983,18.534c0-1.931,1.57-3.5,3.5-3.5c0.811,0,1.549,0.288,2.143,0.752L17,15.1V5.5c0-0.133-0.053-0.26-0.147-0.354
				l-4.999-5C11.76,0.053,11.633,0,11.5,0h-11C0.225,0,0,0.224,0,0.5v21C0,21.775,0.225,22,0.5,22h10.988h1.657
				C11.376,21.827,9.983,20.348,9.983,18.534z M11.5,0.5l5,5h-5V0.5z M5.416,13.416c0.195,0.195,0.195,0.512,0,0.707
				C5.318,14.221,5.19,14.27,5.063,14.27c-0.127,0-0.256-0.049-0.354-0.146l-2.77-2.77c-0.195-0.195-0.195-0.512,0-0.707l2.77-2.77
				c0.195-0.195,0.512-0.195,0.707,0c0.195,0.195,0.195,0.512,0,0.707L3,11L5.416,13.416z M8.524,14.27
				c-0.128,0-0.256-0.049-0.354-0.146c-0.195-0.194-0.195-0.513,0-0.707L10.586,11L8.171,8.584c-0.195-0.195-0.195-0.512,0-0.707
				c0.195-0.195,0.512-0.195,0.707,0l2.769,2.77c0.195,0.195,0.195,0.512,0,0.707l-2.769,2.77C8.78,14.221,8.652,14.27,8.524,14.27z
				"/>
		</g>
		<path d="M21.484,19c-0.892,0-1.668,0.471-2.11,1.173l-3.429-1.284c0.019-0.127,0.039-0.256,0.039-0.389
			c0-0.225-0.039-0.437-0.096-0.644l3.639-1.818C19.986,16.619,20.687,17,21.484,17c1.379,0,2.5-1.121,2.5-2.5
			c0-1.379-1.121-2.5-2.5-2.5c-1.379,0-2.5,1.121-2.5,2.5c0,0.225,0.039,0.438,0.095,0.645l-3.638,1.818
			C14.982,16.381,14.279,16,13.484,16c-1.379,0-2.5,1.121-2.5,2.5c0,1.379,1.121,2.5,2.5,2.5c0.891,0,1.668-0.471,2.111-1.175
			l3.428,1.284c-0.021,0.129-0.039,0.257-0.039,0.391c0,1.379,1.121,2.5,2.5,2.5c1.379,0,2.5-1.121,2.5-2.5
			C23.984,20.121,22.863,19,21.484,19z M21.484,13c0.826,0,1.5,0.673,1.5,1.5c0,0.828-0.674,1.5-1.5,1.5c-0.827,0-1.5-0.672-1.5-1.5
			C19.984,13.673,20.657,13,21.484,13z M13.484,20c-0.827,0-1.5-0.672-1.5-1.5c0-0.827,0.673-1.5,1.5-1.5c0.826,0,1.5,0.673,1.5,1.5
			C14.984,19.328,14.312,20,13.484,20z M21.484,23c-0.827,0-1.5-0.672-1.5-1.5c0-0.827,0.673-1.5,1.5-1.5c0.826,0,1.5,0.673,1.5,1.5
			C22.984,22.328,22.312,23,21.484,23z"/>
	</g>
</g>
<g id="Outline_Icons">
	<g>
		<polyline fill="none" stroke="#000000" stroke-linecap="round" stroke-linejoin="round" stroke-miterlimit="10" points="
			5.753,8.765 2.983,11.534 5.753,14.305 		"/>
		<polyline fill="none" stroke="#000000" stroke-linecap="round" stroke-linejoin="round" stroke-miterlimit="10" points="
			9.214,8.765 11.983,11.534 9.214,14.305 		"/>
		<g>
			<g>
				
					<circle fill="none" stroke="#000000" stroke-linecap="round" stroke-linejoin="round" stroke-miterlimit="10" cx="21.5" cy="14.5" r="2"/>
				
					<circle fill="none" stroke="#000000" stroke-linecap="round" stroke-linejoin="round" stroke-miterlimit="10" cx="21.5" cy="21.5" r="2"/>
				
					<circle fill="none" stroke="#000000" stroke-linecap="round" stroke-linejoin="round" stroke-miterlimit="10" cx="13.5" cy="18.5" r="2"/>
				
					<line fill="none" stroke="#000000" stroke-linecap="round" stroke-linejoin="round" stroke-miterlimit="10" x1="15.289" y1="17.606" x2="19.713" y2="15.395"/>
				
					<line fill="none" stroke="#000000" stroke-linecap="round" stroke-linejoin="round" stroke-miterlimit="10" x1="15.376" y1="19.203" x2="19.63" y2="20.799"/>
			</g>
		</g>
		<g>
			<polyline fill="none" stroke="#000000" stroke-linejoin="round" stroke-miterlimit="10" points="11,21.5 0.5,21.5 0.5,0.5 
				11.5,0.5 16.5,5.5 16.5,14 			"/>
			<polyline fill="none" stroke="#000000" stroke-linecap="round" stroke-linejoin="round" stroke-miterlimit="10" points="
				11.5,0.5 11.5,5.5 16.5,5.5 			"/>
		</g>
	</g>
</g>
</svg>
