<?xml version="1.0" encoding="utf-8"?>
<!-- Generator: Adobe Illustrator 19.2.0, SVG Export Plug-In . SVG Version: 6.00 Build 0)  -->
<svg version="1.1" id="Layer_1" xmlns="http://www.w3.org/2000/svg" xmlns:xlink="http://www.w3.org/1999/xlink" x="0px" y="0px"
	 viewBox="0 0 24 24" enable-background="new 0 0 24 24" xml:space="preserve">
<g id="Filled_Icons" display="none">
	<path display="inline" d="M21.853,6.146l-6-6C15.76,0.053,15.632,0,15.5,0h-13C2.224,0,2,0.224,2,0.5v23C2,23.775,2.224,24,2.5,24
		h19c0.275,0,0.5-0.225,0.5-0.5v-17C22,6.367,21.947,6.24,21.853,6.146z M12,8.5c1.08,0,2.092,0.291,2.968,0.793L11.737,14H6.025
		C6.281,10.925,8.86,8.5,12,8.5z M6.025,15h5.739l3.655,4.424C14.449,20.1,13.271,20.5,12,20.5C8.86,20.5,6.281,18.075,6.025,15z
		 M16.189,18.787l-3.564-4.314l3.168-4.616C17.141,10.958,18,12.63,18,14.5C18,16.18,17.305,17.695,16.189,18.787z M15.5,6.5v-6l6,6
		H15.5z"/>
</g>
<g id="Outline_Icons">
	<g>
		<g>
			
				<circle fill="none" stroke="#000000" stroke-linecap="round" stroke-linejoin="round" stroke-miterlimit="10" cx="12" cy="14.5" r="5.5"/>
			<polyline fill="none" stroke="#000000" stroke-linecap="round" stroke-linejoin="round" stroke-miterlimit="10" points="
				15.107,9.961 12,14.5 15.525,18.723 			"/>
			
				<line fill="none" stroke="#000000" stroke-linecap="round" stroke-linejoin="round" stroke-miterlimit="10" x1="12" y1="14.5" x2="6.5" y2="14.5"/>
		</g>
		<g>
			<polygon fill="none" stroke="#000000" stroke-linecap="round" stroke-linejoin="round" stroke-miterlimit="10" points="
				21.5,23.5 2.5,23.5 2.5,0.5 15.5,0.5 21.5,6.5 			"/>
			<polyline fill="none" stroke="#000000" stroke-linecap="round" stroke-linejoin="round" stroke-miterlimit="10" points="
				15.5,0.5 15.5,6.5 21.5,6.5 			"/>
		</g>
	</g>
</g>
</svg>
