<?xml version="1.0" encoding="utf-8"?>
<!-- Generator: Adobe Illustrator 19.2.0, SVG Export Plug-In . SVG Version: 6.00 Build 0)  -->
<svg version="1.1" id="Layer_1" xmlns="http://www.w3.org/2000/svg" xmlns:xlink="http://www.w3.org/1999/xlink" x="0px" y="0px"
	 viewBox="0 0 24 24" enable-background="new 0 0 24 24" xml:space="preserve">
<g id="Filled_Icons" display="none">
	<g display="inline">
		<path d="M23.963,16.33c-0.07-0.197-0.259-0.33-0.47-0.33h-3.191l-1.853-3.723C18.363,12.107,18.191,12,18.002,12h-0.001
			c-0.189,0-0.362,0.106-0.446,0.275L15.685,16h-3.191c-0.211,0-0.398,0.133-0.47,0.33c-0.072,0.197-0.012,0.42,0.149,0.555
			l2.738,2.28l-1.393,4.177c-0.066,0.205,0.002,0.428,0.174,0.559c0.172,0.129,0.406,0.136,0.584,0.013l3.718-2.552l3.717,2.552
			C21.796,23.971,21.894,24,21.993,24c0.106,0,0.212-0.033,0.301-0.102c0.172-0.129,0.241-0.352,0.174-0.558l-1.393-4.177
			l2.737-2.28C23.975,16.75,24.035,16.527,23.963,16.33z"/>
		<g>
			<rect x="4" y="13" width="1" height="3"/>
			<rect x="6" y="8" width="1" height="8"/>
			<path d="M13.753,19.497l-2.213-1.845c-0.485-0.404-0.665-1.069-0.45-1.664C11.305,15.395,11.868,15,12.5,15h2.574l1.593-3.173
				c0.083-0.165,0.201-0.302,0.333-0.423V5.5c0-0.133-0.053-0.26-0.147-0.354l-4.999-5C11.76,0.053,11.633,0,11.5,0h-11
				C0.225,0,0,0.224,0,0.5v21C0,21.775,0.225,22,0.5,22h12.419L13.753,19.497z M11.5,0.5l5,5h-5V0.5z M10,16.5
				c0,0.275-0.224,0.5-0.5,0.5h-7C2.224,17,2,16.775,2,16.5C2,16.225,2.224,16,2.5,16H3v-3.5C3,12.224,3.224,12,3.5,12H5V7.5
				C5,7.224,5.224,7,5.5,7h2C7.776,7,8,7.224,8,7.5V10h1.5c0.276,0,0.5,0.224,0.5,0.5V16.5z"/>
			<rect x="8" y="11" width="1" height="5"/>
		</g>
	</g>
</g>
<g id="Outline_Icons">
	<g>
		<g>
			<polyline fill="none" stroke="#000000" stroke-linejoin="round" stroke-miterlimit="10" points="11,21.5 0.5,21.5 0.5,0.5 
				11.5,0.5 16.5,5.5 16.5,10 			"/>
			<polyline fill="none" stroke="#000000" stroke-linecap="round" stroke-linejoin="round" stroke-miterlimit="10" points="
				11.5,0.5 11.5,5.5 16.5,5.5 			"/>
		</g>
		<g>
			
				<rect x="3.5" y="12.5" fill="none" stroke="#000000" stroke-linecap="round" stroke-linejoin="round" stroke-miterlimit="10" width="2" height="4"/>
			
				<rect x="7.5" y="10.5" fill="none" stroke="#000000" stroke-linecap="round" stroke-linejoin="round" stroke-miterlimit="10" width="2" height="6"/>
			
				<rect x="5.5" y="7.5" fill="none" stroke="#000000" stroke-linecap="round" stroke-linejoin="round" stroke-miterlimit="10" width="2" height="9"/>
			
				<line fill="none" stroke="#000000" stroke-linecap="round" stroke-linejoin="round" stroke-miterlimit="10" x1="2.5" y1="16.5" x2="9.5" y2="16.5"/>
		</g>
		<g>
			<polygon fill="none" stroke="#000000" stroke-linejoin="round" stroke-miterlimit="10" points="18.008,12.5 20,16.5 23.5,16.5 
				20.5,19 22,23.5 18,20.755 14,23.501 15.5,19 12.5,16.5 16,16.5 			"/>
		</g>
	</g>
</g>
</svg>
