<?xml version="1.0" encoding="utf-8"?>
<!-- Generator: Adobe Illustrator 19.2.0, SVG Export Plug-In . SVG Version: 6.00 Build 0)  -->
<svg version="1.1" id="Layer_1" xmlns="http://www.w3.org/2000/svg" xmlns:xlink="http://www.w3.org/1999/xlink" x="0px" y="0px"
	 viewBox="0 0 24 24" enable-background="new 0 0 24 24" xml:space="preserve">
<g id="Filled_Icons" display="none">
	<path display="inline" d="M19.853,6.146l-6-6C13.76,0.053,13.632,0,13.5,0h-13C0.224,0,0,0.224,0,0.5v23C0,23.775,0.224,24,0.5,24
		h19c0.275,0,0.5-0.225,0.5-0.5v-17C20,6.367,19.947,6.24,19.853,6.146z M10.292,20.356c-0.087,0.063-0.189,0.096-0.292,0.096
		s-0.205-0.032-0.292-0.096C9.475,20.188,4,16.21,4,13.057c0-2.195,1.639-3.505,3.224-3.505c0.951,0,2.07,0.487,2.776,1.769
		c0.706-1.281,1.826-1.769,2.775-1.769c1.584,0,3.225,1.311,3.225,3.505C16,16.21,10.525,20.188,10.292,20.356z M13.5,6.5v-6l6,6
		H13.5z"/>
</g>
<g id="Outline_Icons">
	<g>
		<path fill="none" stroke="#000000" stroke-linejoin="round" stroke-miterlimit="10" d="M10,19.982c0,0,5.5-3.961,5.5-6.894
			c0-3.383-4.5-4.454-5.5-0.338c-1-4.116-5.5-3.045-5.5,0.338C4.5,16.022,10,19.982,10,19.982z"/>
		<g>
			<polygon fill="none" stroke="#000000" stroke-linecap="round" stroke-linejoin="round" stroke-miterlimit="10" points="
				19.5,23.531 0.5,23.531 0.5,0.532 13.5,0.532 19.5,6.532 			"/>
			<polyline fill="none" stroke="#000000" stroke-linecap="round" stroke-linejoin="round" stroke-miterlimit="10" points="
				13.5,0.532 13.5,6.532 19.5,6.532 			"/>
		</g>
	</g>
</g>
</svg>
