<?xml version="1.0" encoding="utf-8"?>
<!-- Generator: Adobe Illustrator 19.2.0, SVG Export Plug-In . SVG Version: 6.00 Build 0)  -->
<svg version="1.1" id="Layer_1" xmlns="http://www.w3.org/2000/svg" xmlns:xlink="http://www.w3.org/1999/xlink" x="0px" y="0px"
	 viewBox="0 0 24 24" enable-background="new 0 0 24 24" xml:space="preserve">
<g id="Filled_Icons" display="none">
	<g display="inline">
		<path d="M12.056,19.09c0.01-0.033,0.029-0.062,0.041-0.096c0.015-0.038,0.031-0.075,0.049-0.112
			c0.074-0.161,0.166-0.313,0.292-0.438L17,13.879V5.5c0-0.133-0.053-0.26-0.147-0.354l-4.999-5C11.76,0.053,11.632,0,11.5,0h-11
			C0.224,0,0,0.224,0,0.5v21C0,21.775,0.224,22,0.5,22h10.724L12.056,19.09z M11.5,0.5l5,5h-5V0.5z M3.5,6H8
			c0.276,0,0.5,0.224,0.5,0.5C8.5,6.776,8.276,7,8,7H3.5C3.224,7,3,6.776,3,6.5C3,6.224,3.224,6,3.5,6z M3.5,9h8
			C11.776,9,12,9.224,12,9.5c0,0.276-0.224,0.5-0.5,0.5h-8C3.224,10,3,9.776,3,9.5C3,9.224,3.224,9,3.5,9z M8.5,16h-5
			C3.224,16,3,15.775,3,15.5C3,15.225,3.224,15,3.5,15h5C8.776,15,9,15.225,9,15.5C9,15.775,8.776,16,8.5,16z M9.5,13h-6
			C3.224,13,3,12.775,3,12.5C3,12.224,3.224,12,3.5,12h6c0.276,0,0.5,0.224,0.5,0.5C10,12.775,9.776,13,9.5,13z"/>
		<g>
			<rect x="14.108" y="15.733" transform="matrix(0.7071 -0.7071 0.7071 0.7071 -7.6029 17.6457)" width="6.781" height="4.535"/>
			<path d="M12.937,19.648l-0.919,3.217c-0.05,0.175-0.001,0.363,0.127,0.49c0.095,0.096,0.223,0.146,0.354,0.146
				c0.046,0,0.092-0.006,0.138-0.02l3.217-0.918L12.937,19.648z"/>
			<path d="M23.853,14.147l-2.5-2.501c-0.194-0.195-0.512-0.195-0.707,0L19,13.293l3.207,3.207l1.646-1.646
				C24.049,14.659,24.049,14.342,23.853,14.147z"/>
		</g>
	</g>
</g>
<g id="Outline_Icons">
	<g>
		
			<line fill="none" stroke="#000000" stroke-linecap="round" stroke-linejoin="round" stroke-miterlimit="10" x1="3.481" y1="6.5" x2="7.981" y2="6.5"/>
		
			<line fill="none" stroke="#000000" stroke-linecap="round" stroke-linejoin="round" stroke-miterlimit="10" x1="3.481" y1="9.5" x2="11.481" y2="9.5"/>
		
			<line fill="none" stroke="#000000" stroke-linecap="round" stroke-linejoin="round" stroke-miterlimit="10" x1="3.481" y1="12.5" x2="9.481" y2="12.5"/>
		
			<line fill="none" stroke="#000000" stroke-linecap="round" stroke-linejoin="round" stroke-miterlimit="10" x1="3.481" y1="15.5" x2="8.481" y2="15.5"/>
		<g>
			<g>
				<polygon fill="none" stroke="#000000" stroke-linecap="round" stroke-linejoin="round" stroke-miterlimit="10" points="
					15.998,22.002 12.498,23.002 13.498,19.502 21,12 23.5,14.5 				"/>
				<line fill="none" stroke="#000000" stroke-linejoin="round" stroke-miterlimit="10" x1="19" y1="14" x2="21.5" y2="16.5"/>
				
					<line fill="none" stroke="#000000" stroke-linecap="round" stroke-linejoin="round" stroke-miterlimit="10" x1="13.498" y1="19.502" x2="15.998" y2="22.002"/>
			</g>
		</g>
		<g>
			<polyline fill="none" stroke="#000000" stroke-linejoin="round" stroke-miterlimit="10" points="11,21.5 0.5,21.5 0.5,0.5 
				11.5,0.5 16.5,5.5 16.482,12.035 			"/>
			<polyline fill="none" stroke="#000000" stroke-linecap="round" stroke-linejoin="round" stroke-miterlimit="10" points="
				11.5,0.5 11.5,5.5 16.5,5.5 			"/>
		</g>
	</g>
</g>
</svg>
