<?xml version="1.0" encoding="utf-8"?>
<!-- Generator: Adobe Illustrator 19.2.0, SVG Export Plug-In . SVG Version: 6.00 Build 0)  -->
<svg version="1.1" id="Layer_1" xmlns="http://www.w3.org/2000/svg" xmlns:xlink="http://www.w3.org/1999/xlink" x="0px" y="0px"
	 viewBox="0 0 24 24" enable-background="new 0 0 24 24" xml:space="preserve">
<g id="Filled_Icons" display="none">
	<g display="inline">
		<path d="M13,16.5c0-0.829,0.671-1.5,1.5-1.5h0.051c0.174-1.54,1.127-2.834,2.449-3.504V5.5c0-0.133-0.053-0.26-0.147-0.354
			l-4.999-5C11.76,0.053,11.632,0,11.5,0h-11C0.224,0,0,0.224,0,0.5v21C0,21.775,0.224,22,0.5,22L13,22.001V16.5z M11.5,0.5l5,5h-5
			V0.5z M3.5,6H8c0.276,0,0.5,0.224,0.5,0.5C8.5,6.776,8.276,7,8,7H3.5C3.224,7,3,6.776,3,6.5C3,6.224,3.224,6,3.5,6z M8.5,16h-5
			C3.224,16,3,15.775,3,15.5C3,15.225,3.224,15,3.5,15h5C8.776,15,9,15.225,9,15.5C9,15.775,8.776,16,8.5,16z M9.5,13h-6
			C3.224,13,3,12.775,3,12.5C3,12.224,3.224,12,3.5,12h6c0.276,0,0.5,0.224,0.5,0.5C10,12.775,9.776,13,9.5,13z M11.5,10h-8
			C3.224,10,3,9.776,3,9.5C3,9.224,3.224,9,3.5,9h8C11.776,9,12,9.224,12,9.5C12,9.776,11.776,10,11.5,10z"/>
		<path d="M23.5,16h-1v-0.498c0-1.93-1.57-3.5-3.5-3.5c-1.93,0-3.5,1.57-3.5,3.5V16h-1c-0.275,0-0.5,0.225-0.5,0.5v7
			c0,0.275,0.225,0.5,0.5,0.5h9c0.275,0,0.5-0.225,0.5-0.5v-7C24,16.225,23.775,16,23.5,16z M19.5,19.848V21.5
			c0,0.275-0.225,0.5-0.5,0.5c-0.275,0-0.5-0.225-0.5-0.5v-1.652C18.207,19.672,18,19.365,18,19c0-0.551,0.449-1,1-1
			c0.551,0,1,0.449,1,1C20,19.365,19.793,19.672,19.5,19.848z M21.5,16h-5v-0.498c0-1.378,1.122-2.5,2.5-2.5
			c1.378,0,2.5,1.122,2.5,2.5V16z"/>
	</g>
</g>
<g id="Outline_Icons">
	<g>
		
			<line fill="none" stroke="#000000" stroke-linecap="round" stroke-linejoin="round" stroke-miterlimit="10" x1="3.491" y1="6.532" x2="7.991" y2="6.532"/>
		
			<line fill="none" stroke="#000000" stroke-linecap="round" stroke-linejoin="round" stroke-miterlimit="10" x1="3.491" y1="9.532" x2="11.491" y2="9.532"/>
		
			<line fill="none" stroke="#000000" stroke-linecap="round" stroke-linejoin="round" stroke-miterlimit="10" x1="3.491" y1="12.531" x2="9.491" y2="12.531"/>
		
			<line fill="none" stroke="#000000" stroke-linecap="round" stroke-linejoin="round" stroke-miterlimit="10" x1="3.491" y1="15.531" x2="8.491" y2="15.531"/>
		<g>
			
				<rect x="14.5" y="16.5" fill="none" stroke="#000000" stroke-linecap="round" stroke-linejoin="round" stroke-miterlimit="10" width="9" height="7"/>
			
				<line fill="none" stroke="#000000" stroke-linecap="round" stroke-linejoin="round" stroke-miterlimit="10" x1="19" y1="21.5" x2="19" y2="19.5"/>
			<path fill="none" stroke="#000000" stroke-linecap="round" stroke-linejoin="round" stroke-miterlimit="10" d="M16,16.5v-0.998
				c0-1.658,1.342-3,3-3c1.656,0,3,1.342,3,3V16.5"/>
			
				<circle fill="none" stroke="#000000" stroke-linecap="round" stroke-linejoin="round" stroke-miterlimit="10" cx="19" cy="19" r="0.5"/>
		</g>
		<g>
			<polyline fill="none" stroke="#000000" stroke-linejoin="round" stroke-miterlimit="10" points="12.491,21.531 0.5,21.531 
				0.5,0.532 11.5,0.532 16.5,5.532 16.5,11.032 			"/>
			<polyline fill="none" stroke="#000000" stroke-linecap="round" stroke-linejoin="round" stroke-miterlimit="10" points="
				11.5,0.532 11.5,5.532 16.5,5.532 			"/>
		</g>
	</g>
</g>
</svg>
