<?xml version="1.0" encoding="utf-8"?>
<!-- Generator: Adobe Illustrator 19.2.0, SVG Export Plug-In . SVG Version: 6.00 Build 0)  -->
<svg version="1.1" id="Layer_1" xmlns="http://www.w3.org/2000/svg" xmlns:xlink="http://www.w3.org/1999/xlink" x="0px" y="0px"
	 viewBox="0 0 24 24" enable-background="new 0 0 24 24" xml:space="preserve">
<g id="Filled_Icons" display="none">
	<g display="inline">
		<path d="M8.279,13.684c0.342,0,0.531,0.133,0.654,0.455c0.098,0.258,0.388,0.387,0.645,0.289c0.259-0.099,0.388-0.388,0.289-0.647
			c-0.27-0.706-0.834-1.098-1.588-1.098c-0.535,0-1.779,0.227-1.779,2.317c0,2.091,1.244,2.315,1.779,2.315
			c0.753,0,1.316-0.387,1.586-1.092c0.099-0.259-0.03-0.547-0.288-0.646c-0.256-0.1-0.546,0.029-0.646,0.288
			c-0.123,0.319-0.312,0.45-0.652,0.45c-0.233,0-0.779,0-0.779-1.316C7.5,13.684,8.046,13.684,8.279,13.684z"/>
		<path d="M11.879,13.684c0.343,0,0.531,0.131,0.653,0.453c0.098,0.258,0.388,0.389,0.646,0.291c0.258-0.098,0.389-0.386,0.29-0.644
			c-0.269-0.709-0.833-1.1-1.589-1.1c-0.535,0-1.779,0.226-1.779,2.315c0,2.092,1.244,2.316,1.779,2.316
			c0.753,0,1.316-0.387,1.586-1.092c0.1-0.258-0.029-0.547-0.287-0.646c-0.257-0.099-0.548,0.03-0.646,0.288
			c-0.123,0.318-0.312,0.449-0.652,0.449c-0.233,0-0.779,0-0.779-1.317C11.1,13.682,11.646,13.684,11.879,13.684z"/>
		<path d="M19.853,6.146l-6-6C13.76,0.053,13.633,0,13.5,0h-13C0.225,0,0,0.224,0,0.5v23C0,23.775,0.225,24,0.5,24h19
			c0.275,0,0.5-0.225,0.5-0.5v-17C20,6.367,19.947,6.24,19.853,6.146z M10,21c-3.309,0-6-2.691-6-6c0-3.309,2.691-6,6-6
			c3.309,0,6,2.691,6,6C16,18.309,13.309,21,10,21z M13.5,6.5v-6l6,6H13.5z"/>
	</g>
</g>
<g id="Outline_Icons">
	<g>
		
			<circle fill="none" stroke="#000000" stroke-linecap="round" stroke-linejoin="round" stroke-miterlimit="10" cx="10" cy="15" r="5.5"/>
		<g>
			<polygon fill="none" stroke="#000000" stroke-linecap="round" stroke-linejoin="round" stroke-miterlimit="10" points="
				19.5,23.5 0.5,23.5 0.5,0.5 13.5,0.5 19.5,6.5 			"/>
			<polyline fill="none" stroke="#000000" stroke-linecap="round" stroke-linejoin="round" stroke-miterlimit="10" points="
				13.5,0.5 13.5,6.5 19.5,6.5 			"/>
		</g>
		<g>
			<path fill="none" stroke="#000000" stroke-linecap="round" stroke-linejoin="round" stroke-miterlimit="10" d="M9.4,13.96
				c-0.179-0.469-0.524-0.776-1.121-0.776C7.306,13.184,7,13.997,7,15.001c0,1.003,0.306,1.815,1.279,1.815
				c0.595,0,0.94-0.305,1.119-0.771"/>
			<path fill="none" stroke="#000000" stroke-linecap="round" stroke-linejoin="round" stroke-miterlimit="10" d="M13,13.96
				c-0.178-0.47-0.523-0.776-1.121-0.776c-0.973,0-1.279,0.814-1.279,1.816c0,1.003,0.307,1.816,1.279,1.816
				c0.595,0,0.939-0.305,1.119-0.772"/>
		</g>
	</g>
</g>
</svg>
