<?xml version="1.0" encoding="utf-8"?>
<!-- Generator: Adobe Illustrator 19.2.0, SVG Export Plug-In . SVG Version: 6.00 Build 0)  -->
<svg version="1.1" id="Layer_1" xmlns="http://www.w3.org/2000/svg" xmlns:xlink="http://www.w3.org/1999/xlink" x="0px" y="0px"
	 viewBox="0 0 24 24" enable-background="new 0 0 24 24" xml:space="preserve">
<g id="Filled_Icons" display="none">
	<path display="inline" d="M21.853,6.146l-6-6C15.76,0.053,15.633,0,15.5,0h-13C2.225,0,2,0.224,2,0.5v23C2,23.775,2.225,24,2.5,24
		h19c0.275,0,0.5-0.225,0.5-0.5v-17C22,6.367,21.947,6.24,21.853,6.146z M13,19c0,0.202-0.122,0.385-0.309,0.462
		C12.63,19.488,12.564,19.5,12.5,19.5c-0.13,0-0.258-0.051-0.354-0.146L8.793,16H7.25C6.561,16,6,15.44,6,14.75v-1.5
		C6,12.561,6.561,12,7.25,12h1.543l3.354-3.354c0.143-0.143,0.36-0.187,0.544-0.108C12.878,8.615,13,8.798,13,9V19z M14.294,16.154
		c-0.089,0.064-0.19,0.096-0.294,0.096c-0.154,0-0.307-0.07-0.404-0.206c-0.162-0.224-0.113-0.536,0.11-0.698
		C14.068,15.082,14.5,14.635,14.5,14c0-0.635-0.432-1.082-0.794-1.346c-0.224-0.163-0.273-0.475-0.11-0.698
		c0.163-0.224,0.477-0.271,0.698-0.11C15.07,12.411,15.5,13.178,15.5,14C15.5,14.824,15.07,15.589,14.294,16.154z M16.318,17.385
		C16.227,17.462,16.111,17.5,16,17.5c-0.145,0-0.286-0.062-0.387-0.182c-0.176-0.213-0.145-0.527,0.068-0.703
		C16.482,15.952,17,14.926,17,14c0-0.928-0.518-1.953-1.318-2.614c-0.213-0.176-0.242-0.491-0.066-0.704
		c0.176-0.213,0.492-0.242,0.703-0.067C17.355,11.471,18,12.768,18,14C18,15.211,17.34,16.541,16.318,17.385z M15.5,6.5v-6l6,6H15.5
		z"/>
</g>
<g id="Outline_Icons">
	<g>
		<path fill="none" stroke="#000000" stroke-linecap="round" stroke-linejoin="round" stroke-miterlimit="10" d="M9,12.5H7.25
			c-0.414,0-0.75,0.336-0.75,0.75v1.5c0,0.414,0.336,0.75,0.75,0.75H9l3.5,3.5V9L9,12.5z"/>
		<path fill="none" stroke="#000000" stroke-linecap="round" stroke-linejoin="round" stroke-miterlimit="10" d="M16,11
			c0.834,0.688,1.5,1.835,1.5,3c0,1.163-0.669,2.313-1.5,3"/>
		<path fill="none" stroke="#000000" stroke-linecap="round" stroke-linejoin="round" stroke-miterlimit="10" d="M14,12.25
			c0.562,0.409,1,1.001,1,1.75s-0.438,1.341-1,1.75"/>
		<g>
			<polygon fill="none" stroke="#000000" stroke-linecap="round" stroke-linejoin="round" stroke-miterlimit="10" points="
				21.5,23.5 2.5,23.5 2.5,0.5 15.5,0.5 21.5,6.5 			"/>
			<polyline fill="none" stroke="#000000" stroke-linecap="round" stroke-linejoin="round" stroke-miterlimit="10" points="
				15.5,0.5 15.5,6.5 21.5,6.5 			"/>
		</g>
	</g>
</g>
</svg>
