<?xml version="1.0" encoding="utf-8"?>
<!-- Generator: Adobe Illustrator 19.2.0, SVG Export Plug-In . SVG Version: 6.00 Build 0)  -->
<svg version="1.1" id="Layer_1" xmlns="http://www.w3.org/2000/svg" xmlns:xlink="http://www.w3.org/1999/xlink" x="0px" y="0px"
	 viewBox="0 0 24 24" enable-background="new 0 0 24 24" xml:space="preserve">
<g id="Filled_Icons" display="none">
	<g display="inline">
		<g>
			<path d="M12.937,19.145l-0.918,3.217c-0.05,0.176-0.001,0.363,0.128,0.492C12.241,22.949,12.369,23,12.5,23
				c0.045,0,0.092-0.006,0.137-0.018l3.217-0.922L12.937,19.145z"/>
			<rect x="14.112" y="15.232" transform="matrix(0.7068 -0.7074 0.7074 0.7068 -7.2474 17.5116)" width="6.781" height="4.534"/>
			<path d="M23.853,13.645l-2.5-2.5c-0.187-0.188-0.519-0.188-0.707,0L19,12.792l3.207,3.206l1.646-1.646
				C24.049,14.156,24.049,13.84,23.853,13.645z"/>
		</g>
		<path d="M12.037,18.623c0.01-0.033,0.029-0.062,0.041-0.096c0.015-0.039,0.031-0.073,0.048-0.112
			c0.074-0.161,0.166-0.313,0.293-0.44L17,13.395V5.5c0-0.133-0.053-0.26-0.147-0.354l-4.999-5C11.76,0.053,11.633,0,11.5,0h-11
			C0.225,0,0,0.224,0,0.5v21C0,21.775,0.225,22,0.5,22h10.572L12.037,18.623z M11.5,0.5l5,5h-5V0.5z M5.258,14.688
			C5.099,14.6,5,14.432,5,14.25V7.5c0-0.182,0.099-0.349,0.258-0.438C5.417,6.975,5.61,6.98,5.765,7.076l5.4,3.375
			c0.146,0.091,0.235,0.251,0.235,0.424c0,0.173-0.089,0.333-0.235,0.424l-5.4,3.375C5.684,14.725,5.592,14.75,5.5,14.75
			C5.417,14.75,5.333,14.729,5.258,14.688z"/>
	</g>
</g>
<g id="Outline_Icons">
	<g>
		<g>
			<g>
				<polygon fill="none" stroke="#000000" stroke-linecap="round" stroke-linejoin="round" stroke-miterlimit="10" points="16,21.5 
					12.5,22.5 13.5,19 21.002,11.498 23.502,13.998 				"/>
				
					<line fill="none" stroke="#000000" stroke-linejoin="round" stroke-miterlimit="10" x1="19.002" y1="13.498" x2="21.502" y2="15.998"/>
				
					<line fill="none" stroke="#000000" stroke-linecap="round" stroke-linejoin="round" stroke-miterlimit="10" x1="13.5" y1="19" x2="16" y2="21.5"/>
			</g>
		</g>
		<polygon fill="none" stroke="#000000" stroke-linecap="round" stroke-linejoin="round" stroke-miterlimit="10" points="5.481,7.5 
			10.882,10.875 5.481,14.25 		"/>
		<g>
			<polyline fill="none" stroke="#000000" stroke-linejoin="round" stroke-miterlimit="10" points="11,21.5 0.5,21.5 0.5,0.5 
				11.5,0.5 16.5,5.5 16.48,12.035 			"/>
			<polyline fill="none" stroke="#000000" stroke-linecap="round" stroke-linejoin="round" stroke-miterlimit="10" points="
				11.5,0.5 11.5,5.5 16.5,5.5 			"/>
		</g>
	</g>
</g>
</svg>
