<?xml version="1.0" encoding="utf-8"?>
<!-- Generator: Adobe Illustrator 19.2.0, SVG Export Plug-In . SVG Version: 6.00 Build 0)  -->
<svg version="1.1" id="Layer_1" xmlns="http://www.w3.org/2000/svg" xmlns:xlink="http://www.w3.org/1999/xlink" x="0px" y="0px"
	 viewBox="0 0 24 24" enable-background="new 0 0 24 24" xml:space="preserve">
<g id="Filled_Icons" display="none">
	<g display="inline">
		<path d="M12.037,18.623c0.01-0.033,0.029-0.062,0.041-0.096c0.015-0.039,0.031-0.073,0.048-0.112
			c0.074-0.161,0.166-0.313,0.293-0.44L17,13.395v-1.416V5.5c0-0.133-0.053-0.26-0.147-0.354l-4.999-5C11.76,0.053,11.633,0,11.5,0
			h-11C0.225,0,0,0.224,0,0.5v21C0,21.775,0.225,22,0.5,22h9.554h1.019L12.037,18.623z M11.5,0.5l5,5h-5V0.5z M5,5
			c1.103,0,2,0.897,2,2S6.103,9,5,9S3,8.103,3,7S3.897,5,5,5z M3.074,17.764c-0.091-0.148-0.099-0.332-0.021-0.486l2.5-5
			c0.072-0.144,0.209-0.244,0.367-0.27c0.158-0.026,0.32,0.026,0.434,0.14l1.527,1.527l2.681-4.913
			c0.092-0.168,0.251-0.285,0.466-0.26c0.192,0.01,0.361,0.13,0.435,0.309l2.54,6.168l-2.289,2.289
			c-0.19,0.189-0.348,0.424-0.494,0.733H3.5C3.327,18,3.166,17.911,3.074,17.764z"/>
		<g>
			<path d="M12.937,19.147l-0.918,3.217c-0.05,0.175-0.001,0.363,0.128,0.49C12.241,22.949,12.369,23,12.5,23
				c0.045,0,0.092-0.006,0.137-0.018l3.217-0.92L12.937,19.147z"/>
			<rect x="14.11" y="15.231" transform="matrix(0.707 -0.7073 0.7073 0.707 -7.2479 17.5048)" width="6.78" height="4.535"/>
			<path d="M23.853,13.647l-2.5-2.501c-0.187-0.188-0.519-0.188-0.707,0L19,12.792l3.207,3.207l1.646-1.645
				C24.049,14.156,24.049,13.841,23.853,13.647z"/>
		</g>
	</g>
</g>
<g id="Outline_Icons">
	<g>
		<g>
			<polygon fill="none" stroke="#000000" stroke-linecap="round" stroke-linejoin="round" stroke-miterlimit="10" points="
				15.978,21.535 12.479,22.535 13.478,19.035 20.98,11.532 23.48,14.031 			"/>
			
				<line fill="none" stroke="#000000" stroke-linejoin="round" stroke-miterlimit="10" x1="18.98" y1="13.531" x2="21.48" y2="16.031"/>
			
				<line fill="none" stroke="#000000" stroke-linecap="round" stroke-linejoin="round" stroke-miterlimit="10" x1="13.478" y1="19.035" x2="15.978" y2="21.535"/>
		</g>
		<g>
			<polyline fill="none" stroke="#000000" stroke-linecap="round" stroke-linejoin="round" stroke-miterlimit="10" points="
				12.98,14.001 11,9 8,14.5 6,12.5 3.5,17.5 9.981,17.5 			"/>
			
				<circle fill="none" stroke="#000000" stroke-linecap="round" stroke-linejoin="round" stroke-miterlimit="10" cx="5" cy="7" r="1.5"/>
			<polyline fill="none" stroke="#000000" stroke-linejoin="round" stroke-miterlimit="10" points="11,21.5 0.5,21.5 0.5,0.5 
				11.5,0.5 16.5,5.5 16.5,11 			"/>
			<polyline fill="none" stroke="#000000" stroke-linecap="round" stroke-linejoin="round" stroke-miterlimit="10" points="
				11.5,0.5 11.5,5.5 16.5,5.5 			"/>
		</g>
	</g>
</g>
</svg>
