<?xml version="1.0" encoding="utf-8"?>
<!-- Generator: Adobe Illustrator 19.2.0, SVG Export Plug-In . SVG Version: 6.00 Build 0)  -->
<svg version="1.1" id="Layer_1" xmlns="http://www.w3.org/2000/svg" xmlns:xlink="http://www.w3.org/1999/xlink" x="0px" y="0px"
	 viewBox="0 0 24 24" enable-background="new 0 0 24 24" xml:space="preserve">
<g id="Filled_Icons" display="none">
	<g display="inline">
		<path d="M12.99,16.498c0-0.829,0.672-1.5,1.5-1.5h0.051c0.175-1.543,1.132-2.84,2.459-3.508V5.5c0-0.133-0.053-0.26-0.147-0.354
			l-4.999-5C11.76,0.053,11.633,0,11.5,0h-11C0.225,0,0,0.224,0,0.5v21C0,21.775,0.225,22,0.5,22h12.49V16.498z M11.5,0.5l5,5h-5
			V0.5z M11.18,9.384L9,7.564V13.5c0,0.025-0.011,0.049-0.015,0.075C8.987,13.611,9,13.648,9,13.688c0,1.227-1.317,2.186-3,2.186
			c-1.683,0-3-0.96-3-2.186C3,12.46,4.317,11.5,6,11.5c0.779,0,1.472,0.212,2,0.555V6.496c0-0.193,0.112-0.371,0.288-0.452
			C8.464,5.962,8.671,5.988,8.82,6.112l3,2.504c0.212,0.177,0.24,0.492,0.063,0.704C11.707,9.534,11.392,9.561,11.18,9.384z"/>
		<path d="M23.49,15.998h-1V15.5c0-1.93-1.57-3.5-3.5-3.5s-3.5,1.57-3.5,3.5v0.498h-1c-0.276,0-0.5,0.225-0.5,0.5v7
			c0,0.275,0.224,0.5,0.5,0.5h9c0.275,0,0.5-0.225,0.5-0.5v-7C23.99,16.221,23.768,15.998,23.49,15.998z M19.49,19.848v1.65
			c0,0.275-0.225,0.5-0.5,0.5c-0.276,0-0.5-0.225-0.5-0.5v-1.65c-0.293-0.175-0.5-0.482-0.5-0.848c0-0.551,0.447-1,1-1
			c0.552,0,1,0.449,1,1C19.99,19.365,19.783,19.672,19.49,19.848z M21.49,15.998h-5V15.5c0-1.378,1.121-2.5,2.5-2.5
			c1.379,0,2.5,1.122,2.5,2.5V15.998z"/>
	</g>
</g>
<g id="Outline_Icons">
	<g>
		<g>
			
				<rect x="14.49" y="16.498" fill="none" stroke="#000000" stroke-linecap="round" stroke-linejoin="round" stroke-miterlimit="10" width="9" height="7"/>
			
				<line fill="none" stroke="#000000" stroke-linecap="round" stroke-linejoin="round" stroke-miterlimit="10" x1="18.99" y1="21.498" x2="18.99" y2="19.5"/>
			<path fill="none" stroke="#000000" stroke-linecap="round" stroke-linejoin="round" stroke-miterlimit="10" d="M15.99,16.498
				V15.5c0-1.658,1.343-3,3-3c1.656,0,3,1.342,3,3v0.998"/>
			<path fill="none" stroke="#000000" stroke-linejoin="round" stroke-miterlimit="10" d="M19.49,19c0,0.275-0.225,0.5-0.5,0.5l0,0
				c-0.276,0-0.5-0.225-0.5-0.5l0,0c0-0.277,0.224-0.5,0.5-0.5l0,0C19.268,18.5,19.49,18.723,19.49,19L19.49,19z"/>
		</g>
		<g>
			<polyline fill="none" stroke="#000000" stroke-linejoin="round" stroke-miterlimit="10" points="12.49,21.5 0.5,21.5 0.5,0.5 
				11.5,0.5 16.5,5.5 16.5,11 			"/>
			<polyline fill="none" stroke="#000000" stroke-linecap="round" stroke-linejoin="round" stroke-miterlimit="10" points="
				11.5,0.5 11.5,5.5 16.5,5.5 			"/>
		</g>
		<g>
			
				<ellipse fill="none" stroke="#000000" stroke-linecap="round" stroke-linejoin="round" stroke-miterlimit="10" cx="5.99" cy="13.687" rx="2.5" ry="1.687"/>
			<polyline fill="none" stroke="#000000" stroke-linecap="round" stroke-linejoin="round" stroke-miterlimit="10" points="
				8.5,13.5 8.5,6.496 11.49,9 			"/>
		</g>
	</g>
</g>
</svg>
