<?xml version="1.0" encoding="utf-8"?>
<!-- Generator: Adobe Illustrator 19.2.0, SVG Export Plug-In . SVG Version: 6.00 Build 0)  -->
<svg version="1.1" id="Layer_1" xmlns="http://www.w3.org/2000/svg" xmlns:xlink="http://www.w3.org/1999/xlink" x="0px" y="0px"
	 viewBox="0 0 24 24" enable-background="new 0 0 24 24" xml:space="preserve">
<g id="Filled_Icons" display="none">
	<g display="inline">
		<path d="M17.5,11c-3.584,0-6.5,2.915-6.5,6.5c0,3.584,2.916,6.5,6.5,6.5s6.5-2.916,6.5-6.5C24,13.915,21.084,11,17.5,11z
			 M13.035,16.014c0.635-1.793,2.34-2.998,4.242-2.998c1.336,0,2.619,0.594,3.5,1.514v-0.567c0-0.276,0.224-0.5,0.5-0.5
			c0.275,0,0.5,0.224,0.5,0.5v2.222c0,0.274-0.225,0.5-0.5,0.5h-2.223c-0.275,0-0.5-0.226-0.5-0.5c0-0.277,0.225-0.5,0.5-0.5h1.379
			c-0.654-0.992-1.873-1.666-3.156-1.666c-1.479,0-2.807,0.938-3.301,2.332c-0.072,0.205-0.267,0.334-0.472,0.334
			c-0.056,0-0.11-0.011-0.167-0.029C13.078,16.561,12.941,16.273,13.035,16.014z M21.965,18.986
			c-0.635,1.793-2.34,2.998-4.242,2.998c-1.336,0-2.619-0.592-3.5-1.512v0.566c0,0.275-0.223,0.5-0.5,0.5
			c-0.275,0-0.5-0.225-0.5-0.5v-2.223c0-0.276,0.225-0.5,0.5-0.5h2.223c0.277,0,0.5,0.224,0.5,0.5c0,0.275-0.223,0.5-0.5,0.5h-1.379
			c0.654,0.992,1.873,1.666,3.156,1.666c1.479,0,2.807-0.938,3.301-2.332c0.093-0.262,0.379-0.398,0.639-0.305
			C21.922,18.44,22.059,18.727,21.965,18.986z"/>
		<g>
			<rect x="4" y="13" width="1" height="3"/>
			<rect x="6" y="8" width="1" height="8"/>
			<rect x="8" y="11" width="1" height="5"/>
			<path d="M10.016,17.465c0-3.961,3.089-7.207,6.984-7.474V5.5c0-0.133-0.053-0.26-0.147-0.354l-4.999-5
				C11.76,0.053,11.633,0,11.5,0h-11C0.225,0,0,0.224,0,0.5v21C0,21.775,0.225,22,0.5,22h11.056
				C10.594,20.738,10.016,19.17,10.016,17.465z M11.5,0.5l5,5h-5V0.5z M10,16.5c0,0.275-0.224,0.5-0.5,0.5h-7
				C2.224,17,2,16.775,2,16.5C2,16.225,2.224,16,2.5,16H3v-3.5C3,12.224,3.224,12,3.5,12H5V7.5C5,7.224,5.224,7,5.5,7h2
				C7.776,7,8,7.224,8,7.5V10h1.5c0.276,0,0.5,0.224,0.5,0.5V16.5z"/>
		</g>
	</g>
</g>
<g id="Outline_Icons">
	<g>
		<g>
			<polyline fill="none" stroke="#000000" stroke-linecap="round" stroke-linejoin="round" stroke-miterlimit="10" points="
				22.247,14.033 22.247,16.533 19.747,16.533 			"/>
			<path fill="none" stroke="#000000" stroke-linecap="round" stroke-linejoin="round" stroke-miterlimit="10" d="M13.503,16.531
				c0.618-1.746,2.285-2.998,4.244-2.998s3.84,1.232,4.458,2.978"/>
			<g>
				<polyline fill="none" stroke="#000000" stroke-linecap="round" stroke-linejoin="round" stroke-miterlimit="10" points="
					13.746,22 13.746,19.5 16.246,19.5 				"/>
				<path fill="none" stroke="#000000" stroke-linecap="round" stroke-linejoin="round" stroke-miterlimit="10" d="M22.49,19.5
					c-0.618,1.748-2.285,3-4.244,3s-3.84-1.232-4.458-2.98"/>
			</g>
		</g>
		<g>
			<polyline fill="none" stroke="#000000" stroke-linejoin="round" stroke-miterlimit="10" points="11,21.5 0.5,21.5 0.5,0.5 
				11.5,0.5 16.5,5.5 16.5,10 			"/>
			<polyline fill="none" stroke="#000000" stroke-linecap="round" stroke-linejoin="round" stroke-miterlimit="10" points="
				11.5,0.5 11.5,5.5 16.5,5.5 			"/>
		</g>
		<g>
			
				<rect x="3.5" y="12.5" fill="none" stroke="#000000" stroke-linecap="round" stroke-linejoin="round" stroke-miterlimit="10" width="2" height="4"/>
			
				<rect x="7.5" y="10.5" fill="none" stroke="#000000" stroke-linecap="round" stroke-linejoin="round" stroke-miterlimit="10" width="2" height="6"/>
			
				<rect x="5.5" y="7.5" fill="none" stroke="#000000" stroke-linecap="round" stroke-linejoin="round" stroke-miterlimit="10" width="2" height="9"/>
			
				<line fill="none" stroke="#000000" stroke-linecap="round" stroke-linejoin="round" stroke-miterlimit="10" x1="2.5" y1="16.5" x2="9.5" y2="16.5"/>
		</g>
	</g>
</g>
</svg>
