<?xml version="1.0" encoding="utf-8"?>
<!-- Generator: Adobe Illustrator 19.2.0, SVG Export Plug-In . SVG Version: 6.00 Build 0)  -->
<svg version="1.1" id="Layer_1" xmlns="http://www.w3.org/2000/svg" xmlns:xlink="http://www.w3.org/1999/xlink" x="0px" y="0px"
	 viewBox="0 0 24 24" enable-background="new 0 0 24 24" xml:space="preserve">
<g id="Filled_Icons" display="none">
	<g display="inline">
		<path d="M7.854,0.146C7.76,0.053,7.632,0,7.5,0h-5C2.224,0,2,0.224,2,0.5v10C2,10.776,2.224,11,2.5,11h8
			c0.276,0,0.5-0.224,0.5-0.5v-7c0-0.133-0.053-0.26-0.146-0.354L7.854,0.146z M7.5,3.5v-3l3,3H7.5z"/>
		<path d="M21.853,3.146l-3-3C18.76,0.053,18.632,0,18.5,0h-5C13.225,0,13,0.224,13,0.5v10c0,0.276,0.225,0.5,0.5,0.5h8
			c0.275,0,0.5-0.224,0.5-0.5v-7C22,3.367,21.947,3.24,21.853,3.146z M18.5,3.5v-3l3,3H18.5z"/>
		<path d="M7.854,13.147C7.76,13.053,7.632,13,7.5,13h-5C2.224,13,2,13.225,2,13.5v10C2,23.775,2.224,24,2.5,24h8
			c0.276,0,0.5-0.225,0.5-0.5v-7c0-0.133-0.053-0.26-0.146-0.353L7.854,13.147z M7.5,16.5v-3l3,3H7.5z"/>
		<path d="M18.853,13.147C18.76,13.053,18.632,13,18.5,13h-5c-0.275,0-0.5,0.225-0.5,0.5v10c0,0.275,0.225,0.5,0.5,0.5h8
			c0.275,0,0.5-0.225,0.5-0.5v-7c0-0.133-0.053-0.26-0.147-0.353L18.853,13.147z M18.5,16.5v-3l3,3H18.5z"/>
	</g>
</g>
<g id="Outline_Icons">
	<g>
		<polygon fill="none" stroke="#000000" stroke-linecap="round" stroke-linejoin="round" stroke-miterlimit="10" points="21.5,10.5 
			13.5,10.5 13.5,0.5 18.5,0.5 21.5,3.5 		"/>
		<polyline fill="none" stroke="#000000" stroke-linecap="round" stroke-linejoin="round" stroke-miterlimit="10" points="18.5,0.5 
			18.5,3.5 21.5,3.5 		"/>
		<polygon fill="none" stroke="#000000" stroke-linecap="round" stroke-linejoin="round" stroke-miterlimit="10" points="10.5,10.5 
			2.5,10.5 2.5,0.5 7.5,0.5 10.5,3.5 		"/>
		<polyline fill="none" stroke="#000000" stroke-linecap="round" stroke-linejoin="round" stroke-miterlimit="10" points="7.5,0.5 
			7.5,3.5 10.5,3.5 		"/>
		<polygon fill="none" stroke="#000000" stroke-linecap="round" stroke-linejoin="round" stroke-miterlimit="10" points="21.5,23.5 
			13.5,23.5 13.5,13.5 18.5,13.5 21.5,16.5 		"/>
		<polyline fill="none" stroke="#000000" stroke-linecap="round" stroke-linejoin="round" stroke-miterlimit="10" points="
			18.5,13.5 18.5,16.5 21.5,16.5 		"/>
		<polygon fill="none" stroke="#000000" stroke-linecap="round" stroke-linejoin="round" stroke-miterlimit="10" points="10.5,23.5 
			2.5,23.5 2.5,13.5 7.5,13.5 10.5,16.5 		"/>
		<polyline fill="none" stroke="#000000" stroke-linecap="round" stroke-linejoin="round" stroke-miterlimit="10" points="7.5,13.5 
			7.5,16.5 10.5,16.5 		"/>
	</g>
</g>
</svg>
