<?xml version="1.0" encoding="utf-8"?>
<!-- Generator: Adobe Illustrator 19.2.0, SVG Export Plug-In . SVG Version: 6.00 Build 0)  -->
<svg version="1.1" id="Layer_1" xmlns="http://www.w3.org/2000/svg" xmlns:xlink="http://www.w3.org/1999/xlink" x="0px" y="0px"
	 viewBox="0 0 24 24" enable-background="new 0 0 24 24" xml:space="preserve">
<g id="Filled_Icons" display="none">
	<g display="inline">
		<g>
			<path d="M7.5,9.5C7.224,9.5,7,9.724,7,10v2.5C7,12.775,7.224,13,7.5,13H9c0.276,0,0.5-0.225,0.5-0.5C9.5,12.224,9.276,12,9,12H8
				v-2C8,9.724,7.776,9.5,7.5,9.5z"/>
			<path d="M10,17.535c0-0.34,0.031-0.672,0.074-1C9.44,16.827,8.742,17,8,17c-2.757,0-5-2.243-5-5c0-2.757,2.243-5,5-5
				c2.613,0,4.74,2.022,4.958,4.582c1.138-0.871,2.528-1.421,4.042-1.521V5.5c0-0.133-0.053-0.26-0.147-0.354l-4.999-5
				C11.76,0.053,11.632,0,11.5,0h-11C0.224,0,0,0.224,0,0.5v21C0,21.775,0.224,22,0.5,22h10.988C10.558,20.751,10,19.209,10,17.535z
				 M11.5,0.5l5,5h-5V0.5z"/>
		</g>
		<path d="M17.5,11.035c-3.584,0-6.5,2.916-6.5,6.5c0,3.584,2.916,6.5,6.5,6.5s6.5-2.916,6.5-6.5
			C24,13.951,21.084,11.035,17.5,11.035z M20.227,18.031h-5.453c-0.276,0-0.5-0.223-0.5-0.5c0-0.275,0.224-0.5,0.5-0.5h5.453
			c0.276,0,0.5,0.225,0.5,0.5C20.727,17.809,20.503,18.031,20.227,18.031z"/>
	</g>
</g>
<g id="Outline_Icons">
	<g>
		<path fill="none" stroke="#000000" stroke-linecap="round" stroke-linejoin="round" stroke-miterlimit="10" d="M8,16.5
			c-2.486,0-4.5-2.014-4.5-4.5c0-2.485,2.014-4.5,4.5-4.5c2.152,0,3.953,1.512,4.396,3.531"/>
		<polyline fill="none" stroke="#000000" stroke-linecap="round" stroke-linejoin="round" stroke-miterlimit="10" points="7.5,10 
			7.5,12.5 9,12.5 		"/>
		<circle fill="none" stroke="#000000" stroke-linejoin="round" stroke-miterlimit="10" cx="17.5" cy="17.5" r="6"/>
		
			<line fill="none" stroke="#000000" stroke-linecap="round" stroke-linejoin="round" stroke-miterlimit="10" x1="14.771" y1="17.498" x2="20.227" y2="17.498"/>
		<g>
			<polyline fill="none" stroke="#000000" stroke-linejoin="round" stroke-miterlimit="10" points="11,21.5 0.5,21.5 0.5,0.5 
				11.5,0.5 16.5,5.5 16.5,10 			"/>
			<polyline fill="none" stroke="#000000" stroke-linecap="round" stroke-linejoin="round" stroke-miterlimit="10" points="
				11.5,0.5 11.5,5.5 16.5,5.5 			"/>
		</g>
	</g>
</g>
</svg>
