<?xml version="1.0" encoding="utf-8"?>
<!-- Generator: Adobe Illustrator 19.2.0, SVG Export Plug-In . SVG Version: 6.00 Build 0)  -->
<svg version="1.1" id="Layer_1" xmlns="http://www.w3.org/2000/svg" xmlns:xlink="http://www.w3.org/1999/xlink" x="0px" y="0px"
	 viewBox="0 0 24 24" enable-background="new 0 0 24 24" xml:space="preserve">
<g id="Filled_Icons" display="none">
	<g display="inline">
		<path d="M14,4.5c0-0.133-0.053-0.26-0.147-0.354l-3.999-4C9.76,0.053,9.632,0,9.5,0h-9C0.224,0,0,0.224,0,0.5v17
			C0,17.775,0.224,18,0.5,18H9V6c0-0.276,0.224-0.5,0.5-0.5H14V4.5z M9.5,4.5v-4l4,4H9.5z"/>
		<path d="M23.831,10.125l-4.002-3.502C19.736,6.543,19.621,6.5,19.5,6.5h-9H10V7v16.5c0,0.275,0.224,0.5,0.5,0.5h13
			c0.275,0,0.5-0.225,0.5-0.5v-13C24,10.356,23.937,10.22,23.831,10.125z M19.5,10.5V7l4,3.5H19.5z"/>
		<path d="M15.646,2.854l2,2C17.744,4.951,17.872,5,18,5c0.128,0,0.256-0.049,0.353-0.146c0.195-0.195,0.195-0.512,0-0.707L17.207,3
			H21c0.551,0,1,0.448,1,1v1.5C22,5.776,22.225,6,22.5,6C22.775,6,23,5.776,23,5.5V4c0-1.104-0.897-2-2-2h-3.793l1.146-1.146
			c0.194-0.195,0.194-0.512,0-0.707c-0.195-0.195-0.513-0.195-0.707,0l-2,1.999C15.453,2.338,15.452,2.661,15.646,2.854z"/>
		<path d="M8.353,21.147l-2-2c-0.195-0.194-0.512-0.194-0.707,0c-0.195,0.195-0.195,0.513,0,0.707L6.793,21H3c-0.551,0-1-0.449-1-1
			v-0.5C2,19.225,1.776,19,1.5,19C1.224,19,1,19.225,1,19.5V20c0,1.104,0.897,2,2,2h3.793l-1.146,1.147
			c-0.195,0.194-0.195,0.512,0,0.707C5.744,23.951,5.872,24,6,24c0.128,0,0.256-0.049,0.354-0.146l2-2
			C8.551,21.658,8.544,21.335,8.353,21.147z"/>
	</g>
</g>
<g id="Outline_Icons">
	<g>
		<polygon fill="none" stroke="#000000" stroke-linecap="round" stroke-linejoin="round" stroke-miterlimit="10" points="23.5,23.5 
			10.5,23.5 10.5,6.5 19.5,6.5 23.5,10.5 		"/>
		<polyline fill="none" stroke="#000000" stroke-linecap="round" stroke-linejoin="round" stroke-miterlimit="10" points="19.5,6.5 
			19.5,10.5 23.5,10.5 		"/>
		<polyline fill="none" stroke="#000000" stroke-linecap="round" stroke-linejoin="round" stroke-miterlimit="10" points="
			10.5,17.5 0.5,17.5 0.5,0.5 9.5,0.5 13.5,4.5 13.5,6.5 		"/>
		<polyline fill="none" stroke="#000000" stroke-linecap="round" stroke-linejoin="round" stroke-miterlimit="10" points="9.5,0.5 
			9.5,4.5 13.5,4.5 		"/>
		<path fill="none" stroke="#000000" stroke-linecap="round" stroke-linejoin="round" stroke-miterlimit="10" d="M22.5,5.5V4
			c0-0.828-0.672-1.5-1.5-1.5h-5"/>
		<polyline fill="none" stroke="#000000" stroke-linecap="round" stroke-linejoin="round" stroke-miterlimit="10" points="18,0.5 
			16,2.5 18,4.5 		"/>
		<path fill="none" stroke="#000000" stroke-linecap="round" stroke-linejoin="round" stroke-miterlimit="10" d="M1.5,19.5V20
			c0,0.828,0.67,1.5,1.5,1.5h5"/>
		<polyline fill="none" stroke="#000000" stroke-linecap="round" stroke-linejoin="round" stroke-miterlimit="10" points="6,23.5 
			8,21.5 6,19.5 		"/>
	</g>
</g>
</svg>
