<?xml version="1.0" encoding="utf-8"?>
<!-- Generator: Adobe Illustrator 19.2.0, SVG Export Plug-In . SVG Version: 6.00 Build 0)  -->
<svg version="1.1" id="Layer_1" xmlns="http://www.w3.org/2000/svg" xmlns:xlink="http://www.w3.org/1999/xlink" x="0px" y="0px"
	 viewBox="0 0 24 24" enable-background="new 0 0 24 24" xml:space="preserve">
<g id="Filled_Icons" display="none">
	<g display="inline">
		<path d="M11.988,17.34c0-2.824,2.226-5.119,5.012-5.276V5.5c0-0.133-0.053-0.26-0.147-0.354l-4.999-5C11.76,0.053,11.633,0,11.5,0
			h-11C0.225,0,0,0.224,0,0.5v21C0,21.775,0.225,22,0.5,22h10.988h3.323C13.141,21.106,11.988,19.363,11.988,17.34z M11.5,0.5l5,5
			h-5V0.5z M5.416,13.416c0.195,0.195,0.195,0.512,0,0.707C5.318,14.221,5.19,14.27,5.063,14.27c-0.127,0-0.256-0.049-0.354-0.146
			l-2.77-2.77c-0.195-0.195-0.195-0.512,0-0.707l2.77-2.77c0.195-0.195,0.512-0.195,0.707,0c0.195,0.195,0.195,0.512,0,0.707L3,11
			L5.416,13.416z M11.646,11.354l-2.769,2.77C8.78,14.221,8.652,14.27,8.524,14.27c-0.128,0-0.256-0.049-0.354-0.146
			c-0.195-0.194-0.195-0.513,0-0.707L10.586,11L8.171,8.584c-0.195-0.195-0.195-0.512,0-0.707c0.195-0.195,0.512-0.195,0.707,0
			l2.769,2.77C11.842,10.842,11.842,11.158,11.646,11.354z"/>
		<path d="M23.842,23.147l-3.185-3.187c0.58-0.733,0.941-1.649,0.941-2.655c0-2.373-1.931-4.306-4.305-4.306
			c-2.374,0-4.307,1.933-4.307,4.306c0,2.375,1.933,4.307,4.307,4.307c1.007,0,1.921-0.362,2.654-0.943l3.187,3.186
			C23.232,23.951,23.359,24,23.488,24c0.128,0,0.256-0.049,0.354-0.146C24.037,23.658,24.037,23.342,23.842,23.147z M13.988,17.305
			c0-1.822,1.482-3.305,3.306-3.305c1.823,0,3.306,1.482,3.306,3.305c0,1.823-1.482,3.307-3.306,3.307
			C15.471,20.611,13.988,19.127,13.988,17.305z"/>
	</g>
</g>
<g id="Outline_Icons">
	<g>
		<polyline fill="none" stroke="#000000" stroke-linecap="round" stroke-linejoin="round" stroke-miterlimit="10" points="
			5.758,8.765 2.988,11.534 5.758,14.305 		"/>
		<polyline fill="none" stroke="#000000" stroke-linecap="round" stroke-linejoin="round" stroke-miterlimit="10" points="
			9.219,8.765 11.988,11.534 9.219,14.305 		"/>
		<g>
			<circle fill="none" stroke="#000000" stroke-linejoin="round" stroke-miterlimit="10" cx="17.306" cy="17.306" r="3.806"/>
			
				<line fill="none" stroke="#000000" stroke-linecap="round" stroke-linejoin="round" stroke-miterlimit="10" x1="20" y1="20" x2="23.5" y2="23.5"/>
		</g>
		<g>
			<polyline fill="none" stroke="#000000" stroke-linejoin="round" stroke-miterlimit="10" points="12.488,21.5 0.5,21.5 0.5,0.5 
				11.5,0.5 16.5,5.5 16.5,11 			"/>
			<polyline fill="none" stroke="#000000" stroke-linecap="round" stroke-linejoin="round" stroke-miterlimit="10" points="
				11.5,0.5 11.5,5.5 16.5,5.5 			"/>
		</g>
	</g>
</g>
</svg>
