<?xml version="1.0" encoding="utf-8"?>
<!-- Generator: Adobe Illustrator 19.2.0, SVG Export Plug-In . SVG Version: 6.00 Build 0)  -->
<svg version="1.1" id="Layer_1" xmlns="http://www.w3.org/2000/svg" xmlns:xlink="http://www.w3.org/1999/xlink" x="0px" y="0px"
	 viewBox="0 0 24 24" enable-background="new 0 0 24 24" xml:space="preserve">
<g id="Filled_Icons" display="none">
	<path display="inline" d="M23.853,9.146l-6-6C17.76,3.053,17.633,3,17.5,3h-17C0.224,3,0,3.224,0,3.5v17C0,20.775,0.224,21,0.5,21
		h23c0.275,0,0.5-0.225,0.5-0.5v-11C24,9.367,23.947,9.24,23.853,9.146z M9.5,10c0,1.104-0.897,2-2,2s-2-0.896-2-2
		c0-1.102,0.897-2,2-2S9.5,8.898,9.5,10z M5.116,16.18l2.5-3c0.148-0.178,0.4-0.229,0.607-0.127l1.651,0.825l2.746-3.203
		c0.11-0.13,0.28-0.195,0.45-0.17c0.168,0.024,0.313,0.133,0.385,0.288l2.5,5.5c0.07,0.154,0.059,0.335-0.035,0.479
		C15.829,16.914,15.67,17,15.5,17h-10c-0.194,0-0.371-0.111-0.453-0.288C4.965,16.536,4.992,16.329,5.116,16.18z M22.793,9.5H17.5
		V4.207V3.5l6,6H22.793z"/>
</g>
<g id="Outline_Icons">
	<g>
		<polygon fill="none" stroke="#000000" stroke-linecap="round" stroke-linejoin="round" stroke-miterlimit="10" points="0.5,3.5 
			0.5,20.5 23.5,20.5 23.5,9.5 17.5,3.5 		"/>
		<polyline fill="none" stroke="#000000" stroke-linecap="round" stroke-linejoin="round" stroke-miterlimit="10" points="23.5,9.5 
			17.5,9.5 17.5,3.5 		"/>
		<polygon fill="none" stroke="#000000" stroke-linecap="round" stroke-linejoin="round" stroke-miterlimit="10" points="5.5,16.5 
			15.5,16.5 13,11 10,14.5 8,13.5 		"/>
		
			<circle fill="none" stroke="#000000" stroke-linecap="round" stroke-linejoin="round" stroke-miterlimit="10" cx="7.5" cy="10" r="1.5"/>
	</g>
</g>
</svg>
