<?xml version="1.0" encoding="utf-8"?>
<!-- Generator: Adobe Illustrator 19.2.0, SVG Export Plug-In . SVG Version: 6.00 Build 0)  -->
<svg version="1.1" id="Layer_1" xmlns="http://www.w3.org/2000/svg" xmlns:xlink="http://www.w3.org/1999/xlink" x="0px" y="0px"
	 viewBox="0 0 24 24" enable-background="new 0 0 24 24" xml:space="preserve">
<g id="Filled_Icons" display="none">
	<g display="inline">
		<path d="M11.668,17.762c-0.503-0.412-0.693-1.107-0.469-1.73C11.427,15.414,12.017,15,12.668,15h2.406L17,11.164V5.5
			c0-0.133-0.053-0.26-0.147-0.354l-4.999-5C11.76,0.053,11.632,0,11.5,0h-11C0.224,0,0,0.224,0,0.5v21C0,21.775,0.224,22,0.5,22
			h12.419l0.834-2.502L11.668,17.762z M11.5,0.5l5,5h-5V0.5z"/>
		<path d="M23.82,16.883c0.162-0.135,0.222-0.355,0.15-0.554C23.898,16.132,23.71,16,23.5,16h-2.877
			c-0.191,0-0.366-0.103-0.451-0.277c-0.391-0.783-1.492-2.996-1.717-3.448C18.37,12.106,18.197,12,18.009,12h-0.001
			c-0.189,0-0.361,0.106-0.447,0.275l-1.73,3.448C15.745,15.895,15.572,16,15.382,16h-2.713c-0.234,0-0.447,0.15-0.529,0.373
			c-0.078,0.218-0.011,0.473,0.166,0.615l2.351,1.961c0.157,0.131,0.219,0.346,0.153,0.541l-1.283,3.854
			c-0.068,0.204,0.002,0.43,0.173,0.559c0.166,0.127,0.403,0.137,0.583,0.013L18,21.359l3.717,2.554
			c0.178,0.122,0.412,0.116,0.583-0.013c0.171-0.131,0.241-0.354,0.175-0.559l-1.101-3.301l-0.185-0.553
			c-0.064-0.195-0.004-0.41,0.154-0.543L23.82,16.883z"/>
	</g>
</g>
<g id="Outline_Icons">
	<g>
		<polyline fill="none" stroke="#000000" stroke-linejoin="round" stroke-miterlimit="10" points="10.5,21.5 0.5,21.5 0.5,0.5 
			11.5,0.5 16.5,5.502 16.5,10 		"/>
		<polyline fill="none" stroke="#000000" stroke-linecap="round" stroke-linejoin="round" stroke-miterlimit="10" points="11.5,0.5 
			11.5,5.5 16.5,5.5 		"/>
		<polygon fill="none" stroke="#000000" stroke-linejoin="round" stroke-miterlimit="10" points="18.008,12.5 20,16.5 23.5,16.5 
			20.5,19.001 22,23.501 18,20.755 14,23.502 15.5,19.001 12.5,16.5 16,16.5 		"/>
	</g>
</g>
</svg>
