<?xml version="1.0" encoding="utf-8"?>
<!-- Generator: Adobe Illustrator 19.2.0, SVG Export Plug-In . SVG Version: 6.00 Build 0)  -->
<svg version="1.1" id="Layer_1" xmlns="http://www.w3.org/2000/svg" xmlns:xlink="http://www.w3.org/1999/xlink" x="0px" y="0px"
	 viewBox="0 0 24 24" enable-background="new 0 0 24 24" xml:space="preserve">
<g id="Filled_Icons" display="none">
	<g display="inline">
		<path d="M21.484,19c-0.892,0-1.668,0.471-2.11,1.173l-3.429-1.284c0.019-0.127,0.039-0.256,0.039-0.389
			c0-0.225-0.039-0.437-0.096-0.644l3.639-1.818C19.986,16.619,20.687,17,21.484,17c1.379,0,2.5-1.122,2.5-2.5
			c0-1.378-1.121-2.5-2.5-2.5c-1.379,0-2.5,1.122-2.5,2.5c0,0.225,0.039,0.438,0.095,0.645l-3.638,1.818
			C14.982,16.38,14.279,16,13.484,16c-1.379,0-2.5,1.122-2.5,2.5c0,1.378,1.121,2.5,2.5,2.5c0.891,0,1.668-0.471,2.111-1.175
			l3.428,1.286c-0.021,0.127-0.039,0.255-0.039,0.389c0,1.378,1.121,2.5,2.5,2.5c1.379,0,2.5-1.122,2.5-2.5
			C23.984,20.122,22.863,19,21.484,19z M21.484,13c0.826,0,1.5,0.673,1.5,1.5c0,0.828-0.674,1.5-1.5,1.5c-0.827,0-1.5-0.672-1.5-1.5
			C19.984,13.672,20.657,13,21.484,13z M13.484,20c-0.827,0-1.5-0.672-1.5-1.5c0-0.827,0.673-1.5,1.5-1.5c0.826,0,1.5,0.673,1.5,1.5
			C14.984,19.327,14.312,20,13.484,20z M21.484,23c-0.827,0-1.5-0.672-1.5-1.5c0-0.827,0.673-1.5,1.5-1.5c0.826,0,1.5,0.673,1.5,1.5
			C22.984,22.327,22.312,23,21.484,23z"/>
		<g>
			<path d="M9.984,18.5c0-1.93,1.57-3.5,3.5-3.5c0.811,0,1.548,0.288,2.142,0.752L17,15.066V5.5c0-0.133-0.053-0.26-0.147-0.354
				l-4.999-5C11.76,0.053,11.633,0,11.5,0h-11C0.225,0,0,0.224,0,0.5v21C0,21.775,0.225,22,0.5,22h12.984
				C11.555,22,9.984,20.43,9.984,18.5z M11.5,0.5l5,5h-5V0.5z M5.5,14.75c-0.083,0-0.167-0.021-0.242-0.062
				C5.099,14.6,5,14.432,5,14.25V7.5c0-0.182,0.099-0.349,0.258-0.438C5.417,6.975,5.61,6.98,5.765,7.076l5.4,3.375
				c0.146,0.091,0.235,0.251,0.235,0.424c0,0.173-0.089,0.333-0.235,0.424l-5.4,3.375C5.684,14.725,5.592,14.75,5.5,14.75z"/>
		</g>
	</g>
</g>
<g id="Outline_Icons">
	<g>
		<g>
			<g>
				
					<circle fill="none" stroke="#000000" stroke-linecap="round" stroke-linejoin="round" stroke-miterlimit="10" cx="21.5" cy="14.5" r="2"/>
				
					<circle fill="none" stroke="#000000" stroke-linecap="round" stroke-linejoin="round" stroke-miterlimit="10" cx="21.5" cy="21.5" r="2"/>
				
					<circle fill="none" stroke="#000000" stroke-linecap="round" stroke-linejoin="round" stroke-miterlimit="10" cx="13.5" cy="18.5" r="2"/>
				
					<line fill="none" stroke="#000000" stroke-linecap="round" stroke-linejoin="round" stroke-miterlimit="10" x1="15.288" y1="17.606" x2="19.713" y2="15.395"/>
				
					<line fill="none" stroke="#000000" stroke-linecap="round" stroke-linejoin="round" stroke-miterlimit="10" x1="15.375" y1="19.203" x2="19.629" y2="20.798"/>
			</g>
		</g>
		<polygon fill="none" stroke="#000000" stroke-linecap="round" stroke-linejoin="round" stroke-miterlimit="10" points="5.484,7.5 
			10.885,10.875 5.484,14.25 		"/>
		<g>
			<polyline fill="none" stroke="#000000" stroke-linejoin="round" stroke-miterlimit="10" points="11,21.5 0.5,21.5 0.5,0.5 
				11.5,0.5 16.5,5.5 16.5,14 			"/>
			<polyline fill="none" stroke="#000000" stroke-linecap="round" stroke-linejoin="round" stroke-miterlimit="10" points="
				11.5,0.5 11.5,5.5 16.5,5.5 			"/>
		</g>
	</g>
</g>
</svg>
