<?xml version="1.0" encoding="utf-8"?>
<!-- Generator: Adobe Illustrator 19.2.0, SVG Export Plug-In . SVG Version: 6.00 Build 0)  -->
<svg version="1.1" id="Outline_Icons" xmlns="http://www.w3.org/2000/svg" xmlns:xlink="http://www.w3.org/1999/xlink" x="0px"
	 y="0px" viewBox="0 0 24 24" enable-background="new 0 0 24 24" xml:space="preserve">
<g>
	<g>
		<polyline fill="none" stroke="#000000" stroke-linecap="round" stroke-linejoin="round" stroke-miterlimit="10" points="
			6.192,18.5 3.5,18.5 3.5,13.5 6.192,13.5 		"/>
		
			<line fill="none" stroke="#000000" stroke-linecap="round" stroke-linejoin="round" stroke-miterlimit="10" x1="3.938" y1="16.094" x2="5.578" y2="16.094"/>
	</g>
	<path fill="none" stroke="#000000" stroke-linecap="round" stroke-linejoin="round" stroke-miterlimit="10" d="M8.5,18.5v-5h1.679
		c1.056,0,1.239,0.582,1.239,1.297c0,0.716-0.184,1.297-1.239,1.703H8.5"/>
	<path fill="none" stroke="#000000" stroke-linecap="round" stroke-linejoin="round" stroke-miterlimit="10" d="M13.611,17.56
		c0.041,0.692,0.58,0.94,1.24,0.94c0.686,0,1.242-0.294,1.242-1.024c0-1.08-1.023-1.261-1.24-1.325
		c-0.217-0.063-1.242-0.245-1.242-1.325c0-0.732,0.557-1.325,1.242-1.325c0.66,0,1.199,0.548,1.24,1.24"/>
	<g>
		<g>
			<g>
				<g>
					<polygon fill="none" stroke="#000000" stroke-linecap="round" stroke-linejoin="round" stroke-miterlimit="10" points="
						19.5,23.5 0.5,23.5 0.5,0.5 13.5,0.5 19.5,6.5 					"/>
					<polyline fill="none" stroke="#000000" stroke-linecap="round" stroke-linejoin="round" stroke-miterlimit="10" points="
						13.5,0.5 13.5,6.5 19.5,6.5 					"/>
				</g>
			</g>
		</g>
	</g>
</g>
</svg>
