<?xml version="1.0" encoding="utf-8"?>
<!-- Generator: Adobe Illustrator 19.2.0, SVG Export Plug-In . SVG Version: 6.00 Build 0)  -->
<svg version="1.1" id="Layer_1" xmlns="http://www.w3.org/2000/svg" xmlns:xlink="http://www.w3.org/1999/xlink" x="0px" y="0px"
	 viewBox="0 0 24 24" enable-background="new 0 0 24 24" xml:space="preserve">
<g id="Filled_Icons" display="none">
	<g display="inline">
		<g>
			<rect x="4" y="12" width="1" height="1"/>
			<rect x="6" y="7" width="1" height="1"/>
			<rect x="8" y="17" width="1" height="1"/>
			<path d="M12.036,18.656c0.01-0.034,0.029-0.062,0.041-0.098c0.015-0.037,0.031-0.074,0.048-0.111
				c0.074-0.16,0.166-0.312,0.293-0.44L17,13.428V5.5c0-0.133-0.053-0.26-0.147-0.354l-4.999-5C11.76,0.053,11.633,0,11.5,0h-11
				C0.225,0,0,0.224,0,0.5v21C0,21.775,0.225,22,0.5,22h10.581L12.036,18.656z M11.5,0.5l5,5h-5V0.5z M5,6.5C5,6.224,5.224,6,5.5,6
				h2C7.776,6,8,6.224,8,6.5v2C8,8.776,7.776,9,7.5,9h-2C5.224,9,5,8.776,5,8.5V6.5z M8,11.5v2C8,13.775,7.776,14,7.5,14
				C7.224,14,7,13.775,7,13.5v-2C7,11.224,7.224,11,7.5,11C7.776,11,8,11.224,8,11.5z M3,6.5C3,6.224,3.224,6,3.5,6
				C3.776,6,4,6.224,4,6.5v2C4,8.776,3.776,9,3.5,9C3.224,9,3,8.776,3,8.5V6.5z M4,18.5C4,18.775,3.776,19,3.5,19
				C3.224,19,3,18.775,3,18.5v-2C3,16.225,3.224,16,3.5,16C3.776,16,4,16.225,4,16.5V18.5z M6,18.5C6,18.775,5.776,19,5.5,19
				C5.224,19,5,18.775,5,18.5v-2C5,16.225,5.224,16,5.5,16C5.776,16,6,16.225,6,16.5V18.5z M6,13.5C6,13.775,5.776,14,5.5,14h-2
				C3.224,14,3,13.775,3,13.5v-2C3,11.224,3.224,11,3.5,11h2C5.776,11,6,11.224,6,11.5V13.5z M10,18.5c0,0.275-0.224,0.5-0.5,0.5h-2
				C7.224,19,7,18.775,7,18.5v-2C7,16.225,7.224,16,7.5,16h2c0.276,0,0.5,0.225,0.5,0.5V18.5z M10,13.5c0,0.275-0.224,0.5-0.5,0.5
				C9.224,14,9,13.775,9,13.5v-2C9,11.224,9.224,11,9.5,11c0.276,0,0.5,0.224,0.5,0.5V13.5z M9.5,9C9.224,9,9,8.776,9,8.5v-2
				C9,6.224,9.224,6,9.5,6C9.776,6,10,6.224,10,6.5v2C10,8.776,9.776,9,9.5,9z"/>
		</g>
		<g>
			<path d="M12.937,19.145l-0.918,3.219c-0.05,0.175-0.001,0.363,0.128,0.49C12.241,22.949,12.369,23,12.5,23
				c0.045,0,0.092-0.007,0.137-0.018l3.217-0.922L12.937,19.145z"/>
			<rect x="14.11" y="15.233" transform="matrix(0.707 -0.7072 0.7072 0.707 -7.2487 17.5049)" width="6.78" height="4.534"/>
			<path d="M23.853,13.645l-2.5-2.5c-0.187-0.188-0.519-0.188-0.707,0L19,12.792l3.207,3.206l1.646-1.646
				C24.049,14.156,24.049,13.841,23.853,13.645z"/>
		</g>
	</g>
</g>
<g id="Outline_Icons">
	<g>
		
			<line fill="none" stroke="#000000" stroke-linecap="round" stroke-linejoin="round" stroke-miterlimit="10" x1="3.5" y1="6.5" x2="3.5" y2="8.5"/>
		
			<line fill="none" stroke="#000000" stroke-linecap="round" stroke-linejoin="round" stroke-miterlimit="10" x1="9.5" y1="6.5" x2="9.5" y2="8.5"/>
		
			<line fill="none" stroke="#000000" stroke-linecap="round" stroke-linejoin="round" stroke-miterlimit="10" x1="7.5" y1="11.5" x2="7.5" y2="13.5"/>
		
			<line fill="none" stroke="#000000" stroke-linecap="round" stroke-linejoin="round" stroke-miterlimit="10" x1="9.5" y1="11.5" x2="9.5" y2="13.5"/>
		
			<rect x="5.5" y="6.5" fill="none" stroke="#000000" stroke-linecap="round" stroke-linejoin="round" stroke-miterlimit="10" width="2" height="2"/>
		
			<rect x="3.5" y="11.5" fill="none" stroke="#000000" stroke-linecap="round" stroke-linejoin="round" stroke-miterlimit="10" width="2" height="2"/>
		
			<rect x="7.5" y="16.5" fill="none" stroke="#000000" stroke-linecap="round" stroke-linejoin="round" stroke-miterlimit="10" width="2" height="2"/>
		
			<line fill="none" stroke="#000000" stroke-linecap="round" stroke-linejoin="round" stroke-miterlimit="10" x1="3.5" y1="16.5" x2="3.5" y2="18.5"/>
		
			<line fill="none" stroke="#000000" stroke-linecap="round" stroke-linejoin="round" stroke-miterlimit="10" x1="5.5" y1="16.5" x2="5.5" y2="18.5"/>
		<g>
			<g>
				<polygon fill="none" stroke="#000000" stroke-linecap="round" stroke-linejoin="round" stroke-miterlimit="10" points="16,21.5 
					12.5,22.5 13.5,19 21.002,11.499 23.502,13.999 				"/>
				
					<line fill="none" stroke="#000000" stroke-linejoin="round" stroke-miterlimit="10" x1="19.002" y1="13.499" x2="21.502" y2="15.999"/>
				
					<line fill="none" stroke="#000000" stroke-linecap="round" stroke-linejoin="round" stroke-miterlimit="10" x1="13.5" y1="19" x2="16" y2="21.5"/>
			</g>
		</g>
		<g>
			<polyline fill="none" stroke="#000000" stroke-linejoin="round" stroke-miterlimit="10" points="11,21.5 0.5,21.5 0.5,0.5 
				11.5,0.5 16.5,5.5 16.48,12.034 			"/>
			<polyline fill="none" stroke="#000000" stroke-linecap="round" stroke-linejoin="round" stroke-miterlimit="10" points="
				11.5,0.5 11.5,5.5 16.5,5.5 			"/>
		</g>
	</g>
</g>
</svg>
