<?xml version="1.0" encoding="utf-8"?>
<!-- Generator: Adobe Illustrator 19.2.0, SVG Export Plug-In . SVG Version: 6.00 Build 0)  -->
<svg version="1.1" id="Layer_1" xmlns="http://www.w3.org/2000/svg" xmlns:xlink="http://www.w3.org/1999/xlink" x="0px" y="0px"
	 viewBox="0 0 24 24" enable-background="new 0 0 24 24" xml:space="preserve">
<g id="Filled_Icons" display="none">
	<g display="inline">
		<circle cx="2.75" cy="1.25" r="0.75"/>
		<circle cx="4.75" cy="1.25" r="0.75"/>
		<circle cx="6.75" cy="1.25" r="0.75"/>
		<circle cx="8.75" cy="1.25" r="0.75"/>
		<circle cx="10.75" cy="1.25" r="0.75"/>
		<circle cx="12.75" cy="1.25" r="0.75"/>
		<circle cx="14.75" cy="1.25" r="0.75"/>
		<circle cx="14.75" cy="3.25" r="0.75"/>
		<circle cx="14.75" cy="5.25" r="0.75"/>
		<circle cx="17.25" cy="3.25" r="0.75"/>
		<circle cx="14.75" cy="7.25" r="0.75"/>
		<circle cx="18.75" cy="4.75" r="0.75"/>
		<circle cx="4.75" cy="23.25" r="0.75"/>
		<circle cx="6.75" cy="23.25" r="0.75"/>
		<circle cx="8.75" cy="23.25" r="0.75"/>
		<circle cx="10.75" cy="23.25" r="0.75"/>
		<circle cx="12.75" cy="23.25" r="0.75"/>
		<circle cx="14.75" cy="23.25" r="0.75"/>
		<circle cx="16.75" cy="23.25" r="0.75"/>
		<circle cx="18.75" cy="23.25" r="0.75"/>
		<circle cx="2.75" cy="3.25" r="0.75"/>
		<circle cx="2.75" cy="5.25" r="0.75"/>
		<circle cx="2.75" cy="7.25" r="0.75"/>
		<circle cx="20.75" cy="7.25" r="0.75"/>
		<circle cx="18.75" cy="7.25" r="0.75"/>
		<circle cx="16.75" cy="7.25" r="0.75"/>
		<circle cx="2.75" cy="9.25" r="0.75"/>
		<circle cx="20.75" cy="9.25" r="0.75"/>
		<circle cx="2.75" cy="11.25" r="0.75"/>
		<circle cx="20.75" cy="11.25" r="0.75"/>
		<circle cx="2.75" cy="13.25" r="0.75"/>
		<circle cx="20.75" cy="13.25" r="0.75"/>
		<circle cx="2.75" cy="15.25" r="0.75"/>
		<circle cx="20.75" cy="15.25" r="0.75"/>
		<circle cx="2.75" cy="17.25" r="0.75"/>
		<circle cx="20.75" cy="17.25" r="0.75"/>
		<circle cx="2.75" cy="19.25" r="0.75"/>
		<circle cx="20.75" cy="19.25" r="0.75"/>
		<circle cx="2.75" cy="21.25" r="0.75"/>
		<circle cx="20.75" cy="21.25" r="0.75"/>
		<circle cx="2.75" cy="23.25" r="0.75"/>
		<circle cx="20.75" cy="23.25" r="0.75"/>
	</g>
</g>
<g id="Outline_Icons">
	<g>
		<g>
			<g>
				<path d="M2.5,1C2.223,1,2,1.224,2,1.5C2,1.776,2.223,2,2.5,2C2.775,2,3,1.776,3,1.5C3,1.224,2.775,1,2.5,1L2.5,1z"/>
			</g>
		</g>
		<g>
			<g>
				<path d="M4.5,1C4.223,1,4,1.224,4,1.5C4,1.776,4.223,2,4.5,2C4.775,2,5,1.776,5,1.5C5,1.224,4.775,1,4.5,1L4.5,1z"/>
			</g>
		</g>
		<g>
			<g>
				<path d="M6.5,1C6.223,1,6,1.224,6,1.5C6,1.776,6.223,2,6.5,2C6.775,2,7,1.776,7,1.5C7,1.224,6.775,1,6.5,1L6.5,1z"/>
			</g>
		</g>
		<g>
			<g>
				<path d="M8.5,1C8.223,1,8,1.224,8,1.5C8,1.776,8.223,2,8.5,2C8.775,2,9,1.776,9,1.5C9,1.224,8.775,1,8.5,1L8.5,1z"/>
			</g>
		</g>
		<g>
			<g>
				<path d="M10.5,1C10.223,1,10,1.224,10,1.5C10,1.776,10.223,2,10.5,2C10.775,2,11,1.776,11,1.5C11,1.224,10.775,1,10.5,1L10.5,1z
					"/>
			</g>
		</g>
		<g>
			<g>
				<path d="M12.5,1C12.223,1,12,1.224,12,1.5C12,1.776,12.223,2,12.5,2C12.775,2,13,1.776,13,1.5C13,1.224,12.775,1,12.5,1L12.5,1z
					"/>
			</g>
		</g>
		<g>
			<g>
				<path d="M14.5,1C14.223,1,14,1.224,14,1.5C14,1.776,14.223,2,14.5,2C14.775,2,15,1.776,15,1.5C15,1.224,14.775,1,14.5,1L14.5,1z
					"/>
			</g>
		</g>
		<g>
			<g>
				<path d="M14.5,3C14.223,3,14,3.224,14,3.5C14,3.776,14.223,4,14.5,4C14.775,4,15,3.776,15,3.5C15,3.224,14.775,3,14.5,3L14.5,3z
					"/>
			</g>
		</g>
		<g>
			<g>
				<path d="M14.5,5C14.223,5,14,5.224,14,5.5C14,5.776,14.223,6,14.5,6C14.775,6,15,5.776,15,5.5C15,5.224,14.775,5,14.5,5L14.5,5z
					"/>
			</g>
		</g>
		<g>
			<g>
				<path d="M17,3c-0.277,0-0.5,0.224-0.5,0.5C16.5,3.776,16.723,4,17,4c0.275,0,0.5-0.224,0.5-0.5C17.5,3.224,17.275,3,17,3L17,3z"
					/>
			</g>
		</g>
		<g>
			<g>
				<path d="M14.5,7C14.223,7,14,7.224,14,7.5C14,7.776,14.223,8,14.5,8C14.775,8,15,7.776,15,7.5C15,7.224,14.775,7,14.5,7L14.5,7z
					"/>
			</g>
		</g>
		<g>
			<g>
				<path d="M18.5,4.5C18.223,4.5,18,4.724,18,5c0,0.276,0.223,0.5,0.5,0.5C18.775,5.5,19,5.276,19,5C19,4.724,18.775,4.5,18.5,4.5
					L18.5,4.5z"/>
			</g>
		</g>
		<g>
			<g>
				<path d="M4.5,23C4.223,23,4,23.225,4,23.5C4,23.775,4.223,24,4.5,24C4.775,24,5,23.775,5,23.5C5,23.225,4.775,23,4.5,23L4.5,23z
					"/>
			</g>
		</g>
		<g>
			<g>
				<path d="M6.5,23C6.223,23,6,23.225,6,23.5C6,23.775,6.223,24,6.5,24C6.775,24,7,23.775,7,23.5C7,23.225,6.775,23,6.5,23L6.5,23z
					"/>
			</g>
		</g>
		<g>
			<g>
				<path d="M8.5,23C8.223,23,8,23.225,8,23.5C8,23.775,8.223,24,8.5,24C8.775,24,9,23.775,9,23.5C9,23.225,8.775,23,8.5,23L8.5,23z
					"/>
			</g>
		</g>
		<g>
			<g>
				<path d="M10.5,23c-0.277,0-0.5,0.225-0.5,0.5c0,0.275,0.223,0.5,0.5,0.5c0.275,0,0.5-0.225,0.5-0.5C11,23.225,10.775,23,10.5,23
					L10.5,23z"/>
			</g>
		</g>
		<g>
			<g>
				<path d="M12.5,23c-0.277,0-0.5,0.225-0.5,0.5c0,0.275,0.223,0.5,0.5,0.5c0.275,0,0.5-0.225,0.5-0.5C13,23.225,12.775,23,12.5,23
					L12.5,23z"/>
			</g>
		</g>
		<g>
			<g>
				<path d="M14.5,23c-0.277,0-0.5,0.225-0.5,0.5c0,0.275,0.223,0.5,0.5,0.5c0.275,0,0.5-0.225,0.5-0.5C15,23.225,14.775,23,14.5,23
					L14.5,23z"/>
			</g>
		</g>
		<g>
			<g>
				<path d="M16.5,23c-0.277,0-0.5,0.225-0.5,0.5c0,0.275,0.223,0.5,0.5,0.5c0.275,0,0.5-0.225,0.5-0.5C17,23.225,16.775,23,16.5,23
					L16.5,23z"/>
			</g>
		</g>
		<g>
			<g>
				<path d="M18.5,23c-0.277,0-0.5,0.225-0.5,0.5c0,0.275,0.223,0.5,0.5,0.5c0.275,0,0.5-0.225,0.5-0.5C19,23.225,18.775,23,18.5,23
					L18.5,23z"/>
			</g>
		</g>
		<g>
			<g>
				<path d="M2.5,3C2.223,3,2,3.224,2,3.5C2,3.776,2.223,4,2.5,4C2.775,4,3,3.776,3,3.5C3,3.224,2.775,3,2.5,3L2.5,3z"/>
			</g>
		</g>
		<g>
			<g>
				<path d="M2.5,5C2.223,5,2,5.224,2,5.5C2,5.776,2.223,6,2.5,6C2.775,6,3,5.776,3,5.5C3,5.224,2.775,5,2.5,5L2.5,5z"/>
			</g>
		</g>
		<g>
			<g>
				<path d="M2.5,7C2.223,7,2,7.224,2,7.5C2,7.776,2.223,8,2.5,8C2.775,8,3,7.776,3,7.5C3,7.224,2.775,7,2.5,7L2.5,7z"/>
			</g>
		</g>
		<g>
			<g>
				<path d="M20.5,7C20.223,7,20,7.224,20,7.5C20,7.776,20.223,8,20.5,8C20.775,8,21,7.776,21,7.5C21,7.224,20.775,7,20.5,7L20.5,7z
					"/>
			</g>
		</g>
		<g>
			<g>
				<path d="M18.5,7C18.223,7,18,7.224,18,7.5C18,7.776,18.223,8,18.5,8C18.775,8,19,7.776,19,7.5C19,7.224,18.775,7,18.5,7L18.5,7z
					"/>
			</g>
		</g>
		<g>
			<g>
				<path d="M16.5,7C16.223,7,16,7.224,16,7.5C16,7.776,16.223,8,16.5,8C16.775,8,17,7.776,17,7.5C17,7.224,16.775,7,16.5,7L16.5,7z
					"/>
			</g>
		</g>
		<g>
			<g>
				<path d="M2.5,9C2.223,9,2,9.224,2,9.5C2,9.776,2.223,10,2.5,10C2.775,10,3,9.776,3,9.5C3,9.224,2.775,9,2.5,9L2.5,9z"/>
			</g>
		</g>
		<g>
			<g>
				<path d="M20.5,9C20.223,9,20,9.224,20,9.5c0,0.276,0.223,0.5,0.5,0.5c0.275,0,0.5-0.224,0.5-0.5C21,9.224,20.775,9,20.5,9
					L20.5,9z"/>
			</g>
		</g>
		<g>
			<g>
				<path d="M2.5,11C2.223,11,2,11.224,2,11.5C2,11.776,2.223,12,2.5,12C2.775,12,3,11.776,3,11.5C3,11.224,2.775,11,2.5,11L2.5,11z
					"/>
			</g>
		</g>
		<g>
			<g>
				<path d="M20.5,11c-0.277,0-0.5,0.224-0.5,0.5c0,0.276,0.223,0.5,0.5,0.5c0.275,0,0.5-0.224,0.5-0.5C21,11.224,20.775,11,20.5,11
					L20.5,11z"/>
			</g>
		</g>
		<g>
			<g>
				<path d="M2.5,13C2.223,13,2,13.225,2,13.5C2,13.775,2.223,14,2.5,14C2.775,14,3,13.775,3,13.5C3,13.225,2.775,13,2.5,13L2.5,13z
					"/>
			</g>
		</g>
		<g>
			<g>
				<path d="M20.5,13c-0.277,0-0.5,0.225-0.5,0.5c0,0.275,0.223,0.5,0.5,0.5c0.275,0,0.5-0.225,0.5-0.5C21,13.225,20.775,13,20.5,13
					L20.5,13z"/>
			</g>
		</g>
		<g>
			<g>
				<path d="M2.5,15C2.223,15,2,15.225,2,15.5C2,15.775,2.223,16,2.5,16C2.775,16,3,15.775,3,15.5C3,15.225,2.775,15,2.5,15L2.5,15z
					"/>
			</g>
		</g>
		<g>
			<g>
				<path d="M20.5,15c-0.277,0-0.5,0.225-0.5,0.5c0,0.275,0.223,0.5,0.5,0.5c0.275,0,0.5-0.225,0.5-0.5C21,15.225,20.775,15,20.5,15
					L20.5,15z"/>
			</g>
		</g>
		<g>
			<g>
				<path d="M2.5,17C2.223,17,2,17.225,2,17.5C2,17.775,2.223,18,2.5,18C2.775,18,3,17.775,3,17.5C3,17.225,2.775,17,2.5,17L2.5,17z
					"/>
			</g>
		</g>
		<g>
			<g>
				<path d="M20.5,17c-0.277,0-0.5,0.225-0.5,0.5c0,0.275,0.223,0.5,0.5,0.5c0.275,0,0.5-0.225,0.5-0.5C21,17.225,20.775,17,20.5,17
					L20.5,17z"/>
			</g>
		</g>
		<g>
			<g>
				<path d="M2.5,19C2.223,19,2,19.225,2,19.5C2,19.775,2.223,20,2.5,20C2.775,20,3,19.775,3,19.5C3,19.225,2.775,19,2.5,19L2.5,19z
					"/>
			</g>
		</g>
		<g>
			<g>
				<path d="M20.5,19c-0.277,0-0.5,0.225-0.5,0.5c0,0.275,0.223,0.5,0.5,0.5c0.275,0,0.5-0.225,0.5-0.5C21,19.225,20.775,19,20.5,19
					L20.5,19z"/>
			</g>
		</g>
		<g>
			<g>
				<path d="M2.5,21C2.223,21,2,21.225,2,21.5C2,21.775,2.223,22,2.5,22C2.775,22,3,21.775,3,21.5C3,21.225,2.775,21,2.5,21L2.5,21z
					"/>
			</g>
		</g>
		<g>
			<g>
				<path d="M20.5,21c-0.277,0-0.5,0.225-0.5,0.5c0,0.275,0.223,0.5,0.5,0.5c0.275,0,0.5-0.225,0.5-0.5C21,21.225,20.775,21,20.5,21
					L20.5,21z"/>
			</g>
		</g>
		<g>
			<g>
				<path d="M2.5,23C2.223,23,2,23.225,2,23.5C2,23.775,2.223,24,2.5,24C2.775,24,3,23.775,3,23.5C3,23.225,2.775,23,2.5,23L2.5,23z
					"/>
			</g>
		</g>
		<g>
			<g>
				<path d="M20.5,23c-0.277,0-0.5,0.225-0.5,0.5c0,0.275,0.223,0.5,0.5,0.5c0.275,0,0.5-0.225,0.5-0.5C21,23.225,20.775,23,20.5,23
					L20.5,23z"/>
			</g>
		</g>
	</g>
</g>
</svg>
