<?xml version="1.0" encoding="utf-8"?>
<!-- Generator: Adobe Illustrator 19.2.0, SVG Export Plug-In . SVG Version: 6.00 Build 0)  -->
<svg version="1.1" id="Layer_1" xmlns="http://www.w3.org/2000/svg" xmlns:xlink="http://www.w3.org/1999/xlink" x="0px" y="0px"
	 viewBox="0 0 24 24" enable-background="new 0 0 24 24" xml:space="preserve">
<g id="Filled_Icons" display="none">
	<g display="inline">
		<path d="M20.277,12.5c-0.951,0-2.071,0.492-2.777,1.785c-0.706-1.293-1.826-1.785-2.777-1.785c-1.584,0-3.223,1.322-3.223,3.537
			c0,3.182,5.473,7.199,5.706,7.369c0.088,0.062,0.19,0.095,0.294,0.095c0.103,0,0.206-0.03,0.294-0.095
			c0.233-0.17,5.706-4.188,5.706-7.369C23.5,13.822,21.861,12.5,20.277,12.5z"/>
		<g>
			<rect x="4" y="13" width="1" height="3"/>
			<rect x="6" y="8" width="1" height="8"/>
			<path d="M10.5,16.037c0-2.84,2.146-4.537,4.225-4.537c0.737,0,1.547,0.23,2.275,0.741V5.5c0-0.133-0.053-0.26-0.147-0.354
				l-4.999-5C11.76,0.053,11.633,0,11.5,0h-11C0.225,0,0,0.224,0,0.5v21C0,21.775,0.225,22,0.5,22h13.49
				C12.311,20.383,10.5,18.152,10.5,16.037z M11.5,0.5l5,5h-5V0.5z M10,16.5c0,0.275-0.224,0.5-0.5,0.5h-7C2.224,17,2,16.775,2,16.5
				C2,16.225,2.224,16,2.5,16H3v-3.5C3,12.224,3.224,12,3.5,12H5V7.5C5,7.224,5.224,7,5.5,7h2C7.776,7,8,7.224,8,7.5V10h1.5
				c0.276,0,0.5,0.224,0.5,0.5V16.5z"/>
			<rect x="8" y="11" width="1" height="5"/>
		</g>
	</g>
</g>
<g id="Outline_Icons">
	<g>
		<g>
			<g>
				<path fill="none" stroke="#000000" stroke-linejoin="round" stroke-miterlimit="10" d="M17.5,23c0,0,5.5-4,5.5-6.963
					c0-3.42-4.5-4.5-5.5-0.342c-1-4.158-5.5-3.078-5.5,0.342C12,19,17.5,23,17.5,23z"/>
			</g>
		</g>
		<g>
			<polyline fill="none" stroke="#000000" stroke-linejoin="round" stroke-miterlimit="10" points="11,21.5 0.5,21.5 0.5,0.5 
				11.5,0.5 16.5,5.5 16.5,10 			"/>
			<polyline fill="none" stroke="#000000" stroke-linecap="round" stroke-linejoin="round" stroke-miterlimit="10" points="
				11.5,0.5 11.5,5.5 16.5,5.5 			"/>
		</g>
		<g>
			
				<rect x="3.5" y="12.5" fill="none" stroke="#000000" stroke-linecap="round" stroke-linejoin="round" stroke-miterlimit="10" width="2" height="4"/>
			
				<rect x="7.5" y="10.5" fill="none" stroke="#000000" stroke-linecap="round" stroke-linejoin="round" stroke-miterlimit="10" width="2" height="6"/>
			
				<rect x="5.5" y="7.5" fill="none" stroke="#000000" stroke-linecap="round" stroke-linejoin="round" stroke-miterlimit="10" width="2" height="9"/>
			
				<line fill="none" stroke="#000000" stroke-linecap="round" stroke-linejoin="round" stroke-miterlimit="10" x1="2.5" y1="16.5" x2="9.5" y2="16.5"/>
		</g>
	</g>
</g>
</svg>
