<?xml version="1.0" encoding="utf-8"?>
<!-- Generator: Adobe Illustrator 19.2.0, SVG Export Plug-In . SVG Version: 6.00 Build 0)  -->
<svg version="1.1" id="Outline_Icons" xmlns="http://www.w3.org/2000/svg" xmlns:xlink="http://www.w3.org/1999/xlink" x="0px"
	 y="0px" viewBox="0 0 24 24" enable-background="new 0 0 24 24" xml:space="preserve">
<g>
	<path fill="none" stroke="#000000" stroke-linecap="round" stroke-linejoin="round" stroke-miterlimit="10" d="M6.933,14.524
		C6.773,13.778,6.411,13.5,5.636,13.5c-1.201,0-1.41,0.97-1.41,2.434s0.209,2.65,1.41,2.65c0.775,0,1.137-0.495,1.297-1.241"/>
	<polyline fill="none" stroke="#000000" stroke-linecap="round" stroke-linejoin="round" stroke-miterlimit="10" points="
		13.156,13.5 14.622,18.47 16.088,13.5 	"/>
	<path fill="none" stroke="#000000" stroke-linecap="round" stroke-linejoin="round" stroke-miterlimit="10" d="M9.104,17.343
		c0.04,0.692,0.579,1.24,1.238,1.24c0.687,0,1.242-0.593,1.242-1.324c0-1.08-1.023-1.262-1.24-1.325
		c-0.217-0.064-1.24-0.245-1.24-1.325c0-0.732,0.555-1.108,1.24-1.108c0.66,0,1.199,0.331,1.24,1.023"/>
	<g>
		<g>
			<polygon fill="none" stroke="#000000" stroke-linecap="round" stroke-linejoin="round" stroke-miterlimit="10" points="
				19.5,23.5 0.5,23.5 0.5,0.5 13.5,0.5 19.5,6.5 			"/>
			<polyline fill="none" stroke="#000000" stroke-linecap="round" stroke-linejoin="round" stroke-miterlimit="10" points="
				13.5,0.5 13.5,6.5 19.5,6.5 			"/>
		</g>
	</g>
</g>
</svg>
