<?xml version="1.0" encoding="utf-8"?>
<!-- Generator: Adobe Illustrator 19.2.0, SVG Export Plug-In . SVG Version: 6.00 Build 0)  -->
<svg version="1.1" id="Layer_1" xmlns="http://www.w3.org/2000/svg" xmlns:xlink="http://www.w3.org/1999/xlink" x="0px" y="0px"
	 viewBox="0 0 24 24" enable-background="new 0 0 24 24" xml:space="preserve">
<g id="Filled_Icons" display="none">
	<g display="inline">
		<rect x="7" y="18" width="3" height="2"/>
		<rect x="11" y="18" width="6" height="2"/>
		<rect x="11" y="12" width="6" height="2"/>
		<rect x="11" y="15" width="6" height="2"/>
		<rect x="7" y="12" width="3" height="2"/>
		<rect x="7" y="15" width="3" height="2"/>
		<rect x="11" y="9" width="6" height="2"/>
		<rect x="7" y="9" width="3" height="2"/>
		<path d="M20.853,6.146l-6-6C14.76,0.053,14.632,0,14.5,0h-11C3.224,0,3,0.224,3,0.5v23C3,23.775,3.224,24,3.5,24h17
			c0.275,0,0.5-0.225,0.5-0.5v-17C21,6.367,20.947,6.24,20.853,6.146z M18,21H6V8h12V21z M14.5,6.5v-6l6,6H14.5z"/>
	</g>
</g>
<g id="Outline_Icons">
	<g>
		<polygon fill="none" stroke="#000000" stroke-linecap="round" stroke-linejoin="round" stroke-miterlimit="10" points="20.5,23.5 
			3.5,23.5 3.5,0.5 14.5,0.5 20.5,6.5 		"/>
		<polyline fill="none" stroke="#000000" stroke-linecap="round" stroke-linejoin="round" stroke-miterlimit="10" points="14.5,0.5 
			14.5,6.5 20.5,6.5 		"/>
		
			<rect x="6.5" y="8.5" fill="none" stroke="#000000" stroke-linecap="round" stroke-linejoin="round" stroke-miterlimit="10" width="11" height="12"/>
		
			<line fill="none" stroke="#000000" stroke-linecap="round" stroke-linejoin="round" stroke-miterlimit="10" x1="6.5" y1="11.5" x2="17.5" y2="11.5"/>
		
			<line fill="none" stroke="#000000" stroke-linecap="round" stroke-linejoin="round" stroke-miterlimit="10" x1="6.5" y1="14.5" x2="17.5" y2="14.5"/>
		
			<line fill="none" stroke="#000000" stroke-linecap="round" stroke-linejoin="round" stroke-miterlimit="10" x1="6.5" y1="17.5" x2="17.5" y2="17.5"/>
		
			<line fill="none" stroke="#000000" stroke-linecap="round" stroke-linejoin="round" stroke-miterlimit="10" x1="10.5" y1="8.5" x2="10.5" y2="20.5"/>
	</g>
</g>
</svg>
