<?xml version="1.0" encoding="utf-8"?>
<!-- Generator: Adobe Illustrator 19.2.0, SVG Export Plug-In . SVG Version: 6.00 Build 0)  -->
<svg version="1.1" id="Layer_1" xmlns="http://www.w3.org/2000/svg" xmlns:xlink="http://www.w3.org/1999/xlink" x="0px" y="0px"
	 viewBox="0 0 24 24" enable-background="new 0 0 24 24" xml:space="preserve">
<g id="Filled_Icons" display="none">
	<g display="inline">
		<path d="M12.99,16.534c0-0.828,0.672-1.5,1.5-1.5h0.051c0.175-1.546,1.123-2.848,2.459-3.514V5.5c0-0.133-0.053-0.26-0.147-0.354
			l-4.999-5C11.76,0.053,11.633,0,11.5,0h-11C0.225,0,0,0.224,0,0.5v21C0,21.775,0.225,22,0.5,22h10.988h1.502V16.534z M11.5,0.5
			l5,5h-5V0.5z M5.416,13.416c0.195,0.195,0.195,0.512,0,0.707C5.318,14.221,5.19,14.27,5.063,14.27
			c-0.127,0-0.256-0.049-0.354-0.146l-2.77-2.77c-0.195-0.195-0.195-0.512,0-0.707l2.77-2.77c0.195-0.195,0.512-0.195,0.707,0
			c0.195,0.195,0.195,0.512,0,0.707L3,11L5.416,13.416z M8.878,14.123C8.78,14.221,8.652,14.27,8.524,14.27
			c-0.128,0-0.256-0.049-0.354-0.146c-0.195-0.194-0.195-0.513,0-0.707L10.586,11L8.171,8.584c-0.195-0.195-0.195-0.512,0-0.707
			c0.195-0.195,0.512-0.195,0.707,0l2.769,2.77c0.195,0.195,0.195,0.512,0,0.707L8.878,14.123z"/>
		<path d="M23.49,15.998h-1V15.5c0-1.93-1.57-3.5-3.5-3.5s-3.5,1.57-3.5,3.5v0.498h-1c-0.276,0-0.5,0.223-0.5,0.5v7
			c0,0.275,0.224,0.5,0.5,0.5h9c0.275,0,0.5-0.225,0.5-0.5v-7C23.99,16.221,23.768,15.998,23.49,15.998z M19.49,19.848v1.65
			c0,0.275-0.225,0.5-0.5,0.5c-0.276,0-0.5-0.225-0.5-0.5v-1.65c-0.293-0.176-0.5-0.482-0.5-0.848c0-0.551,0.447-1,1-1
			c0.552,0,1,0.449,1,1C19.99,19.365,19.783,19.672,19.49,19.848z M21.49,15.998h-5V15.5c0-1.379,1.121-2.5,2.5-2.5
			c1.379,0,2.5,1.121,2.5,2.5V15.998z"/>
	</g>
</g>
<g id="Outline_Icons">
	<g>
		<polyline fill="none" stroke="#000000" stroke-linecap="round" stroke-linejoin="round" stroke-miterlimit="10" points="
			5.76,8.765 2.99,11.534 5.76,14.305 		"/>
		<polyline fill="none" stroke="#000000" stroke-linecap="round" stroke-linejoin="round" stroke-miterlimit="10" points="
			9.221,8.765 11.99,11.534 9.221,14.305 		"/>
		<g>
			
				<rect x="14.5" y="16.498" fill="none" stroke="#000000" stroke-linecap="round" stroke-linejoin="round" stroke-miterlimit="10" width="9" height="7"/>
			
				<line fill="none" stroke="#000000" stroke-linecap="round" stroke-linejoin="round" stroke-miterlimit="10" x1="19" y1="21.498" x2="19" y2="19.498"/>
			<path fill="none" stroke="#000000" stroke-linecap="round" stroke-linejoin="round" stroke-miterlimit="10" d="M16,16.498V15.5
				c0-1.658,1.344-3,3-3c1.656,0,3,1.342,3,3v0.998"/>
			
				<circle fill="none" stroke="#000000" stroke-linecap="round" stroke-linejoin="round" stroke-miterlimit="10" cx="19" cy="18.998" r="0.5"/>
		</g>
		<g>
			<polyline fill="none" stroke="#000000" stroke-linejoin="round" stroke-miterlimit="10" points="12.49,21.5 0.5,21.5 0.5,0.5 
				11.5,0.5 16.5,5.5 16.5,11 			"/>
			<polyline fill="none" stroke="#000000" stroke-linecap="round" stroke-linejoin="round" stroke-miterlimit="10" points="
				11.5,0.5 11.5,5.5 16.5,5.5 			"/>
		</g>
	</g>
</g>
</svg>
