<?xml version="1.0" encoding="utf-8"?>
<!-- Generator: Adobe Illustrator 19.2.0, SVG Export Plug-In . SVG Version: 6.00 Build 0)  -->
<svg version="1.1" id="Layer_1" xmlns="http://www.w3.org/2000/svg" xmlns:xlink="http://www.w3.org/1999/xlink" x="0px" y="0px"
	 viewBox="0 0 24 24" enable-background="new 0 0 24 24" xml:space="preserve">
<g id="Filled_Icons" display="none">
	<g display="inline">
		<g>
			<path d="M21,14.706L14.707,21c0.77,0.616,1.732,1,2.793,1c2.48,0,4.5-2.018,4.5-4.5C22,16.44,21.616,15.479,21,14.706z"/>
			<path d="M20.293,14c-0.77-0.615-1.733-1-2.793-1c-2.481,0-4.5,2.02-4.5,4.5c0,1.061,0.384,2.023,1,2.793L20.293,14z"/>
			<path d="M17.5,11c-3.584,0-6.5,2.915-6.5,6.5c0,3.584,2.916,6.5,6.5,6.5s6.5-2.916,6.5-6.5C24,13.915,21.084,11,17.5,11z
				 M17.5,23c-3.033,0-5.5-2.467-5.5-5.5c0-3.033,2.467-5.5,5.5-5.5c3.033,0,5.5,2.467,5.5,5.5C23,20.533,20.533,23,17.5,23z"/>
		</g>
		<path d="M10,17.5c0-3.967,3.098-7.215,7-7.474V5.5c0-0.133-0.053-0.26-0.147-0.354l-4.999-5C11.76,0.053,11.633,0,11.5,0h-11
			C0.225,0,0,0.224,0,0.5v21C0,21.775,0.225,22,0.5,22h11.014C10.568,20.745,10,19.19,10,17.5z M11.5,0.5l5,5h-5V0.5z M5.5,14.75
			c-0.083,0-0.167-0.021-0.242-0.062C5.099,14.6,5,14.432,5,14.25V7.5c0-0.182,0.099-0.349,0.258-0.438
			C5.417,6.975,5.61,6.98,5.765,7.076l5.4,3.375c0.146,0.091,0.235,0.251,0.235,0.424c0,0.173-0.089,0.333-0.235,0.424l-5.4,3.375
			C5.684,14.725,5.592,14.75,5.5,14.75z"/>
	</g>
</g>
<g id="Outline_Icons">
	<g>
		<g>
			<circle fill="none" stroke="#000000" stroke-linejoin="round" stroke-miterlimit="10" cx="17.5" cy="17.5" r="6"/>
			
				<line fill="none" stroke="#000000" stroke-linejoin="round" stroke-miterlimit="10" x1="13.26" y1="21.738" x2="21.742" y2="13.257"/>
		</g>
		<polygon fill="none" stroke="#000000" stroke-linecap="round" stroke-linejoin="round" stroke-miterlimit="10" points="5.49,7.5 
			10.891,10.875 5.49,14.25 		"/>
		<g>
			<polyline fill="none" stroke="#000000" stroke-linejoin="round" stroke-miterlimit="10" points="11,21.5 0.5,21.5 0.5,0.5 
				11.5,0.5 16.5,5.5 16.5,10 			"/>
			<polyline fill="none" stroke="#000000" stroke-linecap="round" stroke-linejoin="round" stroke-miterlimit="10" points="
				11.5,0.5 11.5,5.5 16.5,5.5 			"/>
		</g>
	</g>
</g>
</svg>
