<?xml version="1.0" encoding="utf-8"?>
<!-- Generator: Adobe Illustrator 19.2.0, SVG Export Plug-In . SVG Version: 6.00 Build 0)  -->
<svg version="1.1" id="Layer_1" xmlns="http://www.w3.org/2000/svg" xmlns:xlink="http://www.w3.org/1999/xlink" x="0px" y="0px"
	 viewBox="0 0 24 24" enable-background="new 0 0 24 24" xml:space="preserve">
<g id="Filled_Icons" display="none">
	<g display="inline">
		<path d="M10.477,16.07c0-2.84,2.147-4.535,4.224-4.535c0.746,0,1.564,0.236,2.3,0.759V5.499c0-0.132-0.054-0.259-0.146-0.353l-5-5
			C11.76,0.052,11.632-0.001,11.5-0.001h-11c-0.276,0-0.5,0.225-0.5,0.5v21c0,0.276,0.224,0.5,0.5,0.5L13.93,22
			C12.261,20.385,10.477,18.171,10.477,16.07z M11.5,0.499l5,5h-5V0.499z"/>
		<path d="M20.253,12.535c-0.95,0-2.069,0.49-2.776,1.783c-0.705-1.293-1.826-1.783-2.775-1.783c-1.585,0-3.224,1.322-3.224,3.535
			c0,3.184,5.473,7.199,5.707,7.369c0.086,0.063,0.19,0.096,0.293,0.096c0.104,0,0.207-0.032,0.295-0.096
			c0.232-0.17,5.705-4.186,5.705-7.369C23.477,13.857,21.838,12.535,20.253,12.535z"/>
	</g>
</g>
<g id="Outline_Icons">
	<g>
		<g>
			<g>
				<path fill="none" stroke="#000000" stroke-linejoin="round" stroke-miterlimit="10" d="M17.477,23.035c0,0,5.5-4,5.5-6.965
					c0-3.418-4.5-4.499-5.5-0.342c-1-4.158-5.5-3.076-5.5,0.342C11.977,19.035,17.477,23.035,17.477,23.035z"/>
			</g>
		</g>
		<g>
			<polyline fill="none" stroke="#000000" stroke-linejoin="round" stroke-miterlimit="10" points="12.48,21.5 0.5,21.5 0.5,0.5 
				11.5,0.5 16.5,5.5 16.5,11 			"/>
			<polyline fill="none" stroke="#000000" stroke-linecap="round" stroke-linejoin="round" stroke-miterlimit="10" points="
				11.5,0.5 11.5,5.5 16.5,5.5 			"/>
		</g>
	</g>
</g>
</svg>
