<?xml version="1.0" encoding="utf-8"?>
<!-- Generator: Adobe Illustrator 19.2.0, SVG Export Plug-In . SVG Version: 6.00 Build 0)  -->
<svg version="1.1" id="Layer_1" xmlns="http://www.w3.org/2000/svg" xmlns:xlink="http://www.w3.org/1999/xlink" x="0px" y="0px"
	 viewBox="0 0 24 24" enable-background="new 0 0 24 24" xml:space="preserve">
<g id="Filled_Icons" display="none">
	<g display="inline">
		<path d="M13.746,19.498l-2.213-1.846c-0.485-0.404-0.665-1.068-0.45-1.662c0.215-0.594,0.778-0.99,1.41-0.99h2.573l1.594-3.173
			c0.084-0.168,0.205-0.306,0.34-0.428V5.5c0-0.133-0.053-0.26-0.147-0.354l-4.999-5C11.76,0.053,11.633,0,11.5,0h-11
			C0.225,0,0,0.224,0,0.5v21C0,21.775,0.225,22,0.5,22h12.412L13.746,19.498z M11.5,0.5l5,5h-5V0.5z M9,13.5
			c0,0.025-0.011,0.049-0.015,0.075C8.987,13.611,9,13.648,9,13.688c0,1.227-1.317,2.186-3,2.186c-1.683,0-3-0.96-3-2.186
			C3,12.46,4.317,11.5,6,11.5c0.779,0,1.472,0.212,2,0.555V6.496c0-0.193,0.112-0.371,0.288-0.452
			C8.464,5.962,8.671,5.988,8.82,6.112l3,2.504c0.212,0.177,0.24,0.492,0.063,0.704c-0.177,0.213-0.492,0.24-0.704,0.064L9,7.564
			V13.5z"/>
		<path d="M23.963,16.33c-0.07-0.197-0.259-0.33-0.47-0.33h-3.191l-1.853-3.723C18.363,12.107,18.191,12,18.002,12h-0.001
			c-0.189,0-0.362,0.106-0.446,0.276L15.685,16h-3.191c-0.211,0-0.398,0.132-0.47,0.33c-0.072,0.199-0.012,0.42,0.149,0.555
			l2.738,2.281l-1.393,4.176c-0.066,0.204,0.002,0.428,0.174,0.559c0.172,0.129,0.406,0.136,0.584,0.013l3.718-2.552l3.717,2.552
			C21.796,23.971,21.894,24,21.993,24c0.106,0,0.212-0.034,0.301-0.102c0.172-0.129,0.241-0.354,0.174-0.558l-1.393-4.176
			l2.737-2.281C23.975,16.75,24.035,16.527,23.963,16.33z"/>
	</g>
</g>
<g id="Outline_Icons">
	<g>
		<polygon fill="none" stroke="#000000" stroke-linejoin="round" stroke-miterlimit="10" points="18.001,12.5 19.993,16.5 
			23.493,16.5 20.493,19 21.993,23.5 17.993,20.754 13.993,23.5 15.493,19 12.493,16.5 15.993,16.5 		"/>
		<g>
			<polyline fill="none" stroke="#000000" stroke-linejoin="round" stroke-miterlimit="10" points="12.493,21.5 0.5,21.5 0.5,0.5 
				11.5,0.5 16.5,5.5 16.5,11 			"/>
			<polyline fill="none" stroke="#000000" stroke-linecap="round" stroke-linejoin="round" stroke-miterlimit="10" points="
				11.5,0.5 11.5,5.5 16.5,5.5 			"/>
		</g>
		<g>
			
				<ellipse fill="none" stroke="#000000" stroke-linecap="round" stroke-linejoin="round" stroke-miterlimit="10" cx="5.993" cy="13.687" rx="2.5" ry="1.687"/>
			<polyline fill="none" stroke="#000000" stroke-linecap="round" stroke-linejoin="round" stroke-miterlimit="10" points="
				8.5,13.5 8.5,6.496 11.493,9 			"/>
		</g>
	</g>
</g>
</svg>
