<?xml version="1.0" encoding="utf-8"?>
<!-- Generator: Adobe Illustrator 19.2.0, SVG Export Plug-In . SVG Version: 6.00 Build 0)  -->
<svg version="1.1" id="Layer_1" xmlns="http://www.w3.org/2000/svg" xmlns:xlink="http://www.w3.org/1999/xlink" x="0px" y="0px"
	 viewBox="0 0 24 24" enable-background="new 0 0 24 24" xml:space="preserve">
<g id="Filled_Icons" display="none">
	<g display="inline">
		<path d="M23.842,23.147l-3.185-3.187c0.58-0.733,0.941-1.649,0.941-2.655c0-2.375-1.931-4.306-4.305-4.306
			c-2.374,0-4.307,1.933-4.307,4.306c0,2.373,1.933,4.305,4.307,4.305c1.007,0,1.921-0.361,2.654-0.942l3.187,3.187
			C23.232,23.951,23.359,24,23.488,24c0.128,0,0.256-0.049,0.354-0.146C24.037,23.658,24.037,23.341,23.842,23.147z M13.988,17.305
			c0-1.822,1.482-3.305,3.306-3.305c1.823,0,3.306,1.482,3.306,3.305c0,1.822-1.482,3.307-3.306,3.307
			C15.471,20.611,13.988,19.127,13.988,17.305z"/>
		<path d="M11.988,17.307c0-2.826,2.225-5.121,5.012-5.277V5.5c0-0.133-0.053-0.26-0.147-0.354l-4.999-5
			C11.76,0.053,11.633,0,11.5,0h-11C0.225,0,0,0.224,0,0.5v21C0,21.775,0.225,22,0.5,22h14.376
			C13.17,21.117,11.988,19.356,11.988,17.307z M11.165,11.299l-5.4,3.375C5.684,14.725,5.592,14.75,5.5,14.75
			c-0.083,0-0.167-0.021-0.242-0.062C5.099,14.6,5,14.432,5,14.25V7.5c0-0.182,0.099-0.349,0.258-0.438
			C5.417,6.975,5.61,6.98,5.765,7.076l5.4,3.375c0.146,0.091,0.235,0.251,0.235,0.424C11.4,11.048,11.312,11.208,11.165,11.299z
			 M11.5,0.5l5,5h-5V0.5z"/>
	</g>
</g>
<g id="Outline_Icons">
	<g>
		<g>
			<circle fill="none" stroke="#000000" stroke-linejoin="round" stroke-miterlimit="10" cx="17.305" cy="17.306" r="3.805"/>
			
				<line fill="none" stroke="#000000" stroke-linecap="round" stroke-linejoin="round" stroke-miterlimit="10" x1="20" y1="20" x2="23.5" y2="23.5"/>
		</g>
		<polygon fill="none" stroke="#000000" stroke-linecap="round" stroke-linejoin="round" stroke-miterlimit="10" points="5.488,7.5 
			10.889,10.875 5.488,14.25 		"/>
		<g>
			<polyline fill="none" stroke="#000000" stroke-linejoin="round" stroke-miterlimit="10" points="12.488,21.5 0.5,21.5 0.5,0.5 
				11.5,0.5 16.5,5.5 16.5,11 			"/>
			<polyline fill="none" stroke="#000000" stroke-linecap="round" stroke-linejoin="round" stroke-miterlimit="10" points="
				11.5,0.5 11.5,5.5 16.5,5.5 			"/>
		</g>
	</g>
</g>
</svg>
