<?xml version="1.0" encoding="utf-8"?>
<!-- Generator: Adobe Illustrator 19.2.0, SVG Export Plug-In . SVG Version: 6.00 Build 0)  -->
<svg version="1.1" id="Layer_1" xmlns="http://www.w3.org/2000/svg" xmlns:xlink="http://www.w3.org/1999/xlink" x="0px" y="0px"
	 viewBox="0 0 24 24" enable-background="new 0 0 24 24" xml:space="preserve">
<g id="Filled_Icons" display="none">
	<g display="inline">
		<path d="M23.266,19.018l-0.795-0.459c0.021-0.188,0.031-0.373,0.031-0.559c0-0.184-0.011-0.369-0.033-0.559l0.797-0.459
			c0.238-0.139,0.32-0.444,0.182-0.684l-1.5-2.598c-0.066-0.115-0.176-0.198-0.303-0.233c-0.127-0.035-0.266-0.016-0.381,0.051
			l-0.791,0.459c-0.291-0.211-0.615-0.398-0.957-0.553V12.5c0-0.276-0.225-0.5-0.5-0.5h-3c-0.277,0-0.5,0.224-0.5,0.5v0.925
			c-0.295,0.13-0.638,0.311-0.973,0.554l-0.803-0.461c-0.235-0.136-0.543-0.057-0.682,0.184l-1.501,2.598
			c-0.139,0.239-0.057,0.545,0.183,0.684l0.796,0.459c-0.022,0.191-0.034,0.377-0.034,0.56c0,0.185,0.012,0.368,0.033,0.558
			l-0.797,0.459c-0.115,0.066-0.198,0.176-0.233,0.305c-0.034,0.128-0.016,0.265,0.051,0.379l1.5,2.598
			c0.135,0.239,0.443,0.321,0.682,0.184l0.805-0.463c0.336,0.244,0.678,0.426,0.973,0.557V23.5c0,0.275,0.225,0.5,0.5,0.5h3
			c0.276,0,0.5-0.225,0.5-0.5v-0.926c0.344-0.153,0.668-0.34,0.959-0.553l0.793,0.459c0.115,0.066,0.254,0.086,0.381,0.051
			c0.129-0.034,0.238-0.118,0.305-0.233l1.498-2.599C23.587,19.461,23.505,19.154,23.266,19.018z M17.502,20.5
			c-1.379,0-2.5-1.122-2.5-2.5c0-1.378,1.121-2.5,2.5-2.5c1.379,0,2.5,1.122,2.5,2.5C20.002,19.378,18.881,20.5,17.502,20.5z"/>
		<path d="M10.689,20.201c-0.199-0.346-0.253-0.754-0.15-1.139c0.104-0.385,0.355-0.713,0.699-0.91L11.502,18l-0.262-0.15
			c-0.345-0.199-0.596-0.527-0.699-0.91c-0.103-0.385-0.049-0.795,0.15-1.139l1.501-2.599c0.414-0.718,1.333-0.961,2.046-0.55
			l0.275,0.158V12.5c0-0.829,0.672-1.5,1.5-1.5H17V5.5c0-0.133-0.053-0.26-0.147-0.354l-4.999-5C11.76,0.053,11.633,0,11.5,0h-11
			C0.225,0,0,0.224,0,0.5v21C0,21.775,0.225,22,0.5,22h11.228L10.689,20.201z M11.5,0.5l5,5h-5V0.5z M5.5,14.75
			c-0.083,0-0.167-0.021-0.242-0.062C5.099,14.6,5,14.432,5,14.25V7.5c0-0.182,0.099-0.349,0.258-0.438
			C5.417,6.975,5.61,6.98,5.765,7.076l5.4,3.375c0.146,0.091,0.235,0.251,0.235,0.424c0,0.173-0.089,0.333-0.235,0.424l-5.4,3.375
			C5.684,14.725,5.592,14.75,5.5,14.75z"/>
	</g>
</g>
<g id="Outline_Icons">
	<g>
		<g>
			<g>
				<g>
					<path fill="none" stroke="#000000" stroke-linejoin="round" stroke-miterlimit="10" d="M16,13.762
						c-0.5,0.188-1.014,0.467-1.43,0.82l-1.094-0.63l-1.502,2.599l1.091,0.629c-0.049,0.268-0.08,0.541-0.08,0.82
						c0,0.281,0.029,0.555,0.078,0.82l-1.091,0.631l1.5,2.599l1.098-0.631c0.416,0.354,0.93,0.634,1.43,0.819V23.5h3v-1.262
						c0.5-0.186,0.999-0.465,1.415-0.819l1.088,0.631l1.498-2.599L21.91,18.82c0.049-0.266,0.076-0.539,0.076-0.82
						c0-0.279-0.028-0.555-0.077-0.82L23,16.55l-1.5-2.599l-1.085,0.63C19.999,14.227,19.5,13.947,19,13.762V12.5h-3V13.762z"/>
				</g>
				<circle fill="none" stroke="#000000" stroke-linejoin="round" stroke-miterlimit="10" cx="17.486" cy="18" r="2"/>
			</g>
		</g>
		<polygon fill="none" stroke="#000000" stroke-linecap="round" stroke-linejoin="round" stroke-miterlimit="10" points="5.488,7.5 
			10.889,10.875 5.488,14.25 		"/>
		<g>
			<polyline fill="none" stroke="#000000" stroke-linejoin="round" stroke-miterlimit="10" points="11,21.5 0.5,21.5 0.5,0.5 
				11.5,0.5 16.5,5.5 16.488,11 			"/>
			<polyline fill="none" stroke="#000000" stroke-linecap="round" stroke-linejoin="round" stroke-miterlimit="10" points="
				11.5,0.5 11.5,5.5 16.5,5.5 			"/>
		</g>
	</g>
</g>
</svg>
