<?xml version="1.0" encoding="utf-8"?>
<!-- Generator: Adobe Illustrator 19.2.0, SVG Export Plug-In . SVG Version: 6.00 Build 0)  -->
<svg version="1.1" id="Layer_1" xmlns="http://www.w3.org/2000/svg" xmlns:xlink="http://www.w3.org/1999/xlink" x="0px" y="0px"
	 viewBox="0 0 24 24" enable-background="new 0 0 24 24" xml:space="preserve">
<g id="Filled_Icons" display="none">
	<g display="inline">
		<path d="M23.893,23.166l-5.945-11.89c-0.17-0.339-0.725-0.339-0.895,0l-5.999,12c-0.077,0.156-0.069,0.34,0.021,0.488
			C11.166,23.91,11.327,24,11.5,24h12c0.007,0,0.016,0,0.019,0c0.276,0,0.5-0.225,0.5-0.5
			C24.019,23.371,23.973,23.254,23.893,23.166z M17.5,22c-0.275,0-0.5-0.225-0.5-0.5c0-0.275,0.225-0.5,0.5-0.5
			c0.275,0,0.5,0.225,0.5,0.5C18,21.775,17.775,22,17.5,22z M18,19.682c0,0.275-0.225,0.5-0.5,0.5c-0.275,0-0.5-0.225-0.5-0.5
			v-3.272c0-0.275,0.225-0.5,0.5-0.5c0.275,0,0.5,0.225,0.5,0.5V19.682z"/>
		<path d="M16.174,10.829c0.174-0.347,0.475-0.597,0.826-0.726V5.5c0-0.133-0.053-0.26-0.147-0.354l-4.999-5
			C11.76,0.053,11.633,0,11.5,0h-11C0.225,0,0,0.224,0,0.5v21C0,21.775,0.225,22,0.5,22h10.088L16.174,10.829z M11.5,0.5l5,5h-5V0.5
			z M3,17.5v-10C3,7.224,3.224,7,3.5,7C3.776,7,4,7.224,4,7.5v4.793l1.896-1.896c0.195-0.195,0.512-0.195,0.707,0l1.646,1.646
			l2.896-2.896c0.195-0.195,0.512-0.195,0.707,0c0.195,0.195,0.195,0.512,0,0.707l-3.25,3.25c-0.195,0.195-0.512,0.195-0.707,0
			L6.25,11.457L4,13.707V17h7c0.276,0,0.5,0.225,0.5,0.5c0,0.275-0.224,0.5-0.5,0.5H3.5C3.224,18,3,17.775,3,17.5z"/>
	</g>
</g>
<g id="Outline_Icons">
	<g>
		<g>
			<polygon fill="none" stroke="#000000" stroke-linecap="round" stroke-linejoin="round" stroke-miterlimit="10" points="
				23.5,23.5 11.5,23.5 17.5,11.5 			"/>
			
				<line fill="none" stroke="#000000" stroke-linecap="round" stroke-linejoin="round" stroke-miterlimit="10" x1="17.5" y1="16.408" x2="17.5" y2="19.682"/>
			<g>
				<path d="M17.5,21c-0.275,0-0.5,0.225-0.5,0.5c0,0.275,0.225,0.5,0.5,0.5c0.275,0,0.5-0.225,0.5-0.5C18,21.225,17.775,21,17.5,21
					L17.5,21z"/>
			</g>
		</g>
		<g>
			<polyline fill="none" stroke="#000000" stroke-linejoin="round" stroke-miterlimit="10" points="11,21.5 0.5,21.5 0.5,0.5 
				11.5,0.5 16.5,5.5 16.5,10 			"/>
			<polyline fill="none" stroke="#000000" stroke-linecap="round" stroke-linejoin="round" stroke-miterlimit="10" points="
				11.5,0.5 11.5,5.5 16.5,5.5 			"/>
		</g>
		<g>
			<polyline fill="none" stroke="#000000" stroke-linecap="round" stroke-linejoin="round" stroke-miterlimit="10" points="3.5,7.5 
				3.5,17.5 9.5,17.5 			"/>
			<polyline fill="none" stroke="#000000" stroke-linecap="round" stroke-linejoin="round" stroke-miterlimit="10" points="
				3.5,13.5 6.25,10.75 8.25,12.75 11.5,9.5 			"/>
		</g>
	</g>
</g>
</svg>
