<?xml version="1.0" encoding="utf-8"?>
<!-- Generator: Adobe Illustrator 19.2.0, SVG Export Plug-In . SVG Version: 6.00 Build 0)  -->
<svg version="1.1" id="Layer_1" xmlns="http://www.w3.org/2000/svg" xmlns:xlink="http://www.w3.org/1999/xlink" x="0px" y="0px"
	 viewBox="0 0 24 24" enable-background="new 0 0 24 24" xml:space="preserve">
<g id="Filled_Icons" display="none">
	<g display="inline">
		<path d="M11.932,19.41c-0.202-0.881-0.146-1.834,0.21-2.824c0.754-2.1,2.803-4.21,4.217-4.345c0.221-0.02,0.437,0.023,0.641,0.096
			V5.5c0-0.133-0.053-0.26-0.147-0.354l-4.999-5C11.76,0.053,11.632,0,11.5,0h-11C0.224,0,0,0.224,0,0.5v21
			C0,21.775,0.224,22,0.5,22h8.884L11.932,19.41z M11.5,0.5l5,5h-5V0.5z"/>
		<path d="M23.814,11.08c-0.11-0.122-0.275-0.18-0.437-0.157c-0.106,0.014-2.611,0.37-4.919,1.383
			c-0.172,0.075-0.288,0.241-0.298,0.428c-0.001,0.021-0.114,1.746-1.159,2.172v-1.172c0-0.141-0.06-0.274-0.164-0.369
			c-0.104-0.096-0.246-0.141-0.384-0.129c-0.924,0.089-2.725,1.893-3.371,3.688c-0.363,1.011-0.365,1.948-0.025,2.776l-1.679,1.678
			c-0.586,0.585-0.586,1.536,0,2.121c0.586,0.587,1.535,0.587,2.121,0l1.933-1.932c0.069,0.004,0.135,0.017,0.207,0.017
			c1.357,0,2.961-0.855,4.516-2.408c2.595-2.596,3.732-7.441,3.779-7.647C23.971,11.369,23.926,11.201,23.814,11.08z M18.667,16.918
			l-5.875,5.874c-0.196,0.196-0.512,0.194-0.707,0c-0.195-0.194-0.195-0.511,0-0.707l5.875-5.875c0.194-0.194,0.513-0.194,0.707,0
			C18.861,16.404,18.861,16.723,18.667,16.918z"/>
	</g>
</g>
<g id="Outline_Icons">
	<g>
		<polyline fill="none" stroke="#000000" stroke-linejoin="round" stroke-miterlimit="10" points="10.5,21.5 0.5,21.5 0.5,0.5 
			11.5,0.5 16.5,5.5 16.5,11 		"/>
		<polyline fill="none" stroke="#000000" stroke-linecap="round" stroke-linejoin="round" stroke-miterlimit="10" points="11.5,0.5 
			11.5,5.5 16.5,5.5 		"/>
		
			<line fill="none" stroke="#000000" stroke-linecap="round" stroke-linejoin="round" stroke-miterlimit="10" x1="11.354" y1="23.522" x2="18.312" y2="16.565"/>
		<path fill="none" stroke="#000000" stroke-linecap="round" stroke-linejoin="round" stroke-miterlimit="10" d="M16.501,13.734
			c-0.983,0.094-4.965,4.136-2.28,6.818c0.938,0.938,3.057,0.791,5.579-1.732c2.522-2.522,3.646-7.403,3.646-7.403
			s-2.516,0.35-4.786,1.347c0,0-0.158,2.736-2.158,2.736C16.501,14.859,16.501,13.734,16.501,13.734z"/>
	</g>
</g>
</svg>
