<?xml version="1.0" encoding="utf-8"?>
<!-- Generator: Adobe Illustrator 19.2.0, SVG Export Plug-In . SVG Version: 6.00 Build 0)  -->
<svg version="1.1" id="Layer_1" xmlns="http://www.w3.org/2000/svg" xmlns:xlink="http://www.w3.org/1999/xlink" x="0px" y="0px"
	 viewBox="0 0 24 24" enable-background="new 0 0 24 24" xml:space="preserve">
<g id="Filled_Icons" display="none">
	<g display="inline">
		<path d="M17.5,11c-3.584,0-6.5,2.915-6.5,6.5c0,3.584,2.916,6.5,6.5,6.5s6.5-2.916,6.5-6.5C24,13.915,21.084,11,17.5,11z
			 M13.035,16.014c0.635-1.793,2.34-2.998,4.242-2.998c1.336,0,2.619,0.594,3.5,1.514v-0.567c0-0.276,0.224-0.5,0.5-0.5
			c0.275,0,0.5,0.224,0.5,0.5v2.222c0,0.274-0.225,0.5-0.5,0.5h-2.223c-0.275,0-0.5-0.226-0.5-0.5c0-0.277,0.225-0.5,0.5-0.5h1.379
			c-0.654-0.992-1.873-1.666-3.156-1.666c-1.479,0-2.807,0.938-3.301,2.332c-0.072,0.205-0.267,0.334-0.472,0.334
			c-0.056,0-0.11-0.011-0.167-0.029C13.078,16.561,12.941,16.273,13.035,16.014z M21.965,18.986
			c-0.635,1.793-2.34,2.998-4.242,2.998c-1.336,0-2.619-0.592-3.5-1.512v0.566c0,0.275-0.223,0.5-0.5,0.5
			c-0.275,0-0.5-0.225-0.5-0.5v-2.223c0-0.276,0.225-0.5,0.5-0.5h2.223c0.277,0,0.5,0.224,0.5,0.5c0,0.275-0.223,0.5-0.5,0.5h-1.379
			c0.654,0.992,1.873,1.666,3.156,1.666c1.479,0,2.807-0.938,3.301-2.332c0.093-0.262,0.379-0.398,0.639-0.305
			C21.922,18.44,22.059,18.727,21.965,18.986z"/>
		<path d="M10.025,18H3.5C3.224,18,3,17.775,3,17.5v-10C3,7.224,3.224,7,3.5,7C3.776,7,4,7.224,4,7.5v4.793l1.896-1.896
			c0.195-0.195,0.512-0.195,0.707,0l1.646,1.646l2.896-2.896c0.195-0.195,0.512-0.195,0.707,0c0.195,0.195,0.195,0.512,0,0.707
			l-3.25,3.25c-0.195,0.195-0.512,0.195-0.707,0L6.25,11.457L4,13.707V17h6.025c0.248-3.736,3.239-6.727,6.975-6.975V5.5
			c0-0.133-0.053-0.26-0.147-0.354l-4.999-5C11.76,0.053,11.633,0,11.5,0h-11C0.225,0,0,0.224,0,0.5v21C0,21.775,0.225,22,0.5,22
			h11.014C10.663,20.87,10.125,19.496,10.025,18z M11.5,0.5l5,5h-5V0.5z"/>
	</g>
</g>
<g id="Outline_Icons">
	<g>
		<g>
			<polyline fill="none" stroke="#000000" stroke-linecap="round" stroke-linejoin="round" stroke-miterlimit="10" points="
				22.251,14.051 22.251,16.551 19.751,16.551 			"/>
			<path fill="none" stroke="#000000" stroke-linecap="round" stroke-linejoin="round" stroke-miterlimit="10" d="M13.507,16.55
				c0.618-1.747,2.285-2.999,4.244-2.999s3.84,1.232,4.458,2.979"/>
			<g>
				<polyline fill="none" stroke="#000000" stroke-linecap="round" stroke-linejoin="round" stroke-miterlimit="10" points="
					13.75,22.018 13.75,19.518 16.25,19.518 				"/>
				<path fill="none" stroke="#000000" stroke-linecap="round" stroke-linejoin="round" stroke-miterlimit="10" d="M22.494,19.518
					c-0.618,1.748-2.285,3-4.244,3s-3.84-1.231-4.458-2.979"/>
			</g>
		</g>
		<g>
			<polyline fill="none" stroke="#000000" stroke-linejoin="round" stroke-miterlimit="10" points="11,21.5 0.5,21.5 0.5,0.5 
				11.5,0.5 16.5,5.5 16.5,11 			"/>
			<polyline fill="none" stroke="#000000" stroke-linecap="round" stroke-linejoin="round" stroke-miterlimit="10" points="
				11.5,0.5 11.5,5.5 16.5,5.5 			"/>
		</g>
		<g>
			<polyline fill="none" stroke="#000000" stroke-linecap="round" stroke-linejoin="round" stroke-miterlimit="10" points="3.5,7.5 
				3.5,17.5 9.5,17.5 			"/>
			<polyline fill="none" stroke="#000000" stroke-linecap="round" stroke-linejoin="round" stroke-miterlimit="10" points="
				3.5,13.5 6.25,10.75 8.25,12.75 11.5,9.5 			"/>
		</g>
	</g>
</g>
</svg>
