<?xml version="1.0" encoding="utf-8"?>
<!-- Generator: Adobe Illustrator 19.2.0, SVG Export Plug-In . SVG Version: 6.00 Build 0)  -->
<svg version="1.1" id="Outline_Icons" xmlns="http://www.w3.org/2000/svg" xmlns:xlink="http://www.w3.org/1999/xlink" x="0px"
	 y="0px" viewBox="0 0 24 24" enable-background="new 0 0 24 24" xml:space="preserve">
<g>
	
		<line fill="none" stroke="#000000" stroke-linecap="round" stroke-linejoin="round" stroke-miterlimit="10" x1="4.489" y1="18.472" x2="4.489" y2="13.5"/>
	<path fill="none" stroke="#000000" stroke-linecap="round" stroke-linejoin="round" stroke-miterlimit="10" d="M14.713,15.935
		c0,1.463-0.218,2.649-1.466,2.649s-1.466-1.187-1.466-2.649c0-1.464,0.218-2.435,1.466-2.435S14.713,14.471,14.713,15.935z"/>
	<path fill="none" stroke="#000000" stroke-linecap="round" stroke-linejoin="round" stroke-miterlimit="10" d="M7.073,17.344
		c0.041,0.692,0.58,1.241,1.24,1.241c0.685,0,1.24-0.594,1.24-1.326c0-1.08-1.022-1.262-1.238-1.324
		c-0.217-0.063-1.242-0.246-1.242-1.325c0-0.732,0.557-1.109,1.242-1.109c0.658,0,1.197,0.332,1.238,1.024"/>
	<g>
		<g>
			<g>
				<polygon fill="none" stroke="#000000" stroke-linecap="round" stroke-linejoin="round" stroke-miterlimit="10" points="
					19.5,23.5 0.5,23.5 0.5,0.5 13.5,0.5 19.5,6.5 				"/>
				<polyline fill="none" stroke="#000000" stroke-linecap="round" stroke-linejoin="round" stroke-miterlimit="10" points="
					13.5,0.5 13.5,6.5 19.5,6.5 				"/>
			</g>
		</g>
	</g>
</g>
</svg>
