<?xml version="1.0" encoding="utf-8"?>
<!-- Generator: Adobe Illustrator 19.2.0, SVG Export Plug-In . SVG Version: 6.00 Build 0)  -->
<svg version="1.1" id="Layer_1" xmlns="http://www.w3.org/2000/svg" xmlns:xlink="http://www.w3.org/1999/xlink" x="0px" y="0px"
	 viewBox="0 0 24 24" enable-background="new 0 0 24 24" xml:space="preserve">
<g id="Filled_Icons" display="none">
	<g display="inline">
		<path d="M17,10.526V5.5c0-0.133-0.053-0.26-0.147-0.354l-4.999-5C11.76,0.053,11.633,0,11.5,0h-11C0.224,0,0,0.224,0,0.5v21
			C0,21.775,0.224,22,0.5,22h10.667C10.432,20.841,10,19.471,10,18C10,14.033,13.098,10.784,17,10.526z M11.5,0.5l5,5h-5V0.5z"/>
		<path d="M17.5,11.5c-3.584,0-6.5,2.916-6.5,6.5c0,1.611,0.593,3.086,1.568,4.223l9.156-9.154C20.587,12.094,19.113,11.5,17.5,11.5
			z"/>
		<path d="M22.432,13.775l-9.156,9.154c1.139,0.977,2.611,1.569,4.225,1.569c3.584,0,6.5-2.916,6.5-6.5
			C24,16.389,23.407,14.914,22.432,13.775z"/>
	</g>
</g>
<g id="Outline_Icons">
	<g>
		<polyline fill="none" stroke="#000000" stroke-linejoin="round" stroke-miterlimit="10" points="10,21.5 0.5,21.5 0.5,0.5 
			11.5,0.5 16.5,5.502 16.5,9.5 		"/>
		<polyline fill="none" stroke="#000000" stroke-linecap="round" stroke-linejoin="round" stroke-miterlimit="10" points="11.5,0.5 
			11.5,5.5 16.5,5.5 		"/>
		<circle fill="none" stroke="#000000" stroke-linejoin="round" stroke-miterlimit="10" cx="17.5" cy="17.5" r="6"/>
		
			<line fill="none" stroke="#000000" stroke-linejoin="round" stroke-miterlimit="10" x1="13.271" y1="21.729" x2="21.727" y2="13.273"/>
	</g>
</g>
</svg>
