<?xml version="1.0" encoding="utf-8"?>
<!-- Generator: Adobe Illustrator 19.2.0, SVG Export Plug-In . SVG Version: 6.00 Build 0)  -->
<svg version="1.1" id="Layer_1" xmlns="http://www.w3.org/2000/svg" xmlns:xlink="http://www.w3.org/1999/xlink" x="0px" y="0px"
	 viewBox="0 0 24 24" enable-background="new 0 0 24 24" xml:space="preserve">
<g id="Filled_Icons" display="none">
	<g display="inline">
		<path d="M10,17.5c0-3.967,3.098-7.215,7-7.474V5.5c0-0.133-0.053-0.26-0.147-0.354l-4.999-5C11.76,0.053,11.633,0,11.5,0h-11
			C0.225,0,0,0.224,0,0.5v21C0,21.775,0.225,22,0.5,22h11.014C10.568,20.745,10,19.19,10,17.5z M11.5,0.5l5,5h-5V0.5z M9,13.5
			c0,0.025-0.011,0.049-0.015,0.075C8.987,13.611,9,13.648,9,13.688c0,1.227-1.317,2.186-3,2.186c-1.683,0-3-0.96-3-2.186
			C3,12.46,4.317,11.5,6,11.5c0.779,0,1.472,0.212,2,0.555V6.496c0-0.193,0.112-0.371,0.288-0.452
			C8.464,5.962,8.671,5.988,8.82,6.112l3,2.504c0.212,0.177,0.24,0.492,0.063,0.704c-0.177,0.213-0.492,0.24-0.704,0.064L9,7.564
			V13.5z"/>
		<path d="M17.48,11c-3.584,0-6.499,2.916-6.499,6.5S13.896,24,17.48,24s6.5-2.916,6.5-6.5S21.064,11,17.48,11z M17.48,16.928
			c1.043,0,1.892,0.85,1.892,1.893c0,0.867-0.593,1.594-1.392,1.815v0.504c0,0.275-0.224,0.5-0.5,0.5c-0.275,0-0.5-0.225-0.5-0.5
			v-0.504c-0.799-0.221-1.391-0.947-1.391-1.815c0-0.276,0.225-0.5,0.5-0.5c0.276,0,0.5,0.224,0.5,0.5
			c0,0.49,0.399,0.891,0.891,0.891c0.492,0,0.892-0.398,0.892-0.891c0-0.492-0.399-0.893-0.892-0.893
			c-1.043,0-1.891-0.848-1.891-1.89c0-0.869,0.592-1.595,1.391-1.815v-0.504c0-0.275,0.225-0.5,0.5-0.5c0.276,0,0.5,0.225,0.5,0.5
			v0.504c0.799,0.221,1.392,0.946,1.392,1.815c0,0.276-0.224,0.5-0.5,0.5c-0.276,0-0.5-0.224-0.5-0.5
			c0-0.492-0.399-0.892-0.892-0.892c-0.492,0-0.891,0.399-0.891,0.892C16.591,16.527,16.99,16.928,17.48,16.928z"/>
	</g>
</g>
<g id="Outline_Icons">
	<g>
		<g>
			<circle fill="none" stroke="#000000" stroke-linejoin="round" stroke-miterlimit="10" cx="17.481" cy="17.5" r="6"/>
			<g>
				<path fill="none" stroke="#000000" stroke-linecap="round" stroke-linejoin="round" stroke-miterlimit="10" d="M16.091,18.818
					c0,0.77,0.623,1.392,1.392,1.392c0.768,0,1.391-0.622,1.391-1.392c0-0.766-0.623-1.391-1.391-1.391
					c-0.768,0-1.392-0.623-1.392-1.391c0-0.768,0.623-1.393,1.392-1.393c0.768,0,1.391,0.625,1.391,1.393"/>
				
					<line fill="none" stroke="#000000" stroke-linecap="round" stroke-linejoin="round" stroke-miterlimit="10" x1="17.48" y1="20.21" x2="17.48" y2="21.137"/>
				
					<line fill="none" stroke="#000000" stroke-linecap="round" stroke-linejoin="round" stroke-miterlimit="10" x1="17.48" y1="13.719" x2="17.48" y2="14.647"/>
			</g>
		</g>
		<g>
			<polyline fill="none" stroke="#000000" stroke-linejoin="round" stroke-miterlimit="10" points="11,21.5 0.5,21.5 0.5,0.5 
				11.5,0.5 16.5,5.5 16.5,10 			"/>
			<polyline fill="none" stroke="#000000" stroke-linecap="round" stroke-linejoin="round" stroke-miterlimit="10" points="
				11.5,0.5 11.5,5.5 16.5,5.5 			"/>
		</g>
		<g>
			
				<ellipse fill="none" stroke="#000000" stroke-linecap="round" stroke-linejoin="round" stroke-miterlimit="10" cx="5.981" cy="13.687" rx="2.5" ry="1.687"/>
			<polyline fill="none" stroke="#000000" stroke-linecap="round" stroke-linejoin="round" stroke-miterlimit="10" points="
				8.5,13.5 8.513,6.496 11.481,9 			"/>
		</g>
	</g>
</g>
</svg>
