<?xml version="1.0" encoding="utf-8"?>
<!-- Generator: Adobe Illustrator 19.2.0, SVG Export Plug-In . SVG Version: 6.00 Build 0)  -->
<svg version="1.1" id="Layer_1" xmlns="http://www.w3.org/2000/svg" xmlns:xlink="http://www.w3.org/1999/xlink" x="0px" y="0px"
	 viewBox="0 0 24 24" enable-background="new 0 0 24 24" xml:space="preserve">
<g id="Filled_Icons" display="none">
	<g display="inline">
		<path d="M17.5,11c-3.584,0-6.5,2.915-6.5,6.5c0,3.584,2.916,6.5,6.5,6.5s6.5-2.916,6.5-6.5C24,13.915,21.084,11,17.5,11z
			 M22.05,14.404l-0.565,2.218c-0.057,0.241-0.36,0.444-0.607,0.36l-2.217-0.564c-0.268-0.066-0.43-0.34-0.361-0.607
			c0.068-0.268,0.34-0.431,0.608-0.36l1.202,0.306c-0.317-0.509-0.748-0.938-1.287-1.234c-0.832-0.455-1.79-0.562-2.697-0.295
			c-0.911,0.265-1.663,0.869-2.119,1.698c-0.457,0.831-0.562,1.789-0.297,2.697c0.266,0.913,0.869,1.663,1.699,2.12
			c0.832,0.455,1.789,0.561,2.699,0.295c0.266-0.08,0.543,0.074,0.621,0.34c0.076,0.266-0.076,0.544-0.342,0.619
			c-0.421,0.124-0.851,0.184-1.277,0.184c-0.754,0-1.502-0.189-2.182-0.562c-1.064-0.584-1.84-1.549-2.179-2.715
			c-0.34-1.166-0.205-2.396,0.379-3.461c0.585-1.064,1.55-1.838,2.716-2.178c1.165-0.34,2.393-0.205,3.459,0.379
			c0.635,0.349,1.149,0.844,1.547,1.424l0.232-0.912c0.067-0.268,0.34-0.428,0.606-0.36C21.956,13.865,22.118,14.137,22.05,14.404z"
			/>
		<path d="M10,17.5c0-3.967,3.098-7.215,7-7.474V5.5c0-0.133-0.053-0.26-0.147-0.354l-4.999-5C11.76,0.053,11.633,0,11.5,0h-11
			C0.225,0,0,0.224,0,0.5v21C0,21.775,0.225,22,0.5,22h11.014C10.568,20.745,10,19.19,10,17.5z M11.5,0.5l5,5h-5V0.5z M5.5,14.75
			c-0.083,0-0.167-0.021-0.242-0.062C5.099,14.6,5,14.432,5,14.25V7.5c0-0.182,0.099-0.349,0.258-0.438
			C5.417,6.975,5.61,6.98,5.765,7.076l5.4,3.375c0.146,0.091,0.235,0.251,0.235,0.424c0,0.173-0.089,0.333-0.235,0.424l-5.4,3.375
			C5.684,14.725,5.592,14.75,5.5,14.75z"/>
	</g>
</g>
<g id="Outline_Icons">
	<g>
		<g>
			<g>
				<path fill="none" stroke="#000000" stroke-linecap="round" stroke-linejoin="round" stroke-miterlimit="10" d="M18.394,23.299
					c-2.65,0.774-5.427-0.751-6.2-3.402c-0.771-2.65,0.753-5.426,3.405-6.199c2.648-0.771,5.424,0.753,6.196,3.402"/>
				<polyline fill="none" stroke="#000000" stroke-linecap="round" stroke-linejoin="round" stroke-miterlimit="10" points="
					22.493,14.359 21.796,17.1 19.057,16.402 				"/>
			</g>
		</g>
		<polygon fill="none" stroke="#000000" stroke-linecap="round" stroke-linejoin="round" stroke-miterlimit="10" points="5.493,7.5 
			10.894,10.875 5.493,14.25 		"/>
		<g>
			<polyline fill="none" stroke="#000000" stroke-linejoin="round" stroke-miterlimit="10" points="11,21.5 0.5,21.5 0.5,0.5 
				11.5,0.5 16.5,5.5 16.493,11.001 			"/>
			<polyline fill="none" stroke="#000000" stroke-linecap="round" stroke-linejoin="round" stroke-miterlimit="10" points="
				11.5,0.5 11.5,5.5 16.5,5.5 			"/>
		</g>
	</g>
</g>
</svg>
