<?xml version="1.0" encoding="utf-8"?>
<!-- Generator: Adobe Illustrator 19.2.0, SVG Export Plug-In . SVG Version: 6.00 Build 0)  -->
<svg version="1.1" id="Layer_1" xmlns="http://www.w3.org/2000/svg" xmlns:xlink="http://www.w3.org/1999/xlink" x="0px" y="0px"
	 viewBox="0 0 24 24" enable-background="new 0 0 24 24" xml:space="preserve">
<g id="Filled_Icons" display="none">
	<g display="inline">
		<path d="M17.498,11c-3.584,0-6.5,2.916-6.5,6.5s2.916,6.5,6.5,6.5c3.584,0,6.5-2.916,6.5-6.5S21.082,11,17.498,11z M20.551,19.846
			c0.195,0.194,0.195,0.512,0,0.707c-0.098,0.098-0.226,0.145-0.354,0.145c-0.129,0-0.256-0.049-0.354-0.145l-2.347-2.348
			l-2.348,2.348c-0.098,0.098-0.225,0.145-0.353,0.145c-0.128,0-0.256-0.049-0.354-0.145c-0.195-0.195-0.195-0.513,0-0.707
			l2.347-2.348l-2.347-2.346c-0.195-0.196-0.195-0.512,0-0.709c0.195-0.195,0.512-0.194,0.707,0l2.347,2.348l2.347-2.348
			c0.195-0.194,0.512-0.194,0.707,0c0.195,0.195,0.195,0.513,0,0.709l-2.347,2.346L20.551,19.846z"/>
		<path d="M10,17.5c0-3.967,3.098-7.215,7-7.474V5.5c0-0.133-0.053-0.26-0.147-0.354l-4.999-5C11.76,0.053,11.633,0,11.5,0h-11
			C0.225,0,0,0.224,0,0.5v21C0,21.775,0.225,22,0.5,22h11.014C10.568,20.745,10,19.19,10,17.5z M11.5,0.5l5,5h-5V0.5z M5.5,14.75
			c-0.083,0-0.167-0.021-0.242-0.062C5.099,14.6,5,14.432,5,14.25V7.5c0-0.182,0.099-0.349,0.258-0.438
			C5.417,6.975,5.61,6.98,5.765,7.076l5.4,3.375c0.146,0.091,0.235,0.251,0.235,0.424c0,0.173-0.089,0.333-0.235,0.424l-5.4,3.375
			C5.684,14.725,5.592,14.75,5.5,14.75z"/>
	</g>
</g>
<g id="Outline_Icons">
	<g>
		<g>
			<circle fill="none" stroke="#000000" stroke-linejoin="round" stroke-miterlimit="10" cx="17.5" cy="17.5" r="6"/>
			
				<line fill="none" stroke="#000000" stroke-linecap="round" stroke-linejoin="round" stroke-miterlimit="10" x1="14.799" y1="20.201" x2="20.199" y2="14.8"/>
			
				<line fill="none" stroke="#000000" stroke-linecap="round" stroke-linejoin="round" stroke-miterlimit="10" x1="20.199" y1="20.201" x2="14.799" y2="14.8"/>
		</g>
		<polygon fill="none" stroke="#000000" stroke-linecap="round" stroke-linejoin="round" stroke-miterlimit="10" points="5.498,7.5 
			10.898,10.875 5.498,14.25 		"/>
		<g>
			<polyline fill="none" stroke="#000000" stroke-linejoin="round" stroke-miterlimit="10" points="11,21.5 0.5,21.5 0.5,0.5 
				11.5,0.5 16.5,5.5 16.5,10 			"/>
			<polyline fill="none" stroke="#000000" stroke-linecap="round" stroke-linejoin="round" stroke-miterlimit="10" points="
				11.5,0.5 11.5,5.5 16.5,5.5 			"/>
		</g>
	</g>
</g>
</svg>
