<?xml version="1.0" encoding="utf-8"?>
<!-- Generator: Adobe Illustrator 19.2.0, SVG Export Plug-In . SVG Version: 6.00 Build 0)  -->
<svg version="1.1" id="Layer_1" xmlns="http://www.w3.org/2000/svg" xmlns:xlink="http://www.w3.org/1999/xlink" x="0px" y="0px"
	 viewBox="0 0 24 24" enable-background="new 0 0 24 24" xml:space="preserve">
<g id="Filled_Icons" display="none">
	<g display="inline">
		<path d="M16.158,10.863c0.176-0.352,0.482-0.604,0.842-0.732V5.5c0-0.133-0.053-0.26-0.147-0.354l-4.999-5
			C11.76,0.053,11.633,0,11.5,0h-11C0.225,0,0,0.224,0,0.5v21C0,21.775,0.225,22,0.5,22h10.09L16.158,10.863z M11.5,0.5l5,5h-5V0.5z
			 M5.416,13.416c0.195,0.195,0.195,0.512,0,0.707C5.318,14.221,5.19,14.27,5.063,14.27c-0.127,0-0.256-0.049-0.354-0.146
			l-2.77-2.77c-0.195-0.195-0.195-0.512,0-0.707l2.77-2.77c0.195-0.195,0.512-0.195,0.707,0c0.195,0.195,0.195,0.512,0,0.707L3,11
			L5.416,13.416z M8.171,14.123c-0.195-0.195-0.195-0.512,0-0.707L10.586,11L8.171,8.584c-0.195-0.195-0.195-0.512,0-0.707
			c0.195-0.195,0.512-0.195,0.707,0l2.769,2.77c0.195,0.195,0.195,0.512,0,0.707l-2.769,2.77C8.78,14.221,8.652,14.27,8.524,14.27
			C8.396,14.27,8.269,14.221,8.171,14.123z"/>
		<path d="M23.893,23.166l-5.945-11.89c-0.17-0.339-0.725-0.339-0.895,0l-5.999,12c-0.077,0.156-0.069,0.34,0.021,0.488
			C11.166,23.91,11.327,24,11.5,24h12c0.007,0,0.016,0,0.019,0c0.276,0,0.5-0.225,0.5-0.5
			C24.019,23.371,23.973,23.254,23.893,23.166z M17.5,22c-0.275,0-0.5-0.225-0.5-0.5c0-0.275,0.225-0.5,0.5-0.5
			c0.275,0,0.5,0.225,0.5,0.5C18,21.775,17.775,22,17.5,22z M18,19.682c0,0.275-0.225,0.5-0.5,0.5c-0.275,0-0.5-0.225-0.5-0.5
			v-3.272c0-0.276,0.225-0.5,0.5-0.5c0.275,0,0.5,0.224,0.5,0.5V19.682z"/>
	</g>
</g>
<g id="Outline_Icons">
	<g>
		<polyline fill="none" stroke="#000000" stroke-linecap="round" stroke-linejoin="round" stroke-miterlimit="10" points="
			5.77,8.765 3,11.534 5.77,14.305 		"/>
		<polyline fill="none" stroke="#000000" stroke-linecap="round" stroke-linejoin="round" stroke-miterlimit="10" points="
			9.231,8.765 12,11.534 9.231,14.305 		"/>
		<g>
			<polygon fill="none" stroke="#000000" stroke-linecap="round" stroke-linejoin="round" stroke-miterlimit="10" points="
				23.5,23.5 11.5,23.5 17.5,11.5 			"/>
			
				<line fill="none" stroke="#000000" stroke-linecap="round" stroke-linejoin="round" stroke-miterlimit="10" x1="17.5" y1="16.409" x2="17.5" y2="19.682"/>
			<g>
				<path d="M17.5,21c-0.275,0-0.5,0.225-0.5,0.5c0,0.275,0.225,0.5,0.5,0.5c0.277,0,0.5-0.225,0.5-0.5C18,21.225,17.777,21,17.5,21
					L17.5,21z"/>
			</g>
		</g>
		<g>
			<polyline fill="none" stroke="#000000" stroke-linejoin="round" stroke-miterlimit="10" points="11,21.5 0.5,21.5 0.5,0.5 
				11.5,0.5 16.5,5.5 16.5,10 			"/>
			<polyline fill="none" stroke="#000000" stroke-linecap="round" stroke-linejoin="round" stroke-miterlimit="10" points="
				11.5,0.5 11.5,5.5 16.5,5.5 			"/>
		</g>
	</g>
</g>
</svg>
