<?xml version="1.0" encoding="utf-8"?>
<!-- Generator: Adobe Illustrator 19.2.0, SVG Export Plug-In . SVG Version: 6.00 Build 0)  -->
<svg version="1.1" id="Layer_1" xmlns="http://www.w3.org/2000/svg" xmlns:xlink="http://www.w3.org/1999/xlink" x="0px" y="0px"
	 viewBox="0 0 24 24" enable-background="new 0 0 24 24" xml:space="preserve">
<g id="Filled_Icons" display="none">
	<g display="inline">
		<path d="M10.135,14.049c0.439-0.24,0.887-0.453,1.339-0.643c-0.445-0.279-0.875-0.586-1.286-0.917
			C10.2,13.023,10.182,13.545,10.135,14.049z"/>
		<path d="M6.896,17.924c-0.132,0.162-0.17,0.303-0.116,0.417c0.122,0.257,0.595,0.315,0.83-0.005
			c0.458-0.627,0.818-1.344,1.079-2.137C7.734,16.949,7.144,17.619,6.896,17.924z"/>
		<path d="M8.122,7.429c-0.106,0-0.269,0.087-0.359,0.25C7.67,7.842,7.682,8.021,7.796,8.209c0.336,0.554,0.702,1.075,1.093,1.562
			C8.673,8.672,8.406,7.894,8.304,7.619C8.234,7.429,8.152,7.429,8.122,7.429z"/>
		<path d="M16.682,13.434c-0.85-0.033-1.674,0.032-2.504,0.193c1.049,0.389,1.984,0.568,2.657,0.652l0.069,0.004
			c0.267,0,0.3-0.238,0.302-0.342C17.208,13.859,17.189,13.454,16.682,13.434z"/>
		<path d="M21.853,6.146l-6-6C15.76,0.053,15.632,0,15.5,0h-13C2.224,0,2,0.224,2,0.5v23C2,23.775,2.224,24,2.5,24h19
			c0.275,0,0.5-0.225,0.5-0.5v-17C22,6.367,21.947,6.24,21.853,6.146z M16.713,15.272c-0.982-0.121-2.477-0.434-4.096-1.23
			c-0.913,0.312-1.808,0.737-2.664,1.271c-0.277,1.379-0.792,2.594-1.535,3.613c-0.299,0.409-0.746,0.644-1.226,0.644
			c-0.559,0-1.087-0.321-1.315-0.799c-0.225-0.473-0.137-1.01,0.242-1.479c0.348-0.428,1.313-1.514,2.926-2.586
			c0.156-0.978,0.188-2.041,0.092-3.162c-0.819-0.818-1.558-1.766-2.196-2.816C6.639,8.23,6.62,7.668,6.891,7.188
			c0.259-0.46,0.743-0.759,1.231-0.759c0.507,0,0.926,0.315,1.121,0.843c0.15,0.408,0.646,1.861,0.855,3.812
			c0.79,0.745,1.665,1.376,2.606,1.88c1.319-0.401,2.651-0.582,4.015-0.527c0.994,0.037,1.5,0.797,1.486,1.526
			C18.189,14.792,17.559,15.378,16.713,15.272z M15.5,6.5v-6l6,6H15.5z"/>
	</g>
</g>
<g id="Outline_Icons">
	<g>
		<g>
			<polygon fill="none" stroke="#000000" stroke-linecap="round" stroke-linejoin="round" stroke-miterlimit="10" points="
				21.5,23.5 2.5,23.5 2.5,0.5 15.5,0.5 21.5,6.5 			"/>
			<polyline fill="none" stroke="#000000" stroke-linecap="round" stroke-linejoin="round" stroke-miterlimit="10" points="
				15.5,0.5 15.5,6.5 21.5,6.5 			"/>
		</g>
		<path fill="none" stroke="#000000" stroke-linecap="round" stroke-linejoin="round" stroke-miterlimit="10" d="M7.369,8.469
			C6.673,7.322,8.338,6.266,8.773,7.445c0.745,2.017,1.943,7.476-0.76,11.186c-0.754,1.033-2.381,0.055-1.506-1.021
			c1.364-1.68,5.164-4.869,10.192-4.674c1.363,0.053,1.294,1.989,0.072,1.84C14.795,14.531,10.402,13.461,7.369,8.469z"/>
	</g>
</g>
</svg>
