<?xml version="1.0" encoding="utf-8"?>
<!-- Generator: Adobe Illustrator 19.2.0, SVG Export Plug-In . SVG Version: 6.00 Build 0)  -->
<svg version="1.1" id="Outline_Icons" xmlns="http://www.w3.org/2000/svg" xmlns:xlink="http://www.w3.org/1999/xlink" x="0px"
	 y="0px" viewBox="0 0 24 24" enable-background="new 0 0 24 24" xml:space="preserve">
<g>
	<path fill="none" stroke="#000000" stroke-linecap="round" stroke-linejoin="round" stroke-miterlimit="10" d="M18.001,14.557
		c-0.168-0.746-0.547-1.057-1.359-1.057c-1.258,0-1.477,1.003-1.477,2.466c0,1.465,0.219,2.65,1.477,2.65
		c1.048,0,1.375-0.823,1.455-1.945h-1.443"/>
	<polyline fill="none" stroke="#000000" stroke-linecap="round" stroke-linejoin="round" stroke-miterlimit="10" points="
		8.5,18.503 8.5,13.5 7,15.909 5.5,13.5 5.5,18.503 	"/>
	<path fill="none" stroke="#000000" stroke-linecap="round" stroke-linejoin="round" stroke-miterlimit="10" d="M10.5,18.503V13.5
		h2.014c1.055,0,1.238,0.396,1.238,1.112c0,0.717-0.184,1.297-1.238,1.888H10.5"/>
	<g>
		<g>
			<polygon fill="none" stroke="#000000" stroke-linecap="round" stroke-linejoin="round" stroke-miterlimit="10" points="
				21.5,23.5 2.5,23.5 2.5,0.5 15.5,0.5 21.5,6.5 			"/>
			<polyline fill="none" stroke="#000000" stroke-linecap="round" stroke-linejoin="round" stroke-miterlimit="10" points="
				15.5,0.5 15.5,6.5 21.5,6.5 			"/>
		</g>
	</g>
</g>
</svg>
