<?xml version="1.0" encoding="utf-8"?>
<!-- Generator: Adobe Illustrator 19.2.0, SVG Export Plug-In . SVG Version: 6.00 Build 0)  -->
<svg version="1.1" id="Layer_1" xmlns="http://www.w3.org/2000/svg" xmlns:xlink="http://www.w3.org/1999/xlink" x="0px" y="0px"
	 viewBox="0 0 24 24" enable-background="new 0 0 24 24" xml:space="preserve">
<g id="Filled_Icons" display="none">
	<g display="inline">
		<path d="M17.5,11c-3.584,0-6.5,2.915-6.5,6.5c0,3.584,2.916,6.5,6.5,6.5s6.5-2.916,6.5-6.5C24,13.915,21.084,11,17.5,11z
			 M22.05,14.404l-0.565,2.219c-0.062,0.272-0.395,0.434-0.607,0.361l-2.217-0.566c-0.268-0.067-0.43-0.34-0.361-0.608
			c0.068-0.266,0.34-0.43,0.608-0.358l1.202,0.306c-0.317-0.509-0.748-0.938-1.287-1.234c-0.832-0.455-1.79-0.561-2.697-0.295
			c-0.911,0.265-1.663,0.869-2.119,1.699c-0.457,0.83-0.562,1.788-0.297,2.696c0.266,0.912,0.869,1.663,1.699,2.12
			c0.832,0.456,1.789,0.561,2.699,0.296c0.266-0.08,0.543,0.073,0.621,0.34c0.076,0.265-0.076,0.544-0.342,0.619
			c-0.421,0.123-0.851,0.185-1.277,0.185c-0.754,0-1.502-0.189-2.182-0.563c-1.064-0.584-1.84-1.55-2.179-2.716
			c-0.34-1.164-0.205-2.394,0.379-3.459c0.585-1.065,1.55-1.838,2.716-2.178c1.165-0.34,2.393-0.207,3.459,0.379
			c0.635,0.349,1.149,0.844,1.547,1.424l0.232-0.912c0.067-0.268,0.34-0.43,0.606-0.36C21.955,13.867,22.118,14.137,22.05,14.404z"
			/>
		<path d="M10.025,18H3.5C3.224,18,3,17.775,3,17.5v-10C3,7.224,3.224,7,3.5,7C3.776,7,4,7.224,4,7.5v4.793l1.896-1.896
			c0.195-0.195,0.512-0.195,0.707,0l1.646,1.646l2.896-2.896c0.195-0.195,0.512-0.195,0.707,0c0.195,0.195,0.195,0.512,0,0.707
			l-3.25,3.25c-0.195,0.195-0.512,0.195-0.707,0L6.25,11.457L4,13.707V17h6.025c0.248-3.736,3.239-6.727,6.975-6.975V5.5
			c0-0.133-0.053-0.26-0.147-0.354l-4.999-5C11.76,0.053,11.633,0,11.5,0h-11C0.225,0,0,0.224,0,0.5v21C0,21.775,0.225,22,0.5,22
			h11.014C10.663,20.87,10.125,19.496,10.025,18z M11.5,0.5l5,5h-5V0.5z"/>
	</g>
</g>
<g id="Outline_Icons">
	<g>
		<g>
			<g>
				<path fill="none" stroke="#000000" stroke-linecap="round" stroke-linejoin="round" stroke-miterlimit="10" d="M18.4,23.299
					c-2.65,0.774-5.426-0.75-6.199-3.402c-0.771-2.649,0.752-5.426,3.404-6.196c2.647-0.773,5.424,0.75,6.197,3.399"/>
				<polyline fill="none" stroke="#000000" stroke-linecap="round" stroke-linejoin="round" stroke-miterlimit="10" points="
					22.5,14.359 21.803,17.1 19.062,16.402 				"/>
			</g>
		</g>
		<g>
			<polyline fill="none" stroke="#000000" stroke-linejoin="round" stroke-miterlimit="10" points="11,21.5 0.5,21.5 0.5,0.5 
				11.5,0.5 16.5,5.5 16.493,11 			"/>
			<polyline fill="none" stroke="#000000" stroke-linecap="round" stroke-linejoin="round" stroke-miterlimit="10" points="
				11.5,0.5 11.5,5.5 16.5,5.5 			"/>
		</g>
		<g>
			<polyline fill="none" stroke="#000000" stroke-linecap="round" stroke-linejoin="round" stroke-miterlimit="10" points="3.5,7.5 
				3.5,17.5 9.5,17.5 			"/>
			<polyline fill="none" stroke="#000000" stroke-linecap="round" stroke-linejoin="round" stroke-miterlimit="10" points="
				3.5,13.5 6.25,10.75 8.25,12.75 11.5,9.5 			"/>
		</g>
	</g>
</g>
</svg>
