<?xml version="1.0" encoding="utf-8"?>
<!-- Generator: Adobe Illustrator 19.2.0, SVG Export Plug-In . SVG Version: 6.00 Build 0)  -->
<svg version="1.1" id="Layer_1" xmlns="http://www.w3.org/2000/svg" xmlns:xlink="http://www.w3.org/1999/xlink" x="0px" y="0px"
	 viewBox="0 0 24 24" enable-background="new 0 0 24 24" xml:space="preserve">
<g id="Filled_Icons" display="none">
	<g display="inline">
		<path d="M19.853,6.146l-6-6C13.76,0.053,13.633,0,13.5,0h-13C0.225,0,0,0.224,0,0.5v23C0,23.775,0.225,24,0.5,24h19
			c0.275,0,0.5-0.225,0.5-0.5v-17C20,6.367,19.947,6.24,19.853,6.146z M15.493,18.37c0,1.708-2.839,2.63-5.511,2.63
			c-2.654,0-5.476-0.909-5.476-2.596v-2.277c1.171,0.895,3.23,1.518,5.476,1.518c2.261,0,4.334-0.625,5.511-1.522V18.37z
			 M15.493,14.522c-0.037,0.74-2.171,2.123-5.511,2.123c-3.318,0-5.438-1.383-5.476-2.123v-2.926C4.507,9.909,7.328,9,9.982,9
			c2.739,0,5.511,0.88,5.511,2.562V14.522z M13.5,6.5v-6l6,6H13.5z"/>
		<path d="M9.982,10c-2.732,0-4.476,0.944-4.476,1.595c0,0.651,1.744,1.594,4.476,1.594c2.754,0,4.511-0.964,4.511-1.629
			C14.493,10.925,12.736,10,9.982,10z"/>
	</g>
</g>
<g id="Outline_Icons">
	<g>
		<g>
			<path fill="none" stroke="#000000" stroke-linecap="round" stroke-linejoin="round" stroke-miterlimit="10" d="M14.993,11.562
				c0,1.157-2.263,2.129-5.011,2.129c-2.747,0-4.976-0.938-4.976-2.096c0-1.156,2.229-2.095,4.976-2.095
				C12.73,9.5,14.993,10.403,14.993,11.562z"/>
			<path fill="none" stroke="#000000" stroke-linecap="round" stroke-linejoin="round" stroke-miterlimit="10" d="M14.993,15.014
				c0,1.157-2.263,2.131-5.011,2.131c-2.748,0-4.976-0.939-4.976-2.097"/>
			<path fill="none" stroke="#000000" stroke-linecap="round" stroke-linejoin="round" stroke-miterlimit="10" d="M5.007,11.595
				v6.811c0,1.156,2.228,2.095,4.976,2.095c2.748,0,5.011-0.974,5.011-2.13v-6.809"/>
		</g>
		<g>
			<polygon fill="none" stroke="#000000" stroke-linecap="round" stroke-linejoin="round" stroke-miterlimit="10" points="
				19.5,23.5 0.5,23.5 0.5,0.5 13.5,0.5 19.5,6.5 			"/>
			<polyline fill="none" stroke="#000000" stroke-linecap="round" stroke-linejoin="round" stroke-miterlimit="10" points="
				13.5,0.5 13.5,6.5 19.5,6.5 			"/>
		</g>
	</g>
</g>
</svg>
