<?xml version="1.0" encoding="utf-8"?>
<!-- Generator: Adobe Illustrator 19.2.0, SVG Export Plug-In . SVG Version: 6.00 Build 0)  -->
<svg version="1.1" id="Layer_1" xmlns="http://www.w3.org/2000/svg" xmlns:xlink="http://www.w3.org/1999/xlink" x="0px" y="0px"
	 viewBox="0 0 24 24" enable-background="new 0 0 24 24" xml:space="preserve">
<g id="Filled_Icons" display="none">
	<g display="inline">
		<path d="M23.963,16.329C23.893,16.131,23.704,16,23.493,16h-3.191l-1.853-3.724C18.363,12.107,18.191,12,18.002,12h-0.001
			c-0.189,0-0.362,0.105-0.446,0.275L15.685,16h-3.191c-0.211,0-0.398,0.131-0.47,0.329c-0.072,0.198-0.012,0.42,0.149,0.556
			l2.738,2.279l-1.393,4.178c-0.066,0.204,0.002,0.428,0.174,0.557c0.172,0.131,0.406,0.136,0.584,0.015l3.718-2.552l3.717,2.552
			C21.796,23.971,21.894,24,21.993,24c0.106,0,0.212-0.034,0.301-0.102c0.172-0.129,0.241-0.354,0.174-0.558l-1.393-4.178
			l2.737-2.278C23.975,16.749,24.035,16.527,23.963,16.329z"/>
		<path d="M13.753,19.497l-2.213-1.845c-0.022-0.021-0.036-0.045-0.058-0.065C11.44,17.82,11.245,18,11,18H3.5
			C3.224,18,3,17.775,3,17.5v-10C3,7.224,3.224,7,3.5,7C3.776,7,4,7.224,4,7.5v4.793l1.896-1.896c0.195-0.195,0.512-0.195,0.707,0
			l1.646,1.646l2.896-2.896c0.195-0.195,0.512-0.195,0.707,0c0.195,0.195,0.195,0.512,0,0.707l-3.25,3.25
			c-0.195,0.195-0.512,0.195-0.707,0L6.25,11.457L4,13.707V17h7c0.039,0,0.073,0.014,0.109,0.022
			c-0.122-0.326-0.144-0.689-0.02-1.033C11.305,15.397,11.868,15,12.5,15h2.574l1.593-3.173c0.083-0.165,0.201-0.302,0.333-0.423
			V5.5c0-0.133-0.053-0.26-0.147-0.354l-4.999-5C11.76,0.053,11.633,0,11.5,0h-11C0.225,0,0,0.224,0,0.5v21
			C0,21.775,0.225,22,0.5,22h12.419L13.753,19.497z M11.5,0.5l5,5h-5V0.5z"/>
	</g>
</g>
<g id="Outline_Icons">
	<g>
		<g>
			<polygon fill="none" stroke="#000000" stroke-linejoin="round" stroke-miterlimit="10" points="18.008,12.5 20,16.5 23.5,16.5 
				20.5,19 22,23.5 18,20.755 14,23.501 15.5,19 12.5,16.5 16,16.5 			"/>
		</g>
		<g>
			<polyline fill="none" stroke="#000000" stroke-linejoin="round" stroke-miterlimit="10" points="12.493,21.5 0.5,21.5 0.5,0.5 
				11.5,0.5 16.5,5.5 16.5,11 			"/>
			<polyline fill="none" stroke="#000000" stroke-linecap="round" stroke-linejoin="round" stroke-miterlimit="10" points="
				11.5,0.5 11.5,5.5 16.5,5.5 			"/>
		</g>
		<g>
			<polyline fill="none" stroke="#000000" stroke-linecap="round" stroke-linejoin="round" stroke-miterlimit="10" points="
				3.493,7.5 3.493,17.5 9.493,17.5 			"/>
			<polyline fill="none" stroke="#000000" stroke-linecap="round" stroke-linejoin="round" stroke-miterlimit="10" points="
				3.493,13.5 6.243,10.75 8.243,12.75 11.493,9.5 			"/>
		</g>
	</g>
</g>
</svg>
