<?xml version="1.0" encoding="utf-8"?>
<!-- Generator: Adobe Illustrator 19.2.0, SVG Export Plug-In . SVG Version: 6.00 Build 0)  -->
<svg version="1.1" id="Layer_1" xmlns="http://www.w3.org/2000/svg" xmlns:xlink="http://www.w3.org/1999/xlink" x="0px" y="0px"
	 viewBox="0 0 24 24" enable-background="new 0 0 24 24" xml:space="preserve">
<g id="Filled_Icons" display="none">
	<g display="inline">
		<g>
			<rect x="6" y="7" width="1" height="1"/>
			<rect x="4" y="12" width="1" height="1"/>
			<rect x="8" y="17" width="1" height="1"/>
			<path d="M11.988,17.34c0-2.824,2.226-5.119,5.012-5.276V5.5c0-0.133-0.053-0.26-0.147-0.354l-4.999-5
				C11.76,0.053,11.633,0,11.5,0h-11C0.225,0,0,0.224,0,0.5v21C0,21.775,0.225,22,0.5,22h14.312
				C13.141,21.106,11.988,19.363,11.988,17.34z M5,6.5C5,6.224,5.224,6,5.5,6h2C7.776,6,8,6.224,8,6.5v2C8,8.776,7.776,9,7.5,9h-2
				C5.224,9,5,8.776,5,8.5V6.5z M8,11.5v2C8,13.775,7.776,14,7.5,14C7.224,14,7,13.775,7,13.5v-2C7,11.224,7.224,11,7.5,11
				C7.776,11,8,11.224,8,11.5z M3,6.5C3,6.224,3.224,6,3.5,6C3.776,6,4,6.224,4,6.5v2C4,8.776,3.776,9,3.5,9C3.224,9,3,8.776,3,8.5
				V6.5z M4,18.5C4,18.775,3.776,19,3.5,19C3.224,19,3,18.775,3,18.5v-2C3,16.225,3.224,16,3.5,16C3.776,16,4,16.225,4,16.5V18.5z
				 M6,18.5C6,18.775,5.776,19,5.5,19C5.224,19,5,18.775,5,18.5v-2C5,16.225,5.224,16,5.5,16C5.776,16,6,16.225,6,16.5V18.5z
				 M6,13.5C6,13.775,5.776,14,5.5,14h-2C3.224,14,3,13.775,3,13.5v-2C3,11.224,3.224,11,3.5,11h2C5.776,11,6,11.224,6,11.5V13.5z
				 M10,18.5c0,0.275-0.224,0.5-0.5,0.5h-2C7.224,19,7,18.775,7,18.5v-2C7,16.225,7.224,16,7.5,16h2c0.276,0,0.5,0.225,0.5,0.5V18.5
				z M10,13.5c0,0.275-0.224,0.5-0.5,0.5C9.224,14,9,13.775,9,13.5v-2C9,11.224,9.224,11,9.5,11c0.276,0,0.5,0.224,0.5,0.5V13.5z
				 M10,8.5C10,8.776,9.776,9,9.5,9C9.224,9,9,8.776,9,8.5v-2C9,6.224,9.224,6,9.5,6C9.776,6,10,6.224,10,6.5V8.5z M11.5,0.5l5,5h-5
				V0.5z"/>
		</g>
		<path d="M23.842,23.147l-3.185-3.186c0.58-0.734,0.941-1.648,0.941-2.656c0-2.373-1.931-4.305-4.305-4.305
			c-2.374,0-4.307,1.932-4.307,4.305c0,2.375,1.933,4.307,4.307,4.307c1.007,0,1.921-0.362,2.654-0.942l3.187,3.185
			C23.232,23.951,23.359,24,23.488,24c0.128,0,0.256-0.049,0.354-0.146C24.037,23.658,24.037,23.342,23.842,23.147z M13.988,17.305
			c0-1.822,1.482-3.305,3.306-3.305c1.823,0,3.306,1.482,3.306,3.305c0,1.823-1.482,3.307-3.306,3.307
			C15.471,20.611,13.988,19.127,13.988,17.305z"/>
	</g>
</g>
<g id="Outline_Icons">
	<g>
		
			<line fill="none" stroke="#000000" stroke-linecap="round" stroke-linejoin="round" stroke-miterlimit="10" x1="3.5" y1="6.5" x2="3.5" y2="8.5"/>
		
			<line fill="none" stroke="#000000" stroke-linecap="round" stroke-linejoin="round" stroke-miterlimit="10" x1="9.5" y1="6.5" x2="9.5" y2="8.5"/>
		
			<line fill="none" stroke="#000000" stroke-linecap="round" stroke-linejoin="round" stroke-miterlimit="10" x1="7.5" y1="11.5" x2="7.5" y2="13.5"/>
		
			<line fill="none" stroke="#000000" stroke-linecap="round" stroke-linejoin="round" stroke-miterlimit="10" x1="9.5" y1="11.5" x2="9.5" y2="13.5"/>
		
			<rect x="5.5" y="6.5" fill="none" stroke="#000000" stroke-linecap="round" stroke-linejoin="round" stroke-miterlimit="10" width="2" height="2"/>
		
			<rect x="3.5" y="11.5" fill="none" stroke="#000000" stroke-linecap="round" stroke-linejoin="round" stroke-miterlimit="10" width="2" height="2"/>
		
			<rect x="7.5" y="16.5" fill="none" stroke="#000000" stroke-linecap="round" stroke-linejoin="round" stroke-miterlimit="10" width="2" height="2"/>
		
			<line fill="none" stroke="#000000" stroke-linecap="round" stroke-linejoin="round" stroke-miterlimit="10" x1="3.5" y1="16.5" x2="3.5" y2="18.5"/>
		
			<line fill="none" stroke="#000000" stroke-linecap="round" stroke-linejoin="round" stroke-miterlimit="10" x1="5.5" y1="16.5" x2="5.5" y2="18.5"/>
		<g>
			<circle fill="none" stroke="#000000" stroke-linejoin="round" stroke-miterlimit="10" cx="17.306" cy="17.306" r="3.806"/>
			
				<line fill="none" stroke="#000000" stroke-linecap="round" stroke-linejoin="round" stroke-miterlimit="10" x1="20" y1="20" x2="23.5" y2="23.5"/>
		</g>
		<g>
			<polyline fill="none" stroke="#000000" stroke-linejoin="round" stroke-miterlimit="10" points="12.488,21.5 0.5,21.5 0.5,0.5 
				11.5,0.5 16.5,5.5 16.5,11 			"/>
			<polyline fill="none" stroke="#000000" stroke-linecap="round" stroke-linejoin="round" stroke-miterlimit="10" points="
				11.5,0.5 11.5,5.5 16.5,5.5 			"/>
		</g>
	</g>
</g>
</svg>
