<?xml version="1.0" encoding="utf-8"?>
<!-- Generator: Adobe Illustrator 19.2.0, SVG Export Plug-In . SVG Version: 6.00 Build 0)  -->
<svg version="1.1" id="Outline_Icons" xmlns="http://www.w3.org/2000/svg" xmlns:xlink="http://www.w3.org/1999/xlink" x="0px"
	 y="0px" viewBox="0 0 24 24" enable-background="new 0 0 24 24" xml:space="preserve">
<g>
	<g>
		<path fill="none" stroke="#000000" stroke-linecap="round" stroke-linejoin="round" stroke-miterlimit="10" d="M12.019,15.878
			h1.24c1.057,0,1.24,0.58,1.24,1.297c0,0.716-0.184,1.297-1.24,1.297h-1.771V13.5h1.771c1.057,0,1.24,0.364,1.24,1.081
			s-0.184,1.297-1.24,1.297H12.019z"/>
		<g>
			<path fill="none" stroke="#000000" stroke-linecap="round" stroke-linejoin="round" stroke-miterlimit="10" d="M6.551,18.472
				V13.5h1.24c1.057,0,1.24,0.364,1.24,1.081s-0.184,1.297-1.24,1.297h-1.24"/>
			
				<line fill="none" stroke="#000000" stroke-linecap="round" stroke-linejoin="round" stroke-miterlimit="10" x1="7.791" y1="15.878" x2="9.031" y2="18.472"/>
		</g>
	</g>
	<g>
		<g>
			<polygon fill="none" stroke="#000000" stroke-linecap="round" stroke-linejoin="round" stroke-miterlimit="10" points="
				19.5,23.5 0.5,23.5 0.5,0.5 13.5,0.5 19.5,6.5 			"/>
			<polyline fill="none" stroke="#000000" stroke-linecap="round" stroke-linejoin="round" stroke-miterlimit="10" points="
				13.5,0.5 13.5,6.5 19.5,6.5 			"/>
		</g>
	</g>
</g>
</svg>
