<?xml version="1.0" encoding="utf-8"?>
<!-- Generator: Adobe Illustrator 19.2.0, SVG Export Plug-In . SVG Version: 6.00 Build 0)  -->
<svg version="1.1" id="Layer_1" xmlns="http://www.w3.org/2000/svg" xmlns:xlink="http://www.w3.org/1999/xlink" x="0px" y="0px"
	 viewBox="0 0 24 24" enable-background="new 0 0 24 24" xml:space="preserve">
<g id="Filled_Icons" display="none">
	<g display="inline">
		<polygon points="16.998,15.795 16.998,15.794 13.497,19.294 16.705,22.501 20.462,18.744 21.5,17.706 18.293,14.499 		"/>
		<path d="M12.254,19.124l4.744-4.743V5.5c0-0.133-0.053-0.26-0.146-0.354l-5-5C11.757,0.053,11.63,0,11.498,0h-11
			c-0.276,0-0.5,0.224-0.5,0.5v21c0,0.275,0.224,0.5,0.5,0.5h10.869l0.76-2.66C12.149,19.258,12.194,19.184,12.254,19.124z
			 M11.498,0.5l5,5h-5V0.5z"/>
		<path d="M23.853,14.647l-2.5-2.501c-0.194-0.195-0.512-0.195-0.707,0L19,13.792l3.207,3.207l1.646-1.645
			C23.947,15.262,24,15.133,24,15C24,14.867,23.947,14.74,23.853,14.647z"/>
		<path d="M12.406,22L12.406,22l-0.39,1.365c-0.05,0.173-0.001,0.361,0.127,0.49c0.095,0.097,0.223,0.145,0.354,0.145
			c0.045,0,0.091-0.006,0.136-0.019l3.219-0.92l-2.916-2.916L12.406,22z"/>
	</g>
</g>
<g id="Outline_Icons">
	<g>
		<polyline fill="none" stroke="#000000" stroke-linejoin="round" stroke-miterlimit="10" points="9.5,21.5 0.5,21.5 0.5,0.5 
			11.5,0.5 16.5,5.5 16.5,13 		"/>
		<polyline fill="none" stroke="#000000" stroke-linecap="round" stroke-linejoin="round" stroke-miterlimit="10" points="11.5,0.5 
			11.5,5.5 16.5,5.5 		"/>
		<polygon fill="none" stroke="#000000" stroke-linecap="round" stroke-linejoin="round" stroke-miterlimit="10" points="16,22.502 
			12.5,23.502 13.5,20.002 21.001,12.5 23.501,15 		"/>
		<line fill="none" stroke="#000000" stroke-linejoin="round" stroke-miterlimit="10" x1="19.001" y1="14.5" x2="21.501" y2="17"/>
		
			<line fill="none" stroke="#000000" stroke-linecap="round" stroke-linejoin="round" stroke-miterlimit="10" x1="13.5" y1="20.002" x2="16" y2="22.502"/>
	</g>
</g>
</svg>
