<?xml version="1.0" encoding="utf-8"?>
<!-- Generator: Adobe Illustrator 19.2.0, SVG Export Plug-In . SVG Version: 6.00 Build 0)  -->
<svg version="1.1" id="Layer_1" xmlns="http://www.w3.org/2000/svg" xmlns:xlink="http://www.w3.org/1999/xlink" x="0px" y="0px"
	 viewBox="0 0 24 24" enable-background="new 0 0 24 24" xml:space="preserve">
<g id="Filled_Icons" display="none">
	<g display="inline">
		<path d="M19.853,6.146l-6-6C13.76,0.053,13.632,0,13.5,0h-11C2.224,0,2,0.224,2,0.5v23C2,23.775,2.224,24,2.5,24h17
			c0.275,0,0.5-0.225,0.5-0.5v-17C20,6.367,19.947,6.24,19.853,6.146z M6,7h5c0.276,0,0.5,0.224,0.5,0.5C11.5,7.776,11.276,8,11,8H6
			C5.724,8,5.5,7.776,5.5,7.5C5.5,7.224,5.724,7,6,7z M6,10h9c0.275,0,0.5,0.224,0.5,0.5c0,0.276-0.225,0.5-0.5,0.5H6
			c-0.276,0-0.5-0.224-0.5-0.5C5.5,10.224,5.724,10,6,10z M8,20H6c-0.276,0-0.5-0.225-0.5-0.5C5.5,19.225,5.724,19,6,19h2
			c0.276,0,0.5,0.225,0.5,0.5C8.5,19.775,8.276,20,8,20z M8,17H6c-0.276,0-0.5-0.225-0.5-0.5C5.5,16.225,5.724,16,6,16h2
			c0.276,0,0.5,0.225,0.5,0.5C8.5,16.775,8.276,17,8,17z M8,14H6c-0.276,0-0.5-0.225-0.5-0.5C5.5,13.225,5.724,13,6,13h2
			c0.276,0,0.5,0.225,0.5,0.5C8.5,13.775,8.276,14,8,14z M13.5,20c-1.93,0-3.5-1.57-3.5-3.5c0-1.93,1.57-3.5,3.5-3.5
			c1.93,0,3.5,1.57,3.5,3.5C17,18.43,15.43,20,13.5,20z M13.5,6.5v-6l6,6H13.5z"/>
		<path d="M13.5,14v2.5l-1.852,1.664C12.106,18.674,12.764,19,13.5,19c1.378,0,2.5-1.121,2.5-2.5C16,15.121,14.878,14,13.5,14z"/>
	</g>
</g>
<g id="Outline_Icons">
	<g>
		<g>
			<polygon fill="none" stroke="#000000" stroke-linecap="round" stroke-linejoin="round" stroke-miterlimit="10" points="
				19.5,23.5 2.5,23.5 2.5,0.5 13.5,0.5 19.5,6.5 			"/>
			<polyline fill="none" stroke="#000000" stroke-linecap="round" stroke-linejoin="round" stroke-miterlimit="10" points="
				13.5,0.5 13.5,6.5 19.5,6.5 			"/>
			
				<line fill="none" stroke="#000000" stroke-linecap="round" stroke-linejoin="round" stroke-miterlimit="10" x1="6" y1="7.5" x2="11" y2="7.5"/>
			
				<line fill="none" stroke="#000000" stroke-linecap="round" stroke-linejoin="round" stroke-miterlimit="10" x1="6" y1="10.5" x2="15" y2="10.5"/>
			
				<line fill="none" stroke="#000000" stroke-linecap="round" stroke-linejoin="round" stroke-miterlimit="10" x1="6" y1="13.5" x2="8" y2="13.5"/>
			
				<line fill="none" stroke="#000000" stroke-linecap="round" stroke-linejoin="round" stroke-miterlimit="10" x1="6" y1="16.5" x2="8" y2="16.5"/>
			
				<line fill="none" stroke="#000000" stroke-linecap="round" stroke-linejoin="round" stroke-miterlimit="10" x1="6" y1="19.5" x2="8" y2="19.5"/>
		</g>
		
			<circle fill="none" stroke="#000000" stroke-linecap="round" stroke-linejoin="round" stroke-miterlimit="10" cx="13.5" cy="16.5" r="3"/>
		<polyline fill="none" stroke="#000000" stroke-linecap="round" stroke-linejoin="round" stroke-miterlimit="10" points="
			13.5,13.5 13.5,16.5 11.295,18.482 		"/>
	</g>
</g>
</svg>
