<?xml version="1.0" encoding="utf-8"?>
<!-- Generator: Adobe Illustrator 19.2.0, SVG Export Plug-In . SVG Version: 6.00 Build 0)  -->
<svg version="1.1" id="Layer_1" xmlns="http://www.w3.org/2000/svg" xmlns:xlink="http://www.w3.org/1999/xlink" x="0px" y="0px"
	 viewBox="0 0 24 24" enable-background="new 0 0 24 24" xml:space="preserve">
<g id="Filled_Icons" display="none">
	<g display="inline">
		<path d="M22,9H2c-1.103,0-2,0.896-2,2v2c0,1.104,0.897,2,2,2h3.969v5c0,0.551-0.448,1-1,1c-0.276,0-0.5,0.225-0.5,0.5
			c0,0.275,0.224,0.5,0.5,0.5c1.103,0,2-0.896,2-2v-5h2v8.5c0,0.275,0.224,0.5,0.5,0.5c0.276,0,0.5-0.225,0.5-0.5V15h2v8.5
			c0,0.275,0.224,0.5,0.5,0.5c0.276,0,0.5-0.225,0.5-0.5V15h2v8.5c0,0.275,0.225,0.5,0.5,0.5c0.276,0,0.5-0.225,0.5-0.5V15h2v5
			c0,1.104,0.897,2,2,2c0.276,0,0.5-0.225,0.5-0.5c0-0.275-0.224-0.5-0.5-0.5c-0.552,0-1-0.449-1-1v-5H22c1.103,0,2-0.896,2-2v-2
			C24,9.896,23.103,9,22,9z M19.5,13H5.469c-0.276,0-0.5-0.225-0.5-0.5c0-0.276,0.224-0.5,0.5-0.5H19.5c0.275,0,0.5,0.224,0.5,0.5
			C20,12.775,19.775,13,19.5,13z M21.5,13c-0.277,0-0.5-0.225-0.5-0.5c0-0.276,0.223-0.5,0.5-0.5c0.275,0,0.5,0.224,0.5,0.5
			C22,12.775,21.775,13,21.5,13z"/>
		<path d="M5.5,8.5h13C18.775,8.5,19,8.276,19,8V6.5c0-0.133-0.053-0.26-0.147-0.354l-6-6C12.76,0.053,12.632,0,12.5,0h-7
			C5.224,0,5,0.224,5,0.5V8C5,8.276,5.224,8.5,5.5,8.5z M12.5,0.5l6,6h-6V0.5z"/>
	</g>
</g>
<g id="Outline_Icons">
	<g>
		<polygon fill="none" stroke="#000000" stroke-linecap="round" stroke-linejoin="round" stroke-miterlimit="10" points="18.5,9.5 
			5.5,9.5 5.5,0.5 12.5,0.5 18.5,6.5 		"/>
		<polyline fill="none" stroke="#000000" stroke-linecap="round" stroke-linejoin="round" stroke-miterlimit="10" points="12.5,0.5 
			12.5,6.5 18.5,6.5 		"/>
		
			<line fill="none" stroke="#000000" stroke-linecap="round" stroke-linejoin="round" stroke-miterlimit="10" x1="12.5" y1="12.5" x2="12.5" y2="23.5"/>
		
			<line fill="none" stroke="#000000" stroke-linecap="round" stroke-linejoin="round" stroke-miterlimit="10" x1="9.51" y1="12.5" x2="9.51" y2="23.5"/>
		
			<line fill="none" stroke="#000000" stroke-linecap="round" stroke-linejoin="round" stroke-miterlimit="10" x1="15.5" y1="12.5" x2="15.5" y2="23.5"/>
		<path fill="none" stroke="#000000" stroke-linecap="round" stroke-linejoin="round" stroke-miterlimit="10" d="M20,21.5
			c-0.83,0-1.5-0.672-1.5-1.5v-7.5"/>
		<path fill="none" stroke="#000000" stroke-linecap="round" stroke-linejoin="round" stroke-miterlimit="10" d="M5.006,21.522
			c0.827,0,1.5-0.672,1.5-1.5v-7.5"/>
		
			<line fill="none" stroke="#000000" stroke-linecap="round" stroke-linejoin="round" stroke-miterlimit="10" x1="5.5" y1="12.5" x2="19.5" y2="12.5"/>
		<path fill="none" stroke="#000000" stroke-linecap="round" stroke-linejoin="round" stroke-miterlimit="10" d="M4,14.5H2
			c-0.83,0-1.5-0.672-1.5-1.5v-2c0-0.828,0.67-1.5,1.5-1.5h20c0.828,0,1.5,0.672,1.5,1.5v2c0,0.828-0.672,1.5-1.5,1.5h-2"/>
		<g>
			<g>
				<path d="M21.5,12c-0.277,0-0.5,0.224-0.5,0.5c0,0.275,0.223,0.5,0.5,0.5c0.275,0,0.5-0.225,0.5-0.5C22,12.224,21.775,12,21.5,12
					L21.5,12z"/>
			</g>
		</g>
	</g>
</g>
</svg>
