<?xml version="1.0" encoding="utf-8"?>
<!-- Generator: Adobe Illustrator 19.2.0, SVG Export Plug-In . SVG Version: 6.00 Build 0)  -->
<svg version="1.1" id="Layer_1" xmlns="http://www.w3.org/2000/svg" xmlns:xlink="http://www.w3.org/1999/xlink" x="0px" y="0px"
	 viewBox="0 0 24 24" enable-background="new 0 0 24 24" xml:space="preserve">
<g id="Filled_Icons" display="none">
	<g display="inline">
		<g>
			<rect x="8" y="17" width="1" height="1"/>
			<rect x="6" y="7" width="1" height="1"/>
			<rect x="4" y="12" width="1" height="1"/>
			<path d="M10.477,16.07c0-2.84,2.147-4.536,4.224-4.536c0.746,0,1.564,0.236,2.3,0.76V5.5c0-0.133-0.054-0.26-0.146-0.354l-5-5
				C11.76,0.053,11.633,0,11.5,0h-11C0.225,0,0,0.224,0,0.5v21C0,21.775,0.225,22,0.5,22h13.432
				C12.262,20.385,10.477,18.171,10.477,16.07z M11.5,0.5l5,5h-5V0.5z M5,6.5C5,6.224,5.224,6,5.5,6h2C7.776,6,8,6.224,8,6.5v2
				C8,8.776,7.776,9,7.5,9h-2C5.224,9,5,8.776,5,8.5V6.5z M8,11.5v2C8,13.775,7.776,14,7.5,14C7.224,14,7,13.775,7,13.5v-2
				C7,11.224,7.224,11,7.5,11C7.776,11,8,11.224,8,11.5z M3,6.5C3,6.224,3.224,6,3.5,6C3.776,6,4,6.224,4,6.5v2
				C4,8.776,3.776,9,3.5,9C3.224,9,3,8.776,3,8.5V6.5z M4,18.5C4,18.775,3.776,19,3.5,19C3.224,19,3,18.775,3,18.5v-2
				C3,16.225,3.224,16,3.5,16C3.776,16,4,16.225,4,16.5V18.5z M6,18.5C6,18.775,5.776,19,5.5,19C5.224,19,5,18.775,5,18.5v-2
				C5,16.225,5.224,16,5.5,16C5.776,16,6,16.225,6,16.5V18.5z M6,13.5C6,13.775,5.776,14,5.5,14h-2C3.224,14,3,13.775,3,13.5v-2
				C3,11.224,3.224,11,3.5,11h2C5.776,11,6,11.224,6,11.5V13.5z M10,18.5c0,0.275-0.224,0.5-0.5,0.5h-2C7.224,19,7,18.775,7,18.5v-2
				C7,16.225,7.224,16,7.5,16h2c0.276,0,0.5,0.225,0.5,0.5V18.5z M10,13.5c0,0.275-0.224,0.5-0.5,0.5C9.224,14,9,13.775,9,13.5v-2
				C9,11.224,9.224,11,9.5,11c0.276,0,0.5,0.224,0.5,0.5V13.5z M10,8.5C10,8.776,9.776,9,9.5,9C9.224,9,9,8.776,9,8.5v-2
				C9,6.224,9.224,6,9.5,6C9.776,6,10,6.224,10,6.5V8.5z"/>
		</g>
		<path d="M20.254,12.498c-0.951,0-2.07,0.493-2.777,1.785c-0.705-1.292-1.826-1.785-2.776-1.785c-1.584,0-3.223,1.324-3.223,3.537
			c0,3.184,5.473,7.199,5.707,7.369c0.088,0.064,0.189,0.096,0.293,0.096c0.104,0,0.207-0.031,0.295-0.096
			c0.232-0.17,5.705-4.188,5.705-7.369C23.477,13.822,21.838,12.498,20.254,12.498z"/>
	</g>
</g>
<g id="Outline_Icons">
	<g>
		
			<line fill="none" stroke="#000000" stroke-linecap="round" stroke-linejoin="round" stroke-miterlimit="10" x1="3.5" y1="6.5" x2="3.5" y2="8.5"/>
		
			<line fill="none" stroke="#000000" stroke-linecap="round" stroke-linejoin="round" stroke-miterlimit="10" x1="9.5" y1="6.5" x2="9.5" y2="8.5"/>
		
			<line fill="none" stroke="#000000" stroke-linecap="round" stroke-linejoin="round" stroke-miterlimit="10" x1="7.5" y1="11.5" x2="7.5" y2="13.5"/>
		
			<line fill="none" stroke="#000000" stroke-linecap="round" stroke-linejoin="round" stroke-miterlimit="10" x1="9.5" y1="11.5" x2="9.5" y2="13.5"/>
		
			<rect x="5.5" y="6.5" fill="none" stroke="#000000" stroke-linecap="round" stroke-linejoin="round" stroke-miterlimit="10" width="2" height="2"/>
		
			<rect x="3.5" y="11.5" fill="none" stroke="#000000" stroke-linecap="round" stroke-linejoin="round" stroke-miterlimit="10" width="2" height="2"/>
		
			<rect x="7.5" y="16.5" fill="none" stroke="#000000" stroke-linecap="round" stroke-linejoin="round" stroke-miterlimit="10" width="2" height="2"/>
		
			<line fill="none" stroke="#000000" stroke-linecap="round" stroke-linejoin="round" stroke-miterlimit="10" x1="3.5" y1="16.5" x2="3.5" y2="18.5"/>
		
			<line fill="none" stroke="#000000" stroke-linecap="round" stroke-linejoin="round" stroke-miterlimit="10" x1="5.5" y1="16.5" x2="5.5" y2="18.5"/>
		<g>
			<g>
				<path fill="none" stroke="#000000" stroke-linejoin="round" stroke-miterlimit="10" d="M17.5,23c0,0,5.5-4,5.5-6.963
					c0-3.419-4.5-4.5-5.5-0.342c-1-4.158-5.5-3.077-5.5,0.342C12,19,17.5,23,17.5,23z"/>
			</g>
		</g>
		<g>
			<polyline fill="none" stroke="#000000" stroke-linejoin="round" stroke-miterlimit="10" points="12.479,21.5 0.5,21.5 0.5,0.5 
				11.5,0.5 16.5,5.5 16.5,11 			"/>
			<polyline fill="none" stroke="#000000" stroke-linecap="round" stroke-linejoin="round" stroke-miterlimit="10" points="
				11.5,0.5 11.5,5.5 16.5,5.5 			"/>
		</g>
	</g>
</g>
</svg>
