<?xml version="1.0" encoding="utf-8"?>
<!-- Generator: Adobe Illustrator 19.2.0, SVG Export Plug-In . SVG Version: 6.00 Build 0)  -->
<svg version="1.1" id="Layer_1" xmlns="http://www.w3.org/2000/svg" xmlns:xlink="http://www.w3.org/1999/xlink" x="0px" y="0px"
	 viewBox="0 0 24 24" enable-background="new 0 0 24 24" xml:space="preserve">
<g id="Filled_Icons" display="none">
	<path display="inline" d="M19.853,6.146l-6-6C13.76,0.053,13.633,0,13.5,0h-13C0.225,0,0,0.224,0,0.5v23C0,23.775,0.225,24,0.5,24
		h19c0.275,0,0.5-0.225,0.5-0.5v-17C20,6.367,19.947,6.24,19.853,6.146z M9.329,15.877l-4,3.5C5.234,19.46,5.117,19.5,5,19.5
		c-0.139,0-0.277-0.059-0.376-0.171c-0.183-0.208-0.161-0.522,0.047-0.705L8.24,15.5l-3.569-3.123
		c-0.208-0.183-0.229-0.498-0.047-0.706c0.182-0.209,0.498-0.229,0.705-0.047l4,3.5C9.438,15.219,9.5,15.356,9.5,15.5
		C9.5,15.645,9.438,15.781,9.329,15.877z M15,16h-4c-0.276,0-0.5-0.225-0.5-0.5c0-0.275,0.224-0.5,0.5-0.5h4
		c0.275,0,0.5,0.225,0.5,0.5C15.5,15.775,15.275,16,15,16z M13.5,6.5v-6l6,6H13.5z"/>
</g>
<g id="Outline_Icons">
	<g>
		<polyline fill="none" stroke="#000000" stroke-linecap="round" stroke-linejoin="round" stroke-miterlimit="10" points="5,12 
			9,15.5 5,19 		"/>
		
			<line fill="none" stroke="#000000" stroke-linecap="round" stroke-linejoin="round" stroke-miterlimit="10" x1="11" y1="15.5" x2="15" y2="15.5"/>
		<g>
			<polygon fill="none" stroke="#000000" stroke-linecap="round" stroke-linejoin="round" stroke-miterlimit="10" points="
				19.5,23.5 0.5,23.5 0.5,0.5 13.5,0.5 19.5,6.5 			"/>
			<polyline fill="none" stroke="#000000" stroke-linecap="round" stroke-linejoin="round" stroke-miterlimit="10" points="13.5,1 
				13.5,6.5 19,6.5 			"/>
		</g>
	</g>
</g>
</svg>
