<?xml version="1.0" encoding="utf-8"?>
<!-- Generator: Adobe Illustrator 19.2.0, SVG Export Plug-In . SVG Version: 6.00 Build 0)  -->
<svg version="1.1" id="Layer_1" xmlns="http://www.w3.org/2000/svg" xmlns:xlink="http://www.w3.org/1999/xlink" x="0px" y="0px"
	 viewBox="0 0 24 24" enable-background="new 0 0 24 24" xml:space="preserve">
<g id="Filled_Icons" display="none">
	<g display="inline">
		<path d="M20.254,12.499c-0.951,0-2.07,0.492-2.777,1.785c-0.705-1.292-1.826-1.785-2.776-1.785c-1.584,0-3.223,1.323-3.223,3.537
			c0,3.183,5.473,7.198,5.707,7.368c0.088,0.064,0.189,0.096,0.293,0.096c0.104,0,0.207-0.031,0.295-0.096
			c0.232-0.17,5.705-4.186,5.705-7.368C23.477,13.822,21.838,12.499,20.254,12.499z"/>
		<path d="M10.477,16.037c0-2.84,2.147-4.537,4.224-4.537c0.828,0,1.742,0.29,2.535,0.944V5.5c0-0.133-0.053-0.26-0.147-0.354l-5-5
			C11.995,0.053,11.868,0,11.735,0h-11c-0.275,0-0.5,0.224-0.5,0.5v21c0,0.275,0.225,0.5,0.5,0.5h13.231
			C12.287,20.382,10.477,18.152,10.477,16.037z M11.735,0.5l4.999,5h-4.999V0.5z M5.735,14.75c-0.083,0-0.167-0.021-0.242-0.062
			c-0.159-0.088-0.258-0.256-0.258-0.439V7.5c0-0.182,0.099-0.349,0.258-0.438C5.652,6.975,5.846,6.98,6,7.076l5.4,3.375
			c0.146,0.091,0.235,0.251,0.235,0.424c0,0.173-0.089,0.333-0.235,0.424L6,14.674C5.919,14.725,5.827,14.75,5.735,14.75z"/>
	</g>
</g>
<g id="Outline_Icons">
	<g>
		<g>
			<g>
				<path fill="none" stroke="#000000" stroke-linejoin="round" stroke-miterlimit="10" d="M17.5,23c0,0,5.5-4,5.5-6.963
					c0-3.418-4.5-4.5-5.5-0.342c-1-4.158-5.5-3.076-5.5,0.342C12,19,17.5,23,17.5,23z"/>
			</g>
		</g>
		<polygon fill="none" stroke="#000000" stroke-linecap="round" stroke-linejoin="round" stroke-miterlimit="10" points="
			5.479,7.499 10.88,10.874 5.479,14.249 		"/>
		<g>
			<polyline fill="none" stroke="#000000" stroke-linejoin="round" stroke-miterlimit="10" points="12.479,21.5 0.5,21.5 0.5,0.5 
				11.5,0.5 16.5,5.5 16.5,11 			"/>
			<polyline fill="none" stroke="#000000" stroke-linecap="round" stroke-linejoin="round" stroke-miterlimit="10" points="
				11.5,0.5 11.5,5.5 16.5,5.5 			"/>
		</g>
	</g>
</g>
</svg>
