<?xml version="1.0" encoding="utf-8"?>
<!-- Generator: Adobe Illustrator 19.2.0, SVG Export Plug-In . SVG Version: 6.00 Build 0)  -->
<svg version="1.1" id="Layer_1" xmlns="http://www.w3.org/2000/svg" xmlns:xlink="http://www.w3.org/1999/xlink" x="0px" y="0px"
	 viewBox="0 0 24 24" enable-background="new 0 0 24 24" xml:space="preserve">
<g id="Filled_Icons" display="none">
	<g display="inline">
		<path d="M12.358,13.999c-0.489,0-0.966,0.165-0.966,2.151c0,1.981,0.477,2.147,0.966,2.147c0.49,0,0.966-0.166,0.966-2.147
			C13.324,14.164,12.848,13.999,12.358,13.999z"/>
		<path d="M7.241,13.999H6.804v4.189h0.438c0.937,0,1.27-1.129,1.27-2.094C8.512,15.127,8.178,13.999,7.241,13.999z"/>
		<path d="M21.853,6.146l-6-6C15.76,0.053,15.632,0,15.5,0h-13C2.224,0,2,0.224,2,0.5v23C2,23.775,2.224,24,2.5,24h19
			c0.275,0,0.5-0.225,0.5-0.5v-17C22,6.367,21.947,6.24,21.853,6.146z M7.241,19.188H6.304c-0.276,0-0.5-0.225-0.5-0.5v-5.189
			c0-0.276,0.224-0.5,0.5-0.5h0.938c1.357,0,2.27,1.243,2.27,3.095C9.512,17.943,8.599,19.188,7.241,19.188z M12.358,19.299
			c-1.966,0-1.966-2.207-1.966-3.148c0-0.942,0-3.15,1.966-3.15c1.966,0,1.966,2.208,1.966,3.15
			C14.324,17.092,14.324,19.299,12.358,19.299z M17.116,18.301c0.303,0,0.64-0.066,0.808-0.846c0.059-0.27,0.324-0.443,0.594-0.385
			c0.271,0.059,0.442,0.324,0.385,0.594c-0.291,1.353-1.133,1.637-1.786,1.637c-1.91,0-1.91-2.207-1.91-3.15
			c0-0.942,0-3.15,1.91-3.15c0.653,0,1.495,0.284,1.786,1.637c0.058,0.269-0.114,0.534-0.385,0.594
			c-0.27,0.06-0.535-0.113-0.594-0.385C17.756,14.066,17.419,14,17.116,14c-0.46,0-0.91,0.165-0.91,2.15
			C16.206,18.135,16.656,18.301,17.116,18.301z M15.5,6.5v-6l6,6H15.5z"/>
	</g>
</g>
<g id="Outline_Icons">
	<g>
		<g>
			<polygon fill="none" stroke="#000000" stroke-linecap="round" stroke-linejoin="round" stroke-miterlimit="10" points="
				21.5,23.5 2.5,23.5 2.5,0.5 15.5,0.5 21.5,6.5 			"/>
			<polyline fill="none" stroke="#000000" stroke-linecap="round" stroke-linejoin="round" stroke-miterlimit="10" points="
				15.5,0.5 15.5,6.5 21.5,6.5 			"/>
		</g>
		<g>
			<path fill="none" stroke="#000000" stroke-linecap="round" stroke-linejoin="round" stroke-miterlimit="10" d="M6.304,18.688
				v-5.189h0.938c1.152,0,1.77,1.162,1.77,2.595c0,1.432-0.617,2.594-1.77,2.594H6.304z"/>
			<path fill="none" stroke="#000000" stroke-linecap="round" stroke-linejoin="round" stroke-miterlimit="10" d="M18.413,14.738
				c-0.16-0.743-0.521-1.239-1.297-1.239c-1.201,0-1.41,1.187-1.41,2.651c0,1.463,0.209,2.649,1.41,2.649
				c0.774,0,1.137-0.497,1.297-1.241"/>
			<path fill="none" stroke="#000000" stroke-linecap="round" stroke-linejoin="round" stroke-miterlimit="10" d="M13.824,16.15
				c0,1.461-0.219,2.647-1.466,2.647c-1.249,0-1.466-1.187-1.466-2.647c0-1.465,0.217-2.651,1.466-2.651
				C13.605,13.499,13.824,14.686,13.824,16.15z"/>
		</g>
	</g>
</g>
</svg>
