<?xml version="1.0" encoding="utf-8"?>
<!-- Generator: Adobe Illustrator 19.2.0, SVG Export Plug-In . SVG Version: 6.00 Build 0)  -->
<svg version="1.1" id="Layer_1" xmlns="http://www.w3.org/2000/svg" xmlns:xlink="http://www.w3.org/1999/xlink" x="0px" y="0px"
	 viewBox="0 0 24 24" enable-background="new 0 0 24 24" xml:space="preserve">
<g id="Filled_Icons" display="none">
	<g display="inline">
		<path d="M23.842,23.147l-3.185-3.187c0.58-0.733,0.941-1.649,0.941-2.655c0-2.373-1.931-4.306-4.305-4.306
			c-2.374,0-4.307,1.933-4.307,4.306c0,2.373,1.933,4.305,4.307,4.305c1.007,0,1.921-0.361,2.654-0.941l3.187,3.186
			C23.232,23.951,23.359,24,23.488,24c0.128,0,0.256-0.049,0.354-0.146C24.037,23.658,24.037,23.342,23.842,23.147z M13.988,17.305
			c0-1.822,1.482-3.305,3.306-3.305c1.823,0,3.306,1.482,3.306,3.305c0,1.823-1.482,3.307-3.306,3.307
			C15.471,20.611,13.988,19.127,13.988,17.305z"/>
		<path d="M12,17.307c0-2.822,2.219-5.113,5-5.275V5.5c0-0.133-0.053-0.26-0.147-0.354l-4.999-5C11.76,0.053,11.633,0,11.5,0h-11
			C0.225,0,0,0.224,0,0.5v21C0,21.775,0.225,22,0.5,22h14.387C13.182,21.117,12,19.356,12,17.307z M11.5,0.5l5,5h-5V0.5z M11,17
			c0.276,0,0.5,0.225,0.5,0.5c0,0.275-0.224,0.5-0.5,0.5H3.5C3.224,18,3,17.775,3,17.5v-10C3,7.224,3.224,7,3.5,7
			C3.776,7,4,7.224,4,7.5v4.793l1.896-1.896c0.195-0.195,0.512-0.195,0.707,0l1.646,1.646l2.896-2.896
			c0.195-0.195,0.512-0.195,0.707,0c0.195,0.195,0.195,0.512,0,0.707l-3.25,3.25c-0.195,0.195-0.512,0.195-0.707,0L6.25,11.457
			L4,13.707V17H11z"/>
	</g>
</g>
<g id="Outline_Icons">
	<g>
		<g>
			<circle fill="none" stroke="#000000" stroke-linejoin="round" stroke-miterlimit="10" cx="17.305" cy="17.306" r="3.805"/>
			
				<line fill="none" stroke="#000000" stroke-linecap="round" stroke-linejoin="round" stroke-miterlimit="10" x1="20" y1="20" x2="23.5" y2="23.5"/>
		</g>
		<g>
			<polyline fill="none" stroke="#000000" stroke-linejoin="round" stroke-miterlimit="10" points="12.488,21.5 0.5,21.5 0.5,0.5 
				11.5,0.5 16.5,5.5 16.5,11 			"/>
			<polyline fill="none" stroke="#000000" stroke-linecap="round" stroke-linejoin="round" stroke-miterlimit="10" points="
				11.5,0.5 11.5,5.5 16.5,5.5 			"/>
		</g>
		<g>
			<polyline fill="none" stroke="#000000" stroke-linecap="round" stroke-linejoin="round" stroke-miterlimit="10" points="3.5,7.5 
				3.5,17.5 9.5,17.5 			"/>
			<polyline fill="none" stroke="#000000" stroke-linecap="round" stroke-linejoin="round" stroke-miterlimit="10" points="
				3.5,13.5 6.25,10.75 8.25,12.75 11.5,9.5 			"/>
		</g>
	</g>
</g>
</svg>
