<?xml version="1.0" encoding="utf-8"?>
<!-- Generator: Adobe Illustrator 19.2.0, SVG Export Plug-In . SVG Version: 6.00 Build 0)  -->
<svg version="1.1" id="Layer_1" xmlns="http://www.w3.org/2000/svg" xmlns:xlink="http://www.w3.org/1999/xlink" x="0px" y="0px"
	 viewBox="0 0 24 24" enable-background="new 0 0 24 24" xml:space="preserve">
<g id="Filled_Icons" display="none">
	<g display="inline">
		<path d="M2,18.5V6H0.5C0.224,6,0,6.224,0,6.5v14C0,20.775,0.224,21,0.5,21h20c0.275,0,0.5-0.225,0.5-0.5V19H2.5
			C2.224,19,2,18.775,2,18.5z"/>
		<path d="M23.853,9.146l-6-6C17.76,3.053,17.633,3,17.5,3h-14C3.224,3,3,3.224,3,3.5v14V18h0.5h20c0.275,0,0.5-0.225,0.5-0.5v-8
			C24,9.367,23.947,9.24,23.853,9.146z M17.5,9.5v-6l6,6H17.5z"/>
	</g>
</g>
<g id="Outline_Icons">
	<g>
		<polygon fill="none" stroke="#000000" stroke-linecap="round" stroke-linejoin="round" stroke-miterlimit="10" points="3.5,3.5 
			3.5,17.5 23.5,17.5 23.5,9.5 17.5,3.5 		"/>
		<polyline fill="none" stroke="#000000" stroke-linecap="round" stroke-linejoin="round" stroke-miterlimit="10" points="23.5,9.5 
			17.5,9.5 17.5,3.5 		"/>
		<polyline fill="none" stroke="#000000" stroke-linecap="round" stroke-linejoin="round" stroke-miterlimit="10" points="3.5,6.5 
			0.5,6.5 0.5,20.5 20.5,20.5 20.5,17.5 		"/>
	</g>
</g>
</svg>
