<?xml version="1.0" encoding="utf-8"?>
<!-- Generator: Adobe Illustrator 19.2.0, SVG Export Plug-In . SVG Version: 6.00 Build 0)  -->
<svg version="1.1" id="Outline_Icons" xmlns="http://www.w3.org/2000/svg" xmlns:xlink="http://www.w3.org/1999/xlink" x="0px"
	 y="0px" viewBox="0 0 24 24" enable-background="new 0 0 24 24" xml:space="preserve">
<g>
	<path fill="none" stroke="#000000" stroke-linecap="round" stroke-linejoin="round" stroke-miterlimit="10" d="M6.88,14.524
		C6.721,13.778,6.358,13.5,5.583,13.5c-1.2,0-1.41,0.97-1.41,2.434s0.21,2.65,1.41,2.65c0.775,0,1.138-0.495,1.297-1.241"/>
	<path fill="none" stroke="#000000" stroke-linecap="round" stroke-linejoin="round" stroke-miterlimit="10" d="M8.977,17.343
		c0.041,0.692,0.58,1.24,1.239,1.24c0.687,0,1.241-0.593,1.241-1.324c0-1.08-1.022-1.262-1.239-1.325
		c-0.217-0.064-1.241-0.245-1.241-1.325c0-0.732,0.556-1.108,1.241-1.108c0.659,0,1.198,0.331,1.239,1.023"/>
	<path fill="none" stroke="#000000" stroke-linecap="round" stroke-linejoin="round" stroke-miterlimit="10" d="M13.441,17.343
		c0.041,0.692,0.58,1.24,1.239,1.24c0.686,0,1.241-0.593,1.241-1.324c0-1.08-1.021-1.262-1.239-1.325
		c-0.217-0.064-1.241-0.245-1.241-1.325c0-0.732,0.556-1.108,1.241-1.108c0.659,0,1.198,0.331,1.239,1.023"/>
	<g>
		<g>
			<polygon fill="none" stroke="#000000" stroke-linecap="round" stroke-linejoin="round" stroke-miterlimit="10" points="
				19.5,23.5 0.5,23.5 0.5,0.5 13.5,0.5 19.5,6.5 			"/>
			<polyline fill="none" stroke="#000000" stroke-linecap="round" stroke-linejoin="round" stroke-miterlimit="10" points="
				13.5,0.5 13.5,6.5 19.5,6.5 			"/>
		</g>
	</g>
</g>
</svg>
