<?xml version="1.0" encoding="utf-8"?>
<!-- Generator: Adobe Illustrator 19.2.0, SVG Export Plug-In . SVG Version: 6.00 Build 0)  -->
<svg version="1.1" id="Layer_1" xmlns="http://www.w3.org/2000/svg" xmlns:xlink="http://www.w3.org/1999/xlink" x="0px" y="0px"
	 viewBox="0 0 24 24" enable-background="new 0 0 24 24" xml:space="preserve">
<g id="Filled_Icons" display="none">
	<g display="inline">
		<path d="M10,17.5c0-3.967,3.098-7.215,7-7.474V5.5c0-0.133-0.053-0.26-0.147-0.354l-4.999-5C11.76,0.053,11.632,0,11.5,0h-11
			C0.224,0,0,0.224,0,0.5v21C0,21.775,0.224,22,0.5,22h11.015C10.568,20.745,10,19.19,10,17.5z M11.5,0.5l5,5h-5V0.5z M3.5,6H8
			c0.276,0,0.5,0.224,0.5,0.5C8.5,6.776,8.276,7,8,7H3.5C3.224,7,3,6.776,3,6.5C3,6.224,3.224,6,3.5,6z M3.5,9h8
			C11.776,9,12,9.224,12,9.5c0,0.276-0.224,0.5-0.5,0.5h-8C3.224,10,3,9.776,3,9.5C3,9.224,3.224,9,3.5,9z M8.5,16h-5
			C3.224,16,3,15.775,3,15.5C3,15.225,3.224,15,3.5,15h5C8.776,15,9,15.225,9,15.5C9,15.775,8.776,16,8.5,16z M9.5,13h-6
			C3.224,13,3,12.775,3,12.5C3,12.224,3.224,12,3.5,12h6c0.276,0,0.5,0.224,0.5,0.5C10,12.775,9.776,13,9.5,13z"/>
		<path d="M17.5,11c-3.584,0-6.5,2.916-6.5,6.5s2.916,6.5,6.5,6.5s6.5-2.916,6.5-6.5S21.084,11,17.5,11z M22.05,14.404l-0.565,2.219
			c-0.004,0.02-0.019,0.036-0.025,0.055c-0.1,0.252-0.375,0.37-0.582,0.307l-2.217-0.566c-0.268-0.067-0.43-0.34-0.361-0.608
			c0.068-0.268,0.34-0.43,0.608-0.359l1.202,0.306c-0.317-0.508-0.748-0.938-1.289-1.235c-0.832-0.455-1.789-0.562-2.696-0.295
			c-0.911,0.266-1.663,0.869-2.119,1.699c-0.456,0.831-0.562,1.789-0.296,2.698c0.266,0.912,0.869,1.663,1.699,2.12
			c0.83,0.456,1.789,0.561,2.699,0.295c0.265-0.08,0.543,0.074,0.621,0.34c0.076,0.266-0.076,0.543-0.34,0.62
			c-0.422,0.123-0.852,0.185-1.279,0.185c-0.754,0-1.502-0.19-2.182-0.563c-1.064-0.584-1.839-1.55-2.178-2.716
			c-0.34-1.166-0.205-2.394,0.379-3.459c0.585-1.065,1.549-1.838,2.717-2.178c1.166-0.34,2.393-0.205,3.457,0.379
			c0.635,0.348,1.149,0.842,1.547,1.424l0.232-0.912c0.067-0.268,0.34-0.43,0.608-0.361C21.957,13.865,22.118,14.137,22.05,14.404z"
			/>
	</g>
</g>
<g id="Outline_Icons">
	<g>
		
			<line fill="none" stroke="#000000" stroke-linecap="round" stroke-linejoin="round" stroke-miterlimit="10" x1="3.494" y1="6.5" x2="7.994" y2="6.5"/>
		
			<line fill="none" stroke="#000000" stroke-linecap="round" stroke-linejoin="round" stroke-miterlimit="10" x1="3.494" y1="9.5" x2="11.494" y2="9.5"/>
		
			<line fill="none" stroke="#000000" stroke-linecap="round" stroke-linejoin="round" stroke-miterlimit="10" x1="3.494" y1="12.5" x2="9.494" y2="12.5"/>
		
			<line fill="none" stroke="#000000" stroke-linecap="round" stroke-linejoin="round" stroke-miterlimit="10" x1="3.494" y1="15.5" x2="8.494" y2="15.5"/>
		<g>
			<g>
				<path fill="none" stroke="#000000" stroke-linecap="round" stroke-linejoin="round" stroke-miterlimit="10" d="M18.9,23.303
					c-2.65,0.772-5.428-0.75-6.199-3.402c-0.772-2.65,0.751-5.426,3.402-6.199c2.649-0.771,5.426,0.751,6.197,3.4"/>
				<polyline fill="none" stroke="#000000" stroke-linecap="round" stroke-linejoin="round" stroke-miterlimit="10" points="
					23,14.361 22.303,17.104 19.562,16.406 				"/>
			</g>
		</g>
		<g>
			<polyline fill="none" stroke="#000000" stroke-linejoin="round" stroke-miterlimit="10" points="11,21.5 0.5,21.5 0.5,0.5 
				11.5,0.5 16.5,5.5 16.494,11 			"/>
			<polyline fill="none" stroke="#000000" stroke-linecap="round" stroke-linejoin="round" stroke-miterlimit="10" points="
				11.5,0.5 11.5,5.5 16.5,5.5 			"/>
		</g>
	</g>
</g>
</svg>
