<?xml version="1.0" encoding="utf-8"?>
<!-- Generator: Adobe Illustrator 19.2.0, SVG Export Plug-In . SVG Version: 6.00 Build 0)  -->
<svg version="1.1" id="Layer_1" xmlns="http://www.w3.org/2000/svg" xmlns:xlink="http://www.w3.org/1999/xlink" x="0px" y="0px"
	 viewBox="0 0 24 24" enable-background="new 0 0 24 24" xml:space="preserve">
<g id="Filled_Icons" display="none">
	<g display="inline">
		<path d="M11.696,13.75c0-1.161-0.57-1.75-1.696-1.75H8.805c-0.276,0-0.5,0.224-0.5,0.5v5c0,0.275,0.224,0.5,0.5,0.5
			c0.276,0,0.5-0.225,0.5-0.5v-2h0.38l1.061,2.216C10.831,17.897,11.01,18,11.196,18c0.072,0,0.146-0.016,0.216-0.049
			c0.249-0.119,0.354-0.418,0.235-0.667l-0.906-1.896C11.376,15.169,11.696,14.621,11.696,13.75z M10,14.5H9.305V13H10
			c0.604,0,0.696,0.169,0.696,0.75C10.696,14.331,10.604,14.5,10,14.5z"/>
		<path d="M19.853,6.146l-6-6C13.76,0.053,13.633,0,13.5,0h-13C0.225,0,0,0.224,0,0.5v23C0,23.775,0.225,24,0.5,24h19
			c0.275,0,0.5-0.225,0.5-0.5v-17C20,6.367,19.947,6.24,19.853,6.146z M10,21c-3.309,0-6-2.691-6-6c0-3.309,2.691-6,6-6
			c3.309,0,6,2.691,6,6C16,18.309,13.309,21,10,21z M13.5,6.5v-6l6,6H13.5z"/>
	</g>
</g>
<g id="Outline_Icons">
	<g>
		<g>
			<polygon fill="none" stroke="#000000" stroke-linecap="round" stroke-linejoin="round" stroke-miterlimit="10" points="
				19.5,23.5 0.5,23.5 0.5,0.5 13.5,0.5 19.5,6.5 			"/>
			<polyline fill="none" stroke="#000000" stroke-linecap="round" stroke-linejoin="round" stroke-miterlimit="10" points="
				13.5,0.5 13.5,6.5 19.5,6.5 			"/>
		</g>
		
			<circle fill="none" stroke="#000000" stroke-linecap="round" stroke-linejoin="round" stroke-miterlimit="10" cx="10" cy="15" r="5.5"/>
		<g>
			<path fill="none" stroke="#000000" stroke-linecap="round" stroke-linejoin="round" stroke-miterlimit="10" d="M8.805,17.5v-5H10
				c1.019,0,1.196,0.561,1.196,1.25c0,0.69-0.178,1.25-1.196,1.25H8.805"/>
			
				<line fill="none" stroke="#000000" stroke-linecap="round" stroke-linejoin="round" stroke-miterlimit="10" x1="10" y1="15" x2="11.196" y2="17.5"/>
		</g>
	</g>
</g>
</svg>
