<?xml version="1.0" encoding="utf-8"?>
<!-- Generator: Adobe Illustrator 19.2.0, SVG Export Plug-In . SVG Version: 6.00 Build 0)  -->
<svg version="1.1" id="Layer_1" xmlns="http://www.w3.org/2000/svg" xmlns:xlink="http://www.w3.org/1999/xlink" x="0px" y="0px"
	 viewBox="0 0 24 24" enable-background="new 0 0 24 24" xml:space="preserve">
<g id="Filled_Icons" display="none">
	<g display="inline">
		<path d="M12,17.307c0-2.824,2.217-5.132,5-5.291V5.5c0-0.133-0.053-0.26-0.147-0.354l-4.999-5C11.76,0.053,11.632,0,11.5,0h-11
			C0.224,0,0,0.224,0,0.5v21C0,21.775,0.224,22,0.5,22h14.342C13.154,21.109,12,19.341,12,17.307z M11.5,0.5l5,5h-5V0.5z"/>
		<path d="M23.853,23.147l-2.461-2.461l-0.713-0.715c0.582-0.734,0.932-1.658,0.932-2.666c0-2.373-1.932-4.306-4.305-4.306
			C14.932,13,13,14.932,13,17.307c0,2.373,1.932,4.305,4.307,4.305c1.006,0,1.932-0.35,2.666-0.932l0.713,0.713l2.461,2.461
			C23.244,23.951,23.372,24,23.5,24c0.128,0,0.256-0.049,0.353-0.146C24.049,23.659,24.049,23.342,23.853,23.147z M17.307,20.609
			c-1.824,0-3.307-1.482-3.307-3.305C14,15.482,15.482,14,17.307,14c1.821,0,3.303,1.482,3.303,3.307
			C20.609,19.128,19.128,20.609,17.307,20.609z"/>
	</g>
</g>
<g id="Outline_Icons">
	<g>
		<polyline fill="none" stroke="#000000" stroke-linejoin="round" stroke-miterlimit="10" points="11,21.5 0.5,21.5 0.5,0.5 
			11.5,0.5 16.5,5.5 16.5,10 		"/>
		<polyline fill="none" stroke="#000000" stroke-linecap="round" stroke-linejoin="round" stroke-miterlimit="10" points="11.5,0.5 
			11.5,5.5 16.5,5.5 		"/>
		<circle fill="none" stroke="#000000" stroke-linejoin="round" stroke-miterlimit="10" cx="17.305" cy="17.306" r="3.805"/>
		
			<line fill="none" stroke="#000000" stroke-linecap="round" stroke-linejoin="round" stroke-miterlimit="10" x1="20" y1="20" x2="23.5" y2="23.5"/>
	</g>
</g>
</svg>
