<?xml version="1.0" encoding="utf-8"?>
<!-- Generator: Adobe Illustrator 19.2.0, SVG Export Plug-In . SVG Version: 6.00 Build 0)  -->
<svg version="1.1" id="Layer_1" xmlns="http://www.w3.org/2000/svg" xmlns:xlink="http://www.w3.org/1999/xlink" x="0px" y="0px"
	 viewBox="0 0 24 24" enable-background="new 0 0 24 24" xml:space="preserve">
<g id="Filled_Icons" display="none">
	<g display="inline">
		<g>
			<path d="M21,14.707L14.707,21c0.77,0.616,1.732,1,2.793,1c2.48,0,4.5-2.018,4.5-4.5C22,16.44,21.616,15.479,21,14.707z"/>
			<path d="M20.293,14c-0.77-0.615-1.733-1-2.793-1c-2.481,0-4.5,2.02-4.5,4.5c0,1.061,0.384,2.023,1,2.793L20.293,14z"/>
			<path d="M17.5,11c-3.584,0-6.5,2.915-6.5,6.5c0,3.584,2.916,6.5,6.5,6.5s6.5-2.916,6.5-6.5C24,13.915,21.084,11,17.5,11z
				 M17.5,23c-3.033,0-5.5-2.467-5.5-5.5c0-3.033,2.467-5.5,5.5-5.5c3.033,0,5.5,2.467,5.5,5.5C23,20.533,20.533,23,17.5,23z"/>
		</g>
		<path d="M10.025,18H3.5C3.224,18,3,17.775,3,17.5v-10C3,7.224,3.224,7,3.5,7C3.776,7,4,7.224,4,7.5v4.793l1.896-1.896
			c0.195-0.195,0.512-0.195,0.707,0l1.646,1.646l2.896-2.896c0.195-0.195,0.512-0.195,0.707,0c0.195,0.195,0.195,0.512,0,0.707
			l-3.25,3.25c-0.195,0.195-0.512,0.195-0.707,0L6.25,11.457L4,13.707V17h6.025c0.248-3.736,3.239-6.727,6.975-6.975V5.5
			c0-0.133-0.053-0.26-0.147-0.354l-4.999-5C11.76,0.053,11.633,0,11.5,0h-11C0.225,0,0,0.224,0,0.5v21C0,21.775,0.225,22,0.5,22
			h11.014C10.663,20.87,10.125,19.496,10.025,18z M11.5,0.5l5,5h-5V0.5z"/>
	</g>
</g>
<g id="Outline_Icons">
	<g>
		<g>
			<circle fill="none" stroke="#000000" stroke-linejoin="round" stroke-miterlimit="10" cx="17.5" cy="17.5" r="6"/>
			
				<line fill="none" stroke="#000000" stroke-linejoin="round" stroke-miterlimit="10" x1="13.26" y1="21.74" x2="21.742" y2="13.259"/>
		</g>
		<g>
			<polyline fill="none" stroke="#000000" stroke-linejoin="round" stroke-miterlimit="10" points="11.01,21.5 0.51,21.5 0.51,0.5 
				11.51,0.5 16.51,5.5 16.51,10 			"/>
			<polyline fill="none" stroke="#000000" stroke-linecap="round" stroke-linejoin="round" stroke-miterlimit="10" points="
				11.51,0.5 11.51,5.5 16.51,5.5 			"/>
		</g>
		<g>
			<polyline fill="none" stroke="#000000" stroke-linecap="round" stroke-linejoin="round" stroke-miterlimit="10" points="3.5,7.5 
				3.5,17.5 9.5,17.5 			"/>
			<polyline fill="none" stroke="#000000" stroke-linecap="round" stroke-linejoin="round" stroke-miterlimit="10" points="
				3.5,13.5 6.25,10.75 8.25,12.75 11.5,9.5 			"/>
		</g>
	</g>
</g>
</svg>
