<?xml version="1.0" encoding="utf-8"?>
<!-- Generator: Adobe Illustrator 19.2.0, SVG Export Plug-In . SVG Version: 6.00 Build 0)  -->
<svg version="1.1" id="Layer_1" xmlns="http://www.w3.org/2000/svg" xmlns:xlink="http://www.w3.org/1999/xlink" x="0px" y="0px"
	 viewBox="0 0 24 24" enable-background="new 0 0 24 24" xml:space="preserve">
<g id="Filled_Icons" display="none">
	<g display="inline">
		<path d="M11.886,20.383c-0.045-0.144-0.076-0.293-0.076-0.445c0-0.398,0.158-0.779,0.439-1.062l2.571-2.571
			c0.055-0.055,0.111-0.103,0.173-0.148L17,14.682V5.5c0-0.133-0.053-0.26-0.147-0.354l-4.999-5C11.76,0.053,11.632,0,11.5,0h-11
			C0.224,0,0,0.224,0,0.5v21C0,21.775,0.224,22,0.5,22h9.688L11.886,20.383z M11.5,0.5l5,5h-5V0.5z"/>
		<g>
			<path d="M10.444,23.139c-0.148,0.141-0.195,0.357-0.12,0.547C10.401,23.875,10.584,24,10.789,24h4.232
				c0.123,0,0.242-0.045,0.334-0.127l0.625-0.56l-2.791-2.789L10.444,23.139z"/>
			<path d="M23.545,15.32l-2.122-2.12c-0.175-0.177-0.452-0.196-0.649-0.05l-5.244,3.861l-2.219,2.217l4.242,4.242l2.271-2.277
				l3.774-5.225C23.74,15.77,23.718,15.494,23.545,15.32z"/>
		</g>
	</g>
</g>
<g id="Outline_Icons">
	<g>
		<polyline fill="none" stroke="#000000" stroke-linejoin="round" stroke-miterlimit="10" points="9,21.5 0.5,21.5 0.5,0.5 
			11.499,0.5 16.5,5.5 16.5,13 		"/>
		<polyline fill="none" stroke="#000000" stroke-linecap="round" stroke-linejoin="round" stroke-miterlimit="10" points="
			11.499,0.5 11.5,5.5 16.5,5.5 		"/>
		<polygon fill="none" stroke="#000000" stroke-linecap="round" stroke-linejoin="round" stroke-miterlimit="10" points="
			21.068,13.555 15.883,17.365 13.31,19.938 16.846,23.473 19.418,20.9 23.191,15.675 		"/>
		<polygon fill="none" stroke="#000000" stroke-linecap="round" stroke-linejoin="round" stroke-miterlimit="10" points="
			10.789,23.5 13.906,20.531 16,22.625 15.021,23.5 		"/>
	</g>
</g>
</svg>
