<?xml version="1.0" encoding="utf-8"?>
<!-- Generator: Adobe Illustrator 19.2.0, SVG Export Plug-In . SVG Version: 6.00 Build 0)  -->
<svg version="1.1" id="Outline_Icons" xmlns="http://www.w3.org/2000/svg" xmlns:xlink="http://www.w3.org/1999/xlink" x="0px"
	 y="0px" viewBox="0 0 24 24" enable-background="new 0 0 24 24" xml:space="preserve">
<g>
	<path fill="none" stroke="#000000" stroke-linecap="round" stroke-linejoin="round" stroke-miterlimit="10" d="M16.109,14.741
		c-0.168-0.746-0.547-1.241-1.359-1.241c-1.258,0-1.477,1.186-1.477,2.65s0.219,2.463,1.477,2.463c1.047,0,1.375-0.992,1.455-2.113
		h-1.443"/>
	<polyline fill="none" stroke="#000000" stroke-linecap="round" stroke-linejoin="round" stroke-miterlimit="10" points="8.5,18.5 
		8.5,13.5 11.5,18.5 11.5,13.5 	"/>
	<path fill="none" stroke="#000000" stroke-linecap="round" stroke-linejoin="round" stroke-miterlimit="10" d="M3.5,18.5v-5h1.74
		c1.057,0,1.24,0.582,1.24,1.297c0,0.716-0.184,1.297-1.24,1.703H3.5"/>
	<g>
		<g>
			<g>
				<g>
					<polygon fill="none" stroke="#000000" stroke-linecap="round" stroke-linejoin="round" stroke-miterlimit="10" points="
						19.5,23.5 0.5,23.5 0.5,0.5 13.5,0.5 19.5,6.5 					"/>
					<polyline fill="none" stroke="#000000" stroke-linecap="round" stroke-linejoin="round" stroke-miterlimit="10" points="
						13.5,0.5 13.5,6.5 19.5,6.5 					"/>
				</g>
			</g>
		</g>
	</g>
</g>
</svg>
