<?xml version="1.0" encoding="utf-8"?>
<!-- Generator: Adobe Illustrator 19.2.0, SVG Export Plug-In . SVG Version: 6.00 Build 0)  -->
<svg version="1.1" id="Layer_1" xmlns="http://www.w3.org/2000/svg" xmlns:xlink="http://www.w3.org/1999/xlink" x="0px" y="0px"
	 viewBox="0 0 24 24" enable-background="new 0 0 24 24" xml:space="preserve">
<g id="Filled_Icons" display="none">
	<path display="inline" d="M21.853,6.146l-6-6C15.76,0.053,15.633,0,15.5,0h-13C2.225,0,2,0.224,2,0.5v23C2,23.775,2.225,24,2.5,24
		h19c0.275,0,0.5-0.225,0.5-0.5v-17C22,6.367,21.947,6.24,21.853,6.146z M14,13.21v3.58v0.71c0,0.827-0.673,1.5-1.5,1.5h-5
		C6.673,19,6,18.327,6,17.5v-5C6,11.673,6.673,11,7.5,11h5c0.827,0,1.5,0.673,1.5,1.5V13.21z M18,16.844
		c0,0.432-0.18,0.801-0.494,1.01c-0.176,0.117-0.382,0.176-0.6,0.176c-0.17,0-0.348-0.035-0.522-0.108L15,17.264v-4.527l1.363-0.646
		c0.421-0.177,0.828-0.151,1.143,0.058C17.82,12.356,18,12.725,18,13.156V16.844z M15.5,6.5v-6l6,6H15.5z"/>
</g>
<g id="Outline_Icons">
	<g>
		<path fill="none" stroke="#000000" stroke-linejoin="round" stroke-miterlimit="10" d="M13.5,17.5c0,0.55-0.45,1-1,1h-5
			c-0.55,0-1-0.45-1-1v-5c0-0.549,0.45-1,1-1h5c0.55,0,1,0.451,1,1V17.5z"/>
		<path fill="none" stroke="#000000" stroke-linecap="round" stroke-linejoin="round" stroke-miterlimit="10" d="M13.5,16
			l3.077,1.459c0.507,0.211,0.923-0.064,0.923-0.615v-3.688c0-0.551-0.416-0.826-0.923-0.614L13.5,14"/>
		<g>
			<polygon fill="none" stroke="#000000" stroke-linecap="round" stroke-linejoin="round" stroke-miterlimit="10" points="
				21.5,23.5 2.5,23.5 2.5,0.5 15.5,0.5 21.5,6.5 			"/>
			<polyline fill="none" stroke="#000000" stroke-linecap="round" stroke-linejoin="round" stroke-miterlimit="10" points="
				15.5,0.5 15.5,6.5 21.5,6.5 			"/>
		</g>
	</g>
</g>
</svg>
