<?xml version="1.0" encoding="utf-8"?>
<!-- Generator: Adobe Illustrator 19.2.0, SVG Export Plug-In . SVG Version: 6.00 Build 0)  -->
<svg version="1.1" id="Outline_Icons" xmlns="http://www.w3.org/2000/svg" xmlns:xlink="http://www.w3.org/1999/xlink" x="0px"
	 y="0px" viewBox="0 0 24 24" enable-background="new 0 0 24 24" xml:space="preserve">
<g>
	<path fill="none" stroke="#000000" stroke-linecap="round" stroke-linejoin="round" stroke-miterlimit="10" d="M7.988,16.5
		c-2.486,0-4.5-2.015-4.5-4.5s2.014-4.5,4.5-4.5c2.152,0,3.952,1.512,4.395,3.531"/>
	<polyline fill="none" stroke="#000000" stroke-linecap="round" stroke-linejoin="round" stroke-miterlimit="10" points="7.488,10 
		7.488,12.5 8.988,12.5 	"/>
	<g>
		<g>
			<g>
				<path fill="none" stroke="#000000" stroke-linejoin="round" stroke-miterlimit="10" d="M16,13.762
					c-0.5,0.186-1.013,0.465-1.429,0.82l-1.095-0.631l-1.501,2.598l1.091,0.631c-0.049,0.266-0.079,0.54-0.079,0.82
					c0,0.281,0.029,0.555,0.078,0.821l-1.092,0.63l1.5,2.598l1.098-0.63c0.416,0.356,0.929,0.634,1.429,0.819V23.5h3v-1.262
					c0.5-0.186,0.999-0.464,1.415-0.819l1.088,0.63l1.498-2.598l-1.091-0.63c0.049-0.267,0.077-0.54,0.077-0.821
					c0-0.28-0.029-0.555-0.078-0.82L23,16.549l-1.5-2.598l-1.085,0.631c-0.416-0.355-0.915-0.635-1.415-0.82V12.5h-3V13.762z"/>
			</g>
			<circle fill="none" stroke="#000000" stroke-linejoin="round" stroke-miterlimit="10" cx="17.487" cy="18" r="2"/>
		</g>
	</g>
	<g>
		<polyline fill="none" stroke="#000000" stroke-linejoin="round" stroke-miterlimit="10" points="11,21.5 0.5,21.5 0.5,0.5 
			11.5,0.5 16.5,5.5 16.488,11 		"/>
		<polyline fill="none" stroke="#000000" stroke-linecap="round" stroke-linejoin="round" stroke-miterlimit="10" points="11.5,0.5 
			11.5,5.5 16.5,5.5 		"/>
	</g>
</g>
</svg>
