<?xml version="1.0" encoding="utf-8"?>
<!-- Generator: Adobe Illustrator 19.2.0, SVG Export Plug-In . SVG Version: 6.00 Build 0)  -->
<svg version="1.1" id="Layer_1" xmlns="http://www.w3.org/2000/svg" xmlns:xlink="http://www.w3.org/1999/xlink" x="0px" y="0px"
	 viewBox="0 0 24 24" enable-background="new 0 0 24 24" xml:space="preserve">
<g id="Filled_Icons" display="none">
	<g display="inline">
		<rect x="11" y="11" width="2" height="8"/>
		<rect x="8" y="17" width="2" height="2"/>
		<rect x="5" y="15" width="2" height="4"/>
		<path d="M17.853,6.146l-5.999-6C11.76,0.053,11.633,0,11.5,0h-11C0.225,0,0,0.224,0,0.5v23C0,23.775,0.225,24,0.5,24h17
			c0.275,0,0.5-0.225,0.5-0.5v-17C18,6.367,17.947,6.24,17.853,6.146z M14,19.5c0,0.275-0.225,0.5-0.5,0.5h-9
			C4.225,20,4,19.775,4,19.5V8c0-0.276,0.225-0.5,0.5-0.5C4.776,7.5,5,7.724,5,8v6h2.5C7.776,14,8,14.225,8,14.5V16h2v-5.5
			c0-0.276,0.225-0.5,0.5-0.5h3c0.275,0,0.5,0.224,0.5,0.5V19.5z M11.5,6.5v-6l6,6H11.5z"/>
	</g>
</g>
<g id="Outline_Icons">
	<g>
		<polygon fill="none" stroke="#000000" stroke-linecap="round" stroke-linejoin="round" stroke-miterlimit="10" points="17.5,23.5 
			0.5,23.5 0.5,0.5 11.5,0.5 17.5,6.5 		"/>
		<polyline fill="none" stroke="#000000" stroke-linecap="round" stroke-linejoin="round" stroke-miterlimit="10" points="11.5,0.5 
			11.5,6.5 17.5,6.5 		"/>
		<polyline fill="none" stroke="#000000" stroke-linecap="round" stroke-linejoin="round" stroke-miterlimit="10" points="4.5,8 
			4.5,19.5 13.5,19.5 		"/>
		
			<line fill="none" stroke="#000000" stroke-linecap="round" stroke-linejoin="round" stroke-miterlimit="10" x1="7.5" y1="14.5" x2="7.5" y2="19.5"/>
		
			<line fill="none" stroke="#000000" stroke-linecap="round" stroke-linejoin="round" stroke-miterlimit="10" x1="10.5" y1="10.5" x2="10.5" y2="19.5"/>
		
			<line fill="none" stroke="#000000" stroke-linecap="round" stroke-linejoin="round" stroke-miterlimit="10" x1="13.5" y1="10.5" x2="13.5" y2="19.5"/>
		
			<line fill="none" stroke="#000000" stroke-linecap="round" stroke-linejoin="round" stroke-miterlimit="10" x1="7.5" y1="16.5" x2="10.5" y2="16.5"/>
		
			<line fill="none" stroke="#000000" stroke-linecap="round" stroke-linejoin="round" stroke-miterlimit="10" x1="13.5" y1="10.5" x2="10.5" y2="10.5"/>
		
			<line fill="none" stroke="#000000" stroke-linecap="round" stroke-linejoin="round" stroke-miterlimit="10" x1="4.5" y1="14.5" x2="7.5" y2="14.5"/>
	</g>
</g>
</svg>
