<?xml version="1.0" encoding="utf-8"?>
<!-- Generator: Adobe Illustrator 19.2.0, SVG Export Plug-In . SVG Version: 6.00 Build 0)  -->
<svg version="1.1" id="Layer_1" xmlns="http://www.w3.org/2000/svg" xmlns:xlink="http://www.w3.org/1999/xlink" x="0px" y="0px"
	 viewBox="0 0 24 24" style="enable-background:new 0 0 24 24;" xml:space="preserve">
<style type="text/css">
	.st0{display:none;}
	.st1{display:inline;}
	.st2{fill:none;stroke:#000000;stroke-linecap:round;stroke-linejoin:round;stroke-miterlimit:10;}
	.st3{fill:none;stroke:#000000;stroke-linejoin:round;stroke-miterlimit:10;}
</style>
<g id="Filled_Icons" class="st0">
	<g class="st1">
		<g>
			<path d="M3.5,22C2.7,22,2,21.3,2,20.5V4H0.5C0.2,4,0,4.2,0,4.5v19C0,23.8,0.2,24,0.5,24h19c0.3,0,0.5-0.2,0.5-0.5V22H3.5z"/>
		</g>
		<g>
			<path d="M11.1,11.2c0.1-0.1,0.2-0.2,0.4-0.2c0.2,0,0.3,0.1,0.4,0.2l2.1,2.5l3.6-5.4C17.7,8.1,17.9,8,18.1,8
				c0.2,0,0.3,0.1,0.4,0.3l2.9,7.7H24V0.5C24,0.2,23.8,0,23.5,0h-20C3.2,0,3,0.2,3,0.5V16h5.2L11.1,11.2z M10,4c1.1,0,2,0.9,2,2
				s-0.9,2-2,2S8,7.1,8,6S8.9,4,10,4z"/>
			<path d="M3,17v3.5C3,20.8,3.2,21,3.5,21h20c0.3,0,0.5-0.2,0.5-0.5V17H3z"/>
		</g>
	</g>
</g>
<g id="Outline_Icons">
	<g>
		<rect x="3.5" y="0.5" class="st2" width="20" height="20"/>
		<polyline class="st3" points="21,16.5 18,8.5 14,14.5 11.5,11.5 8.5,16.5 		"/>
		<circle class="st3" cx="10" cy="6" r="1.5"/>
		<line class="st3" x1="23.5" y1="16.5" x2="3.5" y2="16.5"/>
		<polyline class="st2" points="3.5,4.5 0.5,4.5 0.5,23.5 19.5,23.5 19.5,20.5 		"/>
	</g>
</g>
</svg>
