<?xml version="1.0" encoding="utf-8"?>
<!-- Generator: Adobe Illustrator 19.2.0, SVG Export Plug-In . SVG Version: 6.00 Build 0)  -->
<svg version="1.1" id="Layer_1" xmlns="http://www.w3.org/2000/svg" xmlns:xlink="http://www.w3.org/1999/xlink" x="0px" y="0px"
	 viewBox="0 0 24 24" style="enable-background:new 0 0 24 24;" xml:space="preserve">
<style type="text/css">
	.st0{display:none;}
	.st1{display:inline;}
	.st2{fill:none;stroke:#000000;stroke-linejoin:round;stroke-miterlimit:10;}
	.st3{fill:none;stroke:#000000;stroke-linecap:round;stroke-linejoin:round;stroke-miterlimit:10;}
</style>
<g id="Filled_Icons" class="st0">
	<g class="st1">
		<path d="M3.5,22C2.7,22,2,21.3,2,20.5V4H0.5C0.2,4,0,4.2,0,4.5v19C0,23.8,0.2,24,0.5,24h19c0.3,0,0.5-0.2,0.5-0.5V22H3.5z"/>
		<path d="M23.5,0h-20C3.2,0,3,0.2,3,0.5v20C3,20.8,3.2,21,3.5,21h20c0.3,0,0.5-0.2,0.5-0.5v-20C24,0.2,23.8,0,23.5,0z M20,16.5
			c0,0.8-0.7,1.5-1.5,1.5h-10C7.7,18,7,17.3,7,16.5v-4C7,12.2,7.2,12,7.5,12h12c0.3,0,0.5,0.2,0.5,0.5V16.5z M19.5,11h-12
			C7.2,11,7,10.8,7,10.5c0-2,0.9-3.8,2.4-5L7.8,3.8c-0.2-0.2-0.2-0.5,0-0.7c0.2-0.2,0.5-0.2,0.7,0l1.6,1.7c1-0.6,2.1-0.9,3.3-0.9
			c1.2,0,2.4,0.4,3.4,1l1.7-1.8c0.2-0.2,0.5-0.2,0.7,0c0.2,0.2,0.2,0.5,0,0.7l-1.6,1.7c1.4,1.2,2.3,3,2.3,5C20,10.8,19.8,11,19.5,11
			z"/>
		<g>
			<circle cx="11.5" cy="7.5" r="0.5"/>
		</g>
		<g>
			<circle cx="15.5" cy="7.5" r="0.5"/>
		</g>
	</g>
</g>
<g id="Outline_Icons">
	<g>
		<path class="st2" d="M18.5,17.5c0.6,0,1-0.4,1-1v-4h-12v4c0,0.6,0.4,1,1,1H18.5z"/>
		<line class="st3" x1="10.1" y1="5.5" x2="8.2" y2="3.5"/>
		<line class="st3" x1="17.1" y1="5.5" x2="18.9" y2="3.5"/>
		<rect x="3.5" y="0.5" class="st3" width="20" height="20"/>
		<path class="st2" d="M19.5,10.5c0-3.3-2.7-6-6-6c-3.3,0-6,2.7-6,6H19.5z"/>
		<g>
			<g>
				<path d="M11.5,7C11.2,7,11,7.2,11,7.5C11,7.8,11.2,8,11.5,8C11.8,8,12,7.8,12,7.5C12,7.2,11.8,7,11.5,7L11.5,7z"/>
			</g>
		</g>
		<g>
			<g>
				<path d="M15.5,7C15.2,7,15,7.2,15,7.5C15,7.8,15.2,8,15.5,8C15.8,8,16,7.8,16,7.5C16,7.2,15.8,7,15.5,7L15.5,7z"/>
			</g>
		</g>
		<polyline class="st3" points="3.5,4.5 0.5,4.5 0.5,23.5 19.5,23.5 19.5,20.5 		"/>
	</g>
</g>
</svg>
