<?xml version="1.0" encoding="utf-8"?>
<!-- Generator: Adobe Illustrator 19.2.0, SVG Export Plug-In . SVG Version: 6.00 Build 0)  -->
<svg version="1.1" id="Layer_1" xmlns="http://www.w3.org/2000/svg" xmlns:xlink="http://www.w3.org/1999/xlink" x="0px" y="0px"
	 viewBox="0 0 24 24" style="enable-background:new 0 0 24 24;" xml:space="preserve">
<style type="text/css">
	.st0{display:none;}
	.st1{display:inline;}
	.st2{fill:none;stroke:#000000;stroke-linecap:round;stroke-linejoin:round;stroke-miterlimit:10;}
</style>
<g id="Filled_Icons" class="st0">
	<path class="st1" d="M24,0.3C23.9,0.1,23.7,0,23.5,0h-23C0.3,0,0.1,0.1,0,0.3C0,0.5,0,0.7,0.1,0.8l9.9,12v10.7
		c0,0.2,0.1,0.4,0.3,0.5c0.1,0,0.1,0,0.2,0c0.1,0,0.3-0.1,0.4-0.1l3-3c0.1-0.1,0.1-0.2,0.1-0.4v-7.7l9.9-12C24,0.7,24,0.5,24,0.3z"
		/>
</g>
<g id="Outline_Icons">
	<g>
		<polygon class="st2" points="23.5,0.5 0.5,0.5 10.5,12.6 10.5,23.5 13.5,20.5 13.5,12.6 		"/>
	</g>
</g>
</svg>
