<?xml version="1.0" encoding="utf-8"?>
<!-- Generator: Adobe Illustrator 19.2.0, SVG Export Plug-In . SVG Version: 6.00 Build 0)  -->
<svg version="1.1" id="Layer_1" xmlns="http://www.w3.org/2000/svg" xmlns:xlink="http://www.w3.org/1999/xlink" x="0px" y="0px"
	 viewBox="0 0 24 24" style="enable-background:new 0 0 24 24;" xml:space="preserve">
<style type="text/css">
	.st0{display:none;}
	.st1{display:inline;}
	.st2{fill:none;stroke:#000000;stroke-linecap:round;stroke-linejoin:round;stroke-miterlimit:10;}
</style>
<g id="Filled_Icons" class="st0">
	<g class="st1">
		<path d="M3.5,22C2.7,22,2,21.3,2,20.5V4H0.5C0.2,4,0,4.2,0,4.5v19C0,23.8,0.2,24,0.5,24h19c0.3,0,0.5-0.2,0.5-0.5V22H3.5z"/>
		<path d="M23.5,0h-20C3.2,0,3,0.2,3,0.5v20C3,20.8,3.2,21,3.5,21h20c0.3,0,0.5-0.2,0.5-0.5v-20C24,0.2,23.8,0,23.5,0z M12.5,11H10
			v2.5c0,0.3-0.2,0.5-0.5,0.5C9.2,14,9,13.8,9,13.5V11H6.5C6.2,11,6,10.8,6,10.5C6,10.2,6.2,10,6.5,10H9V7.5C9,7.2,9.2,7,9.5,7
			C9.8,7,10,7.2,10,7.5V10h2.5c0.3,0,0.5,0.2,0.5,0.5C13,10.8,12.8,11,12.5,11z M18.1,15.5c0,0.2-0.3,0.4-0.5,0.4c0,0-0.1,0-0.1,0
			c-0.3-0.1-0.4-0.3-0.4-0.6l1.5-7.6L16.6,9c-0.2,0.1-0.5,0.1-0.7-0.1c-0.2-0.2-0.1-0.5,0.1-0.7l3.1-2c0.2-0.1,0.4-0.1,0.6,0
			c0.2,0.1,0.2,0.3,0.2,0.5L18.1,15.5z"/>
	</g>
</g>
<g id="Outline_Icons">
	<g>
		<line class="st2" x1="6.5" y1="10.5" x2="12.5" y2="10.5"/>
		<line class="st2" x1="6.5" y1="10.5" x2="12.5" y2="10.5"/>
		<line class="st2" x1="9.5" y1="7.5" x2="9.5" y2="13.5"/>
		<line class="st2" x1="9.5" y1="7.5" x2="9.5" y2="13.5"/>
		<polyline class="st2" points="16.3,8.6 19.4,6.5 17.7,15.4 		"/>
		<rect x="3.5" y="0.5" class="st2" width="20" height="20"/>
		<polyline class="st2" points="3.5,4.5 0.5,4.5 0.5,23.5 19.5,23.5 19.5,20.5 		"/>
	</g>
</g>
</svg>
