<?xml version="1.0" encoding="utf-8"?>
<!-- Generator: Adobe Illustrator 19.2.0, SVG Export Plug-In . SVG Version: 6.00 Build 0)  -->
<svg version="1.1" id="Layer_1" xmlns="http://www.w3.org/2000/svg" xmlns:xlink="http://www.w3.org/1999/xlink" x="0px" y="0px"
	 viewBox="0 0 24 24" style="enable-background:new 0 0 24 24;" xml:space="preserve">
<style type="text/css">
	.st0{display:none;}
	.st1{display:inline;}
	.st2{fill:none;stroke:#000000;stroke-linecap:round;stroke-linejoin:round;stroke-miterlimit:10;}
</style>
<g id="Filled_Icons" class="st0">
	<g class="st1">
		<path d="M5,19c-1.7,0-3-1.3-3-3V4H1.5C0.7,4,0,4.7,0,5.5v14C0,20.3,0.7,21,1.5,21h17c0.8,0,1.5-0.7,1.5-1.5V19H5z"/>
		<g>
			<path d="M13.8,10.4c-0.1,0.1-0.2,0.1-0.3,0.1s-0.2,0-0.3-0.1L3.3,1C3.1,1.3,3,1.6,3,2v14c0,1.1,0.9,2,2,2h17c1.1,0,2-0.9,2-2V2
				c0-0.4-0.1-0.7-0.3-1L13.8,10.4z"/>
			<path d="M13.5,9.3l9.5-9C22.7,0.1,22.4,0,22,0H5C4.6,0,4.3,0.1,4,0.3L13.5,9.3z"/>
		</g>
	</g>
</g>
<g id="Outline_Icons">
	<g>
		<g>
			<path class="st2" d="M23.5,16c0,0.8-0.7,1.5-1.5,1.5H5c-0.8,0-1.5-0.7-1.5-1.5V2c0-0.8,0.7-1.5,1.5-1.5h17c0.8,0,1.5,0.7,1.5,1.5
				V16z"/>
			<polyline class="st2" points="23,1 13.5,10 4,1 			"/>
		</g>
		<path class="st2" d="M3.5,4.5h-2c-0.5,0-1,0.5-1,1v14c0,0.5,0.5,1,1,1h17c0.5,0,1-0.5,1-1v-2"/>
	</g>
</g>
</svg>
