<?xml version="1.0" encoding="utf-8"?>
<!-- Generator: Adobe Illustrator 19.2.0, SVG Export Plug-In . SVG Version: 6.00 Build 0)  -->
<svg version="1.1" id="Layer_1" xmlns="http://www.w3.org/2000/svg" xmlns:xlink="http://www.w3.org/1999/xlink" x="0px" y="0px"
	 viewBox="0 0 24 24" style="enable-background:new 0 0 24 24;" xml:space="preserve">
<style type="text/css">
	.st0{display:none;}
	.st1{display:inline;}
	.st2{fill:none;stroke:#000000;stroke-linecap:round;stroke-linejoin:round;stroke-miterlimit:10;}
</style>
<g id="Filled_Icons" class="st0">
	<path class="st1" d="M18.8,9.8C19.5,8.9,20,7.6,20,6.5V4c0-2.6-5.2-4-10-4C5.2,0,0,1.4,0,4v2.5c0,1.2,0.7,2.9,1.6,3.8L8,16.7v5.8
		C8,23.3,8.7,24,9.5,24h1c0.8,0,1.5-0.7,1.5-1.5v-3c0.8,0.4,1.6,0.5,2.5,0.5c3.3,0,6-2.7,6-6C20.5,12.4,19.9,11,18.8,9.8z M10,7
		C4.7,7,1,5.4,1,4c0-1.4,3.7-3,9-3c5.3,0,9,1.6,9,3C19,5.4,15.3,7,10,7z M14.5,19c-0.9,0-1.7-0.2-2.5-0.7v-1.6l6.1-6.1
		c0.9,0.9,1.4,2.1,1.4,3.4C19.5,16.8,17.3,19,14.5,19z"/>
</g>
<g id="Outline_Icons">
	<g>
		<ellipse class="st2" cx="10" cy="4" rx="9.5" ry="3.5"/>
		<path class="st2" d="M0.5,4v2.5c0,1.1,0.6,2.6,1.4,3.4l6.6,6.6"/>
		<path class="st2" d="M19.5,4v2.5c0,1.1-0.6,2.6-1.4,3.4l-6.6,6.6"/>
		<path class="st2" d="M11.5,16.5v6c0,0.5-0.4,1-1,1h-1c-0.5,0-1-0.5-1-1v-6"/>
		<g>
			<path class="st2" d="M11.5,18.6c0.9,0.6,1.9,0.9,3,0.9c3,0,5.5-2.5,5.5-5.5c0-1.6-0.7-3.1-1.9-4.1"/>
		</g>
	</g>
</g>
</svg>
