<?xml version="1.0" encoding="utf-8"?>
<!-- Generator: Adobe Illustrator 19.2.0, SVG Export Plug-In . SVG Version: 6.00 Build 0)  -->
<svg version="1.1" id="Layer_1" xmlns="http://www.w3.org/2000/svg" xmlns:xlink="http://www.w3.org/1999/xlink" x="0px" y="0px"
	 viewBox="0 0 24 24" style="enable-background:new 0 0 24 24;" xml:space="preserve">
<style type="text/css">
	.st0{display:none;}
	.st1{display:inline;}
	.st2{fill:none;stroke:#000000;stroke-linecap:round;stroke-linejoin:round;stroke-miterlimit:10;}
	.st3{fill:none;stroke:#000000;stroke-linecap:square;stroke-linejoin:round;stroke-miterlimit:10;}
</style>
<g id="Filled_Icons" class="st0">
	<g class="st1">
		<path d="M3.5,22C2.7,22,2,21.3,2,20.5V4H0.5C0.2,4,0,4.2,0,4.5v19C0,23.8,0.2,24,0.5,24h19c0.3,0,0.5-0.2,0.5-0.5V22H3.5z"/>
		<g>
			<rect x="11" y="9" width="5" height="3"/>
			<rect x="11" y="5" width="5" height="3"/>
			<path d="M23.5,0h-20C3.2,0,3,0.2,3,0.5v20C3,20.8,3.2,21,3.5,21h20c0.3,0,0.5-0.2,0.5-0.5v-20C24,0.2,23.8,0,23.5,0z M7,17.5
				C7,17.8,6.8,18,6.5,18C6.2,18,6,17.8,6,17.5v-14C6,3.2,6.2,3,6.5,3C6.8,3,7,3.2,7,3.5V17.5z M9,17H8v-1h1V17z M9,15H8v-1h1V15z
				 M9,13H8v-1h1V13z M9,11H8v-1h1V11z M9,9H8V8h1V9z M9,7H8V6h1V7z M9,5H8V4h1V5z M17,4v1v3v1v3v1v3v1v0.5c0,0.3-0.2,0.5-0.5,0.5
				c-0.3,0-0.5-0.2-0.5-0.5V17h-5v0.5c0,0.3-0.2,0.5-0.5,0.5c-0.3,0-0.5-0.2-0.5-0.5V17v-1v-3v-1V9V8V5V4V3.5C10,3.2,10.2,3,10.5,3
				C10.8,3,11,3.2,11,3.5V4h5V3.5C16,3.2,16.2,3,16.5,3C16.8,3,17,3.2,17,3.5V4z M19,17h-1v-1h1V17z M19,15h-1v-1h1V15z M19,13h-1
				v-1h1V13z M19,11h-1v-1h1V11z M19,9h-1V8h1V9z M19,7h-1V6h1V7z M19,5h-1V4h1V5z M21,17.5c0,0.3-0.2,0.5-0.5,0.5
				c-0.3,0-0.5-0.2-0.5-0.5v-14C20,3.2,20.2,3,20.5,3C20.8,3,21,3.2,21,3.5V17.5z"/>
			<rect x="11" y="13" width="5" height="3"/>
		</g>
	</g>
</g>
<g id="Outline_Icons">
	<g>
		<rect x="3.5" y="0.5" class="st2" width="20" height="20"/>
		<polyline class="st2" points="3.5,4.5 0.5,4.5 0.5,23.5 19.5,23.5 19.5,20.5 		"/>
		<line class="st2" x1="10.5" y1="17.5" x2="10.5" y2="3.5"/>
		<line class="st2" x1="16.5" y1="3.5" x2="16.5" y2="17.5"/>
		<g>
			<g>
				<polygon points="19,8 18,8 18,9 19,9 				"/>
			</g>
		</g>
		<g>
			<g>
				<polygon points="19,10 18,10 18,11 19,11 				"/>
			</g>
		</g>
		<g>
			<g>
				<polygon points="19,12 18,12 18,13 19,13 				"/>
			</g>
		</g>
		<g>
			<g>
				<polygon points="9,8 8,8 8,9 9,9 				"/>
			</g>
		</g>
		<g>
			<g>
				<polygon points="19,6 18,6 18,7 19,7 				"/>
			</g>
		</g>
		<g>
			<g>
				<polygon points="19,4 18,4 18,5 19,5 				"/>
			</g>
		</g>
		<g>
			<g>
				<polygon points="9,6 8,6 8,7 9,7 				"/>
			</g>
		</g>
		<g>
			<g>
				<polygon points="9,4 8,4 8,5 9,5 				"/>
			</g>
		</g>
		<g>
			<g>
				<polygon points="9,10 8,10 8,11 9,11 				"/>
			</g>
		</g>
		<g>
			<g>
				<polygon points="9,12 8,12 8,13 9,13 				"/>
			</g>
		</g>
		<g>
			<g>
				<polygon points="9,14 8,14 8,15 9,15 				"/>
			</g>
		</g>
		<g>
			<g>
				<polygon points="9,16 8,16 8,17 9,17 				"/>
			</g>
		</g>
		<g>
			<g>
				<polygon points="19,14 18,14 18,15 19,15 				"/>
			</g>
		</g>
		<g>
			<g>
				<polygon points="19,16 18,16 18,17 19,17 				"/>
			</g>
		</g>
		<line class="st2" x1="6.5" y1="17.5" x2="6.5" y2="3.5"/>
		<line class="st2" x1="20.5" y1="3.5" x2="20.5" y2="17.5"/>
		<line class="st3" x1="10.5" y1="8.5" x2="16.5" y2="8.5"/>
		<line class="st3" x1="10.5" y1="12.5" x2="16.5" y2="12.5"/>
		<line class="st3" x1="10.5" y1="4.5" x2="16.5" y2="4.5"/>
		<line class="st3" x1="10.5" y1="16.5" x2="16.5" y2="16.5"/>
	</g>
</g>
</svg>
