<?xml version="1.0" encoding="utf-8"?>
<!-- Generator: Adobe Illustrator 19.2.0, SVG Export Plug-In . SVG Version: 6.00 Build 0)  -->
<svg version="1.1" id="Layer_1" xmlns="http://www.w3.org/2000/svg" xmlns:xlink="http://www.w3.org/1999/xlink" x="0px" y="0px"
	 viewBox="0 0 24 24" style="enable-background:new 0 0 24 24;" xml:space="preserve">
<style type="text/css">
	.st0{display:none;}
	.st1{display:inline;}
	.st2{fill:none;stroke:#000000;stroke-linecap:round;stroke-linejoin:round;stroke-miterlimit:10;}
</style>
<g id="Filled_Icons" class="st0">
	<g class="st1">
		<path d="M23.5,11h-10c-0.3,0-0.5,0.2-0.5,0.5v12c0,0.3,0.2,0.5,0.5,0.5h10c0.3,0,0.5-0.2,0.5-0.5v-12C24,11.2,23.8,11,23.5,11z
			 M21.5,22h-6c-0.3,0-0.5-0.2-0.5-0.5c0-0.3,0.2-0.5,0.5-0.5h6c0.3,0,0.5,0.2,0.5,0.5C22,21.8,21.8,22,21.5,22z M21.5,20h-6
			c-0.3,0-0.5-0.2-0.5-0.5c0-0.3,0.2-0.5,0.5-0.5h6c0.3,0,0.5,0.2,0.5,0.5C22,19.8,21.8,20,21.5,20z M21.5,18h-6
			c-0.3,0-0.5-0.2-0.5-0.5c0-0.3,0.2-0.5,0.5-0.5h6c0.3,0,0.5,0.2,0.5,0.5C22,17.8,21.8,18,21.5,18z M21.5,16h-6
			c-0.3,0-0.5-0.2-0.5-0.5c0-0.3,0.2-0.5,0.5-0.5h6c0.3,0,0.5,0.2,0.5,0.5C22,15.8,21.8,16,21.5,16z M21.5,14h-4
			c-0.3,0-0.5-0.2-0.5-0.5c0-0.3,0.2-0.5,0.5-0.5h4c0.3,0,0.5,0.2,0.5,0.5C22,13.8,21.8,14,21.5,14z"/>
		<path d="M19,0.3C18.9,0.1,18.7,0,18.5,0h-18C0.3,0,0.1,0.1,0,0.3C0,0.5,0,0.7,0.1,0.9L8,8.7V16c0,0.2,0.1,0.4,0.3,0.5
			c0.1,0,0.1,0,0.2,0c0.1,0,0.3-0.1,0.4-0.1l2-2c0.1-0.1,0.1-0.2,0.1-0.4V8.7l7.9-7.9C19,0.7,19,0.5,19,0.3z"/>
	</g>
</g>
<g id="Outline_Icons">
	<g>
		<polygon class="st2" points="18.5,0.5 0.5,0.5 8.5,8.5 8.5,16 10.5,14 10.5,8.5 		"/>
		<line class="st2" x1="17.5" y1="13.5" x2="21.5" y2="13.5"/>
		<line class="st2" x1="15.5" y1="15.5" x2="21.5" y2="15.5"/>
		<line class="st2" x1="15.5" y1="17.5" x2="21.5" y2="17.5"/>
		<line class="st2" x1="15.5" y1="19.5" x2="21.5" y2="19.5"/>
		<line class="st2" x1="15.5" y1="21.5" x2="21.5" y2="21.5"/>
		<rect x="13.5" y="11.5" class="st2" width="10" height="12"/>
	</g>
</g>
</svg>
