<?xml version="1.0" encoding="utf-8"?>
<!-- Generator: Adobe Illustrator 19.2.0, SVG Export Plug-In . SVG Version: 6.00 Build 0)  -->
<svg version="1.1" id="Layer_1" xmlns="http://www.w3.org/2000/svg" xmlns:xlink="http://www.w3.org/1999/xlink" x="0px" y="0px"
	 viewBox="0 0 24 24" style="enable-background:new 0 0 24 24;" xml:space="preserve">
<style type="text/css">
	.st0{display:none;}
	.st1{display:inline;}
	.st2{fill:none;stroke:#000000;stroke-linejoin:round;stroke-miterlimit:10;}
	.st3{fill:none;stroke:#000000;stroke-linecap:round;stroke-linejoin:round;stroke-miterlimit:10;}
</style>
<g id="Filled_Icons" class="st0">
	<g class="st1">
		<path d="M3.5,22C2.7,22,2,21.3,2,20.5V4H0.5C0.2,4,0,4.2,0,4.5v19C0,23.8,0.2,24,0.5,24h19c0.3,0,0.5-0.2,0.5-0.5V22H3.5z"/>
		<path d="M23.5,0h-20C3.2,0,3,0.2,3,0.5v20C3,20.8,3.2,21,3.5,21h20c0.3,0,0.5-0.2,0.5-0.5v-20C24,0.2,23.8,0,23.5,0z M13.8,16.8
			c-0.1,0.1-0.2,0.1-0.3,0.1c-0.1,0-0.2,0-0.3-0.1c-0.3-0.2-6.7-4.9-6.7-8.6c0-2.5,1.9-4.1,3.7-4.1c1.1,0,2.5,0.6,3.3,2.2
			c0.8-1.6,2.2-2.2,3.3-2.2c1.8,0,3.7,1.5,3.7,4.1C20.5,11.9,14,16.6,13.8,16.8z"/>
	</g>
</g>
<g id="Outline_Icons">
	<g>
		<path class="st2" d="M13.5,16.4c0,0,6.5-4.7,6.5-8.1c0-4-5.3-5.3-6.5-0.4C12.3,3,7,4.3,7,8.3C7,11.7,13.5,16.4,13.5,16.4z"/>
		<rect x="3.5" y="0.5" class="st3" width="20" height="20"/>
		<polyline class="st3" points="3.5,4.5 0.5,4.5 0.5,23.5 19.5,23.5 19.5,20.5 		"/>
	</g>
</g>
</svg>
