<?xml version="1.0" encoding="utf-8"?>
<!-- Generator: Adobe Illustrator 19.2.0, SVG Export Plug-In . SVG Version: 6.00 Build 0)  -->
<svg version="1.1" id="Layer_1" xmlns="http://www.w3.org/2000/svg" xmlns:xlink="http://www.w3.org/1999/xlink" x="0px" y="0px"
	 viewBox="0 0 24 24" style="enable-background:new 0 0 24 24;" xml:space="preserve">
<style type="text/css">
	.st0{display:none;}
	.st1{display:inline;}
	.st2{fill:none;stroke:#000000;stroke-linecap:round;stroke-linejoin:round;stroke-miterlimit:10;}
</style>
<g id="Filled_Icons" class="st0">
	<g class="st1">
		<g>
			<path d="M3.5,22C2.7,22,2,21.3,2,20.5V4H0.5C0.2,4,0,4.2,0,4.5v19C0,23.8,0.2,24,0.5,24h19c0.3,0,0.5-0.2,0.5-0.5V22H3.5z"/>
		</g>
		<g>
			<path d="M23.5,0h-20C3.2,0,3,0.2,3,0.5v20C3,20.8,3.2,21,3.5,21h20c0.3,0,0.5-0.2,0.5-0.5v-20C24,0.2,23.8,0,23.5,0z M13.5,15.8
				c-2.2,0-3-1.7-3-3.3V9.8c0-2.3,1.1-4.7,4.2-4.7c0.3,0,0.5,0.2,0.5,0.5c0,0.3-0.2,0.5-0.5,0.5c-2.9,0-3.2,2.6-3.2,3.7v0.1
				c0.5-0.4,1.1-0.7,2-0.7c2.2,0,3,1.7,3,3.3C16.5,14.1,15.7,15.8,13.5,15.8z"/>
			<path d="M13.5,10.2c-1.7,0-2,1.5-2,2.3c0,0.9,0.3,2.3,2,2.3c1.7,0,2-1.5,2-2.3C15.5,11.6,15.2,10.2,13.5,10.2z"/>
		</g>
	</g>
</g>
<g id="Outline_Icons">
	<g>
		<rect x="3.5" y="0.5" class="st2" width="20" height="20"/>
		<polyline class="st2" points="3.5,4.5 0.5,4.5 0.5,23.5 19.5,23.5 19.5,20.5 		"/>
		<g>
			<path class="st2" d="M13.5,9.7c2.1,0,2.5,1.8,2.5,2.8c0,1-0.4,2.8-2.5,2.8c-2.1,0-2.5-1.8-2.5-2.8C11,11.5,11.4,9.7,13.5,9.7z"/>
			<path class="st2" d="M14.7,5.7c-3.1,0-3.7,2.7-3.7,4.2v2.7"/>
		</g>
	</g>
</g>
</svg>
