<?xml version="1.0" encoding="utf-8"?>
<!-- Generator: Adobe Illustrator 19.2.0, SVG Export Plug-In . SVG Version: 6.00 Build 0)  -->
<svg version="1.1" id="Layer_1" xmlns="http://www.w3.org/2000/svg" xmlns:xlink="http://www.w3.org/1999/xlink" x="0px" y="0px"
	 viewBox="0 0 24 24" style="enable-background:new 0 0 24 24;" xml:space="preserve">
<style type="text/css">
	.st0{display:none;}
	.st1{display:inline;}
	.st2{fill:none;stroke:#000000;stroke-linecap:round;stroke-linejoin:round;stroke-miterlimit:10;}
</style>
<g id="Filled_Icons" class="st0">
	<g class="st1">
		<path d="M3.5,22C2.7,22,2,21.3,2,20.5V4H0.5C0.2,4,0,4.2,0,4.5v19C0,23.8,0.2,24,0.5,24h19c0.3,0,0.5-0.2,0.5-0.5V22H3.5z"/>
		<path d="M23.5,0h-20C3.2,0,3,0.2,3,0.5v20C3,20.8,3.2,21,3.5,21h20c0.3,0,0.5-0.2,0.5-0.5v-20C24,0.2,23.8,0,23.5,0z M21,12.5
			c0,0.3-0.2,0.5-0.5,0.5H16v4.5c0,0.3-0.2,0.5-0.5,0.5h-4c-0.3,0-0.5-0.2-0.5-0.5V13H6.5C6.2,13,6,12.8,6,12.5v-4
			C6,8.2,6.2,8,6.5,8H11V3.5C11,3.2,11.2,3,11.5,3h4C15.8,3,16,3.2,16,3.5V8h4.5C20.8,8,21,8.2,21,8.5V12.5z"/>
	</g>
</g>
<g id="Outline_Icons">
	<g>
		<rect x="3.5" y="0.5" class="st2" width="20" height="20"/>
		<polygon class="st2" points="20.5,8.5 15.5,8.5 15.5,3.5 11.5,3.5 11.5,8.5 6.5,8.5 6.5,12.5 11.5,12.5 11.5,17.5 15.5,17.5 
			15.5,12.5 20.5,12.5 		"/>
		<polyline class="st2" points="3.5,4.5 0.5,4.5 0.5,23.5 19.5,23.5 19.5,20.5 		"/>
	</g>
</g>
</svg>
