<?xml version="1.0" encoding="utf-8"?>
<!-- Generator: Adobe Illustrator 19.2.0, SVG Export Plug-In . SVG Version: 6.00 Build 0)  -->
<svg version="1.1" id="Layer_1" xmlns="http://www.w3.org/2000/svg" xmlns:xlink="http://www.w3.org/1999/xlink" x="0px" y="0px"
	 viewBox="0 0 24 24" style="enable-background:new 0 0 24 24;" xml:space="preserve">
<style type="text/css">
	.st0{display:none;}
	.st1{display:inline;}
	.st2{fill:none;stroke:#000000;stroke-linecap:round;stroke-linejoin:round;stroke-miterlimit:10;}
</style>
<g id="Filled_Icons" class="st0">
	<g class="st1">
		<g>
			<path d="M3.5,22C2.7,22,2,21.3,2,20.5V4H0.5C0.2,4,0,4.2,0,4.5v19C0,23.8,0.2,24,0.5,24h19c0.3,0,0.5-0.2,0.5-0.5V22H3.5z"/>
		</g>
		<g>
			<path d="M11.7,12.9c0,0.7,0.2,1.9,1.8,1.9c1.6,0,1.8-1.2,1.8-1.9c0-0.7-0.2-1.9-1.8-1.9C11.9,11,11.7,12.2,11.7,12.9z"/>
			<path d="M15.3,8.1c0-0.7-0.2-1.9-1.8-1.9c-1.6,0-1.8,1.2-1.8,1.9c0,0.7,0.2,1.9,1.8,1.9C15.1,10,15.3,8.8,15.3,8.1z"/>
			<path d="M23.5,0h-20C3.2,0,3,0.2,3,0.5v20C3,20.8,3.2,21,3.5,21h20c0.3,0,0.5-0.2,0.5-0.5v-20C24,0.2,23.8,0,23.5,0z M16.3,12.9
				c0,1.4-0.7,2.9-2.8,2.9c-2.1,0-2.8-1.5-2.8-2.9c0-0.9,0.3-1.9,1.1-2.4C11,9.9,10.7,9,10.7,8.1c0-1.4,0.7-2.9,2.8-2.9
				c2.1,0,2.8,1.5,2.8,2.9c0,0.9-0.3,1.9-1.1,2.4C16,11.1,16.3,12,16.3,12.9z"/>
		</g>
	</g>
</g>
<g id="Outline_Icons">
	<g>
		<rect x="3.5" y="0.5" class="st2" width="20" height="20"/>
		<polyline class="st2" points="3.5,4.5 0.5,4.5 0.5,23.5 19.5,23.5 19.5,20.5 		"/>
		<g>
			<path class="st2" d="M13.5,5.6c1.9,0,2.3,1.6,2.3,2.4c0,0.9-0.3,2.4-2.3,2.4c-2,0-2.3-1.6-2.3-2.4C11.2,7.2,11.5,5.6,13.5,5.6z"
				/>
			<path class="st2" d="M13.5,10.5c1.9,0,2.3,1.6,2.3,2.4c0,0.9-0.3,2.4-2.3,2.4c-2,0-2.3-1.6-2.3-2.4
				C11.2,12.1,11.5,10.5,13.5,10.5z"/>
		</g>
	</g>
</g>
</svg>
