<?xml version="1.0" encoding="utf-8"?>
<!-- Generator: Adobe Illustrator 19.2.0, SVG Export Plug-In . SVG Version: 6.00 Build 0)  -->
<svg version="1.1" id="Layer_1" xmlns="http://www.w3.org/2000/svg" xmlns:xlink="http://www.w3.org/1999/xlink" x="0px" y="0px"
	 viewBox="0 0 24 24" style="enable-background:new 0 0 24 24;" xml:space="preserve">
<style type="text/css">
	.st0{display:none;}
	.st1{display:inline;}
	.st2{fill:none;stroke:#000000;stroke-linecap:round;stroke-linejoin:round;stroke-miterlimit:10;}
</style>
<g id="Filled_Icon" class="st0">
	<g class="st1">
		<path d="M23.9,23.1l-5.6-5.6c1.7-1.9,2.7-4.3,2.7-7.1C21,4.7,16.3,0,10.5,0S0,4.7,0,10.5S4.7,21,10.5,21c2.7,0,5.2-1,7-2.7
			l5.6,5.6c0.1,0.1,0.2,0.1,0.4,0.1c0.1,0,0.3,0,0.4-0.1C24,23.7,24,23.3,23.9,23.1z M1,10.5C1,5.3,5.3,1,10.5,1
			c5.2,0,9.5,4.3,9.5,9.5c0,5.2-4.3,9.5-9.5,9.5C5.3,20,1,15.7,1,10.5z"/>
		<path d="M12.6,7.8h-1.1C11.2,7.8,11,8,11,8.3v4.5c0,0.3,0.2,0.5,0.5,0.5h1.1c1,0,1.6-0.5,1.6-1.6c0-0.5-0.1-0.9-0.3-1.1
			c0.2-0.3,0.3-0.6,0.3-1.1C14.1,8.3,13.6,7.8,12.6,7.8z M12.6,12.2H12V11h0.6c0.5,0,0.6,0.1,0.6,0.6C13.1,12.1,13.1,12.2,12.6,12.2
			z M12.6,10H12V8.8h0.6c0.5,0,0.6,0.1,0.6,0.6C13.1,9.9,13.1,10,12.6,10z"/>
		<path d="M5.4,7.7C5.1,7.7,4.9,8,4.9,8.2l0,3.5c0,0,0,0.2-0.1,0.4c-0.2,0.2-0.7,0.2-0.9,0c-0.1-0.1-0.1-0.3-0.1-0.4
			c0-0.3-0.2-0.5-0.5-0.5c-0.3,0-0.5,0.2-0.5,0.5c0,0.1,0,0.7,0.4,1.1c0.2,0.2,0.6,0.5,1.2,0.5c0.6,0,1-0.2,1.2-0.5
			c0.4-0.4,0.4-1,0.4-1.1V8.2C5.9,8,5.7,7.7,5.4,7.7z"/>
		<path d="M8.5,7.7c-1.8,0-1.8,2-1.8,2.8c0,0.8,0,2.8,1.8,2.8c1.8,0,1.8-2,1.8-2.8C10.2,9.7,10.2,7.7,8.5,7.7z M8.5,12.3
			c-0.4,0-0.8-0.1-0.8-1.8c0-1.7,0.4-1.8,0.8-1.8c0.4,0,0.8,0.1,0.8,1.8C9.2,12.2,8.8,12.3,8.5,12.3z"/>
		<path d="M18.2,11.6c0-0.6-0.2-1.3-1.4-1.6l-0.1,0c-0.5-0.1-0.6-0.3-0.6-0.6c0-0.4,0.3-0.6,0.6-0.6c0.3,0,0.6,0.3,0.6,0.6
			c0,0.3,0.3,0.5,0.5,0.5c0.3,0,0.5-0.3,0.5-0.5c-0.1-0.9-0.7-1.5-1.6-1.5c-0.9,0-1.6,0.7-1.6,1.6c0,0.6,0.2,1.3,1.4,1.6l0.1-0.5
			l0,0.5c0.5,0.1,0.6,0.3,0.6,0.6c0,0.4-0.3,0.6-0.6,0.6c-0.3,0-0.6-0.3-0.6-0.6c0-0.3-0.3-0.5-0.5-0.5c-0.3,0-0.5,0.3-0.5,0.5
			c0.1,0.9,0.7,1.5,1.6,1.5C17.5,13.3,18.2,12.6,18.2,11.6z"/>
	</g>
</g>
<g id="Outline_Icons">
	<g>
		<circle class="st2" cx="10.5" cy="10.5" r="10"/>
		<line class="st2" x1="17.6" y1="17.6" x2="23.5" y2="23.5"/>
		<g>
			<path class="st2" d="M11.5,10.5h1.1c0.9,0,1.1,0.5,1.1,1.1c0,0.6-0.2,1.1-1.1,1.1h-1.1V8.3h1.1c0.9,0,1.1,0.5,1.1,1.1
				c0,0.6-0.2,1.1-1.1,1.1H11.5z"/>
			<path class="st2" d="M3.3,11.7c0,0-0.1,1.1,1.1,1.1c1.1,0,1.1-1,1.1-1V8.2"/>
			<path class="st2" d="M9.7,10.5c0,1.3-0.2,2.3-1.3,2.3c-1.1,0-1.3-1-1.3-2.3c0-1.3,0.2-2.3,1.3-2.3C9.5,8.2,9.7,9.2,9.7,10.5z"/>
			<path class="st2" d="M15.6,11.7c0,0.6,0.5,1.1,1.1,1.1c0.6,0,1.1-0.5,1.1-1.1c0-0.9-0.9-1.1-1.1-1.1c-0.2-0.1-1.1-0.2-1.1-1.1
				c0-0.6,0.5-1.1,1.1-1.1c0.6,0,1,0.5,1.1,1.1"/>
		</g>
	</g>
</g>
</svg>
