<?xml version="1.0" encoding="utf-8"?>
<!-- Generator: Adobe Illustrator 19.2.0, SVG Export Plug-In . SVG Version: 6.00 Build 0)  -->
<svg version="1.1" id="Layer_1" xmlns="http://www.w3.org/2000/svg" xmlns:xlink="http://www.w3.org/1999/xlink" x="0px" y="0px"
	 viewBox="0 0 24 24" style="enable-background:new 0 0 24 24;" xml:space="preserve">
<style type="text/css">
	.st0{display:none;}
	.st1{display:inline;}
	.st2{fill:none;stroke:#000000;stroke-linecap:round;stroke-linejoin:round;stroke-miterlimit:10;}
	.st3{fill:none;stroke:#000000;stroke-linejoin:round;stroke-miterlimit:10;}
</style>
<g id="Filled_Icon" class="st0">
	<g class="st1">
		<path d="M5.2,11h2.9c-0.1,0-0.2,0-0.3-0.1C7.6,10.7,6.6,10,6.5,9.1c0-0.3,0.1-0.6,0.3-0.8c0.2-0.2,0.5-0.2,0.7,0
			c0.2,0.2,0.2,0.5,0,0.7c0,0,0,0,0,0.1c0,0.2,0.5,0.7,0.9,1c0.2,0.2,0.3,0.5,0.1,0.7C8.4,10.9,8.2,11,8.1,11h3
			c-0.2,0-0.4-0.1-0.4-0.3C9.6,8.6,12,6.1,12.1,6c0.2-0.2,0.4-0.2,0.6-0.1C12.9,6,13,6.3,12.9,6.5c-0.2,0.9,0.2,1.3,0.7,1.8
			c0.5,0.5,1.2,1.2,0.6,2.5C14.2,10.9,14,11,13.8,11h2.3c-0.2,0-0.3-0.1-0.4-0.2c-0.2-0.2-0.1-0.5,0.1-0.7c0.4-0.3,0.8-0.8,0.9-1
			c0,0,0,0,0-0.1c-0.2-0.2-0.2-0.5,0-0.7c0.2-0.2,0.5-0.2,0.7,0c0.2,0.2,0.3,0.5,0.3,0.8c-0.1,0.8-1.1,1.6-1.3,1.7
			c-0.1,0.1-0.2,0.1-0.3,0.1h2.7c0.2,0,0.3-0.1,0.4-0.2c0.9-1.2,1.3-2.6,0.9-3.9c-0.4-1.3-1.5-2.3-3-2.8c-0.2-0.1-0.4,0-0.5,0.1
			c-0.1,0.1-0.2,0.3-0.1,0.5c0.2,0.5,0,0.6-0.4,1c0,0,0,0,0,0c-0.2-1.4-1-2.2-1.5-2.7c-0.7-0.7-1-1-0.3-2.3c0.1-0.2,0.1-0.4,0-0.5
			C14.1,0,13.9-0.1,13.7,0c-1.9,0.3-3.4,1.2-4.3,2.6c-0.7,1-1,2.2-0.9,3.5C8.3,5.9,8.1,5.8,8,5.7C7.2,5.2,6.9,4.9,7,4.2
			c0-0.2,0-0.4-0.2-0.5C6.7,3.6,6.5,3.6,6.3,3.6C5,4.2,4.1,5.6,3.8,7.1c-0.3,1.4,0.1,2.8,1,3.7C4.9,10.9,5,11,5.2,11z"/>
		<rect x="4.7" y="15.5" width="9.4" height="2"/>
		<rect x="8.8" y="18.5" width="9.4" height="2"/>
		<path d="M23.5,11.9h-4.2c0,0,0,0,0,0v2.5H24v-2C24,12.1,23.8,11.9,23.5,11.9z"/>
		<path d="M3.7,21.5H0v2C0,23.8,0.2,24,0.5,24h3.2c0,0,0,0,0,0V21.5z"/>
		<path d="M18.3,12C18.3,11.9,18.3,11.9,18.3,12l-9.4,0c0,0,0,0,0,0v2.5h9.4L18.3,12L18.3,12z"/>
		<path d="M14.1,21.5H4.7V24c0,0,0,0,0,0h9.5c0,0,0,0,0,0V21.5z"/>
		<rect x="15.1" y="15.5" width="8.9" height="2"/>
		<path d="M7.8,12C7.8,11.9,7.9,11.9,7.8,12l-7.3,0c-0.3,0-0.5,0.2-0.5,0.5v2h7.8V12z"/>
		<rect y="15.5" width="3.7" height="2"/>
		<rect x="19.3" y="18.5" width="4.7" height="2"/>
		<path d="M15.1,24C15.1,24,15.1,24,15.1,24l8.4,0c0.3,0,0.5-0.2,0.5-0.5v-2h-8.9V24z"/>
		<rect y="18.5" width="7.8" height="2"/>
	</g>
</g>
<g id="Outline_Icons">
	<g>
		<line class="st2" x1="0.5" y1="20.5" x2="23.5" y2="20.5"/>
		<line class="st2" x1="0.5" y1="17.5" x2="23.5" y2="17.5"/>
		<line class="st2" x1="0.5" y1="14.5" x2="23.5" y2="14.5"/>
		<line class="st3" x1="8.5" y1="11.5" x2="8.5" y2="14.5"/>
		<line class="st3" x1="18.5" y1="11.5" x2="18.5" y2="14.5"/>
		<line class="st3" x1="8.5" y1="17.5" x2="8.5" y2="20.5"/>
		<line class="st3" x1="18.5" y1="17.5" x2="18.5" y2="20.5"/>
		<line class="st3" x1="4.5" y1="20.5" x2="4.5" y2="23.5"/>
		<line class="st3" x1="14.5" y1="20.5" x2="14.5" y2="23.5"/>
		<line class="st3" x1="4.5" y1="14.5" x2="4.5" y2="17.5"/>
		<line class="st3" x1="14.5" y1="14.5" x2="14.5" y2="17.5"/>
		<rect x="0.5" y="11.5" class="st2" width="23" height="12"/>
		<path class="st2" d="M17.5,5c0.5,1.5-1,1.5-1.5,3c0.5-5-4-4-2-7.5c-4.2,0.7-6,4-5,7.9C8,6.5,5.5,6.5,6,4.5c-2.5,1.2-3.5,5-1.5,7h4
			h7h4C21.5,9,20.5,6,17.5,5z"/>
		<path class="st2" d="M11,11.5c-1-2,1.5-4.5,1.5-4.5C12,9.5,15,9.5,14,11.5"/>
		<path class="st2" d="M17.5,9.5c0.8,0.8-1,2-1,2"/>
		<path class="st2" d="M6.7,9.5c-0.8,0.8,1,2,1,2"/>
	</g>
</g>
</svg>
