<?xml version="1.0" encoding="utf-8"?>
<!-- Generator: Adobe Illustrator 19.2.0, SVG Export Plug-In . SVG Version: 6.00 Build 0)  -->
<svg version="1.1" id="Layer_1" xmlns="http://www.w3.org/2000/svg" xmlns:xlink="http://www.w3.org/1999/xlink" x="0px" y="0px"
	 viewBox="0 0 24 24" style="enable-background:new 0 0 24 24;" xml:space="preserve">
<style type="text/css">
	.st0{display:none;}
	.st1{display:inline;}
	.st2{fill:none;stroke:#000000;stroke-linejoin:round;stroke-miterlimit:10;}
	.st3{fill:none;stroke:#000000;stroke-linecap:round;stroke-linejoin:round;stroke-miterlimit:10;}
</style>
<g id="Filled_Icons" class="st0">
	<g class="st1">
		<path d="M10.5,11.1c1.8,1.3,1.7,3.9,1,5c-0.5-0.4-0.9-0.8-1-1.5C8.8,15.2,8,16.5,8,18c0,2.2,1.8,4,4,4c2.2,0,4-1.8,4-4
			C16,14.8,13.7,11.8,10.5,11.1z"/>
	</g>
	<g class="st1">
		<rect x="2" y="18" width="4" height="2"/>
		<rect x="2" y="15" width="4" height="2"/>
		<path d="M18,21v2H6v-2H2v2.5C2,23.8,2.2,24,2.5,24h3h16c0.3,0,0.5-0.2,0.5-0.5V21H18z"/>
		<rect x="2" y="12" width="4" height="2"/>
		<rect x="18" y="15" width="4" height="2"/>
		<rect x="18" y="12" width="4" height="2"/>
		<path d="M23.9,4.2C23.8,4.1,23.7,4,23.5,4h-23C0.3,4,0.2,4.1,0.1,4.2C0,4.3,0,4.5,0,4.6l1,4C1.1,8.9,1.3,9,1.5,9H2v2h4V9h12v2h4V9
			h0.5c0.2,0,0.4-0.2,0.5-0.4l1-4C24,4.5,24,4.3,23.9,4.2z"/>
		<rect x="18" y="18" width="4" height="2"/>
	</g>
</g>
<g id="Outline_Icons">
	<g>
		<path class="st2" d="M10.5,12c1.8,1.3,1.7,3.9,1,5c-0.5-0.4-0.9-0.8-1-1.5C8.8,16.1,8,17.4,8,19c0,2.2,1.8,4,4,4c2.2,0,4-1.8,4-4
			C16,15.8,13.7,12.7,10.5,12z"/>
		<polygon class="st3" points="0.5,4.5 1.5,8.5 2.5,8.5 2.5,23.5 5.5,23.5 5.5,8.5 18.5,8.5 18.5,23.5 21.5,23.5 21.5,8.5 22.5,8.5 
			23.5,4.5 		"/>
		<line class="st2" x1="5.5" y1="23.5" x2="19" y2="23.5"/>
		<line class="st2" x1="2" y1="8.5" x2="6" y2="8.5"/>
		<line class="st2" x1="2.5" y1="11.5" x2="5.5" y2="11.5"/>
		<line class="st2" x1="2.5" y1="14.5" x2="5.5" y2="14.5"/>
		<line class="st2" x1="2.5" y1="17.5" x2="5.5" y2="17.5"/>
		<line class="st2" x1="2.5" y1="20.5" x2="5.5" y2="20.5"/>
		<line class="st2" x1="18.5" y1="11.5" x2="21.5" y2="11.5"/>
		<line class="st2" x1="18.5" y1="14.5" x2="21.5" y2="14.5"/>
		<line class="st2" x1="18.5" y1="17.5" x2="21.5" y2="17.5"/>
		<line class="st2" x1="18.5" y1="20.5" x2="21.5" y2="20.5"/>
		<line class="st2" x1="17.5" y1="8.5" x2="21.5" y2="8.5"/>
	</g>
</g>
</svg>
