<?xml version="1.0" encoding="utf-8"?>
<!-- Generator: Adobe Illustrator 19.2.0, SVG Export Plug-In . SVG Version: 6.00 Build 0)  -->
<svg version="1.1" id="Layer_1" xmlns="http://www.w3.org/2000/svg" xmlns:xlink="http://www.w3.org/1999/xlink" x="0px" y="0px"
	 viewBox="0 0 24 24" style="enable-background:new 0 0 24 24;" xml:space="preserve">
<style type="text/css">
	.st0{display:none;}
	.st1{display:inline;}
	.st2{fill:none;stroke:#000000;stroke-linejoin:round;stroke-miterlimit:10;}
	.st3{fill:none;stroke:#000000;stroke-linecap:round;stroke-linejoin:round;stroke-miterlimit:10;}
</style>
<g id="Filled_Icons" class="st0">
	<g class="st1">
		<path d="M12,8c-4.4,0-8,3.6-8,8c0,4.4,3.6,8,8,8c4.4,0,8-3.6,8-8C20,11.6,16.4,8,12,8z M12,20.5c-1.7,0-3.1-1.4-3.1-3.1
			c0-1,1-2.4,1-2.4s0.8,1.1,1,1.4c1-1.6,0.3-3.7,0-4.8c2.4,0.8,4.2,3.4,4.2,5.9C15.1,19.1,13.7,20.5,12,20.5z"/>
		<g>
			<path d="M3.5,9.5C3.2,9.5,3,9.3,3,9c0-3.3,2.7-6,6-6c0.3,0,0.5,0.2,0.5,0.5C9.5,3.8,9.3,4,9,4C6.2,4,4,6.2,4,9
				C4,9.3,3.8,9.5,3.5,9.5z"/>
		</g>
		<g>
			<path d="M0.5,9.5C0.2,9.5,0,9.3,0,9c0-5,4-9,9-9c0.3,0,0.5,0.2,0.5,0.5C9.5,0.8,9.3,1,9,1C4.6,1,1,4.6,1,9C1,9.3,0.8,9.5,0.5,9.5
				z"/>
		</g>
		<g>
			<path d="M20.5,9.5C20.2,9.5,20,9.3,20,9c0-2.8-2.2-5-5-5c-0.3,0-0.5-0.2-0.5-0.5C14.5,3.2,14.7,3,15,3c3.3,0,6,2.7,6,6
				C21,9.3,20.8,9.5,20.5,9.5z"/>
		</g>
		<g>
			<path d="M23.5,9.5C23.2,9.5,23,9.3,23,9c0-4.4-3.6-8-8-8c-0.3,0-0.5-0.2-0.5-0.5C14.5,0.2,14.7,0,15,0c5,0,9,4,9,9
				C24,9.3,23.8,9.5,23.5,9.5z"/>
		</g>
	</g>
</g>
<g id="Outline_Icons">
	<g>
		<circle class="st2" cx="12" cy="16" r="7.5"/>
		<path class="st3" d="M11,11.5c0.3,1.1,1,3.2,0,4.8c-0.2-0.2-1-1.4-1-1.4s-1,1.5-1,2.4c0,1.7,1.4,3.1,3.1,3.1
			c1.7,0,3.1-1.4,3.1-3.1C15.1,14.9,13.4,12.3,11,11.5z"/>
		<path class="st3" d="M3.5,9C3.5,6,6,3.5,9,3.5"/>
		<path class="st3" d="M0.5,9c0-4.7,3.8-8.5,8.5-8.5"/>
		<path class="st3" d="M20.5,9c0-3-2.5-5.5-5.5-5.5"/>
		<path class="st3" d="M23.5,9c0-4.7-3.8-8.5-8.5-8.5"/>
	</g>
</g>
</svg>
