<?xml version="1.0" encoding="utf-8"?>
<!-- Generator: Adobe Illustrator 19.2.0, SVG Export Plug-In . SVG Version: 6.00 Build 0)  -->
<svg version="1.1" id="Layer_1" xmlns="http://www.w3.org/2000/svg" xmlns:xlink="http://www.w3.org/1999/xlink" x="0px" y="0px"
	 viewBox="0 0 24 24" style="enable-background:new 0 0 24 24;" xml:space="preserve">
<style type="text/css">
	.st0{display:none;}
	.st1{display:inline;}
	.st2{fill:none;stroke:#000000;stroke-linecap:round;stroke-linejoin:round;stroke-miterlimit:10;}
</style>
<g id="Filled_Icons" class="st0">
	<g class="st1">
		<path d="M11.5,7.5C9.6,7.5,8,9.1,8,11c0,1.9,1.6,3.5,3.5,3.5c1.9,0,3.5-1.6,3.5-3.5C15,9.1,13.4,7.5,11.5,7.5z"/>
		<path d="M22.4,0.1c-0.2-0.2-0.5-0.2-0.7,0l-5,5c-0.2,0.2-0.2,0.5,0,0.7C16.7,6,16.9,6,17,6c0.1,0,0.3,0,0.4-0.1l5-5
			C22.5,0.7,22.5,0.3,22.4,0.1z"/>
		<path d="M4.9,0.1C4.7,0,4.3,0,4.1,0.1L0.6,3.6c-0.2,0.2-0.2,0.5,0,0.7C0.7,4.5,0.9,4.5,1,4.5c0.1,0,0.3,0,0.4-0.1l3.5-3.5
			C5,0.7,5,0.3,4.9,0.1z"/>
		<path d="M7.9,3.1C7.7,3,7.3,3,7.1,3.1L3.6,6.6c-0.2,0.2-0.2,0.5,0,0.7C3.7,7.5,3.9,7.5,4,7.5c0.1,0,0.3,0,0.4-0.1l3.5-3.5
			C8,3.7,8,3.3,7.9,3.1z"/>
		<path d="M14,18H9c-0.3,0-0.5,0.2-0.5,0.5C8.5,18.8,8.7,19,9,19h5c0.3,0,0.5-0.2,0.5-0.5C14.5,18.2,14.3,18,14,18z"/>
		<path d="M14,22H9c-0.3,0-0.5,0.2-0.5,0.5C8.5,22.8,8.7,23,9,23h5c0.3,0,0.5-0.2,0.5-0.5C14.5,22.2,14.3,22,14,22z"/>
	</g>
</g>
<g id="Outline_Icons">
	<g>
		<circle class="st2" cx="11.5" cy="11" r="3"/>
		<line class="st2" x1="17" y1="5.5" x2="22" y2="0.5"/>
		<line class="st2" x1="4.5" y1="0.5" x2="1" y2="4"/>
		<line class="st2" x1="7.5" y1="3.5" x2="4" y2="7"/>
		<line class="st2" x1="9" y1="18.5" x2="14" y2="18.5"/>
		<line class="st2" x1="9" y1="22.5" x2="14" y2="22.5"/>
	</g>
</g>
</svg>
