<?xml version="1.0" encoding="utf-8"?>
<!-- Generator: Adobe Illustrator 19.2.0, SVG Export Plug-In . SVG Version: 6.00 Build 0)  -->
<svg version="1.1" id="Layer_1" xmlns="http://www.w3.org/2000/svg" xmlns:xlink="http://www.w3.org/1999/xlink" x="0px" y="0px"
	 viewBox="0 0 24 24" enable-background="new 0 0 24 24" xml:space="preserve">
<g id="Filled_Icons" display="none">
	<g display="inline">
		<path d="M11.501,19.006c4.136,0,7.5-3.365,7.5-7.5c0-2.962-1.726-5.757-4.289-6.954c-0.144-0.066-0.31-0.062-0.448,0.013
			c-0.139,0.075-0.234,0.21-0.258,0.367c-0.123,0.836-0.52,1.739-1.011,2.35c-0.621-0.736-0.994-1.757-0.994-2.777
			c0-1.514,1.171-2.914,2.259-3.573c0.205-0.125,0.293-0.376,0.211-0.6c-0.084-0.226-0.316-0.36-0.553-0.321
			c-5.561,0.931-9.917,5.98-9.917,11.495C4.001,15.641,7.365,19.006,11.501,19.006z"/>
		<path d="M23.988,18.4c-0.059-0.271-0.322-0.442-0.596-0.383l-23,5c-0.269,0.061-0.44,0.324-0.382,0.596
			c0.052,0.234,0.259,0.393,0.488,0.393c0.035,0,0.071-0.002,0.107-0.012l22.999-5C23.877,18.938,24.048,18.67,23.988,18.4z"/>
		<path d="M0.394,18.995l6.999,1.522c0.036,0.006,0.071,0.01,0.106,0.01c0.23,0,0.438-0.156,0.488-0.392
			c0.059-0.269-0.112-0.537-0.382-0.596l-6.998-1.522c-0.272-0.059-0.536,0.11-0.596,0.381C-0.047,18.67,0.125,18.938,0.394,18.995z
			"/>
		<path d="M23.605,23.018l-7-1.52c-0.27-0.06-0.535,0.109-0.594,0.381c-0.06,0.271,0.112,0.536,0.383,0.596l7,1.521
			c0.035,0.009,0.07,0.012,0.106,0.012c0.23,0,0.437-0.159,0.488-0.393C24.048,23.342,23.877,23.077,23.605,23.018z"/>
	</g>
</g>
<g id="Outline_Icons">
	<g>
		<path fill="none" stroke="#000000" stroke-linecap="round" stroke-linejoin="round" stroke-miterlimit="10" d="M14,0.5
			c-1.305,0.791-2.5,2.377-2.5,4c0,1.332,0.58,2.677,1.5,3.5c0.764-0.686,1.343-1.936,1.5-3c2.497,1.164,4,3.824,4,6.5
			c0,3.867-3.135,7-7,7c-3.867,0-7-3.133-7-7C4.5,6.095,8.746,1.379,14,0.5z"/>
		
			<line fill="none" stroke="#000000" stroke-linecap="round" stroke-linejoin="round" stroke-miterlimit="10" x1="0.5" y1="23.5" x2="23.5" y2="18.5"/>
		
			<line fill="none" stroke="#000000" stroke-linecap="round" stroke-linejoin="round" stroke-miterlimit="10" x1="7.498" y1="20.022" x2="0.5" y2="18.5"/>
		
			<line fill="none" stroke="#000000" stroke-linecap="round" stroke-linejoin="round" stroke-miterlimit="10" x1="23.5" y1="23.5" x2="16.5" y2="21.979"/>
	</g>
</g>
</svg>
