<?xml version="1.0" encoding="utf-8"?>
<!-- Generator: Adobe Illustrator 19.2.0, SVG Export Plug-In . SVG Version: 6.00 Build 0)  -->
<svg version="1.1" id="Layer_1" xmlns="http://www.w3.org/2000/svg" xmlns:xlink="http://www.w3.org/1999/xlink" x="0px" y="0px"
	 viewBox="0 0 24 24" enable-background="new 0 0 24 24" xml:space="preserve">
<g id="Filled_Icons" display="none">
	<g display="inline">
		<path d="M17.5,0.006h-12c-0.276,0-0.5,0.223-0.5,0.5v2c0,0.276,0.224,0.5,0.5,0.5h12c0.275,0,0.5-0.224,0.5-0.5v-2
			C18,0.229,17.775,0.006,17.5,0.006z"/>
		<path d="M10.846,13.006c0.387,1.26,1.136,3.564,0,5.385c-0.244-0.269-1.153-1.537-1.153-1.537s-1.154,1.621-1.154,2.692
			c0,1.901,1.544,3.46,3.462,3.46c1.929,0,3.461-1.564,3.461-3.46C15.461,16.754,13.518,13.9,10.846,13.006z"/>
		<path d="M11.5,7.506c0.276,0,0.5-0.224,0.5-0.5v-2c0-0.277-0.224-0.5-0.5-0.5c-0.276,0-0.5,0.223-0.5,0.5v2
			C11,7.283,11.224,7.506,11.5,7.506z"/>
		<path d="M11,11.006c0,0.276,0.224,0.5,0.5,0.5c0.276,0,0.5-0.224,0.5-0.5v-2c0-0.277-0.224-0.5-0.5-0.5
			c-0.276,0-0.5,0.223-0.5,0.5V11.006z"/>
		<path d="M14.57,5.541c-0.069-0.267-0.338-0.429-0.609-0.36c-0.267,0.069-0.428,0.341-0.359,0.608L14.1,7.726
			c0.06,0.226,0.262,0.375,0.484,0.375c0.041,0,0.083-0.004,0.125-0.015c0.268-0.069,0.428-0.341,0.359-0.608L14.57,5.541z"/>
		<path d="M14.167,10.176c-0.269,0.069-0.429,0.341-0.36,0.608l0.498,1.939c0.059,0.225,0.262,0.375,0.484,0.375
			c0.041,0,0.083-0.006,0.124-0.017c0.268-0.069,0.429-0.341,0.36-0.608l-0.498-1.938C14.706,10.268,14.43,10.107,14.167,10.176z"/>
		<path d="M17.297,8.787c-0.068-0.268-0.346-0.428-0.607-0.361c-0.269,0.069-0.43,0.341-0.36,0.609l0.498,1.938
			c0.06,0.225,0.262,0.375,0.483,0.375c0.041,0,0.084-0.005,0.125-0.015c0.268-0.07,0.428-0.343,0.359-0.61L17.297,8.787z"/>
		<path d="M6.374,8.426C6.112,8.358,5.835,8.519,5.766,8.787l-0.498,1.937c-0.068,0.268,0.093,0.54,0.36,0.61
			c0.041,0.009,0.083,0.015,0.124,0.015c0.223,0,0.426-0.15,0.484-0.375l0.498-1.938C6.803,8.767,6.642,8.495,6.374,8.426z"/>
		<path d="M8.441,8.104c0.226,0,0.43-0.153,0.485-0.38L9.404,5.78C9.47,5.512,9.306,5.241,9.038,5.176
			C8.767,5.105,8.499,5.274,8.434,5.542L7.956,7.484C7.89,7.752,8.054,8.023,8.322,8.089C8.362,8.099,8.402,8.104,8.441,8.104z"/>
		<path d="M8.774,12.721l0.478-1.942c0.066-0.268-0.098-0.538-0.366-0.604c-0.271-0.07-0.539,0.098-0.604,0.365l-0.478,1.943
			c-0.066,0.268,0.098,0.539,0.366,0.604c0.04,0.011,0.08,0.015,0.119,0.015C8.515,13.102,8.719,12.949,8.774,12.721z"/>
	</g>
</g>
<g id="Outline_Icons">
	<g>
		
			<rect x="5.5" y="0.5" fill="none" stroke="#000000" stroke-linecap="round" stroke-linejoin="round" stroke-miterlimit="10" width="12" height="2"/>
		<path fill="none" stroke="#000000" stroke-linecap="round" stroke-linejoin="round" stroke-miterlimit="10" d="M10.846,13.5
			c0.387,1.259,1.136,3.565,0,5.385c-0.244-0.269-1.153-1.537-1.153-1.537s-1.154,1.621-1.154,2.691
			c0,1.902,1.544,3.461,3.462,3.461c1.929,0,3.461-1.564,3.461-3.461C15.461,17.249,13.518,14.395,10.846,13.5z"/>
		
			<line fill="none" stroke="#000000" stroke-linecap="round" stroke-linejoin="round" stroke-miterlimit="10" x1="11.5" y1="5" x2="11.5" y2="7"/>
		
			<line fill="none" stroke="#000000" stroke-linecap="round" stroke-linejoin="round" stroke-miterlimit="10" x1="11.5" y1="9" x2="11.5" y2="11"/>
		
			<line fill="none" stroke="#000000" stroke-linecap="round" stroke-linejoin="round" stroke-miterlimit="10" x1="14.086" y1="5.659" x2="14.584" y2="7.595"/>
		
			<line fill="none" stroke="#000000" stroke-linecap="round" stroke-linejoin="round" stroke-miterlimit="10" x1="14.291" y1="10.654" x2="14.789" y2="12.591"/>
		
			<line fill="none" stroke="#000000" stroke-linecap="round" stroke-linejoin="round" stroke-miterlimit="10" x1="16.812" y1="8.904" x2="17.31" y2="10.842"/>
		
			<line fill="none" stroke="#000000" stroke-linecap="round" stroke-linejoin="round" stroke-miterlimit="10" x1="6.25" y1="8.904" x2="5.752" y2="10.842"/>
		
			<line fill="none" stroke="#000000" stroke-linecap="round" stroke-linejoin="round" stroke-miterlimit="10" x1="8.919" y1="5.655" x2="8.441" y2="7.597"/>
		
			<line fill="none" stroke="#000000" stroke-linecap="round" stroke-linejoin="round" stroke-miterlimit="10" x1="8.767" y1="10.653" x2="8.289" y2="12.596"/>
	</g>
	<g>
		
			<rect x="5.5" y="0.5" fill="none" stroke="#000000" stroke-linecap="round" stroke-linejoin="round" stroke-miterlimit="10" width="12" height="2"/>
		<path fill="none" stroke="#000000" stroke-linecap="round" stroke-linejoin="round" stroke-miterlimit="10" d="M10.846,13.5
			c0.387,1.259,1.136,3.565,0,5.385c-0.244-0.269-1.153-1.537-1.153-1.537s-1.154,1.621-1.154,2.691
			c0,1.902,1.544,3.461,3.462,3.461c1.929,0,3.461-1.564,3.461-3.461C15.461,17.249,13.518,14.395,10.846,13.5z"/>
		
			<line fill="none" stroke="#000000" stroke-linecap="round" stroke-linejoin="round" stroke-miterlimit="10" x1="11.5" y1="5" x2="11.5" y2="7"/>
		
			<line fill="none" stroke="#000000" stroke-linecap="round" stroke-linejoin="round" stroke-miterlimit="10" x1="11.5" y1="9" x2="11.5" y2="11"/>
		
			<line fill="none" stroke="#000000" stroke-linecap="round" stroke-linejoin="round" stroke-miterlimit="10" x1="14.086" y1="5.659" x2="14.584" y2="7.595"/>
		
			<line fill="none" stroke="#000000" stroke-linecap="round" stroke-linejoin="round" stroke-miterlimit="10" x1="14.291" y1="10.654" x2="14.789" y2="12.591"/>
		
			<line fill="none" stroke="#000000" stroke-linecap="round" stroke-linejoin="round" stroke-miterlimit="10" x1="16.812" y1="8.904" x2="17.31" y2="10.842"/>
		
			<line fill="none" stroke="#000000" stroke-linecap="round" stroke-linejoin="round" stroke-miterlimit="10" x1="6.25" y1="8.904" x2="5.752" y2="10.842"/>
		
			<line fill="none" stroke="#000000" stroke-linecap="round" stroke-linejoin="round" stroke-miterlimit="10" x1="8.919" y1="5.655" x2="8.441" y2="7.597"/>
		
			<line fill="none" stroke="#000000" stroke-linecap="round" stroke-linejoin="round" stroke-miterlimit="10" x1="8.767" y1="10.653" x2="8.289" y2="12.596"/>
	</g>
</g>
</svg>
