<?xml version="1.0" encoding="utf-8"?>
<!-- Generator: Adobe Illustrator 19.2.0, SVG Export Plug-In . SVG Version: 6.00 Build 0)  -->
<svg version="1.1" id="Layer_1" xmlns="http://www.w3.org/2000/svg" xmlns:xlink="http://www.w3.org/1999/xlink" x="0px" y="0px"
	 viewBox="0 0 24 24" enable-background="new 0 0 24 24" xml:space="preserve">
<g id="Filled_Icons" display="none">
	<g display="inline">
		<path d="M23.575,19.066L20.84,4.956c-0.259-1.148-1.262-1.95-2.438-1.95H16v-2h1c0.275,0,0.5-0.224,0.5-0.5
			c0-0.277-0.225-0.5-0.5-0.5h-1.5h-7H7c-0.276,0-0.5,0.223-0.5,0.5c0,0.276,0.224,0.5,0.5,0.5h1v2H5.599
			c-1.177,0-2.18,0.802-2.441,1.964L0.429,19.053c-0.292,1.293,0.478,2.59,1.752,2.955l1.062,0.303C3.086,22.669,3,23.068,3,23.506
			v0.5h18v-0.5c0-0.438-0.086-0.838-0.243-1.197l1.064-0.302C23.094,21.643,23.863,20.346,23.575,19.066z M21.545,21.046
			l-1.404,0.399c-0.615-0.59-1.525-0.938-2.641-0.938h-11c-1.115,0-2.025,0.351-2.642,0.938l-1.402-0.399
			c-0.765-0.219-1.228-0.998-1.049-1.788l2.73-14.081c0.154-0.689,0.756-1.17,1.462-1.17H8v0.5c0,0.276,0.224,0.5,0.5,0.5h7
			c0.275,0,0.5-0.224,0.5-0.5v-0.5h2.4c0.707,0,1.309,0.481,1.459,1.155l2.736,14.111C22.771,20.048,22.309,20.827,21.545,21.046z"
			/>
		<path d="M16.338,6.006H7.609c-1.288,2.06-2.588,5.363-2.787,8.324c-0.145,2.147,0.298,3.893,1.267,5.176H17.9
			c0.938-1.259,1.365-2.964,1.224-5.061C18.925,11.482,17.613,8.103,16.338,6.006z M12,18.506c-1.934,0-3.5-1.566-3.5-3.5
			c0-1.341,0.728-2.484,2.188-3.062c0.065,0.578,0.447,0.96,0.875,1.312c0.623-0.943,0.712-3.208-0.875-4.375
			c2.779,0.64,4.813,3.302,4.813,6.125C15.5,16.94,13.934,18.506,12,18.506z"/>
	</g>
</g>
<g id="Outline_Icons">
	<g>
		<path fill="none" stroke="#000000" stroke-linejoin="round" stroke-miterlimit="10" d="M10.688,10.375
			c1.587,1.167,1.498,3.434,0.875,4.375c-0.428-0.352-0.81-0.734-0.875-1.312C9.228,14.016,8.5,15.159,8.5,16.5
			c0,1.934,1.566,3.5,3.5,3.5c1.934,0,3.5-1.566,3.5-3.5C15.5,13.678,13.467,11.015,10.688,10.375z"/>
		
			<line fill="none" stroke="#000000" stroke-linecap="round" stroke-linejoin="round" stroke-miterlimit="10" x1="7" y1="0.5" x2="17" y2="0.5"/>
		<path fill="none" stroke="#000000" stroke-linejoin="round" stroke-miterlimit="10" d="M3.5,23.5h17c0-1.656-1.344-3-3-3h-11
			C4.843,20.5,3.5,21.844,3.5,23.5z"/>
		<path fill="none" stroke="#000000" stroke-linejoin="round" stroke-miterlimit="10" d="M14.417,4.5H9.583
			C7.659,5.31,2,17,7.93,20.5h8.14C22,17,16.086,5.203,14.417,4.5z"/>
		<rect x="8.5" y="0.5" fill="none" stroke="#000000" stroke-linejoin="round" stroke-miterlimit="10" width="7" height="4"/>
		<path fill="none" stroke="#000000" stroke-linejoin="round" stroke-miterlimit="10" d="M15.5,3.5h2.9
			c0.936,0,1.746,0.648,1.951,1.56l2.731,14.096c0.233,1.035-0.382,2.072-1.401,2.365l-1.599,0.455"/>
		<path fill="none" stroke="#000000" stroke-linejoin="round" stroke-miterlimit="10" d="M8.5,3.5H5.599
			c-0.935,0-1.745,0.648-1.95,1.56L0.916,19.156c-0.233,1.035,0.382,2.072,1.402,2.363l1.601,0.459"/>
	</g>
</g>
</svg>
