<?xml version="1.0" encoding="utf-8"?>
<!-- Generator: Adobe Illustrator 19.2.0, SVG Export Plug-In . SVG Version: 6.00 Build 0)  -->
<svg version="1.1" id="Layer_1" xmlns="http://www.w3.org/2000/svg" xmlns:xlink="http://www.w3.org/1999/xlink" x="0px" y="0px"
	 viewBox="0 0 24 24" enable-background="new 0 0 24 24" xml:space="preserve">
<g id="Filled_Icons" display="none">
	<g display="inline">
		<g>
			<path d="M20,12.006v-1.5c0-0.277-0.225-0.5-0.5-0.5h-7c-0.276,0-0.5,0.223-0.5,0.5v1.5H20z"/>
			<path d="M9,13.006v-12.5c0-0.277-0.224-0.5-0.5-0.5h-2c-2.481,0-4.5,2.019-4.5,4.5v5c0,2.482,2.019,4.5,4.5,4.5H8v7.5
				c0,1.378,1.121,2.5,2.5,2.5h9c1.379,0,2.5-1.122,2.5-2.5v-8.5H9z"/>
		</g>
		<g>
			<path d="M13.367,9.006h4.857c0.633-0.626,1.024-1.494,1.024-2.454c0-2.788-2.007-5.415-4.75-6.046
				c1.565,1.152,1.479,3.387,0.864,4.318C14.941,4.479,14.564,4.1,14.5,3.529C13.06,4.1,12.342,5.23,12.342,6.553
				C12.342,7.513,12.734,8.38,13.367,9.006z"/>
		</g>
	</g>
</g>
<g id="Outline_Icons">
	<g>
		<path fill="none" stroke="#000000" stroke-linejoin="round" stroke-miterlimit="10" d="M14.656,0.998
			c1.566,1.152,1.478,3.387,0.863,4.318c-0.422-0.346-0.799-0.725-0.863-1.295c-1.44,0.571-2.158,1.699-2.158,3.023
			c0,1.907,1.546,3.454,3.454,3.454c1.907,0,3.454-1.546,3.454-3.454C19.406,4.256,17.398,1.629,14.656,0.998z"/>
		<path fill="none" stroke="#000000" stroke-linejoin="round" stroke-miterlimit="10" d="M21.5,21.5c0,1.104-0.897,2-2,2h-9
			c-1.104,0-2-0.896-2-2v-8h13V21.5z"/>
		<path fill="none" stroke="#000000" stroke-linecap="round" stroke-linejoin="round" stroke-miterlimit="10" d="M2.5,4.5
			c0-2.209,1.791-4,4-4h2v13h-2c-2.209,0-4-1.791-4-4V4.5z"/>
		
			<rect x="12.5" y="10.5" fill="none" stroke="#000000" stroke-linecap="round" stroke-linejoin="round" stroke-miterlimit="10" width="7" height="3"/>
	</g>
</g>
</svg>
