<?xml version="1.0" encoding="utf-8"?>
<!-- Generator: Adobe Illustrator 19.2.0, SVG Export Plug-In . SVG Version: 6.00 Build 0)  -->
<svg version="1.1" id="Layer_1" xmlns="http://www.w3.org/2000/svg" xmlns:xlink="http://www.w3.org/1999/xlink" x="0px" y="0px"
	 viewBox="0 0 24 24" enable-background="new 0 0 24 24" xml:space="preserve">
<g id="Filled_Icons" display="none">
	<g display="inline">
		<g>
			<path d="M10.688,10.881c1.587,1.168,1.498,3.432,0.875,4.375c-0.428-0.352-0.81-0.734-0.875-1.312
				C9.227,14.522,8.5,15.666,8.5,17.006c0,1.932,1.566,3.5,3.5,3.5c1.934,0,3.5-1.568,3.5-3.5
				C15.5,14.182,13.467,11.521,10.688,10.881z"/>
		</g>
		<g>
			<path d="M9.243,4.078L5.195,6.506h13.61l-4.049-2.429c-0.003-0.002-0.008,0-0.011-0.003C14.877,3.74,15,3.338,15,3.006
				c0-1.654-1.346-3-3-3c-1.654,0-3,1.346-3,3C9,3.337,9.123,3.74,9.254,4.075C9.251,4.077,9.246,4.075,9.243,4.078z"/>
			<path d="M21.5,7.506H20h-0.004H4.004H4H2.5c-0.276,0-0.5,0.223-0.5,0.5v1.5c0,0.276,0.224,0.5,0.5,0.5h1.576l1.917,11.5H4.5
				c-0.276,0-0.5,0.223-0.5,0.5v1.5c0,0.275,0.224,0.5,0.5,0.5h15c0.275,0,0.5-0.225,0.5-0.5v-1.5c0-0.277-0.225-0.5-0.5-0.5h-1.493
				l1.917-11.5H21.5c0.275,0,0.5-0.224,0.5-0.5v-1.5C22,7.729,21.775,7.506,21.5,7.506z M16.993,21.506H7.007l-1.917-11.5h13.82
				L16.993,21.506z"/>
		</g>
	</g>
</g>
<g id="Outline_Icons">
	<g>
		<path fill="none" stroke="#000000" stroke-linejoin="round" stroke-miterlimit="10" d="M10.688,11.375
			c1.587,1.168,1.498,3.432,0.875,4.375c-0.428-0.352-0.81-0.734-0.875-1.312C9.227,15.016,8.5,16.16,8.5,17.5
			c0,1.932,1.566,3.5,3.5,3.5c1.934,0,3.5-1.568,3.5-3.5C15.5,14.675,13.467,12.015,10.688,11.375z"/>
		<polygon fill="none" stroke="#000000" stroke-linejoin="round" stroke-miterlimit="10" points="4.5,9.5 19.5,9.5 17.5,21.5 
			6.5,21.5 		"/>
		<polygon fill="none" stroke="#000000" stroke-linejoin="round" stroke-miterlimit="10" points="9.5,4.5 14.5,4.5 19.5,7.5 
			4.5,7.5 		"/>
		<rect x="4.5" y="21.5" fill="none" stroke="#000000" stroke-linejoin="round" stroke-miterlimit="10" width="15" height="2"/>
		<rect x="2.5" y="7.5" fill="none" stroke="#000000" stroke-linejoin="round" stroke-miterlimit="10" width="19" height="2"/>
		<path fill="none" stroke="#000000" stroke-linejoin="round" stroke-miterlimit="10" d="M9.996,4.496C9.996,4.496,9.5,3.56,9.5,3
			c0-1.381,1.119-2.5,2.5-2.5c1.381,0,2.5,1.119,2.5,2.5c0,0.563-0.5,1.5-0.5,1.5"/>
	</g>
</g>
</svg>
