<?xml version="1.0" encoding="utf-8"?>
<!-- Generator: Adobe Illustrator 19.2.0, SVG Export Plug-In . SVG Version: 6.00 Build 0)  -->
<svg version="1.1" id="Layer_1" xmlns="http://www.w3.org/2000/svg" xmlns:xlink="http://www.w3.org/1999/xlink" x="0px" y="0px"
	 viewBox="0 0 24 24" style="enable-background:new 0 0 24 24;" xml:space="preserve">
<style type="text/css">
	.st0{display:none;}
	.st1{display:inline;}
	.st2{fill:none;stroke:#000000;stroke-linecap:round;stroke-linejoin:round;stroke-miterlimit:10;}
</style>
<g id="Filled_Icons" class="st0">
	<g class="st1">
		<path d="M11.5,8C9.6,8,8,9.6,8,11.5c0,1.9,1.6,3.5,3.5,3.5c1.9,0,3.5-1.6,3.5-3.5C15,9.6,13.4,8,11.5,8z"/>
		<path d="M23.4,3.1l-3-3c-0.2-0.2-0.5-0.2-0.7,0l-5,5c-0.2,0.2-0.2,0.5,0,0.7l3,3C17.7,9,17.9,9,18,9c0.1,0,0.3,0,0.4-0.1l5-5
			C23.5,3.7,23.5,3.3,23.4,3.1z"/>
		<path d="M5.9,2.6L4.4,1.1C4.2,1,3.8,1,3.6,1.1l-3,3c-0.2,0.2-0.2,0.5,0,0.7l1.5,1.5c0.1,0.1,0.2,0.1,0.4,0.1c0.1,0,0.3,0,0.4-0.1
			l3-3C6,3.2,6,2.8,5.9,2.6z"/>
		<path d="M8.9,5.6L7.4,4.1C7.2,4,6.8,4,6.6,4.1l-3,3c-0.2,0.2-0.2,0.5,0,0.7l1.5,1.5c0.1,0.1,0.2,0.1,0.4,0.1c0.1,0,0.3,0,0.4-0.1
			l3-3C9,6.2,9,5.8,8.9,5.6z"/>
		<path d="M13.5,21h-4C9.2,21,9,21.2,9,21.5v2C9,23.8,9.2,24,9.5,24h4c0.3,0,0.5-0.2,0.5-0.5v-2C14,21.2,13.8,21,13.5,21z"/>
		<path d="M13.5,17h-4C9.2,17,9,17.2,9,17.5v2C9,19.8,9.2,20,9.5,20h4c0.3,0,0.5-0.2,0.5-0.5v-2C14,17.2,13.8,17,13.5,17z"/>
	</g>
</g>
<g id="Outline_Icons">
	<g>
		<circle class="st2" cx="11.5" cy="11.5" r="3"/>
		<rect x="15.5" y="2.4" transform="matrix(0.7072 -0.707 0.707 0.7072 2.3824 14.7518)" class="st2" width="7.1" height="4.2"/>
		<rect x="1.1" y="2.7" transform="matrix(0.7071 -0.7071 0.7071 0.7071 -1.6993 3.3963)" class="st2" width="4.2" height="2.1"/>
		<rect x="4.1" y="5.7" transform="matrix(0.7071 -0.7071 0.7071 0.7071 -2.942 6.3962)" class="st2" width="4.2" height="2.1"/>
		<rect x="9.5" y="21.5" class="st2" width="4" height="2"/>
		<rect x="9.5" y="17.5" class="st2" width="4" height="2"/>
	</g>
</g>
</svg>
