<?xml version="1.0" encoding="utf-8"?>
<!-- Generator: Adobe Illustrator 19.2.0, SVG Export Plug-In . SVG Version: 6.00 Build 0)  -->
<svg version="1.1" id="Layer_1" xmlns="http://www.w3.org/2000/svg" xmlns:xlink="http://www.w3.org/1999/xlink" x="0px" y="0px"
	 viewBox="0 0 24 24" enable-background="new 0 0 24 24" xml:space="preserve">
<g id="Filled_Icons" display="none">
	<g display="inline">
		<path d="M9.373,9.933c-0.094,0.094-0.146,0.221-0.146,0.354c0,0.133,0.053,0.26,0.146,0.354l1.777,1.775l-8.08,8.063
			c-0.195,0.194-0.195,0.512,0,0.707c0.098,0.098,0.226,0.146,0.354,0.146c0.128,0,0.256-0.05,0.354-0.146l8.08-8.063l0.6,0.6
			c-0.46,0.555-1.804,2.354-1.593,4.295c0.122,1.127,0.739,2.086,1.834,2.852c0.087,0.061,0.188,0.09,0.285,0.09
			c0.158,0,0.314-0.074,0.41-0.214c0.158-0.226,0.104-0.538-0.123-0.695c-0.847-0.592-1.321-1.31-1.413-2.136
			c-0.163-1.483,0.895-2.961,1.31-3.479l0.448,0.446c0.098,0.099,0.226,0.146,0.354,0.146c0.129,0,0.256-0.049,0.354-0.146
			l6.411-6.411l-4.877-5.023L9.373,9.933z"/>
		<path d="M23.5,0.006h-8.409c-0.2,0-0.382,0.12-0.461,0.306c-0.078,0.185-0.038,0.398,0.102,0.543l8.41,8.659
			c0.096,0.099,0.226,0.151,0.357,0.151c0.062,0,0.127-0.012,0.187-0.036C23.877,9.552,24,9.369,24,9.165V0.506
			C24,0.229,23.775,0.006,23.5,0.006z"/>
		<path d="M18.627,17.941l-1.414,1.416c-0.195,0.195-0.195,0.513,0,0.707c0.098,0.098,0.227,0.145,0.354,0.145
			c0.129,0,0.257-0.049,0.354-0.145l1.414-1.416c0.194-0.194,0.194-0.512,0-0.707C19.141,17.747,18.822,17.747,18.627,17.941z"/>
		<path d="M14.404,17.941c-0.195-0.194-0.512-0.194-0.707,0c-0.195,0.195-0.195,0.513,0,0.707l1.414,1.416
			c0.098,0.098,0.226,0.145,0.354,0.145c0.128,0,0.256-0.049,0.354-0.145c0.195-0.194,0.195-0.512,0-0.707L14.404,17.941z"/>
		<path d="M17.92,21.516c-0.195-0.195-0.512-0.195-0.707,0c-0.195,0.194-0.195,0.512,0,0.707l1.414,1.414
			c0.098,0.098,0.226,0.145,0.353,0.145c0.129,0,0.256-0.049,0.355-0.145c0.194-0.195,0.194-0.512,0-0.707L17.92,21.516z"/>
		<path d="M15.111,21.516l-1.414,1.414c-0.195,0.195-0.195,0.512,0,0.707c0.098,0.098,0.226,0.145,0.353,0.145
			c0.129,0,0.256-0.049,0.354-0.145l1.414-1.414c0.195-0.195,0.195-0.513,0-0.707C15.624,21.32,15.307,21.318,15.111,21.516z"/>
	</g>
</g>
<g id="Outline_Icons">
	<g>
		
			<rect x="10.298" y="5.659" transform="matrix(0.707 -0.7072 0.7072 0.707 -1.5555 13.5628)" fill="none" stroke="#000000" stroke-linejoin="round" stroke-miterlimit="10" width="10.586" height="6"/>
		<polygon fill="none" stroke="#000000" stroke-linejoin="round" stroke-miterlimit="10" points="15.091,0.5 23.5,9.159 23.5,0.5 		
			"/>
		
			<line fill="none" stroke="#000000" stroke-linecap="round" stroke-linejoin="round" stroke-miterlimit="10" x1="3.424" y1="20.825" x2="11.857" y2="12.411"/>
		
			<line fill="none" stroke="#000000" stroke-linecap="round" stroke-linejoin="round" stroke-miterlimit="10" x1="18.98" y1="18.29" x2="17.566" y2="19.705"/>
		
			<line fill="none" stroke="#000000" stroke-linecap="round" stroke-linejoin="round" stroke-miterlimit="10" x1="14.051" y1="18.29" x2="15.465" y2="19.705"/>
		
			<line fill="none" stroke="#000000" stroke-linecap="round" stroke-linejoin="round" stroke-miterlimit="10" x1="18.98" y1="23.275" x2="17.566" y2="21.861"/>
		
			<line fill="none" stroke="#000000" stroke-linecap="round" stroke-linejoin="round" stroke-miterlimit="10" x1="14.051" y1="23.275" x2="15.465" y2="21.861"/>
		<path fill="none" stroke="#000000" stroke-linecap="round" stroke-linejoin="round" stroke-miterlimit="10" d="M12.984,20.453
			c-3.692-2.579-0.006-6.579-0.006-6.579l0.168-0.174"/>
	</g>
</g>
</svg>
