<?xml version="1.0" encoding="utf-8"?>
<!-- Generator: Adobe Illustrator 19.2.0, SVG Export Plug-In . SVG Version: 6.00 Build 0)  -->
<svg version="1.1" id="Layer_1" xmlns="http://www.w3.org/2000/svg" xmlns:xlink="http://www.w3.org/1999/xlink" x="0px" y="0px"
	 viewBox="0 0 24 24" enable-background="new 0 0 24 24" xml:space="preserve">
<g id="Filled_Icons" display="none">
	<path display="inline" d="M22.829,0.129c-0.108-0.094-0.253-0.138-0.395-0.118l-7.5,1C14.685,1.044,14.5,1.256,14.5,1.506v0.5
		h-3.395L6.703,0.05c-0.252-0.113-0.548,0.002-0.66,0.254C5.931,0.555,6.044,0.85,6.297,0.963L9.23,2.267
		C6.784,3.017,5,5.295,5,7.985v12.521c0,0.275,0.224,0.5,0.5,0.5c0.275,0,0.5-0.225,0.5-0.5V7.985c0-2.578,1.969-4.703,4.5-4.953
		V4.3C9.01,4.904,8,6.378,8,8.006v15.5c0,0.275,0.224,0.5,0.5,0.5h7c0.275,0,0.5-0.225,0.5-0.5v-15.5c0-1.628-1.012-3.102-2.5-3.706
		V3.006h1v0.5c0,0.25,0.185,0.462,0.434,0.497c0.069,0.009,7.496,1.003,7.566,1.003c0.12,0,0.236-0.043,0.329-0.124
		C22.937,4.787,23,4.65,23,4.506v-4C23,0.362,22.937,0.225,22.829,0.129z M15,10.006v10h-2v-10H15z"/>
</g>
<g id="Outline_Icons">
	<g>
		<path fill="none" stroke="#000000" stroke-linecap="round" stroke-linejoin="round" stroke-miterlimit="10" d="M13,4.648V2.5h-2
			v2.148C9.553,5.078,8.5,6.416,8.5,8v15.5h7V8C15.5,6.416,14.443,5.078,13,4.648z"/>
		<path fill="none" stroke="#000000" stroke-linecap="round" stroke-linejoin="round" stroke-miterlimit="10" d="M6.5,0.5l4.5,2
			h-0.022C7.952,2.5,5.5,4.954,5.5,7.979V20.5"/>
		<polygon fill="none" stroke="#000000" stroke-linecap="round" stroke-linejoin="round" stroke-miterlimit="10" points="22.5,0.5 
			22.5,4.5 15,3.5 15,1.5 		"/>
		
			<line fill="none" stroke="#000000" stroke-linecap="round" stroke-linejoin="round" stroke-miterlimit="10" x1="13" y1="2.5" x2="15" y2="2.5"/>
		<polyline fill="none" stroke="#000000" stroke-linecap="round" stroke-linejoin="round" stroke-miterlimit="10" points="
			15.5,20.5 12.5,20.5 12.5,9.5 15.5,9.5 		"/>
	</g>
</g>
</svg>
