<?xml version="1.0" encoding="utf-8"?>
<!-- Generator: Adobe Illustrator 19.2.0, SVG Export Plug-In . SVG Version: 6.00 Build 0)  -->
<svg version="1.1" id="Layer_1" xmlns="http://www.w3.org/2000/svg" xmlns:xlink="http://www.w3.org/1999/xlink" x="0px" y="0px"
	 viewBox="0 0 24 24" enable-background="new 0 0 24 24" xml:space="preserve">
<g id="Filled_Icons" display="none">
	<g display="inline">
		<path d="M10.242,1.762C9.109,0.63,7.604,0.006,6,0.006c-1.603,0-3.109,0.624-4.242,1.756C0.624,2.896-0.001,4.404,0,6.007
			c0,1.602,0.624,3.108,1.758,4.241l3.171,3.17l8.485-8.484L10.242,1.762z M3.515,5.641c0.099-0.098,0.227-0.146,0.354-0.146
			c0.127,0,0.255,0.049,0.353,0.146c0.196,0.195,0.196,0.512,0,0.708C4.124,6.446,3.996,6.495,3.869,6.495
			c-0.128,0-0.256-0.049-0.354-0.146C3.32,6.153,3.32,5.836,3.515,5.641z M4.575,8.824C4.478,8.922,4.35,8.97,4.223,8.97
			c-0.128,0-0.256-0.048-0.354-0.146c-0.195-0.196-0.195-0.512,0-0.707C3.967,8.019,4.095,7.97,4.223,7.97
			c0.127,0,0.255,0.049,0.353,0.146C4.772,8.312,4.772,8.628,4.575,8.824z M5.636,3.52C5.734,3.423,5.862,3.375,5.99,3.375
			c0.128,0,0.256,0.048,0.353,0.145c0.195,0.195,0.195,0.512,0,0.707C6.246,4.326,6.118,4.375,5.99,4.375
			c-0.128,0-0.256-0.049-0.354-0.148C5.44,4.032,5.44,3.715,5.636,3.52z M5.99,5.995c0.098-0.098,0.226-0.147,0.354-0.147
			c0.128,0,0.256,0.049,0.352,0.147c0.196,0.194,0.196,0.512,0,0.707C6.6,6.8,6.472,6.849,6.344,6.849
			c-0.128,0-0.256-0.049-0.354-0.147C5.794,6.507,5.794,6.189,5.99,5.995z M7.05,9.177C6.952,9.275,6.824,9.324,6.697,9.324
			c-0.129,0-0.257-0.049-0.354-0.146c-0.194-0.195-0.194-0.512,0-0.707C6.44,8.373,6.568,8.322,6.697,8.322
			c0.127,0,0.255,0.051,0.353,0.147C7.246,8.665,7.246,8.981,7.05,9.177z M8.111,3.873c0.098-0.098,0.226-0.146,0.354-0.146
			c0.127,0,0.255,0.049,0.353,0.146c0.195,0.196,0.195,0.513,0,0.708C8.72,4.679,8.592,4.728,8.465,4.728
			c-0.128,0-0.256-0.049-0.354-0.146C7.916,4.386,7.916,4.069,8.111,3.873z M9.171,7.055C9.073,7.154,8.945,7.202,8.817,7.202
			c-0.128,0-0.255-0.048-0.353-0.147c-0.194-0.194-0.194-0.511,0-0.706C8.562,6.251,8.69,6.202,8.818,6.202
			c0.128,0,0.256,0.049,0.354,0.147C9.367,6.544,9.367,6.861,9.171,7.055z"/>
		<path d="M22.242,13.764l-3.172-3.172l-8.484,8.484l3.172,3.172c1.133,1.133,2.639,1.757,4.241,1.757l0,0
			c1.603,0,3.108-0.625,4.243-1.759c1.134-1.13,1.758-2.637,1.758-4.24C24,16.402,23.376,14.897,22.242,13.764z M14.828,16.955
			c0.098-0.098,0.227-0.146,0.353-0.146c0.129,0,0.256,0.049,0.354,0.146c0.194,0.195,0.194,0.512,0,0.708
			c-0.099,0.097-0.227,0.146-0.354,0.146c-0.127,0-0.256-0.049-0.353-0.146C14.634,17.467,14.634,17.15,14.828,16.955z
			 M15.889,20.139c-0.098,0.098-0.225,0.145-0.353,0.145c-0.127,0-0.256-0.048-0.354-0.145c-0.195-0.197-0.195-0.514,0-0.707
			c0.098-0.099,0.227-0.146,0.354-0.146c0.129,0,0.256,0.049,0.353,0.146C16.085,19.625,16.085,19.941,15.889,20.139z
			 M16.949,14.833c0.098-0.099,0.227-0.145,0.353-0.145c0.129,0,0.256,0.049,0.354,0.145c0.194,0.196,0.194,0.513,0,0.708
			c-0.099,0.098-0.226,0.147-0.354,0.147c-0.127,0-0.256-0.049-0.353-0.147C16.755,15.346,16.755,15.029,16.949,14.833z
			 M17.303,17.309c0.098-0.098,0.227-0.146,0.354-0.146c0.128,0,0.255,0.049,0.353,0.146c0.195,0.195,0.195,0.512,0,0.709
			c-0.098,0.098-0.225,0.146-0.353,0.146c-0.13,0-0.257-0.05-0.354-0.146C17.107,17.82,17.107,17.504,17.303,17.309z M18.363,20.49
			c-0.098,0.098-0.225,0.146-0.354,0.146c-0.128,0-0.256-0.05-0.353-0.146c-0.196-0.194-0.196-0.512,0-0.707
			c0.098-0.098,0.226-0.146,0.353-0.146c0.129,0,0.256,0.049,0.354,0.146C18.56,19.979,18.56,20.296,18.363,20.49z M19.426,15.188
			c0.098-0.098,0.225-0.147,0.354-0.147c0.128,0,0.256,0.049,0.354,0.147c0.195,0.194,0.195,0.512,0,0.707
			c-0.098,0.099-0.226,0.146-0.354,0.146c-0.129,0-0.256-0.049-0.354-0.146C19.23,15.697,19.23,15.382,19.426,15.188z M20.486,18.37
			c-0.098,0.097-0.227,0.146-0.355,0.146c-0.128,0-0.256-0.049-0.354-0.146c-0.194-0.196-0.194-0.513,0-0.707
			c0.1-0.099,0.228-0.146,0.354-0.146c0.127,0,0.257,0.049,0.355,0.146C20.682,17.857,20.682,18.174,20.486,18.37z"/>
		<rect x="5.894" y="9.11" transform="matrix(0.7072 -0.707 0.707 0.7072 -5.0791 11.957)" width="12.004" height="6"/>
	</g>
</g>
<g id="Outline_Icons">
	<g>
		<path fill="none" stroke="#000000" stroke-linecap="round" stroke-linejoin="round" stroke-miterlimit="10" d="M9.89,2.11
			c-2.147-2.147-5.63-2.147-7.778,0c-2.149,2.15-2.147,5.633,0,7.779l11.999,12c2.148,2.147,5.631,2.146,7.779,0
			c2.146-2.146,2.146-5.632,0-7.777L9.89,2.11z"/>
		
			<rect x="6.501" y="8.501" transform="matrix(0.7071 -0.7071 0.7071 0.7071 -4.9711 12.0001)" fill="none" stroke="#000000" stroke-linecap="round" stroke-linejoin="round" stroke-miterlimit="10" width="10.999" height="7.001"/>
		<g>
			<g>
				<path d="M4.223,7.965c-0.128,0-0.256,0.048-0.354,0.146c-0.195,0.196-0.195,0.512,0,0.708c0.098,0.098,0.226,0.146,0.354,0.146
					c0.128,0,0.256-0.049,0.354-0.146c0.196-0.196,0.196-0.512,0-0.708C4.479,8.013,4.351,7.965,4.223,7.965L4.223,7.965z"/>
			</g>
		</g>
		<g>
			<g>
				<path d="M6.344,5.843c-0.128,0-0.256,0.049-0.354,0.146c-0.195,0.194-0.195,0.512,0,0.708c0.098,0.097,0.226,0.146,0.354,0.146
					c0.128,0,0.256-0.05,0.353-0.147c0.195-0.195,0.195-0.513,0-0.708C6.6,5.892,6.472,5.843,6.344,5.843L6.344,5.843z"/>
			</g>
		</g>
		<g>
			<g>
				<path d="M3.869,5.489c-0.128,0-0.256,0.048-0.354,0.147c-0.195,0.195-0.195,0.511,0,0.708C3.613,6.441,3.741,6.49,3.869,6.49
					c0.128,0,0.256-0.049,0.354-0.145c0.196-0.197,0.196-0.513,0-0.708C4.125,5.538,3.997,5.489,3.869,5.489L3.869,5.489z"/>
			</g>
		</g>
		<g>
			<g>
				<path d="M5.99,3.369c-0.128,0-0.256,0.049-0.354,0.146c-0.195,0.195-0.195,0.512,0,0.707C5.734,4.32,5.862,4.369,5.99,4.369
					c0.128,0,0.256-0.049,0.354-0.148c0.195-0.195,0.195-0.511,0-0.707C6.246,3.418,6.118,3.369,5.99,3.369L5.99,3.369z"/>
			</g>
		</g>
		<g>
			<g>
				<path d="M6.697,8.317c-0.128,0-0.256,0.05-0.354,0.148c-0.195,0.195-0.195,0.511,0,0.707C6.441,9.27,6.569,9.319,6.697,9.319
					c0.128,0,0.256-0.049,0.354-0.148c0.195-0.195,0.195-0.512,0-0.707C6.953,8.367,6.825,8.317,6.697,8.317L6.697,8.317z"/>
			</g>
		</g>
		<g>
			<g>
				<path d="M8.818,6.196c-0.128,0-0.256,0.049-0.354,0.148c-0.195,0.195-0.195,0.511,0,0.706C8.563,7.148,8.69,7.197,8.818,7.197
					c0.128,0,0.256-0.049,0.354-0.148c0.196-0.195,0.196-0.511,0-0.706C9.074,6.246,8.946,6.196,8.818,6.196L8.818,6.196z"/>
			</g>
		</g>
		<g>
			<g>
				<path d="M8.465,3.721c-0.128,0-0.256,0.049-0.354,0.146c-0.195,0.196-0.195,0.513,0,0.708c0.098,0.098,0.226,0.147,0.354,0.147
					c0.128,0,0.256-0.049,0.354-0.147c0.195-0.195,0.195-0.512,0-0.708C8.721,3.77,8.593,3.721,8.465,3.721L8.465,3.721z"/>
			</g>
		</g>
		<g>
			<g>
				<path d="M15.536,19.279c-0.128,0-0.257,0.048-0.354,0.146c-0.195,0.195-0.195,0.511,0,0.708
					c0.098,0.098,0.227,0.145,0.354,0.145c0.128,0,0.256-0.047,0.355-0.145c0.194-0.197,0.194-0.513,0-0.708
					C15.792,19.327,15.664,19.279,15.536,19.279L15.536,19.279z"/>
			</g>
		</g>
		<g>
			<g>
				<path d="M17.657,17.156c-0.128,0-0.257,0.05-0.354,0.146c-0.195,0.195-0.195,0.512,0,0.709c0.098,0.098,0.227,0.145,0.354,0.145
					c0.128,0,0.256-0.049,0.355-0.145c0.194-0.197,0.194-0.513,0-0.709C17.913,17.206,17.785,17.156,17.657,17.156L17.657,17.156z"
					/>
			</g>
		</g>
		<g>
			<g>
				<path d="M18.012,19.631c-0.129,0-0.257,0.049-0.355,0.146c-0.195,0.197-0.195,0.513,0,0.707
					c0.098,0.099,0.226,0.146,0.355,0.146c0.127,0,0.256-0.049,0.353-0.146c0.195-0.193,0.195-0.51,0-0.707
					C18.268,19.68,18.139,19.631,18.012,19.631L18.012,19.631z"/>
			</g>
		</g>
		<g>
			<g>
				<path d="M20.133,17.512c-0.128,0-0.256,0.049-0.354,0.145c-0.195,0.195-0.195,0.512,0,0.707
					c0.098,0.099,0.226,0.146,0.354,0.146c0.129,0,0.256-0.049,0.354-0.146c0.195-0.195,0.195-0.512,0-0.707
					C20.389,17.561,20.262,17.512,20.133,17.512L20.133,17.512z"/>
			</g>
		</g>
		<g>
			<g>
				<path d="M15.184,16.803c-0.129,0-0.256,0.049-0.354,0.147c-0.195,0.194-0.195,0.512,0,0.708
					c0.098,0.097,0.226,0.146,0.354,0.146c0.127,0,0.256-0.05,0.354-0.146c0.195-0.195,0.195-0.514,0-0.708
					C15.437,16.852,15.31,16.803,15.184,16.803L15.184,16.803z"/>
			</g>
		</g>
		<g>
			<g>
				<path d="M17.305,14.682c-0.129,0-0.257,0.049-0.354,0.147c-0.195,0.197-0.195,0.512,0,0.708
					c0.098,0.098,0.226,0.146,0.354,0.146c0.127,0,0.256-0.049,0.354-0.146c0.195-0.196,0.195-0.511,0-0.708
					C17.56,14.731,17.432,14.682,17.305,14.682L17.305,14.682z"/>
			</g>
		</g>
		<g>
			<g>
				<path d="M19.779,15.035c-0.129,0-0.256,0.049-0.354,0.146c-0.194,0.194-0.194,0.512,0,0.707
					c0.099,0.098,0.226,0.147,0.354,0.147c0.128,0,0.255-0.049,0.352-0.147c0.196-0.195,0.196-0.513,0-0.707
					C20.034,15.084,19.907,15.035,19.779,15.035L19.779,15.035z"/>
			</g>
		</g>
	</g>
</g>
</svg>
