<?xml version="1.0" encoding="utf-8"?>
<!-- Generator: Adobe Illustrator 19.2.0, SVG Export Plug-In . SVG Version: 6.00 Build 0)  -->
<svg version="1.1" id="Layer_1" xmlns="http://www.w3.org/2000/svg" xmlns:xlink="http://www.w3.org/1999/xlink" x="0px" y="0px"
	 viewBox="0 0 24 24" style="enable-background:new 0 0 24 24;" xml:space="preserve">
<style type="text/css">
	.st0{display:none;}
	.st1{display:inline;}
	.st2{fill:none;stroke:#000000;stroke-linejoin:round;stroke-miterlimit:10;}
	.st3{fill:none;stroke:#000000;stroke-linecap:round;stroke-linejoin:round;stroke-miterlimit:10;}
</style>
<g id="Filled_Icons" class="st0">
	<g class="st1">
		<path d="M20.6,16.1c-0.3-0.1-0.5,0-0.7,0.3c-0.1,0.3-0.5,0.2-0.6,0.2c-0.2-0.1-0.3-0.5-0.3-0.7c2.5-4,2-6.3,0.9-7.1
			c-1.1-0.7-2.9-0.3-4.3,1.9c-1.8,2.8-3.9,3.6-5,3c-1.1-0.7-1.3-3.1,0.7-6.9c1.4-2.6,1.6-4.8,0.5-6C11.1,0,9.7-0.2,8.3,0.4
			C4.6,1.8,0.9,7.5,1,17H0.5C0.2,17,0,17.2,0,17.5v6C0,23.8,0.2,24,0.5,24h2C2.8,24,3,23.8,3,23.5v-2.7C2.4,20,2,19.1,2,18
			c0-0.2,0-0.4,0-0.7C1.8,8.2,5.3,2.6,8.7,1.3c1-0.4,2-0.3,2.4,0.2c0.8,0.9,0.5,2.7-0.6,4.8c-2.5,4.7-1.8,7.4-0.4,8.2
			c1.4,0.9,4,0.2,6.3-3.3c1-1.6,2.3-2.1,3-1.6c0.7,0.5,1,2.3-1.2,5.8c-0.3,0.8,0,1.8,0.8,2.1c0.8,0.3,1.6,0,1.9-0.7
			C21,16.5,20.8,16.2,20.6,16.1z"/>
		<path d="M6.5,14.5C4.6,14.5,3,16.1,3,18c0,1.9,1.6,3.5,3.5,3.5c1.9,0,3.5-1.6,3.5-3.5C10,16.1,8.4,14.5,6.5,14.5z M6.5,19.5
			C5.7,19.5,5,18.8,5,18c0-0.8,0.7-1.5,1.5-1.5C7.3,16.5,8,17.2,8,18C8,18.8,7.3,19.5,6.5,19.5z"/>
	</g>
</g>
<g id="Outline_Icons">
	<g>
		<rect x="0.5" y="17.5" class="st2" width="2" height="6"/>
		<circle class="st2" cx="5.5" cy="18" r="3"/>
		<path class="st3" d="M20.4,16.6c-0.2,0.5-0.8,0.6-1.3,0.4c-0.5-0.2-0.7-0.9-0.5-1.4c4.1-6.5,0-8.5-2.6-4.6c-4,6-9.5,3.7-5.1-4.4
			C16.2-3.3,1.1-2,1.5,17.4"/>
		<circle class="st3" cx="5.5" cy="18" r="1"/>
	</g>
</g>
</svg>
