<?xml version="1.0" encoding="utf-8"?>
<!-- Generator: Adobe Illustrator 19.2.0, SVG Export Plug-In . SVG Version: 6.00 Build 0)  -->
<svg version="1.1" id="Layer_1" xmlns="http://www.w3.org/2000/svg" xmlns:xlink="http://www.w3.org/1999/xlink" x="0px" y="0px"
	 viewBox="0 0 24 24" enable-background="new 0 0 24 24" xml:space="preserve">
<g id="Filled_Icons" display="none">
	<g display="inline">
		<path d="M8.535,4.933c-4.469,0.81-5.334,4.64-5.343,4.683C3.158,9.78,3.209,9.951,3.328,10.07l1.783,1.784
			C5.586,9.875,6.555,7.264,8.535,4.933z"/>
		<path d="M13.167,18.637l1.825,1.842c0.094,0.094,0.222,0.146,0.353,0.146h0.002c0.133,0,0.26-0.053,0.353-0.146
			c2.299-2.299,3.496-4.254,4.127-5.683C17.675,16.898,15.208,18.027,13.167,18.637z"/>
		<g>
			<path d="M22.066,1.939c-0.521-0.521-1.951-0.707-3.116-0.707c-1.614,0-5.714,0.345-8.904,3.535
				c-3.193,3.192-4.061,7.225-4.298,9.139l4.359,4.358c1.915-0.226,5.925-1.074,9.142-4.293C23.592,9.629,23.18,3.053,22.066,1.939z
				 M17.087,6.859c-0.282,0.283-0.659,0.439-1.062,0.439c-0.399,0-0.776-0.156-1.061-0.439c-0.584-0.584-0.585-1.535,0-2.121
				c0.568-0.568,1.559-0.566,2.121,0c0.284,0.283,0.439,0.66,0.439,1.062C17.525,6.2,17.37,6.577,17.087,6.859z"/>
			<path d="M5.313,14.884l-5.036,2.519C0.105,17.486-0.002,17.662,0,17.854c0.002,0.19,0.112,0.365,0.284,0.446l3.857,1.847
				l1.557,3.561c0.077,0.177,0.251,0.294,0.445,0.299c0.004,0,0.009,0,0.013,0c0.189,0,0.362-0.106,0.447-0.276l2.519-5.037
				L5.313,14.884z"/>
		</g>
	</g>
</g>
<g id="Outline_Icons">
	<g>
		<path fill="none" stroke="#000000" stroke-linejoin="round" stroke-miterlimit="10" d="M21.713,2.286
			c0.816,0.818,1.381,7.127-2.816,11.325c-4.199,4.197-9.911,4.231-9.911,4.231l-2.829-2.828c0,0,0.089-5.746,4.243-9.899
			C14.555,0.961,20.896,1.469,21.713,2.286z"/>
		<polygon fill="none" stroke="#000000" stroke-linejoin="round" stroke-miterlimit="10" points="8.985,17.844 6.156,23.5 
			4.525,19.77 0.5,17.844 6.156,15.016 		"/>
		<path fill="none" stroke="#000000" stroke-linejoin="round" stroke-miterlimit="10" d="M20.025,12.27c0,0-0.016,3.188-4.678,7.85
			l-2.834-2.858"/>
		<path fill="none" stroke="#000000" stroke-linejoin="round" stroke-miterlimit="10" d="M6.51,12.539L3.682,9.711
			c0,0,0.897-4.32,6.344-4.441"/>
		<circle fill="none" stroke="#000000" stroke-linejoin="round" stroke-miterlimit="10" cx="16.025" cy="5.792" r="1"/>
	</g>
</g>
</svg>
