<?xml version="1.0" encoding="utf-8"?>
<!-- Generator: Adobe Illustrator 19.2.0, SVG Export Plug-In . SVG Version: 6.00 Build 0)  -->
<svg version="1.1" id="Layer_1" xmlns="http://www.w3.org/2000/svg" xmlns:xlink="http://www.w3.org/1999/xlink" x="0px" y="0px"
	 viewBox="0 0 24 24" style="enable-background:new 0 0 24 24;" xml:space="preserve">
<style type="text/css">
	.st0{display:none;}
	.st1{display:inline;}
	.st2{fill:none;stroke:#000000;stroke-linecap:round;stroke-linejoin:round;stroke-miterlimit:10;}
</style>
<g id="Filled_Icons" class="st0">
	<g class="st1">
		<path d="M21.3,11.9c3.4-4.3,2.7-11,2.6-11.3c0-0.2-0.2-0.4-0.4-0.4c0,0-0.8-0.1-1.9-0.1c-2.3,0-6.4,0.4-9.4,2.8L21.3,11.9z
			 M20.6,2.7c0.8,0.8,0.8,2,0,2.8c-0.4,0.4-0.9,0.6-1.4,0.6c-0.5,0-1-0.2-1.4-0.6c-0.4-0.4-0.6-0.9-0.6-1.4c0-0.5,0.2-1,0.6-1.4
			C18.5,2,19.8,2,20.6,2.7z"/>
		<path d="M8.8,16c0.3,0,1,0.1,1.8,0.1c2.5,0,7.1-0.4,10-3.4c0,0,0,0,0.1-0.1l-9.2-9.2C7.5,7.3,7.9,13.9,8,15.3l-3,3
			c-0.8,0.8-2,0.8-2.8,0c-0.8-0.8-0.8-2,0-2.8L4.7,13c0.2-0.2,0.2-0.5,0-0.7c-0.2-0.2-0.5-0.2-0.7,0l-2.5,2.5
			c-1.2,1.2-1.2,3.1,0,4.2c0.6,0.6,1.4,0.9,2.1,0.9c0.2,0,0.4,0,0.6-0.1c0,0.2-0.1,0.4-0.1,0.6c0,0.8,0.3,1.6,0.9,2.1
			c0.6,0.6,1.3,0.9,2.1,0.9c0.8,0,1.6-0.3,2.1-0.9l2.5-2.5c0.2-0.2,0.2-0.5,0-0.7c-0.2-0.2-0.5-0.2-0.7,0l-2.5,2.5
			c-0.8,0.8-2.1,0.8-2.8,0c-0.4-0.4-0.6-0.9-0.6-1.4c0-0.5,0.2-1,0.6-1.4L8.8,16z"/>
	</g>
</g>
<g id="Outline_Icons">
	<g>
		<g>
			<path class="st2" d="M8.6,15.4l-3.2,3.2c-1,1-2.6,1-3.5,0c-1-1-1-2.6,0-3.5l2.5-2.5"/>
		</g>
		<g>
			<path class="st2" d="M8.6,15.4l-3.2,3.2c-1,1-1,2.6,0,3.5c1,1,2.6,1,3.5,0l2.5-2.5"/>
		</g>
		<path class="st2" d="M20.2,12.3c-4.1,4.1-11.6,3.1-11.6,3.1S7.7,7.9,11.8,3.8c4.1-4.1,11.7-3.2,11.7-3.2S24.3,8.2,20.2,12.3z"/>
		<circle class="st2" cx="19.2" cy="4.1" r="1.5"/>
		<line class="st2" x1="12.1" y1="3.4" x2="20.6" y2="11.9"/>
	</g>
</g>
</svg>
