<?xml version="1.0" encoding="utf-8"?>
<!-- Generator: Adobe Illustrator 19.2.0, SVG Export Plug-In . SVG Version: 6.00 Build 0)  -->
<svg version="1.1" id="Layer_1" xmlns="http://www.w3.org/2000/svg" xmlns:xlink="http://www.w3.org/1999/xlink" x="0px" y="0px"
	 viewBox="0 0 24 24" style="enable-background:new 0 0 24 24;" xml:space="preserve">
<style type="text/css">
	.st0{display:none;}
	.st1{display:inline;}
	.st2{fill:none;stroke:#000000;stroke-linecap:round;stroke-linejoin:round;stroke-miterlimit:10;}
	.st3{fill:none;stroke:#000000;stroke-linejoin:round;stroke-miterlimit:10;}
</style>
<g id="Filled_Icons" class="st0">
	<path class="st1" d="M23.6,16c0-0.9-0.6-1.7-1.5-1.9L22,0l-1,0l0.1,14.1c-0.9,0.2-1.5,1-1.5,1.9c0,0.9,0.6,1.7,1.5,1.9L21,22
		c0,0.6-0.4,1-1,1c-0.6,0-1-0.4-1-1v-1c0-0.3-0.2-0.5-0.5-0.5c-0.3,0-0.5,0.2-0.5,0.5v1c0,1.1,0.9,2,2,2c1.1,0,2-0.9,2-2l0.1-4.1
		C22.9,17.7,23.6,16.9,23.6,16z"/>
	<path class="st1" d="M18.4,13.3c-0.1-0.2-3.3-4.2-7.4-4.2c-3.3,0-6,2.6-7,3.7L0.9,8.7C0.8,8.5,0.5,8.5,0.3,8.5C0.1,8.6,0,8.8,0,9v9
		c0,0.2,0.1,0.4,0.3,0.5c0.1,0,0.1,0,0.2,0c0.1,0,0.3-0.1,0.4-0.2L4,14.4c1,1.1,3.7,3.7,6.9,3.7c4.1,0,7.3-4,7.4-4.2
		C18.5,13.7,18.5,13.5,18.4,13.3z M13,14c-0.6,0-1-0.4-1-1c0-0.6,0.4-1,1-1c0.6,0,1,0.4,1,1C14,13.6,13.6,14,13,14z"/>
</g>
<g id="Outline_Icons">
	<g>
		<path class="st2" d="M11,17.6c-3.9,0-7-4-7-4s3.1-4,7-4c3.9,0,7,4,7,4S14.8,17.6,11,17.6z"/>
		<line class="st3" x1="21.5" y1="0" x2="21.6" y2="14.5"/>
		<circle class="st3" cx="21.6" cy="16" r="1.5"/>
		<path class="st2" d="M21.6,17.5L21.5,22c0,0.8-0.7,1.5-1.5,1.5c-0.8,0-1.5-0.7-1.5-1.5v-1"/>
		<polygon class="st2" points="4,13.6 0.5,9 0.5,18 		"/>
		<circle class="st2" cx="13" cy="13" r="0.5"/>
	</g>
</g>
</svg>
