<?xml version="1.0" encoding="utf-8"?>
<!-- Generator: Adobe Illustrator 19.2.0, SVG Export Plug-In . SVG Version: 6.00 Build 0)  -->
<svg version="1.1" id="Layer_1" xmlns="http://www.w3.org/2000/svg" xmlns:xlink="http://www.w3.org/1999/xlink" x="0px" y="0px"
	 viewBox="0 0 24 24" enable-background="new 0 0 24 24" xml:space="preserve">
<g id="Filled_Icons" display="none">
	<g display="inline">
		<path d="M20.689,17.732C18.4,15.329,15.314,14.005,12,14.005c-3.315,0-6.401,1.323-8.689,3.727
			c-0.081,0.084-0.174,0.154-0.265,0.227c0.23,2.268,2.128,4.047,4.454,4.047h9c2.326,0,4.223-1.779,4.454-4.046
			C20.863,17.889,20.771,17.816,20.689,17.732z"/>
		<g>
			<path d="M2.862,16.781L8.693,4.473C6.752,5.025,4.972,6.06,3.509,7.526C1.236,9.807-0.01,12.82,0,16.016
				c0.003,0.614,0.374,1.159,0.946,1.387C1.77,17.731,2.299,17.339,2.862,16.781z"/>
			<path d="M4.692,15.256c1.758-1.203,3.775-1.949,5.917-2.175l4.148-8.746C13.863,4.126,12.941,4.006,12,4.006
				c-0.701,0-1.391,0.07-2.066,0.187L4.692,15.256z"/>
			<path d="M20.491,7.526c-0.029-0.029-0.064-0.054-0.093-0.084l-3.162,6.662c1.55,0.683,2.968,1.67,4.177,2.939
				c0.282,0.296,0.679,0.465,1.087,0.465c0.805,0,1.496-0.644,1.5-1.494C24.01,12.82,22.764,9.807,20.491,7.526z"/>
			<path d="M19.625,6.74c-1.16-0.96-2.479-1.674-3.889-2.135l-3.989,8.413c1.602-0.037,3.092,0.215,4.553,0.726L19.625,6.74z"/>
		</g>
	</g>
</g>
<g id="Outline_Icons">
	<g>
		<path fill="none" stroke="#000000" stroke-linejoin="round" stroke-miterlimit="10" d="M3.5,15.531V17.5c0,2.209,1.791,4,4,4h9
			c2.209,0,4-1.791,4-4v-1.969"/>
		<path fill="none" stroke="#000000" stroke-linejoin="round" stroke-miterlimit="10" d="M12,12.5c3.848,0,7.316,1.609,9.775,4.191
			c0.281,0.295,0.715,0.391,1.094,0.24c0.38-0.152,0.629-0.519,0.631-0.927C23.519,9.786,18.471,4.5,12,4.5
			C5.529,4.5,0.48,9.787,0.5,16.006c0.002,0.408,0.251,0.773,0.631,0.926c0.379,0.15,0.813,0.057,1.094-0.238
			C4.684,14.109,8.153,12.5,12,12.5z"/>
		
			<line fill="none" stroke="#000000" stroke-linejoin="round" stroke-miterlimit="10" x1="4.25" y1="15.031" x2="9.063" y2="4.813"/>
		
			<line fill="none" stroke="#000000" stroke-linejoin="round" stroke-miterlimit="10" x1="11.401" y1="12.586" x2="15.062" y2="4.813"/>
		
			<line fill="none" stroke="#000000" stroke-linejoin="round" stroke-miterlimit="10" x1="16.98" y1="13.479" x2="19.787" y2="7.52"/>
	</g>
</g>
</svg>
