<?xml version="1.0" encoding="utf-8"?>
<!-- Generator: Adobe Illustrator 19.2.0, SVG Export Plug-In . SVG Version: 6.00 Build 0)  -->
<svg version="1.1" id="Layer_1" xmlns="http://www.w3.org/2000/svg" xmlns:xlink="http://www.w3.org/1999/xlink" x="0px" y="0px"
	 viewBox="0 0 24 24" style="enable-background:new 0 0 24 24;" xml:space="preserve">
<style type="text/css">
	.st0{display:none;}
	.st1{display:inline;}
	.st2{fill:none;stroke:#000000;stroke-linejoin:round;stroke-miterlimit:10;}
	.st3{fill:none;stroke:#000000;stroke-linecap:round;stroke-linejoin:round;stroke-miterlimit:10;}
</style>
<g id="Filled_Icons" class="st0">
	<g class="st1">
		<path d="M22,21H2c-1.3,0-2,0.5-2,1.5c0,1,0.7,1.5,2,1.5h20c1.3,0,2-0.5,2-1.5C24,21.5,23.3,21,22,21z"/>
		<path d="M5.7,20h12.8c1,0,3.5,0,3.5-2.3c0-1.5-1-2.8-2.5-3.2l-1.2-0.3L20,2.5C20,1.1,18.9,0,17.5,0h-3C14.2,0,14,0.2,14,0.5
			C14,0.8,14.2,1,14.5,1h3C18.3,1,19,1.7,19,2.4l-1.7,11.5L9,11.9V9h2.4C12.3,9,13,8.3,13,7.4c0-0.7-0.5-1.4-1.2-1.6l-5-1.2
			C6.1,4.4,5.4,4.6,4.9,5C4.3,5.4,4,6.1,4,6.8C4,8,5,9,6.3,9H8v2.6l-0.9-0.2c-1.4-0.4-3,0-4.2,0.9C1.7,13.2,1,14.6,1,16.1
			C1,18.6,2.7,20,5.7,20z M6.2,14.1C6.4,14,6.8,14,6.9,14.2L9.9,18h1.6c0.3,0,0.5,0.2,0.5,0.5c0,0.3-0.2,0.5-0.5,0.5h-4
			C7.2,19,7,18.8,7,18.5C7,18.2,7.2,18,7.5,18h1.1l-2.4-3.2C6,14.6,6,14.3,6.2,14.1z"/>
	</g>
</g>
<g id="Outline_Icons">
	<g>
		<path class="st2" d="M23.5,22c0,0.8-0.7,1.5-1.5,1.5H2c-0.8,0-1.5-0.7-1.5-1.5c0-0.8,0.7-1.5,1.5-1.5h20
			C22.8,20.5,23.5,21.2,23.5,22z"/>
		<path class="st2" d="M1.5,16.1c0-1.3,0.6-2.6,1.7-3.5c1.1-0.8,2.5-1.1,3.8-0.8L19.4,15c1.2,0.3,2.1,1.4,2.1,2.7
			c0,1.6-1.3,2.8-2.8,2.8H5.9C3.5,20.5,1.5,18.5,1.5,16.1z"/>
		<path class="st3" d="M14.5,0.5h3c1.1,0,2,0.9,2,2l-1.8,12.1"/>
		<line class="st3" x1="8.5" y1="12.2" x2="8.5" y2="8.5"/>
		<line class="st3" x1="7.5" y1="18.5" x2="11.5" y2="18.5"/>
		<line class="st3" x1="9.5" y1="18.4" x2="6.5" y2="14.5"/>
		<path class="st3" d="M4.5,6.7c0-0.5,0.2-1,0.7-1.4C5.6,5,6.2,4.9,6.7,5l5,1.2c0.5,0.1,0.9,0.6,0.9,1.1c0,0.6-0.5,1.1-1.1,1.1H6.3
			C5.3,8.5,4.5,7.7,4.5,6.7z"/>
	</g>
</g>
</svg>
