<?xml version="1.0" encoding="utf-8"?>
<!-- Generator: Adobe Illustrator 19.2.0, SVG Export Plug-In . SVG Version: 6.00 Build 0)  -->
<svg version="1.1" id="Layer_1" xmlns="http://www.w3.org/2000/svg" xmlns:xlink="http://www.w3.org/1999/xlink" x="0px" y="0px"
	 viewBox="0 0 24 24" style="enable-background:new 0 0 24 24;" xml:space="preserve">
<style type="text/css">
	.st0{display:none;}
	.st1{display:inline;}
	.st2{fill:none;stroke:#000000;stroke-linejoin:round;stroke-miterlimit:10;}
</style>
<g id="Filled_Icons" class="st0">
	<g class="st1">
		<path d="M14.2,8.4c0.1,0,0.2,0,0.3-0.1c0.2-0.1,0.3-0.3,0.2-0.5l-0.7-2.4l1.8-1.5C16,3.8,16,3.5,16,3.3C15.9,3.1,15.7,3,15.5,3
			h-2.2l-0.9-2.2c-0.2-0.4-0.8-0.4-0.9,0L10.7,3H8.5C8.3,3,8.1,3.1,8,3.3C8,3.5,8,3.8,8.2,3.9l1.8,1.5L9.3,7.8
			C9.2,8,9.3,8.2,9.5,8.3c0.2,0.1,0.4,0.1,0.6,0L12,6.8l1.9,1.5C14,8.4,14.1,8.4,14.2,8.4z"/>
		<path d="M5.9,14.3c0.1,0.1,0.2,0.1,0.3,0.1c0.1,0,0.2,0,0.3-0.1c0.2-0.1,0.3-0.3,0.2-0.5l-0.7-2.4l1.8-1.5C8,9.8,8,9.5,8,9.3
			C7.9,9.1,7.7,9,7.5,9H5.3L4.5,6.8c-0.2-0.4-0.8-0.4-0.9,0L2.7,9H0.5C0.3,9,0.1,9.1,0,9.3C0,9.5,0,9.8,0.2,9.9l1.8,1.5l-0.7,2.4
			c-0.1,0.2,0,0.4,0.2,0.5c0.2,0.1,0.4,0.1,0.6,0L4,12.8L5.9,14.3z"/>
		<path d="M24,9.3C23.9,9.1,23.7,9,23.5,9h-2.2l-0.9-2.2c-0.2-0.4-0.8-0.4-0.9,0L18.7,9h-2.2c-0.2,0-0.4,0.1-0.5,0.3
			c-0.1,0.2,0,0.4,0.1,0.6l1.8,1.5l-0.7,2.4c-0.1,0.2,0,0.4,0.2,0.5c0.2,0.1,0.4,0.1,0.6,0l1.9-1.5l1.9,1.5c0.1,0.1,0.2,0.1,0.3,0.1
			c0.1,0,0.2,0,0.3-0.1c0.2-0.1,0.3-0.3,0.2-0.5l-0.7-2.4l1.8-1.5C24,9.8,24,9.5,24,9.3z"/>
		<path d="M20.5,18h-2.2l-0.9-2.2c-0.2-0.4-0.8-0.4-0.9,0L15.7,18h-2.2c-0.2,0-0.4,0.1-0.5,0.3c-0.1,0.2,0,0.4,0.1,0.6l1.8,1.5
			l-0.7,2.4c-0.1,0.2,0,0.4,0.2,0.5c0.2,0.1,0.4,0.1,0.6,0l1.9-1.5l1.9,1.5c0.2,0.1,0.4,0.1,0.6,0c0.2-0.1,0.3-0.3,0.2-0.5l-0.7-2.4
			l1.8-1.5c0.2-0.1,0.2-0.4,0.1-0.6C20.9,18.1,20.7,18,20.5,18z"/>
		<path d="M10.5,18H8.3l-0.9-2.2c-0.2-0.4-0.8-0.4-0.9,0L5.7,18H3.5c-0.2,0-0.4,0.1-0.5,0.3c-0.1,0.2,0,0.4,0.1,0.6l1.8,1.5
			l-0.7,2.4c-0.1,0.2,0,0.4,0.2,0.5c0.2,0.1,0.4,0.1,0.6,0L7,21.8l1.9,1.5c0.2,0.1,0.4,0.1,0.6,0c0.2-0.1,0.3-0.3,0.2-0.5l-0.7-2.4
			l1.8-1.5c0.2-0.1,0.2-0.4,0.1-0.6C10.9,18.1,10.7,18,10.5,18z"/>
	</g>
</g>
<g id="Outline_Icons">
	<g>
		<polygon class="st2" points="12,1 13,3.5 15.5,3.5 13.5,5.2 14.2,7.9 12,6.1 9.8,7.9 10.5,5.2 8.5,3.5 11,3.5 		"/>
		<polygon class="st2" points="4,7 5,9.5 7.5,9.5 5.5,11.2 6.2,13.9 4,12.1 1.8,13.9 2.5,11.2 0.5,9.5 3,9.5 		"/>
		<polygon class="st2" points="20,7 21,9.5 23.5,9.5 21.5,11.2 22.2,13.9 20,12.1 17.8,13.9 18.5,11.2 16.5,9.5 19,9.5 		"/>
		<polygon class="st2" points="17,16 18,18.5 20.5,18.5 18.5,20.2 19.2,22.9 17,21.1 14.8,22.9 15.5,20.2 13.5,18.5 16,18.5 		"/>
		<polygon class="st2" points="7,16 8,18.5 10.5,18.5 8.5,20.2 9.2,22.9 7,21.1 4.8,22.9 5.5,20.2 3.5,18.5 6,18.5 		"/>
	</g>
</g>
</svg>
