<?xml version="1.0" encoding="utf-8"?>
<!-- Generator: Adobe Illustrator 19.2.0, SVG Export Plug-In . SVG Version: 6.00 Build 0)  -->
<svg version="1.1" id="Layer_1" xmlns="http://www.w3.org/2000/svg" xmlns:xlink="http://www.w3.org/1999/xlink" x="0px" y="0px"
	 viewBox="0 0 24 24" style="enable-background:new 0 0 24 24;" xml:space="preserve">
<style type="text/css">
	.st0{display:none;}
	.st1{display:inline;}
	.st2{fill:none;stroke:#000000;stroke-linecap:round;stroke-linejoin:round;stroke-miterlimit:10;}
</style>
<g id="Filled_Icon" class="st0">
	<g class="st1">
		<g>
			<path d="M1.2,19.1c-0.3,0-0.5,0-0.8-0.1C0.1,19,0,18.7,0,18.4C0.1,18.1,0.3,18,0.6,18c2.1,0.5,3.9-1.8,4-1.8
				c0.2-0.3,0.6-0.2,0.8,0c0,0,1.2,1.8,3.2,1.8c2.1,0,3-1.8,3-1.8c0.2-0.3,0.7-0.4,0.9-0.1c0,0,1.4,1.8,3.4,1.8
				c2.1,0,3.2-1.8,3.2-1.8c0.2-0.3,0.7-0.3,0.9,0c0.1,0.1,1.4,2.2,3.5,1.8c0.3-0.1,0.5,0.1,0.6,0.4c0.1,0.3-0.1,0.5-0.4,0.6
				c-2,0.4-3.5-0.9-4.2-1.6c-0.6,0.7-1.8,1.7-3.6,1.7c-1.8,0-3.1-1.1-3.8-1.7c-0.5,0.7-1.6,1.7-3.5,1.7c-1.8,0-3.1-1.1-3.6-1.8
				C4.3,17.9,2.9,19.1,1.2,19.1z"/>
		</g>
		<g>
			<path d="M8.6,17.1c1.5,0,2.1-1.2,2.1-1.2c0.2-0.5,0.8-0.9,1.4-0.9c0.5,0,0.9,0.2,1.2,0.6c0,0,1.1,1.4,2.6,1.4
				c0.4,0,0.7-0.1,1-0.2C16.3,14.6,14.4,13,12,13v-2.7l7.2-3.9c0.2-0.1,0.3-0.3,0.3-0.4c0-0.2-0.1-0.4-0.3-0.4l-7.5-4
				c-0.2-0.1-0.3-0.1-0.5,0C11.1,1.7,11,1.8,11,2v8c0,0,0,0,0,0v3.1c-1.8,0.4-3.3,1.8-3.8,3.5C7.6,16.9,8,17.1,8.6,17.1z"/>
			<path d="M15.8,20.1c-1.6,0-2.8-0.7-3.7-1.3c-0.8,0.7-2,1.3-3.6,1.3c-0.4,0-0.8-0.1-1.2-0.1C8.1,21.7,9.9,23,12,23
				c2,0,3.8-1.2,4.6-3C16.3,20,16.1,20.1,15.8,20.1z"/>
		</g>
	</g>
</g>
<g id="Outline_Icons">
	<g>
		<path class="st2" d="M23.5,18.5c-2.5,0.5-4.1-2-4.1-2h0c0,0-1.2,2.1-3.6,2.1c-2.3,0-3.8-2.1-3.8-2.1h0c0,0-1,2.1-3.4,2.1
			c-2.3,0-3.6-2.1-3.6-2.1h0c0,0-2,2.5-4.5,2"/>
		<circle class="st2" cx="12" cy="18" r="4.5"/>
		<polyline class="st2" points="11.5,13.5 11.5,2 19,6 11.5,10 		"/>
	</g>
</g>
</svg>
