<?xml version="1.0" encoding="utf-8"?>
<!-- Generator: Adobe Illustrator 19.2.0, SVG Export Plug-In . SVG Version: 6.00 Build 0)  -->
<svg version="1.1" id="Layer_1" xmlns="http://www.w3.org/2000/svg" xmlns:xlink="http://www.w3.org/1999/xlink" x="0px" y="0px"
	 viewBox="0 0 24 24" style="enable-background:new 0 0 24 24;" xml:space="preserve">
<style type="text/css">
	.st0{display:none;}
	.st1{display:inline;}
	.st2{fill:none;stroke:#000000;stroke-linecap:round;stroke-linejoin:round;stroke-miterlimit:10;}
</style>
<g id="Filled_Icons" class="st0">
	<g class="st1">
		<path d="M2,0C1.4,0,1,0.4,1,1v22c0,0.6,0.4,1,1,1c0.6,0,1-0.4,1-1V1C3,0.4,2.6,0,2,0z"/>
		<path d="M21.8,2.8c-0.1-0.1-0.3-0.1-0.4-0.1c0,0-3.1,0.8-5.5,0.8h0c-0.8,0-1.4-0.1-1.9-0.3c-0.5-0.2-0.6-0.5-0.6-0.8
			c0-0.7-0.4-1.8-2.7-1.8C8.2,0.7,4.5,2,4.3,2C4.1,2.1,4,2.3,4,2.5v12c0,0.2,0.1,0.3,0.2,0.4C4.3,15,4.5,15,4.7,15
			c0,0,3.7-1.3,6.1-1.3c1.7,0,1.7,0.6,1.7,0.8c0,0.9,0.6,2.1,3.5,2.1l0,0c2.5,0,5.5-0.8,5.7-0.8c0.2-0.1,0.4-0.3,0.4-0.5v-12
			C22,3,21.9,2.9,21.8,2.8z"/>
	</g>
</g>
<g id="Outline_Icons">
	<g>
		<line class="st2" x1="2.5" y1="0.5" x2="2.5" y2="23.5"/>
		<path class="st2" d="M21.5,3.2c0,0-8.5,2.3-8.5-0.7s-8.5,0-8.5,0v12c0,0,8.5-3,8.5,0s8.5,0.7,8.5,0.7V3.2z"/>
	</g>
</g>
</svg>
