<?xml version="1.0" encoding="utf-8"?>
<!-- Generator: Adobe Illustrator 19.2.0, SVG Export Plug-In . SVG Version: 6.00 Build 0)  -->
<svg version="1.1" id="Layer_1" xmlns="http://www.w3.org/2000/svg" xmlns:xlink="http://www.w3.org/1999/xlink" x="0px" y="0px"
	 viewBox="0 0 24 24" style="enable-background:new 0 0 24 24;" xml:space="preserve">
<style type="text/css">
	.st0{display:none;}
	.st1{display:inline;}
	.st2{fill:none;stroke:#000000;stroke-linecap:round;stroke-linejoin:round;stroke-miterlimit:10;}
</style>
<g id="Filled_Icons" class="st0">
	<g class="st1">
		<path d="M21.5,1h-17C4.2,1,4,1.2,4,1.5v12C4,13.8,4.2,14,4.5,14h17c0.3,0,0.5-0.2,0.5-0.5v-12C22,1.2,21.8,1,21.5,1z"/>
		<path d="M2,0C1.4,0,1,0.4,1,1v22c0,0.6,0.4,1,1,1c0.6,0,1-0.4,1-1V1C3,0.4,2.6,0,2,0z"/>
	</g>
</g>
<g id="Outline_Icons">
	<g>
		<rect x="4.5" y="1.5" class="st2" width="17" height="12"/>
		<line class="st2" x1="2.5" y1="0.5" x2="2.5" y2="23.5"/>
	</g>
</g>
</svg>
