<?xml version="1.0" encoding="utf-8"?>
<!-- Generator: Adobe Illustrator 19.2.0, SVG Export Plug-In . SVG Version: 6.00 Build 0)  -->
<svg version="1.1" id="Layer_1" xmlns="http://www.w3.org/2000/svg" xmlns:xlink="http://www.w3.org/1999/xlink" x="0px" y="0px"
	 viewBox="0 0 24 24" style="enable-background:new 0 0 24 24;" xml:space="preserve">
<style type="text/css">
	.st0{display:none;}
	.st1{display:inline;}
	.st2{fill:none;stroke:#000000;stroke-linecap:round;stroke-linejoin:round;stroke-miterlimit:10;}
</style>
<g id="Filled_Icons" class="st0">
	<g class="st1">
		<path d="M21.8,13.1l-7-5.6l7-5.6C22,1.8,22,1.5,22,1.3C21.9,1.1,21.7,1,21.5,1h-18C3.2,1,3,1.2,3,1.5v12C3,13.8,3.2,14,3.5,14h18
			c0,0,0,0,0,0c0.3,0,0.5-0.2,0.5-0.5C22,13.3,21.9,13.2,21.8,13.1z"/>
		<path d="M1,0C0.4,0,0,0.4,0,1v22c0,0.6,0.4,1,1,1c0.6,0,1-0.4,1-1V1C2,0.4,1.6,0,1,0z"/>
	</g>
</g>
<g id="Outline_Icons">
	<g>
		<polygon class="st2" points="21.5,13.5 3.5,13.5 3.5,1.5 21.5,1.5 14,7.5 		"/>
		<line class="st2" x1="1.5" y1="0.5" x2="1.5" y2="23.5"/>
	</g>
</g>
</svg>
