<?xml version="1.0" encoding="utf-8"?>
<!-- Generator: Adobe Illustrator 19.2.0, SVG Export Plug-In . SVG Version: 6.00 Build 0)  -->
<svg version="1.1" id="Layer_1" xmlns="http://www.w3.org/2000/svg" xmlns:xlink="http://www.w3.org/1999/xlink" x="0px" y="0px"
	 viewBox="0 0 24 24" style="enable-background:new 0 0 24 24;" xml:space="preserve">
<style type="text/css">
	.st0{display:none;}
	.st1{display:inline;}
	.st2{fill:none;stroke:#000000;stroke-linecap:round;stroke-linejoin:round;stroke-miterlimit:10;}
</style>
<g id="Filled_Icons" class="st0">
	<g class="st1">
		<path d="M20.7,7.5L5.7,1C5.5,1,5.4,1,5.2,1.1C5.1,1.2,5,1.3,5,1.5v13c0,0.2,0.1,0.3,0.2,0.4C5.4,15,5.5,15,5.7,15l15-6.5
			C20.9,8.4,21,8.2,21,8C21,7.8,20.9,7.6,20.7,7.5z"/>
		<path d="M3,0C2.4,0,2,0.4,2,1v22c0,0.6,0.4,1,1,1c0.6,0,1-0.4,1-1V1C4,0.4,3.6,0,3,0z"/>
	</g>
</g>
<g id="Outline_Icons">
	<g>
		<polygon class="st2" points="5.5,14.5 5.5,1.5 20.5,8 		"/>
		<line class="st2" x1="3.5" y1="0.5" x2="3.5" y2="23.5"/>
	</g>
</g>
</svg>
