<?xml version="1.0" encoding="utf-8"?>
<!-- Generator: Adobe Illustrator 19.2.0, SVG Export Plug-In . SVG Version: 6.00 Build 0)  -->
<svg version="1.1" id="Layer_1" xmlns="http://www.w3.org/2000/svg" xmlns:xlink="http://www.w3.org/1999/xlink" x="0px" y="0px"
	 viewBox="0 0 24 24" enable-background="new 0 0 24 24" xml:space="preserve">
<g id="Filled_Icons" display="none">
	<g display="inline">
		<path d="M0.361,2.66l0.517,0.15L1.88,9.562c0.028,0.192,0.166,0.352,0.353,0.406C2.28,9.982,2.328,9.989,2.375,9.989
			c0.142,0,0.278-0.06,0.375-0.169l4.546-5.155l1.243,0.359l0.944,6.77c0.034,0.248,0.247,0.432,0.495,0.432
			c0.14,0,0.275-0.06,0.372-0.166l4.64-5.17l1.201,0.347l0.945,6.772c0.025,0.191,0.162,0.351,0.348,0.408
			c0.183,0.058,0.386,0.004,0.52-0.145l4.643-5.17l0.658,0.19c0.045,0.014,0.092,0.02,0.139,0.02c0.217,0,0.416-0.142,0.479-0.361
			c0.076-0.265-0.075-0.542-0.342-0.619L0.639,1.699C0.376,1.623,0.097,1.775,0.02,2.041C-0.057,2.307,0.096,2.584,0.361,2.66z"/>
		<path d="M23.412,14.298L1.195,16.796L0.87,16.827c-0.008,0-0.014,0.006-0.021,0.007l-0.372,0.042
			c-0.274,0.032-0.472,0.278-0.441,0.554c0.029,0.256,0.245,0.443,0.496,0.443c0.019,0,0.038,0,0.057-0.003l0.064-0.007l3.443,5.894
			c0.09,0.155,0.255,0.248,0.432,0.248c0.016,0,0.031,0,0.047-0.002c0.193-0.02,0.359-0.147,0.424-0.33l2.332-6.562l1.528-0.17
			l3.468,5.938c0.09,0.155,0.255,0.248,0.432,0.248c0.017,0,0.031,0,0.048-0.002c0.192-0.019,0.358-0.145,0.424-0.33l2.352-6.612
			l1.091-0.121l3.431,5.875c0.09,0.154,0.254,0.248,0.432,0.248c0.016,0,0.031,0,0.047-0.002c0.193-0.02,0.359-0.147,0.424-0.33
			l2.325-6.539l0.194-0.023c0.273-0.03,0.472-0.278,0.44-0.552C23.934,14.465,23.678,14.272,23.412,14.298z"/>
	</g>
</g>
<g id="Outline_Icons">
	<g>
		
			<line fill="none" stroke="#000000" stroke-linecap="round" stroke-linejoin="round" stroke-miterlimit="10" x1="0.5" y1="2.174" x2="23.441" y2="8.805"/>
		<polygon fill="none" stroke="#000000" stroke-linecap="round" stroke-linejoin="round" stroke-miterlimit="10" points="1.323,2.4 
			2.374,9.482 7.121,4.1 		"/>
		<polygon fill="none" stroke="#000000" stroke-linecap="round" stroke-linejoin="round" stroke-miterlimit="10" points="
			8.988,4.627 9.978,11.718 14.771,6.377 		"/>
		<polygon fill="none" stroke="#000000" stroke-linecap="round" stroke-linejoin="round" stroke-miterlimit="10" points="
			16.643,6.842 17.631,13.932 22.425,8.592 		"/>
		
			<line fill="none" stroke="#000000" stroke-linecap="round" stroke-linejoin="round" stroke-miterlimit="10" x1="0.533" y1="17.367" x2="23.468" y2="14.789"/>
		<polygon fill="none" stroke="#000000" stroke-linecap="round" stroke-linejoin="round" stroke-miterlimit="10" points="
			0.918,17.318 4.528,23.5 6.932,16.738 		"/>
		<polygon fill="none" stroke="#000000" stroke-linecap="round" stroke-linejoin="round" stroke-miterlimit="10" points="
			9.149,16.44 12.759,22.623 15.163,15.861 		"/>
		<polygon fill="none" stroke="#000000" stroke-linecap="round" stroke-linejoin="round" stroke-miterlimit="10" points="
			16.924,15.497 20.533,21.68 22.937,14.918 		"/>
	</g>
</g>
</svg>
