<?xml version="1.0" encoding="utf-8"?>
<!-- Generator: Adobe Illustrator 19.2.0, SVG Export Plug-In . SVG Version: 6.00 Build 0)  -->
<svg version="1.1" id="Layer_1" xmlns="http://www.w3.org/2000/svg" xmlns:xlink="http://www.w3.org/1999/xlink" x="0px" y="0px"
	 viewBox="0 0 24 24" style="enable-background:new 0 0 24 24;" xml:space="preserve">
<style type="text/css">
	.st0{display:none;}
	.st1{display:inline;}
	.st2{fill:none;stroke:#000000;stroke-linecap:round;stroke-linejoin:round;stroke-miterlimit:10;}
</style>
<g id="Filled_Icons" class="st0">
	<path class="st1" d="M19.7,6.5L5.1,0.2C5,0.1,4.8,0,4.6,0c0,0,0,0,0,0c0,0,0,0-0.1,0c0,0,0,0,0,0c0,0,0,0,0,0C3.9,0,3.5,0.5,3.5,1
		v22c0,0.6,0.4,1,1,1c0.6,0,1-0.4,1-1v-9.4l14.2-6.2C19.9,7.4,20,7.2,20,7C20,6.8,19.9,6.6,19.7,6.5z"/>
</g>
<g id="Outline_Icons">
	<g>
		<line class="st2" x1="4.5" y1="0.5" x2="4.5" y2="23.5"/>
		<polygon class="st2" points="4.5,13.5 4.5,0.5 19.5,7 		"/>
	</g>
</g>
</svg>
