<?xml version="1.0" encoding="utf-8"?>
<!-- Generator: Adobe Illustrator 19.2.0, SVG Export Plug-In . SVG Version: 6.00 Build 0)  -->
<svg version="1.1" id="Layer_1" xmlns="http://www.w3.org/2000/svg" xmlns:xlink="http://www.w3.org/1999/xlink" x="0px" y="0px"
	 viewBox="0 0 24 24" style="enable-background:new 0 0 24 24;" xml:space="preserve">
<style type="text/css">
	.st0{display:none;}
	.st1{display:inline;}
	.st2{fill:none;stroke:#000000;stroke-linecap:round;stroke-linejoin:round;stroke-miterlimit:10;}
</style>
<g id="Filled_Icons" class="st0">
	<g class="st1">
		<path d="M1,0C0.4,0,0,0.4,0,1v22c0,0.6,0.4,1,1,1c0.6,0,1-0.4,1-1V1C2,0.4,1.6,0,1,0z"/>
		<path d="M23.8,2.8c-0.1-0.1-0.3-0.1-0.5,0c-1.3,0.7-2.6,1-3.8,1h0c-1.8,0-3.3-0.7-4.9-1.5c-1.7-0.9-3.5-1.7-5.8-1.7
			C7,0.5,5.2,1,3.3,2.1C3.1,2.1,3,2.3,3,2.5v15c0,0.2,0.1,0.3,0.2,0.4c0.2,0.1,0.3,0.1,0.5,0c1.7-0.9,3.3-1.4,4.9-1.4
			c2.1,0,3.8,0.8,5.5,1.6c1.7,0.8,3.5,1.6,5.5,1.6c1.3,0,2.7-0.3,4-1c0.2-0.1,0.3-0.3,0.3-0.4v-15C24,3,23.9,2.9,23.8,2.8z M18,11.5
			c0,0.3-0.2,0.5-0.5,0.5H17v1.5c0,0.3-0.2,0.5-0.5,0.5H15v-2c0-0.3-0.2-0.5-0.5-0.5c-0.3,0-0.5,0.2-0.5,0.5v2h-1v-2
			c0-0.3-0.2-0.5-0.5-0.5c-0.3,0-0.5,0.2-0.5,0.5v2h-1.5c-0.3,0-0.5-0.2-0.5-0.5V12H9.5C9.2,12,9,11.8,9,11.5v-3
			C9,7.1,10.1,6,11.5,6h4C16.9,6,18,7.1,18,8.5V11.5z"/>
		<circle cx="12" cy="9" r="1"/>
		<circle cx="15" cy="9" r="1"/>
	</g>
</g>
<g id="Outline_Icons">
	<g>
		<line class="st2" x1="0.5" y1="0.5" x2="0.5" y2="23.5"/>
		<path class="st2" d="M22.5,3.2c-8.3,4.3-10.4-5.9-20-0.7v15c9.2-5,12.1,4.7,20,0.7V3.2z"/>
		<path class="st2" d="M15.5,13.5h-6v-2h-1v-3c0-1.1,0.9-2,2-2h4c1.1,0,2,0.9,2,2v3h-1V13.5z"/>
		<line class="st2" x1="11.5" y1="13.5" x2="11.5" y2="11"/>
		<line class="st2" x1="13.5" y1="13.5" x2="13.5" y2="11"/>
		<circle class="st2" cx="11" cy="9" r="0.5"/>
		<circle class="st2" cx="14" cy="9" r="0.5"/>
	</g>
</g>
</svg>
