<?xml version="1.0" encoding="utf-8"?>
<!-- Generator: Adobe Illustrator 19.2.0, SVG Export Plug-In . SVG Version: 6.00 Build 0)  -->
<svg version="1.1" id="Layer_1" xmlns="http://www.w3.org/2000/svg" xmlns:xlink="http://www.w3.org/1999/xlink" x="0px" y="0px"
	 viewBox="0 0 24 24" style="enable-background:new 0 0 24 24;" xml:space="preserve">
<style type="text/css">
	.st0{display:none;}
	.st1{display:inline;}
	.st2{fill:none;}
	.st3{fill:none;stroke:#000000;stroke-linecap:round;stroke-linejoin:round;stroke-miterlimit:10;}
</style>
<g id="Filled_Icons" class="st0">
	<g class="st1">
		<path d="M15.3,0.1c-0.2-0.2-0.5-0.2-0.7,0l-6,6L6.9,4.4c-0.2-0.2-0.5-0.2-0.7,0l-5,5C1.1,9.4,1,9.6,1,9.7C1,9.8,1.1,9.9,1.2,10
			l8.5,8.5c0.1,0.1,0.2,0.1,0.4,0.1c0.1,0,0.3-0.1,0.4-0.1l2.1-2.1l1.8,1.8l0,0l0,0c0.2,0.2,0.5,0.2,0.7,0l8.8-8.8
			C23.9,9.2,24,9.1,24,9c0-0.1-0.1-0.3-0.1-0.4L15.3,0.1z M12.5,15.7L12.5,15.7L12.5,15.7z M14.7,14.2c-0.4,1-0.6,1.8-0.7,2.3
			l-0.8-0.8L14.7,14.2z"/>
		<path d="M11.3,23.7c0.2,0.2,0.5,0.3,0.7,0.3c0.3,0,0.5-0.1,0.7-0.3c0.4-0.4,0.4-1,0-1.4l-11-11c-0.4-0.4-1-0.4-1.4,0
			c-0.4,0.4-0.4,1,0,1.4L11.3,23.7z"/>
		<line class="st2" x1="12.5" y1="15.7" x2="12.5" y2="15.7"/>
	</g>
</g>
<g id="Outline_Icons">
	<g>
		<g>
			<path class="st3" d="M1.5,9.7l5-4.9l2.1,2.1L15,0.5L23.5,9l-8.8,8.8C13,16.2,15,13.2,15,13.2l-4.9,5L1.5,9.7z"/>
			<line class="st3" x1="8.6" y1="6.9" x2="15" y2="13.2"/>
			<line class="st3" x1="0.5" y1="11.5" x2="12.5" y2="23.5"/>
		</g>
		<line class="st3" x1="14.6" y1="17.8" x2="12.5" y2="15.7"/>
	</g>
</g>
</svg>
