<?xml version="1.0" encoding="utf-8"?>
<!-- Generator: Adobe Illustrator 19.2.0, SVG Export Plug-In . SVG Version: 6.00 Build 0)  -->
<svg version="1.1" id="Layer_1" xmlns="http://www.w3.org/2000/svg" xmlns:xlink="http://www.w3.org/1999/xlink" x="0px" y="0px"
	 viewBox="0 0 24 24" style="enable-background:new 0 0 24 24;" xml:space="preserve">
<style type="text/css">
	.st0{display:none;}
	.st1{display:inline;}
	.st2{fill:none;stroke:#000000;stroke-linecap:round;stroke-linejoin:round;stroke-miterlimit:10;}
</style>
<g id="Filled_Icons" class="st0">
	<g class="st1">
		<g>
			<path d="M1,24c-0.6,0-1-0.4-1-1V1c0-0.6,0.4-1,1-1c0.6,0,1,0.4,1,1v22C2,23.6,1.6,24,1,24z"/>
		</g>
		<path d="M23.8,2.8c-0.1-0.1-0.3-0.1-0.5,0c-1.3,0.7-2.6,1-3.8,1h0c-1.8,0-3.3-0.7-4.9-1.5c-1.7-0.9-3.5-1.7-5.8-1.7
			C7,0.5,5.2,1,3.3,2.1C3.1,2.1,3,2.3,3,2.5v15c0,0.2,0.1,0.3,0.2,0.4c0.2,0.1,0.3,0.1,0.5,0c1.7-0.9,3.3-1.4,4.9-1.4
			c2.1,0,3.8,0.8,5.5,1.6c1.7,0.8,3.5,1.6,5.5,1.6c1.3,0,2.7-0.3,4-1c0.2-0.1,0.3-0.3,0.3-0.4v-15C24,3,23.9,2.9,23.8,2.8z
			 M18.3,8.9l-2.8,2l1.1,3.3c0.1,0.2,0,0.4-0.2,0.6c-0.2,0.1-0.4,0.1-0.6,0l-2.8-2l-2.8,2c-0.1,0.1-0.2,0.1-0.3,0.1s-0.2,0-0.3-0.1
			c-0.2-0.1-0.2-0.4-0.2-0.6l1.1-3.3l-2.8-2C7.5,8.8,7.5,8.6,7.5,8.3C7.6,8.1,7.8,8,8,8h3.5l1.1-3.3c0.1-0.4,0.8-0.4,1,0L14.5,8H18
			c0.2,0,0.4,0.1,0.5,0.3C18.5,8.6,18.5,8.8,18.3,8.9z"/>
	</g>
</g>
<g id="Outline_Icons">
	<g>
		<line class="st2" x1="0.5" y1="0.5" x2="0.5" y2="23.5"/>
		<path class="st2" d="M22.5,3.2c-8.3,4.3-10.4-5.9-20-0.7v15c9.2-5,12.1,4.7,20,0.7V3.2z"/>
		<polygon class="st2" points="13,4.9 14.2,8.5 18,8.5 14.9,10.8 16.1,14.4 13,12.1 9.9,14.4 11.1,10.8 8,8.5 11.8,8.5 		"/>
	</g>
</g>
</svg>
