<?xml version="1.0" encoding="utf-8"?>
<!-- Generator: Adobe Illustrator 19.2.0, SVG Export Plug-In . SVG Version: 6.00 Build 0)  -->
<svg version="1.1" id="Outline_Icons" xmlns="http://www.w3.org/2000/svg" xmlns:xlink="http://www.w3.org/1999/xlink" x="0px"
	 y="0px" viewBox="0 0 24 24" style="enable-background:new 0 0 24 24;" xml:space="preserve">
<style type="text/css">
	.st0{fill:none;stroke:#000000;stroke-linecap:round;stroke-linejoin:round;stroke-miterlimit:10;}
</style>
<g>
	<line class="st0" x1="10.5" y1="17" x2="10.5" y2="23.5"/>
	<line class="st0" x1="4.5" y1="23.5" x2="10.5" y2="17.5"/>
	<line class="st0" x1="16.5" y1="23.5" x2="10.5" y2="17.5"/>
	<path class="st0" d="M11.5,13.5v3c0,0.3-0.2,0.5-0.5,0.5h-1c-0.3,0-0.5-0.2-0.5-0.5V13"/>
	<path class="st0" d="M3.5,5.5v4.4l8.5,1.5c0,0,1.1,0.9,2,1.5c1.5,1,5.5,0.5,5.5,0.5s1.5-1,1.5-5.9s-1.5-5.9-1.5-5.9s-4-0.5-5.5,0.5
		c-0.9,0.6-2,1.5-2,1.5L3.5,5.5z"/>
</g>
</svg>
