<?xml version="1.0" encoding="utf-8"?>
<!-- Generator: Adobe Illustrator 19.2.0, SVG Export Plug-In . SVG Version: 6.00 Build 0)  -->
<svg version="1.1" id="Layer_1" xmlns="http://www.w3.org/2000/svg" xmlns:xlink="http://www.w3.org/1999/xlink" x="0px" y="0px"
	 viewBox="0 0 24 24" style="enable-background:new 0 0 24 24;" xml:space="preserve">
<style type="text/css">
	.st0{display:none;}
	.st1{display:inline;}
	.st2{fill:none;stroke:#000000;stroke-linecap:round;stroke-linejoin:round;stroke-miterlimit:10;}
</style>
<g id="Filled_Icon" class="st0">
	<g class="st1">
		<g>
			<path d="M10.5,7C10.2,7,10,6.8,10,6.5v-4C10,2.2,10.2,2,10.5,2C10.8,2,11,2.2,11,2.5v4C11,6.8,10.8,7,10.5,7z"/>
		</g>
		<g>
			<path d="M13.3,7.3c0,0-0.1,0-0.1,0C13,7.2,12.8,7,12.8,6.7l0.8-3.9c0.1-0.3,0.3-0.4,0.6-0.4c0.3,0.1,0.4,0.3,0.4,0.6l-0.8,3.9
				C13.8,7.1,13.6,7.3,13.3,7.3z"/>
		</g>
		<g>
			<path d="M16,8.2c-0.1,0-0.1,0-0.2,0c-0.3-0.1-0.4-0.4-0.3-0.7l1.6-3.6c0.1-0.2,0.4-0.4,0.7-0.2c0.3,0.1,0.4,0.4,0.3,0.7l-1.6,3.6
				C16.4,8.1,16.2,8.2,16,8.2z"/>
		</g>
		<g>
			<path d="M7.7,7.3c-0.2,0-0.4-0.2-0.5-0.4L6.3,3C6.3,2.7,6.5,2.5,6.7,2.4C7,2.3,7.3,2.5,7.3,2.8l0.8,3.9C8.2,7,8,7.2,7.8,7.3
				C7.7,7.3,7.7,7.3,7.7,7.3z"/>
		</g>
		<g>
			<path d="M5,8.2c-0.2,0-0.4-0.1-0.5-0.3L2.9,4.2C2.8,4,2.9,3.7,3.1,3.6c0.3-0.1,0.5,0,0.7,0.2l1.6,3.6c0.1,0.3,0,0.5-0.3,0.7
				C5.1,8.2,5,8.2,5,8.2z"/>
		</g>
		<g>
			<path d="M10.5,22c-0.3,0-0.5-0.2-0.5-0.5v-4c0-0.3,0.2-0.5,0.5-0.5c0.3,0,0.5,0.2,0.5,0.5v4C11,21.8,10.8,22,10.5,22z"/>
		</g>
		<g>
			<path d="M14.2,21.6c-0.2,0-0.4-0.2-0.5-0.4l-0.8-3.9c-0.1-0.3,0.1-0.5,0.4-0.6c0.3-0.1,0.5,0.1,0.6,0.4l0.8,3.9
				c0.1,0.3-0.1,0.5-0.4,0.6C14.2,21.6,14.2,21.6,14.2,21.6z"/>
		</g>
		<g>
			<path d="M17.7,20.5c-0.2,0-0.4-0.1-0.5-0.3l-1.6-3.6c-0.1-0.3,0-0.5,0.3-0.7c0.3-0.1,0.5,0,0.7,0.2l1.6,3.6
				c0.1,0.3,0,0.5-0.3,0.7C17.8,20.4,17.7,20.5,17.7,20.5z"/>
		</g>
		<g>
			<path d="M6.8,21.6c0,0-0.1,0-0.1,0c-0.3-0.1-0.4-0.3-0.4-0.6l0.8-3.9c0.1-0.3,0.3-0.4,0.6-0.4C8,16.8,8.2,17,8.2,17.3l-0.8,3.9
				C7.3,21.5,7.1,21.6,6.8,21.6z"/>
		</g>
		<g>
			<path d="M3.3,20.5c-0.1,0-0.1,0-0.2,0c-0.3-0.1-0.4-0.4-0.3-0.7l1.6-3.6c0.1-0.3,0.4-0.4,0.7-0.2c0.3,0.1,0.4,0.4,0.3,0.7
				l-1.6,3.6C3.7,20.4,3.5,20.5,3.3,20.5z"/>
		</g>
		<g>
			<rect x="4" y="9" width="13" height="6"/>
			<path d="M0,12c0,1.7,1.3,3,3,3V9C1.3,9,0,10.3,0,12z"/>
			<path d="M18,9v6c1.7,0,3-1.3,3-3C21,10.3,19.7,9,18,9z"/>
		</g>
	</g>
</g>
<g id="Outline_Icons">
	<g>
		<path class="st2" d="M20.5,12c0,1.4-1.1,2.5-2.5,2.5H3c-1.4,0-2.5-1.1-2.5-2.5c0-1.4,1.1-2.5,2.5-2.5h15
			C19.4,9.5,20.5,10.6,20.5,12z"/>
		<line class="st2" x1="10.5" y1="6.5" x2="10.5" y2="2.5"/>
		<line class="st2" x1="13.3" y1="6.8" x2="14.2" y2="2.9"/>
		<line class="st2" x1="16" y1="7.7" x2="17.7" y2="4"/>
		<line class="st2" x1="7.7" y1="6.8" x2="6.8" y2="2.9"/>
		<line class="st2" x1="5" y1="7.7" x2="3.3" y2="4"/>
		<line class="st2" x1="10.5" y1="17.5" x2="10.5" y2="21.5"/>
		<line class="st2" x1="13.3" y1="17.2" x2="14.2" y2="21.1"/>
		<line class="st2" x1="16" y1="16.3" x2="17.7" y2="20"/>
		<line class="st2" x1="7.7" y1="17.2" x2="6.8" y2="21.1"/>
		<line class="st2" x1="5" y1="16.3" x2="3.3" y2="20"/>
		<line class="st2" x1="3.5" y1="9.5" x2="3.5" y2="14.5"/>
		<line class="st2" x1="17.5" y1="9.5" x2="17.5" y2="14.5"/>
	</g>
</g>
</svg>
