<?xml version="1.0" encoding="utf-8"?>
<!-- Generator: Adobe Illustrator 19.2.0, SVG Export Plug-In . SVG Version: 6.00 Build 0)  -->
<svg version="1.1" id="Layer_1" xmlns="http://www.w3.org/2000/svg" xmlns:xlink="http://www.w3.org/1999/xlink" x="0px" y="0px"
	 viewBox="0 0 24 24" enable-background="new 0 0 24 24" xml:space="preserve">
<g id="Filled_Icons" display="none">
	<g display="inline">
		<path d="M14,8.006H2c-1.104,0-2,0.896-2,2v3c0,1.102,0.896,2,2,2h12c0.275,0,0.5-0.225,0.5-0.5v-6
			C14.5,8.229,14.275,8.006,14,8.006z"/>
		<path d="M9.5,7.506h3c0.275,0,0.5-0.225,0.5-0.5v-1c0-0.277-0.225-0.5-0.5-0.5h-3c-0.276,0-0.5,0.223-0.5,0.5v1
			C9,7.282,9.224,7.506,9.5,7.506z"/>
		<path d="M23.5,6.006h-2h-4c-1.379,0-2.5,1.121-2.5,2.5v6c0,1.378,1.121,2.5,2.5,2.5h4h2c0.275,0,0.5-0.225,0.5-0.5v-10
			C24,6.229,23.775,6.006,23.5,6.006z M23,16.006h-1v-9h1V16.006z"/>
	</g>
</g>
<g id="Outline_Icons">
	<g>
		<path fill="none" stroke="#000000" stroke-linecap="round" stroke-linejoin="round" stroke-miterlimit="10" d="M15.5,14.5H2
			c-0.829,0-1.5-0.671-1.5-1.5v-3c0-0.827,0.671-1.5,1.5-1.5h13.5V14.5z"/>
		<path fill="none" stroke="#000000" stroke-linecap="round" stroke-linejoin="round" stroke-miterlimit="10" d="M21.5,16.5h-4
			c-1.106,0-2-0.894-2-2v-6c0-1.104,0.894-2,2-2h4V16.5z"/>
		<polyline fill="none" stroke="#000000" stroke-linecap="round" stroke-linejoin="round" stroke-miterlimit="10" points="9.5,8.5 
			9.5,6.5 12.5,6.5 12.5,8.5 		"/>
		
			<rect x="21.5" y="6.5" fill="none" stroke="#000000" stroke-linecap="round" stroke-linejoin="round" stroke-miterlimit="10" width="2" height="10"/>
	</g>
</g>
</svg>
