<?xml version="1.0" encoding="utf-8"?>
<!-- Generator: Adobe Illustrator 19.2.0, SVG Export Plug-In . SVG Version: 6.00 Build 0)  -->
<svg version="1.1" id="Layer_1" xmlns="http://www.w3.org/2000/svg" xmlns:xlink="http://www.w3.org/1999/xlink" x="0px" y="0px"
	 viewBox="0 0 24 24" style="enable-background:new 0 0 24 24;" xml:space="preserve">
<style type="text/css">
	.st0{display:none;}
	.st1{display:inline;}
	.st2{fill:none;stroke:#000000;stroke-linejoin:round;stroke-miterlimit:10;}
</style>
<g id="Filled_Icons" class="st0">
	<g class="st1">
		<path d="M17.9,0.3C17.8,0.1,17.7,0,17.5,0h-8C9.3,0,9.1,0.2,9,0.4l-3,12c0,0.1,0,0.3,0.1,0.4C6.2,12.9,6.3,13,6.5,13h3.3L7,23.4
			C7,23.6,7.1,23.9,7.3,24c0.2,0.1,0.5,0,0.6-0.2l10-15c0.1-0.2,0.1-0.4,0-0.5C17.9,8.1,17.7,8,17.5,8h-4.1l4.5-7.2
			C18,0.6,18,0.4,17.9,0.3z"/>
	</g>
</g>
<g id="Outline_Icons">
	<g>
		<polygon class="st2" points="7.5,23.5 10.5,12.5 6.5,12.5 9.5,0.5 17.5,0.5 12.5,8.5 17.5,8.5 		"/>
	</g>
</g>
</svg>
