<?xml version="1.0" encoding="utf-8"?>
<!-- Generator: Adobe Illustrator 19.2.0, SVG Export Plug-In . SVG Version: 6.00 Build 0)  -->
<svg version="1.1" id="Layer_1" xmlns="http://www.w3.org/2000/svg" xmlns:xlink="http://www.w3.org/1999/xlink" x="0px" y="0px"
	 viewBox="0 0 24 24" style="enable-background:new 0 0 24 24;" xml:space="preserve">
<style type="text/css">
	.st0{display:none;}
	.st1{display:inline;}
	.st2{fill:none;stroke:#000000;stroke-linejoin:round;stroke-miterlimit:10;}
</style>
<g id="Filled_Icons" class="st0">
	<g class="st1">
		<path d="M14.2,0c-0.2-0.1-0.5,0-0.6,0.2l-10,14c-0.1,0.2-0.1,0.4,0,0.5C3.6,14.9,3.8,15,4,15h7.4l-1.9,8.4
			c-0.1,0.2,0.1,0.5,0.3,0.6c0.2,0.1,0.5,0,0.6-0.2l10-14c0.1-0.2,0.1-0.4,0-0.5C20.4,9.1,20.2,9,20,9h-7.4l1.9-8.4
			C14.5,0.4,14.4,0.1,14.2,0z"/>
	</g>
</g>
<g id="Outline_Icons">
	<g>
		<polygon class="st2" points="20,9.5 10,23.5 12,14.5 4,14.5 14,0.5 12,9.5 		"/>
	</g>
</g>
</svg>
