<?xml version="1.0" encoding="utf-8"?>
<!-- Generator: Adobe Illustrator 19.2.0, SVG Export Plug-In . SVG Version: 6.00 Build 0)  -->
<svg version="1.1" id="Layer_1" xmlns="http://www.w3.org/2000/svg" xmlns:xlink="http://www.w3.org/1999/xlink" x="0px" y="0px"
	 viewBox="0 0 24 24" style="enable-background:new 0 0 24 24;" xml:space="preserve">
<style type="text/css">
	.st0{display:none;}
	.st1{display:inline;}
	.st2{fill:none;stroke:#000000;stroke-linecap:round;stroke-linejoin:round;stroke-miterlimit:10;}
</style>
<g id="Filled_Icon" class="st0">
	<g class="st1">
		<path d="M19,12c0-2.2-1.8-4-4-4H5.5C5.2,8,5,8.2,5,8.5v7C5,15.8,5.2,16,5.5,16H15C17.2,16,19,14.2,19,12z M13,13.5v-3
			c0-0.3,0.2-0.5,0.5-0.5H15c1.1,0,2,0.9,2,2c0,1.1-0.9,2-2,2h-1.5C13.2,14,13,13.8,13,13.5z"/>
		<path d="M16.3,22l-2.5,0.8L13,20.4c-0.1-0.3-0.4-0.4-0.6-0.3c-0.3,0.1-0.4,0.4-0.3,0.6l1,3c0.1,0.3,0.4,0.4,0.6,0.3l3-1
			c0.3-0.1,0.4-0.4,0.3-0.6C16.9,22.1,16.6,22,16.3,22z"/>
		<path d="M15.4,6.6C15.5,6.9,15.8,7,16,7c0.3-0.1,0.4-0.3,0.4-0.6c-0.6-2.8-1.7-5-3-6.2c-0.2-0.2-0.5-0.2-0.7,0
			c-0.2,0.2-0.2,0.5,0,0.7C13.9,2,14.8,4,15.4,6.6z"/>
		<path d="M17.3,20l-1.9,0.6c0.4-0.9,0.7-1.9,1-3c0.1-0.3-0.1-0.5-0.4-0.6c-0.3-0.1-0.5,0.1-0.6,0.4c-0.2,1-0.5,1.9-0.8,2.7L14,18.4
			c-0.1-0.3-0.4-0.4-0.6-0.3c-0.3,0.1-0.4,0.4-0.3,0.6l1,3c0.1,0.3,0.4,0.4,0.6,0.3l3-1c0.3-0.1,0.4-0.4,0.3-0.6
			C17.9,20.1,17.6,20,17.3,20z"/>
	</g>
</g>
<g id="Outline_Icons">
	<g>
		<path class="st2" d="M5.5,15.5H15c1.9,0,3.5-1.6,3.5-3.5c0-1.9-1.6-3.5-3.5-3.5H5.5"/>
		<path class="st2" d="M15,10.5c0.8,0,1.5,0.7,1.5,1.5c0,0.8-0.7,1.5-1.5,1.5h-1.5v-3H15z"/>
		<polyline class="st2" points="12,20.5 13,23.5 16,22.5 		"/>
		<path class="st2" d="M15.9,6.5c-0.6-2.7-1.6-4.8-2.9-6"/>
		<polyline class="st2" points="13.5,18.5 14.5,21.5 17.5,20.5 		"/>
		<path class="st2" d="M14.5,21.5c0.6-1.1,1-2.5,1.4-4"/>
	</g>
</g>
</svg>
