<?xml version="1.0" encoding="utf-8"?>
<!-- Generator: Adobe Illustrator 19.2.0, SVG Export Plug-In . SVG Version: 6.00 Build 0)  -->
<svg version="1.1" id="Layer_1" xmlns="http://www.w3.org/2000/svg" xmlns:xlink="http://www.w3.org/1999/xlink" x="0px" y="0px"
	 viewBox="0 0 24 24" style="enable-background:new 0 0 24 24;" xml:space="preserve">
<style type="text/css">
	.st0{display:none;}
	.st1{display:inline;}
	.st2{fill:none;stroke:#000000;stroke-linecap:round;stroke-linejoin:round;stroke-miterlimit:10;}
</style>
<g id="Filled_Icon" class="st0">
	<g class="st1">
		<path d="M12.3,4c0.1,0,0.1,0,0.2,0c0.2,0,0.4-0.1,0.5-0.3l0.8-2.5L16.3,2C16.6,2,16.9,1.9,17,1.6c0.1-0.3-0.1-0.5-0.3-0.6l-3-1
			c-0.3-0.1-0.5,0.1-0.6,0.3l-1,3C11.9,3.6,12.1,3.9,12.3,4z"/>
		<path d="M16,17c-0.3-0.1-0.5,0.1-0.6,0.4c-0.6,2.6-1.6,4.6-2.7,5.7c-0.2,0.2-0.2,0.5,0,0.7c0.1,0.1,0.2,0.2,0.4,0.2
			c0.1,0,0.2,0,0.3-0.1c1.3-1.2,2.4-3.5,3-6.2C16.5,17.4,16.3,17.1,16,17z"/>
		<path d="M14,2.3l-1,3c-0.1,0.3,0.1,0.5,0.3,0.6C13.6,6,13.9,5.9,14,5.6l0.6-1.8c0.3,0.8,0.6,1.7,0.9,2.7C15.5,6.8,15.7,7,16,7
			c0.3-0.1,0.4-0.3,0.4-0.6c-0.3-1.1-0.6-2.1-1-3L17.3,4C17.6,4,17.9,3.9,18,3.6c0.1-0.3-0.1-0.5-0.3-0.6l-3-1
			C14.4,1.9,14.1,2.1,14,2.3z"/>
		<path d="M15,8H5.5C5.2,8,5,8.2,5,8.5v7C5,15.8,5.2,16,5.5,16H15c2.2,0,4-1.8,4-4C19,9.8,17.2,8,15,8z M15,14h-1.5
			c-0.3,0-0.5-0.2-0.5-0.5v-3c0-0.3,0.2-0.5,0.5-0.5H15c1.1,0,2,0.9,2,2C17,13.1,16.1,14,15,14z"/>
	</g>
</g>
<g id="Outline_Icons">
	<g>
		<path class="st2" d="M5.5,15.5H15c1.9,0,3.5-1.6,3.5-3.5c0-1.9-1.6-3.5-3.5-3.5H5.5"/>
		<path class="st2" d="M15,10.5c0.8,0,1.5,0.7,1.5,1.5c0,0.8-0.7,1.5-1.5,1.5h-1.5v-3H15z"/>
		<polyline class="st2" points="12,3.5 13,0.5 16,1.5 		"/>
		<path class="st2" d="M15.9,17.5c-0.6,2.7-1.6,4.8-2.9,6"/>
		<polyline class="st2" points="13.5,5.5 14.5,2.5 17.5,3.5 		"/>
		<path class="st2" d="M14.5,2.5c0.6,1.1,1,2.5,1.4,4"/>
	</g>
</g>
</svg>
