<?xml version="1.0" encoding="utf-8"?>
<!-- Generator: Adobe Illustrator 19.2.0, SVG Export Plug-In . SVG Version: 6.00 Build 0)  -->
<svg version="1.1" id="Layer_1" xmlns="http://www.w3.org/2000/svg" xmlns:xlink="http://www.w3.org/1999/xlink" x="0px" y="0px"
	 viewBox="0 0 24 24" style="enable-background:new 0 0 24 24;" xml:space="preserve">
<style type="text/css">
	.st0{display:none;}
	.st1{display:inline;}
	.st2{fill:none;stroke:#000000;stroke-linecap:round;stroke-linejoin:round;stroke-miterlimit:10;}
</style>
<g id="Filled_Icon" class="st0">
	<g class="st1">
		<path d="M12,5C9.8,5,8,6.8,8,9v9.5C8,18.8,8.2,19,8.5,19h7c0.3,0,0.5-0.2,0.5-0.5V9C16,6.8,14.2,5,12,5z M14,10.5
			c0,0.3-0.2,0.5-0.5,0.5h-3c-0.3,0-0.5-0.2-0.5-0.5V9c0-1.1,0.9-2,2-2c1.1,0,2,0.9,2,2V10.5z"/>
		<path d="M3.6,11l-2.5-0.8L2,7.7C2,7.4,1.9,7.1,1.6,7C1.4,6.9,1.1,7.1,1,7.3l-1,3c-0.1,0.3,0.1,0.5,0.3,0.6l3,1
			c0.3,0.1,0.5-0.1,0.6-0.3C4,11.4,3.9,11.1,3.6,11z"/>
		<path d="M23.9,10.6c-1.2-1.3-3.5-2.4-6.2-3C17.4,7.5,17.1,7.7,17,8c-0.1,0.3,0.1,0.5,0.4,0.6c2.6,0.6,4.6,1.6,5.7,2.7
			c0.1,0.1,0.2,0.2,0.4,0.2c0.1,0,0.2,0,0.3-0.1C24,11.2,24.1,10.8,23.9,10.6z"/>
		<path d="M6.4,7.6c-1.1,0.3-2.1,0.6-3,1L4,6.7C4,6.4,3.9,6.1,3.6,6C3.4,5.9,3.1,6.1,3,6.3l-1,3C1.9,9.6,2.1,9.9,2.3,10l3,1
			c0.1,0,0.1,0,0.2,0c0.2,0,0.4-0.1,0.5-0.3C6,10.4,5.9,10.1,5.6,10L3.9,9.4c0.8-0.3,1.7-0.6,2.7-0.9C6.9,8.5,7,8.2,7,8
			C6.9,7.7,6.6,7.5,6.4,7.6z"/>
	</g>
</g>
<g id="Outline_Icons">
	<g>
		<path class="st2" d="M15.5,18.5V9c0-1.9-1.6-3.5-3.5-3.5c-1.9,0-3.5,1.6-3.5,3.5v9.5"/>
		<path class="st2" d="M10.5,9c0-0.8,0.7-1.5,1.5-1.5c0.8,0,1.5,0.7,1.5,1.5v1.5h-3V9z"/>
		<polyline class="st2" points="3.5,12 0.5,11 1.5,8 		"/>
		<path class="st2" d="M17.5,8.1c2.7,0.6,4.8,1.6,6,2.9"/>
		<polyline class="st2" points="5.5,10.5 2.5,9.5 3.5,6.5 		"/>
		<path class="st2" d="M2.5,9.5c1.1-0.6,2.4-1.1,4-1.4"/>
	</g>
</g>
</svg>
