<?xml version="1.0" encoding="utf-8"?>
<!-- Generator: Adobe Illustrator 19.2.0, SVG Export Plug-In . SVG Version: 6.00 Build 0)  -->
<svg version="1.1" id="Layer_1" xmlns="http://www.w3.org/2000/svg" xmlns:xlink="http://www.w3.org/1999/xlink" x="0px" y="0px"
	 viewBox="0 0 24 24" style="enable-background:new 0 0 24 24;" xml:space="preserve">
<style type="text/css">
	.st0{display:none;}
	.st1{display:inline;}
	.st2{fill:none;stroke:#000000;stroke-linecap:round;stroke-linejoin:round;stroke-miterlimit:10;}
</style>
<g id="Filled_Icon" class="st0">
	<g class="st1">
		<path d="M6.5,8H4l1.4-1.7c0.2-0.2,0.1-0.5-0.1-0.7C5.1,5.4,4.8,5.5,4.6,5.7l-2,2.5c-0.1,0.2-0.1,0.5,0,0.6l2,2.5
			c0.1,0.1,0.2,0.2,0.4,0.2c0.1,0,0.2,0,0.3-0.1c0.2-0.2,0.2-0.5,0.1-0.7L4,9h2.5C6.8,9,7,8.8,7,8.5C7,8.2,6.8,8,6.5,8z"/>
		<path d="M21.4,8.2l-2-2.5c-0.2-0.2-0.5-0.3-0.7-0.1c-0.2,0.2-0.2,0.5-0.1,0.7L20,8h-2.5C17.2,8,17,8.2,17,8.5
			C17,8.8,17.2,9,17.5,9H20l-1.3,1.7c-0.2,0.2-0.1,0.5,0.1,0.7c0.1,0.1,0.2,0.1,0.3,0.1c0.1,0,0.3-0.1,0.4-0.2l2-2.5
			C21.5,8.6,21.5,8.4,21.4,8.2z"/>
		<path d="M23.9,8.2l-2-2.5c-0.2-0.2-0.5-0.3-0.7-0.1c-0.2,0.2-0.2,0.5-0.1,0.7l1.8,2.2l-1.8,2.2c-0.2,0.2-0.1,0.5,0.1,0.7
			c0.1,0.1,0.2,0.1,0.3,0.1c0.1,0,0.3-0.1,0.4-0.2l2-2.5C24,8.6,24,8.4,23.9,8.2z"/>
		<path d="M1.1,8.5l1.8-2.2C3.1,6.1,3,5.8,2.8,5.6C2.6,5.4,2.3,5.5,2.1,5.7l-2,2.5C0,8.4,0,8.6,0.1,8.8l2,2.5
			c0.1,0.1,0.2,0.2,0.4,0.2c0.1,0,0.2,0,0.3-0.1c0.2-0.2,0.2-0.5,0.1-0.7L1.1,8.5z"/>
		<path d="M12,5C9.8,5,8,6.8,8,9v9.5C8,18.8,8.2,19,8.5,19h7c0.3,0,0.5-0.2,0.5-0.5V9C16,6.8,14.2,5,12,5z M14,10.5
			c0,0.3-0.2,0.5-0.5,0.5h-3c-0.3,0-0.5-0.2-0.5-0.5V9c0-1.1,0.9-2,2-2c1.1,0,2,0.9,2,2V10.5z"/>
	</g>
</g>
<g id="Outline_Icons">
	<g>
		<line class="st2" x1="3" y1="8.5" x2="6.5" y2="8.5"/>
		<polyline class="st2" points="5,11 3,8.5 5,6 		"/>
		<line class="st2" x1="21" y1="8.5" x2="17.5" y2="8.5"/>
		<polyline class="st2" points="19,11 21,8.5 19,6 		"/>
		<polyline class="st2" points="21.5,6 23.5,8.5 21.5,11 		"/>
		<polyline class="st2" points="2.5,6 0.5,8.5 2.5,11 		"/>
		<path class="st2" d="M8.5,18.5V9c0-1.9,1.6-3.5,3.5-3.5c1.9,0,3.5,1.6,3.5,3.5v9.5"/>
		<path class="st2" d="M13.5,9c0-0.8-0.7-1.5-1.5-1.5c-0.8,0-1.5,0.7-1.5,1.5v1.5h3V9z"/>
	</g>
</g>
</svg>
