<?xml version="1.0" encoding="utf-8"?>
<!-- Generator: Adobe Illustrator 19.2.0, SVG Export Plug-In . SVG Version: 6.00 Build 0)  -->
<svg version="1.1" id="Layer_1" xmlns="http://www.w3.org/2000/svg" xmlns:xlink="http://www.w3.org/1999/xlink" x="0px" y="0px"
	 viewBox="0 0 24 24" style="enable-background:new 0 0 24 24;" xml:space="preserve">
<style type="text/css">
	.st0{display:none;}
	.st1{display:inline;}
	.st2{fill:none;stroke:#000000;stroke-linecap:round;stroke-linejoin:round;stroke-miterlimit:10;}
</style>
<g id="Filled_Icon" class="st0">
	<g class="st1">
		<path d="M12,5C9.8,5,8,6.8,8,9v9.5C8,18.8,8.2,19,8.5,19h7c0.3,0,0.5-0.2,0.5-0.5V9C16,6.8,14.2,5,12,5z M14,10.5
			c0,0.3-0.2,0.5-0.5,0.5h-3c-0.3,0-0.5-0.2-0.5-0.5V9c0-1.1,0.9-2,2-2c1.1,0,2,0.9,2,2V10.5z"/>
		<path d="M24,10.3l-1-3c-0.1-0.3-0.4-0.4-0.6-0.3c-0.3,0.1-0.4,0.4-0.3,0.6l0.8,2.5L20.3,11c-0.3,0.1-0.4,0.4-0.3,0.6
			c0.1,0.3,0.4,0.4,0.6,0.3l3-1C23.9,10.9,24.1,10.6,24,10.3z"/>
		<path d="M6.4,7.6c-2.8,0.6-5,1.7-6.2,3c-0.2,0.2-0.2,0.5,0,0.7c0.1,0.1,0.2,0.1,0.3,0.1c0.1,0,0.3-0.1,0.4-0.2
			C2,10.1,4,9.2,6.6,8.6C6.8,8.5,7,8.2,7,8C6.9,7.7,6.6,7.5,6.4,7.6z"/>
		<path d="M21.7,9.9c0.2-0.1,0.3-0.4,0.2-0.6l-1-3c-0.1-0.3-0.4-0.4-0.6-0.3c-0.3,0.1-0.4,0.4-0.3,0.6l0.6,1.9c-0.9-0.4-1.9-0.7-3-1
			C17.3,7.5,17.1,7.7,17,8c-0.1,0.3,0.1,0.5,0.4,0.6c1,0.2,1.9,0.5,2.7,0.9L18.3,10c-0.3,0.1-0.4,0.4-0.3,0.6
			c0.1,0.2,0.3,0.3,0.5,0.3C18.7,11,21.7,10,21.7,9.9z"/>
	</g>
</g>
<g id="Outline_Icons">
	<g>
		<polyline class="st2" points="20.5,12 23.5,11 22.5,8 		"/>
		<path class="st2" d="M6.5,8.1c-2.7,0.6-4.8,1.6-6,2.9"/>
		<polyline class="st2" points="18.5,10.5 21.5,9.5 20.5,6.5 		"/>
		<path class="st2" d="M8.5,18.5V9c0-1.9,1.6-3.5,3.5-3.5c1.9,0,3.5,1.6,3.5,3.5v9.5"/>
		<path class="st2" d="M13.5,9c0-0.8-0.7-1.5-1.5-1.5c-0.8,0-1.5,0.7-1.5,1.5v1.5h3V9z"/>
		<path class="st2" d="M21.5,9.5c-1.1-0.6-2.4-1.1-4-1.4"/>
	</g>
</g>
</svg>
