<?xml version="1.0" encoding="utf-8"?>
<!-- Generator: Adobe Illustrator 19.2.0, SVG Export Plug-In . SVG Version: 6.00 Build 0)  -->
<svg version="1.1" id="Layer_1" xmlns="http://www.w3.org/2000/svg" xmlns:xlink="http://www.w3.org/1999/xlink" x="0px" y="0px"
	 viewBox="0 0 24 24" style="enable-background:new 0 0 24 24;" xml:space="preserve">
<style type="text/css">
	.st0{display:none;}
	.st1{display:inline;}
	.st2{fill:none;stroke:#000000;stroke-linecap:round;stroke-linejoin:round;stroke-miterlimit:10;}
</style>
<g id="Filled_Icon" class="st0">
	<g class="st1">
		<path d="M8.3,5.4L10,4v2.5C10,6.8,10.2,7,10.5,7C10.8,7,11,6.8,11,6.5V4l1.7,1.4c0.1,0.1,0.2,0.1,0.3,0.1c0.1,0,0.3-0.1,0.4-0.2
			c0.2-0.2,0.1-0.5-0.1-0.7l-2.5-2c-0.2-0.1-0.5-0.1-0.6,0l-2.5,2C7.5,4.8,7.4,5.1,7.6,5.3C7.8,5.5,8.1,5.6,8.3,5.4z"/>
		<path d="M12.7,18.6L11,20v-2.5c0-0.3-0.2-0.5-0.5-0.5c-0.3,0-0.5,0.2-0.5,0.5V20l-1.7-1.3c-0.2-0.2-0.5-0.1-0.7,0.1
			c-0.2,0.2-0.1,0.5,0.1,0.7l2.5,2c0.2,0.1,0.4,0.2,0.6,0l2.5-2c0.2-0.2,0.2-0.5,0.1-0.7C13.2,18.5,12.9,18.4,12.7,18.6z"/>
		<path d="M12.7,21.1l-2.2,1.8l-2.2-1.8c-0.2-0.2-0.5-0.1-0.7,0.1c-0.2,0.2-0.1,0.5,0.1,0.7l2.5,2c0.1,0.1,0.2,0.1,0.3,0.1
			c0.1,0,0.2,0,0.3-0.1l2.5-2c0.2-0.2,0.2-0.5,0.1-0.7C13.2,21,12.9,20.9,12.7,21.1z"/>
		<path d="M8.3,2.9l2.2-1.8l2.2,1.8C12.8,3,12.9,3,13,3c0.1,0,0.3-0.1,0.4-0.2c0.2-0.2,0.1-0.5-0.1-0.7l-2.5-2
			c-0.2-0.1-0.4-0.1-0.6,0l-2.5,2C7.5,2.3,7.4,2.6,7.6,2.8C7.8,3,8.1,3.1,8.3,2.9z"/>
		<path d="M14,12c0-2.2-1.8-4-4-4H0.5C0.2,8,0,8.2,0,8.5v7C0,15.8,0.2,16,0.5,16H10C12.2,16,14,14.2,14,12z M8,13.5v-3
			C8,10.2,8.2,10,8.5,10H10c1.1,0,2,0.9,2,2c0,1.1-0.9,2-2,2H8.5C8.2,14,8,13.8,8,13.5z"/>
	</g>
</g>
<g id="Outline_Icons">
	<g>
		<line class="st2" x1="10.5" y1="3" x2="10.5" y2="6.5"/>
		<polyline class="st2" points="8,5 10.5,3 13,5 		"/>
		<line class="st2" x1="10.5" y1="21" x2="10.5" y2="17.5"/>
		<polyline class="st2" points="8,19 10.5,21 13,19 		"/>
		<polyline class="st2" points="13,21.5 10.5,23.5 8,21.5 		"/>
		<polyline class="st2" points="13,2.5 10.5,0.5 8,2.5 		"/>
		<path class="st2" d="M0.5,8.5H10c1.9,0,3.5,1.6,3.5,3.5c0,1.9-1.6,3.5-3.5,3.5H0.5"/>
		<path class="st2" d="M10,13.5c0.8,0,1.5-0.7,1.5-1.5c0-0.8-0.7-1.5-1.5-1.5H8.5v3H10z"/>
	</g>
</g>
</svg>
