<?xml version="1.0" encoding="utf-8"?>
<!-- Generator: Adobe Illustrator 19.2.0, SVG Export Plug-In . SVG Version: 6.00 Build 0)  -->
<svg version="1.1" id="Layer_1" xmlns="http://www.w3.org/2000/svg" xmlns:xlink="http://www.w3.org/1999/xlink" x="0px" y="0px"
	 viewBox="0 0 24 24" style="enable-background:new 0 0 24 24;" xml:space="preserve">
<style type="text/css">
	.st0{display:none;}
	.st1{display:inline;}
	.st2{fill:none;stroke:#000000;stroke-linecap:round;stroke-linejoin:round;stroke-miterlimit:10;}
</style>
<g id="Filled_Icons" class="st0">
	<g class="st1">
		<path d="M10.3,3.5c-0.2-2-1.8-3.4-3.8-3.4c-2,0-3.6,1.5-3.8,3.4L1,23.5c0,0.1,0,0.3,0.1,0.4C1.2,23.9,1.4,24,1.5,24H3l0.1-1
			L4,11.5c0-0.3,0.3-0.5,0.5-0.5c0.3,0,0.5,0.3,0.5,0.5L4.1,23L4,24H9l-0.1-1L8,11.6c0-0.3,0.2-0.5,0.5-0.5C8.7,11,9,11.3,9,11.5
			L9.9,23l0.1,1h1.5c0,0,0,0,0,0c0.3,0,0.5-0.2,0.5-0.5c0,0,0-0.1,0-0.1L10.3,3.5z M8.5,6.1c0,1.1-0.9,2-2,2c-1.1,0-2-0.9-2-2v-2
			c0-1.1,0.9-2,2-2c1.1,0,2,0.9,2,2V6.1z"/>
		<path d="M22.9,0.2C22.8,0.1,22.6,0,22.5,0H21c0,0,0,0,0,0l-0.1,1L20,12.6c0,0.3-0.2,0.5-0.5,0.5c0,0,0,0,0,0
			c-0.3,0-0.5-0.3-0.5-0.5L19.9,1L20,0h-5l0.1,1L16,12.5c0,0.3-0.2,0.5-0.5,0.5c0,0,0,0,0,0c-0.3,0-0.5-0.2-0.5-0.5L14.1,1L14,0
			c0,0,0,0,0,0h-1.5c-0.1,0-0.3,0.1-0.4,0.2C12,0.3,12,0.4,12,0.5l1.7,20c0.2,1.9,1.8,3.5,3.8,3.5c1.9,0,3.6-1.5,3.8-3.5l1.7-20
			C23,0.4,23,0.3,22.9,0.2z M15.5,18.1c0-1.1,0.9-2,2-2c1.1,0,2,0.9,2,2v2c0,1.1-0.9,2-2,2c-1.1,0-2-0.9-2-2V18.1z"/>
	</g>
</g>
<g id="Outline_Icons">
	<g>
		<line class="st2" x1="3.5" y1="23.6" x2="4.5" y2="11.6"/>
		<line class="st2" x1="9.5" y1="23.6" x2="8.5" y2="11.6"/>
		<path class="st2" d="M11.5,23.5h-10l1.7-20c0.1-1.7,1.6-3,3.3-3c1.7,0,3.1,1.3,3.3,3L11.5,23.5z"/>
		<path class="st2" d="M8,4.1c0-0.8-0.7-1.5-1.5-1.5C5.7,2.6,5,3.2,5,4.1v2c0,0.8,0.7,1.5,1.5,1.5C7.3,7.6,8,6.9,8,6.1V4.1z"/>
		<line class="st2" x1="14.5" y1="0.6" x2="15.5" y2="12.6"/>
		<line class="st2" x1="20.5" y1="0.6" x2="19.5" y2="12.6"/>
		<path class="st2" d="M22.5,0.5h-10l1.7,20c0.1,1.7,1.6,3,3.3,3c1.7,0,3.1-1.3,3.3-3L22.5,0.5z"/>
		<path class="st2" d="M19,20.1c0,0.8-0.7,1.5-1.5,1.5c-0.8,0-1.5-0.7-1.5-1.5v-2c0-0.8,0.7-1.5,1.5-1.5c0.8,0,1.5,0.7,1.5,1.5V20.1
			z"/>
	</g>
</g>
</svg>
