<?xml version="1.0" encoding="utf-8"?>
<!-- Generator: Adobe Illustrator 19.2.0, SVG Export Plug-In . SVG Version: 6.00 Build 0)  -->
<svg version="1.1" id="Layer_1" xmlns="http://www.w3.org/2000/svg" xmlns:xlink="http://www.w3.org/1999/xlink" x="0px" y="0px"
	 viewBox="0 0 24 24" style="enable-background:new 0 0 24 24;" xml:space="preserve">
<style type="text/css">
	.st0{display:none;}
	.st1{display:inline;}
	.st2{fill:none;stroke:#000000;stroke-linecap:round;stroke-linejoin:round;stroke-miterlimit:10;}
</style>
<g id="Filled_Icons" class="st0">
	<g class="st1">
		<path d="M23,11.5H9c-0.6,0-1,0.4-1,1c0,0.6,0.4,1,1,1h14c0.6,0,1-0.4,1-1C24,11.9,23.6,11.5,23,11.5z"/>
		<path d="M15.9,16.1c-0.2-0.2-0.5-0.2-0.7,0l-7,7C8,23.3,8,23.5,8,23.7C8.1,23.9,8.3,24,8.5,24h14c0.2,0,0.4-0.1,0.5-0.3
			c0.1-0.2,0-0.4-0.1-0.5L15.9,16.1z"/>
		<path d="M15.1,8.9C15.2,9,15.4,9,15.5,9c0.1,0,0.3,0,0.4-0.1l7-7C23,1.7,23,1.5,23,1.3C22.9,1.1,22.7,1,22.5,1h-14
			C8.3,1,8.1,1.1,8,1.3C8,1.5,8,1.7,8.1,1.9L15.1,8.9z"/>
		<path d="M7,18c-2.8,0-5-2.2-5-5c0-1.6,0.8-3.1,2-4L3.7,9.4c-0.4,0.4-0.3,1.1,0.1,1.4C4,10.9,4.3,11,4.5,11c0.3,0,0.6-0.1,0.8-0.4
			l2.5-3C8.1,7.2,8,6.6,7.6,6.2c0,0,0,0-0.1-0.1l-3-2C4.1,3.9,3.5,4,3.2,4.4C2.9,4.9,3,5.5,3.4,5.8l1,0.7C1.8,7.5,0,10,0,13
			c0,3.9,3.1,7,7,7c0.6,0,1-0.4,1-1C8,18.4,7.6,18,7,18z"/>
	</g>
</g>
<g id="Outline_Icons">
	<g>
		<line class="st2" x1="8.5" y1="12.5" x2="23.5" y2="12.5"/>
		<polygon class="st2" points="8.5,23.5 22.5,23.5 15.5,16.5 		"/>
		<polygon class="st2" points="8.5,1.5 22.5,1.5 15.5,8.5 		"/>
		<path class="st2" d="M6.5,19c-3.3,0-6-2.7-6-6c0-3.3,2.7-6,6-6"/>
		<polyline class="st2" points="3.5,5 6.5,7 4,10 		"/>
	</g>
</g>
</svg>
