<?xml version="1.0" encoding="utf-8"?>
<!-- Generator: Adobe Illustrator 19.2.0, SVG Export Plug-In . SVG Version: 6.00 Build 0)  -->
<svg version="1.1" id="Layer_1" xmlns="http://www.w3.org/2000/svg" xmlns:xlink="http://www.w3.org/1999/xlink" x="0px" y="0px"
	 viewBox="0 0 24 24" style="enable-background:new 0 0 24 24;" xml:space="preserve">
<style type="text/css">
	.st0{display:none;}
	.st1{display:inline;}
	.st2{fill:none;stroke:#000000;stroke-linecap:round;stroke-linejoin:round;stroke-miterlimit:10;}
</style>
<g id="Filled_Icons" class="st0">
	<g class="st1">
		<path d="M17,12.5c0-0.6-0.4-1-1-1H1c-0.6,0-1,0.4-1,1c0,0.6,0.4,1,1,1h15C16.6,13.5,17,13.1,17,12.5z"/>
		<path d="M8.1,8.9C8.2,9,8.4,9,8.5,9c0.1,0,0.3,0,0.4-0.1l7-7C16,1.7,16,1.5,16,1.3C15.9,1.1,15.7,1,15.5,1h-14
			C1.3,1,1.1,1.1,1,1.3C1,1.5,1,1.7,1.1,1.9L8.1,8.9z"/>
		<path d="M8.9,16.1c-0.2-0.2-0.5-0.2-0.7,0l-7,7C1,23.3,1,23.5,1,23.7C1.1,23.9,1.3,24,1.5,24h14c0,0,0,0,0,0
			c0.3,0,0.5-0.2,0.5-0.5c0-0.2-0.1-0.3-0.2-0.4L8.9,16.1z"/>
		<path d="M24,12c0-3.9-3.1-7-7-7c-0.6,0-1,0.4-1,1c0,0.6,0.4,1,1,1c2.8,0,5,2.2,5,5c0,1.6-0.8,3.1-2,4l0.3-0.4
			c0.4-0.4,0.3-1.1-0.1-1.4c-0.4-0.4-1.1-0.3-1.4,0.1l-2.5,3c0,0,0,0.1-0.1,0.1c-0.3,0.5-0.2,1,0.2,1.3c0,0,0,0,0.1,0.1l3,2
			c0.2,0.1,0.4,0.2,0.6,0.2c0.3,0,0.6-0.2,0.8-0.4c0.3-0.5,0.2-1.1-0.3-1.4l-1-0.7C22.2,17.5,24,15,24,12z"/>
	</g>
</g>
<g id="Outline_Icons">
	<g>
		<line class="st2" x1="15.5" y1="12.5" x2="0.5" y2="12.5"/>
		<polygon class="st2" points="15.5,1.5 1.5,1.5 8.5,8.5 		"/>
		<polygon class="st2" points="15.5,23.5 1.5,23.5 8.5,16.5 		"/>
		<path class="st2" d="M17.5,6c3.3,0,6,2.7,6,6c0,3.3-2.7,6-6,6"/>
		<polyline class="st2" points="20.5,20 17.5,18 20,15 		"/>
	</g>
</g>
</svg>
