<?xml version="1.0" encoding="utf-8"?>
<!-- Generator: Adobe Illustrator 19.2.0, SVG Export Plug-In . SVG Version: 6.00 Build 0)  -->
<svg version="1.1" id="Layer_1" xmlns="http://www.w3.org/2000/svg" xmlns:xlink="http://www.w3.org/1999/xlink" x="0px" y="0px"
	 viewBox="0 0 24 24" style="enable-background:new 0 0 24 24;" xml:space="preserve">
<style type="text/css">
	.st0{display:none;}
	.st1{display:inline;}
	.st2{fill:none;stroke:#000000;stroke-linecap:round;stroke-linejoin:round;stroke-miterlimit:10;}
</style>
<g id="Filled_Icons" class="st0">
	<g class="st1">
		<circle cx="2.5" cy="20.2" r="1"/>
		<circle cx="2.5" cy="17.3" r="1"/>
		<circle cx="2.5" cy="14.5" r="1"/>
		<circle cx="22.5" cy="20.2" r="1"/>
		<circle cx="22.5" cy="17.3" r="1"/>
		<circle cx="22.5" cy="14.5" r="1"/>
		<circle cx="2.5" cy="23" r="1"/>
		<circle cx="5.8" cy="23" r="1"/>
		<circle cx="9.2" cy="23" r="1"/>
		<circle cx="12.5" cy="23" r="1"/>
		<circle cx="15.8" cy="23" r="1"/>
		<circle cx="19.2" cy="23" r="1"/>
		<circle cx="22.5" cy="23" r="1"/>
		<path d="M2.5,9.5c0.6,0,1-0.4,1-1V2h18v6.5c0,0.6,0.4,1,1,1c0.6,0,1-0.4,1-1V1c0-0.6-0.4-1-1-1h-20c-0.6,0-1,0.4-1,1v7.5
			C1.5,9.1,1.9,9.5,2.5,9.5z"/>
		<path d="M23,10.5h-9.5c-0.6,0-1,0.4-1,1c0,0.6,0.4,1,1,1H23c0.6,0,1-0.4,1-1C24,10.9,23.6,10.5,23,10.5z"/>
		<path d="M8.5,11.5c0-0.6-0.4-1-1-1H1c-0.6,0-1,0.4-1,1c0,0.6,0.4,1,1,1h6.5C8.1,12.5,8.5,12.1,8.5,11.5z"/>
		<path d="M13.9,19c0-0.1,0.1-0.1,0.1-0.2l1-4c0.1-0.5-0.2-1.1-0.7-1.2c-0.5-0.1-1.1,0.2-1.2,0.7l-0.5,1.9c-0.7-1.3-1.1-2.7-1.1-4.2
			c0-2.2,0.8-4.3,2.2-5.9c0.4-0.4,0.3-1-0.1-1.4c-0.4-0.4-1-0.3-1.4,0.1c-1.7,2-2.7,4.6-2.7,7.2c0,1.8,0.4,3.5,1.2,5l-1.5-0.4
			c-0.5-0.1-1.1,0.2-1.2,0.7c-0.1,0.5,0.2,1.1,0.7,1.2l4,1c0.1,0,0.1,0,0.2,0c0,0,0,0,0,0c0,0,0,0,0,0c0,0,0,0,0,0
			c0.2,0,0.5-0.1,0.6-0.2c0,0,0,0,0,0c0,0,0,0,0,0C13.8,19.3,13.8,19.2,13.9,19C13.9,19.1,13.9,19,13.9,19z"/>
	</g>
</g>
<g id="Outline_Icons">
	<g>
		<polyline class="st2" points="14,14.1 13,18.1 9,17.2 		"/>
		<g>
			<g>
				<g>
					<g>
						<path d="M2.5,21C2.2,21,2,21.2,2,21.5C2,21.8,2.2,22,2.5,22C2.8,22,3,21.8,3,21.5C3,21.2,2.8,21,2.5,21L2.5,21z"/>
					</g>
				</g>
			</g>
		</g>
		<g>
			<g>
				<g>
					<g>
						<path d="M2.5,19C2.2,19,2,19.2,2,19.5C2,19.8,2.2,20,2.5,20C2.8,20,3,19.8,3,19.5C3,19.2,2.8,19,2.5,19L2.5,19z"/>
					</g>
				</g>
			</g>
		</g>
		<g>
			<g>
				<g>
					<g>
						<path d="M2.5,17C2.2,17,2,17.2,2,17.5C2,17.8,2.2,18,2.5,18C2.8,18,3,17.8,3,17.5C3,17.2,2.8,17,2.5,17L2.5,17z"/>
					</g>
				</g>
			</g>
		</g>
		<g>
			<g>
				<g>
					<g>
						<path d="M2.5,15C2.2,15,2,15.2,2,15.5C2,15.8,2.2,16,2.5,16C2.8,16,3,15.8,3,15.5C3,15.2,2.8,15,2.5,15L2.5,15z"/>
					</g>
				</g>
			</g>
		</g>
		<g>
			<g>
				<g>
					<g>
						<path d="M22.5,21c-0.3,0-0.5,0.2-0.5,0.5c0,0.3,0.2,0.5,0.5,0.5c0.3,0,0.5-0.2,0.5-0.5C23,21.2,22.8,21,22.5,21L22.5,21z"/>
					</g>
				</g>
			</g>
		</g>
		<g>
			<g>
				<g>
					<g>
						<path d="M22.5,19c-0.3,0-0.5,0.2-0.5,0.5c0,0.3,0.2,0.5,0.5,0.5c0.3,0,0.5-0.2,0.5-0.5C23,19.2,22.8,19,22.5,19L22.5,19z"/>
					</g>
				</g>
			</g>
		</g>
		<g>
			<g>
				<g>
					<g>
						<path d="M22.5,17c-0.3,0-0.5,0.2-0.5,0.5c0,0.3,0.2,0.5,0.5,0.5c0.3,0,0.5-0.2,0.5-0.5C23,17.2,22.8,17,22.5,17L22.5,17z"/>
					</g>
				</g>
			</g>
		</g>
		<g>
			<g>
				<g>
					<g>
						<path d="M22.5,15c-0.3,0-0.5,0.2-0.5,0.5c0,0.3,0.2,0.5,0.5,0.5c0.3,0,0.5-0.2,0.5-0.5C23,15.2,22.8,15,22.5,15L22.5,15z"/>
					</g>
				</g>
			</g>
		</g>
		<g>
			<g>
				<g>
					<g>
						<path d="M2.5,13C2.2,13,2,13.2,2,13.5C2,13.8,2.2,14,2.5,14C2.8,14,3,13.8,3,13.5C3,13.2,2.8,13,2.5,13L2.5,13z"/>
					</g>
				</g>
			</g>
		</g>
		<g>
			<g>
				<g>
					<g>
						<path d="M22.5,13c-0.3,0-0.5,0.2-0.5,0.5c0,0.3,0.2,0.5,0.5,0.5c0.3,0,0.5-0.2,0.5-0.5C23,13.2,22.8,13,22.5,13L22.5,13z"/>
					</g>
				</g>
			</g>
		</g>
		<g>
			<g>
				<g>
					<g>
						<path d="M2.5,23C2.2,23,2,23.2,2,23.5C2,23.8,2.2,24,2.5,24C2.8,24,3,23.8,3,23.5C3,23.2,2.8,23,2.5,23L2.5,23z"/>
					</g>
				</g>
			</g>
		</g>
		<g>
			<g>
				<g>
					<g>
						<path d="M4.5,23C4.2,23,4,23.2,4,23.5C4,23.8,4.2,24,4.5,24C4.8,24,5,23.8,5,23.5C5,23.2,4.8,23,4.5,23L4.5,23z"/>
					</g>
				</g>
			</g>
		</g>
		<g>
			<g>
				<g>
					<g>
						<path d="M6.5,23C6.2,23,6,23.2,6,23.5C6,23.8,6.2,24,6.5,24C6.8,24,7,23.8,7,23.5C7,23.2,6.8,23,6.5,23L6.5,23z"/>
					</g>
				</g>
			</g>
		</g>
		<g>
			<g>
				<g>
					<g>
						<path d="M8.5,23C8.2,23,8,23.2,8,23.5C8,23.8,8.2,24,8.5,24C8.8,24,9,23.8,9,23.5C9,23.2,8.8,23,8.5,23L8.5,23z"/>
					</g>
				</g>
			</g>
		</g>
		<g>
			<g>
				<g>
					<g>
						<path d="M10.5,23c-0.3,0-0.5,0.2-0.5,0.5c0,0.3,0.2,0.5,0.5,0.5c0.3,0,0.5-0.2,0.5-0.5C11,23.2,10.8,23,10.5,23L10.5,23z"/>
					</g>
				</g>
			</g>
		</g>
		<g>
			<g>
				<g>
					<g>
						<path d="M12.5,23c-0.3,0-0.5,0.2-0.5,0.5c0,0.3,0.2,0.5,0.5,0.5c0.3,0,0.5-0.2,0.5-0.5C13,23.2,12.8,23,12.5,23L12.5,23z"/>
					</g>
				</g>
			</g>
		</g>
		<g>
			<g>
				<g>
					<g>
						<path d="M14.5,23c-0.3,0-0.5,0.2-0.5,0.5c0,0.3,0.2,0.5,0.5,0.5c0.3,0,0.5-0.2,0.5-0.5C15,23.2,14.8,23,14.5,23L14.5,23z"/>
					</g>
				</g>
			</g>
		</g>
		<g>
			<g>
				<g>
					<g>
						<path d="M16.5,23c-0.3,0-0.5,0.2-0.5,0.5c0,0.3,0.2,0.5,0.5,0.5c0.3,0,0.5-0.2,0.5-0.5C17,23.2,16.8,23,16.5,23L16.5,23z"/>
					</g>
				</g>
			</g>
		</g>
		<g>
			<g>
				<g>
					<g>
						<path d="M18.5,23c-0.3,0-0.5,0.2-0.5,0.5c0,0.3,0.2,0.5,0.5,0.5c0.3,0,0.5-0.2,0.5-0.5C19,23.2,18.8,23,18.5,23L18.5,23z"/>
					</g>
				</g>
			</g>
		</g>
		<g>
			<g>
				<g>
					<g>
						<path d="M20.5,23c-0.3,0-0.5,0.2-0.5,0.5c0,0.3,0.2,0.5,0.5,0.5c0.3,0,0.5-0.2,0.5-0.5C21,23.2,20.8,23,20.5,23L20.5,23z"/>
					</g>
				</g>
			</g>
		</g>
		<g>
			<g>
				<g>
					<g>
						<path d="M22.5,23c-0.3,0-0.5,0.2-0.5,0.5c0,0.3,0.2,0.5,0.5,0.5c0.3,0,0.5-0.2,0.5-0.5C23,23.2,22.8,23,22.5,23L22.5,23z"/>
					</g>
				</g>
			</g>
		</g>
		<polyline class="st2" points="22.5,9.5 22.5,0.5 2.5,0.5 2.5,9.5 		"/>
		<line class="st2" x1="13.5" y1="11.5" x2="23.5" y2="11.5"/>
		<line class="st2" x1="0.5" y1="11.5" x2="7.5" y2="11.5"/>
		<path class="st2" d="M13,18.1c-1.6-1.8-2.5-4.1-2.5-6.6c0-2.5,0.9-4.8,2.5-6.6"/>
	</g>
</g>
</svg>
