<?xml version="1.0" encoding="utf-8"?>
<!-- Generator: Adobe Illustrator 19.2.0, SVG Export Plug-In . SVG Version: 6.00 Build 0)  -->
<svg version="1.1" id="Layer_1" xmlns="http://www.w3.org/2000/svg" xmlns:xlink="http://www.w3.org/1999/xlink" x="0px" y="0px"
	 viewBox="0 0 24 24" style="enable-background:new 0 0 24 24;" xml:space="preserve">
<style type="text/css">
	.st0{display:none;}
	.st1{display:inline;}
	.st2{fill:none;stroke:#000000;stroke-linecap:round;stroke-linejoin:round;stroke-miterlimit:10;}
</style>
<g id="Filled_Icons" class="st0">
	<g class="st1">
		<path d="M9.3,7.3L10.7,7c-0.8,1.5-1.2,3.3-1.2,5c0,2.7,1,5.2,2.7,7.2c0.2,0.2,0.5,0.3,0.8,0.3c0.2,0,0.5-0.1,0.7-0.2
			c0.4-0.4,0.5-1,0.1-1.4c-1.4-1.6-2.2-3.7-2.2-5.9c0-1.5,0.4-2.9,1.1-4.2L13,9.6c0.1,0.5,0.5,0.8,1,0.8c0.1,0,0.2,0,0.2,0
			c0.5-0.1,0.9-0.7,0.7-1.2l-1-4c-0.1-0.4-0.6-0.8-1.1-0.7c0,0,0,0-0.1,0l-4,1C8.3,5.5,7.9,6,8.1,6.6C8.2,7.1,8.7,7.4,9.3,7.3z"/>
		<circle cx="2.5" cy="3.8" r="1"/>
		<circle cx="2.5" cy="6.7" r="1"/>
		<circle cx="22.5" cy="3.8" r="1"/>
		<circle cx="22.5" cy="6.7" r="1"/>
		<circle cx="2.5" cy="9.5" r="1"/>
		<circle cx="22.5" cy="9.5" r="1"/>
		<circle cx="2.5" cy="1" r="1"/>
		<circle cx="5.8" cy="1" r="1"/>
		<circle cx="9.2" cy="1" r="1"/>
		<circle cx="12.5" cy="1" r="1"/>
		<circle cx="15.8" cy="1" r="1"/>
		<circle cx="19.2" cy="1" r="1"/>
		<circle cx="22.5" cy="1" r="1"/>
		<path d="M22.5,14.5c-0.6,0-1,0.4-1,1V22h-18v-6.5c0-0.6-0.4-1-1-1c-0.6,0-1,0.4-1,1V23c0,0.6,0.4,1,1,1h20c0.6,0,1-0.4,1-1v-7.5
			C23.5,14.9,23.1,14.5,22.5,14.5z"/>
		<path d="M23,11.5h-9.5c-0.6,0-1,0.4-1,1c0,0.6,0.4,1,1,1H23c0.6,0,1-0.4,1-1C24,11.9,23.6,11.5,23,11.5z"/>
		<path d="M8.5,12.5c0-0.6-0.4-1-1-1H1c-0.6,0-1,0.4-1,1c0,0.6,0.4,1,1,1h6.5C8.1,13.5,8.5,13.1,8.5,12.5z"/>
	</g>
</g>
<g id="Outline_Icons">
	<g>
		<polyline class="st2" points="14,9.9 13,5.9 9,6.8 		"/>
		<g>
			<g>
				<g>
					<g>
						<path d="M2.5,2C2.2,2,2,2.2,2,2.5C2,2.8,2.2,3,2.5,3C2.8,3,3,2.8,3,2.5C3,2.2,2.8,2,2.5,2L2.5,2z"/>
					</g>
				</g>
			</g>
		</g>
		<g>
			<g>
				<g>
					<g>
						<path d="M2.5,4C2.2,4,2,4.2,2,4.5C2,4.8,2.2,5,2.5,5C2.8,5,3,4.8,3,4.5C3,4.2,2.8,4,2.5,4L2.5,4z"/>
					</g>
				</g>
			</g>
		</g>
		<g>
			<g>
				<g>
					<g>
						<path d="M2.5,6C2.2,6,2,6.2,2,6.5C2,6.8,2.2,7,2.5,7C2.8,7,3,6.8,3,6.5C3,6.2,2.8,6,2.5,6L2.5,6z"/>
					</g>
				</g>
			</g>
		</g>
		<g>
			<g>
				<g>
					<g>
						<path d="M2.5,8C2.2,8,2,8.2,2,8.5C2,8.8,2.2,9,2.5,9C2.8,9,3,8.8,3,8.5C3,8.2,2.8,8,2.5,8L2.5,8z"/>
					</g>
				</g>
			</g>
		</g>
		<g>
			<g>
				<g>
					<g>
						<path d="M22.5,2C22.2,2,22,2.2,22,2.5C22,2.8,22.2,3,22.5,3C22.8,3,23,2.8,23,2.5C23,2.2,22.8,2,22.5,2L22.5,2z"/>
					</g>
				</g>
			</g>
		</g>
		<g>
			<g>
				<g>
					<g>
						<path d="M22.5,4C22.2,4,22,4.2,22,4.5C22,4.8,22.2,5,22.5,5C22.8,5,23,4.8,23,4.5C23,4.2,22.8,4,22.5,4L22.5,4z"/>
					</g>
				</g>
			</g>
		</g>
		<g>
			<g>
				<g>
					<g>
						<path d="M22.5,6C22.2,6,22,6.2,22,6.5C22,6.8,22.2,7,22.5,7C22.8,7,23,6.8,23,6.5C23,6.2,22.8,6,22.5,6L22.5,6z"/>
					</g>
				</g>
			</g>
		</g>
		<g>
			<g>
				<g>
					<g>
						<path d="M22.5,8C22.2,8,22,8.2,22,8.5C22,8.8,22.2,9,22.5,9C22.8,9,23,8.8,23,8.5C23,8.2,22.8,8,22.5,8L22.5,8z"/>
					</g>
				</g>
			</g>
		</g>
		<g>
			<g>
				<g>
					<g>
						<path d="M2.5,10C2.2,10,2,10.2,2,10.5C2,10.8,2.2,11,2.5,11C2.8,11,3,10.8,3,10.5C3,10.2,2.8,10,2.5,10L2.5,10z"/>
					</g>
				</g>
			</g>
		</g>
		<g>
			<g>
				<g>
					<g>
						<path d="M22.5,10c-0.3,0-0.5,0.2-0.5,0.5c0,0.3,0.2,0.5,0.5,0.5c0.3,0,0.5-0.2,0.5-0.5C23,10.2,22.8,10,22.5,10L22.5,10z"/>
					</g>
				</g>
			</g>
		</g>
		<g>
			<g>
				<g>
					<g>
						<path d="M2.5,0C2.2,0,2,0.2,2,0.5C2,0.8,2.2,1,2.5,1C2.8,1,3,0.8,3,0.5C3,0.2,2.8,0,2.5,0L2.5,0z"/>
					</g>
				</g>
			</g>
		</g>
		<g>
			<g>
				<g>
					<g>
						<path d="M4.5,0C4.2,0,4,0.2,4,0.5C4,0.8,4.2,1,4.5,1C4.8,1,5,0.8,5,0.5C5,0.2,4.8,0,4.5,0L4.5,0z"/>
					</g>
				</g>
			</g>
		</g>
		<g>
			<g>
				<g>
					<g>
						<path d="M6.5,0C6.2,0,6,0.2,6,0.5C6,0.8,6.2,1,6.5,1C6.8,1,7,0.8,7,0.5C7,0.2,6.8,0,6.5,0L6.5,0z"/>
					</g>
				</g>
			</g>
		</g>
		<g>
			<g>
				<g>
					<g>
						<path d="M8.5,0C8.2,0,8,0.2,8,0.5C8,0.8,8.2,1,8.5,1C8.8,1,9,0.8,9,0.5C9,0.2,8.8,0,8.5,0L8.5,0z"/>
					</g>
				</g>
			</g>
		</g>
		<g>
			<g>
				<g>
					<g>
						<path d="M10.5,0C10.2,0,10,0.2,10,0.5C10,0.8,10.2,1,10.5,1C10.8,1,11,0.8,11,0.5C11,0.2,10.8,0,10.5,0L10.5,0z"/>
					</g>
				</g>
			</g>
		</g>
		<g>
			<g>
				<g>
					<g>
						<path d="M12.5,0C12.2,0,12,0.2,12,0.5C12,0.8,12.2,1,12.5,1C12.8,1,13,0.8,13,0.5C13,0.2,12.8,0,12.5,0L12.5,0z"/>
					</g>
				</g>
			</g>
		</g>
		<g>
			<g>
				<g>
					<g>
						<path d="M14.5,0C14.2,0,14,0.2,14,0.5C14,0.8,14.2,1,14.5,1C14.8,1,15,0.8,15,0.5C15,0.2,14.8,0,14.5,0L14.5,0z"/>
					</g>
				</g>
			</g>
		</g>
		<g>
			<g>
				<g>
					<g>
						<path d="M16.5,0C16.2,0,16,0.2,16,0.5C16,0.8,16.2,1,16.5,1C16.8,1,17,0.8,17,0.5C17,0.2,16.8,0,16.5,0L16.5,0z"/>
					</g>
				</g>
			</g>
		</g>
		<g>
			<g>
				<g>
					<g>
						<path d="M18.5,0C18.2,0,18,0.2,18,0.5C18,0.8,18.2,1,18.5,1C18.8,1,19,0.8,19,0.5C19,0.2,18.8,0,18.5,0L18.5,0z"/>
					</g>
				</g>
			</g>
		</g>
		<g>
			<g>
				<g>
					<g>
						<path d="M20.5,0C20.2,0,20,0.2,20,0.5C20,0.8,20.2,1,20.5,1C20.8,1,21,0.8,21,0.5C21,0.2,20.8,0,20.5,0L20.5,0z"/>
					</g>
				</g>
			</g>
		</g>
		<g>
			<g>
				<g>
					<g>
						<path d="M22.5,0C22.2,0,22,0.2,22,0.5C22,0.8,22.2,1,22.5,1C22.8,1,23,0.8,23,0.5C23,0.2,22.8,0,22.5,0L22.5,0z"/>
					</g>
				</g>
			</g>
		</g>
		<polyline class="st2" points="22.5,14.5 22.5,23.5 2.5,23.5 2.5,14.5 		"/>
		<line class="st2" x1="13.5" y1="12.5" x2="23.5" y2="12.5"/>
		<line class="st2" x1="0.5" y1="12.5" x2="7.5" y2="12.5"/>
		<path class="st2" d="M13,5.9c-1.6,1.8-2.5,4.1-2.5,6.6c0,2.5,0.9,4.8,2.5,6.6"/>
	</g>
</g>
</svg>
