<?xml version="1.0" encoding="utf-8"?>
<!-- Generator: Adobe Illustrator 19.2.0, SVG Export Plug-In . SVG Version: 6.00 Build 0)  -->
<svg version="1.1" id="Layer_1" xmlns="http://www.w3.org/2000/svg" xmlns:xlink="http://www.w3.org/1999/xlink" x="0px" y="0px"
	 viewBox="0 0 24 24" style="enable-background:new 0 0 24 24;" xml:space="preserve">
<style type="text/css">
	.st0{display:none;}
	.st1{display:inline;}
	.st2{fill:none;stroke:#000000;stroke-linecap:round;stroke-linejoin:round;stroke-miterlimit:10;}
</style>
<g id="Filled_Icon" class="st0">
	<g class="st1">
		<path d="M8.5,23H8v-0.5C8,22.2,7.8,22,7.5,22C7.2,22,7,22.2,7,22.5v1C7,23.8,7.2,24,7.5,24h1C8.8,24,9,23.8,9,23.5
			C9,23.2,8.8,23,8.5,23z"/>
		<path d="M23.5,22c-0.3,0-0.5,0.2-0.5,0.5V23h-0.5c-0.3,0-0.5,0.2-0.5,0.5c0,0.3,0.2,0.5,0.5,0.5h1c0.3,0,0.5-0.2,0.5-0.5v-1
			C24,22.2,23.8,22,23.5,22z"/>
		<path d="M11.5,23h-1c-0.3,0-0.5,0.2-0.5,0.5c0,0.3,0.2,0.5,0.5,0.5h1c0.3,0,0.5-0.2,0.5-0.5C12,23.2,11.8,23,11.5,23z"/>
		<path d="M14.5,23h-1c-0.3,0-0.5,0.2-0.5,0.5c0,0.3,0.2,0.5,0.5,0.5h1c0.3,0,0.5-0.2,0.5-0.5C15,23.2,14.8,23,14.5,23z"/>
		<path d="M17.5,23h-1c-0.3,0-0.5,0.2-0.5,0.5c0,0.3,0.2,0.5,0.5,0.5h1c0.3,0,0.5-0.2,0.5-0.5C18,23.2,17.8,23,17.5,23z"/>
		<path d="M20.5,23h-1c-0.3,0-0.5,0.2-0.5,0.5c0,0.3,0.2,0.5,0.5,0.5h1c0.3,0,0.5-0.2,0.5-0.5C21,23.2,20.8,23,20.5,23z"/>
		<path d="M23.5,13h-1c-0.3,0-0.5,0.2-0.5,0.5c0,0.3,0.2,0.5,0.5,0.5H23v0.5c0,0.3,0.2,0.5,0.5,0.5c0.3,0,0.5-0.2,0.5-0.5v-1
			C24,13.2,23.8,13,23.5,13z"/>
		<path d="M11.5,13H11V0.5C11,0.2,10.8,0,10.5,0h-10C0.2,0,0,0.2,0,0.5v16C0,16.8,0.2,17,0.5,17H7v0.5C7,17.8,7.2,18,7.5,18
			C7.8,18,8,17.8,8,17.5V17h2.5c0.3,0,0.5-0.2,0.5-0.5V14h0.5c0.3,0,0.5-0.2,0.5-0.5C12,13.2,11.8,13,11.5,13z"/>
		<path d="M14.5,13h-1c-0.3,0-0.5,0.2-0.5,0.5c0,0.3,0.2,0.5,0.5,0.5h1c0.3,0,0.5-0.2,0.5-0.5C15,13.2,14.8,13,14.5,13z"/>
		<path d="M17.5,13h-1c-0.3,0-0.5,0.2-0.5,0.5c0,0.3,0.2,0.5,0.5,0.5h1c0.3,0,0.5-0.2,0.5-0.5C18,13.2,17.8,13,17.5,13z"/>
		<path d="M20.5,13h-1c-0.3,0-0.5,0.2-0.5,0.5c0,0.3,0.2,0.5,0.5,0.5h1c0.3,0,0.5-0.2,0.5-0.5C21,13.2,20.8,13,20.5,13z"/>
		<path d="M23.5,16c-0.3,0-0.5,0.2-0.5,0.5v1c0,0.3,0.2,0.5,0.5,0.5c0.3,0,0.5-0.2,0.5-0.5v-1C24,16.2,23.8,16,23.5,16z"/>
		<path d="M23.5,19c-0.3,0-0.5,0.2-0.5,0.5v1c0,0.3,0.2,0.5,0.5,0.5c0.3,0,0.5-0.2,0.5-0.5v-1C24,19.2,23.8,19,23.5,19z"/>
		<path d="M7.5,21C7.8,21,8,20.8,8,20.5v-1C8,19.2,7.8,19,7.5,19C7.2,19,7,19.2,7,19.5v1C7,20.8,7.2,21,7.5,21z"/>
		<path d="M13.7,4h2.8C18.4,4,20,5.6,20,7.5v2.8l-2.1-2.1c-0.2-0.2-0.5-0.2-0.7,0c-0.2,0.2-0.2,0.5,0,0.7l3,3c0,0,0.1,0.1,0.2,0.1
			c0.1,0,0.1,0,0.2,0c0.1,0,0.1,0,0.2,0c0.1,0,0.1-0.1,0.2-0.1l3-3c0.2-0.2,0.2-0.5,0-0.7c-0.2-0.2-0.5-0.2-0.7,0L21,10.3V7.5
			C21,5,19,3,16.5,3h-2.8l2.1-2.1c0.2-0.2,0.2-0.5,0-0.7c-0.2-0.2-0.5-0.2-0.7,0l-3,3c0,0-0.1,0.1-0.1,0.2C12,3.4,12,3.6,12,3.7
			c0,0.1,0.1,0.1,0.1,0.2l3,3C15.2,7,15.4,7,15.5,7c0.1,0,0.3,0,0.4-0.1c0.2-0.2,0.2-0.5,0-0.7L13.7,4z"/>
	</g>
</g>
<g id="Outline_Icons">
	<g>
		<polyline class="st2" points="8.5,23.5 7.5,23.5 7.5,22.5 		"/>
		<polyline class="st2" points="22.5,23.5 23.5,23.5 23.5,22.5 		"/>
		<line class="st2" x1="11.5" y1="23.5" x2="10.5" y2="23.5"/>
		<line class="st2" x1="14.5" y1="23.5" x2="13.5" y2="23.5"/>
		<line class="st2" x1="17.5" y1="23.5" x2="16.5" y2="23.5"/>
		<line class="st2" x1="20.5" y1="23.5" x2="19.5" y2="23.5"/>
		<polyline class="st2" points="22.5,13.5 23.5,13.5 23.5,14.5 		"/>
		<line class="st2" x1="11.5" y1="13.5" x2="10.5" y2="13.5"/>
		<line class="st2" x1="14.5" y1="13.5" x2="13.5" y2="13.5"/>
		<line class="st2" x1="17.5" y1="13.5" x2="16.5" y2="13.5"/>
		<line class="st2" x1="20.5" y1="13.5" x2="19.5" y2="13.5"/>
		<line class="st2" x1="23.5" y1="16.5" x2="23.5" y2="17.5"/>
		<line class="st2" x1="23.5" y1="19.5" x2="23.5" y2="20.5"/>
		<line class="st2" x1="7.5" y1="16.5" x2="7.5" y2="17.5"/>
		<line class="st2" x1="7.5" y1="19.5" x2="7.5" y2="20.5"/>
		<rect x="0.5" y="0.5" class="st2" width="10" height="16"/>
		<g>
			<path class="st2" d="M20.5,11.5V9V7.5c0-2.2-1.8-4-4-4h-1h-3"/>
			<polyline class="st2" points="15.5,0.5 12.5,3.5 15.5,6.5 			"/>
			<polyline class="st2" points="23.5,8.5 20.5,11.5 17.5,8.5 			"/>
		</g>
	</g>
</g>
</svg>
