<?xml version="1.0" encoding="utf-8"?>
<!-- Generator: Adobe Illustrator 19.2.0, SVG Export Plug-In . SVG Version: 6.00 Build 0)  -->
<svg version="1.1" id="Layer_1" xmlns="http://www.w3.org/2000/svg" xmlns:xlink="http://www.w3.org/1999/xlink" x="0px" y="0px"
	 viewBox="0 0 24 24" style="enable-background:new 0 0 24 24;" xml:space="preserve">
<style type="text/css">
	.st0{display:none;}
	.st1{display:inline;}
	.st2{fill:none;stroke:#000000;stroke-linecap:round;stroke-linejoin:round;stroke-miterlimit:10;}
</style>
<g id="Filled_Icon" class="st0">
	<g class="st1">
		<path d="M23.5,15c-0.3,0-0.5,0.2-0.5,0.5V16h-0.5c-0.3,0-0.5,0.2-0.5,0.5c0,0.3,0.2,0.5,0.5,0.5h1c0.3,0,0.5-0.2,0.5-0.5v-1
			C24,15.2,23.8,15,23.5,15z"/>
		<path d="M23.5,0h-1C22.2,0,22,0.2,22,0.5C22,0.8,22.2,1,22.5,1H23v0.5C23,1.8,23.2,2,23.5,2C23.8,2,24,1.8,24,1.5v-1
			C24,0.2,23.8,0,23.5,0z"/>
		<path d="M23.5,12c-0.3,0-0.5,0.2-0.5,0.5v1c0,0.3,0.2,0.5,0.5,0.5c0.3,0,0.5-0.2,0.5-0.5v-1C24,12.2,23.8,12,23.5,12z"/>
		<path d="M23.5,9C23.2,9,23,9.2,23,9.5v1c0,0.3,0.2,0.5,0.5,0.5c0.3,0,0.5-0.2,0.5-0.5v-1C24,9.2,23.8,9,23.5,9z"/>
		<path d="M23.5,6C23.2,6,23,6.2,23,6.5v1C23,7.8,23.2,8,23.5,8C23.8,8,24,7.8,24,7.5v-1C24,6.2,23.8,6,23.5,6z"/>
		<path d="M23.5,3C23.2,3,23,3.2,23,3.5v1C23,4.8,23.2,5,23.5,5C23.8,5,24,4.8,24,4.5v-1C24,3.2,23.8,3,23.5,3z"/>
		<path d="M13.5,2C13.8,2,14,1.8,14,1.5V1h0.5C14.8,1,15,0.8,15,0.5C15,0.2,14.8,0,14.5,0h-1C13.2,0,13,0.2,13,0.5v1
			C13,1.8,13.2,2,13.5,2z"/>
		<path d="M13.5,11c0.3,0,0.5-0.2,0.5-0.5v-1C14,9.2,13.8,9,13.5,9C13.2,9,13,9.2,13,9.5v1C13,10.8,13.2,11,13.5,11z"/>
		<path d="M13.5,8C13.8,8,14,7.8,14,7.5v-1C14,6.2,13.8,6,13.5,6C13.2,6,13,6.2,13,6.5v1C13,7.8,13.2,8,13.5,8z"/>
		<path d="M13.5,5C13.8,5,14,4.8,14,4.5v-1C14,3.2,13.8,3,13.5,3C13.2,3,13,3.2,13,3.5v1C13,4.8,13.2,5,13.5,5z"/>
		<path d="M17.5,0h-1C16.2,0,16,0.2,16,0.5C16,0.8,16.2,1,16.5,1h1C17.8,1,18,0.8,18,0.5C18,0.2,17.8,0,17.5,0z"/>
		<path d="M20.5,0h-1C19.2,0,19,0.2,19,0.5C19,0.8,19.2,1,19.5,1h1C20.8,1,21,0.8,21,0.5C21,0.2,20.8,0,20.5,0z"/>
		<path d="M17.5,16H17v-2.5c0-0.3-0.2-0.5-0.5-0.5H14v-0.5c0-0.3-0.2-0.5-0.5-0.5c-0.3,0-0.5,0.2-0.5,0.5V13H0.5
			C0.2,13,0,13.2,0,13.5v10C0,23.8,0.2,24,0.5,24h16c0.3,0,0.5-0.2,0.5-0.5V17h0.5c0.3,0,0.5-0.2,0.5-0.5C18,16.2,17.8,16,17.5,16z"
			/>
		<path d="M20.5,16h-1c-0.3,0-0.5,0.2-0.5,0.5c0,0.3,0.2,0.5,0.5,0.5h1c0.3,0,0.5-0.2,0.5-0.5C21,16.2,20.8,16,20.5,16z"/>
		<path d="M3.1,11.9c0,0,0.1,0.1,0.2,0.1c0.1,0,0.1,0,0.2,0c0.1,0,0.1,0,0.2,0c0.1,0,0.1-0.1,0.2-0.1l3-3C7,8.7,7,8.3,6.9,8.1
			C6.7,8,6.3,8,6.1,8.1L4,10.3V7.5C4,5.6,5.6,4,7.5,4h2.8L8.1,6.1C8,6.3,8,6.7,8.1,6.9C8.2,7,8.4,7,8.5,7c0.1,0,0.3,0,0.4-0.1l3-3
			c0,0,0.1-0.1,0.1-0.2C12,3.6,12,3.4,12,3.3c0-0.1-0.1-0.1-0.1-0.2l-3-3C8.7,0,8.3,0,8.1,0.1C8,0.3,8,0.7,8.1,0.9L10.3,3H7.5
			C5,3,3,5,3,7.5v2.8L0.9,8.1C0.7,8,0.3,8,0.1,8.1C0,8.3,0,8.7,0.1,8.9L3.1,11.9z"/>
	</g>
</g>
<g id="Outline_Icons">
	<g>
		<polyline class="st2" points="23.5,15.5 23.5,16.5 22.5,16.5 		"/>
		<polyline class="st2" points="23.5,1.5 23.5,0.5 22.5,0.5 		"/>
		<line class="st2" x1="23.5" y1="12.5" x2="23.5" y2="13.5"/>
		<line class="st2" x1="23.5" y1="9.5" x2="23.5" y2="10.5"/>
		<line class="st2" x1="23.5" y1="6.5" x2="23.5" y2="7.5"/>
		<line class="st2" x1="23.5" y1="3.5" x2="23.5" y2="4.5"/>
		<polyline class="st2" points="13.5,1.5 13.5,0.5 14.5,0.5 		"/>
		<line class="st2" x1="13.5" y1="12.5" x2="13.5" y2="13.5"/>
		<line class="st2" x1="13.5" y1="9.5" x2="13.5" y2="10.5"/>
		<line class="st2" x1="13.5" y1="6.5" x2="13.5" y2="7.5"/>
		<line class="st2" x1="13.5" y1="3.5" x2="13.5" y2="4.5"/>
		<line class="st2" x1="16.5" y1="0.5" x2="17.5" y2="0.5"/>
		<line class="st2" x1="19.5" y1="0.5" x2="20.5" y2="0.5"/>
		<line class="st2" x1="16.5" y1="16.5" x2="17.5" y2="16.5"/>
		<line class="st2" x1="19.5" y1="16.5" x2="20.5" y2="16.5"/>
		<rect x="0.5" y="13.5" class="st2" width="16" height="10"/>
		<g>
			<path class="st2" d="M11.5,3.5H9H7.5c-2.2,0-4,1.8-4,4v1v3"/>
			<polyline class="st2" points="0.5,8.5 3.5,11.5 6.5,8.5 			"/>
			<polyline class="st2" points="8.5,0.5 11.5,3.5 8.5,6.5 			"/>
		</g>
	</g>
</g>
</svg>
