<?xml version="1.0" encoding="utf-8"?>
<!-- Generator: Adobe Illustrator 19.2.0, SVG Export Plug-In . SVG Version: 6.00 Build 0)  -->
<svg version="1.1" id="Layer_1" xmlns="http://www.w3.org/2000/svg" xmlns:xlink="http://www.w3.org/1999/xlink" x="0px" y="0px"
	 viewBox="0 0 24 24" style="enable-background:new 0 0 24 24;" xml:space="preserve">
<style type="text/css">
	.st0{display:none;}
	.st1{display:inline;}
	.st2{fill:none;stroke:#000000;stroke-linecap:round;stroke-linejoin:round;stroke-miterlimit:10;}
</style>
<g id="Filled_Icons" class="st0">
	<g class="st1">
		<path d="M23.5,0h-20C3.4,0,3.2,0.1,3.1,0.1l-3,3C0.1,3.2,0,3.4,0,3.5v20C0,23.8,0.2,24,0.5,24h23c0.3,0,0.5-0.2,0.5-0.5v-23
			C24,0.2,23.8,0,23.5,0z M20,22.5c0,0.3-0.2,0.5-0.5,0.5h-15C4.2,23,4,22.8,4,22.5v-2C4,20.2,4.2,20,4.5,20h15
			c0.3,0,0.5,0.2,0.5,0.5V22.5z M8.5,11.5C8.5,9.6,10.1,8,12,8c1.9,0,3.5,1.6,3.5,3.5c0,1.9-1.6,3.5-3.5,3.5
			C10.1,15,8.5,13.4,8.5,11.5z M19.5,19h-5c-0.3,0-0.5-0.2-0.5-0.5c0-0.3,0.2-0.5,0.5-0.5h5c0.3,0,0.5,0.2,0.5,0.5
			C20,18.8,19.8,19,19.5,19z M20,5.5C20,5.8,19.8,6,19.5,6h-15C4.2,6,4,5.8,4,5.5v-4C4,1.2,4.2,1,4.5,1h15C19.8,1,20,1.2,20,1.5V5.5
			z"/>
		<path d="M10,10c-0.3,0-0.5,0.2-0.5,0.5v2c0,0.3,0.2,0.5,0.5,0.5c0.3,0,0.5-0.2,0.5-0.5v-2C10.5,10.2,10.3,10,10,10z"/>
		<circle cx="12" cy="11.5" r="0.5"/>
	</g>
</g>
<g id="Outline_Icons">
	<g>
		<polygon class="st2" points="23.5,0.5 3.5,0.5 0.5,3.5 0.5,23.5 23.5,23.5 		"/>
		<rect x="4.5" y="0.5" class="st2" width="15" height="5"/>
		<rect x="4.5" y="20.5" class="st2" width="15" height="3"/>
		<circle class="st2" cx="12" cy="11.5" r="4"/>
		<line class="st2" x1="14.5" y1="18.5" x2="19.5" y2="18.5"/>
		<line class="st2" x1="10.5" y1="10.5" x2="10.5" y2="12.5"/>
		<g>
			<g>
				<g>
					<path d="M12,11c-0.3,0-0.5,0.2-0.5,0.5c0,0.3,0.2,0.5,0.5,0.5c0.3,0,0.5-0.2,0.5-0.5C12.5,11.2,12.3,11,12,11L12,11z"/>
				</g>
			</g>
		</g>
	</g>
</g>
</svg>
