<?xml version="1.0" encoding="utf-8"?>
<!-- Generator: Adobe Illustrator 19.2.0, SVG Export Plug-In . SVG Version: 6.00 Build 0)  -->
<svg version="1.1" id="Layer_1" xmlns="http://www.w3.org/2000/svg" xmlns:xlink="http://www.w3.org/1999/xlink" x="0px" y="0px"
	 viewBox="0 0 24 24" enable-background="new 0 0 24 24" xml:space="preserve">
<g id="Filled_Icons" display="none">
	<g display="inline">
		<g>
			<rect x="8" y="0.006" width="1" height="4"/>
			<rect x="12" y="0.006" width="1" height="4"/>
			<rect x="10" y="0.006" width="1" height="4"/>
			<path d="M16.5,0.006H16v4h1.5c0.169,0,0.335,0.011,0.5,0.025V1.506C18,0.679,17.327,0.006,16.5,0.006z"/>
			<rect x="14" y="0.006" width="1" height="4"/>
			<path d="M7,0.006H6.5c-0.827,0-1.5,0.673-1.5,1.5v2.525c0.165-0.015,0.331-0.025,0.5-0.025H7V0.006z"/>
		</g>
		<path d="M17.5,5.006h-12c-2.481,0-4.5,2.02-4.5,4.5v10c0,2.482,2.019,4.5,4.5,4.5h12c2.48,0,4.5-2.018,4.5-4.5v-10
			C22,7.025,19.98,5.006,17.5,5.006z M17.5,12.006h-2.785l-1,1H15.5c0.275,0,0.5,0.225,0.5,0.5c0,0.275-0.225,0.5-0.5,0.5h-2.785
			l-1,1H13.5c0.275,0,0.5,0.225,0.5,0.5c0,0.275-0.225,0.5-0.5,0.5h-2.785l-1,1H11.5c0.276,0,0.5,0.225,0.5,0.5
			c0,0.275-0.224,0.5-0.5,0.5H8.715l-1.806,1.807c-0.098,0.098-0.226,0.145-0.354,0.145c-0.128,0-0.255-0.049-0.353-0.145
			c-0.195-0.195-0.195-0.513,0-0.707L8,17.307v-2.801c0-0.275,0.224-0.5,0.5-0.5c0.276,0,0.5,0.225,0.5,0.5v1.801l1-1v-2.801
			c0-0.276,0.224-0.5,0.5-0.5c0.276,0,0.5,0.224,0.5,0.5v1.801l1-1v-2.801c0-0.276,0.224-0.5,0.5-0.5c0.275,0,0.5,0.224,0.5,0.5
			v1.801l1-1V8.506c0-0.276,0.225-0.5,0.5-0.5c0.275,0,0.5,0.224,0.5,0.5v1.801l1.091-1.091c0.195-0.194,0.513-0.194,0.707,0
			c0.195,0.195,0.195,0.512,0,0.708l-1.083,1.082H17.5c0.275,0,0.5,0.224,0.5,0.5C18,11.782,17.775,12.006,17.5,12.006z"/>
	</g>
</g>
<g id="Outline_Icons">
	<g>
		<path fill="none" stroke="#000000" stroke-linejoin="round" stroke-miterlimit="10" d="M21.5,19.5c0,2.209-1.791,4-4,4h-12
			c-2.209,0-4-1.791-4-4v-10c0-2.209,1.791-4,4-4h12c2.209,0,4,1.791,4,4V19.5z"/>
		<path fill="none" stroke="#000000" stroke-linejoin="round" stroke-miterlimit="10" d="M17.5,1.5c0-0.552-0.447-1-1-1h-10
			c-0.553,0-1,0.448-1,1v4h12V1.5z"/>
		<line fill="none" stroke="#000000" stroke-linejoin="round" stroke-miterlimit="10" x1="7.5" y1="5.5" x2="7.5" y2="0.5"/>
		<line fill="none" stroke="#000000" stroke-linejoin="round" stroke-miterlimit="10" x1="9.5" y1="5.5" x2="9.5" y2="0.5"/>
		<line fill="none" stroke="#000000" stroke-linejoin="round" stroke-miterlimit="10" x1="11.5" y1="5.5" x2="11.5" y2="0.5"/>
		<line fill="none" stroke="#000000" stroke-linejoin="round" stroke-miterlimit="10" x1="13.5" y1="5.5" x2="13.5" y2="0.5"/>
		<line fill="none" stroke="#000000" stroke-linejoin="round" stroke-miterlimit="10" x1="15.5" y1="5.5" x2="15.5" y2="0.5"/>
		<g>
			
				<line fill="none" stroke="#000000" stroke-linecap="round" stroke-linejoin="round" stroke-miterlimit="10" x1="16.443" y1="9.563" x2="6.556" y2="19.452"/>
			<polyline fill="none" stroke="#000000" stroke-linecap="round" stroke-linejoin="round" stroke-miterlimit="10" points="
				14.5,8.5 14.5,11.5 17.5,11.5 			"/>
			<polyline fill="none" stroke="#000000" stroke-linecap="round" stroke-linejoin="round" stroke-miterlimit="10" points="
				12.5,10.5 12.5,13.5 15.5,13.5 			"/>
			<polyline fill="none" stroke="#000000" stroke-linecap="round" stroke-linejoin="round" stroke-miterlimit="10" points="
				10.5,12.5 10.5,15.5 13.5,15.5 			"/>
			<polyline fill="none" stroke="#000000" stroke-linecap="round" stroke-linejoin="round" stroke-miterlimit="10" points="
				8.5,14.5 8.5,17.5 11.5,17.5 			"/>
		</g>
	</g>
</g>
</svg>
