<?xml version="1.0" encoding="utf-8"?>
<!-- Generator: Adobe Illustrator 19.2.0, SVG Export Plug-In . SVG Version: 6.00 Build 0)  -->
<svg version="1.1" id="Layer_1" xmlns="http://www.w3.org/2000/svg" xmlns:xlink="http://www.w3.org/1999/xlink" x="0px" y="0px"
	 viewBox="0 0 24 24" style="enable-background:new 0 0 24 24;" xml:space="preserve">
<style type="text/css">
	.st0{display:none;}
	.st1{display:inline;}
	.st2{fill:none;stroke:#000000;stroke-linejoin:round;stroke-miterlimit:10;}
</style>
<g id="Filled_Icons" class="st0">
	<path class="st1" d="M19.5,15c-0.5,0-0.9,0.1-1.3,0.2l-3.5-7.1c1.1-0.8,1.9-2.1,1.9-3.6C16.5,2,14.5,0,12,0C9.5,0,7.5,2,7.5,4.5
		c0,1.5,0.7,2.8,1.9,3.6l-3.5,7.1C5.4,15.1,5,15,4.5,15C2,15,0,17,0,19.5C0,22,2,24,4.5,24c2.3,0,4.2-1.8,4.5-4H15
		c0.2,2.2,2.2,4,4.5,4c2.5,0,4.5-2,4.5-4.5C24,17,22,15,19.5,15z M15,19H9c-0.2-1.4-1-2.7-2.2-3.4l3.5-7C10.8,8.9,11.4,9,12,9
		c0.6,0,1.2-0.1,1.8-0.4l3.5,7C16,16.3,15.2,17.6,15,19z"/>
</g>
<g id="Outline_Icons">
	<g>
		<circle class="st2" cx="4.5" cy="19.5" r="4"/>
		<circle class="st2" cx="19.5" cy="19.5" r="4"/>
		<circle class="st2" cx="12" cy="4.5" r="4"/>
		<line class="st2" x1="8.5" y1="19.5" x2="15.5" y2="19.5"/>
		<line class="st2" x1="14" y1="8" x2="17.9" y2="15.8"/>
		<line class="st2" x1="10" y1="8" x2="6.1" y2="15.8"/>
	</g>
</g>
</svg>
