<?xml version="1.0" encoding="utf-8"?>
<!-- Generator: Adobe Illustrator 19.2.0, SVG Export Plug-In . SVG Version: 6.00 Build 0)  -->
<svg version="1.1" id="Layer_1" xmlns="http://www.w3.org/2000/svg" xmlns:xlink="http://www.w3.org/1999/xlink" x="0px" y="0px"
	 viewBox="0 0 24 24" style="enable-background:new 0 0 24 24;" xml:space="preserve">
<style type="text/css">
	.st0{display:none;}
	.st1{display:inline;}
	.st2{fill:none;stroke:#000000;stroke-linecap:round;stroke-linejoin:round;stroke-miterlimit:10;}
</style>
<g id="Filled_Icons" class="st0">
	<path class="st1" d="M23.4,8.3c-0.7-2.1-2.6-3.5-4.8-3.5c-0.6,0-1.1,0.1-1.7,0.3C17.1,2.3,14.8,0,12,0C9.2,0,6.9,2.3,7,5.1
		C6.5,4.9,5.9,4.8,5.3,4.8c-2.2,0-4.1,1.4-4.8,3.5c-0.4,1.3-0.3,2.6,0.3,3.8c0.7,1.3,1.8,2.2,3,2.5c-1.7,2.3-1.2,5.5,1,7.1
		c0.9,0.6,1.9,1,2.9,1c1.7,0,3.2-0.9,4.1-2.2c0.9,1.3,2.4,2.2,4.1,2.2c1.1,0,2.1-0.3,2.9-1c1.1-0.8,1.8-1.9,2-3.3
		c0.2-1.3-0.1-2.7-1-3.8C22.7,13.9,24.3,11,23.4,8.3z M12,16c-2.2,0-4-1.8-4-4c0-2.2,1.8-4,4-4c2.2,0,4,1.8,4,4
		C16,14.2,14.2,16,12,16z"/>
</g>
<g id="Outline_Icons">
	<g>
		<circle class="st2" cx="12.1" cy="12.1" r="3.5"/>
		<path class="st2" d="M23,8.5c-0.8-2.4-3.3-3.7-5.7-2.9c-0.3,0.1-0.6,0.2-0.9,0.4c0.1-0.3,0.1-0.6,0.1-0.9c0-2.5-2-4.5-4.5-4.5
			c-2.5,0-4.5,2-4.5,4.5c0,0.3,0,0.6,0.1,0.9C7.4,5.8,7.1,5.7,6.8,5.6C4.5,4.8,1.9,6.1,1.2,8.5c-0.8,2.4,0.5,4.9,2.9,5.7
			c0.3,0.1,0.6,0.2,0.9,0.2c-0.2,0.2-0.4,0.4-0.6,0.7c-1.5,2-1,4.8,1,6.3c2,1.5,4.8,1,6.3-1c0.2-0.3,0.3-0.5,0.5-0.8
			c0.1,0.3,0.3,0.6,0.5,0.8c1.5,2,4.3,2.5,6.3,1c2-1.5,2.5-4.3,1-6.3c-0.2-0.3-0.4-0.5-0.6-0.7c0.3,0,0.6-0.1,0.9-0.2
			C22.5,13.4,23.8,10.9,23,8.5z"/>
	</g>
</g>
</svg>
