<?xml version="1.0" encoding="utf-8"?>
<!-- Generator: Adobe Illustrator 19.2.0, SVG Export Plug-In . SVG Version: 6.00 Build 0)  -->
<svg version="1.1" id="Layer_1" xmlns="http://www.w3.org/2000/svg" xmlns:xlink="http://www.w3.org/1999/xlink" x="0px" y="0px"
	 viewBox="0 0 24 24" style="enable-background:new 0 0 24 24;" xml:space="preserve">
<style type="text/css">
	.st0{display:none;}
	.st1{display:inline;}
	.st2{fill:none;stroke:#000000;stroke-linecap:round;stroke-linejoin:round;stroke-miterlimit:10;}
	.st3{fill:none;stroke:#000000;stroke-linejoin:round;stroke-miterlimit:10;}
</style>
<g id="Filled_Icons" class="st0">
	<g class="st1">
		<path d="M19,15.2c-0.1-0.1-0.2-0.2-0.4-0.2h-6.6c0-0.7,0.1-2.1,0.7-3.9c0.5,0.5,1.2,0.8,2,0.8c0.6,0,1.2-0.2,1.6-0.5
			c1.2-0.8,1.5-2.4,0.8-3.7c1.3-0.6,2-2,1.5-3.4c-0.4-1.3-1.9-2.2-3.2-1.9C15.3,1.1,14.1,0,12.6,0C11.2,0,10,1.1,9.9,2.5
			C8.5,2.2,7.1,3,6.6,4.4C6.4,5.1,6.4,5.8,6.8,6.5c0.3,0.6,0.8,1,1.4,1.3C7.4,9,7.7,10.6,8.9,11.4c0.5,0.3,1,0.5,1.6,0.5
			c0.3,0,0.7-0.1,1-0.2c-0.4,1.4-0.5,2.6-0.5,3.2H5.6c-0.2,0-0.3,0.1-0.4,0.2c-0.1,0.1-0.1,0.3-0.1,0.4L5.5,17h13.3l0.3-1.4
			C19.1,15.5,19.1,15.3,19,15.2z M10.4,6.3c0-1.3,1-2.3,2.3-2.3s2.3,1,2.3,2.3c0,1.3-1,2.3-2.3,2.3S10.4,7.6,10.4,6.3z"/>
		<path d="M7.1,23.6C7.2,23.8,7.4,24,7.6,24h9c0.2,0,0.4-0.2,0.5-0.4l1.4-5.6H5.7L7.1,23.6z"/>
	</g>
</g>
<g id="Outline_Icons">
	<g>
		<g>
			<g>
				<circle class="st2" cx="12.6" cy="6.3" r="1.8"/>
				<path class="st2" d="M18.2,4.5c-0.4-1.2-1.7-1.9-2.9-1.5c-0.2,0.1-0.3,0.1-0.4,0.2c0-0.2,0.1-0.3,0.1-0.5c0-1.3-1-2.3-2.3-2.3
					c-1.3,0-2.3,1-2.3,2.3c0,0.2,0,0.3,0.1,0.5c-0.1-0.1-0.3-0.1-0.4-0.2C8.8,2.7,7.5,3.3,7.1,4.5C6.7,5.7,7.4,7,8.6,7.4
					C8.7,7.4,8.9,7.5,9,7.5C8.9,7.6,8.8,7.7,8.7,7.8C8,8.9,8.2,10.3,9.2,11c1,0.7,2.4,0.5,3.2-0.5c0.1-0.1,0.2-0.3,0.2-0.4
					c0.1,0.1,0.1,0.3,0.2,0.4c0.7,1,2.2,1.2,3.2,0.5c1-0.7,1.2-2.2,0.5-3.2c-0.1-0.1-0.2-0.3-0.3-0.4c0.2,0,0.3,0,0.5-0.1
					C17.9,7,18.5,5.7,18.2,4.5z"/>
			</g>
			<polygon class="st3" points="16.6,23.5 7.6,23.5 5.6,15.5 18.6,15.5 			"/>
			<path class="st2" d="M11.6,15.5c0,0-0.3-2.4,1-5.4"/>
		</g>
		<line class="st3" x1="6.1" y1="17.5" x2="18.1" y2="17.5"/>
	</g>
</g>
</svg>
