<?xml version="1.0" encoding="utf-8"?>
<!-- Generator: Adobe Illustrator 19.2.0, SVG Export Plug-In . SVG Version: 6.00 Build 0)  -->
<svg version="1.1" id="Layer_1" xmlns="http://www.w3.org/2000/svg" xmlns:xlink="http://www.w3.org/1999/xlink" x="0px" y="0px"
	 viewBox="0 0 24 24" style="enable-background:new 0 0 24 24;" xml:space="preserve">
<style type="text/css">
	.st0{display:none;}
	.st1{display:inline;}
	.st2{fill:none;stroke:#000000;stroke-linecap:round;stroke-linejoin:round;stroke-miterlimit:10;}
</style>
<g id="Filled_Icons" class="st0">
	<path class="st1" d="M23.5,16c0.3,0,0.5-0.2,0.5-0.5v-3c0-0.3-0.2-0.5-0.5-0.5H18v-1c0-1.1-0.9-2-2-2H9C8.4,9,8,8.6,8,8V4h5.5
		C13.8,4,14,3.8,14,3.5v-3C14,0.2,13.8,0,13.5,0h-13C0.2,0,0,0.2,0,0.5v3C0,3.8,0.2,4,0.5,4H7v4c0,1.1,0.9,2,2,2h7c0.6,0,1,0.4,1,1
		v1h-6.5c-0.3,0-0.5,0.2-0.5,0.5v3c0,0.3,0.2,0.5,0.5,0.5H17v4h-6.5c-0.3,0-0.5,0.2-0.5,0.5v3c0,0.3,0.2,0.5,0.5,0.5h13
		c0.3,0,0.5-0.2,0.5-0.5v-3c0-0.3-0.2-0.5-0.5-0.5H18v-4H23.5z"/>
</g>
<g id="Outline_Icons">
	<g>
		<rect x="0.5" y="0.5" class="st2" width="13" height="3"/>
		<rect x="10.5" y="12.5" class="st2" width="13" height="3"/>
		<rect x="10.5" y="20.5" class="st2" width="13" height="3"/>
		<line class="st2" x1="17.5" y1="15.5" x2="17.5" y2="20.5"/>
		<path class="st2" d="M7.5,3.5V8c0,0.8,0.7,1.5,1.5,1.5h7c0.8,0,1.5,0.7,1.5,1.5v1.5"/>
	</g>
</g>
</svg>
