<?xml version="1.0" encoding="utf-8"?>
<!-- Generator: Adobe Illustrator 19.2.0, SVG Export Plug-In . SVG Version: 6.00 Build 0)  -->
<svg version="1.1" id="Layer_1" xmlns="http://www.w3.org/2000/svg" xmlns:xlink="http://www.w3.org/1999/xlink" x="0px" y="0px"
	 viewBox="0 0 24 24" style="enable-background:new 0 0 24 24;" xml:space="preserve">
<style type="text/css">
	.st0{display:none;}
	.st1{display:inline;}
	.st2{fill:none;stroke:#000000;stroke-linejoin:round;stroke-miterlimit:10;}
</style>
<g id="Filled_Icon" class="st0">
	<path class="st1" d="M21,0v6h-5V4.5C16,4.2,15.8,4,15.5,4h-13C2.2,4,2,4.2,2,4.5v4C2,8.8,2.2,9,2.5,9h13C15.8,9,16,8.8,16,8.5V7h5
		v6h-5v-1.5c0-0.3-0.2-0.5-0.5-0.5h-13C2.2,11,2,11.2,2,11.5v4C2,15.8,2.2,16,2.5,16h13c0.3,0,0.5-0.2,0.5-0.5V14h5v6h-5v-1.5
		c0-0.3-0.2-0.5-0.5-0.5h-13C2.2,18,2,18.2,2,18.5v4C2,22.8,2.2,23,2.5,23h13c0.3,0,0.5-0.2,0.5-0.5V21h5.5c0.3,0,0.5-0.2,0.5-0.5V0
		H21z"/>
</g>
<g id="Outline_Icons">
	<g>
		<rect x="2.5" y="4.5" class="st2" width="13" height="4"/>
		<rect x="2.5" y="11.5" class="st2" width="13" height="4"/>
		<rect x="2.5" y="18.5" class="st2" width="13" height="4"/>
		<polyline class="st2" points="21.5,0 21.5,20.5 15.5,20.5 		"/>
		<line class="st2" x1="15.5" y1="6.5" x2="21.5" y2="6.5"/>
		<line class="st2" x1="15.5" y1="13.5" x2="21.5" y2="13.5"/>
	</g>
</g>
</svg>
