<?xml version="1.0" encoding="utf-8"?>
<!-- Generator: Adobe Illustrator 19.2.0, SVG Export Plug-In . SVG Version: 6.00 Build 0)  -->
<svg version="1.1" id="Layer_1" xmlns="http://www.w3.org/2000/svg" xmlns:xlink="http://www.w3.org/1999/xlink" x="0px" y="0px"
	 viewBox="0 0 24 24" style="enable-background:new 0 0 24 24;" xml:space="preserve">
<style type="text/css">
	.st0{display:none;}
	.st1{display:inline;}
	.st2{fill:none;stroke:#000000;stroke-linecap:round;stroke-linejoin:round;stroke-miterlimit:10;}
	.st3{fill:none;stroke:#000000;stroke-linejoin:round;stroke-miterlimit:10;}
</style>
<g id="Filled_Icon" class="st0">
	<g class="st1">
		<rect x="14.1" y="16.2" transform="matrix(0.707 -0.7073 0.7073 0.707 -7.9551 17.7978)" width="6.8" height="4.5"/>
		<path d="M12.9,20.1L12,23.4c0,0.2,0,0.4,0.1,0.5c0.1,0.1,0.2,0.1,0.4,0.1c0,0,0.1,0,0.1,0l3.2-0.9L12.9,20.1z"/>
		<path d="M23.9,14.6l-2.5-2.5c-0.2-0.2-0.5-0.2-0.7,0L19,13.8l3.2,3.2l1.6-1.6C24,15.2,24,14.8,23.9,14.6z"/>
	</g>
	<path class="st1" d="M17.9,6.1l-6-6C11.8,0.1,11.6,0,11.5,0h-11C0.2,0,0,0.2,0,0.5v23C0,23.8,0.2,24,0.5,24h10.6
		c-0.1-0.3-0.1-0.6,0-0.9l1-3.5c0.1-0.2,0.2-0.5,0.4-0.6l5.6-5.6V6.5C18,6.4,17.9,6.2,17.9,6.1z M3,12.5C3,12.2,3.2,12,3.5,12h5
		C8.8,12,9,12.2,9,12.5v3C9,15.8,8.8,16,8.5,16h-5C3.2,16,3,15.8,3,15.5V12.5z M14,14h-2v4.5c0,0.3-0.2,0.5-0.5,0.5H9v1.5
		C9,20.8,8.8,21,8.5,21h-5C3.2,21,3,20.8,3,20.5v-3C3,17.2,3.2,17,3.5,17h5C8.8,17,9,17.2,9,17.5V18h2V9H9v1.5C9,10.8,8.8,11,8.5,11
		h-5C3.2,11,3,10.8,3,10.5v-3C3,7.2,3.2,7,3.5,7h5C8.8,7,9,7.2,9,7.5V8h2.5C11.8,8,12,8.2,12,8.5V13h2c0.3,0,0.5,0.2,0.5,0.5
		C14.5,13.8,14.3,14,14,14z M15,7h-1.1h-2.4C11.2,7,11,6.8,11,6.5V5.3V3.5V0.8L17.2,7H15z"/>
</g>
<g id="Outline_Icons">
	<g>
		<polygon class="st2" points="16,22.5 12.5,23.5 13.5,20 21,12.5 23.5,15 		"/>
		<line class="st3" x1="19" y1="14.5" x2="21.5" y2="17"/>
		<line class="st2" x1="13.5" y1="20" x2="16" y2="22.5"/>
		<rect x="3.5" y="7.5" class="st2" width="5" height="3"/>
		<rect x="3.5" y="12.5" class="st2" width="5" height="3"/>
		<rect x="3.5" y="17.5" class="st2" width="5" height="3"/>
		<polyline class="st2" points="10,23.5 0.5,23.5 0.5,0.5 11.5,0.5 17.5,6.5 17.5,13 		"/>
		<polyline class="st2" points="11.5,0.5 11.5,6.5 17.5,6.5 		"/>
		<polyline class="st2" points="8.5,8.5 11.5,8.5 11.5,18.5 8.5,18.5 		"/>
		<line class="st2" x1="11.5" y1="13.5" x2="14" y2="13.5"/>
	</g>
</g>
</svg>
