<?xml version="1.0" encoding="utf-8"?>
<!-- Generator: Adobe Illustrator 19.2.0, SVG Export Plug-In . SVG Version: 6.00 Build 0)  -->
<svg version="1.1" id="Layer_1" xmlns="http://www.w3.org/2000/svg" xmlns:xlink="http://www.w3.org/1999/xlink" x="0px" y="0px"
	 viewBox="0 0 24 24" style="enable-background:new 0 0 24 24;" xml:space="preserve">
<style type="text/css">
	.st0{display:none;}
	.st1{display:inline;}
	.st2{fill:none;stroke:#000000;stroke-linecap:round;stroke-linejoin:round;stroke-miterlimit:10;}
</style>
<g id="Filled_Icons" class="st0">
	<path class="st1" d="M23.5,11H14v-1c0-1.1-0.9-2-2-2H9C8.4,8,8,7.6,8,7V4h5.5C13.8,4,14,3.8,14,3.5v-3C14,0.2,13.8,0,13.5,0h-13
		C0.2,0,0,0.2,0,0.5v3C0,3.8,0.2,4,0.5,4H7v3c0,1.1,0.9,2,2,2h3c0.6,0,1,0.4,1,1v1h-2.5c-0.3,0-0.5,0.2-0.5,0.5v3
		c0,0.3,0.2,0.5,0.5,0.5H18v5c0,0.6-0.4,1-1,1h-3v-0.5c0-0.3-0.2-0.5-0.5-0.5h-13C0.2,20,0,20.2,0,20.5v3C0,23.8,0.2,24,0.5,24h13
		c0.3,0,0.5-0.2,0.5-0.5V22h3c1.1,0,2-0.9,2-2v-5h4.5c0.3,0,0.5-0.2,0.5-0.5v-3C24,11.2,23.8,11,23.5,11z"/>
</g>
<g id="Outline_Icons">
	<g>
		<rect x="0.5" y="0.5" class="st2" width="13" height="3"/>
		<rect x="10.5" y="11.5" class="st2" width="13" height="3"/>
		<rect x="0.5" y="20.5" class="st2" width="13" height="3"/>
		<path class="st2" d="M7.5,3.5V7c0,0.8,0.7,1.5,1.5,1.5h3c0.8,0,1.5,0.7,1.5,1.5v1.5"/>
		<path class="st2" d="M18.5,14.5V20c0,0.8-0.7,1.5-1.5,1.5h-3.5"/>
	</g>
</g>
</svg>
