<?xml version="1.0" encoding="utf-8"?>
<!-- Generator: Adobe Illustrator 19.2.0, SVG Export Plug-In . SVG Version: 6.00 Build 0)  -->
<svg version="1.1" id="Layer_1" xmlns="http://www.w3.org/2000/svg" xmlns:xlink="http://www.w3.org/1999/xlink" x="0px" y="0px"
	 viewBox="0 0 24 24" style="enable-background:new 0 0 24 24;" xml:space="preserve">
<style type="text/css">
	.st0{display:none;}
	.st1{display:inline;}
	.st2{fill:none;stroke:#000000;stroke-linecap:round;stroke-linejoin:round;stroke-miterlimit:10;}
</style>
<g id="Filled_Icon" class="st0">
	<g class="st1">
		<g>
			<path d="M14.7,14.5c2-1,3.4-3.1,3.4-5.4c0-3.3-2.7-6.1-6.1-6.1C8.8,3,6,5.7,6,9.1c0,2.4,1.4,4.5,3.4,5.4c-3.9,1.1-6.7,4.7-6.7,9
				c0,0.3,0.2,0.5,0.5,0.5H21c0,0,0,0,0,0c0.3,0,0.5-0.2,0.5-0.5C21.5,19.5,18.8,15.7,14.7,14.5z"/>
		</g>
		<g>
			<path d="M4,16H1c-0.6,0-1-0.4-1-1v-3c0-0.6,0.4-1,1-1c0.6,0,1,0.4,1,1v2h2c0.6,0,1,0.4,1,1C5,15.6,4.5,16,4,16z"/>
		</g>
		<g>
			<path d="M1,5C0.4,5,0,4.5,0,4V1c0-0.6,0.4-1,1-1h3c0.6,0,1,0.4,1,1c0,0.6-0.4,1-1,1H2v2C2,4.5,1.6,5,1,5z"/>
		</g>
		<g>
			<path d="M23,5c-0.6,0-1-0.4-1-1V2h-2c-0.6,0-1-0.4-1-1c0-0.6,0.4-1,1-1h3c0.6,0,1,0.4,1,1v3C24,4.5,23.6,5,23,5z"/>
		</g>
		<g>
			<path d="M23,16h-3c-0.6,0-1-0.4-1-1c0-0.6,0.4-1,1-1h2v-2c0-0.6,0.4-1,1-1c0.6,0,1,0.4,1,1v3C24,15.6,23.6,16,23,16z"/>
		</g>
	</g>
</g>
<g id="Outline_Icons">
	<g>
		<path class="st2" d="M17.6,9.1c0,3.1-2.5,5.6-5.6,5.6c-3.1,0-5.6-2.5-5.6-5.6C6.5,6,9,3.5,12.1,3.5C15.2,3.5,17.6,6,17.6,9.1z"/>
		<path class="st2" d="M21,23.5H3.2c0-4.9,4-8.9,8.9-8.9C17,14.6,21,18.6,21,23.5z"/>
		<polyline class="st2" points="0.5,12.5 0.5,15.5 3.5,15.5 		"/>
		<polyline class="st2" points="3.5,1.5 0.5,1.5 0.5,4.5 		"/>
		<polyline class="st2" points="23.5,4.5 23.5,1.5 20.5,1.5 		"/>
		<polyline class="st2" points="20.5,15.5 23.5,15.5 23.5,12.5 		"/>
	</g>
</g>
</svg>
