<?xml version="1.0" encoding="utf-8"?>
<!-- Generator: Adobe Illustrator 19.2.0, SVG Export Plug-In . SVG Version: 6.00 Build 0)  -->
<svg version="1.1" id="Layer_1" xmlns="http://www.w3.org/2000/svg" xmlns:xlink="http://www.w3.org/1999/xlink" x="0px" y="0px"
	 viewBox="0 0 24 24" style="enable-background:new 0 0 24 24;" xml:space="preserve">
<style type="text/css">
	.st0{display:none;}
	.st1{display:inline;}
	.st2{fill:none;stroke:#000000;stroke-linecap:round;stroke-linejoin:round;stroke-miterlimit:10;}
</style>
<g id="Filled_Icons" class="st0">
	<g class="st1">
		<path d="M23,0h-6.5c-0.6,0-1,0.4-1,1c0,0.6,0.4,1,1,1H22v3.5c0,0.6,0.4,1,1,1c0.6,0,1-0.4,1-1V1C24,0.4,23.6,0,23,0z"/>
		<path d="M1,6.5c0.6,0,1-0.4,1-1V2h5.5c0.6,0,1-0.4,1-1c0-0.6-0.4-1-1-1H1C0.4,0,0,0.4,0,1v4.5C0,6.1,0.4,6.5,1,6.5z"/>
		<path d="M23,17c-0.6,0-1,0.4-1,1v4h-6c-0.6,0-1,0.4-1,1c0,0.6,0.4,1,1,1h7c0.6,0,1-0.4,1-1v-5C24,17.4,23.6,17,23,17z"/>
		<path d="M8,22H2v-4c0-0.6-0.4-1-1-1c-0.6,0-1,0.4-1,1v5c0,0.6,0.4,1,1,1h7c0.6,0,1-0.4,1-1C9,22.4,8.6,22,8,22z"/>
		<path d="M5,8.5v7C5,15.8,5.2,16,5.5,16h13c0.3,0,0.5-0.2,0.5-0.5v-7C19,8.2,18.8,8,18.5,8h-13C5.2,8,5,8.2,5,8.5z"/>
	</g>
</g>
<g id="Outline_Icons">
	<g>
		<polyline class="st2" points="16.5,0.5 23.5,0.5 23.5,5.5 		"/>
		<polyline class="st2" points="7.5,0.5 0.5,0.5 0.5,5.5 		"/>
		<polyline class="st2" points="16.5,23.5 23.5,23.5 23.5,18.5 		"/>
		<polyline class="st2" points="7.5,23.5 0.5,23.5 0.5,18.5 		"/>
		<rect x="5.5" y="8.5" class="st2" width="13" height="7"/>
	</g>
</g>
</svg>
