<?xml version="1.0" encoding="utf-8"?>
<!-- Generator: Adobe Illustrator 19.2.0, SVG Export Plug-In . SVG Version: 6.00 Build 0)  -->
<svg version="1.1" id="Layer_1" xmlns="http://www.w3.org/2000/svg" xmlns:xlink="http://www.w3.org/1999/xlink" x="0px" y="0px"
	 viewBox="0 0 24 24" style="enable-background:new 0 0 24 24;" xml:space="preserve">
<style type="text/css">
	.st0{display:none;}
	.st1{display:inline;}
	.st2{fill:none;stroke:#000000;stroke-linecap:round;stroke-linejoin:round;stroke-miterlimit:10;}
</style>
<g id="Filled_Icon" class="st0">
	<path class="st1" d="M21.5,1h-19C1.1,1,0,2.1,0,3.5v17C0,21.9,1.1,23,2.5,23h19c1.4,0,2.5-1.1,2.5-2.5v-17C24,2.1,22.9,1,21.5,1z
		 M6.8,17.6c0.2,0.2,0.2,0.5,0.1,0.7c-0.1,0.1-0.2,0.2-0.4,0.2c-0.1,0-0.2,0-0.3-0.1C4.2,16.8,3,14.3,3,12c0-2.3,1.2-4.8,3.2-6.4
		c0.2-0.2,0.5-0.1,0.7,0.1C7.1,5.9,7,6.2,6.8,6.4C5.1,7.8,4,10,4,12C4,14,5.1,16.2,6.8,17.6z M12,15.5c-1.9,0-3.5-1.6-3.5-3.5
		c0-1.9,1.6-3.5,3.5-3.5c1.9,0,3.5,1.6,3.5,3.5C15.5,13.9,13.9,15.5,12,15.5z M17.8,18.4c-0.1,0.1-0.2,0.1-0.3,0.1
		c-0.1,0-0.3-0.1-0.4-0.2c-0.2-0.2-0.1-0.5,0.1-0.7C18.9,16.2,20,14,20,12c0-2-1.1-4.2-2.8-5.6c-0.2-0.2-0.2-0.5-0.1-0.7
		c0.2-0.2,0.5-0.2,0.7-0.1C19.8,7.2,21,9.7,21,12C21,14.3,19.8,16.8,17.8,18.4z"/>
</g>
<g id="Outline_Icons">
	<g>
		<path class="st2" d="M17.5,6c1.7,1.4,3,3.7,3,6c0,2.3-1.3,4.6-3,6"/>
		<path class="st2" d="M6.5,6c-1.7,1.4-3,3.7-3,6c0,2.3,1.3,4.6,3,6"/>
		<circle class="st2" cx="12" cy="12" r="3"/>
		<path class="st2" d="M0.5,3.5c0-1.1,0.9-2,2-2h19c1.1,0,2,0.9,2,2v17c0,1.1-0.9,2-2,2h-19c-1.1,0-2-0.9-2-2V3.5z"/>
	</g>
</g>
</svg>
