<?xml version="1.0" encoding="utf-8"?>
<!-- Generator: Adobe Illustrator 19.2.0, SVG Export Plug-In . SVG Version: 6.00 Build 0)  -->
<svg version="1.1" id="Layer_1" xmlns="http://www.w3.org/2000/svg" xmlns:xlink="http://www.w3.org/1999/xlink" x="0px" y="0px"
	 viewBox="0 0 24 24" style="enable-background:new 0 0 24 24;" xml:space="preserve">
<style type="text/css">
	.st0{display:none;}
	.st1{display:inline;}
	.st2{fill:none;stroke:#000000;stroke-linecap:round;stroke-linejoin:round;stroke-miterlimit:10;}
</style>
<g id="Filled_Icons" class="st0">
	<g class="st1">
		<path d="M23,4h-6.5c-0.6,0-1,0.4-1,1c0,0.6,0.4,1,1,1H22v3.5c0,0.6,0.4,1,1,1c0.6,0,1-0.4,1-1V5C24,4.4,23.6,4,23,4z"/>
		<path d="M1,10.5c0.6,0,1-0.4,1-1V6h5.5c0.6,0,1-0.4,1-1c0-0.6-0.4-1-1-1H1C0.4,4,0,4.4,0,5v4.5C0,10.1,0.4,10.5,1,10.5z"/>
		<path d="M23,13.5c-0.6,0-1,0.4-1,1V18h-5.5c-0.6,0-1,0.4-1,1c0,0.6,0.4,1,1,1H23c0.6,0,1-0.4,1-1v-4.5C24,13.9,23.6,13.5,23,13.5z
			"/>
		<path d="M7.5,18H2v-3.5c0-0.6-0.4-1-1-1c-0.6,0-1,0.4-1,1V19c0,0.6,0.4,1,1,1h6.5c0.6,0,1-0.4,1-1C8.5,18.4,8.1,18,7.5,18z"/>
		<path d="M3,8.5v7C3,15.8,3.2,16,3.5,16h17c0.3,0,0.5-0.2,0.5-0.5v-7C21,8.2,20.8,8,20.5,8h-17C3.2,8,3,8.2,3,8.5z"/>
	</g>
</g>
<g id="Outline_Icons">
	<g>
		<polyline class="st2" points="16.5,4.5 23.5,4.5 23.5,8.5 		"/>
		<polyline class="st2" points="7.5,4.5 0.5,4.5 0.5,8.5 		"/>
		<polyline class="st2" points="16.5,17.5 23.5,17.5 23.5,13.5 		"/>
		<polyline class="st2" points="7.5,17.5 0.5,17.5 0.5,13.5 		"/>
		<rect x="3.5" y="7.5" class="st2" width="17" height="7"/>
	</g>
</g>
</svg>
