<?xml version="1.0" encoding="utf-8"?>
<!-- Generator: Adobe Illustrator 19.2.0, SVG Export Plug-In . SVG Version: 6.00 Build 0)  -->
<svg version="1.1" id="Layer_1" xmlns="http://www.w3.org/2000/svg" xmlns:xlink="http://www.w3.org/1999/xlink" x="0px" y="0px"
	 viewBox="0 0 24 24" style="enable-background:new 0 0 24 24;" xml:space="preserve">
<style type="text/css">
	.st0{display:none;}
	.st1{display:inline;}
	.st2{fill:none;stroke:#000000;stroke-linecap:round;stroke-linejoin:round;stroke-miterlimit:10;}
</style>
<g id="Filled_Icon" class="st0">
	<path class="st1" d="M23.5,2h-23C0.2,2,0,2.2,0,2.5v19C0,21.8,0.2,22,0.5,22h23c0.3,0,0.5-0.2,0.5-0.5v-19C24,2.2,23.8,2,23.5,2z
		 M4.5,21h-3C1.2,21,1,20.8,1,20.5v-3C1,17.3,1.2,17,1.5,17C1.8,17,2,17.3,2,17.5V20h2.5C4.7,20,5,20.2,5,20.5C5,20.8,4.7,21,4.5,21
		z M4.5,4H2v2.5C2,6.7,1.8,7,1.5,7C1.2,7,1,6.7,1,6.5v-3C1,3.2,1.2,3,1.5,3h3C4.7,3,5,3.2,5,3.5C5,3.8,4.7,4,4.5,4z M17,18
		c0,0.3-0.2,0.5-0.5,0.5c-0.3,0-0.5-0.2-0.5-0.5V8.9l-3.5,7.8c-0.2,0.4-0.7,0.4-0.9,0L8,8.9V18c0,0.3-0.2,0.5-0.5,0.5
		C7.2,18.5,7,18.3,7,18V6.6c0-0.2,0.2-0.4,0.4-0.5C7.6,6,7.9,6.1,8,6.4l4,8.9l4-8.9c0.1-0.2,0.3-0.3,0.6-0.3C16.8,6.1,17,6.3,17,6.6
		V18z M23,20.5c0,0.3-0.2,0.5-0.5,0.5h-3c-0.3,0-0.5-0.2-0.5-0.5c0-0.3,0.2-0.5,0.5-0.5H22v-2.5c0-0.3,0.2-0.5,0.5-0.5
		c0.3,0,0.5,0.2,0.5,0.5V20.5z M23,6.5C23,6.7,22.8,7,22.5,7C22.2,7,22,6.7,22,6.5V4h-2.5C19.3,4,19,3.8,19,3.5
		C19,3.2,19.3,3,19.5,3h3C22.8,3,23,3.2,23,3.5V6.5z"/>
</g>
<g id="Outline_Icons">
	<g>
		<polyline class="st2" points="0.5,18.5 0.5,21.5 3.5,21.5 		"/>
		<polyline class="st2" points="3.5,2.5 0.5,2.5 0.5,5.5 		"/>
		<polyline class="st2" points="23.5,5.5 23.5,2.5 20.5,2.5 		"/>
		<polyline class="st2" points="20.5,21.5 23.5,21.5 23.5,18.5 		"/>
		<polyline class="st2" points="7.5,18 7.5,6.6 12,16.5 16.5,6.6 16.5,18 		"/>
	</g>
</g>
</svg>
