<?xml version="1.0" encoding="utf-8"?>
<!-- Generator: Adobe Illustrator 19.2.0, SVG Export Plug-In . SVG Version: 6.00 Build 0)  -->
<svg version="1.1" id="Layer_1" xmlns="http://www.w3.org/2000/svg" xmlns:xlink="http://www.w3.org/1999/xlink" x="0px" y="0px"
	 viewBox="0 0 24 24" enable-background="new 0 0 24 24" xml:space="preserve">
<g id="Filled_Icons" display="none">
	<g display="inline">
		<path d="M23.5,14H23h-1v-1.5c0-0.276-0.225-0.5-0.5-0.5h-9c-0.276,0-0.5-0.224-0.5-0.5V11h-0.5h-4H7v0.5V22c0,1.104,0.897,2,2,2
			h11.5c0.152,0,0.303-0.014,0.451-0.033c0.367-0.047,0.717-0.152,1.04-0.306C23.176,23.1,24,21.897,24,20.5v-6
			C24,14.225,23.775,14,23.5,14z M21,14H10.5c-0.276,0-0.5,0.225-0.5,0.5V22c0,0.551-0.449,1-1,1c-0.551,0-1-0.449-1-1V12h3v0.5
			c0,0.275,0.224,0.5,0.5,0.5H21V14z"/>
		<path d="M18.146,2.854l2,2C20.244,4.951,20.372,5,20.5,5c0.128,0,0.256-0.049,0.353-0.146c0.195-0.195,0.195-0.512,0-0.707
			L19.707,3H21c0.551,0,1,0.448,1,1v4.5C22,8.776,22.225,9,22.5,9C22.775,9,23,8.776,23,8.5V4c0-1.104-0.897-2-2-2h-1.293
			l1.146-1.146c0.194-0.195,0.194-0.512,0-0.707c-0.195-0.195-0.513-0.195-0.707,0l-2,1.999C18.1,2.193,18.062,2.248,18.038,2.31
			c-0.052,0.122-0.052,0.259,0,0.381C18.064,2.752,18.102,2.808,18.146,2.854z"/>
		<path d="M5.853,21.147l-2-2c-0.195-0.194-0.512-0.194-0.707,0c-0.195,0.195-0.195,0.513,0,0.707L4.293,21H3c-0.551,0-1-0.449-1-1
			v-3.5C2,16.225,1.776,16,1.5,16C1.224,16,1,16.225,1,16.5V20c0,1.104,0.897,2,2,2h1.293l-1.146,1.147
			c-0.195,0.194-0.195,0.512,0,0.707C3.244,23.951,3.372,24,3.5,24c0.128,0,0.256-0.049,0.354-0.146l2-2
			c0.046-0.045,0.083-0.102,0.108-0.162C5.987,21.63,6,21.565,6,21.5c0-0.064-0.013-0.13-0.039-0.191
			C5.936,21.248,5.899,21.191,5.853,21.147z"/>
		<path d="M13,10.5V11h3.834C16.941,10.692,17,10.358,17,10V4.5C17,4.224,16.775,4,16.5,4H15V2.5C15,2.224,14.775,2,14.5,2H6V0.5
			C6,0.224,5.776,0,5.5,0h-5C0.224,0,0,0.224,0,0.5V11c0,1.103,0.897,2,2,2h4v-2.5C6,10.224,6.224,10,6.5,10h6
			C12.775,10,13,10.224,13,10.5z M3.5,4C3.224,4,3,4.224,3,4.5V11c0,0.551-0.449,1-1,1c-0.551,0-1-0.449-1-1V1h4v1.5
			C5,2.776,5.224,3,5.5,3H14v1H3.5z"/>
	</g>
</g>
<g id="Outline_Icons">
	<g>
		<path fill="none" stroke="#000000" stroke-linecap="round" stroke-linejoin="round" stroke-miterlimit="10" d="M22.5,8.5V4
			c0-0.828-0.672-1.5-1.5-1.5h-2.5"/>
		<polyline fill="none" stroke="#000000" stroke-linecap="round" stroke-linejoin="round" stroke-miterlimit="10" points="20.5,0.5 
			18.5,2.5 20.5,4.5 		"/>
		<path fill="none" stroke="#000000" stroke-linecap="round" stroke-linejoin="round" stroke-miterlimit="10" d="M9,23.5h11.5
			c1.656,0,3-1.344,3-3v-6h-13V22C10.5,22.828,9.828,23.5,9,23.5c-0.83,0-1.5-0.672-1.5-1.5V11.5h4v1h10v2"/>
		<path fill="none" stroke="#000000" stroke-linecap="round" stroke-linejoin="round" stroke-miterlimit="10" d="M1.5,16.5V20
			c0,0.828,0.67,1.5,1.5,1.5h2.5"/>
		<polyline fill="none" stroke="#000000" stroke-linecap="round" stroke-linejoin="round" stroke-miterlimit="10" points="3.5,23.5 
			5.5,21.5 3.5,19.5 		"/>
		
			<line fill="none" stroke="#000000" stroke-linecap="round" stroke-linejoin="round" stroke-miterlimit="10" x1="7.5" y1="12.5" x2="2" y2="12.5"/>
		<path fill="none" stroke="#000000" stroke-linecap="round" stroke-linejoin="round" stroke-miterlimit="10" d="M14.5,4.5v-2h-9v-2
			h-5V11c0,0.828,0.67,1.5,1.5,1.5c0.828,0,1.5-0.672,1.5-1.5V4.5h13V10c0,1.656-1.344,2.5-3,2.5h-2"/>
	</g>
</g>
</svg>
