<?xml version="1.0" encoding="utf-8"?>
<!-- Generator: Adobe Illustrator 19.2.0, SVG Export Plug-In . SVG Version: 6.00 Build 0)  -->
<svg version="1.1" id="Layer_1" xmlns="http://www.w3.org/2000/svg" xmlns:xlink="http://www.w3.org/1999/xlink" x="0px" y="0px"
	 viewBox="0 0 24 24" enable-background="new 0 0 24 24" xml:space="preserve">
<g id="Filled_Icons" display="none">
	<g display="inline">
		<path d="M21.5,4h-6.293l-0.854-0.854C14.26,3.053,14.133,3,14,3h-2.5C11.224,3,11,3.224,11,3.5v8c0,0.276,0.224,0.5,0.5,0.5h10
			c0.275,0,0.5-0.224,0.5-0.5v-7C22,4.224,21.775,4,21.5,4z"/>
		<path d="M21.5,15h-6.293l-0.854-0.853C14.26,14.053,14.133,14,14,14h-2.5c-0.276,0-0.5,0.225-0.5,0.5v8c0,0.275,0.224,0.5,0.5,0.5
			h10c0.275,0,0.5-0.225,0.5-0.5v-7C22,15.225,21.775,15,21.5,15z"/>
		<circle cx="3" cy="1" r="1"/>
		<circle cx="3" cy="4" r="1"/>
		<circle cx="3" cy="7" r="1"/>
		<circle cx="6" cy="7" r="1"/>
		<circle cx="9" cy="7" r="1"/>
		<circle cx="6" cy="19" r="1"/>
		<circle cx="9" cy="19" r="1"/>
		<circle cx="3" cy="10" r="1"/>
		<circle cx="3" cy="13" r="1"/>
		<circle cx="3" cy="16" r="1"/>
		<circle cx="3" cy="19" r="1"/>
	</g>
</g>
<g id="Outline_Icons">
	<g>
		<g>
			<polygon fill="none" stroke="#000000" stroke-linecap="round" stroke-linejoin="round" stroke-miterlimit="10" points="15,4.5 
				14,3.5 11.5,3.5 11.5,11.5 21.5,11.5 21.5,4.5 			"/>
		</g>
		<g>
			<polygon fill="none" stroke="#000000" stroke-linecap="round" stroke-linejoin="round" stroke-miterlimit="10" points="15,15.5 
				14,14.5 11.5,14.5 11.5,22.5 21.5,22.5 21.5,15.5 			"/>
		</g>
		
			<circle fill="none" stroke="#000000" stroke-linecap="round" stroke-linejoin="round" stroke-miterlimit="10" cx="3" cy="1" r="0.5"/>
		
			<circle fill="none" stroke="#000000" stroke-linecap="round" stroke-linejoin="round" stroke-miterlimit="10" cx="3" cy="4" r="0.5"/>
		
			<circle fill="none" stroke="#000000" stroke-linecap="round" stroke-linejoin="round" stroke-miterlimit="10" cx="3" cy="7" r="0.5"/>
		
			<circle fill="none" stroke="#000000" stroke-linecap="round" stroke-linejoin="round" stroke-miterlimit="10" cx="6" cy="7" r="0.5"/>
		
			<circle fill="none" stroke="#000000" stroke-linecap="round" stroke-linejoin="round" stroke-miterlimit="10" cx="9" cy="7" r="0.5"/>
		
			<circle fill="none" stroke="#000000" stroke-linecap="round" stroke-linejoin="round" stroke-miterlimit="10" cx="6" cy="19" r="0.5"/>
		
			<circle fill="none" stroke="#000000" stroke-linecap="round" stroke-linejoin="round" stroke-miterlimit="10" cx="9" cy="19" r="0.5"/>
		
			<circle fill="none" stroke="#000000" stroke-linecap="round" stroke-linejoin="round" stroke-miterlimit="10" cx="3" cy="10" r="0.5"/>
		
			<circle fill="none" stroke="#000000" stroke-linecap="round" stroke-linejoin="round" stroke-miterlimit="10" cx="3" cy="13" r="0.5"/>
		
			<circle fill="none" stroke="#000000" stroke-linecap="round" stroke-linejoin="round" stroke-miterlimit="10" cx="3" cy="16" r="0.5"/>
		
			<circle fill="none" stroke="#000000" stroke-linecap="round" stroke-linejoin="round" stroke-miterlimit="10" cx="3" cy="19" r="0.5"/>
	</g>
</g>
</svg>
