<?xml version="1.0" encoding="utf-8"?>
<!-- Generator: Adobe Illustrator 19.2.0, SVG Export Plug-In . SVG Version: 6.00 Build 0)  -->
<svg version="1.1" id="Layer_1" xmlns="http://www.w3.org/2000/svg" xmlns:xlink="http://www.w3.org/1999/xlink" x="0px" y="0px"
	 viewBox="0 0 24 24" enable-background="new 0 0 24 24" xml:space="preserve">
<g id="Filled_Icons" display="none">
	<g display="inline">
		<path d="M17.053,9.04c0.17-0.339,0.725-0.339,0.895,0L21,15.147V4.5C21,4.224,20.775,4,20.5,4H19V2.5C19,2.224,18.775,2,18.5,2H6
			V0.5C6,0.224,5.776,0,5.5,0h-5C0.224,0,0,0.224,0,0.5V16c0,1.104,0.897,2,2,2h10.572L17.053,9.04z M3,4.5V16c0,0.551-0.449,1-1,1
			c-0.551,0-1-0.449-1-1V1h4v1.5C5,2.776,5.224,3,5.5,3H18v1H3.5C3.224,4,3,4.224,3,4.5z"/>
		<path d="M23.984,23.354L17.5,10.382l-6.448,12.896c-0.077,0.154-0.068,0.339,0.022,0.486C11.166,23.911,11.327,24,11.5,24h12
			c0.003-0.001,0.006-0.001,0.01,0c0.276,0,0.5-0.225,0.5-0.5C24.01,23.447,24,23.398,23.984,23.354z M17,16.409
			c0-0.276,0.225-0.5,0.5-0.5c0.275,0,0.5,0.224,0.5,0.5v3.272c0,0.275-0.225,0.5-0.5,0.5c-0.275,0-0.5-0.225-0.5-0.5V16.409z
			 M17.5,21.863c-0.301,0-0.545-0.244-0.545-0.545c0-0.301,0.244-0.547,0.545-0.547c0.301,0,0.545,0.246,0.545,0.547
			C18.045,21.619,17.801,21.863,17.5,21.863z"/>
	</g>
</g>
<g id="Outline_Icons">
	<g>
		<g>
			<path fill="none" stroke="#000000" stroke-linecap="round" stroke-linejoin="round" stroke-miterlimit="10" d="M18.5,4.5v-2h-13
				v-2h-5V16c0,0.828,0.67,1.5,1.5,1.5c0.828,0,1.5-0.672,1.5-1.5V4.5h17v5"/>
			
				<line fill="none" stroke="#000000" stroke-linecap="round" stroke-linejoin="round" stroke-miterlimit="10" x1="2" y1="17.5" x2="9.5" y2="17.5"/>
		</g>
		<polygon fill="none" stroke="#000000" stroke-linecap="round" stroke-linejoin="round" stroke-miterlimit="10" points="23.5,23.5 
			11.5,23.5 17.5,11.5 		"/>
		
			<line fill="none" stroke="#000000" stroke-linecap="round" stroke-linejoin="round" stroke-miterlimit="10" x1="17.5" y1="16.409" x2="17.5" y2="19.682"/>
		<g>
			<g>
				<path d="M17.5,20.772c-0.303,0-0.545,0.246-0.545,0.547c0,0.302,0.244,0.545,0.545,0.545c0.301,0,0.545-0.243,0.545-0.545
					C18.045,21.018,17.801,20.772,17.5,20.772L17.5,20.772z"/>
			</g>
		</g>
	</g>
</g>
</svg>
