<?xml version="1.0" encoding="utf-8"?>
<!-- Generator: Adobe Illustrator 19.2.0, SVG Export Plug-In . SVG Version: 6.00 Build 0)  -->
<svg version="1.1" id="Layer_1" xmlns="http://www.w3.org/2000/svg" xmlns:xlink="http://www.w3.org/1999/xlink" x="0px" y="0px"
	 viewBox="0 0 24 24" enable-background="new 0 0 24 24" xml:space="preserve">
<g id="Filled_Icons" display="none">
	<g display="inline">
		<path d="M21.884,6.18l-5-6C16.789,0.066,16.648,0,16.5,0h-11C5.224,0,5,0.224,5,0.5V10h1.5c0.398,0,0.779,0.159,1.061,0.44
			L9.121,12h1.04l2-2H8.5C8.224,10,8,9.776,8,9.5C8,9.224,8.224,9,8.5,9h10C18.775,9,19,9.224,19,9.5c0,0.276-0.225,0.5-0.5,0.5
			h-3.109l1.945,1.946c0.016,0.016,0.021,0.037,0.036,0.054H17.5c0.829,0,1.5,0.671,1.5,1.5V22h2.5c0.275,0,0.5-0.225,0.5-0.5v-15
			C22,6.383,21.959,6.27,21.884,6.18z M14.5,7h-6C8.224,7,8,6.776,8,6.5C8,6.224,8.224,6,8.5,6h6C14.775,6,15,6.224,15,6.5
			C15,6.776,14.775,7,14.5,7z M14.5,4h-6C8.224,4,8,3.776,8,3.5C8,3.224,8.224,3,8.5,3h6C14.775,3,15,3.224,15,3.5
			C15,3.776,14.775,4,14.5,4z M17,6.5c-0.275,0-0.5-0.224-0.5-0.5V1.148L21.087,6.5H17z"/>
		<path d="M17.762,13.083c-0.02,0.357-0.152,0.711-0.426,0.983l-7.501,7.502c-0.126,0.125-0.279,0.218-0.44,0.291
			c-0.038,0.018-0.073,0.035-0.112,0.049C9.25,21.921,9.221,21.94,9.187,21.95l-3.5,1c-0.136,0.038-0.274,0.058-0.412,0.058
			c-0.392,0-0.775-0.154-1.061-0.439c-0.385-0.385-0.531-0.948-0.382-1.473l1-3.5c0.01-0.033,0.029-0.062,0.041-0.096
			c0.015-0.039,0.031-0.075,0.049-0.111c0.074-0.162,0.166-0.314,0.292-0.44L9.161,13H8.707l-1.854-1.854
			C6.76,11.053,6.633,11,6.5,11h-6C0.224,11,0,11.224,0,11.5v12C0,23.775,0.224,24,0.5,24h17c0.275,0,0.5-0.225,0.5-0.5v-10
			C18,13.32,17.9,13.172,17.762,13.083z"/>
		<g>
			<path d="M5.713,18.154l-0.919,3.217c-0.05,0.175-0.001,0.363,0.127,0.49c0.095,0.096,0.223,0.146,0.354,0.146
				c0.046,0,0.092-0.006,0.137-0.019l3.217-0.918L5.713,18.154z"/>
			<rect x="6.885" y="14.239" transform="matrix(0.707 -0.7072 0.7072 0.707 -8.6632 12.1028)" width="6.78" height="4.535"/>
			<path d="M16.629,12.652l-2.5-2.5c-0.188-0.188-0.519-0.188-0.707,0L11.775,11.8l3.208,3.207l1.646-1.647
				C16.824,13.165,16.824,12.85,16.629,12.652z"/>
		</g>
	</g>
</g>
<g id="Outline_Icons">
	<g>
		<g>
			<polyline fill="none" stroke="#000000" stroke-linecap="round" stroke-linejoin="round" stroke-miterlimit="10" points="
				8.5,13.5 6.5,11.5 0.5,11.5 0.5,23.5 17.5,23.5 17.5,13.5 			"/>
		</g>
		<polyline fill="none" stroke="#000000" stroke-linecap="round" stroke-linejoin="round" stroke-miterlimit="10" points="
			5.5,11.495 5.5,0.5 16.5,0.5 21.5,6.5 21.5,21.5 17.503,21.5 		"/>
		<polyline fill="none" stroke="#000000" stroke-linecap="round" stroke-linejoin="round" stroke-miterlimit="10" points="16.5,0.5 
			16.5,6.5 21.5,6.5 		"/>
		
			<line fill="none" stroke="#000000" stroke-linecap="round" stroke-linejoin="round" stroke-miterlimit="10" x1="8.5" y1="6.5" x2="14.5" y2="6.5"/>
		
			<line fill="none" stroke="#000000" stroke-linecap="round" stroke-linejoin="round" stroke-miterlimit="10" x1="8.5" y1="9.5" x2="11.5" y2="9.5"/>
		
			<line fill="none" stroke="#000000" stroke-linecap="round" stroke-linejoin="round" stroke-miterlimit="10" x1="8.5" y1="3.5" x2="14.5" y2="3.5"/>
		<polygon fill="none" stroke="#000000" stroke-linecap="round" stroke-linejoin="round" stroke-miterlimit="10" points="
			8.774,20.508 5.274,21.508 6.274,18.008 13.775,10.507 16.275,13.007 		"/>
		
			<line fill="none" stroke="#000000" stroke-linejoin="round" stroke-miterlimit="10" x1="11.775" y1="12.508" x2="14.275" y2="15.008"/>
		
			<line fill="none" stroke="#000000" stroke-linecap="round" stroke-linejoin="round" stroke-miterlimit="10" x1="6.274" y1="18.008" x2="8.774" y2="20.508"/>
	</g>
</g>
</svg>
