<?xml version="1.0" encoding="utf-8"?>
<!-- Generator: Adobe Illustrator 19.2.0, SVG Export Plug-In . SVG Version: 6.00 Build 0)  -->
<svg version="1.1" id="Outline_Icons" xmlns="http://www.w3.org/2000/svg" xmlns:xlink="http://www.w3.org/1999/xlink" x="0px"
	 y="0px" viewBox="0 0 24 24" enable-background="new 0 0 24 24" xml:space="preserve">
<g>
	
		<line fill="none" stroke="#000000" stroke-linecap="round" stroke-linejoin="round" stroke-miterlimit="10" x1="5.5" y1="23.5" x2="18.5" y2="23.5"/>
	
		<line fill="none" stroke="#000000" stroke-linecap="round" stroke-linejoin="round" stroke-miterlimit="10" x1="12.5" y1="19.5" x2="12.5" y2="23.5"/>
	<g>
		<g>
			<path d="M1.5,23C1.223,23,1,23.224,1,23.5S1.223,24,1.5,24C1.775,24,2,23.776,2,23.5S1.775,23,1.5,23L1.5,23z"/>
		</g>
	</g>
	<g>
		<g>
			<path d="M3.5,23C3.223,23,3,23.224,3,23.5S3.223,24,3.5,24C3.775,24,4,23.776,4,23.5S3.775,23,3.5,23L3.5,23z"/>
		</g>
	</g>
	<g>
		<g>
			<path d="M20.5,23c-0.277,0-0.5,0.224-0.5,0.5s0.223,0.5,0.5,0.5c0.275,0,0.5-0.224,0.5-0.5S20.775,23,20.5,23L20.5,23z"/>
		</g>
	</g>
	<g>
		<g>
			<path d="M22.5,23c-0.277,0-0.5,0.224-0.5,0.5s0.223,0.5,0.5,0.5c0.275,0,0.5-0.224,0.5-0.5S22.775,23,22.5,23L22.5,23z"/>
		</g>
	</g>
	<path fill="none" stroke="#000000" stroke-linecap="round" stroke-linejoin="round" stroke-miterlimit="10" d="M3,19.5h17.5
		c1.656,0,3-1.344,3-3v-12h-18V17C5.5,18.381,4.38,19.5,3,19.5c-1.382,0-2.5-1.119-2.5-2.5V0.5h7v2h13v2"/>
</g>
</svg>
