<?xml version="1.0" encoding="utf-8"?>
<!-- Generator: Adobe Illustrator 19.2.0, SVG Export Plug-In . SVG Version: 6.00 Build 0)  -->
<svg version="1.1" id="Layer_1" xmlns="http://www.w3.org/2000/svg" xmlns:xlink="http://www.w3.org/1999/xlink" x="0px" y="0px"
	 viewBox="0 0 24 24" enable-background="new 0 0 24 24" xml:space="preserve">
<g id="Filled_Icons" display="none">
	<path display="inline" d="M23.5,6H21V4.5C21,4.225,20.775,4,20.5,4H8V2.5C8,2.225,7.776,2,7.5,2h-7C0.224,2,0,2.225,0,2.5V19
		c0,1.654,1.346,3,3,3h17.5c1.93,0,3.5-1.568,3.5-3.5v-12C24,6.225,23.775,6,23.5,6z M17.752,14.434l-6,3.5
		C11.674,17.979,11.587,18,11.5,18c-0.086,0-0.172-0.021-0.249-0.064C11.096,17.844,11,17.68,11,17.5v-7
		c0-0.179,0.096-0.344,0.251-0.433c0.156-0.09,0.346-0.088,0.501,0.001l6,3.5C17.906,13.659,18,13.822,18,14
		C18,14.18,17.906,14.342,17.752,14.434z M20,6H5.5C5.224,6,5,6.225,5,6.5V19c0,1.104-0.897,2-2,2s-2-0.896-2-2V3h6v1.5
		C7,4.777,7.224,5,7.5,5H20V6z"/>
</g>
<g id="Outline_Icons">
	<g>
		<path fill="none" stroke="#000000" stroke-linecap="round" stroke-linejoin="round" stroke-miterlimit="10" d="M3,21.5h17.5
			c1.656,0,3-1.344,3-3v-12h-18V19C5.5,20.381,4.38,21.5,3,21.5c-1.382,0-2.5-1.119-2.5-2.5V2.5h7v2h13v2"/>
		<polygon fill="none" stroke="#000000" stroke-linecap="round" stroke-linejoin="round" stroke-miterlimit="10" points="11.5,10.5 
			17.5,14 11.5,17.5 		"/>
	</g>
</g>
</svg>
