<?xml version="1.0" encoding="utf-8"?>
<!-- Generator: Adobe Illustrator 19.2.0, SVG Export Plug-In . SVG Version: 6.00 Build 0)  -->
<svg version="1.1" id="Layer_1" xmlns="http://www.w3.org/2000/svg" xmlns:xlink="http://www.w3.org/1999/xlink" x="0px" y="0px"
	 viewBox="0 0 24 24" enable-background="new 0 0 24 24" xml:space="preserve">
<g id="Filled_Icons" display="none">
	<g display="inline">
		<path d="M17.5,11c-3.584,0-6.5,2.916-6.5,6.5s2.916,6.5,6.5,6.5s6.5-2.916,6.5-6.5S21.084,11,17.5,11z M20,19h-2.5
			c-0.275,0-0.5-0.225-0.5-0.5V14c0-0.275,0.225-0.5,0.5-0.5c0.275,0,0.5,0.225,0.5,0.5v4h2c0.275,0,0.5,0.225,0.5,0.5
			C20.5,18.775,20.275,19,20,19z"/>
		<path d="M17.5,10c1.264,0,2.454,0.318,3.5,0.872V4.5C21,4.225,20.775,4,20.5,4H19V2.5C19,2.225,18.775,2,18.5,2H6V0.5
			C6,0.225,5.776,0,5.5,0h-5C0.224,0,0,0.225,0,0.5V16c0,1.104,0.897,2,2,2h8.025C10.014,17.834,10,17.668,10,17.5
			C10,13.365,13.365,10,17.5,10z M3,4.5V16c0,0.551-0.449,1-1,1c-0.551,0-1-0.449-1-1V1h4v1.5C5,2.777,5.224,3,5.5,3H18v1H3.5
			C3.224,4,3,4.225,3,4.5z"/>
	</g>
</g>
<g id="Outline_Icons">
	<g>
		<g>
			<path fill="none" stroke="#000000" stroke-linecap="round" stroke-linejoin="round" stroke-miterlimit="10" d="M18.5,4.5v-2h-13
				v-2h-5V16c0,0.829,0.67,1.5,1.5,1.5c0.828,0,1.5-0.671,1.5-1.5V4.5h17V10"/>
			
				<line fill="none" stroke="#000000" stroke-linecap="round" stroke-linejoin="round" stroke-miterlimit="10" x1="2" y1="17.5" x2="9.5" y2="17.5"/>
		</g>
		<g>
			<circle fill="none" stroke="#000000" stroke-linejoin="round" stroke-miterlimit="10" cx="17.5" cy="17.535" r="6"/>
			<polyline fill="none" stroke="#000000" stroke-linecap="round" stroke-linejoin="round" stroke-miterlimit="10" points="
				20,18.535 17.5,18.535 17.5,14.035 			"/>
		</g>
	</g>
</g>
</svg>
