<?xml version="1.0" encoding="utf-8"?>
<!-- Generator: Adobe Illustrator 19.2.0, SVG Export Plug-In . SVG Version: 6.00 Build 0)  -->
<svg version="1.1" id="Layer_1" xmlns="http://www.w3.org/2000/svg" xmlns:xlink="http://www.w3.org/1999/xlink" x="0px" y="0px"
	 viewBox="0 0 24 24" enable-background="new 0 0 24 24" xml:space="preserve">
<g id="Filled_Icons" display="none">
	<g display="inline">
		<path d="M10.002,16.443c0-2.84,2.147-4.537,4.223-4.537c0.912,0,1.937,0.327,2.777,1.132c0.84-0.805,1.866-1.132,2.777-1.132
			c0.412,0,0.822,0.084,1.221,0.214V4.5C21,4.225,20.775,4,20.5,4H19V2.5C19,2.225,18.775,2,18.5,2H6V0.5C6,0.225,5.776,0,5.5,0h-5
			C0.224,0,0,0.225,0,0.5V16c0,1.104,0.897,2,2,2h8.306C10.119,17.482,10.002,16.96,10.002,16.443z M3,4.5V16c0,0.551-0.449,1-1,1
			c-0.551,0-1-0.449-1-1V1h4v1.5C5,2.777,5.224,3,5.5,3H18v1H3.5C3.224,4,3,4.225,3,4.5z"/>
		<path d="M19.779,12.908c-0.951,0-2.071,0.492-2.777,1.783c-0.706-1.291-1.826-1.783-2.777-1.783c-1.584,0-3.223,1.322-3.223,3.537
			c0,3.181,5.473,7.197,5.706,7.367c0.087,0.063,0.19,0.096,0.294,0.096c0.103,0,0.207-0.032,0.294-0.096
			c0.233-0.17,5.706-4.187,5.706-7.367C23.002,14.231,21.363,12.908,19.779,12.908z"/>
	</g>
</g>
<g id="Outline_Icons">
	<g>
		<g>
			<path fill="none" stroke="#000000" stroke-linecap="round" stroke-linejoin="round" stroke-miterlimit="10" d="M18.5,4.5v-2h-13
				v-2h-5V16c0,0.829,0.67,1.5,1.5,1.5c0.828,0,1.5-0.671,1.5-1.5V4.5h17v7"/>
			
				<line fill="none" stroke="#000000" stroke-linecap="round" stroke-linejoin="round" stroke-miterlimit="10" x1="2" y1="17.5" x2="9.5" y2="17.5"/>
		</g>
		<g>
			<path fill="none" stroke="#000000" stroke-linejoin="round" stroke-miterlimit="10" d="M17.002,23.406c0,0,5.5-4,5.5-6.963
				c0-3.418-4.5-4.5-5.5-0.34c-1-4.16-5.5-3.078-5.5,0.34C11.502,19.406,17.002,23.406,17.002,23.406z"/>
		</g>
	</g>
</g>
</svg>
