<?xml version="1.0" encoding="utf-8"?>
<!-- Generator: Adobe Illustrator 19.2.0, SVG Export Plug-In . SVG Version: 6.00 Build 0)  -->
<svg version="1.1" id="Layer_1" xmlns="http://www.w3.org/2000/svg" xmlns:xlink="http://www.w3.org/1999/xlink" x="0px" y="0px"
	 viewBox="0 0 24 24" enable-background="new 0 0 24 24" xml:space="preserve">
<g id="Filled_Icons" display="none">
	<g display="inline">
		<path d="M1,6.5C1,5.671,1.671,5,2.5,5H19V4.5C19,4.224,18.775,4,18.5,4H7.707L5.854,2.146C5.76,2.053,5.633,2,5.5,2h-5
			C0.224,2,0,2.224,0,2.5v14C0,16.775,0.224,17,0.5,17H1V6.5z"/>
		<path d="M3,8.5C3,7.671,3.671,7,4.5,7H21V6.5C21,6.224,20.775,6,20.5,6h-18C2.224,6,2,6.224,2,6.5v12C2,18.775,2.224,19,2.5,19H3
			V8.5z"/>
		<path d="M22.5,8h-18C4.224,8,4,8.224,4,8.5v12C4,20.775,4.224,21,4.5,21h18c0.275,0,0.5-0.225,0.5-0.5v-12
			C23,8.224,22.775,8,22.5,8z M17,14.5v1.016c0,1.322-0.311,1.5-1.545,1.5c-0.609,0-0.982-0.261-1.189-0.479
			c-0.266-0.28-0.412-0.653-0.412-1.05c0-0.739,0.524-1.486,1.524-1.486H16v-2.676l-3,1.5V16.5v1.016c0,1.322-0.311,1.5-1.545,1.5
			c-0.609,0-0.983-0.261-1.19-0.479c-0.265-0.28-0.411-0.653-0.411-1.05c0-0.739,0.523-1.486,1.523-1.486H12v-3.484
			c0-0.189,0.107-0.363,0.276-0.448l3.999-2c0.154-0.078,0.34-0.07,0.486,0.022C16.91,10.181,17,10.341,17,10.515V14.5z"/>
	</g>
</g>
<g id="Outline_Icons">
	<g>
		<g>
			<polyline fill="none" stroke="#000000" stroke-linecap="round" stroke-linejoin="round" stroke-miterlimit="10" points="
				18.5,6.5 18.5,4.5 7.5,4.5 5.5,2.5 0.5,2.5 0.5,16.5 			"/>
		</g>
		<g>
			<polyline fill="none" stroke="#000000" stroke-linecap="round" stroke-linejoin="round" stroke-miterlimit="10" points="
				20.5,8.5 20.5,6.5 2.5,6.5 2.5,18.5 			"/>
		</g>
		<g>
			
				<rect x="4.5" y="8.5" fill="none" stroke="#000000" stroke-linecap="round" stroke-linejoin="round" stroke-miterlimit="10" width="18" height="12"/>
		</g>
		<polyline fill="none" stroke="#000000" stroke-linecap="round" stroke-linejoin="round" stroke-miterlimit="10" points="
			12.5,16.5 12.5,12.516 16.5,10.515 16.5,14.5 		"/>
		<path fill="none" stroke="#000000" stroke-linecap="round" stroke-linejoin="round" stroke-miterlimit="10" d="M16.5,15.516
			c0,1-0.045,1-1.045,1C14,16.516,14,14.5,15.377,14.5c1,0,1.123,0,1.123,0S16.5,14.516,16.5,15.516z"/>
		<path fill="none" stroke="#000000" stroke-linecap="round" stroke-linejoin="round" stroke-miterlimit="10" d="M12.5,17.516
			c0,1-0.045,1-1.045,1C10,18.516,10,16.5,11.377,16.5c1,0,1.123,0,1.123,0S12.5,16.516,12.5,17.516z"/>
	</g>
</g>
</svg>
