<?xml version="1.0" encoding="utf-8"?>
<!-- Generator: Adobe Illustrator 19.2.0, SVG Export Plug-In . SVG Version: 6.00 Build 0)  -->
<svg version="1.1" id="Layer_1" xmlns="http://www.w3.org/2000/svg" xmlns:xlink="http://www.w3.org/1999/xlink" x="0px" y="0px"
	 viewBox="0 0 24 24" enable-background="new 0 0 24 24" xml:space="preserve">
<g id="Filled_Icons" display="none">
	<g display="inline">
		<path d="M1,6.5C1,5.671,1.671,5,2.5,5H19V4.5C19,4.224,18.775,4,18.5,4H7.707L5.854,2.146C5.76,2.053,5.633,2,5.5,2h-5
			C0.224,2,0,2.224,0,2.5v14C0,16.775,0.224,17,0.5,17H1V6.5z"/>
		<path d="M3,8.5C3,7.671,3.671,7,4.5,7H21V6.5C21,6.224,20.775,6,20.5,6h-18C2.224,6,2,6.224,2,6.5v12C2,18.775,2.224,19,2.5,19H3
			V8.5z"/>
		<path d="M22.5,8h-18C4.224,8,4,8.224,4,8.5v12C4,20.775,4.224,21,4.5,21h18c0.275,0,0.5-0.225,0.5-0.5v-12
			C23,8.224,22.775,8,22.5,8z M9,10c0.551,0,1,0.449,1,1c0,0.551-0.449,1-1,1c-0.551,0-1-0.449-1-1C8,10.449,8.449,10,9,10z
			 M20.531,19H6.563c-0.276,0-0.5-0.225-0.5-0.5c0-0.275,0.224-0.5,0.5-0.5h0.659l2.854-4.598c0.084-0.137,0.23-0.223,0.39-0.234
			c0.16-0.008,0.315,0.055,0.419,0.18l1.99,2.389l2.17-4.775c0.083-0.181,0.221-0.305,0.465-0.293
			c0.199,0.004,0.377,0.126,0.453,0.311L18.836,18h1.695c0.275,0,0.5,0.225,0.5,0.5C21.031,18.775,20.809,19,20.531,19z"/>
	</g>
</g>
<g id="Outline_Icons">
	<g>
		<g>
			<polyline fill="none" stroke="#000000" stroke-linecap="round" stroke-linejoin="round" stroke-miterlimit="10" points="
				18.5,6.5 18.5,4.5 7.5,4.5 5.5,2.5 0.5,2.5 0.5,16.5 			"/>
		</g>
		<g>
			<polyline fill="none" stroke="#000000" stroke-linecap="round" stroke-linejoin="round" stroke-miterlimit="10" points="
				20.5,8.5 20.5,6.5 2.5,6.5 2.5,18.5 			"/>
		</g>
		<g>
			
				<rect x="4.5" y="8.5" fill="none" stroke="#000000" stroke-linecap="round" stroke-linejoin="round" stroke-miterlimit="10" width="18" height="12"/>
		</g>
		<polyline fill="none" stroke="#000000" stroke-linejoin="round" stroke-miterlimit="10" points="18.5,18.5 15.5,11.167 13,16.667 
			10.5,13.667 7.5,18.5 		"/>
		
			<line fill="none" stroke="#000000" stroke-linecap="round" stroke-linejoin="round" stroke-miterlimit="10" x1="6.563" y1="18.5" x2="20.531" y2="18.5"/>
		<circle fill="none" stroke="#000000" stroke-linejoin="round" stroke-miterlimit="10" cx="9" cy="11" r="0.5"/>
	</g>
</g>
</svg>
