<?xml version="1.0" encoding="utf-8"?>
<!-- Generator: Adobe Illustrator 19.2.0, SVG Export Plug-In . SVG Version: 6.00 Build 0)  -->
<svg version="1.1" id="Layer_1" xmlns="http://www.w3.org/2000/svg" xmlns:xlink="http://www.w3.org/1999/xlink" x="0px" y="0px"
	 viewBox="0 0 24 24" enable-background="new 0 0 24 24" xml:space="preserve">
<g id="Filled_Icons" display="none">
	<g display="inline">
		<path d="M17.991,13.454c0.013,0.452-0.177,0.896-0.538,1.196l-2.182,1.815l1.125,3.007c0.231,0.617,0.033,1.313-0.49,1.715
			c-0.27,0.207-0.592,0.31-0.914,0.31c-0.305,0-0.61-0.092-0.872-0.279l-2.628-1.875l-2.629,1.875
			c-0.536,0.383-1.26,0.371-1.785-0.031c-0.523-0.402-0.723-1.1-0.491-1.717l1.126-3.005l-2.18-1.815
			c-0.485-0.404-0.666-1.068-0.451-1.664c0.215-0.592,0.779-0.988,1.411-0.988h1.211l-0.851-0.851C6.76,11.053,6.633,11,6.5,11h-6
			C0.224,11,0,11.224,0,11.5v12C0,23.775,0.224,24,0.5,24h17c0.275,0,0.5-0.225,0.5-0.5v-10C18,13.484,17.992,13.471,17.991,13.454z
			"/>
		<path d="M21.884,6.18l-5-6C16.789,0.066,16.648,0,16.5,0h-11C5.224,0,5,0.224,5,0.5V10h1.5c0.398,0,0.779,0.159,1.061,0.44
			l1.479,1.479L9.867,10H8.5C8.224,10,8,9.776,8,9.5C8,9.224,8.224,9,8.5,9h1.891c0.279-0.31,0.677-0.5,1.109-0.5
			c0.001,0,0.001,0,0.001,0c0.432,0,0.829,0.191,1.106,0.5H18.5C18.775,9,19,9.224,19,9.5c0,0.276-0.225,0.5-0.5,0.5h-5.369
			l0.854,1.998h2.509c0.007,0,0.012,0.002,0.019,0.002H17.5c0.829,0,1.5,0.671,1.5,1.5V22h2.5c0.275,0,0.5-0.225,0.5-0.5v-15
			C22,6.383,21.959,6.27,21.884,6.18z M14.5,7h-6C8.224,7,8,6.776,8,6.5C8,6.224,8.224,6,8.5,6h6C14.775,6,15,6.224,15,6.5
			C15,6.776,14.775,7,14.5,7z M14.5,4h-6C8.224,4,8,3.776,8,3.5C8,3.224,8.224,3,8.5,3h6C14.775,3,15,3.224,15,3.5
			C15,3.776,14.775,4,14.5,4z M17,6.5c-0.275,0-0.5-0.224-0.5-0.5V1.148L21.087,6.5H17z"/>
		<path d="M16.963,13.327c-0.072-0.198-0.26-0.33-0.47-0.33h-3.171L11.96,9.804C11.881,9.62,11.701,9.5,11.501,9.5c0,0,0,0-0.001,0
			c-0.2,0-0.38,0.119-0.459,0.303l-1.377,3.195H6.493c-0.21,0-0.398,0.131-0.47,0.33c-0.072,0.197-0.012,0.419,0.15,0.554
			L8.9,16.152L7.525,19.82c-0.077,0.207-0.011,0.44,0.164,0.572c0.174,0.135,0.416,0.139,0.595,0.012l3.209-2.291l3.209,2.291
			c0.087,0.062,0.189,0.093,0.291,0.093c0.106,0,0.215-0.034,0.305-0.103c0.175-0.135,0.241-0.367,0.164-0.572l-1.375-3.67
			l2.728-2.271C16.975,13.747,17.035,13.525,16.963,13.327z"/>
	</g>
</g>
<g id="Outline_Icons">
	<g>
		<polygon fill="none" stroke="#000000" stroke-linejoin="round" stroke-miterlimit="10" points="11.382,11.003 12.875,14.5 
			16.375,14.5 13.375,16.998 14.875,21.001 11.375,18.503 7.875,21 9.375,16.998 6.375,14.5 9.875,14.5 		"/>
		<g>
			<polyline fill="none" stroke="#000000" stroke-linecap="round" stroke-linejoin="round" stroke-miterlimit="10" points="
				7.564,12.565 6.5,11.5 0.5,11.5 0.5,23.5 17.5,23.5 17.5,17 			"/>
		</g>
		<polyline fill="none" stroke="#000000" stroke-linecap="round" stroke-linejoin="round" stroke-miterlimit="10" points="
			5.5,11.495 5.5,0.5 16.5,0.5 21.5,6.5 21.5,21.5 17.503,21.5 		"/>
		<polyline fill="none" stroke="#000000" stroke-linecap="round" stroke-linejoin="round" stroke-miterlimit="10" points="16.5,0.5 
			16.5,6.5 21.5,6.5 		"/>
		
			<line fill="none" stroke="#000000" stroke-linecap="round" stroke-linejoin="round" stroke-miterlimit="10" x1="8.5" y1="6.5" x2="14.5" y2="6.5"/>
		
			<line fill="none" stroke="#000000" stroke-linecap="round" stroke-linejoin="round" stroke-miterlimit="10" x1="8.5" y1="3.5" x2="14.5" y2="3.5"/>
	</g>
</g>
</svg>
