<?xml version="1.0" encoding="utf-8"?>
<!-- Generator: Adobe Illustrator 19.2.0, SVG Export Plug-In . SVG Version: 6.00 Build 0)  -->
<svg version="1.1" id="Layer_1" xmlns="http://www.w3.org/2000/svg" xmlns:xlink="http://www.w3.org/1999/xlink" x="0px" y="0px"
	 viewBox="0 0 24 24" enable-background="new 0 0 24 24" xml:space="preserve">
<g id="Filled_Icons" display="none">
	<g display="inline">
		<path d="M21.884,6.18l-5-6C16.789,0.066,16.648,0,16.5,0h-11C5.224,0,5,0.224,5,0.5V10h1.5c0.398,0,0.779,0.159,1.061,0.44
			L9.121,12H17.5c0.829,0,1.5,0.671,1.5,1.5V22h2.5c0.275,0,0.5-0.225,0.5-0.5v-15C22,6.383,21.959,6.27,21.884,6.18z M8.5,3h6
			C14.775,3,15,3.224,15,3.5C15,3.776,14.775,4,14.5,4h-6C8.224,4,8,3.776,8,3.5C8,3.224,8.224,3,8.5,3z M8.5,6h6
			C14.775,6,15,6.224,15,6.5C15,6.776,14.775,7,14.5,7h-6C8.224,7,8,6.776,8,6.5C8,6.224,8.224,6,8.5,6z M18.5,10h-10
			C8.224,10,8,9.776,8,9.5C8,9.224,8.224,9,8.5,9h10C18.775,9,19,9.224,19,9.5C19,9.776,18.775,10,18.5,10z M19.5,6.5h-1H17
			c-0.275,0-0.5-0.224-0.5-0.5V3.5V1.148L21.087,6.5H19.5z"/>
		<path d="M17.5,13H8.707l-1.854-1.854C6.76,11.053,6.633,11,6.5,11h-6C0.224,11,0,11.224,0,11.5v12C0,23.775,0.224,24,0.5,24h17
			c0.275,0,0.5-0.225,0.5-0.5v-10C18,13.225,17.775,13,17.5,13z"/>
	</g>
</g>
<g id="Outline_Icons">
	<g>
		<g>
			<polygon fill="none" stroke="#000000" stroke-linecap="round" stroke-linejoin="round" stroke-miterlimit="10" points="8.5,13.5 
				6.5,11.5 0.5,11.5 0.5,23.5 17.5,23.5 17.5,13.5 			"/>
		</g>
		<polyline fill="none" stroke="#000000" stroke-linecap="round" stroke-linejoin="round" stroke-miterlimit="10" points="
			5.5,11.495 5.5,0.5 16.5,0.5 21.5,6.5 21.5,21.5 17.503,21.5 		"/>
		<polyline fill="none" stroke="#000000" stroke-linecap="round" stroke-linejoin="round" stroke-miterlimit="10" points="16.5,0.5 
			16.5,6.5 21.5,6.5 		"/>
		
			<line fill="none" stroke="#000000" stroke-linecap="round" stroke-linejoin="round" stroke-miterlimit="10" x1="8.5" y1="9.5" x2="18.5" y2="9.5"/>
		
			<line fill="none" stroke="#000000" stroke-linecap="round" stroke-linejoin="round" stroke-miterlimit="10" x1="8.5" y1="6.5" x2="14.5" y2="6.5"/>
		
			<line fill="none" stroke="#000000" stroke-linecap="round" stroke-linejoin="round" stroke-miterlimit="10" x1="8.5" y1="3.5" x2="14.5" y2="3.5"/>
	</g>
</g>
</svg>
