<?xml version="1.0" encoding="utf-8"?>
<!-- Generator: Adobe Illustrator 19.2.0, SVG Export Plug-In . SVG Version: 6.00 Build 0)  -->
<svg version="1.1" id="Outline_Icons" xmlns="http://www.w3.org/2000/svg" xmlns:xlink="http://www.w3.org/1999/xlink" x="0px"
	 y="0px" viewBox="0 0 24 24" enable-background="new 0 0 24 24" xml:space="preserve">
<g>
	<polygon fill="none" stroke="#000000" stroke-linecap="round" stroke-linejoin="round" stroke-miterlimit="10" points="7.5,4.5 
		5.5,2.5 0.5,2.5 0.5,18.5 22.5,18.5 22.5,4.5 	"/>
	
		<line fill="none" stroke="#000000" stroke-linecap="round" stroke-linejoin="round" stroke-miterlimit="10" x1="5" y1="22.5" x2="18" y2="22.5"/>
	
		<line fill="none" stroke="#000000" stroke-linecap="round" stroke-linejoin="round" stroke-miterlimit="10" x1="11.5" y1="18.5" x2="11.5" y2="22.5"/>
	<g>
		<g>
			<path d="M0.5,22C0.224,22,0,22.224,0,22.5S0.224,23,0.5,23S1,22.776,1,22.5S0.776,22,0.5,22L0.5,22z"/>
		</g>
	</g>
	<g>
		<g>
			<path d="M2.5,22C2.224,22,2,22.224,2,22.5S2.224,23,2.5,23S3,22.776,3,22.5S2.776,22,2.5,22L2.5,22z"/>
		</g>
	</g>
	<g>
		<g>
			<path d="M20.5,22c-0.276,0-0.5,0.224-0.5,0.5s0.224,0.5,0.5,0.5s0.5-0.224,0.5-0.5S20.776,22,20.5,22L20.5,22z"/>
		</g>
	</g>
	<g>
		<g>
			<path d="M22.5,22c-0.276,0-0.5,0.224-0.5,0.5s0.224,0.5,0.5,0.5s0.5-0.224,0.5-0.5S22.776,22,22.5,22L22.5,22z"/>
		</g>
	</g>
</g>
</svg>
