<?xml version="1.0" encoding="utf-8"?>
<!-- Generator: Adobe Illustrator 19.2.0, SVG Export Plug-In . SVG Version: 6.00 Build 0)  -->
<svg version="1.1" id="Layer_1" xmlns="http://www.w3.org/2000/svg" xmlns:xlink="http://www.w3.org/1999/xlink" x="0px" y="0px"
	 viewBox="0 0 24 24" enable-background="new 0 0 24 24" xml:space="preserve">
<g id="Filled_Icons" display="none">
	<g display="inline">
		<path d="M17.307,12c1.436,0,2.737,0.575,3.693,1.506V4.5C21,4.224,20.775,4,20.5,4H19V2.5C19,2.224,18.775,2,18.5,2H6V0.5
			C6,0.224,5.776,0,5.5,0h-5C0.224,0,0,0.224,0,0.5V16c0,1.104,0.897,2,2,2h10.051C12.021,17.772,12,17.541,12,17.307
			C12,14.38,14.38,12,17.307,12z M3,4.5V16c0,0.551-0.449,1-1,1c-0.551,0-1-0.449-1-1V1h4v1.5C5,2.776,5.224,3,5.5,3H18v1H3.5
			C3.224,4,3,4.224,3,4.5z"/>
		<path d="M23.853,23.147l-2.461-2.461l-0.713-0.715c0.582-0.734,0.932-1.658,0.932-2.666c0-2.373-1.932-4.306-4.305-4.306
			C14.932,13,13,14.932,13,17.307c0,2.373,1.932,4.305,4.307,4.305c1.006,0,1.932-0.35,2.666-0.932l0.711,0.713l2.463,2.461
			C23.244,23.951,23.372,24,23.5,24c0.128,0,0.256-0.049,0.353-0.146C24.049,23.659,24.049,23.342,23.853,23.147z M17.307,20.609
			c-1.824,0-3.307-1.482-3.307-3.305C14,15.482,15.482,14,17.307,14c1.821,0,3.303,1.482,3.303,3.307
			C20.609,19.128,19.128,20.609,17.307,20.609z"/>
	</g>
</g>
<g id="Outline_Icons">
	<g>
		<g>
			<path fill="none" stroke="#000000" stroke-linecap="round" stroke-linejoin="round" stroke-miterlimit="10" d="M18.5,4.5v-2h-13
				v-2h-5V16c0,0.828,0.67,1.5,1.5,1.5c0.828,0,1.5-0.672,1.5-1.5V4.5h17v5"/>
			
				<line fill="none" stroke="#000000" stroke-linecap="round" stroke-linejoin="round" stroke-miterlimit="10" x1="2" y1="17.5" x2="9.5" y2="17.5"/>
		</g>
		<g>
			<circle fill="none" stroke="#000000" stroke-linejoin="round" stroke-miterlimit="10" cx="17.305" cy="17.306" r="3.805"/>
			
				<line fill="none" stroke="#000000" stroke-linecap="round" stroke-linejoin="round" stroke-miterlimit="10" x1="20" y1="20" x2="23.5" y2="23.5"/>
		</g>
	</g>
</g>
</svg>
