<?xml version="1.0" encoding="utf-8"?>
<!-- Generator: Adobe Illustrator 19.2.0, SVG Export Plug-In . SVG Version: 6.00 Build 0)  -->
<svg version="1.1" id="Layer_1" xmlns="http://www.w3.org/2000/svg" xmlns:xlink="http://www.w3.org/1999/xlink" x="0px" y="0px"
	 viewBox="0 0 24 24" enable-background="new 0 0 24 24" xml:space="preserve">
<g id="Filled_Icons" display="none">
	<g display="inline">
		<g>
			<path d="M13.5,15c0.81,0,1.548,0.29,2.143,0.753l2.364-1.183c0-0.024-0.007-0.047-0.007-0.07c0-1.758,1.309-3.204,3-3.449V4.5
				C21,4.225,20.775,4,20.5,4H19V2.5C19,2.225,18.775,2,18.5,2H6V0.5C6,0.225,5.776,0,5.5,0h-5C0.224,0,0,0.225,0,0.5V16
				c0,1.104,0.897,2,2,2h8.051C10.296,16.309,11.741,15,13.5,15z M3,4.5V16c0,0.551-0.449,1-1,1c-0.551,0-1-0.449-1-1V1h4v1.5
				C5,2.777,5.224,3,5.5,3H18v1H3.5C3.224,4,3,4.225,3,4.5z"/>
		</g>
		<path d="M21.5,19c-0.891,0-1.668,0.473-2.111,1.175l-3.429-1.284C15.98,18.762,16,18.633,16,18.5c0-0.225-0.039-0.435-0.094-0.643
			l3.638-1.82C20.002,16.619,20.704,17,21.5,17c1.378,0,2.5-1.122,2.5-2.5c0-1.378-1.122-2.5-2.5-2.5c-1.378,0-2.5,1.122-2.5,2.5
			c0,0.225,0.039,0.438,0.096,0.645l-3.639,1.819C14.999,16.381,14.296,16,13.5,16c-1.378,0-2.5,1.122-2.5,2.5
			c0,1.378,1.122,2.5,2.5,2.5c0.891,0,1.667-0.471,2.109-1.173l3.43,1.284C19.019,21.24,19,21.367,19,21.5
			c0,1.378,1.122,2.5,2.5,2.5c1.378,0,2.5-1.122,2.5-2.5C24,20.122,22.878,19,21.5,19z M21.5,13c0.827,0,1.5,0.673,1.5,1.5
			c0,0.827-0.673,1.5-1.5,1.5c-0.827,0-1.5-0.673-1.5-1.5C20,13.673,20.673,13,21.5,13z M13.5,20c-0.827,0-1.5-0.673-1.5-1.5
			c0-0.827,0.673-1.5,1.5-1.5c0.827,0,1.5,0.673,1.5,1.5C15,19.327,14.327,20,13.5,20z M21.5,23c-0.827,0-1.5-0.673-1.5-1.5
			c0-0.827,0.673-1.5,1.5-1.5c0.827,0,1.5,0.673,1.5,1.5C23,22.327,22.327,23,21.5,23z"/>
	</g>
</g>
<g id="Outline_Icons">
	<g>
		<g>
			<path fill="none" stroke="#000000" stroke-linecap="round" stroke-linejoin="round" stroke-miterlimit="10" d="M18.5,4.5v-2h-13
				v-2h-5V16c0,0.828,0.67,1.5,1.5,1.5c0.828,0,1.5-0.672,1.5-1.5V4.5h17v6"/>
			
				<line fill="none" stroke="#000000" stroke-linecap="round" stroke-linejoin="round" stroke-miterlimit="10" x1="2" y1="17.5" x2="9.5" y2="17.5"/>
		</g>
		<g>
			
				<circle fill="none" stroke="#000000" stroke-linecap="round" stroke-linejoin="round" stroke-miterlimit="10" cx="21.5" cy="14.5" r="2"/>
			
				<circle fill="none" stroke="#000000" stroke-linecap="round" stroke-linejoin="round" stroke-miterlimit="10" cx="21.5" cy="21.5" r="2"/>
			
				<circle fill="none" stroke="#000000" stroke-linecap="round" stroke-linejoin="round" stroke-miterlimit="10" cx="13.5" cy="18.5" r="2"/>
			
				<line fill="none" stroke="#000000" stroke-linecap="round" stroke-linejoin="round" stroke-miterlimit="10" x1="15.288" y1="17.607" x2="19.713" y2="15.395"/>
			
				<line fill="none" stroke="#000000" stroke-linecap="round" stroke-linejoin="round" stroke-miterlimit="10" x1="15.375" y1="19.204" x2="19.629" y2="20.799"/>
		</g>
	</g>
</g>
</svg>
