<?xml version="1.0" encoding="utf-8"?>
<!-- Generator: Adobe Illustrator 19.2.0, SVG Export Plug-In . SVG Version: 6.00 Build 0)  -->
<svg version="1.1" id="Layer_1" xmlns="http://www.w3.org/2000/svg" xmlns:xlink="http://www.w3.org/1999/xlink" x="0px" y="0px"
	 viewBox="0 0 24 24" enable-background="new 0 0 24 24" xml:space="preserve">
<g id="Filled_Icons" display="none">
	<g display="inline">
		<path d="M22.5,6H21V4.5C21,4.224,20.775,4,20.5,4H8V2.5C8,2.224,7.776,2,7.5,2h-5C2.224,2,2,2.224,2,2.5V18c0,1.104,0.897,2,2,2
			h18.5c0.275,0,0.5-0.225,0.5-0.5v-13C23,6.224,22.775,6,22.5,6z M19.853,15.354C19.755,15.451,19.628,15.5,19.5,15.5
			c-0.128,0-0.256-0.049-0.354-0.146L18,14.207V18c0,0.275-0.225,0.5-0.5,0.5h-6c-0.276,0-0.5-0.225-0.5-0.5v-3.793l-1.146,1.147
			c-0.195,0.195-0.512,0.195-0.707,0c-0.195-0.194-0.195-0.512,0-0.707l1.999-1.998l0.001-0.002l2.999-3
			c0.188-0.188,0.52-0.188,0.707,0l3,3l0,0l2,2C20.049,14.842,20.049,15.159,19.853,15.354z M20,6H5.5C5.224,6,5,6.224,5,6.5V18
			c0,0.551-0.449,1-1,1c-0.551,0-1-0.449-1-1V3h4v1.5C7,4.776,7.224,5,7.5,5H20V6z"/>
		<polygon points="12,13.207 12,17.5 13.5,17.5 13.5,15.5 15.5,15.5 15.5,17.5 17,17.5 17,13.207 14.5,10.707 		"/>
	</g>
</g>
<g id="Outline_Icons">
	<g>
		<path fill="none" stroke="#000000" stroke-linecap="round" stroke-linejoin="round" stroke-miterlimit="10" d="M3,21.5h17.5
			c1.656,0,3-1.344,3-3v-12h-18V19C5.5,20.381,4.38,21.5,3,21.5c-1.382,0-2.5-1.119-2.5-2.5V2.5h7v2h13v2"/>
		<polyline fill="none" stroke="#000000" stroke-linecap="round" stroke-linejoin="round" stroke-miterlimit="10" points="
			11.5,12.5 11.5,17.5 17.5,17.5 17.5,12.5 		"/>
		<polyline fill="none" stroke="#000000" stroke-linecap="round" stroke-linejoin="round" stroke-miterlimit="10" points="9.5,14.5 
			14.5,9.5 19.5,14.5 		"/>
		
			<rect x="13.51" y="14.5" fill="none" stroke="#000000" stroke-linejoin="round" stroke-miterlimit="10" width="1.984" height="3"/>
	</g>
</g>
</svg>
