<?xml version="1.0" encoding="utf-8"?>
<!-- Generator: Adobe Illustrator 19.2.0, SVG Export Plug-In . SVG Version: 6.00 Build 0)  -->
<svg version="1.1" id="Layer_1" xmlns="http://www.w3.org/2000/svg" xmlns:xlink="http://www.w3.org/1999/xlink" x="0px" y="0px"
	 viewBox="0 0 24 24" enable-background="new 0 0 24 24" xml:space="preserve">
<g id="Filled_Icons" display="none">
	<path display="inline" d="M23.5,4H21V2.5C21,2.224,20.775,2,20.5,2h-6C14.225,2,14,2.224,14,2.5V4H9.707L7.854,2.146
		C7.76,2.053,7.633,2,7.5,2h-7C0.224,2,0,2.224,0,2.5v19C0,21.775,0.224,22,0.5,22h23c0.275,0,0.5-0.225,0.5-0.5v-17
		C24,4.224,23.775,4,23.5,4z M20,13.293l-2.147-2.146C17.756,11.049,17.628,11,17.5,11c-0.128,0-0.256,0.049-0.354,0.146L15,13.293
		V3h5V13.293z"/>
</g>
<g id="Outline_Icons">
	<g>
		<polygon fill="none" stroke="#000000" stroke-linecap="round" stroke-linejoin="round" stroke-miterlimit="10" points="20.5,14.5 
			17.5,11.5 14.5,14.5 14.5,2.5 20.5,2.5 		"/>
		<polyline fill="none" stroke="#000000" stroke-linecap="round" stroke-linejoin="round" stroke-miterlimit="10" points="14.5,4.5 
			9.5,4.5 7.5,2.5 0.5,2.5 0.5,21.5 23.5,21.5 23.5,4.5 20.496,4.5 		"/>
	</g>
</g>
</svg>
