<?xml version="1.0" encoding="utf-8"?>
<!-- Generator: Adobe Illustrator 19.2.0, SVG Export Plug-In . SVG Version: 6.00 Build 0)  -->
<svg version="1.1" id="Layer_1" xmlns="http://www.w3.org/2000/svg" xmlns:xlink="http://www.w3.org/1999/xlink" x="0px" y="0px"
	 viewBox="0 0 24 24" enable-background="new 0 0 24 24" xml:space="preserve">
<g id="Filled_Icons" display="none">
	<g display="inline">
		<path d="M10.844,17.205c0-0.271,0.019-0.545,0.056-0.827l-1.148-0.664c-0.239-0.138-0.321-0.444-0.183-0.683l1.992-3.446
			c0.138-0.239,0.442-0.321,0.682-0.183l1.159,0.666c0.506-0.374,1.146-0.726,1.672-0.955V10c0-0.276,0.224-0.5,0.5-0.5h3.867
			c0.275,0,0.5,0.224,0.5,0.5v1.123c0.389,0.194,0.732,0.453,1.06,0.724V4.5C21,4.224,20.775,4,20.5,4H19V2.5
			C19,2.224,18.775,2,18.5,2H6V0.5C6,0.224,5.776,0,5.5,0h-5C0.224,0,0,0.224,0,0.5V16c0,1.104,0.897,2,2,2h8.898
			C10.864,17.729,10.844,17.464,10.844,17.205z M3,4.5V16c0,0.551-0.449,1-1,1c-0.551,0-1-0.449-1-1V1h4v1.5C5,2.776,5.224,3,5.5,3
			H18v1H3.5C3.224,4,3,4.224,3,4.5z"/>
		<path d="M22.928,18.727c-0.183-0.105-0.279-0.315-0.242-0.523c0.064-0.338,0.096-0.675,0.096-0.998
			c0-0.324-0.032-0.649-0.096-0.997c-0.039-0.208,0.059-0.418,0.241-0.523l1.015-0.586l-1.489-2.578l-1.005,0.584
			c-0.184,0.105-0.415,0.086-0.577-0.053l-0.168-0.144c-0.476-0.411-0.925-0.798-1.437-0.988c-0.195-0.073-0.326-0.26-0.326-0.468
			V10.5h-2.867v0.951c0,0.208-0.129,0.395-0.325,0.468c-0.657,0.244-1.507,0.732-1.978,1.132c-0.16,0.139-0.39,0.16-0.574,0.055
			l-1.019-0.588L10.684,15.1l1.014,0.584c0.183,0.106,0.279,0.316,0.241,0.524c-0.064,0.349-0.096,0.675-0.096,0.997
			c0,0.326,0.031,0.65,0.095,0.998c0.039,0.208-0.058,0.418-0.241,0.524l-1.015,0.586l1.49,2.58l1.023-0.588
			c0.184-0.103,0.414-0.084,0.574,0.055c0.461,0.393,1.754,0.959,2.461,1.222c0.196,0.073,0.326,0.259,0.326,0.468V24h2.383v-0.95
			c0-0.209,0.129-0.396,0.326-0.468c0.426-0.159,0.834-0.529,1.229-0.887c0.125-0.114,0.25-0.229,0.375-0.336
			c0.162-0.139,0.393-0.158,0.576-0.053l1.01,0.586l1.486-2.58L22.928,18.727z M17.312,20.357c-1.738,0-3.152-1.414-3.152-3.152
			s1.414-3.152,3.152-3.152s3.152,1.414,3.152,3.152S19.05,20.357,17.312,20.357z"/>
	</g>
</g>
<g id="Outline_Icons">
	<g>
		<g>
			<path fill="none" stroke="#000000" stroke-linecap="round" stroke-linejoin="round" stroke-miterlimit="10" d="M18.5,4.5v-2h-13
				v-2h-5V16c0,0.828,0.67,1.5,1.5,1.5c0.828,0,1.5-0.672,1.5-1.5V4.5h17V9"/>
			
				<line fill="none" stroke="#000000" stroke-linecap="round" stroke-linejoin="round" stroke-miterlimit="10" x1="2" y1="17.5" x2="9.5" y2="17.5"/>
		</g>
		<g>
			<path fill="none" stroke="#000000" stroke-linejoin="round" stroke-miterlimit="10" d="M15.881,12.873
				c-0.544,0.203-1.104,0.505-1.554,0.893l-1.19-0.686l-1.635,2.826l1.187,0.688c-0.053,0.289-0.086,0.586-0.086,0.891
				c0,0.307,0.031,0.604,0.084,0.895L11.5,19.065l1.632,2.826l1.195-0.686c0.45,0.387,1.01,0.689,1.554,0.893v1.373h3.266v-1.373
				c0.543-0.203,1.088-0.504,1.539-0.893l1.186,0.686l1.63-2.826l-1.189-0.687c0.054-0.29,0.084-0.588,0.084-0.893
				c0-0.305-0.03-0.604-0.084-0.893l1.188-0.688l-1.632-2.825l-1.181,0.687c-0.453-0.388-0.996-0.69-1.541-0.894V11.5h-3.265
				L15.881,12.873L15.881,12.873z"/>
		</g>
		<circle fill="none" stroke="#000000" stroke-linejoin="round" stroke-miterlimit="10" cx="17.499" cy="17.484" r="2.176"/>
	</g>
</g>
</svg>
