<?xml version="1.0" encoding="utf-8"?>
<!-- Generator: Adobe Illustrator 19.2.0, SVG Export Plug-In . SVG Version: 6.00 Build 0)  -->
<svg version="1.1" id="Layer_1" xmlns="http://www.w3.org/2000/svg" xmlns:xlink="http://www.w3.org/1999/xlink" x="0px" y="0px"
	 viewBox="0 0 24 24" style="enable-background:new 0 0 24 24;" xml:space="preserve">
<style type="text/css">
	.st0{display:none;}
	.st1{display:inline;}
	.st2{fill:none;stroke:#000000;stroke-linejoin:round;stroke-miterlimit:10;}
</style>
<g id="Filled_Icons" class="st0">
	<g class="st1">
		<circle cx="20" cy="19" r="1"/>
		<path d="M23.5,0H16H8.5H1C0.7,0,0.5,0.2,0.5,0.5v23C0.5,23.8,0.7,24,1,24h7.5H16h7.5c0.3,0,0.5-0.2,0.5-0.5v-23
			C24,0.2,23.8,0,23.5,0z M5,21c-1.1,0-2-0.9-2-2c0-1.1,0.9-2,2-2c1.1,0,2,0.9,2,2C7,20.1,6.1,21,5,21z M7,14.5
			C7,14.8,6.8,15,6.5,15h-3C3.2,15,3,14.8,3,14.5V6h4V14.5z M7,5H3V2.5C3,2.2,3.2,2,3.5,2h3C6.8,2,7,2.2,7,2.5V5z M12.5,21
			c-1.1,0-2-0.9-2-2c0-1.1,0.9-2,2-2c1.1,0,2,0.9,2,2C14.5,20.1,13.6,21,12.5,21z M14.5,14.5c0,0.3-0.2,0.5-0.5,0.5h-3
			c-0.3,0-0.5-0.2-0.5-0.5V6h4V14.5z M14.5,5h-4V2.5C10.5,2.2,10.7,2,11,2h3c0.3,0,0.5,0.2,0.5,0.5V5z M20,21c-1.1,0-2-0.9-2-2
			c0-1.1,0.9-2,2-2c1.1,0,2,0.9,2,2C22,20.1,21.1,21,20,21z M22,14.5c0,0.3-0.2,0.5-0.5,0.5h-3c-0.3,0-0.5-0.2-0.5-0.5V6h4V14.5z
			 M22,5h-4V2.5C18,2.2,18.2,2,18.5,2h3C21.8,2,22,2.2,22,2.5V5z"/>
		<circle cx="12.5" cy="19" r="1"/>
		<circle cx="5" cy="19" r="1"/>
	</g>
</g>
<g id="Outline_Icons">
	<g>
		<rect x="0.5" y="0.5" class="st2" width="7.5" height="23"/>
		<rect x="2.5" y="2.5" class="st2" width="3" height="12"/>
		<line class="st2" x1="2.5" y1="5.5" x2="5.5" y2="5.5"/>
		<rect x="8" y="0.5" class="st2" width="8" height="23"/>
		<rect x="10.5" y="2.5" class="st2" width="3" height="12"/>
		<line class="st2" x1="10.5" y1="5.5" x2="13.5" y2="5.5"/>
		<rect x="16" y="0.5" class="st2" width="7.5" height="23"/>
		<rect x="18.5" y="2.5" class="st2" width="3" height="12"/>
		<line class="st2" x1="18.5" y1="5.5" x2="21.5" y2="5.5"/>
		<circle class="st2" cx="4" cy="19" r="1.5"/>
		<circle class="st2" cx="12" cy="19" r="1.5"/>
		<circle class="st2" cx="20" cy="19" r="1.5"/>
	</g>
</g>
</svg>
