<?xml version="1.0" encoding="utf-8"?>
<!-- Generator: Adobe Illustrator 19.2.0, SVG Export Plug-In . SVG Version: 6.00 Build 0)  -->
<svg version="1.1" id="Layer_1" xmlns="http://www.w3.org/2000/svg" xmlns:xlink="http://www.w3.org/1999/xlink" x="0px" y="0px"
	 viewBox="0 0 24 24" enable-background="new 0 0 24 24" xml:space="preserve">
<g id="Filled_Icons" display="none">
	<path display="inline" d="M23.5,6H21V4.5v-1C21,2.673,20.327,2,19.5,2H14c-1.104,0-2,0.897-2,2H8V2.5C8,2.225,7.776,2,7.5,2h-7
		C0.224,2,0,2.225,0,2.5V19c0,1.654,1.346,3,3,3h17.5c1.93,0,3.5-1.568,3.5-3.5v-12C24,6.225,23.775,6,23.5,6z M15,6H5.5
		C5.224,6,5,6.225,5,6.5V19c0,1.104-0.897,2-2,2s-2-0.896-2-2V3h6v1.5C7,4.777,7.224,5,7.5,5H15V6z M13,4
		c0-0.065,0.007-0.13,0.019-0.193c0.06-0.299,0.254-0.548,0.517-0.686C13.674,3.046,13.832,3,14,3c0.553,0,1,0.449,1,1H13z
		 M20,14.794l-1.647-1.647C18.256,13.05,18.128,13,18,13c-0.128,0-0.256,0.05-0.354,0.147L16,14.794V4c0-0.364-0.098-0.706-0.268-1
		H19.5C19.775,3,20,3.225,20,3.5V14.794z"/>
</g>
<g id="Outline_Icons">
	<g>
		<path fill="none" stroke="#000000" stroke-linecap="round" stroke-linejoin="round" stroke-miterlimit="10" d="M13.5,6.5h-8V19
			c0,1.381-1.12,2.5-2.5,2.5c-1.382,0-2.5-1.119-2.5-2.5V2.5h7v2h8"/>
		<path fill="none" stroke="#000000" stroke-linecap="round" stroke-linejoin="round" stroke-miterlimit="10" d="M3,21.5h17.5
			c1.656,0,3-1.344,3-3v-12h-1"/>
		<path fill="none" stroke="#000000" stroke-linecap="round" stroke-linejoin="round" stroke-miterlimit="10" d="M14,2.5h5.5
			c0.553,0,1,0.447,1,1V16L18,13.5L15.5,16V4C15.5,3.171,14.828,2.5,14,2.5c-0.83,0-1.5,0.671-1.5,1.5v0.5"/>
	</g>
</g>
</svg>
