<?xml version="1.0" encoding="utf-8"?>
<!-- Generator: Adobe Illustrator 19.2.0, SVG Export Plug-In . SVG Version: 6.00 Build 0)  -->
<svg version="1.1" id="Layer_1" xmlns="http://www.w3.org/2000/svg" xmlns:xlink="http://www.w3.org/1999/xlink" x="0px" y="0px"
	 viewBox="0 0 24 24" enable-background="new 0 0 24 24" xml:space="preserve">
<g id="Filled_Icons" display="none">
	<g display="inline">
		<path d="M20.598,10.731c0.109-0.111,0.258-0.151,0.402-0.137V4.499c0-0.275-0.225-0.5-0.5-0.5H19v-1.5c0-0.275-0.225-0.5-0.5-0.5
			H6v-1.5c0-0.275-0.224-0.5-0.5-0.5h-5c-0.276,0-0.5,0.225-0.5,0.5v15.5c0,1.103,0.897,2,2,2h11.329L20.598,10.731z M3,4.499v11.5
			c0,0.551-0.449,1-1,1c-0.551,0-1-0.449-1-1v-15h4v1.5c0,0.277,0.224,0.5,0.5,0.5H18v1H3.5C3.224,3.999,3,4.223,3,4.499z"/>
		<path d="M11.968,23.363c-0.05,0.174-0.001,0.361,0.127,0.49C12.19,23.949,12.317,24,12.448,24c0.045,0,0.091-0.007,0.136-0.018
			l3.219-0.92l-2.916-2.916L11.968,23.363z"/>
		<path d="M23.805,14.647l-2.5-2.501c-0.086-0.085-0.193-0.126-0.305-0.137v-0.168l-0.049-0.049l-2,1.999l3.207,3.208l1.646-1.645
			c0.094-0.095,0.146-0.221,0.146-0.355C23.951,14.867,23.898,14.738,23.805,14.647z"/>
		<polygon points="14.743,17.999 14.743,17.999 13.447,19.293 16.654,22.5 20.413,18.743 21.451,17.706 18.243,14.498 		"/>
	</g>
</g>
<g id="Outline_Icons">
	<g>
		<g>
			<path fill="none" stroke="#000000" stroke-linecap="round" stroke-linejoin="round" stroke-miterlimit="10" d="M18.5,4.5v-2h-13
				v-2h-5V16c0,0.828,0.67,1.5,1.5,1.5c0.828,0,1.5-0.672,1.5-1.5V4.5h17v5"/>
			
				<line fill="none" stroke="#000000" stroke-linecap="round" stroke-linejoin="round" stroke-miterlimit="10" x1="2" y1="17.5" x2="9.5" y2="17.5"/>
		</g>
		<g>
			<polygon fill="none" stroke="#000000" stroke-linecap="round" stroke-linejoin="round" stroke-miterlimit="10" points="
				15.998,22.5 12.498,23.5 13.498,20 21,12.499 23.5,14.999 			"/>
			<line fill="none" stroke="#000000" stroke-linejoin="round" stroke-miterlimit="10" x1="19" y1="14.499" x2="21.5" y2="16.999"/>
			
				<line fill="none" stroke="#000000" stroke-linecap="round" stroke-linejoin="round" stroke-miterlimit="10" x1="13.498" y1="20" x2="15.998" y2="22.5"/>
		</g>
	</g>
</g>
</svg>
