<?xml version="1.0" encoding="utf-8"?>
<!-- Generator: Adobe Illustrator 19.2.0, SVG Export Plug-In . SVG Version: 6.00 Build 0)  -->
<svg version="1.1" id="Layer_1" xmlns="http://www.w3.org/2000/svg" xmlns:xlink="http://www.w3.org/1999/xlink" x="0px" y="0px"
	 viewBox="0 0 24 24" enable-background="new 0 0 24 24" xml:space="preserve">
<g id="Filled_Icons" display="none">
	<g display="inline">
		<path d="M11.148,16.031c0.227-0.619,0.817-1.032,1.469-1.032h2.406l2.49-4.459c0.084-0.17,0.258-0.277,0.446-0.277h0.001
			c0.189,0.001,0.361,0.107,0.446,0.277l2.47,4.458H21v-10.5c0-0.275-0.225-0.5-0.5-0.5H19v-1.5c0-0.275-0.225-0.5-0.5-0.5H6v-1.5
			c0-0.275-0.224-0.5-0.5-0.5h-5c-0.276,0-0.5,0.225-0.5,0.5v15.5c0,1.104,0.897,2,2,2h9.905l-0.288-0.24
			C11.114,17.35,10.923,16.652,11.148,16.031z M3,4.499v11.5c0,0.551-0.449,1-1,1c-0.551,0-1-0.449-1-1v-15h4v1.5
			c0,0.277,0.224,0.5,0.5,0.5H18v1H3.5C3.224,3.999,3,4.223,3,4.499z"/>
		<path d="M21.292,18.945l2.477-2.063c0.16-0.134,0.221-0.354,0.149-0.554c-0.072-0.197-0.26-0.33-0.471-0.33h-2.881
			c-0.189,0-0.362-0.107-0.447-0.277l-1.717-3.446c-0.084-0.169-0.256-0.276-0.446-0.277c-0.188,0-0.363,0.107-0.448,0.276
			l-1.731,3.449c-0.084,0.17-0.258,0.275-0.446,0.275h-2.715c-0.234,0-0.447,0.15-0.529,0.374c-0.078,0.218-0.011,0.472,0.165,0.614
			l2.351,1.959l0,0l0.263,0.219l-0.677,2.031l-0.715,2.146c-0.068,0.203,0.002,0.428,0.172,0.557C13.736,23.967,13.842,24,13.947,24
			c0.1,0,0.199-0.029,0.283-0.088l3.717-2.553l3.718,2.553c0.177,0.121,0.412,0.115,0.583-0.014c0.171-0.129,0.24-0.354,0.174-0.558
			l-1.1-3.301l-0.293-0.876L21.292,18.945L21.292,18.945z"/>
	</g>
</g>
<g id="Outline_Icons">
	<g>
		<g>
			<path fill="none" stroke="#000000" stroke-linecap="round" stroke-linejoin="round" stroke-miterlimit="10" d="M18.5,4.5v-2h-13
				v-2h-5V16c0,0.828,0.67,1.5,1.5,1.5c0.828,0,1.5-0.672,1.5-1.5V4.5h17v5"/>
			
				<line fill="none" stroke="#000000" stroke-linecap="round" stroke-linejoin="round" stroke-miterlimit="10" x1="2" y1="17.5" x2="9.5" y2="17.5"/>
		</g>
		<g>
			<polygon fill="none" stroke="#000000" stroke-linejoin="round" stroke-miterlimit="10" points="18.008,12.5 20,16.5 23.5,16.5 
				20.5,19 22,23.5 18,20.753 14,23.5 15.5,19 12.5,16.5 16,16.5 			"/>
		</g>
	</g>
</g>
</svg>
