<?xml version="1.0" encoding="utf-8"?>
<!-- Generator: Adobe Illustrator 19.2.0, SVG Export Plug-In . SVG Version: 6.00 Build 0)  -->
<svg version="1.1" id="Layer_1" xmlns="http://www.w3.org/2000/svg" xmlns:xlink="http://www.w3.org/1999/xlink" x="0px" y="0px"
	 viewBox="0 0 24 24" enable-background="new 0 0 24 24" xml:space="preserve">
<g id="Filled_Icons" display="none">
	<g display="inline">
		<path d="M1,6.5C1,5.671,1.671,5,2.5,5H19V4.5C19,4.224,18.775,4,18.5,4H7.707L5.854,2.146C5.76,2.053,5.633,2,5.5,2h-5
			C0.224,2,0,2.224,0,2.5v14C0,16.775,0.224,17,0.5,17H1V6.5z"/>
		<path d="M3,8.5C3,7.671,3.671,7,4.5,7H21V6.5C21,6.224,20.775,6,20.5,6h-18C2.224,6,2,6.224,2,6.5v12C2,18.775,2.224,19,2.5,19H3
			V8.5z"/>
		<path d="M22.5,8h-18C4.224,8,4,8.224,4,8.5v12C4,20.775,4.224,21,4.5,21h18c0.275,0,0.5-0.225,0.5-0.5v-12
			C23,8.224,22.775,8,22.5,8z M13,18H7.5C7.224,18,7,17.775,7,17.5C7,17.225,7.224,17,7.5,17H13c0.275,0,0.5,0.225,0.5,0.5
			C13.5,17.775,13.275,18,13,18z M13,15H7.5C7.224,15,7,14.775,7,14.5C7,14.225,7.224,14,7.5,14H13c0.275,0,0.5,0.225,0.5,0.5
			C13.5,14.775,13.275,15,13,15z M20,14.5c0,0.275-0.225,0.5-0.5,0.5c-0.275,0-0.5-0.225-0.5-0.5V14h-1v3h1
			c0.275,0,0.5,0.225,0.5,0.5c0,0.275-0.225,0.5-0.5,0.5h-3c-0.275,0-0.5-0.225-0.5-0.5c0-0.275,0.225-0.5,0.5-0.5h1v-3h-1v0.5
			c0,0.275-0.225,0.5-0.5,0.5c-0.275,0-0.5-0.225-0.5-0.5v-1c0-0.275,0.225-0.5,0.5-0.5h4c0.275,0,0.5,0.225,0.5,0.5V14.5z M19.5,12
			h-12C7.224,12,7,11.776,7,11.5C7,11.224,7.224,11,7.5,11h12c0.275,0,0.5,0.224,0.5,0.5C20,11.776,19.775,12,19.5,12z"/>
	</g>
</g>
<g id="Outline_Icons">
	<g>
		<g>
			<polyline fill="none" stroke="#000000" stroke-linecap="round" stroke-linejoin="round" stroke-miterlimit="10" points="
				18.5,6.5 18.5,4.5 7.5,4.5 5.5,2.5 0.5,2.5 0.5,16.5 			"/>
		</g>
		<g>
			<polyline fill="none" stroke="#000000" stroke-linecap="round" stroke-linejoin="round" stroke-miterlimit="10" points="
				20.5,8.5 20.5,6.5 2.5,6.5 2.5,18.5 			"/>
		</g>
		<g>
			
				<rect x="4.5" y="8.5" fill="none" stroke="#000000" stroke-linecap="round" stroke-linejoin="round" stroke-miterlimit="10" width="18" height="12"/>
		</g>
		
			<line fill="none" stroke="#000000" stroke-linecap="round" stroke-linejoin="round" stroke-miterlimit="10" x1="7.5" y1="11.5" x2="19.5" y2="11.5"/>
		
			<line fill="none" stroke="#000000" stroke-linecap="round" stroke-linejoin="round" stroke-miterlimit="10" x1="7.5" y1="14.5" x2="13" y2="14.5"/>
		
			<line fill="none" stroke="#000000" stroke-linecap="round" stroke-linejoin="round" stroke-miterlimit="10" x1="7.5" y1="17.5" x2="13" y2="17.5"/>
		<g>
			<polyline fill="none" stroke="#000000" stroke-linecap="round" stroke-linejoin="round" stroke-miterlimit="10" points="
				15.5,14.5 15.5,13.5 19.5,13.5 19.5,14.5 			"/>
			
				<line fill="none" stroke="#000000" stroke-linecap="round" stroke-linejoin="round" stroke-miterlimit="10" x1="17.5" y1="13.5" x2="17.5" y2="17.5"/>
			
				<line fill="none" stroke="#000000" stroke-linecap="round" stroke-linejoin="round" stroke-miterlimit="10" x1="16" y1="17.5" x2="19" y2="17.5"/>
		</g>
	</g>
</g>
</svg>
