<?xml version="1.0" encoding="utf-8"?>
<!-- Generator: Adobe Illustrator 19.2.0, SVG Export Plug-In . SVG Version: 6.00 Build 0)  -->
<svg version="1.1" id="Layer_1" xmlns="http://www.w3.org/2000/svg" xmlns:xlink="http://www.w3.org/1999/xlink" x="0px" y="0px"
	 viewBox="0 0 24 24" enable-background="new 0 0 24 24" xml:space="preserve">
<g id="Filled_Icons" display="none">
	<g display="inline">
		<path d="M17.5,11c-3.584,0-6.5,2.916-6.5,6.5s2.916,6.5,6.5,6.5s6.5-2.916,6.5-6.5S21.084,11,17.5,11z M17.5,21.359
			c-0.328,0-0.593-0.266-0.593-0.594c0-0.326,0.265-0.593,0.593-0.593c0.327,0,0.593,0.267,0.593,0.593
			C18.093,21.094,17.827,21.359,17.5,21.359z M18,17.951v1.333c0,0.276-0.225,0.5-0.5,0.5c-0.275,0-0.5-0.224-0.5-0.5v-1.778
			c0-0.277,0.225-0.5,0.5-0.5c0.705,0,1.277-0.572,1.277-1.279c0-0.705-0.572-1.277-1.277-1.277c-0.705,0-1.277,0.572-1.277,1.277
			c0,0.276-0.225,0.5-0.5,0.5c-0.277,0-0.5-0.224-0.5-0.5c0-1.256,1.021-2.277,2.277-2.277c1.256,0,2.277,1.022,2.277,2.277
			C19.777,16.813,19.018,17.723,18,17.951z"/>
		<path d="M17.5,10c1.264,0,2.454,0.318,3.5,0.872V4.5C21,4.225,20.775,4,20.5,4H19V2.5C19,2.225,18.775,2,18.5,2H6V0.5
			C6,0.225,5.776,0,5.5,0h-5C0.224,0,0,0.225,0,0.5V16c0,1.104,0.897,2,2,2h8.025C10.014,17.834,10,17.668,10,17.5
			C10,13.365,13.365,10,17.5,10z M3,4.5V16c0,0.551-0.449,1-1,1c-0.551,0-1-0.449-1-1V1h4v1.5C5,2.777,5.224,3,5.5,3H18v1H3.5
			C3.224,4,3,4.225,3,4.5z"/>
	</g>
</g>
<g id="Outline_Icons">
	<g>
		<g>
			<path fill="none" stroke="#000000" stroke-linecap="round" stroke-linejoin="round" stroke-miterlimit="10" d="M18.5,4.5v-2h-13
				v-2h-5V16c0,0.828,0.67,1.5,1.5,1.5c0.828,0,1.5-0.672,1.5-1.5V4.5h17V10"/>
			
				<line fill="none" stroke="#000000" stroke-linecap="round" stroke-linejoin="round" stroke-miterlimit="10" x1="2" y1="17.5" x2="9.5" y2="17.5"/>
		</g>
		<g>
			<circle fill="none" stroke="#000000" stroke-linejoin="round" stroke-miterlimit="10" cx="17.5" cy="17.535" r="6"/>
			<g>
				<g>
					<path d="M17.5,20.209c-0.328,0-0.593,0.266-0.593,0.594c0,0.326,0.265,0.592,0.593,0.592c0.327,0,0.593-0.266,0.593-0.592
						C18.093,20.475,17.827,20.209,17.5,20.209L17.5,20.209z"/>
				</g>
			</g>
			<path fill="none" stroke="#000000" stroke-linecap="round" stroke-linejoin="round" stroke-miterlimit="10" d="M15.723,15.764
				c0-0.983,0.795-1.779,1.777-1.779c0.98,0,1.777,0.797,1.777,1.779c0,0.981-0.797,1.777-1.777,1.777v1.777"/>
		</g>
	</g>
</g>
</svg>
