<?xml version="1.0" encoding="utf-8"?>
<!-- Generator: Adobe Illustrator 19.2.0, SVG Export Plug-In . SVG Version: 6.00 Build 0)  -->
<svg version="1.1" id="Layer_1" xmlns="http://www.w3.org/2000/svg" xmlns:xlink="http://www.w3.org/1999/xlink" x="0px" y="0px"
	 viewBox="0 0 24 24" style="enable-background:new 0 0 24 24;" xml:space="preserve">
<style type="text/css">
	.st0{display:none;}
	.st1{display:inline;}
	.st2{fill:none;stroke:#000000;stroke-linecap:round;stroke-linejoin:round;stroke-miterlimit:10;}
	.st3{fill:none;stroke:#000000;stroke-linejoin:round;stroke-miterlimit:10;}
</style>
<g id="Filled_Icon" class="st0">
	<g class="st1">
		<path d="M4,17h1.5c0,0,0,0,0,0H7c0.6,0,1-0.4,1-1c0-0.5-0.4-1-1-1l1.3-3h7.4l1.3,3c-0.5,0-1,0.5-1,1c0,0.6,0.4,1,1,1h1.5l0,0
			c0,0,0,0,0,0H20c0.6,0,1-0.4,1-1c0-0.6-0.4-1-1-1h-0.8L12.9,0.6C12.8,0.2,12.4,0,12,0c-0.4,0-0.8,0.2-0.9,0.6L4.8,15H4
			c-0.6,0-1,0.4-1,1C3,16.6,3.4,17,4,17z M12,3.5l2.8,6.5H9.2L12,3.5z"/>
		<path d="M23.5,18h-23C0.2,18,0,18.2,0,18.5v5C0,23.8,0.2,24,0.5,24h23c0.3,0,0.5-0.2,0.5-0.5v-5C24,18.2,23.8,18,23.5,18z
			 M20,22.2L17.8,20h4.4L20,22.2z"/>
	</g>
</g>
<g id="Outline_Icons">
	<g>
		<polyline class="st2" points="18.5,15.5 12,0.5 5.5,15.5 		"/>
		<line class="st2" x1="8" y1="10.5" x2="16" y2="10.5"/>
		<line class="st2" x1="4" y1="15.5" x2="7" y2="15.5"/>
		<line class="st2" x1="17" y1="15.5" x2="20" y2="15.5"/>
		<rect x="0.5" y="18.5" class="st2" width="23" height="5"/>
		<polygon class="st3" points="19,20.5 21,20.5 20,21.5 		"/>
	</g>
</g>
</svg>
