<?xml version="1.0" encoding="utf-8"?>
<!-- Generator: Adobe Illustrator 19.2.0, SVG Export Plug-In . SVG Version: 6.00 Build 0)  -->
<svg version="1.1" id="Layer_1" xmlns="http://www.w3.org/2000/svg" xmlns:xlink="http://www.w3.org/1999/xlink" x="0px" y="0px"
	 viewBox="0 0 24 24" style="enable-background:new 0 0 24 24;" xml:space="preserve">
<style type="text/css">
	.st0{display:none;}
	.st1{display:inline;}
	.st2{fill:none;stroke:#000000;stroke-linecap:round;stroke-linejoin:round;stroke-miterlimit:10;}
</style>
<g id="Filled_Icon" class="st0">
	<g class="st1">
		<g>
			<path d="M13,22.5c0-0.7,0.3-1.3,0.8-1.6l-0.8-2.2l-1,2.8h-0.3c-0.6,0-1,0.4-1,1c0,0.6,0.4,1,1,1h1h0c0,0,0,0,0,0h0.4
				C13.1,23.2,13,22.9,13,22.5z"/>
			<path d="M23,21.5h-0.3L18.3,8.7C18.2,8.3,17.8,8,17.4,8c-0.4,0-0.8,0.3-0.9,0.7l-1.3,3.8l1.1,3.1l1.2-3.4l1.5,4.4h-2.4l0.7,2h2.4
				l1.1,3.1c-0.4,0.2-0.6,0.5-0.6,0.9c0,0.6,0.4,1,1,1h2c0.6,0,1-0.4,1-1C24,21.9,23.6,21.5,23,21.5z"/>
		</g>
		<path d="M18,21.5h-0.8L10.4,1.7C10.3,1.3,9.9,1,9.5,1C9.1,1,8.7,1.3,8.5,1.7L1.8,21.5H1c-0.6,0-1,0.4-1,1c0,0.6,0.4,1,1,1h3
			c0.6,0,1-0.4,1-1c0-0.6-0.4-1-1-1H3.9l1.7-5h7.8l1.7,5H15c-0.6,0-1,0.4-1,1c0,0.6,0.4,1,1,1h3c0.6,0,1-0.4,1-1
			C19,21.9,18.6,21.5,18,21.5z M6.3,14.5l3.2-9.4l3.2,9.4H6.3z"/>
	</g>
</g>
<g id="Outline_Icons">
	<g>
		<polyline class="st2" points="16,22.5 9,2 2,22.5 		"/>
		<line class="st2" x1="4.4" y1="15.5" x2="13.6" y2="15.5"/>
		<line class="st2" x1="0.5" y1="22.5" x2="3.5" y2="22.5"/>
		<line class="st2" x1="14.5" y1="22.5" x2="17.5" y2="22.5"/>
		<polyline class="st2" points="22.5,22.5 17.9,9 15.5,16 		"/>
		<line class="st2" x1="16.9" y1="17.5" x2="20.7" y2="17.5"/>
		<line class="st2" x1="21.5" y1="22.5" x2="23.5" y2="22.5"/>
	</g>
</g>
</svg>
