<?xml version="1.0" encoding="utf-8"?>
<!-- Generator: Adobe Illustrator 19.2.0, SVG Export Plug-In . SVG Version: 6.00 Build 0)  -->
<svg version="1.1" id="Layer_1" xmlns="http://www.w3.org/2000/svg" xmlns:xlink="http://www.w3.org/1999/xlink" x="0px" y="0px"
	 viewBox="0 0 24 24" style="enable-background:new 0 0 24 24;" xml:space="preserve">
<style type="text/css">
	.st0{display:none;}
	.st1{display:inline;}
	.st2{fill:none;stroke:#000000;stroke-linejoin:round;stroke-miterlimit:10;}
	.st3{fill:none;stroke:#000000;stroke-linecap:round;stroke-linejoin:round;stroke-miterlimit:10;}
</style>
<g id="Filled_Icons" class="st0">
	<g class="st1">
		<path d="M4.5,17h-4C0.2,17,0,17.2,0,17.5v6C0,23.8,0.2,24,0.5,24h4C4.8,24,5,23.8,5,23.5v-6C5,17.2,4.8,17,4.5,17z M2.5,22
			C2.2,22,2,21.8,2,21.5C2,21.2,2.2,21,2.5,21C2.8,21,3,21.2,3,21.5C3,21.8,2.8,22,2.5,22z"/>
		<path d="M13.5,20c0,0-0.8,0-0.8,0s-1.9-2-4.2-2H6c-0.3,0-0.5,0.2-0.5,0.5v4C5.5,22.8,5.7,23,6,23h15c0.3,0,0.5-0.2,0.5-0.5
			C21.5,20.8,18.9,20,13.5,20z"/>
		<path d="M23.5,13h-23C0.2,13,0,13.2,0,13.5C0,13.8,0.2,14,0.5,14h0.8l1.9,1.9C3.2,16,3.4,16,3.5,16h17c0.1,0,0.3-0.1,0.4-0.1
			l1.9-1.9h0.8c0.3,0,0.5-0.2,0.5-0.5C24,13.2,23.8,13,23.5,13z"/>
		<path d="M3,12.5h18c0,0,0,0,0,0c0.3,0,0.5-0.2,0.5-0.5c0-4.3-3.4-8.1-7.9-8.9C13.9,2.8,14,2.4,14,2c0-1.1-0.9-2-2-2
			c-1.1,0-2,0.9-2,2c0,0.4,0.1,0.8,0.4,1.1C6,3.9,2.5,7.7,2.5,12C2.5,12.3,2.7,12.5,3,12.5z M12,1c0.6,0,1,0.4,1,1c0,0.6-0.4,1-1,1
			c-0.6,0-1-0.4-1-1C11,1.5,11.4,1,12,1z M6.1,8.7c1.3-2,3.5-3.2,5.9-3.2c0.3,0,0.5,0.2,0.5,0.5c0,0.3-0.2,0.5-0.5,0.5
			c-2.1,0-3.9,1-5.1,2.8C6.8,9.4,6.7,9.5,6.5,9.5c-0.1,0-0.2,0-0.3-0.1C6,9.3,6,9,6.1,8.7z"/>
	</g>
</g>
<g id="Outline_Icons">
	<g>
		<rect x="0.5" y="17.5" class="st2" width="4" height="6"/>
		<path class="st3" d="M4.5,22.5h15c0-1.5-3.5-2-7.5-2H7"/>
		<path class="st2" d="M4.5,18.5H7c2.4,0,3.5,1.5,4,2"/>
		<g>
			<g>
				<path d="M2.5,21C2.2,21,2,21.2,2,21.5C2,21.8,2.2,22,2.5,22C2.8,22,3,21.8,3,21.5C3,21.2,2.8,21,2.5,21L2.5,21z"/>
			</g>
		</g>
		<polygon class="st3" points="22.5,13.5 1.5,13.5 3.5,15.5 20.5,15.5 		"/>
		<line class="st3" x1="0.5" y1="13.5" x2="23.5" y2="13.5"/>
		<circle class="st3" cx="12" cy="3" r="1.5"/>
		<path class="st3" d="M3,13.5c0-5,4-9,9-9c5,0,9,4,9,9"/>
		<path class="st3" d="M6.5,10C7.7,8.2,9.7,7,12,7"/>
	</g>
</g>
</svg>
