<?xml version="1.0" encoding="utf-8"?>
<!-- Generator: Adobe Illustrator 19.2.0, SVG Export Plug-In . SVG Version: 6.00 Build 0)  -->
<svg version="1.1" id="Layer_1" xmlns="http://www.w3.org/2000/svg" xmlns:xlink="http://www.w3.org/1999/xlink" x="0px" y="0px"
	 viewBox="0 0 24 24" enable-background="new 0 0 24 24" xml:space="preserve">
<g id="Filled_Icons" display="none">
	<g display="inline">
		<path d="M23.5,17.006h-23c-0.276,0-0.5,0.225-0.5,0.5c0,0.277,0.224,0.5,0.5,0.5h0.793l1.854,1.854
			c0.094,0.097,0.221,0.146,0.354,0.146h17c0.133,0,0.261-0.051,0.354-0.146l1.854-1.854H23.5c0.275,0,0.5-0.223,0.5-0.5
			C24,17.231,23.775,17.006,23.5,17.006z"/>
		<path d="M3,16.506h18c0.004,0,0.007,0,0.01,0c0.276,0,0.5-0.223,0.5-0.5c0-4.584-3.34-8.559-7.879-9.35
			C13.861,6.33,14,5.935,14,5.506c0-1.103-0.897-2-2-2c-1.104,0-2,0.897-2,2c0,0.43,0.138,0.825,0.369,1.15
			C5.906,7.434,2.5,11.325,2.5,16.006C2.5,16.283,2.724,16.506,3,16.506z M12,4.506c0.551,0,1,0.449,1,1c0,0.553-0.449,1-1,1
			c-0.552,0-1-0.447-1-1C11,4.955,11.448,4.506,12,4.506z M6.101,12.238C7.395,10.214,9.6,9.006,12,9.006c0.276,0,0.5,0.225,0.5,0.5
			c0,0.277-0.224,0.5-0.5,0.5c-2.058,0-3.947,1.036-5.057,2.771c-0.096,0.148-0.257,0.229-0.422,0.229
			c-0.092,0-0.186-0.025-0.269-0.078C6.021,12.779,5.952,12.47,6.101,12.238z"/>
	</g>
</g>
<g id="Outline_Icons">
	<g>
		<polygon fill="none" stroke="#000000" stroke-linecap="round" stroke-linejoin="round" stroke-miterlimit="10" points="22.5,17.5 
			1.5,17.5 3.5,19.5 20.5,19.5 		"/>
		
			<line fill="none" stroke="#000000" stroke-linecap="round" stroke-linejoin="round" stroke-miterlimit="10" x1="0.5" y1="17.5" x2="23.5" y2="17.5"/>
		
			<circle fill="none" stroke="#000000" stroke-linecap="round" stroke-linejoin="round" stroke-miterlimit="10" cx="12" cy="7" r="1.5"/>
		<path fill="none" stroke="#000000" stroke-linecap="round" stroke-linejoin="round" stroke-miterlimit="10" d="M3,17.5
			c0-4.971,4.029-9,9-9c4.971,0,9,4.029,9,9"/>
		<path fill="none" stroke="#000000" stroke-linecap="round" stroke-linejoin="round" stroke-miterlimit="10" d="M6.522,14
			c1.154-1.805,3.175-3,5.478-3"/>
	</g>
</g>
</svg>
