<?xml version="1.0" encoding="utf-8"?>
<!-- Generator: Adobe Illustrator 19.2.0, SVG Export Plug-In . SVG Version: 6.00 Build 0)  -->
<svg version="1.1" id="Layer_1" xmlns="http://www.w3.org/2000/svg" xmlns:xlink="http://www.w3.org/1999/xlink" x="0px" y="0px"
	 viewBox="0 0 24 24" style="enable-background:new 0 0 24 24;" xml:space="preserve">
<style type="text/css">
	.st0{display:none;}
	.st1{display:inline;}
	.st2{fill:none;stroke:#000000;stroke-linecap:round;stroke-linejoin:round;stroke-miterlimit:10;}
</style>
<g id="Filled_Icons" class="st0">
	<g class="st1">
		<path d="M22,10V9c0-0.3-0.2-0.5-0.5-0.5h-15C6.2,8.5,6,8.7,6,9v1H22z"/>
		<path d="M7.4,7.5h13.2c-0.6-2.6-2.7-4.7-5.3-5.3c0.1-0.2,0.2-0.4,0.2-0.7C15.5,0.7,14.8,0,14,0c-0.9,0-1.5,0.7-1.5,1.5
			c0,0.3,0.1,0.5,0.2,0.7C10,2.8,8,4.9,7.4,7.5z"/>
		<path d="M17.2,22.5c0.4,0.9,1.3,1.5,2.3,1.5c1,0,1.9-0.6,2.3-1.5H17.2z"/>
		<path d="M23.5,11H22H6H5.5h-1C4.2,11,4,11.2,4,11.5V16H3V9.5C3,8.1,1.9,7,0.5,7C0.3,7,0,7.2,0,7.5C0,7.8,0.3,8,0.5,8
			C1.3,8,2,8.7,2,9.5v7C2,16.8,2.2,17,2.5,17H4v4c0,0.3,0.2,0.5,0.5,0.5H8v-5C8,16.2,8.2,16,8.5,16C8.8,16,9,16.2,9,16.5v5h4v-5
			c0-0.3,0.2-0.5,0.5-0.5c0.3,0,0.5,0.2,0.5,0.5v5h5v-5c0-0.3,0.2-0.5,0.5-0.5c0.3,0,0.5,0.2,0.5,0.5v5h3.5c0.3,0,0.5-0.2,0.5-0.5
			v-9.5C24,11.2,23.8,11,23.5,11z"/>
		<path d="M6.2,22.5C6.6,23.4,7.5,24,8.5,24s1.9-0.6,2.3-1.5H6.2z"/>
	</g>
</g>
<g id="Outline_Icons">
	<g>
		<path class="st2" d="M10.5,21.5c0,1.1-0.9,2-2,2c-1.1,0-2-0.9-2-2"/>
		<path class="st2" d="M21.5,21.5c0,1.1-0.9,2-2,2c-1.1,0-2-0.9-2-2"/>
		<line class="st2" x1="6" y1="11.5" x2="22" y2="11.5"/>
		<circle class="st2" cx="14" cy="2.3" r="1"/>
		<path class="st2" d="M7.7,9.5c0.1-3.4,2.8-6.2,6.2-6.2c3.4,0,6.2,2.8,6.3,6.2"/>
		<rect x="4.5" y="11.5" class="st2" width="19" height="10"/>
		<rect x="6.5" y="9.5" class="st2" width="15" height="2"/>
		<path class="st2" d="M0.5,7.5c1.1,0,2,0.9,2,2v7h2"/>
		<line class="st2" x1="8.5" y1="21.5" x2="8.5" y2="16.5"/>
		<line class="st2" x1="13.5" y1="21.5" x2="13.5" y2="16.5"/>
		<line class="st2" x1="19.5" y1="21.5" x2="19.5" y2="16.5"/>
	</g>
</g>
</svg>
