<?xml version="1.0" encoding="utf-8"?>
<!-- Generator: Adobe Illustrator 19.2.0, SVG Export Plug-In . SVG Version: 6.00 Build 0)  -->
<svg version="1.1" id="Layer_1" xmlns="http://www.w3.org/2000/svg" xmlns:xlink="http://www.w3.org/1999/xlink" x="0px" y="0px"
	 viewBox="0 0 24 24" enable-background="new 0 0 24 24" xml:space="preserve">
<g id="Filled_Icons" display="none">
	<g display="inline">
		<path d="M23.5,18.006h-1.544c-0.097-0.703-0.396-1.292-0.92-1.736c-1.32-1.123-3.616-0.992-4.433-0.9
			c-0.545-0.646-2.215-2.362-4.604-2.362c-2.387,0-4.056,1.712-4.603,2.359c-0.816-0.099-3.082-0.25-4.407,0.862
			c-0.537,0.451-0.846,1.053-0.944,1.777H0.5c-0.276,0-0.5,0.225-0.5,0.5c0,0.275,0.224,0.5,0.5,0.5h3.732l1.852,2.777
			c0.093,0.14,0.249,0.223,0.416,0.223h11c0.167,0,0.322-0.083,0.416-0.223l1.852-2.777H23.5c0.275,0,0.5-0.225,0.5-0.5
			C24,18.231,23.775,18.006,23.5,18.006z M3.632,16.995c1.244-1.048,3.867-0.606,3.893-0.603c0.186,0.033,0.38-0.045,0.491-0.199
			c0.016-0.021,1.607-2.188,3.984-2.188c2.361,0,3.967,2.166,3.982,2.188c0.111,0.154,0.306,0.229,0.484,0.201
			c0.741-0.123,2.889-0.242,3.922,0.635c0.299,0.256,0.482,0.578,0.562,0.977H3.05C3.132,17.59,3.322,17.256,3.632,16.995z"/>
		<path d="M5.673,8.694c-0.195,0.196-0.195,0.513,0,0.707c0.098,0.098,0.226,0.146,0.354,0.146c0.128,0,0.255-0.048,0.353-0.146
			c1.156-1.155,0.449-2.093,0.026-2.652c-0.438-0.581-0.619-0.821-0.051-1.39c0.195-0.195,0.195-0.512,0-0.707
			c-0.195-0.195-0.512-0.195-0.707,0C4.464,5.836,5.18,6.784,5.608,7.351C6.049,7.935,6.214,8.153,5.673,8.694z"/>
		<path d="M17.62,9.401c0.098,0.098,0.226,0.146,0.354,0.146c0.127,0,0.256-0.049,0.354-0.146c0.195-0.194,0.195-0.511,0-0.707
			c-0.541-0.541-0.376-0.76,0.065-1.343c0.428-0.567,1.143-1.516-0.041-2.699c-0.194-0.195-0.512-0.195-0.707,0
			c-0.194,0.195-0.194,0.512,0,0.707c0.568,0.568,0.388,0.809-0.051,1.39C17.171,7.309,16.464,8.246,17.62,9.401z"/>
		<path d="M11.688,8.65c-0.195,0.195-0.195,0.512,0,0.707c0.098,0.098,0.226,0.146,0.354,0.146c0.128,0,0.256-0.049,0.354-0.146
			c1.786-1.785,0.761-3.144,0.013-4.135c-0.767-1.016-1.272-1.687-0.055-2.905c0.195-0.194,0.195-0.511,0-0.707
			c-0.195-0.195-0.512-0.195-0.707,0c-1.833,1.833-0.795,3.21-0.036,4.215C12.362,6.822,12.859,7.48,11.688,8.65z"/>
	</g>
</g>
<g id="Outline_Icons">
	<g>
		
			<line fill="none" stroke="#000000" stroke-linecap="round" stroke-linejoin="round" stroke-miterlimit="10" x1="0.5" y1="18.5" x2="23.5" y2="18.5"/>
		<polygon fill="none" stroke="#000000" stroke-linecap="round" stroke-linejoin="round" stroke-miterlimit="10" points="19.5,18.5 
			4.5,18.5 6.5,21.5 17.5,21.5 		"/>
		<path fill="none" stroke="#000000" stroke-linecap="round" stroke-linejoin="round" stroke-miterlimit="10" d="M21.5,18.479
			c0-3.416-5.111-2.584-5.111-2.584S14.658,13.5,12,13.5c-2.66,0-4.39,2.395-4.39,2.395S2.5,14.999,2.5,18.5"/>
		<path fill="none" stroke="#000000" stroke-linecap="round" stroke-linejoin="round" stroke-miterlimit="10" d="M6.002,5
			C4.26,6.743,7.732,7.336,6.026,9.042"/>
		<path fill="none" stroke="#000000" stroke-linecap="round" stroke-linejoin="round" stroke-miterlimit="10" d="M17.998,5
			c1.742,1.743-1.73,2.336-0.023,4.042"/>
		<path fill="none" stroke="#000000" stroke-linecap="round" stroke-linejoin="round" stroke-miterlimit="10" d="M12,1.958
			c-3.035,3.035,3.014,4.068,0.042,7.04"/>
	</g>
</g>
</svg>
