<?xml version="1.0" encoding="utf-8"?>
<!-- Generator: Adobe Illustrator 19.2.0, SVG Export Plug-In . SVG Version: 6.00 Build 0)  -->
<svg version="1.1" id="Outline_Icons" xmlns="http://www.w3.org/2000/svg" xmlns:xlink="http://www.w3.org/1999/xlink" x="0px"
	 y="0px" viewBox="0 0 24 24" style="enable-background:new 0 0 24 24;" xml:space="preserve">
<style type="text/css">
	.st0{fill:none;stroke:#000000;stroke-linejoin:round;stroke-miterlimit:10;}
	.st1{fill:none;stroke:#000000;stroke-linecap:round;stroke-linejoin:round;stroke-miterlimit:10;}
</style>
<g>
	<g>
		<g>
			<path class="st0" d="M6.4,19.5c0,0,0.7-4.2-1.3-6.5c-0.1-0.1-0.1-0.3,0-0.4c0.7-0.8,2.5,0,4.3,3.3c0.5,0.9,1.5,0.8,2.3,0.3
				c1.6-0.9,3.8-3.4,5.3-3.7c2-0.5,2.6,0.7,2.3,1.1l-8.6,8.6L6.4,19.5z"/>
		</g>
	</g>
	<polygon class="st1" points="9.4,23.5 10.7,22.2 6.4,19.5 2.8,23.5 	"/>
	<line class="st1" x1="23.5" y1="11.5" x2="0.6" y2="11.5"/>
	<path class="st1" d="M21.5,11.5c0-0.2,0-0.3,0-0.5c0-5.2-4.3-9.5-9.5-9.5S2.5,5.8,2.5,11c0,0.2,0,0.3,0,0.5H21.5z"/>
	<path class="st1" d="M12,4C8.8,4,6.1,6.1,5.2,9"/>
	<line class="st1" x1="11.5" y1="1.5" x2="11.5" y2="0.5"/>
</g>
</svg>
