<?xml version="1.0" encoding="utf-8"?>
<!-- Generator: Adobe Illustrator 19.2.0, SVG Export Plug-In . SVG Version: 6.00 Build 0)  -->
<svg version="1.1" id="Layer_1" xmlns="http://www.w3.org/2000/svg" xmlns:xlink="http://www.w3.org/1999/xlink" x="0px" y="0px"
	 viewBox="0 0 24 24" enable-background="new 0 0 24 24" xml:space="preserve">
<g id="Filled_Icons" display="none">
	<g display="inline">
		<path d="M12.93,6.598c-1.746,0-3.942,0.873-4.877,3.326c-0.908,2.388-0.52,3.924-0.07,5.702c0.33,1.306,0.704,2.788,0.704,4.987
			c0,2.125,1.355,3.393,3.627,3.393c1.196,0,3.095-0.893,3.095-3.294c0-1.338-0.271-2.381-0.511-3.301
			c-0.483-1.862-0.834-3.207,1.244-6.013c0.75-1.013,0.912-2.064,0.461-2.962C16.04,7.318,14.598,6.598,12.93,6.598z"/>
		<path d="M11.039,5.754h0.024c1.063,0,1.914-1.172,1.936-2.67c0.011-0.682-0.156-1.334-0.47-1.834
			c-0.349-0.559-0.862-0.886-1.432-0.894c-1.064,0-1.915,1.173-1.937,2.67C9.151,3.709,9.317,4.361,9.63,4.86
			C9.98,5.42,10.494,5.746,11.039,5.754z M11.063,5.251L11.063,5.251v0.002V5.251z"/>
		<path d="M15.371,5.754h0.023c1.064,0,1.914-1.172,1.937-2.67c0.011-0.681-0.156-1.333-0.47-1.833
			c-0.35-0.559-0.862-0.886-1.432-0.894c-1.064,0-1.916,1.173-1.938,2.67c-0.01,0.682,0.156,1.333,0.469,1.833
			C14.312,5.42,14.826,5.746,15.371,5.754z M15.396,5.251L15.396,5.251v0.002V5.251z"/>
		<path d="M8.068,7.644C8.949,7.405,9.381,6.266,9.052,5.05c-0.323-1.2-1.296-1.971-2.157-1.743C6.44,3.429,6.083,3.805,5.912,4.338
			C5.765,4.803,5.764,5.358,5.91,5.899C6.195,6.955,7.072,7.913,8.068,7.644z"/>
		<path d="M4.545,7.532c-0.676,0.447-0.73,1.521-0.121,2.441c0.529,0.799,1.539,1.34,2.295,0.843c0.677-0.448,0.729-1.52,0.121-2.44
			C6.248,7.482,5.206,7.097,4.545,7.532z"/>
	</g>
</g>
<g id="Outline_Icons">
	<g>
		<path fill="none" stroke="#000000" stroke-linejoin="round" stroke-miterlimit="10" d="M15.74,11.094
			c-3.284,4.437-0.832,5.681-0.832,9.612c0,2.03-1.598,2.794-2.595,2.794c-0.998,0-3.127-0.299-3.127-2.894
			c0-5.322-2.147-6.617-0.666-10.511C10.483,4.94,18.631,7.188,15.74,11.094z"/>
		
			<ellipse transform="matrix(0.0149 -0.9999 0.9999 0.0149 7.8666 14.0826)" fill="none" stroke="#000000" stroke-linejoin="round" stroke-miterlimit="10" cx="11.08" cy="3.049" rx="2.199" ry="1.419"/>
		
			<ellipse transform="matrix(0.0151 -0.9999 0.9999 0.0151 12.1309 18.4133)" fill="none" stroke="#000000" stroke-linejoin="round" stroke-miterlimit="10" cx="15.412" cy="3.049" rx="2.199" ry="1.419"/>
		
			<ellipse transform="matrix(0.9653 -0.261 0.261 0.9653 -1.168 2.1423)" fill="none" stroke="#000000" stroke-linejoin="round" stroke-miterlimit="10" cx="7.481" cy="5.468" rx="1.128" ry="1.748"/>
		
			<ellipse transform="matrix(0.8345 -0.5511 0.5511 0.8345 -4.1199 4.6212)" fill="none" stroke="#000000" stroke-linejoin="round" stroke-miterlimit="10" cx="5.632" cy="9.168" rx="0.948" ry="1.469"/>
	</g>
	<g>
		<path fill="none" stroke="#000000" stroke-linejoin="round" stroke-miterlimit="10" d="M15.74,11.094
			c-3.284,4.437-0.832,5.681-0.832,9.612c0,2.03-1.598,2.794-2.595,2.794c-0.998,0-3.127-0.299-3.127-2.894
			c0-5.322-2.147-6.617-0.666-10.511C10.483,4.94,18.631,7.188,15.74,11.094z"/>
		
			<ellipse transform="matrix(0.0149 -0.9999 0.9999 0.0149 7.8666 14.0826)" fill="none" stroke="#000000" stroke-linejoin="round" stroke-miterlimit="10" cx="11.08" cy="3.049" rx="2.199" ry="1.419"/>
		
			<ellipse transform="matrix(0.0151 -0.9999 0.9999 0.0151 12.1309 18.4133)" fill="none" stroke="#000000" stroke-linejoin="round" stroke-miterlimit="10" cx="15.412" cy="3.049" rx="2.199" ry="1.419"/>
		
			<ellipse transform="matrix(0.9653 -0.261 0.261 0.9653 -1.168 2.1423)" fill="none" stroke="#000000" stroke-linejoin="round" stroke-miterlimit="10" cx="7.481" cy="5.468" rx="1.128" ry="1.748"/>
		
			<ellipse transform="matrix(0.8345 -0.5511 0.5511 0.8345 -4.1199 4.6212)" fill="none" stroke="#000000" stroke-linejoin="round" stroke-miterlimit="10" cx="5.632" cy="9.168" rx="0.948" ry="1.469"/>
	</g>
</g>
</svg>
