<?xml version="1.0" encoding="utf-8"?>
<!-- Generator: Adobe Illustrator 19.2.0, SVG Export Plug-In . SVG Version: 6.00 Build 0)  -->
<svg version="1.1" id="Outline_Icons" xmlns="http://www.w3.org/2000/svg" xmlns:xlink="http://www.w3.org/1999/xlink" x="0px"
	 y="0px" viewBox="0 0 24 24" style="enable-background:new 0 0 24 24;" xml:space="preserve">
<style type="text/css">
	.st0{fill:none;stroke:#000000;stroke-linecap:round;stroke-linejoin:round;stroke-miterlimit:10;}
</style>
<g>
	<circle class="st0" cx="20.5" cy="19.5" r="2"/>
	<path class="st0" d="M4.5,21.5v-17c0-0.6,0.4-1,1-1c0.6,0,1,0.4,1,1v17H4.5z"/>
	<circle class="st0" cx="13.5" cy="18.5" r="3"/>
	<line class="st0" x1="19" y1="9" x2="18" y2="13"/>
	<line class="st0" x1="12.5" y1="11" x2="13.5" y2="12"/>
	<line class="st0" x1="13" y1="11.5" x2="8.5" y2="16"/>
	<polyline class="st0" points="21.5,13.5 16,13.5 13.5,15.5 	"/>
	<line class="st0" x1="6.5" y1="21.5" x2="0.5" y2="21.5"/>
	<line class="st0" x1="4.5" y1="16.5" x2="1.5" y2="16.5"/>
	<path class="st0" d="M22.5,19.5h1v-5l-2-1v-6c0-1.1-0.9-2-2-2h-2c-5,0-9,4-9,9v5h2"/>
	<line class="st0" x1="16.5" y1="19.5" x2="18.5" y2="19.5"/>
</g>
</svg>
