<?xml version="1.0" encoding="utf-8"?>
<!-- Generator: Adobe Illustrator 19.2.0, SVG Export Plug-In . SVG Version: 6.00 Build 0)  -->
<svg version="1.1" id="Layer_1" xmlns="http://www.w3.org/2000/svg" xmlns:xlink="http://www.w3.org/1999/xlink" x="0px" y="0px"
	 viewBox="0 0 24 24" enable-background="new 0 0 24 24" xml:space="preserve">
<g id="Filled_Icons" display="none">
	<g display="inline">
		<path d="M19,14.906C18.988,8.607,17.917,1.95,16.259,0.362c-0.184-0.216-0.454-0.356-0.759-0.356c-0.553,0-1,0.449-1,1v22.002
			c0,0.551,0.447,1,1,1c0.553,0,1-0.449,1-1v-7.5h2c0.003,0,0.007,0,0.01,0c0.276,0,0.5-0.227,0.5-0.5
			C19.01,14.973,19.006,14.94,19,14.906z"/>
		<path d="M11.5,0.006c-0.553,0-1,0.449-1,1v4.5c0,0.737-0.405,1.375-1,1.723V1.006c0-0.551-0.448-1-1-1c-0.553,0-1,0.449-1,1v6.223
			c-0.596-0.348-1-0.985-1-1.723v-4.5c0-0.551-0.448-1-1-1c-0.553,0-1,0.449-1,1v4.5c0,1.86,1.277,3.423,3,3.869v13.633
			c0,0.551,0.447,1,1,1c0.552,0,1-0.449,1-1V9.375c1.722-0.446,3-2.009,3-3.869v-4.5C12.5,0.455,12.052,0.006,11.5,0.006z"/>
	</g>
</g>
<g id="Outline_Icons">
	<g>
		
			<line fill="none" stroke="#000000" stroke-linecap="round" stroke-linejoin="round" stroke-miterlimit="10" x1="15.5" y1="0.5" x2="15.5" y2="23.5"/>
		<path fill="none" stroke="#000000" stroke-linecap="round" stroke-linejoin="round" stroke-miterlimit="10" d="M15.5,0.5
			c1.381,0,3,6.993,3,15h-3"/>
		<path fill="none" stroke="#000000" stroke-linecap="round" stroke-linejoin="round" stroke-miterlimit="10" d="M5.5,0.5v5
			c0,1.657,1.343,3,3,3c1.656,0,3-1.343,3-3v-5"/>
		
			<line fill="none" stroke="#000000" stroke-linecap="round" stroke-linejoin="round" stroke-miterlimit="10" x1="8.5" y1="0.5" x2="8.5" y2="23.5"/>
	</g>
</g>
</svg>
