<?xml version="1.0" encoding="utf-8"?>
<!-- Generator: Adobe Illustrator 19.2.0, SVG Export Plug-In . SVG Version: 6.00 Build 0)  -->
<svg version="1.1" id="Layer_1" xmlns="http://www.w3.org/2000/svg" xmlns:xlink="http://www.w3.org/1999/xlink" x="0px" y="0px"
	 viewBox="0 0 24 24" enable-background="new 0 0 24 24" xml:space="preserve">
<g id="Filled_Icons" display="none">
	<g display="inline">
		<path d="M10.5,0.006c-0.553,0-1,0.449-1,1v4.5c0,0.737-0.405,1.375-1,1.723V1.006c0-0.551-0.448-1-1-1c-0.553,0-1,0.449-1,1v6.223
			c-0.596-0.348-1-0.985-1-1.723v-4.5c0-0.551-0.448-1-1-1c-0.553,0-1,0.449-1,1v4.5c0,1.86,1.277,3.423,3,3.869v13.633
			c0,0.551,0.447,1,1,1c0.552,0,1-0.449,1-1V9.375c1.722-0.446,3-2.009,3-3.869v-4.5C11.5,0.455,11.052,0.006,10.5,0.006z"/>
		<path d="M16.5,0.006c-1.795,0-3,1.407-3,3.5v2c0,1.675,0.771,2.908,2,3.336v14.166c0,0.551,0.447,1,1,1c0.553,0,1-0.449,1-1V8.859
			C18.943,8.428,20,7.09,20,5.506v-2C20,1.576,18.43,0.006,16.5,0.006z"/>
	</g>
</g>
<g id="Outline_Icons">
	<g>
		<path fill="none" stroke="#000000" stroke-linecap="round" stroke-linejoin="round" stroke-miterlimit="10" d="M4.5,0.5v5
			c0,1.657,1.343,3,3,3c1.656,0,3-1.343,3-3v-5"/>
		
			<line fill="none" stroke="#000000" stroke-linecap="round" stroke-linejoin="round" stroke-miterlimit="10" x1="7.5" y1="0.5" x2="7.5" y2="23.5"/>
		
			<line fill="none" stroke="#000000" stroke-linecap="round" stroke-linejoin="round" stroke-miterlimit="10" x1="16.5" y1="8.5" x2="16.5" y2="23.5"/>
		<path fill="none" stroke="#000000" stroke-linecap="round" stroke-linejoin="round" stroke-miterlimit="10" d="M13.5,3.5
			c0-1.656,1.343-3,3-3c1.656,0,3,1.344,3,3v2c0,1.657-1.344,3-3,3c-1.657,0-3-1.343-3-3V3.5z"/>
	</g>
</g>
</svg>
