<?xml version="1.0" encoding="utf-8"?>
<!-- Generator: Adobe Illustrator 19.2.0, SVG Export Plug-In . SVG Version: 6.00 Build 0)  -->
<svg version="1.1" id="Layer_1" xmlns="http://www.w3.org/2000/svg" xmlns:xlink="http://www.w3.org/1999/xlink" x="0px" y="0px"
	 viewBox="0 0 24 24" style="enable-background:new 0 0 24 24;" xml:space="preserve">
<style type="text/css">
	.st0{display:none;}
	.st1{display:inline;}
	.st2{fill:none;stroke:#000000;stroke-linecap:round;stroke-linejoin:round;stroke-miterlimit:10;}
</style>
<g id="Filled_Icon" class="st0">
	<g class="st1">
		<g>
			<path d="M5.5,2.7L5.7,2H13l-1.9,6.3l1.6,1.6L15.1,2h6.5l-0.6,1.7c-0.2,0.5,0.1,1.1,0.6,1.3c0.1,0,0.2,0,0.3,0
				c0.4,0,0.8-0.3,0.9-0.7l1-3C24.1,1,24,0.7,23.8,0.4C23.6,0.2,23.3,0,23,0H5c0,0,0,0,0,0C4.8,0,4.5,0.1,4.3,0.3
				C4.1,0.5,4,0.8,3.9,1.1L5.5,2.7z"/>
			<path d="M11,22H9l2.4-7.8l-1.6-1.6L6.9,22H4c-0.6,0-1,0.4-1,1c0,0.6,0.4,1,1,1h7c0.6,0,1-0.4,1-1C12,22.4,11.6,22,11,22z"/>
		</g>
		<g>
			<path d="M23,24c-0.3,0-0.5-0.1-0.7-0.3l-22-22c-0.4-0.4-0.4-1,0-1.4c0.4-0.4,1-0.4,1.4,0l22,22c0.4,0.4,0.4,1,0,1.4
				C23.5,23.9,23.3,24,23,24z"/>
		</g>
	</g>
</g>
<g id="Outline_Icons">
	<g>
		<line class="st2" x1="0.9" y1="0.9" x2="23.1" y2="23.1"/>
		<polyline class="st2" points="5.5,0.5 23.5,0.5 22.5,3.5 		"/>
		<line class="st2" x1="10.2" y1="14.5" x2="7.5" y2="23.5"/>
		<line class="st2" x1="14.5" y1="0.5" x2="12.2" y2="8"/>
		<line class="st2" x1="4" y1="23.5" x2="11" y2="23.5"/>
	</g>
</g>
</svg>
