<?xml version="1.0" encoding="utf-8"?>
<!-- Generator: Adobe Illustrator 19.2.0, SVG Export Plug-In . SVG Version: 6.00 Build 0)  -->
<svg version="1.1" id="Layer_1" xmlns="http://www.w3.org/2000/svg" xmlns:xlink="http://www.w3.org/1999/xlink" x="0px" y="0px"
	 viewBox="0 0 24 24" style="enable-background:new 0 0 24 24;" xml:space="preserve">
<style type="text/css">
	.st0{display:none;}
	.st1{display:inline;}
	.st2{fill:none;stroke:#000000;stroke-linejoin:round;stroke-miterlimit:10;}
</style>
<g id="Filled_Icons" class="st0">
	<path class="st1" d="M22.3,12.1l-8.5-7C13.7,5,13.5,5,13.3,5C13.1,5.1,13,5.3,13,5.5V9H1.5C1.2,9,1,9.2,1,9.5v6
		C1,15.8,1.2,16,1.5,16H13v3.5c0,0.2,0.1,0.4,0.3,0.5c0.1,0,0.1,0,0.2,0c0.1,0,0.2,0,0.3-0.1l8.5-7c0.1-0.1,0.2-0.2,0.2-0.4
		C22.5,12.4,22.4,12.2,22.3,12.1z"/>
</g>
<g id="Outline_Icons">
	<g>
		<polygon class="st2" points="13.5,9.5 1.5,9.5 1.5,15.5 13.5,15.5 13.5,19.5 22,12.5 13.5,5.5 		"/>
	</g>
</g>
</svg>
