<?xml version="1.0" encoding="utf-8"?>
<!-- Generator: Adobe Illustrator 19.2.0, SVG Export Plug-In . SVG Version: 6.00 Build 0)  -->
<svg version="1.1" id="Layer_1" xmlns="http://www.w3.org/2000/svg" xmlns:xlink="http://www.w3.org/1999/xlink" x="0px" y="0px"
	 viewBox="0 0 24 24" style="enable-background:new 0 0 24 24;" xml:space="preserve">
<style type="text/css">
	.st0{display:none;}
	.st1{display:inline;}
	.st2{fill:none;stroke:#000000;stroke-linecap:round;stroke-linejoin:round;stroke-miterlimit:10;}
	.st3{fill:none;stroke:#000000;stroke-linejoin:round;stroke-miterlimit:10;}
</style>
<g id="Filled_Icons" class="st0">
	<g class="st1">
		<path d="M23.9,16.2l-3.5-6C20.3,10.1,20.2,10,20,10h-5.5c-0.3,0-0.5,0.2-0.5,0.5c0,0.3,0.2,0.5,0.5,0.5h5.2l2.9,5h-6.1
			c-0.3,0-0.5,0.2-0.5,0.5v1c0,0.8-0.7,1.5-1.5,1.5H10c-0.8,0-1.5-0.7-1.5-1.5v-1C8.5,16.2,8.3,16,8,16H1.4l2.9-5h2.2
			C6.8,11,7,10.8,7,10.5C7,10.2,6.8,10,6.5,10H4c-0.2,0-0.3,0.1-0.4,0.2l-3.5,6c0,0,0,0,0,0c0,0,0,0.1-0.1,0.2c0,0,0,0,0,0v7
			C0,23.8,0.2,24,0.5,24h23c0.3,0,0.5-0.2,0.5-0.5v-7C24,16.5,24,16.3,23.9,16.2z"/>
		<path d="M8.5,14.5C8.5,14.5,8.5,14.5,8.5,14.5c0.3,0,0.5-0.2,0.5-0.4C9,13.8,10.5,7.3,18,7v1.5c0,0.2,0.1,0.4,0.3,0.5
			C18.5,9,18.7,9,18.8,8.9l5-4C23.9,4.8,24,4.7,24,4.5c0-0.2-0.1-0.3-0.2-0.4l-5-4C18.7,0,18.5,0,18.3,0C18.1,0.1,18,0.3,18,0.5V2
			C8.1,2.4,8,13.9,8,14C8,14.3,8.2,14.5,8.5,14.5z"/>
	</g>
</g>
<g id="Outline_Icons">
	<g>
		<path class="st2" d="M23.5,23.5h-23v-7H8v1c0,1.1,0.9,2,2,2h4.5c1.1,0,2-0.9,2-2v-1h7V23.5z"/>
		<polyline class="st2" points="14.5,10.5 20,10.5 23.5,16.5 		"/>
		<polyline class="st2" points="0.5,16.5 4,10.5 6.5,10.5 		"/>
		<path class="st3" d="M18.5,8.5c0,0,0-0.5,0-2c-8.5,0-10,7.5-10,7.5s0-11.5,10-11.5c0-0.5,0-2,0-2l5,4L18.5,8.5z"/>
	</g>
</g>
</svg>
