<?xml version="1.0" encoding="utf-8"?>
<!-- Generator: Adobe Illustrator 19.2.0, SVG Export Plug-In . SVG Version: 6.00 Build 0)  -->
<svg version="1.1" id="Layer_1" xmlns="http://www.w3.org/2000/svg" xmlns:xlink="http://www.w3.org/1999/xlink" x="0px" y="0px"
	 viewBox="0 0 24 24" style="enable-background:new 0 0 24 24;" xml:space="preserve">
<style type="text/css">
	.st0{display:none;}
	.st1{display:inline;}
	.st2{fill:none;stroke:#000000;stroke-linecap:round;stroke-linejoin:round;stroke-miterlimit:10;}
</style>
<g id="Filled_Icons" class="st0">
	<g class="st1">
		<g>
			<path d="M9.5,9.5h-5c-0.6,0-1-0.4-1-1c0-0.6,0.4-1,1-1h4v-4c0-0.6,0.4-1,1-1c0.6,0,1,0.4,1,1v5C10.5,9.1,10,9.5,9.5,9.5z"/>
		</g>
		<g>
			<path d="M20.5,9.5h-5c-0.6,0-1-0.4-1-1v-5c0-0.6,0.4-1,1-1c0.6,0,1,0.4,1,1v4h4c0.6,0,1,0.4,1,1C21.5,9.1,21,9.5,20.5,9.5z"/>
		</g>
		<g>
			<path d="M9.5,20.5c-0.6,0-1-0.4-1-1v-4h-4c-0.6,0-1-0.4-1-1c0-0.6,0.4-1,1-1h5c0.6,0,1,0.4,1,1v5C10.5,20.1,10,20.5,9.5,20.5z"/>
		</g>
		<g>
			<path d="M15.5,20.5c-0.6,0-1-0.4-1-1v-5c0-0.6,0.4-1,1-1h5c0.6,0,1,0.4,1,1c0,0.6-0.4,1-1,1h-4v4C16.5,20.1,16.1,20.5,15.5,20.5z
				"/>
		</g>
	</g>
</g>
<g id="Outline_Icons">
	<g>
		<polyline class="st2" points="9.5,3.5 9.5,8.5 4.5,8.5 		"/>
		<polyline class="st2" points="15.5,3.5 15.5,8.5 20.5,8.5 		"/>
		<polyline class="st2" points="9.5,19.5 9.5,14.5 4.5,14.5 		"/>
		<polyline class="st2" points="15.5,19.5 15.5,14.5 20.5,14.5 		"/>
	</g>
</g>
</svg>
