<?xml version="1.0" encoding="utf-8"?>
<!-- Generator: Adobe Illustrator 19.2.0, SVG Export Plug-In . SVG Version: 6.00 Build 0)  -->
<svg version="1.1" id="Layer_1" xmlns="http://www.w3.org/2000/svg" xmlns:xlink="http://www.w3.org/1999/xlink" x="0px" y="0px"
	 viewBox="0 0 24 24" style="enable-background:new 0 0 24 24;" xml:space="preserve">
<style type="text/css">
	.st0{display:none;}
	.st1{display:inline;}
	.st2{fill:none;stroke:#000000;stroke-linecap:round;stroke-linejoin:round;stroke-miterlimit:10;}
</style>
<g id="Filled_Icons" class="st0">
	<g class="st1">
		<path d="M8.5,3.5h-5c-0.6,0-1,0.4-1,1v5c0,0.6,0.4,1,1,1c0.6,0,1-0.4,1-1v-4h4c0.6,0,1-0.4,1-1C9.5,3.9,9,3.5,8.5,3.5z"/>
		<path d="M19.5,3.5h-5c-0.6,0-1,0.4-1,1c0,0.6,0.4,1,1,1h4v4c0,0.6,0.4,1,1,1c0.6,0,1-0.4,1-1v-5C20.5,3.9,20.1,3.5,19.5,3.5z"/>
		<path d="M8.5,19.5h-4v-4c0-0.6-0.4-1-1-1c-0.6,0-1,0.4-1,1v5c0,0.6,0.4,1,1,1h5c0.6,0,1-0.4,1-1C9.5,19.9,9,19.5,8.5,19.5z"/>
		<path d="M19.5,14.5c-0.6,0-1,0.4-1,1v4h-4c-0.6,0-1,0.4-1,1c0,0.6,0.4,1,1,1h5c0.6,0,1-0.4,1-1v-5C20.5,14.9,20.1,14.5,19.5,14.5z
			"/>
	</g>
</g>
<g id="Outline_Icons">
	<g>
		<polyline class="st2" points="3.5,9.5 3.5,4.5 8.5,4.5 		"/>
		<polyline class="st2" points="19.5,9.5 19.5,4.5 14.5,4.5 		"/>
		<polyline class="st2" points="3.5,15.5 3.5,20.5 8.5,20.5 		"/>
		<polyline class="st2" points="19.5,15.5 19.5,20.5 14.5,20.5 		"/>
	</g>
</g>
</svg>
