<?xml version="1.0" encoding="utf-8"?>
<!-- Generator: Adobe Illustrator 19.2.0, SVG Export Plug-In . SVG Version: 6.00 Build 0)  -->
<svg version="1.1" id="Layer_1" xmlns="http://www.w3.org/2000/svg" xmlns:xlink="http://www.w3.org/1999/xlink" x="0px" y="0px"
	 viewBox="0 0 24 24" style="enable-background:new 0 0 24 24;" xml:space="preserve">
<style type="text/css">
	.st0{display:none;}
	.st1{display:inline;}
	.st2{fill:none;stroke:#000000;stroke-linejoin:round;stroke-miterlimit:10;}
</style>
<g id="Filled_Icons" class="st0">
	<g class="st1">
		<path d="M10.5,1h-9C1.2,1,1,1.2,1,1.5v9C1,10.8,1.2,11,1.5,11h5.6c0.2,0,0.3-0.1,0.4-0.2c0.1-0.1,0.1-0.3,0.1-0.4L6.7,7h3.8
			C10.8,7,11,6.8,11,6.5v-5C11,1.2,10.8,1,10.5,1z"/>
		<path d="M22.5,1h-9C13.2,1,13,1.2,13,1.5v5C13,6.8,13.2,7,13.5,7h3.8l-0.9,3.4c0,0.2,0,0.3,0.1,0.4c0.1,0.1,0.2,0.2,0.4,0.2h5.6
			c0.3,0,0.5-0.2,0.5-0.5v-9C23,1.2,22.8,1,22.5,1z"/>
		<path d="M10.5,17H6.7l0.9-3.4c0-0.2,0-0.3-0.1-0.4C7.4,13.1,7.3,13,7.1,13H1.5C1.2,13,1,13.2,1,13.5v9C1,22.8,1.2,23,1.5,23h9
			c0.3,0,0.5-0.2,0.5-0.5v-5C11,17.2,10.8,17,10.5,17z"/>
		<path d="M22.5,13h-5.6c-0.2,0-0.3,0.1-0.4,0.2c-0.1,0.1-0.1,0.3-0.1,0.4l0.9,3.4h-3.8c-0.3,0-0.5,0.2-0.5,0.5v5
			c0,0.3,0.2,0.5,0.5,0.5h9c0.3,0,0.5-0.2,0.5-0.5v-9C23,13.2,22.8,13,22.5,13z"/>
	</g>
</g>
<g id="Outline_Icons">
	<g>
		<polygon class="st2" points="10.5,1.5 1.5,1.5 1.5,10.5 7.1,10.5 6,6.5 10.5,6.5 		"/>
		<polygon class="st2" points="13.5,1.5 22.5,1.5 22.5,10.5 16.9,10.5 18,6.5 13.5,6.5 		"/>
		<polygon class="st2" points="10.5,22.5 1.5,22.5 1.5,13.5 7.1,13.5 6,17.5 10.5,17.5 		"/>
		<polygon class="st2" points="13.5,22.5 22.5,22.5 22.5,13.5 16.9,13.5 18,17.5 13.5,17.5 		"/>
	</g>
</g>
</svg>
