<?xml version="1.0" encoding="utf-8"?>
<!-- Generator: Adobe Illustrator 19.2.0, SVG Export Plug-In . SVG Version: 6.00 Build 0)  -->
<svg version="1.1" id="Layer_1" xmlns="http://www.w3.org/2000/svg" xmlns:xlink="http://www.w3.org/1999/xlink" x="0px" y="0px"
	 viewBox="0 0 24 24" style="enable-background:new 0 0 24 24;" xml:space="preserve">
<style type="text/css">
	.st0{display:none;}
	.st1{display:inline;}
	.st2{fill:none;stroke:#000000;stroke-linecap:round;stroke-linejoin:round;stroke-miterlimit:10;}
</style>
<g id="Filled_Icon" class="st0">
	<g class="st1">
		<rect x="9" y="11" width="2" height="1"/>
		<path d="M12,0C5.4,0,0,5.4,0,12c0,6.6,5.4,12,12,12c6.6,0,12-5.4,12-12C24,5.4,18.6,0,12,0z M7,12c0.3,0,0.5,0.2,0.5,0.5
			C7.5,12.8,7.3,13,7,13H5v1.5C5,14.8,4.8,15,4.5,15C4.2,15,4,14.8,4,14.5v-4C4,10.2,4.2,10,4.5,10H7c0.3,0,0.5,0.2,0.5,0.5
			C7.5,10.8,7.3,11,7,11H5v1H7z M12,12.5c0,0.3-0.2,0.5-0.5,0.5h-0.6l1,1.2c0.2,0.2,0.2,0.5-0.1,0.7c-0.1,0.1-0.2,0.1-0.3,0.1
			c-0.1,0-0.3-0.1-0.4-0.2L9.6,13H9v1.5C9,14.8,8.8,15,8.5,15C8.2,15,8,14.8,8,14.5v-4C8,10.2,8.2,10,8.5,10h3
			c0.3,0,0.5,0.2,0.5,0.5V12.5z M16,12c0.3,0,0.5,0.2,0.5,0.5c0,0.3-0.2,0.5-0.5,0.5h-2v1h2c0.3,0,0.5,0.2,0.5,0.5
			c0,0.3-0.2,0.5-0.5,0.5h-2.5c-0.3,0-0.5-0.2-0.5-0.5v-4c0-0.3,0.2-0.5,0.5-0.5H16c0.3,0,0.5,0.2,0.5,0.5c0,0.3-0.2,0.5-0.5,0.5h-2
			v1H16z M20,14c0.3,0,0.5,0.2,0.5,0.5c0,0.3-0.2,0.5-0.5,0.5h-2.5c-0.3,0-0.5-0.2-0.5-0.5v-4c0-0.3,0.2-0.5,0.5-0.5H20
			c0.3,0,0.5,0.2,0.5,0.5c0,0.3-0.2,0.5-0.5,0.5h-2v1h2c0.3,0,0.5,0.2,0.5,0.5c0,0.3-0.2,0.5-0.5,0.5h-2v1H20z"/>
	</g>
</g>
<g id="Outline_Icons">
	<g>
		<circle class="st2" cx="12" cy="12" r="11.5"/>
		<g>
			<polyline class="st2" points="20,10.5 17.5,10.5 17.5,14.5 20,14.5 			"/>
			<line class="st2" x1="20" y1="12.5" x2="17.5" y2="12.5"/>
			<polyline class="st2" points="16,10.5 13.5,10.5 13.5,14.5 16,14.5 			"/>
			<line class="st2" x1="16" y1="12.5" x2="13.5" y2="12.5"/>
			<line class="st2" x1="7" y1="12.5" x2="4.5" y2="12.5"/>
			<polyline class="st2" points="4.5,14.5 4.5,10.5 7,10.5 			"/>
			<polyline class="st2" points="8.5,14.5 8.5,10.5 11.5,10.5 11.5,12.5 8.5,12.5 			"/>
			<line class="st2" x1="9.8" y1="12.5" x2="11.5" y2="14.5"/>
		</g>
	</g>
</g>
</svg>
