<?xml version="1.0" encoding="utf-8"?>
<!-- Generator: Adobe Illustrator 19.2.0, SVG Export Plug-In . SVG Version: 6.00 Build 0)  -->
<svg version="1.1" id="Outline_Icons" xmlns="http://www.w3.org/2000/svg" xmlns:xlink="http://www.w3.org/1999/xlink" x="0px"
	 y="0px" viewBox="0 0 24 24" style="enable-background:new 0 0 24 24;" xml:space="preserve">
<style type="text/css">
	.st0{fill:none;stroke:#000000;stroke-linecap:round;stroke-linejoin:round;stroke-miterlimit:10;}
</style>
<g>
	<path class="st0" d="M23.5,16.5c0,1.1-0.9,2-2,2h-19c-1.1,0-2-0.9-2-2v-8c0-1.1,0.9-2,2-2h19c1.1,0,2,0.9,2,2V16.5z"/>
	<g>
		<polyline class="st0" points="19.8,10.5 17.5,10.5 17.5,14.5 19.8,14.5 		"/>
		<line class="st0" x1="19.8" y1="12.5" x2="17.5" y2="12.5"/>
		<polyline class="st0" points="15.8,10.5 13.5,10.5 13.5,14.5 15.8,14.5 		"/>
		<line class="st0" x1="15.8" y1="12.5" x2="13.5" y2="12.5"/>
		<line class="st0" x1="6.8" y1="12.5" x2="5" y2="12.5"/>
		<polyline class="st0" points="4.5,14.4 4.5,10.5 6.8,10.5 		"/>
		<polyline class="st0" points="8.5,14.4 8.5,10.5 11.5,10.5 11.5,12.5 8.5,12.5 		"/>
		<line class="st0" x1="9.5" y1="12.5" x2="11.2" y2="14.4"/>
	</g>
</g>
</svg>
