<?xml version="1.0" encoding="utf-8"?>
<!-- Generator: Adobe Illustrator 19.2.0, SVG Export Plug-In . SVG Version: 6.00 Build 0)  -->
<svg version="1.1" id="Layer_1" xmlns="http://www.w3.org/2000/svg" xmlns:xlink="http://www.w3.org/1999/xlink" x="0px" y="0px"
	 viewBox="0 0 24 24" enable-background="new 0 0 24 24" xml:space="preserve">
<g id="Filled_Icons" display="none">
	<g display="inline">
		<g>
			<path d="M6.5,10.006c0.828,0,1.5,0.672,1.5,1.5c0,0.84,1.527,1.521,3.418,1.539L10.407,0.946L7.419,1.198l0.744,9.245L6,3.006
				H4.5L3.56,5.008l1.373,4.998H6.5z"/>
			<path d="M14.978,11.506c0-0.828,0.672-1.5,1.5-1.5h1.588l1.373-5l-0.939-2H17c-0.027,0.098-2.178,7.489-2.209,7.585l0.79-9.394
				l-2.989-0.252l-1.01,12.098C13.462,13.022,14.978,12.342,14.978,11.506z"/>
		</g>
		<g>
			<polygon points="18.891,18.006 4.109,18.006 4.609,20.006 18.391,20.006 			"/>
			<path d="M20.394,11.198c-0.095-0.121-0.24-0.192-0.394-0.192h-3.522c-0.275,0-0.5,0.224-0.5,0.5c0,3.338-8.978,3.338-8.978,0
				c0-0.276-0.224-0.5-0.5-0.5H3c-0.154,0-0.3,0.071-0.395,0.192c-0.095,0.121-0.128,0.279-0.091,0.429l1.345,5.379h15.282
				l1.344-5.379C20.521,11.478,20.488,11.319,20.394,11.198z"/>
			<path d="M4.859,21.006l0.655,2.621C5.57,23.85,5.771,24.006,6,24.006h11c0.228,0,0.43-0.156,0.484-0.379l0.656-2.621H4.859z"/>
		</g>
	</g>
</g>
<g id="Outline_Icons">
	<g>
		<path fill="none" stroke="#000000" stroke-linejoin="round" stroke-miterlimit="10" d="M3,11.5h3.5c0,4.057,9.978,4.057,9.978,0
			H20l-3,12H6L3,11.5z"/>
		<polyline fill="none" stroke="#000000" stroke-linejoin="round" stroke-miterlimit="10" points="8.188,10.523 6,3 4.5,3 
			3.56,5.002 5.333,11.456 		"/>
		<polyline fill="none" stroke="#000000" stroke-linejoin="round" stroke-miterlimit="10" points="14.812,10.523 17,3 18.5,3 
			19.439,5 17.667,11.456 		"/>
		<polyline fill="none" stroke="#000000" stroke-linejoin="round" stroke-miterlimit="10" points="8.45,14 7.419,1.191 
			10.407,0.939 11.544,14.541 		"/>
		<polyline fill="none" stroke="#000000" stroke-linejoin="round" stroke-miterlimit="10" points="14.506,13.981 15.581,1.191 
			12.592,0.939 11.456,14.542 		"/>
		<line fill="none" stroke="#000000" stroke-linejoin="round" stroke-miterlimit="10" x1="4.5" y1="17.5" x2="18.5" y2="17.5"/>
		<line fill="none" stroke="#000000" stroke-linejoin="round" stroke-miterlimit="10" x1="5.25" y1="20.5" x2="17.75" y2="20.5"/>
	</g>
</g>
</svg>
