<?xml version="1.0" encoding="utf-8"?>
<!-- Generator: Adobe Illustrator 19.2.0, SVG Export Plug-In . SVG Version: 6.00 Build 0)  -->
<svg version="1.1" id="Layer_1" xmlns="http://www.w3.org/2000/svg" xmlns:xlink="http://www.w3.org/1999/xlink" x="0px" y="0px"
	 viewBox="0 0 24 24" style="enable-background:new 0 0 24 24;" xml:space="preserve">
<style type="text/css">
	.st0{display:none;}
	.st1{display:inline;}
	.st2{fill:none;stroke:#000000;stroke-linecap:round;stroke-linejoin:round;stroke-miterlimit:10;}
	.st3{fill:none;stroke:#000000;stroke-linejoin:round;stroke-miterlimit:10;}
</style>
<g id="Filled_Icon" class="st0">
	<g class="st1">
		<circle cx="11.5" cy="5.5" r="1.5"/>
		<path d="M11.5,3C11.8,3,12,2.8,12,2.5v-2C12,0.2,11.8,0,11.5,0C11.2,0,11,0.2,11,0.5v2C11,2.8,11.2,3,11.5,3z"/>
		<path d="M9,3.8c0.1,0.1,0.2,0.1,0.4,0.1c0.1,0,0.3,0,0.4-0.1c0.2-0.2,0.2-0.5,0-0.7L8.3,1.6c-0.2-0.2-0.5-0.2-0.7,0
			c-0.2,0.2-0.2,0.5,0,0.7L9,3.8z"/>
		<path d="M13.6,3.9c0.1,0,0.3,0,0.4-0.1l1.4-1.4c0.2-0.2,0.2-0.5,0-0.7c-0.2-0.2-0.5-0.2-0.7,0l-1.4,1.4c-0.2,0.2-0.2,0.5,0,0.7
			C13.4,3.9,13.5,3.9,13.6,3.9z"/>
		<path d="M14,5.5C14,5.8,14.2,6,14.5,6h2C16.8,6,17,5.8,17,5.5C17,5.2,16.8,5,16.5,5h-2C14.2,5,14,5.2,14,5.5z"/>
		<path d="M6.5,6h2C8.8,6,9,5.8,9,5.5C9,5.2,8.8,5,8.5,5h-2C6.2,5,6,5.2,6,5.5C6,5.8,6.2,6,6.5,6z"/>
		<path d="M17.5,3C17.2,3,17,3.2,17,3.5C17,3.8,17.2,4,17.5,4C18.3,4,19,4.7,19,5.5V8H4V5.5C4,4.7,4.7,4,5.5,4C5.8,4,6,3.8,6,3.5
			C6,3.2,5.8,3,5.5,3C4.1,3,3,4.1,3,5.5V8v16h17V8V5.5C20,4.1,18.9,3,17.5,3z M5.2,23c0.2-3.7,2.2-5.4,4.2-6.1
			c-1-0.7-1.6-1.8-1.6-3.1c0-2.1,1.7-3.7,3.7-3.7c2.1,0,3.7,1.7,3.7,3.7c0,1.3-0.7,2.4-1.6,3.1c2,0.7,4,2.4,4.2,6.1L5.2,23L5.2,23z"
			/>
	</g>
</g>
<g id="Outline_Icons">
	<g>
		<path class="st2" d="M17.5,3.5c1.1,0,2,0.9,2,2v18h-16v-18c0-1.1,0.9-2,2-2"/>
		<line class="st2" x1="19.5" y1="8.5" x2="3.5" y2="8.5"/>
		<circle class="st3" cx="11.5" cy="5.5" r="1"/>
		<line class="st2" x1="11.5" y1="2.5" x2="11.5" y2="0.5"/>
		<line class="st2" x1="9.4" y1="3.4" x2="7.9" y2="2"/>
		<line class="st2" x1="13.6" y1="3.4" x2="15.1" y2="2"/>
		<line class="st2" x1="14.5" y1="5.5" x2="16.5" y2="5.5"/>
		<line class="st2" x1="6.5" y1="5.5" x2="8.5" y2="5.5"/>
		<circle class="st2" cx="11.5" cy="13.8" r="3.2"/>
		<path class="st2" d="M11.5,17c-2.1,0-5.8,1.3-5.8,6.5h11.6C17.3,18.3,13.6,17,11.5,17z"/>
	</g>
</g>
</svg>
