<?xml version="1.0" encoding="utf-8"?>
<!-- Generator: Adobe Illustrator 19.2.0, SVG Export Plug-In . SVG Version: 6.00 Build 0)  -->
<svg version="1.1" id="Layer_1" xmlns="http://www.w3.org/2000/svg" xmlns:xlink="http://www.w3.org/1999/xlink" x="0px" y="0px"
	 viewBox="0 0 24 24" enable-background="new 0 0 24 24" xml:space="preserve">
<g id="Filled_Icons" display="none">
	<path display="inline" d="M21.768,9.309l-7.07-7.07c-0.941-0.942-2.588-0.944-3.535,0l-7.778,7.778
		c-0.473,0.472-0.732,1.1-0.732,1.768c0,0.668,0.26,1.296,0.732,1.767l2.828,2.828l-4.949,4.95c-0.391,0.392-0.391,1.024,0,1.414
		c0.195,0.194,0.451,0.293,0.707,0.293c0.256,0,0.512-0.099,0.707-0.293l4.949-4.95l2.829,2.83c0.473,0.473,1.101,0.731,1.768,0.731
		c0.668,0,1.296-0.26,1.768-0.732l7.778-7.778C22.742,11.87,22.742,10.284,21.768,9.309z M12.93,18.147
		c-0.099,0.099-0.227,0.146-0.354,0.146c-0.128,0-0.256-0.049-0.354-0.146l-6.364-6.363c-0.195-0.195-0.195-0.512,0-0.707
		c0.195-0.195,0.512-0.195,0.707,0l6.364,6.365C13.124,17.637,13.124,17.952,12.93,18.147z M15.051,16.025
		c-0.098,0.1-0.226,0.147-0.353,0.147c-0.129,0-0.256-0.049-0.354-0.147L7.979,9.662c-0.195-0.195-0.195-0.512,0-0.707
		c0.195-0.195,0.512-0.195,0.707,0l6.364,6.363C15.246,15.516,15.246,15.831,15.051,16.025z M17.172,13.906
		c-0.098,0.097-0.227,0.147-0.353,0.147c-0.129,0-0.256-0.05-0.354-0.147L10.1,7.541c-0.195-0.195-0.195-0.512,0-0.707
		c0.195-0.195,0.512-0.195,0.707,0l6.364,6.363C17.367,13.395,17.367,13.71,17.172,13.906z M19.293,11.783
		c-0.098,0.098-0.227,0.146-0.354,0.146c-0.129,0-0.256-0.049-0.354-0.146L12.222,5.42c-0.195-0.195-0.195-0.512,0-0.707
		c0.195-0.195,0.512-0.195,0.708,0l6.363,6.363C19.488,11.271,19.488,11.588,19.293,11.783z"/>
</g>
<g id="Outline_Icons">
	<g>
		<path fill="none" stroke="#000000" stroke-linejoin="round" stroke-miterlimit="10" d="M13.637,20.264
			c-0.781,0.78-2.048,0.78-2.829,0l-7.071-7.07c-0.781-0.781-0.781-2.048,0-2.829l7.778-7.778c0.781-0.781,2.047-0.781,2.828,0
			l7.071,7.07c0.781,0.781,0.781,2.048,0,2.829L13.637,20.264z"/>
		
			<line fill="none" stroke="#000000" stroke-linecap="round" stroke-linejoin="round" stroke-miterlimit="10" x1="7.271" y1="16.729" x2="1.969" y2="22.031"/>
		
			<line fill="none" stroke="#000000" stroke-linecap="round" stroke-linejoin="round" stroke-miterlimit="10" x1="12.575" y1="5.061" x2="18.939" y2="11.424"/>
		
			<line fill="none" stroke="#000000" stroke-linecap="round" stroke-linejoin="round" stroke-miterlimit="10" x1="10.454" y1="7.182" x2="16.818" y2="13.546"/>
		
			<line fill="none" stroke="#000000" stroke-linecap="round" stroke-linejoin="round" stroke-miterlimit="10" x1="6.211" y1="11.424" x2="12.575" y2="17.788"/>
		
			<line fill="none" stroke="#000000" stroke-linecap="round" stroke-linejoin="round" stroke-miterlimit="10" x1="8.333" y1="9.303" x2="14.697" y2="15.667"/>
	</g>
</g>
</svg>
