<?xml version="1.0" encoding="utf-8"?>
<!-- Generator: Adobe Illustrator 19.2.0, SVG Export Plug-In . SVG Version: 6.00 Build 0)  -->
<svg version="1.1" id="Layer_1" xmlns="http://www.w3.org/2000/svg" xmlns:xlink="http://www.w3.org/1999/xlink" x="0px" y="0px"
	 viewBox="0 0 24 24" enable-background="new 0 0 24 24" xml:space="preserve">
<g id="Filled_Icons" display="none">
	<g display="inline">
		<path d="M20.5,12.006h-16c-0.276,0-0.5,0.225-0.5,0.5v8c0,1.208,0.859,2.219,2,2.451v0.549c0,0.275,0.224,0.5,0.5,0.5
			c0.275,0,0.5-0.225,0.5-0.5v-0.5h11v0.5c0,0.275,0.225,0.5,0.5,0.5c0.275,0,0.5-0.225,0.5-0.5v-0.549c1.141-0.232,2-1.243,2-2.451
			v-8C21,12.23,20.775,12.006,20.5,12.006z M16,16.506c0,0.275-0.225,0.5-0.5,0.5c-0.275,0-0.5-0.225-0.5-0.5v-0.5h-5v0.5
			c0,0.275-0.225,0.5-0.5,0.5c-0.276,0-0.5-0.225-0.5-0.5v-1c0-0.275,0.224-0.5,0.5-0.5h6c0.275,0,0.5,0.225,0.5,0.5V16.506z"/>
		<rect x="10" y="4.006" width="2" height="7"/>
		<path d="M19,8.506v-4c0-0.275-0.225-0.5-0.5-0.5H16v7h0.5C17.878,11.006,19,9.885,19,8.506z"/>
		<rect x="13" y="4.006" width="2" height="7"/>
		<path d="M6,2.506v2v4c0,1.379,1.121,2.5,2.5,2.5H9v-7H7v-1.5c0-1.378-1.122-2.5-2.5-2.5h-4c-0.276,0-0.5,0.225-0.5,0.5
			c0,0.276,0.224,0.5,0.5,0.5h4C5.326,1.006,6,1.68,6,2.506z"/>
	</g>
</g>
<g id="Outline_Icons">
	<g>
		<path fill="none" stroke="#000000" stroke-linecap="round" stroke-linejoin="round" stroke-miterlimit="10" d="M20.5,20.5
			c0,1.104-0.897,2-2,2h-12c-1.105,0-2-0.896-2-2v-8h16V20.5z"/>
		
			<line fill="none" stroke="#000000" stroke-linecap="round" stroke-linejoin="round" stroke-miterlimit="10" x1="6.5" y1="22.5" x2="6.5" y2="23.5"/>
		
			<line fill="none" stroke="#000000" stroke-linecap="round" stroke-linejoin="round" stroke-miterlimit="10" x1="18.5" y1="22.5" x2="18.5" y2="23.5"/>
		<path fill="none" stroke="#000000" stroke-linecap="round" stroke-linejoin="round" stroke-miterlimit="10" d="M6.5,4.5h12v4
			c0,1.104-0.897,2-2,2h-8c-1.105,0-2-0.896-2-2V4.5z"/>
		<path fill="none" stroke="#000000" stroke-linecap="round" stroke-linejoin="round" stroke-miterlimit="10" d="M6.5,4.5v-2
			c0-1.105-0.896-2-2-2h-4"/>
		<polyline fill="none" stroke="#000000" stroke-linecap="round" stroke-linejoin="round" stroke-miterlimit="10" points="9.5,16.5 
			9.5,15.5 15.5,15.5 15.5,16.5 		"/>
		
			<line fill="none" stroke="#000000" stroke-linecap="round" stroke-linejoin="round" stroke-miterlimit="10" x1="9.5" y1="4.5" x2="9.5" y2="10.5"/>
		
			<line fill="none" stroke="#000000" stroke-linecap="round" stroke-linejoin="round" stroke-miterlimit="10" x1="12.5" y1="4.5" x2="12.5" y2="10.5"/>
		
			<line fill="none" stroke="#000000" stroke-linecap="round" stroke-linejoin="round" stroke-miterlimit="10" x1="15.5" y1="4.5" x2="15.5" y2="10.5"/>
	</g>
</g>
</svg>
