<?xml version="1.0" encoding="utf-8"?>
<!-- Generator: Adobe Illustrator 19.2.0, SVG Export Plug-In . SVG Version: 6.00 Build 0)  -->
<svg version="1.1" id="Layer_1" xmlns="http://www.w3.org/2000/svg" xmlns:xlink="http://www.w3.org/1999/xlink" x="0px" y="0px"
	 viewBox="0 0 24 24" enable-background="new 0 0 24 24" xml:space="preserve">
<g id="Filled_Icons" display="none">
	<g display="inline">
		<path d="M6.75,20.006c-1.93,0-3.5,1.57-3.5,3.5c0,0.275,0.224,0.5,0.5,0.5h6c0.276,0,0.5-0.225,0.5-0.5
			C10.25,21.576,8.68,20.006,6.75,20.006z"/>
		<path d="M15.75,20.006c-1.93,0-3.5,1.57-3.5,3.5c0,0.275,0.224,0.5,0.5,0.5h6c0.275,0,0.5-0.225,0.5-0.5
			C19.25,21.576,17.68,20.006,15.75,20.006z"/>
		<path d="M21.5,3.193c0-0.139-0.059-0.271-0.158-0.365c-0.1-0.094-0.238-0.147-0.375-0.134c-3.447,0.23-5.328,1.401-6.054,2.511
			c-1.171-0.781-2.47-1.199-3.757-1.199c-1.233,0-2.48,0.38-3.613,1.1c-0.73-1.096-2.586-2.182-6.01-2.412
			C1.396,2.681,1.259,2.733,1.158,2.828C1.057,2.923,1,3.055,1,3.193c0,2.132,1.023,5.502,2.884,6.633
			c-0.51,1.359-0.813,2.928-0.813,4.693c0,2.457,0.611,4.072,1.378,5.14c0.676-0.405,1.457-0.653,2.301-0.653
			c1.95,0,3.599,1.254,4.222,2.993l0.557,0.002c0.622-1.739,2.271-2.995,4.222-2.995c0.784,0,1.513,0.221,2.153,0.574
			c0.712-1.053,1.339-2.657,1.339-5.061c0-1.726-0.287-3.263-0.775-4.6C20.355,8.816,21.5,5.396,21.5,3.193z M11.25,12.006
			c1.768,0,3.117,1.758,3.432,3H7.819C8.133,13.764,9.482,12.006,11.25,12.006z M4.287,8.886c-1.256-0.872-2.11-3.351-2.263-5.147
			c2.925,0.294,4.272,1.257,4.717,1.956C5.771,6.494,4.924,7.569,4.287,8.886z M6.25,10.006c0-1.103,0.897-2,2-2s2,0.897,2,2
			c0,1.103-0.897,2-2,2S6.25,11.108,6.25,10.006z M11.25,18.506c-1.512,0-2.659-1.354-2.935-2.5h5.869
			C13.909,17.152,12.762,18.506,11.25,18.506z M14.25,12.006c-1.104,0-2-0.897-2-2c0-1.103,0.896-2,2-2c1.103,0,2,0.897,2,2
			C16.25,11.109,15.353,12.006,14.25,12.006z M15.709,5.815c0.418-0.702,1.773-1.767,4.766-2.076
			C20.31,5.58,19.366,8.117,18.07,8.974C17.459,7.68,16.644,6.621,15.709,5.815z"/>
	</g>
</g>
<g id="Outline_Icons">
	<g>
		<path fill="none" stroke="#000000" stroke-linejoin="round" stroke-miterlimit="10" d="M17.844,9.662
			C19.746,8.977,21,5.363,21,3.188c-3.712,0.248-5.525,1.633-5.883,2.703"/>
		<path fill="none" stroke="#000000" stroke-linejoin="round" stroke-miterlimit="10" d="M4.546,9.594
			C2.644,8.908,1.5,5.363,1.5,3.188C5.212,3.436,6.996,4.74,7.353,5.809"/>
		<path fill="none" stroke="#000000" stroke-linejoin="round" stroke-miterlimit="10" d="M16.312,20.553
			c1.274-0.949,2.431-2.877,2.431-6.039c0-6.068-3.642-10.014-7.586-10.014c-3.944,0-7.585,3.945-7.585,10.014
			c0,3.334,1.144,5.145,2.522,6.059"/>
		<path fill="none" stroke="#000000" stroke-linejoin="round" stroke-miterlimit="10" d="M8.931,21.441
			c0.811,0.065,1.685,0.051,2.226,0.051c0.583,0,1.53,0.037,2.413-0.051"/>
		<path fill="none" stroke="#000000" stroke-linejoin="round" stroke-miterlimit="10" d="M3.75,23.5c0-1.656,1.343-3,3-3
			c1.657,0,3,1.344,3,3H3.75z"/>
		<path fill="none" stroke="#000000" stroke-linejoin="round" stroke-miterlimit="10" d="M12.75,23.5c0-1.656,1.343-3,3-3
			c1.657,0,3,1.344,3,3H12.75z"/>
		<path fill="none" stroke="#000000" stroke-linejoin="round" stroke-miterlimit="10" d="M13.75,15.5c0,1-1.119,2.5-2.5,2.5
			c-1.381,0-2.5-1.5-2.5-2.5H13.75z"/>
		<path fill="none" stroke="#000000" stroke-linejoin="round" stroke-miterlimit="10" d="M8.25,15.5c0-1,1.344-3,3-3
			c1.656,0,3,2,3,3H8.25z"/>
		<circle fill="none" stroke="#000000" stroke-linejoin="round" stroke-miterlimit="10" cx="8.25" cy="10" r="1.5"/>
		<circle fill="none" stroke="#000000" stroke-linejoin="round" stroke-miterlimit="10" cx="14.25" cy="10" r="1.5"/>
	</g>
</g>
</svg>
