<?xml version="1.0" encoding="utf-8"?>
<!-- Generator: Adobe Illustrator 19.2.0, SVG Export Plug-In . SVG Version: 6.00 Build 0)  -->
<svg version="1.1" id="Layer_1" xmlns="http://www.w3.org/2000/svg" xmlns:xlink="http://www.w3.org/1999/xlink" x="0px" y="0px"
	 viewBox="0 0 24 24" enable-background="new 0 0 24 24" xml:space="preserve">
<g id="Filled_Icons" display="none">
	<path display="inline" d="M19.5,16.006H19v-0.5c0-0.826-0.673-1.5-1.5-1.5h-2c-0.827,0-1.5,0.674-1.5,1.5v0.5h-4v-8.04
		c1.693-0.243,3-1.7,3-3.46c0-1.93-1.57-3.5-3.5-3.5c-1.93,0-3.5,1.57-3.5,3.5c0,1.76,1.307,3.217,3,3.46v8.04H4.5
		c-0.276,0-0.5,0.225-0.5,0.5v6c0,0.275,0.224,0.5,0.5,0.5h15c0.275,0,0.5-0.225,0.5-0.5v-6C20,16.231,19.775,16.006,19.5,16.006z
		 M17.5,19.006h-11c-0.276,0-0.5-0.225-0.5-0.5c0-0.275,0.224-0.5,0.5-0.5h11c0.275,0,0.5,0.225,0.5,0.5
		C18,18.781,17.775,19.006,17.5,19.006z"/>
</g>
<g id="Outline_Icons">
	<g>
		
			<rect x="4.5" y="16.5" fill="none" stroke="#000000" stroke-linecap="round" stroke-linejoin="round" stroke-miterlimit="10" width="15" height="6"/>
		<path fill="none" stroke="#000000" stroke-linecap="round" stroke-linejoin="round" stroke-miterlimit="10" d="M18.5,16.5v-1
			c0-0.549-0.449-1-1-1h-2c-0.55,0-1,0.451-1,1v1"/>
		
			<line fill="none" stroke="#000000" stroke-linecap="round" stroke-linejoin="round" stroke-miterlimit="10" x1="9.5" y1="16.5" x2="9.5" y2="7.5"/>
		
			<circle fill="none" stroke="#000000" stroke-linecap="round" stroke-linejoin="round" stroke-miterlimit="10" cx="9.5" cy="4.5" r="3"/>
		
			<line fill="none" stroke="#000000" stroke-linecap="round" stroke-linejoin="round" stroke-miterlimit="10" x1="6.5" y1="18.5" x2="17.5" y2="18.5"/>
	</g>
</g>
</svg>
