<?xml version="1.0" encoding="utf-8"?>
<!-- Generator: Adobe Illustrator 19.2.0, SVG Export Plug-In . SVG Version: 6.00 Build 0)  -->
<svg version="1.1" id="Layer_1" xmlns="http://www.w3.org/2000/svg" xmlns:xlink="http://www.w3.org/1999/xlink" x="0px" y="0px"
	 viewBox="0 0 24 24" enable-background="new 0 0 24 24" xml:space="preserve">
<g id="Filled_Icons" display="none">
	<g display="inline">
		<path d="M18.5,12.506c-1.416,0-2.747,0.531-3.772,1.5H9.271c-1.023-0.969-2.354-1.5-3.771-1.5c-3.032,0-5.5,2.469-5.5,5.5
			c0,3.032,2.468,5.5,5.5,5.5c1.415,0,2.746-0.531,3.771-1.5h5.456c1.027,0.969,2.358,1.5,3.772,1.5c3.032,0,5.5-2.468,5.5-5.5
			C23.999,14.975,21.532,12.506,18.5,12.506z M7,18.506H5.5v1.5c0,0.275-0.224,0.5-0.5,0.5c-0.276,0-0.5-0.225-0.5-0.5v-1.5H3
			c-0.276,0-0.5-0.225-0.5-0.5c0-0.275,0.224-0.5,0.5-0.5h1.5v-1.5c0-0.275,0.224-0.5,0.5-0.5c0.276,0,0.5,0.225,0.5,0.5v1.5H7
			c0.276,0,0.5,0.225,0.5,0.5C7.5,18.281,7.276,18.506,7,18.506z M11,20.006h-1c-0.276,0-0.5-0.225-0.5-0.5
			c0-0.275,0.224-0.5,0.5-0.5h1c0.276,0,0.5,0.225,0.5,0.5C11.5,19.781,11.276,20.006,11,20.006z M14,20.006h-1
			c-0.275,0-0.5-0.225-0.5-0.5c0-0.275,0.225-0.5,0.5-0.5h1c0.275,0,0.5,0.225,0.5,0.5C14.5,19.781,14.275,20.006,14,20.006z
			 M17.707,18.713C17.519,18.9,17.268,19.006,17,19.006c-0.268,0-0.52-0.104-0.707-0.293C16.103,18.525,16,18.275,16,18.008
			c-0.001-0.268,0.103-0.519,0.293-0.709c0.374-0.376,1.033-0.378,1.413-0.001C18.098,17.688,18.098,18.322,17.707,18.713z
			 M19.707,20.713C19.519,20.9,19.268,21.006,19,21.006c-0.268,0-0.52-0.104-0.707-0.293c-0.391-0.391-0.391-1.023,0-1.414
			c0.377-0.377,1.037-0.377,1.414,0C20.098,19.688,20.098,20.322,19.707,20.713z M19.707,16.713
			C19.519,16.9,19.268,17.006,19,17.006c-0.268,0-0.52-0.104-0.707-0.293c-0.391-0.391-0.391-1.023,0-1.414
			c0.377-0.377,1.037-0.377,1.414,0C20.098,15.688,20.098,16.322,19.707,16.713z M21.707,18.713
			C21.519,18.9,21.268,19.006,21,19.006c-0.268,0-0.52-0.104-0.707-0.293c-0.391-0.391-0.391-1.023,0-1.414
			c0.377-0.377,1.037-0.377,1.414,0C22.098,17.688,22.098,18.322,21.707,18.713z"/>
		<g>
			<path d="M18.327,7.135c-0.128,0-0.257-0.049-0.354-0.147c-1.596-1.596-3.717-2.475-5.972-2.475h-0.003
				c-2.256,0-4.376,0.88-5.972,2.475c-0.195,0.195-0.512,0.195-0.707,0c-0.195-0.195-0.195-0.512,0-0.707
				c1.784-1.784,4.155-2.767,6.678-2.767c0.001,0,0.003,0,0.003,0c2.523,0,4.896,0.982,6.68,2.767c0.195,0.195,0.195,0.512,0,0.707
				C18.583,7.086,18.455,7.135,18.327,7.135z"/>
		</g>
		<g>
			<path d="M20.857,4.709c-0.129,0-0.256-0.049-0.354-0.146c-4.688-4.688-12.317-4.689-17.009,0c-0.195,0.195-0.512,0.195-0.707,0
				c-0.195-0.195-0.195-0.512,0-0.707c5.081-5.08,13.346-5.077,18.423,0c0.194,0.195,0.194,0.512,0,0.707
				C21.113,4.66,20.984,4.709,20.857,4.709z"/>
		</g>
		<g>
			<path d="M15.797,9.559c-0.128,0-0.256-0.049-0.354-0.146c-1.898-1.896-4.986-1.896-6.887,0c-0.195,0.195-0.512,0.195-0.707,0
				c-0.195-0.195-0.195-0.512,0-0.707c2.289-2.287,6.014-2.287,8.301,0c0.195,0.195,0.195,0.512,0,0.707
				C16.053,9.51,15.925,9.559,15.797,9.559z"/>
		</g>
		<g>
			<path d="M18.327,7.135c-0.128,0-0.257-0.049-0.354-0.147c-1.595-1.596-3.716-2.475-5.971-2.475c-0.001,0-0.002,0-0.003,0
				c-2.256,0-4.377,0.879-5.973,2.475c-0.195,0.195-0.512,0.195-0.707,0c-0.195-0.195-0.195-0.512,0-0.707
				C7.104,4.496,9.477,3.514,12,3.514c0.001,0,0.002,0,0.003,0c2.523,0.001,4.896,0.983,6.679,2.767
				c0.194,0.195,0.194,0.512,0,0.707C18.583,7.086,18.455,7.135,18.327,7.135z"/>
		</g>
		<g>
			<path d="M15.797,9.559c-0.128,0-0.256-0.049-0.354-0.146c-1.898-1.896-4.988-1.896-6.887,0c-0.195,0.195-0.512,0.195-0.707,0
				c-0.195-0.195-0.195-0.512,0-0.707c2.29-2.285,6.012-2.286,8.301,0c0.195,0.195,0.195,0.512,0,0.707
				C16.053,9.51,15.925,9.559,15.797,9.559z"/>
		</g>
	</g>
</g>
<g id="Outline_Icons">
	<g>
		<g>
			<path fill="none" stroke="#000000" stroke-linecap="round" stroke-linejoin="round" stroke-miterlimit="10" d="M18.5,13
				c-1.398,0-2.66,0.574-3.568,1.5H9.067C8.16,13.574,6.897,13,5.5,13c-2.762,0-5,2.238-5,5c0,2.76,2.238,5,5,5
				c1.397,0,2.66-0.576,3.567-1.5h5.865c0.907,0.924,2.17,1.5,3.567,1.5c2.761,0,5-2.24,5-5C23.5,15.238,21.262,13,18.5,13z"/>
			
				<circle fill="none" stroke="#000000" stroke-linecap="round" stroke-linejoin="round" stroke-miterlimit="10" cx="18.5" cy="16" r="0.5"/>
			
				<circle fill="none" stroke="#000000" stroke-linecap="round" stroke-linejoin="round" stroke-miterlimit="10" cx="20.5" cy="18" r="0.5"/>
			
				<circle fill="none" stroke="#000000" stroke-linecap="round" stroke-linejoin="round" stroke-miterlimit="10" cx="16.5" cy="18" r="0.5"/>
			
				<circle fill="none" stroke="#000000" stroke-linecap="round" stroke-linejoin="round" stroke-miterlimit="10" cx="18.5" cy="20" r="0.5"/>
			
				<line fill="none" stroke="#000000" stroke-linecap="round" stroke-linejoin="round" stroke-miterlimit="10" x1="5.5" y1="15.5" x2="5.5" y2="19.5"/>
			
				<line fill="none" stroke="#000000" stroke-linecap="round" stroke-linejoin="round" stroke-miterlimit="10" x1="7.5" y1="17.5" x2="3.5" y2="17.5"/>
			
				<line fill="none" stroke="#000000" stroke-linecap="round" stroke-linejoin="round" stroke-miterlimit="10" x1="10" y1="19.5" x2="11" y2="19.5"/>
			
				<line fill="none" stroke="#000000" stroke-linecap="round" stroke-linejoin="round" stroke-miterlimit="10" x1="13" y1="19.5" x2="14" y2="19.5"/>
		</g>
		<path fill="none" stroke="#000000" stroke-linecap="round" stroke-linejoin="round" stroke-miterlimit="10" d="M5.674,6.629
			c3.492-3.492,9.156-3.498,12.653,0"/>
		<path fill="none" stroke="#000000" stroke-linecap="round" stroke-linejoin="round" stroke-miterlimit="10" d="M20.857,4.203
			c-4.89-4.889-12.817-4.896-17.716,0"/>
		<path fill="none" stroke="#000000" stroke-linecap="round" stroke-linejoin="round" stroke-miterlimit="10" d="M8.203,9.053
			c2.097-2.094,5.494-2.098,7.594,0"/>
		<path fill="none" stroke="#000000" stroke-linecap="round" stroke-linejoin="round" stroke-miterlimit="10" d="M18.327,6.629
			c-3.491-3.492-9.156-3.498-12.653,0"/>
		<path fill="none" stroke="#000000" stroke-linecap="round" stroke-linejoin="round" stroke-miterlimit="10" d="M15.797,9.053
			c-2.096-2.094-5.493-2.098-7.594,0"/>
	</g>
</g>
</svg>
