<?xml version="1.0" encoding="utf-8"?>
<!-- Generator: Adobe Illustrator 19.2.0, SVG Export Plug-In . SVG Version: 6.00 Build 0)  -->
<svg version="1.1" id="Layer_1" xmlns="http://www.w3.org/2000/svg" xmlns:xlink="http://www.w3.org/1999/xlink" x="0px" y="0px"
	 viewBox="0 0 24 24" enable-background="new 0 0 24 24" xml:space="preserve">
<g id="Filled_Icons" display="none">
	<path display="inline" d="M18.5,8.506c-1.415,0-2.747,0.531-3.772,1.5H14v-1.5c0-0.275-0.225-0.5-0.5-0.5h-1v-2.5
		c0-1.93-1.57-3.5-3.5-3.5H6c-0.276,0-0.5,0.225-0.5,0.5c0,0.276,0.224,0.5,0.5,0.5h3c1.378,0,2.5,1.121,2.5,2.5v2.5h-1
		c-0.276,0-0.5,0.225-0.5,0.5v1.5H9.271c-1.025-0.969-2.356-1.5-3.771-1.5c-3.033,0-5.5,2.468-5.5,5.5c0,3.032,2.467,5.5,5.5,5.5
		c1.415,0,2.746-0.531,3.771-1.5h5.456c1.025,0.969,2.357,1.5,3.772,1.5c3.032,0,5.5-2.468,5.5-5.5
		C23.999,10.974,21.532,8.506,18.5,8.506z M7.5,14.006H6v1.5c0,0.275-0.224,0.5-0.5,0.5c-0.276,0-0.5-0.225-0.5-0.5v-1.5H3.5
		c-0.276,0-0.5-0.225-0.5-0.5c0-0.275,0.224-0.5,0.5-0.5H5v-1.5c0-0.275,0.224-0.5,0.5-0.5c0.276,0,0.5,0.224,0.5,0.5v1.5h1.5
		c0.276,0,0.5,0.225,0.5,0.5C8,13.781,7.776,14.006,7.5,14.006z M11,9.006h2v1h-2V9.006z M11,16.006h-1c-0.276,0-0.5-0.225-0.5-0.5
		c0-0.275,0.224-0.5,0.5-0.5h1c0.276,0,0.5,0.225,0.5,0.5C11.5,15.781,11.276,16.006,11,16.006z M14,16.006h-1
		c-0.275,0-0.5-0.225-0.5-0.5c0-0.275,0.225-0.5,0.5-0.5h1c0.275,0,0.5,0.225,0.5,0.5C14.5,15.781,14.275,16.006,14,16.006z
		 M17.793,11.299c0.378-0.379,1.036-0.379,1.414,0c0.187,0.188,0.293,0.44,0.293,0.707c0,0.268-0.104,0.52-0.293,0.707
		c-0.189,0.188-0.439,0.293-0.707,0.293c-0.268,0-0.52-0.104-0.707-0.293c-0.19-0.188-0.293-0.439-0.293-0.707
		C17.5,11.739,17.603,11.487,17.793,11.299z M17.207,14.713c-0.189,0.188-0.439,0.293-0.707,0.293c-0.268,0-0.52-0.104-0.707-0.293
		c-0.188-0.188-0.293-0.438-0.294-0.705c0-0.268,0.104-0.519,0.294-0.709c0.374-0.377,1.034-0.379,1.413-0.001
		C17.598,13.688,17.598,14.322,17.207,14.713z M19.207,16.713c-0.189,0.188-0.439,0.293-0.707,0.293
		c-0.268,0-0.52-0.104-0.707-0.293c-0.19-0.188-0.293-0.44-0.293-0.707c0-0.268,0.103-0.52,0.293-0.707
		c0.378-0.379,1.036-0.379,1.414,0c0.187,0.188,0.293,0.439,0.293,0.707C19.5,16.273,19.396,16.525,19.207,16.713z M21.207,14.713
		c-0.189,0.188-0.439,0.293-0.707,0.293c-0.268,0-0.52-0.104-0.707-0.293c-0.19-0.188-0.293-0.44-0.293-0.707
		c0-0.268,0.103-0.52,0.293-0.707c0.378-0.379,1.036-0.379,1.414,0c0.187,0.188,0.293,0.439,0.293,0.707
		C21.5,14.273,21.396,14.525,21.207,14.713z"/>
</g>
<g id="Outline_Icons">
	<g>
		<path fill="none" stroke="#000000" stroke-linecap="round" stroke-linejoin="round" stroke-miterlimit="10" d="M18.5,9
			c-1.398,0-2.66,0.576-3.568,1.5H9.067C8.16,9.576,6.897,9,5.5,9c-2.762,0-5,2.238-5,5c0,2.762,2.238,5,5,5
			c1.397,0,2.66-0.574,3.567-1.5h5.865c0.907,0.926,2.17,1.5,3.567,1.5c2.761,0,5-2.238,5-5C23.499,11.238,21.262,9,18.5,9z"/>
		
			<circle fill="none" stroke="#000000" stroke-linecap="round" stroke-linejoin="round" stroke-miterlimit="10" cx="18.5" cy="12" r="0.5"/>
		
			<circle fill="none" stroke="#000000" stroke-linecap="round" stroke-linejoin="round" stroke-miterlimit="10" cx="20.5" cy="14" r="0.5"/>
		
			<circle fill="none" stroke="#000000" stroke-linecap="round" stroke-linejoin="round" stroke-miterlimit="10" cx="16.5" cy="14" r="0.5"/>
		
			<circle fill="none" stroke="#000000" stroke-linecap="round" stroke-linejoin="round" stroke-miterlimit="10" cx="18.5" cy="16" r="0.5"/>
		
			<line fill="none" stroke="#000000" stroke-linecap="round" stroke-linejoin="round" stroke-miterlimit="10" x1="5.5" y1="11.5" x2="5.5" y2="15.5"/>
		
			<line fill="none" stroke="#000000" stroke-linecap="round" stroke-linejoin="round" stroke-miterlimit="10" x1="7.5" y1="13.5" x2="3.5" y2="13.5"/>
		
			<line fill="none" stroke="#000000" stroke-linecap="round" stroke-linejoin="round" stroke-miterlimit="10" x1="10" y1="15.5" x2="11" y2="15.5"/>
		
			<line fill="none" stroke="#000000" stroke-linecap="round" stroke-linejoin="round" stroke-miterlimit="10" x1="13" y1="15.5" x2="14" y2="15.5"/>
		
			<rect x="10.5" y="8.5" fill="none" stroke="#000000" stroke-linecap="round" stroke-linejoin="round" stroke-miterlimit="10" width="3" height="2"/>
		<path fill="none" stroke="#000000" stroke-linecap="round" stroke-linejoin="round" stroke-miterlimit="10" d="M11.5,8.5v-3
			c0-1.65-1.35-3-3-3h-3"/>
	</g>
</g>
</svg>
