<?xml version="1.0" encoding="utf-8"?>
<!-- Generator: Adobe Illustrator 19.2.0, SVG Export Plug-In . SVG Version: 6.00 Build 0)  -->
<svg version="1.1" id="Layer_1" xmlns="http://www.w3.org/2000/svg" xmlns:xlink="http://www.w3.org/1999/xlink" x="0px" y="0px"
	 viewBox="0 0 24 24" enable-background="new 0 0 24 24" xml:space="preserve">
<g id="Filled_Icons" display="none">
	<path display="inline" d="M19.5,7.006H14v-1.5c0-0.275-0.225-0.5-0.5-0.5h-1v-2c0-1.654-1.346-3-3-3H5c-0.276,0-0.5,0.225-0.5,0.5
		c0,0.276,0.224,0.5,0.5,0.5h4.5c1.103,0,2,0.897,2,2v2h-1c-0.276,0-0.5,0.225-0.5,0.5v1.5H4.5c-2.481,0-4.5,2.02-4.5,4.5v10
		c0,1.378,1.121,2.5,2.5,2.5c1.313,0,1.446-0.24,2.727-2.549c0.537-0.969,1.338-2.412,2.557-4.451h8.434
		c1.226,2.053,2.021,3.498,2.552,4.469c1.205,2.194,1.391,2.531,2.732,2.531c1.378,0,2.5-1.122,2.5-2.5v-10
		C24,9.025,21.98,7.006,19.5,7.006z M17.793,9.799c0.378-0.379,1.036-0.379,1.414,0c0.187,0.188,0.293,0.44,0.293,0.707
		c0,0.268-0.104,0.52-0.293,0.707c-0.189,0.188-0.439,0.293-0.707,0.293c-0.268,0-0.52-0.104-0.707-0.293
		c-0.19-0.188-0.293-0.439-0.293-0.707C17.5,10.239,17.603,9.987,17.793,9.799z M11,6.006h2v1h-2V6.006z M7.5,13.006H6v1.5
		c0,0.275-0.224,0.5-0.5,0.5c-0.276,0-0.5-0.225-0.5-0.5v-1.5H3.5c-0.276,0-0.5-0.225-0.5-0.5c0-0.275,0.224-0.5,0.5-0.5H5v-1.5
		c0-0.275,0.224-0.5,0.5-0.5c0.276,0,0.5,0.224,0.5,0.5v1.5h1.5c0.276,0,0.5,0.225,0.5,0.5C8,12.781,7.776,13.006,7.5,13.006z
		 M11,15.006h-1c-0.276,0-0.5-0.225-0.5-0.5c0-0.275,0.224-0.5,0.5-0.5h1c0.276,0,0.5,0.225,0.5,0.5
		C11.5,14.781,11.276,15.006,11,15.006z M14,15.006h-1c-0.275,0-0.5-0.225-0.5-0.5c0-0.275,0.225-0.5,0.5-0.5h1
		c0.275,0,0.5,0.225,0.5,0.5C14.5,14.781,14.275,15.006,14,15.006z M17.207,13.213c-0.189,0.188-0.439,0.293-0.707,0.293
		c-0.268,0-0.52-0.104-0.707-0.293c-0.188-0.188-0.293-0.438-0.294-0.705c0-0.268,0.104-0.52,0.294-0.709
		c0.374-0.377,1.034-0.379,1.413-0.001C17.598,12.188,17.598,12.822,17.207,13.213z M19.207,15.213
		c-0.189,0.188-0.439,0.293-0.707,0.293c-0.268,0-0.52-0.104-0.707-0.293c-0.19-0.188-0.293-0.44-0.293-0.707
		c0-0.268,0.103-0.52,0.293-0.707c0.378-0.379,1.036-0.379,1.414,0c0.187,0.188,0.293,0.439,0.293,0.707
		C19.5,14.773,19.396,15.025,19.207,15.213z M21.207,13.213c-0.189,0.188-0.439,0.293-0.707,0.293c-0.268,0-0.52-0.104-0.707-0.293
		c-0.19-0.188-0.293-0.439-0.293-0.707c0-0.267,0.103-0.519,0.293-0.707c0.378-0.379,1.036-0.379,1.414,0
		c0.187,0.188,0.293,0.44,0.293,0.707C21.5,12.773,21.396,13.025,21.207,13.213z"/>
</g>
<g id="Outline_Icons">
	<g>
		<path fill="none" stroke="#000000" stroke-linecap="round" stroke-linejoin="round" stroke-miterlimit="10" d="M23.5,11.5
			c0-2.209-1.791-4-4-4h-15c-2.209,0-4,1.791-4,4v10c0,1.106,0.896,2,2,2c1.486,0,0.853-0.088,5-7h9c4.082,6.805,3.459,7,5,7
			c1.103,0,2-0.894,2-2V11.5z"/>
		
			<circle fill="none" stroke="#000000" stroke-linecap="round" stroke-linejoin="round" stroke-miterlimit="10" cx="18.5" cy="10.5" r="0.5"/>
		
			<circle fill="none" stroke="#000000" stroke-linecap="round" stroke-linejoin="round" stroke-miterlimit="10" cx="20.5" cy="12.5" r="0.5"/>
		
			<circle fill="none" stroke="#000000" stroke-linecap="round" stroke-linejoin="round" stroke-miterlimit="10" cx="16.5" cy="12.5" r="0.5"/>
		
			<circle fill="none" stroke="#000000" stroke-linecap="round" stroke-linejoin="round" stroke-miterlimit="10" cx="18.5" cy="14.5" r="0.5"/>
		
			<line fill="none" stroke="#000000" stroke-linecap="round" stroke-linejoin="round" stroke-miterlimit="10" x1="5.5" y1="10.5" x2="5.5" y2="14.5"/>
		
			<line fill="none" stroke="#000000" stroke-linecap="round" stroke-linejoin="round" stroke-miterlimit="10" x1="7.5" y1="12.5" x2="3.5" y2="12.5"/>
		
			<line fill="none" stroke="#000000" stroke-linecap="round" stroke-linejoin="round" stroke-miterlimit="10" x1="10" y1="14.5" x2="11" y2="14.5"/>
		
			<line fill="none" stroke="#000000" stroke-linecap="round" stroke-linejoin="round" stroke-miterlimit="10" x1="13" y1="14.5" x2="14" y2="14.5"/>
		
			<rect x="9.5" y="5.5" fill="none" stroke="#000000" stroke-linecap="round" stroke-linejoin="round" stroke-miterlimit="10" width="4" height="2"/>
		<path fill="none" stroke="#000000" stroke-linecap="round" stroke-linejoin="round" stroke-miterlimit="10" d="M11.5,5.5V3
			c0-1.375-1.125-2.5-2.5-2.5H4.5"/>
	</g>
</g>
</svg>
