<?xml version="1.0" encoding="utf-8"?>
<!-- Generator: Adobe Illustrator 19.2.0, SVG Export Plug-In . SVG Version: 6.00 Build 0)  -->
<svg version="1.1" id="Layer_1" xmlns="http://www.w3.org/2000/svg" xmlns:xlink="http://www.w3.org/1999/xlink" x="0px" y="0px"
	 viewBox="0 0 24 24" enable-background="new 0 0 24 24" xml:space="preserve">
<g id="Filled_Icons" display="none">
	<path display="inline" d="M21.5,5.006h-3.44c-0.506,0-0.975-0.251-1.252-0.672L16.01,3.126c-0.465-0.701-1.244-1.12-2.085-1.12
		h-3.841c-0.85,0-1.633,0.426-2.095,1.138L7.22,4.324C6.941,4.751,6.472,5.006,5.963,5.006H2.5c-1.379,0-2.5,1.121-2.5,2.5v11
		c0,2.294,8.392,2.542,12,2.542c3.607,0,12-0.248,12-2.542v-11C24,6.127,22.879,5.006,21.5,5.006z M4.484,17.006H2.516
		c-0.276,0-0.5-0.225-0.5-0.5c0-0.275,0.224-0.5,0.5-0.5h1.969c0.276,0,0.5,0.225,0.5,0.5C4.985,16.781,4.761,17.006,4.484,17.006z
		 M5.5,12.006H4v1.484c0,0.275-0.224,0.5-0.5,0.5c-0.276,0-0.5-0.223-0.5-0.5v-1.484H1.5c-0.276,0-0.5-0.224-0.5-0.5
		c0-0.276,0.224-0.5,0.5-0.5H3v-1.5c0-0.276,0.224-0.5,0.5-0.5c0.276,0,0.5,0.223,0.5,0.5v1.5h1.5c0.276,0,0.5,0.224,0.5,0.5
		C6,11.782,5.776,12.006,5.5,12.006z M17,16.506c0,0.275-0.225,0.5-0.5,0.5h-9c-0.276,0-0.5-0.225-0.5-0.5v-8
		c0-0.276,0.224-0.5,0.5-0.5h9c0.275,0,0.5,0.224,0.5,0.5V16.506z M21.728,15.422l-1.469,1.469
		c-0.098,0.098-0.226,0.146-0.353,0.146c-0.129,0-0.256-0.049-0.354-0.146c-0.195-0.195-0.195-0.512,0-0.707l1.469-1.469
		c0.194-0.195,0.512-0.195,0.707,0C21.923,14.91,21.924,15.227,21.728,15.422z M21.728,12.422l-1.469,1.469
		c-0.098,0.098-0.226,0.146-0.353,0.146c-0.129,0-0.256-0.049-0.354-0.146c-0.195-0.195-0.195-0.512,0-0.707l1.469-1.469
		c0.194-0.195,0.512-0.195,0.707,0C21.923,11.91,21.924,12.227,21.728,12.422z M21.728,9.422l-1.469,1.469
		c-0.098,0.098-0.226,0.146-0.353,0.146c-0.129,0-0.256-0.049-0.354-0.146c-0.195-0.195-0.195-0.512,0-0.707l1.469-1.469
		c0.194-0.195,0.512-0.195,0.707,0C21.923,8.91,21.924,9.227,21.728,9.422z"/>
</g>
<g id="Outline_Icons">
	<g>
		<path fill="none" stroke="#000000" stroke-linejoin="round" stroke-miterlimit="10" d="M23.5,18.5c0,2.723-23,2.723-23,0v-11
			c0-1.104,0.896-2,2-2h3.463c0.676,0,1.307-0.342,1.676-0.908l0.77-1.182c0.369-0.568,1-0.91,1.676-0.91h3.841
			c0.672,0,1.299,0.338,1.668,0.896l0.799,1.207C16.762,5.164,17.389,5.5,18.06,5.5h3.44c1.103,0,2,0.896,2,2V18.5z"/>
		<rect x="8.5" y="8.5" fill="none" stroke="#000000" stroke-linejoin="round" stroke-miterlimit="10" width="9" height="8"/>
		
			<line fill="none" stroke="#000000" stroke-linecap="round" stroke-linejoin="round" stroke-miterlimit="10" x1="19.906" y1="10.531" x2="21.375" y2="9.063"/>
		
			<line fill="none" stroke="#000000" stroke-linecap="round" stroke-linejoin="round" stroke-miterlimit="10" x1="19.906" y1="13.531" x2="21.375" y2="12.063"/>
		
			<line fill="none" stroke="#000000" stroke-linecap="round" stroke-linejoin="round" stroke-miterlimit="10" x1="19.906" y1="16.531" x2="21.375" y2="15.063"/>
		
			<line fill="none" stroke="#000000" stroke-linecap="round" stroke-linejoin="round" stroke-miterlimit="10" x1="2.5" y1="11.5" x2="6.5" y2="11.5"/>
		
			<line fill="none" stroke="#000000" stroke-linecap="round" stroke-linejoin="round" stroke-miterlimit="10" x1="4.5" y1="9.5" x2="4.5" y2="13.484"/>
		
			<line fill="none" stroke="#000000" stroke-linecap="round" stroke-linejoin="round" stroke-miterlimit="10" x1="3.516" y1="16.5" x2="5.484" y2="16.5"/>
	</g>
</g>
</svg>
