<?xml version="1.0" encoding="utf-8"?>
<!-- Generator: Adobe Illustrator 19.2.0, SVG Export Plug-In . SVG Version: 6.00 Build 0)  -->
<svg version="1.1" id="Layer_1" xmlns="http://www.w3.org/2000/svg" xmlns:xlink="http://www.w3.org/1999/xlink" x="0px" y="0px"
	 viewBox="0 0 24 24" enable-background="new 0 0 24 24" xml:space="preserve">
<g id="Filled_Icons" display="none">
	<g display="inline">
		<polygon points="18,15.506 18,15.006 17.999,15.008 		"/>
		<polygon points="15,17.006 15,16.506 14.999,16.507 		"/>
		<path d="M18.5,0.006h-13c-1.379,0-2.5,1.121-2.5,2.5v19c0,1.378,1.121,2.5,2.5,2.5h10c1.236,0,2.893-0.686,3.768-1.561
			l0.172-0.172C20.314,21.398,21,19.744,21,18.506v-16C21,1.127,19.878,0.006,18.5,0.006z M8,18.506c0,0.275-0.224,0.5-0.5,0.5
			c-0.276,0-0.5-0.225-0.5-0.5v-1.5H5.5c-0.276,0-0.5-0.225-0.5-0.5c0-0.275,0.224-0.5,0.5-0.5H7v-1.5c0-0.275,0.224-0.5,0.5-0.5
			c0.276,0,0.5,0.225,0.5,0.5v1.5h1.5c0.276,0,0.5,0.225,0.5,0.5c0,0.275-0.224,0.5-0.5,0.5H8V18.506z M10.724,20.953l-1,0.5
			c-0.072,0.035-0.148,0.053-0.224,0.053c-0.184,0-0.359-0.102-0.447-0.275c-0.124-0.248-0.023-0.547,0.224-0.672l1-0.5
			c0.246-0.123,0.547-0.022,0.671,0.225C11.07,20.529,10.971,20.829,10.724,20.953z M13.725,20.953l-1,0.5
			c-0.072,0.035-0.148,0.053-0.225,0.053c-0.184,0-0.359-0.102-0.447-0.275c-0.124-0.248-0.023-0.547,0.224-0.672l1-0.5
			c0.246-0.123,0.547-0.022,0.67,0.225C14.07,20.529,13.971,20.829,13.725,20.953z M15,17.506c-0.553,0-1-0.447-1-1
			c0-0.552,0.447-1,1-1c0.551,0,1,0.448,1,1C16,17.059,15.551,17.506,15,17.506z M7.5,12.006c-0.827,0-1.5-0.673-1.5-1.5v-6
			c0-0.827,0.673-1.5,1.5-1.5h9c0.827,0,1.5,0.673,1.5,1.5v6c0,0.827-0.673,1.5-1.5,1.5H7.5z M18,16.006c-0.553,0-1-0.447-1-1
			c0-0.552,0.447-1,1-1c0.551,0,1,0.448,1,1C19,15.559,18.551,16.006,18,16.006z"/>
	</g>
</g>
<g id="Outline_Icons">
	<g>
		<path fill="none" stroke="#000000" stroke-linecap="round" stroke-linejoin="round" stroke-miterlimit="10" d="M18.915,22.086
			C18.137,22.863,16.602,23.5,15.5,23.5h-10c-1.101,0-2-0.9-2-2v-19c0-1.1,0.899-2,2-2h13c1.102,0,2,0.9,2,2v16
			c0,1.1-0.637,2.637-1.414,3.414L18.915,22.086z"/>
		<path fill="none" stroke="#000000" stroke-linecap="round" stroke-linejoin="round" stroke-miterlimit="10" d="M17.5,10.5
			c0,0.551-0.449,1-1,1h-9c-0.55,0-1-0.449-1-1v-6c0-0.549,0.45-1,1-1h9c0.551,0,1,0.451,1,1V10.5z"/>
		
			<circle fill="none" stroke="#000000" stroke-linecap="round" stroke-linejoin="round" stroke-miterlimit="10" cx="18" cy="15" r="0.5"/>
		
			<circle fill="none" stroke="#000000" stroke-linecap="round" stroke-linejoin="round" stroke-miterlimit="10" cx="15" cy="16.5" r="0.5"/>
		
			<line fill="none" stroke="#000000" stroke-linecap="round" stroke-linejoin="round" stroke-miterlimit="10" x1="9.5" y1="16.5" x2="5.5" y2="16.5"/>
		
			<line fill="none" stroke="#000000" stroke-linecap="round" stroke-linejoin="round" stroke-miterlimit="10" x1="7.5" y1="14.5" x2="7.5" y2="18.5"/>
		
			<line fill="none" stroke="#000000" stroke-linecap="round" stroke-linejoin="round" stroke-miterlimit="10" x1="12.5" y1="21" x2="13.5" y2="20.5"/>
		
			<line fill="none" stroke="#000000" stroke-linecap="round" stroke-linejoin="round" stroke-miterlimit="10" x1="9.5" y1="21" x2="10.5" y2="20.5"/>
	</g>
</g>
</svg>
