<?xml version="1.0" encoding="utf-8"?>
<!-- Generator: Adobe Illustrator 19.2.0, SVG Export Plug-In . SVG Version: 6.00 Build 0)  -->
<svg version="1.1" id="Layer_1" xmlns="http://www.w3.org/2000/svg" xmlns:xlink="http://www.w3.org/1999/xlink" x="0px" y="0px"
	 viewBox="0 0 24 24" style="enable-background:new 0 0 24 24;" xml:space="preserve">
<style type="text/css">
	.st0{display:none;}
	.st1{display:inline;}
	.st2{fill:none;stroke:#000000;stroke-linecap:round;stroke-linejoin:round;stroke-miterlimit:10;}
</style>
<g id="Filled_Icons" class="st0">
	<g class="st1">
		<g>
			<path d="M23,12c-0.2,0-0.5-0.1-0.7-0.3L12,2.4L1.7,11.7c-0.4,0.4-1,0.3-1.4-0.1c-0.4-0.4-0.3-1,0.1-1.4l11-10
				c0.4-0.3,1-0.3,1.3,0l11,10c0.4,0.4,0.4,1,0.1,1.4C23.5,11.9,23.3,12,23,12z"/>
		</g>
		<g>
			<path d="M19.8,15L18,10.3c-0.1-0.2-0.3-0.3-0.5-0.3h-11c-0.2,0-0.4,0.1-0.5,0.3L4.2,15H19.8z"/>
			<path d="M17,20c-0.3,0-0.5-0.2-0.5-0.5c0-0.3,0.2-0.5,0.5-0.5h5v-1.5c0-0.1-0.1-0.3-0.1-0.4L20.7,16H3.3l-1.1,1.1
				C2.1,17.2,2,17.4,2,17.5V19h5c0.3,0,0.5,0.2,0.5,0.5C7.5,19.8,7.3,20,7,20H2v1.5C2,21.8,2.2,22,2.5,22H3v1.5
				C3,23.8,3.2,24,3.5,24h3C6.8,24,7,23.8,7,23.5V22h10v1.5c0,0.3,0.2,0.5,0.5,0.5h3c0.3,0,0.5-0.2,0.5-0.5V22h0.5
				c0.3,0,0.5-0.2,0.5-0.5V20H17z"/>
		</g>
	</g>
</g>
<g id="Outline_Icons">
	<g>
		<polyline class="st2" points="0.5,11 12,0.5 23.5,11 		"/>
		<rect x="3.5" y="21.5" class="st2" width="3" height="2"/>
		<rect x="17.5" y="21.5" class="st2" width="3" height="2"/>
		<polygon class="st2" points="21.5,21.5 21.5,17.5 19.5,15.5 4.5,15.5 2.5,17.5 2.5,21.5 		"/>
		<polygon class="st2" points="17.5,10.5 6.5,10.5 4.5,15.5 19.5,15.5 		"/>
		<line class="st2" x1="2.5" y1="19.5" x2="7" y2="19.5"/>
		<line class="st2" x1="17" y1="19.5" x2="21.5" y2="19.5"/>
	</g>
</g>
</svg>
