<?xml version="1.0" encoding="utf-8"?>
<!-- Generator: Adobe Illustrator 19.2.0, SVG Export Plug-In . SVG Version: 6.00 Build 0)  -->
<svg version="1.1" id="Layer_1" xmlns="http://www.w3.org/2000/svg" xmlns:xlink="http://www.w3.org/1999/xlink" x="0px" y="0px"
	 viewBox="0 0 24 24" style="enable-background:new 0 0 24 24;" xml:space="preserve">
<style type="text/css">
	.st0{display:none;}
	.st1{display:inline;}
	.st2{fill:none;stroke:#000000;stroke-linecap:round;stroke-linejoin:round;stroke-miterlimit:10;}
</style>
<g id="Filled_Icons" class="st0">
	<g class="st1">
		<path d="M23.5,23H22V12.5c0-0.3-0.2-0.5-0.5-0.5h-19C2.2,12,2,12.2,2,12.5V23H0.5C0.2,23,0,23.2,0,23.5C0,23.8,0.2,24,0.5,24h23
			c0.3,0,0.5-0.2,0.5-0.5C24,23.2,23.8,23,23.5,23z M19,23H5v-9h14V23z"/>
		<path d="M23.7,8L12.2,3C12.1,3,11.9,3,11.8,3L0.3,8C0.1,8.1,0,8.3,0,8.5v2C0,10.8,0.2,11,0.5,11h23c0.3,0,0.5-0.2,0.5-0.5v-2
			C24,8.3,23.9,8.1,23.7,8z"/>
		<path d="M6.5,17h11c0.3,0,0.5-0.2,0.5-0.5c0-0.3-0.2-0.5-0.5-0.5h-11C6.2,16,6,16.2,6,16.5C6,16.8,6.2,17,6.5,17z"/>
		<path d="M6.5,19h11c0.3,0,0.5-0.2,0.5-0.5c0-0.3-0.2-0.5-0.5-0.5h-11C6.2,18,6,18.2,6,18.5C6,18.8,6.2,19,6.5,19z"/>
		<path d="M6.5,21h11c0.3,0,0.5-0.2,0.5-0.5c0-0.3-0.2-0.5-0.5-0.5h-11C6.2,20,6,20.2,6,20.5C6,20.8,6.2,21,6.5,21z"/>
	</g>
</g>
<g id="Outline_Icons">
	<g>
		<line class="st2" x1="0.5" y1="23.5" x2="23.5" y2="23.5"/>
		<rect x="2.5" y="11.5" class="st2" width="19" height="12"/>
		<polygon class="st2" points="23.5,9.5 12,4.5 0.5,9.5 0.5,11.5 23.5,11.5 		"/>
		<rect x="4.5" y="13.5" class="st2" width="15" height="10"/>
		<line class="st2" x1="6.5" y1="16.5" x2="17.5" y2="16.5"/>
		<line class="st2" x1="6.5" y1="18.5" x2="17.5" y2="18.5"/>
		<line class="st2" x1="6.5" y1="20.5" x2="17.5" y2="20.5"/>
	</g>
</g>
</svg>
