<?xml version="1.0" encoding="utf-8"?>
<!-- Generator: Adobe Illustrator 19.2.0, SVG Export Plug-In . SVG Version: 6.00 Build 0)  -->
<svg version="1.1" id="Layer_1" xmlns="http://www.w3.org/2000/svg" xmlns:xlink="http://www.w3.org/1999/xlink" x="0px" y="0px"
	 viewBox="0 0 24 24" enable-background="new 0 0 24 24" xml:space="preserve">
<g id="Filled_Icons" display="none">
	<g display="inline">
		<path d="M12,12.006c-3.309,0-6,2.691-6,6s2.691,6,6,6c3.309,0,6-2.691,6-6S15.309,12.006,12,12.006z M9,19.006
			c-0.552,0-1-0.449-1-1c0-0.551,0.448-1,1-1c0.552,0,1,0.449,1,1C10,18.557,9.552,19.006,9,19.006z M12,22.006
			c-0.552,0-1-0.449-1-1c0-0.551,0.448-1,1-1c0.553,0,1,0.449,1,1C13,21.557,12.553,22.006,12,22.006z M12,19.006
			c-0.552,0-1-0.449-1-1c0-0.551,0.448-1,1-1c0.553,0,1,0.449,1,1C13,18.557,12.553,19.006,12,19.006z M12,16.006
			c-0.552,0-1-0.449-1-1c0-0.551,0.448-1,1-1c0.553,0,1,0.449,1,1C13,15.557,12.553,16.006,12,16.006z M15,19.006
			c-0.553,0-1-0.449-1-1c0-0.551,0.447-1,1-1c0.553,0,1,0.449,1,1C16,18.557,15.553,19.006,15,19.006z"/>
		<path d="M12,0.006c-5.514,0-10,4.486-10,10v0.5c0,1.212,0.555,2.934,1.262,3.916l1.825,2.538c0.508-3.362,3.41-5.953,6.913-5.953
			c3.529,0,6.451,2.63,6.925,6.031l1.834-2.606C21.455,13.44,22,11.716,22,10.506v-0.5C22,4.492,17.514,0.006,12,0.006z M8,10.506
			c-1.654,0-3-1.345-3-3c0-1.654,1.346-3,3-3c1.654,0,3,1.346,3,3C11,9.161,9.654,10.506,8,10.506z M16,10.506c-1.654,0-3-1.345-3-3
			c0-1.654,1.346-3,3-3c1.654,0,3,1.346,3,3C19,9.161,17.654,10.506,16,10.506z"/>
	</g>
</g>
<g id="Outline_Icons">
	<g>
		<path fill="none" stroke="#000000" stroke-linejoin="round" stroke-miterlimit="10" d="M6.593,18.19l-2.925-4.067
			C3.025,13.231,2.5,11.601,2.5,10.5V10c0-5.246,4.253-9.5,9.5-9.5c5.247,0,9.5,4.254,9.5,9.5v0.5c0,1.101-0.518,2.736-1.15,3.637
			l-2.82,4.012"/>
		<circle fill="none" stroke="#000000" stroke-linejoin="round" stroke-miterlimit="10" cx="12" cy="18" r="5.5"/>
		<circle fill="none" stroke="#000000" stroke-linejoin="round" stroke-miterlimit="10" cx="12" cy="15" r="0.5"/>
		<circle fill="none" stroke="#000000" stroke-linejoin="round" stroke-miterlimit="10" cx="15" cy="18" r="0.5"/>
		<circle fill="none" stroke="#000000" stroke-linejoin="round" stroke-miterlimit="10" cx="12" cy="21" r="0.5"/>
		<circle fill="none" stroke="#000000" stroke-linejoin="round" stroke-miterlimit="10" cx="9" cy="18" r="0.5"/>
		<circle fill="none" stroke="#000000" stroke-linejoin="round" stroke-miterlimit="10" cx="12" cy="18" r="0.5"/>
		<circle fill="none" stroke="#000000" stroke-linejoin="round" stroke-miterlimit="10" cx="8" cy="8" r="2.5"/>
		<circle fill="none" stroke="#000000" stroke-linejoin="round" stroke-miterlimit="10" cx="16" cy="8" r="2.5"/>
	</g>
	<g>
		<path fill="none" stroke="#000000" stroke-linejoin="round" stroke-miterlimit="10" d="M6.593,18.19l-2.925-4.067
			C3.025,13.231,2.5,11.601,2.5,10.5V10c0-5.246,4.253-9.5,9.5-9.5c5.247,0,9.5,4.254,9.5,9.5v0.5c0,1.101-0.518,2.736-1.15,3.637
			l-2.82,4.012"/>
		<circle fill="none" stroke="#000000" stroke-linejoin="round" stroke-miterlimit="10" cx="12" cy="18" r="5.5"/>
		<circle fill="none" stroke="#000000" stroke-linejoin="round" stroke-miterlimit="10" cx="12" cy="15" r="0.5"/>
		<circle fill="none" stroke="#000000" stroke-linejoin="round" stroke-miterlimit="10" cx="15" cy="18" r="0.5"/>
		<circle fill="none" stroke="#000000" stroke-linejoin="round" stroke-miterlimit="10" cx="12" cy="21" r="0.5"/>
		<circle fill="none" stroke="#000000" stroke-linejoin="round" stroke-miterlimit="10" cx="9" cy="18" r="0.5"/>
		<circle fill="none" stroke="#000000" stroke-linejoin="round" stroke-miterlimit="10" cx="12" cy="18" r="0.5"/>
		<circle fill="none" stroke="#000000" stroke-linejoin="round" stroke-miterlimit="10" cx="8" cy="8" r="2.5"/>
		<circle fill="none" stroke="#000000" stroke-linejoin="round" stroke-miterlimit="10" cx="16" cy="8" r="2.5"/>
	</g>
</g>
</svg>
