<?xml version="1.0" encoding="utf-8"?>
<!-- Generator: Adobe Illustrator 19.2.0, SVG Export Plug-In . SVG Version: 6.00 Build 0)  -->
<svg version="1.1" id="Layer_1" xmlns="http://www.w3.org/2000/svg" xmlns:xlink="http://www.w3.org/1999/xlink" x="0px" y="0px"
	 viewBox="0 0 24 24" enable-background="new 0 0 24 24" xml:space="preserve">
<g id="Filled_Icons" display="none">
	<g display="inline">
		<path d="M5.709,20.006h11.582c1.033-0.822,1.709-2.078,1.709-3.5v-6c0-1.954-1.258-3.602-3-4.224V1.006h2
			c0.275,0,0.5-0.224,0.5-0.5c0-0.277-0.225-0.5-0.5-0.5H5c-0.276,0-0.5,0.223-0.5,0.5c0,0.276,0.224,0.5,0.5,0.5h2v5.276
			c-1.742,0.622-3,2.271-3,4.224v6C4,17.928,4.676,19.184,5.709,20.006z M11.5,18.006c-1.808,0-3.273-1.465-3.273-3.271
			c0-1.254,0.68-2.323,2.046-2.863c0.062,0.54,0.417,0.897,0.817,1.227c0.584-0.883,0.666-3-0.817-4.091
			c2.599,0.598,4.5,3.087,4.5,5.728C14.771,16.542,13.307,18.006,11.5,18.006z M8,1.006h7v5.051c-0.166-0.02-0.329-0.051-0.5-0.051
			H12v-2h1c0.275,0,0.5-0.224,0.5-0.5c0-0.277-0.225-0.5-0.5-0.5h-3c-0.276,0-0.5,0.223-0.5,0.5c0,0.276,0.224,0.5,0.5,0.5h1v2H8.5
			c-0.171,0-0.334,0.031-0.5,0.051V1.006z"/>
		<path d="M18.932,21.006H4.069C3.415,21.643,3,22.523,3,23.506v0.5h17v-0.5C20,22.523,19.585,21.643,18.932,21.006z"/>
	</g>
</g>
<g id="Outline_Icons">
	<g>
		<path fill="none" stroke="#000000" stroke-linecap="round" stroke-linejoin="round" stroke-miterlimit="10" d="M18.5,10.5
			c0-2.209-1.791-4-4-4h-6c-2.209,0-4,1.791-4,4v6c0,2.209,1.791,4,4,4h6c2.209,0,4-1.791,4-4V10.5z"/>
		
			<line fill="none" stroke="#000000" stroke-linecap="round" stroke-linejoin="round" stroke-miterlimit="10" x1="7.5" y1="6.627" x2="7.5" y2="0.5"/>
		
			<line fill="none" stroke="#000000" stroke-linecap="round" stroke-linejoin="round" stroke-miterlimit="10" x1="15.5" y1="6.627" x2="15.5" y2="0.5"/>
		<path fill="none" stroke="#000000" stroke-linecap="round" stroke-linejoin="round" stroke-miterlimit="10" d="M10.272,9
			c1.483,1.091,1.401,3.208,0.817,4.091c-0.4-0.327-0.756-0.686-0.817-1.226c-1.366,0.54-2.046,1.61-2.046,2.864
			C8.227,16.535,9.692,18,11.5,18c1.807,0,3.271-1.465,3.271-3.271C14.771,12.086,12.871,9.598,10.272,9z"/>
		<path fill="none" stroke="#000000" stroke-linecap="round" stroke-linejoin="round" stroke-miterlimit="10" d="M3.5,23.5h16
			c0-1.656-1.344-3-3-3h-10C4.843,20.5,3.5,21.844,3.5,23.5z"/>
		
			<line fill="none" stroke="#000000" stroke-linecap="round" stroke-linejoin="round" stroke-miterlimit="10" x1="5" y1="0.5" x2="18" y2="0.5"/>
		
			<line fill="none" stroke="#000000" stroke-linecap="round" stroke-linejoin="round" stroke-miterlimit="10" x1="11.5" y1="6.5" x2="11.5" y2="3.5"/>
		
			<line fill="none" stroke="#000000" stroke-linecap="round" stroke-linejoin="round" stroke-miterlimit="10" x1="10" y1="3.5" x2="13" y2="3.5"/>
	</g>
</g>
</svg>
