<?xml version="1.0" encoding="utf-8"?>
<!-- Generator: Adobe Illustrator 19.2.0, SVG Export Plug-In . SVG Version: 6.00 Build 0)  -->
<svg version="1.1" id="Layer_1" xmlns="http://www.w3.org/2000/svg" xmlns:xlink="http://www.w3.org/1999/xlink" x="0px" y="0px"
	 viewBox="0 0 24 24" style="enable-background:new 0 0 24 24;" xml:space="preserve">
<style type="text/css">
	.st0{display:none;}
	.st1{display:inline;}
	.st2{fill:none;stroke:#000000;stroke-linecap:round;stroke-linejoin:round;stroke-miterlimit:10;}
</style>
<g id="Filled_Icons" class="st0">
	<path class="st1" d="M12,4C5.4,4,0,9.3,0,16v4.5C0,20.7,0.2,21,0.5,21h23c0.3,0,0.5-0.2,0.5-0.5V16C24,9.3,18.6,4,12,4z M14.4,8.8
		L15.2,7c0.1-0.3,0.4-0.4,0.7-0.3c0.3,0.1,0.4,0.4,0.3,0.7l-0.8,1.8c-0.1,0.2-0.3,0.3-0.5,0.3c-0.1,0-0.1,0-0.2,0
		C14.4,9.4,14.3,9.1,14.4,8.8z M11.5,6.5C11.5,6.2,11.7,6,12,6c0.3,0,0.5,0.2,0.5,0.5v2C12.5,8.7,12.3,9,12,9
		c-0.3,0-0.5-0.2-0.5-0.5V6.5z M4.5,17h-2C2.2,17,2,16.7,2,16.5C2,16.2,2.2,16,2.5,16h2C4.8,16,5,16.2,5,16.5C5,16.7,4.8,17,4.5,17z
		 M5.5,13.3c-0.1,0.2-0.3,0.3-0.5,0.3c-0.1,0-0.1,0-0.2,0L3,12.8c-0.3-0.1-0.4-0.4-0.3-0.7c0.1-0.3,0.4-0.4,0.7-0.3l1.8,0.8
		C5.5,12.7,5.6,13,5.5,13.3z M7,11c-0.1,0.1-0.2,0.1-0.4,0.1c-0.1,0-0.3,0-0.4-0.1L4.9,9.6c-0.2-0.2-0.2-0.5,0-0.7
		c0.2-0.2,0.5-0.2,0.7,0L7,10.3C7.2,10.5,7.2,10.8,7,11z M9.3,9.5c-0.1,0-0.1,0-0.2,0c-0.2,0-0.4-0.1-0.5-0.3L7.9,7.4
		c-0.1-0.3,0-0.5,0.3-0.7c0.3-0.1,0.5,0,0.7,0.3l0.8,1.8C9.7,9.1,9.6,9.4,9.3,9.5z M14,16c0,1.1-0.9,2-2,2c-1.1,0-2-0.9-2-2
		s0.9-2,2-2c0.4,0,0.7,0.1,1,0.3l4.6-4.6c0.2-0.2,0.5-0.2,0.7,0c0.2,0.2,0.2,0.5,0,0.7L13.7,15C13.9,15.3,14,15.6,14,16z M18.5,13.3
		c-0.1-0.3,0-0.5,0.3-0.7l1.8-0.8c0.3-0.1,0.5,0,0.7,0.3c0.1,0.3,0,0.5-0.3,0.7l-1.8,0.8c-0.1,0-0.1,0-0.2,0
		C18.7,13.6,18.5,13.5,18.5,13.3z M21.5,17L21.5,17l-2,0c-0.3,0-0.5-0.2-0.5-0.5c0-0.3,0.2-0.5,0.5-0.5l0,0l2,0
		c0.3,0,0.5,0.2,0.5,0.5C22,16.7,21.8,17,21.5,17z"/>
</g>
<g id="Outline_Icons">
	<g>
		<circle class="st2" cx="12" cy="16" r="1.5"/>
		<line class="st2" x1="13.1" y1="14.9" x2="18" y2="10"/>
		<line class="st2" x1="2.5" y1="16.5" x2="4.5" y2="16.5"/>
		<line class="st2" x1="21.5" y1="16.5" x2="19.5" y2="16.5"/>
		<line class="st2" x1="20.8" y1="12.4" x2="18.9" y2="13.1"/>
		<line class="st2" x1="15.6" y1="7.2" x2="14.9" y2="9.1"/>
		<line class="st2" x1="12" y1="6.5" x2="12" y2="8.5"/>
		<line class="st2" x1="8.4" y1="7.2" x2="9.1" y2="9.1"/>
		<line class="st2" x1="5.3" y1="9.3" x2="6.7" y2="10.7"/>
		<line class="st2" x1="3.2" y1="12.4" x2="5.1" y2="13.1"/>
		<path class="st2" d="M12,4.5C5.6,4.5,0.5,9.6,0.5,16v4.5h23V16C23.5,9.6,18.4,4.5,12,4.5z"/>
	</g>
</g>
</svg>
