<?xml version="1.0" encoding="utf-8"?>
<!-- Generator: Adobe Illustrator 19.2.0, SVG Export Plug-In . SVG Version: 6.00 Build 0)  -->
<svg version="1.1" id="Layer_1" xmlns="http://www.w3.org/2000/svg" xmlns:xlink="http://www.w3.org/1999/xlink" x="0px" y="0px"
	 viewBox="0 0 24 24" enable-background="new 0 0 24 24" xml:space="preserve">
<g id="Filled_Icons" display="none">
	<g display="inline">
		<path d="M8,16.522c0,0.553,0.448,1,1,1c0.552,0,1-0.447,1-1V13.51l4,0.004v3.008c0,0.554,0.447,1,1,1c0.553,0,1-0.446,1-1v-3.006
			l4,0.006v3c0,0.554,0.447,1,1,1c0.553,0,1-0.446,1-1v-8c0-0.553-0.447-1-1-1c-0.553,0-1,0.447-1,1v2.999l-4-0.005V8.521
			c0-0.553-0.447-1-1-1c-0.553,0-1,0.447-1,1v2.992l-4-0.004V8.521c0-0.553-0.448-1-1-1c-0.552,0-1,0.447-1,1v2.986l-1-0.002
			c-1.654,0-3-1.346-3-3c0-0.553-0.448-1-1-1c-0.552,0-1,0.447-1,1v0.016C2,8.525,2,8.53,2,8.534
			c0.015,2.744,2.252,4.972,4.999,4.972L8,13.508V16.522z"/>
		<path d="M2.737,4.677V3.103h0.177l0.855,1.79c0.086,0.18,0.265,0.284,0.451,0.284c0.073,0,0.146-0.016,0.216-0.049
			c0.25-0.119,0.355-0.418,0.236-0.667L3.958,2.967c0.423-0.182,0.763-0.58,0.763-1.401c0-1.271-0.811-1.537-1.491-1.537H2.237
			c-0.276,0-0.5,0.224-0.5,0.5v4.148c0,0.276,0.224,0.5,0.5,0.5C2.513,5.177,2.737,4.953,2.737,4.677z M2.737,1.028h0.492
			c0.422,0,0.491,0.075,0.491,0.537c0,0.462-0.068,0.538-0.491,0.538H3.207c-0.001,0-0.001,0-0.002,0H2.737V1.028z"/>
		<path d="M8.748,1.502v3.175c0,0.276,0.224,0.5,0.5,0.5c0.276,0,0.5-0.224,0.5-0.5V0.528c0-0.2-0.12-0.381-0.304-0.46
			C9.261-0.01,9.048,0.028,8.902,0.167L8.407,0.641c-0.2,0.19-0.207,0.508-0.016,0.707C8.489,1.449,8.618,1.501,8.748,1.502z"/>
		<path d="M15.719,21.523v-2.166c0-0.219-0.142-0.412-0.351-0.478c-0.21-0.062-0.437,0.014-0.562,0.191l-1.83,2.639
			c-0.108,0.152-0.119,0.352-0.033,0.518c0.086,0.164,0.257,0.269,0.443,0.269h1.33v1.011c0,0.275,0.225,0.5,0.5,0.5
			c0.276,0,0.5-0.225,0.5-0.5v-1.039c0.193-0.068,0.333-0.254,0.333-0.472S15.912,21.594,15.719,21.523z"/>
		<path d="M20.469,20.51c-0.193,0-0.367,0.034-0.531,0.086c0.102-0.441,0.379-0.828,1.047-0.828c0.277,0,0.5-0.225,0.5-0.5
			c0-0.276-0.223-0.5-0.5-0.5c-1.549,0-2.098,1.244-2.098,2.311v1.156c0,1.049,0.621,1.726,1.582,1.726
			c0.961,0,1.582-0.678,1.582-1.726C22.051,21.188,21.43,20.51,20.469,20.51z M20.469,22.96c-0.158,0-0.582,0-0.582-0.726
			c0-0.726,0.424-0.726,0.582-0.726c0.159,0,0.582,0,0.582,0.726C21.051,22.96,20.628,22.96,20.469,22.96z"/>
		<path d="M20.4,4.154h-0.9c-0.275,0-0.5,0.224-0.5,0.5c0,0.276,0.225,0.5,0.5,0.5h0.9c0.852,0,1.402-0.604,1.402-1.537
			c0-0.933-0.552-1.536-1.402-1.536H20V1.006h1.303c0.276,0,0.5-0.224,0.5-0.5c0-0.276-0.224-0.5-0.5-0.5H19.5
			c-0.275,0-0.5,0.224-0.5,0.5v2.075c0,0.276,0.225,0.5,0.5,0.5h0.9c0.121,0,0.402,0,0.402,0.536
			C20.803,4.154,20.521,4.154,20.4,4.154z"/>
		<path d="M10.644,20.277c0-0.82-0.67-1.488-1.492-1.488c-0.804,0-1.458,0.627-1.491,1.428c-0.011,0.276,0.204,0.51,0.479,0.522
			c0.283-0.008,0.509-0.204,0.52-0.479c0.01-0.263,0.226-0.469,0.492-0.469c0.271,0,0.492,0.22,0.492,0.489
			c0,0.133-0.047,0.214-0.1,0.295L7.737,23.15c-0.106,0.152-0.12,0.352-0.033,0.518c0.086,0.166,0.257,0.27,0.443,0.27h1.984
			c0.276,0,0.5-0.224,0.5-0.5c0-0.275-0.224-0.5-0.5-0.5H9.108l1.262-1.801C10.452,21.014,10.644,20.723,10.644,20.277z"/>
		<path d="M14.5,4.243c-0.163,0-0.467,0-0.49-0.514c-0.013-0.276-0.257-0.507-0.524-0.477c-0.274,0.012-0.488,0.246-0.476,0.522
			c0.041,0.892,0.625,1.468,1.489,1.468c1.103,0,1.492-0.84,1.492-1.559c0-0.364-0.102-0.759-0.343-1.06
			c0.24-0.301,0.343-0.696,0.343-1.061c0-0.719-0.392-1.559-1.492-1.559c-0.864,0-1.448,0.577-1.489,1.47
			c-0.013,0.275,0.201,0.51,0.476,0.521c0.27,0.031,0.511-0.2,0.524-0.477c0.023-0.515,0.327-0.515,0.49-0.515
			c0.16,0,0.492,0,0.492,0.559c0,0.561-0.346,0.561-0.492,0.561c-0.275,0-0.5,0.224-0.5,0.5c0,0.276,0.225,0.5,0.5,0.5
			c0.16,0,0.492,0,0.492,0.56C14.992,4.243,14.66,4.243,14.5,4.243z"/>
	</g>
</g>
<g id="Outline_Icons">
	<g>
		<g>
			<path fill="none" stroke="#000000" stroke-linecap="round" stroke-linejoin="round" stroke-miterlimit="10" d="M2.5,8.5V8.484
				c0,2.209,1.791,4,4,4l14,0.016"/>
			
				<line fill="none" stroke="#000000" stroke-linecap="round" stroke-linejoin="round" stroke-miterlimit="10" x1="8.5" y1="16.5" x2="8.5" y2="8.5"/>
			
				<line fill="none" stroke="#000000" stroke-linecap="round" stroke-linejoin="round" stroke-miterlimit="10" x1="14.5" y1="16.5" x2="14.5" y2="8.5"/>
			
				<line fill="none" stroke="#000000" stroke-linecap="round" stroke-linejoin="round" stroke-miterlimit="10" x1="20.5" y1="16.5" x2="20.5" y2="8.5"/>
		</g>
		<g>
			<path fill="none" stroke="#000000" stroke-linecap="round" stroke-linejoin="round" stroke-miterlimit="10" d="M1.737,4.655
				V0.507h0.992c0.844,0,0.991,0.464,0.991,1.037c0,0.573-0.147,1.037-0.991,1.037H1.737"/>
			
				<line fill="none" stroke="#000000" stroke-linecap="round" stroke-linejoin="round" stroke-miterlimit="10" x1="2.729" y1="2.581" x2="3.721" y2="4.655"/>
		</g>
		<polyline fill="none" stroke="#000000" stroke-linecap="round" stroke-linejoin="round" stroke-miterlimit="10" points="
			8.748,4.655 8.748,0.507 8.253,0.98 		"/>
		<polyline fill="none" stroke="#000000" stroke-linecap="round" stroke-linejoin="round" stroke-miterlimit="10" points="
			14.719,23.484 14.719,19.336 12.889,21.975 15.053,21.975 		"/>
		<g>
			<path fill="none" stroke="#000000" stroke-linecap="round" stroke-linejoin="round" stroke-miterlimit="10" d="M19.969,20.988
				c0.922,0,1.082,0.787,1.082,1.225s-0.16,1.227-1.082,1.227c-0.921,0-1.082-0.789-1.082-1.227S19.048,20.988,19.969,20.988z"/>
			<path fill="none" stroke="#000000" stroke-linecap="round" stroke-linejoin="round" stroke-miterlimit="10" d="M20.484,19.245
				c-1.361,0-1.598,1.165-1.598,1.812v1.156"/>
		</g>
		<path fill="none" stroke="#000000" stroke-linecap="round" stroke-linejoin="round" stroke-miterlimit="10" d="M20.803,0.5H19
			v2.075h0.9c0.769,0,0.902,0.667,0.902,1.036c0,0.37-0.135,1.037-0.902,1.037H19"/>
		<path fill="none" stroke="#000000" stroke-linecap="round" stroke-linejoin="round" stroke-miterlimit="10" d="M7.66,20.216
			c0.021-0.528,0.458-0.948,0.991-0.948c0.548,0,0.992,0.443,0.992,0.989c0,0.283-0.114,0.468-0.19,0.582l-1.806,2.577h1.984"/>
		<g>
			<path fill="none" stroke="#000000" stroke-linecap="round" stroke-linejoin="round" stroke-miterlimit="10" d="M13.012,1.492
				C13.027,1.105,13.204,0.5,14,0.5c0.846,0,0.992,0.681,0.992,1.059c0,0.378-0.146,1.06-0.992,1.06"/>
			<path fill="none" stroke="#000000" stroke-linecap="round" stroke-linejoin="round" stroke-miterlimit="10" d="M13.012,3.746
				C13.027,4.133,13.204,4.737,14,4.737c0.846,0,0.992-0.681,0.992-1.059c0-0.379-0.146-1.06-0.992-1.06"/>
		</g>
	</g>
</g>
</svg>
