<?xml version="1.0" encoding="utf-8"?>
<!-- Generator: Adobe Illustrator 19.2.0, SVG Export Plug-In . SVG Version: 6.00 Build 0)  -->
<svg version="1.1" id="Layer_1" xmlns="http://www.w3.org/2000/svg" xmlns:xlink="http://www.w3.org/1999/xlink" x="0px" y="0px"
	 viewBox="0 0 24 24" style="enable-background:new 0 0 24 24;" xml:space="preserve">
<style type="text/css">
	.st0{display:none;}
	.st1{display:inline;}
	.st2{fill:none;stroke:#000000;stroke-linecap:round;stroke-linejoin:round;stroke-miterlimit:10;}
</style>
<g id="Filled_Icons" class="st0">
	<path class="st1" d="M23.8,0.4c-0.1-0.1-0.2-0.2-0.3-0.3C23.4,0.1,23.2,0,23,0h-6.5c-0.6,0-1,0.4-1,1c0,0.6,0.4,1,1,1h4.1l-6.4,6.4
		c-1.5-1.2-3.4-1.9-5.4-1.9C3.9,6.5,0,10.4,0,15.2C0,20.1,3.9,24,8.8,24c4.8,0,8.8-3.9,8.8-8.8c0-2.1-0.7-3.9-1.9-5.4L22,3.4v4.1
		c0,0.6,0.4,1,1,1c0.6,0,1-0.4,1-1V1C24,0.8,23.9,0.6,23.8,0.4z M8.8,22C5,22,2,19,2,15.2c0-3.7,3-6.8,6.8-6.8c3.7,0,6.8,3,6.8,6.8
		C15.5,19,12.5,22,8.8,22z"/>
</g>
<g id="Outline_Icons">
	<g>
		<line class="st2" x1="14.2" y1="9.8" x2="23.5" y2="0.5"/>
		<circle class="st2" cx="8.5" cy="15.5" r="8"/>
		<polyline class="st2" points="23.5,7.5 23.5,0.5 16.5,0.5 		"/>
	</g>
</g>
</svg>
