<?xml version="1.0" encoding="utf-8"?>
<!-- Generator: Adobe Illustrator 19.2.0, SVG Export Plug-In . SVG Version: 6.00 Build 0)  -->
<svg version="1.1" id="Layer_1" xmlns="http://www.w3.org/2000/svg" xmlns:xlink="http://www.w3.org/1999/xlink" x="0px" y="0px"
	 viewBox="0 0 24 24" style="enable-background:new 0 0 24 24;" xml:space="preserve">
<style type="text/css">
	.st0{display:none;}
	.st1{display:inline;}
	.st2{fill:none;stroke:#000000;stroke-linecap:round;stroke-linejoin:round;stroke-miterlimit:10;}
</style>
<g id="Filled_Icons" class="st0">
	<path class="st1" d="M19,7.5C19,3.4,15.6,0,11.5,0C7.4,0,4,3.4,4,7.5c0,3.8,2.8,6.9,6.5,7.4V19h-2c-0.6,0-1,0.4-1,1
		c0,0.6,0.4,1,1,1h2v2c0,0.6,0.4,1,1,1c0.6,0,1-0.4,1-1v-2h2c0.6,0,1-0.4,1-1c0-0.6-0.4-1-1-1h-2v-4.1C16.2,14.4,19,11.3,19,7.5z
		 M11.5,13C8.5,13,6,10.5,6,7.5C6,4.5,8.5,2,11.5,2c3,0,5.5,2.5,5.5,5.5C17,10.5,14.5,13,11.5,13z"/>
</g>
<g id="Outline_Icons">
	<g>
		<circle class="st2" cx="11.5" cy="7.5" r="7"/>
		<line class="st2" x1="11.5" y1="14.5" x2="11.5" y2="23.5"/>
		<line class="st2" x1="8.5" y1="20.5" x2="14.5" y2="20.5"/>
	</g>
</g>
</svg>
