<?xml version="1.0" encoding="utf-8"?>
<!-- Generator: Adobe Illustrator 19.2.0, SVG Export Plug-In . SVG Version: 6.00 Build 0)  -->
<svg version="1.1" id="Layer_1" xmlns="http://www.w3.org/2000/svg" xmlns:xlink="http://www.w3.org/1999/xlink" x="0px" y="0px"
	 viewBox="0 0 24 24" style="enable-background:new 0 0 24 24;" xml:space="preserve">
<style type="text/css">
	.st0{display:none;}
	.st1{display:inline;}
	.st2{fill:none;stroke:#000000;stroke-linecap:round;stroke-linejoin:round;stroke-miterlimit:10;}
</style>
<g id="Filled_Icons" class="st0">
	<g class="st1">
		<path d="M11.6,8.2c-0.5,0.3-0.6,0.9-0.3,1.4c0.5,0.7,0.7,1.6,0.7,2.5c0,2.5-2,4.5-4.5,4.5S3,14.5,3,12c0-1.7,0.9-3.2,2.5-4
			c0.5-0.3,0.7-0.9,0.4-1.3C5.6,6.2,5,6,4.5,6.2C2.4,7.3,1,9.5,1,12c0,3.1,2.1,5.6,5,6.3V20H5c-0.6,0-1,0.4-1,1c0,0.6,0.4,1,1,1h1v1
			c0,0.6,0.4,1,1,1c0.6,0,1-0.4,1-1v-1h1c0.6,0,1-0.4,1-1c0-0.6-0.4-1-1-1H8v-1.5c3.4-0.3,6-3.1,6-6.5c0-1.3-0.4-2.5-1.1-3.5
			C12.6,8,12,7.9,11.6,8.2z"/>
		<path d="M23.3,0.4c-0.1-0.1-0.2-0.2-0.3-0.3C22.9,0.1,22.7,0,22.5,0H19c-0.6,0-1,0.4-1,1c0,0.6,0.4,1,1,1h1.1l-2.8,2.8
			c-1.1-0.8-2.4-1.3-3.8-1.3C9.9,3.5,7,6.4,7,10c0,1.3,0.4,2.5,1.1,3.5C8.4,14,9,14.1,9.4,13.8c0.5-0.3,0.6-0.9,0.3-1.4
			C9.3,11.7,9,10.9,9,10c0-2.5,2-4.5,4.5-4.5c1.2,0,2.4,0.5,3.2,1.3c0,0,0,0,0,0c0,0,0,0,0,0C17.5,7.6,18,8.8,18,10
			c0,1.9-1.1,3.5-2.9,4.2c-0.5,0.2-0.8,0.8-0.6,1.3c0.2,0.4,0.5,0.6,0.9,0.6c0.1,0,0.2,0,0.4-0.1c2.5-1,4.1-3.4,4.1-6.1
			c0-1.4-0.5-2.8-1.3-3.8l2.8-2.8v1.1c0,0.6,0.4,1,1,1c0.6,0,1-0.4,1-1V1C23.5,0.8,23.4,0.6,23.3,0.4z"/>
	</g>
</g>
<g id="Outline_Icons">
	<g>
		<path class="st2" d="M9.5,14.2c-1.2-1-2-2.5-2-4.2c0-3,2.5-5.5,5.5-5.5c3,0,5.5,2.5,5.5,5.5c0,2.9-2.2,5.2-5,5.5"/>
		<path class="st2" d="M10.5,7.8c1.2,1,2,2.5,2,4.2c0,3-2.5,5.5-5.5,5.5c-3,0-5.5-2.5-5.5-5.5c0-2.9,2.2-5.2,5-5.5"/>
		<line class="st2" x1="17" y1="6" x2="22.5" y2="0.5"/>
		<polyline class="st2" points="22.5,4.5 22.5,0.5 18.5,0.5 		"/>
		<line class="st2" x1="6.5" y1="17.5" x2="6.5" y2="23.5"/>
		<line class="st2" x1="4.5" y1="21.5" x2="8.5" y2="21.5"/>
	</g>
</g>
</svg>
