<?xml version="1.0" encoding="utf-8"?>
<!-- Generator: Adobe Illustrator 19.2.0, SVG Export Plug-In . SVG Version: 6.00 Build 0)  -->
<svg version="1.1" id="Layer_1" xmlns="http://www.w3.org/2000/svg" xmlns:xlink="http://www.w3.org/1999/xlink" x="0px" y="0px"
	 viewBox="0 0 24 24" style="enable-background:new 0 0 24 24;" xml:space="preserve">
<style type="text/css">
	.st0{display:none;}
	.st1{display:inline;}
	.st2{fill:none;stroke:#000000;stroke-linejoin:round;stroke-miterlimit:10;}
	.st3{fill:none;stroke:#000000;stroke-linecap:round;stroke-linejoin:round;stroke-miterlimit:10;}
</style>
<g id="Filled_Icons" class="st0">
	<g class="st1">
		<polygon points="13.6,19.1 12.6,20.1 13.8,23.5 15,20.3 		"/>
		<path d="M23,19.8c-0.4-1.5-2.6-2.3-5.6-3.3L14.7,24h8.8c0.3,0,0.5-0.2,0.5-0.5C24,23.4,24,21.9,23,19.8z M20.5,21.5H18
			c-0.3,0-0.5-0.2-0.5-0.5c0-0.3,0.2-0.5,0.5-0.5h2.5c0.3,0,0.5,0.2,0.5,0.5C21,21.3,20.8,21.5,20.5,21.5z"/>
		<path d="M15.3,19.2l1.1-3.1c-0.3-0.1-0.6-0.2-0.9-0.3l-2.6,1.3L15.3,19.2z"/>
		<path d="M8.5,15.8C8.3,15.9,8,16,7.7,16.1l1,3.1l2.4-2.1L8.5,15.8z"/>
		<polygon points="9.1,20.2 10.2,23.4 11.4,20.1 10.4,19.1 		"/>
		<path d="M15,13.2c0.4-0.4,1.4-1.3,1.5-2.9c0.4-0.3,0.6-1,0.6-1.5c0-0.3-0.1-0.6-0.2-0.8c-0.1-0.1-0.2-0.3-0.4-0.3V7.5
			C16.5,7.2,16.3,7,16,7H8C7.7,7,7.5,7.2,7.5,7.5v0.1C7.4,7.7,7.2,7.8,7.1,8C7,8.2,6.9,8.4,6.9,8.8c0,0.5,0.2,1.2,0.6,1.5
			c0.1,1.6,1.1,2.6,1.5,2.9v1.7l3,1.5l3-1.5L15,13.2L15,13.2z"/>
		<path d="M1,19.8c-0.5,1.1-1,3.5-1,3.6c0,0.1,0,0.3,0.1,0.4C0.2,23.9,0.4,24,0.5,24h8.8l-2.5-7.6C3.7,17.5,1.5,18.3,1,19.8z"/>
		<path d="M5.5,6.5h11h0h0h2C18.8,6.5,19,6.3,19,6c0-0.3-0.2-0.5-0.5-0.5h-1.7L15,0.3c-0.1-0.1-0.2-0.3-0.3-0.3
			c-0.1-0.1-0.3,0-0.4,0L13,0.8c-0.5,0.3-1.5,0.3-2.1,0L9.8,0.1C9.6,0,9.5,0,9.3,0C9.2,0.1,9.1,0.2,9,0.3L7.1,5.5H5.5
			C5.2,5.5,5,5.7,5,6C5,6.3,5.2,6.5,5.5,6.5z"/>
	</g>
</g>
<g id="Outline_Icons">
	<g>
		<path class="st2" d="M8,6.5c0,1,0,1.3,0,1.5c-1,0-0.5,2,0,2c0,2,1.5,3,1.5,3v3c-4,1.5-7.6,2.4-8,4c-0.5,1-1,3.5-1,3.5H12h11.5
			c0,0,0-1.5-1-3.5c-0.4-1.6-4-2.5-8-4v-3c0,0,1.5-1,1.5-3c0.5,0,1-2,0-2c0-0.1,0-0.5,0-1.5"/>
		<line class="st3" x1="5.5" y1="6.5" x2="18.5" y2="6.5"/>
		<path class="st3" d="M7.5,6.5l2-5.5l1.2,0.7c0.7,0.4,1.9,0.4,2.6,0L14.5,1l2,5.5"/>
		<polygon class="st2" points="12,17 10.4,18.4 12,20 13.6,18.4 		"/>
		<polygon class="st2" points="12,20 10.5,23.5 13.5,23.5 		"/>
		<line class="st2" x1="9.5" y1="23.5" x2="7.5" y2="16.7"/>
		<line class="st2" x1="14.5" y1="23.5" x2="16.6" y2="16.7"/>
		<line class="st2" x1="12" y1="17" x2="9.5" y2="16"/>
		<line class="st2" x1="12" y1="17" x2="14.5" y2="16"/>
		<line class="st2" x1="18" y1="21.5" x2="20.5" y2="21.5"/>
		<line class="st2" x1="12" y1="17" x2="8.5" y2="20.1"/>
		<line class="st2" x1="12" y1="17" x2="15.5" y2="20.1"/>
	</g>
</g>
</svg>
