<?xml version="1.0" encoding="utf-8"?>
<!-- Generator: Adobe Illustrator 19.2.0, SVG Export Plug-In . SVG Version: 6.00 Build 0)  -->
<svg version="1.1" id="Layer_1" xmlns="http://www.w3.org/2000/svg" xmlns:xlink="http://www.w3.org/1999/xlink" x="0px" y="0px"
	 viewBox="0 0 24 24" enable-background="new 0 0 24 24" xml:space="preserve">
<g id="Filled_Icons" display="none">
	<g display="inline">
		<path d="M17.773,18.917l-1.07-4.911H20v-5h-3.46c0.638-0.98,0.991-2.131,0.991-3.28C17.531,2.624,15.05,0.1,12,0.1
			c-2.998,0-5.531,2.598-5.531,5.672c0,1.144,0.345,2.262,0.985,3.234H4v5h3.297L6.226,18.92l5.144,1.309c0,0,0.525-1.97,0.631-1.97
			c0.106,0,0.632,1.972,0.632,1.972L17.773,18.917z M14,3.506c0.553,0,1,0.449,1,1c0,0.552-0.447,1-1,1c-0.553,0-1-0.448-1-1
			C13,3.955,13.447,3.506,14,3.506z M12,10.506c0.553,0,1,0.449,1,1c0,0.552-0.447,1-1,1c-0.552,0-1-0.448-1-1
			C11,10.955,11.448,10.506,12,10.506z M10,5.506c-0.552,0-1-0.448-1-1c0-0.551,0.448-1,1-1c0.552,0,1,0.449,1,1
			C11,5.058,10.552,5.506,10,5.506z M12,15.506c-0.552,0-1-0.447-1-1c0-0.551,0.448-1,1-1c0.553,0,1,0.449,1,1
			C13,15.059,12.553,15.506,12,15.506z"/>
		<path d="M6.012,19.897l-0.2,0.92c-0.31,1.424,0.602,2.832,2.031,3.144c0.186,0.041,0.375,0.062,0.563,0.062
			c1.24,0,2.331-0.883,2.596-2.1l0.155-0.715L6.012,19.897z"/>
		<path d="M3,9.006H2.656C1.142,9.006,0,10.081,0,11.506c0,1.426,1.142,2.5,2.656,2.5H3V9.006z"/>
		<path d="M21.344,9.006H21v5h0.344c1.516,0,2.656-1.074,2.656-2.5C24,10.081,22.857,9.006,21.344,9.006z"/>
		<path d="M17.986,19.895l-5.143,1.313l0.153,0.706c0.303,1.398,1.753,2.338,3.159,2.031c1.451-0.314,2.345-1.689,2.031-3.129
			L17.986,19.895z"/>
	</g>
</g>
<g id="Outline_Icons">
	<g>
		<g>
			<path fill="none" stroke="#000000" stroke-linejoin="round" stroke-miterlimit="10" d="M21.344,9.5h-5.826
				c0.934-1,1.515-2.372,1.515-3.78c0-2.779-2.253-5.126-5.031-5.126c-2.779,0-5.032,2.393-5.032,5.172
				c0,1.409,0.58,2.734,1.514,3.734H2.656c-1.19,0-2.156,0.81-2.156,2c0,1.191,0.966,2,2.156,2h5.262L6.3,20.917
				c-0.253,1.164,0.485,2.296,1.649,2.549c1.163,0.255,2.312-0.493,2.564-1.655l0.568-2.619c0,0,0.199-1.438,0.918-1.438
				c0.719,0,0.918,1.436,0.918,1.436l0.567,2.613c0.254,1.164,1.402,1.902,2.564,1.649c1.164-0.253,1.902-1.37,1.648-2.534
				L16.082,13.5h5.262c1.19,0,2.156-0.809,2.156-2C23.5,10.31,22.534,9.5,21.344,9.5z"/>
		</g>
		<circle fill="none" stroke="#000000" stroke-linejoin="round" stroke-miterlimit="10" cx="10" cy="4.5" r="0.5"/>
		<circle fill="none" stroke="#000000" stroke-linejoin="round" stroke-miterlimit="10" cx="14" cy="4.5" r="0.5"/>
		<circle fill="none" stroke="#000000" stroke-linejoin="round" stroke-miterlimit="10" cx="12" cy="11.5" r="0.5"/>
		<circle fill="none" stroke="#000000" stroke-linejoin="round" stroke-miterlimit="10" cx="12" cy="14.5" r="0.5"/>
		<line fill="none" stroke="#000000" stroke-linejoin="round" stroke-miterlimit="10" x1="20.5" y1="9.5" x2="20.5" y2="13.5"/>
		<line fill="none" stroke="#000000" stroke-linejoin="round" stroke-miterlimit="10" x1="3.5" y1="9.5" x2="3.5" y2="13.5"/>
		
			<line fill="none" stroke="#000000" stroke-linejoin="round" stroke-miterlimit="10" x1="10.78" y1="20.583" x2="6.604" y2="19.52"/>
		
			<line fill="none" stroke="#000000" stroke-linejoin="round" stroke-miterlimit="10" x1="13.223" y1="20.583" x2="17.396" y2="19.525"/>
	</g>
</g>
</svg>
