<?xml version="1.0" encoding="utf-8"?>
<!-- Generator: Adobe Illustrator 19.2.0, SVG Export Plug-In . SVG Version: 6.00 Build 0)  -->
<svg version="1.1" id="Layer_1" xmlns="http://www.w3.org/2000/svg" xmlns:xlink="http://www.w3.org/1999/xlink" x="0px" y="0px"
	 viewBox="0 0 24 24" enable-background="new 0 0 24 24" xml:space="preserve">
<g id="Filled_Icons" display="none">
	<g display="inline">
		<path d="M19.873,6.175c-0.096-0.107-0.23-0.169-0.373-0.169H9.529l0.095,1h9.313l-0.354,3H9.91l1.085,11.405
			c0.025,0.267-0.055,0.526-0.225,0.731c-0.171,0.207-0.411,0.334-0.676,0.359l-0.09,0.003H9.999c-0.519,0-0.946-0.388-0.995-0.905
			L7.9,10.006H7.415l-0.353-3h0.553l-0.096-1H6.5c-0.143,0-0.279,0.062-0.374,0.169c-0.095,0.105-0.14,0.249-0.123,0.39l2,17
			c0.03,0.252,0.243,0.441,0.497,0.441h9c0.253,0,0.467-0.189,0.496-0.441l2-17C20.014,6.423,19.969,6.28,19.873,6.175z
			 M11.5,13.006c-0.276,0-0.5-0.223-0.5-0.5c0-0.275,0.224-0.5,0.5-0.5c0.275,0,0.5,0.225,0.5,0.5
			C12,12.783,11.775,13.006,11.5,13.006z M12.5,21.006c-0.276,0-0.5-0.223-0.5-0.5c0-0.275,0.224-0.5,0.5-0.5
			c0.275,0,0.5,0.225,0.5,0.5C13,20.783,12.775,21.006,12.5,21.006z M13,16.006c-0.275,0-0.5-0.223-0.5-0.5
			c0-0.275,0.225-0.5,0.5-0.5c0.275,0,0.5,0.225,0.5,0.5C13.5,15.783,13.275,16.006,13,16.006z M15,18.506
			c-0.275,0-0.5-0.223-0.5-0.5c0-0.275,0.225-0.5,0.5-0.5c0.275,0,0.5,0.225,0.5,0.5C15.5,18.283,15.275,18.506,15,18.506z
			 M16,14.006c-0.275,0-0.5-0.223-0.5-0.5c0-0.275,0.225-0.5,0.5-0.5c0.275,0,0.5,0.225,0.5,0.5
			C16.5,13.783,16.275,14.006,16,14.006z"/>
		<circle cx="12" cy="3.006" r="0.5"/>
		<circle cx="15" cy="4.506" r="0.5"/>
		<circle cx="16.5" cy="2.006" r="0.5"/>
		<path d="M7.752,3.167l1.75,18.388c0.023,0.256,0.235,0.448,0.492,0.451c0.151-0.007,0.277-0.044,0.392-0.18
			c0.084-0.104,0.124-0.234,0.111-0.367L8.747,3.072C8.678,2.338,8.374,1.646,7.872,1.1c-0.62-0.677-1.511-1.094-2.497-1.094H3.5
			c-0.276,0-0.5,0.225-0.5,0.5c0,0.276,0.224,0.5,0.5,0.5h1.875C6.611,1.006,7.634,1.935,7.752,3.167z"/>
	</g>
</g>
<g id="Outline_Icons">
	<g>
		<polygon fill="none" stroke="#000000" stroke-linecap="round" stroke-linejoin="round" stroke-miterlimit="10" points="17.5,23.5 
			8.5,23.5 6.5,6.5 19.5,6.5 		"/>
		<path fill="none" stroke="#000000" stroke-linecap="round" stroke-linejoin="round" stroke-miterlimit="10" d="M10,21.5
			L8.25,3.113C8.107,1.632,6.863,0.5,5.375,0.5H3.5"/>
		
			<line fill="none" stroke="#000000" stroke-linecap="round" stroke-linejoin="round" stroke-miterlimit="10" x1="7" y1="10.5" x2="19" y2="10.5"/>
		<g>
			<g>
				<path d="M12,3c-0.276,0-0.5,0.224-0.5,0.5C11.5,3.776,11.724,4,12,4c0.276,0,0.5-0.224,0.5-0.5C12.5,3.224,12.276,3,12,3L12,3z"
					/>
			</g>
		</g>
		<g>
			<g>
				<path d="M15,4c-0.275,0-0.5,0.224-0.5,0.5C14.5,4.776,14.725,5,15,5c0.275,0,0.5-0.224,0.5-0.5C15.5,4.224,15.275,4,15,4L15,4z"
					/>
			</g>
		</g>
		<g>
			<g>
				<path d="M16,13c-0.275,0-0.5,0.225-0.5,0.5c0,0.275,0.225,0.5,0.5,0.5c0.275,0,0.5-0.225,0.5-0.5C16.5,13.225,16.275,13,16,13
					L16,13z"/>
			</g>
		</g>
		<g>
			<g>
				<path d="M13,15c-0.275,0-0.5,0.225-0.5,0.5c0,0.275,0.225,0.5,0.5,0.5c0.275,0,0.5-0.225,0.5-0.5C13.5,15.225,13.275,15,13,15
					L13,15z"/>
			</g>
		</g>
		<g>
			<g>
				<path d="M15,18c-0.275,0-0.5,0.225-0.5,0.5c0,0.275,0.225,0.5,0.5,0.5c0.275,0,0.5-0.225,0.5-0.5C15.5,18.225,15.275,18,15,18
					L15,18z"/>
			</g>
		</g>
		<g>
			<g>
				<path d="M12,20c-0.276,0-0.5,0.225-0.5,0.5c0,0.275,0.224,0.5,0.5,0.5c0.276,0,0.5-0.225,0.5-0.5C12.5,20.225,12.276,20,12,20
					L12,20z"/>
			</g>
		</g>
		<g>
			<g>
				<path d="M11,12c-0.276,0-0.5,0.224-0.5,0.5c0,0.275,0.224,0.5,0.5,0.5c0.276,0,0.5-0.225,0.5-0.5C11.5,12.224,11.276,12,11,12
					L11,12z"/>
			</g>
		</g>
		<g>
			<g>
				<path d="M17,2c-0.275,0-0.5,0.224-0.5,0.5C16.5,2.776,16.725,3,17,3c0.275,0,0.5-0.224,0.5-0.5C17.5,2.224,17.275,2,17,2L17,2z"
					/>
			</g>
		</g>
	</g>
</g>
</svg>
