<?xml version="1.0" encoding="utf-8"?>
<!-- Generator: Adobe Illustrator 19.2.0, SVG Export Plug-In . SVG Version: 6.00 Build 0)  -->
<svg version="1.1" id="Layer_1" xmlns="http://www.w3.org/2000/svg" xmlns:xlink="http://www.w3.org/1999/xlink" x="0px" y="0px"
	 viewBox="0 0 24 24" enable-background="new 0 0 24 24" xml:space="preserve">
<g id="Filled_Icons" display="none">
	<g display="inline">
		<path d="M1.742,16.006h8.733c0.192-0.408,0.383-0.747,0.601-1H1.465C1.544,15.354,1.635,15.691,1.742,16.006z"/>
		<path d="M13.71,16.006h8.548c0.107-0.314,0.198-0.652,0.277-1h-9.426C13.327,15.259,13.518,15.598,13.71,16.006z"/>
		<path d="M1.052,12.006h21.895c0.031-0.439,0.047-0.792,0.053-0.984v-0.016H1v0.016C1.006,11.214,1.021,11.566,1.052,12.006z"/>
		<path d="M1.143,13.006c0.035,0.321,0.079,0.657,0.133,1h21.449c0.055-0.343,0.098-0.679,0.133-1H1.143z"/>
		<path d="M14.163,17.006c0.381,0.818,0.837,1.539,1.713,1.539c0.145,0,3.554-0.01,5.244-0.853c0.261-0.133,0.482-0.377,0.677-0.687
			L14.163,17.006L14.163,17.006z"/>
		<path d="M2.203,17.006c0.194,0.311,0.416,0.555,0.677,0.686c1.69,0.845,5.277,0.854,5.43,0.854c0.876,0,1.332-0.721,1.713-1.539
			L2.203,17.006L2.203,17.006z"/>
		<path d="M22.187,10.006C20.26,8.634,15.859,8.123,12,8.123c-3.859,0-8.26,0.511-10.187,1.883H22.187z"/>
	</g>
</g>
<g id="Outline_Icons">
	<g>
		<g>
			<path fill="none" stroke="#000000" stroke-linejoin="round" stroke-miterlimit="10" d="M1.5,11c0,0,0.169,5.52,1.604,6.236
				c1.604,0.803,5.206,0.803,5.206,0.803c1.596,0,1.419-4.039,3.783-4.039c2.364,0,2.188,4.039,3.783,4.039c0,0,3.416,0,5.02-0.803
				C22.331,16.52,22.5,11,22.5,11C20.5,7.822,3.5,7.822,1.5,11z"/>
		</g>
		
			<line fill="none" stroke="#000000" stroke-linecap="round" stroke-linejoin="round" stroke-miterlimit="10" x1="2" y1="10.5" x2="22" y2="10.5"/>
		
			<line fill="none" stroke="#000000" stroke-linecap="round" stroke-linejoin="round" stroke-miterlimit="10" x1="1.602" y1="12.5" x2="22.398" y2="12.5"/>
		
			<line fill="none" stroke="#000000" stroke-linecap="round" stroke-linejoin="round" stroke-miterlimit="10" x1="13.33" y1="14.5" x2="22.126" y2="14.5"/>
		
			<line fill="none" stroke="#000000" stroke-linecap="round" stroke-linejoin="round" stroke-miterlimit="10" x1="1.874" y1="14.5" x2="10.857" y2="14.5"/>
		
			<line fill="none" stroke="#000000" stroke-linecap="round" stroke-linejoin="round" stroke-miterlimit="10" x1="14.48" y1="16.5" x2="21.523" y2="16.5"/>
		
			<line fill="none" stroke="#000000" stroke-linecap="round" stroke-linejoin="round" stroke-miterlimit="10" x1="2.475" y1="16.5" x2="9.7" y2="16.5"/>
	</g>
</g>
</svg>
