<?xml version="1.0" encoding="utf-8"?>
<!-- Generator: Adobe Illustrator 19.2.0, SVG Export Plug-In . SVG Version: 6.00 Build 0)  -->
<svg version="1.1" id="Layer_1" xmlns="http://www.w3.org/2000/svg" xmlns:xlink="http://www.w3.org/1999/xlink" x="0px" y="0px"
	 viewBox="0 0 24 24" enable-background="new 0 0 24 24" xml:space="preserve">
<g id="Filled_Icons" display="none">
	<path display="inline" d="M22.83,9.623c-1.214-1.93-6.438-2.617-10.923-2.617c-4.485,0-9.709,0.687-10.923,2.617L0.902,9.752
		l0.005,0.152c0.03,0.972,0.261,5.86,1.88,6.67c1.69,0.846,5.277,0.855,5.43,0.855c1.047,0,1.496-1.029,1.932-2.023
		c0.532-1.219,0.948-2.017,1.852-2.017c0.903,0,1.319,0.799,1.852,2.017c0.436,0.994,0.885,2.023,1.932,2.023
		c0.144,0,3.554-0.011,5.244-0.855c1.619-0.811,1.85-5.698,1.88-6.67l0.005-0.152L22.83,9.623z M6.039,10.373
		c-1.057,0.239-1.48,0.514-1.646,0.672c0.017,0.308,0.062,0.96,0.171,1.598c0.046,0.271-0.137,0.53-0.409,0.576
		c-0.028,0.006-0.057,0.008-0.085,0.008c-0.238,0-0.45-0.172-0.492-0.416c-0.161-0.941-0.191-1.877-0.192-1.917L3.381,10.74
		l0.082-0.129C3.8,10.077,4.57,9.68,5.818,9.397c0.27-0.063,0.537,0.109,0.598,0.378C6.478,10.045,6.309,10.313,6.039,10.373z
		 M20.43,10.894c-0.002,0.039-0.033,0.975-0.193,1.917c-0.041,0.244-0.252,0.416-0.491,0.416c-0.028,0-0.058-0.002-0.085-0.006
		c-0.271-0.047-0.455-0.306-0.409-0.578c0.108-0.64,0.153-1.29,0.171-1.598c-0.165-0.158-0.589-0.433-1.646-0.672
		c-0.269-0.061-0.438-0.328-0.377-0.598c0.061-0.269,0.328-0.44,0.599-0.378c1.248,0.282,2.018,0.68,2.354,1.214l0.082,0.129
		L20.43,10.894z"/>
</g>
<g id="Outline_Icons">
	<g>
		<g>
			<path fill="none" stroke="#000000" stroke-linejoin="round" stroke-miterlimit="10" d="M1.407,9.883c0,0,0.169,5.521,1.604,6.238
				c1.604,0.803,5.206,0.803,5.206,0.803c1.596,0,1.419-4.041,3.783-4.041c2.363,0,2.187,4.041,3.783,4.041c0,0,3.416,0,5.022-0.803
				c1.434-0.717,1.604-6.238,1.604-6.238C20.407,6.705,3.407,6.705,1.407,9.883z"/>
		</g>
		<path fill="none" stroke="#000000" stroke-linecap="round" stroke-linejoin="round" stroke-miterlimit="10" d="M5.929,9.879
			c-1.013,0.229-1.77,0.559-2.043,0.992c0,0,0.028,0.93,0.186,1.85"/>
		<path fill="none" stroke="#000000" stroke-linecap="round" stroke-linejoin="round" stroke-miterlimit="10" d="M17.887,9.879
			c1.012,0.229,1.77,0.559,2.043,0.992c0,0-0.029,0.93-0.187,1.85"/>
	</g>
</g>
</svg>
