<?xml version="1.0" encoding="utf-8"?>
<!-- Generator: Adobe Illustrator 19.2.0, SVG Export Plug-In . SVG Version: 6.00 Build 0)  -->
<svg version="1.1" id="Outline_Icons" xmlns="http://www.w3.org/2000/svg" xmlns:xlink="http://www.w3.org/1999/xlink" x="0px"
	 y="0px" viewBox="0 0 24 24" enable-background="new 0 0 24 24" xml:space="preserve">
<g>
	<path fill="none" stroke="#000000" stroke-linejoin="round" stroke-miterlimit="10" d="M10.5,12c0,2.484-2.016,4.5-4.5,4.5
		c-2.486,0-4-2.016-4-4.5c0-1.381,1.118-2.5,2.5-2.5H9c0.827,0,1.5,0.672,1.5,1.5V12z"/>
	<path fill="none" stroke="#000000" stroke-linejoin="round" stroke-miterlimit="10" d="M13.5,12c0,2.484,2.014,4.5,4.5,4.5
		c2.484,0,4-2.016,4-4.5c0-1.381-1.12-2.5-2.5-2.5H15c-0.829,0-1.5,0.672-1.5,1.5V12z"/>
	<path fill="none" stroke="#000000" stroke-linecap="round" stroke-linejoin="round" stroke-miterlimit="10" d="M0.5,10.5
		c0-0.551,0.447-1,1-1"/>
	<path fill="none" stroke="#000000" stroke-linecap="round" stroke-linejoin="round" stroke-miterlimit="10" d="M23.5,10.5
		c0-0.551-0.448-1-1-1"/>
	<path fill="none" stroke="#000000" stroke-linejoin="round" stroke-miterlimit="10" d="M10.5,11v-1c0-0.828,0.672-1.5,1.5-1.5
		s1.5,0.672,1.5,1.5v1"/>
</g>
</svg>
