<?xml version="1.0" encoding="utf-8"?>
<!-- Generator: Adobe Illustrator 19.2.0, SVG Export Plug-In . SVG Version: 6.00 Build 0)  -->
<svg version="1.1" id="Layer_1" xmlns="http://www.w3.org/2000/svg" xmlns:xlink="http://www.w3.org/1999/xlink" x="0px" y="0px"
	 viewBox="0 0 24 24" enable-background="new 0 0 24 24" xml:space="preserve">
<g id="Filled_Icons" display="none">
	<path display="inline" d="M22.5,14.221h-0.514c-0.149-2.349-2.103-4.215-4.485-4.215c-0.478,0-0.937,0.076-1.367,0.214
		l-3.128-1.796l4.769-2.734c0.229-0.135,0.498-0.17,0.757-0.101c0.258,0.069,0.474,0.235,0.607,0.466
		c0.139,0.239,0.443,0.32,0.684,0.183c0.238-0.139,0.32-0.444,0.183-0.684c-0.267-0.462-0.698-0.793-1.214-0.931
		c-0.518-0.14-1.057-0.066-1.516,0.199l-5.273,3.025L6.73,4.823c-0.463-0.267-1.002-0.339-1.519-0.2
		C4.696,4.761,4.265,5.092,3.997,5.554C3.859,5.793,3.941,6.099,4.181,6.237c0.238,0.138,0.544,0.056,0.683-0.184
		c0.134-0.23,0.35-0.397,0.607-0.464c0.258-0.07,0.527-0.035,0.76,0.1l4.766,2.734l-3.13,1.797
		c-0.432-0.138-0.891-0.214-1.366-0.214c-2.385,0-4.337,1.866-4.485,4.215H1.5c-0.276,0-0.5,0.223-0.5,0.5
		c0,0.274,0.224,0.5,0.5,0.5h0.563c0.344,2.143,2.2,3.785,4.438,3.785c2.481,0,4.5-2.02,4.5-4.5c0-0.552,0.448-1,1-1
		c0.552,0,1,0.448,1,1c0,2.48,2.018,4.5,4.5,4.5c2.237,0,4.095-1.645,4.438-3.785H22.5c0.275,0,0.5-0.226,0.5-0.5
		C23,14.441,22.775,14.221,22.5,14.221z M13.273,12.977c-0.348-0.289-0.788-0.471-1.272-0.471c-0.486,0-0.927,0.182-1.273,0.471
		c-0.335-0.92-0.958-1.703-1.765-2.231l3.038-1.743l3.037,1.743C14.23,11.273,13.607,12.056,13.273,12.977z"/>
</g>
<g id="Outline_Icons">
	<g>
		<path fill="none" stroke="#000000" stroke-linecap="round" stroke-linejoin="round" stroke-miterlimit="10" d="M7.92,10.76
			l9.604-5.51c0.717-0.414,1.635-0.168,2.049,0.549"/>
		<path fill="none" stroke="#000000" stroke-linecap="round" stroke-linejoin="round" stroke-miterlimit="10" d="M16.081,10.76
			L6.479,5.25C5.763,4.836,4.845,5.082,4.431,5.799"/>
		<circle fill="none" stroke="#000000" stroke-linejoin="round" stroke-miterlimit="10" cx="6.501" cy="14.5" r="4"/>
		<circle fill="none" stroke="#000000" stroke-linejoin="round" stroke-miterlimit="10" cx="17.501" cy="14.5" r="4"/>
		<path fill="none" stroke="#000000" stroke-linejoin="round" stroke-miterlimit="10" d="M10.501,14.5c0-0.828,0.672-1.5,1.5-1.5
			c0.828,0,1.5,0.672,1.5,1.5"/>
		
			<line fill="none" stroke="#000000" stroke-linecap="round" stroke-linejoin="round" stroke-miterlimit="10" x1="2.5" y1="14.714" x2="1.5" y2="14.714"/>
		
			<line fill="none" stroke="#000000" stroke-linecap="round" stroke-linejoin="round" stroke-miterlimit="10" x1="21.5" y1="14.714" x2="22.5" y2="14.714"/>
	</g>
</g>
</svg>
