<?xml version="1.0" encoding="utf-8"?>
<!-- Generator: Adobe Illustrator 19.2.0, SVG Export Plug-In . SVG Version: 6.00 Build 0)  -->
<svg version="1.1" id="Layer_1" xmlns="http://www.w3.org/2000/svg" xmlns:xlink="http://www.w3.org/1999/xlink" x="0px" y="0px"
	 viewBox="0 0 24 24" enable-background="new 0 0 24 24" xml:space="preserve">
<g id="Filled_Icons" display="none">
	<g display="inline">
		<path d="M17.5,8.006c-1.943,0-3.6,1.24-4.227,2.97c-0.349-0.289-0.788-0.47-1.273-0.47c-0.486,0-0.927,0.181-1.273,0.47
			c-0.628-1.729-2.283-2.97-4.227-2.97c-2.481,0-4.5,2.018-4.5,4.5c0,2.48,2.019,4.5,4.5,4.5s4.5-2.02,4.5-4.5c0-0.552,0.448-1,1-1
			c0.551,0,1,0.448,1,1c0,2.48,2.019,4.5,4.5,4.5c2.48,0,4.5-2.02,4.5-4.5C22,10.023,19.98,8.006,17.5,8.006z"/>
		<path d="M1.251,9.553C1,9.439,0.703,9.548,0.588,9.799C0.197,10.649,0,11.56,0,12.506c0,0.275,0.224,0.5,0.5,0.5
			c0.276,0,0.5-0.225,0.5-0.5c0-0.801,0.167-1.571,0.497-2.29C1.612,9.965,1.502,9.668,1.251,9.553z"/>
		<path d="M23.41,9.799c-0.114-0.251-0.411-0.362-0.662-0.246c-0.252,0.114-0.361,0.411-0.247,0.662
			C22.832,10.938,23,11.708,23,12.506c0,0.275,0.225,0.5,0.5,0.5c0.275,0,0.5-0.225,0.5-0.5C24,11.563,23.803,10.652,23.41,9.799z"
			/>
	</g>
</g>
<g id="Outline_Icons">
	<g>
		
			<circle fill="none" stroke="#000000" stroke-linecap="round" stroke-linejoin="round" stroke-miterlimit="10" cx="6.5" cy="12.5" r="4"/>
		
			<circle fill="none" stroke="#000000" stroke-linecap="round" stroke-linejoin="round" stroke-miterlimit="10" cx="17.5" cy="12.5" r="4"/>
		<path fill="none" stroke="#000000" stroke-linecap="round" stroke-linejoin="round" stroke-miterlimit="10" d="M10.5,12.5
			c0-0.828,0.671-1.5,1.5-1.5c0.827,0,1.5,0.672,1.5,1.5"/>
		<path fill="none" stroke="#000000" stroke-linecap="round" stroke-linejoin="round" stroke-miterlimit="10" d="M0.5,12.5
			c0-0.892,0.193-1.737,0.543-2.498"/>
		<path fill="none" stroke="#000000" stroke-linecap="round" stroke-linejoin="round" stroke-miterlimit="10" d="M23.5,12.5
			c0-0.892-0.195-1.737-0.544-2.498"/>
	</g>
</g>
</svg>
