<?xml version="1.0" encoding="utf-8"?>
<!-- Generator: Adobe Illustrator 19.2.0, SVG Export Plug-In . SVG Version: 6.00 Build 0)  -->
<svg version="1.1" id="Layer_1" xmlns="http://www.w3.org/2000/svg" xmlns:xlink="http://www.w3.org/1999/xlink" x="0px" y="0px"
	 viewBox="0 0 24 24" enable-background="new 0 0 24 24" xml:space="preserve">
<g id="Filled_Icons" display="none">
	<path display="inline" d="M20,2.006c-0.275,0-0.5,0.224-0.5,0.5c0,0.276,0.225,0.5,0.5,0.5c0.551,0,1,0.449,1,1v9.678
		c-0.826-1.021-2.087-1.678-3.5-1.678c-1.943,0-3.6,1.241-4.227,2.971c-0.349-0.289-0.788-0.471-1.273-0.471
		c-0.486,0-0.927,0.182-1.273,0.471c-0.628-1.729-2.283-2.971-4.227-2.971c-1.413,0-2.675,0.655-3.5,1.678V4.006
		c0-0.551,0.448-1,1-1c0.276,0,0.5-0.224,0.5-0.5c0-0.276-0.224-0.5-0.5-0.5c-1.104,0-2,0.897-2,2v12.5c0,2.48,2.019,4.5,4.5,4.5
		s4.5-2.02,4.5-4.5c0-0.551,0.448-1,1-1c0.551,0,1,0.449,1,1c0,2.48,2.019,4.5,4.5,4.5c2.48,0,4.5-2.02,4.5-4.5v-12.5
		C22,2.903,21.103,2.006,20,2.006z"/>
</g>
<g id="Outline_Icons">
	<g>
		<circle fill="none" stroke="#000000" stroke-linejoin="round" stroke-miterlimit="10" cx="6.5" cy="16.5" r="4"/>
		<circle fill="none" stroke="#000000" stroke-linejoin="round" stroke-miterlimit="10" cx="17.5" cy="16.5" r="4"/>
		<path fill="none" stroke="#000000" stroke-linejoin="round" stroke-miterlimit="10" d="M10.5,16.5c0-0.828,0.671-1.5,1.5-1.5
			c0.827,0,1.5,0.672,1.5,1.5"/>
		<path fill="none" stroke="#000000" stroke-linecap="round" stroke-linejoin="round" stroke-miterlimit="10" d="M2.5,16.5V4
			c0-0.828,0.671-1.5,1.5-1.5"/>
		<path fill="none" stroke="#000000" stroke-linecap="round" stroke-linejoin="round" stroke-miterlimit="10" d="M21.5,16.5V4
			c0-0.828-0.673-1.5-1.5-1.5"/>
	</g>
</g>
</svg>
