<?xml version="1.0" encoding="utf-8"?>
<!-- Generator: Adobe Illustrator 19.2.0, SVG Export Plug-In . SVG Version: 6.00 Build 0)  -->
<svg version="1.1" id="Layer_1" xmlns="http://www.w3.org/2000/svg" xmlns:xlink="http://www.w3.org/1999/xlink" x="0px" y="0px"
	 viewBox="0 0 24 24" enable-background="new 0 0 24 24" xml:space="preserve">
<g id="Filled_Icons" display="none">
	<path display="inline" d="M19.868,0.168c-0.095-0.103-0.228-0.162-0.368-0.162h-15c-0.141,0-0.274,0.059-0.369,0.162
		C4.036,0.271,3.989,0.41,4.002,0.55l2,23c0.022,0.259,0.238,0.456,0.498,0.456h11c0.259,0,0.477-0.197,0.498-0.456l2-23
		C20.01,0.41,19.963,0.271,19.868,0.168z M18.346,8.006H5.653l-0.608-7h13.909L18.346,8.006z"/>
</g>
<g id="Outline_Icons">
	<g>
		<polygon fill="none" stroke="#000000" stroke-linecap="round" stroke-linejoin="round" stroke-miterlimit="10" points="17.5,23.5 
			6.5,23.5 4.5,0.5 19.5,0.5 		"/>
		<line fill="none" stroke="#000000" stroke-linejoin="round" stroke-miterlimit="10" x1="5.195" y1="8.5" x2="18.805" y2="8.5"/>
	</g>
</g>
</svg>
