<?xml version="1.0" encoding="utf-8"?>
<!-- Generator: Adobe Illustrator 19.2.0, SVG Export Plug-In . SVG Version: 6.00 Build 0)  -->
<svg version="1.1" id="Layer_1" xmlns="http://www.w3.org/2000/svg" xmlns:xlink="http://www.w3.org/1999/xlink" x="0px" y="0px"
	 viewBox="0 0 24 24" style="enable-background:new 0 0 24 24;" xml:space="preserve">
<style type="text/css">
	.st0{display:none;}
	.st1{display:inline;}
	.st2{fill:none;stroke:#000000;stroke-linejoin:round;stroke-miterlimit:10;}
</style>
<g id="Filled_Icons" class="st0">
	<g class="st1">
		<path d="M15,17.5c0.5-1.7,0.8-3.3,0.9-5H8c0.1,1.7,0.4,3.3,0.9,5H15z"/>
		<path d="M15.3,6.5H8.7C8.2,8.1,8,9.8,8,11.5h8C16,9.8,15.8,8.1,15.3,6.5z"/>
		<path d="M9.3,18.5c0.7,1.8,1.6,3.5,2.7,5.1c1.2-1.6,2.1-3.4,2.7-5.1H9.3z"/>
		<path d="M15,5.5c-0.7-1.9-1.7-3.7-3-5.2c-1.3,1.6-2.3,3.3-3,5.2H15z"/>
		<path d="M22.1,5.5c-1.9-3-5.2-5-8.9-5.4c1.3,1.6,2.3,3.5,2.9,5.4H22.1z"/>
		<path d="M7.6,6.5H1.2C0.5,8,0,9.7,0,11.5h7C7,9.8,7.2,8.1,7.6,6.5z"/>
		<path d="M10.8,0.1C7,0.5,3.7,2.5,1.8,5.5h6.1C8.6,3.6,9.5,1.7,10.8,0.1z"/>
		<path d="M16.1,17.5h6.6c0.8-1.5,1.2-3.2,1.3-5h-7C16.9,14.2,16.6,15.8,16.1,17.5z"/>
		<path d="M17,11.5h7c-0.1-1.8-0.5-3.5-1.3-5h-6.3C16.8,8.1,17,9.8,17,11.5z"/>
		<path d="M7,12.5H0c0.1,1.8,0.6,3.5,1.4,5h6.5C7.4,15.8,7.1,14.2,7,12.5z"/>
		<path d="M2,18.5c2,3.1,5.3,5.2,9.1,5.5c-1.2-1.7-2.1-3.6-2.8-5.5H2z"/>
		<path d="M13,24c3.8-0.3,7.1-2.4,9.1-5.5h-6.3C15.1,20.4,14.2,22.3,13,24z"/>
	</g>
</g>
<g id="Outline_Icons">
	<g>
		<path class="st2" d="M23.5,12c0,6.4-5.2,11.5-11.5,11.5c-6.4,0-11.5-5.4-11.5-11.8c0-6.2,4.9-11,11-11.2c0.2,0,0.3,0,0.5,0
			C18.4,0.5,23.5,5.6,23.5,12z"/>
		<path class="st2" d="M11.5,0.5c-6,6.5-6,15,0,23"/>
		<path class="st2" d="M12.5,0.5c6,6.5,6,15,0,23"/>
		<line class="st2" x1="2" y1="17.5" x2="22.1" y2="17.5"/>
		<line class="st2" x1="2.4" y1="5.5" x2="21.5" y2="5.5"/>
		<line class="st2" x1="0.5" y1="11.5" x2="23.4" y2="11.5"/>
	</g>
</g>
</svg>
