<?xml version="1.0" encoding="utf-8"?>
<!-- Generator: Adobe Illustrator 19.2.0, SVG Export Plug-In . SVG Version: 6.00 Build 0)  -->
<svg version="1.1" id="Outline_Icons" xmlns="http://www.w3.org/2000/svg" xmlns:xlink="http://www.w3.org/1999/xlink" x="0px"
	 y="0px" viewBox="0 0 24 24" style="enable-background:new 0 0 24 24;" xml:space="preserve">
<style type="text/css">
	.st0{fill:none;stroke:#000000;stroke-linecap:round;stroke-linejoin:round;stroke-miterlimit:10;}
	.st1{fill:none;stroke:#000000;stroke-linejoin:round;stroke-miterlimit:10;}
</style>
<g>
	<path class="st0" d="M12,23.5C5.6,23.5,0.5,18.4,0.5,12C0.5,5.7,5.6,0.5,12,0.5c6.4,0,11.5,5.2,11.5,11.5"/>
	<g>
		<g>
			<path class="st1" d="M16,13.8c-0.5,0.2-1,0.5-1.4,0.8L13.5,14L12,16.5l1.1,0.6c0,0.3-0.1,0.5-0.1,0.8c0,0.3,0,0.6,0.1,0.8
				L12,19.5l1.5,2.6l1.1-0.6c0.4,0.4,0.9,0.6,1.4,0.8v1.3h3v-1.3c0.5-0.2,1-0.5,1.4-0.8l1.1,0.6l1.5-2.6l-1.1-0.6
				c0-0.3,0.1-0.5,0.1-0.8c0-0.3,0-0.6-0.1-0.8l1.1-0.6L21.5,14l-1.1,0.6c-0.4-0.4-0.9-0.6-1.4-0.8v-1.3h-3L16,13.8L16,13.8z"/>
		</g>
		<circle class="st1" cx="17.5" cy="18" r="2"/>
	</g>
	<polyline class="st0" points="9.5,17.5 9.5,15 4.5,11 6.8,7.5 12.5,7.5 12.5,4.5 11,3.5 15.4,1 	"/>
	<polyline class="st0" points="20.5,4.3 18.8,7.5 17,7.5 15.3,9.2 	"/>
</g>
</svg>
