<?xml version="1.0" encoding="utf-8"?>
<!-- Generator: Adobe Illustrator 19.2.0, SVG Export Plug-In . SVG Version: 6.00 Build 0)  -->
<svg version="1.1" id="Layer_1" xmlns="http://www.w3.org/2000/svg" xmlns:xlink="http://www.w3.org/1999/xlink" x="0px" y="0px"
	 viewBox="0 0 24 24" style="enable-background:new 0 0 24 24;" xml:space="preserve">
<style type="text/css">
	.st0{display:none;}
	.st1{display:inline;}
	.st2{fill:none;stroke:#000000;stroke-linecap:round;stroke-linejoin:round;stroke-miterlimit:10;}
</style>
<g id="Filled_Icons" class="st0">
	<path class="st1" d="M21.1,4.2c-0.5,1.3-1.4,3.5-2.9,4.2c-0.1,0.1-0.2,0.1-0.3,0c-1.1-0.3-2.1,0.1-2.7,0.4c0.2,0.3,0.5,0.8,0.7,1.8
		c0.2,0.1,0.6,0,0.8-0.1c0.2-0.1,0.4-0.1,0.6,0.1c1.2,1.2-0.4,2.8-1.3,3.8c-0.2,0.2-0.4,0.4-0.5,0.5c0,0,0.1,0.1,0.1,0.1
		c0.2,0.2,0.5,0.5,0.6,0.9c0,0.3-0.1,0.6-0.4,0.8c-0.5,0.5-1,0.8-1.4,1c-0.1,1.7-1.4,2.7-3.5,2.7c-1,0-2-2.5-2-3
		c0-0.4,0.2-0.7,0.3-1c0.1-0.2,0.2-0.4,0.2-0.5c0-0.2-0.4-0.7-0.9-1.1c-0.1-0.1-0.1-0.2-0.1-0.4c0-0.4-0.1-0.7-0.2-0.9
		c-0.3-0.2-0.8-0.2-1.5-0.2c-0.3,0-0.5,0-0.8,0c-1.6,0-2-1.6-2-2.5c0-0.2,0-3.9,2.9-4.5c1.3-0.3,2.2-0.2,2.7,0.2
		C9.8,6.9,9.9,7.1,10,7.2c0.5,0.4,1.5,0.2,2.3,0c0.3-0.1,0.5-0.1,0.8-0.2c0.1-0.8,0.1-1.7,0-2c-0.6,0.3-1.2,0.3-1.7,0
		c-0.5-0.3-0.8-0.8-0.9-1.5C10.4,2.1,13.1,1,15,0.4c-1-0.3-2-0.4-3-0.4C5.4,0,0,5.4,0,12c0,6.6,5.4,12,12,12c6.6,0,12-5.4,12-12
		C24,9,22.9,6.3,21.1,4.2z"/>
</g>
<g id="Outline_Icons">
	<g>
		<circle class="st2" cx="12" cy="12" r="11.5"/>
		<path class="st2" d="M20.5,4.3C20.5,4.3,20,7,18,8c-2-0.5-4,1-3.5,1s1,2,1,2c0.5,0.5,1.5,0,1.5,0c1.2,1.2-2,3.5-2,4
			s1.2,0.8,0.5,1.5s-1.5,1-1.5,1c0,2.5-2.5,2.5-3,2.5s-1.5-2-1.5-2.5s0.5-1,0.5-1.5s-1-1.5-1-1.5c0-2-1.5-1.5-3-1.5s-1.5-2-1.5-2
			s0-3.5,2.5-4s2.5,0.5,2.5,0.5c1,1,3,0,4,0c0,0,0.5-3.5-0.5-3s-1.9,0.1-2-1C10.9,1.9,15.4,1,15.4,1"/>
	</g>
</g>
</svg>
