<?xml version="1.0" encoding="utf-8"?>
<!-- Generator: Adobe Illustrator 19.2.0, SVG Export Plug-In . SVG Version: 6.00 Build 0)  -->
<svg version="1.1" id="Outline_Icons" xmlns="http://www.w3.org/2000/svg" xmlns:xlink="http://www.w3.org/1999/xlink" x="0px"
	 y="0px" viewBox="0 0 24 24" style="enable-background:new 0 0 24 24;" xml:space="preserve">
<style type="text/css">
	.st0{fill:none;stroke:#000000;stroke-linecap:round;stroke-linejoin:round;stroke-miterlimit:10;}
</style>
<g>
	<path class="st0" d="M12,23.5C5.6,23.5,0.5,18.4,0.5,12C0.5,5.7,5.6,0.5,12,0.5c6.4,0,11.5,5.2,11.5,11.5"/>
	<polyline class="st0" points="9.5,17.5 9.5,15 4.5,11 6.8,7.5 12.5,7.5 12.5,4.5 11,3.5 15.4,1 	"/>
	<polyline class="st0" points="20.5,4.3 18.8,7.5 17,7.5 15.3,9.2 	"/>
	<g>
		<polyline class="st0" points="22.3,14.1 22.3,16.6 19.8,16.6 		"/>
		<path class="st0" d="M13.5,16.5c0.6-1.7,2.3-3,4.2-3s3.8,1.2,4.5,3"/>
		<g>
			<polyline class="st0" points="13.8,22 13.8,19.5 16.2,19.5 			"/>
			<path class="st0" d="M22.5,19.5c-0.6,1.7-2.3,3-4.2,3s-3.8-1.2-4.5-3"/>
		</g>
	</g>
</g>
</svg>
