<?xml version="1.0" encoding="utf-8"?>
<!-- Generator: Adobe Illustrator 19.2.0, SVG Export Plug-In . SVG Version: 6.00 Build 0)  -->
<svg version="1.1" id="Outline_Icons" xmlns="http://www.w3.org/2000/svg" xmlns:xlink="http://www.w3.org/1999/xlink" x="0px"
	 y="0px" viewBox="0 0 24 24" style="enable-background:new 0 0 24 24;" xml:space="preserve">
<style type="text/css">
	.st0{fill:none;stroke:#000000;stroke-linecap:round;stroke-linejoin:round;stroke-miterlimit:10;}
</style>
<g>
	<path class="st0" d="M16,22.8c-1.2,0.5-2.6,0.7-4,0.7C5.6,23.5,0.5,18.4,0.5,12C0.5,5.7,5.6,0.5,12,0.5c6.4,0,11.5,5.2,11.5,11.5"
		/>
	<path class="st0" d="M23.5,16.5c0,2.2-4,7-4,7s-4-4.8-4-7c0-2.2,1.8-4,4-4C21.7,12.5,23.5,14.3,23.5,16.5z"/>
	<circle class="st0" cx="19.5" cy="16.5" r="1.5"/>
	<polyline class="st0" points="9.5,17.5 9.5,15 4.5,11 6.8,7.5 12.5,7.5 12.5,4.5 11,3.5 15.4,1 	"/>
	<polyline class="st0" points="20.5,4.3 18.8,7.5 17,7.5 15.3,9.2 	"/>
</g>
</svg>
