<?xml version="1.0" encoding="utf-8"?>
<!-- Generator: Adobe Illustrator 19.2.0, SVG Export Plug-In . SVG Version: 6.00 Build 0)  -->
<svg version="1.1" id="Layer_1" xmlns="http://www.w3.org/2000/svg" xmlns:xlink="http://www.w3.org/1999/xlink" x="0px" y="0px"
	 viewBox="0 0 24 24" style="enable-background:new 0 0 24 24;" xml:space="preserve">
<style type="text/css">
	.st0{display:none;}
	.st1{display:inline;}
	.st2{fill:none;stroke:#000000;stroke-linecap:round;stroke-linejoin:round;stroke-miterlimit:10;}
</style>
<g id="Filled_Icons" class="st0">
	<g class="st1">
		<path d="M11.5,17.5c4.7,0,8.5-3.8,8.5-8.5c0-4.7-3.8-8.5-8.5-8.5C6.8,0.5,3,4.3,3,9C3,13.7,6.8,17.5,11.5,17.5z"/>
		<path d="M19.6,17.1C24,12.8,24.1,5.8,20,1.2l0.4-0.4c0.2-0.2,0.2-0.5,0-0.7c-0.2-0.2-0.5-0.2-0.7,0l-1.4,1.4
			c-0.2,0.2-0.2,0.5,0,0.7c0.1,0.1,0.2,0.1,0.4,0.1c0.1,0,0.3,0,0.4-0.1L19.3,2c3.7,4.1,3.6,10.5-0.3,14.5c-4,4-10.4,4.1-14.5,0.3
			l0.3-0.3c0.2-0.2,0.2-0.5,0-0.7c-0.2-0.2-0.5-0.2-0.7,0l-1.4,1.4c-0.2,0.2-0.2,0.5,0,0.7C2.8,17.9,2.9,18,3,18
			c0.1,0,0.3,0,0.4-0.1l0.4-0.4c1.9,1.8,4.3,2.8,6.8,3v0.6c-1.9,0.2-3.7,0.9-5.3,2c-0.2,0.1-0.2,0.4-0.2,0.6C5.1,23.9,5.3,24,5.5,24
			h12c0.2,0,0.4-0.1,0.5-0.3c0.1-0.2,0-0.4-0.2-0.6c-1.6-1.2-3.4-1.9-5.3-2v-0.6C15.1,20.2,17.7,19.1,19.6,17.1z"/>
	</g>
</g>
<g id="Outline_Icons">
	<g>
		<circle class="st2" cx="11.5" cy="9" r="8"/>
		<line class="st2" x1="11" y1="20" x2="11" y2="21.5"/>
		<line class="st2" x1="12" y1="20" x2="12" y2="21.5"/>
		<path class="st2" d="M17.5,23.5c-1.7-1.3-3.7-2-6-2c-2.2,0-4.3,0.7-6,2H17.5z"/>
		<path class="st2" d="M19.3,1.2c4.3,4.3,4.3,11.3,0,15.6C15,21.1,8,21.1,3.7,16.8"/>
		<line class="st2" x1="18.6" y1="1.9" x2="20" y2="0.5"/>
		<line class="st2" x1="3" y1="17.5" x2="4.4" y2="16.1"/>
	</g>
</g>
</svg>
