<?xml version="1.0" encoding="utf-8"?>
<!-- Generator: Adobe Illustrator 19.2.0, SVG Export Plug-In . SVG Version: 6.00 Build 0)  -->
<svg version="1.1" id="Layer_1" xmlns="http://www.w3.org/2000/svg" xmlns:xlink="http://www.w3.org/1999/xlink" x="0px" y="0px"
	 viewBox="0 0 24 24" style="enable-background:new 0 0 24 24;" xml:space="preserve">
<style type="text/css">
	.st0{display:none;}
	.st1{display:inline;}
	.st2{fill:none;stroke:#000000;stroke-linecap:round;stroke-linejoin:round;stroke-miterlimit:10;}
</style>
<g id="Filled_Icon" class="st0">
	<g class="st1">
		<path d="M15.5,8H14v2.5h2v-2C16,8.2,15.8,8,15.5,8z"/>
		<polyline points="12,8 12,10.5 13,10.5 13,8 		"/>
		<polyline points="10,8 10,10.5 11,10.5 11,8 		"/>
		<path d="M13.6,7L12,0.4c-0.1-0.4-0.9-0.4-1,0L9.4,7H13.6z"/>
		<path d="M17,11.5H6c-0.6,0.5-1,1.2-1,2v8C5,22.9,6.1,24,7.5,24h8c1.4,0,2.5-1.1,2.5-2.5v-8C18,12.7,17.6,12,17,11.5z M16,20.5
			c0,0.3-0.2,0.5-0.5,0.5h-8C7.2,21,7,20.8,7,20.5v-6C7,14.2,7.2,14,7.5,14h8c0.3,0,0.5,0.2,0.5,0.5V20.5z"/>
		<path d="M9,10.5V8H7.5C7.2,8,7,8.2,7,8.5v2H9z"/>
	</g>
</g>
<g id="Outline_Icons">
	<g>
		<path class="st2" d="M17.5,21.5c0,1.1-0.9,2-2,2h-8c-1.1,0-2-0.9-2-2v-8c0-1.1,0.9-2,2-2h8c1.1,0,2,0.9,2,2V21.5z"/>
		<polygon class="st2" points="11.5,0.5 13.5,8.5 9.5,8.5 		"/>
		<rect x="7.5" y="8.5" class="st2" width="8" height="3"/>
		<line class="st2" x1="9.5" y1="8.5" x2="9.5" y2="11.5"/>
		<line class="st2" x1="11.5" y1="8.5" x2="11.5" y2="11.5"/>
		<line class="st2" x1="13.5" y1="8.5" x2="13.5" y2="11.5"/>
		<rect x="7.5" y="14.5" class="st2" width="8" height="6"/>
	</g>
</g>
</svg>
