<?xml version="1.0" encoding="utf-8"?>
<!-- Generator: Adobe Illustrator 19.2.0, SVG Export Plug-In . SVG Version: 6.00 Build 0)  -->
<svg version="1.1" id="Outline_Icons" xmlns="http://www.w3.org/2000/svg" xmlns:xlink="http://www.w3.org/1999/xlink" x="0px"
	 y="0px" viewBox="0 0 24 24" style="enable-background:new 0 0 24 24;" xml:space="preserve">
<style type="text/css">
	.st0{fill:none;stroke:#000000;stroke-linejoin:round;stroke-miterlimit:10;}
	.st1{fill:none;stroke:#000000;stroke-linecap:round;stroke-linejoin:round;stroke-miterlimit:10;}
</style>
<g>
	<path class="st0" d="M17.7,17.9c3.1-5.5-1.1-16.9-5.8-16.9c-4.4,0-9.2,11.2-5.7,16.9"/>
	<path class="st0" d="M18.7,12.4c5.2,0.2,9.2,11.1-6.8,11.1C-3.4,23.5-0.7,12.6,5,12.4"/>
	<path class="st0" d="M1.2,14.7c1.3,2.1,4.6,3.8,10.7,3.8c6.2,0,9.4-1.6,10.8-3.6"/>
	<path class="st1" d="M9.9,12.8c0,1.1,0.9,2,2,2s2-0.9,2-2c0-1.1-0.9-2-2-2s-2-0.9-2-2c0-1.1,0.9-2,2-2s2,0.9,2,2"/>
	<line class="st1" x1="12.5" y1="5.5" x2="11" y2="16.1"/>
</g>
</svg>
