<?xml version="1.0" encoding="utf-8"?>
<!-- Generator: Adobe Illustrator 19.2.0, SVG Export Plug-In . SVG Version: 6.00 Build 0)  -->
<svg version="1.1" id="Outline_Icons" xmlns="http://www.w3.org/2000/svg" xmlns:xlink="http://www.w3.org/1999/xlink" x="0px"
	 y="0px" viewBox="0 0 24 24" style="enable-background:new 0 0 24 24;" xml:space="preserve">
<style type="text/css">
	.st0{fill:none;stroke:#000000;stroke-linejoin:round;stroke-miterlimit:10;}
	.st1{fill:none;stroke:#000000;stroke-linecap:round;stroke-linejoin:round;stroke-miterlimit:10;}
</style>
<g>
	<g>
		<circle class="st0" cx="12" cy="12" r="11.5"/>
		<path class="st0" d="M7,16.9c-1.2-1.3-2-3-2-4.9c0-3.9,3.1-7,7-7s7,3.1,7,7c0,1.9-0.8,3.6-2,4.9"/>
		<line class="st1" x1="11.5" y1="7" x2="11.5" y2="3"/>
		<line class="st1" x1="15.5" y1="8.5" x2="18.4" y2="5.6"/>
	</g>
	<polyline class="st1" points="10.5,14.5 10.5,10.5 8.5,13.5 11.5,13.5 	"/>
	<path class="st1" d="M14.5,10.5h-2v2h1.4c0.7,0,0.6,0.6,0.6,1s0.1,1-0.6,1h-1.4"/>
</g>
</svg>
