<?xml version="1.0" encoding="utf-8"?>
<!-- Generator: Adobe Illustrator 19.2.0, SVG Export Plug-In . SVG Version: 6.00 Build 0)  -->
<svg version="1.1" id="Layer_1" xmlns="http://www.w3.org/2000/svg" xmlns:xlink="http://www.w3.org/1999/xlink" x="0px" y="0px"
	 viewBox="0 0 24 24" style="enable-background:new 0 0 24 24;" xml:space="preserve">
<style type="text/css">
	.st0{display:none;}
	.st1{display:inline;}
	.st2{fill:none;stroke:#000000;stroke-linecap:round;stroke-linejoin:round;stroke-miterlimit:10;}
</style>
<g id="Filled_Icons" class="st0">
	<g class="st1">
		<rect x="8" y="1" width="8" height="5"/>
		<path d="M7,1H2.5C1.1,1,0,2.1,0,3.5V6h7V1z"/>
		<path d="M0,22.5C0,22.8,0.2,23,0.5,23h23c0.3,0,0.5-0.2,0.5-0.5V7H0V22.5z M13.2,11.6l3-2c0.2-0.1,0.4-0.1,0.5,0
			c0.2,0.1,0.3,0.3,0.2,0.5l-1,9c0,0.3-0.2,0.4-0.5,0.4c0,0,0,0-0.1,0c-0.3,0-0.5-0.3-0.4-0.6l0.9-7.9l-2.1,1.4
			c-0.2,0.2-0.5,0.1-0.7-0.1C12.9,12,13,11.7,13.2,11.6z M5.5,14H8v-2.5C8,11.2,8.2,11,8.5,11C8.8,11,9,11.2,9,11.5V14h2.5
			c0.3,0,0.5,0.2,0.5,0.5c0,0.3-0.2,0.5-0.5,0.5H9v2.5C9,17.8,8.8,18,8.5,18C8.2,18,8,17.8,8,17.5V15H5.5C5.2,15,5,14.8,5,14.5
			C5,14.2,5.2,14,5.5,14z"/>
		<path d="M21.5,1H17v5h7V3.5C24,2.1,22.9,1,21.5,1z"/>
	</g>
</g>
<g id="Outline_Icons">
	<g>
		<rect x="0.5" y="6.5" class="st2" width="23" height="16"/>
		<path class="st2" d="M0.5,6.5v-3c0-1.1,0.9-2,2-2h19c1.1,0,2,0.9,2,2v3"/>
		<line class="st2" x1="16.5" y1="1.5" x2="16.5" y2="6.5"/>
		<line class="st2" x1="7.5" y1="1.5" x2="7.5" y2="6.5"/>
		<line class="st2" x1="8.5" y1="11.5" x2="8.5" y2="17.5"/>
		<line class="st2" x1="11.5" y1="14.5" x2="5.5" y2="14.5"/>
		<polyline class="st2" points="15.5,19 16.5,10 13.5,12 		"/>
	</g>
</g>
</svg>
