<?xml version="1.0" encoding="utf-8"?>
<!-- Generator: Adobe Illustrator 19.2.0, SVG Export Plug-In . SVG Version: 6.00 Build 0)  -->
<svg version="1.1" id="Layer_1" xmlns="http://www.w3.org/2000/svg" xmlns:xlink="http://www.w3.org/1999/xlink" x="0px" y="0px"
	 viewBox="0 0 24 24" style="enable-background:new 0 0 24 24;" xml:space="preserve">
<style type="text/css">
	.st0{display:none;}
	.st1{display:inline;}
	.st2{fill:none;stroke:#000000;stroke-linecap:round;stroke-linejoin:round;stroke-miterlimit:10;}
</style>
<g id="Filled_Icons" class="st0">
	<g class="st1">
		<path d="M7,0H2.5C1.1,0,0,1.1,0,2.5V5h7V0z"/>
		<rect x="8" width="8" height="5"/>
		<path d="M0,23.5C0,23.8,0.2,24,0.5,24h23c0.3,0,0.5-0.2,0.5-0.5V6H0V23.5z M7,13.5C7,13.2,7.2,13,7.5,13H10v-2.5
			c0-0.3,0.2-0.5,0.5-0.5h3c0.3,0,0.5,0.2,0.5,0.5V13h2.5c0.3,0,0.5,0.2,0.5,0.5v3c0,0.3-0.2,0.5-0.5,0.5H14v2.5
			c0,0.3-0.2,0.5-0.5,0.5h-3c-0.3,0-0.5-0.2-0.5-0.5V17H7.5C7.2,17,7,16.8,7,16.5V13.5z"/>
		<path d="M21.5,0H17v5h7V2.5C24,1.1,22.9,0,21.5,0z"/>
	</g>
</g>
<g id="Outline_Icons">
	<g>
		<rect x="0.5" y="5.5" class="st2" width="23" height="18"/>
		<path class="st2" d="M23.5,5.5h-23v-3c0-1.1,0.9-2,2-2h19c1.1,0,2,0.9,2,2V5.5z"/>
		<line class="st2" x1="16.5" y1="0.5" x2="16.5" y2="5.5"/>
		<line class="st2" x1="7.5" y1="0.5" x2="7.5" y2="5.5"/>
		<polygon class="st2" points="16.5,13.5 13.5,13.5 13.5,10.5 10.5,10.5 10.5,13.5 7.5,13.5 7.5,16.5 10.5,16.5 10.5,19.5 
			13.5,19.5 13.5,16.5 16.5,16.5 		"/>
	</g>
</g>
</svg>
