<?xml version="1.0" encoding="utf-8"?>
<!-- Generator: Adobe Illustrator 19.2.0, SVG Export Plug-In . SVG Version: 6.00 Build 0)  -->
<svg version="1.1" id="Layer_1" xmlns="http://www.w3.org/2000/svg" xmlns:xlink="http://www.w3.org/1999/xlink" x="0px" y="0px"
	 viewBox="0 0 24 24" style="enable-background:new 0 0 24 24;" xml:space="preserve">
<style type="text/css">
	.st0{display:none;}
	.st1{display:inline;}
	.st2{fill:none;stroke:#000000;stroke-linecap:round;stroke-linejoin:round;stroke-miterlimit:10;}
</style>
<g id="Filled_Icons" class="st0">
	<g class="st1">
		<path d="M21,16.8c-6.4-1.8,1,0.3-5.4-1.5c1-0.9,1.7-2,1.8-3.4c0.7-0.2,1.1-1,1.1-1.9c0-0.9-0.5-1.7-1.1-1.9V7
			c-0.2,0.2-0.6,0.4-1,0.6v0.9C16.5,8.8,16.7,9,17,9c0.5,0,0.6,0.7,0.6,1c0,0.3-0.1,1-0.6,1c-0.3,0-0.5,0.2-0.5,0.5
			c0,2.6-3.2,4.5-4.5,4.5c-1.3,0-4.5-1.9-4.5-4.5C7.5,11.2,7.3,11,7,11c-0.5,0-0.6-0.7-0.6-1c0-0.3,0.1-1,0.6-1
			c0.3,0,0.5-0.2,0.5-0.5V7.6C7.1,7.4,6.7,7.2,6.5,7v1.1C6.2,8.2,5.9,8.4,5.7,8.7C5.5,9,5.4,9.5,5.4,10c0,1,0.5,1.7,1.1,1.9
			c0.1,1.4,0.9,2.5,1.8,3.4c-2.6,0.7-2.9,0.8-5.4,1.5C1.2,17.4,0,19.1,0,21v3h24v-3C24,19.1,22.8,17.4,21,16.8z M12,20.8l-4.3-4.3
			c0.5-0.1,1.1-0.2,1.9-0.3c0.9,0.5,1.8,0.8,2.4,0.8c0.6,0,1.5-0.3,2.4-0.8c0.8,0.1,1.4,0.2,1.9,0.3L12,20.8z"/>
		<path d="M10,8.5l-0.1,0c-0.4,0-0.8,0-1.1,0.3C8.6,9,8.5,9.2,8.5,9.5C8.5,9.8,8.7,10,9,10c0.3,0,0.5-0.2,0.5-0.5c0.1,0,0.3,0,0.4,0
			l0.1,0l0.1,0c0.1,0,0.3,0,0.4,0c0,0.3,0.2,0.5,0.5,0.5c0.3,0,0.5-0.2,0.5-0.5c0-0.3-0.1-0.5-0.3-0.7c-0.3-0.3-0.7-0.3-1.1-0.3
			L10,8.5z"/>
		<path d="M14,8.5l-0.1,0c-0.4,0-0.8,0-1.1,0.3c-0.2,0.2-0.3,0.4-0.3,0.7c0,0.3,0.2,0.5,0.5,0.5c0.3,0,0.5-0.2,0.5-0.5
			c0.1,0,0.2,0,0.4,0l0.1,0l0.1,0c0.1,0,0.3,0,0.4,0c0,0.3,0.2,0.5,0.5,0.5c0.3,0,0.5-0.2,0.5-0.5c0-0.3-0.1-0.5-0.3-0.7
			c-0.3-0.3-0.7-0.3-1.1-0.3L14,8.5z"/>
		<path d="M17.5,5.1C17.3,5.1,12.2,6,12,6c0,0,0,0,0,0c-0.2,0-5.3-0.9-5.5-0.9v0.4c0,0.1,0,0.2,0.1,0.2c0,0,0,0,0,0l0.1,0.1
			c0,0,1.7,1.6,5.4,1.6s5.3-1.6,5.4-1.6l0.1-0.1c0,0,0,0,0,0c0-0.1,0.1-0.2,0.1-0.2V5.1z"/>
		<path d="M0.4,3l2.1,0.4l0,0v1v2.1L1,13.4c0,0.1,0,0.3,0.1,0.4C1.2,13.9,1.3,14,1.5,14h3c0.2,0,0.3-0.1,0.4-0.2
			C5,13.7,5,13.5,5,13.4L3.5,6.4V4.5v-1l0,0C7.6,4.2,3.6,3.5,12,5H12l11.5-2C23.8,3,24,2.8,24,2.5v0C24,2.3,23.8,2,23.6,2
			c-11.2-1.9-8.3-1.4-11.5-2C12,0,12,0,11.9,0L0.5,2C0.2,2,0,2.2,0,2.5v0C0,2.7,0.2,3,0.4,3z"/>
	</g>
</g>
<g id="Outline_Icons">
	<g>
		<path class="st2" d="M9.4,15.5l-6.3,1.8c-1.6,0.6-2.6,2.1-2.6,3.7v2.5h23V21c0-1.7-1-3.2-2.6-3.7l-6.4-1.8"/>
		<path class="st2" d="M9,9.5C9,8.9,9.4,9,10,9c0.6,0,1-0.1,1,0.5"/>
		<path class="st2" d="M13,9.5C13,8.9,13.4,9,14,9c0.6,0,1-0.1,1,0.5"/>
		<path class="st2" d="M7,6v2.5c-1.5,0-1.5,3,0,3c0,3,3.5,5,5,5"/>
		<path class="st2" d="M17,6v2.5c1.5,0,1.5,3,0,3c0,3-3.5,5-5,5"/>
		<polygon class="st2" points="12,4.5 23.5,2.5 12,0.5 0.5,2.5 		"/>
		<path class="st2" d="M7,3.6V6c0,0,1.5,1.5,5,1.5S17,6,17,6V3.6"/>
		<line class="st2" x1="3" y1="2.9" x2="3" y2="6.5"/>
		<polyline class="st2" points="3,6.5 1.5,13.5 4.5,13.5 3,6.5 		"/>
		<polyline class="st2" points="6.8,16.2 12,21.5 17.3,16.2 		"/>
	</g>
</g>
</svg>
