<?xml version="1.0" encoding="utf-8"?>
<!-- Generator: Adobe Illustrator 19.2.0, SVG Export Plug-In . SVG Version: 6.00 Build 0)  -->
<svg version="1.1" id="Layer_1" xmlns="http://www.w3.org/2000/svg" xmlns:xlink="http://www.w3.org/1999/xlink" x="0px" y="0px"
	 viewBox="0 0 24 24" style="enable-background:new 0 0 24 24;" xml:space="preserve">
<style type="text/css">
	.st0{display:none;}
	.st1{display:inline;}
	.st2{fill:none;stroke:#000000;stroke-linejoin:round;stroke-miterlimit:10;}
</style>
<g id="Filled_Icon" class="st0">
	<g class="st1">
		<rect x="7" y="13" width="2" height="2"/>
		<rect x="9" y="15" width="2" height="2"/>
		<rect x="3" y="13" width="2" height="2"/>
		<rect x="11" y="17" width="2" height="2"/>
		<rect x="13" y="15" width="2" height="2"/>
		<rect x="3" y="17" width="2" height="2"/>
		<rect x="11" y="13" width="2" height="2"/>
		<rect x="7" y="17" width="2" height="2"/>
		<rect x="17" y="15" width="2" height="2"/>
		<rect x="15" y="13" width="2" height="2"/>
		<rect x="5" y="15" width="2" height="2"/>
		<rect x="5" y="19" width="2" height="2"/>
		<rect x="15" y="17" width="2" height="2"/>
		<path d="M23.5,0h-23C0.2,0,0,0.2,0,0.5v23C0,23.8,0.2,24,0.5,24h23c0.3,0,0.5-0.2,0.5-0.5v-23C24,0.2,23.8,0,23.5,0z M23,15h-2v2
			h2v2h-2v2h2v2h-2v-2h-2v2h-2v-2h-2v2h-2v-2h-2v2H9v-2H7v2H5v-2H3v2H1v-2h2v-2H1v-2h2v-2H1v-2h2v-2h2v2h2v-2h2v2h2v-2h2v2h2v-2h2v2
			h2v-2h2v2h2V15z"/>
		<rect x="17" y="19" width="2" height="2"/>
		<rect x="19" y="17" width="2" height="2"/>
		<rect x="19" y="13" width="2" height="2"/>
		<rect x="13" y="19" width="2" height="2"/>
		<rect x="9" y="19" width="2" height="2"/>
	</g>
</g>
<g id="Outline_Icons">
	<g>
		<rect x="0.5" y="0.5" class="st2" width="23" height="23"/>
		<rect x="1.5" y="21.5" class="st2" width="1" height="1"/>
		<rect x="5.5" y="21.5" class="st2" width="1" height="1"/>
		<rect x="9.5" y="21.5" class="st2" width="1" height="1"/>
		<rect x="13.5" y="21.5" class="st2" width="1" height="1"/>
		<rect x="17.5" y="21.5" class="st2" width="1" height="1"/>
		<rect x="21.5" y="21.5" class="st2" width="1" height="1"/>
		<rect x="1.5" y="17.5" class="st2" width="1" height="1"/>
		<rect x="5.5" y="17.5" class="st2" width="1" height="1"/>
		<rect x="9.5" y="17.5" class="st2" width="1" height="1"/>
		<rect x="13.5" y="17.5" class="st2" width="1" height="1"/>
		<rect x="17.5" y="17.5" class="st2" width="1" height="1"/>
		<rect x="21.5" y="17.5" class="st2" width="1" height="1"/>
		<rect x="3.5" y="19.5" class="st2" width="1" height="1"/>
		<rect x="7.5" y="19.5" class="st2" width="1" height="1"/>
		<rect x="11.5" y="19.5" class="st2" width="1" height="1"/>
		<rect x="15.5" y="19.5" class="st2" width="1" height="1"/>
		<rect x="19.5" y="19.5" class="st2" width="1" height="1"/>
		<rect x="3.5" y="15.5" class="st2" width="1" height="1"/>
		<rect x="7.5" y="15.5" class="st2" width="1" height="1"/>
		<rect x="11.5" y="15.5" class="st2" width="1" height="1"/>
		<rect x="15.5" y="15.5" class="st2" width="1" height="1"/>
		<rect x="19.5" y="15.5" class="st2" width="1" height="1"/>
		<rect x="1.5" y="13.5" class="st2" width="1" height="1"/>
		<rect x="5.5" y="13.5" class="st2" width="1" height="1"/>
		<rect x="9.5" y="13.5" class="st2" width="1" height="1"/>
		<rect x="13.5" y="13.5" class="st2" width="1" height="1"/>
		<rect x="17.5" y="13.5" class="st2" width="1" height="1"/>
		<rect x="21.5" y="13.5" class="st2" width="1" height="1"/>
		<rect x="3.5" y="11.5" class="st2" width="1" height="1"/>
		<rect x="7.5" y="11.5" class="st2" width="1" height="1"/>
		<rect x="11.5" y="11.5" class="st2" width="1" height="1"/>
		<rect x="15.5" y="11.5" class="st2" width="1" height="1"/>
		<rect x="19.5" y="11.5" class="st2" width="1" height="1"/>
	</g>
</g>
</svg>
