<?xml version="1.0" encoding="utf-8"?>
<!-- Generator: Adobe Illustrator 19.2.0, SVG Export Plug-In . SVG Version: 6.00 Build 0)  -->
<svg version="1.1" id="Layer_1" xmlns="http://www.w3.org/2000/svg" xmlns:xlink="http://www.w3.org/1999/xlink" x="0px" y="0px"
	 viewBox="0 0 24 24" style="enable-background:new 0 0 24 24;" xml:space="preserve">
<style type="text/css">
	.st0{display:none;}
	.st1{display:inline;}
	.st2{fill:none;stroke:#000000;stroke-linecap:round;stroke-linejoin:round;stroke-miterlimit:10;}
</style>
<g id="Filled_Icon" class="st0">
	<path class="st1" d="M23.5,23H23V8.5C23,8.2,22.8,8,22.5,8h-3C19.2,8,19,8.2,19,8.5V23h-2v-7.5c0-0.3-0.2-0.5-0.5-0.5h-3
		c-0.3,0-0.5,0.2-0.5,0.5V23h-2v-9.5c0-0.3-0.2-0.5-0.5-0.5h-3C7.2,13,7,13.2,7,13.5V23H5v-4.5C5,18.2,4.8,18,4.5,18h-3
		C1.2,18,1,18.2,1,18.5V23H0.5C0.2,23,0,23.2,0,23.5C0,23.8,0.2,24,0.5,24h23c0.3,0,0.5-0.2,0.5-0.5C24,23.2,23.8,23,23.5,23z"/>
</g>
<g id="Outline_Icons">
	<g>
		<line class="st2" x1="0.5" y1="23.5" x2="23.5" y2="23.5"/>
		<rect x="1.5" y="18.5" class="st2" width="3" height="5"/>
		<rect x="7.5" y="13.5" class="st2" width="3" height="10"/>
		<rect x="13.5" y="15.5" class="st2" width="3" height="8"/>
		<rect x="19.5" y="8.5" class="st2" width="3" height="15"/>
	</g>
</g>
</svg>
