<?xml version="1.0" encoding="utf-8"?>
<!-- Generator: Adobe Illustrator 19.2.0, SVG Export Plug-In . SVG Version: 6.00 Build 0)  -->
<svg version="1.1" id="Layer_1" xmlns="http://www.w3.org/2000/svg" xmlns:xlink="http://www.w3.org/1999/xlink" x="0px" y="0px"
	 viewBox="0 0 24 24" style="enable-background:new 0 0 24 24;" xml:space="preserve">
<style type="text/css">
	.st0{display:none;}
	.st1{display:inline;}
	.st2{fill:none;stroke:#000000;stroke-linecap:round;stroke-linejoin:round;stroke-miterlimit:10;}
</style>
<g id="Filled_Icon" class="st0">
	<g class="st1">
		<path d="M23.5,23H23V8.5C23,8.2,22.8,8,22.5,8h-3C19.2,8,19,8.2,19,8.5V23h-2V12.5c0-0.3-0.2-0.5-0.5-0.5h-3
			c-0.3,0-0.5,0.2-0.5,0.5V23h-2v-6.5c0-0.3-0.2-0.5-0.5-0.5h-3C7.2,16,7,16.2,7,16.5V23H5v-2.5C5,20.2,4.8,20,4.5,20h-3
			C1.2,20,1,20.2,1,20.5V23H0.5C0.2,23,0,23.2,0,23.5C0,23.8,0.2,24,0.5,24h23c0.3,0,0.5-0.2,0.5-0.5C24,23.2,23.8,23,23.5,23z"/>
		<path d="M3,14c0.1,0,0.2,0,0.3-0.1L20.4,2.5L20,5.4C20,5.7,20.2,6,20.4,6c0,0,0,0,0.1,0C20.7,6,21,5.8,21,5.6l0.5-4
			c0-0.2-0.2-0.5-0.4-0.6c0,0-4-0.5-4-0.5c-0.3,0-0.5,0.2-0.6,0.4c0,0.3,0.2,0.5,0.4,0.6l2.7,0.3L2.7,13.1c-0.2,0.2-0.3,0.5-0.1,0.7
			C2.7,13.9,2.8,14,3,14z"/>
	</g>
</g>
<g id="Outline_Icons">
	<g>
		<line class="st2" x1="0.5" y1="23.5" x2="23.5" y2="23.5"/>
		<rect x="1.5" y="20.5" class="st2" width="3" height="3"/>
		<rect x="7.5" y="16.5" class="st2" width="3" height="7"/>
		<rect x="13.5" y="12.5" class="st2" width="3" height="11"/>
		<rect x="19.5" y="8.5" class="st2" width="3" height="15"/>
		<line class="st2" x1="3" y1="13.5" x2="21" y2="1.5"/>
		<polyline class="st2" points="20.5,5.5 21,1.5 17,1 		"/>
	</g>
</g>
</svg>
