<?xml version="1.0" encoding="utf-8"?>
<!-- Generator: Adobe Illustrator 19.2.0, SVG Export Plug-In . SVG Version: 6.00 Build 0)  -->
<svg version="1.1" id="Layer_1" xmlns="http://www.w3.org/2000/svg" xmlns:xlink="http://www.w3.org/1999/xlink" x="0px" y="0px"
	 viewBox="0 0 24 24" style="enable-background:new 0 0 24 24;" xml:space="preserve">
<style type="text/css">
	.st0{display:none;}
	.st1{display:inline;}
	.st2{fill:none;stroke:#000000;stroke-linecap:round;stroke-linejoin:round;stroke-miterlimit:10;}
</style>
<g id="Filled_Icon" class="st0">
	<path class="st1" d="M22,14.5c1.1,0,2-0.9,2-2c0-1.1-0.9-2-2-2c-1.1,0-2,0.9-2,2c0,0.2,0,0.4,0.1,0.5l-3.5,2.1
		c-0.4-0.4-0.9-0.6-1.4-0.6c-0.9,0-1.7,0.6-1.9,1.5H9.6c-0.2-0.9-1-1.5-1.9-1.5c-1.1,0-2,0.9-2,2c0,0.2,0,0.4,0.1,0.6L1,20.2v-8
		l6.1-3.7C7.5,8.9,8,9.1,8.5,9.1c0.7,0,1.3-0.4,1.7-0.9l3.9,1.3c0,0,0,0,0,0c0,1.1,0.9,2,2,2c1.1,0,2-0.9,2-2c0-0.5-0.2-0.9-0.4-1.2
		L21.1,4c0.3,0.1,0.6,0.2,0.9,0.2c1.1,0,2-0.9,2-2s-0.9-2-2-2c-1.1,0-2,0.9-2,2c0,0.4,0.1,0.8,0.3,1.1l-3.4,4.4
		c-0.2-0.1-0.5-0.2-0.8-0.2c-0.7,0-1.4,0.4-1.7,1l-3.9-1.3c0,0,0-0.1,0-0.1c0-1.1-0.9-2-2-2s-2,0.9-2,2c0,0.2,0,0.4,0.1,0.6L1,11.1
		V1c0-0.3-0.2-0.5-0.5-0.5C0.2,0.5,0,0.7,0,1v22.5C0,23.8,0.2,24,0.5,24H23c0.3,0,0.5-0.2,0.5-0.5c0-0.3-0.2-0.5-0.5-0.5H1v-1.6
		l5.3-3.5c0.4,0.4,0.9,0.6,1.4,0.6c0.9,0,1.7-0.6,1.9-1.5h3.5c0.2,0.9,1,1.5,1.9,1.5c1.1,0,2-0.9,2-2c0-0.2,0-0.4-0.1-0.5l3.5-2.1
		C20.9,14.3,21.4,14.5,22,14.5z"/>
</g>
<g id="Outline_Icons">
	<g>
		<polyline class="st2" points="23,23.3 0.5,23.3 0.5,0.8 		"/>
		<circle class="st2" cx="8.5" cy="6.9" r="1.5"/>
		<circle class="st2" cx="7.7" cy="16.3" r="1.5"/>
		<circle class="st2" cx="16.1" cy="9.3" r="1.5"/>
		<circle class="st2" cx="15.1" cy="16.3" r="1.5"/>
		<circle class="st2" cx="22" cy="12.3" r="1.5"/>
		<circle class="st2" cx="22" cy="2" r="1.5"/>
		<line class="st2" x1="17" y1="8.1" x2="21" y2="3.1"/>
		<line class="st2" x1="9.9" y1="7.4" x2="14.7" y2="8.9"/>
		<line class="st2" x1="0.5" y1="11.8" x2="7.2" y2="7.7"/>
		<line class="st2" x1="16.4" y1="15.6" x2="20.7" y2="13.1"/>
		<line class="st2" x1="9.2" y1="16.3" x2="13.6" y2="16.3"/>
		<line class="st2" x1="0.7" y1="20.9" x2="6.4" y2="17.1"/>
	</g>
</g>
</svg>
