<?xml version="1.0" encoding="utf-8"?>
<!-- Generator: Adobe Illustrator 19.2.0, SVG Export Plug-In . SVG Version: 6.00 Build 0)  -->
<svg version="1.1" id="Layer_1" xmlns="http://www.w3.org/2000/svg" xmlns:xlink="http://www.w3.org/1999/xlink" x="0px" y="0px"
	 viewBox="0 0 24 24" style="enable-background:new 0 0 24 24;" xml:space="preserve">
<style type="text/css">
	.st0{display:none;}
	.st1{display:inline;}
	.st2{fill:none;stroke:#000000;stroke-linejoin:round;stroke-miterlimit:10;}
	.st3{fill:none;stroke:#000000;stroke-linecap:round;stroke-linejoin:round;stroke-miterlimit:10;}
</style>
<g id="Filled_Icon" class="st0">
	<g class="st1">
		<polygon points="7,14 11,14 11,11.7 7,9.8 		"/>
		<rect x="7" y="15" width="4" height="3"/>
		<polygon points="6,14 6,10.3 2.7,14 		"/>
		<polygon points="16,10 16,8.4 14,10 		"/>
		<polygon points="12,11.6 12,14 16,14 16,11 12.8,11 		"/>
		<rect x="12" y="15" width="4" height="3"/>
		<path d="M19.5,1h-16C2.1,1,1,2.1,1,3.5v17C1,21.9,2.1,23,3.5,23h16c1.4,0,2.5-1.1,2.5-2.5v-17C22,2.1,20.9,1,19.5,1z M21,11h-4v3
			h4v1h-4v3h4v1h-4v3h-1v-3h-4v3h-1v-3H7v3H6v-3H2v-1h4v-3H2V3.5C2,2.7,2.7,2,3.5,2h16C20.3,2,21,2.7,21,3.5v3.2l-4,1.1V10h4V11z"/>
	</g>
</g>
<g id="Outline_Icons">
	<g>
		<path class="st2" d="M21.5,20.5c0,1.1-0.9,2-2,2h-16c-1.1,0-2-0.9-2-2v-17c0-1.1,0.9-2,2-2h16c1.1,0,2,0.9,2,2V20.5z"/>
		<polyline class="st2" points="1.5,14.5 6.5,9 11.5,11.4 16.5,7.4 21.5,6 		"/>
		<line class="st2" x1="6.5" y1="9" x2="6.5" y2="22.5"/>
		<line class="st2" x1="11.5" y1="11.4" x2="11.5" y2="22.5"/>
		<line class="st2" x1="16.5" y1="7.4" x2="16.5" y2="22.5"/>
		<line class="st2" x1="1.5" y1="14.5" x2="21.5" y2="14.5"/>
		<line class="st3" x1="12.6" y1="10.5" x2="21.5" y2="10.5"/>
		<line class="st2" x1="1.5" y1="18.5" x2="21.5" y2="18.5"/>
	</g>
</g>
</svg>
