<?xml version="1.0" encoding="utf-8"?>
<!-- Generator: Adobe Illustrator 19.2.0, SVG Export Plug-In . SVG Version: 6.00 Build 0)  -->
<svg version="1.1" id="Layer_1" xmlns="http://www.w3.org/2000/svg" xmlns:xlink="http://www.w3.org/1999/xlink" x="0px" y="0px"
	 viewBox="0 0 24 24" style="enable-background:new 0 0 24 24;" xml:space="preserve">
<style type="text/css">
	.st0{display:none;}
	.st1{display:inline;}
	.st2{fill:none;stroke:#000000;stroke-linecap:round;stroke-linejoin:round;stroke-miterlimit:10;}
</style>
<g id="Filled_Icon" class="st0">
	<g class="st1">
		<path d="M20.5,13H11V3.5C11,3.2,10.8,3,10.5,3C4.7,3,0,7.7,0,13.5S4.7,24,10.5,24C16.3,24,21,19.3,21,13.5
			C21,13.2,20.8,13,20.5,13z"/>
		<path d="M13.5,0C13.2,0,13,0.2,13,0.5v10c0,0.3,0.2,0.5,0.5,0.5h10c0.3,0,0.5-0.2,0.5-0.5C24,4.7,19.3,0,13.5,0z"/>
	</g>
</g>
<g id="Outline_Icons">
	<g>
		<path class="st2" d="M10.5,3.5c-5.5,0-10,4.5-10,10c0,5.5,4.5,10,10,10c5.5,0,10-4.5,10-10h-10V3.5z"/>
		<path class="st2" d="M13.5,10.5h10c0-5.5-4.5-10-10-10V10.5z"/>
	</g>
</g>
</svg>
