<?xml version="1.0" encoding="utf-8"?>
<!-- Generator: Adobe Illustrator 19.2.0, SVG Export Plug-In . SVG Version: 6.00 Build 0)  -->
<svg version="1.1" id="Layer_1" xmlns="http://www.w3.org/2000/svg" xmlns:xlink="http://www.w3.org/1999/xlink" x="0px" y="0px"
	 viewBox="0 0 24 24" style="enable-background:new 0 0 24 24;" xml:space="preserve">
<style type="text/css">
	.st0{display:none;}
	.st1{display:inline;}
	.st2{fill:none;stroke:#000000;stroke-linecap:round;stroke-linejoin:round;stroke-miterlimit:10;}
</style>
<g id="Filled_Icon" class="st0">
	<path class="st1" d="M24,10V2.2c0-0.2-0.1-0.4-0.3-0.5c-0.2-0.1-0.4,0-0.6,0.1L16.9,9L9.7,6.6c-0.1,0-0.3,0-0.4,0L1,11.1V1
		c0-0.3-0.2-0.5-0.5-0.5C0.2,0.5,0,0.7,0,1v11c0,0,0,0,0,0v11.5C0,23.8,0.2,24,0.5,24h23c0.3,0,0.5-0.2,0.5-0.5V10
		C24,10,24,10,24,10z M1,18.3L8.7,14h6.4c0.1,0,0.1,0,0.2,0l7.7-3.2v4.9l-7.9,1.7L8.6,17c-0.1,0-0.2,0-0.3,0.1l-7.3,5V18.3z
		 M9.5,7.7l7.4,2.4c0.2,0.1,0.4,0,0.5-0.1L23,3.5v6.1L15,13H8.6c-0.1,0-0.2,0-0.2,0.1L1,17.2v-4.9L9.5,7.7z M1.4,23l7.3-5l6.4,0.4
		c0,0,0.1,0,0.1,0l7.8-1.7V23H1.4z"/>
</g>
<g id="Outline_Icons">
	<g>
		<polyline class="st2" points="0.5,12 9.5,7.1 17.1,9.6 23.5,2.2 23.5,23.5 0.5,23.5 0.5,1 		"/>
		<polyline class="st2" points="0.5,18 8.6,13.5 15.1,13.5 23.5,10 		"/>
		<polyline class="st2" points="0.5,23 8.6,17.5 15.1,17.8 23.5,16 		"/>
	</g>
</g>
</svg>
