<?xml version="1.0" encoding="utf-8"?>
<!-- Generator: Adobe Illustrator 19.2.0, SVG Export Plug-In . SVG Version: 6.00 Build 0)  -->
<svg version="1.1" id="Layer_1" xmlns="http://www.w3.org/2000/svg" xmlns:xlink="http://www.w3.org/1999/xlink" x="0px" y="0px"
	 viewBox="0 0 24 24" style="enable-background:new 0 0 24 24;" xml:space="preserve">
<style type="text/css">
	.st0{display:none;}
	.st1{display:inline;}
	.st2{fill:none;stroke:#000000;stroke-linecap:round;stroke-linejoin:round;stroke-miterlimit:10;}
</style>
<g id="Filled_Icon" class="st0">
	<g class="st1">
		<g>
			<path d="M3.5,13.9l3-2l-2.7-1.8c-0.2-0.1-0.4-0.1-0.6,0l-2.7,1.8L3.5,13.9z"/>
			<path d="M4,14.8v9l2.8-1.9C6.9,21.7,7,21.6,7,21.4v-8.6L4,14.8z"/>
			<path d="M3,14.8l-3-2v8.6c0,0.2,0.1,0.3,0.2,0.4L3,23.8V14.8z"/>
		</g>
		<g>
			<path d="M11.5,8.9l3-2l-2.7-1.8c-0.2-0.1-0.4-0.1-0.6,0L8.5,6.9L11.5,8.9z"/>
			<path d="M12,9.8v14l2.8-1.9c0.1-0.1,0.2-0.2,0.2-0.4V7.8L12,9.8z"/>
			<path d="M11,9.8l-3-2v13.7c0,0.2,0.1,0.3,0.2,0.4l2.8,1.9V9.8z"/>
		</g>
		<g>
			<path d="M19.5,3.9l3-2l-2.7-1.8c-0.2-0.1-0.4-0.1-0.6,0l-2.7,1.8L19.5,3.9z"/>
			<path d="M19,4.8l-3-2v18.7c0,0.2,0.1,0.3,0.2,0.4l2.8,1.9V4.8z"/>
			<path d="M20,4.8v19l2.8-1.9c0.1-0.1,0.2-0.2,0.2-0.4V2.8L20,4.8z"/>
		</g>
	</g>
</g>
<g id="Outline_Icons">
	<g>
		<polyline class="st2" points="6.5,12.5 6.5,21.4 3.5,23.5 0.5,21.4 0.5,12.5 		"/>
		<polygon class="st2" points="6.5,12.5 3.5,14.5 0.5,12.5 3.5,10.5 		"/>
		<line class="st2" x1="3.5" y1="14.5" x2="3.5" y2="23.5"/>
		<polyline class="st2" points="14.5,7.5 14.5,21.4 11.5,23.5 8.5,21.4 8.5,7.5 		"/>
		<polygon class="st2" points="14.5,7.5 11.5,9.5 8.5,7.5 11.5,5.5 		"/>
		<line class="st2" x1="11.5" y1="9.5" x2="11.5" y2="23.5"/>
		<polyline class="st2" points="22.5,2.5 22.5,21.4 19.5,23.5 16.5,21.4 16.5,2.5 		"/>
		<polygon class="st2" points="22.5,2.5 19.5,4.5 16.5,2.5 19.5,0.5 		"/>
		<line class="st2" x1="19.5" y1="4.5" x2="19.5" y2="23.5"/>
	</g>
</g>
</svg>
