<?xml version="1.0" encoding="utf-8"?>
<!-- Generator: Adobe Illustrator 19.2.0, SVG Export Plug-In . SVG Version: 6.00 Build 0)  -->
<svg version="1.1" id="Layer_1" xmlns="http://www.w3.org/2000/svg" xmlns:xlink="http://www.w3.org/1999/xlink" x="0px" y="0px"
	 viewBox="0 0 24 24" style="enable-background:new 0 0 24 24;" xml:space="preserve">
<style type="text/css">
	.st0{display:none;}
	.st1{display:inline;}
	.st2{fill:none;stroke:#000000;stroke-linejoin:round;stroke-miterlimit:10;}
	.st3{fill:none;stroke:#000000;stroke-linecap:round;stroke-linejoin:round;stroke-miterlimit:10;}
</style>
<g id="Filled_Icon" class="st0">
	<path class="st1" d="M23.5,0h-23C0.2,0,0,0.2,0,0.5v15C0,15.8,0.2,16,0.5,16h11v2.3l-4.9,4.9c-0.2,0.2-0.2,0.5,0,0.7
		c0.2,0.2,0.5,0.2,0.7,0l4.6-4.6l4.6,4.6C16.7,24,16.9,24,17,24c0.1,0,0.3,0,0.4-0.1c0.2-0.2,0.2-0.5,0-0.7l-4.9-4.9V16h11
		c0.3,0,0.5-0.2,0.5-0.5v-15C24,0.2,23.8,0,23.5,0z M21,13H3V9h3.5c0.2,0,0.3-0.1,0.4-0.2L8.4,7l1.7,3.7c0.1,0.2,0.2,0.3,0.4,0.3
		c0,0,0,0,0.1,0c0.1,0,0.3-0.1,0.4-0.2L13,8.2l1.6,1.6C14.8,10,14.9,10,15,10c0.1,0,0.3-0.1,0.4-0.2l3.5-5c0.2-0.2,0.1-0.5-0.1-0.7
		c-0.2-0.2-0.5-0.1-0.7,0.1l-3.2,4.5l-1.6-1.6C13.3,7,13.1,7,13,7c-0.1,0-0.3,0.1-0.4,0.2l-2,2.4L9,5.8C8.9,5.6,8.7,5.5,8.6,5.5
		c-0.2,0-0.3,0-0.5,0.2L6.3,8H3V3h18V13z"/>
</g>
<g id="Outline_Icons">
	<g>
		<rect x="0.5" y="0.5" class="st2" width="23" height="15"/>
		<line class="st3" x1="11.5" y1="15.5" x2="11.5" y2="18.5"/>
		<polyline class="st3" points="6.5,23.5 11.5,18.5 16.5,23.5 		"/>
		<polyline class="st3" points="2.5,8.5 6.5,8.5 8.5,6 10.5,10.5 13,7.5 15,9.5 18.5,4.5 		"/>
		<rect x="2.5" y="2.5" class="st2" width="19" height="11"/>
	</g>
</g>
</svg>
