<?xml version="1.0" encoding="utf-8"?>
<!-- Generator: Adobe Illustrator 19.2.0, SVG Export Plug-In . SVG Version: 6.00 Build 0)  -->
<svg version="1.1" id="Layer_1" xmlns="http://www.w3.org/2000/svg" xmlns:xlink="http://www.w3.org/1999/xlink" x="0px" y="0px"
	 viewBox="0 0 24 24" enable-background="new 0 0 24 24" xml:space="preserve">
<g id="Filled_Icons" display="none">
	<g display="inline">
		<path d="M12.5,19.006c-1.379,0-2.5,1.122-2.5,2.5c0,1.379,1.121,2.5,2.5,2.5c1.378,0,2.5-1.121,2.5-2.5
			C15,20.128,13.878,19.006,12.5,19.006z"/>
		<path d="M10,10.506c0,1.379,1.121,2.5,2.5,2.5c1.378,0,2.5-1.121,2.5-2.5c0-1.378-1.122-2.5-2.5-2.5
			C11.121,8.006,10,9.128,10,10.506z"/>
		<path d="M9,11.006c0-1.378-1.122-2.5-2.5-2.5c-1.379,0-2.5,1.122-2.5,2.5c0,1.379,1.121,2.5,2.5,2.5
			C7.878,13.506,9,12.385,9,11.006z"/>
		<path d="M18.5,8.506c-1.379,0-2.5,1.122-2.5,2.5c0,1.379,1.121,2.5,2.5,2.5c1.378,0,2.5-1.121,2.5-2.5
			C21,9.628,19.878,8.506,18.5,8.506z"/>
		<path d="M15.5,14.006c-1.379,0-2.5,1.122-2.5,2.5c0,1.379,1.121,2.5,2.5,2.5c1.378,0,2.5-1.121,2.5-2.5
			C18,15.128,16.878,14.006,15.5,14.006z"/>
		<path d="M12,16.506c0-1.378-1.122-2.5-2.5-2.5c-1.379,0-2.5,1.122-2.5,2.5c0,1.379,1.121,2.5,2.5,2.5
			C10.878,19.006,12,17.885,12,16.506z"/>
		<path d="M12.5,7.006c0.275,0,0.5-0.223,0.5-0.5v-6c0-0.275-0.225-0.5-0.5-0.5c-0.276,0-0.5,0.224-0.5,0.5v6
			C12,6.783,12.224,7.006,12.5,7.006z"/>
		<path d="M22.921,1.238c-0.071-0.113-0.185-0.191-0.313-0.221c-3.98-0.875-7.689,1.248-8.596,5.382
			c-0.06,0.27,0.111,0.536,0.381,0.595c3.979,0.876,7.688-1.243,8.596-5.381C23.018,1.484,22.992,1.349,22.921,1.238z"/>
		<path d="M10.606,6.994c0.13-0.027,0.243-0.105,0.314-0.218c0.071-0.113,0.096-0.247,0.067-0.378
			C10.078,2.261,6.37,0.143,2.391,1.017c-0.27,0.06-0.44,0.326-0.381,0.596C2.918,5.75,6.626,7.87,10.606,6.994z"/>
	</g>
</g>
<g id="Outline_Icons">
	<g>
		
			<circle fill="none" stroke="#000000" stroke-linecap="round" stroke-linejoin="round" stroke-miterlimit="10" cx="12.5" cy="21.5" r="2"/>
		
			<circle fill="none" stroke="#000000" stroke-linecap="round" stroke-linejoin="round" stroke-miterlimit="10" cx="12.5" cy="10.5" r="2"/>
		
			<circle fill="none" stroke="#000000" stroke-linecap="round" stroke-linejoin="round" stroke-miterlimit="10" cx="6.5" cy="11" r="2"/>
		
			<circle fill="none" stroke="#000000" stroke-linecap="round" stroke-linejoin="round" stroke-miterlimit="10" cx="18.5" cy="11" r="2"/>
		
			<circle fill="none" stroke="#000000" stroke-linecap="round" stroke-linejoin="round" stroke-miterlimit="10" cx="15.5" cy="16.5" r="2"/>
		
			<circle fill="none" stroke="#000000" stroke-linecap="round" stroke-linejoin="round" stroke-miterlimit="10" cx="9.5" cy="16.5" r="2"/>
		
			<line fill="none" stroke="#000000" stroke-linecap="round" stroke-linejoin="round" stroke-miterlimit="10" x1="12.5" y1="6.5" x2="12.5" y2="0.5"/>
		<path fill="none" stroke="#000000" stroke-linejoin="round" stroke-miterlimit="10" d="M14.5,6.5c3.775,0.828,7.17-1.223,8-5
			C18.725,0.672,15.328,2.724,14.5,6.5z"/>
		<path fill="none" stroke="#000000" stroke-linejoin="round" stroke-miterlimit="10" d="M10.5,6.5c-3.776,0.828-7.172-1.223-8-5
			C6.276,0.672,9.67,2.724,10.5,6.5z"/>
	</g>
</g>
</svg>
