<?xml version="1.0" encoding="utf-8"?>
<!-- Generator: Adobe Illustrator 19.2.0, SVG Export Plug-In . SVG Version: 6.00 Build 0)  -->
<svg version="1.1" id="Layer_1" xmlns="http://www.w3.org/2000/svg" xmlns:xlink="http://www.w3.org/1999/xlink" x="0px" y="0px"
	 viewBox="0 0 24 24" style="enable-background:new 0 0 24 24;" xml:space="preserve">
<style type="text/css">
	.st0{display:none;}
	.st1{display:inline;}
	.st2{fill:none;stroke:#000000;stroke-linecap:round;stroke-linejoin:round;stroke-miterlimit:10;}
</style>
<g id="Filled_Icon" class="st0">
	<path class="st1" d="M23.5,23H1v-2h18.5c0.3,0,0.5-0.2,0.5-0.5v-4c0-0.3-0.2-0.5-0.5-0.5H1v-2h12.5c0.3,0,0.5-0.2,0.5-0.5v-4
		C14,9.2,13.8,9,13.5,9H1V7h12.5C13.8,7,14,6.7,14,6.5v-4C14,2.2,13.8,2,13.5,2H1V0.5C1,0.2,0.8,0,0.5,0C0.2,0,0,0.2,0,0.5v2v4v3v4
		v3v4v3C0,23.7,0.2,24,0.5,24h23c0.3,0,0.5-0.2,0.5-0.5C24,23.2,23.8,23,23.5,23z"/>
</g>
<g id="Outline_Icons">
	<g>
		<polyline class="st2" points="0.5,0.5 0.5,23.5 23.5,23.5 		"/>
		<rect x="0.5" y="16.5" class="st2" width="19" height="4"/>
		<rect x="0.5" y="9.5" class="st2" width="13" height="4"/>
		<rect x="0.5" y="2.5" class="st2" width="13" height="4"/>
	</g>
</g>
</svg>
