<?xml version="1.0" encoding="utf-8"?>
<!-- Generator: Adobe Illustrator 19.2.0, SVG Export Plug-In . SVG Version: 6.00 Build 0)  -->
<svg version="1.1" id="Layer_1" xmlns="http://www.w3.org/2000/svg" xmlns:xlink="http://www.w3.org/1999/xlink" x="0px" y="0px"
	 viewBox="0 0 24 24" style="enable-background:new 0 0 24 24;" xml:space="preserve">
<style type="text/css">
	.st0{display:none;}
	.st1{display:inline;}
	.st2{fill:none;stroke:#000000;stroke-linecap:round;stroke-linejoin:round;stroke-miterlimit:10;}
</style>
<g id="Filled_Icon" class="st0">
	<g class="st1">
		<path d="M23.5,3h-23C0.2,3,0,3.2,0,3.5v17C0,20.8,0.2,21,0.5,21h23c0.3,0,0.5-0.2,0.5-0.5v-17C24,3.2,23.8,3,23.5,3z M23,20H1V4
			h22V20z"/>
		<path d="M2.5,19h19c0.3,0,0.5-0.2,0.5-0.5v-13C22,5.2,21.8,5,21.5,5h-19C2.2,5,2,5.2,2,5.5v13C2,18.8,2.2,19,2.5,19z M17,9.5
			C17,9.2,17.2,9,17.5,9C17.8,9,18,9.2,18,9.5v7c0,0.3-0.2,0.5-0.5,0.5c-0.3,0-0.5-0.2-0.5-0.5V9.5z M15,12c0-0.3,0.2-0.5,0.5-0.5
			c0.3,0,0.5,0.2,0.5,0.5v4.5c0,0.3-0.2,0.5-0.5,0.5c-0.3,0-0.5-0.2-0.5-0.5V12z M13,7.5C13,7.2,13.2,7,13.5,7C13.8,7,14,7.2,14,7.5
			v9c0,0.3-0.2,0.5-0.5,0.5c-0.3,0-0.5-0.2-0.5-0.5V7.5z M11,14.5c0-0.3,0.2-0.5,0.5-0.5c0.3,0,0.5,0.2,0.5,0.5v2
			c0,0.3-0.2,0.5-0.5,0.5c-0.3,0-0.5-0.2-0.5-0.5V14.5z M9,13.5C9,13.2,9.2,13,9.5,13c0.3,0,0.5,0.2,0.5,0.5v3
			c0,0.3-0.2,0.5-0.5,0.5C9.2,17,9,16.8,9,16.5V13.5z M7,11.5C7,11.2,7.2,11,7.5,11C7.8,11,8,11.2,8,11.5v5C8,16.8,7.8,17,7.5,17
			C7.2,17,7,16.8,7,16.5V11.5z M5,14.5C5,14.2,5.2,14,5.5,14C5.8,14,6,14.2,6,14.5v2C6,16.8,5.8,17,5.5,17C5.2,17,5,16.8,5,16.5
			V14.5z"/>
	</g>
</g>
<g id="Outline_Icons">
	<g>
		<rect x="0.5" y="3.5" class="st2" width="23" height="17"/>
		<rect x="2.5" y="5.5" class="st2" width="19" height="13"/>
		<line class="st2" x1="5.5" y1="16.5" x2="5.5" y2="14.5"/>
		<line class="st2" x1="7.5" y1="16.5" x2="7.5" y2="11.5"/>
		<line class="st2" x1="9.5" y1="16.5" x2="9.5" y2="13.5"/>
		<line class="st2" x1="11.5" y1="16.5" x2="11.5" y2="14.5"/>
		<line class="st2" x1="17.5" y1="16.5" x2="17.5" y2="9.5"/>
		<line class="st2" x1="15.5" y1="16.5" x2="15.5" y2="12"/>
		<line class="st2" x1="13.5" y1="16.5" x2="13.5" y2="7.5"/>
	</g>
</g>
</svg>
