<?xml version="1.0" encoding="utf-8"?>
<!-- Generator: Adobe Illustrator 19.2.0, SVG Export Plug-In . SVG Version: 6.00 Build 0)  -->
<svg version="1.1" id="Layer_1" xmlns="http://www.w3.org/2000/svg" xmlns:xlink="http://www.w3.org/1999/xlink" x="0px" y="0px"
	 viewBox="0 0 24 24" style="enable-background:new 0 0 24 24;" xml:space="preserve">
<style type="text/css">
	.st0{display:none;}
	.st1{display:inline;}
	.st2{fill:none;stroke:#000000;stroke-linejoin:round;stroke-miterlimit:10;}
</style>
<g id="Filled_Icons" class="st0">
	<path class="st1" d="M21,0c-1.7,0-3,1.3-3,3c0,1.1,0.6,2.1,1.5,2.6L17,12.5c-0.2,0-0.3,0-0.5,0c-0.7,0-1.4,0.3-1.9,0.7L12.1,11
		c0.3-0.5,0.4-1,0.4-1.5c0-1.7-1.3-3-3-3c-1.7,0-3,1.3-3,3c0,0.9,0.4,1.8,1.1,2.3L4,18.2C3.7,18.1,3.4,18,3,18c-1.7,0-3,1.3-3,3
		c0,1.7,1.3,3,3,3c1.7,0,3-1.3,3-3c0-0.9-0.4-1.8-1.1-2.3l3.6-6.4c0.3,0.1,0.7,0.2,1,0.2c0.7,0,1.4-0.3,1.9-0.7l2.5,2.2
		c-0.3,0.5-0.4,1-0.4,1.5c0,1.7,1.3,3,3,3c1.7,0,3-1.3,3-3c0-1.1-0.6-2.1-1.5-2.6L20.5,6c0.2,0,0.3,0,0.5,0c1.7,0,3-1.3,3-3
		C24,1.3,22.7,0,21,0z"/>
</g>
<g id="Outline_Icons">
	<g>
		<circle class="st2" cx="3" cy="21" r="2.5"/>
		<circle class="st2" cx="9.5" cy="9.5" r="2.5"/>
		<circle class="st2" cx="16.5" cy="15.5" r="2.5"/>
		<circle class="st2" cx="21" cy="3" r="2.5"/>
		<line class="st2" x1="4.2" y1="18.8" x2="8.3" y2="11.7"/>
		<line class="st2" x1="11.4" y1="11.1" x2="14.6" y2="13.9"/>
		<line class="st2" x1="17.3" y1="13.1" x2="20.2" y2="5.4"/>
	</g>
</g>
</svg>
