<?xml version="1.0" encoding="utf-8"?>
<!-- Generator: Adobe Illustrator 19.2.0, SVG Export Plug-In . SVG Version: 6.00 Build 0)  -->
<svg version="1.1" id="Layer_1" xmlns="http://www.w3.org/2000/svg" xmlns:xlink="http://www.w3.org/1999/xlink" x="0px" y="0px"
	 viewBox="0 0 24 24" style="enable-background:new 0 0 24 24;" xml:space="preserve">
<style type="text/css">
	.st0{display:none;}
	.st1{display:inline;}
	.st2{fill:none;stroke:#000000;stroke-linecap:round;stroke-linejoin:round;stroke-miterlimit:10;}
</style>
<g id="Filled_Icon" class="st0">
	<g class="st1">
		<g>
			<path d="M23.5,23h-23C0.2,23,0,22.8,0,22.5v-20C0,2.2,0.2,2,0.5,2C0.8,2,1,2.2,1,2.5V22h22.5c0.3,0,0.5,0.2,0.5,0.5
				C24,22.8,23.8,23,23.5,23z"/>
		</g>
		<g>
			<path d="M16,20c-1.7,0-3.1-1.2-3.4-2.9l-0.2-1c0-0.3,0.1-0.5,0.4-0.6c0.3,0,0.5,0.1,0.6,0.4l0.2,1c0.2,1.2,1.2,2,2.5,2
				c0.3,0,0.5,0.2,0.5,0.5C16.5,19.8,16.3,20,16,20z"/>
		</g>
		<g>
			<path d="M3,20c-0.3,0-0.5-0.2-0.5-0.5C2.5,19.2,2.7,19,3,19c1.2,0,2.2-0.9,2.5-2l1.2-6.6C6.9,9,8.1,8,9.5,8
				c0.6,0,1.2,0.2,1.7,0.6c0.2,0.2,0.3,0.5,0.1,0.7c-0.2,0.2-0.5,0.3-0.7,0.1C10.3,9.1,9.9,9,9.5,9c-0.9,0-1.7,0.7-1.9,1.6l-1.2,6.6
				C6.1,18.8,4.7,20,3,20z"/>
		</g>
		<g>
			<path d="M21,20c-1.7,0-3.1-1.2-3.4-2.9l-1.2-6.6C16.2,9.7,15.4,9,14.5,9s-1.7,0.7-1.9,1.6l-1.2,6.6C11.1,18.8,9.7,20,8,20
				c-0.3,0-0.5-0.2-0.5-0.5C7.5,19.2,7.7,19,8,19c1.2,0,2.2-0.9,2.5-2l1.2-6.6C11.9,9,13.1,8,14.5,8c1.4,0,2.6,1,2.8,2.4l1.2,6.6
				c0.2,1.2,1.2,2,2.5,2c0.3,0,0.5,0.2,0.5,0.5C21.5,19.8,21.3,20,21,20z"/>
		</g>
	</g>
</g>
<g id="Outline_Icons">
	<g>
		<polyline class="st2" points="23.5,22.5 0.5,22.5 0.5,2.5 		"/>
		<path class="st2" d="M12.9,16l0.2,1c0.3,1.4,1.5,2.5,2.9,2.5"/>
		<path class="st2" d="M3,19.5c1.4,0,2.7-1,2.9-2.5l1.2-6.6c0.2-1.1,1.2-2,2.4-2c0.5,0,1,0.2,1.4,0.5"/>
		<path class="st2" d="M8,19.5c1.4,0,2.7-1,2.9-2.5l1.2-6.6c0.2-1.1,1.2-2,2.4-2c1.2,0,2.2,0.8,2.4,2l1.2,6.6
			c0.3,1.4,1.5,2.5,2.9,2.5"/>
	</g>
</g>
</svg>
