<?xml version="1.0" encoding="utf-8"?>
<!-- Generator: Adobe Illustrator 19.2.0, SVG Export Plug-In . SVG Version: 6.00 Build 0)  -->
<svg version="1.1" id="Layer_1" xmlns="http://www.w3.org/2000/svg" xmlns:xlink="http://www.w3.org/1999/xlink" x="0px" y="0px"
	 viewBox="0 0 24 24" style="enable-background:new 0 0 24 24;" xml:space="preserve">
<style type="text/css">
	.st0{display:none;}
	.st1{display:inline;}
	.st2{fill:none;stroke:#000000;stroke-linecap:round;stroke-linejoin:round;stroke-miterlimit:10;}
</style>
<g id="Filled_Icon" class="st0">
	<g class="st1">
		<path d="M23.5,23H23v-2.5c0-0.3-0.2-0.5-0.5-0.5h-3c-0.3,0-0.5,0.2-0.5,0.5V23h-2v-6.5c0-0.3-0.2-0.5-0.5-0.5h-3
			c-0.3,0-0.5,0.2-0.5,0.5V23h-2V12.5c0-0.3-0.2-0.5-0.5-0.5h-3C7.2,12,7,12.2,7,12.5V23H5V8.5C5,8.2,4.8,8,4.5,8h-3
			C1.2,8,1,8.2,1,8.5V23H0.5C0.2,23,0,23.2,0,23.5C0,23.8,0.2,24,0.5,24h23c0.3,0,0.5-0.2,0.5-0.5C24,23.2,23.8,23,23.5,23z"/>
		<path d="M19.6,13.2l-2.7,0.4c-0.3,0-0.5,0.3-0.4,0.6c0,0.2,0.2,0.4,0.5,0.4c0,0,0,0,0.1,0l4-0.5c0,0,0,0,0,0
			c0.3,0,0.4-0.3,0.4-0.6l-0.5-4C21,9.2,20.7,9,20.4,9C20.2,9,20,9.3,20,9.6l0.4,2.9L3.3,1.1C3,0.9,2.7,1,2.6,1.2
			C2.4,1.4,2.5,1.7,2.7,1.9L19.6,13.2z"/>
	</g>
</g>
<g id="Outline_Icons">
	<g>
		<line class="st2" x1="23.5" y1="23.5" x2="0.5" y2="23.5"/>
		<rect x="19.5" y="20.5" class="st2" width="3" height="3"/>
		<rect x="13.5" y="16.5" class="st2" width="3" height="7"/>
		<rect x="7.5" y="12.5" class="st2" width="3" height="11"/>
		<rect x="1.5" y="8.5" class="st2" width="3" height="15"/>
		<line class="st2" x1="21" y1="13.5" x2="3" y2="1.5"/>
		<polyline class="st2" points="20.5,9.5 21,13.5 17,14 		"/>
	</g>
</g>
</svg>
