<?xml version="1.0" encoding="utf-8"?>
<!-- Generator: Adobe Illustrator 19.2.0, SVG Export Plug-In . SVG Version: 6.00 Build 0)  -->
<svg version="1.1" id="Layer_1" xmlns="http://www.w3.org/2000/svg" xmlns:xlink="http://www.w3.org/1999/xlink" x="0px" y="0px"
	 viewBox="0 0 24 24" style="enable-background:new 0 0 24 24;" xml:space="preserve">
<style type="text/css">
	.st0{display:none;}
	.st1{display:inline;}
	.st2{fill:none;stroke:#000000;stroke-linecap:round;stroke-linejoin:round;stroke-miterlimit:10;}
</style>
<g id="Filled_Icon" class="st0">
	<g class="st1">
		<path d="M23.5,3h-23C0.2,3,0,3.2,0,3.5v17C0,20.8,0.2,21,0.5,21h23c0.3,0,0.5-0.2,0.5-0.5v-17C24,3.2,23.8,3,23.5,3z M23,20H1V4
			h22V20z"/>
		<path d="M2.5,19h19c0.3,0,0.5-0.2,0.5-0.5v-13C22,5.2,21.8,5,21.5,5h-19C2.2,5,2,5.2,2,5.5v13C2,18.8,2.2,19,2.5,19z M4.1,15.2
			l3-5c0.2-0.3,0.7-0.3,0.9,0l2.6,4.4l2-2.5c0.2-0.2,0.6-0.2,0.8,0l2,2.4l3.6-6.4c0.1-0.2,0.4-0.3,0.7-0.2c0.2,0.1,0.3,0.4,0.2,0.7
			l-4,7c-0.1,0.1-0.2,0.2-0.4,0.2c-0.2,0-0.3-0.1-0.4-0.2L13,13.3l-2.1,2.5c-0.1,0.1-0.3,0.2-0.4,0.2c-0.2,0-0.3-0.1-0.4-0.2
			l-2.6-4.3l-2.6,4.3C4.8,15.9,4.7,16,4.5,16c-0.1,0-0.2,0-0.3-0.1C4,15.8,3.9,15.5,4.1,15.2z"/>
	</g>
</g>
<g id="Outline_Icons">
	<g>
		<rect x="0.5" y="3.5" class="st2" width="23" height="17"/>
		<rect x="2.5" y="5.5" class="st2" width="19" height="13"/>
		<polyline class="st2" points="4.5,15.5 7.5,10.5 10.5,15.5 13,12.5 15.5,15.5 19.5,8.5 		"/>
	</g>
</g>
</svg>
