<?xml version="1.0" encoding="utf-8"?>
<!-- Generator: Adobe Illustrator 19.2.0, SVG Export Plug-In . SVG Version: 6.00 Build 0)  -->
<svg version="1.1" id="Layer_1" xmlns="http://www.w3.org/2000/svg" xmlns:xlink="http://www.w3.org/1999/xlink" x="0px" y="0px"
	 viewBox="0 0 24 24" style="enable-background:new 0 0 24 24;" xml:space="preserve">
<style type="text/css">
	.st0{display:none;}
	.st1{display:inline;}
	.st2{fill:none;stroke:#000000;stroke-linecap:round;stroke-linejoin:round;stroke-miterlimit:10;}
	.st3{fill:none;stroke:#000000;stroke-linejoin:round;stroke-miterlimit:10;}
</style>
<g id="Filled_Icons" class="st0">
	<g class="st1">
		<path d="M19.5,0h-15C2,0,0,2,0,4.5C0,7.1,2.1,9,4.5,9C6.2,9,8,7.2,8,5.5C8,4.6,7.2,3,5.5,3C4.3,3,4,4.3,4,4.5C4,4.8,3.8,5,3.5,5
			C3.2,5,3,4.8,3,4.5C3,3.7,3.8,2,5.5,2c1.8,0,2.9,1.3,3.3,2.5h6.4C15.6,3.3,16.7,2,18.5,2C20.2,2,21,3.7,21,4.5
			C21,4.8,20.8,5,20.5,5C20.2,5,20,4.8,20,4.5C20,4.3,19.7,3,18.5,3C16.8,3,16,4.6,16,5.5C16,7.2,17.8,9,19.5,9
			C21.9,9,24,7.1,24,4.5C24,2,22,0,19.5,0z"/>
		<path d="M10.5,9h-3C7.2,9,7,9.2,7,9.5v14C7,23.8,7.2,24,7.5,24h3c0.3,0,0.5-0.2,0.5-0.5v-14C11,9.2,10.8,9,10.5,9z"/>
		<path d="M16.5,9h-3C13.2,9,13,9.2,13,9.5v14c0,0.3,0.2,0.5,0.5,0.5h3c0.3,0,0.5-0.2,0.5-0.5v-14C17,9.2,16.8,9,16.5,9z"/>
		<path d="M15.9,8C15.3,7.3,15,6.4,15,5.5c0-0.2,0-0.3,0-0.5H9c0,0.2,0,0.3,0,0.5C9,6.4,8.7,7.3,8.1,8H15.9z"/>
	</g>
</g>
<g id="Outline_Icons">
	<g>
		<path class="st2" d="M19.5,4.5c0-0.6-0.4-1-1-1c-1.1,0-2,0.9-2,2c0,1.7,1.3,3,3,3c2.2,0,4-1.8,4-4c0-2.2-1.8-4-4-4h-15
			c-2.2,0-4,1.8-4,4c0,2.2,1.8,4,4,4c1.7,0,3-1.3,3-3c0-1.1-0.9-2-2-2c-0.6,0-1,0.4-1,1"/>
		<line class="st2" x1="7.5" y1="7.5" x2="7.5" y2="23.5"/>
		<line class="st2" x1="16.5" y1="7.5" x2="16.5" y2="23.5"/>
		<line class="st2" x1="10.5" y1="7.5" x2="10.5" y2="23.5"/>
		<line class="st2" x1="13.5" y1="7.5" x2="13.5" y2="23.5"/>
		<line class="st3" x1="6.7" y1="7.5" x2="17.3" y2="7.5"/>
		<line class="st2" x1="7.5" y1="5.5" x2="16.5" y2="5.5"/>
	</g>
</g>
</svg>
