<?xml version="1.0" encoding="utf-8"?>
<!-- Generator: Adobe Illustrator 19.2.0, SVG Export Plug-In . SVG Version: 6.00 Build 0)  -->
<svg version="1.1" id="Layer_1" xmlns="http://www.w3.org/2000/svg" xmlns:xlink="http://www.w3.org/1999/xlink" x="0px" y="0px"
	 viewBox="0 0 24 24" enable-background="new 0 0 24 24" xml:space="preserve">
<g id="Filled_Icons" display="none">
	<g display="inline">
		<path d="M20.5,0.006H7.326l9.488,2.033C17.506,2.188,18,2.798,18,3.506v17.5h2.5c0.275,0,0.5-0.225,0.5-0.5v-20
			C21,0.229,20.775,0.006,20.5,0.006z"/>
		<path d="M16.603,3.017l-13.999-3C2.461-0.016,2.303,0.023,2.186,0.118C2.069,0.213,2,0.356,2,0.506v20
			c0,0.237,0.165,0.439,0.396,0.489l14,3c0.033,0.009,0.068,0.011,0.104,0.011c0.113,0,0.225-0.037,0.314-0.111
			C16.932,23.8,17,23.656,17,23.506v-20C17,3.271,16.835,3.066,16.603,3.017z M10,19.506c0,0.275-0.224,0.5-0.5,0.5
			c-0.276,0-0.5-0.223-0.5-0.5v-5.5c0-0.277,0.224-0.5,0.5-0.5c0.276,0,0.5,0.223,0.5,0.5V19.506z M14.398,16.807
			c-0.096,0.127-0.242,0.199-0.398,0.199c-0.02,0-0.037-0.001-0.057-0.002L11,16.678v-2.671c0-0.829-0.672-1.5-1.5-1.5
			c-0.828,0-1.5,0.671-1.5,1.499v2.336l-3.056-0.338c-0.158-0.018-0.3-0.109-0.379-0.25c-0.079-0.139-0.087-0.309-0.021-0.453
			l4.5-9.999c0.083-0.182,0.304-0.296,0.465-0.294c0.199,0.003,0.378,0.125,0.454,0.31l4.5,11
			C14.529,16.481,14.505,16.667,14.398,16.807z"/>
	</g>
</g>
<g id="Outline_Icons">
	<g>
		<polygon fill="none" stroke="#000000" stroke-linecap="round" stroke-linejoin="round" stroke-miterlimit="10" points="16.5,23.5 
			2.5,20.5 2.5,0.5 16.5,3.5 		"/>
		<polyline fill="none" stroke="#000000" stroke-linecap="round" stroke-linejoin="round" stroke-miterlimit="10" points="
			16.5,20.5 20.5,20.5 20.5,0.5 2.5,0.5 		"/>
		<g>
			<polygon fill="none" stroke="#000000" stroke-linejoin="round" stroke-miterlimit="10" points="9.5,5.5 5,15.5 14,16.5 			"/>
			
				<line fill="none" stroke="#000000" stroke-linecap="round" stroke-linejoin="round" stroke-miterlimit="10" x1="9.5" y1="14" x2="9.5" y2="19.5"/>
		</g>
	</g>
</g>
</svg>
