<?xml version="1.0" encoding="utf-8"?>
<!-- Generator: Adobe Illustrator 19.2.0, SVG Export Plug-In . SVG Version: 6.00 Build 0)  -->
<svg version="1.1" id="Layer_1" xmlns="http://www.w3.org/2000/svg" xmlns:xlink="http://www.w3.org/1999/xlink" x="0px" y="0px"
	 viewBox="0 0 24 24" enable-background="new 0 0 24 24" xml:space="preserve">
<g id="Filled_Icons" display="none">
	<g display="inline">
		<path d="M17.961,19.006c1.398-3.301,1.376-6.642-0.061-10H5.131c-1.42,3.36-1.445,6.701-0.062,10H17.961z"/>
		<path d="M17.435,8.006c-0.596-1.166-1.367-2.333-2.304-3.5H7.871c-0.926,1.168-1.69,2.335-2.278,3.5H17.435z"/>
		<path d="M20,0.006c-0.95,0-1.811,0.383-2.441,1H6.417c-0.106,0-0.21,0.034-0.295,0.097C2.724,3.589-1.66,11.787,1.696,19.273
			c0.11,0.248,0.404,0.367,0.66,0.252c0.252-0.113,0.365-0.409,0.252-0.662c-3.05-6.802,0.915-14.488,3.976-16.857H9v1.5h5v-1.5
			h2.852c-0.219,0.456-0.352,0.96-0.352,1.5c0,1.93,1.57,3.5,3.5,3.5c1.93,0,3.5-1.57,3.5-3.5C23.5,1.577,21.93,0.006,20,0.006z
			 M20,6.006c-1.379,0-2.5-1.122-2.5-2.5c0-1.378,1.121-2.5,2.5-2.5c1.379,0,2.5,1.122,2.5,2.5C22.5,4.884,21.379,6.006,20,6.006z"
			/>
		<path d="M5.541,20.006c0.649,1.282,1.503,2.557,2.578,3.823c0.095,0.112,0.234,0.177,0.381,0.177h6
			c0.146,0,0.284-0.064,0.38-0.175c1.086-1.269,1.948-2.542,2.604-3.825H5.541z"/>
	</g>
</g>
<g id="Outline_Icons">
	<g>
		<path fill="none" stroke="#000000" stroke-linejoin="round" stroke-miterlimit="10" d="M8.5,4.5h6c5.346,6.459,5.32,12.792,0,19
			h-6C3.207,17.266,3.238,10.933,8.5,4.5z"/>
		<path fill="none" stroke="#000000" stroke-linecap="round" stroke-linejoin="round" stroke-miterlimit="10" d="M2.152,19.063
			C-1,12.032,3,4,6.417,1.5h11.349"/>
		
			<circle fill="none" stroke="#000000" stroke-linecap="round" stroke-linejoin="round" stroke-miterlimit="10" cx="20" cy="3.5" r="3"/>
		
			<line fill="none" stroke="#000000" stroke-linecap="round" stroke-linejoin="round" stroke-miterlimit="10" x1="5.896" y1="8.5" x2="17.132" y2="8.5"/>
		
			<line fill="none" stroke="#000000" stroke-linecap="round" stroke-linejoin="round" stroke-miterlimit="10" x1="5.841" y1="19.5" x2="17.185" y2="19.5"/>
		
			<line fill="none" stroke="#000000" stroke-linecap="round" stroke-linejoin="round" stroke-miterlimit="10" x1="9.5" y1="1.5" x2="9.5" y2="4.5"/>
		
			<line fill="none" stroke="#000000" stroke-linecap="round" stroke-linejoin="round" stroke-miterlimit="10" x1="13.5" y1="1.5" x2="13.5" y2="4.5"/>
	</g>
</g>
</svg>
