<?xml version="1.0" encoding="utf-8"?>
<!-- Generator: Adobe Illustrator 19.2.0, SVG Export Plug-In . SVG Version: 6.00 Build 0)  -->
<svg version="1.1" id="Layer_1" xmlns="http://www.w3.org/2000/svg" xmlns:xlink="http://www.w3.org/1999/xlink" x="0px" y="0px"
	 viewBox="0 0 24 24" style="enable-background:new 0 0 24 24;" xml:space="preserve">
<style type="text/css">
	.st0{display:none;}
	.st1{display:inline;}
	.st2{fill:none;stroke:#000000;stroke-linecap:round;stroke-linejoin:round;stroke-miterlimit:10;}
</style>
<g id="Filled_Icon" class="st0">
	<g class="st1">
		<g>
			<rect x="7" y="7" width="5" height="6"/>
			<path d="M13,6h6V2.5C19,1.1,17.9,0,16.5,0H13V6z"/>
			<rect x="7" width="5" height="6"/>
			<rect y="7" width="6" height="6"/>
			<path d="M13,7v6h3.1c0.6-0.2,1.2-0.3,1.9-0.3c0.3,0,0.7,0,1,0.1V7H13z"/>
			<path d="M6,14H0v3.5C0,18.9,1.1,20,2.5,20H6V14z"/>
			<path d="M12,20v-1.9c-0.1-0.1-0.1-0.2-0.2-0.2c-0.2-0.3-0.3-0.6-0.3-0.8c-0.1-0.4,0.1-0.8,0.3-1.1c0,0,0.1-0.1,0.2-0.2V14H7v6H12
				z"/>
			<path d="M6,6V0H2.5C1.1,0,0,1.1,0,2.5V6H6z"/>
		</g>
		<g>
			<g>
				<path d="M14.1,18.8l5-5c-0.4-0.1-0.7-0.1-1.1-0.1c-3,0-5.3,2.9-5.4,3c-0.1,0.1-0.1,0.2-0.1,0.4c0,0.1,0,0.2,0.1,0.3
					C12.7,17.4,13.2,18.1,14.1,18.8z"/>
				<path d="M23.4,16.7c0-0.1-0.6-0.7-1.5-1.4l-5,5c0.3,0.1,0.6,0.1,0.9,0.1c0,0,0.1,0,0.1,0c3,0,5.3-2.9,5.4-3
					c0.1-0.1,0.1-0.2,0.1-0.3C23.5,16.9,23.5,16.8,23.4,16.7z"/>
			</g>
			<g>
				<path d="M14.1,21.4c-0.1,0-0.3,0-0.4-0.1c-0.2-0.2-0.2-0.5,0-0.7l7.8-7.8c0.2-0.2,0.5-0.2,0.7,0c0.2,0.2,0.2,0.5,0,0.7l-7.8,7.8
					C14.4,21.4,14.2,21.4,14.1,21.4z"/>
			</g>
		</g>
	</g>
</g>
<g id="Outline_Icons">
	<g>
		<g>
			<path class="st2" d="M11.5,19.5h-9c-1.1,0-2-0.9-2-2v-15c0-1.1,0.9-2,2-2h14c1.1,0,2,0.9,2,2V11"/>
			<line class="st2" x1="0.5" y1="6.5" x2="18.5" y2="6.5"/>
			<line class="st2" x1="0.5" y1="13.5" x2="12.5" y2="13.5"/>
			<line class="st2" x1="12.5" y1="0.5" x2="12.5" y2="13.5"/>
			<line class="st2" x1="6.5" y1="0.5" x2="6.5" y2="19.5"/>
		</g>
		<path class="st2" d="M22,16c0.6,0.6,1,1,1,1s-2.2,2.8-5,2.8"/>
		<path class="st2" d="M14,18c-0.6-0.6-1-1-1-1s2.2-2.8,5-2.8"/>
		<line class="st2" x1="21.9" y1="13.1" x2="14.1" y2="20.9"/>
	</g>
</g>
</svg>
