<?xml version="1.0" encoding="utf-8"?>
<!-- Generator: Adobe Illustrator 19.2.0, SVG Export Plug-In . SVG Version: 6.00 Build 0)  -->
<svg version="1.1" id="Layer_1" xmlns="http://www.w3.org/2000/svg" xmlns:xlink="http://www.w3.org/1999/xlink" x="0px" y="0px"
	 viewBox="0 0 24 24" style="enable-background:new 0 0 24 24;" xml:space="preserve">
<style type="text/css">
	.st0{display:none;}
	.st1{display:inline;}
	.st2{fill:none;stroke:#000000;stroke-linecap:round;stroke-linejoin:round;stroke-miterlimit:10;}
</style>
<g id="Filled_Icon" class="st0">
	<path class="st1" d="M23,13c0.6,0,1-0.4,1-1c0-0.6-0.4-1-1-1h-5V8h5c0.6,0,1-0.4,1-1c0-0.6-0.4-1-1-1h-5V1c0-0.6-0.4-1-1-1
		c-0.6,0-1,0.4-1,1v5h-3V1c0-0.6-0.4-1-1-1c-0.6,0-1,0.4-1,1v5H8V1c0-0.6-0.4-1-1-1C6.4,0,6,0.4,6,1v5H1C0.4,6,0,6.4,0,7
		c0,0.6,0.4,1,1,1h5v3H1c-0.6,0-1,0.4-1,1c0,0.6,0.4,1,1,1h5v3H1c-0.6,0-1,0.4-1,1c0,0.6,0.4,1,1,1h5v5c0,0.6,0.4,1,1,1
		c0.6,0,1-0.4,1-1v-5h3v5c0,0.6,0.4,1,1,1c0.6,0,1-0.4,1-1v-5h3v5c0,0.6,0.4,1,1,1c0.6,0,1-0.4,1-1v-5h5c0.6,0,1-0.4,1-1
		c0-0.6-0.4-1-1-1h-5v-3H23z M11,16H8v-3h3V16z M11,11H8V8h3V11z M16,16h-3v-3h3V16z M16,11h-3V8h3V11z"/>
</g>
<g id="Outline_Icons">
	<g>
		<line class="st2" x1="6.5" y1="0.5" x2="6.5" y2="23.5"/>
		<line class="st2" x1="11.5" y1="0.5" x2="11.5" y2="23.5"/>
		<line class="st2" x1="16.5" y1="0.5" x2="16.5" y2="23.5"/>
		<line class="st2" x1="23.5" y1="6.5" x2="0.5" y2="6.5"/>
		<line class="st2" x1="23.5" y1="11.5" x2="0.5" y2="11.5"/>
		<line class="st2" x1="23.5" y1="16.5" x2="0.5" y2="16.5"/>
	</g>
</g>
</svg>
