<?xml version="1.0" encoding="utf-8"?>
<!-- Generator: Adobe Illustrator 19.2.0, SVG Export Plug-In . SVG Version: 6.00 Build 0)  -->
<svg version="1.1" id="Layer_1" xmlns="http://www.w3.org/2000/svg" xmlns:xlink="http://www.w3.org/1999/xlink" x="0px" y="0px"
	 viewBox="0 0 24 24" style="enable-background:new 0 0 24 24;" xml:space="preserve">
<style type="text/css">
	.st0{display:none;}
	.st1{display:inline;}
	.st2{fill:none;stroke:#000000;stroke-linecap:round;stroke-linejoin:round;stroke-miterlimit:10;}
	.st3{fill:none;stroke:#000000;stroke-linejoin:round;stroke-miterlimit:10;}
</style>
<g id="Filled_Icon" class="st0">
	<g class="st1">
		<g>
			<rect x="7" y="14" width="5" height="6"/>
			<rect y="7" width="6" height="6"/>
			<rect x="7" width="5" height="6"/>
			<path d="M13,6h6V2.5C19,1.1,17.9,0,16.5,0H13V6z"/>
			<path d="M13,7v6h2.1c1-0.6,2.2-1,3.4-1c0.2,0,0.3,0,0.5,0V7H13z"/>
			<path d="M6,14H0v3.5C0,18.9,1.1,20,2.5,20H6V14z"/>
			<rect x="7" y="7" width="5" height="6"/>
			<path d="M6,6V0H2.5C1.1,0,0,1.1,0,2.5V6H6z"/>
		</g>
		<path d="M18.5,13c-3,0-5.5,2.5-5.5,5.5c0,3,2.5,5.5,5.5,5.5c3,0,5.5-2.5,5.5-5.5C24,15.5,21.5,13,18.5,13z M21,19h-5
			c-0.3,0-0.5-0.2-0.5-0.5c0-0.3,0.2-0.5,0.5-0.5h5c0.3,0,0.5,0.2,0.5,0.5C21.5,18.8,21.3,19,21,19z"/>
	</g>
</g>
<g id="Outline_Icons">
	<g>
		<g>
			<path class="st2" d="M11.5,19.5h-9c-1.1,0-2-0.9-2-2v-15c0-1.1,0.9-2,2-2h14c1.1,0,2,0.9,2,2V11"/>
			<line class="st2" x1="0.5" y1="6.5" x2="18.5" y2="6.5"/>
			<line class="st2" x1="0.5" y1="13.5" x2="12.5" y2="13.5"/>
			<line class="st2" x1="12.5" y1="0.5" x2="12.5" y2="13.5"/>
			<line class="st2" x1="6.5" y1="0.5" x2="6.5" y2="19.5"/>
		</g>
		<circle class="st3" cx="18.5" cy="18.5" r="5"/>
		<line class="st2" x1="21" y1="18.5" x2="16" y2="18.5"/>
	</g>
</g>
</svg>
