<?xml version="1.0" encoding="utf-8"?>
<!-- Generator: Adobe Illustrator 19.2.0, SVG Export Plug-In . SVG Version: 6.00 Build 0)  -->
<svg version="1.1" id="Layer_1" xmlns="http://www.w3.org/2000/svg" xmlns:xlink="http://www.w3.org/1999/xlink" x="0px" y="0px"
	 viewBox="0 0 24 24" style="enable-background:new 0 0 24 24;" xml:space="preserve">
<style type="text/css">
	.st0{display:none;}
	.st1{display:inline;}
	.st2{fill:none;stroke:#000000;stroke-linecap:round;stroke-linejoin:round;stroke-miterlimit:10;}
	.st3{fill:none;stroke:#000000;stroke-linejoin:round;stroke-miterlimit:10;}
</style>
<g id="Filled_Icon" class="st0">
	<g class="st1">
		<g>
			<rect y="7" width="6" height="6"/>
			<rect x="13" y="7" width="6" height="6"/>
			<path d="M13,6h6V2.5C19,1.1,17.9,0,16.5,0H13V6z"/>
			<rect x="7" y="14" width="5" height="6"/>
			<rect x="7" y="7" width="5" height="6"/>
			<rect x="7" width="5" height="6"/>
			<path d="M13,14v2.7l0.9-1.6c0.2-0.4,0.5-0.6,0.9-0.7c0.4-0.1,0.8,0,1.1,0.2l0.1,0v-0.1c0-0.2,0-0.4,0.1-0.5L13,14L13,14z"/>
			<path d="M6,14H0v3.5C0,18.9,1.1,20,2.5,20H6V14z"/>
			<path d="M6,6V0H2.5C1.1,0,0,1.1,0,2.5V6H6z"/>
		</g>
		<path d="M23.3,19.9l-0.7-0.4c0-0.2,0-0.4,0-0.6c0-0.2,0-0.4,0-0.6l0.7-0.4c0.2-0.1,0.3-0.4,0.2-0.7l-1-1.7
			c-0.1-0.2-0.4-0.3-0.7-0.2L21,15.8c-0.3-0.2-0.6-0.4-1-0.6v-0.7c0-0.3-0.2-0.5-0.5-0.5h-2c-0.3,0-0.5,0.2-0.5,0.5v0.7
			c-0.3,0.1-0.6,0.3-0.9,0.5l-0.7-0.4c-0.1-0.1-0.3-0.1-0.4-0.1c-0.1,0-0.2,0.1-0.3,0.2l-1,1.7c-0.1,0.2-0.1,0.5,0.2,0.7l0.7,0.4
			c0,0.2,0,0.4,0,0.6c0,0.2,0,0.4,0,0.6L14,19.9c-0.2,0.1-0.3,0.4-0.2,0.7l1,1.7c0.1,0.1,0.2,0.2,0.3,0.2c0.1,0,0.3,0,0.4-0.1
			l0.6-0.4c0.3,0.2,0.6,0.4,0.9,0.5v0.9c0,0.3,0.2,0.5,0.5,0.5h2c0.3,0,0.5-0.2,0.5-0.5v-0.9c0.4-0.1,0.7-0.3,1-0.6l0.7,0.4
			c0.2,0.1,0.5,0.1,0.7-0.2l1-1.7c0.1-0.1,0.1-0.2,0.1-0.4C23.5,20.1,23.4,20,23.3,19.9z M18.6,20.4c-0.8,0-1.5-0.7-1.5-1.5
			c0-0.8,0.7-1.5,1.5-1.5c0.8,0,1.5,0.7,1.5,1.5C20.1,19.8,19.5,20.4,18.6,20.4z"/>
	</g>
</g>
<g id="Outline_Icons">
	<g>
		<g>
			<path class="st2" d="M12,19.5l-9.5,0c-1.1,0-2-0.9-2-2v-15c0-1.1,0.9-2,2-2h14c1.1,0,2,0.9,2,2V12"/>
			<line class="st2" x1="0.5" y1="6.5" x2="18.5" y2="6.5"/>
			<line class="st2" x1="0.5" y1="13.5" x2="12.5" y2="13.5"/>
			<line class="st2" x1="12.5" y1="0.5" x2="12.5" y2="13.5"/>
			<line class="st2" x1="6.5" y1="0.5" x2="6.5" y2="19.5"/>
		</g>
		<circle class="st3" cx="18.6" cy="18.9" r="1.5"/>
		<path class="st3" d="M22.1,18.9c0-0.3,0-0.5-0.1-0.8l1-0.6l-1-1.7l-1,0.6c-0.4-0.4-1-0.7-1.5-0.8v-1.1h-2v1.1
			c-0.5,0.2-1,0.4-1.3,0.8l-1-0.6l-1,1.7l1,0.6c-0.1,0.3-0.1,0.5-0.1,0.8c0,0.3,0,0.5,0.1,0.8l-1,0.6l1,1.7l0.9-0.6
			c0.4,0.4,0.9,0.7,1.4,0.8v1.2h2v-1.2c0.5-0.2,1.1-0.4,1.5-0.8l1,0.6l1-1.7l-1-0.6C22.1,19.5,22.1,19.2,22.1,18.9z"/>
	</g>
</g>
</svg>
