<?xml version="1.0" encoding="utf-8"?>
<!-- Generator: Adobe Illustrator 19.2.0, SVG Export Plug-In . SVG Version: 6.00 Build 0)  -->
<svg version="1.1" id="Layer_1" xmlns="http://www.w3.org/2000/svg" xmlns:xlink="http://www.w3.org/1999/xlink" x="0px" y="0px"
	 viewBox="0 0 24 24" style="enable-background:new 0 0 24 24;" xml:space="preserve">
<style type="text/css">
	.st0{display:none;}
	.st1{display:inline;}
	.st2{fill:none;stroke:#000000;stroke-linecap:round;stroke-linejoin:round;stroke-miterlimit:10;}
</style>
<g id="Filled_Icon" class="st0">
	<g class="st1">
		<g>
			<rect x="7" width="5" height="6"/>
			<rect y="7" width="6" height="6"/>
			<path d="M13,7v6h3.1l0.6-1.2c0.3-0.5,0.8-0.8,1.3-0.8c0.4,0,0.7,0.2,1,0.4V7H13z"/>
			<path d="M13,6h6V2.5C19,1.1,17.9,0,16.5,0H13V6z"/>
			<path d="M6,14H0v3.5C0,18.9,1.1,20,2.5,20H6V14z"/>
			<polygon points="13,14 13,19.1 15.6,14 			"/>
			<rect x="7" y="7" width="5" height="6"/>
			<path d="M6,6V0H2.5C1.1,0,0,1.1,0,2.5V6H6z"/>
			<rect x="7" y="14" width="5" height="6"/>
		</g>
		<path d="M23.9,23.2l-5.4-10.9c-0.2-0.3-0.7-0.3-0.9,0l-5.5,11c-0.1,0.2-0.1,0.3,0,0.5c0.1,0.1,0.3,0.2,0.4,0.2h11c0,0,0,0,0,0
			c0.3,0,0.5-0.2,0.5-0.5C24,23.4,24,23.3,23.9,23.2z M18,22c-0.3,0-0.5-0.2-0.5-0.5c0-0.3,0.2-0.5,0.5-0.5c0.3,0,0.5,0.2,0.5,0.5
			C18.5,21.8,18.3,22,18,22z M18.5,20c0,0.3-0.2,0.5-0.5,0.5c-0.3,0-0.5-0.2-0.5-0.5v-3c0-0.3,0.2-0.5,0.5-0.5
			c0.3,0,0.5,0.2,0.5,0.5V20z"/>
	</g>
</g>
<g id="Outline_Icons">
	<g>
		<g>
			<path class="st2" d="M11.5,19.5h-9c-1.1,0-2-0.9-2-2v-15c0-1.1,0.9-2,2-2h14c1.1,0,2,0.9,2,2V10"/>
			<line class="st2" x1="0.5" y1="6.5" x2="18.5" y2="6.5"/>
			<line class="st2" x1="0.5" y1="13.5" x2="12.5" y2="13.5"/>
			<line class="st2" x1="12.5" y1="0.5" x2="12.5" y2="13.5"/>
			<line class="st2" x1="6.5" y1="0.5" x2="6.5" y2="19.5"/>
		</g>
		<g>
			<polygon class="st2" points="23.5,23.5 12.5,23.5 18,12.5 			"/>
			<line class="st2" x1="18" y1="17" x2="18" y2="20"/>
			<g>
				<path d="M18,21c-0.3,0-0.5,0.2-0.5,0.5c0,0.3,0.2,0.5,0.5,0.5c0.3,0,0.5-0.2,0.5-0.5C18.5,21.2,18.3,21,18,21L18,21z"/>
			</g>
		</g>
	</g>
</g>
</svg>
