<?xml version="1.0" encoding="utf-8"?>
<!-- Generator: Adobe Illustrator 19.2.0, SVG Export Plug-In . SVG Version: 6.00 Build 0)  -->
<svg version="1.1" id="Layer_1" xmlns="http://www.w3.org/2000/svg" xmlns:xlink="http://www.w3.org/1999/xlink" x="0px" y="0px"
	 viewBox="0 0 24 24" style="enable-background:new 0 0 24 24;" xml:space="preserve">
<style type="text/css">
	.st0{display:none;}
	.st1{display:inline;}
	.st2{fill:none;stroke:#000000;stroke-linecap:round;stroke-linejoin:round;stroke-miterlimit:10;}
</style>
<g id="Filled_Icons" class="st0">
	<g class="st1">
		<path d="M24,20.4c-0.1-1.8-1.2-3.3-2.7-4c0.7-0.5,1.2-1.4,1.2-2.4c0-1.7-1.3-3-3-3c-1.7,0-3,1.3-3,3c0,1,0.5,1.8,1.2,2.4
			c-1.2,0.5-2.1,1.5-2.5,2.7c0.7,0.5,1.2,1.2,1.6,1.9h6.6c0,0,0,0,0,0c0.3,0,0.5-0.2,0.5-0.5C24,20.5,24,20.4,24,20.4z"/>
		<path d="M8.8,19.1c-0.4-1.2-1.3-2.2-2.5-2.7C7,15.8,7.5,15,7.5,14c0-1.7-1.3-3-3-3c-1.7,0-3,1.3-3,3c0,1,0.5,1.8,1.2,2.4
			C1.1,17.1,0,18.7,0,20.5C0,20.8,0.2,21,0.5,21h6.6C7.5,20.2,8.1,19.6,8.8,19.1z"/>
		<path d="M16.5,23.4c-0.1-1.8-1.2-3.3-2.7-4C14.5,18.8,15,18,15,17c0-1.7-1.3-3-3-3c-1.7,0-3,1.3-3,3c0,1,0.5,1.8,1.2,2.4
			c-1.6,0.7-2.7,2.3-2.7,4.1C7.5,23.8,7.7,24,8,24h8c0,0,0,0,0,0c0.3,0,0.5-0.2,0.5-0.5C16.5,23.5,16.5,23.4,16.5,23.4z"/>
		<path d="M17.5,0h-11C5.7,0,5,0.7,5,1.5v7C5,9.3,5.7,10,6.5,10h0.8l2.9,2.9c0.1,0.1,0.2,0.1,0.4,0.1c0.1,0,0.1,0,0.2,0
			c0.2-0.1,0.3-0.3,0.3-0.5V10h6.5c0.8,0,1.5-0.7,1.5-1.5v-7C19,0.7,18.3,0,17.5,0z M15.5,7h-7C8.2,7,8,6.8,8,6.5C8,6.2,8.2,6,8.5,6
			h7C15.7,6,16,6.2,16,6.5C16,6.8,15.7,7,15.5,7z M15.5,5h-7C8.2,5,8,4.8,8,4.5C8,4.2,8.2,4,8.5,4h7C15.7,4,16,4.2,16,4.5
			C16,4.8,15.7,5,15.5,5z M15.5,3h-7C8.2,3,8,2.8,8,2.5C8,2.2,8.2,2,8.5,2h7C15.7,2,16,2.2,16,2.5C16,2.8,15.7,3,15.5,3z"/>
	</g>
</g>
<g id="Outline_Icons">
	<g>
		<path class="st2" d="M5.5,8.5c0,0.6,0.4,1,1,1h1l3,3v-3h7c0.6,0,1-0.4,1-1v-7c0-0.6-0.4-1-1-1h-11c-0.6,0-1,0.4-1,1V8.5z"/>
		<circle class="st2" cx="19.5" cy="14" r="2.5"/>
		<path class="st2" d="M23.5,20.5h-8c0-2.2,1.8-4,4-4S23.5,18.3,23.5,20.5z"/>
		<circle class="st2" cx="4.5" cy="14" r="2.5"/>
		<path class="st2" d="M8.5,20.5h-8c0-2.2,1.8-4,4-4S8.5,18.3,8.5,20.5z"/>
		<circle class="st2" cx="12" cy="17" r="2.5"/>
		<path class="st2" d="M16,23.5H8c0-2.2,1.8-4,4-4S16,21.3,16,23.5z"/>
		<line class="st2" x1="8.5" y1="2.5" x2="15.5" y2="2.5"/>
		<line class="st2" x1="8.5" y1="4.5" x2="15.5" y2="4.5"/>
		<line class="st2" x1="8.5" y1="6.5" x2="15.5" y2="6.5"/>
	</g>
</g>
</svg>
