<?xml version="1.0" encoding="utf-8"?>
<!-- Generator: Adobe Illustrator 19.2.0, SVG Export Plug-In . SVG Version: 6.00 Build 0)  -->
<svg version="1.1" id="Layer_1" xmlns="http://www.w3.org/2000/svg" xmlns:xlink="http://www.w3.org/1999/xlink" x="0px" y="0px"
	 viewBox="0 0 24 24" style="enable-background:new 0 0 24 24;" xml:space="preserve">
<style type="text/css">
	.st0{display:none;}
	.st1{display:inline;}
	.st2{fill:none;stroke:#000000;stroke-linecap:round;stroke-linejoin:round;stroke-miterlimit:10;}
</style>
<g id="Filled_Icons" class="st0">
	<g class="st1">
		<path d="M20.8,16.4C21.5,15.8,22,15,22,14c0-1.7-1.3-3-3-3c-0.8,0-1.5,0.3-2.1,0.8c0.1,0.4,0.2,0.8,0.2,1.3c0,0.9-0.2,1.7-0.6,2.4
			c0.2,0.3,0.4,0.6,0.7,0.8c-0.3,0.1-0.5,0.3-0.7,0.4c1.3,1,2.3,2.5,2.6,4.2H23c0.3,0,0.5-0.2,0.5-0.5
			C23.5,18.7,22.4,17.1,20.8,16.4z"/>
		<path d="M7.5,16.8c-0.2-0.2-0.5-0.3-0.7-0.4c0.3-0.2,0.5-0.5,0.7-0.8c-0.4-0.7-0.6-1.5-0.6-2.4c0-0.4,0.1-0.9,0.2-1.3
			C6.5,11.3,5.8,11,5,11c-1.7,0-3,1.3-3,3c0,1,0.5,1.8,1.2,2.4c-1.6,0.7-2.7,2.3-2.7,4.1C0.5,20.8,0.7,21,1,21h3.9
			C5.3,19.3,6.2,17.8,7.5,16.8z"/>
		<g>
			<path d="M6.9,9.5c-0.1,0-0.2,0-0.3-0.1C6.3,9.2,6.3,8.9,6.5,8.7C7.8,7,9.8,6,12,6c2.2,0,4.2,1,5.5,2.7c0.2,0.2,0.1,0.5-0.1,0.7
				c-0.2,0.2-0.5,0.1-0.7-0.1C15.6,7.8,13.9,7,12,7c-1.9,0-3.6,0.8-4.7,2.3C7.2,9.4,7,9.5,6.9,9.5z"/>
		</g>
		<g>
			<path d="M5,7.8c-0.1,0-0.2,0-0.3-0.1C4.5,7.6,4.4,7.2,4.6,7C6.4,4.8,9.1,3.5,12,3.5c2.9,0,5.6,1.3,7.4,3.5
				c0.2,0.2,0.1,0.5-0.1,0.7c-0.2,0.2-0.5,0.1-0.7-0.1c-1.6-2-4-3.2-6.6-3.2c-2.6,0-5,1.2-6.6,3.2C5.3,7.8,5.1,7.8,5,7.8z"/>
		</g>
		<g>
			<path d="M21,6.4c-0.1,0-0.3-0.1-0.4-0.2C18.5,3.5,15.4,2,12,2C8.6,2,5.5,3.5,3.4,6.2C3.2,6.4,2.9,6.4,2.7,6.2
				C2.5,6.1,2.4,5.7,2.6,5.5C4.9,2.6,8.3,1,12,1c3.7,0,7.1,1.7,9.4,4.6c0.2,0.2,0.1,0.5-0.1,0.7C21.2,6.3,21.1,6.4,21,6.4z"/>
		</g>
		<path d="M18.3,22.4c-0.1-2.6-1.8-4.9-4.1-5.7c1.2-0.7,2-2,2-3.5c0-2.3-1.8-4.1-4.1-4.1c-2.3,0-4.1,1.8-4.1,4.1
			c0,1.5,0.8,2.8,2,3.5c-2.4,0.9-4.1,3.2-4.1,5.9c0,0.3,0.2,0.5,0.5,0.5h11.6c0,0,0,0,0,0c0.3,0,0.5-0.2,0.5-0.5
			C18.3,22.5,18.3,22.4,18.3,22.4z"/>
	</g>
</g>
<g id="Outline_Icons">
	<g>
		<g>
			<circle class="st2" cx="5" cy="14" r="2.5"/>
			<path class="st2" d="M6.6,20.5H1c0-2.2,1.8-4,4-4c1.3,0,2.5,0.6,3.2,1.6"/>
		</g>
		<g>
			<circle class="st2" cx="19" cy="14" r="2.5"/>
			<path class="st2" d="M15.8,18.1c0.7-1,1.9-1.6,3.2-1.6c2.2,0,4,1.8,4,4h-5.6"/>
		</g>
		<circle class="st2" cx="12" cy="13.1" r="3.6"/>
		<path class="st2" d="M6.9,9C8,7.5,9.9,6.5,12,6.5c2.1,0,4,1,5.1,2.5"/>
		<path class="st2" d="M5,7.3C6.6,5.3,9.2,4,12,4c2.8,0,5.4,1.3,7,3.3"/>
		<path class="st2" d="M3,5.8c2.1-2.7,5.4-4.4,9-4.4c3.7,0,6.9,1.7,9,4.4"/>
		<path class="st2" d="M17.8,22.5H6.2c0-3.2,2.6-5.8,5.8-5.8C15.2,16.7,17.8,19.3,17.8,22.5z"/>
	</g>
</g>
</svg>
