<?xml version="1.0" encoding="utf-8"?>
<!-- Generator: Adobe Illustrator 19.2.0, SVG Export Plug-In . SVG Version: 6.00 Build 0)  -->
<svg version="1.1" id="Layer_1" xmlns="http://www.w3.org/2000/svg" xmlns:xlink="http://www.w3.org/1999/xlink" x="0px" y="0px"
	 viewBox="0 0 24 24" style="enable-background:new 0 0 24 24;" xml:space="preserve">
<style type="text/css">
	.st0{display:none;}
	.st1{display:inline;}
	.st2{fill:none;stroke:#000000;stroke-linejoin:round;stroke-miterlimit:10;}
	.st3{fill:none;stroke:#000000;stroke-linecap:round;stroke-linejoin:round;stroke-miterlimit:10;}
</style>
<g id="Filled_Icons" class="st0">
	<g class="st1">
		<path d="M21.3,19.4c0.7-0.5,1.2-1.4,1.2-2.4c0-1.7-1.3-3-3-3c-1.7,0-3,1.3-3,3c0,1,0.5,1.8,1.2,2.4c-0.8,0.4-1.5,0.9-1.9,1.7
			c-0.5-0.7-1.2-1.3-2-1.6C14.5,18.9,15,18,15,17c0-1.7-1.3-3-3-3c-1.7,0-3,1.3-3,3c0,1,0.5,1.8,1.2,2.4c-0.8,0.4-1.5,0.9-2,1.6
			c-0.5-0.7-1.2-1.3-2-1.7C7,18.9,7.5,18,7.5,17c0-1.7-1.3-3-3-3c-1.7,0-3,1.3-3,3c0,1,0.5,1.8,1.2,2.4C1.1,20.1,0,21.7,0,23.5
			C0,23.8,0.2,24,0.5,24h23c0.3,0,0.5-0.2,0.5-0.5C24,21.7,22.8,20.1,21.3,19.4z"/>
		<g>
			<path d="M10.8,11c0.3,0.7,0.7,1.4,1.2,2c0.5-0.7,0.9-1.4,1.2-2H10.8z"/>
			<path d="M14.3,6.5c0-0.9-0.2-1.7-0.5-2.5h-3.7C9.9,4.8,9.7,5.6,9.7,6.5H14.3z"/>
			<path d="M5,6.5h3.7c0-0.9,0.1-1.7,0.4-2.5H5.6C5.3,4.8,5.1,5.6,5,6.5z"/>
			<path d="M13.4,3c-0.4-0.7-0.8-1.4-1.4-2.1c-0.6,0.7-1.1,1.3-1.4,2.1H13.4z"/>
			<path d="M9.7,7.5C9.8,8.3,10,9.2,10.3,10h3.4c0.3-0.8,0.5-1.7,0.6-2.5H9.7z"/>
			<path d="M8.7,7.5H5C5.1,8.4,5.4,9.2,5.7,10h3.5C9,9.2,8.8,8.3,8.7,7.5z"/>
			<path d="M11.5,14c-0.1,0-0.2-0.1-0.2-0.2c-0.7-0.9-1.2-1.9-1.7-2.8H6.3C7.5,12.7,9.4,13.8,11.5,14L11.5,14z"/>
			<path d="M14.3,11c-0.4,0.9-1,1.9-1.7,2.8c-0.1,0.1-0.1,0.1-0.2,0.2l0,0c2.2-0.1,4.1-1.3,5.3-3H14.3z"/>
			<path d="M9.5,3c0.4-1,1.1-1.9,1.9-2.8c0.1-0.1,0.1-0.1,0.2-0.1l0,0C9.3,0.2,7.3,1.3,6.2,3H9.5z"/>
			<path d="M12.5,0c0.1,0,0.1,0.1,0.2,0.1C13.5,1.1,14.1,2,14.5,3h3.2C16.6,1.3,14.7,0.2,12.5,0L12.5,0z"/>
			<path d="M14.9,4c0.3,0.8,0.4,1.6,0.4,2.5H19c-0.1-0.9-0.3-1.7-0.7-2.5H14.9z"/>
			<path d="M19,7.5h-3.7C15.2,8.3,15,9.2,14.7,10h3.6C18.7,9.2,18.9,8.4,19,7.5z"/>
		</g>
	</g>
</g>
<g id="Outline_Icons">
	<g>
		<g>
			<path class="st2" d="M18.5,7c0,3.6-2.9,6.5-6.5,6.5c-3.6,0-6.5-3-6.5-6.6c0-3.5,2.8-6.2,6.2-6.4c0.1,0,0.2,0,0.3,0
				C15.6,0.5,18.5,3.4,18.5,7z"/>
			<path class="st2" d="M11.7,0.5c-3.4,3.7-3.4,8.5,0,13"/>
			<path class="st2" d="M12.3,0.5c3.4,3.7,3.4,8.5,0,13"/>
			<line class="st2" x1="6.6" y1="10.5" x2="17.5" y2="10.5"/>
			<line class="st2" x1="6.5" y1="3.5" x2="17.5" y2="3.5"/>
			<line class="st2" x1="5.5" y1="7" x2="18.5" y2="7"/>
		</g>
		<circle class="st3" cx="4.5" cy="17" r="2.5"/>
		<circle class="st3" cx="12" cy="17" r="2.5"/>
		<circle class="st3" cx="19.5" cy="17" r="2.5"/>
		<path class="st3" d="M19.5,19.5c-1.7,0-3.2,1.1-3.8,2.7c-0.6-1.5-2-2.6-3.8-2.6c-1.7,0-3.2,1.1-3.8,2.6c-0.6-1.5-2-2.7-3.8-2.7
			c-2.2,0-4,2-4,4h23C23.5,21.5,21.7,19.5,19.5,19.5z"/>
	</g>
</g>
</svg>
