<?xml version="1.0" encoding="utf-8"?>
<!-- Generator: Adobe Illustrator 19.2.0, SVG Export Plug-In . SVG Version: 6.00 Build 0)  -->
<svg version="1.1" id="Outline_Icons" xmlns="http://www.w3.org/2000/svg" xmlns:xlink="http://www.w3.org/1999/xlink" x="0px"
	 y="0px" viewBox="0 0 24 24" style="enable-background:new 0 0 24 24;" xml:space="preserve">
<style type="text/css">
	.st0{fill:none;stroke:#000000;stroke-linejoin:round;stroke-miterlimit:10;}
	.st1{fill:none;stroke:#000000;stroke-linecap:round;stroke-linejoin:round;stroke-miterlimit:10;}
</style>
<g>
	<polyline class="st0" points="13.9,13.8 10,12.4 10,10.1 	"/>
	<path class="st0" d="M6,10.2v2.2l-3.9,1.4C1.1,14.1,0.5,15,0.5,16v1.5H11"/>
	<ellipse class="st0" cx="7.9" cy="6.1" rx="3.9" ry="4.7"/>
	<path class="st0" d="M11.8,5.6c-0.1,0-0.2,0-0.4,0c-1.3,0.3-2.2-0.2-2.9-1.5C8.1,5,6.7,5.7,5.5,5.7C5,5.7,4.5,5.5,4,5.3"/>
	<line class="st1" x1="16.5" y1="11.4" x2="16.5" y2="10.1"/>
	<path class="st1" d="M14.4,1.3c2.2,0,3.9,2.1,3.9,4.7c0,2.6-1.8,4.7-3.9,4.7"/>
	<path class="st1" d="M18.3,5.6c-0.1,0-0.2,0-0.4,0c-1.3,0.3-2.2-0.2-2.9-1.5"/>
</g>
<g>
	<polyline class="st1" points="23.5,15 23.5,17.5 20.3,17.5 	"/>
	<path class="st1" d="M14,17.5c0.6-1.7,2.3-3,4.2-3s3.8,1.2,4.5,3"/>
	<g>
		<polyline class="st1" points="13.5,23 13.5,20.5 16.8,20.5 		"/>
		<path class="st1" d="M23,20.5c-0.6,1.7-2.3,3-4.2,3s-3.8-1.2-4.5-3"/>
	</g>
</g>
</svg>
