<?xml version="1.0" encoding="utf-8"?>
<!-- Generator: Adobe Illustrator 19.2.0, SVG Export Plug-In . SVG Version: 6.00 Build 0)  -->
<svg version="1.1" id="Layer_1" xmlns="http://www.w3.org/2000/svg" xmlns:xlink="http://www.w3.org/1999/xlink" x="0px" y="0px"
	 viewBox="0 0 24 24" style="enable-background:new 0 0 24 24;" xml:space="preserve">
<style type="text/css">
	.st0{display:none;}
	.st1{display:inline;}
	.st2{fill:none;stroke:#000000;stroke-linejoin:round;stroke-miterlimit:10;}
	.st3{fill:none;stroke:#000000;stroke-linecap:round;stroke-linejoin:round;stroke-miterlimit:10;}
</style>
<g id="Filled_Icons" class="st0">
	<g class="st1">
		<path d="M20.1,19.3L16.5,18v-1.7c1.1-1,1.8-2.5,1.8-4.2c0,0,0,0,0,0c-0.3,0.1-0.7,0.1-0.8,0.1c-0.3,0.1-0.5,0.1-0.8,0.1
			c-0.9,0-1.7-0.4-2.3-1.2c-0.3,0.3-0.7,0.5-1.1,0.7c0,0.1,0,0.2,0,0.3c0,1.9-0.7,3.5-1.8,4.7v0.6l2.9,1.1c1.5,0.5,2.6,2,2.6,3.6v2
			h5v-2C22,20.8,21.2,19.7,20.1,19.3z"/>
		<path d="M13.9,6.8c-0.8,0-1.6,0.3-2.2,0.7c0.8,0.8,1.3,1.9,1.5,3.1c0.4-0.2,0.7-0.5,0.8-0.8l0.4-0.8l0.5,0.8
			c0.7,1.1,1.3,1.5,2.4,1.3c0.1,0,0.5-0.1,0.9-0.2C17.8,8.6,16.1,6.8,13.9,6.8z"/>
		<g>
			<path d="M4.2,10.8c0.4,0.2,0.8,0.3,1.3,0.3c1,0,2.2-0.6,2.5-1.3l0.4-0.8l0.5,0.8c0.7,1.1,1.3,1.5,2.4,1.3c0.1,0,0.5-0.1,0.9-0.2
				c-0.4-2.4-2.2-4.2-4.4-4.2c-2,0-3.7,1.6-4.2,3.8L4.2,10.8z"/>
			<path d="M14.1,19.3L10.5,18v-1.7c1.1-1,1.8-2.5,1.8-4.2c0,0,0,0,0,0c-0.3,0.1-0.7,0.1-0.8,0.1c-0.3,0.1-0.5,0.1-0.8,0.1
				c-0.9,0-1.7-0.4-2.3-1.2c-0.7,0.7-1.9,1.2-2.9,1.2c-0.6,0-1.2-0.1-1.8-0.4l-0.3-0.1c0,0.2,0,0.3,0,0.5c0,1.8,0.8,3.5,2,4.4V18
				l-3.6,1.3C0.8,19.7,0,20.8,0,22v2h16v-2C16,20.8,15.2,19.7,14.1,19.3z"/>
		</g>
		<path d="M23,3h-2V1c0-0.6-0.4-1-1-1c-0.6,0-1,0.4-1,1v2h-2c-0.6,0-1,0.4-1,1c0,0.6,0.4,1,1,1h2v2c0,0.6,0.4,1,1,1c0.6,0,1-0.4,1-1
			V5h2c0.6,0,1-0.4,1-1C24,3.4,23.6,3,23,3z"/>
	</g>
</g>
<g id="Outline_Icons">
	<g>
		<path class="st2" d="M6,16.2v2.2l-3.9,1.4C1.1,20.1,0.5,21,0.5,22v1.5h15V22c0-1-0.6-1.9-1.6-2.2L10,18.4v-2.3"/>
		<ellipse class="st2" cx="7.9" cy="12.1" rx="3.9" ry="4.7"/>
		<path class="st2" d="M11.8,11.6c-0.1,0-0.2,0-0.4,0c-1.3,0.3-2.2-0.2-2.9-1.5c-0.4,0.9-1.8,1.5-3,1.5c-0.6,0-1-0.1-1.5-0.4"/>
		<path class="st3" d="M18,23.5h3.5V22c0-1-0.6-1.9-1.6-2.2L16,18.4v-2.3"/>
		<path class="st3" d="M13.9,7.3c2.2,0,3.9,2.1,3.9,4.7c0,2.6-1.8,4.7-3.9,4.7"/>
		<path class="st3" d="M17.8,11.6c-0.1,0-0.2,0-0.4,0c-1.3,0.3-2.2-0.2-2.9-1.5"/>
		<line class="st3" x1="17.5" y1="4.5" x2="23.5" y2="4.5"/>
		<line class="st3" x1="20.5" y1="1.5" x2="20.5" y2="7.5"/>
	</g>
</g>
</svg>
