<?xml version="1.0" encoding="utf-8"?>
<!-- Generator: Adobe Illustrator 19.2.0, SVG Export Plug-In . SVG Version: 6.00 Build 0)  -->
<svg version="1.1" id="Layer_1" xmlns="http://www.w3.org/2000/svg" xmlns:xlink="http://www.w3.org/1999/xlink" x="0px" y="0px"
	 viewBox="0 0 24 24" style="enable-background:new 0 0 24 24;" xml:space="preserve">
<style type="text/css">
	.st0{display:none;}
	.st1{display:inline;}
	.st2{fill:none;stroke:#000000;stroke-linejoin:round;stroke-miterlimit:10;}
	.st3{fill:none;stroke:#000000;stroke-linecap:round;stroke-linejoin:round;stroke-miterlimit:10;}
</style>
<g id="Filled_Icons" class="st0">
	<g class="st1">
		<path d="M18.5,13c-3,0-5.5,2.5-5.5,5.5c0,3,2.5,5.5,5.5,5.5c3,0,5.5-2.5,5.5-5.5C24,15.5,21.5,13,18.5,13z M18.5,21.7
			c-0.3,0-0.5-0.2-0.5-0.5c0-0.3,0.2-0.5,0.5-0.5c0.3,0,0.5,0.2,0.5,0.5C19,21.5,18.8,21.7,18.5,21.7z M19,18.9v1
			c0,0.3-0.2,0.5-0.5,0.5c-0.3,0-0.5-0.2-0.5-0.5v-1.5c0-0.3,0.2-0.5,0.5-0.5c0.5,0,1-0.4,1-1c0-0.5-0.4-1-1-1s-1,0.4-1,1
			c0,0.3-0.2,0.5-0.5,0.5c-0.3,0-0.5-0.2-0.5-0.5c0-1.1,0.9-2,2-2c1.1,0,2,0.9,2,2C20.5,17.9,19.9,18.7,19,18.9z"/>
		<g>
			<path d="M14.4,0.8c-0.9,0-1.8,0.4-2.5,1c0.7,0.9,1.2,1.9,1.4,3.1c0.6-0.2,1.1-0.6,1.3-1L15,3.1l0.5,0.8c0.7,1.1,1.3,1.5,2.4,1.3
				c0.1,0,0.5-0.1,0.9-0.2C18.3,2.6,16.6,0.8,14.4,0.8z"/>
			<path d="M4.2,4.8C4.6,5.1,5,5.2,5.5,5.2c1,0,2.2-0.6,2.5-1.3l0.4-0.8l0.5,0.8c0.7,1.1,1.3,1.5,2.4,1.3c0.1,0,0.5-0.1,0.9-0.2
				c-0.4-2.4-2.2-4.2-4.4-4.2c-2,0-3.7,1.6-4.2,3.8L4.2,4.8z"/>
			<path d="M14.4,13.4c-0.1,0-0.2-0.1-0.3-0.1L10.5,12v-1.7c1.1-1,1.8-2.5,1.8-4.2c0,0,0,0,0,0c-0.3,0.1-0.7,0.1-0.8,0.1
				c-0.3,0.1-0.5,0.1-0.8,0.1C9.8,6.2,9.1,5.8,8.5,5C7.8,5.7,6.6,6.2,5.5,6.2C4.9,6.2,4.3,6,3.8,5.7L3.5,5.6c0,0.2,0,0.3,0,0.5
				c0,1.8,0.8,3.5,2,4.4V12l-3.6,1.3C0.8,13.7,0,14.8,0,16v2h12C12.2,16.2,13.1,14.5,14.4,13.4z"/>
			<path d="M17,12v-0.5v-1.2c1.1-1,1.8-2.5,1.8-4.2c0,0,0,0,0,0c-0.3,0.1-0.7,0.1-0.8,0.1c-0.3,0.1-0.5,0.1-0.8,0.1
				c-0.9,0-1.7-0.4-2.3-1.2c-0.4,0.4-1,0.7-1.6,0.9c0,0,0,0.1,0,0.1c0,1.6-0.5,3.2-1.3,4.4c0,0,0,0,0,0v1l2.4,0.9
				c0.3,0.1,0.6,0.3,0.9,0.5c0.5-0.3,1.1-0.5,1.7-0.6V12z"/>
		</g>
	</g>
</g>
<g id="Outline_Icons">
	<g>
		<polyline class="st2" points="13.9,13.8 10,12.4 10,10.1 		"/>
		<path class="st2" d="M6,10.2v2.2l-3.9,1.4C1.1,14.1,0.5,15,0.5,16v1.5H11"/>
		<ellipse class="st2" cx="7.9" cy="6.1" rx="3.9" ry="4.7"/>
		<path class="st2" d="M11.8,5.6c-0.1,0-0.2,0-0.4,0c-1.3,0.3-2.2-0.2-2.9-1.5C8.1,5,6.7,5.7,5.5,5.7C5,5.7,4.5,5.5,4,5.3"/>
		<line class="st3" x1="16.5" y1="11.4" x2="16.5" y2="10.1"/>
		<path class="st3" d="M14.4,1.3c2.2,0,3.9,2.1,3.9,4.7c0,2.6-1.8,4.7-3.9,4.7"/>
		<path class="st3" d="M18.3,5.6c-0.1,0-0.2,0-0.4,0c-1.3,0.3-2.2-0.2-2.9-1.5"/>
		<g>
			<circle class="st2" cx="18.5" cy="18.5" r="5"/>
			<g>
				<g>
					<g>
						<path d="M18.5,20.7c-0.3,0-0.5,0.2-0.5,0.5c0,0.3,0.2,0.5,0.5,0.5c0.3,0,0.5-0.2,0.5-0.5C19,21,18.8,20.7,18.5,20.7L18.5,20.7
							z"/>
					</g>
				</g>
			</g>
			<path class="st3" d="M17,17c0-0.8,0.7-1.5,1.5-1.5c0.8,0,1.5,0.7,1.5,1.5c0,0.8-0.7,1.5-1.5,1.5V20"/>
		</g>
	</g>
</g>
</svg>
