<?xml version="1.0" encoding="utf-8"?>
<!-- Generator: Adobe Illustrator 19.2.0, SVG Export Plug-In . SVG Version: 6.00 Build 0)  -->
<svg version="1.1" id="Layer_1" xmlns="http://www.w3.org/2000/svg" xmlns:xlink="http://www.w3.org/1999/xlink" x="0px" y="0px"
	 viewBox="0 0 24 24" style="enable-background:new 0 0 24 24;" xml:space="preserve">
<style type="text/css">
	.st0{display:none;}
	.st1{display:inline;}
	.st2{fill:none;stroke:#000000;stroke-linejoin:round;stroke-miterlimit:10;}
	.st3{fill:none;stroke:#000000;stroke-linecap:round;stroke-linejoin:round;stroke-miterlimit:10;}
</style>
<g id="Filled_Icons" class="st0">
	<g class="st1">
		<path d="M14.9,0.8c-0.9,0-1.8,0.4-2.5,1c0.7,0.9,1.2,1.9,1.4,3.1c0.6-0.2,1.1-0.6,1.3-1l0.4-0.8l0.5,0.8c0.7,1.1,1.3,1.5,2.4,1.3
			c0.1,0,0.5-0.1,0.9-0.2C18.8,2.6,17.1,0.8,14.9,0.8z"/>
		<path d="M4.7,4.8C5.1,5.1,5.5,5.2,6,5.2c1,0,2.2-0.6,2.5-1.3L9,3.1l0.5,0.8c0.7,1.1,1.3,1.5,2.4,1.3c0.1,0,0.5-0.1,0.9-0.2
			c-0.4-2.4-2.2-4.2-4.4-4.2c-2,0-3.7,1.6-4.2,3.8L4.7,4.8z"/>
		<path d="M12.9,16.9l1-1.7c0.2-0.4,0.5-0.6,0.9-0.7c0.4-0.1,0.8,0,1.2,0.2v-0.1c0,0,0-0.1,0-0.1c-0.3-0.5-0.8-0.8-1.4-1.1L11,12
			v-1.7c1.1-1,1.8-2.5,1.8-4.2c0,0,0,0,0,0c-0.3,0.1-0.7,0.1-0.8,0.1c-0.3,0.1-0.5,0.1-0.8,0.1C10.3,6.2,9.6,5.8,9,5
			C8.3,5.7,7.1,6.2,6,6.2C5.4,6.2,4.8,6,4.3,5.7L4,5.6c0,0.2,0,0.3,0,0.5c0,1.8,0.8,3.5,2,4.4V12l-3.6,1.3c-1.1,0.4-1.9,1.5-1.9,2.7
			v2h12.3C12.7,17.6,12.7,17.2,12.9,16.9z"/>
		<path d="M23.5,17.7c0-0.1,0-0.3-0.1-0.4l-1-1.7c-0.1-0.2-0.4-0.3-0.7-0.2L21,15.9c-0.4-0.3-0.7-0.4-1-0.6v-0.8
			c0-0.3-0.2-0.5-0.5-0.5h-2c-0.3,0-0.5,0.2-0.5,0.5v0.8c-0.3,0.1-0.6,0.3-0.9,0.5l-0.6-0.4c-0.1-0.1-0.3-0.1-0.4-0.1
			c-0.1,0-0.2,0.1-0.3,0.2l-1,1.7c-0.1,0.2-0.1,0.5,0.2,0.7l0.7,0.4c0,0.2,0,0.4,0,0.6c0,0.2,0,0.4,0,0.6L14,20
			c-0.2,0.1-0.3,0.4-0.2,0.7l1,1.7c0.1,0.1,0.2,0.2,0.3,0.2c0.1,0,0.3,0,0.4-0.1l0.6-0.4c0.3,0.2,0.6,0.4,0.9,0.5v0.8
			c0,0.3,0.2,0.5,0.5,0.5h2c0.3,0,0.5-0.2,0.5-0.5v-0.8c0.3-0.1,0.7-0.3,1-0.6l0.7,0.4c0.2,0.1,0.5,0,0.7-0.2l1-1.7
			c0.1-0.1,0.1-0.2,0.1-0.4c0-0.1-0.1-0.2-0.2-0.3l-0.7-0.4c0-0.2,0-0.4,0-0.6c0-0.2,0-0.4,0-0.6l0.7-0.4
			C23.4,18,23.5,17.9,23.5,17.7z M18.6,20.5c-0.8,0-1.5-0.7-1.5-1.5c0-0.8,0.7-1.5,1.5-1.5c0.8,0,1.5,0.7,1.5,1.5
			C20.1,19.8,19.5,20.5,18.6,20.5z"/>
		<path d="M19.5,13C19.5,13,19.5,13,19.5,13c0.2,0,0.3-0.1,0.4-0.1L17.5,12v-1.7c1.1-1,1.8-2.5,1.8-4.2c0,0,0,0,0,0
			c-0.3,0.1-0.7,0.1-0.8,0.1c-0.3,0.1-0.5,0.1-0.8,0.1c-0.9,0-1.7-0.4-2.3-1.2c-0.4,0.4-1,0.7-1.6,0.9c0,0,0,0.1,0,0.1
			c0,1.6-0.5,3.2-1.3,4.4v0v1l2.4,0.9c0.6,0.2,1.1,0.6,1.5,1c0.3-0.2,0.6-0.4,1-0.4L19.5,13C19.5,13,19.5,13,19.5,13z"/>
	</g>
</g>
<g id="Outline_Icons">
	<g>
		<polyline class="st2" points="14.4,13.8 10.5,12.4 10.5,10.1 		"/>
		<path class="st2" d="M6.5,10.2v2.2l-3.9,1.4C1.6,14.1,1,15,1,16v1.5h10.5"/>
		<ellipse class="st2" cx="8.4" cy="6.1" rx="3.9" ry="4.7"/>
		<path class="st2" d="M12.3,5.6c-0.1,0-0.2,0-0.4,0C10.6,5.9,9.7,5.4,9,4.1C8.5,5,7.1,5.7,6,5.7c-0.6,0-1-0.1-1.5-0.4"/>
		<line class="st3" x1="17" y1="11.4" x2="17" y2="10.1"/>
		<path class="st3" d="M14.9,1.3c2.2,0,3.9,2.1,3.9,4.7c0,2.6-1.8,4.7-3.9,4.7"/>
		<path class="st3" d="M18.8,5.6c-0.1,0-0.2,0-0.4,0c-1.3,0.3-2.2-0.2-2.9-1.5"/>
		<circle class="st2" cx="18.6" cy="19" r="1.5"/>
		<path class="st2" d="M22.1,19c0-0.3,0-0.5-0.1-0.8l1-0.6l-1-1.7L21,16.5c-0.4-0.4-1-0.7-1.5-0.8v-1.1h-2v1.1
			c-0.5,0.2-0.9,0.4-1.3,0.8l-1-0.6l-1,1.7l1,0.6c-0.1,0.3-0.1,0.5-0.1,0.8c0,0.3,0,0.5,0.1,0.8l-1,0.6l1,1.7l0.9-0.6
			c0.4,0.4,0.8,0.7,1.3,0.8v1.1h2v-1.1c0.5-0.2,1.1-0.4,1.5-0.8l1,0.6l1-1.7l-1-0.6C22.1,19.5,22.1,19.3,22.1,19z"/>
	</g>
</g>
</svg>
