<?xml version="1.0" encoding="utf-8"?>
<!-- Generator: Adobe Illustrator 19.2.0, SVG Export Plug-In . SVG Version: 6.00 Build 0)  -->
<svg version="1.1" id="Layer_1" xmlns="http://www.w3.org/2000/svg" xmlns:xlink="http://www.w3.org/1999/xlink" x="0px" y="0px"
	 viewBox="0 0 24 24" style="enable-background:new 0 0 24 24;" xml:space="preserve">
<style type="text/css">
	.st0{display:none;}
	.st1{display:inline;}
	.st2{fill:none;stroke:#000000;stroke-linecap:round;stroke-linejoin:round;stroke-miterlimit:10;}
</style>
<g id="Filled_Icon" class="st0">
	<path class="st1" d="M22.8,4l0.6-0.6c0.2-0.2,0.2-0.5,0-0.7L21,0.1c-0.2-0.2-0.5-0.2-0.7,0l-0.6,0.6L19,0.1c-0.2-0.2-0.5-0.2-0.7,0
		c-0.2,0.2-0.2,0.5,0,0.7l0.6,0.6l-0.8,0.8l-0.6-0.6c-0.2-0.2-0.5-0.2-0.7,0c-0.2,0.2-0.2,0.5,0,0.7L17.4,3l-1.1,1.1
		c-0.2,0.2-0.2,0.5,0,0.7L16.4,5l-3.4,3.4c-0.8-0.5-1.8-0.8-2.7-0.8c-2.1,0-3.7,1.3-4.2,3.3c-2.7-0.4-4.9,0.7-5.8,2.9
		c-1,2.4-0.2,5.4,1.9,7.5c1.5,1.5,3.4,2.3,5.3,2.3c1.7,0,3.2-0.7,4.2-1.9c0.7-0.8,1.3-2.2,1-4.4c1.3-0.3,2.4-1.2,2.9-2.4
		c0.6-1.4,0.5-3-0.4-4.5l3.4-3.4l0.1,0.1c0.2,0.2,0.5,0.2,0.7,0l1.1-1.1l0.6,0.6C21.4,7,21.5,7,21.6,7c0.1,0,0.3,0,0.4-0.1
		c0.2-0.2,0.2-0.5,0-0.7l-0.6-0.6l0.8-0.8l0.6,0.6c0.1,0.1,0.2,0.1,0.4,0.1c0.1,0,0.3,0,0.4-0.1c0.2-0.2,0.2-0.5,0-0.7L22.8,4z
		 M6.5,20.6c-0.1,0.1-0.2,0.1-0.4,0.1c-0.1,0-0.3,0-0.4-0.1L3,17.8c-0.2-0.2-0.2-0.5,0-0.7c0.2-0.2,0.5-0.2,0.7,0l2.8,2.8
		C6.7,20.1,6.7,20.5,6.5,20.6z M12.2,15c-0.5,0.5-1.1,0.7-1.8,0.7c-0.7,0-1.3-0.3-1.8-0.7c-1-1-1-2.6,0-3.5c0.5-0.5,1.1-0.7,1.8-0.7
		c0.7,0,1.3,0.3,1.8,0.7c0.5,0.5,0.7,1.1,0.7,1.8C12.9,13.9,12.7,14.5,12.2,15z"/>
</g>
<g id="Outline_Icons">
	<g>
		<circle class="st2" cx="10.4" cy="13.2" r="2"/>
		<line class="st2" x1="3.3" y1="17.5" x2="6.2" y2="20.3"/>
		<path class="st2" d="M20.6,0.5l-4,4L17.1,5l-4,4C10.3,7,7,8.4,6.6,11.5c-6.2-1.3-8,5.5-4,9.5c4.1,4.1,10.8,2.1,9.5-4
			c3-0.3,4.5-3.7,2.5-6.5l4-4L19.1,7l4-4L20.6,0.5z"/>
		<line class="st2" x1="18.6" y1="0.5" x2="19.6" y2="1.5"/>
		<line class="st2" x1="17.1" y1="2" x2="18.1" y2="3"/>
		<line class="st2" x1="23.1" y1="5" x2="22.1" y2="4"/>
		<line class="st2" x1="21.6" y1="6.5" x2="20.6" y2="5.5"/>
	</g>
</g>
</svg>
