<?xml version="1.0" encoding="utf-8"?>
<!-- Generator: Adobe Illustrator 19.2.0, SVG Export Plug-In . SVG Version: 6.00 Build 0)  -->
<svg version="1.1" id="Layer_1" xmlns="http://www.w3.org/2000/svg" xmlns:xlink="http://www.w3.org/1999/xlink" x="0px" y="0px"
	 viewBox="0 0 24 24" style="enable-background:new 0 0 24 24;" xml:space="preserve">
<style type="text/css">
	.st0{display:none;}
	.st1{display:inline;}
	.st2{fill:none;stroke:#000000;stroke-linecap:round;stroke-linejoin:round;stroke-miterlimit:10;}
</style>
<g id="Filled_Icon" class="st0">
	<g class="st1">
		<path d="M21.8,8C22.1,7,22,6,21.4,5.1c-0.7-1-1.8-1.6-3-1.6C17.5,1.4,15.4,0,13,0c-3,0-5.5,2.2-5.9,5.1c-2.6,0.4-4.6,2.7-4.6,5.4
			C2.5,13.5,5,16,8,16h11c2.5,0,4.5-2,4.5-4.5C23.5,10.1,22.9,8.9,21.8,8z"/>
		<g>
			<path d="M20.4,18.1c-0.2-0.2-0.5-0.2-0.7,0L15.7,22c-0.1,0-0.2,0-0.2,0c-0.6,0-1,0.4-1,1c0,0.6,0.4,1,1,1c0.6,0,1-0.4,1-1
				c0-0.1,0-0.2,0-0.2l3.9-3.9C20.5,18.7,20.5,18.3,20.4,18.1z"/>
			<path d="M6.6,18.1L2.7,22c-0.1,0-0.2,0-0.2,0c-0.6,0-1,0.4-1,1c0,0.6,0.4,1,1,1c0.6,0,1-0.4,1-1c0-0.1,0-0.2,0-0.2l3.9-3.9
				c0.2-0.2,0.2-0.5,0-0.7C7.2,18,6.8,18,6.6,18.1z"/>
			<path d="M12.9,18.1c-0.2-0.2-0.5-0.2-0.7,0l-2.5,2.5c-0.1,0.1-0.2,0.4-0.1,0.5c0.1,0.2,0.3,0.3,0.5,0.3h1.3l-1.6,1.6
				c-0.2,0.2-0.2,0.5,0,0.7C9.7,23.9,9.9,24,10,24c0.1,0,0.3,0,0.4-0.1l2.5-2.5C13,21.2,13,21,13,20.8c-0.1-0.2-0.3-0.3-0.5-0.3
				h-1.3l1.6-1.7C13,18.7,13,18.3,12.9,18.1z"/>
		</g>
	</g>
</g>
<g id="Outline_Icons">
	<g>
		<path class="st2" d="M21.3,8.2c0.9-2.1-0.8-4.5-3.1-4.2C17.3,2,15.3,0.5,13,0.5c-2.9,0-5.2,2.2-5.5,5C5,5.8,3,7.9,3,10.5
			c0,2.8,2.2,5,5,5h11c2.2,0,4-1.8,4-4C23,10.1,22.3,8.9,21.3,8.2z"/>
		<circle class="st2" cx="15.5" cy="23" r="0.5"/>
		<line class="st2" x1="15.9" y1="22.6" x2="20" y2="18.5"/>
		<circle class="st2" cx="2.5" cy="23" r="0.5"/>
		<line class="st2" x1="2.9" y1="22.6" x2="7" y2="18.5"/>
		<polyline class="st2" points="10,23.5 12.5,21 10,21 12.5,18.5 		"/>
	</g>
</g>
</svg>
