<?xml version="1.0" encoding="utf-8"?>
<!-- Generator: Adobe Illustrator 19.2.0, SVG Export Plug-In . SVG Version: 6.00 Build 0)  -->
<svg version="1.1" id="Layer_1" xmlns="http://www.w3.org/2000/svg" xmlns:xlink="http://www.w3.org/1999/xlink" x="0px" y="0px"
	 viewBox="0 0 24 24" style="enable-background:new 0 0 24 24;" xml:space="preserve">
<style type="text/css">
	.st0{display:none;}
	.st1{display:inline;}
	.st2{fill:none;stroke:#000000;stroke-linecap:round;stroke-linejoin:round;stroke-miterlimit:10;}
</style>
<g id="Filled_Icon" class="st0">
	<g class="st1">
		<path d="M21.3,8c0.3-1,0.2-2.1-0.4-2.9c-0.6-1-1.7-1.6-2.9-1.6c0,0,0,0-0.1,0C17,1.4,14.8,0,12.5,0C9.5,0,7,2.2,6.6,5.1
			C3.9,5.5,2,7.8,2,10.5c0,3,2.5,5.5,5.5,5.5h11c2.5,0,4.5-2,4.5-4.5C23,10.1,22.4,8.9,21.3,8z"/>
		<path d="M16.1,18.1L12.3,22c-0.1,0-0.2,0-0.3,0c-0.6,0-1,0.4-1,1c0,0.6,0.4,1,1,1c0.6,0,1-0.4,1-1c0-0.1,0-0.2,0-0.3l3.9-3.9
			c0.2-0.2,0.2-0.5,0-0.7C16.7,18,16.3,18,16.1,18.1z"/>
		<path d="M11.9,18.9c0.2-0.2,0.2-0.5,0-0.7c-0.2-0.2-0.5-0.2-0.7,0L8.3,21c-0.1,0-0.2,0-0.3,0c-0.6,0-1,0.4-1,1c0,0.6,0.4,1,1,1
			c0.6,0,1-0.4,1-1c0-0.1,0-0.2,0-0.3L11.9,18.9z"/>
		<path d="M6.9,18.1c-0.2-0.2-0.5-0.2-0.7,0L2.3,22c-0.1,0-0.2,0-0.3,0c-0.6,0-1,0.4-1,1c0,0.6,0.4,1,1,1c0.6,0,1-0.4,1-1
			c0-0.1,0-0.2,0-0.3l3.9-3.9C7,18.7,7,18.3,6.9,18.1z"/>
	</g>
</g>
<g id="Outline_Icons">
	<g>
		<path class="st2" d="M20.8,8.2C21.7,6.1,20,3.7,17.6,4c-0.8-2.1-2.8-3.5-5.1-3.5c-2.9,0-5.2,2.2-5.5,5c-2.5,0.2-4.5,2.4-4.5,5
			c0,2.8,2.2,5,5,5h11c2.2,0,4-1.8,4-4C22.5,10.1,21.8,8.9,20.8,8.2z"/>
		<circle class="st2" cx="12" cy="23" r="0.5"/>
		<line class="st2" x1="12.4" y1="22.6" x2="16.5" y2="18.5"/>
		<circle class="st2" cx="8" cy="22" r="0.5"/>
		<line class="st2" x1="8.4" y1="21.6" x2="11.5" y2="18.5"/>
		<circle class="st2" cx="2" cy="23" r="0.5"/>
		<line class="st2" x1="2.4" y1="22.6" x2="6.5" y2="18.5"/>
	</g>
</g>
</svg>
