<?xml version="1.0" encoding="utf-8"?>
<!-- Generator: Adobe Illustrator 19.2.0, SVG Export Plug-In . SVG Version: 6.00 Build 0)  -->
<svg version="1.1" id="Layer_1" xmlns="http://www.w3.org/2000/svg" xmlns:xlink="http://www.w3.org/1999/xlink" x="0px" y="0px"
	 viewBox="0 0 24 24" style="enable-background:new 0 0 24 24;" xml:space="preserve">
<style type="text/css">
	.st0{display:none;}
	.st1{display:inline;}
	.st2{fill:none;stroke:#000000;stroke-linejoin:round;stroke-miterlimit:10;}
	.st3{fill:none;stroke:#000000;stroke-linecap:round;stroke-linejoin:round;stroke-miterlimit:10;}
</style>
<g id="Filled_Icons" class="st0">
	<g class="st1">
		<path d="M6,3.9L1.6,3C1.5,3,1.3,3,1.2,3.1C1.1,3.2,1,3.4,1,3.5v8c0,0.1,0.1,0.3,0.2,0.4C1.3,12,1.4,12,1.5,12c0,0,0.1,0,0.1,0
			L6,11.1V3.9z"/>
		<path d="M17.5,14c-0.1,0-0.2,0-0.3,0l-1.6-0.3l-0.2,0.8h-0.9l0.3-2l2.5,0.5c0,0,0.1,0,0.1,0c3,0,5.5-2.5,5.5-5.5
			c0-3-2.5-5.5-5.6-5.5c0,0,0,0,0,0L7,3.9v7.2l6.9,1.3l-0.4,2.6c0,0.1,0,0.3,0.1,0.4c0.1,0.1,0.2,0.2,0.4,0.2h1.3L15.1,16h3.4
			c0.3,0,0.5,0.2,0.5,0.5c0,0.3-0.2,0.5-0.5,0.5h-3.6l-0.2,1H18c0.3,0,0.5,0.2,0.5,0.5c0,0.3-0.2,0.5-0.5,0.5h-3.5l-0.1,0.4
			c-0.1,0.7,0,1.3,0.4,1.8c0.4,0.5,1,0.8,1.7,0.8h2.3c1.2,0,2.3-0.9,2.5-2.1l1.2-8.2C21.3,13.1,19.5,14,17.5,14z M18,4.5
			c1.7,0,3,1.3,3,3c0,1.7-1.3,3-3,3c-1.7,0-3-1.3-3-3C15,5.9,16.3,4.5,18,4.5z"/>
	</g>
</g>
<g id="Outline_Icons">
	<g>
		<path class="st2" d="M6.5,10.5l11,2c2.8,0,5-2.2,5-5c0-2.8-2.2-5-5-5l-11,2V10.5z"/>
		<polygon class="st2" points="6.5,10.5 1.5,11.5 1.5,3.5 6.5,4.5 		"/>
		<path class="st2" d="M22.5,8l-1.7,11.8c-0.1,1-1,1.7-2,1.7h-2.3c-1.1,0-1.8-0.9-1.6-2l1.5-7.2"/>
		<circle class="st2" cx="18" cy="7.5" r="2.5"/>
		<polyline class="st2" points="14.5,12 14,15 15.9,15 		"/>
		<line class="st3" x1="15.1" y1="18.5" x2="18" y2="18.5"/>
		<line class="st3" x1="15.6" y1="16.5" x2="18.5" y2="16.5"/>
	</g>
</g>
</svg>
