<?xml version="1.0" encoding="utf-8"?>
<!-- Generator: Adobe Illustrator 19.2.0, SVG Export Plug-In . SVG Version: 6.00 Build 0)  -->
<svg version="1.1" id="Layer_1" xmlns="http://www.w3.org/2000/svg" xmlns:xlink="http://www.w3.org/1999/xlink" x="0px" y="0px"
	 viewBox="0 0 24 24" enable-background="new 0 0 24 24" xml:space="preserve">
<g id="Filled_Icons" display="none">
	<g display="inline">
		<path d="M2,17.506c-0.356,0-0.693-0.076-1-0.211v0.211c0,1.379,1.121,2.5,2.5,2.5h17c1.378,0,2.5-1.121,2.5-2.5v-0.211
			c-0.307,0.135-0.645,0.211-1,0.211H2z"/>
		<path d="M22,11.506c0.355,0,0.693,0.078,1,0.212v-0.712c0-3.859-3.141-7-7-7H8c-3.86,0-7,3.141-7,7v0.712
			c0.307-0.134,0.644-0.212,1-0.212H22z M17,7.006c0.275,0,0.5,0.225,0.5,0.5c0,0.276-0.225,0.5-0.5,0.5c-0.275,0-0.5-0.224-0.5-0.5
			C16.5,7.231,16.725,7.006,17,7.006z M14.5,6.006c0.275,0,0.5,0.225,0.5,0.5c0,0.276-0.225,0.5-0.5,0.5c-0.275,0-0.5-0.224-0.5-0.5
			C14,6.231,14.225,6.006,14.5,6.006z M12,7.006c0.275,0,0.5,0.225,0.5,0.5c0,0.276-0.225,0.5-0.5,0.5c-0.276,0-0.5-0.224-0.5-0.5
			C11.5,7.231,11.724,7.006,12,7.006z M9.5,6.006c0.275,0,0.5,0.225,0.5,0.5c0,0.276-0.225,0.5-0.5,0.5c-0.276,0-0.5-0.224-0.5-0.5
			C9,6.231,9.224,6.006,9.5,6.006z M7,7.006c0.275,0,0.5,0.225,0.5,0.5c0,0.276-0.225,0.5-0.5,0.5c-0.276,0-0.5-0.224-0.5-0.5
			C6.5,7.231,6.724,7.006,7,7.006z"/>
		<path d="M22,12.506H2c-0.827,0-1.5,0.674-1.5,1.5v1c0,0.829,0.673,1.5,1.5,1.5h20c0.826,0,1.5-0.671,1.5-1.5v-1
			C23.5,13.18,22.826,12.506,22,12.506z"/>
	</g>
</g>
<g id="Outline_Icons">
	<g>
		<path fill="none" stroke="#000000" stroke-linejoin="round" stroke-miterlimit="10" d="M22.5,12.5h-21V11
			c0-3.591,2.91-6.5,6.5-6.5h8c3.59,0,6.5,2.909,6.5,6.5V12.5z"/>
		<path fill="none" stroke="#000000" stroke-linejoin="round" stroke-miterlimit="10" d="M23.5,15c0,0.828-0.672,1.5-1.5,1.5H2
			c-0.828,0-1.5-0.672-1.5-1.5v-1c0-0.828,0.672-1.5,1.5-1.5h20c0.828,0,1.5,0.672,1.5,1.5V15z"/>
		<path fill="none" stroke="#000000" stroke-linejoin="round" stroke-miterlimit="10" d="M22.5,17.5c0,1.104-0.895,2-2,2h-17
			c-1.104,0-2-0.896-2-2v-1h21V17.5z"/>
		<g>
			<g>
				<path d="M7.5,7C7.224,7,7,7.224,7,7.5C7,7.775,7.224,8,7.5,8C7.776,8,8,7.775,8,7.5C8,7.224,7.776,7,7.5,7L7.5,7z"/>
			</g>
		</g>
		<g>
			<g>
				<path d="M9.5,6C9.224,6,9,6.224,9,6.5C9,6.775,9.224,7,9.5,7C9.776,7,10,6.775,10,6.5C10,6.224,9.776,6,9.5,6L9.5,6z"/>
			</g>
		</g>
		<g>
			<g>
				<path d="M14.5,6C14.225,6,14,6.224,14,6.5C14,6.775,14.225,7,14.5,7C14.775,7,15,6.775,15,6.5C15,6.224,14.775,6,14.5,6L14.5,6z
					"/>
			</g>
		</g>
		<g>
			<g>
				<path d="M12,7c-0.276,0-0.5,0.224-0.5,0.5C11.5,7.775,11.724,8,12,8c0.276,0,0.5-0.225,0.5-0.5C12.5,7.224,12.276,7,12,7L12,7z"
					/>
			</g>
		</g>
		<g>
			<g>
				<path d="M16.542,7c-0.276,0-0.5,0.224-0.5,0.5c0,0.275,0.224,0.5,0.5,0.5c0.276,0,0.5-0.225,0.5-0.5
					C17.042,7.224,16.818,7,16.542,7L16.542,7z"/>
			</g>
		</g>
	</g>
</g>
</svg>
