<?xml version="1.0" encoding="utf-8"?>
<!-- Generator: Adobe Illustrator 19.2.0, SVG Export Plug-In . SVG Version: 6.00 Build 0)  -->
<svg version="1.1" id="Layer_1" xmlns="http://www.w3.org/2000/svg" xmlns:xlink="http://www.w3.org/1999/xlink" x="0px" y="0px"
	 viewBox="0 0 24 24" style="enable-background:new 0 0 24 24;" xml:space="preserve">
<style type="text/css">
	.st0{display:none;}
	.st1{display:inline;}
	.st2{fill:none;stroke:#000000;stroke-linejoin:round;stroke-miterlimit:10;}
</style>
<g id="Filled_Icons" class="st0">
	<g class="st1">
		<path d="M23.9,7.6l-7-7c-0.2-0.2-0.5-0.2-0.7,0c-0.6,0.6-1.3,0.9-2.1,0.9c-0.8,0-1.6-0.3-2.1-0.9c-0.1-0.1-0.2-0.1-0.4-0.1l0,0
			c-0.1,0-0.3,0.1-0.4,0.1l-1,1c-0.2,0.2-0.2,0.5,0,0.7l9.5,9.5C19.7,12,19.9,12,20,12c0.1,0,0.3,0,0.4-0.1l3.5-3.5
			C24,8.2,24,7.8,23.9,7.6z"/>
		<path d="M13.9,7.1c-0.2-0.2-0.5-0.2-0.7,0l-13,13C0.1,20.2,0,20.4,0,20.5c0,0.1,0.1,0.3,0.1,0.4l2.5,2.5c0.1,0.1,0.2,0.1,0.4,0.1
			c0.1,0,0.3,0,0.4-0.1l13-13c0.1-0.1,0.1-0.2,0.1-0.4c0-0.1-0.1-0.3-0.1-0.4L13.9,7.1z"/>
	</g>
</g>
<g id="Outline_Icons">
	<g>
		<path class="st2" d="M16.5,1c-1.4,1.4-3.6,1.4-5,0l-1,1l9.5,9.5L23.5,8L16.5,1z"/>
		<rect x="-1.2" y="12.9" transform="matrix(0.7072 -0.707 0.707 0.7072 -7.7417 10.5574)" class="st2" width="20.2" height="3.5"/>
	</g>
</g>
</svg>
