<?xml version="1.0" encoding="utf-8"?>
<!-- Generator: Adobe Illustrator 19.2.0, SVG Export Plug-In . SVG Version: 6.00 Build 0)  -->
<svg version="1.1" id="Outline_Icons" xmlns="http://www.w3.org/2000/svg" xmlns:xlink="http://www.w3.org/1999/xlink" x="0px"
	 y="0px" viewBox="0 0 24 24" style="enable-background:new 0 0 24 24;" xml:space="preserve">
<style type="text/css">
	.st0{fill:none;stroke:#000000;stroke-linejoin:round;stroke-miterlimit:10;}
	.st1{fill:none;stroke:#000000;stroke-linecap:round;stroke-linejoin:round;stroke-miterlimit:10;}
</style>
<g>
	<path class="st0" d="M17,21.5H2c-0.8,0-1.5-0.7-1.5-1.5V2c0-0.8,0.7-1.5,1.5-1.5h13c0.8,0,1.5,0.7,1.5,1.5v13.5"/>
	<polyline class="st1" points="14.9,17.5 2.5,17.5 2.5,2.5 14.5,2.5 14.5,13.9 	"/>
	<path class="st1" d="M23.5,23.5l-3-4v-4.6c0-1.7-2.1-3.3-4-4.9"/>
	<path class="st1" d="M17.5,16.5l-2.2-2.2c-0.4-0.4-1.1-0.4-1.5,0s-0.2,1.2,0,1.5l2.8,3.2c0,0,0,0,0,1s2,3.5,2,3.5"/>
	<line class="st0" x1="6" y1="19.5" x2="10" y2="19.5"/>
	<g>
		<g>
			<g>
				<path d="M4.5,19C4.2,19,4,19.2,4,19.5S4.2,20,4.5,20S5,19.8,5,19.5S4.8,19,4.5,19L4.5,19z"/>
			</g>
		</g>
	</g>
	<g>
		<g>
			<g>
				<path d="M11.5,19c-0.3,0-0.5,0.2-0.5,0.5s0.2,0.5,0.5,0.5s0.5-0.2,0.5-0.5S11.8,19,11.5,19L11.5,19z"/>
			</g>
		</g>
	</g>
	<line class="st0" x1="5" y1="13.5" x2="12" y2="13.5"/>
	<line class="st0" x1="5" y1="11.5" x2="12" y2="11.5"/>
	<line class="st0" x1="5" y1="9.5" x2="12" y2="9.5"/>
	<line class="st0" x1="5" y1="7.5" x2="12" y2="7.5"/>
	<line class="st0" x1="5" y1="5.5" x2="9" y2="5.5"/>
</g>
</svg>
