<?xml version="1.0" encoding="utf-8"?>
<!-- Generator: Adobe Illustrator 19.2.0, SVG Export Plug-In . SVG Version: 6.00 Build 0)  -->
<svg version="1.1" id="Layer_1" xmlns="http://www.w3.org/2000/svg" xmlns:xlink="http://www.w3.org/1999/xlink" x="0px" y="0px"
	 viewBox="0 0 24 24" enable-background="new 0 0 24 24" xml:space="preserve">
<g id="Filled_Icons" display="none">
	<path display="inline" d="M21.943,14.268l-0.959-3.881c-0.055-0.223-0.256-0.379-0.484-0.379H19v-2c0-3.86-3.141-7-7-7
		c-3.859,0-7,3.14-7,7v2H3.5c-0.229,0-0.43,0.157-0.485,0.379l-0.95,3.826C0.75,15.264,0,16.818,0,18.506c0,3.033,2.468,5.5,5.5,5.5
		c3.032,0,5.5-2.467,5.5-5.5c0-1.677-0.71-3.139-2.056-4.238l-0.959-3.881C7.93,10.163,7.729,10.007,7.5,10.007H6v-2
		c0-3.309,2.691-6,6-6c3.309,0,6,2.691,6,6v2h-1.5c-0.229,0-0.43,0.157-0.484,0.379l-0.951,3.826C13.75,15.264,13,16.818,13,18.506
		c0,3.033,2.468,5.5,5.5,5.5c3.032,0,5.5-2.467,5.5-5.5C24,16.83,23.29,15.367,21.943,14.268z M8.5,18.506c0,1.655-1.346,3-3,3
		c-1.654,0-3-1.345-3-3c0-1.654,1.346-3,3-3C7.154,15.506,8.5,16.852,8.5,18.506z M18.5,21.506c-1.654,0-3-1.345-3-3
		c0-1.654,1.346-3,3-3c1.654,0,3,1.346,3,3C21.5,20.161,20.154,21.506,18.5,21.506z"/>
</g>
<g id="Outline_Icons">
	<g>
		<path fill="none" stroke="#000000" stroke-linejoin="round" stroke-miterlimit="10" d="M7.5,10.5h-4l-0.992,3.994
			C1.289,15.406,0.5,16.861,0.5,18.5c0,2.762,2.239,5,5,5c2.762,0,5-2.238,5-5c0-1.75-0.82-3.04-2-3.955L7.5,10.5z"/>
		<circle fill="none" stroke="#000000" stroke-linejoin="round" stroke-miterlimit="10" cx="5.5" cy="18.5" r="2.5"/>
		<path fill="none" stroke="#000000" stroke-linejoin="round" stroke-miterlimit="10" d="M20.5,10.5h-4l-0.992,3.994
			C14.289,15.406,13.5,16.861,13.5,18.5c0,2.762,2.238,5,5,5c2.762,0,5-2.238,5-5c0-1.75-0.82-3.04-2-3.955L20.5,10.5z"/>
		<circle fill="none" stroke="#000000" stroke-linejoin="round" stroke-miterlimit="10" cx="18.5" cy="18.5" r="2.5"/>
		<path fill="none" stroke="#000000" stroke-linejoin="round" stroke-miterlimit="10" d="M5.5,10.5V8c0-3.589,2.911-6.5,6.5-6.5
			c3.59,0,6.5,2.911,6.5,6.5v2.5"/>
	</g>
	<g>
		<path fill="none" stroke="#000000" stroke-linejoin="round" stroke-miterlimit="10" d="M7.5,10.5h-4l-0.992,3.994
			C1.289,15.406,0.5,16.861,0.5,18.5c0,2.762,2.239,5,5,5c2.762,0,5-2.238,5-5c0-1.75-0.82-3.04-2-3.955L7.5,10.5z"/>
		<circle fill="none" stroke="#000000" stroke-linejoin="round" stroke-miterlimit="10" cx="5.5" cy="18.5" r="2.5"/>
		<path fill="none" stroke="#000000" stroke-linejoin="round" stroke-miterlimit="10" d="M20.5,10.5h-4l-0.992,3.994
			C14.289,15.406,13.5,16.861,13.5,18.5c0,2.762,2.238,5,5,5c2.762,0,5-2.238,5-5c0-1.75-0.82-3.04-2-3.955L20.5,10.5z"/>
		<circle fill="none" stroke="#000000" stroke-linejoin="round" stroke-miterlimit="10" cx="18.5" cy="18.5" r="2.5"/>
		<path fill="none" stroke="#000000" stroke-linejoin="round" stroke-miterlimit="10" d="M5.5,10.5V8c0-3.589,2.911-6.5,6.5-6.5
			c3.59,0,6.5,2.911,6.5,6.5v2.5"/>
	</g>
</g>
</svg>
