<?xml version="1.0" encoding="utf-8"?>
<!-- Generator: Adobe Illustrator 19.2.0, SVG Export Plug-In . SVG Version: 6.00 Build 0)  -->
<svg version="1.1" id="Layer_1" xmlns="http://www.w3.org/2000/svg" xmlns:xlink="http://www.w3.org/1999/xlink" x="0px" y="0px"
	 viewBox="0 0 24 24" style="enable-background:new 0 0 24 24;" xml:space="preserve">
<style type="text/css">
	.st0{display:none;}
	.st1{display:inline;}
	.st2{fill:none;stroke:#000000;stroke-linecap:round;stroke-linejoin:round;stroke-miterlimit:10;}
</style>
<g id="Filled_Icon" class="st0">
	<path class="st1" d="M5.5,3C4.1,3,3,4.1,3,5.5C3,6.9,4.1,8,5.5,8C6.9,8,8,6.9,8,5.5C8,4.1,6.9,3,5.5,3z"/>
	<g class="st1">
		<path d="M4,12.5C4,11.7,3.5,11,2.8,11H0v8.5c0,2.3,1.8,4.2,4,4.4V12.5z"/>
		<path d="M21.5,2h-9C12.2,2,12,2.2,12,2.5V6h-1V4.5C11,2,9,0,6.5,0h-2C2,0,0,2,0,4.5V10h2.8C4,10,5,11.1,5,12.5V24h3.5
			C8.8,24,9,23.8,9,23.5v-11h1.5c0.3,0,0.5-0.2,0.5-0.5V7h1v3.5c0,0.3,0.2,0.5,0.5,0.5h9c1.4,0,2.5-1.1,2.5-2.5v-4
			C24,3.1,22.9,2,21.5,2z M5.5,9C3.6,9,2,7.4,2,5.5C2,3.6,3.6,2,5.5,2C7.4,2,9,3.6,9,5.5C9,7.4,7.4,9,5.5,9z"/>
	</g>
</g>
<g id="Outline_Icons">
	<g>
		<path class="st2" d="M8.5,23.5h-4c-2.2,0-4-1.8-4-4v-15c0-2.2,1.8-4,4-4h2c2.2,0,4,1.8,4,4V12"/>
		<path class="st2" d="M12.5,10.5h9c1.1,0,2-0.9,2-2v-4c0-1.1-0.9-2-2-2h-9"/>
		<line class="st2" x1="12.5" y1="2.5" x2="12.5" y2="10.5"/>
		<line class="st2" x1="10.5" y1="6.5" x2="12.5" y2="6.5"/>
		<circle class="st2" cx="5.5" cy="5.5" r="3"/>
		<line class="st2" x1="8.5" y1="12" x2="10.5" y2="12"/>
		<line class="st2" x1="8.5" y1="23.5" x2="8.5" y2="12"/>
		<path class="st2" d="M3.2,10.5c0,0,0.8,0,1.7,0c0.9,0,1.7,0.9,1.7,2V21"/>
	</g>
</g>
</svg>
