<?xml version="1.0" encoding="utf-8"?>
<!-- Generator: Adobe Illustrator 19.2.0, SVG Export Plug-In . SVG Version: 6.00 Build 0)  -->
<svg version="1.1" id="Outline_Icons" xmlns="http://www.w3.org/2000/svg" xmlns:xlink="http://www.w3.org/1999/xlink" x="0px"
	 y="0px" viewBox="0 0 24 24" style="enable-background:new 0 0 24 24;" xml:space="preserve">
<style type="text/css">
	.st0{fill:none;stroke:#000000;stroke-linecap:round;stroke-linejoin:round;stroke-miterlimit:10;}
</style>
<g>
	<path class="st0" d="M23.5,14c0-2.5-2-4.5-4.5-4.5H5c-2.5,0-4.5,2-4.5,4.5v6.5c0,1.7,1.3,3,3,3h17c1.7,0,3-1.3,3-3V14z"/>
	<path class="st0" d="M5.5,23.5c0-2.8-2.2-5-5-5"/>
	<path class="st0" d="M18.5,23.5c0-2.8,2.2-5,5-5"/>
	<line class="st0" x1="21.5" y1="14.5" x2="2.5" y2="14.5"/>
	<line class="st0" x1="4.5" y1="16" x2="4.5" y2="17"/>
	<path class="st0" d="M16.5,11.5V5c0-2.5-2-4.5-4.5-4.5S7.5,2.5,7.5,5v6.5"/>
</g>
</svg>
