<?xml version="1.0" encoding="utf-8"?>
<!-- Generator: Adobe Illustrator 19.2.0, SVG Export Plug-In . SVG Version: 6.00 Build 0)  -->
<svg version="1.1" id="Outline_Icons" xmlns="http://www.w3.org/2000/svg" xmlns:xlink="http://www.w3.org/1999/xlink" x="0px"
	 y="0px" viewBox="0 0 24 24" style="enable-background:new 0 0 24 24;" xml:space="preserve">
<style type="text/css">
	.st0{fill:none;stroke:#000000;stroke-linecap:round;stroke-linejoin:round;stroke-miterlimit:10;}
</style>
<g>
	<path class="st0" d="M22,23.5L19.5,20v-4.6c0-1.7-2.1-2.5-4-4.2"/>
	<path class="st0" d="M17,17.5l-2.8-2.8c-0.4-0.4-1.1-0.4-1.5,0s-0.4,1.1,0,1.5l2.8,3.2V21c0,1,1.5,2.5,1.5,2.5"/>
	<path class="st0" d="M12.5,21.5H7c-0.8,0-1.5-0.7-1.5-1.5V9c0-0.8,0.7-1.5,1.5-1.5h7c0.8,0,1.5,0.7,1.5,1.5v5"/>
	<g>
		<g>
			<g>
				<path d="M8.5,10C8.2,10,8,10.2,8,10.5S8.2,11,8.5,11S9,10.8,9,10.5S8.8,10,8.5,10L8.5,10z"/>
			</g>
		</g>
	</g>
	<g>
		<g>
			<g>
				<path d="M10.5,10c-0.3,0-0.5,0.2-0.5,0.5s0.2,0.5,0.5,0.5s0.5-0.2,0.5-0.5S10.8,10,10.5,10L10.5,10z"/>
			</g>
		</g>
	</g>
	<g>
		<g>
			<g>
				<path d="M12.5,10c-0.3,0-0.5,0.2-0.5,0.5s0.2,0.5,0.5,0.5s0.5-0.2,0.5-0.5S12.8,10,12.5,10L12.5,10z"/>
			</g>
		</g>
	</g>
	<g>
		<g>
			<g>
				<path d="M8.5,12C8.2,12,8,12.2,8,12.5S8.2,13,8.5,13S9,12.8,9,12.5S8.8,12,8.5,12L8.5,12z"/>
			</g>
		</g>
	</g>
	<g>
		<g>
			<g>
				<path d="M8.5,14C8.2,14,8,14.2,8,14.5S8.2,15,8.5,15S9,14.8,9,14.5S8.8,14,8.5,14L8.5,14z"/>
			</g>
		</g>
	</g>
	<g>
		<g>
			<g>
				<path d="M8.5,16C8.2,16,8,16.2,8,16.5S8.2,17,8.5,17S9,16.8,9,16.5S8.8,16,8.5,16L8.5,16z"/>
			</g>
		</g>
	</g>
	<g>
		<g>
			<g>
				<path d="M8.5,18C8.2,18,8,18.2,8,18.5S8.2,19,8.5,19S9,18.8,9,18.5S8.8,18,8.5,18L8.5,18z"/>
			</g>
		</g>
	</g>
	<g>
		<g>
			<g>
				<path d="M10.5,12c-0.3,0-0.5,0.2-0.5,0.5s0.2,0.5,0.5,0.5s0.5-0.2,0.5-0.5S10.8,12,10.5,12L10.5,12z"/>
			</g>
		</g>
	</g>
	<g>
		<g>
			<g>
				<path d="M10.5,14c-0.3,0-0.5,0.2-0.5,0.5s0.2,0.5,0.5,0.5s0.5-0.2,0.5-0.5S10.8,14,10.5,14L10.5,14z"/>
			</g>
		</g>
	</g>
	<g>
		<g>
			<g>
				<path d="M10.5,16c-0.3,0-0.5,0.2-0.5,0.5s0.2,0.5,0.5,0.5s0.5-0.2,0.5-0.5S10.8,16,10.5,16L10.5,16z"/>
			</g>
		</g>
	</g>
	<g>
		<g>
			<g>
				<path d="M10.5,18c-0.3,0-0.5,0.2-0.5,0.5s0.2,0.5,0.5,0.5s0.5-0.2,0.5-0.5S10.8,18,10.5,18L10.5,18z"/>
			</g>
		</g>
	</g>
	<g>
		<g>
			<g>
				<path d="M12.5,12c-0.3,0-0.5,0.2-0.5,0.5s0.2,0.5,0.5,0.5s0.5-0.2,0.5-0.5S12.8,12,12.5,12L12.5,12z"/>
			</g>
		</g>
	</g>
	<path class="st0" d="M15.3,1.9c-1.4-0.9-3-1.4-4.7-1.4C8.8,0.5,7.2,1,5.8,1.9"/>
	<path class="st0" d="M14.2,3.6c-1-0.7-2.3-1.1-3.6-1.1S8,2.9,7,3.6"/>
	<path class="st0" d="M13.1,5.3c-0.7-0.5-1.6-0.8-2.5-0.8c-0.9,0-1.8,0.3-2.5,0.8"/>
</g>
</svg>
