<?xml version="1.0" encoding="utf-8"?>
<!-- Generator: Adobe Illustrator 19.2.0, SVG Export Plug-In . SVG Version: 6.00 Build 0)  -->
<svg version="1.1" id="Layer_1" xmlns="http://www.w3.org/2000/svg" xmlns:xlink="http://www.w3.org/1999/xlink" x="0px" y="0px"
	 viewBox="0 0 24 24" style="enable-background:new 0 0 24 24;" xml:space="preserve">
<style type="text/css">
	.st0{display:none;}
	.st1{display:inline;}
	.st2{fill:none;stroke:#000000;stroke-linecap:round;stroke-linejoin:round;stroke-miterlimit:10;}
	.st3{fill:none;stroke:#000000;stroke-linejoin:round;stroke-miterlimit:10;}
</style>
<g id="Filled_Icon" class="st0">
	<g class="st1">
		<g>
			<path d="M9.5,20H9H4H3.5C3.2,20,3,20.2,3,20.5v3C3,23.8,3.2,24,3.5,24h6c0.3,0,0.5-0.2,0.5-0.5v-3C10,20.2,9.8,20,9.5,20z"/>
			<path d="M3.8,19H9v-3c0,0,0-0.1,0-0.1c0-0.1-0.9-3-1.6-4.1c-0.5-0.8-1.3-0.9-1.8-0.7c-0.6,0.2-1,1-0.8,2l0.3,1.3l-1.6-1.6
				c0-3.2-0.6-5.3-1.7-6.1C1.1,6.2,0.4,6.4,0.3,6.5C0.1,6.5,0,6.7,0,6.9V15c0,0.2,0.1,0.3,0.2,0.4C1,16,3.1,18.2,3.8,19z"/>
		</g>
		<g>
			<path d="M20.5,20H20h-5h-0.5c-0.3,0-0.5,0.2-0.5,0.5v3c0,0.3,0.2,0.5,0.5,0.5h6c0.3,0,0.5-0.2,0.5-0.5v-3
				C21,20.2,20.8,20,20.5,20z"/>
			<path d="M23.7,6.5c-0.1,0-0.7-0.2-1.5,0.3c-1.1,0.8-1.7,2.8-1.7,6.1l-1.6,1.6l0.3-1.3c0.3-1.1-0.2-1.8-0.8-2
				c-0.5-0.2-1.3-0.1-1.8,0.7c-0.7,1.1-1.6,4-1.6,4.1c0,0,0,0.1,0,0.1v3h5.2c0.8-0.8,3-3,3.7-3.6c0.1-0.1,0.1-0.2,0.1-0.4V6.9
				C24,6.7,23.9,6.5,23.7,6.5z"/>
		</g>
		<g>
			<polygon points="13.8,5 10.2,5 12,10.5 			"/>
			<polygon points="8.8,4 8,0.4 5.2,4 			"/>
			<polygon points="8.9,0 9.9,4 14.1,4 15.1,0 			"/>
			<polygon points="14.9,5 12.5,12.1 12.6,12.1 18.7,5 			"/>
			<polygon points="15.1,4 18.8,4 16,0.4 			"/>
			<polygon points="11.5,12.1 9.1,5 5.3,5 11.5,12.1 			"/>
		</g>
	</g>
</g>
<g id="Outline_Icons">
	<g>
		<line class="st2" x1="18.5" y1="4.5" x2="5.5" y2="4.5"/>
		<polygon class="st2" points="12,12 5.5,4.5 8.5,0.5 15.5,0.5 18.5,4.5 		"/>
		<rect x="14.5" y="20.5" class="st3" width="6" height="3"/>
		<path class="st2" d="M19.5,20.5V19c0,0,3.2-3.2,4-4c0-1.4,0-8.1,0-8.1S21,6,21,13l-3,3l0.7-3c0.3-1.4-1-2.1-1.7-0.9
			c-0.7,1-1.5,4-1.5,4v4.5"/>
		<rect x="3.5" y="20.5" class="st3" width="6" height="3"/>
		<path class="st2" d="M4.5,20.5V19c0,0-3-3.2-4-4c0-1.4,0-8.1,0-8.1S3,6,3,13l3,3l-0.7-3c-0.3-1.4,1-2.1,1.7-0.9c0.7,1,1.5,4,1.5,4
			v4.5"/>
		<polyline class="st2" points="8.5,0.5 9.5,4.5 12,12 		"/>
		<polyline class="st2" points="15.5,0.5 14.5,4.5 12,12 		"/>
	</g>
</g>
</svg>
