<?xml version="1.0" encoding="utf-8"?>
<!-- Generator: Adobe Illustrator 19.2.0, SVG Export Plug-In . SVG Version: 6.00 Build 0)  -->
<svg version="1.1" id="Layer_1" xmlns="http://www.w3.org/2000/svg" xmlns:xlink="http://www.w3.org/1999/xlink" x="0px" y="0px"
	 viewBox="0 0 24 24" style="enable-background:new 0 0 24 24;" xml:space="preserve">
<style type="text/css">
	.st0{display:none;}
	.st1{display:inline;}
	.st2{fill:none;stroke:#000000;stroke-linecap:round;stroke-linejoin:round;stroke-miterlimit:10;}
</style>
<g id="Filled_Icon" class="st0">
	<g class="st1">
		<path d="M21.5,5H17V4.5C17,2.6,15.4,1,13.5,1h-3C8.6,1,7,2.6,7,4.5V5H2.5C1.1,5,0,6.1,0,7.5v7C0,14.8,0.2,15,0.5,15H9v-1.5
			C9,13.2,9.2,13,9.5,13h5c0.3,0,0.5,0.2,0.5,0.5V15h8.5c0.3,0,0.5-0.2,0.5-0.5v-7C24,6.1,22.9,5,21.5,5z M16,5H8V4.5
			C8,3.1,9.1,2,10.5,2h3C14.9,2,16,3.1,16,4.5V5z"/>
		<path d="M22.5,16H15v0.5c0,0.3-0.2,0.5-0.5,0.5h-5C9.2,17,9,16.8,9,16.5V16H1.5C1.2,16,1,16.2,1,16.5v5C1,21.8,1.2,22,1.5,22h21
			c0.3,0,0.5-0.2,0.5-0.5v-5C23,16.2,22.8,16,22.5,16z"/>
		<rect x="10" y="14" width="4" height="2"/>
	</g>
</g>
<g id="Outline_Icons">
	<g>
		<path class="st2" d="M1.5,15.5v6h21v-6h1v-8c0-1.1-0.9-2-2-2h-19c-1.1,0-2,0.9-2,2v8H1.5z"/>
		<rect x="9.5" y="13.5" class="st2" width="5" height="3"/>
		<path class="st2" d="M16.5,5.5h-9v-1c0-1.7,1.3-3,3-3h3c1.7,0,3,1.3,3,3V5.5z"/>
		<line class="st2" x1="1.5" y1="15.5" x2="9.5" y2="15.5"/>
		<line class="st2" x1="14.5" y1="15.5" x2="22.5" y2="15.5"/>
	</g>
</g>
</svg>
