<?xml version="1.0" encoding="utf-8"?>
<!-- Generator: Adobe Illustrator 19.2.0, SVG Export Plug-In . SVG Version: 6.00 Build 0)  -->
<svg version="1.1" id="Layer_1" xmlns="http://www.w3.org/2000/svg" xmlns:xlink="http://www.w3.org/1999/xlink" x="0px" y="0px"
	 viewBox="0 0 24 24" style="enable-background:new 0 0 24 24;" xml:space="preserve">
<style type="text/css">
	.st0{display:none;}
	.st1{display:inline;}
	.st2{fill:none;stroke:#000000;stroke-linejoin:round;stroke-miterlimit:10;}
	.st3{fill:none;stroke:#000000;stroke-linecap:round;stroke-linejoin:round;stroke-miterlimit:10;}
</style>
<g id="Filled_Icons" class="st0">
	<g class="st1">
		<g>
			<path d="M23.5,1H20c-0.3,0-0.5,0.2-0.5,0.5v8c0,0.3,0.2,0.5,0.5,0.5h3.5c0.3,0,0.5-0.2,0.5-0.5v-8C24,1.2,23.8,1,23.5,1z"/>
		</g>
		<g>
			<path d="M5.6,14.6c-0.1,0-0.3,0-0.4-0.1C5,14.3,5,14,5.2,13.8l2-2c0.2-0.2,0.5-0.2,0.7,0c0.2,0.2,0.2,0.5,0,0.7l-2,2
				C5.8,14.6,5.7,14.6,5.6,14.6z"/>
		</g>
		<g>
			<path d="M14.6,13.6c-0.1,0-0.2,0-0.3-0.1l-2-1.9c-0.2-0.2-0.2-0.5,0-0.7c0.2-0.2,0.5-0.2,0.7,0l2,1.9c0.2,0.2,0.2,0.5,0,0.7
				C14.8,13.6,14.7,13.6,14.6,13.6z"/>
		</g>
		<g>
			<path d="M17.3,17C17.3,17,17.3,17,17.3,17c-0.4-0.1-0.5-0.3-0.5-0.6l0.5-2.7c0-0.3,0.3-0.5,0.6-0.4c0.3,0,0.5,0.3,0.4,0.6
				l-0.5,2.7C17.8,16.9,17.6,17,17.3,17z"/>
		</g>
		<g>
			<path d="M12.5,17.7c-0.1,0-0.3-0.1-0.4-0.2l-1.9-2c-0.2-0.2-0.2-0.5,0-0.7c0.2-0.2,0.5-0.2,0.7,0l1.9,2c0.2,0.2,0.2,0.5,0,0.7
				C12.8,17.6,12.6,17.7,12.5,17.7z"/>
		</g>
		<g>
			<path d="M7.6,20c-0.3,0-0.5-0.2-0.5-0.5L7,16.8c0-0.3,0.2-0.5,0.5-0.5c0.3,0,0.5,0.2,0.5,0.5l0.2,2.8C8.2,19.8,7.9,20,7.6,20
				C7.7,20,7.6,20,7.6,20z"/>
		</g>
		<g>
			<path d="M10.4,22.5c-0.2,0-0.3-0.1-0.4-0.2c-0.2-0.2-0.1-0.5,0.1-0.7l2.2-1.6c0.2-0.2,0.5-0.1,0.7,0.1c0.2,0.2,0.1,0.5-0.1,0.7
				l-2.2,1.6C10.6,22.4,10.5,22.5,10.4,22.5z"/>
		</g>
		<g>
			<path d="M7.9,23c0,0-0.1,0-0.1,0l-2.7-0.7c-0.3-0.1-0.4-0.3-0.4-0.6c0.1-0.3,0.3-0.4,0.6-0.4L8,22c0.3,0.1,0.4,0.3,0.4,0.6
				C8.3,22.8,8.1,23,7.9,23z"/>
		</g>
		<g>
			<path d="M15.9,23c-0.2,0-0.4-0.2-0.5-0.4L14.7,20c-0.1-0.3,0.1-0.5,0.4-0.6c0.3-0.1,0.5,0.1,0.6,0.4l0.7,2.7
				c0.1,0.3-0.1,0.5-0.4,0.6C16,23,15.9,23,15.9,23z"/>
		</g>
		<g>
			<path d="M1.8,20.8c-0.1,0-0.2,0-0.3-0.1c-0.2-0.2-0.3-0.5-0.1-0.7l1.6-2.3c0.2-0.2,0.5-0.3,0.7-0.1c0.2,0.2,0.3,0.5,0.1,0.7
				l-1.6,2.3C2.1,20.7,1.9,20.8,1.8,20.8z"/>
		</g>
		<g>
			<path d="M2.8,13c-0.2,0-0.5-0.2-0.5-0.4L1.9,9.9c0-0.3,0.1-0.5,0.4-0.6c0.3,0,0.5,0.1,0.6,0.4l0.4,2.7C3.3,12.7,3.1,13,2.8,13
				C2.8,13,2.8,13,2.8,13z"/>
		</g>
		<g>
			<g>
				<path d="M18.5,2.1c-0.8-0.3-1.5-0.5-2.1-0.7c-5.5-1.9-5.6-1.9-10.8,0.9C4.2,3,2.5,3.9,0.3,5C0.1,5.1,0,5.2,0,5.4
					c0,0.2,0,0.3,0.1,0.4C1.3,7,2.3,7.3,3.7,6.9l5.9-2.1l2.7,0.6c-0.2,0.1-0.3,0.2-0.5,0.4C10,7.1,8.2,8.4,8.8,9.5
					c0.3,0.5,0.6,0.7,1,0.7c0.6,0,1.5-0.4,2.9-1c0.7-0.3,1.5-0.7,2.6-1.1l3.2,1.1V2.1z"/>
			</g>
		</g>
	</g>
</g>
<g id="Outline_Icons">
	<g>
		<rect x="19.5" y="1.6" class="st2" width="4" height="8"/>
		<path class="st3" d="M19.5,3c-10.7-3.6-6.8-3.6-19,2.5c1.1,1.1,1.9,1.3,3,1l6-2.2l3.8,0.9c-1.1,1-4.6,3-4,4.1
			c0.5,1,1.1,0.4,6.1-1.7l4.1,1.4"/>
		<line class="st3" x1="7.5" y1="12.2" x2="5.6" y2="14.1"/>
		<line class="st3" x1="12.6" y1="11.2" x2="14.6" y2="13.1"/>
		<line class="st3" x1="17.8" y1="13.8" x2="17.3" y2="16.5"/>
		<line class="st3" x1="10.6" y1="15.2" x2="12.5" y2="17.2"/>
		<line class="st3" x1="7.5" y1="16.8" x2="7.6" y2="19.5"/>
		<line class="st3" x1="12.7" y1="20.4" x2="10.4" y2="22"/>
		<line class="st3" x1="7.9" y1="22.5" x2="5.2" y2="21.8"/>
		<line class="st3" x1="15.2" y1="19.8" x2="15.9" y2="22.5"/>
		<line class="st3" x1="3.4" y1="18" x2="1.8" y2="20.3"/>
		<line class="st3" x1="2.4" y1="9.8" x2="2.8" y2="12.5"/>
	</g>
</g>
</svg>
