<?xml version="1.0" encoding="utf-8"?>
<!-- Generator: Adobe Illustrator 19.2.0, SVG Export Plug-In . SVG Version: 6.00 Build 0)  -->
<svg version="1.1" id="Layer_1" xmlns="http://www.w3.org/2000/svg" xmlns:xlink="http://www.w3.org/1999/xlink" x="0px" y="0px"
	 viewBox="0 0 24 24" enable-background="new 0 0 24 24" xml:space="preserve">
<g id="Filled_Icons" display="none">
	<g display="inline">
		<path d="M14.84,19.641l-2.605-2.42l2.32-2.154c0,0-0.688-0.465-0.871-0.555L11.5,16.538l-2.164-2.009
			c-0.195,0.093-0.914,0.515-0.914,0.515l2.344,2.177l-2.606,2.42C8.058,19.734,8,19.867,8,20.006c0,1.383,1.763,2,3.51,2
			c1.737,0,3.49-0.617,3.49-2C15,19.867,14.941,19.734,14.84,19.641z"/>
		<g>
			<path d="M8.209,13.988c0.44-0.252,0.846-0.436,1.243-0.586L4.886,3.471C3.207,4.238,1.615,5.29,0.16,6.64
				C0.058,6.734,0,6.867,0,7.006c0,0.139,0.058,0.272,0.16,0.367l7.509,6.973L8.209,13.988z"/>
			<path d="M12,2.031v11.012c0.192,0.016,0.383,0.037,0.57,0.07L17.195,3.08C15.531,2.438,13.789,2.088,12,2.031z"/>
			<path d="M10.423,13.12c0.19-0.037,0.384-0.064,0.577-0.079V2.031C9.21,2.086,7.467,2.438,5.805,3.077L10.423,13.12z"/>
			<path d="M22.84,6.639c-1.457-1.349-3.048-2.396-4.725-3.164l-4.566,9.907c0.436,0.16,0.856,0.354,1.248,0.611l0.499,0.383
				l7.544-7.003C22.941,7.278,23,7.146,23,7.006C23,6.867,22.941,6.734,22.84,6.639z"/>
		</g>
	</g>
</g>
<g id="Outline_Icons">
	<g>
		<path fill="none" stroke="#000000" stroke-linecap="round" stroke-linejoin="round" stroke-miterlimit="10" d="M14.521,14.404
			C13.654,13.833,12.615,13.5,11.5,13.5c-0.988,0-1.887,0.251-3.017,0.9"/>
		<path fill="none" stroke="#000000" stroke-linecap="round" stroke-linejoin="round" stroke-miterlimit="10" d="M8.5,20l14-13
			c-2.941-2.723-6.675-4.5-11-4.5c-4.334,0-8.057,1.767-11,4.5l14,13C14.5,22.009,8.5,21.991,8.5,20z"/>
		
			<line fill="none" stroke="#000000" stroke-linecap="round" stroke-linejoin="round" stroke-miterlimit="10" x1="5.543" y1="3.698" x2="10.137" y2="13.671"/>
		
			<line fill="none" stroke="#000000" stroke-linecap="round" stroke-linejoin="round" stroke-miterlimit="10" x1="17.455" y1="3.703" x2="12.863" y2="13.671"/>
		
			<line fill="none" stroke="#000000" stroke-linecap="round" stroke-linejoin="round" stroke-miterlimit="10" x1="11.5" y1="13.5" x2="11.5" y2="2.5"/>
	</g>
</g>
</svg>
