<?xml version="1.0" encoding="utf-8"?>
<!-- Generator: Adobe Illustrator 19.2.0, SVG Export Plug-In . SVG Version: 6.00 Build 0)  -->
<svg version="1.1" id="Layer_1" xmlns="http://www.w3.org/2000/svg" xmlns:xlink="http://www.w3.org/1999/xlink" x="0px" y="0px"
	 viewBox="0 0 24 24" style="enable-background:new 0 0 24 24;" xml:space="preserve">
<style type="text/css">
	.st0{display:none;}
	.st1{display:inline;}
	.st2{fill:none;stroke:#000000;stroke-linecap:round;stroke-linejoin:round;stroke-miterlimit:10;}
</style>
<g id="Filled_Icon" class="st0">
	<g class="st1">
		<path d="M5.5,7C5.8,7,6,6.8,6,6.5C6,2.7,9.1,1,12,1c2.9,0,6,1.7,6,5.5C18,6.8,18.3,7,18.5,7C18.8,7,19,6.8,19,6.5
			c0-2-0.8-3.7-2.2-4.9c-1.3-1-3-1.6-4.8-1.6C8.6,0,5,2.2,5,6.5C5,6.8,5.3,7,5.5,7z"/>
		<path d="M23,17.6L21,6.4C21,6.2,20.8,6,20.5,6C20.2,6,20,6.3,20,6.5C20,7.3,19.4,8,18.5,8h-13C4.7,8,4,7.3,4,6.5
			C4,6.3,3.8,6,3.6,6C3.3,6,3.1,6.2,3,6.4l-2,11.1c-0.3,1.6,0.2,3.2,1.2,4.5c1,1.2,2.6,2,4.2,2h11.1c1.6,0,3.2-0.7,4.2-2
			C22.8,20.8,23.3,19.2,23,17.6z M19,11H7v1.5C7,12.8,6.8,13,6.5,13C6.3,13,6,12.8,6,12.5V11H5.5C5.3,11,5,10.8,5,10.5
			C5,10.2,5.3,10,5.5,10H19c0.3,0,0.5,0.2,0.5,0.5C19.5,10.8,19.3,11,19,11z"/>
	</g>
</g>
<g id="Outline_Icons">
	<g>
		<path class="st2" d="M18.5,6.5c0-8-13-8-13,0"/>
		<path class="st2" d="M5.5,8.5h13c1.1,0,2-0.9,2-2l2,11.1c0.3,1.5-0.1,3-1.1,4.1c-1,1.1-2.4,1.8-3.8,1.8H6.5
			c-1.5,0-2.9-0.7-3.8-1.8c-0.9-1.1-1.4-2.6-1.1-4.1l2-11.1C3.5,7.6,4.4,8.5,5.5,8.5z"/>
		<line class="st2" x1="6.5" y1="10.5" x2="6.5" y2="12.5"/>
		<line class="st2" x1="5.5" y1="10.5" x2="19" y2="10.5"/>
	</g>
</g>
</svg>
