<?xml version="1.0" encoding="utf-8"?>
<!-- Generator: Adobe Illustrator 19.2.0, SVG Export Plug-In . SVG Version: 6.00 Build 0)  -->
<svg version="1.1" id="Layer_1" xmlns="http://www.w3.org/2000/svg" xmlns:xlink="http://www.w3.org/1999/xlink" x="0px" y="0px"
	 viewBox="0 0 24 24" style="enable-background:new 0 0 24 24;" xml:space="preserve">
<style type="text/css">
	.st0{display:none;}
	.st1{display:inline;}
	.st2{fill:none;stroke:#000000;stroke-linecap:round;stroke-linejoin:round;stroke-miterlimit:10;}
	.st3{fill:none;stroke:#000000;stroke-linejoin:round;stroke-miterlimit:10;}
</style>
<g id="Filled_Icons" class="st0">
	<g class="st1">
		<path d="M8.8,16.9c-0.2-0.3-0.2-0.6-0.3-0.9h-4C4.2,16,4,15.8,4,15.5v-13C4,2.2,4.2,2,4.5,2h16C20.8,2,21,2.2,21,2.5V13l2.4,0.9
			c0.2,0.1,0.4,0.2,0.6,0.3V2.5C24,1.1,22.9,0,21.5,0h-19C1.1,0,0,1.1,0,2.5v13C0,16.9,1.1,18,2.5,18h6.9L8.8,16.9z M22,8.5
			c0.3,0,0.5,0.2,0.5,0.5c0,0.3-0.2,0.5-0.5,0.5c-0.3,0-0.5-0.2-0.5-0.5C21.5,8.7,21.7,8.5,22,8.5z M2.5,10c-0.6,0-1-0.4-1-1
			c0-0.6,0.4-1,1-1c0.6,0,1,0.4,1,1C3.5,9.6,3.1,10,2.5,10z"/>
		<path d="M23.1,14.8L18,13V8c0-0.9-0.5-1.5-1.2-1.5h-1.4C14.5,6.5,14,7.1,14,8v7.8l-0.8-1c-0.3-0.3-0.7-0.6-1.2-0.6l-1,0
			c-0.5,0-1,0.3-1.3,0.7c-0.3,0.4-0.3,1,0,1.5l3.7,6.8c0.3,0.5,0.7,0.8,1.3,0.8h6.4c0.6,0,1.1-0.4,1.4-1l1.5-6.7c0,0,0-0.1,0-0.1
			C24,15.5,23.6,14.9,23.1,14.8z"/>
	</g>
</g>
<g id="Outline_Icons">
	<g>
		<path class="st2" d="M7.5,17.5h-5c-1.1,0-2-0.9-2-2v-13c0-1.1,0.9-2,2-2h19c1.1,0,2,0.9,2,2v9"/>
		<polyline class="st2" points="7.5,15.5 4.5,15.5 4.5,2.5 20.5,2.5 20.5,11.5 		"/>
		<g>
			<g>
				<g>
					<g>
						<path d="M22,8.5c-0.3,0-0.5,0.2-0.5,0.5c0,0.3,0.2,0.5,0.5,0.5c0.3,0,0.5-0.2,0.5-0.5C22.5,8.7,22.3,8.5,22,8.5L22,8.5z"/>
					</g>
				</g>
			</g>
		</g>
		<path class="st3" d="M17.5,13.3V8c0-0.5-0.2-1-0.8-1h-1.4c-0.5,0-0.8,0.4-0.8,1v9.2l-1.7-2.1c-0.2-0.2-0.5-0.4-0.8-0.4l-1,0
			c-0.3,0-0.7,0.2-0.8,0.5c-0.2,0.3-0.2,0.7,0,1l3.7,6.8c0.2,0.3,0.5,0.5,0.8,0.5h6.4c0.4,0,0.7-0.2,0.9-0.6l1.5-6.7
			c0-0.4-0.2-0.8-0.6-1L17.5,13.3z"/>
		<path class="st3" d="M3,9c0,0.3-0.2,0.5-0.5,0.5l0,0C2.2,9.5,2,9.3,2,9l0,0c0-0.3,0.2-0.5,0.5-0.5l0,0C2.8,8.5,3,8.7,3,9L3,9z"/>
	</g>
</g>
</svg>
