<?xml version="1.0" encoding="utf-8"?>
<!-- Generator: Adobe Illustrator 19.2.0, SVG Export Plug-In . SVG Version: 6.00 Build 0)  -->
<svg version="1.1" id="Layer_1" xmlns="http://www.w3.org/2000/svg" xmlns:xlink="http://www.w3.org/1999/xlink" x="0px" y="0px"
	 viewBox="0 0 24 24" style="enable-background:new 0 0 24 24;" xml:space="preserve">
<style type="text/css">
	.st0{display:none;}
	.st1{display:inline;}
	.st2{fill:none;stroke:#000000;stroke-linejoin:round;stroke-miterlimit:10;}
</style>
<g id="Filled_Icons" class="st0">
	<g class="st1">
		<path d="M8.6,12.1c-0.1-0.3-0.4-0.5-0.7-0.6l-3.3-1.1c-0.6-0.2-1.3,0.1-1.5,0.7l-3,9.3c-0.3,0.9,0.2,2,1.2,2.3
			c0.5,0.2,2.1,0.7,2.6,0.7c0.8,0,1.5-0.5,1.7-1.2l3-9.3C8.8,12.7,8.7,12.4,8.6,12.1z"/>
		<path d="M14.9,10.5l3-1l-1.4-4.6c0-2.7-2.3-4.9-5-4.9c-2.7,0-5,2.2-5,4.9L5.1,9.5l3,1l0.5-1.4c1.7,1.2,4.1,1.2,5.7,0L14.9,10.5z
			 M11.5,7.5C10.1,7.5,9,6.4,9,5c0-1.4,1.1-2.5,2.5-2.5C12.9,2.5,14,3.6,14,5C14,6.4,12.9,7.5,11.5,7.5z"/>
		<path d="M22.9,20.5l-3-9.3c-0.2-0.6-0.9-0.9-1.5-0.7l-3.3,1.1c-0.3,0.1-0.6,0.3-0.7,0.6c-0.1,0.3-0.2,0.6-0.1,0.9l3,9.3
			c0.2,0.7,0.9,1.2,1.7,1.2c0.5,0,2.1-0.6,2.6-0.7C22.6,22.5,23.2,21.4,22.9,20.5z"/>
	</g>
</g>
<g id="Outline_Icons">
	<g>
		<g>
			<path class="st2" d="M7.9,11.4c0.4,0.1,0.6,0.5,0.4,0.9L5.2,22c-0.2,0.7-1,1.1-1.7,0.9l-2-0.6c-0.7-0.2-1.1-1-0.9-1.7l3.2-9.8
				c0.1-0.4,0.5-0.6,0.9-0.4L7.9,11.4z"/>
		</g>
		<g>
			<path class="st2" d="M15.2,11.4c-0.4,0.1-0.6,0.5-0.4,0.9l3.2,9.8c0.2,0.7,1,1.1,1.7,0.9l2-0.6c0.7-0.2,1.1-1,0.9-1.7l-3.2-9.8
				c-0.1-0.4-0.5-0.6-0.9-0.4L15.2,11.4z"/>
		</g>
		<circle class="st2" cx="11.5" cy="5" r="2"/>
		<path class="st2" d="M16,5c0-2.5-2-4.5-4.5-4.5C9,0.5,7,2.5,7,5l-1.7,5.5l2,0.7l1-2.9c0.8,0.8,1.9,1.2,3.1,1.2
			c1.2,0,2.3-0.5,3.1-1.2l1,2.9l2.1-0.6L16,5z"/>
	</g>
</g>
</svg>
