<?xml version="1.0" encoding="utf-8"?>
<!-- Generator: Adobe Illustrator 19.2.0, SVG Export Plug-In . SVG Version: 6.00 Build 0)  -->
<svg version="1.1" id="Layer_1" xmlns="http://www.w3.org/2000/svg" xmlns:xlink="http://www.w3.org/1999/xlink" x="0px" y="0px"
	 viewBox="0 0 24 24" enable-background="new 0 0 24 24" xml:space="preserve">
<g id="Filled_Icons" display="none">
	<g display="inline">
		<path d="M13.625,4.414L8.938,7.919c0.032,0.125,0.088,0.245,0.17,0.354c0.334,0.439,0.961,0.525,1.402,0.192l3.188-2.413
			c0.441-0.333,0.527-0.96,0.195-1.402C13.816,4.551,13.725,4.478,13.625,4.414z"/>
		<path d="M12.182,10.23l1.517-1.148c0.439-0.335,0.525-0.961,0.193-1.401c-0.108-0.144-0.254-0.236-0.408-0.302l-4.556,3.427
			c0.02,0.173,0.066,0.346,0.18,0.495c0.051,0.067,0.119,0.11,0.183,0.161C7.522,13.02,5,15.723,5,18.471
			c0,3.657,3.28,5.536,6.5,5.536c3.24,0,6.5-1.878,6.5-5.536C18,14.634,13.098,10.896,12.182,10.23z M11.5,22.006
			c-2.229,0-4.5-1.068-4.5-3.535c0-2.22,2.858-4.947,4.5-6.248c1.643,1.3,4.5,4.028,4.5,6.248C16,20.924,13.678,22.006,11.5,22.006z
			"/>
		<g>
			<path d="M13.468,1.375L8.927,4.771C8.94,4.958,8.988,5.142,9.108,5.302c0.334,0.44,0.961,0.527,1.402,0.193l3.188-2.413
				c0.441-0.335,0.527-0.961,0.195-1.401C13.779,1.532,13.629,1.44,13.468,1.375z"/>
			<polygon points="12.5,0.849 12.5,-0.029 10.5,-0.029 10.5,2.344 			"/>
		</g>
	</g>
</g>
<g id="Outline_Icons">
	<g>
		<path fill="none" stroke="#000000" stroke-linejoin="round" stroke-miterlimit="10" d="M17.029,19c0,6.063-11,6.124-11,0
			c0-3.589,5.5-7.5,5.5-7.5S17.029,15.411,17.029,19z"/>
		<line fill="none" stroke="#000000" stroke-linejoin="round" stroke-miterlimit="10" x1="11.5" y1="4" x2="11.5" y2="0"/>
		<path fill="none" stroke="#000000" stroke-linecap="round" stroke-linejoin="round" stroke-miterlimit="10" d="M13.893,8.396
			c0.332,0.44,0.246,1.066-0.193,1.402l-3.188,2.413c-0.441,0.333-1.068,0.247-1.402-0.193c-0.332-0.441-0.246-1.068,0.193-1.401
			l3.19-2.414C12.932,7.868,13.559,7.956,13.893,8.396z"/>
		<path fill="none" stroke="#000000" stroke-linecap="round" stroke-linejoin="round" stroke-miterlimit="10" d="M13.893,5.886
			c0.332,0.441,0.246,1.068-0.193,1.402L10.51,9.702c-0.441,0.333-1.068,0.246-1.402-0.193C8.775,9.068,8.861,8.44,9.301,8.107
			l3.19-2.413C12.932,5.359,13.559,5.446,13.893,5.886z"/>
		<path fill="none" stroke="#000000" stroke-linecap="round" stroke-linejoin="round" stroke-miterlimit="10" d="M13.893,3.396
			c0.332,0.44,0.246,1.066-0.193,1.402L10.51,7.211c-0.441,0.333-1.068,0.247-1.402-0.193C8.775,6.576,8.861,5.95,9.301,5.617
			l3.19-2.414C12.932,2.868,13.559,2.956,13.893,3.396z"/>
	</g>
</g>
</svg>
