<?xml version="1.0" encoding="utf-8"?>
<!-- Generator: Adobe Illustrator 19.2.0, SVG Export Plug-In . SVG Version: 6.00 Build 0)  -->
<svg version="1.1" id="Layer_1" xmlns="http://www.w3.org/2000/svg" xmlns:xlink="http://www.w3.org/1999/xlink" x="0px" y="0px"
	 viewBox="0 0 24 24" style="enable-background:new 0 0 24 24;" xml:space="preserve">
<style type="text/css">
	.st0{display:none;}
	.st1{display:inline;}
	.st2{fill:none;stroke:#000000;stroke-linejoin:round;stroke-miterlimit:10;}
</style>
<g id="Filled_Icon" class="st0">
	<path class="st1" d="M22.8,3.3c-0.4-2.3-2.2-3.1-4.6-1.9c-1.6,0.8-3.7,1.2-6.3,1.2c-3.5,0-6.8-0.7-7.9-1v-1C4,0.2,3.8,0,3.5,0h-3
		C0.2,0,0,0.2,0,0.5v23C0,23.8,0.2,24,0.5,24h3h3c0.1,0,0.1,0,0.2,0C18.2,19.7,23.7,8.1,22.8,3.3z M11.9,5.1v12.6
		c-0.3,0.3-0.7,0.5-1,0.8l0-13.4c0,0,0.1,0,0.1,0C11.3,5.1,11.6,5.1,11.9,5.1z M8.9,5.1c0.3,0,0.7,0,1,0l0,14.1
		c-0.3,0.2-0.7,0.4-1,0.6V5.1z M7.9,20.3c-0.3,0.1-0.7,0.3-1,0.4V4.9C7.2,5,7.5,5,7.9,5V20.3z M5.5,21H4V4.6
		c0.4,0.1,1.1,0.2,1.9,0.3v16.1C5.8,20.9,5.7,21,5.5,21C5.6,21,5.5,21,5.5,21z M12.9,16.9V5.1c0.3,0,0.7,0,1-0.1v10.9
		C13.6,16.2,13.2,16.6,12.9,16.9z M14.9,14.8V4.9c0.3-0.1,0.7-0.1,1-0.2v8.9C15.6,14,15.2,14.4,14.9,14.8z M16.9,12.2V4.4
		C17.3,4.3,17.6,4.2,18,4c1.2-0.5,1.9-0.1,2,0.9C20.1,6.4,18.9,9.3,16.9,12.2z"/>
</g>
<g id="Outline_Icons">
	<g>
		<rect x="0.5" y="0.5" class="st2" width="3" height="23"/>
		<path class="st2" d="M3.5,1.9c0,0,9.4,2.6,14.9-0.1c8-3.9,4,15.7-11.9,21.7h-3V1.9z"/>
		<path class="st2" d="M3.5,5c0,0,9.8,1.8,14.7-0.5c4.6-2.2-3.5,14.4-12.7,16h-2V5z"/>
		<line class="st2" x1="6.4" y1="20.3" x2="6.4" y2="5.4"/>
		<line class="st2" x1="8.4" y1="19.5" x2="8.4" y2="5.6"/>
		<line class="st2" x1="10.4" y1="18.3" x2="10.4" y2="5.6"/>
		<line class="st2" x1="12.4" y1="16.7" x2="12.4" y2="5.6"/>
		<line class="st2" x1="14.4" y1="14.6" x2="14.4" y2="5.4"/>
		<line class="st2" x1="16.4" y1="12" x2="16.4" y2="5.1"/>
	</g>
</g>
</svg>
