<?xml version="1.0" encoding="utf-8"?>
<!-- Generator: Adobe Illustrator 19.2.0, SVG Export Plug-In . SVG Version: 6.00 Build 0)  -->
<svg version="1.1" id="Layer_1" xmlns="http://www.w3.org/2000/svg" xmlns:xlink="http://www.w3.org/1999/xlink" x="0px" y="0px"
	 viewBox="0 0 24 24" style="enable-background:new 0 0 24 24;" xml:space="preserve">
<style type="text/css">
	.st0{display:none;}
	.st1{display:inline;}
	.st2{fill:none;stroke:#000000;stroke-linecap:round;stroke-linejoin:round;stroke-miterlimit:10;}
</style>
<g id="Filled_Icon" class="st0">
	<path class="st1" d="M23,8h-5.8l1.2-6.8c0.1-0.5-0.3-1.1-0.8-1.2c-0.6-0.1-1.1,0.3-1.2,0.8L15.2,8h-5l1.2-6.8
		c0.1-0.5-0.3-1.1-0.8-1.2C10-0.1,9.5,0.3,9.4,0.8L8.2,8H3C2.4,8,2,8.4,2,9c0,0.6,0.4,1,1,1h4.8l-0.8,4.5H1c-0.6,0-1,0.4-1,1
		c0,0.6,0.4,1,1,1h5.7l-1.1,6.3c-0.1,0.5,0.3,1.1,0.8,1.2c0.1,0,0.1,0,0.2,0c0.5,0,0.9-0.3,1-0.8l1.2-6.7h5l-1.1,6.3
		c-0.1,0.5,0.3,1.1,0.8,1.2c0.1,0,0.1,0,0.2,0c0.5,0,0.9-0.3,1-0.8l1.2-6.7H21c0.6,0,1-0.4,1-1c0-0.6-0.4-1-1-1h-4.9l0.8-4.5H23
		c0.6,0,1-0.4,1-1C24,8.4,23.6,8,23,8z M14.1,14.5h-5L9.9,10h5L14.1,14.5z"/>
</g>
<g id="Outline_Icons">
	<g>
		<line class="st2" x1="2.5" y1="9.5" x2="23.5" y2="9.5"/>
		<line class="st2" x1="0.5" y1="15.5" x2="21.5" y2="15.5"/>
		<line class="st2" x1="6.5" y1="23.5" x2="10.5" y2="0.5"/>
		<line class="st2" x1="13.5" y1="23.5" x2="17.5" y2="0.5"/>
	</g>
</g>
</svg>
