<?xml version="1.0" encoding="utf-8"?>
<!-- Generator: Adobe Illustrator 19.2.0, SVG Export Plug-In . SVG Version: 6.00 Build 0)  -->
<svg version="1.1" id="Layer_1" xmlns="http://www.w3.org/2000/svg" xmlns:xlink="http://www.w3.org/1999/xlink" x="0px" y="0px"
	 viewBox="0 0 24 24" enable-background="new 0 0 24 24" xml:space="preserve">
<g id="Filled_Icons" display="none">
	<g display="inline">
		<path d="M22,19.006H2c-1.104,0-2,0.896-2,2v1c0,1.104,0.896,2,2,2h20c1.103,0,2-0.896,2-2v-1C24,19.902,23.103,19.006,22,19.006z"
			/>
		<path d="M2.5,18.006h19c0.275,0,0.5-0.225,0.5-0.5c0-8.449-5.085-13.5-10-13.5c-4.916,0-10,5.051-10,13.5
			C2,17.781,2.224,18.006,2.5,18.006z"/>
		<path d="M15.5,3.506c0-0.276-0.225-0.5-0.5-0.5h-1.793l1.146-1.146c0.194-0.195,0.194-0.512,0-0.707
			c-0.195-0.195-0.513-0.195-0.707,0L12.5,2.299V0.506c0-0.276-0.224-0.5-0.5-0.5c-0.276,0-0.5,0.224-0.5,0.5v1.793l-1.146-1.146
			c-0.195-0.195-0.512-0.195-0.707,0c-0.195,0.195-0.195,0.512,0,0.707l1.146,1.146H9c-0.276,0-0.5,0.224-0.5,0.5
			c0,0.276,0.224,0.5,0.5,0.5h3h3C15.275,4.006,15.5,3.782,15.5,3.506z"/>
	</g>
</g>
<g id="Outline_Icons">
	<g>
		<path fill="none" stroke="#000000" stroke-linejoin="round" stroke-miterlimit="10" d="M23.5,22c0,0.828-0.672,1.5-1.5,1.5H2
			c-0.829,0-1.5-0.672-1.5-1.5v-1c0-0.828,0.671-1.5,1.5-1.5h20c0.828,0,1.5,0.672,1.5,1.5V22z"/>
		<path fill="none" stroke="#000000" stroke-linejoin="round" stroke-miterlimit="10" d="M2.5,19.5c0-8.285,4.253-15,9.5-15
			c5.245,0,9.5,6.715,9.5,15"/>
		
			<line fill="none" stroke="#000000" stroke-linecap="round" stroke-linejoin="round" stroke-miterlimit="10" x1="9" y1="3.5" x2="15" y2="3.5"/>
		
			<line fill="none" stroke="#000000" stroke-linecap="round" stroke-linejoin="round" stroke-miterlimit="10" x1="12" y1="0.5" x2="12" y2="3.5"/>
		<polyline fill="none" stroke="#000000" stroke-linecap="round" stroke-linejoin="round" stroke-miterlimit="10" points="14,1.5 
			12,3.5 10,1.5 		"/>
	</g>
</g>
</svg>
