<?xml version="1.0" encoding="utf-8"?>
<!-- Generator: Adobe Illustrator 19.2.0, SVG Export Plug-In . SVG Version: 6.00 Build 0)  -->
<svg version="1.1" id="Layer_1" xmlns="http://www.w3.org/2000/svg" xmlns:xlink="http://www.w3.org/1999/xlink" x="0px" y="0px"
	 viewBox="0 0 24 24" enable-background="new 0 0 24 24" xml:space="preserve">
<g id="Filled_Icons" display="none">
	<g display="inline">
		<g>
			<path d="M19.5,14.006v-3c0-0.707-0.045-0.773-0.104-1.229c-0.228-0.068-0.447-0.174-0.629-0.354L18.5,9.153v0.379
				c0,0.829-0.672,1.5-1.5,1.5c-0.828,0-1.5-0.671-1.5-1.5V9.153l-0.268,0.269c-0.293,0.292-0.678,0.438-1.062,0.438
				c-0.384,0-0.769-0.146-1.061-0.438c-0.586-0.586-0.586-1.536,0-2.122l0.269-0.268H13c-0.828,0-1.5-0.671-1.5-1.5
				c0-0.828,0.672-1.5,1.5-1.5h0.38l-0.269-0.269c-0.188-0.187-0.293-0.415-0.36-0.652c-0.083-0.011-0.166-0.025-0.249-0.035
				c-0.069-0.01-0.137-0.022-0.207-0.03c-0.264-0.025-0.528-0.04-0.795-0.04c-3.81,0-7.117,2.72-7.849,6.467
				c-0.002,0.006-0.006,0.011-0.008,0.02c-0.032,0.161-0.049,0.325-0.07,0.489c-0.011,0.078-0.025,0.153-0.033,0.231
				c-0.025,0.264-0.04,0.528-0.04,0.792v3L19.5,14.006L19.5,14.006z"/>
			<rect x="3.5" y="15.006" width="16" height="1"/>
			<path d="M22.825,19.127l-2.474-2.121H2.648l-2.474,2.121c-0.135,0.115-0.198,0.293-0.167,0.469
				c0.031,0.174,0.153,0.318,0.319,0.381c3.711,1.367,7.474,2.062,11.183,2.062c0.001,0,0.001,0,0.001,0
				c3.708,0,7.465-0.692,11.163-2.063c0.166-0.062,0.287-0.205,0.318-0.381C23.023,19.42,22.96,19.242,22.825,19.127z"/>
		</g>
		<path d="M21,5.032h-2.794l1.976-1.976c0.195-0.195,0.195-0.512,0-0.707c-0.195-0.195-0.512-0.195-0.707,0L17.5,4.325V1.532
			c0-0.276-0.225-0.5-0.5-0.5c-0.275,0-0.5,0.224-0.5,0.5v2.793L14.525,2.35c-0.195-0.195-0.512-0.195-0.707,0
			c-0.195,0.195-0.195,0.512,0,0.707l1.976,1.976H13c-0.275,0-0.5,0.224-0.5,0.5c0,0.276,0.225,0.5,0.5,0.5h2.793l-1.975,1.976
			c-0.195,0.194-0.195,0.511,0,0.706c0.098,0.098,0.226,0.146,0.354,0.146c0.128,0,0.256-0.049,0.354-0.146L16.5,6.738v2.794
			c0,0.276,0.225,0.5,0.5,0.5c0.275,0,0.5-0.224,0.5-0.5V6.738l1.975,1.976C19.572,8.812,19.7,8.86,19.828,8.86
			c0.128,0,0.256-0.049,0.354-0.146c0.195-0.195,0.195-0.512,0-0.706l-1.975-1.976H21c0.275,0,0.5-0.224,0.5-0.5
			C21.5,5.256,21.275,5.032,21,5.032z"/>
	</g>
</g>
<g id="Outline_Icons">
	<g>
		<path fill="none" stroke="#000000" stroke-linecap="round" stroke-linejoin="round" stroke-miterlimit="10" d="M18.866,9.58
			C18.954,10.041,19,10.514,19,11v5.5H4V11c0-4.142,3.357-7.5,7.5-7.5c0.485,0,0.959,0.045,1.419,0.134"/>
		<path fill="none" stroke="#000000" stroke-linejoin="round" stroke-miterlimit="10" d="M4,16.5l-3.5,3
			c7.361,2.713,14.693,2.703,22,0l-3.5-3H4z"/>
		<line fill="none" stroke="#000000" stroke-linejoin="round" stroke-miterlimit="10" x1="4" y1="14.5" x2="19" y2="14.5"/>
		<g>
			
				<line fill="none" stroke="#000000" stroke-linecap="round" stroke-linejoin="round" stroke-miterlimit="10" x1="17" y1="1.526" x2="17" y2="9.526"/>
			
				<line fill="none" stroke="#000000" stroke-linecap="round" stroke-linejoin="round" stroke-miterlimit="10" x1="19.828" y1="2.697" x2="14.172" y2="8.354"/>
			
				<line fill="none" stroke="#000000" stroke-linecap="round" stroke-linejoin="round" stroke-miterlimit="10" x1="21" y1="5.526" x2="13" y2="5.526"/>
			
				<line fill="none" stroke="#000000" stroke-linecap="round" stroke-linejoin="round" stroke-miterlimit="10" x1="19.828" y1="8.354" x2="14.172" y2="2.697"/>
		</g>
	</g>
</g>
</svg>
