<?xml version="1.0" encoding="utf-8"?>
<!-- Generator: Adobe Illustrator 19.2.0, SVG Export Plug-In . SVG Version: 6.00 Build 0)  -->
<svg version="1.1" id="Layer_1" xmlns="http://www.w3.org/2000/svg" xmlns:xlink="http://www.w3.org/1999/xlink" x="0px" y="0px"
	 viewBox="0 0 24 24" enable-background="new 0 0 24 24" xml:space="preserve">
<g id="Filled_Icons" display="none">
	<g display="inline">
		<rect x="6" y="16.006" width="3" height="6"/>
		<rect x="10" y="16.006" width="3" height="6"/>
		<path d="M19,15.006v-2c0-3.514-2.434-6.463-5.7-7.272C13.73,5.284,14,4.677,14,4.006c0-1.378-1.121-2.5-2.5-2.5
			c-1.379,0-2.5,1.122-2.5,2.5c0,0.671,0.269,1.278,0.7,1.728C6.433,6.543,4,9.492,4,13.006v2H19z"/>
		<path d="M19.5,16.006H18v6h1.5c1.379,0,2.5-1.121,2.5-2.5v-1C22,17.128,20.879,16.006,19.5,16.006z"/>
		<path d="M5,16.006H3.5c-1.379,0-2.5,1.122-2.5,2.5v1c0,1.379,1.121,2.5,2.5,2.5H5V16.006z"/>
		<rect x="14" y="16.006" width="3" height="6"/>
	</g>
</g>
<g id="Outline_Icons">
	<g>
		<path fill="none" stroke="#000000" stroke-linecap="round" stroke-linejoin="round" stroke-miterlimit="10" d="M21.5,19.5
			c0,1.104-0.897,2-2,2h-16c-1.105,0-2-0.896-2-2v-1c0-1.103,0.895-2,2-2h16c1.103,0,2,0.897,2,2V19.5z"/>
		<path fill="none" stroke="#000000" stroke-linecap="round" stroke-linejoin="round" stroke-miterlimit="10" d="M18.5,13.5
			c0-3.866-3.134-7-7-7c-3.865,0-7,3.134-7,7v3h14V13.5z"/>
		
			<circle fill="none" stroke="#000000" stroke-linecap="round" stroke-linejoin="round" stroke-miterlimit="10" cx="11.5" cy="4.5" r="2"/>
		
			<line fill="none" stroke="#000000" stroke-linecap="round" stroke-linejoin="round" stroke-miterlimit="10" x1="5.5" y1="16.5" x2="5.5" y2="21.5"/>
		
			<line fill="none" stroke="#000000" stroke-linecap="round" stroke-linejoin="round" stroke-miterlimit="10" x1="9.5" y1="16.5" x2="9.5" y2="21.5"/>
		
			<line fill="none" stroke="#000000" stroke-linecap="round" stroke-linejoin="round" stroke-miterlimit="10" x1="13.5" y1="16.5" x2="13.5" y2="21.5"/>
		
			<line fill="none" stroke="#000000" stroke-linecap="round" stroke-linejoin="round" stroke-miterlimit="10" x1="17.5" y1="16.5" x2="17.5" y2="21.5"/>
	</g>
</g>
</svg>
