<?xml version="1.0" encoding="utf-8"?>
<!-- Generator: Adobe Illustrator 19.2.0, SVG Export Plug-In . SVG Version: 6.00 Build 0)  -->
<svg version="1.1" id="Layer_1" xmlns="http://www.w3.org/2000/svg" xmlns:xlink="http://www.w3.org/1999/xlink" x="0px" y="0px"
	 viewBox="0 0 24 24" enable-background="new 0 0 24 24" xml:space="preserve">
<g id="Filled_Icons" display="none">
	<g display="inline">
		<path d="M23.5,20.506c-0.245,0-0.449,0.176-0.492,0.408c-0.322,0.298-1.966,0.663-4.91,0.887l0.217-2.295H5.687l0.216,2.295
			c-2.945-0.224-4.588-0.589-4.911-0.887c-0.043-0.232-0.247-0.408-0.491-0.408c-0.276,0-0.5,0.225-0.5,0.5c0,1.991,9.998,2,12,2
			c1.993,0,12-0.016,12-2C24,20.729,23.775,20.506,23.5,20.506z"/>
		<path d="M5.266,14.506h13.453c0.022,0,0.041,0.01,0.063,0.014l1.217-12.966c0.013-0.14-0.034-0.279-0.129-0.383
			s-0.229-0.164-0.369-0.164h-15c-0.141,0-0.275,0.06-0.37,0.164C4.035,1.273,3.989,1.413,4.002,1.553l1.216,12.962
			C5.234,14.514,5.248,14.506,5.266,14.506z"/>
		<path d="M5.625,18.506h12.719c0.021,0,0.041,0.01,0.063,0.014l0.282-3.014H5.311l0.282,3.008
			C5.604,18.512,5.613,18.506,5.625,18.506z"/>
	</g>
</g>
<g id="Outline_Icons">
	<g>
		<path fill="none" stroke="#000000" stroke-linecap="round" stroke-linejoin="round" stroke-miterlimit="10" d="M0.5,21
			c0,2,23,2,23,0"/>
		<polyline fill="none" stroke="#000000" stroke-linecap="round" stroke-linejoin="round" stroke-miterlimit="10" points="
			17.545,22.344 19.5,1.5 4.5,1.5 6.456,22.344 		"/>
		
			<line fill="none" stroke="#000000" stroke-linecap="round" stroke-linejoin="round" stroke-miterlimit="10" x1="6.125" y1="18.5" x2="17.853" y2="18.5"/>
		
			<line fill="none" stroke="#000000" stroke-linecap="round" stroke-linejoin="round" stroke-miterlimit="10" x1="5.771" y1="14.5" x2="18.228" y2="14.5"/>
	</g>
</g>
</svg>
