<?xml version="1.0" encoding="utf-8"?>
<!-- Generator: Adobe Illustrator 19.2.0, SVG Export Plug-In . SVG Version: 6.00 Build 0)  -->
<svg version="1.1" id="Layer_1" xmlns="http://www.w3.org/2000/svg" xmlns:xlink="http://www.w3.org/1999/xlink" x="0px" y="0px"
	 viewBox="0 0 24 24" enable-background="new 0 0 24 24" xml:space="preserve">
<g id="Filled_Icons" display="none">
	<g display="inline">
		<path d="M5.5,15.506h13c0.18,0,0.353-0.021,0.523-0.057c-0.875-2.086-1.117-4.125-1.301-5.707c-0.24-2.088-0.43-3.736-2.035-3.736
			c-0.301,0-0.635,0.066-1.021,0.203c-0.275,0.098-0.514,0.183-0.734,0.264c-0.311,0.27-0.648,0.908-0.953,1.489
			c-0.557,1.058-1.185,2.258-2.244,2.819c-0.075,0.039-0.155,0.059-0.234,0.059c-0.179,0-0.352-0.097-0.441-0.266
			c-0.13-0.245-0.037-0.548,0.207-0.677c0.785-0.417,1.339-1.471,1.826-2.4c0.09-0.172,0.178-0.337,0.266-0.498
			c-0.602,0.128-0.966-0.016-2.131-0.442l-0.89-0.322C8.963,6.103,8.633,6.038,8.326,6.038c-1.778,0-2.086,1.977-2.475,4.479
			c-0.224,1.438-0.49,3.137-1.06,4.875C5.018,15.459,5.252,15.506,5.5,15.506z"/>
		<g>
			<path d="M18.5,18.506h-13c-3.032,0-5.5-2.467-5.5-5.5c0-0.553,0.447-1,1-1c0.553,0,1,0.447,1,1c0,1.93,1.57,3.5,3.5,3.5h13
				c1.93,0,3.5-1.57,3.5-3.5c0-0.553,0.447-1,1-1c0.553,0,1,0.447,1,1C24,16.039,21.532,18.506,18.5,18.506z"/>
		</g>
	</g>
</g>
<g id="Outline_Icons">
	<g>
		<path fill="none" stroke="#000000" stroke-linecap="round" stroke-linejoin="round" stroke-miterlimit="10" d="M23.5,12.999
			c0,2.485-2.016,4.501-4.5,4.501H5c-2.486,0-4.5-2.016-4.5-4.501"/>
		<path fill="none" stroke="#000000" stroke-linecap="round" stroke-linejoin="round" stroke-miterlimit="10" d="M14.833,6.692
			c-3.255,1.15-2.477,1.159-5.663,0.026C5.585,5.446,7.289,11.614,4.5,17.5h15C15.855,11.595,18.51,5.394,14.833,6.692z"/>
		<path fill="none" stroke="#000000" stroke-linecap="round" stroke-linejoin="round" stroke-miterlimit="10" d="M14.062,7
			c-1.201,0.332-1.81,2.422-3.562,3.352"/>
	</g>
</g>
</svg>
