<?xml version="1.0" encoding="utf-8"?>
<!-- Generator: Adobe Illustrator 19.2.0, SVG Export Plug-In . SVG Version: 6.00 Build 0)  -->
<svg version="1.1" id="Layer_1" xmlns="http://www.w3.org/2000/svg" xmlns:xlink="http://www.w3.org/1999/xlink" x="0px" y="0px"
	 viewBox="0 0 24 24" enable-background="new 0 0 24 24" xml:space="preserve">
<g id="Filled_Icons" display="none">
	<g display="inline">
		<path d="M23.5,18.006h-6.063c-0.365-2.79-0.651-5.191-0.885-7.136C15.48,1.877,15.257,0.006,12,0.006
			c-3.293,0-3.56,2.277-4.551,10.753c-0.231,1.976-0.517,4.413-0.889,7.247H0.5c-0.276,0-0.5,0.225-0.5,0.5
			c0,0.525,0.071,1.025,0.196,1.5h23.607c0.125-0.475,0.196-0.975,0.196-1.5C24,18.229,23.775,18.006,23.5,18.006z"/>
		<path d="M5.5,24.006h13c2.223,0,4.053-1.191,4.934-3H0.566C1.446,22.815,3.277,24.006,5.5,24.006z"/>
	</g>
</g>
<g id="Outline_Icons">
	<g>
		<path fill="none" stroke="#000000" stroke-linecap="round" stroke-linejoin="round" stroke-miterlimit="10" d="M23.5,18.5
			c0,3-2.238,5-5,5h-13c-2.763,0-5-2-5-5H23.5z"/>
		<path fill="none" stroke="#000000" stroke-linecap="round" stroke-linejoin="round" stroke-miterlimit="10" d="M12,0.499
			C8.433,0.499,8.983,3.5,7,18.5h10C14.952,3,15.482,0.499,12,0.499z"/>
		<line fill="none" stroke="#000000" stroke-linejoin="round" stroke-miterlimit="10" x1="0.875" y1="20.5" x2="23.094" y2="20.5"/>
	</g>
</g>
</svg>
