<?xml version="1.0" encoding="utf-8"?>
<!-- Generator: Adobe Illustrator 19.2.0, SVG Export Plug-In . SVG Version: 6.00 Build 0)  -->
<svg version="1.1" id="Layer_1" xmlns="http://www.w3.org/2000/svg" xmlns:xlink="http://www.w3.org/1999/xlink" x="0px" y="0px"
	 viewBox="0 0 24 24" enable-background="new 0 0 24 24" xml:space="preserve">
<g id="Filled_Icons" display="none">
	<path display="inline" d="M14,15.006v5c0,0.79-0.201,1.528-0.529,2.193c0.473,0.195,0.987,0.307,1.529,0.307c2.206,0,4-1.794,4-4
		v-3.5H14z"/>
	<path display="inline" d="M17,5.006c-2.757,0-5,2.243-5,5v3.5c0,0.275,0.224,0.5,0.5,0.5h7c1.379,0,2.5-1.121,2.5-2.5v-1.5
		C22,7.249,19.757,5.006,17,5.006z"/>
	<path display="inline" d="M12.5,15.006c-0.828,0-1.5-0.671-1.5-1.5v-1.5h-1v1.5c0,1.379-1.121,2.5-2.5,2.5
		c-1.379,0-2.5-1.121-2.5-2.5v-1.5H2v3c0,1.104,0.897,2,2,2c0.552,0,1,0.449,1,1v2c0,2.206,1.794,4,4,4c2.206,0,4-1.794,4-4v-5H12.5
		z"/>
	<path display="inline" d="M5,11.006h5h1v-1c0-3.309,2.691-6,6-6c0.695,0,1.361,0.125,1.984,0.345
		C18.9,1.942,16.928,0.006,14.5,0.006h-4c-4.687,0-8.5,3.813-8.5,8.5v2.5H5z"/>
</g>
<g id="Outline_Icons">
	<g>
		<path fill="none" stroke="#000000" stroke-linejoin="round" stroke-miterlimit="10" d="M12.5,11.5h-10v-3c0-4.418,3.582-8,8-8h4
			c2.209,0,4,1.791,4,4v1.167"/>
		<path fill="none" stroke="#000000" stroke-linejoin="round" stroke-miterlimit="10" d="M12.5,10c0-2.485,2.016-4.5,4.5-4.5
			c2.484,0,4.5,2.015,4.5,4.5v1.5c0,1.104-0.897,2-2,2h-7V10z"/>
		<path fill="none" stroke="#000000" stroke-linejoin="round" stroke-miterlimit="10" d="M2.5,11.5V15c0,0.828,0.672,1.5,1.5,1.5
			c0.828,0,1.5,0.672,1.5,1.5v2c0,1.934,1.567,3.5,3.5,3.5c1.934,0,3.5-1.566,3.5-3.5v-8.5H2.5z"/>
		<path fill="none" stroke="#000000" stroke-linejoin="round" stroke-miterlimit="10" d="M13.996,22.003
			c0.318,0.08,0.654,0.122,1.004,0.122c1.934,0,3.5-1.691,3.5-3.625v-5"/>
		<path fill="none" stroke="#000000" stroke-linejoin="round" stroke-miterlimit="10" d="M6.5,11.5h4v2c0,1.104-0.896,2-2,2
			s-2-0.896-2-2V11.5z"/>
	</g>
</g>
</svg>
