<?xml version="1.0" encoding="utf-8"?>
<!-- Generator: Adobe Illustrator 19.2.0, SVG Export Plug-In . SVG Version: 6.00 Build 0)  -->
<svg version="1.1" id="Layer_1" xmlns="http://www.w3.org/2000/svg" xmlns:xlink="http://www.w3.org/1999/xlink" x="0px" y="0px"
	 viewBox="0 0 24 24" enable-background="new 0 0 24 24" xml:space="preserve">
<g id="Filled_Icons" display="none">
	<g display="inline">
		<path d="M11.5,2.975c0.801,0,1.575,0.11,2.318,0.299c-0.496-0.856-1.27-1.768-2.303-1.768c-1.032,0-1.808,0.907-2.31,1.761
			C9.942,3.083,10.708,2.975,11.5,2.975z"/>
		<g>
			<path d="M10.586,22.482c0.303,0.012,0.605,0.023,0.914,0.023c5.168,0,9.432-1.694,10.924-4.101
				C18.657,18.857,14.019,20.211,10.586,22.482z"/>
			<path d="M22.877,17.356C22.949,17.077,23,16.795,23,16.505c0-1.241-0.706-2.419-2-3.405v1.405c0,0.561-0.313,1.075-0.813,1.333
				c-2.824,1.459-5.725,2.199-8.62,2.199c-2.888,0-5.828-0.737-8.738-2.189C2.321,15.594,2,15.074,2,14.506v-1.408
				c-1.295,0.988-2,2.166-2,3.408c0,2.922,3.809,5.289,9.03,5.864C12.83,19.447,18.521,17.783,22.877,17.356z"/>
		</g>
		<g>
			<path d="M11,15.266V4C8.892,4.124,6.987,5.012,5.566,6.399L11,15.266z"/>
			<path d="M17.462,6.426C16.038,5.022,14.122,4.125,12,4v11.266l5.34-8.708C17.372,6.504,17.415,6.462,17.462,6.426z"/>
			<path d="M4.867,7.174C3.701,8.629,3,10.47,3,12.475v2.031c0,0.189,0.107,0.363,0.276,0.447c2.545,1.271,5.106,1.959,7.624,2.062
				L4.867,7.174z"/>
			<path d="M18.134,7.174l-6.038,9.848c2.56-0.084,5.125-0.774,7.634-2.07c0.166-0.088,0.27-0.26,0.27-0.445v-2.031
				C20,10.471,19.299,8.629,18.134,7.174z"/>
		</g>
	</g>
</g>
<g id="Outline_Icons">
	<g>
		<path fill="none" stroke="#000000" stroke-linecap="round" stroke-linejoin="round" stroke-miterlimit="10" d="M3.5,12.469
			c0-4.418,3.582-8,8-8s8,3.582,8,8V14.5c-5.211,2.691-10.541,2.727-16,0V12.469z"/>
		<path fill="none" stroke="#000000" stroke-linecap="round" stroke-linejoin="round" stroke-miterlimit="10" d="M9.346,21.387
			c3.485-2.568,8.612-4.051,13.031-4.523"/>
		<path fill="none" stroke="#000000" stroke-linecap="round" stroke-linejoin="round" stroke-miterlimit="10" d="M9.016,4.862
			c0,0,0.969-2.862,2.5-2.862C13.047,2,14,4.867,14,4.867"/>
		
			<line fill="none" stroke="#000000" stroke-linecap="round" stroke-linejoin="round" stroke-miterlimit="10" x1="11.5" y1="16.438" x2="11.508" y2="4.469"/>
		<polyline fill="none" stroke="#000000" stroke-linecap="round" stroke-linejoin="round" stroke-miterlimit="10" points="
			5.688,6.979 11.5,16.438 17.291,6.979 		"/>
		<path fill="none" stroke="#000000" stroke-linejoin="round" stroke-miterlimit="10" d="M19.564,12.261
			C21.387,13.241,22.5,14.555,22.5,16c0,3.037-4.925,5.5-11,5.5c-6.075,0-11-2.463-11-5.5c0-1.463,1.144-2.792,3.004-3.779"/>
	</g>
</g>
</svg>
