<?xml version="1.0" encoding="utf-8"?>
<!-- Generator: Adobe Illustrator 19.2.0, SVG Export Plug-In . SVG Version: 6.00 Build 0)  -->
<svg version="1.1" id="Layer_1" xmlns="http://www.w3.org/2000/svg" xmlns:xlink="http://www.w3.org/1999/xlink" x="0px" y="0px"
	 viewBox="0 0 24 24" enable-background="new 0 0 24 24" xml:space="preserve">
<g id="Filled_Icons" display="none">
	<g display="inline">
		<path d="M5.128,5.445c-3.599,3.89-6.171,8.577-3.314,15.719c0.051,0.127,0.151,0.229,0.278,0.277
			c2.079,0.834,3.981,1.238,5.814,1.238c0,0,0,0,0.001,0c4.157,0,7.329-2.158,9.907-4.549L5.128,5.445z"/>
		<path d="M19.602,2.947l0.709,0.709c0.358,0.358,0.676,0.744,0.976,1.143l1.853-1.852c0.194-0.195,0.194-0.512,0-0.707
			l-2.121-2.121c-0.189-0.188-0.521-0.188-0.707,0l-1.851,1.852C18.855,2.27,19.243,2.589,19.602,2.947z"/>
		<g>
			<rect x="11" y="6.006" width="3" height="3"/>
			<polygon points="10,8.902 10,6.006 7.104,6.006 			"/>
			<path d="M19,9.006h3.15c-0.237-1.066-0.655-2.078-1.241-3H19V9.006z"/>
			<polygon points="14,10.006 11.104,10.006 14,12.902 			"/>
			<path d="M15,5.006h3V2.875c-0.904-0.706-1.917-1.24-3-1.576V5.006z"/>
			<rect x="15" y="6.006" width="3" height="3"/>
			<polygon points="18,16.902 18,14.006 15.103,14.006 			"/>
			<path d="M10,5.006V1.131C8.295,1.529,6.728,2.386,5.459,3.654c-0.195,0.195-0.195,0.512,0,0.707l0.645,0.645H10z"/>
			<rect x="15" y="10.006" width="3" height="3"/>
			<path d="M11,5.006h3V1.048c-0.596-0.115-1.204-0.176-1.823-0.176c-0.397,0-0.789,0.032-1.177,0.08V5.006z"/>
			<path d="M19,14.006v3.861c0.076,0.045,0.158,0.076,0.248,0.076c0.133,0,0.26-0.053,0.354-0.146
				c1.08-1.08,1.862-2.378,2.318-3.791H19z"/>
			<path d="M19,5.006h1.185c-0.184-0.221-0.377-0.438-0.584-0.644L19,3.76V5.006z"/>
			<path d="M22.384,11.079c0-0.361-0.024-0.719-0.065-1.073H19v3h3.187C22.314,12.379,22.384,11.734,22.384,11.079z"/>
		</g>
	</g>
</g>
<g id="Outline_Icons">
	<g>
		<path fill="none" stroke="#000000" stroke-linejoin="round" stroke-miterlimit="10" d="M2.277,20.973
			c7.071,2.828,11.666,0.354,16.264-4.242L6.52,4.71C1.924,9.306-0.551,13.902,2.277,20.973z"/>
		<path fill="none" stroke="#000000" stroke-linejoin="round" stroke-miterlimit="10" d="M19.248,17.438
			c3.516-3.516,3.516-9.212,0-12.728l-0.707-0.708c-3.516-3.515-9.214-3.515-12.729,0L19.248,17.438z"/>
		
			<rect x="18.309" y="1.442" transform="matrix(0.7071 -0.7071 0.7071 0.7071 3.8679 15.222)" fill="none" stroke="#000000" stroke-linejoin="round" stroke-miterlimit="10" width="4" height="3"/>
		<line fill="none" stroke="#000000" stroke-linejoin="round" stroke-miterlimit="10" x1="11.311" y1="9.5" x2="21.746" y2="9.5"/>
		<line fill="none" stroke="#000000" stroke-linejoin="round" stroke-miterlimit="10" x1="19.951" y1="5.5" x2="7.311" y2="5.5"/>
		<line fill="none" stroke="#000000" stroke-linejoin="round" stroke-miterlimit="10" x1="21.553" y1="13.5" x2="15.31" y2="13.5"/>
		<line fill="none" stroke="#000000" stroke-linejoin="round" stroke-miterlimit="10" x1="18.5" y1="4" x2="18.5" y2="16.731"/>
		<line fill="none" stroke="#000000" stroke-linejoin="round" stroke-miterlimit="10" x1="14.5" y1="1.67" x2="14.5" y2="12.69"/>
		<line fill="none" stroke="#000000" stroke-linejoin="round" stroke-miterlimit="10" x1="10.5" y1="1.523" x2="10.5" y2="8.689"/>
	</g>
</g>
</svg>
