<?xml version="1.0" encoding="utf-8"?>
<!-- Generator: Adobe Illustrator 19.2.0, SVG Export Plug-In . SVG Version: 6.00 Build 0)  -->
<svg version="1.1" id="Layer_1" xmlns="http://www.w3.org/2000/svg" xmlns:xlink="http://www.w3.org/1999/xlink" x="0px" y="0px"
	 viewBox="0 0 24 24" style="enable-background:new 0 0 24 24;" xml:space="preserve">
<style type="text/css">
	.st0{display:none;}
	.st1{display:inline;}
	.st2{fill:none;stroke:#000000;stroke-linecap:round;stroke-linejoin:round;stroke-miterlimit:10;}
</style>
<g id="Filled_Icon" class="st0">
	<g class="st1">
		<path d="M18,10h-2v2h2c0.6,0,1-0.4,1-1C19,10.4,18.6,10,18,10z"/>
		<path d="M10,12.1V15h0.5c0.7,0,1.3-0.3,1.7-0.7L10,12.1z"/>
		<g>
			<path d="M11.2,9.1c1.4,0.3,2.5,1.4,2.7,2.7l1.1,1.1v-0.4v-3C15,9.2,15.2,9,15.5,9H18c1.1,0,2,0.9,2,2c0,1.1-0.9,2-2,2l1.8,2.2
				c0.2,0.2,0.2,0.5-0.1,0.7C19.7,16,19.6,16,19.5,16c-0.1,0-0.3-0.1-0.4-0.2L16.7,13H16v0.9l5.2,5.2c1.1-0.8,1.8-2.1,1.8-3.6v-6
				C23,7,21,5,18.5,5H7.1L11.2,9.1z"/>
			<path d="M12.9,15c-0.6,0.6-1.5,1-2.4,1h-1C9.2,16,9,15.8,9,15.5v-4.4l-1-1v5.4C8,15.8,7.8,16,7.5,16C7.2,16,7,15.8,7,15.5V13H4
				v2.5C4,15.8,3.8,16,3.5,16C3.2,16,3,15.8,3,15.5v-6C3,9.2,3.2,9,3.5,9C3.8,9,4,9.2,4,9.5V12h3V9.5c0-0.1,0-0.2,0.1-0.3l-4-4
				C1.3,5.8,0,7.5,0,9.5v6C0,18,2,20,4.5,20h13.4L12.9,15z"/>
		</g>
		<g>
			<path d="M22,22.5c-0.1,0-0.3,0-0.4-0.1l-21-21c-0.2-0.2-0.2-0.5,0-0.7c0.2-0.2,0.5-0.2,0.7,0l21,21c0.2,0.2,0.2,0.5,0,0.7
				C22.3,22.5,22.1,22.5,22,22.5z"/>
		</g>
	</g>
</g>
<g id="Outline_Icons">
	<g>
		<line class="st2" x1="1" y1="0.9" x2="22" y2="21.9"/>
		<path class="st2" d="M17,19.4H4.5c-2.2,0-4-1.8-4-4v-6c0-1.5,0.8-2.8,2-3.5"/>
		<path class="st2" d="M8,5.4h10.5c2.2,0,4,1.8,4,4v6c0,1.1-0.4,2.1-1.2,2.8"/>
		<line class="st2" x1="3.5" y1="9.4" x2="3.5" y2="15.4"/>
		<line class="st2" x1="7.5" y1="9.4" x2="7.5" y2="15.4"/>
		<line class="st2" x1="15.5" y1="9.4" x2="15.5" y2="15.4"/>
		<line class="st2" x1="17" y1="12.4" x2="19.5" y2="15.4"/>
		<line class="st2" x1="3.5" y1="12.4" x2="7.5" y2="12.4"/>
		<path class="st2" d="M19.5,10.9c0,0.8-0.7,1.5-1.5,1.5h-2.5v-3H18C18.8,9.4,19.5,10.1,19.5,10.9z"/>
		<path class="st2" d="M13.5,12.4c0-1.7-1.3-3-3-3h-1v6h1C12.2,15.4,13.5,14.1,13.5,12.4z"/>
	</g>
</g>
</svg>
