<?xml version="1.0" encoding="utf-8"?>
<!-- Generator: Adobe Illustrator 19.2.0, SVG Export Plug-In . SVG Version: 6.00 Build 0)  -->
<svg version="1.1" id="Layer_1" xmlns="http://www.w3.org/2000/svg" xmlns:xlink="http://www.w3.org/1999/xlink" x="0px" y="0px"
	 viewBox="0 0 24 24" style="enable-background:new 0 0 24 24;" xml:space="preserve">
<style type="text/css">
	.st0{display:none;}
	.st1{display:inline;}
	.st2{fill:none;stroke:#000000;stroke-linejoin:round;stroke-miterlimit:10;}
	.st3{fill:none;stroke:#000000;stroke-linecap:round;stroke-linejoin:round;stroke-miterlimit:10;}
</style>
<g id="Filled_Icon" class="st0">
	<g class="st1">
		<path d="M10.5,9H10v5h0.5c1.4,0,2.5-1.1,2.5-2.5C13,10.1,11.9,9,10.5,9z"/>
		<path d="M18,9h-2v2h2c0.6,0,1-0.4,1-1C19,9.4,18.6,9,18,9z"/>
		<path d="M18.5,4h-14C2,4,0,6,0,8.5v6C0,17,2,19,4.5,19h14c2.5,0,4.5-2,4.5-4.5v-6C23,6,21,4,18.5,4z M8,14.5C8,14.8,7.8,15,7.5,15
			C7.2,15,7,14.8,7,14.5V12H4v2.5C4,14.8,3.8,15,3.5,15C3.2,15,3,14.8,3,14.5v-6C3,8.2,3.2,8,3.5,8C3.8,8,4,8.2,4,8.5V11h3V8.5
			C7,8.2,7.2,8,7.5,8C7.8,8,8,8.2,8,8.5V14.5z M10.5,15h-1C9.2,15,9,14.8,9,14.5v-6C9,8.2,9.2,8,9.5,8h1c1.9,0,3.5,1.6,3.5,3.5
			C14,13.4,12.4,15,10.5,15z M19.9,14.2c0.2,0.2,0.2,0.5-0.1,0.7C19.7,15,19.6,15,19.5,15c-0.1,0-0.3-0.1-0.4-0.2L16.7,12H16v2.5
			c0,0.3-0.2,0.5-0.5,0.5c-0.3,0-0.5-0.2-0.5-0.5v-3v-3C15,8.2,15.2,8,15.5,8H18c1.1,0,2,0.9,2,2c0,1.1-0.9,2-2,2L19.9,14.2z"/>
	</g>
</g>
<g id="Outline_Icons">
	<g>
		<path class="st2" d="M22.5,14.5c0,2.2-1.8,4-4,4h-14c-2.2,0-4-1.8-4-4v-6c0-2.2,1.8-4,4-4h14c2.2,0,4,1.8,4,4V14.5z"/>
		<line class="st3" x1="3.5" y1="8.5" x2="3.5" y2="14.5"/>
		<line class="st3" x1="7.5" y1="8.5" x2="7.5" y2="14.5"/>
		<line class="st3" x1="15.5" y1="8.5" x2="15.5" y2="14.5"/>
		<line class="st3" x1="17" y1="11.5" x2="19.5" y2="14.5"/>
		<line class="st3" x1="3.5" y1="11.5" x2="7.5" y2="11.5"/>
		<path class="st3" d="M19.5,10c0,0.8-0.7,1.5-1.5,1.5h-2.5v-3H18C18.8,8.5,19.5,9.2,19.5,10z"/>
		<path class="st3" d="M13.5,11.5c0-1.7-1.3-3-3-3h-1v6h1C12.2,14.5,13.5,13.2,13.5,11.5z"/>
	</g>
</g>
</svg>
