<?xml version="1.0" encoding="utf-8"?>
<!-- Generator: Adobe Illustrator 19.2.0, SVG Export Plug-In . SVG Version: 6.00 Build 0)  -->
<svg version="1.1" id="Layer_1" xmlns="http://www.w3.org/2000/svg" xmlns:xlink="http://www.w3.org/1999/xlink" x="0px" y="0px"
	 viewBox="0 0 24 24" style="enable-background:new 0 0 24 24;" xml:space="preserve">
<style type="text/css">
	.st0{display:none;}
	.st1{display:inline;}
	.st2{fill:none;stroke:#000000;stroke-linecap:round;stroke-linejoin:round;stroke-miterlimit:10;}
</style>
<g id="Filled_Icon" class="st0">
	<g class="st1">
		<path d="M12,18c3.3,0,6-2.7,6-6c0-3.3-2.7-6-6-6c-3.3,0-6,2.7-6,6C6,15.3,8.7,18,12,18z"/>
		<path d="M20,7.5C19.7,3.3,16.3,0,12,0S4.3,3.3,4,7.5C1.8,7.8,0,9.7,0,12c0,2.5,2,4.5,4.5,4.5C4.8,16.5,5,16.3,5,16V8
			c0-3.9,3.1-7,7-7c3.9,0,7,3.1,7,7v8c0,0.3,0.2,0.5,0.5,0.5c2.5,0,4.5-2,4.5-4.5C24,9.7,22.2,7.8,20,7.5z"/>
		<path d="M17,20H7c-1.9,0-3.5,1.6-3.5,3.5C3.5,23.8,3.7,24,4,24h16c0.3,0,0.5-0.2,0.5-0.5C20.5,21.6,18.9,20,17,20z"/>
	</g>
</g>
<g id="Outline_Icons">
	<g>
		<circle class="st2" cx="12" cy="12" r="5.5"/>
		<path class="st2" d="M4.5,8c0-4.1,3.4-7.5,7.5-7.5c4.1,0,7.5,3.4,7.5,7.5"/>
		<path class="st2" d="M4.5,8c-2.2,0-4,1.8-4,4s1.8,4,4,4V8z"/>
		<path class="st2" d="M19.5,8c2.2,0,4,1.8,4,4s-1.8,4-4,4V8z"/>
		<path class="st2" d="M20,23.5c0-1.7-1.3-3-3-3H7c-1.7,0-3,1.3-3,3H20z"/>
	</g>
</g>
</svg>
