<?xml version="1.0" encoding="utf-8"?>
<!-- Generator: Adobe Illustrator 19.2.0, SVG Export Plug-In . SVG Version: 6.00 Build 0)  -->
<svg version="1.1" id="Layer_1" xmlns="http://www.w3.org/2000/svg" xmlns:xlink="http://www.w3.org/1999/xlink" x="0px" y="0px"
	 viewBox="0 0 24 24" style="enable-background:new 0 0 24 24;" xml:space="preserve">
<style type="text/css">
	.st0{display:none;}
	.st1{display:inline;}
	.st2{fill:none;stroke:#000000;stroke-linecap:round;stroke-linejoin:round;stroke-miterlimit:10;}
	.st3{fill:none;stroke:#000000;stroke-linejoin:round;stroke-miterlimit:10;}
</style>
<g id="Filled_Icon" class="st0">
	<g class="st1">
		<path d="M0,15.5c0,0.8,0.4,1.5,1,2v-4C0.4,14,0,14.7,0,15.5z"/>
		<path d="M19.5,10L19.5,10C19.2,6.1,16,3,12,3c-4,0-7.2,3.1-7.5,7h0C3.1,10,2,11.1,2,12.5v6C2,19.9,3.1,21,4.5,21h2
			C6.8,21,7,20.8,7,20.5v-10C7,10.2,6.8,10,6.5,10h-1C5.8,6.6,8.6,4,12,4s6.2,2.6,6.5,6h-1c-0.3,0-0.5,0.2-0.5,0.5v10
			c0,0.3,0.2,0.5,0.5,0.5h2c1.4,0,2.5-1.1,2.5-2.5v-6C22,11.1,20.9,10,19.5,10z"/>
		<path d="M23,13.5v4c0.6-0.5,1-1.2,1-2C24,14.7,23.6,14,23,13.5z"/>
	</g>
</g>
<g id="Outline_Icons">
	<g>
		<path class="st2" d="M2.5,17.5c-1.1,0-2-0.9-2-2c0-1.1,0.9-2,2-2"/>
		<path class="st2" d="M6.5,20.5h-2c-1.1,0-2-0.9-2-2v-6c0-1.1,0.9-2,2-2h2V20.5z"/>
		<path class="st2" d="M21.5,17.5c1.1,0,2-0.9,2-2c0-1.1-0.9-2-2-2"/>
		<path class="st2" d="M17.5,20.5h2c1.1,0,2-0.9,2-2v-6c0-1.1-0.9-2-2-2h-2V20.5z"/>
		<path class="st3" d="M5,10.5c0-3.9,3.1-7,7-7c3.9,0,7,3.1,7,7"/>
	</g>
</g>
</svg>
