<?xml version="1.0" encoding="utf-8"?>
<!-- Generator: Adobe Illustrator 19.2.0, SVG Export Plug-In . SVG Version: 6.00 Build 0)  -->
<svg version="1.1" id="Layer_1" xmlns="http://www.w3.org/2000/svg" xmlns:xlink="http://www.w3.org/1999/xlink" x="0px" y="0px"
	 viewBox="0 0 24 24" enable-background="new 0 0 24 24" xml:space="preserve">
<g id="Filled_Icons" display="none">
	<path display="inline" d="M12,0.006c-6.617,0-12,5.383-12,12c0,6.617,5.383,12,12,12c6.616,0,12-5.383,12-12
		C24,5.389,18.616,0.006,12,0.006z M10.629,15.996l-5.031,1c-0.033,0.007-0.066,0.01-0.099,0.01c-0.233,0-0.442-0.164-0.489-0.402
		c-0.054-0.271,0.122-0.533,0.393-0.588l5.031-1c0.275-0.059,0.533,0.123,0.588,0.394C11.075,15.68,10.899,15.941,10.629,15.996z
		 M10.629,12.996l-5.031,1c-0.033,0.007-0.066,0.01-0.099,0.01c-0.233,0-0.442-0.164-0.489-0.402
		c-0.054-0.271,0.122-0.533,0.393-0.588l5.031-1c0.275-0.059,0.533,0.122,0.588,0.393C11.075,12.68,10.899,12.941,10.629,12.996z
		 M10.629,9.996l-5.031,1c-0.033,0.007-0.066,0.01-0.099,0.01c-0.233,0-0.442-0.164-0.489-0.402
		c-0.054-0.271,0.122-0.534,0.393-0.588l5.031-1c0.275-0.059,0.533,0.122,0.588,0.393C11.075,9.68,10.899,9.942,10.629,9.996z
		 M14.762,17.436c-1.496,0-2.762-1.232-2.762-2.69v-4.382c0-1.458,1.266-2.69,2.762-2.69c2.731,0,4.952,2.19,4.952,4.882
		C19.714,15.247,17.492,17.436,14.762,17.436z"/>
</g>
<g id="Outline_Icons">
	<g>
		<circle fill="none" stroke="#000000" stroke-linejoin="round" stroke-miterlimit="10" cx="12" cy="12" r="11.5"/>
		<path fill="none" stroke="#000000" stroke-linejoin="round" stroke-miterlimit="10" d="M19.214,12.548
			c0-2.42-2.032-4.382-4.452-4.382c-1.209,0-2.262,0.981-2.262,2.19v4.382c0,1.209,1.053,2.189,2.262,2.189
			C17.182,16.93,19.214,14.967,19.214,12.548z"/>
		
			<line fill="none" stroke="#000000" stroke-linecap="round" stroke-linejoin="round" stroke-miterlimit="10" x1="10.531" y1="12.5" x2="5.5" y2="13.5"/>
		
			<line fill="none" stroke="#000000" stroke-linecap="round" stroke-linejoin="round" stroke-miterlimit="10" x1="10.531" y1="9.5" x2="5.5" y2="10.5"/>
		
			<line fill="none" stroke="#000000" stroke-linecap="round" stroke-linejoin="round" stroke-miterlimit="10" x1="10.531" y1="15.5" x2="5.5" y2="16.5"/>
	</g>
</g>
</svg>
