<?xml version="1.0" encoding="utf-8"?>
<!-- Generator: Adobe Illustrator 19.2.0, SVG Export Plug-In . SVG Version: 6.00 Build 0)  -->
<svg version="1.1" id="Layer_1" xmlns="http://www.w3.org/2000/svg" xmlns:xlink="http://www.w3.org/1999/xlink" x="0px" y="0px"
	 viewBox="0 0 24 24" enable-background="new 0 0 24 24" xml:space="preserve">
<g id="Filled_Icons" display="none">
	<path display="inline" d="M12,0.006c-6.617,0-12,5.383-12,12c0,6.617,5.383,12,12,12c6.616,0,12-5.383,12-12
		C24,5.389,18.616,0.006,12,0.006z M10.531,16.006H5.5c-0.276,0-0.5-0.225-0.5-0.5c0-0.275,0.224-0.5,0.5-0.5h5.031
		c0.277,0,0.5,0.225,0.5,0.5C11.031,15.781,10.808,16.006,10.531,16.006z M10.531,13.006H5.5c-0.276,0-0.5-0.225-0.5-0.5
		c0-0.276,0.224-0.5,0.5-0.5h5.031c0.277,0,0.5,0.224,0.5,0.5C11.031,12.781,10.808,13.006,10.531,13.006z M10.531,10.006H5.5
		c-0.276,0-0.5-0.224-0.5-0.5c0-0.276,0.224-0.5,0.5-0.5h5.031c0.277,0,0.5,0.224,0.5,0.5C11.031,9.782,10.808,10.006,10.531,10.006
		z M14.762,17.436c-1.496,0-2.762-1.232-2.762-2.69v-4.382c0-1.458,1.266-2.69,2.762-2.69c2.731,0,4.952,2.19,4.952,4.882
		C19.714,15.247,17.492,17.436,14.762,17.436z"/>
</g>
<g id="Outline_Icons">
	<g>
		<circle fill="none" stroke="#000000" stroke-linejoin="round" stroke-miterlimit="10" cx="12" cy="12" r="11.5"/>
		<path fill="none" stroke="#000000" stroke-linejoin="round" stroke-miterlimit="10" d="M19.214,12.548
			c0-2.42-2.032-4.382-4.452-4.382c-1.209,0-2.262,0.981-2.262,2.19v4.382c0,1.209,1.053,2.189,2.262,2.189
			C17.182,16.93,19.214,14.967,19.214,12.548z"/>
		
			<line fill="none" stroke="#000000" stroke-linecap="round" stroke-linejoin="round" stroke-miterlimit="10" x1="10.531" y1="12.5" x2="5.5" y2="12.5"/>
		
			<line fill="none" stroke="#000000" stroke-linecap="round" stroke-linejoin="round" stroke-miterlimit="10" x1="10.531" y1="9.5" x2="5.5" y2="9.5"/>
		
			<line fill="none" stroke="#000000" stroke-linecap="round" stroke-linejoin="round" stroke-miterlimit="10" x1="10.531" y1="15.5" x2="5.5" y2="15.5"/>
	</g>
</g>
</svg>
