<?xml version="1.0" encoding="utf-8"?>
<!-- Generator: Adobe Illustrator 19.2.0, SVG Export Plug-In . SVG Version: 6.00 Build 0)  -->
<svg version="1.1" id="Layer_1" xmlns="http://www.w3.org/2000/svg" xmlns:xlink="http://www.w3.org/1999/xlink" x="0px" y="0px"
	 viewBox="0 0 24 24" style="enable-background:new 0 0 24 24;" xml:space="preserve">
<style type="text/css">
	.st0{display:none;}
	.st1{display:inline;}
	.st2{fill:none;stroke:#000000;stroke-linecap:round;stroke-linejoin:round;stroke-miterlimit:10;}
</style>
<g id="Filled_Icon" class="st0">
	<g class="st1">
		<path d="M20,10.5C19.7,6.3,16.3,3,12,3c-4.3,0-7.7,3.3-8,7.5c-2.3,0.2-4,2.1-4,4.5c0,2.5,2,4.5,4.5,4.5C4.8,19.5,5,19.3,5,19v-8
			c0-3.9,3.1-7,7-7c3.9,0,7,3.1,7,7v8c0,0.3,0.2,0.5,0.5,0.5c2.5,0,4.5-2,4.5-4.5C24,12.7,22.2,10.8,20,10.5z"/>
		<path d="M17.5,15H16c-0.2,0-0.4,0.1-0.4,0.3L14.7,17l-1.2-5.6c0-0.2-0.2-0.4-0.4-0.4c-0.2,0-0.4,0.1-0.5,0.3l-1.6,4l-1-2
			C9.9,13.1,9.7,13,9.5,13c-0.2,0-0.3,0.1-0.4,0.2L7.8,15H6.5C6.2,15,6,15.2,6,15.5C6,15.8,6.2,16,6.5,16H8c0.2,0,0.3-0.1,0.4-0.2
			l1-1.4l1.1,2.3c0.1,0.2,0.3,0.3,0.5,0.3c0.2,0,0.4-0.1,0.4-0.3l1.4-3.5l1.2,5.4c0,0.2,0.2,0.4,0.4,0.4c0,0,0,0,0.1,0
			c0.2,0,0.4-0.1,0.4-0.3l1.4-2.7h1.2c0.3,0,0.5-0.2,0.5-0.5C18,15.2,17.8,15,17.5,15z"/>
	</g>
</g>
<g id="Outline_Icons">
	<g>
		<path class="st2" d="M4.5,11c0-4.1,3.4-7.5,7.5-7.5c4.1,0,7.5,3.4,7.5,7.5"/>
		<path class="st2" d="M4.5,11c-2.2,0-4,1.8-4,4s1.8,4,4,4V11z"/>
		<path class="st2" d="M19.5,11c2.2,0,4,1.8,4,4s-1.8,4-4,4V11z"/>
		<polyline class="st2" points="17.5,15.5 16,15.5 14.5,18.5 13,11.5 11,16.5 9.5,13.5 8,15.5 6.5,15.5 		"/>
	</g>
</g>
</svg>
