<?xml version="1.0" encoding="utf-8"?>
<!-- Generator: Adobe Illustrator 19.2.0, SVG Export Plug-In . SVG Version: 6.00 Build 0)  -->
<svg version="1.1" id="Layer_1" xmlns="http://www.w3.org/2000/svg" xmlns:xlink="http://www.w3.org/1999/xlink" x="0px" y="0px"
	 viewBox="0 0 24 24" style="enable-background:new 0 0 24 24;" xml:space="preserve">
<style type="text/css">
	.st0{display:none;}
	.st1{display:inline;}
	.st2{fill:none;stroke:#000000;stroke-linecap:round;stroke-linejoin:round;stroke-miterlimit:10;}
</style>
<g id="Filled_Icon" class="st0">
	<g class="st1">
		<path d="M18,16.6c-0.2-3.1-2.8-5.6-6-5.6c-3.2,0-5.7,2.4-6,5.6c-1.8,0.2-3,1.5-3,3.4c0,2.1,1.4,3.5,3.5,3.5C6.8,23.5,7,23.3,7,23
			v-5.9c0,0,0,0,0,0c0.2-3.2,2.5-5,5-5c2.8,0,5,2.3,5,5.1V23c0,0.3,0.2,0.5,0.5,0.5c2.1,0,3.5-1.4,3.5-3.5
			C21,18.1,19.8,16.8,18,16.6z"/>
		<path d="M21.2,3.9c-5.1-5.1-13.3-5.1-18.4,0C2.6,4,2.6,4.4,2.8,4.6c0.2,0.2,0.5,0.2,0.7,0c4.7-4.7,12.3-4.7,17,0
			c0.1,0.1,0.2,0.1,0.4,0.1c0.1,0,0.3,0,0.4-0.1C21.4,4.4,21.4,4,21.2,3.9z"/>
		<path d="M18.7,7c0.2-0.2,0.2-0.5,0-0.7c-1.8-1.9-4.3-2.8-6.7-2.8h0c0,0,0,0,0,0c0,0,0,0,0,0c-2.4,0-4.8,0.9-6.7,2.8
			C5.1,6.5,5.1,6.8,5.3,7C5.5,7.2,5.8,7.2,6,7c1.7-1.7,3.8-2.5,6-2.5c0,0,0,0,0,0c2.2,0,4.3,0.8,6,2.5C18.2,7.2,18.5,7.2,18.7,7z"/>
		<path d="M16.2,8.7c-1.4-1.4-3.4-2-5.3-1.6c-1,0.2-2.2,0.7-3,1.6c-0.2,0.2-0.2,0.5,0,0.7c0.2,0.2,0.5,0.2,0.7,0
			c1.2-1.2,2.8-1.6,4.4-1.3c0.9,0.2,1.8,0.6,2.5,1.3c0.2,0.2,0.5,0.2,0.7,0C16.3,9.2,16.3,8.9,16.2,8.7z"/>
	</g>
</g>
<g id="Outline_Icons">
	<g>
		<g>
			<path class="st2" d="M6.5,17.1c0-3.1,2.4-5.6,5.5-5.6c3.1,0,5.5,2.5,5.5,5.6"/>
			<path class="st2" d="M6.5,17.1c-2,0-3,1.3-3,3c0,1.6,1,3,3,3V17.1z"/>
			<path class="st2" d="M17.5,17.1c2,0,3,1.3,3,3c0,1.6-1,3-3,3V17.1z"/>
		</g>
		<path class="st2" d="M5.7,6.6c3.5-3.5,9.2-3.5,12.7,0"/>
		<path class="st2" d="M20.9,4.2C16-0.7,8-0.7,3.1,4.2"/>
		<path class="st2" d="M8.2,9.1c2.1-2.1,5.5-2.1,7.6,0"/>
		<path class="st2" d="M18.3,6.6c-3.5-3.5-9.2-3.5-12.7,0"/>
		<path class="st2" d="M15.8,9.1C13.7,7,10.3,7,8.2,9.1"/>
	</g>
</g>
</svg>
