<?xml version="1.0" encoding="utf-8"?>
<!-- Generator: Adobe Illustrator 19.2.0, SVG Export Plug-In . SVG Version: 6.00 Build 0)  -->
<svg version="1.1" id="Outline_Icons" xmlns="http://www.w3.org/2000/svg" xmlns:xlink="http://www.w3.org/1999/xlink" x="0px"
	 y="0px" viewBox="0 0 24 24" style="enable-background:new 0 0 24 24;" xml:space="preserve">
<style type="text/css">
	.st0{fill:none;stroke:#000000;stroke-linecap:round;stroke-linejoin:round;stroke-miterlimit:10;}
	.st1{fill:none;stroke:#000000;stroke-linejoin:round;stroke-miterlimit:10;}
</style>
<g>
	<path class="st0" d="M2.5,14.5c-1.1,0-2-0.9-2-2c0-1.1,0.9-2,2-2"/>
	<path class="st0" d="M14.5,21.5h2c1.9,0,3.5-1.1,3.5-3v-1.1"/>
	<circle class="st0" cx="13" cy="21.5" r="1.5"/>
	<path class="st0" d="M6.5,17.5h-2c-1.1,0-2-0.9-2-2v-6c0-1.1,0.9-2,2-2h2V17.5z"/>
	<path class="st0" d="M21.5,14.5c1.1,0,2-0.9,2-2c0-1.1-0.9-2-2-2"/>
	<path class="st0" d="M17.5,17.5h2c1.1,0,2-0.9,2-2v-6c0-1.1-0.9-2-2-2h-2V17.5z"/>
	<path class="st1" d="M5,7.5c0-3.9,3.1-7,7-7c3.9,0,7,3.1,7,7"/>
</g>
</svg>
