<?xml version="1.0" encoding="utf-8"?>
<!-- Generator: Adobe Illustrator 19.2.0, SVG Export Plug-In . SVG Version: 6.00 Build 0)  -->
<svg version="1.1" id="Layer_1" xmlns="http://www.w3.org/2000/svg" xmlns:xlink="http://www.w3.org/1999/xlink" x="0px" y="0px"
	 viewBox="0 0 24 24" enable-background="new 0 0 24 24" xml:space="preserve">
<g id="Filled_Icons" display="none">
	<g display="inline">
		<path d="M23.484,22.863l-0.625-4.533c-0.037-0.273-0.299-0.465-0.562-0.428c-0.273,0.037-0.465,0.291-0.427,0.563l0.428,3.109
			l-2.595-2.597c-0.232,0.248-0.463,0.488-0.696,0.717l2.605,2.604l-3.125-0.446c-0.276-0.033-0.525,0.149-0.565,0.424
			c-0.039,0.272,0.151,0.527,0.425,0.566l4.584,0.655c0.024,0.003,0.049,0.005,0.071,0.005c0.131,0,0.258-0.052,0.352-0.147
			c0.002,0,0.002-0.004,0.004-0.004c0.002-0.004,0.006-0.004,0.009-0.006C23.496,23.219,23.531,23.031,23.484,22.863z"/>
		<path d="M6.893,2.846C6.887,2.727,6.837,2.613,6.755,2.527L4.678,0.361C4.542,0.22,4.338,0.17,4.155,0.233
			C3.971,0.297,3.84,0.46,3.819,0.653l-0.1,0.929l3.284,3.284L6.893,2.846z"/>
		<path d="M0.669,3.804c-0.193,0.02-0.356,0.151-0.42,0.336C0.187,4.323,0.236,4.527,0.377,4.661l2.166,2.078
			c0.086,0.083,0.199,0.133,0.318,0.139l2.021,0.109L1.598,3.703L0.669,3.804z"/>
		<path d="M22.318,11.355c0-3.199-2.096-4.873-4.166-4.873c-1.459,0-3.057,0.84-3.895,2.675c-0.825-1.804-2.382-2.629-3.802-2.629
			c-0.502,0-1.004,0.109-1.48,0.311l0.093,0.093c0.586,0.586,0.586,1.535,0,2.121c-0.293,0.293-0.676,0.439-1.06,0.439
			c-0.384,0-0.768-0.146-1.061-0.439L6.831,8.937c-0.386,0.772-0.634,1.711-0.634,2.845c0,6.199,7.514,10.107,7.832,10.271
			c0.072,0.035,0.15,0.055,0.229,0.055c0.092,0,0.184-0.025,0.266-0.076C14.841,21.831,22.318,17.106,22.318,11.355z"/>
		<path d="M7.654,8.346C7.752,8.443,7.88,8.492,8.008,8.492c0.128,0,0.256-0.049,0.354-0.146c0.195-0.195,0.195-0.512,0-0.707
			L2.859,2.137c-0.195-0.195-0.512-0.195-0.707,0c-0.195,0.195-0.195,0.512,0,0.707L7.654,8.346z"/>
	</g>
</g>
<g id="Outline_Icons">
	<g>
		<g>
			<path fill="none" stroke="#000000" stroke-linejoin="round" stroke-miterlimit="10" d="M14.258,21.6c0,0,7.561-4.711,7.561-10.25
				c0-5.539-6.707-5.965-7.561-0.426c-0.852-5.538-7.561-5.113-7.561,0.852C6.697,17.741,14.258,21.6,14.258,21.6z"/>
		</g>
		
			<line fill="none" stroke="#000000" stroke-linecap="round" stroke-linejoin="round" stroke-miterlimit="10" x1="18.361" y1="18.34" x2="23.012" y2="22.99"/>
		
			<line fill="none" stroke="#000000" stroke-linecap="round" stroke-linejoin="round" stroke-miterlimit="10" x1="2.506" y1="2.484" x2="8.008" y2="7.986"/>
		<polyline fill="none" stroke="#000000" stroke-linecap="round" stroke-linejoin="round" stroke-miterlimit="10" points="
			18.415,22.344 23,23 22.365,18.393 		"/>
		<polyline fill="none" stroke="#000000" stroke-linecap="round" stroke-linejoin="round" stroke-miterlimit="10" points="
			3.86,3.957 0.723,4.295 2.889,6.373 6.597,6.574 6.394,2.867 4.316,0.701 3.978,3.838 		"/>
	</g>
</g>
</svg>
