<?xml version="1.0" encoding="utf-8"?>
<!-- Generator: Adobe Illustrator 19.2.0, SVG Export Plug-In . SVG Version: 6.00 Build 0)  -->
<svg version="1.1" id="Layer_1" xmlns="http://www.w3.org/2000/svg" xmlns:xlink="http://www.w3.org/1999/xlink" x="0px" y="0px"
	 viewBox="0 0 24 24" style="enable-background:new 0 0 24 24;" xml:space="preserve">
<style type="text/css">
	.st0{display:none;}
	.st1{display:inline;}
	.st2{fill:none;stroke:#000000;stroke-linecap:round;stroke-linejoin:round;stroke-miterlimit:10;}
	.st3{fill:none;stroke:#000000;stroke-linejoin:round;stroke-miterlimit:10;}
</style>
<g id="Filled_Icons" class="st0">
	<g class="st1">
		<path d="M11.1,23.1l1-3.5c0,0,0-0.1,0-0.1c0,0,0-0.1,0-0.1c0.1-0.2,0.2-0.3,0.3-0.4l7.5-7.5c0.5-0.5,1.2-0.5,1.8-0.2
			c0.5-1.3,0.8-2.7,0.8-4c0-4.3-2.8-6.6-5.6-6.6c-2.1,0-4.3,1.3-5.4,4c-1.1-2.7-3.3-4-5.3-4c-3.8,0-5.7,3.6-5.7,7.1
			c0,3.5,1.9,7.3,5.4,11.1c2.3,2.4,4.5,4,5.1,4.4C11,23.2,11,23.2,11.1,23.1z"/>
		<g>
			<path d="M12.9,20.1L12,23.4c-0.1,0.2,0,0.4,0.1,0.5c0.1,0.1,0.2,0.1,0.4,0.1c0,0,0.1,0,0.1,0l3.2-0.9L12.9,20.1z"/>
			<path d="M19,13.8l3.2,3.2l1.6-1.6c0.1-0.1,0.1-0.2,0.1-0.4c0-0.1-0.1-0.3-0.1-0.4l-2.5-2.5c-0.2-0.2-0.5-0.2-0.7,0"/>
			<polyline points="13.5,19.3 16.7,22.5 21.5,17.7 18.3,14.5 			"/>
		</g>
	</g>
</g>
<g id="Outline_Icons">
	<g>
		<g>
			<polygon class="st2" points="16,22.4 12.5,23.4 13.5,19.9 21,12.4 23.5,14.9 			"/>
			<line class="st3" x1="19" y1="14.4" x2="21.5" y2="16.9"/>
			<line class="st2" x1="13.5" y1="19.9" x2="16" y2="22.4"/>
		</g>
		<path class="st3" d="M21.3,9.9c0.3-0.9,0.5-1.8,0.5-2.8c0-7-9.4-8.4-10.5-1.4c-1.1-7-10.5-6.2-10.5,1.4c0,6.1,6.8,11.9,9.5,13.9"
			/>
	</g>
</g>
</svg>
