<?xml version="1.0" encoding="utf-8"?>
<!-- Generator: Adobe Illustrator 19.2.0, SVG Export Plug-In . SVG Version: 6.00 Build 0)  -->
<svg version="1.1" id="Layer_1" xmlns="http://www.w3.org/2000/svg" xmlns:xlink="http://www.w3.org/1999/xlink" x="0px" y="0px"
	 viewBox="0 0 24 24" enable-background="new 0 0 24 24" xml:space="preserve">
<g id="Filled_Icons" display="none">
	<g display="inline">
		<path d="M15.842,18.178c-0.257,0.512-0.771,0.828-1.342,0.828c-0.75-0.031-1.272-0.494-1.441-1.087l-0.94-3.292l-0.775,1.549
			c-0.237,0.475-0.705,0.807-1.328,0.83c-0.51,0-0.971-0.23-1.262-0.668l-0.824-1.236L7.7,15.406c-0.28,0.375-0.729,0.6-1.199,0.6
			H3.862c1.56,2.691,5.352,6.145,7.861,7.811c0.084,0.056,0.181,0.082,0.276,0.082c0.108,0,0.216-0.035,0.306-0.104
			c2.197-1.689,5.791-5.244,7.368-7.789h-2.747L15.842,18.178z"/>
		<path d="M2.123,13.006H5.75l1.05-1.4c0.279-0.375,0.733-0.6,1.214-0.6c0.509,0.015,0.966,0.264,1.234,0.668l0.565,0.85
			l1.345-2.688c0.256-0.511,0.77-0.829,1.342-0.829c0.753,0.033,1.273,0.499,1.441,1.087l0.967,3.383
			c0.279-0.297,0.67-0.471,1.092-0.471h5.532C22.234,11.868,23,9.545,23,7.579c0-4.315-2.813-6.573-5.593-6.573
			c-2.063,0-4.337,1.259-5.407,4.021c-1.055-2.719-3.271-3.958-5.28-3.958C2.965,1.069,1,4.643,1,8.171
			C1,10.018,1.577,12.062,2.123,13.006z"/>
		<path d="M23.5,14.006H16c-0.191,0-0.361,0.105-0.447,0.275l-0.925,1.853l-1.647-5.765c-0.057-0.201-0.228-0.354-0.501-0.362
			c-0.17,0-0.341,0.106-0.426,0.276l-2.115,4.228L8.417,12.23C8.326,12.093,8.174,12.012,8,12.007c-0.148,0-0.307,0.077-0.397,0.199
			l-1.353,1.8H0.5c-0.276,0-0.5,0.225-0.5,0.5c0,0.275,0.224,0.5,0.5,0.5h6c0.156,0,0.306-0.074,0.398-0.199l1.078-1.436
			l1.607,2.412c0.112,0.168,0.268,0.228,0.464,0.22c0.16-0.01,0.32-0.114,0.399-0.274l1.925-3.85l1.647,5.764
			c0.055,0.193,0.227,0.354,0.486,0.362c0.188-0.002,0.356-0.108,0.441-0.276l1.361-2.724H23.5c0.275,0,0.5-0.224,0.5-0.5
			C24,14.229,23.775,14.006,23.5,14.006z"/>
	</g>
</g>
<g id="Outline_Icons">
	<g>
		<polyline fill="none" stroke="#000000" stroke-linecap="round" stroke-linejoin="round" stroke-miterlimit="10" points="0.5,14.5 
			6.5,14.5 8,12.5 10,15.499 12.5,10.499 14.5,17.5 16,14.5 23.5,14.5 		"/>
		<path fill="none" stroke="#000000" stroke-linecap="round" stroke-linejoin="round" stroke-miterlimit="10" d="M21.255,12.499
			c0.761-1.605,1.245-3.275,1.245-4.925c0-7.693-9.316-8.285-10.5-0.592C10.816-0.711,1.5-0.119,1.5,8.165
			c0,1.5,0.348,2.955,0.911,4.334"/>
		<path fill="none" stroke="#000000" stroke-linecap="round" stroke-linejoin="round" stroke-miterlimit="10" d="M4.73,16.499
			C7.816,20.624,12,23.393,12,23.393s3.757-2.908,6.775-6.894"/>
	</g>
</g>
</svg>
