<?xml version="1.0" encoding="utf-8"?>
<!-- Generator: Adobe Illustrator 19.2.0, SVG Export Plug-In . SVG Version: 6.00 Build 0)  -->
<svg version="1.1" id="Layer_1" xmlns="http://www.w3.org/2000/svg" xmlns:xlink="http://www.w3.org/1999/xlink" x="0px" y="0px"
	 viewBox="0 0 24 24" style="enable-background:new 0 0 24 24;" xml:space="preserve">
<style type="text/css">
	.st0{display:none;}
	.st1{display:inline;}
	.st2{fill:none;stroke:#000000;stroke-linejoin:round;stroke-miterlimit:10;}
	.st3{fill:none;stroke:#000000;stroke-linecap:round;stroke-linejoin:round;stroke-miterlimit:10;}
</style>
<g id="Filled_Icons" class="st0">
	<g class="st1">
		<path d="M17.5,11c-3.6,0-6.5,2.9-6.5,6.5s2.9,6.5,6.5,6.5s6.5-2.9,6.5-6.5S21.1,11,17.5,11z M13.8,16.3c0.6-1.6,2.1-2.7,3.8-2.7
			c1.1,0,2.2,0.5,3,1.2v-0.3c0-0.3,0.2-0.5,0.5-0.5c0.3,0,0.5,0.2,0.5,0.5v1.9c0,0.3-0.2,0.5-0.5,0.5h-1.9c-0.3,0-0.5-0.2-0.5-0.5
			c0-0.3,0.2-0.5,0.5-0.5h1.1c-0.6-0.8-1.6-1.3-2.6-1.3c-1.3,0-2.4,0.8-2.8,2c-0.1,0.2-0.3,0.3-0.5,0.3c-0.1,0-0.1,0-0.2,0
			C13.8,16.9,13.7,16.6,13.8,16.3z M21.7,19c-0.6,1.6-2.1,2.7-3.8,2.7c-1.1,0-2.2-0.5-3-1.2v0.3c0,0.3-0.2,0.5-0.5,0.5
			c-0.3,0-0.5-0.2-0.5-0.5v-1.9c0-0.3,0.2-0.5,0.5-0.5h1.9c0.3,0,0.5,0.2,0.5,0.5c0,0.3-0.2,0.5-0.5,0.5h-1.1
			c0.6,0.8,1.6,1.3,2.6,1.3c1.3,0,2.4-0.8,2.8-2c0.1-0.3,0.4-0.4,0.6-0.3C21.6,18.4,21.8,18.7,21.7,19z"/>
		<path d="M10,17.5c0-4.1,3.4-7.5,7.5-7.5c1.5,0,3,0.5,4.2,1.3c0.5-1.3,0.8-2.7,0.8-4.1c0-4.3-2.8-6.6-5.6-6.6c-2.1,0-4.3,1.3-5.4,4
			c-1.1-2.7-3.3-4-5.3-4c-3.8,0-5.7,3.6-5.7,7.1c0,3.5,1.9,7.3,5.4,11.1c2.6,2.8,5.2,4.5,5.3,4.6c0.1,0.1,0.2,0.1,0.3,0.1
			c0.1,0,0.2,0,0.3-0.1c0.1,0,0.3-0.2,0.6-0.4C10.9,21.6,10,19.6,10,17.5z"/>
	</g>
</g>
<g id="Outline_Icons">
	<g>
		<g>
			<path class="st2" d="M21,9.4c0.3-0.9,0.5-1.8,0.5-2.8c0-7-9.4-8.4-10.5-1.4C9.9-1.7,0.5-0.9,0.5,6.7c0,6.1,6.8,11.9,9.5,13.9"/>
		</g>
		<g>
			<polyline class="st3" points="22,14 22,16.5 19.5,16.5 			"/>
			<path class="st3" d="M13.3,16.5c0.6-1.7,2.3-3,4.2-3s3.8,1.2,4.5,3"/>
			<g>
				<polyline class="st3" points="13.5,22 13.5,19.5 16,19.5 				"/>
				<path class="st3" d="M22.2,19.5c-0.6,1.7-2.3,3-4.2,3s-3.8-1.2-4.5-3"/>
			</g>
		</g>
	</g>
</g>
</svg>
