<?xml version="1.0" encoding="utf-8"?>
<!-- Generator: Adobe Illustrator 19.2.0, SVG Export Plug-In . SVG Version: 6.00 Build 0)  -->
<svg version="1.1" id="Layer_1" xmlns="http://www.w3.org/2000/svg" xmlns:xlink="http://www.w3.org/1999/xlink" x="0px" y="0px"
	 viewBox="0 0 24 24" style="enable-background:new 0 0 24 24;" xml:space="preserve">
<style type="text/css">
	.st0{display:none;}
	.st1{display:inline;}
	.st2{fill:none;stroke:#000000;stroke-linejoin:round;stroke-miterlimit:10;}
</style>
<g id="Filled_Icons" class="st0">
	<g class="st1">
		<path d="M23.8,18.6l-0.9-0.5c0-0.2,0-0.4,0-0.6c0-0.2,0-0.4,0-0.6l0.9-0.5c0.1-0.1,0.2-0.2,0.2-0.3c0-0.1,0-0.3,0-0.4l-1.6-2.8
			c-0.1-0.1-0.2-0.2-0.3-0.2c-0.1,0-0.3,0-0.4,0l-0.9,0.5c-0.3-0.2-0.7-0.5-1.1-0.6v-1c0-0.3-0.2-0.5-0.5-0.5h-3.3
			c-0.3,0-0.5,0.2-0.5,0.5v1c-0.3,0.1-0.7,0.3-1.1,0.6l-0.9-0.5c-0.2-0.1-0.5-0.1-0.7,0.2l-1.6,2.8C11,15.8,11,15.9,11,16
			c0,0.1,0.1,0.2,0.2,0.3l0.9,0.5c0,0.2,0,0.4,0,0.6c0,0.2,0,0.4,0,0.6l-0.9,0.5c-0.2,0.1-0.3,0.4-0.2,0.7l1.6,2.8
			c0.1,0.2,0.4,0.3,0.7,0.2l0.9-0.5c0.4,0.3,0.8,0.5,1.1,0.6v1c0,0.3,0.2,0.5,0.5,0.5h3.3c0.3,0,0.5-0.2,0.5-0.5v-1
			c0.4-0.2,0.8-0.4,1.1-0.6l0.9,0.5c0.1,0.1,0.3,0.1,0.4,0c0.1,0,0.2-0.1,0.3-0.2l1.6-2.8C24.1,19.1,24,18.8,23.8,18.6z M17.5,19.7
			c-1.2,0-2.2-1-2.2-2.2c0-1.2,1-2.2,2.2-2.2c1.2,0,2.2,1,2.2,2.2C19.7,18.7,18.7,19.7,17.5,19.7z"/>
		<path d="M11.8,22.7l-1.6-2.8c-0.4-0.7-0.2-1.6,0.5-2l0.4-0.2c0,0,0-0.1,0-0.1c0,0,0-0.1,0-0.1l-0.4-0.2c-0.3-0.2-0.6-0.5-0.7-0.9
			c-0.1-0.4,0-0.8,0.1-1.1l1.6-2.8c0.4-0.7,1.3-1,2-0.5l0.4,0.2c0,0,0.1,0,0.1-0.1v-0.4c0-0.8,0.7-1.5,1.5-1.5h3.3
			c0.8,0,1.5,0.7,1.5,1.5v0.4c0,0,0.1,0,0.1,0.1l0.4-0.2c0.1-0.1,0.3-0.1,0.4-0.2c0.6-1.5,1-3,1-4.5c0-4.3-2.8-6.6-5.6-6.6
			c-2.1,0-4.3,1.3-5.4,4c-1.1-2.7-3.3-4-5.3-4c-3.8,0-5.7,3.6-5.7,7.1c0,3.5,1.9,7.3,5.4,11.1c2.6,2.8,5.2,4.5,5.3,4.6
			c0.1,0.1,0.2,0.1,0.3,0.1c0.1,0,0.2,0,0.3-0.1c0,0,0.2-0.1,0.4-0.3C12.1,23,11.9,22.8,11.8,22.7z"/>
	</g>
</g>
<g id="Outline_Icons">
	<g>
		<path class="st2" d="M21.2,10.5c0.4-1.1,0.7-2.2,0.7-3.3c0-7-9.4-8.4-10.5-1.4c-1.1-7-10.5-6.2-10.5,1.4c0,6.6,7.9,12.8,10,14.3"
			/>
		<g>
			<g>
				<path class="st2" d="M15.7,12.9c-0.5,0.2-1.1,0.5-1.6,0.9L13,13.1l-1.6,2.8l1.2,0.7c-0.1,0.3-0.1,0.6-0.1,0.9
					c0,0.3,0,0.6,0.1,0.9l-1.2,0.7l1.6,2.8l1.2-0.7c0.5,0.4,1,0.7,1.6,0.9v1.4H19v-1.4c0.5-0.2,1.1-0.5,1.5-0.9l1.2,0.7l1.6-2.8
					l-1.2-0.7c0.1-0.3,0.1-0.6,0.1-0.9c0-0.3,0-0.6-0.1-0.9l1.2-0.7l-1.6-2.8l-1.2,0.7c-0.5-0.4-1-0.7-1.5-0.9v-1.4h-3.3L15.7,12.9
					L15.7,12.9z"/>
			</g>
			<circle class="st2" cx="17.4" cy="17.5" r="2.2"/>
		</g>
	</g>
</g>
</svg>
