<?xml version="1.0" encoding="utf-8"?>
<!-- Generator: Adobe Illustrator 19.2.0, SVG Export Plug-In . SVG Version: 6.00 Build 0)  -->
<svg version="1.1" id="Layer_1" xmlns="http://www.w3.org/2000/svg" xmlns:xlink="http://www.w3.org/1999/xlink" x="0px" y="0px"
	 viewBox="0 0 24 24" style="enable-background:new 0 0 24 24;" xml:space="preserve">
<style type="text/css">
	.st0{display:none;}
	.st1{display:inline;}
	.st2{fill:none;stroke:#000000;stroke-linejoin:round;stroke-miterlimit:10;}
	.st3{fill:none;stroke:#000000;stroke-linecap:round;stroke-linejoin:round;stroke-miterlimit:10;}
</style>
<g id="Filled_Icons" class="st0">
	<g class="st1">
		<path d="M12,17.3c0-2.9,2.4-5.3,5.3-5.3c1.3,0,2.5,0.5,3.4,1.3c1.1-2,1.8-4,1.8-6.1c0-4.3-2.8-6.6-5.6-6.6c-2.1,0-4.3,1.3-5.4,4
			c-1.1-2.7-3.3-4-5.3-4c-3.8,0-5.7,3.6-5.7,7.1c0,3.5,1.9,7.3,5.4,11.1c2.6,2.8,5.2,4.5,5.3,4.6c0.1,0.1,0.2,0.1,0.3,0.1
			c0.1,0,0.2,0,0.3-0.1c0.1-0.1,1-0.8,2.2-1.9C12.8,20.5,12,19,12,17.3z"/>
		<path d="M23.9,23.1L20.7,20c0.6-0.7,0.9-1.6,0.9-2.7c0-2.4-1.9-4.3-4.3-4.3c-2.4,0-4.3,1.9-4.3,4.3c0,2.4,1.9,4.3,4.3,4.3
			c1,0,1.9-0.4,2.7-0.9l3.2,3.2c0.1,0.1,0.2,0.1,0.4,0.1c0.1,0,0.3,0,0.4-0.1C24,23.7,24,23.3,23.9,23.1z M14,17.3
			c0-1.8,1.5-3.3,3.3-3.3c1.8,0,3.3,1.5,3.3,3.3c0,1.8-1.5,3.3-3.3,3.3C15.5,20.6,14,19.1,14,17.3z"/>
	</g>
</g>
<g id="Outline_Icons">
	<g>
		<circle class="st2" cx="17.3" cy="17.3" r="3.8"/>
		<line class="st3" x1="20" y1="20" x2="23.5" y2="23.5"/>
		<path class="st2" d="M21.5,10.5C21.8,9.6,22,8.7,22,7.8c0-7-9.4-8.4-10.5-1.4C10.4-0.6,1,0.2,1,7.8c0,6.1,6.8,11.9,9.5,13.9"/>
	</g>
</g>
</svg>
