<?xml version="1.0" encoding="utf-8"?>
<!-- Generator: Adobe Illustrator 19.2.0, SVG Export Plug-In . SVG Version: 6.00 Build 0)  -->
<svg version="1.1" id="Layer_1" xmlns="http://www.w3.org/2000/svg" xmlns:xlink="http://www.w3.org/1999/xlink" x="0px" y="0px"
	 viewBox="0 0 24 24" enable-background="new 0 0 24 24" xml:space="preserve">
<g id="Filled_Icons" display="none">
	<g display="inline">
		<path d="M23,11.006h-1.928C20.609,6.769,17.236,3.396,13,2.933V1.006c0-0.553-0.447-1-1-1c-0.553,0-1,0.447-1,1v1.927
			c-4.237,0.464-7.609,3.836-8.073,8.073H1c-0.553,0-1,0.447-1,1c0,0.553,0.447,1,1,1h1.927c0.464,4.237,3.836,7.609,8.073,8.073
			v1.927c0,0.553,0.447,1,1,1c0.553,0,1-0.447,1-1v-1.927c4.236-0.464,7.609-3.836,8.072-8.073H23c0.553,0,1-0.447,1-1
			C24,11.453,23.553,11.006,23,11.006z M13,19.059v-0.791c0-0.553-0.447-1-1-1c-0.553,0-1,0.447-1,1v0.791
			c-3.131-0.442-5.609-2.922-6.053-6.053h0.792c0.553,0,1-0.447,1-1c0-0.553-0.447-1-1-1H4.947C5.391,7.875,7.869,5.396,11,4.953
			v0.793c0,0.553,0.447,1,1,1c0.553,0,1-0.447,1-1V4.953c3.131,0.443,5.609,2.922,6.053,6.053h-0.791c-0.554,0-1,0.447-1,1
			c0,0.553,0.446,1,1,1h0.791C18.609,16.137,16.131,18.615,13,19.059z"/>
		<path d="M13.964,8.486c-0.661,0-1.435,0.311-1.964,1.114c-0.53-0.803-1.302-1.113-1.965-1.113c-1.192,0-2.427,0.982-2.427,2.627
			c0,2.267,3.68,4.98,4.1,5.283c0.087,0.063,0.189,0.095,0.292,0.095s0.205-0.031,0.292-0.095c0.42-0.303,4.099-3.017,4.099-5.283
			C16.391,9.469,15.157,8.486,13.964,8.486z"/>
	</g>
</g>
<g id="Outline_Icons">
	<g>
		<g>
			
				<circle fill="none" stroke="#000000" stroke-linecap="round" stroke-linejoin="round" stroke-miterlimit="10" cx="11.5" cy="12.5" r="8.131"/>
			
				<line fill="none" stroke="#000000" stroke-linecap="round" stroke-linejoin="round" stroke-miterlimit="10" x1="11.5" y1="1.5" x2="11.5" y2="6.24"/>
			
				<line fill="none" stroke="#000000" stroke-linecap="round" stroke-linejoin="round" stroke-miterlimit="10" x1="0.5" y1="12.5" x2="5.239" y2="12.5"/>
			
				<line fill="none" stroke="#000000" stroke-linecap="round" stroke-linejoin="round" stroke-miterlimit="10" x1="11.5" y1="23.5" x2="11.5" y2="18.762"/>
			
				<line fill="none" stroke="#000000" stroke-linecap="round" stroke-linejoin="round" stroke-miterlimit="10" x1="22.5" y1="12.5" x2="17.762" y2="12.5"/>
		</g>
		<path fill="none" stroke="#000000" stroke-linejoin="round" stroke-miterlimit="10" d="M11.5,16.484c0,0,3.891-2.801,3.891-4.877
			c0-2.395-3.184-3.152-3.891-0.238c-0.707-2.914-3.892-2.156-3.892,0.238C7.608,13.684,11.5,16.484,11.5,16.484z"/>
	</g>
</g>
</svg>
