<?xml version="1.0" encoding="utf-8"?>
<!-- Generator: Adobe Illustrator 19.2.0, SVG Export Plug-In . SVG Version: 6.00 Build 0)  -->
<svg version="1.1" id="Layer_1" xmlns="http://www.w3.org/2000/svg" xmlns:xlink="http://www.w3.org/1999/xlink" x="0px" y="0px"
	 viewBox="0 0 24 24" style="enable-background:new 0 0 24 24;" xml:space="preserve">
<style type="text/css">
	.st0{display:none;}
	.st1{display:inline;}
	.st2{fill:none;stroke:#000000;stroke-linejoin:round;stroke-miterlimit:10;}
</style>
<g id="Filled_Icons" class="st0">
	<g class="st1">
		<g>
			<path d="M21,14.7L14.7,21c0.8,0.6,1.7,1,2.8,1c2.5,0,4.5-2,4.5-4.5C22,16.4,21.6,15.5,21,14.7z"/>
			<path d="M20.3,14c-0.8-0.6-1.7-1-2.8-1C15,13,13,15,13,17.5c0,1.1,0.4,2,1,2.8L20.3,14z"/>
			<path d="M17.5,11c-3.6,0-6.5,2.9-6.5,6.5s2.9,6.5,6.5,6.5s6.5-2.9,6.5-6.5S21.1,11,17.5,11z M17.5,23c-3,0-5.5-2.5-5.5-5.5
				c0-3,2.5-5.5,5.5-5.5c3,0,5.5,2.5,5.5,5.5C23,20.5,20.5,23,17.5,23z"/>
		</g>
		<path d="M10,17.5c0-4.1,3.4-7.5,7.5-7.5c1.5,0,3,0.5,4.2,1.3c0.5-1.3,0.8-2.7,0.8-4.1c0-4.3-2.8-6.6-5.6-6.6c-2.1,0-4.3,1.3-5.4,4
			c-1.1-2.7-3.3-4-5.3-4c-3.8,0-5.7,3.6-5.7,7.1c0,3.5,1.9,7.3,5.4,11.1c2.6,2.8,5.2,4.5,5.3,4.6c0.1,0.1,0.2,0.1,0.3,0.1
			c0.1,0,0.2,0,0.3-0.1c0.1,0,0.3-0.2,0.6-0.4C10.9,21.6,10,19.6,10,17.5z"/>
	</g>
</g>
<g id="Outline_Icons">
	<g>
		<g>
			<circle class="st2" cx="17.5" cy="17.5" r="6"/>
			<line class="st2" x1="13.3" y1="21.7" x2="21.7" y2="13.3"/>
		</g>
		<path class="st2" d="M21.3,10c0.3-0.9,0.5-1.8,0.5-2.8c0-7-9.4-8.4-10.5-1.4c-1.1-7-10.5-6.2-10.5,1.4c0,6.1,6.8,11.9,9.5,13.9"/>
	</g>
</g>
</svg>
