<?xml version="1.0" encoding="utf-8"?>
<!-- Generator: Adobe Illustrator 19.2.0, SVG Export Plug-In . SVG Version: 6.00 Build 0)  -->
<svg version="1.1" id="Layer_1" xmlns="http://www.w3.org/2000/svg" xmlns:xlink="http://www.w3.org/1999/xlink" x="0px" y="0px"
	 viewBox="0 0 24 24" style="enable-background:new 0 0 24 24;" xml:space="preserve">
<style type="text/css">
	.st0{display:none;}
	.st1{display:inline;}
	.st2{fill:none;stroke:#000000;stroke-linecap:round;stroke-linejoin:round;stroke-miterlimit:10;}
	.st3{fill:none;stroke:#000000;stroke-linejoin:round;stroke-miterlimit:10;}
</style>
<g id="Filled_Icons" class="st0">
	<g class="st1">
		<path d="M20.1,10C20.1,10,20,10,20.1,10l-0.6,0c0,0.2,0.1,0.5,0.1,0.8c0,2.6-1.8,5.1-3.5,6.8v0.9c0,1.1,0.9,2,2,2V18
			c0-0.3,0.2-0.5,0.5-0.5c0.3,0,0.5,0.2,0.5,0.5v0.5v1.7V21c0,1.6,0.7,2.5,2,2.5c1.3,0,2-0.9,2-2.5v-7C23,11.9,21.9,10.3,20.1,10z"
			/>
		<path d="M4.5,10H4c0,0-0.1,0-0.1,0C2.1,10.3,1,11.9,1,14v7c0,1.6,0.7,2.5,2,2.5c1.3,0,2-0.9,2-2.5v-0.8v-1.7V18
			c0-0.3,0.2-0.5,0.5-0.5C5.8,17.5,6,17.7,6,18v2.5c1.1,0,2-0.9,2-2v-0.8c-1.7-1.7-3.5-4.1-3.5-6.9C4.5,10.5,4.5,10.3,4.5,10z"/>
		<path d="M12,5c2.2,0,6-0.4,6-2c0-1.6-3.8-2-6-2C9.8,1,6,1.4,6,3C6,4.6,9.8,5,12,5z M12,2c3,0,4.9,0.7,5,1c-0.1,0.4-2,1-5,1
			C9,4,7.1,3.3,7,3C7.1,2.7,9,2,12,2z"/>
		<path d="M15,6.8c-0.1,0-0.3,0-0.4,0c0,0-0.1,0-0.1,0c-0.1,0-0.2,0-0.3,0.1C14.2,7,14.1,7,14,7C14,7,13.9,7,13.9,7
			c-0.1,0-0.2,0.1-0.2,0.1c0,0-0.1,0-0.1,0c-0.4,0.2-0.8,0.5-1.1,0.9c0,0,0,0,0,0c-0.1,0.2-0.3,0.4-0.4,0.6
			c-0.4-0.7-0.8-1.1-1.4-1.5c0,0,0,0,0,0c-0.1-0.1-0.3-0.1-0.4-0.2c0,0,0,0,0,0c-0.1-0.1-0.2-0.1-0.4-0.1c0,0,0,0,0,0
			c-0.1,0-0.3-0.1-0.4-0.1c0,0,0,0,0,0c-0.1,0-0.3,0-0.4,0c-1.6,0-3.2,1.2-3.4,3.6c0,0.2,0,0.3,0,0.5c0,2.7,2,5.1,3.7,6.7l0,0
			c0.7,0.6,1.4,1.2,1.9,1.5c0.4,0.3,0.6,0.4,0.7,0.4l0,0c0.1,0,0.2,0.1,0.3,0.1c0.1,0,0.2,0,0.3-0.1c0,0,0.3-0.2,0.6-0.4
			c1.6-1.2,5.6-4.5,5.6-8.2C18.5,8.2,16.7,6.8,15,6.8z"/>
	</g>
</g>
<g id="Outline_Icons">
	<g>
		<path class="st2" d="M20,10.5c1.6,0.2,2.5,1.7,2.5,3.5v7c0,1.1-0.4,2-1.5,2c-1.1,0-1.5-0.9-1.5-2v-4.5v2c0,0.8-0.7,1.5-1.5,1.5
			c-0.8,0-1.5-0.7-1.5-1.5v-1"/>
		<path class="st2" d="M4,10.5c-1.6,0.2-2.5,1.7-2.5,3.5v7c0,1.1,0.4,2,1.5,2s1.5-0.9,1.5-2v-4.5v2C4.5,19.3,5.2,20,6,20
			c0.8,0,1.5-0.7,1.5-1.5v-1"/>
		<path class="st3" d="M12,19c0,0,6-4,6-8.2c0-4.2-5.3-4.8-6-0.5c-0.7-4.2-6-4-6,0.5C6,15.4,12,19,12,19z"/>
		<ellipse class="st3" cx="12" cy="3" rx="5.5" ry="1.5"/>
		<path class="st3" d="M12,19c0,0,6-4,6-8.2c0-4.2-5.3-4.8-6-0.5c-0.7-4.2-6-4-6,0.5C6,15.4,12,19,12,19z"/>
	</g>
</g>
</svg>
