<?xml version="1.0" encoding="utf-8"?>
<!-- Generator: Adobe Illustrator 19.2.0, SVG Export Plug-In . SVG Version: 6.00 Build 0)  -->
<svg version="1.1" id="Layer_1" xmlns="http://www.w3.org/2000/svg" xmlns:xlink="http://www.w3.org/1999/xlink" x="0px" y="0px"
	 viewBox="0 0 24 24" style="enable-background:new 0 0 24 24;" xml:space="preserve">
<style type="text/css">
	.st0{display:none;}
	.st1{display:inline;}
	.st2{fill:none;stroke:#000000;stroke-linejoin:round;stroke-miterlimit:10;}
</style>
<g id="Filled_Icons" class="st0">
	<path class="st1" d="M17.4,0.5c-2.1,0-4.3,1.3-5.4,4c-1.1-2.7-3.3-4-5.3-4C3.9,0.5,1,3,1,7.6C1,16.1,11.3,23,11.7,23.3
		c0.1,0.1,0.2,0.1,0.3,0.1c0.1,0,0.2,0,0.3-0.1C12.7,22.9,23,14.9,23,7C23,2.7,20.2,0.5,17.4,0.5z M14.5,16.4c0,0.2,0,0.3-0.1,0.4
		C14.3,16.9,14.2,17,14,17h-4c-0.2,0-0.3-0.1-0.4-0.2c-0.1-0.1-0.1-0.3-0.1-0.4l0.9-3.1c-0.6-0.5-1-1.2-1-2c0-1.4,1.1-2.5,2.5-2.5
		c1.4,0,2.5,1.1,2.5,2.5c0,0.8-0.4,1.5-1,2L14.5,16.4z"/>
</g>
<g id="Outline_Icons">
	<g>
		<g>
			<path class="st2" d="M12,22.8c0,0,10.5-8.1,10.5-15.8c0-7.7-9.3-8.3-10.5-0.6C10.8-1.3,1.5-0.7,1.5,7.6C1.5,15.9,12,22.8,12,22.8
				z"/>
		</g>
		<path class="st2" d="M14,11.3c0-1.1-0.9-2-2-2c-1.1,0-2,0.9-2,2c0,0.8,0.4,1.4,1.1,1.8L10,16.5h4l-1.1-3.4
			C13.6,12.7,14,12.1,14,11.3z"/>
	</g>
</g>
</svg>
