<?xml version="1.0" encoding="utf-8"?>
<!-- Generator: Adobe Illustrator 19.2.0, SVG Export Plug-In . SVG Version: 6.00 Build 0)  -->
<svg version="1.1" id="Layer_1" xmlns="http://www.w3.org/2000/svg" xmlns:xlink="http://www.w3.org/1999/xlink" x="0px" y="0px"
	 viewBox="0 0 24 24" enable-background="new 0 0 24 24" xml:space="preserve">
<g id="Filled_Icons" display="none">
	<path display="inline" d="M23.707,22.299l-8.54-8.537C16.312,12.313,17,10.49,17,8.506c0-4.687-3.813-8.5-8.5-8.5
		c-4.687,0-8.5,3.813-8.5,8.5c0,4.687,3.813,8.5,8.5,8.5c1.983,0,3.806-0.688,5.253-1.831l8.54,8.538
		c0.195,0.195,0.451,0.293,0.707,0.293c0.256,0,0.512-0.098,0.707-0.293C24.098,23.322,24.098,22.69,23.707,22.299z M8.79,13.165
		c-0.087,0.062-0.188,0.093-0.29,0.093c-0.102,0-0.203-0.031-0.29-0.093C7.729,12.822,3.5,9.742,3.5,7.188
		c0-1.834,1.387-2.93,2.728-2.93c0.771,0,1.674,0.372,2.272,1.343c0.599-0.971,1.501-1.343,2.272-1.343
		c1.341,0,2.728,1.096,2.728,2.93C13.5,9.742,9.271,12.822,8.79,13.165z"/>
</g>
<g id="Outline_Icons">
	<g>
		<circle fill="none" stroke="#000000" stroke-linejoin="round" stroke-miterlimit="10" cx="8.5" cy="8.5" r="8"/>
		
			<line fill="none" stroke="#000000" stroke-linecap="round" stroke-linejoin="round" stroke-miterlimit="10" x1="14.166" y1="14.168" x2="23.5" y2="23.5"/>
		<path fill="none" stroke="#000000" stroke-linejoin="round" stroke-miterlimit="10" d="M8.5,12.752c0,0,4.5-3.201,4.5-5.57
			c0-2.736-3.682-3.6-4.5-0.273C7.682,3.582,4,4.445,4,7.182C4,9.551,8.5,12.752,8.5,12.752z"/>
	</g>
</g>
</svg>
