<?xml version="1.0" encoding="utf-8"?>
<!-- Generator: Adobe Illustrator 19.2.0, SVG Export Plug-In . SVG Version: 6.00 Build 0)  -->
<svg version="1.1" id="Layer_1" xmlns="http://www.w3.org/2000/svg" xmlns:xlink="http://www.w3.org/1999/xlink" x="0px" y="0px"
	 viewBox="0 0 24 24" style="enable-background:new 0 0 24 24;" xml:space="preserve">
<style type="text/css">
	.st0{display:none;}
	.st1{display:inline;}
	.st2{fill:none;stroke:#000000;stroke-linejoin:round;stroke-miterlimit:10;}
</style>
<g id="Filled_Icons" class="st0">
	<path class="st1" d="M17.4,0c-2.1,0-4.3,1.3-5.4,4c-1.1-2.7-3.3-4-5.3-4C3,0.1,1,3.6,1,7.2c0,3.5,1.9,7.3,5.4,11.1
		c2.6,2.8,5.2,4.5,5.3,4.6c0.1,0.1,0.2,0.1,0.3,0.1c0.1,0,0.2,0,0.3-0.1C12.7,22.5,23,14.4,23,6.6C23,2.3,20.2,0,17.4,0z"/>
</g>
<g id="Outline_Icons">
	<g>
		<path class="st2" d="M12,22.4c0,0,10.5-8.1,10.5-15.8S13.2-1.7,12,6C10.8-1.7,1.5-1.1,1.5,7.2C1.5,15.5,12,22.4,12,22.4z"/>
	</g>
</g>
</svg>
