<?xml version="1.0" encoding="utf-8"?>
<!-- Generator: Adobe Illustrator 19.2.0, SVG Export Plug-In . SVG Version: 6.00 Build 0)  -->
<svg version="1.1" id="Layer_1" xmlns="http://www.w3.org/2000/svg" xmlns:xlink="http://www.w3.org/1999/xlink" x="0px" y="0px"
	 viewBox="0 0 24 24" enable-background="new 0 0 24 24" xml:space="preserve">
<g id="Filled_Icons" display="none">
	<path display="inline" d="M23.111,8.608c-0.797-1.923-2.647-3.197-4.586-3.088c0.054-1.071-0.305-2.15-1.022-3.045
		c-0.976-1.214-2.494-1.938-4.062-1.938c-1.551,0-3.051,0.681-4.346,1.976c-3.141,3.298-1.723,9.708-1.063,12.045l-7.739,7.74
		c-0.391,0.391-0.391,1.024,0,1.414C0.488,23.908,0.744,24.006,1,24.006c0.256,0,0.512-0.098,0.707-0.293l7.716-7.717
		c1.202,0.341,3.577,0.908,6.054,0.908c2.658,0,4.696-0.658,6.066-1.963C23.398,13.086,23.984,10.719,23.111,8.608z M18.33,12.92
		c-0.807,0.768-1.986,1.152-3.518,1.152c-1.951,0-3.797-0.625-3.874-0.652c-0.146-0.05-0.261-0.164-0.311-0.311
		c-0.071-0.207-1.708-5.075,0.489-7.384c0.963-0.963,1.927-1.163,2.567-1.163c0.936,0,1.84,0.433,2.424,1.157
		c0.379,0.473,0.592,1.033,0.615,1.602c1.072,0.044,2.077,0.776,2.521,1.849C19.766,10.425,19.424,11.826,18.33,12.92z"/>
</g>
<g id="Outline_Icons">
	<g>
		<path fill="none" stroke="#000000" stroke-linejoin="round" stroke-miterlimit="10" d="M17.945,6.096
			c0.826-3.76-4.393-7.34-8.487-3.244C5.821,6.67,8.772,15.27,8.772,15.27s8.599,2.949,12.417-0.688
			C25.284,10.488,21.704,5.27,17.945,6.096z"/>
		<path fill="none" stroke="#000000" stroke-linejoin="round" stroke-miterlimit="10" d="M16.18,7.861
			c0.457-2.082-2.433-4.064-4.7-1.797c-2.014,2.115-0.379,6.877-0.379,6.877s4.76,1.633,6.875-0.381
			C20.243,10.293,18.262,7.404,16.18,7.861z"/>
		
			<line fill="none" stroke="#000000" stroke-linecap="round" stroke-linejoin="round" stroke-miterlimit="10" x1="8.763" y1="15.236" x2="0.5" y2="23.5"/>
	</g>
</g>
</svg>
