<?xml version="1.0" encoding="utf-8"?>
<!-- Generator: Adobe Illustrator 19.2.0, SVG Export Plug-In . SVG Version: 6.00 Build 0)  -->
<svg version="1.1" id="Layer_1" xmlns="http://www.w3.org/2000/svg" xmlns:xlink="http://www.w3.org/1999/xlink" x="0px" y="0px"
	 viewBox="0 0 24 24" enable-background="new 0 0 24 24" xml:space="preserve">
<g id="Filled_Icons" display="none">
	<g display="inline">
		<path d="M23,22.006h-8.354c1.086-0.777,1.965-1.818,2.551-3.031c0.287,0.049,2.486,0.031,2.804,0.031c2.28,0,4-1.936,4-4.5
			c0-2.565-1.72-4.5-4-4.5h-2v-1c0-0.276-0.224-0.5-0.5-0.5h-15c-0.276,0-0.5,0.224-0.5,0.5v6.5c0,2.678,1.327,5.047,3.354,6.5H1
			c-0.553,0-1,0.447-1,1c0,0.553,0.447,1,1,1h22c0.553,0,1-0.447,1-1C24,22.453,23.553,22.006,23,22.006z M20,12.006
			c1.312,0,2,1.258,2,2.5c0,1.213-0.701,2.5-2,2.5h-2.147C17.947,16.52,18,16.02,18,15.506v-3.5H20z"/>
		<path d="M9.708,7.213C9.795,7.275,9.897,7.307,10,7.307s0.205-0.031,0.292-0.094C10.672,6.939,14,4.483,14,2.42
			c0-1.511-1.137-2.414-2.232-2.414c-0.594,0-1.281,0.271-1.768,0.963C9.515,0.276,8.827,0.006,8.233,0.006
			C7.136,0.006,6,0.909,6,2.42C6,4.483,9.328,6.939,9.708,7.213z"/>
	</g>
</g>
<g id="Outline_Icons">
	<g>
		<path fill="none" stroke="#000000" stroke-linecap="round" stroke-linejoin="round" stroke-miterlimit="10" d="M17.35,17.5H20
			c1.841,0,3-1.66,3-3.5c0-1.842-1.159-3.5-3-3.5h-2.5"/>
		
			<line fill="none" stroke="#000000" stroke-linecap="round" stroke-linejoin="round" stroke-miterlimit="10" x1="0.5" y1="23.5" x2="23.5" y2="23.5"/>
		<path fill="none" stroke="#000000" stroke-linejoin="round" stroke-miterlimit="10" d="M10,6.801c0,0,3.5-2.521,3.5-4.387
			c0-2.154-2.863-2.836-3.5-0.215C9.364-0.422,6.5,0.26,6.5,2.414C6.5,4.281,10,6.801,10,6.801z"/>
		<path fill="none" stroke="#000000" stroke-linecap="round" stroke-linejoin="round" stroke-miterlimit="10" d="M17.5,16
			c0,4.143-3.357,7.5-7.5,7.5c-4.143,0-7.5-3.357-7.5-7.5V9.5h15V16z"/>
	</g>
</g>
</svg>
