<?xml version="1.0" encoding="utf-8"?>
<!-- Generator: Adobe Illustrator 19.2.0, SVG Export Plug-In . SVG Version: 6.00 Build 0)  -->
<svg version="1.1" id="Layer_1" xmlns="http://www.w3.org/2000/svg" xmlns:xlink="http://www.w3.org/1999/xlink" x="0px" y="0px"
	 viewBox="0 0 24 24" enable-background="new 0 0 24 24" xml:space="preserve">
<g id="Filled_Icons" display="none">
	<g display="inline">
		<path d="M16.908,0.559c-2.064,0-4.338,1.259-5.408,4.021c-1.055-2.719-3.271-3.958-5.28-3.958c-2.843,0-5.72,2.439-5.72,7.103
			c0,8.455,10.286,15.354,10.725,15.644c0.083,0.056,0.18,0.083,0.275,0.083c0.108,0,0.216-0.035,0.306-0.104
			C12.243,23.009,22.5,14.979,22.5,7.133C22.5,2.816,19.687,0.559,16.908,0.559z M15.99,15.604c-0.047,0.234-0.252,0.402-0.49,0.402
			H15v1.5c0,0.275-0.225,0.5-0.5,0.5H13v-2.5c0-0.275-0.225-0.5-0.5-0.5c-0.276,0-0.5,0.225-0.5,0.5v2.5h-1v-2.5
			c0-0.275-0.224-0.5-0.5-0.5c-0.276,0-0.5,0.225-0.5,0.5v2.5H8.5c-0.276,0-0.5-0.225-0.5-0.5v-1.5H7.5
			c-0.238,0-0.443-0.168-0.49-0.402l-1-5C6,9.127,7.121,8.006,8.5,8.006h6c1.379,0,2.5,1.121,2.5,2.5L15.99,15.604z"/>
		<circle cx="10" cy="12.006" r="1"/>
		<circle cx="13" cy="12.006" r="1"/>
	</g>
</g>
<g id="Outline_Icons">
	<g>
		<g>
			<path fill="none" stroke="#000000" stroke-linejoin="round" stroke-miterlimit="10" d="M11.5,22.945c0,0,10.5-8.127,10.5-15.818
				c0-7.693-9.316-8.285-10.5-0.592C10.316-1.158,1-0.566,1,7.719C1,16.002,11.5,22.945,11.5,22.945z"/>
		</g>
		<path fill="none" stroke="#000000" stroke-linecap="round" stroke-linejoin="round" stroke-miterlimit="10" d="M14.5,17.5h-6v-2
			h-1l-1-5c0-1.105,0.896-2,2-2h6c1.103,0,2,0.895,2,2l-1,5h-1V17.5z"/>
		
			<line fill="none" stroke="#000000" stroke-linecap="round" stroke-linejoin="round" stroke-miterlimit="10" x1="10.5" y1="17.5" x2="10.5" y2="15"/>
		
			<line fill="none" stroke="#000000" stroke-linecap="round" stroke-linejoin="round" stroke-miterlimit="10" x1="12.5" y1="17.5" x2="12.5" y2="15"/>
		
			<circle fill="none" stroke="#000000" stroke-linecap="round" stroke-linejoin="round" stroke-miterlimit="10" cx="10" cy="12" r="0.5"/>
		
			<circle fill="none" stroke="#000000" stroke-linecap="round" stroke-linejoin="round" stroke-miterlimit="10" cx="13" cy="12" r="0.5"/>
	</g>
</g>
</svg>
