<?xml version="1.0" encoding="utf-8"?>
<!-- Generator: Adobe Illustrator 19.2.0, SVG Export Plug-In . SVG Version: 6.00 Build 0)  -->
<svg version="1.1" id="Layer_1" xmlns="http://www.w3.org/2000/svg" xmlns:xlink="http://www.w3.org/1999/xlink" x="0px" y="0px"
	 viewBox="0 0 24 24" style="enable-background:new 0 0 24 24;" xml:space="preserve">
<style type="text/css">
	.st0{display:none;}
	.st1{display:inline;}
	.st2{fill:none;stroke:#000000;stroke-linecap:round;stroke-linejoin:round;stroke-miterlimit:10;}
	.st3{fill:none;stroke:#000000;stroke-linejoin:round;stroke-miterlimit:10;}
</style>
<g id="Filled_Icons" class="st0">
	<g class="st1">
		<path d="M10,18.5c0-1.9,1.6-3.5,3.5-3.5c0.8,0,1.5,0.3,2.1,0.8l2.4-1.2c0,0,0,0,0-0.1c0-1.9,1.6-3.5,3.5-3.5c0.1,0,0.2,0,0.3,0
			c0.5-1.3,0.7-2.6,0.7-3.8c0-4.3-2.8-6.6-5.6-6.6c-2.1,0-4.3,1.3-5.4,4c-1.1-2.7-3.3-4-5.3-4c-3.8,0-5.7,3.6-5.7,7.1
			c0,3.5,1.9,7.3,5.4,11.1c2.6,2.8,5.2,4.5,5.3,4.6c0.1,0.1,0.2,0.1,0.3,0.1c0.1,0,0.2,0,0.3-0.1c0.1-0.1,0.7-0.6,1.7-1.4
			C11.6,22,10,20.4,10,18.5z"/>
		<path d="M21.5,19c-0.8,0-1.5,0.4-1.9,0.9L16,18.8c0-0.1,0-0.2,0-0.3c0-0.2,0-0.4-0.1-0.6l3.8-1.7c0.5,0.5,1.1,0.8,1.8,0.8
			c1.4,0,2.5-1.1,2.5-2.5c0-1.4-1.1-2.5-2.5-2.5c-1.4,0-2.5,1.1-2.5,2.5c0,0.3,0.1,0.6,0.2,0.8L15.5,17c-0.5-0.6-1.2-1-2-1
			c-1.4,0-2.5,1.1-2.5,2.5c0,1.4,1.1,2.5,2.5,2.5c0.9,0,1.7-0.5,2.1-1.2l3.5,1.1C19,21,19,21.3,19,21.5c0,1.4,1.1,2.5,2.5,2.5
			c1.4,0,2.5-1.1,2.5-2.5C24,20.1,22.9,19,21.5,19z M21.5,13c0.8,0,1.5,0.7,1.5,1.5c0,0.8-0.7,1.5-1.5,1.5c-0.8,0-1.5-0.7-1.5-1.5
			C20,13.7,20.7,13,21.5,13z M13.5,20c-0.8,0-1.5-0.7-1.5-1.5c0-0.8,0.7-1.5,1.5-1.5c0.8,0,1.5,0.7,1.5,1.5C15,19.3,14.3,20,13.5,20
			z M21.5,23c-0.8,0-1.5-0.7-1.5-1.5c0-0.8,0.7-1.5,1.5-1.5c0.8,0,1.5,0.7,1.5,1.5C23,22.3,22.3,23,21.5,23z"/>
	</g>
</g>
<g id="Outline_Icons">
	<g>
		<g>
			<circle class="st2" cx="21.5" cy="14.5" r="2"/>
			<circle class="st2" cx="21.5" cy="21.5" r="2"/>
			<circle class="st2" cx="13.5" cy="18.5" r="2"/>
			<line class="st2" x1="15.3" y1="17.6" x2="19.7" y2="15.4"/>
			<line class="st2" x1="15.4" y1="19.2" x2="19.6" y2="20.8"/>
		</g>
		<path class="st3" d="M21.3,10.5C21.7,9.4,22,8.4,22,7.3c0-7-9.4-8.4-10.5-1.4C10.4-1.1,1-0.3,1,7.3C1,13.8,8.9,20,11,21.5"/>
	</g>
</g>
</svg>
