<?xml version="1.0" encoding="utf-8"?>
<!-- Generator: Adobe Illustrator 19.2.0, SVG Export Plug-In . SVG Version: 6.00 Build 0)  -->
<svg version="1.1" id="Layer_1" xmlns="http://www.w3.org/2000/svg" xmlns:xlink="http://www.w3.org/1999/xlink" x="0px" y="0px"
	 viewBox="0 0 24 24" style="enable-background:new 0 0 24 24;" xml:space="preserve">
<style type="text/css">
	.st0{display:none;}
	.st1{display:inline;}
	.st2{fill:none;stroke:#000000;stroke-linejoin:round;stroke-miterlimit:10;}
</style>
<g id="Filled_Icons" class="st0">
	<g class="st1">
		<path d="M16.9,0c-1.8,0-3.7,0.9-4.9,3v4.4c0,0.2-0.1,0.3-0.2,0.4l-3.1,2l5.6,2.1c0.2,0.1,0.3,0.2,0.3,0.4c0,0.2-0.1,0.4-0.2,0.5
			L10,15.4l1.8,1.1c0.2,0.1,0.2,0.3,0.2,0.4v5.7c1.5-1.2,10.5-8.7,10.5-16.1C22.5,2.3,19.7,0,16.9,0z"/>
		<path d="M8.5,15.4c0-0.2,0.1-0.3,0.2-0.4l4.1-2.5l-5.5-2.1C7.1,10.3,7,10.1,7,9.9c0-0.2,0.1-0.4,0.2-0.5L11,7.1V3
			C9.8,1,8,0.1,6.2,0.1c-3.8,0-5.7,3.6-5.7,7.1c0,3.5,1.9,7.3,5.4,11.1c2.2,2.4,4.4,3.9,5.1,4.4v-5.5l-2.3-1.4
			C8.6,15.7,8.5,15.6,8.5,15.4z"/>
	</g>
</g>
<g id="Outline_Icons">
	<g>
		<path class="st2" d="M11.5,22.4c0,0,10.5-8.1,10.5-15.8c0-7.7-9.3-8.3-10.5-0.6C10.3-1.7,1-1.1,1,7.2C1,15.4,11.5,22.4,11.5,22.4z
			"/>
		<polyline class="st2" points="11.5,5.9 11.5,7.4 7.5,9.9 14,12.4 9,15.4 11.5,16.9 11.5,22.4 		"/>
	</g>
</g>
</svg>
