<?xml version="1.0" encoding="utf-8"?>
<!-- Generator: Adobe Illustrator 19.2.0, SVG Export Plug-In . SVG Version: 6.00 Build 0)  -->
<svg version="1.1" id="Layer_1" xmlns="http://www.w3.org/2000/svg" xmlns:xlink="http://www.w3.org/1999/xlink" x="0px" y="0px"
	 viewBox="0 0 24 24" enable-background="new 0 0 24 24" xml:space="preserve">
<g id="Filled_Icons" display="none">
	<path display="inline" d="M21.74,5.213c-0.913-0.504-2.29-0.598-3.574,0.459c-0.141-1.255-0.772-1.956-1.205-2.297
		c-0.463-0.363-1.023-0.558-1.605-0.604c0.322,0.697,0.515,1.505,0.515,2.416c0,2.002-1.378,4.111-2.972,5.889
		c0.481,1.088,0.985,2.004,1.285,2.522c-0.924,0.573-2.832,2.113-2.832,5.045c0,1.291,0.133,2.299,0.304,3.076
		c-0.276-0.189-0.554-0.369-0.829-0.537c-1.67-1.025-3.113-1.927-3.012-6.873c0.782-0.58,7.055-5.344,7.055-9.122
		c0-2.711-2-4.33-3.935-4.33c-1.21,0-2.646,0.657-3.5,2.403c-0.854-1.746-2.29-2.403-3.5-2.403C2,0.857,0,2.477,0,5.188
		c0,3.514,5.426,7.878,6.817,8.941c-0.147,5.663,1.697,6.807,3.485,7.905c0.778,0.478,1.513,0.929,2.123,1.767
		c0.037,0.051,0.089,0.084,0.138,0.116c0.017,0.011,0.025,0.026,0.043,0.035c0.068,0.034,0.146,0.054,0.225,0.054
		c0.095,0,0.188-0.033,0.271-0.089c0.006-0.003,0.01-0.001,0.015-0.004l0,0c0.003-0.002,0.006-0.001,0.009-0.003
		c0.202-0.149,0.252-0.416,0.141-0.633c-0.011-0.021-0.014-0.041-0.025-0.061c-0.01-0.013-0.888-1.324-0.888-4.574
		c0-2.976,2.375-4.229,2.692-4.386c0.575-0.146,6.873-1.804,8.043-4.689C23.874,7.629,23.005,5.909,21.74,5.213z M4.076,3.947
		C3.414,4.279,3.019,4.981,3.019,5.826c0,0.122,0.015,0.25,0.045,0.389C3.121,6.485,2.949,6.751,2.68,6.81
		C2.644,6.816,2.608,6.82,2.573,6.82c-0.23,0-0.438-0.16-0.488-0.395C2.04,6.216,2.019,6.02,2.019,5.825
		c0-1.23,0.602-2.268,1.608-2.773c0.245-0.124,0.547-0.025,0.672,0.223C4.422,3.522,4.322,3.823,4.076,3.947z"/>
</g>
<g id="Outline_Icons">
	<g>
		<path fill="none" stroke="#000000" stroke-linejoin="round" stroke-miterlimit="10" d="M7.435,13.961c0,0,6.935-5.045,6.935-8.779
			c0-4.311-5.674-5.676-6.935-0.432C6.174-0.494,0.5,0.871,0.5,5.182C0.5,8.916,7.435,13.961,7.435,13.961z"/>
		<path fill="none" stroke="#000000" stroke-linecap="round" stroke-linejoin="round" stroke-miterlimit="10" d="M3.852,3.494
			C3.097,3.873,2.519,4.697,2.519,5.82c0,0.162,0.02,0.326,0.056,0.494"/>
		<path fill="none" stroke="#000000" stroke-linejoin="round" stroke-miterlimit="10" d="M12.662,9.086
			c0.779,2.393,2.212,4.693,2.212,4.693s6.631-1.646,7.75-4.404c1.291-3.184-2.49-5.889-4.991-2.395
			c0.458-3.047-1.775-4.266-3.553-3.537"/>
		<path fill="none" stroke="#000000" stroke-linecap="round" stroke-linejoin="round" stroke-miterlimit="10" d="M7.32,13.918
			c-0.281,8.063,3.344,6.609,5.51,9.582"/>
		<path fill="none" stroke="#000000" stroke-linecap="round" stroke-linejoin="round" stroke-miterlimit="10" d="M14.874,13.779
			c0,0-3.022,1.357-3.022,4.857S12.83,23.5,12.83,23.5"/>
	</g>
</g>
</svg>
