<?xml version="1.0" encoding="utf-8"?>
<!-- Generator: Adobe Illustrator 19.2.0, SVG Export Plug-In . SVG Version: 6.00 Build 0)  -->
<svg version="1.1" id="Layer_1" xmlns="http://www.w3.org/2000/svg" xmlns:xlink="http://www.w3.org/1999/xlink" x="0px" y="0px"
	 viewBox="0 0 24 24" style="enable-background:new 0 0 24 24;" xml:space="preserve">
<style type="text/css">
	.st0{display:none;}
	.st1{display:inline;}
	.st2{fill:none;stroke:#000000;stroke-linejoin:round;stroke-miterlimit:10;}
	.st3{fill:none;stroke:#000000;stroke-linecap:round;stroke-linejoin:round;stroke-miterlimit:10;}
</style>
<g id="Filled_Icons" class="st0">
	<g class="st1">
		<path d="M12,15.5c0-0.8,0.7-1.5,1.5-1.5h0.6c0.3-2.2,2.1-4,4.4-4c1.2,0,2.3,0.5,3.1,1.3c0.5-1.4,0.9-2.8,0.9-4.1
			c0-4.3-2.8-6.6-5.6-6.6c-2.1,0-4.3,1.3-5.4,4c-1.1-2.7-3.3-4-5.3-4c-3.8,0-5.7,3.6-5.7,7.1c0,3.5,1.9,7.3,5.4,11.1
			c2.6,2.8,5.2,4.5,5.3,4.6c0.1,0.1,0.2,0.1,0.3,0.1c0.1,0,0.2,0,0.3-0.1c0,0,0.1-0.1,0.2-0.2V15.5z"/>
		<path d="M23.5,15H22v-0.5c0-1.9-1.6-3.5-3.5-3.5c-1.9,0-3.5,1.6-3.5,3.5V15h-1.5c-0.3,0-0.5,0.2-0.5,0.5v8c0,0.3,0.2,0.5,0.5,0.5
			h10c0.3,0,0.5-0.2,0.5-0.5v-8C24,15.2,23.8,15,23.5,15z M19,19.3V21c0,0.3-0.2,0.5-0.5,0.5c-0.3,0-0.5-0.2-0.5-0.5v-1.7
			c-0.3-0.2-0.5-0.5-0.5-0.8c0-0.6,0.4-1,1-1c0.6,0,1,0.4,1,1C19.5,18.9,19.3,19.2,19,19.3z M21,15h-5v-0.5c0-1.4,1.1-2.5,2.5-2.5
			c1.4,0,2.5,1.1,2.5,2.5V15z"/>
	</g>
</g>
<g id="Outline_Icons">
	<g>
		<g>
			<path class="st2" d="M21.5,10C21.8,9.1,22,8.2,22,7.3c0-7-9.4-8.4-10.5-1.4C10.4-1.1,1-0.3,1,7.3c0,6.1,6.8,11.9,9.5,13.9"/>
		</g>
		<g>
			<rect x="13.5" y="15.5" class="st3" width="10" height="8"/>
			<line class="st3" x1="18.5" y1="21" x2="18.5" y2="19"/>
			<path class="st3" d="M15.5,15.5v-1c0-1.7,1.3-3,3-3c1.7,0,3,1.3,3,3v1"/>
			<circle class="st3" cx="18.5" cy="18.5" r="0.5"/>
		</g>
	</g>
</g>
</svg>
