<?xml version="1.0" encoding="utf-8"?>
<!-- Generator: Adobe Illustrator 19.2.0, SVG Export Plug-In . SVG Version: 6.00 Build 0)  -->
<svg version="1.1" id="Layer_1" xmlns="http://www.w3.org/2000/svg" xmlns:xlink="http://www.w3.org/1999/xlink" x="0px" y="0px"
	 viewBox="0 0 24 24" enable-background="new 0 0 24 24" xml:space="preserve">
<g id="Filled_Icons" display="none">
	<path display="inline" d="M21.63,4.545c-0.073-0.02-7.399-2.018-9.769-4.393c-0.188-0.188-0.535-0.188-0.725,0
		C8.77,2.527,1.443,4.525,1.37,4.545C1.151,4.604,1,4.802,1,5.027c0,8.569,0.761,15.405,10.326,18.948
		c0.057,0.021,0.115,0.03,0.174,0.03c0.059,0,0.117-0.011,0.174-0.03C21.238,20.434,22,13.598,22,5.027
		C22,4.802,21.85,4.604,21.63,4.545z M11.793,17.623c-0.087,0.063-0.189,0.094-0.292,0.094c-0.103,0-0.205-0.031-0.292-0.094
		c-0.245-0.178-5.999-4.355-5.999-7.662c0-2.295,1.712-3.666,3.367-3.666c1.003,0,2.187,0.521,2.924,1.891
		c0.736-1.37,1.919-1.891,2.922-1.891c1.655,0,3.367,1.371,3.367,3.666C17.79,13.268,12.038,17.445,11.793,17.623z"/>
</g>
<g id="Outline_Icons">
	<g>
		<path fill="none" stroke="#000000" stroke-linejoin="round" stroke-miterlimit="10" d="M11.501,17.211
			c0,0,5.789-4.168,5.789-7.256c0-3.564-4.737-4.689-5.789-0.357C10.447,5.266,5.71,6.391,5.71,9.955
			C5.71,13.043,11.501,17.211,11.501,17.211z"/>
		<path fill="none" stroke="#000000" stroke-linecap="round" stroke-linejoin="round" stroke-miterlimit="10" d="M11.508,0.5h-0.017
			C9,2.998,1.5,5.021,1.5,5.021c0,7.961,0.5,14.961,10,18.479c9.5-3.518,10-10.518,10-18.479C21.5,5.021,14,2.998,11.508,0.5z"/>
	</g>
</g>
</svg>
