<?xml version="1.0" encoding="utf-8"?>
<!-- Generator: Adobe Illustrator 19.2.0, SVG Export Plug-In . SVG Version: 6.00 Build 0)  -->
<svg version="1.1" id="Layer_1" xmlns="http://www.w3.org/2000/svg" xmlns:xlink="http://www.w3.org/1999/xlink" x="0px" y="0px"
	 viewBox="0 0 24 24" enable-background="new 0 0 24 24" xml:space="preserve">
<g id="Filled_Icons" display="none">
	<g display="inline">
		<path d="M13.99,8.522c-0.534,0-1.031,0.177-1.414,0.492c-0.383-0.316-0.88-0.492-1.414-0.492c-1.249,0-2.513,0.95-2.513,2.779
			c0.061,2.453,3.559,4.19,3.707,4.263c0.069,0.035,0.145,0.052,0.22,0.052c0.074,0,0.15-0.017,0.22-0.052
			c0.148-0.072,3.646-1.811,3.707-4.275C16.503,9.473,15.238,8.522,13.99,8.522z"/>
		<g>
			<g>
				<path d="M23.5,1.006h-3c-0.275,0-0.5,0.224-0.5,0.5v7c0,0.276,0.225,0.5,0.5,0.5h3c0.275,0,0.5-0.224,0.5-0.5v-7
					C24,1.229,23.775,1.006,23.5,1.006z"/>
			</g>
			<g>
				<path d="M5.188,2.387C3.906,3.068,2.312,3.916,0.276,4.934c-0.144,0.072-0.244,0.209-0.27,0.367
					c-0.026,0.159,0.026,0.32,0.14,0.434c1.175,1.174,2.187,1.497,3.511,1.121l3.517-1.167C7.063,5.394,7,5.076,7,4.756
					C7,4.188,7.17,3.653,7.478,3.25C7.843,2.771,8.384,2.506,9,2.506h5.5c0.275,0,0.5,0.224,0.5,0.5c0,0.276-0.225,0.5-0.5,0.5H9
					c-0.789,0-1,0.786-1,1.25c0,0.464,0.211,1.25,1,1.25h2.798c0.743,0.7,2.429,2,4.702,2H19v-5.82
					C18.159,1.9,17.41,1.642,16.744,1.41C10.92-0.612,10.812-0.604,5.188,2.387z"/>
			</g>
		</g>
		<g>
			<g>
				<path d="M0.5,23.006h3c0.276,0,0.5-0.225,0.5-0.5v-7c0-0.275-0.224-0.5-0.5-0.5h-3c-0.276,0-0.5,0.225-0.5,0.5v7
					C0,22.781,0.224,23.006,0.5,23.006z"/>
			</g>
			<g>
				<path d="M18.812,21.625c1.281-0.682,2.877-1.529,4.912-2.547c0.144-0.072,0.243-0.209,0.27-0.367
					c0.025-0.158-0.026-0.32-0.141-0.434c-1.174-1.174-2.186-1.498-3.511-1.121l-3.517,1.166C16.937,18.618,17,18.936,17,19.256
					c0,0.566-0.17,1.104-0.479,1.506c-0.364,0.48-0.905,0.744-1.521,0.744H9.5c-0.276,0-0.5-0.225-0.5-0.5
					c0-0.275,0.224-0.5,0.5-0.5H15c0.789,0,1-0.785,1-1.25c0-0.464-0.211-1.25-1-1.25h-2.798c-0.743-0.699-2.429-2-4.702-2H5v5.82
					c0.841,0.285,1.59,0.544,2.256,0.775C13.08,24.624,13.187,24.616,18.812,21.625z"/>
			</g>
		</g>
	</g>
</g>
<g id="Outline_Icons">
	<g>
		<path fill="none" stroke="#000000" stroke-linejoin="round" stroke-miterlimit="10" d="M12.576,9.752
			c-0.856-1.34-3.427-0.861-3.427,1.531c0.054,2.178,3.427,3.826,3.427,3.826s3.373-1.648,3.427-3.826
			C16.003,8.891,13.434,8.412,12.576,9.752z"/>
		<rect x="0.5" y="15.5" fill="none" stroke="#000000" stroke-linejoin="round" stroke-miterlimit="10" width="4" height="7"/>
		<path fill="none" stroke="#000000" stroke-linecap="round" stroke-linejoin="round" stroke-miterlimit="10" d="M4.5,21.063
			c10.5,3.5,7,3.5,19-2.5c-1.063-1.063-1.902-1.313-3-1l-4.434,1.472"/>
		<path fill="none" stroke="#000000" stroke-linecap="round" stroke-linejoin="round" stroke-miterlimit="10" d="M4.5,16.5h3
			c2.353,0,4,1.5,4.5,2c0,0,1.5,0,3,0c1.594,0,1.594,2,0,2H9.5"/>
		<rect x="19.5" y="1.5" fill="none" stroke="#000000" stroke-linejoin="round" stroke-miterlimit="10" width="4" height="7"/>
		<path fill="none" stroke="#000000" stroke-linecap="round" stroke-linejoin="round" stroke-miterlimit="10" d="M19.5,7.5h-3
			c-2.354,0-4-1.5-4.5-2c0,0-1.5,0-3,0c-1.594,0-1.594-2,0-2h5.5"/>
		<path fill="none" stroke="#000000" stroke-linecap="round" stroke-linejoin="round" stroke-miterlimit="10" d="M19.5,2.875
			c-10.5-3.5-7-3.5-19,2.5c1.063,1.062,1.902,1.313,3,1l4.41-1.464"/>
	</g>
</g>
</svg>
