<?xml version="1.0" encoding="utf-8"?>
<!-- Generator: Adobe Illustrator 19.2.0, SVG Export Plug-In . SVG Version: 6.00 Build 0)  -->
<svg version="1.1" id="Layer_1" xmlns="http://www.w3.org/2000/svg" xmlns:xlink="http://www.w3.org/1999/xlink" x="0px" y="0px"
	 viewBox="0 0 24 24" style="enable-background:new 0 0 24 24;" xml:space="preserve">
<style type="text/css">
	.st0{display:none;}
	.st1{display:inline;}
	.st2{fill:none;stroke:#000000;stroke-linejoin:round;stroke-miterlimit:10;}
</style>
<g id="Filled_Icons" class="st0">
	<g class="st1">
		<path d="M13.8,19.5l-2.2-1.8c-0.5-0.4-0.7-1.1-0.5-1.7c0.2-0.6,0.8-1,1.4-1h2.6l1.6-3.2c0.3-0.5,0.8-0.8,1.3-0.8c0,0,0,0,0,0
			c0.6,0,1.1,0.3,1.3,0.8l1,2.1c1.2-2.1,2.1-4.4,2.1-6.7c0-4.3-2.8-6.6-5.6-6.6c-2.1,0-4.3,1.3-5.4,4c-1.1-2.7-3.3-4-5.3-4
			c-3.8,0-5.7,3.6-5.7,7.1c0,3.5,1.9,7.3,5.4,11.1c2.6,2.8,5.2,4.5,5.3,4.6c0.1,0.1,0.2,0.1,0.3,0.1c0.1,0,0.2,0,0.3-0.1
			c0.1-0.1,0.4-0.3,0.9-0.7L13.8,19.5z"/>
		<path d="M24,16.3c-0.1-0.2-0.3-0.3-0.5-0.3h-3.2l-1.9-3.7C18.4,12.1,18.2,12,18,12c0,0,0,0,0,0c-0.2,0-0.4,0.1-0.4,0.3L15.7,16
			h-3.2c-0.2,0-0.4,0.1-0.5,0.3c-0.1,0.2,0,0.4,0.1,0.6l2.7,2.3l-1.4,4.2c-0.1,0.2,0,0.4,0.2,0.6c0.2,0.1,0.4,0.1,0.6,0l3.7-2.6
			l3.7,2.6C21.8,24,21.9,24,22,24c0.1,0,0.2,0,0.3-0.1c0.2-0.1,0.2-0.4,0.2-0.6l-1.4-4.2l2.7-2.3C24,16.8,24,16.5,24,16.3z"/>
	</g>
</g>
<g id="Outline_Icons">
	<g>
		<g>
			<polygon class="st2" points="18,12.5 20,16.5 23.5,16.5 20.5,19 22,23.5 18,20.8 14,23.5 15.5,19 12.5,16.5 16,16.5 			"/>
		</g>
		<path class="st2" d="M21.3,10c0.3-0.9,0.5-1.8,0.5-2.8c0-7-9.4-8.4-10.5-1.4c-1.1-7-10.5-6.2-10.5,1.4c0,6.1,6.8,11.9,9.5,13.9"/>
	</g>
</g>
</svg>
