<?xml version="1.0" encoding="utf-8"?>
<!-- Generator: Adobe Illustrator 19.2.0, SVG Export Plug-In . SVG Version: 6.00 Build 0)  -->
<svg version="1.1" id="Layer_1" xmlns="http://www.w3.org/2000/svg" xmlns:xlink="http://www.w3.org/1999/xlink" x="0px" y="0px"
	 viewBox="0 0 24 24" enable-background="new 0 0 24 24" xml:space="preserve">
<g id="Filled_Icons" display="none">
	<g display="inline">
		<path d="M15.042,9.506c0-1.104,0.895-2,2-2H18c0-0.276-0.225-0.5-0.5-0.5H11v-3h6.478c0.276,0,0.5-0.224,0.5-0.5
			c0-0.276-0.224-0.5-0.5-0.5H11v-1c0-0.276-0.224-0.5-0.5-0.5c-0.276,0-0.5,0.223-0.5,0.5v1H3.5c-0.276,0-0.5,0.224-0.5,0.5
			c0,0.276,0.224,0.5,0.5,0.5H10v3H8.5c-4.688,0-8.5,3.813-8.5,8.5c0,1.379,1.122,2.5,2.5,2.5h1.379l-1.231,3H1.5
			c-0.276,0-0.5-0.225-0.5-0.5c0-0.275-0.224-0.5-0.5-0.5c-0.276,0-0.5,0.223-0.5,0.5c0,0.827,0.673,1.5,1.5,1.5h11
			c0.827,0,1.5-0.673,1.5-1.5c0-0.275-0.225-0.5-0.5-0.5c-0.275,0-0.5,0.225-0.5,0.5c0,0.275-0.225,0.5-0.5,0.5h-1.147l-1.255-3.055
			c2.007-0.268,2.314-1.844,2.548-3.147c0.289-1.604,0.539-2.987,3.03-3.299c0.171-0.021,0.302-0.13,0.375-0.272
			C15.451,10.889,15.042,10.248,15.042,9.506z M2.5,14.506c-0.167,0-0.322-0.082-0.415-0.221c-0.092-0.139-0.111-0.312-0.049-0.467
			c0.783-1.936,2.342-3.493,4.276-4.275c0.155-0.063,0.33-0.045,0.467,0.049C6.917,9.685,7,9.84,7,10.006v4
			c0,0.275-0.224,0.5-0.5,0.5H2.5z M10.271,21.006H3.729l1.231-3h4.08L10.271,21.006z"/>
		<path d="M23.021,8.506h-1.959c-0.021,0-0.041,0.012-0.062,0.013V6.506c0-0.552-0.447-1-1-1c-0.553,0-1,0.448-1,1V8.51
			c-0.007,0-0.014-0.004-0.022-0.004h-1.937c-0.553,0-1,0.448-1,1c0,0.553,0.447,1,1,1h1.937c0.008,0,0.015-0.004,0.022-0.004
			c0,0.001-0.001,0.003-0.001,0.003v1.97c0,0.552,0.448,1,1,1c0.552,0,1-0.447,1-1v-1.969c0-0.005-0.003-0.009-0.003-0.013
			c0.021,0.001,0.042,0.013,0.064,0.013h1.959c0.551,0,1-0.447,1-1C24.021,8.954,23.572,8.506,23.021,8.506z"/>
	</g>
</g>
<g id="Outline_Icons">
	<g>
		<path fill="none" stroke="#000000" stroke-linecap="round" stroke-linejoin="round" stroke-miterlimit="10" d="M17.5,7.5h-9
			c-4.418,0-8,3.582-8,8c0,1.104,0.896,2,2,2h7c4.5,0,0.637-5.812,6.115-6.496"/>
		<path fill="none" stroke="#000000" stroke-linecap="round" stroke-linejoin="round" stroke-miterlimit="10" d="M6.977,10.524
			C5.172,11.254,3.73,12.695,3,14.5h3.477"/>
		<path fill="none" stroke="#000000" stroke-linecap="round" stroke-linejoin="round" stroke-miterlimit="10" d="M13.5,20.5
			c0,0.553-0.447,1-1,1h-11c-0.553,0-1-0.447-1-1"/>
		
			<line fill="none" stroke="#000000" stroke-linecap="round" stroke-linejoin="round" stroke-miterlimit="10" x1="8.5" y1="3.5" x2="3.5" y2="3.5"/>
		
			<line fill="none" stroke="#000000" stroke-linecap="round" stroke-linejoin="round" stroke-miterlimit="10" x1="17.478" y1="3.5" x2="12.521" y2="3.5"/>
		
			<line fill="none" stroke="#000000" stroke-linecap="round" stroke-linejoin="round" stroke-miterlimit="10" x1="10.5" y1="7" x2="10.5" y2="2"/>
		
			<line fill="none" stroke="#000000" stroke-linecap="round" stroke-linejoin="round" stroke-miterlimit="10" x1="20.5" y1="8.469" x2="20.5" y2="6.5"/>
		
			<line fill="none" stroke="#000000" stroke-linecap="round" stroke-linejoin="round" stroke-miterlimit="10" x1="20.5" y1="12.469" x2="20.5" y2="10.5"/>
		
			<line fill="none" stroke="#000000" stroke-linecap="round" stroke-linejoin="round" stroke-miterlimit="10" x1="21.562" y1="9.5" x2="23.521" y2="9.5"/>
		
			<line fill="none" stroke="#000000" stroke-linecap="round" stroke-linejoin="round" stroke-miterlimit="10" x1="17.542" y1="9.5" x2="19.478" y2="9.5"/>
		
			<line fill="none" stroke="#000000" stroke-linecap="round" stroke-linejoin="round" stroke-miterlimit="10" x1="3" y1="21.458" x2="4.625" y2="17.5"/>
		
			<line fill="none" stroke="#000000" stroke-linecap="round" stroke-linejoin="round" stroke-miterlimit="10" x1="11" y1="21.458" x2="9.375" y2="17.5"/>
	</g>
</g>
</svg>
