<?xml version="1.0" encoding="utf-8"?>
<!-- Generator: Adobe Illustrator 19.2.0, SVG Export Plug-In . SVG Version: 6.00 Build 0)  -->
<svg version="1.1" id="Layer_1" xmlns="http://www.w3.org/2000/svg" xmlns:xlink="http://www.w3.org/1999/xlink" x="0px" y="0px"
	 viewBox="0 0 24 24" enable-background="new 0 0 24 24" xml:space="preserve">
<g id="Filled_Icons" display="none">
	<path display="inline" d="M23.5,10.006h-2.212L20.184,8.09c-0.14-0.239-0.445-0.321-0.684-0.184
		c-0.24,0.139-0.32,0.444-0.184,0.684l0.24,0.416H11v-1.5c0-0.276-0.225-0.5-0.5-0.5H10v-1h8.5c0.275,0,0.5-0.224,0.5-0.5
		c0-0.276-0.225-0.5-0.5-0.5H10v-0.5c0-0.276-0.225-0.5-0.5-0.5c-0.276,0-0.5,0.224-0.5,0.5v0.5H0.5c-0.276,0-0.5,0.224-0.5,0.5
		c0,0.276,0.224,0.5,0.5,0.5H9v1H8.5c-0.276,0-0.5,0.224-0.5,0.5v1.5c-3.171,0-7,2.676-7,6c0,2.201,0.707,3.654,1.874,3.943
		l-0.265,1.059H1v-0.002c0-0.275-0.225-0.5-0.5-0.5c-0.276,0-0.5,0.225-0.5,0.5c0,0.551,0.448,1,1,1h11.5c0.275,0,0.5-0.225,0.5-0.5
		c0-0.275-0.225-0.5-0.5-0.5h-1.608l-0.298-1.205c2.453-1.17,3.183-4.727,3.356-5.885l5.843-1.32l-0.477,0.825
		c-0.139,0.239-0.058,0.545,0.184,0.683c0.078,0.047,0.164,0.067,0.249,0.067c0.173,0,0.341-0.09,0.435-0.25l1.104-1.915H23.5
		c0.275,0,0.5-0.224,0.5-0.5C24,10.23,23.775,10.006,23.5,10.006z M7,11.506c0.275,0,0.5,0.224,0.5,0.5v3c0,0.275-0.225,0.5-0.5,0.5
		H4c-0.276,0-0.5-0.225-0.5-0.5C3.5,13.076,5.07,11.506,7,11.506z M3.64,20.006l0.25-1h5.725l0.247,1H3.64z M11.5,13.006h-1
		c-0.276,0-0.5-0.225-0.5-0.5c0-0.276,0.224-0.5,0.5-0.5h1c0.275,0,0.5,0.224,0.5,0.5C12,12.781,11.775,13.006,11.5,13.006z"/>
</g>
<g id="Outline_Icons">
	<g>
		
			<line fill="none" stroke="#000000" stroke-linecap="round" stroke-linejoin="round" stroke-miterlimit="10" x1="21" y1="10.5" x2="23.5" y2="10.5"/>
		
			<line fill="none" stroke="#000000" stroke-linecap="round" stroke-linejoin="round" stroke-miterlimit="10" x1="21" y1="10.5" x2="19.75" y2="8.334"/>
		
			<line fill="none" stroke="#000000" stroke-linecap="round" stroke-linejoin="round" stroke-miterlimit="10" x1="21" y1="10.5" x2="19.75" y2="12.665"/>
		<path fill="none" stroke="#000000" stroke-linecap="round" stroke-linejoin="round" stroke-miterlimit="10" d="M18,9.5H8
			c-3.589,0-6.5,3-6.5,5.5c0,1.748,0.5,3.5,1.816,3.5h6.69c2.994-0.999,3.494-6,3.494-6l4.5-1"/>
		
			<line fill="none" stroke="#000000" stroke-linecap="round" stroke-linejoin="round" stroke-miterlimit="10" x1="10.5" y1="12.5" x2="11.5" y2="12.5"/>
		
			<rect x="8.5" y="7.5" fill="none" stroke="#000000" stroke-linecap="round" stroke-linejoin="round" stroke-miterlimit="10" width="2" height="2"/>
		
			<line fill="none" stroke="#000000" stroke-linecap="round" stroke-linejoin="round" stroke-miterlimit="10" x1="9.5" y1="7.5" x2="9.5" y2="4.5"/>
		
			<line fill="none" stroke="#000000" stroke-linecap="round" stroke-linejoin="round" stroke-miterlimit="10" x1="0.5" y1="5.5" x2="18.5" y2="5.5"/>
		
			<line fill="none" stroke="#000000" stroke-linecap="round" stroke-linejoin="round" stroke-miterlimit="10" x1="3.5" y1="18.5" x2="3" y2="20.5"/>
		
			<line fill="none" stroke="#000000" stroke-linecap="round" stroke-linejoin="round" stroke-miterlimit="10" x1="10.006" y1="18.5" x2="10.5" y2="20.5"/>
		<path fill="none" stroke="#000000" stroke-linecap="round" stroke-linejoin="round" stroke-miterlimit="10" d="M0.5,20
			c0,0.275,0.224,0.5,0.5,0.5h11.5"/>
		<path fill="none" stroke="#000000" stroke-linecap="round" stroke-linejoin="round" stroke-miterlimit="10" d="M6.5,14.5h-3
			c0-1.656,1.344-3,3-3V14.5z"/>
	</g>
</g>
</svg>
