<?xml version="1.0" encoding="utf-8"?>
<!-- Generator: Adobe Illustrator 19.2.0, SVG Export Plug-In . SVG Version: 6.00 Build 0)  -->
<svg version="1.1" id="Layer_1" xmlns="http://www.w3.org/2000/svg" xmlns:xlink="http://www.w3.org/1999/xlink" x="0px" y="0px"
	 viewBox="0 0 24 24" enable-background="new 0 0 24 24" xml:space="preserve">
<g id="Filled_Icons" display="none">
	<path display="inline" d="M23.5,0.006h-23c-0.276,0-0.5,0.224-0.5,0.5v23c0,0.275,0.224,0.5,0.5,0.5h23c0.275,0,0.5-0.225,0.5-0.5
		v-23C24,0.229,23.775,0.006,23.5,0.006z M20,19.506c0,0.275-0.225,0.5-0.5,0.5h-5c-0.275,0-0.5-0.225-0.5-0.5v-4.5h-4v4.5
		c0,0.275-0.224,0.5-0.5,0.5h-5c-0.276,0-0.5-0.225-0.5-0.5v-15c0-0.276,0.224-0.5,0.5-0.5h5c0.276,0,0.5,0.224,0.5,0.5v4.5h4v-4.5
		c0-0.276,0.225-0.5,0.5-0.5h5c0.275,0,0.5,0.224,0.5,0.5V19.506z"/>
</g>
<g id="Outline_Icons">
	<g>
		
			<rect x="0.5" y="0.5" fill="none" stroke="#000000" stroke-linecap="round" stroke-linejoin="round" stroke-miterlimit="10" width="23" height="23"/>
		<polygon fill="none" stroke="#000000" stroke-linecap="round" stroke-linejoin="round" stroke-miterlimit="10" points="19.5,19.5 
			14.5,19.5 14.5,14.5 9.5,14.5 9.5,19.5 4.5,19.5 4.5,4.5 9.5,4.5 9.5,9.5 14.5,9.5 14.5,4.5 19.5,4.5 		"/>
	</g>
</g>
</svg>
