<?xml version="1.0" encoding="utf-8"?>
<!-- Generator: Adobe Illustrator 19.2.0, SVG Export Plug-In . SVG Version: 6.00 Build 0)  -->
<svg version="1.1" id="Layer_1" xmlns="http://www.w3.org/2000/svg" xmlns:xlink="http://www.w3.org/1999/xlink" x="0px" y="0px"
	 viewBox="0 0 24 24" enable-background="new 0 0 24 24" xml:space="preserve">
<g id="Filled_Icons" display="none">
	<path display="inline" d="M12,0.006c-6.617,0-12,5.383-12,12c0,6.617,5.383,12,12,12c6.616,0,12-5.383,12-12
		C24,5.389,18.616,0.006,12,0.006z M17.5,17.506h-4v-4h-3v4h-4v-11h4v4h3v-4h4V17.506z"/>
</g>
<g id="Outline_Icons">
	<g>
		<polygon fill="none" stroke="#000000" stroke-linecap="round" stroke-linejoin="round" stroke-miterlimit="10" points="17.5,17.5 
			13.5,17.5 13.5,13.5 10.5,13.5 10.5,17.5 6.5,17.5 6.5,6.5 10.5,6.5 10.5,10.5 13.5,10.5 13.5,6.5 17.5,6.5 		"/>
		
			<circle fill="none" stroke="#000000" stroke-linecap="round" stroke-linejoin="round" stroke-miterlimit="10" cx="12" cy="12" r="11.5"/>
	</g>
</g>
</svg>
