<?xml version="1.0" encoding="utf-8"?>
<!-- Generator: Adobe Illustrator 19.2.0, SVG Export Plug-In . SVG Version: 6.00 Build 0)  -->
<svg version="1.1" id="Layer_1" xmlns="http://www.w3.org/2000/svg" xmlns:xlink="http://www.w3.org/1999/xlink" x="0px" y="0px"
	 viewBox="0 0 24 24" style="enable-background:new 0 0 24 24;" xml:space="preserve">
<style type="text/css">
	.st0{display:none;}
	.st1{display:inline;}
	.st2{fill:none;stroke:#000000;stroke-linecap:round;stroke-linejoin:round;stroke-miterlimit:10;}
</style>
<g id="Filled_Icons" class="st0">
	<path class="st1" d="M22,5.2L22,5.2c-2.5-1.9-5.6-3-9-3c-2.3,0-4.4,0.6-6.2,1.9C6.6,4.2,6.2,4.2,6.1,3.9C5.9,3.7,6,3.4,6.2,3.2
		c2-1.3,4.3-2,6.8-2c2,0,4,0.4,5.8,1C16.8,0.9,14.4,0,11.5,0C9,0,5.5,0.5,2.8,2.1C2.3,2.4,1.9,2.9,2,3.5l0,0.8C0.8,4.9,0,6.1,0,7.5
		c0,1.6,1.1,2.9,2.5,3.4c0.1,1,0.4,3.7,1.3,4.1c0.1,0,0.1,0,0.2,0c0,0,0,0,0,0h0c0,0,0,0,0,0c0,0,0,0,0,0l5,0
		c0.2,0.7,0.7,1.2,1.4,1.4V20H10c-0.3,0-0.5,0.2-0.5,0.5v3c0,0.3,0.2,0.5,0.5,0.5h2c0.3,0,0.5-0.2,0.5-0.5v-3c0-0.3-0.2-0.5-0.5-0.5
		h-0.5v-3.6c0.9-0.2,1.5-1,1.5-1.9c0-0.9-0.6-1.7-1.5-1.9V11L22,11c1.1,0,2-0.9,2-2C24,8.3,23.3,6.7,22,5.2z M3.5,11h3.3l-2.7,2.7
		C3.8,13.1,3.6,11.9,3.5,11z M10.5,12.6C9.8,12.8,9.2,13.3,9,14l-3.8,0l3-3l2.3,0V12.6z"/>
</g>
<g id="Outline_Icons">
	<g>
		<path class="st2" d="M3,10.5c0,1,0.5,4,1,4l4-4H3z"/>
		<path class="st2" d="M3.5,4.5c-1.7,0-3,1.3-3,3c0,1.7,1.3,3,3,3H22c0.8,0,1.5-0.7,1.5-1.5c0-1.6-4.3-8.5-12-8.5
			c-2.5,0-6,0.6-8.5,2c-0.3,0.2-0.5,0.6-0.5,1l0,1.2"/>
		<path class="st2" d="M6.9,4.6c1.8-1.3,4.1-2,6.5-2c3.4,0,6.8,1.4,8.9,3.8"/>
		<line class="st2" x1="12.5" y1="10.5" x2="12.5" y2="13"/>
		<circle class="st2" cx="12.5" cy="14.5" r="1.5"/>
		<line class="st2" x1="12.5" y1="16" x2="12.5" y2="20.5"/>
		<line class="st2" x1="4" y1="14.5" x2="11" y2="14.5"/>
		<rect x="11.5" y="20.5" class="st2" width="2" height="3"/>
	</g>
</g>
</svg>
