<?xml version="1.0" encoding="utf-8"?>
<!-- Generator: Adobe Illustrator 19.2.0, SVG Export Plug-In . SVG Version: 6.00 Build 0)  -->
<svg version="1.1" id="Layer_1" xmlns="http://www.w3.org/2000/svg" xmlns:xlink="http://www.w3.org/1999/xlink" x="0px" y="0px"
	 viewBox="0 0 24 24" style="enable-background:new 0 0 24 24;" xml:space="preserve">
<style type="text/css">
	.st0{display:none;}
	.st1{display:inline;}
	.st2{fill:none;stroke:#000000;stroke-linecap:round;stroke-linejoin:round;stroke-miterlimit:10;}
	.st3{fill:none;stroke:#000000;stroke-linejoin:round;stroke-miterlimit:10;}
</style>
<g id="Filled_Icons" class="st0">
	<g class="st1">
		<path d="M9.8,16H12v-0.5c0-1.9,1.6-3.5,3.5-3.5h7c0,0,0,0,0,0c0.3,0,0.5-0.2,0.5-0.5c0,0,0-0.1,0-0.1c0-0.8-0.1-1.6-0.3-2.4h-8.2
			c-3,0-5.5,2.5-5.5,5.5v1.1c-0.2,0-0.3-0.1-0.5-0.1c-0.2,0-0.3,0-0.5,0.1v-1.1C8,10.9,10.9,8,14.5,8h8c-1.5-4.6-5.8-8-11-8
			C5.2,0,0,5.2,0,11.5c0,5.4,3.7,10,8.9,11.2c0,0,0.1,0,0.1,0h2.4c0,0,0.1,0,0.1,0l-3.2-3.2c0,0,0.1,0,0.1,0c0.4,0,0.7-0.1,1-0.3
			l0.8,0.8c0.1,0,0.1,0,0.2,0H16v-3h-5.6C10.3,16.6,10.1,16.3,9.8,16z M8.5,18.5c-0.6,0-1-0.4-1-1c0-0.6,0.4-1,1-1c0.6,0,1,0.4,1,1
			C9.5,18.1,9.1,18.5,8.5,18.5z"/>
		<rect x="17" y="17" width="3" height="3"/>
		<path d="M12,21.7L12,21.7l0.4,0.4c0.8,0.8,1.8,1.4,2.9,1.7c0,0,0,0,0,0c0.3-0.2,0.7-1.4,0.7-2.2V21h-4.7L12,21.7z"/>
		<path d="M17,21.5c0,0.4-0.1,1.6-0.6,2.5c0.2,0,0.4,0,0.6,0h0.5h1c0.7,0,1.5-1.5,1.5-2.5V21h-3V21.5z"/>
		<path d="M23.5,17H21v3h3v-2.5C24,17.2,23.8,17,23.5,17z"/>
		<path d="M21,21.5c0,0.7-0.3,1.7-0.9,2.5h1.4c1.4,0,2.5-1.1,2.5-2.5V21h-3V21.5z"/>
	</g>
</g>
<g id="Outline_Icons">
	<g>
		<path class="st2" d="M9.1,22.2c-4.9-1.1-8.6-5.5-8.6-10.7c0-6.1,4.9-11,11-11c6.1,0,11,4.9,11,11h-7c-2.2,0-4,1.8-4,4"/>
		<line class="st2" x1="23.5" y1="20.5" x2="11.5" y2="20.5"/>
		<path class="st2" d="M20.5,17.5v4c0,1.1-0.9,2-2,2h-1"/>
		<circle class="st3" cx="8.5" cy="17.5" r="1.5"/>
		<path class="st2" d="M8.5,16v-1.5c0-3.3,2.7-6,6-6h9"/>
		<path class="st3" d="M10,17.5h13.5v3v1c0,1.1-0.9,2-2,2H17c-1.6,0-3.1-0.6-4.2-1.8l-3.2-3.2"/>
		<path class="st2" d="M16.5,17.5v4c0,0.8-0.4,1.5-1.1,1.8"/>
	</g>
</g>
</svg>
