<?xml version="1.0" encoding="utf-8"?>
<!-- Generator: Adobe Illustrator 19.2.0, SVG Export Plug-In . SVG Version: 6.00 Build 0)  -->
<svg version="1.1" id="Layer_1" xmlns="http://www.w3.org/2000/svg" xmlns:xlink="http://www.w3.org/1999/xlink" x="0px" y="0px"
	 viewBox="0 0 24 24" enable-background="new 0 0 24 24" xml:space="preserve">
<g id="Filled_Icons" display="none">
	<g display="inline">
		<path d="M20.081,19.471C21.922,17.479,23,14.838,23,12.006c0-1.412-0.277-2.758-0.764-4l0,0c-0.002-0.002-0.002-0.003-0.002-0.005
			c-0.092-0.231-0.191-0.458-0.299-0.683c-0.02-0.043-0.041-0.088-0.062-0.132C20.04,3.444,16.215,1.006,12,1.006
			c-6.065,0-11,4.936-11,11c0,2.244,0.676,4.406,1.956,6.256c0.064,0.094,0.16,0.161,0.27,0.193l12.67,3.723
			c0.047,0.014,0.094,0.021,0.142,0.021c0.065,0,0.131-0.014,0.192-0.038c0.49-0.204,0.957-0.442,1.403-0.709
			c0.011-0.007,0.023-0.013,0.034-0.018c0.445-0.268,0.866-0.564,1.264-0.888c0.008-0.006,0.014-0.011,0.021-0.017
			C19.355,20.202,19.73,19.848,20.081,19.471L20.081,19.471z M22,12.006c0,2.267-0.777,4.387-2.102,6.1
			c-5.9-1.158-12.398-4.279-12.398-9.6c0-0.276,0.224-0.5,0.5-0.5h13.159C21.697,9.232,22,10.584,22,12.006z"/>
		<circle cx="12" cy="11.006" r="1"/>
	</g>
</g>
<g id="Outline_Icons">
	<g>
		<path fill="none" stroke="#000000" stroke-linecap="round" stroke-linejoin="round" stroke-miterlimit="10" d="M16.038,21.691
			C19.832,20.109,22.5,16.368,22.5,12c0-5.799-4.701-10.5-10.5-10.5C6.201,1.5,1.5,6.201,1.5,12c0,2.219,0.692,4.273,1.867,5.971
			L16.038,21.691z"/>
		<path fill="none" stroke="#000000" stroke-linecap="round" stroke-linejoin="round" stroke-miterlimit="10" d="M8,8.5
			c0,5.042,6.43,8.191,12.775,9.255C21.863,16.104,22.5,14.127,22.5,12c0-1.229-0.223-2.403-0.609-3.5H8z"/>
		
			<circle fill="none" stroke="#000000" stroke-linecap="round" stroke-linejoin="round" stroke-miterlimit="10" cx="12" cy="11" r="0.5"/>
	</g>
</g>
</svg>
