<?xml version="1.0" encoding="utf-8"?>
<!-- Generator: Adobe Illustrator 19.2.0, SVG Export Plug-In . SVG Version: 6.00 Build 0)  -->
<svg version="1.1" id="Layer_1" xmlns="http://www.w3.org/2000/svg" xmlns:xlink="http://www.w3.org/1999/xlink" x="0px" y="0px"
	 viewBox="0 0 24 24" style="enable-background:new 0 0 24 24;" xml:space="preserve">
<style type="text/css">
	.st0{display:none;}
	.st1{display:inline;}
	.st2{fill:none;stroke:#000000;stroke-linecap:round;stroke-linejoin:round;stroke-miterlimit:10;}
</style>
<g id="Filled_Icons" class="st0">
	<path class="st1" d="M23.5,11H21C20.7,5.4,16.1,1,10.5,1C4.7,1,0,5.7,0,11.5C0,17.3,4.7,22,10.5,22c2.2,0,4-1.8,4-4
		c0-2.2-1.8-4-4-4c-0.5,0-1-0.5-1-1c0-0.6,0.5-1,1-1h9.8c0.1,0,0.2,0,0.3,0h2.8c0.3,0,0.5-0.2,0.5-0.5C24,11.2,23.8,11,23.5,11z
		 M10.5,16c1.1,0,2,0.9,2,2c0,1.1-0.9,2-2,2c-1.1,0-2-0.9-2-2C8.5,16.9,9.4,16,10.5,16z"/>
</g>
<g id="Outline_Icons">
	<g>
		<path class="st2" d="M20.5,11.5c0-5.5-4.5-9.9-10-9.9c-5.5,0-10,4.5-10,10c0,5.5,4.5,10,10,10c1.9,0,3.5-1.6,3.5-3.5
			c0-1.9-1.6-3.5-3.5-3.5C9.7,14.6,9,13.9,9,13c0-0.8,0.7-1.5,1.5-1.5h13"/>
		<circle class="st2" cx="10.5" cy="18.1" r="1.5"/>
	</g>
</g>
</svg>
