<?xml version="1.0" encoding="utf-8"?>
<!-- Generator: Adobe Illustrator 19.2.0, SVG Export Plug-In . SVG Version: 6.00 Build 0)  -->
<svg version="1.1" id="Layer_1" xmlns="http://www.w3.org/2000/svg" xmlns:xlink="http://www.w3.org/1999/xlink" x="0px" y="0px"
	 viewBox="0 0 24 24" enable-background="new 0 0 24 24" xml:space="preserve">
<g id="Filled_Icons" display="none">
	<path display="inline" d="M22.5,14.006H21v-0.5c0-5.489-4.098-10.177-9.53-10.902c-0.968-0.131-1.952,0.154-2.703,0.779
		L8.409,3.681C9.014,3.566,9.572,3.506,10,3.506c3.738,0,6.912,2.046,8.937,5.761c0.133,0.241,0.043,0.546-0.199,0.678
		c-0.075,0.042-0.157,0.062-0.238,0.062c-0.178,0-0.35-0.094-0.44-0.261c-1.843-3.379-4.705-5.24-8.06-5.24
		c-4.67,0-8.752,3.691-8.977,8.585C0.431,13.292,0,13.848,0,14.506v1c0,0.827,0.674,1.5,1.502,1.5H2v3c0,1.104,0.897,2,2.001,2
		s2.001-0.896,2.001-2c0-0.552,0.448-1,1-1h10.5c1.207,0,2.216-0.861,2.448-2h2.55c0.826,0,1.5-0.673,1.5-1.5
		C24,14.678,23.326,14.006,22.5,14.006z M22.5,16.006H20H2.002h-0.5c-0.276,0-0.502-0.225-0.502-0.5v-1c0-0.275,0.226-0.5,0.502-0.5
		H11v0.5c0,0.275,0.224,0.5,0.5,0.5h11c0.275,0,0.5,0.225,0.5,0.5C23,15.781,22.775,16.006,22.5,16.006z"/>
</g>
<g id="Outline_Icons">
	<g>
		<path fill="none" stroke="#000000" stroke-linecap="round" stroke-linejoin="round" stroke-miterlimit="10" d="M23.5,16.5H1.502
			c-0.553,0-1.002-0.449-1.002-1v-1c0-0.555,0.45-1,1.002-1H11.5"/>
		<path fill="none" stroke="#000000" stroke-linecap="round" stroke-linejoin="round" stroke-miterlimit="10" d="M1.502,13.5
			c0-4.695,3.805-8.5,8.5-8.5c3.247,0,6.07,1.821,7.501,4.498"/>
		<path fill="none" stroke="#000000" stroke-linejoin="round" stroke-miterlimit="10" d="M20.5,16.5v-3
			c0-5.324-3.961-9.721-9.096-10.408c-0.832-0.11-1.672,0.132-2.317,0.669l-2.15,1.815"/>
		<path fill="none" stroke="#000000" stroke-linecap="round" stroke-linejoin="round" stroke-miterlimit="10" d="M2.5,16.5V20
			c0,0.827,0.672,1.5,1.501,1.5c0.828,0,1.501-0.673,1.501-1.5c0-0.829,0.671-1.5,1.5-1.5h10.5c1.103,0,1.999-0.896,1.999-2"/>
	</g>
</g>
</svg>
