<?xml version="1.0" encoding="utf-8"?>
<!-- Generator: Adobe Illustrator 19.2.0, SVG Export Plug-In . SVG Version: 6.00 Build 0)  -->
<svg version="1.1" id="Layer_1" xmlns="http://www.w3.org/2000/svg" xmlns:xlink="http://www.w3.org/1999/xlink" x="0px" y="0px"
	 viewBox="0 0 24 24" style="enable-background:new 0 0 24 24;" xml:space="preserve">
<style type="text/css">
	.st0{display:none;}
	.st1{display:inline;}
	.st2{fill:none;stroke:#000000;stroke-linecap:round;stroke-linejoin:round;stroke-miterlimit:10;}
	.st3{fill:none;stroke:#000000;stroke-linejoin:round;stroke-miterlimit:10;}
</style>
<g id="Filled_Icons" class="st0">
	<path class="st1" d="M12,0C5.4,0,0,5.4,0,12c0,6.6,5.4,12,12,12c6.6,0,12-5.4,12-12C24,5.4,18.6,0,12,0z M12,19c-0.6,0-1-0.4-1-1
		c0-0.6,0.4-1,1-1c0.6,0,1,0.4,1,1C13,18.6,12.6,19,12,19z M12.5,13v2.5c0,0.3-0.2,0.5-0.5,0.5c-0.3,0-0.5-0.2-0.5-0.5v-3
		c0-0.3,0.2-0.5,0.5-0.5c1.4,0,2.5-1.1,2.5-2.5C14.5,8.1,13.4,7,12,7c-1.4,0-2.5,1.1-2.5,2.5C9.5,9.8,9.3,10,9,10
		c-0.3,0-0.5-0.2-0.5-0.5C8.5,7.6,10.1,6,12,6c1.9,0,3.5,1.6,3.5,3.5C15.5,11.3,14.2,12.7,12.5,13z"/>
</g>
<g id="Outline_Icons">
	<g>
		<circle class="st2" cx="11.5" cy="12.5" r="11"/>
		<path class="st2" d="M8.5,10c0-1.7,1.3-3,3-3c1.7,0,3,1.3,3,3c0,1.7-1.3,3-3,3v3"/>
		<path class="st3" d="M12,18.5c0,0.3-0.2,0.5-0.5,0.5l0,0c-0.3,0-0.5-0.2-0.5-0.5l0,0c0-0.3,0.2-0.5,0.5-0.5l0,0
			C11.8,18,12,18.2,12,18.5L12,18.5z"/>
	</g>
</g>
</svg>
