<?xml version="1.0" encoding="utf-8"?>
<!-- Generator: Adobe Illustrator 19.2.0, SVG Export Plug-In . SVG Version: 6.00 Build 0)  -->
<svg version="1.1" id="Layer_1" xmlns="http://www.w3.org/2000/svg" xmlns:xlink="http://www.w3.org/1999/xlink" x="0px" y="0px"
	 viewBox="0 0 24 24" style="enable-background:new 0 0 24 24;" xml:space="preserve">
<style type="text/css">
	.st0{display:none;}
	.st1{display:inline;}
	.st2{fill:none;stroke:#000000;stroke-linecap:round;stroke-linejoin:round;stroke-miterlimit:10;}
</style>
<g id="Filled_Icons" class="st0">
	<g class="st1">
		<path d="M23.9,12.2c0-0.1-0.8-1.7-2.8-3.4C20.6,8.5,20,8.5,19.7,9c-0.3,0.4-0.3,1.1,0.1,1.4c1,0.8,1.7,1.6,2,2.1
			c-1.2,1.5-5,5.6-9.8,5.6c-0.4,0-0.9,0-1.3-0.1c-0.5-0.1-1.1,0.3-1.1,0.8c-0.1,0.5,0.3,1.1,0.8,1.1c0.6,0.1,1.1,0.1,1.7,0.1
			c6.8,0,11.6-6.6,11.8-6.9C24,12.9,24.1,12.5,23.9,12.2z"/>
		<path d="M2.9,16.3c0.4,0.3,1.1,0.3,1.4-0.1c0.3-0.4,0.3-1.1-0.1-1.4c-1-0.8-1.6-1.6-1.9-2.1c1.2-1.5,5-5.6,9.8-5.6
			c0.3,0,0.6,0,0.9,0.1c0.6,0.1,1-0.3,1.1-0.9c0.1-0.5-0.3-1-0.9-1.1c-0.4,0-0.8-0.1-1.2-0.1C5.2,5.1,0.4,11.7,0.2,12
			c-0.2,0.3-0.2,0.7-0.1,1C0.1,13.1,0.8,14.7,2.9,16.3z"/>
		<path d="M12.6,16.2c2.2,0,4-1.8,4-4c0-0.4-0.1-0.8-0.2-1.2l-5,5C11.8,16.2,12.2,16.2,12.6,16.2z"/>
		<path d="M8.6,12.2c0,0.3,0,0.6,0.1,0.9l4.8-4.8c-0.3-0.1-0.6-0.1-0.9-0.1C10.4,8.2,8.6,10,8.6,12.2z"/>
		<path d="M23.1,1.5c-0.4-0.4-1-0.4-1.4,0c0,0,0,0,0,0L2.1,21c-0.4,0.3-0.4,1,0,1.4c0,0,0,0,0,0c0.4,0.4,1,0.4,1.4,0c0,0,0,0,0,0
			L23,3C23.4,2.6,23.4,1.9,23.1,1.5z"/>
	</g>
</g>
<g id="Outline_Icons">
	<g>
		<path class="st2" d="M19.5,8.3c2.4,1.8,4,3.7,4,3.7s-5.1,6.5-11.5,6.5c-1,0-2-0.2-3-0.5"/>
		<path class="st2" d="M4.5,15.7c-2.4-1.8-4-3.7-4-3.7S5.6,5.5,12,5.5c0.9,0,1.7,0.1,2.5,0.3"/>
		<path class="st2" d="M8,12c0-2.2,1.8-4,4-4"/>
		<path class="st2" d="M16,12c0,2.2-1.8,4-4,4"/>
		<line class="st2" x1="21.8" y1="2.2" x2="2.2" y2="21.8"/>
	</g>
</g>
</svg>
