<?xml version="1.0" encoding="utf-8"?>
<!-- Generator: Adobe Illustrator 19.2.0, SVG Export Plug-In . SVG Version: 6.00 Build 0)  -->
<svg version="1.1" id="Layer_1" xmlns="http://www.w3.org/2000/svg" xmlns:xlink="http://www.w3.org/1999/xlink" x="0px" y="0px"
	 viewBox="0 0 24 24" style="enable-background:new 0 0 24 24;" xml:space="preserve">
<style type="text/css">
	.st0{display:none;}
	.st1{display:inline;}
	.st2{fill:none;stroke:#000000;stroke-linecap:round;stroke-linejoin:round;stroke-miterlimit:10;}
</style>
<g id="Filled_Icons" class="st0">
	<g class="st1">
		<path d="M7,23.5c0-0.9,0.3-1.7,0.7-2.5c-0.4-0.5-0.9-0.9-1.5-1.2C6.6,19.4,7,18.7,7,18c0-1.4-1.1-2.5-2.5-2.5
			C3.1,15.5,2,16.6,2,18c0,0.7,0.3,1.4,0.8,1.9c-1.4,0.6-2.4,2-2.4,3.7c0,0.3,0.2,0.5,0.5,0.5h6L7,23.5L7,23.5z"/>
		<path d="M23.5,23.4c-0.1-1.6-1-2.9-2.4-3.5c0.5-0.5,0.8-1.1,0.8-1.9c0-1.4-1.1-2.5-2.5-2.5c-1.4,0-2.5,1.1-2.5,2.5
			c0,0.7,0.3,1.4,0.8,1.9c-0.6,0.3-1.1,0.7-1.5,1.1c0.4,0.7,0.7,1.6,0.7,2.5V24h6c0,0,0,0,0,0c0.3,0,0.5-0.2,0.5-0.5
			C23.5,23.5,23.5,23.4,23.5,23.4z"/>
		<path d="M19.5,12h-7v-1h3.9c0,0,0,0,0,0c0.3,0,0.5-0.2,0.5-0.5c0-0.1,0-0.1,0-0.1c-0.1-2-1.3-3.7-3-4.4c0.8-0.6,1.4-1.6,1.4-2.7
			C15.3,1.5,13.8,0,12,0c-1.8,0-3.3,1.5-3.3,3.3c0,1.1,0.5,2.1,1.4,2.7c-1.8,0.7-3,2.5-3,4.6c0,0.3,0.2,0.5,0.5,0.5h3.9v1h-7
			C4.2,12,4,12.2,4,12.5v1C4,13.8,4.2,14,4.5,14C4.8,14,5,13.8,5,13.5V13h6.5v0.5c0,0.3,0.2,0.5,0.5,0.5c0.3,0,0.5-0.2,0.5-0.5V13
			H19v0.5c0,0.3,0.2,0.5,0.5,0.5c0.3,0,0.5-0.2,0.5-0.5v-1C20,12.2,19.8,12,19.5,12z"/>
		<path d="M16,23.4c-0.1-1.6-1-2.9-2.4-3.5c0.5-0.5,0.8-1.1,0.8-1.9c0-1.4-1.1-2.5-2.5-2.5c-1.4,0-2.5,1.1-2.5,2.5
			c0,0.7,0.3,1.4,0.8,1.9c-1.4,0.6-2.4,2-2.4,3.7C8,23.8,8.2,24,8.5,24h7.1c0,0,0,0,0,0c0.3,0,0.5-0.2,0.5-0.5
			C16.1,23.5,16.1,23.4,16,23.4z"/>
	</g>
</g>
<g id="Outline_Icons">
	<g>
		<circle class="st2" cx="12" cy="3.3" r="2.8"/>
		<path class="st2" d="M16.4,10.5H7.6c0-2.4,2-4.4,4.4-4.4C14.5,6.1,16.4,8.1,16.4,10.5z"/>
		<circle class="st2" cx="4.5" cy="18" r="2"/>
		<path class="st2" d="M8,23.5H0.9c0-2,1.6-3.5,3.5-3.5C6.4,20,8,21.5,8,23.5z"/>
		<circle class="st2" cx="19.5" cy="18" r="2"/>
		<path class="st2" d="M23,23.5h-7.1c0-2,1.6-3.5,3.5-3.5C21.4,20,23,21.5,23,23.5z"/>
		<circle class="st2" cx="19.5" cy="18" r="2"/>
		<path class="st2" d="M23,23.5h-7.1c0-2,1.6-3.5,3.5-3.5C21.4,20,23,21.5,23,23.5z"/>
		<circle class="st2" cx="12" cy="18" r="2"/>
		<path class="st2" d="M15.5,23.5H8.5c0-2,1.6-3.5,3.5-3.5C14,20,15.5,21.5,15.5,23.5z"/>
		<polyline class="st2" points="4.5,13.5 4.5,12.5 19.5,12.5 19.5,13.5 		"/>
		<line class="st2" x1="12" y1="10.5" x2="12" y2="13.5"/>
	</g>
</g>
</svg>
