<?xml version="1.0" encoding="utf-8"?>
<!-- Generator: Adobe Illustrator 19.2.0, SVG Export Plug-In . SVG Version: 6.00 Build 0)  -->
<svg version="1.1" id="Layer_1" xmlns="http://www.w3.org/2000/svg" xmlns:xlink="http://www.w3.org/1999/xlink" x="0px" y="0px"
	 viewBox="0 0 24 24" style="enable-background:new 0 0 24 24;" xml:space="preserve">
<style type="text/css">
	.st0{display:none;}
	.st1{display:inline;}
	.st2{fill:none;stroke:#000000;stroke-linecap:square;stroke-linejoin:round;stroke-miterlimit:10;}
	.st3{fill:none;stroke:#000000;stroke-linejoin:round;stroke-miterlimit:10;}
</style>
<g id="Filled_Icons" class="st0">
	<path class="st1" d="M23.5,18h-2c-0.3-3.4-3.1-6-6.5-6h-2.5V6h2C14.8,6,15,5.8,15,5.5v-5C15,0.2,14.8,0,14.5,0h-5
		C9.2,0,9,0.2,9,0.5v5C9,5.8,9.2,6,9.5,6h2v6H9c-3.4,0-6.2,2.6-6.5,6h-2C0.2,18,0,18.2,0,18.5v5C0,23.8,0.2,24,0.5,24h5
		C5.8,24,6,23.8,6,23.5v-5C6,18.2,5.8,18,5.5,18h-2c0.3-2.8,2.6-5,5.5-5h2.5v5h-2C9.2,18,9,18.2,9,18.5v5C9,23.8,9.2,24,9.5,24h5
		c0.3,0,0.5-0.2,0.5-0.5v-5c0-0.3-0.2-0.5-0.5-0.5h-2v-5H15c2.9,0,5.2,2.2,5.5,5h-2c-0.3,0-0.5,0.2-0.5,0.5v5c0,0.3,0.2,0.5,0.5,0.5
		h5c0.3,0,0.5-0.2,0.5-0.5v-5C24,18.2,23.8,18,23.5,18z"/>
</g>
<g id="Outline_Icons">
	<g>
		<line class="st2" x1="11.5" y1="5.5" x2="11.5" y2="18.5"/>
		<path class="st2" d="M3,18.5c0-3.3,2.7-6,6-6h6c3.3,0,6,2.7,6,6"/>
		<rect x="9.5" y="0.5" class="st3" width="5" height="5"/>
		<rect x="9.5" y="18.5" class="st3" width="5" height="5"/>
		<rect x="0.5" y="18.5" class="st3" width="5" height="5"/>
		<rect x="18.5" y="18.5" class="st3" width="5" height="5"/>
	</g>
</g>
</svg>
