<?xml version="1.0" encoding="utf-8"?>
<!-- Generator: Adobe Illustrator 19.2.0, SVG Export Plug-In . SVG Version: 6.00 Build 0)  -->
<svg version="1.1" id="Layer_1" xmlns="http://www.w3.org/2000/svg" xmlns:xlink="http://www.w3.org/1999/xlink" x="0px" y="0px"
	 viewBox="0 0 24 24" style="enable-background:new 0 0 24 24;" xml:space="preserve">
<style type="text/css">
	.st0{display:none;}
	.st1{display:inline;}
	.st2{fill:none;stroke:#000000;stroke-linecap:square;stroke-linejoin:round;stroke-miterlimit:10;}
	.st3{fill:none;stroke:#000000;stroke-linejoin:round;stroke-miterlimit:10;}
</style>
<g id="Filled_Icons" class="st0">
	<path class="st1" d="M23.5,18H21v-5.5c0-0.3-0.2-0.5-0.5-0.5h-8V6h7C19.8,6,20,5.8,20,5.5v-4C20,1.2,19.8,1,19.5,1h-15
		C4.2,1,4,1.2,4,1.5v4C4,5.8,4.2,6,4.5,6h7v6h-8C3.2,12,3,12.2,3,12.5V18H0.5C0.2,18,0,18.2,0,18.5v5C0,23.8,0.2,24,0.5,24h5
		C5.8,24,6,23.8,6,23.5v-5C6,18.2,5.8,18,5.5,18H4v-5h7.5v5h-2C9.2,18,9,18.2,9,18.5v5C9,23.8,9.2,24,9.5,24h5
		c0.3,0,0.5-0.2,0.5-0.5v-5c0-0.3-0.2-0.5-0.5-0.5h-2v-5H20v5h-1.5c-0.3,0-0.5,0.2-0.5,0.5v5c0,0.3,0.2,0.5,0.5,0.5h5
		c0.3,0,0.5-0.2,0.5-0.5v-5C24,18.2,23.8,18,23.5,18z"/>
</g>
<g id="Outline_Icons">
	<g>
		<line class="st2" x1="11.5" y1="5.5" x2="11.5" y2="18.5"/>
		<rect x="4.5" y="1.5" class="st3" width="15" height="4"/>
		<rect x="9.5" y="18.5" class="st3" width="5" height="5"/>
		<rect x="0.5" y="18.5" class="st3" width="5" height="5"/>
		<rect x="18.5" y="18.5" class="st3" width="5" height="5"/>
		<polyline class="st2" points="20.5,18.5 20.5,12.5 3.5,12.5 3.5,18.5 		"/>
	</g>
</g>
</svg>
