<?xml version="1.0" encoding="utf-8"?>
<!-- Generator: Adobe Illustrator 19.2.0, SVG Export Plug-In . SVG Version: 6.00 Build 0)  -->
<svg version="1.1" id="Layer_1" xmlns="http://www.w3.org/2000/svg" xmlns:xlink="http://www.w3.org/1999/xlink" x="0px" y="0px"
	 viewBox="0 0 24 24" style="enable-background:new 0 0 24 24;" xml:space="preserve">
<style type="text/css">
	.st0{display:none;}
	.st1{display:inline;}
	.st2{fill:none;stroke:#000000;stroke-linejoin:round;stroke-miterlimit:10;}
	.st3{fill:none;stroke:#000000;stroke-linecap:round;stroke-linejoin:round;stroke-miterlimit:10;}
</style>
<g id="Filled_Icons" class="st0">
	<path class="st1" d="M23.5,14H21v-2.5c0-0.3-0.2-0.5-0.5-0.5H14v-1h3.5c0.3,0,0.5-0.2,0.5-0.5v-9C18,0.2,17.8,0,17.5,0h-9
		C8.2,0,8,0.2,8,0.5v9C8,9.8,8.2,10,8.5,10H13v1H3.5C3.2,11,3,11.2,3,11.5V14H0.5C0.2,14,0,14.2,0,14.5v9C0,23.8,0.2,24,0.5,24h9
		c0.3,0,0.5-0.2,0.5-0.5v-9c0-0.3-0.2-0.5-0.5-0.5H4v-2h16v2h-5.5c-0.3,0-0.5,0.2-0.5,0.5v9c0,0.3,0.2,0.5,0.5,0.5h9
		c0.3,0,0.5-0.2,0.5-0.5v-9C24,14.2,23.8,14,23.5,14z M7.5,16C7.8,16,8,16.2,8,16.5C8,16.8,7.8,17,7.5,17h-5C2.2,17,2,16.8,2,16.5
		C2,16.2,2.2,16,2.5,16H7.5z M10.5,3C10.2,3,10,2.8,10,2.5C10,2.2,10.2,2,10.5,2h5C15.8,2,16,2.2,16,2.5C16,2.8,15.8,3,15.5,3H10.5z
		 M21.5,17h-5c-0.3,0-0.5-0.2-0.5-0.5c0-0.3,0.2-0.5,0.5-0.5h5c0.3,0,0.5,0.2,0.5,0.5C22,16.8,21.8,17,21.5,17z"/>
</g>
<g id="Outline_Icons">
	<g>
		<rect x="0.5" y="14.5" class="st2" width="9" height="9"/>
		<rect x="14.5" y="14.5" class="st2" width="9" height="9"/>
		<rect x="8.5" y="0.5" class="st2" width="9" height="9"/>
		<polyline class="st3" points="20.5,14.5 20.5,11.5 3.5,11.5 3.5,14.5 		"/>
		<line class="st3" x1="13.5" y1="9.5" x2="13.5" y2="11.5"/>
		<line class="st3" x1="10.5" y1="2.5" x2="15.5" y2="2.5"/>
		<line class="st3" x1="16.5" y1="16.5" x2="21.5" y2="16.5"/>
		<line class="st3" x1="2.5" y1="16.5" x2="7.5" y2="16.5"/>
	</g>
</g>
</svg>
