<?xml version="1.0" encoding="utf-8"?>
<!-- Generator: Adobe Illustrator 19.2.0, SVG Export Plug-In . SVG Version: 6.00 Build 0)  -->
<svg version="1.1" id="Layer_1" xmlns="http://www.w3.org/2000/svg" xmlns:xlink="http://www.w3.org/1999/xlink" x="0px" y="0px"
	 viewBox="0 0 24 24" enable-background="new 0 0 24 24" xml:space="preserve">
<g id="Filled_Icons" display="none">
	<path display="inline" d="M18.5,15.006h-1.91c-1.377,0-2.63-0.812-3.193-2.068L7.768,0.381c-5.253,1.865-7.599,6.51-7.017,10.91
		C1.248,15.05,1.5,19.159,1.5,23.506v0.5H5V14.94c0-0.515,0.419-0.934,0.934-0.934c0.409,0,0.776,0.273,0.91,0.713l2.675,6.5
		c0.696,1.693,2.33,2.787,4.161,2.787h4.82c2.48,0,4.5-2.02,4.5-4.5C23,17.025,20.98,15.006,18.5,15.006z"/>
</g>
<g id="Outline_Icons">
	<g>
		<path fill="none" stroke="#000000" stroke-linejoin="round" stroke-miterlimit="10" d="M7.5,1
			C3.264,2.503,0.657,6.764,1.247,11.22C1.661,14.354,2,18.456,2,23.5h2.5v-8.566c0-0.791,0.642-1.434,1.434-1.434
			c0.633,0,1.191,0.415,1.373,1.022l2.674,6.5c0.617,1.5,2.078,2.478,3.699,2.478h4.82c2.209,0,4-1.791,4-4s-1.791-4-4-4h-1.91
			c-1.574,0-3.005-0.926-3.648-2.363L7.5,1z"/>
	</g>
</g>
</svg>
