<?xml version="1.0" encoding="utf-8"?>
<!-- Generator: Adobe Illustrator 19.2.0, SVG Export Plug-In . SVG Version: 6.00 Build 0)  -->
<svg version="1.1" id="Layer_1" xmlns="http://www.w3.org/2000/svg" xmlns:xlink="http://www.w3.org/1999/xlink" x="0px" y="0px"
	 viewBox="0 0 24 24" style="enable-background:new 0 0 24 24;" xml:space="preserve">
<style type="text/css">
	.st0{display:none;}
	.st1{display:inline;}
	.st2{fill:none;stroke:#000000;stroke-linejoin:round;stroke-miterlimit:10;}
</style>
<g id="Filled_Icons" class="st0">
	<g class="st1">
		<path d="M6,9.5c-1.4,0-2.5,1.1-2.5,2.5c0,1.4,1.1,2.5,2.5,2.5c1.4,0,2.5-1.1,2.5-2.5C8.5,10.6,7.4,9.5,6,9.5z"/>
		<g>
			<polygon points="18.4,16.8 20,12.1 17.4,6.9 15.8,11.5 			"/>
			<path d="M8.4,18H7.5c-1.3,0-2,1.3-2,2.5c0,1.2,0.7,2.5,2,2.5h3.8L8.4,18z"/>
			<path d="M22.8,1.6c-0.3-0.4-0.7-0.8-1.2-0.9c-1-0.3-2.2,0.4-2.5,1.4l-1.2,3.5l2.5,5.1l2.5-7.6C23.1,2.6,23,2.1,22.8,1.6z"/>
			<path d="M15.3,12.8L13.5,18h-4l2.9,5H15c0.9,0,1.7-0.8,1.9-1.6l1-3.2L15.3,12.8z"/>
		</g>
	</g>
</g>
<g id="Outline_Icons">
	<g>
		<g>
			<path class="st2" d="M15,22.5H7.5c-2,0-2-4,0-4h6.4l5.7-16.2c0.2-0.8,1.1-1.4,1.9-1.1c0.8,0.2,1.2,1,1,1.8l-6,18.2
				C16.2,21.8,15.7,22.5,15,22.5z"/>
		</g>
		<circle class="st2" cx="6" cy="12" r="2"/>
		<line class="st2" x1="15.9" y1="12.8" x2="17.9" y2="16.8"/>
		<line class="st2" x1="18" y1="6.9" x2="19.9" y2="10.7"/>
		<line class="st2" x1="9.3" y1="18.5" x2="11.6" y2="22.5"/>
	</g>
</g>
</svg>
