<?xml version="1.0" encoding="utf-8"?>
<!-- Generator: Adobe Illustrator 19.2.0, SVG Export Plug-In . SVG Version: 6.00 Build 0)  -->
<svg version="1.1" id="Layer_1" xmlns="http://www.w3.org/2000/svg" xmlns:xlink="http://www.w3.org/1999/xlink" x="0px" y="0px"
	 viewBox="0 0 24 24" style="enable-background:new 0 0 24 24;" xml:space="preserve">
<style type="text/css">
	.st0{display:none;}
	.st1{display:inline;}
	.st2{fill:none;stroke:#000000;stroke-linecap:round;stroke-linejoin:round;stroke-miterlimit:10;}
</style>
<g id="Filled_Icons" class="st0">
	<g class="st1">
		<path d="M9,10.8l-6,6.7v6C3,23.8,3.2,24,3.5,24h11c0.3,0,0.5-0.2,0.5-0.5v-6L9,10.8z M10.5,17c0,0.3-0.2,0.5-0.5,0.5H8
			c-0.3,0-0.5-0.2-0.5-0.5v-2c0-0.3,0.2-0.5,0.5-0.5h2c0.3,0,0.5,0.2,0.5,0.5V17z"/>
		<g>
			<path d="M17.5,18.5c-0.1,0-0.3-0.1-0.4-0.2L9,9.3l-8.1,9.1c-0.2,0.2-0.5,0.2-0.7,0c-0.2-0.2-0.2-0.5,0-0.7l8.5-9.5
				C8.8,8,9.2,8,9.4,8.2l8.5,9.5c0.2,0.2,0.2,0.5,0,0.7C17.7,18.5,17.6,18.5,17.5,18.5z"/>
		</g>
		<path d="M23,6.4C23,6.2,22.9,6,22.7,6c-0.2-0.1-0.4,0-0.5,0.1c0,0-1.6,1.2-3.3,1.2c-0.3,0-0.6,0-0.8-0.1c0.1-1,0.4-4,1.8-6.4
			c0.1-0.2,0.1-0.3,0-0.5C19.8,0.1,19.6,0,19.4,0c-2.2,0-5.4,1.2-7,3.3c-0.7,1-1.1,2-1,3.1c-1.2-0.5-2.5-2.5-3-3.3
			C8.4,3,8.2,2.9,8.1,2.9c-0.2,0-0.3,0-0.4,0.2C7.5,3.2,5,5.9,6,8.7c0,0,0.1,0.1,0.2,0.4c0,0.1,0.1,0.1,0.1,0.1l1.5-1.7
			c0.6-0.6,1.7-0.6,2.2,0l7.7,8.7c0.3-0.1,0.6-0.1,0.8-0.2C23.9,13.9,23,6.7,23,6.4z"/>
	</g>
</g>
<g id="Outline_Icons">
	<g>
		<polyline class="st2" points="3.5,18.5 3.5,23.5 14.5,23.5 14.5,18.5 		"/>
		<polyline class="st2" points="0.5,18 9,8.5 17.5,18 		"/>
		<rect x="7.5" y="13.5" class="st2" width="3" height="3"/>
		<path class="st2" d="M18.5,15.5c4.9-2.1,4-9,4-9s-2.5,2-5,1.1c0,0,0-4,1.9-7c-3.1,0-8.4,2.7-7.4,6.6c-2,0-4-3.7-4-3.7
			S5.6,6,6.5,8.5"/>
	</g>
</g>
</svg>
