<?xml version="1.0" encoding="utf-8"?>
<!-- Generator: Adobe Illustrator 19.2.0, SVG Export Plug-In . SVG Version: 6.00 Build 0)  -->
<svg version="1.1" id="Layer_1" xmlns="http://www.w3.org/2000/svg" xmlns:xlink="http://www.w3.org/1999/xlink" x="0px" y="0px"
	 viewBox="0 0 24 24" style="enable-background:new 0 0 24 24;" xml:space="preserve">
<style type="text/css">
	.st0{display:none;}
	.st1{display:inline;}
	.st2{fill:none;stroke:#000000;stroke-linecap:round;stroke-linejoin:round;stroke-miterlimit:10;}
</style>
<g id="Filled_Icons" class="st0">
	<g class="st1">
		<path d="M20.1,7.4c0.1,0.1,0.2,0.1,0.4,0.1C20.8,7.5,21,7.3,21,7V2.5C21,2.2,20.8,2,20.5,2H16c-0.2,0-0.4,0.1-0.5,0.3
			c-0.1,0.2,0,0.4,0.1,0.5L20.1,7.4z"/>
		<polygon points="3,12.6 3,24 10,24 10,17 14,17 14,24 21,24 21,12.6 12,3.6 		"/>
		<path d="M23.9,12.7C23.9,12.7,23.9,12.7,23.9,12.7L12.4,1.2c-0.2-0.2-0.5-0.2-0.7,0L0.1,12.7c-0.2,0.2-0.2,0.5,0,0.7
			c0.2,0.2,0.5,0.2,0.7,0c0,0,0,0,0,0L12,2.2l11.1,11.1c0,0,0,0,0,0c0.2,0.2,0.5,0.2,0.7,0c0,0,0,0,0,0C24,13.2,24.1,12.9,23.9,12.7
			z"/>
	</g>
</g>
<g id="Outline_Icons">
	<g>
		<polyline class="st2" points="3.5,13.5 3.5,23.5 9.5,23.5 9.5,16.5 14.5,16.5 14.5,23.5 20.5,23.5 20.5,14 		"/>
		<polyline class="st2" points="0.5,13 12,1.5 23.5,13 		"/>
		<polyline class="st2" points="16,2.5 19.5,2.5 19.5,6 		"/>
	</g>
</g>
</svg>
