<?xml version="1.0" encoding="utf-8"?>
<!-- Generator: Adobe Illustrator 19.2.0, SVG Export Plug-In . SVG Version: 6.00 Build 0)  -->
<svg version="1.1" id="Layer_1" xmlns="http://www.w3.org/2000/svg" xmlns:xlink="http://www.w3.org/1999/xlink" x="0px" y="0px"
	 viewBox="0 0 24 24" style="enable-background:new 0 0 24 24;" xml:space="preserve">
<style type="text/css">
	.st0{display:none;}
	.st1{display:inline;}
	.st2{fill:none;stroke:#000000;stroke-linejoin:round;stroke-miterlimit:10;}
	.st3{fill:none;stroke:#000000;stroke-linecap:round;stroke-linejoin:round;stroke-miterlimit:10;}
</style>
<g id="Filled_Icons" class="st0">
	<g class="st1">
		<g>
			<path d="M7.5,4h-1h-2h-1C3.2,4,3,4.2,3,4.5C3,4.8,3.2,5,3.5,5H4v1.5C4,6.8,4.2,7,4.5,7h2C6.8,7,7,6.8,7,6.5V5h0.5
				C7.8,5,8,4.8,8,4.5C8,4.2,7.8,4,7.5,4z"/>
		</g>
		<g>
			<path d="M20.5,4h-1h-2h-1C16.2,4,16,4.2,16,4.5C16,4.8,16.2,5,16.5,5H17v1.5C17,6.8,17.2,7,17.5,7h2C19.8,7,20,6.8,20,6.5V5h0.5
				C20.8,5,21,4.8,21,4.5C21,4.2,20.8,4,20.5,4z"/>
		</g>
		<g>
			<path d="M17.8,12.1l-5.4-6.9c-0.2-0.2-0.6-0.2-0.8,0l-5.5,7C6,12.3,6,12.6,6,12.7C6.1,12.9,6.3,13,6.5,13h11c0,0,0,0,0,0
				c0.3,0,0.5-0.2,0.5-0.5C18,12.3,17.9,12.2,17.8,12.1z"/>
		</g>
		<path d="M8,14v9.5C8,23.8,8.2,24,8.5,24H10v-6.5c0-0.3,0.2-0.5,0.5-0.5h3c0.3,0,0.5,0.2,0.5,0.5V24h1.5c0.3,0,0.5-0.2,0.5-0.5V14
			H8z"/>
		<g>
			<path d="M7,24v-7H2v6.5C2,23.8,2.2,24,2.5,24H7L7,24z M6,20.5C6,20.8,5.8,21,5.5,21h-2C3.2,21,3,20.8,3,20.5v-2
				C3,18.2,3.2,18,3.5,18h2C5.8,18,6,18.2,6,18.5V20.5z"/>
			<path d="M17,17v7l0,0h4.5c0.3,0,0.5-0.2,0.5-0.5V17H17z M21,20.5c0,0.3-0.2,0.5-0.5,0.5h-2c-0.3,0-0.5-0.2-0.5-0.5v-2
				c0-0.3,0.2-0.5,0.5-0.5h2c0.3,0,0.5,0.2,0.5,0.5V20.5z"/>
		</g>
		<path d="M7,14H6.5c-0.6,0-1.1-0.3-1.4-0.8C4.9,12.6,5,12,5.3,11.6L8.1,8H3.5C3.3,8,3.1,8.1,3,8.3l-3,7c-0.1,0.2,0,0.3,0,0.5
			C0.2,15.9,0.3,16,0.5,16H7V14z"/>
		<path d="M24,15.3l-3-7C20.9,8.1,20.7,8,20.5,8h-4.6l2.7,3.4c0.3,0.3,0.5,0.7,0.5,1.1c0,0.8-0.7,1.5-1.5,1.5c0,0,0,0,0,0H17v2h6.5
			c0.2,0,0.3-0.1,0.4-0.2C24,15.6,24,15.5,24,15.3z"/>
	</g>
</g>
<g id="Outline_Icons">
	<g>
		<polyline class="st2" points="8.5,15.5 2.5,15.5 2.5,23.5 21.5,23.5 21.5,15.5 15.5,15.5 		"/>
		<polyline class="st2" points="8,15.5 0.5,15.5 3.5,8.5 9.7,8.5 		"/>
		<polyline class="st2" points="14.4,8.5 20.5,8.5 23.5,15.5 16,15.5 		"/>
		<rect x="4.5" y="4.5" class="st2" width="2" height="4"/>
		<line class="st3" x1="3.5" y1="4.5" x2="7.5" y2="4.5"/>
		<rect x="17.5" y="4.5" class="st2" width="2" height="4"/>
		<line class="st3" x1="16.5" y1="4.5" x2="20.5" y2="4.5"/>
		<rect x="8.5" y="12.5" class="st3" width="7" height="11"/>
		<polygon class="st3" points="12,5.5 17.5,12.5 6.5,12.5 		"/>
		<rect x="17.5" y="17.5" class="st2" width="2" height="2"/>
		<rect x="4.5" y="17.5" class="st2" width="2" height="2"/>
		<rect x="10.5" y="17.5" class="st2" width="3" height="6"/>
	</g>
</g>
</svg>
