<?xml version="1.0" encoding="utf-8"?>
<!-- Generator: Adobe Illustrator 19.2.0, SVG Export Plug-In . SVG Version: 6.00 Build 0)  -->
<svg version="1.1" id="Layer_1" xmlns="http://www.w3.org/2000/svg" xmlns:xlink="http://www.w3.org/1999/xlink" x="0px" y="0px"
	 viewBox="0 0 24 24" style="enable-background:new 0 0 24 24;" xml:space="preserve">
<style type="text/css">
	.st0{display:none;}
	.st1{display:inline;}
	.st2{fill:none;stroke:#000000;stroke-linecap:round;stroke-linejoin:round;stroke-miterlimit:10;}
</style>
<g id="Filled_Icons" class="st0">
	<g class="st1">
		<polygon points="3,13.7 3,24 10,24 10,17 14,17 14,24 21,24 21,13.7 12,5.1 		"/>
		<path d="M23.8,13.6L12,2.3L0.2,13.6c-0.2,0.2-0.2,0.5,0,0.7c0.2,0.2,0.5,0.2,0.7,0c0,0,0,0,0,0L12,3.7l11.2,10.7c0,0,0,0,0,0
			c0.2,0.2,0.5,0.2,0.7,0c0,0,0,0,0,0C24,14.2,24.1,13.8,23.8,13.6z"/>
		<path d="M17,5.7l3.2,3.2C20.2,8.9,20.3,9,20.4,9c0,0,0,0,0.1,0c0.1,0,0.1,0,0.2,0C20.9,8.9,21,8.7,21,8.5v-4
			c0-0.2-0.1-0.3-0.2-0.4c0,0,0-0.1,0-0.1c0-0.7,0.2-0.8,0.7-1.1c0.6-0.3,1.3-0.8,1.3-2.4c0-0.3-0.2-0.5-0.5-0.5
			c-0.3,0-0.5,0.2-0.5,0.5c0,1-0.4,1.3-0.8,1.6c-0.5,0.3-1.2,0.7-1.2,1.9h-1.5c0-0.7,0.2-0.8,0.7-1.1c0.6-0.3,1.3-0.8,1.3-2.4
			c0-0.3-0.2-0.5-0.5-0.5c-0.3,0-0.5,0.2-0.5,0.5c0,1-0.4,1.3-0.8,1.6C18,2.4,17.3,2.8,17.3,4h-0.8c-0.2,0-0.4,0.1-0.5,0.3
			c-0.1,0.2,0,0.4,0.1,0.5L17,5.7z"/>
	</g>
</g>
<g id="Outline_Icons">
	<g>
		<path class="st2" d="M19,0.5C19,3,17,2,17,4"/>
		<path class="st2" d="M21.5,0.5c0,2.5-2,1.5-2,3.5"/>
		<polyline class="st2" points="3.5,13.5 3.5,23.5 9.5,23.5 9.5,16.5 14.5,16.5 14.5,23.5 20.5,23.5 20.5,14 		"/>
		<polyline class="st2" points="0.5,13 12,2 23.5,13 		"/>
		<polyline class="st2" points="15.7,5.5 19.5,5.5 19.5,9.2 		"/>
	</g>
</g>
</svg>
