<?xml version="1.0" encoding="utf-8"?>
<!-- Generator: Adobe Illustrator 19.2.0, SVG Export Plug-In . SVG Version: 6.00 Build 0)  -->
<svg version="1.1" id="Layer_1" xmlns="http://www.w3.org/2000/svg" xmlns:xlink="http://www.w3.org/1999/xlink" x="0px" y="0px"
	 viewBox="0 0 24 24" style="enable-background:new 0 0 24 24;" xml:space="preserve">
<style type="text/css">
	.st0{display:none;}
	.st1{display:inline;}
	.st2{fill:none;stroke:#000000;stroke-linecap:round;stroke-linejoin:round;stroke-miterlimit:10;}
</style>
<g id="Filled_Icons" class="st0">
	<g class="st1">
		<path d="M14.4,11.1c-0.1-0.1-0.3-0.1-0.4,0c-0.1,0.1-0.2,0.2-0.3,0.4c-0.1,0.7-0.4,1.5-0.8,2c-0.5-0.6-0.8-1.5-0.8-2.4
			c0-1.3,1-2.5,2-3.1c0.2-0.1,0.3-0.4,0.2-0.6C14.1,7.1,13.9,7,13.6,7c-5,0.8-8.9,5.3-8.9,10.3c0,3.7,3,6.7,6.7,6.7s6.7-3,6.7-6.7
			C18.2,14.6,16.7,12.1,14.4,11.1z"/>
		<g>
			<path d="M23,12c-0.2,0-0.5-0.1-0.7-0.3L12,2.4L1.7,11.7c-0.4,0.4-1,0.3-1.4-0.1c-0.4-0.4-0.3-1,0.1-1.4l11-10
				c0.4-0.3,1-0.3,1.3,0l11,10c0.4,0.4,0.4,1,0.1,1.4C23.5,11.9,23.3,12,23,12z"/>
		</g>
	</g>
</g>
<g id="Outline_Icons">
	<g>
		<path class="st2" d="M13.7,7.5c-1.2,0.7-2.2,2.1-2.2,3.6c0,1.2,0.5,2.4,1.3,3.1c0.7-0.6,1.2-1.7,1.3-2.7c2.2,1,3.6,3.4,3.6,5.8
			c0,3.4-2.8,6.2-6.2,6.2c-3.4,0-6.2-2.8-6.2-6.2C5.3,12.5,9.1,8.3,13.7,7.5z"/>
		<polyline class="st2" points="0.5,11 12,0.5 23.5,11 		"/>
	</g>
</g>
</svg>
