<?xml version="1.0" encoding="utf-8"?>
<!-- Generator: Adobe Illustrator 19.2.0, SVG Export Plug-In . SVG Version: 6.00 Build 0)  -->
<svg version="1.1" id="Layer_1" xmlns="http://www.w3.org/2000/svg" xmlns:xlink="http://www.w3.org/1999/xlink" x="0px" y="0px"
	 viewBox="0 0 24 24" enable-background="new 0 0 24 24" xml:space="preserve">
<g id="Filled_Icons" display="none">
	<g display="inline">
		<path d="M21.087,11.289c-0.229,0.089-0.468,0.15-0.721,0.15c-0.214,0-0.425-0.035-0.628-0.102
			c-1.118-0.371-1.844-0.713-2.375-0.962c-0.566-0.268-0.732-0.335-0.932-0.339H16.43c-0.484,0-0.742,0.196-1.285,0.639
			c-0.677,0.553-1.602,1.309-3.141,1.314c-0.002,0-0.014,0-0.016,0c-1.507,0-2.459-0.742-3.155-1.284
			c-0.574-0.448-0.871-0.663-1.351-0.669l0,0c-0.231,0-0.369,0.06-0.915,0.333c-0.496,0.25-1.176,0.591-2.224,0.946
			c-0.487,0.165-1.015,0.118-1.471-0.089c-0.887,3.605,0.796,6.818,1.647,8.142c1.356,2.106,3.208,3.637,4.402,3.637h6.14
			c1.072,0,3.065-1.782,4.44-3.978C20.497,17.441,21.853,14.52,21.087,11.289z M9,18.506c-0.827,0-1.5-0.673-1.5-1.5
			c0-0.826,0.673-1.5,1.5-1.5c0.827,0,1.5,0.674,1.5,1.5C10.5,17.833,9.827,18.506,9,18.506z M12.5,21.006
			c-0.827,0-1.5-0.673-1.5-1.5c0-0.826,0.673-1.5,1.5-1.5c0.827,0,1.5,0.674,1.5,1.5C14,20.333,13.327,21.006,12.5,21.006z
			 M13.5,17.006c-0.827,0-1.5-0.673-1.5-1.5c0-0.826,0.673-1.5,1.5-1.5c0.827,0,1.5,0.674,1.5,1.5
			C15,16.333,14.327,17.006,13.5,17.006z"/>
		<g>
			<path d="M18,5.006v-1.5c0-0.827-0.673-1.5-1.5-1.5h-9c-0.827,0-1.5,0.673-1.5,1.5v1.5H18z"/>
			<path d="M21.109,8.77l-2.486-2.764H5.413l-2.457,2.75C2.653,9.095,2.617,9.597,2.868,9.973c0.246,0.373,0.732,0.54,1.154,0.396
				c0.982-0.333,1.626-0.656,2.097-0.893c0.563-0.283,0.875-0.439,1.375-0.439c0.839,0.01,1.356,0.413,1.955,0.88
				c0.646,0.503,1.377,1.073,2.54,1.073h0.013c1.183-0.004,1.889-0.58,2.512-1.089c0.566-0.464,1.057-0.864,1.932-0.864h0.002
				c0.437,0.007,0.759,0.158,1.345,0.434c0.507,0.239,1.2,0.566,2.261,0.918c0.424,0.139,0.907-0.03,1.152-0.404
				C21.451,9.606,21.412,9.107,21.109,8.77z"/>
		</g>
	</g>
</g>
<g id="Outline_Icons">
	<g>
		<path fill="none" stroke="#000000" stroke-linejoin="round" stroke-miterlimit="10" d="M3.863,9.89
			C1.083,16,6.853,22.5,8.923,22.5h6.14c1.543,0,7.979-6.5,4.961-12.738"/>
		<path fill="none" stroke="#000000" stroke-linecap="round" stroke-linejoin="round" stroke-miterlimit="10" d="M17.5,3.5
			c0-0.553-0.447-1-1-1h-9c-0.553,0-1,0.447-1,1v2h11V3.5z"/>
		<path fill="none" stroke="#000000" stroke-linecap="round" stroke-linejoin="round" stroke-miterlimit="10" d="M6.755,5.5
			c-0.143,0-0.278,0.061-0.373,0.167L3.329,9.082c-0.151,0.17-0.17,0.42-0.044,0.609C3.41,9.881,3.647,9.963,3.862,9.89
			C6.013,9.16,6.407,8.519,7.5,8.531c2.018,0.022,2.508,1.96,4.5,1.953c2.031-0.007,2.389-1.983,4.453-1.953
			c1,0.015,1.486,0.624,3.756,1.376c0.216,0.071,0.452-0.012,0.576-0.201c0.124-0.19,0.104-0.439-0.047-0.608l-3.09-3.432
			C17.555,5.56,17.419,5.5,17.277,5.5H6.755z"/>
		
			<circle fill="none" stroke="#000000" stroke-linecap="round" stroke-linejoin="round" stroke-miterlimit="10" cx="9" cy="17" r="1"/>
		
			<circle fill="none" stroke="#000000" stroke-linecap="round" stroke-linejoin="round" stroke-miterlimit="10" cx="12" cy="19" r="1"/>
		
			<circle fill="none" stroke="#000000" stroke-linecap="round" stroke-linejoin="round" stroke-miterlimit="10" cx="13" cy="16" r="1"/>
	</g>
</g>
</svg>
