<?xml version="1.0" encoding="utf-8"?>
<!-- Generator: Adobe Illustrator 19.2.0, SVG Export Plug-In . SVG Version: 6.00 Build 0)  -->
<svg version="1.1" id="Layer_1" xmlns="http://www.w3.org/2000/svg" xmlns:xlink="http://www.w3.org/1999/xlink" x="0px" y="0px"
	 viewBox="0 0 24 24" style="enable-background:new 0 0 24 24;" xml:space="preserve">
<style type="text/css">
	.st0{display:none;}
	.st1{display:inline;}
	.st2{fill:none;stroke:#000000;stroke-linejoin:round;stroke-miterlimit:10;}
</style>
<g id="Filled_Icons" class="st0">
	<g class="st1">
		<path d="M17.7,9.6V3.5c0-0.2-0.1-0.3-0.2-0.4l-5.2-3c-0.2-0.1-0.3-0.1-0.5,0l-5.2,3C6.4,3.2,6.3,3.4,6.3,3.5v6.1
			c0,0.2,0.1,0.3,0.2,0.4l5.2,3c0.1,0,0.2,0.1,0.2,0.1c0.1,0,0.2,0,0.2-0.1l5.2-3C17.7,9.9,17.7,9.8,17.7,9.6z"/>
		<path d="M6,11c-0.2-0.1-0.3-0.1-0.5,0l-5.2,3C0.1,14.1,0,14.3,0,14.5v6.1c0,0.2,0.1,0.3,0.2,0.4l5.2,3C5.6,24,5.7,24,5.7,24
			C5.8,24,5.9,24,6,24l5.2-3c0.2-0.1,0.2-0.3,0.2-0.4v-6.1c0-0.2-0.1-0.3-0.2-0.4L6,11z"/>
		<path d="M23.7,14l-5.2-3c-0.2-0.1-0.3-0.1-0.5,0l-5.2,3c-0.2,0.1-0.2,0.3-0.2,0.4v6.1c0,0.2,0.1,0.3,0.2,0.4l5.2,3
			c0.1,0,0.2,0.1,0.2,0.1c0.1,0,0.2,0,0.2-0.1l5.2-3c0.2-0.1,0.2-0.3,0.2-0.4v-6.1C24,14.3,23.9,14.1,23.7,14z"/>
	</g>
</g>
<g id="Outline_Icons">
	<g>
		<polygon class="st2" points="0.5,13.7 5.5,10.5 11.5,13.7 11.5,20.2 5.5,23.5 0.5,20.2 		"/>
		<polygon class="st2" points="11.5,13.7 17.5,10.5 22.5,13.7 22.5,20.2 17.5,23.5 11.5,20.2 		"/>
		<polygon class="st2" points="5.5,4 11.5,0.7 17.5,4 17.5,10.5 11.5,13.8 5.5,10.5 		"/>
	</g>
</g>
</svg>
