<?xml version="1.0" encoding="utf-8"?>
<!-- Generator: Adobe Illustrator 19.2.0, SVG Export Plug-In . SVG Version: 6.00 Build 0)  -->
<svg version="1.1" id="Layer_1" xmlns="http://www.w3.org/2000/svg" xmlns:xlink="http://www.w3.org/1999/xlink" x="0px" y="0px"
	 viewBox="0 0 24 24" style="enable-background:new 0 0 24 24;" xml:space="preserve">
<style type="text/css">
	.st0{display:none;}
	.st1{display:inline;}
	.st2{fill:none;stroke:#000000;stroke-linejoin:round;stroke-miterlimit:10;}
	.st3{fill:none;stroke:#000000;stroke-linecap:round;stroke-linejoin:round;stroke-miterlimit:10;}
</style>
<g id="Filled_Icons" class="st0">
	<g class="st1">
		<path d="M9.5,11h-4C5.2,11,5,11.2,5,11.5v8C5,20.3,5.7,21,6.5,21H7v3h1v-3h0.5c0.8,0,1.5-0.7,1.5-1.5v-8C10,11.2,9.8,11,9.5,11z"
			/>
		<g>
			<g>
				<path d="M22.5,7h-2C20.2,7,20,6.8,20,6.5C20,6.2,20.2,6,20.5,6h2C22.8,6,23,6.2,23,6.5C23,6.8,22.8,7,22.5,7z"/>
			</g>
		</g>
		<g>
			<g>
				<path d="M20.6,4.5c-0.2,0-0.3-0.1-0.4-0.3c-0.1-0.2,0-0.5,0.2-0.7l1.7-0.9c0.2-0.1,0.5,0,0.7,0.2c0.1,0.2,0,0.5-0.2,0.7
					l-1.7,0.9C20.8,4.5,20.7,4.5,20.6,4.5z"/>
			</g>
		</g>
		<g>
			<g>
				<path d="M22.4,10.5c-0.1,0-0.2,0-0.2-0.1l-1.7-0.9C20.1,9.3,20,9,20.2,8.8c0.1-0.2,0.4-0.3,0.7-0.2l1.7,0.9
					c0.2,0.1,0.3,0.4,0.2,0.7C22.7,10.4,22.5,10.5,22.4,10.5z"/>
			</g>
		</g>
		<g>
			<path d="M15,1h-0.5C12,1,10,3,10,5.5v2c0,2.5,2,4.5,4.5,4.5H15V1z"/>
			<path d="M17.5,1H16v11h1.5c0.8,0,1.5-0.7,1.5-1.5v-8C19,1.7,18.3,1,17.5,1z"/>
		</g>
		<g>
			<path d="M4,3.9L3.4,4c0,0,0,0,0,0C1.5,4.1,0,5.6,0,7.5v10C0,17.8,0.2,18,0.5,18C2.4,18,4,16.4,4,14.5V3.9z"/>
			<path d="M9.5,3.1L5,3.8V10h4.6C9.2,9.3,9,8.4,9,7.5v-2C9,4.7,9.2,3.9,9.5,3.1z"/>
		</g>
	</g>
</g>
<g id="Outline_Icons">
	<g>
		<path class="st2" d="M9.5,19.5c0,0.6-0.4,1-1,1h-2c-0.6,0-1-0.4-1-1v-10h4V19.5z"/>
		<line class="st2" x1="7.5" y1="20.5" x2="7.5" y2="24"/>
		<path class="st2" d="M10.5,7.5c0,2.2,1.8,4,4,4h3c0.6,0,1-0.4,1-1v-8c0-0.6-0.4-1-1-1h-3c-2.2,0-4,1.8-4,4V7.5z"/>
		<path class="st2" d="M10.5,7.5v-2c0-0.8,0.2-1.4,0.6-2v0L3.5,4.5v5H11v0C10.7,8.9,10.5,8.2,10.5,7.5z"/>
		<line class="st2" x1="15.5" y1="1.5" x2="15.5" y2="11.5"/>
		<line class="st3" x1="20.5" y1="6.5" x2="22.5" y2="6.5"/>
		<line class="st3" x1="20.6" y1="4" x2="22.4" y2="3"/>
		<line class="st3" x1="20.6" y1="9" x2="22.4" y2="10"/>
		<path class="st2" d="M0.5,7.5c0-1.7,1.3-3,3-3v10c0,1.7-1.3,3-3,3V7.5z"/>
	</g>
</g>
</svg>
