<?xml version="1.0" encoding="utf-8"?>
<!-- Generator: Adobe Illustrator 19.2.0, SVG Export Plug-In . SVG Version: 6.00 Build 0)  -->
<svg version="1.1" id="Layer_1" xmlns="http://www.w3.org/2000/svg" xmlns:xlink="http://www.w3.org/1999/xlink" x="0px" y="0px"
	 viewBox="0 0 24 24" enable-background="new 0 0 24 24" xml:space="preserve">
<g id="Filled_Icons" display="none">
	<g display="inline">
		<path d="M23.5,12.006H19v12h4.5c0.275,0,0.5-0.225,0.5-0.5v-11C24,12.229,23.775,12.006,23.5,12.006z M22.5,21.006h-2
			c-0.275,0-0.5-0.225-0.5-0.5c0-0.275,0.225-0.5,0.5-0.5h2c0.275,0,0.5,0.225,0.5,0.5C23,20.781,22.775,21.006,22.5,21.006z
			 M22.5,19.006h-2c-0.275,0-0.5-0.225-0.5-0.5c0-0.275,0.225-0.5,0.5-0.5h2c0.275,0,0.5,0.225,0.5,0.5
			C23,18.781,22.775,19.006,22.5,19.006z M22.5,17.006h-2c-0.275,0-0.5-0.225-0.5-0.5c0-0.275,0.225-0.5,0.5-0.5h2
			c0.275,0,0.5,0.225,0.5,0.5C23,16.781,22.775,17.006,22.5,17.006z M22.5,15.006h-2c-0.275,0-0.5-0.225-0.5-0.5
			c0-0.275,0.225-0.5,0.5-0.5h2c0.275,0,0.5,0.225,0.5,0.5C23,14.781,22.775,15.006,22.5,15.006z"/>
		<path d="M12,14.006c-2.455,0-4.631-1.191-6-3.02v13.02h4v-2.5c0-0.275,0.224-0.5,0.5-0.5h3c0.275,0,0.5,0.225,0.5,0.5v2.5h4
			v-13.02C16.631,12.815,14.454,14.006,12,14.006z M9.5,20.006h-1c-0.276,0-0.5-0.225-0.5-0.5c0-0.275,0.224-0.5,0.5-0.5h1
			c0.276,0,0.5,0.225,0.5,0.5C10,19.781,9.776,20.006,9.5,20.006z M9.5,18.006h-1c-0.276,0-0.5-0.225-0.5-0.5
			c0-0.275,0.224-0.5,0.5-0.5h1c0.276,0,0.5,0.225,0.5,0.5C10,17.781,9.776,18.006,9.5,18.006z M9.5,16.006h-1
			c-0.276,0-0.5-0.225-0.5-0.5c0-0.275,0.224-0.5,0.5-0.5h1c0.276,0,0.5,0.225,0.5,0.5C10,15.781,9.776,16.006,9.5,16.006z
			 M12.5,20.006h-1c-0.276,0-0.5-0.225-0.5-0.5c0-0.275,0.224-0.5,0.5-0.5h1c0.275,0,0.5,0.225,0.5,0.5
			C13,19.781,12.775,20.006,12.5,20.006z M12.5,18.006h-1c-0.276,0-0.5-0.225-0.5-0.5c0-0.275,0.224-0.5,0.5-0.5h1
			c0.275,0,0.5,0.225,0.5,0.5C13,17.781,12.775,18.006,12.5,18.006z M12.5,16.006h-1c-0.276,0-0.5-0.225-0.5-0.5
			c0-0.275,0.224-0.5,0.5-0.5h1c0.275,0,0.5,0.225,0.5,0.5C13,15.781,12.775,16.006,12.5,16.006z M15.5,20.006h-1
			c-0.275,0-0.5-0.225-0.5-0.5c0-0.275,0.225-0.5,0.5-0.5h1c0.275,0,0.5,0.225,0.5,0.5C16,19.781,15.775,20.006,15.5,20.006z
			 M15.5,18.006h-1c-0.275,0-0.5-0.225-0.5-0.5c0-0.275,0.225-0.5,0.5-0.5h1c0.275,0,0.5,0.225,0.5,0.5
			C16,17.781,15.775,18.006,15.5,18.006z M15.5,16.006h-1c-0.275,0-0.5-0.225-0.5-0.5c0-0.275,0.225-0.5,0.5-0.5h1
			c0.275,0,0.5,0.225,0.5,0.5C16,15.781,15.775,16.006,15.5,16.006z"/>
		<path d="M0,12.506v11c0,0.275,0.224,0.5,0.5,0.5H5v-12H0.5C0.224,12.006,0,12.229,0,12.506z M1.5,14.006h2
			c0.276,0,0.5,0.225,0.5,0.5c0,0.275-0.224,0.5-0.5,0.5h-2c-0.276,0-0.5-0.225-0.5-0.5C1,14.229,1.224,14.006,1.5,14.006z
			 M1.5,16.006h2c0.276,0,0.5,0.225,0.5,0.5c0,0.275-0.224,0.5-0.5,0.5h-2c-0.276,0-0.5-0.225-0.5-0.5
			C1,16.229,1.224,16.006,1.5,16.006z M1.5,18.006h2c0.276,0,0.5,0.225,0.5,0.5c0,0.275-0.224,0.5-0.5,0.5h-2
			c-0.276,0-0.5-0.225-0.5-0.5C1,18.229,1.224,18.006,1.5,18.006z M1.5,20.006h2c0.276,0,0.5,0.225,0.5,0.5
			c0,0.275-0.224,0.5-0.5,0.5h-2c-0.276,0-0.5-0.225-0.5-0.5C1,20.229,1.224,20.006,1.5,20.006z"/>
		<path d="M12,0.006c-3.584,0-6.5,2.916-6.5,6.5c0,3.584,2.916,6.5,6.5,6.5s6.5-2.916,6.5-6.5C18.5,2.922,15.584,0.006,12,0.006z
			 M16.191,7.891c0,0.276-0.224,0.5-0.5,0.5h-1.808v1.346c0,0.276-0.224,0.5-0.5,0.5h-2.77c-0.276,0-0.5-0.224-0.5-0.5V8.391H8.308
			c-0.276,0-0.5-0.224-0.5-0.5v-2.77c0-0.277,0.224-0.5,0.5-0.5h1.808V2.813c0-0.276,0.224-0.5,0.5-0.5h2.771
			c0.275,0,0.5,0.224,0.5,0.5v1.808h1.807c0.277,0,0.5,0.223,0.5,0.5v2.77H16.191z"/>
	</g>
</g>
<g id="Outline_Icons">
	<g>
		
			<line fill="none" stroke="#000000" stroke-linecap="round" stroke-linejoin="round" stroke-miterlimit="10" x1="17.5" y1="10.453" x2="17.5" y2="23.5"/>
		
			<line fill="none" stroke="#000000" stroke-linecap="round" stroke-linejoin="round" stroke-miterlimit="10" x1="6.5" y1="23.5" x2="6.5" y2="10.438"/>
		<polyline fill="none" stroke="#000000" stroke-linecap="round" stroke-linejoin="round" stroke-miterlimit="10" points="
			17.5,23.5 17.5,12.5 23.5,12.5 23.5,23.5 		"/>
		<polyline fill="none" stroke="#000000" stroke-linecap="round" stroke-linejoin="round" stroke-miterlimit="10" points="0.5,23.5 
			0.5,12.5 6.5,12.5 6.5,23.5 		"/>
		
			<line fill="none" stroke="#000000" stroke-linecap="round" stroke-linejoin="round" stroke-miterlimit="10" x1="0.5" y1="23.5" x2="23.5" y2="23.5"/>
		
			<circle fill="none" stroke="#000000" stroke-linecap="round" stroke-linejoin="round" stroke-miterlimit="10" cx="12" cy="7" r="6.5"/>
		<polygon fill="none" stroke="#000000" stroke-linecap="round" stroke-linejoin="round" stroke-miterlimit="10" points="15.5,5.5 
			13.5,5.5 13.501,3.5 10.501,3.5 10.5,5.5 8.5,5.5 8.5,8.5 10.5,8.5 10.5,10.5 13.5,10.5 13.5,8.5 15.5,8.5 		"/>
		
			<line fill="none" stroke="#000000" stroke-linecap="round" stroke-linejoin="round" stroke-miterlimit="10" x1="2.5" y1="14.5" x2="4.5" y2="14.5"/>
		
			<line fill="none" stroke="#000000" stroke-linecap="round" stroke-linejoin="round" stroke-miterlimit="10" x1="2.5" y1="16.5" x2="4.5" y2="16.5"/>
		
			<line fill="none" stroke="#000000" stroke-linecap="round" stroke-linejoin="round" stroke-miterlimit="10" x1="2.5" y1="18.5" x2="4.5" y2="18.5"/>
		
			<line fill="none" stroke="#000000" stroke-linecap="round" stroke-linejoin="round" stroke-miterlimit="10" x1="2.5" y1="20.5" x2="4.5" y2="20.5"/>
		
			<line fill="none" stroke="#000000" stroke-linecap="round" stroke-linejoin="round" stroke-miterlimit="10" x1="19.5" y1="14.5" x2="21.5" y2="14.5"/>
		
			<line fill="none" stroke="#000000" stroke-linecap="round" stroke-linejoin="round" stroke-miterlimit="10" x1="19.5" y1="16.5" x2="21.5" y2="16.5"/>
		
			<line fill="none" stroke="#000000" stroke-linecap="round" stroke-linejoin="round" stroke-miterlimit="10" x1="19.5" y1="18.5" x2="21.5" y2="18.5"/>
		
			<line fill="none" stroke="#000000" stroke-linecap="round" stroke-linejoin="round" stroke-miterlimit="10" x1="19.5" y1="20.5" x2="21.5" y2="20.5"/>
		
			<line fill="none" stroke="#000000" stroke-linecap="round" stroke-linejoin="round" stroke-miterlimit="10" x1="8.5" y1="15.5" x2="9.5" y2="15.5"/>
		
			<line fill="none" stroke="#000000" stroke-linecap="round" stroke-linejoin="round" stroke-miterlimit="10" x1="8.5" y1="17.5" x2="9.5" y2="17.5"/>
		
			<line fill="none" stroke="#000000" stroke-linecap="round" stroke-linejoin="round" stroke-miterlimit="10" x1="8.5" y1="19.5" x2="9.5" y2="19.5"/>
		
			<line fill="none" stroke="#000000" stroke-linecap="round" stroke-linejoin="round" stroke-miterlimit="10" x1="11.5" y1="15.5" x2="12.5" y2="15.5"/>
		
			<line fill="none" stroke="#000000" stroke-linecap="round" stroke-linejoin="round" stroke-miterlimit="10" x1="11.5" y1="17.5" x2="12.5" y2="17.5"/>
		
			<line fill="none" stroke="#000000" stroke-linecap="round" stroke-linejoin="round" stroke-miterlimit="10" x1="11.5" y1="19.5" x2="12.5" y2="19.5"/>
		
			<line fill="none" stroke="#000000" stroke-linecap="round" stroke-linejoin="round" stroke-miterlimit="10" x1="14.5" y1="15.5" x2="15.5" y2="15.5"/>
		
			<line fill="none" stroke="#000000" stroke-linecap="round" stroke-linejoin="round" stroke-miterlimit="10" x1="14.5" y1="17.5" x2="15.5" y2="17.5"/>
		
			<line fill="none" stroke="#000000" stroke-linecap="round" stroke-linejoin="round" stroke-miterlimit="10" x1="14.5" y1="19.5" x2="15.5" y2="19.5"/>
		
			<rect x="10.5" y="21.5" fill="none" stroke="#000000" stroke-linecap="round" stroke-linejoin="round" stroke-miterlimit="10" width="3" height="2"/>
	</g>
</g>
</svg>
