<?xml version="1.0" encoding="utf-8"?>
<!-- Generator: Adobe Illustrator 19.2.0, SVG Export Plug-In . SVG Version: 6.00 Build 0)  -->
<svg version="1.1" id="Layer_1" xmlns="http://www.w3.org/2000/svg" xmlns:xlink="http://www.w3.org/1999/xlink" x="0px" y="0px"
	 viewBox="0 0 24 24" enable-background="new 0 0 24 24" xml:space="preserve">
<g id="Filled_Icons" display="none">
	<g display="inline">
		<path d="M15,14.006v-2.5c0-0.828-0.673-1.5-1.5-1.5H8v-1.03c2.246-0.25,4-2.159,4-4.47c0-2.482-2.019-4.5-4.5-4.5S3,2.023,3,4.506
			c0,2.312,1.753,4.221,4,4.47v1.03H1.5c-0.827,0-1.5,0.672-1.5,1.5v12c0,0.275,0.224,0.5,0.5,0.5H8v-5H3.5
			c-0.276,0-0.5-0.225-0.5-0.5c0-0.275,0.224-0.5,0.5-0.5H8c0,0,0.018-1.839,0.05-2H3.5c-0.276,0-0.5-0.225-0.5-0.5
			c0-0.275,0.224-0.5,0.5-0.5h5.013c0.456-0.604,1.174-1,1.987-1H15z M5.5,5.006c-0.276,0-0.5-0.224-0.5-0.5
			c0-0.276,0.224-0.5,0.5-0.5H7v-1.5c0-0.276,0.224-0.5,0.5-0.5c0.276,0,0.5,0.223,0.5,0.5v1.5h1.5c0.276,0,0.5,0.224,0.5,0.5
			c0,0.276-0.224,0.5-0.5,0.5H8v1.5c0,0.276-0.224,0.5-0.5,0.5c-0.276,0-0.5-0.224-0.5-0.5v-1.5H5.5z M3.5,13.006
			c-0.276,0-0.5-0.225-0.5-0.5c0-0.276,0.224-0.5,0.5-0.5h8c0.276,0,0.5,0.224,0.5,0.5c0,0.275-0.224,0.5-0.5,0.5H3.5z"/>
		<path d="M22.5,15.006h-12c-0.827,0-1.5,0.672-1.5,1.5v7.5h0.5h5v-2.5c0-0.275,0.225-0.5,0.5-0.5h3c0.275,0,0.5,0.225,0.5,0.5v2.5
			h5c0.275,0,0.5-0.225,0.5-0.5v-7C24,15.678,23.327,15.006,22.5,15.006z M12.5,20.006h-1c-0.276,0-0.5-0.225-0.5-0.5
			c0-0.275,0.224-0.5,0.5-0.5h1c0.275,0,0.5,0.225,0.5,0.5C13,19.781,12.775,20.006,12.5,20.006z M12.5,18.006h-1
			c-0.276,0-0.5-0.225-0.5-0.5c0-0.275,0.224-0.5,0.5-0.5h1c0.275,0,0.5,0.225,0.5,0.5C13,17.781,12.775,18.006,12.5,18.006z
			 M15.5,20.006h-1c-0.275,0-0.5-0.225-0.5-0.5c0-0.275,0.225-0.5,0.5-0.5h1c0.275,0,0.5,0.225,0.5,0.5
			C16,19.781,15.775,20.006,15.5,20.006z M15.5,18.006h-1c-0.275,0-0.5-0.225-0.5-0.5c0-0.275,0.225-0.5,0.5-0.5h1
			c0.275,0,0.5,0.225,0.5,0.5C16,17.781,15.775,18.006,15.5,18.006z M18.5,20.006h-1c-0.275,0-0.5-0.225-0.5-0.5
			c0-0.275,0.225-0.5,0.5-0.5h1c0.275,0,0.5,0.225,0.5,0.5C19,19.781,18.775,20.006,18.5,20.006z M18.5,18.006h-1
			c-0.275,0-0.5-0.225-0.5-0.5c0-0.275,0.225-0.5,0.5-0.5h1c0.275,0,0.5,0.225,0.5,0.5C19,17.781,18.775,18.006,18.5,18.006z
			 M21.5,20.006h-1c-0.275,0-0.5-0.225-0.5-0.5c0-0.275,0.225-0.5,0.5-0.5h1c0.275,0,0.5,0.225,0.5,0.5
			C22,19.781,21.775,20.006,21.5,20.006z M21.5,18.006h-1c-0.275,0-0.5-0.225-0.5-0.5c0-0.275,0.225-0.5,0.5-0.5h1
			c0.275,0,0.5,0.225,0.5,0.5C22,17.781,21.775,18.006,21.5,18.006z"/>
		<rect x="15.5" y="22.006" width="2" height="2"/>
	</g>
</g>
<g id="Outline_Icons">
	<g>
		
			<circle fill="none" stroke="#000000" stroke-linecap="round" stroke-linejoin="round" stroke-miterlimit="10" cx="7.5" cy="4.5" r="4"/>
		<path fill="none" stroke="#000000" stroke-linecap="round" stroke-linejoin="round" stroke-miterlimit="10" d="M14.5,15.5v-4
			c0-0.55-0.449-1-1-1h-12c-0.55,0-1,0.45-1,1v12"/>
		<path fill="none" stroke="#000000" stroke-linecap="round" stroke-linejoin="round" stroke-miterlimit="10" d="M23.5,23.5v-7
			c0-0.55-0.449-1-1-1h-12c-0.55,0-1,0.45-1,1v7"/>
		
			<line fill="none" stroke="#000000" stroke-linecap="round" stroke-linejoin="round" stroke-miterlimit="10" x1="3.5" y1="13.5" x2="11.5" y2="13.5"/>
		
			<line fill="none" stroke="#000000" stroke-linecap="round" stroke-linejoin="round" stroke-miterlimit="10" x1="3.5" y1="16.5" x2="9.5" y2="16.5"/>
		
			<line fill="none" stroke="#000000" stroke-linecap="round" stroke-linejoin="round" stroke-miterlimit="10" x1="3.5" y1="19.5" x2="9.5" y2="19.5"/>
		
			<line fill="none" stroke="#000000" stroke-linecap="round" stroke-linejoin="round" stroke-miterlimit="10" x1="7.5" y1="2.5" x2="7.5" y2="6.5"/>
		
			<line fill="none" stroke="#000000" stroke-linecap="round" stroke-linejoin="round" stroke-miterlimit="10" x1="9.5" y1="4.5" x2="5.5" y2="4.5"/>
		
			<line fill="none" stroke="#000000" stroke-linecap="round" stroke-linejoin="round" stroke-miterlimit="10" x1="7.5" y1="8.5" x2="7.5" y2="10.5"/>
		
			<line fill="none" stroke="#000000" stroke-linecap="round" stroke-linejoin="round" stroke-miterlimit="10" x1="0.5" y1="23.5" x2="23.5" y2="23.5"/>
		
			<rect x="15.5" y="21.5" fill="none" stroke="#000000" stroke-linecap="round" stroke-linejoin="round" stroke-miterlimit="10" width="2" height="2"/>
		
			<line fill="none" stroke="#000000" stroke-linecap="round" stroke-linejoin="round" stroke-miterlimit="10" x1="11.5" y1="19.5" x2="12.5" y2="19.5"/>
		
			<line fill="none" stroke="#000000" stroke-linecap="round" stroke-linejoin="round" stroke-miterlimit="10" x1="12.5" y1="17.5" x2="11.5" y2="17.5"/>
		
			<line fill="none" stroke="#000000" stroke-linecap="round" stroke-linejoin="round" stroke-miterlimit="10" x1="14.5" y1="19.5" x2="15.5" y2="19.5"/>
		
			<line fill="none" stroke="#000000" stroke-linecap="round" stroke-linejoin="round" stroke-miterlimit="10" x1="15.5" y1="17.5" x2="14.5" y2="17.5"/>
		
			<line fill="none" stroke="#000000" stroke-linecap="round" stroke-linejoin="round" stroke-miterlimit="10" x1="17.5" y1="19.5" x2="18.5" y2="19.5"/>
		
			<line fill="none" stroke="#000000" stroke-linecap="round" stroke-linejoin="round" stroke-miterlimit="10" x1="18.5" y1="17.5" x2="17.5" y2="17.5"/>
		
			<line fill="none" stroke="#000000" stroke-linecap="round" stroke-linejoin="round" stroke-miterlimit="10" x1="20.5" y1="19.5" x2="21.5" y2="19.5"/>
		
			<line fill="none" stroke="#000000" stroke-linecap="round" stroke-linejoin="round" stroke-miterlimit="10" x1="21.5" y1="17.5" x2="20.5" y2="17.5"/>
	</g>
</g>
</svg>
