<?xml version="1.0" encoding="utf-8"?>
<!-- Generator: Adobe Illustrator 19.2.0, SVG Export Plug-In . SVG Version: 6.00 Build 0)  -->
<svg version="1.1" id="Layer_1" xmlns="http://www.w3.org/2000/svg" xmlns:xlink="http://www.w3.org/1999/xlink" x="0px" y="0px"
	 viewBox="0 0 24 24" style="enable-background:new 0 0 24 24;" xml:space="preserve">
<style type="text/css">
	.st0{display:none;}
	.st1{display:inline;}
	.st2{fill:none;stroke:#000000;stroke-linejoin:round;stroke-miterlimit:10;}
	.st3{fill:none;stroke:#000000;stroke-linecap:round;stroke-linejoin:round;stroke-miterlimit:10;}
</style>
<g id="Filled_Icon" class="st0">
	<g class="st1">
		<path d="M22.9,7.6l-7.1-7.1c-0.2-0.2-0.5-0.2-0.7,0l-12,12c-0.1,0.1-0.1,0.2-0.1,0.4c0,0.1,0.1,0.3,0.1,0.4l0.8,0.8
			c1.2-1.5,2.9-2.7,4.8-3.1c0.7-0.2,1.4,0.2,1.7,0.8c0.3,0.6,0.1,1.4-0.5,1.8c-0.3,0.2-0.5,0.5-0.6,0.8c0.1,0,0.2,0,0.3,0.1
			c1.8,0.7,2.9,2.1,3.3,3.7l10-10C22.9,8.2,23,8.1,23,8C23,7.9,22.9,7.7,22.9,7.6z M14.7,12.2C14.2,12.7,13.6,13,13,13
			s-1.3-0.3-1.8-0.7c-1-1-1-2.6,0-3.5c0.9-0.9,2.6-0.9,3.5,0C15.7,9.7,15.7,11.3,14.7,12.2z M15.8,4.1l-1.4,1.4
			c-0.1,0.1-0.2,0.1-0.4,0.1c-0.1,0-0.3,0-0.4-0.1c-0.2-0.2-0.2-0.5,0-0.7l1.4-1.4c0.2-0.2,0.5-0.2,0.7,0C16,3.6,16,3.9,15.8,4.1z"
			/>
		<path d="M9.2,15.5c-0.1-0.1-0.3,0-0.4,0c-0.1,0.1-0.2,0.2-0.2,0.4c0,0.3-0.1,0.5-0.3,0.7c-0.3-1-0.2-2.8,1.1-3.8
			c0.2-0.1,0.3-0.4,0.2-0.6C9.4,12.1,9.1,12,8.9,12C5.5,12.8,3,16,3,19.5C3,22,5,24,7.5,24s4.5-2,4.5-4.5C12,17.7,11,16.2,9.2,15.5z
			 M7.5,23c-0.9,0-1.6-0.7-1.6-1.6c0-1.3,0.9-2.5,2.2-2.8c-0.3,0.9,1,1.8,1,2.8C9.1,22.3,8.4,23,7.5,23z"/>
	</g>
</g>
<g id="Outline_Icons">
	<g>
		<path class="st2" d="M9,12.5c-1.8,1.3-1.7,3.9-1,5c0.5-0.4,0.9-0.8,1-1.5c1.7,0.7,2.5,2,2.5,3.5c0,2.2-1.8,4-4,4c-2.2,0-4-1.8-4-4
			C3.5,16.3,5.8,13.2,9,12.5z"/>
		<path class="st2" d="M8.1,19.1c-0.3,0.9,1,1.8,1,2.8c0,0.9-0.7,1.6-1.6,1.6c-0.9,0-1.6-0.7-1.6-1.6C5.9,20.6,6.8,19.4,8.1,19.1z"
			/>
		<polyline class="st3" points="4,14 3,13 15,1 22,8 12.8,17.3 		"/>
		<circle class="st3" cx="12.5" cy="10.5" r="2"/>
		<line class="st3" x1="13.6" y1="5.2" x2="15" y2="3.8"/>
	</g>
</g>
</svg>
