<?xml version="1.0" encoding="utf-8"?>
<!-- Generator: Adobe Illustrator 19.2.0, SVG Export Plug-In . SVG Version: 6.00 Build 0)  -->
<svg version="1.1" id="Layer_1" xmlns="http://www.w3.org/2000/svg" xmlns:xlink="http://www.w3.org/1999/xlink" x="0px" y="0px"
	 viewBox="0 0 24 24" style="enable-background:new 0 0 24 24;" xml:space="preserve">
<style type="text/css">
	.st0{display:none;}
	.st1{display:inline;}
	.st2{fill:none;stroke:#000000;stroke-linecap:round;stroke-linejoin:round;stroke-miterlimit:10;}
</style>
<g id="Filled_Icons" class="st0">
	<g class="st1">
		<rect x="11" y="10" width="2" height="4"/>
		<path d="M12,0C5.4,0,0,5.4,0,12c0,6.6,5.4,12,12,12c6.6,0,12-5.4,12-12C24,5.4,18.6,0,12,0z M9,14.5C9,14.8,8.8,15,8.5,15
			C8.2,15,8,14.8,8,14.5V12H6v2.5C6,14.8,5.8,15,5.5,15C5.2,15,5,14.8,5,14.5v-5C5,9.2,5.2,9,5.5,9C5.8,9,6,9.2,6,9.5V11h2V9.5
			C8,9.2,8.2,9,8.5,9C8.8,9,9,9.2,9,9.5V14.5z M14,14.5c0,0.3-0.2,0.5-0.5,0.5h-3c-0.3,0-0.5-0.2-0.5-0.5v-5C10,9.2,10.2,9,10.5,9h3
			C13.8,9,14,9.2,14,9.5V14.5z M19.5,10H18v4.5c0,0.3-0.2,0.5-0.5,0.5c-0.3,0-0.5-0.2-0.5-0.5V10h-1.5C15.2,10,15,9.8,15,9.5
			C15,9.2,15.2,9,15.5,9h4C19.8,9,20,9.2,20,9.5C20,9.8,19.8,10,19.5,10z"/>
	</g>
</g>
<g id="Outline_Icons">
	<g>
		<circle class="st2" cx="12" cy="12" r="11.5"/>
		<g>
			<line class="st2" x1="8.5" y1="14.5" x2="8.5" y2="9.5"/>
			<line class="st2" x1="17.5" y1="14.5" x2="17.5" y2="9.5"/>
			<line class="st2" x1="15.5" y1="9.5" x2="19.5" y2="9.5"/>
			<line class="st2" x1="5.5" y1="14.5" x2="5.5" y2="9.5"/>
			<line class="st2" x1="8.5" y1="11.5" x2="5.5" y2="11.5"/>
			<rect x="10.5" y="9.5" class="st2" width="3" height="5"/>
		</g>
	</g>
</g>
</svg>
