<?xml version="1.0" encoding="utf-8"?>
<!-- Generator: Adobe Illustrator 19.2.0, SVG Export Plug-In . SVG Version: 6.00 Build 0)  -->
<svg version="1.1" id="Layer_1" xmlns="http://www.w3.org/2000/svg" xmlns:xlink="http://www.w3.org/1999/xlink" x="0px" y="0px"
	 viewBox="0 0 24 24" style="enable-background:new 0 0 24 24;" xml:space="preserve">
<style type="text/css">
	.st0{display:none;}
	.st1{display:inline;}
	.st2{fill:none;stroke:#000000;stroke-linejoin:round;stroke-miterlimit:10;}
</style>
<g id="Filled_Icons" class="st0">
	<path class="st1" d="M9,0C8.8,0,8.6,0,8.4,0.2c-0.1,0.2-0.1,0.4,0,0.6c2.5,3.3,2.6,8.4,0.4,11.4c-0.5-0.7-0.8-1.5-1-2.3
		c0-0.2-0.1-0.3-0.3-0.4C7.3,9.5,7.2,9.5,7,9.6c-2.8,2-4,5.5-2.9,8.8c1.1,3.4,4.1,5.6,7.7,5.6c4,0,6.7-2.3,7.5-6.3
		C20.5,11.6,16.6,3,9,0z M11.8,21c-1.5,0-2.7-1-2.9-2.5c0-0.2,0-0.3,0.1-0.5C9.1,18,9.3,17.9,9.4,18c0.1,0,0.1,0,0.2,0
		c0.7,0,1.6-0.7,2.1-1.5c0.2-0.4,0.5-1.1,0.2-1.7c-0.1-0.2-0.1-0.3,0-0.5c0.1-0.2,0.3-0.2,0.4-0.2c0.6,0,1.1,0.2,1.4,0.6
		c0.8,0.8,1,2.3,1,3.4C14.7,19.7,13.4,21,11.8,21z"/>
</g>
<g id="Outline_Icons">
	<g>
		<path class="st2" d="M8.8,0.5c2.7,3.5,2.8,9.4,0,12.5c-0.8-0.9-1.3-1.9-1.5-3c-5.9,4.2-2.8,13.5,4.5,13.5
			C22.8,23.5,20.7,5.2,8.8,0.5z"/>
		<path class="st2" d="M12.3,14.5c1,1.8-1.5,4.3-3,3.9c0.2,1.2,1.2,2.1,2.5,2.1c1.4,0,2.5-1.1,2.5-2.5
			C14.3,16.5,13.8,14.5,12.3,14.5z"/>
	</g>
</g>
</svg>
