<?xml version="1.0" encoding="utf-8"?>
<!-- Generator: Adobe Illustrator 19.2.0, SVG Export Plug-In . SVG Version: 6.00 Build 0)  -->
<svg version="1.1" id="Layer_1" xmlns="http://www.w3.org/2000/svg" xmlns:xlink="http://www.w3.org/1999/xlink" x="0px" y="0px"
	 viewBox="0 0 24 24" style="enable-background:new 0 0 24 24;" xml:space="preserve">
<style type="text/css">
	.st0{display:none;}
	.st1{display:inline;}
	.st2{fill:none;stroke:#000000;stroke-linecap:round;stroke-linejoin:round;stroke-miterlimit:10;}
</style>
<g id="Filled_Icon" class="st0">
	<g class="st1">
		<path d="M1.1,20.2C0.8,20.7,0,21.9,0,22.5C0,23.3,0.7,24,1.5,24C2.3,24,3,23.3,3,22.5c0-0.6-0.8-1.8-1.1-2.3
			C1.7,19.9,1.3,19.9,1.1,20.2z"/>
		<path d="M1.6,18.2c-0.1,0.2-0.1,0.5,0.1,0.6l0.7,0.7c0.1,0.1,0.2,0.1,0.4,0.1c0.1,0,0.2,0,0.3-0.1l6.4-4.4l-3.4-3.4L1.6,18.2z"/>
		<path d="M6,10.6c0.1,0,0.2,0.1,0.3,0.1l4.3,4.3c0,0,0.1,0.1,0.1,0.2l2.4,0.2L5.8,8.1L6,10.6z"/>
		<path d="M21.1,7.2L14,0.1c-0.2-0.2-0.5-0.2-0.7,0L6.2,7.2L14,15c0,0,0,0,0,0l7.1-7.1C21.3,7.7,21.3,7.4,21.1,7.2z"/>
	</g>
</g>
<g id="Outline_Icons">
	<g>
		<path class="st2" d="M2.5,22.5c0,0.6-0.4,1-1,1c-0.6,0-1-0.4-1-1c0-0.6,1-2,1-2S2.5,21.9,2.5,22.5z"/>
		<polygon class="st2" points="20.7,7.6 13.7,0.5 6.2,7.9 6.6,11.8 2,18.5 2.7,19.2 9.4,14.6 13.3,15 		"/>
		<line class="st2" x1="13.3" y1="15" x2="6.2" y2="7.9"/>
		<line class="st2" x1="9.4" y1="14.6" x2="6.6" y2="11.8"/>
	</g>
</g>
</svg>
