<?xml version="1.0" encoding="utf-8"?>
<!-- Generator: Adobe Illustrator 19.2.0, SVG Export Plug-In . SVG Version: 6.00 Build 0)  -->
<svg version="1.1" id="Layer_1" xmlns="http://www.w3.org/2000/svg" xmlns:xlink="http://www.w3.org/1999/xlink" x="0px" y="0px"
	 viewBox="0 0 24 24" enable-background="new 0 0 24 24" xml:space="preserve">
<g id="Filled_Icons" display="none">
	<g display="inline">
		<path d="M16.157,2.181c0.48-0.48,1.064-0.822,1.698-1.007C16.889,0.5,15.91,0.156,14.937,0.156c-1.115,0-2.16,0.454-3.021,1.318
			L1.308,12.081c-1.371,1.37-1.952,3.733-0.304,5.958c0.181-0.629,0.518-1.223,1.012-1.717L16.157,2.181z"/>
		<path d="M22.825,6.125c-0.183,0.627-0.519,1.22-1.011,1.714L7.672,21.981c-0.487,0.488-1.079,0.832-1.724,1.017
			c0.866,0.659,1.832,1.009,2.835,1.009c1.169,0,2.281-0.467,3.133-1.316l10.605-10.608C23.93,10.674,24.478,8.361,22.825,6.125z"/>
		<path d="M21.107,7.131c1.168-1.17,1.168-3.073,0-4.243c-0.566-0.566-1.32-0.879-2.121-0.879c-0.803,0-1.557,0.313-2.123,0.879
			L2.723,17.029c-1.17,1.172-1.17,3.074,0,4.246c0.566,0.564,1.32,0.877,2.121,0.877c0.801,0,1.555-0.312,2.121-0.877L21.107,7.131z
			 M5.197,18.799c-0.095-0.096-0.22-0.148-0.354-0.148c-0.134,0-0.259,0.053-0.354,0.146c-0.095,0.094-0.146,0.221-0.146,0.354
			c0,0.134,0.052,0.26,0.146,0.354c0.195,0.196,0.195,0.513-0.001,0.708c-0.098,0.096-0.225,0.146-0.353,0.146
			c-0.129,0-0.257-0.051-0.354-0.148c-0.283-0.282-0.438-0.661-0.438-1.061c0-0.399,0.156-0.777,0.439-1.06
			c0.282-0.282,0.659-0.44,1.061-0.44h0.001c0.401,0,0.777,0.158,1.061,0.441c0.193,0.193,0.512,0.193,0.707-0.001
			c0.193-0.194,0.193-0.513-0.001-0.709c-0.282-0.28-0.439-0.655-0.439-1.058c0-0.401,0.156-0.778,0.44-1.062
			c0.583-0.584,1.535-0.584,2.12,0c0.19,0.191,0.519,0.189,0.707,0c0.096-0.095,0.147-0.22,0.147-0.352
			c0-0.134-0.052-0.259-0.146-0.353c-0.585-0.588-0.585-1.539,0-2.122c0.282-0.283,0.658-0.439,1.059-0.44H10.5
			c0.401,0,0.778,0.157,1.062,0.44c0.189,0.188,0.518,0.188,0.707,0c0.095-0.095,0.146-0.221,0.146-0.354
			c0-0.133-0.052-0.259-0.146-0.354c-0.585-0.586-0.584-1.538,0-2.122c0.584-0.584,1.536-0.584,2.122,0
			c0.094,0.095,0.219,0.146,0.353,0.146c0.134,0,0.259-0.05,0.354-0.145c0.194-0.196,0.194-0.514,0-0.709
			c-0.584-0.584-0.584-1.533,0-2.119c0.564-0.567,1.553-0.568,2.12-0.001c0.195,0.195,0.513,0.195,0.707,0
			c0.097-0.093,0.147-0.219,0.147-0.354c-0.002-0.133-0.053-0.259-0.147-0.352c-0.584-0.587-0.584-1.54,0-2.124
			c0.585-0.584,1.537-0.582,2.122,0.002c0.194,0.195,0.194,0.511,0,0.706c-0.195,0.196-0.512,0.196-0.707,0
			c-0.195-0.195-0.514-0.194-0.709,0c-0.193,0.194-0.193,0.512,0.002,0.708c0.282,0.281,0.438,0.659,0.439,1.058
			c0,0.402-0.156,0.78-0.439,1.063c-0.585,0.584-1.535,0.584-2.121,0c-0.189-0.187-0.52-0.189-0.707,0
			c-0.193,0.195-0.193,0.512,0,0.706c0.584,0.586,0.584,1.539,0,2.123c-0.281,0.283-0.658,0.438-1.06,0.438h-0.001
			c-0.401,0-0.778-0.155-1.062-0.438c-0.195-0.195-0.512-0.195-0.707,0c-0.195,0.194-0.193,0.512,0,0.707
			c0.283,0.281,0.439,0.658,0.439,1.059c0,0.402-0.156,0.777-0.439,1.062c-0.585,0.586-1.536,0.586-2.121,0
			c-0.095-0.094-0.221-0.147-0.354-0.147c-0.133,0-0.259,0.053-0.353,0.147c-0.195,0.194-0.195,0.514,0,0.709
			c0.283,0.281,0.439,0.658,0.439,1.06c0,0.399-0.156,0.778-0.44,1.059c-0.564,0.567-1.555,0.567-2.121,0
			c-0.194-0.193-0.512-0.193-0.706,0c-0.096,0.096-0.147,0.221-0.147,0.354c0,0.134,0.052,0.258,0.146,0.352
			c0.583,0.587,0.583,1.538,0.002,2.122C6.733,19.382,5.781,19.382,5.197,18.799z"/>
	</g>
</g>
<g id="Outline_Icons">
	<g>
		<path fill="none" stroke="#000000" stroke-linecap="round" stroke-linejoin="round" stroke-miterlimit="10" d="M19.701,4.302
			c-0.391-0.391-1.024-0.391-1.415-0.001c-0.39,0.39-0.39,1.022,0,1.414c0.392,0.39,0.392,1.023,0.001,1.414
			c-0.391,0.391-1.023,0.391-1.414,0c-0.393-0.391-1.023-0.391-1.414,0c-0.391,0.391-0.391,1.023,0,1.413
			c0.391,0.392,0.391,1.025,0,1.415c-0.391,0.391-1.024,0.391-1.415,0c-0.392-0.391-1.022-0.391-1.414,0
			c-0.391,0.391-0.391,1.022,0,1.414c0.392,0.39,0.392,1.023,0,1.414c-0.391,0.392-1.023,0.392-1.414,0
			c-0.391-0.391-1.024-0.391-1.414,0c-0.391,0.392-0.391,1.023,0,1.415c0.391,0.39,0.391,1.023,0,1.412
			c-0.391,0.393-1.023,0.393-1.414,0c-0.391-0.389-1.024-0.389-1.414,0c-0.392,0.392-0.392,1.025,0,1.414
			c0.39,0.393,0.39,1.024,0,1.416c-0.391,0.39-1.024,0.39-1.415,0c-0.39-0.393-1.023-0.393-1.414,0c-0.391,0.39-0.391,1.021,0,1.414
			"/>
		<path fill="none" stroke="#000000" stroke-linecap="round" stroke-linejoin="round" stroke-miterlimit="10" d="M2.73,17.027
			c-1.172,1.174-1.172,3.072,0,4.244c1.172,1.172,3.071,1.172,4.242,0L21.115,7.13c1.171-1.172,1.171-3.071,0-4.243
			c-1.172-1.171-3.071-1.171-4.243,0L2.73,17.027z"/>
		<path fill="none" stroke="#000000" stroke-linejoin="round" stroke-miterlimit="10" d="M21.893,5.776
			c2.073,2.15,1.707,4.527,0.283,5.95L11.57,22.333c-1.438,1.439-3.921,1.783-5.937-0.286"/>
		<path fill="none" stroke="#000000" stroke-linecap="round" stroke-linejoin="round" stroke-miterlimit="10" d="M1.953,18.38
			c-2.077-2.124-1.703-4.528-0.283-5.946L12.277,1.826c1.409-1.41,3.577-1.809,5.974,0.275"/>
	</g>
</g>
</svg>
