<?xml version="1.0" encoding="utf-8"?>
<!-- Generator: Adobe Illustrator 19.2.0, SVG Export Plug-In . SVG Version: 6.00 Build 0)  -->
<svg version="1.1" id="Outline_Icons" xmlns="http://www.w3.org/2000/svg" xmlns:xlink="http://www.w3.org/1999/xlink" x="0px"
	 y="0px" viewBox="0 0 24 24" style="enable-background:new 0 0 24 24;" xml:space="preserve">
<style type="text/css">
	.st0{fill:none;stroke:#000000;stroke-linecap:round;stroke-linejoin:round;stroke-miterlimit:10;}
	.st1{fill:none;stroke:#000000;stroke-linejoin:round;stroke-miterlimit:10;}
</style>
<g>
	<line class="st0" x1="21" y1="23.5" x2="3" y2="23.5"/>
	<rect x="8.5" y="13.5" class="st0" width="7" height="10"/>
	<polygon class="st0" points="12,8.5 14.5,13.5 9.5,13.5 	"/>
	<polygon class="st1" points="12,0.5 13,2.5 15,2.5 13.4,3.7 14,6 12,4.5 10,6 10.8,3.7 9,2.5 11,2.5 	"/>
	<polygon class="st1" points="19.5,4.5 20.5,6.5 22.5,6.5 20.9,7.7 21.5,10 19.5,8.5 17.5,10 18.3,7.7 16.5,6.5 18.5,6.5 	"/>
	<polygon class="st1" points="20.5,12.5 21.5,14.5 23.5,14.5 21.9,15.7 22.5,18 20.5,16.5 18.5,18 19.3,15.7 17.5,14.5 19.5,14.5 	
		"/>
	<polygon class="st1" points="3.5,12.5 4.5,14.5 6.5,14.5 4.9,15.7 5.5,18 3.5,16.5 1.5,18 2.3,15.7 0.5,14.5 2.5,14.5 	"/>
	<polygon class="st1" points="4.5,4.5 5.5,6.5 7.5,6.5 5.9,7.7 6.5,10 4.5,8.5 2.5,10 3.3,7.7 1.5,6.5 3.5,6.5 	"/>
	<polyline class="st0" points="10.5,23.5 10.5,20.5 13.5,20.5 13.5,23.5 	"/>
	<line class="st0" x1="10.5" y1="15.5" x2="10.5" y2="16"/>
	<g>
		<line class="st0" x1="13.5" y1="15.5" x2="13.5" y2="16"/>
	</g>
	<line class="st0" x1="10.5" y1="18" x2="10.5" y2="18.5"/>
	<line class="st0" x1="13.5" y1="18" x2="13.5" y2="18.5"/>
</g>
</svg>
