<?xml version="1.0" encoding="utf-8"?>
<!-- Generator: Adobe Illustrator 19.2.0, SVG Export Plug-In . SVG Version: 6.00 Build 0)  -->
<svg version="1.1" id="Layer_1" xmlns="http://www.w3.org/2000/svg" xmlns:xlink="http://www.w3.org/1999/xlink" x="0px" y="0px"
	 viewBox="0 0 24 24" style="enable-background:new 0 0 24 24;" xml:space="preserve">
<style type="text/css">
	.st0{display:none;}
	.st1{display:inline;}
	.st2{fill:none;stroke:#000000;stroke-linecap:round;stroke-linejoin:round;stroke-miterlimit:10;}
</style>
<g id="Filled_Icons" class="st0">
	<path class="st1" d="M21,23h-1.2L15,12l4.8-11H21c0.3,0,0.5-0.2,0.5-0.5C21.5,0.2,21.3,0,21,0h-1.5c0,0,0,0,0,0h-15c0,0,0,0,0,0H3
		C2.7,0,2.5,0.2,2.5,0.5C2.5,0.8,2.7,1,3,1h1.2L9,12L4.2,23H3c-0.3,0-0.5,0.2-0.5,0.5C2.5,23.8,2.7,24,3,24h1.5h15H21
		c0.3,0,0.5-0.2,0.5-0.5C21.5,23.2,21.3,23,21,23z M9.1,5.2C9.2,5.1,9.3,5,9.5,5h5c0.2,0,0.3,0.1,0.4,0.2C15,5.4,15,5.6,15,5.7
		l-2.5,5.5c-0.1,0.2-0.3,0.3-0.5,0.3c-0.2,0-0.4-0.1-0.5-0.3L9,5.7C9,5.6,9,5.4,9.1,5.2z M16,22C16,22,16,22,16,22H8
		c-0.2,0-0.3-0.1-0.4-0.3c-0.1-0.2-0.1-0.4,0-0.5l4-6.5c0.2-0.3,0.7-0.3,0.9,0l4,6.4c0.1,0.1,0.1,0.2,0.1,0.3
		C16.5,21.8,16.3,22,16,22z"/>
</g>
<g id="Outline_Icons">
	<g>
		<polyline class="st2" points="19.5,0.5 14.5,12 19.5,23.5 4.5,23.5 9.5,12 4.5,0.5 		"/>
		<polygon class="st2" points="9.5,5.5 14.5,5.5 12,11 		"/>
		<polygon class="st2" points="16,21.5 8,21.5 12,15 		"/>
		<line class="st2" x1="3" y1="0.5" x2="21" y2="0.5"/>
		<line class="st2" x1="3" y1="23.5" x2="21" y2="23.5"/>
	</g>
</g>
</svg>
