<?xml version="1.0" encoding="utf-8"?>
<!-- Generator: Adobe Illustrator 19.2.0, SVG Export Plug-In . SVG Version: 6.00 Build 0)  -->
<svg version="1.1" id="Layer_1" xmlns="http://www.w3.org/2000/svg" xmlns:xlink="http://www.w3.org/1999/xlink" x="0px" y="0px"
	 viewBox="0 0 24 24" style="enable-background:new 0 0 24 24;" xml:space="preserve">
<style type="text/css">
	.st0{display:none;}
	.st1{display:inline;}
	.st2{fill:none;stroke:#000000;stroke-linecap:round;stroke-linejoin:round;stroke-miterlimit:10;}
</style>
<g id="Filled_Icons" class="st0">
	<path class="st1" d="M20.5,23H19v-3.5v-1c0-2.9-1.8-5.5-4.4-6.5c2.3-0.9,4.4-3.4,4.4-6.5V1h1.5C20.8,1,21,0.8,21,0.5
		C21,0.2,20.8,0,20.5,0h-2h-13h-2C3.2,0,3,0.2,3,0.5C3,0.8,3.2,1,3.5,1H5v4.5c0,3.2,2.1,5.6,4.4,6.5C6.8,13,5,15.6,5,18.5v1V23H3.5
		C3.2,23,3,23.2,3,23.5C3,23.8,3.2,24,3.5,24h2h13h2c0.3,0,0.5-0.2,0.5-0.5C21,23.2,20.8,23,20.5,23z M7.1,9C6.4,8,6,6.8,6,5.5V1h12
		v4.5C18,6.8,17.6,8,16.9,9H7.1z M18,19h-2.8l-2.9-2.9c-0.2-0.2-0.5-0.2-0.7,0L8.8,19H6v-0.5c0-3.3,2.7-6,6-6c3.3,0,6,2.7,6,6V19z"
		/>
</g>
<g id="Outline_Icons">
	<g>
		<path class="st2" d="M18.5,5.5c0,3.6-2.9,6.5-6.5,6.5c-3.6,0-6.5-2.9-6.5-6.5v-5h13V5.5z"/>
		<path class="st2" d="M18.5,18.5c0-3.6-2.9-6.5-6.5-6.5c-3.6,0-6.5,2.9-6.5,6.5v5h13V18.5z"/>
		<line class="st2" x1="3.5" y1="0.5" x2="20.5" y2="0.5"/>
		<line class="st2" x1="3.5" y1="23.5" x2="20.5" y2="23.5"/>
		<polyline class="st2" points="5.5,19.5 9,19.5 12,16.5 15,19.5 18.5,19.5 		"/>
		<line class="st2" x1="6.9" y1="9.5" x2="17.1" y2="9.5"/>
	</g>
</g>
</svg>
