<?xml version="1.0" encoding="utf-8"?>
<!-- Generator: Adobe Illustrator 19.2.0, SVG Export Plug-In . SVG Version: 6.00 Build 0)  -->
<svg version="1.1" id="Outline_Icons" xmlns="http://www.w3.org/2000/svg" xmlns:xlink="http://www.w3.org/1999/xlink" x="0px"
	 y="0px" viewBox="0 0 24 24" style="enable-background:new 0 0 24 24;" xml:space="preserve">
<style type="text/css">
	.st0{fill:none;stroke:#000000;stroke-linecap:round;stroke-linejoin:round;stroke-miterlimit:10;}
</style>
<g>
	<polyline class="st0" points="3.5,12.5 3.5,23.5 14.5,23.5 	"/>
	<polyline class="st0" points="0.5,12 12,1.5 23.5,12 	"/>
	<polyline class="st0" points="16,2.5 19.5,2.5 19.5,6 	"/>
	<rect x="10.5" y="6.5" class="st0" width="3" height="3"/>
	<path class="st0" d="M19,15c1.4,0,2.5,1.1,2.5,2.5c0,1.4-1.1,2.5-2.5,2.5c-1.4,0-2.5-1.1-2.5-2.5C16.5,16.1,17.6,15,19,15z"/>
	<line class="st0" x1="16.5" y1="17.5" x2="10" y2="17.5"/>
	<line class="st0" x1="11.5" y1="21.4" x2="11.5" y2="17.5"/>
	<line class="st0" x1="13.5" y1="20.4" x2="13.5" y2="17.5"/>
</g>
</svg>
