<?xml version="1.0" encoding="utf-8"?>
<!-- Generator: Adobe Illustrator 19.2.0, SVG Export Plug-In . SVG Version: 6.00 Build 0)  -->
<svg version="1.1" id="Layer_1" xmlns="http://www.w3.org/2000/svg" xmlns:xlink="http://www.w3.org/1999/xlink" x="0px" y="0px"
	 viewBox="0 0 24 24" style="enable-background:new 0 0 24 24;" xml:space="preserve">
<style type="text/css">
	.st0{display:none;}
	.st1{display:inline;}
	.st2{fill:none;stroke:#000000;stroke-linecap:round;stroke-linejoin:round;stroke-miterlimit:10;}
</style>
<g id="Filled_Icons" class="st0">
	<g class="st1">
		<g>
			<path d="M20,6.8V2.5C20,2.2,19.8,2,19.5,2h-4.7L20,6.8z"/>
		</g>
		<g>
			<g>
				<path d="M23.5,12.5c-0.1,0-0.2,0-0.3-0.1L12,2.2L0.8,12.4c-0.2,0.2-0.5,0.2-0.7,0c-0.2-0.2-0.2-0.5,0-0.7L11.7,1.1
					c0.2-0.2,0.5-0.2,0.7,0l11.5,10.5c0.2,0.2,0.2,0.5,0,0.7C23.8,12.5,23.6,12.5,23.5,12.5z"/>
			</g>
		</g>
		<path d="M14.1,20.7c0-0.1-0.1-0.3-0.1-0.4v-5.9c0-0.6,0.3-1.1,0.8-1.3c0.5-0.3,1.1-0.2,1.6,0.1c0.6,0.4,0.9,0.5,1.1,0.5
			c0.3,0,0.6-0.1,0.8-0.4c0.6-0.7,1.8-0.7,2.4,0c0.1,0.1,0.2,0.2,0.3,0.3v-1.8l-9-8.2l-9,8.2v11.8C3,23.8,3.2,24,3.5,24H17
			C14.7,22.7,14.1,21,14.1,20.7z M13.5,9.5c0,0.3-0.2,0.5-0.5,0.5h-2c-0.3,0-0.5-0.2-0.5-0.5v-2C10.5,7.2,10.7,7,11,7h2
			c0.3,0,0.5,0.2,0.5,0.5V9.5z"/>
		<path d="M23.7,14c-0.2-0.1-0.4-0.1-0.5,0c-0.7,0.5-1.2,0.7-1.7,0.7c-0.6,0-1.2-0.3-1.6-0.8c-0.2-0.2-0.6-0.2-0.8,0
			c-0.4,0.5-1,0.8-1.6,0.8c-0.5,0-1.1-0.2-1.7-0.7c-0.2-0.1-0.4-0.1-0.5,0C15.1,14,15,14.2,15,14.4v5.9c0,0,0,0.1,0,0.1
			c0,0.1,0.7,2.4,4.3,3.4c0,0,0.1,0,0.1,0c0,0,0.1,0,0.1,0c3.7-1,4.3-3.3,4.3-3.4c0,0,0-0.1,0-0.1v-5.9C24,14.2,23.9,14,23.7,14z
			 M21.5,19H20v1.5c0,0.3-0.2,0.5-0.5,0.5c-0.3,0-0.5-0.2-0.5-0.5V19h-1.5c-0.3,0-0.5-0.2-0.5-0.5c0-0.3,0.2-0.5,0.5-0.5H19v-1.5
			c0-0.3,0.2-0.5,0.5-0.5c0.3,0,0.5,0.2,0.5,0.5V18h1.5c0.3,0,0.5,0.2,0.5,0.5C22,18.8,21.8,19,21.5,19z"/>
	</g>
</g>
<g id="Outline_Icons">
	<g>
		<polyline class="st2" points="3.5,12.5 3.5,23.5 14.5,23.5 		"/>
		<polyline class="st2" points="0.5,12 12,1.5 23.5,12 		"/>
		<polyline class="st2" points="16,2.5 19.5,2.5 19.5,6 		"/>
		<rect x="10.5" y="6.5" class="st2" width="3" height="3"/>
		<path class="st2" d="M21.5,15.1c-0.8,0-1.5-0.4-2-1h0c-0.5,0.6-1.2,1-2,1c-0.7,0-1.3-0.3-2-0.8v5.9c0,0,0.6,2.1,4,3.1
			c3.4-1,4-3.1,4-3.1v-5.9C22.8,14.9,22.2,15.1,21.5,15.1z"/>
		<line class="st2" x1="19.5" y1="20.5" x2="19.5" y2="16.5"/>
		<line class="st2" x1="17.5" y1="18.5" x2="21.5" y2="18.5"/>
	</g>
</g>
</svg>
