<?xml version="1.0" encoding="utf-8"?>
<!-- Generator: Adobe Illustrator 19.2.0, SVG Export Plug-In . SVG Version: 6.00 Build 0)  -->
<svg version="1.1" id="Layer_1" xmlns="http://www.w3.org/2000/svg" xmlns:xlink="http://www.w3.org/1999/xlink" x="0px" y="0px"
	 viewBox="0 0 24 24" style="enable-background:new 0 0 24 24;" xml:space="preserve">
<style type="text/css">
	.st0{display:none;}
	.st1{display:inline;}
	.st2{fill:none;stroke:#000000;stroke-linecap:round;stroke-linejoin:round;stroke-miterlimit:10;}
</style>
<g id="Filled_Icons" class="st0">
	<g class="st1">
		<g>
			<path d="M20,6.8V2.5C20,2.2,19.8,2,19.5,2h-4.7L20,6.8z"/>
		</g>
		<g>
			<g>
				<path d="M23.5,12.5c-0.1,0-0.2,0-0.3-0.1L12,2.2L0.8,12.4c-0.2,0.2-0.5,0.2-0.7,0c-0.2-0.2-0.2-0.5,0-0.7L11.7,1.1
					c0.2-0.2,0.5-0.2,0.7,0l11.5,10.5c0.2,0.2,0.2,0.5,0,0.7C23.8,12.5,23.6,12.5,23.5,12.5z"/>
			</g>
		</g>
		<g>
			<path d="M12.5,16.5c0-3,2.5-5.5,5.5-5.5c1.1,0,2.1,0.3,3,0.9v-0.1l-9-8.2l-9,8.2v11.8C3,23.8,3.2,24,3.5,24h13
				C15.2,22.4,12.5,18.8,12.5,16.5z M10.5,9.5v-2C10.5,7.2,10.7,7,11,7h2c0.3,0,0.5,0.2,0.5,0.5v2c0,0.3-0.2,0.5-0.5,0.5h-2
				C10.7,10,10.5,9.8,10.5,9.5z"/>
		</g>
		<path d="M18,12c-2.5,0-4.5,2-4.5,4.5c0,2.3,3.7,6.8,4.1,7.3c0.1,0.1,0.2,0.2,0.4,0.2c0.1,0,0.3-0.1,0.4-0.2c0.4-0.5,4.1-5,4.1-7.3
			C22.5,14,20.5,12,18,12z M18,18.5c-1.1,0-2-0.9-2-2c0-1.1,0.9-2,2-2c1.1,0,2,0.9,2,2C20,17.6,19.1,18.5,18,18.5z"/>
	</g>
</g>
<g id="Outline_Icons">
	<g>
		<polyline class="st2" points="3.5,12.5 3.5,23.5 13.5,23.5 		"/>
		<polyline class="st2" points="0.5,12 12,1.5 23.5,12 		"/>
		<polyline class="st2" points="16,2.5 19.5,2.5 19.5,6 		"/>
		<rect x="10.5" y="6.5" class="st2" width="3" height="3"/>
		<path class="st2" d="M22,16.5c0,2.2-4,7-4,7s-4-4.8-4-7c0-2.2,1.8-4,4-4C20.2,12.5,22,14.3,22,16.5z"/>
		<circle class="st2" cx="18" cy="16.5" r="1.5"/>
	</g>
</g>
</svg>
