<?xml version="1.0" encoding="utf-8"?>
<!-- Generator: Adobe Illustrator 19.2.0, SVG Export Plug-In . SVG Version: 6.00 Build 0)  -->
<svg version="1.1" id="Outline_Icons" xmlns="http://www.w3.org/2000/svg" xmlns:xlink="http://www.w3.org/1999/xlink" x="0px"
	 y="0px" viewBox="0 0 24 24" style="enable-background:new 0 0 24 24;" xml:space="preserve">
<style type="text/css">
	.st0{fill:none;stroke:#000000;stroke-linecap:round;stroke-linejoin:round;stroke-miterlimit:10;}
</style>
<g>
	<g>
		<g>
			<polyline class="st0" points="3.5,12.5 3.5,23.5 20.5,23.5 			"/>
			<polyline class="st0" points="0.5,12 12,1.5 23.5,12 			"/>
			<polyline class="st0" points="16,2.5 19.5,2.5 19.5,6 			"/>
			<rect x="10.5" y="6.5" class="st0" width="3" height="3"/>
		</g>
	</g>
	<g>
		<g>
			<polyline class="st0" points="20.2,18.5 18.5,18.5 18.5,14.5 20.2,14.5 			"/>
			<line class="st0" x1="18.5" y1="16.5" x2="19.7" y2="16.5"/>
		</g>
		<g>
			<polyline class="st0" points="13.5,18.5 12.4,14.5 11.3,18.5 			"/>
			<line class="st0" x1="11.6" y1="17.5" x2="13.3" y2="17.5"/>
		</g>
		<polyline class="st0" points="17,18.5 15.5,18.5 15.5,14.5 		"/>
		<path class="st0" d="M8,17.6c0,0.5,0.4,0.9,0.9,0.9c0.5,0,0.9-0.4,0.9-1c0-0.8-0.8-1-0.9-1c-0.2,0-0.9-0.2-0.9-1
			c0-0.6,0.4-1,0.9-1c0.5,0,0.9,0.4,0.9,0.9"/>
	</g>
</g>
</svg>
