<?xml version="1.0" encoding="utf-8"?>
<!-- Generator: Adobe Illustrator 19.2.0, SVG Export Plug-In . SVG Version: 6.00 Build 0)  -->
<svg version="1.1" id="Outline_Icons" xmlns="http://www.w3.org/2000/svg" xmlns:xlink="http://www.w3.org/1999/xlink" x="0px"
	 y="0px" viewBox="0 0 24 24" style="enable-background:new 0 0 24 24;" xml:space="preserve">
<style type="text/css">
	.st0{fill:none;stroke:#000000;stroke-linecap:round;stroke-linejoin:round;stroke-miterlimit:10;}
</style>
<g>
	<g>
		<g>
			<polyline class="st0" points="3.5,12.5 3.5,23.5 20.5,23.5 			"/>
			<polyline class="st0" points="0.5,12 12,1.5 23.5,12 			"/>
			<polyline class="st0" points="16,2.5 19.5,2.5 19.5,6 			"/>
			<rect x="10.5" y="6.5" class="st0" width="3" height="3"/>
		</g>
	</g>
	<g>
		<polyline class="st0" points="13.2,19.4 11.5,19.4 11.5,15.5 13.2,15.5 		"/>
		<line class="st0" x1="11.5" y1="17.5" x2="12.7" y2="17.5"/>
	</g>
	<polyline class="st0" points="15.5,19.4 15.5,15.5 17.5,19.4 17.5,15.5 	"/>
	<g>
		<path class="st0" d="M7.5,19.4v-3.9h0.9c0.8,0,0.9,0.4,0.9,1c0,0.5-0.1,1-0.9,1H7.5"/>
		<line class="st0" x1="8.4" y1="17.5" x2="9.4" y2="19.4"/>
	</g>
	<g>
		<line class="st0" x1="19.5" y1="19.4" x2="19.5" y2="15.5"/>
		<line class="st0" x1="18.5" y1="15.5" x2="20.4" y2="15.5"/>
	</g>
</g>
</svg>
