<?xml version="1.0" encoding="utf-8"?>
<!-- Generator: Adobe Illustrator 19.2.0, SVG Export Plug-In . SVG Version: 6.00 Build 0)  -->
<svg version="1.1" id="Layer_1" xmlns="http://www.w3.org/2000/svg" xmlns:xlink="http://www.w3.org/1999/xlink" x="0px" y="0px"
	 viewBox="0 0 24 24" style="enable-background:new 0 0 24 24;" xml:space="preserve">
<style type="text/css">
	.st0{display:none;}
	.st1{display:inline;}
	.st2{fill:none;stroke:#000000;stroke-linejoin:round;stroke-miterlimit:10;}
	.st3{fill:none;stroke:#000000;stroke-linecap:round;stroke-linejoin:round;stroke-miterlimit:10;}
</style>
<g id="Filled_Icons" class="st0">
	<g class="st1">
		<path d="M23.9,23.2l-9-9c1.3-1.5,2.2-3.5,2.2-5.6C17,3.8,13.2,0,8.5,0C3.8,0,0,3.8,0,8.5C0,13.2,3.8,17,8.5,17
			c2.2,0,4.1-0.8,5.6-2.2l9,9c0.1,0.1,0.2,0.1,0.4,0.1c0.1,0,0.3,0,0.4-0.1C24,23.7,24,23.3,23.9,23.2z M1,8.5C1,4.4,4.4,1,8.5,1
			C12.6,1,16,4.4,16,8.5c0,4.1-3.4,7.5-7.5,7.5C4.4,16,1,12.6,1,8.5z"/>
		<g>
			<path d="M8.5,5.5L5,8.7v3.8C5,12.8,5.2,13,5.5,13h6c0.3,0,0.5-0.2,0.5-0.5V8.7L8.5,5.5z"/>
		</g>
		<g>
			<path d="M13.5,8.5c-0.1,0-0.2,0-0.3-0.1L8.5,4.1L3.9,8.4c-0.2,0.2-0.5,0.2-0.7,0C3,8.1,3,7.8,3.2,7.6l5-4.6
				c0.2-0.2,0.5-0.2,0.7,0l4.9,4.6c0.2,0.2,0.2,0.5,0,0.7C13.7,8.5,13.6,8.5,13.5,8.5z"/>
		</g>
	</g>
</g>
<g id="Outline_Icons">
	<g>
		<circle class="st2" cx="8.5" cy="8.5" r="8"/>
		<line class="st3" x1="14.2" y1="14.2" x2="23.5" y2="23.5"/>
		<polyline class="st3" points="11.5,8 11.5,12.5 5.5,12.5 5.5,8 		"/>
		<polyline class="st3" points="3.5,8 8.5,3.4 13.5,8 		"/>
	</g>
</g>
</svg>
