<?xml version="1.0" encoding="utf-8"?>
<!-- Generator: Adobe Illustrator 19.2.0, SVG Export Plug-In . SVG Version: 6.00 Build 0)  -->
<svg version="1.1" id="Layer_1" xmlns="http://www.w3.org/2000/svg" xmlns:xlink="http://www.w3.org/1999/xlink" x="0px" y="0px"
	 viewBox="0 0 24 24" style="enable-background:new 0 0 24 24;" xml:space="preserve">
<style type="text/css">
	.st0{display:none;}
	.st1{display:inline;}
	.st2{fill:none;stroke:#000000;stroke-linecap:round;stroke-linejoin:round;stroke-miterlimit:10;}
	.st3{fill:none;stroke:#000000;stroke-linejoin:round;stroke-miterlimit:10;}
</style>
<g id="Filled_Icons" class="st0">
	<g class="st1">
		<g>
			<path d="M20.5,7.5c-0.1,0-0.2,0-0.3-0.1L13,1.2L5.8,7.4C5.6,7.6,5.3,7.5,5.1,7.3C4.9,7.1,5,6.8,5.2,6.6l7.5-6.5
				c0.2-0.2,0.5-0.2,0.7,0l7.5,6.5c0.2,0.2,0.2,0.5,0.1,0.7C20.8,7.4,20.6,7.5,20.5,7.5z"/>
		</g>
		<path d="M13,2.5L8,6.8v6.7C8,13.8,8.2,14,8.5,14H11V9.5C11,9.2,11.2,9,11.5,9h3c0.1,0,0.3,0.1,0.4,0.1C14.9,9.2,15,9.4,15,9.5V14
			h2.5c0.3,0,0.5-0.2,0.5-0.5V6.8L13,2.5z"/>
		<g>
			<path d="M4,14H0.5C0.2,14,0,14.2,0,14.5v8C0,22.8,0.2,23,0.5,23H4c0.3,0,0.5-0.2,0.5-0.5v-8C4.5,14.2,4.3,14,4,14z"/>
			<path d="M23.9,18.2c-1.2-1.2-2.2-1.5-3.5-1.1l-3,1c0,0.2,0,0.3,0,0.5c0,0.6-0.2,1.2-0.6,1.7C16.4,20.7,15.7,21,15,21h-5
				c-0.3,0-0.5-0.2-0.5-0.5c0-0.3,0.2-0.5,0.5-0.5h5c0.4,0,0.8-0.2,1-0.4c0.2-0.3,0.4-0.7,0.4-1.1c0-0.6-0.3-1.5-1.4-1.5h-2.8H12
				c-0.1,0-0.3-0.1-0.4-0.1C11.2,16.4,9.8,15,7.5,15H6c-0.3,0-0.5,0.2-0.5,0.5V21c0,0.2,0.1,0.4,0.3,0.5c1.6,0.5,2.8,1,3.8,1.3
				c1.9,0.7,3,1.1,4,1.1c1.1,0,2.1-0.5,4.2-1.7c1.4-0.8,3.2-1.8,6-3.2c0.1-0.1,0.2-0.2,0.3-0.4C24,18.4,24,18.3,23.9,18.2z"/>
		</g>
		<path d="M18,2.9V0.5C18,0.2,17.8,0,17.5,0h-2.8L18,2.9z"/>
	</g>
</g>
<g id="Outline_Icons">
	<g>
		<polyline class="st2" points="8.5,8.5 8.5,13.5 17.5,13.5 17.5,8.5 		"/>
		<polyline class="st2" points="5.5,7 13,0.5 20.5,7 		"/>
		<polyline class="st2" points="16,0.5 18.5,0.5 18.5,3 		"/>
		<rect x="0.5" y="14.5" class="st3" width="4" height="8"/>
		<path class="st2" d="M4.5,21.1c10.5,3.5,7,3.5,19-2.5c-1.1-1.1-1.9-1.3-3-1l-4.3,1.4"/>
		<path class="st2" d="M4.5,15.5h3c2.4,0,4,2,4.5,2c0,0,1.5,0,3.5,0c1,0,1,2,0,2H10"/>
		<rect x="11.5" y="9.5" class="st2" width="3" height="4"/>
	</g>
</g>
</svg>
