<?xml version="1.0" encoding="utf-8"?>
<!-- Generator: Adobe Illustrator 19.2.0, SVG Export Plug-In . SVG Version: 6.00 Build 0)  -->
<svg version="1.1" id="Layer_1" xmlns="http://www.w3.org/2000/svg" xmlns:xlink="http://www.w3.org/1999/xlink" x="0px" y="0px"
	 viewBox="0 0 24 24" style="enable-background:new 0 0 24 24;" xml:space="preserve">
<style type="text/css">
	.st0{display:none;}
	.st1{display:inline;}
	.st2{fill:none;stroke:#000000;stroke-linecap:round;stroke-linejoin:round;stroke-miterlimit:10;}
</style>
<g id="Filled_Icons" class="st0">
	<g class="st1">
		<path d="M5.5,2C5.2,2,5,2.2,5,2.5C5,2.8,5.2,3,5.5,3h15C20.8,3,21,2.8,21,2.5C21,2.2,20.8,2,20.5,2H5.5z"/>
		<path d="M2.5,8h2C4.8,8,5,7.8,5,7.5C5,7.2,4.8,7,4.5,7h-2C2.2,7,2,7.2,2,7.5C2,7.8,2.2,8,2.5,8z"/>
		<path d="M2.5,12h2C4.8,12,5,11.8,5,11.5C5,11.2,4.8,11,4.5,11h-2C2.2,11,2,11.2,2,11.5C2,11.8,2.2,12,2.5,12z"/>
		<path d="M2.5,16h2C4.8,16,5,15.8,5,15.5C5,15.2,4.8,15,4.5,15h-2C2.2,15,2,15.2,2,15.5C2,15.8,2.2,16,2.5,16z"/>
		<path d="M5,19.5C5,19.2,4.8,19,4.5,19h-2C2.2,19,2,19.2,2,19.5C2,19.8,2.2,20,2.5,20h2C4.8,20,5,19.8,5,19.5z"/>
		<path d="M21.5,4h-16C4.7,4,4,3.3,4,2.5C4,1.7,4.7,1,5.5,1h16C21.8,1,22,0.8,22,0.5C22,0.2,21.8,0,21.5,0h-16C4.1,0,3,1.1,3,2.5V6
			h1.5C5.3,6,6,6.7,6,7.5C6,8.3,5.3,9,4.5,9H3v1h1.5C5.3,10,6,10.7,6,11.5C6,12.3,5.3,13,4.5,13H3v1h1.5C5.3,14,6,14.7,6,15.5
			C6,16.3,5.3,17,4.5,17H3v1h1.5C5.3,18,6,18.7,6,19.5C6,20.3,5.3,21,4.5,21H3v0.5C3,22.9,4.1,24,5.5,24h16c0.3,0,0.5-0.2,0.5-0.5
			v-19C22,4.2,21.8,4,21.5,4z M17,18.5c0,0.3-0.2,0.5-0.5,0.5h-2v-2.5c0-0.8-0.7-1.5-1.5-1.5c-0.8,0-1.5,0.7-1.5,1.5V19h-2
			C9.2,19,9,18.8,9,18.5V14h8V18.5z M19,12.7c-0.1,0.2-0.3,0.3-0.5,0.3h-11c-0.2,0-0.4-0.1-0.5-0.3c-0.1-0.2,0-0.4,0.2-0.6l5.5-4.5
			c0.2-0.1,0.4-0.1,0.6,0l5.5,4.5C19,12.3,19,12.5,19,12.7z"/>
	</g>
</g>
<g id="Outline_Icons">
	<g>
		<g>
			<path class="st2" d="M21.5,0.5h-16c-1.1,0-2,0.9-2,2s0.9,2,2,2h16v19h-16c-1.1,0-2-0.9-2-2v-19"/>
			<line class="st2" x1="5.5" y1="2.5" x2="20.5" y2="2.5"/>
		</g>
		<line class="st2" x1="2.5" y1="7.5" x2="4.5" y2="7.5"/>
		<line class="st2" x1="2.5" y1="10.5" x2="4.5" y2="10.5"/>
		<line class="st2" x1="2.5" y1="13.5" x2="4.5" y2="13.5"/>
		<line class="st2" x1="2.5" y1="16.5" x2="4.5" y2="16.5"/>
		<line class="st2" x1="2.5" y1="19.5" x2="4.5" y2="19.5"/>
		<rect x="9.5" y="12.5" class="st2" width="7" height="6"/>
		<polygon class="st2" points="13,8 7.5,12.5 18.5,12.5 		"/>
		<path class="st2" d="M14.5,16c0-0.8-0.7-1.5-1.5-1.5c-0.8,0-1.5,0.7-1.5,1.5v2.5h3V16z"/>
	</g>
</g>
</svg>
