<?xml version="1.0" encoding="utf-8"?>
<!-- Generator: Adobe Illustrator 19.2.0, SVG Export Plug-In . SVG Version: 6.00 Build 0)  -->
<svg version="1.1" id="Layer_1" xmlns="http://www.w3.org/2000/svg" xmlns:xlink="http://www.w3.org/1999/xlink" x="0px" y="0px"
	 viewBox="0 0 24 24" style="enable-background:new 0 0 24 24;" xml:space="preserve">
<style type="text/css">
	.st0{display:none;}
	.st1{display:inline;}
	.st2{fill:none;stroke:#000000;stroke-linecap:round;stroke-linejoin:round;stroke-miterlimit:10;}
	.st3{fill:none;stroke:#000000;stroke-linejoin:round;stroke-miterlimit:10;}
</style>
<g id="Filled_Icons" class="st0">
	<g class="st1">
		<g>
			<path d="M15,9.6l-6,6v6.9c0,0.1,0.1,0.3,0.1,0.4C9.2,23,9.4,23,9.5,23h11c0.3,0,0.5-0.2,0.5-0.5v-6.9L15,9.6z M16.5,15.5
				c0,0.3-0.2,0.5-0.5,0.5h-2c-0.3,0-0.5-0.2-0.5-0.5v-2c0-0.3,0.2-0.5,0.5-0.5h2c0.3,0,0.5,0.2,0.5,0.5V15.5z"/>
		</g>
		<g>
			<path d="M22.5,0H5v4v0.5V5H0v17.5C0,22.8,0.2,23,0.5,23h4C4.8,23,5,22.8,5,22.5V20H2v-1h3v-3H2v-1h3v-3H2v-1h3V8H2V7h3V5h2V2h1v3
				h3V2h1v3h3V2h1v3h3V2h1v3h2.5C22.8,5,23,4.8,23,4.5v-4C23,0.2,22.8,0,22.5,0z"/>
			<path d="M4,4V0H0.5C0.2,0,0,0.2,0,0.5V4H4z"/>
		</g>
		<g>
			<path d="M21,11.4V8.5C21,8.2,20.8,8,20.5,8h-2.9L21,11.4z"/>
		</g>
		<g>
			<path d="M23.5,16.5c-0.1,0-0.3,0-0.4-0.1L15,8.2l-8.1,8.1c-0.2,0.2-0.5,0.2-0.7,0c-0.2-0.2-0.2-0.5,0-0.7l8.5-8.5
				c0.2-0.2,0.5-0.2,0.7,0l8.5,8.5c0.2,0.2,0.2,0.5,0,0.7C23.8,16.5,23.6,16.5,23.5,16.5z"/>
		</g>
	</g>
</g>
<g id="Outline_Icons">
	<g>
		<polyline class="st2" points="9.5,16.5 9.5,22.5 20.5,22.5 20.5,16.5 		"/>
		<polyline class="st2" points="6.5,16 15,7.5 23.5,16 		"/>
		<polyline class="st2" points="19,8.5 22.5,8.5 22.5,12 		"/>
		<rect x="13.5" y="12.5" class="st2" width="3" height="3"/>
		<rect x="0.5" y="4.5" class="st3" width="4" height="18"/>
		<rect x="4.5" y="0.5" class="st3" width="18" height="4"/>
		<rect x="0.5" y="0.5" class="st3" width="4" height="4"/>
		<line class="st3" x1="7.5" y1="4.5" x2="7.5" y2="2"/>
		<line class="st3" x1="11.5" y1="4.5" x2="11.5" y2="2"/>
		<line class="st3" x1="15.5" y1="4.5" x2="15.5" y2="2"/>
		<line class="st3" x1="19.5" y1="4.5" x2="19.5" y2="2"/>
		<line class="st3" x1="4.5" y1="19.5" x2="2" y2="19.5"/>
		<line class="st3" x1="4.5" y1="15.5" x2="2" y2="15.5"/>
		<line class="st3" x1="4.5" y1="11.5" x2="2" y2="11.5"/>
		<line class="st3" x1="4.5" y1="7.5" x2="2" y2="7.5"/>
	</g>
</g>
</svg>
