<?xml version="1.0" encoding="utf-8"?>
<!-- Generator: Adobe Illustrator 19.2.0, SVG Export Plug-In . SVG Version: 6.00 Build 0)  -->
<svg version="1.1" id="Outline_Icons" xmlns="http://www.w3.org/2000/svg" xmlns:xlink="http://www.w3.org/1999/xlink" x="0px"
	 y="0px" viewBox="0 0 24 24" style="enable-background:new 0 0 24 24;" xml:space="preserve">
<style type="text/css">
	.st0{fill:none;stroke:#000000;stroke-linecap:round;stroke-linejoin:round;stroke-miterlimit:10;}
	.st1{fill:none;stroke:#000000;stroke-linejoin:round;stroke-miterlimit:10;}
</style>
<g>
	<g>
		<polyline class="st0" points="3.5,12.5 3.5,23.5 13.5,23.5 		"/>
		<polyline class="st0" points="0.5,12 12,1.5 23.5,12 		"/>
		<polyline class="st0" points="16,2.5 19.5,2.5 19.5,6 		"/>
		<rect x="10.5" y="6.5" class="st0" width="3" height="3"/>
	</g>
	<g>
		<rect x="15.5" y="16.5" class="st0" width="8" height="7"/>
		<line class="st0" x1="19.5" y1="21.5" x2="19.5" y2="20"/>
		<path class="st0" d="M16.5,16.5v-1c0-1.7,1.3-3,3-3c1.7,0,3,1.3,3,3v1"/>
		<path class="st1" d="M20,19.5c0,0.3-0.2,0.5-0.5,0.5l0,0c-0.3,0-0.5-0.2-0.5-0.5l0,0c0-0.3,0.2-0.5,0.5-0.5l0,0
			C19.8,19,20,19.2,20,19.5L20,19.5z"/>
	</g>
</g>
</svg>
