<?xml version="1.0" encoding="utf-8"?>
<!-- Generator: Adobe Illustrator 19.2.0, SVG Export Plug-In . SVG Version: 6.00 Build 0)  -->
<svg version="1.1" id="Layer_1" xmlns="http://www.w3.org/2000/svg" xmlns:xlink="http://www.w3.org/1999/xlink" x="0px" y="0px"
	 viewBox="0 0 24 24" style="enable-background:new 0 0 24 24;" xml:space="preserve">
<style type="text/css">
	.st0{display:none;}
	.st1{display:inline;}
	.st2{fill:none;stroke:#000000;stroke-linecap:round;stroke-linejoin:round;stroke-miterlimit:10;}
</style>
<g id="Filled_Icons" class="st0">
	<g class="st1">
		<g>
			<path d="M20,6.8V2.5C20,2.2,19.8,2,19.5,2h-4.7L20,6.8z"/>
		</g>
		<g>
			<g>
				<path d="M23.5,12.5c-0.1,0-0.2,0-0.3-0.1L12,2.2L0.8,12.4c-0.2,0.2-0.5,0.2-0.7,0c-0.2-0.2-0.2-0.5,0-0.7L11.7,1.1
					c0.2-0.2,0.5-0.2,0.7,0l11.5,10.5c0.2,0.2,0.2,0.5,0,0.7C23.8,12.5,23.6,12.5,23.5,12.5z"/>
			</g>
		</g>
		<path d="M12.2,22.8l5-10c0.3-0.5,0.8-0.8,1.3-0.8c0.6,0,1.1,0.3,1.3,0.8l1.2,2.3v-3.4l-9-8.2l-9,8.2v11.8C3,23.8,3.2,24,3.5,24
			h8.6C12,23.6,12,23.2,12.2,22.8z M10.5,9.5v-2C10.5,7.2,10.7,7,11,7h2c0.3,0,0.5,0.2,0.5,0.5v2c0,0.3-0.2,0.5-0.5,0.5h-2
			C10.7,10,10.5,9.8,10.5,9.5z"/>
		<path d="M23.9,23.2l-4.9-9.9c-0.2-0.3-0.7-0.3-0.9,0l-5,10c-0.1,0.2-0.1,0.3,0,0.5c0.1,0.1,0.3,0.2,0.4,0.2h10c0,0,0,0,0,0
			c0.3,0,0.5-0.2,0.5-0.5C24,23.4,24,23.3,23.9,23.2z M18.5,22.1c-0.3,0-0.5-0.2-0.5-0.5c0-0.2,0.2-0.5,0.5-0.5
			c0.3,0,0.5,0.2,0.5,0.5S18.8,22.1,18.5,22.1z M19,20.3c0,0.3-0.2,0.5-0.5,0.5c-0.3,0-0.5-0.2-0.5-0.5v-2.7c0-0.3,0.2-0.5,0.5-0.5
			c0.3,0,0.5,0.2,0.5,0.5V20.3z"/>
	</g>
</g>
<g id="Outline_Icons">
	<g>
		<polyline class="st2" points="3.5,12.5 3.5,23.5 11.5,23.5 		"/>
		<polyline class="st2" points="0.5,12 12,1.5 23.5,12 		"/>
		<polyline class="st2" points="16,2.5 19.5,2.5 19.5,6 		"/>
		<rect x="10.5" y="6.5" class="st2" width="3" height="3"/>
		<g>
			<polygon class="st2" points="23.5,23.5 13.5,23.5 18.5,13.5 			"/>
			<line class="st2" x1="18.5" y1="17.6" x2="18.5" y2="20.3"/>
			<g>
				<g>
					<path d="M18.5,21.2c-0.3,0-0.5,0.2-0.5,0.5c0,0.2,0.2,0.5,0.5,0.5c0.3,0,0.5-0.2,0.5-0.5C19,21.4,18.8,21.2,18.5,21.2
						L18.5,21.2z"/>
				</g>
			</g>
		</g>
	</g>
</g>
</svg>
