<?xml version="1.0" encoding="utf-8"?>
<!-- Generator: Adobe Illustrator 19.2.0, SVG Export Plug-In . SVG Version: 6.00 Build 0)  -->
<svg version="1.1" id="Layer_1" xmlns="http://www.w3.org/2000/svg" xmlns:xlink="http://www.w3.org/1999/xlink" x="0px" y="0px"
	 viewBox="0 0 24 24" style="enable-background:new 0 0 24 24;" xml:space="preserve">
<style type="text/css">
	.st0{display:none;}
	.st1{display:inline;}
	.st2{fill:none;stroke:#000000;stroke-linecap:round;stroke-linejoin:round;stroke-miterlimit:10;}
	.st3{fill:none;stroke:#000000;stroke-linejoin:round;stroke-miterlimit:10;}
</style>
<g id="Filled_Icons" class="st0">
	<g class="st1">
		<g>
			<path d="M20,6.8V2.5C20,2.2,19.8,2,19.5,2h-4.7L20,6.8z"/>
		</g>
		<g>
			<g>
				<path d="M23.5,12.5c-0.1,0-0.2,0-0.3-0.1L12,2.2L0.8,12.4c-0.2,0.2-0.5,0.2-0.7,0c-0.2-0.2-0.2-0.5,0-0.7L11.7,1.1
					c0.2-0.2,0.5-0.2,0.7,0l11.5,10.5c0.2,0.2,0.2,0.5,0,0.7C23.8,12.5,23.6,12.5,23.5,12.5z"/>
			</g>
		</g>
		<path d="M23,17.8c0-0.1,0-0.3,0-0.4l-1-1.7c-0.1-0.2-0.4-0.3-0.7-0.2l-0.8,0.4c-0.4-0.3-0.7-0.4-1-0.6v-0.8c0-0.3-0.2-0.5-0.5-0.5
			h-2c-0.3,0-0.5,0.2-0.5,0.5v0.8c-0.3,0.1-0.6,0.3-0.9,0.5L15,15.5c-0.1-0.1-0.3-0.1-0.4-0.1c-0.1,0-0.2,0.1-0.3,0.2l-1,1.7
			c-0.1,0.2-0.1,0.5,0.2,0.7l0.7,0.4c0,0.2,0,0.4,0,0.6c0,0.2,0,0.4,0,0.6L13.5,20c-0.2,0.1-0.3,0.4-0.2,0.7l1,1.7
			c0.1,0.1,0.2,0.2,0.3,0.2c0.1,0,0.3,0,0.4-0.1l0.6-0.4c0.3,0.2,0.6,0.4,0.9,0.5v0.8c0,0.3,0.2,0.5,0.5,0.5h2
			c0.3,0,0.5-0.2,0.5-0.5v-0.8c0.3-0.1,0.7-0.3,1-0.6l0.7,0.4c0.2,0.1,0.5,0.1,0.7-0.2l1-1.7c0.1-0.1,0.1-0.2,0.1-0.4
			c0-0.1-0.1-0.2-0.2-0.3l-0.7-0.4c0-0.2,0-0.4,0-0.6c0-0.2,0-0.4,0-0.6l0.7-0.4C22.9,18,23,17.9,23,17.8z M18.2,20.5
			c-0.8,0-1.5-0.7-1.5-1.5c0-0.8,0.7-1.5,1.5-1.5c0.8,0,1.5,0.7,1.5,1.5C19.7,19.8,19,20.5,18.2,20.5z"/>
		<g>
			<path d="M15.5,23.5L15.5,23.5c-0.3,0.1-0.7,0.2-1.1,0.1c-0.4-0.1-0.7-0.4-0.9-0.7l-1-1.7c-0.4-0.7-0.2-1.6,0.5-2l0.1-0.1L13,18.9
				c-0.7-0.4-1-1.3-0.6-2l1-1.7c0.2-0.4,0.5-0.6,0.9-0.7c0.4-0.1,0.8,0,1.2,0.2v-0.1c0-0.8,0.7-1.5,1.5-1.5h2c0.8,0,1.5,0.7,1.5,1.5
				v0.2c0,0,0.1,0,0.1,0c0.4-0.2,0.3-0.2,0.4-0.2v-2.8l-9-8.2l-9,8.2v11.8C3,23.8,3.2,24,3.5,24h12.1C15.5,23.8,15.5,23.7,15.5,23.5
				z M10.5,9.5v-2C10.5,7.2,10.7,7,11,7h2c0.3,0,0.5,0.2,0.5,0.5v2c0,0.3-0.2,0.5-0.5,0.5h-2C10.7,10,10.5,9.8,10.5,9.5z"/>
		</g>
	</g>
</g>
<g id="Outline_Icons">
	<g>
		<polyline class="st2" points="3.5,12.5 3.5,23.5 11.5,23.5 		"/>
		<polyline class="st2" points="0.5,12 12,1.5 23.5,12 		"/>
		<polyline class="st2" points="16,2.5 19.5,2.5 19.5,6 		"/>
		<rect x="10.5" y="6.5" class="st2" width="3" height="3"/>
		<circle class="st3" cx="18.2" cy="19" r="1.5"/>
		<path class="st3" d="M21.7,19c0-0.3,0-0.5-0.1-0.8l1-0.6l-1-1.7l-1.1,0.6c-0.4-0.4-1-0.7-1.5-0.8v-1.1h-2v1.1
			c-0.5,0.2-0.9,0.4-1.3,0.8l-1-0.6l-1,1.7l1,0.6c-0.1,0.3-0.1,0.5-0.1,0.8c0,0.3,0,0.5,0.1,0.8l-1,0.6l1,1.7l0.9-0.6
			c0.4,0.4,0.8,0.7,1.3,0.8v1.1h2v-1.1c0.5-0.2,1.1-0.4,1.5-0.8l1,0.6l1-1.7l-1-0.6C21.6,19.5,21.7,19.3,21.7,19z"/>
	</g>
</g>
</svg>
