<?xml version="1.0" encoding="utf-8"?>
<!-- Generator: Adobe Illustrator 19.2.0, SVG Export Plug-In . SVG Version: 6.00 Build 0)  -->
<svg version="1.1" id="Layer_1" xmlns="http://www.w3.org/2000/svg" xmlns:xlink="http://www.w3.org/1999/xlink" x="0px" y="0px"
	 viewBox="0 0 24 24" style="enable-background:new 0 0 24 24;" xml:space="preserve">
<style type="text/css">
	.st0{display:none;}
	.st1{display:inline;}
	.st2{fill:none;stroke:#000000;stroke-linecap:round;stroke-linejoin:round;stroke-miterlimit:10;}
	.st3{fill:none;stroke:#000000;stroke-linejoin:round;stroke-miterlimit:10;}
</style>
<g id="Filled_Icons" class="st0">
	<g class="st1">
		<g>
			<path d="M20,6.8V2.5C20,2.2,19.8,2,19.5,2h-4.7L20,6.8z"/>
		</g>
		<g>
			<g>
				<path d="M23.5,12.5c-0.1,0-0.2,0-0.3-0.1L12,2.2L0.8,12.4c-0.2,0.2-0.5,0.2-0.7,0c-0.2-0.2-0.2-0.5,0-0.7L11.7,1.1
					c0.2-0.2,0.5-0.2,0.7,0l11.5,10.5c0.2,0.2,0.2,0.5,0,0.7C23.8,12.5,23.6,12.5,23.5,12.5z"/>
			</g>
		</g>
		<g>
			<path d="M13,17c0-2.7,1.8-4,3.4-4c1,0,1.8,0.4,2.6,1c0.6-0.5,1.3-0.9,2-1v-1.3l-9-8.2l-9,8.2v11.8C3,23.8,3.2,24,3.5,24h13.8
				C15.8,22.9,13,20.5,13,17z M10.5,9.5v-2C10.5,7.2,10.7,7,11,7h2c0.3,0,0.5,0.2,0.5,0.5v2c0,0.3-0.2,0.5-0.5,0.5h-2
				C10.7,10,10.5,9.8,10.5,9.5z"/>
		</g>
		<path d="M21.6,14c-0.9,0-1.9,0.5-2.6,1.6c-0.6-1-1.6-1.6-2.6-1.6c-1.2,0-2.4,0.9-2.4,3c0,4,4.6,6.6,4.8,6.7c0.1,0,0.2,0.1,0.2,0.1
			c0.1,0,0.2,0,0.2-0.1c0.2-0.1,4.8-2.7,4.8-6.9C24,14.9,22.8,14,21.6,14z"/>
	</g>
</g>
<g id="Outline_Icons">
	<g>
		<polyline class="st2" points="3.5,12.5 3.5,23.5 14.5,23.5 		"/>
		<polyline class="st2" points="0.5,12 12,1.5 23.5,12 		"/>
		<polyline class="st2" points="16,2.5 19.5,2.5 19.5,6 		"/>
		<rect x="10.5" y="6.5" class="st2" width="3" height="3"/>
		<path class="st3" d="M19,23.3c0,0,4.5-2.5,4.5-6.5c0-3-3.5-3-4.5,0c-1-3-4.5-3-4.5,0.2C14.5,20.8,19,23.3,19,23.3z"/>
	</g>
</g>
</svg>
