<?xml version="1.0" encoding="utf-8"?>
<!-- Generator: Adobe Illustrator 19.2.0, SVG Export Plug-In . SVG Version: 6.00 Build 0)  -->
<svg version="1.1" id="Outline_Icons" xmlns="http://www.w3.org/2000/svg" xmlns:xlink="http://www.w3.org/1999/xlink" x="0px"
	 y="0px" viewBox="0 0 24 24" style="enable-background:new 0 0 24 24;" xml:space="preserve">
<style type="text/css">
	.st0{fill:none;stroke:#000000;stroke-linecap:round;stroke-linejoin:round;stroke-miterlimit:10;}
</style>
<g>
	<g>
		<polyline class="st0" points="3.5,12.5 3.5,23.5 20.5,23.5 		"/>
		<polyline class="st0" points="0.5,12 12,1.5 23.5,12 		"/>
		<polyline class="st0" points="16,2.5 19.5,2.5 19.5,6 		"/>
		<rect x="10.5" y="6.5" class="st0" width="3" height="3"/>
	</g>
	<path class="st0" d="M19.5,20V16h0.7c0.9,0,1.3,0.9,1.3,2s-0.5,2-1.3,2L19.5,20z"/>
	<polyline class="st0" points="18,19.9 16.5,19.9 16.5,16 	"/>
	<path class="st0" d="M15,18c0,1.1-0.2,2-1.1,2c-0.9,0-1.1-0.9-1.1-2c0-1.1,0.2-2,1.1-2C14.8,16,15,16.9,15,18z"/>
	<path class="st0" d="M9,19.1C9,19.6,9.4,20,9.9,20c0.5,0,0.9-0.4,0.9-1c0-0.8-0.8-1-0.9-1C9.8,18,9,17.8,9,17c0-0.6,0.4-1,0.9-1
		c0.5,0,0.9,0.4,0.9,0.9"/>
</g>
</svg>
