<?xml version="1.0" encoding="utf-8"?>
<!-- Generator: Adobe Illustrator 19.2.0, SVG Export Plug-In . SVG Version: 6.00 Build 0)  -->
<svg version="1.1" id="Layer_1" xmlns="http://www.w3.org/2000/svg" xmlns:xlink="http://www.w3.org/1999/xlink" x="0px" y="0px"
	 viewBox="0 0 24 24" style="enable-background:new 0 0 24 24;" xml:space="preserve">
<style type="text/css">
	.st0{display:none;}
	.st1{display:inline;}
	.st2{fill:none;stroke:#000000;stroke-linecap:round;stroke-linejoin:round;stroke-miterlimit:10;}
</style>
<g id="Filled_Icon" class="st0">
	<g class="st1">
		<path d="M20.5,0.5C20.5,0.2,20.3,0,20,0H0.5C0.2,0,0,0.2,0,0.5C0,0.8,0.2,1,0.5,1H20C20.3,1,20.5,0.8,20.5,0.5z"/>
		<path d="M3.5,3.5C3.5,3.8,3.7,4,4,4h18c0.3,0,0.5-0.2,0.5-0.5C22.5,3.2,22.3,3,22,3H4C3.7,3,3.5,3.2,3.5,3.5z"/>
		<path d="M6.5,6C6.2,6,6,6.2,6,6.5C6,6.8,6.2,7,6.5,7h13C19.8,7,20,6.8,20,6.5C20,6.2,19.8,6,19.5,6H6.5z"/>
		<path d="M17.5,9.5C17.5,9.2,17.3,9,17,9H3C2.7,9,2.5,9.2,2.5,9.5C2.5,9.8,2.7,10,3,10h14C17.3,10,17.5,9.8,17.5,9.5z"/>
		<path d="M19,12.5c0-0.3-0.2-0.5-0.5-0.5h-11C7.2,12,7,12.2,7,12.5C7,12.8,7.2,13,7.5,13h11C18.8,13,19,12.8,19,12.5z"/>
		<path d="M21,15.5c0-0.3-0.2-0.5-0.5-0.5h-9c-0.3,0-0.5,0.2-0.5,0.5c0,0.3,0.2,0.5,0.5,0.5h9C20.8,16,21,15.8,21,15.5z"/>
		<path d="M22,18h-7c-0.3,0-0.5,0.2-0.5,0.5c0,0.3,0.2,0.5,0.5,0.5h7c0.3,0,0.5-0.2,0.5-0.5C22.5,18.2,22.3,18,22,18z"/>
		<path d="M20,21h-3.5c-0.3,0-0.5,0.2-0.5,0.5c0,0.3,0.2,0.5,0.5,0.5H20c0.3,0,0.5-0.2,0.5-0.5C20.5,21.2,20.3,21,20,21z"/>
		<path d="M16.5,23h-2c-0.3,0-0.5,0.2-0.5,0.5c0,0.3,0.2,0.5,0.5,0.5h2c0.3,0,0.5-0.2,0.5-0.5C17,23.2,16.8,23,16.5,23z"/>
	</g>
</g>
<g id="Outline_Icons">
	<g>
		<line class="st2" x1="0.5" y1="0.5" x2="20" y2="0.5"/>
		<line class="st2" x1="4" y1="3.5" x2="22" y2="3.5"/>
		<line class="st2" x1="6.5" y1="6.5" x2="19.5" y2="6.5"/>
		<line class="st2" x1="3" y1="9.5" x2="17" y2="9.5"/>
		<line class="st2" x1="7.5" y1="12.5" x2="18.5" y2="12.5"/>
		<line class="st2" x1="11.5" y1="15.5" x2="20.5" y2="15.5"/>
		<line class="st2" x1="15" y1="18.5" x2="22" y2="18.5"/>
		<line class="st2" x1="16.5" y1="21.5" x2="20" y2="21.5"/>
		<line class="st2" x1="14.5" y1="23.5" x2="16.5" y2="23.5"/>
	</g>
</g>
</svg>
