<?xml version="1.0" encoding="utf-8"?>
<!-- Generator: Adobe Illustrator 19.2.0, SVG Export Plug-In . SVG Version: 6.00 Build 0)  -->
<svg version="1.1" id="Outline_Icons" xmlns="http://www.w3.org/2000/svg" xmlns:xlink="http://www.w3.org/1999/xlink" x="0px"
	 y="0px" viewBox="0 0 24 24" style="enable-background:new 0 0 24 24;" xml:space="preserve">
<style type="text/css">
	.st0{fill:none;stroke:#000000;stroke-linecap:round;stroke-linejoin:round;stroke-miterlimit:10;}
	.st1{fill:none;stroke:#000000;stroke-linejoin:round;stroke-miterlimit:10;}
</style>
<g>
	<path class="st0" d="M18.8,6c-0.5-1.2-1.7-2.1-3.2-1.9c-0.8-2.1-2.8-3.5-5.1-3.5c-2.9,0-5.2,2.2-5.5,5c-2.5,0.2-4.5,2.4-4.5,5
		c0,2.8,2.2,5,5,5H9"/>
	<line class="st1" x1="10" y1="9.5" x2="22" y2="9.5"/>
	<line class="st1" x1="12" y1="11.5" x2="23" y2="11.5"/>
	<line class="st1" x1="14" y1="13.5" x2="24" y2="13.5"/>
	<line class="st1" x1="11" y1="15.5" x2="22" y2="15.5"/>
	<line class="st1" x1="12" y1="17.5" x2="20" y2="17.5"/>
	<line class="st1" x1="15" y1="19.5" x2="22" y2="19.5"/>
	<line class="st1" x1="18" y1="21.5" x2="23" y2="21.5"/>
	<line class="st1" x1="20" y1="23.5" x2="21" y2="23.5"/>
</g>
</svg>
