<?xml version="1.0" encoding="utf-8"?>
<!-- Generator: Adobe Illustrator 19.2.0, SVG Export Plug-In . SVG Version: 6.00 Build 0)  -->
<svg version="1.1" id="Layer_1" xmlns="http://www.w3.org/2000/svg" xmlns:xlink="http://www.w3.org/1999/xlink" x="0px" y="0px"
	 viewBox="0 0 24 24" enable-background="new 0 0 24 24" xml:space="preserve">
<g id="Filled_Icons" display="none">
	<g display="inline">
		<path d="M21.256,11.485c-0.173-0.216-0.488-0.249-0.703-0.077l-3.228,2.598h-5.321l-0.001-4.371
			C12.17,9.357,12.769,8.5,13.751,8.5c1.164,0,1.798,1.214,1.804,1.224c0.084,0.168,0.256,0.274,0.444,0.275h0.002
			c0.188,0,0.36-0.106,0.446-0.273c0.006-0.012,0.64-1.226,1.804-1.226c1.058,0,1.349,1,1.38,1.121
			C19.687,9.845,19.889,10,20.116,10c0.016,0,0.032-0.001,0.049-0.002c0.247-0.024,0.438-0.227,0.451-0.476
			c0.11-2.508-0.784-4.889-2.521-6.704C16.357,1.001,14.016,0,11.501,0C8.987,0,6.646,1.001,4.906,2.817
			c-1.735,1.815-2.63,4.196-2.519,6.705c0.012,0.268,0.232,0.475,0.5,0.475c0.002,0,0.004,0,0.007,0
			c0.27-0.003,0.488-0.224,0.493-0.494C3.39,9.335,3.47,8.5,4.751,8.5c1.418,0,1.734,1.011,1.765,1.121
			c0.056,0.221,0.253,0.374,0.48,0.377c0.197-0.007,0.429-0.152,0.488-0.372C7.517,9.511,7.833,8.5,9.251,8.5
			c1.319,0,1.682,0.866,1.75,1.077l0.001,4.429H8.5c-1.379,0-2.5,1.122-2.5,2.5v4c0,0.275,0.224,0.5,0.5,0.5H7v2.5
			c0,0.275,0.224,0.5,0.5,0.5c0.276,0,0.5-0.225,0.5-0.5v-2.5h6.185c0.414-1.16,1.514-2,2.815-2c0.353,0,0.685,0.072,1,0.186v-4.445
			l3.18-2.558C21.394,12.015,21.43,11.7,21.256,11.485z"/>
		<circle cx="17" cy="22.006" r="2"/>
	</g>
</g>
<g id="Outline_Icons">
	<g>
		
			<circle fill="none" stroke="#000000" stroke-linecap="round" stroke-linejoin="round" stroke-miterlimit="10" cx="17" cy="22" r="1.5"/>
		<path fill="none" stroke="#000000" stroke-linecap="round" stroke-linejoin="round" stroke-miterlimit="10" d="M17.5,20.5h-11v-4
			c0-1.105,0.896-2,2-2h9V20.5z"/>
		
			<line fill="none" stroke="#000000" stroke-linecap="round" stroke-linejoin="round" stroke-miterlimit="10" x1="17.5" y1="14.5" x2="20.866" y2="11.792"/>
		
			<line fill="none" stroke="#000000" stroke-linecap="round" stroke-linejoin="round" stroke-miterlimit="10" x1="7.5" y1="20.5" x2="7.5" y2="23.5"/>
		<path fill="none" stroke="#000000" stroke-linejoin="round" stroke-miterlimit="10" d="M20.116,9.494c0.218-4.912-3.712-9-8.615-9
			c-4.9,0-8.832,4.084-8.614,9c0,0-0.011-1.5,1.864-1.5s2.25,1.5,2.25,1.5s0.375-1.5,2.25-1.5s2.25,1.5,2.25,1.5s0.75-1.5,2.25-1.5
			s2.25,1.5,2.25,1.5s0.75-1.5,2.25-1.5S20.116,9.494,20.116,9.494z"/>
		
			<line fill="none" stroke="#000000" stroke-linecap="round" stroke-linejoin="round" stroke-miterlimit="10" x1="11.502" y1="14.5" x2="11.501" y2="9.494"/>
	</g>
</g>
</svg>
