<?xml version="1.0" encoding="utf-8"?>
<!-- Generator: Adobe Illustrator 19.2.0, SVG Export Plug-In . SVG Version: 6.00 Build 0)  -->
<svg version="1.1" id="Layer_1" xmlns="http://www.w3.org/2000/svg" xmlns:xlink="http://www.w3.org/1999/xlink" x="0px" y="0px"
	 viewBox="0 0 24 24" enable-background="new 0 0 24 24" xml:space="preserve">
<g id="Filled_Icons" display="none">
	<g display="inline">
		<path d="M19,7.006v-0.5c0-3.584-2.916-6.5-6.5-6.5S6,2.922,6,6.506v0.5H19z"/>
		<path d="M6,8.006v9.5c0,0.275,0.224,0.5,0.5,0.5h5v5c0,0.553,0.447,1,1,1c0.553,0,1-0.447,1-1v-5h5c0.275,0,0.5-0.225,0.5-0.5
			v-9.5H6z"/>
	</g>
</g>
<g id="Outline_Icons">
	<g>
		
			<line fill="none" stroke="#000000" stroke-linecap="round" stroke-linejoin="round" stroke-miterlimit="10" x1="12.5" y1="17.5" x2="12.5" y2="23.5"/>
		<path fill="none" stroke="#000000" stroke-linecap="round" stroke-linejoin="round" stroke-miterlimit="10" d="M6.5,6.5
			c0-3.313,2.687-6,6-6c3.312,0,6,2.687,6,6v11h-12V6.5z"/>
		
			<line fill="none" stroke="#000000" stroke-linecap="round" stroke-linejoin="round" stroke-miterlimit="10" x1="6.5" y1="7.5" x2="18.5" y2="7.5"/>
	</g>
</g>
</svg>
