<?xml version="1.0" encoding="utf-8"?>
<!-- Generator: Adobe Illustrator 19.2.0, SVG Export Plug-In . SVG Version: 6.00 Build 0)  -->
<svg version="1.1" id="Layer_1" xmlns="http://www.w3.org/2000/svg" xmlns:xlink="http://www.w3.org/1999/xlink" x="0px" y="0px"
	 viewBox="0 0 24 24" enable-background="new 0 0 24 24" xml:space="preserve">
<g id="Filled_Icons" display="none">
	<path display="inline" d="M14.5,0.006h-4c-2.481,0-4.5,2.02-4.5,4.5v13c0,0.275,0.224,0.5,0.5,0.5h5v5c0,0.553,0.447,1,1,1
		c0.553,0,1-0.447,1-1v-5h5c0.275,0,0.5-0.225,0.5-0.5v-13C19,2.025,16.98,0.006,14.5,0.006z M11,14.506c0,0.275-0.224,0.5-0.5,0.5
		c-0.276,0-0.5-0.225-0.5-0.5v-11c0-0.276,0.224-0.5,0.5-0.5c0.276,0,0.5,0.224,0.5,0.5V14.506z M15,14.506
		c0,0.275-0.225,0.5-0.5,0.5c-0.275,0-0.5-0.225-0.5-0.5v-11c0-0.276,0.225-0.5,0.5-0.5c0.275,0,0.5,0.224,0.5,0.5V14.506z"/>
</g>
<g id="Outline_Icons">
	<g>
		
			<line fill="none" stroke="#000000" stroke-linecap="round" stroke-linejoin="round" stroke-miterlimit="10" x1="12.5" y1="17.5" x2="12.5" y2="23.5"/>
		<path fill="none" stroke="#000000" stroke-linecap="round" stroke-linejoin="round" stroke-miterlimit="10" d="M6.5,4.5
			c0-2.209,1.791-4,4-4h4c2.209,0,4,1.791,4,4v13h-12V4.5z"/>
		
			<line fill="none" stroke="#000000" stroke-linecap="round" stroke-linejoin="round" stroke-miterlimit="10" x1="10.5" y1="3.5" x2="10.5" y2="14.5"/>
		
			<line fill="none" stroke="#000000" stroke-linecap="round" stroke-linejoin="round" stroke-miterlimit="10" x1="14.5" y1="3.5" x2="14.5" y2="14.5"/>
	</g>
</g>
</svg>
