<?xml version="1.0" encoding="utf-8"?>
<!-- Generator: Adobe Illustrator 19.2.0, SVG Export Plug-In . SVG Version: 6.00 Build 0)  -->
<svg version="1.1" id="Layer_1" xmlns="http://www.w3.org/2000/svg" xmlns:xlink="http://www.w3.org/1999/xlink" x="0px" y="0px"
	 viewBox="0 0 24 24" enable-background="new 0 0 24 24" xml:space="preserve">
<g id="Filled_Icons" display="none">
	<path display="inline" d="M20,12.498c0-0.276-0.225-0.5-0.5-0.5h-1.04c-0.244-1.693-1.7-3-3.46-3C14.986,8.998,14.975,9,14.96,9
		c-0.181-1.255-1.025-2.295-2.169-2.752C12.921,6.026,13,5.772,13,5.498c0-0.539-0.289-1.01-0.717-1.273l0.633-0.949
		c0.152-0.229,0.091-0.541-0.139-0.693c-0.23-0.152-0.542-0.091-0.693,0.139l-0.871,1.306C10.523,4.161,10,4.77,10,5.498
		c0,0.274,0.079,0.528,0.209,0.75C9.065,6.705,8.22,7.745,8.04,9C8.026,9,8.014,8.998,8,8.998c-0.362,0-0.713,0.056-1.042,0.158
		L5.018,0.39C4.953,0.121,4.681-0.043,4.415,0.02C4.146,0.083,3.98,0.353,4.045,0.621l1.992,8.981
		c-0.796,0.541-1.354,1.402-1.497,2.396H3.5c-0.276,0-0.5,0.224-0.5,0.5c0,4.52,3.577,7.721,8.031,7.983v2.523h-2.5
		c-0.276,0-0.5,0.225-0.5,0.5c0,0.275,0.224,0.5,0.5,0.5h6c0.275,0,0.5-0.225,0.5-0.5c0-0.275-0.225-0.5-0.5-0.5h-2.5v-2.523
		C16.484,20.219,20,17.018,20,12.498z M15,9.998c1.207,0,2.217,0.86,2.449,2h-4.898C12.783,10.858,13.793,9.998,15,9.998z
		 M5.551,11.998c0.232-1.14,1.242-2,2.449-2s2.217,0.86,2.449,2H5.551z M11.54,11.998h-0.08c-0.194-1.348-1.153-2.449-2.425-2.844
		c0.169-1.215,1.204-2.156,2.465-2.156c1.262,0,2.296,0.941,2.465,2.156C12.693,9.549,11.734,10.65,11.54,11.998z"/>
</g>
<g id="Outline_Icons">
	<g>
		<line fill="none" stroke="#000000" stroke-linejoin="round" stroke-miterlimit="10" x1="11.5" y1="20" x2="11.5" y2="23.5"/>
		
			<line fill="none" stroke="#000000" stroke-linecap="round" stroke-linejoin="round" stroke-miterlimit="10" x1="8.5" y1="23.5" x2="14.5" y2="23.5"/>
		<path fill="none" stroke="#000000" stroke-linecap="round" stroke-linejoin="round" stroke-miterlimit="10" d="M5,12
			c0-1.656,1.343-3,3-3c1.656,0,3,1.344,3,3"/>
		<path fill="none" stroke="#000000" stroke-linecap="round" stroke-linejoin="round" stroke-miterlimit="10" d="M12,12
			c0-1.656,1.343-3,3-3c1.656,0,3,1.344,3,3"/>
		<path fill="none" stroke="#000000" stroke-linecap="round" stroke-linejoin="round" stroke-miterlimit="10" d="M8.5,9
			c0-1.656,1.343-3,3-3c1.656,0,3,1.344,3,3"/>
		<path fill="none" stroke="#000000" stroke-linecap="round" stroke-linejoin="round" stroke-miterlimit="10" d="M11.5,20
			c4.418,0,8-3.581,8-7.437h-16C3.5,16.419,7.081,20,11.5,20z"/>
		
			<line fill="none" stroke="#000000" stroke-linecap="round" stroke-linejoin="round" stroke-miterlimit="10" x1="6.607" y1="9.344" x2="4.5" y2="0.5"/>
		
			<circle fill="none" stroke="#000000" stroke-linecap="round" stroke-linejoin="round" stroke-miterlimit="10" cx="11.5" cy="5" r="1"/>
		
			<line fill="none" stroke="#000000" stroke-linecap="round" stroke-linejoin="round" stroke-miterlimit="10" x1="11.5" y1="4" x2="12.5" y2="2.5"/>
	</g>
</g>
</svg>
