<?xml version="1.0" encoding="utf-8"?>
<!-- Generator: Adobe Illustrator 19.2.0, SVG Export Plug-In . SVG Version: 6.00 Build 0)  -->
<svg version="1.1" id="Layer_1" xmlns="http://www.w3.org/2000/svg" xmlns:xlink="http://www.w3.org/1999/xlink" x="0px" y="0px"
	 viewBox="0 0 24 24" enable-background="new 0 0 24 24" xml:space="preserve">
<g id="Filled_Icons" display="none">
	<path display="inline" d="M19.5,9.006h-1.178c-0.526-2.219-2.192-3.999-4.344-4.688l0.51-2.274
		c0.048-0.221-0.024-0.343,0.226-0.519c0.132-0.094,0.304-0.115,0.457-0.061l4.158,1.512c0.262,0.093,0.547-0.04,0.642-0.299
		c0.094-0.26-0.039-0.546-0.3-0.641l-4.157-1.512c-0.461-0.165-0.973-0.099-1.373,0.181c-0.385,0.269-0.619,0.702-0.64,1.168
		l-0.497,2.219C12.676,4.041,12.342,4.006,12,4.006c-3.067,0-5.639,2.138-6.318,5H4.5c-0.828,0-1.5,0.672-1.5,1.5
		c0,0.829,0.672,1.5,1.5,1.5h1.225l0.551,3.577l1.23,8C7.543,23.826,7.753,24.006,8,24.006h8c0.247,0,0.457-0.18,0.494-0.423l1.23-8
		l0.551-3.577H19.5c0.828,0,1.5-0.671,1.5-1.5C21,9.678,20.328,9.006,19.5,9.006z M13.755,5.313
		c1.704,0.578,3.042,1.953,3.536,3.692h-4.363L13.755,5.313z M12,5.006c0.268,0,0.523,0.038,0.781,0.075l-0.88,3.925H6.709
		C7.364,6.7,9.487,5.006,12,5.006z M10.557,15.006H7.198l-0.462-3h4.493L10.557,15.006z M16.803,15.006h-5.221l0.673-3h5.009
		L16.803,15.006z M19.5,11.006h-15c-0.276,0-0.5-0.224-0.5-0.5c0-0.276,0.224-0.5,0.5-0.5h15c0.275,0,0.5,0.224,0.5,0.5
		C20,10.782,19.775,11.006,19.5,11.006z"/>
</g>
<g id="Outline_Icons">
	<g>
		<polyline fill="none" stroke="#000000" stroke-linecap="round" stroke-linejoin="round" stroke-miterlimit="10" points="18,10.5 
			16,23.5 8,23.5 6,10.5 		"/>
		<path fill="none" stroke="#000000" stroke-linecap="round" stroke-linejoin="round" stroke-miterlimit="10" d="M6,10.5
			c0-3.313,2.687-6,6-6c3.312,0,6,2.687,6,6H6z"/>
		
			<line fill="none" stroke="#000000" stroke-linecap="round" stroke-linejoin="round" stroke-miterlimit="10" x1="3.5" y1="10.5" x2="20.5" y2="10.5"/>
		<path fill="none" stroke="#000000" stroke-linecap="round" stroke-linejoin="round" stroke-miterlimit="10" d="M9.5,22L14,1.928
			c0-0.326,0.159-0.632,0.428-0.819c0.266-0.187,0.608-0.231,0.914-0.12L19.5,2.5"/>
		
			<line fill="none" stroke="#000000" stroke-linecap="round" stroke-linejoin="round" stroke-miterlimit="10" x1="6.77" y1="15.5" x2="17.23" y2="15.5"/>
	</g>
</g>
</svg>
