<?xml version="1.0" encoding="utf-8"?>
<!-- Generator: Adobe Illustrator 19.2.0, SVG Export Plug-In . SVG Version: 6.00 Build 0)  -->
<svg version="1.1" id="Layer_1" xmlns="http://www.w3.org/2000/svg" xmlns:xlink="http://www.w3.org/1999/xlink" x="0px" y="0px"
	 viewBox="0 0 24 24" enable-background="new 0 0 24 24" xml:space="preserve">
<g id="Filled_Icons" display="none">
	<path display="inline" d="M12,0.006c-2.757,0-5,2.243-5,5v12.5c0,0.275,0.224,0.5,0.5,0.5h4v5.5c0,0.275,0.224,0.5,0.5,0.5
		c0.276,0,0.5-0.225,0.5-0.5v-5.5h4c0.275,0,0.5-0.225,0.5-0.5v-12.5C17,2.249,14.757,0.006,12,0.006z M14.5,12.506
		c-0.827,0-1.5-0.672-1.5-1.5v-4c0-0.275-0.225-0.5-0.5-0.5c-0.276,0-0.5,0.225-0.5,0.5c0,0.828-0.673,1.5-1.5,1.5
		c-0.827,0-1.5-0.672-1.5-1.5v-2c0-0.275,0.224-0.5,0.5-0.5c0.276,0,0.5,0.224,0.5,0.5v2c0,0.276,0.224,0.5,0.5,0.5
		c0.275,0,0.5-0.224,0.5-0.5c0-0.826,0.673-1.5,1.5-1.5c0.827,0,1.5,0.674,1.5,1.5v4c0,0.276,0.225,0.5,0.5,0.5
		c0.275,0,0.5,0.225,0.5,0.5C15,12.282,14.775,12.506,14.5,12.506z"/>
</g>
<g id="Outline_Icons">
	<g>
		<path fill="none" stroke="#000000" stroke-linejoin="round" stroke-miterlimit="10" d="M16.5,17.5h-9V5c0-2.484,2.015-4.5,4.5-4.5
			c2.484,0,4.5,2.016,4.5,4.5V17.5z"/>
		
			<line fill="none" stroke="#000000" stroke-linecap="round" stroke-linejoin="round" stroke-miterlimit="10" x1="11.5" y1="17.5" x2="11.5" y2="23.5"/>
		<path fill="none" stroke="#000000" stroke-linecap="round" stroke-linejoin="round" stroke-miterlimit="10" d="M14.5,12
			c-0.553,0-1-0.446-1-1V7"/>
		<path fill="none" stroke="#000000" stroke-linecap="round" stroke-linejoin="round" stroke-miterlimit="10" d="M11.5,7
			c0,0.554-0.447,1-1,1c-0.553,0-1-0.446-1-1V5"/>
		<path fill="none" stroke="#000000" stroke-linecap="round" stroke-linejoin="round" stroke-miterlimit="10" d="M11.5,7
			c0-0.551,0.447-1,1-1c0.553,0,1,0.449,1,1"/>
	</g>
</g>
</svg>
