<?xml version="1.0" encoding="utf-8"?>
<!-- Generator: Adobe Illustrator 19.2.0, SVG Export Plug-In . SVG Version: 6.00 Build 0)  -->
<svg version="1.1" id="Layer_1" xmlns="http://www.w3.org/2000/svg" xmlns:xlink="http://www.w3.org/1999/xlink" x="0px" y="0px"
	 viewBox="0 0 24 24" style="enable-background:new 0 0 24 24;" xml:space="preserve">
<style type="text/css">
	.st0{display:none;}
	.st1{display:inline;}
	.st2{fill:none;stroke:#000000;stroke-linejoin:round;stroke-miterlimit:10;}
</style>
<g id="Filled_Icons" class="st0">
	<g class="st1">
		<path d="M9.1,12c0.2,1.7,1.7,3,3.4,3h8.2c-0.6-1.7-2.3-3-4.2-3h-1H9.1z"/>
		<rect x="9" y="6" width="3" height="2"/>
		<path d="M21,20h-3v-1h0.5c1.4,0,2.5-1.1,2.5-2.5c0-0.2,0-0.3-0.1-0.5h-8.4C10,16,8,14,8,11.5v-6C8,5.2,8.2,5,8.5,5H12V1
			c0-0.2-0.1-0.3-0.2-0.4c-0.1-0.1-0.3-0.1-0.5-0.1l-8,3C3.1,3.6,3,3.8,3,4v12.5C3,17.9,4.1,19,5.5,19H6v1H3c-1.1,0-2,0.9-2,2
			c0,1.1,0.9,2,2,2h18c1.1,0,2-0.9,2-2C23,20.9,22.1,20,21,20z M15,20H9v-1h6V20z"/>
		<path d="M12.1,9H9v2h4.1C12.5,10.5,12.2,9.8,12.1,9z"/>
	</g>
</g>
<g id="Outline_Icons">
	<g>
		<path class="st2" d="M3.5,4v12.5c0,1.1,0.9,2,2,2h13c1.1,0,2-0.9,2-2c0-2.2-1.8-4-4-4h-1c-2.2,0-4-1.8-4-4V1L3.5,4z"/>
		<path class="st2" d="M6.5,18.5v2H3c-0.8,0-1.5,0.7-1.5,1.5c0,0.8,0.7,1.5,1.5,1.5h18c0.8,0,1.5-0.7,1.5-1.5c0-0.8-0.7-1.5-1.5-1.5
			h-3.5v-2"/>
		<polyline class="st2" points="8.5,18.5 8.5,20.5 15.5,20.5 15.5,18.5 		"/>
		<path class="st2" d="M11.5,5.5h-3v6c0,2.2,1.8,4,4,4h7.9c-0.4-1.7-2-3-3.9-3h-1c-2.2,0-4-1.8-4-4V5.5z"/>
		<line class="st2" x1="8.5" y1="8.5" x2="11.5" y2="8.5"/>
		<line class="st2" x1="8.5" y1="11.5" x2="12.9" y2="11.5"/>
	</g>
</g>
</svg>
