<?xml version="1.0" encoding="utf-8"?>
<!-- Generator: Adobe Illustrator 19.2.0, SVG Export Plug-In . SVG Version: 6.00 Build 0)  -->
<svg version="1.1" id="Layer_1" xmlns="http://www.w3.org/2000/svg" xmlns:xlink="http://www.w3.org/1999/xlink" x="0px" y="0px"
	 viewBox="0 0 24 24" style="enable-background:new 0 0 24 24;" xml:space="preserve">
<style type="text/css">
	.st0{display:none;}
	.st1{display:inline;}
	.st2{fill:none;stroke:#000000;stroke-linejoin:round;stroke-miterlimit:10;}
</style>
<g id="Filled_Icons" class="st0">
	<g class="st1">
		<path d="M20,1.5C20,1.2,19.8,1,19.5,1h-19C0.2,1,0,1.2,0,1.5v14C0,15.8,0.2,16,0.5,16H3V4.5C3,4.2,3.2,4,3.5,4H20V1.5z"/>
		<path d="M24,5.5v14c0,0.3-0.2,0.5-0.5,0.5h-4c-0.3,0-0.5-0.2-0.5-0.5v-0.8c0-0.7-0.6-1.2-1.2-1.2c-0.7,0-1.2,0.6-1.2,1.2v0.8
			c0,0.3-0.2,0.5-0.5,0.5h-4c-0.3,0-0.5-0.2-0.5-0.5v-0.8c0-0.7-0.6-1.2-1.2-1.2S9,18.1,9,18.8v0.8C9,19.8,8.8,20,8.5,20h-4
			C4.2,20,4,19.8,4,19.5v-14V5h0.5h19C23.8,5,24,5.2,24,5.5z M14,14.5c0-1.1-0.5-2.2-1.9-2.8c0.3-0.3,0.4-0.8,0.4-1.2
			c0-1.1-0.9-2-2-2s-2,0.9-2,2c0,0.5,0.2,0.9,0.4,1.2C7.5,12.2,7,13.4,7,14.5V15h7V14.5z M16,10h2.5V9H16V10z M21,13h-5v1h5V13z
			 M21,11h-5v1h5V11z"/>
	</g>
</g>
<g id="Outline_Icons">
	<g>
		<path class="st2" d="M4.5,5.5v14h4v-0.8c0-1,0.8-1.8,1.8-1.8c1,0,1.8,0.8,1.8,1.8v0.8h4v-0.8c0-1,0.8-1.8,1.8-1.8
			c1,0,1.8,0.8,1.8,1.8v0.8h4v-14H4.5z"/>
		<polyline class="st2" points="19.5,3.5 19.5,1.5 0.5,1.5 0.5,15.5 3,15.5 		"/>
		<circle class="st2" cx="10.5" cy="9.9" r="1.5"/>
		<path class="st2" d="M10.5,11.4c-2.1,0-3,1.8-3,3.1h6C13.5,13.2,12.6,11.4,10.5,11.4z"/>
		<line class="st2" x1="16" y1="13.5" x2="21" y2="13.5"/>
		<line class="st2" x1="16" y1="11.5" x2="21" y2="11.5"/>
		<line class="st2" x1="16" y1="9.5" x2="18.5" y2="9.5"/>
	</g>
</g>
</svg>
