<?xml version="1.0" encoding="utf-8"?>
<!-- Generator: Adobe Illustrator 19.2.0, SVG Export Plug-In . SVG Version: 6.00 Build 0)  -->
<svg version="1.1" id="Layer_1" xmlns="http://www.w3.org/2000/svg" xmlns:xlink="http://www.w3.org/1999/xlink" x="0px" y="0px"
	 viewBox="0 0 24 24" style="enable-background:new 0 0 24 24;" xml:space="preserve">
<style type="text/css">
	.st0{display:none;}
	.st1{display:inline;}
	.st2{fill:none;stroke:#000000;stroke-linejoin:round;stroke-miterlimit:10;}
</style>
<g id="Filled_Icons" class="st0">
	<path class="st1" d="M24,3.5v17c0,0.3-0.2,0.5-0.5,0.5h-4c-0.3,0-0.5-0.2-0.5-0.5V19c0-0.7-0.6-1.2-1.2-1.2c-0.7,0-1.2,0.6-1.2,1.2
		v1.5c0,0.3-0.2,0.5-0.5,0.5H8c-0.3,0-0.5-0.2-0.5-0.5V19c0-0.7-0.6-1.2-1.2-1.2S5,18.3,5,19v1.5C5,20.8,4.8,21,4.5,21h-4
		C0.2,21,0,20.8,0,20.5v-17C0,3.2,0.2,3,0.5,3h23C23.8,3,24,3.2,24,3.5z M13,8h4V7h-4V8z M11.5,12.5c0-0.1,0-0.2-0.1-0.3
		c0-0.1-1-1.5-2.9-1.7v-0.3c0.4-0.3,1-1,1-2.3c0-1,0-2.5-2.5-2.5S4.5,7,4.5,8c0,1.3,0.6,2,1,2.3v0.3c-1.9,0.2-2.9,1.6-2.9,1.7
		c-0.1,0.1-0.1,0.2-0.1,0.3v2C2.5,14.8,2.7,15,3,15h8c0.3,0,0.5-0.2,0.5-0.5V12.5z M21,13h-8v1h8V13z M21,11h-8v1h8V11z M21,9h-8v1
		h8V9z"/>
</g>
<g id="Outline_Icons">
	<g>
		<path class="st2" d="M0.5,3.5v16h4v-0.8c0-1,0.8-1.8,1.8-1.8c1,0,1.8,0.8,1.8,1.8v0.8h8v-0.8c0-1,0.8-1.8,1.8-1.8
			c1,0,1.8,0.8,1.8,1.8v0.8h4v-16H0.5z"/>
		<circle class="st2" cx="7" cy="8.5" r="2"/>
		<path class="st2" d="M7,10.5c-2.5,0-3.5,1.5-3.5,3h7C10.5,12,9.5,10.5,7,10.5z"/>
		<line class="st2" x1="13" y1="13.5" x2="21" y2="13.5"/>
		<line class="st2" x1="13" y1="11.5" x2="21" y2="11.5"/>
		<line class="st2" x1="13" y1="9.5" x2="21" y2="9.5"/>
		<line class="st2" x1="13" y1="7.5" x2="17" y2="7.5"/>
	</g>
</g>
</svg>
