<?xml version="1.0" encoding="utf-8"?>
<!-- Generator: Adobe Illustrator 19.2.0, SVG Export Plug-In . SVG Version: 6.00 Build 0)  -->
<svg version="1.1" id="Layer_1" xmlns="http://www.w3.org/2000/svg" xmlns:xlink="http://www.w3.org/1999/xlink" x="0px" y="0px"
	 viewBox="0 0 24 24" style="enable-background:new 0 0 24 24;" xml:space="preserve">
<style type="text/css">
	.st0{display:none;}
	.st1{display:inline;}
	.st2{fill:none;stroke:#000000;stroke-linecap:round;stroke-linejoin:round;stroke-miterlimit:10;}
</style>
<g id="Filled_Icons" class="st0">
	<g class="st1">
		<path d="M0,10.5h24V23c0,0.3-0.2,0.5-0.5,0.5h-23C0.2,23.5,0,23.3,0,23V10.5z M13,13.5h4v-1h-4V13.5z M13,15.5h8v-1h-8V15.5z
			 M13,17.5h8v-1h-8V17.5z M13,19.5h8v-1h-8V19.5z M3,20.5h8V20c0-1.2-0.6-2.6-2.2-3.2c0.5-0.5,0.7-1.1,0.7-1.8
			c0-1.4-1.1-2.5-2.5-2.5c-1.4,0-2.5,1.1-2.5,2.5c0,0.7,0.3,1.3,0.7,1.8C3.6,17.4,3,18.8,3,20V20.5z"/>
		<path d="M24,6v3.5H0V6c0-0.3,0.2-0.5,0.5-0.5H9V4c0-1.7,1.3-3,3-3c1.7,0,3,1.3,3,3v1.5h8.5C23.8,5.5,24,5.7,24,6z M13,4
			c0-0.6-0.4-1-1-1c-0.6,0-1,0.4-1,1c0,0.6,0.4,1,1,1C12.6,5,13,4.6,13,4z"/>
	</g>
</g>
<g id="Outline_Icons">
	<g>
		<polyline class="st2" points="16.5,6.5 23.5,6.5 23.5,22.5 0.5,22.5 0.5,6.5 7.5,6.5 		"/>
		<line class="st2" x1="0.5" y1="10.5" x2="23.5" y2="10.5"/>
		<line class="st2" x1="12.5" y1="14.5" x2="16.5" y2="14.5"/>
		<line class="st2" x1="12.5" y1="16.5" x2="18.5" y2="16.5"/>
		<line class="st2" x1="12.5" y1="18.5" x2="17.5" y2="18.5"/>
		<path class="st2" d="M12,1.5c-1.4,0-2.5,1.1-2.5,2.5v4.5h5V4C14.5,2.6,13.4,1.5,12,1.5z"/>
		<circle class="st2" cx="7" cy="15" r="1.5"/>
		<path class="st2" d="M9.5,19.5h-5c0-1.7,1.1-3,2.5-3C8.4,16.5,9.5,17.8,9.5,19.5z"/>
	</g>
</g>
</svg>
