<?xml version="1.0" encoding="utf-8"?>
<!-- Generator: Adobe Illustrator 19.2.0, SVG Export Plug-In . SVG Version: 6.00 Build 0)  -->
<svg version="1.1" id="Outline_Icons" xmlns="http://www.w3.org/2000/svg" xmlns:xlink="http://www.w3.org/1999/xlink" x="0px"
	 y="0px" viewBox="0 0 24 24" style="enable-background:new 0 0 24 24;" xml:space="preserve">
<style type="text/css">
	.st0{fill:none;stroke:#000000;stroke-linejoin:round;stroke-miterlimit:10;}
	.st1{fill:none;stroke:#000000;stroke-linecap:round;stroke-linejoin:round;stroke-miterlimit:10;}
</style>
<g>
	<path class="st0" d="M0.5,3.5v17h4V19c0-1,0.8-1.8,1.8-1.8C7.2,17.2,8,18,8,19v1.5h8V19c0-1,0.8-1.8,1.8-1.8c1,0,1.8,0.8,1.8,1.8
		v1.5h4v-17H0.5z"/>
	<line class="st0" x1="13" y1="13.5" x2="21" y2="13.5"/>
	<line class="st0" x1="13" y1="11.5" x2="21" y2="11.5"/>
	<line class="st0" x1="13" y1="9.5" x2="21" y2="9.5"/>
	<line class="st0" x1="13" y1="7.5" x2="17" y2="7.5"/>
	<path class="st1" d="M7,14.5H2.5v-2C2.5,12.5,4,11,6,11c0-0.5,0-1,0-1S5,9.5,5,8c0-1,0-2,2-2s2,1,2,2c0,1.5-1,2-1,2s0,0,0,1
		c2,0,3.5,1.5,3.5,1.5v2H7z"/>
</g>
</svg>
