<?xml version="1.0" encoding="utf-8"?>
<!-- Generator: Adobe Illustrator 19.2.0, SVG Export Plug-In . SVG Version: 6.00 Build 0)  -->
<svg version="1.1" id="Layer_1" xmlns="http://www.w3.org/2000/svg" xmlns:xlink="http://www.w3.org/1999/xlink" x="0px" y="0px"
	 viewBox="0 0 24 24" style="enable-background:new 0 0 24 24;" xml:space="preserve">
<style type="text/css">
	.st0{display:none;}
	.st1{display:inline;}
	.st2{fill:none;stroke:#000000;stroke-linejoin:round;stroke-miterlimit:10;}
</style>
<g id="Filled_Icons" class="st0">
	<g class="st1">
		<path d="M23.5,5.5H16V8c0,0.3-0.2,0.5-0.5,0.5h-7C8.2,8.5,8,8.3,8,8V5.5H0.5C0.2,5.5,0,5.7,0,6v3.5h24V6C24,5.7,23.8,5.5,23.5,5.5
			z"/>
		<path d="M0,10.5h24V22c0,0.3-0.2,0.5-0.5,0.5h-23C0.2,22.5,0,22.3,0,22V10.5z M12,14c0,0.3,0.2,0.5,0.5,0.5h4
			c0.3,0,0.5-0.2,0.5-0.5c0-0.3-0.2-0.5-0.5-0.5h-4C12.2,13.5,12,13.7,12,14z M12,16c0,0.3,0.2,0.5,0.5,0.5h6c0.3,0,0.5-0.2,0.5-0.5
			c0-0.3-0.2-0.5-0.5-0.5h-6C12.2,15.5,12,15.7,12,16z M12,18c0,0.3,0.2,0.5,0.5,0.5h5c0.3,0,0.5-0.2,0.5-0.5c0-0.3-0.2-0.5-0.5-0.5
			h-5C12.2,17.5,12,17.7,12,18z M4,19c0,0.3,0.2,0.5,0.5,0.5h5c0,0,0,0,0,0c0.3,0,0.5-0.2,0.5-0.5c0,0,0-0.1,0-0.1
			c0-1.3-0.7-2.4-1.6-3C8.8,15.6,9,15.1,9,14.5c0-1.1-0.9-2-2-2s-2,0.9-2,2c0,0.6,0.2,1.1,0.6,1.4C4.6,16.5,4,17.7,4,19z"/>
		<path d="M14.5,7.5H15V7V3.1c0-1.5-1.3-2.6-3-2.6c-1.7,0-3,1.2-3,2.6V7v0.5h0.5H14.5z"/>
	</g>
</g>
<g id="Outline_Icons">
	<g>
		<polyline class="st2" points="14.5,5.5 23.5,5.5 23.5,22.5 0.5,22.5 0.5,5.5 9.5,5.5 		"/>
		<circle class="st2" cx="7" cy="14.5" r="2"/>
		<path class="st2" d="M7,16.5c-2.5,0-3.5,1.5-3.5,3h7C10.5,18,9.5,16.5,7,16.5z"/>
		<path class="st2" d="M14.5,7.5h-5v-4C9.5,2.1,10.6,1,12,1s2.5,1.1,2.5,2.5V7.5z"/>
		<line class="st2" x1="0.5" y1="9.5" x2="23.5" y2="9.5"/>
		<line class="st2" x1="13" y1="18.5" x2="21" y2="18.5"/>
		<line class="st2" x1="13" y1="16.5" x2="21" y2="16.5"/>
		<line class="st2" x1="13" y1="14.5" x2="21" y2="14.5"/>
		<line class="st2" x1="13" y1="12.5" x2="17" y2="12.5"/>
		<path class="st2" d="M12.5,3.5C12.5,3.8,12.3,4,12,4l0,0c-0.3,0-0.5-0.2-0.5-0.5l0,0C11.5,3.2,11.7,3,12,3l0,0
			C12.3,3,12.5,3.2,12.5,3.5L12.5,3.5z"/>
	</g>
</g>
</svg>
