<?xml version="1.0" encoding="utf-8"?>
<!-- Generator: Adobe Illustrator 19.2.0, SVG Export Plug-In . SVG Version: 6.00 Build 0)  -->
<svg version="1.1" id="Layer_1" xmlns="http://www.w3.org/2000/svg" xmlns:xlink="http://www.w3.org/1999/xlink" x="0px" y="0px"
	 viewBox="0 0 24 24" style="enable-background:new 0 0 24 24;" xml:space="preserve">
<style type="text/css">
	.st0{display:none;}
	.st1{display:inline;}
	.st2{fill:none;stroke:#000000;stroke-linejoin:round;stroke-miterlimit:10;}
</style>
<g id="Filled_Icons" class="st0">
	<g class="st1">
		<path d="M6.6,20H21v3.5c0,0.3-0.2,0.5-0.5,0.5h-17C3.2,24,3,23.8,3,23.5V20h3.1v0L6.6,20z M14,22h4v-1h-4V22z"/>
		<path d="M21,4.5V19h-3l0-0.1c0-0.8-0.5-1.5-1.3-1.7L14,16.6v-0.8c0.9-0.7,1.4-1.8,1.5-3c-0.4,0.1-0.9,0.2-1.3,0.2
			c-0.2,0-0.5,0-0.7-0.1c-0.5-0.1-0.8-0.3-1.1-0.6c-0.8,0.5-2,0.5-2.9,0.4c-0.2,0-0.6-0.1-0.9-0.3c0,0.1,0,0.2,0,0.3
			c0,1.3,0.6,2.4,1.5,3.1v0.7l-2.6,0.6c-0.8,0.2-1.3,0.9-1.3,1.7l0,0.1H3V4.5C3,4.2,3.2,4,3.5,4H9V3c0-1.7,1.3-3,3-3
			c1.7,0,3,1.3,3,3v1h5.5C20.8,4,21,4.2,21,4.5z M11,3c0,0.6,0.4,1,1,1c0.6,0,1-0.4,1-1c0-0.6-0.4-1-1-1C11.4,2,11,2.4,11,3z
			 M15.4,11.8C15,10.2,13.6,9,12,9c-1.5,0-2.8,1-3.3,2.5c0.2,0.1,0.5,0.2,0.9,0.3c1,0.2,2.1,0,2.6-0.5c0.1-0.1,0.3-0.2,0.5-0.1
			c0.2,0,0.3,0.2,0.4,0.3c0,0.1,0.1,0.4,0.7,0.5C14.2,12.1,15,12,15.4,11.8z"/>
	</g>
</g>
<g id="Outline_Icons">
	<g>
		<path class="st2" d="M10.5,15.5V17l-3,0.7c-0.5,0.2-1,0.6-1,1.2l0,0.5"/>
		<path class="st2" d="M13.5,15.5V17l3,0.7c0.5,0.2,1,0.6,1,1.2l0,0.5"/>
		<ellipse class="st2" cx="12" cy="12.8" rx="3" ry="3.3"/>
		<path class="st2" d="M15,12.2c-0.5,0.5-1.9,0.5-2.5-0.5c-1,1-2.6,1-3.4,0.4"/>
		<polyline class="st2" points="14.5,4.5 20.5,4.5 20.5,23.5 3.5,23.5 3.5,4.5 9.5,4.5 		"/>
		<path class="st2" d="M14.5,7.5h-5V3c0-1.4,1.1-2.5,2.5-2.5s2.5,1.1,2.5,2.5V7.5z"/>
		<line class="st2" x1="3.5" y1="19.5" x2="20.5" y2="19.5"/>
		<line class="st2" x1="14" y1="21.5" x2="18" y2="21.5"/>
		<path class="st2" d="M12.5,3c0,0.3-0.2,0.5-0.5,0.5l0,0c-0.3,0-0.5-0.2-0.5-0.5l0,0c0-0.3,0.2-0.5,0.5-0.5l0,0
			C12.3,2.5,12.5,2.7,12.5,3L12.5,3z"/>
	</g>
</g>
</svg>
