<?xml version="1.0" encoding="utf-8"?>
<!-- Generator: Adobe Illustrator 19.2.0, SVG Export Plug-In . SVG Version: 6.00 Build 0)  -->
<svg version="1.1" id="Layer_1" xmlns="http://www.w3.org/2000/svg" xmlns:xlink="http://www.w3.org/1999/xlink" x="0px" y="0px"
	 viewBox="0 0 24 24" style="enable-background:new 0 0 24 24;" xml:space="preserve">
<style type="text/css">
	.st0{display:none;}
	.st1{display:inline;}
	.st2{fill:none;stroke:#000000;stroke-linejoin:round;stroke-miterlimit:10;}
</style>
<g id="Filled_Icons" class="st0">
	<g class="st1">
		<path d="M21,4.5v19c0,0.3-0.2,0.5-0.5,0.5h-17C3.2,24,3,23.8,3,23.5v-19C3,4.2,3.2,4,3.5,4H9V3c0-1.7,1.3-3,3-3c1.7,0,3,1.3,3,3v1
			h5.5C20.8,4,21,4.2,21,4.5z M15,7h3v14H6V7h3V6H5.5C5.2,6,5,6.2,5,6.5v15C5,21.8,5.2,22,5.5,22h13c0.3,0,0.5-0.2,0.5-0.5v-15
			C19,6.2,18.8,6,18.5,6H15V7z M11,3c0,0.6,0.4,1,1,1c0.6,0,1-0.4,1-1c0-0.6-0.4-1-1-1C11.4,2,11,2.4,11,3z M8.5,13.8
			c0,1.3,0.6,2.4,1.5,3.1v0.8l-2.7,0.8l0.3,1l3.3-1.1v-1c0.3,0.1,0.7,0.2,1,0.2c0.3,0,0.7-0.1,1-0.2v1l3.3,1.1l0.3-1L14,17.6v-0.8
			c0.9-0.7,1.5-1.8,1.5-3.1c0-2.1-1.6-3.8-3.5-3.8C10.1,10,8.5,11.7,8.5,13.8z"/>
		<path d="M12.1,12.3c0.1-0.1,0.3-0.2,0.4-0.1c0.2,0,0.3,0.1,0.4,0.3c0.2,0.4,0.6,0.5,0.8,0.6c0.2,0,0.4,0,0.6-0.1
			C14.1,11.8,13.1,11,12,11c-1.1,0-2,0.8-2.4,1.8C10.3,13.1,11.4,13,12.1,12.3z"/>
		<path d="M12,16.5c1.3,0,2.4-1.2,2.5-2.6C14.3,14,14.2,14,14,14c-0.1,0-0.2,0-0.3,0c-0.5-0.1-0.9-0.3-1.2-0.6
			c-0.9,0.6-2,0.7-2.9,0.5C9.5,15.3,10.6,16.5,12,16.5z"/>
	</g>
</g>
<g id="Outline_Icons">
	<g>
		<polyline class="st2" points="10.5,16.5 10.5,18 7.5,18.9 		"/>
		<polyline class="st2" points="13.5,16.5 13.5,18 16.5,18.9 		"/>
		<ellipse class="st2" cx="12" cy="13.8" rx="3" ry="3.3"/>
		<path class="st2" d="M14.9,13.2c-0.5,0.5-1.9,0.5-2.4-0.5c-1,1-2.6,1-3.4,0.4"/>
		<polyline class="st2" points="14.5,4.5 20.5,4.5 20.5,23.5 3.5,23.5 3.5,4.5 9.5,4.5 		"/>
		<polyline class="st2" points="14.5,6.5 18.5,6.5 18.5,21.5 5.5,21.5 5.5,6.5 9.5,6.5 		"/>
		<path class="st2" d="M14.5,8h-5V3c0-1.4,1.1-2.5,2.5-2.5s2.5,1.1,2.5,2.5V8z"/>
		<path class="st2" d="M12.5,3c0,0.3-0.2,0.5-0.5,0.5l0,0c-0.3,0-0.5-0.2-0.5-0.5l0,0c0-0.3,0.2-0.5,0.5-0.5l0,0
			C12.3,2.5,12.5,2.7,12.5,3L12.5,3z"/>
	</g>
</g>
</svg>
