<?xml version="1.0" encoding="utf-8"?>
<!-- Generator: Adobe Illustrator 19.2.0, SVG Export Plug-In . SVG Version: 6.00 Build 0)  -->
<svg version="1.1" id="Layer_1" xmlns="http://www.w3.org/2000/svg" xmlns:xlink="http://www.w3.org/1999/xlink" x="0px" y="0px"
	 viewBox="0 0 24 24" style="enable-background:new 0 0 24 24;" xml:space="preserve">
<style type="text/css">
	.st0{display:none;}
	.st1{display:inline;}
	.st2{fill:none;stroke:#000000;stroke-linecap:round;stroke-linejoin:round;stroke-miterlimit:10;}
</style>
<g id="Filled_Icons" class="st0">
	<g class="st1">
		<path d="M5,20v-2H0.4c-0.2,0.6-0.3,1.3-0.3,2H5z"/>
		<path d="M21.7,14c-0.5-0.7-1.1-1.4-1.8-2H18v2H21.7z"/>
		<rect x="12" y="12" width="5" height="2"/>
		<path d="M6,18v2h2c0-0.7,0.2-1.4,0.6-2H6z"/>
		<path d="M15.4,18c0.3,0.6,0.6,1.3,0.6,2h2v-2H15.4z"/>
		<rect x="5" y="15" width="3" height="2"/>
		<path d="M6,14v-2H4.1c-0.7,0.6-1.3,1.3-1.8,2H6z"/>
		<rect x="7" y="12" width="4" height="2"/>
		<path d="M4,15H1.6c-0.4,0.6-0.7,1.3-0.9,2H4V15z"/>
		<path d="M4,21H0v2.5C0,23.8,0.2,24,0.5,24H4V21z"/>
		<path d="M18.6,11c-1.9-1.3-4.2-2-6.6-2c-2.4,0-4.7,0.7-6.6,2H18.6z"/>
		<path d="M23.6,18H19v2h4.9C23.9,19.3,23.8,18.7,23.6,18z"/>
		<path d="M20,24h3.5c0.3,0,0.5-0.2,0.5-0.5V21h-4V24z"/>
		<rect x="16" y="21" width="3" height="3"/>
		<path d="M14.6,17H15v-2H9v2h0.4c0.7-0.6,1.6-1,2.6-1C13,16,13.9,16.4,14.6,17z"/>
		<path d="M22.4,15H20v2h3.3C23.1,16.3,22.7,15.6,22.4,15z"/>
		<rect x="16" y="15" width="3" height="2"/>
		<rect x="5" y="21" width="3" height="3"/>
	</g>
</g>
<g id="Outline_Icons">
	<g>
		<line class="st2" x1="15.5" y1="20.5" x2="23.5" y2="20.5"/>
		<line class="st2" x1="0.6" y1="20.5" x2="8.5" y2="20.5"/>
		<line class="st2" x1="14.5" y1="17.5" x2="23" y2="17.5"/>
		<line class="st2" x1="2.5" y1="14.5" x2="21.5" y2="14.5"/>
		<line class="st2" x1="5.5" y1="11.5" x2="18.5" y2="11.5"/>
		<line class="st2" x1="19.5" y1="20.5" x2="19.5" y2="23.5"/>
		<line class="st2" x1="18.5" y1="17.5" x2="18.5" y2="20.5"/>
		<line class="st2" x1="4.5" y1="20.5" x2="4.5" y2="23.5"/>
		<line class="st2" x1="5.5" y1="17.5" x2="5.5" y2="20.5"/>
		<line class="st2" x1="4.5" y1="14.5" x2="4.5" y2="17.5"/>
		<line class="st2" x1="8.5" y1="14.5" x2="8.5" y2="17.5"/>
		<line class="st2" x1="6.5" y1="11.5" x2="6.5" y2="14.5"/>
		<line class="st2" x1="11.5" y1="11.5" x2="11.5" y2="14.5"/>
		<line class="st2" x1="17.5" y1="11.5" x2="17.5" y2="14.5"/>
		<line class="st2" x1="15.5" y1="14.5" x2="15.5" y2="17.5"/>
		<line class="st2" x1="19.5" y1="14.5" x2="19.5" y2="17.5"/>
		<path class="st2" d="M0.5,21C0.5,14.6,5.6,9.5,12,9.5c6.4,0,11.5,5.1,11.5,11.5v2.5h-23V21z"/>
		<path class="st2" d="M8.5,20c0-1.9,1.6-3.5,3.5-3.5c1.9,0,3.5,1.6,3.5,3.5v3.5h-7V20z"/>
		<line class="st2" x1="1" y1="17.5" x2="9.6" y2="17.5"/>
	</g>
</g>
</svg>
