<?xml version="1.0" encoding="utf-8"?>
<!-- Generator: Adobe Illustrator 19.2.0, SVG Export Plug-In . SVG Version: 6.00 Build 0)  -->
<svg version="1.1" id="Layer_1" xmlns="http://www.w3.org/2000/svg" xmlns:xlink="http://www.w3.org/1999/xlink" x="0px" y="0px"
	 viewBox="0 0 24 24" style="enable-background:new 0 0 24 24;" xml:space="preserve">
<style type="text/css">
	.st0{display:none;}
	.st1{display:inline;}
	.st2{fill:none;stroke:#000000;stroke-linecap:round;stroke-linejoin:round;stroke-miterlimit:10;}
	.st3{fill:none;stroke:#000000;stroke-linejoin:round;stroke-miterlimit:10;}
</style>
<g id="Filled_Icons" class="st0">
	<path class="st1" d="M24,16.5C24,16.4,24,16.4,24,16.5c0-0.1,0-0.2-0.1-0.2c0,0,0,0,0,0l-3.5-6C20.3,10.1,20.2,10,20,10h-1V1.5
		C19,1.2,18.8,1,18.5,1h-13C5.2,1,5,1.2,5,1.5V10H4c-0.2,0-0.3,0.1-0.4,0.2l-3.5,6c0,0,0,0,0,0c0,0,0,0.1,0,0.1c0,0,0,0.1,0,0.1
		c0,0,0,0,0,0v7C0,23.8,0.2,24,0.5,24h23c0.3,0,0.5-0.2,0.5-0.5L24,16.5C24,16.5,24,16.5,24,16.5z M9.7,3.8c0.8,0,1.4,0.6,1.4,1.4
		c0,0.8-0.6,1.4-1.4,1.4C8.9,6.6,8.3,6,8.3,5.2C8.3,4.5,8.9,3.8,9.7,3.8z M7.2,12.3l1.9-3.7c0.1-0.1,0.2-0.2,0.3-0.3
		c0.1,0,0.3,0,0.4,0.1l2,1.7l2-3c0.1-0.2,0.3-0.2,0.5-0.2c0.2,0,0.3,0.1,0.4,0.3l2.1,5.2c0.1,0.2,0,0.3,0,0.5
		c-0.1,0.1-0.2,0.2-0.4,0.2H7.6c-0.2,0-0.3-0.1-0.4-0.2C7.1,12.6,7.1,12.4,7.2,12.3z M16.5,16c-0.3,0-0.5,0.2-0.5,0.5v1
		c0,0.8-0.7,1.5-1.5,1.5H10c-0.8,0-1.5-0.7-1.5-1.5v-1C8.5,16.2,8.3,16,8,16H1.4l2.9-5H5v3.5C5,14.8,5.2,15,5.5,15h13
		c0.3,0,0.5-0.2,0.5-0.5V11h0.7l2.9,5H16.5z"/>
</g>
<g id="Outline_Icons">
	<g>
		<path class="st2" d="M23.5,23.5h-23v-7H8v1c0,1.1,0.9,2,2,2h4.5c1.1,0,2-0.9,2-2v-1h7V23.5z"/>
		<polyline class="st2" points="0.5,16.5 4,10.5 5.5,10.5 		"/>
		<polyline class="st2" points="18.5,10.5 20,10.5 23.5,16.5 		"/>
		<polyline class="st2" points="5.5,14.5 5.5,1.5 18.5,1.5 18.5,14.5 		"/>
		<polygon class="st3" points="16.5,12.5 14.3,7.3 12,10.8 9.6,8.8 7.6,12.5 		"/>
		<circle class="st3" cx="9.7" cy="5.2" r="0.9"/>
	</g>
</g>
</svg>
