<?xml version="1.0" encoding="utf-8"?>
<!-- Generator: Adobe Illustrator 19.2.0, SVG Export Plug-In . SVG Version: 6.00 Build 0)  -->
<svg version="1.1" id="Layer_1" xmlns="http://www.w3.org/2000/svg" xmlns:xlink="http://www.w3.org/1999/xlink" x="0px" y="0px"
	 viewBox="0 0 24 24" style="enable-background:new 0 0 24 24;" xml:space="preserve">
<style type="text/css">
	.st0{display:none;}
	.st1{display:inline;}
	.st2{fill:none;stroke:#000000;stroke-linecap:round;stroke-linejoin:round;stroke-miterlimit:10;}
</style>
<g id="Filled_Icons" class="st0">
	<path class="st1" d="M24,16.5C24,16.4,24,16.4,24,16.5c0-0.1,0-0.2-0.1-0.2c0,0,0,0,0,0l-3.5-6C20.3,10.1,20.2,10,20,10h-1V1.5
		C19,1.2,18.8,1,18.5,1h-13C5.2,1,5,1.2,5,1.5V10H4c-0.2,0-0.3,0.1-0.4,0.2l-3.5,6c0,0,0,0,0,0c0,0,0,0.1,0,0.1c0,0,0,0.1,0,0.1
		c0,0,0,0,0,0v7C0,23.8,0.2,24,0.5,24h23c0.3,0,0.5-0.2,0.5-0.5L24,16.5C24,16.5,24,16.5,24,16.5z M10.5,6h5C15.8,6,16,6.2,16,6.5
		C16,6.8,15.8,7,15.5,7h-5C10.2,7,10,6.8,10,6.5C10,6.2,10.2,6,10.5,6z M8.5,4h1C9.8,4,10,4.2,10,4.5C10,4.8,9.8,5,9.5,5h-1
		C8.2,5,8,4.8,8,4.5C8,4.2,8.2,4,8.5,4z M8.5,8h7C15.8,8,16,8.2,16,8.5C16,8.8,15.8,9,15.5,9h-7C8.2,9,8,8.8,8,8.5
		C8,8.2,8.2,8,8.5,8z M8.5,10h7c0.3,0,0.5,0.2,0.5,0.5c0,0.3-0.2,0.5-0.5,0.5h-7C8.2,11,8,10.8,8,10.5C8,10.2,8.2,10,8.5,10z
		 M8.5,12h7c0.3,0,0.5,0.2,0.5,0.5c0,0.3-0.2,0.5-0.5,0.5h-7C8.2,13,8,12.8,8,12.5C8,12.2,8.2,12,8.5,12z M16.5,16
		c-0.3,0-0.5,0.2-0.5,0.5v1c0,0.8-0.7,1.5-1.5,1.5H10c-0.8,0-1.5-0.7-1.5-1.5v-1C8.5,16.2,8.3,16,8,16H1.4l2.9-5H5v3.5
		C5,14.8,5.2,15,5.5,15h13c0.3,0,0.5-0.2,0.5-0.5V11h0.7l2.9,5H16.5z"/>
</g>
<g id="Outline_Icons">
	<g>
		<polyline class="st2" points="18.5,14.5 18.5,1.5 5.5,1.5 5.5,14.5 		"/>
		<line class="st2" x1="8.5" y1="4.5" x2="9.5" y2="4.5"/>
		<line class="st2" x1="10.5" y1="6.5" x2="15.5" y2="6.5"/>
		<line class="st2" x1="8.5" y1="8.5" x2="15.5" y2="8.5"/>
		<line class="st2" x1="8.5" y1="10.5" x2="15.5" y2="10.5"/>
		<line class="st2" x1="8.5" y1="12.5" x2="15.5" y2="12.5"/>
		<path class="st2" d="M23.5,23.5h-23v-7H8v1c0,1.1,0.9,2,2,2h4.5c1.1,0,2-0.9,2-2v-1h7V23.5z"/>
		<polyline class="st2" points="0.5,16.5 4,10.5 5.5,10.5 		"/>
		<polyline class="st2" points="18.5,10.5 20,10.5 23.5,16.5 		"/>
	</g>
</g>
</svg>
