<?xml version="1.0" encoding="utf-8"?>
<!-- Generator: Adobe Illustrator 19.2.0, SVG Export Plug-In . SVG Version: 6.00 Build 0)  -->
<svg version="1.1" id="Layer_1" xmlns="http://www.w3.org/2000/svg" xmlns:xlink="http://www.w3.org/1999/xlink" x="0px" y="0px"
	 viewBox="0 0 24 24" style="enable-background:new 0 0 24 24;" xml:space="preserve">
<style type="text/css">
	.st0{display:none;}
	.st1{display:inline;}
	.st2{fill:none;stroke:#000000;stroke-linecap:round;stroke-linejoin:round;stroke-miterlimit:10;}
</style>
<g id="Filled_Icons" class="st0">
	<g class="st1">
		<path d="M24,16.5C24,16.4,24,16.4,24,16.5c0-0.1,0-0.2-0.1-0.2c0,0,0,0,0,0l-3.5-6C20.3,10.1,20.2,10,20,10h-3
			c-0.3,0-0.5,0.2-0.5,0.5c0,0.3,0.2,0.5,0.5,0.5h2.7l2.9,5h-6.1c-0.3,0-0.5,0.2-0.5,0.5v1c0,0.8-0.7,1.5-1.5,1.5H10
			c-0.8,0-1.5-0.7-1.5-1.5v-1C8.5,16.2,8.3,16,8,16H1.4l2.9-5h2.2C6.8,11,7,10.8,7,10.5C7,10.2,6.8,10,6.5,10H4
			c-0.2,0-0.3,0.1-0.4,0.2l-3.5,6c0,0,0,0,0,0c0,0,0,0.1,0,0.1c0,0,0,0.1,0,0.1c0,0,0,0,0,0v7C0,23.8,0.2,24,0.5,24h23
			c0.3,0,0.5-0.2,0.5-0.5L24,16.5C24,16.5,24,16.5,24,16.5z"/>
		<path d="M11.1,11.9c0.1,0.1,0.2,0.1,0.4,0.1c0.1,0,0.3-0.1,0.4-0.1l4-4c0.2-0.2,0.2-0.5,0-0.7c-0.2-0.2-0.5-0.2-0.7,0L12,10.3V0.5
			C12,0.2,11.8,0,11.5,0C11.2,0,11,0.2,11,0.5v9.8L7.9,7.1C7.7,7,7.3,7,7.1,7.1C7,7.3,7,7.7,7.1,7.9L11.1,11.9z"/>
	</g>
</g>
<g id="Outline_Icons">
	<g>
		<path class="st2" d="M23.5,23.5h-23v-7H8v1c0,1.1,0.9,2,2,2h4.5c1.1,0,2-0.9,2-2v-1h7V23.5z"/>
		<polyline class="st2" points="0.5,16.5 4,10.5 6.5,10.5 		"/>
		<polyline class="st2" points="17,10.5 20,10.5 23.5,16.5 		"/>
		<g>
			<line class="st2" x1="11.5" y1="11.5" x2="11.5" y2="0.5"/>
			<polyline class="st2" points="15.5,7.5 11.5,11.5 7.5,7.5 			"/>
		</g>
	</g>
</g>
</svg>
