<?xml version="1.0" encoding="utf-8"?>
<!-- Generator: Adobe Illustrator 19.2.0, SVG Export Plug-In . SVG Version: 6.00 Build 0)  -->
<svg version="1.1" id="Layer_1" xmlns="http://www.w3.org/2000/svg" xmlns:xlink="http://www.w3.org/1999/xlink" x="0px" y="0px"
	 viewBox="0 0 24 24" style="enable-background:new 0 0 24 24;" xml:space="preserve">
<style type="text/css">
	.st0{display:none;}
	.st1{display:inline;}
	.st2{fill:none;stroke:#000000;stroke-linejoin:round;stroke-miterlimit:10;}
	.st3{fill:none;stroke:#000000;stroke-linecap:round;stroke-linejoin:round;stroke-miterlimit:10;}
</style>
<g id="Filled_Icons" class="st0">
	<g class="st1">
		<path d="M21.8,8.1c0,0-0.1,0-0.1-0.1l0,0l-4-1.5l-0.4,0.9l2.8,1L11.5,12L2.9,8.5l2.8-1L5.3,6.5L1.3,8v0c0,0-0.1,0-0.1,0.1
			C1.1,8.2,1,8.3,1,8.5v10c0,0.2,0.1,0.4,0.3,0.4l10,5c0.1,0,0.1,0.1,0.2,0.1c0.1,0,0.2,0,0.2-0.1l10-5c0.2-0.1,0.3-0.3,0.3-0.4v-10
			C22,8.3,21.9,8.2,21.8,8.1z"/>
		<path d="M11.1,8.9c0,0,0.1,0.1,0.2,0.1c0.1,0,0.1,0,0.2,0c0.1,0,0.1,0,0.2,0c0.1,0,0.1-0.1,0.2-0.1l4-4c0.2-0.2,0.2-0.5,0-0.7
			c-0.2-0.2-0.5-0.2-0.7,0L12,7.3V0.5C12,0.2,11.8,0,11.5,0C11.2,0,11,0.2,11,0.5v6.8L7.9,4.1C7.7,4,7.3,4,7.1,4.1
			C7,4.3,7,4.7,7.1,4.9L11.1,8.9z"/>
	</g>
</g>
<g id="Outline_Icons">
	<g>
		<polygon class="st2" points="11.5,23.5 21.5,18.5 21.5,8.5 11.5,12.5 1.5,8.5 1.5,18.5 		"/>
		<line class="st2" x1="11.5" y1="12.5" x2="11.5" y2="23.5"/>
		<line class="st2" x1="5.5" y1="7" x2="1.5" y2="8.5"/>
		<line class="st2" x1="21.5" y1="8.5" x2="17.5" y2="7"/>
		<g>
			<line class="st3" x1="11.5" y1="8.5" x2="11.5" y2="0.5"/>
			<polyline class="st3" points="15.5,4.5 11.5,8.5 7.5,4.5 			"/>
		</g>
	</g>
</g>
</svg>
