<?xml version="1.0" encoding="utf-8"?>
<!-- Generator: Adobe Illustrator 19.2.0, SVG Export Plug-In . SVG Version: 6.00 Build 0)  -->
<svg version="1.1" id="Layer_1" xmlns="http://www.w3.org/2000/svg" xmlns:xlink="http://www.w3.org/1999/xlink" x="0px" y="0px"
	 viewBox="0 0 24 24" style="enable-background:new 0 0 24 24;" xml:space="preserve">
<style type="text/css">
	.st0{display:none;}
	.st1{display:inline;}
	.st2{fill:none;stroke:#000000;stroke-linecap:round;stroke-linejoin:round;stroke-miterlimit:10;}
</style>
<g id="Filled_Icon" class="st0">
	<g class="st1">
		<path d="M19,22H1c-0.6,0-1,0.4-1,1c0,0.6,0.4,1,1,1h18c0.6,0,1-0.4,1-1C20,22.4,19.5,22,19,22z"/>
		<path d="M1,3h18c0.6,0,1-0.4,1-1c0-0.6-0.4-1-1-1H1C0.4,1,0,1.4,0,2C0,2.5,0.4,3,1,3z"/>
		<path d="M1,6h13.5c0.6,0,1-0.4,1-1c0-0.6-0.4-1-1-1H1C0.4,4,0,4.4,0,5C0,5.5,0.4,6,1,6z"/>
		<path d="M1,9h13.5c0.6,0,1-0.4,1-1c0-0.6-0.4-1-1-1H1C0.4,7,0,7.4,0,8C0,8.5,0.4,9,1,9z"/>
		<path d="M1,12h13.5c0.6,0,1-0.4,1-1c0-0.6-0.4-1-1-1H1c-0.6,0-1,0.4-1,1C0,11.5,0.4,12,1,12z"/>
		<path d="M1,15h13.5c0.6,0,1-0.4,1-1c0-0.6-0.4-1-1-1H1c-0.6,0-1,0.4-1,1C0,14.5,0.4,15,1,15z"/>
		<path d="M1,18h13.5c0.6,0,1-0.4,1-1c0-0.6-0.4-1-1-1H1c-0.6,0-1,0.4-1,1C0,17.5,0.4,18,1,18z"/>
		<path d="M1,21h13.5c0.6,0,1-0.4,1-1c0-0.6-0.4-1-1-1H1c-0.6,0-1,0.4-1,1C0,20.5,0.4,21,1,21z"/>
		<path d="M23.8,12.1l-6-5.5c-0.1-0.1-0.4-0.2-0.5-0.1C17.1,6.6,17,6.8,17,7v11c0,0.2,0.1,0.4,0.3,0.5c0.1,0,0.1,0,0.2,0
			c0.1,0,0.2,0,0.3-0.1l6-5.5c0.1-0.1,0.2-0.2,0.2-0.4C24,12.4,23.9,12.2,23.8,12.1z"/>
	</g>
</g>
<g id="Outline_Icons">
	<g>
		<line class="st2" x1="0.5" y1="23.5" x2="19" y2="23.5"/>
		<line class="st2" x1="0.5" y1="2.5" x2="19" y2="2.5"/>
		<line class="st2" x1="0.5" y1="5.5" x2="14.5" y2="5.5"/>
		<line class="st2" x1="0.5" y1="8.5" x2="14.5" y2="8.5"/>
		<line class="st2" x1="0.5" y1="11.5" x2="14.5" y2="11.5"/>
		<line class="st2" x1="0.5" y1="14.5" x2="14.5" y2="14.5"/>
		<line class="st2" x1="0.5" y1="17.5" x2="14.5" y2="17.5"/>
		<line class="st2" x1="0.5" y1="20.5" x2="14.5" y2="20.5"/>
		<polygon class="st2" points="17.5,7.5 17.5,18.5 23.5,13 		"/>
	</g>
</g>
</svg>
