<?xml version="1.0" encoding="utf-8"?>
<!-- Generator: Adobe Illustrator 19.2.0, SVG Export Plug-In . SVG Version: 6.00 Build 0)  -->
<svg version="1.1" id="Layer_1" xmlns="http://www.w3.org/2000/svg" xmlns:xlink="http://www.w3.org/1999/xlink" x="0px" y="0px"
	 viewBox="0 0 24 24" style="enable-background:new 0 0 24 24;" xml:space="preserve">
<style type="text/css">
	.st0{display:none;}
	.st1{display:inline;}
	.st2{fill:none;stroke:#000000;stroke-linecap:round;stroke-linejoin:round;stroke-miterlimit:10;}
</style>
<g id="Filled_Icon" class="st0">
	<g class="st1">
		<path d="M15,3H1C0.4,3,0,2.5,0,2c0-0.6,0.4-1,1-1h14c0.6,0,1,0.4,1,1C16,2.5,15.5,3,15,3z"/>
		<path d="M1,22h14c0.6,0,1,0.4,1,1c0,0.6-0.4,1-1,1H1c-0.6,0-1-0.4-1-1C0,22.4,0.4,22,1,22z"/>
		<path d="M1,19h14c0.6,0,1,0.4,1,1c0,0.6-0.4,1-1,1H1c-0.6,0-1-0.4-1-1C0,19.4,0.4,19,1,19z"/>
		<path d="M1,16h7.5c0.6,0,1,0.4,1,1c0,0.6-0.4,1-1,1H1c-0.6,0-1-0.4-1-1C0,16.4,0.4,16,1,16z"/>
		<path d="M1,13h7.5c0.6,0,1,0.4,1,1c0,0.6-0.4,1-1,1H1c-0.6,0-1-0.4-1-1C0,13.4,0.4,13,1,13z"/>
		<path d="M1,10h7.5c0.6,0,1,0.4,1,1c0,0.6-0.4,1-1,1H1c-0.6,0-1-0.4-1-1C0,10.4,0.4,10,1,10z"/>
		<path d="M1,7h7.5c0.6,0,1,0.4,1,1c0,0.6-0.4,1-1,1H1C0.4,9,0,8.5,0,8C0,7.4,0.4,7,1,7z"/>
		<path d="M1,4h14c0.6,0,1,0.4,1,1c0,0.6-0.4,1-1,1H1C0.4,6,0,5.5,0,5C0,4.4,0.4,4,1,4z"/>
		<path d="M11,15.5v-6C11,9.2,11.2,9,11.5,9H17V7c0-0.2,0.1-0.4,0.3-0.5c0.2-0.1,0.4,0,0.5,0.1l6,5.5c0.1,0.1,0.2,0.2,0.2,0.4
			c0,0.1-0.1,0.3-0.2,0.4l-6,5.5c-0.1,0.1-0.2,0.1-0.3,0.1c-0.1,0-0.1,0-0.2,0C17.1,18.4,17,18.2,17,18v-2h-5.5
			C11.2,16,11,15.8,11,15.5z"/>
	</g>
</g>
<g id="Outline_Icons">
	<g>
		<line class="st2" x1="0.5" y1="23.5" x2="15" y2="23.5"/>
		<line class="st2" x1="0.5" y1="2.5" x2="15" y2="2.5"/>
		<line class="st2" x1="0.5" y1="5.5" x2="15" y2="5.5"/>
		<line class="st2" x1="0.5" y1="8.5" x2="8.5" y2="8.5"/>
		<line class="st2" x1="0.5" y1="11.5" x2="8.5" y2="11.5"/>
		<line class="st2" x1="0.5" y1="14.5" x2="8.5" y2="14.5"/>
		<line class="st2" x1="0.5" y1="17.5" x2="8.5" y2="17.5"/>
		<line class="st2" x1="0.5" y1="20.5" x2="15" y2="20.5"/>
		<polygon class="st2" points="17.5,7.5 17.5,10.5 11.5,10.5 11.5,15.5 17.5,15.5 17.5,18.5 23.5,13 		"/>
	</g>
</g>
</svg>
