<?xml version="1.0" encoding="utf-8"?>
<!-- Generator: Adobe Illustrator 19.2.0, SVG Export Plug-In . SVG Version: 6.00 Build 0)  -->
<svg version="1.1" id="Layer_1" xmlns="http://www.w3.org/2000/svg" xmlns:xlink="http://www.w3.org/1999/xlink" x="0px" y="0px"
	 viewBox="0 0 24 24" style="enable-background:new 0 0 24 24;" xml:space="preserve">
<style type="text/css">
	.st0{display:none;}
	.st1{display:inline;}
	.st2{fill:none;stroke:#000000;stroke-linecap:round;stroke-linejoin:round;stroke-miterlimit:10;}
</style>
<g id="Filled_Icon" class="st0">
	<g class="st1">
		<path d="M5,3h18c0.6,0,1-0.4,1-1c0-0.6-0.4-1-1-1H5C4.4,1,4,1.4,4,2C4,2.5,4.4,3,5,3z"/>
		<path d="M23,22H5c-0.6,0-1,0.4-1,1c0,0.6,0.4,1,1,1h18c0.6,0,1-0.4,1-1C24,22.4,23.5,22,23,22z"/>
		<path d="M23,19H9.5c-0.6,0-1,0.4-1,1c0,0.6,0.4,1,1,1H23c0.6,0,1-0.4,1-1C24,19.4,23.5,19,23,19z"/>
		<path d="M23,16H9.5c-0.6,0-1,0.4-1,1c0,0.6,0.4,1,1,1H23c0.6,0,1-0.4,1-1C24,16.4,23.5,16,23,16z"/>
		<path d="M23,13H9.5c-0.6,0-1,0.4-1,1c0,0.6,0.4,1,1,1H23c0.6,0,1-0.4,1-1C24,13.4,23.5,13,23,13z"/>
		<path d="M23,10H9.5c-0.6,0-1,0.4-1,1c0,0.6,0.4,1,1,1H23c0.6,0,1-0.4,1-1C24,10.4,23.5,10,23,10z"/>
		<path d="M23,7H9.5c-0.6,0-1,0.4-1,1c0,0.6,0.4,1,1,1H23c0.6,0,1-0.4,1-1C24,7.4,23.5,7,23,7z"/>
		<path d="M23,4H9.5c-0.6,0-1,0.4-1,1c0,0.6,0.4,1,1,1H23c0.6,0,1-0.4,1-1C24,4.4,23.5,4,23,4z"/>
		<path d="M6.5,18.5c0.1,0,0.1,0,0.2,0C6.9,18.4,7,18.2,7,18V7c0-0.2-0.1-0.4-0.3-0.5c-0.2-0.1-0.4,0-0.5,0.1l-6,5.5
			C0,12.2,0,12.4,0,12.5c0,0.1,0.1,0.3,0.2,0.4l6,5.5C6.2,18.4,6.3,18.5,6.5,18.5z"/>
	</g>
</g>
<g id="Outline_Icons">
	<g>
		<line class="st2" x1="23.5" y1="2.5" x2="5" y2="2.5"/>
		<line class="st2" x1="23.5" y1="23.5" x2="5" y2="23.5"/>
		<line class="st2" x1="23.5" y1="20.5" x2="9.5" y2="20.5"/>
		<line class="st2" x1="23.5" y1="17.5" x2="9.5" y2="17.5"/>
		<line class="st2" x1="23.5" y1="14.5" x2="9.5" y2="14.5"/>
		<line class="st2" x1="23.5" y1="11.5" x2="9.5" y2="11.5"/>
		<line class="st2" x1="23.5" y1="8.5" x2="9.5" y2="8.5"/>
		<line class="st2" x1="23.5" y1="5.5" x2="9.5" y2="5.5"/>
		<polygon class="st2" points="6.5,18.5 6.5,7.5 0.5,13 		"/>
	</g>
</g>
</svg>
