<?xml version="1.0" encoding="utf-8"?>
<!-- Generator: Adobe Illustrator 19.2.0, SVG Export Plug-In . SVG Version: 6.00 Build 0)  -->
<svg version="1.1" id="Layer_1" xmlns="http://www.w3.org/2000/svg" xmlns:xlink="http://www.w3.org/1999/xlink" x="0px" y="0px"
	 viewBox="0 0 24 24" style="enable-background:new 0 0 24 24;" xml:space="preserve">
<style type="text/css">
	.st0{display:none;}
	.st1{display:inline;}
	.st2{fill:none;stroke:#000000;stroke-linecap:round;stroke-linejoin:round;stroke-miterlimit:10;}
</style>
<g id="Filled_Icon" class="st0">
	<g class="st1">
		<path d="M23,10.5h-3.1l0.3-0.3c0.4-0.4,0.4-1,0-1.4c-0.4-0.4-1-0.4-1.4,0l-2,2c-0.4,0.4-0.4,1,0,1.4l2,2c0.2,0.2,0.5,0.3,0.7,0.3
			c0.3,0,0.5-0.1,0.7-0.3c0.4-0.4,0.4-1,0-1.4l-0.3-0.3H23c0.6,0,1-0.4,1-1C24,10.9,23.6,10.5,23,10.5z"/>
		<path d="M15,0c-0.6,0-1,0.4-1,1v22c0,0.6,0.4,1,1,1c0.6,0,1-0.4,1-1V1C16,0.4,15.6,0,15,0z"/>
		<path d="M11.5,22H2c-0.6,0-1,0.4-1,1c0,0.6,0.4,1,1,1h9.5c0.6,0,1-0.4,1-1C12.5,22.4,12.1,22,11.5,22z"/>
		<path d="M11.5,1H1C0.4,1,0,1.4,0,2c0,0.6,0.4,1,1,1h10.5c0.6,0,1-0.4,1-1C12.5,1.4,12.1,1,11.5,1z"/>
		<path d="M11.5,4H4C3.4,4,3,4.4,3,5c0,0.6,0.4,1,1,1h7.5c0.6,0,1-0.4,1-1C12.5,4.4,12.1,4,11.5,4z"/>
		<path d="M11.5,7H1C0.4,7,0,7.4,0,8c0,0.6,0.4,1,1,1h10.5c0.6,0,1-0.4,1-1C12.5,7.4,12.1,7,11.5,7z"/>
		<path d="M11.5,10H2c-0.6,0-1,0.4-1,1c0,0.6,0.4,1,1,1h9.5c0.6,0,1-0.4,1-1C12.5,10.4,12.1,10,11.5,10z"/>
		<path d="M11.5,13H1c-0.6,0-1,0.4-1,1c0,0.6,0.4,1,1,1h10.5c0.6,0,1-0.4,1-1C12.5,13.4,12.1,13,11.5,13z"/>
		<path d="M11.5,16H4c-0.6,0-1,0.4-1,1c0,0.6,0.4,1,1,1h7.5c0.6,0,1-0.4,1-1C12.5,16.4,12.1,16,11.5,16z"/>
		<path d="M11.5,19H1c-0.6,0-1,0.4-1,1c0,0.6,0.4,1,1,1h10.5c0.6,0,1-0.4,1-1C12.5,19.4,12.1,19,11.5,19z"/>
	</g>
</g>
<g id="Outline_Icons">
	<g>
		<line class="st2" x1="23.5" y1="11.5" x2="17.5" y2="11.5"/>
		<polyline class="st2" points="19.5,13.5 17.5,11.5 19.5,9.5 		"/>
		<line class="st2" x1="15.5" y1="0.5" x2="15.5" y2="23.5"/>
		<line class="st2" x1="1.5" y1="22.5" x2="11.5" y2="22.5"/>
		<line class="st2" x1="0.5" y1="1.5" x2="11.5" y2="1.5"/>
		<line class="st2" x1="3.5" y1="4.5" x2="11.5" y2="4.5"/>
		<line class="st2" x1="0.5" y1="7.5" x2="11.5" y2="7.5"/>
		<line class="st2" x1="1.5" y1="10.5" x2="11.5" y2="10.5"/>
		<line class="st2" x1="0.5" y1="13.5" x2="11.5" y2="13.5"/>
		<line class="st2" x1="3.5" y1="16.5" x2="11.5" y2="16.5"/>
		<line class="st2" x1="0.5" y1="19.5" x2="11.5" y2="19.5"/>
	</g>
</g>
</svg>
