<?xml version="1.0" encoding="utf-8"?>
<!-- Generator: Adobe Illustrator 19.2.0, SVG Export Plug-In . SVG Version: 6.00 Build 0)  -->
<svg version="1.1" id="Layer_1" xmlns="http://www.w3.org/2000/svg" xmlns:xlink="http://www.w3.org/1999/xlink" x="0px" y="0px"
	 viewBox="0 0 24 24" style="enable-background:new 0 0 24 24;" xml:space="preserve">
<style type="text/css">
	.st0{display:none;}
	.st1{display:inline;}
	.st2{fill:none;stroke:#000000;stroke-linecap:round;stroke-linejoin:round;stroke-miterlimit:10;}
</style>
<g id="Filled_Icon" class="st0">
	<g class="st1">
		<path d="M7.2,10.8l-2-2c-0.4-0.4-1-0.4-1.4,0c-0.4,0.4-0.4,1,0,1.4l0.3,0.3H1c-0.6,0-1,0.4-1,1c0,0.6,0.4,1,1,1h3.1l-0.3,0.3
			c-0.4,0.4-0.4,1,0,1.4c0.2,0.2,0.5,0.3,0.7,0.3c0.3,0,0.5-0.1,0.7-0.3l2-2C7.6,11.8,7.6,11.2,7.2,10.8z"/>
		<path d="M9,0C8.4,0,8,0.4,8,1v22c0,0.6,0.4,1,1,1c0.6,0,1-0.4,1-1V1C10,0.4,9.6,0,9,0z"/>
		<path d="M22,22h-9.5c-0.6,0-1,0.4-1,1c0,0.6,0.4,1,1,1H22c0.6,0,1-0.4,1-1C23,22.4,22.6,22,22,22z"/>
		<path d="M12.5,3H23c0.6,0,1-0.4,1-1c0-0.6-0.4-1-1-1H12.5c-0.6,0-1,0.4-1,1C11.5,2.5,11.9,3,12.5,3z"/>
		<path d="M12.5,6H20c0.6,0,1-0.4,1-1c0-0.6-0.4-1-1-1h-7.5c-0.6,0-1,0.4-1,1C11.5,5.5,11.9,6,12.5,6z"/>
		<path d="M23,7H12.5c-0.6,0-1,0.4-1,1c0,0.6,0.4,1,1,1H23c0.6,0,1-0.4,1-1C24,7.4,23.6,7,23,7z"/>
		<path d="M12.5,12H22c0.6,0,1-0.4,1-1c0-0.6-0.4-1-1-1h-9.5c-0.6,0-1,0.4-1,1C11.5,11.5,11.9,12,12.5,12z"/>
		<path d="M23,13H12.5c-0.6,0-1,0.4-1,1c0,0.6,0.4,1,1,1H23c0.6,0,1-0.4,1-1C24,13.4,23.6,13,23,13z"/>
		<path d="M12.5,18H20c0.6,0,1-0.4,1-1c0-0.6-0.4-1-1-1h-7.5c-0.6,0-1,0.4-1,1C11.5,17.5,11.9,18,12.5,18z"/>
		<path d="M23,19H12.5c-0.6,0-1,0.4-1,1c0,0.6,0.4,1,1,1H23c0.6,0,1-0.4,1-1C24,19.4,23.6,19,23,19z"/>
	</g>
</g>
<g id="Outline_Icons">
	<g>
		<line class="st2" x1="0.5" y1="11.5" x2="6.5" y2="11.5"/>
		<polyline class="st2" points="4.5,13.5 6.5,11.5 4.5,9.5 		"/>
		<line class="st2" x1="8.5" y1="0.5" x2="8.5" y2="23.5"/>
		<line class="st2" x1="22.5" y1="22.5" x2="12.5" y2="22.5"/>
		<line class="st2" x1="23.5" y1="1.5" x2="12.5" y2="1.5"/>
		<line class="st2" x1="20.5" y1="4.5" x2="12.5" y2="4.5"/>
		<line class="st2" x1="23.5" y1="7.5" x2="12.5" y2="7.5"/>
		<line class="st2" x1="22.5" y1="10.5" x2="12.5" y2="10.5"/>
		<line class="st2" x1="23.5" y1="13.5" x2="12.5" y2="13.5"/>
		<line class="st2" x1="20.5" y1="16.5" x2="12.5" y2="16.5"/>
		<line class="st2" x1="23.5" y1="19.5" x2="12.5" y2="19.5"/>
	</g>
</g>
</svg>
