<?xml version="1.0" encoding="utf-8"?>
<!-- Generator: Adobe Illustrator 19.2.0, SVG Export Plug-In . SVG Version: 6.00 Build 0)  -->
<svg version="1.1" id="Layer_1" xmlns="http://www.w3.org/2000/svg" xmlns:xlink="http://www.w3.org/1999/xlink" x="0px" y="0px"
	 viewBox="0 0 24 24" style="enable-background:new 0 0 24 24;" xml:space="preserve">
<style type="text/css">
	.st0{display:none;}
	.st1{display:inline;}
	.st2{fill:none;stroke:#000000;stroke-linecap:round;stroke-linejoin:round;stroke-miterlimit:10;}
</style>
<g id="Filled_Icon" class="st0">
	<g class="st1">
		<path d="M9,3h14c0.6,0,1-0.4,1-1c0-0.6-0.4-1-1-1H9C8.4,1,8,1.4,8,2C8,2.5,8.4,3,9,3z"/>
		<path d="M23,22H9c-0.6,0-1,0.4-1,1c0,0.6,0.4,1,1,1h14c0.6,0,1-0.4,1-1C24,22.4,23.6,22,23,22z"/>
		<path d="M23,19H9c-0.6,0-1,0.4-1,1c0,0.6,0.4,1,1,1h14c0.6,0,1-0.4,1-1C24,19.4,23.6,19,23,19z"/>
		<path d="M23,16h-7.5c-0.6,0-1,0.4-1,1c0,0.6,0.4,1,1,1H23c0.6,0,1-0.4,1-1C24,16.4,23.6,16,23,16z"/>
		<path d="M23,13h-7.5c-0.6,0-1,0.4-1,1c0,0.6,0.4,1,1,1H23c0.6,0,1-0.4,1-1C24,13.4,23.6,13,23,13z"/>
		<path d="M23,10h-7.5c-0.6,0-1,0.4-1,1c0,0.6,0.4,1,1,1H23c0.6,0,1-0.4,1-1C24,10.4,23.6,10,23,10z"/>
		<path d="M23,7h-7.5c-0.6,0-1,0.4-1,1c0,0.6,0.4,1,1,1H23c0.6,0,1-0.4,1-1C24,7.4,23.6,7,23,7z"/>
		<path d="M23,4H9C8.4,4,8,4.4,8,5c0,0.6,0.4,1,1,1h14c0.6,0,1-0.4,1-1C24,4.4,23.6,4,23,4z"/>
		<path d="M13,15.5v-6C13,9.2,12.8,9,12.5,9H7V7c0-0.2-0.1-0.4-0.3-0.5c-0.2-0.1-0.4,0-0.5,0.1l-6,5.5C0.1,12.2,0,12.4,0,12.5
			c0,0.1,0.1,0.3,0.2,0.4l6,5.5c0.1,0.1,0.2,0.1,0.3,0.1c0.1,0,0.1,0,0.2,0C6.9,18.4,7,18.2,7,18v-2h5.5C12.8,16,13,15.8,13,15.5z"
			/>
	</g>
</g>
<g id="Outline_Icons">
	<g>
		<line class="st2" x1="23.5" y1="2.5" x2="9" y2="2.5"/>
		<line class="st2" x1="23.5" y1="23.5" x2="9" y2="23.5"/>
		<line class="st2" x1="23.5" y1="20.5" x2="9" y2="20.5"/>
		<line class="st2" x1="23.5" y1="17.5" x2="15.5" y2="17.5"/>
		<line class="st2" x1="23.5" y1="14.5" x2="15.5" y2="14.5"/>
		<line class="st2" x1="23.5" y1="11.5" x2="15.5" y2="11.5"/>
		<line class="st2" x1="23.5" y1="8.5" x2="15.5" y2="8.5"/>
		<line class="st2" x1="23.5" y1="5.5" x2="9" y2="5.5"/>
		<polygon class="st2" points="6.5,18.5 6.5,15.5 12.5,15.5 12.5,10.5 6.5,10.5 6.5,7.5 0.5,13 		"/>
	</g>
</g>
</svg>
