<?xml version="1.0" encoding="utf-8"?>
<!-- Generator: Adobe Illustrator 19.2.0, SVG Export Plug-In . SVG Version: 6.00 Build 0)  -->
<svg version="1.1" id="Layer_1" xmlns="http://www.w3.org/2000/svg" xmlns:xlink="http://www.w3.org/1999/xlink" x="0px" y="0px"
	 viewBox="0 0 24 24" enable-background="new 0 0 24 24" xml:space="preserve">
<g id="Filled_Icons" display="none">
	<g display="inline">
		<path d="M10.5,21.506h-8c-0.842,0-1.5,0.549-1.5,1.25c0,0.701,0.658,1.25,1.5,1.25h8c0.841,0,1.5-0.549,1.5-1.25
			C12,22.055,11.341,21.506,10.5,21.506z"/>
		<path d="M23.5,3.506h-2v6h2c0.275,0,0.5-0.224,0.5-0.5v-5C24,3.729,23.775,3.506,23.5,3.506z"/>
		<path d="M20.5,4.506h-4c-0.275,0-0.5,0.224-0.5,0.5v3c0,0.276,0.225,0.5,0.5,0.5H18v3.022c0,4.412-3.589,8-8,8v-12
			c0-0.276-0.224-0.5-0.5-0.5H7V4.006h5.5c0.275,0,0.5-0.224,0.5-0.5v-3c0-0.276-0.225-0.5-0.5-0.5h-12c-0.276,0-0.5,0.224-0.5,0.5
			v3c0,0.276,0.224,0.5,0.5,0.5H6v3.022H3.5c-0.276,0-0.5,0.224-0.5,0.5v12.978h7.443C15.199,20.272,19,16.342,19,11.528V8.506h1.5
			V4.506z"/>
	</g>
</g>
<g id="Outline_Icons">
	<g>
		<path fill="none" stroke="#000000" stroke-linejoin="round" stroke-miterlimit="10" d="M11.5,22.522c0,0.554-0.447,1-1,1h-8
			c-0.553,0-1-0.446-1-1c0-0.551,0.447-1,1-1h8C11.053,21.522,11.5,21.971,11.5,22.522z"/>
		<rect x="3.5" y="7.522" fill="none" stroke="#000000" stroke-linejoin="round" stroke-miterlimit="10" width="6" height="14"/>
		<line fill="none" stroke="#000000" stroke-linejoin="round" stroke-miterlimit="10" x1="6.5" y1="7.522" x2="6.5" y2="3.522"/>
		<rect x="0.5" y="0.522" fill="none" stroke="#000000" stroke-linejoin="round" stroke-miterlimit="10" width="12" height="3"/>
		<path fill="none" stroke="#000000" stroke-linejoin="round" stroke-miterlimit="10" d="M18.5,8.522v3.5c0,4.694-3.807,8.5-8.5,8.5
			H9.5"/>
		<rect x="16.5" y="5.522" fill="none" stroke="#000000" stroke-linejoin="round" stroke-miterlimit="10" width="4" height="3"/>
		<rect x="20.5" y="4.522" fill="none" stroke="#000000" stroke-linejoin="round" stroke-miterlimit="10" width="3" height="5"/>
	</g>
</g>
</svg>
