<?xml version="1.0" encoding="utf-8"?>
<!-- Generator: Adobe Illustrator 19.2.0, SVG Export Plug-In . SVG Version: 6.00 Build 0)  -->
<svg version="1.1" id="Layer_1" xmlns="http://www.w3.org/2000/svg" xmlns:xlink="http://www.w3.org/1999/xlink" x="0px" y="0px"
	 viewBox="0 0 24 24" style="enable-background:new 0 0 24 24;" xml:space="preserve">
<style type="text/css">
	.st0{display:none;}
	.st1{display:inline;}
	.st2{fill:none;stroke:#000000;stroke-linecap:round;stroke-linejoin:round;stroke-miterlimit:10;}
	.st3{fill:none;stroke:#000000;stroke-linejoin:round;stroke-miterlimit:10;}
</style>
<g id="Filled_Icons" class="st0">
	<path class="st1" d="M11.5,1C5.2,1,0,6.2,0,12.5C0,18.8,5.2,24,11.5,24C17.8,24,23,18.8,23,12.5C23,6.2,17.8,1,11.5,1z M11,6
		c0.6,0,1,0.4,1,1c0,0.6-0.4,1-1,1c-0.6,0-1-0.4-1-1C10,6.4,10.4,6,11,6z M14.5,20h-6C8.2,20,8,19.8,8,19.5C8,19.2,8.2,19,8.5,19H11
		v-8H9.5C9.2,11,9,10.8,9,10.5C9,10.2,9.2,10,9.5,10h2c0.3,0,0.5,0.2,0.5,0.5V19h2.5c0.3,0,0.5,0.2,0.5,0.5C15,19.8,14.8,20,14.5,20
		z"/>
</g>
<g id="Outline_Icons">
	<g>
		<circle class="st2" cx="11.5" cy="12.5" r="11"/>
		<line class="st2" x1="8.5" y1="19.5" x2="14.5" y2="19.5"/>
		<polyline class="st2" points="9.5,10.5 11.5,10.5 11.5,19 		"/>
		<g>
			<path class="st3" d="M11,6c-0.3,0-0.5,0.2-0.5,0.5C10.5,6.8,10.7,7,11,7c0.3,0,0.5-0.2,0.5-0.5C11.5,6.2,11.3,6,11,6L11,6z"/>
		</g>
	</g>
</g>
</svg>
