<?xml version="1.0" encoding="utf-8"?>
<!-- Generator: Adobe Illustrator 19.2.0, SVG Export Plug-In . SVG Version: 6.00 Build 0)  -->
<svg version="1.1" id="Layer_1" xmlns="http://www.w3.org/2000/svg" xmlns:xlink="http://www.w3.org/1999/xlink" x="0px" y="0px"
	 viewBox="0 0 24 24" style="enable-background:new 0 0 24 24;" xml:space="preserve">
<style type="text/css">
	.st0{display:none;}
	.st1{display:inline;}
	.st2{fill:none;stroke:#000000;stroke-linecap:round;stroke-linejoin:round;stroke-miterlimit:10;}
</style>
<g id="Filled_Icon" class="st0">
	<g class="st1">
		<path d="M15.5,1H16v0.5C16,1.8,16.2,2,16.5,2C16.8,2,17,1.8,17,1.5v-1C17,0.2,16.8,0,16.5,0h-1C15.2,0,15,0.2,15,0.5
			C15,0.8,15.2,1,15.5,1z"/>
		<path d="M1.5,0h-1C0.2,0,0,0.2,0,0.5v1C0,1.8,0.2,2,0.5,2C0.8,2,1,1.8,1,1.5V1h0.5C1.8,1,2,0.8,2,0.5C2,0.2,1.8,0,1.5,0z"/>
		<path d="M16.5,3C16.2,3,16,3.2,16,3.5v1C16,4.8,16.2,5,16.5,5C16.8,5,17,4.8,17,4.5v-1C17,3.2,16.8,3,16.5,3z"/>
		<path d="M12.5,1h1C13.8,1,14,0.8,14,0.5C14,0.2,13.8,0,13.5,0h-1C12.2,0,12,0.2,12,0.5C12,0.8,12.2,1,12.5,1z"/>
		<path d="M9.5,1h1C10.8,1,11,0.8,11,0.5C11,0.2,10.8,0,10.5,0h-1C9.2,0,9,0.2,9,0.5C9,0.8,9.2,1,9.5,1z"/>
		<path d="M6.5,1h1C7.8,1,8,0.8,8,0.5C8,0.2,7.8,0,7.5,0h-1C6.2,0,6,0.2,6,0.5C6,0.8,6.2,1,6.5,1z"/>
		<path d="M4.5,0h-1C3.2,0,3,0.2,3,0.5C3,0.8,3.2,1,3.5,1h1C4.8,1,5,0.8,5,0.5C5,0.2,4.8,0,4.5,0z"/>
		<path d="M4.5,16h-1C3.2,16,3,16.2,3,16.5C3,16.8,3.2,17,3.5,17h1C4.8,17,5,16.8,5,16.5C5,16.2,4.8,16,4.5,16z"/>
		<path d="M1.5,16H1v-0.5C1,15.2,0.8,15,0.5,15C0.2,15,0,15.2,0,15.5v1C0,16.8,0.2,17,0.5,17h1C1.8,17,2,16.8,2,16.5
			C2,16.2,1.8,16,1.5,16z"/>
		<path d="M0.5,14C0.8,14,1,13.8,1,13.5v-1C1,12.2,0.8,12,0.5,12C0.2,12,0,12.2,0,12.5v1C0,13.8,0.2,14,0.5,14z"/>
		<path d="M0.5,11C0.8,11,1,10.8,1,10.5v-1C1,9.2,0.8,9,0.5,9C0.2,9,0,9.2,0,9.5v1C0,10.8,0.2,11,0.5,11z"/>
		<path d="M0.5,8C0.8,8,1,7.8,1,7.5v-1C1,6.2,0.8,6,0.5,6C0.2,6,0,6.2,0,6.5v1C0,7.8,0.2,8,0.5,8z"/>
		<path d="M0.5,5C0.8,5,1,4.8,1,4.5v-1C1,3.2,0.8,3,0.5,3C0.2,3,0,3.2,0,3.5v1C0,4.8,0.2,5,0.5,5z"/>
		<path d="M8.5,23H8v-0.5C8,22.2,7.8,22,7.5,22C7.2,22,7,22.2,7,22.5v1C7,23.8,7.2,24,7.5,24h1C8.8,24,9,23.8,9,23.5
			C9,23.2,8.8,23,8.5,23z"/>
		<path d="M23.5,22c-0.3,0-0.5,0.2-0.5,0.5V23h-0.5c-0.3,0-0.5,0.2-0.5,0.5c0,0.3,0.2,0.5,0.5,0.5h1c0.3,0,0.5-0.2,0.5-0.5v-1
			C24,22.2,23.8,22,23.5,22z"/>
		<path d="M7.5,21C7.8,21,8,20.8,8,20.5v-1C8,19.2,7.8,19,7.5,19C7.2,19,7,19.2,7,19.5v1C7,20.8,7.2,21,7.5,21z"/>
		<path d="M11.5,23h-1c-0.3,0-0.5,0.2-0.5,0.5c0,0.3,0.2,0.5,0.5,0.5h1c0.3,0,0.5-0.2,0.5-0.5C12,23.2,11.8,23,11.5,23z"/>
		<path d="M14.5,23h-1c-0.3,0-0.5,0.2-0.5,0.5c0,0.3,0.2,0.5,0.5,0.5h1c0.3,0,0.5-0.2,0.5-0.5C15,23.2,14.8,23,14.5,23z"/>
		<path d="M17.5,23h-1c-0.3,0-0.5,0.2-0.5,0.5c0,0.3,0.2,0.5,0.5,0.5h1c0.3,0,0.5-0.2,0.5-0.5C18,23.2,17.8,23,17.5,23z"/>
		<path d="M20.5,23h-1c-0.3,0-0.5,0.2-0.5,0.5c0,0.3,0.2,0.5,0.5,0.5h1c0.3,0,0.5-0.2,0.5-0.5C21,23.2,20.8,23,20.5,23z"/>
		<path d="M17.5,7H17V6.5C17,6.2,16.8,6,16.5,6C16.2,6,16,6.2,16,6.5V7H8C7.4,7,7,7.4,7,8v8H6.5C6.2,16,6,16.2,6,16.5
			C6,16.8,6.2,17,6.5,17H7v0.5C7,17.8,7.2,18,7.5,18C7.8,18,8,17.8,8,17.5V17h8c0.6,0,1-0.4,1-1V8h0.5C17.8,8,18,7.8,18,7.5
			C18,7.2,17.8,7,17.5,7z M15,15H9V9h6V15z"/>
		<path d="M20.5,7h-1C19.2,7,19,7.2,19,7.5C19,7.8,19.2,8,19.5,8h1C20.8,8,21,7.8,21,7.5C21,7.2,20.8,7,20.5,7z"/>
		<path d="M23.5,7h-1C22.2,7,22,7.2,22,7.5C22,7.8,22.2,8,22.5,8H23v0.5C23,8.8,23.2,9,23.5,9C23.8,9,24,8.8,24,8.5v-1
			C24,7.2,23.8,7,23.5,7z"/>
		<path d="M23.5,10c-0.3,0-0.5,0.2-0.5,0.5v1c0,0.3,0.2,0.5,0.5,0.5c0.3,0,0.5-0.2,0.5-0.5v-1C24,10.2,23.8,10,23.5,10z"/>
		<path d="M23.5,13c-0.3,0-0.5,0.2-0.5,0.5v1c0,0.3,0.2,0.5,0.5,0.5c0.3,0,0.5-0.2,0.5-0.5v-1C24,13.2,23.8,13,23.5,13z"/>
		<path d="M23.5,16c-0.3,0-0.5,0.2-0.5,0.5v1c0,0.3,0.2,0.5,0.5,0.5c0.3,0,0.5-0.2,0.5-0.5v-1C24,16.2,23.8,16,23.5,16z"/>
		<path d="M23.5,19c-0.3,0-0.5,0.2-0.5,0.5v1c0,0.3,0.2,0.5,0.5,0.5c0.3,0,0.5-0.2,0.5-0.5v-1C24,19.2,23.8,19,23.5,19z"/>
	</g>
</g>
<g id="Outline_Icons">
	<g>
		<polyline class="st2" points="15.5,0.5 16.5,0.5 16.5,1.5 		"/>
		<polyline class="st2" points="1.5,0.5 0.5,0.5 0.5,1.5 		"/>
		<line class="st2" x1="16.5" y1="3.5" x2="16.5" y2="4.5"/>
		<line class="st2" x1="12.5" y1="0.5" x2="13.5" y2="0.5"/>
		<line class="st2" x1="9.5" y1="0.5" x2="10.5" y2="0.5"/>
		<line class="st2" x1="6.5" y1="0.5" x2="7.5" y2="0.5"/>
		<line class="st2" x1="3.5" y1="0.5" x2="4.5" y2="0.5"/>
		<line class="st2" x1="12.5" y1="16.5" x2="13.5" y2="16.5"/>
		<line class="st2" x1="9.5" y1="16.5" x2="10.5" y2="16.5"/>
		<line class="st2" x1="6.5" y1="16.5" x2="7.5" y2="16.5"/>
		<line class="st2" x1="3.5" y1="16.5" x2="4.5" y2="16.5"/>
		<polyline class="st2" points="1.5,16.5 0.5,16.5 0.5,15.5 		"/>
		<line class="st2" x1="0.5" y1="13.5" x2="0.5" y2="12.5"/>
		<line class="st2" x1="0.5" y1="10.5" x2="0.5" y2="9.5"/>
		<line class="st2" x1="0.5" y1="7.5" x2="0.5" y2="6.5"/>
		<line class="st2" x1="16.5" y1="7.5" x2="16.5" y2="6.5"/>
		<line class="st2" x1="0.5" y1="4.5" x2="0.5" y2="3.5"/>
		<polyline class="st2" points="8.5,23.5 7.5,23.5 7.5,22.5 		"/>
		<polyline class="st2" points="22.5,23.5 23.5,23.5 23.5,22.5 		"/>
		<line class="st2" x1="7.5" y1="20.5" x2="7.5" y2="19.5"/>
		<line class="st2" x1="11.5" y1="23.5" x2="10.5" y2="23.5"/>
		<line class="st2" x1="14.5" y1="23.5" x2="13.5" y2="23.5"/>
		<line class="st2" x1="17.5" y1="23.5" x2="16.5" y2="23.5"/>
		<line class="st2" x1="20.5" y1="23.5" x2="19.5" y2="23.5"/>
		<line class="st2" x1="17.5" y1="7.5" x2="16.5" y2="7.5"/>
		<line class="st2" x1="20.5" y1="7.5" x2="19.5" y2="7.5"/>
		<polyline class="st2" points="22.5,7.5 23.5,7.5 23.5,8.5 		"/>
		<line class="st2" x1="23.5" y1="10.5" x2="23.5" y2="11.5"/>
		<line class="st2" x1="23.5" y1="13.5" x2="23.5" y2="14.5"/>
		<line class="st2" x1="23.5" y1="16.5" x2="23.5" y2="17.5"/>
		<line class="st2" x1="7.5" y1="16.5" x2="7.5" y2="17.5"/>
		<line class="st2" x1="23.5" y1="19.5" x2="23.5" y2="20.5"/>
		<rect x="7.5" y="7.5" class="st2" width="9" height="9"/>
	</g>
</g>
</svg>
