<?xml version="1.0" encoding="utf-8"?>
<!-- Generator: Adobe Illustrator 19.2.0, SVG Export Plug-In . SVG Version: 6.00 Build 0)  -->
<svg version="1.1" id="Layer_1" xmlns="http://www.w3.org/2000/svg" xmlns:xlink="http://www.w3.org/1999/xlink" x="0px" y="0px"
	 viewBox="0 0 24 24" style="enable-background:new 0 0 24 24;" xml:space="preserve">
<style type="text/css">
	.st0{display:none;}
	.st1{display:inline;}
	.st2{fill:none;stroke:#000000;stroke-linejoin:round;stroke-miterlimit:10;}
	.st3{fill:none;stroke:#000000;stroke-linecap:round;stroke-linejoin:round;stroke-miterlimit:10;}
</style>
<g id="Filled_Icon" class="st0">
	<g class="st1">
		<g>
			<path d="M2.5,11C1.1,11,0,12.1,0,13.5v8C0,22.9,1.1,24,2.5,24H5V11H2.5z M3,21.5c-0.8,0-1.5-0.7-1.5-1.5c0-0.8,0.7-1.5,1.5-1.5
				c0.8,0,1.5,0.7,1.5,1.5C4.5,20.8,3.8,21.5,3,21.5z M3,16.5c-0.8,0-1.5-0.7-1.5-1.5c0-0.8,0.7-1.5,1.5-1.5c0.8,0,1.5,0.7,1.5,1.5
				C4.5,15.8,3.8,16.5,3,16.5z"/>
			<circle cx="21" cy="20" r="0.5"/>
			<circle cx="3" cy="15" r="0.5"/>
			<circle cx="3" cy="20" r="0.5"/>
			<path d="M14.5,18h-5C7.6,18,6,16.4,6,14.5V24h12v-9.5C18,16.4,16.4,18,14.5,18z M10.5,21h-3C7.2,21,7,20.8,7,20.5
				C7,20.2,7.2,20,7.5,20h3c0.3,0,0.5,0.2,0.5,0.5C11,20.8,10.8,21,10.5,21z M16.5,21h-3c-0.3,0-0.5-0.2-0.5-0.5
				c0-0.3,0.2-0.5,0.5-0.5h3c0.3,0,0.5,0.2,0.5,0.5C17,20.8,16.8,21,16.5,21z"/>
			<circle cx="21" cy="15" r="0.5"/>
			<path d="M21.5,11H19v13h2.5c1.4,0,2.5-1.1,2.5-2.5v-8C24,12.1,22.9,11,21.5,11z M21,21.5c-0.8,0-1.5-0.7-1.5-1.5
				c0-0.8,0.7-1.5,1.5-1.5c0.8,0,1.5,0.7,1.5,1.5C22.5,20.8,21.8,21.5,21,21.5z M21,16.5c-0.8,0-1.5-0.7-1.5-1.5
				c0-0.8,0.7-1.5,1.5-1.5c0.8,0,1.5,0.7,1.5,1.5C22.5,15.8,21.8,16.5,21,16.5z"/>
		</g>
		<g>
			<path d="M17,3V2.5C17,1.1,15.9,0,14.5,0h-5C8.1,0,7,1.1,7,2.5V3H17z"/>
			<path d="M7,14v0.5C7,15.9,8.1,17,9.5,17h5c1.4,0,2.5-1.1,2.5-2.5V14H7z"/>
			<rect x="7" y="4" width="10" height="9"/>
		</g>
	</g>
</g>
<g id="Outline_Icons">
	<g>
		<path class="st2" d="M16.5,11.5h5c1.1,0,2,0.9,2,2v8c0,1.1-0.9,2-2,2h-19c-1.1,0-2-0.9-2-2v-8c0-1.1,0.9-2,2-2h5"/>
		<line class="st2" x1="18.5" y1="11.5" x2="18.5" y2="23.5"/>
		<line class="st2" x1="5.5" y1="11.5" x2="5.5" y2="23.5"/>
		<path class="st2" d="M16.5,2.5c0-1.1-0.9-2-2-2h-5c-1.1,0-2,0.9-2,2v12c0,1.1,0.9,2,2,2h5c1.1,0,2-0.9,2-2V2.5z"/>
		<circle class="st2" cx="21" cy="20" r="1"/>
		<circle class="st2" cx="21" cy="15" r="1"/>
		<circle class="st2" cx="3" cy="20" r="1"/>
		<circle class="st2" cx="3" cy="15" r="1"/>
		<line class="st3" x1="7.5" y1="20.5" x2="10.5" y2="20.5"/>
		<line class="st3" x1="13.5" y1="20.5" x2="16.5" y2="20.5"/>
		<line class="st3" x1="7.5" y1="3.5" x2="16.5" y2="3.5"/>
		<line class="st3" x1="7.5" y1="13.5" x2="16.5" y2="13.5"/>
	</g>
</g>
</svg>
