<?xml version="1.0" encoding="utf-8"?>
<!-- Generator: Adobe Illustrator 19.2.0, SVG Export Plug-In . SVG Version: 6.00 Build 0)  -->
<svg version="1.1" id="Layer_1" xmlns="http://www.w3.org/2000/svg" xmlns:xlink="http://www.w3.org/1999/xlink" x="0px" y="0px"
	 viewBox="0 0 24 24" style="enable-background:new 0 0 24 24;" xml:space="preserve">
<style type="text/css">
	.st0{display:none;}
	.st1{display:inline;}
	.st2{fill:none;stroke:#000000;stroke-linecap:round;stroke-linejoin:round;stroke-miterlimit:10;}
</style>
<g id="Filled_Icons" class="st0">
	<g class="st1">
		<path d="M17.5,0h-11C5.1,0,4,1.1,4,2.5v19C4,22.9,5.1,24,6.5,24h11c1.4,0,2.5-1.1,2.5-2.5v-19C20,1.1,18.9,0,17.5,0z M12,22
			c-2.8,0-5-2.2-5-5c0-2.8,2.2-5,5-5c2.8,0,5,2.2,5,5C17,19.8,14.8,22,12,22z M18,11H6V2h12V11z"/>
		<circle cx="12" cy="17" r="3"/>
	</g>
</g>
<g id="Outline_Icons">
	<g>
		<path class="st2" d="M19.5,21.5c0,1.1-0.9,2-2,2h-11c-1.1,0-2-0.9-2-2v-19c0-1.1,0.9-2,2-2h11c1.1,0,2,0.9,2,2V21.5z"/>
		<rect x="6.5" y="2.5" class="st2" width="11" height="8"/>
		<circle class="st2" cx="12" cy="17" r="4.5"/>
		<circle class="st2" cx="12" cy="17" r="2.5"/>
	</g>
</g>
</svg>
