<?xml version="1.0" encoding="utf-8"?>
<!-- Generator: Adobe Illustrator 19.2.0, SVG Export Plug-In . SVG Version: 6.00 Build 0)  -->
<svg version="1.1" id="Layer_1" xmlns="http://www.w3.org/2000/svg" xmlns:xlink="http://www.w3.org/1999/xlink" x="0px" y="0px"
	 viewBox="0 0 24 24" style="enable-background:new 0 0 24 24;" xml:space="preserve">
<style type="text/css">
	.st0{display:none;}
	.st1{display:inline;}
	.st2{fill:none;stroke:#000000;stroke-linejoin:round;stroke-miterlimit:10;}
	.st3{fill:none;stroke:#000000;stroke-linecap:round;stroke-linejoin:round;stroke-miterlimit:10;}
</style>
<g id="Filled_Icons" class="st0">
	<g class="st1">
		<path d="M9.5,18.5c-4.6,0-9.5,1.3-9.5,5C0,23.8,0.2,24,0.5,24h17.9c0.3,0,0.5-0.2,0.5-0.5C18.9,19.8,14,18.5,9.5,18.5z"/>
		<path d="M23.5,10.6c-1.5-3.5-5.1-4.2-7.3-4.2L19.7,5C19.9,4.9,20,4.7,20,4.6c0-0.2-0.1-0.4-0.2-0.5c-1-0.7-2-1-3.1-1
			c-2.1,0-3.9,1.2-4.7,2.7c-0.8-1.5-2.6-2.7-4.7-2.7c-1.1,0-2.1,0.3-3.1,1C4.1,4.2,4,4.4,4,4.6C4,4.7,4.1,4.9,4.3,5l3.4,1.4
			C5.6,6.4,2,7.1,0.5,10.6c-0.1,0.1-0.1,0.3,0,0.5c0.1,0.1,0.2,0.2,0.4,0.2c0.8,0,1.8,0.1,2.7,0.1c2.1,0,4.6-0.2,7-1.5l-4.3,7.8
			c1-0.1,2.1-0.2,3.1-0.2c0.9,0,1.8,0.1,2.6,0.2l0.1-1.7H10c-0.3,0-0.5-0.2-0.5-0.5c0-0.3,0.2-0.5,0.5-0.5h2.2l0-1H11
			c-0.3,0-0.5-0.2-0.5-0.5c0-0.3,0.2-0.5,0.5-0.5h1.3l0.2-3.4c1.9,1.6,4.5,1.8,6.6,1.8c1.1,0,2.1-0.1,3.2-0.1l0.9,0
			c0.2,0,0.3-0.1,0.4-0.2C23.6,10.9,23.6,10.7,23.5,10.6z"/>
	</g>
</g>
<g id="Outline_Icons">
	<g>
		<path class="st2" d="M18.4,23.5c0-3.5-5.2-4.5-9-4.5c-3.7,0-9,1-9,4.5H18.4z"/>
		<polyline class="st2" points="6.1,19.3 12,8.5 11.5,19.1 		"/>
		<path class="st2" d="M12,8.5C8.5,11,5,11,1,10.8C3,6,9.5,6.5,12,7.5V8.5z"/>
		<path class="st2" d="M4.5,4.5C8.1,2.1,12,5,12,7.5L4.5,4.5z"/>
		<path class="st2" d="M12,8.5c2.5,3,7,2.5,11,2.3C21,6,14.5,6.5,12,7.5V8.5z"/>
		<path class="st2" d="M19.5,4.5C15.9,2.1,12,5,12,7.5L19.5,4.5z"/>
		<line class="st3" x1="10" y1="17" x2="11.6" y2="17"/>
		<line class="st3" x1="10.5" y1="15" x2="11.7" y2="15"/>
	</g>
</g>
</svg>
