<?xml version="1.0" encoding="utf-8"?>
<!-- Generator: Adobe Illustrator 19.2.0, SVG Export Plug-In . SVG Version: 6.00 Build 0)  -->
<svg version="1.1" id="Layer_1" xmlns="http://www.w3.org/2000/svg" xmlns:xlink="http://www.w3.org/1999/xlink" x="0px" y="0px"
	 viewBox="0 0 24 24" style="enable-background:new 0 0 24 24;" xml:space="preserve">
<style type="text/css">
	.st0{display:none;}
	.st1{display:inline;}
	.st2{fill:none;stroke:#000000;stroke-linecap:round;stroke-linejoin:round;stroke-miterlimit:10;}
</style>
<g id="Filled_Icon" class="st0">
	<path class="st1" d="M23,0h-8c-0.6,0-1,0.4-1,1c0,0.6,0.4,1,1,1h2.2L4.5,22H1c-0.6,0-1,0.4-1,1c0,0.6,0.4,1,1,1h8c0.6,0,1-0.4,1-1
		c0-0.6-0.4-1-1-1H6.8L19.5,2H23c0.6,0,1-0.4,1-1C24,0.4,23.6,0,23,0z"/>
</g>
<g id="Outline_Icons">
	<g>
		<line class="st2" x1="19.5" y1="0.5" x2="4.5" y2="23.5"/>
		<line class="st2" x1="0.5" y1="23.5" x2="8.5" y2="23.5"/>
		<line class="st2" x1="15.5" y1="0.5" x2="23.5" y2="0.5"/>
	</g>
</g>
</svg>
