<?xml version="1.0" encoding="utf-8"?>
<!-- Generator: Adobe Illustrator 19.2.0, SVG Export Plug-In . SVG Version: 6.00 Build 0)  -->
<svg version="1.1" id="Layer_1" xmlns="http://www.w3.org/2000/svg" xmlns:xlink="http://www.w3.org/1999/xlink" x="0px" y="0px"
	 viewBox="0 0 24 24" style="enable-background:new 0 0 24 24;" xml:space="preserve">
<style type="text/css">
	.st0{display:none;}
	.st1{display:inline;}
	.st2{fill:none;stroke:#000000;stroke-linecap:round;stroke-linejoin:round;stroke-miterlimit:10;}
</style>
<g id="Filled_Icons" class="st0">
	<path class="st1" d="M20.5,3.1C19.2,1.8,17.4,1,15.6,1c-1.9,0-3.6,0.7-4.9,2.1L7,6.7c-0.8,0.8-0.8,2,0,2.8l0.9,0.9
		c-0.3,0.7-1.2,2.3-2.3,3.4c-0.6,0.6-1.3,1-1.9,1.4C3,15.5,2.1,16,1.1,16.9c-0.2,0.2-0.2,0.5,0,0.7c0.1,0.1,0.2,0.1,0.4,0.1
		c0.1,0,0.3,0,0.4-0.1c0.9-0.9,1.6-1.3,2.4-1.7c0.7-0.4,1.4-0.8,2.1-1.5c1-1,1.9-2.5,2.3-3.3l1.4,1.4c-0.3,0.7-1.2,2.3-2.3,3.4
		c-0.6,0.6-1.3,1-1.9,1.4c-0.8,0.4-1.6,0.9-2.6,1.9c-0.2,0.2-0.2,0.5,0,0.7c0.1,0.1,0.2,0.1,0.4,0.1c0.1,0,0.3,0,0.4-0.1
		c0.9-0.9,1.6-1.3,2.4-1.7c0.7-0.4,1.4-0.8,2.1-1.5c1-1,1.9-2.5,2.3-3.3l1.4,1.4c-0.3,0.7-1.2,2.3-2.3,3.4c-0.6,0.6-1.3,1-1.9,1.4
		c-0.8,0.4-1.6,0.9-2.6,1.9c-0.2,0.2-0.2,0.5,0,0.7C5.5,22,5.6,22,5.7,22c0.1,0,0.3,0,0.4-0.1C7,21,7.7,20.6,8.5,20.2
		c0.7-0.4,1.4-0.8,2.1-1.5c1-1,1.9-2.5,2.3-3.3l1.3,1.3c0.4,0.4,0.9,0.6,1.4,0.6c0.5,0,1-0.2,1.4-0.6l3.6-3.6c1.3-1.3,2-3.1,2-5
		C22.6,6.2,21.8,4.4,20.5,3.1z M19.1,5.2c-0.2,0.2-0.5,0.2-0.7,0C17.6,4.5,16.6,4,15.6,4c-1.1,0-2.1,0.4-2.8,1.2
		c-0.2,0.2-0.5,0.2-0.7,0c-0.2-0.2-0.2-0.5,0-0.7C13,3.6,14.2,3,15.6,3s2.6,0.5,3.5,1.5C19.3,4.7,19.3,5,19.1,5.2z"/>
</g>
<g id="Outline_Icons">
	<g>
		<path class="st2" d="M18.7,4.9c-1.8-1.8-4.6-1.8-6.4,0"/>
		<path class="st2" d="M20.2,12.6c2.5-2.5,2.5-6.7,0-9.2c-2.5-2.5-6.7-2.5-9.2,0L7.4,7c-0.6,0.6-0.6,1.5,0,2l7.1,7.1
			c0.6,0.6,1.5,0.6,2,0L20.2,12.6z"/>
		<path class="st2" d="M10.7,12.3c0,0-1.1,2.4-2.5,3.8c-1.4,1.4-2.8,1.5-4.5,3.2"/>
		<path class="st2" d="M12.8,14.5c0,0-1.1,2.4-2.5,3.8c-1.4,1.4-2.8,1.5-4.5,3.2"/>
		<path class="st2" d="M8.5,10.2c0,0-1.1,2.4-2.5,3.8c-1.4,1.4-2.8,1.5-4.5,3.2"/>
	</g>
</g>
</svg>
