<?xml version="1.0" encoding="utf-8"?>
<!-- Generator: Adobe Illustrator 19.2.0, SVG Export Plug-In . SVG Version: 6.00 Build 0)  -->
<svg version="1.1" id="Layer_1" xmlns="http://www.w3.org/2000/svg" xmlns:xlink="http://www.w3.org/1999/xlink" x="0px" y="0px"
	 viewBox="0 0 24 24" style="enable-background:new 0 0 24 24;" xml:space="preserve">
<style type="text/css">
	.st0{display:none;}
	.st1{display:inline;}
	.st2{fill:none;stroke:#000000;stroke-linejoin:round;stroke-miterlimit:10;}
	.st3{fill:none;stroke:#000000;stroke-linecap:round;stroke-linejoin:round;stroke-miterlimit:10;}
</style>
<g id="Filled_Icons" class="st0">
	<g class="st1">
		<g>
			<path d="M17.3,16H23c-0.2-3.3-2.2-4-4-4h-5.8L17.3,16z"/>
			<path d="M3,19.3c0.4-0.3,0.7-0.6,0.8-0.8c0.6-0.8,1.9-0.7,2.5,0.1c0,0,0.9,1.4,2.3,1.4c1.5,0,2.3-1.3,2.3-1.3
				c0.3-0.4,0.8-0.7,1.3-0.7c0.5,0,1,0.3,1.3,0.7c0,0,0.9,1.4,2.3,1.4c1.5,0,2.3-1.3,2.3-1.3c0.3-0.5,0.8-0.8,1.3-0.8
				c0.5,0,1,0.3,1.3,0.7c0,0,0.1,0.2,0.4,0.5l1.6-2.2H1.2L3,19.3z"/>
			<path d="M5,13c0.3,0,0.5,0.2,0.5,0.5C5.5,13.8,5.3,14,5,14H1.3C1.1,14.6,1,15.3,1,16h14.8l-4-4h-1.1l-1-1.2L11.6,9H14
				c0.3,0,0.5-0.2,0.5-0.5C14.5,8.2,14.3,8,14,8h-2.6c-0.1,0-0.3,0.1-0.4,0.1L9.1,10L6.9,7.3C6.8,7.2,6.6,7.1,6.5,7.1
				c-1.5,0-3.9,2.3-5,5.9H5z"/>
		</g>
		<path d="M23.8,21.1C23.7,21,23.6,21,23.4,21c-0.2,0-0.4,0.1-0.6,0.1c-1.8,0-2.9-1.8-3-1.8c-0.2-0.3-0.7-0.3-0.9,0
			c0,0-1.1,1.8-3.2,1.8c-2,0-3.2-1.8-3.2-1.8c-0.2-0.3-0.7-0.3-0.9,0c0,0.1-1.1,1.8-3.2,1.8c-2,0-3.2-1.8-3.2-1.8
			c-0.2-0.3-0.6-0.3-0.8,0c0,0-1.5,1.9-3.4,1.9c-0.2,0-0.4,0-0.6-0.1c-0.1,0-0.3,0-0.4,0.1C0.1,21.2,0,21.4,0,21.5l0,2
			c0,0.1,0.1,0.3,0.1,0.4C0.2,24,0.4,24,0.5,24h23c0.3,0,0.5-0.2,0.5-0.5l0-2C24,21.3,23.9,21.2,23.8,21.1z"/>
	</g>
</g>
<g id="Outline_Icons">
	<g>
		<g>
			<path class="st2" d="M23.5,23.5l0-2c-2.5,0.5-4.1-2-4.1-2h0c0,0-1.2,2.1-3.6,2.1c-2.3,0-3.6-2.1-3.6-2.1h0c0,0-1.2,2.1-3.6,2.1
				c-2.3,0-3.6-2.1-3.6-2.1h0c0,0-2,2.5-4.5,2l0,2H23.5z"/>
			<polyline class="st2" points="3.8,20.6 1.5,17.5 22.5,17.5 20.2,20.5 			"/>
			<path class="st2" d="M22.5,17.5h-21c0-5.5,3.5-8.9,5-8.9l4,4.9H19C21.5,13.5,22.5,15,22.5,17.5z"/>
			<polyline class="st3" points="14,9.5 11.4,9.5 9.1,11.8 			"/>
			<line class="st3" x1="1.9" y1="14.5" x2="5" y2="14.5"/>
		</g>
		<line class="st3" x1="12.2" y1="13.5" x2="16.2" y2="17.5"/>
	</g>
</g>
</svg>
