<?xml version="1.0" encoding="utf-8"?>
<!-- Generator: Adobe Illustrator 19.2.0, SVG Export Plug-In . SVG Version: 6.00 Build 0)  -->
<svg version="1.1" id="Layer_1" xmlns="http://www.w3.org/2000/svg" xmlns:xlink="http://www.w3.org/1999/xlink" x="0px" y="0px"
	 viewBox="0 0 24 24" style="enable-background:new 0 0 24 24;" xml:space="preserve">
<style type="text/css">
	.st0{display:none;}
	.st1{display:inline;}
	.st2{fill:none;stroke:#000000;stroke-linecap:round;stroke-linejoin:round;stroke-miterlimit:10;}
</style>
<g id="Filled_Icon" class="st0">
	<path class="st1" d="M23.5,12.2L20.3,9c-0.2-0.2-0.5-0.2-0.7,0c-0.7,0.7-1.5,1-2.5,1c-0.9,0-1.8-0.4-2.5-1c-1.4-1.4-1.4-3.6,0-4.9
		c0.2-0.2,0.2-0.5,0-0.7l-3.2-3.2C11.4,0.1,11.2,0,11.1,0c-0.1,0-0.3,0.1-0.4,0.1L8.6,2.3C8.5,2.2,8.4,2,8.3,1.9
		c-0.9-0.9-2-1.3-3.2-1.3c-1.2,0-2.3,0.5-3.2,1.3c-1.8,1.8-1.8,4.6,0,6.4C2,8.4,2.2,8.5,2.3,8.6l-2.1,2.1C0.1,10.8,0,11,0,11.1
		c0,0.1,0.1,0.3,0.1,0.4l3.2,3.2c0.2,0.2,0.5,0.2,0.7,0c0.7-0.7,1.5-1,2.5-1c0.9,0,1.8,0.4,2.5,1c1.4,1.4,1.4,3.6,0,5
		c-0.2,0.2-0.2,0.5,0,0.7l3.2,3.2c0.1,0.1,0.2,0.1,0.4,0.1c0.1,0,0.3,0,0.4-0.1l2.1-2.1c0.1,0.1,0.2,0.3,0.3,0.4
		c0.9,0.8,2,1.3,3.2,1.3c1.2,0,2.3-0.5,3.2-1.3c0.9-0.8,1.3-2,1.3-3.2c0-1.2-0.5-2.3-1.3-3.2c-0.1-0.1-0.2-0.2-0.4-0.3l2.1-2.1
		C23.7,12.7,23.7,12.4,23.5,12.2z"/>
</g>
<g id="Outline_Icons">
	<g>
		<path class="st2" d="M14.3,9.3c-1.6-1.6-1.6-4.1,0-5.7l-3.2-3.2L8.5,3.1C8.4,2.8,8.2,2.5,7.9,2.3c-1.6-1.6-4.1-1.6-5.7,0
			c-1.6,1.6-1.6,4.1,0,5.7c0.2,0.2,0.5,0.4,0.8,0.6l-2.6,2.6l3.2,3.2c1.6-1.6,4.1-1.6,5.7,0s1.6,4.1,0,5.7l3.2,3.2l2.6-2.6
			c0.2,0.3,0.4,0.6,0.6,0.8c1.6,1.6,4.1,1.6,5.7,0c1.6-1.6,1.6-4.1,0-5.7c-0.2-0.2-0.5-0.4-0.8-0.6l2.6-2.6l-3.2-3.2
			C18.4,10.9,15.9,10.9,14.3,9.3z"/>
	</g>
</g>
</svg>
