<?xml version="1.0" encoding="utf-8"?>
<!-- Generator: Adobe Illustrator 19.2.0, SVG Export Plug-In . SVG Version: 6.00 Build 0)  -->
<svg version="1.1" id="Layer_1" xmlns="http://www.w3.org/2000/svg" xmlns:xlink="http://www.w3.org/1999/xlink" x="0px" y="0px"
	 viewBox="0 0 24 24" enable-background="new 0 0 24 24" xml:space="preserve">
<g id="Filled_Icons" display="none">
	<g display="inline">
		<path d="M21.5,10.006h-21c-0.168,0-0.325,0.086-0.418,0.225c-0.092,0.143-0.108,0.318-0.042,0.473L3,17.609v0.896
			c0,1.379,1.121,2.5,2.5,2.5h13c1.378,0,2.5-1.121,2.5-2.5v-7.5h0.5c0.827,0,1.5,0.674,1.5,1.5v7c0,0.276,0.225,0.5,0.5,0.5
			c0.275,0,0.5-0.224,0.5-0.5v-7C24,11.128,22.878,10.006,21.5,10.006z"/>
		<path d="M8,9.506h3.5v-7.88c-1.549,0.632-4,3.839-4,7.38C7.5,9.282,7.724,9.506,8,9.506z"/>
		<path d="M16.01,9.506c0.276,0,0.5-0.224,0.5-0.5c0-0.035-0.004-0.069-0.011-0.104C16.452,5.403,14.033,2.25,12.5,1.626v7.88H16
			C16.004,9.508,16.007,9.508,16.01,9.506z"/>
	</g>
</g>
<g id="Outline_Icons">
	<g>
		<path fill="none" stroke="#000000" stroke-linecap="round" stroke-linejoin="round" stroke-miterlimit="10" d="M20.5,18.5
			c0,1.106-0.895,2-2,2h-13c-1.104,0-2-0.894-2-2v-1l-3-7h20V18.5z"/>
		<path fill="none" stroke="#000000" stroke-linecap="round" stroke-linejoin="round" stroke-miterlimit="10" d="M7.531,10.5
			c0-3.865,3-7,4-7c1,0,4,3.135,4,7"/>
		
			<line fill="none" stroke="#000000" stroke-linecap="round" stroke-linejoin="round" stroke-miterlimit="10" x1="11.531" y1="3.5" x2="11.531" y2="10.5"/>
		<path fill="none" stroke="#000000" stroke-linecap="round" stroke-linejoin="round" stroke-miterlimit="10" d="M20.5,10.5h1
			c1.105,0,2,0.896,2,2v7"/>
	</g>
</g>
</svg>
