<?xml version="1.0" encoding="utf-8"?>
<!-- Generator: Adobe Illustrator 19.2.0, SVG Export Plug-In . SVG Version: 6.00 Build 0)  -->
<svg version="1.1" id="Layer_1" xmlns="http://www.w3.org/2000/svg" xmlns:xlink="http://www.w3.org/1999/xlink" x="0px" y="0px"
	 viewBox="0 0 24 24" style="enable-background:new 0 0 24 24;" xml:space="preserve">
<style type="text/css">
	.st0{display:none;}
	.st1{display:inline;}
	.st2{fill:none;stroke:#000000;stroke-linecap:round;stroke-linejoin:round;stroke-miterlimit:10;}
</style>
<g id="Filled_Icons" class="st0">
	<g class="st1">
		<path d="M23,21V3c0-1.1-0.9-2-2-2H3C1.9,1,1,1.9,1,3v18c0,1.1,0.9,2,2,2h18C22.1,23,23,22.1,23,21z M15.5,18.4
			c0,0.1,0,0.3-0.1,0.4C15.3,18.9,15.2,19,15,19H9c-0.2,0-0.3-0.1-0.4-0.2c-0.1-0.1-0.1-0.3-0.1-0.4l1.4-6C8.7,11.7,8,10.4,8,9
			c0-2.2,1.8-4,4-4c2.2,0,4,1.8,4,4c0,1.4-0.7,2.7-1.9,3.4L15.5,18.4z"/>
	</g>
</g>
<g id="Outline_Icons">
	<g>
		<path class="st2" d="M15.5,9c0-1.9-1.6-3.5-3.5-3.5c-1.9,0-3.5,1.6-3.5,3.5c0,1.4,0.8,2.6,2,3.1L9,18.5h6l-1.5-6.4
			C14.7,11.6,15.5,10.4,15.5,9z"/>
		<path class="st2" d="M22.5,21c0,0.8-0.7,1.5-1.5,1.5H3c-0.8,0-1.5-0.7-1.5-1.5V3c0-0.8,0.7-1.5,1.5-1.5h18c0.8,0,1.5,0.7,1.5,1.5
			V21z"/>
	</g>
</g>
</svg>
