<?xml version="1.0" encoding="utf-8"?>
<!-- Generator: Adobe Illustrator 19.2.0, SVG Export Plug-In . SVG Version: 6.00 Build 0)  -->
<svg version="1.1" id="Layer_1" xmlns="http://www.w3.org/2000/svg" xmlns:xlink="http://www.w3.org/1999/xlink" x="0px" y="0px"
	 viewBox="0 0 24 24" style="enable-background:new 0 0 24 24;" xml:space="preserve">
<style type="text/css">
	.st0{display:none;}
	.st1{display:inline;}
	.st2{fill:none;stroke:#000000;stroke-linecap:round;stroke-linejoin:round;stroke-miterlimit:10;}
</style>
<g id="Filled_Icons" class="st0">
	<g class="st1">
		<path d="M6.2,23.4c3.3,0,6-2.7,6-6c0-0.9-0.2-1.8-0.6-2.7l4.6-4.6l2,2l1.7-1.7l-2-2l1.3-1.3l2.5,2.5l2.2-2.2l-2.5-2.5l1.1-1.1
			c0.7-0.7,0.7-2,0-2.7c-0.7-0.7-2-0.7-2.7,0l-11,11c-0.8-0.4-1.7-0.6-2.7-0.6c-3.3,0-6,2.7-6,6C0.2,20.8,2.9,23.4,6.2,23.4z
			 M6.2,14.4c1.7,0,3,1.3,3,3c0,1.7-1.3,3-3,3c-1.7,0-3-1.3-3-3C3.2,15.8,4.6,14.4,6.2,14.4z"/>
	</g>
</g>
<g id="Outline_Icons">
	<g>
		<circle class="st2" cx="6.2" cy="17.5" r="2.5"/>
		<path class="st2" d="M21.8,9l1.5-1.5L20.8,5l1.5-1.5c0.6-0.6,0.6-1.4,0-2c-0.6-0.6-1.4-0.6-2,0L9,12.7C8.2,12.2,7.3,12,6.2,12
			c-3,0-5.5,2.5-5.5,5.5c0,3,2.5,5.5,5.5,5.5c3,0,5.5-2.5,5.5-5.5c0-1-0.3-1.9-0.7-2.8l5.2-5.2l2,2l1.5-1.5l-2-2l1.5-1.5L21.8,9z"/>
	</g>
</g>
</svg>
