<?xml version="1.0" encoding="utf-8"?>
<!-- Generator: Adobe Illustrator 19.2.0, SVG Export Plug-In . SVG Version: 6.00 Build 0)  -->
<svg version="1.1" id="Layer_1" xmlns="http://www.w3.org/2000/svg" xmlns:xlink="http://www.w3.org/1999/xlink" x="0px" y="0px"
	 viewBox="0 0 24 24" style="enable-background:new 0 0 24 24;" xml:space="preserve">
<style type="text/css">
	.st0{display:none;}
	.st1{display:inline;}
	.st2{fill:none;stroke:#000000;stroke-linecap:round;stroke-linejoin:round;stroke-miterlimit:10;}
</style>
<g id="Filled_Icons" class="st0">
	<g class="st1">
		<path d="M7.5,24c4.1,0,7.5-3.4,7.5-7.5c0-1.1-0.2-2.1-0.7-3.1l2.9-2.9H19V8.7l0.2-0.2H21V6.7l0.2-0.2H23V4.7l1-1V0h-3.7l-9.7,9.7
			C9.6,9.2,8.6,9,7.5,9C3.4,9,0,12.4,0,16.5C0,20.6,3.4,24,7.5,24z M5.5,16.5c1.1,0,2,0.9,2,2c0,1.1-0.9,2-2,2c-1.1,0-2-0.9-2-2
			C3.5,17.4,4.4,16.5,5.5,16.5z"/>
	</g>
</g>
<g id="Outline_Icons">
	<g>
		<path class="st2" d="M20.5,0.5l-9.8,9.8c-1-0.5-2.1-0.8-3.2-0.8c-3.9,0-7,3.1-7,7c0,3.9,3.1,7,7,7c3.9,0,7-3.1,7-7
			c0-1.2-0.3-2.3-0.8-3.2L17,10h1.5V8.5L19,8h1.5V6.5L21,6h1.5V4.5l1-1v-3H20.5z"/>
		<circle class="st2" cx="5.5" cy="18.5" r="1.5"/>
	</g>
</g>
</svg>
