<?xml version="1.0" encoding="utf-8"?>
<!-- Generator: Adobe Illustrator 19.2.0, SVG Export Plug-In . SVG Version: 6.00 Build 0)  -->
<svg version="1.1" id="Layer_1" xmlns="http://www.w3.org/2000/svg" xmlns:xlink="http://www.w3.org/1999/xlink" x="0px" y="0px"
	 viewBox="0 0 24 24" style="enable-background:new 0 0 24 24;" xml:space="preserve">
<style type="text/css">
	.st0{display:none;}
	.st1{display:inline;}
	.st2{fill:none;stroke:#000000;stroke-linecap:round;stroke-linejoin:round;stroke-miterlimit:10;}
</style>
<g id="Filled_Icons" class="st0">
	<path class="st1" d="M6.5,9H20c2.4,0,4-1.4,4-3.5C24,3.4,22.4,2,20,2h-6.5c-0.5,0-1-0.9-1-1.5C12.5,0.2,12.3,0,12,0
		c-0.3,0-0.5,0.2-0.5,0.5c0,1,0.8,2.5,2,2.5H20c1.4,0,3,0.7,3,2.5C23,7.3,21.4,8,20,8H6.5C4.5,8,3,10.1,3,12v1H0.5
		C0.2,13,0,13.2,0,13.5v10C0,23.8,0.2,24,0.5,24h22c0.3,0,0.5-0.2,0.5-0.5v-10c0-0.3-0.2-0.5-0.5-0.5H4v-1C4,10.6,5.1,9,6.5,9z
		 M2.9,21.9C2.8,21.9,2.6,22,2.5,22c-0.1,0-0.3-0.1-0.4-0.1C2.1,21.8,2,21.6,2,21.5c0-0.1,0.1-0.3,0.1-0.4c0.2-0.2,0.5-0.2,0.7,0
		C2.9,21.2,3,21.4,3,21.5C3,21.6,2.9,21.8,2.9,21.9z M19,22.5c0,0.3-0.2,0.5-0.5,0.5h-14C4.2,23,4,22.8,4,22.5v-1
		C4,21.2,4.2,21,4.5,21h14c0.3,0,0.5,0.2,0.5,0.5V22.5z M20.9,21.9c-0.1,0.1-0.2,0.1-0.4,0.1c-0.1,0-0.3-0.1-0.4-0.1
		c-0.1-0.1-0.1-0.2-0.1-0.4c0-0.1,0.1-0.3,0.1-0.4c0.2-0.2,0.5-0.2,0.7,0c0.1,0.1,0.1,0.2,0.1,0.4C21,21.6,20.9,21.8,20.9,21.9z
		 M20.5,20h-18C2.2,20,2,19.8,2,19.5C2,19.2,2.2,19,2.5,19h18c0.3,0,0.5,0.2,0.5,0.5C21,19.8,20.8,20,20.5,20z M20.5,18h-18
		C2.2,18,2,17.8,2,17.5C2,17.2,2.2,17,2.5,17h18c0.3,0,0.5,0.2,0.5,0.5C21,17.8,20.8,18,20.5,18z M20.5,15c0.3,0,0.5,0.2,0.5,0.5
		c0,0.3-0.2,0.5-0.5,0.5h-18C2.2,16,2,15.8,2,15.5C2,15.2,2.2,15,2.5,15H20.5z"/>
</g>
<g id="Outline_Icons">
	<g>
		<rect x="0.5" y="13.5" class="st2" width="22" height="10"/>
		<path class="st2" d="M12,0.5c0,0.8,0.7,2,1.5,2H20c1.9,0,3.5,1.1,3.5,3c0,1.9-1.6,3-3.5,3H6.5c-1.7,0-3,1.8-3,3.5v1.5"/>
		<rect x="4.5" y="21.5" class="st2" width="14" height="2"/>
		<line class="st2" x1="2.5" y1="15.5" x2="20.5" y2="15.5"/>
		<line class="st2" x1="2.5" y1="17.5" x2="20.5" y2="17.5"/>
		<line class="st2" x1="2.5" y1="19.5" x2="20.5" y2="19.5"/>
		<line class="st2" x1="2.5" y1="21.5" x2="2.5" y2="21.5"/>
		<line class="st2" x1="20.5" y1="21.5" x2="20.5" y2="21.5"/>
	</g>
</g>
</svg>
