<?xml version="1.0" encoding="utf-8"?>
<!-- Generator: Adobe Illustrator 19.2.0, SVG Export Plug-In . SVG Version: 6.00 Build 0)  -->
<svg version="1.1" id="Layer_1" xmlns="http://www.w3.org/2000/svg" xmlns:xlink="http://www.w3.org/1999/xlink" x="0px" y="0px"
	 viewBox="0 0 24 24" style="enable-background:new 0 0 24 24;" xml:space="preserve">
<style type="text/css">
	.st0{display:none;}
	.st1{display:inline;}
	.st2{fill:none;stroke:#000000;stroke-linecap:round;stroke-linejoin:round;stroke-miterlimit:10;}
	.st3{fill:none;stroke:#000000;stroke-linejoin:round;stroke-miterlimit:10;}
</style>
<g id="Filled_Icons" class="st0">
	<path class="st1" d="M21.5,13H4v-0.5C4,11.1,5.1,10,6.5,10H20c2.2,0,4-1.8,4-4c0-2.2-1.8-4-4-4h-6.5c-0.6,0-1-0.4-1-1V0.5
		C12.5,0.2,12.3,0,12,0c-0.3,0-0.5,0.2-0.5,0.5V1c0,1.1,0.9,2,2,2H20c1.7,0,3,1.3,3,3c0,1.7-1.3,3-3,3H6.5C4.6,9,3,10.6,3,12.5V13
		H2.5C1.1,13,0,14.1,0,15.5v6C0,22.9,1.1,24,2.5,24h19c1.4,0,2.5-1.1,2.5-2.5v-6C24,14.1,22.9,13,21.5,13z M16,15h1v1h-1V15z M16,17
		h1v1h-1V17z M16,19h1v1h-1V19z M13,15h1v1h-1V15z M13,17h1v1h-1V17z M13,19h1v1h-1V19z M10,15h1v1h-1V15z M10,17h1v1h-1V17z M10,19
		h1v1h-1V19z M7,15h1v1H7V15z M7,17h1v1H7V17z M7,19h1v1H7V19z M4,15h1v1H4V15z M4,17h1v1H4V17z M4,19h1v1H4V19z M19,22H5v-1h14V22z
		 M20,20h-1v-1h1V20z M20,18h-1v-1h1V18z M20,16h-1v-1h1V16z"/>
</g>
<g id="Outline_Icons">
	<g>
		<path class="st2" d="M23.5,15.5c0-1.1-0.9-2-2-2h-19c-1.1,0-2,0.9-2,2v6c0,1.1,0.9,2,2,2h19c1.1,0,2-0.9,2-2V15.5z"/>
		<g>
			<g>
				<g>
					<polygon points="11,15 10,15 10,16 11,16 					"/>
				</g>
			</g>
		</g>
		<g>
			<g>
				<g>
					<polygon points="14,15 13,15 13,16 14,16 					"/>
				</g>
			</g>
		</g>
		<g>
			<g>
				<g>
					<polygon points="17,15 16,15 16,16 17,16 					"/>
				</g>
			</g>
		</g>
		<g>
			<g>
				<g>
					<polygon points="20,15 19,15 19,16 20,16 					"/>
				</g>
			</g>
		</g>
		<g>
			<g>
				<g>
					<polygon points="8,15 7,15 7,16 8,16 					"/>
				</g>
			</g>
		</g>
		<g>
			<g>
				<g>
					<polygon points="5,15 4,15 4,16 5,16 					"/>
				</g>
			</g>
		</g>
		<g>
			<g>
				<g>
					<polygon points="11,17 10,17 10,18 11,18 					"/>
				</g>
			</g>
		</g>
		<g>
			<g>
				<g>
					<polygon points="14,17 13,17 13,18 14,18 					"/>
				</g>
			</g>
		</g>
		<g>
			<g>
				<g>
					<polygon points="17,17 16,17 16,18 17,18 					"/>
				</g>
			</g>
		</g>
		<g>
			<g>
				<g>
					<polygon points="20,17 19,17 19,18 20,18 					"/>
				</g>
			</g>
		</g>
		<g>
			<g>
				<g>
					<polygon points="8,17 7,17 7,18 8,18 					"/>
				</g>
			</g>
		</g>
		<g>
			<g>
				<g>
					<polygon points="5,17 4,17 4,18 5,18 					"/>
				</g>
			</g>
		</g>
		<g>
			<g>
				<g>
					<polygon points="11,19 10,19 10,20 11,20 					"/>
				</g>
			</g>
		</g>
		<g>
			<g>
				<g>
					<polygon points="14,19 13,19 13,20 14,20 					"/>
				</g>
			</g>
		</g>
		<g>
			<g>
				<g>
					<polygon points="17,19 16,19 16,20 17,20 					"/>
				</g>
			</g>
		</g>
		<g>
			<g>
				<g>
					<polygon points="20,19 19,19 19,20 20,20 					"/>
				</g>
			</g>
		</g>
		<g>
			<g>
				<g>
					<polygon points="8,19 7,19 7,20 8,20 					"/>
				</g>
			</g>
		</g>
		<g>
			<g>
				<g>
					<polygon points="5,19 4,19 4,20 5,20 					"/>
				</g>
			</g>
		</g>
		<path class="st2" d="M3.5,13.5v-1c0-1.7,1.3-3,3-3H20c1.9,0,3.5-1.6,3.5-3.5c0-1.9-1.6-3.5-3.5-3.5h-6.5C12.7,2.5,12,1.8,12,1V0.5
			"/>
		<line class="st3" x1="5" y1="21.5" x2="19" y2="21.5"/>
	</g>
</g>
</svg>
