<?xml version="1.0" encoding="utf-8"?>
<!-- Generator: Adobe Illustrator 19.2.0, SVG Export Plug-In . SVG Version: 6.00 Build 0)  -->
<svg version="1.1" id="Layer_1" xmlns="http://www.w3.org/2000/svg" xmlns:xlink="http://www.w3.org/1999/xlink" x="0px" y="0px"
	 viewBox="0 0 24 24" style="enable-background:new 0 0 24 24;" xml:space="preserve">
<style type="text/css">
	.st0{display:none;}
	.st1{display:inline;}
	.st2{fill:none;stroke:#000000;stroke-linejoin:round;stroke-miterlimit:10;}
</style>
<g id="Filled_Icons" class="st0">
	<g class="st1">
		<path d="M19,18H5v-2H2v5.5C2,22.9,3.1,24,4.5,24h15c1.4,0,2.5-1.1,2.5-2.5V16h-3V18z M6.5,21C6.2,21,6,20.8,6,20.5
			C6,20.2,6.2,20,6.5,20C6.8,20,7,20.2,7,20.5C7,20.8,6.8,21,6.5,21z M8.5,21C8.2,21,8,20.8,8,20.5C8,20.2,8.2,20,8.5,20
			C8.8,20,9,20.2,9,20.5C9,20.8,8.8,21,8.5,21z M14,21c0,0.6-0.4,1-1,1h-2c-0.6,0-1-0.4-1-1v-1c0-0.6,0.4-1,1-1h2c0.6,0,1,0.4,1,1
			V21z M15.5,21c-0.3,0-0.5-0.2-0.5-0.5c0-0.3,0.2-0.5,0.5-0.5c0.3,0,0.5,0.2,0.5,0.5C16,20.8,15.8,21,15.5,21z M17.5,21
			c-0.3,0-0.5-0.2-0.5-0.5c0-0.3,0.2-0.5,0.5-0.5c0.3,0,0.5,0.2,0.5,0.5C18,20.8,17.8,21,17.5,21z"/>
		<rect x="2" y="13" width="3" height="2"/>
		<path d="M19.5,0h-15C3.1,0,2,1.1,2,2.5V9h3V2h14v7h3V2.5C22,1.1,20.9,0,19.5,0z"/>
		<rect x="19" y="10" width="3" height="2"/>
		<rect x="19" y="13" width="3" height="2"/>
		<rect x="2" y="10" width="3" height="2"/>
		<path d="M8,14h8c0.3,0,0.5-0.2,0.5-0.5c0-0.3-0.2-0.5-0.5-0.5H8c-0.3,0-0.5,0.2-0.5,0.5C7.5,13.8,7.7,14,8,14z"/>
		<path d="M8,12h8c0.3,0,0.5-0.2,0.5-0.5c0-0.3-0.2-0.5-0.5-0.5H8c-0.3,0-0.5,0.2-0.5,0.5C7.5,11.8,7.7,12,8,12z"/>
		<path d="M8,10h8c0.3,0,0.5-0.2,0.5-0.5C16.5,9.2,16.3,9,16,9H8C7.7,9,7.5,9.2,7.5,9.5C7.5,9.8,7.7,10,8,10z"/>
		<path d="M8,8h8c0.3,0,0.5-0.2,0.5-0.5C16.5,7.2,16.3,7,16,7H8C7.7,7,7.5,7.2,7.5,7.5C7.5,7.8,7.7,8,8,8z"/>
		<path d="M8,6h5c0.3,0,0.5-0.2,0.5-0.5C13.5,5.2,13.3,5,13,5H8C7.7,5,7.5,5.2,7.5,5.5C7.5,5.8,7.7,6,8,6z"/>
	</g>
</g>
<g id="Outline_Icons">
	<g>
		<rect x="5.5" y="2.5" class="st2" width="13" height="15"/>
		<g>
			<g>
				<g>
					<path d="M8.5,20C8.2,20,8,20.2,8,20.5C8,20.8,8.2,21,8.5,21C8.8,21,9,20.8,9,20.5C9,20.2,8.8,20,8.5,20L8.5,20z"/>
				</g>
			</g>
		</g>
		<g>
			<g>
				<g>
					<path d="M6.5,20C6.2,20,6,20.2,6,20.5C6,20.8,6.2,21,6.5,21C6.8,21,7,20.8,7,20.5C7,20.2,6.8,20,6.5,20L6.5,20z"/>
				</g>
			</g>
		</g>
		<g>
			<g>
				<g>
					<path d="M17.5,20c-0.3,0-0.5,0.2-0.5,0.5c0,0.3,0.2,0.5,0.5,0.5c0.3,0,0.5-0.2,0.5-0.5C18,20.2,17.8,20,17.5,20L17.5,20z"/>
				</g>
			</g>
		</g>
		<g>
			<g>
				<g>
					<path d="M15.5,20c-0.3,0-0.5,0.2-0.5,0.5c0,0.3,0.2,0.5,0.5,0.5c0.3,0,0.5-0.2,0.5-0.5C16,20.2,15.8,20,15.5,20L15.5,20z"/>
				</g>
			</g>
		</g>
		<line class="st2" x1="8" y1="13.5" x2="16" y2="13.5"/>
		<line class="st2" x1="8" y1="11.5" x2="16" y2="11.5"/>
		<line class="st2" x1="8" y1="9.5" x2="16" y2="9.5"/>
		<line class="st2" x1="8" y1="7.5" x2="16" y2="7.5"/>
		<line class="st2" x1="8" y1="5.5" x2="13" y2="5.5"/>
		<line class="st2" x1="2.5" y1="9.5" x2="5.5" y2="9.5"/>
		<line class="st2" x1="2.5" y1="12.5" x2="5.5" y2="12.5"/>
		<line class="st2" x1="2.5" y1="15.5" x2="5.5" y2="15.5"/>
		<line class="st2" x1="18.5" y1="9.5" x2="21.5" y2="9.5"/>
		<line class="st2" x1="18.5" y1="12.5" x2="21.5" y2="12.5"/>
		<line class="st2" x1="18.5" y1="15.5" x2="21.5" y2="15.5"/>
		<path class="st2" d="M21.5,21.5c0,1.1-0.9,2-2,2h-15c-1.1,0-2-0.9-2-2v-19c0-1.1,0.9-2,2-2h15c1.1,0,2,0.9,2,2V21.5z"/>
		<path class="st2" d="M13.5,21c0,0.3-0.2,0.5-0.5,0.5h-2c-0.3,0-0.5-0.2-0.5-0.5v-1c0-0.3,0.2-0.5,0.5-0.5h2c0.3,0,0.5,0.2,0.5,0.5
			V21z"/>
	</g>
</g>
</svg>
