<?xml version="1.0" encoding="utf-8"?>
<!-- Generator: Adobe Illustrator 19.2.0, SVG Export Plug-In . SVG Version: 6.00 Build 0)  -->
<svg version="1.1" id="Outline_Icons" xmlns="http://www.w3.org/2000/svg" xmlns:xlink="http://www.w3.org/1999/xlink" x="0px"
	 y="0px" viewBox="0 0 24 24" style="enable-background:new 0 0 24 24;" xml:space="preserve">
<style type="text/css">
	.st0{fill:none;stroke:#000000;stroke-linecap:round;stroke-linejoin:round;stroke-miterlimit:10;}
	.st1{fill:none;stroke:#000000;stroke-linejoin:round;stroke-miterlimit:10;}
</style>
<g>
	<path class="st0" d="M6,9l0,1c-1,0.5-0.5,3,1,3c0,3,3.5,5,5,5"/>
	<path class="st0" d="M18,9v1c1,0.5,0.5,3-1,3c0,3-3.5,5-5,5"/>
	<path class="st1" d="M18,9c0,0-2-1-6-1S6,9,6,9"/>
	<line class="st0" x1="5.5" y1="7" x2="6" y2="9"/>
	<polyline class="st0" points="5.5,7 5.5,1.5 9,3.5 12,0.5 15,3.5 18.5,1.5 18.5,7 18,9 	"/>
	<path class="st0" d="M9.1,16.7l-6,1.8c-1.6,0.6-2.6,2.8-2.6,4.5v0.5h23V23c0-1.7-1-3.9-2.6-4.5l-6-1.8"/>
	<path class="st0" d="M9,10.5C9,9.9,9.4,10,10,10s1-0.1,1,0.5"/>
	<path class="st0" d="M13,10.5c0-0.6,0.4-0.5,1-0.5s1-0.1,1,0.5"/>
	<circle class="st0" cx="12" cy="21" r="1.5"/>
	<line class="st0" x1="10.6" y1="20.6" x2="6.8" y2="17.4"/>
	<line class="st0" x1="13.4" y1="20.5" x2="17.2" y2="17.4"/>
</g>
</svg>
