<?xml version="1.0" encoding="utf-8"?>
<!-- Generator: Adobe Illustrator 19.2.0, SVG Export Plug-In . SVG Version: 6.00 Build 0)  -->
<svg version="1.1" id="Layer_1" xmlns="http://www.w3.org/2000/svg" xmlns:xlink="http://www.w3.org/1999/xlink" x="0px" y="0px"
	 viewBox="0 0 24 24" enable-background="new 0 0 24 24" xml:space="preserve">
<g id="Filled_Icons" display="none">
	<g display="inline">
		<path d="M22.978,23.357l-4-12.999c-0.064-0.209-0.258-0.353-0.478-0.353H16v-2.42c2.957-1.26,5.325-3.733,6.396-6.921
			c0.051-0.152,0.025-0.32-0.067-0.451c-0.095-0.13-0.245-0.208-0.406-0.208H1.078c-0.161,0-0.312,0.078-0.406,0.208
			c-0.094,0.132-0.119,0.3-0.068,0.452C1.675,3.854,4.042,6.326,7,7.586v2.42H4.5c-0.22,0-0.413,0.144-0.478,0.353l-4,13
			c-0.047,0.152-0.019,0.316,0.075,0.443c0.095,0.129,0.244,0.203,0.402,0.203h22c0.158,0,0.308-0.074,0.401-0.203
			C22.996,23.676,23.023,23.512,22.978,23.357z M8,7.959c1.111,0.355,2.288,0.547,3.5,0.547c1.212,0,2.389-0.191,3.5-0.547v2.047H8
			V7.959z M11.5,22.006c-2.757,0-5-2.242-5-5c0-2.757,2.243-5,5-5c2.757,0,5,2.243,5,5C16.5,19.764,14.257,22.006,11.5,22.006z"/>
		<g>
			<path d="M11.5,17.506c-0.276,0-0.5-0.225-0.5-0.5v-3c0-0.275,0.224-0.5,0.5-0.5c0.276,0,0.5,0.225,0.5,0.5v3
				C12,17.281,11.776,17.506,11.5,17.506z"/>
		</g>
	</g>
</g>
<g id="Outline_Icons">
	<g>
		<polygon fill="none" stroke="#000000" stroke-linejoin="round" stroke-miterlimit="10" points="4.5,10.5 18.5,10.5 22.5,23.5 
			0.5,23.5 		"/>
		<line fill="none" stroke="#000000" stroke-linejoin="round" stroke-miterlimit="10" x1="7.5" y1="10.5" x2="7.5" y2="7.222"/>
		<line fill="none" stroke="#000000" stroke-linejoin="round" stroke-miterlimit="10" x1="15.5" y1="10.5" x2="15.5" y2="7.222"/>
		<circle fill="none" stroke="#000000" stroke-linejoin="round" stroke-miterlimit="10" cx="11.5" cy="17" r="4.5"/>
		<path fill="none" stroke="#000000" stroke-linejoin="round" stroke-miterlimit="10" d="M1.078,0.5C2.541,4.857,6.65,8,11.5,8
			c4.85,0,8.958-3.143,10.422-7.5H1.078z"/>
		
			<line fill="none" stroke="#000000" stroke-linecap="round" stroke-linejoin="round" stroke-miterlimit="10" x1="11.5" y1="17" x2="11.5" y2="14"/>
	</g>
</g>
</svg>
