<?xml version="1.0" encoding="utf-8"?>
<!-- Generator: Adobe Illustrator 19.2.0, SVG Export Plug-In . SVG Version: 6.00 Build 0)  -->
<svg version="1.1" id="Layer_1" xmlns="http://www.w3.org/2000/svg" xmlns:xlink="http://www.w3.org/1999/xlink" x="0px" y="0px"
	 viewBox="0 0 24 24" enable-background="new 0 0 24 24" xml:space="preserve">
<g id="Filled_Icons" display="none">
	<path display="inline" d="M23.82,5.164l-6-5c-0.187-0.154-0.455-0.154-0.641,0l-6,5c-0.196,0.163-0.237,0.449-0.096,0.661
		l5.836,8.755c-3.194,6.331-5.334,5.394-7.805,4.292c-2.546-1.138-5.428-2.421-9.057,4.399c-0.13,0.242-0.037,0.545,0.207,0.676
		c0.074,0.039,0.154,0.059,0.234,0.059c0.179,0,0.352-0.096,0.441-0.265c3.19-5.997,5.309-5.056,7.766-3.956
		c2.594,1.156,5.533,2.467,9.222-4.979l5.987-8.981C24.059,5.613,24.018,5.327,23.82,5.164z M22.5,6.048H18v6.958
		c0,0.275-0.225,0.5-0.5,0.5c-0.275,0-0.5-0.225-0.5-0.5V6.048h-4.5c-0.276,0-0.5-0.224-0.5-0.5c0-0.276,0.224-0.5,0.5-0.5H17V1.506
		c0-0.276,0.225-0.5,0.5-0.5c0.275,0,0.5,0.224,0.5,0.5v3.542h4.5c0.275,0,0.5,0.224,0.5,0.5C23,5.824,22.775,6.048,22.5,6.048z"/>
</g>
<g id="Outline_Icons">
	<g>
		<polygon fill="none" stroke="#000000" stroke-linecap="round" stroke-linejoin="round" stroke-miterlimit="10" points="
			17.5,0.542 11.5,5.542 17.5,14.542 23.5,5.542 		"/>
		
			<line fill="none" stroke="#000000" stroke-linecap="round" stroke-linejoin="round" stroke-miterlimit="10" x1="11.5" y1="5.542" x2="23.5" y2="5.542"/>
		<path fill="none" stroke="#000000" stroke-linecap="round" stroke-linejoin="round" stroke-miterlimit="10" d="M17.5,0.542v14
			C10.624,28.469,7.416,10.5,0.5,23.5"/>
	</g>
</g>
</svg>
