<?xml version="1.0" encoding="utf-8"?>
<!-- Generator: Adobe Illustrator 19.2.0, SVG Export Plug-In . SVG Version: 6.00 Build 0)  -->
<svg version="1.1" id="Layer_1" xmlns="http://www.w3.org/2000/svg" xmlns:xlink="http://www.w3.org/1999/xlink" x="0px" y="0px"
	 viewBox="0 0 24 24" enable-background="new 0 0 24 24" xml:space="preserve">
<g id="Filled_Icons" display="none">
	<g display="inline">
		<g>
			<path d="M4.235,16.055l-2.539,2.539c-0.896,0.895-1.43,2.575-1.214,3.822l0.102,0.592c0.034,0.2,0.186,0.358,0.383,0.404
				l0.79,0.178c1.268,0.285,2.947-0.226,3.828-1.107l2.539-2.541L4.235,16.055z"/>
			<path d="M23.853,0.154c-0.127-0.128-0.311-0.179-0.486-0.13l-6.061,1.67c-0.082,0.022-0.158,0.067-0.221,0.128L5.666,13.243
				l2.2,2.198l8.556-8.562c0.195-0.195,0.512-0.195,0.707,0c0.195,0.194,0.195,0.512,0,0.708L8.573,16.15l2.191,2.19L22.121,6.986
				c0.06-0.061,0.103-0.135,0.128-0.217l1.731-6.126C24.029,0.469,23.982,0.282,23.853,0.154z"/>
		</g>
		<g>
			<g>
				<path d="M11.674,21.871c-0.128,0-0.256-0.049-0.354-0.146l-9.06-9.061c-0.195-0.195-0.195-0.512,0-0.707
					c0.195-0.195,0.512-0.195,0.707,0l9.061,9.061c0.195,0.196,0.195,0.512,0,0.709C11.93,21.822,11.802,21.871,11.674,21.871z"/>
			</g>
		</g>
	</g>
</g>
<g id="Outline_Icons">
	<g>
		<path fill="none" stroke="#000000" stroke-linejoin="round" stroke-miterlimit="10" d="M5.231,22.123
			c-0.778,0.779-2.292,1.216-3.365,0.975l-0.789-0.18l-0.102-0.593c-0.188-1.084,0.297-2.606,1.074-3.386l3.584-3.584l3.182,3.183
			L5.231,22.123z"/>
		
			<line fill="none" stroke="#000000" stroke-linecap="round" stroke-linejoin="round" stroke-miterlimit="10" x1="2.613" y1="12.304" x2="11.674" y2="21.365"/>
		<polygon fill="none" stroke="#000000" stroke-linecap="round" stroke-linejoin="round" stroke-miterlimit="10" points="
			4.979,14.63 17.439,2.169 23.5,0.5 21.768,6.626 9.371,19.022 		"/>
		
			<line fill="none" stroke="#000000" stroke-linecap="round" stroke-linejoin="round" stroke-miterlimit="10" x1="7.144" y1="16.867" x2="16.775" y2="7.226"/>
	</g>
</g>
</svg>
