<?xml version="1.0" encoding="utf-8"?>
<!-- Generator: Adobe Illustrator 19.2.0, SVG Export Plug-In . SVG Version: 6.00 Build 0)  -->
<svg version="1.1" id="Layer_1" xmlns="http://www.w3.org/2000/svg" xmlns:xlink="http://www.w3.org/1999/xlink" x="0px" y="0px"
	 viewBox="0 0 24 24" enable-background="new 0 0 24 24" xml:space="preserve">
<g id="Filled_Icons" display="none">
	<path display="inline" d="M22.75,1.604c-0.248-0.486-0.67-0.846-1.188-1.015c-1.058-0.343-2.234,0.265-2.569,1.296l-0.39,1.096
		L10.985,2.09c0.003-0.864-0.536-1.672-1.401-1.954c-1.05-0.343-2.232,0.267-2.568,1.298L0.101,20.852
		c-0.169,0.52-0.125,1.072,0.122,1.56c0.248,0.485,0.67,0.846,1.189,1.014c0.205,0.066,0.417,0.101,0.632,0.101
		c0.887,0,1.667-0.566,1.936-1.398l0.743-2.086l7.509,0.832l-0.153,0.431c-0.347,1.069,0.241,2.225,1.312,2.573
		c0.205,0.066,0.418,0.101,0.631,0.101c0.888,0,1.668-0.567,1.938-1.398l6.915-19.417C23.041,2.643,22.997,2.09,22.75,1.604z
		 M15.757,10.975l-7.491-0.882l0.721-2.024l7.507,0.835L15.757,10.975z M7.577,12.026l7.491,0.88l-0.739,2.076l-7.491-0.881
		L7.577,12.026z M17.184,6.969L9.676,6.134l0.746-2.097l7.493,0.876L17.184,6.969z M5.412,18.104l0.737-2.068l7.492,0.88
		l-0.722,2.023L5.412,18.104z"/>
</g>
<g id="Outline_Icons">
	<g>
		<g>
			<path fill="none" stroke="#000000" stroke-linejoin="round" stroke-miterlimit="10" d="M3.509,21.954
				c-0.263,0.81-1.133,1.252-1.942,0.989C0.756,22.68,0.313,21.811,0.576,21l6.91-19.405C7.75,0.786,8.62,0.342,9.43,0.605
				c0.81,0.264,1.253,1.134,0.989,1.944L3.509,21.954z"/>
		</g>
		<g>
			<path fill="none" stroke="#000000" stroke-linejoin="round" stroke-miterlimit="10" d="M15.486,22.404
				c-0.264,0.811-1.133,1.254-1.942,0.99c-0.811-0.264-1.253-1.133-0.989-1.943l6.909-19.405c0.265-0.81,1.134-1.252,1.943-0.989
				C22.217,1.321,22.66,2.19,22.396,3L15.486,22.404z"/>
		</g>
		
			<line fill="none" stroke="#000000" stroke-linejoin="round" stroke-miterlimit="10" x1="4.558" y1="19.01" x2="13.086" y2="19.957"/>
		<line fill="none" stroke="#000000" stroke-linejoin="round" stroke-miterlimit="10" x1="5.973" y1="15" x2="14.473" y2="16"/>
		<line fill="none" stroke="#000000" stroke-linejoin="round" stroke-miterlimit="10" x1="7.473" y1="11" x2="15.973" y2="12"/>
		<line fill="none" stroke="#000000" stroke-linejoin="round" stroke-miterlimit="10" x1="8.82" y1="7.038" x2="17.35" y2="7.987"/>
		<line fill="none" stroke="#000000" stroke-linejoin="round" stroke-miterlimit="10" x1="10.223" y1="3" x2="18.769" y2="4"/>
	</g>
</g>
</svg>
