<?xml version="1.0" encoding="utf-8"?>
<!-- Generator: Adobe Illustrator 19.2.0, SVG Export Plug-In . SVG Version: 6.00 Build 0)  -->
<svg version="1.1" id="Layer_1" xmlns="http://www.w3.org/2000/svg" xmlns:xlink="http://www.w3.org/1999/xlink" x="0px" y="0px"
	 viewBox="0 0 24 24" enable-background="new 0 0 24 24" xml:space="preserve">
<g id="Filled_Icons" display="none">
	<g display="inline">
		<path d="M13.5,14.506c-2.374,0-4.369,0.531-5.5,1.361V6.006c0-3.309-2.691-6-6-6c-0.276,0-0.5,0.224-0.5,0.5
			c0,0.276,0.224,0.5,0.5,0.5c2.757,0,5,2.243,5,5v12c0,2.535,2.547,6,6.5,6c3.584,0,6.5-2.916,6.5-6.5
			C20,15.796,17.206,14.506,13.5,14.506z M13.5,19.506c-3.147,0-5.5-1.056-5.5-2c0-0.943,2.353-2,5.5-2c3.146,0,5.5,1.057,5.5,2
			C19,18.45,16.646,19.506,13.5,19.506z"/>
		<g>
			<path d="M12.028,12.006c-0.128,0-0.256-0.049-0.354-0.146c-0.195-0.195-0.195-0.512,0-0.707c0.541-0.541,0.376-0.759-0.064-1.343
				c-0.428-0.566-1.144-1.516,0.04-2.699c0.195-0.195,0.512-0.195,0.707,0c0.195,0.196,0.195,0.513,0,0.707
				c-0.568,0.568-0.387,0.81,0.051,1.39c0.423,0.56,1.13,1.496-0.026,2.652C12.284,11.957,12.156,12.006,12.028,12.006z"/>
		</g>
		<g>
			<path d="M16.014,12.006c-0.127,0-0.256-0.049-0.353-0.146c-0.195-0.195-0.195-0.512,0-0.707c0.541-0.541,0.376-0.759-0.065-1.343
				c-0.428-0.566-1.144-1.516,0.041-2.699c0.194-0.195,0.512-0.195,0.706,0c0.195,0.196,0.195,0.513,0,0.707
				c-0.567,0.568-0.387,0.81,0.052,1.39c0.422,0.56,1.129,1.496-0.026,2.652C16.269,11.957,16.143,12.006,16.014,12.006z"/>
		</g>
	</g>
</g>
<g id="Outline_Icons">
	<g>
		<path fill="none" stroke="#000000" stroke-linejoin="round" stroke-miterlimit="10" d="M19.5,17.5c0,3.313-2.688,6-6,6
			c-3.313,0-6-2.687-6-6"/>
		<ellipse fill="none" stroke="#000000" stroke-linejoin="round" stroke-miterlimit="10" cx="13.5" cy="17.5" rx="6" ry="2.5"/>
		<path fill="none" stroke="#000000" stroke-linecap="round" stroke-linejoin="round" stroke-miterlimit="10" d="M2,0.5
			c3.037,0,5.5,2.463,5.5,5.5v12"/>
		<path fill="none" stroke="#000000" stroke-linecap="round" stroke-linejoin="round" stroke-miterlimit="10" d="M12.004,7.458
			c-1.742,1.743,1.731,2.336,0.024,4.042"/>
		<path fill="none" stroke="#000000" stroke-linecap="round" stroke-linejoin="round" stroke-miterlimit="10" d="M15.988,7.458
			c-1.741,1.743,1.731,2.336,0.025,4.042"/>
	</g>
</g>
</svg>
