<?xml version="1.0" encoding="utf-8"?>
<!-- Generator: Adobe Illustrator 19.2.0, SVG Export Plug-In . SVG Version: 6.00 Build 0)  -->
<svg version="1.1" id="Layer_1" xmlns="http://www.w3.org/2000/svg" xmlns:xlink="http://www.w3.org/1999/xlink" x="0px" y="0px"
	 viewBox="0 0 24 24" style="enable-background:new 0 0 24 24;" xml:space="preserve">
<style type="text/css">
	.st0{display:none;}
	.st1{display:inline;}
	.st2{fill:none;stroke:#000000;stroke-linecap:round;stroke-linejoin:round;stroke-miterlimit:10;}
</style>
<g id="Filled_Icons" class="st0">
	<g class="st1">
		<path d="M18.9,16.6c-0.3,2-2.1,3.1-3.8,4.1c-1.4,0.9-2.7,1.6-2.7,2.7c0,0.3-0.2,0.5-0.5,0.5c-0.3,0-0.5-0.2-0.5-0.5
			c0-1.2-1.4-2.1-2.8-3c-1.5-1-3.3-2.1-3.6-3.9C2.3,17.9,0,19.4,0,22v2h24v-2C24,19.4,21.8,17.9,18.9,16.6z"/>
		<path d="M4,15c0.3,0,0.5,0,0.8-0.1c1-0.2,1.9-0.8,2.4-1.6c0.4,0.6,0.8,1.2,1.4,1.7c-0.4,0.2-0.9,0.4-1.3,0.6
			C6.8,15.8,6.4,16,6,16.2c0.1,1.4,1.7,2.5,3.2,3.4c1.1,0.7,2.2,1.4,2.8,2.3c0.6-0.8,1.6-1.5,2.6-2.1c1.6-1,3.2-2,3.3-3.7
			c-0.4-0.2-0.8-0.4-1.3-0.5c-0.4-0.2-0.9-0.4-1.3-0.6c0.6-0.5,1-1.1,1.4-1.7c0.5,0.8,1.3,1.4,2.4,1.6c1.4,0.3,3.3-0.1,4.2-2.3
			c0.1-0.2,0.1-0.3,0-0.5C23.3,12.1,23.2,12,23,12c-1.4,0-1.9-2.2-2.4-4.5c-0.6-2.6-1.3-5.6-3.5-6.6c-1.3-0.6-3-0.4-5.1,0.6
			c-2.1-1-3.8-1.2-5.1-0.6c-2.2,1-2.9,4-3.5,6.6C2.9,9.8,2.4,12,1,12c-0.2,0-0.3,0.1-0.4,0.2c-0.1,0.1-0.1,0.3,0,0.5
			C1.3,14.4,2.7,15,4,15z M7,9c0.2,0,0.4-0.2,0.5-0.4L7.9,7c2.6-0.1,3.6-0.8,4.1-1.6c0.5,0.8,1.5,1.5,4.1,1.6l0.4,1.6
			C16.6,8.8,16.8,9,17,9c0.5,0,0.6,0.7,0.6,1c0,0.3-0.1,1-0.6,1c-0.2,0-0.5,0.2-0.5,0.4C16,14.3,12.9,15.6,12,16
			c-0.9-0.3-4-1.7-4.5-4.6C7.5,11.2,7.2,11,7,11c-0.5,0-0.6-0.7-0.6-1C6.4,9.6,6.5,9,7,9z"/>
		<path d="M9,9.5c0.3,0,0.5-0.2,0.5-0.5c0.1,0,0.3,0,0.4,0L10,9l0.1,0c0.1,0,0.3,0,0.4,0c0,0.3,0.2,0.5,0.5,0.5
			c0.3,0,0.5-0.2,0.5-0.5c0-0.3-0.1-0.5-0.3-0.7C10.9,8,10.5,8,10.1,8L10,8L9.9,8C9.5,8,9.1,8,8.8,8.3C8.6,8.5,8.5,8.7,8.5,9
			C8.5,9.3,8.7,9.5,9,9.5z"/>
		<path d="M13,9.5c0.3,0,0.5-0.2,0.5-0.5c0.1,0,0.3,0,0.4,0L14,9l0.1,0c0.1,0,0.3,0,0.4,0c0,0.3,0.2,0.5,0.5,0.5
			c0.3,0,0.5-0.2,0.5-0.5c0-0.3-0.1-0.5-0.3-0.7C14.9,8,14.5,8,14.1,8L14,8l-0.1,0c-0.4,0-0.8,0-1.1,0.3c-0.2,0.2-0.3,0.4-0.3,0.7
			C12.5,9.3,12.7,9.5,13,9.5z"/>
	</g>
</g>
<g id="Outline_Icons">
	<g>
		<path class="st2" d="M16.9,12c0,2.5,4.6,4,6.1,0.5C18.5,12.5,22-3,12,2C2-3,5.5,12.5,1,12.5c1.5,3.5,6.1,2,6.1-0.5"/>
		<path class="st2" d="M12,16.5c1.5-0.5,4.5-2,5-5c1.5,0,1.5-3,0-3l-0.5-2c-4,0-4-1.5-4.5-2c-0.5,0.5-0.5,2-4.5,2L7,8.5
			c-1.5,0-1.5,3,0,3C7.5,14.5,10.5,16,12,16.5z"/>
		<path class="st2" d="M14.5,15.2c4.5,2,9,3.3,9,6.8v1.5h-23V22c0-3.5,4.5-4.8,9-6.8"/>
		<path class="st2" d="M5.5,17c0,3,6.5,3.5,6.5,6.5"/>
		<path class="st2" d="M18.5,17c0,3-6.5,3.5-6.5,6.5"/>
		<path class="st2" d="M9,9c0-0.6,0.4-0.5,1-0.5c0.6,0,1-0.1,1,0.5"/>
		<path class="st2" d="M13,9c0-0.6,0.4-0.5,1-0.5c0.6,0,1-0.1,1,0.5"/>
	</g>
</g>
</svg>
