<?xml version="1.0" encoding="utf-8"?>
<!-- Generator: Adobe Illustrator 19.2.0, SVG Export Plug-In . SVG Version: 6.00 Build 0)  -->
<svg version="1.1" id="Layer_1" xmlns="http://www.w3.org/2000/svg" xmlns:xlink="http://www.w3.org/1999/xlink" x="0px" y="0px"
	 viewBox="0 0 24 24" style="enable-background:new 0 0 24 24;" xml:space="preserve">
<style type="text/css">
	.st0{display:none;}
	.st1{display:inline;}
	.st2{fill:none;stroke:#000000;stroke-linejoin:round;stroke-miterlimit:10;}
	.st3{fill:none;stroke:#000000;stroke-linecap:round;stroke-linejoin:round;stroke-miterlimit:10;}
</style>
<g id="Filled_Icons" class="st0">
	<g class="st1">
		<path d="M5.1,16.8c-0.9,0.1-1.8,0.3-2.4,0.8C0.6,19.2,0,23.3,0,23.4c0,0.1,0,0.3,0.1,0.4C0.2,23.9,0.4,24,0.5,24h10L5.1,16.8
			L5.1,16.8z"/>
		<path d="M18.1,16.7c-2-0.3-3.1-0.5-3.1-2.2v-1c0.6,0.4,1.3,0.6,2.1,0.6c1.4,0,2.6-0.7,3.4-1.9c0.1-0.2,0.1-0.3,0-0.5
			c-0.1-0.2-0.3-0.3-0.4-0.3c-0.7,0-1-2.2-1.2-4c-0.4-3.1-1-7.1-4-7.1c-0.8,0-1.7,0.3-2.8,0.9c-1.1-0.6-2-0.9-2.8-0.9
			c-3,0-3.5,3.9-4,7.1c-0.2,1.8-0.6,4-1.2,4c-0.2,0-0.4,0.1-0.5,0.3c-0.1,0.2-0.1,0.4,0.1,0.5c0.9,1.1,2.1,1.7,3.4,1.7l0,0
			c0.8,0,1.5-0.2,2-0.6v1.1c0,1.6-1,1.9-2.8,2.1l5.5,7.4h1L18.1,16.7C18.2,16.7,18.2,16.7,18.1,16.7z M9.3,12.5
			C9.1,12.5,7.8,11.8,7.9,9C7.8,9,7.6,9,7.5,9C7.2,9,7,8.8,7,8.5C7,8.2,7.2,8,7.5,8c0.6,0,1-1.1,1-1.5C8.5,6.2,8.7,6,9,6
			c0.3,0,0.5,0.2,0.5,0.5c0,0.4-0.2,1-0.5,1.6c-0.4,2.9,0.7,3.5,0.7,3.5c0.2,0.1,0.4,0.4,0.2,0.7c-0.1,0.2-0.3,0.3-0.5,0.3
			C9.4,12.6,9.4,12.6,9.3,12.5z M10,18c-0.3,0-0.5-0.2-0.5-0.5c0-0.3,0.2-0.5,0.5-0.5c0.3,0,0.5,0.2,0.5,0.5
			C10.5,17.8,10.3,18,10,18z M12,18.5c-0.3,0-0.5-0.2-0.5-0.5c0-0.3,0.2-0.5,0.5-0.5c0.3,0,0.5,0.2,0.5,0.5
			C12.5,18.3,12.3,18.5,12,18.5z M14,18c-0.3,0-0.5-0.2-0.5-0.5c0-0.3,0.2-0.5,0.5-0.5c0.3,0,0.5,0.2,0.5,0.5
			C14.5,17.8,14.3,18,14,18z M14.5,12.5c-0.2,0-0.4-0.1-0.5-0.3c-0.1-0.3,0-0.5,0.3-0.6c0,0,1.1-0.6,0.7-3.5
			c-0.4-0.6-0.5-1.2-0.5-1.6C14.5,6.2,14.7,6,15,6c0.3,0,0.5,0.2,0.5,0.5c0,0.4,0.4,1.5,1,1.5C16.8,8,17,8.2,17,8.5
			C17,8.8,16.8,9,16.5,9c-0.1,0-0.3,0-0.4-0.1c0.1,2.9-1.3,3.4-1.4,3.5C14.6,12.5,14.6,12.5,14.5,12.5z"/>
		<path d="M21.3,17.6c-0.5-0.4-1.2-0.6-1.9-0.8L14,24h9.5c0.1,0,0.3-0.1,0.4-0.2c0.1-0.1,0.1-0.3,0.1-0.4
			C24,23.3,23.4,19.2,21.3,17.6z"/>
	</g>
</g>
<g id="Outline_Icons">
	<g>
		<path class="st2" d="M12,23.5H0.5c0,0,0.5-4,2.5-5.5s6.5,0,6.5-3.5v-2.4C9,13.6,6,14.5,4,12c3,0,0-15,8-10c8-5,5,10,8,10
			c-1.5,2.5-5,2-5.5,0v2.5c0,3.5,4.5,2,6.5,3.5s2.5,5.5,2.5,5.5H12"/>
		<line class="st2" x1="6.1" y1="17.2" x2="10.5" y2="23.5"/>
		<line class="st2" x1="18.4" y1="17.2" x2="14" y2="23.5"/>
		<g>
			<g>
				<g>
					<path d="M10,17c-0.3,0-0.5,0.2-0.5,0.5c0,0.3,0.2,0.5,0.5,0.5c0.3,0,0.5-0.2,0.5-0.5C10.5,17.2,10.3,17,10,17L10,17z"/>
				</g>
			</g>
		</g>
		<g>
			<g>
				<g>
					<path d="M12,17.5c-0.3,0-0.5,0.2-0.5,0.5c0,0.3,0.2,0.5,0.5,0.5c0.3,0,0.5-0.2,0.5-0.5C12.5,17.7,12.3,17.5,12,17.5L12,17.5z"
						/>
				</g>
			</g>
		</g>
		<g>
			<g>
				<g>
					<path d="M14,17c-0.3,0-0.5,0.2-0.5,0.5c0,0.3,0.2,0.5,0.5,0.5c0.3,0,0.5-0.2,0.5-0.5C14.5,17.2,14.3,17,14,17L14,17z"/>
				</g>
			</g>
		</g>
		<path class="st3" d="M9.5,12.1c0,0-1.5-0.6-1-4.2"/>
		<path class="st3" d="M9,6.5c0,0.5-0.5,2-1.5,2"/>
		<path class="st3" d="M14.5,12c0,0,1.5-0.5,1-4.1"/>
		<path class="st3" d="M15,6.5c0,0.5,0.5,2,1.5,2"/>
	</g>
</g>
</svg>
