<?xml version="1.0" encoding="utf-8"?>
<!-- Generator: Adobe Illustrator 19.2.0, SVG Export Plug-In . SVG Version: 6.00 Build 0)  -->
<svg version="1.1" id="Layer_1" xmlns="http://www.w3.org/2000/svg" xmlns:xlink="http://www.w3.org/1999/xlink" x="0px" y="0px"
	 viewBox="0 0 24 24" enable-background="new 0 0 24 24" xml:space="preserve">
<g id="Filled_Icons" display="none">
	<path display="inline" d="M18.494,1.431C18.456,1.186,18.246,1.006,18,1.006h-6v-0.5c0-0.277-0.224-0.5-0.5-0.5
		c-0.276,0-0.5,0.223-0.5,0.5v0.5H5c-0.247,0-0.457,0.179-0.494,0.425l-2,13c-0.022,0.144,0.02,0.289,0.114,0.401
		c0.095,0.108,0.233,0.173,0.38,0.173h8v8H8.5c-0.276,0-0.5,0.223-0.5,0.5c0,0.275,0.224,0.5,0.5,0.5h6c0.275,0,0.5-0.225,0.5-0.5
		c0-0.277-0.225-0.5-0.5-0.5H12v-8h1v2.5c0,0.275,0.225,0.5,0.5,0.5c0.275,0,0.5-0.225,0.5-0.5v-2.5h6
		c0.146,0,0.284-0.064,0.379-0.173c0.096-0.112,0.139-0.259,0.115-0.401L18.494,1.431z"/>
</g>
<g id="Outline_Icons">
	<g>
		
			<line fill="none" stroke="#000000" stroke-linecap="round" stroke-linejoin="round" stroke-miterlimit="10" x1="11.5" y1="0.5" x2="11.5" y2="1.5"/>
		
			<line fill="none" stroke="#000000" stroke-linecap="round" stroke-linejoin="round" stroke-miterlimit="10" x1="11.5" y1="14.5" x2="11.5" y2="23.5"/>
		
			<line fill="none" stroke="#000000" stroke-linecap="round" stroke-linejoin="round" stroke-miterlimit="10" x1="8.5" y1="23.5" x2="14.5" y2="23.5"/>
		
			<line fill="none" stroke="#000000" stroke-linecap="round" stroke-linejoin="round" stroke-miterlimit="10" x1="13.5" y1="14.5" x2="13.5" y2="17.5"/>
		<polygon fill="none" stroke="#000000" stroke-linecap="round" stroke-linejoin="round" stroke-miterlimit="10" points="18,1.5 
			5,1.5 3,14.5 20,14.5 		"/>
	</g>
</g>
</svg>
