<?xml version="1.0" encoding="utf-8"?>
<!-- Generator: Adobe Illustrator 19.2.0, SVG Export Plug-In . SVG Version: 6.00 Build 0)  -->
<svg version="1.1" id="Layer_1" xmlns="http://www.w3.org/2000/svg" xmlns:xlink="http://www.w3.org/1999/xlink" x="0px" y="0px"
	 viewBox="0 0 24 24" enable-background="new 0 0 24 24" xml:space="preserve">
<g id="Filled_Icons" display="none">
	<path display="inline" d="M22.5,23.006H20v-10.5c0-5.069-3.995-9.212-9-9.475V3.006c0-1.654-1.346-3-3-3c-1.654,0-3,1.346-3,3
		v2.177c-2.441,1.155-4,3.6-4,6.323v2c0,0.275,0.224,0.5,0.5,0.5h13c0.275,0,0.5-0.225,0.5-0.5v-2c0-2.72-1.561-5.168-4-6.323V4.032
		c4.453,0.26,8,3.957,8,8.475v10.5h-4.5c-0.275,0-0.5,0.224-0.5,0.5c0,0.274,0.225,0.5,0.5,0.5h8c0.275,0,0.5-0.226,0.5-0.5
		C23,23.229,22.775,23.006,22.5,23.006z"/>
</g>
<g id="Outline_Icons">
	<g>
		
			<line fill="none" stroke="#000000" stroke-linecap="round" stroke-linejoin="round" stroke-miterlimit="10" x1="22.5" y1="23.5" x2="14.5" y2="23.5"/>
		<path fill="none" stroke="#000000" stroke-linecap="round" stroke-linejoin="round" stroke-miterlimit="10" d="M10.5,3.5
			c4.971,0,9,4.029,9,9v11"/>
		<path fill="none" stroke="#000000" stroke-linecap="round" stroke-linejoin="round" stroke-miterlimit="10" d="M10.5,5.5V3
			c0-1.381-1.12-2.5-2.5-2.5C6.618,0.5,5.5,1.619,5.5,3v2.5c-2.35,0.979-4,3.295-4,6v2h13v-2C14.5,8.795,12.848,6.479,10.5,5.5z"/>
	</g>
</g>
</svg>
