<?xml version="1.0" encoding="utf-8"?>
<!-- Generator: Adobe Illustrator 19.2.0, SVG Export Plug-In . SVG Version: 6.00 Build 0)  -->
<svg version="1.1" id="Layer_1" xmlns="http://www.w3.org/2000/svg" xmlns:xlink="http://www.w3.org/1999/xlink" x="0px" y="0px"
	 viewBox="0 0 24 24" enable-background="new 0 0 24 24" xml:space="preserve">
<g id="Filled_Icons" display="none">
	<g display="inline">
		<path d="M17.891,16.006L13.984,0.385C13.93,0.162,13.728,0.006,13.5,0.006h-4c-0.229,0-0.43,0.156-0.485,0.379L5.109,16.006
			H17.891z M15,13.006c0,0.553-0.447,1-1,1c-0.553,0-1-0.447-1-1c0-0.551,0.447-1,1-1C14.553,12.006,15,12.455,15,13.006z M13,6.006
			c0.553,0,1,0.449,1,1c0,0.552-0.447,1-1,1c-0.552,0-1-0.448-1-1C12,6.455,12.448,6.006,13,6.006z M11,3.006c0.552,0,1,0.449,1,1
			c0,0.552-0.448,1-1,1c-0.552,0-1-0.448-1-1C10,3.455,10.448,3.006,11,3.006z M11,8.006c1.103,0,2,0.897,2,2c0,1.103-0.897,2-2,2
			s-2-0.897-2-2C9,8.903,9.897,8.006,11,8.006z M9,13.006c0.552,0,1,0.449,1,1c0,0.553-0.448,1-1,1c-0.552,0-1-0.447-1-1
			C8,13.455,8.448,13.006,9,13.006z"/>
		<path d="M16.001,19.861c0.022-0.946,0.602-1.906,1.698-2.855H5.308c1.16,1.021,1.755,2.03,1.755,3
			c0,1.008-0.635,2.059-1.886,3.119c-0.16,0.137-0.219,0.356-0.146,0.555c0.072,0.195,0.26,0.326,0.47,0.326h12
			c0.206,0,0.392-0.126,0.466-0.318c0.075-0.191,0.024-0.41-0.128-0.549C16.596,21.998,15.977,20.897,16.001,19.861z"/>
	</g>
</g>
<g id="Outline_Icons">
	<g>
		<polygon fill="none" stroke="#000000" stroke-linejoin="round" stroke-miterlimit="10" points="9.5,0.5 13.5,0.5 17.5,16.5 
			5.5,16.5 		"/>
		<path fill="none" stroke="#000000" stroke-linejoin="round" stroke-miterlimit="10" d="M5.5,16.5h12c-2.635,2.195-2.697,4.525,0,7
			h-12C8.25,21.167,8.25,18.833,5.5,16.5z"/>
		<circle fill="none" stroke="#000000" stroke-linejoin="round" stroke-miterlimit="10" cx="11" cy="11" r="1.5"/>
		<circle fill="none" stroke="#000000" stroke-linejoin="round" stroke-miterlimit="10" cx="9" cy="15" r="0.5"/>
		<circle fill="none" stroke="#000000" stroke-linejoin="round" stroke-miterlimit="10" cx="11" cy="5" r="0.5"/>
		<circle fill="none" stroke="#000000" stroke-linejoin="round" stroke-miterlimit="10" cx="13" cy="8" r="0.5"/>
		<circle fill="none" stroke="#000000" stroke-linejoin="round" stroke-miterlimit="10" cx="14" cy="14" r="0.5"/>
	</g>
</g>
</svg>
