<?xml version="1.0" encoding="utf-8"?>
<!-- Generator: Adobe Illustrator 19.2.0, SVG Export Plug-In . SVG Version: 6.00 Build 0)  -->
<svg version="1.1" id="Layer_1" xmlns="http://www.w3.org/2000/svg" xmlns:xlink="http://www.w3.org/1999/xlink" x="0px" y="0px"
	 viewBox="0 0 24 24" enable-background="new 0 0 24 24" xml:space="preserve">
<g id="Filled_Icons" display="none">
	<path display="inline" d="M23.5,23.006H12v-20h1.579l2.718,2.781L15.16,6.924c-0.145,0.145-0.188,0.363-0.106,0.551l2.12,4.949
		c0.065,0.153,0.202,0.264,0.365,0.295c0.03,0.006,0.063,0.008,0.095,0.008c0.131,0,0.26-0.051,0.354-0.146l5.656-5.657
		c0.117-0.117,0.17-0.285,0.139-0.448c-0.031-0.163-0.143-0.299-0.295-0.365L18.539,3.99c-0.188-0.08-0.406-0.039-0.551,0.106
		l-0.984,0.983l-2.857-2.922c-0.094-0.096-0.223-0.15-0.356-0.15H12v-1c0-0.277-0.224-0.5-0.5-0.5c-0.276,0-0.5,0.222-0.5,0.499v4
		H8.852c-0.154,0-0.3,0.071-0.395,0.194L6.532,7.677L5.47,6.842C5.309,6.716,5.087,6.699,4.911,6.803L0.25,9.499
		C0.106,9.582,0.013,9.731,0.001,9.896c-0.012,0.166,0.06,0.327,0.19,0.429l6.291,4.942c0.089,0.069,0.198,0.105,0.309,0.105
		c0.051,0,0.103-0.008,0.152-0.023c0.158-0.051,0.28-0.177,0.327-0.336l1.516-5.167C8.844,9.65,8.776,9.44,8.615,9.313L7.318,8.294
		l1.778-2.288H11v17H0.5c-0.276,0-0.5,0.223-0.5,0.5c0,0.275,0.224,0.5,0.5,0.5h23c0.275,0,0.5-0.225,0.5-0.5
		C24,23.229,23.775,23.006,23.5,23.006z"/>
</g>
<g id="Outline_Icons">
	<g>
		
			<line fill="none" stroke="#000000" stroke-linecap="round" stroke-linejoin="round" stroke-miterlimit="10" x1="0.5" y1="23.5" x2="23.5" y2="23.5"/>
		
			<line fill="none" stroke="#000000" stroke-linecap="round" stroke-linejoin="round" stroke-miterlimit="10" x1="11.5" y1="23.5" x2="11.5" y2="1"/>
		<polygon fill="none" stroke="#000000" stroke-linecap="round" stroke-linejoin="round" stroke-miterlimit="10" points="
			23.291,6.564 17.635,12.221 15.514,7.271 18.342,4.443 		"/>
		<polygon fill="none" stroke="#000000" stroke-linecap="round" stroke-linejoin="round" stroke-miterlimit="10" points="
			6.791,14.867 0.5,9.925 5.161,7.229 8.307,9.7 		"/>
		<polyline fill="none" stroke="#000000" stroke-linecap="round" stroke-linejoin="round" stroke-miterlimit="10" points="11.5,5.5 
			8.852,5.5 6.618,8.374 		"/>
		<polyline fill="none" stroke="#000000" stroke-linecap="round" stroke-linejoin="round" stroke-miterlimit="10" points="11.5,2.5 
			13.789,2.5 17,5.784 		"/>
	</g>
</g>
</svg>
