<?xml version="1.0" encoding="utf-8"?>
<!-- Generator: Adobe Illustrator 19.2.0, SVG Export Plug-In . SVG Version: 6.00 Build 0)  -->
<svg version="1.1" id="Layer_1" xmlns="http://www.w3.org/2000/svg" xmlns:xlink="http://www.w3.org/1999/xlink" x="0px" y="0px"
	 viewBox="0 0 24 24" enable-background="new 0 0 24 24" xml:space="preserve">
<g id="Filled_Icons" display="none">
	<path display="inline" d="M12,1.006h-1v-0.5c0-0.277-0.224-0.5-0.5-0.5c-0.276,0-0.5,0.223-0.5,0.5v0.5H9
		c-4.688,0-8.5,3.812-8.5,8.5v3c0,0.201,0.121,0.385,0.309,0.463c0.187,0.076,0.401,0.034,0.545-0.109L2.5,11.713l1.146,1.146
		c0.195,0.195,0.512,0.195,0.707,0L5.5,11.713l1.146,1.146c0.195,0.195,0.512,0.195,0.707,0L8.5,11.713l1.5,1.5v9.793H7.5
		c-0.276,0-0.5,0.223-0.5,0.5c0,0.275,0.224,0.5,0.5,0.5h6c0.275,0,0.5-0.225,0.5-0.5c0-0.277-0.225-0.5-0.5-0.5H11v-9.793l1-1
		v4.793c0,0.275,0.224,0.5,0.5,0.5c0.275,0,0.5-0.225,0.5-0.5v-4.793l0.646,0.646c0.194,0.195,0.512,0.195,0.707,0l1.146-1.146
		l1.145,1.146c0.195,0.195,0.513,0.195,0.707,0l1.146-1.146l1.146,1.146c0.143,0.144,0.357,0.186,0.545,0.109
		c0.187-0.078,0.309-0.262,0.309-0.463v-3C20.5,4.818,16.687,1.006,12,1.006z"/>
</g>
<g id="Outline_Icons">
	<g>
		
			<line fill="none" stroke="#000000" stroke-linecap="round" stroke-linejoin="round" stroke-miterlimit="10" x1="10.5" y1="0.5" x2="10.5" y2="1.5"/>
		<line fill="none" stroke="#000000" stroke-linejoin="round" stroke-miterlimit="10" x1="10.5" y1="13" x2="10.5" y2="23.5"/>
		
			<line fill="none" stroke="#000000" stroke-linecap="round" stroke-linejoin="round" stroke-miterlimit="10" x1="7.5" y1="23.5" x2="13.5" y2="23.5"/>
		<path fill="none" stroke="#000000" stroke-linecap="round" stroke-linejoin="round" stroke-miterlimit="10" d="M20.5,12.5l-2-1.5
			L17,12.5L15.5,11L14,12.5L12.5,11l-2,2l-2-2L7,12.5L5.5,11L4,12.5L2.5,11l-2,1.5v-3c0-4.418,4.081-8,8.5-8h3
			c4.418,0,8.5,3.582,8.5,8V12.5z"/>
		
			<line fill="none" stroke="#000000" stroke-linecap="round" stroke-linejoin="round" stroke-miterlimit="10" x1="12.5" y1="11" x2="12.5" y2="17"/>
	</g>
</g>
</svg>
