<?xml version="1.0" encoding="utf-8"?>
<!-- Generator: Adobe Illustrator 19.2.0, SVG Export Plug-In . SVG Version: 6.00 Build 0)  -->
<svg version="1.1" id="Layer_1" xmlns="http://www.w3.org/2000/svg" xmlns:xlink="http://www.w3.org/1999/xlink" x="0px" y="0px"
	 viewBox="0 0 24 24" enable-background="new 0 0 24 24" xml:space="preserve">
<g id="Filled_Icons" display="none">
	<path display="inline" d="M22.187,5.318c0-1.283-1.883-4.449-2.26-5.071c-0.182-0.299-0.674-0.299-0.855,0
		c-0.377,0.622-2.26,3.788-2.26,5.071c0,1.311,0.944,2.402,2.189,2.637v1.551c0,3.415-2.649,6.219-6,6.475V7.955
		c1.243-0.234,2.188-1.326,2.188-2.637c0-1.283-1.883-4.449-2.26-5.071c-0.183-0.299-0.675-0.299-0.856,0
		c-0.377,0.622-2.26,3.788-2.26,5.071c0,1.311,0.944,2.402,2.188,2.637v8.025c-3.351-0.256-6-3.06-6-6.475V7.955
		C7.245,7.721,8.19,6.629,8.19,5.318c0-1.283-1.883-4.449-2.26-5.071c-0.182-0.299-0.674-0.299-0.855,0
		c-0.377,0.622-2.26,3.788-2.26,5.071c0,1.311,0.944,2.402,2.188,2.637v1.551c0,3.967,3.098,7.215,7,7.475v6.025H8
		c-0.276,0-0.5,0.223-0.5,0.5c0,0.275,0.224,0.5,0.5,0.5h9c0.275,0,0.5-0.225,0.5-0.5c0-0.277-0.225-0.5-0.5-0.5h-4v-6.025
		c3.902-0.258,7-3.508,7-7.475V7.955C21.243,7.721,22.187,6.629,22.187,5.318z"/>
</g>
<g id="Outline_Icons">
	<g>
		<path fill="none" stroke="#000000" stroke-linecap="round" stroke-linejoin="round" stroke-miterlimit="10" d="M19.5,7.5v2
			c0,3.866-3.134,7-7,7c-3.866,0-7-3.134-7-7v-2"/>
		
			<line fill="none" stroke="#000000" stroke-linecap="round" stroke-linejoin="round" stroke-miterlimit="10" x1="12.5" y1="7.5" x2="12.5" y2="23.5"/>
		
			<line fill="none" stroke="#000000" stroke-linecap="round" stroke-linejoin="round" stroke-miterlimit="10" x1="8" y1="23.5" x2="17" y2="23.5"/>
		<path fill="none" stroke="#000000" stroke-linecap="round" stroke-linejoin="round" stroke-miterlimit="10" d="M7.688,5.312
			C7.688,6.52,6.708,7.5,5.5,7.5S3.313,6.52,3.313,5.312S5.5,0.5,5.5,0.5S7.688,4.104,7.688,5.312z"/>
		<path fill="none" stroke="#000000" stroke-linecap="round" stroke-linejoin="round" stroke-miterlimit="10" d="M14.687,5.312
			c0,1.208-0.978,2.188-2.187,2.188s-2.188-0.98-2.188-2.188S12.5,0.5,12.5,0.5S14.687,4.104,14.687,5.312z"/>
		<path fill="none" stroke="#000000" stroke-linecap="round" stroke-linejoin="round" stroke-miterlimit="10" d="M21.687,5.312
			c0,1.208-0.978,2.188-2.187,2.188s-2.188-0.98-2.188-2.188S19.5,0.5,19.5,0.5S21.687,4.104,21.687,5.312z"/>
	</g>
</g>
</svg>
