<?xml version="1.0" encoding="utf-8"?>
<!-- Generator: Adobe Illustrator 19.2.0, SVG Export Plug-In . SVG Version: 6.00 Build 0)  -->
<svg version="1.1" id="Layer_1" xmlns="http://www.w3.org/2000/svg" xmlns:xlink="http://www.w3.org/1999/xlink" x="0px" y="0px"
	 viewBox="0 0 24 24" style="enable-background:new 0 0 24 24;" xml:space="preserve">
<style type="text/css">
	.st0{display:none;}
	.st1{display:inline;}
	.st2{fill:none;stroke:#000000;stroke-linecap:round;stroke-linejoin:round;stroke-miterlimit:10;}
</style>
<g id="Filled_Icon" class="st0">
	<path class="st1" d="M0,2v20h24V2H0z M8,5c1.1,0,2,0.9,2,2c0,1.1-0.9,2-2,2S6,8.1,6,7C6,5.9,6.9,5,8,5z M1,3.5C1,3.2,1.2,3,1.5,3h3
		C4.7,3,5,3.2,5,3.5C5,3.8,4.7,4,4.5,4H2v2.5C2,6.7,1.8,7,1.5,7C1.2,7,1,6.7,1,6.5V3.5z M4.5,21h-3C1.2,21,1,20.8,1,20.5v-3
		C1,17.3,1.2,17,1.5,17C1.8,17,2,17.3,2,17.5V20h2.5C4.7,20,5,20.2,5,20.5C5,20.8,4.7,21,4.5,21z M3.5,18C3.2,18,3,17.8,3,17.5
		C3,17.3,3.2,17,3.5,17h2.7l2.9-4.8C9.2,12.1,9.3,12,9.5,12c0.2,0,0.3,0.1,0.4,0.2l2.1,2.5l3.6-5.4C15.7,9.1,15.9,9,16.1,9
		c0.2,0,0.3,0.1,0.4,0.3l2.9,7.7h1.2c0.3,0,0.5,0.2,0.5,0.5c0,0.3-0.2,0.5-0.5,0.5H3.5L3.5,18z M23,20.5c0,0.3-0.2,0.5-0.5,0.5h-3
		c-0.3,0-0.5-0.2-0.5-0.5c0-0.3,0.2-0.5,0.5-0.5H22v-2.5c0-0.3,0.2-0.5,0.5-0.5c0.3,0,0.5,0.2,0.5,0.5V20.5z M23,6.5
		C23,6.7,22.8,7,22.5,7C22.2,7,22,6.7,22,6.5V4h-2.5C19.3,4,19,3.8,19,3.5C19,3.2,19.3,3,19.5,3h3C22.8,3,23,3.2,23,3.5V6.5z"/>
</g>
<g id="Outline_Icons">
	<g>
		<polyline class="st2" points="0.5,18.5 0.5,21.5 3.5,21.5 		"/>
		<polyline class="st2" points="3.5,2.5 0.5,2.5 0.5,5.5 		"/>
		<polyline class="st2" points="23.5,5.5 23.5,2.5 20.5,2.5 		"/>
		<polyline class="st2" points="20.5,21.5 23.5,21.5 23.5,18.5 		"/>
		<polyline class="st2" points="19,17.5 16,9.5 12,15.5 9.5,12.5 6.5,17.5 		"/>
		<circle class="st2" cx="8" cy="7" r="1.5"/>
		<line class="st2" x1="20.5" y1="17.5" x2="3.5" y2="17.5"/>
	</g>
</g>
</svg>
