<?xml version="1.0" encoding="utf-8"?>
<!-- Generator: Adobe Illustrator 19.2.0, SVG Export Plug-In . SVG Version: 6.00 Build 0)  -->
<svg version="1.1" id="Layer_1" xmlns="http://www.w3.org/2000/svg" xmlns:xlink="http://www.w3.org/1999/xlink" x="0px" y="0px"
	 viewBox="0 0 24 24" style="enable-background:new 0 0 24 24;" xml:space="preserve">
<style type="text/css">
	.st0{display:none;}
	.st1{display:inline;}
	.st2{fill:none;stroke:#000000;stroke-linecap:round;stroke-linejoin:round;stroke-miterlimit:10;}
</style>
<g id="Filled_Icons" class="st0">
	<g class="st1">
		<path d="M17,12.5c-0.6,0-1,0.4-1,1V19H5V8h5.5c0.6,0,1-0.4,1-1c0-0.6-0.4-1-1-1H4C3.4,6,3,6.4,3,7v13c0,0.6,0.4,1,1,1h13
			c0.6,0,1-0.4,1-1v-6.5C18,12.9,17.6,12.5,17,12.5z"/>
		<path d="M20.4,4.1c-0.1-0.2-0.3-0.4-0.5-0.5c-0.1-0.1-0.3-0.1-0.4-0.1h-6c-0.6,0-1,0.4-1,1c0,0.6,0.4,1,1,1h3.6L6.8,15.8
			c-0.4,0.4-0.4,1,0,1.4c0.2,0.2,0.5,0.3,0.7,0.3c0.3,0,0.5-0.1,0.7-0.3L18.5,6.9v3.6c0,0.6,0.4,1,1,1c0.6,0,1-0.4,1-1v-6
			C20.5,4.4,20.5,4.2,20.4,4.1z"/>
	</g>
</g>
<g id="Outline_Icons">
	<g>
		<polyline class="st2" points="10.5,7.5 4.5,7.5 4.5,19.5 16.5,19.5 16.5,13.5 		"/>
		<line class="st2" x1="7.5" y1="16.5" x2="19.5" y2="4.5"/>
		<polyline class="st2" points="13.5,4.5 19.5,4.5 19.5,10.5 		"/>
	</g>
</g>
</svg>
