<?xml version="1.0" encoding="utf-8"?>
<!-- Generator: Adobe Illustrator 19.2.0, SVG Export Plug-In . SVG Version: 6.00 Build 0)  -->
<svg version="1.1" id="Layer_1" xmlns="http://www.w3.org/2000/svg" xmlns:xlink="http://www.w3.org/1999/xlink" x="0px" y="0px"
	 viewBox="0 0 24 24" enable-background="new 0 0 24 24" xml:space="preserve">
<g id="Filled_Icons" display="none">
	<g display="inline">
		<path d="M3,17.006c-0.181,0-0.347,0.098-0.436,0.254c-0.088,0.157-0.086,0.35,0.007,0.504l0.843,1.404
			C4.055,18.46,4.972,18.006,6,18.006c1.93,0,3.5,1.571,3.5,3.5c0,0.172-0.026,0.335-0.051,0.5h8.102
			c-0.024-0.165-0.051-0.328-0.051-0.5c0-1.929,1.57-3.5,3.5-3.5v-0.5c0-0.277-0.225-0.5-0.5-0.5H6.879L3.064,3.371
			c-0.06-0.215-0.256-0.365-0.481-0.365H0.5c-0.276,0-0.5,0.223-0.5,0.5c0,0.276,0.224,0.5,0.5,0.5h1.704l3.637,13H3z"/>
		<g>
			<g>
				<path d="M21,19.006c-1.379,0-2.5,1.122-2.5,2.5c0,1.378,1.121,2.5,2.5,2.5c1.379,0,2.5-1.122,2.5-2.5
					C23.5,20.128,22.379,19.006,21,19.006z"/>
			</g>
			<g>
				<path d="M6,19.006c-1.379,0-2.5,1.122-2.5,2.5c0,1.378,1.121,2.5,2.5,2.5c1.379,0,2.5-1.122,2.5-2.5
					C8.5,20.128,7.379,19.006,6,19.006z"/>
			</g>
		</g>
		<g>
			<path d="M20.725,16.006c-0.621-1.742-2.271-3-4.225-3h-9c-0.276,0-0.5,0.223-0.5,0.5v2.5H20.725z"/>
		</g>
		<g>
			<path d="M14,12.006v-1c0-0.277-0.225-0.5-0.5-0.5h-4c-0.276,0-0.5,0.223-0.5,0.5v1H14z"/>
		</g>
	</g>
</g>
<g id="Outline_Icons">
	<g>
		
			<line fill="none" stroke="#000000" stroke-linecap="round" stroke-linejoin="round" stroke-miterlimit="10" x1="19" y1="21.5" x2="8" y2="21.5"/>
		<polyline fill="none" stroke="#000000" stroke-linecap="round" stroke-linejoin="round" stroke-miterlimit="10" points="
			6.5,19.531 6.5,17.5 20.5,17.5 20.5,19.531 		"/>
		
			<circle fill="none" stroke="#000000" stroke-linecap="round" stroke-linejoin="round" stroke-miterlimit="10" cx="21" cy="21.5" r="2"/>
		
			<circle fill="none" stroke="#000000" stroke-linecap="round" stroke-linejoin="round" stroke-miterlimit="10" cx="6" cy="21.5" r="2"/>
		<path fill="none" stroke="#000000" stroke-linecap="round" stroke-linejoin="round" stroke-miterlimit="10" d="M20.5,17.5
			c0-2.209-1.791-4-4-4h-9v4H20.5z"/>
		
			<rect x="9.5" y="11.5" fill="none" stroke="#000000" stroke-linecap="round" stroke-linejoin="round" stroke-miterlimit="10" width="4" height="2"/>
		<polyline fill="none" stroke="#000000" stroke-linecap="round" stroke-linejoin="round" stroke-miterlimit="10" points="6.5,17.5 
			2.583,3.5 0.5,3.5 		"/>
		<polyline fill="none" stroke="#000000" stroke-linecap="round" stroke-linejoin="round" stroke-miterlimit="10" points="4.5,20 
			3,17.5 6.5,17.5 		"/>
	</g>
</g>
</svg>
