<?xml version="1.0" encoding="utf-8"?>
<!-- Generator: Adobe Illustrator 19.2.0, SVG Export Plug-In . SVG Version: 6.00 Build 0)  -->
<svg version="1.1" id="Layer_1" xmlns="http://www.w3.org/2000/svg" xmlns:xlink="http://www.w3.org/1999/xlink" x="0px" y="0px"
	 viewBox="0 0 24 24" style="enable-background:new 0 0 24 24;" xml:space="preserve">
<style type="text/css">
	.st0{display:none;}
	.st1{display:inline;}
	.st2{fill:none;stroke:#000000;stroke-linecap:round;stroke-linejoin:round;stroke-miterlimit:10;}
</style>
<g id="Filled_Icons" class="st0">
	<g class="st1">
		<g>
			<path d="M23.2,23.2c-0.1,0-0.3,0-0.4-0.1L0.6,0.9c-0.2-0.2-0.2-0.5,0-0.7C0.8,0,1.2,0,1.4,0.1l22.2,22.2c0.2,0.2,0.2,0.5,0,0.7
				C23.5,23.2,23.4,23.2,23.2,23.2z"/>
		</g>
		<g>
			<path d="M19.8,17.2l3.9-1.7c0.3-0.1,0.4-0.4,0.3-0.7c-0.1-0.3-0.4-0.4-0.7-0.3L19,16.4L19.8,17.2z"/>
			<path d="M16.1,17.7L12,19.5L0.7,14.5c-0.3-0.1-0.5,0-0.7,0.3c-0.1,0.3,0,0.5,0.3,0.7l11.5,5c0.1,0,0.1,0,0.2,0c0.1,0,0.1,0,0.2,0
				l4.6-2L16.1,17.7z"/>
		</g>
		<g>
			<path d="M17.7,15.1l6-2.6c0.3-0.1,0.4-0.4,0.3-0.7c-0.1-0.3-0.4-0.4-0.7-0.3l-6.4,2.8L17.7,15.1z"/>
			<path d="M14,15.6l-2,0.9L0.7,11.5c-0.3-0.1-0.5,0-0.7,0.3c-0.1,0.3,0,0.5,0.3,0.7l11.5,5c0.1,0,0.1,0,0.2,0c0.1,0,0.1,0,0.2,0
				l2.5-1.1L14,15.6z"/>
		</g>
		<g>
			<path d="M15.6,13l8.1-3.5C24,9.4,24.1,9.1,24,8.8c-0.1-0.3-0.4-0.4-0.7-0.3l-8.5,3.7L15.6,13z"/>
			<path d="M11.7,13.3l-11-4.8C0.4,8.4,0.2,8.5,0,8.8c-0.1,0.3,0,0.5,0.3,0.7l11.5,5c0.1,0,0.1,0,0.2,0c0.1,0,0.1,0,0.2,0l0.4-0.2
				L11.7,13.3z"/>
		</g>
		<g>
			<path d="M2.8,4.4L0.3,5.5C0.1,5.6,0,5.8,0,6c0,0.2,0.1,0.4,0.3,0.5l8,3.5L2.8,4.4z"/>
			<path d="M13.5,10.9l10.2-4.4C23.9,6.4,24,6.2,24,6c0-0.2-0.1-0.4-0.3-0.5l-11.5-5c-0.1-0.1-0.3-0.1-0.4,0l-6,2.6L13.5,10.9z"/>
		</g>
	</g>
</g>
<g id="Outline_Icons">
	<g>
		<line class="st2" x1="1" y1="0.5" x2="23.2" y2="22.7"/>
		<line class="st2" x1="12" y1="14.1" x2="0.5" y2="9.1"/>
		<line class="st2" x1="23.5" y1="9.1" x2="16.1" y2="12.3"/>
		<polyline class="st2" points="13.4,16.5 12,17.1 0.5,12.1 		"/>
		<line class="st2" x1="23.5" y1="12.1" x2="18" y2="14.4"/>
		<polyline class="st2" points="16,18.3 12,20.1 0.5,15.1 		"/>
		<line class="st2" x1="23.5" y1="15.1" x2="20.1" y2="16.5"/>
		<polyline class="st2" points="7,3.2 12,1.1 23.5,6.1 14,10.2 		"/>
		<polyline class="st2" points="7,8.9 0.5,6.1 3,5 		"/>
	</g>
</g>
</svg>
