<?xml version="1.0" encoding="utf-8"?>
<!-- Generator: Adobe Illustrator 19.2.0, SVG Export Plug-In . SVG Version: 6.00 Build 0)  -->
<svg version="1.1" id="Layer_1" xmlns="http://www.w3.org/2000/svg" xmlns:xlink="http://www.w3.org/1999/xlink" x="0px" y="0px"
	 viewBox="0 0 24 24" style="enable-background:new 0 0 24 24;" xml:space="preserve">
<style type="text/css">
	.st0{display:none;}
	.st1{display:inline;}
	.st2{fill:none;stroke:#000000;stroke-linecap:round;stroke-linejoin:round;stroke-miterlimit:10;}
</style>
<g id="Filled_Icons" class="st0">
	<g class="st1">
		<path d="M0.3,11l11.5,5c0.1,0,0.1,0,0.2,0c0.1,0,0.1,0,0.2,0l11.5-5c0.3-0.1,0.4-0.4,0.3-0.7c-0.1-0.3-0.4-0.4-0.7-0.3L12,15
			L0.7,10C0.4,9.9,0.2,10,0,10.3C-0.1,10.6,0,10.8,0.3,11z"/>
		<path d="M23.3,13L12,18L0.7,13c-0.3-0.1-0.5,0-0.7,0.3c-0.1,0.3,0,0.5,0.3,0.7l11.5,5c0.1,0,0.1,0,0.2,0c0.1,0,0.1,0,0.2,0l11.5-5
			c0.3-0.1,0.4-0.4,0.3-0.7C23.8,13,23.6,12.9,23.3,13z"/>
		<path d="M23.3,16L12,21L0.7,16c-0.3-0.1-0.5,0-0.7,0.3c-0.1,0.3,0,0.5,0.3,0.7l11.5,5c0.1,0,0.1,0,0.2,0c0.1,0,0.1,0,0.2,0l11.5-5
			c0.3-0.1,0.4-0.4,0.3-0.7C23.8,16,23.6,15.9,23.3,16z"/>
		<path d="M0.3,8l11.5,5c0.1,0,0.1,0,0.2,0c0.1,0,0.1,0,0.2,0l11.5-5C23.9,7.9,24,7.7,24,7.5c0-0.2-0.1-0.4-0.3-0.5L12.2,2
			C12.1,2,11.9,2,11.8,2L0.3,7C0.1,7.1,0,7.3,0,7.5C0,7.7,0.1,7.9,0.3,8z"/>
	</g>
</g>
<g id="Outline_Icons">
	<g>
		<polyline class="st2" points="23.5,10.5 12,15.5 0.5,10.5 		"/>
		<polyline class="st2" points="23.5,13.5 12,18.5 0.5,13.5 		"/>
		<polyline class="st2" points="23.5,16.5 12,21.5 0.5,16.5 		"/>
		<polygon class="st2" points="12,12.5 0.5,7.5 12,2.5 23.5,7.5 		"/>
	</g>
</g>
</svg>
