<?xml version="1.0" encoding="utf-8"?>
<!-- Generator: Adobe Illustrator 19.2.0, SVG Export Plug-In . SVG Version: 6.00 Build 0)  -->
<svg version="1.1" id="Layer_1" xmlns="http://www.w3.org/2000/svg" xmlns:xlink="http://www.w3.org/1999/xlink" x="0px" y="0px"
	 viewBox="0 0 24 24" style="enable-background:new 0 0 24 24;" xml:space="preserve">
<style type="text/css">
	.st0{display:none;}
	.st1{display:inline;}
	.st2{fill:none;stroke:#000000;stroke-linecap:round;stroke-linejoin:round;stroke-miterlimit:10;}
</style>
<g id="Filled_Icon" class="st0">
	<g class="st1">
		<path d="M2,16.5V8H0.5C0.2,8,0,8.2,0,8.5v11C0,19.8,0.2,20,0.5,20h17c0.3,0,0.5-0.2,0.5-0.5V17H2.5C2.2,17,2,16.8,2,16.5z"/>
		<path d="M5,12.5V4H3.5C3.2,4,3,4.2,3,4.5v11V16h0.5h17c0.3,0,0.5-0.2,0.5-0.5V13H5.5C5.2,13,5,12.8,5,12.5z"/>
		<path d="M23.5,0h-17C6.2,0,6,0.2,6,0.5v11V12h0.5h17c0.3,0,0.5-0.2,0.5-0.5v-11C24,0.2,23.8,0,23.5,0z"/>
	</g>
</g>
<g id="Outline_Icons">
	<g>
		<polyline class="st2" points="4.5,4.5 3.5,4.5 3.5,15.5 20.5,15.5 20.5,13.5 		"/>
		<rect x="6.5" y="0.5" class="st2" width="17" height="11"/>
		<polyline class="st2" points="1.5,8.5 0.5,8.5 0.5,19.5 17.5,19.5 17.5,17.5 		"/>
	</g>
</g>
</svg>
