<?xml version="1.0" encoding="utf-8"?>
<!-- Generator: Adobe Illustrator 19.2.0, SVG Export Plug-In . SVG Version: 6.00 Build 0)  -->
<svg version="1.1" id="Layer_1" xmlns="http://www.w3.org/2000/svg" xmlns:xlink="http://www.w3.org/1999/xlink" x="0px" y="0px"
	 viewBox="0 0 24 24" style="enable-background:new 0 0 24 24;" xml:space="preserve">
<style type="text/css">
	.st0{display:none;}
	.st1{display:inline;}
	.st2{fill:none;stroke:#000000;stroke-linejoin:round;stroke-miterlimit:10;}
</style>
<g id="Filled_Icon" class="st0">
	<g class="st1">
		<rect y="8" width="11" height="7"/>
		<path d="M22.5,1h-22C0.2,1,0,1.2,0,1.5V7h23V1.5C23,1.2,22.8,1,22.5,1z"/>
		<path d="M12,24h10.5c0.3,0,0.5-0.2,0.5-0.5V16H12V24z"/>
		<rect x="12" y="8" width="11" height="7"/>
		<path d="M0,23.5C0,23.8,0.2,24,0.5,24H11v-8H0V23.5z"/>
	</g>
</g>
<g id="Outline_Icons">
	<g>
		<line class="st2" x1="0.5" y1="15.5" x2="22.5" y2="15.5"/>
		<rect x="0.5" y="1.5" class="st2" width="22" height="22"/>
		<line class="st2" x1="0.5" y1="7.5" x2="22.5" y2="7.5"/>
		<line class="st2" x1="11.5" y1="7.5" x2="11.5" y2="23.5"/>
	</g>
</g>
</svg>
