<?xml version="1.0" encoding="utf-8"?>
<!-- Generator: Adobe Illustrator 19.2.0, SVG Export Plug-In . SVG Version: 6.00 Build 0)  -->
<svg version="1.1" id="Layer_1" xmlns="http://www.w3.org/2000/svg" xmlns:xlink="http://www.w3.org/1999/xlink" x="0px" y="0px"
	 viewBox="0 0 24 24" style="enable-background:new 0 0 24 24;" xml:space="preserve">
<style type="text/css">
	.st0{display:none;}
	.st1{display:inline;}
	.st2{fill:none;stroke:#000000;stroke-linecap:round;stroke-linejoin:round;stroke-miterlimit:10;}
</style>
<g id="Filled_Icons" class="st0">
	<path class="st1" d="M22.4,1.6c-0.1-0.1-0.3-0.2-0.4-0.1C21.3,1.6,5.1,3.4,1.4,11.2c-1.2,2.5-0.9,5.4,0.8,8.5l-0.7,0.7
		c-0.3,0.3-0.4,0.7-0.4,1.1c0,0.4,0.2,0.8,0.4,1.1C1.8,22.8,2.2,23,2.6,23c0.4,0,0.8-0.2,1.1-0.4l0.7-0.7c1.8,1,3.6,1.5,5.2,1.5
		c4.4,0,8-3.7,10.5-10.7C22,7.4,22.5,2.1,22.6,2.1C22.6,1.9,22.5,1.8,22.4,1.6z M4.2,20.6l-0.7,0.7l0,0l-0.6,0.6c0,0,0,0,0,0
		c-0.2,0.2-0.5,0.2-0.7,0c0,0,0,0,0,0c-0.2-0.2-0.2-0.5,0-0.7l0.6-0.6l0,0l0.7-0.7l2.1-2.1v0V13c0-0.3,0.2-0.5,0.5-0.5
		c0.3,0,0.5,0.2,0.5,0.5v3.8l0,0l1.6-1.6l1.9-1.9l0,0V10c0-0.3,0.2-0.5,0.5-0.5c0.3,0,0.5,0.2,0.5,0.5v2.3v0l3-3V8
		c0-0.3,0.2-0.5,0.5-0.5s0.5,0.2,0.5,0.5v1h1c0.3,0,0.5,0.2,0.5,0.5c0,0.3-0.2,0.5-0.5,0.5h-1.3l-3,3l0,0h2.3c0.3,0,0.5,0.2,0.5,0.5
		c0,0.3-0.2,0.5-0.5,0.5h-3.3l0,0l-1.9,1.9l-1.6,1.6l0,0h3.8c0.3,0,0.5,0.2,0.5,0.5c0,0.3-0.2,0.5-0.5,0.5H6.3h0L4.2,20.6z"/>
</g>
<g id="Outline_Icons">
	<g>
		<line class="st2" x1="14.5" y1="9.5" x2="2.5" y2="21.5"/>
		<path class="st2" d="M22,2c0,0-3.2,28.8-18.7,18.7C-6.8,5.2,22,2,22,2z"/>
		<polyline class="st2" points="11.5,17.5 6.5,17.5 6.5,12.5 		"/>
		<polyline class="st2" points="14,13.5 10.5,13.5 10.5,10 		"/>
		<polyline class="st2" points="16,9.5 14.5,9.5 14.5,8 		"/>
	</g>
</g>
</svg>
