<?xml version="1.0" encoding="utf-8"?>
<!-- Generator: Adobe Illustrator 19.2.0, SVG Export Plug-In . SVG Version: 6.00 Build 0)  -->
<svg version="1.1" id="Layer_1" xmlns="http://www.w3.org/2000/svg" xmlns:xlink="http://www.w3.org/1999/xlink" x="0px" y="0px"
	 viewBox="0 0 24 24" enable-background="new 0 0 24 24" xml:space="preserve">
<g id="Filled_Icons" display="none">
	<g display="inline">
		<g>
			<path d="M7,17.006c0-0.552-0.448-1-1-1H4v2h2C6.552,18.006,7,17.559,7,17.006z"/>
			<path d="M4,21.006h2c0.552,0,1-0.447,1-1c0-0.552-0.448-1-1-1H4V21.006z"/>
			<path d="M8.5,13.006h-6c-1.379,0-2.5,1.121-2.5,2.5v6c0,1.379,1.121,2.5,2.5,2.5h6c1.379,0,2.5-1.121,2.5-2.5v-6
				C11,14.127,9.879,13.006,8.5,13.006z M8,20.006c0,1.104-0.897,2-2,2H3.5c-0.276,0-0.5-0.225-0.5-0.5v-3v-3
				c0-0.275,0.224-0.5,0.5-0.5H6c1.103,0,2,0.896,2,2c0,0.6-0.271,1.133-0.691,1.5C7.729,18.873,8,19.406,8,20.006z"/>
		</g>
		<g>
			<path d="M14.5,1.006h-6c-1.379,0-2.5,1.121-2.5,2.5v6c0,1.379,1.121,2.5,2.5,2.5h6c1.379,0,2.5-1.121,2.5-2.5v-6
				C17,2.127,15.879,1.006,14.5,1.006z M14.187,9.953C14.126,9.979,14.062,9.99,14,9.99c-0.197,0-0.385-0.118-0.463-0.312
				L12.852,7.99h-2.659L9.459,9.688c-0.11,0.253-0.407,0.371-0.657,0.261C8.548,9.84,8.432,9.546,8.541,9.292l2.578-5.969
				c0.08-0.186,0.293-0.31,0.465-0.302c0.201,0.002,0.382,0.125,0.457,0.312l1.607,3.961c0,0.001,0,0.003,0,0.003l0.814,2.005
				C14.566,9.559,14.443,9.85,14.187,9.953z"/>
			<polygon points="10.624,6.99 12.446,6.99 11.563,4.815 			"/>
		</g>
		<path d="M21.5,13.006h-6c-1.379,0-2.5,1.121-2.5,2.5v6c0,1.379,1.121,2.5,2.5,2.5h6c1.379,0,2.5-1.121,2.5-2.5v-6
			C24,14.127,22.879,13.006,21.5,13.006z M21.414,20.981c-0.661,0.66-1.54,1.024-2.475,1.024c-1.931,0-3.5-1.569-3.5-3.5
			c0-1.93,1.569-3.5,3.5-3.5c0.888,0,1.732,0.333,2.383,0.938c0.203,0.188,0.214,0.504,0.025,0.707
			c-0.188,0.201-0.504,0.215-0.707,0.024c-0.464-0.432-1.068-0.67-1.701-0.67c-1.379,0-2.5,1.121-2.5,2.5c0,1.379,1.121,2.5,2.5,2.5
			c0.668,0,1.295-0.26,1.768-0.732c0.195-0.195,0.512-0.195,0.707,0C21.609,20.469,21.609,20.785,21.414,20.981z"/>
	</g>
</g>
<g id="Outline_Icons">
	<g>
		<path fill="none" stroke="#000000" stroke-linecap="round" stroke-linejoin="round" stroke-miterlimit="10" d="M10.5,21.5
			c0,1.104-0.896,2-2,2h-6c-1.104,0-2-0.896-2-2v-6c0-1.103,0.896-2,2-2h6c1.104,0,2,0.897,2,2V21.5z"/>
		<path fill="none" stroke="#000000" stroke-linecap="round" stroke-linejoin="round" stroke-miterlimit="10" d="M23.5,21.5
			c0,1.104-0.897,2-2,2h-6c-1.104,0-2-0.896-2-2v-6c0-1.103,0.896-2,2-2h6c1.103,0,2,0.897,2,2V21.5z"/>
		<path fill="none" stroke="#000000" stroke-linecap="round" stroke-linejoin="round" stroke-miterlimit="10" d="M16.5,9.5
			c0,1.104-0.897,2-2,2h-6c-1.104,0-2-0.896-2-2v-6c0-1.104,0.896-2,2-2h6c1.103,0,2,0.896,2,2V9.5z"/>
		<g>
			<path fill="none" stroke="#000000" stroke-linejoin="round" stroke-miterlimit="10" d="M3.5,15.5H6c0.828,0,1.5,0.672,1.5,1.5
				c0,0.828-0.672,1.5-1.5,1.5H3.5V15.5z"/>
			<path fill="none" stroke="#000000" stroke-linejoin="round" stroke-miterlimit="10" d="M3.5,18.5H6c0.828,0,1.5,0.672,1.5,1.5
				c0,0.828-0.672,1.5-1.5,1.5H3.5V18.5z"/>
		</g>
		<g>
			<polyline fill="none" stroke="#000000" stroke-linecap="round" stroke-linejoin="round" stroke-miterlimit="10" points="9,9.484 
				11.578,3.516 14,9.484 			"/>
			
				<line fill="none" stroke="#000000" stroke-linecap="round" stroke-linejoin="round" stroke-miterlimit="10" x1="9.864" y1="7.484" x2="13.187" y2="7.484"/>
		</g>
		<path fill="none" stroke="#000000" stroke-linecap="round" stroke-linejoin="round" stroke-miterlimit="10" d="M21.06,20.621
			c-0.543,0.543-1.293,0.879-2.121,0.879c-1.656,0-3-1.344-3-3c0-1.656,1.344-3,3-3c0.789,0,1.508,0.307,2.043,0.805"/>
	</g>
</g>
</svg>
