<?xml version="1.0" encoding="utf-8"?>
<!-- Generator: Adobe Illustrator 19.2.0, SVG Export Plug-In . SVG Version: 6.00 Build 0)  -->
<svg version="1.1" id="Layer_1" xmlns="http://www.w3.org/2000/svg" xmlns:xlink="http://www.w3.org/1999/xlink" x="0px" y="0px"
	 viewBox="0 0 24 24" enable-background="new 0 0 24 24" xml:space="preserve">
<g id="Filled_Icons" display="none">
	<g display="inline">
		<path d="M5,14.006v-1.5c0-0.276,0.224-0.5,0.5-0.5h2c0.276,0,0.5,0.224,0.5,0.5v1.5h8v-1.5c0-0.276,0.225-0.5,0.5-0.5h2
			c0.275,0,0.5,0.224,0.5,0.5v1.5h4v-2.5c0-0.276-0.225-0.5-0.5-0.5c-2.583,0-3.5-2.424-3.5-4.5v-3c0-1.378-1.121-2.5-2.5-2.5h-9
			c-1.379,0-2.5,1.122-2.5,2.5v3c0,2.24-1.082,4.5-3.5,4.5c-0.276,0-0.5,0.224-0.5,0.5v2.5H5z M9,2.506c0-0.276,0.224-0.5,0.5-0.5h5
			c0.275,0,0.5,0.224,0.5,0.5v5.5c0,1.654-1.346,3-3,3c-1.654,0-3-1.346-3-3V2.506z"/>
		<rect x="1" y="15.006" width="4" height="3"/>
		<rect x="19" y="15.006" width="4" height="3"/>
		<rect x="8" y="15.006" width="8" height="3"/>
		<path d="M19,19.006v1.5c0,0.275-0.225,0.5-0.5,0.5h-2c-0.275,0-0.5-0.225-0.5-0.5v-1.5H8v1.5c0,0.275-0.224,0.5-0.5,0.5h-2
			c-0.276,0-0.5-0.225-0.5-0.5v-1.5H1v3.5c0,0.275,0.224,0.5,0.5,0.5h21c0.275,0,0.5-0.225,0.5-0.5v-3.5H19z"/>
	</g>
</g>
<g id="Outline_Icons">
	<g>
		<path fill="none" stroke="#000000" stroke-linecap="round" stroke-linejoin="round" stroke-miterlimit="10" d="M5.5,3.5
			c0-1.104,0.896-2,2-2h9c1.103,0,2,0.896,2,2v3c0,2.5,1.238,5,4,5v11h-21v-11c2.762,0,4-2.531,4-5V3.5z"/>
		<path fill="none" stroke="#000000" stroke-linecap="round" stroke-linejoin="round" stroke-miterlimit="10" d="M9.5,1.5h5V7
			c0,1.381-1.119,2.5-2.5,2.5c-1.381,0-2.5-1.119-2.5-2.5V1.5z"/>
		
			<rect x="5.5" y="12.5" fill="none" stroke="#000000" stroke-linecap="round" stroke-linejoin="round" stroke-miterlimit="10" width="2" height="8"/>
		
			<rect x="16.5" y="12.5" fill="none" stroke="#000000" stroke-linecap="round" stroke-linejoin="round" stroke-miterlimit="10" width="2" height="8"/>
		<line fill="none" stroke="#000000" stroke-linejoin="round" stroke-miterlimit="10" x1="1.5" y1="14.5" x2="5.5" y2="14.5"/>
		<line fill="none" stroke="#000000" stroke-linejoin="round" stroke-miterlimit="10" x1="18.5" y1="14.5" x2="22.5" y2="14.5"/>
		<line fill="none" stroke="#000000" stroke-linejoin="round" stroke-miterlimit="10" x1="7.5" y1="14.5" x2="16.5" y2="14.5"/>
		<line fill="none" stroke="#000000" stroke-linejoin="round" stroke-miterlimit="10" x1="1.5" y1="18.5" x2="5.5" y2="18.5"/>
		<line fill="none" stroke="#000000" stroke-linejoin="round" stroke-miterlimit="10" x1="18.5" y1="18.5" x2="22.5" y2="18.5"/>
		<line fill="none" stroke="#000000" stroke-linejoin="round" stroke-miterlimit="10" x1="7.5" y1="18.5" x2="16.5" y2="18.5"/>
	</g>
</g>
</svg>
