<?xml version="1.0" encoding="utf-8"?>
<!-- Generator: Adobe Illustrator 19.2.0, SVG Export Plug-In . SVG Version: 6.00 Build 0)  -->
<svg version="1.1" id="Layer_1" xmlns="http://www.w3.org/2000/svg" xmlns:xlink="http://www.w3.org/1999/xlink" x="0px" y="0px"
	 viewBox="0 0 24 24" enable-background="new 0 0 24 24" xml:space="preserve">
<g id="Filled_Icons" display="none">
	<g display="inline">
		<path d="M11.5,0.006c-4.688,0-8.5,3.814-8.5,8.5c0,4.519,3.546,8.215,8,8.476v-4.269l-0.646,0.646
			c-0.195,0.195-0.512,0.195-0.707,0l-1.5-1.5c-0.195-0.196-0.195-0.512,0-0.707c0.195-0.196,0.512-0.196,0.707,0L10,12.299
			l1.146-1.146c0.046-0.045,0.102-0.083,0.163-0.107c0.122-0.051,0.26-0.051,0.382,0c0.062,0.024,0.117,0.062,0.163,0.107L13,12.299
			l1.146-1.146c0.194-0.196,0.512-0.196,0.707,0c0.194,0.195,0.194,0.511,0,0.707l-1.5,1.5c-0.099,0.098-0.226,0.146-0.354,0.146
			c-0.128,0-0.256-0.049-0.355-0.146L12,12.713v4.269c4.453-0.262,8-3.957,8-8.476C20,3.82,16.187,0.006,11.5,0.006z"/>
		<path d="M14,18.006H9c-0.276,0-0.5,0.225-0.5,0.5c0,0.275,0.224,0.5,0.5,0.5h5c0.275,0,0.5-0.225,0.5-0.5
			C14.5,18.231,14.275,18.006,14,18.006z"/>
		<path d="M14,20.006H9c-0.276,0-0.5,0.225-0.5,0.5c0,0.275,0.224,0.5,0.5,0.5h5c0.275,0,0.5-0.225,0.5-0.5
			C14.5,20.231,14.275,20.006,14,20.006z"/>
		<path d="M14,22.006H9c-0.276,0-0.5,0.225-0.5,0.5c0,0.275,0.224,0.5,0.5,0.5h2v0.5c0,0.275,0.224,0.5,0.5,0.5
			c0.275,0,0.5-0.225,0.5-0.5v-0.5h2c0.275,0,0.5-0.225,0.5-0.5C14.5,22.231,14.275,22.006,14,22.006z"/>
	</g>
</g>
<g id="Outline_Icons">
	<g>
		
			<circle fill="none" stroke="#000000" stroke-linecap="round" stroke-linejoin="round" stroke-miterlimit="10" cx="11.5" cy="8.5" r="8"/>
		
			<line fill="none" stroke="#000000" stroke-linecap="round" stroke-linejoin="round" stroke-miterlimit="10" x1="9" y1="18.5" x2="14" y2="18.5"/>
		
			<line fill="none" stroke="#000000" stroke-linecap="round" stroke-linejoin="round" stroke-miterlimit="10" x1="9" y1="20.5" x2="14" y2="20.5"/>
		
			<line fill="none" stroke="#000000" stroke-linecap="round" stroke-linejoin="round" stroke-miterlimit="10" x1="9" y1="22.5" x2="14" y2="22.5"/>
		
			<line fill="none" stroke="#000000" stroke-linecap="round" stroke-linejoin="round" stroke-miterlimit="10" x1="11.5" y1="22.5" x2="11.5" y2="23.5"/>
		<polyline fill="none" stroke="#000000" stroke-linecap="round" stroke-linejoin="round" stroke-miterlimit="10" points="
			14.5,11.5 13,13 11.5,11.5 10,13 8.5,11.5 		"/>
		
			<line fill="none" stroke="#000000" stroke-linecap="round" stroke-linejoin="round" stroke-miterlimit="10" x1="11.5" y1="11.5" x2="11.5" y2="16.5"/>
	</g>
</g>
</svg>
