<?xml version="1.0" encoding="utf-8"?>
<!-- Generator: Adobe Illustrator 19.2.0, SVG Export Plug-In . SVG Version: 6.00 Build 0)  -->
<svg version="1.1" id="Layer_1" xmlns="http://www.w3.org/2000/svg" xmlns:xlink="http://www.w3.org/1999/xlink" x="0px" y="0px"
	 viewBox="0 0 24 24" style="enable-background:new 0 0 24 24;" xml:space="preserve">
<style type="text/css">
	.st0{display:none;}
	.st1{display:inline;}
	.st2{fill:none;stroke:#000000;stroke-linecap:round;stroke-linejoin:round;stroke-miterlimit:10;}
</style>
<g id="Filled_Icons" class="st0">
	<g class="st1">
		<path d="M8.5,6h1h5h0h1C15.8,6,16,5.8,16,5.5C16,5.2,15.8,5,15.5,5H15c-0.2-1.3-1.2-2.2-2.5-2.5v-2C12.5,0.2,12.3,0,12,0
			c-0.3,0-0.5,0.2-0.5,0.5v2C10.2,2.8,9.3,3.8,9,5H8.5C8.2,5,8,5.2,8,5.5C8,5.8,8.2,6,8.5,6z"/>
		<path d="M18.5,23H16V11h0.5c0.3,0,0.5-0.2,0.5-0.5c0-0.3-0.2-0.5-0.5-0.5H15V7.5C15,7.2,14.8,7,14.5,7h-5C9.2,7,9,7.2,9,7.5V10
			H7.5C7.2,10,7,10.2,7,10.5C7,10.8,7.2,11,7.5,11H8v12H5.5C5.2,23,5,23.2,5,23.5C5,23.8,5.2,24,5.5,24H10v-3.5
			c0-0.3,0.2-0.5,0.5-0.5h3c0.3,0,0.5,0.2,0.5,0.5V24h4.5c0.3,0,0.5-0.2,0.5-0.5C19,23.2,18.8,23,18.5,23z"/>
		<path d="M0.3,5l6,2c0.1,0,0.1,0,0.2,0C6.7,7,6.9,6.9,7,6.7C7.1,6.4,6.9,6.1,6.7,6l-6-2C0.4,3.9,0.1,4.1,0,4.3
			C-0.1,4.6,0.1,4.9,0.3,5z"/>
		<path d="M7,8.3C6.9,8.1,6.6,7.9,6.3,8l-6,2c-0.3,0.1-0.4,0.4-0.3,0.6C0.1,10.9,0.3,11,0.5,11c0.1,0,0.1,0,0.2,0l6-2
			C6.9,8.9,7.1,8.6,7,8.3z"/>
		<path d="M17.5,7c0.1,0,0.1,0,0.2,0l6-2c0.3-0.1,0.4-0.4,0.3-0.6c-0.1-0.3-0.4-0.4-0.6-0.3l-6,2c-0.3,0.1-0.4,0.4-0.3,0.6
			C17.1,6.9,17.3,7,17.5,7z"/>
		<path d="M23.7,10l-6-2c-0.3-0.1-0.5,0.1-0.6,0.3c-0.1,0.3,0.1,0.5,0.3,0.6l6,2c0.1,0,0.1,0,0.2,0c0.2,0,0.4-0.1,0.5-0.3
			C24.1,10.4,23.9,10.1,23.7,10z"/>
		<path d="M2.5,7C2.2,7,2,7.2,2,7.5C2,7.8,2.2,8,2.5,8h2C4.8,8,5,7.8,5,7.5C5,7.2,4.8,7,4.5,7H2.5z"/>
		<path d="M19.5,7C19.2,7,19,7.2,19,7.5C19,7.8,19.2,8,19.5,8h2C21.8,8,22,7.8,22,7.5C22,7.2,21.8,7,21.5,7H19.5z"/>
	</g>
</g>
<g id="Outline_Icons">
	<g>
		<rect x="8.5" y="10.5" class="st2" width="7" height="13"/>
		<rect x="9.5" y="5.5" class="st2" width="5" height="5"/>
		<line class="st2" x1="11.5" y1="3" x2="11.5" y2="0.5"/>
		<line class="st2" x1="7.5" y1="10.5" x2="16.5" y2="10.5"/>
		<line class="st2" x1="8.5" y1="5.5" x2="15.5" y2="5.5"/>
		<line class="st2" x1="5.5" y1="23.5" x2="18.5" y2="23.5"/>
		<rect x="10.5" y="20.5" class="st2" width="3" height="3"/>
		<path class="st2" d="M9.5,5.5C9.5,4.1,10.6,3,12,3c1.4,0,2.5,1.1,2.5,2.5"/>
		<line class="st2" x1="0.5" y1="4.5" x2="6.5" y2="6.5"/>
		<line class="st2" x1="0.5" y1="10.5" x2="6.5" y2="8.5"/>
		<line class="st2" x1="23.5" y1="4.5" x2="17.5" y2="6.5"/>
		<line class="st2" x1="23.5" y1="10.5" x2="17.5" y2="8.5"/>
		<line class="st2" x1="4.5" y1="7.5" x2="2.5" y2="7.5"/>
		<line class="st2" x1="19.5" y1="7.5" x2="21.5" y2="7.5"/>
	</g>
</g>
</svg>
