<?xml version="1.0" encoding="utf-8"?>
<!-- Generator: Adobe Illustrator 19.2.0, SVG Export Plug-In . SVG Version: 6.00 Build 0)  -->
<svg version="1.1" id="Layer_1" xmlns="http://www.w3.org/2000/svg" xmlns:xlink="http://www.w3.org/1999/xlink" x="0px" y="0px"
	 viewBox="0 0 24 24" enable-background="new 0 0 24 24" xml:space="preserve">
<g id="Filled_Icons" display="none">
	<g display="inline">
		<path d="M11.5,5.006c-3.584,0-6.5,2.916-6.5,6.5c0,2.832,1.831,5.319,4.5,6.18v0.82c0,0.275,0.224,0.5,0.5,0.5h3
			c0.275,0,0.5-0.225,0.5-0.5v-0.82c2.668-0.861,4.5-3.349,4.5-6.18C18,7.922,15.084,5.006,11.5,5.006z"/>
		<path d="M12,22.006h-1c-0.276,0-0.5,0.225-0.5,0.5c0,0.275,0.224,0.5,0.5,0.5h1c0.275,0,0.5-0.225,0.5-0.5
			C12.5,22.231,12.275,22.006,12,22.006z"/>
		<path d="M13,20.006h-3c-0.276,0-0.5,0.225-0.5,0.5c0,0.275,0.224,0.5,0.5,0.5h3c0.275,0,0.5-0.225,0.5-0.5
			C13.5,20.231,13.275,20.006,13,20.006z"/>
		<path d="M11.5,4.006c0.275,0,0.5-0.224,0.5-0.5v-2c0-0.276-0.225-0.5-0.5-0.5c-0.276,0-0.5,0.224-0.5,0.5v2
			C11,3.783,11.224,4.006,11.5,4.006z"/>
		<path d="M21.5,11.006h-2c-0.275,0-0.5,0.224-0.5,0.5c0,0.276,0.225,0.5,0.5,0.5h2c0.275,0,0.5-0.224,0.5-0.5
			C22,11.23,21.775,11.006,21.5,11.006z"/>
		<path d="M3.5,11.006h-2c-0.276,0-0.5,0.224-0.5,0.5c0,0.276,0.224,0.5,0.5,0.5h2c0.275,0,0.5-0.224,0.5-0.5
			C4,11.23,3.775,11.006,3.5,11.006z"/>
		<path d="M5.488,6.205c0.098,0.097,0.226,0.146,0.354,0.146c0.128,0,0.256-0.049,0.354-0.146c0.195-0.195,0.195-0.512,0-0.708
			L4.074,3.375c-0.195-0.196-0.512-0.196-0.707,0c-0.195,0.195-0.195,0.511,0,0.707L5.488,6.205z"/>
		<path d="M17.154,6.351c0.129,0,0.257-0.049,0.354-0.146l2.122-2.123c0.195-0.196,0.195-0.512,0-0.707
			c-0.195-0.196-0.512-0.196-0.707,0l-2.121,2.122c-0.195,0.195-0.195,0.512,0,0.708C16.898,6.302,17.027,6.351,17.154,6.351z"/>
	</g>
</g>
<g id="Outline_Icons">
	<g>
		<path fill="none" stroke="#000000" stroke-linecap="round" stroke-linejoin="round" stroke-miterlimit="10" d="M17.5,11.5
			c0-3.314-2.688-6-6-6c-3.314,0-6,2.686-6,6c0,2.794,1.913,5.137,4.5,5.803V18.5h3v-1.197C15.585,16.637,17.5,14.294,17.5,11.5z"/>
		
			<line fill="none" stroke="#000000" stroke-linecap="round" stroke-linejoin="round" stroke-miterlimit="10" x1="12" y1="22.5" x2="11" y2="22.5"/>
		
			<line fill="none" stroke="#000000" stroke-linecap="round" stroke-linejoin="round" stroke-miterlimit="10" x1="13" y1="20.5" x2="10" y2="20.5"/>
		
			<line fill="none" stroke="#000000" stroke-linecap="round" stroke-linejoin="round" stroke-miterlimit="10" x1="11.5" y1="1.5" x2="11.5" y2="3.5"/>
		
			<line fill="none" stroke="#000000" stroke-linecap="round" stroke-linejoin="round" stroke-miterlimit="10" x1="21.5" y1="11.5" x2="19.5" y2="11.5"/>
		
			<line fill="none" stroke="#000000" stroke-linecap="round" stroke-linejoin="round" stroke-miterlimit="10" x1="1.5" y1="11.5" x2="3.5" y2="11.5"/>
		
			<line fill="none" stroke="#000000" stroke-linecap="round" stroke-linejoin="round" stroke-miterlimit="10" x1="3.721" y1="3.722" x2="5.843" y2="5.844"/>
		
			<line fill="none" stroke="#000000" stroke-linecap="round" stroke-linejoin="round" stroke-miterlimit="10" x1="19.277" y1="3.722" x2="17.154" y2="5.844"/>
	</g>
</g>
</svg>
