<?xml version="1.0" encoding="utf-8"?>
<!-- Generator: Adobe Illustrator 19.2.0, SVG Export Plug-In . SVG Version: 6.00 Build 0)  -->
<svg version="1.1" id="Layer_1" xmlns="http://www.w3.org/2000/svg" xmlns:xlink="http://www.w3.org/1999/xlink" x="0px" y="0px"
	 viewBox="0 0 24 24" enable-background="new 0 0 24 24" xml:space="preserve">
<g id="Filled_Icons" display="none">
	<g display="inline">
		<path d="M15.5,14.272c0.275,0,0.5-0.224,0.5-0.5c0-0.276-0.225-0.5-0.5-0.5c-1.473,0-2.5,0.924-2.5,2.25v0.5h-3v-0.5
			c0-0.717-0.302-1.317-0.812-1.717l6.451-1.866c0.266-0.077,0.418-0.354,0.342-0.619c-0.078-0.266-0.357-0.417-0.619-0.341
			l-8,2.312c-0.239,0.068-0.392,0.305-0.356,0.55c0.035,0.247,0.246,0.431,0.495,0.431c0.692,0,1.5,0.328,1.5,1.25v0.5H7.5
			c-0.144,0-0.281,0.061-0.376,0.17c-0.095,0.107-0.139,0.252-0.12,0.394l0.283,2.146C7.73,20.504,9.222,21.773,11,21.979v1.043
			c0,0.276,0.224,0.5,0.5,0.5c0.276,0,0.5-0.224,0.5-0.5v-1.043c1.777-0.205,3.271-1.48,3.725-3.303l0.271-2.09
			c0.019-0.142-0.025-0.286-0.12-0.394c-0.095-0.109-0.232-0.17-0.376-0.17H14v-0.5C14,14.6,14.809,14.272,15.5,14.272z"/>
		<path d="M15.863,7.979l-9,2.563c-0.266,0.075-0.42,0.352-0.344,0.617c0.063,0.221,0.263,0.363,0.48,0.363
			c0.045,0,0.091-0.005,0.137-0.018l9.001-2.564c0.266-0.075,0.42-0.352,0.344-0.617C16.404,8.057,16.131,7.9,15.863,7.979z"/>
		<path d="M7,8.521c0.045,0,0.091-0.005,0.137-0.018l9-2.564c0.266-0.075,0.42-0.352,0.344-0.617
			c-0.074-0.266-0.35-0.42-0.617-0.344L6.864,7.541C6.598,7.617,6.443,7.894,6.52,8.159C6.582,8.379,6.782,8.521,7,8.521z"/>
		<path d="M7.5,5.037c0.037,0,0.074-0.004,0.112-0.013l4-0.921C11.839,4.05,12,3.848,12,3.615V1.506c0-0.277-0.224-0.5-0.5-0.5
			c-0.276,0-0.5,0.223-0.5,0.5v1.71L7.388,4.05c-0.27,0.062-0.437,0.33-0.375,0.6C7.066,4.881,7.271,5.037,7.5,5.037z"/>
	</g>
</g>
<g id="Outline_Icons">
	<g>
		<path fill="none" stroke="#000000" stroke-linecap="round" stroke-linejoin="round" stroke-miterlimit="10" d="M7.5,16.516
			l0.272,2.09c0.428,1.711,1.964,2.91,3.728,2.91c1.764,0,3.3-1.199,3.728-2.91l0.272-2.09H7.5z"/>
		<path fill="none" stroke="#000000" stroke-linecap="round" stroke-linejoin="round" stroke-miterlimit="10" d="M9.5,16.516v-1
			c0-1.104-0.896-1.75-2-1.75l8-2.312"/>
		<path fill="none" stroke="#000000" stroke-linecap="round" stroke-linejoin="round" stroke-miterlimit="10" d="M13.5,16.516v-1
			c0-1.104,0.896-1.75,2-1.75"/>
		
			<line fill="none" stroke="#000000" stroke-linecap="round" stroke-linejoin="round" stroke-miterlimit="10" x1="7" y1="11.016" x2="16" y2="8.453"/>
		
			<line fill="none" stroke="#000000" stroke-linecap="round" stroke-linejoin="round" stroke-miterlimit="10" x1="7" y1="8.016" x2="16" y2="5.453"/>
		<polyline fill="none" stroke="#000000" stroke-linecap="round" stroke-linejoin="round" stroke-miterlimit="10" points="
			7.5,4.531 11.5,3.609 11.5,1.5 		"/>
		
			<line fill="none" stroke="#000000" stroke-linecap="round" stroke-linejoin="round" stroke-miterlimit="10" x1="11.5" y1="21.516" x2="11.5" y2="23.016"/>
	</g>
</g>
</svg>
