<?xml version="1.0" encoding="utf-8"?>
<!-- Generator: Adobe Illustrator 19.2.0, SVG Export Plug-In . SVG Version: 6.00 Build 0)  -->
<svg version="1.1" id="Layer_1" xmlns="http://www.w3.org/2000/svg" xmlns:xlink="http://www.w3.org/1999/xlink" x="0px" y="0px"
	 viewBox="0 0 24 24" style="enable-background:new 0 0 24 24;" xml:space="preserve">
<style type="text/css">
	.st0{display:none;}
	.st1{display:inline;}
	.st2{fill:none;stroke:#000000;stroke-linecap:round;stroke-linejoin:round;stroke-miterlimit:10;}
	.st3{fill:none;stroke:#000000;stroke-linejoin:round;stroke-miterlimit:10;}
</style>
<g id="Filled_Icon" class="st0">
	<g class="st1">
		<path d="M9.3,11.7C9.5,11.9,9.7,12,10,12c0.3,0,0.5-0.1,0.7-0.3c0.4-0.4,0.4-1,0-1.4l-3-3c-0.4-0.4-1-0.4-1.4,0l-3,3
			c-0.4,0.4-0.4,1,0,1.4c0.4,0.4,1,0.4,1.4,0L6,10.4v10.2l-1.3-1.3c-0.4-0.4-1-0.4-1.4,0c-0.4,0.4-0.4,1,0,1.4l3,3
			C6.5,23.9,6.7,24,7,24c0.3,0,0.5-0.1,0.7-0.3l3-3c0.4-0.4,0.4-1,0-1.4c-0.4-0.4-1-0.4-1.4,0L8,20.6V10.4L9.3,11.7z"/>
		<path d="M13,10h10c0.6,0,1-0.4,1-1c0-0.6-0.4-1-1-1h-2.5c0.1,0,0.3,0,0.4-0.1c0.5-0.2,0.8-0.8,0.5-1.3l-2.5-6
			C18.8,0.2,18.4,0,18,0c-0.4,0-0.8,0.2-0.9,0.6l-2.5,6c-0.2,0.5,0,1.1,0.5,1.3C15.2,8,15.4,8,15.5,8H13c-0.6,0-1,0.4-1,1
			C12,9.6,12.4,10,13,10z M18,3.6l0.4,0.9h-0.8L18,3.6z M16.4,7.4l0.4-0.9h2.4l0.4,0.9C19.7,7.8,20.1,8,20.5,8h-5
			C15.9,8,16.3,7.8,16.4,7.4z"/>
		<path d="M23,22h-2.5c0.1,0,0.3,0,0.4-0.1c0.5-0.2,0.8-0.8,0.5-1.3l-2.5-6C18.8,14.2,18.4,14,18,14c-0.4,0-0.8,0.2-0.9,0.6l-2.5,6
			c-0.2,0.5,0,1.1,0.5,1.3c0.1,0.1,0.3,0.1,0.4,0.1H13c-0.6,0-1,0.4-1,1c0,0.6,0.4,1,1,1h10c0.6,0,1-0.4,1-1C24,22.4,23.6,22,23,22z
			 M18,17.6l0.4,0.9h-0.8L18,17.6z M15.5,22c0.4,0,0.8-0.2,0.9-0.6l0.4-0.9h2.4l0.4,0.9c0.2,0.4,0.5,0.6,0.9,0.6H15.5z"/>
	</g>
</g>
<g id="Outline_Icons">
	<g>
		<polyline class="st2" points="21,6.5 18.5,0.5 16,6.5 		"/>
		<line class="st3" x1="17" y1="4" x2="20" y2="4"/>
		<line class="st2" x1="7.5" y1="8.5" x2="7.5" y2="23.5"/>
		<polyline class="st2" points="4.5,11.5 7.5,8.5 10.5,11.5 		"/>
		<polyline class="st2" points="4.5,20.5 7.5,23.5 10.5,20.5 		"/>
		<line class="st2" x1="23.5" y1="8.5" x2="13.5" y2="8.5"/>
		<polyline class="st2" points="21,21.5 18.5,15.5 16,21.5 		"/>
		<line class="st3" x1="17" y1="19" x2="20" y2="19"/>
		<line class="st2" x1="23.5" y1="23.5" x2="13.5" y2="23.5"/>
	</g>
</g>
</svg>
