<?xml version="1.0" encoding="utf-8"?>
<!-- Generator: Adobe Illustrator 19.2.0, SVG Export Plug-In . SVG Version: 6.00 Build 0)  -->
<svg version="1.1" id="Layer_1" xmlns="http://www.w3.org/2000/svg" xmlns:xlink="http://www.w3.org/1999/xlink" x="0px" y="0px"
	 viewBox="0 0 24 24" style="enable-background:new 0 0 24 24;" xml:space="preserve">
<style type="text/css">
	.st0{display:none;}
	.st1{display:inline;}
	.st2{fill:none;stroke:#000000;stroke-linecap:round;stroke-linejoin:round;stroke-miterlimit:10;}
</style>
<g id="Filled_Icons" class="st0">
	<g class="st1">
		<path d="M18.7,13.6l3.8-4.1c1.5-1.7,0.8-4.7-0.8-6.2l-1.8-1.7c-0.8-0.7-1.9-1.2-3-1.3c-1.3-0.1-2.5,0.2-3.2,1L9.9,5.4
			c-1.1,1.2-1.1,3.1,0.2,4.2l0.1,0.1c0.4,0.4,1,0.4,1.4-0.1c0.4-0.4,0.4-1-0.1-1.4l-0.1-0.1c-0.4-0.4-0.4-1-0.1-1.4l3.8-4.1
			c0.3-0.3,0.8-0.5,1.5-0.4c0.7,0.1,1.4,0.4,1.9,0.8l1.8,1.7c0.9,0.8,1.4,2.6,0.7,3.3l-3.8,4.1c-0.4,0.4-1,0.4-1.4,0.1l-0.1-0.1
			c-0.4-0.4-1-0.4-1.4,0.1c-0.4,0.4-0.4,1,0.1,1.4l0.1,0.1c0.6,0.5,1.3,0.8,2,0.8C17.3,14.5,18.1,14.2,18.7,13.6z"/>
		<path d="M9.5,10.3C8.9,9.7,8.2,9.4,7.4,9.5c-0.8,0-1.5,0.4-2.1,1l-3.8,4.1c-0.7,0.8-1,2-0.8,3.3c0.2,1.1,0.8,2.2,1.5,2.9l1.8,1.7
			c0.9,0.8,2.3,1.3,3.5,1.3c1,0,2-0.3,2.7-1l3.8-4.1c1.1-1.2,1.1-3.1-0.2-4.2l-0.1-0.1c-0.4-0.4-1-0.4-1.4,0.1
			c-0.4,0.4-0.4,1,0.1,1.4l0.1,0.1c0.4,0.4,0.4,1,0.1,1.4l-3.8,4.1c-0.7,0.7-2.5,0.4-3.4-0.4l-1.8-1.7c-0.4-0.4-0.8-1.1-0.9-1.8
			c-0.1-0.7,0-1.2,0.3-1.5l3.8-4.1c0.2-0.2,0.4-0.3,0.7-0.3c0.3,0,0.5,0.1,0.7,0.3l0.1,0.1c0.4,0.4,1,0.4,1.4-0.1
			C10,11.4,10,10.7,9.5,10.3L9.5,10.3z"/>
		<path d="M7.6,16.8C7.8,16.9,8,17,8.3,17c0.3,0,0.5-0.1,0.7-0.3l7.5-8.1c0.4-0.4,0.4-1-0.1-1.4c-0.4-0.4-1-0.4-1.4,0.1l-7.5,8.1
			C7.2,15.8,7.2,16.4,7.6,16.8z"/>
	</g>
</g>
<g id="Outline_Icons">
	<g>
		<path class="st2" d="M14.5,12.5L14.5,12.5c0.9,0.9,2.1,0.9,2.9,0.1l4-4c1.2-1.2,1.2-3.1,0-4.2l-1.8-1.8c-1.2-1.2-3.1-1.2-4.2,0
			l-4,4c-0.8,0.8-0.8,2,0,2.8l0.1,0.1"/>
		<path class="st2" d="M9.5,11.5L9.5,11.5c-0.9-0.9-2.1-0.9-2.9-0.1l-4,4c-1.2,1.2-1.2,3.1,0,4.2l1.8,1.8c1.2,1.2,3.1,1.2,4.2,0l4-4
			c0.8-0.8,0.8-2,0-2.8l-0.1-0.1"/>
		<line class="st2" x1="8.1" y1="15.9" x2="15.9" y2="8.1"/>
	</g>
</g>
</svg>
