<?xml version="1.0" encoding="utf-8"?>
<!-- Generator: Adobe Illustrator 19.2.0, SVG Export Plug-In . SVG Version: 6.00 Build 0)  -->
<svg version="1.1" id="Layer_1" xmlns="http://www.w3.org/2000/svg" xmlns:xlink="http://www.w3.org/1999/xlink" x="0px" y="0px"
	 viewBox="0 0 24 24" style="enable-background:new 0 0 24 24;" xml:space="preserve">
<style type="text/css">
	.st0{display:none;}
	.st1{display:inline;}
	.st2{fill:none;stroke:#000000;stroke-linecap:round;stroke-linejoin:round;stroke-miterlimit:10;}
</style>
<g id="Filled_Icons" class="st0">
	<g class="st1">
		<g>
			<path d="M5.9,5.6c-0.3,0-0.5-0.1-0.7-0.3l-2-2c-0.4-0.4-0.4-1,0-1.4c0.4-0.4,1-0.4,1.4,0l2,2c0.4,0.4,0.4,1,0,1.4
				C6.4,5.5,6.2,5.6,5.9,5.6z"/>
		</g>
		<g>
			<path d="M9,4.5c-0.6,0-1-0.4-1-1V1c0-0.6,0.4-1,1-1c0.6,0,1,0.4,1,1v2.5C10,4,9.5,4.5,9,4.5z"/>
		</g>
		<g>
			<path d="M4.9,9H2.4c-0.6,0-1-0.4-1-1c0-0.6,0.4-1,1-1h2.5c0.6,0,1,0.4,1,1C5.9,8.5,5.4,9,4.9,9z"/>
		</g>
		<g>
			<path d="M5.5,24c-1.2,0-2.3-0.4-3.2-1.3l-1.1-1.1c-1.8-1.8-1.8-4.6,0-6.4l3.4-3.4c0.4-0.4,1-0.4,1.4,0c0.4,0.4,0.4,1,0,1.4
				l-3.4,3.4c-1,1-1,2.6,0,3.5l1.1,1.1c1,1,2.6,1,3.5,0l3.4-3.4c0.4-0.4,1-0.4,1.4,0c0.4,0.4,0.4,1,0,1.4l-3.4,3.4
				C7.8,23.6,6.7,24,5.5,24z"/>
		</g>
		<g>
			<path d="M19.4,18h-4.5c-0.6,0-1-0.4-1-1c0-0.6,0.4-1,1-1h4.5c1.4,0,2.6-1.1,2.6-2.4v-2c0-1.3-1.2-2.6-2.6-2.6h-4.5
				c-0.6,0-1-0.4-1-1c0-0.6,0.4-1,1-1h4.5c2.5,0,4.6,2.1,4.6,4.6v2C24,16,21.9,18,19.4,18z"/>
		</g>
	</g>
</g>
<g id="Outline_Icons">
	<g>
		<line class="st2" x1="6.4" y1="5.1" x2="4.4" y2="3.1"/>
		<line class="st2" x1="9.5" y1="4" x2="9.5" y2="1.5"/>
		<line class="st2" x1="5.4" y1="8.5" x2="2.9" y2="8.5"/>
		<path class="st2" d="M10.9,19.1l-3.4,3.4c-1.4,1.4-3.6,1.4-4.9,0l-1.1-1.1c-1.4-1.4-1.4-3.6,0-4.9l3.4-3.4"/>
		<path class="st2" d="M15.4,8.5h4.5c1.9,0,3.6,1.7,3.6,3.6v2c0,1.9-1.7,3.4-3.6,3.4h-4.5"/>
	</g>
</g>
</svg>
