<?xml version="1.0" encoding="utf-8"?>
<!-- Generator: Adobe Illustrator 19.2.0, SVG Export Plug-In . SVG Version: 6.00 Build 0)  -->
<svg version="1.1" id="Layer_1" xmlns="http://www.w3.org/2000/svg" xmlns:xlink="http://www.w3.org/1999/xlink" x="0px" y="0px"
	 viewBox="0 0 24 24" style="enable-background:new 0 0 24 24;" xml:space="preserve">
<style type="text/css">
	.st0{display:none;}
	.st1{display:inline;}
	.st2{fill:none;stroke:#000000;stroke-linecap:round;stroke-linejoin:round;stroke-miterlimit:10;}
</style>
<g id="Filled_Icons" class="st0">
	<g class="st1">
		<path d="M9.5,10.9c0.8-0.8,2.1-0.8,2.8,0l0.7,0.7c0.4,0.4,1,0.4,1.4,0c0.4-0.4,0.4-1,0-1.4l-0.7-0.7C13,8.8,12,8.4,10.9,8.4
			c-1.1,0-2.1,0.4-2.8,1.2l-4.6,4.6c-1.6,1.6-1.6,4.1,0,5.7l0.7,0.7C5,21.2,6,21.7,7,21.7c1.1,0,2.1-0.4,2.8-1.2l2.2-2.2
			c0.4-0.4,0.4-1,0-1.4c-0.4-0.4-1-0.4-1.4,0l-2.2,2.2c-0.8,0.8-2.1,0.8-2.8,0l-0.7-0.7c-0.8-0.8-0.8-2,0-2.8L9.5,10.9z"/>
		<path d="M15.9,14.5l4.6-4.6c0.8-0.8,1.2-1.8,1.2-2.8c0-1.1-0.4-2.1-1.2-2.8l-0.7-0.7C19,2.8,18,2.3,17,2.3c-1.1,0-2.1,0.4-2.8,1.2
			l-2,2c-0.4,0.4-0.4,1,0,1.4c0.4,0.4,1,0.4,1.4,0l2-2c0.4-0.4,0.9-0.6,1.4-0.6c0.5,0,1,0.2,1.4,0.6l0.7,0.7
			c0.4,0.4,0.6,0.9,0.6,1.4c0,0.5-0.2,1-0.6,1.4l-4.6,4.6c-0.8,0.8-2.1,0.8-2.8,0c-0.4-0.4-1-0.4-1.4,0c-0.4,0.4-0.4,1,0,1.4
			c0.8,0.8,1.8,1.2,2.8,1.2C14.1,15.6,15.1,15.2,15.9,14.5z"/>
	</g>
</g>
<g id="Outline_Icons">
	<g>
		<path class="st2" d="M12.4,16.6l-3.2,3.2C8,21,6.1,21,4.9,19.8l-0.7-0.7c-1.2-1.2-1.2-3.1,0-4.2l4.6-4.6c1.2-1.2,3.1-1.2,4.2,0
			l0.7,0.7"/>
		<path class="st2" d="M11.6,7.4l3.2-3.2c1.2-1.2,3.1-1.2,4.2,0l0.7,0.7C21,6.1,21,8,19.8,9.2l-4.6,4.6c-1.2,1.2-3.1,1.2-4.2,0"/>
	</g>
</g>
</svg>
