<?xml version="1.0" encoding="utf-8"?>
<!-- Generator: Adobe Illustrator 19.2.0, SVG Export Plug-In . SVG Version: 6.00 Build 0)  -->
<svg version="1.1" id="Layer_1" xmlns="http://www.w3.org/2000/svg" xmlns:xlink="http://www.w3.org/1999/xlink" x="0px" y="0px"
	 viewBox="0 0 24 24" style="enable-background:new 0 0 24 24;" xml:space="preserve">
<style type="text/css">
	.st0{display:none;}
	.st1{display:inline;}
	.st2{fill:none;stroke:#000000;stroke-linecap:round;stroke-linejoin:round;stroke-miterlimit:10;}
</style>
<g id="Filled_Icons" class="st0">
	<g class="st1">
		<path d="M1.3,17.4C2,17.8,2.9,18,4,18c2.8,0-2.7,0,4.5,0c1,0,3,0,3-2c0-0.6-0.5-1-1-1c-0.5,0-0.9,0.2-1,1c-0.2,0.1-0.8,0-1,0L4,16
			c-1,0-2-0.2-2-1.1v-3.6C2,10.1,3.1,10,4,10h4.5c0.6,0,0.8,0,0.9,0.1c0,0,0.1,0,0.1,0.2c0,0.6,0.4,1,1,1c0,0,0,0,0,0
			c0.5,0,1-0.4,1-1c0-0.9-0.4-1.6-1.1-2C10,8.1,9.4,8,8.5,8L4,8c-2.3,0-4,1-4,3.2v3.6C0,16.3,0.7,17,1.3,17.4z"/>
		<path d="M22.7,17.4C22,17.8,21.1,18,20,18c-2.8,0,2.7,0-4.5,0c-1,0-3,0-3-2c0-0.6,0.5-1,1-1c0.5,0,0.9,0.2,1,1c0.2,0.1,0.8,0,1,0
			l4.5,0c1,0,2-0.2,2-1.1v-3.6c0-1.1-1.1-1.3-2-1.3h-4.5c-0.6,0-0.8,0-0.9,0.1c0,0-0.1,0-0.1,0.2c0,0.6-0.4,1-1,1c0,0,0,0,0,0
			c-0.5,0-1-0.4-1-1c0-0.9,0.4-1.6,1.1-2C14,8.1,14.6,8,15.5,8L20,8c2.3,0,4,1,4,3.2v3.6C24,16.3,23.3,17,22.7,17.4z"/>
		<path d="M18,13c0-0.6-0.4-1-1-1H7c-0.6,0-1,0.4-1,1c0,0.6,0.4,1,1,1h10C17.5,14,18,13.6,18,13z"/>
	</g>
</g>
<g id="Outline_Icons">
	<g>
		<path class="st2" d="M13.5,14.5c0,1.1,0.9,2,2,2h5c1.7,0,3-1.3,3-3v-2c0-1.6-1.3-3-3-3h-5c-1.1,0-2,0.9-2,2"/>
		<path class="st2" d="M10.5,14.5c0,1.1-0.9,2-2,2h-5c-1.6,0-3-1.3-3-3v-2c0-1.6,1.4-3,3-3h5c1.1,0,2,0.9,2,2"/>
		<line class="st2" x1="6.5" y1="12.5" x2="17.5" y2="12.5"/>
	</g>
</g>
</svg>
