<?xml version="1.0" encoding="utf-8"?>
<!-- Generator: Adobe Illustrator 19.2.0, SVG Export Plug-In . SVG Version: 6.00 Build 0)  -->
<svg version="1.1" id="Layer_1" xmlns="http://www.w3.org/2000/svg" xmlns:xlink="http://www.w3.org/1999/xlink" x="0px" y="0px"
	 viewBox="0 0 24 24" style="enable-background:new 0 0 24 24;" xml:space="preserve">
<style type="text/css">
	.st0{display:none;}
	.st1{display:inline;}
	.st2{fill:none;stroke:#000000;stroke-linecap:round;stroke-linejoin:round;stroke-miterlimit:10;}
</style>
<g id="Filled_Icons" class="st0">
	<g class="st1">
		<path d="M19.5,15.5h-4c-0.6,0-1,0.4-1,1c0,0.6,0.4,1,1,1h4c2.6,0,4.5-2.1,4.5-5v-1c0-2.9-1.9-5-4.5-5h-4c-0.6,0-1,0.4-1,1
			c0,0.6,0.4,1,1,1h4c1.7,0,2.5,1.5,2.5,3v1C22,14,21.2,15.5,19.5,15.5z"/>
		<path d="M0,11.5v1c0,2.9,1.9,5,4.5,5h4c0.6,0,1-0.4,1-1c0-0.6-0.4-1-1-1h-4c-1.7,0-2.5-1.5-2.5-3v-1c0-1.5,0.8-3,2.5-3h4
			c0.6,0,1-0.4,1-1c0-0.6-0.4-1-1-1h-4C1.9,6.5,0,8.6,0,11.5z"/>
		<path d="M12,6c0.6,0,1-0.4,1-1V2c0-0.6-0.4-1-1-1c-0.6,0-1,0.4-1,1v3C11,5.6,11.4,6,12,6z"/>
		<path d="M15.8,2.3l-1.5,1.5c-0.4,0.4-0.4,1,0,1.4c0.2,0.2,0.5,0.3,0.7,0.3c0.3,0,0.5-0.1,0.7-0.3l1.5-1.5c0.4-0.4,0.4-1,0-1.4
			C16.8,1.9,16.2,1.9,15.8,2.3z"/>
		<path d="M9.7,3.8L8.2,2.3c-0.4-0.4-1-0.4-1.4,0c-0.4,0.4-0.4,1,0,1.4l1.5,1.5C8.5,5.4,8.7,5.5,9,5.5c0.3,0,0.5-0.1,0.7-0.3
			C10.1,4.8,10.1,4.2,9.7,3.8z"/>
		<path d="M11,22c0,0.6,0.4,1,1,1c0.6,0,1-0.4,1-1v-3c0-0.6-0.4-1-1-1c-0.6,0-1,0.4-1,1V22z"/>
		<path d="M14.3,20.2l1.5,1.5c0.2,0.2,0.5,0.3,0.7,0.3c0.3,0,0.5-0.1,0.7-0.3c0.4-0.4,0.4-1,0-1.4l-1.5-1.5c-0.4-0.4-1-0.4-1.4,0
			C13.9,19.2,13.9,19.8,14.3,20.2z"/>
		<path d="M8.3,18.8l-1.5,1.5c-0.4,0.4-0.4,1,0,1.4C7,21.9,7.2,22,7.5,22c0.3,0,0.5-0.1,0.7-0.3l1.5-1.5c0.4-0.4,0.4-1,0-1.4
			C9.3,18.4,8.7,18.4,8.3,18.8z"/>
	</g>
</g>
<g id="Outline_Icons">
	<g>
		<path class="st2" d="M14.5,7.5h4c2.2,0,4,1.8,4,4v1c0,2.2-1.8,4-4,4h-4"/>
		<path class="st2" d="M8.5,7.5h-4c-2.2,0-4,1.8-4,4v1c0,2.2,1.8,4,4,4h4"/>
		<line class="st2" x1="11.5" y1="5.5" x2="11.5" y2="2.5"/>
		<line class="st2" x1="14.5" y1="5" x2="16" y2="3.5"/>
		<line class="st2" x1="8.5" y1="5" x2="7" y2="3.5"/>
		<line class="st2" x1="11.5" y1="18.5" x2="11.5" y2="21.5"/>
		<line class="st2" x1="14.5" y1="19" x2="16" y2="20.5"/>
		<line class="st2" x1="8.5" y1="19" x2="7" y2="20.5"/>
	</g>
</g>
</svg>
