<?xml version="1.0" encoding="utf-8"?>
<!-- Generator: Adobe Illustrator 19.2.0, SVG Export Plug-In . SVG Version: 6.00 Build 0)  -->
<svg version="1.1" id="Layer_1" xmlns="http://www.w3.org/2000/svg" xmlns:xlink="http://www.w3.org/1999/xlink" x="0px" y="0px"
	 viewBox="0 0 24 24" style="enable-background:new 0 0 24 24;" xml:space="preserve">
<style type="text/css">
	.st0{display:none;}
	.st1{display:inline;}
	.st2{fill:none;stroke:#000000;stroke-linejoin:round;stroke-miterlimit:10;}
	.st3{fill:none;stroke:#000000;stroke-linecap:round;stroke-linejoin:round;stroke-miterlimit:10;}
</style>
<g id="Filled_Icons" class="st0">
	<g class="st1">
		<path d="M9,12V0.5c0-0.2-0.1-0.4-0.3-0.4C8.6,0,8.4,0,8.2,0.1l-6,4C2.1,4.2,2,4.3,2,4.5V12H9z M6,4c0-0.3,0.2-0.5,0.5-0.5
			C6.8,3.5,7,3.7,7,4v6c0,0.3-0.2,0.5-0.5,0.5C6.2,10.5,6,10.3,6,10V4z"/>
		<path d="M8.5,13h-6C1.1,13,0,14.1,0,15.5v8C0,23.8,0.2,24,0.5,24h10c0.3,0,0.5-0.2,0.5-0.5v-8C11,14.1,9.9,13,8.5,13z"/>
		<g>
			<path d="M24,18v-5.5c0-0.3-0.2-0.5-0.5-0.5h-10c-0.3,0-0.5,0.2-0.5,0.5V18H24z"/>
			<path d="M13,22v1.5c0,0.3,0.2,0.5,0.5,0.5h10c0.3,0,0.5-0.2,0.5-0.5V22H13z"/>
			<rect x="13" y="19" width="11" height="2"/>
		</g>
	</g>
</g>
<g id="Outline_Icons">
	<g>
		<path class="st2" d="M10.5,15.5c0-1.1-0.9-2-2-2h-6c-1.1,0-2,0.9-2,2v8h10V15.5z"/>
		<rect x="13.5" y="12.5" class="st2" width="10" height="11"/>
		<polygon class="st2" points="8.5,0.5 2.5,4.5 2.5,13.5 8.5,13.5 		"/>
		<line class="st3" x1="6.5" y1="4" x2="6.5" y2="10"/>
		<rect x="13.5" y="18.5" class="st2" width="10" height="3"/>
	</g>
</g>
</svg>
