<?xml version="1.0" encoding="utf-8"?>
<!-- Generator: Adobe Illustrator 19.2.0, SVG Export Plug-In . SVG Version: 6.00 Build 0)  -->
<svg version="1.1" id="Layer_1" xmlns="http://www.w3.org/2000/svg" xmlns:xlink="http://www.w3.org/1999/xlink" x="0px" y="0px"
	 viewBox="0 0 24 24" enable-background="new 0 0 24 24" xml:space="preserve">
<g id="Filled_Icons" display="none">
	<g display="inline">
		<path d="M22.988,12.027c0-0.12-0.031-0.238-0.114-0.332c-0.17-0.19-4.187-4.668-7.374-4.668c-2.088,0-2.898,0.702-3.435,1.166
			c-0.286,0.247-0.4,0.334-0.565,0.334c-0.162,0-0.267-0.081-0.548-0.33c-0.525-0.466-1.319-1.17-3.411-1.17
			c-3.187,0-7.242,4.476-7.413,4.666c-0.085,0.094-0.116,0.213-0.115,0.334H22.988z"/>
		<path d="M0.589,13.027c1.315,1.75,5.097,5.979,10.911,5.979c5.812,0,9.596-4.229,10.91-5.979H0.589z"/>
	</g>
</g>
<g id="Outline_Icons">
	<g>
		<path fill="none" stroke="#000000" stroke-linejoin="round" stroke-miterlimit="10" d="M0.5,12.021c0,0,4.041-4.5,7.041-4.5
			s2.959,1.5,3.959,1.5s1-1.5,4-1.5s7,4.5,7,4.5s-4.022,6.479-11,6.479C4.521,18.5,0.5,12.021,0.5,12.021z"/>
		<path fill="none" stroke="#000000" stroke-linejoin="round" stroke-miterlimit="10" d="M1,12.522c0,0,5.5,0,10.5,0s10.5,0,10.5,0"
			/>
	</g>
</g>
</svg>
