<?xml version="1.0" encoding="utf-8"?>
<!-- Generator: Adobe Illustrator 19.2.0, SVG Export Plug-In . SVG Version: 6.00 Build 0)  -->
<svg version="1.1" id="Layer_1" xmlns="http://www.w3.org/2000/svg" xmlns:xlink="http://www.w3.org/1999/xlink" x="0px" y="0px"
	 viewBox="0 0 24 24" style="enable-background:new 0 0 24 24;" xml:space="preserve">
<style type="text/css">
	.st0{display:none;}
	.st1{display:inline;}
	.st2{fill:none;stroke:#000000;stroke-linecap:round;stroke-linejoin:round;stroke-miterlimit:10;}
</style>
<g id="Filled_Icon" class="st0">
	<g class="st1">
		<path d="M10,6h13c0.6,0,1-0.4,1-1c0-0.6-0.4-1-1-1H10C9.4,4,9,4.4,9,5C9,5.5,9.4,6,10,6z"/>
		<path d="M23,12H10c-0.6,0-1,0.4-1,1c0,0.6,0.4,1,1,1h13c0.6,0,1-0.4,1-1C24,12.4,23.6,12,23,12z"/>
		<path d="M23,20H10c-0.6,0-1,0.4-1,1c0,0.6,0.4,1,1,1h13c0.6,0,1-0.4,1-1C24,20.4,23.6,20,23,20z"/>
		<path d="M6,3.5H5.3l0.6-1C6.1,2,6,1.4,5.5,1.1C5,0.9,4.4,1,4.1,1.5L3.5,2.6L2.9,1.5C2.6,1,2,0.9,1.5,1.1C1,1.4,0.9,2,1.1,2.5
			l0.6,1H1c-0.6,0-1,0.4-1,1c0,0.6,0.4,1,1,1h0.7l-0.6,1C0.9,7,1,7.6,1.5,7.9C1.6,8,1.8,8,2,8c0.3,0,0.7-0.2,0.9-0.5l0.6-1.1
			l0.6,1.1C4.3,7.8,4.7,8,5,8c0.2,0,0.4,0,0.5-0.1C6,7.6,6.1,7,5.9,6.5l-0.6-1H6c0.6,0,1-0.4,1-1C7,3.9,6.6,3.5,6,3.5z"/>
		<path d="M6,11.5H5.3l0.6-1C6.1,10,6,9.4,5.5,9.1C5,8.9,4.4,9,4.1,9.5l-0.6,1.1L2.9,9.5C2.6,9,2,8.9,1.5,9.1C1,9.4,0.9,10,1.1,10.5
			l0.6,1H1c-0.6,0-1,0.4-1,1c0,0.6,0.4,1,1,1h0.7l-0.6,1C0.9,15,1,15.6,1.5,15.9C1.6,16,1.8,16,2,16c0.3,0,0.7-0.2,0.9-0.5l0.6-1.1
			l0.6,1.1C4.3,15.8,4.7,16,5,16c0.2,0,0.4,0,0.5-0.1C6,15.6,6.1,15,5.9,14.5l-0.6-1H6c0.6,0,1-0.4,1-1C7,11.9,6.6,11.5,6,11.5z"/>
		<path d="M6,19.5H5.3l0.6-1C6.1,18,6,17.4,5.5,17.1C5,16.9,4.4,17,4.1,17.5l-0.6,1.1l-0.6-1.1C2.6,17,2,16.9,1.5,17.1
			C1,17.4,0.9,18,1.1,18.5l0.6,1H1c-0.6,0-1,0.4-1,1c0,0.6,0.4,1,1,1h0.7l-0.6,1C0.9,23,1,23.6,1.5,23.9C1.6,24,1.8,24,2,24
			c0.3,0,0.7-0.2,0.9-0.5l0.6-1.1l0.6,1.1C4.3,23.8,4.7,24,5,24c0.2,0,0.4,0,0.5-0.1C6,23.6,6.1,23,5.9,22.5l-0.6-1H6
			c0.6,0,1-0.4,1-1C7,19.9,6.6,19.5,6,19.5z"/>
	</g>
</g>
<g id="Outline_Icons">
	<g>
		<line class="st2" x1="9.5" y1="4.5" x2="23.5" y2="4.5"/>
		<line class="st2" x1="9.5" y1="12.5" x2="23.5" y2="12.5"/>
		<line class="st2" x1="9.5" y1="20.5" x2="23.5" y2="20.5"/>
		<line class="st2" x1="5.5" y1="4.5" x2="0.5" y2="4.5"/>
		<line class="st2" x1="4.5" y1="2" x2="1.5" y2="7"/>
		<line class="st2" x1="1.5" y1="2" x2="4.5" y2="7"/>
		<line class="st2" x1="5.5" y1="12.5" x2="0.5" y2="12.5"/>
		<line class="st2" x1="4.5" y1="10" x2="1.5" y2="15"/>
		<line class="st2" x1="1.5" y1="10" x2="4.5" y2="15"/>
		<line class="st2" x1="5.5" y1="20.5" x2="0.5" y2="20.5"/>
		<line class="st2" x1="4.5" y1="18" x2="1.5" y2="23"/>
		<line class="st2" x1="1.5" y1="18" x2="4.5" y2="23"/>
	</g>
</g>
</svg>
