<?xml version="1.0" encoding="utf-8"?>
<!-- Generator: Adobe Illustrator 19.2.0, SVG Export Plug-In . SVG Version: 6.00 Build 0)  -->
<svg version="1.1" id="Layer_1" xmlns="http://www.w3.org/2000/svg" xmlns:xlink="http://www.w3.org/1999/xlink" x="0px" y="0px"
	 viewBox="0 0 24 24" style="enable-background:new 0 0 24 24;" xml:space="preserve">
<style type="text/css">
	.st0{display:none;}
	.st1{display:inline;}
	.st2{fill:none;stroke:#000000;stroke-linecap:round;stroke-linejoin:round;stroke-miterlimit:10;}
</style>
<g id="Filled_Icon" class="st0">
	<g class="st1">
		<path d="M7.1,6H23c0.6,0,1-0.4,1-1c0-0.6-0.4-1-1-1H7.1c-0.6,0-1,0.4-1,1C6.1,5.5,6.5,6,7.1,6z"/>
		<path d="M23,12H7.1c-0.6,0-1,0.4-1,1c0,0.6,0.4,1,1,1H23c0.6,0,1-0.4,1-1C24,12.4,23.6,12,23,12z"/>
		<path d="M23,20H7.1c-0.6,0-1,0.4-1,1c0,0.6,0.4,1,1,1H23c0.6,0,1-0.4,1-1C24,20.4,23.6,20,23,20z"/>
		<path d="M1.5,4.6l0.7-0.6v2.4c0,0.4,0.3,0.8,0.8,0.8c0.4,0,0.8-0.3,0.8-0.8V2.6c0-0.3-0.2-0.5-0.4-0.7C3.1,1.8,2.8,1.8,2.5,2
			L0.6,3.4C0.3,3.7,0.2,4.2,0.5,4.5C0.7,4.8,1.2,4.9,1.5,4.6z"/>
		<path d="M3.1,13.8H2.6c0.1-0.1,0.2-0.2,0.3-0.3c0.5-0.5,0.9-0.9,0.9-1.9c0-1-0.8-1.7-1.8-1.7c-1,0-1.7,0.8-1.7,1.7
			c0,0.4,0.3,0.8,0.8,0.8c0.4,0,0.7-0.3,0.7-0.8c0-0.1,0.1-0.2,0.2-0.2c0.1,0,0.2,0.1,0.2,0.2c0,0.4,0,0.4-0.5,0.9
			c-0.3,0.3-0.8,0.8-1.4,1.6c-0.2,0.2-0.2,0.5-0.1,0.8c0.1,0.3,0.4,0.4,0.7,0.4h2.1c0.4,0,0.7-0.3,0.7-0.8
			C3.8,14.1,3.5,13.8,3.1,13.8z"/>
		<path d="M3.6,18.9c0.1-0.2,0.2-0.5,0-0.8c-0.1-0.2-0.4-0.4-0.7-0.4H1.1c-0.4,0-0.7,0.3-0.7,0.8c0,0.4,0.3,0.8,0.7,0.8h0.5
			l-0.2,0.4c-0.1,0.2-0.2,0.5,0,0.8c0.1,0.2,0.4,0.4,0.7,0.4c0.2,0,0.2,0,0.2,0c0,0,0,0.1,0,0.2c0,0.1,0,0.2,0,0.2c0,0-0.1,0-0.2,0
			H1.1c-0.4,0-0.7,0.3-0.7,0.8c0,0.4,0.3,0.8,0.7,0.8H2c1.1,0,1.8-0.6,1.8-1.7c0-0.6-0.2-1.1-0.6-1.4L3.6,18.9z"/>
	</g>
</g>
<g id="Outline_Icons">
	<g>
		<line class="st2" x1="6.5" y1="4.5" x2="23.5" y2="4.5"/>
		<line class="st2" x1="6.5" y1="12.5" x2="23.5" y2="12.5"/>
		<line class="st2" x1="6.5" y1="20.5" x2="23.5" y2="20.5"/>
		<polyline class="st2" points="2,6.5 2,2.6 0.5,4 		"/>
		<path class="st2" d="M2.6,14.5H0.5c1.5-2,2-1.8,2-3c0-0.6-0.4-1-1-1c-0.6,0-1,0.4-1,1"/>
		<path class="st2" d="M0.5,18.5h1.9l-1,1.5c0.8,0,1,0.5,1,1s-0.2,1-1,1H0.5"/>
	</g>
</g>
</svg>
