<?xml version="1.0" encoding="utf-8"?>
<!-- Generator: Adobe Illustrator 19.2.0, SVG Export Plug-In . SVG Version: 6.00 Build 0)  -->
<svg version="1.1" id="Layer_1" xmlns="http://www.w3.org/2000/svg" xmlns:xlink="http://www.w3.org/1999/xlink" x="0px" y="0px"
	 viewBox="0 0 24 24" style="enable-background:new 0 0 24 24;" xml:space="preserve">
<style type="text/css">
	.st0{display:none;}
	.st1{display:inline;}
	.st2{fill:none;stroke:#000000;stroke-linejoin:round;stroke-miterlimit:10;}
	.st3{fill:none;stroke:#000000;stroke-linecap:round;stroke-linejoin:round;stroke-miterlimit:10;}
</style>
<g id="Filled_Icon" class="st0">
	<g class="st1">
		<g>
			<rect x="4" y="2" width="15" height="1"/>
		</g>
		<g>
			<rect x="4" y="6" width="15" height="1"/>
		</g>
		<g>
			<rect x="4" y="10" width="15" height="1"/>
		</g>
		<g>
			<rect x="4" y="14" width="7" height="1"/>
		</g>
		<g>
			<rect x="4" y="18" width="7" height="1"/>
		</g>
		<path d="M18.5,13c-3,0-5.5,2.5-5.5,5.5c0,3,2.5,5.5,5.5,5.5c3,0,5.5-2.5,5.5-5.5C24,15.5,21.5,13,18.5,13z M21,19h-5
			c-0.3,0-0.5-0.2-0.5-0.5c0-0.3,0.2-0.5,0.5-0.5h5c0.3,0,0.5,0.2,0.5,0.5C21.5,18.8,21.3,19,21,19z"/>
		<g>
			<rect x="1" y="2" width="1" height="1"/>
		</g>
		<g>
			<rect x="1" y="6" width="1" height="1"/>
		</g>
		<g>
			<rect x="1" y="10" width="1" height="1"/>
		</g>
		<g>
			<rect x="1" y="14" width="1" height="1"/>
		</g>
		<g>
			<rect x="1" y="18" width="1" height="1"/>
		</g>
	</g>
</g>
<g id="Outline_Icons">
	<g>
		<line class="st2" x1="4" y1="2.5" x2="19" y2="2.5"/>
		<line class="st2" x1="4" y1="6.5" x2="19" y2="6.5"/>
		<line class="st2" x1="4" y1="10.5" x2="19" y2="10.5"/>
		<line class="st2" x1="4" y1="14.5" x2="11" y2="14.5"/>
		<line class="st2" x1="4" y1="18.5" x2="11" y2="18.5"/>
		<circle class="st2" cx="18.5" cy="18.5" r="5"/>
		<line class="st3" x1="21" y1="18.5" x2="16" y2="18.5"/>
		<line class="st2" x1="1" y1="2.5" x2="2" y2="2.5"/>
		<line class="st2" x1="1" y1="6.5" x2="2" y2="6.5"/>
		<line class="st2" x1="1" y1="10.5" x2="2" y2="10.5"/>
		<line class="st2" x1="1" y1="14.5" x2="2" y2="14.5"/>
		<line class="st2" x1="1" y1="18.5" x2="2" y2="18.5"/>
	</g>
</g>
</svg>
