<?xml version="1.0" encoding="utf-8"?>
<!-- Generator: Adobe Illustrator 19.2.0, SVG Export Plug-In . SVG Version: 6.00 Build 0)  -->
<svg version="1.1" id="Layer_1" xmlns="http://www.w3.org/2000/svg" xmlns:xlink="http://www.w3.org/1999/xlink" x="0px" y="0px"
	 viewBox="0 0 24 24" style="enable-background:new 0 0 24 24;" xml:space="preserve">
<style type="text/css">
	.st0{display:none;}
	.st1{display:inline;}
	.st2{fill:none;stroke:#000000;stroke-linecap:round;stroke-linejoin:round;stroke-miterlimit:10;}
</style>
<g id="Filled_Icon" class="st0">
	<g class="st1">
		<path d="M8.5,6H23c0.6,0,1-0.4,1-1c0-0.6-0.4-1-1-1H8.5c-0.6,0-1,0.4-1,1C7.5,5.5,7.9,6,8.5,6z"/>
		<path d="M23,12H8.5c-0.6,0-1,0.4-1,1c0,0.6,0.4,1,1,1H23c0.6,0,1-0.4,1-1C24,12.4,23.6,12,23,12z"/>
		<path d="M23,20H8.5c-0.6,0-1,0.4-1,1c0,0.6,0.4,1,1,1H23c0.6,0,1-0.4,1-1C24,20.4,23.6,20,23,20z"/>
		<path d="M4.5,2h-4C0.2,2,0,2.2,0,2.5v4C0,6.8,0.2,7,0.5,7h4C4.8,7,5,6.8,5,6.5v-4C5,2.2,4.8,2,4.5,2z"/>
		<path d="M4.5,10h-4C0.2,10,0,10.2,0,10.5v4C0,14.8,0.2,15,0.5,15h4C4.8,15,5,14.8,5,14.5v-4C5,10.2,4.8,10,4.5,10z"/>
		<path d="M4.5,18h-4C0.2,18,0,18.2,0,18.5v4C0,22.8,0.2,23,0.5,23h4C4.8,23,5,22.8,5,22.5v-4C5,18.2,4.8,18,4.5,18z"/>
	</g>
</g>
<g id="Outline_Icons">
	<g>
		<line class="st2" x1="8.5" y1="4.5" x2="23.5" y2="4.5"/>
		<line class="st2" x1="8.5" y1="12.5" x2="23.5" y2="12.5"/>
		<line class="st2" x1="8.5" y1="20.5" x2="23.5" y2="20.5"/>
		<rect x="0.5" y="2.5" class="st2" width="4" height="4"/>
		<rect x="0.5" y="10.5" class="st2" width="4" height="4"/>
		<rect x="0.5" y="18.5" class="st2" width="4" height="4"/>
	</g>
</g>
</svg>
