<?xml version="1.0" encoding="utf-8"?>
<!-- Generator: Adobe Illustrator 19.2.0, SVG Export Plug-In . SVG Version: 6.00 Build 0)  -->
<svg version="1.1" id="Layer_1" xmlns="http://www.w3.org/2000/svg" xmlns:xlink="http://www.w3.org/1999/xlink" x="0px" y="0px"
	 viewBox="0 0 24 24" style="enable-background:new 0 0 24 24;" xml:space="preserve">
<style type="text/css">
	.st0{display:none;}
	.st1{display:inline;}
	.st2{fill:none;stroke:#000000;stroke-linecap:round;stroke-linejoin:round;stroke-miterlimit:10;}
</style>
<g id="Filled_Icon" class="st0">
	<g class="st1">
		<path d="M2.7,2.1c-1.4,0-2.5,1.1-2.5,2.5c0,1.4,1.1,2.5,2.5,2.5c1.4,0,2.5-1.1,2.5-2.5C5.2,3.2,4.1,2.1,2.7,2.1z"/>
		<path d="M8.8,6H23c0.6,0,1-0.4,1-1c0-0.6-0.4-1-1-1H8.8c-0.6,0-1,0.4-1,1C7.8,5.6,8.2,6,8.8,6z"/>
		<path d="M2.7,10.1c-1.4,0-2.5,1.1-2.5,2.5c0,1.4,1.1,2.5,2.5,2.5c1.4,0,2.5-1.1,2.5-2.5C5.2,11.2,4.1,10.1,2.7,10.1z"/>
		<path d="M23,12H8.8c-0.6,0-1,0.4-1,1c0,0.6,0.4,1,1,1H23c0.6,0,1-0.4,1-1C24,12.4,23.6,12,23,12z"/>
		<path d="M2.7,18.1c-1.4,0-2.5,1.1-2.5,2.5s1.1,2.5,2.5,2.5c1.4,0,2.5-1.1,2.5-2.5S4.1,18.1,2.7,18.1z"/>
		<path d="M23,20H8.8c-0.6,0-1,0.4-1,1c0,0.6,0.4,1,1,1H23c0.6,0,1-0.4,1-1C24,20.4,23.6,20,23,20z"/>
	</g>
</g>
<g id="Outline_Icons">
	<g>
		<circle class="st2" cx="2.5" cy="4.5" r="2"/>
		<line class="st2" x1="8.6" y1="4.4" x2="23.5" y2="4.4"/>
		<circle class="st2" cx="2.5" cy="12.5" r="2"/>
		<line class="st2" x1="8.6" y1="12.4" x2="23.5" y2="12.4"/>
		<circle class="st2" cx="2.5" cy="20.5" r="2"/>
		<line class="st2" x1="8.6" y1="20.4" x2="23.5" y2="20.4"/>
	</g>
</g>
</svg>
