<?xml version="1.0" encoding="utf-8"?>
<!-- Generator: Adobe Illustrator 19.2.0, SVG Export Plug-In . SVG Version: 6.00 Build 0)  -->
<svg version="1.1" id="Layer_1" xmlns="http://www.w3.org/2000/svg" xmlns:xlink="http://www.w3.org/1999/xlink" x="0px" y="0px"
	 viewBox="0 0 24 24" style="enable-background:new 0 0 24 24;" xml:space="preserve">
<style type="text/css">
	.st0{display:none;}
	.st1{display:inline;}
	.st2{fill:none;stroke:#000000;stroke-linecap:round;stroke-linejoin:round;stroke-miterlimit:10;}
</style>
<g id="Filled_Icons" class="st0">
	<g class="st1">
		<path d="M11.5,18.8c-0.6,0-1,0.4-1,1v2c0,0.6,0.4,1,1,1c0.6,0,1-0.4,1-1v-2C12.5,19.3,12.1,18.8,11.5,18.8z"/>
		<path d="M21,11.5l-2,0c-0.6,0-1,0.4-1,1c0,0.6,0.4,1,1,1l2,0c0,0,0,0,0,0c0.6,0,1-0.4,1-1C22,12,21.6,11.5,21,11.5z"/>
		<path d="M11.5,0C11.5,0,11.5,0,11.5,0c-0.6,0-1,0.4-1,1l0,4c0,0.6,0.4,1,1,1c0,0,0,0,0,0c0.6,0,1-0.4,1-1l0-4
			C12.5,0.4,12.1,0,11.5,0z"/>
		<path d="M8.8,18.5c-0.5-0.2-1.1,0-1.3,0.5l-0.8,1.8c-0.2,0.5,0,1.1,0.5,1.3c0.1,0.1,0.3,0.1,0.4,0.1c0.4,0,0.8-0.2,0.9-0.6
			l0.8-1.8C9.6,19.3,9.3,18.7,8.8,18.5z"/>
		<path d="M15.5,19c-0.2-0.5-0.8-0.8-1.3-0.5c-0.5,0.2-0.8,0.8-0.5,1.3l0.8,1.8c0.2,0.4,0.5,0.6,0.9,0.6c0.1,0,0.3,0,0.4-0.1
			c0.5-0.2,0.8-0.8,0.5-1.3L15.5,19z"/>
		<path d="M4,13.5C4,13.5,4,13.5,4,13.5c0.6,0,1-0.4,1-1c0-0.6-0.4-1-1-1l-2,0c0,0,0,0,0,0c-0.6,0-1,0.4-1,1c0,0.6,0.4,1,1,1L4,13.5
			z"/>
		<path d="M17.5,10c0.2,0.4,0.5,0.6,0.9,0.6c0.1,0,0.3,0,0.4-0.1l1.8-0.8c0.5-0.2,0.8-0.8,0.5-1.3C21,8,20.4,7.7,19.9,8l-1.8,0.8
			C17.6,8.9,17.3,9.5,17.5,10z"/>
		<path d="M5.5,15c-0.2-0.5-0.8-0.8-1.3-0.5l-1.9,0.8c-0.5,0.2-0.8,0.8-0.5,1.3c0.2,0.4,0.5,0.6,0.9,0.6c0.1,0,0.3,0,0.4-0.1L5,16.3
			C5.5,16.1,5.7,15.5,5.5,15z"/>
		<path d="M17.5,17.1c-0.4-0.4-1-0.4-1.4,0c-0.4,0.4-0.4,1,0,1.4l1.4,1.4c0.2,0.2,0.5,0.3,0.7,0.3c0.3,0,0.5-0.1,0.7-0.3
			c0.4-0.4,0.4-1,0-1.4L17.5,17.1z"/>
		<path d="M16.1,7.9c0.2,0.2,0.5,0.3,0.7,0.3c0.3,0,0.5-0.1,0.7-0.3L19,6.5c0.4-0.4,0.4-1,0-1.4c-0.4-0.4-1-0.4-1.4,0l-1.4,1.4
			C15.7,6.9,15.7,7.5,16.1,7.9z"/>
		<path d="M14,6.5c0.1,0.1,0.3,0.1,0.4,0.1c0.4,0,0.8-0.2,0.9-0.6l0.8-1.8c0.2-0.5,0-1.1-0.5-1.3c-0.5-0.2-1.1,0-1.3,0.5l-0.8,1.8
			C13.3,5.7,13.5,6.3,14,6.5z"/>
		<path d="M8.8,3.3C8.6,2.8,8,2.6,7.5,2.8C7,3,6.8,3.6,7,4.1l0.8,1.8c0.2,0.4,0.5,0.6,0.9,0.6c0.1,0,0.3,0,0.4-0.1
			c0.5-0.2,0.8-0.8,0.5-1.3L8.8,3.3z"/>
		<path d="M5.5,7.9C5.7,8.1,6,8.2,6.2,8.2c0.3,0,0.5-0.1,0.7-0.3c0.4-0.4,0.4-1,0-1.4L5.5,5.1c-0.4-0.4-1-0.4-1.4,0
			c-0.4,0.4-0.4,1,0,1.4L5.5,7.9z"/>
		<path d="M6.9,17.1c-0.4-0.4-1-0.4-1.4,0l-1.4,1.4c-0.4,0.4-0.4,1,0,1.4c0.2,0.2,0.5,0.3,0.7,0.3c0.3,0,0.5-0.1,0.7-0.3l1.4-1.4
			C7.3,18.1,7.3,17.5,6.9,17.1z"/>
		<path d="M20.7,15.2l-1.8-0.8c-0.5-0.2-1.1,0-1.3,0.5c-0.2,0.5,0,1.1,0.5,1.3l1.8,0.8c0.1,0.1,0.3,0.1,0.4,0.1
			c0.4,0,0.8-0.2,0.9-0.6C21.4,16,21.2,15.4,20.7,15.2z"/>
		<path d="M2.4,9.8l1.8,0.8c0.1,0.1,0.3,0.1,0.4,0.1c0.4,0,0.8-0.2,0.9-0.6c0.2-0.5,0-1.1-0.5-1.3L3.1,7.9C2.6,7.7,2,8,1.8,8.5
			C1.6,9,1.9,9.6,2.4,9.8z"/>
	</g>
</g>
<g id="Outline_Icons">
	<g>
		<line class="st2" x1="11.5" y1="20" x2="11.5" y2="22"/>
		<line class="st2" x1="21" y1="12.5" x2="19" y2="12.5"/>
		<line class="st2" x1="11.5" y1="1" x2="11.5" y2="5"/>
		<line class="st2" x1="8.4" y1="19.4" x2="7.7" y2="21.2"/>
		<line class="st2" x1="14.6" y1="19.4" x2="15.3" y2="21.2"/>
		<line class="st2" x1="4" y1="12.5" x2="2" y2="12.5"/>
		<line class="st2" x1="20.3" y1="8.9" x2="18.4" y2="9.6"/>
		<line class="st2" x1="4.6" y1="15.4" x2="2.7" y2="16.1"/>
		<line class="st2" x1="16.8" y1="17.8" x2="18.2" y2="19.2"/>
		<line class="st2" x1="18.2" y1="5.8" x2="16.8" y2="7.2"/>
		<line class="st2" x1="15.1" y1="3.7" x2="14.4" y2="5.6"/>
		<line class="st2" x1="7.9" y1="3.7" x2="8.6" y2="5.6"/>
		<line class="st2" x1="4.8" y1="5.8" x2="6.2" y2="7.2"/>
		<line class="st2" x1="6.2" y1="17.8" x2="4.8" y2="19.2"/>
		<line class="st2" x1="18.4" y1="15.4" x2="20.3" y2="16.1"/>
		<line class="st2" x1="2.7" y1="8.9" x2="4.6" y2="9.6"/>
	</g>
</g>
</svg>
