<?xml version="1.0" encoding="utf-8"?>
<!-- Generator: Adobe Illustrator 19.2.0, SVG Export Plug-In . SVG Version: 6.00 Build 0)  -->
<svg version="1.1" id="Layer_1" xmlns="http://www.w3.org/2000/svg" xmlns:xlink="http://www.w3.org/1999/xlink" x="0px" y="0px"
	 viewBox="0 0 24 24" style="enable-background:new 0 0 24 24;" xml:space="preserve">
<style type="text/css">
	.st0{display:none;}
	.st1{display:inline;}
	.st2{fill:none;stroke:#000000;stroke-linecap:round;stroke-linejoin:round;stroke-miterlimit:10;}
</style>
<g id="Filled_Icons" class="st0">
	<g class="st1">
		<g>
			<path d="M20,3.5c-1.9,0-3.5,1.6-3.5,3.5c0,1.9,1.6,3.5,3.5,3.5c1.9,0,3.5-1.6,3.5-3.5C23.5,5.1,21.9,3.5,20,3.5z"/>
			<circle cx="13" cy="3" r="3"/>
			<circle cx="6" cy="5" r="3"/>
			<circle cx="2.5" cy="11" r="2.5"/>
			<circle cx="4" cy="17" r="2.5"/>
			<circle cx="9" cy="21" r="2"/>
			<circle cx="14.4" cy="21.1" r="1.5"/>
			<circle cx="18" cy="19.4" r="1"/>
			<circle cx="20.3" cy="17" r="1"/>
		</g>
		<g>
			<circle cx="21.5" cy="14.5" r="0.5"/>
		</g>
	</g>
</g>
<g id="Outline_Icons">
	<g>
		<circle class="st2" cx="20" cy="7" r="3"/>
		<circle class="st2" cx="13" cy="3" r="2.5"/>
		<circle class="st2" cx="6" cy="5" r="2.5"/>
		<circle class="st2" cx="2.5" cy="11" r="2"/>
		<circle class="st2" cx="4" cy="17" r="2"/>
		<circle class="st2" cx="9" cy="21" r="1.5"/>
		<circle class="st2" cx="14.4" cy="21.1" r="1"/>
		<circle class="st2" cx="18" cy="19.4" r="0.5"/>
		<circle class="st2" cx="20.3" cy="17" r="0.5"/>
		<g>
			<g>
				<path d="M21.5,14c-0.3,0-0.5,0.2-0.5,0.5c0,0.3,0.2,0.5,0.5,0.5c0.3,0,0.5-0.2,0.5-0.5C22,14.2,21.8,14,21.5,14L21.5,14z"/>
			</g>
		</g>
	</g>
</g>
</svg>
