<?xml version="1.0" encoding="utf-8"?>
<!-- Generator: Adobe Illustrator 19.2.0, SVG Export Plug-In . SVG Version: 6.00 Build 0)  -->
<svg version="1.1" id="Layer_1" xmlns="http://www.w3.org/2000/svg" xmlns:xlink="http://www.w3.org/1999/xlink" x="0px" y="0px"
	 viewBox="0 0 24 24" style="enable-background:new 0 0 24 24;" xml:space="preserve">
<style type="text/css">
	.st0{display:none;}
	.st1{display:inline;}
	.st2{fill:none;stroke:#000000;stroke-linecap:round;stroke-linejoin:round;stroke-miterlimit:10;}
</style>
<g id="Filled_Icons" class="st0">
	<path class="st1" d="M11.5,0C6.1,0,2,4.3,2,10c0,7.2,8.8,13.6,9.2,13.9c0.1,0.1,0.2,0.1,0.3,0.1s0.2,0,0.3-0.1
		C12.2,23.6,21,17.2,21,10C21,4.3,16.9,0,11.5,0z M17.5,10H17v1.5c0,0.3-0.2,0.5-0.5,0.5h-3c-0.3,0-0.5-0.2-0.5-0.5V10h-3v1.5
		c0,0.3-0.2,0.5-0.5,0.5h-3C6.2,12,6,11.8,6,11.5V10H5.5C5.2,10,5,9.8,5,9.5C5,9.2,5.2,9,5.5,9H6V7.5C6,7.2,6.2,7,6.5,7h3
		C9.8,7,10,7.2,10,7.5V9h3V7.5C13,7.2,13.2,7,13.5,7h3C16.8,7,17,7.2,17,7.5V9h0.5C17.8,9,18,9.2,18,9.5C18,9.8,17.8,10,17.5,10z"/>
</g>
<g id="Outline_Icons">
	<g>
		<path class="st2" d="M20.5,10c0,7-9,13.5-9,13.5s-9-6.5-9-13.5c0-5.2,3.8-9.5,9-9.5C16.7,0.5,20.5,4.8,20.5,10z"/>
		<line class="st2" x1="16.5" y1="9.5" x2="17.5" y2="9.5"/>
		<line class="st2" x1="9.5" y1="9.5" x2="13.5" y2="9.5"/>
		<line class="st2" x1="5.5" y1="9.5" x2="6.5" y2="9.5"/>
		<rect x="6.5" y="7.5" class="st2" width="3" height="4"/>
		<rect x="13.5" y="7.5" class="st2" width="3" height="4"/>
	</g>
</g>
</svg>
