<?xml version="1.0" encoding="utf-8"?>
<!-- Generator: Adobe Illustrator 19.2.0, SVG Export Plug-In . SVG Version: 6.00 Build 0)  -->
<svg version="1.1" id="Layer_1" xmlns="http://www.w3.org/2000/svg" xmlns:xlink="http://www.w3.org/1999/xlink" x="0px" y="0px"
	 viewBox="0 0 24 24" style="enable-background:new 0 0 24 24;" xml:space="preserve">
<style type="text/css">
	.st0{display:none;}
	.st1{display:inline;}
	.st2{fill:none;stroke:#000000;stroke-linecap:round;stroke-linejoin:round;stroke-miterlimit:10;}
</style>
<g id="Filled_Icons" class="st0">
	<path class="st1" d="M11.5,0C6.1,0,2,4.3,2,10c0,7.2,8.8,13.6,9.2,13.9c0.1,0.1,0.2,0.1,0.3,0.1s0.2,0,0.3-0.1
		C12.2,23.6,21,17.2,21,10C21,4.3,16.9,0,11.5,0z M8,4.3C8.1,4.1,8.3,4,8.5,4h6c0.2,0,0.4,0.1,0.5,0.3L15.9,7H7.1L8,4.3z M17,11.5
		c0,0.3-0.2,0.5-0.5,0.5H16v0.5c0,0.3-0.2,0.5-0.5,0.5c-0.3,0-0.5-0.2-0.5-0.5V12H8v0.5C8,12.8,7.8,13,7.5,13C7.2,13,7,12.8,7,12.5
		V12H6.5C6.2,12,6,11.8,6,11.5V10h3c0.3,0,0.5-0.2,0.5-0.5C9.5,9.2,9.3,9,9,9H6.2l0.5-1h9.6l0.5,1H14c-0.3,0-0.5,0.2-0.5,0.5
		c0,0.3,0.2,0.5,0.5,0.5h3V11.5z"/>
</g>
<g id="Outline_Icons">
	<g>
		<path class="st2" d="M20.5,10c0,7-9,13.5-9,13.5s-9-6.5-9-13.5c0-5.2,3.8-9.5,9-9.5C16.7,0.5,20.5,4.8,20.5,10z"/>
		<polygon class="st2" points="16.5,11.5 16.5,9.5 15.5,7.5 7.5,7.5 6.5,9.5 6.5,11.5 		"/>
		<polygon class="st2" points="14.5,4.5 8.5,4.5 7.5,7.5 15.5,7.5 		"/>
		<line class="st2" x1="7.5" y1="11.5" x2="7.5" y2="12.5"/>
		<line class="st2" x1="15.5" y1="11.5" x2="15.5" y2="12.5"/>
		<line class="st2" x1="6.5" y1="9.5" x2="9" y2="9.5"/>
		<line class="st2" x1="14" y1="9.5" x2="16.5" y2="9.5"/>
	</g>
</g>
</svg>
