<?xml version="1.0" encoding="utf-8"?>
<!-- Generator: Adobe Illustrator 19.2.0, SVG Export Plug-In . SVG Version: 6.00 Build 0)  -->
<svg version="1.1" id="Layer_1" xmlns="http://www.w3.org/2000/svg" xmlns:xlink="http://www.w3.org/1999/xlink" x="0px" y="0px"
	 viewBox="0 0 24 24" style="enable-background:new 0 0 24 24;" xml:space="preserve">
<style type="text/css">
	.st0{display:none;}
	.st1{display:inline;}
	.st2{fill:none;stroke:#000000;stroke-linecap:round;stroke-linejoin:round;stroke-miterlimit:10;}
	.st3{fill:none;stroke:#000000;stroke-linejoin:round;stroke-miterlimit:10;}
</style>
<g id="Filled_Icons" class="st0">
	<g class="st1">
		<path d="M7,0C2.6,0,0,2.6,0,7c0,4.3,6.3,12.9,6.6,13.3c0.1,0.1,0.2,0.2,0.4,0.2c0.2,0,0.3-0.1,0.4-0.2C7.7,19.9,14,11.3,14,7
			C14,2.6,11.4,0,7,0z"/>
		<path d="M17.5,11c-3.6,0-6.5,2.9-6.5,6.5c0,3.6,2.9,6.5,6.5,6.5s6.5-2.9,6.5-6.5C24,13.9,21.1,11,17.5,11z M20,18h-5
			c-0.3,0-0.5-0.2-0.5-0.5c0-0.3,0.2-0.5,0.5-0.5h5c0.3,0,0.5,0.2,0.5,0.5C20.5,17.8,20.3,18,20,18z"/>
	</g>
</g>
<g id="Outline_Icons">
	<g>
		<path class="st2" d="M13.5,7c0,4.1-6.5,13-6.5,13S0.5,11.1,0.5,7c0-4.1,2.4-6.5,6.5-6.5C11.1,0.5,13.5,2.9,13.5,7z"/>
		<circle class="st3" cx="17.5" cy="17.5" r="6"/>
		<line class="st2" x1="15" y1="17.5" x2="20" y2="17.5"/>
	</g>
</g>
</svg>
