<?xml version="1.0" encoding="utf-8"?>
<!-- Generator: Adobe Illustrator 19.2.0, SVG Export Plug-In . SVG Version: 6.00 Build 0)  -->
<svg version="1.1" id="Layer_1" xmlns="http://www.w3.org/2000/svg" xmlns:xlink="http://www.w3.org/1999/xlink" x="0px" y="0px"
	 viewBox="0 0 24 24" style="enable-background:new 0 0 24 24;" xml:space="preserve">
<style type="text/css">
	.st0{display:none;}
	.st1{display:inline;}
	.st2{fill:none;stroke:#000000;stroke-linecap:round;stroke-linejoin:round;stroke-miterlimit:10;}
</style>
<g id="Filled_Icons" class="st0">
	<g class="st1">
		<g>
			<polygon points="6.8,11 2.3,11 1.7,17 6.4,17 			"/>
			<polygon points="20.7,11 16.4,11 16.7,17 21.3,17 			"/>
			<polygon points="16.2,24 15.8,18 7.4,18 7,24 			"/>
			<path d="M12.7,15.5C12.5,15.8,12,16,11.6,16c-0.4,0-0.9-0.2-1.2-0.5C10,15,8.9,13.6,7.8,11.9L7.4,17h8.3l-0.3-5.1
				C14.3,13.6,13.1,15,12.7,15.5z"/>
			<path d="M6.4,18H1.6L1,23.5c0,0.1,0,0.3,0.1,0.4C1.2,23.9,1.4,24,1.5,24H6L6.4,18z"/>
			<path d="M18.2,5.6c0,1.2-0.7,2.8-1.6,4.4h4L20,4.5C20,4.2,19.8,4,19.5,4H18C18.1,4.5,18.2,5,18.2,5.6z"/>
			<path d="M16.8,18l0.4,6h4.3c0.1,0,0.3-0.1,0.4-0.2c0.1-0.1,0.1-0.2,0.1-0.4L21.4,18H16.8z"/>
			<path d="M6.6,10C5.7,8.4,5,6.8,5,5.6C5,5,5.1,4.5,5.2,4H3.5C3.2,4,3,4.2,3,4.5L2.4,10L6.6,10L6.6,10z"/>
		</g>
		<path d="M11.6,0C8.5,0,6,2.5,6,5.6c0,3,5,9,5.2,9.2c0.1,0.1,0.2,0.2,0.4,0.2c0.1,0,0.3-0.1,0.4-0.2c0.2-0.3,5.2-6.3,5.2-9.2
			C17.2,2.5,14.7,0,11.6,0z M11.6,8c-1.3,0-2.4-1.1-2.4-2.4c0-1.3,1.1-2.4,2.4-2.4c1.3,0,2.4,1.1,2.4,2.4C14,6.9,12.9,8,11.6,8z"/>
	</g>
</g>
<g id="Outline_Icons">
	<g>
		<g>
			<path class="st2" d="M16.7,5.6c0,2.8-5.1,8.9-5.1,8.9S6.5,8.4,6.5,5.6c0-2.8,2.3-5.1,5.1-5.1C14.4,0.5,16.7,2.8,16.7,5.6z"/>
			<circle class="st2" cx="11.6" cy="5.6" r="1.9"/>
		</g>
		<polyline class="st2" points="16.6,4.5 19.5,4.5 21.5,23.5 1.5,23.5 3.5,4.5 6.6,4.5 		"/>
		<line class="st2" x1="2.1" y1="17.5" x2="20.9" y2="17.5"/>
		<line class="st2" x1="14.5" y1="10.5" x2="20.1" y2="10.5"/>
		<line class="st2" x1="2.9" y1="10.5" x2="8.6" y2="10.5"/>
		<line class="st2" x1="6.5" y1="23.5" x2="7.5" y2="8.5"/>
		<line class="st2" x1="16.7" y1="23.5" x2="15.7" y2="8.5"/>
	</g>
</g>
</svg>
