<?xml version="1.0" encoding="utf-8"?>
<!-- Generator: Adobe Illustrator 19.2.0, SVG Export Plug-In . SVG Version: 6.00 Build 0)  -->
<svg version="1.1" id="Layer_1" xmlns="http://www.w3.org/2000/svg" xmlns:xlink="http://www.w3.org/1999/xlink" x="0px" y="0px"
	 viewBox="0 0 24 24" style="enable-background:new 0 0 24 24;" xml:space="preserve">
<style type="text/css">
	.st0{display:none;}
	.st1{display:inline;}
	.st2{fill:none;stroke:#000000;stroke-linecap:round;stroke-linejoin:round;stroke-miterlimit:10;}
</style>
<g id="Filled_Icons" class="st0">
	<path class="st1" d="M11.5,0C9,0,7,2,7,4.5C7,6.8,8.8,8.7,11,9v14.5c0,0.3,0.2,0.5,0.5,0.5c0.3,0,0.5-0.2,0.5-0.5V9
		c2.2-0.2,4-2.2,4-4.5C16,2,14,0,11.5,0z M13.5,5C13.2,5,13,4.8,13,4.5C13,3.7,12.3,3,11.5,3C11.2,3,11,2.8,11,2.5
		C11,2.2,11.2,2,11.5,2C12.9,2,14,3.1,14,4.5C14,4.8,13.8,5,13.5,5z"/>
</g>
<g id="Outline_Icons">
	<g>
		<circle class="st2" cx="11.5" cy="4.5" r="4"/>
		<line class="st2" x1="11.5" y1="8.5" x2="11.5" y2="23.5"/>
		<path class="st2" d="M11.5,2.5c1.1,0,2,0.9,2,2"/>
	</g>
</g>
</svg>
