<?xml version="1.0" encoding="utf-8"?>
<!-- Generator: Adobe Illustrator 19.2.0, SVG Export Plug-In . SVG Version: 6.00 Build 0)  -->
<svg version="1.1" id="Layer_1" xmlns="http://www.w3.org/2000/svg" xmlns:xlink="http://www.w3.org/1999/xlink" x="0px" y="0px"
	 viewBox="0 0 24 24" style="enable-background:new 0 0 24 24;" xml:space="preserve">
<style type="text/css">
	.st0{display:none;}
	.st1{display:inline;}
	.st2{fill:none;stroke:#000000;stroke-linecap:round;stroke-linejoin:round;stroke-miterlimit:10;}
</style>
<g id="Filled_Icons" class="st0">
	<path class="st1" d="M11.5,0c-4.4,0-8,3.6-8,8c0,4.2,7.3,15.3,7.6,15.8c0.1,0.1,0.2,0.2,0.4,0.2s0.3-0.1,0.4-0.2
		c0.3-0.5,7.6-11.5,7.6-15.8C19.5,3.6,15.9,0,11.5,0z M15.5,9h-8C7.2,9,7,8.8,7,8.5C7,8.2,7.2,8,7.5,8h8C15.8,8,16,8.2,16,8.5
		C16,8.8,15.8,9,15.5,9z"/>
</g>
<g id="Outline_Icons">
	<g>
		<path class="st2" d="M19,8c0,4.1-7.5,15.5-7.5,15.5S4,12.1,4,8c0-4.1,3.4-7.5,7.5-7.5C15.6,0.5,19,3.9,19,8z"/>
		<line class="st2" x1="7.5" y1="8.5" x2="15.5" y2="8.5"/>
	</g>
</g>
</svg>
