<?xml version="1.0" encoding="utf-8"?>
<!-- Generator: Adobe Illustrator 19.2.0, SVG Export Plug-In . SVG Version: 6.00 Build 0)  -->
<svg version="1.1" id="Layer_1" xmlns="http://www.w3.org/2000/svg" xmlns:xlink="http://www.w3.org/1999/xlink" x="0px" y="0px"
	 viewBox="0 0 24 24" style="enable-background:new 0 0 24 24;" xml:space="preserve">
<style type="text/css">
	.st0{display:none;}
	.st1{display:inline;}
	.st2{fill:none;stroke:#000000;stroke-linecap:round;stroke-linejoin:round;stroke-miterlimit:10;}
</style>
<g id="Filled_Icons" class="st0">
	<g class="st1">
		<path d="M13,8.5C13,8.2,13.2,8,13.5,8h1.4c-0.2-1.5-1.4-2.7-2.9-2.9v1.4C12,6.8,11.7,7,11.5,7C11.2,7,11,6.8,11,6.5V5.1
			C9.4,5.3,8.2,6.5,8,8h1.4C9.7,8,10,8.2,10,8.5C10,8.8,9.7,9,9.5,9H8c0.2,1.5,1.4,2.7,2.9,2.9v-1.4c0-0.3,0.2-0.5,0.5-0.5
			c0.3,0,0.5,0.2,0.5,0.5V12c1.5-0.2,2.7-1.4,2.9-2.9h-1.4C13.2,9,13,8.8,13,8.5z"/>
		<path d="M11.5,0c-5,0-9,4-9,9c0,4.1,2.9,7.7,6.8,8.7l1.7,5.9c0.1,0.2,0.3,0.4,0.5,0.4c0.2,0,0.4-0.1,0.5-0.4l1.7-5.9
			c4-1,6.8-4.6,6.8-8.7C20.5,4,16.5,0,11.5,0z M17.5,9h-1.6C15.7,11.1,14,12.7,12,13v1.6c0,0.3-0.2,0.5-0.5,0.5
			c-0.3,0-0.5-0.2-0.5-0.5V13C8.9,12.7,7.2,11.1,7,9H5.5C5.2,9,5,8.8,5,8.5C5,8.2,5.2,8,5.5,8H7C7.2,5.9,8.9,4.3,11,4.1V2.5
			C11,2.2,11.2,2,11.5,2C11.7,2,12,2.2,12,2.5v1.6C14,4.3,15.7,5.9,15.9,8h1.6C17.7,8,18,8.2,18,8.5C18,8.8,17.7,9,17.5,9z"/>
	</g>
</g>
<g id="Outline_Icons">
	<g>
		<circle class="st2" cx="11.5" cy="8.5" r="4"/>
		<line class="st2" x1="11.5" y1="6.5" x2="11.5" y2="2.5"/>
		<line class="st2" x1="13.5" y1="8.5" x2="17.5" y2="8.5"/>
		<line class="st2" x1="11.5" y1="10.5" x2="11.5" y2="14.5"/>
		<line class="st2" x1="9.5" y1="8.5" x2="5.5" y2="8.5"/>
		<path class="st2" d="M20,9c0-4.7-3.8-8.5-8.5-8.5C6.8,0.5,3,4.3,3,9c0,4.1,2.9,7.5,6.7,8.3l1.8,6.2l1.8-6.2
			C17.1,16.5,20,13.1,20,9z"/>
	</g>
</g>
</svg>
