<?xml version="1.0" encoding="utf-8"?>
<!-- Generator: Adobe Illustrator 19.2.0, SVG Export Plug-In . SVG Version: 6.00 Build 0)  -->
<svg version="1.1" id="Layer_1" xmlns="http://www.w3.org/2000/svg" xmlns:xlink="http://www.w3.org/1999/xlink" x="0px" y="0px"
	 viewBox="0 0 24 24" style="enable-background:new 0 0 24 24;" xml:space="preserve">
<style type="text/css">
	.st0{display:none;}
	.st1{display:inline;}
	.st2{fill:none;stroke:#000000;stroke-linecap:round;stroke-linejoin:round;stroke-miterlimit:10;}
</style>
<g id="Filled_Icons" class="st0">
	<g class="st1">
		<path d="M16.5,20.3c-0.1-0.3-0.4-0.4-0.6-0.3l-4.3,1.4L7.2,20c-0.3-0.1-0.5,0.1-0.6,0.3c-0.1,0.3,0.1,0.5,0.3,0.6l3.1,1l-3.1,1
			c-0.3,0.1-0.4,0.4-0.3,0.6C6.6,23.9,6.8,24,7,24c0.1,0,0.1,0,0.2,0l4.3-1.4l4.3,1.4c0.1,0,0.1,0,0.2,0c0.2,0,0.4-0.1,0.5-0.3
			c0.1-0.3-0.1-0.5-0.3-0.6l-3.1-1l3.1-1C16.4,20.9,16.6,20.6,16.5,20.3z"/>
		<path d="M11,18.5V20c0,0.3,0.2,0.5,0.5,0.5c0.3,0,0.5-0.2,0.5-0.5v-1.5c0-1.4,1.4-3.4,2.7-5.5c1.5-2.2,2.8-4.4,2.8-6
			c0-4.6-2-7-6-7c-4,0-6,2.4-6,7c0,1.6,1.4,3.8,2.8,6C9.6,15.1,11,17.2,11,18.5z M11.5,3c1.7,0,3,1.3,3,3c0,1.7-1.3,3-3,3
			c-1.7,0-3-1.3-3-3C8.5,4.4,9.8,3,11.5,3z"/>
	</g>
</g>
<g id="Outline_Icons">
	<g>
		<line class="st2" x1="7" y1="23.5" x2="16" y2="20.5"/>
		<line class="st2" x1="16" y1="23.5" x2="7" y2="20.5"/>
		<line class="st2" x1="11.5" y1="18.5" x2="11.5" y2="20"/>
		<path class="st2" d="M17,7c0,3-5.5,8.5-5.5,11.5C11.5,15.5,6,10,6,7c0-4,1.5-6.5,5.5-6.5S17,3,17,7z"/>
		<circle class="st2" cx="11.5" cy="6" r="2.5"/>
	</g>
</g>
</svg>
