<?xml version="1.0" encoding="utf-8"?>
<!-- Generator: Adobe Illustrator 19.2.0, SVG Export Plug-In . SVG Version: 6.00 Build 0)  -->
<svg version="1.1" id="Layer_1" xmlns="http://www.w3.org/2000/svg" xmlns:xlink="http://www.w3.org/1999/xlink" x="0px" y="0px"
	 viewBox="0 0 24 24" style="enable-background:new 0 0 24 24;" xml:space="preserve">
<style type="text/css">
	.st0{display:none;}
	.st1{display:inline;}
	.st2{fill:none;stroke:#000000;stroke-linecap:round;stroke-linejoin:round;stroke-miterlimit:10;}
</style>
<g id="Filled_Icons" class="st0">
	<path class="st1" d="M11.5,0C6.1,0,2,4.3,2,10c0,7.2,8.8,13.6,9.2,13.9c0.1,0.1,0.2,0.1,0.3,0.1s0.2,0,0.3-0.1
		C12.2,23.6,21,17.2,21,10C21,4.3,16.9,0,11.5,0z M9.5,14.5c-0.6,0-1-0.4-1-1c0-0.6,0.4-1,1-1c0.6,0,1,0.4,1,1
		C10.5,14,10.1,14.5,9.5,14.5z M14.5,14.5c-0.6,0-1-0.4-1-1c0-0.6,0.4-1,1-1c0.6,0,1,0.4,1,1C15.5,14,15.1,14.5,14.5,14.5z M16,11.5
		c0,0.3-0.2,0.5-0.5,0.5h-7C8.2,12,8,11.8,8,11.5V6H6.5C6.3,6,6,5.8,6,5.5C6,5.2,6.3,5,6.5,5h2C8.8,5,9,5.2,9,5.5V7h6.5
		C15.8,7,16,7.2,16,7.5V11.5z"/>
</g>
<g id="Outline_Icons">
	<g>
		<path class="st2" d="M20.5,10c0,7-9,13.5-9,13.5s-9-6.5-9-13.5c0-5.2,3.8-9.5,9-9.5C16.7,0.5,20.5,4.8,20.5,10z"/>
		<polyline class="st2" points="6.5,5.5 8.5,5.5 8.5,11.5 15.5,11.5 15.5,7.5 8.5,7.5 		"/>
		<circle class="st2" cx="9.5" cy="13.5" r="0.5"/>
		<circle class="st2" cx="14.5" cy="13.5" r="0.5"/>
	</g>
</g>
</svg>
