<?xml version="1.0" encoding="utf-8"?>
<!-- Generator: Adobe Illustrator 19.2.0, SVG Export Plug-In . SVG Version: 6.00 Build 0)  -->
<svg version="1.1" id="Layer_1" xmlns="http://www.w3.org/2000/svg" xmlns:xlink="http://www.w3.org/1999/xlink" x="0px" y="0px"
	 viewBox="0 0 24 24" style="enable-background:new 0 0 24 24;" xml:space="preserve">
<style type="text/css">
	.st0{display:none;}
	.st1{display:inline;}
	.st2{fill:none;stroke:#000000;stroke-linecap:round;stroke-linejoin:round;stroke-miterlimit:10;}
</style>
<g id="Filled_Icons" class="st0">
	<path class="st1" d="M11.5,0c-5,0-9,4-9,9c0,4.1,2.9,7.7,6.8,8.7l1.7,5.9c0.1,0.2,0.3,0.4,0.5,0.4c0.2,0,0.4-0.1,0.5-0.4l1.7-5.9
		c4-1,6.8-4.6,6.8-8.7C20.5,4,16.5,0,11.5,0z M15.5,13C15.5,13,15.5,13,15.5,13h-8C7.2,13,7,12.8,7,12.5c0-1.8,1.1-3.4,2.7-4.1
		C9,7.9,8.5,7,8.5,6c0-1.7,1.3-3,3-3c1.7,0,3,1.3,3,3c0,1-0.5,1.8-1.2,2.4C15,9.1,16,10.8,16,12.5C16,12.8,15.8,13,15.5,13z"/>
</g>
<g id="Outline_Icons">
	<g>
		<path class="st2" d="M20,9c0-4.7-3.8-8.5-8.5-8.5C6.8,0.5,3,4.3,3,9c0,4.1,2.9,7.5,6.7,8.3l1.8,6.2l1.8-6.2
			C17.1,16.5,20,13.1,20,9z"/>
		<circle class="st2" cx="11.5" cy="6" r="2.5"/>
		<path class="st2" d="M15.5,12.5h-8c0-2.2,1.8-4,4-4S15.5,10.3,15.5,12.5z"/>
	</g>
</g>
</svg>
