<?xml version="1.0" encoding="utf-8"?>
<!-- Generator: Adobe Illustrator 19.2.0, SVG Export Plug-In . SVG Version: 6.00 Build 0)  -->
<svg version="1.1" id="Layer_1" xmlns="http://www.w3.org/2000/svg" xmlns:xlink="http://www.w3.org/1999/xlink" x="0px" y="0px"
	 viewBox="0 0 24 24" style="enable-background:new 0 0 24 24;" xml:space="preserve">
<style type="text/css">
	.st0{display:none;}
	.st1{display:inline;}
	.st2{fill:none;stroke:#000000;stroke-linecap:round;stroke-linejoin:round;stroke-miterlimit:10;}
</style>
<g id="Filled_Icons" class="st0">
	<g class="st1">
		<path d="M16.5,20.3c-0.1-0.3-0.4-0.4-0.6-0.3l-4.3,1.4L7.2,20c-0.3-0.1-0.5,0.1-0.6,0.3c-0.1,0.3,0.1,0.5,0.3,0.6l3.1,1l-3.1,1
			c-0.3,0.1-0.4,0.4-0.3,0.6C6.6,23.9,6.8,24,7,24c0.1,0,4.4-1.4,4.5-1.5c0.1,0,4.4,1.5,4.5,1.5c0.2,0,0.4-0.1,0.5-0.3
			c0.1-0.3-0.1-0.5-0.3-0.6l-3.1-1l3.1-1C16.4,20.9,16.6,20.6,16.5,20.3z"/>
		<path d="M7.2,17.5c2,1.9,4,2.9,4.1,3c0.1,0,0.1,0.1,0.2,0.1c0.1,0,0.2,0,0.2-0.1c0.1,0,2.1-1.1,4.1-3C18.6,14.9,20,12,20,9
			c0-5.5-3.3-9-8.5-9C6.3,0,3,3.5,3,9C3,12,4.4,14.9,7.2,17.5z M11.5,4C14,4,16,6,16,8.5c0,2.5-2,4.5-4.5,4.5C9,13,7,11,7,8.5
			C7,6,9,4,11.5,4z"/>
	</g>
</g>
<g id="Outline_Icons">
	<g>
		<line class="st2" x1="7" y1="23.5" x2="16" y2="20.5"/>
		<line class="st2" x1="16" y1="23.5" x2="7" y2="20.5"/>
		<path class="st2" d="M19.5,9c0,7-8,11-8,11s-8-4-8-11c0-5,3-8.5,8-8.5S19.5,4,19.5,9z"/>
		<circle class="st2" cx="11.5" cy="8.5" r="4"/>
	</g>
</g>
</svg>
