<?xml version="1.0" encoding="utf-8"?>
<!-- Generator: Adobe Illustrator 19.2.0, SVG Export Plug-In . SVG Version: 6.00 Build 0)  -->
<svg version="1.1" id="Layer_1" xmlns="http://www.w3.org/2000/svg" xmlns:xlink="http://www.w3.org/1999/xlink" x="0px" y="0px"
	 viewBox="0 0 24 24" style="enable-background:new 0 0 24 24;" xml:space="preserve">
<style type="text/css">
	.st0{display:none;}
	.st1{display:inline;}
	.st2{fill:none;stroke:#000000;stroke-linecap:round;stroke-linejoin:round;stroke-miterlimit:10;}
</style>
<g id="Filled_Icons" class="st0">
	<path class="st1" d="M11.5,0c-5,0-9,4-9,9c0,4.1,2.9,7.7,6.8,8.7l1.7,5.9c0.1,0.2,0.3,0.4,0.5,0.4c0.2,0,0.4-0.1,0.5-0.4l1.7-5.9
		c4-1,6.8-4.6,6.8-8.7C20.5,4,16.5,0,11.5,0z M17.5,9H17v1.5c0,0.3-0.2,0.5-0.5,0.5h-3c-0.3,0-0.5-0.2-0.5-0.5V9h-3v1.5
		c0,0.3-0.2,0.5-0.5,0.5h-3C6.2,11,6,10.8,6,10.5V9H5.5C5.2,9,5,8.8,5,8.5C5,8.2,5.2,8,5.5,8H6V6.5C6,6.2,6.2,6,6.5,6h3
		C9.8,6,10,6.2,10,6.5V8h3V6.5C13,6.2,13.2,6,13.5,6h3C16.8,6,17,6.2,17,6.5V8h0.5C17.8,8,18,8.2,18,8.5C18,8.8,17.8,9,17.5,9z"/>
</g>
<g id="Outline_Icons">
	<g>
		<line class="st2" x1="16.5" y1="8.5" x2="17.5" y2="8.5"/>
		<line class="st2" x1="9.5" y1="8.5" x2="13.5" y2="8.5"/>
		<line class="st2" x1="5.5" y1="8.5" x2="6.5" y2="8.5"/>
		<rect x="6.5" y="6.5" class="st2" width="3" height="4"/>
		<rect x="13.5" y="6.5" class="st2" width="3" height="4"/>
		<path class="st2" d="M20,9c0-4.7-3.8-8.5-8.5-8.5C6.8,0.5,3,4.3,3,9c0,4.1,2.9,7.5,6.7,8.3l1.8,6.2l1.8-6.2
			C17.1,16.5,20,13.1,20,9z"/>
	</g>
</g>
</svg>
