<?xml version="1.0" encoding="utf-8"?>
<!-- Generator: Adobe Illustrator 19.2.0, SVG Export Plug-In . SVG Version: 6.00 Build 0)  -->
<svg version="1.1" id="Outline_Icons" xmlns="http://www.w3.org/2000/svg" xmlns:xlink="http://www.w3.org/1999/xlink" x="0px"
	 y="0px" viewBox="0 0 24 24" style="enable-background:new 0 0 24 24;" xml:space="preserve">
<style type="text/css">
	.st0{fill:none;stroke:#000000;stroke-linecap:round;stroke-linejoin:round;stroke-miterlimit:10;}
</style>
<g>
	<path class="st0" d="M20.5,10c0,7-9,13.5-9,13.5s-9-6.5-9-13.5c0-5.2,3.8-9.5,9-9.5C16.7,0.5,20.5,4.8,20.5,10z"/>
	<path class="st0" d="M14.5,12.5h-6v-2h-1v-3c0-1.1,0.9-2,2-2h4c1.1,0,2,0.9,2,2v3h-1V12.5z"/>
	<line class="st0" x1="10.5" y1="12.5" x2="10.5" y2="10"/>
	<line class="st0" x1="12.5" y1="12.5" x2="12.5" y2="10"/>
	<circle class="st0" cx="10" cy="8" r="0.5"/>
	<circle class="st0" cx="13" cy="8" r="0.5"/>
</g>
</svg>
