<?xml version="1.0" encoding="utf-8"?>
<!-- Generator: Adobe Illustrator 19.2.0, SVG Export Plug-In . SVG Version: 6.00 Build 0)  -->
<svg version="1.1" id="Layer_1" xmlns="http://www.w3.org/2000/svg" xmlns:xlink="http://www.w3.org/1999/xlink" x="0px" y="0px"
	 viewBox="0 0 24 24" style="enable-background:new 0 0 24 24;" xml:space="preserve">
<style type="text/css">
	.st0{display:none;}
	.st1{display:inline;}
	.st2{fill:none;stroke:#000000;stroke-linecap:round;stroke-linejoin:round;stroke-miterlimit:10;}
</style>
<g id="Filled_Icons" class="st0">
	<g class="st1">
		<path d="M11.5,6h-2C9.2,6,9,6.2,9,6.5C9,6.8,9.2,7,9.5,7h2C11.8,7,12,6.8,12,6.5C12,6.2,11.8,6,11.5,6z"/>
		<path d="M11.5,0c-5,0-9,4-9,9c0,4.1,2.9,7.7,6.8,8.7l1.7,5.9c0.1,0.2,0.3,0.4,0.5,0.4c0.2,0,0.4-0.1,0.5-0.4l1.7-5.9
			c4-1,6.8-4.6,6.8-8.7C20.5,4,16.5,0,11.5,0z M7,4.5C7,4.2,7.2,4,7.5,4h6C13.8,4,14,4.2,14,4.5V8H7V4.5z M17,7h-1v3.5
			c0,0.3-0.2,0.5-0.5,0.5H14v2.5c0,0.3-0.2,0.5-0.5,0.5h-6C7.2,14,7,13.8,7,13.5V9h7v1h1V6.5C15,6.2,15.2,6,15.5,6H17
			c0.3,0,0.5,0.2,0.5,0.5C17.5,6.8,17.3,7,17,7z"/>
	</g>
</g>
<g id="Outline_Icons">
	<g>
		<path class="st2" d="M20,9c0-4.7-3.8-8.5-8.5-8.5C6.8,0.5,3,4.3,3,9c0,4.1,2.9,7.5,6.7,8.3l1.8,6.2l1.8-6.2
			C17.1,16.5,20,13.1,20,9z"/>
		<rect x="7.5" y="4.5" class="st2" width="6" height="9"/>
		<line class="st2" x1="7.5" y1="8.5" x2="13.5" y2="8.5"/>
		<line class="st2" x1="9.5" y1="6.5" x2="11.5" y2="6.5"/>
		<polyline class="st2" points="13.5,10.5 15.5,10.5 15.5,6.5 17,6.5 		"/>
	</g>
</g>
</svg>
