<?xml version="1.0" encoding="utf-8"?>
<!-- Generator: Adobe Illustrator 19.2.0, SVG Export Plug-In . SVG Version: 6.00 Build 0)  -->
<svg version="1.1" id="Layer_1" xmlns="http://www.w3.org/2000/svg" xmlns:xlink="http://www.w3.org/1999/xlink" x="0px" y="0px"
	 viewBox="0 0 24 24" style="enable-background:new 0 0 24 24;" xml:space="preserve">
<style type="text/css">
	.st0{display:none;}
	.st1{display:inline;}
	.st2{fill:none;stroke:#000000;stroke-linecap:round;stroke-linejoin:round;stroke-miterlimit:10;}
</style>
<g id="Filled_Icons" class="st0">
	<path class="st1" d="M11.5,0c-5,0-9,4-9,9c0,4.1,2.9,7.7,6.8,8.7l1.7,5.9c0.1,0.2,0.3,0.4,0.5,0.4c0.2,0,0.4-0.1,0.5-0.4l1.7-5.9
		c4-1,6.8-4.6,6.8-8.7C20.5,4,16.5,0,11.5,0z M8,3.3C8.1,3.1,8.3,3,8.5,3h6c0.2,0,0.4,0.1,0.5,0.3L15.9,6H7.1L8,3.3z M17,10.5
		c0,0.3-0.2,0.5-0.5,0.5H16v0.5c0,0.3-0.2,0.5-0.5,0.5c-0.3,0-0.5-0.2-0.5-0.5V11H8v0.5C8,11.8,7.8,12,7.5,12C7.2,12,7,11.8,7,11.5
		V11H6.5C6.2,11,6,10.8,6,10.5V9h3c0.3,0,0.5-0.2,0.5-0.5C9.5,8.2,9.3,8,9,8H6.2l0.5-1h9.6l0.5,1H14c-0.3,0-0.5,0.2-0.5,0.5
		C13.5,8.8,13.7,9,14,9h3h0V10.5z"/>
</g>
<g id="Outline_Icons">
	<g>
		<polygon class="st2" points="16.5,10.5 16.5,8.5 15.5,6.5 7.5,6.5 6.5,8.5 6.5,10.5 		"/>
		<polygon class="st2" points="14.5,3.5 8.5,3.5 7.5,6.5 15.5,6.5 		"/>
		<line class="st2" x1="7.5" y1="10.5" x2="7.5" y2="11.5"/>
		<line class="st2" x1="15.5" y1="10.5" x2="15.5" y2="11.5"/>
		<line class="st2" x1="6.5" y1="8.5" x2="9" y2="8.5"/>
		<line class="st2" x1="14" y1="8.5" x2="16.5" y2="8.5"/>
		<path class="st2" d="M20,9c0-4.7-3.8-8.5-8.5-8.5C6.8,0.5,3,4.3,3,9c0,4.1,2.9,7.5,6.7,8.3l1.8,6.2l1.8-6.2
			C17.1,16.5,20,13.1,20,9z"/>
	</g>
</g>
</svg>
