<?xml version="1.0" encoding="utf-8"?>
<!-- Generator: Adobe Illustrator 19.2.0, SVG Export Plug-In . SVG Version: 6.00 Build 0)  -->
<svg version="1.1" id="Layer_1" xmlns="http://www.w3.org/2000/svg" xmlns:xlink="http://www.w3.org/1999/xlink" x="0px" y="0px"
	 viewBox="0 0 24 24" style="enable-background:new 0 0 24 24;" xml:space="preserve">
<style type="text/css">
	.st0{display:none;}
	.st1{display:inline;}
	.st2{fill:none;stroke:#000000;stroke-linecap:round;stroke-linejoin:round;stroke-miterlimit:10;}
</style>
<g id="Filled_Icons" class="st0">
	<g class="st1">
		<path d="M11.5,0c-5,0-9,4-9,9c0,4.1,2.9,7.7,6.8,8.7l1.7,5.9c0.1,0.2,0.3,0.4,0.5,0.4c0.2,0,0.4-0.1,0.5-0.4l1.7-5.9
			c4-1,6.8-4.6,6.8-8.7C20.5,4,16.5,0,11.5,0z M11.5,15c-3.3,0-6-2.7-6-6c0-3.3,2.7-6,6-6c3.3,0,6,2.7,6,6
			C17.5,12.3,14.8,15,11.5,15z"/>
		<path d="M14,8h-2V6c0-0.3-0.2-0.5-0.5-0.5C11.2,5.5,11,5.7,11,6v2H9C8.7,8,8.5,8.2,8.5,8.5C8.5,8.8,8.7,9,9,9h2v2
			c0,0.3,0.2,0.5,0.5,0.5c0.3,0,0.5-0.2,0.5-0.5V9h2c0.3,0,0.5-0.2,0.5-0.5C14.5,8.2,14.3,8,14,8z"/>
	</g>
</g>
<g id="Outline_Icons">
	<g>
		<path class="st2" d="M20,9c0-4.7-3.8-8.5-8.5-8.5C6.8,0.5,3,4.3,3,9c0,4.1,2.9,7.5,6.7,8.3l1.8,6.2l1.8-6.2
			C17.1,16.5,20,13.1,20,9z"/>
		<circle class="st2" cx="11.5" cy="9" r="5.5"/>
		<line class="st2" x1="11.5" y1="6" x2="11.5" y2="11"/>
		<line class="st2" x1="14" y1="8.5" x2="9" y2="8.5"/>
	</g>
</g>
</svg>
