<?xml version="1.0" encoding="utf-8"?>
<!-- Generator: Adobe Illustrator 19.2.0, SVG Export Plug-In . SVG Version: 6.00 Build 0)  -->
<svg version="1.1" id="Layer_1" xmlns="http://www.w3.org/2000/svg" xmlns:xlink="http://www.w3.org/1999/xlink" x="0px" y="0px"
	 viewBox="0 0 24 24" style="enable-background:new 0 0 24 24;" xml:space="preserve">
<style type="text/css">
	.st0{display:none;}
	.st1{display:inline;}
	.st2{fill:none;stroke:#000000;stroke-linecap:round;stroke-linejoin:round;stroke-miterlimit:10;}
</style>
<g id="Filled_Icons" class="st0">
	<path class="st1" d="M11.5,0C6.1,0,2,4.3,2,10c0,7.2,8.8,13.6,9.2,13.9c0.1,0.1,0.2,0.1,0.3,0.1s0.2,0,0.3-0.1
		C12.2,23.6,21,17.2,21,10C21,4.3,16.9,0,11.5,0z M15.1,14.4c0.2,0.2,0.2,0.5,0,0.7c-0.1,0.1-0.2,0.1-0.4,0.1c-0.1,0-0.3,0-0.4-0.1
		l-2.9-2.9l-2.9,2.9c-0.1,0.1-0.2,0.1-0.4,0.1c-0.1,0-0.3,0-0.4-0.1c-0.2-0.2-0.2-0.5,0-0.7l2.9-2.9l-0.8-0.8
		C9.6,11,9,11.2,8.4,11.2c-0.8,0-1.5-0.3-2-0.8L4.7,8.7C4.5,8.5,4.5,8.2,4.7,8c0.2-0.2,0.5-0.2,0.7,0l1.7,1.7
		c0.6,0.6,1.5,0.7,2.3,0.3l-3-3c-0.2-0.2-0.2-0.5,0-0.7c0.2-0.2,0.5-0.2,0.7,0l3,3c0.4-0.7,0.3-1.6-0.3-2.3L8,5.3
		C7.9,5.1,7.9,4.8,8,4.6c0.2-0.2,0.5-0.2,0.7,0l1.7,1.7c1,1,1.1,2.6,0.3,3.7l0.8,0.8l5.3-5.3c0.1-0.1,0.2-0.1,0.4-0.1
		c0.1,0,0.3,0.1,0.4,0.1c1.2,1.2-0.4,4.5-2.5,6.6c-0.2,0.2-0.5,0.2-0.7,0L13,10.7l-0.7,0.7L15.1,14.4z"/>
</g>
<g id="Outline_Icons">
	<g>
		<path class="st2" d="M20.5,10c0,7-9,13.5-9,13.5s-9-6.5-9-13.5c0-5.2,3.8-9.5,9-9.5C16.7,0.5,20.5,4.8,20.5,10z"/>
		<g>
			<path class="st2" d="M13,10l1.7,1.7c2.2-2.3,3.3-5.1,2.5-5.9l-8.9,8.9"/>
			<path class="st2" d="M5,8.3L6.7,10c0.9,0.9,2.4,0.9,3.4,0c0.9-0.9,0.9-2.4,0-3.4L8.4,5"/>
			<line class="st2" x1="6.7" y1="6.7" x2="14.8" y2="14.7"/>
		</g>
	</g>
</g>
</svg>
