<?xml version="1.0" encoding="utf-8"?>
<!-- Generator: Adobe Illustrator 19.2.0, SVG Export Plug-In . SVG Version: 6.00 Build 0)  -->
<svg version="1.1" id="Layer_1" xmlns="http://www.w3.org/2000/svg" xmlns:xlink="http://www.w3.org/1999/xlink" x="0px" y="0px"
	 viewBox="0 0 24 24" style="enable-background:new 0 0 24 24;" xml:space="preserve">
<style type="text/css">
	.st0{display:none;}
	.st1{display:inline;}
	.st2{fill:none;stroke:#000000;stroke-linecap:round;stroke-linejoin:round;stroke-miterlimit:10;}
	.st3{fill:none;stroke:#000000;stroke-linejoin:round;stroke-miterlimit:10;}
</style>
<g id="Filled_Icons" class="st0">
	<path class="st1" d="M11.5,0C6.1,0,2,4.3,2,10c0,7.2,8.8,13.6,9.2,13.9c0.1,0.1,0.2,0.1,0.3,0.1s0.2,0,0.3-0.1
		C12.2,23.6,21,17.2,21,10C21,4.3,16.9,0,11.5,0z M11,3.5c0.6,0,1,0.4,1,1c0,0.6-0.4,1-1,1c-0.6,0-1-0.4-1-1C10,4,10.4,3.5,11,3.5z
		 M13.5,14h-4C9.2,14,9,13.8,9,13.5C9,13.2,9.2,13,9.5,13H11V8H9.5C9.2,8,9,7.8,9,7.5C9,7.2,9.2,7,9.5,7h2C11.8,7,12,7.2,12,7.5V13
		h1.5c0.3,0,0.5,0.2,0.5,0.5C14,13.8,13.8,14,13.5,14z"/>
</g>
<g id="Outline_Icons">
	<g>
		<polyline class="st2" points="11.5,13.5 11.5,7.5 9.5,7.5 		"/>
		<line class="st2" x1="9.5" y1="13.5" x2="13.5" y2="13.5"/>
		<path class="st2" d="M20.5,10c0,7-9,13.5-9,13.5s-9-6.5-9-13.5c0-5.2,3.8-9.5,9-9.5C16.7,0.5,20.5,4.8,20.5,10z"/>
		<path class="st3" d="M11.5,4.5C11.5,4.8,11.3,5,11,5l0,0c-0.3,0-0.5-0.2-0.5-0.5l0,0C10.5,4.2,10.7,4,11,4l0,0
			C11.3,4,11.5,4.2,11.5,4.5L11.5,4.5z"/>
	</g>
</g>
</svg>
