<?xml version="1.0" encoding="utf-8"?>
<!-- Generator: Adobe Illustrator 19.2.0, SVG Export Plug-In . SVG Version: 6.00 Build 0)  -->
<svg version="1.1" id="Layer_1" xmlns="http://www.w3.org/2000/svg" xmlns:xlink="http://www.w3.org/1999/xlink" x="0px" y="0px"
	 viewBox="0 0 24 24" style="enable-background:new 0 0 24 24;" xml:space="preserve">
<style type="text/css">
	.st0{display:none;}
	.st1{display:inline;}
	.st2{fill:none;stroke:#000000;stroke-linecap:round;stroke-linejoin:round;stroke-miterlimit:10;}
</style>
<g id="Filled_Icons" class="st0">
	<g class="st1">
		<path d="M10.7,0C8.4,0,6.5,1.9,6.5,4.1c0,2.1,3.4,6.2,3.8,6.7c0.1,0.1,0.2,0.2,0.4,0.2c0.1,0,0.3-0.1,0.4-0.2
			c0.4-0.5,3.8-4.6,3.8-6.7C14.8,1.9,13,0,10.7,0z M10.7,6c-1,0-1.9-0.8-1.9-1.9c0-1,0.8-1.9,1.9-1.9c1,0,1.9,0.8,1.9,1.9
			C12.5,5.2,11.7,6,10.7,6z"/>
		<path d="M19.7,7c-2.1,0-3.8,1.7-3.8,3.8c0,1.9,3,5.6,3.4,6c0.1,0.1,0.2,0.2,0.4,0.2c0.1,0,0.3-0.1,0.4-0.2c0.3-0.4,3.4-4.1,3.4-6
			C23.4,8.7,21.8,7,19.7,7z M19.7,12.5c-1,0-1.7-0.8-1.7-1.7c0-1,0.8-1.7,1.7-1.7c1,0,1.7,0.8,1.7,1.7
			C21.4,11.7,20.6,12.5,19.7,12.5z"/>
		<path d="M8.3,11.5c-0.8-1-2.1-1.5-3.6-1.5c-1.5,0-2.8,0.6-3.7,1.6c-0.8,1-1.2,2.4-0.9,3.8c0.2,1.3,1.2,2.8,2.2,4.2
			c0.9,1.4,1.9,2.9,1.9,3.9c0,0.3,0.2,0.5,0.5,0.5c0.3,0,0.5-0.2,0.5-0.5c0-1.1,1-2.6,2.1-4.2c0.9-1.4,1.8-2.8,2-3.9
			C9.5,13.9,9.2,12.6,8.3,11.5z M4.7,16.8c-1.3,0-2.4-1.1-2.4-2.4c0-1.3,1.1-2.4,2.4-2.4C6,12,7,13.1,7,14.4C7,15.7,6,16.8,4.7,16.8
			z"/>
		<g>
			<path d="M16.5,15.8c-0.1,0-0.2,0-0.3-0.1l-4.9-3.3c-0.2-0.2-0.3-0.5-0.1-0.7c0.2-0.2,0.5-0.3,0.7-0.1l4.9,3.3
				c0.2,0.2,0.3,0.5,0.1,0.7C16.8,15.7,16.7,15.8,16.5,15.8z"/>
		</g>
		<g>
			<path d="M7.2,22.8c-0.2,0-0.4-0.1-0.5-0.3c-0.1-0.2,0-0.5,0.2-0.7l9.9-4.6c0.2-0.1,0.5,0,0.7,0.2c0.1,0.2,0,0.5-0.2,0.7l-9.9,4.6
				C7.4,22.8,7.3,22.8,7.2,22.8z"/>
		</g>
	</g>
</g>
<g id="Outline_Icons">
	<g>
		<path class="st2" d="M14.3,4.1c0,2-3.6,6.4-3.6,6.4S7,6.1,7,4.1c0-2,1.6-3.6,3.6-3.6C12.7,0.5,14.3,2.1,14.3,4.1z"/>
		<circle class="st2" cx="10.7" cy="4.1" r="1.4"/>
		<path class="st2" d="M22.9,10.8c0,1.8-3.3,5.7-3.3,5.7s-3.3-3.9-3.3-5.7c0-1.8,1.5-3.3,3.3-3.3C21.5,7.5,22.9,9,22.9,10.8z"/>
		<circle class="st2" cx="19.7" cy="10.8" r="1.2"/>
		<g>
			<path class="st2" d="M8.8,15.3c-0.4,2.2-4.1,6-4.1,8.2c0-2.2-3.6-5.6-4.1-8.2c-0.5-2.5,1.1-4.8,4.1-4.8
				C7.6,10.5,9.2,12.7,8.8,15.3z"/>
			<circle class="st2" cx="4.7" cy="14.4" r="1.9"/>
		</g>
		<line class="st2" x1="11.6" y1="12" x2="16.5" y2="15.3"/>
		<line class="st2" x1="7.2" y1="22.3" x2="17.2" y2="17.7"/>
	</g>
</g>
</svg>
