<?xml version="1.0" encoding="utf-8"?>
<!-- Generator: Adobe Illustrator 19.2.0, SVG Export Plug-In . SVG Version: 6.00 Build 0)  -->
<svg version="1.1" id="Layer_1" xmlns="http://www.w3.org/2000/svg" xmlns:xlink="http://www.w3.org/1999/xlink" x="0px" y="0px"
	 viewBox="0 0 24 24" style="enable-background:new 0 0 24 24;" xml:space="preserve">
<style type="text/css">
	.st0{display:none;}
	.st1{display:inline;}
	.st2{fill:none;stroke:#000000;stroke-linecap:round;stroke-linejoin:round;stroke-miterlimit:10;}
	.st3{fill:none;stroke:#000000;stroke-linejoin:round;stroke-miterlimit:10;}
</style>
<g id="Filled_Icons" class="st0">
	<path class="st1" d="M11.5,0c-5,0-9,4-9,9c0,4.1,2.9,7.7,6.8,8.7l1.7,5.9c0.1,0.2,0.3,0.4,0.5,0.4c0.2,0,0.4-0.1,0.5-0.4l1.7-5.9
		c4-1,6.8-4.6,6.8-8.7C20.5,4,16.5,0,11.5,0z M12.2,3.1c2.3,0.3,4.2,1.8,4.9,3.9h-3c-0.3-1.4-1-2.7-2.1-3.8
		C12.2,3.2,12.2,3.1,12.2,3.1z M13.3,10H9.7C9.6,9.3,9.6,8.7,9.7,8h3.7C13.4,8.7,13.4,9.3,13.3,10z M11.5,4c0.8,0.9,1.4,1.9,1.7,3
		H9.9C10.1,5.9,10.7,4.9,11.5,4z M10.8,3.1c0,0.1,0.1,0.1,0.1,0.2C9.8,4.4,9.1,5.6,8.8,7h-3C6.5,4.9,8.4,3.3,10.8,3.1z M5.5,8.9
		c0-0.3,0-0.6,0.1-0.9h3.1c-0.1,0.7,0,1.3,0.1,2H5.6C5.5,9.6,5.5,9.3,5.5,8.9z M10.8,15c-2.2-0.3-4.1-1.8-4.9-4h3.1
		c0.4,1.3,1,2.6,1.9,3.8C10.8,14.9,10.8,14.9,10.8,15z M11.5,14c-0.7-1-1.2-2-1.5-3H13C12.7,12,12.2,13,11.5,14z M12.2,15
		c0,0-0.1-0.1-0.1-0.1c0,0,0,0,0,0c0.9-1.2,1.6-2.5,1.9-3.8h3.1C16.4,13.1,14.5,14.7,12.2,15z M17.4,10h-3.1c0.1-0.7,0.1-1.3,0.1-2
		h3.1c0.1,0.3,0.1,0.6,0.1,1C17.5,9.3,17.5,9.7,17.4,10z"/>
</g>
<g id="Outline_Icons">
	<g>
		<path class="st2" d="M20,9c0-4.7-3.8-8.5-8.5-8.5C6.8,0.5,3,4.3,3,9c0,4.1,2.9,7.5,6.7,8.3l1.8,6.2l1.8-6.2
			C17.1,16.5,20,13.1,20,9z"/>
		<g>
			<path class="st3" d="M17,9c0,3-2.5,5.5-5.5,5.5c-3,0-5.5-2.6-5.5-5.6c0-3,2.3-5.3,5.3-5.4c0.1,0,0.2,0,0.2,0
				C14.6,3.5,17,5.9,17,9z"/>
			<path class="st3" d="M11.3,3.5c-2.9,3.1-2.9,7.2,0,11"/>
			<path class="st3" d="M11.8,3.5c2.9,3.1,2.9,7.2,0,11"/>
			<line class="st3" x1="6.2" y1="7.5" x2="16.8" y2="7.5"/>
			<line class="st3" x1="6.2" y1="10.5" x2="16.8" y2="10.5"/>
		</g>
	</g>
</g>
</svg>
