<?xml version="1.0" encoding="utf-8"?>
<!-- Generator: Adobe Illustrator 19.2.0, SVG Export Plug-In . SVG Version: 6.00 Build 0)  -->
<svg version="1.1" id="Layer_1" xmlns="http://www.w3.org/2000/svg" xmlns:xlink="http://www.w3.org/1999/xlink" x="0px" y="0px"
	 viewBox="0 0 24 24" style="enable-background:new 0 0 24 24;" xml:space="preserve">
<style type="text/css">
	.st0{display:none;}
	.st1{display:inline;}
	.st2{fill:none;stroke:#000000;stroke-linecap:round;stroke-linejoin:round;stroke-miterlimit:10;}
</style>
<g id="Filled_Icons" class="st0">
	<g class="st1">
		<circle cx="13.5" cy="10.5" r="0.5"/>
		<circle cx="9.5" cy="10.5" r="0.5"/>
		<path d="M11.5,0C6.1,0,2,4.3,2,10c0,7.2,8.8,13.6,9.2,13.9c0.1,0.1,0.2,0.1,0.3,0.1s0.2,0,0.3-0.1C12.2,23.6,21,17.2,21,10
			C21,4.3,16.9,0,11.5,0z M7,5.5C7,4.7,7.7,4,8.5,4h6C15.3,4,16,4.7,16,5.5V6H7V5.5z M7,7h9v1H7V7z M16.3,15.4
			c-0.1,0.1-0.2,0.1-0.3,0.1c-0.1,0-0.3-0.1-0.4-0.2L13.8,13H9.2l-1.8,2.3c-0.1,0.1-0.2,0.2-0.4,0.2c-0.1,0-0.2,0-0.3-0.1
			c-0.2-0.2-0.3-0.5-0.1-0.7L8,13H7.5C7.2,13,7,12.8,7,12.5V9h9v3.5c0,0.3-0.2,0.5-0.5,0.5h-0.4l1.3,1.7
			C16.6,14.9,16.5,15.2,16.3,15.4z"/>
	</g>
</g>
<g id="Outline_Icons">
	<g>
		<path class="st2" d="M20.5,10c0,7-9,13.5-9,13.5s-9-6.5-9-13.5c0-5.2,3.8-9.5,9-9.5C16.7,0.5,20.5,4.8,20.5,10z"/>
		<path class="st2" d="M15.5,12.5h-8v-7c0-0.6,0.4-1,1-1h6c0.6,0,1,0.4,1,1V12.5z"/>
		<rect x="7.5" y="6.5" class="st2" width="8" height="2"/>
		<g>
			<path d="M9.5,10C9.2,10,9,10.2,9,10.5C9,10.8,9.2,11,9.5,11c0.3,0,0.5-0.2,0.5-0.5C10,10.2,9.8,10,9.5,10L9.5,10z"/>
		</g>
		<g>
			<path d="M13.5,10c-0.3,0-0.5,0.2-0.5,0.5c0,0.3,0.2,0.5,0.5,0.5c0.3,0,0.5-0.2,0.5-0.5C14,10.2,13.8,10,13.5,10L13.5,10z"/>
		</g>
		<line class="st2" x1="9" y1="12.5" x2="7" y2="15"/>
		<line class="st2" x1="14" y1="12.5" x2="16" y2="15"/>
	</g>
</g>
</svg>
