<?xml version="1.0" encoding="utf-8"?>
<!-- Generator: Adobe Illustrator 19.2.0, SVG Export Plug-In . SVG Version: 6.00 Build 0)  -->
<svg version="1.1" id="Layer_1" xmlns="http://www.w3.org/2000/svg" xmlns:xlink="http://www.w3.org/1999/xlink" x="0px" y="0px"
	 viewBox="0 0 24 24" style="enable-background:new 0 0 24 24;" xml:space="preserve">
<style type="text/css">
	.st0{display:none;}
	.st1{display:inline;}
	.st2{fill:none;stroke:#000000;stroke-linecap:round;stroke-linejoin:round;stroke-miterlimit:10;}
</style>
<g id="Filled_Icons" class="st0">
	<path class="st1" d="M18.6,23l-4.7-1l4.7-1c0.3-0.1,0.4-0.3,0.4-0.6c-0.1-0.3-0.3-0.4-0.6-0.4L12,21.4V9c2.2-0.2,4-2.2,4-4.5
		C16,2,14,0,11.5,0C9,0,7,2,7,4.5C7,6.8,8.8,8.7,11,9v12.4L4.6,20C4.3,20,4.1,20.1,4,20.4C4,20.7,4.1,20.9,4.4,21l4.7,1l-4.7,1
		C4.1,23.1,4,23.3,4,23.6c0.1,0.3,0.3,0.4,0.6,0.4l6.9-1.5l6.9,1.5c0.3,0.1,0.5-0.1,0.6-0.4C19,23.3,18.9,23.1,18.6,23z M11,2.5
		C11,2.2,11.2,2,11.5,2C12.9,2,14,3.1,14,4.5C14,4.8,13.8,5,13.5,5C13.2,5,13,4.8,13,4.5C13,3.7,12.3,3,11.5,3C11.2,3,11,2.8,11,2.5
		z"/>
</g>
<g id="Outline_Icons">
	<g>
		<circle class="st2" cx="11.5" cy="4.5" r="4"/>
		<line class="st2" x1="11.5" y1="8.5" x2="11.5" y2="22"/>
		<path class="st2" d="M11.5,2.5c1.1,0,2,0.9,2,2"/>
		<line class="st2" x1="4.5" y1="23.5" x2="18.5" y2="20.5"/>
		<line class="st2" x1="4.5" y1="23.5" x2="18.5" y2="20.5"/>
		<line class="st2" x1="18.5" y1="23.5" x2="4.5" y2="20.5"/>
	</g>
</g>
</svg>
