<?xml version="1.0" encoding="utf-8"?>
<!-- Generator: Adobe Illustrator 19.2.0, SVG Export Plug-In . SVG Version: 6.00 Build 0)  -->
<svg version="1.1" id="Layer_1" xmlns="http://www.w3.org/2000/svg" xmlns:xlink="http://www.w3.org/1999/xlink" x="0px" y="0px"
	 viewBox="0 0 24 24" style="enable-background:new 0 0 24 24;" xml:space="preserve">
<style type="text/css">
	.st0{display:none;}
	.st1{display:inline;}
	.st2{fill:none;stroke:#000000;stroke-linecap:round;stroke-linejoin:round;stroke-miterlimit:10;}
</style>
<g id="Filled_Icons" class="st0">
	<path class="st1" d="M11.5,0C6.1,0,2,4.3,2,10c0,7.2,8.8,13.6,9.2,13.9c0.1,0.1,0.2,0.1,0.3,0.1s0.2,0,0.3-0.1
		C12.2,23.6,21,17.2,21,10C21,4.3,16.9,0,11.5,0z M11.5,15c-0.8,0-1.5-0.7-1.5-1.5s0.7-1.5,1.5-1.5s1.5,0.7,1.5,1.5S12.3,15,11.5,15
		z M14.5,11.2c-0.1,0.3-0.4,0.4-0.7,0.3c-1.5-0.6-3.2-0.6-4.6,0c-0.3,0.1-0.5,0-0.7-0.3c-0.1-0.3,0-0.5,0.3-0.7
		c1.7-0.7,3.7-0.7,5.4,0C14.5,10.6,14.6,10.9,14.5,11.2z M16.1,9.2c-0.1,0.2-0.4,0.3-0.7,0.2c-2.4-1.3-5.5-1.2-7.9,0
		c-0.1,0-0.2,0.1-0.2,0.1c-0.2,0-0.4-0.1-0.4-0.3C6.7,9,6.8,8.7,7,8.6c2.7-1.4,6.1-1.5,8.8-0.1C16.1,8.7,16.2,9,16.1,9.2z M17.6,7.2
		c-0.1,0.2-0.4,0.3-0.7,0.2C13.6,5.5,9.3,5.6,6,7.5c-0.1,0-0.2,0.1-0.2,0.1c-0.2,0-0.3-0.1-0.4-0.2C5.2,7,5.3,6.7,5.5,6.6
		c3.6-2.1,8.3-2.1,11.9,0C17.6,6.7,17.7,7,17.6,7.2z"/>
</g>
<g id="Outline_Icons">
	<g>
		<path class="st2" d="M20.5,10c0,7-9,13.5-9,13.5s-9-6.5-9-13.5c0-5.2,3.8-9.5,9-9.5S20.5,4.8,20.5,10z"/>
		<path class="st2" d="M9,11c0.8-0.3,1.6-0.5,2.5-0.5s1.7,0.2,2.5,0.5"/>
		<path class="st2" d="M7.3,9c1.2-0.6,2.7-1,4.2-1s2.9,0.4,4.1,1"/>
		<path class="st2" d="M5.8,7c1.7-1,3.6-1.5,5.7-1.5s4,0.5,5.7,1.5"/>
		<circle class="st2" cx="11.5" cy="13.5" r="1"/>
	</g>
</g>
</svg>
