<?xml version="1.0" encoding="utf-8"?>
<!-- Generator: Adobe Illustrator 19.2.0, SVG Export Plug-In . SVG Version: 6.00 Build 0)  -->
<svg version="1.1" id="Layer_1" xmlns="http://www.w3.org/2000/svg" xmlns:xlink="http://www.w3.org/1999/xlink" x="0px" y="0px"
	 viewBox="0 0 24 24" style="enable-background:new 0 0 24 24;" xml:space="preserve">
<style type="text/css">
	.st0{display:none;}
	.st1{display:inline;}
	.st2{fill:none;stroke:#000000;stroke-linecap:round;stroke-linejoin:round;stroke-miterlimit:10;}
</style>
<g id="Filled_Icons" class="st0">
	<path class="st1" d="M4.9,0C2.2,0,0,2.2,0,4.9c0,2.5,4,7.4,4.5,7.9C4.6,12.9,4.9,13,5,13c0.1,0,0.4-0.1,0.5-0.2
		C6,12.3,9.8,7.4,9.8,4.9C9.8,2.2,7.6,0,4.9,0z M4.9,7c-1.2,0-2.1-1-2.1-2.1c0-1.2,1-2.1,2.1-2.1c1.2,0,2.1,1,2.1,2.1
		C7,6.1,6.1,7,4.9,7z"/>
	<g class="st1">
		<path d="M17.9,11c-2.7,0-4.9,2.2-4.9,4.9c0,2.5,4,7.4,4.5,8c0.1,0.1,0.2,0.2,0.4,0.2s0.3-0.1,0.4-0.2c0.5-0.6,4.5-5.5,4.5-8
			C22.8,13.2,20.6,11,17.9,11z M17.9,18c-1.2,0-2.1-1-2.1-2.1c0-1.2,1-2.1,2.1-2.1s2.1,1,2.1,2.1C20,17.1,19.1,18,17.9,18z"/>
	</g>
	<g class="st1">
		<path d="M5.9,24h-1c-0.3,0-0.5-0.2-0.5-0.5v-1c0-0.3,0.2-0.5,0.5-0.5c0.3,0,0.5,0.2,0.5,0.5V23h0.5c0.3,0,0.5,0.2,0.5,0.5
			C6.4,23.8,6.2,24,5.9,24z"/>
	</g>
	<g class="st1">
		<path d="M14.9,24h-1c-0.3,0-0.5-0.2-0.5-0.5c0-0.3,0.2-0.5,0.5-0.5h1c0.3,0,0.5,0.2,0.5,0.5C15.4,23.8,15.2,24,14.9,24z"/>
	</g>
	<g class="st1">
		<path d="M11.9,24h-1c-0.3,0-0.5-0.2-0.5-0.5c0-0.3,0.2-0.5,0.5-0.5h1c0.3,0,0.5,0.2,0.5,0.5C12.4,23.8,12.2,24,11.9,24z"/>
	</g>
	<g class="st1">
		<path d="M8.9,24h-1c-0.3,0-0.5-0.2-0.5-0.5c0-0.3,0.2-0.5,0.5-0.5h1c0.3,0,0.5,0.2,0.5,0.5C9.4,23.8,9.2,24,8.9,24z"/>
	</g>
	<g class="st1">
		<path d="M4.9,15c-0.3,0-0.5-0.2-0.5-0.5v-1c0-0.3,0.2-0.5,0.5-0.5c0.3,0,0.5,0.2,0.5,0.5v1C5.4,14.8,5.2,15,4.9,15z"/>
	</g>
	<g class="st1">
		<path d="M4.9,18c-0.3,0-0.5-0.2-0.5-0.5v-1c0-0.3,0.2-0.5,0.5-0.5c0.3,0,0.5,0.2,0.5,0.5v1C5.4,17.8,5.2,18,4.9,18z"/>
	</g>
	<g class="st1">
		<path d="M4.9,21c-0.3,0-0.5-0.2-0.5-0.5v-1c0-0.3,0.2-0.5,0.5-0.5c0.3,0,0.5,0.2,0.5,0.5v1C5.4,20.8,5.2,21,4.9,21z"/>
	</g>
</g>
<g id="Outline_Icons">
	<g>
		<path class="st2" d="M9.9,4.9c0,2.4-4.4,7.7-4.4,7.7S1.1,7.3,1.1,4.9c0-2.4,2-4.4,4.4-4.4C7.9,0.5,9.9,2.5,9.9,4.9z"/>
		<circle class="st2" cx="5.5" cy="4.9" r="1.6"/>
		<path class="st2" d="M22.9,15.9c0,2.4-4.4,7.7-4.4,7.7s-4.4-5.2-4.4-7.7s2-4.4,4.4-4.4C20.9,11.5,22.9,13.5,22.9,15.9z"/>
		<circle class="st2" cx="18.5" cy="15.9" r="1.6"/>
		<polyline class="st2" points="6.5,23.5 5.5,23.5 5.5,22.5 		"/>
		<line class="st2" x1="14.5" y1="23.5" x2="15.5" y2="23.5"/>
		<line class="st2" x1="11.5" y1="23.5" x2="12.5" y2="23.5"/>
		<line class="st2" x1="8.5" y1="23.5" x2="9.5" y2="23.5"/>
		<line class="st2" x1="5.5" y1="13.5" x2="5.5" y2="14.5"/>
		<line class="st2" x1="5.5" y1="16.5" x2="5.5" y2="17.5"/>
		<line class="st2" x1="5.5" y1="19.5" x2="5.5" y2="20.5"/>
	</g>
</g>
</svg>
