<?xml version="1.0" encoding="utf-8"?>
<!-- Generator: Adobe Illustrator 19.2.0, SVG Export Plug-In . SVG Version: 6.00 Build 0)  -->
<svg version="1.1" id="Layer_1" xmlns="http://www.w3.org/2000/svg" xmlns:xlink="http://www.w3.org/1999/xlink" x="0px" y="0px"
	 viewBox="0 0 24 24" style="enable-background:new 0 0 24 24;" xml:space="preserve">
<style type="text/css">
	.st0{display:none;}
	.st1{display:inline;}
	.st2{fill:none;stroke:#000000;stroke-linecap:round;stroke-linejoin:round;stroke-miterlimit:10;}
</style>
<g id="Filled_Icons" class="st0">
	<path class="st1" d="M11.5,0c-5,0-9,4-9,9c0,4.1,2.9,7.7,6.8,8.7l1.7,5.9c0.1,0.2,0.3,0.4,0.5,0.4c0.2,0,0.4-0.1,0.5-0.4l1.7-5.9
		c4-1,6.8-4.6,6.8-8.7C20.5,4,16.5,0,11.5,0z M8.5,5.5l1.6-0.8c0.2-0.1,0.3-0.1,0.5,0l2,1.2l-3,1.2L8.5,6.3C8.3,6.2,8.2,6.1,8.2,5.9
		C8.2,5.7,8.3,5.5,8.5,5.5z M17.4,8.3l-2.6,1.1l-2.1,3.9c0,0.1-0.1,0.2-0.2,0.2l-1.8,0.9c-0.1,0-0.2,0.1-0.2,0.1
		c-0.1,0-0.2,0-0.3-0.1C10,14.2,10,14,10.1,13.8l1.1-2.9l-2.5,1c-0.2,0.1-0.3,0-0.5,0L4.6,9.5C4.4,9.4,4.3,9.2,4.3,9.1
		c0-0.2,0.1-0.3,0.2-0.4l1.6-0.9c0.1-0.1,0.3-0.1,0.5,0l1.9,0.9l7.7-3.1c0.7-0.3,1.6,0.1,1.9,0.8c0.2,0.4,0.2,0.8,0,1.2
		C18.1,7.8,17.8,8.1,17.4,8.3z"/>
</g>
<g id="Outline_Icons">
	<g>
		<g>
			<path class="st2" d="M8.5,9.1L6.4,8.2L4.8,9.1l3.6,2.3L12,10l-1.5,4l1.8-0.9l2.2-4l2.7-1.2c0.2-0.1,0.4-0.3,0.5-0.6
				c0.1-0.3,0.1-0.5,0-0.8C17.5,6,17,5.7,16.5,5.9L8.5,9.1z"/>
			<polyline class="st2" points="13.6,7.1 10.3,5.1 8.7,5.9 11.6,7.8 			"/>
		</g>
		<path class="st2" d="M20,9c0-4.7-3.8-8.5-8.5-8.5C6.8,0.5,3,4.3,3,9c0,4.1,2.9,7.5,6.7,8.3l1.8,6.2l1.8-6.2
			C17.1,16.5,20,13.1,20,9z"/>
	</g>
</g>
</svg>
