<?xml version="1.0" encoding="utf-8"?>
<!-- Generator: Adobe Illustrator 19.2.0, SVG Export Plug-In . SVG Version: 6.00 Build 0)  -->
<svg version="1.1" id="Layer_1" xmlns="http://www.w3.org/2000/svg" xmlns:xlink="http://www.w3.org/1999/xlink" x="0px" y="0px"
	 viewBox="0 0 24 24" style="enable-background:new 0 0 24 24;" xml:space="preserve">
<style type="text/css">
	.st0{display:none;}
	.st1{display:inline;}
	.st2{fill:none;stroke:#000000;stroke-linecap:round;stroke-linejoin:round;stroke-miterlimit:10;}
	.st3{fill:none;stroke:#000000;stroke-linejoin:round;stroke-miterlimit:10;}
</style>
<g id="Filled_Icons" class="st0">
	<path class="st1" d="M11.5,0C6.1,0,2,4.3,2,10c0,7.2,8.8,13.6,9.2,13.9c0.1,0.1,0.2,0.1,0.3,0.1s0.2,0,0.3-0.1
		C12.2,23.6,21,17.2,21,10C21,4.3,16.9,0,11.5,0z M11,5.3c0-0.3,0.2-0.5,0.5-0.5C11.8,4.8,12,5,12,5.3v6c0,0.3-0.2,0.5-0.5,0.5
		c-0.3,0-0.5-0.2-0.5-0.5V5.3z M11.5,14.5c-0.6,0-1-0.4-1-1c0-0.6,0.4-1,1-1c0.6,0,1,0.4,1,1C12.5,14.1,12.1,14.5,11.5,14.5z"/>
</g>
<g id="Outline_Icons">
	<g>
		<path class="st2" d="M20.5,10c0,7-9,13.5-9,13.5s-9-6.5-9-13.5c0-5.2,3.8-9.5,9-9.5C16.7,0.5,20.5,4.8,20.5,10z"/>
		<line class="st2" x1="11.5" y1="11.3" x2="11.5" y2="5.3"/>
		<path class="st3" d="M12,13.5c0,0.3-0.2,0.5-0.5,0.5l0,0c-0.3,0-0.5-0.2-0.5-0.5l0,0c0-0.3,0.2-0.5,0.5-0.5l0,0
			C11.8,13,12,13.2,12,13.5L12,13.5z"/>
	</g>
</g>
</svg>
