<?xml version="1.0" encoding="utf-8"?>
<!-- Generator: Adobe Illustrator 19.2.0, SVG Export Plug-In . SVG Version: 6.00 Build 0)  -->
<svg version="1.1" id="Layer_1" xmlns="http://www.w3.org/2000/svg" xmlns:xlink="http://www.w3.org/1999/xlink" x="0px" y="0px"
	 viewBox="0 0 24 24" style="enable-background:new 0 0 24 24;" xml:space="preserve">
<style type="text/css">
	.st0{display:none;}
	.st1{display:inline;}
	.st2{fill:none;stroke:#000000;stroke-linecap:round;stroke-linejoin:round;stroke-miterlimit:10;}
</style>
<g id="Filled_Icons" class="st0">
	<g class="st1">
		<path d="M5.6,7C2.5,7,0,9.5,0,12.6c0,3,5,9,5.2,9.2C5.3,21.9,5.4,22,5.6,22c0.1,0,0.3-0.1,0.4-0.2c0.2-0.3,5.2-6.3,5.2-9.2
			C11.2,9.5,8.7,7,5.6,7z M5.6,15c-1.3,0-2.4-1.1-2.4-2.4c0-1.3,1.1-2.4,2.4-2.4c1.3,0,2.4,1.1,2.4,2.4C8,13.9,6.9,15,5.6,15z"/>
		<g>
			<path d="M14.5,24H5.6c-0.3,0-0.5-0.2-0.5-0.5c0-0.3,0.2-0.5,0.5-0.5H14v-8.5c0-0.3,0.2-0.5,0.5-0.5h5c0.3,0,0.5,0.2,0.5,0.5
				c0,0.3-0.2,0.5-0.5,0.5H15v8.5C15,23.8,14.8,24,14.5,24z"/>
		</g>
		<path d="M19.5,1C17,1,15,3,15,5.5c0,2.3,3.7,6.8,4.1,7.3c0.1,0.1,0.2,0.2,0.4,0.2c0.1,0,0.3-0.1,0.4-0.2c0.4-0.5,4.1-5,4.1-7.3
			C24,3,22,1,19.5,1z M19.5,7.5c-1.1,0-2-0.9-2-2c0-1.1,0.9-2,2-2c1.1,0,2,0.9,2,2C21.5,6.6,20.6,7.5,19.5,7.5z"/>
	</g>
</g>
<g id="Outline_Icons">
	<g>
		<g>
			<path class="st2" d="M10.7,12.6c0,2.8-5.1,8.9-5.1,8.9s-5.1-6.1-5.1-8.9c0-2.8,2.3-5.1,5.1-5.1C8.4,7.5,10.7,9.8,10.7,12.6z"/>
			<circle class="st2" cx="5.6" cy="12.6" r="1.9"/>
		</g>
		<polyline class="st2" points="5.6,23.5 14.5,23.5 14.5,14.5 19.5,14.5 		"/>
		<g>
			<path class="st2" d="M23.5,5.5c0,2.2-4,7-4,7s-4-4.8-4-7c0-2.2,1.8-4,4-4S23.5,3.3,23.5,5.5z"/>
			<circle class="st2" cx="19.5" cy="5.5" r="1.5"/>
		</g>
	</g>
</g>
</svg>
