<?xml version="1.0" encoding="utf-8"?>
<!-- Generator: Adobe Illustrator 19.2.0, SVG Export Plug-In . SVG Version: 6.00 Build 0)  -->
<svg version="1.1" id="Layer_1" xmlns="http://www.w3.org/2000/svg" xmlns:xlink="http://www.w3.org/1999/xlink" x="0px" y="0px"
	 viewBox="0 0 24 24" style="enable-background:new 0 0 24 24;" xml:space="preserve">
<style type="text/css">
	.st0{display:none;}
	.st1{display:inline;}
	.st2{fill:none;stroke:#000000;stroke-linecap:round;stroke-linejoin:round;stroke-miterlimit:10;}
</style>
<g id="Filled_Icons" class="st0">
	<path class="st1" d="M11.5,0c-4.5,0-7,2.5-7,7c0,2.5,1.8,5.1,3.5,7.7c1.6,2.3,3,4.5,3,6.3v2.5c0,0.3,0.2,0.5,0.5,0.5
		c0.3,0,0.5-0.2,0.5-0.5V21c0-1.8,1.5-4,3-6.3c1.7-2.6,3.5-5.2,3.5-7.7C18.5,2.5,16,0,11.5,0z M14.9,5.9l-1.3,1.3L14,9.4
		c0,0.2,0,0.4-0.2,0.5c-0.2,0.1-0.4,0.1-0.6,0l-1.7-1.3L9.8,9.9C9.6,10,9.4,10,9.2,9.9C9.1,9.8,9,9.6,9,9.4l0.4-2.2L8.1,5.9
		C8,5.7,8,5.5,8,5.3C8.1,5.1,8.3,5,8.5,5h1.7l0.9-1.7c0.2-0.3,0.7-0.3,0.9,0L12.8,5h1.7c0.2,0,0.4,0.1,0.5,0.3
		C15,5.5,15,5.7,14.9,5.9z"/>
</g>
<g id="Outline_Icons">
	<g>
		<polygon class="st2" points="11.5,3.5 12.5,5.5 14.5,5.5 13,7 13.5,9.5 11.5,8 9.5,9.5 10,7 8.5,5.5 10.5,5.5 		"/>
		<line class="st2" x1="11.5" y1="21" x2="11.5" y2="23.5"/>
		<path class="st2" d="M18,7c0,4.5-6.5,10-6.5,14c0-4-6.5-9.5-6.5-14s2.5-6.5,6.5-6.5S18,2.5,18,7z"/>
	</g>
</g>
</svg>
