<?xml version="1.0" encoding="utf-8"?>
<!-- Generator: Adobe Illustrator 19.2.0, SVG Export Plug-In . SVG Version: 6.00 Build 0)  -->
<svg version="1.1" id="Layer_1" xmlns="http://www.w3.org/2000/svg" xmlns:xlink="http://www.w3.org/1999/xlink" x="0px" y="0px"
	 viewBox="0 0 24 24" style="enable-background:new 0 0 24 24;" xml:space="preserve">
<style type="text/css">
	.st0{display:none;}
	.st1{display:inline;}
	.st2{fill:none;stroke:#000000;stroke-linecap:round;stroke-linejoin:round;stroke-miterlimit:10;}
</style>
<g id="Filled_Icons" class="st0">
	<g class="st1">
		<path d="M18.5,17.3C18.4,17.1,18.2,17,18,17H7c-0.2,0-0.4,0.1-0.5,0.3c-0.1,0.2,0,0.4,0.1,0.5l5.5,6c0.1,0.1,0.2,0.2,0.4,0.2
			c0.1,0,0.3-0.1,0.4-0.2l5.5-6C18.5,17.7,18.5,17.5,18.5,17.3z"/>
		<path d="M12.5,0.5C8.4,0.5,5,3.9,5,8c0,4.1,3.4,7.5,7.5,7.5c4.1,0,7.5-3.4,7.5-7.5C20,3.9,16.6,0.5,12.5,0.5z M12.5,12
			c-2.2,0-4-1.8-4-4c0-2.2,1.8-4,4-4c2.2,0,4,1.8,4,4C16.5,10.2,14.7,12,12.5,12z"/>
	</g>
</g>
<g id="Outline_Icons">
	<g>
		<polygon class="st2" points="7,17.5 12.5,23.5 18,17.5 		"/>
		<circle class="st2" cx="12.5" cy="7.5" r="7"/>
		<circle class="st2" cx="12.5" cy="7.5" r="3.5"/>
	</g>
</g>
</svg>
