<?xml version="1.0" encoding="utf-8"?>
<!-- Generator: Adobe Illustrator 19.2.0, SVG Export Plug-In . SVG Version: 6.00 Build 0)  -->
<svg version="1.1" id="Layer_1" xmlns="http://www.w3.org/2000/svg" xmlns:xlink="http://www.w3.org/1999/xlink" x="0px" y="0px"
	 viewBox="0 0 24 24" style="enable-background:new 0 0 24 24;" xml:space="preserve">
<style type="text/css">
	.st0{display:none;}
	.st1{display:inline;}
	.st2{fill:none;stroke:#000000;stroke-linecap:round;stroke-linejoin:round;stroke-miterlimit:10;}
</style>
<g id="Filled_Icons" class="st0">
	<g class="st1">
		<path d="M11.5,7h-2C9.2,7,9,7.2,9,7.5C9,7.8,9.2,8,9.5,8h2C11.8,8,12,7.8,12,7.5C12,7.2,11.8,7,11.5,7z"/>
		<path d="M11.5,0C6.1,0,2,4.3,2,10c0,7.2,8.8,13.6,9.2,13.9c0.1,0.1,0.2,0.1,0.3,0.1s0.2,0,0.3-0.1C12.2,23.6,21,17.2,21,10
			C21,4.3,16.9,0,11.5,0z M7,5.5C7,5.2,7.2,5,7.5,5h6C13.8,5,14,5.2,14,5.5V9H7V5.5z M17,8h-1v3.5c0,0.3-0.2,0.5-0.5,0.5H14v2.5
			c0,0.3-0.2,0.5-0.5,0.5h-6C7.2,15,7,14.8,7,14.5V10h7v1h1V7.5C15,7.2,15.2,7,15.5,7H17c0.3,0,0.5,0.2,0.5,0.5
			C17.5,7.8,17.3,8,17,8z"/>
	</g>
</g>
<g id="Outline_Icons">
	<g>
		<path class="st2" d="M20.5,10c0,7-9,13.5-9,13.5s-9-6.5-9-13.5c0-5.2,3.8-9.5,9-9.5C16.7,0.5,20.5,4.8,20.5,10z"/>
		<rect x="7.5" y="5.5" class="st2" width="6" height="9"/>
		<line class="st2" x1="7.5" y1="9.5" x2="13.5" y2="9.5"/>
		<line class="st2" x1="9.5" y1="7.5" x2="11.5" y2="7.5"/>
		<polyline class="st2" points="13.5,11.5 15.5,11.5 15.5,7.5 17,7.5 		"/>
	</g>
</g>
</svg>
