<?xml version="1.0" encoding="utf-8"?>
<!-- Generator: Adobe Illustrator 19.2.0, SVG Export Plug-In . SVG Version: 6.00 Build 0)  -->
<svg version="1.1" id="Layer_1" xmlns="http://www.w3.org/2000/svg" xmlns:xlink="http://www.w3.org/1999/xlink" x="0px" y="0px"
	 viewBox="0 0 24 24" style="enable-background:new 0 0 24 24;" xml:space="preserve">
<style type="text/css">
	.st0{display:none;}
	.st1{display:inline;}
	.st2{fill:none;stroke:#000000;stroke-linecap:round;stroke-linejoin:round;stroke-miterlimit:10;}
</style>
<g id="Filled_Icons" class="st0">
	<g class="st1">
		<path d="M12,0C7.6,0,4,3.6,4,8c0,3.7,2.6,7,6.2,7.8l1.3,4.3c0.1,0.2,0.3,0.4,0.5,0.4c0.2,0,0.4-0.1,0.5-0.4l1.3-4.3
			C17.4,15,20,11.7,20,8C20,3.6,16.4,0,12,0z M12,13c-2.8,0-5-2.2-5-5c0-2.8,2.2-5,5-5c2.8,0,5,2.2,5,5C17,10.8,14.8,13,12,13z"/>
		<path d="M17,20.3c-0.1-0.3-0.4-0.4-0.6-0.3L12,21.5L7.7,20c-0.3-0.1-0.5,0.1-0.6,0.3c-0.1,0.3,0.1,0.5,0.3,0.6l3.1,1l-3.1,1
			c-0.3,0.1-0.4,0.4-0.3,0.6C7.1,23.9,7.3,24,7.5,24c0.1,0,0.1,0,0.2,0l4.3-1.4l4.3,1.4c0.1,0,0.1,0,0.2,0c0.2,0,0.4-0.1,0.5-0.3
			c0.1-0.3-0.1-0.5-0.3-0.6l-3.1-1l3.1-1C16.9,20.9,17.1,20.6,17,20.3z"/>
	</g>
</g>
<g id="Outline_Icons">
	<g>
		<line class="st2" x1="7.5" y1="23.5" x2="16.5" y2="20.5"/>
		<line class="st2" x1="16.5" y1="23.5" x2="7.5" y2="20.5"/>
		<circle class="st2" cx="12" cy="8" r="4.5"/>
		<path class="st2" d="M19.5,8c0-4.1-3.4-7.5-7.5-7.5C7.9,0.5,4.5,3.9,4.5,8c0,3.7,2.6,6.7,6.1,7.4L12,20l1.4-4.6
			C16.9,14.7,19.5,11.7,19.5,8z"/>
	</g>
</g>
</svg>
