<?xml version="1.0" encoding="utf-8"?>
<!-- Generator: Adobe Illustrator 19.2.0, SVG Export Plug-In . SVG Version: 6.00 Build 0)  -->
<svg version="1.1" id="Layer_1" xmlns="http://www.w3.org/2000/svg" xmlns:xlink="http://www.w3.org/1999/xlink" x="0px" y="0px"
	 viewBox="0 0 24 24" style="enable-background:new 0 0 24 24;" xml:space="preserve">
<style type="text/css">
	.st0{display:none;}
	.st1{display:inline;}
	.st2{fill:none;stroke:#000000;stroke-linecap:round;stroke-linejoin:round;stroke-miterlimit:10;}
</style>
<g id="Filled_Icons" class="st0">
	<path class="st1" d="M11.5,0C6.1,0,2,4.3,2,10c0,7.2,8.8,13.6,9.2,13.9c0.1,0.1,0.2,0.1,0.3,0.1s0.2,0,0.3-0.1
		C12.2,23.6,21,17.2,21,10C21,4.3,16.9,0,11.5,0z M15.5,14C15.5,14,15.5,14,15.5,14h-8C7.2,14,7,13.8,7,13.5c0-1.8,1.1-3.4,2.7-4.1
		C9,8.9,8.5,8,8.5,7c0-1.7,1.3-3,3-3c1.7,0,3,1.3,3,3c0,1-0.5,1.8-1.2,2.4c1.7,0.7,2.7,2.4,2.7,4.1C16,13.8,15.8,14,15.5,14z"/>
</g>
<g id="Outline_Icons">
	<g>
		<path class="st2" d="M20.5,10c0,7-9,13.5-9,13.5s-9-6.5-9-13.5c0-5.2,3.8-9.5,9-9.5C16.7,0.5,20.5,4.8,20.5,10z"/>
		<circle class="st2" cx="11.5" cy="7" r="2.5"/>
		<path class="st2" d="M15.5,13.5h-8c0-2.2,1.8-4,4-4S15.5,11.3,15.5,13.5z"/>
	</g>
</g>
</svg>
