<?xml version="1.0" encoding="utf-8"?>
<!-- Generator: Adobe Illustrator 19.2.0, SVG Export Plug-In . SVG Version: 6.00 Build 0)  -->
<svg version="1.1" id="Layer_1" xmlns="http://www.w3.org/2000/svg" xmlns:xlink="http://www.w3.org/1999/xlink" x="0px" y="0px"
	 viewBox="0 0 24 24" style="enable-background:new 0 0 24 24;" xml:space="preserve">
<style type="text/css">
	.st0{display:none;}
	.st1{display:inline;}
	.st2{fill:none;stroke:#000000;stroke-linecap:round;stroke-linejoin:round;stroke-miterlimit:10;}
</style>
<g id="Filled_Icons" class="st0">
	<path class="st1" d="M11.5,0c-5,0-9,4-9,9c0,4.1,2.9,7.7,6.8,8.7l1.7,5.9c0.1,0.2,0.3,0.4,0.5,0.4c0.2,0,0.4-0.1,0.5-0.4l1.7-5.9
		c4-1,6.8-4.6,6.8-8.7C20.5,4,16.5,0,11.5,0z M15,13.5c0.2,0.2,0.2,0.5,0,0.7c-0.1,0.1-0.2,0.1-0.4,0.1c-0.1,0-0.3,0-0.4-0.1
		l-2.9-2.9l-2.9,2.9c-0.1,0.1-0.2,0.1-0.4,0.1c-0.1,0-0.3,0-0.4-0.1c-0.2-0.2-0.2-0.5,0-0.7l2.9-2.9L9.9,9.9
		c-0.5,0.3-1.1,0.5-1.7,0.5c-0.8,0-1.5-0.3-2-0.8L4.5,7.9c-0.2-0.2-0.2-0.5,0-0.7C4.7,7,5,7,5.2,7.2l1.7,1.7
		c0.6,0.6,1.5,0.7,2.3,0.3l-3-3C6,6,6,5.7,6.2,5.5c0.2-0.2,0.5-0.2,0.7,0l3,3c0.2-0.3,0.3-0.6,0.3-0.9c0-0.5-0.2-1-0.6-1.3L7.9,4.5
		C7.7,4.3,7.7,4,7.9,3.8c0.2-0.2,0.5-0.2,0.7,0l1.7,1.7c0.5,0.5,0.8,1.3,0.8,2c0,0.6-0.2,1.2-0.5,1.7l0.8,0.8l5.3-5.3
		c0.1-0.1,0.2-0.1,0.4-0.1c0.1,0,0.3,0.1,0.4,0.1c1.2,1.2-0.4,4.5-2.5,6.6c-0.2,0.2-0.5,0.2-0.7,0l-1.3-1.3l-0.8,0.8L15,13.5z"/>
</g>
<g id="Outline_Icons">
	<g>
		<path class="st2" d="M20,9c0-4.7-3.8-8.5-8.5-8.5C6.8,0.5,3,4.3,3,9c0,4.1,2.9,7.5,6.7,8.3l1.8,6.2l1.8-6.2
			C17.1,16.5,20,13.1,20,9z"/>
		<g>
			<path class="st2" d="M12.8,9.2l1.7,1.7c2.3-2.3,3.3-5.1,2.5-5.9l-8.9,8.9"/>
			<path class="st2" d="M4.9,7.5l1.7,1.7c0.9,0.9,2.4,0.9,3.4,0c0.9-0.9,0.9-2.4,0-3.4L8.2,4.1"/>
			<line class="st2" x1="6.6" y1="5.8" x2="14.6" y2="13.9"/>
		</g>
	</g>
</g>
</svg>
