<?xml version="1.0" encoding="utf-8"?>
<!-- Generator: Adobe Illustrator 19.2.0, SVG Export Plug-In . SVG Version: 6.00 Build 0)  -->
<svg version="1.1" id="Layer_1" xmlns="http://www.w3.org/2000/svg" xmlns:xlink="http://www.w3.org/1999/xlink" x="0px" y="0px"
	 viewBox="0 0 24 24" style="enable-background:new 0 0 24 24;" xml:space="preserve">
<style type="text/css">
	.st0{display:none;}
	.st1{display:inline;}
	.st2{fill:none;stroke:#000000;stroke-linecap:round;stroke-linejoin:round;stroke-miterlimit:10;}
</style>
<g id="Filled_Icons" class="st0">
	<g class="st1">
		<path d="M12,20.5c0.2,0,0.3-0.1,0.4-0.2c0.3-0.4,6.6-9,6.6-13.3c0-4.4-2.6-7-7-7C7.6,0,5,2.6,5,7c0,4.3,6.3,12.9,6.6,13.3
			C11.7,20.4,11.8,20.5,12,20.5z M9,7c0-1.7,1.3-3,3-3c1.7,0,3,1.3,3,3c0,1.7-1.3,3-3,3C10.3,10,9,8.7,9,7z"/>
		<path d="M17,20.3c-0.1-0.3-0.4-0.4-0.6-0.3L12,21.5L7.7,20c-0.3-0.1-0.5,0.1-0.6,0.3c-0.1,0.3,0.1,0.5,0.3,0.6l3.1,1l-3.1,1
			c-0.3,0.1-0.4,0.4-0.3,0.6C7.1,23.9,7.3,24,7.5,24c0.1,0,0.1,0,0.2,0l4.3-1.4l4.3,1.4c0.1,0,0.1,0,0.2,0c0.2,0,0.4-0.1,0.5-0.3
			c0.1-0.3-0.1-0.5-0.3-0.6l-3.1-1l3.1-1C16.9,20.9,17.1,20.6,17,20.3z"/>
	</g>
</g>
<g id="Outline_Icons">
	<g>
		<path class="st2" d="M18.5,7c0,4.1-6.5,13-6.5,13S5.5,11.1,5.5,7c0-4.1,2.4-6.5,6.5-6.5C16.1,0.5,18.5,2.9,18.5,7z"/>
		<circle class="st2" cx="12" cy="7" r="2.5"/>
		<line class="st2" x1="7.5" y1="23.5" x2="16.5" y2="20.5"/>
		<line class="st2" x1="16.5" y1="23.5" x2="7.5" y2="20.5"/>
	</g>
</g>
</svg>
