<?xml version="1.0" encoding="utf-8"?>
<!-- Generator: Adobe Illustrator 19.2.0, SVG Export Plug-In . SVG Version: 6.00 Build 0)  -->
<svg version="1.1" id="Layer_1" xmlns="http://www.w3.org/2000/svg" xmlns:xlink="http://www.w3.org/1999/xlink" x="0px" y="0px"
	 viewBox="0 0 24 24" style="enable-background:new 0 0 24 24;" xml:space="preserve">
<style type="text/css">
	.st0{display:none;}
	.st1{display:inline;}
	.st2{fill:none;stroke:#000000;stroke-linecap:round;stroke-linejoin:round;stroke-miterlimit:10;}
</style>
<g id="Filled_Icons" class="st0">
	<g class="st1">
		<path d="M11.5,6c-4.1,0-7.2,3.2-7.2,7.5c0,5.4,6.6,10.2,6.9,10.4c0.1,0.1,0.2,0.1,0.3,0.1s0.2,0,0.3-0.1c0.3-0.2,6.9-5,6.9-10.4
			C18.7,9.2,15.6,6,11.5,6z M11.5,17c-2.2,0-4-1.8-4-4c0-2.2,1.8-4,4-4c2.2,0,4,1.8,4,4C15.5,15.2,13.7,17,11.5,17z"/>
		<path d="M11.5,4C11.8,4,12,3.7,12,3.5v-3C12,0.2,11.8,0,11.5,0C11.2,0,11,0.2,11,0.5v3C11,3.7,11.2,4,11.5,4z"/>
		<path d="M15.7,5c0.1,0,0.2,0.1,0.2,0.1c0.2,0,0.4-0.1,0.4-0.3l1.4-2.6c0.1-0.2,0-0.5-0.2-0.7c-0.2-0.1-0.5,0-0.7,0.2l-1.4,2.6
			C15.4,4.6,15.5,4.9,15.7,5z"/>
		<path d="M22.3,5.7c-0.2-0.2-0.5-0.3-0.7-0.1l-2.5,1.7c-0.2,0.2-0.3,0.5-0.1,0.7c0.1,0.1,0.3,0.2,0.4,0.2c0.1,0,0.2,0,0.3-0.1
			l2.5-1.7C22.4,6.2,22.5,5.9,22.3,5.7z"/>
		<path d="M6.6,4.8C6.7,5,6.8,5.1,7,5.1c0.1,0,0.2,0,0.2-0.1c0.2-0.1,0.3-0.4,0.2-0.7L6.1,1.7C5.9,1.5,5.6,1.4,5.4,1.5
			C5.1,1.6,5,1.9,5.2,2.2L6.6,4.8z"/>
		<path d="M1.4,5.6C1.2,5.4,0.8,5.5,0.7,5.7C0.5,5.9,0.6,6.2,0.8,6.4l2.5,1.7c0.1,0.1,0.2,0.1,0.3,0.1c0.2,0,0.3-0.1,0.4-0.2
			c0.2-0.2,0.1-0.5-0.1-0.7L1.4,5.6z"/>
	</g>
</g>
<g id="Outline_Icons">
	<g>
		<path class="st2" d="M18.2,13.5c0,5.2-6.7,10-6.7,10s-6.7-4.8-6.7-10c0-3.9,2.8-7,6.7-7C15.4,6.5,18.2,9.6,18.2,13.5z"/>
		<circle class="st2" cx="11.5" cy="13" r="3.5"/>
		<line class="st2" x1="11.5" y1="0.5" x2="11.5" y2="3.5"/>
		<line class="st2" x1="17.4" y1="1.9" x2="16" y2="4.6"/>
		<line class="st2" x1="21.9" y1="6" x2="19.4" y2="7.7"/>
		<line class="st2" x1="5.6" y1="1.9" x2="7" y2="4.6"/>
		<line class="st2" x1="1.1" y1="6" x2="3.6" y2="7.7"/>
	</g>
</g>
</svg>
