<?xml version="1.0" encoding="utf-8"?>
<!-- Generator: Adobe Illustrator 19.2.0, SVG Export Plug-In . SVG Version: 6.00 Build 0)  -->
<svg version="1.1" id="Layer_1" xmlns="http://www.w3.org/2000/svg" xmlns:xlink="http://www.w3.org/1999/xlink" x="0px" y="0px"
	 viewBox="0 0 24 24" style="enable-background:new 0 0 24 24;" xml:space="preserve">
<style type="text/css">
	.st0{display:none;}
	.st1{display:inline;}
	.st2{fill:none;stroke:#000000;stroke-linecap:round;stroke-linejoin:round;stroke-miterlimit:10;}
</style>
<g id="Filled_Icons" class="st0">
	<path class="st1" d="M11.5,0c-5,0-9,4-9,9c0,4.1,2.9,7.7,6.8,8.7l1.7,5.9c0.1,0.2,0.3,0.4,0.5,0.4c0.2,0,0.4-0.1,0.5-0.4l1.7-5.9
		c4-1,6.8-4.6,6.8-8.7C20.5,4,16.5,0,11.5,0z M9.5,13.5c-0.6,0-1-0.4-1-1c0-0.6,0.4-1,1-1c0.6,0,1,0.4,1,1
		C10.5,13,10.1,13.5,9.5,13.5z M14.5,13.5c-0.6,0-1-0.4-1-1c0-0.6,0.4-1,1-1c0.6,0,1,0.4,1,1C15.5,13,15.1,13.5,14.5,13.5z M16,10.5
		c0,0.3-0.2,0.5-0.5,0.5h-7C8.2,11,8,10.8,8,10.5V5H6.5C6.3,5,6,4.8,6,4.5C6,4.2,6.3,4,6.5,4h2C8.8,4,9,4.2,9,4.5V6h6.5
		C15.8,6,16,6.2,16,6.5V10.5z"/>
</g>
<g id="Outline_Icons">
	<g>
		<polyline class="st2" points="6.5,4.5 8.5,4.5 8.5,10.5 15.5,10.5 15.5,6.5 8.5,6.5 		"/>
		<circle class="st2" cx="9.5" cy="12.5" r="0.5"/>
		<circle class="st2" cx="14.5" cy="12.5" r="0.5"/>
		<path class="st2" d="M20,9c0-4.7-3.8-8.5-8.5-8.5C6.8,0.5,3,4.3,3,9c0,4.1,2.9,7.5,6.7,8.3l1.8,6.2l1.8-6.2
			C17.1,16.5,20,13.1,20,9z"/>
	</g>
</g>
</svg>
