<?xml version="1.0" encoding="utf-8"?>
<!-- Generator: Adobe Illustrator 19.2.0, SVG Export Plug-In . SVG Version: 6.00 Build 0)  -->
<svg version="1.1" id="Layer_1" xmlns="http://www.w3.org/2000/svg" xmlns:xlink="http://www.w3.org/1999/xlink" x="0px" y="0px"
	 viewBox="0 0 24 24" style="enable-background:new 0 0 24 24;" xml:space="preserve">
<style type="text/css">
	.st0{display:none;}
	.st1{display:inline;}
	.st2{fill:none;stroke:#000000;stroke-linecap:round;stroke-linejoin:round;stroke-miterlimit:10;}
</style>
<g id="Filled_Icons" class="st0">
	<path class="st1" d="M11.5,0c-5,0-9,4-9,9c0,4.1,2.9,7.7,6.8,8.7l1.7,5.9c0.1,0.2,0.3,0.4,0.5,0.4c0.2,0,0.4-0.1,0.5-0.4l1.7-5.9
		c4-1,6.8-4.6,6.8-8.7C20.5,4,16.5,0,11.5,0z M16.5,8C16.5,8,16.5,8,16.5,8H15v4.5c0,0.3-0.2,0.5-0.5,0.5H13V9.5
		C13,9.2,12.8,9,12.5,9h-2C10.2,9,10,9.2,10,9.5V13H8.5C8.2,13,8,12.8,8,12.5V8H6.5C6.3,8,6.1,7.9,6,7.7C6,7.5,6,7.3,6.2,7.1l5-4.5
		c0.2-0.2,0.5-0.2,0.7,0l4.9,4.4C16.9,7.2,17,7.3,17,7.5C17,7.8,16.8,8,16.5,8z"/>
</g>
<g id="Outline_Icons">
	<g>
		<g>
			<polyline class="st2" points="8.5,7.5 8.5,12.5 14.5,12.5 14.5,7.5 			"/>
			<polygon class="st2" points="6.5,7.5 11.5,3 16.5,7.5 			"/>
		</g>
		<rect x="10.5" y="9.5" class="st2" width="2" height="3"/>
		<path class="st2" d="M20,9c0-4.7-3.8-8.5-8.5-8.5C6.8,0.5,3,4.3,3,9c0,4.1,2.9,7.5,6.7,8.3l1.8,6.2l1.8-6.2
			C17.1,16.5,20,13.1,20,9z"/>
	</g>
</g>
</svg>
