<?xml version="1.0" encoding="utf-8"?>
<!-- Generator: Adobe Illustrator 19.2.0, SVG Export Plug-In . SVG Version: 6.00 Build 0)  -->
<svg version="1.1" id="Layer_1" xmlns="http://www.w3.org/2000/svg" xmlns:xlink="http://www.w3.org/1999/xlink" x="0px" y="0px"
	 viewBox="0 0 24 24" style="enable-background:new 0 0 24 24;" xml:space="preserve">
<style type="text/css">
	.st0{display:none;}
	.st1{display:inline;}
	.st2{fill:none;stroke:#000000;stroke-linecap:round;stroke-linejoin:round;stroke-miterlimit:10;}
</style>
<g id="Filled_Icons" class="st0">
	<path class="st1" d="M11.5,0c-4.5,0-7,2.5-7,7c0,2.5,1.8,5.1,3.5,7.7c1.6,2.3,3,4.5,3,6.3v2.5c0,0.3,0.2,0.5,0.5,0.5
		c0.3,0,0.5-0.2,0.5-0.5V21c0-1.8,1.5-4,3-6.3c1.7-2.6,3.5-5.2,3.5-7.7C18.5,2.5,16,0,11.5,0z M14,8H9C8.7,8,8.5,7.8,8.5,7.5
		C8.5,7.2,8.7,7,9,7h5c0.3,0,0.5,0.2,0.5,0.5C14.5,7.8,14.3,8,14,8z"/>
</g>
<g id="Outline_Icons">
	<g>
		<line class="st2" x1="11.5" y1="21" x2="11.5" y2="23.5"/>
		<path class="st2" d="M18,7c0,4.5-6.5,10-6.5,14c0-4-6.5-9.5-6.5-14s2.5-6.5,6.5-6.5S18,2.5,18,7z"/>
		<ellipse class="st2" cx="11.5" cy="7.5" rx="0" ry="2.5"/>
	</g>
</g>
</svg>
