<?xml version="1.0" encoding="utf-8"?>
<!-- Generator: Adobe Illustrator 19.2.0, SVG Export Plug-In . SVG Version: 6.00 Build 0)  -->
<svg version="1.1" id="Layer_1" xmlns="http://www.w3.org/2000/svg" xmlns:xlink="http://www.w3.org/1999/xlink" x="0px" y="0px"
	 viewBox="0 0 24 24" style="enable-background:new 0 0 24 24;" xml:space="preserve">
<style type="text/css">
	.st0{display:none;}
	.st1{display:inline;}
	.st2{fill:none;stroke:#000000;stroke-linecap:round;stroke-linejoin:round;stroke-miterlimit:10;}
</style>
<g id="Filled_Icons" class="st0">
	<path class="st1" d="M12,6C9.9,6,8.2,7.7,8.2,9.8c0,1.9,3.1,5.7,3.4,6.1C11.7,16,11.9,16,12,16c0.1,0,0.3-0.1,0.4-0.2
		c0.3-0.4,3.4-4.1,3.4-6.1C15.8,7.7,14.1,6,12,6z M12,11.5c-1,0-1.7-0.8-1.7-1.7c0-1,0.8-1.7,1.7-1.7c1,0,1.7,0.8,1.7,1.7
		C13.7,10.8,13,11.5,12,11.5z"/>
	<g class="st1">
		<path d="M6.8,9.6C6.6,9.4,6.3,9.4,6.1,9.6l-2.5,3C3.3,10.9,3.7,9,4.7,7.4c1.2-2,3.1-3.4,5.3-3.9c2.9-0.7,5.9,0.3,7.8,2.5
			c0.2,0.2,0.5,0.2,0.7,0c0.2-0.2,0.2-0.5,0-0.7c-2.2-2.5-5.6-3.6-8.8-2.8C7.3,3.1,5.1,4.7,3.8,6.9c-0.9,1.5-1.3,3.2-1.3,4.8
			L0.9,9.4C0.8,9.1,0.4,9.1,0.2,9.2C0,9.4-0.1,9.7,0.1,9.9l2.8,4.2c0.1,0.1,0.2,0.2,0.4,0.2c0,0,0,0,0,0c0.1,0,0.3-0.1,0.4-0.2
			l3.2-3.8C7.1,10.1,7,9.8,6.8,9.6z"/>
		<path d="M23.5,13.7l-2.8-4.2c-0.1-0.1-0.2-0.2-0.4-0.2c-0.1,0-0.2,0-0.3,0.1c0,0,0,0-0.1,0c0,0,0,0,0,0l0,0.1c0,0,0,0,0,0
			l-3.1,3.8c-0.2,0.2-0.1,0.5,0.1,0.7c0.2,0.2,0.5,0.1,0.7-0.1l2.4-2.9c0.1,3.6-2.6,7.1-6.2,8c-2.7,0.6-5.5-0.1-7.5-2.1
			c-0.2-0.2-0.5-0.2-0.7,0c-0.2,0.2-0.2,0.5,0,0.7c1.7,1.7,4,2.6,6.3,2.6c0.7,0,1.4-0.1,2.1-0.2c4-1,6.9-4.6,7-8.5l1.8,2.7
			c0.1,0.1,0.3,0.2,0.4,0.2c0.1,0,0.2,0,0.3-0.1C23.6,14.2,23.6,13.9,23.5,13.7z"/>
	</g>
</g>
<g id="Outline_Icons">
	<g>
		<g>
			<path class="st2" d="M15.3,9.7c0,1.8-3.3,5.8-3.3,5.8s-3.3-3.9-3.3-5.8c0-1.8,1.5-3.3,3.3-3.3C13.8,6.5,15.3,7.9,15.3,9.7z"/>
			<path class="st2" d="M13.2,9.7c0,0.7-0.6,1.2-1.2,1.2c-0.7,0-1.2-0.6-1.2-1.2c0-0.7,0.6-1.2,1.2-1.2C12.7,8.5,13.2,9.1,13.2,9.7z
				"/>
		</g>
		<g>
			<polyline class="st2" points="0.5,9.6 3.3,13.7 6.5,9.9 			"/>
			<polyline class="st2" points="23.1,13.9 20.3,9.7 17.1,13.6 			"/>
			<path class="st2" d="M20.2,9.8c0.8,4.4-2.3,8.7-6.5,9.7c-3,0.7-5.9-0.2-7.9-2.2"/>
			<path class="st2" d="M3.3,13.7C2,8.8,5.3,4,9.8,3c3.2-0.7,6.3,0.4,8.3,2.6"/>
		</g>
	</g>
</g>
</svg>
