<?xml version="1.0" encoding="utf-8"?>
<!-- Generator: Adobe Illustrator 19.2.0, SVG Export Plug-In . SVG Version: 6.00 Build 0)  -->
<svg version="1.1" id="Layer_1" xmlns="http://www.w3.org/2000/svg" xmlns:xlink="http://www.w3.org/1999/xlink" x="0px" y="0px"
	 viewBox="0 0 24 24" style="enable-background:new 0 0 24 24;" xml:space="preserve">
<style type="text/css">
	.st0{display:none;}
	.st1{display:inline;}
	.st2{fill:none;stroke:#000000;stroke-linecap:round;stroke-linejoin:round;stroke-miterlimit:10;}
</style>
<g id="Filled_Icons" class="st0">
	<path class="st1" d="M11.5,0c-5,0-9,4-9,9c0,4.1,2.9,7.7,6.8,8.7l1.7,5.9c0.1,0.2,0.3,0.4,0.5,0.4c0.2,0,0.4-0.1,0.5-0.4l1.7-5.9
		c4-1,6.8-4.6,6.8-8.7C20.5,4,16.5,0,11.5,0z M13.5,4C13.8,4,14,4.2,14,4.5C14,4.8,13.8,5,13.5,5C13.2,5,13,4.8,13,4.5
		C13,4.2,13.2,4,13.5,4z M12.5,3C12.8,3,13,3.2,13,3.5C13,3.8,12.8,4,12.5,4C12.2,4,12,3.8,12,3.5C12,3.2,12.2,3,12.5,3z M10.5,4
		C10.8,4,11,4.2,11,4.5C11,4.8,10.8,5,10.5,5C10.2,5,10,4.8,10,4.5C10,4.2,10.2,4,10.5,4z M15,8.5c0,1.8-1.3,3.2-3,3.4V14h1
		c0.3,0,0.5,0.2,0.5,0.5c0,0.3-0.2,0.5-0.5,0.5h-3c-0.3,0-0.5-0.2-0.5-0.5c0-0.3,0.2-0.5,0.5-0.5h1V12c-1.7-0.2-3-1.7-3-3.4v-2
		C8,6.2,8.2,6,8.5,6h6C14.8,6,15,6.2,15,6.5V8.5z"/>
</g>
<g id="Outline_Icons">
	<g>
		<line class="st2" x1="11.5" y1="11.5" x2="11.5" y2="14.5"/>
		<line class="st2" x1="10" y1="14.5" x2="13" y2="14.5"/>
		<g>
			<path d="M10.5,4C10.2,4,10,4.2,10,4.5C10,4.8,10.2,5,10.5,5C10.8,5,11,4.8,11,4.5C11,4.2,10.8,4,10.5,4L10.5,4z"/>
		</g>
		<g>
			<path d="M12.5,3C12.2,3,12,3.2,12,3.5C12,3.8,12.2,4,12.5,4C12.8,4,13,3.8,13,3.5C13,3.2,12.8,3,12.5,3L12.5,3z"/>
		</g>
		<g>
			<path d="M13.5,4C13.2,4,13,4.2,13,4.5C13,4.8,13.2,5,13.5,5C13.8,5,14,4.8,14,4.5C14,4.2,13.8,4,13.5,4L13.5,4z"/>
		</g>
		<path class="st2" d="M8.5,8.5c0,1.7,1.3,3,3,3c1.7,0,3-1.3,3-3v-2h-6V8.5z"/>
		<path class="st2" d="M20,9c0-4.7-3.8-8.5-8.5-8.5C6.8,0.5,3,4.3,3,9c0,4.1,2.9,7.5,6.7,8.3l1.8,6.2l1.8-6.2
			C17.1,16.5,20,13.1,20,9z"/>
	</g>
</g>
</svg>
