<?xml version="1.0" encoding="utf-8"?>
<!-- Generator: Adobe Illustrator 19.2.0, SVG Export Plug-In . SVG Version: 6.00 Build 0)  -->
<svg version="1.1" id="Layer_1" xmlns="http://www.w3.org/2000/svg" xmlns:xlink="http://www.w3.org/1999/xlink" x="0px" y="0px"
	 viewBox="0 0 24 24" style="enable-background:new 0 0 24 24;" xml:space="preserve">
<style type="text/css">
	.st0{display:none;}
	.st1{display:inline;}
	.st2{fill:none;stroke:#000000;stroke-linecap:round;stroke-linejoin:round;stroke-miterlimit:10;}
</style>
<g id="Filled_Icons" class="st0">
	<path class="st1" d="M11.5,0c-4.4,0-8,3.6-8,8c0,4.2,7.3,15.3,7.6,15.8c0.1,0.1,0.2,0.2,0.4,0.2s0.3-0.1,0.4-0.2
		c0.3-0.5,7.6-11.5,7.6-15.8C19.5,3.6,15.9,0,11.5,0z M14.9,11.2c0.2,0.2,0.2,0.5,0,0.7C14.8,12,14.6,12,14.5,12
		c-0.1,0-0.3,0-0.4-0.1l-2.6-2.6l-2.6,2.6C8.8,12,8.6,12,8.5,12c-0.1,0-0.3,0-0.4-0.1c-0.2-0.2-0.2-0.5,0-0.7l2.6-2.6L8.1,5.9
		C8,5.7,8,5.3,8.1,5.2C8.3,5,8.7,5,8.9,5.2l2.6,2.6l2.6-2.6c0.2-0.2,0.5-0.2,0.7,0c0.2,0.2,0.2,0.5,0,0.7l-2.6,2.6L14.9,11.2z"/>
</g>
<g id="Outline_Icons">
	<g>
		<path class="st2" d="M19,8c0,4.1-7.5,15.5-7.5,15.5S4,12.1,4,8c0-4.1,3.4-7.5,7.5-7.5C15.6,0.5,19,3.9,19,8z"/>
		<line class="st2" x1="14.5" y1="5.5" x2="8.5" y2="11.5"/>
		<line class="st2" x1="14.5" y1="11.5" x2="8.5" y2="5.5"/>
	</g>
</g>
</svg>
