<?xml version="1.0" encoding="utf-8"?>
<!-- Generator: Adobe Illustrator 19.2.0, SVG Export Plug-In . SVG Version: 6.00 Build 0)  -->
<svg version="1.1" id="Layer_1" xmlns="http://www.w3.org/2000/svg" xmlns:xlink="http://www.w3.org/1999/xlink" x="0px" y="0px"
	 viewBox="0 0 24 24" style="enable-background:new 0 0 24 24;" xml:space="preserve">
<style type="text/css">
	.st0{display:none;}
	.st1{display:inline;}
	.st2{fill:none;stroke:#000000;stroke-linecap:round;stroke-linejoin:round;stroke-miterlimit:10;}
</style>
<g id="Filled_Icons" class="st0">
	<path class="st1" d="M11.5,0C6.1,0,2,4.3,2,10c0,7.2,8.8,13.6,9.2,13.9c0.1,0.1,0.2,0.1,0.3,0.1s0.2,0,0.3-0.1
		C12.2,23.6,21,17.2,21,10C21,4.3,16.9,0,11.5,0z M16.8,7.9l-2.8,2.3l0.9,3.7c0.1,0.2,0,0.4-0.2,0.5c-0.2,0.1-0.4,0.1-0.6,0
		l-2.7-2.2l-2.7,2.2c-0.2,0.1-0.4,0.2-0.6,0C8,14.3,8,14.1,8,13.9l0.9-3.7L6.2,7.9C6,7.8,6,7.5,6,7.3C6.1,7.1,6.3,7,6.5,7h3.4
		L11,3.8c0.1-0.2,0.3-0.3,0.5-0.3c0.2,0,0.4,0.1,0.5,0.3L13.1,7h3.4c0.2,0,0.4,0.1,0.5,0.3C17,7.5,17,7.8,16.8,7.9z"/>
</g>
<g id="Outline_Icons">
	<g>
		<polygon class="st2" points="11.5,4 12.8,7.5 16.5,7.5 13.5,10 14.5,14 11.5,11.5 8.5,14 9.5,10 6.5,7.5 10.2,7.5 		"/>
		<path class="st2" d="M20.5,10c0,7-9,13.5-9,13.5s-9-6.5-9-13.5c0-5.2,3.8-9.5,9-9.5C16.7,0.5,20.5,4.8,20.5,10z"/>
	</g>
</g>
</svg>
