<?xml version="1.0" encoding="utf-8"?>
<!-- Generator: Adobe Illustrator 19.2.0, SVG Export Plug-In . SVG Version: 6.00 Build 0)  -->
<svg version="1.1" id="Layer_1" xmlns="http://www.w3.org/2000/svg" xmlns:xlink="http://www.w3.org/1999/xlink" x="0px" y="0px"
	 viewBox="0 0 24 24" style="enable-background:new 0 0 24 24;" xml:space="preserve">
<style type="text/css">
	.st0{display:none;}
	.st1{display:inline;}
	.st2{fill:none;stroke:#000000;stroke-linecap:round;stroke-linejoin:round;stroke-miterlimit:10;}
</style>
<g id="Filled_Icons" class="st0">
	<path class="st1" d="M11.5,0c-4.5,0-7,2.5-7,7c0,2.5,1.8,5.1,3.5,7.7c1.6,2.3,3,4.5,3,6.3v2.5c0,0.3,0.2,0.5,0.5,0.5
		c0.3,0,0.5-0.2,0.5-0.5V21c0-1.8,1.5-4,3-6.3c1.7-2.6,3.5-5.2,3.5-7.7C18.5,2.5,16,0,11.5,0z M13.9,9.2c0.2,0.2,0.2,0.5,0,0.7
		C13.8,10,13.6,10,13.5,10c-0.1,0-0.3,0-0.4-0.1l-1.6-1.6L9.9,9.9C9.8,10,9.6,10,9.5,10c-0.1,0-0.3,0-0.4-0.1C9,9.7,9,9.3,9.1,9.2
		l1.6-1.6L9.1,5.9C9,5.7,9,5.3,9.1,5.2C9.3,5,9.7,5,9.9,5.2l1.6,1.6l1.6-1.6c0.2-0.2,0.5-0.2,0.7,0c0.2,0.2,0.2,0.5,0,0.7l-1.6,1.6
		L13.9,9.2z"/>
</g>
<g id="Outline_Icons">
	<g>
		<line class="st2" x1="11.5" y1="21" x2="11.5" y2="23.5"/>
		<path class="st2" d="M18,7c0,4.5-6.5,10-6.5,14c0-4-6.5-9.5-6.5-14s2.5-6.5,6.5-6.5S18,2.5,18,7z"/>
		<line class="st2" x1="9.5" y1="5.5" x2="13.5" y2="9.5"/>
		<line class="st2" x1="13.5" y1="5.5" x2="9.5" y2="9.5"/>
	</g>
</g>
</svg>
