<?xml version="1.0" encoding="utf-8"?>
<!-- Generator: Adobe Illustrator 19.2.0, SVG Export Plug-In . SVG Version: 6.00 Build 0)  -->
<svg version="1.1" id="Layer_1" xmlns="http://www.w3.org/2000/svg" xmlns:xlink="http://www.w3.org/1999/xlink" x="0px" y="0px"
	 viewBox="0 0 24 24" style="enable-background:new 0 0 24 24;" xml:space="preserve">
<style type="text/css">
	.st0{display:none;}
	.st1{display:inline;}
	.st2{fill:none;stroke:#000000;stroke-linecap:round;stroke-linejoin:round;stroke-miterlimit:10;}
</style>
<g id="Filled_Icons" class="st0">
	<path class="st1" d="M11.5,0C6.1,0,2,4.3,2,10c0,7.2,8.8,13.6,9.2,13.9c0.1,0.1,0.2,0.1,0.3,0.1s0.2,0,0.3-0.1
		C12.2,23.6,21,17.2,21,10C21,4.3,16.9,0,11.5,0z M16.5,9C16.5,9,16.5,9,16.5,9H15v4.5c0,0.3-0.2,0.5-0.5,0.5H13v-3.5
		c0-0.3-0.2-0.5-0.5-0.5h-2c-0.3,0-0.5,0.2-0.5,0.5V14H8.5C8.2,14,8,13.8,8,13.5V9H6.5C6.3,9,6.1,8.9,6,8.7C6,8.5,6,8.3,6.2,8.1
		l5-4.5c0.2-0.2,0.5-0.2,0.7,0l4.9,4.4C16.9,8.2,17,8.3,17,8.5C17,8.8,16.8,9,16.5,9z"/>
</g>
<g id="Outline_Icons">
	<g>
		<path class="st2" d="M20.5,10c0,7-9,13.5-9,13.5s-9-6.5-9-13.5c0-5.2,3.8-9.5,9-9.5C16.7,0.5,20.5,4.8,20.5,10z"/>
		<g>
			<polyline class="st2" points="8.5,8.5 8.5,13.5 14.5,13.5 14.5,8.5 			"/>
			<polygon class="st2" points="6.5,8.5 11.5,4 16.5,8.5 			"/>
		</g>
		<rect x="10.5" y="10.5" class="st2" width="2" height="3"/>
	</g>
</g>
</svg>
