<?xml version="1.0" encoding="utf-8"?>
<!-- Generator: Adobe Illustrator 19.2.0, SVG Export Plug-In . SVG Version: 6.00 Build 0)  -->
<svg version="1.1" id="Layer_1" xmlns="http://www.w3.org/2000/svg" xmlns:xlink="http://www.w3.org/1999/xlink" x="0px" y="0px"
	 viewBox="0 0 24 24" style="enable-background:new 0 0 24 24;" xml:space="preserve">
<style type="text/css">
	.st0{display:none;}
	.st1{display:inline;}
	.st2{fill:none;stroke:#000000;stroke-linecap:round;stroke-linejoin:round;stroke-miterlimit:10;}
	.st3{fill:none;stroke:#000000;stroke-linejoin:round;stroke-miterlimit:10;}
</style>
<g id="Filled_Icons" class="st0">
	<g class="st1">
		<path d="M11.5,0c-5,0-9,4-9,9c0,4.1,2.9,7.7,6.8,8.7l1.7,5.9c0.1,0.2,0.3,0.4,0.5,0.4c0.2,0,0.4-0.1,0.5-0.4l1.7-5.9
			c4-1,6.8-4.6,6.8-8.7C20.5,4,16.5,0,11.5,0z M17,11.5c0,0.8-0.7,1.5-1.5,1.5h-8C6.7,13,6,12.3,6,11.5v-4C6,6.7,6.7,6,7.5,6h1.7
			l0.1-0.2C9.6,5.3,10.1,5,10.7,5h2.3c0.6,0,1.1,0.3,1.3,0.8L14.4,6h1.2C16.4,6,17,6.7,17,7.5V11.5z"/>
		<circle cx="11.5" cy="9.5" r="2"/>
	</g>
</g>
<g id="Outline_Icons">
	<g>
		<path class="st2" d="M20,9c0-4.7-3.8-8.5-8.5-8.5C6.8,0.5,3,4.3,3,9c0,4.1,2.9,7.5,6.7,8.3l1.8,6.2l1.8-6.2
			C17.1,16.5,20,13.1,20,9z"/>
		<path class="st3" d="M16.5,11.5c0,0.6-0.4,1-1,1h-8c-0.6,0-1-0.4-1-1v-4c0-0.6,0.4-1,1-1h2l0.2-0.4c0.2-0.3,0.5-0.6,0.9-0.6h2.3
			c0.4,0,0.7,0.2,0.9,0.6L14,6.5h1.5c0.6,0,1,0.4,1,1V11.5z"/>
		<circle class="st3" cx="11.5" cy="9.5" r="1.5"/>
	</g>
</g>
</svg>
