<?xml version="1.0" encoding="utf-8"?>
<!-- Generator: Adobe Illustrator 19.2.0, SVG Export Plug-In . SVG Version: 6.00 Build 0)  -->
<svg version="1.1" id="Layer_1" xmlns="http://www.w3.org/2000/svg" xmlns:xlink="http://www.w3.org/1999/xlink" x="0px" y="0px"
	 viewBox="0 0 24 24" style="enable-background:new 0 0 24 24;" xml:space="preserve">
<style type="text/css">
	.st0{display:none;}
	.st1{display:inline;}
	.st2{fill:none;stroke:#000000;stroke-linecap:round;stroke-linejoin:round;stroke-miterlimit:10;}
</style>
<g id="Filled_Icons" class="st0">
	<g class="st1">
		<path d="M12,7c1.9,0,3.5-1.6,3.5-3.5S13.9,0,12,0S8.5,1.6,8.5,3.5S10.1,7,12,7z"/>
		<path d="M10,14.5v4c0,0.3,0.2,0.5,0.5,0.5h3c0.3,0,0.5-0.2,0.5-0.5v-4c2-0.9,3-3.7,3-6C17,8.2,16.8,8,16.5,8h-9C7.2,8,7,8.2,7,8.5
			C7,10.8,8,13.6,10,14.5z"/>
		<path d="M12,20.5c-4,0-6.4-0.8-6.5-1.2c0-0.1,0.6-0.6,2.6-1c0.3,0,0.5-0.3,0.4-0.6c0-0.3-0.3-0.5-0.6-0.4c-2.3,0.4-3.4,1-3.4,1.9
			c0,1.8,4.7,2.2,7.5,2.2s7.5-0.5,7.5-2.2c0-0.9-1.1-1.5-3.4-1.9c-0.3,0-0.5,0.1-0.6,0.4c0,0.3,0.1,0.5,0.4,0.6
			c2,0.4,2.5,0.8,2.6,0.9C18.4,19.7,16,20.5,12,20.5z"/>
		<path d="M16.1,15.3c-0.3,0-0.5,0.2-0.6,0.4c0,0.3,0.2,0.5,0.4,0.6c4.6,0.6,7.1,2.1,7.1,3.3c0,1.7-4.5,3.5-11,3.5S1,21.3,1,19.6
			c0-1.2,2.4-2.7,7.1-3.3c0.3,0,0.5-0.3,0.4-0.6c0-0.3-0.3-0.5-0.6-0.4C4.1,15.8,0,17.1,0,19.5C0,21.7,4.2,24,12,24s12-2.3,12-4.5
			C24,17.1,19.9,15.8,16.1,15.3z"/>
	</g>
</g>
<g id="Outline_Icons">
	<g>
		<circle class="st2" cx="12" cy="3.5" r="3"/>
		<path class="st2" d="M16.5,8.5h-9c0,2.1,1,5,3,5.7v4.3h3v-4.3C15.5,13.5,16.5,10.6,16.5,8.5z"/>
		<path class="st2" d="M16,17.8c1.8,0.3,3,0.8,3,1.4c0,1-3.1,1.8-7,1.8s-7-0.8-7-1.8c0-0.6,1.2-1.1,3-1.4"/>
		<path class="st2" d="M16,15.7c4.4,0.6,7.5,2,7.5,3.8c0,2.2-5.1,4-11.5,4s-11.5-1.8-11.5-4c0-1.7,3.1-3.2,7.5-3.8"/>
	</g>
</g>
</svg>
