<?xml version="1.0" encoding="utf-8"?>
<!-- Generator: Adobe Illustrator 19.2.0, SVG Export Plug-In . SVG Version: 6.00 Build 0)  -->
<svg version="1.1" id="Layer_1" xmlns="http://www.w3.org/2000/svg" xmlns:xlink="http://www.w3.org/1999/xlink" x="0px" y="0px"
	 viewBox="0 0 24 24" style="enable-background:new 0 0 24 24;" xml:space="preserve">
<style type="text/css">
	.st0{display:none;}
	.st1{display:inline;}
	.st2{fill:none;stroke:#000000;stroke-linecap:round;stroke-linejoin:round;stroke-miterlimit:10;}
</style>
<g id="Filled_Icons" class="st0">
	<path class="st1" d="M12,0C7.6,0,4,3.6,4,8c0,4.2,7.3,15.3,7.6,15.8c0.1,0.1,0.2,0.2,0.4,0.2s0.3-0.1,0.4-0.2
		C12.7,23.3,20,12.2,20,8C20,3.6,16.4,0,12,0z M12,11.5c-1.9,0-3.5-1.6-3.5-3.5c0-1.9,1.6-3.5,3.5-3.5c1.9,0,3.5,1.6,3.5,3.5
		C15.5,9.9,13.9,11.5,12,11.5z"/>
</g>
<g id="Outline_Icons">
	<g>
		<path class="st2" d="M19.5,8c0,4.1-7.5,15.5-7.5,15.5S4.5,12.1,4.5,8c0-4.1,3.4-7.5,7.5-7.5C16.1,0.5,19.5,3.9,19.5,8z"/>
		<circle class="st2" cx="12" cy="8" r="3"/>
	</g>
</g>
</svg>
