<?xml version="1.0" encoding="utf-8"?>
<!-- Generator: Adobe Illustrator 19.2.0, SVG Export Plug-In . SVG Version: 6.00 Build 0)  -->
<svg version="1.1" id="Layer_1" xmlns="http://www.w3.org/2000/svg" xmlns:xlink="http://www.w3.org/1999/xlink" x="0px" y="0px"
	 viewBox="0 0 24 24" style="enable-background:new 0 0 24 24;" xml:space="preserve">
<style type="text/css">
	.st0{display:none;}
	.st1{display:inline;}
	.st2{fill:none;stroke:#000000;stroke-linecap:round;stroke-linejoin:round;stroke-miterlimit:10;}
</style>
<g id="Filled_Icons" class="st0">
	<g class="st1">
		<g>
			<path d="M7.5,5.4C8.5,4.5,9.8,4,11.2,4c3,0,5.5,2.5,5.5,5.5c0,1.4-0.5,2.7-1.4,3.7l3.3,3.3c1.2-2,2.1-4.2,2.1-6.5
				c0-5.7-4.1-10-9.5-10C8.7,0,6.4,1,4.7,2.6L7.5,5.4z"/>
			<path d="M12.7,14.8c-0.5,0.1-0.9,0.2-1.5,0.2c-3,0-5.5-2.5-5.5-5.5c0-0.5,0.1-1,0.2-1.5l-3-3c-0.8,1.4-1.2,3.1-1.2,5
				c0,7.2,8.8,13.6,9.2,13.9C11,24,11.1,24,11.2,24c0.1,0,0.2,0,0.3-0.1c0.2-0.1,2.9-2.1,5.3-5L12.7,14.8z"/>
		</g>
		<g>
			<path d="M22.5,23c-0.1,0-0.3,0-0.4-0.1l-21-21C1,1.7,1,1.3,1.1,1.2C1.3,1,1.7,1,1.9,1.2l21,21c0.2,0.2,0.2,0.5,0,0.7
				C22.8,23,22.6,23,22.5,23z"/>
		</g>
	</g>
</g>
<g id="Outline_Icons">
	<g>
		<line class="st2" x1="0.5" y1="1.3" x2="21.9" y2="22.7"/>
		<path class="st2" d="M5.3,2.8c1.6-1.4,3.6-2.3,6-2.3c5.2,0,9,4.3,9,9.5c0,2.1-0.8,4.2-1.9,6"/>
		<path class="st2" d="M15.2,19.9c-2.1,2.2-4,3.6-4,3.6s-9-6.5-9-13.5c0-1.1,0.2-2.1,0.4-3"/>
		<path class="st2" d="M8.2,5.5c0.8-0.6,1.9-1,3-1c2.8,0,5,2.2,5,5c0,1.3-0.5,2.6-1.4,3.5"/>
		<path class="st2" d="M11.2,14.5c-2.8,0-5-2.2-5-5"/>
	</g>
</g>
</svg>
