<?xml version="1.0" encoding="utf-8"?>
<!-- Generator: Adobe Illustrator 19.2.0, SVG Export Plug-In . SVG Version: 6.00 Build 0)  -->
<svg version="1.1" id="Layer_1" xmlns="http://www.w3.org/2000/svg" xmlns:xlink="http://www.w3.org/1999/xlink" x="0px" y="0px"
	 viewBox="0 0 24 24" style="enable-background:new 0 0 24 24;" xml:space="preserve">
<style type="text/css">
	.st0{display:none;}
	.st1{display:inline;}
	.st2{fill:none;stroke:#000000;stroke-linecap:round;stroke-linejoin:round;stroke-miterlimit:10;}
	.st3{fill:none;stroke:#000000;stroke-linejoin:round;stroke-miterlimit:10;}
</style>
<g id="Filled_Icons" class="st0">
	<path class="st1" d="M11.5,0C6.1,0,2,4.3,2,10c0,7.2,8.8,13.6,9.2,13.9c0.1,0.1,0.2,0.1,0.3,0.1s0.2,0,0.3-0.1
		C12.2,23.6,21,17.2,21,10C21,4.3,16.9,0,11.5,0z M12.4,3.1c2.3,0.3,4.2,1.8,4.9,4h-3c-0.3-1.4-1-2.7-2.1-3.8
		C12.3,3.2,12.3,3.1,12.4,3.1z M13.4,10H9.9C9.7,9.3,9.7,8.7,9.8,8h3.7C13.6,8.7,13.5,9.3,13.4,10z M11.6,4c0.8,0.9,1.4,1.9,1.7,3
		H10C10.3,5.9,10.8,4.9,11.6,4z M10.9,3.1c0,0.1,0.1,0.1,0.1,0.2C9.9,4.4,9.3,5.6,8.9,7h-3C6.6,4.9,8.5,3.3,10.9,3.1z M5.6,8.9
		c0-0.3,0-0.6,0.1-0.9h3.1c-0.1,0.7,0,1.3,0.1,2H5.7C5.7,9.6,5.6,9.3,5.6,8.9z M10.9,15C8.6,14.7,6.8,13.1,6,11h3.1
		c0.4,1.3,1,2.5,1.9,3.8C11,14.9,10.9,14.9,10.9,15z M11.6,14c-0.7-1-1.2-2-1.5-3h3.1C12.8,12,12.3,13,11.6,14z M12.4,15
		c0,0-0.1-0.1-0.1-0.1c0,0,0,0,0,0c0.9-1.2,1.6-2.5,1.9-3.8h3.1C16.5,13.1,14.6,14.7,12.4,15z M17.5,10h-3.1c0.1-0.7,0.1-1.3,0.1-2
		h3.1c0.1,0.3,0.1,0.6,0.1,1C17.6,9.3,17.6,9.7,17.5,10z"/>
</g>
<g id="Outline_Icons">
	<g>
		<path class="st2" d="M20.5,10c0,7-9,13.5-9,13.5s-9-6.5-9-13.5c0-5.2,3.8-9.5,9-9.5C16.7,0.5,20.5,4.8,20.5,10z"/>
		<g>
			<path class="st3" d="M17.1,9c0,3-2.5,5.5-5.5,5.5c-3,0-5.5-2.6-5.5-5.6c0-3,2.3-5.3,5.3-5.4c0.1,0,0.2,0,0.2,0
				C14.7,3.5,17.1,5.9,17.1,9z"/>
			<path class="st3" d="M11.4,3.5c-2.9,3.1-2.9,7.2,0,11"/>
			<path class="st3" d="M11.9,3.5c2.9,3.1,2.9,7.2,0,11"/>
			<line class="st3" x1="6.3" y1="7.5" x2="17" y2="7.5"/>
			<line class="st3" x1="6.4" y1="10.5" x2="16.9" y2="10.5"/>
		</g>
	</g>
</g>
</svg>
