<?xml version="1.0" encoding="utf-8"?>
<!-- Generator: Adobe Illustrator 19.2.0, SVG Export Plug-In . SVG Version: 6.00 Build 0)  -->
<svg version="1.1" id="Layer_1" xmlns="http://www.w3.org/2000/svg" xmlns:xlink="http://www.w3.org/1999/xlink" x="0px" y="0px"
	 viewBox="0 0 24 24" style="enable-background:new 0 0 24 24;" xml:space="preserve">
<style type="text/css">
	.st0{display:none;}
	.st1{display:inline;}
	.st2{fill:none;stroke:#000000;stroke-linecap:round;stroke-linejoin:round;stroke-miterlimit:10;}
</style>
<g id="Filled_Icons" class="st0">
	<g class="st1">
		<path d="M11.5,0C6.1,0,2,4.3,2,10c0,7.2,8.8,13.6,9.2,13.9c0.1,0.1,0.2,0.1,0.3,0.1s0.2,0,0.3-0.1C12.2,23.6,21,17.2,21,10
			C21,4.3,16.9,0,11.5,0z M17.5,10h-1.6c-0.2,2.1-1.9,3.7-3.9,3.9v1.6c0,0.3-0.2,0.5-0.5,0.5c-0.3,0-0.5-0.2-0.5-0.5V14
			c-2.1-0.2-3.7-1.9-3.9-3.9H5.5C5.2,10,5,9.8,5,9.5C5,9.2,5.2,9,5.5,9h1.6C7.3,6.9,8.9,5.3,11,5.1V3.5C11,3.2,11.2,3,11.5,3
			C11.8,3,12,3.2,12,3.5v1.6c2.1,0.2,3.7,1.9,3.9,3.9h1.6C17.8,9,18,9.2,18,9.5C18,9.8,17.8,10,17.5,10z"/>
		<path d="M13.5,9h1.4c-0.2-1.5-1.4-2.7-2.9-2.9v1.4C12,7.8,11.8,8,11.5,8C11.2,8,11,7.8,11,7.5V6.1C9.5,6.3,8.3,7.5,8.1,9h1.4
			C9.8,9,10,9.2,10,9.5C10,9.8,9.8,10,9.5,10H8.1c0.2,1.5,1.4,2.7,2.9,2.9v-1.4c0-0.3,0.2-0.5,0.5-0.5c0.3,0,0.5,0.2,0.5,0.5V13
			c1.5-0.2,2.7-1.4,2.9-2.9h-1.4C13.2,10,13,9.8,13,9.5C13,9.2,13.2,9,13.5,9z"/>
	</g>
</g>
<g id="Outline_Icons">
	<g>
		<path class="st2" d="M20.5,10c0,7-9,13.5-9,13.5s-9-6.5-9-13.5c0-5.2,3.8-9.5,9-9.5C16.7,0.5,20.5,4.8,20.5,10z"/>
		<circle class="st2" cx="11.5" cy="9.5" r="4"/>
		<line class="st2" x1="11.5" y1="7.5" x2="11.5" y2="3.5"/>
		<line class="st2" x1="13.5" y1="9.5" x2="17.5" y2="9.5"/>
		<line class="st2" x1="11.5" y1="11.5" x2="11.5" y2="15.5"/>
		<line class="st2" x1="9.5" y1="9.5" x2="5.5" y2="9.5"/>
	</g>
</g>
</svg>
