<?xml version="1.0" encoding="utf-8"?>
<!-- Generator: Adobe Illustrator 19.2.0, SVG Export Plug-In . SVG Version: 6.00 Build 0)  -->
<svg version="1.1" id="Layer_1" xmlns="http://www.w3.org/2000/svg" xmlns:xlink="http://www.w3.org/1999/xlink" x="0px" y="0px"
	 viewBox="0 0 24 24" style="enable-background:new 0 0 24 24;" xml:space="preserve">
<style type="text/css">
	.st0{display:none;}
	.st1{display:inline;}
	.st2{fill:none;stroke:#000000;stroke-linecap:round;stroke-linejoin:round;stroke-miterlimit:10;}
</style>
<g id="Filled_Icons" class="st0">
	<g class="st1">
		<circle cx="13" cy="7" r="1"/>
		<circle cx="10" cy="7" r="1"/>
		<path d="M11.5,0c-5,0-9,4-9,9c0,4.1,2.9,7.7,6.8,8.7l1.7,5.9c0.1,0.2,0.3,0.4,0.5,0.4c0.2,0,0.4-0.1,0.5-0.4l1.7-5.9
			c4-1,6.8-4.6,6.8-8.7C20.5,4,16.5,0,11.5,0z M16,9.5c0,0.3-0.2,0.5-0.5,0.5H15v1.5c0,0.3-0.2,0.5-0.5,0.5H13v-2
			c0-0.3-0.2-0.5-0.5-0.5C12.2,9.5,12,9.7,12,10v2h-1v-2c0-0.3-0.2-0.5-0.5-0.5C10.2,9.5,10,9.7,10,10v2H8.5C8.2,12,8,11.8,8,11.5
			V10H7.5C7.2,10,7,9.8,7,9.5v-3C7,5.1,8.1,4,9.5,4h4C14.9,4,16,5.1,16,6.5V9.5z"/>
	</g>
</g>
<g id="Outline_Icons">
	<g>
		<path class="st2" d="M14.5,11.5h-6v-2h-1v-3c0-1.1,0.9-2,2-2h4c1.1,0,2,0.9,2,2v3h-1V11.5z"/>
		<line class="st2" x1="10.5" y1="11.5" x2="10.5" y2="9"/>
		<line class="st2" x1="12.5" y1="11.5" x2="12.5" y2="9"/>
		<circle class="st2" cx="10" cy="7" r="0.5"/>
		<circle class="st2" cx="13" cy="7" r="0.5"/>
		<path class="st2" d="M20,9c0-4.7-3.8-8.5-8.5-8.5C6.8,0.5,3,4.3,3,9c0,4.1,2.9,7.5,6.7,8.3l1.8,6.2l1.8-6.2
			C17.1,16.5,20,13.1,20,9z"/>
	</g>
</g>
</svg>
