<?xml version="1.0" encoding="utf-8"?>
<!-- Generator: Adobe Illustrator 19.2.0, SVG Export Plug-In . SVG Version: 6.00 Build 0)  -->
<svg version="1.1" id="Layer_1" xmlns="http://www.w3.org/2000/svg" xmlns:xlink="http://www.w3.org/1999/xlink" x="0px" y="0px"
	 viewBox="0 0 24 24" style="enable-background:new 0 0 24 24;" xml:space="preserve">
<style type="text/css">
	.st0{display:none;}
	.st1{display:inline;}
	.st2{fill:none;stroke:#000000;stroke-linecap:round;stroke-linejoin:round;stroke-miterlimit:10;}
</style>
<g id="Filled_Icons" class="st0">
	<path class="st1" d="M11.5,0c-4.4,0-8,3.6-8,8c0,4.2,7.3,15.3,7.6,15.8c0.1,0.1,0.2,0.2,0.4,0.2s0.3-0.1,0.4-0.2
		c0.3-0.5,7.6-11.5,7.6-15.8C19.5,3.6,15.9,0,11.5,0z M15.8,6.9l-2.2,1.8l0.9,2.7c0.1,0.2,0,0.4-0.2,0.6C14.2,12,14.1,12,14,12
		c-0.1,0-0.2,0-0.3-0.1l-2.2-1.8l-2.2,1.8c-0.2,0.1-0.4,0.1-0.6,0c-0.2-0.1-0.3-0.4-0.2-0.6l0.9-2.7L7.2,6.9C7,6.8,7,6.5,7,6.3
		C7.1,6.1,7.3,6,7.5,6h2.7L11,3.8c0.1-0.2,0.3-0.3,0.5-0.3c0.2,0,0.4,0.1,0.5,0.3L12.8,6h2.7c0.2,0,0.4,0.1,0.5,0.3
		C16,6.5,16,6.8,15.8,6.9z"/>
</g>
<g id="Outline_Icons">
	<g>
		<path class="st2" d="M19,8c0,4.1-7.5,15.5-7.5,15.5S4,12.1,4,8c0-4.1,3.4-7.5,7.5-7.5C15.6,0.5,19,3.9,19,8z"/>
		<polygon class="st2" points="11.5,4 12.5,6.5 15.5,6.5 13,8.5 14,11.5 11.5,9.5 9,11.5 10,8.5 7.5,6.5 10.5,6.5 		"/>
	</g>
</g>
</svg>
