<?xml version="1.0" encoding="utf-8"?>
<!-- Generator: Adobe Illustrator 19.2.0, SVG Export Plug-In . SVG Version: 6.00 Build 0)  -->
<svg version="1.1" id="Layer_1" xmlns="http://www.w3.org/2000/svg" xmlns:xlink="http://www.w3.org/1999/xlink" x="0px" y="0px"
	 viewBox="0 0 24 24" style="enable-background:new 0 0 24 24;" xml:space="preserve">
<style type="text/css">
	.st0{display:none;}
	.st1{display:inline;}
	.st2{fill:none;stroke:#000000;stroke-linecap:round;stroke-linejoin:round;stroke-miterlimit:10;}
</style>
<g id="Filled_Icons" class="st0">
	<path class="st1" d="M11.5,3C9,3,7,5,7,7.5c0,2.3,1.8,4.2,4,4.5v8.5c0,0.3,0.2,0.5,0.5,0.5c0.3,0,0.5-0.2,0.5-0.5V12
		c2.2-0.2,4-2.2,4-4.5C16,5,14,3,11.5,3z M13.5,8C13.2,8,13,7.8,13,7.5C13,6.7,12.3,6,11.5,6C11.2,6,11,5.8,11,5.5
		C11,5.2,11.2,5,11.5,5C12.9,5,14,6.1,14,7.5C14,7.8,13.8,8,13.5,8z"/>
</g>
<g id="Outline_Icons">
	<g>
		<circle class="st2" cx="11.5" cy="7.5" r="4"/>
		<line class="st2" x1="11.5" y1="11.5" x2="11.5" y2="20.5"/>
		<path class="st2" d="M11.5,5.5c1.1,0,2,0.9,2,2"/>
	</g>
</g>
</svg>
