<?xml version="1.0" encoding="utf-8"?>
<!-- Generator: Adobe Illustrator 19.2.0, SVG Export Plug-In . SVG Version: 6.00 Build 0)  -->
<svg version="1.1" id="Layer_1" xmlns="http://www.w3.org/2000/svg" xmlns:xlink="http://www.w3.org/1999/xlink" x="0px" y="0px"
	 viewBox="0 0 24 24" style="enable-background:new 0 0 24 24;" xml:space="preserve">
<style type="text/css">
	.st0{display:none;}
	.st1{display:inline;}
	.st2{fill:none;stroke:#000000;stroke-linecap:round;stroke-linejoin:round;stroke-miterlimit:10;}
</style>
<g id="Filled_Icons" class="st0">
	<path class="st1" d="M22.8,1.8c-1-1.2-2.5-1.8-4.3-1.8c-1.8,0-3.3,0.7-4.3,1.9c-0.8,1-1.2,2.3-1.2,3.7c1.6,0.2,3.1,0.9,4.1,2.1
		c1.2,1.4,1.7,3.3,1.3,5.4c-0.1,0.6-0.3,1.2-0.7,1.9c0.2,0.4,0.3,0.8,0.3,1.2v1.3c0,0.3,0.2,0.5,0.5,0.5c0.3,0,0.5-0.2,0.5-0.5v-1.3
		c0-1.3,1.3-3.2,2.5-5.1c1.1-1.7,2.2-3.4,2.4-4.7C24.2,4.6,23.8,3,22.8,1.8z M18.5,7.2c-1.1,0-2-0.9-2-2c0-1.1,0.9-2,2-2
		c1.1,0,2,0.9,2,2S19.6,7.2,18.5,7.2z"/>
	<path class="st1" d="M11,5.6c0.1-1.4-0.3-2.8-1.2-3.8C8.8,0.6,7.3,0,5.5,0C3.7,0,2.2,0.7,1.2,1.9c-1,1.2-1.4,2.8-1.1,4.5
		c0.3,1.6,1.5,3.3,2.6,5C3.8,13.1,5,14.9,5,16.1v1.3C5,17.7,5.2,18,5.5,18C5.8,18,6,17.7,6,17.5v-1.3c0-0.3,0.1-0.7,0.2-1.1
		c-0.3-0.6-0.5-1.3-0.6-1.9c-0.4-2,0.1-3.9,1.3-5.3C7.9,6.5,9.3,5.8,11,5.6z M3.5,5.2c0-1.1,0.9-2,2-2c1.1,0,2,0.9,2,2
		c0,1.1-0.9,2-2,2C4.4,7.2,3.5,6.3,3.5,5.2z"/>
	<path class="st1" d="M16.3,8.3c-1-1.2-2.5-1.8-4.3-1.8c-1.8,0-3.3,0.7-4.3,1.9c-1,1.2-1.4,2.8-1.1,4.5c0.3,1.6,1.5,3.3,2.6,5
		c1.1,1.7,2.3,3.5,2.3,4.7v0.9c0,0.3,0.2,0.5,0.5,0.5c0.3,0,0.5-0.2,0.5-0.5v-0.9c0-1.3,1.3-3.2,2.5-5.1c1.1-1.7,2.2-3.4,2.4-4.7
		C17.7,11.1,17.3,9.5,16.3,8.3z M12,14c-1.2,0-2.2-1-2.2-2.2c0-1.2,1-2.2,2.2-2.2c1.2,0,2.2,1,2.2,2.2C14.2,12.9,13.2,14,12,14z"/>
</g>
<g id="Outline_Icons">
	<g>
		<g>
			<line class="st2" x1="12.5" y1="22.1" x2="12.5" y2="23.5"/>
			<path class="st2" d="M17.4,12.3c-0.4,2.6-4.9,7.1-4.9,9.8c0-2.7-4.4-6.8-4.9-9.8C7,9.2,8.9,6.5,12.5,6.5
				C16.1,6.5,17.9,9.2,17.4,12.3z"/>
			<circle class="st2" cx="12.5" cy="11.2" r="2.2"/>
		</g>
		<g>
			<line class="st2" x1="18.5" y1="16.1" x2="18.5" y2="17.5"/>
			<path class="st2" d="M13.7,6.6c0-0.1-0.1-0.2-0.1-0.3c-0.6-3.1,1.3-5.8,4.9-5.8c3.6,0,5.4,2.7,4.9,5.8c-0.4,2.6-4.9,7.1-4.9,9.8
				c0-0.9-0.5-2-1.2-3.2"/>
			<circle class="st2" cx="18.5" cy="5.2" r="2.2"/>
		</g>
		<g>
			<line class="st2" x1="5.5" y1="16.1" x2="5.5" y2="17.5"/>
			<path class="st2" d="M7.5,11.6c-1.1,1.7-2,3.3-2,4.5c0-2.7-4.4-6.8-4.9-9.8C0,3.2,1.9,0.5,5.5,0.5c3.6,0,5.4,2.7,4.9,5.8
				c0,0.2-0.1,0.4-0.2,0.6"/>
			<circle class="st2" cx="5.5" cy="5.2" r="2.2"/>
		</g>
	</g>
</g>
</svg>
