<?xml version="1.0" encoding="utf-8"?>
<!-- Generator: Adobe Illustrator 19.2.0, SVG Export Plug-In . SVG Version: 6.00 Build 0)  -->
<svg version="1.1" id="Outline_Icons" xmlns="http://www.w3.org/2000/svg" xmlns:xlink="http://www.w3.org/1999/xlink" x="0px"
	 y="0px" viewBox="0 0 24 24" style="enable-background:new 0 0 24 24;" xml:space="preserve">
<style type="text/css">
	.st0{fill:none;stroke:#000000;stroke-linecap:round;stroke-linejoin:round;stroke-miterlimit:10;}
	.st1{fill:none;stroke:#000000;stroke-linejoin:round;stroke-miterlimit:10;}
</style>
<g>
	<line class="st0" x1="0.5" y1="17.5" x2="12.5" y2="5.5"/>
	<line class="st0" x1="8.5" y1="9.5" x2="16.5" y2="17.4"/>
	<g>
		<path class="st0" d="M20.5,12v7.9c0,0.9-0.7,1.6-1.5,1.6H2c-0.8,0-1.5-0.7-1.5-1.6V7.1c0-0.9,0.7-1.6,1.5-1.6h10.5"/>
		<line class="st0" x1="4" y1="23.5" x2="17" y2="23.5"/>
		<line class="st0" x1="10.5" y1="21.5" x2="10.5" y2="23.5"/>
		<circle class="st1" cx="10.5" cy="19.5" r="0.5"/>
		<line class="st1" x1="0.5" y1="17.5" x2="20.5" y2="17.5"/>
	</g>
	<g>
		<path class="st0" d="M22.5,4.5c0,2.2-4,7-4,7s-4-4.8-4-7c0-2.2,1.8-4,4-4C20.7,0.5,22.5,2.3,22.5,4.5z"/>
		<circle class="st0" cx="18.5" cy="4.5" r="1.5"/>
	</g>
</g>
</svg>
