<?xml version="1.0" encoding="utf-8"?>
<!-- Generator: Adobe Illustrator 19.2.0, SVG Export Plug-In . SVG Version: 6.00 Build 0)  -->
<svg version="1.1" id="Layer_1" xmlns="http://www.w3.org/2000/svg" xmlns:xlink="http://www.w3.org/1999/xlink" x="0px" y="0px"
	 viewBox="0 0 24 24" style="enable-background:new 0 0 24 24;" xml:space="preserve">
<style type="text/css">
	.st0{display:none;}
	.st1{display:inline;}
	.st2{fill:none;stroke:#000000;stroke-linecap:round;stroke-linejoin:round;stroke-miterlimit:10;}
</style>
<g id="Filled_Icons" class="st0">
	<path class="st1" d="M11.5,0c-5,0-9,4-9,9c0,4.1,2.9,7.7,6.8,8.7l1.7,5.9c0.1,0.2,0.3,0.4,0.5,0.4c0.2,0,0.4-0.1,0.5-0.4l1.7-5.9
		c4-1,6.8-4.6,6.8-8.7C20.5,4,16.5,0,11.5,0z M14.9,9.8c-0.1,0.2-0.4,0.3-0.7,0.2l-0.5-0.3v3.8c0,0.3-0.2,0.5-0.5,0.5h-4
		c-0.3,0-0.5-0.2-0.5-0.5V9.6L8.2,9.9C8.2,10,8.1,10,8,10c-0.2,0-0.3-0.1-0.4-0.3c-0.1-0.2,0-0.5,0.2-0.7l3-1.7V5H9.3
		C9,5,8.8,4.8,8.8,4.5C8.8,4.2,9,4,9.3,4h1.5V2.5C10.8,2.2,11,2,11.3,2c0.3,0,0.5,0.2,0.5,0.5V4h1.5c0.3,0,0.5,0.2,0.5,0.5
		c0,0.3-0.2,0.5-0.5,0.5h-1.5v2.4l3,1.7C15,9.2,15.1,9.5,14.9,9.8z"/>
</g>
<g id="Outline_Icons">
	<g>
		<path class="st2" d="M20,9c0-4.7-3.8-8.5-8.5-8.5C6.8,0.5,3,4.3,3,9c0,4.1,2.9,7.5,6.7,8.3l1.8,6.2l1.8-6.2
			C17.1,16.5,20,13.1,20,9z"/>
		<polyline class="st2" points="9.5,8.8 9.5,13.5 13.5,13.5 13.5,8.8 		"/>
		<line class="st2" x1="11.5" y1="2.5" x2="11.5" y2="7.6"/>
		<line class="st2" x1="13.5" y1="4.5" x2="9.5" y2="4.5"/>
		<polyline class="st2" points="8.2,9.5 11.5,7.6 14.7,9.5 		"/>
	</g>
</g>
</svg>
