<?xml version="1.0" encoding="utf-8"?>
<!-- Generator: Adobe Illustrator 19.2.0, SVG Export Plug-In . SVG Version: 6.00 Build 0)  -->
<svg version="1.1" id="Layer_1" xmlns="http://www.w3.org/2000/svg" xmlns:xlink="http://www.w3.org/1999/xlink" x="0px" y="0px"
	 viewBox="0 0 24 24" style="enable-background:new 0 0 24 24;" xml:space="preserve">
<style type="text/css">
	.st0{display:none;}
	.st1{display:inline;}
	.st2{fill:none;stroke:#000000;stroke-linecap:round;stroke-linejoin:round;stroke-miterlimit:10;}
</style>
<g id="Filled_Icons" class="st0">
	<path class="st1" d="M11.5,0C6.1,0,2,4.3,2,10c0,7.2,8.8,13.6,9.2,13.9c0.1,0.1,0.2,0.1,0.3,0.1s0.2,0,0.3-0.1
		C12.2,23.6,21,17.2,21,10C21,4.3,16.9,0,11.5,0z M8.5,5.5l1.6-0.8c0.2-0.1,0.3-0.1,0.5,0l2,1.2l-3,1.2L8.5,6.3
		C8.3,6.2,8.3,6.1,8.3,5.9C8.3,5.7,8.4,5.5,8.5,5.5z M17.5,8.3l-2.6,1.1l-2.1,3.9c0,0.1-0.1,0.2-0.2,0.2l-1.8,0.9
		c-0.1,0-0.2,0.1-0.2,0.1c-0.1,0-0.2,0-0.3-0.1c-0.2-0.1-0.2-0.4-0.1-0.6l1.1-2.9l-2.5,1c-0.1,0.1-0.3,0-0.5,0L4.6,9.5
		C4.5,9.4,4.4,9.2,4.4,9.1c0-0.2,0.1-0.3,0.2-0.4l1.6-0.9c0.1-0.1,0.3-0.1,0.5,0l1.9,0.9l7.7-3.1c0.7-0.3,1.6,0.1,1.9,0.8
		c0.2,0.4,0.2,0.8,0,1.2C18.1,7.8,17.9,8.1,17.5,8.3z"/>
</g>
<g id="Outline_Icons">
	<g>
		<g>
			<path class="st2" d="M8.6,9.1L6.5,8.2L4.9,9.1l3.6,2.3l3.6-1.4l-1.5,4l1.8-0.9l2.2-4l2.7-1.2c0.2-0.1,0.4-0.3,0.5-0.6
				c0.1-0.3,0.1-0.5,0-0.8C17.6,6,17,5.7,16.5,5.9L8.6,9.1z"/>
			<polyline class="st2" points="13.6,7.1 10.4,5.1 8.8,5.9 11.7,7.8 			"/>
		</g>
		<path class="st2" d="M20.5,10c0,7-9,13.5-9,13.5s-9-6.5-9-13.5c0-5.2,3.8-9.5,9-9.5C16.7,0.5,20.5,4.8,20.5,10z"/>
	</g>
</g>
</svg>
