<?xml version="1.0" encoding="utf-8"?>
<!-- Generator: Adobe Illustrator 19.2.0, SVG Export Plug-In . SVG Version: 6.00 Build 0)  -->
<svg version="1.1" id="Layer_1" xmlns="http://www.w3.org/2000/svg" xmlns:xlink="http://www.w3.org/1999/xlink" x="0px" y="0px"
	 viewBox="0 0 24 24" style="enable-background:new 0 0 24 24;" xml:space="preserve">
<style type="text/css">
	.st0{display:none;}
	.st1{display:inline;}
	.st2{fill:none;stroke:#000000;stroke-linecap:round;stroke-linejoin:round;stroke-miterlimit:10;}
</style>
<g id="Filled_Icons" class="st0">
	<path class="st1" d="M11.5,0c-5,0-9,4-9,9c0,4.1,2.9,7.7,6.8,8.7l1.7,5.9c0.1,0.2,0.3,0.4,0.5,0.4c0.2,0,0.4-0.1,0.5-0.4l1.7-5.9
		c4-1,6.8-4.6,6.8-8.7C20.5,4,16.5,0,11.5,0z M11,8v6.8l-4.8-2.9C6.1,11.8,6,11.7,6,11.5V5.8c0-0.2,0.1-0.3,0.3-0.4
		c0.2-0.1,0.4-0.1,0.5,0L11,8C11,7.9,11,8,11,8z M11.8,6.7c-0.1,0.1-0.2,0.1-0.3,0.1c-0.1,0-0.2,0-0.3-0.1l-3-2C8,4.5,7.9,4.2,8.1,4
		c0.2-0.2,0.5-0.3,0.7-0.1l2.7,1.9l2.7-1.9c0.2-0.2,0.5-0.1,0.7,0.1c0.2,0.2,0.1,0.5-0.1,0.7L11.8,6.7z M17,11.5
		c0,0.2-0.1,0.3-0.2,0.4L12,14.8V8c0,0,0-0.1,0-0.1l4.3-2.6c0.2-0.1,0.3-0.1,0.5,0C16.9,5.4,17,5.6,17,5.8V11.5z"/>
</g>
<g id="Outline_Icons">
	<g>
		<g>
			<polygon class="st2" points="11.5,8.8 16.5,5.8 16.5,11.5 11.5,14.5 6.5,11.5 6.5,5.8 			"/>
			<polyline class="st2" points="14.5,4.3 11.5,6.3 8.5,4.3 			"/>
			<line class="st2" x1="11.5" y1="8.8" x2="11.5" y2="14.5"/>
		</g>
		<path class="st2" d="M20,9c0-4.7-3.8-8.5-8.5-8.5C6.8,0.5,3,4.3,3,9c0,4.1,2.9,7.5,6.7,8.3l1.8,6.2l1.8-6.2
			C17.1,16.5,20,13.1,20,9z"/>
	</g>
</g>
</svg>
