<?xml version="1.0" encoding="utf-8"?>
<!-- Generator: Adobe Illustrator 19.2.0, SVG Export Plug-In . SVG Version: 6.00 Build 0)  -->
<svg version="1.1" id="Layer_1" xmlns="http://www.w3.org/2000/svg" xmlns:xlink="http://www.w3.org/1999/xlink" x="0px" y="0px"
	 viewBox="0 0 24 24" style="enable-background:new 0 0 24 24;" xml:space="preserve">
<style type="text/css">
	.st0{display:none;}
	.st1{display:inline;}
	.st2{fill:none;stroke:#000000;stroke-linecap:round;stroke-linejoin:round;stroke-miterlimit:10;}
</style>
<g id="Filled_Icons" class="st0">
	<path class="st1" d="M11.5,0C6.1,0,2,4.3,2,10c0,7.2,8.8,13.6,9.2,13.9c0.1,0.1,0.2,0.1,0.3,0.1s0.2,0,0.3-0.1
		C12.2,23.6,21,17.2,21,10C21,4.3,16.9,0,11.5,0z M11,15.8l-4.8-2.9C6.1,12.8,6,12.7,6,12.5V6.8c0-0.2,0.1-0.3,0.3-0.4
		c0.2-0.1,0.4-0.1,0.5,0L11,8.9V15.8z M11.8,7.7c-0.1,0.1-0.2,0.1-0.3,0.1c-0.1,0-0.2,0-0.3-0.1l-3-2C8,5.5,7.9,5.2,8.1,5
		c0.2-0.2,0.5-0.3,0.7-0.1l2.7,1.9l2.7-1.9c0.2-0.2,0.5-0.1,0.7,0.1c0.2,0.2,0.1,0.5-0.1,0.7L11.8,7.7z M17,12.5
		c0,0.2-0.1,0.3-0.2,0.4L12,15.8V8.9l4.2-2.5c0.2-0.1,0.3-0.1,0.5,0C16.9,6.4,17,6.6,17,6.8V12.5z"/>
</g>
<g id="Outline_Icons">
	<g>
		<path class="st2" d="M20.5,10c0,7-9,13.5-9,13.5s-9-6.5-9-13.5c0-5.2,3.8-9.5,9-9.5C16.7,0.5,20.5,4.8,20.5,10z"/>
		<g>
			<polygon class="st2" points="11.5,9.8 16.5,6.8 16.5,12.5 11.5,15.5 6.5,12.5 6.5,6.8 			"/>
			<polyline class="st2" points="14.5,5.3 11.5,7.3 8.5,5.3 			"/>
			<line class="st2" x1="11.5" y1="9.8" x2="11.5" y2="15.5"/>
		</g>
	</g>
</g>
</svg>
