<?xml version="1.0" encoding="utf-8"?>
<!-- Generator: Adobe Illustrator 19.2.0, SVG Export Plug-In . SVG Version: 6.00 Build 0)  -->
<svg version="1.1" id="Layer_1" xmlns="http://www.w3.org/2000/svg" xmlns:xlink="http://www.w3.org/1999/xlink" x="0px" y="0px"
	 viewBox="0 0 24 24" style="enable-background:new 0 0 24 24;" xml:space="preserve">
<style type="text/css">
	.st0{display:none;}
	.st1{display:inline;}
	.st2{fill:none;stroke:#000000;stroke-linecap:round;stroke-linejoin:round;stroke-miterlimit:10;}
</style>
<g id="Filled_Icons" class="st0">
	<g class="st1">
		<path d="M11.5,0c-5,0-9,4-9,9c0,4.1,2.9,7.7,6.8,8.7l1.7,5.9c0.1,0.2,0.3,0.4,0.5,0.4c0.2,0,0.4-0.1,0.5-0.4l1.7-5.9
			c4-1,6.8-4.6,6.8-8.7C20.5,4,16.5,0,11.5,0z M7,4.5C7,3.7,7.7,3,8.5,3h6C15.3,3,16,3.7,16,4.5V5H7V4.5z M7,6h9v1H7V6z M16.3,14.4
			c-0.1,0.1-0.2,0.1-0.3,0.1c-0.1,0-0.3-0.1-0.4-0.2L13.8,12H9.2l-1.8,2.3c-0.1,0.1-0.2,0.2-0.4,0.2c-0.1,0-0.2,0-0.3-0.1
			c-0.2-0.2-0.3-0.5-0.1-0.7L8,12H7.5C7.2,12,7,11.8,7,11.5V8h9v3.5c0,0.3-0.2,0.5-0.5,0.5h-0.4l1.3,1.7
			C16.6,13.9,16.5,14.2,16.3,14.4z"/>
		<circle cx="13.5" cy="9.5" r="0.5"/>
		<circle cx="9.5" cy="9.5" r="0.5"/>
	</g>
</g>
<g id="Outline_Icons">
	<g>
		<path class="st2" d="M15.5,11.5h-8v-7c0-0.6,0.4-1,1-1h6c0.6,0,1,0.4,1,1V11.5z"/>
		<rect x="7.5" y="5.5" class="st2" width="8" height="2"/>
		<g>
			<path d="M9.5,9C9.2,9,9,9.2,9,9.5C9,9.8,9.2,10,9.5,10C9.8,10,10,9.8,10,9.5C10,9.2,9.8,9,9.5,9L9.5,9z"/>
		</g>
		<g>
			<path d="M13.5,9C13.2,9,13,9.2,13,9.5c0,0.3,0.2,0.5,0.5,0.5c0.3,0,0.5-0.2,0.5-0.5C14,9.2,13.8,9,13.5,9L13.5,9z"/>
		</g>
		<line class="st2" x1="9" y1="11.5" x2="7" y2="14"/>
		<line class="st2" x1="14" y1="11.5" x2="16" y2="14"/>
		<path class="st2" d="M20,9c0-4.7-3.8-8.5-8.5-8.5C6.8,0.5,3,4.3,3,9c0,4.1,2.9,7.5,6.7,8.3l1.8,6.2l1.8-6.2
			C17.1,16.5,20,13.1,20,9z"/>
	</g>
</g>
</svg>
