<?xml version="1.0" encoding="utf-8"?>
<!-- Generator: Adobe Illustrator 19.2.0, SVG Export Plug-In . SVG Version: 6.00 Build 0)  -->
<svg version="1.1" id="Layer_1" xmlns="http://www.w3.org/2000/svg" xmlns:xlink="http://www.w3.org/1999/xlink" x="0px" y="0px"
	 viewBox="0 0 24 24" style="enable-background:new 0 0 24 24;" xml:space="preserve">
<style type="text/css">
	.st0{display:none;}
	.st1{display:inline;}
	.st2{fill:none;stroke:#000000;stroke-linejoin:round;stroke-miterlimit:10;}
</style>
<g id="Filled_Icons" class="st0">
	<path class="st1" d="M18,9.3V6c0-3.3-2.7-6-6-6C8.7,0,6,2.7,6,6h1c0-2.8,2.2-5,5-5c2.8,0,5,2.2,5,5v3.1C16.8,9,16.7,9,16.5,9h-9
		C5,9,3,11,3,13.5v6C3,22,5,24,7.5,24h9c2.5,0,4.5-2,4.5-4.5v-6C21,11.5,19.7,9.9,18,9.3z M12,18c-1.1,0-2-0.9-2-2c0-1.1,0.9-2,2-2
		c1.1,0,2,0.9,2,2C14,17.1,13.1,18,12,18z"/>
</g>
<g id="Outline_Icons">
	<g>
		<circle class="st2" cx="12" cy="16" r="2"/>
		<path class="st2" d="M20.5,13.5c0-2.2-1.8-4-4-4h-9c-2.2,0-4,1.8-4,4v6c0,2.2,1.8,4,4,4h9c2.2,0,4-1.8,4-4V13.5z"/>
		<path class="st2" d="M6.5,6C6.5,3,9,0.5,12,0.5c3,0,5.5,2.5,5.5,5.5v3.5"/>
	</g>
</g>
</svg>
