<?xml version="1.0" encoding="utf-8"?>
<!-- Generator: Adobe Illustrator 19.2.0, SVG Export Plug-In . SVG Version: 6.00 Build 0)  -->
<svg version="1.1" id="Layer_1" xmlns="http://www.w3.org/2000/svg" xmlns:xlink="http://www.w3.org/1999/xlink" x="0px" y="0px"
	 viewBox="0 0 24 24" style="enable-background:new 0 0 24 24;" xml:space="preserve">
<style type="text/css">
	.st0{display:none;}
	.st1{display:inline;}
	.st2{fill:none;stroke:#000000;stroke-linecap:round;stroke-linejoin:round;stroke-miterlimit:10;}
	.st3{fill:none;stroke:#000000;stroke-linejoin:round;stroke-miterlimit:10;}
</style>
<g id="Filled_Icons" class="st0">
	<path class="st1" d="M21.5,0h-15C6.2,0,6,0.2,6,0.5v4.6C6.3,5.1,6.7,5,7,5c2.3,0,4.2,1.8,4.4,4h0.1c0.8,0,1.5,0.7,1.5,1.5v7
		c0,0.8-0.7,1.5-1.5,1.5H6v4.5C6,23.8,6.2,24,6.5,24h15c0.3,0,0.5-0.2,0.5-0.5v-23C22,0.2,21.8,0,21.5,0z"/>
	<path class="st1" d="M11.5,10h-1V9.5C10.5,7.6,8.9,6,7,6C5.1,6,3.5,7.6,3.5,9.5V10h-1C2.2,10,2,10.2,2,10.5v7C2,17.8,2.2,18,2.5,18
		h9c0.3,0,0.5-0.2,0.5-0.5v-7C12,10.2,11.8,10,11.5,10z M7.5,13.8v1.7C7.5,15.8,7.3,16,7,16c-0.3,0-0.5-0.2-0.5-0.5v-1.7
		C6.2,13.7,6,13.4,6,13c0-0.6,0.4-1,1-1c0.6,0,1,0.4,1,1C8,13.4,7.8,13.7,7.5,13.8z M9.5,10h-5V9.5C4.5,8.1,5.6,7,7,7
		c1.4,0,2.5,1.1,2.5,2.5V10z"/>
</g>
<g id="Outline_Icons">
	<g>
		<g>
			<rect x="2.5" y="10.5" class="st2" width="9" height="7"/>
			<line class="st2" x1="7" y1="15.5" x2="7" y2="13.5"/>
			<g>
				<path class="st3" d="M7,12.5c-0.3,0-0.5,0.2-0.5,0.5c0,0.3,0.2,0.5,0.5,0.5c0.3,0,0.5-0.2,0.5-0.5C7.5,12.7,7.3,12.5,7,12.5
					L7,12.5z"/>
			</g>
			<path class="st2" d="M4,10.5v-1c0-1.7,1.3-3,3-3c1.7,0,3,1.3,3,3v1"/>
		</g>
		<polyline class="st2" points="6.5,4.5 6.5,0.5 21.5,0.5 21.5,23.5 6.5,23.5 6.5,19.5 		"/>
	</g>
</g>
</svg>
