<?xml version="1.0" encoding="utf-8"?>
<!-- Generator: Adobe Illustrator 19.2.0, SVG Export Plug-In . SVG Version: 6.00 Build 0)  -->
<svg version="1.1" id="Layer_1" xmlns="http://www.w3.org/2000/svg" xmlns:xlink="http://www.w3.org/1999/xlink" x="0px" y="0px"
	 viewBox="0 0 24 24" style="enable-background:new 0 0 24 24;" xml:space="preserve">
<style type="text/css">
	.st0{display:none;}
	.st1{display:inline;}
	.st2{fill:none;stroke:#000000;stroke-linejoin:round;stroke-miterlimit:10;}
	.st3{fill:none;stroke:#000000;stroke-linecap:round;stroke-linejoin:round;stroke-miterlimit:10;}
</style>
<g id="Filled_Icons" class="st0">
	<g class="st1">
		<path d="M12,24c4.4,0,8-3.6,8-8c0-2-0.8-3.9-2-5.3V5.5l0-0.1C17.4,2.3,14.9,0,12,0C9.1,0,6.6,2.3,6,5.4l0,5.3C4.8,12.1,4,14,4,16
			C4,20.4,7.6,24,12,24z M12.5,16.9v2.6c0,0.3-0.2,0.5-0.5,0.5c-0.3,0-0.5-0.2-0.5-0.5v-2.6C11.2,16.7,11,16.4,11,16
			c0-0.6,0.4-1,1-1c0.6,0,1,0.4,1,1C13,16.4,12.8,16.7,12.5,16.9z M12,1c2.4,0,4.5,1.9,5,4.5v4.2C15.6,8.7,13.9,8,12,8
			c-1.9,0-3.6,0.7-5,1.8V5.5C7.5,2.9,9.6,1,12,1z"/>
	</g>
</g>
<g id="Outline_Icons">
	<g>
		<circle class="st2" cx="12" cy="16" r="7.5"/>
		<circle class="st2" cx="12" cy="16" r="0.5"/>
		<line class="st3" x1="12" y1="16.5" x2="12" y2="19.5"/>
		<path class="st2" d="M17.5,10.9V5.5c-0.5-2.8-2.7-5-5.5-5c-2.8,0-5,2.2-5.5,5v5.4"/>
	</g>
</g>
</svg>
