<?xml version="1.0" encoding="utf-8"?>
<!-- Generator: Adobe Illustrator 19.2.0, SVG Export Plug-In . SVG Version: 6.00 Build 0)  -->
<svg version="1.1" id="Layer_1" xmlns="http://www.w3.org/2000/svg" xmlns:xlink="http://www.w3.org/1999/xlink" x="0px" y="0px"
	 viewBox="0 0 24 24" style="enable-background:new 0 0 24 24;" xml:space="preserve">
<style type="text/css">
	.st0{display:none;}
	.st1{display:inline;}
	.st2{fill:none;stroke:#000000;stroke-linejoin:round;stroke-miterlimit:10;}
	.st3{fill:none;stroke:#000000;stroke-linecap:round;stroke-linejoin:round;stroke-miterlimit:10;}
</style>
<g id="Filled_Icons" class="st0">
	<g class="st1">
		<path d="M3,24h18V9h-3V6c0-3.3-2.7-6-6-6C8.7,0,6,2.7,6,6v3H3V24z M11,15c0-0.6,0.4-1,1-1c0.6,0,1,0.4,1,1c0,0.4-0.2,0.7-0.5,0.9
			v2.6c0,0.3-0.2,0.5-0.5,0.5c-0.3,0-0.5-0.2-0.5-0.5v-2.6C11.2,15.7,11,15.4,11,15z M7,6c0-2.8,2.2-5,5-5c2.8,0,5,2.2,5,5v3H7V6z"
			/>
	</g>
</g>
<g id="Outline_Icons">
	<g>
		<circle class="st2" cx="12" cy="15" r="0.5"/>
		<line class="st3" x1="12" y1="15.5" x2="12" y2="18.5"/>
		<rect x="3.5" y="9.5" class="st2" width="17" height="14"/>
		<path class="st2" d="M6.5,6C6.5,3,9,0.5,12,0.5c3,0,5.5,2.5,5.5,5.5v3.5h-11V6z"/>
	</g>
</g>
</svg>
