<?xml version="1.0" encoding="utf-8"?>
<!-- Generator: Adobe Illustrator 19.2.0, SVG Export Plug-In . SVG Version: 6.00 Build 0)  -->
<svg version="1.1" id="Layer_1" xmlns="http://www.w3.org/2000/svg" xmlns:xlink="http://www.w3.org/1999/xlink" x="0px" y="0px"
	 viewBox="0 0 24 24" style="enable-background:new 0 0 24 24;" xml:space="preserve">
<style type="text/css">
	.st0{display:none;}
	.st1{display:inline;}
	.st2{fill:none;stroke:#000000;stroke-linejoin:round;stroke-miterlimit:10;}
</style>
<g id="Filled_Icons" class="st0">
	<path class="st1" d="M20.5,10H18V7c0-3.3-2.7-6-6-6C8.7,1,6,3.7,6,7v3H3.5C3.2,10,3,10.2,3,10.5v13C3,23.8,3.2,24,3.5,24h17
		c0.3,0,0.5-0.2,0.5-0.5v-13C21,10.2,20.8,10,20.5,10z M7,7c0-2.8,2.2-5,5-5c2.8,0,5,2.2,5,5v3H7V7z M16,15h-2v-2h2V15z M11,18v-2h2
		v2H11z M13,19v2h-2v-2H13z M13,13v2h-2v-2H13z M10,15H8v-2h2V15z M8,16h2v2H8V16z M14,16h2v2h-2V16z M8,19h2v2H8V19z M14,21v-2h2v2
		H14z"/>
</g>
<g id="Outline_Icons">
	<g>
		<rect x="3.5" y="10.5" class="st2" width="17" height="13"/>
		<path class="st2" d="M6.5,7C6.5,4,9,1.5,12,1.5c3,0,5.5,2.5,5.5,5.5v3.5h-11V7z"/>
		<rect x="7.5" y="12.5" class="st2" width="9" height="9"/>
		<line class="st2" x1="7.5" y1="15.5" x2="16.5" y2="15.5"/>
		<line class="st2" x1="7.5" y1="18.5" x2="16.5" y2="18.5"/>
		<line class="st2" x1="13.5" y1="12.5" x2="13.5" y2="21.5"/>
		<line class="st2" x1="10.5" y1="12.5" x2="10.5" y2="21.5"/>
	</g>
</g>
</svg>
