<?xml version="1.0" encoding="utf-8"?>
<!-- Generator: Adobe Illustrator 19.2.0, SVG Export Plug-In . SVG Version: 6.00 Build 0)  -->
<svg version="1.1" id="Outline_Icons" xmlns="http://www.w3.org/2000/svg" xmlns:xlink="http://www.w3.org/1999/xlink" x="0px"
	 y="0px" viewBox="0 0 24 24" style="enable-background:new 0 0 24 24;" xml:space="preserve">
<style type="text/css">
	.st0{fill:none;stroke:#000000;stroke-linejoin:round;stroke-miterlimit:10;}
	.st1{fill:none;stroke:#000000;stroke-linecap:round;stroke-linejoin:round;stroke-miterlimit:10;}
</style>
<g>
	<circle class="st0" cx="12" cy="16" r="7.5"/>
	<circle class="st0" cx="12" cy="16" r="4"/>
	<line class="st1" x1="12" y1="11" x2="12" y2="13"/>
	<line class="st1" x1="12" y1="19" x2="12" y2="21"/>
	<line class="st1" x1="17" y1="16" x2="15" y2="16"/>
	<line class="st1" x1="9" y1="16" x2="7" y2="16"/>
	<path class="st0" d="M12.5,16c0,0.3-0.2,0.5-0.5,0.5l0,0c-0.3,0-0.5-0.2-0.5-0.5l0,0c0-0.3,0.2-0.5,0.5-0.5l0,0
		C12.3,15.5,12.5,15.7,12.5,16L12.5,16z"/>
	<path class="st0" d="M17.5,10.9V5.5c-0.5-2.8-2.7-5-5.5-5s-5,2.2-5.5,5v5.4"/>
</g>
</svg>
