<?xml version="1.0" encoding="utf-8"?>
<!-- Generator: Adobe Illustrator 19.2.0, SVG Export Plug-In . SVG Version: 6.00 Build 0)  -->
<svg version="1.1" id="Layer_1" xmlns="http://www.w3.org/2000/svg" xmlns:xlink="http://www.w3.org/1999/xlink" x="0px" y="0px"
	 viewBox="0 0 24 24" style="enable-background:new 0 0 24 24;" xml:space="preserve">
<style type="text/css">
	.st0{display:none;}
	.st1{display:inline;}
	.st2{fill:none;stroke:#000000;stroke-linejoin:round;stroke-miterlimit:10;}
</style>
<g id="Filled_Icons" class="st0">
	<path class="st1" d="M20.5,13c0.3,0,0.5-0.2,0.5-0.5v-3C21,9.2,20.8,9,20.5,9H18V6c0-3.3-2.7-6-6-6C8.7,0,6,2.7,6,6v3H3.5
		C3.2,9,3,9.2,3,9.5v14C3,23.8,3.2,24,3.5,24h17c0.3,0,0.5-0.2,0.5-0.5v-3c0-0.3-0.2-0.5-0.5-0.5H16v-1h4.5c0.3,0,0.5-0.2,0.5-0.5
		c0-0.3-0.2-0.5-0.5-0.5H16v-1h4.5c0.3,0,0.5-0.2,0.5-0.5c0-0.3-0.2-0.5-0.5-0.5H16v-1h4.5c0.3,0,0.5-0.2,0.5-0.5
		c0-0.3-0.2-0.5-0.5-0.5H16v-1H20.5z M7,6c0-2.8,2.2-5,5-5c2.8,0,5,2.2,5,5v3H7V6z"/>
</g>
<g id="Outline_Icons">
	<g>
		<polygon class="st2" points="20.5,9.5 3.5,9.5 3.5,23.5 20.5,23.5 20.5,20.5 15.5,20.5 15.5,12.5 20.5,12.5 		"/>
		<path class="st2" d="M6.5,6C6.5,3,9,0.5,12,0.5c3,0,5.5,2.5,5.5,5.5v3.5h-11V6z"/>
		<line class="st2" x1="15.5" y1="14.5" x2="21" y2="14.5"/>
		<line class="st2" x1="15.5" y1="16.5" x2="21" y2="16.5"/>
		<line class="st2" x1="15.5" y1="18.5" x2="21" y2="18.5"/>
	</g>
</g>
</svg>
