<?xml version="1.0" encoding="utf-8"?>
<!-- Generator: Adobe Illustrator 19.2.0, SVG Export Plug-In . SVG Version: 6.00 Build 0)  -->
<svg version="1.1" id="Layer_1" xmlns="http://www.w3.org/2000/svg" xmlns:xlink="http://www.w3.org/1999/xlink" x="0px" y="0px"
	 viewBox="0 0 24 24" style="enable-background:new 0 0 24 24;" xml:space="preserve">
<style type="text/css">
	.st0{display:none;}
	.st1{display:inline;}
	.st2{fill:none;stroke:#000000;stroke-linecap:round;stroke-linejoin:round;stroke-miterlimit:10;}
</style>
<g id="Filled_Icons" class="st0">
	<g class="st1">
		<path d="M7.9,13.5l3.3,3.3c0.4,0.4,0.4,1,0,1.4c-0.2,0.2-0.5,0.3-0.7,0.3c-0.3,0-0.5-0.1-0.7-0.3l-5-5c-0.1-0.1-0.2-0.2-0.2-0.3
			c-0.1-0.2-0.1-0.5,0-0.8c0.1-0.1,0.1-0.2,0.2-0.3l5-5c0.4-0.4,1-0.4,1.4,0c0.4,0.4,0.4,1,0,1.4l-3.3,3.3H14v-10
			C14,1.2,13.8,1,13.5,1h-13C0.2,1,0,1.2,0,1.5v21C0,22.8,0.2,23,0.5,23h13c0.3,0,0.5-0.2,0.5-0.5v-9H7.9z"/>
		<path d="M23.5,12H6.7l4.1-4.1c0.2-0.2,0.2-0.5,0-0.7c-0.2-0.2-0.5-0.2-0.7,0l-5,5c0,0-0.1,0.1-0.1,0.2C5,12.4,5,12.6,5,12.7
			c0,0.1,0.1,0.1,0.1,0.2l5,5c0.1,0.1,0.2,0.1,0.4,0.1c0.1,0,0.3,0,0.4-0.1c0.2-0.2,0.2-0.5,0-0.7L6.7,13h16.8
			c0.3,0,0.5-0.2,0.5-0.5C24,12.2,23.8,12,23.5,12z"/>
	</g>
</g>
<g id="Outline_Icons">
	<g>
		<polyline class="st2" points="13.5,18.5 13.5,22.5 0.5,22.5 0.5,1.5 13.5,1.5 13.5,5.5 		"/>
		<g>
			<line class="st2" x1="23.5" y1="12.5" x2="5.5" y2="12.5"/>
			<polyline class="st2" points="10.5,17.5 5.5,12.5 10.5,7.5 			"/>
		</g>
	</g>
</g>
</svg>
