<?xml version="1.0" encoding="utf-8"?>
<!-- Generator: Adobe Illustrator 19.2.0, SVG Export Plug-In . SVG Version: 6.00 Build 0)  -->
<svg version="1.1" id="Layer_1" xmlns="http://www.w3.org/2000/svg" xmlns:xlink="http://www.w3.org/1999/xlink" x="0px" y="0px"
	 viewBox="0 0 24 24" style="enable-background:new 0 0 24 24;" xml:space="preserve">
<style type="text/css">
	.st0{display:none;}
	.st1{display:inline;}
	.st2{fill:none;stroke:#000000;stroke-linecap:round;stroke-linejoin:round;stroke-miterlimit:10;}
</style>
<g id="Filled_Icons" class="st0">
	<path class="st1" d="M22,11.5h-7v-10C15,1.2,14.8,1,14.5,1h-13C1.2,1,1,1.2,1,1.5v21C1,22.8,1.2,23,1.5,23h13
		c0.3,0,0.5-0.2,0.5-0.5v-9h7c0.6,0,1-0.4,1-1C23,11.9,22.6,11.5,22,11.5z M22,13H6.7l4.1,4.1c0.2,0.2,0.2,0.5,0,0.7
		c-0.1,0.1-0.2,0.1-0.4,0.1c-0.1,0-0.3,0-0.4-0.1l-5-5C5.1,12.8,5,12.6,5,12.5c0,0,0,0,0,0c0-0.1,0-0.3,0.1-0.4l5-5
		c0.2-0.2,0.5-0.2,0.7,0c0.2,0.2,0.2,0.5,0,0.7L6.7,12H22c0.3,0,0.5,0.2,0.5,0.5C22.5,12.8,22.3,13,22,13z"/>
</g>
<g id="Outline_Icons">
	<g>
		<polyline class="st2" points="14.5,19.5 14.5,22.5 1.5,22.5 1.5,1.5 14.5,1.5 14.5,5.5 		"/>
		<line class="st2" x1="22.5" y1="12.5" x2="5.5" y2="12.5"/>
		<polyline class="st2" points="10.5,7.5 5.5,12.5 10.5,17.5 		"/>
	</g>
</g>
</svg>
