<?xml version="1.0" encoding="utf-8"?>
<!-- Generator: Adobe Illustrator 19.2.0, SVG Export Plug-In . SVG Version: 6.00 Build 0)  -->
<svg version="1.1" id="Layer_1" xmlns="http://www.w3.org/2000/svg" xmlns:xlink="http://www.w3.org/1999/xlink" x="0px" y="0px"
	 viewBox="0 0 24 24" style="enable-background:new 0 0 24 24;" xml:space="preserve">
<style type="text/css">
	.st0{display:none;}
	.st1{display:inline;}
	.st2{fill:none;stroke:#000000;stroke-linecap:round;stroke-linejoin:round;stroke-miterlimit:10;}
</style>
<g id="Filled_Icons" class="st0">
	<path class="st1" d="M9.9,13.5l2.3,2.3c0.4,0.4,0.4,1,0,1.4c-0.2,0.2-0.5,0.3-0.7,0.3c-0.3,0-0.5-0.1-0.7-0.3l-4-4
		c-0.1-0.1-0.2-0.2-0.2-0.3c-0.1-0.2-0.1-0.5,0-0.8c0.1-0.1,0.1-0.2,0.2-0.3l4-4c0.4-0.4,1-0.4,1.4,0c0.4,0.4,0.4,1,0,1.4l-2.3,2.3
		h13C22.4,5.6,17.5,1,11.5,1C5.2,1,0,6.2,0,12.5C0,18.8,5.2,24,11.5,24c6,0,10.9-4.6,11.4-10.5H9.9z"/>
</g>
<g id="Outline_Icons">
	<g>
		<g>
			<line class="st2" x1="22.5" y1="12.5" x2="7.5" y2="12.5"/>
			<polyline class="st2" points="11.5,8.5 7.5,12.5 11.5,16.5 			"/>
		</g>
		<path class="st2" d="M21.5,8c-1.7-3.8-5.6-6.5-10-6.5c-6.1,0-11,4.9-11,11c0,6.1,4.9,11,11,11c4.5,0,8.3-2.7,10-6.5"/>
	</g>
</g>
</svg>
