<?xml version="1.0" encoding="utf-8"?>
<!-- Generator: Adobe Illustrator 19.2.0, SVG Export Plug-In . SVG Version: 6.00 Build 0)  -->
<svg version="1.1" id="Layer_1" xmlns="http://www.w3.org/2000/svg" xmlns:xlink="http://www.w3.org/1999/xlink" x="0px" y="0px"
	 viewBox="0 0 24 24" style="enable-background:new 0 0 24 24;" xml:space="preserve">
<style type="text/css">
	.st0{display:none;}
	.st1{display:inline;}
	.st2{fill:none;stroke:#000000;stroke-linecap:round;stroke-linejoin:round;stroke-miterlimit:10;}
	.st3{fill:none;stroke:#000000;stroke-linejoin:round;stroke-miterlimit:10;}
</style>
<g id="Filled_Icon" class="st0">
	<g class="st1">
		<path d="M13.5,12H14c0.3-2.2,2.1-4,4.4-4s4.2,1.8,4.4,4h0.6c0.2,0,0.3,0,0.5,0.1V3.5C24,3.2,23.8,3,23.5,3h-23C0.2,3,0,3.2,0,3.5
			v9C0,12.8,0.2,13,0.5,13h11.6C12.3,12.4,12.8,12,13.5,12z M6.4,8.7c0.2,0.2,0.3,0.5,0.1,0.7c0,0.1-0.2,0.2-0.3,0.2
			c-0.1,0-0.2,0-0.3-0.1L5,8.9V10c0,0.3-0.2,0.5-0.5,0.5S4,10.3,4,10V8.9L3.1,9.5C3,9.6,2.9,9.6,2.8,9.6c-0.2,0-0.3-0.1-0.4-0.2
			C2.3,9.1,2.3,8.8,2.6,8.7l1-0.7l-1-0.7C2.3,7.2,2.3,6.8,2.4,6.6c0.2-0.2,0.5-0.3,0.7-0.1L4,7.1V6c0-0.3,0.2-0.5,0.5-0.5S5,5.7,5,6
			v1.1l0.9-0.6c0.2-0.2,0.5-0.1,0.7,0.1s0.1,0.5-0.1,0.7L5.4,8L6.4,8.7z M11,10c0,0.3-0.2,0.5-0.5,0.5S10,10.3,10,10V8.9L9.1,9.5
			C9,9.6,8.9,9.6,8.8,9.6c-0.2,0-0.3-0.1-0.4-0.2C8.3,9.1,8.3,8.8,8.6,8.7l1-0.7l-1-0.7C8.3,7.2,8.3,6.8,8.4,6.6
			c0.2-0.2,0.5-0.3,0.7-0.1L10,7.1V6c0-0.3,0.2-0.5,0.5-0.5S11,5.7,11,6v1.1l0.9-0.6c0.2-0.2,0.5-0.1,0.7,0.1s0.1,0.5-0.1,0.7
			l-1,0.7l1,0.7c0.2,0.2,0.3,0.5,0.1,0.7c-0.1,0.1-0.3,0.2-0.4,0.2c-0.1,0-0.2,0-0.3-0.1L11,8.9V10z"/>
		<path d="M23.5,13H22v-0.5c0-1.9-1.6-3.5-3.5-3.5S15,10.6,15,12.5V13h-1.5c-0.3,0-0.5,0.2-0.5,0.5v8c0,0.3,0.2,0.5,0.5,0.5h10
			c0.3,0,0.5-0.2,0.5-0.5v-8C24,13.2,23.8,13,23.5,13z M19,17.1v1.7c0,0.3-0.2,0.5-0.5,0.5S18,19.1,18,18.8v-1.7
			c-0.3-0.2-0.5-0.5-0.5-0.8c0-0.6,0.4-1,1-1s1,0.4,1,1C19.5,16.7,19.3,17,19,17.1z M21,13h-5v-0.5c0-1.4,1.1-2.5,2.5-2.5
			s2.5,1.1,2.5,2.5V13z"/>
	</g>
</g>
<g id="Outline_Icons">
	<g>
		<polyline class="st2" points="10.5,12.5 0.5,12.5 0.5,3.5 23.5,3.5 23.5,9.5 		"/>
		<line class="st2" x1="4.5" y1="6" x2="4.5" y2="10"/>
		<line class="st2" x1="6.2" y1="6.9" x2="2.8" y2="9.1"/>
		<line class="st2" x1="6.2" y1="9.1" x2="2.8" y2="6.9"/>
		<line class="st2" x1="10.5" y1="6" x2="10.5" y2="10"/>
		<line class="st2" x1="12.2" y1="6.9" x2="8.8" y2="9.1"/>
		<line class="st2" x1="12.2" y1="9.1" x2="8.8" y2="6.9"/>
		<g>
			<rect x="13.5" y="13.5" class="st2" width="10" height="8"/>
			<line class="st2" x1="18.5" y1="18.8" x2="18.5" y2="16.8"/>
			<path class="st2" d="M15.5,13.5v-1c0-1.7,1.3-3,3-3s3,1.3,3,3v1"/>
			<path class="st3" d="M19,16.3c0,0.3-0.2,0.5-0.5,0.5l0,0c-0.3,0-0.5-0.2-0.5-0.5l0,0c0-0.3,0.2-0.5,0.5-0.5l0,0
				C18.7,15.8,19,16,19,16.3L19,16.3z"/>
		</g>
	</g>
</g>
</svg>
