<?xml version="1.0" encoding="utf-8"?>
<!-- Generator: Adobe Illustrator 19.2.0, SVG Export Plug-In . SVG Version: 6.00 Build 0)  -->
<svg version="1.1" id="Layer_1" xmlns="http://www.w3.org/2000/svg" xmlns:xlink="http://www.w3.org/1999/xlink" x="0px" y="0px"
	 viewBox="0 0 24 24" style="enable-background:new 0 0 24 24;" xml:space="preserve">
<style type="text/css">
	.st0{display:none;}
	.st1{display:inline;}
	.st2{fill:none;stroke:#000000;stroke-linejoin:round;stroke-miterlimit:10;}
</style>
<g id="Filled_Icon" class="st0">
	<g class="st1">
		<path d="M11.7,13.7c-0.3-0.6-0.2-1.3,0.3-1.7c0.5-0.5,1.2-0.6,1.7-0.3l4.7,2.3h3.1c1.4,0,2.5-1.1,2.5-2.5v-7C24,3.1,22.9,2,21.5,2
			h-19C1.1,2,0,3.1,0,4.5v7C0,12.9,1.1,14,2.5,14h9.3L11.7,13.7z M19,5.5c1.4,0,2.5,1.1,2.5,2.5s-1.1,2.5-2.5,2.5S16.5,9.4,16.5,8
			S17.6,5.5,19,5.5z M5,10.5c-1.4,0-2.5-1.1-2.5-2.5S3.6,5.5,5,5.5S7.5,6.6,7.5,8S6.4,10.5,5,10.5z M9.5,8c0-1.4,1.1-2.5,2.5-2.5
			s2.5,1.1,2.5,2.5s-1.1,2.5-2.5,2.5S9.5,9.4,9.5,8z"/>
		<path d="M23.2,17.6l-10-5c-0.2-0.1-0.4-0.1-0.6,0.1c-0.2,0.2-0.2,0.4-0.1,0.6l5,10c0.1,0.2,0.3,0.3,0.4,0.3c0,0,0,0,0.1,0
			c0.2,0,0.4-0.2,0.4-0.4l0.9-3.7l3.7-0.9c0.2-0.1,0.4-0.2,0.4-0.4C23.5,17.8,23.4,17.6,23.2,17.6z"/>
	</g>
</g>
<g id="Outline_Icons">
	<g>
		<path class="st2" d="M11,13.5H2.5c-1.1,0-2-0.9-2-2v-7c0-1.1,0.9-2,2-2h19c1.1,0,2,0.9,2,2v7c0,1.1-0.9,2-2,2H17"/>
		<circle class="st2" cx="5" cy="8" r="2.5"/>
		<circle class="st2" cx="12" cy="8" r="2.5"/>
		<circle class="st2" cx="19" cy="8" r="2.5"/>
		<polygon class="st2" points="18,23 13,13 23,18 19,19 		"/>
	</g>
</g>
</svg>
