<?xml version="1.0" encoding="utf-8"?>
<!-- Generator: Adobe Illustrator 19.2.0, SVG Export Plug-In . SVG Version: 6.00 Build 0)  -->
<svg version="1.1" id="Layer_1" xmlns="http://www.w3.org/2000/svg" xmlns:xlink="http://www.w3.org/1999/xlink" x="0px" y="0px"
	 viewBox="0 0 24 24" style="enable-background:new 0 0 24 24;" xml:space="preserve">
<style type="text/css">
	.st0{display:none;}
	.st1{display:inline;}
	.st2{fill:none;stroke:#000000;stroke-linejoin:round;stroke-miterlimit:10;}
	.st3{fill:none;stroke:#000000;stroke-linecap:round;stroke-linejoin:round;stroke-miterlimit:10;}
</style>
<g id="Filled_Icon" class="st0">
	<g class="st1">
		<path d="M17.5,9c-3.6,0-6.5,2.9-6.5,6.5s2.9,6.5,6.5,6.5s6.5-2.9,6.5-6.5S21.1,9,17.5,9z M20.3,17.6c0.2,0.2,0.2,0.5,0,0.7
			c-0.1,0.1-0.2,0.1-0.4,0.1c-0.1,0-0.3,0-0.4-0.1l-2.1-2.1l-2.1,2.1c-0.1,0.1-0.2,0.1-0.4,0.1c-0.1,0-0.3,0-0.4-0.1
			c-0.2-0.2-0.2-0.5,0-0.7l2.1-2.1l-2.1-2.1c-0.2-0.2-0.2-0.5,0-0.7s0.5-0.2,0.7,0l2.1,2.1l2.1-2.1c0.2-0.2,0.5-0.2,0.7,0
			s0.2,0.5,0,0.7L18,15.5L20.3,17.6z"/>
		<path d="M17.5,8c2.8,0,5.2,1.5,6.5,3.8V3.5C24,3.2,23.8,3,23.5,3h-23C0.2,3,0,3.2,0,3.5v9C0,12.8,0.2,13,0.5,13h9.9
			C11.5,10.1,14.2,8,17.5,8z M6.4,8.7c0.2,0.2,0.3,0.5,0.1,0.7c0,0.1-0.2,0.2-0.3,0.2c-0.1,0-0.2,0-0.3-0.1L5,8.9V10
			c0,0.3-0.2,0.5-0.5,0.5S4,10.3,4,10V8.9L3.1,9.5C3,9.6,2.9,9.6,2.8,9.6c-0.2,0-0.3-0.1-0.4-0.2C2.3,9.1,2.3,8.8,2.6,8.7l1-0.7
			l-1-0.7C2.3,7.2,2.3,6.8,2.4,6.6c0.2-0.2,0.5-0.3,0.7-0.1L4,7.1V6c0-0.3,0.2-0.5,0.5-0.5S5,5.7,5,6v1.1l0.9-0.6
			c0.2-0.2,0.5-0.1,0.7,0.1s0.1,0.5-0.1,0.7L5.4,8L6.4,8.7z M9.1,9.5C9,9.6,8.9,9.6,8.8,9.6c-0.2,0-0.3-0.1-0.4-0.2
			C8.3,9.1,8.3,8.8,8.6,8.7l1-0.7l-1-0.7C8.3,7.2,8.3,6.8,8.4,6.6c0.2-0.2,0.5-0.3,0.7-0.1L10,7.1V6c0-0.3,0.2-0.5,0.5-0.5
			S11,5.7,11,6v1.1l0.9-0.6c0.2-0.2,0.5-0.1,0.7,0.1s0.1,0.5-0.1,0.7l-1,0.7l1,0.7c0.2,0.2,0.3,0.5,0.1,0.7
			c-0.1,0.1-0.3,0.2-0.4,0.2c-0.1,0-0.2,0-0.3-0.1L11,8.9V10c0,0.3-0.2,0.5-0.5,0.5S10,10.3,10,10V8.9L9.1,9.5z"/>
	</g>
</g>
<g id="Outline_Icons">
	<g>
		<circle class="st2" cx="17.5" cy="15.5" r="6"/>
		<line class="st3" x1="15" y1="18" x2="20" y2="13"/>
		<line class="st3" x1="20" y1="18" x2="15" y2="13"/>
		<polyline class="st3" points="9.5,12.5 0.5,12.5 0.5,3.5 23.5,3.5 23.5,9.5 		"/>
		<line class="st3" x1="4.5" y1="6" x2="4.5" y2="10"/>
		<line class="st3" x1="6.2" y1="6.9" x2="2.8" y2="9.1"/>
		<line class="st3" x1="6.2" y1="9.1" x2="2.8" y2="6.9"/>
		<line class="st3" x1="10.5" y1="6" x2="10.5" y2="10"/>
		<line class="st3" x1="12.2" y1="6.9" x2="8.8" y2="9.1"/>
		<line class="st3" x1="12.2" y1="9.1" x2="8.8" y2="6.9"/>
	</g>
</g>
</svg>
