<?xml version="1.0" encoding="utf-8"?>
<!-- Generator: Adobe Illustrator 19.2.0, SVG Export Plug-In . SVG Version: 6.00 Build 0)  -->
<svg version="1.1" id="Layer_1" xmlns="http://www.w3.org/2000/svg" xmlns:xlink="http://www.w3.org/1999/xlink" x="0px" y="0px"
	 viewBox="0 0 24 24" style="enable-background:new 0 0 24 24;" xml:space="preserve">
<style type="text/css">
	.st0{display:none;}
	.st1{display:inline;}
	.st2{fill:none;stroke:#000000;stroke-linecap:round;stroke-linejoin:round;stroke-miterlimit:10;}
</style>
<g id="Filled_Icons" class="st0">
	<g class="st1">
		<path d="M12,3c-3.9,0-7,3.1-7,7c0,1.3,0.4,2.6,1.1,3.7c0.1,0.2,0.5,0.3,0.7,0.2c0.2-0.1,0.3-0.5,0.2-0.7c-0.6-1-0.9-2-0.9-3.2
			c0-3.3,2.7-6,6-6s6,2.7,6,6c0,1.1-0.3,2.2-0.9,3.2c-0.1,0.2-0.1,0.5,0.2,0.7c0.1,0.1,0.2,0.1,0.3,0.1c0.2,0,0.3-0.1,0.4-0.2
			c0.7-1.1,1.1-2.4,1.1-3.7C19,6.1,15.9,3,12,3z"/>
		<path d="M12,0C6.5,0,2,4.5,2,10c0,2.5,0.9,4.9,2.6,6.8c0.1,0.1,0.2,0.2,0.4,0.2c0.1,0,0.2,0,0.3-0.1c0.2-0.2,0.2-0.5,0-0.7
			C3.8,14.4,3,12.3,3,10c0-5,4-9,9-9s9,4,9,9c0,2.2-0.8,4.4-2.3,6.1c-0.2,0.2-0.2,0.5,0,0.7c0.2,0.2,0.5,0.2,0.7,0
			c1.7-1.8,2.6-4.2,2.6-6.7C22,4.5,17.5,0,12,0z"/>
		<path d="M13.3,13h-2.5c-0.7,0-1.4,0.3-1.9,0.8c-0.5,0.5-0.7,1.2-0.6,1.9l0.6,5C8.9,22,10,23,11.3,23h1.4c1.3,0,2.3-1,2.5-2.2
			l0.6-5c0.1-0.7-0.1-1.4-0.6-1.9C14.7,13.3,14,13,13.3,13z"/>
		<circle cx="12" cy="9" r="3"/>
	</g>
</g>
<g id="Outline_Icons">
	<g>
		<path class="st2" d="M6.5,13.4c-0.6-1-1-2.2-1-3.4c0-3.6,2.9-6.5,6.5-6.5s6.5,2.9,6.5,6.5c0,1.3-0.4,2.5-1,3.5"/>
		<path class="st2" d="M5,16.4c-1.6-1.7-2.5-3.9-2.5-6.4c0-5.2,4.3-9.5,9.5-9.5s9.5,4.3,9.5,9.5c0,2.5-0.9,4.7-2.5,6.4"/>
		<path class="st2" d="M15.3,15.7c0.1-0.6-0.1-1.1-0.5-1.6c-0.4-0.4-0.9-0.7-1.5-0.7h-2.5c-0.6,0-1.1,0.2-1.5,0.7
			c-0.4,0.4-0.6,1-0.5,1.6l0.6,5c0.1,1,1,1.8,2,1.8h1.4c1,0,1.9-0.8,2-1.8L15.3,15.7z"/>
		<circle class="st2" cx="12" cy="9" r="2.5"/>
	</g>
</g>
</svg>
