<?xml version="1.0" encoding="utf-8"?>
<!-- Generator: Adobe Illustrator 19.2.0, SVG Export Plug-In . SVG Version: 6.00 Build 0)  -->
<svg version="1.1" id="Layer_1" xmlns="http://www.w3.org/2000/svg" xmlns:xlink="http://www.w3.org/1999/xlink" x="0px" y="0px"
	 viewBox="0 0 24 24" style="enable-background:new 0 0 24 24;" xml:space="preserve">
<style type="text/css">
	.st0{display:none;}
	.st1{display:inline;}
	.st2{fill:none;stroke:#000000;stroke-linecap:round;stroke-linejoin:round;stroke-miterlimit:10;}
	.st3{fill:none;stroke:#000000;stroke-linejoin:round;stroke-miterlimit:10;}
</style>
<g id="Filled_Icons" class="st0">
	<g class="st1">
		<path d="M8.6,13h-2C6.3,13,6,13.2,6,13.5S6.3,14,6.5,14H7v2.5C7,16.8,7.2,17,7.5,17S8,16.8,8,16.5V14h0.6c0.3,0,0.5-0.2,0.5-0.5
			S8.8,13,8.6,13z"/>
		<path d="M11.5,9C11.8,9,12,8.8,12,8.5V7.5C12,7.2,11.8,7,11.5,7C11.2,7,11,7.2,11,7.5v1.1C11,8.8,11.2,9,11.5,9z"/>
		<path d="M12,0C5.4,0,0,5.4,0,12s5.4,12,12,12s12-5.4,12-12S18.6,0,12,0z M14,7c0-0.3,0.2-0.5,0.5-0.5S15,6.7,15,7v1.5
			C15,8.8,15.2,9,15.5,9S16,8.8,16,8.5V7c0-0.3,0.2-0.5,0.5-0.5S17,6.7,17,7v1.5c0,0.8-0.7,1.5-1.5,1.5S14,9.3,14,8.5V7z M13,7.5
			v1.1c0,0.8-0.7,1.5-1.5,1.5h0C10.7,10,10,9.3,10,8.5V7.5C10,6.7,10.7,6,11.5,6C12.3,6,13,6.7,13,7.5z M6.3,3.8
			C6.5,3.6,6.8,3.6,7,3.9l1.5,2l1.5-2c0.2-0.2,0.5-0.3,0.7-0.1C11,3.9,11,4.2,10.8,4.5L9,6.8l0,2.7C9,9.8,8.8,10,8.5,10S8,9.8,8,9.5
			l0-2.7L6.2,4.5C6,4.3,6,3.9,6.3,3.8z M19.5,15.9c0,1.4-1.1,2.6-2.6,2.6H7c-1.4,0-2.5-1.2-2.5-2.6l0-1.9c0-1.4,1.1-2.5,2.5-2.5h9.9
			c1.4,0,2.6,1.1,2.6,2.6L19.5,15.9z"/>
		<path d="M11.5,14c-0.3,0-0.5,0.2-0.5,0.5v1c0,0.3-0.2,0.5-0.5,0.5S10,15.8,10,15.5v-1c0-0.3-0.2-0.5-0.5-0.5S9,14.2,9,14.5v1
			c0,0.8,0.7,1.5,1.5,1.5s1.5-0.7,1.5-1.5v-1C12,14.2,11.8,14,11.5,14z"/>
		<path d="M14,15v-1.5c0-0.3-0.2-0.5-0.5-0.5S13,13.2,13,13.5V15v1.4v0.1c0,0.3,0.2,0.5,0.5,0.5c1,0,0.1,0,0.5,0c0.6,0,1-0.4,1-1
			C15,15.4,14.6,15,14,15z"/>
		<path d="M18,15c0-0.6-0.4-1-1-1s-1,0.4-1,1v1c0,0.6,0.4,1,1,1h0.5c0.3,0,0.5-0.2,0.5-0.5S17.8,16,17.5,16H17
			C17.6,16,18,15.6,18,15z"/>
	</g>
</g>
<g id="Outline_Icons">
	<g>
		<circle class="st2" cx="12" cy="12" r="11.5"/>
		<path class="st3" d="M19.5,15.9c0,1.4-1.1,2.6-2.6,2.6H7c-1.4,0-2.5-1.2-2.5-2.6l0-1.9c0-1.4,1.1-2.5,2.5-2.5h9.9
			c1.4,0,2.6,1.1,2.6,2.6L19.5,15.9z"/>
		<polyline class="st2" points="6.6,4.2 8.5,6.7 8.5,9.5 		"/>
		<polyline class="st2" points="10.4,4.2 8.5,6.7 8.5,9.5 		"/>
		<path class="st2" d="M12.5,8.5c0,0.5-0.5,1-1,1c-0.5,0-1-0.4-1-1V7.5c0-0.5,0.5-1,1-1c0.5,0,1,0.4,1,0.9V8.5z"/>
		<line class="st2" x1="6.5" y1="13.5" x2="8.6" y2="13.5"/>
		<line class="st2" x1="7.5" y1="13.5" x2="7.5" y2="16.5"/>
		<line class="st2" x1="13.5" y1="13.5" x2="13.5" y2="16.5"/>
		<path class="st2" d="M11.5,14.5v1c0,0.6-0.4,1-1,1c-0.6,0-1-0.4-1-1v-1"/>
		<path class="st2" d="M16.5,7v1.5c0,0.6-0.4,1-1,1s-1-0.4-1-1V7"/>
		<path class="st2" d="M14.5,16c0-0.3-0.2-0.5-0.5-0.5h-0.5v0.9c0,0,0,0.1,0.1,0.1H14C14.3,16.5,14.5,16.3,14.5,16z"/>
		<path class="st2" d="M17.5,16.5H17c-0.3,0-0.5-0.2-0.5-0.5v-1c0-0.3,0.2-0.5,0.5-0.5s0.5,0.2,0.5,0.5c0,0.3-0.2,0.5-0.5,0.5h-0.5"
			/>
	</g>
</g>
</svg>
