<?xml version="1.0" encoding="utf-8"?>
<!-- Generator: Adobe Illustrator 19.2.0, SVG Export Plug-In . SVG Version: 6.00 Build 0)  -->
<svg version="1.1" id="Layer_1" xmlns="http://www.w3.org/2000/svg" xmlns:xlink="http://www.w3.org/1999/xlink" x="0px" y="0px"
	 viewBox="0 0 24 24" style="enable-background:new 0 0 24 24;" xml:space="preserve">
<style type="text/css">
	.st0{display:none;}
	.st1{display:inline;}
	.st2{fill:none;stroke:#000000;stroke-linejoin:round;stroke-miterlimit:10;}
</style>
<g id="Filled_Icons" class="st0">
	<g class="st1">
		<path d="M6.2,1.5c-3,1.2-5,3.4-5.5,6.5c-0.5,2.9,0.2,5.7,1.7,7.2c0.3-0.1,0.5-0.2,0.8-0.3c1-0.6,1.7-1.4,2.6-2.2
			c-2.9-3.3,0.2-7.4,4-8.3C13.2,3.5,18,5,19.1,8.6c1,3.5-2,6.1-5.8,5.3c-0.5-0.1-0.8-0.1-0.8-0.6v-4v-2c0-0.4,0-0.3-0.4-0.4
			c-1.1-0.1-2.6-0.2-3.6,0C8.1,7,8.1,6.9,8.1,7.3c0,2.7,0.1,9.8,0.1,9.8c0,0.7,0,2.2-0.8,2.6c-0.9,0.4-1.6-0.4-2.4-0.6
			c0.1,1.1-0.6,3.3,0.7,3.9c1.2,0.5,2.6,0.7,3.8,0.3c2.6-0.9,3.5-3.8,3.1-6.2c4.1,1.2,8.4-0.8,10.2-4.5c1.2-2.6,0.7-5.8-1.1-8.1
			C18.2,0.4,11.1-0.4,6.2,1.5"/>
	</g>
</g>
<g id="Outline_Icons">
	<g>
		<path class="st2" d="M6.2,1.5c-3,1.2-5,3.4-5.5,6.5c-0.5,2.9,0.2,5.7,1.7,7.2c0.3-0.1,0.5-0.2,0.8-0.3c1-0.6,1.7-1.4,2.6-2.2
			c-2.9-3.3,0.2-7.4,4-8.3C13.2,3.5,18,5,19.1,8.6c1,3.5-2,6.1-5.8,5.3c-0.5-0.1-0.8-0.1-0.8-0.6v-4v-2c0-0.4,0-0.3-0.4-0.4
			c-0.3,0-0.5-0.1-0.8-0.1c-0.9-0.1-1.9-0.1-2.8,0C8.1,7,8.1,6.9,8.1,7.3c0,2.7,0.1,9.8,0.1,9.8c0,0.7,0,2.2-0.8,2.6
			c-0.9,0.4-1.6-0.4-2.4-0.6c0.1,1.1-0.6,3.3,0.7,3.9c1.2,0.5,2.6,0.7,3.8,0.3c2.6-0.9,3.5-3.8,3.1-6.2c4.1,1.2,8.4-0.8,10.2-4.5
			c1.2-2.6,0.7-5.8-1.1-8.1C18.2,0.4,11.1-0.4,6.2,1.5"/>
	</g>
</g>
</svg>
