<?xml version="1.0" encoding="utf-8"?>
<!-- Generator: Adobe Illustrator 19.2.0, SVG Export Plug-In . SVG Version: 6.00 Build 0)  -->
<svg version="1.1" id="Layer_1" xmlns="http://www.w3.org/2000/svg" xmlns:xlink="http://www.w3.org/1999/xlink" x="0px" y="0px"
	 viewBox="0 0 24 24" style="enable-background:new 0 0 24 24;" xml:space="preserve">
<style type="text/css">
	.st0{display:none;}
	.st1{display:inline;}
	.st2{fill:none;stroke:#000000;stroke-linecap:round;stroke-linejoin:round;stroke-miterlimit:10;}
	.st3{fill:none;stroke:#000000;stroke-linejoin:round;stroke-miterlimit:10;}
</style>
<g id="Filled_Icons" class="st0">
	<path class="st1" d="M12,0C5.4,0,0,5.4,0,12s5.4,12,12,12s12-5.4,12-12S18.6,0,12,0z M18.4,9.9c-0.7,4.1-4.8,7.6-6,8.3
		c-1.2,0.8-2.3-0.3-2.7-1.2c-0.5-1-1.8-6.1-2.2-6.6C7.1,10.1,6,10.9,6,10.9l-0.5-0.7c0,0,2.2-2.6,3.9-3c1.8-0.3,1.8,2.7,2.2,4.5
		c0.4,1.7,0.7,2.6,1.1,2.6s1.1-0.9,1.8-2.3c0.8-1.4,0-2.7-1.5-1.8C13.6,6.6,19.2,5.8,18.4,9.9z"/>
</g>
<g id="Outline_Icons">
	<g>
		<circle class="st2" cx="12" cy="12" r="11.5"/>
		<path class="st3" d="M5.5,10.2L6,10.9c0,0,1.1-0.9,1.5-0.4c0.4,0.4,1.7,5.6,2.2,6.6c0.4,0.8,1.5,1.9,2.7,1.2
			c1.2-0.8,5.3-4.3,6-8.3c0.7-4.1-4.9-3.2-5.5,0.3c1.5-0.9,2.3,0.4,1.5,1.8c-0.8,1.4-1.5,2.3-1.8,2.3c-0.4,0-0.6-0.9-1.1-2.6
			c-0.4-1.7-0.4-4.8-2.2-4.5C7.7,7.6,5.5,10.2,5.5,10.2z"/>
	</g>
</g>
</svg>
