<?xml version="1.0" encoding="utf-8"?>
<!-- Generator: Adobe Illustrator 19.2.0, SVG Export Plug-In . SVG Version: 6.00 Build 0)  -->
<svg version="1.1" id="Layer_1" xmlns="http://www.w3.org/2000/svg" xmlns:xlink="http://www.w3.org/1999/xlink" x="0px" y="0px"
	 viewBox="0 0 24 24" style="enable-background:new 0 0 24 24;" xml:space="preserve">
<style type="text/css">
	.st0{display:none;}
	.st1{display:inline;}
	.st2{fill:none;stroke:#000000;stroke-linecap:round;stroke-linejoin:round;stroke-miterlimit:10;}
	.st3{fill:none;stroke:#000000;stroke-linejoin:round;stroke-miterlimit:10;}
</style>
<g id="Filled_Icons" class="st0">
	<path class="st1" d="M12,0C5.4,0,0,5.4,0,12s5.4,12,12,12s12-5.4,12-12S18.6,0,12,0z M8.8,15.6c-0.5,0-0.9-0.3-0.7-0.8
		c0.1-0.4,0.4-0.7,0.9-0.7c0.5,0,0.8,0.3,0.7,0.8C9.6,15.3,9.2,15.6,8.8,15.6z M17,15.4c-1.1,1.4-2.7,2.1-4.4,2.4
		C12,18,11.4,18,10.7,18c0.3,0,0.6-0.1,1-0.2c1.2-0.3,2.6-1,3.1-2.2c0.5-1.1,0-2.2-1-2.8c-1.5-0.9-3.5-0.9-5.1-0.4
		c-2.1,0.7-3.4,2.5-2.4,4c0.2,0.3,0.5,0.6,0.8,0.8C6,16.8,4.9,16,4.6,14.8c-0.7-2.7,2.9-6.2,5.3-7c0.4-0.2,1.2-0.2,1.6,0
		C12.1,8.1,12,9,11.9,9.5c0,0.1-0.1,0.2,0,0.3c0.1,0.2,0.6-0.1,0.9-0.2c0.4-0.1,0.8-0.3,1.3-0.3c1-0.1,1.9,0.2,1.7,1.3
		c0,0.2-0.1,0.4-0.2,0.6c-0.1,0.3-0.1,0.3,0.2,0.4c0.4,0.1,0.8,0.3,1.2,0.7C17.9,13.2,17.7,14.5,17,15.4z M17.9,10.5
		c-0.1,0.2-0.3,0.3-0.5,0.3c-0.3,0-0.6-0.3-0.5-0.7C17,10,17,9.9,17,9.7c0-0.8-0.7-1.5-1.5-1.5c-0.2,0-0.3,0-0.5,0.1
		c-0.3,0.1-0.5,0-0.6-0.3c-0.1-0.3,0-0.5,0.3-0.6c0.3-0.1,0.5-0.1,0.8-0.1c1.4,0,2.5,1.1,2.5,2.5C18,10,18,10.3,17.9,10.5z
		 M19.9,10.8c0,0.3-0.3,0.5-0.6,0.4c-0.3,0-0.5-0.3-0.4-0.6c0-0.2,0-0.4,0-0.6c0-2.1-1.7-3.7-3.7-3.7c-0.4,0-0.8,0.1-1.2,0.2
		c-0.3,0.1-0.5-0.1-0.6-0.3c-0.1-0.3,0.1-0.5,0.3-0.6c0.5-0.2,1-0.2,1.5-0.2c2.6,0,4.7,2.1,4.7,4.7C20,10.3,20,10.5,19.9,10.8z"/>
</g>
<g id="Outline_Icons">
	<g>
		<circle class="st2" cx="12" cy="12" r="11.5"/>
		<path class="st3" d="M9.7,14.9c0.1-0.5-0.3-0.8-0.7-0.8c-0.4,0-0.8,0.3-0.9,0.7c-0.1,0.5,0.3,0.8,0.7,0.8
			C9.2,15.6,9.6,15.3,9.7,14.9L9.7,14.9z M16.6,12.1c-0.3-0.2-0.5-0.3-0.8-0.4c-0.3-0.1-0.3-0.1-0.2-0.4c0.1-0.2,0.1-0.4,0.2-0.6
			C15.8,9.6,15,9.3,14,9.4c-0.5,0-0.9,0.2-1.3,0.3c-0.3,0.1-0.8,0.4-0.9,0.2c-0.1-0.1,0-0.2,0-0.3C12,9,12.1,8.1,11.5,7.8
			c-0.4-0.3-1.1-0.2-1.6,0c-2.4,0.8-6.1,4.3-5.3,7c0.2,0.6,0.5,1.1,0.9,1.4c1,1,2.5,1.5,4,1.8c1,0.1,2.1,0.1,3.2-0.1
			c1.7-0.3,3.3-1.1,4.4-2.4c0.7-0.9,0.9-2.2,0-3C16.8,12.3,16.7,12.2,16.6,12.1L16.6,12.1z"/>
		<path class="st2" d="M13.9,6c0.4-0.1,0.9-0.2,1.3-0.2c2.3,0,4.2,1.9,4.2,4.2c0,0.2,0,0.5-0.1,0.7"/>
		<path class="st2" d="M14.9,7.9c0.2-0.1,0.4-0.1,0.7-0.1c1.1,0,2,0.9,2,2c0,0.2,0,0.4-0.1,0.6"/>
		<path class="st3" d="M13.8,12.8c-1.5-0.9-3.5-0.9-5.1-0.4c-0.8,0.3-1.7,0.8-2.2,1.4c-0.6,0.7-0.8,1.7-0.2,2.6
			c0.9,1.3,3,1.6,5.3,1.4c1.2-0.3,2.6-1,3.1-2.2C15.4,14.6,14.8,13.5,13.8,12.8L13.8,12.8z"/>
	</g>
</g>
</svg>
