<?xml version="1.0" encoding="utf-8"?>
<!-- Generator: Adobe Illustrator 19.2.0, SVG Export Plug-In . SVG Version: 6.00 Build 0)  -->
<svg version="1.1" id="Layer_1" xmlns="http://www.w3.org/2000/svg" xmlns:xlink="http://www.w3.org/1999/xlink" x="0px" y="0px"
	 viewBox="0 0 24 24" style="enable-background:new 0 0 24 24;" xml:space="preserve">
<style type="text/css">
	.st0{display:none;}
	.st1{display:inline;}
	.st2{fill:none;stroke:#000000;stroke-linejoin:round;stroke-miterlimit:10;}
	.st3{fill:none;stroke:#000000;stroke-linecap:round;stroke-linejoin:round;stroke-miterlimit:10;}
</style>
<g id="Filled_Icons" class="st0">
	<g class="st1">
		<path d="M19.5,0.5h-15c-2.2,0-4,1.8-4,4v15c0,2.2,1.8,4,4,4h15c2.2,0,4-1.8,4-4v-15C23.5,2.3,21.7,0.5,19.5,0.5z M12.5,20.1
			c-0.9,0.6-1.2,0.4-1.3,0.2c-0.1-0.2,0.2-0.8,0.3-1.4c0.1-0.6,0-0.8-0.6-0.9c-5.1-0.8-7.6-4-7.6-7.2c0-4,3.9-7.3,8.7-7.3
			s8.7,3.2,8.7,7.3C20.7,14.9,16,17.8,12.5,20.1z"/>
		<g>
			<path d="M7.5,12H7V9.5C7,9.3,6.8,9,6.5,9S6,9.3,6,9.5v3C6,12.8,6.2,13,6.5,13h1C7.8,13,8,12.8,8,12.5C8,12.2,7.8,12,7.5,12z"/>
			<path d="M9.5,9C9.2,9,9,9.3,9,9.5v3C9,12.8,9.2,13,9.5,13s0.5-0.2,0.5-0.5v-3C10,9.3,9.8,9,9.5,9z"/>
			<path d="M13.5,9C13.2,9,13,9.3,13,9.5v1.3l-1.1-1.6c-0.1-0.2-0.4-0.3-0.6-0.2C11.2,9.1,11,9.3,11,9.5v3c0,0.3,0.2,0.5,0.5,0.5
				s0.5-0.2,0.5-0.5v-1.3l1.1,1.6c0.1,0.1,0.3,0.2,0.4,0.2c0.1,0,0.1,0,0.1,0c0.2-0.1,0.4-0.3,0.4-0.5v-3C14,9.3,13.8,9,13.5,9z"/>
			<path d="M17.5,11.5c0.3,0,0.5-0.2,0.5-0.5s-0.2-0.5-0.5-0.5H16V10h1.5c0.3,0,0.5-0.2,0.5-0.5S17.8,9,17.5,9h-2
				C15.2,9,15,9.2,15,9.5v3c0,0.3,0.2,0.5,0.5,0.5h2c0.3,0,0.5-0.2,0.5-0.5c0-0.3-0.2-0.5-0.5-0.5H16v-0.5H17.5z"/>
		</g>
	</g>
</g>
<g id="Outline_Icons">
	<g>
		<g id="Layer_1_2_">
			<path class="st2" d="M19.5,0.5h-15c-2.2,0-4,1.8-4,4v15c0,2.2,1.8,4,4,4h15c2.2,0,4-1.8,4-4v-15C23.5,2.3,21.7,0.5,19.5,0.5z
				 M18.3,15.8c-0.2,0.2-0.4,0.4-0.6,0.6c-0.6,0.5-4.3,3.2-5.2,3.8c-0.9,0.6-1.2,0.4-1.3,0.2c-0.1-0.2,0.2-0.8,0.3-1.4
				c0.1-0.6,0-0.8-0.6-0.9c0,0-0.1,0-0.1,0c-4.2-0.5-7.4-3.5-7.4-7.2c0-4,3.9-7.3,8.7-7.3s8.7,3.2,8.7,7.3
				C20.7,12.7,19.8,14.4,18.3,15.8z"/>
		</g>
		<polyline class="st3" points="6.5,9.5 6.5,12.5 7.5,12.5 		"/>
		<line class="st3" x1="9.5" y1="9.5" x2="9.5" y2="12.5"/>
		<polyline class="st3" points="11.5,12.5 11.5,9.5 13.5,12.5 13.5,9.5 		"/>
		<polyline class="st3" points="17.5,9.5 15.5,9.5 15.5,12.5 17.5,12.5 		"/>
		<line class="st3" x1="15.5" y1="11" x2="17.5" y2="11"/>
	</g>
</g>
</svg>
