<?xml version="1.0" encoding="utf-8"?>
<!-- Generator: Adobe Illustrator 19.2.0, SVG Export Plug-In . SVG Version: 6.00 Build 0)  -->
<svg version="1.1" id="Layer_1" xmlns="http://www.w3.org/2000/svg" xmlns:xlink="http://www.w3.org/1999/xlink" x="0px" y="0px"
	 viewBox="0 0 24 24" style="enable-background:new 0 0 24 24;" xml:space="preserve">
<style type="text/css">
	.st0{display:none;}
	.st1{display:inline;}
	.st2{fill:none;stroke:#000000;stroke-linejoin:round;stroke-miterlimit:10;}
</style>
<g id="Filled_Icons" class="st0">
	<path class="st1" d="M23.7,17.3c-0.5-0.9-1.6-2-2.4-2.8c-1.3-1.2-1.3-1.2,0-2.8c0.2-0.3,0.5-0.6,0.8-1c2-2.6,2.1-3.5,1.9-4
		C23.8,6.4,23.5,6,22.5,6c0,0,0.2,0-3.8,0c-0.2,0-0.4,0-0.6,0.2c-0.3,0.2-0.5,0.5-0.5,0.6c-0.6,1.7-2.3,4.7-3,5
		c-0.3-0.3-0.2-1.5-0.1-2.4c0.1-1.6,0.2-3.5-1.2-3.8c-1-0.2-3.9-0.3-4.8,0.2C8.1,5.9,7.6,6.4,7.6,6.9l0.1,0.4l0.4,0
		c0.2,0,0.5,0.1,0.7,0.3c0.3,0.5,0.4,3.7,0.1,4.2c-0.6-0.1-2.3-3.1-3.1-4.9c0-0.1-0.2-0.4-0.5-0.6C5.1,6.1,4.7,6,4.5,6L1.2,6
		c-0.2,0-0.7,0-1,0.4c-0.3,0.4-0.1,1-0.1,1.1c0.1,0.2,2.6,5.9,5.6,9c2.5,2.6,5,2.5,6.8,2.6c1.3,0,1.4-0.1,1.6-0.2
		c0.3-0.4,0.4-0.9,0.4-1.4c0-0.7,0.1-1,0.4-1.1c0.2,0,0.9,0.7,1.2,1.1c0.4,0.5,0.9,1.1,1.4,1.4c0.7,0.5,1.4,0.6,1.7,0.6
		c0,0-0.2,0,3.2,0c0.1,0,1-0.1,1.4-0.7C24,18.4,24.1,18,23.7,17.3z"/>
</g>
<g id="Outline_Icons">
	<path class="st2" d="M9.1,12.3C8,12.8,5.8,8.2,5.4,7.1c0,0-0.1-0.3-0.3-0.4C4.8,6.5,4.5,6.5,4.5,6.5l-3.3,0c0,0-0.5,0-0.7,0.2
		c-0.2,0.2,0,0.6,0,0.6s2.6,5.8,5.5,8.9c2.7,2.8,5.7,2.4,5.7,2.4c0.2,0,1.9,0,2-0.1c0.6-0.6-0.1-2.2,1-2.6c0.8-0.3,1.9,1.8,3.1,2.6
		c0.9,0.6,1.5,0.5,1.5,0.5l3.1,0c0,0,1.6-0.1,0.8-1.4c-0.1-0.1-0.4-0.9-2.3-2.6c-1.9-1.8-1.7-1.5,0.7-4.6c1.4-1.9,2-3,1.8-3.5
		c-0.2-0.5-1.2-0.3-1.2-0.3l-3.5,0c0,0-0.3,0-0.4,0.1C18.2,6.7,18,7,18,7c-0.5,1.3-2.8,5.9-3.7,5.3c-1.2-0.8,0.6-5.8-1.2-6.2
		c-0.4-0.1-0.7-0.2-1.6-0.2c-1.2,0-2.3,0-2.9,0.3C8.3,6.4,8,6.8,8.2,6.8c0.2,0,0.7,0.1,1,0.5C9.7,8,9.8,11.9,9.1,12.3z"/>
</g>
</svg>
