<?xml version="1.0" encoding="utf-8"?>
<!-- Generator: Adobe Illustrator 19.2.0, SVG Export Plug-In . SVG Version: 6.00 Build 0)  -->
<svg version="1.1" id="Layer_1" xmlns="http://www.w3.org/2000/svg" xmlns:xlink="http://www.w3.org/1999/xlink" x="0px" y="0px"
	 viewBox="0 0 24 24" style="enable-background:new 0 0 24 24;" xml:space="preserve">
<style type="text/css">
	.st0{display:none;}
	.st1{display:inline;}
	.st2{fill:none;stroke:#000000;stroke-linejoin:round;stroke-miterlimit:10;}
</style>
<g id="Filled_Icons" class="st0">
	<g class="st1">
		<path d="M7.4,12.2L1.7,6.5C0.9,7.7,0.5,9,0.5,10.4c0,2.2,1,4.2,2.7,5.7L7.4,12.2z"/>
		<path d="M8.2,11.6l9.7-8.8C16.2,2,14.2,1.5,12,1.5c-4.1,0-7.7,1.7-9.7,4.2L8.2,11.6z"/>
		<path d="M12.3,9.2l-8.4,7.6l0,0l-2.6,4.9L8,18.7c1.3,0.4,2.6,0.6,4,0.6c3,0,5.7-0.9,7.8-2.4L12.3,9.2z"/>
		<path d="M18.9,3.3l-5.8,5.2l7.5,7.8c1.8-1.6,2.9-3.7,2.9-5.9C23.5,7.5,21.7,4.9,18.9,3.3z"/>
	</g>
</g>
<g id="Outline_Icons">
	<g>
		<g>
			<path class="st2" d="M23.5,10.4c0,4.9-5.1,8.9-11.5,8.9c-1.4,0-2.8-0.2-4-0.6l-6.6,2.9L4,16.8c-2.1-1.6-3.5-3.9-3.5-6.4
				c0-4.9,5.1-8.9,11.5-8.9S23.5,5.5,23.5,10.4z"/>
		</g>
		<line class="st2" x1="3.8" y1="16.6" x2="18.7" y2="3.2"/>
		<line class="st2" x1="2" y1="6" x2="8.5" y2="12.4"/>
		<line class="st2" x1="12.6" y1="8.6" x2="20.3" y2="16.6"/>
	</g>
</g>
</svg>
