<?xml version="1.0" encoding="utf-8"?>
<!-- Generator: Adobe Illustrator 19.2.0, SVG Export Plug-In . SVG Version: 6.00 Build 0)  -->
<svg version="1.1" id="Layer_1" xmlns="http://www.w3.org/2000/svg" xmlns:xlink="http://www.w3.org/1999/xlink" x="0px" y="0px"
	 viewBox="0 0 24 24" style="enable-background:new 0 0 24 24;" xml:space="preserve">
<style type="text/css">
	.st0{display:none;}
	.st1{display:inline;}
	.st2{fill:none;stroke:#000000;stroke-linecap:round;stroke-linejoin:round;stroke-miterlimit:10;}
	.st3{fill:none;stroke:#000000;stroke-linejoin:round;stroke-miterlimit:10;}
</style>
<g id="Filled_Icons" class="st0">
	<path class="st1" d="M12,0C5.4,0,0,5.4,0,12s5.4,12,12,12s12-5.4,12-12S18.6,0,12,0z M13.6,9.9c0.3-0.4,2.8-2.3,3.2-2.4
		c0.7-0.2,1.2,0.6,0.6,1.2c-0.3,0.3-3.1,1.5-3.7,1.6c-0.1,0-0.3,0.1-0.3,0C13.5,10.2,13.6,10,13.6,9.9z M12.4,6.7l-3.3,9.6
		c-0.3,1-1.3,1.7-2.4,1.7H5c-0.3,0-0.5-0.2-0.5-0.5S4.7,17,5,17h1.8c0.6,0,1.2-0.4,1.4-1l0.3-0.8L5.6,6.7C5.5,6.5,5.6,6.2,5.9,6.1
		C6.2,6,6.4,6.2,6.5,6.4L9,13.7l2.5-7.2c0.1-0.3,0.4-0.4,0.6-0.3C12.3,6.2,12.5,6.5,12.4,6.7z M16.9,16.5c-0.5-0.1-2.9-2.1-3.2-2.4
		c-0.1-0.1-0.2-0.2-0.1-0.3c0-0.1,0.2,0,0.3,0c0.5,0.1,3.3,1.2,3.7,1.6C18.1,15.9,17.6,16.7,16.9,16.5z M19.2,12
		c0,0.3-0.2,0.5-0.5,0.6c-0.4,0.1-2.6-0.1-3.7-0.4c-0.3-0.1-0.5-0.2-0.5-0.3c0-0.1,0.2-0.2,0.5-0.3c1.1-0.3,3.3-0.5,3.7-0.4
		C19.1,11.4,19.2,11.7,19.2,12L19.2,12z"/>
</g>
<g id="Outline_Icons">
	<g>
		<circle class="st2" cx="12" cy="12" r="11.5"/>
		<path class="st3" d="M13.6,9.9c0.3-0.4,2.8-2.3,3.2-2.4c0.7-0.2,1.2,0.6,0.6,1.2c-0.3,0.3-3.1,1.5-3.7,1.6c-0.1,0-0.3,0.1-0.3,0
			C13.5,10.2,13.6,10,13.6,9.9L13.6,9.9z M18.7,11.3c0.3,0.1,0.5,0.4,0.5,0.6v0l0,0c0,0.3-0.2,0.5-0.5,0.6c-0.4,0.1-2.6-0.1-3.7-0.4
			c-0.3-0.1-0.5-0.2-0.5-0.3c0-0.1,0.2-0.2,0.5-0.3C16.1,11.4,18.4,11.2,18.7,11.3L18.7,11.3z M13.5,13.8c0-0.1,0.2,0,0.3,0
			c0.5,0.1,3.3,1.2,3.7,1.6c0.5,0.6,0.1,1.3-0.6,1.2c-0.5-0.1-2.9-2.1-3.2-2.4C13.6,14,13.5,13.8,13.5,13.8L13.5,13.8z"/>
		<path class="st2" d="M11.9,6.6l-3.3,9.6c-0.3,0.8-1,1.4-1.9,1.4H5"/>
		<line class="st2" x1="6" y1="6.6" x2="9" y2="15.2"/>
	</g>
</g>
</svg>
