<?xml version="1.0" encoding="utf-8"?>
<!-- Generator: Adobe Illustrator 19.2.0, SVG Export Plug-In . SVG Version: 6.00 Build 0)  -->
<svg version="1.1" id="Layer_1" xmlns="http://www.w3.org/2000/svg" xmlns:xlink="http://www.w3.org/1999/xlink" x="0px" y="0px"
	 viewBox="0 0 24 24" style="enable-background:new 0 0 24 24;" xml:space="preserve">
<style type="text/css">
	.st0{display:none;}
	.st1{display:inline;}
	.st2{fill:none;stroke:#000000;stroke-linejoin:round;stroke-miterlimit:10;}
</style>
<g id="Filled_Icons" class="st0">
	<path class="st1" d="M21.5,22.8L12,0.8c-0.1-0.2-0.3-0.3-0.5-0.3S11.1,0.6,11,0.8L1.5,22.8c-0.1,0.2-0.1,0.4,0,0.5
		c0.1,0.1,0.3,0.2,0.4,0.2H11V19l-3-1.6c-0.2-0.1-0.3-0.4-0.2-0.7c0.1-0.2,0.4-0.3,0.7-0.2l2.6,1.4V15c0-0.3,0.2-0.5,0.5-0.5
		S12,14.7,12,15v2l2.7-1.5c0.2-0.1,0.5,0,0.7,0.2c0.1,0.2,0,0.5-0.2,0.7L12,18.1c0,0,0,0,0,0v1.2l4.3-2.2c0.2-0.1,0.5,0,0.7,0.2
		c0.1,0.2,0,0.5-0.2,0.7L12,20.5v3h9c0.2,0,0.3-0.1,0.4-0.2C21.6,23.1,21.6,22.9,21.5,22.8z"/>
</g>
<g id="Outline_Icons">
	<g>
		<path class="st2" d="M10.5,14.5h2v9H21c0.2,0,0.3-0.1,0.4-0.2c0.1-0.1,0.1-0.3,0-0.5L12,0.8c-0.1-0.2-0.3-0.3-0.5-0.3l0,0
			c-0.2,0-0.4,0.1-0.5,0.3L1.5,22.8c-0.1,0.2-0.1,0.4,0,0.5c0.1,0.1,0.3,0.2,0.4,0.2h8.6V14.5z"/>
		<line class="st2" x1="12.5" y1="17.2" x2="14.9" y2="15.9"/>
		<line class="st2" x1="10.5" y1="18.2" x2="8.2" y2="16.9"/>
		<line class="st2" x1="12.5" y1="19.6" x2="16.5" y2="17.6"/>
	</g>
</g>
</svg>
