<?xml version="1.0" encoding="utf-8"?>
<!-- Generator: Adobe Illustrator 19.2.0, SVG Export Plug-In . SVG Version: 6.00 Build 0)  -->
<svg version="1.1" id="Layer_1" xmlns="http://www.w3.org/2000/svg" xmlns:xlink="http://www.w3.org/1999/xlink" x="0px" y="0px"
	 viewBox="0 0 24 24" style="enable-background:new 0 0 24 24;" xml:space="preserve">
<style type="text/css">
	.st0{display:none;}
	.st1{display:inline;}
	.st2{fill:none;stroke:#000000;stroke-linecap:round;stroke-linejoin:round;stroke-miterlimit:10;}
	.st3{fill:none;stroke:#000000;stroke-linejoin:round;stroke-miterlimit:10;}
</style>
<g id="Filled_Icons" class="st0">
	<g class="st1">
		<polygon points="8.1,11.1 12,13.5 15.9,11.1 12,8.7 		"/>
		<path d="M12,0C5.4,0,0,5.4,0,12s5.4,12,12,12s12-5.4,12-12S18.6,0,12,0z M16.5,16.8L12,19.1l-4.5-2.3v-1.1l1.9,1.2l2.6-2.2
			l2.6,2.2l1.9-1.2V16.8z M18.5,13.2l-3.8,2.5L12,13.5l-2.7,2.2l-3.8-2.5l2.6-2.1L5.5,9l3.8-2.5L12,8.7l2.7-2.2L18.5,9l-2.6,2.1
			L18.5,13.2z"/>
	</g>
</g>
<g id="Outline_Icons">
	<g>
		<circle class="st2" cx="12" cy="12" r="11.5"/>
		<polygon class="st3" points="5.5,13.2 9.3,15.7 12,13.5 8.1,11.1 		"/>
		<polygon class="st3" points="9.3,6.5 5.5,9 8.1,11.1 12,8.7 		"/>
		<polygon class="st3" points="18.5,9 14.7,6.5 12,8.7 15.9,11.1 		"/>
		<polygon class="st3" points="12,13.5 14.7,15.7 18.5,13.2 15.9,11.1 		"/>
		<polyline class="st3" points="7.5,14.5 7.5,16.8 12,19.1 16.5,16.8 16.5,14.5 		"/>
	</g>
</g>
</svg>
