<?xml version="1.0" encoding="utf-8"?>
<!-- Generator: Adobe Illustrator 19.2.0, SVG Export Plug-In . SVG Version: 6.00 Build 0)  -->
<svg version="1.1" id="Layer_1" xmlns="http://www.w3.org/2000/svg" xmlns:xlink="http://www.w3.org/1999/xlink" x="0px" y="0px"
	 viewBox="0 0 24 24" style="enable-background:new 0 0 24 24;" xml:space="preserve">
<style type="text/css">
	.st0{display:none;}
	.st1{display:inline;}
	.st2{fill:none;stroke:#000000;stroke-linejoin:round;stroke-miterlimit:10;}
</style>
<g id="Filled_Icons" class="st0">
	<g class="st1">
		<g>
			<path d="M6.1,10H0.5C0.2,10,0,10.2,0,10.5v4C0,14.8,0.2,15,0.5,15h2.8L6.1,10z"/>
			<path d="M15.2,15c-0.7-1.5-1.5-3.3-2.2-5h-0.3l-2.8,5H15.2z"/>
			<path d="M23.5,10h-5c0.8,1.4,1.7,3.1,2.7,5h2.3c0.3,0,0.5-0.2,0.5-0.5v-4C24,10.2,23.8,10,23.5,10z"/>
		</g>
		<g>
			<path d="M12,7.1l-1.4-0.8C10.1,6,9.4,6.2,9.2,6.7L3.4,16.8c-0.1,0.2-0.2,0.5-0.1,0.8c0.1,0.3,0.2,0.5,0.5,0.6L5.2,19
				c0.2,0.1,0.3,0.1,0.5,0.1c0.4,0,0.7-0.2,0.9-0.5l5.8-10.1C12.6,8,12.5,7.4,12,7.1z"/>
			<path d="M4.6,19.8L3.2,19c-0.5-0.3-1.2,0-1.3,0.6l-0.2,2.1c0,0.3,0.1,0.5,0.2,0.6c0.1,0.1,0.3,0.2,0.5,0.2c0.2,0,0.3-0.1,0.5-0.2
				l1.8-1.2C4.9,21,5,20.8,5,20.5C5,20.2,4.8,20,4.6,19.8z"/>
			<path d="M20.2,18.9c0.4-0.2,0.9-0.5,1-1c0.1-0.3,0.1-0.7-0.1-1c0-0.1-0.2-0.4-0.4-0.8C12.6,0.8,12,0.8,11.4,0.8
				c-0.1,0-0.2,0-0.3,0.1c-0.1,0.1-0.3,0.2-0.3,0.6c0,1.8,6.7,16.9,7.7,17.4c0.3,0.1,0.5,0.2,0.8,0.2C19.7,19.2,19.9,19.1,20.2,18.9
				z"/>
			<path d="M22.7,19.6c-0.5-0.5-1.2-0.6-2.1-0.1c0,0-0.1,0.1-0.1,0.1c-0.6,0.6-0.7,1.3-0.1,2.1c0.4,0.6,1,0.8,1.5,1
				c0.2,0.1,0.5,0.2,0.6,0.3c0.1,0.2,0.3,0.4,0.5,0.3c0.2,0,0.4-0.2,0.4-0.4C23.3,22.6,23.5,20.5,22.7,19.6z"/>
		</g>
	</g>
</g>
<g id="Outline_Icons">
	<g>
		<path class="st2" d="M11.9,8.3C12.1,8,12,7.7,11.7,7.5l-1.4-0.8c-0.3-0.1-0.6-0.1-0.7,0.2L3.8,17.1c-0.1,0.3-0.1,0.6,0.2,0.7
			l1.4,0.8c0.3,0.1,0.6,0.1,0.7-0.2L11.9,8.3z"/>
		<path class="st2" d="M4.3,20.2l-1.4-0.8c-0.3-0.1-0.5,0-0.5,0.3l-0.2,2.1c0,0.3,0.1,0.4,0.4,0.2l1.8-1.2
			C4.6,20.6,4.6,20.4,4.3,20.2z"/>
		<path class="st2" d="M20.7,17.2c-0.4-0.8-8.5-16.3-9.2-15.9c-0.8,0.4,6.8,16.9,7.4,17.2c0.6,0.3,0.8,0.1,1.1,0
			C20.3,18.3,21,17.8,20.7,17.2z"/>
		<path class="st2" d="M20.8,19.9c-0.2,0.2-0.7,0.6-0.1,1.5c0.6,0.8,1.9,0.9,2.1,1.4C22.8,22.8,23.2,18.5,20.8,19.9z"/>
		<line class="st2" x1="10" y1="14.5" x2="15" y2="14.5"/>
		<polyline class="st2" points="6,10.5 0.5,10.5 0.5,14.5 3,14.5 		"/>
		<polyline class="st2" points="21,14.5 23.5,14.5 23.5,10.5 19,10.5 		"/>
	</g>
</g>
</svg>
