<?xml version="1.0" encoding="utf-8"?>
<!-- Generator: Adobe Illustrator 19.2.0, SVG Export Plug-In . SVG Version: 6.00 Build 0)  -->
<svg version="1.1" id="Layer_1" xmlns="http://www.w3.org/2000/svg" xmlns:xlink="http://www.w3.org/1999/xlink" x="0px" y="0px"
	 viewBox="0 0 24 24" style="enable-background:new 0 0 24 24;" xml:space="preserve">
<style type="text/css">
	.st0{display:none;}
	.st1{display:inline;}
	.st2{fill:none;stroke:#000000;stroke-linejoin:round;stroke-miterlimit:10;}
</style>
<g id="Filled_Icons" class="st0">
	<g class="st1">
		<circle cx="19.5" cy="18.5" r="3"/>
		<path d="M16.1,15c-2-5.8-10.2-5.2-10.2-8.8c0-1.8,1.8-2.6,3.6-2.6c0.9,0,1.5,0.1,2,0.4c-0.8,1.7,0.5,3.5,2.3,3.5
			c1.4,0,2.5-1.1,2.5-2.5c0-1.7-3-4.4-7.1-4.4c-3.4,0-6.4,2.3-6.4,5.6c0,6.8,9.8,5.7,9.8,10.9c0,3.3-4.1,4.8-6.8,1.7
			c0.5-0.5,0.8-1.1,0.8-1.8c0-1.4-1.1-2.5-2.5-2.5c-1.4,0-2.5,1.1-2.5,2.5c0,1.3,2.2,6.6,8.1,6.6c2.2,0,4-0.9,5.3-2.5
			c-0.4-0.7-0.7-1.5-0.7-2.4C14.3,17.1,15,15.8,16.1,15z"/>
	</g>
</g>
<g id="Outline_Icons">
	<g>
		<circle class="st2" cx="19.5" cy="18.5" r="3"/>
		<path class="st2" d="M16.1,15c0,0,0-0.1,0-0.1C14,9.2,5.9,9.7,5.9,6.1c0-1.8,1.8-2.6,3.6-2.6c0.9,0,1.5,0.1,2,0.4
			c-0.8,1.7,0.5,3.5,2.3,3.5c1.4,0,2.5-1.1,2.5-2.5c0-1.7-3-4.4-7.1-4.4c-3.4,0-6.4,2.3-6.4,5.6c0,6.8,9.8,5.7,9.8,10.9
			c0,3.3-4.1,4.8-6.8,1.7c0.5-0.5,0.8-1.1,0.8-1.8c0-1.4-1.1-2.5-2.5-2.5c-1.4,0-2.5,1.1-2.5,2.5c0,1.3,2.2,6.6,8.1,6.6
			c2.2,0,4-0.9,5.3-2.5c-0.4-0.7-0.7-1.5-0.7-2.4C14.3,17.1,15,15.8,16.1,15z"/>
	</g>
</g>
</svg>
