<?xml version="1.0" encoding="utf-8"?>
<!-- Generator: Adobe Illustrator 19.2.0, SVG Export Plug-In . SVG Version: 6.00 Build 0)  -->
<svg version="1.1" id="Layer_1" xmlns="http://www.w3.org/2000/svg" xmlns:xlink="http://www.w3.org/1999/xlink" x="0px" y="0px"
	 viewBox="0 0 24 24" style="enable-background:new 0 0 24 24;" xml:space="preserve">
<style type="text/css">
	.st0{display:none;}
	.st1{display:inline;}
	.st2{fill:none;stroke:#000000;stroke-linejoin:round;stroke-miterlimit:10;}
</style>
<g id="Filled_Icons" class="st0">
	<g class="st1">
		<path d="M19.5,5.5h3v-3h-4c-2.2,0-4,1.8-4,4v3h-6v-2c0-1.1,0.9-2,2-2h3v-3h-4c-2.2,0-4,1.8-4,4v3h-4v3h4v11h3v-11h6v11h3v-11h5v-3
			h-5v-2C17.5,6.4,18.4,5.5,19.5,5.5z"/>
	</g>
</g>
<g id="Outline_Icons">
	<g>
		<path class="st2" d="M19.5,5.5h3v-3h-4c-2.2,0-4,1.8-4,4v3h-6v-2c0-1.1,0.9-2,2-2h3v-3h-4c-2.2,0-4,1.8-4,4v3h-4v3h4v11h3v-11h6
			v11h3v-11h5v-3h-5v-2C17.5,6.4,18.4,5.5,19.5,5.5z"/>
	</g>
</g>
</svg>
