<?xml version="1.0" encoding="utf-8"?>
<!-- Generator: Adobe Illustrator 19.2.0, SVG Export Plug-In . SVG Version: 6.00 Build 0)  -->
<svg version="1.1" id="Layer_1" xmlns="http://www.w3.org/2000/svg" xmlns:xlink="http://www.w3.org/1999/xlink" x="0px" y="0px"
	 viewBox="0 0 24 24" style="enable-background:new 0 0 24 24;" xml:space="preserve">
<style type="text/css">
	.st0{display:none;}
	.st1{display:inline;}
	.st2{fill:none;stroke:#000000;stroke-linecap:round;stroke-linejoin:round;stroke-miterlimit:10;}
</style>
<g id="Filled_Icons" class="st0">
	<g class="st1">
		<path d="M3.3,13.4c0-5.6,4.5-10.1,10.1-10.1c5.3,0,9.7,4.2,10.1,9.4c0-0.2,0-0.5,0-0.7c0-6.3-5.1-11.5-11.5-11.5S0.5,5.7,0.5,12
			c0,6.4,5.1,11.5,11.5,11.5c0.2,0,0.5,0,0.7,0C7.5,23.1,3.3,18.8,3.3,13.4L3.3,13.4z"/>
		<path d="M14,6.4c-4.1,0-7.5,3.4-7.5,7.5c0,4.1,3.4,7.5,7.5,7.5c4.1,0,7.5-3.4,7.5-7.5c0-0.4,0-0.9-0.1-1.3
			c-0.6,0.8-1.6,1.3-2.7,1.3c-1.9,0-3.4-1.5-3.4-3.4c0-1.5,0.9-2.7,2.3-3.2C16.5,6.7,15.3,6.4,14,6.4L14,6.4z"/>
	</g>
</g>
<g id="Outline_Icons">
	<g>
		<path class="st2" d="M3.3,13.4c0-5.6,4.5-10.1,10.1-10.1c5.3,0,9.7,4.2,10.1,9.4c0-0.2,0-0.5,0-0.7c0-6.3-5.1-11.5-11.5-11.5
			S0.5,5.7,0.5,12c0,6.4,5.1,11.5,11.5,11.5c0.2,0,0.5,0,0.7,0C7.5,23.1,3.3,18.8,3.3,13.4L3.3,13.4z"/>
		<path class="st2" d="M14,6.4c-4.1,0-7.5,3.4-7.5,7.5c0,4.1,3.4,7.5,7.5,7.5c4.1,0,7.5-3.4,7.5-7.5c0-0.4,0-0.9-0.1-1.3
			c-0.6,0.8-1.6,1.3-2.7,1.3c-1.9,0-3.4-1.5-3.4-3.4c0-1.5,0.9-2.7,2.3-3.2C16.5,6.7,15.3,6.4,14,6.4L14,6.4z"/>
	</g>
</g>
</svg>
