<?xml version="1.0" encoding="utf-8"?>
<!-- Generator: Adobe Illustrator 19.2.0, SVG Export Plug-In . SVG Version: 6.00 Build 0)  -->
<svg version="1.1" id="Layer_1" xmlns="http://www.w3.org/2000/svg" xmlns:xlink="http://www.w3.org/1999/xlink" x="0px" y="0px"
	 viewBox="0 0 24 24" style="enable-background:new 0 0 24 24;" xml:space="preserve">
<style type="text/css">
	.st0{display:none;}
	.st1{display:inline;}
	.st2{fill:none;stroke:#000000;stroke-linecap:round;stroke-linejoin:round;stroke-miterlimit:10;}
	.st3{fill:none;stroke:#000000;stroke-linejoin:round;stroke-miterlimit:10;}
</style>
<g id="Filled_Icons" class="st0">
	<path class="st1" d="M12,0C5.4,0,0,5.4,0,12s5.4,12,12,12s12-5.4,12-12S18.6,0,12,0z M15.2,7.1c1.7,0.1,1.6,4.1,0.2,4
		C14,11,13.9,7,15.2,7.1z M11.7,8.4c1.7-0.5,2,3.4,0.6,3.5C10.6,12,10.6,8.8,11.7,8.4z M13.3,17.8c-6.8,0-2.9-7-9.3-7
		c0-0.7,0-1.4,0-2.1c8.6,0,3.9,6.7,9.4,7c3.4,0.2,3.8-3.8,4.2-5.4C17.8,9.5,18.1,8.9,19,9c0.8,0.1,0.9,0.8,1,1.5
		C20.1,14.2,18.1,17.8,13.3,17.8z"/>
</g>
<g id="Outline_Icons">
	<g>
		<circle class="st2" cx="12" cy="12" r="11.5"/>
		<g>
			<path class="st3" d="M12.3,11.9c-1.7,0.1-1.7-3.1-0.6-3.5C13.4,7.9,13.6,11.9,12.3,11.9z"/>
			<path class="st3" d="M13.3,17.8c-6.8,0-2.9-7-9.3-7c0-0.7,0-1.4,0-2.1c8.6,0,3.9,6.7,9.4,7c3.4,0.2,3.8-3.8,4.2-5.4
				C17.8,9.5,18.1,8.9,19,9c0.8,0.1,0.9,0.8,1,1.5C20.1,14.2,18.1,17.8,13.3,17.8z"/>
			<path class="st3" d="M15.2,7.1c1.7,0.1,1.6,4.1,0.2,4C14,11,13.9,7,15.2,7.1z"/>
		</g>
	</g>
</g>
</svg>
