<?xml version="1.0" encoding="utf-8"?>
<!-- Generator: Adobe Illustrator 19.2.0, SVG Export Plug-In . SVG Version: 6.00 Build 0)  -->
<svg version="1.1" id="Layer_1" xmlns="http://www.w3.org/2000/svg" xmlns:xlink="http://www.w3.org/1999/xlink" x="0px" y="0px"
	 viewBox="0 0 24 24" style="enable-background:new 0 0 24 24;" xml:space="preserve">
<style type="text/css">
	.st0{display:none;}
	.st1{display:inline;}
	.st2{fill:none;stroke:#000000;stroke-linecap:round;stroke-linejoin:round;stroke-miterlimit:10;}
	.st3{fill:none;stroke:#000000;stroke-linejoin:round;stroke-miterlimit:10;}
</style>
<g id="Filled_Icons" class="st0">
	<path class="st1" d="M12,0C5.4,0,0,5.4,0,12s5.4,12,12,12s12-5.4,12-12S18.6,0,12,0z M12.4,19.2c-4.4,0-5.8-2.6-5.8-4
		c0-1.1,1.5-1.7,2.3-1c0.5,0.4,0.7,1.2,1.1,1.8c0.9,1.2,3.2,1.1,4.2,0.4c0.5-0.3,0.7-0.7,0.7-1.2c0-2.9-8.2-0.9-8.2-5.9
		c0-2.7,2.7-3.8,5.5-3.8c4.6,0,5.9,3.1,4.8,4.3c-0.3,0.3-0.6,0.4-1,0.4c-1.9,0-0.9-2.5-4-2.5c-2,0-2.7,1.2-2.1,1.9
		c1.4,1.7,8.1,0.7,8.1,5.3C18.1,17.8,15.5,19.2,12.4,19.2z"/>
</g>
<g id="Outline_Icons">
	<g>
		<circle class="st2" cx="12" cy="12" r="11.5"/>
		<path class="st3" d="M12.4,19.2c-4.4,0-5.8-2.6-5.8-4c0-1.1,1.5-1.7,2.3-1c0.2,0.2,0.4,0.5,0.6,0.8c0.2,0.4,0.4,0.7,0.6,1
			c0.9,1.2,3.2,1.1,4.2,0.4c0.5-0.3,0.7-0.7,0.7-1.2c0-2.9-8.2-0.9-8.2-5.9c0-2.7,2.7-3.8,5.5-3.8c4.6,0,5.9,3.1,4.8,4.3
			c-0.3,0.3-0.6,0.4-1,0.4c-1.9,0-0.9-2.5-4-2.5c-2,0-2.7,1.2-2.1,1.9c1.4,1.7,8.1,0.7,8.1,5.3C18.1,17.8,15.5,19.2,12.4,19.2z"/>
	</g>
</g>
</svg>
