<?xml version="1.0" encoding="utf-8"?>
<!-- Generator: Adobe Illustrator 19.2.0, SVG Export Plug-In . SVG Version: 6.00 Build 0)  -->
<svg version="1.1" id="Layer_1" xmlns="http://www.w3.org/2000/svg" xmlns:xlink="http://www.w3.org/1999/xlink" x="0px" y="0px"
	 viewBox="0 0 24 24" style="enable-background:new 0 0 24 24;" xml:space="preserve">
<style type="text/css">
	.st0{display:none;}
	.st1{display:inline;}
	.st2{fill:none;stroke:#000000;stroke-linecap:round;stroke-linejoin:round;stroke-miterlimit:10;}
	.st3{fill:none;stroke:#000000;stroke-linejoin:round;stroke-miterlimit:10;}
</style>
<g id="Filled_Icons" class="st0">
	<g class="st1">
		<path d="M10.9,16.9c0.3,0.3,0.9,0.2,1.4-0.2c0.4-0.4,0.5-1,0.2-1.4c-0.3-0.3-0.9-0.2-1.4,0.2C10.7,16,10.6,16.6,10.9,16.9z"/>
		<path d="M12,0C5.4,0,0,5.4,0,12s5.4,12,12,12s12-5.4,12-12S18.6,0,12,0z M16.5,15.9c0,2-1.3,3.6-4.3,3.6s-3-2-3-3.6
			c-3.2-1-3.7-3.7-3.7-5.7c0-6.7,9.9-7,9.9-3.1c0,2.3-3.2,2.8-3.6-0.3c0,0-2.4,0.1-2.4,3.7s2.1,3.4,2.1,3.4v-2.2h5
			C16.5,11.5,16.5,13.9,16.5,15.9z"/>
	</g>
</g>
<g id="Outline_Icons">
	<g>
		<circle class="st2" cx="12" cy="12" r="11.5"/>
		<g>
			<path class="st3" d="M5.5,10.2c0,2.1,0.5,4.8,3.7,5.8c0.1,1.6,0.1,3.6,3,3.6s4.3-1.7,4.3-3.6s0-4.4,0-4.4h-5v2.2
				c0,0-2.1,0.2-2.1-3.4s2.4-3.7,2.4-3.7c0.3,3.1,3.6,2.7,3.6,0.3C15.3,3.1,5.5,3.5,5.5,10.2z"/>
			<ellipse transform="matrix(0.7075 -0.7067 0.7067 0.7075 -7.9353 12.9814)" class="st3" cx="11.7" cy="16.1" rx="1.1" ry="0.8"/>
		</g>
	</g>
</g>
</svg>
