<?xml version="1.0" encoding="utf-8"?>
<!-- Generator: Adobe Illustrator 19.2.0, SVG Export Plug-In . SVG Version: 6.00 Build 0)  -->
<svg version="1.1" id="Layer_1" xmlns="http://www.w3.org/2000/svg" xmlns:xlink="http://www.w3.org/1999/xlink" x="0px" y="0px"
	 viewBox="0 0 24 24" style="enable-background:new 0 0 24 24;" xml:space="preserve">
<style type="text/css">
	.st0{display:none;}
	.st1{display:inline;}
	.st2{fill:none;stroke:#000000;stroke-linecap:round;stroke-linejoin:round;stroke-miterlimit:10;}
	.st3{fill:none;stroke:#000000;stroke-linejoin:round;stroke-miterlimit:10;}
</style>
<g id="Filled_Icons" class="st0">
	<g class="st1">
		<path d="M3.8,5.1c4.9-2.8,11.3-2.8,16.3,0c0.1,0,0.2,0.1,0.2,0.1c0.2,0,0.3-0.1,0.4-0.3c0.1-0.2,0.1-0.5-0.2-0.7
			c-5.2-3-12-3-17.3,0C3.1,4.4,3,4.7,3.1,4.9C3.3,5.1,3.6,5.2,3.8,5.1z"/>
		<path d="M18.7,8c0.2,0,0.3-0.1,0.4-0.2c0.2-0.2,0.1-0.5-0.1-0.7C14.9,4.3,9.2,4.3,5.1,7C4.9,7.1,4.8,7.4,4.9,7.7
			C5.1,7.9,5.4,8,5.6,7.8c3.8-2.5,9-2.4,12.8,0.1C18.5,8,18.6,8,18.7,8z"/>
		<path d="M16.9,9.7c-2.8-2.4-7.3-2.3-10,0.1c-0.2,0.2-0.2,0.5,0,0.7c0.1,0.2,0.5,0.2,0.7,0c2.3-2,6.3-2.3,8.8,0
			c0.2,0.2,0.5,0.1,0.7,0l0,0l0,0C17.3,10.3,17.2,10,16.9,9.7z"/>
		<path d="M11.9,12c-5.4,0-9.9,4-10.4,9.4c0,0.1,0,0.3,0.1,0.4C1.7,21.9,1.9,22,2,22h4.8c0.2,0,0.4-0.2,0.5-0.4
			c0.4-2.2,2.4-3.8,4.6-3.8c2.2,0,4.2,2,4.6,3.8c0.1,0.2,0.3,0.4,0.5,0.4h4.8c0.1,0,0.3-0.1,0.4-0.2c0.1-0.1,0.1-0.2,0.1-0.4
			C21.8,16.1,17.4,12,11.9,12z"/>
	</g>
</g>
<g id="Outline_Icons">
	<g>
		<path class="st2" d="M20.3,4.7c-5.1-2.9-11.7-2.9-16.8,0"/>
		<path class="st2" d="M7.2,10.2c2.6-2.3,6.9-2.3,9.5,0"/>
		<path class="st2" d="M18.7,7.5C14.8,4.8,9.3,4.8,5.4,7.4"/>
		<path class="st2" d="M16.7,10.2c-2.6-2.3-6.9-2.3-9.5,0"/>
		<path class="st3" d="M6.8,21.5c0.5-2.4,2.6-4.2,5.1-4.2c2.5,0,4.6,2.2,5.1,4.2h4.8c-0.5-5-4.8-8.9-9.9-8.9c-5.2,0-9.4,3.9-9.9,9
			L6.8,21.5z"/>
	</g>
</g>
</svg>
