<?xml version="1.0" encoding="utf-8"?>
<!-- Generator: Adobe Illustrator 19.2.0, SVG Export Plug-In . SVG Version: 6.00 Build 0)  -->
<svg version="1.1" id="Layer_1" xmlns="http://www.w3.org/2000/svg" xmlns:xlink="http://www.w3.org/1999/xlink" x="0px" y="0px"
	 viewBox="0 0 24 24" style="enable-background:new 0 0 24 24;" xml:space="preserve">
<style type="text/css">
	.st0{display:none;}
	.st1{display:inline;}
	.st2{fill:none;stroke:#000000;stroke-linejoin:round;stroke-miterlimit:10;}
</style>
<g id="Filled_Icons" class="st0">
	<path class="st1" d="M14.4,0.7c-0.8-0.1-1.6-0.2-2.4-0.2c-0.8,0-1.6,0.1-2.4,0.2c0,7.9-0.1,14.3-8,19.2c1,1.4,2.2,2.7,3.7,3.6
		c3.1-1.9,4.9-4.2,6.6-7.3c1.7,3.1,3.5,5.4,6.6,7.3c1.5-0.9,2.7-2.1,3.7-3.6C14.4,15,14.4,8.7,14.4,0.7L14.4,0.7z"/>
</g>
<g id="Outline_Icons">
	<path class="st2" d="M14.4,0.7c-0.8-0.1-1.6-0.2-2.4-0.2c-0.8,0-1.6,0.1-2.4,0.2c0,7.9-0.1,14.3-8,19.2c1,1.4,2.2,2.7,3.7,3.6
		c3.1-1.9,4.9-4.2,6.6-7.3c1.7,3.1,3.5,5.4,6.6,7.3c1.5-0.9,2.7-2.1,3.7-3.6C14.4,15,14.4,8.7,14.4,0.7L14.4,0.7z"/>
</g>
</svg>
