<?xml version="1.0" encoding="utf-8"?>
<!-- Generator: Adobe Illustrator 19.2.0, SVG Export Plug-In . SVG Version: 6.00 Build 0)  -->
<svg version="1.1" id="Layer_1" xmlns="http://www.w3.org/2000/svg" xmlns:xlink="http://www.w3.org/1999/xlink" x="0px" y="0px"
	 viewBox="0 0 24 24" style="enable-background:new 0 0 24 24;" xml:space="preserve">
<style type="text/css">
	.st0{display:none;}
	.st1{display:inline;}
	.st2{fill:none;stroke:#000000;stroke-linecap:round;stroke-linejoin:round;stroke-miterlimit:10;}
</style>
<g id="Filled_Icons" class="st0">
	<g class="st1">
		<path d="M14.5,15.5h-2v-4.1c2.3-0.5,4-2.5,4-4.9h4c0.6,0,1-0.4,1-1c0-0.6-0.4-1-1-1h-4V1c0-0.6-0.4-1-1-1s-1,0.4-1,1v3.5h-6V1
			c0-0.6-0.4-1-1-1s-1,0.4-1,1v3.5h-4c-0.6,0-1,0.4-1,1c0,0.6,0.4,1,1,1h4c0,2.4,1.7,4.4,4,4.9v4.1h-2c-2.2,0-4,1.8-4,4V23
			c0,0.6,0.4,1,1,1s1-0.4,1-1v-3.5c0-1.1,0.9-2,2-2h2V23c0,0.6,0.4,1,1,1s1-0.4,1-1v-5.5h2c1.1,0,2,0.9,2,2V23c0,0.6,0.4,1,1,1
			s1-0.4,1-1v-3.5C18.5,17.3,16.7,15.5,14.5,15.5z M8.5,6.5h6c0,1.7-1.3,3-3,3S8.5,8.2,8.5,6.5z"/>
		<path d="M21.7,14.2l-4-3.5c-0.4-0.4-1-0.3-1.4,0.1c-0.4,0.4-0.3,1,0.1,1.4l4,3.5c0.2,0.2,0.4,0.2,0.7,0.2c0.3,0,0.6-0.1,0.8-0.3
			C22.1,15.2,22.1,14.6,21.7,14.2z"/>
		<path d="M6.8,10.8c-0.4-0.4-1-0.5-1.4-0.1l-4,3.5c-0.4,0.4-0.5,1-0.1,1.4C1.4,15.9,1.7,16,2,16c0.2,0,0.5-0.1,0.7-0.2l4-3.5
			C7.1,11.9,7.1,11.3,6.8,10.8z"/>
	</g>
</g>
<g id="Outline_Icons">
	<g>
		<path class="st2" d="M17.5,23.4v-3.9c0-1.7-1.3-3-3-3h-6c-1.7,0-3,1.3-3,3v3.9"/>
		<path class="st2" d="M7.5,0.5v6c0,2.2,1.8,4,4,4s4-1.8,4-4v-6"/>
		<line class="st2" x1="11.5" y1="10.5" x2="11.5" y2="23.4"/>
		<line class="st2" x1="2" y1="5.5" x2="21" y2="5.5"/>
		<line class="st2" x1="16.3" y1="11" x2="21" y2="15"/>
		<line class="st2" x1="6.7" y1="11" x2="2" y2="15"/>
	</g>
</g>
</svg>
