<?xml version="1.0" encoding="utf-8"?>
<!-- Generator: Adobe Illustrator 19.2.0, SVG Export Plug-In . SVG Version: 6.00 Build 0)  -->
<svg version="1.1" id="Layer_1" xmlns="http://www.w3.org/2000/svg" xmlns:xlink="http://www.w3.org/1999/xlink" x="0px" y="0px"
	 viewBox="0 0 24 24" style="enable-background:new 0 0 24 24;" xml:space="preserve">
<style type="text/css">
	.st0{display:none;}
	.st1{display:inline;}
	.st2{fill:none;stroke:#000000;stroke-linecap:round;stroke-linejoin:round;stroke-miterlimit:10;}
	.st3{fill:none;stroke:#000000;stroke-linejoin:round;stroke-miterlimit:10;}
</style>
<g id="Filled_Icons" class="st0">
	<path class="st1" d="M12,0C5.4,0,0,5.4,0,12s5.4,12,12,12s12-5.4,12-12S18.6,0,12,0z M7.5,7c0-0.6,0.4-1,1-1s1,0.4,1,1s-0.4,1-1,1
		S7.5,7.6,7.5,7z M16,19h-1v-8.6c-2,1.1-4.2,1.1-6,0V19H8V9.5C8,9.3,8.1,9.1,8.3,9C8.5,9,8.7,9,8.8,9.1c1.8,1.5,4.3,1.5,6.4,0
		c0.2-0.1,0.4-0.1,0.5,0C15.9,9.1,16,9.3,16,9.5V19z M15.5,8c-0.6,0-1-0.4-1-1s0.4-1,1-1c0.6,0,1,0.4,1,1S16.1,8,15.5,8z"/>
</g>
<g id="Outline_Icons">
	<g>
		<circle class="st2" cx="12" cy="12" r="11.5"/>
		<g>
			<path class="st3" d="M8.5,19V9.5c2,1.7,4.7,1.7,7,0V19"/>
		</g>
		<path class="st3" d="M9,7c0,0.3-0.2,0.5-0.5,0.5l0,0C8.2,7.5,8,7.3,8,7l0,0c0-0.3,0.2-0.5,0.5-0.5l0,0C8.8,6.5,9,6.7,9,7L9,7z"/>
		<path class="st3" d="M16,7c0,0.3-0.2,0.5-0.5,0.5l0,0C15.2,7.5,15,7.3,15,7l0,0c0-0.3,0.2-0.5,0.5-0.5l0,0C15.8,6.5,16,6.7,16,7
			L16,7z"/>
	</g>
</g>
</svg>
