<?xml version="1.0" encoding="utf-8"?>
<!-- Generator: Adobe Illustrator 19.2.0, SVG Export Plug-In . SVG Version: 6.00 Build 0)  -->
<svg version="1.1" id="Layer_1" xmlns="http://www.w3.org/2000/svg" xmlns:xlink="http://www.w3.org/1999/xlink" x="0px" y="0px"
	 viewBox="0 0 24 24" style="enable-background:new 0 0 24 24;" xml:space="preserve">
<style type="text/css">
	.st0{display:none;}
	.st1{display:inline;}
	.st2{fill:none;stroke:#000000;stroke-linecap:round;stroke-linejoin:round;stroke-miterlimit:10;}
	.st3{fill:none;stroke:#000000;stroke-linejoin:round;stroke-miterlimit:10;}
</style>
<g id="Filled_Icons" class="st0">
	<path class="st1" d="M23.8,19c0-0.2,0-0.3-0.1-0.4c0,0,0,0,0,0C23,17.3,20,16.6,18,17.4c-0.5,0.2-0.8,0.8-0.6,1.3
		c0.2,0.5,0.8,0.8,1.3,0.6c0.5-0.2,1.1-0.2,1.6-0.2C9.8,23.8,2.1,18.4,1.8,18.1c-0.4-0.3-1.1-0.2-1.4,0.2c-0.3,0.4-0.2,1.1,0.2,1.4
		C0.9,19.9,5.2,23,11.8,23c2.7,0,5.9-0.5,9.3-2c-0.3,0.4-0.7,0.7-1.1,1c-0.5,0.3-0.7,0.9-0.4,1.4c0.2,0.3,0.5,0.5,0.9,0.5
		c0.2,0,0.3,0,0.5-0.1C22.4,22.9,24,20.5,23.8,19z"/>
	<g class="st1">
		<path d="M12.4,7.9C7.8,8.3,3.8,9,3.8,13.7c0,3,1.9,4.5,4.4,4.5c2.1,0,3.3-0.5,4.8-2.1c0.6,0.8,0.7,1.1,1.7,1.9
			c0.3,0.1,0.5,0.1,0.7-0.1c0.6-0.5,1.7-1.4,2.2-1.9c0.3-0.2,0.2-0.5,0.1-0.8c-0.6-0.7-1.1-1.3-1.1-2.7V8c0-1.9,0.2-3.7-1.3-5
			c-1.2-1.1-3-1.5-4.4-1.5c-3.3,0-6,1.3-6.6,4.5C4.2,6.4,4.5,6.6,4.7,6.6L7.5,7C7.8,6.9,8,6.7,8,6.4c0.3-1.2,1.3-1.8,2.4-1.8
			c0.6,0,1.3,0.3,1.6,0.8C12.5,6,12.4,6.9,12.4,7.9z M11.8,14c-1,1.9-3.8,1.9-3.8-0.8c0-1.6,1-2.4,2.2-2.7c0.7-0.2,1.4-0.2,2.2-0.2
			v0.6C12.4,12,12.4,13,11.8,14z"/>
	</g>
</g>
<g id="Outline_Icons">
	<g>
		<path class="st2" d="M22.4,19.6c-12.3,6.7-21.6-0.1-21.6-0.1"/>
		<path class="st2" d="M20.1,23.4c1.4-0.8,2.7-2.9,2.4-3.8l0,0c-0.3-0.6-2.6-1.4-4.4-0.7"/>
		<path class="st3" d="M12.4,7.9C7.8,8.3,3.8,9,3.8,13.7c0,3,1.9,4.5,4.4,4.5c2.1,0,3.3-0.5,4.8-2.1c0.6,0.8,0.7,1.1,1.7,1.9
			c0.3,0.1,0.5,0.1,0.7-0.1c0.6-0.5,1.7-1.4,2.2-1.9c0.3-0.2,0.2-0.5,0.1-0.8c-0.6-0.7-1.1-1.3-1.1-2.7V8c0-1.9,0.2-3.7-1.3-5
			c-1.2-1.1-3-1.5-4.4-1.5c-3.3,0-6,1.3-6.6,4.5C4.2,6.4,4.5,6.6,4.7,6.6L7.5,7C7.8,6.9,8,6.7,8,6.4c0.3-1.2,1.3-1.8,2.4-1.8
			c0.6,0,1.3,0.3,1.6,0.8C12.5,6,12.4,6.9,12.4,7.9z M11.8,14c-1,1.9-3.8,1.9-3.8-0.8c0-1.6,1-2.4,2.2-2.7c0.7-0.2,1.4-0.2,2.2-0.2
			v0.6C12.4,12,12.4,13,11.8,14z"/>
	</g>
</g>
</svg>
