<?xml version="1.0" encoding="utf-8"?>
<!-- Generator: Adobe Illustrator 19.2.0, SVG Export Plug-In . SVG Version: 6.00 Build 0)  -->
<svg version="1.1" id="Layer_1" xmlns="http://www.w3.org/2000/svg" xmlns:xlink="http://www.w3.org/1999/xlink" x="0px" y="0px"
	 viewBox="0 0 24 24" style="enable-background:new 0 0 24 24;" xml:space="preserve">
<style type="text/css">
	.st0{display:none;}
	.st1{display:inline;}
	.st2{fill:none;stroke:#000000;stroke-linecap:round;stroke-linejoin:round;stroke-miterlimit:10;}
	.st3{fill:none;stroke:#000000;stroke-linejoin:round;stroke-miterlimit:10;}
</style>
<g id="Filled_Icons" class="st0">
	<path class="st1" d="M12,0C5.4,0,0,5.4,0,12s5.4,12,12,12s12-5.4,12-12S18.6,0,12,0z M13.5,17.3c0-0.2,0.2-0.3,0.5-0.5
		c0.2-0.1,0.6,0,0.7-0.2c0.2-0.2,0-1,0-1.4c0-0.1,0-1.5,0-1.5c-0.3-0.3-4.9,0.5-5.3,1c-0.2,0.3,0,2.4,0,2.5c0.1,0.2,0.6,0.1,0.8,0.1
		c0.3,0.1,0.7,0.6,0.7,1c-0.1,1-4.7,1.9-4.5,0c0-0.3,0.5-0.5,0.8-0.6c0.1,0,0.3-0.1,0.4-0.1c0.1-0.1,0-0.8,0-1.1
		c-0.1-1.1-0.2-2.5-0.2-3.6c0-1.4-0.1-2.3-0.1-3.7c0-0.4,0-1-0.1-1.2C7.1,7.9,6.8,7.9,6.6,7.8C2.8,6.2,12.4,4.1,10.7,7
		c-0.2,0.4-1.1,0.3-1.2,0.6c-0.1,0.1-0.1,0.6-0.1,1c0,1.2-0.1,2-0.1,3.2c0,0.2,0.1,0.7,0.2,0.8l5.2-0.8c0.2-0.2,0.1-0.8,0.1-1.1
		c-0.1-0.9-0.1-1.5,0-2.4c0-0.3,0.1-1,0-1.2c-0.1-0.1-0.5-0.1-0.7-0.2C10.2,5.3,19,3,18,6c-0.1,0.3-0.9,0.4-1,0.6
		c-0.3,0.4-0.2,1.5-0.2,2.3v6.2c0,0.3,0,1,0.1,1.1c0.1,0.1,0.5,0,0.7,0.1C20.7,17.4,13.1,20.1,13.5,17.3z"/>
</g>
<g id="Outline_Icons">
	<g>
		<circle class="st2" cx="12" cy="12" r="11.5"/>
		<g>
			<path class="st3" d="M18,6c-0.1,0.3-0.9,0.4-1,0.6c-0.3,0.4-0.2,1.5-0.2,2.3v6.2c0,0.3,0,1,0.1,1.1c0.1,0.1,0.5,0,0.7,0.1
				c3.2,1-4.4,3.8-4,0.9c0-0.2,0.2-0.3,0.5-0.5c0.2-0.1,0.6,0,0.7-0.2c0.2-0.2,0-1,0-1.4c0-0.1,0-1.5,0-1.5c-0.3-0.3-4.9,0.5-5.3,1
				c-0.2,0.3,0,2.4,0,2.5c0.1,0.2,0.6,0.1,0.8,0.1c0.3,0.1,0.7,0.6,0.7,1c-0.1,1-4.7,1.9-4.5,0c0-0.3,0.5-0.5,0.8-0.6
				c0.1,0,0.3-0.1,0.4-0.1c0.1-0.1,0-0.8,0-1.1c-0.1-1.1-0.2-2.5-0.2-3.6c0-1.4-0.1-2.3-0.1-3.7c0-0.4,0-1-0.1-1.2
				C7.1,7.9,6.8,7.9,6.6,7.8C2.8,6.2,12.4,4.1,10.7,7c-0.2,0.4-1.1,0.3-1.2,0.6c-0.1,0.1-0.1,0.6-0.1,1c0,1.2-0.1,2-0.1,3.2
				c0,0.2,0.1,0.7,0.2,0.8l5.2-0.8c0.2-0.2,0.1-0.8,0.1-1.1c-0.1-0.9-0.1-1.5,0-2.4c0-0.3,0.1-1,0-1.2c-0.1-0.1-0.5-0.1-0.7-0.2
				C10.2,5.3,19,3,18,6z"/>
		</g>
	</g>
</g>
</svg>
