<?xml version="1.0" encoding="utf-8"?>
<!-- Generator: Adobe Illustrator 19.2.0, SVG Export Plug-In . SVG Version: 6.00 Build 0)  -->
<svg version="1.1" id="Layer_1" xmlns="http://www.w3.org/2000/svg" xmlns:xlink="http://www.w3.org/1999/xlink" x="0px" y="0px"
	 viewBox="0 0 24 24" style="enable-background:new 0 0 24 24;" xml:space="preserve">
<style type="text/css">
	.st0{display:none;}
	.st1{display:inline;}
	.st2{fill:none;stroke:#000000;stroke-linejoin:round;stroke-miterlimit:10;}
</style>
<g id="Filled_Icons" class="st0">
	<path class="st1" d="M18.5,10.7V1.6l-2-1.1H3.4L1.5,1.6V15l1.2,1.5h12.9v3h-13v2.9l1.3,1.1h12.7l2-1.1v-5.8l4-6.9V2.8L18.5,10.7z
		 M15.5,13.5h-11v-10h11V13.5z"/>
</g>
<g id="Outline_Icons">
	<g>
		<path class="st2" d="M1.5,1.6V15l1.2,1.5h12.9v3h-13v2.9l1.3,1.1h12.7l2-1.1v-5.8l4-6.9V2.8l-4,7.9V1.6l-2-1.1H3.4L1.5,1.6z"/>
		<rect x="4.5" y="3.5" class="st2" width="11" height="10"/>
	</g>
</g>
</svg>
