<?xml version="1.0" encoding="utf-8"?>
<!-- Generator: Adobe Illustrator 19.2.0, SVG Export Plug-In . SVG Version: 6.00 Build 0)  -->
<svg version="1.1" id="Layer_1" xmlns="http://www.w3.org/2000/svg" xmlns:xlink="http://www.w3.org/1999/xlink" x="0px" y="0px"
	 viewBox="0 0 24 24" style="enable-background:new 0 0 24 24;" xml:space="preserve">
<style type="text/css">
	.st0{display:none;}
	.st1{display:inline;}
	.st2{fill:none;stroke:#000000;stroke-linecap:round;stroke-linejoin:round;stroke-miterlimit:10;}
	.st3{fill:none;stroke:#000000;stroke-linejoin:round;stroke-miterlimit:10;}
</style>
<g id="Filled_Icons" class="st0">
	<path class="st1" d="M12,0C5.4,0,0,5.4,0,12s5.4,12,12,12s12-5.4,12-12S18.6,0,12,0z M14.2,5.5l4.3,8h-4.4c-1.2-2.3-4.1-7.7-4.3-8
		H14.2z M5,14l4.2-7.5c0.4,0.8,1.2,2.3,2.1,4c-0.4,0.7-1.2,2-4.2,7L5,14z M16.9,17.5H8.4c0.7-1.2,1.3-2.2,1.8-3H19L16.9,17.5z"/>
</g>
<g id="Outline_Icons">
	<g>
		<circle class="st2" cx="12" cy="12" r="11.5"/>
		<g>
			<polyline class="st3" points="7.2,17.5 16.9,17.5 19,14.5 9,14.5 			"/>
			<path class="st3" d="M14.6,14.5H19l-4.8-9H9.8C10,5.8,14.6,14.5,14.6,14.5z"/>
			<path class="st3" d="M9.8,5.5L5,14l2.2,3.5c4.4-7.4,3.9-6.6,4.7-8"/>
		</g>
	</g>
</g>
</svg>
