<?xml version="1.0" encoding="utf-8"?>
<!-- Generator: Adobe Illustrator 19.2.0, SVG Export Plug-In . SVG Version: 6.00 Build 0)  -->
<svg version="1.1" id="Layer_1" xmlns="http://www.w3.org/2000/svg" xmlns:xlink="http://www.w3.org/1999/xlink" x="0px" y="0px"
	 viewBox="0 0 24 24" style="enable-background:new 0 0 24 24;" xml:space="preserve">
<style type="text/css">
	.st0{display:none;}
	.st1{display:inline;}
	.st2{fill:none;stroke:#000000;stroke-linejoin:round;stroke-miterlimit:10;}
</style>
<g id="Filled_Icons" class="st0">
	<g class="st1">
		<path d="M12,6c-3.3,0-6,2.7-6,6c0,3.3,2.7,6,6,6s6-2.7,6-6C18,8.7,15.3,6,12,6z"/>
	</g>
	<g class="st1">
		<path d="M4,1.1C3.6,1.1,3.3,1.2,3,1.4v7.1h1V1.1z"/>
	</g>
	<path class="st1" d="M6,8.4V1H5v7.5L6,8.4C6,8.5,6,8.4,6,8.4z"/>
	<g class="st1">
		<path d="M23,18.8V8.5V5.2V4.5C23,2.6,21.4,1,19.5,1H7v6.1C8.3,5.8,10,5,12,5c2.6,0,4.8,1.4,6.1,3.5H22v10.3c0,1.7-1.4,3.2-3.2,3.2
			H5.2C3.4,22,2,20.6,2,18.8V8.5V5.2V2.1C1.4,2.7,1,3.5,1,4.5v0.7v3.3v10.3C1,21.1,2.9,23,5.2,23h13.7C21.1,23,23,21.1,23,18.8z
			 M21.5,7h-3C18.2,7,18,6.8,18,6.5v-3C18,3.2,18.2,3,18.5,3h3C21.8,3,22,3.2,22,3.5v1.7v1.3C22,6.8,21.8,7,21.5,7z"/>
	</g>
</g>
<g id="Outline_Icons">
	<g>
		<path class="st2" d="M23.5,19.5c0,2.2-1.8,4-4,4h-15c-2.2,0-4-1.8-4-4v-15c0-2.2,1.8-4,4-4h15c2.2,0,4,1.8,4,4V19.5z"/>
		<line class="st2" x1="0.5" y1="8.5" x2="7.7" y2="8.5"/>
		<line class="st2" x1="16.3" y1="8.5" x2="23.5" y2="8.5"/>
		<circle class="st2" cx="12" cy="12" r="5.5"/>
		<rect x="18.5" y="3.5" class="st2" width="3" height="3"/>
		<line class="st2" x1="2.5" y1="1" x2="2.5" y2="8.5"/>
		<line class="st2" x1="4.5" y1="0.5" x2="4.5" y2="8.5"/>
		<line class="st2" x1="6.5" y1="0.5" x2="6.5" y2="8.5"/>
	</g>
</g>
</svg>
