<?xml version="1.0" encoding="utf-8"?>
<!-- Generator: Adobe Illustrator 19.2.0, SVG Export Plug-In . SVG Version: 6.00 Build 0)  -->
<svg version="1.1" id="Layer_1" xmlns="http://www.w3.org/2000/svg" xmlns:xlink="http://www.w3.org/1999/xlink" x="0px" y="0px"
	 viewBox="0 0 24 24" style="enable-background:new 0 0 24 24;" xml:space="preserve">
<style type="text/css">
	.st0{display:none;}
	.st1{display:inline;}
	.st2{fill:none;stroke:#000000;stroke-linejoin:round;stroke-miterlimit:10;}
</style>
<g id="Filled_Icons" class="st0">
	<g class="st1">
		<path d="M3.9,21.8l11-10.4L3.8,1.2c-0.5-0.1-1,0-1.4,0.3c-0.6,0.4-0.9,1-0.9,1.7v16.7c0,0.7,0.4,1.3,0.9,1.7
			C2.9,21.8,3.4,21.9,3.9,21.8z"/>
		<polygon points="18.6,8 6.6,2.4 15.6,10.8 		"/>
		<polygon points="15.6,12.1 6.6,20.6 18.7,14.9 		"/>
		<path d="M22.1,9.7l-2.6-1.2l-3.2,3l3.3,3l2.5-1.2c0.7-0.3,1.1-1,1.1-1.8C23.3,10.7,22.8,10,22.1,9.7z"/>
	</g>
</g>
<g id="Outline_Icons">
	<g>
		<path class="st2" d="M4.3,1.3C3.7,1,3,1.1,2.4,1.5c-0.6,0.4-0.9,1-0.9,1.7v16.7c0,0.7,0.4,1.3,0.9,1.7C3,21.9,3.7,22,4.3,21.7
			l17.8-8.4c0.7-0.3,1.1-1,1.1-1.8c0-0.8-0.4-1.5-1.1-1.8L4.3,1.3z"/>
		<line class="st2" x1="5" y1="1.6" x2="19.1" y2="14.7"/>
		<line class="st2" x1="5.2" y1="21.3" x2="19.1" y2="8.2"/>
	</g>
</g>
</svg>
