<?xml version="1.0" encoding="utf-8"?>
<!-- Generator: Adobe Illustrator 19.2.0, SVG Export Plug-In . SVG Version: 6.00 Build 0)  -->
<svg version="1.1" id="Layer_1" xmlns="http://www.w3.org/2000/svg" xmlns:xlink="http://www.w3.org/1999/xlink" x="0px" y="0px"
	 viewBox="0 0 24 24" style="enable-background:new 0 0 24 24;" xml:space="preserve">
<style type="text/css">
	.st0{display:none;}
	.st1{display:inline;}
	.st2{fill:none;stroke:#000000;stroke-linejoin:round;stroke-miterlimit:10;}
	.st3{fill:none;stroke:#000000;stroke-linecap:round;stroke-linejoin:round;stroke-miterlimit:10;}
</style>
<g id="Filled_Icons" class="st0">
	<g class="st1">
		<path d="M14.3,16H8v-6c0-0.3-0.2-0.5-0.5-0.5C3.4,9.5,0,12.8,0,16.8c0,4,3.3,7.2,7.4,7.2c4,0,7.4-3.4,7.4-7.5
			C14.8,16.2,14.6,16,14.3,16z"/>
		<path d="M17,0c-6.7,0-7,6.9-7,7v6.5c0,0.3,0.2,0.5,0.5,0.5h6.2c4.1,0,7.3-3.1,7.3-7C24,3,21,0,17,0z M16,3c0-0.3,0.2-0.5,0.5-0.5
			S17,2.7,17,3v5c0,0.3-0.2,0.5-0.5,0.5S16,8.3,16,8V3z M16.5,12c-0.8,0-1.5-0.7-1.5-1.5C15,9.7,15.7,9,16.5,9S18,9.7,18,10.5
			C18,11.3,17.3,12,16.5,12z"/>
	</g>
</g>
<g id="Outline_Icons">
	<g>
		<path class="st2" d="M7.5,16.5h6.8c0,3.7-3.1,7-6.9,7c-3.8,0-6.9-3-6.9-6.7s3.2-6.7,7-6.7V16.5z M23.5,7c0,3.7-3,6.5-6.8,6.5h-6.2
			V7c0,0,0.2-6.5,6.5-6.5C20.7,0.5,23.5,3.3,23.5,7 M17.5,10.5c0-0.5-0.4-1-1-1s-1,0.4-1,1c0,0.5,0.4,1,1,1
			C17.1,11.5,17.5,11,17.5,10.5"/>
		<line class="st3" x1="16.5" y1="3" x2="16.5" y2="8"/>
	</g>
</g>
</svg>
