<?xml version="1.0" encoding="utf-8"?>
<!-- Generator: Adobe Illustrator 19.2.0, SVG Export Plug-In . SVG Version: 6.00 Build 0)  -->
<svg version="1.1" id="Layer_1" xmlns="http://www.w3.org/2000/svg" xmlns:xlink="http://www.w3.org/1999/xlink" x="0px" y="0px"
	 viewBox="0 0 24 24" style="enable-background:new 0 0 24 24;" xml:space="preserve">
<style type="text/css">
	.st0{display:none;}
	.st1{display:inline;}
	.st2{fill:none;stroke:#000000;stroke-linecap:round;stroke-linejoin:round;stroke-miterlimit:10;}
</style>
<g id="Filled_Icons" class="st0">
	<path class="st1" d="M22.3,11.1C22.1,10.9,17.8,4.7,8.4,7C8,7.1,7.6,7.3,7.2,7.4L5.9,5.1C5.7,4.7,5,4.5,4.6,4.8
		C4.1,5,3.9,5.6,4.2,6.1l1.1,2c-1.8,0.9-3.2,2.2-4,3.8c-1.2,2.3-0.9,4.7-0.3,6.1c0.2,0.4,0.5,0.6,0.9,0.6c0.1,0,0.2,0,0.3,0l8.5-2.6
		c0.6-0.2,0.9-0.9,0.6-1.4L8.2,9.2C8.4,9.1,8.6,9,8.9,9c5.8-1.5,9.3,0.8,10.8,2.2L13.8,13l-1.5-2.6c-0.3-0.5-0.9-0.6-1.4-0.4
		c-0.5,0.3-0.6,0.9-0.4,1.4l1.9,3.3c0.2,0.4,0.7,0.6,1.2,0.5l8.2-2.5c0.3-0.1,0.5-0.3,0.6-0.6C22.5,11.7,22.5,11.4,22.3,11.1z
		 M3.1,12.9c0.6-1.2,1.7-2.2,3.2-3l2.6,4.7l-6.3,1.9C2.4,15.5,2.5,14.2,3.1,12.9z"/>
</g>
<g id="Outline_Icons">
	<g>
		<path class="st2" d="M5.1,5.6l5.4,9.5v0l-8.5,2.6C1.1,15.8,0.7,10,8.6,8c8.8-2.2,12.9,3.7,12.9,3.7l-8.2,2.5l-2.5-4.3"/>
	</g>
</g>
</svg>
