<?xml version="1.0" encoding="utf-8"?>
<!-- Generator: Adobe Illustrator 19.2.0, SVG Export Plug-In . SVG Version: 6.00 Build 0)  -->
<svg version="1.1" id="Layer_1" xmlns="http://www.w3.org/2000/svg" xmlns:xlink="http://www.w3.org/1999/xlink" x="0px" y="0px"
	 viewBox="0 0 24 24" style="enable-background:new 0 0 24 24;" xml:space="preserve">
<style type="text/css">
	.st0{display:none;}
	.st1{display:inline;}
	.st2{fill:none;stroke:#000000;stroke-linecap:round;stroke-linejoin:round;stroke-miterlimit:10;}
	.st3{fill:none;stroke:#000000;stroke-linejoin:round;stroke-miterlimit:10;}
</style>
<g id="Filled_Icons" class="st0">
	<path class="st1" d="M12,0C5.4,0,0,5.4,0,12s5.4,12,12,12s12-5.4,12-12S18.6,0,12,0z M10,18H7v-3C8.9,15,10,15.9,10,18z M13,18
		c0-3.3-2.7-6-6-6v-1c3.9,0,7,3.1,7,7H13z M17,18c0-5.5-4.5-10-10-10V7c6.1,0,11,4.9,11,11H17z"/>
</g>
<g id="Outline_Icons">
	<g>
		<circle class="st2" cx="12" cy="12" r="11.5"/>
		<path class="st3" d="M7,11.5c3.6,0,6.5,2.9,6.5,6.5"/>
		<path class="st3" d="M9.5,17.5c0-1-1-2-2-2v2H9.5z"/>
		<path class="st3" d="M7,7.5c5.8,0,10.5,4.7,10.5,10.5"/>
	</g>
</g>
</svg>
