<?xml version="1.0" encoding="utf-8"?>
<!-- Generator: Adobe Illustrator 19.2.0, SVG Export Plug-In . SVG Version: 6.00 Build 0)  -->
<svg version="1.1" id="Layer_1" xmlns="http://www.w3.org/2000/svg" xmlns:xlink="http://www.w3.org/1999/xlink" x="0px" y="0px"
	 viewBox="0 0 24 24" style="enable-background:new 0 0 24 24;" xml:space="preserve">
<style type="text/css">
	.st0{display:none;}
	.st1{display:inline;}
	.st2{fill:none;stroke:#000000;stroke-linecap:round;stroke-linejoin:round;stroke-miterlimit:10;}
	.st3{fill:none;stroke:#000000;stroke-linejoin:round;stroke-miterlimit:10;}
</style>
<g id="Filled_Icons" class="st0">
	<path class="st1" d="M12,0C5.4,0,0,5.4,0,12s5.4,12,12,12s12-5.4,12-12S18.6,0,12,0z M5.5,14.5c-1,0-2,0-2,0l0.6-3c0,0,1.4,0,2,0
		c1.3,0,1.6,0.9,1.6,1.4C7.6,13.6,7.1,14.5,5.5,14.5z M6.2,9.5c-1,0-2,0-2,0l0.6-3c0,0,1.4,0,2,0c1.3,0,1.6,0.9,1.6,1.3
		C8.3,8.6,7.8,9.5,6.2,9.5z M11.1,18.5c-1,0-2,0-2,0l0.6-3c0,0,1.4,0,2,0c1.3,0,1.6,0.9,1.6,1.4C13.2,17.6,12.7,18.5,11.1,18.5z
		 M11.8,13.5c-1,0-2,0-2,0l0.6-3c0,0,1.4,0,2,0c1.3,0,1.6,0.9,1.6,1.4C13.8,12.6,13.4,13.5,11.8,13.5z M12.4,8.5c-1,0-2,0-2,0l0.6-3
		c0,0,1.4,0,2,0c1.3,0,1.6,0.9,1.6,1.3C14.5,7.6,14,8.5,12.4,8.5z M17.8,15.5c-1,0-2,0-2,0l0.6-3c0,0,1.4,0,2,0
		c1.3,0,1.6,0.9,1.6,1.4C19.8,14.6,19.4,15.5,17.8,15.5z M18.4,10.5c-1,0-2,0-2,0l0.6-3c0,0,1.4,0,2,0c1.3,0,1.6,0.9,1.6,1.4
		C20.5,9.6,20,10.5,18.4,10.5z"/>
</g>
<g id="Outline_Icons">
	<g>
		<circle class="st2" cx="12" cy="12" r="11.5"/>
		<path class="st3" d="M6.2,9.5c-1,0-2,0-2,0l0.6-3c0,0,1.4,0,2,0c1.3,0,1.6,0.9,1.6,1.3C8.3,8.6,7.8,9.5,6.2,9.5z"/>
		<path class="st3" d="M12.4,8.5c-1,0-2,0-2,0l0.6-3c0,0,1.4,0,2,0c1.3,0,1.6,0.9,1.6,1.3C14.5,7.6,14,8.5,12.4,8.5z"/>
		<path class="st3" d="M18.4,10.5c-1,0-2,0-2,0l0.6-3c0,0,1.4,0,2,0c1.3,0,1.6,0.9,1.6,1.4C20.5,9.6,20,10.5,18.4,10.5z"/>
		<path class="st3" d="M17.8,15.5c-1,0-2,0-2,0l0.6-3c0,0,1.4,0,2,0c1.3,0,1.6,0.9,1.6,1.4C19.8,14.6,19.4,15.5,17.8,15.5z"/>
		<path class="st3" d="M5.5,14.5c-1,0-2,0-2,0l0.6-3c0,0,1.4,0,2,0c1.3,0,1.6,0.9,1.6,1.4C7.6,13.6,7.1,14.5,5.5,14.5z"/>
		<path class="st3" d="M11.8,13.5c-1,0-2,0-2,0l0.6-3c0,0,1.4,0,2,0c1.3,0,1.6,0.9,1.6,1.4C13.8,12.6,13.4,13.5,11.8,13.5z"/>
		<path class="st3" d="M11.1,18.5c-1,0-2,0-2,0l0.6-3c0,0,1.4,0,2,0c1.3,0,1.6,0.9,1.6,1.4C13.2,17.6,12.7,18.5,11.1,18.5z"/>
	</g>
</g>
</svg>
