<?xml version="1.0" encoding="utf-8"?>
<!-- Generator: Adobe Illustrator 19.2.0, SVG Export Plug-In . SVG Version: 6.00 Build 0)  -->
<svg version="1.1" id="Layer_1" xmlns="http://www.w3.org/2000/svg" xmlns:xlink="http://www.w3.org/1999/xlink" x="0px" y="0px"
	 viewBox="0 0 24 24" style="enable-background:new 0 0 24 24;" xml:space="preserve">
<style type="text/css">
	.st0{display:none;}
	.st1{display:inline;}
	.st2{fill:none;stroke:#000000;stroke-linecap:round;stroke-linejoin:round;stroke-miterlimit:10;}
	.st3{fill:none;stroke:#000000;stroke-linejoin:round;stroke-miterlimit:10;}
</style>
<g id="Filled_Icons" class="st0">
	<g class="st1">
		<path d="M12,0C5.4,0,0,5.4,0,12s5.4,12,12,12s12-5.4,12-12S18.6,0,12,0z M18,11.5c0,0.3-0.2,0.5-0.5,0.5H12v5.5
			c0,0.3-0.2,0.5-0.5,0.5h-6C5.2,18,5,17.8,5,17.5v-6C5,11.2,5.2,11,5.5,11H11V5.5C11,5.2,11.2,5,11.5,5h6C17.8,5,18,5.2,18,5.5
			V11.5z"/>
		<rect x="12" y="6" width="5" height="5"/>
		<rect x="6" y="12" width="5" height="5"/>
	</g>
</g>
<g id="Outline_Icons">
	<g>
		<circle class="st2" cx="12" cy="12" r="11.5"/>
		<rect x="11.5" y="5.5" class="st3" width="6" height="6"/>
		<rect x="5.5" y="11.5" class="st3" width="6" height="6"/>
	</g>
</g>
</svg>
