<?xml version="1.0" encoding="utf-8"?>
<!-- Generator: Adobe Illustrator 19.2.0, SVG Export Plug-In . SVG Version: 6.00 Build 0)  -->
<svg version="1.1" id="Layer_1" xmlns="http://www.w3.org/2000/svg" xmlns:xlink="http://www.w3.org/1999/xlink" x="0px" y="0px"
	 viewBox="0 0 24 24" style="enable-background:new 0 0 24 24;" xml:space="preserve">
<style type="text/css">
	.st0{display:none;}
	.st1{display:inline;}
	.st2{fill:none;stroke:#000000;stroke-linejoin:round;stroke-miterlimit:10;}
</style>
<g id="Filled_Icons" class="st0">
	<g class="st1">
		<g>
			<path d="M12,23c4.9,0,9-3.2,10.4-7.5c-3.9-0.3-6.1-3.5-8.1-6.3c-2-2.9-3.4-4.7-5.6-3.9c1.2,2.8,0.9,5.5-0.8,7.4
				c-1.5,1.7-3.8,2.6-5.6,2.1c-0.4-0.1-0.7-0.3-1-0.5C2.3,19.2,6.7,23,12,23z"/>
		</g>
		<g>
			<path d="M12,1C5.9,1,1,5.9,1,12c0.2,1.2,0.9,1.7,1.5,1.8c1.5,0.4,3.4-0.3,4.6-1.7C8,11,9.2,8.8,7.5,5.2C7.4,5,7.5,4.7,7.8,4.6
				c3.3-1.6,5.3,1.1,7.4,4.1c1.9,2.7,4,5.7,7.6,5.9c0.2-0.8,0.3-1.6,0.3-2.5C23,5.9,18.1,1,12,1z"/>
		</g>
	</g>
</g>
<g id="Outline_Icons">
	<g>
		<circle class="st2" cx="12" cy="12" r="11.5"/>
		<path class="st2" d="M0.5,12C1.2,17.3,12,13.4,8,5c5.9-2.9,7,10,15,10"/>
	</g>
</g>
</svg>
