<?xml version="1.0" encoding="utf-8"?>
<!-- Generator: Adobe Illustrator 19.2.0, SVG Export Plug-In . SVG Version: 6.00 Build 0)  -->
<svg version="1.1" id="Layer_1" xmlns="http://www.w3.org/2000/svg" xmlns:xlink="http://www.w3.org/1999/xlink" x="0px" y="0px"
	 viewBox="0 0 24 24" style="enable-background:new 0 0 24 24;" xml:space="preserve">
<style type="text/css">
	.st0{display:none;}
	.st1{display:inline;}
	.st2{fill:none;stroke:#000000;stroke-linejoin:round;stroke-miterlimit:10;}
</style>
<g id="Filled_Icons" class="st0">
	<g class="st1">
		<path d="M12.7,12.7c-1.2-0.8-1.5-1.1-1.2-1.8c0.3-0.2,0.5-0.4,0.8-0.6c2.1-2.1,2-5.5,0-7.8h2.3v-2h-7v0.1C6.2,0.6,4.9,1.1,4,2.1
			c-2.2,2.2-2.1,5.7,0.2,8c1.1,1.1,2.6,1.8,4.2,1.8c0.4,0,0.7,0,1-0.1c0.1,0.8,0.6,1.4,1.2,1.9c-0.8-0.2-1.6-0.2-2.5-0.2
			c-4.5,0-8,2.2-8,5.1s3.5,5.1,8,5.1s8-2.2,8-5.1C16.1,15,14.1,13.6,12.7,12.7z M5.6,8.7C4.1,7.2,4,4.9,5.4,3.5c0.6-0.6,1.5-1,2.4-1
			c1,0,2,0.4,2.8,1.2c1.5,1.5,1.6,3.8,0.2,5.2C9.5,10.2,7,10.1,5.6,8.7z M8.1,21.5c-3.5,0-6-1.6-6-3.1s2.5-3.1,6-3.1s6,1.6,6,3.1
			C14.1,19.9,11.6,21.5,8.1,21.5z"/>
		<polygon points="24,7.5 20.5,7.5 20.5,4 18.5,4 18.5,7.5 15,7.5 15,9.5 18.5,9.5 18.5,13 20.5,13 20.5,9.5 24,9.5 		"/>
	</g>
</g>
<g id="Outline_Icons">
	<g>
		<ellipse transform="matrix(0.7071 -0.7071 0.7071 0.7071 -2.187 7.1237)" class="st2" cx="7.5" cy="6.2" rx="4.5" ry="4.8"/>
		<line class="st2" x1="6.9" y1="1.5" x2="13.9" y2="1.5"/>
		<ellipse class="st2" cx="7.5" cy="18.4" rx="7" ry="4.1"/>
		<path class="st2" d="M10,10.3c-1.5,3.7,4.5,2.6,4.5,8.2"/>
		<line class="st2" x1="19.5" y1="4" x2="19.5" y2="13"/>
		<line class="st2" x1="24" y1="8.5" x2="15" y2="8.5"/>
	</g>
</g>
</svg>
