<?xml version="1.0" encoding="utf-8"?>
<!-- Generator: Adobe Illustrator 19.2.0, SVG Export Plug-In . SVG Version: 6.00 Build 0)  -->
<svg version="1.1" id="Layer_1" xmlns="http://www.w3.org/2000/svg" xmlns:xlink="http://www.w3.org/1999/xlink" x="0px" y="0px"
	 viewBox="0 0 24 24" style="enable-background:new 0 0 24 24;" xml:space="preserve">
<style type="text/css">
	.st0{display:none;}
	.st1{display:inline;}
	.st2{fill:none;stroke:#000000;stroke-linejoin:round;stroke-miterlimit:10;}
	.st3{fill:none;stroke:#000000;stroke-linecap:round;stroke-linejoin:round;stroke-miterlimit:10;}
</style>
<g id="Filled_Icons" class="st0">
	<g class="st1">
		<g>
			<path d="M19.5,4h-1.7l-0.9-1.7C16.9,2.1,16.7,2,16.5,2h-3c-0.2,0-0.4,0.1-0.4,0.3L12.2,4h-1.7C9.1,4,8,5.1,8,6.5v6
				c0,1.4,1.1,2.5,2.5,2.5h9c1.4,0,2.5-1.1,2.5-2.5v-6C22,5.1,20.9,4,19.5,4z M15,13c-1.9,0-3.5-1.6-3.5-3.5S13.1,6,15,6
				s3.5,1.6,3.5,3.5S16.9,13,15,13z"/>
			<circle cx="15" cy="9.5" r="1.5"/>
			<path d="M5.5,4h-3C2.2,4,2,4.2,2,4.5v10C2,14.8,2.2,15,2.5,15h3C5.8,15,6,14.8,6,14.5v-10C6,4.2,5.8,4,5.5,4z"/>
		</g>
		<g>
			<path d="M6.1,17H3.5C3.2,17,3,17.2,3,17.5v6C3,23.8,3.2,24,3.5,24S4,23.8,4,23.5V21h1.4c0.3,0,0.5-0.2,0.5-0.5S5.7,20,5.4,20H4
				v-2h2.1c0.3,0,0.5-0.2,0.5-0.5S6.4,17,6.1,17z"/>
			<path d="M19.5,17c-0.3,0-0.5,0.2-0.5,0.5v2.1c-0.3-0.1-0.5-0.1-0.7-0.1c-0.5,0-1.7,0.2-1.7,2.3c0,2.1,1.2,2.3,1.7,2.3
				c0.2,0,0.5,0,0.8-0.2c0.1,0.1,0.2,0.2,0.4,0.2c0.3,0,0.5-0.2,0.5-0.5v-6C20,17.2,19.8,17,19.5,17z M18.3,23c-0.2,0-0.7,0-0.7-1.3
				s0.5-1.3,0.7-1.3c0.2,0,0.7,0,0.7,1.3S18.5,23,18.3,23z"/>
			<path d="M9.1,19.4c-0.5,0-1.7,0.2-1.7,2.3c0,2.1,1.2,2.3,1.7,2.3s1.7-0.2,1.7-2.3S9.6,19.4,9.1,19.4z M9.1,23
				c-0.2,0-0.7,0-0.7-1.3s0.5-1.3,0.7-1.3s0.7,0,0.7,1.3C9.8,23,9.3,23,9.1,23z"/>
			<path d="M14,19.4c-0.5,0-1.7,0.2-1.7,2.3c0,2.1,1.2,2.3,1.7,2.3c0.5,0,1.7-0.2,1.7-2.3S14.5,19.4,14,19.4z M14,23
				c-0.2,0-0.7,0-0.7-1.3s0.5-1.3,0.7-1.3c0.2,0,0.7,0,0.7,1.3S14.2,23,14,23z"/>
		</g>
	</g>
</g>
<g id="Outline_Icons">
	<g>
		<path class="st2" d="M19.5,4.5h-2l-1-2h-3l-1,2h-2c-1.1,0-2,0.9-2,2v6c0,1.1,0.9,2,2,2h9c1.1,0,2-0.9,2-2v-6
			C21.5,5.4,20.6,4.5,19.5,4.5z"/>
		<circle class="st2" cx="15" cy="9.5" r="3"/>
		<circle class="st2" cx="15" cy="9.5" r="1"/>
		<rect x="2.5" y="4.5" class="st2" width="3" height="10"/>
		<g>
			<polyline class="st3" points="3.5,23.5 3.5,17.5 6.1,17.5 			"/>
			<line class="st3" x1="3.5" y1="20.5" x2="5.4" y2="20.5"/>
		</g>
		<g>
			<line class="st3" x1="19.5" y1="23.5" x2="19.5" y2="17.5"/>
			<path class="st3" d="M19.5,21.7c0,1-0.3,1.8-1.2,1.8s-1.2-0.8-1.2-1.8c0-1,0.3-1.8,1.2-1.8C19.2,19.9,19.5,20.7,19.5,21.7z"/>
		</g>
		<path class="st3" d="M8,21.7c0,1,0.3,1.8,1.2,1.8c0.9,0,1.2-0.8,1.2-1.8c0-1-0.3-1.8-1.2-1.8C8.3,19.9,8,20.7,8,21.7z"/>
		<path class="st3" d="M12.8,21.7c0,1,0.3,1.8,1.2,1.8c0.9,0,1.2-0.8,1.2-1.8c0-1-0.3-1.8-1.2-1.8C13.1,19.9,12.8,20.7,12.8,21.7z"
			/>
	</g>
</g>
</svg>
