<?xml version="1.0" encoding="utf-8"?>
<!-- Generator: Adobe Illustrator 19.2.0, SVG Export Plug-In . SVG Version: 6.00 Build 0)  -->
<svg version="1.1" id="Layer_1" xmlns="http://www.w3.org/2000/svg" xmlns:xlink="http://www.w3.org/1999/xlink" x="0px" y="0px"
	 viewBox="0 0 24 24" style="enable-background:new 0 0 24 24;" xml:space="preserve">
<style type="text/css">
	.st0{display:none;}
	.st1{display:inline;}
	.st2{fill:none;stroke:#000000;stroke-linejoin:round;stroke-miterlimit:10;}
</style>
<g id="Filled_Icons" class="st0">
	<g class="st1">
		<path d="M19,8.5h2.2l0.9-2c0,0-8,0-8.9,0l0.3,2H16l-4.1,3.6C11,11,9,8.5,7.7,6.5h2.8v-2h-10v2h3c1.2,0.9,6,7.2,6,7.2v3.8
			c0,0-2.6,0.5-3.1,0.6l-0.2,1.4h9.3l1-1.4l-3-0.6v-3.9L19,8.5z"/>
		<path d="M20.5,16.9l1.4,0.1l1.6-6.2c-0.3,0-2.7-0.2-3-0.3V16.9L20.5,16.9z"/>
		<polygon points="20.6,18.5 20.6,19.4 21.5,19.5 21.6,18.6 		"/>
	</g>
</g>
<g id="Outline_Icons">
	<g>
		<path class="st2" d="M19,8.5h2.2l0.9-2c0,0-8,0-8.9,0l0.3,2H16l-4.1,3.6C11,11,9,8.5,7.7,6.5h2.8v-2h-10v2h3c1.2,0.9,6,7.2,6,7.2
			v3.8c0,0-2.6,0.5-3.1,0.6l-0.2,1.4h9.3l1-1.4l-3-0.6v-3.9L19,8.5z"/>
		<path class="st2" d="M20.5,16.9l1.4,0.1l1.6-6.2c-0.3,0-2.7-0.2-3-0.3V16.9L20.5,16.9z"/>
		<polygon class="st2" points="20.6,18.5 20.6,19.4 21.5,19.5 21.6,18.6 		"/>
	</g>
</g>
</svg>
