<?xml version="1.0" encoding="utf-8"?>
<!-- Generator: Adobe Illustrator 19.2.0, SVG Export Plug-In . SVG Version: 6.00 Build 0)  -->
<svg version="1.1" id="Layer_1" xmlns="http://www.w3.org/2000/svg" xmlns:xlink="http://www.w3.org/1999/xlink" x="0px" y="0px"
	 viewBox="0 0 24 24" style="enable-background:new 0 0 24 24;" xml:space="preserve">
<style type="text/css">
	.st0{display:none;}
	.st1{display:inline;}
	.st2{fill:none;stroke:#000000;stroke-linejoin:round;stroke-miterlimit:10;}
</style>
<g id="Filled_Icons" class="st0">
	<path class="st1" d="M12,0.7C5.7,0.7,0.5,5.8,0.5,12.1c0,2.5,0.8,4.8,2.2,6.7L1.3,23l4.4-1.4c1.8,1.2,4,1.9,6.3,1.9
		c6.3,0,11.5-5.1,11.5-11.4C23.5,5.8,18.3,0.7,12,0.7z M16.4,18.4c-0.6,0.1-0.6,0.5-4-0.8c-3.4-1.3-5.6-4.8-5.7-5
		c-1.6-2.1-2-4.3-0.2-6.2c0.6-0.6,2-0.6,2.3,0.2c0.3,0.7,0.9,2.3,1,2.5c0.1,0.2,0.1,0.4,0,0.6C9.7,9.8,9.6,10.1,9,10.7
		c-0.2,0.2-0.3,0.3-0.1,0.7c0.2,0.3,0.9,1.4,1.9,2.3c1.3,1.1,2.4,1.5,2.7,1.6c0.3,0.2,0.5,0.1,0.7-0.1s0.8-1,1.1-1.3
		c0.2-0.3,0.4-0.3,0.8-0.2c0.3,0.1,2,0.9,2.3,1.1c0.3,0.2,0.6,0.2,0.6,0.4C19.4,16.1,18.2,18.2,16.4,18.4z"/>
</g>
<g id="Outline_Icons">
	<g>
		<path class="st2" d="M12,0.7C5.7,0.7,0.5,5.8,0.5,12.1c0,2.5,0.8,4.8,2.2,6.7L1.3,23l4.4-1.4c1.8,1.2,4,1.9,6.3,1.9
			c6.3,0,11.5-5.1,11.5-11.4C23.5,5.8,18.3,0.7,12,0.7 M18.9,15.2c-0.1-0.1-0.3-0.2-0.6-0.4c-0.3-0.2-2-1-2.3-1.1
			c-0.3-0.1-0.5-0.2-0.8,0.2c-0.2,0.3-0.9,1.1-1.1,1.3c-0.2,0.2-0.4,0.2-0.7,0.1c-0.3-0.2-1.4-0.5-2.7-1.6c-1-0.9-1.7-2-1.9-2.3
			c-0.2-0.3,0-0.5,0.1-0.7c0.6-0.6,0.7-0.9,0.8-1.1c0.1-0.2,0.1-0.4,0-0.6c-0.1-0.2-0.8-1.8-1-2.5C8.5,5.7,7.1,5.7,6.5,6.3
			c-1.8,1.9-1.4,4.1,0.2,6.2c0.2,0.2,2.3,3.7,5.7,5c3.4,1.3,3.4,0.9,4,0.8C18.2,18.2,19.4,16.1,18.9,15.2"/>
	</g>
</g>
</svg>
