<?xml version="1.0" encoding="utf-8"?>
<!-- Generator: Adobe Illustrator 19.2.0, SVG Export Plug-In . SVG Version: 6.00 Build 0)  -->
<svg version="1.1" id="Layer_1" xmlns="http://www.w3.org/2000/svg" xmlns:xlink="http://www.w3.org/1999/xlink" x="0px" y="0px"
	 viewBox="0 0 24 24" style="enable-background:new 0 0 24 24;" xml:space="preserve">
<style type="text/css">
	.st0{display:none;}
	.st1{display:inline;}
	.st2{fill:none;stroke:#000000;stroke-linejoin:round;stroke-miterlimit:10;}
</style>
<g id="Filled_Icons" class="st0">
	<g class="st1">
		<path d="M6.5,15.5v-6h2L4.5,5l-4,4.5h2v6.7c0,1.3,1.4,2.3,2.6,2.3h10.4l-3-3H6.5z"/>
		<path d="M21.5,13.5V7c0-1.3-1.4-2.5-2.6-2.5H8.5l3,3h6v6h-2l4,4.5l4-4.5H21.5z"/>
	</g>
</g>
<g id="Outline_Icons">
	<g>
		<path class="st2" d="M6.5,15.5v-6h2L4.5,5l-4,4.5h2v6.7c0,1.3,1.4,2.3,2.6,2.3h10.4l-3-3H6.5z"/>
		<path class="st2" d="M21.5,13.5V7c0-1.3-1.4-2.5-2.6-2.5H8.5l3,3h6v6h-2l4,4.5l4-4.5H21.5z"/>
	</g>
</g>
</svg>
