<?xml version="1.0" encoding="utf-8"?>
<!-- Generator: Adobe Illustrator 19.2.0, SVG Export Plug-In . SVG Version: 6.00 Build 0)  -->
<svg version="1.1" id="Layer_1" xmlns="http://www.w3.org/2000/svg" xmlns:xlink="http://www.w3.org/1999/xlink" x="0px" y="0px"
	 viewBox="0 0 24 24" style="enable-background:new 0 0 24 24;" xml:space="preserve">
<style type="text/css">
	.st0{display:none;}
	.st1{display:inline;}
	.st2{fill:none;stroke:#000000;stroke-linejoin:round;stroke-miterlimit:10;}
</style>
<g id="Filled_Icons" class="st0">
	<path class="st1" d="M12.1,0.5C5.9,0.5,2.7,5,2.7,8.8c0,2.3,0.9,4.3,2.7,5c0.3,0.1,0.6,0,0.7-0.3c0.1-0.2,0.2-0.8,0.3-1.1
		c0.1-0.3,0.1-0.4-0.2-0.7C5.6,11,5.3,10.2,5.3,9.1c0-3.3,2.5-6.3,6.5-6.3c3.5,0,5.5,2.2,5.5,5.1c0,3.8-1.7,7-4.2,7
		c-1.4,0-2.4-1.1-2.1-2.5c0.4-1.7,1.2-3.5,1.2-4.7c0-1.1-0.6-2-1.8-2C9,5.6,7.8,7.1,7.8,9c0,1.2,0.4,2.1,0.4,2.1s-1.4,6.1-1.7,7.2
		c-0.5,2.1-0.1,4.8,0,5c0,0.2,0.2,0.2,0.3,0.1c0.1-0.2,1.8-2.2,2.4-4.3c0.2-0.6,0.9-3.6,0.9-3.6c0.5,0.9,1.8,1.6,3.2,1.6
		c4.2,0,7.1-3.9,7.1-9.1C20.5,4.2,17.2,0.5,12.1,0.5z"/>
</g>
<g id="Outline_Icons">
	<path class="st2" d="M12.1,0.5C5.9,0.5,2.7,5,2.7,8.8c0,2.3,0.9,4.3,2.7,5c0.3,0.1,0.6,0,0.7-0.3c0.1-0.2,0.2-0.8,0.3-1.1
		c0.1-0.3,0.1-0.4-0.2-0.7C5.6,11,5.3,10.2,5.3,9.1c0-3.3,2.5-6.3,6.5-6.3c3.5,0,5.5,2.2,5.5,5.1c0,3.8-1.7,7-4.2,7
		c-1.4,0-2.4-1.1-2.1-2.5c0.4-1.7,1.2-3.5,1.2-4.7c0-1.1-0.6-2-1.8-2C9,5.6,7.8,7.1,7.8,9c0,1.2,0.4,2.1,0.4,2.1s-1.4,6.1-1.7,7.2
		c-0.5,2.1-0.1,4.8,0,5c0,0.2,0.2,0.2,0.3,0.1c0.1-0.2,1.8-2.2,2.4-4.3c0.2-0.6,0.9-3.6,0.9-3.6c0.5,0.9,1.8,1.6,3.2,1.6
		c4.2,0,7.1-3.9,7.1-9.1C20.5,4.2,17.2,0.5,12.1,0.5z"/>
</g>
</svg>
