<?xml version="1.0" encoding="utf-8"?>
<!-- Generator: Adobe Illustrator 19.2.0, SVG Export Plug-In . SVG Version: 6.00 Build 0)  -->
<svg version="1.1" id="Layer_1" xmlns="http://www.w3.org/2000/svg" xmlns:xlink="http://www.w3.org/1999/xlink" x="0px" y="0px"
	 viewBox="0 0 24 24" style="enable-background:new 0 0 24 24;" xml:space="preserve">
<style type="text/css">
	.st0{display:none;}
	.st1{display:inline;}
	.st2{fill:none;stroke:#000000;stroke-linecap:round;stroke-linejoin:round;stroke-miterlimit:10;}
	.st3{fill:none;stroke:#000000;stroke-linejoin:round;stroke-miterlimit:10;}
</style>
<g id="Filled_Icons" class="st0">
	<path class="st1" d="M12,0C5.4,0,0,5.4,0,12s5.4,12,12,12s12-5.4,12-12S18.6,0,12,0z M6.5,6.7c0-0.7,0.6-1.2,1.3-1.2h8.6
		c0.7,0,1.2,0.5,1.2,1.2v5.5c-0.3,0.1-0.6,0.2-1,0.3c0.3-0.4,0.5-1,0.5-1.6c0-1.6-1.3-2.8-2.8-2.8c-0.9,0-1.6,0.4-2.1,1
		c-0.5-0.6-1.3-1-2.1-1c-1.6,0-2.8,1.3-2.8,2.8c0,0.6,0.2,1.1,0.5,1.5c-0.4-0.1-0.7-0.2-1-0.3C6.5,12.2,6.5,6.7,6.5,6.7z M16,11
		c0,1-0.8,1.8-1.8,1.8S12.3,12,12.3,11c0-1,0.8-1.8,1.8-1.8C15.2,9.2,16,10,16,11z M11.7,11c0,1-0.8,1.8-1.8,1.8S8.1,12,8.1,11
		c0-1,0.8-1.8,1.8-1.8C10.9,9.2,11.7,10,11.7,11z M16.4,15.5c1.4,2.4-0.8,4-2.1,4c-2.4,0-1.2-3.3-2.2-3.3c-0.9,0,0.3,3.3-2.2,3.3
		c-1.3,0-3.5-1.5-2.1-4c0.4-0.8-2.5-1.6-2.5-2.7c0.7,0.3,2.7,1.1,5.1,1.1c1.4,0,1.7,0.7,1.7,0.7s0.3-0.7,1.7-0.7
		c2.4,0,4.3-0.8,5-1.1C18.7,14,15.9,14.7,16.4,15.5z"/>
</g>
<g id="Outline_Icons">
	<g>
		<circle class="st2" cx="12" cy="12" r="11.5"/>
		<g>
			<path class="st3" d="M12.1,16.2c0.9,0-0.3,3.3,2.2,3.3c1.3,0,3.5-1.5,2.1-4c-0.4-0.8,2.4-1.5,2.4-2.7c-0.7,0.3-2.5,1.1-5,1.1
				c-1.4,0-1.7,0.7-1.7,0.7s-0.3-0.7-1.7-0.7c-2.4,0-4.4-0.9-5.1-1.1c0,1.1,2.9,1.9,2.5,2.7c-1.4,2.4,0.8,4,2.1,4
				C12.3,19.5,11.1,16.2,12.1,16.2z"/>
			<path class="st3" d="M17.5,13.5V6.7c0-0.7-0.5-1.2-1.2-1.2H7.8C7.1,5.5,6.5,6,6.5,6.7v6.8"/>
			<circle class="st3" cx="14.2" cy="11" r="1.8"/>
			<circle class="st3" cx="9.9" cy="11" r="1.8"/>
		</g>
	</g>
</g>
</svg>
