<?xml version="1.0" encoding="utf-8"?>
<!-- Generator: Adobe Illustrator 19.2.0, SVG Export Plug-In . SVG Version: 6.00 Build 0)  -->
<svg version="1.1" id="Layer_1" xmlns="http://www.w3.org/2000/svg" xmlns:xlink="http://www.w3.org/1999/xlink" x="0px" y="0px"
	 viewBox="0 0 24 24" style="enable-background:new 0 0 24 24;" xml:space="preserve">
<style type="text/css">
	.st0{display:none;}
	.st1{display:inline;}
	.st2{fill:none;stroke:#000000;stroke-linecap:round;stroke-linejoin:round;stroke-miterlimit:10;}
	.st3{fill:none;stroke:#000000;stroke-linejoin:round;stroke-miterlimit:10;}
</style>
<g id="Filled_Icons" class="st0">
	<g class="st1">
		<polygon points="9.2,7 8,8.2 8,12.8 9.2,14 15.8,14 16,13.7 16,8.2 14.8,7 		"/>
		<path d="M12,0C5.4,0,0,5.4,0,12s5.4,12,12,12s12-5.4,12-12S18.6,0,12,0z M17,14v3.2L15.2,19H8.8l-1.3-1.6l0.8-0.6l1,1.2h5.6
			l1.2-1.2V15H8.8L7,13.2V7.8L8.8,6h6.4L17,7.8v4.6l2-2.6l0.8,0.6L17,14z"/>
	</g>
</g>
<g id="Outline_Icons">
	<g>
		<circle class="st2" cx="12" cy="12" r="11.5"/>
		<polyline class="st3" points="7.9,17.1 9,18.5 15,18.5 16.5,17 16.5,8 15,6.5 9,6.5 7.5,8 7.5,13 9,14.5 16,14.5 19.4,10 		"/>
	</g>
</g>
</svg>
