<?xml version="1.0" encoding="utf-8"?>
<!-- Generator: Adobe Illustrator 19.2.0, SVG Export Plug-In . SVG Version: 6.00 Build 0)  -->
<svg version="1.1" id="Layer_1" xmlns="http://www.w3.org/2000/svg" xmlns:xlink="http://www.w3.org/1999/xlink" x="0px" y="0px"
	 viewBox="0 0 24 24" style="enable-background:new 0 0 24 24;" xml:space="preserve">
<style type="text/css">
	.st0{display:none;}
	.st1{display:inline;}
	.st2{fill:none;stroke:#000000;stroke-linejoin:round;stroke-miterlimit:10;}
	.st3{fill:none;stroke:#000000;stroke-linecap:round;stroke-linejoin:round;stroke-miterlimit:10;}
</style>
<g id="Filled_Icons" class="st0">
	<g class="st1">
		<path d="M18.3,17.4c-0.9-0.7-0.8-0.7-2-1.5c-1.5-1.1-2.8-0.9-3.8,0.6c-0.3,0.5-0.7,0.5-1.2,0.3c-1.9-0.9-3.3-2.2-4.1-4
			C6.9,12,7,11.5,7.6,11.1c0.4-0.3,1.2-0.8,1.1-1.9C8.7,8.1,6.3,4.8,5.2,4.4c-0.5-0.2-0.9-0.2-1.4,0C2.6,4.8,1.7,5.5,1.3,6.4
			c-0.4,0.9-0.4,2,0,3.1C3.8,15.6,8.2,20,14.5,22.7c2.3,1,4.5-1.2,5-2.6C20,18.6,19,17.9,18.3,17.4z"/>
		<path d="M23.2,11.8c-1.4-5-5.5-9.1-10.5-10.5c-0.3-0.1-0.5,0.1-0.6,0.4s0.1,0.5,0.4,0.6c4.7,1.3,8.5,5.1,9.8,9.8
			c0.1,0.2,0.3,0.4,0.5,0.4c0,0,0.1,0,0.1,0C23.1,12.3,23.3,12.1,23.2,11.8z"/>
		<path d="M12.2,4.1c-0.3-0.1-0.5,0.1-0.6,0.4C11.5,4.7,11.7,5,11.9,5c3.7,0.8,6.9,3.9,7.6,7.7c0,0.2,0.3,0.4,0.5,0.4
			c0,0,0.1,0,0.1,0c0.3-0.1,0.4-0.3,0.4-0.6C19.7,8.4,16.3,4.9,12.2,4.1z"/>
		<path d="M11.4,7.9c2.7,0.2,5.1,2.5,5.2,5.2c0,0.3,0.2,0.5,0.5,0.5c0,0,0,0,0,0c0.3,0,0.5-0.2,0.5-0.5c-0.2-3.3-3-6-6.2-6.2
			c-0.3,0-0.5,0.2-0.5,0.5C10.9,7.6,11.1,7.8,11.4,7.9z"/>
	</g>
</g>
<g id="Outline_Icons">
	<g>
		<path id="path17-6_4_" class="st2" d="M17.8,17.5c-0.5-0.4-1.1-0.8-1.7-1.2c-1.1-0.8-2.2-0.9-3.1,0.4c-0.5,0.7-1.2,0.8-1.9,0.4
			c-1.9-0.9-3.4-2.2-4.3-4.2c-0.4-0.9-0.4-1.7,0.5-2.3c0.5-0.3,1-0.7,0.9-1.4c-0.1-0.9-2.3-4-3.2-4.4c-0.4-0.1-0.7-0.1-1.1,0
			C1.8,5.6,1,7.3,1.8,9.3c2.5,6.1,6.8,10.3,12.8,12.9c0.3,0.1,0.7,0.2,0.9,0.3c1.4,0,3-1.3,3.4-2.6C19.4,18.6,18.5,18.1,17.8,17.5
			L17.8,17.5z"/>
		<path class="st3" d="M22.7,11.9c-1.3-4.8-5.3-8.8-10.1-10.1"/>
		<path class="st3" d="M11.5,7.4c3,0.2,5.5,2.7,5.7,5.7"/>
		<path class="st3" d="M20,12.6c-0.8-4-4-7.3-8-8.1"/>
		<path class="st3" d="M17.2,13.1c-0.2-3-2.7-5.5-5.7-5.7"/>
	</g>
</g>
</svg>
