<?xml version="1.0" encoding="utf-8"?>
<!-- Generator: Adobe Illustrator 19.2.0, SVG Export Plug-In . SVG Version: 6.00 Build 0)  -->
<svg version="1.1" id="Layer_1" xmlns="http://www.w3.org/2000/svg" xmlns:xlink="http://www.w3.org/1999/xlink" x="0px" y="0px"
	 viewBox="0 0 24 24" style="enable-background:new 0 0 24 24;" xml:space="preserve">
<style type="text/css">
	.st0{display:none;}
	.st1{display:inline;}
	.st2{fill:none;stroke:#000000;stroke-linejoin:round;stroke-miterlimit:10;}
</style>
<g id="Filled_Icons" class="st0">
	<g class="st1">
		<circle cx="14" cy="6.3" r="1.5"/>
		<circle cx="9.5" cy="6.3" r="1.5"/>
		<circle cx="16.5" cy="1.5" r="1.5"/>
		<circle cx="7.5" cy="1.5" r="1.5"/>
		<circle cx="16.5" cy="22.5" r="1.5"/>
		<circle cx="7.5" cy="22.5" r="1.5"/>
		<circle cx="22.5" cy="16.5" r="1.5"/>
		<circle cx="22.5" cy="7.5" r="1.5"/>
		<circle cx="1.5" cy="16.5" r="1.5"/>
		<circle cx="1.5" cy="7.5" r="1.5"/>
		<circle cx="14" cy="17.3" r="1.5"/>
		<circle cx="9.5" cy="17.3" r="1.5"/>
		<circle cx="17.2" cy="14.1" r="1.5"/>
		<circle cx="17.2" cy="9.6" r="1.5"/>
		<circle cx="6.2" cy="14.1" r="1.5"/>
		<circle cx="6.2" cy="9.6" r="1.5"/>
	</g>
</g>
<g id="Outline_Icons">
	<g>
		<circle class="st2" cx="14" cy="6.3" r="1"/>
		<circle class="st2" cx="9.5" cy="6.3" r="1"/>
		<circle class="st2" cx="16.5" cy="1.5" r="1"/>
		<circle class="st2" cx="7.5" cy="1.5" r="1"/>
		<circle class="st2" cx="16.5" cy="22.5" r="1"/>
		<circle class="st2" cx="7.5" cy="22.5" r="1"/>
		<circle class="st2" cx="22.5" cy="16.5" r="1"/>
		<circle class="st2" cx="22.5" cy="7.5" r="1"/>
		<circle class="st2" cx="1.5" cy="16.5" r="1"/>
		<circle class="st2" cx="1.5" cy="7.5" r="1"/>
		<circle class="st2" cx="14" cy="17.3" r="1"/>
		<circle class="st2" cx="9.5" cy="17.3" r="1"/>
		<circle class="st2" cx="17.2" cy="14.1" r="1"/>
		<circle class="st2" cx="17.2" cy="9.6" r="1"/>
		<circle class="st2" cx="6.2" cy="14.1" r="1"/>
		<circle class="st2" cx="6.2" cy="9.6" r="1"/>
	</g>
</g>
</svg>
