<?xml version="1.0" encoding="utf-8"?>
<!-- Generator: Adobe Illustrator 19.2.0, SVG Export Plug-In . SVG Version: 6.00 Build 0)  -->
<svg version="1.1" id="Layer_1" xmlns="http://www.w3.org/2000/svg" xmlns:xlink="http://www.w3.org/1999/xlink" x="0px" y="0px"
	 viewBox="0 0 24 24" style="enable-background:new 0 0 24 24;" xml:space="preserve">
<style type="text/css">
	.st0{display:none;}
	.st1{display:inline;}
	.st2{fill:none;stroke:#000000;stroke-linecap:round;stroke-linejoin:round;stroke-miterlimit:10;}
	.st3{fill:none;stroke:#000000;stroke-linejoin:round;stroke-miterlimit:10;}
</style>
<g id="Filled_Icons" class="st0">
	<path class="st1" d="M12,0C5.4,0,0,5.4,0,12s5.4,12,12,12s12-5.4,12-12S18.6,0,12,0z M12,19.5c-3.6,0-6.7-2.6-7.4-6.1
		C5,13.7,5.3,13.9,5.8,14c1.3,0.3,2.9-0.3,3.8-1.5c1-1.3,1.2-3,0.5-4.8c1.2-0.3,2.1,0.8,3.3,2.6c1.3,1.8,2.9,4.1,5.7,4.2
		C18.1,17.4,15.3,19.5,12,19.5z M19.4,13.5c-2.5,0-3.7-1.6-5.2-3.8c-1.3-1.9-2.7-3.8-5-2.7C8.9,7.1,8.8,7.4,8.9,7.6
		c1,2.2,0.3,3.6-0.2,4.2C8.1,12.7,6.9,13.2,6,13c-0.5-0.1-1.2-0.5-1.5-1.5c0.3-3.9,3.5-7,7.5-7c4.1,0,7.5,3.4,7.5,7.5
		C19.5,12.5,19.4,13,19.4,13.5z"/>
</g>
<g id="Outline_Icons">
	<g>
		<circle class="st2" cx="12" cy="12" r="11.5"/>
		<g>
			<circle class="st3" cx="12" cy="12" r="7.5"/>
			<path class="st3" d="M4.5,12c0.4,3.5,7.5,0.9,4.9-4.6C13.3,5.5,14,14,19.2,14"/>
		</g>
	</g>
</g>
</svg>
