<?xml version="1.0" encoding="utf-8"?>
<!-- Generator: Adobe Illustrator 19.2.0, SVG Export Plug-In . SVG Version: 6.00 Build 0)  -->
<svg version="1.1" id="Layer_1" xmlns="http://www.w3.org/2000/svg" xmlns:xlink="http://www.w3.org/1999/xlink" x="0px" y="0px"
	 viewBox="0 0 24 24" style="enable-background:new 0 0 24 24;" xml:space="preserve">
<style type="text/css">
	.st0{display:none;}
	.st1{display:inline;}
	.st2{fill:none;stroke:#000000;stroke-linejoin:round;stroke-miterlimit:10;}
</style>
<g id="Filled_Icons" class="st0">
	<g class="st1">
		<path d="M4.2,8.3L4.2,8.3c-0.6,0-0.8,0.9-1.2,3.2c0,0.1,0,0.3-0.1,0.4c-0.2-0.4-0.5-0.9-0.7-1.3c-1.1-1.9-1.1-2-1.5-2
			c-0.1,0-0.3,0.1-0.4,0.2c-0.2,0.2-0.3,0.3,0.3,4.6c0,0.3,0.3,0.5,0.6,0.4c0.3,0,0.5-0.3,0.4-0.6c-0.1-0.7-0.2-1.5-0.3-2.2
			c1.4,2.4,1.4,2.5,1.8,2.5c0.5,0,0.6-0.3,0.8-2c0.1-0.4,0.1-0.8,0.2-1.3c0.2,0.9,0.5,2.2,0.8,3.4c0,0.2,0.3,0.4,0.5,0.4
			c0,0,0.1,0,0.1,0c0.3-0.1,0.4-0.3,0.4-0.6C4.8,8.4,4.6,8.3,4.2,8.3z"/>
		<path d="M8.6,13.3c0,0-0.3,0.3-0.8,0.1c-0.3-0.1-0.5-0.3-0.5-0.6c0-0.1,0-0.1,0-0.2c1.3,0.3,1.6,0.2,1.8-0.1
			c0.1-0.2,0.4-1.5,0.2-2.2C9.1,10,8.9,9.9,8.8,9.8c-0.4-0.2-0.9-0.1-1.3,0.2c-0.7,0.5-1.4,1.8-1.2,2.9c0.1,0.7,0.5,1.2,1.2,1.4
			c0.2,0.1,0.4,0.1,0.6,0.1c0.5,0,0.9-0.2,1.1-0.4c0.2-0.2,0.3-0.5,0.1-0.7C9.1,13.2,8.8,13.1,8.6,13.3z M8,10.8
			c0.1-0.1,0.1-0.1,0.2-0.1c0,0.2,0,0.7-0.1,1c-0.2,0-0.4-0.1-0.7-0.1C7.6,11.3,7.8,11,8,10.8z"/>
		<path d="M11.9,13.3c0,0-0.3,0.3-0.8,0.1c-0.3-0.1-0.5-0.3-0.5-0.6c0-0.1,0-0.1,0-0.2c1.3,0.3,1.6,0.2,1.8-0.1
			c0.1-0.2,0.4-1.5,0.2-2.2c-0.1-0.3-0.3-0.4-0.4-0.5c-0.4-0.2-0.9-0.1-1.3,0.2c-0.7,0.5-1.4,1.8-1.2,2.9c0.1,0.7,0.5,1.2,1.2,1.4
			c0.2,0.1,0.4,0.1,0.6,0.1c0.5,0,0.9-0.2,1.1-0.4c0.2-0.2,0.3-0.5,0.1-0.7C12.5,13.2,12.1,13.1,11.9,13.3z M11.4,10.8
			c0.1-0.1,0.1-0.1,0.2-0.1c0,0.2,0,0.7-0.1,1c-0.2,0-0.4-0.1-0.7-0.1C11,11.3,11.2,11,11.4,10.8z"/>
		<path d="M15.7,11c-0.2,0-0.4,0-0.7,0.1c0,0,0,0,0,0c0-0.3,0-0.7,0-1.1c0-0.9-0.1-2.2,0-2.5c0.1-0.3-0.1-0.5-0.4-0.6
			c-0.3-0.1-0.5,0.1-0.6,0.4c-0.1,0.4-0.1,1.4,0,2.8c0,0.4,0,0.8,0,1.1c0,0,0,0,0,0c-0.1,0-0.3,0-0.4,0c-0.3,0-0.5,0.2-0.5,0.5
			c0,0.3,0.2,0.5,0.5,0.5c0.2,0,0.4,0,0.6,0c0.1,1.1,0.2,2.3,0.2,2.4c0,0.3,0.2,0.5,0.5,0.5c0,0,0,0,0,0c0.3,0,0.5-0.3,0.4-0.5
			c0,0-0.1-1.3-0.2-2.3c0.3,0,0.5,0,0.7-0.1c0.3,0,0.5-0.3,0.4-0.6C16.2,11.1,15.9,10.9,15.7,11z"/>
		<path d="M19.4,10.8c-0.3,0-0.5,0.2-0.5,0.4c-0.2,1.6-0.7,2.1-1,2.3c-0.4-0.6-0.3-1.7-0.2-2.1c0-0.3-0.1-0.5-0.4-0.6
			c-0.3,0-0.5,0.1-0.6,0.4c0,0.2-0.4,2.2,0.7,3.2c0.1,0.1,0.2,0.1,0.4,0.1c0,0,0.1,0,0.1,0c1.2-0.3,1.9-1.4,2.1-3.2
			C19.9,11,19.7,10.8,19.4,10.8z"/>
		<path d="M24,10.9c-0.2-1-1.1-1.8-1.9-1.6c-0.8,0.1-2.5,1.1-1.6,7.5c0,0.3,0.2,0.4,0.5,0.4c0,0,0,0,0.1,0c0.3,0,0.5-0.3,0.4-0.6
			c-0.1-1-0.2-1.8-0.2-2.5C23.5,13.5,24.2,12,24,10.9z M21.2,13c0.1-2.1,0.7-2.8,1-2.8c0,0,0,0,0.1,0c0.3,0,0.7,0.4,0.7,0.8
			C23.1,11.7,22.7,12.6,21.2,13z"/>
	</g>
</g>
<g id="Outline_Icons">
	<g>
		<path class="st2" d="M1.1,13.5c0,0-0.5-4.3-0.4-4.3s2.2,4,2.4,4c0.2,0,0.6-4.4,1-4.4c0.2,0,1.3,4.9,1.3,4.9"/>
		<path class="st2" d="M7,12c0,0,1.5,0.4,1.5,0.2c0.1-0.1,0.4-1.8,0-2c-1.2-0.5-2.9,3-1,3.6c1,0.3,1.6-0.5,1.6-0.5"/>
		<path class="st2" d="M10.4,12c0,0,1.5,0.4,1.5,0.2c0.1-0.1,0.4-1.8,0-2c-1.1-0.5-2.9,3-1,3.6c1,0.3,1.6-0.5,1.6-0.5"/>
		<path class="st2" d="M14.5,7.3c-0.1,0.6,0,2.8,0,3.7s0.2,3.4,0.2,3.4"/>
		<path class="st2" d="M13.1,11.5c0.6,0.1,2.4,0.1,3-0.1"/>
		<path class="st2" d="M17.1,10.9c0,0-0.4,1.9,0.5,2.8c0.6-0.1,1.5-0.6,1.7-2.8"/>
		<path class="st2" d="M20.6,13.7c7.2-1.4-1.4-9.8,0.3,3"/>
	</g>
</g>
</svg>
