<?xml version="1.0" encoding="utf-8"?>
<!-- Generator: Adobe Illustrator 19.2.0, SVG Export Plug-In . SVG Version: 6.00 Build 0)  -->
<svg version="1.1" id="Layer_1" xmlns="http://www.w3.org/2000/svg" xmlns:xlink="http://www.w3.org/1999/xlink" x="0px" y="0px"
	 viewBox="0 0 24 24" style="enable-background:new 0 0 24 24;" xml:space="preserve">
<style type="text/css">
	.st0{display:none;}
	.st1{display:inline;}
	.st2{fill:none;stroke:#000000;stroke-linejoin:round;stroke-miterlimit:10;}
</style>
<g id="Filled_Icons" class="st0">
	<g class="st1">
		<g>
			<path d="M17.5,24h-2V9.3c-2.7,1.5-5.5,1.5-8,0.1V24h-2V7.5c0-0.4,0.2-0.7,0.6-0.9c0.4-0.2,0.8-0.1,1.1,0.1c2.8,2.4,5.6,2.4,8.7,0
				c0.3-0.2,0.7-0.3,1-0.1c0.3,0.2,0.6,0.5,0.6,0.9V24z"/>
		</g>
		<g>
			<circle cx="7.5" cy="3.5" r="2"/>
		</g>
		<g>
			<circle cx="15.5" cy="3.5" r="2"/>
		</g>
	</g>
</g>
<g id="Outline_Icons">
	<g>
		<path class="st2" d="M6.5,24V7.5c3.1,2.6,6.4,2.7,10,0V24"/>
		<path class="st2" d="M8.5,3.5c0,0.6-0.4,1-1,1l0,0c-0.6,0-1-0.4-1-1l0,0c0-0.6,0.4-1,1-1l0,0C8.1,2.5,8.5,2.9,8.5,3.5L8.5,3.5z"/>
		<path class="st2" d="M16.5,3.5c0,0.6-0.4,1-1,1l0,0c-0.6,0-1-0.4-1-1l0,0c0-0.6,0.4-1,1-1l0,0C16.1,2.5,16.5,2.9,16.5,3.5
			L16.5,3.5z"/>
	</g>
</g>
</svg>
