<?xml version="1.0" encoding="utf-8"?>
<!-- Generator: Adobe Illustrator 19.2.0, SVG Export Plug-In . SVG Version: 6.00 Build 0)  -->
<svg version="1.1" id="Layer_1" xmlns="http://www.w3.org/2000/svg" xmlns:xlink="http://www.w3.org/1999/xlink" x="0px" y="0px"
	 viewBox="0 0 24 24" style="enable-background:new 0 0 24 24;" xml:space="preserve">
<style type="text/css">
	.st0{display:none;}
	.st1{display:inline;}
	.st2{fill:none;stroke:#000000;stroke-linejoin:round;stroke-miterlimit:10;}
</style>
<g id="Filled_Icons" class="st0">
	<g class="st1">
		<path d="M12.6,9c0-2.2-1.8-4-4-4H0.5C0.2,5,0,5.2,0,5.5v7v7C0,19.8,0.2,20,0.5,20h8.1c2.2,0,4-1.8,4-4c0-1.5-0.9-2.8-2.1-3.5
			C11.8,11.8,12.6,10.5,12.6,9z M11.6,16c0,1.7-1.3,3-3,3H1v-6h7.6C10.3,13,11.6,14.3,11.6,16z M8.6,12H1V6h7.6c1.6,0,3,1.3,3,3
			S10.3,12,8.6,12z"/>
		<path d="M24,14.5c0-3-2.5-5.5-5.5-5.5S13,11.5,13,14.5s2.5,5.5,5.5,5.5c2.2,0,4.2-1.3,5.1-3.4c0.1-0.3,0-0.5-0.3-0.7
			c-0.3-0.1-0.5,0-0.7,0.3c-0.7,1.7-2.3,2.8-4.2,2.8c-2.3,0-4.2-1.8-4.5-4h9.5C23.8,15,24,14.8,24,14.5z M14,14c0.2-2.2,2.2-4,4.5-4
			c2.3,0,4.2,1.8,4.5,4H14z"/>
		<path d="M16.5,7h4C20.8,7,21,6.8,21,6.5S20.8,6,20.5,6h-4C16.2,6,16,6.2,16,6.5S16.2,7,16.5,7z"/>
	</g>
</g>
<g id="Outline_Icons">
	<g>
		<path class="st2" d="M12.1,9c0,1.9-1.6,3.5-3.5,3.5H0.5v-7h8.1C10.6,5.5,12.1,7.1,12.1,9z"/>
		<path class="st2" d="M12.1,16c0,1.9-1.6,3.5-3.5,3.5H0.5v-7h8.1C10.6,12.5,12.1,14.1,12.1,16z"/>
		<path class="st2" d="M23.1,16.4c-0.8,1.8-2.5,3.1-4.6,3.1c-2.8,0-5-2.2-5-5c0-2.8,2.2-5,5-5s5,2.2,5,5h-10"/>
		<line class="st2" x1="16" y1="6.5" x2="21" y2="6.5"/>
	</g>
</g>
</svg>
