<?xml version="1.0" encoding="utf-8"?>
<!-- Generator: Adobe Illustrator 19.2.0, SVG Export Plug-In . SVG Version: 6.00 Build 0)  -->
<svg version="1.1" id="Layer_1" xmlns="http://www.w3.org/2000/svg" xmlns:xlink="http://www.w3.org/1999/xlink" x="0px" y="0px"
	 viewBox="0 0 24 24" style="enable-background:new 0 0 24 24;" xml:space="preserve">
<style type="text/css">
	.st0{display:none;}
	.st1{display:inline;}
	.st2{fill:none;stroke:#000000;stroke-linecap:round;stroke-linejoin:round;stroke-miterlimit:10;}
	.st3{fill:none;stroke:#000000;stroke-linejoin:round;stroke-miterlimit:10;}
</style>
<g id="Filled_Icons" class="st0">
	<path class="st1" d="M12,0C5.4,0,0,5.4,0,12s5.4,12,12,12s12-5.4,12-12S18.6,0,12,0z M10.8,18C10.8,18,10.8,18,10.8,18l-7.5-5.1
		c-0.2-0.1-0.3-0.4-0.2-0.6S3.4,12,3.6,12h7.8l2.4-7.4c0.1-0.2,0.3-0.3,0.5-0.3c0,0,0,0,0,0c0.2,0,0.4,0.1,0.5,0.3l2.9,8.4
		c0,0,0,0,0,0h-1.5l-0.4-1.3c-0.2-0.6-0.8-1-1.4-1s-1.2,0.4-1.4,1L12.4,13H11c-0.6,0-1.2,0.4-1.4,1c-0.2,0.6,0,1.3,0.5,1.7l1.2,0.9
		L10.8,18z M17.9,14.9l-1.8,1.3l0.7,2.1c0.1,0.2,0,0.4-0.2,0.6c-0.2,0.1-0.4,0.1-0.6,0l-1.8-1.3l-1.8,1.3c-0.1,0.1-0.2,0.1-0.3,0.1
		s-0.2,0-0.3-0.1c-0.2-0.1-0.2-0.4-0.2-0.6l0.7-2.1l-1.8-1.3c-0.2-0.1-0.2-0.4-0.2-0.6c0.1-0.2,0.3-0.3,0.5-0.3h2.2l0.7-2
		c0.1-0.4,0.8-0.4,0.9,0l0.7,2h2.2c0.2,0,0.4,0.1,0.5,0.3C18.1,14.5,18.1,14.8,17.9,14.9z"/>
</g>
<g id="Outline_Icons">
	<g>
		<circle class="st2" cx="12" cy="12" r="11.5"/>
		<polyline class="st3" points="17.6,14.5 14.3,4.8 11.7,12.5 3.6,12.5 12.2,18.5 		"/>
		<polygon class="st3" points="16.3,18.5 14.3,17 12.2,18.5 13,16.1 11,14.5 13.5,14.5 14.3,12.2 15.1,14.5 17.6,14.5 15.6,16.1 		
			"/>
	</g>
</g>
</svg>
