<?xml version="1.0" encoding="utf-8"?>
<!-- Generator: Adobe Illustrator 19.2.0, SVG Export Plug-In . SVG Version: 6.00 Build 0)  -->
<svg version="1.1" id="Layer_1" xmlns="http://www.w3.org/2000/svg" xmlns:xlink="http://www.w3.org/1999/xlink" x="0px" y="0px"
	 viewBox="0 0 24 24" style="enable-background:new 0 0 24 24;" xml:space="preserve">
<style type="text/css">
	.st0{display:none;}
	.st1{display:inline;}
	.st2{fill:none;stroke:#000000;stroke-linecap:round;stroke-linejoin:round;stroke-miterlimit:10;}
	.st3{fill:none;stroke:#000000;stroke-linejoin:round;stroke-miterlimit:10;}
</style>
<g id="Filled_Icons" class="st0">
	<path class="st1" d="M12,0C5.4,0,0,5.4,0,12s5.4,12,12,12s12-5.4,12-12S18.6,0,12,0z M15.3,10.7l-2.5,2.5l2,3.9
		c0.3,0.5,0.1,1.1-0.4,1.3c-0.5,0.3-1.1,0.1-1.4-0.4l-1.7-3.4l-1.8,1.8v1.1c0,0.6-0.4,1-1,1s-1-0.4-1-1v-11c0-0.6,0.4-1,1-1
		s1,0.4,1,1v7.1l4.3-4.3c0.4-0.4,1-0.4,1.4,0C15.6,9.6,15.6,10.3,15.3,10.7z M17.5,15.3c-0.6,0-1-0.4-1-1c0-0.6,0.4-1,1-1s1,0.4,1,1
		C18.5,14.9,18.1,15.3,17.5,15.3z"/>
</g>
<g id="Outline_Icons">
	<g>
		<circle class="st2" cx="12" cy="12" r="11.5"/>
		<path class="st3" d="M15.3,10.7c0.4-0.4,0.4-1,0-1.4c-0.4-0.4-1-0.4-1.4,0l-4.3,4.3V6.5c0-0.6-0.4-1-1-1s-1,0.4-1,1v11
			c0,0.6,0.4,1,1,1s1-0.4,1-1v-1.1l1.8-1.8L13,18c0.3,0.5,0.9,0.7,1.4,0.4c0.5-0.3,0.6-0.9,0.4-1.3l-2-3.9L15.3,10.7z"/>
		<circle class="st3" cx="17.5" cy="14.3" r="1"/>
	</g>
</g>
</svg>
