<?xml version="1.0" encoding="utf-8"?>
<!-- Generator: Adobe Illustrator 19.2.0, SVG Export Plug-In . SVG Version: 6.00 Build 0)  -->
<svg version="1.1" id="Layer_1" xmlns="http://www.w3.org/2000/svg" xmlns:xlink="http://www.w3.org/1999/xlink" x="0px" y="0px"
	 viewBox="0 0 24 24" style="enable-background:new 0 0 24 24;" xml:space="preserve">
<style type="text/css">
	.st0{display:none;}
	.st1{display:inline;}
	.st2{fill:none;stroke:#000000;stroke-linejoin:round;stroke-miterlimit:10;}
</style>
<g id="Filled_Icons" class="st0">
	<g class="st1">
		<path d="M4,7c-1.7,0-3,1.3-3,3v4.5C1,14.8,1.2,15,1.5,15H5v-3c0-1.4,0.6-2.7,1.5-3.6C6,7.6,5.1,7,4,7z"/>
		<path d="M10,8c-2.2,0-4,1.8-4,4v7.5C6,19.8,6.2,20,6.5,20H12v-5.6c0-1.7,0.6-3.2,1.5-4.3C12.8,8.9,11.5,8,10,8z"/>
		<path d="M18,9c-2.9,0-5,2.3-5,5.4v9.1c0,0.3,0.2,0.5,0.5,0.5h9c0.3,0,0.5-0.2,0.5-0.5v-9.1C23,11.3,20.9,9,18,9z"/>
		<path d="M18,8c2.2,0,4-1.8,4-4s-1.8-4-4-4s-4,1.8-4,4S15.8,8,18,8z"/>
		<circle cx="10" cy="4" r="3"/>
		<circle cx="4" cy="4" r="2"/>
	</g>
</g>
<g id="Outline_Icons">
	<g>
		<path class="st2" d="M22.5,14.4c0-2.7-1.8-4.9-4.5-4.9c-2.7,0-4.5,2.2-4.5,4.9v9.1h9V14.4z"/>
		<circle class="st2" cx="18" cy="4" r="3.5"/>
		<circle class="st2" cx="10" cy="4" r="2.5"/>
		<circle class="st2" cx="4" cy="4" r="1.5"/>
		<path class="st2" d="M6.5,12c0-1.9,1.6-3.5,3.5-3.5c1.9,0,3.5,1.6,3.5,3.5v7.5h-7V12z"/>
		<path class="st2" d="M1.5,10c0-1.4,1.1-2.5,2.5-2.5S6.5,8.6,6.5,10v4.5h-5V10z"/>
	</g>
</g>
</svg>
