<?xml version="1.0" encoding="utf-8"?>
<!-- Generator: Adobe Illustrator 19.2.0, SVG Export Plug-In . SVG Version: 6.00 Build 0)  -->
<svg version="1.1" id="Layer_1" xmlns="http://www.w3.org/2000/svg" xmlns:xlink="http://www.w3.org/1999/xlink" x="0px" y="0px"
	 viewBox="0 0 24 24" style="enable-background:new 0 0 24 24;" xml:space="preserve">
<style type="text/css">
	.st0{display:none;}
	.st1{display:inline;}
	.st2{fill:none;stroke:#000000;stroke-linejoin:round;stroke-miterlimit:10;}
</style>
<g id="Filled_Icons" class="st0">
	<path class="st1" d="M21.6,5C21.6,5,21.6,5,21.6,5l-1.3-0.8C20,4.1,19.7,4,19.4,4c-1.2,0-2.6,1.4-4.3,4.3c-0.6,1.1-0.5,2.5,0.3,3.6
		c0.3,0.5,0.8,1,1.1,1.4c0.3,0.4,0.8,0.9,0.8,1c0.1,0.5-0.2,1.1-0.7,1.3c-0.5,0.1-1-0.2-1.2-0.7c-0.1-0.2-0.1-0.4,0-0.6
		c0-0.5,0-0.9-0.6-1.6c-0.2-0.2-0.4-0.3-0.7-0.3c-0.8,0-1.6,1-1.9,2c-0.6,2.1-0.5,2.3-0.4,2.5c0.2,0.3,0.3,0.6,0.2,1
		c-0.1,0.3-0.3,0.6-0.6,0.8c-0.5,0.3-1.3,0.1-1.6-0.5c-0.2-0.3-0.2-0.7-0.1-1c0.1-0.3,0.3-0.6,0.6-0.7c0.3-0.1,0.4-0.2,1.8-5.2
		l0-0.2c0.1-0.2-0.1-0.5-0.3-0.6c-0.2-0.1-0.5,0-0.6,0.3c-0.6,1.3-1.1,1.6-1.5,1.8c-0.5,0.3-1,0.5-1.5,1.6c-0.1,0.1-0.1,0.2-0.3,0.3
		c-0.4,0.3-1,0.3-1.3-0.1c-0.3-0.4-0.3-1.1,0.1-1.4c0.1-0.1,0.3-0.2,0.4-0.2c0.9-0.2,2.5-1.5,4-2.6l0.4-0.3c0.2-0.2,0.3-0.5,0.1-0.7
		C11.5,8.9,11.2,8.9,11,9c-1.3,0.7-2,0.9-2.3,0.9c-0.1,0-0.2,0-0.1,0C8.3,9.7,8,9.8,7.8,10c0,0.1-0.1,0.1-0.2,0.2
		c-0.3,0.3-0.9,0.2-1.1-0.2C6.3,9.6,6.4,9,6.8,8.7c0.1-0.1,0.3-0.2,0.5-0.2h0c0.1,0,0.3,0,0.5,0c0.4,0,0.9,0.1,1.4,0.1
		c2,0,3.5-0.8,4.3-2.4l1.1-2C15.2,3,15.1,1.5,14.2,1l-1.2-0.7c-0.7-0.4-1.9-0.4-2.7,0L2.3,5C1.6,5.5,1,6.5,1,7.4v9.2
		c0,0.9,0.6,1.9,1.3,2.3l8.1,4.7c0.4,0.2,0.8,0.3,1.3,0.3s1-0.1,1.3-0.3l8.5-4.7c0.7-0.4,1.4-1.4,1.4-2.3V7.4
		C23,6.4,22.3,5.4,21.6,5z"/>
</g>
<g id="Outline_Icons">
	<path id="Oval-1_4_" class="st2" d="M15.6,8.6c-0.5,1-0.4,2.1,0.2,3l0,0.1c0.7,1.1,1.9,2.1,2,2.6c0.2,0.8-0.2,1.6-1,1.9
		c-0.8,0.2-1.6-0.2-1.8-1.1c-0.2-0.9,0.3-1-0.6-2c-0.5-0.5-1.4,0.5-1.7,1.5c-0.3,1.1-0.5,2-0.5,2.1c0.6,0.8,0.3,2-0.6,2.5
		c-0.8,0.4-1.8,0.1-2.2-0.7c-0.5-0.9-0.1-2,0.8-2.4c0.2-0.1,1.5-4.8,1.5-5.1c-1.3,2.7-2.1,1.4-3.1,3.5c-0.1,0.2-0.2,0.3-0.4,0.5
		c-0.6,0.5-1.5,0.4-2.1-0.2s-0.4-1.6,0.2-2.1c0.2-0.2,0.4-0.3,0.6-0.3c0.9-0.2,3.3-2.2,4.1-2.8c-2.3,1.3-3,0.8-3,0.8
		c-0.1,0.1-0.2,0.2-0.3,0.3c-0.6,0.4-1.4,0.3-1.8-0.3C5.7,9.6,5.9,8.8,6.5,8.3C6.7,8.2,7,8.1,7.3,8.1c1,0,4.3,0.9,5.8-2
		c0,0,0.5-0.9,1.1-2s0.6-2.3-0.1-2.6l-1.2-0.7c-0.6-0.3-1.6-0.3-2.2,0L2.6,5.5C2,5.8,1.5,6.7,1.5,7.4v9.2c0,0.7,0.5,1.6,1.1,1.9
		l8.1,4.7c0.6,0.3,1.6,0.3,2.2,0l8.5-4.7c0.6-0.3,1.2-1.2,1.2-1.9V7.4c0-0.7-0.6-1.6-1.2-1.9c0,0-0.6-0.3-1.3-0.8
		C18.4,3.7,16.3,7.3,15.6,8.6z"/>
</g>
</svg>
