<?xml version="1.0" encoding="utf-8"?>
<!-- Generator: Adobe Illustrator 19.2.0, SVG Export Plug-In . SVG Version: 6.00 Build 0)  -->
<svg version="1.1" id="Layer_1" xmlns="http://www.w3.org/2000/svg" xmlns:xlink="http://www.w3.org/1999/xlink" x="0px" y="0px"
	 viewBox="0 0 24 24" style="enable-background:new 0 0 24 24;" xml:space="preserve">
<style type="text/css">
	.st0{display:none;}
	.st1{display:inline;}
	.st2{fill:none;stroke:#000000;stroke-linecap:round;stroke-linejoin:round;stroke-miterlimit:10;}
	.st3{fill:none;stroke:#000000;stroke-linejoin:round;stroke-miterlimit:10;}
</style>
<g id="Filled_Icons" class="st0">
	<path class="st1" d="M12,0C5.4,0,0,5.4,0,12s5.4,12,12,12s12-5.4,12-12S18.6,0,12,0z M19.1,12.5c-1.1,2.4-4,3.7-6.6,2.9
		c0.2,1.6-0.3,3.5-2.1,4.1c-0.8,0.3-1.7,0.2-2.5-0.2c-0.8-0.4-0.4-1.8-0.5-2.5c0.5,0.1,1,0.6,1.6,0.4c0.5-0.2,0.5-1.2,0.5-1.7
		c0,0-0.1-4.7-0.1-6.4c0-0.2,0-0.2,0.2-0.2c0.6-0.1,1.2-0.1,1.9,0c0.2,0,0.3,0,0.5,0.1c0.2,0,0.2,0,0.2,0.2v1.3v2.6
		c0,0.3,0.2,0.3,0.5,0.4c2.4,0.6,4.4-1.1,3.8-3.4c-0.7-2.4-3.8-3.3-6.1-2.8C8,7.7,6,10.4,7.9,12.6c-0.6,0.5-1,1-1.7,1.4
		c-0.2,0.1-0.3,0.2-0.5,0.2c-1-1-1.5-2.8-1.1-4.7C5,7.5,6.3,6,8.2,5.3c3.2-1.3,7.8-0.8,10.1,2C19.5,8.7,19.9,10.8,19.1,12.5z"/>
</g>
<g id="Outline_Icons">
	<g>
		<circle class="st2" cx="12" cy="12" r="11.5"/>
		<g>
			<path class="st3" d="M8.2,5.3C6.3,6,5,7.5,4.6,9.5c-0.4,1.9,0.1,3.7,1.1,4.7c0.2-0.1,0.3-0.1,0.5-0.2c0.7-0.4,1.1-0.9,1.7-1.4
				C6,10.4,8,7.7,10.5,7.1c2.3-0.6,5.4,0.4,6.1,2.8c0.7,2.3-1.3,4-3.8,3.4c-0.3-0.1-0.5-0.1-0.5-0.4v-2.6V9c0-0.3,0-0.2-0.2-0.2
				c-0.2,0-0.3,0-0.5-0.1c-0.6,0-1.3-0.1-1.9,0c-0.2,0-0.2,0-0.2,0.2c0,1.7,0.1,6.4,0.1,6.4c0,0.4,0,1.5-0.5,1.7
				c-0.6,0.2-1.1-0.3-1.6-0.4c0.1,0.7-0.4,2.2,0.5,2.5c0.8,0.3,1.7,0.5,2.5,0.2c1.7-0.6,2.3-2.5,2.1-4.1c2.6,0.8,5.5-0.5,6.6-2.9
				c0.8-1.7,0.5-3.8-0.7-5.3C16,4.5,11.4,4,8.2,5.3"/>
		</g>
	</g>
</g>
</svg>
