<?xml version="1.0" encoding="utf-8"?>
<!-- Generator: Adobe Illustrator 19.2.0, SVG Export Plug-In . SVG Version: 6.00 Build 0)  -->
<svg version="1.1" id="Layer_1" xmlns="http://www.w3.org/2000/svg" xmlns:xlink="http://www.w3.org/1999/xlink" x="0px" y="0px"
	 viewBox="0 0 24 24" style="enable-background:new 0 0 24 24;" xml:space="preserve">
<style type="text/css">
	.st0{display:none;}
	.st1{display:inline;}
	.st2{fill:none;stroke:#000000;stroke-linecap:round;stroke-linejoin:round;stroke-miterlimit:10;}
	.st3{fill:none;stroke:#000000;stroke-linejoin:round;stroke-miterlimit:10;}
</style>
<g id="Filled_Icons" class="st0">
	<g class="st1">
		<path d="M12,0C5.4,0,0,5.4,0,12s5.4,12,12,12s12-5.4,12-12S18.6,0,12,0z M17.9,15.9l1,2.5l-2.5-0.9c-1.2,1-2.7,1.6-4.4,1.6
			c-3.9,0-7-3.1-7-7s3.1-7,7-7s7,3.1,7,7C19,13.4,18.6,14.7,17.9,15.9L17.9,15.9z"/>
		<path d="M15.5,9.2c-0.1-0.4-0.4-0.6-0.8-0.5L13.3,9c-0.4-0.3-0.9-0.5-1.5-0.5c-1,0-1.8,0.5-2.2,1.3l-1.5,0.3
			c-0.3,0.1-0.5,0.4-0.4,0.8l1,4.1c0.1,0.4,0.4,0.6,0.8,0.5l6.5-1.5c0.3-0.1,0.5-0.4,0.4-0.8L15.5,9.2z M12.2,13.3
			c-0.7,0-1.2-0.6-1.2-1.2s0.6-1.2,1.2-1.2s1.2,0.6,1.2,1.2C13.4,12.7,12.9,13.3,12.2,13.3z"/>
	</g>
</g>
<g id="Outline_Icons">
	<g>
		<circle class="st2" cx="12" cy="12" r="11.5"/>
		<path id="Dailybooth_1_" class="st3" d="M12,19c-3.9,0-7-3.1-7-7s3.1-7,7-7s7,3.1,7,7c0,1.4-0.4,2.7-1.2,3.9l0,0l1,2.5l-2.5-0.9
			C15.3,18.4,13.7,19,12,19L12,19z M8.2,10.2c-0.3,0.1-0.5,0.4-0.4,0.8l1,4.1c0.1,0.4,0.4,0.6,0.8,0.5l6.5-1.5
			c0.3-0.1,0.5-0.4,0.4-0.8l-1-4.1c-0.1-0.4-0.4-0.6-0.8-0.5L13.3,9c-0.4-0.3-0.9-0.5-1.5-0.5c-1,0-1.8,0.5-2.2,1.3L8.2,10.2
			L8.2,10.2z M12.2,13.3c-0.7,0-1.2-0.6-1.2-1.2s0.6-1.2,1.2-1.2s1.2,0.6,1.2,1.2C13.4,12.7,12.9,13.3,12.2,13.3L12.2,13.3z"/>
	</g>
</g>
</svg>
