<?xml version="1.0" encoding="utf-8"?>
<!-- Generator: Adobe Illustrator 19.2.0, SVG Export Plug-In . SVG Version: 6.00 Build 0)  -->
<svg version="1.1" id="Layer_1" xmlns="http://www.w3.org/2000/svg" xmlns:xlink="http://www.w3.org/1999/xlink" x="0px" y="0px"
	 viewBox="0 0 24 24" style="enable-background:new 0 0 24 24;" xml:space="preserve">
<style type="text/css">
	.st0{display:none;}
	.st1{display:inline;}
	.st2{fill:none;stroke:#000000;stroke-linecap:round;stroke-linejoin:round;stroke-miterlimit:10;}
</style>
<g id="Filled_Icons" class="st0">
	<g class="st1">
		<path d="M12,0C5.4,0,0,5.4,0,12s5.4,12,12,12s12-5.4,12-12S18.6,0,12,0z M12,19.5c-4.1,0-7.5-3.4-7.5-7.5c0-4.1,3.4-7.5,7.5-7.5
			s7.5,3.4,7.5,7.5C19.5,16.1,16.1,19.5,12,19.5z"/>
		<path d="M14.3,6.9l-4,2.3C10.1,9.3,10,9.5,10,9.7v2.4H9.5c-0.9,0-1.9,0.7-1.9,2c0,1.4,0.9,2,1.7,2c0.6,0,1.6,0,1.6-1.2V9.9l3-1.7
			v2.2h-0.5c-0.9,0-1.9,0.7-1.9,2c0,1.9,1.2,2,1.5,2c0.5,0,1.9,0,1.9-1.2V7.4c0-0.2-0.1-0.3-0.2-0.4C14.6,6.8,14.4,6.8,14.3,6.9z"/>
	</g>
</g>
<g id="Outline_Icons">
	<g>
		<circle class="st2" cx="12" cy="12" r="11.5"/>
		<path class="st2" d="M10.5,14.9c0,0.7-0.5,0.7-1.1,0.7c-0.7,0-1.2-0.5-1.2-1.5c0-1,0.7-1.5,1.4-1.5s1,0,1,0
			C10.5,13.2,10.5,14.2,10.5,14.9z"/>
		<polyline class="st2" points="10.5,13.6 10.5,9.7 14.5,7.4 14.5,11.3 		"/>
		<path class="st2" d="M14.5,13.2c0,0.7-0.7,0.7-1.4,0.7c-0.6,0-1-0.6-1-1.5s0.7-1.5,1.4-1.5s1,0,1,0C14.5,11.6,14.5,12.6,14.5,13.2
			z"/>
		<circle class="st2" cx="12" cy="12" r="7.5"/>
	</g>
</g>
</svg>
