<?xml version="1.0" encoding="utf-8"?>
<!-- Generator: Adobe Illustrator 19.2.0, SVG Export Plug-In . SVG Version: 6.00 Build 0)  -->
<svg version="1.1" id="Layer_1" xmlns="http://www.w3.org/2000/svg" xmlns:xlink="http://www.w3.org/1999/xlink" x="0px" y="0px"
	 viewBox="0 0 24 24" style="enable-background:new 0 0 24 24;" xml:space="preserve">
<style type="text/css">
	.st0{display:none;}
	.st1{display:inline;}
	.st2{fill:none;stroke:#000000;stroke-linecap:round;stroke-linejoin:round;stroke-miterlimit:10;}
</style>
<g id="Filled_Icons" class="st0">
	<path class="st1" d="M18.2,13.1l1.2,1.2l-5.9,3.3V9.2c1.7-0.6,3-2.3,3-4.2c0-2.5-2-4.5-4.5-4.5c-2.5,0-4.5,2-4.5,4.5
		c0,2,1.3,3.6,3,4.2v8.3l-5.9-3.2l1.2-1.2L0.5,12l1.1,5.3L3,15.9l9,7.6l9-7.6l1.4,1.4l1.1-5.3L18.2,13.1z M12,7c-1.1,0-2-0.9-2-2
		s0.9-2,2-2c1.1,0,2,0.9,2,2S13.1,7,12,7z"/>
</g>
<g id="Outline_Icons">
	<g>
		<path class="st2" d="M23.5,12l-5.3,1.1l1.2,1.2l-5.9,3.3V9.2c1.7-0.6,3-2.3,3-4.2c0-2.5-2-4.5-4.5-4.5c-2.5,0-4.5,2-4.5,4.5
			c0,2,1.3,3.6,3,4.2v8.3l-5.9-3.2l1.2-1.2L0.5,12l1.1,5.3L3,15.9l9,7.6l9-7.6l1.4,1.4L23.5,12z"/>
		<circle class="st2" cx="12" cy="5" r="2"/>
	</g>
</g>
</svg>
