<?xml version="1.0" encoding="utf-8"?>
<!-- Generator: Adobe Illustrator 19.2.0, SVG Export Plug-In . SVG Version: 6.00 Build 0)  -->
<svg version="1.1" id="Layer_1" xmlns="http://www.w3.org/2000/svg" xmlns:xlink="http://www.w3.org/1999/xlink" x="0px" y="0px"
	 viewBox="0 0 24 24" style="enable-background:new 0 0 24 24;" xml:space="preserve">
<style type="text/css">
	.st0{display:none;}
	.st1{display:inline;}
	.st2{fill:none;stroke:#000000;stroke-linejoin:round;stroke-miterlimit:10;}
</style>
<g id="Filled_Icons" class="st0">
	<g class="st1">
		<path d="M16.8,1.6c-2.7,0.4-3.4,2.8-3.4,4.9c3,0.5,5.2,3,5.2,6c0,3.4-2.9,6.2-6.3,6.2c-3.9,0-6.5-3.4-6.4-7.2
			C5.9,3.7,13.2,0.8,16.8,1.6z M12,0.5C5.6,0.5,0.5,5.6,0.5,12c0,6.4,5.1,11.5,11.5,11.5c6.3,0,11.5-5.1,11.5-11.5
			C23.5,5.6,18.3,0.5,12,0.5z"/>
	</g>
</g>
<g id="Outline_Icons">
	<g id="形状_1_7_">
		<g>
			<path class="st2" d="M16.8,1.6c-2.7,0.4-3.4,2.8-3.4,4.9c3,0.5,5.2,3,5.2,6c0,3.4-2.9,6.2-6.3,6.2c-3.9,0-6.5-3.4-6.4-7.2
				C5.9,3.7,13.2,0.8,16.8,1.6z M12,0.5C5.6,0.5,0.5,5.6,0.5,12c0,6.4,5.1,11.5,11.5,11.5c6.3,0,11.5-5.1,11.5-11.5
				C23.5,5.6,18.3,0.5,12,0.5z"/>
		</g>
	</g>
</g>
</svg>
