<?xml version="1.0" encoding="utf-8"?>
<!-- Generator: Adobe Illustrator 19.2.0, SVG Export Plug-In . SVG Version: 6.00 Build 0)  -->
<svg version="1.1" id="Layer_1" xmlns="http://www.w3.org/2000/svg" xmlns:xlink="http://www.w3.org/1999/xlink" x="0px" y="0px"
	 viewBox="0 0 24 24" style="enable-background:new 0 0 24 24;" xml:space="preserve">
<style type="text/css">
	.st0{display:none;}
	.st1{display:inline;}
	.st2{fill:none;stroke:#000000;stroke-linejoin:round;stroke-miterlimit:10;}
</style>
<g id="Filled_Icons" class="st0">
	<g class="st1">
		<polygon points="0.5,13 7.3,17.4 12,13.5 5.2,9.3 		"/>
		<polygon points="7.3,1.1 0.5,5.5 5.2,9.3 12,5.1 		"/>
		<polygon points="23.5,5.5 16.7,1.1 12,5.1 18.8,9.3 		"/>
		<polygon points="12,13.5 16.7,17.4 23.5,13 18.8,9.3 		"/>
		<path d="M17.7,18L17.7,18c-0.3,0.2-0.6,0.4-1,0.4c-0.4,0-0.6-0.2-0.9-0.4l0,0L12,14.8L8.2,18l0,0c-0.3,0.3-0.5,0.4-0.9,0.4
			c-0.2,0-0.4-0.1-0.5-0.2c0,0-1.2-0.8-1.2-0.8v2l6.5,4.1l6.5-4.1v-2L17.7,18z"/>
	</g>
</g>
<g id="Outline_Icons">
	<g>
		<polygon class="st2" points="0.5,13 7.3,17.4 12,13.5 5.2,9.3 		"/>
		<polygon class="st2" points="7.3,1.1 0.5,5.5 5.2,9.3 12,5.1 		"/>
		<polygon class="st2" points="23.5,5.5 16.7,1.1 12,5.1 18.8,9.3 		"/>
		<polygon class="st2" points="12,13.5 16.7,17.4 23.5,13 18.8,9.3 		"/>
		<polyline class="st2" points="5.5,16.3 5.5,19.4 12,23.5 18.5,19.4 18.5,16.3 		"/>
	</g>
</g>
</svg>
