<?xml version="1.0" encoding="utf-8"?>
<!-- Generator: Adobe Illustrator 19.2.0, SVG Export Plug-In . SVG Version: 6.00 Build 0)  -->
<svg version="1.1" id="Layer_1" xmlns="http://www.w3.org/2000/svg" xmlns:xlink="http://www.w3.org/1999/xlink" x="0px" y="0px"
	 viewBox="0 0 24 24" style="enable-background:new 0 0 24 24;" xml:space="preserve">
<style type="text/css">
	.st0{display:none;}
	.st1{display:inline;}
	.st2{fill:none;stroke:#000000;stroke-linejoin:round;stroke-miterlimit:10;}
</style>
<g id="Filled_Icons" class="st0">
	<path class="st1" d="M12,0C5.4,0,0,5.4,0,12s5.4,12,12,12s12-5.4,12-12S18.6,0,12,0z M20.4,9.6l-3.7,3.8l0.8,5.2
		c0,0.2,0,0.4-0.2,0.5c-0.1,0.1-0.2,0.1-0.3,0.1c-0.1,0-0.2,0-0.2-0.1L12,16.8l-4.7,2.4c-0.2,0.1-0.4,0.1-0.5,0
		c-0.2-0.1-0.2-0.3-0.2-0.5l0.8-5.2L3.6,9.6C3.5,9.5,3.5,9.3,3.5,9.1c0.1-0.2,0.2-0.3,0.4-0.3l5.2-0.9l2.4-4.7C11.6,3.1,11.8,3,12,3
		s0.4,0.1,0.4,0.3l2.4,4.7l5.2,0.9c0.2,0,0.3,0.2,0.4,0.3C20.5,9.3,20.5,9.5,20.4,9.6z"/>
</g>
<g id="Outline_Icons">
	<g>
		<path class="st2" d="M23.5,12c0-6.4-5.1-11.5-11.5-11.5S0.5,5.6,0.5,12S5.6,23.5,12,23.5S23.5,18.4,23.5,12L23.5,12z"/>
		<polygon class="st2" points="9.5,8.4 12,3.5 14.5,8.4 20,9.3 16.1,13.2 17,18.7 12,16.2 7.1,18.7 7.9,13.2 4,9.3 		"/>
	</g>
</g>
</svg>
