<?xml version="1.0" encoding="utf-8"?>
<!-- Generator: Adobe Illustrator 19.2.0, SVG Export Plug-In . SVG Version: 6.00 Build 0)  -->
<svg version="1.1" id="Layer_1" xmlns="http://www.w3.org/2000/svg" xmlns:xlink="http://www.w3.org/1999/xlink" x="0px" y="0px"
	 viewBox="0 0 24 24" style="enable-background:new 0 0 24 24;" xml:space="preserve">
<style type="text/css">
	.st0{display:none;}
	.st1{display:inline;}
	.st2{fill:none;stroke:#000000;stroke-linejoin:round;stroke-miterlimit:10;}
</style>
<g id="Filled_Icons" class="st0">
	<path class="st1" d="M23.3,11.9c-0.3-0.8-1.1-1.6-2.1-1.8c-1.1-0.3-2-0.2-3.2,0.3c-0.9,0.4-1.9,0.7-3,0.4c-2.7-0.6-2.3-3.8,0.3-5.1
		c1.8-1,2.6-0.4,4.2-1.3c1.5-0.8,2.1-2.6,0.8-3.3c-0.5-0.3-1-0.3-1.6-0.2c-1.3,0.1-2.4,0.7-3.1,1.9c-0.5,1,0.1,1.4-0.8,2.6
		c-2,2.6-6,2.3-5-0.3c0.3-0.7,1.3-1.6,0.9-2.4c-0.1-0.2-0.2-0.3-0.4-0.4c-0.3-0.2-1-0.1-1.4,0C8.6,2.5,8.2,2.7,7.9,2.9
		C7.1,3.5,6.5,4.3,6.7,5.1c0.2,0.7,0.8,0.6,1.5,0.6c1.5,0.1,1.3,1.7,0.7,2.7c-0.8,1.3-3,2.7-4.1,1.8C4.3,9.8,4.1,9.4,3.1,9.5
		C0.5,9.9-0.7,14.4,2,13.8c1.2-0.2,1.6-1,2.1-1.6c2.4-2.7,5.3-1.3,4.5,1.4c-0.4,1.5-1.3,2.1-2.5,2.8c-1.5,0.9-2.5,2.4-2.2,4.2
		c0.2,1.6,1.7,2.2,3.3,1.7c2.4-0.7,2.8-3.1,2-5.3c-0.5-1.4-0.6-2.2,0-3.3c0.2-0.4,0.4-0.7,0.7-1c1.5-1.8,4.2-2.5,5.6-0.6
		c0.5,0.6,0.4,1,0.6,1.8c0.5,2.4,3.6,2.8,5.4,1.8C22.9,15,23.9,13.6,23.3,11.9z M18.5,1.8c0.8-0.1,1.1,0.3,1.1,0.7
		c0,0.5-0.4,1.1-1.2,1.2c-0.1,0-0.2,0-0.2,0c-0.6,0-0.9-0.4-0.9-0.7C17.3,2.6,17.7,2,18.5,1.8z M8.6,4.3c-0.7,0.2-0.6-0.7,0.3-1
		C9.6,3.2,9.4,4.1,8.6,4.3z M2,12.1c-0.2-0.2,0.1-0.8,0.6-0.9c0.2,0,0.4,0.1,0.3,0.3C2.8,12,2.2,12.4,2,12.1z M8.4,19.7
		c-0.4,1.1-1.2,1.6-1.9,1.6c-0.5,0-0.9-0.2-1.2-0.6c-0.3-0.4-0.4-1-0.2-1.6c0.2-0.7,0.9-1.5,1.7-1.6c0.5-0.1,1,0.1,1.3,0.5
		C8.5,18.6,8.6,19.2,8.4,19.7z M20.4,14.8c-0.2,0.1-0.5,0.1-0.7,0.1c-1,0-1.7-0.6-1.9-1.5c-0.1-0.8,0.4-1.7,1.6-2.1
		c0.2,0,0.4-0.1,0.6-0.1c1,0,1.8,0.6,1.9,1.5C22.1,13.9,21.3,14.6,20.4,14.8z"/>
</g>
<g id="Outline_Icons">
	<g>
		<g>
			<path class="st2" d="M15.6,12.2c0.5,0.6,0.4,1,0.6,1.8c0.5,2.4,3.6,2.8,5.4,1.8c1.4-0.8,2.4-2.2,1.8-3.9
				c-0.3-0.8-1.1-1.6-2.1-1.8c-1.1-0.3-2-0.2-3.2,0.3c-0.9,0.4-1.9,0.7-3,0.4c-2.7-0.6-2.3-3.8,0.3-5.1c1.8-1,2.6-0.4,4.2-1.3
				c1.5-0.8,2.1-2.6,0.8-3.3c-0.5-0.3-1-0.3-1.6-0.2c-1.3,0.1-2.4,0.7-3.1,1.9c-0.5,1,0.1,1.4-0.8,2.6c-2,2.6-6,2.3-5-0.3
				c0.3-0.7,1.3-1.6,0.9-2.4c-0.1-0.2-0.2-0.3-0.4-0.4c-0.3-0.2-1-0.1-1.4,0C8.6,2.5,8.2,2.7,7.9,2.9C7.1,3.5,6.5,4.3,6.7,5.1
				c0.2,0.7,0.8,0.6,1.5,0.6c1.5,0.1,1.3,1.7,0.7,2.7c-0.8,1.3-3,2.7-4.1,1.8C4.3,9.8,4.1,9.4,3.1,9.5C0.5,9.9-0.7,14.4,2,13.8
				c1.2-0.2,1.6-1,2.1-1.6c2.4-2.7,5.3-1.3,4.5,1.4c-0.4,1.5-1.3,2.1-2.5,2.8c-1.5,0.9-2.5,2.4-2.2,4.2c0.2,1.6,1.7,2.2,3.3,1.7
				c2.4-0.7,2.8-3.1,2-5.3c-0.5-1.4-0.6-2.2,0-3.3c0.2-0.4,0.4-0.7,0.7-1C11.4,11,14.1,10.2,15.6,12.2L15.6,12.2z"/>
		</g>
		<path class="st2" d="M19.7,11.8c0.9-0.2,1.7,0.2,1.8,1c0.1,0.8-0.6,1.4-1.2,1.5C18.3,14.9,17.6,12.3,19.7,11.8L19.7,11.8z"/>
		<path class="st2" d="M18.4,3.3c-0.9,0.1-0.7-0.8,0.2-1C19.5,2.2,19.2,3.2,18.4,3.3L18.4,3.3z"/>
		<path class="st2" d="M6.9,18.1c0.9-0.1,1.2,0.7,1,1.5c-0.6,1.8-2.8,1.5-2.3-0.3C5.8,18.8,6.3,18.2,6.9,18.1L6.9,18.1z"/>
		<g>
			<path d="M2.6,11.2C2.6,11.2,2.6,11.2,2.6,11.2c-0.5,0.1-0.9,0.7-0.6,0.9c0,0,0.1,0.1,0.2,0.1c0.3,0,0.7-0.3,0.7-0.7
				C2.9,11.3,2.8,11.2,2.6,11.2L2.6,11.2z"/>
		</g>
		<g>
			<path d="M9.1,3.3c0,0-0.1,0-0.2,0c-0.8,0.2-1,1-0.5,1c0.1,0,0.1,0,0.2,0C9.3,4.1,9.6,3.3,9.1,3.3L9.1,3.3z"/>
		</g>
	</g>
</g>
</svg>
