<?xml version="1.0" encoding="utf-8"?>
<!-- Generator: Adobe Illustrator 19.2.0, SVG Export Plug-In . SVG Version: 6.00 Build 0)  -->
<svg version="1.1" id="Layer_1" xmlns="http://www.w3.org/2000/svg" xmlns:xlink="http://www.w3.org/1999/xlink" x="0px" y="0px"
	 viewBox="0 0 24 24" style="enable-background:new 0 0 24 24;" xml:space="preserve">
<style type="text/css">
	.st0{display:none;}
	.st1{display:inline;}
	.st2{fill:none;stroke:#000000;stroke-linejoin:round;stroke-miterlimit:10;}
	.st3{fill:none;stroke:#000000;stroke-linecap:round;stroke-linejoin:round;stroke-miterlimit:10;}
</style>
<g id="Filled_Icons" class="st0">
	<g class="st1">
		<g>
			<path d="M16.5,24h-11c-1.7,0-3-1.3-3-3v-5.5c0-0.6,0.4-1,1-1s1,0.4,1,1V21c0,0.6,0.4,1,1,1h11c0.6,0,1-0.4,1-1v-5.5
				c0-0.6,0.4-1,1-1s1,0.4,1,1V21C19.5,22.7,18.2,24,16.5,24z"/>
		</g>
		<g>
			<path d="M15,20H7c-0.6,0-1-0.4-1-1s0.4-1,1-1h8c0.6,0,1,0.4,1,1S15.6,20,15,20z"/>
		</g>
		<g>
			<path d="M15.4,17.3c-0.1,0-0.1,0-0.2,0l-7.8-1.7c-0.5-0.1-0.9-0.6-0.8-1.2c0.1-0.5,0.6-0.9,1.2-0.8l7.8,1.7
				c0.5,0.1,0.9,0.6,0.8,1.2C16.3,17,15.9,17.3,15.4,17.3z"/>
		</g>
		<g>
			<path d="M16.3,14.8c-0.1,0-0.3,0-0.4-0.1l-7.3-3.2c-0.5-0.2-0.7-0.8-0.5-1.3c0.2-0.5,0.8-0.7,1.3-0.5l7.3,3.2
				c0.5,0.2,0.7,0.8,0.5,1.3C17.1,14.5,16.7,14.8,16.3,14.8z"/>
		</g>
		<g>
			<path d="M17.8,12.5c-0.2,0-0.4-0.1-0.6-0.2l-6.5-4.7c-0.4-0.3-0.5-0.9-0.2-1.4s0.9-0.5,1.4-0.2l6.5,4.7c0.4,0.3,0.5,0.9,0.2,1.4
				C18.4,12.3,18.1,12.5,17.8,12.5z"/>
		</g>
		<g>
			<path d="M19.7,10.5c-0.3,0-0.5-0.1-0.7-0.3l-5.4-5.9c-0.4-0.4-0.3-1,0.1-1.4c0.4-0.4,1-0.3,1.4,0.1l5.4,5.9
				c0.4,0.4,0.3,1-0.1,1.4C20.1,10.4,19.9,10.5,19.7,10.5z"/>
		</g>
		<g>
			<path d="M21.9,9c-0.3,0-0.7-0.2-0.9-0.5l-4-6.9c-0.3-0.5-0.1-1.1,0.4-1.4c0.5-0.3,1.1-0.1,1.4,0.4l4,6.9c0.3,0.5,0.1,1.1-0.4,1.4
				C22.3,9,22.1,9,21.9,9z"/>
		</g>
	</g>
</g>
<g id="Outline_Icons">
	<g>
		<path class="st2" d="M18.5,15v6.5c0,1.1-0.9,2-2,2h-11c-1.1,0-2-0.9-2-2V15"/>
		<line class="st3" x1="15" y1="19.5" x2="7" y2="19.5"/>
		<line class="st3" x1="15.4" y1="16.8" x2="7.6" y2="15.2"/>
		<line class="st3" x1="16.3" y1="14.3" x2="9" y2="11"/>
		<line class="st3" x1="17.8" y1="12" x2="11.3" y2="7.3"/>
		<line class="st3" x1="19.7" y1="10" x2="14.3" y2="4.1"/>
		<line class="st3" x1="21.9" y1="8.5" x2="17.9" y2="1.6"/>
	</g>
</g>
</svg>
