<?xml version="1.0" encoding="utf-8"?>
<!-- Generator: Adobe Illustrator 19.2.0, SVG Export Plug-In . SVG Version: 6.00 Build 0)  -->
<svg version="1.1" id="Layer_1" xmlns="http://www.w3.org/2000/svg" xmlns:xlink="http://www.w3.org/1999/xlink" x="0px" y="0px"
	 viewBox="0 0 24 24" style="enable-background:new 0 0 24 24;" xml:space="preserve">
<style type="text/css">
	.st0{display:none;}
	.st1{display:inline;}
	.st2{fill:none;stroke:#000000;stroke-linejoin:round;stroke-miterlimit:10;}
</style>
<g id="Filled_Icons" class="st0">
	<g class="st1">
		<path d="M0.5,1.5v12.3h0C0.7,18,5.8,21.4,12,21.4c6.4,0,11.5-3.5,11.5-7.9c0-4.3-5.1-7.9-11.5-7.9c-2.8,0-5.5,0.7-7.5,1.8v-6H0.5z
			 M12,8.3c4,0,7.3,2.3,7.3,5.2S16,18.8,12,18.8c-4,0-7.3-2.3-7.3-5.2C4.7,10.7,8,8.3,12,8.3 M7.6,13.6c0-1.7,2-3.1,4.4-3.1
			c2.4,0,4.4,1.4,4.4,3.1c0,1.7-2,3.1-4.4,3.1C9.6,16.7,7.6,15.3,7.6,13.6"/>
	</g>
</g>
<g id="Outline_Icons">
	<g>
		<path class="st2" d="M0.5,1.5v12.3h0C0.7,18,5.8,21.4,12,21.4c6.4,0,11.5-3.5,11.5-7.9c0-4.3-5.1-7.9-11.5-7.9
			c-2.8,0-5.5,0.7-7.5,1.8v-6H0.5z M12,8.3c4,0,7.3,2.3,7.3,5.2S16,18.8,12,18.8c-4,0-7.3-2.3-7.3-5.2C4.7,10.7,8,8.3,12,8.3
			 M7.6,13.6c0-1.7,2-3.1,4.4-3.1c2.4,0,4.4,1.4,4.4,3.1c0,1.7-2,3.1-4.4,3.1C9.6,16.7,7.6,15.3,7.6,13.6"/>
	</g>
</g>
</svg>
