<?xml version="1.0" encoding="utf-8"?>
<!-- Generator: Adobe Illustrator 19.2.0, SVG Export Plug-In . SVG Version: 6.00 Build 0)  -->
<svg version="1.1" id="Layer_1" xmlns="http://www.w3.org/2000/svg" xmlns:xlink="http://www.w3.org/1999/xlink" x="0px" y="0px"
	 viewBox="0 0 24 24" style="enable-background:new 0 0 24 24;" xml:space="preserve">
<style type="text/css">
	.st0{display:none;}
	.st1{display:inline;}
	.st2{fill:none;stroke:#000000;stroke-linecap:round;stroke-linejoin:round;stroke-miterlimit:10;}
	.st3{fill:none;stroke:#000000;stroke-linejoin:round;stroke-miterlimit:10;}
</style>
<g id="Filled_Icons" class="st0">
	<path class="st1" d="M12,0C5.4,0,0,5.4,0,12s5.4,12,12,12s12-5.4,12-12S18.6,0,12,0z M17,7h-1.5C14.7,7,14,7.7,14,8.5V10h3v1h-3v7
		h-1v-7H9v7H8v-7H6v-1h2V8.5C8,7.1,9.1,6,10.5,6H12v1h-1.5C9.7,7,9,7.7,9,8.5V10h4V8.5C13,7.1,14.1,6,15.5,6H17V7z"/>
</g>
<g id="Outline_Icons">
	<g>
		<circle class="st2" cx="12" cy="12" r="11.5"/>
		<path class="st3" d="M8.5,18V8.5c0-1.1,0.9-2,2-2H12"/>
		<path class="st3" d="M13.5,18V8.5c0-1.1,0.9-2,2-2H17"/>
		<line class="st3" x1="6" y1="10.5" x2="17" y2="10.5"/>
	</g>
</g>
</svg>
