<?xml version="1.0" encoding="utf-8"?>
<!-- Generator: Adobe Illustrator 19.2.0, SVG Export Plug-In . SVG Version: 6.00 Build 0)  -->
<svg version="1.1" id="Layer_1" xmlns="http://www.w3.org/2000/svg" xmlns:xlink="http://www.w3.org/1999/xlink" x="0px" y="0px"
	 viewBox="0 0 24 24" style="enable-background:new 0 0 24 24;" xml:space="preserve">
<style type="text/css">
	.st0{display:none;}
	.st1{display:inline;}
	.st2{fill:none;stroke:#000000;stroke-linejoin:round;stroke-miterlimit:10;}
</style>
<g id="Filled_Icons" class="st0">
	<path class="st1" d="M9,19.5c1,0.2,2,0.3,3,0.3c2.7,0,5.4-0.7,7.4-2.1c2.6-1.7,4.1-4.3,4.1-7.1S22,5.3,19.4,3.6
		c-2-1.4-4.7-2.1-7.4-2.1c-2.7,0-5.4,0.7-7.4,2.1C2,5.3,0.5,7.9,0.5,10.7c0,2.8,1.5,5.3,4.1,7l-1.8,4.5L9,19.5z M12,6.1
		c3.8,0,6.9,2,6.9,4.6s-3.1,4.6-6.9,4.6c-3.8,0-6.9-2-6.9-4.6S8.2,6.1,12,6.1z"/>
</g>
<g id="Outline_Icons">
	<g>
		<path class="st2" d="M9,19.5c1,0.2,2,0.3,3,0.3c2.7,0,5.4-0.7,7.4-2.1c2.6-1.7,4.1-4.3,4.1-7.1S22,5.3,19.4,3.6
			c-2-1.4-4.7-2.1-7.4-2.1c-2.7,0-5.4,0.7-7.4,2.1C2,5.3,0.5,7.9,0.5,10.7c0,2.8,1.5,5.3,4.1,7l-1.8,4.5L9,19.5z M12,6.1
			c3.8,0,6.9,2,6.9,4.6s-3.1,4.6-6.9,4.6c-3.8,0-6.9-2-6.9-4.6S8.2,6.1,12,6.1z"/>
	</g>
</g>
</svg>
