<?xml version="1.0" encoding="utf-8"?>
<!-- Generator: Adobe Illustrator 19.2.0, SVG Export Plug-In . SVG Version: 6.00 Build 0)  -->
<svg version="1.1" id="Layer_1" xmlns="http://www.w3.org/2000/svg" xmlns:xlink="http://www.w3.org/1999/xlink" x="0px" y="0px"
	 viewBox="0 0 24 24" style="enable-background:new 0 0 24 24;" xml:space="preserve">
<style type="text/css">
	.st0{display:none;}
	.st1{display:inline;}
	.st2{fill:none;stroke:#000000;stroke-linecap:round;stroke-linejoin:round;stroke-miterlimit:10;}
</style>
<g id="Filled_Icons" class="st0">
	<g class="st1">
		<path d="M1.5,7C1.2,7,1,7.2,1,7.5v9C1,16.8,1.2,17,1.5,17S2,16.8,2,16.5v-9C2,7.2,1.8,7,1.5,7z"/>
		<path d="M9.6,7C9.3,7,9.1,7.1,9,7.3l-2.5,7.6L4,7.3C3.9,7.1,3.7,7,3.4,7C3.2,7,3,7.3,3,7.5v9C3,16.8,3.2,17,3.5,17S4,16.8,4,16.5
			v-6l2.1,6.1C6.2,16.9,6.3,17,6.6,17C6.8,17,7,16.9,7,16.7l2-6v5.9C9,16.8,9.2,17,9.5,17s0.5-0.2,0.5-0.5v-9C10,7.3,9.8,7,9.6,7z"
			/>
		<path d="M14.5,7h-3C11.2,7,11,7.2,11,7.5v9c0,0.3,0.2,0.5,0.5,0.5h3c1.4,0,2.5-1.1,2.5-2.5v-5C17,8.1,15.9,7,14.5,7z M16,14.5
			c0,0.8-0.7,1.5-1.5,1.5H12V8h2.5C15.3,8,16,8.7,16,9.5V14.5z"/>
		<path d="M21.5,10H19V7.5C19,7.2,18.8,7,18.5,7S18,7.2,18,7.5v3v6c0,0.3,0.2,0.5,0.5,0.5h3c1.4,0,2.5-1.1,2.5-2.5v-2
			C24,11.1,22.9,10,21.5,10z M23,14.5c0,0.8-0.7,1.5-1.5,1.5H19v-5h2.5c0.8,0,1.5,0.7,1.5,1.5V14.5z"/>
	</g>
</g>
<g id="Outline_Icons">
	<g>
		<line class="st2" x1="1.5" y1="7.5" x2="1.5" y2="16.5"/>
		<polyline class="st2" points="3.5,16.5 3.5,7.5 6.6,16.5 9.5,7.5 9.5,16.5 		"/>
		<path class="st2" d="M16.5,9.5c0-1.1-0.9-2-2-2h-3v9h3c1.1,0,2-0.9,2-2V9.5z"/>
		<path class="st2" d="M23.5,12.5c0-1.1-0.9-2-2-2h-3v6h3c1.1,0,2-0.9,2-2V12.5z"/>
		<line class="st2" x1="18.5" y1="10.5" x2="18.5" y2="7.5"/>
	</g>
</g>
</svg>
