<?xml version="1.0" encoding="utf-8"?>
<!-- Generator: Adobe Illustrator 19.2.0, SVG Export Plug-In . SVG Version: 6.00 Build 0)  -->
<svg version="1.1" id="Layer_1" xmlns="http://www.w3.org/2000/svg" xmlns:xlink="http://www.w3.org/1999/xlink" x="0px" y="0px"
	 viewBox="0 0 24 24" style="enable-background:new 0 0 24 24;" xml:space="preserve">
<style type="text/css">
	.st0{display:none;}
	.st1{display:inline;}
	.st2{fill:none;stroke:#000000;stroke-linecap:round;stroke-linejoin:round;stroke-miterlimit:10;}
	.st3{fill:none;stroke:#000000;stroke-linejoin:round;stroke-miterlimit:10;}
</style>
<g id="Filled_Icons" class="st0">
	<g class="st1">
		<path d="M13.5,8.5v7h3v-4C16.5,9.8,15.2,8.5,13.5,8.5z"/>
		<rect x="7.5" y="8.5" width="3" height="7"/>
		<path d="M12,0C5.4,0,0,5.4,0,12s5.4,12,12,12s12-5.4,12-12S18.6,0,12,0z M18.5,17.5h-13v-11h9c2.2,0,4,1.8,4,4V17.5z"/>
	</g>
</g>
<g id="Outline_Icons">
	<g>
		<circle class="st2" cx="12" cy="12" r="11.5"/>
		<path class="st3" d="M18.5,17.5h-13v-11h9c2.2,0,4,1.8,4,4V17.5z"/>
		<rect x="7.5" y="8.5" class="st3" width="3" height="7"/>
		<path class="st3" d="M16.5,15.5h-3v-7c1.7,0,3,1.3,3,3V15.5z"/>
	</g>
</g>
</svg>
