<?xml version="1.0" encoding="utf-8"?>
<!-- Generator: Adobe Illustrator 19.2.0, SVG Export Plug-In . SVG Version: 6.00 Build 0)  -->
<svg version="1.1" id="Layer_1" xmlns="http://www.w3.org/2000/svg" xmlns:xlink="http://www.w3.org/1999/xlink" x="0px" y="0px"
	 viewBox="0 0 24 24" style="enable-background:new 0 0 24 24;" xml:space="preserve">
<style type="text/css">
	.st0{display:none;}
	.st1{display:inline;}
	.st2{fill:none;stroke:#000000;stroke-linecap:round;stroke-linejoin:round;stroke-miterlimit:10;}
	.st3{fill:none;stroke:#000000;stroke-linejoin:round;stroke-miterlimit:10;}
</style>
<g id="Filled_Icons" class="st0">
	<g class="st1">
		<path d="M13.4,11.8c-0.3,0.1-0.4,0.6-0.2,0.8c0.2,0.3,0.7,0.2,0.8-0.2C14.2,12,13.7,11.6,13.4,11.8z"/>
		<path d="M11,8.1c0-0.3-0.4-0.6-0.7-0.5c-0.4,0.1-0.4,0.6-0.1,0.9C10.4,8.7,11,8.5,11,8.1z"/>
		<path d="M7.6,7.6C7.2,7.7,7.2,8.2,7.5,8.4c0.3,0.2,0.7,0.1,0.8-0.3C8.4,7.8,8,7.4,7.6,7.6z"/>
		<path d="M16.2,11.8c-0.3,0-0.6,0.5-0.3,0.8c0.2,0.2,0.6,0.2,0.8-0.1C16.9,12.1,16.6,11.7,16.2,11.8z"/>
		<path d="M12,0C5.4,0,0,5.4,0,12s5.4,12,12,12s12-5.4,12-12S18.6,0,12,0z M7.7,13.5c-0.6,0.3-1.1,0.6-1.7,0.9
			c0.2-0.5,0.3-1,0.5-1.5c-0.9-0.6-1.6-1.5-1.9-2.5c-0.2-0.9-0.1-2,0.5-2.8c0.6-0.9,1.5-1.6,2.5-2c1.5-0.6,3.3-0.4,4.7,0.4
			c1.1,0.6,1.9,1.6,2.2,2.8c-1.3-0.1-2.7,0.3-3.7,1.2c-0.6,0.5-1,1.2-1.1,2c-0.1,0.6,0,1.1,0.1,1.7C9,13.8,8.3,13.7,7.7,13.5z
			 M18.7,14.8c-0.3,0.6-0.8,1-1.3,1.4c0.1,0.4,0.3,0.8,0.4,1.2c-0.5-0.2-0.9-0.5-1.4-0.7c-0.8,0.2-1.7,0.3-2.5,0.2
			c-1.1-0.2-2.2-0.8-2.8-1.9c-0.4-0.7-0.6-1.5-0.4-2.3c0.2-1,1-1.9,1.9-2.4c1.3-0.7,3-0.7,4.4,0c0.8,0.4,1.4,1,1.8,1.8
			C19.1,13,19.1,14,18.7,14.8z"/>
	</g>
</g>
<g id="Outline_Icons">
	<g>
		<circle class="st2" cx="12" cy="12" r="11.5"/>
		<path id="path11-1_1_" class="st3" d="M12.3,6c-1.4-0.8-3.2-0.9-4.7-0.4c-1,0.4-1.9,1-2.5,2c-0.5,0.8-0.7,1.9-0.5,2.8
			c0.2,1.1,1,1.9,1.9,2.5c-0.2,0.5-0.3,1-0.5,1.5c0.6-0.3,1.1-0.6,1.7-0.9c0.7,0.2,1.4,0.3,2.1,0.3c-0.2-0.5-0.2-1.1-0.1-1.7
			c0.1-0.8,0.6-1.5,1.1-2c1-0.9,2.4-1.3,3.7-1.2C14.2,7.6,13.3,6.6,12.3,6L12.3,6z"/>
		<path id="path13-81_1_" class="st3" d="M19.2,12.7c-0.3-0.8-1-1.4-1.8-1.8c-1.3-0.7-3-0.7-4.4,0c-0.9,0.5-1.7,1.3-1.9,2.4
			c-0.2,0.8,0,1.6,0.4,2.3c0.6,1,1.7,1.6,2.8,1.9c0.8,0.2,1.7,0.1,2.5-0.2c0.5,0.2,0.9,0.5,1.4,0.7c-0.1-0.4-0.2-0.8-0.4-1.2
			c0.5-0.4,1-0.8,1.3-1.4C19.6,14.5,19.6,13.5,19.2,12.7L19.2,12.7z"/>
		<g>
			<path d="M16.8,12.3C16.8,12.3,16.8,12.3,16.8,12.3c-0.4,0-0.7,0.5-0.3,0.8c0.1,0.1,0.2,0.1,0.3,0.1c0.2,0,0.4-0.1,0.4-0.3
				C17.4,12.7,17.1,12.3,16.8,12.3L16.8,12.3z"/>
		</g>
		<g>
			<path d="M14,12.3c-0.1,0-0.1,0-0.2,0c-0.3,0.1-0.4,0.6-0.2,0.8c0.1,0.1,0.2,0.1,0.3,0.1c0.2,0,0.4-0.1,0.5-0.3
				C14.6,12.7,14.4,12.3,14,12.3L14,12.3z"/>
		</g>
		<g>
			<path d="M10.5,7.5c-0.1,0-0.1,0-0.2,0c-0.4,0.1-0.4,0.6-0.1,0.9c0.1,0.1,0.2,0.1,0.3,0.1c0.3,0,0.5-0.2,0.5-0.5
				C11,7.8,10.7,7.5,10.5,7.5L10.5,7.5z"/>
		</g>
		<g>
			<path d="M7.8,7.5c-0.1,0-0.1,0-0.2,0C7.2,7.7,7.2,8.2,7.5,8.4c0.1,0.1,0.2,0.1,0.3,0.1c0.2,0,0.5-0.1,0.5-0.4
				C8.4,7.8,8.1,7.5,7.8,7.5L7.8,7.5z"/>
		</g>
	</g>
</g>
</svg>
