<?xml version="1.0" encoding="utf-8"?>
<!-- Generator: Adobe Illustrator 19.2.0, SVG Export Plug-In . SVG Version: 6.00 Build 0)  -->
<svg version="1.1" id="Layer_1" xmlns="http://www.w3.org/2000/svg" xmlns:xlink="http://www.w3.org/1999/xlink" x="0px" y="0px"
	 viewBox="0 0 24 24" style="enable-background:new 0 0 24 24;" xml:space="preserve">
<style type="text/css">
	.st0{display:none;}
	.st1{display:inline;}
	.st2{fill:none;stroke:#000000;stroke-linejoin:round;stroke-miterlimit:10;}
</style>
<g id="Filled_Icons" class="st0">
	<g class="st1">
		<path d="M4.5,7.9l6.8-4.1l3.2,1.9c0.7,0.4,1.7,0.2,2.1-0.6c0.4-0.7,0.2-1.7-0.6-2.1l-3.4-1.9c-1.3-0.7-1.5-0.8-2.8,0l-7,4.2h0
			c-1.4,0.8-1.4,1-1.4,2.5v8.5c0,1.5,0.1,1.7,1.5,2.5l7,4.2c1.3,0.7,1.5,0.7,2.8,0l3.5-2c0.7-0.5,0.9-1.4,0.5-2.1
			c-0.4-0.7-1.4-1-2.1-0.6l-3.2,1.9l-6.8-4.1L4.5,7.9L4.5,7.9z"/>
		<path d="M18.5,16.5c0,0.5,0.5,0.9,1,0.9h1c0.5,0,1-0.4,1-0.9V7.3c0-0.5-0.4-0.9-1-0.9h-1c-0.5,0-1,0.4-1,0.9
			C18.5,7.3,18.5,16.5,18.5,16.5z"/>
		<path d="M6.5,9.3v4c0,0.6,0.3,1.1,1,1.1c0.6,0,1-0.5,1-1.1v-2.7L11,9.2c0.5-0.3,0.7-1,0.4-1.5c-0.3-0.5-0.8-0.7-1.3-0.5L6.5,9.3z"
			/>
	</g>
</g>
<g id="Outline_Icons">
	<g>
		<path class="st2" d="M4.5,7.9l6.8-4.1l3.2,1.9c0.7,0.4,1.7,0.2,2.1-0.6c0.4-0.7,0.2-1.7-0.6-2.1l-3.4-1.9c-1.3-0.7-1.5-0.8-2.8,0
			l-7,4.2h0c-1.4,0.8-1.4,1-1.4,2.5v8.5c0,1.5,0.1,1.7,1.5,2.5l7,4.2c1.3,0.7,1.5,0.7,2.8,0l3.5-2c0.7-0.5,0.9-1.4,0.5-2.1
			c-0.4-0.7-1.4-1-2.1-0.6l-3.2,1.9l-6.8-4.1L4.5,7.9L4.5,7.9z"/>
		<path class="st2" d="M18.5,16.5c0,0.5,0.5,0.9,1,0.9h1c0.5,0,1-0.4,1-0.9V7.3c0-0.5-0.4-0.9-1-0.9h-1c-0.5,0-1,0.4-1,0.9
			C18.5,7.3,18.5,16.5,18.5,16.5z"/>
		<path class="st2" d="M6.5,9.3v4c0,0.6,0.3,1.1,1,1.1c0.6,0,1-0.5,1-1.1v-2.7L11,9.2c0.5-0.3,0.7-1,0.4-1.5
			c-0.3-0.5-0.8-0.7-1.3-0.5L6.5,9.3z"/>
	</g>
</g>
</svg>
