<?xml version="1.0" encoding="utf-8"?>
<!-- Generator: Adobe Illustrator 19.2.0, SVG Export Plug-In . SVG Version: 6.00 Build 0)  -->
<svg version="1.1" id="Layer_1" xmlns="http://www.w3.org/2000/svg" xmlns:xlink="http://www.w3.org/1999/xlink" x="0px" y="0px"
	 viewBox="0 0 24 24" style="enable-background:new 0 0 24 24;" xml:space="preserve">
<style type="text/css">
	.st0{display:none;}
	.st1{display:inline;}
	.st2{fill:none;stroke:#000000;stroke-linejoin:round;stroke-miterlimit:10;}
	.st3{fill:none;stroke:#000000;stroke-linecap:round;stroke-linejoin:round;stroke-miterlimit:10;}
</style>
<g id="Filled_Icons" class="st0">
	<g class="st1">
		<path d="M23.5,15.3c-0.3,0-7.9,0.4-11.5,4.1c-3.6-3.7-11.1-4.1-11.5-4.1c-0.1,0-0.3,0-0.4,0.1C0.1,15.6,0,15.7,0,15.8v3.1
			c0,0.3,0.2,0.5,0.5,0.5c7.1,0,11.1,4.4,11.1,4.5c0.1,0.1,0.2,0.2,0.4,0.2l0,0c0.1,0,0.3-0.1,0.4-0.2c0,0,4-4.4,11.1-4.5
			c0.3,0,0.5-0.2,0.5-0.5v-3.1c0-0.1-0.1-0.3-0.2-0.4C23.7,15.4,23.6,15.3,23.5,15.3z"/>
		<path d="M17.8,14.9c0.3,0.1,0.5,0,0.7-0.3c0.4-0.9,0.5-1.8,0.5-2.7c0-3.9-3.1-7-7-7c-3.9,0-7,3.1-7,7c0,0.9,0.2,1.9,0.6,2.7
			C5.6,14.9,5.8,15,6,15c0.1,0,0.1,0,0.2,0c0.3-0.1,0.4-0.4,0.3-0.7C6.2,13.6,6,12.8,6,12c0-3.3,2.7-6,6-6s6,2.7,6,6
			c0,0.8-0.2,1.6-0.5,2.3C17.4,14.5,17.5,14.8,17.8,14.9z"/>
		<path d="M22.5,8.2V3.9C23.4,3.7,24,2.9,24,2c0-1.1-0.9-2-2-2c-1.1,0-2,0.9-2,2c0,0.9,0.6,1.7,1.5,1.9v4c-0.1,0-0.2,0-0.3,0.1
			C19.7,4.5,16.1,2,12,2S4.3,4.5,2.8,8.1C2.7,8,2.6,8,2.5,8C1.1,8,0,9.1,0,10.5v1C0,12.8,1.1,14,2.5,14C2.8,14,3,13.7,3,13.5V12
			c0-5,4-9,9-9s9,4,9,9v1.5c0,0.3,0.2,0.5,0.5,0.5c1.4,0,2.5-1.1,2.5-2.5v-1C24,9.4,23.4,8.6,22.5,8.2z"/>
	</g>
</g>
<g id="Outline_Icons">
	<g>
		<path class="st2" d="M12,20.1c-3.3-4-11.5-4.4-11.5-4.4v3C8,18.9,12,23.5,12,23.5l0,0c0,0,4.1-4.6,11.5-4.6v-3.1
			C23.5,15.8,15.4,16.1,12,20.1z"/>
		<path class="st2" d="M2.5,12c0-5.2,4.3-9.5,9.5-9.5c5.2,0,9.5,4.3,9.5,9.5"/>
		<path class="st3" d="M6,14.5c-0.3-0.8-0.5-1.6-0.5-2.5c0-3.6,2.9-6.5,6.5-6.5s6.5,2.9,6.5,6.5c0,0.9-0.2,1.7-0.5,2.5"/>
		<path class="st2" d="M23.5,11.5c0,1.1-0.9,2-2,2v-5c1.1,0,2,0.9,2,2V11.5z"/>
		<path class="st2" d="M0.5,11.5c0,1.1,0.9,2,2,2v-5c-1.1,0-2,0.9-2,2V11.5z"/>
		<line class="st2" x1="22" y1="3.5" x2="22" y2="8.5"/>
		<circle class="st2" cx="22" cy="2" r="1.5"/>
	</g>
</g>
</svg>
