<?xml version="1.0" encoding="utf-8"?>
<!-- Generator: Adobe Illustrator 19.2.0, SVG Export Plug-In . SVG Version: 6.00 Build 0)  -->
<svg version="1.1" id="Layer_1" xmlns="http://www.w3.org/2000/svg" xmlns:xlink="http://www.w3.org/1999/xlink" x="0px" y="0px"
	 viewBox="0 0 24 24" style="enable-background:new 0 0 24 24;" xml:space="preserve">
<style type="text/css">
	.st0{display:none;}
	.st1{display:inline;}
	.st2{fill:none;stroke:#000000;stroke-linejoin:round;stroke-miterlimit:10;}
</style>
<g id="Filled_Icons" class="st0">
	<path class="st1" d="M14.5,1.5h-14V10v4.5v9h23v-13C23.5,5.6,19.5,1.5,14.5,1.5z M10.5,20.5h-7v-16h7V20.5z M20.5,20.5h-7v-16
		c4,0,7,3,7,6.4V20.5z"/>
</g>
<g id="Outline_Icons">
	<g>
		<path class="st2" d="M14.5,1.5h-14V10v4.5v9h9h5h9v-13C23.5,5.6,19.5,1.5,14.5,1.5L14.5,1.5z"/>
		<rect x="3.5" y="4.5" class="st2" width="7" height="16"/>
		<path class="st2" d="M13.5,20.5v-16c4,0,7,3,7,6.4v9.6H13.5L13.5,20.5z"/>
	</g>
</g>
</svg>
