<?xml version="1.0" encoding="utf-8"?>
<!-- Generator: Adobe Illustrator 19.2.0, SVG Export Plug-In . SVG Version: 6.00 Build 0)  -->
<svg version="1.1" id="Layer_1" xmlns="http://www.w3.org/2000/svg" xmlns:xlink="http://www.w3.org/1999/xlink" x="0px" y="0px"
	 viewBox="0 0 24 24" style="enable-background:new 0 0 24 24;" xml:space="preserve">
<style type="text/css">
	.st0{display:none;}
	.st1{display:inline;}
	.st2{fill:none;stroke:#000000;stroke-linecap:round;stroke-linejoin:round;stroke-miterlimit:10;}
</style>
<g id="Filled_Icons" class="st0">
	<path class="st1" d="M12,0C5.4,0,0,5.4,0,12s5.4,12,12,12s12-5.4,12-12S18.6,0,12,0z M14.2,14.9l-0.4,3.4c-0.1,0.7-0.7,1.2-1.4,1.2
		h-1c-0.7,0-1.3-0.5-1.4-1.2l-0.4-3.4c0-0.4,0.1-0.8,0.3-1.1c0.3-0.3,0.6-0.5,1-0.5h1.7c0.4,0,0.8,0.2,1,0.5
		C14.1,14.1,14.3,14.5,14.2,14.9z M10.3,10.3c0-0.9,0.8-1.7,1.7-1.7s1.7,0.8,1.7,1.7c0,0.9-0.8,1.7-1.7,1.7S10.3,11.3,10.3,10.3z
		 M15.8,13.8c-0.1,0-0.2,0-0.3-0.1c-0.2-0.1-0.3-0.5-0.2-0.7c0.4-0.6,0.6-1.3,0.6-2.1c0-2.2-1.8-3.9-3.9-3.9S8.1,8.8,8.1,11
		c0,0.7,0.2,1.5,0.6,2.1c0.1,0.2,0.1,0.5-0.2,0.7c-0.2,0.1-0.5,0.1-0.7-0.2c-0.5-0.8-0.8-1.7-0.8-2.6c0-2.7,2.2-4.9,4.9-4.9
		s4.9,2.2,4.9,4.9c0,0.9-0.3,1.8-0.8,2.6C16.1,13.8,15.9,13.8,15.8,13.8z M17.2,15.7c-0.2,0.2-0.5,0.2-0.7,0c-0.2-0.2-0.2-0.5,0-0.7
		c1-1.1,1.6-2.5,1.6-4c0-3.3-2.7-6-6-6c-3.3,0-6,2.7-6,6c0,1.5,0.6,2.9,1.6,4c0.2,0.2,0.2,0.5,0,0.7c-0.1,0.1-0.2,0.1-0.3,0.1
		c-0.1,0-0.3-0.1-0.4-0.2C5.7,14.4,5,12.7,5,11c0-3.8,3.1-7,7-7c3.8,0,7,3.1,7,7C19,12.7,18.3,14.4,17.2,15.7z"/>
</g>
<g id="Outline_Icons">
	<g>
		<circle class="st2" cx="12" cy="12" r="11.5"/>
		<path class="st2" d="M8.2,13.3c-0.4-0.7-0.7-1.5-0.7-2.3c0-2.4,2-4.4,4.4-4.4c2.4,0,4.4,2,4.4,4.4c0,0.9-0.2,1.7-0.7,2.4"/>
		<path class="st2" d="M7.2,15.4c-1.1-1.2-1.7-2.7-1.7-4.4c0-3.6,2.9-6.5,6.5-6.5s6.5,2.9,6.5,6.5c0,1.7-0.6,3.2-1.7,4.4"/>
		<path class="st2" d="M14.2,14.9c0-0.4-0.1-0.8-0.3-1.1c-0.3-0.3-0.6-0.5-1-0.5h-1.7c-0.4,0-0.8,0.2-1,0.5
			c-0.3,0.3-0.4,0.7-0.3,1.1l0.4,3.4c0.1,0.7,0.7,1.2,1.4,1.2h1c0.7,0,1.3-0.5,1.4-1.2L14.2,14.9z"/>
		<circle class="st2" cx="12" cy="10.3" r="1.7"/>
	</g>
</g>
</svg>
