<?xml version="1.0" encoding="utf-8"?>
<!-- Generator: Adobe Illustrator 19.2.0, SVG Export Plug-In . SVG Version: 6.00 Build 0)  -->
<svg version="1.1" id="Layer_1" xmlns="http://www.w3.org/2000/svg" xmlns:xlink="http://www.w3.org/1999/xlink" x="0px" y="0px"
	 viewBox="0 0 24 24" style="enable-background:new 0 0 24 24;" xml:space="preserve">
<style type="text/css">
	.st0{display:none;}
	.st1{display:inline;}
	.st2{fill:none;stroke:#000000;stroke-linejoin:round;stroke-miterlimit:10;}
	.st3{fill:none;stroke:#000000;stroke-linecap:round;stroke-linejoin:round;stroke-miterlimit:10;}
</style>
<g id="Filled_Icons" class="st0">
	<path class="st1" d="M24,11.5c0-1.7-1.3-3-3-3c-1,0-1.9,0.5-2.4,1.2c-1.6-1-3.7-1.6-6.1-1.7c0.1-1.1,0.4-3,1.5-3.7
		c0.7-0.4,1.7-0.2,3,0.5c0.2,1.5,1.4,2.7,3,2.7c1.7,0,3-1.3,3-3s-1.3-3-3-3c-1.4,0-2.5,0.9-2.9,2.2c-1.4-0.7-2.6-0.8-3.6-0.3
		c-1.6,0.9-2,3.5-2,4.6C9.2,8.1,7.1,8.7,5.4,9.7C4.9,9,4,8.5,3,8.5c-1.7,0-3,1.3-3,3c0,1.3,0.8,2.4,2,2.8c0,0.2,0,0.4,0,0.7
		c0,3.9,4.5,7,10,7s10-3.1,10-7c0-0.2,0-0.4,0-0.7C23.1,13.9,24,12.8,24,11.5z M2.3,13.4c-0.8-0.3-1.3-1-1.3-1.9c0-1.1,0.9-2,2-2
		c0.6,0,1.2,0.3,1.6,0.8C3.5,11.2,2.7,12.2,2.3,13.4z M6,13.5c0-1.1,0.9-2,2-2s2,0.9,2,2c0,1.1-0.9,2-2,2S6,14.6,6,13.5z M15.8,18.3
		c-1.1,0.6-2.4,0.9-3.8,0.9c-1.4,0-2.7-0.3-3.8-1C8,18.2,7.9,17.9,8,17.6s0.4-0.3,0.7-0.2c1.8,1.1,4.8,1.1,6.6,0
		c0.2-0.1,0.5-0.1,0.7,0.2C16.1,17.9,16,18.2,15.8,18.3z M16,15.5c-1.1,0-2-0.9-2-2c0-1.1,0.9-2,2-2c1.1,0,2,0.9,2,2
		C18,14.6,17.1,15.5,16,15.5z M21.7,13.4c-0.4-1.2-1.2-2.2-2.3-3c0.4-0.5,1-0.8,1.6-0.8c1.1,0,2,0.9,2,2
		C23,12.3,22.5,13.1,21.7,13.4z"/>
</g>
<g id="Outline_Icons">
	<g>
		<ellipse class="st2" cx="12" cy="15" rx="9.5" ry="6.5"/>
		<path class="st3" d="M15.5,17.9c-1,0.6-2.2,0.9-3.5,0.9c-1.4,0-2.6-0.3-3.6-0.9"/>
		<circle class="st2" cx="16" cy="13.5" r="1.5"/>
		<circle class="st2" cx="8" cy="13.5" r="1.5"/>
		<path class="st3" d="M18.7,10.4C19.1,9.6,20,9,21,9c1.4,0,2.5,1.1,2.5,2.5c0,1.3-0.9,2.3-2.1,2.5"/>
		<circle class="st3" cx="20" cy="4.5" r="2.5"/>
		<path class="st3" d="M5.3,10.4C4.9,9.6,4,9,3,9c-1.4,0-2.5,1.1-2.5,2.5c0,1.3,0.9,2.3,2.1,2.5"/>
		<path class="st3" d="M12,8.5c0,0-0.1-7.4,5.5-4"/>
	</g>
</g>
</svg>
