<?xml version="1.0" encoding="utf-8"?>
<!-- Generator: Adobe Illustrator 19.2.0, SVG Export Plug-In . SVG Version: 6.00 Build 0)  -->
<svg version="1.1" id="Layer_1" xmlns="http://www.w3.org/2000/svg" xmlns:xlink="http://www.w3.org/1999/xlink" x="0px" y="0px"
	 viewBox="0 0 24 24" style="enable-background:new 0 0 24 24;" xml:space="preserve">
<style type="text/css">
	.st0{display:none;}
	.st1{display:inline;}
	.st2{fill:none;stroke:#000000;stroke-linejoin:round;stroke-miterlimit:10;}
</style>
<g id="Filled_Icons" class="st0">
	<g class="st1">
		<path d="M21.6,18.3c1.2-1.8,1.9-4,1.9-6.3c0-6.4-5.1-11.5-11.5-11.5S0.5,5.6,0.5,12S5.6,23.5,12,23.5c2.7,0,5.3-1,7.2-2.6l4,1.5
			L21.6,18.3L21.6,18.3z M18.5,15.4L7.7,17.9C7.2,18,6.6,17.6,6.5,17l-1.6-6.7C4.8,9.7,5.1,9.1,5.6,9L8,8.4c0.7-1.3,2-2.2,3.6-2.2
			c0.9,0,1.7,0.3,2.4,0.8l2.3-0.5c0.5-0.1,1.1,0.3,1.3,0.9l1.6,6.7C19.4,14.7,19,15.3,18.5,15.4z"/>
		<path d="M12.2,15c-1.6,0-2.9-1.3-2.9-2.9s1.3-2.9,2.9-2.9s2.9,1.3,2.9,2.9C15.1,13.7,13.8,15,12.2,15L12.2,15z"/>
	</g>
</g>
<g id="Outline_Icons">
	<g>
		<path id="Dailybooth_4_" class="st2" d="M12,23.5C5.6,23.5,0.5,18.4,0.5,12S5.6,0.5,12,0.5S23.5,5.6,23.5,12
			c0,2.3-0.7,4.5-1.9,6.3l0,0l1.7,4.1l-4-1.5C17.3,22.5,14.7,23.5,12,23.5L12,23.5z M5.6,9c-0.5,0.1-0.9,0.7-0.7,1.4L6.5,17
			c0.1,0.6,0.7,1,1.3,0.9l10.8-2.5c0.5-0.1,0.9-0.7,0.7-1.4l-1.6-6.7c-0.1-0.6-0.7-1-1.3-0.9L14.1,7c-0.7-0.5-1.5-0.8-2.4-0.8
			c-1.6,0-2.9,0.9-3.6,2.2L5.6,9L5.6,9z M12.2,15c-1.6,0-2.9-1.3-2.9-2.9s1.3-2.9,2.9-2.9s2.9,1.3,2.9,2.9
			C15.1,13.7,13.8,15,12.2,15L12.2,15z"/>
	</g>
</g>
</svg>
