<?xml version="1.0" encoding="utf-8"?>
<!-- Generator: Adobe Illustrator 19.2.0, SVG Export Plug-In . SVG Version: 6.00 Build 0)  -->
<svg version="1.1" id="Layer_1" xmlns="http://www.w3.org/2000/svg" xmlns:xlink="http://www.w3.org/1999/xlink" x="0px" y="0px"
	 viewBox="0 0 24 24" style="enable-background:new 0 0 24 24;" xml:space="preserve">
<style type="text/css">
	.st0{display:none;}
	.st1{display:inline;}
	.st2{fill:none;stroke:#000000;stroke-linejoin:round;stroke-miterlimit:10;}
	.st3{fill:none;stroke:#000000;stroke-linecap:round;stroke-linejoin:round;stroke-miterlimit:10;}
</style>
<g id="Filled_Icons" class="st0">
	<g class="st1">
		<circle cx="8.8" cy="10.2" r="0.5"/>
		<circle cx="8.8" cy="5.8" r="0.5"/>
		<circle cx="8.8" cy="15.2" r="0.5"/>
		<circle cx="14.2" cy="8.8" r="0.5"/>
		<circle cx="14.2" cy="18.2" r="0.5"/>
		<path d="M12,0C5.4,0,0,5.4,0,12s5.4,12,12,12s12-5.4,12-12S18.6,0,12,0z M12.8,13.2c0-0.8,0.7-1.5,1.5-1.5s1.5,0.7,1.5,1.5
			s-0.7,1.5-1.5,1.5c-0.3,0-0.6-0.1-0.9-0.3L12,15.3v3.8l0.8-0.5c0-0.1-0.1-0.2-0.1-0.4c0-0.8,0.7-1.5,1.5-1.5s1.5,0.7,1.5,1.5
			s-0.7,1.5-1.5,1.5c-0.3,0-0.6-0.1-0.9-0.3L12,20.3V21h-1v-3.7l-1.3-0.9c-0.3,0.2-0.6,0.3-0.9,0.3c-0.8,0-1.5-0.7-1.5-1.5
			s0.7-1.5,1.5-1.5s1.5,0.7,1.5,1.5c0,0.1,0,0.2,0,0.3l0.8,0.5v-3.8l-1.3-0.9c-0.3,0.2-0.6,0.3-0.9,0.3c-0.8,0-1.5-0.7-1.5-1.5
			s0.7-1.5,1.5-1.5s1.5,0.7,1.5,1.5c0,0.1,0,0.2,0,0.3l0.8,0.5V7.8L9.7,7C9.4,7.2,9.1,7.3,8.8,7.3c-0.8,0-1.5-0.7-1.5-1.5
			s0.7-1.5,1.5-1.5s1.5,0.7,1.5,1.5c0,0.1,0,0.2,0,0.3L11,6.7V4h1v5.6l0.8-0.5c0-0.1,0-0.2,0-0.3c0-0.8,0.7-1.5,1.5-1.5
			s1.5,0.7,1.5,1.5s-0.7,1.5-1.5,1.5c-0.3,0-0.7-0.1-0.9-0.3L12,10.8v3.2l0.8-0.5C12.8,13.5,12.8,13.3,12.8,13.2z"/>
		<circle cx="14.2" cy="13.2" r="0.5"/>
	</g>
</g>
<g id="Outline_Icons">
	<g>
		<circle class="st2" cx="8.8" cy="5.8" r="1"/>
		<circle class="st2" cx="14.2" cy="8.8" r="1"/>
		<circle class="st2" cx="8.8" cy="10.2" r="1"/>
		<circle class="st3" cx="12" cy="12" r="11.5"/>
		<line class="st2" x1="11.5" y1="4" x2="11.5" y2="21"/>
		<line class="st2" x1="11.5" y1="7.6" x2="9.6" y2="6.3"/>
		<line class="st2" x1="11.5" y1="12" x2="9.6" y2="10.8"/>
		<line class="st2" x1="11.5" y1="17" x2="9.6" y2="15.8"/>
		<circle class="st2" cx="8.8" cy="15.2" r="1"/>
		<line class="st2" x1="11.5" y1="10.6" x2="13.4" y2="9.3"/>
		<line class="st2" x1="11.5" y1="15" x2="13.4" y2="13.8"/>
		<circle class="st2" cx="14.2" cy="13.2" r="1"/>
		<line class="st2" x1="11.5" y1="20" x2="13.4" y2="18.8"/>
		<circle class="st2" cx="14.2" cy="18.2" r="1"/>
	</g>
</g>
</svg>
