<?xml version="1.0" encoding="utf-8"?>
<!-- Generator: Adobe Illustrator 19.2.0, SVG Export Plug-In . SVG Version: 6.00 Build 0)  -->
<svg version="1.1" id="Layer_1" xmlns="http://www.w3.org/2000/svg" xmlns:xlink="http://www.w3.org/1999/xlink" x="0px" y="0px"
	 viewBox="0 0 24 24" style="enable-background:new 0 0 24 24;" xml:space="preserve">
<style type="text/css">
	.st0{display:none;}
	.st1{display:inline;}
	.st2{fill:none;stroke:#000000;stroke-linecap:round;stroke-linejoin:round;stroke-miterlimit:10;}
</style>
<g id="Filled_Icons" class="st0">
	<g class="st1">
		<path d="M9,6.5c-1,0-1.9,0.4-2.5,1.1C5.9,6.9,5,6.5,4,6.5c-0.5,0-1.1,0.1-1.5,0.4C2.4,6.4,2,6,1.5,6c-0.6,0-1,0.4-1,1v3v6.5
			c0,0.6,0.4,1,1,1s1-0.4,1-1V10c0-0.8,0.7-1.5,1.5-1.5S5.5,9.2,5.5,10v6.5c0,0.6,0.4,1,1,1s1-0.4,1-1V10c0-0.8,0.7-1.5,1.5-1.5
			s1.5,0.7,1.5,1.5v6.5c0,0.6,0.4,1,1,1s1-0.4,1-1V10C12.5,8.1,10.9,6.5,9,6.5z"/>
		<path d="M23.2,12.2c0.2-0.2,0.3-0.5,0.2-0.8c-0.3-2.3-2.3-4.8-5-4.8c-2.8,0-5,2.5-5,5.5c0,3,2.2,5.5,5,5.5c1.9,0,3.7-1.2,4.5-3.1
			c0.2-0.5,0-1.1-0.5-1.3c-0.5-0.2-1.1,0-1.3,0.5c-0.5,1.2-1.5,1.9-2.7,1.9c-1.5,0-2.8-1.3-3-3h6.9C22.8,12.5,23.1,12.4,23.2,12.2z
			 M15.8,10.5c0.5-1.2,1.5-2,2.7-2c1.1,0,2.1,0.9,2.6,2H15.8z"/>
	</g>
</g>
<g id="Outline_Icons">
	<g>
		<line class="st2" x1="1.5" y1="7" x2="1.5" y2="16.5"/>
		<path class="st2" d="M6.5,16.5V10c0-1.4-1.1-2.5-2.5-2.5S1.5,8.6,1.5,10v6.5"/>
		<path class="st2" d="M11.5,16.5V10c0-1.4-1.1-2.5-2.5-2.5S6.5,8.6,6.5,10v6.5"/>
		<path class="st2" d="M21.6,14c-0.6,1.5-2,2.5-3.6,2.5c-2.2,0-4-2-4-4.5c0-2.5,1.8-4.5,4-4.5c2,0,3.7,2,4,4h-8"/>
	</g>
</g>
</svg>
