<?xml version="1.0" encoding="utf-8"?>
<!-- Generator: Adobe Illustrator 19.2.0, SVG Export Plug-In . SVG Version: 6.00 Build 0)  -->
<svg version="1.1" id="Layer_1" xmlns="http://www.w3.org/2000/svg" xmlns:xlink="http://www.w3.org/1999/xlink" x="0px" y="0px"
	 viewBox="0 0 24 24" style="enable-background:new 0 0 24 24;" xml:space="preserve">
<style type="text/css">
	.st0{display:none;}
	.st1{display:inline;}
	.st2{fill:none;stroke:#000000;stroke-linejoin:round;stroke-miterlimit:10;}
</style>
<g id="Filled_Icons" class="st0">
	<g class="st1">
		<path d="M0.5,13.2L0.5,13.2c0,1,0.5,1.2,0.5,1.2c1.2,1.6,1.5,1.6,3.4,1.8c0-1.2,1.9-5.3,4.9-6.8C8.8,9,8.4,8.7,7.8,8.5
			C8.5,7.9,9,7.1,9,6.2c0-1.7-1.3-3-3-3c-1.7,0-3,1.3-3,3c0,0.9,0.5,1.8,1.1,2.3C3.6,8.6,0.9,9.8,0.5,13.2z"/>
		<path d="M19.7,7.2c0-2.5-2-4.4-4.5-4.4c-2.5,0-4.5,2-4.5,4.4c0,1.4,0.7,2.6,1.7,3.5h0c-0.6,0.2-4.7,2-5.3,7c0,1.5,0.8,1.8,0.8,1.8
			v0c0,0,0.3,0.3,0.9,0.5c1.1,3.6,12.1,3.4,13.2,0c1.9-0.4,1.7-2.7,1.1-4.4c-0.8-2.4-2.9-4.1-5-4.9C19.1,9.8,19.7,8.6,19.7,7.2z"/>
	</g>
</g>
<g id="Outline_Icons">
	<g>
		<path class="st2" d="M0.5,13.2L0.5,13.2c0,1,0.5,1.2,0.5,1.2c1.2,1.6,1.5,1.6,3.4,1.8c0-1.2,1.9-5.3,4.9-6.8
			C8.8,9,8.4,8.7,7.8,8.5C8.5,7.9,9,7.1,9,6.2c0-1.7-1.3-3-3-3c-1.7,0-3,1.3-3,3c0,0.9,0.5,1.8,1.1,2.3C3.6,8.6,0.9,9.8,0.5,13.2z"
			/>
		<path class="st2" d="M19.7,7.2c0-2.5-2-4.4-4.5-4.4c-2.5,0-4.5,2-4.5,4.4c0,1.4,0.7,2.6,1.7,3.5h0c-0.6,0.2-4.7,2-5.3,7
			c0,1.5,0.8,1.8,0.8,1.8v0c0,0,0.3,0.3,0.9,0.5c1.1,3.6,12.1,3.4,13.2,0c1.9-0.4,1.7-2.7,1.1-4.4c-0.8-2.4-2.9-4.1-5-4.9
			C19.1,9.8,19.7,8.6,19.7,7.2z"/>
	</g>
</g>
</svg>
