<?xml version="1.0" encoding="utf-8"?>
<!-- Generator: Adobe Illustrator 19.2.0, SVG Export Plug-In . SVG Version: 6.00 Build 0)  -->
<svg version="1.1" id="Layer_1" xmlns="http://www.w3.org/2000/svg" xmlns:xlink="http://www.w3.org/1999/xlink" x="0px" y="0px"
	 viewBox="0 0 24 24" style="enable-background:new 0 0 24 24;" xml:space="preserve">
<style type="text/css">
	.st0{display:none;}
	.st1{display:inline;}
	.st2{fill:none;stroke:#000000;stroke-linecap:round;stroke-linejoin:round;stroke-miterlimit:10;}
	.st3{fill:none;stroke:#000000;stroke-linejoin:round;stroke-miterlimit:10;}
</style>
<g id="Filled_Icons" class="st0">
	<path class="st1" d="M12,0C5.4,0,0,5.4,0,12s5.4,12,12,12s12-5.4,12-12S18.6,0,12,0z M12.3,6.2c0.5-0.5,1.3-1,1.9-1
		C14.3,6,14,6.8,13.5,7.3c-0.5,0.5-1.2,1-1.9,0.9C11.5,7.5,11.9,6.7,12.3,6.2z M15.8,17.2c-0.5,0.7-1.1,1.4-1.9,1.4
		c-0.8,0-1.1-0.5-2-0.5c-0.9,0-1.2,0.5-2,0.5c-0.8,0-1.4-0.7-1.9-1.4c-1.1-1.5-1.9-4.3-0.8-6.2C7.7,10,8.6,9.6,9.6,9.5
		c0.8,0,1.5,0.8,2,0.8s1.4-0.9,2.4-0.8c0.4,0,1.6,0,2.3,1.1c-0.1,0-1.3,0.8-1.3,2.3c0,1.9,1.6,2.5,1.6,2.5
		C16.6,15.5,16.4,16.3,15.8,17.2z"/>
</g>
<g id="Outline_Icons">
	<g>
		<circle class="st2" cx="12" cy="12" r="11.5"/>
		<g>
			<path class="st3" d="M15,12.9c0-1.6,1.3-2.3,1.3-2.3c-0.7-1.1-1.9-1.1-2.3-1.1c-1-0.1-1.9,0.8-2.4,0.8c-0.5,0-1.2-0.8-2-0.8
				c-1,0-1.9,0.5-2.5,1.4c-1.1,1.9-0.3,4.7,0.8,6.2c0.5,0.7,1.1,1.4,1.9,1.4c0.8,0,1.1-0.5,2-0.5s1.2,0.5,2,0.5
				c0.8,0,1.4-0.6,1.9-1.4c0.6-0.9,0.8-1.7,0.9-1.7C16.6,15.4,15,14.8,15,12.9z"/>
			<path class="st3" d="M13.5,7.3C14,6.8,14.3,6,14.2,5.2c-0.7,0-1.4,0.4-1.9,1c-0.4,0.5-0.8,1.3-0.7,2C12.3,8.3,13.1,7.9,13.5,7.3z
				"/>
		</g>
	</g>
</g>
</svg>
