<?xml version="1.0" encoding="utf-8"?>
<!-- Generator: Adobe Illustrator 19.2.0, SVG Export Plug-In . SVG Version: 6.00 Build 0)  -->
<svg version="1.1" id="Layer_1" xmlns="http://www.w3.org/2000/svg" xmlns:xlink="http://www.w3.org/1999/xlink" x="0px" y="0px"
	 viewBox="0 0 24 24" style="enable-background:new 0 0 24 24;" xml:space="preserve">
<style type="text/css">
	.st0{display:none;}
	.st1{display:inline;}
	.st2{fill:none;stroke:#000000;stroke-linejoin:round;stroke-miterlimit:10;}
</style>
<g id="Filled_Icons" class="st0">
	<g class="st1">
		<path d="M16.4,6.5l-5.7,9H4.6l1.4-3h3.9l1.4-2H2.6l-1.4,2h2.1l-2.8,5h11.6l4.4-7l1.6,3h-1.4l-1.4,2h4.2l1.4,2h2.7L16.4,6.5z
			 M14.6,6.5H5.4L4,8.5h9.1L14.6,6.5z"/>
	</g>
</g>
<g id="Outline_Icons">
	<g id="形状_1_5_">
		<g>
			<path class="st2" d="M16.4,6.5l-5.7,9H4.6l1.4-3h3.9l1.4-2H2.6l-1.4,2h2.1l-2.8,5h11.6l4.4-7l1.6,3h-1.4l-1.4,2h4.2l1.4,2h2.7
				L16.4,6.5z M14.6,6.5H5.4L4,8.5h9.1L14.6,6.5z"/>
		</g>
	</g>
</g>
</svg>
