<?xml version="1.0" encoding="utf-8"?>
<!-- Generator: Adobe Illustrator 19.2.0, SVG Export Plug-In . SVG Version: 6.00 Build 0)  -->
<svg version="1.1" id="Layer_1" xmlns="http://www.w3.org/2000/svg" xmlns:xlink="http://www.w3.org/1999/xlink" x="0px" y="0px"
	 viewBox="0 0 24 24" style="enable-background:new 0 0 24 24;" xml:space="preserve">
<style type="text/css">
	.st0{display:none;}
	.st1{display:inline;}
	.st2{fill:none;stroke:#000000;stroke-linecap:round;stroke-linejoin:round;stroke-miterlimit:10;}
	.st3{fill:none;stroke:#000000;stroke-linejoin:round;stroke-miterlimit:10;}
</style>
<g id="Filled_Icons" class="st0">
	<g class="st1">
		<path d="M12,0C5.4,0,0,5.4,0,12s5.4,12,12,12s12-5.4,12-12S18.6,0,12,0z M9.7,12c-0.2,1.6-0.5,3.6-0.5,3.6c0,0.1-0.1,0.2-0.2,0.2
			c-0.5,0-1.1,0.1-1.4-0.4c-0.2-0.2-0.2-0.6-0.2-1c-0.9,0.4-3.2,0-2.8-2.3c0.3-2.4,2.3-2.7,3.1-2.7c0.6,0,1.2,0.2,1.6,0.7
			C9.7,10.6,9.8,11.2,9.7,12z M13,14.3c0,0.1-0.1,0.2-0.2,0.2c-0.5,0-1.1,0.1-1.4-0.3c-0.2-0.2-0.3-0.6-0.2-1.1c0.2-1.3,0.4-3,0.4-3
			c0-0.1,0.1-0.2,0.2-0.2c0.5,0,1.1-0.1,1.4,0.3c0.2,0.2,0.3,0.6,0.2,1C13.5,11.1,13,14.2,13,14.3z M13.6,8.3
			c-0.2,0.2-0.4,0.4-0.7,0.5c-0.1,0-0.2,0-0.3,0c-0.5,0-0.9-0.3-1-0.7c-0.1-0.5,0.2-1.1,0.8-1.2C13,6.7,13.6,7,13.8,7.5
			C13.8,7.8,13.8,8.1,13.6,8.3z M20.5,10.1c-0.1,0.1-1.2,1.4-1.8,1.9c0.4,0.9,0.9,1.3,1.1,1.3c0.1,0,0.2,0.1,0.2,0.3
			c0,0.3-0.3,1-1.2,1c-0.9,0-1.3-0.7-1.7-1.5C17,13.6,17,14.2,17,14.3c0,0.1-0.1,0.2-0.2,0.2c-0.5,0-1.1,0.1-1.4-0.3
			c-0.2-0.2-0.3-0.6-0.2-1.1c0.2-1.3,0.7-4.7,0.7-4.7c0-0.1,0.1-0.2,0.2-0.2c0.5,0,1.1-0.1,1.4,0.3c0.2,0.2,0.3,0.6,0.2,1
			c0,0.4-0.1,0.9-0.2,1.5c0.2-0.3,0.5-0.6,0.7-0.8c0.5-0.6,2.2-0.5,2.4-0.3C20.5,9.9,20.5,10,20.5,10.1z"/>
		<path d="M7.3,11.4c-0.6-0.1-0.9,1.2-0.3,1.2C7.7,12.7,8,11.6,7.3,11.4z"/>
	</g>
</g>
<g id="Outline_Icons">
	<g>
		<circle class="st2" cx="12" cy="12" r="11.5"/>
		<g>
			<path class="st3" d="M11.3,14.2c-0.2-0.2-0.3-0.6-0.2-1.1c0.2-1.3,0.4-3,0.4-3c0-0.1,0.1-0.2,0.2-0.2c0.5,0,1.1-0.1,1.4,0.3
				c0.2,0.2,0.3,0.6,0.2,1c0,0.1-0.4,3.1-0.4,3.2c0,0.1-0.1,0.2-0.2,0.2C12.3,14.5,11.7,14.6,11.3,14.2z"/>
			<path class="st3" d="M12.6,8.8c-0.5,0-0.9-0.3-1-0.7c-0.1-0.5,0.2-1.1,0.8-1.2C13,6.7,13.6,7,13.8,7.5c0.1,0.3,0,0.5-0.2,0.8
				c-0.2,0.2-0.4,0.4-0.7,0.5C12.8,8.8,12.7,8.8,12.6,8.8z"/>
		</g>
		<path class="st3" d="M18.8,14.6c-0.9,0-1.3-0.7-1.7-1.5C17,13.6,17,14.2,17,14.3c0,0.1-0.1,0.2-0.2,0.2c-0.5,0-1.1,0.1-1.4-0.3
			c-0.2-0.2-0.3-0.6-0.2-1.1c0.2-1.3,0.7-4.7,0.7-4.7c0-0.1,0.1-0.2,0.2-0.2c0.5,0,1-0.1,1.4,0.3c0.2,0.2,0.3,0.6,0.2,1
			c0,0.4-0.1,0.9-0.2,1.5c0.2-0.3,0.5-0.6,0.7-0.8c0.5-0.6,2.2-0.5,2.4-0.3c0,0.1,0,0.2,0,0.3c-0.1,0.1-1.2,1.4-1.8,1.9
			c0.4,0.9,0.9,1.3,1.1,1.3c0.1,0,0.2,0.1,0.2,0.3C20,13.8,19.7,14.6,18.8,14.6z"/>
		<path class="st3" d="M9.3,10.1c-0.4-0.5-1-0.7-1.6-0.7c-0.8,0-2.8,0.3-3.1,2.7c-0.3,2.3,1.9,2.8,2.8,2.3c0,0.4,0,0.8,0.2,1
			c0.3,0.4,0.9,0.4,1.4,0.4c0.1,0,0.2-0.1,0.2-0.2c0,0,0.3-2,0.5-3.6C9.8,11.2,9.7,10.6,9.3,10.1z M7,12.7c-0.6,0-0.4-1.4,0.3-1.2
			C8,11.6,7.7,12.7,7,12.7z"/>
	</g>
</g>
</svg>
