<?xml version="1.0" encoding="utf-8"?>
<!-- Generator: Adobe Illustrator 19.2.0, SVG Export Plug-In . SVG Version: 6.00 Build 0)  -->
<svg version="1.1" id="Layer_1" xmlns="http://www.w3.org/2000/svg" xmlns:xlink="http://www.w3.org/1999/xlink" x="0px" y="0px"
	 viewBox="0 0 24 24" style="enable-background:new 0 0 24 24;" xml:space="preserve">
<style type="text/css">
	.st0{display:none;}
	.st1{display:inline;}
	.st2{fill:none;stroke:#000000;stroke-linejoin:round;stroke-miterlimit:10;}
</style>
<g id="Filled_Icons" class="st0">
	<path class="st1" d="M23.2,9.7l-0.3-0.3c-0.4-0.3-2.6,0-3.1-0.5c-0.4-0.4-0.5-1.1-0.6-2c-0.2-1.8-0.4-1.9-0.7-2.5
		c-1-2.1-3.8-3.8-5.6-4H7.8c-4,0-7.3,3.3-7.3,7.3v8.5c0,4,3.3,7.3,7.3,7.3h8.4c4,0,7.3-3.3,7.3-7.3l0-5.9
		C23.4,10,23.5,10.2,23.2,9.7z M8,6.5h4c0.8,0,1.5,0.7,1.5,1.5c0,0.8-0.7,1.5-1.5,1.5H8C7.2,9.5,6.5,8.8,6.5,8
		C6.5,7.2,7.2,6.5,8,6.5z M16,17.5H8c-0.8,0-1.5-0.7-1.5-1.5c0-0.8,0.7-1.5,1.5-1.5h8c0.8,0,1.5,0.7,1.5,1.5
		C17.5,16.8,16.8,17.5,16,17.5z"/>
</g>
<g id="Outline_Icons">
	<g>
		<path class="st2" d="M22.9,9.4c-0.4-0.3-2.6,0-3.1-0.5c-0.4-0.4-0.5-1.1-0.6-2c-0.2-1.8-0.4-1.9-0.7-2.5c-1-2.1-3.8-3.8-5.6-4H7.8
			c-4,0-7.3,3.3-7.3,7.3v8.5c0,4,3.3,7.3,7.3,7.3h8.4c4,0,7.3-3.3,7.3-7.3l0-5.9C23.4,9.7,23.3,9.7,22.9,9.4z"/>
		<path class="st2" d="M6.5,8c0,0.8,0.7,1.5,1.5,1.5h4c0.8,0,1.5-0.7,1.5-1.5c0-0.8-0.7-1.5-1.5-1.5H8C7.2,6.5,6.5,7.2,6.5,8z"/>
		<path class="st2" d="M6.5,16c0,0.8,0.7,1.5,1.5,1.5h8c0.8,0,1.5-0.7,1.5-1.5c0-0.8-0.7-1.5-1.5-1.5H8C7.2,14.5,6.5,15.2,6.5,16z"
			/>
	</g>
</g>
</svg>
