<?xml version="1.0" encoding="utf-8"?>
<!-- Generator: Adobe Illustrator 19.2.0, SVG Export Plug-In . SVG Version: 6.00 Build 0)  -->
<svg version="1.1" id="Layer_1" xmlns="http://www.w3.org/2000/svg" xmlns:xlink="http://www.w3.org/1999/xlink" x="0px" y="0px"
	 viewBox="0 0 24 24" style="enable-background:new 0 0 24 24;" xml:space="preserve">
<style type="text/css">
	.st0{display:none;}
	.st1{display:inline;}
	.st2{fill:none;stroke:#000000;stroke-linecap:round;stroke-linejoin:round;stroke-miterlimit:10;}
	.st3{fill:none;stroke:#000000;stroke-linejoin:round;stroke-miterlimit:10;}
</style>
<g id="Filled_Icons" class="st0">
	<g class="st1">
		<path d="M9.5,9H6v3h3.5c0.8,0,1.5-0.7,1.5-1.5S10.3,9,9.5,9z"/>
		<path d="M6,16h3.5c0.8,0,1.5-0.7,1.5-1.5S10.3,13,9.5,13H6V16z"/>
		<path d="M16.5,11c-1.2,0-2.2,0.9-2.4,2h4.9C18.7,11.9,17.7,11,16.5,11z"/>
		<path d="M12,0C5.4,0,0,5.4,0,12s5.4,12,12,12s12-5.4,12-12S18.6,0,12,0z M12,14.5c0,1.4-1.1,2.5-2.5,2.5h-4C5.2,17,5,16.8,5,16.5
			v-4v-4C5,8.2,5.2,8,5.5,8h4c1.4,0,2.5,1.1,2.5,2.5c0,0.8-0.4,1.5-1,2C11.6,13,12,13.7,12,14.5z M15,8h3v1h-3C15,9,15,8,15,8z
			 M20,14h-6c0.2,1.1,1.2,2,2.4,2c1,0,1.8-0.6,2.2-1.5l0.9,0.4C19,16.2,17.8,17,16.4,17c-1.9,0-3.4-1.6-3.4-3.5
			c0-1.9,1.6-3.5,3.5-3.5s3.5,1.6,3.5,3.5V14z"/>
	</g>
</g>
<g id="Outline_Icons">
	<g>
		<circle class="st2" cx="12" cy="12" r="11.5"/>
		<g>
			<path class="st3" d="M19.1,14.7c-0.5,1.1-1.4,1.8-2.7,1.8c-1.6,0-2.9-1.3-2.9-3s1.4-3,3-3c1.6,0,3,1.3,3,3h-6"/>
			<line class="st3" x1="15" y1="8.5" x2="18" y2="8.5"/>
		</g>
		<path class="st3" d="M5.5,12.5h4c1.1,0,2-0.9,2-2c0-1.1-0.9-2-2-2h-4V12.5z"/>
		<path class="st3" d="M5.5,16.5h4c1.1,0,2-0.9,2-2c0-1.1-0.9-2-2-2h-4V16.5z"/>
	</g>
</g>
</svg>
