<?xml version="1.0" encoding="utf-8"?>
<!-- Generator: Adobe Illustrator 19.2.0, SVG Export Plug-In . SVG Version: 6.00 Build 0)  -->
<svg version="1.1" id="Layer_1" xmlns="http://www.w3.org/2000/svg" xmlns:xlink="http://www.w3.org/1999/xlink" x="0px" y="0px"
	 viewBox="0 0 24 24" style="enable-background:new 0 0 24 24;" xml:space="preserve">
<style type="text/css">
	.st0{display:none;}
	.st1{display:inline;}
	.st2{fill:none;stroke:#000000;stroke-linejoin:round;stroke-miterlimit:10;}
</style>
<g id="Filled_Icons" class="st0">
	<path class="st1" d="M12,0C5.4,0,0,5.4,0,12s5.4,12,12,12s12-5.4,12-12S18.6,0,12,0z M12,20c-4.4,0-8-3.6-8-8c0-3,1.6-5.5,4-6.9V12
		l0,0l0,0c0,2.2,1.8,4,4,4s4-1.8,4-4s-1.8-4-4-4c-1.2,0-2.3,0.5-3,1.4V4.6C9.9,4.2,10.9,4,12,4c4.4,0,8,3.6,8,8S16.4,20,12,20z
		 M12,9c1.7,0,3,1.3,3,3s-1.3,3-3,3s-3-1.3-3-3S10.3,9,12,9z"/>
</g>
<g id="Outline_Icons">
	<g>
		<circle class="st2" cx="12" cy="12" r="3.5"/>
		<circle class="st2" cx="12" cy="12" r="7.5"/>
		<circle class="st2" cx="12" cy="12" r="11.5"/>
		<line class="st2" x1="8.5" y1="12" x2="8.5" y2="5.4"/>
	</g>
</g>
</svg>
