<?xml version="1.0" encoding="utf-8"?>
<!-- Generator: Adobe Illustrator 19.2.0, SVG Export Plug-In . SVG Version: 6.00 Build 0)  -->
<svg version="1.1" id="Layer_1" xmlns="http://www.w3.org/2000/svg" xmlns:xlink="http://www.w3.org/1999/xlink" x="0px" y="0px"
	 viewBox="0 0 24 24" style="enable-background:new 0 0 24 24;" xml:space="preserve">
<style type="text/css">
	.st0{display:none;}
	.st1{display:inline;}
	.st2{fill:none;stroke:#000000;stroke-linejoin:round;stroke-miterlimit:10;}
</style>
<g id="Filled_Icons" class="st0">
	<g class="st1">
		<g>
			<g>
				<g>
					<path id="SVGID_1_" d="M14.8,22.5c-1.8,0-4.2-1.5-4.2-1.5l2-7c0.6,0.5,2,1.4,4.4,1.4c1.1,0,2.4-0.2,3.8-0.7l-2,6.8
						C17.3,22.2,15.9,22.5,14.8,22.5"/>
				</g>
			</g>
			<g>
				<g>
					<path id="SVGID_3_" d="M8.4,20.3c-1.1-0.8-2.3-1.4-4-1.4c-1,0-2.3,0.2-3.8,0.9l2-7.1c1.6-0.7,3.1-0.9,4-0.9
						c1.6,0,2.9,0.7,3.9,1.4C10.2,14,8.8,18.9,8.4,20.3z"/>
				</g>
			</g>
		</g>
		<g>
			<g>
				<path id="SVGID_5_" d="M12.9,3.1L12.9,3.1c-0.4,1.4-1.7,5.7-2.1,7.1C9.8,9.5,8.6,8.8,6.9,8.8C5.6,8.8,4.3,9.2,3,9.7l2-7
					C6.5,2,7.8,1.8,8.8,1.8C10.1,1.8,11.1,2,12.9,3.1z"/>
			</g>
		</g>
		<g>
			<g>
				<path id="SVGID_7_" d="M17.6,12.5c-1.8,0-3.2-0.6-4.4-1.4c0,0,0,0,0,0L15.2,4c0.6,0.5,2.1,1.5,4.3,1.5c1.1,0,2.4-0.2,3.9-0.9
					l-2,7c0,0,0,0,0,0c0,0,0,0,0,0C20,12.2,18.7,12.5,17.6,12.5"/>
			</g>
		</g>
	</g>
</g>
<g id="Outline_Icons">
	<g>
		<g>
			<g>
				<g>
					<path id="SVGID_9_" class="st2" d="M14.8,22.5c-1.8,0-4.2-1.5-4.2-1.5l2-7c0.6,0.5,2,1.4,4.4,1.4c1.1,0,2.4-0.2,3.8-0.7l-2,6.8
						C17.3,22.2,15.9,22.5,14.8,22.5"/>
				</g>
			</g>
			<g>
				<g>
					<path id="SVGID_11_" class="st2" d="M8.4,20.3c-1.1-0.8-2.3-1.4-4-1.4c-1,0-2.3,0.2-3.8,0.9l2-7.1c1.6-0.7,3.1-0.9,4-0.9
						c1.6,0,2.9,0.7,3.9,1.4C10.2,14,8.8,18.9,8.4,20.3z"/>
				</g>
			</g>
		</g>
		<g>
			<g>
				<path id="SVGID_13_" class="st2" d="M12.9,3.1L12.9,3.1c-0.4,1.4-1.7,5.7-2.1,7.1C9.8,9.5,8.6,8.8,6.9,8.8
					C5.6,8.8,4.3,9.2,3,9.7l2-7C6.5,2,7.8,1.8,8.8,1.8C10.1,1.8,11.1,2,12.9,3.1z"/>
			</g>
		</g>
		<g>
			<g>
				<path id="SVGID_15_" class="st2" d="M17.6,12.5c-1.8,0-3.2-0.6-4.4-1.4c0,0,0,0,0,0L15.2,4c0.6,0.5,2.1,1.5,4.3,1.5
					c1.1,0,2.4-0.2,3.9-0.9l-2,7c0,0,0,0,0,0c0,0,0,0,0,0C20,12.2,18.7,12.5,17.6,12.5"/>
			</g>
		</g>
	</g>
</g>
</svg>
