<?xml version="1.0" encoding="utf-8"?>
<!-- Generator: Adobe Illustrator 19.2.0, SVG Export Plug-In . SVG Version: 6.00 Build 0)  -->
<svg version="1.1" id="Layer_1" xmlns="http://www.w3.org/2000/svg" xmlns:xlink="http://www.w3.org/1999/xlink" x="0px" y="0px"
	 viewBox="0 0 24 24" style="enable-background:new 0 0 24 24;" xml:space="preserve">
<style type="text/css">
	.st0{display:none;}
	.st1{display:inline;}
	.st2{fill:none;stroke:#000000;stroke-linejoin:round;stroke-miterlimit:10;}
</style>
<g id="Filled_Icons" class="st0">
	<path class="st1" d="M23,4.5h-4c-0.6,0-1,0.4-1,1c0,0.6,0.4,1,1,1h1L14.9,17l-2.1-5.1l2.6-5.4H16c0.6,0,1-0.4,1-1c0-0.6-0.4-1-1-1
		h-2.5c-0.6,0-1,0.4-1,1c0,0.5,0.3,0.9,0.8,1l-1.4,3l-1.2-2.9c0.5-0.1,0.8-0.5,0.8-1c0-0.6-0.4-1-1-1H8c-0.6,0-1,0.4-1,1
		c0,0.6,0.4,1,1,1h0.5l2.2,5.3l-2.5,5.2L3.9,6.5H5c0.6,0,1-0.4,1-1c0-0.6-0.4-1-1-1H1c-0.6,0-1,0.4-1,1c0,0.6,0.4,1,1,1h0.7
		l5.4,13.4c0.1,0.4,0.5,0.6,0.9,0.6c0,0,0,0,0,0c0.4,0,0.7-0.2,0.9-0.6l2.7-5.6l2.2,5.5c0.1,0.4,0.5,0.6,0.9,0.6c0,0,0,0,0,0
		c0.4,0,0.7-0.2,0.9-0.6l6.5-13.4H23c0.6,0,1-0.4,1-1C24,4.9,23.6,4.5,23,4.5z"/>
</g>
<g id="Outline_Icons">
	<g>
		<polyline class="st2" points="2.4,5.5 8.1,19.5 14.8,5.5 		"/>
		<line class="st2" x1="6" y1="5.5" x2="0" y2="5.5"/>
		<line class="st2" x1="17" y1="5.5" x2="13" y2="5.5"/>
		<polyline class="st2" points="9.4,5.5 15.1,19.5 21.8,5.5 		"/>
		<line class="st2" x1="11" y1="5.5" x2="7" y2="5.5"/>
		<line class="st2" x1="24" y1="5.5" x2="20" y2="5.5"/>
	</g>
</g>
</svg>
