<?xml version="1.0" encoding="utf-8"?>
<!-- Generator: Adobe Illustrator 19.2.0, SVG Export Plug-In . SVG Version: 6.00 Build 0)  -->
<svg version="1.1" id="Layer_1" xmlns="http://www.w3.org/2000/svg" xmlns:xlink="http://www.w3.org/1999/xlink" x="0px" y="0px"
	 viewBox="0 0 24 24" style="enable-background:new 0 0 24 24;" xml:space="preserve">
<style type="text/css">
	.st0{display:none;}
	.st1{display:inline;}
	.st2{fill:none;stroke:#000000;stroke-linecap:round;stroke-linejoin:round;stroke-miterlimit:10;}
	.st3{fill:none;stroke:#000000;stroke-linejoin:round;stroke-miterlimit:10;}
</style>
<g id="Filled_Icons" class="st0">
	<path class="st1" d="M12,0C5.4,0,0,5.4,0,12s5.4,12,12,12s12-5.4,12-12S18.6,0,12,0z M15.6,11.5h-2.1c0,3,0,7,0,7h-3c0,0,0-4,0-7
		h-2v-2h2V8.3c0-1.1,0.4-2.8,2.6-2.8l2.4,0v2.3c0,0-1.2,0-1.4,0c-0.2,0-0.6,0.1-0.6,0.6v1h2.3L15.6,11.5z"/>
</g>
<g id="Outline_Icons">
	<g>
		<circle class="st2" cx="12" cy="12" r="11.5"/>
		<path class="st3" d="M15.8,9.5h-2.3v-1c0-0.5,0.3-0.6,0.6-0.6c0.2,0,1.4,0,1.4,0V5.5l-2.4,0c-2.3,0-2.6,1.7-2.6,2.8v1.2h-2v2h2
			c0,3,0,7,0,7h3c0,0,0-4,0-7h2.1L15.8,9.5z"/>
	</g>
</g>
</svg>
