<?xml version="1.0" encoding="utf-8"?>
<!-- Generator: Adobe Illustrator 19.2.0, SVG Export Plug-In . SVG Version: 6.00 Build 0)  -->
<svg version="1.1" id="Layer_1" xmlns="http://www.w3.org/2000/svg" xmlns:xlink="http://www.w3.org/1999/xlink" x="0px" y="0px"
	 viewBox="0 0 24 24" style="enable-background:new 0 0 24 24;" xml:space="preserve">
<style type="text/css">
	.st0{display:none;}
	.st1{display:inline;}
	.st2{fill:none;stroke:#000000;stroke-linejoin:round;stroke-miterlimit:10;}
</style>
<g id="Filled_Icons" class="st0">
	<path class="st1" d="M19.6,16c0.3-5.6-3-7-5.1-8.1c0.3,3.5-2,3.7-3.7,3.9c2.8-6.1-1.3-6.5-1.3-11.2C3.4,4.7,3.3,12.3,3.6,15.9
		c-1.9,0.8-3.1,1.9-3.1,3.1c0,2.5,4.9,4.5,11,4.5s11-2,11-4.5C22.5,17.8,21.4,16.8,19.6,16z M11.5,20c-2.9,0-5.3-2.5-5.3-5.5
		c0-1,0.3-2,0.8-2.8c0.3,2.2,1.6,3.9,3.4,4.2c2.4,0.5,4.8-1.6,5.5-4.6c0.6,0.9,1,2,1,3.2C16.8,17.6,14.4,20,11.5,20z"/>
</g>
<g id="Outline_Icons">
	<g>
		<path class="st2" d="M19.6,16c0.3-5.6-3-7-5.1-8.1c0.3,3.5-2,3.7-3.7,3.9c2.8-6.1-1.3-6.5-1.3-11.2C3.4,4.7,3.3,12.3,3.6,15.9
			c-1.9,0.8-3.1,1.9-3.1,3.1c0,2.5,4.9,4.5,11,4.5s11-2,11-4.5C22.5,17.8,21.4,16.8,19.6,16z"/>
		<path class="st2" d="M15.8,11.3c-0.8,3.1-3.2,5.1-5.5,4.6c-1.8-0.4-3.1-2.1-3.4-4.2c-0.5,0.8-0.8,1.8-0.8,2.8c0,3,2.4,5.5,5.3,5.5
			s5.3-2.5,5.3-5.5C16.8,13.3,16.5,12.2,15.8,11.3z"/>
	</g>
</g>
</svg>
