<?xml version="1.0" encoding="utf-8"?>
<!-- Generator: Adobe Illustrator 19.2.0, SVG Export Plug-In . SVG Version: 6.00 Build 0)  -->
<svg version="1.1" id="Layer_1" xmlns="http://www.w3.org/2000/svg" xmlns:xlink="http://www.w3.org/1999/xlink" x="0px" y="0px"
	 viewBox="0 0 24 24" style="enable-background:new 0 0 24 24;" xml:space="preserve">
<style type="text/css">
	.st0{display:none;}
	.st1{display:inline;}
	.st2{fill:none;stroke:#000000;stroke-linejoin:round;stroke-miterlimit:10;}
</style>
<g id="Filled_Icons" class="st0">
	<path class="st1" d="M13.5,10.5v4.2c0,0-3.6,0.2-3.6-5.2s3.4-5.6,3.4-5.6c0.5,4.8,5.4,4.1,5.4,0.5c0-6-15.2-5.5-15.2,4.8
		c0,3.2,0.8,7.3,5.7,8.8c0.1,2.4,0.2,5.5,4.7,5.5s6.6-2.5,6.6-5.5s0-7.5,0-7.5H13.5z M13.9,19.1c-0.7,0.7-1.6,0.8-2.1,0.4
		c-0.5-0.5-0.3-1.4,0.4-2.1c0.7-0.7,1.6-0.8,2.1-0.4C14.8,17.5,14.6,18.4,13.9,19.1z"/>
</g>
<g id="Outline_Icons">
	<g>
		<path class="st2" d="M3.5,9.2c0,3.2,0.8,7.3,5.7,8.8c0.1,2.4,0.2,5.5,4.7,5.5s6.6-2.5,6.6-5.5s0-7.5,0-7.5h-7v4.2
			c0,0-3.6,0.2-3.6-5.2s3.4-5.6,3.4-5.6c0.5,4.8,5.4,4.1,5.4,0.5C18.7-1.6,3.5-1.1,3.5,9.2z"/>
		<ellipse transform="matrix(0.707 -0.7072 0.7072 0.707 -9.0581 14.5932)" class="st2" cx="13.1" cy="18.2" rx="1.7" ry="1.2"/>
	</g>
</g>
</svg>
