<?xml version="1.0" encoding="utf-8"?>
<!-- Generator: Adobe Illustrator 19.2.0, SVG Export Plug-In . SVG Version: 6.00 Build 0)  -->
<svg version="1.1" id="Layer_1" xmlns="http://www.w3.org/2000/svg" xmlns:xlink="http://www.w3.org/1999/xlink" x="0px" y="0px"
	 viewBox="0 0 24 24" style="enable-background:new 0 0 24 24;" xml:space="preserve">
<style type="text/css">
	.st0{display:none;}
	.st1{display:inline;}
	.st2{fill:none;stroke:#000000;stroke-linecap:round;stroke-linejoin:round;stroke-miterlimit:10;}
</style>
<g id="Filled_Icons" class="st0">
	<path class="st1" d="M12,0C5.4,0,0,5.4,0,12s5.4,12,12,12s12-5.4,12-12S18.6,0,12,0z M11,14.5c-0.7,0-1.4-0.2-2.1-0.5l-2.6,1.7
		c-0.1,0.1-0.2,0.1-0.3,0.1c-0.1,0-0.2,0-0.3-0.1c-0.2-0.1-0.2-0.4-0.1-0.6l1.3-2.8c-1.2-1.8-1.1-4.3,0.3-6c1-1.1,2.3-1.8,3.8-1.8
		c1.2,0,2.3,0.4,3.2,1.2c2.1,1.8,2.4,4.9,0.6,7C13.8,13.8,12.4,14.5,11,14.5z M15.9,17.7l-0.4,1.4c-0.1,0.2-0.3,0.4-0.5,0.4
		c0,0,0,0,0,0c-0.2,0-0.4-0.2-0.5-0.4l-0.4-1.5c-1-0.4-1.8-1.3-1.9-2.3c1.3-0.3,2.4-1,3.3-2c0.3-0.3,0.5-0.7,0.7-1
		c0.3,0.1,0.6,0.4,0.9,0.6c0.5,0.6,0.8,1.3,0.8,2C17.9,16.2,17.1,17.3,15.9,17.7z"/>
</g>
<g id="Outline_Icons">
	<g>
		<circle class="st2" cx="12" cy="12" r="11.5"/>
		<g>
			<path class="st2" d="M14.4,12.4c1.6-1.9,1.4-4.7-0.5-6.3C12,4.5,9.1,4.7,7.5,6.6c-1.4,1.6-1.4,4-0.1,5.7L6,15.3l2.8-1.9
				C10.7,14.4,13,14.1,14.4,12.4z"/>
			<path class="st2" d="M17.4,15c0-1.3-1-2.4-2.3-2.4c-1.3,0-2.4,1-2.4,2.3c0,1.1,0.8,2.1,1.8,2.3L15,19l0.5-1.7
				C16.6,17.1,17.4,16.1,17.4,15z"/>
		</g>
	</g>
</g>
</svg>
