<?xml version="1.0" encoding="utf-8"?>
<!-- Generator: Adobe Illustrator 19.2.0, SVG Export Plug-In . SVG Version: 6.00 Build 0)  -->
<svg version="1.1" id="Layer_1" xmlns="http://www.w3.org/2000/svg" xmlns:xlink="http://www.w3.org/1999/xlink" x="0px" y="0px"
	 viewBox="0 0 24 24" style="enable-background:new 0 0 24 24;" xml:space="preserve">
<style type="text/css">
	.st0{display:none;}
	.st1{display:inline;}
	.st2{fill:none;stroke:#000000;stroke-linejoin:round;stroke-miterlimit:10;}
</style>
<g id="Filled_Icons" class="st0">
	<g class="st1">
		<path d="M17.1,19.7c2.9-1.8,4.9-5.1,4.9-8.8c0-5.7-4.6-10.4-10.2-10.4S1.6,5.1,1.6,10.9c0,5.7,4.6,10.4,10.2,10.4
			c0.8,0,1.6-0.1,2.4-0.3c1,1.8,2.4,3,5.6,2.4v-1.8C19.8,21.6,17.8,21.1,17.1,19.7z M17.1,12.2c0,1.7-0.6,3.3-1.4,4.5
			c-1.1-1.2-2.9-2.2-5.1-2.1v2c0,0,1.5,0.1,2.6,1.8c-0.4,0.1-0.8,0.2-1.2,0.2c-2.9,0-5.2-2.9-5.2-6.5V9.6C6.6,6,9,3.1,11.9,3.1
			c2.9,0,5.2,2.9,5.2,6.5L17.1,12.2L17.1,12.2z"/>
	</g>
</g>
<g id="Outline_Icons">
	<g>
		<path class="st2" d="M17.1,19.7c2.9-1.8,4.9-5.1,4.9-8.8c0-5.7-4.6-10.4-10.2-10.4S1.6,5.1,1.6,10.9c0,5.7,4.6,10.4,10.2,10.4
			c0.8,0,1.6-0.1,2.4-0.3c1,1.8,2.4,3,5.6,2.4v-1.8C19.8,21.6,17.8,21.1,17.1,19.7z M17.1,12.2c0,1.7-0.6,3.3-1.4,4.5
			c-1.1-1.2-2.9-2.2-5.1-2.1v0.2v1.8c0,0,1.5,0.1,2.6,1.8c-0.4,0.1-0.8,0.2-1.2,0.2c-2.9,0-5.2-2.9-5.2-6.5V9.6
			C6.6,6,9,3.1,11.9,3.1c2.9,0,5.2,2.9,5.2,6.5L17.1,12.2L17.1,12.2z"/>
	</g>
</g>
</svg>
