<?xml version="1.0" encoding="utf-8"?>
<!-- Generator: Adobe Illustrator 19.2.0, SVG Export Plug-In . SVG Version: 6.00 Build 0)  -->
<svg version="1.1" id="Layer_1" xmlns="http://www.w3.org/2000/svg" xmlns:xlink="http://www.w3.org/1999/xlink" x="0px" y="0px"
	 viewBox="0 0 24 24" style="enable-background:new 0 0 24 24;" xml:space="preserve">
<style type="text/css">
	.st0{display:none;}
	.st1{display:inline;}
	.st2{fill:none;stroke:#000000;stroke-linejoin:round;stroke-miterlimit:10;}
</style>
<g id="Filled_Icons" class="st0">
	<path class="st1" d="M19.5,8c-1.4,0-2.7,0.6-3.5,1.6c-0.8-1-2.1-1.6-3.5-1.6c-1.7,0-3.2,0.9-4,2.3C7.8,8.7,6.2,7.5,4.4,7.5
		c-0.7,0-1.3,0.1-1.9,0.4l0.2-1.4h5.6v-2H1.9c-0.5,0-0.9,0.4-1,0.8L0,10.7c-0.1,0.5,0.1,1,0.6,1.2C1,12,1.3,12,1.5,11.9
		c0.2-0.1,0.4-0.4,0.5-0.7c0.3-1,1.3-1.7,2.4-1.7c1.4,0,2.5,1.1,2.5,2.5c0,1.4-1.1,2.5-2.5,2.5c-1,0-1.8-0.5-2.2-1.4L0.3,14
		c0.8,1.6,2.3,2.5,4,2.5c1.8,0,3.3-1,4-2.5c0.7,1.5,2.3,2.5,4.1,2.5c1.4,0,2.7-0.6,3.5-1.6c0.8,1,2.1,1.6,3.5,1.6
		c2.5,0,4.5-1.9,4.5-4.2C24,9.9,22,8,19.5,8z M12.5,14.5c-1.4,0-2.5-1-2.5-2.2s1.1-2.2,2.5-2.2s2.5,1,2.5,2.2S13.9,14.5,12.5,14.5z
		 M19.5,14.5c-1.4,0-2.5-1-2.5-2.2s1.1-2.2,2.5-2.2s2.5,1,2.5,2.2S20.9,14.5,19.5,14.5z"/>
</g>
<g id="Outline_Icons">
	<g>
		<path class="st2" d="M7.9,5.5H1.4L0.6,11l0,0C1,9.6,2.4,8.5,3.9,8.5c1.9,0,3.5,1.6,3.5,3.5c0,1.9-1.6,3.5-3.5,3.5
			c-1.4,0-2.6-0.8-3.1-2"/>
		<g>
			<ellipse class="st2" cx="11.9" cy="12.2" rx="3.5" ry="3.2"/>
			<ellipse class="st2" cx="18.9" cy="12.2" rx="3.5" ry="3.2"/>
		</g>
	</g>
</g>
</svg>
