<?xml version="1.0" encoding="utf-8"?>
<!-- Generator: Adobe Illustrator 19.2.0, SVG Export Plug-In . SVG Version: 6.00 Build 0)  -->
<svg version="1.1" id="Layer_1" xmlns="http://www.w3.org/2000/svg" xmlns:xlink="http://www.w3.org/1999/xlink" x="0px" y="0px"
	 viewBox="0 0 24 24" style="enable-background:new 0 0 24 24;" xml:space="preserve">
<style type="text/css">
	.st0{display:none;}
	.st1{display:inline;}
	.st2{fill:none;stroke:#000000;stroke-linejoin:round;stroke-miterlimit:10;}
</style>
<g id="Filled_Icons" class="st0">
	<g class="st1">
		<path d="M15.5,12.7C15,13.5,13.5,13,13.5,13V8.8c0,0,0.3-0.5,1.4-0.4C16.2,8.6,16,11.8,15.5,12.7z M23.5,0.5V15
			c0,0.5-0.3,1.1-1,1.4C21,17,2,23.5,2,23.5L6.3,1.9c0,0,0.3-1.4,2.2-1.4H23.5z M18,7.7c-0.9-2.6-4.2-1.4-4.3-0.6l-0.2,0V2.9l-3,0.4
			v10.8c0,0,1.9,1.5,4.6,1.1c2.7-0.4,3.1-2.7,3.1-2.7S18.9,10.3,18,7.7"/>
	</g>
</g>
<g id="Outline_Icons">
	<g>
		<path class="st2" d="M15.5,12.7C15,13.5,13.5,13,13.5,13V8.8c0,0,0.3-0.5,1.4-0.4C16.2,8.6,16,11.8,15.5,12.7z M23.5,0.5v11.6v1.6
			V15c0,0.5-0.3,1.1-1,1.4C21,17,2,23.5,2,23.5L6.3,1.9c0,0,0.3-1.4,2.2-1.4H23.5z M18,7.7c-0.9-2.6-4.2-1.4-4.3-0.6l-0.2,0V2.9
			l-3,0.4v10.8c0,0,1.9,1.5,4.6,1.1c2.7-0.4,3.1-2.7,3.1-2.7S18.9,10.3,18,7.7"/>
	</g>
</g>
</svg>
