<?xml version="1.0" encoding="utf-8"?>
<!-- Generator: Adobe Illustrator 19.2.0, SVG Export Plug-In . SVG Version: 6.00 Build 0)  -->
<svg version="1.1" id="Layer_1" xmlns="http://www.w3.org/2000/svg" xmlns:xlink="http://www.w3.org/1999/xlink" x="0px" y="0px"
	 viewBox="0 0 24 24" style="enable-background:new 0 0 24 24;" xml:space="preserve">
<style type="text/css">
	.st0{display:none;}
	.st1{display:inline;}
	.st2{fill:none;stroke:#000000;stroke-linejoin:round;stroke-miterlimit:10;}
</style>
<g id="Filled_Icons" class="st0">
	<g class="st1">
		<path d="M13.5,0.5v5h5v4h-5V15c0,5,3.5,4.4,6,2.8v4.4c-6.7,3.2-12-0.1-12-4.3V9.5h-3V6.7C5.4,6.4,6.7,6,7.4,5.4
			c0.6-0.6,1.2-1.2,1.6-2c0.4-0.8,0.7-1.7,0.8-2.9H13.5z"/>
	</g>
</g>
<g id="Outline_Icons">
	<g>
		<path class="st2" d="M13.5,0.5v5h5v4h-5V15c0,5,3.5,4.4,6,2.8v4.4c-6.7,3.2-12-0.1-12-4.3V9.5h-3V6.7C5.4,6.4,6.7,6,7.4,5.4
			c0.6-0.6,1.2-1.2,1.6-2c0.4-0.8,0.7-1.7,0.8-2.9H13.5z"/>
	</g>
</g>
</svg>
