<?xml version="1.0" encoding="utf-8"?>
<!-- Generator: Adobe Illustrator 19.2.0, SVG Export Plug-In . SVG Version: 6.00 Build 0)  -->
<svg version="1.1" id="Layer_1" xmlns="http://www.w3.org/2000/svg" xmlns:xlink="http://www.w3.org/1999/xlink" x="0px" y="0px"
	 viewBox="0 0 24 24" style="enable-background:new 0 0 24 24;" xml:space="preserve">
<style type="text/css">
	.st0{display:none;}
	.st1{display:inline;}
	.st2{fill:none;stroke:#000000;stroke-linecap:round;stroke-linejoin:round;stroke-miterlimit:10;}
	.st3{fill:none;stroke:#000000;stroke-linejoin:round;stroke-miterlimit:10;}
</style>
<g id="Filled_Icons" class="st0">
	<g class="st1">
		<path d="M14.4,9.6c-0.2-0.1-0.5-0.1-0.7,0c-0.4,0.1-0.8,0.7-1.5,1.6c-0.4,0.6-1.2,1.6-1.5,1.7c-0.2,0-0.5-0.3-0.7-0.6
			c-0.4-0.4-0.8-0.9-1.4-0.9c-1.3,0-2.8,2.7-3.2,3.9C5.4,15.4,5.7,15.7,6,16c3.1,2.4,10.9,2,12.8-0.8c-0.1-0.2-0.2-0.4-0.2-0.5
			C16.9,11.6,15.1,10,14.4,9.6z"/>
		<path d="M12,0C5.4,0,0,5.4,0,12s5.4,12,12,12s12-5.4,12-12S18.6,0,12,0z M19.2,16.2c-1.2,1.2-3.6,2.3-7.2,2.3
			c-2.3,0-4.8-0.4-6.6-1.8c-0.6-0.4-1.4-1.3-1.4-2C4,11.1,7.6,5,11.7,5h0.5c2.8,0,6.5,2.8,7.8,9.1c0.1,0.3,0.1,0.5,0.1,0.8
			C20,15.4,19.5,15.9,19.2,16.2z"/>
	</g>
</g>
<g id="Outline_Icons">
	<g>
		<circle class="st2" cx="12" cy="12" r="11.5"/>
		<path class="st3" d="M5.7,16.4c1.3,1,3.1,1.5,4.8,1.6c1.1,0.1,2.1,0.1,3.2,0c3.6-0.4,5.7-2.2,5.8-3.1c0-0.2,0-0.5-0.1-0.7
			c-1.3-6.3-4.9-8.7-7.3-8.7h-0.5c-3.6,0-7.2,5.6-7.2,9.2C4.5,15.3,5.3,16,5.7,16.4z"/>
		<path class="st3" d="M5.7,16.4c-0.3-0.4-0.2-0.4-0.1-0.6c0.2-1,1.7-3.6,2.7-3.9c1-0.3,1.4,1.5,2.4,1.4c0.8-0.1,2.5-3,3.2-3.2
			c0.1,0,0.2,0,0.3,0c0.7,0.3,2.4,1.9,4,4.8c0.2,0.4,0.4,0.9,0.3,1.3"/>
	</g>
</g>
</svg>
