<?xml version="1.0" encoding="utf-8"?>
<!-- Generator: Adobe Illustrator 19.2.0, SVG Export Plug-In . SVG Version: 6.00 Build 0)  -->
<svg version="1.1" id="Layer_1" xmlns="http://www.w3.org/2000/svg" xmlns:xlink="http://www.w3.org/1999/xlink" x="0px" y="0px"
	 viewBox="0 0 24 24" style="enable-background:new 0 0 24 24;" xml:space="preserve">
<style type="text/css">
	.st0{display:none;}
	.st1{display:inline;}
	.st2{fill:none;stroke:#000000;stroke-linecap:round;stroke-linejoin:round;stroke-miterlimit:10;}
</style>
<g id="Filled_Icons" class="st0">
	<path class="st1" d="M5.5,4.5h-5v11.4c0,2.5,2.1,4.6,4.6,4.6c6.1,0,12.3,0,18.4,0c0-5.3,0-10.7,0-16h-5v12h-4v-12h-5v12H7.4
		c-1.1,0-1.9-0.9-1.9-2V4.5L5.5,4.5z"/>
</g>
<g id="Outline_Icons">
	<path class="st2" d="M5.5,4.5h-5v11.4c0,2.5,2.1,4.6,4.6,4.6c6.1,0,12.3,0,18.4,0c0-5.3,0-10.7,0-16h-5v12h-4v-12h-5v12H7.4
		c-1.1,0-1.9-0.9-1.9-2V4.5L5.5,4.5z"/>
</g>
</svg>
