<?xml version="1.0" encoding="utf-8"?>
<!-- Generator: Adobe Illustrator 19.2.0, SVG Export Plug-In . SVG Version: 6.00 Build 0)  -->
<svg version="1.1" id="Layer_1" xmlns="http://www.w3.org/2000/svg" xmlns:xlink="http://www.w3.org/1999/xlink" x="0px" y="0px"
	 viewBox="0 0 24 24" style="enable-background:new 0 0 24 24;" xml:space="preserve">
<style type="text/css">
	.st0{display:none;}
	.st1{display:inline;}
	.st2{fill:none;stroke:#000000;stroke-linecap:round;stroke-linejoin:round;stroke-miterlimit:10;}
	.st3{fill:none;stroke:#000000;stroke-linejoin:round;stroke-miterlimit:10;}
</style>
<g id="Filled_Icons" class="st0">
	<path class="st1" d="M12,0C5.4,0,0,5.4,0,12s5.4,12,12,12s12-5.4,12-12S18.6,0,12,0z M15.7,4c1.4,0,2.6,1.2,2.6,2.6
		s-1.2,2.6-2.6,2.6c-1.4,0-2.6-1.2-2.6-2.6C13,5.2,14.2,4,15.7,4z M10.8,4.6c0.6,0,1.1,0.3,1.5,0.7C12.1,5.7,12,6.2,12,6.6
		c0,0.5,0.1,0.9,0.3,1.3c-0.4,0.4-0.9,0.7-1.5,0.7c-1.1,0-2-0.9-2-2C8.8,5.5,9.7,4.6,10.8,4.6z M7.1,5.2c0.3,0,0.6,0.1,0.9,0.3
		C7.8,5.9,7.8,6.2,7.8,6.6S7.8,7.4,8,7.8C7.7,7.9,7.5,8,7.1,8C6.4,8,5.7,7.4,5.7,6.6S6.4,5.2,7.1,5.2z M7,14H5.5
		C5.2,14,5,13.8,5,13.5V11c0-1.1,0.9-2,2-2c0.4,0,0.9,0.1,1.2,0.4C7.5,10,7,11,7,12V14z M11,13.5V17H8.5C8.2,17,8,16.8,8,16.5V12
		c0-1.4,1.1-2.5,2.5-2.5c0.7,0,1.4,0.3,1.8,0.8C11.5,11.1,11,12.3,11,13.5z M19,18.5c0,0.3-0.2,0.5-0.5,0.5h-6
		c-0.3,0-0.5-0.2-0.5-0.5v-5c0-1.9,1.6-3.5,3.5-3.5s3.5,1.6,3.5,3.5V18.5z"/>
</g>
<g id="Outline_Icons">
	<g>
		<circle class="st2" cx="12" cy="12" r="11.5"/>
		<circle class="st3" cx="15.7" cy="6.6" r="2.1"/>
		<circle class="st3" cx="10.8" cy="6.6" r="1.5"/>
		<circle class="st3" cx="7.1" cy="6.6" r="0.9"/>
		<path class="st3" d="M12.5,13.5c0-1.7,1.3-3,3-3c1.7,0,3,1.3,3,3v5h-6V13.5z"/>
		<path class="st3" d="M8.5,12c0-1.1,0.9-2,2-2c1.1,0,2,0.9,2,2v4.5h-4V12z"/>
		<path class="st3" d="M5.5,11c0-0.8,0.7-1.5,1.5-1.5s1.5,0.7,1.5,1.5v2.5h-3V11z"/>
	</g>
</g>
</svg>
