<?xml version="1.0" encoding="utf-8"?>
<!-- Generator: Adobe Illustrator 19.2.0, SVG Export Plug-In . SVG Version: 6.00 Build 0)  -->
<svg version="1.1" id="Layer_1" xmlns="http://www.w3.org/2000/svg" xmlns:xlink="http://www.w3.org/1999/xlink" x="0px" y="0px"
	 viewBox="0 0 24 24" style="enable-background:new 0 0 24 24;" xml:space="preserve">
<style type="text/css">
	.st0{display:none;}
	.st1{display:inline;}
	.st2{fill:none;stroke:#000000;stroke-linecap:round;stroke-linejoin:round;stroke-miterlimit:10;}
	.st3{fill:none;stroke:#000000;stroke-linejoin:round;stroke-miterlimit:10;}
</style>
<g id="Filled_Icons" class="st0">
	<path class="st1" d="M12,0C5.4,0,0,5.4,0,12s5.4,12,12,12s12-5.4,12-12S18.6,0,12,0z M7,19H6v-5h1V19z M9,19H8v-8h1V19z M11,19h-1
		v-6h1V19z M13,19h-1V9h1V19z M15,19h-1v-8h1V19z M17,19h-1V7h1V19z M17,6H6V5h11V6z"/>
</g>
<g id="Outline_Icons">
	<g>
		<circle class="st2" cx="12" cy="12" r="11.5"/>
		<line class="st3" x1="6.5" y1="14" x2="6.5" y2="19"/>
		<line class="st3" x1="8.5" y1="11" x2="8.5" y2="19"/>
		<line class="st3" x1="10.5" y1="13" x2="10.5" y2="19"/>
		<line class="st3" x1="12.5" y1="9" x2="12.5" y2="19"/>
		<line class="st3" x1="14.5" y1="11" x2="14.5" y2="19"/>
		<line class="st3" x1="16.5" y1="7" x2="16.5" y2="19"/>
		<line class="st3" x1="6" y1="5.5" x2="17" y2="5.5"/>
	</g>
</g>
</svg>
