<?xml version="1.0" encoding="utf-8"?>
<!-- Generator: Adobe Illustrator 19.2.0, SVG Export Plug-In . SVG Version: 6.00 Build 0)  -->
<svg version="1.1" id="Layer_1" xmlns="http://www.w3.org/2000/svg" xmlns:xlink="http://www.w3.org/1999/xlink" x="0px" y="0px"
	 viewBox="0 0 24 24" style="enable-background:new 0 0 24 24;" xml:space="preserve">
<style type="text/css">
	.st0{display:none;}
	.st1{display:inline;}
	.st2{fill:none;stroke:#000000;stroke-linecap:round;stroke-linejoin:round;stroke-miterlimit:10;}
</style>
<g id="Filled_Icons" class="st0">
	<g class="st1">
		<path d="M13.5,9H12v5h1.5c0.8,0,1.5-0.7,1.5-1.5v-2C15,9.7,14.3,9,13.5,9z"/>
		<path d="M20,12h-2v2h2c0.6,0,1-0.4,1-1S20.6,12,20,12z"/>
		<path d="M12,0C5.4,0,0,5.4,0,12s5.4,12,12,12s12-5.4,12-12S18.6,0,12,0z M4,14.5C4,14.8,3.8,15,3.5,15S3,14.8,3,14.5v-6
			C3,8.2,3.2,8,3.5,8S4,8.2,4,8.5V14.5z M10,14.5c0,0.3-0.2,0.5-0.5,0.5S9,14.8,9,14.5v-2.8l-1,3C8,14.9,7.8,15,7.6,15c0,0,0,0,0,0
			c-0.2,0-0.4-0.1-0.5-0.3L6,11.5v3C6,14.8,5.8,15,5.5,15S5,14.8,5,14.5v-6C5,8.3,5.2,8,5.4,8C5.7,8,5.9,8.1,6,8.3l1.6,4.6L9,8.3
			C9.1,8.1,9.3,8,9.6,8C9.8,8,10,8.3,10,8.5V14.5z M16,12.5c0,1.4-1.1,2.5-2.5,2.5h-2c-0.3,0-0.5-0.2-0.5-0.5v-6
			C11,8.2,11.2,8,11.5,8h2c1.4,0,2.5,1.1,2.5,2.5V12.5z M20,15h-2.5c-0.3,0-0.5-0.2-0.5-0.5v-3v-3C17,8.2,17.2,8,17.5,8
			S18,8.2,18,8.5V11h2c1.1,0,2,0.9,2,2S21.1,15,20,15z"/>
	</g>
</g>
<g id="Outline_Icons">
	<g>
		<circle class="st2" cx="12" cy="12" r="11.5"/>
		<line class="st2" x1="3.5" y1="8.5" x2="3.5" y2="14.5"/>
		<polyline class="st2" points="5.5,14.5 5.5,8.5 7.6,14.5 9.5,8.5 9.5,14.5 		"/>
		<path class="st2" d="M15.5,10.5c0-1.1-0.9-2-2-2h-2v6h2c1.1,0,2-0.9,2-2V10.5z"/>
		<line class="st2" x1="17.5" y1="11.5" x2="17.5" y2="8.5"/>
		<path class="st2" d="M17.5,14.5H20c0.8,0,1.5-0.7,1.5-1.5s-0.7-1.5-1.5-1.5h-2.5V14.5z"/>
	</g>
</g>
</svg>
