<?xml version="1.0" encoding="utf-8"?>
<!-- Generator: Adobe Illustrator 19.2.0, SVG Export Plug-In . SVG Version: 6.00 Build 0)  -->
<svg version="1.1" id="Layer_1" xmlns="http://www.w3.org/2000/svg" xmlns:xlink="http://www.w3.org/1999/xlink" x="0px" y="0px"
	 viewBox="0 0 24 24" style="enable-background:new 0 0 24 24;" xml:space="preserve">
<style type="text/css">
	.st0{display:none;}
	.st1{display:inline;}
	.st2{fill:none;stroke:#000000;stroke-linejoin:round;stroke-miterlimit:10;}
</style>
<g id="Filled_Icons" class="st0">
	<path class="st1" d="M20.6,19.8c0.3-0.9,0.6-1.7,0.2-2.4c-0.2-0.4-0.7-0.7-1.4-0.8c-0.2,0-0.3,0-0.4,0.1c-0.7,0.6-0.7,1.3-0.7,1.8
		c0,0.4,0,0.7-0.2,1c-0.4,0.9-2,1.4-4.6,1.6c-0.6,0-1.4,0.1-2.2,0.1c-2.3,0-3-0.5-3.1-0.8c-0.5-0.9-0.2-2.6-0.2-3.8
		c0-1.3-0.1-2.6,0.1-3.7c0.8,0,1.6-0.1,2.4-0.1c0.7-0.1,1.4-0.1,2-0.1c0.9,0,1.5,0.1,2,0.4c0.3,0.2,0.4,0.5,0.6,0.9
		c0.2,0.5,0.4,1.2,1.3,1.5c0.1,0,0.2,0,0.3,0c1.1-0.3,0.9-1.4,0.8-2.2c0-0.2-0.1-0.5-0.1-0.7c0-0.7,0-1.6,0-2.4c0-0.2,0-0.4,0.1-0.6
		c0.1-0.7,0.1-1.4-0.3-1.9c-0.2-0.3-0.6-0.4-1-0.4c-0.1,0-0.2,0-0.3,0.1c-0.6,0.5-0.7,1.1-0.8,1.6C15,9.5,14.9,9.8,14.6,10
		c-0.1,0.1-0.4,0.2-1.2,0.3C12,10.4,9.5,10.3,8,10.1C7.8,8.1,7.8,5.6,8,3.5C8.7,3,10.5,3,11.2,3h0.2c3.8,0,5.5,0.5,5.8,1
		c0.1,0.1,0.1,0.5,0.2,0.7c0.1,0.6,0.1,1.3,0.9,1.5c0.4,0.1,0.8,0,1.1-0.3c0.5-0.5,0.4-1.4,0.3-2.3c0-0.3-0.1-0.7,0-0.9
		c0-0.3,0.1-0.5,0.1-0.8c0.1-0.4,0.2-0.8,0.1-1.2c0-0.1,0-0.1-0.1-0.2C19.5,0.3,19.1,0,18.6,0c-0.2,0-0.4,0-0.6,0.1
		c-0.1,0-0.1,0-0.2,0C16.1,0.3,14,0.4,11,0.4c-1.4,0-2.7,0-4.1,0c-1.2,0-2.4,0-3.4,0c-0.1,0-0.2,0-0.3,0c-0.2,0-0.3,0-0.5,0
		C2,0.3,1.6,0.5,1.3,0.9C1.3,1,1.3,1,1.2,1.1C1,2.4,2.1,2.6,2.8,2.7C3.1,2.8,3.5,2.9,3.6,3c0.1,0.2,0.4,1,0.5,1.7
		c0.1,1.2,0.1,2.8,0,4.6c0,0.9,0,1.9,0,2.8c0,1,0,2,0.1,3c0,1.8,0.1,3.4,0,4.5C4,20.2,3.7,21,3.6,21.1c-0.2,0.2-0.6,0.2-1,0.3
		C2,21.5,1.4,21.5,1,22c-0.2,0.3-0.3,0.7-0.3,1.2c0,0.1,0.1,0.3,0.2,0.4c0.4,0.2,0.8,0.4,1.3,0.4c0.3,0,0.7,0,1-0.1
		c0.3,0,0.5-0.1,0.8-0.1c1.3-0.1,2.7,0,4.2,0c1.6,0,3.2,0,4.8,0c0.8,0,1.5,0,2.2,0c0.8,0,1.5,0,2,0.1c0.2,0,0.4,0.1,0.7,0.1
		c0.3,0.1,0.6,0.2,0.9,0.2c0.3,0,0.6-0.1,0.9-0.2c0,0,0.1-0.1,0.1-0.1c0.4-0.6,0.4-1.2,0.3-1.8c0-0.3,0-0.6,0-0.8
		C20.3,20.7,20.4,20.2,20.6,19.8z"/>
</g>
<g id="Outline_Icons">
	<g>
		<path class="st2" d="M4.1,23.2c1.9-0.1,4.3,0,6.6,0c2.4,0,4.8-0.2,6.7,0c0.8,0.1,1.5,0.5,2.1,0.1c0.5-0.6,0.1-1.5,0.2-2.3
			c0.2-1.6,1.7-3.5-0.5-4c-0.9,0.8-0.3,1.6-0.8,2.7c-0.6,1.3-2.9,1.7-5.1,1.9c-1.9,0.1-5.1,0.3-5.8-0.9c-0.6-1.1-0.2-2.7-0.2-4.1
			c0-1.5-0.2-3,0.2-4.2c2.4,0.2,5.4-0.8,7.1,0.2c1.1,0.7,0.5,2,1.8,2.4c0.9-0.2,0.4-1.4,0.4-2.4c0-0.7,0-1.7,0-2.4
			c0-1.1,0.5-2.3-0.7-2.3c-0.9,0.7-0.2,1.9-1.2,2.6c-0.3,0.2-1,0.3-1.4,0.4c-1.8,0.2-4.5,0-6-0.2c-0.2-2.1-0.2-5.1,0-7.2
			c0.8-0.8,2.6-0.8,3.9-0.8c2.2,0,5.6,0.2,6.2,1.3c0.4,0.6,0.1,1.8,0.7,2c1.3,0.3,0.7-2,0.7-3c0-0.8,0.4-1.3,0.2-1.9
			c-0.4-0.6-1-0.3-1.4-0.2c-4,0.5-10.1,0.2-14.3,0.2C3,0.8,2.1,0.6,1.7,1.2C1.5,2.5,3.3,2,4,2.7c0.2,0.2,0.5,1.3,0.6,2
			c0.2,1.9,0,4.7,0,7.5c0,2.9,0.2,5.8,0,7.6c-0.1,0.6-0.4,1.6-0.6,1.7c-0.8,0.8-2.9-0.1-2.7,1.6C2,23.6,3.1,23.3,4.1,23.2"/>
	</g>
</g>
</svg>
