<?xml version="1.0" encoding="utf-8"?>
<!-- Generator: Adobe Illustrator 19.2.0, SVG Export Plug-In . SVG Version: 6.00 Build 0)  -->
<svg version="1.1" id="Layer_1" xmlns="http://www.w3.org/2000/svg" xmlns:xlink="http://www.w3.org/1999/xlink" x="0px" y="0px"
	 viewBox="0 0 24 24" style="enable-background:new 0 0 24 24;" xml:space="preserve">
<style type="text/css">
	.st0{display:none;}
	.st1{display:inline;}
	.st2{fill:none;stroke:#000000;stroke-linejoin:round;stroke-miterlimit:10;}
</style>
<g id="Filled_Icons" class="st0">
	<g class="st1">
		<path d="M0.5,7.9l0.9,1.2c0,0,1.9-1.5,2.6-0.8C4.6,9.1,7.1,18.3,7.9,20c0.7,1.5,2.7,3.4,4.8,2c2.2-1.4,9.3-7.5,10.6-14.8
			c1.3-7.2-8.6-5.7-9.7,0.6c2.6-1.6,4,0.6,2.7,3.2c-1.3,2.5-2.6,4.1-3.2,4.1c-0.6,0-1.1-1.7-1.9-4.6c-0.8-3-0.8-8.5-3.9-7.9
			C4.4,3.2,0.5,7.9,0.5,7.9z"/>
	</g>
</g>
<g id="Outline_Icons">
	<g>
		<path class="st2" d="M0.5,7.9l0.9,1.2c0,0,1.9-1.5,2.6-0.8C4.6,9.1,7.1,18.3,7.9,20c0.7,1.5,2.7,3.4,4.8,2
			c2.2-1.4,9.3-7.5,10.6-14.8c1.3-7.2-8.6-5.7-9.7,0.6c2.6-1.6,4,0.6,2.7,3.2c-1.3,2.5-2.6,4.1-3.2,4.1c-0.6,0-1.1-1.7-1.9-4.6
			c-0.8-3-0.8-8.5-3.9-7.9C4.4,3.2,0.5,7.9,0.5,7.9z"/>
	</g>
</g>
</svg>
