<?xml version="1.0" encoding="utf-8"?>
<!-- Generator: Adobe Illustrator 19.2.0, SVG Export Plug-In . SVG Version: 6.00 Build 0)  -->
<svg version="1.1" id="Layer_1" xmlns="http://www.w3.org/2000/svg" xmlns:xlink="http://www.w3.org/1999/xlink" x="0px" y="0px"
	 viewBox="0 0 24 24" style="enable-background:new 0 0 24 24;" xml:space="preserve">
<style type="text/css">
	.st0{display:none;}
	.st1{display:inline;}
	.st2{fill:none;stroke:#000000;stroke-linecap:round;stroke-linejoin:round;stroke-miterlimit:10;}
	.st3{fill:none;stroke:#000000;stroke-linejoin:round;stroke-miterlimit:10;}
</style>
<g id="Filled_Icons" class="st0">
	<path class="st1" d="M12,0C5.4,0,0,5.4,0,12s5.4,12,12,12s12-5.4,12-12S18.6,0,12,0z M13,5.5c1.2,0,2.3,0.2,3.2,0.6l-5.7,5.2L7.2,8
		C8.4,6.5,10.6,5.5,13,5.5z M6.6,8.8L9.8,12l-2.4,2.2c-0.9-0.9-1.4-2-1.4-3.2C6,10.2,6.2,9.5,6.6,8.8z M13,16.4
		c-0.9,0-1.7-0.1-2.5-0.3l-4,1.8l1.5-2.9l4.9-4.5l4.5,4.7C16.3,15.9,14.7,16.4,13,16.4z M18.3,14.5l-4.6-4.8l3.4-3.1
		c1.7,1,2.8,2.6,2.8,4.3C20,12.3,19.4,13.5,18.3,14.5z"/>
</g>
<g id="Outline_Icons">
	<g>
		<circle class="st2" cx="12" cy="12" r="11.5"/>
		<g>
			<g>
				<path class="st3" d="M20,10.9c0,3-3.1,5.4-7,5.4c-0.9,0-1.7-0.1-2.5-0.3l-4,1.8l1.6-3c-1.3-1-2.1-2.4-2.1-3.9c0-3,3.1-5.4,7-5.4
					S20,8,20,10.9z"/>
			</g>
			<line class="st3" x1="8" y1="14.8" x2="16.9" y2="6.7"/>
			<line class="st3" x1="6.9" y1="8.2" x2="10.9" y2="12.2"/>
			<line class="st3" x1="13.4" y1="9.9" x2="18" y2="14.7"/>
		</g>
	</g>
</g>
</svg>
