<?xml version="1.0" encoding="utf-8"?>
<!-- Generator: Adobe Illustrator 19.2.0, SVG Export Plug-In . SVG Version: 6.00 Build 0)  -->
<svg version="1.1" id="Layer_1" xmlns="http://www.w3.org/2000/svg" xmlns:xlink="http://www.w3.org/1999/xlink" x="0px" y="0px"
	 viewBox="0 0 24 24" style="enable-background:new 0 0 24 24;" xml:space="preserve">
<style type="text/css">
	.st0{display:none;}
	.st1{display:inline;}
	.st2{fill:none;stroke:#000000;stroke-linecap:round;stroke-linejoin:round;stroke-miterlimit:10;}
	.st3{fill:none;stroke:#000000;stroke-linejoin:round;stroke-miterlimit:10;}
</style>
<g id="Filled_Icons" class="st0">
	<path class="st1" d="M12,0C5.4,0,0,5.4,0,12s5.4,12,12,12s12-5.4,12-12S18.6,0,12,0z M9.9,9.2c0.2-0.2,0.5-0.2,0.7,0l1.7,1.6
		l-1.9,2.1c0-0.2,0.1-0.5,0.1-0.7c0-1-0.4-1.9-1-2.6L9.9,9.2z M15.6,14.9l-5,5C10.5,20,10.4,20,10.3,20S10,20,9.9,19.9l-4-4.1
		C6.1,15.9,6.4,16,6.7,16c0.2,0,0.5,0,0.7-0.1l2.8,2.4l5-4.3l0.3,0.3C15.8,14.4,15.8,14.7,15.6,14.9z M18.5,9.8l-8.2,7.1l-2.5-2.2
		c-0.3,0.1-0.6,0.2-1,0.2C5.2,15,4,13.7,4,12.2s1.2-2.7,2.7-2.7s2.7,1.2,2.7,2.7c0,0.4-0.1,0.7-0.2,1.1l1,1.3l8.2-9V9.8z"/>
</g>
<g id="Outline_Icons">
	<g>
		<circle class="st2" cx="12" cy="12" r="11.5"/>
		<g>
			<polyline class="st3" points="9.1,10.8 10.3,9.6 12.7,11.9 			"/>
			<polyline class="st3" points="14.2,13.5 15.3,14.5 10.3,19.5 5.3,14.5 			"/>
			<path class="st3" d="M18.5,5.5l-8.2,9l-1-1.3c0.1-0.3,0.2-0.7,0.2-1.1c0-1.5-1.2-2.7-2.7-2.7S4,10.7,4,12.2C4,13.7,5.2,15,6.7,15
				c0.3,0,0.7-0.1,1-0.2l2.5,2.2l8.2-7.1V5.5z"/>
		</g>
	</g>
</g>
</svg>
