<?xml version="1.0" encoding="utf-8"?>
<!-- Generator: Adobe Illustrator 19.2.0, SVG Export Plug-In . SVG Version: 6.00 Build 0)  -->
<svg version="1.1" id="Layer_1" xmlns="http://www.w3.org/2000/svg" xmlns:xlink="http://www.w3.org/1999/xlink" x="0px" y="0px"
	 viewBox="0 0 24 24" style="enable-background:new 0 0 24 24;" xml:space="preserve">
<style type="text/css">
	.st0{display:none;}
	.st1{display:inline;}
	.st2{fill:none;stroke:#000000;stroke-linejoin:round;stroke-miterlimit:10;}
</style>
<g id="Filled_Icons" class="st0">
	<path class="st1" d="M11.5,17.9c1.5,0-0.5,5.5,3.5,5.5c2.2,0,5.7-2.5,3.5-6.5c-0.7-1.3,3.9-2.5,3.9-4.4c-1.1,0.5-4.1,1.8-8.1,1.8
		c-2.3,0-2.8,1.1-2.8,1.1s-0.5-1.1-2.8-1.1c-4,0-7.2-1.4-8.3-1.9c0,1.9,4.8,3.1,4,4.4c-2.2,4,1.3,6.5,3.5,6.5
		C12,23.4,10,17.9,11.5,17.9z"/>
	<g class="st1">
		<path d="M11.5,11.4c-0.5,0.9-1.4,1.6-2.4,1.9c1.1,0.1,1.9,0.3,2.5,0.7c0.5-0.3,1.3-0.6,2.4-0.7C12.9,13.1,12,12.3,11.5,11.4z"/>
		<path d="M18.5,0.5h-14c-1.1,0-2,0.9-2,2v9.7c1,0.4,2.3,0.7,3.9,1C5,12.5,4,11.1,4,9.5c0-2.2,1.8-4,4-4c1.5,0,2.8,0.9,3.5,2.1
			c0.7-1.2,2-2.1,3.5-2.1c2.2,0,4,1.8,4,4c0,1.6-1,3-2.4,3.7c1.6-0.2,2.9-0.6,3.9-1V2.5C20.5,1.4,19.6,0.5,18.5,0.5z"/>
	</g>
	<circle class="st1" cx="15" cy="9.5" r="3"/>
	<circle class="st1" cx="8" cy="9.5" r="3"/>
</g>
<g id="Outline_Icons">
	<g>
		<path class="st2" d="M11.6,18c1.5,0-0.5,5.5,3.5,5.5c2.2,0,5.7-2.5,3.5-6.5c-0.7-1.3,3.9-2.5,3.9-4.4c-1.1,0.5-4.1,1.8-8.1,1.8
			c-2.3,0-2.8,1.1-2.8,1.1s-0.5-1.1-2.8-1.1c-4,0-7.2-1.4-8.3-1.9c0,1.9,4.8,3.1,4,4.4c-2.2,4,1.3,6.5,3.5,6.5
			C12.1,23.5,10.1,18,11.6,18z"/>
		<path class="st2" d="M20.6,13.3V2.6c0-1.1-0.9-2-2-2h-14c-1.1,0-2,0.9-2,2v10.8"/>
		<circle class="st2" cx="15.1" cy="9.6" r="3"/>
		<circle class="st2" cx="8.1" cy="9.6" r="3"/>
	</g>
</g>
</svg>
