<?xml version="1.0" encoding="utf-8"?>
<!-- Generator: Adobe Illustrator 19.2.0, SVG Export Plug-In . SVG Version: 6.00 Build 0)  -->
<svg version="1.1" id="Layer_1" xmlns="http://www.w3.org/2000/svg" xmlns:xlink="http://www.w3.org/1999/xlink" x="0px" y="0px"
	 viewBox="0 0 24 24" style="enable-background:new 0 0 24 24;" xml:space="preserve">
<style type="text/css">
	.st0{display:none;}
	.st1{display:inline;}
	.st2{fill:none;stroke:#000000;stroke-linejoin:round;stroke-miterlimit:10;}
</style>
<g id="Filled_Icons" class="st0">
	<path class="st1" d="M20.8,18.2c-0.2-0.1-0.5-0.1-0.8-0.1c0-0.3,0-0.7,0-1l0-9.9c0-0.5-0.1-2.8,0.2-3.2c0.1-0.1,0.3-0.2,0.5-0.2
		c0.5-0.2,1-0.4,1.2-0.9C22.2,2,21.9,1.4,21.7,1c-0.5-0.7-1.4-1-2.8-1c-2.1,0-5.2,0.9-5.5,2.5c-0.1,0.6,0.1,1.4,1.8,2.1
		c0.1,0.1,0.3,0.1,0.5,0.1c0.1,0,0.3,0,0.4,0.1c0,0,0,6.4,0,6.4l-7.4,1.2c-0.2-1,0-6.5,0-6.8C8.7,5.5,9,5.4,9.2,5.4
		c0.5-0.1,1.1-0.3,1.3-0.7C11,3.9,11,3.2,10.7,2.7C10.3,2,9.4,1.6,7.9,1.6C5.6,1.6,2.3,2.6,2,4.1C1.8,4.8,2.4,5.5,3.6,6
		C3.8,6.1,4,6.1,4.2,6.2c0.1,0,0.2,0,0.3,0c0,0,0,2.6,0.1,4.7C4.6,14,4.6,16.6,4.9,19C5,19.8,5,20.2,5,20.3c-0.1,0-0.2,0.1-0.3,0.1
		c-0.4,0.2-1.5,0.5-1.6,1.4c-0.1,0.5,0.1,1,0.4,1.4C4.1,23.9,5.2,24,6,24c1.9,0,4.8-0.8,4.9-2.2c0.1-0.9-0.7-1.8-1.4-2.1
		c-0.1,0-0.3,0-0.5,0c-0.1,0-0.3,0-0.4,0c-0.1-0.7-0.2-3-0.1-3.3c0.5-0.5,5.1-1.5,7-1.5c0.1,0,0.2,0,0.2,0c0,0,0.1,3.8,0.1,3.8
		c-0.1,0-0.3,0.1-0.4,0.1c-0.2,0-0.4,0-0.6,0.1c-0.3,0.1-0.9,0.4-1,1.1c-0.1,0.7,0,1.3,0.4,1.7c0.5,0.5,1.3,0.8,2.4,0.8
		c2,0,5.3-1.1,5.6-2.7C22.4,19.4,22.2,18.7,20.8,18.2z"/>
</g>
<g id="Outline_Icons">
	<g>
		<path class="st2" d="M21.4,2.8c-0.1,0.4-1.3,0.6-1.6,1c-0.4,0.6-0.3,2.3-0.3,3.5v9.5c0,0.5-0.1,1.6,0.1,1.8c0.2,0.2,0.8,0.1,1,0.1
			c4.9,1.6-6.8,5.8-6.2,1.4c0.1-0.3,0.3-0.5,0.7-0.7c0.3-0.1,0.9,0,1.1-0.3c0.3-0.3,0.1-1.5,0-2.2c0-0.1,0-2.2,0-2.3
			c-0.4-0.5-7.5,0.7-8.1,1.6c-0.3,0.4,0,3.8,0.1,3.8c0.2,0.3,1,0.2,1.2,0.2c0.5,0.2,1.1,0.9,1,1.5c-0.2,1.5-7.2,2.9-6.9,0
			c0.1-0.5,0.8-0.8,1.3-1c0.2-0.1,0.5-0.1,0.6-0.2c0.2-0.2,0.1-1.2,0-1.8c-0.2-1.7-0.2-3.8-0.3-5.5C5.1,11.3,5,9.8,5,7.7
			C5,7.1,5,6.1,4.9,5.9C4.7,5.7,4.1,5.7,3.8,5.5c-5.7-2.5,9-5.6,6.3-1.2C9.7,4.9,8.5,4.8,8.2,5.3C8.1,5.5,8.1,6.2,8.1,6.8
			c0,1.8-0.2,3.1-0.1,4.9c0,0.3,0.1,1.1,0.3,1.2l8-1.3c0.4-0.3,0.1-1.3,0.1-1.7c-0.2-1.4-0.1-2.4,0-3.7c0.1-0.5,0.2-1.5,0-1.8
			c-0.2-0.2-0.8-0.2-1-0.3C9.4,1.7,22.9-1.9,21.4,2.8z"/>
	</g>
</g>
</svg>
