<?xml version="1.0" encoding="utf-8"?>
<!-- Generator: Adobe Illustrator 19.2.0, SVG Export Plug-In . SVG Version: 6.00 Build 0)  -->
<svg version="1.1" id="Layer_1" xmlns="http://www.w3.org/2000/svg" xmlns:xlink="http://www.w3.org/1999/xlink" x="0px" y="0px"
	 viewBox="0 0 24 24" style="enable-background:new 0 0 24 24;" xml:space="preserve">
<style type="text/css">
	.st0{display:none;}
	.st1{display:inline;}
	.st2{fill:none;stroke:#000000;stroke-linecap:round;stroke-linejoin:round;stroke-miterlimit:10;}
	.st3{fill:none;stroke:#000000;stroke-linejoin:round;stroke-miterlimit:10;}
</style>
<g id="Filled_Icons" class="st0">
	<g class="st1">
		<path d="M12,8.9v1c1.4,0,2.6,1.2,2.6,2.6h1C15.6,10.5,14,8.9,12,8.9z"/>
		<path d="M12,0C5.4,0,0,5.4,0,12s5.4,12,12,12s12-5.4,12-12S18.6,0,12,0z M5.5,6.5h2v1h-2V6.5z M5.5,16.5c-0.6,0-1-0.4-1-1v-6
			c0-0.6,0.4-1,1-1h2.7c-1.1,1-1.7,2.4-1.7,4s0.7,3,1.7,4H5.5z M12,17c-2.5,0-4.5-2-4.5-4.5C7.5,10,9.5,8,12,8c2.5,0,4.5,2,4.5,4.5
			S14.5,17,12,17z M19.5,15.5c0,0.6-0.4,1-1,1h-2.7c1.1-1,1.7-2.4,1.7-4s-0.7-3-1.7-4h2.7c0.6,0,1,0.4,1,1V15.5z"/>
	</g>
</g>
<g id="Outline_Icons">
	<g>
		<circle class="st2" cx="12" cy="12" r="11.5"/>
		<g>
			<circle class="st3" cx="12" cy="12.5" r="4.5"/>
			<path class="st3" d="M12,9.4c1.7,0,3.1,1.4,3.1,3.1"/>
		</g>
		<path class="st3" d="M14.3,16.5h4.2c0.6,0,1-0.4,1-1v-6c0-0.6-0.4-1-1-1h-4.2"/>
		<path class="st3" d="M9.7,8.5H5.5c-0.6,0-1,0.4-1,1v6c0,0.6,0.4,1,1,1h4.2"/>
		<rect x="5.5" y="7.5" class="st3" width="2" height="1"/>
	</g>
</g>
</svg>
