<?xml version="1.0" encoding="utf-8"?>
<!-- Generator: Adobe Illustrator 19.2.0, SVG Export Plug-In . SVG Version: 6.00 Build 0)  -->
<svg version="1.1" id="Layer_1" xmlns="http://www.w3.org/2000/svg" xmlns:xlink="http://www.w3.org/1999/xlink" x="0px" y="0px"
	 viewBox="0 0 24 24" style="enable-background:new 0 0 24 24;" xml:space="preserve">
<style type="text/css">
	.st0{display:none;}
	.st1{display:inline;}
	.st2{fill:none;stroke:#000000;stroke-linecap:round;stroke-linejoin:round;stroke-miterlimit:10;}
	.st3{fill:none;stroke:#000000;stroke-linejoin:round;stroke-miterlimit:10;}
</style>
<g id="Filled_Icons" class="st0">
	<path class="st1" d="M12,0C5.4,0,0,5.4,0,12s5.4,12,12,12s12-5.4,12-12S18.6,0,12,0z M12,20.5c-0.1-0.1-0.4-1.1-0.5-1.3
		c-2.3-5.4-7.4-8.3-5.8-12c0.8-1.9,4-3,6.3,1c1.7-3.9,5.3-3.1,6.2-1.1C20.2,10.8,13.1,15.4,12,20.5z"/>
</g>
<g id="Outline_Icons">
	<g>
		<circle class="st2" cx="12" cy="12" r="11.5"/>
		<g>
			<path class="st3" d="M12,8.2c-2.3-4-5.5-3-6.3-1c-1.5,3.7,3.5,6.6,5.8,12c0.1,0.1,0.4,1.1,0.5,1.3c1.1-5.1,8.2-9.7,6.2-13.3
				C17.2,5.1,13.7,4.3,12,8.2z"/>
		</g>
	</g>
</g>
</svg>
