<?xml version="1.0" encoding="utf-8"?>
<!-- Generator: Adobe Illustrator 19.2.0, SVG Export Plug-In . SVG Version: 6.00 Build 0)  -->
<svg version="1.1" id="Layer_1" xmlns="http://www.w3.org/2000/svg" xmlns:xlink="http://www.w3.org/1999/xlink" x="0px" y="0px"
	 viewBox="0 0 24 24" style="enable-background:new 0 0 24 24;" xml:space="preserve">
<style type="text/css">
	.st0{display:none;}
	.st1{display:inline;}
	.st2{fill:none;stroke:#000000;stroke-linecap:round;stroke-linejoin:round;stroke-miterlimit:10;}
	.st3{fill:none;stroke:#000000;stroke-linejoin:round;stroke-miterlimit:10;}
</style>
<g id="Filled_Icons" class="st0">
	<path class="st1" d="M12,0C5.4,0,0,5.4,0,12s5.4,12,12,12s12-5.4,12-12S18.6,0,12,0z M13,6.7c0.3-1.1,1.1-1.8,1.9-1.6
		c0.2,0,1.3,0.9,0.9,2.3c-0.3,1.1-1.1,1.8-1.9,1.6C13.1,8.8,12.7,7.8,13,6.7z M10.2,4.7c0.8,0,1.5,0.9,1.5,2.1
		c0,1.1-0.7,2.1-1.5,2.1c-0.8,0-1.5-0.9-1.5-2.1C8.7,5.6,9.3,4.7,10.2,4.7z M5.3,10.3C5.2,9.2,5.8,8.3,6.7,8.2
		C7.5,8.1,8.2,9,8.3,10.1c0.1,1.1-0.5,2.1-1.4,2.1C6.1,12.3,5.4,11.4,5.3,10.3z M15.2,19.5c-1.4,0-2.2-0.4-3.3-0.4s-1.8,0.3-3.3,0.3
		S6.6,17.9,6.6,17c0-1.8,1.8-2.1,3.5-4.6c0.5-0.7,1.1-0.9,1.7-0.9c0.6,0,1.1,0.1,1.6,0.8c1.8,3.2,3.6,3.1,3.8,4.9
		C17.3,18.1,16.6,19.5,15.2,19.5z M17.2,13.1c-0.8,0-1.5-0.5-1.5-1.8c0-1.2,0.6-2,1.5-2c0.2,0,1.5,0.4,1.5,2
		C18.7,12.5,18,13.1,17.2,13.1z"/>
</g>
<g id="Outline_Icons">
	<g>
		<circle class="st2" cx="12" cy="12" r="11.5"/>
		<path class="st3" d="M10.1,12.4c-1.7,2.5-3.5,2.8-3.5,4.6c0,0.9,0.5,2.4,1.9,2.4s2.1-0.3,3.3-0.3s1.9,0.4,3.3,0.4
			c1.4,0,2.1-1.4,2-2.3c-0.1-1.9-1.9-1.7-3.8-4.9c-0.5-0.7-1-0.8-1.6-0.8C11.2,11.5,10.6,11.7,10.1,12.4"/>
		<path class="st3" d="M8.3,10.1c0.1,1.1-0.5,2.1-1.4,2.1c-0.8,0.1-1.6-0.8-1.6-1.9C5.2,9.2,5.8,8.3,6.7,8.2C7.5,8.1,8.2,9,8.3,10.1
			"/>
		<path class="st3" d="M10.2,4.7c-0.8,0-1.5,0.9-1.5,2.1c0,1.1,0.7,2.1,1.5,2.1c0.8,0,1.5-0.9,1.5-2.1C11.7,5.6,11,4.7,10.2,4.7"/>
		<path class="st3" d="M14.9,5.1c-0.8-0.2-1.6,0.5-1.9,1.6s0.1,2.1,0.9,2.3c0.8,0.2,1.6-0.5,1.9-1.6C16.2,6,15.1,5.2,14.9,5.1"/>
		<path class="st3" d="M17.1,9.3c-0.8,0-1.5,0.8-1.5,2c0,1.2,0.7,1.8,1.5,1.8c0.8,0,1.5-0.6,1.5-1.8C18.6,9.7,17.3,9.3,17.1,9.3"/>
	</g>
</g>
</svg>
