<?xml version="1.0" encoding="utf-8"?>
<!-- Generator: Adobe Illustrator 19.2.0, SVG Export Plug-In . SVG Version: 6.00 Build 0)  -->
<svg version="1.1" id="Layer_1" xmlns="http://www.w3.org/2000/svg" xmlns:xlink="http://www.w3.org/1999/xlink" x="0px" y="0px"
	 viewBox="0 0 24 24" style="enable-background:new 0 0 24 24;" xml:space="preserve">
<style type="text/css">
	.st0{display:none;}
	.st1{display:inline;}
	.st2{fill:none;stroke:#000000;stroke-linecap:round;stroke-linejoin:round;stroke-miterlimit:10;}
	.st3{fill:none;stroke:#000000;stroke-linejoin:round;stroke-miterlimit:10;}
</style>
<g id="Filled_Icons" class="st0">
	<path class="st1" d="M12,0C5.4,0,0,5.4,0,12s5.4,12,12,12s12-5.4,12-12S18.6,0,12,0z M19.5,15c0,0.5-0.4,1-0.8,1.2l-5.6,3.1
		c-0.4,0.2-1,0.2-1.4,0l-5.6-3.1C5.8,16,5.5,15.5,5.5,15V9c0-0.5,0.3-1,0.7-1.2l5.6-3.1c0.4-0.2,1-0.2,1.4,0l0.8,0.4
		c0.4,0.2,0.5,1,0.1,1.7c-0.4,0.7-0.7,1.3-0.7,1.3c-1,1.9-3.1,1.4-3.8,1.3c-0.2,0-0.4,0-0.5,0.2c-0.4,0.3-0.5,0.8-0.2,1.2
		c0.4,0.6,2.2,0.4,2.9,0.1c-2.3,1.8-2.7,1.5-2.7,1.5c-0.4,0.3-0.5,1-0.1,1.4c1,1.2,2.9-0.6,3.4-1.6c0,0-1.5,3.3-1.3,4
		c0.2,0.7,0.9,0.8,1.5,0.5c0.8-0.4,0.1-1.1,0.7-3c0.2-0.7,0.8-1.3,1.1-1c0.6,0.7,0.2,0.7,0.4,1.3c0.3,1.3,2.2,0.7,1.8-0.5
		c-0.1-0.3-0.8-1-1.3-1.7l0,0c-0.4-0.6-0.4-1.3-0.1-2c0.5-0.8,1.8-3.2,2.9-2.5c0.5,0.3,0.9,0.5,0.9,0.5C19.1,8,19.5,8.5,19.5,9V15z"
		/>
</g>
<g id="Outline_Icons">
	<g>
		<circle class="st2" cx="12" cy="12" r="11.5"/>
		<path id="Oval-1_1_" class="st3" d="M15,9.8c-0.3,0.6-0.3,1.4,0.1,2l0,0c0.5,0.7,1.2,1.4,1.3,1.7c0.3,1.3-1.5,1.8-1.8,0.5
			c-0.2-0.6,0.2-0.6-0.4-1.3c-0.3-0.3-0.9,0.3-1.1,1c-0.6,1.9,0.1,2.5-0.7,3c-0.5,0.3-1.3,0.3-1.5-0.5c-0.2-0.7,1.3-4,1.3-4
			c-0.5,1-2.4,2.8-3.4,1.6c-0.3-0.4-0.3-1,0.1-1.4c0,0,0.5,0.3,2.7-1.5c-0.7,0.4-2.5,0.6-2.9-0.1C8.6,10.4,8.7,9.9,9,9.6
			c0.2-0.1,0.3-0.2,0.5-0.2c0.7,0,2.8,0.6,3.8-1.3c0,0,0.3-0.6,0.7-1.3s0.4-1.5-0.1-1.7l-0.8-0.4c-0.4-0.2-1-0.2-1.4,0L6.2,7.7
			C5.8,8,5.5,8.5,5.5,9v6c0,0.5,0.3,1,0.7,1.2l5.6,3.1c0.4,0.2,1,0.2,1.4,0l5.6-3.1c0.4-0.2,0.8-0.8,0.8-1.2V9c0-0.5-0.4-1-0.8-1.2
			c0,0-0.4-0.2-0.9-0.5C16.8,6.6,15.5,8.9,15,9.8z"/>
	</g>
</g>
</svg>
