<?xml version="1.0" encoding="utf-8"?>
<!-- Generator: Adobe Illustrator 19.2.0, SVG Export Plug-In . SVG Version: 6.00 Build 0)  -->
<svg version="1.1" id="Layer_1" xmlns="http://www.w3.org/2000/svg" xmlns:xlink="http://www.w3.org/1999/xlink" x="0px" y="0px"
	 viewBox="0 0 24 24" style="enable-background:new 0 0 24 24;" xml:space="preserve">
<style type="text/css">
	.st0{display:none;}
	.st1{display:inline;}
	.st2{fill:none;stroke:#000000;stroke-linejoin:round;stroke-miterlimit:10;}
</style>
<g id="Filled_Icons" class="st0">
	<path class="st1" d="M20.1,4H3.9C1.8,4,0,5.8,0,7.9v9.1C0,19.2,1.8,21,3.9,21h16.1c2.2,0,3.9-1.8,3.9-3.9V7.9C24,5.8,22.2,4,20.1,4
		z M16.5,12.5l-6.8,4.3c-0.1,0.1-0.2,0.1-0.3,0.1c-0.1,0-0.2,0-0.2-0.1C9.1,16.8,9,16.6,9,16.4V7.8c0-0.2,0.1-0.4,0.3-0.4
		c0.2-0.1,0.4-0.1,0.5,0l6.8,4.3c0.1,0.1,0.2,0.2,0.2,0.4S16.7,12.4,16.5,12.5z"/>
</g>
<g id="Outline_Icons">
	<g>
		<path class="st2" d="M23.5,7.9c0-1.9-1.5-3.4-3.4-3.4H3.9C2,4.5,0.5,6,0.5,7.9v9.1c0,1.9,1.5,3.4,3.4,3.4h16.1
			c1.9,0,3.4-1.5,3.4-3.4L23.5,7.9L23.5,7.9z M9.5,16.4V7.8l6.8,4.3L9.5,16.4z"/>
	</g>
</g>
</svg>
