<?xml version="1.0" encoding="utf-8"?>
<!-- Generator: Adobe Illustrator 19.2.0, SVG Export Plug-In . SVG Version: 6.00 Build 0)  -->
<svg version="1.1" id="Layer_1" xmlns="http://www.w3.org/2000/svg" xmlns:xlink="http://www.w3.org/1999/xlink" x="0px" y="0px"
	 viewBox="0 0 24 24" style="enable-background:new 0 0 24 24;" xml:space="preserve">
<style type="text/css">
	.st0{display:none;}
	.st1{display:inline;}
	.st2{fill:none;stroke:#000000;stroke-linejoin:round;stroke-miterlimit:10;}
</style>
<g id="Filled_Icons" class="st0">
	<path class="st1" d="M12,0C5.4,0,0,5.4,0,12s5.4,12,12,12s12-5.4,12-12S18.6,0,12,0z M18.5,18.5h-2.8L12,13.2l-3.7,5.3H5.5l4.3-6.3
		L5.5,5.5h2.8l3.7,5.7l3.7-5.7h2.8l-4.3,6.6L18.5,18.5z"/>
</g>
<g id="Outline_Icons">
	<g>
		<path class="st2" d="M18.5,18.5h-2.8L12,13.2l-3.7,5.3H5.5l4.3-6.3L5.5,5.5h2.8l3.7,5.7l3.7-5.7h2.8l-4.3,6.6L18.5,18.5z"/>
		<circle class="st2" cx="12" cy="12" r="11.5"/>
	</g>
</g>
</svg>
