<?xml version="1.0" encoding="utf-8"?>
<!-- Generator: Adobe Illustrator 19.2.0, SVG Export Plug-In . SVG Version: 6.00 Build 0)  -->
<svg version="1.1" id="Layer_1" xmlns="http://www.w3.org/2000/svg" xmlns:xlink="http://www.w3.org/1999/xlink" x="0px" y="0px"
	 viewBox="0 0 24 24" style="enable-background:new 0 0 24 24;" xml:space="preserve">
<style type="text/css">
	.st0{display:none;}
	.st1{display:inline;}
	.st2{fill:none;stroke:#000000;stroke-linecap:round;stroke-linejoin:round;stroke-miterlimit:10;}
	.st3{fill:none;stroke:#000000;stroke-linejoin:round;stroke-miterlimit:10;}
</style>
<g id="Filled_Icons" class="st0">
	<g class="st1">
		<path d="M9.1,11c-0.1,0.1-0.2,0.2-0.3,0.4c0.1,0,0.2,0,0.2,0C9.1,11.3,9.1,11.1,9.1,11z"/>
		<path d="M19.6,10.5C19.6,10.5,19.6,10.5,19.6,10.5c-0.2,0-0.6,0.5-0.7,1.8c0.9-0.3,1.2-0.9,1.1-1.3C20,10.8,19.8,10.5,19.6,10.5z"
			/>
		<path d="M12,0C5.4,0,0,5.4,0,12s5.4,12,12,12s12-5.4,12-12S18.6,0,12,0z M6.6,13.1c-0.1-0.6-0.3-1.3-0.4-1.9c0,0.1,0,0.2-0.1,0.4
			c-0.2,1.3-0.2,1.6-0.7,1.6c-0.3,0-0.4-0.1-1.1-1.4c0,0.3,0.1,0.7,0.1,1l-1,0.1C3,9.6,3,9.6,3.2,9.4l0.4-0.2c0.3,0,0.4,0,1.2,1.5
			c0.1,0.2,0.2,0.4,0.4,0.6c0.2-1.7,0.4-2.5,1-2.5c0.5-0.1,0.6,0,1.5,4L6.6,13.1z M11.6,13.7c-0.2,0-0.3,0-0.5-0.1
			c-0.3-0.1-0.6-0.3-0.8-0.6c-0.2,0.3-0.6,0.6-1.3,0.6c-0.2,0-0.3,0-0.5-0.1c-0.5-0.2-0.9-0.6-1-1.1c-0.2-0.9,0.4-1.9,0.9-2.3
			C9,9.8,9.4,9.9,9.6,10c0.1,0.1,0.3,0.2,0.4,0.4c0.2,0.5,0,1.6-0.1,1.7c-0.2,0.3-0.5,0.4-1.3,0.2c0,0.3,0.2,0.3,0.3,0.3
			c0.4,0.1,0.6-0.2,0.7-0.2l0.8,0.6c-0.1-0.1-0.2-0.3-0.2-0.5c-0.2-0.9,0.4-1.9,0.9-2.3c0.5-0.4,0.9-0.3,1.1-0.2
			c0.1,0.1,0.3,0.2,0.4,0.4c0.2,0.5,0,1.6-0.1,1.7c-0.2,0.3-0.5,0.4-1.3,0.2c0,0.3,0.2,0.3,0.3,0.3c0.4,0.1,0.6-0.2,0.7-0.2l0.8,0.6
			C12.7,13.3,12.2,13.7,11.6,13.7z M16.3,13.5c-0.2,0-0.3,0-0.5-0.1c-0.4-0.4-0.6-1.1-0.6-1.6c-0.2,0.1-0.5,0.1-0.9,0.1
			c0.1,0.7,0.1,1.6,0.1,1.6l-1,0.1c0-0.1-0.1-0.9-0.1-1.7c-0.3,0-0.5,0-0.7-0.1l0.2-1c0.1,0,0.3,0,0.4,0c0-0.2,0-0.4,0-0.7
			c0-1-0.1-1.8,0-2.1l1,0.2c-0.1,0.2,0,1.2,0,1.8c0,0.3,0,0.5,0,0.7c0.2,0,0.5,0,0.6-0.1l0.3,0.9c0-0.4,0-0.8,0.1-0.8l1,0.2
			c0,0.2-0.1,0.9,0.1,1.4c0.2-0.2,0.5-0.5,0.6-1.5l1,0.1C17.8,12.4,17.3,13.3,16.3,13.5z M19,13.4c0,0.5,0.1,1.1,0.2,1.8l-1,0.1
			c-0.7-4.9,0.7-5.6,1.3-5.7c0.7-0.1,1.4,0.5,1.6,1.3C21.2,11.8,20.7,12.9,19,13.4z"/>
		<path d="M11.6,11c-0.1,0.1-0.2,0.2-0.3,0.4c0.1,0,0.2,0,0.2,0C11.6,11.3,11.6,11.1,11.6,11z"/>
	</g>
</g>
<g id="Outline_Icons">
	<g>
		<circle class="st2" cx="12" cy="12" r="11.5"/>
		<g>
			<path class="st3" d="M3.9,12.8c0,0-0.4-3.2-0.3-3.2c0.1,0,1.7,3,1.8,3s0.4-3.3,0.8-3.3c0.2,0,0.9,3.6,0.9,3.6"/>
			<path class="st3" d="M8.3,11.8c0,0,1.1,0.3,1.1,0.2c0.1-0.1,0.3-1.3,0-1.5c-0.9-0.4-2.2,2.2-0.7,2.7c0.8,0.2,1.2-0.4,1.2-0.4"/>
			<path class="st3" d="M10.8,11.8c0,0,1.1,0.3,1.1,0.2c0.1-0.1,0.3-1.3,0-1.5c-0.9-0.4-2.2,2.2-0.7,2.7c0.8,0.2,1.2-0.4,1.2-0.4"/>
			<path class="st3" d="M13.9,8.2c-0.1,0.4,0,2.1,0,2.8s0.2,2.5,0.2,2.5"/>
			<path class="st3" d="M12.8,11.4c0.5,0.1,1.8,0.1,2.3-0.1"/>
			<path class="st3" d="M15.8,11c0,0-0.3,1.4,0.4,2.1c0.5-0.1,1.1-0.5,1.3-2.1"/>
			<path class="st3" d="M18.4,13c5.4-1.1-1.1-7.3,0.2,2.2"/>
		</g>
	</g>
</g>
</svg>
