<?xml version="1.0" encoding="utf-8"?>
<!-- Generator: Adobe Illustrator 19.2.0, SVG Export Plug-In . SVG Version: 6.00 Build 0)  -->
<svg version="1.1" id="Layer_1" xmlns="http://www.w3.org/2000/svg" xmlns:xlink="http://www.w3.org/1999/xlink" x="0px" y="0px"
	 viewBox="0 0 24 24" style="enable-background:new 0 0 24 24;" xml:space="preserve">
<style type="text/css">
	.st0{display:none;}
	.st1{display:inline;}
	.st2{fill:none;stroke:#000000;stroke-linecap:round;stroke-linejoin:round;stroke-miterlimit:10;}
</style>
<g id="Filled_Icons" class="st0">
	<g class="st1">
		<g>
			<path d="M3,12.5c0-2.8,1.3-5.3,3.4-7H1.5c-0.6,0-1,0.4-1,1v12c0,0.6,0.4,1,1,1h4.9C4.3,17.9,3,15.3,3,12.5z"/>
			<path d="M22.5,5.5h-4.9c2,1.7,3.4,4.2,3.4,7c0,2.8-1.3,5.4-3.4,7h4.9c0.6,0,1-0.4,1-1v-12C23.5,5.9,23.1,5.5,22.5,5.5z"/>
		</g>
		<path d="M12,4.5c-4.4,0-8,3.6-8,8s3.6,8,8,8s8-3.6,8-8S16.4,4.5,12,4.5z M17.5,13c-0.3,0-0.5-0.2-0.5-0.5c0-2.8-2.2-5-5-5
			c-0.3,0-0.5-0.2-0.5-0.5s0.2-0.5,0.5-0.5c3.3,0,6,2.7,6,6C18,12.8,17.8,13,17.5,13z"/>
		<rect x="1.5" y="3" width="4" height="1.5"/>
	</g>
</g>
<g id="Outline_Icons">
	<g>
		<circle class="st2" cx="12" cy="12.5" r="8"/>
		<path class="st2" d="M12,7c3,0,5.5,2.5,5.5,5.5"/>
		<path class="st2" d="M15.9,19.5h6.6c0.6,0,1-0.4,1-1v-12c0-0.6-0.4-1-1-1h-6.6"/>
		<path class="st2" d="M8.1,5.5H1.5c-0.6,0-1,0.4-1,1v12c0,0.6,0.4,1,1,1h6.6"/>
		<rect x="1.5" y="3.5" class="st2" width="4" height="2"/>
	</g>
</g>
</svg>
