<?xml version="1.0" encoding="utf-8"?>
<!-- Generator: Adobe Illustrator 19.2.0, SVG Export Plug-In . SVG Version: 6.00 Build 0)  -->
<svg version="1.1" id="Layer_1" xmlns="http://www.w3.org/2000/svg" xmlns:xlink="http://www.w3.org/1999/xlink" x="0px" y="0px"
	 viewBox="0 0 24 24" style="enable-background:new 0 0 24 24;" xml:space="preserve">
<style type="text/css">
	.st0{display:none;}
	.st1{display:inline;}
	.st2{fill:none;stroke:#000000;stroke-linecap:round;stroke-linejoin:round;stroke-miterlimit:10;}
	.st3{fill:none;stroke:#000000;stroke-linejoin:round;stroke-miterlimit:10;}
</style>
<g id="Filled_Icons" class="st0">
	<g class="st1">
		<path d="M5.9,5.6C6.4,5.8,7,5.5,7.2,5c0.5-1.5,2-2.6,3.5-2.6c2,0,3.8,1.8,3.8,4v0.1c-7-0.6-8.5,2.8-8.8,3.9
			c-0.6,2.2,0.5,4.7,2.6,5.6c0.3,0.1,1,0.4,1.8,0.4c1.2,0,2.8-0.5,4.6-2.3c0.3,1.2,1.3,2.3,2.6,2.3c0.6,0,1-0.4,1-1c0-0.6-0.4-1-1-1
			c-0.3,0-0.7-0.7-0.7-1.4V6.3c0-3.2-2.6-6-5.8-6c-2.4,0-4.6,1.6-5.4,4C5.1,4.8,5.4,5.4,5.9,5.6z M9.1,14.1c-1.2-0.5-1.9-2-1.5-3.2
			c0.5-1.9,3.1-2.8,6.9-2.5v2.5C12.7,13.6,10.8,14.8,9.1,14.1z"/>
		<path d="M23.2,18.1C23.2,18.1,23.2,18.1,23.2,18.1l-4.4-1.2c-0.5-0.1-1.1,0.2-1.2,0.7c-0.1,0.5,0.2,1.1,0.7,1.2l1.8,0.5
			c-2.5,1-5.3,1.6-8.1,1.6c-3.7,0-7.3-1-10.5-2.8C1,17.9,0.4,18,0.1,18.5C-0.1,19,0,19.6,0.5,19.9c3.5,2,7.5,3,11.5,3
			c2.9,0,5.7-0.5,8.4-1.5l-0.6,1c-0.3,0.5-0.1,1.1,0.3,1.4c0.2,0.1,0.3,0.1,0.5,0.1c0.3,0,0.7-0.2,0.9-0.5l2.3-3.9
			C24.1,19,23.9,18.3,23.2,18.1z"/>
	</g>
</g>
<g id="Outline_Icons">
	<g>
		<path class="st2" d="M6.2,5.8c0.7-1.9,2.5-3.3,4.5-3.3c2.5,0,4.8,2.2,4.8,5v6.6c0,1.1,0.7,2.4,1.7,2.4"/>
		<path class="st3" d="M15.5,8.7c-15.8-2.1-7.3,15.5,0,3.8"/>
		<polyline class="st2" points="20.7,23.5 23,19.6 18.7,18.4 		"/>
		<path class="st2" d="M23,19.6c-3.3,1.8-7,2.9-11,2.9c-4,0-7.8-1-11-2.9"/>
	</g>
</g>
</svg>
