<?xml version="1.0" encoding="utf-8"?>
<!-- Generator: Adobe Illustrator 19.2.0, SVG Export Plug-In . SVG Version: 6.00 Build 0)  -->
<svg version="1.1" id="Layer_1" xmlns="http://www.w3.org/2000/svg" xmlns:xlink="http://www.w3.org/1999/xlink" x="0px" y="0px"
	 viewBox="0 0 24 24" style="enable-background:new 0 0 24 24;" xml:space="preserve">
<style type="text/css">
	.st0{display:none;}
	.st1{display:inline;}
	.st2{fill:none;stroke:#000000;stroke-linecap:round;stroke-linejoin:round;stroke-miterlimit:10;}
	.st3{fill:none;stroke:#000000;stroke-linejoin:round;stroke-miterlimit:10;}
</style>
<g id="Filled_Icons" class="st0">
	<g class="st1">
		<path d="M12.1,6.2c-1.9,0-3.4,1.9-3.4,4.2v1.7c0,2.3,1.5,4.2,3.4,4.2c0.3,0,0.5,0,0.8-0.1c-0.7-1.2-1.7-1.2-1.7-1.2v-1.3
			c1.5-0.1,2.6,0.6,3.3,1.3c0.6-0.8,0.9-1.8,0.9-2.9v-1.7C15.5,8.1,13.9,6.2,12.1,6.2z"/>
		<path d="M12,0C5.4,0,0,5.4,0,12s5.4,12,12,12s12-5.4,12-12S18.6,0,12,0z M17.2,18.3v1.1c-2,0.4-3-0.4-3.6-1.6
			c-0.5,0.1-1,0.2-1.6,0.2c-3.7,0-6.7-3-6.7-6.8c0-3.7,3-6.8,6.7-6.8c3.7,0,6.7,3,6.7,6.8c0,2.4-1.3,4.6-3.2,5.8
			C15.9,17.9,17.2,18.3,17.2,18.3z"/>
	</g>
</g>
<g id="Outline_Icons">
	<g>
		<circle class="st2" cx="12" cy="12" r="11.5"/>
		<g>
			<path class="st3" d="M15.5,17c1.9-1.2,3.2-3.3,3.2-5.8c0-3.7-3-6.8-6.7-6.8c-3.7,0-6.7,3-6.7,6.8S8.3,18,12,18
				c0.5,0,1.1-0.1,1.6-0.2c0.6,1.2,1.6,2,3.6,1.6v-1.1C17.2,18.3,15.9,17.9,15.5,17z M15.5,12.1c0,1.1-0.4,2.2-0.9,2.9
				c-0.7-0.8-1.9-1.4-3.3-1.3V15c0,0,1,0,1.7,1.2c-0.3,0.1-0.5,0.1-0.8,0.1c-1.9,0-3.4-1.9-3.4-4.2v-1.7c0-2.3,1.5-4.2,3.4-4.2
				s3.4,1.9,3.4,4.2V12.1L15.5,12.1z"/>
		</g>
	</g>
</g>
</svg>
