<?xml version="1.0" encoding="utf-8"?>
<!-- Generator: Adobe Illustrator 19.2.0, SVG Export Plug-In . SVG Version: 6.00 Build 0)  -->
<svg version="1.1" id="Layer_1" xmlns="http://www.w3.org/2000/svg" xmlns:xlink="http://www.w3.org/1999/xlink" x="0px" y="0px"
	 viewBox="0 0 24 24" style="enable-background:new 0 0 24 24;" xml:space="preserve">
<style type="text/css">
	.st0{display:none;}
	.st1{display:inline;}
	.st2{fill:none;stroke:#000000;stroke-linejoin:round;stroke-miterlimit:10;}
	.st3{fill:none;stroke:#000000;stroke-linecap:round;stroke-linejoin:round;stroke-miterlimit:10;}
</style>
<g id="Filled_Icons" class="st0">
	<g class="st1">
		<g>
			<path d="M10.4,1.4c0.2-0.2,0.1-0.5-0.1-0.7c-0.2-0.2-0.5-0.1-0.7,0.1L7,4.1L4.4,0.8C4.2,0.5,3.9,0.5,3.7,0.7
				C3.5,0.8,3.4,1.2,3.6,1.4l2.9,3.8l0,4.4C6.5,9.8,6.7,10,7,10s0.5-0.2,0.5-0.5l0-4.4L10.4,1.4z"/>
			<path d="M11.5,3c-1.1,0-2,0.9-2,2v3c0,1.1,0.9,2,2,2c1.1,0,2-0.9,2-2l0-3C13.5,3.9,12.6,3,11.5,3z M11.5,9c-0.6,0-1-0.4-1-1V5
				c0-0.6,0.4-1,1-1s1,0.4,1,1l0,3C12.5,8.6,12.1,9,11.5,9z"/>
			<path d="M19.5,7.5l0-4C19.5,3.2,19.3,3,19,3s-0.5,0.2-0.5,0.5l0,4C18.5,8.3,17.8,9,17,9c-0.4,0-0.8-0.2-1.1-0.4
				c-0.3-0.3-0.4-0.7-0.4-1.1l0-4C15.5,3.2,15.3,3,15,3s-0.5,0.2-0.5,0.5l0,4c0,0.7,0.3,1.3,0.7,1.8C15.7,9.7,16.3,10,17,10
				c0,0,0,0,0,0c0.6,0,1.1-0.2,1.5-0.5c0,0.2,0.2,0.4,0.5,0.4c0.3,0,0.5-0.2,0.5-0.5L19.5,7.5C19.5,7.5,19.5,7.5,19.5,7.5z"/>
		</g>
		<g>
			<path d="M14,17c-0.3,0-0.5,0.2-0.5,0.5v2c0,0.3,0.2,0.5,0.5,0.5s0.5-0.2,0.5-0.5v-2C14.5,17.2,14.3,17,14,17z"/>
			<path d="M18.5,17.5c0-0.3-0.2-0.5-0.5-0.5s-0.5,0.2-0.5,0.5V18h1V17.5z"/>
			<path d="M19,12.5H5c-2.2,0-4,1.8-4,4v3c0,2.2,1.8,4,4,4h14c2.2,0,4-1.8,4-4v-3C23,14.3,21.2,12.5,19,12.5z M8,16H6.5v4.5
				C6.5,20.8,6.3,21,6,21s-0.5-0.2-0.5-0.5V16H4c-0.3,0-0.5-0.2-0.5-0.5S3.7,15,4,15h4c0.3,0,0.5,0.2,0.5,0.5S8.3,16,8,16z M11,20.9
				c-0.1,0-0.2,0-0.3-0.1C10.5,20.9,10.3,21,10,21c-0.8,0-1.5-0.7-1.5-1.5v-3C8.5,16.2,8.7,16,9,16s0.5,0.2,0.5,0.5v3
				c0,0.3,0.2,0.5,0.5,0.5s0.5-0.2,0.5-0.5v-3c0-0.3,0.2-0.5,0.5-0.5s0.5,0.2,0.5,0.5l0,3.9C11.5,20.7,11.3,20.9,11,20.9z
				 M15.5,19.5c0,0.8-0.7,1.5-1.5,1.5c-0.2,0-0.5-0.1-0.7-0.2C13.3,20.9,13.1,21,13,21c-0.3,0-0.5-0.2-0.5-0.5v-6
				c0-0.3,0.2-0.5,0.5-0.5s0.5,0.2,0.5,0.5v1.6C13.7,16,13.8,16,14,16c0.8,0,1.5,0.7,1.5,1.5V19.5z M18.1,21.1
				c-0.8,0-1.6-0.8-1.6-1.6v-2c0-0.8,0.7-1.5,1.5-1.5s1.5,0.7,1.5,1.5v1c0,0.3-0.2,0.5-0.5,0.5h-1.5v0.5c0,0.3,0.3,0.6,0.6,0.6
				c0.2,0,0.6-0.1,0.6-0.4c0-0.3,0.2-0.5,0.5-0.5s0.5,0.2,0.5,0.5C19.7,20.5,19,21.1,18.1,21.1z"/>
		</g>
	</g>
</g>
<g id="Outline_Icons">
	<g>
		<path class="st2" d="M22.5,19.5c0,2.2-1.8,4-4,4h-14c-2.2,0-4-1.8-4-4v-3c0-2.2,1.8-4,4-4h14c2.2,0,4,1.8,4,4V19.5z"/>
		<polyline class="st3" points="3.5,1.1 6.5,5 6.5,9.5 		"/>
		<polyline class="st3" points="9.5,1.1 6.5,5 6.5,9.5 		"/>
		<path class="st3" d="M12.5,8c0,0.8-0.7,1.5-1.5,1.5c-0.8,0-1.5-0.7-1.5-1.5V5c0-0.8,0.7-1.5,1.5-1.5c0.8,0,1.5,0.7,1.5,1.5L12.5,8
			z"/>
		<path class="st3" d="M18.5,3.5l0,4c0,1.1-0.9,2-2,2c-1.1,0-2-0.9-2-2l0-4"/>
		<line class="st3" x1="18.5" y1="3.5" x2="18.5" y2="9.4"/>
		<line class="st3" x1="10.5" y1="16.5" x2="10.5" y2="20.4"/>
		<line class="st3" x1="3.5" y1="15.5" x2="7.5" y2="15.5"/>
		<line class="st3" x1="5.5" y1="15.5" x2="5.5" y2="20.5"/>
		<line class="st3" x1="12.5" y1="14.5" x2="12.5" y2="20.5"/>
		<path class="st3" d="M14.5,19.5c0,0.6-0.4,1-1,1c-0.6,0-1-0.4-1-1v-2c0-0.6,0.4-1,1-1c0.6,0,1,0.4,1,1V19.5z"/>
		<path class="st3" d="M8.5,16.5v3c0,0.6,0.4,1,1,1c0.6,0,1-0.4,1-1v-3"/>
		<path class="st3" d="M18.7,19.8c0,0.6-0.5,0.9-1.1,0.9s-1.1-0.6-1.1-1.1v-2c0-0.6,0.4-1,1-1s1,0.4,1,1v1h-2"/>
	</g>
</g>
</svg>
