<?xml version="1.0" encoding="utf-8"?>
<!-- Generator: Adobe Illustrator 19.2.0, SVG Export Plug-In . SVG Version: 6.00 Build 0)  -->
<svg version="1.1" id="Layer_1" xmlns="http://www.w3.org/2000/svg" xmlns:xlink="http://www.w3.org/1999/xlink" x="0px" y="0px"
	 viewBox="0 0 24 24" style="enable-background:new 0 0 24 24;" xml:space="preserve">
<style type="text/css">
	.st0{display:none;}
	.st1{display:inline;}
	.st2{fill:none;stroke:#000000;stroke-linejoin:round;stroke-miterlimit:10;}
</style>
<g id="Filled_Icons" class="st0">
	<path class="st1" d="M23.5,14.3C23.4,14.1,23.2,14,23,14h-6.6c-0.1,0-0.2,0-0.3,0.1l-2.4,2c-0.2,0.1-0.2,0.4-0.2,0.6
		c0.1,0.2,0.3,0.3,0.5,0.3h4v3.6c0,0.1,0,0.2,0,0.3c0,0,0,0,0,0c-0.9,0.5-3.3,0.5-4.5,0.4C9.2,21,5.6,17.5,4.8,13
		C4,8.9,5.9,4.8,9.3,3.1c1.9-0.9,3.8-1.1,5.7-0.5c1.2,0.4,2.3,1.1,3.3,2l-0.6,1.1c-0.1,0.2-0.1,0.4,0,0.6c0.1,0.2,0.3,0.2,0.5,0.2
		L19.7,6C19.8,6,19.9,6,20,5.9l2.2-2.3c0.1-0.1,0.1-0.2,0.1-0.4c0-0.1-0.1-0.3-0.2-0.4C20,1,16.8,0,13.4,0C5,0,0.2,6.2,0,11.8
		c-0.2,4.8,2.6,8.4,5.3,10.2c2,1.3,4.6,2,7.6,2c3,0,6.3-0.7,8.8-2c0.2-0.1,0.3-0.3,0.3-0.4v-4.9l1.4-1.8
		C23.5,14.7,23.5,14.5,23.5,14.3z"/>
</g>
<g id="Outline_Icons">
	<path class="st2" d="M21.5,16.4v5.1c-4.5,2.3-11.6,2.9-15.9,0c-2.6-1.8-5.2-5.3-5.1-9.7c0.1-4.2,2.9-8,6.6-9.9
		C11.5-0.3,18,0.1,21.9,3.3l-2.2,2.3L18.1,6l0.8-1.4c-1.1-1.1-2.4-1.9-3.8-2.4c-2.2-0.7-4.3-0.3-6,0.5C5.6,4.4,3.5,8.6,4.3,13
		c0.9,4.7,4.5,8.4,9.2,8.8c1.4,0.1,2.9,0,4.3-0.3c1-0.3,0.7-0.4,0.7-1v-4.1H14l2.4-2H23L21.5,16.4z"/>
</g>
</svg>
