<?xml version="1.0" encoding="utf-8"?>
<!-- Generator: Adobe Illustrator 19.2.0, SVG Export Plug-In . SVG Version: 6.00 Build 0)  -->
<svg version="1.1" id="Layer_1" xmlns="http://www.w3.org/2000/svg" xmlns:xlink="http://www.w3.org/1999/xlink" x="0px" y="0px"
	 viewBox="0 0 24 24" style="enable-background:new 0 0 24 24;" xml:space="preserve">
<style type="text/css">
	.st0{display:none;}
	.st1{display:inline;}
	.st2{fill:none;stroke:#000000;stroke-linecap:round;stroke-linejoin:round;stroke-miterlimit:10;}
	.st3{fill:none;stroke:#000000;stroke-linejoin:round;stroke-miterlimit:10;}
</style>
<g id="Filled_Icons" class="st0">
	<g class="st1">
		<path d="M12.5,10.2c-2.6,0-4.8,1.5-4.8,3.4c0,1.9,2.1,3.4,4.8,3.4c2.6,0,4.8-1.5,4.8-3.4C17.3,11.8,15.1,10.2,12.5,10.2z
			 M12.5,15.1c-1.1,0-2-0.6-2-1.4c0-0.8,0.9-1.4,2-1.4c1.1,0,2,0.6,2,1.4C14.5,14.4,13.6,15.1,12.5,15.1z"/>
		<path d="M12,0C5.4,0,0,5.4,0,12s5.4,12,12,12s12-5.4,12-12S18.6,0,12,0z M12.5,18.8c-4.1,0-7.4-2.2-7.5-5v-8h2.6v3.9
			c1.3-0.7,3.1-1.2,4.9-1.2c4.1,0,7.5,2.3,7.5,5.1C20,16.5,16.6,18.8,12.5,18.8z"/>
	</g>
</g>
<g id="Outline_Icons">
	<g>
		<circle class="st2" cx="12" cy="12" r="11.5"/>
		<path class="st3" d="M5,5.8v8h0c0.1,2.8,3.4,5,7.5,5c4.1,0,7.5-2.3,7.5-5.1c0-2.8-3.4-5.1-7.5-5.1c-1.8,0-3.6,0.4-4.9,1.2V5.8
			C7.6,5.8,5,5.8,5,5.8z M12.5,10.2c2.6,0,4.8,1.5,4.8,3.4c0,1.9-2.1,3.4-4.8,3.4s-4.8-1.5-4.8-3.4C7.7,11.8,9.9,10.2,12.5,10.2
			 M10.5,13.6c0-0.8,0.9-1.4,2-1.4c1.1,0,2,0.6,2,1.4c0,0.8-0.9,1.4-2,1.4C11.4,15.1,10.5,14.4,10.5,13.6"/>
	</g>
</g>
</svg>
