<?xml version="1.0" encoding="utf-8"?>
<!-- Generator: Adobe Illustrator 19.2.0, SVG Export Plug-In . SVG Version: 6.00 Build 0)  -->
<svg version="1.1" id="Layer_1" xmlns="http://www.w3.org/2000/svg" xmlns:xlink="http://www.w3.org/1999/xlink" x="0px" y="0px"
	 viewBox="0 0 24 24" style="enable-background:new 0 0 24 24;" xml:space="preserve">
<style type="text/css">
	.st0{display:none;}
	.st1{display:inline;}
	.st2{fill:none;stroke:#000000;stroke-linecap:round;stroke-linejoin:round;stroke-miterlimit:10;}
</style>
<g id="Filled_Icons" class="st0">
	<g class="st1">
		<g>
			<path d="M12.1,6.8h-1.6L9.9,9.3h1c0.3,0,0.6-0.1,0.9-0.3C12,9,12.1,8.9,12.2,8.8c0.3-0.3,0.5-0.6,0.6-0.9c0.1-0.4,0-0.7-0.2-0.9
				C12.5,6.9,12.3,6.8,12.1,6.8z"/>
			<path d="M19.4,6.2c0.1,0.6,0,1.3-0.1,2.1c-0.8,3.7-4,6.2-7.8,6.2H8.8l-1.3,5.2c-0.1,0.4-0.5,0.8-1,0.8H5.1l-0.5,2h4.9l1.5-6h3.5
				c3.4,0,6.1-2.1,6.9-5.4C21.9,8.6,20.9,7,19.4,6.2z"/>
		</g>
		<path d="M13.9,2.5H5.6l-4,17h4.9l1.5-6h3.5c3.4,0,6.1-2.1,6.9-5.4C19.2,4.3,16.4,2.5,13.9,2.5z M13.8,8.1c-0.1,0.5-0.4,1-0.9,1.4
			c-0.1,0.1-0.3,0.3-0.5,0.4c-0.4,0.3-0.9,0.4-1.5,0.4H8.7l1-4.2l0.1-0.3h2.4c0.4,0,0.8,0.1,1.1,0.3C13.7,6.6,14,7.3,13.8,8.1z"/>
	</g>
</g>
<g id="Outline_Icons">
	<g>
		<path class="st2" d="M12.4,9.9c0.2-0.1,0.3-0.2,0.5-0.4c0.4-0.4,0.7-0.9,0.9-1.4c0.2-0.8,0-1.5-0.6-1.9c-0.3-0.2-0.6-0.3-1.1-0.3
			H9.7L9.6,6.2l-1,4.2H11C11.5,10.3,12,10.1,12.4,9.9z"/>
		<path class="st2" d="M1.6,19.5l4-17h8.3c2.5,0,5.3,1.8,4.4,5.6c-0.7,3.3-3.5,5.4-6.9,5.4H8l-1.5,6C6.5,19.5,1.6,19.5,1.6,19.5z"/>
		<path class="st2" d="M21,7.7c0.6,1,0.6,2.2,0.4,3.4c-0.7,3.2-3.3,5.4-6.7,5.4c-0.3,0-3.3,0-3.6,0l-1.5,6H4.6L5,21"/>
	</g>
</g>
</svg>
