<?xml version="1.0" encoding="utf-8"?>
<!-- Generator: Adobe Illustrator 19.2.0, SVG Export Plug-In . SVG Version: 6.00 Build 0)  -->
<svg version="1.1" id="Layer_1" xmlns="http://www.w3.org/2000/svg" xmlns:xlink="http://www.w3.org/1999/xlink" x="0px" y="0px"
	 viewBox="0 0 24 24" style="enable-background:new 0 0 24 24;" xml:space="preserve">
<style type="text/css">
	.st0{display:none;}
	.st1{display:inline;}
	.st2{fill:none;stroke:#000000;stroke-linecap:round;stroke-linejoin:round;stroke-miterlimit:10;}
	.st3{fill:none;stroke:#000000;stroke-linejoin:round;stroke-miterlimit:10;}
</style>
<g id="Filled_Icons" class="st0">
	<path class="st1" d="M12,0C5.4,0,0,5.4,0,12s5.4,12,12,12s12-5.4,12-12S18.6,0,12,0z M12,5.5c0.7,0,1.4,0.1,2,0.3v3.9l-3.9-3.9
		C10.7,5.6,11.3,5.5,12,5.5z M14,11.1V14h-4v-2.9l2-2L14,11.1z M5.5,12c0-2.5,1.5-4.7,3.6-5.8l2.2,2.2l-5.5,5.5
		C5.6,13.3,5.5,12.7,5.5,12z M9,17.8c-1.2-0.6-2.2-1.6-2.8-2.9L9,12.1V17.8z M12,18.5c-0.7,0-1.4-0.1-2-0.3V15h7.8
		C16.7,17.1,14.5,18.5,12,18.5z M18.2,14H15V6.2c2.1,1.1,3.5,3.3,3.5,5.8C18.5,12.7,18.4,13.4,18.2,14z"/>
</g>
<g id="Outline_Icons">
	<g>
		<circle class="st2" cx="12" cy="12" r="11.5"/>
		<circle class="st3" cx="12" cy="12" r="6.5"/>
		<line class="st3" x1="14.5" y1="6" x2="14.5" y2="14.5"/>
		<line class="st2" x1="9.5" y1="14.5" x2="18" y2="14.5"/>
		<line class="st3" x1="9.6" y1="6" x2="14.5" y2="10.9"/>
		<line class="st3" x1="6" y1="14.4" x2="12" y2="8.4"/>
		<line class="st3" x1="9.5" y1="18" x2="9.5" y2="10.9"/>
	</g>
</g>
</svg>
