<?xml version="1.0" encoding="utf-8"?>
<!-- Generator: Adobe Illustrator 19.2.0, SVG Export Plug-In . SVG Version: 6.00 Build 0)  -->
<svg version="1.1" id="Layer_1" xmlns="http://www.w3.org/2000/svg" xmlns:xlink="http://www.w3.org/1999/xlink" x="0px" y="0px"
	 viewBox="0 0 24 24" style="enable-background:new 0 0 24 24;" xml:space="preserve">
<style type="text/css">
	.st0{display:none;}
	.st1{display:inline;}
	.st2{fill:none;stroke:#000000;stroke-linejoin:round;stroke-miterlimit:10;}
</style>
<g id="Filled_Icons" class="st0">
	<g class="st1">
		<path d="M12,9.2c0.5,0,0.9,0.1,1.3,0.3c0.6-0.8,2-2.7,3.7-4.3c0.2-6.9-6.8-4.7-6.7-1.5c0,0.6,0.1,1.2,0.1,1.7
			c0.4,1.1,0.9,2.4,1.2,3.9C11.6,9.2,11.8,9.2,12,9.2z"/>
		<path d="M18.4,17.5c-1.3-1.4-3-2.7-4.1-3.5c-0.3,0.4-0.7,0.7-1.1,0.9c0.3,1.9,0.8,4.1,1.5,5.7C16.5,22,19.1,20.3,18.4,17.5z"/>
		<path d="M23,15.5c0.5-0.9,0.6-4.5-2.2-5.2l-5.9,1.4c0,0.2,0.1,0.3,0.1,0.5c0,0.3-0.1,0.6-0.2,0.9c0.8,0.6,2.9,2.3,4.6,4
			C21.3,17.7,22.6,16.3,23,15.5z"/>
		<path d="M9.7,14.2c-0.1-0.1-0.2-0.3-0.3-0.4C7.9,14.2,5,15,3,16.1c-0.8,1.4,0.2,3.2,2.5,2.8C7.5,17.4,9.2,15,9.7,14.2z"/>
		<circle cx="12" cy="12.2" r="2"/>
		<path d="M12.9,21.1c0.1-0.5,0.3-0.9,0.4-1.2c-0.6-1.8-0.9-3.7-1.1-4.7c-0.1,0-0.2,0-0.3,0c-0.5,0-1-0.1-1.4-0.4
			c-0.6,0.9-2.1,2.9-3.9,4.5C4.7,23.3,11.6,25.4,12.9,21.1z"/>
		<path d="M3.4,14.8c2.1-1,4.6-1.7,5.6-2C9,12.6,9,12.4,9,12.2c0-0.1,0-0.1,0-0.2c-0.7-0.5-2.1-1.7-3.5-2.9C5.2,9,4.9,9,4.5,9
			c-2.6,0.2-4,1.8-4,3.5C0.5,13.8,2,14.6,3.4,14.8z"/>
		<path d="M14.1,10c0.2,0.2,0.4,0.4,0.5,0.7l5.5-1.3c3.2-3.1,0.9-4.9-1.4-4.5C16.9,6.4,15,8.7,14.1,10z"/>
		<path d="M5.6,3.8C4.9,4.3,4.3,5.4,4.7,6.9C5.9,8.2,7.7,9.7,9.2,11c0.3-0.6,0.7-1.1,1.3-1.4c-0.3-1.7-0.8-3.1-1.3-4.3
			C8.1,4,6.7,3,5.6,3.8z"/>
	</g>
</g>
<g id="Outline_Icons">
	<g>
		<circle class="st2" cx="12" cy="12.2" r="2.5"/>
		<path class="st2" d="M11,9.9c-0.2-0.8-0.8-3.5-0.8-6.2c-0.1-3.3,7.4-5.5,6.7,2.2c-1.3,1.7-2.8,3.5-3.5,4.2"/>
		<path class="st2" d="M16.9,5.9c2.3-2.4,8-0.3,2.4,4.3c-2.5,0.6-4.1,0.9-4.9,1.2"/>
		<path class="st2" d="M19.2,10.1c4.4-0.4,4.4,4.2,3.8,5.3c-0.6,1.1-2.4,3.1-5.2,0.8c-1.7-1.4-2.9-2.4-3.6-2.9"/>
		<path class="st2" d="M17.8,16.2c2.6,4.2-2.8,7.1-4.3,2.7l-0.9-4.3"/>
		<path class="st2" d="M10.4,14.1c-0.5,0.7-1.5,2-3.2,4.2c-3.5,4.7,4.4,7.4,5.8,2.8c0.3-1.1,0.6-2.2,0.6-2.2"/>
		<path class="st2" d="M9.7,13.2c-0.8,0.3-2.4,0.7-4.8,1.5c-3.7,1.2-2.4,6,2.3,3.7"/>
		<path class="st2" d="M9.5,11.8c-1.8-1.2-2.6-2.9-5-2.8c-2.6,0.2-4,1.8-4,3.5c0,1.7,2.7,2.6,4.4,2.2"/>
		<path class="st2" d="M11,9.9C10.8,8.8,10.4,7.1,9.7,6c-1.1-1.7-2.8-3-4-2.2C4.4,4.6,3.6,7,6.9,9.7"/>
	</g>
</g>
</svg>
