<?xml version="1.0" encoding="utf-8"?>
<!-- Generator: Adobe Illustrator 19.2.0, SVG Export Plug-In . SVG Version: 6.00 Build 0)  -->
<svg version="1.1" id="Layer_1" xmlns="http://www.w3.org/2000/svg" xmlns:xlink="http://www.w3.org/1999/xlink" x="0px" y="0px"
	 viewBox="0 0 24 24" style="enable-background:new 0 0 24 24;" xml:space="preserve">
<style type="text/css">
	.st0{display:none;}
	.st1{display:inline;}
	.st2{fill:none;stroke:#000000;stroke-linejoin:round;stroke-miterlimit:10;}
	.st3{fill:none;stroke:#000000;stroke-linecap:round;stroke-linejoin:round;stroke-miterlimit:10;}
</style>
<g id="Filled_Icons" class="st0">
	<g class="st1">
		<ellipse cx="17.3" cy="13.2" rx="1.9" ry="1.8"/>
		<ellipse cx="12.4" cy="13.2" rx="1.9" ry="1.8"/>
		<path d="M12,0C5.4,0,0,5.4,0,12s5.4,12,12,12s12-5.4,12-12S18.6,0,12,0z M17.3,16c-1,0-1.9-0.5-2.4-1.2c-0.5,0.7-1.4,1.2-2.4,1.2
			c-1.3,0-2.4-0.8-2.8-2c-0.4,1.1-1.5,2-2.8,2c-1.1,0-2.1-0.6-2.6-1.6l0.9-0.4c0.3,0.7,1,1.1,1.7,1.1c1.1,0,1.9-0.9,1.9-1.9
			c0-1.1-0.9-1.9-1.9-1.9c-0.8,0-1.6,0.5-1.8,1.3c-0.1,0.4-0.7,0.5-0.9,0.2C4,12.5,4,12.3,4,12.2c0,0,0,0,0,0l0.6-3.8
			C4.6,8.2,4.8,8,5.1,8H9v1H5.5l-0.2,1.5c0.5-0.3,1-0.4,1.5-0.4c1.4,0,2.5,0.9,2.8,2.2c0.4-1.1,1.5-1.8,2.7-1.8c1,0,1.9,0.5,2.4,1.2
			c0.5-0.7,1.4-1.2,2.4-1.2c1.6,0,2.9,1.2,2.9,2.8C20.2,14.7,18.9,16,17.3,16z"/>
	</g>
</g>
<g id="Outline_Icons">
	<g>
		<g>
			<path class="st2" d="M9,8.5H5.1l-0.6,3.8h0c0.3-1,1.2-1.7,2.3-1.7c1.3,0,2.4,1.1,2.4,2.4c0,1.3-1.1,2.4-2.4,2.4
				c-1,0-1.8-0.6-2.2-1.4"/>
			<g>
				<ellipse class="st2" cx="12.4" cy="13.2" rx="2.4" ry="2.3"/>
				<ellipse class="st2" cx="17.3" cy="13.2" rx="2.4" ry="2.3"/>
			</g>
		</g>
		<circle class="st3" cx="12" cy="12" r="11.5"/>
	</g>
</g>
</svg>
