<?xml version="1.0" encoding="utf-8"?>
<!-- Generator: Adobe Illustrator 19.2.0, SVG Export Plug-In . SVG Version: 6.00 Build 0)  -->
<svg version="1.1" id="Layer_1" xmlns="http://www.w3.org/2000/svg" xmlns:xlink="http://www.w3.org/1999/xlink" x="0px" y="0px"
	 viewBox="0 0 24 24" style="enable-background:new 0 0 24 24;" xml:space="preserve">
<style type="text/css">
	.st0{display:none;}
	.st1{display:inline;}
	.st2{fill:none;stroke:#000000;stroke-linejoin:round;stroke-miterlimit:10;}
</style>
<g id="Filled_Icons" class="st0">
	<g class="st1">
		<g>
			<path d="M12.5,24h-1c0-6.4-5.2-11.5-11.5-11.5v-1C6.9,11.5,12.5,17.1,12.5,24z"/>
		</g>
		<g>
			<path d="M0,18.5V24h5.5C5.5,20.6,3.4,18.5,0,18.5z"/>
		</g>
		<g>
			<path d="M20,24h-1C19,13.5,10.5,5,0,5V4C11,4,20,13,20,24z"/>
		</g>
	</g>
</g>
<g id="Outline_Icons">
	<g>
		<path class="st2" d="M0,12c6.6,0,12,5.4,12,12"/>
		<path class="st2" d="M5,23.5C5,21,3,19,0.5,19v4.5H5z"/>
		<path class="st2" d="M0,4.5c10.8,0,19.5,8.7,19.5,19.5"/>
	</g>
</g>
</svg>
