<?xml version="1.0" encoding="utf-8"?>
<!-- Generator: Adobe Illustrator 19.2.0, SVG Export Plug-In . SVG Version: 6.00 Build 0)  -->
<svg version="1.1" id="Layer_1" xmlns="http://www.w3.org/2000/svg" xmlns:xlink="http://www.w3.org/1999/xlink" x="0px" y="0px"
	 viewBox="0 0 24 24" style="enable-background:new 0 0 24 24;" xml:space="preserve">
<style type="text/css">
	.st0{display:none;}
	.st1{display:inline;}
	.st2{fill:none;stroke:#000000;stroke-linejoin:round;stroke-miterlimit:10;}
</style>
<g id="Filled_Icons" class="st0">
	<g class="st1">
		<polygon points="23.5,5.5 12,11.5 0.5,5.5 0.5,2.5 23.5,2.5 		"/>
		<g>
			<polygon points="14.5,14.2 12,15.5 9.5,14.2 0.5,19.6 0.5,21.5 23.5,21.5 23.5,19.6 			"/>
			<polygon points="23.5,18.4 23.5,9.5 15.5,13.7 			"/>
			<polygon points="8.5,13.7 0.5,9.5 0.5,18.4 			"/>
		</g>
	</g>
</g>
<g id="Outline_Icons">
	<g>
		<polygon class="st2" points="23.5,5.5 12,11.5 0.5,5.5 0.5,2.5 23.5,2.5 		"/>
		<polygon class="st2" points="0.5,9.5 12,15.5 23.5,9.5 23.5,21.5 0.5,21.5 		"/>
		<line class="st2" x1="15" y1="13.9" x2="23.5" y2="19"/>
		<line class="st2" x1="9" y1="13.9" x2="0.5" y2="19"/>
	</g>
</g>
</svg>
