<?xml version="1.0" encoding="utf-8"?>
<!-- Generator: Adobe Illustrator 19.2.0, SVG Export Plug-In . SVG Version: 6.00 Build 0)  -->
<svg version="1.1" id="Layer_1" xmlns="http://www.w3.org/2000/svg" xmlns:xlink="http://www.w3.org/1999/xlink" x="0px" y="0px"
	 viewBox="0 0 24 24" style="enable-background:new 0 0 24 24;" xml:space="preserve">
<style type="text/css">
	.st0{display:none;}
	.st1{display:inline;}
	.st2{fill:none;stroke:#000000;stroke-linecap:round;stroke-linejoin:round;stroke-miterlimit:10;}
	.st3{fill:none;stroke:#000000;stroke-linejoin:round;stroke-miterlimit:10;}
</style>
<g id="Filled_Icons" class="st0">
	<g class="st1">
		<path d="M12,0C5.4,0,0,5.4,0,12s5.4,12,12,12s12-5.4,12-12S18.6,0,12,0z M13,16.9c-0.5,0-1,0-1.5-0.1c-0.3-0.1-5,1.6-5,1.6
			c1.1-1.1,1.7-2.1,1.6-3.1c-1.3-1-2.1-2.5-2.1-4.1c0-3.2,3.1-5.7,7-5.7s7,2.6,7,5.7S16.9,16.9,13,16.9z"/>
		<g>
			<path d="M16.2,14.8c-0.2,0-0.3-0.1-0.4-0.2c-0.2-0.2-0.1-0.5,0.1-0.7c0.9-0.7,1.4-1.6,1.4-2.6c0-1.6-1.4-3-3.3-3.4
				c-0.3-0.1-0.4-0.3-0.4-0.6C13.8,7.1,14,6.9,14.3,7c2.4,0.5,4.1,2.3,4.1,4.3c0,1.3-0.7,2.5-1.9,3.4C16.4,14.8,16.3,14.8,16.2,14.8
				z"/>
		</g>
	</g>
</g>
<g id="Outline_Icons">
	<g>
		<circle class="st2" cx="12" cy="12" r="11.5"/>
		<g>
			<g>
				<path class="st3" d="M11.5,16.8c-0.3-0.1-5,1.6-5,1.6c1.1-1.1,1.7-2.1,1.6-3.1c-1.3-1-2.1-2.5-2.1-4.1c0-3.2,3.1-5.7,7-5.7
					s7,2.6,7,5.7s-3.1,5.7-7,5.7C12.5,16.9,12,16.9,11.5,16.8z"/>
			</g>
			<path class="st2" d="M14.2,7.5c2.1,0.4,3.7,2,3.7,3.9c0,1.2-0.6,2.3-1.7,3"/>
		</g>
	</g>
</g>
</svg>
