<?xml version="1.0" encoding="utf-8"?>
<!-- Generator: Adobe Illustrator 19.2.0, SVG Export Plug-In . SVG Version: 6.00 Build 0)  -->
<svg version="1.1" id="Layer_1" xmlns="http://www.w3.org/2000/svg" xmlns:xlink="http://www.w3.org/1999/xlink" x="0px" y="0px"
	 viewBox="0 0 24 24" style="enable-background:new 0 0 24 24;" xml:space="preserve">
<style type="text/css">
	.st0{display:none;}
	.st1{display:inline;}
	.st2{fill:none;stroke:#000000;stroke-linecap:round;stroke-linejoin:round;stroke-miterlimit:10;}
	.st3{fill:none;stroke:#000000;stroke-linejoin:round;stroke-miterlimit:10;}
</style>
<g id="Filled_Icons" class="st0">
	<g class="st1">
		<path d="M12,0C5.4,0,0,5.4,0,12s5.4,12,12,12s12-5.4,12-12S18.6,0,12,0z M18.5,13.1v4.2c0,0.7-0.5,1.2-1.2,1.2h-4.2H9.9
			c-1.4,0-2.6-0.5-3.6-1.4c-1.1-1-1.8-2.4-1.8-4V9.9c0-3,2.4-5.4,5.4-5.4h3.2c1.5,0,2.9,0.6,3.9,1.7c0.9,1,1.5,2.3,1.5,3.7V13.1z"/>
		<g>
			<path d="M13,15.6c-0.1,0-0.2,0-0.3-0.1c-0.2-0.2-0.3-0.5-0.1-0.7c0.6-0.9,1-2,1-3c0-1.2-0.4-2.4-1.2-3.4
				c-0.2-0.2-0.1-0.5,0.1-0.7c0.2-0.2,0.5-0.1,0.7,0.1c0.9,1.1,1.4,2.6,1.4,4c0,1.3-0.4,2.6-1.1,3.6C13.3,15.6,13.2,15.6,13,15.6z"
				/>
		</g>
		<g>
			<path d="M8.6,15.6c-0.1,0-0.2,0-0.3-0.1c-0.2-0.1-0.3-0.4-0.2-0.7l1.5-2.5c0.1-0.2,0.5-0.3,0.7-0.2c0.2,0.1,0.3,0.4,0.2,0.7
				L9,15.4C8.9,15.6,8.8,15.6,8.6,15.6z"/>
		</g>
		<g>
			<path d="M9.8,8.8c0.3,0,0.6,0.3,0.6,0.6c0,0.3-0.3,0.6-0.6,0.6S9.2,9.7,9.2,9.4C9.2,9.1,9.5,8.8,9.8,8.8L9.8,8.8z"/>
		</g>
	</g>
</g>
<g id="Outline_Icons">
	<g>
		<circle class="st2" cx="12" cy="12" r="11.5"/>
		<g>
			<path class="st3" d="M17,6.2L17,6.2L17,6.2L17,6.2z M4.5,9.9v3.2c0,1.6,0.7,3,1.8,4c0.9,0.9,2.2,1.4,3.6,1.4h3.2h4.2
				c0.7,0,1.2-0.5,1.2-1.2v-4.2V9.9c0-1.5-0.6-2.8-1.5-3.7l0,0c-1-1-2.4-1.7-3.9-1.7H9.9C6.9,4.5,4.5,6.9,4.5,9.9L4.5,9.9z"/>
			<path class="st2" d="M12.7,8.1c0.8,1,1.3,2.3,1.3,3.7c0,1.2-0.4,2.4-1,3.3"/>
			<line class="st2" x1="8.6" y1="15.1" x2="10.1" y2="12.6"/>
			<path class="st3" d="M9.8,8.8c0.3,0,0.6,0.3,0.6,0.6c0,0.3-0.3,0.6-0.6,0.6S9.2,9.7,9.2,9.4C9.2,9.1,9.5,8.8,9.8,8.8L9.8,8.8z"/>
		</g>
	</g>
</g>
</svg>
