<?xml version="1.0" encoding="utf-8"?>
<!-- Generator: Adobe Illustrator 19.2.0, SVG Export Plug-In . SVG Version: 6.00 Build 0)  -->
<svg version="1.1" id="Layer_1" xmlns="http://www.w3.org/2000/svg" xmlns:xlink="http://www.w3.org/1999/xlink" x="0px" y="0px"
	 viewBox="0 0 24 24" style="enable-background:new 0 0 24 24;" xml:space="preserve">
<style type="text/css">
	.st0{display:none;}
	.st1{display:inline;}
	.st2{fill:none;stroke:#000000;stroke-linecap:round;stroke-linejoin:round;stroke-miterlimit:10;}
</style>
<g id="Filled_Icons" class="st0">
	<g class="st1">
		<path d="M16.5,10c-1.2,0-2.2,0.9-2.4,2H19C18.7,10.9,17.7,10,16.5,10z"/>
		<path d="M12,0C5.4,0,0,5.4,0,12s5.4,12,12,12s12-5.4,12-12S18.6,0,12,0z M12,15.5c0,0.3-0.2,0.5-0.5,0.5S11,15.8,11,15.5V11
			c0-0.6-0.4-1-1-1s-1,0.4-1,1v4.5C9,15.8,8.8,16,8.5,16S8,15.8,8,15.5V11c0-0.6-0.4-1-1-1s-1,0.4-1,1v4.5C6,15.8,5.8,16,5.5,16
			S5,15.8,5,15.5V11V9c0-0.3,0.2-0.5,0.5-0.5S6,8.7,6,9v0.3C6.3,9.1,6.6,9,7,9c0.6,0,1.1,0.3,1.5,0.7C8.9,9.3,9.4,9,10,9
			c1.1,0,2,0.9,2,2V15.5z M19.5,13h-5.4c0.2,1.1,1.2,2,2.4,2c0.7,0,1.3-0.3,1.8-0.7c0.2-0.2,0.5-0.2,0.7,0c0.2,0.2,0.2,0.5,0,0.7
			c-0.7,0.7-1.5,1-2.5,1c-1.9,0-3.5-1.6-3.5-3.5S14.6,9,16.5,9s3.5,1.6,3.5,3.5C20,12.8,19.8,13,19.5,13z"/>
	</g>
</g>
<g id="Outline_Icons">
	<g>
		<line class="st2" x1="5.5" y1="9" x2="5.5" y2="15.5"/>
		<circle class="st2" cx="12" cy="12" r="11.5"/>
		<path class="st2" d="M8.5,15.5V11c0-0.8-0.7-1.5-1.5-1.5S5.5,10.2,5.5,11v4.5"/>
		<path class="st2" d="M11.5,15.5V11c0-0.8-0.7-1.5-1.5-1.5S8.5,10.2,8.5,11v4.5"/>
		<path class="st2" d="M18.6,14.6c-0.5,0.5-1.3,0.9-2.1,0.9c-1.7,0-3-1.3-3-3s1.3-3,3-3c1.7,0,3,1.3,3,3h-6"/>
	</g>
</g>
</svg>
