<?xml version="1.0" encoding="utf-8"?>
<!-- Generator: Adobe Illustrator 19.2.0, SVG Export Plug-In . SVG Version: 6.00 Build 0)  -->
<svg version="1.1" id="Layer_1" xmlns="http://www.w3.org/2000/svg" xmlns:xlink="http://www.w3.org/1999/xlink" x="0px" y="0px"
	 viewBox="0 0 24 24" style="enable-background:new 0 0 24 24;" xml:space="preserve">
<style type="text/css">
	.st0{display:none;}
	.st1{display:inline;}
	.st2{fill:none;stroke:#000000;stroke-linecap:round;stroke-linejoin:round;stroke-miterlimit:10;}
	.st3{fill:none;stroke:#000000;stroke-linejoin:round;stroke-miterlimit:10;}
</style>
<g id="Filled_Icons" class="st0">
	<path class="st1" d="M12,0C5.4,0,0,5.4,0,12s5.4,12,12,12s12-5.4,12-12S18.6,0,12,0z M9.8,17.2c-0.7-0.5-1.4-0.9-2.5-0.9
		c-0.6,0-1.4,0.2-2.3,0.5l1.2-4.3c1-0.4,1.9-0.6,2.5-0.6c1,0,1.8,0.4,2.4,0.8C10.9,13.4,10,16.3,9.8,17.2z M8.9,9.7
		c-0.8,0-1.6,0.2-2.4,0.6L7.7,6c0.9-0.4,1.7-0.5,2.3-0.5c0.8,0,1.4,0.2,2.5,0.8v0c-0.3,0.9-1,3.5-1.3,4.3C10.6,10.1,9.9,9.7,8.9,9.7
		z M16.4,18c-1,0.4-1.8,0.6-2.5,0.6c-1.1,0-2.5-0.9-2.5-0.9l1.2-4.3c0.4,0.3,1.2,0.9,2.7,0.9c0.7,0,1.4-0.1,2.3-0.4L16.4,18z
		 M17.9,11.4C17.9,11.4,17.9,11.4,17.9,11.4C17.9,11.4,17.9,11.4,17.9,11.4c-0.9,0.4-1.7,0.6-2.4,0.6c-1.1,0-2-0.4-2.7-0.8
		c0,0,0,0,0,0l1.3-4.3c0.4,0.3,1.3,0.9,2.6,0.9c0.7,0,1.5-0.1,2.4-0.5L17.9,11.4z"/>
</g>
<g id="Outline_Icons">
	<g>
		<circle class="st2" cx="12" cy="12" r="11.5"/>
		<g>
			<g>
				<path id="SVGID_1_" class="st3" d="M13.9,18.5c-1.1,0-2.5-0.9-2.5-0.9l1.2-4.3c0.4,0.3,1.2,0.9,2.7,0.9c0.7,0,1.4-0.1,2.3-0.4
					L16.4,18C15.4,18.4,14.6,18.5,13.9,18.5"/>
			</g>
		</g>
		<g>
			<g>
				<path id="SVGID_3_" class="st3" d="M9.8,17.2c-0.7-0.5-1.4-0.9-2.5-0.9c-0.6,0-1.4,0.2-2.3,0.5l1.2-4.3c1-0.4,1.9-0.6,2.5-0.6
					c1,0,1.8,0.4,2.4,0.8C10.9,13.4,10,16.3,9.8,17.2z"/>
			</g>
		</g>
		<g>
			<g>
				<path id="SVGID_5_" class="st3" d="M12.6,6.3L12.6,6.3c-0.3,0.9-1,3.5-1.3,4.3c-0.7-0.4-1.4-0.8-2.4-0.9c-0.8,0-1.6,0.2-2.4,0.6
					L7.7,6c0.9-0.4,1.7-0.5,2.3-0.5C10.9,5.5,11.5,5.6,12.6,6.3z"/>
			</g>
		</g>
		<g>
			<g>
				<path id="SVGID_7_" class="st3" d="M15.6,12c-1.1,0-2-0.4-2.7-0.8c0,0,0,0,0,0l1.3-4.3c0.4,0.3,1.3,0.9,2.6,0.9
					c0.7,0,1.5-0.1,2.4-0.5l-1.2,4.3c0,0,0,0,0,0c0,0,0,0,0,0C17.1,11.8,16.3,12,15.6,12"/>
			</g>
		</g>
	</g>
</g>
</svg>
