<?xml version="1.0" encoding="utf-8"?>
<!-- Generator: Adobe Illustrator 19.2.0, SVG Export Plug-In . SVG Version: 6.00 Build 0)  -->
<svg version="1.1" id="Layer_1" xmlns="http://www.w3.org/2000/svg" xmlns:xlink="http://www.w3.org/1999/xlink" x="0px" y="0px"
	 viewBox="0 0 24 24" style="enable-background:new 0 0 24 24;" xml:space="preserve">
<style type="text/css">
	.st0{display:none;}
	.st1{display:inline;}
	.st2{fill:none;stroke:#000000;stroke-linejoin:round;stroke-miterlimit:10;}
</style>
<g id="Filled_Icons" class="st0">
	<g class="st1">
		<path d="M16.8,6h-4.7c-0.2,0-0.4,0.1-0.5,0.3l-2.9,7.9L5.8,6.3C5.8,6.1,5.6,6,5.4,6H0.5C0.3,6,0.2,6.1,0.1,6.2C0,6.4,0,6.5,0,6.7
			l5.7,14.1c0.1,0.2,0.3,0.3,0.5,0.3h5c0.2,0,0.4-0.1,0.5-0.3l5.6-14.1c0.1-0.2,0-0.3-0.1-0.5C17.1,6.1,17,6,16.8,6z"/>
		<circle cx="21.1" cy="8.9" r="2.9"/>
	</g>
</g>
<g id="Outline_Icons">
	<g>
		<path class="st2" d="M11.2,20.6h-5L0.5,6.5h4.9l3.4,9.2l3.3-9.2h4.7L11.2,20.6z M23.5,8.9c0-1.3-1.1-2.4-2.4-2.4s-2.4,1.1-2.4,2.4
			c0,1.3,1.1,2.4,2.4,2.4C22.4,11.3,23.5,10.2,23.5,8.9"/>
	</g>
</g>
</svg>
