<?xml version="1.0" encoding="utf-8"?>
<!-- Generator: Adobe Illustrator 19.2.0, SVG Export Plug-In . SVG Version: 6.00 Build 0)  -->
<svg version="1.1" id="Layer_1" xmlns="http://www.w3.org/2000/svg" xmlns:xlink="http://www.w3.org/1999/xlink" x="0px" y="0px"
	 viewBox="0 0 24 24" style="enable-background:new 0 0 24 24;" xml:space="preserve">
<style type="text/css">
	.st0{display:none;}
	.st1{display:inline;}
	.st2{fill:none;stroke:#000000;stroke-linejoin:round;stroke-miterlimit:10;}
</style>
<g id="Filled_Icons" class="st0">
	<g class="st1">
		<path d="M2.3,18.5h0.9c0,0.3,0.1,1.2-0.4,2.1c0,0,2.4-0.1,2.9-2.1h16c1,0,1.8-0.8,1.8-1.8V5.3c0-1-0.8-1.8-1.8-1.8H2.3
			c-1,0-1.8,0.8-1.8,1.8v11.4C0.5,17.7,1.3,18.5,2.3,18.5 M19.8,11.2c0.5,0,0.9,0.4,0.9,0.9c0,0.5-0.4,0.9-0.9,0.9s-0.9-0.4-0.9-0.9
			C18.9,11.6,19.3,11.2,19.8,11.2 M14.6,13.9c0.1,1.4-1,2.4-2.2,2.4c-1,0-1.8-0.6-2.1-1.5L14.6,13.9z M4.3,11.2
			c0.5,0,0.9,0.4,0.9,0.9c0,0.5-0.4,0.9-0.9,0.9s-0.9-0.4-0.9-0.9C3.5,11.6,3.8,11.2,4.3,11.2"/>
	</g>
</g>
<g id="Outline_Icons">
	<g>
		<path class="st2" d="M2.3,18.5h0.9c0,0.3,0.1,1.2-0.4,2.1c0,0,2.4-0.1,2.9-2.1h16c1,0,1.8-0.8,1.8-1.8V5.3c0-1-0.8-1.8-1.8-1.8
			H2.3c-1,0-1.8,0.8-1.8,1.8v11.4C0.5,17.7,1.3,18.5,2.3,18.5 M19.8,11.2c0.5,0,0.9,0.4,0.9,0.9c0,0.5-0.4,0.9-0.9,0.9
			s-0.9-0.4-0.9-0.9C18.9,11.6,19.3,11.2,19.8,11.2 M14.6,13.9c0,0.1,0,0.1,0,0.2c0,1.2-1,2.2-2.2,2.2c-1,0-1.8-0.6-2.1-1.5
			L14.6,13.9z M4.3,11.2c0.5,0,0.9,0.4,0.9,0.9c0,0.5-0.4,0.9-0.9,0.9s-0.9-0.4-0.9-0.9C3.5,11.6,3.8,11.2,4.3,11.2"/>
	</g>
</g>
</svg>
