<?xml version="1.0" encoding="utf-8"?>
<!-- Generator: Adobe Illustrator 19.2.0, SVG Export Plug-In . SVG Version: 6.00 Build 0)  -->
<svg version="1.1" id="Layer_1" xmlns="http://www.w3.org/2000/svg" xmlns:xlink="http://www.w3.org/1999/xlink" x="0px" y="0px"
	 viewBox="0 0 24 24" style="enable-background:new 0 0 24 24;" xml:space="preserve">
<style type="text/css">
	.st0{display:none;}
	.st1{display:inline;}
	.st2{fill:none;stroke:#000000;stroke-linejoin:round;stroke-miterlimit:10;}
</style>
<g id="Filled_Icons" class="st0">
	<g class="st1">
		<path d="M6.7,9.1c0.1,2-0.9,3.6-2.4,3.7c-1.4,0.1-2.7-1.4-2.9-3.4c-0.1-2,0.9-3.6,2.4-3.7C5.3,5.6,6.6,7.1,6.7,9.1 M16.7,1
			c-1.4-0.4-2.9,0.9-3.4,2.8c-0.5,1.9,0.3,3.7,1.7,4.1c1.4,0.4,2.9-0.9,3.4-2.8C19,2.6,17,1.1,16.7,1 M20,7.4
			c-1.5,0-2.6,1.4-2.6,3.6c0,2.2,1.3,3.2,2.7,3.1c1.5,0,2.6-1,2.6-3.2C22.7,8.1,20.3,7.4,20,7.4 M9.3,0.5C7.9,0.5,6.7,2.1,6.7,4
			s1.1,3.5,2.5,3.5S11.8,6,11.8,4C11.8,2.1,10.7,0.5,9.3,0.5 M9,11.4c-2.9,4.2-6.1,4.8-6.1,7.8c0,1.5,0.9,4,3.3,4s3.7-0.5,5.6-0.5
			c1.9,0,3.2,0.8,5.7,0.8s3.6-2.3,3.5-3.8c-0.2-3.2-3.3-2.9-6.4-8.5c-0.8-1.2-1.8-1.3-2.8-1.3S9.8,10.3,9,11.4"/>
	</g>
</g>
<g id="Outline_Icons">
	<g>
		<path class="st2" d="M6.7,9.1c0.1,2-0.9,3.6-2.4,3.7c-1.4,0.1-2.7-1.4-2.9-3.4c-0.1-2,0.9-3.6,2.4-3.7C5.3,5.6,6.6,7.1,6.7,9.1
			 M16.7,1c-1.4-0.4-2.9,0.9-3.4,2.8c-0.5,1.9,0.3,3.7,1.7,4.1c1.4,0.4,2.9-0.9,3.4-2.8C19,2.6,17,1.1,16.7,1 M20,7.4
			c-1.5,0-2.6,1.4-2.6,3.6c0,2.2,1.3,3.2,2.7,3.1c1.5,0,2.6-1,2.6-3.2C22.7,8.1,20.3,7.4,20,7.4 M9.3,0.5C7.9,0.5,6.7,2.1,6.7,4
			s1.1,3.5,2.5,3.5S11.8,6,11.8,4C11.8,2.1,10.7,0.5,9.3,0.5 M9,11.4c-2.9,4.2-6.1,4.8-6.1,7.8c0,1.5,0.9,4,3.3,4s3.7-0.5,5.6-0.5
			c1.9,0,3.2,0.8,5.7,0.8s3.6-2.3,3.5-3.8c-0.2-3.2-3.3-2.9-6.4-8.5c-0.8-1.2-1.8-1.3-2.8-1.3S9.8,10.3,9,11.4"/>
	</g>
</g>
</svg>
