<?xml version="1.0" encoding="utf-8"?>
<!-- Generator: Adobe Illustrator 19.2.0, SVG Export Plug-In . SVG Version: 6.00 Build 0)  -->
<svg version="1.1" id="Layer_1" xmlns="http://www.w3.org/2000/svg" xmlns:xlink="http://www.w3.org/1999/xlink" x="0px" y="0px"
	 viewBox="0 0 24 24" style="enable-background:new 0 0 24 24;" xml:space="preserve">
<style type="text/css">
	.st0{display:none;}
	.st1{display:inline;}
	.st2{fill:none;stroke:#000000;stroke-linecap:round;stroke-linejoin:round;stroke-miterlimit:10;}
</style>
<g id="Filled_Icons" class="st0">
	<path class="st1" d="M12,0C5.4,0,0,5.4,0,12s5.4,12,12,12s12-5.4,12-12S18.6,0,12,0z M18,14.5c0,1.4-1.1,2.5-2.5,2.5
		c-1.4,0-2.5-1.1-2.5-2.5v-3.8c0-0.4-0.3-0.7-0.7-0.7H8.8c-0.7,0-1.2,0.6-1.2,1.3c0,0.7,0.6,1.2,1.2,1.2c1.2,0,2.2,1,2.2,2.2
		C11,16,10.1,17,8.8,17H4.5C4.2,17,4,16.8,4,16.5S4.2,16,4.5,16h4.3c0.7,0,1.2-0.5,1.2-1.2c0-0.7-0.5-1.2-1.2-1.2
		c-1.2,0-2.2-1-2.2-2.2c0-1.2,1-2.3,2.2-2.3h3.5c0.9,0,1.7,0.8,1.7,1.7v3.8c0,0.9,0.7,1.5,1.5,1.5c0.8,0,1.5-0.7,1.5-1.5v-9
		C17,5.2,17.2,5,17.5,5C17.8,5,18,5.2,18,5.5V14.5z"/>
</g>
<g id="Outline_Icons">
	<g>
		<circle class="st2" cx="12" cy="12" r="11.5"/>
		<path class="st2" d="M4.5,16.5h4.3c1,0,1.7-0.8,1.7-1.7c0-1-0.7-1.7-1.7-1.7s-1.7-0.8-1.7-1.7c0-1,0.8-1.8,1.7-1.8h3.5
			c0.6,0,1.2,0.6,1.2,1.2v3.8c0,1.1,0.9,2,2,2c1.1,0,2-0.9,2-2v-9"/>
	</g>
</g>
</svg>
