<?xml version="1.0" encoding="utf-8"?>
<!-- Generator: Adobe Illustrator 19.2.0, SVG Export Plug-In . SVG Version: 6.00 Build 0)  -->
<svg version="1.1" id="Layer_1" xmlns="http://www.w3.org/2000/svg" xmlns:xlink="http://www.w3.org/1999/xlink" x="0px" y="0px"
	 viewBox="0 0 24 24" style="enable-background:new 0 0 24 24;" xml:space="preserve">
<style type="text/css">
	.st0{display:none;}
	.st1{display:inline;}
	.st2{fill:none;stroke:#000000;stroke-linecap:round;stroke-linejoin:round;stroke-miterlimit:10;}
</style>
<g id="Filled_Icons" class="st0">
	<path class="st1" d="M23,12.5c0-0.3-0.1-0.5-0.3-0.7l-5-5c-0.4-0.4-1-0.4-1.4,0c-0.4,0.4-0.4,1,0,1.4l3.3,3.3H15v-10
		C15,1.2,14.8,1,14.5,1h-13C1.2,1,1,1.2,1,1.5v21C1,22.8,1.2,23,1.5,23h13c0.3,0,0.5-0.2,0.5-0.5v-9h4.6l-3.3,3.3
		c-0.4,0.4-0.4,1,0,1.4c0.2,0.2,0.5,0.3,0.7,0.3c0.3,0,0.5-0.1,0.7-0.3l5-5c0.1-0.1,0.2-0.2,0.2-0.4c0-0.1,0-0.1,0-0.2
		C23,12.6,23,12.6,23,12.5C23,12.5,23,12.5,23,12.5z M22.3,12.9l-5,5C17.3,17.9,17.1,18,17,18c-0.1,0-0.3,0-0.4-0.1
		c-0.2-0.2-0.2-0.5,0-0.7l4.1-4.1H5.5C5.2,13,5,12.8,5,12.5C5,12.2,5.2,12,5.5,12h15.3l-4.2-4.2c-0.2-0.2-0.2-0.5,0-0.7
		c0.2-0.2,0.5-0.2,0.7,0l5,5c0.1,0.1,0.1,0.2,0.1,0.4c0,0,0,0,0,0C22.5,12.6,22.4,12.8,22.3,12.9z"/>
</g>
<g id="Outline_Icons">
	<g>
		<polyline class="st2" points="14.5,19.5 14.5,22.5 1.5,22.5 1.5,1.5 14.5,1.5 14.5,5.5 		"/>
		<g>
			<line class="st2" x1="5.5" y1="12.5" x2="22.5" y2="12.5"/>
			<polyline class="st2" points="17.5,7.5 22.5,12.5 17.5,17.5 			"/>
		</g>
	</g>
</g>
</svg>
