<?xml version="1.0" encoding="utf-8"?>
<!-- Generator: Adobe Illustrator 19.2.0, SVG Export Plug-In . SVG Version: 6.00 Build 0)  -->
<svg version="1.1" id="Layer_1" xmlns="http://www.w3.org/2000/svg" xmlns:xlink="http://www.w3.org/1999/xlink" x="0px" y="0px"
	 viewBox="0 0 24 24" style="enable-background:new 0 0 24 24;" xml:space="preserve">
<style type="text/css">
	.st0{display:none;}
	.st1{display:inline;}
	.st2{fill:none;stroke:#000000;stroke-linejoin:round;stroke-miterlimit:10;}
</style>
<g id="Filled_Icons" class="st0">
	<g class="st1">
		<path d="M22.5,14.4c0.2-0.8,0.2-1.5,0.2-2.3c0-6-4.8-10.8-10.8-10.8c-0.6,0-1.2,0.1-1.9,0.2c-1-0.6-2.1-1-3.3-1
			c-3.5,0-6.3,2.8-6.3,6.3c0,1.2,0.3,2.2,0.9,3.2c-0.1,0.7-0.2,1.4-0.2,2.2c0,6,4.8,10.8,10.8,10.8c0.7,0,1.3-0.1,2-0.2
			c0.9,0.5,1.9,0.7,3,0.7c3.5,0,6.3-2.8,6.3-6.3C23.2,16.2,22.9,15.3,22.5,14.4z M11.9,19.6c-4.8,0-6.3-2.8-6.3-4.4
			c0-0.4,0.2-0.7,0.5-1c0.3-0.3,0.7-0.4,1.1-0.4c0.4,0,0.7,0.1,1,0.3c1,0.9,0.7,3,3.7,3c1.3,0,3-0.6,3-1.9c0-1.5-2-1.8-3.6-2.2
			c-2.8-0.6-5.4-1.5-5.4-4.4c0-2.9,2.9-4.1,6-4.1c4,0,5.7,2.1,5.7,3.6c0,0.8-0.6,1.5-1.6,1.5c-0.4,0-0.7-0.1-0.9-0.3
			c-1-0.9-0.8-2.5-3.4-2.5c-0.8,0-1.4,0.2-1.9,0.5C9,7.9,9,8.6,9.4,9c0.6,0.7,2.1,1,3,1.2c3.3,0.7,5.9,1.6,5.9,4.7
			C18.3,18,15.3,19.6,11.9,19.6z"/>
	</g>
</g>
<g id="Outline_Icons">
	<g>
		<path class="st2" d="M22.5,14.4c0.2-0.8,0.2-1.5,0.2-2.3c0-6-4.8-10.8-10.8-10.8c-0.6,0-1.2,0.1-1.9,0.2c-1-0.6-2.1-1-3.3-1
			c-3.5,0-6.3,2.8-6.3,6.3c0,1.2,0.3,2.2,0.9,3.2c-0.1,0.7-0.2,1.4-0.2,2.2c0,6,4.8,10.8,10.8,10.8c0.7,0,1.3-0.1,2-0.2
			c0.9,0.5,1.9,0.7,3,0.7c3.5,0,6.3-2.8,6.3-6.3C23.2,16.2,22.9,15.3,22.5,14.4z M17.5,17.3C17,18,16.3,18.6,15.3,19
			c-0.9,0.4-2.1,0.6-3.4,0.6c-1.6,0-2.9-0.3-3.9-0.8c-0.7-0.4-1.3-0.9-1.8-1.6c-0.5-0.7-0.7-1.3-0.7-2c0-0.4,0.2-0.7,0.5-1
			c0.3-0.3,0.7-0.4,1.1-0.4c0.4,0,0.7,0.1,1,0.3c0.2,0.2,0.5,0.5,0.6,0.9c0.2,0.4,0.4,0.8,0.6,1.1c0.2,0.3,0.5,0.5,0.9,0.7
			c0.4,0.2,0.9,0.3,1.6,0.3c0.9,0,1.6-0.2,2.2-0.6c0.5-0.4,0.8-0.8,0.8-1.4c0-0.4-0.1-0.8-0.4-1c-0.3-0.3-0.7-0.5-1.2-0.6
			c-0.5-0.2-1.2-0.3-2-0.5c-1.1-0.2-2.1-0.5-2.8-0.8c-0.8-0.3-1.4-0.8-1.9-1.4c-0.5-0.6-0.7-1.3-0.7-2.2c0-0.8,0.2-1.6,0.7-2.2
			C7.1,5.8,7.8,5.3,8.7,5c0.9-0.3,2-0.5,3.2-0.5c1,0,1.8,0.1,2.5,0.3c0.7,0.2,1.3,0.5,1.8,0.9c0.5,0.4,0.8,0.8,1.1,1.2
			c0.2,0.4,0.3,0.8,0.3,1.2c0,0.4-0.1,0.7-0.4,1c-0.3,0.3-0.7,0.5-1.1,0.5c-0.4,0-0.7-0.1-0.9-0.3c-0.2-0.2-0.4-0.5-0.6-0.9
			c-0.3-0.5-0.6-0.9-1-1.2c-0.4-0.3-1-0.4-1.8-0.4c-0.8,0-1.4,0.2-1.9,0.5C9.4,7.6,9.1,8,9.1,8.4c0,0.2,0.1,0.5,0.2,0.6
			C9.5,9.2,9.7,9.4,10,9.5c0.3,0.1,0.6,0.3,0.9,0.3c0.3,0.1,0.8,0.2,1.5,0.4c0.9,0.2,1.7,0.4,2.4,0.6c0.7,0.2,1.3,0.5,1.9,0.8
			c0.5,0.3,0.9,0.8,1.2,1.3c0.3,0.5,0.4,1.2,0.4,1.9C18.3,15.8,18,16.6,17.5,17.3z"/>
	</g>
</g>
</svg>
