<?xml version="1.0" encoding="utf-8"?>
<!-- Generator: Adobe Illustrator 19.2.0, SVG Export Plug-In . SVG Version: 6.00 Build 0)  -->
<svg version="1.1" id="Layer_1" xmlns="http://www.w3.org/2000/svg" xmlns:xlink="http://www.w3.org/1999/xlink" x="0px" y="0px"
	 viewBox="0 0 24 24" style="enable-background:new 0 0 24 24;" xml:space="preserve">
<style type="text/css">
	.st0{display:none;}
	.st1{display:inline;}
	.st2{fill:none;stroke:#000000;stroke-linejoin:round;stroke-miterlimit:10;}
</style>
<g id="Filled_Icons" class="st0">
	<g class="st1">
		<path d="M4.6,8.5c-1.5,0-3.1,0-3.1,0l0.8-4c0,0,2.2,0,3,0c1.9,0,2.4,1,2.4,1.8C7.8,7.3,7.1,8.5,4.6,8.5z"/>
		<path d="M12.6,8.5c-1.5,0-3.1,0-3.1,0l0.8-4c0,0,2.2,0,3,0c1.9,0,2.4,1,2.4,1.8C15.8,7.3,15.1,8.5,12.6,8.5z"/>
		<path d="M20.3,11.5c-1.5,0-3.1,0-3.1,0l0.8-4c0,0,2.2,0,3,0c1.9,0,2.4,1,2.4,1.8C23.4,10.3,22.7,11.5,20.3,11.5z"/>
		<path d="M19.3,17.5c-1.5,0-3.1,0-3.1,0l0.8-4c0,0,2.2,0,3,0c1.9,0,2.4,1,2.4,1.8C22.4,16.3,21.7,17.5,19.3,17.5z"/>
		<path d="M3.6,14.5c-1.5,0-3.1,0-3.1,0l0.8-4c0,0,2.2,0,3,0c1.9,0,2.4,1,2.4,1.8C6.8,13.3,6.1,14.5,3.6,14.5z"/>
		<path d="M11.6,14.5c-1.5,0-3.1,0-3.1,0l0.8-4c0,0,2.2,0,3,0c1.9,0,2.4,1,2.4,1.8C14.8,13.3,14.1,14.5,11.6,14.5z"/>
		<path d="M10.6,20.5c-1.5,0-3.1,0-3.1,0l0.8-4c0,0,2.2,0,3,0c1.9,0,2.4,1,2.4,1.8C13.8,19.3,13.1,20.5,10.6,20.5z"/>
	</g>
</g>
<g id="Outline_Icons">
	<g>
		<path class="st2" d="M4.6,8.5c-1.5,0-3.1,0-3.1,0l0.8-4c0,0,2.2,0,3,0c1.9,0,2.4,1,2.4,1.8C7.8,7.3,7.1,8.5,4.6,8.5z"/>
		<path class="st2" d="M12.6,8.5c-1.5,0-3.1,0-3.1,0l0.8-4c0,0,2.2,0,3,0c1.9,0,2.4,1,2.4,1.8C15.8,7.3,15.1,8.5,12.6,8.5z"/>
		<path class="st2" d="M20.3,11.5c-1.5,0-3.1,0-3.1,0l0.8-4c0,0,2.2,0,3,0c1.9,0,2.4,1,2.4,1.8C23.4,10.3,22.7,11.5,20.3,11.5z"/>
		<path class="st2" d="M19.3,17.5c-1.5,0-3.1,0-3.1,0l0.8-4c0,0,2.2,0,3,0c1.9,0,2.4,1,2.4,1.8C22.4,16.3,21.7,17.5,19.3,17.5z"/>
		<path class="st2" d="M3.6,14.5c-1.5,0-3.1,0-3.1,0l0.8-4c0,0,2.2,0,3,0c1.9,0,2.4,1,2.4,1.8C6.8,13.3,6.1,14.5,3.6,14.5z"/>
		<path class="st2" d="M11.6,14.5c-1.5,0-3.1,0-3.1,0l0.8-4c0,0,2.2,0,3,0c1.9,0,2.4,1,2.4,1.8C14.8,13.3,14.1,14.5,11.6,14.5z"/>
		<path class="st2" d="M10.6,20.5c-1.5,0-3.1,0-3.1,0l0.8-4c0,0,2.2,0,3,0c1.9,0,2.4,1,2.4,1.8C13.8,19.3,13.1,20.5,10.6,20.5z"/>
	</g>
</g>
</svg>
