<?xml version="1.0" encoding="utf-8"?>
<!-- Generator: Adobe Illustrator 19.2.0, SVG Export Plug-In . SVG Version: 6.00 Build 0)  -->
<svg version="1.1" id="Layer_1" xmlns="http://www.w3.org/2000/svg" xmlns:xlink="http://www.w3.org/1999/xlink" x="0px" y="0px"
	 viewBox="0 0 24 24" style="enable-background:new 0 0 24 24;" xml:space="preserve">
<style type="text/css">
	.st0{display:none;}
	.st1{display:inline;}
	.st2{fill:none;stroke:#000000;stroke-linejoin:round;stroke-miterlimit:10;}
	.st3{fill:none;stroke:#000000;stroke-linecap:round;stroke-linejoin:round;stroke-miterlimit:10;}
</style>
<g id="Filled_Icons" class="st0">
	<g class="st1">
		<path d="M11.3,5.6L7.2,1.6C3.3,3.4,0.5,7.4,0.5,12c0,1.3,0.2,2.6,0.6,3.8L11.3,5.6z"/>
		<polygon points="8,16 16,16 16,10.3 12,6.3 8,10.3 		"/>
		<path d="M16,1.2c-1.2-0.5-2.6-0.7-4-0.7c-1.3,0-2.6,0.2-3.8,0.6L16,8.9V1.2z"/>
		<path d="M22.3,17H8v5.8c1.2,0.5,2.6,0.7,4,0.7C16.6,23.5,20.5,20.8,22.3,17z"/>
		<path d="M17,1.7V16h5.8c0.5-1.2,0.7-2.6,0.7-4C23.5,7.4,20.8,3.5,17,1.7z"/>
		<path d="M7,22.3v-11l-5.4,5.4C2.7,19.2,4.6,21.2,7,22.3z"/>
	</g>
</g>
<g id="Outline_Icons">
	<g>
		<circle class="st2" cx="12" cy="12" r="11.5"/>
		<line class="st2" x1="16.5" y1="1.4" x2="16.5" y2="16.5"/>
		<line class="st3" x1="7.5" y1="16.5" x2="22.6" y2="16.5"/>
		<line class="st2" x1="7.7" y1="1.3" x2="16.5" y2="10.1"/>
		<line class="st2" x1="1.3" y1="16.3" x2="12" y2="5.6"/>
		<line class="st2" x1="7.5" y1="22.6" x2="7.5" y2="10.1"/>
	</g>
</g>
</svg>
