<?xml version="1.0" encoding="utf-8"?>
<!-- Generator: Adobe Illustrator 19.2.0, SVG Export Plug-In . SVG Version: 6.00 Build 0)  -->
<svg version="1.1" id="Layer_1" xmlns="http://www.w3.org/2000/svg" xmlns:xlink="http://www.w3.org/1999/xlink" x="0px" y="0px"
	 viewBox="0 0 24 24" style="enable-background:new 0 0 24 24;" xml:space="preserve">
<style type="text/css">
	.st0{display:none;}
	.st1{display:inline;}
	.st2{fill:none;stroke:#000000;stroke-linecap:round;stroke-linejoin:round;stroke-miterlimit:10;}
</style>
<g id="Filled_Icons" class="st0">
	<path class="st1" d="M12,0C5.4,0,0,5.4,0,12s5.4,12,12,12s12-5.4,12-12S18.6,0,12,0z M11,16.7c1.5,0.8,2.7,1.4,4.2,0.1
		c0.2-0.2,0.5-0.1,0.7,0.1c0.2,0.2,0.1,0.5-0.1,0.7c-0.8,0.7-1.6,0.9-2.4,0.9c-1,0-2-0.5-2.9-0.9c-0.9-0.5-1.8-0.9-2.7-0.9
		c-0.1,0-0.3,0-0.4-0.1c-0.1-0.1-0.2-0.2-0.2-0.4c0-0.9,1.1-1.9,3-3.8c1.9-1.8,4.2-3.9,4.7-5.7c-1.5,0.3-2.9,0.4-4.2,0.3
		C9.6,7.1,8.7,6.9,7.8,6.5C7.6,6.3,7.5,6,7.6,5.8c0.1-0.2,0.4-0.3,0.7-0.2C9,6,9.8,6.1,10.9,6.1c1.4,0.1,2.8-0.1,4.3-0.4
		c0,0,0,0,0,0c0.3,0,0.5,0,0.7,0.2C16,6,16.2,6.2,16.2,6.6c-0.3,2.2-2.8,4.5-5,6.6c-0.9,0.9-2.1,1.9-2.5,2.6
		C9.5,15.9,10.3,16.3,11,16.7z"/>
</g>
<g id="Outline_Icons">
	<g>
		<circle class="st2" cx="12" cy="12" r="11.5"/>
		<g>
			<path class="st2" d="M15.5,17.2c-2.9,2.3-4.9-1.1-7.6-1c0-1.7,7.4-6.3,7.8-9.7c0-0.3-0.3-0.3-0.3-0.3v0c-1.5,0.3-3,0.5-4.5,0.4
				C9.8,6.6,8.9,6.5,8.1,6"/>
		</g>
	</g>
</g>
</svg>
