<?xml version="1.0" encoding="utf-8"?>
<!-- Generator: Adobe Illustrator 19.2.0, SVG Export Plug-In . SVG Version: 6.00 Build 0)  -->
<svg version="1.1" id="Layer_1" xmlns="http://www.w3.org/2000/svg" xmlns:xlink="http://www.w3.org/1999/xlink" x="0px" y="0px"
	 viewBox="0 0 24 24" style="enable-background:new 0 0 24 24;" xml:space="preserve">
<style type="text/css">
	.st0{display:none;}
	.st1{display:inline;}
	.st2{fill:none;stroke:#000000;stroke-linejoin:round;stroke-miterlimit:10;}
</style>
<g id="Filled_Icons" class="st0">
	<g class="st1">
		<path d="M13.5,7.5c-0.6,0-1,0.4-1,1c0,0.6,0.4,1,1,1h1v7c0,0.6,0.4,1,1,1c0.6,0,1-0.4,1-1v-7h1c0.6,0,1-0.4,1-1c0-0.6-0.4-1-1-1
			H13.5z"/>
		<path d="M22.5,8.5c0-0.6-0.4-1-1-1s-1,0.4-1,1v8c0,0.6,0.4,1,1,1s1-0.4,1-1V8.5z"/>
		<path d="M10.5,16.5c0,0.6-0.4,1-1,1c-0.6,0-1-0.4-1-1V12l-5.8,5.2c-0.5,0.5-1.3,0.4-1.8-0.1c-0.2-0.3-0.4-0.6-0.4-1
			c0-0.4,0.2-0.7,0.4-0.9l9.6-8.4V16.5z"/>
	</g>
</g>
<g id="Outline_Icons">
	<g>
		<path class="st2" d="M13.5,7.5c-0.6,0-1,0.4-1,1c0,0.6,0.4,1,1,1h1v7c0,0.6,0.4,1,1,1c0.6,0,1-0.4,1-1v-7h1c0.6,0,1-0.4,1-1
			c0-0.6-0.4-1-1-1H13.5z"/>
		<path class="st2" d="M22.5,8.5c0-0.6-0.4-1-1-1s-1,0.4-1,1v8c0,0.6,0.4,1,1,1s1-0.4,1-1V8.5z"/>
		<path class="st2" d="M10.5,16.5c0,0.6-0.4,1-1,1c-0.6,0-1-0.4-1-1V12l-5.8,5.2c-0.5,0.5-1.3,0.4-1.8-0.1c-0.2-0.3-0.4-0.6-0.4-1
			c0-0.4,0.2-0.7,0.4-0.9l9.6-8.4V16.5z"/>
	</g>
</g>
</svg>
