<?xml version="1.0" encoding="utf-8"?>
<!-- Generator: Adobe Illustrator 19.2.0, SVG Export Plug-In . SVG Version: 6.00 Build 0)  -->
<svg version="1.1" id="Layer_1" xmlns="http://www.w3.org/2000/svg" xmlns:xlink="http://www.w3.org/1999/xlink" x="0px" y="0px"
	 viewBox="0 0 24 24" style="enable-background:new 0 0 24 24;" xml:space="preserve">
<style type="text/css">
	.st0{display:none;}
	.st1{display:inline;}
	.st2{fill:none;stroke:#000000;stroke-linecap:round;stroke-linejoin:round;stroke-miterlimit:10;}
</style>
<g id="Filled_Icons" class="st0">
	<g class="st1">
		<g>
			<rect x="11.5" y="19.5" width="2" height="4"/>
			<path d="M11.5,9.3l1.6,1.5c0.3,0.3,0.4,0.7,0.3,1.1c-0.1,0.4-0.5,0.6-0.9,0.6h-1v4.6l4.8-4.4c0.1,0,0.1-0.1,0.2-0.1V5.5h3l-5.5-5
				l-5.5,5h3V9.3z"/>
		</g>
		<polygon points="12.5,11.5 7,6.5 1.5,11.5 4.5,11.5 4.5,23.5 9.5,23.5 9.5,11.5 		"/>
		<polygon points="22.5,18.5 17,13.5 11.5,18.5 14.5,18.5 14.5,23.5 19.5,23.5 19.5,18.5 		"/>
	</g>
</g>
<g id="Outline_Icons">
	<g>
		<polygon class="st2" points="12.5,11.5 7,6.5 1.5,11.5 4.5,11.5 4.5,23.5 9.5,23.5 9.5,11.5 		"/>
		<polygon class="st2" points="22.5,18.5 17,13.5 11.5,18.5 14.5,18.5 14.5,23.5 19.5,23.5 19.5,18.5 		"/>
		<polyline class="st2" points="11.5,11.5 11.5,23.5 14.5,23.5 		"/>
		<polyline class="st2" points="16.5,14 16.5,5.5 19.5,5.5 14,0.5 8.5,5.5 11.5,5.5 11.5,10.6 		"/>
	</g>
</g>
</svg>
