<?xml version="1.0" encoding="utf-8"?>
<!-- Generator: Adobe Illustrator 19.2.0, SVG Export Plug-In . SVG Version: 6.00 Build 0)  -->
<svg version="1.1" id="Layer_1" xmlns="http://www.w3.org/2000/svg" xmlns:xlink="http://www.w3.org/1999/xlink" x="0px" y="0px"
	 viewBox="0 0 24 24" style="enable-background:new 0 0 24 24;" xml:space="preserve">
<style type="text/css">
	.st0{display:none;}
	.st1{display:inline;}
	.st2{fill:none;stroke:#000000;stroke-linecap:round;stroke-linejoin:round;stroke-miterlimit:10;}
	.st3{fill:none;stroke:#000000;stroke-linejoin:round;stroke-miterlimit:10;}
</style>
<g id="Filled_Icons" class="st0">
	<g class="st1">
		<path d="M12,0C5.4,0,0,5.4,0,12s5.4,12,12,12s12-5.4,12-12S18.6,0,12,0z M12,20c-4.4,0-8-3.6-8-8s3.6-8,8-8s8,3.6,8,8
			S16.4,20,12,20z"/>
		<path d="M17.3,9.7L14,9.2l-1.5-3C12.4,6,12.2,5.9,12,5.9c-0.2,0-0.4,0.1-0.4,0.3l-1.5,3L6.7,9.7c-0.2,0-0.3,0.2-0.4,0.3
			c-0.1,0.2,0,0.4,0.1,0.5L8.8,13l-0.5,3.3c0,0.2,0,0.4,0.2,0.5c0.1,0.1,0.2,0.1,0.3,0.1c0.1,0,0.2,0,0.2-0.1l3-1.5l3,1.5
			c0.2,0.1,0.4,0.1,0.5,0c0.1-0.1,0.2-0.3,0.2-0.5L15.2,13l2.4-2.4c0.1-0.1,0.2-0.3,0.1-0.5C17.6,9.9,17.5,9.8,17.3,9.7z"/>
	</g>
</g>
<g id="Outline_Icons">
	<g>
		<circle class="st2" cx="12" cy="12" r="11.5"/>
		<g>
			<path class="st3" d="M19.5,12c0-4.1-3.4-7.5-7.5-7.5S4.5,7.9,4.5,12c0,4.1,3.4,7.5,7.5,7.5S19.5,16.1,19.5,12L19.5,12z"/>
			<polygon class="st3" points="10.3,9.6 12,6.4 13.7,9.6 17.2,10.2 14.7,12.8 15.2,16.4 12,14.7 8.8,16.4 9.3,12.8 6.8,10.2 			"/>
		</g>
	</g>
</g>
</svg>
