<?xml version="1.0" encoding="utf-8"?>
<!-- Generator: Adobe Illustrator 19.2.0, SVG Export Plug-In . SVG Version: 6.00 Build 0)  -->
<svg version="1.1" id="Layer_1" xmlns="http://www.w3.org/2000/svg" xmlns:xlink="http://www.w3.org/1999/xlink" x="0px" y="0px"
	 viewBox="0 0 24 24" style="enable-background:new 0 0 24 24;" xml:space="preserve">
<style type="text/css">
	.st0{display:none;}
	.st1{display:inline;}
	.st2{fill:none;stroke:#000000;stroke-linecap:round;stroke-linejoin:round;stroke-miterlimit:10;}
	.st3{fill:none;stroke:#000000;stroke-linejoin:round;stroke-miterlimit:10;}
</style>
<g id="Filled_Icons" class="st0">
	<g class="st1">
		<path d="M12.6,8.6c0-0.7-0.3-1.3-0.8-1.8C11.3,6.3,10.7,6,10,6C9.3,6,8.8,6.2,8.3,6.7C7.9,7.1,7.7,7.7,7.7,8.4
			c0,0.7,0.3,1.3,0.8,1.8c1,1,2.6,1,3.5,0.1C12.4,9.9,12.7,9.3,12.6,8.6z"/>
		<path d="M10.2,14.2c-2.2,0-4,1-4,2.1c0,1.1,1.8,2.1,4,2.1s4-1,4-2.1S12.3,14.2,10.2,14.2z"/>
		<path d="M12,0C5.4,0,0,5.4,0,12s5.4,12,12,12s12-5.4,12-12S18.6,0,12,0z M10.2,19.4c-2.8,0-5-1.4-5-3.1c0-1.7,2.2-3.1,5-3.1
			c0.8,0,1.6,0.1,2.3,0.3c-0.6-0.4-1.3-0.9-1.3-1.7c-0.3,0.1-0.5,0.1-0.8,0.1c-1,0-1.9-0.4-2.6-1.1c-0.7-0.7-1.1-1.5-1.1-2.5
			c0-0.9,0.3-1.8,1-2.5C8.3,5.3,9.1,5,10,5.1V5H14v1h-1.5c0,0,0.1,0.1,0.1,0.1c0.7,0.7,1.1,1.6,1.1,2.5c0,0.9-0.3,1.8-1,2.4
			c-0.2,0.2-0.3,0.3-0.5,0.4C12,12,12.3,12.2,13,12.8c0.9,0.6,2.1,1.4,2.1,3.6C15.1,18.1,13,19.4,10.2,19.4z M20,10h-2v2h-1v-2h-2V9
			h2V7h1v2h2V10z"/>
	</g>
</g>
<g id="Outline_Icons">
	<g>
		<circle class="st2" cx="12" cy="12" r="11.5"/>
		<g>
			<ellipse transform="matrix(0.7072 -0.707 0.707 0.7072 -3.0119 9.7255)" class="st3" cx="10.2" cy="8.5" rx="2.9" ry="3.1"/>
			<line class="st3" x1="9.8" y1="5.5" x2="14" y2="5.5"/>
			<ellipse class="st3" cx="10.2" cy="16.3" rx="4.5" ry="2.6"/>
			<path class="st3" d="M11.9,11.1c-0.9,2.3,2.9,1.6,2.9,5.2"/>
			<line class="st3" x1="17.5" y1="7" x2="17.5" y2="12"/>
			<line class="st3" x1="20" y1="9.5" x2="15" y2="9.5"/>
		</g>
	</g>
</g>
</svg>
