<?xml version="1.0" encoding="utf-8"?>
<!-- Generator: Adobe Illustrator 19.2.0, SVG Export Plug-In . SVG Version: 6.00 Build 0)  -->
<svg version="1.1" id="Layer_1" xmlns="http://www.w3.org/2000/svg" xmlns:xlink="http://www.w3.org/1999/xlink" x="0px" y="0px"
	 viewBox="0 0 24 24" style="enable-background:new 0 0 24 24;" xml:space="preserve">
<style type="text/css">
	.st0{display:none;}
	.st1{display:inline;}
	.st2{fill:none;stroke:#000000;stroke-linecap:round;stroke-linejoin:round;stroke-miterlimit:10;}
</style>
<g id="Filled_Icons" class="st0">
	<path class="st1" d="M12,0C5.4,0,0,5.4,0,12s5.4,12,12,12s12-5.4,12-12S18.6,0,12,0z M13.3,17.7c-2.5,0-4.5-2-4.5-4.5
		c0-2.5,2-4.5,4.5-4.5c0.8,0,1.5,0.2,2.1,0.5c-0.8,0.3-1.4,1-1.4,1.9c0,1.1,0.9,2,2,2c0.7,0,1.2-0.3,1.6-0.8c0,0.3,0.1,0.5,0.1,0.8
		C17.8,15.7,15.8,17.7,13.3,17.7z M19.5,12.5c-0.2-3.4-3.1-6.1-6.6-6.1c-3.6,0-6.6,2.9-6.6,6.6c0,3.5,2.7,6.3,6.1,6.6
		c-0.1,0-0.3,0-0.5,0c-4.1,0-7.5-3.4-7.5-7.5c0-4.1,3.4-7.5,7.5-7.5s7.5,3.4,7.5,7.5C19.5,12.2,19.5,12.3,19.5,12.5z"/>
</g>
<g id="Outline_Icons">
	<g>
		<circle class="st2" cx="12" cy="12" r="11.5"/>
		<path class="st2" d="M6.3,12.9c0-3.6,2.9-6.6,6.6-6.6c3.5,0,6.3,2.7,6.6,6.1c0-0.1,0-0.3,0-0.5c0-4.1-3.4-7.5-7.5-7.5
			S4.5,7.9,4.5,12c0,4.1,3.4,7.5,7.5,7.5c0.2,0,0.3,0,0.5,0C9.1,19.3,6.3,16.4,6.3,12.9L6.3,12.9z"/>
		<path class="st2" d="M13.3,8.7c-2.5,0-4.5,2-4.5,4.5c0,2.5,2,4.5,4.5,4.5c2.5,0,4.5-2,4.5-4.5c0-0.3,0-0.5-0.1-0.8
			c-0.4,0.5-1,0.8-1.6,0.8c-1.1,0-2-0.9-2-2c0-0.9,0.6-1.6,1.4-1.9C14.8,8.9,14.1,8.7,13.3,8.7L13.3,8.7z"/>
	</g>
</g>
</svg>
