<?xml version="1.0" encoding="utf-8"?>
<!-- Generator: Adobe Illustrator 19.2.0, SVG Export Plug-In . SVG Version: 6.00 Build 0)  -->
<svg version="1.1" id="Layer_1" xmlns="http://www.w3.org/2000/svg" xmlns:xlink="http://www.w3.org/1999/xlink" x="0px" y="0px"
	 viewBox="0 0 24 24" style="enable-background:new 0 0 24 24;" xml:space="preserve">
<style type="text/css">
	.st0{display:none;}
	.st1{display:inline;}
	.st2{fill:none;stroke:#000000;stroke-linecap:round;stroke-linejoin:round;stroke-miterlimit:10;}
	.st3{fill:none;stroke:#000000;stroke-linejoin:round;stroke-miterlimit:10;}
</style>
<g id="Filled_Icons" class="st0">
	<path class="st1" d="M12,0C5.4,0,0,5.4,0,12s5.4,12,12,12s12-5.4,12-12S18.6,0,12,0z M14.5,20.1c-0.4,0.1-0.5-0.2-0.5-0.4
		c0-0.3,0-1.2,0-2.2c0-0.7-0.3-1.2-0.5-1.5c1.8-0.2,3.7-0.9,3.7-3.9c0-0.9-0.3-1.6-0.8-2.1c0.1-0.2,0.4-1-0.1-2.1
		c0,0-0.7-0.2-2.2,0.8c-0.6-0.2-1.3-0.3-2-0.3c-0.7,0-1.4,0.1-2,0.3c-1.5-1-2.2-0.8-2.2-0.8C7.4,8.9,7.6,9.7,7.7,9.9
		c-0.5,0.6-0.8,1.3-0.8,2.1c0,3.1,1.9,3.8,3.6,4c-0.2,0.2-0.4,0.6-0.5,1.1c-0.5,0.2-1.6,0.6-2.3-0.7c0,0-0.4-0.8-1.2-0.8
		c0,0-0.8,0-0.1,0.5c0,0,0.5,0.2,0.9,1.2c0,0,0.5,1.5,2.7,1.1c0,0.7,0,1.2,0,1.4c0,0.2-0.1,0.4-0.5,0.4C6.3,19,4,16,4,12.5
		c0-4.4,3.6-8,8-8s8,3.6,8,8C20,16,17.7,19,14.5,20.1z"/>
</g>
<g id="Outline_Icons">
	<g>
		<circle class="st2" cx="12" cy="12" r="11.5"/>
		<path class="st3" d="M12,4.5c-4.4,0-8,3.6-8,8C4,16,6.3,19,9.5,20.1c0.4,0.1,0.5-0.2,0.5-0.4c0-0.2,0-0.7,0-1.4
			c-2.2,0.5-2.7-1.1-2.7-1.1c-0.4-0.9-0.9-1.2-0.9-1.2c-0.7-0.5,0.1-0.5,0.1-0.5c0.8,0.1,1.2,0.8,1.2,0.8c0.7,1.2,1.9,0.9,2.3,0.7
			c0.1-0.5,0.3-0.9,0.5-1.1c-1.8-0.2-3.6-0.9-3.6-4c0-0.9,0.3-1.6,0.8-2.1c-0.1-0.2-0.4-1,0.1-2.1c0,0,0.7-0.2,2.2,0.8
			c0.6-0.2,1.3-0.3,2-0.3c0.7,0,1.4,0.1,2,0.3c1.5-1,2.2-0.8,2.2-0.8c0.4,1.1,0.2,1.9,0.1,2.1c0.5,0.6,0.8,1.3,0.8,2.1
			c0,3.1-1.9,3.8-3.7,3.9c0.3,0.2,0.5,0.7,0.5,1.5c0,1,0,2,0,2.2c0,0.2,0.1,0.4,0.5,0.4C17.7,19,20,16,20,12.5
			C20,8.1,16.4,4.5,12,4.5z"/>
	</g>
</g>
</svg>
