<?xml version="1.0" encoding="utf-8"?>
<!-- Generator: Adobe Illustrator 19.2.0, SVG Export Plug-In . SVG Version: 6.00 Build 0)  -->
<svg version="1.1" id="Layer_1" xmlns="http://www.w3.org/2000/svg" xmlns:xlink="http://www.w3.org/1999/xlink" x="0px" y="0px"
	 viewBox="0 0 24 24" style="enable-background:new 0 0 24 24;" xml:space="preserve">
<style type="text/css">
	.st0{display:none;}
	.st1{display:inline;}
	.st2{fill:none;stroke:#000000;stroke-linecap:round;stroke-linejoin:round;stroke-miterlimit:10;}
	.st3{fill:none;stroke:#000000;stroke-linejoin:round;stroke-miterlimit:10;}
</style>
<g id="Filled_Icons" class="st0">
	<path class="st1" d="M12,0C5.4,0,0,5.4,0,12s5.4,12,12,12s12-5.4,12-12S18.6,0,12,0z M16.6,16.5H7.4c-1.6,0-2.9-1.3-2.9-3
		c0-1.5,1.1-2.7,2.5-2.9C6.8,9.5,7.7,8.4,8.8,8.4c0.5,0,0.9,0.2,1.2,0.4c0.6-1.3,1.3-2.5,3.4-2.5c2.5,0,3.7,2,3.7,4
		c0,0.1,0,0.2,0,0.3c1.3,0.3,2.4,1.5,2.4,2.9C19.5,15.2,18.2,16.5,16.6,16.5z"/>
</g>
<g id="Outline_Icons">
	<g>
		<circle class="st2" cx="12" cy="12" r="11.5"/>
		<g>
			<path class="st3" d="M19.5,13.5c0,1.6-1.3,3-2.9,3H7.4c-1.6,0-2.9-1.3-2.9-3c0-1.5,1.1-2.7,2.5-2.9C6.8,9.5,7.7,8.4,8.8,8.4
				c0.5,0,0.9,0.2,1.2,0.4c0.6-1.3,1.3-2.5,3.4-2.5c2.5,0,3.7,2,3.7,4c0,0.1,0,0.2,0,0.3C18.5,10.9,19.5,12.1,19.5,13.5"/>
		</g>
	</g>
</g>
</svg>
