<?xml version="1.0" encoding="utf-8"?>
<!-- Generator: Adobe Illustrator 19.2.0, SVG Export Plug-In . SVG Version: 6.00 Build 0)  -->
<svg version="1.1" id="Layer_1" xmlns="http://www.w3.org/2000/svg" xmlns:xlink="http://www.w3.org/1999/xlink" x="0px" y="0px"
	 viewBox="0 0 24 24" style="enable-background:new 0 0 24 24;" xml:space="preserve">
<style type="text/css">
	.st0{display:none;}
	.st1{display:inline;}
	.st2{fill:none;stroke:#000000;stroke-linecap:round;stroke-linejoin:round;stroke-miterlimit:10;}
	.st3{fill:none;stroke:#000000;stroke-linejoin:round;stroke-miterlimit:10;}
</style>
<g id="Filled_Icons" class="st0">
	<g class="st1">
		<ellipse transform="matrix(0.2864 -0.9581 0.9581 0.2864 -3.7573 27.2339)" cx="16.4" cy="16.1" rx="1.2" ry="1.1"/>
		<path d="M12,0C5.4,0,0,5.4,0,12s5.4,12,12,12s12-5.4,12-12S18.6,0,12,0z M15,19.5c-1.4-0.2-2.4-1.3-2.7-2.7
			c-0.2-0.8,0-1.5-0.5-1.7c-1-0.4-2.3,0.3-3.5,0.1c-1.1-0.1-2-1-2-2.4c0-1.3,0.9-3.1-0.4-3.7c0.6,0.1,1,0.2,1.3,0.7
			C7.7,11,6.9,13,7.8,13.6c0.4,0.3,1.3,0.1,1.8,0.1c0.6-0.1,1.1-0.3,1.7-0.3c-0.3-0.5-0.9-0.6-1.3-0.9c-0.5-0.3-1.1-1-1.4-1.5
			c-0.5-1-0.4-2.9-1.2-3.6C6.8,6.9,5.8,6.9,4.9,7.1c0.7-0.6,2.4-0.7,3.1-0.2c0.9,0.6,0.7,2.4,1.5,3.4c0.4,0.4,0.9,0.6,1.3,0.7
			c0.4,0.2,0.9,0.4,1.6,0.4c0.5-2.2-1.2-2.5-2.3-3.5C9.2,7.2,8.7,6.3,8.8,4.5c0.2,0.9,0.4,1.7,1,2.2c0.4,0.4,1.1,0.5,1.5,0.7
			c1.2,0.7,2.2,1.7,2.5,3.4c0.3-0.1,0.4-0.5,0.7-0.8c0.2-0.3,0.5-0.6,0.5-1c0-0.6-0.4-1.1-0.8-1.4c-0.9-0.7-2.6-0.6-2.3-2.6
			c0.2,0.5,0.2,1.1,0.6,1.3c0.6,0.4,1.5,0.4,2.1,0.8c0.6,0.3,1.5,1.1,1.5,2.2c0,1.2-1.2,1.6-0.7,3c1.2,0.3,1.7,0.3,2.3,0.9
			C20.3,15.3,18.6,19.9,15,19.5z"/>
	</g>
</g>
<g id="Outline_Icons">
	<g>
		<circle class="st2" cx="12" cy="12" r="11.5"/>
		<path id="Squidoo_1_" class="st3" d="M17.4,16.4c-0.2,0.7-0.8,1-1.4,0.9c-0.6-0.2-0.9-0.8-0.7-1.5c0.2-0.6,0.8-1,1.4-0.9
			C17.3,15.1,17.6,15.8,17.4,16.4z M15,19.5c-1.4-0.2-2.4-1.3-2.7-2.7c-0.2-0.8,0-1.5-0.5-1.7c-1-0.4-2.3,0.3-3.5,0.1
			c-1.1-0.1-2-1-2-2.4c0-1.3,0.9-3.1-0.4-3.7c0.6,0.1,1,0.2,1.3,0.7C7.7,11,6.9,13,7.8,13.6c0.4,0.3,1.3,0.1,1.8,0.1
			c0.6-0.1,1.1-0.3,1.7-0.3c-0.3-0.5-0.9-0.6-1.3-0.9c-0.5-0.3-1.1-1-1.4-1.5c-0.5-1-0.4-2.9-1.2-3.6C6.8,6.9,5.8,6.9,4.9,7.1
			c0.7-0.6,2.4-0.7,3.1-0.2c0.9,0.6,0.7,2.4,1.5,3.4c0.4,0.4,0.9,0.6,1.3,0.7c0.4,0.2,0.9,0.4,1.6,0.4c0.5-2.2-1.2-2.5-2.3-3.5
			C9.2,7.2,8.7,6.3,8.8,4.5c0.2,0.9,0.4,1.7,1,2.2c0.4,0.4,1.1,0.5,1.5,0.7c1.2,0.7,2.2,1.7,2.5,3.4c0.3-0.1,0.4-0.5,0.7-0.8
			c0.2-0.3,0.5-0.6,0.5-1c0-0.6-0.4-1.1-0.8-1.4c-0.9-0.7-2.6-0.6-2.3-2.6c0.2,0.5,0.2,1.1,0.6,1.3c0.6,0.4,1.5,0.4,2.1,0.8
			c0.6,0.3,1.5,1.1,1.5,2.2c0,1.2-1.2,1.6-0.7,3c1.2,0.3,1.7,0.3,2.3,0.9C20.3,15.3,18.6,19.9,15,19.5L15,19.5z"/>
	</g>
</g>
</svg>
