<?xml version="1.0" encoding="utf-8"?>
<!-- Generator: Adobe Illustrator 19.2.0, SVG Export Plug-In . SVG Version: 6.00 Build 0)  -->
<svg version="1.1" id="Layer_1" xmlns="http://www.w3.org/2000/svg" xmlns:xlink="http://www.w3.org/1999/xlink" x="0px" y="0px"
	 viewBox="0 0 24 24" style="enable-background:new 0 0 24 24;" xml:space="preserve">
<style type="text/css">
	.st0{display:none;}
	.st1{display:inline;}
	.st2{fill:none;stroke:#000000;stroke-linejoin:round;stroke-miterlimit:10;}
</style>
<g id="Filled_Icons" class="st0">
	<g class="st1">
		<path d="M23.5,15c0,2.5-2,4.5-4.5,4.5H5c-2.5,0-4.5-2-4.5-4.5c0-2.3,1.6-4.1,3.8-4.5C4,8.8,5.3,7.2,7.1,7.2c0.7,0,1.4,0.3,1.9,0.7
			c0.9-2,2-3.9,5.2-3.9c3.9,0,5.7,3,5.7,6.2c0,0.1,0,0.3,0,0.4C21.9,11,23.5,12.8,23.5,15"/>
	</g>
</g>
<g id="Outline_Icons">
	<g>
		<path class="st2" d="M23.5,15c0,2.5-2,4.5-4.5,4.5H5c-2.5,0-4.5-2-4.5-4.5c0-2.3,1.6-4.1,3.8-4.5C4,8.8,5.3,7.2,7.1,7.2
			c0.7,0,1.4,0.3,1.9,0.7c0.9-2,2-3.9,5.2-3.9c3.9,0,5.7,3,5.7,6.2c0,0.1,0,0.3,0,0.4C21.9,11,23.5,12.8,23.5,15"/>
	</g>
</g>
</svg>
