<?xml version="1.0" encoding="utf-8"?>
<!-- Generator: Adobe Illustrator 19.2.0, SVG Export Plug-In . SVG Version: 6.00 Build 0)  -->
<svg version="1.1" id="Layer_1" xmlns="http://www.w3.org/2000/svg" xmlns:xlink="http://www.w3.org/1999/xlink" x="0px" y="0px"
	 viewBox="0 0 24 24" style="enable-background:new 0 0 24 24;" xml:space="preserve">
<style type="text/css">
	.st0{display:none;}
	.st1{display:inline;}
	.st2{fill:none;stroke:#000000;stroke-linejoin:round;stroke-miterlimit:10;}
</style>
<g id="Filled_Icons" class="st0">
	<g class="st1">
		<path d="M18.8,7.5h-4.3V5.6c0-0.9,0.6-1.1,1-1.1s3,0,3,0V0.5l-4.3,0c-3.9,0-4.7,2.9-4.7,4.8v2.1h-3v4h3c0,5.2,0,12,0,12h5
			c0,0,0-6.9,0-12h3.9L18.8,7.5z"/>
	</g>
</g>
<g id="Outline_Icons">
	<g>
		<path class="st2" d="M18.8,7.5h-4.3V5.6c0-0.9,0.6-1.1,1-1.1s3,0,3,0V0.5l-4.3,0c-3.9,0-4.7,2.9-4.7,4.8v2.1h-3v4h3
			c0,5.2,0,12,0,12h5c0,0,0-6.9,0-12h3.9L18.8,7.5z"/>
	</g>
</g>
</svg>
