<?xml version="1.0" encoding="utf-8"?>
<!-- Generator: Adobe Illustrator 19.2.0, SVG Export Plug-In . SVG Version: 6.00 Build 0)  -->
<svg version="1.1" id="Layer_1" xmlns="http://www.w3.org/2000/svg" xmlns:xlink="http://www.w3.org/1999/xlink" x="0px" y="0px"
	 viewBox="0 0 24 24" style="enable-background:new 0 0 24 24;" xml:space="preserve">
<style type="text/css">
	.st0{display:none;}
	.st1{display:inline;}
	.st2{fill:none;stroke:#000000;stroke-linecap:round;stroke-linejoin:round;stroke-miterlimit:10;}
	.st3{fill:none;stroke:#000000;stroke-linejoin:round;stroke-miterlimit:10;}
</style>
<g id="Filled_Icons" class="st0">
	<g class="st1">
		<path d="M16.6,12.8c-0.2-0.1-1.3-0.6-1.5-0.7c-0.2-0.1-0.3-0.1-0.5,0.1c-0.1,0.2-0.6,0.7-0.7,0.9c-0.1,0.1-0.3,0.2-0.5,0.1
			c-0.2-0.1-0.9-0.3-1.8-1.1c-0.6-0.6-1.1-1.3-1.2-1.5c-0.1-0.2,0-0.3,0.1-0.4c0.4-0.4,0.5-0.6,0.5-0.7c0.1-0.1,0-0.3,0-0.4
			c-0.1-0.1-0.5-1.2-0.7-1.6c-0.2-0.5-1.1-0.5-1.5-0.1C7.7,8.5,8,9.9,9,11.3c0.1,0.1,1.5,2.4,3.7,3.3s2.2,0.6,2.6,0.5
			c1.2-0.1,1.9-1.5,1.6-2.1C16.9,12.9,16.8,12.9,16.6,12.8z"/>
		<path d="M12,0C5.4,0,0,5.4,0,12s5.4,12,12,12s12-5.4,12-12S18.6,0,12,0z M12.5,18.4c-1.5,0-2.9-0.5-4.1-1.2l-2.9,0.9l0.9-2.8
			C5.5,14.1,5,12.6,5,11c0-4.1,3.4-7.4,7.5-7.4S20,6.9,20,11C20,15.1,16.6,18.4,12.5,18.4z"/>
	</g>
</g>
<g id="Outline_Icons">
	<g>
		<circle class="st2" cx="12" cy="12" r="11.5"/>
		<g>
			<path class="st3" d="M12.5,3.6C8.4,3.6,5,6.9,5,11c0,1.6,0.5,3.1,1.4,4.4l-0.9,2.8l2.9-0.9c1.2,0.8,2.6,1.2,4.1,1.2
				c4.1,0,7.5-3.3,7.5-7.4C20,6.9,16.6,3.6,12.5,3.6 M17,13c-0.1-0.1-0.2-0.1-0.4-0.3s-1.3-0.6-1.5-0.7c-0.2-0.1-0.3-0.1-0.5,0.1
				c-0.1,0.2-0.6,0.7-0.7,0.9c-0.1,0.1-0.3,0.2-0.5,0.1c-0.2-0.1-0.9-0.3-1.8-1.1c-0.6-0.6-1.1-1.3-1.2-1.5c-0.1-0.2,0-0.3,0.1-0.4
				c0.4-0.4,0.5-0.6,0.5-0.7c0.1-0.1,0-0.3,0-0.4c-0.1-0.1-0.5-1.2-0.7-1.6c-0.2-0.5-1.1-0.5-1.5-0.1C7.7,8.5,8,9.9,9,11.3
				c0.1,0.1,1.5,2.4,3.7,3.3s2.2,0.6,2.6,0.5C16.6,15,17.3,13.6,17,13"/>
		</g>
	</g>
</g>
</svg>
