<?xml version="1.0" encoding="utf-8"?>
<!-- Generator: Adobe Illustrator 19.2.0, SVG Export Plug-In . SVG Version: 6.00 Build 0)  -->
<svg version="1.1" id="Layer_1" xmlns="http://www.w3.org/2000/svg" xmlns:xlink="http://www.w3.org/1999/xlink" x="0px" y="0px"
	 viewBox="0 0 24 24" style="enable-background:new 0 0 24 24;" xml:space="preserve">
<style type="text/css">
	.st0{display:none;}
	.st1{display:inline;}
	.st2{fill:none;stroke:#000000;stroke-linecap:round;stroke-linejoin:round;stroke-miterlimit:10;}
	.st3{fill:none;stroke:#000000;stroke-linejoin:round;stroke-miterlimit:10;}
</style>
<g id="Filled_Icons" class="st0">
	<path class="st1" d="M12,0C5.4,0,0,5.4,0,12s5.4,12,12,12s12-5.4,12-12S18.6,0,12,0z M4.5,10.6c0.2-0.2,0.7-0.5,1.3-0.6
		c1-2.4,3.4-4,6.1-4c2.6,0,4.9,1.5,6,3.8V7.1c-0.3-0.2-0.5-0.5-0.5-0.9c0-0.6,0.5-1,1-1c0.6,0,1,0.5,1,1c0,0.4-0.2,0.7-0.5,0.9v3
		c0.7,0.4,1,1.1,1,1.9c0,0.5-0.1,1-0.4,1.4c-0.3,0.5-0.8,0.7-1.4,0.7c-0.3,0-0.5-0.2-0.5-0.5v-1C17.7,9.5,15.1,7,12,7
		c-3.1,0-5.7,2.5-5.7,5.7v1c0,0.3-0.2,0.5-0.5,0.5c-1.2,0-1.8-1.1-1.8-2.1C4,11.5,4.2,11,4.5,10.6z M12,9.5c-1.8,0-3.2,1.5-3.2,3.2
		c0,0.4,0.1,0.9,0.3,1.3c0.1,0.3,0,0.5-0.3,0.7c-0.1,0-0.1,0-0.2,0c-0.2,0-0.4-0.1-0.5-0.3c-0.2-0.5-0.3-1.1-0.3-1.7
		c0-2.3,1.9-4.2,4.2-4.2s4.2,1.9,4.2,4.2c0,0.6-0.1,1.1-0.3,1.6c-0.1,0.3-0.4,0.4-0.7,0.3C15,14.5,14.9,14.2,15,14
		c0.2-0.4,0.2-0.8,0.2-1.2C15.2,10.9,13.8,9.5,12,9.5z M19.5,16.7c-0.1,0-5.1,0.3-7.1,2.6c-0.1,0.1-0.2,0.2-0.4,0.2
		s-0.3-0.1-0.4-0.2c-2-2.4-7.1-2.6-7.1-2.6c-0.3,0-0.5-0.2-0.5-0.5c0-0.3,0.2-0.5,0.5-0.5c0,0,0,0,0,0c0.2,0,5,0.2,7.4,2.6
		c2.4-2.3,7.2-2.6,7.4-2.6c0.3,0,0.5,0.2,0.5,0.5C20,16.5,19.8,16.7,19.5,16.7z"/>
</g>
<g id="Outline_Icons">
	<g>
		<circle class="st2" cx="12" cy="12" r="11.5"/>
		<g>
			<path class="st2" d="M19.5,16.2c0,0-5.3,0.2-7.5,2.8c-2.2-2.6-7.5-2.8-7.5-2.8"/>
			<path class="st2" d="M8.5,14.2c-0.2-0.4-0.3-0.9-0.3-1.5C8.2,10.6,9.9,9,12,9c2.1,0,3.7,1.7,3.7,3.7c0,0.5-0.1,1-0.3,1.4"/>
			<path class="st3" d="M6.2,10.5c-2.4,0-2,3.1-0.4,3.1v-1c0-3.4,2.8-6.2,6.2-6.2c3.4,0,6.2,2.8,6.2,6.2v1c1.8,0,1.8-3.2,0-3.2h-0.4
				"/>
			<line class="st3" x1="18.5" y1="6.7" x2="18.5" y2="10.4"/>
			<circle class="st3" cx="18.5" cy="6.2" r="0.5"/>
		</g>
	</g>
</g>
</svg>
