<?xml version="1.0" encoding="utf-8"?>
<!-- Generator: Adobe Illustrator 19.2.0, SVG Export Plug-In . SVG Version: 6.00 Build 0)  -->
<svg version="1.1" id="Layer_1" xmlns="http://www.w3.org/2000/svg" xmlns:xlink="http://www.w3.org/1999/xlink" x="0px" y="0px"
	 viewBox="0 0 24 24" style="enable-background:new 0 0 24 24;" xml:space="preserve">
<style type="text/css">
	.st0{display:none;}
	.st1{display:inline;}
	.st2{fill:none;stroke:#000000;stroke-linecap:round;stroke-linejoin:round;stroke-miterlimit:10;}
	.st3{fill:none;stroke:#000000;stroke-linejoin:round;stroke-miterlimit:10;}
</style>
<g id="Filled_Icons" class="st0">
	<g class="st1">
		<path d="M15.5,6.5C15.2,6.5,15,6.7,15,7v2c0,0.3,0.2,0.5,0.5,0.5S16,9.3,16,9V7C16,6.7,15.8,6.5,15.5,6.5z"/>
		<circle cx="15.5" cy="10.5" r="0.5"/>
		<path d="M12,0C5.4,0,0,5.4,0,12s5.4,12,12,12s12-5.4,12-12S18.6,0,12,0z M9,19.5c-2.5,0-4.5-2-4.5-4.5c0-2.5,2-4.5,4.5-4.5
			c0.2,0,0.4,0,0.5,0c0.3,0,0.4,0.2,0.4,0.5v3l3,0c0.3,0,0.5,0.2,0.5,0.4c0,0.2,0,0.4,0,0.6C13.5,17.5,11.5,19.5,9,19.5z M15.3,12.5
			H12c-0.3,0-0.5-0.2-0.5-0.5V8.4c0-1.4,0.8-4,4-4c2.5,0,4,1.5,4,4C19.5,11,17.9,12.5,15.3,12.5z"/>
	</g>
</g>
<g id="Outline_Icons">
	<g>
		<circle class="st2" cx="12" cy="12" r="11.5"/>
		<path class="st3" d="M19,8.5c0,2.2-1.4,3.5-3.7,3.5H12V8.4c0,0,0-3.5,3.5-3.5C17.8,5,19,6.3,19,8.5"/>
		<path class="st3" d="M13,14.5c0,0.2,0,0.3,0,0.5c0,2.2-1.8,4-4,4c-2.2,0-4-1.8-4-4c0-2.2,1.8-4,4-4c0.2,0,0.3,0,0.5,0v3.5L13,14.5
			z"/>
		<line class="st2" x1="15.5" y1="7" x2="15.5" y2="9"/>
		<g>
			<path d="M15.5,10c-0.3,0-0.5,0.2-0.5,0.5c0,0.3,0.2,0.5,0.5,0.5s0.5-0.2,0.5-0.5C16,10.2,15.8,10,15.5,10L15.5,10z"/>
		</g>
	</g>
</g>
</svg>
