<?xml version="1.0" encoding="utf-8"?>
<!-- Generator: Adobe Illustrator 19.2.0, SVG Export Plug-In . SVG Version: 6.00 Build 0)  -->
<svg version="1.1" id="Layer_1" xmlns="http://www.w3.org/2000/svg" xmlns:xlink="http://www.w3.org/1999/xlink" x="0px" y="0px"
	 viewBox="0 0 24 24" style="enable-background:new 0 0 24 24;" xml:space="preserve">
<style type="text/css">
	.st0{display:none;}
	.st1{display:inline;}
	.st2{fill:none;stroke:#000000;stroke-linecap:round;stroke-linejoin:round;stroke-miterlimit:10;}
	.st3{fill:none;stroke:#000000;stroke-linejoin:round;stroke-miterlimit:10;}
</style>
<g id="Filled_Icons" class="st0">
	<path class="st1" d="M12,0C5.4,0,0,5.4,0,12s5.4,12,12,12s12-5.4,12-12S18.6,0,12,0z M13,2.6c0-0.1,0.1-0.3,0.2-0.4
		c0.1-0.1,0.3-0.1,0.4-0.1c4.3,0.7,7.6,4,8.3,8.3c0,0.1,0,0.3-0.1,0.4c-0.1,0.1-0.2,0.2-0.4,0.2l-3.6,0l0,0c-0.2,0-0.4-0.2-0.5-0.4
		c-0.5-1.9-2-3.5-3.9-3.9C13.2,6.6,13,6.4,13,6.2L13,2.6z M10.4,2.1c0.1,0,0.3,0,0.4,0.1C10.9,2.3,11,2.5,11,2.6v3.6
		c0,0.2-0.2,0.4-0.4,0.5c-1.9,0.5-3.5,2-4,3.9C6.6,10.8,6.4,11,6.2,11H2.6c-0.1,0-0.3-0.1-0.4-0.2s-0.1-0.3-0.1-0.4
		C2.8,6.1,6.1,2.8,10.4,2.1z M11,21.4c0,0.1-0.1,0.3-0.2,0.4c-0.1,0.1-0.2,0.1-0.3,0.1c0,0-0.1,0-0.1,0c-4.3-0.7-7.6-4-8.3-8.3
		c0-0.1,0-0.3,0.1-0.4C2.3,13.1,2.5,13,2.6,13l3.6,0h0c0.2,0,0.4,0.2,0.5,0.4c0.5,1.9,2,3.5,3.9,4c0.2,0.1,0.4,0.3,0.4,0.5V21.4z
		 M8,12c0-2.2,1.8-4,4-4s4,1.8,4,4s-1.8,4-4,4S8,14.2,8,12z M13.6,21.9C13.6,21.9,13.5,21.9,13.6,21.9c-0.2,0-0.3,0-0.4-0.1
		c-0.1-0.1-0.2-0.2-0.2-0.4l0-3.6c0-0.2,0.2-0.4,0.4-0.5c1.9-0.5,3.4-2,3.9-3.9c0.1-0.2,0.3-0.4,0.5-0.4h3.6c0.1,0,0.3,0.1,0.4,0.2
		c0.1,0.1,0.1,0.3,0.1,0.4C21.2,17.9,17.9,21.2,13.6,21.9z"/>
</g>
<g id="Outline_Icons">
	<g>
		<circle class="st2" cx="12" cy="11.9" r="11.5"/>
		<circle class="st2" cx="12" cy="11.9" r="4"/>
		<path class="st3" d="M13.5,6.1c2.1,0.5,3.8,2.2,4.3,4.3l3.6,0c-0.6-4-3.8-7.2-7.9-7.9L13.5,6.1z M10.5,2.5c-4,0.6-7.2,3.8-7.9,7.9
			h3.6c0.5-2.1,2.2-3.8,4.3-4.3V2.5z M13.5,21.3c4-0.6,7.2-3.8,7.9-7.9h-3.6c-0.5,2.1-2.2,3.8-4.3,4.3L13.5,21.3z M10.5,17.7
			c-2.1-0.5-3.8-2.2-4.3-4.3l-3.6,0c0.6,4,3.8,7.2,7.9,7.9V17.7z"/>
	</g>
</g>
</svg>
