<?xml version="1.0" encoding="utf-8"?>
<!-- Generator: Adobe Illustrator 19.2.0, SVG Export Plug-In . SVG Version: 6.00 Build 0)  -->
<svg version="1.1" id="Layer_1" xmlns="http://www.w3.org/2000/svg" xmlns:xlink="http://www.w3.org/1999/xlink" x="0px" y="0px"
	 viewBox="0 0 24 24" style="enable-background:new 0 0 24 24;" xml:space="preserve">
<style type="text/css">
	.st0{display:none;}
	.st1{display:inline;}
	.st2{fill:none;stroke:#000000;stroke-linecap:round;stroke-linejoin:round;stroke-miterlimit:10;}
	.st3{fill:none;stroke:#000000;stroke-linejoin:round;stroke-miterlimit:10;}
</style>
<g id="Filled_Icons" class="st0">
	<g class="st1">
		<path d="M12,12c-2.2,0-4.8-1.5-4.8,2.3c0,1.2,1,2.2,2.2,2.2h5.1c1.2,0,2.2-1,2.2-2.2C16.8,10.5,14.2,12,12,12z M10,15H9v-2h1V15z
			 M15,15h-1v-2h1V15z"/>
		<path d="M12,0C5.4,0,0,5.4,0,12s5.4,12,12,12s12-5.4,12-12S18.6,0,12,0z M19,14.3c-0.2,2-1.8,4.2-3.8,4.2H8.8
			c-2,0-3.7-2.2-3.8-4.2c-0.1-1.5,0.2-2.7,0.9-3.7C5.8,10.5,4.3,7.7,6.3,6c1.3,0,3.2,2.1,3.2,2.1c1.6-0.5,3.4-0.5,5,0l0,0
			c0,0,2-2.1,3.2-2.1c2.1,1.7,0.4,4.6,0.4,4.6l0,0C18.7,11.6,19.1,12.9,19,14.3z"/>
	</g>
</g>
<g id="Outline_Icons">
	<g>
		<circle class="st2" cx="12" cy="12" r="11.5"/>
		<path class="st2" d="M18.1,10.7L18.1,10.7c0,0,1.7-2.9-0.4-4.6c-1.3,0-3.2,2.1-3.2,2.1l0,0c-1.6-0.5-3.4-0.5-5,0
			c0,0-2-2.1-3.2-2.1c-2,1.7-0.5,4.5-0.4,4.6c-0.7,1-1,2.2-0.9,3.7c0.2,2,1.8,4.2,3.8,4.2h6.3c2,0,3.7-2.2,3.8-4.2
			C19.1,12.9,18.7,11.6,18.1,10.7z"/>
		<g>
			<path class="st2" d="M16.8,14.3c0-3.8-2.6-2.3-4.8-2.3c-2.2,0-4.8-1.5-4.8,2.3c0,1.2,1,2.2,2.2,2.2h5.1
				C15.8,16.5,16.8,15.5,16.8,14.3z"/>
			<line class="st3" x1="14.5" y1="13" x2="14.5" y2="15"/>
			<line class="st3" x1="9.5" y1="13" x2="9.5" y2="15"/>
		</g>
	</g>
</g>
</svg>
