<?xml version="1.0" encoding="utf-8"?>
<!-- Generator: Adobe Illustrator 19.2.0, SVG Export Plug-In . SVG Version: 6.00 Build 0)  -->
<svg version="1.1" id="Layer_1" xmlns="http://www.w3.org/2000/svg" xmlns:xlink="http://www.w3.org/1999/xlink" x="0px" y="0px"
	 viewBox="0 0 24 24" style="enable-background:new 0 0 24 24;" xml:space="preserve">
<style type="text/css">
	.st0{display:none;}
	.st1{display:inline;}
	.st2{fill:none;stroke:#000000;stroke-linecap:round;stroke-linejoin:round;stroke-miterlimit:10;}
	.st3{fill:none;stroke:#000000;stroke-linejoin:round;stroke-miterlimit:10;}
</style>
<g id="Filled_Icons" class="st0">
	<g class="st1">
		<path d="M14,9h-1V7h-1v5.5c0,0.3,0.2,0.5,0.5,0.5H14c1.1,0,2-0.9,2-2C16,9.9,15.1,9,14,9z M14,12h-1v-2h1c0.6,0,1,0.4,1,1
			S14.6,12,14,12z"/>
		<path d="M12,0C5.4,0,0,5.4,0,12s5.4,12,12,12s12-5.4,12-12S18.6,0,12,0z M19,13.8c0,0.5-0.3,1-0.8,1.2C17.3,15.4,7,18.9,6.6,19.1
			c-0.2,0.1-0.4,0-0.5-0.1c-0.1-0.1-0.2-0.3-0.2-0.5L8.3,6.2C8.4,5.8,8.9,5,10,5h8.5C18.8,5,19,5.2,19,5.5V13.8z"/>
	</g>
</g>
<g id="Outline_Icons">
	<g>
		<circle class="st2" cx="12" cy="12" r="11.5"/>
		<g>
			<path class="st3" d="M18.5,5.5v6.7V13v0.7c0,0.3-0.2,0.6-0.5,0.8c-0.8,0.4-11.6,4-11.6,4L8.8,6.3c0,0,0.2-0.8,1.2-0.8H18.5z"/>
		</g>
		<path class="st3" d="M12.5,7v5.5H14c0.8,0,1.5-0.7,1.5-1.5S14.8,9.5,14,9.5h-1.5"/>
	</g>
</g>
</svg>
