<?xml version="1.0" encoding="utf-8"?>
<!-- Generator: Adobe Illustrator 19.2.0, SVG Export Plug-In . SVG Version: 6.00 Build 0)  -->
<svg version="1.1" id="Layer_1" xmlns="http://www.w3.org/2000/svg" xmlns:xlink="http://www.w3.org/1999/xlink" x="0px" y="0px"
	 viewBox="0 0 24 24" style="enable-background:new 0 0 24 24;" xml:space="preserve">
<style type="text/css">
	.st0{display:none;}
	.st1{display:inline;}
	.st2{fill:none;stroke:#000000;stroke-linecap:round;stroke-linejoin:round;stroke-miterlimit:10;}
</style>
<g id="Filled_Icons" class="st0">
	<path class="st1" d="M11.7,8.5c-2.5,0-4.7,0.9-6.2,2.3V2c0-0.6-0.4-1-1-1s-1,0.4-1,1v13c0,3.6,3.7,6.5,8.2,6.5
		c4.6,0,8.2-2.9,8.2-6.5C20,11.4,16.3,8.5,11.7,8.5z M11.7,18.2c-2.2,0-4-1.4-4-3.2s1.8-3.2,4-3.2s4,1.4,4,3.2
		C15.7,16.7,14,18.2,11.7,18.2z"/>
</g>
<g id="Outline_Icons">
	<g>
		<ellipse class="st2" cx="11.7" cy="15" rx="8.2" ry="6.5"/>
		<ellipse class="st2" cx="11.7" cy="15" rx="4" ry="3.2"/>
		<line class="st2" x1="3.5" y1="15" x2="3.5" y2="2"/>
	</g>
</g>
</svg>
