<?xml version="1.0" encoding="utf-8"?>
<!-- Generator: Adobe Illustrator 19.2.0, SVG Export Plug-In . SVG Version: 6.00 Build 0)  -->
<svg version="1.1" id="Layer_1" xmlns="http://www.w3.org/2000/svg" xmlns:xlink="http://www.w3.org/1999/xlink" x="0px" y="0px"
	 viewBox="0 0 24 24" style="enable-background:new 0 0 24 24;" xml:space="preserve">
<style type="text/css">
	.st0{display:none;}
	.st1{display:inline;}
	.st2{fill:none;stroke:#000000;stroke-linecap:round;stroke-linejoin:round;stroke-miterlimit:10;}
	.st3{fill:none;stroke:#000000;stroke-linejoin:round;stroke-miterlimit:10;}
</style>
<g id="Filled_Icons" class="st0">
	<path class="st1" d="M12,0C5.4,0,0,5.4,0,12s5.4,12,12,12s12-5.4,12-12S18.6,0,12,0z M18.6,17.1l-0.1,0.5C18.4,17.8,18.2,18,18,18
		c-0.1,0-0.5-0.1-0.6-0.1c-0.3-0.1-0.4-0.3-0.4-0.6l0.1-0.5c0-0.1,0.1-0.2,0.2-0.3c0.1-0.1,0.2-0.1,0.4-0.1l0.5,0.1
		c0.1,0,0.2,0.1,0.3,0.2C18.6,16.9,18.6,17,18.6,17.1z M18.7,16.1l-1-0.2l0.9-3.9l1,0.2L18.7,16.1z M20,10h-2.3l-4.2,4.1V17H16v1H8
		v-1h2.5v-2.9L6.5,9H4V8h7v1H9c0.8,1.1,2.7,3.6,3.1,4.2l3.4-3.2H14V9h6V10z"/>
</g>
<g id="Outline_Icons">
	<g>
		<circle class="st2" cx="12" cy="12" r="11.5"/>
		<path class="st3" d="M16,9.5l-3.9,3.7c-0.5-0.7-3.4-4.7-3.4-4.7"/>
		<polyline class="st3" points="13.5,17.5 13.5,14.1 18.2,9.5 		"/>
		<polyline class="st3" points="6.1,8.5 10.5,14.1 10.5,17.5 		"/>
		<line class="st3" x1="11" y1="8.5" x2="4" y2="8.5"/>
		<line class="st3" x1="20" y1="9.5" x2="14" y2="9.5"/>
		<line class="st3" x1="16" y1="17.5" x2="8" y2="17.5"/>
		<rect x="17.6" y="16.9" transform="matrix(0.236 -0.9718 0.9718 0.236 -3.0793 30.4381)" class="st3" width="0.5" height="0.5"/>
		<line class="st3" x1="19.1" y1="12.1" x2="18.2" y2="16"/>
	</g>
</g>
</svg>
