<?xml version="1.0" encoding="utf-8"?>
<!-- Generator: Adobe Illustrator 19.2.0, SVG Export Plug-In . SVG Version: 6.00 Build 0)  -->
<svg version="1.1" id="Layer_1" xmlns="http://www.w3.org/2000/svg" xmlns:xlink="http://www.w3.org/1999/xlink" x="0px" y="0px"
	 viewBox="0 0 24 24" style="enable-background:new 0 0 24 24;" xml:space="preserve">
<style type="text/css">
	.st0{display:none;}
	.st1{display:inline;}
	.st2{fill:none;stroke:#000000;stroke-linecap:round;stroke-linejoin:round;stroke-miterlimit:10;}
	.st3{fill:none;stroke:#000000;stroke-linejoin:round;stroke-miterlimit:10;}
</style>
<g id="Filled_Icons" class="st0">
	<g class="st1">
		<circle cx="9.4" cy="13.4" r="1"/>
		<path d="M14.1,15.8c-1.1,0.7-3,0.7-4.1,0c-0.2-0.1-0.5-0.1-0.7,0.2c-0.1,0.2-0.1,0.5,0.2,0.7c0.7,0.4,1.6,0.6,2.6,0.6
			c0.9,0,1.8-0.2,2.6-0.6c0.2-0.1,0.3-0.4,0.2-0.7C14.6,15.8,14.3,15.7,14.1,15.8z"/>
		<path d="M5,12.1c0,0.4,0.2,0.8,0.6,1c0.3-0.7,0.7-1.3,1.4-1.8C6.7,11.1,6.4,11,6.1,11C5.5,11,5,11.5,5,12.1z"/>
		<path d="M12,0C5.4,0,0,5.4,0,12s5.4,12,12,12s12-5.4,12-12S18.6,0,12,0z M18.7,14.1c0,0.1,0,0.2,0,0.3c0,2.6-3,4.7-6.7,4.7
			S5.3,17,5.3,14.4c0-0.1,0-0.2,0-0.3C4.5,13.7,4,13,4,12.1C4,10.9,5,10,6.1,10c0.6,0,1.2,0.3,1.6,0.8c1-0.6,2.3-1,3.8-1.1
			c0.1-0.8,0.3-2.3,1.4-3c0.6-0.4,1.4-0.3,2.3,0.1c0.3-0.8,1.1-1.4,2-1.4c1.2,0,2.1,1,2.1,2.1c0,1.2-1,2.1-2.1,2.1
			c-1.1,0-1.9-0.8-2.1-1.8c-0.7-0.4-1.3-0.5-1.7-0.3c-0.6,0.3-0.8,1.4-0.9,2.1c1.4,0.1,2.7,0.5,3.7,1.1c0.4-0.5,1-0.8,1.6-0.8
			c1.2,0,2.1,1,2.1,2.1C20,13,19.5,13.7,18.7,14.1z"/>
		<circle cx="14.6" cy="13.4" r="1"/>
		<path d="M17.9,11c-0.3,0-0.6,0.1-0.8,0.3c0.6,0.5,1.1,1.1,1.4,1.8c0.3-0.2,0.6-0.6,0.6-1C19,11.5,18.5,11,17.9,11z"/>
	</g>
</g>
<g id="Outline_Icons">
	<g>
		<circle class="st2" cx="12" cy="12" r="11.5"/>
		<g>
			<ellipse class="st3" cx="12" cy="14.4" rx="6.2" ry="4.2"/>
			<path class="st2" d="M14.3,16.2c-0.6,0.4-1.4,0.6-2.3,0.6c-0.9,0-1.7-0.2-2.3-0.6"/>
			<circle class="st3" cx="14.6" cy="13.4" r="1"/>
			<circle class="st3" cx="9.4" cy="13.4" r="1"/>
			<path class="st2" d="M16.4,11.4c0.3-0.6,0.8-0.9,1.5-0.9c0.9,0,1.6,0.7,1.6,1.6c0,0.8-0.6,1.5-1.4,1.6"/>
			<circle class="st2" cx="17.2" cy="7.5" r="1.6"/>
			<path class="st2" d="M7.6,11.4c-0.3-0.5-0.8-0.9-1.5-0.9c-0.9,0-1.6,0.7-1.6,1.6c0,0.8,0.6,1.5,1.4,1.6"/>
			<path class="st2" d="M12,10.1c0,0-0.1-4.8,3.6-2.6"/>
		</g>
	</g>
</g>
</svg>
