<?xml version="1.0" encoding="utf-8"?>
<!-- Generator: Adobe Illustrator 19.2.0, SVG Export Plug-In . SVG Version: 6.00 Build 0)  -->
<svg version="1.1" id="Layer_1" xmlns="http://www.w3.org/2000/svg" xmlns:xlink="http://www.w3.org/1999/xlink" x="0px" y="0px"
	 viewBox="0 0 24 24" style="enable-background:new 0 0 24 24;" xml:space="preserve">
<style type="text/css">
	.st0{display:none;}
	.st1{display:inline;}
	.st2{fill:none;stroke:#000000;stroke-linecap:round;stroke-linejoin:round;stroke-miterlimit:10;}
	.st3{fill:none;stroke:#000000;stroke-linejoin:round;stroke-miterlimit:10;}
</style>
<g id="Filled_Icons" class="st0">
	<path class="st1" d="M12,0C5.4,0,0,5.4,0,12s5.4,12,12,12s12-5.4,12-12S18.6,0,12,0z M4.5,16.4c-0.1,0-0.2,0-0.2-0.1
		C4.1,16.3,4,16.1,4,15.9V8.1c0-0.2,0.1-0.4,0.3-0.4c0.2-0.1,0.4-0.1,0.5,0l5.9,3.9c0.1,0.1,0.2,0.2,0.2,0.4s-0.1,0.3-0.2,0.4
		l-5.9,3.9C4.7,16.4,4.6,16.4,4.5,16.4z M13,19c-2.3,0-4.5-1.2-5.8-3.1l2.5-1.6c0.7,1.1,2,1.8,3.4,1.8c2.2,0,4.1-1.8,4.1-4.1
		S15.2,7.9,13,7.9c-1.4,0-2.6,0.7-3.4,1.8L7.2,8.1C8.5,6.1,10.6,5,13,5c3.9,0,7,3.2,7,7C20,15.9,16.9,19,13,19z"/>
</g>
<g id="Outline_Icons">
	<g>
		<circle class="st2" cx="12" cy="12" r="11.5"/>
		<g>
			<polygon class="st3" points="4.5,8.1 4.5,15.9 10.4,12 			"/>
			<path class="st2" d="M9.4,9.2c0.8-1,2.1-1.7,3.6-1.7c2.5,0,4.6,2,4.6,4.6c0,2.5-2,4.6-4.6,4.6c-1.4,0-2.7-0.7-3.6-1.7"/>
			<path class="st2" d="M7.5,8.5c1.2-1.8,3.2-3,5.5-3c3.6,0,6.5,2.9,6.5,6.5s-2.9,6.5-6.5,6.5c-2.3,0-4.4-1.2-5.5-3.1"/>
		</g>
	</g>
</g>
</svg>
