<?xml version="1.0" encoding="utf-8"?>
<!-- Generator: Adobe Illustrator 19.2.0, SVG Export Plug-In . SVG Version: 6.00 Build 0)  -->
<svg version="1.1" id="Layer_1" xmlns="http://www.w3.org/2000/svg" xmlns:xlink="http://www.w3.org/1999/xlink" x="0px" y="0px"
	 viewBox="0 0 24 24" style="enable-background:new 0 0 24 24;" xml:space="preserve">
<style type="text/css">
	.st0{display:none;}
	.st1{display:inline;}
	.st2{fill:none;stroke:#000000;stroke-linejoin:round;stroke-miterlimit:10;}
</style>
<g id="Filled_Icons" class="st0">
	<g class="st1">
		<path d="M6.5,5C6.2,5,6,5.2,6,5.5V8H1.5C1.2,8,1,8.2,1,8.5v7C1,15.8,1.2,16,1.5,16h5C6.8,16,7,15.8,7,15.5v-10C7,5.2,6.8,5,6.5,5z
			 M6,15H2V9h4V15z"/>
		<path d="M8.5,8C8.2,8,8,8.2,8,8.5v7C8,15.8,8.2,16,8.5,16S9,15.8,9,15.5v-7C9,8.2,8.8,8,8.5,8z"/>
		<path d="M8.5,5C8.2,5,8,5.2,8,5.5v1C8,6.8,8.2,7,8.5,7S9,6.8,9,6.5v-1C9,5.2,8.8,5,8.5,5z"/>
		<path d="M15.5,8h-5C10.2,8,10,8.2,10,8.5v7c0,0.3,0.2,0.5,0.5,0.5H15v2h-4.5c-0.3,0-0.5,0.2-0.5,0.5s0.2,0.5,0.5,0.5h5
			c0.3,0,0.5-0.2,0.5-0.5v-10C16,8.2,15.8,8,15.5,8z M15,15h-4V9h4V15z"/>
		<path d="M22.5,8h-5C17.2,8,17,8.2,17,8.5v7c0,0.3,0.2,0.5,0.5,0.5H22v2h-4.5c-0.3,0-0.5,0.2-0.5,0.5s0.2,0.5,0.5,0.5h5
			c0.3,0,0.5-0.2,0.5-0.5v-10C23,8.2,22.8,8,22.5,8z M22,15h-4V9h4V15z"/>
	</g>
</g>
<g id="Outline_Icons">
	<g>
		<polyline class="st2" points="6.5,5 6.5,15.5 1.5,15.5 1.5,8.5 6.5,8.5 		"/>
		<line class="st2" x1="8.5" y1="8" x2="8.5" y2="16"/>
		<line class="st2" x1="8.5" y1="5" x2="8.5" y2="7"/>
		<polyline class="st2" points="10,18.5 15.5,18.5 15.5,8.5 10.5,8.5 10.5,15.5 15.5,15.5 		"/>
		<polyline class="st2" points="17,18.5 22.5,18.5 22.5,8.5 17.5,8.5 17.5,15.5 22.5,15.5 		"/>
	</g>
</g>
</svg>
