<?xml version="1.0" encoding="utf-8"?>
<!-- Generator: Adobe Illustrator 19.2.0, SVG Export Plug-In . SVG Version: 6.00 Build 0)  -->
<svg version="1.1" id="Layer_1" xmlns="http://www.w3.org/2000/svg" xmlns:xlink="http://www.w3.org/1999/xlink" x="0px" y="0px"
	 viewBox="0 0 24 24" style="enable-background:new 0 0 24 24;" xml:space="preserve">
<style type="text/css">
	.st0{display:none;}
	.st1{display:inline;}
	.st2{fill:none;stroke:#000000;stroke-linejoin:round;stroke-miterlimit:10;}
</style>
<g id="Filled_Icons" class="st0">
	<g class="st1">
		<g>
			<path d="M19,21.5c-2.5,0-4.5-2-4.5-4.5v-6.5c0-0.6-0.4-1-1-1h-6c-1.1,0-2,0.9-2,2c0,1.1,0.9,2,2,2c2.2,0,4,1.8,4,4s-1.8,4-4,4H0
				v-2h7.5c1.1,0,2-0.9,2-2c0-1.1-0.9-2-2-2c-2.2,0-4-1.8-4-4s1.8-4,4-4h6c1.7,0,3,1.3,3,3V17c0,1.4,1.1,2.5,2.5,2.5
				s2.5-1.1,2.5-2.5V0h2v17C23.5,19.5,21.5,21.5,19,21.5z"/>
		</g>
	</g>
</g>
<g id="Outline_Icons">
	<g>
		<path class="st2" d="M0,20.5h7.5c1.7,0,3-1.3,3-3s-1.3-3-3-3c-1.7,0-3-1.3-3-3c0-1.7,1.3-3,3-3h6c1.1,0,2,0.9,2,2V17
			c0,1.9,1.6,3.5,3.5,3.5s3.5-1.6,3.5-3.5V0"/>
	</g>
</g>
</svg>
