<?xml version="1.0" encoding="utf-8"?>
<!-- Generator: Adobe Illustrator 19.2.0, SVG Export Plug-In . SVG Version: 6.00 Build 0)  -->
<svg version="1.1" id="Layer_1" xmlns="http://www.w3.org/2000/svg" xmlns:xlink="http://www.w3.org/1999/xlink" x="0px" y="0px"
	 viewBox="0 0 24 24" style="enable-background:new 0 0 24 24;" xml:space="preserve">
<style type="text/css">
	.st0{display:none;}
	.st1{display:inline;}
	.st2{fill:none;stroke:#000000;stroke-linecap:round;stroke-linejoin:round;stroke-miterlimit:10;}
	.st3{fill:none;stroke:#000000;stroke-linejoin:round;stroke-miterlimit:10;}
</style>
<g id="Filled_Icons" class="st0">
	<g class="st1">
		<path d="M14.6,13.5H9.4c-0.5,0-0.9,0.5-0.9,1c0,0.5,0.4,1,0.9,1h5.2c0.5,0,0.9-0.5,0.9-1C15.5,14,15.1,13.5,14.6,13.5z"/>
		<path d="M9.4,10.5h3.2c0.5,0,0.9-0.5,0.9-1c0-0.5-0.4-1-0.9-1H9.4c-0.5,0-0.9,0.5-0.9,1C8.5,10,8.9,10.5,9.4,10.5z"/>
		<path d="M12,0C5.4,0,0,5.4,0,12s5.4,12,12,12s12-5.4,12-12S18.6,0,12,0z M18.5,14c0,2.4-2.1,4.5-4.5,4.5H9.9c-2.4,0-4.4-2-4.4-4.4
			V9.9c0-2.4,2-4.4,4.4-4.4H12c1.1,0.1,2.8,1.1,3.4,2.4c0.2,0.4,0.2,0.6,0.3,1.7c0.1,0.6,0.1,0.5,0.4,0.7c0.4,0.3,1.7,0.1,2,0.3
			c0.2,0.2,0.3,0.2,0.4,0.6L18.5,14L18.5,14z"/>
	</g>
</g>
<g id="Outline_Icons">
	<g>
		<circle class="st2" cx="12" cy="12" r="11.5"/>
		<path class="st3" d="M18.1,10.6c-0.3-0.2-1.7,0-2-0.3c-0.2-0.2-0.3-0.2-0.4-0.7c-0.1-1.1-0.1-1.3-0.3-1.7
			c-0.6-1.3-2.3-2.3-3.4-2.4H9.9c-2.4,0-4.4,2-4.4,4.4v4.1c0,2.4,2,4.4,4.4,4.4H14c2.4,0,4.5-2,4.5-4.5v-2.8
			C18.4,10.8,18.3,10.8,18.1,10.6z"/>
		<path class="st3" d="M8.5,14.5c0,0.5,0.4,1,0.9,1h5.2c0.5,0,0.9-0.5,0.9-1c0-0.5-0.4-1-0.9-1H9.4C8.9,13.5,8.5,14,8.5,14.5z"/>
		<path class="st3" d="M8.5,9.5c0,0.5,0.4,1,0.9,1h3.2c0.5,0,0.9-0.5,0.9-1c0-0.5-0.4-1-0.9-1H9.4C8.9,8.5,8.5,9,8.5,9.5z"/>
	</g>
</g>
</svg>
