<?xml version="1.0" encoding="utf-8"?>
<!-- Generator: Adobe Illustrator 19.2.0, SVG Export Plug-In . SVG Version: 6.00 Build 0)  -->
<svg version="1.1" id="Layer_1" xmlns="http://www.w3.org/2000/svg" xmlns:xlink="http://www.w3.org/1999/xlink" x="0px" y="0px"
	 viewBox="0 0 24 24" style="enable-background:new 0 0 24 24;" xml:space="preserve">
<style type="text/css">
	.st0{display:none;}
	.st1{display:inline;}
	.st2{fill:none;stroke:#000000;stroke-linejoin:round;stroke-miterlimit:10;}
	.st3{fill:none;stroke:#000000;stroke-linecap:round;stroke-linejoin:round;stroke-miterlimit:10;}
</style>
<g id="Filled_Icons" class="st0">
	<path class="st1" d="M12,0C5.4,0,0,5.4,0,12s5.4,12,12,12s12-5.4,12-12S18.6,0,12,0z M18,17.4c-0.1,0.1-0.1,0.1-0.2,0.1H13v-1.3
		l1.2-0.8c0.2-0.2,0.3-0.5,0.1-0.7c-0.2-0.2-0.5-0.3-0.7-0.1L13,15v-0.6l1.2-0.8c0.2-0.2,0.3-0.5,0.1-0.7c-0.2-0.2-0.5-0.3-0.7-0.1
		L13,13.2v-0.7c0-0.3-0.2-0.5-0.5-0.5c-0.3,0-0.5,0.2-0.5,0.5V14l-0.8-0.4c-0.2-0.1-0.5,0-0.7,0.2c-0.1,0.2,0,0.5,0.2,0.7l1.2,0.6
		v2.4H7c-0.1,0-0.2,0-0.2-0.1c-0.1-0.1-0.1-0.2,0-0.3l5.4-12.4c0-0.1,0.2-0.2,0.3-0.2c0.1,0,0.2,0.1,0.3,0.2l5.4,12.4
		C18.1,17.2,18.1,17.3,18,17.4z"/>
</g>
<g id="Outline_Icons">
	<g>
		<g>
			<path class="st2" d="M17.8,17.5c0.1,0,0.2,0,0.2-0.1c0.1-0.1,0.1-0.2,0-0.3L12.7,4.7c0-0.1-0.2-0.2-0.3-0.2l0,0
				c-0.1,0-0.2,0.1-0.3,0.2L6.7,17.1c0,0.1,0,0.2,0,0.3c0.1,0.1,0.2,0.1,0.2,0.1H17.8z"/>
			<line class="st2" x1="12.5" y1="14.2" x2="14.4" y2="12.9"/>
			<line class="st2" x1="12.5" y1="14.8" x2="10.5" y2="13.8"/>
			<line class="st2" x1="12.5" y1="16" x2="14.4" y2="14.7"/>
		</g>
		<circle class="st3" cx="12" cy="12" r="11.5"/>
		<line class="st2" x1="12.5" y1="17.5" x2="12.5" y2="12"/>
	</g>
</g>
</svg>
