<?xml version="1.0" encoding="utf-8"?>
<!-- Generator: Adobe Illustrator 19.2.0, SVG Export Plug-In . SVG Version: 6.00 Build 0)  -->
<svg version="1.1" id="Layer_1" xmlns="http://www.w3.org/2000/svg" xmlns:xlink="http://www.w3.org/1999/xlink" x="0px" y="0px"
	 viewBox="0 0 24 24" style="enable-background:new 0 0 24 24;" xml:space="preserve">
<style type="text/css">
	.st0{display:none;}
	.st1{display:inline;}
	.st2{fill:none;stroke:#000000;stroke-linejoin:round;stroke-miterlimit:10;}
</style>
<g id="Filled_Icons" class="st0">
	<g class="st1">
		<path d="M24,11C23.1,3.8,17.6-0.1,11.7,0c-1.1,0.2-2.5,0.5-3.3,1.5c-0.6,0.6-1,1.7-1,2.4c-0.2,2.9,1.9,4.1,3.7,5
			c6.2,3.3,7,3.5,8,4.6c1.3,1.4,1.8,3.1,1.7,5.2c0,0.2,0.1,0.4,0.3,0.5c0.2,0.1,0.4,0.1,0.6-0.1c0.3-0.3,0.6-0.7,0.9-1.2
			C24,15.1,24,12.8,24,11z"/>
		<path d="M11.6,12.3c-1.2-0.6-4.6-2.3-5.5-3.2c-1.8-1.8-1.8-4-1.8-5.1c0-0.2-0.1-0.4-0.3-0.5C3.9,3.6,3.6,3.6,3.5,3.7
			c-1,0.9-2,2.3-2.6,3.9c-1.8,4.7-0.7,9.2,2.5,12.7c3.2,3.4,9.6,5.3,12.8,1.8c0.5-0.6,2.3-2.6,1.6-5.1
			C17.2,15.1,15.1,14.2,11.6,12.3z M15.5,21.5c-2.8,3-8.6,1.1-11.4-1.8c-1.9-2.1-3-4.5-3.1-7.2c0-1-0.1-2.2,0.8-4.5
			c0.4-1,0.9-2,1.5-2.7c0,0.3,0,0.5,0.1,0.7c0.2,1.4,1,2.9,2,3.9c1,1,2.8,1.9,5.7,3.3c3.5,1.8,5.3,2.6,5.7,4.1
			C17.4,19.3,15.9,21,15.5,21.5z"/>
	</g>
</g>
<g id="Outline_Icons">
	<g>
		<path id="Simplenote_4_" class="st2" d="M3.7,20c-1.7-1.9-3.1-4.3-3.2-7.5c0-0.3,0-0.6,0-0.9c0.1-1.4,0.4-2.6,0.9-3.7
			C1.9,6.4,2.8,5,3.8,4.1c0,0.7,0,1.4,0.1,1.8c0.2,1.3,0.9,2.7,1.8,3.6c0.7,0.7,1.7,1.2,2.7,1.8c2,1.1,3.9,2,5.9,3.1
			c1.3,0.7,2.6,1.5,3,2.9c0.5,1.9-0.6,3.7-1.5,4.6c-0.8,0.9-1.9,1.5-3.2,1.7c-0.5,0-1,0-1.5,0C7.9,23.1,5.4,21.9,3.7,20L3.7,20z
			 M11.3,8.5c1.8,1,3.7,1.9,5.6,2.9c1,0.5,1.8,1,2.5,1.8c1.2,1.3,2,3.1,1.8,5.6c0.3-0.3,0.6-0.7,0.8-1.1c0.7-1.2,1.2-2.8,1.3-4.6
			c0-0.1,0-0.1,0-0.1c0-0.6,0-1.2,0-1.8C22.7,4.8,18.4,1,12.4,0.5c-0.2,0-0.4,0-0.6,0c-1.2,0.2-2.3,0.5-3,1.3
			C8.3,2.3,7.9,3.3,7.9,3.9C7.7,6.6,9.5,7.5,11.3,8.5L11.3,8.5z"/>
	</g>
</g>
</svg>
