<?xml version="1.0" encoding="utf-8"?>
<!-- Generator: Adobe Illustrator 19.2.0, SVG Export Plug-In . SVG Version: 6.00 Build 0)  -->
<svg version="1.1" id="Layer_1" xmlns="http://www.w3.org/2000/svg" xmlns:xlink="http://www.w3.org/1999/xlink" x="0px" y="0px"
	 viewBox="0 0 24 24" style="enable-background:new 0 0 24 24;" xml:space="preserve">
<style type="text/css">
	.st0{display:none;}
	.st1{display:inline;}
	.st2{fill:none;stroke:#000000;stroke-linecap:round;stroke-linejoin:round;stroke-miterlimit:10;}
</style>
<g id="Filled_Icons" class="st0">
	<g class="st1">
		<path d="M12,0C5.4,0,0,5.4,0,12s5.4,12,12,12s12-5.4,12-12S18.6,0,12,0z M12.5,17.5c-2.6,0-5-1.6-5-4.1V5.5C7.5,5.2,7.7,5,8,5
			s0.5,0.2,0.5,0.5v5.7c0.9-1,2.4-1.6,4-1.6c2.8,0,5,1.8,5,4C17.6,15.7,15.3,17.5,12.5,17.5z"/>
		<ellipse cx="12.5" cy="13.5" rx="2.4" ry="1.9"/>
	</g>
</g>
<g id="Outline_Icons">
	<g>
		<circle class="st2" cx="12" cy="12" r="11.5"/>
		<ellipse class="st2" cx="12.5" cy="13.5" rx="5" ry="4"/>
		<ellipse class="st2" cx="12.5" cy="13.5" rx="2.4" ry="1.9"/>
		<line class="st2" x1="7.5" y1="13.5" x2="7.5" y2="5.6"/>
	</g>
</g>
</svg>
