<?xml version="1.0" encoding="utf-8"?>
<!-- Generator: Adobe Illustrator 19.2.0, SVG Export Plug-In . SVG Version: 6.00 Build 0)  -->
<svg version="1.1" id="Layer_1" xmlns="http://www.w3.org/2000/svg" xmlns:xlink="http://www.w3.org/1999/xlink" x="0px" y="0px"
	 viewBox="0 0 24 24" style="enable-background:new 0 0 24 24;" xml:space="preserve">
<style type="text/css">
	.st0{display:none;}
	.st1{display:inline;}
	.st2{fill:none;stroke:#000000;stroke-linecap:round;stroke-linejoin:round;stroke-miterlimit:10;}
	.st3{fill:none;stroke:#000000;stroke-linejoin:round;stroke-miterlimit:10;}
</style>
<g id="Filled_Icons" class="st0">
	<path class="st1" d="M12,0C5.4,0,0,5.4,0,12s5.4,12,12,12s12-5.4,12-12S18.6,0,12,0z M11,18c0,0.2-0.1,0.3-0.2,0.4
		c-0.1,0.1-0.2,0.1-0.3,0.1c-0.1,0-0.1,0-0.2,0l-5-2.3C5.1,16.2,5,16,5,15.8V8.4C5,8.2,5.1,8,5.2,8c0.1-0.1,0.3-0.1,0.5,0l5,2.2
		c0.2,0.1,0.3,0.3,0.3,0.5V18z M12,9.5c-0.1,0-0.1,0-0.2,0L5.5,6.8C5.3,6.8,5.2,6.6,5.2,6.4c0-0.2,0.2-0.4,0.4-0.5L12.3,4
		c0.1,0,0.2,0,0.3,0l5.9,2c0.2,0.1,0.3,0.2,0.3,0.5c0,0.2-0.1,0.4-0.3,0.5l-6.3,2.5C12.1,9.5,12.1,9.5,12,9.5z M19,15.8
		c0,0.2-0.1,0.4-0.3,0.5l-5,2.3c-0.1,0-0.1,0-0.2,0c-0.1,0-0.2,0-0.3-0.1c-0.1-0.1-0.2-0.2-0.2-0.4v-7.6c0-0.2,0.1-0.4,0.3-0.5
		l5-2.1c0.2-0.1,0.3,0,0.5,0C18.9,8.1,19,8.3,19,8.4V15.8z"/>
</g>
<g id="Outline_Icons">
	<g>
		<circle class="st2" cx="12" cy="12" r="11.5"/>
		<path class="st3" d="M5.5,8.4l5,2.2V18l-5-2.3V8.4z"/>
		<polygon class="st3" points="12,9 18.3,6.5 12.5,4.5 5.7,6.4 		"/>
		<polygon class="st3" points="13.5,18.1 18.5,15.8 18.5,8.4 13.5,10.5 		"/>
	</g>
</g>
</svg>
