<?xml version="1.0" encoding="utf-8"?>
<!-- Generator: Adobe Illustrator 19.2.0, SVG Export Plug-In . SVG Version: 6.00 Build 0)  -->
<svg version="1.1" id="Layer_1" xmlns="http://www.w3.org/2000/svg" xmlns:xlink="http://www.w3.org/1999/xlink" x="0px" y="0px"
	 viewBox="0 0 24 24" style="enable-background:new 0 0 24 24;" xml:space="preserve">
<style type="text/css">
	.st0{display:none;}
	.st1{display:inline;}
	.st2{fill:none;stroke:#000000;stroke-linecap:round;stroke-linejoin:round;stroke-miterlimit:10;}
	.st3{fill:none;stroke:#000000;stroke-linejoin:round;stroke-miterlimit:10;}
</style>
<g id="Filled_Icons" class="st0">
	<g class="st1">
		<circle cx="17.1" cy="12.1" r="0.5"/>
		<path d="M10.9,13.8c0.2,0.6,0.7,1,1.3,1c0.8,0,1.4-0.6,1.4-1.4c0,0,0-0.1,0-0.1L10.9,13.8z"/>
		<path d="M12,0C5.4,0,0,5.4,0,12s5.4,12,12,12s12-5.4,12-12S18.6,0,12,0z M19.5,15.1c0,0.7-0.5,1.4-1.2,1.4H7.9
			c-0.2,1.5-2.2,1.9-2.2,1.9c0.3-0.6,0.6-1.7,0.6-1.9H5.7c-0.7,0-1.2-0.7-1.2-1.4V7.7C4.5,7,5,6.5,5.7,6.5h12.6
			c0.6,0,1.2,0.5,1.2,1.2L19.5,15.1L19.5,15.1z"/>
		<circle cx="7" cy="12.1" r="0.5"/>
	</g>
</g>
<g id="Outline_Icons">
	<g>
		<circle class="st2" cx="12" cy="12" r="11.5"/>
		<g>
			<path class="st3" d="M5.7,16.5h0.6c0,0.2-0.3,1.3-0.6,1.9c0,0,2-0.3,2.2-1.9h10.5c0.7,0,1.2-0.7,1.2-1.4V7.7
				c0-0.7-0.5-1.2-1.2-1.2H5.7C5,6.5,4.5,7,4.5,7.7v7.4C4.5,15.8,5,16.5,5.7,16.5 M17.1,11.6c0.3,0,0.5,0.2,0.5,0.5
				c0,0.3-0.2,0.5-0.5,0.5c-0.3,0-0.5-0.2-0.5-0.5S16.8,11.6,17.1,11.6 M13.7,13.3c0,0,0,0.1,0,0.1c0,0.8-0.6,1.4-1.4,1.4
				c-0.6,0-1.2-0.4-1.3-1L13.7,13.3z M7,11.6c0.3,0,0.5,0.2,0.5,0.5c0,0.3-0.2,0.5-0.5,0.5c-0.3,0-0.5-0.2-0.5-0.5S6.7,11.6,7,11.6"
				/>
		</g>
	</g>
</g>
</svg>
