<?xml version="1.0" encoding="utf-8"?>
<!-- Generator: Adobe Illustrator 19.2.0, SVG Export Plug-In . SVG Version: 6.00 Build 0)  -->
<svg version="1.1" id="Layer_1" xmlns="http://www.w3.org/2000/svg" xmlns:xlink="http://www.w3.org/1999/xlink" x="0px" y="0px"
	 viewBox="0 0 24 24" style="enable-background:new 0 0 24 24;" xml:space="preserve">
<style type="text/css">
	.st0{display:none;}
	.st1{display:inline;}
	.st2{fill:none;stroke:#000000;stroke-linecap:round;stroke-linejoin:round;stroke-miterlimit:10;}
	.st3{fill:none;stroke:#000000;stroke-linejoin:round;stroke-miterlimit:10;}
</style>
<g id="Filled_Icons" class="st0">
	<path class="st1" d="M12,0C5.4,0,0,5.4,0,12s5.4,12,12,12s12-5.4,12-12S18.6,0,12,0z M15.5,17.6c-4.1,1.9-6-0.6-6-3.6V9.5h-2V8.1
		C8,8,8.7,7.7,9.1,7.4C9.5,7,9.8,6.6,10.1,6.2c0.2-0.5,0.4-1,0.5-1.7h1.9v3h2v2h-2v3.7c0,2.5,1.5,2.7,3,1.7
		C15.5,14.9,15.5,17.6,15.5,17.6z"/>
</g>
<g id="Outline_Icons">
	<g>
		<circle class="st2" cx="12" cy="12" r="11.5"/>
		<path class="st3" d="M12.5,4.5v3h2v2h-2v3.7c0,2.5,1.5,2.7,3,1.7v2.7c-4.1,1.9-6-0.6-6-3.6V9.5h-2V8.1C8,8,8.7,7.7,9.1,7.4
			C9.5,7,9.8,6.6,10.1,6.2c0.2-0.5,0.4-1,0.5-1.7L12.5,4.5L12.5,4.5z"/>
	</g>
</g>
</svg>
