<?xml version="1.0" encoding="utf-8"?>
<!-- Generator: Adobe Illustrator 19.2.0, SVG Export Plug-In . SVG Version: 6.00 Build 0)  -->
<svg version="1.1" id="Layer_1" xmlns="http://www.w3.org/2000/svg" xmlns:xlink="http://www.w3.org/1999/xlink" x="0px" y="0px"
	 viewBox="0 0 24 24" style="enable-background:new 0 0 24 24;" xml:space="preserve">
<style type="text/css">
	.st0{display:none;}
	.st1{display:inline;}
	.st2{fill:none;stroke:#000000;stroke-linecap:round;stroke-linejoin:round;stroke-miterlimit:10;}
	.st3{fill:none;stroke:#000000;stroke-linejoin:round;stroke-miterlimit:10;}
</style>
<g id="Filled_Icons" class="st0">
	<path class="st1" d="M12,0C5.4,0,0,5.4,0,12s5.4,12,12,12s12-5.4,12-12S18.6,0,12,0z M12.5,16.7c-0.7,0-1.3-0.1-1.9-0.2l0,0
		c0,0-1.8,1.8-4,1.4c-0.6-0.1-0.3-0.4-0.3-0.4s1.8-0.4,1.4-2.4c-1.3-1-2.1-2.4-2.1-4c0-3.1,3.1-5.6,7-5.6c3.9,0,7,2.5,7,5.6
		C19.5,14.2,16.4,16.7,12.5,16.7z"/>
</g>
<g id="Outline_Icons">
	<g>
		<circle class="st2" cx="12" cy="12" r="11.5"/>
		<path class="st3" d="M12.5,5.5c-3.9,0-7,2.5-7,5.6c0,1.6,0.8,3,2.1,4c0.4,2-1.4,2.4-1.4,2.4S6,17.8,6.5,17.9c2.2,0.4,4-1.4,4-1.4
			l0,0c0.6,0.1,1.3,0.2,1.9,0.2c3.9,0,7-2.5,7-5.6C19.5,8,16.4,5.5,12.5,5.5z"/>
	</g>
</g>
</svg>
