<?xml version="1.0" encoding="utf-8"?>
<!-- Generator: Adobe Illustrator 19.2.0, SVG Export Plug-In . SVG Version: 6.00 Build 0)  -->
<svg version="1.1" id="Layer_1" xmlns="http://www.w3.org/2000/svg" xmlns:xlink="http://www.w3.org/1999/xlink" x="0px" y="0px"
	 viewBox="0 0 24 24" style="enable-background:new 0 0 24 24;" xml:space="preserve">
<style type="text/css">
	.st0{display:none;}
	.st1{display:inline;}
	.st2{fill:none;stroke:#000000;stroke-linejoin:round;stroke-miterlimit:10;}
</style>
<g id="Filled_Icons" class="st0">
	<g class="st1">
		<path d="M15.7,6.5l-0.8,5.4l2.3,0.3c0.1-0.3,0.3-0.5,0.8-0.5c0.6,0,0.9,0.6,0.9,1.3c0,0.8-0.1,1.6-0.9,1.6c-1,0-0.9-0.4-0.9-1.2
			c0-0.5-0.4-1-1.1-1c-0.8,0-1.4,0.2-1.5,1c-0.1,1,0,1.3,0.7,2.1c0.7,0.6,1.8,1,3.2,1c2.7,0,4.1-1.6,4.1-3.6c0-1.4-1-2.8-2.9-2.8
			c-1.1,0-1.9,0.3-2.2,0.8l0.2-2.3h4.1l0.1-2H15.7z"/>
		<polygon points="8.5,9.5 8.5,12.5 9.5,12.5 9.5,14.5 8.5,14.5 8.5,16.5 13.4,16.5 13.4,14.5 12.5,14.5 12.5,9.5 		"/>
		<path d="M6.3,10.5c-0.8,0-1.4,0.4-1.8,1.2V7.5h-4v2h1v5h-1v2H4v-2C4,14.2,4.2,14,4.5,14S5,14.2,5,14.5v2h2.5v-4.2
			C7.5,11.1,7,10.5,6.3,10.5z"/>
		<rect x="10.5" y="7.5" width="2" height="1"/>
	</g>
</g>
<g id="Outline_Icons">
	<g>
		<path id="rect10753_2_" class="st2" d="M4.6,16.5h2.9v-4.2c0-1.2-0.5-1.8-1.2-1.8c-0.8,0-1.4,0.4-1.8,1.2V7.5h-4v2h1v5h-1v2H4.6
			L4.5,14"/>
		<path class="st2" d="M15.7,6.5l-0.8,5.4l2.3,0.3c0.1-0.3,0.3-0.5,0.8-0.5c0.6,0,0.9,0.6,0.9,1.3c0,0.8-0.1,1.6-0.9,1.6
			c-1,0-0.9-0.4-0.9-1.2c0-0.5-0.4-1-1.1-1c-0.8,0-1.4,0.2-1.5,1c-0.1,1,0,1.3,0.7,2.1c0.7,0.6,1.8,1,3.2,1c2.7,0,4.1-1.6,4.1-3.6
			c0-1.4-1-2.8-2.9-2.8c-1.1,0-1.9,0.3-2.2,0.8l0.2-2.3h4.1l0.1-2H15.7z"/>
		<rect x="10.5" y="7.5" class="st2" width="2" height="2"/>
		<polygon class="st2" points="8.5,9.5 8.5,12.5 9.5,12.5 9.5,14.5 8.5,14.5 8.5,16.5 13.4,16.5 13.4,14.5 12.5,14.5 12.5,9.5 		"/>
	</g>
</g>
</svg>
