<?xml version="1.0" encoding="utf-8"?>
<!-- Generator: Adobe Illustrator 19.2.0, SVG Export Plug-In . SVG Version: 6.00 Build 0)  -->
<svg version="1.1" id="Layer_1" xmlns="http://www.w3.org/2000/svg" xmlns:xlink="http://www.w3.org/1999/xlink" x="0px" y="0px"
	 viewBox="0 0 24 24" style="enable-background:new 0 0 24 24;" xml:space="preserve">
<style type="text/css">
	.st0{display:none;}
	.st1{display:inline;}
	.st2{fill:none;stroke:#000000;stroke-linecap:round;stroke-linejoin:round;stroke-miterlimit:10;}
</style>
<g id="Filled_Icons" class="st0">
	<g class="st1">
		<path d="M20.7,13.9c-0.6-0.7-1.4-1.1-2.3-1.2c-0.2,0.4-0.5,0.7-0.8,1.1c-1.2,1.4-2.7,2.3-4.4,2.8c0,0.1,0,0.2,0,0.4
			c0,1.9,1.3,3.7,3.1,4.2l0.7,2.6c0.1,0.2,0.3,0.4,0.5,0.4c0,0,0,0,0,0c0.2,0,0.4-0.1,0.5-0.4l0.8-2.5c1.9-0.5,3.2-2.2,3.2-4.2
			C22,15.8,21.5,14.7,20.7,13.9z"/>
		<path d="M15.9,2c-1.4-1.2-3.2-1.9-5.1-1.9c-2.3,0-4.5,1-6,2.8c-2.3,2.7-2.5,6.7-0.4,9.6l-2.2,4.8c-0.1,0.2,0,0.4,0.1,0.6
			C2.5,18,2.6,18,2.8,18C2.8,18,2.9,18,3,18L7.4,15c1.1,0.5,2.3,0.8,3.5,0.8c2.3,0,4.5-1,6-2.8C19.7,9.7,19.3,4.8,15.9,2z"/>
	</g>
</g>
<g id="Outline_Icons">
	<g>
		<path class="st2" d="M16.5,12.7c2.6-3.1,2.2-7.7-0.9-10.4C12.5-0.3,7.9,0.1,5.3,3.2C3,5.9,3,9.8,5,12.5l-2.3,5.1l4.6-3.1
			C10.4,16.1,14.2,15.4,16.5,12.7z"/>
		<path class="st2" d="M21.5,17c0-2.1-1.7-3.9-3.8-3.9c-2.1,0-3.9,1.7-3.9,3.8c0,1.9,1.3,3.4,3,3.8l0.8,2.8l0.8-2.8
			C20.1,20.4,21.4,18.8,21.5,17z"/>
	</g>
</g>
</svg>
