<?xml version="1.0" encoding="utf-8"?>
<!-- Generator: Adobe Illustrator 19.2.0, SVG Export Plug-In . SVG Version: 6.00 Build 0)  -->
<svg version="1.1" id="Layer_1" xmlns="http://www.w3.org/2000/svg" xmlns:xlink="http://www.w3.org/1999/xlink" x="0px" y="0px"
	 viewBox="0 0 24 24" style="enable-background:new 0 0 24 24;" xml:space="preserve">
<style type="text/css">
	.st0{display:none;}
	.st1{display:inline;}
	.st2{fill:none;stroke:#000000;stroke-linejoin:round;stroke-miterlimit:10;}
</style>
<g id="Filled_Icons" class="st0">
	<g class="st1">
		<path d="M7.7,15.5c-1.4,2.7-2.5,3.7-5.4,4.3c0.5,1.3,0.8,1.8,1.6,3.5c3.6-1,6-3.2,7.4-5c2.4,0.6,4.2,2.2,5.7,5
			c1.5-1.3,1.7-1.4,3-2.5c-1-2.5-3.5-4.6-5.9-5.7c0-0.6,0-0.7,0.1-1.2c3.5,0.9,6.4-2,6.4-2s-0.7-1.4-1.7-2.9
			c-3.2,2.9-4.8-0.3-8.3-1.5C8.4,8.9,7.6,12.2,7.7,15.5z"/>
		<path d="M17.8,3.8c0-1.8-1.5-3.3-3.3-3.3S11.2,2,11.2,3.8c0,1.8,1.5,3.3,3.3,3.3S17.8,5.6,17.8,3.8z"/>
	</g>
</g>
<g id="Outline_Icons">
	<g>
		<path class="st2" d="M7.7,15.5c-1.4,2.7-2.5,3.7-5.4,4.3c0.5,1.3,0.8,1.8,1.6,3.5c3.6-1,6-3.2,7.4-5c2.4,0.6,4.2,2.2,5.7,5
			c1.5-1.3,1.7-1.4,3-2.5c-1-2.5-3.5-4.6-5.9-5.7c0-0.6,0-0.7,0.1-1.2c3.5,0.9,6.4-2,6.4-2s-0.7-1.4-1.7-2.9
			c-3.2,2.9-4.8-0.3-8.3-1.5C8.4,8.9,7.6,12.2,7.7,15.5z"/>
		<path class="st2" d="M17.8,3.8c0-1.8-1.5-3.3-3.3-3.3S11.2,2,11.2,3.8c0,1.8,1.5,3.3,3.3,3.3S17.8,5.6,17.8,3.8z"/>
	</g>
</g>
</svg>
