<?xml version="1.0" encoding="utf-8"?>
<!-- Generator: Adobe Illustrator 19.2.0, SVG Export Plug-In . SVG Version: 6.00 Build 0)  -->
<svg version="1.1" id="Layer_1" xmlns="http://www.w3.org/2000/svg" xmlns:xlink="http://www.w3.org/1999/xlink" x="0px" y="0px"
	 viewBox="0 0 24 24" style="enable-background:new 0 0 24 24;" xml:space="preserve">
<style type="text/css">
	.st0{display:none;}
	.st1{display:inline;}
	.st2{fill:none;stroke:#000000;stroke-linecap:round;stroke-linejoin:round;stroke-miterlimit:10;}
</style>
<g id="Filled_Icons" class="st0">
	<path class="st1" d="M12,0.5C5.6,0.5,0.5,5.6,0.5,12c0,6.4,5.1,11.5,11.5,11.5S23.5,18.4,23.5,12C23.5,5.6,18.4,0.5,12,0.5z
		 M17,14.5c0,1.5-1.5,1.5-2.5,1.5c-1.2,0-2.5-0.7-2.5-2.5s1.3-2.5,2.5-2.5H16V6.4l-5,3.3v7.7C11,19,9.5,19,8.5,19
		C7.3,19,6,18.4,6,16.5C6,14.7,7.3,14,8.5,14H10V9.5c0-0.2,0.1-0.3,0.2-0.4l6-4c0.2-0.1,0.4-0.1,0.5,0C16.9,5.2,17,5.3,17,5.5V14.5z
		"/>
</g>
<g id="Outline_Icons">
	<g>
		<path class="st2" d="M10.5,17.5c0,1-1,1-2,1s-2-0.5-2-2s1-2,2-2s1.5,0,2,0C10.5,15.5,10.5,16.5,10.5,17.5z"/>
		<polyline class="st2" points="10.5,16 10.5,9.5 16.5,5.5 16.5,12 		"/>
		<path class="st2" d="M16.5,14.5c0,1-1,1-2,1s-2-0.5-2-2s1-2,2-2s1.5,0,2,0C16.5,12.5,16.5,13.5,16.5,14.5z"/>
		<circle class="st2" cx="12" cy="12" r="11.5"/>
	</g>
</g>
</svg>
