<?xml version="1.0" encoding="utf-8"?>
<!-- Generator: Adobe Illustrator 19.2.0, SVG Export Plug-In . SVG Version: 6.00 Build 0)  -->
<svg version="1.1" id="Layer_1" xmlns="http://www.w3.org/2000/svg" xmlns:xlink="http://www.w3.org/1999/xlink" x="0px" y="0px"
	 viewBox="0 0 24 24" style="enable-background:new 0 0 24 24;" xml:space="preserve">
<style type="text/css">
	.st0{display:none;}
	.st1{display:inline;}
	.st2{fill:none;stroke:#000000;stroke-linejoin:round;stroke-miterlimit:10;}
</style>
<g id="Filled_Icons" class="st0">
	<g class="st1">
		<path d="M11.4,12.9c-0.7-0.5-1.4-1.3-1.4-1.5c0-0.4,0-0.6,1-1.4c1.2-1,1.9-2.2,1.9-3.6c0-1.2-0.4-2.3-1-3h0.5c0.1,0,0.2,0,0.3-0.1
			l1.4-1c0.2-0.1,0.2-0.3,0.2-0.5c-0.1-0.2-0.2-0.3-0.5-0.3H7.6c-0.7,0-1.3,0.1-2,0.3C3.4,2.6,1.8,4.5,1.8,6.5c0,2.8,2.1,4.8,5,4.9
			c-0.1,0.2-0.1,0.4-0.1,0.6c0,0.4,0.1,0.8,0.3,1.2c0,0-0.1,0-0.1,0c-2.7,0-5.2,1.3-6.1,3.3c-0.2,0.5-0.4,1-0.4,1.6
			c0,0.5,0.1,1,0.4,1.4c0.6,1,1.8,1.9,3.5,2.3c0.9,0.2,1.8,0.3,2.8,0.3c0.9,0,1.7-0.1,2.5-0.3c2.4-0.7,4-2.5,4-4.5
			C13.7,15.3,13.1,14.1,11.4,12.9z M3.7,17.4c0-1.4,1.8-2.7,3.9-2.7h0.1c0.5,0,0.9,0.1,1.3,0.2c0.1,0.1,0.3,0.2,0.4,0.3
			c1,0.7,1.6,1.1,1.8,1.8c0,0.2,0.1,0.4,0.1,0.5c0,1.8-1.3,2.7-4,2.7C5.2,20.2,3.7,19,3.7,17.4z M5.6,3.9c0.3-0.4,0.8-0.6,1.2-0.6
			h0.1c1.3,0,2.6,1.5,2.9,3.3c0.1,1-0.1,2-0.6,2.5C8.8,9.6,8.4,9.8,7.9,9.8h0h0C6.5,9.7,5.2,8.2,5,6.4C4.8,5.4,5,4.5,5.6,3.9z"/>
		<polygon points="23.5,9.5 20.5,9.5 20.5,6.5 18.5,6.5 18.5,9.5 15.5,9.5 15.5,11.5 18.5,11.5 18.5,14.5 20.5,14.5 20.5,11.5 
			23.5,11.5 		"/>
	</g>
</g>
<g id="Outline_Icons">
	<g>
		<path class="st2" d="M11.4,12.9c-0.7-0.5-1.4-1.3-1.4-1.5c0-0.4,0-0.6,1-1.4c1.2-1,1.9-2.2,1.9-3.6c0-1.2-0.4-2.3-1-3h0.5
			c0.1,0,0.2,0,0.3-0.1l1.4-1c0.2-0.1,0.2-0.3,0.2-0.5c-0.1-0.2-0.2-0.3-0.5-0.3H7.6c-0.7,0-1.3,0.1-2,0.3C3.4,2.6,1.8,4.5,1.8,6.5
			c0,2.8,2.1,4.8,5,4.9c-0.1,0.2-0.1,0.4-0.1,0.6c0,0.4,0.1,0.8,0.3,1.2c0,0-0.1,0-0.1,0c-2.7,0-5.2,1.3-6.1,3.3
			c-0.2,0.5-0.4,1-0.4,1.6c0,0.5,0.1,1,0.4,1.4c0.6,1,1.8,1.9,3.5,2.3c0.9,0.2,1.8,0.3,2.8,0.3c0.9,0,1.7-0.1,2.5-0.3
			c2.4-0.7,4-2.5,4-4.5C13.7,15.3,13.1,14.1,11.4,12.9z M3.7,17.4c0-1.4,1.8-2.7,3.9-2.7h0.1c0.5,0,0.9,0.1,1.3,0.2
			c0.1,0.1,0.3,0.2,0.4,0.3c1,0.7,1.6,1.1,1.8,1.8c0,0.2,0.1,0.4,0.1,0.5c0,1.8-1.3,2.7-4,2.7C5.2,20.2,3.7,19,3.7,17.4z M5.6,3.9
			c0.3-0.4,0.8-0.6,1.2-0.6h0.1c1.3,0,2.6,1.5,2.9,3.3c0.1,1-0.1,2-0.6,2.5C8.8,9.6,8.4,9.8,7.9,9.8h0h0C6.5,9.7,5.2,8.2,5,6.4
			C4.8,5.4,5,4.5,5.6,3.9z"/>
		<polygon class="st2" points="23.5,9.5 20.5,9.5 20.5,6.5 18.5,6.5 18.5,9.5 15.5,9.5 15.5,11.5 18.5,11.5 18.5,14.5 20.5,14.5 
			20.5,11.5 23.5,11.5 		"/>
	</g>
</g>
</svg>
