<?xml version="1.0" encoding="utf-8"?>
<!-- Generator: Adobe Illustrator 19.2.0, SVG Export Plug-In . SVG Version: 6.00 Build 0)  -->
<svg version="1.1" id="Layer_1" xmlns="http://www.w3.org/2000/svg" xmlns:xlink="http://www.w3.org/1999/xlink" x="0px" y="0px"
	 viewBox="0 0 24 24" style="enable-background:new 0 0 24 24;" xml:space="preserve">
<style type="text/css">
	.st0{display:none;}
	.st1{display:inline;}
	.st2{fill:none;stroke:#000000;stroke-linejoin:round;stroke-miterlimit:10;}
</style>
<g id="Filled_Icons" class="st0">
	<g class="st1">
		<g>
			<path d="M10.5,11.4c0,0.5-0.1,1-0.2,1.5l0.5,0.6l3-3.3l-3-2.9L9.6,8.5C10.2,9.3,10.5,10.3,10.5,11.4z"/>
			<path d="M10.7,20.1l-4.2-3.6c-0.4,0.1-0.9,0.2-1.3,0.2c-0.2,0-0.5,0-0.7-0.1l6.2,6.2l7.8-7.8l-0.9-0.9L10.7,20.1z"/>
		</g>
		<path d="M23.5,1L10.8,15.1l-1.5-2c0.2-0.5,0.3-1.1,0.3-1.6c0-2.4-1.9-4.3-4.3-4.3S1,9.1,1,11.4c0,2.4,1.9,4.3,4.3,4.3
			c0.5,0,1.1-0.1,1.5-0.3l3.9,3.4l12.8-11V1z"/>
	</g>
</g>
<g id="Outline_Icons">
	<g>
		<polyline class="st2" points="8.9,9.2 10.8,7.3 14.5,10.9 		"/>
		<polyline class="st2" points="16.9,13.5 18.5,15.1 10.8,22.9 3,15.1 		"/>
		<path class="st2" d="M23.5,1L10.8,15.1l-1.5-2c0.2-0.5,0.3-1.1,0.3-1.6c0-2.4-1.9-4.3-4.3-4.3S1,9.1,1,11.4c0,2.4,1.9,4.3,4.3,4.3
			c0.5,0,1.1-0.1,1.5-0.3l3.9,3.4l12.8-11V1z"/>
	</g>
</g>
</svg>
