<?xml version="1.0" encoding="utf-8"?>
<!-- Generator: Adobe Illustrator 19.2.0, SVG Export Plug-In . SVG Version: 6.00 Build 0)  -->
<svg version="1.1" id="Layer_1" xmlns="http://www.w3.org/2000/svg" xmlns:xlink="http://www.w3.org/1999/xlink" x="0px" y="0px"
	 viewBox="0 0 24 24" style="enable-background:new 0 0 24 24;" xml:space="preserve">
<style type="text/css">
	.st0{display:none;}
	.st1{display:inline;}
	.st2{fill:none;stroke:#000000;stroke-linejoin:round;stroke-miterlimit:10;}
</style>
<g id="Filled_Icons" class="st0">
	<path class="st1" d="M12,0.5C5.6,0.5,0.5,5.6,0.5,12c0,5.1,3.3,9.4,7.9,10.9c0.6,0.1,0.8-0.2,0.8-0.5c0-0.3,0-1,0-2
		c-3.2,0.7-3.9-1.5-3.9-1.5C4.7,17.5,4,17.2,4,17.2c-1-0.7,0.1-0.7,0.1-0.7c1.2,0.1,1.8,1.2,1.8,1.2c1,1.8,2.7,1.2,3.3,1
		c0.1-0.7,0.4-1.3,0.7-1.5c-2.6-0.3-5.2-1.3-5.2-5.7c0-1.3,0.4-2.3,1.2-3.1C5.7,8,5.3,6.9,6,5.3c0,0,1-0.3,3.2,1.2
		C10,6.2,11,6.1,12,6.1c1,0,2,0.1,2.9,0.4C17.1,5,18,5.3,18,5.3c0.6,1.6,0.2,2.8,0.1,3c0.7,0.8,1.2,1.8,1.2,3.1
		c0,4.4-2.7,5.4-5.3,5.7c0.4,0.4,0.8,1,0.8,2.1c0,1.4,0,2.8,0,3.2c0,0.3,0.2,0.6,0.8,0.5c4.6-1.5,7.9-5.8,7.9-10.9
		C23.5,5.6,18.4,0.5,12,0.5z"/>
</g>
<g id="Outline_Icons">
	<g>
		<path class="st2" d="M12,0.5C5.6,0.5,0.5,5.6,0.5,12c0,5.1,3.3,9.4,7.9,10.9c0.6,0.1,0.8-0.2,0.8-0.5c0-0.3,0-1,0-2
			c-3.2,0.7-3.9-1.5-3.9-1.5C4.7,17.5,4,17.2,4,17.2c-1-0.7,0.1-0.7,0.1-0.7c1.2,0.1,1.8,1.2,1.8,1.2c1,1.8,2.7,1.2,3.3,1
			c0.1-0.7,0.4-1.3,0.7-1.5c-2.6-0.3-5.2-1.3-5.2-5.7c0-1.3,0.4-2.3,1.2-3.1C5.7,8,5.3,6.9,6,5.3c0,0,1-0.3,3.2,1.2
			C10,6.2,11,6.1,12,6.1c1,0,2,0.1,2.9,0.4C17.1,5,18,5.3,18,5.3c0.6,1.6,0.2,2.8,0.1,3c0.7,0.8,1.2,1.8,1.2,3.1
			c0,4.4-2.7,5.4-5.3,5.7c0.4,0.4,0.8,1,0.8,2.1c0,1.4,0,2.8,0,3.2c0,0.3,0.2,0.6,0.8,0.5c4.6-1.5,7.9-5.8,7.9-10.9
			C23.5,5.6,18.4,0.5,12,0.5z"/>
	</g>
</g>
</svg>
