<?xml version="1.0" encoding="utf-8"?>
<!-- Generator: Adobe Illustrator 19.2.0, SVG Export Plug-In . SVG Version: 6.00 Build 0)  -->
<svg version="1.1" id="Layer_1" xmlns="http://www.w3.org/2000/svg" xmlns:xlink="http://www.w3.org/1999/xlink" x="0px" y="0px"
	 viewBox="0 0 24 24" style="enable-background:new 0 0 24 24;" xml:space="preserve">
<style type="text/css">
	.st0{display:none;}
	.st1{display:inline;}
	.st2{fill:none;stroke:#000000;stroke-linecap:round;stroke-linejoin:round;stroke-miterlimit:10;}
	.st3{fill:none;stroke:#000000;stroke-linejoin:round;stroke-miterlimit:10;}
</style>
<g id="Filled_Icons" class="st0">
	<g class="st1">
		<path d="M12,0C5.4,0,0,5.4,0,12s5.4,12,12,12s12-5.4,12-12S18.6,0,12,0z M6.3,6.2l1.8-2C8.3,4,8.5,4,8.7,4C8.9,4.1,9,4.3,9,4.5v2
			C9,6.8,8.8,7,8.5,7H6.7C6.5,7,6.3,6.9,6.2,6.7C6.1,6.5,6.2,6.3,6.3,6.2z M16,20C16,20,16,20,16,20l-1.7,0c-0.7,0-2.7,0-2.7-2.5
			c0-0.3,0.2-0.5,0.5-0.5h1.3c0.3,0,0.5,0.2,0.5,0.5c0,0.1,0.1,0.2,0.1,0.2h1.5c0.2,0,0.3-0.3,0.3-0.4l0-1.3c0-0.5-0.5-1-1.5-1
			c-0.6,0-1.2-0.3-1.6-0.7c0,0.1,0,0.2,0,0.3c0,0.3-0.5,1.6-2.8,1.6c-0.4,0-0.7,0-1.1-0.1c-3.2-0.5-3.2-5.8-3.2-6c0-1.5,1.1-2,1.2-2
			C6.8,8,6.9,8,7,8h2.6L10,7.5V5.6c0-0.4,0-0.8,0.4-1.2C10.7,4.1,11.1,4,11.8,4c1.2,0,1.8,0.6,2.1,1h1.5c0.8,0,2.4,0.5,2.8,1.2
			c0,0,0.1,0.1,0.1,0.1c0.4,0.6,1.2,1.6,1.2,6.9C19.4,19.5,16.2,20,16,20z"/>
		<rect x="15.7" y="10" transform="matrix(0.4692 -0.8831 0.8831 0.4692 -1.2038 20.1851)" width="1" height="2.3"/>
	</g>
</g>
<g id="Outline_Icons">
	<g>
		<circle class="st2" cx="12" cy="12" r="11.5"/>
		<g>
			<path class="st3" d="M6.7,6.5l1.8-2v2H6.7z M17.7,6.5c-0.3-0.4-1.6-1-2.3-1h-1.8c0,0-0.4-1-1.8-1c-1.4,0-1.3,0.6-1.3,1.1v2.1
				L9.8,8.5H7c0,0-0.9,0.4-0.9,1.6c0,1.2,0.4,5.2,2.8,5.6c2.8,0.4,3.3-0.9,3.3-1c0-0.7,0-1.7,0-1.7s0.8,1.6,2.1,1.6
				c1.3,0,2,0.7,2,1.5v1.4c0,0,0,0.9-0.8,0.9h-1.6c0,0-0.5-0.2-0.5-0.7h-1.3c0,1.8,1.2,2,2.2,2H16c0,0,2.9-0.4,2.9-6.2
				C18.9,7.5,18,7,17.7,6.5"/>
		</g>
		<line class="st3" x1="15.2" y1="10.6" x2="17.2" y2="11.6"/>
	</g>
</g>
</svg>
