<?xml version="1.0" encoding="utf-8"?>
<!-- Generator: Adobe Illustrator 19.2.0, SVG Export Plug-In . SVG Version: 6.00 Build 0)  -->
<svg version="1.1" id="Layer_1" xmlns="http://www.w3.org/2000/svg" xmlns:xlink="http://www.w3.org/1999/xlink" x="0px" y="0px"
	 viewBox="0 0 24 24" style="enable-background:new 0 0 24 24;" xml:space="preserve">
<style type="text/css">
	.st0{display:none;}
	.st1{display:inline;}
	.st2{fill:none;stroke:#000000;stroke-linecap:round;stroke-linejoin:round;stroke-miterlimit:10;}
	.st3{fill:none;stroke:#000000;stroke-linejoin:round;stroke-miterlimit:10;}
</style>
<g id="Filled_Icons" class="st0">
	<path class="st1" d="M12,0C5.4,0,0,5.4,0,12s5.4,12,12,12s12-5.4,12-12S18.6,0,12,0z M19.3,15c-0.7,0-1.2-0.4-1.4-1l-3.7,0
		c0,0.1-0.1,0.2-0.1,0.3l0.9,0.8c0.4-0.2,0.9-0.2,1.2,0.1c0.5,0.4,0.6,1.1,0.2,1.7c-0.2,0.3-0.6,0.5-1,0.5c-0.3,0-0.5-0.1-0.7-0.2
		c-0.4-0.3-0.6-0.8-0.4-1.2l-1-0.9c-0.4,0.2-0.9,0.4-1.4,0.4c-0.5,0-1-0.2-1.4-0.4l-1.7,1.1c0,0.1,0,0.3,0,0.4
		c-0.1,0.3-0.3,0.6-0.5,0.7c-0.2,0.1-0.4,0.2-0.6,0.2c-0.4,0-0.8-0.2-1-0.6c-0.3-0.6-0.2-1.3,0.4-1.6C7.5,15,8,15,8.3,15.2l1.5-1
		c0-0.1,0-0.1-0.1-0.2l-3,0c-0.1,0.2-0.2,0.4-0.4,0.6C6.2,14.9,5.8,15,5.4,15h0c-0.8,0-1.5-0.7-1.5-1.5c0-0.9,0.7-1.5,1.5-1.5
		c0.7,0,1.2,0.4,1.5,1l3,0c0-0.1,0.1-0.2,0.1-0.3l-2.8-1.9C6.9,10.9,6.7,11,6.5,11c-0.2,0-0.5-0.1-0.7-0.2c-0.3-0.2-0.4-0.4-0.5-0.8
		c-0.1-0.3,0-0.6,0.2-0.9c0.4-0.5,1.1-0.7,1.7-0.3C7.4,9,7.6,9.2,7.7,9.5c0,0.1,0,0.3,0,0.4l3,2c0.2-0.2,0.5-0.3,0.8-0.3V9.8
		c-0.8-0.2-1.4-0.9-1.4-1.8c0-1,0.8-1.9,1.9-1.9s1.9,0.8,1.9,1.9c0,0.9-0.6,1.6-1.4,1.8v1.9c0.4,0.1,0.7,0.2,1,0.5L17,9.8
		c-0.1-0.5,0.1-0.9,0.6-1.2c0.5-0.3,1.3-0.1,1.6,0.4c0.3,0.6,0.2,1.3-0.4,1.6c-0.2,0.1-0.4,0.2-0.6,0.2c-0.2,0-0.5-0.1-0.7-0.2
		l-3.5,2.2c0,0,0,0.1,0,0.1l3.7,0c0.2-0.6,0.8-1.1,1.5-1.1c0.9,0,1.5,0.7,1.5,1.5C20.8,14.3,20.1,15,19.3,15z"/>
</g>
<g id="Outline_Icons">
	<g>
		<circle class="st2" cx="12" cy="12" r="11.5"/>
		<g>
			<ellipse class="st3" cx="12" cy="13.5" rx="1.7" ry="1.4"/>
			<line class="st3" x1="12" y1="9.4" x2="12" y2="12.1"/>
			<circle class="st3" cx="12" cy="8" r="1.4"/>
			<circle class="st3" cx="19.3" cy="13.5" r="1"/>
			<line class="st3" x1="14.9" y1="15.7" x2="13.3" y2="14.3"/>
			<circle class="st3" cx="15.4" cy="16.1" r="0.7"/>
			<line class="st3" x1="17.6" y1="10.1" x2="13.4" y2="12.7"/>
			<circle class="st3" cx="18.2" cy="9.7" r="0.7"/>
			<path class="st3" d="M5.3,12.4c0.6,0,1,0.5,1,1c0,0.6-0.5,1-1,1c-0.6,0-1-0.5-1-1C4.3,12.9,4.8,12.4,5.3,12.4z"/>
			<line class="st3" x1="8.3" y1="15.9" x2="10.6" y2="14.3"/>
			<circle class="st3" cx="7.7" cy="16.2" r="0.7"/>
			<line class="st3" x1="7.1" y1="10.2" x2="10.6" y2="12.6"/>
			<circle class="st3" cx="6.5" cy="9.8" r="0.7"/>
		</g>
		<line class="st3" x1="10.2" y1="13.5" x2="6.4" y2="13.5"/>
		<line class="st3" x1="13.7" y1="13.5" x2="18.2" y2="13.5"/>
	</g>
</g>
</svg>
