<?xml version="1.0" encoding="utf-8"?>
<!-- Generator: Adobe Illustrator 19.2.0, SVG Export Plug-In . SVG Version: 6.00 Build 0)  -->
<svg version="1.1" id="Layer_1" xmlns="http://www.w3.org/2000/svg" xmlns:xlink="http://www.w3.org/1999/xlink" x="0px" y="0px"
	 viewBox="0 0 24 24" style="enable-background:new 0 0 24 24;" xml:space="preserve">
<style type="text/css">
	.st0{display:none;}
	.st1{display:inline;}
	.st2{fill:none;stroke:#000000;stroke-linecap:round;stroke-linejoin:round;stroke-miterlimit:10;}
	.st3{fill:none;stroke:#000000;stroke-linejoin:round;stroke-miterlimit:10;}
</style>
<g id="Filled_Icons" class="st0">
	<g class="st1">
		<path d="M10.5,18.7c0,0.3,0.1,0.4,0.1,0.4l0,0c0,0,0,0,0,0c0,0,0.1-0.1,0.1-0.4c0-0.3-0.1-0.4-0.1-0.4
			C10.6,18.3,10.5,18.4,10.5,18.7z"/>
		<path d="M12.9,18.7c0,0.3,0.1,0.4,0.1,0.4l0,0c0,0,0,0,0,0c0,0,0.1-0.1,0.1-0.4c0-0.3-0.1-0.4-0.1-0.4
			C13,18.3,12.9,18.4,12.9,18.7z"/>
		<path d="M15.4,18.7c0,0.3,0.1,0.4,0.1,0.4l0,0c0,0,0,0,0,0c0,0,0.1-0.1,0.1-0.4c0-0.3-0.1-0.4-0.1-0.4
			C15.4,18.3,15.4,18.4,15.4,18.7z"/>
		<circle cx="14.5" cy="11" r="1.5"/>
		<path d="M12,0C5.4,0,0,5.4,0,12s5.4,12,12,12s12-5.4,12-12S18.6,0,12,0z M5.5,7.5h2v7h-2V7.5z M8.7,17.6c0.3,0,0.5,0.2,0.5,0.5
			c0,0.3-0.2,0.5-0.5,0.5H8.2v1c0,0.3-0.2,0.5-0.5,0.5s-0.5-0.2-0.5-0.5v-3c0-0.3,0.2-0.5,0.5-0.5h1.3c0.3,0,0.5,0.2,0.5,0.5
			c0,0.3-0.2,0.5-0.5,0.5H8.2v0.5H8.7z M10.6,20.1c-0.3,0-1.1-0.1-1.1-1.4c0-1.3,0.8-1.4,1.1-1.4s1.1,0.1,1.1,1.4
			C11.7,20,10.8,20.1,10.6,20.1z M13,20.1c-0.3,0-1.1-0.1-1.1-1.4c0-1.3,0.8-1.4,1.1-1.4s1.1,0.1,1.1,1.4C14.1,20,13.2,20.1,13,20.1
			z M16.5,19.6c0,0.3-0.2,0.5-0.5,0.5c-0.1,0-0.5,0-0.6,0c-0.3,0-1.1-0.1-1.1-1.4c0-1.3,0.8-1.4,1.1-1.4c0,0,0.1,0,0.1,0v-0.7
			c0-0.3,0.2-0.5,0.5-0.5s0.5,0.2,0.5,0.5V19.6z M19.5,12.5c0,1.1-0.9,2-2,2h-6c-1.1,0-2-0.9-2-2v-3c0-1.1,0.9-2,2-2h1l1-1h2l1,1h1
			c1.1,0,2,0.9,2,2V12.5z"/>
	</g>
</g>
<g id="Outline_Icons">
	<g>
		<circle class="st2" cx="12" cy="12" r="11.5"/>
		<path class="st3" d="M17.5,7.5h-1l-1-1h-2l-1,1h-1c-1.1,0-2,0.9-2,2v3c0,1.1,0.9,2,2,2h6c1.1,0,2-0.9,2-2v-3
			C19.5,8.4,18.6,7.5,17.5,7.5z"/>
		<rect x="5.5" y="7.5" class="st3" width="2" height="7"/>
		<circle class="st3" cx="14.5" cy="11" r="1.5"/>
		<g>
			<polyline class="st2" points="7.8,19.6 7.8,16.6 9.1,16.6 			"/>
			<line class="st2" x1="7.8" y1="18.1" x2="8.7" y2="18.1"/>
		</g>
		<g>
			<line class="st2" x1="16" y1="19.6" x2="16" y2="16.6"/>
			<path class="st2" d="M16,18.7c0,0.5-0.1,0.9-0.6,0.9c-0.4,0-0.6-0.4-0.6-0.9c0-0.5,0.1-0.9,0.6-0.9C15.9,17.9,16,18.2,16,18.7z"
				/>
		</g>
		<path class="st2" d="M10,18.7c0,0.5,0.1,0.9,0.6,0.9c0.4,0,0.6-0.4,0.6-0.9s-0.1-0.9-0.6-0.9C10.1,17.9,10,18.2,10,18.7z"/>
		<path class="st2" d="M12.4,18.7c0,0.5,0.1,0.9,0.6,0.9c0.4,0,0.6-0.4,0.6-0.9s-0.1-0.9-0.6-0.9C12.5,17.9,12.4,18.2,12.4,18.7z"/>
	</g>
</g>
</svg>
