<?xml version="1.0" encoding="utf-8"?>
<!-- Generator: Adobe Illustrator 19.2.0, SVG Export Plug-In . SVG Version: 6.00 Build 0)  -->
<svg version="1.1" id="Layer_1" xmlns="http://www.w3.org/2000/svg" xmlns:xlink="http://www.w3.org/1999/xlink" x="0px" y="0px"
	 viewBox="0 0 24 24" style="enable-background:new 0 0 24 24;" xml:space="preserve">
<style type="text/css">
	.st0{display:none;}
	.st1{display:inline;}
	.st2{fill:none;stroke:#000000;stroke-linejoin:round;stroke-miterlimit:10;}
	.st3{fill:none;stroke:#000000;stroke-linecap:round;stroke-linejoin:round;stroke-miterlimit:10;}
</style>
<g id="Filled_Icons" class="st0">
	<path class="st1" d="M17,9c-0.4,0-0.9,0.1-1.3,0.2c-0.8-1.7-4.5-8-9.9-6.2c0,0,0,0-0.1,0C5.9,2.4,6.1,1.6,6,0.6
		c0-0.3-0.3-0.5-0.6-0.4C5.2,0.2,5,0.5,5,0.7c0.1,1-0.1,1.8-0.6,2.2C3.9,3.5,3.1,3.5,2.8,3.5c-0.3,0-0.5,0.1-0.6,0.4
		C2.1,4.1,2.3,4.4,2.6,4.4c0.1,0,0.3,0,0.4,0c0.6,0,1.4-0.2,2-0.8C9,5.4,9,10.5,9,11.8c-2.5,0.8-4.2,3.2-4.2,5.9
		c0,3.4,2.8,6.2,6.2,6.2s6.2-2.8,6.2-6.2s-2.8-6.2-6.2-6.2c-0.3,0-0.7,0-1,0.1c0-1.6-0.2-5.7-3-7.9c4.1-0.6,6.9,4.2,7.8,5.8
		c-0.7,0.3-1.3,0.7-1.9,1.3c3.1,0.8,5.4,3.6,5.4,7c0,1-0.2,1.9-0.5,2.7c2.8-0.4,5-2.8,5-5.7C22.7,11.6,20.1,9,17,9z M10,15.5
		c0,0.6-0.4,1-1,1c-0.6,0-1-0.4-1-1c0-0.6,0.4-1,1-1C9.6,14.5,10,15,10,15.5z"/>
</g>
<g id="Outline_Icons">
	<g>
		<circle class="st2" cx="11" cy="17.8" r="5.8"/>
		<path class="st2" d="M12.4,12.2c0.9-1.6,2.6-2.7,4.6-2.7c2.9,0,5.2,2.4,5.2,5.2c0,2.9-2.4,5.2-5.2,5.2c-0.2,0-0.5,0-0.7,0"/>
		<path class="st2" d="M9.4,12.2c0,0,0.8-7.2-4.6-9.1"/>
		<path class="st3" d="M2.7,4c0.9,0.2,3.2-0.3,2.8-3.3"/>
		<path class="st2" d="M5.7,3.5c5.9-2.2,9.7,6.3,9.7,6.3"/>
		<g>
			<path d="M9,14.5c-0.6,0-1,0.4-1,1c0,0.6,0.4,1,1,1c0.6,0,1-0.4,1-1C10,15,9.6,14.5,9,14.5L9,14.5z"/>
		</g>
	</g>
</g>
</svg>
