<?xml version="1.0" encoding="utf-8"?>
<!-- Generator: Adobe Illustrator 19.2.0, SVG Export Plug-In . SVG Version: 6.00 Build 0)  -->
<svg version="1.1" id="Layer_1" xmlns="http://www.w3.org/2000/svg" xmlns:xlink="http://www.w3.org/1999/xlink" x="0px" y="0px"
	 viewBox="0 0 24 24" style="enable-background:new 0 0 24 24;" xml:space="preserve">
<style type="text/css">
	.st0{display:none;}
	.st1{display:inline;}
	.st2{fill:none;stroke:#000000;stroke-linejoin:round;stroke-miterlimit:10;}
</style>
<g id="Filled_Icons" class="st0">
	<g class="st1">
		<path d="M3.8,18.7h0.7c7.3,0,7.2,4.2,12.2,4.8c2.7,0.3,3.8-3,3.4-5.1c-3.9,3.2-8-2.8-11.7-2.6c0-1.6,10.3-11.6,10.4-12.6
			c0.1-0.7,0.1-1.3,0.2-2c0.1-0.5-0.4-0.3-0.4-0.3v0c-2,0.4-4.1,0.6-6.1,0.5C11,1.3,9.7,1.2,8.6,0.6c-0.3-0.2-0.5-0.1-0.6,0
			C7.3,1.4,6.7,2.4,6.6,3.5C6.5,4.1,6.6,4.4,6.6,4.4c0.6,1.4,4.6,0.9,6.1,0.6c-3,3.5-6,7.1-9,10.6l0,0C3.4,15.9,3.4,18.6,3.8,18.7z"
			/>
	</g>
</g>
<g id="Outline_Icons">
	<g>
		<path class="st2" d="M3.8,18.7h0.7c7.3,0,7.2,4.2,12.2,4.8c2.7,0.3,3.8-3,3.4-5.1c-3.9,3.2-8-2.8-11.7-2.6
			c0-1.6,10.3-11.6,10.4-12.6c0.1-0.7,0.1-1.3,0.2-2c0.1-0.5-0.4-0.3-0.4-0.3v0c-2,0.4-4.1,0.6-6.1,0.5C11,1.3,9.7,1.2,8.6,0.6
			c-0.3-0.2-0.5-0.1-0.6,0C7.3,1.4,6.7,2.4,6.6,3.5C6.5,4.1,6.6,4.4,6.6,4.4c0.6,1.4,4.6,0.9,6.1,0.6c-3,3.5-6,7.1-9,10.6l0,0
			C3.4,15.9,3.4,18.6,3.8,18.7z"/>
	</g>
</g>
</svg>
