<?xml version="1.0" encoding="utf-8"?>
<!-- Generator: Adobe Illustrator 19.2.0, SVG Export Plug-In . SVG Version: 6.00 Build 0)  -->
<svg version="1.1" id="Layer_1" xmlns="http://www.w3.org/2000/svg" xmlns:xlink="http://www.w3.org/1999/xlink" x="0px" y="0px"
	 viewBox="0 0 24 24" style="enable-background:new 0 0 24 24;" xml:space="preserve">
<style type="text/css">
	.st0{display:none;}
	.st1{display:inline;}
	.st2{fill:none;stroke:#000000;stroke-linecap:round;stroke-linejoin:round;stroke-miterlimit:10;}
</style>
<g id="Filled_Icons" class="st0">
	<g class="st1">
		<path d="M12,0C5.4,0,0,5.4,0,12s5.4,12,12,12s12-5.4,12-12S18.6,0,12,0z M13.6,15.9l-1.1,3.8C12.4,19.9,12.2,20,12,20
			s-0.4-0.1-0.5-0.4l-1.1-3.8C7.8,15.2,6,12.8,6,10c0-3.3,2.7-6,6-6c3.3,0,6,2.7,6,6C18,12.8,16.2,15.2,13.6,15.9z"/>
		<path d="M12,6c-2.2,0-4,1.8-4,4s1.8,4,4,4s4-1.8,4-4S14.2,6,12,6z M12,11.5c-0.8,0-1.5-0.7-1.5-1.5s0.7-1.5,1.5-1.5
			s1.5,0.7,1.5,1.5C13.5,10.9,12.8,11.5,12,11.5z"/>
	</g>
</g>
<g id="Outline_Icons">
	<g>
		<circle class="st2" cx="12" cy="12" r="11.5"/>
		<g>
			<path class="st2" d="M17.5,10c0-3.1-2.5-5.5-5.5-5.5S6.5,7,6.5,10c0,2.7,1.9,4.9,4.4,5.4l1.2,4l1.2-4
				C15.7,14.9,17.5,12.7,17.5,10z"/>
			<circle class="st2" cx="12" cy="10" r="3.5"/>
			<circle class="st2" cx="12" cy="10" r="1"/>
		</g>
	</g>
</g>
</svg>
