<?xml version="1.0" encoding="utf-8"?>
<!-- Generator: Adobe Illustrator 19.2.0, SVG Export Plug-In . SVG Version: 6.00 Build 0)  -->
<svg version="1.1" id="Layer_1" xmlns="http://www.w3.org/2000/svg" xmlns:xlink="http://www.w3.org/1999/xlink" x="0px" y="0px"
	 viewBox="0 0 24 24" style="enable-background:new 0 0 24 24;" xml:space="preserve">
<style type="text/css">
	.st0{display:none;}
	.st1{display:inline;}
	.st2{fill:none;stroke:#000000;stroke-linejoin:round;stroke-miterlimit:10;}
</style>
<g id="Filled_Icons" class="st0">
	<path class="st1" d="M14.5,2.2c0.3-0.3,0.8-0.5,2.1-0.5c0.3,0,0.5-0.2,0.5-0.5V0.5C17,0.2,16.8,0,16.5,0h-10C6.2,0,6,0.2,6,0.5v0.6
		c0,0.3,0.2,0.5,0.5,0.5c1.3,0.1,1.8,0.2,2.1,0.5C8.7,2.3,9,2.8,9,4.3v15.5c0,1.6-0.3,2-0.4,2.1c-0.3,0.2-0.7,0.4-2.1,0.5
		c-0.3,0-0.5,0.2-0.5,0.5v0.6C6,23.8,6.2,24,6.5,24h10c0.3,0,0.5-0.2,0.5-0.5v-0.6c0-0.3-0.2-0.5-0.5-0.5c-1.3-0.1-1.8-0.3-2.1-0.5
		c-0.1-0.1-0.4-0.5-0.4-2.1V4.3C14,2.8,14.3,2.3,14.5,2.2z"/>
</g>
<g id="Outline_Icons">
	<g>
		<path class="st2" d="M16.5,22.9c-1.4-0.1-2-0.3-2.4-0.6c-0.4-0.3-0.6-1.1-0.6-2.5V4.3c0-1.3,0.2-2.1,0.6-2.5
			c0.4-0.4,1-0.6,2.4-0.7V0.5h-10v0.6c1.4,0.1,2,0.3,2.4,0.7C9.3,2.2,9.5,3,9.5,4.3v15.5c0,1.3-0.2,2.2-0.6,2.5
			c-0.4,0.3-1,0.5-2.4,0.6v0.6h10V22.9z"/>
	</g>
</g>
</svg>
