<?xml version="1.0" encoding="utf-8"?>
<!-- Generator: Adobe Illustrator 19.2.0, SVG Export Plug-In . SVG Version: 6.00 Build 0)  -->
<svg version="1.1" id="Layer_1" xmlns="http://www.w3.org/2000/svg" xmlns:xlink="http://www.w3.org/1999/xlink" x="0px" y="0px"
	 viewBox="0 0 24 24" style="enable-background:new 0 0 24 24;" xml:space="preserve">
<style type="text/css">
	.st0{display:none;}
	.st1{display:inline;}
	.st2{fill:none;stroke:#000000;stroke-linecap:round;stroke-linejoin:round;stroke-miterlimit:10;}
</style>
<g id="Filled_Icons" class="st0">
	<path class="st1" d="M12,0C5.4,0,0,5.4,0,12s5.4,12,12,12s12-5.4,12-12S18.6,0,12,0z M4.9,14c-1.1-1.1-1.1-3,0-4.1l3.9-3.9
		c1.1-1.1,3-1.1,4.1,0c1-0.3,2.1,0,2.8,0.7c0.2,0.2,0.2,0.5,0,0.7c-0.2,0.2-0.5,0.2-0.7,0c-0.7-0.7-2-0.8-2.7,0l-5.1,5.1
		c-0.1,0.1-0.2,0.1-0.4,0.1c-0.1,0-0.3,0-0.4-0.1c-0.2-0.2-0.2-0.5,0-0.7l5.1-5.1c0.1-0.1,0.2-0.2,0.3-0.3C11.1,5.9,10.1,6,9.5,6.6
		l-3.9,3.9c-0.8,0.8-0.8,2,0,2.7c0.8,0.8,2,0.8,2.7,0l5.4-5.4c0.2-0.2,0.5-0.2,0.7,0c0.2,0.2,0.2,0.5,0,0.7L9,14
		c-0.6,0.6-1.3,0.9-2.1,0.9C6.2,14.8,5.4,14.5,4.9,14z M19.1,14.2l-3.9,3.9c-0.6,0.6-1.3,0.9-2.1,0.9c-0.8,0-1.5-0.3-2-0.8
		c-0.2,0.1-0.5,0.1-0.8,0.1c-0.8,0-1.5-0.3-2.1-0.9c-0.2-0.2-0.2-0.5,0-0.7c0.2-0.2,0.5-0.2,0.7,0c0.7,0.7,2,0.7,2.7,0l5.1-5.1
		c0.2-0.2,0.5-0.2,0.7,0c0.2,0.2,0.2,0.5,0,0.7l-5.1,5.1c-0.1,0.1-0.2,0.2-0.3,0.3c0.7,0.4,1.8,0.4,2.4-0.3l3.9-3.9
		c0.8-0.8,0.8-2,0-2.7s-2-0.8-2.7,0l-5.4,5.4c-0.2,0.2-0.5,0.2-0.7,0c-0.2-0.2-0.2-0.5,0-0.7L15,10c1.1-1.1,3-1.1,4.1,0
		C20.3,11.2,20.3,13,19.1,14.2z"/>
</g>
<g id="Outline_Icons">
	<g>
		<circle class="st2" cx="12" cy="12" r="11.5"/>
		<path class="st2" d="M14,8.2l-5.4,5.4c-0.9,0.9-2.5,0.9-3.4,0c-0.9-0.9-0.9-2.5,0-3.4l3.9-3.9c0.9-0.9,2.5-0.9,3.4,0l0.2,0.2"/>
		<path class="st2" d="M6.8,12l5.1-5.1c0.9-0.9,2.5-0.9,3.4,0"/>
		<path class="st2" d="M10,15.8l5.4-5.4c0.9-0.9,2.5-0.9,3.4,0c0.9,0.9,0.9,2.5,0,3.4l-3.9,3.9c-0.9,0.9-2.5,0.9-3.4,0l-0.2-0.2"/>
		<path class="st2" d="M17.2,12l-5.1,5.1c-0.9,0.9-2.5,0.9-3.4,0"/>
	</g>
</g>
</svg>
