<?xml version="1.0" encoding="utf-8"?>
<!-- Generator: Adobe Illustrator 19.2.0, SVG Export Plug-In . SVG Version: 6.00 Build 0)  -->
<svg version="1.1" id="Layer_1" xmlns="http://www.w3.org/2000/svg" xmlns:xlink="http://www.w3.org/1999/xlink" x="0px" y="0px"
	 viewBox="0 0 24 24" style="enable-background:new 0 0 24 24;" xml:space="preserve">
<style type="text/css">
	.st0{display:none;}
	.st1{display:inline;}
	.st2{fill:none;stroke:#000000;stroke-linecap:round;stroke-linejoin:round;stroke-miterlimit:10;}
</style>
<g id="Filled_Icons" class="st0">
	<path class="st1" d="M12,0C5.4,0,0,5.4,0,12s5.4,12,12,12s12-5.4,12-12S18.6,0,12,0z M10.2,5.2C11,4.4,12.2,4,13.5,4
		c1.2,0,2.4,0.4,3.2,1.1c0.2,0.2,0.2,0.5,0,0.7C16.5,6,16.2,6,16,5.9C15.4,5.3,14.4,5,13.5,5c-1,0-2,0.3-2.5,0.9
		C10.8,6,10.7,6,10.6,6c-0.1,0-0.3-0.1-0.4-0.2C10,5.7,10,5.4,10.2,5.2z M16.9,18.9c0.1,0.2,0.1,0.4-0.1,0.6
		c-0.1,0.2-0.4,0.2-0.5,0.2l-3.2-1.1C11,19.3,8.7,19,6.9,17.8c-1.5-1-2.3-2.5-2.3-4.1c0-2.8,2.9-5.1,6.4-5.1c2.5,0,6,1.2,6,3.8
		c0,2-2.3,3.6-5.2,3.6c-2.9,0-5.2-1.6-5.2-3.6c0-0.3,0.2-0.5,0.5-0.5s0.5,0.2,0.5,0.5c0,1.4,1.9,2.6,4.2,2.6c2.3,0,4.2-1.2,4.2-2.6
		c0-1.9-3-2.8-5-2.8c-2.9,0-5.4,1.9-5.4,4.1c0,1.2,0.7,2.4,1.9,3.2c1.6,1.1,3.7,1.3,5.4,0.5c0.1,0,0.2,0,0.4,0l2.2,0.7l-0.6-1.2
		c-0.1-0.2-0.1-0.5,0.1-0.6c0.5-0.4,0.9-0.8,1.2-1.3c0.1-0.2,0.4-0.3,0.7-0.2c0.2,0.1,0.3,0.4,0.2,0.7c-0.3,0.5-0.6,1-1.1,1.4
		L16.9,18.9z M8.5,10.8c0.2-0.2,0.5-0.1,0.7,0.1c0.6,0.9,2,1.5,3.6,1.5c0.8,0,1.5-0.1,2.1-0.4c0.3-0.1,0.5,0,0.7,0.3
		c0.1,0.3,0,0.5-0.3,0.7c-0.8,0.3-1.6,0.5-2.5,0.5c-1.9,0-3.6-0.7-4.4-1.9C8.2,11.3,8.2,10.9,8.5,10.8z M17.6,10.1
		c0,0.3-0.3,0.5-0.5,0.5c-0.3,0-0.5-0.3-0.5-0.5c0.1-1.6-2-2.6-3.9-2.6c-0.8,0-1.6,0.2-2.3,0.5c-0.2,0.1-0.5,0-0.7-0.2S9.7,7.1,10,7
		c0.8-0.4,1.8-0.6,2.7-0.6C15.5,6.4,17.8,8.1,17.6,10.1z"/>
</g>
<g id="Outline_Icons">
	<g>
		<circle class="st2" cx="12" cy="12" r="11.5"/>
		<g>
			<path class="st2" d="M15.1,12.5c-0.7,0.3-1.5,0.5-2.3,0.5c-1.8,0-3.3-0.7-4-1.7"/>
			<path class="st2" d="M10.2,7.4c0.7-0.3,1.6-0.5,2.5-0.5c2.4,0,4.4,1.4,4.4,3c0,0,0,0.1,0,0.1"/>
			<path class="st2" d="M10.6,5.5c0.7-0.6,1.7-1,2.9-1c1.1,0,2.2,0.4,2.8,1"/>
			<path class="st2" d="M7.2,12.4c0,1.7,2.1,3.1,4.7,3.1c2.6,0,4.7-1.4,4.7-3.1c0-2.3-3.3-3.3-5.5-3.3C7.7,9.1,5,11.3,5,13.7
				c0,3.3,4.2,5.8,8,4.2l3.4,1.2l-1.3-2.3c0.6-0.4,1-0.9,1.3-1.5"/>
		</g>
	</g>
</g>
</svg>
