<?xml version="1.0" encoding="utf-8"?>
<!-- Generator: Adobe Illustrator 19.2.0, SVG Export Plug-In . SVG Version: 6.00 Build 0)  -->
<svg version="1.1" id="Layer_1" xmlns="http://www.w3.org/2000/svg" xmlns:xlink="http://www.w3.org/1999/xlink" x="0px" y="0px"
	 viewBox="0 0 24 24" style="enable-background:new 0 0 24 24;" xml:space="preserve">
<style type="text/css">
	.st0{display:none;}
	.st1{display:inline;}
	.st2{fill:none;stroke:#000000;stroke-linejoin:round;stroke-miterlimit:10;}
	.st3{fill:none;stroke:#000000;stroke-linecap:round;stroke-linejoin:round;stroke-miterlimit:10;}
</style>
<g id="Filled_Icons" class="st0">
	<path class="st1" d="M12,1.5c-6.4,0-11.5,4.2-11.5,9.4c0,2.6,1.3,5,3.5,6.7c0.2,1.7-0.7,3.4-2.6,5.2c0,0,7.6-2.8,8.1-2.7
		c0.8,0.1,1.6,0.2,2.5,0.2c6.4,0,11.5-4.2,11.5-9.4C23.5,5.7,18.4,1.5,12,1.5z M17.6,16.4c-0.1,0.1-0.2,0.1-0.3,0.1
		c-0.2,0-0.3-0.1-0.4-0.2c-0.2-0.2-0.1-0.5,0.1-0.7c1.6-1.1,2.5-2.8,2.5-4.5c0-2.8-2.3-5.2-5.6-5.8c-0.3-0.1-0.4-0.3-0.4-0.6
		c0.1-0.3,0.3-0.4,0.6-0.4c3.8,0.8,6.4,3.6,6.4,6.8C20.5,13.1,19.4,15.1,17.6,16.4z"/>
</g>
<g id="Outline_Icons">
	<g>
		<g>
			<path class="st2" d="M9.5,20c-0.5-0.1-8.1,2.7-8.1,2.7C3.2,21,4.2,19.3,4,17.6c-2.1-1.7-3.5-4.1-3.5-6.7c0-5.2,5.1-9.4,11.5-9.4
				s11.5,4.2,11.5,9.4s-5.1,9.4-11.5,9.4C11.1,20.3,10.3,20.2,9.5,20z"/>
		</g>
		<path class="st3" d="M14,4.8c3.5,0.7,6,3.3,6,6.3c0,2-1.1,3.7-2.7,4.9"/>
	</g>
</g>
</svg>
