<?xml version="1.0" encoding="utf-8"?>
<!-- Generator: Adobe Illustrator 19.2.0, SVG Export Plug-In . SVG Version: 6.00 Build 0)  -->
<svg version="1.1" id="Layer_1" xmlns="http://www.w3.org/2000/svg" xmlns:xlink="http://www.w3.org/1999/xlink" x="0px" y="0px"
	 viewBox="0 0 24 24" style="enable-background:new 0 0 24 24;" xml:space="preserve">
<style type="text/css">
	.st0{display:none;}
	.st1{display:inline;}
	.st2{fill:none;stroke:#000000;stroke-linecap:round;stroke-linejoin:round;stroke-miterlimit:10;}
</style>
<g id="Filled_Icons" class="st0">
	<g class="st1">
		<path d="M5.4,12.8c-0.5,2.4,1.6,4.6,6,6l1.6-1.2V8.3c-0.2,0-0.4,0-0.6,0C8.9,8.3,5.9,10.5,5.4,12.8z"/>
		<path d="M12,0C5.4,0,0,5.4,0,12s5.4,12,12,12s12-5.4,12-12S18.6,0,12,0z M20,10.5c0,0.1,0,0.2-0.1,0.3c-0.1,0.1-0.3,0.2-0.4,0.2
			H16c-0.3,0-0.5-0.2-0.5-0.5S15.7,10,16,10h2.4c-0.7-0.6-2.1-1.2-4.4-1.6v9.4c0,0.2-0.1,0.3-0.2,0.4l-2.1,1.5
			c-0.1,0.1-0.3,0.1-0.4,0.1c-7.2-2.3-7.2-5.8-6.9-7.3C5.1,9.4,9,7.1,13,7.3V4c0-0.3,0.2-0.5,0.5-0.5S14,3.7,14,4v3.4
			c2.4,0.4,4.1,1.1,5,1.8V7c0-0.3,0.2-0.5,0.5-0.5S20,6.7,20,7V10.5z"/>
	</g>
</g>
<g id="Outline_Icons">
	<g>
		<circle class="st2" cx="12" cy="12" r="11.5"/>
		<path class="st2" d="M19.5,10.5c-0.2-0.8-2.2-2.2-6-2.7c-7.2-0.9-14.3,7.6-2.1,11.5l2.1-1.5V4 M16,10.5h3.5V7"/>
	</g>
</g>
</svg>
