<?xml version="1.0" encoding="utf-8"?>
<!-- Generator: Adobe Illustrator 19.2.0, SVG Export Plug-In . SVG Version: 6.00 Build 0)  -->
<svg version="1.1" id="Layer_1" xmlns="http://www.w3.org/2000/svg" xmlns:xlink="http://www.w3.org/1999/xlink" x="0px" y="0px"
	 viewBox="0 0 24 24" style="enable-background:new 0 0 24 24;" xml:space="preserve">
<style type="text/css">
	.st0{display:none;}
	.st1{display:inline;}
	.st2{fill:none;stroke:#000000;stroke-linecap:round;stroke-linejoin:round;stroke-miterlimit:10;}
	.st3{fill:none;stroke:#000000;stroke-linejoin:round;stroke-miterlimit:10;}
</style>
<g id="Filled_Icons" class="st0">
	<path class="st1" d="M12,0C5.4,0,0,5.4,0,12s5.4,12,12,12s12-5.4,12-12S18.6,0,12,0z M8.1,16.5c-0.8,0-1.6-0.6-1.6-1.4v-3.6H5
		l2.4-3l2.4,3H8.7v3h3.7l1.8,2H8.1z M16.5,16.5l-2.4-3h1.4v-4h-3.8l-1.8-2h6.3c0.8,0,1.3,0.7,1.3,1.5v4.5H19L16.5,16.5z"/>
</g>
<g id="Outline_Icons">
	<g>
		<circle class="st2" cx="12" cy="12" r="11.5"/>
		<g>
			<path class="st3" d="M8.7,14.5v-3h1.2l-2.4-3l-2.4,3h1.5v3.6c0,0.8,0.8,1.4,1.6,1.4h6l-1.8-2H8.7z"/>
			<path class="st3" d="M17.5,13.5V9c0-0.8-0.5-1.5-1.3-1.5H9.9l1.8,2h3.8v4h-1.4l2.5,3l2.4-3H17.5z"/>
		</g>
	</g>
</g>
</svg>
