<?xml version="1.0" encoding="utf-8"?>
<!-- Generator: Adobe Illustrator 19.2.0, SVG Export Plug-In . SVG Version: 6.00 Build 0)  -->
<svg version="1.1" id="Layer_1" xmlns="http://www.w3.org/2000/svg" xmlns:xlink="http://www.w3.org/1999/xlink" x="0px" y="0px"
	 viewBox="0 0 24 24" style="enable-background:new 0 0 24 24;" xml:space="preserve">
<style type="text/css">
	.st0{display:none;}
	.st1{display:inline;}
	.st2{fill:none;stroke:#000000;stroke-linecap:round;stroke-linejoin:round;stroke-miterlimit:10;}
	.st3{fill:none;stroke:#000000;stroke-linejoin:round;stroke-miterlimit:10;}
</style>
<g id="Filled_Icons" class="st0">
	<path class="st1" d="M12,0C5.4,0,0,5.4,0,12s5.4,12,12,12s12-5.4,12-12S18.6,0,12,0z M13.4,4.5c1.1,0,2,0.9,2,2c0,1.1-0.9,2-2,2
		s-2-0.9-2-2C11.4,5.4,12.3,4.5,13.4,4.5z M16.7,17c-0.8,0.6-0.9,0.7-1.8,1.5c-0.9-1.7-2-2.7-3.5-3.1c-0.9,1.1-2.3,2.4-4.5,3.1
		c-0.5-1.1-0.6-1.4-1-2.1c1.8-0.4,2.4-1,3.3-2.6c-0.1-2,0.5-4,1.8-4.8c2.2,0.7,3.1,2.7,5.1,0.9c0.6,0.9,1,1.7,1,1.7
		s-1.8,1.8-3.9,1.2c0,0.3,0,0.4,0,0.7C14.6,14.2,16.1,15.5,16.7,17z"/>
</g>
<g id="Outline_Icons">
	<g>
		<circle class="st2" cx="12" cy="12" r="11.5"/>
		<g>
			<path class="st3" d="M9.2,13.7c-0.9,1.7-1.5,2.2-3.3,2.6c0.3,0.8,0.5,1.1,1,2.1c2.2-0.6,3.7-1.9,4.5-3.1c1.5,0.4,2.6,1.3,3.5,3.1
				c0.9-0.8,1-0.9,1.8-1.5c-0.6-1.5-2.1-2.8-3.6-3.5c0-0.4,0-0.4,0-0.7c2.1,0.6,3.9-1.2,3.9-1.2s-0.5-0.9-1-1.7
				c-2,1.8-2.9-0.2-5.1-0.9C9.7,9.7,9.2,11.7,9.2,13.7z"/>
			<path class="st3" d="M15.4,6.5c0-1.1-0.9-2-2-2c-1.1,0-2,0.9-2,2c0,1.1,0.9,2,2,2C14.5,8.5,15.4,7.6,15.4,6.5z"/>
		</g>
	</g>
</g>
</svg>
