<?xml version="1.0" encoding="utf-8"?>
<!-- Generator: Adobe Illustrator 19.2.0, SVG Export Plug-In . SVG Version: 6.00 Build 0)  -->
<svg version="1.1" id="Layer_1" xmlns="http://www.w3.org/2000/svg" xmlns:xlink="http://www.w3.org/1999/xlink" x="0px" y="0px"
	 viewBox="0 0 24 24" style="enable-background:new 0 0 24 24;" xml:space="preserve">
<style type="text/css">
	.st0{display:none;}
	.st1{display:inline;}
	.st2{fill:none;stroke:#000000;stroke-linecap:round;stroke-linejoin:round;stroke-miterlimit:10;}
	.st3{fill:none;stroke:#000000;stroke-linejoin:round;stroke-miterlimit:10;}
</style>
<g id="Filled_Icons" class="st0">
	<path class="st1" d="M12,0C5.4,0,0,5.4,0,12s5.4,12,12,12s12-5.4,12-12S18.6,0,12,0z M17.3,18.9c-0.4,0.2-0.8,0-1.3-0.1
		c-1.2-0.1-2.6,0-4.1,0c-1.4,0-2.8-0.1-4,0c-0.6,0-1.3,0.2-1.7-0.1c-0.1-1,1.2-0.5,1.6-1c0.1-0.1,0.3-0.7,0.4-1.1
		c0.1-1.1,0-2.9,0-4.6c0-1.7,0.1-3.4,0-4.5c0-0.4-0.2-1.1-0.4-1.2C7.4,5.9,6.3,6.2,6.5,5.4c0.2-0.4,0.8-0.2,1.1-0.2
		c2.6,0,6.3,0.2,8.7-0.1c0.2,0,0.6-0.2,0.9,0.1C17.2,5.6,17,5.9,17,6.3c0,0.6,0.3,2-0.4,1.8c-0.4-0.1-0.2-0.8-0.4-1.2
		c-0.4-0.7-2.5-0.8-3.8-0.8c-0.8,0-1.9,0-2.4,0.5C9.9,8,9.8,9.8,10,11.1c0.9,0.2,2.6,0.3,3.7,0.1c0.3,0,0.7-0.1,0.9-0.2
		c0.6-0.4,0.2-1.1,0.7-1.6c0.7,0,0.5,0.8,0.4,1.4c0,0.5,0,1.1,0,1.5c0,0.6,0.3,1.3-0.2,1.5c-0.8-0.3-0.4-1.1-1.1-1.5
		c-1-0.6-2.9,0-4.3-0.1c-0.2,0.7-0.1,1.6-0.1,2.6c0,0.8-0.2,1.8,0.1,2.5c0.4,0.8,2.4,0.7,3.5,0.6c1.3-0.1,2.7-0.4,3.1-1.1
		c0.3-0.6-0.1-1.1,0.5-1.6c1.3,0.2,0.4,1.4,0.3,2.4C17.3,18,17.6,18.5,17.3,18.9z"/>
</g>
<g id="Outline_Icons">
	<g>
		<circle class="st2" cx="12" cy="12" r="11.5"/>
		<g>
			<path class="st3" d="M7.9,18.8c1.2-0.1,2.6,0,4,0c1.4,0,2.9-0.1,4.1,0c0.5,0,0.9,0.3,1.3,0.1c0.3-0.4,0.1-0.9,0.1-1.4
				c0.1-1,1-2.2-0.3-2.4c-0.6,0.5-0.2,1-0.5,1.6c-0.4,0.8-1.8,1-3.1,1.1c-1.1,0.1-3.1,0.2-3.5-0.6c-0.3-0.6-0.1-1.7-0.1-2.5
				c0-0.9-0.1-1.8,0.1-2.6c1.4,0.1,3.3-0.5,4.3,0.1c0.7,0.4,0.3,1.2,1.1,1.5c0.5-0.1,0.2-0.8,0.2-1.5c0-0.4,0-1,0-1.5
				c0-0.7,0.3-1.4-0.4-1.4c-0.6,0.4-0.1,1.2-0.7,1.6c-0.2,0.1-0.6,0.2-0.9,0.2c-1.1,0.1-2.8,0-3.7-0.1C9.8,9.8,9.9,8,10,6.7
				c0.5-0.5,1.6-0.5,2.4-0.5c1.3,0,3.4,0.1,3.8,0.8c0.2,0.4,0,1.1,0.4,1.2C17.3,8.4,17,7,17,6.3c0-0.5,0.2-0.8,0.1-1.1
				c-0.2-0.3-0.6-0.2-0.9-0.1c-2.4,0.3-6.1,0.1-8.7,0.1c-0.3,0-0.9-0.2-1.1,0.2c-0.1,0.8,1,0.5,1.4,0.9c0.1,0.1,0.3,0.8,0.4,1.2
				c0.1,1.1,0,2.9,0,4.5c0,1.8,0.1,3.5,0,4.6c0,0.4-0.3,1-0.4,1.1c-0.5,0.5-1.8-0.1-1.6,1C6.6,19.1,7.3,18.9,7.9,18.8"/>
		</g>
	</g>
</g>
</svg>
