<?xml version="1.0" encoding="utf-8"?>
<!-- Generator: Adobe Illustrator 19.2.0, SVG Export Plug-In . SVG Version: 6.00 Build 0)  -->
<svg version="1.1" id="Layer_1" xmlns="http://www.w3.org/2000/svg" xmlns:xlink="http://www.w3.org/1999/xlink" x="0px" y="0px"
	 viewBox="0 0 24 24" style="enable-background:new 0 0 24 24;" xml:space="preserve">
<style type="text/css">
	.st0{display:none;}
	.st1{display:inline;}
	.st2{fill:none;stroke:#000000;stroke-linecap:round;stroke-linejoin:round;stroke-miterlimit:10;}
</style>
<g id="Filled_Icons" class="st0">
	<g class="st1">
		<path d="M6.2,13.6l-0.8-3c-0.1-0.5-0.6-1-1.1-1.1L0.9,8.6c-0.5-0.1-0.5-0.3,0-0.5l3.4-0.9c0.5-0.1,1-0.6,1.1-1.1l0.9-3.4
			c0.1-0.5,0.3-0.5,0.5,0l0.9,3.4c0.1,0.5,0.6,1,1.1,1.1l3.4,0.9c0.5,0.1,0.5,0.3,0,0.5L8.8,9.5c-0.5,0.1-1,0.6-1.1,1.1l-0.4,1.6
			C6.8,12.6,6.5,13.1,6.2,13.6"/>
		<path d="M9.8,4.5l1.3-0.3c0.2,0,0.4-0.2,0.4-0.4l0.3-1.3c0-0.2,0.1-0.2,0.2,0l0.3,1.3c0,0.2,0.2,0.4,0.4,0.4l1.3,0.3
			c0.2,0,0.2,0.1,0,0.2L12.8,5c-0.2,0-0.4,0.2-0.4,0.4L12,6.7c0,0.2-0.1,0.2-0.2,0l-0.3-1.3c0-0.2-0.2-0.4-0.4-0.4L9.8,4.7
			C9.6,4.6,9.6,4.5,9.8,4.5"/>
		<path d="M21.3,15.1l2,0.5c0.3,0.1,0.3,0.2,0,0.3l-2,0.5c-0.3,0.1-0.6,0.4-0.7,0.7l-0.5,2c-0.1,0.3-0.2,0.3-0.3,0l-0.5-2
			c-0.1-0.3-0.4-0.6-0.7-0.7l-2-0.5c-0.3-0.1-0.3-0.2,0-0.3l2-0.5c0.3-0.1,0.6-0.4,0.7-0.7l0.5-2c0.1-0.3,0.2-0.3,0.3,0l0.5,2
			C20.7,14.7,21,15,21.3,15.1"/>
		<path d="M17.3,8.5c0.2-0.4,0.3-1,0.3-1.4c0-0.8-0.5-1.3-1.2-1.4c0,0-0.4,1.6-0.5,1.8c-0.5,1.6-1.4,3.3-2.4,5.2
			c-0.2-1-1.1-1.6-2-1.6c-2.4,0-4.7,3.1-5.5,5.5c-0.8,2.6-1.1,5.8,1.8,5.9c1.1,0,2-1,2.8-1.9c0,1.3,0.6,1.9,1.3,1.9
			c1,0,2.1-0.9,3.9-2.8c0.3-0.3,1.3-1.4,1.3-1.8c0-0.2-0.1-0.3-0.2-0.3c-0.2,0-1.3,1.3-1.5,1.5c-0.5,0.5-1.6,1.6-2.3,1.5
			c-0.3-0.1-0.4-0.4-0.4-0.6c0-1.3,2.3-6,3.1-7.8C16.2,10.9,16.9,9.7,17.3,8.5z M10.4,18.6c-0.3,0.6-1.2,1.8-1.9,1.8
			c-0.5,0-0.8-0.5-0.7-1.2c0.1-1.7,0.9-3.5,2.1-4.9c0.4-0.4,0.7-0.9,1.3-0.9c0.5,0,0.7,0.3,0.7,0.9C11.8,15.8,11.2,17.2,10.4,18.6z"
			/>
	</g>
</g>
<g id="Outline_Icons">
	<g>
		<path class="st2" d="M16.8,17.6c-0.2,0-1.3,1.3-1.5,1.5c-0.5,0.5-1.6,1.6-2.3,1.5c-0.3-0.1-0.4-0.4-0.4-0.6c0-1.3,2.3-6,3.1-7.8
			c0.5-1.2,1.1-2.4,1.6-3.6c0.2-0.4,0.3-1,0.3-1.4c0-0.8-0.5-1.3-1.2-1.4c0,0-0.4,1.6-0.5,1.8c-0.5,1.6-1.4,3.3-2.4,5.2
			c-0.2-1-1.1-1.6-2-1.6c-2.4,0-4.7,3.1-5.5,5.5c-0.8,2.6-1.1,5.8,1.8,5.9c1.1,0,2-1,2.8-1.9c0,1.3,0.6,1.9,1.3,1.9
			c1,0,2.1-0.9,3.9-2.8c0.3-0.3,1.3-1.4,1.3-1.8C17,17.7,17,17.6,16.8,17.6"/>
		<path class="st2" d="M6.2,13.6l-0.8-3c-0.1-0.5-0.6-1-1.1-1.1L0.9,8.6c-0.5-0.1-0.5-0.3,0-0.5l3.4-0.9c0.5-0.1,1-0.6,1.1-1.1
			l0.9-3.4c0.1-0.5,0.3-0.5,0.5,0l0.9,3.4c0.1,0.5,0.6,1,1.1,1.1l3.4,0.9c0.5,0.1,0.5,0.3,0,0.5L8.8,9.5c-0.5,0.1-1,0.6-1.1,1.1
			l-0.4,1.6C6.8,12.6,6.5,13.1,6.2,13.6"/>
		<path class="st2" d="M9.8,4.5l1.3-0.3c0.2,0,0.4-0.2,0.4-0.4l0.3-1.3c0-0.2,0.1-0.2,0.2,0l0.3,1.3c0,0.2,0.2,0.4,0.4,0.4l1.3,0.3
			c0.2,0,0.2,0.1,0,0.2L12.8,5c-0.2,0-0.4,0.2-0.4,0.4L12,6.7c0,0.2-0.1,0.2-0.2,0l-0.3-1.3c0-0.2-0.2-0.4-0.4-0.4L9.8,4.7
			C9.6,4.6,9.6,4.5,9.8,4.5"/>
		<path class="st2" d="M21.3,15.1l2,0.5c0.3,0.1,0.3,0.2,0,0.3l-2,0.5c-0.3,0.1-0.6,0.4-0.7,0.7l-0.5,2c-0.1,0.3-0.2,0.3-0.3,0
			l-0.5-2c-0.1-0.3-0.4-0.6-0.7-0.7l-2-0.5c-0.3-0.1-0.3-0.2,0-0.3l2-0.5c0.3-0.1,0.6-0.4,0.7-0.7l0.5-2c0.1-0.3,0.2-0.3,0.3,0
			l0.5,2C20.7,14.7,21,15,21.3,15.1"/>
		<path class="st2" d="M10.4,18.6c-0.3,0.6-1.2,1.8-1.9,1.8c-0.5,0-0.8-0.5-0.7-1.2c0.1-1.7,0.9-3.5,2.1-4.9
			c0.4-0.4,0.7-0.9,1.3-0.9c0.5,0,0.7,0.3,0.7,0.9C11.8,15.8,11.2,17.2,10.4,18.6"/>
	</g>
</g>
</svg>
