<?xml version="1.0" encoding="utf-8"?>
<!-- Generator: Adobe Illustrator 19.2.0, SVG Export Plug-In . SVG Version: 6.00 Build 0)  -->
<svg version="1.1" id="Layer_1" xmlns="http://www.w3.org/2000/svg" xmlns:xlink="http://www.w3.org/1999/xlink" x="0px" y="0px"
	 viewBox="0 0 24 24" style="enable-background:new 0 0 24 24;" xml:space="preserve">
<style type="text/css">
	.st0{display:none;}
	.st1{display:inline;}
	.st2{fill:none;stroke:#000000;stroke-linecap:round;stroke-linejoin:round;stroke-miterlimit:10;}
</style>
<g id="Filled_Icons" class="st0">
	<g class="st1">
		<path d="M11.5,0c-5,0-9,4-9,9c0,4.1,2.9,7.8,6.8,8.7l1.7,5.9c0.1,0.2,0.3,0.4,0.5,0.4s0.4-0.1,0.5-0.4l1.7-5.9
			c4-1,6.8-4.6,6.8-8.7C20.5,4,16.5,0,11.5,0z M11.5,15.5C7.9,15.5,5,12.6,5,9s2.9-6.5,6.5-6.5S18,5.4,18,9S15.1,15.5,11.5,15.5z"/>
		<path d="M11.5,5.5C9.6,5.5,8,7.1,8,9s1.6,3.5,3.5,3.5S15,10.9,15,9S13.4,5.5,11.5,5.5z"/>
	</g>
</g>
<g id="Outline_Icons">
	<g>
		<path class="st2" d="M20,9c0-4.7-3.8-8.5-8.5-8.5C6.8,0.5,3,4.3,3,9c0,4.1,2.9,7.5,6.7,8.3l1.8,6.2l1.8-6.2
			C17.1,16.5,20,13.1,20,9z"/>
		<circle class="st2" cx="11.5" cy="9" r="6"/>
		<circle class="st2" cx="11.5" cy="9" r="3"/>
	</g>
</g>
</svg>
