<?xml version="1.0" encoding="utf-8"?>
<!-- Generator: Adobe Illustrator 19.2.0, SVG Export Plug-In . SVG Version: 6.00 Build 0)  -->
<svg version="1.1" id="Layer_1" xmlns="http://www.w3.org/2000/svg" xmlns:xlink="http://www.w3.org/1999/xlink" x="0px" y="0px"
	 viewBox="0 0 24 24" style="enable-background:new 0 0 24 24;" xml:space="preserve">
<style type="text/css">
	.st0{display:none;}
	.st1{display:inline;}
	.st2{fill:none;stroke:#000000;stroke-linecap:round;stroke-linejoin:round;stroke-miterlimit:10;}
	.st3{fill:none;stroke:#000000;stroke-linejoin:round;stroke-miterlimit:10;}
</style>
<g id="Filled_Icons" class="st0">
	<path class="st1" d="M12,0C5.4,0,0,5.4,0,12s5.4,12,12,12s12-5.4,12-12S18.6,0,12,0z M4,13.5L4,13.5c0.2-2.3,2.2-3.2,2.5-3.3
		C6,9.8,5.7,9.2,5.7,8.6c0-1.2,0.9-2.1,2.1-2.1c1.2,0,2.1,0.9,2.1,2.1c0,0.6-0.3,1.2-0.8,1.6c0.4,0.1,0.7,0.4,1.1,0.6
		c-2.1,1-3.4,3.9-3.4,4.7C4.9,15.4,4,14.2,4,13.5z M8.1,16c0.4-3.5,3.2-4.7,3.7-4.8h0c-0.7-0.6-1.2-1.4-1.2-2.4
		c0-1.7,1.4-3.1,3.1-3.1c1.7,0,3.2,1.4,3.2,3.1c0,1-0.4,1.8-1.1,2.4c2.3,0.8,3.7,2.8,3.7,4.9C19.6,20.6,8,20.3,8.1,16z"/>
</g>
<g id="Outline_Icons">
	<g>
		<circle class="st2" cx="12" cy="12" r="11.5"/>
		<g>
			<path class="st3" d="M3.5,12.9L3.5,12.9c0,0.7,0.9,2,2.7,2.1c0-0.8,1.3-3.7,3.4-4.7C9.3,10,9,9.8,8.6,9.6c0.5-0.4,0.8-1,0.8-1.6
				c0-1.2-0.9-2.1-2.1-2.1C6.1,5.9,5.2,6.9,5.2,8c0,0.7,0.3,1.2,0.8,1.6C5.7,9.8,3.8,10.6,3.5,12.9z"/>
			<path class="st3" d="M16.9,8.7c0-1.7-1.4-3.1-3.1-3.1c-1.7,0-3.1,1.4-3.1,3.1c0,1,0.5,1.8,1.2,2.4h0c-0.4,0.2-3.3,1.4-3.7,4.8
				c-0.1,4.3,11.5,4.6,11.4,0c0-2-1.4-4.1-3.7-4.9C16.5,10.6,16.9,9.7,16.9,8.7z"/>
		</g>
	</g>
</g>
</svg>
