<?xml version="1.0" encoding="utf-8"?>
<!-- Generator: Adobe Illustrator 19.2.0, SVG Export Plug-In . SVG Version: 6.00 Build 0)  -->
<svg version="1.1" id="Layer_1" xmlns="http://www.w3.org/2000/svg" xmlns:xlink="http://www.w3.org/1999/xlink" x="0px" y="0px"
	 viewBox="0 0 24 24" style="enable-background:new 0 0 24 24;" xml:space="preserve">
<style type="text/css">
	.st0{display:none;}
	.st1{display:inline;}
	.st2{fill:none;stroke:#000000;stroke-linejoin:round;stroke-miterlimit:10;}
</style>
<g id="Filled_Icons" class="st0">
	<path class="st1" d="M24,7.5c0-1.1-0.9-2-2-2c-0.8,0-1.5,0.5-1.8,1.2l-7.7-2.5C12.3,3.5,11.7,3,11,3c-0.8,0-1.5,0.7-1.5,1.5
		c0,0.2,0,0.3,0.1,0.5l-8.1,9.5c0,0,0,0,0,0C0.7,14.5,0,15.2,0,16s0.7,1.5,1.5,1.5c0.4,0,0.8-0.2,1.1-0.5l6.9,1.8c0,0.1,0,0.1,0,0.2
		c0,1.1,0.9,2,2,2s2-0.9,2-2c0-0.1,0-0.1,0-0.2l5.7-2.6c0.2,0.2,0.5,0.3,0.9,0.3c0.8,0,1.5-0.7,1.5-1.5c0-0.4-0.1-0.7-0.4-1l1-4.5
		C23.2,9.4,24,8.6,24,7.5z M20,13.5c-0.2,0-0.5,0.1-0.7,0.2l-1.1-1.4L21,9.2c0,0,0.1,0,0.1,0.1l-0.9,4.2
		C20.1,13.5,20.1,13.5,20,13.5z M7,12.5c0,0.1,0,0.3,0.1,0.4l-4.5,1.8l7.2-8.5L8.6,11c0,0-0.1,0-0.1,0C7.7,11,7,11.7,7,12.5z
		 M12.4,17.2c-0.1,0-0.2-0.1-0.3-0.1L11.8,12l3.7-1.5l1.4,1.7L12.4,17.2z M9.8,11.8c-0.1-0.1-0.2-0.3-0.3-0.4l1.1-4.1l0.2,4.1
		L9.8,11.8z M11.5,5.9c0.1,0,0.1-0.1,0.2-0.1l3.1,3.9L11.8,11L11.5,5.9z M16.5,10.1l3.8-1.6l-2.7,3L16.5,10.1z M15.8,9.3l-3.3-4.1
		l7.4,2.4L15.8,9.3z M8.5,12C8.8,12,9,12.2,9,12.5S8.8,13,8.5,13S8,12.8,8,12.5S8.2,12,8.5,12z M10,12.8l0.9-0.4l0.2,4.3l-1.5-3.2
		C9.8,13.3,9.9,13.1,10,12.8z M17.6,13.1l1.1,1.3c-0.1,0.2-0.1,0.4-0.1,0.6c0,0.1,0,0.3,0.1,0.4l-5.3,2.4L17.6,13.1z M22,6.5
		c0.6,0,1,0.4,1,1s-0.4,1-1,1s-1-0.4-1-1S21.4,6.5,22,6.5z M11,4c0.3,0,0.5,0.2,0.5,0.5S11.3,5,11,5s-0.5-0.2-0.5-0.5S10.7,4,11,4z
		 M1.5,16.5C1.2,16.5,1,16.3,1,16s0.2-0.5,0.5-0.5S2,15.7,2,16S1.8,16.5,1.5,16.5z M3,16.1c0,0,0-0.1,0-0.1c0-0.1,0-0.2,0-0.3
		l4.7-1.9C7.9,13.9,8.2,14,8.5,14c0.1,0,0.1,0,0.2,0l1.6,3.4c-0.2,0.1-0.3,0.3-0.4,0.4L3,16.1z M11.5,20c-0.6,0-1-0.4-1-1s0.4-1,1-1
		s1,0.4,1,1S12.1,20,11.5,20z M20,15.5c-0.3,0-0.5-0.2-0.5-0.5s0.2-0.5,0.5-0.5s0.5,0.2,0.5,0.5S20.3,15.5,20,15.5z"/>
</g>
<g id="Outline_Icons">
	<g>
		<circle class="st2" cx="22" cy="7.5" r="1.5"/>
		<circle class="st2" cx="11" cy="4.5" r="1"/>
		<circle class="st2" cx="20" cy="15" r="1"/>
		<circle class="st2" cx="1.5" cy="16" r="1"/>
		<circle class="st2" cx="8.5" cy="12.5" r="1"/>
		<circle class="st2" cx="11.5" cy="19" r="1.5"/>
		<line class="st2" x1="11" y1="5.5" x2="11.6" y2="17.5"/>
		<line class="st2" x1="9.5" y1="12.5" x2="20.6" y2="7.9"/>
		<line class="st2" x1="2.3" y1="15.4" x2="7.8" y2="13.2"/>
		<line class="st2" x1="12" y1="4.5" x2="20.6" y2="7.3"/>
		<line class="st2" x1="21.7" y1="9" x2="20.6" y2="14.2"/>
		<line class="st2" x1="10.1" y1="5.1" x2="1.8" y2="15"/>
		<line class="st2" x1="2.4" y1="16.5" x2="10.1" y2="18.4"/>
		<line class="st2" x1="13" y1="18.4" x2="19.2" y2="15.6"/>
		<line class="st2" x1="11.8" y1="5.1" x2="19.2" y2="14.4"/>
		<line class="st2" x1="10.6" y1="5.4" x2="8.9" y2="11.6"/>
		<line class="st2" x1="9" y1="13.4" x2="10.9" y2="17.6"/>
		<line class="st2" x1="12.5" y1="17.9" x2="21" y2="8.6"/>
	</g>
</g>
</svg>
