<?xml version="1.0" encoding="utf-8"?>
<!-- Generator: Adobe Illustrator 19.2.0, SVG Export Plug-In . SVG Version: 6.00 Build 0)  -->
<svg version="1.1" id="Layer_1" xmlns="http://www.w3.org/2000/svg" xmlns:xlink="http://www.w3.org/1999/xlink" x="0px" y="0px"
	 viewBox="0 0 24 24" style="enable-background:new 0 0 24 24;" xml:space="preserve">
<style type="text/css">
	.st0{display:none;}
	.st1{display:inline;}
	.st2{fill:none;stroke:#000000;stroke-linecap:round;stroke-linejoin:round;stroke-miterlimit:10;}
	.st3{fill:none;stroke:#000000;stroke-linejoin:round;stroke-miterlimit:10;}
</style>
<g id="Filled_Icons" class="st0">
	<g class="st1">
		<path d="M12,0C5.4,0,0,5.4,0,12s5.4,12,12,12s12-5.4,12-12S18.6,0,12,0z M12,18.5c-3.3,0-6.1-2.7-6.1-6.1c0-4.3,5.3-6.1,5.8-7.9
			c0.6,1.9,6.3,3,6.3,7.9C18.1,15.8,15.3,18.5,12,18.5z"/>
		<path d="M15.9,10.8c-0.7,0-1.9,1.1-2.6,1.1c-0.6,0-1.8-1.3-2.9-1.3c-2.3,0-2.8,3.6-0.3,3.6c0.9,0,2.8-1.6,3.2-1.6s1.6,1.6,2.2,1.5
			C16.9,13,16.6,10.8,15.9,10.8z"/>
		<path d="M12.4,15.6c0.2,0,0.3-0.1,0.4-0.2c0.2-0.3,0.4-0.4,0.6-0.4c0,0,0.1,0.1,0.2,0.3c0.1,0.2,0.4,0.3,0.7,0.2
			c0.2-0.1,0.3-0.4,0.2-0.7c-0.3-0.5-0.7-0.8-1.1-0.8c-0.6,0-1.1,0.3-1.5,0.8c-0.1,0.2-0.1,0.5,0.2,0.7
			C12.3,15.6,12.4,15.6,12.4,15.6z"/>
		<path d="M14.1,15.8c-1.2,0.8-2.2,0.3-2.5,0c-0.2-0.2-0.5-0.1-0.7,0.1c-0.2,0.2-0.1,0.5,0.1,0.7c0.5,0.4,1.1,0.6,1.9,0.6
			c0.6,0,1.2-0.2,1.8-0.6c0.2-0.2,0.3-0.5,0.1-0.7C14.7,15.7,14.4,15.6,14.1,15.8z"/>
	</g>
</g>
<g id="Outline_Icons">
	<g>
		<circle class="st2" cx="12" cy="12" r="11.5"/>
		<path class="st3" d="M18.1,12.5c0,3.3-2.7,6.1-6.1,6.1s-6.1-2.7-6.1-6.1c0-4.3,5.3-6.1,5.8-7.9C12.4,6.4,18.1,7.5,18.1,12.5z"/>
		<path class="st3" d="M10.5,10.5c1.1,0,2.3,1.3,2.9,1.3c0.6,0,1.9-1.1,2.6-1.1c0.7,0,0.9,2.3-0.4,3.2c-0.6,0.1-1.7-1.5-2.2-1.5
			c-0.5,0-2.3,1.6-3.2,1.6C7.6,14.1,8.1,10.5,10.5,10.5z"/>
		<path class="st2" d="M12.4,15.1c0.2-0.2,0.5-0.6,1.1-0.6c0.3,0,0.5,0.3,0.7,0.5"/>
		<path class="st2" d="M11.3,16.2c0.4,0.3,1.6,1,3.1,0"/>
	</g>
</g>
</svg>
