<?xml version="1.0" encoding="utf-8"?>
<!-- Generator: Adobe Illustrator 19.2.0, SVG Export Plug-In . SVG Version: 6.00 Build 0)  -->
<svg version="1.1" id="Layer_1" xmlns="http://www.w3.org/2000/svg" xmlns:xlink="http://www.w3.org/1999/xlink" x="0px" y="0px"
	 viewBox="0 0 24 24" style="enable-background:new 0 0 24 24;" xml:space="preserve">
<style type="text/css">
	.st0{display:none;}
	.st1{display:inline;}
	.st2{fill:none;stroke:#000000;stroke-linejoin:round;stroke-miterlimit:10;}
</style>
<g id="Filled_Icons" class="st0">
	<g class="st1">
		<path d="M3.5,3.5c0-1.7,1.3-3,3-3s3,1.3,3,3v2h8c1.7,0,3,1.3,3,3c0,1.7-1.3,3-3,3h-8v3c0,1.7,1.3,3,3,3h5c1.7,0,3,1.3,3,3
			s-1.3,3-3,3h-6c-4.4,0-8-3.6-8-8V3.5z"/>
	</g>
</g>
<g id="Outline_Icons">
	<g>
		<path class="st2" d="M3.5,3.5c0-1.7,1.3-3,3-3s3,1.3,3,3v2h8c1.7,0,3,1.3,3,3c0,1.7-1.3,3-3,3h-8v3c0,1.7,1.3,3,3,3h5
			c1.7,0,3,1.3,3,3s-1.3,3-3,3h-6c-4.4,0-8-3.6-8-8V3.5z"/>
	</g>
</g>
</svg>
