<?xml version="1.0" encoding="utf-8"?>
<!-- Generator: Adobe Illustrator 19.2.0, SVG Export Plug-In . SVG Version: 6.00 Build 0)  -->
<svg version="1.1" id="Layer_1" xmlns="http://www.w3.org/2000/svg" xmlns:xlink="http://www.w3.org/1999/xlink" x="0px" y="0px"
	 viewBox="0 0 24 24" style="enable-background:new 0 0 24 24;" xml:space="preserve">
<style type="text/css">
	.st0{display:none;}
	.st1{display:inline;}
	.st2{fill:none;stroke:#000000;stroke-linejoin:round;stroke-miterlimit:10;}
	.st3{fill:none;stroke:#000000;stroke-linecap:round;stroke-linejoin:round;stroke-miterlimit:10;}
</style>
<g id="Filled_Icons" class="st0">
	<path class="st1" d="M21,3.4c-1.6-1.7-3.9-2.7-6.4-2.7H9.4c-4.9,0-8.9,4-8.9,8.9v5.2c0,2.6,1.2,5,3,6.6c1.6,1.4,3.6,2.2,5.9,2.2
		h5.2h6.9c1.1,0,2-0.9,2-2v-6.9V9.5C23.5,7.1,22.6,5,21,3.4z M9.2,7.7c0.6,0,1,0.4,1,1c0,0.6-0.4,1-1,1s-1-0.5-1-1
		C8.2,8.1,8.7,7.7,9.2,7.7z M10.2,14.2l-2.5,4.2c-0.1,0.2-0.3,0.2-0.4,0.2c-0.1,0-0.2,0-0.3-0.1c-0.2-0.1-0.3-0.4-0.2-0.7l2.5-4.2
		c0.1-0.2,0.4-0.3,0.7-0.2C10.2,13.6,10.3,13.9,10.2,14.2z M14.9,18.4c-0.1,0.1-0.3,0.2-0.4,0.2c-0.1,0-0.2,0-0.3-0.1
		c-0.2-0.2-0.3-0.5-0.1-0.7c1.1-1.5,1.6-3.3,1.6-5.2c0-2.1-0.7-4.2-2.1-5.8c-0.2-0.2-0.1-0.5,0.1-0.7C13.9,6,14.2,6,14.4,6.2
		c1.5,1.8,2.3,4.1,2.3,6.4C16.7,14.7,16.1,16.7,14.9,18.4z"/>
</g>
<g id="Outline_Icons">
	<g>
		<path class="st2" d="M21,3.4L21,3.4L21,3.4L21,3.4z M0.5,9.5v5.2c0,2.6,1.2,5,3,6.6c1.6,1.4,3.6,2.2,5.9,2.2h5.2h6.9
			c1.1,0,2-0.9,2-2v-6.9V9.5c0-2.4-0.9-4.5-2.5-6.1l0,0c-1.6-1.7-3.9-2.7-6.4-2.7H9.4C4.5,0.6,0.5,4.6,0.5,9.5L0.5,9.5z"/>
		<path class="st3" d="M14,6.5c1.4,1.7,2.2,3.8,2.2,6.1c0,2-0.6,3.9-1.7,5.5"/>
		<line class="st3" x1="7.2" y1="18.1" x2="9.8" y2="13.9"/>
		<path class="st2" d="M9.2,7.7c0.6,0,1,0.4,1,1c0,0.6-0.4,1-1,1s-1-0.5-1-1C8.2,8.1,8.7,7.7,9.2,7.7L9.2,7.7z"/>
	</g>
</g>
</svg>
