<?xml version="1.0" encoding="utf-8"?>
<!-- Generator: Adobe Illustrator 19.2.0, SVG Export Plug-In . SVG Version: 6.00 Build 0)  -->
<svg version="1.1" id="Layer_1" xmlns="http://www.w3.org/2000/svg" xmlns:xlink="http://www.w3.org/1999/xlink" x="0px" y="0px"
	 viewBox="0 0 24 24" style="enable-background:new 0 0 24 24;" xml:space="preserve">
<style type="text/css">
	.st0{display:none;}
	.st1{display:inline;}
	.st2{fill:none;stroke:#000000;stroke-linejoin:round;stroke-miterlimit:10;}
</style>
<g id="Filled_Icons" class="st0">
	<g class="st1">
		<path d="M12,15.4c1.9,0,3.4-1.5,3.4-3.4c0-1.9-1.5-3.5-3.4-3.5S8.6,10.1,8.6,12v0C8.6,13.9,10.1,15.4,12,15.4z M12,0.5
			c-1.2,0-2.4,0.2-3.5,0.5v6.4c1-0.7,2.2-1.2,3.5-1.2c3.2,0,5.7,2.6,5.7,5.8c0,3.2-2.6,5.8-5.7,5.8c-3.2,0-5.5-2.6-5.5-5.8V2
			c-3.4,2-6,5.7-6,10c0,6.4,5.1,11.5,11.5,11.5c6.4,0,11.5-5.1,11.5-11.5C23.5,5.6,18.4,0.5,12,0.5z"/>
	</g>
</g>
<g id="Outline_Icons">
	<g id="形状_1_4_">
		<g>
			<path class="st2" d="M12,15.4c1.9,0,3.4-1.5,3.4-3.4c0-1.9-1.5-3.5-3.4-3.5S8.6,10.1,8.6,12v0C8.6,13.9,10.1,15.4,12,15.4z
				 M12,0.5c-1.2,0-2.4,0.2-3.5,0.5v6.4c1-0.7,2.2-1.2,3.5-1.2c3.2,0,5.7,2.6,5.7,5.8c0,3.2-2.6,5.8-5.7,5.8c-3.2,0-5.5-2.6-5.5-5.8
				V2c-3.4,2-6,5.7-6,10c0,6.4,5.1,11.5,11.5,11.5c6.4,0,11.5-5.1,11.5-11.5C23.5,5.6,18.4,0.5,12,0.5z"/>
		</g>
	</g>
</g>
</svg>
