<?xml version="1.0" encoding="utf-8"?>
<!-- Generator: Adobe Illustrator 19.2.0, SVG Export Plug-In . SVG Version: 6.00 Build 0)  -->
<svg version="1.1" id="Layer_1" xmlns="http://www.w3.org/2000/svg" xmlns:xlink="http://www.w3.org/1999/xlink" x="0px" y="0px"
	 viewBox="0 0 24 24" style="enable-background:new 0 0 24 24;" xml:space="preserve">
<style type="text/css">
	.st0{display:none;}
	.st1{display:inline;}
	.st2{fill:none;stroke:#000000;stroke-linecap:round;stroke-linejoin:round;stroke-miterlimit:10;}
	.st3{fill:none;stroke:#000000;stroke-linejoin:round;stroke-miterlimit:10;}
</style>
<g id="Filled_Icons" class="st0">
	<path class="st1" d="M12,0C5.4,0,0,5.4,0,12s5.4,12,12,12s12-5.4,12-12S18.6,0,12,0z M18.3,16.5l-2,0c0,0-0.4,0.1-1-0.3
		c-0.7-0.5-1.5-1.9-2-1.7c-0.8,0.2-0.3,1.3-0.7,1.7c-0.1,0.1-1.2,0-1.3,0c0,0-2,0.3-3.7-1.6C5.7,12.7,4,8.9,4,8.9S3.9,8.6,4,8.5
		c0.1-0.1,0.4-0.1,0.4-0.1l2.1,0c0,0,0.2,0,0.3,0.1c0.1,0.1,0.2,0.2,0.2,0.2c0.3,0.7,1.7,3.8,2.4,3.4C10,11.9,10,9.3,9.7,8.9
		C9.5,8.7,9.2,8.6,9,8.6c-0.1,0,0.1-0.3,0.3-0.4C9.7,8,10.4,7.9,11.2,8c0.6,0,0.8,0,1.1,0.1c1.2,0.3,0,3.5,0.8,4
		c0.6,0.4,2.1-2.6,2.4-3.4c0,0,0.1-0.2,0.2-0.2c0.1-0.1,0.3-0.1,0.3-0.1l2.3,0c0,0,0.7-0.1,0.8,0.2c0.1,0.3-0.3,1.1-1.2,2.3
		c-1.5,2-1.7,1.8-0.4,3c1.2,1.1,1.4,1.7,1.5,1.7C19.4,16.4,18.3,16.5,18.3,16.5z"/>
</g>
<g id="Outline_Icons">
	<g>
		<circle class="st2" cx="12" cy="12" r="11.5"/>
		<path class="st3" d="M9.6,12.1c-0.7,0.4-2.1-2.6-2.4-3.4c0,0-0.1-0.2-0.2-0.2C6.8,8.4,6.6,8.3,6.6,8.3l-2.1,0c0,0-0.3,0-0.4,0.1
			C3.9,8.6,4,8.9,4,8.9s1.7,3.8,3.6,5.8c1.7,1.8,3.7,1.6,3.7,1.6c0.1,0,1.2,0,1.3,0c0.4-0.4-0.1-1.4,0.7-1.7c0.6-0.2,1.3,1.2,2,1.7
			c0.6,0.4,1,0.3,1,0.3l2,0c0,0,1-0.1,0.6-0.9c0-0.1-0.3-0.6-1.5-1.7c-1.3-1.2-1.1-1,0.4-3c0.9-1.2,1.3-2,1.2-2.3
			c-0.1-0.3-0.8-0.2-0.8-0.2l-2.3,0c0,0-0.2,0-0.3,0.1c-0.1,0.1-0.2,0.2-0.2,0.2c-0.3,0.8-1.8,3.8-2.4,3.4c-0.8-0.5,0.4-3.8-0.8-4
			C12,8,11.8,8,11.2,8c-0.8,0-1.5,0-1.9,0.2C9.1,8.3,8.9,8.6,9,8.6c0.1,0,0.5,0.1,0.7,0.3C10,9.3,10,11.9,9.6,12.1z"/>
	</g>
</g>
</svg>
