<?xml version="1.0" encoding="utf-8"?>
<!-- Generator: Adobe Illustrator 19.2.0, SVG Export Plug-In . SVG Version: 6.00 Build 0)  -->
<svg version="1.1" id="Layer_1" xmlns="http://www.w3.org/2000/svg" xmlns:xlink="http://www.w3.org/1999/xlink" x="0px" y="0px"
	 viewBox="0 0 24 24" style="enable-background:new 0 0 24 24;" xml:space="preserve">
<style type="text/css">
	.st0{display:none;}
	.st1{display:inline;}
	.st2{fill:none;stroke:#000000;stroke-linejoin:round;stroke-miterlimit:10;}
</style>
<g id="Filled_Icons" class="st0">
	<g class="st1">
		<path d="M6.5,21.5h-5v-13h5V21.5z M4,6.5L4,6.5C2.5,6.5,1.5,5.3,1.5,4c0-1.3,1-2.4,2.5-2.4c1.5,0,2.5,1.1,2.5,2.4
			C6.6,5.4,5.6,6.5,4,6.5z M15.5,12.5c-1.1,0-2,0.9-2,2v7h-5c0,0,0.1-12,0-13h5V10c0,0,1.5-1.4,3.9-1.4c3,0,5.1,2.1,5.1,6.3v6.7h-5
			v-7C17.5,13.4,16.6,12.5,15.5,12.5z"/>
	</g>
</g>
<g id="Outline_Icons">
	<g>
		<path class="st2" d="M6.5,21.5h-5v-13h5V21.5z M4,6.5L4,6.5C2.4,6.5,1.5,5.3,1.5,4c0-1.3,1-2.4,2.5-2.4c1.5,0,2.5,1.1,2.5,2.4
			C6.5,5.4,5.6,6.5,4,6.5z M15.5,12.5c-1.1,0-2,0.9-2,2v7h-5c0,0,0.1-12,0-13h5V10c0,0,1.5-1.4,3.9-1.4c3,0,5.1,2.1,5.1,6.3v6.7h-5
			v-7C17.5,13.4,16.6,12.5,15.5,12.5z"/>
	</g>
</g>
</svg>
