<?xml version="1.0" encoding="utf-8"?>
<!-- Generator: Adobe Illustrator 19.2.0, SVG Export Plug-In . SVG Version: 6.00 Build 0)  -->
<svg version="1.1" id="Layer_1" xmlns="http://www.w3.org/2000/svg" xmlns:xlink="http://www.w3.org/1999/xlink" x="0px" y="0px"
	 viewBox="0 0 24 24" style="enable-background:new 0 0 24 24;" xml:space="preserve">
<style type="text/css">
	.st0{display:none;}
	.st1{display:inline;}
	.st2{fill:none;stroke:#000000;stroke-linecap:round;stroke-linejoin:round;stroke-miterlimit:10;}
</style>
<g id="Filled_Icons" class="st0">
	<g class="st1">
		<g>
			<path d="M13.5,21.5h-2c-3.9,0-7-3.1-7-7V5c0-0.6,0.4-1,1-1s1,0.4,1,1v9.5c0,2.8,2.2,5,5,5h2c2.2,0,4-1.8,4-4s-1.8-4-4-4h-4
				c-0.6,0-1-0.4-1-1s0.4-1,1-1h4c3.3,0,6,2.7,6,6C19.5,18.8,16.8,21.5,13.5,21.5z"/>
		</g>
	</g>
</g>
<g id="Outline_Icons">
	<g>
		<path class="st2" d="M5.5,5v9.5c0,3.3,2.7,6,6,6h2c2.8,0,5-2.2,5-5s-2.2-5-5-5H9"/>
	</g>
</g>
</svg>
