<?xml version="1.0" encoding="utf-8"?>
<!-- Generator: Adobe Illustrator 19.2.0, SVG Export Plug-In . SVG Version: 6.00 Build 0)  -->
<svg version="1.1" id="Layer_1" xmlns="http://www.w3.org/2000/svg" xmlns:xlink="http://www.w3.org/1999/xlink" x="0px" y="0px"
	 viewBox="0 0 24 24" style="enable-background:new 0 0 24 24;" xml:space="preserve">
<style type="text/css">
	.st0{display:none;}
	.st1{display:inline;}
	.st2{fill:none;stroke:#000000;stroke-linecap:round;stroke-linejoin:round;stroke-miterlimit:10;}
	.st3{fill:none;stroke:#000000;stroke-linejoin:round;stroke-miterlimit:10;}
</style>
<g id="Filled_Icons" class="st0">
	<g class="st1">
		<path d="M10.2,6.3C9.6,6.5,9.5,7.1,10,7C10.5,6.8,10.6,6.2,10.2,6.3z"/>
		<path d="M16.4,6.2c0.4-0.1,0.5-0.6,0.1-0.5C16,5.8,15.9,6.3,16.4,6.2z"/>
		<path d="M6,11.5c-0.3,0.1-0.5,0.4-0.4,0.6c0.2,0.1,0.5-0.1,0.6-0.4C6.2,11.5,6.2,11.4,6,11.5z"/>
		<path d="M17.3,12.3c-0.7,0.2-0.5,1,0.2,0.8c0.2-0.1,0.4-0.2,0.4-0.5C17.8,12.4,17.6,12.2,17.3,12.3z"/>
		<path d="M8.8,16.3c-0.2,0-0.4,0.3-0.5,0.5c-0.2,0.6,0.6,0.8,0.8,0.1C9.3,16.6,9.1,16.3,8.8,16.3z"/>
		<path d="M12,0C5.4,0,0,5.4,0,12s5.4,12,12,12s12-5.4,12-12S18.6,0,12,0z M18.4,14.4c-1.2,0.7-3.2,0.4-3.5-1.1
			c-0.1-0.5,0-0.8-0.4-1.2c-0.9-1.3-2.7-0.8-3.7,0.4c-0.2,0.2-0.3,0.4-0.5,0.7c-0.4,0.8-0.3,1.3,0,2.2c0.5,1.4,0.3,3-1.3,3.4
			c-1,0.3-2-0.1-2.1-1.1c-0.2-1.2,0.5-2.1,1.4-2.7C9.1,14.4,9.7,14,10,13c0.6-1.8-1.4-2.7-2.9-0.9c-0.3,0.4-0.6,0.9-1.4,1
			c-1.8,0.4-1-2.5,0.7-2.8c0.7-0.1,0.8,0.2,1.1,0.4c0.7,0.6,2.2-0.3,2.7-1.1C10.6,9,10.7,8,9.7,7.9c-0.5,0-0.9,0.1-1-0.4
			C8.6,7,9,6.4,9.5,6.1c0.5-0.4,1.6-0.7,1.9-0.1c0.2,0.5-0.4,1.1-0.6,1.6c-0.6,1.7,2,1.9,3.3,0.2c0.6-0.8,0.2-1,0.5-1.7
			c0.4-0.8,1.2-1.1,2-1.2c0.4,0,0.7,0,1.1,0.2c0.9,0.4,0.5,1.6-0.6,2.1c-1,0.6-1.5,0.2-2.7,0.8c-1.7,0.9-1.9,3-0.2,3.4
			c0.7,0.1,1.4,0,1.9-0.3c0.8-0.3,1.4-0.4,2.1-0.2c0.6,0.1,1.2,0.6,1.3,1.2C19.9,13,19.3,14,18.4,14.4z"/>
	</g>
</g>
<g id="Outline_Icons">
	<g>
		<circle class="st2" cx="12" cy="12" r="11.5"/>
		<g>
			<g>
				<path class="st3" d="M14.5,12.1c0.3,0.4,0.3,0.6,0.4,1.2c0.3,1.6,2.4,1.8,3.5,1.1c0.9-0.5,1.5-1.4,1.2-2.5
					c-0.2-0.5-0.7-1-1.3-1.2c-0.7-0.2-1.3-0.1-2.1,0.2c-0.6,0.2-1.2,0.4-1.9,0.3c-1.8-0.4-1.5-2.5,0.2-3.4c1.2-0.6,1.7-0.3,2.7-0.8
					c1-0.6,1.4-1.7,0.6-2.1c-0.3-0.2-0.7-0.2-1.1-0.2c-0.8,0.1-1.6,0.4-2,1.2c-0.3,0.6,0,0.9-0.5,1.7c-1.3,1.7-3.9,1.5-3.3-0.2
					c0.2-0.4,0.8-1,0.6-1.6c-0.1-0.1-0.2-0.2-0.2-0.3c-0.2-0.1-0.7-0.1-0.9,0C10,5.8,9.7,5.9,9.5,6.1C9,6.4,8.6,7,8.7,7.5
					c0.1,0.5,0.5,0.4,1,0.4c1,0.1,0.8,1.1,0.4,1.8c-0.5,0.8-2,1.7-2.7,1.1c-0.3-0.2-0.4-0.5-1.1-0.4c-1.7,0.3-2.5,3.2-0.7,2.8
					c0.8-0.2,1.1-0.7,1.4-1c1.5-1.7,3.5-0.9,2.9,0.9c-0.3,1-0.8,1.4-1.6,1.8c-0.9,0.6-1.6,1.5-1.4,2.7c0.1,1,1.1,1.4,2.1,1.1
					c1.6-0.4,1.8-2,1.3-3.4c-0.3-0.9-0.4-1.4,0-2.2c0.1-0.2,0.3-0.5,0.5-0.7C11.8,11.3,13.6,10.8,14.5,12.1L14.5,12.1z"/>
			</g>
			<g>
				<path d="M17.4,12.3c0,0-0.1,0-0.1,0c-0.6,0.2-0.5,0.8,0,0.8c0.1,0,0.1,0,0.2,0c0.2-0.1,0.4-0.2,0.4-0.5
					C17.9,12.4,17.6,12.3,17.4,12.3L17.4,12.3z"/>
			</g>
			<g>
				<path d="M16.5,5.7C16.5,5.7,16.5,5.8,16.5,5.7c-0.5,0.1-0.6,0.5-0.3,0.5c0,0,0.1,0,0.1,0C16.8,6.2,16.9,5.7,16.5,5.7L16.5,5.7z"
					/>
			</g>
			<g>
				<path d="M8.9,16.3C8.9,16.3,8.8,16.3,8.9,16.3c-0.3,0-0.5,0.3-0.5,0.5c-0.1,0.3,0.1,0.5,0.3,0.5c0.2,0,0.4-0.1,0.5-0.4
					C9.3,16.6,9.2,16.3,8.9,16.3L8.9,16.3z"/>
			</g>
			<g>
				<path d="M6.1,11.5C6.1,11.5,6,11.5,6.1,11.5c-0.3,0.1-0.6,0.5-0.4,0.6c0,0,0.1,0,0.1,0c0.2,0,0.4-0.2,0.5-0.5
					C6.2,11.5,6.2,11.5,6.1,11.5L6.1,11.5z"/>
			</g>
			<g>
				<path d="M10.3,6.3c0,0-0.1,0-0.1,0C9.7,6.5,9.5,7,9.9,7c0,0,0.1,0,0.1,0C10.4,6.8,10.6,6.3,10.3,6.3L10.3,6.3z"/>
			</g>
		</g>
	</g>
</g>
</svg>
