<?xml version="1.0" encoding="utf-8"?>
<!-- Generator: Adobe Illustrator 19.2.0, SVG Export Plug-In . SVG Version: 6.00 Build 0)  -->
<svg version="1.1" id="Layer_1" xmlns="http://www.w3.org/2000/svg" xmlns:xlink="http://www.w3.org/1999/xlink" x="0px" y="0px"
	 viewBox="0 0 24 24" style="enable-background:new 0 0 24 24;" xml:space="preserve">
<style type="text/css">
	.st0{display:none;}
	.st1{display:inline;}
	.st2{fill:none;stroke:#000000;stroke-linejoin:round;stroke-miterlimit:10;}
</style>
<g id="Filled_Icons" class="st0">
	<g class="st1">
		<path d="M8.6,16.5c-1.4,2.5-2.8,5-3.4,6h14.6l3.4-6H8.6z"/>
		<path d="M7.7,3.5L0.5,16.1l3.6,6.4c0,0,5.4-9.5,7.2-12.7C9.8,7.2,8.3,4.6,7.7,3.5z"/>
		<path d="M22.6,15.5l-7.3-13H8.3c0.3,0.5,5.5,9.9,7.3,13H22.6z"/>
	</g>
</g>
<g id="Outline_Icons">
	<g>
		<polyline class="st2" points="4.1,22.5 19.8,22.5 23.2,16.5 7.5,16.5 		"/>
		<path class="st2" d="M16.1,16.5h7.1l-7.8-14H8.3C8.6,3.1,16.1,16.5,16.1,16.5z"/>
		<path class="st2" d="M8.3,2.5L0.5,16.1l3.6,6.4c0,0,7.5-13.1,7.8-13.7"/>
	</g>
</g>
</svg>
