<?xml version="1.0" encoding="utf-8"?>
<!-- Generator: Adobe Illustrator 19.2.0, SVG Export Plug-In . SVG Version: 6.00 Build 0)  -->
<svg version="1.1" id="Layer_1" xmlns="http://www.w3.org/2000/svg" xmlns:xlink="http://www.w3.org/1999/xlink" x="0px" y="0px"
	 viewBox="0 0 24 24" style="enable-background:new 0 0 24 24;" xml:space="preserve">
<style type="text/css">
	.st0{display:none;}
	.st1{display:inline;}
	.st2{fill:none;stroke:#000000;stroke-linecap:round;stroke-linejoin:round;stroke-miterlimit:10;}
	.st3{fill:none;stroke:#000000;stroke-linejoin:round;stroke-miterlimit:10;}
</style>
<g id="Filled_Icons" class="st0">
	<g class="st1">
		<rect x="17" y="11" width="2" height="3"/>
		<rect x="12" y="11" width="2" height="3"/>
		<rect x="5" y="11" width="2" height="3"/>
		<path d="M12,0C5.4,0,0,5.4,0,12s5.4,12,12,12s12-5.4,12-12S18.6,0,12,0z M8,14.5C8,14.8,7.8,15,7.5,15h-3C4.2,15,4,14.8,4,14.5v-4
			C4,10.2,4.2,10,4.5,10H7V7h1V14.5z M10,15H9v-5h1V15z M10,9H9V7h1V9z M15,16.5c0,0.3-0.2,0.5-0.5,0.5H11v-1h3v-1h-2.5
			c-0.3,0-0.5-0.2-0.5-0.5v-4c0-0.3,0.2-0.5,0.5-0.5h3c0.3,0,0.5,0.2,0.5,0.5V16.5z M20,16.5c0,0.3-0.2,0.5-0.5,0.5H16v-1h3v-1h-2.5
			c-0.3,0-0.5-0.2-0.5-0.5v-4c0-0.3,0.2-0.5,0.5-0.5h3c0.3,0,0.5,0.2,0.5,0.5V16.5z"/>
	</g>
</g>
<g id="Outline_Icons">
	<g>
		<circle class="st2" cx="12" cy="12" r="11.5"/>
		<polyline class="st3" points="7.5,7 7.5,14.5 4.5,14.5 4.5,10.5 7.5,10.5 		"/>
		<line class="st3" x1="9.5" y1="10" x2="9.5" y2="15"/>
		<line class="st3" x1="9.5" y1="7" x2="9.5" y2="9"/>
		<polyline class="st3" points="11,16.5 14.5,16.5 14.5,10.5 11.5,10.5 11.5,14.5 14.5,14.5 		"/>
		<polyline class="st3" points="16,16.5 19.5,16.5 19.5,10.5 16.5,10.5 16.5,14.5 19.5,14.5 		"/>
	</g>
</g>
</svg>
