<?xml version="1.0" encoding="utf-8"?>
<!-- Generator: Adobe Illustrator 19.2.0, SVG Export Plug-In . SVG Version: 6.00 Build 0)  -->
<svg version="1.1" id="Layer_1" xmlns="http://www.w3.org/2000/svg" xmlns:xlink="http://www.w3.org/1999/xlink" x="0px" y="0px"
	 viewBox="0 0 24 24" style="enable-background:new 0 0 24 24;" xml:space="preserve">
<style type="text/css">
	.st0{display:none;}
	.st1{display:inline;}
	.st2{fill:none;stroke:#000000;stroke-linecap:round;stroke-linejoin:round;stroke-miterlimit:10;}
</style>
<g id="Filled_Icons" class="st0">
	<g class="st1">
		<path d="M21,10.2L21,10.2c0,0,2.7-4.5-0.6-7.2c-2,0-5.1,3.3-5.1,3.3l0,0c-2.5-0.7-5.3-0.7-7.8,0c0,0-3.1-3.3-5.1-3.3
			c-3.2,2.6-0.7,7-0.6,7.2c-1,1.5-1.6,3.4-1.4,5.7c0.2,3.1,2.8,6.5,6,6.5h9.9c3.1,0,5.7-3.4,6-6.5C22.6,13.6,22,11.7,21,10.2z
			 M15.5,20.5h-8C5.5,20.5,4,18.9,4,17c0-5.9,4.1-3.5,7.5-3.5c3.4,0,7.5-2.4,7.5,3.5C19,18.9,17.4,20.5,15.5,20.5z"/>
		<ellipse cx="15" cy="17" rx="1" ry="1.5"/>
		<ellipse cx="8" cy="17" rx="1" ry="1.5"/>
	</g>
</g>
<g id="Outline_Icons">
	<g>
		<path class="st2" d="M19,17c0-6-4.1-3.5-7.5-3.5C8.1,13.5,4,11.1,4,17c0,1.9,1.6,3.5,3.5,3.5h8C17.4,20.5,19,18.9,19,17z"/>
		<path class="st2" d="M21,10.2L21,10.2c0,0,2.7-4.5-0.6-7.2c-2,0-5.1,3.3-5.1,3.3l0,0c-2.5-0.7-5.3-0.7-7.8,0c0,0-3.1-3.3-5.1-3.3
			c-3.2,2.6-0.7,7-0.6,7.2c-1,1.5-1.6,3.4-1.4,5.7c0.2,3.1,2.8,6.5,6,6.5h9.9c3.1,0,5.7-3.4,6-6.5C22.6,13.6,22,11.7,21,10.2z"/>
		<ellipse class="st2" cx="15" cy="17" rx="1" ry="1.5"/>
		<ellipse class="st2" cx="8" cy="17" rx="1" ry="1.5"/>
	</g>
</g>
</svg>
