<?xml version="1.0" encoding="utf-8"?>
<!-- Generator: Adobe Illustrator 19.2.0, SVG Export Plug-In . SVG Version: 6.00 Build 0)  -->
<svg version="1.1" id="Layer_1" xmlns="http://www.w3.org/2000/svg" xmlns:xlink="http://www.w3.org/1999/xlink" x="0px" y="0px"
	 viewBox="0 0 24 24" style="enable-background:new 0 0 24 24;" xml:space="preserve">
<style type="text/css">
	.st0{display:none;}
	.st1{display:inline;}
	.st2{fill:none;stroke:#000000;stroke-linecap:round;stroke-linejoin:round;stroke-miterlimit:10;}
	.st3{fill:none;stroke:#000000;stroke-linejoin:round;stroke-miterlimit:10;}
</style>
<g id="Filled_Icons" class="st0">
	<path class="st1" d="M12,0C5.4,0,0,5.4,0,12s5.4,12,12,12s12-5.4,12-12S18.6,0,12,0z M11.4,7.9c1.2,0.1,2.3,0.6,3.1,1.4
		c0.8,0.8,1.4,1.9,1.4,3.1c0,0.3-0.2,0.5-0.5,0.5c0,0,0,0,0,0c-0.3,0-0.5-0.2-0.5-0.5c0-0.3-0.1-0.5-0.1-0.8c-0.3-1.1-1.1-2-2.1-2.4
		c-0.4-0.2-0.9-0.3-1.3-0.3c-0.3,0-0.5-0.3-0.5-0.5C10.9,8.1,11.2,7.9,11.4,7.9z M17.2,17.4c-0.4,1-1.6,2.2-2.9,2.2
		c-2.5-0.4-7.8-3.7-10.2-9.6c-0.3-0.8-0.3-1.6,0-2.3C4.4,7,5.1,6.4,6,6.2C6.3,6,6.7,6,7.1,6.2c0.8,0.3,2.5,2.7,2.6,3.5
		c0,0.8-0.6,1.2-0.9,1.4c-0.3,0.2-0.4,0.4-0.2,1c0.5,1.2,1.5,2.1,2.8,2.7c0.3,0.1,0.4,0.3,0.7-0.1c0.7-1.1,1.7-1.2,2.9-0.4l0.2,0.1
		c0.4,0.2,0.7,0.5,1,0.8l0.2,0.1C16.9,15.7,17.6,16.3,17.2,17.4z M17.5,12.6c-0.2,0-0.4-0.2-0.5-0.4c-0.5-2.6-2.7-4.8-5.2-5.3
		c-0.3-0.1-0.4-0.3-0.4-0.6s0.3-0.4,0.6-0.4c3,0.6,5.4,3.1,6,6.1C18,12.3,17.8,12.6,17.5,12.6z M19.4,12.1c-0.2,0-0.4-0.1-0.5-0.4
		c-0.9-3.2-3.6-5.9-6.8-6.8c-0.3-0.1-0.4-0.3-0.4-0.6c0.1-0.3,0.3-0.4,0.6-0.4c3.6,1,6.5,3.9,7.5,7.5C20,11.8,19.7,12.1,19.4,12.1z"
		/>
</g>
<g id="Outline_Icons">
	<g>
		<circle class="st2" cx="12" cy="12" r="11.5"/>
		<g>
			<path id="path17-6_1_" class="st3" d="M15.9,15.6c-0.4-0.3-0.8-0.6-1.2-0.9c-0.8-0.6-1.6-0.6-2.2,0.3c-0.3,0.5-0.8,0.5-1.3,0.3
				c-1.4-0.6-2.4-1.6-3.1-3c-0.3-0.6-0.3-1.2,0.4-1.6c0.3-0.2,0.7-0.5,0.7-1c0-0.7-1.6-2.9-2.3-3.1c-0.3-0.1-0.5-0.1-0.8,0
				C4.6,7.1,4,8.3,4.6,9.8c1.8,4.3,4.8,7.3,9.1,9.1c0.2,0.1,0.5,0.1,0.6,0.2c1,0,2.1-0.9,2.4-1.8C17.1,16.4,16.4,16,15.9,15.6
				L15.9,15.6z"/>
			<path class="st2" d="M19.4,11.6c-0.9-3.4-3.7-6.2-7.1-7.2"/>
			<path class="st2" d="M11.4,8.4c2.1,0.1,3.9,1.9,4,4"/>
			<path class="st2" d="M17.5,12.1c-0.5-2.8-2.8-5.1-5.6-5.7"/>
			<path class="st2" d="M15.5,12.4c-0.1-2.1-1.9-3.9-4-4"/>
		</g>
	</g>
</g>
</svg>
