<?xml version="1.0" encoding="utf-8"?>
<!-- Generator: Adobe Illustrator 19.2.0, SVG Export Plug-In . SVG Version: 6.00 Build 0)  -->
<svg version="1.1" id="Layer_1" xmlns="http://www.w3.org/2000/svg" xmlns:xlink="http://www.w3.org/1999/xlink" x="0px" y="0px"
	 viewBox="0 0 24 24" style="enable-background:new 0 0 24 24;" xml:space="preserve">
<style type="text/css">
	.st0{display:none;}
	.st1{display:inline;}
	.st2{fill:none;stroke:#000000;stroke-linejoin:round;stroke-miterlimit:10;}
</style>
<g id="Filled_Icons" class="st0">
	<path class="st1" d="M12.5,15.5l2.1-1.5c0.4,0.2,0.8,0.4,1.3,0.4c1.4,0,2.5-1.1,2.5-2.5s-1.1-2.5-2.5-2.5c-1.4,0-2.5,1.1-2.5,2.5
		c0,0.2,0,0.3,0,0.5l-1,0.7v-4l2.1-1.5C15,7.8,15.4,8,15.9,8c1.4,0,2.5-1.1,2.5-2.5S17.3,3,15.9,3c-1.4,0-2.5,1.1-2.5,2.5
		c0,0.2,0,0.3,0,0.5l-1,0.7V0h-2v3.6l-1-0.7c0-0.1,0-0.3,0-0.4C9.6,1.1,8.5,0,7.1,0S4.6,1.1,4.6,2.5S5.7,5,7.1,5
		c0.5,0,1-0.1,1.3-0.4l2.1,1.5v4l-1-0.7c0-0.2,0-0.3,0-0.5c0-1.4-1.1-2.5-2.5-2.5S4.6,7.5,4.6,8.9s1.1,2.5,2.5,2.5
		c0.5,0,0.9-0.1,1.3-0.4l2.1,1.5V17l-1-0.7c0-0.2,0-0.3,0-0.5c0-1.4-1.1-2.5-2.5-2.5s-2.5,1.1-2.5,2.5s1.1,2.5,2.5,2.5
		c0.5,0,0.9-0.1,1.3-0.4l2.1,1.5V24h2v-1.5l2.1-1.5c0.4,0.2,0.8,0.4,1.3,0.4c1.4,0,2.5-1.1,2.5-2.5s-1.1-2.5-2.5-2.5
		c-1.4,0-2.5,1.1-2.5,2.5c0,0.2,0,0.3,0,0.5l-1,0.7C12.5,20,12.5,15.5,12.5,15.5z M15.9,10.9c0.6,0,1,0.4,1,1s-0.4,1-1,1
		c-0.6,0-1-0.4-1-1S15.4,10.9,15.9,10.9z M15.9,4.5c0.6,0,1,0.4,1,1s-0.4,1-1,1c-0.6,0-1-0.4-1-1S15.4,4.5,15.9,4.5z M7.1,1.5
		c0.6,0,1,0.4,1,1s-0.4,1-1,1s-1-0.4-1-1S6.5,1.5,7.1,1.5z M7.1,7.9c0.6,0,1,0.4,1,1s-0.4,1-1,1s-1-0.4-1-1S6.5,7.9,7.1,7.9z
		 M7.1,14.9c0.6,0,1,0.4,1,1s-0.4,1-1,1s-1-0.4-1-1S6.5,14.9,7.1,14.9z M15.9,17.9c0.6,0,1,0.4,1,1s-0.4,1-1,1c-0.6,0-1-0.4-1-1
		S15.4,17.9,15.9,17.9z"/>
</g>
<g id="Outline_Icons">
	<g>
		<line class="st2" x1="11.5" y1="0" x2="11.5" y2="24"/>
		<line class="st2" x1="11.5" y1="8.6" x2="14.7" y2="6.3"/>
		<circle class="st2" cx="15.9" cy="5.5" r="1.5"/>
		<line class="st2" x1="11.5" y1="15" x2="14.7" y2="12.7"/>
		<circle class="st2" cx="15.9" cy="11.9" r="1.5"/>
		<line class="st2" x1="11.5" y1="22" x2="14.7" y2="19.7"/>
		<circle class="st2" cx="15.9" cy="18.9" r="1.5"/>
		<line class="st2" x1="11.5" y1="5.6" x2="8.3" y2="3.3"/>
		<circle class="st2" cx="7.1" cy="2.5" r="1.5"/>
		<line class="st2" x1="11.5" y1="12" x2="8.3" y2="9.7"/>
		<circle class="st2" cx="7.1" cy="8.9" r="1.5"/>
		<line class="st2" x1="11.5" y1="19" x2="8.3" y2="16.7"/>
		<circle class="st2" cx="7.1" cy="15.9" r="1.5"/>
	</g>
</g>
</svg>
