<?xml version="1.0" encoding="utf-8"?>
<!-- Generator: Adobe Illustrator 19.2.0, SVG Export Plug-In . SVG Version: 6.00 Build 0)  -->
<svg version="1.1" id="Layer_1" xmlns="http://www.w3.org/2000/svg" xmlns:xlink="http://www.w3.org/1999/xlink" x="0px" y="0px"
	 viewBox="0 0 24 24" style="enable-background:new 0 0 24 24;" xml:space="preserve">
<style type="text/css">
	.st0{display:none;}
	.st1{display:inline;}
	.st2{fill:none;stroke:#000000;stroke-linecap:round;stroke-linejoin:round;stroke-miterlimit:10;}
</style>
<g id="Filled_Icons" class="st0">
	<path class="st1" d="M20.4,10.5L23.8,5c0.2-0.3,0.2-0.7,0-1c-0.2-0.3-0.5-0.5-0.9-0.5h-6c-0.4,0-0.8,0.3-1,0.7l-3.6,12.6L8.9,4.2
		C8.8,3.7,8.2,3.4,7.7,3.5C7.2,3.7,6.8,4.2,7,4.8L7.9,8l-2.4,8.8L2,4.2C1.8,3.7,1.3,3.4,0.7,3.5C0.2,3.7-0.1,4.2,0,4.8l4.5,16.1
		c0.1,0.4,0.5,0.7,1,0.7s0.8-0.3,1-0.7l2.5-9.1l2.5,9.1c0.1,0.4,0.5,0.7,1,0.7h0c0.4,0,0.8-0.3,1-0.7l4.3-15.3h3.4l-3.2,5
		c-0.2,0.3-0.2,0.6-0.1,1c0.1,0.3,0.4,0.5,0.8,0.6c0.1,0,3.3,0.5,3.3,4.3c0,2-1.1,2.9-2.1,3.1c-0.9,0.2-2.2-0.2-2.9-1.9
		c-0.2-0.5-0.8-0.8-1.3-0.5c-0.5,0.2-0.8,0.8-0.5,1.3c1.1,2.6,3.4,3.4,5.1,3.1c1.8-0.4,3.7-2.1,3.7-5.1C24,13,22,11.2,20.4,10.5z"/>
</g>
<g id="Outline_Icons">
	<g>
		<polyline class="st2" points="0.5,4.5 5,20.6 8.5,8 		"/>
		<path class="st2" d="M7.5,4.5L12,20.6l4.5-16.1h6l-4.2,6.6c0,0,4.2,0.6,4.2,5.3c0,4.6-5.2,5.8-6.9,1.6"/>
	</g>
</g>
</svg>
