<?xml version="1.0" encoding="utf-8"?>
<!-- Generator: Adobe Illustrator 19.2.0, SVG Export Plug-In . SVG Version: 6.00 Build 0)  -->
<svg version="1.1" id="Layer_1" xmlns="http://www.w3.org/2000/svg" xmlns:xlink="http://www.w3.org/1999/xlink" x="0px" y="0px"
	 viewBox="0 0 24 24" style="enable-background:new 0 0 24 24;" xml:space="preserve">
<style type="text/css">
	.st0{display:none;}
	.st1{display:inline;}
	.st2{fill:none;stroke:#000000;stroke-linejoin:round;stroke-miterlimit:10;}
</style>
<g id="Filled_Icons" class="st0">
	<path class="st1" d="M23.9,17.2c0.1-0.2,0.1-0.4,0.1-0.5c0.2-2.9-3.9-14.9-11.7-14.9h-0.7C5.4,1.8,0,11,0,16.5
		c0,0.3,0.1,0.6,0.2,0.9C2.1,20.9,7.8,22,12,22C17.7,22,22.8,19.7,23.9,17.2z M14.6,20.9C13.8,21,12.9,21,12,21
		c-0.7,0-1.5,0-2.3-0.1c-3-0.3-5.4-1-7.1-2.4C2.3,18.3,2,18,1.7,17.7c0.5-1.7,2.7-5.6,4.4-6.1c0.2-0.1,0.3-0.1,0.5-0.1
		c0.8,0,1.4,0.7,2,1.3c0.5,0.5,0.9,1,1.3,1c0.5,0,1.8-1.7,2.6-2.6c1-1.3,1.7-2.1,2.2-2.3c0.3-0.1,0.6-0.1,0.9,0.1
		c1.1,0.5,3.8,3,6.3,7.6c0.2,0.4,0.4,0.8,0.5,1.2C21.3,18.9,18.6,20.4,14.6,20.9z"/>
</g>
<g id="Outline_Icons">
	<g>
		<path class="st2" d="M2.4,18.9c2.1,1.6,4.8,2.2,7.4,2.5c1.6,0.1,3.3,0.1,4.9,0c5.5-0.6,8.7-3.4,8.9-4.7c0-0.4,0-0.7-0.1-1
			c-2-9.7-7.6-13.3-11.1-13.3h-0.7C6,2.3,0.5,11,0.5,16.5C0.5,17.3,1.7,18.4,2.4,18.9z"/>
		<path class="st2" d="M2.4,18.9C2,18.3,2.1,18.3,2.2,18c0.4-1.5,2.6-5.5,4.1-6c1.5-0.5,2.2,2.3,3.7,2.2c1.3-0.1,3.9-4.6,4.9-5
			c0.2-0.1,0.3,0,0.5,0c1,0.5,3.6,2.9,6.1,7.4c0.4,0.7,0.7,1.4,0.4,2"/>
	</g>
</g>
</svg>
