<?xml version="1.0" encoding="utf-8"?>
<!-- Generator: Adobe Illustrator 19.2.0, SVG Export Plug-In . SVG Version: 6.00 Build 0)  -->
<svg version="1.1" id="Layer_1" xmlns="http://www.w3.org/2000/svg" xmlns:xlink="http://www.w3.org/1999/xlink" x="0px" y="0px"
	 viewBox="0 0 24 24" style="enable-background:new 0 0 24 24;" xml:space="preserve">
<style type="text/css">
	.st0{display:none;}
	.st1{display:inline;}
	.st2{fill:none;stroke:#000000;stroke-linejoin:round;stroke-miterlimit:10;}
	.st3{fill:none;stroke:#000000;stroke-linecap:round;stroke-linejoin:round;stroke-miterlimit:10;}
</style>
<g id="Filled_Icons" class="st0">
	<g class="st1">
		<path d="M13.5,2.5c-3.7,0-7,2-8.7,5.1l2.5,1.7c1.2-2.2,3.5-3.7,6.2-3.7c3.9,0,7,3.1,7,7c0,3.9-3.1,7-7,7c-2.7,0-5-1.5-6.2-3.7
			l-2.5,1.7c1.7,3,5,5.1,8.7,5.1c5.5,0,10-4.5,10-10C23.5,7,19,2.5,13.5,2.5z"/>
		<path d="M9.8,12.1l-9-6C0.6,6,0.4,6,0.3,6.1C0.1,6.1,0,6.3,0,6.5v12c0,0.2,0.1,0.4,0.3,0.4C0.3,19,0.4,19,0.5,19
			c0.1,0,0.2,0,0.3-0.1l9-6c0.1-0.1,0.2-0.2,0.2-0.4S9.9,12.2,9.8,12.1z"/>
	</g>
</g>
<g id="Outline_Icons">
	<g>
		<polygon class="st2" points="0.5,6.5 0.5,18.5 9.5,12.5 		"/>
		<path class="st3" d="M8,8.1c1.3-1.6,3.3-2.6,5.5-2.6c3.9,0,7,3.1,7,7c0,3.9-3.1,7-7,7c-2.2,0-4.2-1-5.5-2.6"/>
		<path class="st3" d="M5,7.2c1.8-2.8,4.9-4.7,8.5-4.7c5.5,0,10,4.5,10,10c0,5.5-4.5,10-10,10c-3.6,0-6.7-1.9-8.5-4.7"/>
	</g>
</g>
</svg>
