<?xml version="1.0" encoding="utf-8"?>
<!-- Generator: Adobe Illustrator 19.2.0, SVG Export Plug-In . SVG Version: 6.00 Build 0)  -->
<svg version="1.1" id="Layer_1" xmlns="http://www.w3.org/2000/svg" xmlns:xlink="http://www.w3.org/1999/xlink" x="0px" y="0px"
	 viewBox="0 0 24 24" style="enable-background:new 0 0 24 24;" xml:space="preserve">
<style type="text/css">
	.st0{display:none;}
	.st1{display:inline;}
	.st2{fill:none;stroke:#000000;stroke-linecap:round;stroke-linejoin:round;stroke-miterlimit:10;}
	.st3{fill:none;stroke:#000000;stroke-linejoin:round;stroke-miterlimit:10;}
</style>
<g id="Filled_Icons" class="st0">
	<path class="st1" d="M12,0C5.4,0,0,5.4,0,12s5.4,12,12,12s12-5.4,12-12S18.6,0,12,0z M8.9,6.3c1,0,1.8,0.8,1.8,1.8
		c0,1-0.8,1.8-1.8,1.8c-1,0-1.8-0.8-1.8-1.8C7.1,7.1,7.9,6.3,8.9,6.3z M19.6,13c-1.4-0.4-2.9-0.7-4.6-0.7c-4-0.1-6.1,1.2-7.9,3
		c-1.1,1.1-2.5,0.2-2-0.9c0.6-1.4,3.8-2.6,6.2-2.9c2.9-0.3,6.3,0.1,8.5,1.3C20.1,12.9,20,13.1,19.6,13z"/>
</g>
<g id="Outline_Icons">
	<g>
		<circle class="st2" cx="12" cy="12" r="11.5"/>
		<path class="st3" d="M8.9,6.3c1,0,1.8,0.8,1.8,1.8c0,1-0.8,1.8-1.8,1.8c-1,0-1.8-0.8-1.8-1.8C7.1,7.1,7.9,6.3,8.9,6.3L8.9,6.3z
			 M11.3,11.4c2.9-0.3,6.3,0.1,8.5,1.3c0.3,0.2,0.2,0.4-0.2,0.3c-1.4-0.4-2.9-0.7-4.6-0.7c-4-0.1-6.1,1.2-7.9,3
			c-1.1,1.1-2.5,0.2-2-0.9C5.7,12.9,8.9,11.7,11.3,11.4L11.3,11.4z"/>
	</g>
</g>
</svg>
