<?xml version="1.0" encoding="utf-8"?>
<!-- Generator: Adobe Illustrator 19.2.0, SVG Export Plug-In . SVG Version: 6.00 Build 0)  -->
<svg version="1.1" id="Layer_1" xmlns="http://www.w3.org/2000/svg" xmlns:xlink="http://www.w3.org/1999/xlink" x="0px" y="0px"
	 viewBox="0 0 24 24" style="enable-background:new 0 0 24 24;" xml:space="preserve">
<style type="text/css">
	.st0{display:none;}
	.st1{display:inline;}
	.st2{fill:none;stroke:#000000;stroke-linecap:round;stroke-linejoin:round;stroke-miterlimit:10;}
	.st3{fill:none;stroke:#000000;stroke-linejoin:round;stroke-miterlimit:10;}
</style>
<g id="Filled_Icons" class="st0">
	<g class="st1">
		<polygon points="15.3,9.1 18.8,7.8 12.7,5.9 		"/>
		<polygon points="16,10 16.8,10.9 18.5,9 		"/>
		<polygon points="16.1,11.6 15,10.3 9.9,12.3 11.4,16.6 		"/>
		<polygon points="9,11.6 10.2,6.8 4.6,13.2 		"/>
		<polygon points="10.1,11.1 14.4,9.5 11.5,6 		"/>
		<polygon points="17.4,11.7 19,13.6 19.6,9.3 		"/>
		<path d="M12,0C5.4,0,0,5.4,0,12s5.4,12,12,12s12-5.4,12-12S18.6,0,12,0z M19.8,14.9c0,0.2-0.2,0.3-0.3,0.4L11.4,18
			c-0.1,0-0.1,0-0.2,0c-0.1,0-0.1,0-0.2,0l-8.3-3.1c-0.2-0.1-0.3-0.2-0.3-0.3c0-0.2,0-0.3,0.1-0.5l8.3-9.6c0.1-0.1,0.3-0.2,0.5-0.1
			l9.1,2.9c0.2,0.1,0.4,0.3,0.3,0.6L19.8,14.9z"/>
		<polygon points="16.7,12.4 12.9,16.4 18.5,14.6 		"/>
		<polygon points="9,12.6 4.3,14.4 10.4,16.7 		"/>
	</g>
</g>
<g id="Outline_Icons">
	<g>
		<circle class="st2" cx="12" cy="12" r="11.5"/>
		<line class="st3" x1="2.9" y1="14.4" x2="20.4" y2="7.8"/>
		<polygon class="st3" points="20.4,7.8 19.3,14.8 11.2,17.5 2.9,14.4 11.2,4.9 		"/>
		<line class="st3" x1="11.2" y1="4.9" x2="19.3" y2="14.8"/>
		<polyline class="st3" points="11.2,4.9 9.3,12.1 11.2,17.5 		"/>
		<line class="st3" x1="11.2" y1="17.5" x2="20.4" y2="7.8"/>
	</g>
</g>
</svg>
