<?xml version="1.0" encoding="utf-8"?>
<!-- Generator: Adobe Illustrator 19.2.0, SVG Export Plug-In . SVG Version: 6.00 Build 0)  -->
<svg version="1.1" id="Layer_1" xmlns="http://www.w3.org/2000/svg" xmlns:xlink="http://www.w3.org/1999/xlink" x="0px" y="0px"
	 viewBox="0 0 24 24" style="enable-background:new 0 0 24 24;" xml:space="preserve">
<style type="text/css">
	.st0{display:none;}
	.st1{display:inline;}
	.st2{fill:none;stroke:#000000;stroke-linejoin:round;stroke-miterlimit:10;}
</style>
<g id="Filled_Icons" class="st0">
	<g class="st1">
		<path d="M12.5,8.3C11.4,8,9.6,7.8,8,9C5.3,11,5.8,13,5.8,13s0.1,3.2,3.9,3.2c4.2,0,4.8-3.8,4.8-3.8V3.6c4.1,2,5.4,3.3,8.6,3.2
			c0,0,0.4-0.1,0.4,0.7c0,0.4-0.2,0.9-0.6,1.4c0,0-0.8,1.2-2.5,1.8c0.1,0.4,0.1,0.9,0.1,1.3c0,5.3-4.5,9.6-10,9.6
			c-5.5,0-10-4.3-10-9.6c0-5.3,4.5-9.6,10-9.6c0.7,0,1.4,0,2,0.1L12.5,8.3L12.5,8.3z"/>
	</g>
</g>
<g id="Outline_Icons">
	<g>
		<path class="st2" d="M12.5,8.3C11.4,8,9.6,7.8,8,9C5.3,11,5.8,13,5.8,13s0.1,3.2,3.9,3.2c4.2,0,4.8-3.8,4.8-3.8V3.6
			c4.1,2,5.4,3.3,8.6,3.2c0,0,0.4-0.1,0.4,0.7c0,0.4-0.2,0.9-0.6,1.4c0,0-0.8,1.2-2.5,1.8c0.1,0.4,0.1,0.9,0.1,1.3
			c0,5.3-4.5,9.6-10,9.6c-5.5,0-10-4.3-10-9.6c0-5.3,4.5-9.6,10-9.6c0.7,0,1.4,0,2,0.1L12.5,8.3L12.5,8.3z"/>
	</g>
</g>
</svg>
