<?xml version="1.0" encoding="utf-8"?>
<!-- Generator: Adobe Illustrator 19.2.0, SVG Export Plug-In . SVG Version: 6.00 Build 0)  -->
<svg version="1.1" id="Layer_1" xmlns="http://www.w3.org/2000/svg" xmlns:xlink="http://www.w3.org/1999/xlink" x="0px" y="0px"
	 viewBox="0 0 24 24" style="enable-background:new 0 0 24 24;" xml:space="preserve">
<style type="text/css">
	.st0{display:none;}
	.st1{display:inline;}
	.st2{fill:none;stroke:#000000;stroke-linecap:round;stroke-linejoin:round;stroke-miterlimit:10;}
	.st3{fill:none;stroke:#000000;stroke-linejoin:round;stroke-miterlimit:10;}
</style>
<g id="Filled_Icons" class="st0">
	<g class="st1">
		<path d="M12,0C5.4,0,0,5.4,0,12s5.4,12,12,12s12-5.4,12-12S18.6,0,12,0z M12,21c-5,0-9-4-9-9s4-9,9-9s9,4,9,9S17,21,12,21z"/>
		<circle cx="12" cy="12" r="2"/>
		<path d="M12.9,8.7C14.1,9,15,10,15.3,11.1c0.1,0.2,0.3,0.4,0.5,0.4h0l2.3,0c0.1,0,0.3-0.1,0.4-0.2c0.1-0.1,0.1-0.3,0.1-0.4
			c-0.4-2.8-2.6-5-5.4-5.5c-0.1,0-0.3,0-0.4,0.1c-0.1,0.1-0.2,0.2-0.2,0.4l0,2.3C12.5,8.5,12.7,8.7,12.9,8.7z"/>
		<path d="M6,11.5h2.3c0.2,0,0.4-0.2,0.5-0.4C9,10,10,9,11.1,8.7c0.2-0.1,0.4-0.3,0.4-0.5V6c0-0.1-0.1-0.3-0.2-0.4
			c-0.1-0.1-0.3-0.1-0.4-0.1c-2.8,0.4-5,2.7-5.5,5.5c0,0.1,0,0.3,0.1,0.4C5.7,11.4,5.8,11.5,6,11.5z"/>
		<path d="M18,12.5l-2.3,0c-0.2,0-0.4,0.2-0.5,0.4C15,14,14,15,12.9,15.3c-0.2,0.1-0.4,0.3-0.4,0.5V18c0,0.1,0.1,0.3,0.2,0.4
			c0.1,0.1,0.2,0.1,0.3,0.1c1.5,0,4.9-1.7,5.5-5.5c0-0.1,0-0.3-0.1-0.4C18.3,12.6,18.2,12.5,18,12.5z"/>
		<path d="M11.1,15.3C10,15,9,14,8.7,12.9c-0.1-0.2-0.3-0.4-0.5-0.4h0l-2.3,0c-0.1,0-0.3,0.1-0.4,0.2c-0.1,0.1-0.1,0.3-0.1,0.4
			c0.6,3.6,4,5.5,5.5,5.5c0.1,0,0.2,0,0.3-0.1c0.1-0.1,0.2-0.2,0.2-0.4v-2.3C11.5,15.5,11.4,15.3,11.1,15.3z"/>
	</g>
</g>
<g id="Outline_Icons">
	<g>
		<circle class="st2" cx="12" cy="12" r="11.5"/>
		<circle class="st2" cx="12" cy="12" r="8.5"/>
		<circle class="st2" cx="12" cy="12" r="1.5"/>
		<path class="st3" d="M13,8.3c1.3,0.3,2.4,1.4,2.8,2.8l2.3,0c-0.4-2.6-2.5-4.6-5-5L13,8.3z M11,6c-2.6,0.4-4.6,2.5-5,5h2.3
			C8.6,9.8,9.7,8.6,11,8.3V6z M13,18c2.6-0.4,4.6-2.5,5-5l-2.3,0c-0.3,1.3-1.4,2.4-2.7,2.8L13,18z M11,15.7
			c-1.3-0.3-2.4-1.4-2.8-2.8L6,13c0.4,2.6,2.5,4.6,5,5V15.7z"/>
	</g>
</g>
</svg>
