<?xml version="1.0" encoding="utf-8"?>
<!-- Generator: Adobe Illustrator 19.2.0, SVG Export Plug-In . SVG Version: 6.00 Build 0)  -->
<svg version="1.1" id="Layer_1" xmlns="http://www.w3.org/2000/svg" xmlns:xlink="http://www.w3.org/1999/xlink" x="0px" y="0px"
	 viewBox="0 0 24 24" style="enable-background:new 0 0 24 24;" xml:space="preserve">
<style type="text/css">
	.st0{display:none;}
	.st1{display:inline;}
	.st2{fill:none;stroke:#000000;stroke-linecap:round;stroke-linejoin:round;stroke-miterlimit:10;}
</style>
<g id="Filled_Icons" class="st0">
	<path class="st1" d="M12,0C5.4,0,0,5.4,0,12s5.4,12,12,12s12-5.4,12-12S18.6,0,12,0z M13.8,18h-1.2C10.5,18,8,16.2,8,13.8V6
		c0-0.3,0.2-0.5,0.5-0.5S9,5.7,9,6v7.8c0,1.6,1.8,3.2,3.6,3.2h1.2c1.4,0,2.5-1.6,2.5-3s-1.1-3-2.5-3H10c-0.3,0-0.5-0.2-0.5-0.5
		S9.7,10,10,10h3.8c2,0,3.5,2.1,3.5,4S15.7,18,13.8,18z"/>
</g>
<g id="Outline_Icons">
	<g>
		<circle class="st2" cx="12" cy="12" r="11.5"/>
		<path class="st2" d="M8.5,6v8c0,2,2.1,3.5,4.1,3.5h1.2c1.6,0,3-1.9,3-3.5c0-1.6-1.3-3.5-3-3.5H10"/>
	</g>
</g>
</svg>
