<?xml version="1.0" encoding="utf-8"?>
<!-- Generator: Adobe Illustrator 19.2.0, SVG Export Plug-In . SVG Version: 6.00 Build 0)  -->
<svg version="1.1" id="Layer_1" xmlns="http://www.w3.org/2000/svg" xmlns:xlink="http://www.w3.org/1999/xlink" x="0px" y="0px"
	 viewBox="0 0 24 24" style="enable-background:new 0 0 24 24;" xml:space="preserve">
<style type="text/css">
	.st0{display:none;}
	.st1{display:inline;}
	.st2{fill:none;stroke:#000000;stroke-linecap:round;stroke-linejoin:round;stroke-miterlimit:10;}
</style>
<g id="Filled_Icons" class="st0">
	<path class="st1" d="M12,0C5.4,0,0,5.4,0,12s5.4,12,12,12s12-5.4,12-12S18.6,0,12,0z M6.5,8H13c0.3,0,0.5,0.2,0.5,0.5S13.2,9,13,9
		H6.5C6.2,9,6,8.8,6,8.5S6.2,8,6.5,8z M18.9,15.9c-0.1,0-0.2,0.1-0.2,0.1c-0.2,0-0.3-0.1-0.4-0.3l-1-1.7h-2.8
		c-0.3,0-0.5-0.2-0.5-0.5s0.2-0.5,0.5-0.5h2.3l-2-3.5l-3.4,6.2C11.2,15.9,11,16,10.8,16H4.7c-0.2,0-0.3-0.1-0.4-0.2
		c-0.1-0.1-0.1-0.3,0-0.5L5.7,12H4.3c-0.3,0-0.5-0.2-0.5-0.5S4.1,11,4.3,11h6.5c0.3,0,0.5,0.2,0.5,0.5S11.1,12,10.8,12h-4l-1.3,3h5
		l3.7-6.7C14.3,8.1,14.5,8,14.7,8c0,0,0,0,0,0c0.2,0,0.3,0.1,0.4,0.3l4,7C19.2,15.5,19.2,15.8,18.9,15.9z"/>
</g>
<g id="Outline_Icons">
	<g>
		<line class="st2" x1="6.5" y1="8.5" x2="13" y2="8.5"/>
		<line class="st2" x1="4.3" y1="11.5" x2="10.8" y2="11.5"/>
		<polyline class="st2" points="6.4,11.5 4.7,15.5 10.8,15.5 14.7,8.5 18.7,15.5 		"/>
		<line class="st2" x1="17.5" y1="13.5" x2="14.4" y2="13.5"/>
		<circle class="st2" cx="12" cy="12" r="11.5"/>
	</g>
</g>
</svg>
