<?xml version="1.0" encoding="utf-8"?>
<!-- Generator: Adobe Illustrator 19.2.0, SVG Export Plug-In . SVG Version: 6.00 Build 0)  -->
<svg version="1.1" id="Layer_1" xmlns="http://www.w3.org/2000/svg" xmlns:xlink="http://www.w3.org/1999/xlink" x="0px" y="0px"
	 viewBox="0 0 24 24" style="enable-background:new 0 0 24 24;" xml:space="preserve">
<style type="text/css">
	.st0{display:none;}
	.st1{display:inline;}
	.st2{fill:none;stroke:#000000;stroke-linejoin:round;stroke-miterlimit:10;}
	.st3{fill:none;stroke:#000000;stroke-linecap:round;stroke-linejoin:round;stroke-miterlimit:10;}
</style>
<g id="Filled_Icons" class="st0">
	<g class="st1">
		<g>
			<path d="M19.6,12.9c-0.2-0.2-0.4-0.3-0.6-0.5c-0.4-0.3-0.8-0.4-1.2-0.6c-0.4-0.1-0.5-0.2-0.4-0.7c0.1-0.3,0.2-0.6,0.2-1
				c0.2-1.7-1.1-2.1-2.7-2c-0.7,0.1-1.3,0.2-1.9,0.4c-0.4,0.1-1.2,0.6-1.3,0.3c-0.1-0.1,0-0.3,0.1-0.5c0.2-0.9,0.3-2.1-0.6-2.7
				c-0.6-0.4-1.8-0.3-2.4-0.1C5.1,7-0.5,12.3,0.7,16.5c0.3,1,0.8,1.7,1.3,2.2c0.9,0.9,2,1.5,3.2,2c-0.8-0.4-1.4-0.9-1.8-1.6
				c-0.9-1.4-0.6-2.9,0.3-4c0.8-1,2.1-1.7,3.3-2.1c2.5-0.8,5.5-0.8,7.8,0.6c1.5,0.9,2.4,2.7,1.5,4.4c-0.9,1.8-2.9,2.9-4.8,3.3
				c-0.7,0.1-1.3,0.2-2,0.2c1.1,0,2.3,0,3.4-0.2c2.6-0.5,5.1-1.7,6.7-3.7C20.7,16.1,21,14.1,19.6,12.9z"/>
		</g>
		<g>
			<path d="M9.2,14.7c-0.1,0.6,0.8,0.6,0.9,0.1c0.1-0.3-0.1-0.5-0.4-0.5C9.4,14.3,9.2,14.5,9.2,14.7L9.2,14.7z"/>
		</g>
		<g>
			<path d="M8.4,16.8C8.6,16,8,15.5,7.3,15.5c-0.7,0.1-1.2,0.5-1.3,1.1c-0.2,0.7,0.4,1.3,1.1,1.2C7.7,17.8,8.3,17.3,8.4,16.8
				L8.4,16.8z"/>
		</g>
		<g>
			<path d="M23.4,10.7C23.4,10.7,23.4,10.7,23.4,10.7c-0.4-0.1-0.5-0.3-0.5-0.6C23,9.8,23,9.5,23,9.2c0-3.3-2.7-6-6-6
				c-0.6,0-1.3,0.1-1.9,0.3c-0.3,0.1-0.5-0.1-0.6-0.3c-0.1-0.3,0.1-0.5,0.3-0.6c0.7-0.2,1.4-0.3,2.2-0.3c3.9,0,7,3.1,7,7
				c0,0.4,0,0.8-0.1,1.1C23.9,10.6,23.7,10.7,23.4,10.7z"/>
		</g>
		<g>
			<path d="M20.3,10.2c-0.1,0-0.1,0-0.2,0c-0.3-0.1-0.4-0.4-0.3-0.6c0.1-0.3,0.1-0.5,0.1-0.8c0-1.4-1.1-2.5-2.5-2.5
				c-0.3,0-0.6,0-0.8,0.1c-0.3,0.1-0.5,0-0.6-0.3c-0.1-0.3,0-0.5,0.3-0.6c0.4-0.1,0.8-0.2,1.2-0.2c1.9,0,3.5,1.6,3.5,3.5
				c0,0.4-0.1,0.8-0.2,1.1C20.7,10.1,20.5,10.2,20.3,10.2z"/>
		</g>
	</g>
</g>
<g id="Outline_Icons">
	<g>
		<path class="st2" d="M9.2,14.7c-0.1,0.6,0.8,0.6,0.9,0.1c0.1-0.3-0.1-0.5-0.4-0.5C9.4,14.3,9.2,14.5,9.2,14.7L9.2,14.7z M8.4,16.8
			C8.6,16,8,15.5,7.3,15.5c-0.7,0.1-1.2,0.5-1.3,1.1c-0.2,0.7,0.4,1.3,1.1,1.2C7.7,17.8,8.3,17.3,8.4,16.8L8.4,16.8z M19,12.4
			c-0.4-0.3-0.8-0.4-1.2-0.6c-0.4-0.1-0.5-0.2-0.4-0.7c0.1-0.3,0.2-0.6,0.2-1c0.2-1.7-1.1-2.1-2.7-2c-0.7,0.1-1.3,0.2-1.9,0.4
			c-0.4,0.1-1.2,0.6-1.3,0.3c-0.1-0.1,0-0.3,0.1-0.5c0.2-0.9,0.3-2.1-0.6-2.7c-0.6-0.4-1.8-0.3-2.4-0.1C5.1,7-0.5,12.3,0.7,16.5
			c0.3,1,0.8,1.7,1.3,2.2C3.5,20.2,5.9,21,8,21.4c1.6,0.2,3.3,0.2,4.9-0.1c2.6-0.5,5.1-1.7,6.7-3.7c1.1-1.4,1.4-3.4,0-4.6
			C19.4,12.7,19.2,12.5,19,12.4L19,12.4z"/>
		<path class="st3" d="M15,3c0.6-0.2,1.3-0.3,2-0.3c3.6,0,6.5,2.9,6.5,6.5c0,0.4,0,0.7-0.1,1"/>
		<path class="st3" d="M16.4,5.9c0.3-0.1,0.7-0.2,1-0.2c1.7,0,3,1.3,3,3c0,0.3-0.1,0.6-0.2,0.9"/>
		<path class="st2" d="M14.8,13.5c-2.3-1.4-5.3-1.5-7.8-0.6c-1.2,0.4-2.5,1.2-3.3,2.1c-0.9,1.1-1.3,2.6-0.3,4
			c1.4,2.1,4.6,2.4,8.2,2.2c1.9-0.4,4-1.5,4.8-3.3C17.1,16.2,16.3,14.5,14.8,13.5L14.8,13.5z"/>
	</g>
</g>
</svg>
