<?xml version="1.0" encoding="utf-8"?>
<!-- Generator: Adobe Illustrator 19.2.0, SVG Export Plug-In . SVG Version: 6.00 Build 0)  -->
<svg version="1.1" id="Layer_1" xmlns="http://www.w3.org/2000/svg" xmlns:xlink="http://www.w3.org/1999/xlink" x="0px" y="0px"
	 viewBox="0 0 24 24" style="enable-background:new 0 0 24 24;" xml:space="preserve">
<style type="text/css">
	.st0{display:none;}
	.st1{display:inline;}
	.st2{fill:none;stroke:#000000;stroke-linejoin:round;stroke-miterlimit:10;}
</style>
<g id="Filled_Icons" class="st0">
	<path class="st1" d="M18.2,2.9c-2.7,0-5.1,2-5.5,4.5c0,0-0.9-4.5-5.2-4.5c-2.9,0-5.3,2.4-5.3,5.3c0,2.8,2.3,5.3,5.4,5.3v2l-7-1.6v7
		l7-1.8v2.5h9l-2.6-8h4.3h0c2.9,0,5.3-2.4,5.3-5.3C23.5,5.3,21.1,2.9,18.2,2.9z M7.4,9.7C6.6,9.7,5.9,9,5.9,8.2
		c0-0.8,0.7-1.5,1.5-1.5s1.5,0.7,1.5,1.5C8.9,9,8.3,9.7,7.4,9.7z M18.3,9.7c-0.8,0-1.5-0.7-1.5-1.5c0-0.8,0.7-1.5,1.5-1.5
		c0.8,0,1.5,0.7,1.5,1.5C19.8,9,19.1,9.7,18.3,9.7z"/>
</g>
<g id="Outline_Icons">
	<g>
		<path id="Viddler_4_" class="st2" d="M18.2,13.5c2.9,0,5.3-2.4,5.3-5.3c0-2.9-2.4-5.3-5.3-5.3c-2.7,0-5.1,2-5.5,4.5
			c0,0-0.9-4.5-5.2-4.5c-2.9,0-5.3,2.4-5.3,5.3c0,2.8,2.3,5.3,5.4,5.3v2l-7-1.6v7l7-1.8v2.5h9l-2.6-8H18.2L18.2,13.5L18.2,13.5z
			 M7.4,9.7C6.6,9.7,5.9,9,5.9,8.2c0-0.8,0.7-1.5,1.5-1.5s1.5,0.7,1.5,1.5C8.9,9,8.3,9.7,7.4,9.7L7.4,9.7z M16.8,8.2
			c0-0.8,0.7-1.5,1.5-1.5c0.8,0,1.5,0.7,1.5,1.5c0,0.8-0.7,1.5-1.5,1.5C17.4,9.7,16.8,9,16.8,8.2z"/>
	</g>
</g>
</svg>
