<?xml version="1.0" encoding="utf-8"?>
<!-- Generator: Adobe Illustrator 19.2.0, SVG Export Plug-In . SVG Version: 6.00 Build 0)  -->
<svg version="1.1" id="Layer_1" xmlns="http://www.w3.org/2000/svg" xmlns:xlink="http://www.w3.org/1999/xlink" x="0px" y="0px"
	 viewBox="0 0 24 24" style="enable-background:new 0 0 24 24;" xml:space="preserve">
<style type="text/css">
	.st0{display:none;}
	.st1{display:inline;}
	.st2{fill:none;stroke:#000000;stroke-linejoin:round;stroke-miterlimit:10;}
</style>
<g id="Filled_Icons" class="st0">
	<path class="st1" d="M13.1,4.3l-5,12.8c-1,2.4-1.7,5-4.9,5c-0.6,0-1.4,0-1.8-0.2c-0.7-0.5-0.6-1.5,0-1.8c0.3-0.2,0.6-0.2,0.9-0.1
		c2.2,0.1,2.8-1.3,3.5-3L0.6,4.3C0.4,3.6,0.5,2.9,1.2,2.6C2.1,2.3,2.7,2.7,3,3.5c0.1,0.2,4,10.3,4.2,10.1c0,0,3-7.7,3.8-10
		c0.2-0.6,0.5-0.9,1.2-0.9c0.2,0,0.4,0,0.5,0.1C13.1,3,13.4,3.6,13.1,4.3L13.1,4.3z M14,9.1c0.5-0.6,4.7-3.9,5.5-4.1
		c1.2-0.3,2,1,1.1,2c-0.6,0.6-5.3,2.5-6.2,2.7c-0.2,0.1-0.5,0.1-0.6,0C13.7,9.4,13.9,9.2,14,9.1L14,9.1z M22.6,11.4
		c0.6,0.2,0.9,0.6,0.9,1.1v0l0,0c0,0.5-0.3,0.9-0.9,1.1c-0.6,0.2-4.4-0.2-6.2-0.6c-0.5-0.2-0.9-0.3-0.9-0.5c0-0.2,0.4-0.3,0.9-0.5
		C18.2,11.6,22,11.2,22.6,11.4L22.6,11.4z M13.8,15.5c0.1-0.1,0.4-0.1,0.6,0c0.9,0.2,5.7,2.1,6.2,2.7c0.9,0.9,0.1,2.3-1.1,2
		c-0.8-0.2-5-3.5-5.5-4.1C13.9,15.9,13.7,15.7,13.8,15.5L13.8,15.5z"/>
</g>
<g id="Outline_Icons">
	<g>
		<path class="st2" d="M13.1,4.3l-5,12.8c-1,2.4-1.7,5-4.9,5c-0.6,0-1.4,0-1.8-0.2c-0.7-0.5-0.6-1.5,0-1.8c0.3-0.2,0.6-0.2,0.9-0.1
			c2.2,0.1,2.8-1.3,3.5-3L0.6,4.3C0.4,3.6,0.5,2.9,1.2,2.6C2.1,2.3,2.7,2.7,3,3.5c1.3,3.3,2.7,6.8,4,10.1c0,0.1,0.1,0.1,0.2,0
			l1.2-3.1c0.9-2.3,1.8-4.6,2.6-6.9c0.2-0.6,0.5-0.9,1.2-0.9c0.2,0,0.4,0,0.5,0.1C13.1,3,13.4,3.6,13.1,4.3L13.1,4.3z M14,9.1
			c0.5-0.6,4.7-3.9,5.5-4.1c1.2-0.3,2,1,1.1,2c-0.6,0.6-5.3,2.5-6.2,2.7c-0.2,0.1-0.5,0.1-0.6,0C13.7,9.4,13.9,9.2,14,9.1L14,9.1z
			 M22.6,11.4c0.6,0.2,0.9,0.6,0.9,1.1v0l0,0c0,0.5-0.3,0.9-0.9,1.1c-0.6,0.2-4.4-0.2-6.2-0.6c-0.5-0.2-0.9-0.3-0.9-0.5
			c0-0.2,0.4-0.3,0.9-0.5C18.2,11.6,22,11.2,22.6,11.4L22.6,11.4z M13.8,15.5c0.1-0.1,0.4-0.1,0.6,0c0.9,0.2,5.7,2.1,6.2,2.7
			c0.9,0.9,0.1,2.3-1.1,2c-0.8-0.2-5-3.5-5.5-4.1C13.9,15.9,13.7,15.7,13.8,15.5L13.8,15.5z"/>
	</g>
</g>
</svg>
