<?xml version="1.0" encoding="utf-8"?>
<!-- Generator: Adobe Illustrator 19.2.0, SVG Export Plug-In . SVG Version: 6.00 Build 0)  -->
<svg version="1.1" id="Layer_1" xmlns="http://www.w3.org/2000/svg" xmlns:xlink="http://www.w3.org/1999/xlink" x="0px" y="0px"
	 viewBox="0 0 24 24" style="enable-background:new 0 0 24 24;" xml:space="preserve">
<style type="text/css">
	.st0{display:none;}
	.st1{display:inline;}
	.st2{fill:none;stroke:#000000;stroke-linejoin:round;stroke-miterlimit:10;}
</style>
<g id="Filled_Icons" class="st0">
	<g class="st1">
		<path d="M23.4,4.8c-0.8,0.4-1.5,0.4-2.2,0c0.9-0.6,1-1,1.3-2c-0.9,0.5-1.9,0.9-2.9,1.1c-0.8-0.9-2-1.4-3.3-1.4
			c-2.5,0-4.5,2-4.5,4.5c0,0.4,0,0.7,0.1,1c-3.8-0.2-7.1-2-9.4-4.7C2.2,4,1.9,4.8,1.9,5.6c0,1.6,0.8,3,2,3.8c-0.7,0-1.4-0.2-2.1-0.6
			c0,0,0,0,0,0.1c0,2.2,1.6,4,3.6,4.5c-0.7,0.2-1.4,0.2-2.1,0.1c0.6,1.8,2.3,3.1,4.2,3.2c-1.9,1.5-4.4,2.2-6.7,1.9c2,1.3,4.4,2,7,2
			c8.4,0,12.9-6.9,12.9-12.9c0-0.2,0-0.4,0-0.6C21.8,6.3,22.8,5.7,23.4,4.8z"/>
	</g>
</g>
<g id="Outline_Icons">
	<g>
		<path class="st2" d="M23.4,4.8c-0.8,0.4-1.5,0.4-2.2,0c0.9-0.6,1-1,1.3-2c-0.9,0.5-1.9,0.9-2.9,1.1c-0.8-0.9-2-1.4-3.3-1.4
			c-2.5,0-4.5,2-4.5,4.5c0,0.4,0,0.7,0.1,1c-3.8-0.2-7.1-2-9.4-4.7C2.1,4,1.9,4.8,1.9,5.6c0,1.6,0.8,3,2,3.8c-0.7,0-1.4-0.2-2.1-0.6
			c0,0,0,0,0,0.1c0,2.2,1.6,4,3.6,4.5c-0.7,0.2-1.4,0.2-2.1,0.1c0.6,1.8,2.3,3.1,4.2,3.2c-1.9,1.5-4.4,2.2-6.7,1.9c2,1.3,4.4,2,7,2
			c8.4,0,12.9-6.9,12.9-12.9c0-0.2,0-0.4,0-0.6C21.7,6.3,22.8,5.7,23.4,4.8z"/>
	</g>
</g>
</svg>
