<?xml version="1.0" encoding="utf-8"?>
<!-- Generator: Adobe Illustrator 19.2.0, SVG Export Plug-In . SVG Version: 6.00 Build 0)  -->
<svg version="1.1" id="Layer_1" xmlns="http://www.w3.org/2000/svg" xmlns:xlink="http://www.w3.org/1999/xlink" x="0px" y="0px"
	 viewBox="0 0 24 24" style="enable-background:new 0 0 24 24;" xml:space="preserve">
<style type="text/css">
	.st0{display:none;}
	.st1{display:inline;}
	.st2{fill:none;stroke:#000000;stroke-linecap:round;stroke-linejoin:round;stroke-miterlimit:10;}
	.st3{fill:none;stroke:#000000;stroke-linejoin:round;stroke-miterlimit:10;}
</style>
<g id="Filled_Icons" class="st0">
	<path class="st1" d="M12,0C5.4,0,0,5.4,0,12s5.4,12,12,12s12-5.4,12-12S18.6,0,12,0z M17.2,9.6l-1.9,1.8L9.4,5.9L17.2,9.6z
		 M6.1,18.9c-0.4-0.3-0.6-0.7-0.6-1.2V6.3c0-0.5,0.2-0.9,0.6-1.2C6.3,5,6.6,4.9,6.8,4.9l7.7,7.1l-7.6,7.1
		C6.6,19.1,6.4,19.1,6.1,18.9z M9.6,18l5.7-5.3l1.9,1.8L9.6,18z M19.7,13.2L18.1,14L16,12l2.1-2l1.6,0.7c0.5,0.2,0.8,0.7,0.8,1.2
		C20.5,12.5,20.2,13,19.7,13.2z"/>
</g>
<g id="Outline_Icons">
	<g>
		<circle class="st2" cx="12" cy="12" r="11.5"/>
		<g>
			<path class="st3" d="M7.5,5C7,4.8,6.5,4.8,6.1,5.1C5.7,5.3,5.5,5.8,5.5,6.3v11.5c0,0.5,0.2,0.9,0.6,1.2C6.5,19.2,7,19.2,7.5,19
				l12.2-5.7c0.5-0.2,0.8-0.7,0.8-1.2c0-0.5-0.3-1-0.8-1.2L7.5,5z"/>
			<line class="st3" x1="7.9" y1="5.2" x2="17.6" y2="14.2"/>
			<line class="st3" x1="8" y1="18.7" x2="17.6" y2="9.8"/>
		</g>
	</g>
</g>
</svg>
