<?xml version="1.0" encoding="utf-8"?>
<!-- Generator: Adobe Illustrator 19.2.0, SVG Export Plug-In . SVG Version: 6.00 Build 0)  -->
<svg version="1.1" id="Layer_1" xmlns="http://www.w3.org/2000/svg" xmlns:xlink="http://www.w3.org/1999/xlink" x="0px" y="0px"
	 viewBox="0 0 24 24" style="enable-background:new 0 0 24 24;" xml:space="preserve">
<style type="text/css">
	.st0{display:none;}
	.st1{display:inline;}
	.st2{fill:none;stroke:#000000;stroke-linejoin:round;stroke-miterlimit:10;}
</style>
<g id="Filled_Icons" class="st0">
	<path class="st1" d="M23.7,7.8c-0.2-0.1-0.4-0.1-0.5,0l-2,1.3c-2-1.1-4.1-1.8-6.2-2.1V1.5c0-0.2-0.1-0.4-0.3-0.4
		c-0.2-0.1-0.4-0.1-0.5,0l-3.5,2.2c-0.1,0.1-0.2,0.3-0.2,0.4v3.2C4.8,7.5,0.2,11,0,14.9c-0.1,1.8,0.8,6.2,10.9,8.1c0,0,0.1,0,0.1,0
		c0.1,0,0.2,0,0.3-0.1l3.5-2.2c0.1-0.1,0.2-0.2,0.2-0.4v-9.8c1,0.2,1.9,0.5,2.9,0.9l-1.2,0.8c-0.2,0.1-0.3,0.3-0.2,0.6
		c0.1,0.2,0.3,0.4,0.5,0.4h6.5c0.3,0,0.5-0.2,0.5-0.5V8.2C24,8.1,23.9,7.9,23.7,7.8z M10.5,10.2v9.4c-4.5-0.7-6-2.8-6-4.6
		C4.6,13,6.7,10.7,10.5,10.2z"/>
</g>
<g id="Outline_Icons">
	<g>
		<path class="st2" d="M21.3,9.7c-2.3-1.3-4.5-2-6.7-2.3v-6L11,3.7v3.6c-10.8,0.8-17,12,0,15.1l3.5-2.2V9.8c1.4,0.2,2.9,0.7,4.5,1.4
			l-2,1.3h6.5V8.2L21.3,9.7z M11,9.6v10.6C0.5,18.8,2.9,10.3,11,9.6z"/>
	</g>
</g>
</svg>
