<?xml version="1.0" encoding="utf-8"?>
<!-- Generator: Adobe Illustrator 19.2.0, SVG Export Plug-In . SVG Version: 6.00 Build 0)  -->
<svg version="1.1" id="Layer_1" xmlns="http://www.w3.org/2000/svg" xmlns:xlink="http://www.w3.org/1999/xlink" x="0px" y="0px"
	 viewBox="0 0 24 24" style="enable-background:new 0 0 24 24;" xml:space="preserve">
<style type="text/css">
	.st0{display:none;}
	.st1{display:inline;}
	.st2{fill:none;stroke:#000000;stroke-linecap:round;stroke-linejoin:round;stroke-miterlimit:10;}
	.st3{fill:none;stroke:#000000;stroke-linejoin:round;stroke-miterlimit:10;}
</style>
<g id="Filled_Icons" class="st0">
	<g class="st1">
		<ellipse cx="12" cy="11.1" rx="4.2" ry="2.8"/>
		<path d="M12,0C5.4,0,0,5.4,0,12s5.4,12,12,12s12-5.4,12-12S18.6,0,12,0z M16.5,15.4c-1.2,0.8-2.9,1.3-4.5,1.3
			c-0.6,0-1.2-0.1-1.8-0.2l-3.8,1.6l1.1-2.7c-1.6-1-2.5-2.6-2.5-4.3c0-1.7,0.9-3.3,2.5-4.3C8.7,6,10.3,5.5,12,5.5
			c1.7,0,3.3,0.5,4.5,1.3c1.6,1,2.5,2.6,2.5,4.3C19,12.8,18.1,14.3,16.5,15.4z"/>
	</g>
</g>
<g id="Outline_Icons">
	<g>
		<circle class="st2" cx="12" cy="12" r="11.5"/>
		<g>
			<path class="st3" d="M10.2,16.5c0.6,0.1,1.2,0.2,1.8,0.2c1.7,0,3.3-0.5,4.5-1.3c1.6-1,2.5-2.6,2.5-4.3c0-1.7-0.9-3.3-2.5-4.3
				C15.3,6,13.7,5.5,12,5.5c-1.7,0-3.3,0.5-4.5,1.3C5.9,7.8,5,9.4,5,11.1c0,1.7,0.9,3.2,2.5,4.3l-1.1,2.7L10.2,16.5z M12,8.3
				c2.3,0,4.2,1.2,4.2,2.8c0,1.5-1.9,2.8-4.2,2.8c-2.3,0-4.2-1.2-4.2-2.8C7.8,9.5,9.7,8.3,12,8.3z"/>
		</g>
	</g>
</g>
</svg>
