<?xml version="1.0" encoding="utf-8"?>
<!-- Generator: Adobe Illustrator 19.2.0, SVG Export Plug-In . SVG Version: 6.00 Build 0)  -->
<svg version="1.1" id="Layer_1" xmlns="http://www.w3.org/2000/svg" xmlns:xlink="http://www.w3.org/1999/xlink" x="0px" y="0px"
	 viewBox="0 0 24 24" style="enable-background:new 0 0 24 24;" xml:space="preserve">
<style type="text/css">
	.st0{display:none;}
	.st1{display:inline;}
	.st2{fill:none;stroke:#000000;stroke-linecap:round;stroke-linejoin:round;stroke-miterlimit:10;}
</style>
<g id="Filled_Icons" class="st0">
	<g class="st1">
		<path d="M13.4,10c0.3-0.2,0.5-0.6,0.6-0.9c0.2-0.8-0.3-1.6-1.1-1.6h-1.6c-0.1,0.6-0.5,2.4-0.7,3h1.5C12.6,10.5,13,10.4,13.4,10z
			 M12.1,8.5l0.8,0c0,0.1,0.1,0.2,0,0.3c0,0.2-0.1,0.3-0.3,0.4c-0.1,0.1-0.2,0.2-0.6,0.2h-0.2C12,9.1,12,8.8,12.1,8.5z"/>
		<path d="M12,0C5.4,0,0,5.4,0,12s5.4,12,12,12s12-5.4,12-12S18.6,0,12,0z M8.6,5.5H14c1.6,0,3.4,1.2,2.9,3.6
			c-0.5,2.2-2.3,3.4-4.5,3.4h-2.3l-1,4H6L8.6,5.5z M18.9,11.1c-0.5,2.2-2.3,3.4-4.5,3.4h-2.3l-1,4H8l0.2-1H10l1-4h1.5
			c2.7,0,4.9-1.6,5.4-4.2C18,8.9,18,8.5,18,8.2C18.7,8.8,19.2,9.7,18.9,11.1z"/>
	</g>
</g>
<g id="Outline_Icons">
	<g>
		<circle class="st2" cx="12" cy="12" r="11.5"/>
		<g>
			<path class="st2" d="M13.4,10c0.3-0.2,0.5-0.6,0.6-0.9c0.2-0.8-0.3-1.6-1.1-1.6h-1.6c-0.1,0.6-0.5,2.4-0.7,3h1.5
				C12.6,10.5,13,10.4,13.4,10z"/>
			<path class="st2" d="M6,16.5l2.6-11H14c1.6,0,3.4,1.2,2.9,3.6c-0.5,2.2-2.3,3.4-4.5,3.4h-2.3l-1,4H6z"/>
			<path class="st2" d="M18.6,8.9c0.4,0.7,0.4,1.5,0.2,2.2c-0.5,2.1-2.2,3.4-4.4,3.4c-0.2,0-2.1,0-2.3,0l-1,4H8"/>
		</g>
	</g>
</g>
</svg>
