<?xml version="1.0" encoding="utf-8"?>
<!-- Generator: Adobe Illustrator 19.2.0, SVG Export Plug-In . SVG Version: 6.00 Build 0)  -->
<svg version="1.1" id="Layer_1" xmlns="http://www.w3.org/2000/svg" xmlns:xlink="http://www.w3.org/1999/xlink" x="0px" y="0px"
	 viewBox="0 0 24 24" style="enable-background:new 0 0 24 24;" xml:space="preserve">
<style type="text/css">
	.st0{display:none;}
	.st1{display:inline;}
	.st2{fill:none;stroke:#000000;stroke-linejoin:round;stroke-miterlimit:10;}
	.st3{fill:none;stroke:#000000;stroke-linecap:round;stroke-linejoin:round;stroke-miterlimit:10;}
</style>
<g id="Filled_Icons" class="st0">
	<path class="st1" d="M12,0C5.4,0,0,5.4,0,12s5.4,12,12,12s12-5.4,12-12S18.6,0,12,0z M17.3,9.4c0,0.1,0,0.2,0,0.3
		c0,3.5-2.6,7.5-7.5,7.5c-1.5,0-2.9-0.4-4-1.2c1.4,0.2,2.8-0.2,3.9-1.1c-1.2,0-2.1-0.8-2.5-1.8c0.4,0.1,0.8,0.1,1.2,0
		c-1.2-0.2-2.1-1.3-2.1-2.6c0,0,0,0,0,0c0.4,0.2,0.8,0.3,1.2,0.3c-0.7-0.5-1.2-1.3-1.2-2.2c0-0.5,0.1-0.9,0.4-1.3
		c1.3,1.6,3.2,2.6,5.4,2.8C12,9.8,12,9.6,12,9.4c0-1.5,1.2-2.6,2.6-2.6c0.8,0,1.4,0.3,1.9,0.8c0.6-0.1,1.9-0.3,1.9-0.3
		C18.1,7.9,17.8,9,17.3,9.4z"/>
</g>
<g id="Outline_Icons">
	<g>
		<path class="st2" d="M18.5,7.4c0,0-1.4,0.1-2,0.3c-0.5-0.5-1.2-0.8-1.9-0.8C13.2,6.8,12,8,12,9.4c0,0.2,0,0.4,0.1,0.6
			C9.9,9.9,7.9,8.9,6.6,7.3C6.4,7.7,6.3,8.1,6.3,8.6c0,0.9,0.5,1.7,1.2,2.2c-0.4,0-0.8-0.1-1.2-0.3c0,0,0,0,0,0
			c0,1.3,0.9,2.3,2.1,2.6c-0.4,0.1-0.8,0.1-1.2,0c0.3,1,1.3,1.8,2.5,1.8c-1.1,0.9-2.5,1.2-3.9,1.1c1.2,0.7,2.5,1.2,4,1.2
			c4.8,0,7.5-4,7.5-7.5c0-0.1,0-0.2,0-0.3C17.8,9,18.1,7.9,18.5,7.4z"/>
		<circle class="st3" cx="12" cy="12" r="11.5"/>
	</g>
</g>
</svg>
