<?xml version="1.0" encoding="utf-8"?>
<!-- Generator: Adobe Illustrator 19.2.0, SVG Export Plug-In . SVG Version: 6.00 Build 0)  -->
<svg version="1.1" id="Layer_1" xmlns="http://www.w3.org/2000/svg" xmlns:xlink="http://www.w3.org/1999/xlink" x="0px" y="0px"
	 viewBox="0 0 24 24" style="enable-background:new 0 0 24 24;" xml:space="preserve">
<style type="text/css">
	.st0{display:none;}
	.st1{display:inline;}
	.st2{fill:none;stroke:#000000;stroke-linecap:round;stroke-linejoin:round;stroke-miterlimit:10;}
	.st3{fill:none;stroke:#000000;stroke-linejoin:round;stroke-miterlimit:10;}
</style>
<g id="Filled_Icons" class="st0">
	<g class="st1">
		<path d="M12,0C5.4,0,0,5.4,0,12s5.4,12,12,12s12-5.4,12-12S18.6,0,12,0z M12,4c2.2,0,3.9,1.8,3.9,3.9c0,2.2-1.8,3.9-3.9,3.9
			c-2.2,0-3.9-1.8-3.9-3.9C8.1,5.8,9.8,4,12,4z M16.3,17.8c0.5,0.5,0.5,1.3,0,1.8c-0.5,0.5-1.3,0.5-1.8,0L12,17.2l-2.5,2.5
			c-0.5,0.5-1.3,0.5-1.8,0c-0.5-0.5-0.5-1.3,0-1.8l2.3-2.3c-1-0.3-1.9-0.7-2.6-1.4c-0.5-0.4-0.5-1.1-0.1-1.5l0.1-0.1
			c0.4-0.4,1-0.4,1.4-0.1c0.9,0.7,2,1.1,3.2,1.1c1.2,0,2.3-0.4,3.2-1.1c0.4-0.3,1-0.3,1.4,0.1l0.1,0.1c0.4,0.4,0.4,1.1-0.1,1.5
			c-0.8,0.6-1.6,1.1-2.6,1.3L16.3,17.8z"/>
		<circle cx="12" cy="7.9" r="1.7"/>
	</g>
</g>
<g id="Outline_Icons">
	<g>
		<circle class="st2" cx="12" cy="12" r="11.5"/>
		<g>
			<circle class="st3" cx="12" cy="7.9" r="3.9"/>
			<circle class="st3" cx="12" cy="7.9" r="1.7"/>
			<path class="st3" d="M14,15.5c1-0.3,1.8-0.7,2.6-1.3c0.5-0.4,0.5-1.1,0.1-1.5l-0.1-0.1c-0.4-0.4-1-0.4-1.4-0.1
				c-0.9,0.7-2,1.1-3.2,1.1c-1.2,0-2.3-0.4-3.2-1.1c-0.4-0.3-1-0.3-1.4,0.1l-0.1,0.1c-0.4,0.4-0.4,1.1,0.1,1.5
				c0.8,0.6,1.7,1.1,2.6,1.4l-2.3,2.3c-0.5,0.5-0.5,1.3,0,1.8c0.5,0.5,1.3,0.5,1.8,0l2.5-2.5l2.5,2.5c0.5,0.5,1.3,0.5,1.8,0
				c0.5-0.5,0.5-1.3,0-1.8L14,15.5z"/>
		</g>
	</g>
</g>
</svg>
