<?xml version="1.0" encoding="utf-8"?>
<!-- Generator: Adobe Illustrator 19.2.0, SVG Export Plug-In . SVG Version: 6.00 Build 0)  -->
<svg version="1.1" id="Layer_1" xmlns="http://www.w3.org/2000/svg" xmlns:xlink="http://www.w3.org/1999/xlink" x="0px" y="0px"
	 viewBox="0 0 24 24" style="enable-background:new 0 0 24 24;" xml:space="preserve">
<style type="text/css">
	.st0{display:none;}
	.st1{display:inline;}
	.st2{fill:none;stroke:#000000;stroke-linecap:round;stroke-linejoin:round;stroke-miterlimit:10;}
	.st3{fill:none;stroke:#000000;stroke-linejoin:round;stroke-miterlimit:10;}
</style>
<g id="Filled_Icons" class="st0">
	<path class="st1" d="M12,0C5.4,0,0,5.4,0,12s5.4,12,12,12s12-5.4,12-12S18.6,0,12,0z M10.6,19c-3.6,0-4.9-3.2-4.9-4
		c0-0.8,0.7-1.5,1.5-1.5s1.5,0.7,1.5,1.5c0,0.4-0.2,0.8-0.5,1.1c1.6,1.9,4.1,1,4.1-1c0-3.2-5.9-2.5-5.9-6.6c0-2,1.9-3.4,3.9-3.4
		c2.5,0,4.3,1.7,4.3,2.7c0,0.8-0.7,1.5-1.5,1.5c-1.1,0-1.8-1.1-1.4-2.1c-0.3-0.2-0.7-0.2-1.2-0.2c-1.1,0-2.2,0.5-2.2,1.6
		c0,2.2,4.9,1.9,6.2,5.3c0,0,0,0.1,0,0.1c-0.6,0.5-1.1,1.3-1.1,2.2c0,0.5,0.2,1,0.4,1.4C13,18.5,11.9,19,10.6,19z M16.2,17.8
		c-1,0-1.8-0.8-1.8-1.8c0-1,0.8-1.8,1.8-1.8s1.8,0.8,1.8,1.8C18.1,17,17.3,17.8,16.2,17.8z"/>
</g>
<g id="Outline_Icons">
	<g>
		<circle class="st2" cx="12" cy="12" r="11.5"/>
		<circle class="st3" cx="16.6" cy="16" r="1.8"/>
		<path class="st3" d="M14.5,13.8C14.5,13.8,14.5,13.7,14.5,13.8c-1.2-3.5-6.2-3.2-6.2-5.4c0-1.1,1.1-1.6,2.2-1.6
			c0.5,0,0.9,0.1,1.2,0.2c-0.5,1,0.3,2.1,1.4,2.1c0.8,0,1.5-0.7,1.5-1.5c0-1-1.8-2.7-4.3-2.7C8.3,5,6.4,6.4,6.4,8.4
			c0,4.1,5.9,3.5,5.9,6.6c0,2-2.5,2.9-4.1,1c0.3-0.3,0.5-0.7,0.5-1.1c0-0.8-0.7-1.5-1.5-1.5S5.7,14.1,5.7,15c0,0.8,1.3,4,4.9,4
			c1.3,0,2.4-0.5,3.2-1.5c-0.2-0.4-0.4-0.9-0.4-1.4C13.4,15.1,13.8,14.3,14.5,13.8z"/>
	</g>
</g>
</svg>
