<?xml version="1.0" encoding="utf-8"?>
<!-- Generator: Adobe Illustrator 19.2.0, SVG Export Plug-In . SVG Version: 6.00 Build 0)  -->
<svg version="1.1" id="Layer_1" xmlns="http://www.w3.org/2000/svg" xmlns:xlink="http://www.w3.org/1999/xlink" x="0px" y="0px"
	 viewBox="0 0 24 24" style="enable-background:new 0 0 24 24;" xml:space="preserve">
<style type="text/css">
	.st0{display:none;}
	.st1{display:inline;}
	.st2{fill:none;stroke:#000000;stroke-linecap:round;stroke-linejoin:round;stroke-miterlimit:10;}
	.st3{fill:none;stroke:#000000;stroke-linejoin:round;stroke-miterlimit:10;}
</style>
<g id="Filled_Icons" class="st0">
	<path class="st1" d="M12,0C5.4,0,0,5.4,0,12s5.4,12,12,12s12-5.4,12-12S18.6,0,12,0z M5,15.2c0,0.3-0.2,0.5-0.5,0.5S4,15.4,4,15.2
		v-2.6c0-0.3,0.2-0.5,0.5-0.5S5,12.3,5,12.6V15.2z M7,15c0,0.3-0.2,0.5-0.5,0.5S6,15.3,6,15v-3.6c0-0.3,0.2-0.5,0.5-0.5
		S7,11.2,7,11.4V15z M9,15.4c0,0.3-0.2,0.5-0.5,0.5S8,15.7,8,15.4v-4.9C8,10.2,8.2,10,8.5,10S9,10.2,9,10.5V15.4z M11,15.5
		c0,0.3-0.2,0.5-0.5,0.5S10,15.8,10,15.5V9.6c0-0.3,0.2-0.5,0.5-0.5S11,9.4,11,9.6V15.5z M17.7,16h-5c-0.4,0-0.7-0.3-0.7-0.7V9.4
		c0-0.3,0.2-0.6,0.5-0.7c0.4-0.1,0.7-0.3,1.2-0.3c1.8,0,3.2,1.2,3.6,2.8c0.1,0,0.2,0,0.3,0c1.3,0,2.3,1.1,2.3,2.3
		C20,14.9,18.9,16,17.7,16z"/>
</g>
<g id="Outline_Icons">
	<g>
		<circle class="st2" cx="12" cy="12" r="11.5"/>
		<path class="st3" d="M12.7,15.5c0,0,4.9,0,5,0c1,0,1.8-0.8,1.8-1.8s-0.8-1.8-1.8-1.8c-0.3,0-0.5,0.1-0.7,0.1c-0.1-1.7-1.5-3-3.2-3
			c-0.4,0-0.7,0.1-1,0.2c-0.1,0.1-0.2,0.1-0.2,0.2v5.9C12.5,15.4,12.6,15.5,12.7,15.5z"/>
		<line class="st2" x1="10.5" y1="9.6" x2="10.5" y2="15.5"/>
		<line class="st2" x1="8.5" y1="10.5" x2="8.5" y2="15.4"/>
		<line class="st2" x1="6.5" y1="11.4" x2="6.5" y2="15"/>
		<line class="st2" x1="4.5" y1="12.6" x2="4.5" y2="15.2"/>
	</g>
</g>
</svg>
