<?xml version="1.0" encoding="utf-8"?>
<!-- Generator: Adobe Illustrator 19.2.0, SVG Export Plug-In . SVG Version: 6.00 Build 0)  -->
<svg version="1.1" id="Layer_1" xmlns="http://www.w3.org/2000/svg" xmlns:xlink="http://www.w3.org/1999/xlink" x="0px" y="0px"
	 viewBox="0 0 24 24" style="enable-background:new 0 0 24 24;" xml:space="preserve">
<style type="text/css">
	.st0{display:none;}
	.st1{display:inline;}
	.st2{fill:none;stroke:#000000;stroke-linecap:round;stroke-linejoin:round;stroke-miterlimit:10;}
	.st3{fill:none;stroke:#000000;stroke-linejoin:round;stroke-miterlimit:10;}
</style>
<g id="Filled_Icons" class="st0">
	<g class="st1">
		<path d="M10.8,9.1c-0.2-0.1-0.3-0.1-0.5,0C10.1,9.2,10,9.3,10,9.5v4.9c0,0.2,0.1,0.3,0.2,0.4c0.1,0,0.2,0.1,0.3,0.1
			c0.1,0,0.2,0,0.2-0.1l4.3-2.4c0.2-0.1,0.3-0.3,0.3-0.4c0-0.2-0.1-0.3-0.2-0.4L10.8,9.1z"/>
		<path d="M12,0C5.4,0,0,5.4,0,12s5.4,12,12,12s12-5.4,12-12S18.6,0,12,0z M19,14.3c0,1.5-1.2,2.7-2.7,2.7H7.7C6.2,17,5,15.8,5,14.3
			V9.7C5,8.2,6.2,7,7.7,7h8.5C17.8,7,19,8.2,19,9.7V14.3z"/>
	</g>
</g>
<g id="Outline_Icons">
	<g>
		<circle class="st2" cx="12" cy="12" r="11.5"/>
		<g>
			<path class="st3" d="M18.5,9.7c0-1.2-1-2.2-2.2-2.2H7.7c-1.2,0-2.2,1-2.2,2.2v4.5c0,1.2,1,2.2,2.2,2.2h8.5c1.2,0,2.2-1,2.2-2.2
				V9.7z M10.5,14.4V9.5l4.3,2.5L10.5,14.4z"/>
		</g>
	</g>
</g>
</svg>
