<?xml version="1.0" encoding="utf-8"?>
<!-- Generator: Adobe Illustrator 19.2.0, SVG Export Plug-In . SVG Version: 6.00 Build 0)  -->
<svg version="1.1" id="Layer_1" xmlns="http://www.w3.org/2000/svg" xmlns:xlink="http://www.w3.org/1999/xlink" x="0px" y="0px"
	 viewBox="0 0 24 24" style="enable-background:new 0 0 24 24;" xml:space="preserve">
<style type="text/css">
	.st0{display:none;}
	.st1{display:inline;}
	.st2{fill:none;stroke:#000000;stroke-linecap:round;stroke-linejoin:round;stroke-miterlimit:10;}
</style>
<g id="Filled_Icons" class="st0">
	<path class="st1" d="M12,0C5.4,0,0,5.4,0,12s5.4,12,12,12s12-5.4,12-12S18.6,0,12,0z M13.2,4.5l3.6,3h-2.2v5.4l-2.9,2.8
		c0,0-0.1,0.1-0.1,0.1v-3.4c0.4,0,0.8-0.3,0.9-0.6c0.1-0.4,0-0.8-0.3-1.1l-0.7-0.6V7.5H9.6L13.2,4.5z M9.5,19.5h-3v-8h-2l3.6-3.1
		l3.4,3.1h-2V19.5z M13.5,19.5h-2v-2.4c0.2,0.3,0.5,0.4,0.8,0.4h1.2V19.5z M17.5,16.5v3h-3v-3h-2.2l3.6-3.5l3.6,3.5H17.5z"/>
</g>
<g id="Outline_Icons">
	<g>
		<circle class="st2" cx="12" cy="12" r="11.5"/>
		<polygon class="st2" points="11.5,11.5 8.1,8.4 4.5,11.5 6.5,11.5 6.5,19.5 9.5,19.5 9.5,11.5 		"/>
		<polygon class="st2" points="19.5,16.5 15.9,13 12.3,16.5 14.5,16.5 14.5,19.5 17.5,19.5 17.5,16.5 		"/>
		<polyline class="st2" points="14.5,14.4 14.5,7.5 16.7,7.5 13.2,4.5 9.6,7.5 11.5,7.5 11.5,19.5 14.5,19.5 		"/>
	</g>
</g>
</svg>
