<?xml version="1.0" encoding="utf-8"?>
<!-- Generator: Adobe Illustrator 19.2.0, SVG Export Plug-In . SVG Version: 6.00 Build 0)  -->
<svg version="1.1" id="Layer_1" xmlns="http://www.w3.org/2000/svg" xmlns:xlink="http://www.w3.org/1999/xlink" x="0px" y="0px"
	 viewBox="0 0 24 24" style="enable-background:new 0 0 24 24;" xml:space="preserve">
<style type="text/css">
	.st0{display:none;}
	.st1{display:inline;}
	.st2{fill:none;stroke:#000000;stroke-linecap:round;stroke-linejoin:round;stroke-miterlimit:10;}
	.st3{fill:none;stroke:#000000;stroke-linejoin:round;stroke-miterlimit:10;}
</style>
<g id="Filled_Icons" class="st0">
	<g class="st1">
		<ellipse cx="16.3" cy="10.4" rx="0.9" ry="0.9"/>
		<ellipse cx="9.7" cy="10.4" rx="0.9" ry="0.9"/>
		<path d="M12,0C5.4,0,0,5.4,0,12s5.4,12,12,12s12-5.4,12-12S18.6,0,12,0z M16.2,13.5L16.2,13.5h-2.6l1.6,5H9.5V17l-4,1.1v-4.3l4,1
			l0-1.3c-1.9,0-3-1.4-3-3.1c0-1.8,1.5-3.2,3.2-3.2c2.6,0,3.2,2.7,3.2,2.7c0.2-1.6,1.7-2.7,3.4-2.7c1.8,0,3.3,1.4,3.3,3.2
			C19.5,12.2,18,13.5,16.2,13.5z"/>
	</g>
</g>
<g id="Outline_Icons">
	<g>
		<circle class="st2" cx="12" cy="12" r="11.5"/>
		<path id="Viddler_1_" class="st3" d="M16.2,13.5c1.8,0,3.3-1.3,3.3-3.1S18,7.2,16.2,7.2c-1.6,0-3.1,1.2-3.4,2.7
			c0,0-0.5-2.7-3.2-2.7c-1.8,0-3.2,1.4-3.2,3.2c0,1.7,1.1,3.1,3,3.1l0,1.3l-4-1v4.3l4-1.1v1.5h5.7l-1.6-5H16.2L16.2,13.5L16.2,13.5z
			 M9.7,11.3c-0.5,0-0.9-0.4-0.9-0.9s0.4-0.9,0.9-0.9s0.9,0.4,0.9,0.9S10.2,11.3,9.7,11.3L9.7,11.3z M15.4,10.4
			c0-0.5,0.4-0.9,0.9-0.9c0.5,0,0.9,0.4,0.9,0.9s-0.4,0.9-0.9,0.9C15.8,11.3,15.4,10.9,15.4,10.4z"/>
	</g>
</g>
</svg>
