<?xml version="1.0" encoding="utf-8"?>
<!-- Generator: Adobe Illustrator 19.2.0, SVG Export Plug-In . SVG Version: 6.00 Build 0)  -->
<svg version="1.1" id="Layer_1" xmlns="http://www.w3.org/2000/svg" xmlns:xlink="http://www.w3.org/1999/xlink" x="0px" y="0px"
	 viewBox="0 0 24 24" style="enable-background:new 0 0 24 24;" xml:space="preserve">
<style type="text/css">
	.st0{display:none;}
	.st1{display:inline;}
	.st2{fill:none;stroke:#000000;stroke-linejoin:round;stroke-miterlimit:10;}
</style>
<g id="Filled_Icons" class="st0">
	<path class="st1" d="M11.5,3.5c-5.5,0-10,3.6-10,8c0,2.2,1.2,4.3,3,5.7c0.5,2.9-2,3.4-2,3.4S2.2,21,3,21.2c3.2,0.6,5.8-2,5.8-2
		l0-0.1c0.9,0.2,1.8,0.3,2.8,0.3c5.5,0,10-3.6,10-8S17,3.5,11.5,3.5z"/>
</g>
<g id="Outline_Icons">
	<path class="st2" d="M11.5,3.5c-5.5,0-10,3.6-10,8c0,2.2,1.2,4.3,3,5.7c0.5,2.9-2,3.4-2,3.4S2.2,21,3,21.2c3.2,0.6,5.8-2,5.8-2
		l0-0.1c0.9,0.2,1.8,0.3,2.8,0.3c5.5,0,10-3.6,10-8S17,3.5,11.5,3.5z"/>
</g>
</svg>
