<?xml version="1.0" encoding="utf-8"?>
<!-- Generator: Adobe Illustrator 19.2.0, SVG Export Plug-In . SVG Version: 6.00 Build 0)  -->
<svg version="1.1" id="Layer_1" xmlns="http://www.w3.org/2000/svg" xmlns:xlink="http://www.w3.org/1999/xlink" x="0px" y="0px"
	 viewBox="0 0 24 24" style="enable-background:new 0 0 24 24;" xml:space="preserve">
<style type="text/css">
	.st0{display:none;}
	.st1{display:inline;}
	.st2{fill:none;stroke:#000000;stroke-linecap:round;stroke-linejoin:round;stroke-miterlimit:10;}
	.st3{fill:none;stroke:#000000;stroke-linejoin:round;stroke-miterlimit:10;}
</style>
<g id="Filled_Icons" class="st0">
	<g class="st1">
		<path d="M11.2,13.5c-1.1-0.2-1.9-1.3-2.1-2.7c-0.3,0.5-0.5,1.1-0.5,1.8c0,1.9,1.5,3.5,3.4,3.5s3.4-1.6,3.4-3.5
			c0-0.8-0.2-1.5-0.6-2.1C14.3,12.5,12.7,13.8,11.2,13.5z"/>
		<path d="M12,0C5.4,0,0,5.4,0,12s5.4,12,12,12s12-5.4,12-12S18.6,0,12,0z M12,18.3c-3.9,0-7-1.3-7-2.9c0-0.8,0.8-1.5,2-2
			c-0.2-2.2-0.2-7.1,3.7-9.7c0,3,2.6,3.2,0.9,7.1c1.1-0.1,2.6-0.3,2.4-2.5c1.3,0.7,3.4,1.6,3.2,5.1c1.2,0.5,1.9,1.2,1.9,1.9
			C19,17.1,15.9,18.3,12,18.3z"/>
	</g>
</g>
<g id="Outline_Icons">
	<g>
		<circle class="st2" cx="12" cy="12" r="11.5"/>
		<g>
			<path class="st3" d="M17.1,13.5c0.2-3.6-1.9-4.5-3.2-5.1c0.2,2.2-1.3,2.4-2.4,2.5c1.7-3.9-0.9-4.1-0.9-7.1
				C6.8,6.4,6.8,11.2,7,13.5c-1.2,0.5-2,1.2-2,2c0,1.6,3.1,2.9,7,2.9c3.9,0,7-1.3,7-2.9C19,14.7,18.3,14,17.1,13.5z"/>
			<path class="st3" d="M14.7,10.6c-0.5,1.9-2,3.3-3.5,3c-1.1-0.2-1.9-1.3-2.1-2.7c-0.3,0.5-0.5,1.1-0.5,1.8c0,1.9,1.5,3.5,3.4,3.5
				s3.4-1.6,3.4-3.5C15.4,11.9,15.2,11.1,14.7,10.6z"/>
		</g>
	</g>
</g>
</svg>
