<?xml version="1.0" encoding="utf-8"?>
<!-- Generator: Adobe Illustrator 19.2.0, SVG Export Plug-In . SVG Version: 6.00 Build 0)  -->
<svg version="1.1" id="Layer_1" xmlns="http://www.w3.org/2000/svg" xmlns:xlink="http://www.w3.org/1999/xlink" x="0px" y="0px"
	 viewBox="0 0 24 24" style="enable-background:new 0 0 24 24;" xml:space="preserve">
<style type="text/css">
	.st0{display:none;}
	.st1{display:inline;}
	.st2{fill:none;stroke:#000000;stroke-linecap:round;stroke-linejoin:round;stroke-miterlimit:10;}
	.st3{fill:none;stroke:#000000;stroke-linejoin:round;stroke-miterlimit:10;}
</style>
<g id="Filled_Icons" class="st0">
	<path class="st1" d="M12,0C5.4,0,0,5.4,0,12s5.4,12,12,12s12-5.4,12-12S18.6,0,12,0z M4.5,10.5h3.8l-1.7,3H4.5V10.5z M7.4,17.2
		l-0.7,0.5c-0.1,0.1-0.3,0.1-0.4,0.1c-0.1,0-0.3-0.1-0.4-0.2c-0.1-0.1-0.2-0.3-0.1-0.5l0.1-0.8c0-0.3,0.3-0.6,0.6-0.6
		c0.1,0,0.2,0,0.3,0.1l0.5,0.3c0.2,0.1,0.3,0.3,0.3,0.5C7.7,16.9,7.6,17.1,7.4,17.2z M7.3,15.8c-0.1,0-0.2,0-0.2-0.1
		c-0.2-0.1-0.3-0.4-0.2-0.7L10.9,8c0.1-0.2,0.4-0.3,0.7-0.2c0.2,0.1,0.3,0.4,0.2,0.7l-4.1,7.1C7.7,15.7,7.5,15.8,7.3,15.8z
		 M10.1,13.5l1.7-3h1.1l1.5,3H10.1z M11.9,6c-0.1-0.2,0-0.5,0.2-0.7c0.2-0.1,0.5,0,0.7,0.2l4.6,9.3c0.1,0.2,0,0.5-0.2,0.7
		c-0.1,0-0.1,0.1-0.2,0.1c-0.2,0-0.4-0.1-0.4-0.3L11.9,6z M18.3,17.6c-0.1,0.1-0.3,0.2-0.4,0.2c-0.1,0-0.3-0.1-0.4-0.1l-0.7-0.4
		c-0.2-0.1-0.3-0.3-0.3-0.5c0-0.2,0.1-0.4,0.3-0.5l0.5-0.3c0.1,0,0.2-0.1,0.3-0.1c0.3,0,0.6,0.2,0.6,0.6l0.1,0.8
		C18.5,17.3,18.4,17.5,18.3,17.6z M19.5,13.5h-1.7l-1.5-3h3.2V13.5z"/>
</g>
<g id="Outline_Icons">
	<g>
		<circle class="st2" cx="12" cy="12" r="11.5"/>
		<path class="st3" d="M7.1,16.6l-0.5-0.3c-0.1-0.1-0.2,0-0.2,0.1l-0.1,0.8c0,0.1,0.1,0.1,0.1,0.1l0.7-0.4
			C7.2,16.8,7.2,16.7,7.1,16.6z"/>
		<path class="st3" d="M17.2,16.6l0.5-0.3c0.1-0.1,0.2,0,0.2,0.1l0.1,0.8c0,0.1-0.1,0.1-0.1,0.1l-0.7-0.4
			C17.1,16.8,17.1,16.7,17.2,16.6z"/>
		<line class="st2" x1="16.9" y1="15.1" x2="12.3" y2="5.8"/>
		<line class="st2" x1="7.3" y1="15.3" x2="11.4" y2="8.2"/>
		<polyline class="st3" points="6,13.5 4.5,13.5 4.5,10.5 8,10.5 		"/>
		<line class="st3" x1="14" y1="13.5" x2="10" y2="13.5"/>
		<polyline class="st3" points="16,10.5 19.5,10.5 19.5,13.5 18,13.5 		"/>
	</g>
</g>
</svg>
