<?xml version="1.0" encoding="utf-8"?>
<!-- Generator: Adobe Illustrator 19.2.0, SVG Export Plug-In . SVG Version: 6.00 Build 0)  -->
<svg version="1.1" id="Layer_1" xmlns="http://www.w3.org/2000/svg" xmlns:xlink="http://www.w3.org/1999/xlink" x="0px" y="0px"
	 viewBox="0 0 24 24" style="enable-background:new 0 0 24 24;" xml:space="preserve">
<style type="text/css">
	.st0{display:none;}
	.st1{display:inline;}
	.st2{fill:none;stroke:#000000;stroke-linejoin:round;stroke-miterlimit:10;}
</style>
<g id="Filled_Icons" class="st0">
	<path class="st1" d="M22.1,13.4c-1-0.9-2-1-3.5-1.4c-0.2-0.8,0.1-1.4,0.4-2c0.3-0.6,0.7-1.2,0.7-2.1c0-4-4.7-4.2-5.7-4.9
		c-0.3-0.2-0.4-0.7-0.6-1.2c-0.1-0.2-0.1-0.4-0.2-0.6C13.2,1,13,0.8,12.8,0.9c-0.2,0-0.4,0.2-0.5,0.4c-0.5,2.6,1.1,3.2,2.4,3.7
		c0.5,0.2,1,0.4,1.3,0.7c0.5,0.4,1.1,1,1,1.8c0,0.4-0.9,1.5-1.1,1.8c-0.8-2.4-2.5-3.8-3.9-4.6c-0.3-0.2-0.7-0.3-1.1-0.5
		C10.5,4,10.1,3.8,9.7,3.5C8.9,2.9,8.6,1.8,8.4,0.5C8.3,0.2,8.1,0,7.8,0c-0.3,0-0.5,0.2-0.5,0.5C7.2,3.6,8.2,5,9.4,6.1
		c0.4,0.4,0.9,0.7,1.4,1c1.3,0.8,2.3,1.5,2,3.4C11.9,10.4,9.7,9.6,9.2,9C8.7,8.4,8.5,7.5,8.2,6.6C8,5.5,7.7,4.4,6.8,3.7
		C5.6,2.8,2.7,3.1,1.5,4.1C1.3,4.2,1.3,4.5,1.4,4.7C1.5,4.9,1.7,5,1.9,4.9c1.6-0.3,2.8-0.2,3.5,0.4c0.6,0.5,0.8,1.6,1,2.8
		C6.6,9,6.7,9.9,7.1,10.6c0.5,1,1.6,2.2,3.3,3.1c-0.8,0.2-3.1,0.7-3.8,0.2c-0.5-0.3-0.5-1.4-0.4-2.5c0-1,0.1-2.1-0.3-3
		c-0.5-1-1.5-1.2-2.3-1.4C3.3,7.1,3.1,7.2,3,7.5C2.9,7.7,3,8,3.2,8.1c1.6,0.7,0.3,3.2,0.3,5.2c0.1,2.3,1.4,3.9,3.5,4.2
		c0.9,0.1,1.8,0,2.7-0.2c1-0.2,1.9-0.3,2.5,0c0.4,0.1,0.4,1.7,0.5,2.2c0.4,2.4,2.3,4.3,4.5,4.5c0.2,0,0.5,0,0.7,0
		c2.5,0,4.6-1.5,5.5-4C24.5,17.5,23.9,15,22.1,13.4z M21.5,18.9c-0.3,1-1.2,1.8-2.2,1.8c-0.2,0-0.4,0-0.6-0.1
		c-1.1-0.3-1.7-1.6-1.4-2.9c0.4-1.2,1.6-2,2.7-1.7C21.3,16.4,21.9,17.7,21.5,18.9z"/>
</g>
<g id="Outline_Icons">
	<g>
		<path id="Squidoo_4_" class="st2" d="M21.1,18.8c-0.3,1-1.2,1.6-2.1,1.3c-0.9-0.3-1.3-1.3-1-2.3c0.3-1,1.2-1.6,2.1-1.3
			C20.9,16.8,21.4,17.8,21.1,18.8z M17.4,23.5c-2.1-0.2-3.7-2-4.1-4.1c-0.2-1.3,0-2.2-0.8-2.6C11,16.2,9,17.2,7.2,17
			c-1.7-0.2-3-1.5-3.1-3.7c-0.1-2,1.4-4.7-0.6-5.7C4.3,7.8,5,8,5.4,8.8c0.8,1.6-0.5,4.8,0.9,5.7c0.7,0.4,1.9,0.2,2.8,0.1
			c1-0.1,1.6-0.4,2.6-0.4c-0.5-0.7-1.4-0.9-1.9-1.3C9,12.3,8,11.3,7.6,10.4C6.8,8.8,6.9,6,5.7,5C4.8,4.2,3.3,4.2,1.8,4.4
			c1-0.9,3.7-1,4.7-0.3c1.3,1,1.1,3.7,2.3,5.1c0.5,0.6,1.3,0.9,1.9,1.1c0.7,0.3,1.4,0.5,2.5,0.6c0.8-3.4-1.9-3.9-3.5-5.3
			c-1.2-1.1-2-2.4-1.8-5.1C8.1,2,8.4,3.1,9.4,3.9c0.7,0.5,1.6,0.7,2.4,1.1c1.8,1,3.4,2.7,3.9,5.1c0.4-0.2,0.7-0.7,1-1.2
			c0.4-0.5,0.8-0.9,0.8-1.5c0-0.9-0.6-1.7-1.2-2.2c-1.4-1.1-4.1-0.8-3.5-3.9C13,2.1,13.1,3,13.7,3.4C14.6,4.1,16,4.1,17,4.7
			c0.9,0.5,2.3,1.7,2.3,3.3c0,1.8-1.8,2.5-1,4.5c1.8,0.5,2.7,0.5,3.6,1.3C25.5,17,22.8,24.1,17.4,23.5L17.4,23.5z"/>
	</g>
</g>
</svg>
