<?xml version="1.0" encoding="utf-8"?>
<!-- Generator: Adobe Illustrator 19.2.0, SVG Export Plug-In . SVG Version: 6.00 Build 0)  -->
<svg version="1.1" id="Layer_1" xmlns="http://www.w3.org/2000/svg" xmlns:xlink="http://www.w3.org/1999/xlink" x="0px" y="0px"
	 viewBox="0 0 24 24" style="enable-background:new 0 0 24 24;" xml:space="preserve">
<style type="text/css">
	.st0{display:none;}
	.st1{display:inline;}
	.st2{fill:none;stroke:#000000;stroke-linecap:round;stroke-linejoin:round;stroke-miterlimit:10;}
	.st3{fill:none;stroke:#000000;stroke-linejoin:round;stroke-miterlimit:10;}
</style>
<g id="Filled_Icons" class="st0">
	<g class="st1">
		<path d="M15.5,10.7c-0.4,0-0.7,0.2-0.9,0.4c-0.4,0.4-0.7,0.7-1,1c-0.1,0.1-0.1,0.1,0,0.2c0,0.1,1.8,1.4,1.8,1.4
			c0.4,0.1,0.8,0,1.2-0.4c0.3-0.3,0.6-1,0.4-1.7C16.8,11.1,16.2,10.7,15.5,10.7z"/>
		<path d="M9.3,11.2C9,11,8.7,10.8,8.4,10.8c-0.6-0.1-1.3,0.3-1.5,0.9c-0.2,0.7,0.1,1.4,0.4,1.7c0.4,0.4,0.9,0.4,1.3,0.3l1.7-1.4
			c0-0.1,0-0.1,0-0.2C10,11.9,9.7,11.5,9.3,11.2z"/>
		<path d="M12,0C5.4,0,0,5.4,0,12s5.4,12,12,12s12-5.4,12-12S18.6,0,12,0z M19.5,12.1c-0.2,2.2-1.7,3.3-3.7,3.6
			c-1.5,0.1-3-0.7-4-2.1c-1,1-2.4,2.1-4.2,2.1c-2.9,0-3.2-2-3.1-3.1c0.2-2.2,1.7-3.3,3.7-3.6c1.5-0.1,3,0.6,4,2.1
			c1-1,2.4-2.1,4.2-2.1C19.3,9,19.6,11,19.5,12.1z"/>
	</g>
</g>
<g id="Outline_Icons">
	<g>
		<circle class="st2" cx="12" cy="12" r="11.5"/>
		<path class="st3" d="M10.3,12.3c0-0.1,0-0.1,0-0.2c-0.3-0.2-0.6-0.6-1-1C9,11,8.7,10.8,8.4,10.8c-0.6-0.1-1.3,0.3-1.5,0.9
			c-0.2,0.7,0.1,1.4,0.4,1.7c0.4,0.4,0.9,0.4,1.3,0.3L10.3,12.3z"/>
		<path class="st3" d="M11.8,13.5c1.1,1.5,2.5,2.3,4,2.1c2-0.3,3.5-1.4,3.7-3.6C19.6,11,19.3,9,16.4,9c-1.8,0-3.2,1-4.2,2.1
			c-1.1-1.5-2.5-2.3-4-2.1c-2,0.3-3.5,1.4-3.7,3.6c-0.1,1.2,0.2,3.1,3.1,3.1C9.4,15.6,10.8,14.6,11.8,13.5L11.8,13.5z"/>
		<path class="st3" d="M13.6,12.3c0,0.1,1.8,1.4,1.8,1.4c0.4,0.1,0.8,0,1.2-0.4c0.3-0.3,0.6-1,0.4-1.7c-0.2-0.6-0.8-1-1.5-0.9
			c-0.4,0-0.7,0.2-0.9,0.4c-0.4,0.4-0.7,0.7-1,1C13.6,12.2,13.6,12.2,13.6,12.3L13.6,12.3z"/>
	</g>
</g>
</svg>
