<?xml version="1.0" encoding="utf-8"?>
<!-- Generator: Adobe Illustrator 19.2.0, SVG Export Plug-In . SVG Version: 6.00 Build 0)  -->
<svg version="1.1" id="Layer_1" xmlns="http://www.w3.org/2000/svg" xmlns:xlink="http://www.w3.org/1999/xlink" x="0px" y="0px"
	 viewBox="0 0 24 24" style="enable-background:new 0 0 24 24;" xml:space="preserve">
<style type="text/css">
	.st0{display:none;}
	.st1{display:inline;}
	.st2{fill:none;stroke:#000000;stroke-linejoin:round;stroke-miterlimit:10;}
</style>
<g id="Filled_Icons" class="st0">
	<g class="st1">
		<path d="M2.6,4.5l3.9-3.8v3.8H2.6z M19.5,3.5c-0.4-0.7-2.5-1.5-3.6-1.5h-2.8c0,0-0.6-1.6-2.7-1.6s-2,0.9-2,1.7v3.2l-1.1,1H3
			c0,0-1.4,0.8-1.4,2.6s0.5,7.9,4.2,8.5c4.4,0.7,5.1-1.4,5.1-1.6c0-1,0-2.6,0-2.6s1.3,2.4,3.2,2.4s3.1,1.1,3.1,2.3v2.1
			c0,0-0.1,1.3-1.2,1.3h-2.4c0,0-0.8-0.6-0.8-1.5c0-0.9,0.4-1.1,0.8-1.1c0.5,0,0.8,0.1,0.8,0.1v-1.8c0,0-3.7,0-3.7,2.8
			c0,2.8,1.9,3.5,3.4,3.5h2.5c0,0,4.5-0.6,4.5-9.5C21.3,5.1,19.9,4.2,19.5,3.5 M15,11.5c0,0,0.2-1.5,1.1-1.5c0.9,0,2,2,2,2
			S15.5,11.5,15,11.5z"/>
	</g>
</g>
<g id="Outline_Icons">
	<g>
		<path class="st2" d="M2.6,4.5l3.9-3.8v3.8H2.6z M19.5,3.5c-0.4-0.7-2.5-1.5-3.6-1.5h-2.8c0,0-0.6-1.6-2.7-1.6s-2,0.9-2,1.7v3.2
			l-1.1,1H3c0,0-1.4,0.8-1.4,2.6s0.5,7.9,4.2,8.5c4.4,0.7,5.1-1.4,5.1-1.6c0-1,0-2.6,0-2.6s1.3,2.4,3.2,2.4s3.1,1.1,3.1,2.3v2.1
			c0,0-0.1,1.3-1.2,1.3h-2.4c0,0-0.8-0.6-0.8-1.5c0-0.9,0.4-1.1,0.8-1.1c0.5,0,0.8,0.1,0.8,0.1v-1.8c0,0-3.7,0-3.7,2.8
			c0,2.8,1.9,3.5,3.4,3.5h2.5c0,0,4.5-0.6,4.5-9.5C21.3,5.1,19.9,4.2,19.5,3.5 M15,11.5c0,0,0.2-1.5,1.1-1.5c0.9,0,2,2,2,2
			S15.5,11.5,15,11.5z"/>
	</g>
</g>
</svg>
