<?xml version="1.0" encoding="utf-8"?>
<!-- Generator: Adobe Illustrator 19.2.0, SVG Export Plug-In . SVG Version: 6.00 Build 0)  -->
<svg version="1.1" id="Layer_1" xmlns="http://www.w3.org/2000/svg" xmlns:xlink="http://www.w3.org/1999/xlink" x="0px" y="0px"
	 viewBox="0 0 24 24" style="enable-background:new 0 0 24 24;" xml:space="preserve">
<style type="text/css">
	.st0{display:none;}
	.st1{display:inline;}
	.st2{fill:none;stroke:#000000;stroke-linecap:round;stroke-linejoin:round;stroke-miterlimit:10;}
	.st3{fill:none;stroke:#000000;stroke-linejoin:round;stroke-miterlimit:10;}
</style>
<g id="Filled_Icons" class="st0">
	<path class="st1" d="M12,0C5.4,0,0,5.4,0,12s5.4,12,12,12s12-5.4,12-12S18.6,0,12,0z M5.9,6.2c3.7-2.1,8.6-2.1,12.3,0
		c0.2,0.1,0.3,0.4,0.2,0.7c-0.1,0.2-0.3,0.3-0.4,0.3c-0.1,0-0.2,0-0.2-0.1c-3.4-2-7.9-2-11.3,0C6.1,7.2,5.8,7.1,5.7,6.9
		C5.5,6.7,5.6,6.4,5.9,6.2z M15.7,10.9c-0.2,0.2-0.5,0.2-0.7,0c-1-0.9-2.5-1.3-3.8-1c-0.8,0.1-1.6,0.5-2.2,1c-0.2,0.2-0.5,0.2-0.7,0
		c-0.2-0.2-0.2-0.5,0-0.7C8.5,10,8.8,9.9,9,9.7c0,0,0.1-0.1,0.1-0.1c1.9-1.1,4.4-1,6.2,0.3c0.1,0.1,0.3,0.2,0.4,0.3
		c0.1,0.1,0.2,0.2,0.2,0.3C15.8,10.7,15.8,10.8,15.7,10.9z M7.6,9C7.4,9.2,7.1,9.1,6.9,8.9C6.8,8.6,6.9,8.3,7.1,8.2
		c2.9-1.9,7-1.9,9.9,0.1c0.2,0.2,0.3,0.5,0.1,0.7c-0.1,0.1-0.3,0.2-0.4,0.2c-0.1,0-0.2,0-0.3-0.1C13.9,7.3,10.3,7.3,7.6,9z
		 M19.4,18.8C19.3,18.9,19.1,19,19,19h-3.4c-0.2,0-0.4-0.2-0.5-0.4c-0.3-1.2-1.6-2.6-3.1-2.6c-1.5,0-2.8,1.1-3.1,2.5
		c0,0.2-0.3,0.4-0.5,0.4H5c-0.1,0-0.3-0.1-0.4-0.2c-0.1-0.1-0.1-0.2-0.1-0.4c0.4-3.8,3.6-6.7,7.5-6.7c3.9,0,7.1,2.9,7.5,6.7
		C19.5,18.6,19.5,18.7,19.4,18.8z"/>
</g>
<g id="Outline_Icons">
	<g>
		<circle class="st2" cx="12" cy="12" r="11.5"/>
		<g>
			<path class="st2" d="M17.9,6.7c-3.6-2-8.2-2-11.8,0"/>
			<path class="st2" d="M8.7,10.6c1.8-1.6,4.8-1.6,6.7,0"/>
			<path class="st2" d="M16.7,8.7C14,6.8,10.2,6.8,7.4,8.6"/>
			<path class="st2" d="M15.3,10.6c-1.8-1.6-4.8-1.6-6.7,0"/>
			<path class="st3" d="M8.4,18.5c0.3-1.7,1.8-2.9,3.6-2.9c1.8,0,3.3,1.5,3.6,2.9H19c-0.4-3.5-3.4-6.3-7-6.3c-3.6,0-6.6,2.7-7,6.3
				H8.4z"/>
		</g>
	</g>
</g>
</svg>
