<?xml version="1.0" encoding="utf-8"?>
<!-- Generator: Adobe Illustrator 19.2.0, SVG Export Plug-In . SVG Version: 6.00 Build 0)  -->
<svg version="1.1" id="Layer_1" xmlns="http://www.w3.org/2000/svg" xmlns:xlink="http://www.w3.org/1999/xlink" x="0px" y="0px"
	 viewBox="0 0 24 24" style="enable-background:new 0 0 24 24;" xml:space="preserve">
<style type="text/css">
	.st0{display:none;}
	.st1{display:inline;}
	.st2{fill:none;stroke:#000000;stroke-linecap:round;stroke-linejoin:round;stroke-miterlimit:10;}
	.st3{fill:none;stroke:#000000;stroke-linejoin:round;stroke-miterlimit:10;}
</style>
<g id="Filled_Icons" class="st0">
	<path class="st1" d="M12,0C5.4,0,0,5.4,0,12s5.4,12,12,12s12-5.4,12-12S18.6,0,12,0z M5.5,10.5l4.3,2.2l-4.3,2.6V10.5z M18.5,17.5
		h-13v-1.1l5.3-3.2l1.2,0.6l1.1-0.6l5.4,3.1V17.5z M18.5,15.2l-4.3-2.5l4.3-2.2V15.2z M18.5,8.2L12,11.6L5.5,8.2V6.5h13V8.2z"/>
</g>
<g id="Outline_Icons">
	<g>
		<circle class="st2" cx="12" cy="12" r="11.5"/>
		<g>
			<polygon class="st3" points="18.5,8.2 12,11.6 5.5,8.2 5.5,6.5 18.5,6.5 			"/>
			<polygon class="st3" points="5.5,10.5 12,13.8 18.5,10.5 18.5,17.5 5.5,17.5 			"/>
			<line class="st3" x1="13.7" y1="13" x2="18.5" y2="15.8"/>
			<line class="st3" x1="10.3" y1="13" x2="5.5" y2="15.8"/>
		</g>
	</g>
</g>
</svg>
