<?xml version="1.0" encoding="utf-8"?>
<!-- Generator: Adobe Illustrator 19.2.0, SVG Export Plug-In . SVG Version: 6.00 Build 0)  -->
<svg version="1.1" id="Layer_1" xmlns="http://www.w3.org/2000/svg" xmlns:xlink="http://www.w3.org/1999/xlink" x="0px" y="0px"
	 viewBox="0 0 24 24" style="enable-background:new 0 0 24 24;" xml:space="preserve">
<style type="text/css">
	.st0{display:none;}
	.st1{display:inline;}
	.st2{fill:none;stroke:#000000;stroke-linecap:round;stroke-linejoin:round;stroke-miterlimit:10;}
</style>
<g id="Filled_Icons" class="st0">
	<path class="st1" d="M12,0C5.4,0,0,5.4,0,12s5.4,12,12,12s12-5.4,12-12S18.6,0,12,0z M17,11.9c1,0.3,2.3,0.7,2.3,2.5
		c0,1.5-0.9,2.5-2.5,2.5c-2.7,0-3.5-2.1-4.1-4c-0.7-2-1.4-3.8-4-3.8c-1.9,0-3.4,1.5-3.4,3.4s1.5,3.4,3.4,3.4c1.1,0,2.1-0.5,2.7-1.4
		c0.2-0.2,0.5-0.3,0.7-0.1c0.2,0.2,0.3,0.5,0.1,0.7c-0.8,1.1-2.1,1.8-3.5,1.8c-2.4,0-4.4-2-4.4-4.4s2-4.4,4.4-4.4
		c3.3,0,4.2,2.4,5,4.4c0.8,2.1,1.3,3.3,3.2,3.3c1,0,1.5-0.5,1.5-1.5c0-1-0.5-1.2-1.6-1.6c-1-0.3-2.3-0.8-2.3-2.6
		c0-0.7,0.3-1.3,0.9-1.7c1.3-0.9,4-0.5,4,1.2c0,0.3-0.2,0.5-0.5,0.5c-0.3,0-0.5-0.2-0.5-0.5c0-0.4-0.6-0.7-1.4-0.7
		c-0.8,0-1.5,0.3-1.5,1.1C15.3,11.3,15.9,11.6,17,11.9z"/>
</g>
<g id="Outline_Icons">
	<g>
		<circle class="st2" cx="12" cy="12" r="11.5"/>
		<path class="st2" d="M11.7,14.8c-0.7,1-1.8,1.6-3.1,1.6c-2.1,0-3.9-1.7-3.9-3.9s1.7-3.9,3.9-3.9c5.7,0,3.3,7.8,8.2,7.8
			c1.2,0,2-0.7,2-1.9c0-2.4-3.9-1.2-3.9-4.2c0-2.2,3.9-2,3.9-0.5"/>
	</g>
</g>
</svg>
