<?xml version="1.0" encoding="utf-8"?>
<!-- Generator: Adobe Illustrator 19.2.0, SVG Export Plug-In . SVG Version: 6.00 Build 0)  -->
<svg version="1.1" id="Layer_1" xmlns="http://www.w3.org/2000/svg" xmlns:xlink="http://www.w3.org/1999/xlink" x="0px" y="0px"
	 viewBox="0 0 24 24" style="enable-background:new 0 0 24 24;" xml:space="preserve">
<style type="text/css">
	.st0{display:none;}
	.st1{display:inline;}
	.st2{fill:none;stroke:#000000;stroke-linejoin:round;stroke-miterlimit:10;}
</style>
<g id="Filled_Icons" class="st0">
	<g class="st1">
		<path d="M16.8,9.8c-0.3,0-0.5,0.2-0.5,0.5c0,0.3,0.2,0.5,0.5,0.5s0.5-0.2,0.5-0.5C17.3,10,17.1,9.8,16.8,9.8z"/>
		<path d="M18.7,6.3c-2.7,0-4.9,1.6-6.4,3.2C10.6,7.2,8.4,6,6.1,6.2C3,6.6,0.7,8.4,0.5,11.7c-0.1,1.8,0.4,4.8,4.7,4.8
			c2.7,0,4.9-1.6,6.4-3.2c1.6,2.3,3.8,3.5,6.2,3.3c3-0.4,5.4-2.2,5.6-5.5C23.6,9.4,23.1,6.3,18.7,6.3z M10.4,11.5
			c-0.7,1.3-2.6,1.6-4,1.6c-0.2,0-0.2,0.1-0.1,0.3C6.4,13.6,6.9,14,7,14.1c0.2,0.2,0.1,0.2-0.1,0.3c-0.8,0.3-1.9,0.1-2.7-0.7
			c-0.7-0.7-1.3-2.1-0.8-3.6c0.4-1.2,1.7-2,3.1-1.9c0.8,0.1,1.4,0.4,1.9,0.9c0.8,0.8,1.4,1.6,2,2C10.5,11.2,10.5,11.3,10.4,11.5z
			 M19.6,13.6c-0.7,0.7-1.6,0.9-2.5,0.7c-0.2,0-0.4-0.1-0.4-0.3c0-0.3,0-1.1,0-1.8c0-0.1-0.2-0.2-0.3-0.1c-1.2,0.4-2.4,0.4-3-0.8
			c-0.1-0.2-0.1-0.3,0.1-0.4c0.6-0.5,1.2-1.3,2-2c0.5-0.4,1.1-0.8,1.9-0.9C18.6,8,20,8.8,20.4,10C20.9,11.5,20.2,12.9,19.6,13.6z"/>
		<circle cx="6.9" cy="10.4" r="0.5"/>
	</g>
</g>
<g id="Outline_Icons">
	<g>
		<path class="st2" d="M13.3,11.4c0.6,1.1,1.8,1.2,3,0.8c0.1-0.1,0.3,0,0.3,0.1c0.1,0.7,0,1.4,0,1.8c0,0.2,0.3,0.3,0.4,0.3
			c0.8,0.2,1.7,0,2.5-0.7c0.7-0.7,1.3-2.1,0.8-3.6c-0.4-1.2-1.7-2-3.1-1.9c-0.8,0.1-1.4,0.4-1.9,0.8c-0.8,0.8-1.4,1.6-2,2
			C13.2,11.1,13.2,11.2,13.3,11.4L13.3,11.4z M16.3,10.3c0-0.3,0.2-0.5,0.5-0.5s0.5,0.2,0.5,0.5c0,0.3-0.2,0.5-0.5,0.5
			S16.3,10.6,16.3,10.3L16.3,10.3z M6.5,13.1c1.4,0,3.3-0.3,4-1.6c0.1-0.2,0.1-0.3-0.1-0.4c-0.6-0.5-1.2-1.3-2-2
			C7.9,8.7,7.2,8.3,6.5,8.2C5.1,8.1,3.8,9,3.4,10.1c-0.5,1.5,0.1,2.9,0.8,3.6c0.8,0.8,1.9,0.9,2.7,0.6c0.2-0.1,0.3-0.1,0.1-0.3
			c-0.2-0.1-0.6-0.5-0.7-0.7C6.3,13.2,6.3,13.1,6.5,13.1L6.5,13.1z M6.9,10.9c-0.3,0-0.5-0.2-0.5-0.5s0.2-0.5,0.5-0.5
			c0.3,0,0.5,0.2,0.5,0.5C7.4,10.7,7.2,10.9,6.9,10.9L6.9,10.9z"/>
		<path class="st2" d="M11.6,13.3c1.6,2.3,3.8,3.5,6.2,3.3c3-0.4,5.3-2.2,5.6-5.5c0.1-1.8-0.4-4.8-4.8-4.8c-2.7,0-4.9,1.6-6.4,3.2
			C10.6,7.2,8.4,6,6.1,6.2C3,6.6,0.7,8.4,0.5,11.7c-0.1,1.8,0.4,4.8,4.7,4.8C7.9,16.5,10.1,14.9,11.6,13.3L11.6,13.3z"/>
	</g>
</g>
</svg>
