<?xml version="1.0" encoding="utf-8"?>
<!-- Generator: Adobe Illustrator 19.2.0, SVG Export Plug-In . SVG Version: 6.00 Build 0)  -->
<svg version="1.1" id="Layer_1" xmlns="http://www.w3.org/2000/svg" xmlns:xlink="http://www.w3.org/1999/xlink" x="0px" y="0px"
	 viewBox="0 0 24 24" style="enable-background:new 0 0 24 24;" xml:space="preserve">
<style type="text/css">
	.st0{display:none;}
	.st1{display:inline;}
	.st2{fill:none;stroke:#000000;stroke-linejoin:round;stroke-miterlimit:10;}
</style>
<g id="Filled_Icons" class="st0">
	<g class="st1">
		<path d="M12.4,12.2c-2.5,0.1-2.5-4.5-0.9-5C14,6.5,14.4,12.1,12.4,12.2z"/>
		<path d="M13.9,20.7c-9.8,0-4.2-10.1-13.4-10.1c0-1,0-2,0-3.1c12.3,0,5.6,9.6,13.5,10.1c5,0.3,5.5-5.5,6-7.7c0.3-1.1,0.7-2,2-1.8
			c1.2,0.2,1.4,1.2,1.4,2.2C23.7,15.5,20.8,20.7,13.9,20.7z"/>
		<path d="M16.6,5.2C19,5.4,19,11.1,16.9,11C14.9,10.9,14.7,5.1,16.6,5.2z"/>
	</g>
</g>
<g id="Outline_Icons">
	<g>
		<path class="st2" d="M12.4,12.2c-2.5,0.1-2.5-4.5-0.9-5C14,6.5,14.4,12.1,12.4,12.2z"/>
		<path class="st2" d="M13.9,20.7c-9.8,0-4.2-10.1-13.4-10.1c0-1,0-2,0-3.1c12.3,0,5.6,9.6,13.5,10.1c5,0.3,5.5-5.5,6-7.7
			c0.3-1.1,0.7-2,2-1.8c1.2,0.2,1.4,1.2,1.4,2.2C23.7,15.5,20.8,20.7,13.9,20.7z"/>
		<path class="st2" d="M16.6,5.2C19,5.4,19,11.1,16.9,11C14.9,10.9,14.7,5.1,16.6,5.2z"/>
	</g>
</g>
</svg>
