<?xml version="1.0" encoding="utf-8"?>
<!-- Generator: Adobe Illustrator 19.2.0, SVG Export Plug-In . SVG Version: 6.00 Build 0)  -->
<svg version="1.1" id="Layer_1" xmlns="http://www.w3.org/2000/svg" xmlns:xlink="http://www.w3.org/1999/xlink" x="0px" y="0px"
	 viewBox="0 0 24 24" style="enable-background:new 0 0 24 24;" xml:space="preserve">
<style type="text/css">
	.st0{display:none;}
	.st1{display:inline;}
	.st2{fill:none;stroke:#000000;stroke-linejoin:round;stroke-miterlimit:10;}
</style>
<g id="Filled_Icons" class="st0">
	<g class="st1">
		<path d="M13,21.9l0.8-2.6l-2.2-1.7c-0.5-0.4-0.7-1.1-0.5-1.7c0.2-0.6,0.8-1,1.4-1h2.7l0.8-2.5c0.2-0.6,0.8-1,1.4-1
			c0.6,0,1.2,0.4,1.4,1l0.8,2.5h2.7c0,0,0,0,0,0L17.9,1.8c-0.1-0.2-0.3-0.4-0.5-0.3c-0.2,0-0.4,0.1-0.5,0.3L13.3,13H1.5
			c-0.2,0-0.4,0.1-0.5,0.4c-0.1,0.2,0,0.4,0.2,0.6L13,21.9C13,22,13,21.9,13,21.9z"/>
		<path d="M22.9,16.3c-0.1-0.2-0.3-0.3-0.5-0.3H19l-1.1-3.1c-0.1-0.4-0.8-0.4-0.9,0L15.9,16h-3.4c-0.2,0-0.4,0.1-0.5,0.3
			s0,0.4,0.2,0.6L15,19l-1.1,3.2c-0.1,0.2,0,0.4,0.2,0.6c0.1,0.1,0.2,0.1,0.3,0.1c0.1,0,0.2,0,0.3-0.1l2.8-2l2.8,2
			c0.2,0.1,0.4,0.1,0.6,0s0.2-0.4,0.2-0.6L19.9,19l2.8-2.1C22.9,16.8,22.9,16.5,22.9,16.3z"/>
	</g>
</g>
<g id="Outline_Icons">
	<g>
		<polygon class="st2" points="20.5,22.4 17.4,20.2 14.4,22.4 15.6,18.8 12.5,16.5 16.3,16.5 17.4,13 18.6,16.5 22.4,16.5 
			19.3,18.8 		"/>
		<polyline class="st2" points="22.4,16.5 17.4,2 13.6,13.5 1.5,13.5 14.4,22.4 		"/>
	</g>
</g>
</svg>
