<?xml version="1.0" encoding="utf-8"?>
<!-- Generator: Adobe Illustrator 19.2.0, SVG Export Plug-In . SVG Version: 6.00 Build 0)  -->
<svg version="1.1" id="Layer_1" xmlns="http://www.w3.org/2000/svg" xmlns:xlink="http://www.w3.org/1999/xlink" x="0px" y="0px"
	 viewBox="0 0 24 24" style="enable-background:new 0 0 24 24;" xml:space="preserve">
<style type="text/css">
	.st0{display:none;}
	.st1{display:inline;}
	.st2{fill:none;stroke:#000000;stroke-linecap:round;stroke-linejoin:round;stroke-miterlimit:10;}
	.st3{fill:none;stroke:#000000;stroke-linejoin:round;stroke-miterlimit:10;}
</style>
<g id="Filled_Icons" class="st0">
	<path class="st1" d="M12,0C5.4,0,0,5.4,0,12s5.4,12,12,12s12-5.4,12-12S18.6,0,12,0z M20,9h-1.5l-4.1,8.4c-0.1,0.2-0.3,0.3-0.4,0.3
		c0,0,0,0,0,0c-0.2,0-0.4-0.1-0.4-0.3l-1.6-3.9L10,17.4c-0.1,0.2-0.3,0.3-0.4,0.3c0,0,0,0,0,0c-0.2,0-0.4-0.1-0.4-0.3L5.7,9H4V8h4v1
		H6.7l2.8,7l1.8-3.7L10,9H9V8h2v0.7l1,2.4L13,9V8h2v1h-0.9l-1.6,3.3L14,16l3.4-7H16V8h4V9z"/>
</g>
<g id="Outline_Icons">
	<g>
		<circle class="st2" cx="12" cy="12" r="11.5"/>
		<polyline class="st3" points="6,8.5 9.5,17.2 13.8,8.5 		"/>
		<line class="st3" x1="8" y1="8.5" x2="4" y2="8.5"/>
		<line class="st3" x1="15" y1="8.5" x2="13" y2="8.5"/>
		<polyline class="st3" points="10.4,8.5 13.9,17.2 18.2,8.5 		"/>
		<line class="st3" x1="11" y1="8.5" x2="9" y2="8.5"/>
		<line class="st3" x1="20" y1="8.5" x2="16" y2="8.5"/>
	</g>
</g>
</svg>
