<?xml version="1.0" encoding="utf-8"?>
<!-- Generator: Adobe Illustrator 19.2.0, SVG Export Plug-In . SVG Version: 6.00 Build 0)  -->
<svg version="1.1" id="Layer_1" xmlns="http://www.w3.org/2000/svg" xmlns:xlink="http://www.w3.org/1999/xlink" x="0px" y="0px"
	 viewBox="0 0 24 24" style="enable-background:new 0 0 24 24;" xml:space="preserve">
<style type="text/css">
	.st0{display:none;}
	.st1{display:inline;}
	.st2{fill:none;stroke:#000000;stroke-linecap:round;stroke-linejoin:round;stroke-miterlimit:10;}
</style>
<g id="Filled_Icons" class="st0">
	<path class="st1" d="M12,0C5.4,0,0,5.4,0,12s5.4,12,12,12s12-5.4,12-12S18.6,0,12,0z M9.3,5.1c0.3,0,0.6,0.3,0.6,0.6
		c0,0.3-0.3,0.6-0.6,0.6c-0.3,0-0.6-0.3-0.6-0.6C8.7,5.4,8.9,5.1,9.3,5.1z M8.5,10c0.3,0,0.6,0.3,0.6,0.6s-0.3,0.6-0.6,0.6
		c-0.3,0-0.6-0.3-0.6-0.6S8.2,10,8.5,10z M5.6,15.5c-0.3,0-0.6-0.3-0.6-0.6c0-0.3,0.3-0.6,0.6-0.6c0.3,0,0.6,0.3,0.6,0.6
		C6.2,15.2,5.9,15.5,5.6,15.5z M5.6,10C5.3,10,5,9.7,5,9.4C5,9,5.3,8.8,5.6,8.8c0.3,0,0.6,0.3,0.6,0.6C6.2,9.7,5.9,10,5.6,10z
		 M7.9,13.4c0-0.3,0.3-0.6,0.6-0.6s0.6,0.3,0.6,0.6c0,0.3-0.3,0.6-0.6,0.6C8.2,14,7.9,13.7,7.9,13.4z M9.3,19.1
		c-0.3,0-0.6-0.3-0.6-0.6c0-0.3,0.3-0.6,0.6-0.6c0.3,0,0.6,0.3,0.6,0.6C9.9,18.9,9.6,19.1,9.3,19.1z M10.5,16
		c-0.3,0-0.6-0.3-0.6-0.6c0-0.3,0.3-0.6,0.6-0.6c0.3,0,0.6,0.3,0.6,0.6C11.1,15.7,10.8,16,10.5,16z M10.5,9.3
		c-0.3,0-0.6-0.3-0.6-0.6c0-0.3,0.3-0.6,0.6-0.6c0.3,0,0.6,0.3,0.6,0.6C11.1,9,10.8,9.3,10.5,9.3z M14.7,5.1c0.3,0,0.6,0.3,0.6,0.6
		c0,0.3-0.3,0.6-0.6,0.6s-0.6-0.3-0.6-0.6C14.1,5.4,14.4,5.1,14.7,5.1z M13.2,16c-0.3,0-0.6-0.3-0.6-0.6c0-0.3,0.3-0.6,0.6-0.6
		s0.6,0.3,0.6,0.6C13.8,15.7,13.6,16,13.2,16z M13.2,9.3c-0.3,0-0.6-0.3-0.6-0.6c0-0.3,0.3-0.6,0.6-0.6s0.6,0.3,0.6,0.6
		C13.8,9,13.6,9.3,13.2,9.3z M14.7,19.1c-0.3,0-0.6-0.3-0.6-0.6c0-0.3,0.3-0.6,0.6-0.6c0.3,0,0.6,0.3,0.6,0.6
		C15.3,18.9,15.1,19.1,14.7,19.1z M15.2,14c-0.3,0-0.6-0.3-0.6-0.6c0-0.3,0.3-0.6,0.6-0.6c0.3,0,0.6,0.3,0.6,0.6
		C15.8,13.7,15.5,14,15.2,14z M15.2,11.2c-0.3,0-0.6-0.3-0.6-0.6c0-0.3,0.3-0.6,0.6-0.6c0.3,0,0.6,0.3,0.6,0.6
		C15.8,11,15.5,11.2,15.2,11.2z M18.4,15.5c-0.3,0-0.6-0.3-0.6-0.6c0-0.3,0.3-0.6,0.6-0.6c0.3,0,0.6,0.3,0.6,0.6
		C19,15.2,18.7,15.5,18.4,15.5z M18.4,10c-0.3,0-0.6-0.3-0.6-0.6c0-0.3,0.3-0.6,0.6-0.6C18.7,8.8,19,9,19,9.4
		C19,9.7,18.7,10,18.4,10z"/>
</g>
<g id="Outline_Icons">
	<g>
		<circle class="st2" cx="12" cy="12" r="11.5"/>
		<g>
			<g>
				<path d="M13.2,8.1c-0.3,0-0.6,0.3-0.6,0.6c0,0.3,0.3,0.6,0.6,0.6s0.6-0.3,0.6-0.6C13.8,8.3,13.6,8.1,13.2,8.1L13.2,8.1z"/>
			</g>
			<g>
				<path d="M10.5,8.1c-0.3,0-0.6,0.3-0.6,0.6c0,0.3,0.3,0.6,0.6,0.6c0.3,0,0.6-0.3,0.6-0.6C11.1,8.3,10.8,8.1,10.5,8.1L10.5,8.1z"
					/>
			</g>
			<g>
				<path d="M14.7,5.1c-0.3,0-0.6,0.3-0.6,0.6c0,0.3,0.3,0.6,0.6,0.6c0.3,0,0.6-0.3,0.6-0.6C15.3,5.4,15.1,5.1,14.7,5.1L14.7,5.1z"
					/>
			</g>
			<g>
				<path d="M9.3,5.1c-0.3,0-0.6,0.3-0.6,0.6c0,0.3,0.3,0.6,0.6,0.6c0.3,0,0.6-0.3,0.6-0.6C9.9,5.4,9.6,5.1,9.3,5.1L9.3,5.1z"/>
			</g>
			<g>
				<path d="M14.7,17.9c-0.3,0-0.6,0.3-0.6,0.6c0,0.3,0.3,0.6,0.6,0.6c0.3,0,0.6-0.3,0.6-0.6C15.3,18.2,15.1,17.9,14.7,17.9
					L14.7,17.9z"/>
			</g>
			<g>
				<path d="M9.3,17.9c-0.3,0-0.6,0.3-0.6,0.6c0,0.3,0.3,0.6,0.6,0.6c0.3,0,0.6-0.3,0.6-0.6C9.9,18.2,9.6,17.9,9.3,17.9L9.3,17.9z"
					/>
			</g>
			<g>
				<path d="M18.4,14.3c-0.3,0-0.6,0.3-0.6,0.6c0,0.3,0.3,0.6,0.6,0.6c0.3,0,0.6-0.3,0.6-0.6C19,14.5,18.7,14.3,18.4,14.3L18.4,14.3
					z"/>
			</g>
			<g>
				<path d="M18.4,8.8c-0.3,0-0.6,0.3-0.6,0.6c0,0.3,0.3,0.6,0.6,0.6c0.3,0,0.6-0.3,0.6-0.6C19,9,18.7,8.8,18.4,8.8L18.4,8.8z"/>
			</g>
			<g>
				<path d="M5.6,14.3c-0.3,0-0.6,0.3-0.6,0.6c0,0.3,0.3,0.6,0.6,0.6c0.3,0,0.6-0.3,0.6-0.6C6.2,14.5,5.9,14.3,5.6,14.3L5.6,14.3z"
					/>
			</g>
			<g>
				<path d="M5.6,8.8C5.3,8.8,5,9,5,9.4C5,9.7,5.3,10,5.6,10c0.3,0,0.6-0.3,0.6-0.6C6.2,9,5.9,8.8,5.6,8.8L5.6,8.8z"/>
			</g>
			<g>
				<path d="M13.2,14.8c-0.3,0-0.6,0.3-0.6,0.6c0,0.3,0.3,0.6,0.6,0.6s0.6-0.3,0.6-0.6C13.8,15,13.6,14.8,13.2,14.8L13.2,14.8z"/>
			</g>
			<g>
				<path d="M10.5,14.8c-0.3,0-0.6,0.3-0.6,0.6c0,0.3,0.3,0.6,0.6,0.6c0.3,0,0.6-0.3,0.6-0.6C11.1,15,10.8,14.8,10.5,14.8L10.5,14.8
					z"/>
			</g>
			<g>
				<path d="M15.2,12.8c-0.3,0-0.6,0.3-0.6,0.6c0,0.3,0.3,0.6,0.6,0.6c0.3,0,0.6-0.3,0.6-0.6C15.8,13,15.5,12.8,15.2,12.8L15.2,12.8
					z"/>
			</g>
			<g>
				<path d="M15.2,10c-0.3,0-0.6,0.3-0.6,0.6s0.3,0.6,0.6,0.6c0.3,0,0.6-0.3,0.6-0.6C15.8,10.3,15.5,10,15.2,10L15.2,10z"/>
			</g>
			<g>
				<path d="M8.5,12.8c-0.3,0-0.6,0.3-0.6,0.6c0,0.3,0.3,0.6,0.6,0.6s0.6-0.3,0.6-0.6C9.1,13,8.8,12.8,8.5,12.8L8.5,12.8z"/>
			</g>
			<g>
				<path d="M8.5,10c-0.3,0-0.6,0.3-0.6,0.6s0.3,0.6,0.6,0.6s0.6-0.3,0.6-0.6S8.8,10,8.5,10L8.5,10z"/>
			</g>
		</g>
	</g>
</g>
</svg>
