<?xml version="1.0" encoding="utf-8"?>
<!-- Generator: Adobe Illustrator 19.2.0, SVG Export Plug-In . SVG Version: 6.00 Build 0)  -->
<svg version="1.1" id="Layer_1" xmlns="http://www.w3.org/2000/svg" xmlns:xlink="http://www.w3.org/1999/xlink" x="0px" y="0px"
	 viewBox="0 0 24 24" style="enable-background:new 0 0 24 24;" xml:space="preserve">
<style type="text/css">
	.st0{display:none;}
	.st1{display:inline;}
	.st2{fill:none;stroke:#000000;stroke-linecap:round;stroke-linejoin:round;stroke-miterlimit:10;}
</style>
<g id="Filled_Icons" class="st0">
	<g class="st1">
		<path d="M12.6,11.7c-1.2,0-2.6,1.7-3.1,3.3c-0.4,1.3-0.4,2.3-0.1,2.8c0.2,0.2,0.4,0.3,0.8,0.4c0.5,0,0.9-0.5,1.4-1
			c0.2-0.4,1-2.5,1.9-4.7C13.4,12,12.9,11.7,12.6,11.7z"/>
		<path d="M12,0C5.4,0,0,5.4,0,12s5.4,12,12,12s12-5.4,12-12S18.6,0,12,0z M12.1,5.8l0.8-0.2c0.1,0,0.2-0.2,0.3-0.3l0.2-0.8
			c0-0.1,0.1-0.1,0.1,0l0.2,0.8c0,0.1,0.2,0.2,0.3,0.3l0.8,0.2c0.1,0,0.1,0.1,0,0.1L14,6.2c-0.1,0-0.2,0.2-0.3,0.3l-0.2,0.8
			c0,0.1-0.1,0.1-0.1,0l-0.2-0.8c0-0.1-0.2-0.2-0.3-0.3L12.1,6C12,5.9,12,5.9,12.1,5.8z M7.3,10.8c-0.1-0.3-0.4-0.7-0.7-0.7L4.4,9.5
			c-0.3-0.1-0.3-0.2,0-0.3l2.2-0.6c0.3-0.1,0.7-0.4,0.7-0.7l0.6-2.2c0.1-0.3,0.2-0.3,0.3,0l0.6,2.2c0.1,0.3,0.4,0.7,0.7,0.7l2.2,0.6
			c0.3,0.1,0.3,0.2,0,0.3l-2.2,0.6c-0.3,0.1-0.7,0.4-0.7,0.7c0,0-0.7,1.6-0.9,2L7.3,10.8z M15.7,17.1c-1.1,1.2-2,2-2.9,2
			c-0.3,0-0.7-0.1-0.9-0.4c-0.1-0.1-0.2-0.2-0.2-0.3c-0.4,0.4-0.9,0.7-1.5,0.7c-0.9,0-1.4-0.4-1.6-0.8c-0.7-1-0.4-2.5-0.1-3.7
			c0.5-1.6,2.2-4,4.1-4c0.5,0,1,0.3,1.3,0.6c0.6-1.5,1.1-2.9,1.3-3.8c0.1-0.3,0.3-0.4,0.6-0.4c0.3,0.1,0.4,0.3,0.4,0.6
			c-0.7,2.5-3.4,8.8-3.7,9.7c0,0.2,0.1,0.4,0.2,0.5c0.1,0.1,0.1,0.1,0.2,0.1c0.5,0,1.1-0.5,2.2-1.7c0.2-0.2,0.5-0.2,0.7,0
			C15.9,16.5,15.9,16.8,15.7,17.1z M19.9,14.2l-1.3,0.3c-0.2,0.1-0.4,0.2-0.4,0.4l-0.3,1.3c-0.1,0.2-0.1,0.2-0.2,0L17.2,15
			c-0.1-0.2-0.2-0.4-0.4-0.4l-1.3-0.3c-0.2-0.1-0.2-0.1,0-0.2l1.3-0.3c0.2-0.1,0.4-0.2,0.4-0.4l0.3-1.3c0.1-0.2,0.1-0.2,0.2,0
			l0.3,1.3c0.1,0.2,0.2,0.4,0.4,0.4l1.3,0.3C20,14.1,20,14.2,19.9,14.2z"/>
	</g>
</g>
<g id="Outline_Icons">
	<g>
		<circle class="st2" cx="12" cy="12" r="11.5"/>
		<g>
			<path class="st2" d="M14,12.5c-0.1-0.7-0.8-1.3-1.4-1.3c-1.5,0-3.1,2-3.6,3.6c-0.5,1.7-0.7,3.8,1.2,3.8c0.7,0,1.3-0.7,1.8-1.2
				c0,0.9,0.4,1.2,0.9,1.2c0.7,0,1.4-0.6,2.5-1.8 M15.7,7.6C15,10.3,12,17.4,12,17.4"/>
		</g>
		<path class="st2" d="M7.9,12.8l-0.5-2c-0.1-0.3-0.4-0.7-0.7-0.7L4.4,9.5c-0.3-0.1-0.3-0.2,0-0.3l2.2-0.6c0.3-0.1,0.7-0.4,0.7-0.7
			l0.6-2.2c0.1-0.3,0.2-0.3,0.3,0l0.6,2.2c0.1,0.3,0.4,0.7,0.7,0.7l2.2,0.6c0.3,0.1,0.3,0.2,0,0.3l-2.2,0.6
			c-0.3,0.1-0.7,0.4-0.7,0.7l-0.3,1C8.3,12.1,8.1,12.5,7.9,12.8"/>
		<path class="st2" d="M12.1,5.8l0.8-0.2c0.1,0,0.2-0.2,0.3-0.3l0.2-0.8c0-0.1,0.1-0.1,0.1,0l0.2,0.8c0,0.1,0.2,0.2,0.3,0.3l0.8,0.2
			c0.1,0,0.1,0.1,0,0.1L14,6.2c-0.1,0-0.2,0.2-0.3,0.3l-0.2,0.8c0,0.1-0.1,0.1-0.1,0l-0.2-0.8c0-0.1-0.2-0.2-0.3-0.3L12.1,6
			C12,5.9,12,5.9,12.1,5.8"/>
		<path class="st2" d="M18.5,13.7l1.3,0.3c0.2,0.1,0.2,0.1,0,0.2l-1.3,0.3c-0.2,0-0.4,0.2-0.4,0.4l-0.3,1.3c-0.1,0.2-0.1,0.2-0.2,0
			L17.2,15c0-0.2-0.2-0.4-0.4-0.4l-1.3-0.3c-0.2-0.1-0.2-0.1,0-0.2l1.3-0.3c0.2-0.1,0.4-0.2,0.4-0.4l0.3-1.3c0.1-0.2,0.1-0.2,0.2,0
			l0.3,1.3C18.2,13.5,18.4,13.7,18.5,13.7"/>
	</g>
</g>
</svg>
