<?xml version="1.0" encoding="utf-8"?>
<!-- Generator: Adobe Illustrator 19.2.0, SVG Export Plug-In . SVG Version: 6.00 Build 0)  -->
<svg version="1.1" id="Layer_1" xmlns="http://www.w3.org/2000/svg" xmlns:xlink="http://www.w3.org/1999/xlink" x="0px" y="0px"
	 viewBox="0 0 24 24" style="enable-background:new 0 0 24 24;" xml:space="preserve">
<style type="text/css">
	.st0{display:none;}
	.st1{display:inline;}
	.st2{fill:none;stroke:#000000;stroke-linejoin:round;stroke-miterlimit:10;}
</style>
<g id="Filled_Icons" class="st0">
	<path class="st1" d="M23,0H12c-0.6,0-1,0.4-1,1v10H1c-0.6,0-1,0.4-1,1v11c0,0.6,0.4,1,1,1h11c0.6,0,1-0.4,1-1V13h10
		c0.6,0,1-0.4,1-1V1C24,0.4,23.6,0,23,0z M11,22H2v-9h9V22z M22,11h-9V2h9V11z"/>
</g>
<g id="Outline_Icons">
	<g>
		<rect x="11.5" y="1.5" class="st2" width="11" height="11"/>
		<rect x="0.5" y="12.5" class="st2" width="11" height="11"/>
	</g>
</g>
</svg>
