<?xml version="1.0" encoding="utf-8"?>
<!-- Generator: Adobe Illustrator 19.2.0, SVG Export Plug-In . SVG Version: 6.00 Build 0)  -->
<svg version="1.1" id="Layer_1" xmlns="http://www.w3.org/2000/svg" xmlns:xlink="http://www.w3.org/1999/xlink" x="0px" y="0px"
	 viewBox="0 0 24 24" style="enable-background:new 0 0 24 24;" xml:space="preserve">
<style type="text/css">
	.st0{display:none;}
	.st1{display:inline;}
	.st2{fill:none;stroke:#000000;stroke-linecap:round;stroke-linejoin:round;stroke-miterlimit:10;}
	.st3{fill:none;stroke:#000000;stroke-linejoin:round;stroke-miterlimit:10;}
</style>
<g id="Filled_Icons" class="st0">
	<g class="st1">
		<path d="M12,0C5.4,0,0,5.4,0,12s5.4,12,12,12s12-5.4,12-12S18.6,0,12,0z M18.2,15.7c-0.2,0.2-0.4,0.3-0.6,0.5
			c-0.6,0.5-4.2,3.2-5.1,3.7c-0.9,0.6-1.2,0.4-1.3,0.2c-0.1-0.2,0.2-0.8,0.3-1.4c0.1-0.6,0-0.8-0.6-0.9c0,0-0.1,0-0.1,0
			c-4.1-0.5-7.3-3.5-7.3-7c0-3.9,3.8-7.1,8.5-7.1c4.7,0,8.5,3.2,8.5,7.1C20.5,12.7,19.6,14.4,18.2,15.7z"/>
		<g>
			<path d="M7.5,12H7V9.5C7,9.3,6.8,9,6.5,9S6,9.3,6,9.5v3C6,12.8,6.2,13,6.5,13h1C7.8,13,8,12.8,8,12.5C8,12.2,7.8,12,7.5,12z"/>
			<path d="M9.5,9C9.2,9,9,9.3,9,9.5v3C9,12.8,9.2,13,9.5,13s0.5-0.2,0.5-0.5v-3C10,9.3,9.8,9,9.5,9z"/>
			<path d="M13.5,9C13.2,9,13,9.3,13,9.5v1.3l-1.1-1.6c-0.1-0.2-0.4-0.3-0.6-0.2C11.1,9.1,11,9.3,11,9.5v3c0,0.3,0.2,0.5,0.5,0.5
				s0.5-0.2,0.5-0.5v-1.3l1.1,1.6c0.1,0.1,0.3,0.2,0.4,0.2c0.3,0,0.5-0.2,0.5-0.5v-3C14,9.3,13.8,9,13.5,9z"/>
			<path d="M17.5,11.5c0.3,0,0.5-0.2,0.5-0.5s-0.2-0.5-0.5-0.5H16V10h1.5c0.3,0,0.5-0.2,0.5-0.5S17.8,9,17.5,9h-2
				C15.2,9,15,9.2,15,9.5v3c0,0.3,0.2,0.5,0.5,0.5h2c0.3,0,0.5-0.2,0.5-0.5c0-0.3-0.2-0.5-0.5-0.5H16v-0.5H17.5z"/>
		</g>
	</g>
</g>
<g id="Outline_Icons">
	<g>
		<circle class="st2" cx="12" cy="12" r="11.5"/>
		<g id="Layer_1_1_">
			<path class="st3" d="M18.2,15.7c-0.2,0.2-0.4,0.3-0.6,0.5c-0.6,0.5-4.2,3.2-5.1,3.7c-0.9,0.6-1.2,0.4-1.3,0.2
				c-0.1-0.2,0.2-0.8,0.3-1.4c0.1-0.6,0-0.8-0.6-0.9c0,0-0.1,0-0.1,0c-4.1-0.5-7.3-3.5-7.3-7c0-3.9,3.8-7.1,8.5-7.1
				c4.7,0,8.5,3.2,8.5,7.1C20.5,12.7,19.6,14.4,18.2,15.7z"/>
		</g>
		<polyline class="st2" points="6.5,9.5 6.5,12.5 7.5,12.5 		"/>
		<line class="st2" x1="9.5" y1="9.5" x2="9.5" y2="12.5"/>
		<polyline class="st2" points="11.5,12.5 11.5,9.5 13.5,12.5 13.5,9.5 		"/>
		<polyline class="st2" points="17.5,9.5 15.5,9.5 15.5,12.5 17.5,12.5 		"/>
		<line class="st2" x1="15.5" y1="11" x2="17.5" y2="11"/>
	</g>
</g>
</svg>
