<?xml version="1.0" encoding="utf-8"?>
<!-- Generator: Adobe Illustrator 19.2.0, SVG Export Plug-In . SVG Version: 6.00 Build 0)  -->
<svg version="1.1" id="Layer_1" xmlns="http://www.w3.org/2000/svg" xmlns:xlink="http://www.w3.org/1999/xlink" x="0px" y="0px"
	 viewBox="0 0 24 24" style="enable-background:new 0 0 24 24;" xml:space="preserve">
<style type="text/css">
	.st0{display:none;}
	.st1{display:inline;}
	.st2{fill:none;stroke:#000000;stroke-linecap:round;stroke-linejoin:round;stroke-miterlimit:10;}
	.st3{fill:none;stroke:#000000;stroke-linejoin:round;stroke-miterlimit:10;}
</style>
<g id="Filled_Icons" class="st0">
	<path class="st1" d="M12,0C5.4,0,0,5.4,0,12s5.4,12,12,12s12-5.4,12-12S18.6,0,12,0z M11.9,6.7L7.5,9.3v5.3l4.4,2.7l2.1-1.2
		c0.5-0.3,1.1-0.1,1.4,0.4c0.3,0.5,0.1,1.1-0.3,1.4l-2.3,1.3c-0.8,0.5-1,0.5-1.8,0l-4.6-2.8c-0.9-0.5-0.9-0.6-0.9-1.6V9.2
		c0-1,0-1.1,0.9-1.6h0L11,4.9c0.9-0.5,1-0.5,1.8,0L15,6.1c0.5,0.3,0.7,0.9,0.4,1.4C15.1,8,14.5,8.2,14,7.9L11.9,6.7z M11.9,10L10,11
		v2.5c0,0.3-0.2,0.5-0.5,0.5S9,13.8,9,13.5v-2.8c0-0.2,0.1-0.4,0.3-0.4l2.2-1.2C11.7,9,12,9,12.1,9.3C12.3,9.5,12.2,9.8,11.9,10z
		 M18.5,14.9c0,0.3-0.3,0.6-0.6,0.6h-0.7c-0.3,0-0.7-0.3-0.7-0.6V9.1c0-0.3,0.4-0.6,0.7-0.6h0.7c0.3,0,0.6,0.2,0.6,0.6V14.9z"/>
</g>
<g id="Outline_Icons">
	<g>
		<circle class="st2" cx="12" cy="12" r="11.5"/>
		<g>
			<path class="st3" d="M7.5,9.3l4.4-2.7L14,7.9c0.5,0.3,1.1,0.1,1.4-0.4C15.7,7,15.5,6.4,15,6.1l-2.2-1.3c-0.9-0.5-1-0.5-1.8,0
				L6.4,7.6h0C5.5,8.1,5.5,8.3,5.5,9.2v5.5c0,1,0,1.1,0.9,1.6l4.6,2.8c0.9,0.5,1,0.5,1.8,0l2.3-1.3c0.4-0.3,0.6-0.9,0.3-1.4
				c-0.3-0.5-0.9-0.6-1.4-0.4l-2.1,1.2l-4.4-2.7V9.3L7.5,9.3z"/>
			<path class="st3" d="M16.5,14.9c0,0.3,0.4,0.6,0.7,0.6h0.7c0.3,0,0.6-0.3,0.6-0.6V9.1c0-0.3-0.3-0.6-0.6-0.6h-0.7
				c-0.3,0-0.7,0.2-0.7,0.6V14.9z"/>
		</g>
		<polyline class="st2" points="11.7,9.5 9.5,10.7 9.5,13.5 		"/>
	</g>
</g>
</svg>
