<?xml version="1.0" encoding="utf-8"?>
<!-- Generator: Adobe Illustrator 19.2.0, SVG Export Plug-In . SVG Version: 6.00 Build 0)  -->
<svg version="1.1" id="Layer_1" xmlns="http://www.w3.org/2000/svg" xmlns:xlink="http://www.w3.org/1999/xlink" x="0px" y="0px"
	 viewBox="0 0 24 24" style="enable-background:new 0 0 24 24;" xml:space="preserve">
<style type="text/css">
	.st0{display:none;}
	.st1{display:inline;}
	.st2{fill:none;stroke:#000000;stroke-linecap:round;stroke-linejoin:round;stroke-miterlimit:10;}
	.st3{fill:none;stroke:#000000;stroke-linejoin:round;stroke-miterlimit:10;}
</style>
<g id="Filled_Icons" class="st0">
	<g class="st1">
		<path d="M8.5,9.5C8.7,9.3,8.8,9.1,9,8.9V6H8v3.5L8.5,9.5z"/>
		<circle cx="12" cy="11.5" r="3"/>
		<path d="M10,8.1c0.6-0.3,1.3-0.6,2-0.6c1.5,0,2.8,0.8,3.4,2l2.6,0V7.8c0-1-0.8-1.8-1.8-1.8H10V8.1z M16,7h1v1h-1V7z"/>
		<path d="M12,0C5.4,0,0,5.4,0,12s5.4,12,12,12s12-5.4,12-12S18.6,0,12,0z M19,16.2c0,1.6-1.3,2.8-2.8,2.8H7.8C6.3,19,5,17.7,5,16.2
			V7.8C5,6.3,6.3,5,7.8,5h8.3C17.7,5,19,6.3,19,7.8V16.2z"/>
		<path d="M7,9.5V6.2C6.4,6.5,6,7.1,6,7.8v1.7L7,9.5z"/>
	</g>
</g>
<g id="Outline_Icons">
	<g>
		<circle class="st2" cx="12" cy="12" r="11.5"/>
		<path class="st3" d="M18.5,16.2c0,1.3-1,2.3-2.3,2.3H7.8c-1.3,0-2.3-1-2.3-2.3V7.8c0-1.3,1-2.3,2.3-2.3h8.3c1.3,0,2.3,1,2.3,2.3
			V16.2z"/>
		<line class="st3" x1="5.5" y1="9.5" x2="9.8" y2="9.5"/>
		<line class="st3" x1="14.2" y1="9.5" x2="18.5" y2="9.5"/>
		<circle class="st3" cx="12" cy="11.5" r="3"/>
		<g>
			<polygon points="17,7 16,7 16,8 17,8 			"/>
		</g>
		<line class="st3" x1="7.5" y1="5.5" x2="7.5" y2="9.5"/>
		<line class="st3" x1="9.5" y1="5.5" x2="9.5" y2="9.5"/>
	</g>
</g>
</svg>
