<?xml version="1.0" encoding="utf-8"?>
<!-- Generator: Adobe Illustrator 19.2.0, SVG Export Plug-In . SVG Version: 6.00 Build 0)  -->
<svg version="1.1" id="Layer_1" xmlns="http://www.w3.org/2000/svg" xmlns:xlink="http://www.w3.org/1999/xlink" x="0px" y="0px"
	 viewBox="0 0 24 24" style="enable-background:new 0 0 24 24;" xml:space="preserve">
<style type="text/css">
	.st0{display:none;}
	.st1{display:inline;}
	.st2{fill:none;stroke:#000000;stroke-linecap:round;stroke-linejoin:round;stroke-miterlimit:10;}
	.st3{fill:none;stroke:#000000;stroke-linejoin:round;stroke-miterlimit:10;}
</style>
<g id="Filled_Icons" class="st0">
	<g class="st1">
		<circle cx="10.4" cy="14.2" r="0.6"/>
		<path d="M12,0C5.4,0,0,5.4,0,12s5.4,12,12,12s12-5.4,12-12S18.6,0,12,0z M16.3,17.3c0.2-0.5,0.3-1.1,0.3-1.7
			c0-2.3-1.5-4.2-3.6-4.8c0.2-0.1,0.4-0.3,0.6-0.4c-0.5-1-2-3.2-4-3.3c1.4,1.4,1.6,3.4,1.6,4.5c0.1,0,0.3,0,0.4,0c2.2,0,4,1.8,4,4
			c0,2.2-1.8,4-4,4s-4-1.8-4-4c0-1.7,1.1-3.2,2.6-3.8c0-0.9-0.1-3.6-2.2-4.6C7.6,7.5,7.1,7.6,6.7,7.6c-0.1,0-0.2,0-0.3,0
			C6.1,7.5,5.9,7.3,6,7s0.3-0.4,0.6-0.4c0.2,0,0.6,0,0.9-0.3c0.3-0.2,0.4-0.7,0.3-1.2c0-0.3,0.2-0.5,0.4-0.6c0.3,0,0.5,0.2,0.6,0.4
			c0.1,0.5,0,0.9-0.1,1.2c2.8-0.7,5,2,5.9,3.9c0.2,0,0.5-0.1,0.7-0.1c2.1,0,3.7,1.7,3.7,3.7C19,15.4,17.8,16.8,16.3,17.3z"/>
	</g>
</g>
<g id="Outline_Icons">
	<g>
		<circle class="st2" cx="12" cy="12" r="11.5"/>
		<g>
			<circle class="st3" cx="11.6" cy="15.6" r="3.5"/>
			<path class="st3" d="M12.4,12.1c0.6-1,1.6-1.6,2.8-1.6c1.8,0,3.2,1.4,3.2,3.2c0,1.8-1.4,3.2-3.2,3.2c-0.1,0-0.3,0-0.4,0"/>
			<path class="st3" d="M10.6,12.2c0,0,0.5-4.4-2.8-5.6"/>
			<path class="st2" d="M6.5,7.1c0.5,0.1,2-0.2,1.7-2"/>
			<path class="st3" d="M8.3,6.8c3.6-1.3,5.9,3.8,5.9,3.8"/>
			<g>
				<path d="M10.4,13.6c-0.3,0-0.6,0.3-0.6,0.6c0,0.3,0.3,0.6,0.6,0.6c0.3,0,0.6-0.3,0.6-0.6C11,13.9,10.7,13.6,10.4,13.6L10.4,13.6
					z"/>
			</g>
		</g>
	</g>
</g>
</svg>
