<?xml version="1.0" encoding="utf-8"?>
<!-- Generator: Adobe Illustrator 19.2.0, SVG Export Plug-In . SVG Version: 6.00 Build 0)  -->
<svg version="1.1" id="Layer_1" xmlns="http://www.w3.org/2000/svg" xmlns:xlink="http://www.w3.org/1999/xlink" x="0px" y="0px"
	 viewBox="0 0 24 24" style="enable-background:new 0 0 24 24;" xml:space="preserve">
<style type="text/css">
	.st0{display:none;}
	.st1{display:inline;}
	.st2{fill:none;stroke:#000000;stroke-linecap:round;stroke-linejoin:round;stroke-miterlimit:10;}
</style>
<g id="Filled_Icons" class="st0">
	<g class="st1">
		<path d="M18.6,3.6c0.1-0.1,0.2-0.1,0.3-0.2c0.4-0.4,0.3-1-0.1-1.4c-1.2-1.1-3-1.7-5-1.7c-2,0-3.8,0.7-5.1,1.8
			C8.7,2.2,8.6,2.5,8.6,2.8c1.3-0.5,2.7-0.8,4.3-0.8C15.1,1.9,17.1,2.6,18.6,3.6z"/>
		<path d="M19.5,17.2c0.2-0.5,0.1-1-0.3-1.3c-1.3,1.5-2.1,1.5-3.1,2.3c-0.4,0.3-0.5,0.8-0.3,1.3l0.7,1.3l-2.7-0.9
			c-0.2-0.1-0.6,0-0.7,0c-2.6,1.1-5.7,0.8-8-0.8c-1.8-1.2-2.8-2.9-2.8-4.7c0-3.2,3.7-6,8-6c3.1,0,7.4,1.4,7.4,4c0,2-2.8,3.7-6.1,3.7
			c-3.3,0-6.1-1.7-6.1-3.7c0-0.5-0.3-0.8-0.7-0.9c-0.5,0.5-0.9,1.1-1.2,1.7c0.5,2.9,3.8,5,8,5c4.5,0,8.1-2.5,8.1-5.7
			c0-4.4-5.8-6-9.4-6c-5.4,0-10,3.7-10,8c0,2.5,1.3,4.8,3.7,6.4c1.7,1.2,3.8,1.8,5.9,1.8c1.2,0,2.5-0.2,3.7-0.6l4.8,1.6
			c0.1,0,0.2,0.1,0.3,0.1c0.3,0,0.6-0.1,0.8-0.4c0.3-0.3,0.3-0.8,0.1-1.1l-1.5-2.8C18.5,18.6,19.1,17.9,19.5,17.2z"/>
		<path d="M12.8,2.9c-2.1,0-4.1,0.6-5.6,1.7c-0.3,0.2-0.5,0.7-0.4,1c1-0.3,2.1-0.4,3.2-0.4c0.1,0,0.2,0,0.3,0
			C11.2,5,12,4.9,12.8,4.9c2.7,0,5.1,1.3,5.6,2.9C19,8.4,19.5,9,19.9,9.6c0.3-0.1,0.6-0.5,0.6-0.8c0-0.1,0-0.2,0-0.3
			C20.5,5.4,17.1,2.9,12.8,2.9z"/>
		<path d="M12.8,14.1c1,0,1.9-0.1,2.8-0.4c0.6-0.4,0.9-1,0.9-1.5c0-0.3-0.1-0.6-0.3-0.9c-1,0.5-2.2,0.7-3.4,0.7
			c-2.4,0-4.5-1-5.3-2.4c-0.7,0.2-1.3,0.5-1.8,0.8C6.8,12.7,9.6,14.1,12.8,14.1z"/>
	</g>
</g>
<g id="Outline_Icons">
	<g>
		<path class="st2" d="M16,11.5c-1.1,0.5-2.4,0.8-3.9,0.8c-3,0-5.6-1.4-6.4-3.3"/>
		<path class="st2" d="M7.2,4.7c1.2-0.9,3-1.5,5-1.5c3.7,0,6.7,2.1,6.7,4.6c0,0.1,0,0.1,0,0.2"/>
		<path class="st2" d="M8.9,2c1-0.9,2.6-1.5,4.4-1.5c1.7,0,3.3,0.6,4.3,1.4"/>
		<path class="st2" d="M3.7,11.5c0,2.6,3.2,4.7,7.1,4.7c3.9,0,7.1-2.1,7.1-4.7c0-3.5-5.1-5-8.4-5c-5,0-9,3.3-9,7
			c0,5,6.4,8.8,12.2,6.4l5.1,1.8l-1.9-3.5c0.9-0.6,1.6-1.4,2-2.3"/>
	</g>
</g>
</svg>
