<?xml version="1.0" encoding="utf-8"?>
<!-- Generator: Adobe Illustrator 19.2.0, SVG Export Plug-In . SVG Version: 6.00 Build 0)  -->
<svg version="1.1" id="Layer_1" xmlns="http://www.w3.org/2000/svg" xmlns:xlink="http://www.w3.org/1999/xlink" x="0px" y="0px"
	 viewBox="0 0 24 24" style="enable-background:new 0 0 24 24;" xml:space="preserve">
<style type="text/css">
	.st0{display:none;}
	.st1{display:inline;}
	.st2{fill:none;stroke:#000000;stroke-linecap:round;stroke-linejoin:round;stroke-miterlimit:10;}
	.st3{fill:none;stroke:#000000;stroke-linejoin:round;stroke-miterlimit:10;}
</style>
<g id="Filled_Icons" class="st0">
	<g class="st1">
		<path d="M12,0C5.4,0,0,5.4,0,12s5.4,12,12,12s12-5.4,12-12S18.6,0,12,0z M14,17.6c-0.9,0.9-1.5,0.9-2.5,0.9
			c-1.7-0.2-3.2-0.9-4.2-2c-1.1-1.3-1.8-2.6-1.8-4.2c0-0.9,0-1.5,0.5-2.7c0.2-0.4,0.4-0.8,0.6-1.2c0.2,0.9,0.6,1.8,1.2,2.4
			c0.6,0.6,1.8,1.2,3.5,2.1c1.6,0.8,3.1,1.4,3.4,2.4C15,16.4,14.2,17.4,14,17.6z M18.6,15.6c-0.2,0.3-0.4,0.6-0.6,0.8
			c-0.1,0.1-0.2,0.1-0.4,0.1c-0.1,0-0.1,0-0.2,0c-0.2-0.1-0.3-0.3-0.3-0.5c0.1-1.3-0.2-2.2-1-3c-0.4-0.4-0.8-0.7-1.4-1l-3.4-1.8
			C10.2,9.7,8.8,9,9,7c0-0.5,0.3-1.2,0.7-1.6c0.6-0.7,1.7-0.9,2.6-1c4.1,0.3,6.8,2.9,7.3,6.9l0,1.2C19.5,13.1,19.1,14.6,18.6,15.6z"
			/>
		<path d="M12.2,5.5c-0.9,0-1.5,0.3-1.8,0.6c-0.2,0.2-0.4,0.7-0.4,1c-0.1,1.2,0.6,1.6,1.8,2.3l3.5,1.8c0.6,0.3,1.2,0.7,1.7,1.2
			c0.6,0.6,0.9,1.3,1.1,2.1c0.3-0.8,0.5-1.2,0.5-3C18.1,8,15.8,5.8,12.2,5.5z"/>
	</g>
</g>
<g id="Outline_Icons">
	<g>
		<circle class="st2" cx="12" cy="12" r="11.5"/>
		<path id="Simplenote_1_" class="st3" d="M7,16.9c-1-1.1-1.9-2.6-2-4.6c0-0.2,0-0.4,0-0.6c0-0.8,0.3-1.6,0.5-2.3
			C5.9,8.6,6.4,7.7,7,7.2C7,7.6,7,8,7.1,8.3c0.1,0.8,0.6,1.7,1.1,2.2c0.4,0.4,1,0.7,1.6,1.1c1.2,0.6,2.4,1.2,3.6,1.9
			c0.8,0.4,1.6,0.9,1.8,1.8c0.3,1.2-0.4,2.2-0.9,2.8c-0.5,0.5-1.2,0.9-1.9,1c-0.3,0-0.6,0-0.9,0C9.5,18.8,8,18,7,16.9L7,16.9z
			 M11.6,9.8c1.1,0.6,2.3,1.2,3.4,1.8c0.6,0.3,1.1,0.6,1.5,1.1c0.7,0.8,1.2,1.9,1.1,3.4c0.2-0.2,0.4-0.4,0.5-0.7
			c0.4-0.7,0.7-1.7,0.8-2.8c0,0,0,0,0-0.1c0-0.4,0-0.7,0-1.1c-0.5-3.8-3.1-6.2-6.8-6.5c-0.1,0-0.2,0-0.4,0c-0.7,0.1-1.4,0.3-1.8,0.8
			C9.7,6.1,9.5,6.7,9.5,7.1C9.4,8.7,10.5,9.3,11.6,9.8L11.6,9.8z"/>
	</g>
</g>
</svg>
