<?xml version="1.0" encoding="utf-8"?>
<!-- Generator: Adobe Illustrator 19.2.0, SVG Export Plug-In . SVG Version: 6.00 Build 0)  -->
<svg version="1.1" id="Layer_1" xmlns="http://www.w3.org/2000/svg" xmlns:xlink="http://www.w3.org/1999/xlink" x="0px" y="0px"
	 viewBox="0 0 24 24" style="enable-background:new 0 0 24 24;" xml:space="preserve">
<style type="text/css">
	.st0{display:none;}
	.st1{display:inline;}
	.st2{fill:none;stroke:#000000;stroke-linejoin:round;stroke-miterlimit:10;}
</style>
<g id="Filled_Icons" class="st0">
	<g class="st1">
		<path d="M10.7,8.2l-10-3.3C0.5,4.9,0.3,4.9,0.2,5C0.1,5.1,0,5.3,0,5.4l0.1,14.4c0,0.2,0.1,0.4,0.3,0.5l9.9,3.5
			c0.2,0.1,0.3,0,0.5-0.1c0.1-0.1,0.2-0.2,0.2-0.4V8.7C11,8.5,10.9,8.3,10.7,8.2z"/>
		<path d="M23.8,5.1C23.7,5,23.5,5,23.4,5l-10,3.2C13.2,8.3,13,8.5,13,8.7v14.7c0,0.2,0.1,0.3,0.2,0.4c0.1,0.1,0.3,0.1,0.5,0.1
			l10-3.5c0.2-0.1,0.3-0.3,0.3-0.5V5.5C24,5.3,23.9,5.2,23.8,5.1z"/>
		<path d="M23,3.5c0-0.2-0.1-0.4-0.4-0.5L12.1,0c-0.1,0-0.2,0-0.3,0L1.5,2.9C1.3,2.9,1.1,3.1,1.1,3.3c0,0.2,0.1,0.4,0.4,0.5
			l10.4,3.1c0,0,0.1,0,0.1,0c0,0,0.1,0,0.1,0L22.7,4C22.9,3.9,23,3.7,23,3.5z"/>
	</g>
</g>
<g id="Outline_Icons">
	<g>
		<path class="st2" d="M0.5,5.4l10,3.3v14.6l-9.9-3.5L0.5,5.4z M13.5,23.4l10-3.5V5.5l-10,3.2V23.4z"/>
		<polygon class="st2" points="12,6.4 22.5,3.5 12,0.5 1.6,3.3 		"/>
	</g>
</g>
</svg>
