<?xml version="1.0" encoding="utf-8"?>
<!-- Generator: Adobe Illustrator 19.2.0, SVG Export Plug-In . SVG Version: 6.00 Build 0)  -->
<svg version="1.1" id="Layer_1" xmlns="http://www.w3.org/2000/svg" xmlns:xlink="http://www.w3.org/1999/xlink" x="0px" y="0px"
	 viewBox="0 0 24 24" style="enable-background:new 0 0 24 24;" xml:space="preserve">
<style type="text/css">
	.st0{display:none;}
	.st1{display:inline;}
	.st2{fill:none;stroke:#000000;stroke-linejoin:round;stroke-miterlimit:10;}
</style>
<g id="Filled_Icons" class="st0">
	<g class="st1">
		<polygon points="3.2,3.4 11,11.8 11.6,0.5 		"/>
		<polygon points="17.6,6.9 13.5,13.1 20.7,12.1 		"/>
		<polygon points="20.3,18 13.3,15.6 16,22.3 		"/>
		<polygon points="11.8,23.5 11.2,16.1 6.1,21.3 		"/>
		<polygon points="3.3,17.9 9.8,14.4 3,11.8 		"/>
	</g>
</g>
<g id="Outline_Icons">
	<g>
		<polygon class="st2" points="3.2,3.4 11,11.8 11.6,0.5 		"/>
		<polygon class="st2" points="17.6,6.9 13.5,13.1 20.7,12.1 		"/>
		<polygon class="st2" points="20.3,18 13.3,15.6 16,22.3 		"/>
		<polygon class="st2" points="11.8,23.5 11.2,16.1 6.1,21.3 		"/>
		<polygon class="st2" points="3.3,17.9 9.8,14.4 3,11.8 		"/>
	</g>
</g>
</svg>
