<?xml version="1.0" encoding="utf-8"?>
<!-- Generator: Adobe Illustrator 19.2.0, SVG Export Plug-In . SVG Version: 6.00 Build 0)  -->
<svg version="1.1" id="Layer_1" xmlns="http://www.w3.org/2000/svg" xmlns:xlink="http://www.w3.org/1999/xlink" x="0px" y="0px"
	 viewBox="0 0 24 24" style="enable-background:new 0 0 24 24;" xml:space="preserve">
<style type="text/css">
	.st0{display:none;}
	.st1{display:inline;}
	.st2{fill:none;stroke:#000000;stroke-linecap:round;stroke-linejoin:round;stroke-miterlimit:10;}
</style>
<g id="Filled_Icons" class="st0">
	<g class="st1">
		<path d="M5.5,13.5c-0.6,0-1-0.4-1-1c0-0.6,0.4-1,1-1H14v-10C14,1.2,13.8,1,13.5,1h-13C0.2,1,0,1.2,0,1.5v21C0,22.8,0.2,23,0.5,23
			h13c0.3,0,0.5-0.2,0.5-0.5v-9H5.5z"/>
		<path d="M24,12.7c0.1-0.1,0.1-0.3,0-0.4c0-0.1-0.1-0.1-0.1-0.2l-5-5c-0.2-0.2-0.5-0.2-0.7,0c-0.2,0.2-0.2,0.5,0,0.7l4.1,4.1H5.5
			C5.2,12,5,12.2,5,12.5C5,12.8,5.2,13,5.5,13h16.8l-4.1,4.1c-0.2,0.2-0.2,0.5,0,0.7c0.1,0.1,0.2,0.1,0.4,0.1c0.1,0,0.3,0,0.4-0.1
			l5-5C23.9,12.8,23.9,12.8,24,12.7z"/>
	</g>
</g>
<g id="Outline_Icons">
	<g>
		<polyline class="st2" points="13.5,18.5 13.5,22.5 0.5,22.5 0.5,1.5 13.5,1.5 13.5,5.5 		"/>
		<line class="st2" x1="5.5" y1="12.5" x2="23.5" y2="12.5"/>
		<polyline class="st2" points="18.5,7.5 23.5,12.5 18.5,17.5 		"/>
	</g>
</g>
</svg>
