<?xml version="1.0" encoding="utf-8"?>
<!-- Generator: Adobe Illustrator 19.2.0, SVG Export Plug-In . SVG Version: 6.00 Build 0)  -->
<svg version="1.1" id="Layer_1" xmlns="http://www.w3.org/2000/svg" xmlns:xlink="http://www.w3.org/1999/xlink" x="0px" y="0px"
	 viewBox="0 0 24 24" style="enable-background:new 0 0 24 24;" xml:space="preserve">
<style type="text/css">
	.st0{display:none;}
	.st1{display:inline;}
	.st2{fill:none;stroke:#000000;stroke-linecap:round;stroke-linejoin:round;stroke-miterlimit:10;}
</style>
<g id="Filled_Icons" class="st0">
	<path class="st1" d="M12,0C5.4,0,0,5.4,0,12s5.4,12,12,12s12-5.4,12-12S18.6,0,12,0z M6.5,16C6.2,16,6,15.8,6,15.5S6.2,15,6.5,15
		C6.8,15,7,15.2,7,15.5S6.8,16,6.5,16z M9,15.5C9,15.8,8.8,16,8.5,16S8,15.8,8,15.5V11l-3.6,4.8C4.3,15.9,4.2,16,4,16
		c-0.1,0-0.2,0-0.3-0.1c-0.2-0.2-0.3-0.5-0.1-0.7l4.5-6C8.2,9,8.5,9,8.7,9C8.9,9.1,9,9.3,9,9.5V15.5z M16.5,10H14v5.5
		c0,0.3-0.2,0.5-0.5,0.5S13,15.8,13,15.5V10h-2.5C10.3,10,10,9.8,10,9.5S10.3,9,10.5,9h6C16.8,9,17,9.2,17,9.5S16.8,10,16.5,10z
		 M19,15.5c0,0.3-0.2,0.5-0.5,0.5S18,15.8,18,15.5V9c0-0.3,0.2-0.5,0.5-0.5S19,8.7,19,9V15.5z"/>
</g>
<g id="Outline_Icons">
	<g>
		<polyline class="st2" points="4,15.5 8.5,9.5 8.5,15.5 		"/>
		<line class="st2" x1="10.5" y1="9.5" x2="16.5" y2="9.5"/>
		<line class="st2" x1="13.5" y1="9.5" x2="13.5" y2="15.5"/>
		<line class="st2" x1="18.5" y1="9" x2="18.5" y2="15.5"/>
		<circle class="st2" cx="12" cy="12" r="11.5"/>
		<g>
			<path d="M6.5,15C6.2,15,6,15.2,6,15.5S6.2,16,6.5,16C6.8,16,7,15.8,7,15.5S6.8,15,6.5,15L6.5,15z"/>
		</g>
	</g>
</g>
</svg>
