<?xml version="1.0" encoding="utf-8"?>
<!-- Generator: Adobe Illustrator 19.2.0, SVG Export Plug-In . SVG Version: 6.00 Build 0)  -->
<svg version="1.1" id="Layer_1" xmlns="http://www.w3.org/2000/svg" xmlns:xlink="http://www.w3.org/1999/xlink" x="0px" y="0px"
	 viewBox="0 0 24 24" style="enable-background:new 0 0 24 24;" xml:space="preserve">
<style type="text/css">
	.st0{display:none;}
	.st1{display:inline;}
	.st2{fill:none;stroke:#000000;stroke-linejoin:round;stroke-miterlimit:10;}
</style>
<g id="Filled_Icons" class="st0">
	<path id="path11-1_2_" class="st1" d="M12.4,4.2c-2.2-1.2-4.9-1.4-7.2-0.6c-1.5,0.6-2.9,1.6-3.8,3c-0.8,1.3-1.1,2.8-0.7,4.3
		c0.4,1.6,1.5,3,2.9,3.9C3.3,15.5,3,16.2,2.8,17c0.9-0.4,1.7-0.9,2.6-1.4c1,0.3,2.1,0.5,3.2,0.5c-0.3-0.8-0.4-1.7-0.2-2.6
		c0.2-1.2,0.9-2.3,1.8-3.1c1.5-1.4,3.6-2,5.7-1.9C15.4,6.7,14.1,5.1,12.4,4.2L12.4,4.2z M6,7.4C5.9,7.8,5.5,7.9,5.2,7.7
		C4.9,7.5,5,6.9,5.4,6.8C5.7,6.7,6.1,7,6,7.4z M11.3,7.3c0,0.4-0.5,0.6-0.8,0.4c-0.3-0.2-0.2-0.7,0.1-0.9C10.9,6.7,11.3,7,11.3,7.3z
		"/>
	<g class="st1">
		<path id="path13-81_2_" d="M22.1,13.4c-0.5-1.2-1.5-2.2-2.7-2.8c-2.1-1-4.6-1-6.7,0c-1.4,0.7-2.6,2-3,3.6c-0.3,1.2,0,2.4,0.6,3.5
			c0.9,1.5,2.6,2.5,4.3,2.8c1.3,0.3,2.6,0.1,3.8-0.2c0.7,0.3,1.4,0.7,2.1,1.1c-0.2-0.6-0.4-1.2-0.6-1.8c0.8-0.6,1.5-1.3,2-2.2
			C22.6,16.3,22.7,14.7,22.1,13.4L22.1,13.4z M14.6,13.8c-0.1,0.3-0.6,0.4-0.8,0.2c-0.3-0.2-0.2-0.7,0.2-0.8
			C14.3,13,14.8,13.4,14.6,13.8L14.6,13.8z M18.8,13.8c-0.1,0.3-0.6,0.4-0.8,0.1c-0.1-0.1-0.1-0.2-0.2-0.4c0.1-0.2,0.2-0.5,0.5-0.5
			C18.7,13.1,19,13.5,18.8,13.8L18.8,13.8z"/>
	</g>
</g>
<g id="Outline_Icons">
	<g>
		<path id="path11-1_4_" class="st2" d="M12.4,4.2c-2.2-1.2-4.9-1.4-7.2-0.6c-1.5,0.6-2.9,1.6-3.8,3c-0.8,1.3-1.1,2.8-0.7,4.3
			c0.4,1.6,1.5,3,2.9,3.9C3.3,15.5,3,16.2,2.8,17c0.9-0.4,1.7-0.9,2.6-1.4c1,0.3,2.1,0.5,3.2,0.5c-0.3-0.8-0.4-1.7-0.2-2.6
			c0.2-1.2,0.9-2.3,1.8-3.1c1.5-1.4,3.6-2,5.7-1.9C15.4,6.7,14.1,5.1,12.4,4.2L12.4,4.2z M6,7.4C5.9,7.8,5.5,7.9,5.2,7.7
			C4.9,7.5,5,6.9,5.4,6.8C5.7,6.7,6.1,7,6,7.4z M11.3,7.3c0,0.4-0.5,0.6-0.8,0.4c-0.3-0.2-0.2-0.7,0.1-0.9C10.9,6.7,11.3,7,11.3,7.3
			z"/>
		<g>
			<path id="path13-81_4_" class="st2" d="M23.1,14.4c-0.5-1.2-1.5-2.2-2.7-2.8c-2.1-1-4.6-1-6.7,0c-1.4,0.7-2.6,2-3,3.6
				c-0.3,1.2,0,2.4,0.6,3.5c0.9,1.5,2.6,2.5,4.3,2.8c1.3,0.3,2.6,0.1,3.8-0.2c0.7,0.3,1.4,0.7,2.1,1.1c-0.2-0.6-0.4-1.2-0.6-1.8
				c0.8-0.6,1.5-1.3,2-2.2C23.6,17.3,23.7,15.7,23.1,14.4L23.1,14.4z M15.6,14.8c-0.1,0.3-0.6,0.4-0.8,0.2c-0.3-0.2-0.2-0.7,0.2-0.8
				C15.3,14,15.8,14.4,15.6,14.8L15.6,14.8z M19.8,14.8c-0.1,0.3-0.6,0.4-0.8,0.1c-0.1-0.1-0.1-0.2-0.2-0.4c0.1-0.2,0.2-0.5,0.5-0.5
				C19.7,14.1,20,14.5,19.8,14.8L19.8,14.8z"/>
		</g>
	</g>
</g>
</svg>
