<?xml version="1.0" encoding="utf-8"?>
<!-- Generator: Adobe Illustrator 19.2.0, SVG Export Plug-In . SVG Version: 6.00 Build 0)  -->
<svg version="1.1" id="Layer_1" xmlns="http://www.w3.org/2000/svg" xmlns:xlink="http://www.w3.org/1999/xlink" x="0px" y="0px"
	 viewBox="0 0 24 24" style="enable-background:new 0 0 24 24;" xml:space="preserve">
<style type="text/css">
	.st0{display:none;}
	.st1{display:inline;}
	.st2{fill:none;stroke:#000000;stroke-linejoin:round;stroke-miterlimit:10;}
	.st3{fill:none;stroke:#000000;stroke-linecap:round;stroke-linejoin:round;stroke-miterlimit:10;}
</style>
<g id="Filled_Icons" class="st0">
	<path class="st1" d="M15.1,4c-1.5-1-2.7-1.8-3-2.7C12,1.1,11.8,1,11.6,1c-0.2,0-0.4,0.2-0.5,0.4c-0.2,0.9-1.5,2-3,3.2
		C5.4,6.8,2,9.5,2,14c0,5.5,4.5,10,10,10s10-4.5,10-10C22,8.7,18,6,15.1,4z M16.1,21c-1,0.7-1.9,0.9-2.7,0.9c-1.4,0-2.4-0.6-2.8-0.9
		c-0.2-0.2-0.3-0.5-0.1-0.7c0.2-0.2,0.5-0.3,0.7-0.1c0.5,0.4,2.2,1.4,4.3,0c0.2-0.2,0.5-0.1,0.7,0.1C16.3,20.6,16.3,20.9,16.1,21z
		 M12.3,19c0.5-0.8,1.2-1.2,2.1-1.2c0.6,0,1.1,0.4,1.5,1.1c0.1,0.2,0.1,0.5-0.2,0.7c-0.2,0.1-0.5,0.1-0.7-0.2
		c-0.1-0.2-0.3-0.5-0.6-0.5c-0.6,0-1,0.4-1.2,0.7c-0.1,0.1-0.3,0.2-0.4,0.2c-0.1,0-0.2,0-0.3-0.1C12.2,19.5,12.1,19.2,12.3,19z
		 M18.1,18.8c-0.9,0.1-1.9-0.9-2.5-1.5c-0.4-0.4-1-1-1.3-1c-0.2,0-1.1,0.6-1.7,1c-1.3,0.8-2.8,1.7-3.8,1.7c-2.3,0-3.3-1.6-3.3-3.2
		c0-1.9,1.4-3.9,3.9-3.9c1.2,0,2.4,0.8,3.4,1.5c0.6,0.4,1.2,0.8,1.5,0.8c0.4,0,1.2-0.4,1.9-0.8c0.9-0.5,1.8-1,2.5-1
		c0.5,0,1,0.4,1.2,1.2C20.6,15.8,19.1,18.6,18.1,18.8z"/>
</g>
<g id="Outline_Icons">
	<g>
		<path class="st2" d="M21.5,14c0,5.2-4.3,9.5-9.5,9.5c-5.2,0-9.5-4.3-9.5-9.5c0-6.7,8.3-9.5,9.1-12.5C12.6,4.4,21.5,6.2,21.5,14z"
			/>
		<path class="st2" d="M9.3,12.3c1.9,0,3.9,2.3,5,2.3c1.1,0,3.2-1.9,4.3-1.9s1.6,3.8-0.6,5.5c-1,0.2-2.9-2.5-3.7-2.5
			c-0.8,0-4,2.7-5.5,2.7C4.5,18.4,5.3,12.3,9.3,12.3z"/>
		<path class="st3" d="M12.7,19.2c0.2-0.4,0.8-1,1.7-1c0.5,0,0.9,0.4,1.1,0.8"/>
		<path class="st3" d="M10.9,20.6c0.6,0.4,2.5,1.6,4.9,0"/>
	</g>
</g>
</svg>
