<?xml version="1.0" encoding="utf-8"?>
<!-- Generator: Adobe Illustrator 19.2.0, SVG Export Plug-In . SVG Version: 6.00 Build 0)  -->
<svg version="1.1" id="Layer_1" xmlns="http://www.w3.org/2000/svg" xmlns:xlink="http://www.w3.org/1999/xlink" x="0px" y="0px"
	 viewBox="0 0 24 24" style="enable-background:new 0 0 24 24;" xml:space="preserve">
<style type="text/css">
	.st0{display:none;}
	.st1{display:inline;}
	.st2{fill:none;stroke:#000000;stroke-linecap:round;stroke-linejoin:round;stroke-miterlimit:10;}
	.st3{fill:none;stroke:#000000;stroke-linejoin:round;stroke-miterlimit:10;}
</style>
<g id="Filled_Icons" class="st0">
	<path class="st1" d="M12,0C5.4,0,0,5.4,0,12s5.4,12,12,12s12-5.4,12-12S18.6,0,12,0z M9.5,16.5h-2v-7h2V16.5z M8.5,7.5
		c-0.6,0-1-0.4-1-1s0.4-1,1-1s1,0.4,1,1S9.1,7.5,8.5,7.5z M18.5,16.5h-3V13c0-0.3-0.2-0.5-0.5-0.5s-0.5,0.2-0.5,0.5v3.5h-3
		c0,0,0-6.5,0-7h3v0.8c0,0,0.5-0.8,1.7-0.8c1.5,0,2.3,1.1,2.3,3.3V16.5z"/>
</g>
<g id="Outline_Icons">
	<g>
		<circle class="st2" cx="12" cy="12" r="11.5"/>
		<path class="st3" d="M15,12.5c-0.3,0-0.5,0.2-0.5,0.5v3.5h-3c0,0,0-6.5,0-7h3v0.8c0,0,0.5-0.8,1.7-0.8c1.5,0,2.3,1.1,2.3,3.3v3.6
			h-3V13C15.5,12.7,15.3,12.5,15,12.5z"/>
		<rect x="7.5" y="9.5" class="st3" width="2" height="7"/>
		<circle class="st3" cx="8.5" cy="6.5" r="1"/>
	</g>
</g>
</svg>
