<?xml version="1.0" encoding="utf-8"?>
<!-- Generator: Adobe Illustrator 19.2.0, SVG Export Plug-In . SVG Version: 6.00 Build 0)  -->
<svg version="1.1" id="Layer_1" xmlns="http://www.w3.org/2000/svg" xmlns:xlink="http://www.w3.org/1999/xlink" x="0px" y="0px"
	 viewBox="0 0 24 24" style="enable-background:new 0 0 24 24;" xml:space="preserve">
<style type="text/css">
	.st0{display:none;}
	.st1{display:inline;}
	.st2{fill:none;stroke:#000000;stroke-linecap:round;stroke-linejoin:round;stroke-miterlimit:10;}
</style>
<g id="Filled_Icons" class="st0">
	<g class="st1">
		<path d="M15.4,7.5c0.4-0.4,0.4-1,0-1.4s-1-0.4-1.4,0l-7.7,7.7c-1,1-2.6,1-3.5,0C2.3,13.3,2,12.7,2,12c0-0.7,0.3-1.3,0.7-1.8
			l5.7-5.7c0.7-0.7,1.8-0.9,2.7-0.5c0,0-0.1,0.1-0.1,0.1l-7.4,7.4c-0.4,0.4-0.4,1,0,1.4c0.2,0.2,0.5,0.3,0.7,0.3
			c0.3,0,0.5-0.1,0.7-0.3l7.4-7.4c0.9-0.9,2.6-0.9,3.5,0c0.4,0.4,1,0.4,1.4,0c0.4-0.4,0.4-1,0-1.4c-0.9-0.9-2-1.3-3.2-1.3
			c-0.4,0-0.7,0.1-1,0.1c-0.8-0.7-1.9-1.1-3-1.1C9,1.9,7.8,2.3,7,3.2L1.3,8.8C0.5,9.7,0,10.8,0,12c0,1.2,0.5,2.3,1.3,3.2
			c0.9,0.9,2,1.3,3.2,1.3s2.3-0.4,3.2-1.3L15.4,7.5z"/>
		<path d="M22.3,9.2c-0.9-0.9-2-1.3-3.2-1.3c-1.2,0-2.3,0.5-3.2,1.3L8.2,17c-0.4,0.4-0.4,1,0,1.4s1,0.4,1.4,0l7.8-7.8
			c0.9-0.9,2.6-0.9,3.5,0c0.5,0.5,0.7,1.1,0.7,1.8c0,0.7-0.3,1.3-0.7,1.8l-5.7,5.7c-0.7,0.7-1.8,0.9-2.7,0.5c0,0,0.1-0.1,0.1-0.1
			l7.3-7.3c0.4-0.4,0.4-1,0-1.4c-0.4-0.4-1-0.4-1.4,0l-7.3,7.3c-1,1-2.6,1-3.5,0c-0.4-0.4-1-0.4-1.4,0c-0.4,0.4-0.4,1,0,1.4
			c0.9,0.9,2,1.3,3.2,1.3c0.4,0,0.7-0.1,1-0.1c0.8,0.7,1.9,1.1,3,1.1c1.2,0,2.3-0.4,3.2-1.3l5.7-5.7c0.9-0.9,1.3-2,1.3-3.2
			C23.6,11.2,23.2,10,22.3,9.2z"/>
	</g>
</g>
<g id="Outline_Icons">
	<g>
		<path class="st2" d="M14.2,6.9l-7.7,7.7c-1.4,1.4-3.6,1.4-4.9,0c-1.4-1.4-1.4-3.6,0-5L7.2,4c1.4-1.4,3.6-1.4,4.9,0l0.2,0.2"/>
		<path class="st2" d="M3.8,12.4L11.2,5c1.4-1.4,3.6-1.4,4.9,0"/>
		<path class="st2" d="M8.4,17.8l7.8-7.8c1.4-1.4,3.6-1.4,4.9,0c1.4,1.4,1.4,3.6,0,4.9l-5.7,5.7c-1.4,1.4-3.6,1.4-4.9,0l-0.2-0.2"/>
		<path class="st2" d="M18.8,12.3l-7.3,7.3c-1.4,1.4-3.6,1.4-4.9,0"/>
	</g>
</g>
</svg>
