<?xml version="1.0" encoding="utf-8"?>
<!-- Generator: Adobe Illustrator 19.2.0, SVG Export Plug-In . SVG Version: 6.00 Build 0)  -->
<svg version="1.1" id="Layer_1" xmlns="http://www.w3.org/2000/svg" xmlns:xlink="http://www.w3.org/1999/xlink" x="0px" y="0px"
	 viewBox="0 0 24 24" style="enable-background:new 0 0 24 24;" xml:space="preserve">
<style type="text/css">
	.st0{display:none;}
	.st1{display:inline;}
	.st2{fill:none;stroke:#000000;stroke-linejoin:round;stroke-miterlimit:10;}
</style>
<g id="Filled_Icons" class="st0">
	<path class="st1" d="M8,7.5c1.3,0,2.4,1.1,2.4,2.4c0,1.3-1.1,2.4-2.4,2.4c-1.3,0-2.4-1.1-2.4-2.4C5.6,8.6,6.7,7.5,8,7.5L8,7.5z
		 M11.2,14.5c4-0.5,8.6,0.1,11.6,1.7c0.4,0.2,0.2,0.6-0.3,0.4c-1.9-0.6-3.9-0.9-6.3-1c-5.5-0.2-8.4,1.7-10.8,4.1
		C4,21.2,2.1,20,2.8,18.4C3.6,16.5,8,14.9,11.2,14.5L11.2,14.5z"/>
</g>
<g id="Outline_Icons">
	<g>
		<path class="st2" d="M8,7.5c1.3,0,2.4,1.1,2.4,2.4c0,1.3-1.1,2.4-2.4,2.4c-1.3,0-2.4-1.1-2.4-2.4C5.6,8.6,6.7,7.5,8,7.5L8,7.5z
			 M11.2,14.5c4-0.5,8.6,0.1,11.6,1.7c0.4,0.2,0.2,0.6-0.3,0.4c-1.9-0.6-3.9-0.9-6.3-1c-5.5-0.2-8.4,1.7-10.8,4.1
			C4,21.2,2.1,20,2.8,18.4C3.6,16.5,8,14.9,11.2,14.5L11.2,14.5z"/>
	</g>
</g>
</svg>
