<?xml version="1.0" encoding="utf-8"?>
<!-- Generator: Adobe Illustrator 19.2.0, SVG Export Plug-In . SVG Version: 6.00 Build 0)  -->
<svg version="1.1" id="Layer_1" xmlns="http://www.w3.org/2000/svg" xmlns:xlink="http://www.w3.org/1999/xlink" x="0px" y="0px"
	 viewBox="0 0 24 24" style="enable-background:new 0 0 24 24;" xml:space="preserve">
<style type="text/css">
	.st0{display:none;}
	.st1{display:inline;}
	.st2{fill:none;stroke:#000000;stroke-linecap:round;stroke-linejoin:round;stroke-miterlimit:10;}
</style>
<g id="Filled_Icons" class="st0">
	<g class="st1">
		<path d="M13.5,8.5V7h-3v1.5c0,0.8,0.7,1.5,1.5,1.5S13.5,9.3,13.5,8.5z"/>
		<path d="M12,0C5.4,0,0,5.4,0,12s5.4,12,12,12s12-5.4,12-12S18.6,0,12,0z M6,13.5c-0.2,0-0.3-0.1-0.4-0.2c-0.2-0.2-0.1-0.5,0.1-0.7
			l2.7-2c0.2-0.2,0.5-0.1,0.7,0.1c0.2,0.2,0.1,0.5-0.1,0.7l-2.7,2C6.2,13.5,6.1,13.5,6,13.5z M15.5,19.4c0,0.3-0.2,0.5-0.5,0.5
			s-0.5-0.2-0.5-0.5v-1.9c0-1.2-0.9-2.2-2-2.4v4.3c0,0.3-0.2,0.5-0.5,0.5s-0.5-0.2-0.5-0.5v-4.3c-1.1,0.2-2,1.2-2,2.4v1.9
			c0,0.3-0.2,0.5-0.5,0.5s-0.5-0.2-0.5-0.5v-1.9c0-1.8,1.3-3.2,3-3.4v-3.1c-1.1-0.2-2-1.2-2-2.4V7h-2C7.2,7,7,6.8,7,6.5S7.2,6,7.5,6
			h2V5c0-0.3,0.2-0.5,0.5-0.5s0.5,0.2,0.5,0.5v1h3V5c0-0.3,0.2-0.5,0.5-0.5s0.5,0.2,0.5,0.5v1h2C16.8,6,17,6.2,17,6.5S16.8,7,16.5,7
			h-2v1.5c0,1.2-0.9,2.2-2,2.4v3.1c1.7,0.2,3,1.7,3,3.4V19.4z M18.4,13.3c-0.1,0.1-0.2,0.2-0.4,0.2c-0.1,0-0.2,0-0.3-0.1l-2.7-2
			c-0.2-0.2-0.3-0.5-0.1-0.7c0.2-0.2,0.5-0.3,0.7-0.1l2.7,2C18.5,12.8,18.6,13.1,18.4,13.3z"/>
	</g>
</g>
<g id="Outline_Icons">
	<g>
		<circle class="st2" cx="12" cy="12" r="11.5"/>
		<path class="st2" d="M15.5,19.4v-1.9c0-1.7-1.3-3-3-3l0,0c-1.7,0-3,1.3-3,3v1.9"/>
		<line class="st2" x1="12.5" y1="10.5" x2="12.5" y2="19.4"/>
		<line class="st2" x1="8" y1="6.5" x2="17" y2="6.5"/>
		<line class="st2" x1="15.3" y1="11" x2="18" y2="13"/>
		<line class="st2" x1="8.7" y1="11" x2="6" y2="13"/>
		<path class="st2" d="M14.5,5v3.5c0,1.1-0.9,2-2,2c-1.1,0-2-0.9-2-2V5"/>
	</g>
</g>
</svg>
