<?xml version="1.0" encoding="utf-8"?>
<!-- Generator: Adobe Illustrator 19.2.0, SVG Export Plug-In . SVG Version: 6.00 Build 0)  -->
<svg version="1.1" id="Layer_1" xmlns="http://www.w3.org/2000/svg" xmlns:xlink="http://www.w3.org/1999/xlink" x="0px" y="0px"
	 viewBox="0 0 24 24" style="enable-background:new 0 0 24 24;" xml:space="preserve">
<style type="text/css">
	.st0{display:none;}
	.st1{display:inline;}
	.st2{fill:none;stroke:#000000;stroke-linecap:round;stroke-linejoin:round;stroke-miterlimit:10;}
	.st3{fill:none;stroke:#000000;stroke-linejoin:round;stroke-miterlimit:10;}
</style>
<g id="Filled_Icons" class="st0">
	<g class="st1">
		<path d="M12,0C5.4,0,0,5.4,0,12s5.4,12,12,12s12-5.4,12-12S18.6,0,12,0z M20.4,14.9c-0.4,0.4-2.6,2.2-7.1,2.8
			c-0.2,0.2-0.4,0.3-0.6,0.4c-1.1,0.6-2.3,0.9-3.2,0.9c-1.2,0-1.6-0.6-1.7-0.9c-0.3-0.8,0.4-1.6,1.2-2.1c-0.3-0.4-0.4-0.9-0.5-1.4
			c0-0.4,0-0.8,0-1.2c0,0-0.1,0-0.1,0c-0.1,0.5-0.4,0.9-0.9,0.9c-0.2,0-0.4-0.1-0.7-0.2c-0.4-0.3-0.5-0.6-0.5-0.8
			c0-0.3,0.1-0.5,0.3-0.7c-0.6,0.1-1.2-0.2-1.4-0.8c-0.3-0.6-0.1-1.4,0.4-2c0.5-0.5,1-0.9,1.4-1.2C6.5,8.2,6,7.7,5.5,6.9
			C5.2,6.6,5.2,6.1,5.4,5.6c0.4-0.7,1.3-1,2.1-0.5C7.7,4.4,8.2,4,8.7,4c0,0,0.1,0,0.2,0c0.3,0,0.6,0.2,0.8,0.5C10,5,10.1,6,9.8,7.7
			c1.6,0.3,4.9,1.5,5.3,5.1c0.2,0.1,1.7,1.1,1.9,1.1c0.2,0,2.4-0.8,2.6-0.9c0.5-0.2,1.1,0,1.3,0.4C21.1,13.9,20.9,14.4,20.4,14.9z"
			/>
		<path d="M7.2,6.2C7.1,6.1,7,6,6.9,5.9C6.8,5.9,6.7,5.8,6.6,5.8C6.4,5.8,6.3,5.9,6.3,6c0,0.1-0.1,0.2,0,0.3c0.4,0.6,0.8,1,1.1,1.3
			C7.2,7.2,7.2,6.6,7.2,6.2z"/>
		<path d="M9.3,11.8c0.1-0.1,0.3-0.2,0.5-0.2c0.5,0,0.9,0.4,1,0.9c0,0.1,0,0.2,0,0.3c0.1-0.1,0.2-0.3,0.4-0.4
			c0.7-0.7,1.6-0.7,2.9-0.2c-0.7-2.7-3.8-3.4-4.7-3.6C9,8.6,8.8,8.4,8.8,8.1c0,0,0,0,0,0C8.5,8.3,8.3,8.3,8.1,8.3
			c0,0.1,0.1,0.2,0.1,0.3C8.2,8.7,8.1,8.9,8,9c0,0-1,0.6-1.7,1.4C6,10.7,6,11.1,6,11.3c0.1,0.3,0.3,0.2,0.5,0.1
			c0.8-0.3,1.5-1.4,1.8-2c0.1-0.2,0.3-0.3,0.4-0.3c0.2,0,0.4,0.1,0.5,0.3c0.4,0.8,0.5,1.9-1,3c0.1,0,0.3,0,0.5,0.1
			C8.9,12.2,9.1,11.9,9.3,11.8z"/>
		<path d="M8.9,5.1c0,0,0,0-0.1-0.1h0C8.6,5,8.4,5.3,8.3,5.8C8.5,6.1,8.8,6.4,9,6.7C9.1,5.6,8.9,5.2,8.9,5.1z"/>
		<path d="M10,13.4c-0.2,0-0.3,0-0.5,0.1c-0.1,0.3-0.1,0.7,0,1.1c0,0.3,0.2,0.7,0.4,1.1c0.2-0.1,0.4-0.1,0.6-0.1
			c-0.3-0.7-0.4-1.5,0.1-2.4C10.4,13.3,10.2,13.4,10,13.4z"/>
		<path d="M18.2,14.7c-1.3,0.5-1.6,0.3-3.1-0.7c-0.2,0.6-0.8,1.1-1.3,1.4c0.1,0.3,0.2,0.8,0.1,1.2c3.8-0.6,5.6-2.2,5.8-2.4
			c0,0,0.1-0.1-0.2,0C19.2,14.3,18.9,14.4,18.2,14.7z"/>
		<path d="M8.7,17.8C8.8,18,9.2,18,9.4,18c0.5,0,1.1-0.1,1.8-0.4c-0.6-0.1-1.1-0.4-1.6-0.9C9,17.1,8.6,17.6,8.7,17.8z"/>
		<path d="M14.2,13.6c0-0.1,0-0.1,0-0.2c-1.1-0.6-1.9-0.7-2.4-0.3c-1.1,1.1-0.2,2.4-0.1,2.6c0.1,0.2,0.1,0.4,0,0.6
			c-0.1,0.2-0.3,0.3-0.5,0.2c-0.1,0-0.3,0-0.4,0c0.3,0.2,0.7,0.3,1.2,0.3c0.3,0,0.5,0,0.8-0.1c0.4-0.6-0.1-1.3-0.1-1.3
			c-0.1-0.1-0.2-0.4-0.1-0.5c0.1-0.2,0.2-0.3,0.4-0.3C13.2,14.6,14.2,14.1,14.2,13.6z"/>
	</g>
</g>
<g id="Outline_Icons">
	<g>
		<circle class="st2" cx="12" cy="12" r="11.5"/>
		<path class="st3" d="M7.7,8.6c0,0-1-0.6-1.8-1.9C5.4,6,6.3,4.9,7.2,5.5C8.1,6.2,9,7.2,8.5,7.7C8,8.1,7.6,7.3,7.7,6.3
			c0.1-1,0.5-1.9,1.1-1.8c0.6,0.1,1,0.7,0.5,3.6c0,0,5.5,0.5,5.4,5.5c0,0.9-1.4,1.5-1.6,1.5c0.2,0.2,1,1.7-0.6,2.6
			c-1.6,0.9-3.9,1.3-4.2,0.3c-0.3-1,1.9-2.2,3.1-1.9c-0.4-0.6-1.1-2.1,0.1-3.2c1.2-1.2,3.5,0.5,4.4,1.1c1,0.6,1,0.7,2.1,0.3
			c1.1-0.4,1.4-0.5,1.8-0.6c0.5-0.2,1.1,0.1,0.2,1s-3.5,2.5-7.9,2.8c-1.9,0.1-3.1-1.5-3.2-2.6s0.2-2.1,0.6-2.4
			c0.5-0.3,1.2,0.6,0.3,0.7c-0.9,0.1-1.7,0-2-0.1c0,0.4-0.2,1.3-0.9,0.8c-0.7-0.5,0.2-1.1,0.5-1.3c0.3-0.2,2-1.1,1.3-2.7
			c-0.3,0.6-1.1,1.9-2.1,2.3c-1.2,0.4-1.6-1-0.8-1.8C6.7,9.2,7.7,8.6,7.7,8.6z"/>
	</g>
</g>
</svg>
