<?xml version="1.0" encoding="utf-8"?>
<!-- Generator: Adobe Illustrator 19.2.0, SVG Export Plug-In . SVG Version: 6.00 Build 0)  -->
<svg version="1.1" id="Layer_1" xmlns="http://www.w3.org/2000/svg" xmlns:xlink="http://www.w3.org/1999/xlink" x="0px" y="0px"
	 viewBox="0 0 24 24" style="enable-background:new 0 0 24 24;" xml:space="preserve">
<style type="text/css">
	.st0{display:none;}
	.st1{display:inline;}
	.st2{fill:none;stroke:#000000;stroke-linejoin:round;stroke-miterlimit:10;}
</style>
<g id="Filled_Icons" class="st0">
	<g class="st1">
		<path d="M11.5,4.7C8-1.4,3.1,0.1,1.8,3.1c-2.4,5.7,5.4,10.1,8.9,18.4c0.1,0.2,0.6,1.8,0.7,2C13.2,15.7,24.1,8.6,21,3.1
			C19.5-0.1,14.1-1.3,11.5,4.7z"/>
	</g>
</g>
<g id="Outline_Icons">
	<g>
		<path class="st2" d="M11.5,4.7C8-1.4,3.1,0.1,1.8,3.1c-2.4,5.7,5.4,10.1,8.9,18.4c0.1,0.2,0.6,1.8,0.7,2
			C13.2,15.7,24.1,8.6,21,3.1C19.5-0.1,14.1-1.3,11.5,4.7z"/>
	</g>
</g>
</svg>
