<?xml version="1.0" encoding="utf-8"?>
<!-- Generator: Adobe Illustrator 19.2.0, SVG Export Plug-In . SVG Version: 6.00 Build 0)  -->
<svg version="1.1" id="Layer_1" xmlns="http://www.w3.org/2000/svg" xmlns:xlink="http://www.w3.org/1999/xlink" x="0px" y="0px"
	 viewBox="0 0 24 24" style="enable-background:new 0 0 24 24;" xml:space="preserve">
<style type="text/css">
	.st0{display:none;}
	.st1{display:inline;}
	.st2{fill:none;stroke:#000000;stroke-linejoin:round;stroke-miterlimit:10;}
</style>
<g id="Filled_Icons" class="st0">
	<path class="st1" d="M12,0C5.4,0,0,5.4,0,12s5.4,12,12,12s12-5.4,12-12S18.6,0,12,0z M5.5,6.5h5.1l-5.1,12
		C5.5,18.5,5.5,6.5,5.5,6.5z M12.6,18.5l-1.1-3H9.8l2.2-4.4l3.4,7.4H12.6z M18.5,18.5L18.5,18.5l-5.1-12h5.1V18.5z"/>
</g>
<g id="Outline_Icons">
	<g>
		<g>
			<polygon class="st2" points="12,11.1 15.4,18.5 18.5,18.5 13.4,6.5 10.6,6.5 5.5,18.5 12.6,18.5 11.5,15.5 9.8,15.5 			"/>
			<rect x="5.5" y="6.5" class="st2" width="13" height="12"/>
		</g>
		<circle class="st2" cx="12" cy="12" r="11.5"/>
	</g>
</g>
</svg>
