<?xml version="1.0" encoding="utf-8"?>
<!-- Generator: Adobe Illustrator 19.2.0, SVG Export Plug-In . SVG Version: 6.00 Build 0)  -->
<svg version="1.1" id="Layer_1" xmlns="http://www.w3.org/2000/svg" xmlns:xlink="http://www.w3.org/1999/xlink" x="0px" y="0px"
	 viewBox="0 0 24 24" style="enable-background:new 0 0 24 24;" xml:space="preserve">
<style type="text/css">
	.st0{display:none;}
	.st1{display:inline;}
	.st2{fill:none;stroke:#000000;stroke-linecap:round;stroke-linejoin:round;stroke-miterlimit:10;}
	.st3{fill:none;stroke:#000000;stroke-linejoin:round;stroke-miterlimit:10;}
</style>
<g id="Filled_Icons" class="st0">
	<path class="st1" d="M12,0C5.4,0,0,5.4,0,12s5.4,12,12,12s12-5.4,12-12S18.6,0,12,0z M16.3,19.5c-2-1.3-3.2-2.7-4.3-4.8
		c-1.1,2-2.3,3.5-4.3,4.8c-1-0.6-1.8-1.4-2.4-2.3c5.2-3.2,5.2-7.3,5.2-12.5c0.5-0.1,1-0.1,1.5-0.1c0.5,0,1,0,1.5,0.1
		c0,5.2,0,9.3,5.2,12.5C18.1,18.1,17.3,18.9,16.3,19.5z"/>
</g>
<g id="Outline_Icons">
	<g>
		<circle class="st2" cx="12" cy="12" r="11.5"/>
		<path class="st3" d="M13.5,4.6c-0.5-0.1-1-0.1-1.5-0.1c-0.5,0-1,0-1.5,0.1c0,5.2,0,9.3-5.2,12.5c0.6,0.9,1.5,1.7,2.4,2.3
			c2-1.3,3.2-2.7,4.3-4.8c1.1,2,2.3,3.5,4.3,4.8c1-0.6,1.8-1.4,2.4-2.3C13.6,14,13.5,9.8,13.5,4.6L13.5,4.6z"/>
	</g>
</g>
</svg>
