<?xml version="1.0" encoding="utf-8"?>
<!-- Generator: Adobe Illustrator 19.2.0, SVG Export Plug-In . SVG Version: 6.00 Build 0)  -->
<svg version="1.1" id="Layer_1" xmlns="http://www.w3.org/2000/svg" xmlns:xlink="http://www.w3.org/1999/xlink" x="0px" y="0px"
	 viewBox="0 0 24 24" style="enable-background:new 0 0 24 24;" xml:space="preserve">
<style type="text/css">
	.st0{display:none;}
	.st1{display:inline;}
	.st2{fill:none;stroke:#000000;stroke-linecap:round;stroke-linejoin:round;stroke-miterlimit:10;}
	.st3{fill:none;stroke:#000000;stroke-linejoin:round;stroke-miterlimit:10;}
</style>
<g id="Filled_Icons" class="st0">
	<path class="st1" d="M12,0C5.4,0,0,5.4,0,12s5.4,12,12,12s12-5.4,12-12S18.6,0,12,0z M12,8h1v1h-1V8z M10,16H9v-3.5
		C9,11.7,8.3,11,7.5,11S6,11.7,6,12.5V15v0.5C6,15.8,5.8,16,5.5,16H4v-1h1v-2.5V9H4V8h1.5C5.8,8,6,8.2,6,8.5v2
		C6.4,10.2,6.9,10,7.5,10c1.4,0,2.5,1.1,2.5,2.5V16z M14,16h-3v-1h1v-4h-1v-1h1.5c0.3,0,0.5,0.2,0.5,0.5V15h1V16z M20,8h-3.6l-0.6,2
		H17c1.7,0,3,1.3,3,3s-1.3,3-3,3s-3-1.3-3-3c0-0.3,0.2-0.5,0.5-0.5S15,12.7,15,13c0,1.1,0.9,2,2,2c1.1,0,2-0.9,2-2s-0.9-2-2-2h-1.9
		c-0.2,0-0.3-0.1-0.4-0.2c-0.1-0.1-0.1-0.3-0.1-0.4l0.9-3C15.6,7.1,15.8,7,16,7h4c0.3,0,0.5,0.2,0.5,0.5S20.3,8,20,8z"/>
</g>
<g id="Outline_Icons">
	<g>
		<circle class="st2" cx="12" cy="12" r="11.5"/>
		<g>
			<polyline class="st3" points="4,8.5 5.5,8.5 5.5,15 			"/>
			<polyline class="st3" points="11,10.5 12.5,10.5 12.5,15.5 			"/>
			<path class="st3" d="M9.5,16v-3.5c0-1.1-0.9-2-2-2c-1.1,0-2,0.9-2,2v3H4"/>
			<line class="st3" x1="11" y1="15.5" x2="14" y2="15.5"/>
			<line class="st3" x1="12.5" y1="8" x2="12.5" y2="9"/>
			<path class="st2" d="M20,7.5h-4l-0.9,3H17c1.4,0,2.5,1.1,2.5,2.5s-1.1,2.5-2.5,2.5s-2.5-1.1-2.5-2.5"/>
		</g>
	</g>
</g>
</svg>
