<?xml version="1.0" encoding="utf-8"?>
<!-- Generator: Adobe Illustrator 19.2.0, SVG Export Plug-In . SVG Version: 6.00 Build 0)  -->
<svg version="1.1" id="Layer_1" xmlns="http://www.w3.org/2000/svg" xmlns:xlink="http://www.w3.org/1999/xlink" x="0px" y="0px"
	 viewBox="0 0 24 24" style="enable-background:new 0 0 24 24;" xml:space="preserve">
<style type="text/css">
	.st0{display:none;}
	.st1{display:inline;}
	.st2{fill:none;stroke:#000000;stroke-linejoin:round;stroke-miterlimit:10;}
</style>
<g id="Filled_Icons" class="st0">
	<g class="st1">
		<path d="M13.6,9.5c0.5,1,1,2,1.3,3c1.5-0.3,3.1-0.5,4.7-0.5c1,0,2.6,0.1,3.8,0.3c0.1-2.9-0.9-5.5-2.6-7.6
			C18.7,6.7,16.3,8.4,13.6,9.5z"/>
		<path d="M19.7,13c-1.5,0-3,0.1-4.4,0.4c0.8,2.4,1.2,5,1.2,7.6c0,0.4,0,1-0.1,1.6c3.8-1.6,6.5-5.1,7-9.3C22.3,13.2,20.7,13,19.7,13
			z"/>
		<path d="M0.6,10.3c1.2,0.1,2.5,0.2,3.4,0.2c2.8,0,5.6-0.5,8.2-1.5c-1.6-2.6-3.6-4.9-6.1-6.8C3.2,3.9,1.2,6.8,0.6,10.3z"/>
		<path d="M15.4,23c0-0.7,0.1-1.6,0.1-2c0-2.5-0.4-5-1.2-7.3c-4,0.9-7.7,3-10.9,5.9c2.1,2.4,5.2,3.9,8.6,3.9
			C13.2,23.5,14.3,23.3,15.4,23z"/>
		<path d="M14,12.7c-0.4-1-0.8-1.9-1.3-2.8C9.9,10.9,7,11.5,4,11.5c-0.9,0-2.3-0.1-3.5-0.2c0,0.2,0,0.5,0,0.7c0,2.6,0.8,4.9,2.3,6.8
			C6.1,15.8,9.9,13.7,14,12.7z"/>
		<path d="M7,1.6c2.5,2,4.6,4.3,6.1,7c2.6-1.1,5-2.7,7.1-4.7c-2.1-2.1-5-3.5-8.2-3.5C10.2,0.5,8.5,0.9,7,1.6z"/>
	</g>
</g>
<g id="Outline_Icons">
	<g>
		<circle class="st2" cx="12" cy="12" r="11.5"/>
		<path class="st2" d="M6.5,1.9C12.3,6.3,16,13.2,16,21c0,0.6,0,1.2-0.1,1.8"/>
		<path class="st2" d="M20.6,4.3C16.3,8.5,10.4,11,4,11c-1.2,0-2.3-0.1-3.4-0.2"/>
		<path class="st2" d="M3.1,19.2c4.3-4.1,10.2-6.7,16.6-6.7c1.2,0,2.6,0.1,3.8,0.3"/>
	</g>
</g>
</svg>
