<?xml version="1.0" encoding="utf-8"?>
<!-- Generator: Adobe Illustrator 19.2.0, SVG Export Plug-In . SVG Version: 6.00 Build 0)  -->
<svg version="1.1" id="Layer_1" xmlns="http://www.w3.org/2000/svg" xmlns:xlink="http://www.w3.org/1999/xlink" x="0px" y="0px"
	 viewBox="0 0 24 24" style="enable-background:new 0 0 24 24;" xml:space="preserve">
<style type="text/css">
	.st0{display:none;}
	.st1{display:inline;}
	.st2{fill:none;stroke:#000000;stroke-linecap:round;stroke-linejoin:round;stroke-miterlimit:10;}
	.st3{fill:none;stroke:#000000;stroke-linejoin:round;stroke-miterlimit:10;}
</style>
<g id="Filled_Icons" class="st0">
	<path class="st1" d="M12,0C5.4,0,0,5.4,0,12s5.4,12,12,12s12-5.4,12-12S18.6,0,12,0z M12.5,14.5H14c0.8,0,1.5,0.7,1.5,1.5
		s-0.7,1.5-1.5,1.5h-2.5c-2.2,0-4-1.8-4-4V7c0-0.8,0.7-1.5,1.5-1.5s1.5,0.7,1.5,1.5v1.5H14c0.8,0,1.5,0.7,1.5,1.5s-0.7,1.5-1.5,1.5
		h-3.5v1C10.5,13.6,11.4,14.5,12.5,14.5z"/>
</g>
<g id="Outline_Icons">
	<g>
		<circle class="st2" cx="12" cy="12" r="11.5"/>
		<path class="st3" d="M7.5,7c0-0.8,0.7-1.5,1.5-1.5s1.5,0.7,1.5,1.5v1.5H14c0.8,0,1.5,0.7,1.5,1.5s-0.7,1.5-1.5,1.5h-3.5v1
			c0,1.1,0.9,2,2,2H14c0.8,0,1.5,0.7,1.5,1.5s-0.7,1.5-1.5,1.5h-2.5c-2.2,0-4-1.8-4-4V7z"/>
	</g>
</g>
</svg>
