<?xml version="1.0" encoding="utf-8"?>
<!-- Generator: Adobe Illustrator 19.2.0, SVG Export Plug-In . SVG Version: 6.00 Build 0)  -->
<svg version="1.1" id="Layer_1" xmlns="http://www.w3.org/2000/svg" xmlns:xlink="http://www.w3.org/1999/xlink" x="0px" y="0px"
	 viewBox="0 0 24 24" style="enable-background:new 0 0 24 24;" xml:space="preserve">
<style type="text/css">
	.st0{display:none;}
	.st1{display:inline;}
	.st2{fill:none;stroke:#000000;stroke-linecap:round;stroke-linejoin:round;stroke-miterlimit:10;}
	.st3{fill:none;stroke:#000000;stroke-linejoin:round;stroke-miterlimit:10;}
</style>
<g id="Filled_Icons" class="st0">
	<path class="st1" d="M12,0C5.4,0,0,5.4,0,12s5.4,12,12,12s12-5.4,12-12S18.6,0,12,0z M15.9,6.3c0.8,0,1.4,0.4,1.4,0.9
		c0,0.5-0.6,0.9-1.4,0.9c-0.8,0-1.4-0.4-1.4-0.9C14.5,6.8,15.2,6.3,15.9,6.3z M9.4,6.3c0.8,0,1.4,0.4,1.4,0.9c0,0.5-0.6,0.9-1.4,0.9
		c-0.8,0-1.4-0.4-1.4-0.9C7.9,6.8,8.6,6.3,9.4,6.3z M10.5,18.9c-5.2,0-4.7-5.7-3.2-8.4h12C19.2,10.5,18.1,18.9,10.5,18.9z"/>
</g>
<g id="Outline_Icons">
	<g>
		<circle class="st2" cx="12" cy="12" r="11.5"/>
		<g>
			<path class="st3" d="M7.3,10.5h12c0,0-1.1,8.4-8.8,8.4C5.3,18.9,5.8,13.2,7.3,10.5z"/>
			<ellipse class="st3" cx="15.9" cy="7.3" rx="1.4" ry="0.9"/>
			<ellipse class="st3" cx="9.4" cy="7.3" rx="1.4" ry="0.9"/>
		</g>
	</g>
</g>
</svg>
