<?xml version="1.0" encoding="utf-8"?>
<!-- Generator: Adobe Illustrator 19.2.0, SVG Export Plug-In . SVG Version: 6.00 Build 0)  -->
<svg version="1.1" id="Layer_1" xmlns="http://www.w3.org/2000/svg" xmlns:xlink="http://www.w3.org/1999/xlink" x="0px" y="0px"
	 viewBox="0 0 24 24" style="enable-background:new 0 0 24 24;" xml:space="preserve">
<style type="text/css">
	.st0{display:none;}
	.st1{display:inline;}
	.st2{fill:none;stroke:#000000;stroke-linecap:round;stroke-linejoin:round;stroke-miterlimit:10;}
</style>
<g id="Filled_Icons" class="st0">
	<g class="st1">
		<path d="M6.4,12.8c-0.6,1.2-0.5,2.4-0.4,3.1l5.3-1.6l-2.2-4C7.9,10.9,7,11.7,6.4,12.8z"/>
		<path d="M12,0C5.4,0,0,5.4,0,12s5.4,12,12,12s12-5.4,12-12S18.6,0,12,0z M20.6,12.5l-6.2,1.9c-0.2,0.1-0.5,0-0.6-0.2L12,10.9
			c-0.1-0.2-0.1-0.5,0.2-0.7c0.2-0.1,0.5-0.1,0.7,0.2l1.7,2.9l5-1.5c-1-1.1-3.8-3.3-8.7-2c-0.3,0.1-0.6,0.2-0.8,0.2l2.5,4.4
			c0.1,0.1,0.1,0.2,0.1,0.3c0,0.2-0.2,0.4-0.4,0.5c0,0,0,0,0,0L5.9,17c0,0-0.1,0-0.1,0c-0.2,0-0.4-0.1-0.5-0.3
			c-0.4-1-0.6-2.7,0.2-4.4c0.6-1.2,1.7-2.2,3.1-2.9l-1-1.7C7.5,7.5,7.6,7.2,7.9,7C8.1,6.9,8.4,7,8.5,7.2l1,1.9
			c0.3-0.1,0.7-0.2,1.1-0.3c6.9-1.8,10.2,2.9,10.2,3c0.1,0.1,0.1,0.3,0.1,0.4C20.9,12.3,20.8,12.4,20.6,12.5z"/>
	</g>
</g>
<g id="Outline_Icons">
	<g>
		<circle class="st2" cx="12" cy="12" r="11.5"/>
		<path class="st2" d="M8.1,7.5l4,7.1v0l-6.4,1.9c-0.6-1.5-0.9-5.8,5-7.3c6.6-1.7,9.7,2.8,9.7,2.8l-6.2,1.9l-1.9-3.3"/>
	</g>
</g>
</svg>
