<?xml version="1.0" encoding="utf-8"?>
<!-- Generator: Adobe Illustrator 19.2.0, SVG Export Plug-In . SVG Version: 6.00 Build 0)  -->
<svg version="1.1" id="Layer_1" xmlns="http://www.w3.org/2000/svg" xmlns:xlink="http://www.w3.org/1999/xlink" x="0px" y="0px"
	 viewBox="0 0 24 24" style="enable-background:new 0 0 24 24;" xml:space="preserve">
<style type="text/css">
	.st0{display:none;}
	.st1{display:inline;}
	.st2{fill:none;stroke:#000000;stroke-linejoin:round;stroke-miterlimit:10;}
</style>
<g id="Filled_Icons" class="st0">
	<g class="st1">
		<path d="M10.2,9.7l-3-5.5C7.1,4.1,7,4,6.8,4H1.7C1.5,4,1.4,4.1,1.3,4.2c-0.1,0.2-0.1,0.3,0,0.5l2.9,5.2l-3.8,6.3
			c-0.1,0.2-0.1,0.3,0,0.5C0.4,16.9,0.5,17,0.7,17h5.1c0.2,0,0.3-0.1,0.4-0.2l4-6.5C10.3,10.1,10.3,9.9,10.2,9.7z"/>
		<path d="M23.9,0.2C23.8,0.1,23.7,0,23.5,0h-5.4c-0.2,0-0.3,0.1-0.4,0.3l-8,14c-0.1,0.2-0.1,0.3,0,0.5l5.1,9
			c0.1,0.2,0.3,0.3,0.4,0.3h5.4c0.2,0,0.3-0.1,0.4-0.2c0.1-0.2,0.1-0.3,0-0.5l-5-8.8l7.8-13.7C24,0.6,24,0.4,23.9,0.2z"/>
	</g>
</g>
<g id="Outline_Icons">
	<g>
		<polygon class="st2" points="6.8,4.5 1.7,4.5 4.7,10 0.7,16.5 5.8,16.5 9.8,10 		"/>
		<polygon class="st2" points="23.5,0.5 18.1,0.5 10.1,14.5 15.3,23.5 20.7,23.5 15.5,14.5 		"/>
	</g>
</g>
</svg>
