<?xml version="1.0" encoding="utf-8"?>
<!-- Generator: Adobe Illustrator 19.2.0, SVG Export Plug-In . SVG Version: 6.00 Build 0)  -->
<svg version="1.1" id="Layer_1" xmlns="http://www.w3.org/2000/svg" xmlns:xlink="http://www.w3.org/1999/xlink" x="0px" y="0px"
	 viewBox="0 0 24 24" style="enable-background:new 0 0 24 24;" xml:space="preserve">
<style type="text/css">
	.st0{display:none;}
	.st1{display:inline;}
	.st2{fill:none;stroke:#000000;stroke-linejoin:round;stroke-miterlimit:10;}
</style>
<g id="Filled_Icons" class="st0">
	<g class="st1">
		<path d="M17.8,13.3c0-2.8,2.2-4.1,2.4-4.1c-1.3-1.9-3.3-2.1-4-2.2c-1.7-0.2-3.3,1-4.2,1C11.2,8,9.8,7,8.4,7
			c-1.9,0-3.6,1.1-4.5,2.7C2,13.1,3.4,18,5.3,20.7c0.9,1.3,2,2.8,3.4,2.8c1.4-0.1,1.9-0.9,3.6-0.9s2.1,0.9,3.6,0.9
			c1.5,0,2.4-1.3,3.3-2.7c1.1-1.5,1.5-3,1.5-3.1C20.7,17.7,17.9,16.6,17.8,13.3z"/>
		<path d="M15.3,4.2c0.8-1,1.3-2.3,1.2-3.7c-1.2,0-2.6,0.8-3.4,1.7c-0.7,0.9-1.4,2.2-1.2,3.6C13.1,5.9,14.5,5.1,15.3,4.2z"/>
	</g>
</g>
<g id="Outline_Icons">
	<g>
		<path class="st2" d="M17.8,13.3c0-2.8,2.2-4.1,2.4-4.1c-1.3-1.9-3.3-2.1-4-2.2c-1.7-0.2-3.3,1-4.2,1C11.2,8,9.8,7,8.4,7
			c-1.9,0-3.6,1.1-4.5,2.7C2,13.1,3.4,18,5.3,20.7c0.9,1.3,2,2.8,3.4,2.8c1.4-0.1,1.9-0.9,3.6-0.9s2.1,0.9,3.6,0.9
			c1.5,0,2.4-1.3,3.3-2.7c1.1-1.5,1.5-3,1.5-3.1C20.7,17.7,17.9,16.6,17.8,13.3z"/>
		<path class="st2" d="M15.3,4.2c0.8-1,1.3-2.3,1.2-3.7c-1.2,0-2.6,0.8-3.4,1.7c-0.7,0.9-1.4,2.2-1.2,3.6
			C13.1,5.9,14.5,5.1,15.3,4.2z"/>
	</g>
</g>
</svg>
