<?xml version="1.0" encoding="utf-8"?>
<!-- Generator: Adobe Illustrator 19.2.0, SVG Export Plug-In . SVG Version: 6.00 Build 0)  -->
<svg version="1.1" id="Layer_1" xmlns="http://www.w3.org/2000/svg" xmlns:xlink="http://www.w3.org/1999/xlink" x="0px" y="0px"
	 viewBox="0 0 24 24" style="enable-background:new 0 0 24 24;" xml:space="preserve">
<style type="text/css">
	.st0{display:none;}
	.st1{display:inline;}
	.st2{fill:none;stroke:#000000;stroke-linejoin:round;stroke-miterlimit:10;}
</style>
<g id="Filled_Icons" class="st0">
	<g class="st1">
		<path d="M12,0.5C8.9,0.5,6.4,3,6.4,6.1c0,3.1,2.5,5.6,5.6,5.6c3.1,0,5.6-2.5,5.6-5.6C17.6,3,15.1,0.5,12,0.5z M12,8.6
			c-1.4,0-2.5-1.1-2.5-2.5c0-1.4,1.1-2.5,2.5-2.5c1.4,0,2.5,1.1,2.5,2.5C14.5,7.5,13.4,8.6,12,8.6z"/>
		<path d="M14.9,17c1.4-0.4,2.6-1,3.7-1.9c0.7-0.5,0.7-1.5,0.1-2.2c-0.7-0.7-1.5-0.7-2.1-0.2c-1.3,1-2.9,1.6-4.6,1.6
			c-1.7,0-3.3-0.6-4.6-1.6c-0.6-0.5-1.5-0.5-2,0.1c-0.8,0.8-0.7,1.8,0,2.3c1.1,0.9,2.4,1.6,3.8,1.9l-3.3,3.3c-0.7,0.7-0.7,1.9,0,2.6
			c0.7,0.7,1.9,0.7,2.6,0l3.5-3.5l3.5,3.5c0.7,0.7,1.9,0.7,2.6,0c0.7-0.7,0.7-1.9,0-2.6L14.9,17z"/>
	</g>
</g>
<g id="Outline_Icons">
	<g>
		<circle class="st2" cx="12" cy="6.1" r="5.6"/>
		<circle class="st2" cx="12" cy="6.1" r="2.5"/>
		<path class="st2" d="M14.9,17c1.4-0.4,2.6-1,3.7-1.9c0.7-0.5,0.7-1.5,0.1-2.2l-0.1-0.1c-0.5-0.6-1.4-0.6-2-0.1
			c-1.3,1-2.9,1.6-4.6,1.6c-1.7,0-3.3-0.6-4.6-1.6c-0.6-0.5-1.5-0.5-2,0.1l-0.1,0.1c-0.6,0.6-0.6,1.6,0.1,2.2c1.1,0.9,2.4,1.6,3.8,2
			l-3.3,3.3c-0.7,0.7-0.7,1.9,0,2.6c0.7,0.7,1.9,0.7,2.6,0l3.5-3.5l3.5,3.5c0.7,0.7,1.9,0.7,2.6,0c0.7-0.7,0.7-1.9,0-2.6L14.9,17z"
			/>
	</g>
</g>
</svg>
