<?xml version="1.0" encoding="utf-8"?>
<!-- Generator: Adobe Illustrator 19.2.0, SVG Export Plug-In . SVG Version: 6.00 Build 0)  -->
<svg version="1.1" id="Layer_1" xmlns="http://www.w3.org/2000/svg" xmlns:xlink="http://www.w3.org/1999/xlink" x="0px" y="0px"
	 viewBox="0 0 24 24" style="enable-background:new 0 0 24 24;" xml:space="preserve">
<style type="text/css">
	.st0{display:none;}
	.st1{display:inline;}
	.st2{fill:none;stroke:#000000;stroke-linecap:round;stroke-linejoin:round;stroke-miterlimit:10;}
</style>
<g id="Filled_Icons" class="st0">
	<g class="st1">
		<g>
			<path d="M19.6,19.5c-4.3,0-5.5-3.3-6.6-6.3c-1.1-3.1-2.1-5.7-6-5.7c-2.8,0-5,2.2-5,5s2.2,5,5,5c1.6,0,3.1-0.7,4-2
				c0.3-0.4,1-0.5,1.4-0.2c0.4,0.3,0.5,1,0.2,1.4c-1.3,1.8-3.4,2.8-5.6,2.8c-3.9,0-7-3.1-7-7s3.1-7,7-7c5.3,0,6.7,3.9,7.9,7
				c1.1,3.1,2,5,4.7,5c1.4,0,2-0.6,2-2c0-1.4-0.7-1.7-2.3-2.2c-1.6-0.5-3.7-1.2-3.7-4.3c0-1.1,0.5-2.1,1.4-2.7
				c0.7-0.5,1.7-0.8,2.7-0.8c2.2,0,3.9,1.2,3.9,2.8c0,0.6-0.4,1-1,1s-1-0.4-1-1c0-0.4-0.8-0.8-1.9-0.8c-0.6,0-1.2,0.2-1.6,0.4
				c-0.4,0.3-0.6,0.6-0.6,1.1c0,1.5,0.8,1.8,2.4,2.4c1.5,0.5,3.6,1.2,3.6,4.1C23.6,18,22,19.5,19.6,19.5z"/>
		</g>
	</g>
</g>
<g id="Outline_Icons">
	<g>
		<path class="st2" d="M12.3,16c-1.1,1.5-2.8,2.4-4.8,2.4c-3.3,0-6-2.7-6-6c0-3.3,2.7-6,6-6c8.8,0,5.1,12,12.6,12c1.8,0,3-1,3-3
			c0-4.4-6-1.9-6-6.4c0-3.4,6-3,6-0.7"/>
	</g>
</g>
</svg>
