<?xml version="1.0" encoding="utf-8"?>
<!-- Generator: Adobe Illustrator 19.2.0, SVG Export Plug-In . SVG Version: 6.00 Build 0)  -->
<svg version="1.1" id="Layer_1" xmlns="http://www.w3.org/2000/svg" xmlns:xlink="http://www.w3.org/1999/xlink" x="0px" y="0px"
	 viewBox="0 0 24 24" style="enable-background:new 0 0 24 24;" xml:space="preserve">
<style type="text/css">
	.st0{display:none;}
	.st1{display:inline;}
	.st2{fill:none;stroke:#000000;stroke-linecap:round;stroke-linejoin:round;stroke-miterlimit:10;}
</style>
<g id="Filled_Icons" class="st0">
	<g class="st1">
		<path d="M12,0C5.4,0,0,5.4,0,12s5.4,12,12,12s12-5.4,12-12S18.6,0,12,0z M19,16c0,0.3-0.2,0.5-0.5,0.5S18,16.3,18,16v-2.2
			l-5.6,6.1c0,0,0,0,0,0c-0.2,0.2-0.5,0.2-0.7,0c0,0,0,0,0,0L6,13.8V16c0,0.3-0.2,0.5-0.5,0.5S5,16.3,5,16v-3.5c0,0,0,0,0,0
			C5,12.2,5.2,12,5.5,12H9c0.3,0,0.5,0.2,0.5,0.5C9.5,12.8,9.3,13,9,13H6.6l4.9,5.2V9.9C10.1,9.7,9,8.5,9,7c0-1.7,1.3-3,3-3
			s3,1.3,3,3c0,1.5-1.1,2.7-2.5,2.9v8.3l4.9-5.2H15c-0.3,0-0.5-0.2-0.5-0.5c0-0.3,0.2-0.5,0.5-0.5h3.5c0.3,0,0.5,0.2,0.5,0.5
			c0,0,0,0,0,0V16z"/>
		<path d="M14,7c0-1.1-0.9-2-2-2s-2,0.9-2,2s0.9,2,2,2S14,8.1,14,7z M11,7c0-0.6,0.4-1,1-1c0.6,0,1,0.4,1,1s-0.4,1-1,1
			C11.4,8,11,7.6,11,7z"/>
	</g>
</g>
<g id="Outline_Icons">
	<g>
		<circle class="st2" cx="12" cy="12" r="11.5"/>
		<polyline class="st2" points="18.5,12.5 12,19.5 5.5,12.5 		"/>
		<polyline class="st2" points="15,12.5 18.5,12.5 18.5,16 		"/>
		<polyline class="st2" points="9,12.5 5.5,12.5 5.5,16 		"/>
		<line class="st2" x1="12" y1="19.5" x2="12" y2="9.5"/>
		<circle class="st2" cx="12" cy="7" r="2.5"/>
		<circle class="st2" cx="12" cy="7" r="0.5"/>
	</g>
</g>
</svg>
