<?xml version="1.0" encoding="utf-8"?>
<!-- Generator: Adobe Illustrator 19.2.0, SVG Export Plug-In . SVG Version: 6.00 Build 0)  -->
<svg version="1.1" id="Layer_1" xmlns="http://www.w3.org/2000/svg" xmlns:xlink="http://www.w3.org/1999/xlink" x="0px" y="0px"
	 viewBox="0 0 24 24" style="enable-background:new 0 0 24 24;" xml:space="preserve">
<style type="text/css">
	.st0{display:none;}
	.st1{display:inline;}
	.st2{fill:none;stroke:#000000;stroke-linejoin:round;stroke-miterlimit:10;}
</style>
<g id="Filled_Icons" class="st0">
	<g class="st1">
		<g>
			<path d="M11,8v2c0.2,0,0.3,0,0.5,0s0.3,0,0.5,0V8c1.1-0.2,2-1.2,2-2.4c0-1.4-1.1-2.5-2.5-2.5S9,4.2,9,5.6C9,6.8,9.9,7.8,11,8z"/>
			<path d="M2.8,9.4c0.2,0.2,0.5,0.3,0.8,0.3c0.3,0,0.6-0.1,0.9-0.3l3.5,2.4c0.2-0.3,0.4-0.5,0.7-0.8L5.1,8.5C5.2,7.9,5,7.3,4.5,6.9
				C3.8,6.5,2.8,6.7,2.4,7.3C2.2,7.7,2.1,8.1,2.2,8.4C2.2,8.8,2.5,9.2,2.8,9.4z"/>
			<path d="M14.4,11.1c0.2,0.2,0.5,0.5,0.6,0.8l4.5-2.7c0.3,0.2,0.6,0.3,0.9,0.3c0.3,0,0.5-0.1,0.8-0.2C22,8.9,22.2,8,21.8,7.3
				c-0.4-0.7-1.4-0.9-2.1-0.5c-0.6,0.3-0.8,1-0.7,1.6L14.4,11.1z"/>
			<path d="M17.4,16.1c-0.5-0.4-1.2-0.4-1.7,0l-0.9-0.7c-0.2,0.3-0.4,0.5-0.7,0.7l1,0.7C15,17.1,15,17.3,15,17.5
				c0.1,0.4,0.3,0.7,0.6,1c0.3,0.2,0.6,0.3,0.9,0.3c0.5,0,0.9-0.2,1.2-0.6c0.2-0.3,0.3-0.7,0.3-1.1C17.9,16.7,17.7,16.4,17.4,16.1z"
				/>
			<path d="M22,11.5c-0.9,0-1.7,0.6-1.9,1.5h-4.6c0,0.2,0.1,0.3,0.1,0.5c0,0.2,0,0.3-0.1,0.5h4.6c0.2,0.9,1,1.5,1.9,1.5
				c1.1,0,2-0.9,2-2S23.1,11.5,22,11.5z"/>
			<path d="M8.6,15.9c-0.3-0.2-0.5-0.5-0.6-0.8l-1.7,1.1c-0.5-0.4-1.2-0.4-1.7-0.1c-0.7,0.4-0.9,1.4-0.5,2.1
				c0.3,0.4,0.8,0.7,1.3,0.7c0.3,0,0.5-0.1,0.8-0.2c0.6-0.3,0.8-1,0.7-1.6L8.6,15.9z"/>
			<path d="M7.6,14c0-0.2-0.1-0.3-0.1-0.5c0-0.2,0-0.3,0.1-0.5l-3.6,0c-0.2-0.9-1-1.5-1.9-1.5c-0.5,0-1,0.2-1.4,0.6
				C0.2,12.5,0,13,0,13.5c0,1.1,0.9,2,2,2h0c0.9,0,1.7-0.6,1.9-1.5L7.6,14z"/>
		</g>
		<ellipse cx="11.5" cy="13.5" rx="3" ry="2.5"/>
	</g>
</g>
<g id="Outline_Icons">
	<g>
		<ellipse class="st2" cx="11.5" cy="13.5" rx="2.5" ry="2"/>
		<line class="st2" x1="11.5" y1="7.6" x2="11.5" y2="10"/>
		<circle class="st2" cx="11.5" cy="5.6" r="2"/>
		<line class="st2" x1="20.5" y1="13.5" x2="15" y2="13.5"/>
		<circle class="st2" cx="22" cy="13.5" r="1.5"/>
		<line class="st2" x1="15.7" y1="16.7" x2="14.3" y2="15.6"/>
		<circle class="st2" cx="16.5" cy="17.3" r="1"/>
		<line class="st2" x1="19.6" y1="8.6" x2="14.5" y2="11.7"/>
		<circle class="st2" cx="20.5" cy="8.1" r="1"/>
		<line class="st2" x1="3.5" y1="13.5" x2="8" y2="13.5"/>
		<circle class="st2" cx="2" cy="13.5" r="1.5"/>
		<line class="st2" x1="6.2" y1="16.9" x2="8.5" y2="15.3"/>
		<circle class="st2" cx="5.4" cy="17.4" r="1"/>
		<line class="st2" x1="4.5" y1="8.7" x2="8.6" y2="11.5"/>
		<circle class="st2" cx="3.6" cy="8.2" r="1"/>
	</g>
</g>
</svg>
