<?xml version="1.0" encoding="utf-8"?>
<!-- Generator: Adobe Illustrator 19.2.0, SVG Export Plug-In . SVG Version: 6.00 Build 0)  -->
<svg version="1.1" id="Layer_1" xmlns="http://www.w3.org/2000/svg" xmlns:xlink="http://www.w3.org/1999/xlink" x="0px" y="0px"
	 viewBox="0 0 24 24" style="enable-background:new 0 0 24 24;" xml:space="preserve">
<style type="text/css">
	.st0{display:none;}
	.st1{display:inline;}
	.st2{fill:none;stroke:#000000;stroke-linecap:round;stroke-linejoin:round;stroke-miterlimit:10;}
	.st3{fill:none;stroke:#000000;stroke-linejoin:round;stroke-miterlimit:10;}
</style>
<g id="Filled_Icons" class="st0">
	<path class="st1" d="M12,0C5.4,0,0,5.4,0,12s5.4,12,12,12s12-5.4,12-12S18.6,0,12,0z M5.5,13.5C4.6,13.5,4,12.8,4,12
		c0-0.8,0.7-1.5,1.5-1.5C6.3,10.5,7,11.2,7,12C7,12.8,6.3,13.5,5.5,13.5z M11,18.5c-0.8,0-1.5-0.7-1.5-1.5c0-0.8,0.7-1.5,1.5-1.5
		s1.5,0.7,1.5,1.5C12.5,17.9,11.8,18.5,11,18.5z M11,13.5c-0.8,0-1.5-0.7-1.5-1.5c0-0.8,0.7-1.5,1.5-1.5s1.5,0.7,1.5,1.5
		C12.5,12.8,11.8,13.5,11,13.5z M11,8.5c-0.8,0-1.5-0.7-1.5-1.5c0-0.8,0.7-1.5,1.5-1.5s1.5,0.7,1.5,1.5C12.5,7.9,11.8,8.5,11,8.5z
		 M16.5,18.5c-0.8,0-1.5-0.7-1.5-1.5c0-0.8,0.7-1.5,1.5-1.5c0.8,0,1.5,0.7,1.5,1.5C18,17.9,17.4,18.5,16.5,18.5z M16.5,13.5
		c-0.8,0-1.5-0.7-1.5-1.5c0-0.8,0.7-1.5,1.5-1.5c0.8,0,1.5,0.7,1.5,1.5C18,12.8,17.4,13.5,16.5,13.5z M16.5,8.5
		C15.7,8.5,15,7.9,15,7c0-0.8,0.7-1.5,1.5-1.5C17.4,5.5,18,6.2,18,7C18,7.9,17.4,8.5,16.5,8.5z"/>
</g>
<g id="Outline_Icons">
	<g>
		<circle class="st2" cx="12" cy="12" r="11.5"/>
		<circle class="st3" cx="16.5" cy="7" r="1.5"/>
		<circle class="st3" cx="16.5" cy="12" r="1.5"/>
		<circle class="st3" cx="16.5" cy="17" r="1.5"/>
		<circle class="st3" cx="11" cy="7" r="1.5"/>
		<circle class="st3" cx="11" cy="12" r="1.5"/>
		<circle class="st3" cx="5.5" cy="12" r="1.5"/>
		<circle class="st3" cx="11" cy="17" r="1.5"/>
	</g>
</g>
</svg>
