<?xml version="1.0" encoding="utf-8"?>
<!-- Generator: Adobe Illustrator 19.2.0, SVG Export Plug-In . SVG Version: 6.00 Build 0)  -->
<svg version="1.1" id="Layer_1" xmlns="http://www.w3.org/2000/svg" xmlns:xlink="http://www.w3.org/1999/xlink" x="0px" y="0px"
	 viewBox="0 0 24 24" style="enable-background:new 0 0 24 24;" xml:space="preserve">
<style type="text/css">
	.st0{display:none;}
	.st1{display:inline;}
	.st2{fill:none;stroke:#000000;stroke-linecap:round;stroke-linejoin:round;stroke-miterlimit:10;}
	.st3{fill:none;stroke:#000000;stroke-linejoin:round;stroke-miterlimit:10;}
</style>
<g id="Filled_Icons" class="st0">
	<path class="st1" d="M12,0C5.4,0,0,5.4,0,12s5.4,12,12,12s12-5.4,12-12S18.6,0,12,0z M10.6,7.9c0.2-0.2,0.5-0.3,0.7-0.1l4.1,3
		c0.2,0.2,0.3,0.5,0.1,0.7c-0.1,0.1-0.3,0.2-0.4,0.2c-0.1,0-0.2,0-0.3-0.1l-4.1-3C10.4,8.4,10.4,8.1,10.6,7.9z M9,10.4
		c0.1-0.3,0.4-0.4,0.7-0.3l4.7,2.1c0.3,0.1,0.4,0.4,0.3,0.7c-0.1,0.2-0.3,0.3-0.5,0.3c-0.1,0-0.1,0-0.2,0L9.3,11
		C9,10.9,8.9,10.6,9,10.4z M8.1,13.1c0.1-0.3,0.3-0.4,0.6-0.4l5,1.1c0.3,0.1,0.4,0.3,0.4,0.6c-0.1,0.2-0.3,0.4-0.5,0.4
		c0,0-0.1,0-0.1,0l-5-1.1C8.2,13.7,8,13.4,8.1,13.1z M8.2,15.5h5.1c0.3,0,0.5,0.2,0.5,0.5s-0.2,0.5-0.5,0.5H8.2
		c-0.3,0-0.5-0.2-0.5-0.5C7.7,15.7,7.9,15.5,8.2,15.5z M16,17.3c0,1-0.7,1.7-1.7,1.7H7.8c-1,0-1.8-0.8-1.8-1.7v-3.8
		C6,13.2,6.2,13,6.5,13S7,13.2,7,13.5v3.8C7,17.7,7.3,18,7.8,18h6.5c0.4,0,0.7-0.3,0.7-0.7v-3.8c0-0.3,0.2-0.5,0.5-0.5
		s0.5,0.2,0.5,0.5V17.3z M16.6,10.3c-0.1,0.1-0.2,0.1-0.3,0.1c-0.1,0-0.3-0.1-0.4-0.2l-3.4-3.8c-0.2-0.2-0.2-0.5,0-0.7
		c0.2-0.2,0.5-0.2,0.7,0l3.4,3.8C16.9,9.8,16.8,10.1,16.6,10.3z M18,9.4c-0.1,0-0.2,0.1-0.3,0.1c-0.2,0-0.3-0.1-0.4-0.2l-2.6-4.4
		c-0.1-0.2-0.1-0.5,0.2-0.7c0.2-0.1,0.5-0.1,0.7,0.2l2.6,4.4C18.3,9,18.2,9.3,18,9.4z"/>
</g>
<g id="Outline_Icons">
	<g>
		<circle class="st2" cx="12" cy="12" r="11.5"/>
		<g>
			<path class="st3" d="M15.5,13.1l0,4.2c0,0.7-0.5,1.3-1.2,1.3H7.8c-0.7,0-1.3-0.6-1.3-1.3l0-4.2"/>
			<line class="st2" x1="13.3" y1="16" x2="8.2" y2="16"/>
			<line class="st2" x1="13.6" y1="14.3" x2="8.6" y2="13.2"/>
			<line class="st2" x1="14.2" y1="12.6" x2="9.5" y2="10.6"/>
			<line class="st2" x1="15.1" y1="11.2" x2="11" y2="8.2"/>
			<line class="st2" x1="16.3" y1="9.9" x2="12.9" y2="6.1"/>
			<line class="st2" x1="17.7" y1="9" x2="15.2" y2="4.5"/>
		</g>
	</g>
</g>
</svg>
