<?xml version="1.0" encoding="utf-8"?>
<!-- Generator: Adobe Illustrator 19.2.0, SVG Export Plug-In . SVG Version: 6.00 Build 0)  -->
<svg version="1.1" id="Layer_1" xmlns="http://www.w3.org/2000/svg" xmlns:xlink="http://www.w3.org/1999/xlink" x="0px" y="0px"
	 viewBox="0 0 24 24" style="enable-background:new 0 0 24 24;" xml:space="preserve">
<style type="text/css">
	.st0{display:none;}
	.st1{display:inline;}
	.st2{fill:none;stroke:#000000;stroke-linecap:round;stroke-linejoin:round;stroke-miterlimit:10;}
	.st3{fill:none;stroke:#000000;stroke-linejoin:round;stroke-miterlimit:10;}
</style>
<g id="Filled_Icons" class="st0">
	<path class="st1" d="M12,0C5.4,0,0,5.4,0,12s5.4,12,12,12s12-5.4,12-12S18.6,0,12,0z M15.5,6.4c-0.8,0-2,0.2-2,1v10.1
		c0,0.8,1.2,1,2,1v1h-7v-1c0.8-0.1,2-0.2,2-1V7.4c0-0.8-1.2-1-2-1V5.5h7V6.4z"/>
</g>
<g id="Outline_Icons">
	<g>
		<circle class="st2" cx="12" cy="12" r="11.5"/>
		<path class="st3" d="M8.5,19.5v-1c0.8-0.1,2-0.2,2-1V7.4c0-0.8-1.2-1-2-1V5.5h7v0.9c-0.8,0-2,0.2-2,1v10.1c0,0.8,1.2,1,2,1v1H8.5z
			"/>
	</g>
</g>
</svg>
