<?xml version="1.0" encoding="utf-8"?>
<!-- Generator: Adobe Illustrator 19.2.0, SVG Export Plug-In . SVG Version: 6.00 Build 0)  -->
<svg version="1.1" id="Layer_1" xmlns="http://www.w3.org/2000/svg" xmlns:xlink="http://www.w3.org/1999/xlink" x="0px" y="0px"
	 viewBox="0 0 24 24" style="enable-background:new 0 0 24 24;" xml:space="preserve">
<style type="text/css">
	.st0{display:none;}
	.st1{display:inline;}
	.st2{fill:none;stroke:#000000;stroke-linecap:round;stroke-linejoin:round;stroke-miterlimit:10;}
	.st3{fill:none;stroke:#000000;stroke-linejoin:round;stroke-miterlimit:10;}
</style>
<g id="Filled_Icons" class="st0">
	<path class="st1" d="M12,0C5.4,0,0,5.4,0,12s5.4,12,12,12s12-5.4,12-12S18.6,0,12,0z M7.8,14.5H4.8L7,11.3L5.3,8.5h3.1l1.7,2.8
		L7.8,14.5z M16.7,19.5h-3.3L10.3,14l4.9-8.5h3.3L13.6,14L16.7,19.5z"/>
</g>
<g id="Outline_Icons">
	<g>
		<circle class="st2" cx="12" cy="12" r="11.5"/>
		<g>
			<polygon class="st3" points="8.4,8.5 5.3,8.5 7,11.3 4.8,14.5 7.8,14.5 10.1,11.3 			"/>
			<polygon class="st3" points="18.4,5.5 15.2,5.5 10.3,14 13.4,19.5 16.7,19.5 13.6,14 			"/>
		</g>
	</g>
</g>
</svg>
