<?xml version="1.0" encoding="utf-8"?>
<!-- Generator: Adobe Illustrator 19.2.0, SVG Export Plug-In . SVG Version: 6.00 Build 0)  -->
<svg version="1.1" id="Layer_1" xmlns="http://www.w3.org/2000/svg" xmlns:xlink="http://www.w3.org/1999/xlink" x="0px" y="0px"
	 viewBox="0 0 24 24" style="enable-background:new 0 0 24 24;" xml:space="preserve">
<style type="text/css">
	.st0{display:none;}
	.st1{display:inline;}
	.st2{fill:none;stroke:#000000;stroke-linecap:round;stroke-linejoin:round;stroke-miterlimit:10;}
</style>
<g id="Filled_Icons" class="st0">
	<path class="st1" d="M18,6.5c-2.5,0-4.8,2.3-6,3.8c-1.2-1.5-3.4-3.8-5.9-3.8C2.6,6.5,0,8.9,0,12c0,3.1,2.6,5.5,6.1,5.5
		c2.5,0,4.8-2.3,5.9-3.8c1.2,1.5,3.5,3.8,6,3.8c3.5,0,6-2.3,6-5.5C24,8.8,21.5,6.5,18,6.5z M6.1,15.5C3.7,15.5,2,14,2,12
		c0-2,1.7-3.5,4.1-3.5c1.8,0,3.7,2.2,4.7,3.5C9.8,13.3,7.8,15.5,6.1,15.5z M18,15.5c-1.8,0-3.8-2.2-4.8-3.5c1-1.3,3-3.5,4.8-3.5
		c2.3,0,4,1.4,4,3.5C22,14.1,20.4,15.5,18,15.5z"/>
</g>
<g id="Outline_Icons">
	<g>
		<path class="st2" d="M5.6,7.5c-3,0-5.1,2-5.1,4.5c0,2.5,2,4.5,5.1,4.5c3,0,5.9-4.5,5.9-4.5S8.6,7.5,5.6,7.5z"/>
		<path class="st2" d="M17.5,7.5c-3,0-6,4.5-6,4.5s3,4.5,6,4.5s5-2,5-4.5C22.5,9.5,20.5,7.5,17.5,7.5z"/>
	</g>
</g>
</svg>
