<?xml version="1.0" encoding="utf-8"?>
<!-- Generator: Adobe Illustrator 19.2.0, SVG Export Plug-In . SVG Version: 6.00 Build 0)  -->
<svg version="1.1" id="Layer_1" xmlns="http://www.w3.org/2000/svg" xmlns:xlink="http://www.w3.org/1999/xlink" x="0px" y="0px"
	 viewBox="0 0 24 24" style="enable-background:new 0 0 24 24;" xml:space="preserve">
<style type="text/css">
	.st0{display:none;}
	.st1{display:inline;}
	.st2{fill:none;stroke:#000000;stroke-linecap:round;stroke-linejoin:round;stroke-miterlimit:10;}
</style>
<g id="Filled_Icons" class="st0">
	<path class="st1" d="M17.5,5.2C17.5,5.2,17.5,5.2,17.5,5.2c-3.1,0-4.8,3.1-6.4,6c-1.4,2.6-2.7,5-4.6,5c0,0,0,0,0,0
		c-1.2,0-2.3-0.5-3.2-1.3C2.5,14,2,12.8,2,11.6c0-1.2,0.5-2.3,1.3-3.2c0.9-0.8,2-1.3,3.2-1.3c0,0,0,0,0,0c1,0,1.9,0.5,2.7,1.5
		c0.4,0.4,1,0.5,1.4,0.1c0.4-0.4,0.5-1,0.1-1.4C9.6,5.9,8.1,5.1,6.5,5.1c0,0,0,0,0,0C4.8,5.1,3.2,5.8,1.9,7C0.7,8.3,0,9.9,0,11.6
		c0,1.7,0.7,3.4,1.9,4.6c1.2,1.2,2.9,1.9,4.6,1.9c0,0,0,0,0,0c3.1,0,4.8-3.1,6.4-6c1.4-2.6,2.7-5,4.6-5c0,0,0,0,0,0
		c2.5,0,4.5,2,4.5,4.5c0,1.2-0.5,2.3-1.3,3.2c-0.9,0.8-2,1.3-3.2,1.3c0,0,0,0,0,0c-1.4,0-2.6-0.8-3.3-1.6c-0.4-0.4-1-0.4-1.4,0
		c-0.4,0.4-0.4,1,0,1.4c1,1,2.6,2.1,4.7,2.1c0,0,0,0,0,0c1.7,0,3.3-0.7,4.6-1.9c1.2-1.2,1.9-2.9,1.9-4.6C24,8.1,21.1,5.2,17.5,5.2z"
		/>
</g>
<g id="Outline_Icons">
	<g>
		<path class="st2" d="M13,14.5c0,0,2,3,5,3s5.5-2.5,5.5-5.5c0-3-2.5-5.5-5.5-5.5c-5,0-7,11-12,11c-3,0-5.5-2.5-5.5-5.5
			C0.5,9,3,6.5,6,6.5s4.5,3.5,4.5,3.5"/>
	</g>
</g>
</svg>
