<?xml version="1.0" encoding="utf-8"?>
<!-- Generator: Adobe Illustrator 19.2.0, SVG Export Plug-In . SVG Version: 6.00 Build 0)  -->
<svg version="1.1" id="Layer_1" xmlns="http://www.w3.org/2000/svg" xmlns:xlink="http://www.w3.org/1999/xlink" x="0px" y="0px"
	 viewBox="0 0 24 24" style="enable-background:new 0 0 24 24;" xml:space="preserve">
<style type="text/css">
	.st0{display:none;}
	.st1{display:inline;}
	.st2{fill:none;stroke:#000000;stroke-linecap:round;stroke-linejoin:round;stroke-miterlimit:10;}
</style>
<g id="Filled_Icons" class="st0">
	<g class="st1">
		<path d="M18,0H5C2.2,0,0,2.2,0,5v10c0,2.8,2.2,5,5,5h5.6l-2.3,2.3c-0.4,0.4-0.4,1,0,1.4C8.5,23.9,8.7,24,9,24
			c0.3,0,0.5-0.1,0.7-0.3l4-4c0.1-0.1,0.2-0.2,0.2-0.3c0.1-0.2,0.1-0.5,0-0.8c-0.1-0.1-0.1-0.2-0.2-0.3l-4-4c-0.4-0.4-1-0.4-1.4,0
			c-0.4,0.4-0.4,1,0,1.4l2.3,2.3H5c-1.7,0-3-1.3-3-3V5c0-1.7,1.3-3,3-3h13c1.7,0,3,1.3,3,3v3c0,0.6,0.4,1,1,1c0.6,0,1-0.4,1-1V5
			C23,2.2,20.8,0,18,0z"/>
		<path d="M13.7,14.3c-0.4-0.4-1-0.4-1.4,0c-0.4,0.4-0.4,1,0,1.4l3.3,3.3l-3.3,3.3c-0.4,0.4-0.4,1,0,1.4c0.2,0.2,0.5,0.3,0.7,0.3
			c0.3,0,0.5-0.1,0.7-0.3l4-4c0.4-0.4,0.4-1,0-1.4L13.7,14.3z"/>
	</g>
</g>
<g id="Outline_Icons">
	<g>
		<path class="st2" d="M13.5,18.5h-8c-2.2,0-4-1.8-4-4v-10c0-2.2,1.8-4,4-4h13c2.2,0,4,1.8,4,4v3"/>
		<polyline class="st2" points="9.5,22.5 13.5,18.5 9.5,14.5 		"/>
		<polyline class="st2" points="13.5,22.5 17.5,18.5 13.5,14.5 		"/>
	</g>
</g>
</svg>
