<?xml version="1.0" encoding="utf-8"?>
<!-- Generator: Adobe Illustrator 19.2.0, SVG Export Plug-In . SVG Version: 6.00 Build 0)  -->
<svg version="1.1" id="Layer_1" xmlns="http://www.w3.org/2000/svg" xmlns:xlink="http://www.w3.org/1999/xlink" x="0px" y="0px"
	 viewBox="0 0 24 24" style="enable-background:new 0 0 24 24;" xml:space="preserve">
<style type="text/css">
	.st0{display:none;}
	.st1{display:inline;}
	.st2{fill:none;stroke:#000000;stroke-linecap:round;stroke-linejoin:round;stroke-miterlimit:10;}
</style>
<g id="Filled_Icons" class="st0">
	<path class="st1" d="M17.5,6.2C17.5,6.2,17.5,6.2,17.5,6.2c-2.8,0-4.6,2.8-6.3,5.5c-1.4,2.2-2.9,4.5-4.6,4.5c0,0,0,0,0,0
		c-1.1,0-2.1-0.4-2.8-1.2c-0.8-0.8-1.2-1.8-1.2-2.8c0-1.1,0.4-2.1,1.2-2.8c0.8-0.8,1.8-1.2,2.8-1.2c0,0,0,0,0,0c0.5,0,1,0.2,1.4,0.5
		L6.5,9.1C6,9.3,5.7,9.8,5.8,10.3c0.1,0.4,0.5,0.7,1,0.7c0.1,0,0.2,0,0.3,0l3.1-0.9c0.4-0.1,0.7-0.5,0.7-0.9L11,5.9c0-0.6-0.4-1-1-1
		c-0.6,0-1,0.4-1,1l0,1.1C8.2,6.5,7.4,6.2,6.5,6.2c0,0,0,0,0,0C5,6.2,3.5,6.8,2.3,8c-1.1,1.1-1.8,2.6-1.8,4.2c0,1.6,0.6,3.1,1.7,4.2
		c1.1,1.1,2.6,1.8,4.2,1.8c0,0,0,0,0,0c2.8,0,4.6-2.8,6.3-5.5c1.4-2.2,2.9-4.5,4.6-4.5c0,0,0,0,0,0c2.2,0,4,1.8,4,4
		c0,1.1-0.4,2.1-1.2,2.8c-0.8,0.8-1.8,1.2-2.8,1.2c0,0,0,0,0,0c-2.1,0-3.2-1.7-3.2-1.8c-0.3-0.5-0.9-0.6-1.4-0.3
		c-0.5,0.3-0.6,0.9-0.3,1.4c0.1,0.1,1.7,2.8,4.9,2.8c0,0,0,0,0,0c1.6,0,3.1-0.6,4.2-1.7c1.1-1.1,1.8-2.6,1.8-4.2
		C23.5,9,20.8,6.3,17.5,6.2z"/>
</g>
<g id="Outline_Icons">
	<g>
		<path class="st2" d="M10.5,10c0,0-1.5-3.5-4.5-3.5S0.5,9,0.5,12c0,3,2.5,5.5,5.5,5.5c5,0,7-11,12-11c3,0,5.5,2.5,5.5,5.5
			c0,3-2.5,5.5-5.5,5.5S13.5,15,13.5,15"/>
		<polyline class="st2" points="7,9.3 10.5,10 11.2,6.5 		"/>
	</g>
</g>
</svg>
