<?xml version="1.0" encoding="utf-8"?>
<!-- Generator: Adobe Illustrator 19.2.0, SVG Export Plug-In . SVG Version: 6.00 Build 0)  -->
<svg version="1.1" id="Layer_1" xmlns="http://www.w3.org/2000/svg" xmlns:xlink="http://www.w3.org/1999/xlink" x="0px" y="0px"
	 viewBox="0 0 24 24" style="enable-background:new 0 0 24 24;" xml:space="preserve">
<style type="text/css">
	.st0{display:none;}
	.st1{display:inline;}
	.st2{fill:none;stroke:#000000;stroke-linejoin:round;stroke-miterlimit:10;}
	.st3{fill:none;stroke:#000000;stroke-linecap:round;stroke-linejoin:round;stroke-miterlimit:10;}
</style>
<g id="Filled_Icons" class="st0">
	<g class="st1">
		<path d="M14,0.1c-0.9,0-1.9,0.4-2.5,1.6C10.8,0.5,9.8,0.1,9,0.1c-1.5,0-3,1.2-3,3.2c0,2.8,4.7,6.3,5.2,6.7
			c0.1,0.1,0.2,0.1,0.3,0.1s0.2,0,0.3-0.1C12.3,9.6,17,6.1,17,3.3C17,1.3,15.5,0.1,14,0.1z"/>
		<path d="M6.7,16.8c0.8-0.2,1.5-0.7,1.9-1.3H8.4c-1,0-2-0.4-2.8-1.1c-0.2-0.2-0.2-0.5,0-0.7c0.2-0.2,0.5-0.2,0.7,0
			c0.6,0.6,1.3,0.9,2.1,0.9h0.8c0.2-0.5,0.3-1,0.3-1.5c0-2.2-1.8-4-4-4s-4,1.8-4,4c0,0.8,0.2,1.5,0.7,2.2L1,23.4
			c0,0.1,0,0.3,0.1,0.4C1.2,23.9,1.4,24,1.5,24H9c0.2,0,0.3-0.1,0.4-0.2s0.1-0.3,0-0.5L6.7,16.8z M6,11.5C6,11.2,6.2,11,6.5,11
			S7,11.2,7,11.5V12c0,0.3-0.2,0.5-0.5,0.5S6,12.3,6,12V11.5z"/>
		<path d="M20.8,15.2c0.4-0.7,0.7-1.4,0.7-2.2c0-2.2-1.8-4-4-4s-4,1.8-4,4c0,0.5,0.1,1,0.3,1.5h0.8c0.8,0,1.5-0.3,2.1-0.9
			c0.2-0.2,0.5-0.2,0.7,0c0.2,0.2,0.2,0.5,0,0.7c-0.7,0.7-1.7,1.1-2.8,1.1h-0.2c0.5,0.6,1.2,1.1,1.9,1.3l-2.8,6.5
			c-0.1,0.2-0.1,0.3,0,0.5c0.1,0.1,0.2,0.2,0.4,0.2h7.5c0.1,0,0.3-0.1,0.4-0.2c0.1-0.1,0.1-0.3,0.1-0.4L20.8,15.2z M17,12
			c0,0.3-0.2,0.5-0.5,0.5S16,12.3,16,12v-0.5c0-0.3,0.2-0.5,0.5-0.5s0.5,0.2,0.5,0.5V12z"/>
	</g>
</g>
<g id="Outline_Icons">
	<g>
		<path class="st2" d="M11.5,9.6c0,0,5-3.6,5-6.3c0-3.1-4.1-4-5-0.3c-0.9-3.7-5-2.8-5,0.3C6.5,6,11.5,9.6,11.5,9.6z"/>
		<path class="st2" d="M9,13c0-1.9-1.6-3.5-3.5-3.5C3.6,9.5,2,11.1,2,13c0,0.8,0.3,1.5,0.7,2.1l-1.2,8.4H9l-3.1-7
			C7.7,16.2,9,14.8,9,13z"/>
		<line class="st3" x1="6.5" y1="12" x2="6.5" y2="11.5"/>
		<path class="st3" d="M8.4,15c-0.9,0-1.8-0.4-2.4-1"/>
		<path class="st2" d="M14,13c0-1.9,1.6-3.5,3.5-3.5S21,11.1,21,13c0,0.8-0.3,1.5-0.7,2.1l1.2,8.4H14l3.1-7C15.3,16.2,14,14.8,14,13
			z"/>
		<line class="st3" x1="16.5" y1="12" x2="16.5" y2="11.5"/>
		<path class="st3" d="M14.6,15c0.9,0,1.8-0.4,2.4-1"/>
	</g>
</g>
</svg>
