<?xml version="1.0" encoding="utf-8"?>
<!-- Generator: Adobe Illustrator 19.2.0, SVG Export Plug-In . SVG Version: 6.00 Build 0)  -->
<svg version="1.1" id="Layer_1" xmlns="http://www.w3.org/2000/svg" xmlns:xlink="http://www.w3.org/1999/xlink" x="0px" y="0px"
	 viewBox="0 0 24 24" style="enable-background:new 0 0 24 24;" xml:space="preserve">
<style type="text/css">
	.st0{display:none;}
	.st1{display:inline;}
	.st2{fill:none;stroke:#000000;stroke-linejoin:round;stroke-miterlimit:10;}
</style>
<g id="Filled_Icons" class="st0">
	<g class="st1">
		<path d="M18.3,8.9c0.1,0,0.2,0,0.3-0.1c0.3-0.2,3.2-2.4,3.2-4.2c0-1.3-1-2.2-2-2.2c-0.5,0-1.1,0.2-1.5,0.8c-0.4-0.6-1-0.8-1.5-0.8
			c-1,0-2,0.8-2,2.2c0,1.8,2.9,4,3.2,4.2C18.1,8.8,18.2,8.9,18.3,8.9z"/>
		<path d="M12.1,4.8C12.1,4.8,12.1,4.8,12.1,4.8c0.2,0,0.4-0.1,0.5-0.3c0.2-0.4,1-2.4,0.4-3.4c-0.3-0.5-0.8-0.8-1.3-0.8
			c-0.4,0-0.8,0.2-1.1,0.5c-0.1,0.1-0.2,0.3-0.2,0.5c-0.1,0-0.2,0-0.3,0C9.6,1.3,9.1,1.5,8.9,2c-0.3,0.5-0.3,1,0,1.5
			C9.5,4.5,11.7,4.8,12.1,4.8z"/>
		<path d="M23.8,12.5c-0.3-0.8-1.1-1.3-2-1.1c0.1-0.4,0-0.9-0.2-1.2c-0.6-1.1-2.3-1.2-3.2-0.3c-1.3,1.3-0.8,4.8-0.7,5.2
			c0,0.2,0.2,0.4,0.4,0.4c0,0,1,0.2,2.1,0.2c1.5,0,2.6-0.3,3.2-0.9C24,14.2,24.2,13.3,23.8,12.5z"/>
		<path d="M13.3,5.8l-9,3.5C4.1,9.3,4,9.5,4,9.7v3v6.6H2.8c-1.7,0-2.8,0.9-2.8,2.4C0,23.2,0.9,24,2.5,24C4.1,24,5,22.6,5,21.2V13
			l8-3.3v5.6h-1.8c-1.5,0-2.8,1.3-2.8,2.8c0,1.6,1.3,2.8,2.8,2.8c1.5,0,2.8-1.3,2.8-2.8V6.3c0-0.2-0.1-0.3-0.2-0.4
			C13.6,5.8,13.5,5.7,13.3,5.8z"/>
	</g>
</g>
<g id="Outline_Icons">
	<g>
		<path class="st2" d="M18.3,8.4c0,0,3-2.2,3-3.8c0-1.9-2.5-2.5-3-0.2c-0.5-2.3-3-1.7-3,0.2C15.3,6.2,18.3,8.4,18.3,8.4z"/>
		<path class="st2" d="M12.2,4.3c0,0,0.9-2.1,0.4-3c-0.6-1-2.1-0.5-1.7,0.8c-1-1.1-2.1,0-1.6,1C9.9,4.1,12.2,4.3,12.2,4.3z"/>
		<path class="st2" d="M18.1,15.1c0,0,3.7,0.6,4.8-0.6c1.3-1.3,0-3.5-2-2.3c1.2-2-0.9-3.3-2.3-2C17.6,11.4,18.1,15.1,18.1,15.1z"/>
		<g>
			<path class="st2" d="M4.5,21.2c0,1.1-0.7,2.3-2,2.3c-1.3,0-2-0.6-2-1.8c0-1.3,1-1.9,2.3-1.9c0.4,0,1.7,0,1.7,0S4.5,20.4,4.5,21.2
				z"/>
			<path class="st2" d="M13.5,18.1c0,1.1-1,2.3-2.3,2.3s-2.3-1.1-2.3-2.3c0-1.3,1-2.3,2.3-2.3c0.4,0,1.3,0,2.3,0
				C13.5,16.8,13.5,17.4,13.5,18.1z"/>
			<polyline class="st2" points="4.5,20.2 4.5,9.7 13.5,6.2 13.5,17.2 			"/>
			<line class="st2" x1="4.5" y1="12.7" x2="13.5" y2="8.9"/>
		</g>
	</g>
</g>
</svg>
