<?xml version="1.0" encoding="utf-8"?>
<!-- Generator: Adobe Illustrator 19.2.0, SVG Export Plug-In . SVG Version: 6.00 Build 0)  -->
<svg version="1.1" id="Layer_1" xmlns="http://www.w3.org/2000/svg" xmlns:xlink="http://www.w3.org/1999/xlink" x="0px" y="0px"
	 viewBox="0 0 24 24" style="enable-background:new 0 0 24 24;" xml:space="preserve">
<style type="text/css">
	.st0{display:none;}
	.st1{display:inline;}
	.st2{fill:none;stroke:#000000;stroke-linejoin:round;stroke-miterlimit:10;}
	.st3{fill:none;stroke:#000000;stroke-linecap:round;stroke-linejoin:round;stroke-miterlimit:10;}
</style>
<g id="Filled_Icons" class="st0">
	<g class="st1">
		<g>
			<path d="M23.9,2.6c0-0.7-0.3-1.3-0.7-1.8c-0.9-0.9-2.6-0.9-3.5,0L9,11.5C8.2,11.2,7.3,11,6.5,11c-1.7,0-3.4,0.7-4.6,1.9
				c-2.5,2.5-2.5,6.7,0,9.2C3.1,23.3,4.8,24,6.5,24s3.4-0.7,4.6-1.9c1.9-1.9,2.4-4.7,1.4-7.1L23.2,4.4C23.6,3.9,23.9,3.3,23.9,2.6z
				 M21.4,3.3L10,14.8c0.5,0.4,0.8,1.1,0.8,2c0,2.2-3.6,4.9-4,5.2C6.7,22,6.6,22,6.5,22s-0.2,0-0.3-0.1c-0.4-0.3-4-3-4-5.2
				c0-1.6,1.2-2.6,2.4-2.6c0.6,0,1.4,0.3,1.9,1.1c0.5-0.8,1.3-1.1,1.9-1.1c0.2,0,0.5,0,0.7,0.1L20.7,2.6c0.2-0.2,0.5-0.2,0.7,0
				C21.6,2.8,21.6,3.1,21.4,3.3z"/>
		</g>
		<g>
			<path d="M21.9,9c-0.1,0-0.3-0.1-0.4-0.2l-0.7-0.7c-0.2-0.2-0.2-0.5,0-0.7c0.2-0.2,0.5-0.2,0.7,0l0.7,0.7c0.2,0.2,0.2,0.5,0,0.7
				C22.2,9,22.1,9,21.9,9z"/>
		</g>
		<g>
			<path d="M18.4,12.6c-0.1,0-0.3,0-0.4-0.1l-0.7-0.7c-0.2-0.2-0.2-0.5,0-0.7c0.2-0.2,0.5-0.2,0.7,0l0.7,0.7c0.2,0.2,0.2,0.5,0,0.7
				C18.7,12.5,18.6,12.6,18.4,12.6z"/>
		</g>
		<g>
			<path d="M14.9,16.1c-0.1,0-0.3,0-0.4-0.1l-0.7-0.7c-0.2-0.2-0.2-0.5,0-0.7c0.2-0.2,0.5-0.2,0.7,0l0.7,0.7c0.2,0.2,0.2,0.5,0,0.7
				C15.2,16,15,16.1,14.9,16.1z"/>
		</g>
	</g>
</g>
<g id="Outline_Icons">
	<g>
		<path class="st2" d="M6.5,21.5c0,0,3.8-2.8,3.8-4.8c0-2.4-3.1-3.1-3.8-0.2c-0.7-2.9-3.8-2.1-3.8,0.2C2.7,18.7,6.5,21.5,6.5,21.5z"
			/>
		<line class="st3" x1="9.2" y1="14.8" x2="21" y2="3"/>
		<path class="st3" d="M11.9,14.9L22.8,4c0.8-0.8,0.8-2,0-2.8c-0.8-0.8-2-0.8-2.8,0L9.1,12.1c-2.2-1.1-5-0.7-6.8,1.2
			c-2.3,2.3-2.3,6.1,0,8.5c2.3,2.3,6.1,2.3,8.5,0C12.6,19.9,13,17.1,11.9,14.9z"/>
		<line class="st3" x1="21.3" y1="7.8" x2="21.9" y2="8.5"/>
		<line class="st3" x1="17.7" y1="11.3" x2="18.4" y2="12.1"/>
		<line class="st3" x1="14.2" y1="14.9" x2="14.9" y2="15.6"/>
	</g>
</g>
</svg>
