<?xml version="1.0" encoding="utf-8"?>
<!-- Generator: Adobe Illustrator 19.2.0, SVG Export Plug-In . SVG Version: 6.00 Build 0)  -->
<svg version="1.1" id="Layer_1" xmlns="http://www.w3.org/2000/svg" xmlns:xlink="http://www.w3.org/1999/xlink" x="0px" y="0px"
	 viewBox="0 0 24 24" style="enable-background:new 0 0 24 24;" xml:space="preserve">
<style type="text/css">
	.st0{display:none;}
	.st1{display:inline;}
	.st2{fill:none;stroke:#000000;stroke-linecap:round;stroke-linejoin:round;stroke-miterlimit:10;}
	.st3{fill:none;stroke:#000000;stroke-linejoin:round;stroke-miterlimit:10;}
</style>
<g id="Filled_Icons" class="st0">
	<g class="st1">
		<path d="M18,12.1V24c1.7-0.2,3-1.7,3-3.4v-5C21,13.7,19.7,12.3,18,12.1z"/>
		<path d="M6,12.1c-1.7,0.2-3,1.7-3,3.4v5c0,1.8,1.3,3.2,3,3.4V12.1z"/>
		<path d="M8.5,12.5v11V24h7V12.5V12H15v-0.5c0-1.4-1.1-2.5-2.5-2.5h-1C10.1,9,9,10.1,9,11.5V12H8.5V12.5z M10,11.5
			c0-0.8,0.7-1.5,1.5-1.5h1c0.8,0,1.5,0.7,1.5,1.5V12h-4V11.5z"/>
	</g>
	<path class="st1" d="M22.5,3H9.3C8.6,1.2,6.9,0,5,0C2.5,0,0.5,2,0.5,4.5S2.5,9,5,9c1.9,0,3.6-1.2,4.2-3H14v1.5
		C14,7.8,14.2,8,14.5,8h2C16.8,8,17,7.8,17,7.5V6h1v1.5C18,7.8,18.2,8,18.5,8h2C20.8,8,21,7.8,21,7.5V6h1.5C23.3,6,24,5.3,24,4.5
		S23.3,3,22.5,3z M5,6.5c-1.1,0-2-0.9-2-2s0.9-2,2-2s2,0.9,2,2S6.1,6.5,5,6.5z"/>
</g>
<g id="Outline_Icons">
	<g>
		<path class="st2" d="M20.5,15.5c0-1.6-1.3-3-3-3h-11c-1.6,0-3,1.4-3,3v5c0,1.7,1.4,3,3,3h11c1.7,0,3-1.3,3-3V15.5z"/>
		<path class="st2" d="M9.5,12.5v-1c0-1.1,0.9-2,2-2h1c1.1,0,2,0.9,2,2v1"/>
		<line class="st3" x1="17.5" y1="12.5" x2="17.5" y2="23.5"/>
		<line class="st3" x1="14.5" y1="12.5" x2="14.5" y2="23.5"/>
		<line class="st3" x1="9.5" y1="12.5" x2="9.5" y2="23.5"/>
		<line class="st3" x1="6.5" y1="12.5" x2="6.5" y2="23.5"/>
		<circle class="st2" cx="5" cy="4.5" r="1.5"/>
		<path class="st2" d="M8.9,5.5c-0.4,1.7-2,3-3.9,3c-2.2,0-4-1.8-4-4s1.8-4,4-4c1.9,0,3.4,1.2,3.9,3h13.6c0.6,0,1,0.4,1,1
			s-0.4,1-1,1h-2v2h-2v-2h-2v2h-2v-2H8.9z"/>
	</g>
</g>
</svg>
