<?xml version="1.0" encoding="utf-8"?>
<!-- Generator: Adobe Illustrator 19.2.0, SVG Export Plug-In . SVG Version: 6.00 Build 0)  -->
<svg version="1.1" id="Outline_Icons" xmlns="http://www.w3.org/2000/svg" xmlns:xlink="http://www.w3.org/1999/xlink" x="0px"
	 y="0px" viewBox="0 0 24 24" style="enable-background:new 0 0 24 24;" xml:space="preserve">
<style type="text/css">
	.st0{fill:none;stroke:#000000;stroke-linecap:round;stroke-linejoin:round;stroke-miterlimit:10;}
</style>
<g>
	<line class="st0" x1="0.5" y1="20.5" x2="23.5" y2="20.5"/>
	<path class="st0" d="M21.5,20.5v-14c0-2.2-1.8-4-4-4h-11c-2.2,0-4,1.8-4,4v14"/>
	<line class="st0" x1="11.5" y1="0.5" x2="11.5" y2="5.5"/>
	<line class="st0" x1="8.5" y1="5.5" x2="14.5" y2="5.5"/>
	<path class="st0" d="M9.5,12.5v-1c0-1.1,0.9-2,2-2h1c1.1,0,2,0.9,2,2v1"/>
	<path class="st0" d="M18.5,18.5c0,1.1-0.9,2-2,2h-9c-1.1,0-2-0.9-2-2v-4c0-1.1,0.9-2,2-2h9c1.1,0,2,0.9,2,2V18.5z"/>
	<circle class="st0" cx="21" cy="22" r="1.5"/>
	<circle class="st0" cx="3" cy="22" r="1.5"/>
</g>
</svg>
