<?xml version="1.0" encoding="utf-8"?>
<!-- Generator: Adobe Illustrator 19.2.0, SVG Export Plug-In . SVG Version: 6.00 Build 0)  -->
<svg version="1.1" id="Layer_1" xmlns="http://www.w3.org/2000/svg" xmlns:xlink="http://www.w3.org/1999/xlink" x="0px" y="0px"
	 viewBox="0 0 24 24" style="enable-background:new 0 0 24 24;" xml:space="preserve">
<style type="text/css">
	.st0{display:none;}
	.st1{display:inline;}
	.st2{fill:none;stroke:#000000;stroke-linecap:round;stroke-linejoin:round;stroke-miterlimit:10;}
	.st3{fill:none;stroke:#000000;stroke-linejoin:round;stroke-miterlimit:10;}
</style>
<g id="Filled_Icons" class="st0">
	<g class="st1">
		<path d="M21.5,5H16V4c0-1.1-0.9-2-2-2h-4C8.9,2,8,2.9,8,4v1H2.5C1.1,5,0,6.1,0,7.5v12C0,20.9,1.1,22,2.5,22h19
			c1.4,0,2.5-1.1,2.5-2.5v-12C24,6.1,22.9,5,21.5,5z M15,17.5c-1.1,0-2.2-0.6-2.9-1.5H6.5c-0.1,0-0.3-0.1-0.4-0.1l-1.5-1.5
			c-0.2-0.2-0.2-0.5,0-0.7l1.5-1.5C6.2,12.1,6.4,12,6.5,12h5.6c0.7-0.9,1.7-1.5,2.9-1.5c1.9,0,3.5,1.6,3.5,3.5S16.9,17.5,15,17.5z
			 M9,4c0-0.6,0.4-1,1-1h4c0.6,0,1,0.4,1,1v1H9V4z"/>
		<circle cx="15" cy="14" r="1"/>
	</g>
</g>
<g id="Outline_Icons">
	<g>
		<path class="st2" d="M23.5,7.5c0-1.1-0.9-2-2-2h-19c-1.1,0-2,0.9-2,2v12c0,1.1,0.9,2,2,2h19c1.1,0,2-0.9,2-2V7.5z"/>
		<path class="st2" d="M8.5,5.5V4c0-0.8,0.7-1.5,1.5-1.5h4c0.8,0,1.5,0.7,1.5,1.5v1.5"/>
		<path class="st2" d="M15,11c-1.1,0-2.1,0.6-2.6,1.5H6.5L5,14l1.5,1.5h5.9c0.5,0.9,1.5,1.5,2.6,1.5c1.7,0,3-1.3,3-3S16.7,11,15,11z
			"/>
		<path class="st3" d="M15.5,14c0,0.3-0.2,0.5-0.5,0.5l0,0c-0.3,0-0.5-0.2-0.5-0.5l0,0c0-0.3,0.2-0.5,0.5-0.5l0,0
			C15.3,13.5,15.5,13.7,15.5,14L15.5,14z"/>
	</g>
</g>
</svg>
