<?xml version="1.0" encoding="utf-8"?>
<!-- Generator: Adobe Illustrator 19.2.0, SVG Export Plug-In . SVG Version: 6.00 Build 0)  -->
<svg version="1.1" id="Layer_1" xmlns="http://www.w3.org/2000/svg" xmlns:xlink="http://www.w3.org/1999/xlink" x="0px" y="0px"
	 viewBox="0 0 24 24" style="enable-background:new 0 0 24 24;" xml:space="preserve">
<style type="text/css">
	.st0{display:none;}
	.st1{display:inline;}
	.st2{fill:none;stroke:#000000;stroke-linecap:round;stroke-linejoin:round;stroke-miterlimit:10;}
</style>
<g id="Filled_Icons" class="st0">
	<path class="st1" d="M11.5,0C8.5,0,6,2.5,6,5.5S8.5,11,11.5,11S17,8.5,17,5.5S14.5,0,11.5,0z M13.6,3.7l-1.7,2.6
		c-0.1,0.1-0.3,0.2-0.4,0.2c-0.1,0-0.2,0-0.3-0.1C11,6.3,10.9,6,11.1,5.7l1.7-2.6C13,2.9,13.3,2.8,13.5,3S13.8,3.5,13.6,3.7z"/>
	<path class="st1" d="M23,23h-5.6c0.4-0.5,0.6-1.1,0.6-1.7v-3.5c0-1.5-1.2-2.8-2.8-2.8H15v-0.5c0-1.4-1.1-2.5-2.5-2.5h-2
		C9.1,12,8,13.1,8,14.5V15H7.8C6.2,15,5,16.2,5,17.8v3.5C5,22,5.2,22.6,5.6,23H1c-0.3,0-0.5,0.2-0.5,0.5S0.7,24,1,24h22
		c0.3,0,0.5-0.2,0.5-0.5S23.3,23,23,23z M9,14.5c0-0.8,0.7-1.5,1.5-1.5h2c0.8,0,1.5,0.7,1.5,1.5V15H9V14.5z M15,21H8
		c-0.3,0-0.5-0.2-0.5-0.5S7.7,20,8,20h7c0.3,0,0.5,0.2,0.5,0.5S15.3,21,15,21z M15,19H8c-0.3,0-0.5-0.2-0.5-0.5S7.7,18,8,18h7
		c0.3,0,0.5,0.2,0.5,0.5S15.3,19,15,19z"/>
</g>
<g id="Outline_Icons">
	<g>
		<path class="st2" d="M17.5,17.8c0-1.2-1-2.2-2.2-2.2H7.8c-1.2,0-2.2,1-2.2,2.2v3.5c0,1.2,1,2.2,2.2,2.2h7.5c1.2,0,2.2-1,2.2-2.2
			V17.8z"/>
		<circle class="st2" cx="11.5" cy="5.5" r="5"/>
		<line class="st2" x1="13.2" y1="3.4" x2="11.5" y2="6"/>
		<line class="st2" x1="8" y1="18.5" x2="15" y2="18.5"/>
		<line class="st2" x1="8" y1="20.5" x2="15" y2="20.5"/>
		<path class="st2" d="M14.5,14.5c0-1.1-0.9-2-2-2h-2c-1.1,0-2,0.9-2,2v1h6V14.5z"/>
		<line class="st2" x1="1" y1="23.5" x2="23" y2="23.5"/>
	</g>
</g>
</svg>
