<?xml version="1.0" encoding="utf-8"?>
<!-- Generator: Adobe Illustrator 19.2.0, SVG Export Plug-In . SVG Version: 6.00 Build 0)  -->
<svg version="1.1" id="Layer_1" xmlns="http://www.w3.org/2000/svg" xmlns:xlink="http://www.w3.org/1999/xlink" x="0px" y="0px"
	 viewBox="0 0 24 24" style="enable-background:new 0 0 24 24;" xml:space="preserve">
<style type="text/css">
	.st0{display:none;}
	.st1{display:inline;}
	.st2{fill:none;stroke:#000000;stroke-linejoin:round;stroke-miterlimit:10;}
</style>
<g id="Filled_Icon" class="st0">
	<g class="st1">
		<g>
			<path d="M11,17.8l-7.3-3.3c-0.2-0.1-0.3-0.1-0.5,0C3.1,14.7,3,14.8,3,15c0,4.6,3.5,8.4,8,8.9V17.8z"/>
			<path d="M21.8,14.6c-0.1-0.1-0.3-0.1-0.5,0L14,17.8v6.1c4.5-0.5,8-4.3,8-8.9C22,14.8,21.9,14.7,21.8,14.6z"/>
		</g>
		<path d="M20.7,0c-0.2-0.1-0.4,0-0.6,0.2l-4.1,5l-3.1-4.9C12.8,0.1,12.7,0,12.5,0h0c-0.2,0-0.3,0.1-0.4,0.2L8.9,5.1l-4.1-5
			C4.8,0,4.5,0,4.3,0C4.1,0.1,4,0.3,4,0.5v5c0,4.5,3.5,8.2,8,8.5v10h1V14c4.5-0.3,8-4,8-8.5v-5C21,0.3,20.9,0.1,20.7,0z"/>
	</g>
</g>
<g id="Outline_Icons">
	<g>
		<path class="st2" d="M3.5,15c0,4.7,3.8,8.5,8.5,8.5h1c4.7,0,8.5-3.8,8.5-8.5l-9,4L3.5,15z"/>
		<line class="st2" x1="12.5" y1="23.5" x2="12.5" y2="13.5"/>
		<path class="st2" d="M4.5,0.5L9,6l3.5-5.5L16,6l4.5-5.5v5c0,4.4-3.6,8-8,8s-8-3.6-8-8V0.5z"/>
	</g>
</g>
</svg>
