<?xml version="1.0" encoding="utf-8"?>
<!-- Generator: Adobe Illustrator 19.2.0, SVG Export Plug-In . SVG Version: 6.00 Build 0)  -->
<svg version="1.1" id="Layer_1" xmlns="http://www.w3.org/2000/svg" xmlns:xlink="http://www.w3.org/1999/xlink" x="0px" y="0px"
	 viewBox="0 0 24 24" style="enable-background:new 0 0 24 24;" xml:space="preserve">
<style type="text/css">
	.st0{display:none;}
	.st1{display:inline;}
	.st2{fill:none;stroke:#000000;stroke-linecap:round;stroke-linejoin:round;stroke-miterlimit:10;}
</style>
<g id="Filled_Icons" class="st0">
	<g class="st1">
		<path d="M11.2,10L10.8,3c0-0.9-0.5-1.7-1.2-2.3C8.9,0.2,8,0,7.1,0.2c-0.9,0.2-1.6,0.8-2,1.5C4.7,2.5,4.6,3.4,4.9,4.3l2.9,7.2
			C8.7,10.6,9.9,10.1,11.2,10z"/>
		<path d="M18.2,1.9c-0.4-0.8-1.1-1.4-2-1.6c-0.9-0.2-1.8-0.1-2.5,0.4C13,1.2,12.5,2,12.4,2.9L11.7,10c1.3,0,2.4,0.5,3.3,1.3
			l3.2-6.9C18.5,3.6,18.5,2.7,18.2,1.9z"/>
		<g>
			<path d="M6,18v3.5C6,22.9,7.1,24,8.5,24h6c1.4,0,2.5-1.1,2.5-2.5V18H6z"/>
			<path d="M20,14H3c-0.3,0-0.5,0.2-0.5,0.5S2.7,15,3,15h3v2h11v-2h3c0.3,0,0.5-0.2,0.5-0.5C20.5,14.2,20.3,14,20,14z"/>
		</g>
		<g>
			<path d="M15.2,13c-0.8-1.2-2.2-2-3.7-2c-1.5,0-2.9,0.8-3.7,2H15.2z"/>
		</g>
	</g>
</g>
<g id="Outline_Icons">
	<g>
		<path class="st2" d="M16.5,21.5c0,1.1-0.9,2-2,2h-6c-1.1,0-2-0.9-2-2v-7h10V21.5z"/>
		<line class="st2" x1="3" y1="14.5" x2="20" y2="14.5"/>
		<line class="st2" x1="6.5" y1="17.5" x2="16.5" y2="17.5"/>
		<path class="st2" d="M17.7,2.1c-0.3-0.7-0.9-1.2-1.6-1.4c-0.7-0.2-1.5-0.1-2.1,0.4c-0.6,0.4-1,1.1-1.1,1.8L12,11.5
			c0.7,0.1,1.4,0.4,2,0.8l3.8-8.2C18,3.6,18,2.8,17.7,2.1z"/>
		<path class="st2" d="M10.7,11.6L10.3,3c0-0.7-0.4-1.4-1-1.9C8.7,0.6,7.9,0.5,7.2,0.6C6.5,0.8,5.9,1.3,5.5,1.9
			C5.2,2.6,5.1,3.4,5.4,4.1l3.4,8.5C9.3,12.1,10,11.7,10.7,11.6z"/>
		<path class="st2" d="M15.3,14.5c-0.4-1.7-2-3-3.9-3c-1.9,0-3.4,1.3-3.9,3H15.3z"/>
	</g>
</g>
</svg>
