<?xml version="1.0" encoding="utf-8"?>
<!-- Generator: Adobe Illustrator 19.2.0, SVG Export Plug-In . SVG Version: 6.00 Build 0)  -->
<svg version="1.1" id="Layer_1" xmlns="http://www.w3.org/2000/svg" xmlns:xlink="http://www.w3.org/1999/xlink" x="0px" y="0px"
	 viewBox="0 0 24 24" style="enable-background:new 0 0 24 24;" xml:space="preserve">
<style type="text/css">
	.st0{display:none;}
	.st1{display:inline;}
	.st2{fill:none;stroke:#000000;stroke-linecap:round;stroke-linejoin:round;stroke-miterlimit:10;}
</style>
<g id="Filled_Icon" class="st0">
	<g class="st1">
		<path d="M12.8,9.8L0.3,22.3c-0.4,0.4-0.4,1,0,1.4C0.5,23.9,0.7,24,1,24c0.3,0,0.5-0.1,0.7-0.3l12.5-12.5c0.4-0.4,0.4-1,0-1.4
			C13.8,9.4,13.2,9.4,12.8,9.8z"/>
		<path d="M23,6h-2.5c-0.6,0-1,0.4-1,1c0,0.6,0.4,1,1,1H23c0.6,0,1-0.4,1-1C24,6.4,23.6,6,23,6z"/>
		<path d="M19.5,5.5c0.3,0,0.5-0.1,0.7-0.3l2-2c0.4-0.4,0.4-1,0-1.4c-0.4-0.4-1-0.4-1.4,0l-2,2c-0.4,0.4-0.4,1,0,1.4
			C19,5.4,19.2,5.5,19.5,5.5z"/>
		<path d="M17,0c-0.6,0-1,0.4-1,1v2.5c0,0.6,0.4,1,1,1c0.6,0,1-0.4,1-1V1C18,0.4,17.6,0,17,0z"/>
		<path d="M13.2,1.8c-0.4-0.4-1-0.4-1.4,0c-0.4,0.4-0.4,1,0,1.4l2,2c0.2,0.2,0.5,0.3,0.7,0.3c0.3,0,0.5-0.1,0.7-0.3
			c0.4-0.4,0.4-1,0-1.4L13.2,1.8z"/>
		<path d="M13.5,6h-3c-0.6,0-1,0.4-1,1c0,0.6,0.4,1,1,1h3c0.6,0,1-0.4,1-1C14.5,6.4,14.1,6,13.5,6z"/>
		<path d="M17,9.5c-0.6,0-1,0.4-1,1v3c0,0.6,0.4,1,1,1c0.6,0,1-0.4,1-1v-3C18,9.9,17.6,9.5,17,9.5z"/>
		<path d="M20.2,8.8c-0.4-0.4-1-0.4-1.4,0c-0.4,0.4-0.4,1,0,1.4l2,2c0.2,0.2,0.5,0.3,0.7,0.3c0.3,0,0.5-0.1,0.7-0.3
			c0.4-0.4,0.4-1,0-1.4L20.2,8.8z"/>
	</g>
</g>
<g id="Outline_Icons">
	<g>
		<line class="st2" x1="0.5" y1="23.5" x2="13.5" y2="10.5"/>
		<line class="st2" x1="20.5" y1="7.5" x2="23.5" y2="7.5"/>
		<line class="st2" x1="19.5" y1="4.5" x2="21.5" y2="2.5"/>
		<line class="st2" x1="16.5" y1="3.5" x2="16.5" y2="0.5"/>
		<line class="st2" x1="13.5" y1="4.5" x2="11.5" y2="2.5"/>
		<line class="st2" x1="12.5" y1="7.5" x2="9.5" y2="7.5"/>
		<line class="st2" x1="16.5" y1="10.5" x2="16.5" y2="13.5"/>
		<line class="st2" x1="19.5" y1="9.5" x2="21.5" y2="11.5"/>
	</g>
</g>
</svg>
