<?xml version="1.0" encoding="utf-8"?>
<!-- Generator: Adobe Illustrator 19.2.0, SVG Export Plug-In . SVG Version: 6.00 Build 0)  -->
<svg version="1.1" id="Layer_1" xmlns="http://www.w3.org/2000/svg" xmlns:xlink="http://www.w3.org/1999/xlink" x="0px" y="0px"
	 viewBox="0 0 24 24" style="enable-background:new 0 0 24 24;" xml:space="preserve">
<style type="text/css">
	.st0{display:none;}
	.st1{display:inline;}
	.st2{fill:none;stroke:#000000;stroke-linecap:round;stroke-linejoin:round;stroke-miterlimit:10;}
	.st3{fill:none;stroke:#000000;stroke-linejoin:round;stroke-miterlimit:10;}
</style>
<g id="Filled_Icon" class="st0">
	<path class="st1" d="M22.1,8.3l-1.9-1.9l1-2.9c0.1-0.2,0-0.4-0.1-0.5c-0.1-0.1-0.3-0.2-0.5-0.1l-2.9,1l-1.9-1.9
		c-0.2-0.1-0.4-0.2-0.6-0.1c-0.2,0.1-0.3,0.3-0.3,0.5l0.3,2.9l-2.9,1.6C12.1,6.9,12,7.1,12,7.3c0,0.2,0.2,0.4,0.4,0.4l2,0.5
		L2.3,20.3c-0.4,0.4-0.4,1,0,1.4C2.5,21.9,2.7,22,3,22c0.3,0,0.5-0.1,0.7-0.3L15.8,9.6l0.5,2c0,0.2,0.2,0.4,0.4,0.4c0,0,0,0,0.1,0
		c0.2,0,0.3-0.1,0.4-0.3l1.6-2.9l2.9,0.3c0.2,0,0.4-0.1,0.5-0.3C22.2,8.7,22.2,8.5,22.1,8.3z"/>
</g>
<g id="Outline_Icons">
	<g>
		<line class="st2" x1="2.5" y1="21.5" x2="16.1" y2="8"/>
		<polygon class="st3" points="20.8,3.3 19.7,6.5 21.9,8.6 18.7,8.2 16.9,11.4 16.1,8 12.7,7.2 15.8,5.4 15.5,2.2 17.6,4.3 		"/>
	</g>
</g>
</svg>
