<?xml version="1.0" encoding="utf-8"?>
<!-- Generator: Adobe Illustrator 19.2.0, SVG Export Plug-In . SVG Version: 6.00 Build 0)  -->
<svg version="1.1" id="Layer_1" xmlns="http://www.w3.org/2000/svg" xmlns:xlink="http://www.w3.org/1999/xlink" x="0px" y="0px"
	 viewBox="0 0 24 24" style="enable-background:new 0 0 24 24;" xml:space="preserve">
<style type="text/css">
	.st0{display:none;}
	.st1{display:inline;}
	.st2{fill:none;stroke:#000000;stroke-linejoin:round;stroke-miterlimit:10;}
	.st3{fill:none;stroke:#000000;stroke-linecap:round;stroke-linejoin:round;stroke-miterlimit:10;}
</style>
<g id="Filled_Icon" class="st0">
	<g class="st1">
		<path d="M23.5,12.2l-2.8-2.8c-0.2-0.2-0.5-0.2-0.7,0l-1.8,1.8l3.5,3.5l1.8-1.8c0.1-0.1,0.1-0.2,0.1-0.4
			C23.6,12.4,23.6,12.3,23.5,12.2z"/>
		<path d="M14.3,3.7c0.2-0.2,0.2-0.5,0-0.7l-2.8-2.8C11.4,0.1,11.2,0,11.1,0c-0.1,0-0.3,0.1-0.4,0.1L9,1.9l3.5,3.5L14.3,3.7z"/>
		<path d="M12.5,16.8c-0.8,0.8-1.8,1.2-2.8,1.2c-1.1,0-2.1-0.4-2.8-1.2c-1.6-1.6-1.6-4.1,0-5.7l5-4.9L8.3,2.6L2.6,8.3
			c-3.5,3.5-3.5,9.2,0,12.7c1.7,1.7,4,2.6,6.4,2.6c2.4,0,4.7-0.9,6.4-2.6l5.7-5.7l-3.5-3.5L12.5,16.8z"/>
	</g>
</g>
<g id="Outline_Icons">
	<g>
		<line class="st2" x1="21" y1="14.6" x2="18.2" y2="11.8"/>
		<line class="st2" x1="9" y1="2.6" x2="11.8" y2="5.5"/>
		<path class="st3" d="M6.5,10.8L14,3.3l-2.8-2.8L3,8.6c-3.3,3.3-3.3,8.7,0,12c3.3,3.3,8.7,3.3,12,0l8.1-8.1l-2.8-2.8l-7.4,7.4
			c-1.8,1.8-4.6,1.8-6.4,0C4.8,15.4,4.8,12.5,6.5,10.8z"/>
	</g>
</g>
</svg>
