<?xml version="1.0" encoding="utf-8"?>
<!-- Generator: Adobe Illustrator 19.2.0, SVG Export Plug-In . SVG Version: 6.00 Build 0)  -->
<svg version="1.1" id="Layer_1" xmlns="http://www.w3.org/2000/svg" xmlns:xlink="http://www.w3.org/1999/xlink" x="0px" y="0px"
	 viewBox="0 0 24 24" style="enable-background:new 0 0 24 24;" xml:space="preserve">
<style type="text/css">
	.st0{display:none;}
	.st1{display:inline;}
	.st2{fill:none;stroke:#000000;stroke-linecap:round;stroke-linejoin:round;stroke-miterlimit:10;}
</style>
<g id="Filled_Icons" class="st0">
	<path class="st1" d="M24,11.4c0-0.1,0-0.1,0-0.1l-3.5-6C20.3,5.1,20.2,5,20,5H4C3.8,5,3.7,5.1,3.6,5.2l-3.5,6c0,0,0,0.1,0,0.1
		c0,0.1,0,0.1,0,0.1v7C0,18.8,0.2,19,0.5,19h23c0.3,0,0.5-0.2,0.5-0.5v-7C24,11.5,24,11.4,24,11.4z M16.5,11c-0.1,0-0.3,0.1-0.4,0.1
		c-0.1,0.1-0.1,0.2-0.1,0.4v1c0,0.8-0.7,1.5-1.5,1.5H10c-0.8,0-1.5-0.7-1.5-1.5v-1C8.5,11.2,8.3,11,8,11H1.4l2.9-5h15.4l2.9,5H16.5z
		"/>
</g>
<g id="Outline_Icons">
	<g>
		<path class="st2" d="M23.5,18.5h-23v-7H8v1c0,1.1,0.9,2,2,2h4.5c1.1,0,2-0.9,2-2v-1h7V18.5z"/>
		<polyline class="st2" points="0.5,11.5 4,5.5 20,5.5 23.5,11.5 		"/>
	</g>
</g>
</svg>
