<?xml version="1.0" encoding="utf-8"?>
<!-- Generator: Adobe Illustrator 19.2.0, SVG Export Plug-In . SVG Version: 6.00 Build 0)  -->
<svg version="1.1" id="Layer_1" xmlns="http://www.w3.org/2000/svg" xmlns:xlink="http://www.w3.org/1999/xlink" x="0px" y="0px"
	 viewBox="0 0 24 24" style="enable-background:new 0 0 24 24;" xml:space="preserve">
<style type="text/css">
	.st0{display:none;}
	.st1{display:inline;}
	.st2{fill:none;stroke:#000000;stroke-linecap:round;stroke-linejoin:round;stroke-miterlimit:10;}
</style>
<g id="Filled_Icons" class="st0">
	<g class="st1">
		<path d="M12,15c-0.1,0-0.2,0-0.2-0.1L9,13.4V16h6v-2.6l-2.8,1.6C12.2,15,12.1,15,12,15z"/>
		<polygon points="13.6,13 10.4,13 12,13.9 		"/>
		<path d="M5,23.5C5,23.8,5.2,24,5.5,24h13c0.3,0,0.5-0.2,0.5-0.5V22H5V23.5z"/>
		<path d="M20.5,4h-1.8l-2.9-2.9C15.8,1.1,15.6,1,15.5,1h-3V0.5C12.5,0.2,12.3,0,12,0c-0.3,0-0.5,0.2-0.5,0.5V1h-3
			C8.4,1,8.2,1.1,8.1,1.1L5.3,4H3.5C3.2,4,3,4.2,3,4.5v2C3,6.8,3.2,7,3.5,7h0.8L5,7.7V21h14V7.7L19.7,7h0.8C20.8,7,21,6.8,21,6.5v-2
			C21,4.2,20.8,4,20.5,4z M16,16.5c0,0.3-0.2,0.5-0.5,0.5h-7C8.2,17,8,16.8,8,16.5v-4c0,0,0,0,0,0c0,0,0-0.1,0-0.1c0,0,0-0.1,0-0.1
			c0,0,0,0,0,0c0,0,0,0,0,0c0,0,0-0.1,0.1-0.1c0,0,0,0,0.1-0.1c0,0,0.1,0,0.1,0c0,0,0.1,0,0.1,0c0,0,0,0,0.1,0h7c0,0,0,0,0.1,0
			c0,0,0.1,0,0.1,0c0,0,0.1,0,0.1,0c0,0,0.1,0,0.1,0.1c0,0,0,0.1,0.1,0.1c0,0,0,0,0,0c0,0,0,0,0,0c0,0,0,0.1,0,0.1c0,0,0,0.1,0,0.1
			c0,0,0,0,0,0L16,16.5L16,16.5z M16,10H8c-0.3,0-0.5-0.2-0.5-0.5C7.5,9.2,7.7,9,8,9h8c0.3,0,0.5,0.2,0.5,0.5
			C16.5,9.8,16.3,10,16,10z M20,6h-0.5h-15H4V5h1.5h13H20V6z"/>
	</g>
</g>
<g id="Outline_Icons">
	<g>
		<polygon class="st2" points="19.5,6.5 4.5,6.5 5.5,7.5 5.5,23.5 18.5,23.5 18.5,7.5 		"/>
		<rect x="3.5" y="4.5" class="st2" width="17" height="2"/>
		<polygon class="st2" points="15.5,1.5 8.5,1.5 5.5,4.5 18.5,4.5 		"/>
		<line class="st2" x1="12" y1="1.5" x2="12" y2="0.5"/>
		<rect x="8.5" y="12.5" class="st2" width="7" height="4"/>
		<line class="st2" x1="8" y1="9.5" x2="16" y2="9.5"/>
		<line class="st2" x1="5.5" y1="21.5" x2="18.5" y2="21.5"/>
		<polyline class="st2" points="8.5,12.5 12,14.5 15.5,12.5 		"/>
	</g>
</g>
</svg>
