<?xml version="1.0" encoding="utf-8"?>
<!-- Generator: Adobe Illustrator 19.2.0, SVG Export Plug-In . SVG Version: 6.00 Build 0)  -->
<svg version="1.1" id="Layer_1" xmlns="http://www.w3.org/2000/svg" xmlns:xlink="http://www.w3.org/1999/xlink" x="0px" y="0px"
	 viewBox="0 0 24 24" style="enable-background:new 0 0 24 24;" xml:space="preserve">
<style type="text/css">
	.st0{display:none;}
	.st1{display:inline;}
	.st2{fill:none;stroke:#000000;stroke-linecap:round;stroke-linejoin:round;stroke-miterlimit:10;}
</style>
<g id="Filled_Icons" class="st0">
	<g class="st1">
		<path d="M23.9,9.2C23.8,9.1,23.6,9,23.5,9H21V6.5C21,6.2,20.8,6,20.5,6H18v3.5c0,0.8-0.7,1.5-1.5,1.5c-0.8,0-1.5-0.7-1.5-1.5V6
			H4.5C2,6,0,8,0,10.5v6C0,16.8,0.2,17,0.5,17H11v6.5c0,0.3,0.2,0.5,0.5,0.5c0.3,0,0.5-0.2,0.5-0.5V17h8.5c0.3,0,0.5-0.2,0.5-0.5V16
			h1.5c0.2,0,0.5-0.2,0.5-0.4l1-6C24,9.4,24,9.3,23.9,9.2z M22.1,15H21v-5h1.9L22.1,15z"/>
		<path d="M11.5,4H15h1v5.5c0,0.3,0.2,0.5,0.5,0.5c0.3,0,0.5-0.2,0.5-0.5v-6v-3C17,0.2,16.8,0,16.5,0h-1.4h-3.6
			C11.2,0,11,0.2,11,0.5v3C11,3.8,11.2,4,11.5,4z"/>
	</g>
</g>
<g id="Outline_Icons">
	<g>
		<path class="st2" d="M18.5,6.5h2v10h-20v-6c0-2.2,1.8-4,4-4h10"/>
		<line class="st2" x1="11.5" y1="16.5" x2="11.5" y2="23.5"/>
		<line class="st2" x1="16.5" y1="9.5" x2="16.5" y2="0.5"/>
		<rect x="11.5" y="0.5" class="st2" width="5" height="3"/>
		<polygon class="st2" points="22.5,15.5 20.5,15.5 20.5,9.5 23.5,9.5 		"/>
	</g>
</g>
</svg>
