<?xml version="1.0" encoding="utf-8"?>
<!-- Generator: Adobe Illustrator 19.2.0, SVG Export Plug-In . SVG Version: 6.00 Build 0)  -->
<svg version="1.1" id="Layer_1" xmlns="http://www.w3.org/2000/svg" xmlns:xlink="http://www.w3.org/1999/xlink" x="0px" y="0px"
	 viewBox="0 0 24 24" style="enable-background:new 0 0 24 24;" xml:space="preserve">
<style type="text/css">
	.st0{display:none;}
	.st1{display:inline;}
	.st2{fill:none;stroke:#000000;stroke-linejoin:round;stroke-miterlimit:10;}
	.st3{fill:none;stroke:#000000;stroke-linecap:round;stroke-linejoin:round;stroke-miterlimit:10;}
</style>
<g id="Filled_Icons" class="st0">
	<g class="st1">
		<polygon points="13.4,17.6 14.8,16.2 7.8,9.1 6.4,10.5 		"/>
		<path d="M19.4,11.2c-0.1,0-0.2,0.1-0.2,0.1c-0.2,0-0.3-0.1-0.4-0.3s0-0.5,0.2-0.7l4.5-2.4V7.8c-0.3-0.7-0.7-1.5-1.2-2.1l-5,3.3
			c-0.1,0-0.2,0.1-0.3,0.1c-0.2,0-0.3-0.1-0.4-0.2c-0.2-0.2-0.1-0.5,0.1-0.7l4.9-3.3c-0.7-0.9-1.5-1.7-2.4-2.4l-3.3,4.8
			c-0.1,0.1-0.3,0.2-0.4,0.2c-0.1,0-0.2,0-0.3-0.1c-0.2-0.2-0.3-0.5-0.1-0.7l3.4-4.8C17.8,1.4,17,1,16.2,0.7L13.7,5
			c-0.1,0.2-0.3,0.3-0.4,0.3c-0.1,0-0.2,0-0.2-0.1c-0.2-0.1-0.3-0.4-0.2-0.7l2.3-4.3C14.5,0.1,13.9,0,13.4,0c-1.5,0-2.6,0.5-3.5,1.5
			L8.2,8.1l7.6,7.7l6.7-1.6c1.5-1.5,1.8-3.3,1.2-5.4L19.4,11.2z"/>
		<path d="M5.7,11.2l-4.2,4.2c-1.9,1.9-1.9,5.1,0,7s5.1,2,7,0l4.2-4.2L5.7,11.2z"/>
	</g>
</g>
<g id="Outline_Icons">
	<g>
		<path class="st2" d="M8.5,9.1l6.3,6.3l-6.7,6.7c-1.8,1.8-4.6,1.8-6.3,0c-1.8-1.8-1.8-4.6,0-6.3L8.5,9.1z"/>
		<path class="st2" d="M10.3,1.7c5.1-5.1,17.1,6.8,12,12l-7.4,1.8L8.5,9.1L10.3,1.7z"/>
		<line class="st2" x1="6.4" y1="11.2" x2="12.7" y2="17.6"/>
		<line class="st3" x1="21.5" y1="5.5" x2="17" y2="8.6"/>
		<line class="st3" x1="23.1" y1="8.6" x2="19.2" y2="10.7"/>
		<line class="st3" x1="18.5" y1="2.5" x2="15.5" y2="6.9"/>
		<line class="st3" x1="15.4" y1="0.9" x2="13.3" y2="4.8"/>
	</g>
</g>
</svg>
