<?xml version="1.0" encoding="utf-8"?>
<!-- Generator: Adobe Illustrator 19.2.0, SVG Export Plug-In . SVG Version: 6.00 Build 0)  -->
<svg version="1.1" id="Layer_1" xmlns="http://www.w3.org/2000/svg" xmlns:xlink="http://www.w3.org/1999/xlink" x="0px" y="0px"
	 viewBox="0 0 24 24" style="enable-background:new 0 0 24 24;" xml:space="preserve">
<style type="text/css">
	.st0{display:none;}
	.st1{display:inline;}
	.st2{fill:none;stroke:#000000;stroke-linejoin:round;stroke-miterlimit:10;}
</style>
<g id="Filled_Icons" class="st0">
	<path class="st1" d="M21.5,0h-19C1.1,0,0,1.1,0,2.5v19C0,22.9,1.1,24,2.5,24h19c1.4,0,2.5-1.1,2.5-2.5v-19C24,1.1,22.9,0,21.5,0z
		 M7,20c0,1.1-0.9,2-2,2s-2-0.9-2-2V9h4V20z M7.1,8H2.9L2,3.6C2,2.4,3.5,2,5,2s3,0.4,3,1.5L7.1,8z M15,20.7c0,0.7-0.6,1.3-1.3,1.3
		h-3.3C9.6,22,9,21.4,9,20.7v-3.3c0-0.7,0.6-1.3,1.3-1.3h3.3c0.7,0,1.3,0.6,1.3,1.3L15,20.7L15,20.7z M15,13.7
		c0,0.7-0.6,1.3-1.3,1.3h-3.3C9.6,15,9,14.4,9,13.7v-3.3C9,9.6,9.6,9,10.3,9h3.3c0.7,0,1.3,0.6,1.3,1.3L15,13.7L15,13.7z M15,6.7
		C15,7.4,14.4,8,13.7,8h-3.3C9.6,8,9,7.4,9,6.7V3.3C9,2.6,9.6,2,10.3,2h3.3C14.4,2,15,2.6,15,3.3V6.7z M22,20.7
		c0,0.7-0.6,1.3-1.3,1.3h-3.3c-0.7,0-1.3-0.6-1.3-1.3v-3.3c0-0.7,0.6-1.3,1.3-1.3h3.3c0.7,0,1.3,0.6,1.3,1.3V20.7z M22,13.7
		c0,0.7-0.6,1.3-1.3,1.3h-3.3c-0.7,0-1.3-0.6-1.3-1.3v-3.3C16,9.6,16.6,9,17.3,9h3.3c0.7,0,1.3,0.6,1.3,1.3v3.4H22z M22,6.7
		C22,7.4,21.4,8,20.7,8h-3.3C16.6,8,16,7.4,16,6.7V3.3C16,2.6,16.6,2,17.3,2h3.3C21.4,2,22,2.6,22,3.3V6.7z"/>
</g>
<g id="Outline_Icons">
	<g>
		<path class="st2" d="M23.5,21.5c0,1.1-0.9,2-2,2h-19c-1.1,0-2-0.9-2-2v-19c0-1.1,0.9-2,2-2h19c1.1,0,2,0.9,2,2V21.5z"/>
		<path class="st2" d="M21.5,6.7c0,0.5-0.4,0.8-0.8,0.8h-3.3c-0.5,0-0.8-0.4-0.8-0.8V3.3c0-0.5,0.4-0.8,0.8-0.8h3.3
			c0.5,0,0.8,0.4,0.8,0.8V6.7z"/>
		<path class="st2" d="M14.5,6.7c0,0.5-0.4,0.8-0.8,0.8h-3.3c-0.5,0-0.8-0.4-0.8-0.8V3.3c0-0.5,0.4-0.8,0.8-0.8h3.3
			c0.5,0,0.8,0.4,0.8,0.8V6.7z"/>
		<path class="st2" d="M21.5,13.7c0,0.5-0.4,0.8-0.8,0.8h-3.3c-0.5,0-0.8-0.4-0.8-0.8v-3.3c0-0.5,0.4-0.8,0.8-0.8h3.3
			c0.5,0,0.8,0.4,0.8,0.8V13.7z"/>
		<path class="st2" d="M14.5,13.7c0,0.5-0.4,0.8-0.8,0.8h-3.3c-0.5,0-0.8-0.4-0.8-0.8v-3.3c0-0.5,0.4-0.8,0.8-0.8h3.3
			c0.5,0,0.8,0.4,0.8,0.8V13.7z"/>
		<path class="st2" d="M21.5,20.7c0,0.5-0.4,0.8-0.8,0.8h-3.3c-0.5,0-0.8-0.4-0.8-0.8v-3.3c0-0.5,0.4-0.8,0.8-0.8h3.3
			c0.5,0,0.8,0.4,0.8,0.8V20.7z"/>
		<path class="st2" d="M14.5,20.7c0,0.5-0.4,0.8-0.8,0.8h-3.3c-0.5,0-0.8-0.4-0.8-0.8v-3.3c0-0.5,0.4-0.8,0.8-0.8h3.3
			c0.5,0,0.8,0.4,0.8,0.8V20.7z"/>
		<path class="st2" d="M6.5,8.5h-3V20c0,0.8,0.7,1.5,1.5,1.5s1.5-0.7,1.5-1.5V8.5z"/>
		<path class="st2" d="M2.5,3.5c0-1.3,5-1.3,5,0l-1,5h-3L2.5,3.5z"/>
	</g>
</g>
</svg>
