<?xml version="1.0" encoding="utf-8"?>
<!-- Generator: Adobe Illustrator 19.2.0, SVG Export Plug-In . SVG Version: 6.00 Build 0)  -->
<svg version="1.1" id="Layer_1" xmlns="http://www.w3.org/2000/svg" xmlns:xlink="http://www.w3.org/1999/xlink" x="0px" y="0px"
	 viewBox="0 0 24 24" style="enable-background:new 0 0 24 24;" xml:space="preserve">
<style type="text/css">
	.st0{display:none;}
	.st1{display:inline;}
	.st2{fill:none;stroke:#000000;stroke-linejoin:round;stroke-miterlimit:10;}
</style>
<g id="Filled_Icons" class="st0">
	<g class="st1">
		<path d="M5.3,18C3.9,16.4,3,14.3,3,12c0-5,4-9,9-9s9,4,9,9c0,2.3-0.9,4.4-2.3,6h3.7c1-1.8,1.6-3.9,1.6-6c0-6.6-5.4-12-12-12
			S0,5.4,0,12c0,2.1,0.6,4.2,1.6,6H5.3z"/>
		<path d="M23.5,19h-7c-0.1,0-0.3,0.1-0.4,0.1L14.3,21H9.7l-1.9-1.9c0,0-0.2-0.1-0.3-0.1h-7C0.2,19,0,19.2,0,19.5v1
			C0,22.7,1.6,24,4.5,24h15c2.9,0,4.5-1.3,4.5-3.5v-1C24,19.2,23.8,19,23.5,19z"/>
	</g>
</g>
<g id="Outline_Icons">
	<g>
		<path class="st2" d="M16.5,19.5l-2,2h-5l-2-2h-7v1c0,2.2,1.8,3,4,3h15c2.2,0,4-0.8,4-3v-1H16.5z"/>
		<path class="st2" d="M3.3,19.5c-1.7-2-2.8-4.6-2.8-7.5C0.5,5.6,5.6,0.5,12,0.5S23.5,5.6,23.5,12c0,2.9-1,5.5-2.8,7.5"/>
		<path class="st2" d="M6.9,19.4C4.6,17.8,3,15.1,3,12c0-5,4-9,9-9s9,4,9,9c0,3.1-1.6,5.8-4,7.5"/>
	</g>
</g>
</svg>
