<?xml version="1.0" encoding="utf-8"?>
<!-- Generator: Adobe Illustrator 19.2.0, SVG Export Plug-In . SVG Version: 6.00 Build 0)  -->
<svg version="1.1" id="Layer_1" xmlns="http://www.w3.org/2000/svg" xmlns:xlink="http://www.w3.org/1999/xlink" x="0px" y="0px"
	 viewBox="0 0 24 24" style="enable-background:new 0 0 24 24;" xml:space="preserve">
<style type="text/css">
	.st0{display:none;}
	.st1{display:inline;}
	.st2{fill:none;stroke:#000000;stroke-linejoin:round;stroke-miterlimit:10;}
</style>
<g id="Filled_Icons" class="st0">
	<g class="st1">
		<path d="M11.5,8c2.2,0,4-1.8,4-4c0-2.2-1.8-4-4-4c-2.2,0-4,1.8-4,4C7.5,6.2,9.3,8,11.5,8z"/>
		<path d="M5.5,9v0.5c0,4.8,2.1,6.9,3.5,7.8V24h5v-6.7c1.4-0.9,3.5-3,3.5-7.8V9H5.5z"/>
	</g>
</g>
<g id="Outline_Icons">
	<g>
		<circle class="st2" cx="11.5" cy="4" r="3.5"/>
		<path class="st2" d="M17,9.5H6c0,4.1,1.5,6.4,3.5,7.5v6.5h4V17C15.5,15.9,17,13.6,17,9.5z"/>
	</g>
</g>
</svg>
