<?xml version="1.0" encoding="utf-8"?>
<!-- Generator: Adobe Illustrator 19.2.0, SVG Export Plug-In . SVG Version: 6.00 Build 0)  -->
<svg version="1.1" id="Layer_1" xmlns="http://www.w3.org/2000/svg" xmlns:xlink="http://www.w3.org/1999/xlink" x="0px" y="0px"
	 viewBox="0 0 24 24" style="enable-background:new 0 0 24 24;" xml:space="preserve">
<style type="text/css">
	.st0{display:none;}
	.st1{display:inline;}
	.st2{fill:none;stroke:#000000;stroke-linecap:round;stroke-linejoin:round;stroke-miterlimit:10;}
</style>
<g id="Filled_Icons" class="st0">
	<g class="st1">
		<path d="M19.3,10.5c0.1,0,0.3,0,0.4,0c0.1-0.1,0.2-0.2,0.3-0.3l1-3.8c0.1-0.2-0.1-0.5-0.3-0.6L16,3.8C15.8,6.5,13.6,8,11.5,8
			S7.2,6.5,7,3.8L2.3,5.7C2.1,5.8,2,6.1,2,6.3l1,3.8c0,0.1,0.1,0.3,0.3,0.3c0.1,0.1,0.3,0.1,0.4,0l3.5-1.3L8,10.9l-3.1,6.9
			c-0.2,0.5-0.2,1,0,1.5C5.1,19.7,5.6,20,6.2,20h4.3v2H4c-0.6,0-1,0.4-1,1c0,0.6,0.4,1,1,1h15c0.6,0,1-0.4,1-1c0-0.6-0.4-1-1-1h-6.5
			v-2h4.3c0.5,0,1-0.3,1.3-0.7c0.3-0.4,0.3-1,0.1-1.4L15,11l0.7-1.8L19.3,10.5z"/>
		<path d="M11.5,7C13.2,7,15,5.8,15,3.5c0-0.1-1-3-1-3.2C13.9,0.1,13.7,0,13.5,0h-4C9.3,0,9.1,0.1,9,0.3c0,0.1-1,3-1,3.2
			C8,5.8,9.8,7,11.5,7z"/>
	</g>
</g>
<g id="Outline_Icons">
	<g>
		<path class="st2" d="M8.5,3.8l-6,2.4l1,3.8l4-1.5l1,2.5L5.3,18c-0.2,0.3-0.2,0.7,0,1c0.2,0.3,0.5,0.5,0.9,0.5h10.7
			c0.4,0,0.7-0.2,0.9-0.5s0.2-0.7,0-1L14.5,11l1-2.5l4,1.5l1-3.8l-6-2.4"/>
		<path class="st2" d="M9.5,0.5h4l1,3c0,4-6,4-6,0L9.5,0.5z"/>
		<line class="st2" x1="11.5" y1="19.5" x2="11.5" y2="23.5"/>
		<line class="st2" x1="4" y1="23.5" x2="19" y2="23.5"/>
	</g>
</g>
</svg>
