<?xml version="1.0" encoding="utf-8"?>
<!-- Generator: Adobe Illustrator 19.2.0, SVG Export Plug-In . SVG Version: 6.00 Build 0)  -->
<svg version="1.1" id="Layer_1" xmlns="http://www.w3.org/2000/svg" xmlns:xlink="http://www.w3.org/1999/xlink" x="0px" y="0px"
	 viewBox="0 0 24 24" style="enable-background:new 0 0 24 24;" xml:space="preserve">
<style type="text/css">
	.st0{display:none;}
	.st1{display:inline;}
	.st2{fill:none;stroke:#000000;stroke-linecap:round;stroke-linejoin:round;stroke-miterlimit:10;}
</style>
<g id="Filled_Icons" class="st0">
	<path class="st1" d="M23,11h-2c-0.5-4.2-3.8-7.5-7.9-8V1c0-0.6-0.4-1-1-1s-1,0.4-1,1v2C6.8,3.5,3.5,6.8,3,11H1c-0.6,0-1,0.4-1,1
		s0.4,1,1,1h2c0.5,4.2,3.8,7.5,7.9,7.9v2c0,0.6,0.4,1,1,1s1-0.4,1-1v-2c4.2-0.5,7.5-3.8,7.9-7.9h2c0.6,0,1-0.4,1-1
		C24,11.5,23.5,11,23,11z M12,19c-3.9,0-7-3.1-7-7s3.1-7,7-7s7,3.1,7,7S15.8,19,12,19z"/>
</g>
<g id="Outline_Icons">
	<g>
		<circle class="st2" cx="11.5" cy="11.5" r="8"/>
		<line class="st2" x1="11.5" y1="0.5" x2="11.5" y2="3.5"/>
		<line class="st2" x1="11.5" y1="19.5" x2="11.5" y2="22.5"/>
		<line class="st2" x1="22.5" y1="11.5" x2="19.5" y2="11.5"/>
		<line class="st2" x1="3.5" y1="11.5" x2="0.5" y2="11.5"/>
	</g>
</g>
</svg>
