<?xml version="1.0" encoding="utf-8"?>
<!-- Generator: Adobe Illustrator 19.2.0, SVG Export Plug-In . SVG Version: 6.00 Build 0)  -->
<svg version="1.1" id="Layer_1" xmlns="http://www.w3.org/2000/svg" xmlns:xlink="http://www.w3.org/1999/xlink" x="0px" y="0px"
	 viewBox="0 0 24 24" style="enable-background:new 0 0 24 24;" xml:space="preserve">
<style type="text/css">
	.st0{display:none;}
	.st1{display:inline;}
	.st2{fill:none;stroke:#000000;stroke-linecap:round;stroke-linejoin:round;stroke-miterlimit:10;}
</style>
<g id="Filled_Icons" class="st0">
	<g class="st1">
		<g>
			<path d="M8.7,5.8C9.7,5.3,10.8,5,12,5c3.9,0,7,3.1,7,7c0,1.2-0.3,2.3-0.8,3.3l1.5,1.5c0.7-1.1,1.2-2.4,1.3-3.8h2c0.6,0,1-0.4,1-1
				s-0.4-1-1-1h-2c-0.5-4.2-3.8-7.5-7.9-8V1c0-0.6-0.4-1-1-1s-1,0.4-1,1v2C9.6,3.2,8.4,3.7,7.2,4.4L8.7,5.8z"/>
			<path d="M15.3,18.2c-1,0.5-2.1,0.8-3.3,0.8c-3.9,0-7-3.1-7-7c0-1.2,0.3-2.3,0.8-3.3L4.4,7.2C3.7,8.3,3.2,9.6,3.1,11H1
				c-0.6,0-1,0.4-1,1s0.4,1,1,1h2c0.5,4.2,3.8,7.5,7.9,7.9v2c0,0.6,0.4,1,1,1s1-0.4,1-1v-2c1.4-0.2,2.7-0.6,3.8-1.3L15.3,18.2z"/>
		</g>
		<g>
			<path d="M22,23c-0.3,0-0.5-0.1-0.7-0.3l-20-20c-0.4-0.4-0.4-1,0-1.4s1-0.4,1.4,0l20,20c0.4,0.4,0.4,1,0,1.4
				C22.5,22.9,22.2,23,22,23z"/>
		</g>
	</g>
</g>
<g id="Outline_Icons">
	<g>
		<path class="st2" d="M15.4,18.5c-1.2,0.7-2.5,1-3.9,1c-4.4,0-8-3.6-8-8c0-1.4,0.4-2.7,1-3.9"/>
		<path class="st2" d="M7.6,4.5c1.2-0.7,2.5-1,3.9-1c4.4,0,8,3.6,8,8c0,1.3-0.3,2.4-0.8,3.5"/>
		<line class="st2" x1="11.5" y1="0.5" x2="11.5" y2="3.5"/>
		<line class="st2" x1="11.5" y1="19.5" x2="11.5" y2="22.5"/>
		<line class="st2" x1="22.5" y1="11.5" x2="19.5" y2="11.5"/>
		<line class="st2" x1="3.5" y1="11.5" x2="0.5" y2="11.5"/>
		<line class="st2" x1="2" y1="2" x2="22" y2="22"/>
	</g>
</g>
</svg>
