<?xml version="1.0" encoding="utf-8"?>
<!-- Generator: Adobe Illustrator 19.2.0, SVG Export Plug-In . SVG Version: 6.00 Build 0)  -->
<svg version="1.1" id="Layer_1" xmlns="http://www.w3.org/2000/svg" xmlns:xlink="http://www.w3.org/1999/xlink" x="0px" y="0px"
	 viewBox="0 0 24 24" style="enable-background:new 0 0 24 24;" xml:space="preserve">
<style type="text/css">
	.st0{display:none;}
	.st1{display:inline;}
	.st2{fill:none;stroke:#000000;stroke-linecap:round;stroke-linejoin:round;stroke-miterlimit:10;}
</style>
<g id="Filled_Icons" class="st0">
	<g class="st1">
		<path d="M0.3,0.1C0.1,0.1,0,0.3,0,0.5v16c0,0.2,0.1,0.3,0.2,0.4L7,21.8V4.5L0.8,0.1C0.6,0,0.4,0,0.3,0.1z"/>
		<path d="M19.5,11c0.9,0,1.7,0.2,2.5,0.6v-0.1v-6c0-0.2-0.1-0.3-0.2-0.4L15,0.2v13.1C16,11.9,17.6,11,19.5,11z"/>
		<polygon points="8,21.8 14,17.5 14,0.2 8,4.5 		"/>
		<path d="M19.5,12C17,12,15,14,15,16.5c0,2,2.8,5.8,4.1,7.3l0,0c0.1,0.1,0.2,0.2,0.4,0.2c0.1,0,0.3-0.1,0.4-0.2
			c1.3-1.6,4.1-5.3,4.1-7.3C24,14,22,12,19.5,12z M19.5,18.5c-1.1,0-2-0.9-2-2s0.9-2,2-2s2,0.9,2,2S20.6,18.5,19.5,18.5z"/>
	</g>
</g>
<g id="Outline_Icons">
	<g>
		<line class="st2" x1="7.5" y1="5.5" x2="7.5" y2="21.5"/>
		<line class="st2" x1="14.5" y1="10.5" x2="14.5" y2="0.5"/>
		<polyline class="st2" points="13.5,17.2 7.5,21.5 0.5,16.5 0.5,0.5 7.5,5.5 14.5,0.5 21.5,5.5 21.5,10.5 		"/>
		<path class="st2" d="M23.5,16.5c0,2.2-4,7-4,7s-4-4.8-4-7s1.8-4,4-4S23.5,14.3,23.5,16.5z"/>
		<circle class="st2" cx="19.5" cy="16.5" r="1.5"/>
	</g>
</g>
</svg>
