<?xml version="1.0" encoding="utf-8"?>
<!-- Generator: Adobe Illustrator 19.2.0, SVG Export Plug-In . SVG Version: 6.00 Build 0)  -->
<svg version="1.1" id="Layer_1" xmlns="http://www.w3.org/2000/svg" xmlns:xlink="http://www.w3.org/1999/xlink" x="0px" y="0px"
	 viewBox="0 0 24 24" style="enable-background:new 0 0 24 24;" xml:space="preserve">
<style type="text/css">
	.st0{display:none;}
	.st1{display:inline;}
	.st2{fill:none;stroke:#000000;stroke-linecap:round;stroke-linejoin:round;stroke-miterlimit:10;}
	.st3{fill:none;stroke:#000000;stroke-linejoin:round;stroke-miterlimit:10;}
</style>
<g id="Filled_Icons" class="st0">
	<g class="st1">
		<path d="M12,17.3c0-1.7,0.8-3.1,2-4.1v-13L8,4.5v17.2l4.2-3C12.1,18.3,12,17.8,12,17.3z"/>
		<path d="M15,12.5c0.7-0.3,1.5-0.5,2.3-0.5c2,0,3.8,1.2,4.7,2.9V5.5c0-0.2-0.1-0.3-0.2-0.4L15,0.2V12.5z"/>
		<path d="M7,4.5L0.8,0.1C0.6,0,0.4,0,0.3,0.1C0.1,0.1,0,0.3,0,0.5v16c0,0.2,0.1,0.3,0.2,0.4L7,21.8V4.5z"/>
	</g>
	<path class="st1" d="M23.9,23.1l-3.2-3.2c0.6-0.7,0.9-1.6,0.9-2.7c0-2.4-1.9-4.3-4.3-4.3S13,14.8,13,17.2s1.9,4.3,4.3,4.3
		c1,0,1.9-0.4,2.7-0.9l3.2,3.2c0.1,0.1,0.2,0.1,0.4,0.1c0.1,0,0.3,0,0.4-0.1C24,23.6,24,23.3,23.9,23.1z M14,17.3
		c0-1.8,1.5-3.3,3.3-3.3s3.3,1.5,3.3,3.3s-1.5,3.3-3.3,3.3C15.5,20.6,14,19.1,14,17.3z"/>
</g>
<g id="Outline_Icons">
	<g>
		<line class="st2" x1="7.5" y1="5.5" x2="7.5" y2="21.5"/>
		<line class="st2" x1="14.5" y1="10.5" x2="14.5" y2="0.5"/>
		<polyline class="st2" points="11.5,18.6 7.5,21.5 0.5,16.5 0.5,0.5 7.5,5.5 14.5,0.5 21.5,5.5 21.5,12.5 		"/>
		<circle class="st3" cx="17.3" cy="17.3" r="3.8"/>
		<line class="st2" x1="20" y1="20" x2="23.5" y2="23.5"/>
	</g>
</g>
</svg>
