<?xml version="1.0" encoding="utf-8"?>
<!-- Generator: Adobe Illustrator 19.2.0, SVG Export Plug-In . SVG Version: 6.00 Build 0)  -->
<svg version="1.1" id="Layer_1" xmlns="http://www.w3.org/2000/svg" xmlns:xlink="http://www.w3.org/1999/xlink" x="0px" y="0px"
	 viewBox="0 0 24 24" style="enable-background:new 0 0 24 24;" xml:space="preserve">
<style type="text/css">
	.st0{display:none;}
	.st1{display:inline;}
	.st2{fill:none;stroke:#000000;stroke-linecap:round;stroke-linejoin:round;stroke-miterlimit:10;}
	.st3{fill:none;stroke:#000000;stroke-linejoin:round;stroke-miterlimit:10;}
</style>
<g id="Filled_Icons" class="st0">
	<g class="st1">
		<path d="M13,17c0,0.8-0.7,1.5-1.5,1.5S10,17.8,10,17v-5.6l-2,0.4v12l8-1.8V10l-3,0.7V17z"/>
		<path d="M23.6,12L17,10.1v12l6.4,1.8c0.2,0,0.3,0,0.4-0.1s0.2-0.2,0.2-0.4v-11C24,12.3,23.9,12.1,23.6,12z"/>
		<path d="M0.2,10.1C0.1,10.2,0,10.3,0,10.5v11c0,0.2,0.1,0.4,0.4,0.5L7,23.9v-12L0.6,10C0.5,10,0.3,10,0.2,10.1z"/>
		<path d="M11,7v10c0,0.3,0.2,0.5,0.5,0.5S12,17.3,12,17V7c1.7-0.2,3-1.7,3-3.5C15,1.6,13.4,0,11.5,0S8,1.6,8,3.5
			C8,5.3,9.3,6.7,11,7z M11.5,2C12.3,2,13,2.7,13,3.5C13,3.8,12.8,4,12.5,4S12,3.8,12,3.5S11.8,3,11.5,3S11,2.8,11,2.5
			S11.2,2,11.5,2z"/>
	</g>
</g>
<g id="Outline_Icons">
	<g>
		<circle class="st2" cx="11.5" cy="3.5" r="3"/>
		<line class="st2" x1="11.5" y1="6.5" x2="11.5" y2="17"/>
		<polyline class="st2" points="8.5,12.3 7.5,12.5 0.5,10.5 0.5,21.5 7.5,23.5 16.5,21.5 23.5,23.5 23.5,12.5 16.5,10.5 14.5,10.9 
					"/>
		<line class="st3" x1="7.5" y1="12.5" x2="7.5" y2="23.5"/>
		<line class="st3" x1="16.5" y1="10.5" x2="16.5" y2="21.5"/>
		<path class="st2" d="M11.5,2.5c0.6,0,1,0.4,1,1"/>
	</g>
</g>
</svg>
