<?xml version="1.0" encoding="utf-8"?>
<!-- Generator: Adobe Illustrator 19.2.0, SVG Export Plug-In . SVG Version: 6.00 Build 0)  -->
<svg version="1.1" id="Layer_1" xmlns="http://www.w3.org/2000/svg" xmlns:xlink="http://www.w3.org/1999/xlink" x="0px" y="0px"
	 viewBox="0 0 24 24" style="enable-background:new 0 0 24 24;" xml:space="preserve">
<style type="text/css">
	.st0{display:none;}
	.st1{display:inline;}
	.st2{fill:none;stroke:#000000;stroke-linecap:round;stroke-linejoin:round;stroke-miterlimit:10;}
</style>
<g id="Filled_Icons" class="st0">
	<path class="st1" d="M23,3.5c0-0.1-0.1-0.3-0.2-0.4C22.7,3,22.5,3,22.4,3L17,4.5L12.1,3C12,3,12,3,11.9,3L7,4.5L1.6,3
		C1.5,3,1.3,3,1.2,3.1C1.1,3.2,1,3.3,1,3.5L0,22c0,0.2,0.1,0.5,0.4,0.5l6,1.5c0.1,0,0.2,0,0.3,0l5.4-1.5l5.4,1.5h0.1h0.1l6-1.5
		c0.2-0.1,0.4-0.3,0.4-0.5L23,3.5z M5.4,17.4l-0.5,0.5C4.8,18,4.6,18,4.5,18s-0.3,0-0.4-0.1c-0.2-0.2-0.2-0.5,0-0.7l0.5-0.5
		c0.2-0.2,0.5-0.2,0.7,0C5.5,16.8,5.5,17.2,5.4,17.4z M8.4,14.4l-0.5,0.5C7.8,15,7.6,15,7.5,15s-0.3,0-0.4-0.1
		c-0.2-0.2-0.2-0.5,0-0.7l0.5-0.5c0.2-0.2,0.5-0.2,0.7,0C8.5,13.8,8.5,14.2,8.4,14.4z M12,13h-1c-0.3,0-0.5-0.2-0.5-0.5
		S10.7,12,11,12h1c0.3,0,0.5,0.2,0.5,0.5S12.3,13,12,13z M14.9,15.4c-0.1,0.1-0.2,0.1-0.4,0.1c-0.1,0-0.3,0-0.4-0.1l-0.5-0.5
		c-0.2-0.2-0.2-0.5,0-0.7s0.5-0.2,0.7,0l0.5,0.5C15,14.8,15,15.2,14.9,15.4z M18.4,15.9l-0.5,0.5c-0.1,0.1-0.2,0.1-0.4,0.1
		c-0.1,0-0.3,0-0.4-0.1c-0.2-0.2-0.2-0.5,0-0.7l0.5-0.5c0.2-0.2,0.5-0.2,0.7,0C18.5,15.3,18.5,15.7,18.4,15.9z M19,13
		c0,0.3-0.2,0.5-0.5,0.5S18,13.3,18,13v-1c0-0.3,0.2-0.5,0.5-0.5S19,11.7,19,12V13z M19.4,10.2c0.2,0.2,0.2,0.5,0,0.7
		C19.3,11,19.1,11,19,11s-0.3,0-0.4-0.1L18,10.2l-0.6,0.6C17.3,11,17.1,11,17,11s-0.3,0-0.4-0.1c-0.2-0.2-0.2-0.5,0-0.7l0.6-0.6
		L16.6,9c-0.2-0.2-0.2-0.5,0-0.7s0.5-0.2,0.7,0L18,8.8l0.6-0.6c0.2-0.2,0.5-0.2,0.7,0s0.2,0.5,0,0.7l-0.6,0.6L19.4,10.2z"/>
</g>
<g id="Outline_Icons">
	<g>
		<polygon class="st2" points="0.5,22 6.5,23.5 12,22 17.5,23.5 23.5,22 22.5,3.5 17,5 12,3.5 7,5 1.5,3.5 		"/>
		<g>
			<line class="st2" x1="17" y1="8.5" x2="19" y2="10.5"/>
			<line class="st2" x1="17" y1="10.5" x2="19" y2="8.5"/>
		</g>
		<line class="st2" x1="4.5" y1="17.5" x2="5" y2="17"/>
		<line class="st2" x1="7.5" y1="14.5" x2="8" y2="14"/>
		<line class="st2" x1="18.5" y1="12" x2="18.5" y2="13"/>
		<line class="st2" x1="14" y1="14.5" x2="14.5" y2="15"/>
		<line class="st2" x1="11" y1="12.5" x2="12" y2="12.5"/>
		<line class="st2" x1="17.5" y1="16" x2="18" y2="15.5"/>
	</g>
</g>
</svg>
