<?xml version="1.0" encoding="utf-8"?>
<!-- Generator: Adobe Illustrator 19.2.0, SVG Export Plug-In . SVG Version: 6.00 Build 0)  -->
<svg version="1.1" id="Layer_1" xmlns="http://www.w3.org/2000/svg" xmlns:xlink="http://www.w3.org/1999/xlink" x="0px" y="0px"
	 viewBox="0 0 24 24" style="enable-background:new 0 0 24 24;" xml:space="preserve">
<style type="text/css">
	.st0{display:none;}
	.st1{display:inline;}
	.st2{fill:none;stroke:#000000;stroke-linecap:round;stroke-linejoin:round;stroke-miterlimit:10;}
</style>
<g id="Filled_Icons" class="st0">
	<g class="st1">
		<path d="M1.3,1.1C1.1,1.1,1,1.3,1,1.5v16c0,0.2,0.1,0.3,0.2,0.4L8,22.8V5.5L1.8,1.1C1.6,1,1.4,1,1.3,1.1z"/>
		<path d="M22.8,6.1L16,1.2v17.2l6.2,4.4c0.2,0.1,0.3,0.1,0.5,0s0.3-0.3,0.3-0.4v-16C23,6.3,22.9,6.2,22.8,6.1z"/>
		<polygon points="9,22.8 15,18.5 15,1.2 9,5.5 		"/>
	</g>
</g>
<g id="Outline_Icons">
	<g>
		<polygon class="st2" points="8.5,22.5 1.5,17.5 1.5,1.5 8.5,6.5 15.5,1.5 22.5,6.5 22.5,22.5 15.5,17.5 		"/>
		<line class="st2" x1="8.5" y1="6.5" x2="8.5" y2="22.5"/>
		<line class="st2" x1="15.5" y1="17.5" x2="15.5" y2="1.5"/>
	</g>
</g>
</svg>
