<?xml version="1.0" encoding="utf-8"?>
<!-- Generator: Adobe Illustrator 19.2.0, SVG Export Plug-In . SVG Version: 6.00 Build 0)  -->
<svg version="1.1" id="Layer_1" xmlns="http://www.w3.org/2000/svg" xmlns:xlink="http://www.w3.org/1999/xlink" x="0px" y="0px"
	 viewBox="0 0 24 24" style="enable-background:new 0 0 24 24;" xml:space="preserve">
<style type="text/css">
	.st0{display:none;}
	.st1{display:inline;}
	.st2{fill:none;stroke:#000000;stroke-linejoin:round;stroke-miterlimit:10;}
	.st3{fill:none;stroke:#000000;stroke-linecap:round;stroke-linejoin:round;stroke-miterlimit:10;}
</style>
<g id="Filled_Icons" class="st0">
	<path class="st1" d="M12,15c-1.2,0-7,0.1-7,2.5v2C5,22,7,24,9.5,24h5c2.5,0,4.5-2,4.5-4.5v-2C19,15.1,13.2,15,12,15z M10,20
		c0,0.3-0.2,0.5-0.5,0.5S9,20.3,9,20v-2c0-0.3,0.2-0.5,0.5-0.5S10,17.7,10,18V20z M15,20c0,0.3-0.2,0.5-0.5,0.5S14,20.3,14,20v-2
		c0-0.3,0.2-0.5,0.5-0.5S15,17.7,15,18V20z"/>
	<path class="st1" d="M22.1,6.8C21.7,6,21.2,5,20.4,4c-0.4,1.5-1.8,2.5-3.4,2.5c-1.9,0-3.5-1.6-3.5-3.5c0-1.1,0.5-2,1.3-2.7
		C13.9,0.1,13,0,12,0C7.4,0,3.8,2.4,1.9,6.8C0.1,10.9,0.1,16.1,2,18.2c0.6,0.6,1.3,1.1,2,1.4c0,0,0-0.1,0-0.1v-2
		c0-3.2,5.6-3.5,8-3.5c2.4,0,8,0.3,8,3.5v2c0,0,0,0,0,0.1c0.8-0.3,1.5-0.8,2-1.4C23.9,16.1,23.9,10.9,22.1,6.8z M7.5,13
		c-2.2,0-4-1.8-4-4s1.8-4,4-4s4,1.8,4,4S9.7,13,7.5,13z M18,13.5c-1.4,0-2.5-1.1-2.5-2.5s1.1-2.5,2.5-2.5s2.5,1.1,2.5,2.5
		S19.4,13.5,18,13.5z"/>
</g>
<g id="Outline_Icons">
	<g>
		<path class="st2" d="M5.5,17.5c0-2.7,13-2.7,13,0v2c0,2.2-1.8,4-4,4h-5c-2.2,0-4-1.8-4-4V17.5z"/>
		<path class="st2" d="M5.5,19.5c-1.2-0.1-2.4-0.7-3.2-1.6C-0.6,14.6,1,0.5,12,0.5c10.8,0,12.6,14,9.7,17.3c-0.8,0.9-2,1.5-3.2,1.6"
			/>
		<path class="st2" d="M19.8,4.1C19.4,5.3,18.3,6,17,6c-1.7,0-3-1.3-3-3c0-0.8,0.4-1.6,0.9-2.1"/>
		<circle class="st2" cx="18" cy="12" r="2"/>
		<circle class="st2" cx="7.5" cy="10.5" r="3.5"/>
		<line class="st3" x1="9.5" y1="18" x2="9.5" y2="20"/>
		<line class="st3" x1="14.5" y1="18" x2="14.5" y2="20"/>
	</g>
</g>
</svg>
