<?xml version="1.0" encoding="utf-8"?>
<!-- Generator: Adobe Illustrator 19.2.0, SVG Export Plug-In . SVG Version: 6.00 Build 0)  -->
<svg version="1.1" id="Layer_1" xmlns="http://www.w3.org/2000/svg" xmlns:xlink="http://www.w3.org/1999/xlink" x="0px" y="0px"
	 viewBox="0 0 24 24" style="enable-background:new 0 0 24 24;" xml:space="preserve">
<style type="text/css">
	.st0{display:none;}
	.st1{display:inline;}
	.st2{fill:none;stroke:#000000;stroke-linecap:round;stroke-linejoin:round;stroke-miterlimit:10;}
</style>
<g id="Filled_Icons" class="st0">
	<g class="st1">
		<path d="M6.9,14h2.5l2-5.5l-3-8.2L5.8,1.6L5.7,1.7L0.1,7.2C0,7.3,0,7.7,0.1,7.9l3,3c0.2,0.2,0.5,0.2,0.7,0L6.1,9L6.9,14z"/>
		<polygon points="9.3,0 12,7.1 14.7,0 		"/>
		<polygon points="6.9,15 5.4,23.4 9,15 		"/>
		<path d="M23.9,7.2l-5.5-5.5l-0.1-0.1l-2.6-1.3L10.5,14h6.6l0.8-5l2.3,1.9c0.2,0.2,0.5,0.2,0.7,0l3-3C24,7.7,24,7.3,23.9,7.2z"/>
		<path d="M17.1,15h-4.4l1.3,3.8c0.1,0.3-0.1,0.5-0.3,0.6c-0.1,0-0.1,0-0.2,0c-0.2,0-0.4-0.1-0.5-0.3L12,16l-1,3.1
			c-0.1,0.3-0.4,0.4-0.6,0.3c-0.3-0.1-0.4-0.4-0.3-0.6l1.3-3.8h-1.2l-3.9,9H18l0,0c0.3,0,0.5-0.2,0.5-0.5C18.5,23.4,17.1,15,17.1,15
			z"/>
	</g>
</g>
<g id="Outline_Icons">
	<g>
		<polygon class="st2" points="12,8.5 9,0.5 15,0.5 		"/>
		<polyline class="st2" points="9,0.5 6,2 0.5,7.5 3.5,10.5 6.5,8 7.5,14.5 5.9,23.5 12,23.5 18,23.5 16.5,14.5 17.5,8 20.5,10.5 
			23.5,7.5 18,2 15,0.5 		"/>
		<polyline class="st2" points="15,0.5 9.8,14.5 5.9,23.5 		"/>
		<line class="st2" x1="7.5" y1="14.5" x2="16.5" y2="14.5"/>
		<polyline class="st2" points="13.5,19 12,14.5 10.5,19 		"/>
	</g>
</g>
</svg>
