<?xml version="1.0" encoding="utf-8"?>
<!-- Generator: Adobe Illustrator 19.2.0, SVG Export Plug-In . SVG Version: 6.00 Build 0)  -->
<svg version="1.1" id="Layer_1" xmlns="http://www.w3.org/2000/svg" xmlns:xlink="http://www.w3.org/1999/xlink" x="0px" y="0px"
	 viewBox="0 0 24 24" style="enable-background:new 0 0 24 24;" xml:space="preserve">
<style type="text/css">
	.st0{display:none;}
	.st1{display:inline;}
	.st2{fill:none;stroke:#000000;stroke-linecap:round;stroke-linejoin:round;stroke-miterlimit:10;}
</style>
<g id="Filled_Icons" class="st0">
	<path class="st1" d="M22.7,0c-0.2-0.1-0.4,0-0.5,0.1c-1,1-5.2,1.7-10.1,1.7c-5,0-9.1-0.7-10.1-1.7C1.7,0,1.5,0,1.3,0
		C1.1,0.1,1,0.3,1,0.5V12c0,6.8,8.8,12,11,12s11-5.2,11-12V0.5C23,0.3,22.9,0.1,22.7,0z M6,9c0,0.3-0.2,0.5-0.5,0.5S5,9.3,5,9
		c0-1.4,1.1-2.5,2.5-2.5C8.9,6.5,10,7.6,10,9c0,0.3-0.2,0.5-0.5,0.5S9,9.3,9,9c0-0.8-0.7-1.5-1.5-1.5C6.7,7.5,6,8.2,6,9z M12,18.5
		c-2.5,0-4.5-2-4.5-4.5c0-0.3,0.2-0.5,0.5-0.5s0.5,0.2,0.5,0.5c0,1.9,1.6,3.5,3.5,3.5s3.5-1.6,3.5-3.5c0-0.3,0.2-0.5,0.5-0.5
		s0.5,0.2,0.5,0.5C16.5,16.5,14.5,18.5,12,18.5z M18.5,9.5C18.2,9.5,18,9.3,18,9c0-0.8-0.7-1.5-1.5-1.5S15,8.2,15,9
		c0,0.3-0.2,0.5-0.5,0.5S14,9.3,14,9c0-1.4,1.1-2.5,2.5-2.5C17.9,6.5,19,7.6,19,9C19,9.3,18.8,9.5,18.5,9.5z"/>
</g>
<g id="Outline_Icons">
	<g>
		<path class="st2" d="M22.5,12V0.5C20,3,4,3,1.5,0.5V12c0,6.4,8.5,11.5,10.5,11.5S22.5,18.4,22.5,12z"/>
		<path class="st2" d="M14.5,9c0-1.1,0.9-2,2-2c1.1,0,2,0.9,2,2"/>
		<path class="st2" d="M5.5,9c0-1.1,0.9-2,2-2c1.1,0,2,0.9,2,2"/>
		<path class="st2" d="M8,14c0,2.2,1.8,4,4,4c2.2,0,4-1.8,4-4"/>
	</g>
</g>
</svg>
