<?xml version="1.0" encoding="utf-8"?>
<!-- Generator: Adobe Illustrator 19.2.0, SVG Export Plug-In . SVG Version: 6.00 Build 0)  -->
<svg version="1.1" id="Layer_1" xmlns="http://www.w3.org/2000/svg" xmlns:xlink="http://www.w3.org/1999/xlink" x="0px" y="0px"
	 viewBox="0 0 24 24" style="enable-background:new 0 0 24 24;" xml:space="preserve">
<style type="text/css">
	.st0{display:none;}
	.st1{display:inline;}
	.st2{fill:none;stroke:#000000;stroke-linecap:round;stroke-linejoin:round;stroke-miterlimit:10;}
</style>
<g id="Filled_Icons" class="st0">
	<g class="st1">
		<path d="M5,2.6c0-0.2,0.1-0.4,0.3-0.5c0.2-0.1,0.4,0,0.5,0.1l1.7,1.7c0.7,0.7,3.5,1.4,7.4,1.4c1.1,0,2.1-0.1,3-0.2L18,4V0.5
			c0-0.2-0.1-0.4-0.3-0.5c-0.2-0.1-0.4,0-0.5,0.1c-1,1-4.3,1.7-8.1,1.7c-3.8,0-7.1-0.7-8.1-1.7C0.7,0,0.5,0,0.3,0
			C0.1,0.1,0,0.3,0,0.5V9c0,3.1,2.1,6.1,3.1,6.9l3.3,2.6C5.6,17,5,15.3,5,13.5V2.6z"/>
		<path d="M23.7,4.5c-0.2-0.1-0.4,0-0.5,0.1c-0.1,0.1-0.1,0.1-0.2,0.2c-1.1,0.8-3.5,1.2-4.9,1.4c0,0-1.4,0.2-3,0.2
			c-4.4,0-6.9-0.5-9-2.6V5v8.5C6,19.3,12.8,24,15,24s9-4.7,9-10.5V5C24,4.8,23.9,4.6,23.7,4.5z M10.5,12c0,0.3-0.2,0.5-0.5,0.5
			S9.5,12.3,9.5,12c0-1.1,0.9-2,2-2c1.1,0,2,0.9,2,2c0,0.3-0.2,0.5-0.5,0.5s-0.5-0.2-0.5-0.5c0-0.6-0.4-1-1-1
			C10.9,11,10.5,11.5,10.5,12z M15,20c-1.9,0-3.5-1.6-3.5-3.5c0-0.3,0.2-0.5,0.5-0.5s0.5,0.2,0.5,0.5c0,1.4,1.1,2.5,2.5,2.5
			c1.4,0,2.5-1.1,2.5-2.5c0-0.3,0.2-0.5,0.5-0.5s0.5,0.2,0.5,0.5C18.5,18.4,16.9,20,15,20z M20,12.5c-0.3,0-0.5-0.2-0.5-0.5
			c0-0.6-0.4-1-1-1c-0.6,0-1,0.4-1,1c0,0.3-0.2,0.5-0.5,0.5s-0.5-0.2-0.5-0.5c0-1.1,0.9-2,2-2c1.1,0,2,0.9,2,2
			C20.5,12.3,20.3,12.5,20,12.5z"/>
	</g>
</g>
<g id="Outline_Icons">
	<g>
		<path class="st2" d="M23.5,13.5V5C21,7.5,9,7.5,6.5,5v8.5c0,5.5,6.5,10,8.5,10S23.5,19,23.5,13.5z"/>
		<path class="st2" d="M17.5,4V0.5C15,3,3,3,0.5,0.5V9c0,2.5,1.3,4.8,2.9,6.5"/>
		<path class="st2" d="M18,16.5c0,1.7-1.3,3-3,3c-1.7,0-3-1.3-3-3"/>
		<path class="st2" d="M17,12c0-0.8,0.7-1.5,1.5-1.5c0.8,0,1.5,0.7,1.5,1.5"/>
		<path class="st2" d="M10,12c0-0.8,0.7-1.5,1.5-1.5c0.8,0,1.5,0.7,1.5,1.5"/>
	</g>
</g>
</svg>
