<?xml version="1.0" encoding="utf-8"?>
<!-- Generator: Adobe Illustrator 19.2.0, SVG Export Plug-In . SVG Version: 6.00 Build 0)  -->
<svg version="1.1" id="Layer_1" xmlns="http://www.w3.org/2000/svg" xmlns:xlink="http://www.w3.org/1999/xlink" x="0px" y="0px"
	 viewBox="0 0 24 24" style="enable-background:new 0 0 24 24;" xml:space="preserve">
<style type="text/css">
	.st0{display:none;}
	.st1{display:inline;}
	.st2{fill:none;stroke:#000000;stroke-linecap:round;stroke-linejoin:round;stroke-miterlimit:10;}
</style>
<g id="Filled_Icons" class="st0">
	<g class="st1">
		<path d="M12.6,14.7l0.1,0.2c0.5,0.6,0.4,1.4-0.1,1.9l-1.6,1.8c-0.7,0.7-1.6,1.1-2.6,1.1c0,0-0.1,0-0.1,0c-1,0-2-0.5-2.6-1.3
			c-0.6-0.8-0.9-1.9-0.7-2.9c0.2-1,0.8-1.9,1.7-2.4L9,12c0.6-0.3,1.4-0.2,1.8,0.3l3.7-3.1c-0.8-1.2-1.8-2.1-3.1-2.7
			c-0.1-0.1-0.3-0.1-0.4,0c-0.1,0.1-0.2,0.2-0.3,0.4c-0.1,0.9-0.6,1.9-1.1,2.6c-0.7-0.8-1.1-1.9-1.1-3c0-1.6,1.3-3.1,2.4-3.9
			c0.2-0.1,0.3-0.4,0.2-0.6c-0.1-0.2-0.3-0.4-0.6-0.3C4.7,2.7,0,8.1,0,14c0,4.4,3.6,8,8,8s8-3.6,8-8c0-0.6-0.1-1.2-0.2-1.9
			L12.6,14.7z"/>
		<path d="M22.7,4.5c-0.2-0.2-0.5-0.2-0.7-0.1l-11.3,9.3l-0.6-0.7c-0.2-0.2-0.4-0.2-0.6-0.1l-2.1,1.2c-0.6,0.4-1.1,1-1.2,1.7
			c-0.1,0.7,0,1.5,0.5,2c0.5,0.6,1.1,0.9,1.9,1c0,0,0.1,0,0.1,0c0.7,0,1.4-0.3,1.8-0.8l1.6-1.8c0.2-0.2,0.2-0.5,0-0.6l-0.7-0.9
			l11.4-9.4C22.8,5,22.9,4.7,22.7,4.5z M8.5,18.3L8.5,18.3L8.5,18.3L8.5,18.3z"/>
	</g>
</g>
<g id="Outline_Icons">
	<g>
		<path class="st2" d="M10.7,2.2C9.3,3.1,8,4.8,8,6.5c0,1.4,0.6,2.9,1.6,3.8C10.4,9.5,11,8.2,11.2,7c2.7,1.2,4.3,4.1,4.3,7
			c0,4.1-3.4,7.5-7.5,7.5c-4.1,0-7.5-3.4-7.5-7.5C0.5,8.2,5,3.2,10.7,2.2z"/>
		<path class="st2" d="M7.6,14.5c-0.5,0.3-0.9,0.8-1,1.3c-0.1,0.6,0,1.2,0.4,1.6c0.4,0.5,0.9,0.7,1.5,0.8c0.6,0,1.1-0.2,1.5-0.6
			l1.6-1.8l-1.9-2.5L7.6,14.5z"/>
		<line class="st2" x1="10.6" y1="14.5" x2="22.3" y2="4.8"/>
	</g>
</g>
</svg>
