<?xml version="1.0" encoding="utf-8"?>
<!-- Generator: Adobe Illustrator 19.2.0, SVG Export Plug-In . SVG Version: 6.00 Build 0)  -->
<svg version="1.1" id="Layer_1" xmlns="http://www.w3.org/2000/svg" xmlns:xlink="http://www.w3.org/1999/xlink" x="0px" y="0px"
	 viewBox="0 0 24 24" style="enable-background:new 0 0 24 24;" xml:space="preserve">
<style type="text/css">
	.st0{display:none;}
	.st1{display:inline;}
	.st2{fill:none;stroke:#000000;stroke-linejoin:round;stroke-miterlimit:10;}
</style>
<g id="Filled_Icon" class="st0">
	<g class="st1">
		<path d="M5,21H2.5C2.2,21,2,20.8,2,20.5C2,20.2,2.2,20,2.5,20H5v-3H3.5C3.2,17,3,16.8,3,16.5C3,16.2,3.2,16,3.5,16H5v-3H3.5
			C3.2,13,3,12.8,3,12.5C3,12.2,3.2,12,3.5,12H5V9H2.5C2.2,9,2,8.8,2,8.5C2,8.2,2.2,8,2.5,8H5V6H0v17.5C0,23.8,0.2,24,0.5,24H5V21z"
			/>
		<path d="M6,5h2V2.5C8,2.2,8.2,2,8.5,2C8.8,2,9,2.2,9,2.5V5h3V3.5C12,3.2,12.2,3,12.5,3C12.8,3,13,3.2,13,3.5V5h3V3.5
			C16,3.2,16.2,3,16.5,3C16.8,3,17,3.2,17,3.5V5h3V2.5C20,2.2,20.2,2,20.5,2C20.8,2,21,2.2,21,2.5V5h3V0.5C24,0.2,23.8,0,23.5,0H6V5
			z"/>
		<path d="M5,5V0H0.5C0.2,0,0,0.2,0,0.5V5H5z"/>
		<path d="M6,6v18h12c0.1,0,0.3-0.1,0.4-0.1l5.5-5.5c0.1-0.1,0.1-0.2,0.1-0.4V6H6z M22.9,17.9l-5,5c-0.1,0.1-0.2,0.1-0.4,0.1
			c-0.1,0-0.1,0-0.2,0c-0.2-0.1-0.3-0.3-0.3-0.5v-5c0-0.3,0.2-0.5,0.5-0.5h5c0.2,0,0.4,0.1,0.5,0.3C23,17.5,23,17.7,22.9,17.9z"/>
	</g>
</g>
<g id="Outline_Icons">
	<g>
		<rect x="0.5" y="5.5" class="st2" width="5" height="18"/>
		<rect x="5.5" y="0.5" class="st2" width="18" height="5"/>
		<rect x="0.5" y="0.5" class="st2" width="5" height="5"/>
		<polygon class="st2" points="18,23.5 5.5,23.5 5.5,5.5 23.5,5.5 23.5,18 		"/>
		<polyline class="st2" points="17.5,23.5 17.5,17.5 23.5,17.5 		"/>
		<line class="st2" x1="8.5" y1="5.5" x2="8.5" y2="2"/>
		<line class="st2" x1="12.5" y1="5.5" x2="12.5" y2="3"/>
		<line class="st2" x1="16.5" y1="5.5" x2="16.5" y2="3"/>
		<line class="st2" x1="20.5" y1="5.5" x2="20.5" y2="2"/>
		<line class="st2" x1="5.5" y1="20.5" x2="2" y2="20.5"/>
		<line class="st2" x1="5.5" y1="16.5" x2="3" y2="16.5"/>
		<line class="st2" x1="5.5" y1="12.5" x2="3" y2="12.5"/>
		<line class="st2" x1="5.5" y1="8.5" x2="2" y2="8.5"/>
	</g>
</g>
</svg>
