<?xml version="1.0" encoding="utf-8"?>
<!-- Generator: Adobe Illustrator 19.2.0, SVG Export Plug-In . SVG Version: 6.00 Build 0)  -->
<svg version="1.1" id="Layer_1" xmlns="http://www.w3.org/2000/svg" xmlns:xlink="http://www.w3.org/1999/xlink" x="0px" y="0px"
	 viewBox="0 0 24 24" style="enable-background:new 0 0 24 24;" xml:space="preserve">
<style type="text/css">
	.st0{display:none;}
	.st1{display:inline;}
	.st2{fill:none;stroke:#000000;stroke-linecap:round;stroke-linejoin:round;stroke-miterlimit:10;}
</style>
<g id="Filled_Icons" class="st0">
	<path class="st1" d="M23.5,22h-20C2.7,22,2,21.3,2,20.5C2,19.7,2.7,19,3.5,19H21c1.7,0,3-1.3,3-3c0-1.7-1.3-3-3-3h-5V8
		c0-4.4-3.6-8-8-8H4C1.8,0,0,1.8,0,4v11.5C0,15.8,0.2,16,0.5,16h15c0.3,0,0.5-0.2,0.5-0.5V14h5c1.1,0,2,0.9,2,2c0,1.1-0.9,2-2,2H3.5
		C2.1,18,1,19.1,1,20.5S2.1,23,3.5,23H23v0.5c0,0.3,0.2,0.5,0.5,0.5s0.5-0.2,0.5-0.5v-1C24,22.2,23.8,22,23.5,22z M8,4
		c2.2,0,4,1.8,4,4c0,2.2-1.8,4-4,4c-2.2,0-4-1.8-4-4C4,5.8,5.8,4,8,4z M12.5,14h-9C3.2,14,3,13.8,3,13.5S3.2,13,3.5,13h9
		c0.3,0,0.5,0.2,0.5,0.5C13,13.8,12.8,14,12.5,14z"/>
</g>
<g id="Outline_Icons">
	<g>
		<path class="st2" d="M15.5,15.5h-15V4c0-1.9,1.6-3.5,3.5-3.5h4c4.1,0,7.5,3.4,7.5,7.5V15.5z"/>
		<circle class="st2" cx="8" cy="8" r="3.5"/>
		<line class="st2" x1="3.5" y1="13.5" x2="12.5" y2="13.5"/>
		<path class="st2" d="M15.5,13.5H21c1.4,0,2.5,1.1,2.5,2.5s-1.1,2.5-2.5,2.5H3.5c-1.1,0-2,0.9-2,2c0,1.1,0.9,2,2,2h20v1"/>
	</g>
</g>
</svg>
