<?xml version="1.0" encoding="utf-8"?>
<!-- Generator: Adobe Illustrator 19.2.0, SVG Export Plug-In . SVG Version: 6.00 Build 0)  -->
<svg version="1.1" id="Layer_1" xmlns="http://www.w3.org/2000/svg" xmlns:xlink="http://www.w3.org/1999/xlink" x="0px" y="0px"
	 viewBox="0 0 24 24" style="enable-background:new 0 0 24 24;" xml:space="preserve">
<style type="text/css">
	.st0{display:none;}
	.st1{display:inline;}
	.st2{fill:none;stroke:#000000;stroke-linejoin:round;stroke-miterlimit:10;}
	.st3{fill:none;stroke:#000000;stroke-linecap:round;stroke-linejoin:round;stroke-miterlimit:10;}
</style>
<g id="Filled_Icons" class="st0">
	<path class="st1" d="M8,7.7l0.6,1.3c1.2-0.6,2.5-1,3.9-1c1.4,0,2.8,0.4,4,1l0.5-1.3l2-4.5c0-0.1,0-0.1,0-0.2V0.5
		C19,0.2,18.8,0,18.5,0H16v6.5C16,6.8,15.7,7,15.5,7C15.2,7,15,6.8,15,6.5V0h-2v6.5C13,6.8,12.7,7,12.5,7C12.2,7,12,6.8,12,6.5V0h-2
		v6.5C10,6.8,9.7,7,9.5,7C9.2,7,9,6.8,9,6.5V0H6.5C6.2,0,6,0.2,6,0.5V3c0,0.1,0,0.1,0,0.2L8,7.7z"/>
	<path class="st1" d="M12.5,9C8.3,9,5,12.4,5,16.5c0,4.1,3.4,7.5,7.5,7.5c4.1,0,7.5-3.4,7.5-7.5C20,12.4,16.6,9,12.5,9z M17.3,15.4
		L15,17.2l0.9,3.2c0.1,0.2,0,0.4-0.2,0.5C15.7,21,15.6,21,15.5,21c-0.1,0-0.2,0-0.3-0.1l-2.7-1.7l-2.7,1.7c-0.2,0.1-0.4,0.1-0.6,0
		C9,20.8,8.9,20.5,9,20.3l0.9-3.2l-2.2-1.8c-0.2-0.1-0.2-0.4-0.2-0.6c0.1-0.2,0.3-0.3,0.5-0.3h2.7l1.4-2.7c0.2-0.3,0.7-0.3,0.9,0
		l1.4,2.7H17c0.2,0,0.4,0.1,0.5,0.3C17.5,15,17.4,15.2,17.3,15.4z"/>
</g>
<g id="Outline_Icons">
	<g>
		<circle class="st2" cx="12" cy="16" r="7.5"/>
		<polygon class="st2" points="12,11.5 13.5,14.5 16.5,14.5 14,16.5 15,20 12,18.1 9,20 10,16.5 7.5,14.5 10.5,14.5 		"/>
		<polyline class="st3" points="12.5,0.5 6.5,0.5 6.5,3 8,7.5 		"/>
		<polyline class="st3" points="12.5,0.5 18.5,0.5 18.5,3 17.1,7.5 		"/>
		<line class="st3" x1="9.5" y1="0.5" x2="9.5" y2="6.5"/>
		<line class="st3" x1="15.5" y1="0.5" x2="15.5" y2="6.5"/>
		<line class="st3" x1="12.5" y1="0.5" x2="12.5" y2="6.5"/>
	</g>
</g>
</svg>
