<?xml version="1.0" encoding="utf-8"?>
<!-- Generator: Adobe Illustrator 19.2.0, SVG Export Plug-In . SVG Version: 6.00 Build 0)  -->
<svg version="1.1" id="Layer_1" xmlns="http://www.w3.org/2000/svg" xmlns:xlink="http://www.w3.org/1999/xlink" x="0px" y="0px"
	 viewBox="0 0 24 24" style="enable-background:new 0 0 24 24;" xml:space="preserve">
<style type="text/css">
	.st0{display:none;}
	.st1{display:inline;}
	.st2{fill:none;stroke:#000000;stroke-linecap:round;stroke-linejoin:round;stroke-miterlimit:10;}
</style>
<g id="Filled_Icons" class="st0">
	<path class="st1" d="M21.1,2.9c-1.3-1.3-3.1-2-4.9-2s-3.6,0.7-5,2L6.9,7.2h0L2,12.1c-2.7,2.7-2.7,7.2,0,9.9c1.4,1.4,3.2,2,4.9,2
		c1.8,0,3.6-0.7,4.9-2l4.7-4.7l0,0l4.4-4.4C23.9,10,23.9,5.6,21.1,2.9z M11.2,21.3c-2.3,2.3-6.1,2.3-8.5,0c-2.3-2.3-2.3-6.1,0-8.5
		L7,8.5l8.5,8.5L11.2,21.3z M19,5.7c-0.2,0.2-0.5,0.2-0.7,0c-1.4-1.4-3.6-1.4-4.9,0l-2.1,2.1C11.1,7.9,11,8,10.9,8s-0.3,0-0.4-0.1
		c-0.2-0.2-0.2-0.5,0-0.7L12.7,5c1.8-1.8,4.6-1.8,6.4,0C19.2,5.2,19.2,5.5,19,5.7z"/>
</g>
<g id="Outline_Icons">
	<g>
		<path class="st2" d="M11.6,21.6c-2.5,2.5-6.7,2.5-9.2,0c-2.5-2.5-2.5-6.7,0-9.2l9.2-9.2c2.5-2.5,6.7-2.5,9.2,0l0,0
			c2.5,2.5,2.5,6.7,0,9.2L11.6,21.6z"/>
		<line class="st2" x1="7" y1="7.8" x2="16.2" y2="17"/>
		<path class="st2" d="M10.9,7.5L13,5.3c1.6-1.6,4.1-1.6,5.7,0"/>
	</g>
</g>
</svg>
