<?xml version="1.0" encoding="utf-8"?>
<!-- Generator: Adobe Illustrator 19.2.0, SVG Export Plug-In . SVG Version: 6.00 Build 0)  -->
<svg version="1.1" id="Layer_1" xmlns="http://www.w3.org/2000/svg" xmlns:xlink="http://www.w3.org/1999/xlink" x="0px" y="0px"
	 viewBox="0 0 24 24" style="enable-background:new 0 0 24 24;" xml:space="preserve">
<style type="text/css">
	.st0{display:none;}
	.st1{display:inline;}
	.st2{fill:none;stroke:#000000;stroke-linejoin:round;stroke-miterlimit:10;}
</style>
<g id="Filled_Icons" class="st0">
	<path class="st1" d="M23.9,0.2c-0.2-0.2-0.5-0.2-0.7,0L6,14.7c0-0.8-0.3-1.6-0.9-2.2c-1.1-1.1-3.1-1.1-4.2,0
		c-1.2,1.2-1.2,3.1,0,4.2c0.6,0.6,1.3,0.9,2.1,0.9c0.8,0,1.5-0.3,2.1-0.9l0,0l6.2-5.3l1.2,1.2l-5.3,6.2h0c-0.5,0.6-0.9,1.3-0.9,2.1
		c0,0.8,0.3,1.6,0.9,2.1S8.6,24,9.4,24c0.8,0,1.6-0.3,2.1-0.9c1.2-1.2,1.2-3.1,0-4.2c-0.6-0.6-1.4-0.9-2.2-0.8L23.9,0.8
		C24,0.6,24,0.3,23.9,0.2z M1.6,16c-0.8-0.8-0.8-2,0-2.8c0.4-0.4,0.9-0.6,1.4-0.6s1,0.2,1.4,0.6c0.8,0.8,0.8,2,0,2.8
		C3.7,16.8,2.4,16.8,1.6,16z M9.4,19c0.5,0,1,0.2,1.4,0.6c0.8,0.8,0.8,2,0,2.8c-0.8,0.8-2.1,0.8-2.8,0C7.6,22,7.4,21.5,7.4,21
		c0-0.5,0.2-1,0.6-1.4C8.4,19.2,8.9,19,9.4,19z"/>
</g>
<g id="Outline_Icons">
	<g>
		<g>
			<circle class="st2" cx="3.1" cy="14.6" r="2.5"/>
			<circle class="st2" cx="9.4" cy="21" r="2.5"/>
			<polyline class="st2" points="4.8,16.4 23.5,0.6 7.6,19.2 			"/>
		</g>
		<line class="st2" x1="11" y1="11.1" x2="12.9" y2="13"/>
	</g>
</g>
</svg>
