<?xml version="1.0" encoding="utf-8"?>
<!-- Generator: Adobe Illustrator 19.2.0, SVG Export Plug-In . SVG Version: 6.00 Build 0)  -->
<svg version="1.1" id="Layer_1" xmlns="http://www.w3.org/2000/svg" xmlns:xlink="http://www.w3.org/1999/xlink" x="0px" y="0px"
	 viewBox="0 0 24 24" style="enable-background:new 0 0 24 24;" xml:space="preserve">
<style type="text/css">
	.st0{display:none;}
	.st1{display:inline;}
	.st2{fill:none;stroke:#000000;stroke-linecap:round;stroke-linejoin:round;stroke-miterlimit:10;}
</style>
<g id="Filled_Icons" class="st0">
	<g class="st1">
		<path d="M15.5,16h-8C7.2,16,7,16.2,7,16.5S7.2,17,7.5,17h8c0.3,0,0.5-0.2,0.5-0.5S15.8,16,15.5,16z"/>
		<path d="M15.5,18h-8C7.2,18,7,18.2,7,18.5S7.2,19,7.5,19h8c0.3,0,0.5-0.2,0.5-0.5S15.8,18,15.5,18z"/>
		<path d="M12.5,7h-2C10.2,7,10,7.2,10,7.5V9H8.5C8.2,9,8,9.2,8,9.5v2C8,11.8,8.2,12,8.5,12H10v1.5c0,0.3,0.2,0.5,0.5,0.5h2
			c0.3,0,0.5-0.2,0.5-0.5V12h1.5c0.3,0,0.5-0.2,0.5-0.5v-2C15,9.2,14.8,9,14.5,9H13V7.5C13,7.2,12.8,7,12.5,7z"/>
		<path d="M20.5,2H18c0,0.2,0,0.3,0,0.5V4h0.5C18.8,4,19,4.2,19,4.5v17c0,0.3-0.2,0.5-0.5,0.5h-14C4.2,22,4,21.8,4,21.5v-17
			C4,4.2,4.2,4,4.5,4H5V2H2.5C2.2,2,2,2.2,2,2.5v21C2,23.8,2.2,24,2.5,24h18c0.3,0,0.5-0.2,0.5-0.5v-21C21,2.2,20.8,2,20.5,2z"/>
		<path d="M6.5,6h10C16.8,6,17,5.8,17,5.5v-3C17,2.2,16.8,2,16.5,2h-2.6c-0.2-1.1-1.2-2-2.4-2S9.3,0.9,9.1,2H6.5C6.2,2,6,2.2,6,2.5
			v3C6,5.8,6.2,6,6.5,6z"/>
	</g>
</g>
<g id="Outline_Icons">
	<g>
		<polyline class="st2" points="18.5,2.5 20.5,2.5 20.5,23.5 2.5,23.5 2.5,2.5 4.5,2.5 		"/>
		<path class="st2" d="M13.5,2.5c0-1.1-0.9-2-2-2c-1.1,0-2,0.9-2,2h-3v3h10v-3H13.5z"/>
		<polyline class="st2" points="6.5,4.5 4.5,4.5 4.5,21.5 18.5,21.5 18.5,4.5 16.5,4.5 		"/>
		<line class="st2" x1="7.5" y1="16.5" x2="15.5" y2="16.5"/>
		<line class="st2" x1="7.5" y1="18.5" x2="15.5" y2="18.5"/>
		<polygon class="st2" points="14.5,9.5 12.5,9.5 12.5,7.5 10.5,7.5 10.5,9.5 8.5,9.5 8.5,11.5 10.5,11.5 10.5,13.5 12.5,13.5 
			12.5,11.5 14.5,11.5 		"/>
	</g>
</g>
</svg>
