<?xml version="1.0" encoding="utf-8"?>
<!-- Generator: Adobe Illustrator 19.2.0, SVG Export Plug-In . SVG Version: 6.00 Build 0)  -->
<svg version="1.1" id="Layer_1" xmlns="http://www.w3.org/2000/svg" xmlns:xlink="http://www.w3.org/1999/xlink" x="0px" y="0px"
	 viewBox="0 0 24 24" style="enable-background:new 0 0 24 24;" xml:space="preserve">
<style type="text/css">
	.st0{display:none;}
	.st1{display:inline;}
	.st2{fill:none;stroke:#000000;stroke-linecap:round;stroke-linejoin:round;stroke-miterlimit:10;}
</style>
<g id="Filled_Icons" class="st0">
	<path class="st1" d="M20.9,6.2l-6-6C14.8,0.1,14.6,0,14.5,0h-11C3.2,0,3,0.2,3,0.5v23C3,23.8,3.2,24,3.5,24h17
		c0.3,0,0.5-0.2,0.5-0.5v-17C21,6.4,20.9,6.2,20.9,6.2z M8,10.5C8,10.2,8.2,10,8.5,10H10V8.5C10,8.2,10.2,8,10.5,8h3
		C13.8,8,14,8.2,14,8.5V10h1.5c0.3,0,0.5,0.2,0.5,0.5v3c0,0.3-0.2,0.5-0.5,0.5H14v1.5c0,0.3-0.2,0.5-0.5,0.5h-3
		c-0.3,0-0.5-0.2-0.5-0.5V14H8.5C8.2,14,8,13.8,8,13.5V10.5z M17.5,21h-11C6.2,21,6,20.8,6,20.5S6.2,20,6.5,20h11
		c0.3,0,0.5,0.2,0.5,0.5S17.8,21,17.5,21z M17.5,19h-11C6.2,19,6,18.8,6,18.5S6.2,18,6.5,18h11c0.3,0,0.5,0.2,0.5,0.5
		S17.8,19,17.5,19z M15,6.5c-0.3,0-0.5-0.2-0.5-0.5V1.3l5.2,5.2C19.7,6.5,15,6.5,15,6.5z"/>
</g>
<g id="Outline_Icons">
	<g>
		<polygon class="st2" points="20.5,23.5 3.5,23.5 3.5,0.5 14.5,0.5 20.5,6.5 		"/>
		<polyline class="st2" points="14.5,0.5 14.5,6.5 20.5,6.5 		"/>
		<line class="st2" x1="6.5" y1="18.5" x2="17.5" y2="18.5"/>
		<line class="st2" x1="6.5" y1="20.5" x2="17.5" y2="20.5"/>
		<polygon class="st2" points="15.5,10.5 13.5,10.5 13.5,8.5 10.5,8.5 10.5,10.5 8.5,10.5 8.5,13.5 10.5,13.5 10.5,15.5 13.5,15.5 
			13.5,13.5 15.5,13.5 		"/>
	</g>
</g>
</svg>
