<?xml version="1.0" encoding="utf-8"?>
<!-- Generator: Adobe Illustrator 19.2.0, SVG Export Plug-In . SVG Version: 6.00 Build 0)  -->
<svg version="1.1" id="Layer_1" xmlns="http://www.w3.org/2000/svg" xmlns:xlink="http://www.w3.org/1999/xlink" x="0px" y="0px"
	 viewBox="0 0 24 24" style="enable-background:new 0 0 24 24;" xml:space="preserve">
<style type="text/css">
	.st0{display:none;}
	.st1{display:inline;}
	.st2{fill:none;stroke:#000000;stroke-linecap:round;stroke-linejoin:round;stroke-miterlimit:10;}
</style>
<g id="Filled_Icons" class="st0">
	<path class="st1" d="M21.5,5H16V4c0-1.1-0.9-2-2-2h-4C8.9,2,8,2.9,8,4v1H2.5C1.1,5,0,6.1,0,7.5v12C0,20.9,1.1,22,2.5,22h19
		c1.4,0,2.5-1.1,2.5-2.5v-12C24,6.1,22.9,5,21.5,5z M9,4c0-0.6,0.4-1,1-1h4c0.6,0,1,0.4,1,1v1H9V4z M17,15.5c0,0.3-0.2,0.5-0.5,0.5
		H14v2.5c0,0.3-0.2,0.5-0.5,0.5h-3c-0.3,0-0.5-0.2-0.5-0.5V16H7.5C7.2,16,7,15.8,7,15.5v-3C7,12.2,7.2,12,7.5,12H10V9.5
		C10,9.2,10.2,9,10.5,9h3C13.8,9,14,9.2,14,9.5V12h2.5c0.3,0,0.5,0.2,0.5,0.5V15.5z"/>
</g>
<g id="Outline_Icons">
	<g>
		<polygon class="st2" points="16.5,12.5 13.5,12.5 13.5,9.5 10.5,9.5 10.5,12.5 7.5,12.5 7.5,15.5 10.5,15.5 10.5,18.5 13.5,18.5 
			13.5,15.5 16.5,15.5 		"/>
		<path class="st2" d="M23.5,7.5c0-1.1-0.9-2-2-2h-19c-1.1,0-2,0.9-2,2v12c0,1.1,0.9,2,2,2h19c1.1,0,2-0.9,2-2V7.5z"/>
		<path class="st2" d="M8.5,5.5V4c0-0.8,0.7-1.5,1.5-1.5h4c0.8,0,1.5,0.7,1.5,1.5v1.5"/>
	</g>
</g>
</svg>
