<?xml version="1.0" encoding="utf-8"?>
<!-- Generator: Adobe Illustrator 19.2.0, SVG Export Plug-In . SVG Version: 6.00 Build 0)  -->
<svg version="1.1" id="Layer_1" xmlns="http://www.w3.org/2000/svg" xmlns:xlink="http://www.w3.org/1999/xlink" x="0px" y="0px"
	 viewBox="0 0 24 24" style="enable-background:new 0 0 24 24;" xml:space="preserve">
<style type="text/css">
	.st0{display:none;}
	.st1{display:inline;}
	.st2{fill:none;stroke:#000000;stroke-linecap:round;stroke-linejoin:round;stroke-miterlimit:10;}
</style>
<g id="Filled_Icons" class="st0">
	<g class="st1">
		<path d="M20.5,4.5h-17C3.2,4.5,3,4.7,3,5v15.5C3,22.4,4.6,24,6.5,24h11c1.9,0,3.5-1.6,3.5-3.5V5C21,4.7,20.8,4.5,20.5,4.5z
			 M19,19.5c0,0.3-0.2,0.5-0.5,0.5h-13C5.2,20,5,19.8,5,19.5v-13C5,6.2,5.2,6,5.5,6h13C18.8,6,19,6.2,19,6.5V19.5z"/>
		<path d="M20,0H4C2.9,0,2,0.9,2,2v1c0,0.3,0.2,0.5,0.5,0.5h19C21.8,3.5,22,3.3,22,3V2C22,0.9,21.1,0,20,0z"/>
		<path d="M16.5,11H14V8.5C14,8.2,13.8,8,13.5,8h-3C10.2,8,10,8.2,10,8.5V11H7.5C7.2,11,7,11.2,7,11.5v3C7,14.8,7.2,15,7.5,15H10
			v2.5c0,0.3,0.2,0.5,0.5,0.5h3c0.3,0,0.5-0.2,0.5-0.5V15h2.5c0.3,0,0.5-0.2,0.5-0.5v-3C17,11.2,16.8,11,16.5,11z"/>
	</g>
</g>
<g id="Outline_Icons">
	<g>
		<path class="st2" d="M20.5,3.5v17c0,1.6-1.4,3-3,3h-11c-1.7,0-3-1.4-3-3v-17"/>
		<path class="st2" d="M21.5,3.5h-19V2c0-0.8,0.7-1.5,1.5-1.5h16c0.8,0,1.5,0.7,1.5,1.5V3.5z"/>
		<rect x="5.5" y="6.5" class="st2" width="13" height="13"/>
		<polygon class="st2" points="16.5,11.5 13.5,11.5 13.5,8.5 10.5,8.5 10.5,11.5 7.5,11.5 7.5,14.5 10.5,14.5 10.5,17.5 13.5,17.5 
			13.5,14.5 16.5,14.5 		"/>
	</g>
</g>
</svg>
