<?xml version="1.0" encoding="utf-8"?>
<!-- Generator: Adobe Illustrator 19.2.0, SVG Export Plug-In . SVG Version: 6.00 Build 0)  -->
<svg version="1.1" id="Layer_1" xmlns="http://www.w3.org/2000/svg" xmlns:xlink="http://www.w3.org/1999/xlink" x="0px" y="0px"
	 viewBox="0 0 24 24" style="enable-background:new 0 0 24 24;" xml:space="preserve">
<style type="text/css">
	.st0{display:none;}
	.st1{display:inline;}
	.st2{fill:none;stroke:#000000;stroke-linejoin:round;stroke-miterlimit:10;}
</style>
<g id="Filled_Icons" class="st0">
	<g class="st1">
		<path d="M19.9,7.3C19.9,7.1,19.7,7,19.5,7h-8c-0.2,0-0.4,0.1-0.4,0.3L10.2,9h10.6L19.9,7.3z"/>
		<path d="M7.7,9C7.9,8.7,8,8.4,8,8c0-1.1-0.9-2-2-2H3C1.9,6,1,6.9,1,8c0,0.4,0.1,0.7,0.3,1H7.7z"/>
		<path d="M0.5,10C0.2,10.4,0,10.9,0,11.5C0,12.9,1.1,14,2.5,14h1.7l6.9,3.4l-6.7,3.3C4.1,20.3,3.6,20,3,20c-1.1,0-2,0.9-2,2
			s0.9,2,2,2s2-0.9,2-2h14c0,1.1,0.9,2,2,2c1.1,0,2-0.9,2-2s-0.9-2-2-2c-0.5,0-0.9,0.2-1.3,0.5l-6.3-3.1l6.9-3.4h1.2
			c1.4,0,2.5-1.1,2.5-2.5c0-0.6-0.2-1.1-0.5-1.5L0.5,10L0.5,10z M3,23c-0.6,0-1-0.4-1-1c0-0.6,0.4-1,1-1s1,0.4,1,1
			C4,22.6,3.6,23,3,23z M21,21c0.6,0,1,0.4,1,1c0,0.6-0.4,1-1,1s-1-0.4-1-1C20,21.5,20.4,21,21,21z M18.5,21H6l6.2-3.1L18.5,21z
			 M12.3,16.8L6.5,14h11.6L12.3,16.8z"/>
	</g>
</g>
<g id="Outline_Icons">
	<g>
		<path class="st2" d="M23.5,11.5c0,1.1-0.9,2-2,2h-19c-1.1,0-2-0.9-2-2c0-1.1,0.9-2,2-2h19C22.6,9.5,23.5,10.4,23.5,11.5z"/>
		<polygon class="st2" points="19.5,7.5 11.5,7.5 10.5,9.5 20.5,9.5 		"/>
		<circle class="st2" cx="3" cy="22" r="1.5"/>
		<circle class="st2" cx="21" cy="22" r="1.5"/>
		<line class="st2" x1="4.3" y1="21.3" x2="20.2" y2="13.5"/>
		<line class="st2" x1="19.8" y1="21.1" x2="4.3" y2="13.5"/>
		<path class="st2" d="M1.5,8c0-0.8,0.7-1.5,1.5-1.5h3c0.8,0,1.5,0.7,1.5,1.5c0,0.8-0.7,1.5-1.5,1.5H3C2.2,9.5,1.5,8.8,1.5,8z"/>
		<line class="st2" x1="4.5" y1="21.5" x2="19.6" y2="21.5"/>
	</g>
</g>
</svg>
