<?xml version="1.0" encoding="utf-8"?>
<!-- Generator: Adobe Illustrator 19.2.0, SVG Export Plug-In . SVG Version: 6.00 Build 0)  -->
<svg version="1.1" id="Layer_1" xmlns="http://www.w3.org/2000/svg" xmlns:xlink="http://www.w3.org/1999/xlink" x="0px" y="0px"
	 viewBox="0 0 24 24" style="enable-background:new 0 0 24 24;" xml:space="preserve">
<style type="text/css">
	.st0{display:none;}
	.st1{display:inline;}
	.st2{fill:none;stroke:#000000;stroke-linejoin:round;stroke-miterlimit:10;}
</style>
<g id="Filled_Icons" class="st0">
	<path class="st1" d="M18.4,19L18,16.3c-0.1-0.7-0.8-1.3-1.5-1.3H7.3l0.9-7.7C8.4,4.9,10.4,3,12.8,3h0.8c0.2,0.6,0.8,1,1.4,1h4
		c0.8,0,1.5-0.7,1.5-1.5S19.8,1,19,1h-4c-0.6,0-1.2,0.4-1.4,1h-0.8C9.8,2,7.4,4.3,7.3,7.2L5.7,20H4.5c-0.2,0-0.4,0.1-0.5,0.3l-1,3
		c-0.1,0.2,0,0.3,0.1,0.5C3.2,23.9,3.3,24,3.5,24h5c0.2,0,0.3-0.1,0.4-0.2C9,23.7,9,23.5,9,23.3l-1-3C7.9,20.1,7.7,20,7.5,20H6.7
		l0.5-4h9.3c0.3,0,0.5,0.2,0.5,0.5l0.4,2.6c-1.1,0.3-1.9,1.2-1.9,2.4c0,1.4,1.1,2.5,2.5,2.5c1.4,0,2.5-1.1,2.5-2.5
		C20.5,20.3,19.6,19.3,18.4,19z"/>
</g>
<g id="Outline_Icons">
	<g>
		<path class="st2" d="M14,2.5h-1.2c-2.7,0-4.9,2.1-5,4.8L6.2,20.5"/>
		<polygon class="st2" points="7.5,20.5 4.5,20.5 3.5,23.5 8.5,23.5 		"/>
		<path class="st2" d="M6.8,15.5h9.7h0c0.5,0,0.9,0.4,1,0.9l0.5,3.1"/>
		<circle class="st2" cx="18" cy="21.5" r="2"/>
		<path class="st2" d="M20,2.5c0-0.6-0.4-1-1-1h-4c-0.6,0-1,0.4-1,1s0.4,1,1,1h4C19.6,3.5,20,3.1,20,2.5z"/>
	</g>
</g>
</svg>
