<?xml version="1.0" encoding="utf-8"?>
<!-- Generator: Adobe Illustrator 19.2.0, SVG Export Plug-In . SVG Version: 6.00 Build 0)  -->
<svg version="1.1" id="Layer_1" xmlns="http://www.w3.org/2000/svg" xmlns:xlink="http://www.w3.org/1999/xlink" x="0px" y="0px"
	 viewBox="0 0 24 24" style="enable-background:new 0 0 24 24;" xml:space="preserve">
<style type="text/css">
	.st0{display:none;}
	.st1{display:inline;}
	.st2{fill:none;stroke:#000000;stroke-linejoin:round;stroke-miterlimit:10;}
</style>
<g id="Filled_Icons" class="st0">
	<path class="st1" d="M19.5,0h-15C3.1,0,2,1.1,2,2.5v19C2,22.9,3.1,24,4.5,24h15c1.4,0,2.5-1.1,2.5-2.5v-19C22,1.1,20.9,0,19.5,0z
		 M15,3h1v4h-1c-1.1,0-2-0.9-2-2C13,3.9,13.9,3,15,3z M15,10h1v4h-1c-1.1,0-2-0.9-2-2S13.9,10,15,10z M6,3h1v4H6C4.9,7,4,6.1,4,5
		C4,3.9,4.9,3,6,3z M6,10h1v4H6c-1.1,0-2-0.9-2-2S4.9,10,6,10z M6,21c-1.1,0-2-0.9-2-2s0.9-2,2-2h1v4H6z M9,21H8v-4h1
		c1.1,0,2,0.9,2,2C11,20.1,10.1,21,9,21z M9,14H8v-4h1c1.1,0,2,0.9,2,2C11,13.1,10.1,14,9,14z M9,7H8V3h1c1.1,0,2,0.9,2,2
		C11,6.1,10.1,7,9,7z M18,21h-3c-1.1,0-2-0.9-2-2s0.9-2,2-2h3c1.1,0,2,0.9,2,2C20,20.1,19.1,21,18,21z M18,14h-1v-4h1
		c1.1,0,2,0.9,2,2C20,13.1,19.1,14,18,14z M18,7h-1V3h1c1.1,0,2,0.9,2,2C20,6.1,19.1,7,18,7z"/>
</g>
<g id="Outline_Icons">
	<g>
		<path class="st2" d="M21.5,21.5c0,1.1-0.9,2-2,2h-15c-1.1,0-2-0.9-2-2v-19c0-1.1,0.9-2,2-2h15c1.1,0,2,0.9,2,2V21.5z"/>
		<path class="st2" d="M10.5,5c0,0.8-0.7,1.5-1.5,1.5H6C5.2,6.5,4.5,5.8,4.5,5S5.2,3.5,6,3.5h3C9.8,3.5,10.5,4.2,10.5,5z"/>
		<path class="st2" d="M19.5,5c0,0.8-0.7,1.5-1.5,1.5h-3c-0.8,0-1.5-0.7-1.5-1.5s0.7-1.5,1.5-1.5h3C18.8,3.5,19.5,4.2,19.5,5z"/>
		<line class="st2" x1="7.5" y1="6.5" x2="7.5" y2="3.5"/>
		<line class="st2" x1="16.5" y1="6.5" x2="16.5" y2="3.5"/>
		<path class="st2" d="M10.5,12c0,0.8-0.7,1.5-1.5,1.5H6c-0.8,0-1.5-0.7-1.5-1.5s0.7-1.5,1.5-1.5h3C9.8,10.5,10.5,11.2,10.5,12z"/>
		<path class="st2" d="M19.5,12c0,0.8-0.7,1.5-1.5,1.5h-3c-0.8,0-1.5-0.7-1.5-1.5s0.7-1.5,1.5-1.5h3C18.8,10.5,19.5,11.2,19.5,12z"
			/>
		<line class="st2" x1="7.5" y1="13.5" x2="7.5" y2="10.5"/>
		<line class="st2" x1="16.5" y1="13.5" x2="16.5" y2="10.5"/>
		<path class="st2" d="M10.5,19c0,0.8-0.7,1.5-1.5,1.5H6c-0.8,0-1.5-0.7-1.5-1.5s0.7-1.5,1.5-1.5h3C9.8,17.5,10.5,18.2,10.5,19z"/>
		<path class="st2" d="M19.5,19c0,0.8-0.7,1.5-1.5,1.5h-3c-0.8,0-1.5-0.7-1.5-1.5s0.7-1.5,1.5-1.5h3C18.8,17.5,19.5,18.2,19.5,19z"
			/>
		<line class="st2" x1="7.5" y1="20.5" x2="7.5" y2="17.5"/>
	</g>
</g>
</svg>
