<?xml version="1.0" encoding="utf-8"?>
<!-- Generator: Adobe Illustrator 19.2.0, SVG Export Plug-In . SVG Version: 6.00 Build 0)  -->
<svg version="1.1" id="Layer_1" xmlns="http://www.w3.org/2000/svg" xmlns:xlink="http://www.w3.org/1999/xlink" x="0px" y="0px"
	 viewBox="0 0 24 24" style="enable-background:new 0 0 24 24;" xml:space="preserve">
<style type="text/css">
	.st0{display:none;}
	.st1{display:inline;}
	.st2{fill:none;stroke:#000000;stroke-linecap:round;stroke-linejoin:round;stroke-miterlimit:10;}
</style>
<g id="Filled_Icons" class="st0">
	<g class="st1">
		<path d="M22,8V2.5c0-0.2-0.1-0.3-0.2-0.4C21.6,2,21.5,2,21.3,2l-0.9,0.4C17.2,3.9,14.2,5.3,9,5.8c0,0.3,0,9.1,0,9.4
			c5.2,0.5,8.2,1.9,11.4,3.3c0.2,0.1,1,0.5,1.1,0.5c0.1,0,0.2,0,0.3-0.1c0.1-0.1,0.2-0.2,0.2-0.4V13c1.1,0,2-0.9,2-2v-1
			C24,8.9,23.1,8,22,8z M23,11c0,0.6-0.4,1-1,1V9c0.6,0,1,0.4,1,1V11z"/>
		<path d="M3.5,6C1.6,6,0,7.6,0,9.5v2C0,13.4,1.6,15,3.5,15h1c0.5,0,1,0,1.5,0V6C5.5,6,5,6,4.5,6H3.5z"/>
		<path d="M11.7,21.1c-0.3-0.2-0.6-0.3-0.9-0.5c-1.7-1.2-2.7-3-2.8-5c0-0.1,0-0.3,0-0.4c0,0,0-0.1,0-0.1V5.5C8,5.2,7.8,5,7.5,5
			C7.2,5,7,5.2,7,5.5V15c0,1.2,0.3,2.4,0.8,3.5c0.1,0.2,0.2,0.4,0.3,0.6c0.3,0.4,0.6,0.9,1,1.3c0.6,0.6,1.3,1.2,2.2,1.6l0,0
			c0.2,0.1,0.4,0.1,0.5-0.1c0,0,0,0,0,0C12.1,21.6,12,21.2,11.7,21.1z"/>
	</g>
</g>
<g id="Outline_Icons">
	<g>
		<path class="st2" d="M7.5,6.5c0,19.7,0-12.6,0,8.5c0,2.7,1.5,5.2,4,6.5"/>
		<path class="st2" d="M23.5,11c0,0.8-0.7,1.5-1.5,1.5h-0.5v-4H22c0.8,0,1.5,0.7,1.5,1.5V11z"/>
		<path class="st2" d="M4.5,6.5h-1c-1.7,0-3,1.3-3,3v2c0,1.7,1.3,3,3,3h1c8.9,0,12.6,2,17,4v-16C17.1,4.5,13.4,6.5,4.5,6.5z"/>
	</g>
</g>
</svg>
