<?xml version="1.0" encoding="utf-8"?>
<!-- Generator: Adobe Illustrator 19.2.0, SVG Export Plug-In . SVG Version: 6.00 Build 0)  -->
<svg version="1.1" id="Layer_1" xmlns="http://www.w3.org/2000/svg" xmlns:xlink="http://www.w3.org/1999/xlink" x="0px" y="0px"
	 viewBox="0 0 24 24" style="enable-background:new 0 0 24 24;" xml:space="preserve">
<style type="text/css">
	.st0{display:none;}
	.st1{display:inline;}
	.st2{fill:none;stroke:#000000;stroke-linecap:round;stroke-linejoin:round;stroke-miterlimit:10;}
</style>
<g id="Filled_Icons" class="st0">
	<path class="st1" d="M23.5,2C23.2,2,23,2.2,23,2.5v0.6L1,9.8V9.5C1,9.2,0.8,9,0.5,9C0.2,9,0,9.2,0,9.5v1v3v1C0,14.8,0.2,15,0.5,15
		C0.8,15,1,14.8,1,14.5v-0.3l4,1.2v2.2c0,2.2,1.8,4,4,4c2.1,0,3.9-1.7,4-3.8l10,3v0.6c0,0.3,0.2,0.5,0.5,0.5c0.3,0,0.5-0.2,0.5-0.5
		v-1v-17v-1C24,2.2,23.8,2,23.5,2z M12,17.6c0,1.7-1.3,3-3,3c-1.7,0-3-1.3-3-3v-1.9L12,17.6L12,17.6z"/>
</g>
<g id="Outline_Icons">
	<g>
		<line class="st2" x1="0.5" y1="9.5" x2="0.5" y2="14.5"/>
		<line class="st2" x1="23.5" y1="2.5" x2="23.5" y2="21.5"/>
		<polygon class="st2" points="23.5,20.5 0.5,13.5 0.5,10.5 23.5,3.5 		"/>
		<path class="st2" d="M12.5,17.6c0,1.9-1.6,3.5-3.5,3.5c-1.9,0-3.5-1.6-3.5-3.5V15"/>
	</g>
</g>
</svg>
