<?xml version="1.0" encoding="utf-8"?>
<!-- Generator: Adobe Illustrator 19.2.0, SVG Export Plug-In . SVG Version: 6.00 Build 0)  -->
<svg version="1.1" id="Layer_1" xmlns="http://www.w3.org/2000/svg" xmlns:xlink="http://www.w3.org/1999/xlink" x="0px" y="0px"
	 viewBox="0 0 24 24" style="enable-background:new 0 0 24 24;" xml:space="preserve">
<style type="text/css">
	.st0{display:none;}
	.st1{display:inline;}
	.st2{fill:none;stroke:#000000;stroke-linecap:round;stroke-linejoin:round;stroke-miterlimit:10;}
</style>
<g id="Filled_Icons" class="st0">
	<g class="st1">
		<g>
			<g>
				<path d="M4,4.5H2C1.7,4.5,1.5,4.3,1.5,4S1.7,3.5,2,3.5h2c0.3,0,0.5,0.2,0.5,0.5S4.3,4.5,4,4.5z"/>
			</g>
		</g>
		<g>
			<g>
				<path d="M4,8.5H2C1.7,8.5,1.5,8.3,1.5,8c0-0.3,0.2-0.5,0.5-0.5h2c0.3,0,0.5,0.2,0.5,0.5C4.5,8.3,4.3,8.5,4,8.5z"/>
			</g>
		</g>
		<g>
			<g>
				<path d="M4,12.5H2c-0.3,0-0.5-0.2-0.5-0.5c0-0.3,0.2-0.5,0.5-0.5h2c0.3,0,0.5,0.2,0.5,0.5C4.5,12.3,4.3,12.5,4,12.5z"/>
			</g>
		</g>
		<g>
			<g>
				<path d="M4,16.5H2c-0.3,0-0.5-0.2-0.5-0.5c0-0.3,0.2-0.5,0.5-0.5h2c0.3,0,0.5,0.2,0.5,0.5C4.5,16.3,4.3,16.5,4,16.5z"/>
			</g>
		</g>
		<g>
			<g>
				<path d="M4,20.5H2c-0.3,0-0.5-0.2-0.5-0.5c0-0.3,0.2-0.5,0.5-0.5h2c0.3,0,0.5,0.2,0.5,0.5C4.5,20.3,4.3,20.5,4,20.5z"/>
			</g>
		</g>
		<path d="M19.5,0h-14C4.1,0,3,1.1,3,2.5h1c0.8,0,1.5,0.7,1.5,1.5c0,0.8-0.7,1.5-1.5,1.5H3v1h1c0.8,0,1.5,0.7,1.5,1.5
			c0,0.8-0.7,1.5-1.5,1.5H3v1h1c0.8,0,1.5,0.7,1.5,1.5c0,0.8-0.7,1.5-1.5,1.5H3v1h1c0.8,0,1.5,0.7,1.5,1.5c0,0.8-0.7,1.5-1.5,1.5H3
			v1h1c0.8,0,1.5,0.7,1.5,1.5c0,0.8-0.7,1.5-1.5,1.5H3v0C3,22.9,4.1,24,5.5,24h14c1.4,0,2.5-1.1,2.5-2.5v-19C22,1.1,20.9,0,19.5,0z
			 M19.5,9.2l-0.9,0.9c-0.5,0.5-1.1,0.7-1.7,0.7c-0.5,0-0.9-0.1-1.3-0.4l-1,1l4,4c0.2,0.2,0.2,0.5,0,0.7c-0.1,0.1-0.2,0.1-0.4,0.1
			s-0.3,0-0.4-0.1l-4-4l-4,4c-0.1,0.1-0.2,0.1-0.4,0.1s-0.3,0-0.4-0.1c-0.2-0.2-0.2-0.5,0-0.7l4-4l-1-1c-0.4,0.3-0.9,0.4-1.3,0.4
			c-0.7,0-1.3-0.3-1.7-0.7L6.6,7.9c-0.2-0.2-0.2-0.5,0-0.7C6.8,7,7.2,7,7.4,7.2l2.3,2.3c0.4,0.4,1.1,0.5,1.6,0.3L8,6.5
			C7.8,6.3,7.8,6,8,5.8c0.2-0.2,0.5-0.2,0.7,0L12,9c0.2-0.5,0.2-1.2-0.3-1.6L9.4,5.1c-0.2-0.2-0.2-0.5,0-0.7c0.2-0.2,0.5-0.2,0.7,0
			l2.3,2.3c0.8,0.8,0.9,2.1,0.3,3.1l1,1l1-1c-0.3-0.4-0.4-0.9-0.4-1.3c0-0.7,0.3-1.3,0.7-1.7L16,5.8c0.9-0.9,2.5-0.9,3.5,0
			C20.4,6.7,20.4,8.3,19.5,9.2z"/>
	</g>
</g>
<g id="Outline_Icons">
	<g>
		<path class="st2" d="M21.5,21.5c0,1.1-0.9,2-2,2h-14c-1.1,0-2-0.9-2-2v-19c0-1.1,0.9-2,2-2h14c1.1,0,2,0.9,2,2V21.5z"/>
		<line class="st2" x1="2.5" y1="4.5" x2="4.5" y2="4.5"/>
		<line class="st2" x1="2.5" y1="7.5" x2="4.5" y2="7.5"/>
		<line class="st2" x1="2.5" y1="10.5" x2="4.5" y2="10.5"/>
		<line class="st2" x1="2.5" y1="13.5" x2="4.5" y2="13.5"/>
		<line class="st2" x1="2.5" y1="16.5" x2="4.5" y2="16.5"/>
		<line class="st2" x1="2.5" y1="19.5" x2="4.5" y2="19.5"/>
		<path class="st2" d="M6.5,7.4l2.3,2.3c0.8,0.8,2,0.8,2.8,0c0.8-0.8,0.8-2,0-2.8L9.2,4.7"/>
		<line class="st2" x1="7.9" y1="6.1" x2="17.5" y2="15.7"/>
		<line class="st2" x1="14.9" y1="9.7" x2="8.9" y2="15.8"/>
		<path class="st2" d="M15.8,6.1c0.8-0.8,2-0.8,2.8,0c0.8,0.8,0.8,2,0,2.8l-0.9,0.9c-0.8,0.8-2,0.8-2.8,0c-0.8-0.8-0.8-2,0-2.8
			L15.8,6.1z"/>
	</g>
</g>
</svg>
