<?xml version="1.0" encoding="utf-8"?>
<!-- Generator: Adobe Illustrator 19.2.0, SVG Export Plug-In . SVG Version: 6.00 Build 0)  -->
<svg version="1.1" id="Layer_1" xmlns="http://www.w3.org/2000/svg" xmlns:xlink="http://www.w3.org/1999/xlink" x="0px" y="0px"
	 viewBox="0 0 24 24" style="enable-background:new 0 0 24 24;" xml:space="preserve">
<style type="text/css">
	.st0{display:none;}
	.st1{display:inline;}
	.st2{fill:none;stroke:#000000;stroke-linecap:round;stroke-linejoin:round;stroke-miterlimit:10;}
</style>
<g id="Filled_Icons" class="st0">
	<g class="st1">
		<path d="M19.5,16h-14c-1.2,0-2.2,0.9-2.4,2H7c0.3,0,0.5,0.2,0.5,0.5S7.3,19,7,19H3.1c0.2,1.1,1.2,2,2.4,2h10c2.5,0,4.5-2,4.5-4.5
			C20,16.2,19.8,16,19.5,16z"/>
		<path d="M5.5,15H9v-1.5C9,13.2,8.8,13,8.5,13c-1.5,0-2.9,0.8-3.7,2.1C5.1,15,5.3,15,5.5,15z"/>
		<g>
			<path d="M14,12.6c-0.6,0.3-1.3,0.4-2,0.4s-1.4-0.2-2-0.4V15h4V12.6z"/>
			<path d="M10,22v1.5c0,0.3,0.2,0.5,0.5,0.5h3c0.3,0,0.5-0.2,0.5-0.5V22H10z"/>
		</g>
		<polygon points="15.1,7 12,1.5 8.9,7 		"/>
		<path d="M16,8c0,2.2,1.8,4,4,4s4-1.8,4-4H16z"/>
		<path d="M4,12c2.2,0,4-1.8,4-4H0C0,10.2,1.8,12,4,12z"/>
		<path d="M12,12c2.2,0,4-1.8,4-4H8C8,10.2,9.8,12,12,12z"/>
		<path d="M11.6,0.2L0.4,7h7.4L11.6,0.2C11.6,0.3,11.6,0.3,11.6,0.2C11.6,0.2,11.6,0.2,11.6,0.2z"/>
		<path d="M12.4,0.2C12.4,0.2,12.4,0.2,12.4,0.2C12.4,0.3,12.4,0.3,12.4,0.2L16.3,7h7.3L12.4,0.2z"/>
	</g>
</g>
<g id="Outline_Icons">
	<g>
		<polygon class="st2" points="23.5,7.5 0.5,7.5 12,0.5 		"/>
		<line class="st2" x1="12" y1="0.5" x2="8" y2="7.5"/>
		<line class="st2" x1="12" y1="0.5" x2="16" y2="7.5"/>
		<path class="st2" d="M7.5,7.5h-7V8c0,1.9,1.6,3.5,3.5,3.5c1.9,0,3.5-1.6,3.5-3.5V7.5z"/>
		<path class="st2" d="M15.5,7.5h-7V8c0,1.9,1.6,3.5,3.5,3.5s3.5-1.6,3.5-3.5V7.5z"/>
		<path class="st2" d="M23.5,7.5h-7V8c0,1.9,1.6,3.5,3.5,3.5s3.5-1.6,3.5-3.5V7.5z"/>
		<rect x="10.5" y="11.5" class="st2" width="3" height="5"/>
		<rect x="10.5" y="20.5" class="st2" width="3" height="3"/>
		<path class="st2" d="M4.6,16.7L5,15.8c0.6-1.4,2-2.3,3.5-2.3v3h-3C5,16.5,4.6,16.7,4.6,16.7z"/>
		<line class="st2" x1="3.5" y1="18.5" x2="7" y2="18.5"/>
		<path class="st2" d="M3.5,18.5c0-1.1,0.9-2,2-2h14c0,2.2-1.8,4-4,4h-10C4.4,20.5,3.5,19.6,3.5,18.5z"/>
	</g>
</g>
</svg>
