<?xml version="1.0" encoding="utf-8"?>
<!-- Generator: Adobe Illustrator 19.2.0, SVG Export Plug-In . SVG Version: 6.00 Build 0)  -->
<svg version="1.1" id="Layer_1" xmlns="http://www.w3.org/2000/svg" xmlns:xlink="http://www.w3.org/1999/xlink" x="0px" y="0px"
	 viewBox="0 0 24 24" style="enable-background:new 0 0 24 24;" xml:space="preserve">
<style type="text/css">
	.st0{display:none;}
	.st1{display:inline;}
	.st2{fill:none;stroke:#000000;stroke-linecap:round;stroke-linejoin:round;stroke-miterlimit:10;}
</style>
<g id="Filled_Icons" class="st0">
	<g class="st1">
		<g>
			<path d="M15.9,12.1c0.2,0,0.5,0,0.4-0.2c-0.1-0.3-0.5-0.7-1.1-1c-0.4-0.2-0.8-0.3-1.1-0.3c-0.3,0-0.4,0.1-0.4,0.1
				c-0.1,0.1,0.3,0.7,1.1,1.1C15.1,12,15.5,12.1,15.9,12.1z"/>
			<path d="M20,4.3L21.1,2c0.1-0.1,0.1-0.3,0-0.4c0-0.1-0.1-0.2-0.3-0.3l-2.7-1.3C18,0,17.8,0,17.7,0c-0.1,0-0.2,0.1-0.3,0.3
				l-1.1,2.3L20,4.3z"/>
			<path d="M8.6,15.9c0.9,0,1.5-0.4,1.9-0.8l2.2-4.8c0.4-0.8,1.7-0.9,2.9-0.3c0.8,0.4,1.4,1,1.6,1.5c0.1,0.3,0.1,0.6,0,0.9l-1.6,3.4
				c0.1,0,0.1,0,0.2,0c1.5,0,2.3-1.3,2.3-1.3c0.3-0.4,0.8-0.7,1.3-0.7c0.1,0,0.1,0,0.2,0c0.2-1.5-0.4-2.8-0.9-3.8
				c-0.5-1-0.7-1.6-0.5-2.2l1.3-2.7l-3.6-1.7l-1.3,2.7c-0.2,0.5-1,0.7-1.9,1c-1.5,0.4-3.5,1.1-4.5,3.2c-0.2,0.4-0.6,1.1-1,2
				c-0.3,0.7-0.7,1.4-1.1,2.2C6.3,14.6,7.2,15.9,8.6,15.9z"/>
		</g>
		<path d="M0.8,19.9c1.2,0.3,2.6-1,3-1.5c0.6-0.8,1.9-0.7,2.5,0.1c0,0,0.9,1.4,2.3,1.4c1.5,0,2.3-1.3,2.3-1.3
			c0.3-0.5,0.8-0.8,1.3-0.8c0.5,0,1,0.3,1.3,0.7c0,0,0.9,1.4,2.3,1.4c1.5,0,2.3-1.3,2.3-1.3c0.3-0.4,0.8-0.7,1.3-0.7
			c0.5,0,1,0.3,1.3,0.7c0,0,1.1,1.6,2.5,1.3c0.3-0.1,0.5,0,0.8,0.1v-2.6c0-0.1-0.1-0.3-0.2-0.4c-0.1-0.1-0.3-0.1-0.4-0.1
			c-0.2,0-0.4,0.1-0.6,0.1c-1.8,0-2.9-1.8-3-1.8c-0.2-0.3-0.7-0.3-0.9,0c0,0.1-1.1,1.8-3.2,1.8c-2,0-3.2-1.8-3.2-1.8
			c-0.2-0.3-0.7-0.3-0.9,0c0,0-1.1,1.8-3.2,1.8c-2,0-3.2-1.8-3.2-1.8c-0.2-0.3-0.6-0.3-0.8,0c0,0-1.5,1.9-3.4,1.9
			c-0.2,0-0.4,0-0.6-0.1c-0.2,0-0.3,0-0.4,0.1S0,17.2,0,17.4L0,20C0.3,19.9,0.5,19.8,0.8,19.9z"/>
		<path d="M23.8,20.9c-0.1-0.1-0.3-0.1-0.4-0.1c-0.2,0-0.4,0.1-0.6,0.1c-1.8,0-2.9-1.8-3-1.8c-0.2-0.3-0.7-0.3-0.9,0
			c0,0.1-1.1,1.8-3.2,1.8c-2,0-3.2-1.8-3.2-1.8c-0.2-0.3-0.7-0.3-0.9,0c0,0-1.1,1.8-3.2,1.8c-2,0-3.2-1.8-3.2-1.8
			c-0.2-0.3-0.6-0.3-0.8,0c0,0-1.5,1.9-3.4,1.9c-0.2,0-0.4,0-0.6-0.1c-0.2,0-0.3,0-0.4,0.1S0,21.2,0,21.4l0,2.1
			c0,0.1,0.1,0.3,0.1,0.4C0.2,24,0.4,24,0.5,24h23c0.3,0,0.5-0.2,0.5-0.5v-2.2C24,21.2,23.9,21,23.8,20.9z"/>
	</g>
</g>
<g id="Outline_Icons">
	<g>
		<g>
			<path class="st2" d="M5.9,16.4c0.9-1.9,2.4-4.9,2.8-5.8c1.6-3.3,5.6-2.6,6.4-4.2c0.6-1.4,2.8-5.9,2.8-5.9"/>
			<path class="st2" d="M20.6,1.8c0,0-2.1,4.5-2.8,5.9c-0.9,1.9,2.5,4.1,0.9,7.6L18,16.8"/>
			<rect x="17.1" y="1" transform="matrix(0.4249 -0.9052 0.9052 0.4249 8.441 18.2776)" class="st2" width="3" height="3"/>
		</g>
		<ellipse transform="matrix(0.4247 -0.9053 0.9053 0.4247 -1.6912 20.0676)" class="st2" cx="14.9" cy="11.4" rx="1" ry="2"/>
		<line class="st2" x1="10.1" y1="17.1" x2="13.1" y2="10.5"/>
		<line class="st2" x1="16.8" y1="12.2" x2="14.5" y2="17.1"/>
		<path class="st2" d="M23.5,21.3c-2.5,0.5-4.1-2-4.1-2h0c0,0-1.2,2.1-3.6,2.1c-2.3,0-3.6-2.1-3.6-2.1h0c0,0-1.2,2.1-3.6,2.1
			c-2.3,0-3.6-2.1-3.6-2.1h0c0,0-2,2.5-4.5,2"/>
		<path class="st2" d="M23.5,17.3c-2.5,0.5-4.1-2-4.1-2h0c0,0-1.2,2.1-3.6,2.1c-2.3,0-3.6-2.1-3.6-2.1h0c0,0-1.2,2.1-3.6,2.1
			c-2.3,0-3.6-2.1-3.6-2.1h0c0,0-2,2.5-4.5,2"/>
	</g>
</g>
</svg>
