<?xml version="1.0" encoding="utf-8"?>
<!-- Generator: Adobe Illustrator 19.2.0, SVG Export Plug-In . SVG Version: 6.00 Build 0)  -->
<svg version="1.1" id="Layer_1" xmlns="http://www.w3.org/2000/svg" xmlns:xlink="http://www.w3.org/1999/xlink" x="0px" y="0px"
	 viewBox="0 0 24 24" style="enable-background:new 0 0 24 24;" xml:space="preserve">
<style type="text/css">
	.st0{display:none;}
	.st1{display:inline;}
	.st2{fill:none;stroke:#000000;stroke-linejoin:round;stroke-miterlimit:10;}
	.st3{fill:none;stroke:#000000;stroke-linecap:round;stroke-linejoin:round;stroke-miterlimit:10;}
</style>
<g id="Filled_Icons" class="st0">
	<g class="st1">
		<g>
			<path d="M12,12.5c1.4,0,2.5-1.1,2.5-2.5S13.4,7.5,12,7.5S9.5,8.6,9.5,10S10.6,12.5,12,12.5z"/>
			<path d="M15.5,13h-7C8.2,13,8,13.2,8,13.5c0,4,1,5,2,5.9v4.1c0,0.3,0.2,0.5,0.5,0.5h3c0.3,0,0.5-0.2,0.5-0.5v-4.1
				c1.1-0.9,2-1.9,2-5.9C16,13.2,15.8,13,15.5,13z"/>
		</g>
		<path d="M16.5,2.5h-9C6.1,2.5,5,3.6,5,5v0.5V24h1V6h12v18h1V5.5V5C19,3.6,17.9,2.5,16.5,2.5z"/>
		<g>
			<path d="M23.5,16h-3c-0.3,0-0.5-0.2-0.5-0.5s0.2-0.5,0.5-0.5h3c0.3,0,0.5,0.2,0.5,0.5S23.8,16,23.5,16z"/>
		</g>
		<g>
			<path d="M20.5,12.3c-0.2,0-0.4-0.1-0.5-0.3c-0.1-0.3,0-0.5,0.3-0.7l2.6-1.2c0.3-0.1,0.5,0,0.7,0.3c0.1,0.3,0,0.5-0.3,0.7
				l-2.6,1.2C20.6,12.3,20.6,12.3,20.5,12.3z"/>
		</g>
		<g>
			<path d="M23.1,20.8c-0.1,0-0.1,0-0.2,0l-2.6-1.2c-0.3-0.1-0.4-0.4-0.3-0.7c0.1-0.2,0.4-0.4,0.7-0.2l2.6,1.2
				c0.2,0.1,0.4,0.4,0.2,0.7C23.5,20.7,23.3,20.8,23.1,20.8z"/>
		</g>
		<g>
			<path d="M3.5,16h-3C0.2,16,0,15.8,0,15.5S0.2,15,0.5,15h3C3.8,15,4,15.2,4,15.5S3.8,16,3.5,16z"/>
		</g>
		<g>
			<path d="M3.5,12.3c-0.1,0-0.1,0-0.2,0l-2.6-1.2c-0.3-0.1-0.4-0.4-0.3-0.7s0.4-0.4,0.7-0.3l2.6,1.2C4,11.5,4.1,11.8,4,12
				S3.7,12.3,3.5,12.3z"/>
		</g>
		<g>
			<path d="M0.9,20.8c-0.2,0-0.4-0.1-0.5-0.3c-0.1-0.3,0-0.5,0.3-0.7l2.6-1.2c0.3-0.1,0.5,0,0.7,0.3c0.1,0.2,0,0.5-0.3,0.7l-2.6,1.2
				C1,20.8,0.9,20.8,0.9,20.8z"/>
		</g>
		<g>
			<path d="M13.5,0h-3C10.2,0,10,0.2,10,0.5v1h4v-1C14,0.2,13.8,0,13.5,0z"/>
		</g>
	</g>
</g>
<g id="Outline_Icons">
	<g>
		<path class="st2" d="M18.5,5.5h-13v-1c0-1.1,0.9-2,2-2h9c1.1,0,2,0.9,2,2V5.5z"/>
		<circle class="st2" cx="12" cy="10" r="2"/>
		<path class="st2" d="M15.5,13.5h-7c0,4,1,4.8,2,5.6v4.4h3v-4.4C14.6,18.3,15.5,17.5,15.5,13.5z"/>
		<line class="st2" x1="18.5" y1="5" x2="18.5" y2="24"/>
		<line class="st2" x1="5.5" y1="5" x2="5.5" y2="24"/>
		<line class="st3" x1="20.5" y1="15.5" x2="23.5" y2="15.5"/>
		<line class="st3" x1="20.5" y1="11.8" x2="23.1" y2="10.6"/>
		<line class="st3" x1="20.5" y1="19.1" x2="23.1" y2="20.3"/>
		<line class="st3" x1="3.5" y1="15.5" x2="0.5" y2="15.5"/>
		<line class="st3" x1="3.5" y1="11.8" x2="0.9" y2="10.6"/>
		<line class="st3" x1="3.5" y1="19.1" x2="0.9" y2="20.3"/>
		<rect x="10.5" y="0.5" class="st2" width="3" height="2"/>
	</g>
</g>
</svg>
