<?xml version="1.0" encoding="utf-8"?>
<!-- Generator: Adobe Illustrator 19.2.0, SVG Export Plug-In . SVG Version: 6.00 Build 0)  -->
<svg version="1.1" id="Layer_1" xmlns="http://www.w3.org/2000/svg" xmlns:xlink="http://www.w3.org/1999/xlink" x="0px" y="0px"
	 viewBox="0 0 24 24" style="enable-background:new 0 0 24 24;" xml:space="preserve">
<style type="text/css">
	.st0{display:none;}
	.st1{display:inline;}
	.st2{fill:none;stroke:#000000;stroke-linejoin:round;stroke-miterlimit:10;}
</style>
<g id="Filled_Icons" class="st0">
	<g class="st1">
		<path d="M4,17h8c0.3,0,0.5-0.2,0.5-0.5S12.3,16,12,16H9.4c0.9-0.7,1.6-2,1.6-3.5c0-0.3-0.2-0.5-0.5-0.5h-5C5.2,12,5,12.2,5,12.5
			C5,14,5.6,15.3,6.6,16H4c-0.3,0-0.5,0.2-0.5,0.5S3.7,17,4,17z"/>
		<path d="M0,7.5v12c0,1.2,0.9,2.2,2,2.4V24h1v-2h13V5H2.5C1.1,5,0,6.1,0,7.5z M12,7c1.4,0,2.5,1.1,2.5,2.5v8c0,1.4-1.1,2.5-2.5,2.5
			H4c-1.4,0-2.5-1.1-2.5-2.5v-8C1.5,8.1,2.6,7,4,7C4,7,12,7,12,7z"/>
		<path d="M21.5,5H17v17h4v2h1V22c1.1-0.2,2-1.2,2-2.4v-12C24,6.1,22.9,5,21.5,5z M22.5,19.5c0,0.3-0.2,0.5-0.5,0.5h-3
			c-0.3,0-0.5-0.2-0.5-0.5v-2c0-0.3,0.2-0.5,0.5-0.5h3c0.3,0,0.5,0.2,0.5,0.5V19.5z M22.5,15.5c0,0.3-0.2,0.5-0.5,0.5h-3
			c-0.3,0-0.5-0.2-0.5-0.5v-8C18.5,7.2,18.7,7,19,7h3c0.3,0,0.5,0.2,0.5,0.5V15.5z"/>
	</g>
</g>
<g id="Outline_Icons">
	<g>
		<path class="st2" d="M23.5,19.5c0,1.1-0.9,2-2,2h-19c-1.1,0-2-0.9-2-2v-12c0-1.1,0.9-2,2-2h19c1.1,0,2,0.9,2,2V19.5z"/>
		<line class="st2" x1="2.5" y1="24" x2="2.5" y2="21.5"/>
		<line class="st2" x1="21.5" y1="24" x2="21.5" y2="21.5"/>
		<path class="st2" d="M14.5,17.5c0,1.1-0.9,2-2,2h-8c-1.1,0-2-0.9-2-2v-8c0-1.1,0.9-2,2-2h8c1.1,0,2,0.9,2,2V17.5z"/>
		<line class="st2" x1="16.5" y1="5.5" x2="16.5" y2="21.5"/>
		<rect x="18.5" y="17.5" class="st2" width="3" height="2"/>
		<line class="st2" x1="4" y1="16.5" x2="13" y2="16.5"/>
		<path class="st2" d="M11,12.5c0,2-1.1,3.5-2.5,3.5S6,14.5,6,12.5H11z"/>
		<rect x="18.5" y="7.5" class="st2" width="3" height="8"/>
	</g>
</g>
</svg>
