<?xml version="1.0" encoding="utf-8"?>
<!-- Generator: Adobe Illustrator 19.2.0, SVG Export Plug-In . SVG Version: 6.00 Build 0)  -->
<svg version="1.1" id="Layer_1" xmlns="http://www.w3.org/2000/svg" xmlns:xlink="http://www.w3.org/1999/xlink" x="0px" y="0px"
	 viewBox="0 0 24 24" style="enable-background:new 0 0 24 24;" xml:space="preserve">
<style type="text/css">
	.st0{display:none;}
	.st1{display:inline;}
	.st2{fill:none;stroke:#000000;stroke-linecap:round;stroke-linejoin:round;stroke-miterlimit:10;}
</style>
<g id="Filled_Icon" class="st0">
	<g class="st1">
		<circle cx="12.5" cy="13.5" r="1.5"/>
		<path d="M16.5,7H19V6h-2.5C16.2,6,16,5.8,16,5.5S16.2,5,16.5,5H19c-0.3-2.8-2.6-5-5.5-5h-3C7.7,0,5.3,2.2,5,5h6.5
			C11.8,5,12,5.2,12,5.5S11.8,6,11.5,6H5v1h6.5C11.8,7,12,7.2,12,7.5S11.8,8,11.5,8H5v1h6.5C11.8,9,12,9.2,12,9.5S11.8,10,11.5,10H5
			v2.5c0,3,2.5,5.5,5.5,5.5H12v1c-2.2,0.2-4,2.2-4,4.5C8,23.8,8.2,24,8.5,24h8l0,0c0.3,0,0.5-0.2,0.5-0.5v-0.1
			c-0.1-2.3-1.8-4.1-4-4.4v-1h0.5c3,0,5.5-2.5,5.5-5.5V10h-2.5C16.2,10,16,9.8,16,9.5S16.2,9,16.5,9H19V8h-2.5C16.2,8,16,7.8,16,7.5
			S16.2,7,16.5,7z M12.5,16c-1.4,0-2.5-1.1-2.5-2.5s1.1-2.5,2.5-2.5s2.5,1.1,2.5,2.5S13.9,16,12.5,16z"/>
	</g>
</g>
<g id="Outline_Icons">
	<g>
		<path class="st2" d="M18.5,12.5c0,2.8-2.2,5-5,5h-3c-2.8,0-5-2.2-5-5v-7c0-2.8,2.2-5,5-5h3c2.8,0,5,2.2,5,5V12.5z"/>
		<line class="st2" x1="12.5" y1="19.5" x2="12.5" y2="15.5"/>
		<circle class="st2" cx="12.5" cy="13.5" r="2"/>
		<line class="st2" x1="5.5" y1="9.5" x2="11.5" y2="9.5"/>
		<line class="st2" x1="5.5" y1="7.5" x2="11.5" y2="7.5"/>
		<line class="st2" x1="5.5" y1="5.5" x2="11.5" y2="5.5"/>
		<line class="st2" x1="16.5" y1="9.5" x2="18.5" y2="9.5"/>
		<line class="st2" x1="16.5" y1="7.5" x2="18.5" y2="7.5"/>
		<line class="st2" x1="16.5" y1="5.5" x2="18.5" y2="5.5"/>
		<path class="st2" d="M16.5,23.5h-8c0-2.2,1.8-4,4-4S16.5,21.3,16.5,23.5z"/>
	</g>
</g>
</svg>
