<?xml version="1.0" encoding="utf-8"?>
<!-- Generator: Adobe Illustrator 19.2.0, SVG Export Plug-In . SVG Version: 6.00 Build 0)  -->
<svg version="1.1" id="Layer_1" xmlns="http://www.w3.org/2000/svg" xmlns:xlink="http://www.w3.org/1999/xlink" x="0px" y="0px"
	 viewBox="0 0 24 24" style="enable-background:new 0 0 24 24;" xml:space="preserve">
<style type="text/css">
	.st0{display:none;}
	.st1{display:inline;}
	.st2{fill:none;stroke:#000000;stroke-linejoin:round;stroke-miterlimit:10;}
	.st3{fill:none;stroke:#000000;stroke-linecap:round;stroke-linejoin:round;stroke-miterlimit:10;}
</style>
<g id="Filled_Icon" class="st0">
	<g class="st1">
		<path d="M12.5,19c3.4,0,6.2-2.6,6.5-6H6C6.3,16.4,9.1,19,12.5,19z"/>
		<path d="M19,11h-4.5c-0.3,0-0.5-0.2-0.5-0.5s0.2-0.5,0.5-0.5H19V9h-4.5C14.2,9,14,8.8,14,8.5S14.2,8,14.5,8H19V7h-4.5
			C14.2,7,14,6.8,14,6.5S14.2,6,14.5,6H19c-0.2-2.5-1.8-4.6-4-5.5v3C15,3.8,14.8,4,14.5,4S14,3.8,14,3.5V0.2c-0.3-0.1-0.7-0.1-1-0.2
			v3.5C13,3.8,12.8,4,12.5,4S12,3.8,12,3.5V0c-0.3,0-0.7,0.1-1,0.2v3.3C11,3.8,10.8,4,10.5,4S10,3.8,10,3.5v-3C7.8,1.4,6.2,3.5,6,6
			h4.5C10.8,6,11,6.2,11,6.5S10.8,7,10.5,7H6v1h4.5C10.8,8,11,8.2,11,8.5S10.8,9,10.5,9H6v1h4.5c0.3,0,0.5,0.2,0.5,0.5
			S10.8,11,10.5,11H6v1h13V11z"/>
		<path d="M5,10.5C5,10.2,4.8,10,4.5,10S4,10.2,4,10.5V12h1V10.5z"/>
		<path d="M20.5,10c-0.3,0-0.5,0.2-0.5,0.5V12h1v-1.5C21,10.2,20.8,10,20.5,10z"/>
		<path d="M12.5,20c-4,0-7.2-3-7.5-7H4c0.2,4.4,3.6,7.7,8,8v3h1v-3c4.4-0.2,7.7-3.6,8-8h-1C19.7,17,16.5,20,12.5,20z"/>
	</g>
</g>
<g id="Outline_Icons">
	<g>
		<path class="st2" d="M18.5,12.5c0,3.3-2.7,6-6,6s-6-2.7-6-6v-6c0-3.3,2.7-6,6-6s6,2.7,6,6V12.5z"/>
		<path class="st3" d="M4.5,10.5v2c0,4.5,3.5,8,8,8s8-3.5,8-8v-2"/>
		<line class="st3" x1="12.5" y1="20.5" x2="12.5" y2="23.5"/>
		<line class="st3" x1="12.5" y1="0.5" x2="12.5" y2="3.5"/>
		<line class="st3" x1="14.5" y1="0.8" x2="14.5" y2="3.5"/>
		<line class="st3" x1="10.5" y1="0.8" x2="10.5" y2="3.5"/>
		<line class="st2" x1="4.5" y1="12.5" x2="20.5" y2="12.5"/>
		<line class="st3" x1="6.5" y1="6.5" x2="10.5" y2="6.5"/>
		<line class="st3" x1="6.5" y1="8.5" x2="10.5" y2="8.5"/>
		<line class="st3" x1="18.5" y1="6.5" x2="14.5" y2="6.5"/>
		<line class="st3" x1="18.5" y1="8.5" x2="14.5" y2="8.5"/>
		<line class="st3" x1="6.5" y1="10.5" x2="10.5" y2="10.5"/>
		<line class="st3" x1="18.5" y1="10.5" x2="14.5" y2="10.5"/>
	</g>
</g>
</svg>
