<?xml version="1.0" encoding="utf-8"?>
<!-- Generator: Adobe Illustrator 19.2.0, SVG Export Plug-In . SVG Version: 6.00 Build 0)  -->
<svg version="1.1" id="Layer_1" xmlns="http://www.w3.org/2000/svg" xmlns:xlink="http://www.w3.org/1999/xlink" x="0px" y="0px"
	 viewBox="0 0 24 24" style="enable-background:new 0 0 24 24;" xml:space="preserve">
<style type="text/css">
	.st0{display:none;}
	.st1{display:inline;}
	.st2{fill:none;stroke:#000000;stroke-linecap:round;stroke-linejoin:round;stroke-miterlimit:10;}
</style>
<g id="Filled_Icon" class="st0">
	<g class="st1">
		<path d="M4.5,24h-1c-0.6,0-1-0.4-1-1s0.4-1,1-1h1c0.6,0,1,0.4,1,1S5.1,24,4.5,24z"/>
	</g>
	<g class="st1">
		<path d="M10.2,24h-1c-0.6,0-1-0.4-1-1s0.4-1,1-1h1c0.6,0,1,0.4,1,1S10.7,24,10.2,24z"/>
	</g>
	<g class="st1">
		<path d="M15.8,24h-1c-0.6,0-1-0.4-1-1s0.4-1,1-1h1c0.6,0,1,0.4,1,1S16.4,24,15.8,24z"/>
	</g>
	<g class="st1">
		<path d="M21.5,24h-1c-0.6,0-1-0.4-1-1s0.4-1,1-1h1c0.6,0,1,0.4,1,1S22.1,24,21.5,24z"/>
	</g>
	<g class="st1">
		<path d="M19.5,8.5C19.2,8.5,19,8.7,19,9v1.5c0,0.5-0.1,1-0.2,1.5h1c0.1-0.5,0.2-1,0.2-1.5V9C20,8.7,19.8,8.5,19.5,8.5z"/>
		<path d="M6,10.5V9c0-0.3-0.2-0.5-0.5-0.5S5,8.7,5,9v1.5c0,0.5,0.1,1,0.2,1.5h1C6.1,11.5,6,11,6,10.5z"/>
		<path d="M12.5,17c-2.7,0-5-1.7-6-4H5.4c1,2.8,3.5,4.8,6.6,5v3c0,0.3,0.2,0.5,0.5,0.5S13,21.3,13,21v-3c3-0.2,5.6-2.2,6.6-5h-1.1
			C17.5,15.3,15.2,17,12.5,17z"/>
	</g>
	<g class="st1">
		<path d="M17.8,12c0.1-0.5,0.2-1,0.2-1.5V9h-3.5C14.2,9,14,8.8,14,8.5S14.2,8,14.5,8H18V7h-3.5C14.2,7,14,6.8,14,6.5S14.2,6,14.5,6
			H18V5.5c0-2.5-1.7-4.6-4-5.3v3.3C14,3.8,13.8,4,13.5,4S13,3.8,13,3.5V0.1c-0.2,0-0.3,0-0.5,0s-0.3,0-0.5,0v3.5
			C12,3.8,11.8,4,11.5,4S11,3.8,11,3.5V0.2C8.7,0.9,7,3,7,5.5V6h3.5C10.8,6,11,6.2,11,6.5S10.8,7,10.5,7H7v1h3.5
			C10.8,8,11,8.2,11,8.5S10.8,9,10.5,9H7v1.5c0,0.5,0.1,1,0.2,1.5H17.8z"/>
		<path d="M7.6,13c0.9,1.8,2.8,3,4.9,3s4-1.2,4.9-3H7.6z"/>
	</g>
</g>
<g id="Outline_Icons">
	<g>
		<line class="st2" x1="5.5" y1="23.5" x2="4.5" y2="23.5"/>
		<line class="st2" x1="8.5" y1="23.5" x2="7.5" y2="23.5"/>
		<line class="st2" x1="11.5" y1="23.5" x2="10.5" y2="23.5"/>
		<line class="st2" x1="14.5" y1="23.5" x2="13.5" y2="23.5"/>
		<line class="st2" x1="17.5" y1="23.5" x2="16.5" y2="23.5"/>
		<line class="st2" x1="20.5" y1="23.5" x2="19.5" y2="23.5"/>
		<path class="st2" d="M17.5,10.5c0,2.8-2.2,5-5,5s-5-2.2-5-5v-5c0-2.8,2.2-5,5-5s5,2.2,5,5V10.5z"/>
		<line class="st2" x1="12.5" y1="17.5" x2="12.5" y2="21"/>
		<line class="st2" x1="13.5" y1="0.7" x2="13.5" y2="3.5"/>
		<line class="st2" x1="11.5" y1="0.7" x2="11.5" y2="3.5"/>
		<line class="st2" x1="5.8" y1="12.5" x2="19.2" y2="12.5"/>
		<line class="st2" x1="7.5" y1="6.5" x2="10.5" y2="6.5"/>
		<line class="st2" x1="7.5" y1="8.5" x2="10.5" y2="8.5"/>
		<line class="st2" x1="14.5" y1="6.5" x2="17.5" y2="6.5"/>
		<line class="st2" x1="14.5" y1="8.5" x2="17.5" y2="8.5"/>
		<path class="st2" d="M5.5,9v1.5c0,3.9,3.1,7,7,7s7-3.1,7-7V9"/>
	</g>
</g>
</svg>
