<?xml version="1.0" encoding="utf-8"?>
<!-- Generator: Adobe Illustrator 19.2.0, SVG Export Plug-In . SVG Version: 6.00 Build 0)  -->
<svg version="1.1" id="Layer_1" xmlns="http://www.w3.org/2000/svg" xmlns:xlink="http://www.w3.org/1999/xlink" x="0px" y="0px"
	 viewBox="0 0 24 24" style="enable-background:new 0 0 24 24;" xml:space="preserve">
<style type="text/css">
	.st0{display:none;}
	.st1{display:inline;}
	.st2{fill:none;stroke:#000000;stroke-linecap:round;stroke-linejoin:round;stroke-miterlimit:10;}
	.st3{fill:none;stroke:#000000;stroke-linejoin:round;stroke-miterlimit:10;}
</style>
<g id="Filled_Icon" class="st0">
	<g class="st1">
		<g>
			<path d="M18,15.9c0.7-1.1,1-2.2,1-3.4V10V6.5C19,2.9,16,0,12.5,0C9.9,0,7.4,1.6,6.4,4.3L18,15.9z"/>
			<path d="M6,8.1V10v2.5c0,3.6,2.9,6.5,6.5,6.5c1.1,0,2.3-0.3,3.4-1L6,8.1z"/>
		</g>
		<g>
			<path d="M19.5,17.4c1-1.5,1.5-3.2,1.5-4.9v-2c0-0.3-0.2-0.5-0.5-0.5S20,10.2,20,10.5v2c0,1.4-0.4,2.8-1.2,4.1L19.5,17.4z"/>
			<path d="M16.6,18.8c-1.3,0.9-2.8,1.2-4.1,1.2c-1.2,0-2.5-0.3-3.7-1C6.5,17.8,5,15.3,5,12.5v-2C5,10.2,4.8,10,4.5,10
				S4,10.2,4,10.5v2c0,4.6,3.5,8.2,8,8.5v3h1v-3c1.6-0.1,3.1-0.6,4.4-1.5L16.6,18.8z"/>
		</g>
		<g>
			<path d="M22.6,23.4l-22-22c-0.2-0.2-0.2-0.5,0-0.7s0.5-0.2,0.7,0l22,22c0.2,0.2,0.2,0.5,0,0.7C23.2,23.5,22.8,23.5,22.6,23.4z"/>
		</g>
	</g>
</g>
<g id="Outline_Icons">
	<g>
		<path class="st2" d="M14.4,18.2c-0.6,0.2-1.2,0.3-1.9,0.3c-3.3,0-6-2.7-6-6V10"/>
		<path class="st2" d="M7,4c0.9-2.1,3-3.5,5.5-3.5c3.3,0,6,2.7,6,6v6c0,0.9-0.2,1.7-0.5,2.5"/>
		<path class="st2" d="M19.5,16.5c0.7-1.2,1-2.5,1-4v-2"/>
		<path class="st2" d="M4.5,10.5v2c0,4.5,3.5,8,8,8c1.5,0,2.8-0.4,4-1"/>
		<line class="st3" x1="12.5" y1="20.5" x2="12.5" y2="24"/>
		<line class="st2" x1="1" y1="1" x2="23" y2="23"/>
	</g>
</g>
</svg>
