<?xml version="1.0" encoding="utf-8"?>
<!-- Generator: Adobe Illustrator 19.2.0, SVG Export Plug-In . SVG Version: 6.00 Build 0)  -->
<svg version="1.1" id="Layer_1" xmlns="http://www.w3.org/2000/svg" xmlns:xlink="http://www.w3.org/1999/xlink" x="0px" y="0px"
	 viewBox="0 0 24 24" style="enable-background:new 0 0 24 24;" xml:space="preserve">
<style type="text/css">
	.st0{display:none;}
	.st1{display:inline;}
	.st2{fill:none;stroke:#000000;stroke-linejoin:round;stroke-miterlimit:10;}
	.st3{fill:none;stroke:#000000;stroke-linecap:round;stroke-linejoin:round;stroke-miterlimit:10;}
</style>
<g id="Filled_Icons" class="st0">
	<g class="st1">
		<path d="M20.5,6.1c0.1-0.3-0.1-0.5-0.3-0.6c-0.3-0.1-0.5,0.1-0.6,0.3L18.3,10H5.7L4.5,5.9C4.4,5.6,4.1,5.4,3.9,5.5
			C3.6,5.6,3.4,5.9,3.5,6.1C3.6,6.5,5,11,5,11.3v10.2C5,22.9,6.1,24,7.5,24h9c1.4,0,2.5-1.1,2.5-2.5V11.3C19,11,20.4,6.5,20.5,6.1z"
			/>
		<polygon points="6.3,9 17.7,9 16.2,7.5 7.8,7.5 		"/>
		<rect x="8" y="5" width="8" height="1.5"/>
		<path d="M6.5,4h11C17.8,4,18,3.8,18,3.5C18,1.6,16.4,0,14.5,0h-5C7.6,0,6,1.6,6,3.5C6,3.8,6.2,4,6.5,4z"/>
	</g>
</g>
<g id="Outline_Icons">
	<g>
		<path class="st2" d="M18.5,21.5c0,1.1-0.9,2-2,2h-9c-1.1,0-2-0.9-2-2V11.3c0-0.5,0.2-1,0.6-1.4l2.4-2.4h7l2.4,2.4
			c0.4,0.4,0.6,0.9,0.6,1.4V21.5z"/>
		<rect x="8.5" y="4.5" class="st2" width="7" height="3"/>
		<line class="st2" x1="5.7" y1="10.5" x2="18.3" y2="10.5"/>
		<path class="st2" d="M6.5,4.5c0-1.7,1.3-3,3-3h5c1.7,0,3,1.3,3,3H6.5z"/>
		<line class="st3" x1="18.5" y1="11" x2="20" y2="6"/>
		<line class="st3" x1="5.5" y1="11" x2="4" y2="6"/>
	</g>
</g>
</svg>
