<?xml version="1.0" encoding="utf-8"?>
<!-- Generator: Adobe Illustrator 19.2.0, SVG Export Plug-In . SVG Version: 6.00 Build 0)  -->
<svg version="1.1" id="Layer_1" xmlns="http://www.w3.org/2000/svg" xmlns:xlink="http://www.w3.org/1999/xlink" x="0px" y="0px"
	 viewBox="0 0 24 24" style="enable-background:new 0 0 24 24;" xml:space="preserve">
<style type="text/css">
	.st0{display:none;}
	.st1{display:inline;}
	.st2{fill:none;stroke:#000000;stroke-linecap:round;stroke-linejoin:round;stroke-miterlimit:10;}
	.st3{fill:none;stroke:#000000;stroke-linejoin:round;stroke-miterlimit:10;}
</style>
<g id="Filled_Icons" class="st0">
	<g class="st1">
		<path d="M23.7,10l-4.3-4.3c0,0-4.6,4.3-4.6,4.3H23.7z"/>
		<path d="M19,3c0-1.7-1.6-3-3.5-3h-7C6.6,0,5,1.4,5,3v2h14V3z"/>
		<path d="M0,23.5C0,23.8,0.2,24,0.5,24H13V11H0V23.5z M2,13.5C2,13.2,2.2,13,2.5,13h8c0.3,0,0.5,0.2,0.5,0.5v4
			c0,0.3-0.2,0.5-0.5,0.5h-8C2.2,18,2,17.8,2,17.5V13.5z"/>
		<path d="M4.3,6l-4,4h13l4.4-4C17.7,6,4.4,6,4.3,6z"/>
		<path d="M14,11v13h9.5c0.3,0,0.5-0.2,0.5-0.5V11C24,11,14,11,14,11z"/>
	</g>
</g>
<g id="Outline_Icons">
	<g>
		<rect x="0.5" y="10.5" class="st2" width="13" height="13"/>
		<polygon class="st2" points="23.5,10.5 18.5,5.5 13.5,10.5 13.5,23.5 23.5,23.5 		"/>
		<polyline class="st2" points="0.5,10.5 5.5,5.5 18.5,5.5 		"/>
		<path class="st2" d="M18.5,5.5c0,0,0-1.1,0-2.5s-1.4-2.5-3-2.5h-7c-1.6,0-3,1.1-3,2.5s0,2.5,0,2.5"/>
		<rect x="2.5" y="13.5" class="st2" width="8" height="4"/>
		<line class="st3" x1="13.5" y1="10.5" x2="23.5" y2="10.5"/>
	</g>
</g>
</svg>
