<?xml version="1.0" encoding="utf-8"?>
<!-- Generator: Adobe Illustrator 19.2.0, SVG Export Plug-In . SVG Version: 6.00 Build 0)  -->
<svg version="1.1" id="Layer_1" xmlns="http://www.w3.org/2000/svg" xmlns:xlink="http://www.w3.org/1999/xlink" x="0px" y="0px"
	 viewBox="0 0 24 24" style="enable-background:new 0 0 24 24;" xml:space="preserve">
<style type="text/css">
	.st0{display:none;}
	.st1{display:inline;}
	.st2{fill:none;stroke:#000000;stroke-linecap:round;stroke-linejoin:round;stroke-miterlimit:10;}
	.st3{fill:none;stroke:#000000;stroke-linejoin:round;stroke-miterlimit:10;}
</style>
<g id="Filled_Icons" class="st0">
	<g class="st1">
		<path d="M23.9,9.2C23.8,9.1,23.7,9,23.5,9H23c-0.2-2.3-1.8-3.5-4-3.5c-0.4,0-0.9,0.1-1.3,0.2C17,3.2,14.7,1.5,12,1.5
			s-5,1.7-5.7,4.2C5.9,5.6,5.5,5.5,5,5.5c-2.2,0-3.8,1.1-4,3.5H0.5C0.4,9,0.3,9.1,0.2,9.2C0.1,9.3,0,9.4,0.1,9.6l1.6,10
			c0.2,1,0.9,1.9,1.9,2.2c0-0.1,0-0.2,0-0.3C3.5,19.6,5.1,18,7,18s3.5,1.6,3.5,3.5c0,0.2,0,0.3,0,0.5h3.1c0-0.2,0-0.3,0-0.5
			c0-1.9,1.6-3.5,3.5-3.5s3.5,1.6,3.5,3.5c0,0.1,0,0.2,0,0.3c0.9-0.3,1.7-1.2,1.9-2.2l1.7-10C24.1,9.4,24,9.3,23.9,9.2z M2.1,9
			c0.2-1.8,1.3-2.5,3-2.5c0.5,0,0.9,0.1,1.4,0.3c0.1,0.1,0.3,0.1,0.4,0C7,6.8,7.1,6.7,7.1,6.5c0.5-2.3,2.5-4,4.9-4s4.4,1.7,4.9,4
			c0,0.2,0.1,0.3,0.3,0.4c0.1,0.1,0.3,0.1,0.5,0c0.4-0.2,0.9-0.3,1.4-0.3c1.6,0,2.8,0.7,3,2.5H2.1z"/>
		<circle cx="7" cy="21.5" r="2.5"/>
		<circle cx="17" cy="21.5" r="2.5"/>
	</g>
</g>
<g id="Outline_Icons">
	<g>
		<path class="st2" d="M4.5,21.4c-1.2,0-2.1-1.2-2.3-2.4L0.5,9.5h23L21.8,19c-0.2,1.1-1.2,2.4-2.3,2.4"/>
		<circle class="st2" cx="7" cy="21" r="2.5"/>
		<circle class="st2" cx="17" cy="21" r="2.5"/>
		<line class="st2" x1="9.5" y1="21.5" x2="14.5" y2="21.5"/>
		<path class="st3" d="M22.5,9.5c0-2.5-1.6-4-3.5-4c-0.6,0-1.1,0.1-1.6,0.4c-0.5-2.5-2.7-4.4-5.4-4.4c-2.7,0-4.9,1.9-5.4,4.4
			C6.1,5.6,5.6,5.5,5,5.5c-1.9,0-3.5,1.5-3.5,4"/>
	</g>
</g>
</svg>
