<?xml version="1.0" encoding="utf-8"?>
<!-- Generator: Adobe Illustrator 19.2.0, SVG Export Plug-In . SVG Version: 6.00 Build 0)  -->
<svg version="1.1" id="Layer_1" xmlns="http://www.w3.org/2000/svg" xmlns:xlink="http://www.w3.org/1999/xlink" x="0px" y="0px"
	 viewBox="0 0 24 24" style="enable-background:new 0 0 24 24;" xml:space="preserve">
<style type="text/css">
	.st0{display:none;}
	.st1{display:inline;}
	.st2{fill:none;stroke:#000000;stroke-linecap:round;stroke-linejoin:round;stroke-miterlimit:10;}
</style>
<g id="Filled_Icon" class="st0">
	<g class="st1">
		<path d="M15.5,1H16v0.5C16,1.8,16.2,2,16.5,2C16.8,2,17,1.8,17,1.5v-1C17,0.2,16.8,0,16.5,0h-1C15.2,0,15,0.2,15,0.5
			C15,0.8,15.2,1,15.5,1z"/>
		<path d="M1.5,0h-1C0.2,0,0,0.2,0,0.5v1C0,1.8,0.2,2,0.5,2C0.8,2,1,1.8,1,1.5V1h0.5C1.8,1,2,0.8,2,0.5C2,0.2,1.8,0,1.5,0z"/>
		<path d="M16.5,3C16.2,3,16,3.2,16,3.5v1C16,4.8,16.2,5,16.5,5C16.8,5,17,4.8,17,4.5v-1C17,3.2,16.8,3,16.5,3z"/>
		<path d="M12.5,1h1C13.8,1,14,0.8,14,0.5C14,0.2,13.8,0,13.5,0h-1C12.2,0,12,0.2,12,0.5C12,0.8,12.2,1,12.5,1z"/>
		<path d="M9.5,1h1C10.8,1,11,0.8,11,0.5C11,0.2,10.8,0,10.5,0h-1C9.2,0,9,0.2,9,0.5C9,0.8,9.2,1,9.5,1z"/>
		<path d="M6.5,1h1C7.8,1,8,0.8,8,0.5C8,0.2,7.8,0,7.5,0h-1C6.2,0,6,0.2,6,0.5C6,0.8,6.2,1,6.5,1z"/>
		<path d="M4.5,0h-1C3.2,0,3,0.2,3,0.5C3,0.8,3.2,1,3.5,1h1C4.8,1,5,0.8,5,0.5C5,0.2,4.8,0,4.5,0z"/>
		<path d="M4.5,16h-1C3.2,16,3,16.2,3,16.5C3,16.8,3.2,17,3.5,17h1C4.8,17,5,16.8,5,16.5C5,16.2,4.8,16,4.5,16z"/>
		<path d="M1.5,16H1v-0.5C1,15.2,0.8,15,0.5,15C0.2,15,0,15.2,0,15.5v1C0,16.8,0.2,17,0.5,17h1C1.8,17,2,16.8,2,16.5
			C2,16.2,1.8,16,1.5,16z"/>
		<path d="M0.5,14C0.8,14,1,13.8,1,13.5v-1C1,12.2,0.8,12,0.5,12C0.2,12,0,12.2,0,12.5v1C0,13.8,0.2,14,0.5,14z"/>
		<path d="M0.5,11C0.8,11,1,10.8,1,10.5v-1C1,9.2,0.8,9,0.5,9C0.2,9,0,9.2,0,9.5v1C0,10.8,0.2,11,0.5,11z"/>
		<path d="M0.5,8C0.8,8,1,7.8,1,7.5v-1C1,6.2,0.8,6,0.5,6C0.2,6,0,6.2,0,6.5v1C0,7.8,0.2,8,0.5,8z"/>
		<path d="M0.5,5C0.8,5,1,4.8,1,4.5v-1C1,3.2,0.8,3,0.5,3C0.2,3,0,3.2,0,3.5v1C0,4.8,0.2,5,0.5,5z"/>
		<path d="M23,6h-6.5c-0.6,0-1,0.4-1,1v8.5H7c-0.6,0-1,0.4-1,1V23c0,0.6,0.4,1,1,1h16c0.6,0,1-0.4,1-1V7C24,6.4,23.6,6,23,6z M22,22
			H8v-4.5h8.5c0.6,0,1-0.4,1-1V8H22V22z"/>
	</g>
</g>
<g id="Outline_Icons">
	<g>
		<polyline class="st2" points="15.5,0.5 16.5,0.5 16.5,1.5 		"/>
		<polyline class="st2" points="1.5,0.5 0.5,0.5 0.5,1.5 		"/>
		<line class="st2" x1="16.5" y1="3.5" x2="16.5" y2="4.5"/>
		<line class="st2" x1="12.5" y1="0.5" x2="13.5" y2="0.5"/>
		<line class="st2" x1="9.5" y1="0.5" x2="10.5" y2="0.5"/>
		<line class="st2" x1="6.5" y1="0.5" x2="7.5" y2="0.5"/>
		<line class="st2" x1="3.5" y1="0.5" x2="4.5" y2="0.5"/>
		<line class="st2" x1="3.5" y1="16.5" x2="4.5" y2="16.5"/>
		<polyline class="st2" points="1.5,16.5 0.5,16.5 0.5,15.5 		"/>
		<line class="st2" x1="0.5" y1="13.5" x2="0.5" y2="12.5"/>
		<line class="st2" x1="0.5" y1="10.5" x2="0.5" y2="9.5"/>
		<line class="st2" x1="0.5" y1="7.5" x2="0.5" y2="6.5"/>
		<line class="st2" x1="0.5" y1="4.5" x2="0.5" y2="3.5"/>
		<polygon class="st2" points="6.5,16.5 16.5,16.5 16.5,6.5 23.5,6.5 23.5,23.5 6.5,23.5 		"/>
	</g>
</g>
</svg>
