<?xml version="1.0" encoding="utf-8"?>
<!-- Generator: Adobe Illustrator 19.2.0, SVG Export Plug-In . SVG Version: 6.00 Build 0)  -->
<svg version="1.1" id="Layer_1" xmlns="http://www.w3.org/2000/svg" xmlns:xlink="http://www.w3.org/1999/xlink" x="0px" y="0px"
	 viewBox="0 0 24 24" style="enable-background:new 0 0 24 24;" xml:space="preserve">
<style type="text/css">
	.st0{display:none;}
	.st1{display:inline;}
	.st2{fill:none;stroke:#000000;stroke-linejoin:round;stroke-miterlimit:10;}
</style>
<g id="Filled_Icons" class="st0">
	<path class="st1" d="M21.2,2.8C19.4,1,17,0,14.5,0S9.6,1,7.8,2.8C4.9,5.6,4.2,9.9,5.9,13.6l-4.6,3.9C0.5,18.1,0,19.1,0,20.1
		s0.4,2,1.1,2.8C1.8,23.6,2.7,24,3.7,24c1.2,0,2.2-0.5,2.8-1.3l3.9-4.6c1.3,0.6,2.7,0.9,4.1,0.9l0,0c2.5,0,4.9-1,6.7-2.8
		C24.9,12.5,24.9,6.5,21.2,2.8z M5,21.2c-0.3,0.3-0.7,0.4-1.1,0.4s-0.8-0.2-1.1-0.4c-0.6-0.6-0.6-1.5,0-2.1s1.6-0.6,2.1,0
		C5.6,19.6,5.6,20.6,5,21.2z M19.5,14.4c-1.3,1.3-3.1,2-4.9,2c-1.9,0-3.6-0.7-4.9-2C7,11.7,7,7.2,9.7,4.5c1.3-1.3,3.1-2,4.9-2
		c1.9,0,3.6,0.7,4.9,2s2,3.1,2,4.9C21.5,11.4,20.8,13.1,19.5,14.4z"/>
</g>
<g id="Outline_Icons">
	<g>
		<circle class="st2" cx="14.5" cy="9.5" r="6.5"/>
		<path class="st2" d="M20.9,15.8c3.5-3.5,3.5-9.2,0-12.7s-9.2-3.5-12.7,0C5.3,6,4.8,10.3,6.5,13.7l-4.9,4.2
			c-0.7,0.6-1.1,1.4-1.1,2.3s0.3,1.8,0.9,2.4s1.5,1,2.4,0.9c0.9,0,1.7-0.4,2.3-1.1l4.2-4.9C13.7,19.2,18,18.7,20.9,15.8z"/>
		<circle class="st2" cx="3.9" cy="20.1" r="1"/>
	</g>
</g>
</svg>
