<?xml version="1.0" encoding="utf-8"?>
<!-- Generator: Adobe Illustrator 19.2.0, SVG Export Plug-In . SVG Version: 6.00 Build 0)  -->
<svg version="1.1" id="Layer_1" xmlns="http://www.w3.org/2000/svg" xmlns:xlink="http://www.w3.org/1999/xlink" x="0px" y="0px"
	 viewBox="0 0 24 24" style="enable-background:new 0 0 24 24;" xml:space="preserve">
<style type="text/css">
	.st0{display:none;}
	.st1{display:inline;}
	.st2{fill:none;stroke:#000000;stroke-linecap:round;stroke-linejoin:round;stroke-miterlimit:10;}
</style>
<g id="Filled_Icons" class="st0">
	<g class="st1">
		<path d="M4.4,0.2C4.2,0,4,0,3.8,0C3.6,0.1,3.5,0.3,3.5,0.5V7c0,0.1,0.1,0.3,0.1,0.4l2,2.5C5.8,10,6,10,6.2,10
			c0.2-0.1,0.3-0.3,0.3-0.5V3c0-0.1-0.1-0.3-0.1-0.4L4.4,0.2z"/>
		<path d="M19.2,0C19,0,18.8,0,18.6,0.2l-2,2.5c-0.1,0.1-0.1,0.2-0.1,0.4v6.5c0,0.2,0.1,0.4,0.3,0.5c0.2,0.1,0.4,0,0.5-0.1l2-2.5
			c0.1-0.1,0.1-0.2,0.1-0.4V0.5C19.5,0.3,19.4,0.1,19.2,0z"/>
		<path d="M12,4V0.5C12,0.2,11.8,0,11.5,0S11,0.2,11,0.5V4C9,4.2,7.5,5.2,7.5,6.5V19c0,0.8,0.5,1.7,1.2,2.5c0.8-1.1,2.3-1.2,2.8-1.2
			c0.5,0,2.1,0,2.8,1.2c0.7-0.8,1.2-1.7,1.2-2.5V6.5C15.5,5.2,14,4.2,12,4z"/>
		<path d="M11.5,21.4c-1.5,0-1.6,0.4-2.1,0.9c0.8,0.8,1.6,1.5,1.8,1.6c0.1,0.1,0.2,0.1,0.3,0.1c0.1,0,0.2,0,0.3-0.1
			c0.2-0.1,1-0.7,1.8-1.6C13.1,21.8,13,21.4,11.5,21.4z"/>
	</g>
</g>
<g id="Outline_Icons">
	<g>
		<polygon class="st2" points="4.5,0.5 7.5,3 7.5,9.5 4.5,7 		"/>
		<polygon class="st2" points="18.5,0.5 15.5,3 15.5,9.5 18.5,7 		"/>
		<line class="st2" x1="11.5" y1="0.5" x2="11.5" y2="10"/>
		<path class="st2" d="M11.5,4.5c-1.9,0-4,0.9-4,2V19c0,1.9,4,4.5,4,4.5s4-2.6,4-4.5V6.5C15.5,5.4,13.4,4.5,11.5,4.5z"/>
		<path class="st2" d="M14,21.5c-0.7-0.3-1.8-0.6-2.5-0.6c-0.7,0-1.8,0.2-2.5,0.6"/>
	</g>
</g>
</svg>
