<?xml version="1.0" encoding="utf-8"?>
<!-- Generator: Adobe Illustrator 19.2.0, SVG Export Plug-In . SVG Version: 6.00 Build 0)  -->
<svg version="1.1" id="Layer_1" xmlns="http://www.w3.org/2000/svg" xmlns:xlink="http://www.w3.org/1999/xlink" x="0px" y="0px"
	 viewBox="0 0 24 24" style="enable-background:new 0 0 24 24;" xml:space="preserve">
<style type="text/css">
	.st0{display:none;}
	.st1{display:inline;}
	.st2{fill:none;stroke:#000000;stroke-linejoin:round;stroke-miterlimit:10;}
	.st3{fill:none;stroke:#000000;stroke-linecap:round;stroke-linejoin:round;stroke-miterlimit:10;}
</style>
<g id="Filled_Icons" class="st0">
	<g class="st1">
		<path d="M3.5,13.1c0,0.2,1,4.8,3.5,5.3v-7.9H5.8l-2.1,2.1C3.5,12.8,3.5,12.9,3.5,13.1z"/>
		<path d="M22,0h-2v4.5C20,4.8,19.8,5,19.5,5S19,4.8,19,4.5V0h-2v4.5C17,4.8,16.8,5,16.5,5S16,4.8,16,4.5V0h-2v4.5
			C14,4.8,13.8,5,13.5,5S13,4.8,13,4.5V0H7.5C5,0,3,2,3,4.5v3C3,7.8,3.2,8,3.5,8H6v1.5h3V8h5v8.5c0,1.9-1.6,3.5-3.5,3.5H2
			c-1.1,0-2,0.9-2,2s0.9,2,2,2h21.5c0.3,0,0.5-0.2,0.5-0.5V2C24,0.9,23.1,0,22,0z M19,21c-1.7,0-3-1.3-3-3s1.3-3,3-3s3,1.3,3,3
			S20.7,21,19,21z"/>
		<path d="M11.5,13.1c0-0.2,0-0.3-0.1-0.5l-2.1-2.1H8v7.9C10.5,17.9,11.4,13.3,11.5,13.1z"/>
	</g>
</g>
<g id="Outline_Icons">
	<g>
		<path class="st2" d="M11.5,0.5h-4c-2.2,0-4,1.8-4,4v3h11v9c0,2.2-1.8,4-4,4H2c-0.8,0-1.5,0.7-1.5,1.5s0.7,1.5,1.5,1.5h9.5h12V2
			c0-0.8-0.7-1.5-1.5-1.5H11.5z"/>
		<line class="st3" x1="13.5" y1="4.5" x2="13.5" y2="0.5"/>
		<line class="st3" x1="16.5" y1="4.5" x2="16.5" y2="0.5"/>
		<line class="st3" x1="19.5" y1="4.5" x2="19.5" y2="0.5"/>
		<line class="st2" x1="8.5" y1="10.5" x2="8.5" y2="7.5"/>
		<line class="st2" x1="6.5" y1="10.5" x2="6.5" y2="7.5"/>
		<path class="st2" d="M6.5,10.5h2L11,13c0,0-1,5-3.5,5S4,13,4,13L6.5,10.5z"/>
		<line class="st2" x1="7.5" y1="18" x2="7.5" y2="10.5"/>
		<circle class="st2" cx="19" cy="18" r="2.5"/>
	</g>
</g>
</svg>
