<?xml version="1.0" encoding="utf-8"?>
<!-- Generator: Adobe Illustrator 19.2.0, SVG Export Plug-In . SVG Version: 6.00 Build 0)  -->
<svg version="1.1" id="Layer_1" xmlns="http://www.w3.org/2000/svg" xmlns:xlink="http://www.w3.org/1999/xlink" x="0px" y="0px"
	 viewBox="0 0 24 24" style="enable-background:new 0 0 24 24;" xml:space="preserve">
<style type="text/css">
	.st0{display:none;}
	.st1{display:inline;}
	.st2{fill:none;stroke:#000000;stroke-linecap:round;stroke-linejoin:round;stroke-miterlimit:10;}
</style>
<g id="Filled_Icons" class="st0">
	<path class="st1" d="M15,0H8C5.5,0,3.5,2,3.5,4.5v16C3.5,22.4,5.1,24,7,24h9c1.9,0,3.5-1.6,3.5-3.5v-16C19.5,2,17.5,0,15,0z M9,2h5
		c0.3,0,0.5,0.2,0.5,0.5C14.5,2.8,14.3,3,14,3H9C8.7,3,8.5,2.8,8.5,2.5C8.5,2.2,8.7,2,9,2z M9,21H8v-1h1V21z M9,19H8v-1h1V19z M9,17
		H8v-1h1V17z M12,21h-1v-1h1V21z M12,19h-1v-1h1V19z M12,17h-1v-1h1V17z M15,21h-1v-1h1V21z M15,19h-1v-1h1V19z M15,17h-1v-1h1V17z
		 M17.5,14h-12V4h12V14z"/>
</g>
<g id="Outline_Icons">
	<g>
		<path class="st2" d="M18.5,20.5c0,1.7-1.3,3-3,3h-8c-1.7,0-3-1.3-3-3v-16c0-2.2,1.8-4,4-4h6c2.2,0,4,1.8,4,4V20.5z"/>
		<rect x="6.5" y="4.5" class="st2" width="10" height="9"/>
		<line class="st2" x1="9.5" y1="2.5" x2="13.5" y2="2.5"/>
		<g>
			<g>
				<g>
					<polygon points="9,16 8,16 8,17 9,17 					"/>
				</g>
			</g>
		</g>
		<g>
			<g>
				<g>
					<polygon points="12,16 11,16 11,17 12,17 					"/>
				</g>
			</g>
		</g>
		<g>
			<g>
				<g>
					<polygon points="15,16 14,16 14,17 15,17 					"/>
				</g>
			</g>
		</g>
		<g>
			<g>
				<g>
					<polygon points="9,18 8,18 8,19 9,19 					"/>
				</g>
			</g>
		</g>
		<g>
			<g>
				<g>
					<polygon points="12,18 11,18 11,19 12,19 					"/>
				</g>
			</g>
		</g>
		<g>
			<g>
				<g>
					<polygon points="15,18 14,18 14,19 15,19 					"/>
				</g>
			</g>
		</g>
		<g>
			<g>
				<g>
					<polygon points="9,20 8,20 8,21 9,21 					"/>
				</g>
			</g>
		</g>
		<g>
			<g>
				<g>
					<polygon points="12,20 11,20 11,21 12,21 					"/>
				</g>
			</g>
		</g>
		<g>
			<g>
				<g>
					<polygon points="15,20 14,20 14,21 15,21 					"/>
				</g>
			</g>
		</g>
	</g>
</g>
</svg>
