<?xml version="1.0" encoding="utf-8"?>
<!-- Generator: Adobe Illustrator 19.2.0, SVG Export Plug-In . SVG Version: 6.00 Build 0)  -->
<svg version="1.1" id="Layer_1" xmlns="http://www.w3.org/2000/svg" xmlns:xlink="http://www.w3.org/1999/xlink" x="0px" y="0px"
	 viewBox="0 0 24 24" style="enable-background:new 0 0 24 24;" xml:space="preserve">
<style type="text/css">
	.st0{display:none;}
	.st1{display:inline;}
	.st2{fill:none;stroke:#000000;stroke-linecap:round;stroke-linejoin:round;stroke-miterlimit:10;}
	.st3{fill:none;stroke:#000000;stroke-linejoin:round;stroke-miterlimit:10;}
</style>
<g id="Filled_Icons" class="st0">
	<g class="st1">
		<path d="M5,20v1.5C5,22.9,6.1,24,7.5,24h9c1.4,0,2.5-1.1,2.5-2.5V20H5z M12,22.5c-0.6,0-1-0.4-1-1c0-0.6,0.4-1,1-1
			c0.6,0,1,0.4,1,1C13,22.1,12.6,22.5,12,22.5z"/>
		<path d="M19,4V2.5C19,1.1,17.9,0,16.5,0h-9C6.1,0,5,1.1,5,2.5V4H19z M9.5,2h5C14.8,2,15,2.2,15,2.5C15,2.8,14.8,3,14.5,3h-5
			C9.2,3,9,2.8,9,2.5C9,2.2,9.2,2,9.5,2z"/>
		<g>
			<path d="M5,5v14h14V5H5z M16,16.5c0,0.3-0.2,0.5-0.5,0.5h-7C8.2,17,8,16.8,8,16.5v-6C8,10.2,8.2,10,8.5,10H9c0-1.7,1.3-3,3-3
				c1.7,0,3,1.3,3,3h0.5c0.3,0,0.5,0.2,0.5,0.5V16.5z"/>
			<path d="M12,8c-1.1,0-2,0.9-2,2h4C14,8.9,13.1,8,12,8z"/>
			<circle cx="12" cy="13" r="1"/>
		</g>
	</g>
</g>
<g id="Outline_Icons">
	<g>
		<g>
			<path class="st2" d="M18.5,21.5c0,1.1-0.9,2-2,2h-9c-1.1,0-2-0.9-2-2v-19c0-1.1,0.9-2,2-2h9c1.1,0,2,0.9,2,2V21.5z"/>
			<line class="st2" x1="18.5" y1="4.5" x2="5.5" y2="4.5"/>
			<line class="st2" x1="18.5" y1="19.5" x2="5.5" y2="19.5"/>
			<line class="st2" x1="9.5" y1="2.5" x2="14.5" y2="2.5"/>
			<path class="st3" d="M12.5,21.5c0,0.3-0.2,0.5-0.5,0.5l0,0c-0.3,0-0.5-0.2-0.5-0.5l0,0c0-0.3,0.2-0.5,0.5-0.5l0,0
				C12.3,21,12.5,21.2,12.5,21.5L12.5,21.5z"/>
		</g>
		<rect x="8.5" y="10.5" class="st2" width="7" height="6"/>
		<path class="st2" d="M9.5,10c0-1.4,1.1-2.5,2.5-2.5c1.4,0,2.5,1.1,2.5,2.5v0.5h-5V10z"/>
		<path class="st3" d="M12.5,13c0,0.3-0.2,0.5-0.5,0.5l0,0c-0.3,0-0.5-0.2-0.5-0.5l0,0c0-0.3,0.2-0.5,0.5-0.5l0,0
			C12.3,12.5,12.5,12.7,12.5,13L12.5,13z"/>
	</g>
</g>
</svg>
