<?xml version="1.0" encoding="utf-8"?>
<!-- Generator: Adobe Illustrator 19.2.0, SVG Export Plug-In . SVG Version: 6.00 Build 0)  -->
<svg version="1.1" id="Layer_1" xmlns="http://www.w3.org/2000/svg" xmlns:xlink="http://www.w3.org/1999/xlink" x="0px" y="0px"
	 viewBox="0 0 24 24" style="enable-background:new 0 0 24 24;" xml:space="preserve">
<style type="text/css">
	.st0{display:none;}
	.st1{display:inline;}
	.st2{fill:none;stroke:#000000;stroke-linecap:round;stroke-linejoin:round;stroke-miterlimit:10;}
	.st3{fill:none;stroke:#000000;stroke-linejoin:round;stroke-miterlimit:10;}
</style>
<g id="Filled_Icons" class="st0">
	<g class="st1">
		<path d="M0,21.5C0,22.9,1.1,24,2.5,24h6c1.4,0,2.5-1.1,2.5-2.5V20H0V21.5z M5.5,20.5c0.6,0,1,0.4,1,1c0,0.6-0.4,1-1,1
			c-0.6,0-1-0.4-1-1C4.5,20.9,4.9,20.5,5.5,20.5z"/>
		<path d="M8.5,13C7.7,13,7,12.3,7,11.5V8H0v11h11v-6H8.5z"/>
		<path d="M7,6H4C3.7,6,3.5,5.8,3.5,5.5C3.5,5.2,3.7,5,4,5h3V3H2.5C1.1,3,0,4.1,0,5.5V7h7V6z"/>
		<path d="M22.8,3.1C22.7,3,22.5,3,22.3,3L19,4.3V2.5C19,2.2,18.8,2,18.5,2h-10C8.2,2,8,2.2,8,2.5v9C8,11.8,8.2,12,8.5,12h10
			c0.3,0,0.5-0.2,0.5-0.5V9.7l3.3,1.2c0.2,0.1,0.3,0,0.5-0.1c0.1-0.1,0.2-0.2,0.2-0.4v-7C23,3.3,22.9,3.2,22.8,3.1z"/>
	</g>
</g>
<g id="Outline_Icons">
	<g>
		<g>
			<path class="st2" d="M11.5,14.5v7c0,1.1-0.9,2-2,2h-7c-1.1,0-2-0.9-2-2v-15c0-1.1,0.9-2,2-2h3"/>
			<line class="st2" x1="5.5" y1="8.5" x2="0.5" y2="8.5"/>
			<line class="st2" x1="11.5" y1="19.5" x2="0.5" y2="19.5"/>
			<line class="st2" x1="4.5" y1="6.5" x2="5.5" y2="6.5"/>
			<path class="st3" d="M6.5,21.5C6.5,21.8,6.3,22,6,22l0,0c-0.3,0-0.5-0.2-0.5-0.5l0,0C5.5,21.2,5.7,21,6,21l0,0
				C6.3,21,6.5,21.2,6.5,21.5L6.5,21.5z"/>
		</g>
		<polygon class="st2" points="18.5,11.5 8.5,11.5 8.5,2.5 18.5,2.5 18.5,5 22.5,3.5 22.5,10.5 18.5,9 		"/>
	</g>
</g>
</svg>
