<?xml version="1.0" encoding="utf-8"?>
<!-- Generator: Adobe Illustrator 19.2.0, SVG Export Plug-In . SVG Version: 6.00 Build 0)  -->
<svg version="1.1" id="Layer_1" xmlns="http://www.w3.org/2000/svg" xmlns:xlink="http://www.w3.org/1999/xlink" x="0px" y="0px"
	 viewBox="0 0 24 24" style="enable-background:new 0 0 24 24;" xml:space="preserve">
<style type="text/css">
	.st0{display:none;}
	.st1{display:inline;}
	.st2{fill:none;stroke:#000000;stroke-linecap:round;stroke-linejoin:round;stroke-miterlimit:10;}
</style>
<g id="Filled_Icons" class="st0">
	<g class="st1">
		<path d="M9.3,21.7L6.7,17c-0.1-0.2-0.4-0.3-0.7-0.2c-0.2,0.1-0.3,0.4-0.2,0.7l2,3.6c-1.1-0.5-2-1.1-2.9-2c-2.4-2.4-3.4-5.7-2.7-9
			c0.1-0.3-0.1-0.5-0.4-0.6c-0.3,0-0.5,0.1-0.6,0.4c-0.7,3.6,0.4,7.3,3,9.9c0.9,0.9,1.9,1.6,3.1,2.1l-3.9,0.9
			c-0.3,0.1-0.4,0.3-0.4,0.6c0.1,0.2,0.3,0.4,0.5,0.4c0,0,0.1,0,0.1,0l5.4-1.2c0.2,0,0.3-0.1,0.3-0.3c0,0,0,0,0-0.1c0,0,0,0,0,0
			C9.5,22,9.4,21.9,9.3,21.7z"/>
		<path d="M19.2,13h-5.7c-0.8,0-1.5-0.7-1.5-1.5V5.8l-1.2-1.2c-0.7-0.7-2-0.7-2.7,0L4.6,8.1C4.2,8.4,4,8.9,4,9.4
			c0,0.5,0.2,1,0.6,1.4l8.5,8.5c0.4,0.4,0.8,0.6,1.4,0.6c0.5,0,1-0.2,1.4-0.6l3.5-3.5c0.7-0.7,0.7-2,0-2.7L19.2,13z"/>
		<path d="M22.5,4H21V3c0-1.7-1.3-3-3-3c-1.7,0-3,1.3-3,3v1h-1.5C13.2,4,13,4.2,13,4.5v7c0,0.3,0.2,0.5,0.5,0.5h9
			c0.3,0,0.5-0.2,0.5-0.5v-7C23,4.2,22.8,4,22.5,4z M18,9c-0.6,0-1-0.4-1-1c0-0.6,0.4-1,1-1c0.6,0,1,0.4,1,1C19,8.6,18.6,9,18,9z
			 M20,4h-4V3c0-1.1,0.9-2,2-2c1.1,0,2,0.9,2,2V4z"/>
	</g>
</g>
<g id="Outline_Icons">
	<g>
		<path class="st2" d="M18.6,13.1l0.4,0.4c0.6,0.6,0.6,1.5,0,2L15.5,19c-0.6,0.6-1.5,0.6-2,0L5,10.5C4.4,9.9,4.4,9,5,8.5L8.5,5
			c0.6-0.6,1.5-0.6,2,0L11.6,6"/>
		<polyline class="st2" points="3.6,23.3 9,22.1 6.3,17.3 		"/>
		<path class="st2" d="M9,22.1c-1.6-0.5-3.1-1.3-4.4-2.6C2,16.9,1.1,13.3,1.7,10"/>
		<rect x="13.5" y="4.5" class="st2" width="9" height="7"/>
		<path class="st2" d="M15.5,3c0-1.4,1.1-2.5,2.5-2.5c1.4,0,2.5,1.1,2.5,2.5v1.5h-5V3z"/>
		<circle class="st2" cx="18" cy="8" r="0.5"/>
	</g>
</g>
</svg>
