<?xml version="1.0" encoding="utf-8"?>
<!-- Generator: Adobe Illustrator 19.2.0, SVG Export Plug-In . SVG Version: 6.00 Build 0)  -->
<svg version="1.1" id="Layer_1" xmlns="http://www.w3.org/2000/svg" xmlns:xlink="http://www.w3.org/1999/xlink" x="0px" y="0px"
	 viewBox="0 0 24 24" style="enable-background:new 0 0 24 24;" xml:space="preserve">
<style type="text/css">
	.st0{display:none;}
	.st1{display:inline;}
	.st2{fill:none;stroke:#000000;stroke-linecap:round;stroke-linejoin:round;stroke-miterlimit:10;}
</style>
<g id="Filled_Icons" class="st0">
	<g class="st1">
		<rect x="6" y="8" width="12" height="9"/>
		<path d="M6,19c0,1.1,0.9,2,2,2h8c1.1,0,2-0.9,2-2v-1H6V19z"/>
		<path d="M16,3H8C6.9,3,6,3.9,6,5v2h12V5C18,3.9,17.1,3,16,3z M14.5,6h-5C9.2,6,9,5.8,9,5.5C9,5.2,9.2,5,9.5,5h5
			C14.8,5,15,5.2,15,5.5C15,5.8,14.8,6,14.5,6z"/>
		<path d="M4,6.5c-0.6,0-1,0.4-1,1v12c0,0.6,0.4,1,1,1c0.6,0,1-0.4,1-1v-12C5,6.9,4.6,6.5,4,6.5z"/>
		<path d="M1,7.5c-0.6,0-1,0.4-1,1v10c0,0.6,0.4,1,1,1c0.6,0,1-0.4,1-1v-10C2,7.9,1.6,7.5,1,7.5z"/>
		<path d="M20,4.5c-0.6,0-1,0.4-1,1v12c0,0.6,0.4,1,1,1c0.6,0,1-0.4,1-1v-12C21,4.9,20.6,4.5,20,4.5z"/>
		<path d="M23,5.5c-0.6,0-1,0.4-1,1v10c0,0.6,0.4,1,1,1c0.6,0,1-0.4,1-1v-10C24,5.9,23.6,5.5,23,5.5z"/>
	</g>
</g>
<g id="Outline_Icons">
	<g>
		<path class="st2" d="M17.5,19c0,0.8-0.7,1.5-1.5,1.5H8c-0.8,0-1.5-0.7-1.5-1.5V5c0-0.8,0.7-1.5,1.5-1.5h8c0.8,0,1.5,0.7,1.5,1.5
			V19z"/>
		<line class="st2" x1="6.5" y1="7.5" x2="17.5" y2="7.5"/>
		<line class="st2" x1="6.5" y1="17.5" x2="17.5" y2="17.5"/>
		<line class="st2" x1="9.5" y1="5.5" x2="14.5" y2="5.5"/>
		<line class="st2" x1="3.5" y1="7.5" x2="3.5" y2="19.5"/>
		<line class="st2" x1="0.5" y1="8.5" x2="0.5" y2="18.5"/>
		<line class="st2" x1="20.5" y1="5.5" x2="20.5" y2="17.5"/>
		<line class="st2" x1="23.5" y1="6.5" x2="23.5" y2="16.5"/>
	</g>
</g>
</svg>
