<?xml version="1.0" encoding="utf-8"?>
<!-- Generator: Adobe Illustrator 19.2.0, SVG Export Plug-In . SVG Version: 6.00 Build 0)  -->
<svg version="1.1" id="Layer_1" xmlns="http://www.w3.org/2000/svg" xmlns:xlink="http://www.w3.org/1999/xlink" x="0px" y="0px"
	 viewBox="0 0 24 24" style="enable-background:new 0 0 24 24;" xml:space="preserve">
<style type="text/css">
	.st0{display:none;}
	.st1{display:inline;}
	.st2{fill:none;stroke:#000000;stroke-linecap:round;stroke-linejoin:round;stroke-miterlimit:10;}
	.st3{fill:none;stroke:#000000;stroke-linejoin:round;stroke-miterlimit:10;}
</style>
<g id="Filled_Icons" class="st0">
	<g class="st1">
		<rect x="8" y="7" width="1" height="1"/>
		<rect x="15" y="7" width="1" height="1"/>
		<path d="M5,21.5C5,22.9,6.1,24,7.5,24h9c1.4,0,2.5-1.1,2.5-2.5V20H5V21.5z M12,20.5c0.6,0,1,0.4,1,1c0,0.6-0.4,1-1,1
			c-0.6,0-1-0.4-1-1C11,20.9,11.4,20.5,12,20.5z"/>
		<rect x="8" y="16" width="1" height="1"/>
		<path d="M16.5,0h-9C6.1,0,5,1.1,5,2.5V4h14V2.5C19,1.1,17.9,0,16.5,0z M14.5,3h-5C9.2,3,9,2.8,9,2.5C9,2.2,9.2,2,9.5,2h5
			C14.8,2,15,2.2,15,2.5C15,2.8,14.8,3,14.5,3z"/>
		<path d="M5,19h14V5H5V19z M14.5,18h-3c-0.3,0-0.5-0.2-0.5-0.5v-2c0-0.3,0.2-0.5,0.5-0.5c0.3,0,0.5,0.2,0.5,0.5V17h2.5
			c0.3,0,0.5,0.2,0.5,0.5C15,17.8,14.8,18,14.5,18z M17,17.5c0,0.3-0.2,0.5-0.5,0.5c-0.3,0-0.5-0.2-0.5-0.5V16h-2.5
			c-0.3,0-0.5-0.2-0.5-0.5c0-0.3,0.2-0.5,0.5-0.5h3c0.3,0,0.5,0.2,0.5,0.5V17.5z M13,13.5v-1c0-0.3,0.2-0.5,0.5-0.5
			c0.3,0,0.5,0.2,0.5,0.5v1c0,0.3-0.2,0.5-0.5,0.5C13.2,14,13,13.8,13,13.5z M16.5,14h-1c-0.3,0-0.5-0.2-0.5-0.5
			c0-0.3,0.2-0.5,0.5-0.5h1c0.3,0,0.5,0.2,0.5,0.5C17,13.8,16.8,14,16.5,14z M16.5,11h-4c-0.3,0-0.5-0.2-0.5-0.5
			c0-0.3,0.2-0.5,0.5-0.5h4c0.3,0,0.5,0.2,0.5,0.5C17,10.8,16.8,11,16.5,11z M14,6.5C14,6.2,14.2,6,14.5,6h2C16.8,6,17,6.2,17,6.5v2
			C17,8.8,16.8,9,16.5,9h-2C14.2,9,14,8.8,14,8.5V6.5z M11,6.5C11,6.2,11.2,6,11.5,6C11.8,6,12,6.2,12,6.5V8h0.5
			C12.8,8,13,8.2,13,8.5C13,8.8,12.8,9,12.5,9h-1C11.2,9,11,8.8,11,8.5V6.5z M7,6.5C7,6.2,7.2,6,7.5,6h2C9.8,6,10,6.2,10,6.5v2
			C10,8.8,9.8,9,9.5,9h-2C7.2,9,7,8.8,7,8.5V6.5z M7.5,10h3c0.3,0,0.5,0.2,0.5,0.5v1c0,0.3-0.2,0.5-0.5,0.5c-0.3,0-0.5-0.2-0.5-0.5
			V11H7.5C7.2,11,7,10.8,7,10.5C7,10.2,7.2,10,7.5,10z M7.5,13h4c0.3,0,0.5,0.2,0.5,0.5c0,0.3-0.2,0.5-0.5,0.5h-4
			C7.2,14,7,13.8,7,13.5C7,13.2,7.2,13,7.5,13z M7,15.5C7,15.2,7.2,15,7.5,15h2c0.3,0,0.5,0.2,0.5,0.5v2c0,0.3-0.2,0.5-0.5,0.5h-2
			C7.2,18,7,17.8,7,17.5V15.5z"/>
	</g>
</g>
<g id="Outline_Icons">
	<g>
		<g>
			<path class="st2" d="M18.5,21.5c0,1.1-0.9,2-2,2h-9c-1.1,0-2-0.9-2-2v-19c0-1.1,0.9-2,2-2h9c1.1,0,2,0.9,2,2V21.5z"/>
			<line class="st2" x1="18.5" y1="4.5" x2="5.5" y2="4.5"/>
			<line class="st2" x1="18.5" y1="19.5" x2="5.5" y2="19.5"/>
			<line class="st2" x1="9.5" y1="2.5" x2="14.5" y2="2.5"/>
			<path class="st3" d="M12.5,21.5c0,0.3-0.2,0.5-0.5,0.5l0,0c-0.3,0-0.5-0.2-0.5-0.5l0,0c0-0.3,0.2-0.5,0.5-0.5l0,0
				C12.3,21,12.5,21.2,12.5,21.5L12.5,21.5z"/>
		</g>
		<rect x="7.5" y="6.5" class="st2" width="2" height="2"/>
		<rect x="7.5" y="15.5" class="st2" width="2" height="2"/>
		<rect x="14.5" y="6.5" class="st2" width="2" height="2"/>
		<polyline class="st2" points="7.5,10.5 10.5,10.5 10.5,11.5 		"/>
		<line class="st2" x1="7.5" y1="13.5" x2="11.5" y2="13.5"/>
		<polyline class="st2" points="16.5,17.5 16.5,15.5 13.5,15.5 		"/>
		<line class="st2" x1="13.5" y1="13.5" x2="13.5" y2="12.5"/>
		<line class="st2" x1="16.5" y1="13.5" x2="15.5" y2="13.5"/>
		<polyline class="st2" points="11.5,15.5 11.5,17.5 14.5,17.5 		"/>
		<polyline class="st2" points="11.5,6.5 11.5,8.5 12.5,8.5 		"/>
		<line class="st2" x1="12.5" y1="10.5" x2="16.5" y2="10.5"/>
	</g>
</g>
</svg>
