<?xml version="1.0" encoding="utf-8"?>
<!-- Generator: Adobe Illustrator 19.2.0, SVG Export Plug-In . SVG Version: 6.00 Build 0)  -->
<svg version="1.1" id="Outline_Icons" xmlns="http://www.w3.org/2000/svg" xmlns:xlink="http://www.w3.org/1999/xlink" x="0px"
	 y="0px" viewBox="0 0 24 24" style="enable-background:new 0 0 24 24;" xml:space="preserve">
<style type="text/css">
	.st0{fill:none;stroke:#000000;stroke-linecap:round;stroke-linejoin:round;stroke-miterlimit:10;}
	.st1{fill:none;stroke:#000000;stroke-linejoin:round;stroke-miterlimit:10;}
</style>
<g>
	<g>
		<path class="st0" d="M18.5,21.5c0,1.1-0.9,2-2,2h-9c-1.1,0-2-0.9-2-2v-19c0-1.1,0.9-2,2-2h9c1.1,0,2,0.9,2,2V21.5z"/>
		<line class="st0" x1="18.5" y1="4.5" x2="5.5" y2="4.5"/>
		<line class="st0" x1="18.5" y1="19.5" x2="5.5" y2="19.5"/>
		<line class="st0" x1="9.5" y1="2.5" x2="14.5" y2="2.5"/>
		<path class="st1" d="M12.5,21.5c0,0.3-0.2,0.5-0.5,0.5l0,0c-0.3,0-0.5-0.2-0.5-0.5l0,0c0-0.3,0.2-0.5,0.5-0.5l0,0
			C12.3,21,12.5,21.2,12.5,21.5L12.5,21.5z"/>
	</g>
	<g>
		<polygon class="st0" points="16.5,16.5 7.5,16.5 12,6.8 		"/>
		<line class="st0" x1="12" y1="11.5" x2="12" y2="13.5"/>
		<g>
			<g>
				<g>
					<path d="M12,14.3c-0.3,0-0.5,0.2-0.5,0.5c0,0.3,0.2,0.5,0.5,0.5s0.5-0.2,0.5-0.5C12.5,14.5,12.3,14.3,12,14.3L12,14.3z"/>
				</g>
			</g>
		</g>
	</g>
</g>
</svg>
