<?xml version="1.0" encoding="utf-8"?>
<!-- Generator: Adobe Illustrator 19.2.0, SVG Export Plug-In . SVG Version: 6.00 Build 0)  -->
<svg version="1.1" id="Layer_1" xmlns="http://www.w3.org/2000/svg" xmlns:xlink="http://www.w3.org/1999/xlink" x="0px" y="0px"
	 viewBox="0 0 24 24" style="enable-background:new 0 0 24 24;" xml:space="preserve">
<style type="text/css">
	.st0{display:none;}
	.st1{display:inline;}
	.st2{fill:none;stroke:#000000;stroke-linecap:round;stroke-linejoin:round;stroke-miterlimit:10;}
	.st3{fill:none;stroke:#000000;stroke-linejoin:round;stroke-miterlimit:10;}
</style>
<g id="Filled_Icons" class="st0">
	<g class="st1">
		<rect x="5" y="5" width="14" height="14"/>
		<path d="M19,4V2.5C19,1.1,17.9,0,16.5,0h-9C6.1,0,5,1.1,5,2.5V4H19z M12,1.5c0.6,0,1,0.4,1,1c0,0.6-0.4,1-1,1c-0.6,0-1-0.4-1-1
			C11,1.9,11.4,1.5,12,1.5z"/>
		<path d="M5,20v1.5C5,22.9,6.1,24,7.5,24h9c1.4,0,2.5-1.1,2.5-2.5V20H5z M14.5,22h-5C9.2,22,9,21.8,9,21.5C9,21.2,9.2,21,9.5,21h5
			c0.3,0,0.5,0.2,0.5,0.5C15,21.8,14.8,22,14.5,22z"/>
	</g>
</g>
<g id="Outline_Icons">
	<g>
		<path class="st2" d="M5.5,2.5c0-1.1,0.9-2,2-2h9c1.1,0,2,0.9,2,2v19c0,1.1-0.9,2-2,2h-9c-1.1,0-2-0.9-2-2V2.5z"/>
		<line class="st2" x1="5.5" y1="4.5" x2="18.5" y2="4.5"/>
		<line class="st2" x1="5.5" y1="19.5" x2="18.5" y2="19.5"/>
		<line class="st2" x1="14.5" y1="21.5" x2="9.5" y2="21.5"/>
		<path class="st3" d="M12,2c0.3,0,0.5,0.2,0.5,0.5l0,0C12.5,2.8,12.3,3,12,3l0,0c-0.3,0-0.5-0.2-0.5-0.5l0,0C11.5,2.2,11.7,2,12,2
			L12,2z"/>
	</g>
</g>
</svg>
