<?xml version="1.0" encoding="utf-8"?>
<!-- Generator: Adobe Illustrator 19.2.0, SVG Export Plug-In . SVG Version: 6.00 Build 0)  -->
<svg version="1.1" id="Layer_1" xmlns="http://www.w3.org/2000/svg" xmlns:xlink="http://www.w3.org/1999/xlink" x="0px" y="0px"
	 viewBox="0 0 24 24" style="enable-background:new 0 0 24 24;" xml:space="preserve">
<style type="text/css">
	.st0{display:none;}
	.st1{display:inline;}
	.st2{fill:none;stroke:#000000;stroke-linecap:round;stroke-linejoin:round;stroke-miterlimit:10;}
	.st3{fill:none;stroke:#000000;stroke-linejoin:round;stroke-miterlimit:10;}
</style>
<g id="Filled_Icons" class="st0">
	<g class="st1">
		<path d="M0,20.5C0,21.9,1.1,23,2.5,23h6c1.4,0,2.5-1.1,2.5-2.5V19H0V20.5z M5.5,19.5c0.6,0,1,0.4,1,1c0,0.6-0.4,1-1,1
			c-0.6,0-1-0.4-1-1C4.5,19.9,4.9,19.5,5.5,19.5z"/>
		<path d="M11,4.5C11,3.1,9.9,2,8.5,2h-6C1.1,2,0,3.1,0,4.5V6h11V4.5z M7,5H4C3.7,5,3.5,4.8,3.5,4.5C3.5,4.2,3.7,4,4,4h3
			c0.3,0,0.5,0.2,0.5,0.5C7.5,4.8,7.3,5,7,5z"/>
		<path d="M13,20.5c0,1.4,1.1,2.5,2.5,2.5h6c1.4,0,2.5-1.1,2.5-2.5V19H13V20.5z M18.5,19.5c0.6,0,1,0.4,1,1c0,0.6-0.4,1-1,1
			c-0.6,0-1-0.4-1-1C17.5,19.9,17.9,19.5,18.5,19.5z"/>
		<path d="M21.5,2h-6C14.1,2,13,3.1,13,4.5V6h11V4.5C24,3.1,22.9,2,21.5,2z M20,5h-3c-0.3,0-0.5-0.2-0.5-0.5C16.5,4.2,16.7,4,17,4h3
			c0.3,0,0.5,0.2,0.5,0.5C20.5,4.8,20.3,5,20,5z"/>
		<path d="M13,7v1.5l-1,1l-1-1V7H0v11h11v-1.5l1-1l1,1V18h11V7H13z M15.7,14.8c0.4,0.4,0.4,1,0,1.4c-0.2,0.2-0.5,0.3-0.7,0.3
			c-0.3,0-0.5-0.1-0.7-0.3L12,13.9l-2.3,2.3c-0.2,0.2-0.5,0.3-0.7,0.3c-0.3,0-0.5-0.1-0.7-0.3c-0.4-0.4-0.4-1,0-1.4l2.3-2.3
			l-2.3-2.3c-0.4-0.4-0.4-1,0-1.4c0.4-0.4,1-0.4,1.4,0l2.3,2.3l2.3-2.3c0.4-0.4,1-0.4,1.4,0c0.4,0.4,0.4,1,0,1.4l-2.3,2.3L15.7,14.8
			z"/>
	</g>
</g>
<g id="Outline_Icons">
	<g>
		<path class="st2" d="M10.5,17v3.5c0,1.1-0.9,2-2,2h-6c-1.1,0-2-0.9-2-2v-16c0-1.1,0.9-2,2-2h6c1.1,0,2,0.9,2,2V8"/>
		<line class="st2" x1="10.5" y1="6.5" x2="0.5" y2="6.5"/>
		<line class="st2" x1="10.5" y1="18.5" x2="0.5" y2="18.5"/>
		<line class="st2" x1="4" y1="4.5" x2="7" y2="4.5"/>
		<path class="st2" d="M13.5,8V4.5c0-1.1,0.9-2,2-2h6c1.1,0,2,0.9,2,2v16c0,1.1-0.9,2-2,2h-6c-1.1,0-2-0.9-2-2V17"/>
		<line class="st2" x1="23.5" y1="6.5" x2="13.5" y2="6.5"/>
		<line class="st2" x1="23.5" y1="18.5" x2="13.5" y2="18.5"/>
		<line class="st2" x1="17" y1="4.5" x2="20" y2="4.5"/>
		<line class="st2" x1="9" y1="9.5" x2="15" y2="15.5"/>
		<line class="st2" x1="15" y1="9.5" x2="9" y2="15.5"/>
		<path class="st3" d="M6,20.5C6,20.8,5.8,21,5.5,21l0,0C5.2,21,5,20.8,5,20.5l0,0C5,20.2,5.2,20,5.5,20l0,0C5.8,20,6,20.2,6,20.5
			L6,20.5z"/>
		<path class="st3" d="M19,20.5c0,0.3-0.2,0.5-0.5,0.5l0,0c-0.3,0-0.5-0.2-0.5-0.5l0,0c0-0.3,0.2-0.5,0.5-0.5l0,0
			C18.8,20,19,20.2,19,20.5L19,20.5z"/>
	</g>
</g>
</svg>
