<?xml version="1.0" encoding="utf-8"?>
<!-- Generator: Adobe Illustrator 19.2.0, SVG Export Plug-In . SVG Version: 6.00 Build 0)  -->
<svg version="1.1" id="Layer_1" xmlns="http://www.w3.org/2000/svg" xmlns:xlink="http://www.w3.org/1999/xlink" x="0px" y="0px"
	 viewBox="0 0 24 24" style="enable-background:new 0 0 24 24;" xml:space="preserve">
<style type="text/css">
	.st0{display:none;}
	.st1{display:inline;}
	.st2{fill:none;stroke:#000000;stroke-linecap:round;stroke-linejoin:round;stroke-miterlimit:10;}
	.st3{fill:none;stroke:#000000;stroke-linejoin:round;stroke-miterlimit:10;}
</style>
<g id="Filled_Icons" class="st0">
	<g class="st1">
		<path d="M0,21.5C0,22.9,1.1,24,2.5,24h6c1.4,0,2.5-1.1,2.5-2.5V20H0V21.5z M5.5,20.5c0.6,0,1,0.4,1,1c0,0.6-0.4,1-1,1
			c-0.6,0-1-0.4-1-1C4.5,20.9,4.9,20.5,5.5,20.5z"/>
		<path d="M19.5,1h-9C9.1,1,8,2.1,8,3.5v6c0,1.4,1.1,2.5,2.5,2.5h9c1.4,0,2.5-1.1,2.5-2.5v-6C22,2.1,20.9,1,19.5,1z M18.3,7
			l-5.6,2.5c-0.1,0-0.1,0-0.2,0c-0.1,0-0.2,0-0.3-0.1C12.1,9.3,12,9.2,12,9V4c0-0.2,0.1-0.3,0.2-0.4c0.1-0.1,0.3-0.1,0.5,0L18.3,6
			c0.2,0.1,0.3,0.3,0.3,0.5C18.6,6.7,18.5,6.9,18.3,7z"/>
		<path d="M10.5,13C8.6,13,7,11.4,7,9.5V8H0v11h11v-6H10.5z"/>
		<path d="M7,6H4C3.7,6,3.5,5.8,3.5,5.5C3.5,5.2,3.7,5,4,5h3V3.5C7,3.3,7,3.2,7.1,3H2.5C1.1,3,0,4.1,0,5.5V7h7V6z"/>
	</g>
</g>
<g id="Outline_Icons">
	<g>
		<g>
			<path class="st2" d="M11.5,14.5v7c0,1.1-0.9,2-2,2h-7c-1.1,0-2-0.9-2-2v-15c0-1.1,0.9-2,2-2h3"/>
			<line class="st2" x1="5.5" y1="8.5" x2="0.5" y2="8.5"/>
			<line class="st2" x1="11.5" y1="19.5" x2="0.5" y2="19.5"/>
			<line class="st2" x1="4.5" y1="6.5" x2="5.5" y2="6.5"/>
			<path class="st3" d="M6.5,21.5C6.5,21.8,6.3,22,6,22l0,0c-0.3,0-0.5-0.2-0.5-0.5l0,0C5.5,21.2,5.7,21,6,21l0,0
				C6.3,21,6.5,21.2,6.5,21.5L6.5,21.5z"/>
		</g>
		<polygon class="st2" points="12.5,9 12.5,4 18.1,6.5 		"/>
		<path class="st2" d="M21.5,9.5c0,1.1-0.9,2-2,2h-9c-1.1,0-2-0.9-2-2v-6c0-1.1,0.9-2,2-2h9c1.1,0,2,0.9,2,2V9.5z"/>
	</g>
</g>
</svg>
