<?xml version="1.0" encoding="utf-8"?>
<!-- Generator: Adobe Illustrator 19.2.0, SVG Export Plug-In . SVG Version: 6.00 Build 0)  -->
<svg version="1.1" id="Layer_1" xmlns="http://www.w3.org/2000/svg" xmlns:xlink="http://www.w3.org/1999/xlink" x="0px" y="0px"
	 viewBox="0 0 24 24" style="enable-background:new 0 0 24 24;" xml:space="preserve">
<style type="text/css">
	.st0{display:none;}
	.st1{display:inline;}
	.st2{fill:none;stroke:#000000;stroke-linecap:round;stroke-linejoin:round;stroke-miterlimit:10;}
</style>
<g id="Filled_Icons" class="st0">
	<g class="st1">
		<g>
			<path d="M10.6,2.7c-0.8-0.8-2.1-0.8-2.8,0l-5,4.9C2.4,8,2.2,8.5,2.2,9c0,0.5,0.2,1,0.6,1.4l1.4,1.4L12,4.1L10.6,2.7z M8.8,5.8
				L6,8.7C5.9,8.8,5.8,8.8,5.6,8.8c-0.1,0-0.3,0-0.4-0.1C5.1,8.5,5.1,8.2,5.3,8l2.8-2.8c0.2-0.2,0.5-0.2,0.7,0C9,5.3,9,5.6,8.8,5.8z
				"/>
			<rect x="6.5" y="7.4" transform="matrix(0.7071 -0.7071 0.7071 0.7071 -4.8648 11.9625)" width="11" height="9"/>
			<path d="M20.5,12.6l-0.7-0.7L12,19.6l0.7,0.7c0.4,0.4,0.9,0.6,1.4,0.6c0.5,0,1-0.2,1.4-0.6l5-5c0.4-0.4,0.6-0.9,0.6-1.4
				C21.1,13.4,20.9,12.9,20.5,12.6z"/>
		</g>
		<g>
			<path d="M23.9,7.2c-1.7-2.7-4.6-4.3-7.5-4.3l1.3-1c0.2-0.2,0.3-0.5,0.1-0.7c-0.2-0.2-0.5-0.3-0.7-0.1l-2.6,2
				c-0.1,0.1-0.2,0.2-0.2,0.4c0,0.2,0.2,0.4,0.3,0.5l2.5,1.9C17.2,6,17.3,6,17.4,6c0.2,0,0.3-0.1,0.4-0.2c0.2-0.2,0.1-0.5-0.1-0.7
				l-1.6-1.2c2.7,0,5.4,1.4,6.9,3.9C23.2,7.9,23.3,8,23.5,8c0.1,0,0.2,0,0.3-0.1C24,7.8,24.1,7.5,23.9,7.2z"/>
			<path d="M10.1,20l-2.5-1.9C7.3,17.9,7,18,6.9,18.2c-0.2,0.2-0.1,0.5,0.1,0.7l1.6,1.2c-2.7,0-5.4-1.4-6.9-3.9
				c-0.1-0.2-0.5-0.3-0.7-0.2c-0.2,0.1-0.3,0.5-0.2,0.7c1.7,2.7,4.6,4.3,7.5,4.3l-1.3,1c-0.2,0.2-0.3,0.5-0.1,0.7
				C6.9,22.9,7.1,23,7.2,23c0.1,0,0.2,0,0.3-0.1l2.6-2c0.1-0.1,0.2-0.2,0.2-0.4C10.3,20.3,10.2,20.1,10.1,20z"/>
		</g>
	</g>
</g>
<g id="Outline_Icons">
	<g>
		<path class="st2" d="M20.1,12.9c0.6,0.6,0.6,1.5,0,2.1L15.2,20c-0.6,0.6-1.5,0.6-2.1,0l-9.9-9.9C2.6,9.5,2.6,8.5,3.2,8l5-4.9
			c0.6-0.6,1.5-0.6,2.1,0L20.1,12.9z"/>
		<line class="st2" x1="4.9" y1="11.9" x2="12" y2="4.8"/>
		<line class="st2" x1="12" y1="18.9" x2="19.1" y2="11.9"/>
		<line class="st2" x1="5.6" y1="8.3" x2="8.5" y2="5.5"/>
		<polyline class="st2" points="17.4,1.5 14.8,3.5 17.4,5.5 		"/>
		<path class="st2" d="M14.8,3.5c3.5-0.7,6.9,1.1,8.7,4"/>
		<polyline class="st2" points="7.2,22.5 9.8,20.5 7.2,18.5 		"/>
		<path class="st2" d="M9.8,20.5c-3.5,0.7-6.9-1.1-8.7-4"/>
	</g>
</g>
</svg>
