<?xml version="1.0" encoding="utf-8"?>
<!-- Generator: Adobe Illustrator 19.2.0, SVG Export Plug-In . SVG Version: 6.00 Build 0)  -->
<svg version="1.1" id="Layer_1" xmlns="http://www.w3.org/2000/svg" xmlns:xlink="http://www.w3.org/1999/xlink" x="0px" y="0px"
	 viewBox="0 0 24 24" style="enable-background:new 0 0 24 24;" xml:space="preserve">
<style type="text/css">
	.st0{display:none;}
	.st1{display:inline;}
	.st2{fill:none;stroke:#000000;stroke-linecap:round;stroke-linejoin:round;stroke-miterlimit:10;}
	.st3{fill:none;stroke:#000000;stroke-linejoin:round;stroke-miterlimit:10;}
</style>
<g id="Filled_Icons" class="st0">
	<g class="st1">
		<g>
			<polygon points="5,11.9 8.8,9.6 13,11.6 16.2,9.1 19,10 19,5 5,5 			"/>
			<path d="M16.5,0h-9C6.1,0,5,1.1,5,2.5V4h14V2.5C19,1.1,17.9,0,16.5,0z M14.5,3h-5C9.2,3,9,2.8,9,2.5C9,2.2,9.2,2,9.5,2h5
				C14.8,2,15,2.2,15,2.5C15,2.8,14.8,3,14.5,3z"/>
		</g>
		<g>
			<path d="M23.5,12H21c-0.3,0-0.5-0.2-0.5-0.5c0-0.3,0.2-0.5,0.5-0.5h2.5c0.3,0,0.5,0.2,0.5,0.5C24,11.8,23.8,12,23.5,12z"/>
		</g>
		<g>
			<path d="M21.6,9c-0.1,0-0.3,0-0.4-0.1c-0.2-0.2-0.2-0.5,0-0.7l1.9-1.9c0.2-0.2,0.5-0.2,0.7,0C24,6.5,24,6.8,23.8,7L22,8.8
				C21.9,8.9,21.8,9,21.6,9z"/>
		</g>
		<g>
			<path d="M23.5,16.9c-0.1,0-0.3,0-0.4-0.1l-1.9-1.9c-0.2-0.2-0.2-0.5,0-0.7c0.2-0.2,0.5-0.2,0.7,0l1.9,1.9c0.2,0.2,0.2,0.5,0,0.7
				C23.7,16.8,23.6,16.9,23.5,16.9z"/>
		</g>
		<g>
			<path d="M3,12H0.5C0.2,12,0,11.8,0,11.5C0,11.2,0.2,11,0.5,11H3c0.3,0,0.5,0.2,0.5,0.5C3.5,11.8,3.2,12,3,12z"/>
		</g>
		<g>
			<path d="M2.3,9C2.2,9,2.1,8.9,2,8.8L0.1,7c-0.2-0.2-0.2-0.5,0-0.7c0.2-0.2,0.5-0.2,0.7,0l1.9,1.9c0.2,0.2,0.2,0.5,0,0.7
				C2.6,8.9,2.5,9,2.3,9z"/>
		</g>
		<g>
			<path d="M0.5,16.9c-0.1,0-0.3,0-0.4-0.1c-0.2-0.2-0.2-0.5,0-0.7L2,14.2c0.2-0.2,0.5-0.2,0.7,0c0.2,0.2,0.2,0.5,0,0.7l-1.9,1.9
				C0.7,16.8,0.6,16.9,0.5,16.9z"/>
		</g>
		<g>
			<path d="M5,21.5C5,22.9,6.1,24,7.5,24h9c1.4,0,2.5-1.1,2.5-2.5V20H5V21.5z M12,20.5c0.6,0,1,0.4,1,1c0,0.6-0.4,1-1,1
				c-0.6,0-1-0.4-1-1C11,20.9,11.4,20.5,12,20.5z"/>
			<polygon points="15.9,12.5 13,14.6 9,12.5 5,14.9 5,19 19,19 19,13.6 			"/>
		</g>
	</g>
</g>
<g id="Outline_Icons">
	<g>
		<line class="st2" x1="18.5" y1="4.5" x2="5.5" y2="4.5"/>
		<line class="st2" x1="18.5" y1="19.5" x2="5.5" y2="19.5"/>
		<line class="st2" x1="9.5" y1="2.5" x2="14.5" y2="2.5"/>
		<g>
			<path class="st2" d="M16,13l-3,2.2L9,13l-3.5,2.1v6.3c0,1.1,0.9,2,2,2h9c1.1,0,2-0.9,2-2v-7.6L16,13z"/>
			<path class="st2" d="M8.8,9.1l4.2,2l3.1-2.6l2.4,0.8V2.5c0-1.1-0.9-2-2-2h-9c-1.1,0-2,0.9-2,2V11L8.8,9.1z"/>
		</g>
		<line class="st2" x1="21" y1="11.5" x2="23.5" y2="11.5"/>
		<line class="st2" x1="21.6" y1="8.5" x2="23.5" y2="6.6"/>
		<line class="st2" x1="21.6" y1="14.5" x2="23.5" y2="16.4"/>
		<line class="st2" x1="3" y1="11.5" x2="0.5" y2="11.5"/>
		<line class="st2" x1="2.3" y1="8.5" x2="0.5" y2="6.6"/>
		<line class="st2" x1="2.3" y1="14.5" x2="0.5" y2="16.4"/>
		<path class="st3" d="M12.5,21.5c0,0.3-0.2,0.5-0.5,0.5l0,0c-0.3,0-0.5-0.2-0.5-0.5l0,0c0-0.3,0.2-0.5,0.5-0.5l0,0
			C12.2,21,12.5,21.2,12.5,21.5L12.5,21.5z"/>
	</g>
</g>
</svg>
