<?xml version="1.0" encoding="utf-8"?>
<!-- Generator: Adobe Illustrator 19.2.0, SVG Export Plug-In . SVG Version: 6.00 Build 0)  -->
<svg version="1.1" id="Layer_1" xmlns="http://www.w3.org/2000/svg" xmlns:xlink="http://www.w3.org/1999/xlink" x="0px" y="0px"
	 viewBox="0 0 24 24" style="enable-background:new 0 0 24 24;" xml:space="preserve">
<style type="text/css">
	.st0{display:none;}
	.st1{display:inline;}
	.st2{fill:none;stroke:#000000;stroke-linecap:round;stroke-linejoin:round;stroke-miterlimit:10;}
</style>
<g id="Filled_Icons" class="st0">
	<path class="st1" d="M19,0H4C2.9,0,2,0.9,2,2v18.5C2,22.4,3.6,24,5.5,24h12c1.9,0,3.5-1.6,3.5-3.5V2C21,0.9,20.1,0,19,0z M9,2h5
		c0.3,0,0.5,0.2,0.5,0.5C14.5,2.8,14.3,3,14,3H9C8.7,3,8.5,2.8,8.5,2.5C8.5,2.2,8.7,2,9,2z M7,21H6v-1h1V21z M7,19H6v-1h1V19z M7,17
		H6v-1h1V17z M9,21H8v-1h1V21z M9,19H8v-1h1V19z M9,17H8v-1h1V17z M11,21h-1v-1h1V21z M11,19h-1v-1h1V19z M11,17h-1v-1h1V17z M13,21
		h-1v-1h1V21z M13,19h-1v-1h1V19z M13,17h-1v-1h1V17z M15,21h-1v-1h1V21z M15,19h-1v-1h1V19z M15,17h-1v-1h1V17z M17,21h-1v-1h1V21z
		 M17,19h-1v-1h1V19z M17,17h-1v-1h1V17z M19,14H4V4h15V14z"/>
</g>
<g id="Outline_Icons">
	<g>
		<rect x="4.5" y="4.5" class="st2" width="14" height="9"/>
		<line class="st2" x1="9" y1="2.5" x2="14" y2="2.5"/>
		<g>
			<g>
				<g>
					<polygon points="7,16 6,16 6,17 7,17 					"/>
				</g>
			</g>
		</g>
		<g>
			<g>
				<g>
					<polygon points="9,16 8,16 8,17 9,17 					"/>
				</g>
			</g>
		</g>
		<g>
			<g>
				<g>
					<polygon points="11,16 10,16 10,17 11,17 					"/>
				</g>
			</g>
		</g>
		<g>
			<g>
				<g>
					<polygon points="7,18 6,18 6,19 7,19 					"/>
				</g>
			</g>
		</g>
		<g>
			<g>
				<g>
					<polygon points="9,18 8,18 8,19 9,19 					"/>
				</g>
			</g>
		</g>
		<g>
			<g>
				<g>
					<polygon points="11,18 10,18 10,19 11,19 					"/>
				</g>
			</g>
		</g>
		<g>
			<g>
				<g>
					<polygon points="7,20 6,20 6,21 7,21 					"/>
				</g>
			</g>
		</g>
		<g>
			<g>
				<g>
					<polygon points="9,20 8,20 8,21 9,21 					"/>
				</g>
			</g>
		</g>
		<g>
			<g>
				<g>
					<polygon points="11,20 10,20 10,21 11,21 					"/>
				</g>
			</g>
		</g>
		<g>
			<g>
				<g>
					<polygon points="13,16 12,16 12,17 13,17 					"/>
				</g>
			</g>
		</g>
		<g>
			<g>
				<g>
					<polygon points="13,18 12,18 12,19 13,19 					"/>
				</g>
			</g>
		</g>
		<g>
			<g>
				<g>
					<polygon points="13,20 12,20 12,21 13,21 					"/>
				</g>
			</g>
		</g>
		<g>
			<g>
				<g>
					<polygon points="15,16 14,16 14,17 15,17 					"/>
				</g>
			</g>
		</g>
		<g>
			<g>
				<g>
					<polygon points="15,18 14,18 14,19 15,19 					"/>
				</g>
			</g>
		</g>
		<g>
			<g>
				<g>
					<polygon points="15,20 14,20 14,21 15,21 					"/>
				</g>
			</g>
		</g>
		<g>
			<g>
				<g>
					<polygon points="17,16 16,16 16,17 17,17 					"/>
				</g>
			</g>
		</g>
		<g>
			<g>
				<g>
					<polygon points="17,18 16,18 16,19 17,19 					"/>
				</g>
			</g>
		</g>
		<g>
			<g>
				<g>
					<polygon points="17,20 16,20 16,21 17,21 					"/>
				</g>
			</g>
		</g>
		<path class="st2" d="M20.5,20.5c0,1.7-1.3,3-3,3h-12c-1.6,0-3-1.3-3-3V2c0-0.8,0.7-1.5,1.5-1.5h15c0.8,0,1.5,0.7,1.5,1.5V20.5z"/>
	</g>
</g>
</svg>
