<?xml version="1.0" encoding="utf-8"?>
<!-- Generator: Adobe Illustrator 19.2.0, SVG Export Plug-In . SVG Version: 6.00 Build 0)  -->
<svg version="1.1" id="Layer_1" xmlns="http://www.w3.org/2000/svg" xmlns:xlink="http://www.w3.org/1999/xlink" x="0px" y="0px"
	 viewBox="0 0 24 24" style="enable-background:new 0 0 24 24;" xml:space="preserve">
<style type="text/css">
	.st0{display:none;}
	.st1{display:inline;}
	.st2{fill:none;stroke:#000000;stroke-linecap:round;stroke-linejoin:round;stroke-miterlimit:10;}
	.st3{fill:none;stroke:#000000;stroke-linejoin:round;stroke-miterlimit:10;}
</style>
<g id="Filled_Icons" class="st0">
	<g class="st1">
		<rect x="5" y="5" width="14" height="14"/>
		<path d="M20,19h1.5c1.4,0,2.5-1.1,2.5-2.5v-9C24,6.1,22.9,5,21.5,5H20V19z M22.5,12c0,0.6-0.4,1-1,1c-0.6,0-1-0.4-1-1
			c0-0.6,0.4-1,1-1C22.1,11,22.5,11.4,22.5,12z"/>
		<path d="M4,5H2.5C1.1,5,0,6.1,0,7.5v9C0,17.9,1.1,19,2.5,19H4V5z M2,14.5v-5C2,9.2,2.2,9,2.5,9C2.8,9,3,9.2,3,9.5v5
			C3,14.8,2.8,15,2.5,15C2.2,15,2,14.8,2,14.5z"/>
	</g>
</g>
<g id="Outline_Icons">
	<g>
		<path class="st2" d="M21.5,5.5c1.1,0,2,0.9,2,2v9c0,1.1-0.9,2-2,2h-19c-1.1,0-2-0.9-2-2v-9c0-1.1,0.9-2,2-2H21.5z"/>
		<line class="st2" x1="19.5" y1="5.5" x2="19.5" y2="18.5"/>
		<line class="st2" x1="4.5" y1="5.5" x2="4.5" y2="18.5"/>
		<line class="st2" x1="2.5" y1="14.5" x2="2.5" y2="9.5"/>
		<path class="st3" d="M22,12c0,0.3-0.2,0.5-0.5,0.5l0,0c-0.3,0-0.5-0.2-0.5-0.5l0,0c0-0.3,0.2-0.5,0.5-0.5l0,0
			C21.8,11.5,22,11.7,22,12L22,12z"/>
	</g>
</g>
</svg>
