<?xml version="1.0" encoding="utf-8"?>
<!-- Generator: Adobe Illustrator 19.2.0, SVG Export Plug-In . SVG Version: 6.00 Build 0)  -->
<svg version="1.1" id="Layer_1" xmlns="http://www.w3.org/2000/svg" xmlns:xlink="http://www.w3.org/1999/xlink" x="0px" y="0px"
	 viewBox="0 0 24 24" style="enable-background:new 0 0 24 24;" xml:space="preserve">
<style type="text/css">
	.st0{display:none;}
	.st1{display:inline;}
	.st2{fill:none;stroke:#000000;stroke-linecap:round;stroke-linejoin:round;stroke-miterlimit:10;}
	.st3{fill:none;stroke:#000000;stroke-linejoin:round;stroke-miterlimit:10;}
</style>
<g id="Filled_Icons" class="st0">
	<g class="st1">
		<path d="M5,20v1.5C5,22.9,6.1,24,7.5,24h9c1.4,0,2.5-1.1,2.5-2.5V20H5z M12,22.5c-0.6,0-1-0.4-1-1c0-0.6,0.4-1,1-1
			c0.6,0,1,0.4,1,1C13,22.1,12.6,22.5,12,22.5z"/>
		<path d="M19,4V2.5C19,1.1,17.9,0,16.5,0h-9C6.1,0,5,1.1,5,2.5V4H19z M9.5,2h5C14.8,2,15,2.2,15,2.5C15,2.8,14.8,3,14.5,3h-5
			C9.2,3,9,2.8,9,2.5C9,2.2,9.2,2,9.5,2z"/>
		<path d="M5,5v14h14V5H5z M16,13.7c0,0,0,0.1,0,0.1c0,0.1-0.6,2.1-3.8,3c0,0-0.1,0-0.1,0c0,0-0.1,0-0.1,0C8.6,16,8,13.9,8,13.8
			c0,0,0-0.1,0-0.1V8.5c0-0.2,0.1-0.4,0.3-0.4C8.4,8,8.6,8,8.8,8.1c0.6,0.4,1,0.6,1.5,0.6c0.5,0,1-0.2,1.3-0.6
			c0.2-0.2,0.6-0.2,0.8,0c0.3,0.4,0.8,0.6,1.4,0.6c0.5,0,0.9-0.2,1.5-0.6c0.2-0.1,0.4-0.1,0.5,0C15.9,8.2,16,8.3,16,8.5V13.7z"/>
	</g>
</g>
<g id="Outline_Icons">
	<g>
		<g>
			<path class="st2" d="M18.5,21.5c0,1.1-0.9,2-2,2h-9c-1.1,0-2-0.9-2-2v-19c0-1.1,0.9-2,2-2h9c1.1,0,2,0.9,2,2V21.5z"/>
			<line class="st2" x1="18.5" y1="4.5" x2="5.5" y2="4.5"/>
			<line class="st2" x1="18.5" y1="19.5" x2="5.5" y2="19.5"/>
			<line class="st2" x1="9.5" y1="2.5" x2="14.5" y2="2.5"/>
			<path class="st3" d="M12.5,21.5c0,0.3-0.2,0.5-0.5,0.5l0,0c-0.3,0-0.5-0.2-0.5-0.5l0,0c0-0.3,0.2-0.5,0.5-0.5l0,0
				C12.3,21,12.5,21.2,12.5,21.5L12.5,21.5z"/>
		</g>
		<path class="st2" d="M13.7,9.2c-0.7,0-1.3-0.3-1.7-0.8h0c-0.4,0.5-1,0.8-1.7,0.8c-0.6,0-1.2-0.2-1.8-0.7v5.2c0,0,0.5,1.8,3.5,2.7
			c3-0.8,3.5-2.7,3.5-2.7V8.5C14.9,8.9,14.4,9.2,13.7,9.2z"/>
	</g>
</g>
</svg>
