<?xml version="1.0" encoding="utf-8"?>
<!-- Generator: Adobe Illustrator 19.2.0, SVG Export Plug-In . SVG Version: 6.00 Build 0)  -->
<svg version="1.1" id="Layer_1" xmlns="http://www.w3.org/2000/svg" xmlns:xlink="http://www.w3.org/1999/xlink" x="0px" y="0px"
	 viewBox="0 0 24 24" style="enable-background:new 0 0 24 24;" xml:space="preserve">
<style type="text/css">
	.st0{display:none;}
	.st1{display:inline;}
	.st2{fill:none;stroke:#000000;stroke-linecap:round;stroke-linejoin:round;stroke-miterlimit:10;}
	.st3{fill:none;stroke:#000000;stroke-linejoin:round;stroke-miterlimit:10;}
</style>
<g id="Filled_Icons" class="st0">
	<g class="st1">
		<path d="M4,20v1.5C4,22.9,5.1,24,6.5,24h7c1.4,0,2.5-1.1,2.5-2.5V20H4z M10,22.5c-0.6,0-1-0.4-1-1c0-0.6,0.4-1,1-1
			c0.6,0,1,0.4,1,1C11,22.1,10.6,22.5,10,22.5z"/>
		<path d="M13,8V4H6.5C5.1,4,4,5.1,4,6.5V8L13,8C13,8,13,8,13,8z M11.5,7h-3C8.2,7,8,6.8,8,6.5C8,6.2,8.2,6,8.5,6h3
			C11.8,6,12,6.2,12,6.5C12,6.8,11.8,7,11.5,7z"/>
		<path d="M20.8,0.1C20.6,0,20.4,0,20.3,0l-6,2.8C14.1,2.9,14,3.1,14,3.3V9h-1c-1.1,0-2,0.9-2,2s0.9,2,2,2c1.1,0,2-0.9,2-2
			c0-2.8,0-4.2,0-7.4l5-2.3V6h-1c-1.1,0-2,0.9-2,2c0,1.1,0.9,2,2,2c1.1,0,2-0.9,2-2c0-3,0-2.8,0-7.5C21,0.3,20.9,0.2,20.8,0.1z"/>
		<path d="M15.6,12.4C15.1,13.3,14.1,14,13,14c-1.7,0-3-1.3-3-3c0-0.8,0.3-1.5,0.8-2H4v10h12v-6C16,13,16,12.2,15.6,12.4z"/>
	</g>
</g>
<g id="Outline_Icons">
	<g>
		<g>
			<path class="st2" d="M15.5,14.5v7c0,1.1-0.9,2-2,2h-7c-1.1,0-2-0.9-2-2v-15c0-1.1,0.9-2,2-2h3"/>
			<line class="st2" x1="9.5" y1="8.5" x2="4.5" y2="8.5"/>
			<line class="st2" x1="15.5" y1="19.5" x2="4.5" y2="19.5"/>
			<line class="st2" x1="8.5" y1="6.5" x2="9.5" y2="6.5"/>
			<path class="st3" d="M10.5,21.5c0,0.3-0.2,0.5-0.5,0.5l0,0c-0.3,0-0.5-0.2-0.5-0.5l0,0c0-0.3,0.2-0.5,0.5-0.5l0,0
				C10.3,21,10.5,21.2,10.5,21.5L10.5,21.5z"/>
		</g>
		<path class="st3" d="M14.5,11c0,0.8-0.7,1.5-1.5,1.5c-0.8,0-1.5-0.7-1.5-1.5c0-0.8,0.7-1.5,1.5-1.5c0.3,0,1.2,0,1.5,0
			C14.5,10,14.5,10.4,14.5,11z"/>
		<path class="st3" d="M20.5,8c0,0.8-0.7,1.5-1.5,1.5c-0.8,0-1.5-0.7-1.5-1.5c0-0.8,0.7-1.5,1.5-1.5c0.3,0,1.2,0,1.5,0
			C20.5,7,20.5,7.5,20.5,8z"/>
		<polyline class="st3" points="14.5,10 14.5,3.3 20.5,0.5 20.5,7 		"/>
	</g>
</g>
</svg>
