<?xml version="1.0" encoding="utf-8"?>
<!-- Generator: Adobe Illustrator 19.2.0, SVG Export Plug-In . SVG Version: 6.00 Build 0)  -->
<svg version="1.1" id="Layer_1" xmlns="http://www.w3.org/2000/svg" xmlns:xlink="http://www.w3.org/1999/xlink" x="0px" y="0px"
	 viewBox="0 0 24 24" style="enable-background:new 0 0 24 24;" xml:space="preserve">
<style type="text/css">
	.st0{display:none;}
	.st1{display:inline;}
	.st2{fill:none;stroke:#000000;stroke-linecap:round;stroke-linejoin:round;stroke-miterlimit:10;}
	.st3{fill:none;stroke:#000000;stroke-linejoin:round;stroke-miterlimit:10;}
</style>
<g id="Filled_Icons" class="st0">
	<g class="st1">
		<path d="M0,21.5C0,22.9,1.1,24,2.5,24h6c1.4,0,2.5-1.1,2.5-2.5V20H0V21.5z M5.5,20.5c0.6,0,1,0.4,1,1c0,0.6-0.4,1-1,1
			c-0.6,0-1-0.4-1-1C4.5,20.9,4.9,20.5,5.5,20.5z"/>
		<path d="M10,13c-1.7,0-3-1.3-3-3V8H0v11h11v-6H10z"/>
		<path d="M7,6H4C3.7,6,3.5,5.8,3.5,5.5C3.5,5.2,3.7,5,4,5h3V3H2.5C1.1,3,0,4.1,0,5.5V7h7V6z"/>
		<path d="M22,1H10C8.9,1,8,1.9,8,3v7c0,1.1,0.9,2,2,2h12c1.1,0,2-0.9,2-2V3C24,1.9,23.1,1,22,1z M21.8,8.6C22,8.7,22.1,9,21.9,9.3
			c-0.1,0.1-0.3,0.2-0.4,0.2c-0.1,0-0.2,0-0.3-0.1l-3.7-2.3l-1.3,0.8C16.2,8,16.1,8,16,8c-0.1,0-0.2,0-0.3-0.1l-1.3-0.8l-3.7,2.3
			c-0.1,0.1-0.2,0.1-0.3,0.1c-0.2,0-0.3-0.1-0.4-0.2C9.9,9,10,8.7,10.2,8.6l3.3-2.1l-3.3-2.1C10,4.3,9.9,4,10.1,3.7
			c0.1-0.2,0.5-0.3,0.7-0.2L16,6.9l5.2-3.3c0.2-0.1,0.5-0.1,0.7,0.2C22.1,4,22,4.3,21.8,4.4l-3.3,2.1L21.8,8.6z"/>
	</g>
</g>
<g id="Outline_Icons">
	<g>
		<path class="st2" d="M23.5,10c0,0.8-0.7,1.5-1.5,1.5H10c-0.8,0-1.5-0.7-1.5-1.5V3c0-0.8,0.7-1.5,1.5-1.5h12c0.8,0,1.5,0.7,1.5,1.5
			V10z"/>
		<polyline class="st2" points="21.5,4 16,7.5 10.5,4 		"/>
		<line class="st2" x1="21.5" y1="9" x2="17.6" y2="6.5"/>
		<line class="st2" x1="10.5" y1="9" x2="14.4" y2="6.5"/>
		<g>
			<path class="st2" d="M11.5,14.5v7c0,1.1-0.9,2-2,2h-7c-1.1,0-2-0.9-2-2v-15c0-1.1,0.9-2,2-2h3"/>
			<line class="st2" x1="5.5" y1="8.5" x2="0.5" y2="8.5"/>
			<line class="st2" x1="11.5" y1="19.5" x2="0.5" y2="19.5"/>
			<line class="st2" x1="4.5" y1="6.5" x2="5.5" y2="6.5"/>
			<path class="st3" d="M6.5,21.5C6.5,21.8,6.3,22,6,22l0,0c-0.3,0-0.5-0.2-0.5-0.5l0,0C5.5,21.2,5.7,21,6,21l0,0
				C6.3,21,6.5,21.2,6.5,21.5L6.5,21.5z"/>
		</g>
	</g>
</g>
</svg>
