<?xml version="1.0" encoding="utf-8"?>
<!-- Generator: Adobe Illustrator 19.2.0, SVG Export Plug-In . SVG Version: 6.00 Build 0)  -->
<svg version="1.1" id="Layer_1" xmlns="http://www.w3.org/2000/svg" xmlns:xlink="http://www.w3.org/1999/xlink" x="0px" y="0px"
	 viewBox="0 0 24 24" style="enable-background:new 0 0 24 24;" xml:space="preserve">
<style type="text/css">
	.st0{display:none;}
	.st1{display:inline;}
	.st2{fill:none;stroke:#000000;stroke-linecap:round;stroke-linejoin:round;stroke-miterlimit:10;}
	.st3{fill:none;stroke:#000000;stroke-linejoin:round;stroke-miterlimit:10;}
</style>
<g id="Filled_Icons" class="st0">
	<g class="st1">
		<path d="M7.2,9H0v10h12v-4.1V11h-2C8.7,11,7.6,10.2,7.2,9z"/>
		<path d="M0,21.5C0,22.9,1.1,24,2.5,24h7c1.4,0,2.5-1.1,2.5-2.5V20H0V21.5z M6,20.5c0.6,0,1,0.4,1,1c0,0.6-0.4,1-1,1
			c-0.6,0-1-0.4-1-1C5,20.9,5.4,20.5,6,20.5z"/>
		<path d="M7,4H2.5C1.1,4,0,5.1,0,6.5V8h7V4z M5.5,7h-1C4.2,7,4,6.8,4,6.5C4,6.2,4.2,6,4.5,6h1C5.8,6,6,6.2,6,6.5C6,6.8,5.8,7,5.5,7
			z"/>
		<path d="M22,0H10C8.9,0,8,0.9,8,2v6c0,1.1,0.9,2,2,2h2.5H13v0.5v2c0,0.2,0.1,0.4,0.3,0.5c0.1,0,0.1,0,0.2,0c0.1,0,0.3-0.1,0.4-0.1
			l2.9-2.9h0.2H22c1.1,0,2-0.9,2-2V2C24,0.9,23.1,0,22,0z M13.5,5.5C13.2,5.5,13,5.3,13,5c0-0.3,0.2-0.5,0.5-0.5
			C13.8,4.5,14,4.7,14,5C14,5.3,13.8,5.5,13.5,5.5z M16,5.5c-0.3,0-0.5-0.2-0.5-0.5c0-0.3,0.2-0.5,0.5-0.5c0.3,0,0.5,0.2,0.5,0.5
			C16.5,5.3,16.3,5.5,16,5.5z M18.5,5.5C18.2,5.5,18,5.3,18,5c0-0.3,0.2-0.5,0.5-0.5C18.8,4.5,19,4.7,19,5C19,5.3,18.8,5.5,18.5,5.5
			z"/>
	</g>
</g>
<g id="Outline_Icons">
	<g>
		<path class="st2" d="M11.5,14.5v7c0,1.1-0.9,2-2,2h-7c-1.1,0-2-0.9-2-2v-15c0-1.1,0.9-2,2-2h3"/>
		<line class="st2" x1="5.5" y1="8.5" x2="0.5" y2="8.5"/>
		<line class="st2" x1="11.5" y1="19.5" x2="0.5" y2="19.5"/>
		<line class="st2" x1="4.5" y1="6.5" x2="5.5" y2="6.5"/>
		<path class="st2" d="M23.5,8c0,0.8-0.7,1.5-1.5,1.5h-5.5l-3,3v-3H10C9.2,9.5,8.5,8.8,8.5,8V2c0-0.8,0.7-1.5,1.5-1.5h12
			c0.8,0,1.5,0.7,1.5,1.5V8z"/>
		<g>
			<g>
				<g>
					<path d="M16.5,4C16.2,4,16,4.2,16,4.5C16,4.8,16.2,5,16.5,5C16.8,5,17,4.8,17,4.5C17,4.2,16.8,4,16.5,4L16.5,4z"/>
				</g>
			</g>
		</g>
		<g>
			<g>
				<g>
					<path d="M19.5,4C19.2,4,19,4.2,19,4.5C19,4.8,19.2,5,19.5,5C19.8,5,20,4.8,20,4.5C20,4.2,19.8,4,19.5,4L19.5,4z"/>
				</g>
			</g>
		</g>
		<g>
			<g>
				<g>
					<path d="M13.5,4C13.3,4,13,4.2,13,4.5C13,4.8,13.3,5,13.5,5C13.8,5,14,4.8,14,4.5C14,4.2,13.8,4,13.5,4L13.5,4z"/>
				</g>
			</g>
		</g>
		<path class="st3" d="M6.5,21.5C6.5,21.8,6.3,22,6,22l0,0c-0.3,0-0.5-0.2-0.5-0.5l0,0C5.5,21.2,5.7,21,6,21l0,0
			C6.3,21,6.5,21.2,6.5,21.5L6.5,21.5z"/>
	</g>
</g>
</svg>
