<?xml version="1.0" encoding="utf-8"?>
<!-- Generator: Adobe Illustrator 19.2.0, SVG Export Plug-In . SVG Version: 6.00 Build 0)  -->
<svg version="1.1" id="Layer_1" xmlns="http://www.w3.org/2000/svg" xmlns:xlink="http://www.w3.org/1999/xlink" x="0px" y="0px"
	 viewBox="0 0 24 24" style="enable-background:new 0 0 24 24;" xml:space="preserve">
<style type="text/css">
	.st0{display:none;}
	.st1{display:inline;}
	.st2{fill:none;stroke:#000000;stroke-linecap:round;stroke-linejoin:round;stroke-miterlimit:10;}
	.st3{fill:none;stroke:#000000;stroke-linejoin:round;stroke-miterlimit:10;}
</style>
<g id="Filled_Icons" class="st0">
	<g class="st1">
		<path d="M5,20v1.5C5,22.9,6.1,24,7.5,24h9c1.4,0,2.5-1.1,2.5-2.5V20H5z M12,22.5c-0.6,0-1-0.4-1-1c0-0.6,0.4-1,1-1
			c0.6,0,1,0.4,1,1C13,22.1,12.6,22.5,12,22.5z"/>
		<path d="M19,4V2.5C19,1.1,17.9,0,16.5,0h-9C6.1,0,5,1.1,5,2.5V4H19z M9.5,2h5C14.8,2,15,2.2,15,2.5C15,2.8,14.8,3,14.5,3h-5
			C9.2,3,9,2.8,9,2.5C9,2.2,9.2,2,9.5,2z"/>
		<path d="M5,5v14h14V5H5z M10.9,13.6c0.2,0.2,0.2,0.5,0,0.7c-0.1,0.1-0.2,0.2-0.4,0.2c-0.1,0-0.3,0-0.4-0.1l-2-2
			C8,12.3,8,12.1,8,12c0-0.1,0.1-0.3,0.1-0.4l2-2c0.2-0.2,0.5-0.2,0.7,0c0.2,0.2,0.2,0.5,0,0.7L9.2,12L10.9,13.6z M15.9,12.4l-2,2
			c-0.1,0.1-0.2,0.1-0.3,0.1c-0.1,0-0.3,0-0.4-0.2c-0.2-0.2-0.2-0.5,0-0.7l1.7-1.6l-1.7-1.6c-0.2-0.2-0.2-0.5,0-0.7
			c0.2-0.2,0.5-0.2,0.7,0l2,2C16,11.7,16,11.9,16,12C16,12.1,16,12.3,15.9,12.4z"/>
	</g>
</g>
<g id="Outline_Icons">
	<g>
		<g>
			<path class="st2" d="M18.5,21.5c0,1.1-0.9,2-2,2h-9c-1.1,0-2-0.9-2-2v-19c0-1.1,0.9-2,2-2h9c1.1,0,2,0.9,2,2V21.5z"/>
			<line class="st2" x1="18.5" y1="4.5" x2="5.5" y2="4.5"/>
			<line class="st2" x1="18.5" y1="19.5" x2="5.5" y2="19.5"/>
			<line class="st2" x1="9.5" y1="2.5" x2="14.5" y2="2.5"/>
			<path class="st3" d="M12.5,21.5c0,0.3-0.2,0.5-0.5,0.5l0,0c-0.3,0-0.5-0.2-0.5-0.5l0,0c0-0.3,0.2-0.5,0.5-0.5l0,0
				C12.3,21,12.5,21.2,12.5,21.5L12.5,21.5z"/>
		</g>
		<polyline class="st2" points="10.5,10 8.5,12 10.5,14 		"/>
		<polyline class="st2" points="13.5,10 15.5,12 13.5,14 		"/>
	</g>
</g>
</svg>
