<?xml version="1.0" encoding="utf-8"?>
<!-- Generator: Adobe Illustrator 19.2.0, SVG Export Plug-In . SVG Version: 6.00 Build 0)  -->
<svg version="1.1" id="Layer_1" xmlns="http://www.w3.org/2000/svg" xmlns:xlink="http://www.w3.org/1999/xlink" x="0px" y="0px"
	 viewBox="0 0 24 24" style="enable-background:new 0 0 24 24;" xml:space="preserve">
<style type="text/css">
	.st0{display:none;}
	.st1{display:inline;}
	.st2{fill:none;stroke:#000000;stroke-linecap:round;stroke-linejoin:round;stroke-miterlimit:10;}
</style>
<g id="Filled_Icons" class="st0">
	<g class="st1">
		<g>
			<polygon points="18,8 17.4,8 8.4,17 18,17 			"/>
			<polygon points="6,8 6,16.6 14.6,8 			"/>
			<path d="M18,4.6C17.8,3.7,17,3,16,3H7.6C6.9,3,6,3.9,6,5v2h9.6L18,4.6z M13.5,6h-3C10.2,6,10,5.8,10,5.5C10,5.2,10.2,5,10.5,5h3
				C13.8,5,14,5.2,14,5.5C14,5.8,13.8,6,13.5,6z"/>
			<path d="M6,19.4C6.2,20.3,7,21,8,21h8c1.1,0,2-0.9,2-2v-1H7.4L6,19.4z"/>
		</g>
		<g>
			<path d="M2,22.5c-0.1,0-0.3,0-0.4-0.1c-0.2-0.2-0.2-0.5,0-0.7l20-20c0.2-0.2,0.5-0.2,0.7,0c0.2,0.2,0.2,0.5,0,0.7l-20,20
				C2.3,22.5,2.1,22.5,2,22.5z"/>
		</g>
	</g>
</g>
<g id="Outline_Icons">
	<g>
		<path class="st2" d="M6.5,14.5V5c0-0.8,0.7-1.5,1.5-1.5h8.5"/>
		<path class="st2" d="M17.5,9.5V19c0,0.8-0.7,1.5-1.5,1.5H7.5"/>
		<line class="st2" x1="6.5" y1="7.5" x2="13.5" y2="7.5"/>
		<line class="st2" x1="9.5" y1="17.5" x2="17.5" y2="17.5"/>
		<line class="st2" x1="10.5" y1="5.5" x2="13.5" y2="5.5"/>
		<line class="st2" x1="2" y1="22" x2="22" y2="2"/>
	</g>
</g>
</svg>
