<?xml version="1.0" encoding="utf-8"?>
<!-- Generator: Adobe Illustrator 19.2.0, SVG Export Plug-In . SVG Version: 6.00 Build 0)  -->
<svg version="1.1" id="Layer_1" xmlns="http://www.w3.org/2000/svg" xmlns:xlink="http://www.w3.org/1999/xlink" x="0px" y="0px"
	 viewBox="0 0 24 24" style="enable-background:new 0 0 24 24;" xml:space="preserve">
<style type="text/css">
	.st0{display:none;}
	.st1{display:inline;}
	.st2{fill:none;stroke:#000000;stroke-linecap:round;stroke-linejoin:round;stroke-miterlimit:10;}
</style>
<g id="Filled_Icons" class="st0">
	<path class="st1" d="M16.5,0h-9C5.6,0,4,1.6,4,3.5v17C4,22.4,5.6,24,7.5,24h9c1.9,0,3.5-1.6,3.5-3.5v-17C20,1.6,18.4,0,16.5,0z
		 M9.5,2h5C14.8,2,15,2.2,15,2.5C15,2.8,14.8,3,14.5,3h-5C9.2,3,9,2.8,9,2.5C9,2.2,9.2,2,9.5,2z M9,21H8v-1h1V21z M14,21.5
		c0,0.3-0.2,0.5-0.5,0.5h-3c-0.3,0-0.5-0.2-0.5-0.5v-2c0-0.3,0.2-0.5,0.5-0.5h3c0.3,0,0.5,0.2,0.5,0.5V21.5z M16,21h-1v-1h1V21z
		 M18,16.5c0,0.8-0.7,1.5-1.5,1.5h-9C6.7,18,6,17.3,6,16.5v-11C6,4.7,6.7,4,7.5,4h9C17.3,4,18,4.7,18,5.5V16.5z"/>
</g>
<g id="Outline_Icons">
	<g>
		<path class="st2" d="M17.5,16.5c0,0.5-0.5,1-1,1h-9c-0.5,0-1-0.5-1-1v-11c0-0.5,0.5-1,1-1h9c0.5,0,1,0.5,1,1V16.5z"/>
		<path class="st2" d="M19.5,20.5c0,1.7-1.3,3-3,3h-9c-1.6,0-3-1.3-3-3v-17c0-1.6,1.4-3,3-3h9c1.7,0,3,1.4,3,3V20.5z"/>
		<line class="st2" x1="9.5" y1="2.5" x2="14.5" y2="2.5"/>
		<g>
			<g>
				<g>
					<polygon points="9,20 8,20 8,21 9,21 					"/>
				</g>
			</g>
		</g>
		<g>
			<g>
				<g>
					<polygon points="16,20 15,20 15,21 16,21 					"/>
				</g>
			</g>
		</g>
		<rect x="10.5" y="19.5" class="st2" width="3" height="2"/>
	</g>
</g>
</svg>
