<?xml version="1.0" encoding="utf-8"?>
<!-- Generator: Adobe Illustrator 19.2.0, SVG Export Plug-In . SVG Version: 6.00 Build 0)  -->
<svg version="1.1" id="Outline_Icons" xmlns="http://www.w3.org/2000/svg" xmlns:xlink="http://www.w3.org/1999/xlink" x="0px"
	 y="0px" viewBox="0 0 24 24" style="enable-background:new 0 0 24 24;" xml:space="preserve">
<style type="text/css">
	.st0{fill:none;stroke:#000000;stroke-linecap:round;stroke-linejoin:round;stroke-miterlimit:10;}
	.st1{fill:none;stroke:#000000;stroke-linejoin:round;stroke-miterlimit:10;}
</style>
<g>
	<g>
		<path class="st0" d="M18.5,21.5c0,1.1-0.9,2-2,2h-9c-1.1,0-2-0.9-2-2v-19c0-1.1,0.9-2,2-2h9c1.1,0,2,0.9,2,2V21.5z"/>
		<line class="st0" x1="18.5" y1="4.5" x2="5.5" y2="4.5"/>
		<line class="st0" x1="18.5" y1="19.5" x2="5.5" y2="19.5"/>
		<line class="st0" x1="9.5" y1="2.5" x2="14.5" y2="2.5"/>
		<path class="st1" d="M12.5,21.5c0,0.3-0.2,0.5-0.5,0.5l0,0c-0.3,0-0.5-0.2-0.5-0.5l0,0c0-0.3,0.2-0.5,0.5-0.5l0,0
			C12.3,21,12.5,21.2,12.5,21.5L12.5,21.5z"/>
	</g>
	<g>
		<polyline class="st0" points="8,7.5 9.5,7.5 9.5,13.5 15.5,13.5 15.5,9.5 9.5,9.5 		"/>
		<circle class="st0" cx="10.5" cy="15.5" r="0.5"/>
		<circle class="st0" cx="14.5" cy="15.5" r="0.5"/>
	</g>
</g>
</svg>
