<?xml version="1.0" encoding="utf-8"?>
<!-- Generator: Adobe Illustrator 19.2.0, SVG Export Plug-In . SVG Version: 6.00 Build 0)  -->
<svg version="1.1" id="Layer_1" xmlns="http://www.w3.org/2000/svg" xmlns:xlink="http://www.w3.org/1999/xlink" x="0px" y="0px"
	 viewBox="0 0 24 24" style="enable-background:new 0 0 24 24;" xml:space="preserve">
<style type="text/css">
	.st0{display:none;}
	.st1{display:inline;}
	.st2{fill:none;stroke:#000000;stroke-linejoin:round;stroke-miterlimit:10;}
	.st3{fill:none;stroke:#000000;stroke-linecap:round;stroke-linejoin:round;stroke-miterlimit:10;}
</style>
<g id="Filled_Icons" class="st0">
	<path class="st1" d="M16.5,3H8V0.5C8,0.2,7.8,0,7.5,0C7.2,0,7,0.2,7,0.5v2.6C5.9,3.3,5,4.3,5,5.5v16C5,22.9,6.1,24,7.5,24h9
		c1.4,0,2.5-1.1,2.5-2.5v-16C19,4.1,17.9,3,16.5,3z M10,21H9v-1h1V21z M10,19H9v-1h1V19z M10,17H9v-1h1V17z M12.5,21h-1v-1h1V21z
		 M12.5,19h-1v-1h1V19z M12.5,17h-1v-1h1V17z M15,21h-1v-1h1V21z M15,19h-1v-1h1V19z M15,17h-1v-1h1V17z M17,14H7V6h10V14z"/>
</g>
<g id="Outline_Icons">
	<g>
		<g>
			<g>
				<g>
					<g>
						<g>
							<polygon points="10,16 9,16 9,17 10,17 							"/>
						</g>
					</g>
				</g>
			</g>
			<g>
				<g>
					<g>
						<g>
							<polygon points="12.5,16 11.5,16 11.5,17 12.5,17 							"/>
						</g>
					</g>
				</g>
			</g>
			<g>
				<g>
					<g>
						<g>
							<polygon points="15,16 14,16 14,17 15,17 							"/>
						</g>
					</g>
				</g>
			</g>
			<g>
				<g>
					<g>
						<g>
							<polygon points="10,18 9,18 9,19 10,19 							"/>
						</g>
					</g>
				</g>
			</g>
			<g>
				<g>
					<g>
						<g>
							<polygon points="12.5,18 11.5,18 11.5,19 12.5,19 							"/>
						</g>
					</g>
				</g>
			</g>
			<g>
				<g>
					<g>
						<g>
							<polygon points="15,18 14,18 14,19 15,19 							"/>
						</g>
					</g>
				</g>
			</g>
			<g>
				<g>
					<g>
						<g>
							<polygon points="10,20 9,20 9,21 10,21 							"/>
						</g>
					</g>
				</g>
			</g>
			<g>
				<g>
					<g>
						<g>
							<polygon points="12.5,20 11.5,20 11.5,21 12.5,21 							"/>
						</g>
					</g>
				</g>
			</g>
			<g>
				<g>
					<g>
						<g>
							<polygon points="15,20 14,20 14,21 15,21 							"/>
						</g>
					</g>
				</g>
			</g>
		</g>
		<path class="st2" d="M18.5,21.5c0,1.1-0.9,2-2,2h-9c-1.1,0-2-0.9-2-2v-16c0-1.1,0.9-2,2-2h9c1.1,0,2,0.9,2,2V21.5z"/>
		<rect x="7.5" y="6.5" class="st2" width="9" height="7"/>
		<line class="st3" x1="7.5" y1="3.5" x2="7.5" y2="0.5"/>
	</g>
</g>
</svg>
