<?xml version="1.0" encoding="utf-8"?>
<!-- Generator: Adobe Illustrator 19.2.0, SVG Export Plug-In . SVG Version: 6.00 Build 0)  -->
<svg version="1.1" id="Layer_1" xmlns="http://www.w3.org/2000/svg" xmlns:xlink="http://www.w3.org/1999/xlink" x="0px" y="0px"
	 viewBox="0 0 24 24" style="enable-background:new 0 0 24 24;" xml:space="preserve">
<style type="text/css">
	.st0{display:none;}
	.st1{display:inline;}
	.st2{fill:none;stroke:#000000;stroke-linecap:round;stroke-linejoin:round;stroke-miterlimit:10;}
</style>
<g id="Filled_Icons" class="st0">
	<g class="st1">
		<circle cx="3.5" cy="14.5" r="0.5"/>
		<path d="M17.9,5.1C17.8,5.1,17.6,5,17.5,5h-11C6.4,5,6.2,5.1,6.1,5.1L0.3,11h23.4L17.9,5.1z"/>
		<path d="M0,12v3.5c0,1.2,0.9,2.2,2,2.4v0.6C2,18.8,2.2,19,2.5,19C2.8,19,3,18.8,3,18.5V18h18v0.5c0,0.3,0.2,0.5,0.5,0.5
			c0.3,0,0.5-0.2,0.5-0.5v-0.6c1.1-0.2,2-1.2,2-2.4V12H0z M3.5,16C2.7,16,2,15.3,2,14.5C2,13.7,2.7,13,3.5,13C4.3,13,5,13.7,5,14.5
			C5,15.3,4.3,16,3.5,16z M14,15.5c-0.6,0-1-0.4-1-1c0-0.6,0.4-1,1-1c0.6,0,1,0.4,1,1C15,15.1,14.6,15.5,14,15.5z M17,15.5
			c-0.6,0-1-0.4-1-1c0-0.6,0.4-1,1-1c0.6,0,1,0.4,1,1C18,15.1,17.6,15.5,17,15.5z M20,15.5c-0.6,0-1-0.4-1-1c0-0.6,0.4-1,1-1
			c0.6,0,1,0.4,1,1C21,15.1,20.6,15.5,20,15.5z"/>
	</g>
</g>
<g id="Outline_Icons">
	<g>
		<path class="st2" d="M23.5,15.5c0,1.1-0.9,2-2,2h-19c-1.1,0-2-0.9-2-2v-4h23V15.5z"/>
		<polyline class="st2" points="0.5,11.5 6.5,5.5 17.5,5.5 23.5,11.5 		"/>
		<circle class="st2" cx="14" cy="14.5" r="0.5"/>
		<circle class="st2" cx="17" cy="14.5" r="0.5"/>
		<circle class="st2" cx="20" cy="14.5" r="0.5"/>
		<circle class="st2" cx="3.5" cy="14.5" r="1"/>
		<line class="st2" x1="2.5" y1="17.5" x2="2.5" y2="18.5"/>
		<line class="st2" x1="21.5" y1="17.5" x2="21.5" y2="18.5"/>
	</g>
</g>
</svg>
