<?xml version="1.0" encoding="utf-8"?>
<!-- Generator: Adobe Illustrator 19.2.0, SVG Export Plug-In . SVG Version: 6.00 Build 0)  -->
<svg version="1.1" id="Layer_1" xmlns="http://www.w3.org/2000/svg" xmlns:xlink="http://www.w3.org/1999/xlink" x="0px" y="0px"
	 viewBox="0 0 24 24" style="enable-background:new 0 0 24 24;" xml:space="preserve">
<style type="text/css">
	.st0{display:none;}
	.st1{display:inline;}
	.st2{fill:none;stroke:#000000;stroke-linecap:round;stroke-linejoin:round;stroke-miterlimit:10;}
</style>
<g id="Filled_Icon" class="st0">
	<g class="st1">
		<polygon points="16,18.8 12,16.4 12,21.2 16,23.8 		"/>
		<polygon points="11,16.4 7,18.8 7,23.8 11,21.2 		"/>
		<polygon points="12,14.6 17,11.4 17,7.8 12,10.8 		"/>
		<polygon points="11,10.8 6,7.8 6,11.4 11,14.6 		"/>
		<polygon points="6.5,17.9 10.6,15.5 5.6,12.3 1.5,14.9 		"/>
		<path d="M6,18.8l-5-3v4.5c0,0.2,0.1,0.3,0.2,0.4L6,23.8V18.8z"/>
		<path d="M17,18.8v5l4.8-3.1c0.1-0.1,0.2-0.3,0.2-0.4v-4.5L17,18.8z"/>
		<polygon points="17.4,12.3 12.4,15.5 16.5,17.9 21.5,14.9 		"/>
		<path d="M11.5,9.9l5-3l-4.7-2.8c-0.2-0.1-0.4-0.1-0.5,0L6.5,6.9L11.5,9.9z"/>
	</g>
</g>
<g id="Outline_Icons">
	<g>
		<polyline class="st2" points="16.5,7.5 16.5,12.3 11.5,15.5 6.5,12.3 6.5,7.5 		"/>
		<polygon class="st2" points="16.5,7.5 11.5,10.5 6.5,7.5 11.5,4.5 		"/>
		<line class="st2" x1="11.5" y1="10.5" x2="11.5" y2="15.5"/>
		<polyline class="st2" points="21.5,15.5 21.5,20.3 16.5,23.5 11.5,20.3 11.5,15.5 		"/>
		<polygon class="st2" points="21.5,15.5 16.5,18.5 11.5,15.5 16.5,12.3 		"/>
		<line class="st2" x1="16.5" y1="18.5" x2="16.5" y2="23.5"/>
		<polyline class="st2" points="11.5,15.5 11.5,20.3 6.5,23.5 1.5,20.3 1.5,15.5 		"/>
		<polygon class="st2" points="11.5,15.5 6.5,18.5 1.5,15.5 6.5,12.3 		"/>
		<line class="st2" x1="6.5" y1="18.5" x2="6.5" y2="23.5"/>
	</g>
</g>
</svg>
