<?xml version="1.0" encoding="utf-8"?>
<!-- Generator: Adobe Illustrator 19.2.0, SVG Export Plug-In . SVG Version: 6.00 Build 0)  -->
<svg version="1.1" id="Layer_1" xmlns="http://www.w3.org/2000/svg" xmlns:xlink="http://www.w3.org/1999/xlink" x="0px" y="0px"
	 viewBox="0 0 24 24" style="enable-background:new 0 0 24 24;" xml:space="preserve">
<style type="text/css">
	.st0{display:none;}
	.st1{display:inline;}
	.st2{fill:none;stroke:#000000;stroke-linecap:round;stroke-linejoin:round;stroke-miterlimit:10;}
</style>
<g id="Filled_Icon" class="st0">
	<g class="st1">
		<path d="M22.2,9.4c0.2-0.3,0.3-0.6,0.3-0.9c0-1.1-1.5-2-3.5-2c-0.9,0-1.7,0.2-2.3,0.5l-1.5-0.6c0.2-0.3,0.3-0.5,0.3-0.8
			c0-1.1-1.5-2-3.5-2s-3.5,0.9-3.5,2c0,0.3,0.1,0.6,0.3,0.8L7.6,6.9C7,6.6,6.3,6.5,5.5,6.5c-2,0-3.5,0.9-3.5,2C2,8.8,2.1,9,2.2,9.2
			L0.6,9.9L12,15l11.4-5L22.2,9.4z M5.5,9.5C4,9.5,3,8.9,3,8.5s1-1,2.5-1S8,8.1,8,8.5S7,9.5,5.5,9.5z M12,12c-1.5,0-2.5-0.6-2.5-1
			s1-1,2.5-1s2.5,0.6,2.5,1S13.5,12,12,12z M12,6.5c-1.5,0-2.5-0.6-2.5-1s1-1,2.5-1s2.5,0.6,2.5,1S13.5,6.5,12,6.5z M19,9.5
			c-1.5,0-2.5-0.6-2.5-1s1-1,2.5-1s2.5,0.6,2.5,1S20.5,9.5,19,9.5z"/>
		<path d="M12.5,15.8v8L23.7,19c0.2-0.1,0.3-0.3,0.3-0.5v-7.7L12.5,15.8z"/>
		<path d="M0,18.5c0,0.2,0.1,0.4,0.3,0.5l11.2,4.9v-8L0,10.8V18.5z"/>
	</g>
</g>
<g id="Outline_Icons">
	<g>
		<polygon class="st2" points="11.5,15.5 0.5,10.5 0.5,18.5 11.5,23.5 		"/>
		<polygon class="st2" points="23.5,10.5 11.5,15.5 11.5,23.5 23.5,18.5 		"/>
		<ellipse class="st2" cx="12" cy="11" rx="3" ry="1.5"/>
		<ellipse class="st2" cx="12" cy="5.5" rx="3" ry="1.5"/>
		<ellipse class="st2" cx="19" cy="8.5" rx="3" ry="1.5"/>
		<ellipse class="st2" cx="5.5" cy="8.5" rx="3" ry="1.5"/>
		<line class="st2" x1="3.1" y1="9.4" x2="0.5" y2="10.5"/>
		<line class="st2" x1="9.7" y1="6.5" x2="7.6" y2="7.4"/>
		<line class="st2" x1="16.7" y1="7.5" x2="14.3" y2="6.5"/>
		<line class="st2" x1="23.5" y1="10.5" x2="21.2" y2="9.5"/>
	</g>
</g>
</svg>
