<?xml version="1.0" encoding="utf-8"?>
<!-- Generator: Adobe Illustrator 19.2.0, SVG Export Plug-In . SVG Version: 6.00 Build 0)  -->
<svg version="1.1" id="Layer_1" xmlns="http://www.w3.org/2000/svg" xmlns:xlink="http://www.w3.org/1999/xlink" x="0px" y="0px"
	 viewBox="0 0 24 24" style="enable-background:new 0 0 24 24;" xml:space="preserve">
<style type="text/css">
	.st0{display:none;}
	.st1{display:inline;}
	.st2{fill:none;stroke:#000000;stroke-linecap:round;stroke-linejoin:round;stroke-miterlimit:10;}
	.st3{fill:none;stroke:#000000;stroke-linejoin:round;stroke-miterlimit:10;}
</style>
<g id="Filled_Icons" class="st0">
	<g class="st1">
		<path d="M1.5,15.5l-1.3,1.3c-0.2,0.2-0.3,0.5-0.1,1C0.7,19.3,5.3,24,6.8,24c0.3,0,0.4-0.1,0.5-0.2l1.3-1.3L1.5,15.5z"/>
		<polygon points="4.3,12.6 2.2,14.8 9.2,21.8 11.4,19.7 		"/>
		<path d="M22.7,0.6c0.1,2-1.7,3.3-2.8,3.4c0-0.6,0.1-1.1,0.5-1.5c-1.4-0.8-2.7-0.6-3.8,0.2c-1.4,1.1-1.7,3.1-0.7,4.6L15.2,8
			l-0.7-0.7c-0.2-0.2-0.5-0.2-0.7,0l-1.1,1.1l2.8,2.8l1.1-1.1c0.1-0.1,0.1-0.2,0.1-0.4c0-0.1-0.1-0.3-0.1-0.4l-0.8-0.8l0.6-0.6
			c1.3,1.1,3.2,1.2,4.5,0.1C23.2,6.4,24,3.2,22.7,0.6z"/>
		<path d="M12.1,9.1l-1,1c-0.2,0.2-1.1,0.3-1.8,0.4c-1.4,0.2-3.2,0.4-4.2,1.4L5,11.9l7.1,7.1l0.1-0.1c0.9-0.9,1.2-2.7,1.4-4.2
			c0.1-0.7,0.2-1.7,0.4-1.8l1-1L12.1,9.1z"/>
	</g>
</g>
<g id="Outline_Icons">
	<g>
		<path class="st2" d="M13.6,12.6c0.7-0.7,2.7-2.7,2.7-2.7l-2.1-2.1c0,0-2,2-2.7,2.7c-0.7,0.7-4.6,0.4-6,1.8
			c-1.4,1.4-4.2,4.2-4.9,4.9c-0.7,0.7,5.7,7.1,6.4,6.4c0.7-0.7,3.5-3.5,4.9-4.9C13.2,17.1,12.9,13.3,13.6,12.6z"/>
		<line class="st2" x1="12.8" y1="9.1" x2="14.9" y2="11.2"/>
		<line class="st2" x1="5" y1="12.6" x2="11.4" y2="19"/>
		<line class="st2" x1="2.2" y1="15.5" x2="8.5" y2="21.8"/>
		<path class="st3" d="M22.7,0.6c0.1,2-1.7,3.3-2.8,3.4c0-0.6,0.1-1.1,0.5-1.5c-1.4-0.8-2.7-0.6-3.8,0.2c-1.5,1.2-1.7,3.4-0.5,4.9
			c1.2,1.5,3.4,1.7,4.9,0.5C23.2,6.4,24,3.2,22.7,0.6z"/>
		<line class="st2" x1="17.7" y1="6.1" x2="15.2" y2="8.7"/>
	</g>
</g>
</svg>
