<?xml version="1.0" encoding="utf-8"?>
<!-- Generator: Adobe Illustrator 19.2.0, SVG Export Plug-In . SVG Version: 6.00 Build 0)  -->
<svg version="1.1" id="Layer_1" xmlns="http://www.w3.org/2000/svg" xmlns:xlink="http://www.w3.org/1999/xlink" x="0px" y="0px"
	 viewBox="0 0 24 24" style="enable-background:new 0 0 24 24;" xml:space="preserve">
<style type="text/css">
	.st0{display:none;}
	.st1{display:inline;}
	.st2{fill:none;stroke:#000000;stroke-linecap:round;stroke-linejoin:round;stroke-miterlimit:10;}
</style>
<g id="Filled_Icon" class="st0">
	<g class="st1">
		<path d="M15.1,10.1C15,10,14.9,10,14.8,10H9.2c-0.1,0-0.2,0-0.3,0.1C6.5,11.9,4,15.3,4,18c0,4.1,2.5,6,8,6s8-1.9,8-6
			C20,15.3,17.5,11.9,15.1,10.1z M12,16.5c1.1,0,2,0.9,2,2c0,0.9-0.6,1.7-1.5,1.9V21c0,0.3-0.2,0.5-0.5,0.5s-0.5-0.2-0.5-0.5v-0.6
			c-0.9-0.2-1.5-1-1.5-1.9c0-0.3,0.2-0.5,0.5-0.5s0.5,0.2,0.5,0.5c0,0.6,0.4,1,1,1s1-0.4,1-1s-0.4-1-1-1c-1.1,0-2-0.9-2-2
			c0-0.9,0.6-1.7,1.5-1.9V13c0-0.3,0.2-0.5,0.5-0.5s0.5,0.2,0.5,0.5v0.6c0.9,0.2,1.5,1,1.5,1.9c0,0.3-0.2,0.5-0.5,0.5
			S13,15.8,13,15.5c0-0.6-0.4-1-1-1s-1,0.4-1,1S11.4,16.5,12,16.5z"/>
		<path d="M9,6.5C9,6.8,9.2,7,9.5,7h5C14.8,7,15,6.8,15,6.5c0-1.8,1.9-4.7,1.9-4.7c0.1-0.2,0.1-0.4,0-0.6C16.7,1,16.5,1,16.3,1
			l-3,1.3l-0.8-2C12.4,0.1,12.2,0,12,0s-0.4,0.1-0.5,0.3l-0.8,2L7.7,1C7.5,1,7.3,1,7.1,1.2C7,1.4,7,1.6,7.1,1.8C7.1,1.8,9,4.7,9,6.5
			z"/>
		<path d="M8.5,8C8.2,8,8,8.2,8,8.5S8.2,9,8.5,9h7C15.8,9,16,8.8,16,8.5S15.8,8,15.5,8H8.5z"/>
	</g>
</g>
<g id="Outline_Icons">
	<g>
		<g>
			<path class="st2" d="M11,18.5c0,0.8,0.7,1.5,1.5,1.5s1.5-0.7,1.5-1.5S13.3,17,12.5,17S11,16.3,11,15.5c0-0.8,0.7-1.5,1.5-1.5
				s1.5,0.7,1.5,1.5"/>
			<line class="st2" x1="12.5" y1="20" x2="12.5" y2="21"/>
			<line class="st2" x1="12.5" y1="13" x2="12.5" y2="14"/>
		</g>
		<path class="st2" d="M14.8,10.5H9.2C7,12.1,4.5,15.4,4.5,18c0,3.6,2,5.5,7.5,5.5s7.5-1.9,7.5-5.5C19.5,15.4,17,12.1,14.8,10.5z"/>
		<line class="st2" x1="8.5" y1="8.5" x2="15.5" y2="8.5"/>
		<path class="st2" d="M16.5,1.5L13,3l-1-2.5L11,3L7.5,1.5c0,0,2,3,2,5h5C14.5,4.5,16.5,1.5,16.5,1.5z"/>
	</g>
</g>
</svg>
