<?xml version="1.0" encoding="utf-8"?>
<!-- Generator: Adobe Illustrator 19.2.0, SVG Export Plug-In . SVG Version: 6.00 Build 0)  -->
<svg version="1.1" id="Layer_1" xmlns="http://www.w3.org/2000/svg" xmlns:xlink="http://www.w3.org/1999/xlink" x="0px" y="0px"
	 viewBox="0 0 24 24" style="enable-background:new 0 0 24 24;" xml:space="preserve">
<style type="text/css">
	.st0{display:none;}
	.st1{display:inline;}
	.st2{fill:none;stroke:#000000;stroke-linecap:round;stroke-linejoin:round;stroke-miterlimit:10;}
</style>
<g id="Filled_Icons" class="st0">
	<g class="st1">
		<path d="M6.5,0C2.9,0,0,2.9,0,6.5S2.9,13,6.5,13S13,10.1,13,6.5C13,2.9,10.1,0,6.5,0z M6.5,11C6.2,11,6,10.8,6,10.5S6.2,10,6.5,10
			C8.4,10,10,8.4,10,6.5C10,6.2,10.2,6,10.5,6S11,6.2,11,6.5C11,9,9,11,6.5,11z"/>
		<circle cx="14.5" cy="6" r="0.5"/>
		<path d="M22,7c-1.1,0-2,0.9-2,2v11.5c0,1.4-1.1,2.5-2.5,2.5c-1.4,0-2.5-1.1-2.5-2.5V7.4c0-0.3-0.2-0.5-0.5-0.5S14,7.2,14,7.4v13.1
			c0,1.9,1.6,3.5,3.5,3.5s3.5-1.6,3.5-3.5V9c0-0.6,0.4-1,1-1c0.6,0,1,0.4,1,1v1.4c0,0.3,0.2,0.5,0.5,0.5s0.5-0.2,0.5-0.5V9
			C24,7.9,23.1,7,22,7z"/>
	</g>
</g>
<g id="Outline_Icons">
	<g>
		<circle class="st2" cx="6.5" cy="6.5" r="6"/>
		<g>
			<g>
				<path d="M14.5,5.5C14.2,5.5,14,5.7,14,6s0.2,0.5,0.5,0.5S15,6.3,15,6S14.8,5.5,14.5,5.5L14.5,5.5z"/>
			</g>
		</g>
		<path class="st2" d="M10.5,6.5c0,2.2-1.8,4-4,4"/>
		<path class="st2" d="M23.5,10.4V9c0-0.8-0.7-1.5-1.5-1.5S20.5,8.2,20.5,9v11.5c0,1.7-1.3,3-3,3c-1.7,0-3-1.3-3-3V7.4"/>
	</g>
</g>
</svg>
