<?xml version="1.0" encoding="utf-8"?>
<!-- Generator: Adobe Illustrator 19.2.0, SVG Export Plug-In . SVG Version: 6.00 Build 0)  -->
<svg version="1.1" id="Layer_1" xmlns="http://www.w3.org/2000/svg" xmlns:xlink="http://www.w3.org/1999/xlink" x="0px" y="0px"
	 viewBox="0 0 24 24" style="enable-background:new 0 0 24 24;" xml:space="preserve">
<style type="text/css">
	.st0{display:none;}
	.st1{display:inline;}
	.st2{fill:none;stroke:#000000;stroke-linecap:round;stroke-linejoin:round;stroke-miterlimit:10;}
</style>
<g id="Filled_Icon" class="st0">
	<g class="st1">
		<g>
			<path d="M16.5,16.3C16.4,16.2,16.2,16,16,16h-2v-4.5c0-0.3-0.2-0.5-0.5-0.5h-4C9.2,11,9,11.2,9,11.5V16H7c-0.2,0-0.4,0.1-0.5,0.3
				c-0.1,0.2,0,0.4,0.1,0.6l4.5,4c0.1,0.1,0.2,0.1,0.3,0.1s0.2,0,0.3-0.1l4.5-4C16.5,16.8,16.5,16.5,16.5,16.3z"/>
		</g>
		<g>
			<path d="M23,24H1c-0.6,0-1-0.4-1-1s0.4-1,1-1h22c0.6,0,1,0.4,1,1S23.6,24,23,24z"/>
		</g>
		<g>
			<path d="M21,11.2c-0.1-0.1-0.3-0.2-0.5-0.2c-5.4,0-9.2-5.3-7.6-10.3c0-0.2,0-0.3-0.1-0.4C12.7,0.1,12.5,0,12.4,0
				c-5,0.1-8.9,4.2-8.9,9c0,2.2,0.9,4.5,2.6,6.3C6.3,15.1,6.6,15,7,15h1v-3.5C8,10.7,8.7,10,9.5,10h4c0.8,0,1.5,0.7,1.5,1.5V15h1
				c0.6,0,1.2,0.4,1.4,1c0.1,0.2,0.1,0.3,0.1,0.5c1.7-1.1,3-2.9,3.6-4.9C21.2,11.5,21.1,11.3,21,11.2z"/>
		</g>
	</g>
</g>
<g id="Outline_Icons">
	<g>
		<polygon class="st2" points="6.9,17.5 11.5,21.5 16,17.5 13.5,17.5 13.5,12.5 9.5,12.5 9.5,17.5 		"/>
		<line class="st2" x1="0.5" y1="23.5" x2="22.5" y2="23.5"/>
		<path class="st2" d="M18.5,16c1-1,1.7-2.2,2.1-3.5h-0.1C15.8,12.5,12,8.7,12,4c0-0.9,0.1-1.7,0.4-2.5C7.7,1.6,4,5.3,4,10
			c0,1.4,0.4,2.8,1,4"/>
	</g>
</g>
</svg>
