<?xml version="1.0" encoding="utf-8"?>
<!-- Generator: Adobe Illustrator 19.2.0, SVG Export Plug-In . SVG Version: 6.00 Build 0)  -->
<svg version="1.1" id="Layer_1" xmlns="http://www.w3.org/2000/svg" xmlns:xlink="http://www.w3.org/1999/xlink" x="0px" y="0px"
	 viewBox="0 0 24 24" style="enable-background:new 0 0 24 24;" xml:space="preserve">
<style type="text/css">
	.st0{display:none;}
	.st1{display:inline;}
	.st2{fill:none;stroke:#000000;stroke-linecap:round;stroke-linejoin:round;stroke-miterlimit:10;}
</style>
<g id="Filled_Icon" class="st0">
	<path class="st1" d="M14.6,0.4c-0.1-0.1-0.2-0.1-0.3-0.1C13.5,0.1,12.8,0,12,0C5.4,0,0,5.4,0,12s5.4,12,12,12
		c0.8,0,1.6-0.1,2.3-0.2c0.1,0,0.2-0.1,0.3-0.1C17.4,20.8,19,16.5,19,12S17.4,3.2,14.6,0.4z"/>
</g>
<g id="Outline_Icons">
	<g>
		<path class="st2" d="M14.2,0.7c-0.7-0.1-1.5-0.2-2.2-0.2C5.6,0.5,0.5,5.6,0.5,12S5.6,23.5,12,23.5c0.8,0,1.5-0.1,2.2-0.2
			c2.6-2.7,4.3-6.7,4.3-11.3S16.8,3.4,14.2,0.7z"/>
	</g>
</g>
</svg>
