<?xml version="1.0" encoding="utf-8"?>
<!-- Generator: Adobe Illustrator 19.2.0, SVG Export Plug-In . SVG Version: 6.00 Build 0)  -->
<svg version="1.1" id="Layer_1" xmlns="http://www.w3.org/2000/svg" xmlns:xlink="http://www.w3.org/1999/xlink" x="0px" y="0px"
	 viewBox="0 0 24 24" style="enable-background:new 0 0 24 24;" xml:space="preserve">
<style type="text/css">
	.st0{display:none;}
	.st1{display:inline;}
	.st2{fill:none;stroke:#000000;stroke-linecap:round;stroke-linejoin:round;stroke-miterlimit:10;}
</style>
<g id="Filled_Icon" class="st0">
	<g class="st1">
		<path d="M21,11.2c-0.1-0.1-0.3-0.2-0.5-0.2c-5.4,0-9.2-5.2-7.6-10.3c0-0.2,0-0.3-0.1-0.4C12.7,0.1,12.5,0,12.4,0
			C7.3,0.1,3.5,4.3,3.5,9c0,2,0.7,4,2.1,5.8c0.1-0.1,0.2-0.3,0.3-0.4l4.5-4c0.6-0.5,1.4-0.5,2,0l4.5,4c0.5,0.4,0.6,1.1,0.4,1.7
			c-0.2,0.6-0.8,1-1.4,1h-1v0.7c3.1-0.9,5.3-3.3,6.1-6C21.2,11.5,21.1,11.3,21,11.2z"/>
		<path d="M16.3,15.1l-4.5-4c-0.2-0.2-0.5-0.2-0.7,0l-4.5,4c-0.2,0.1-0.2,0.4-0.1,0.6C6.6,15.9,6.7,16,6.9,16h2v4.5
			C9,20.8,9.2,21,9.5,21h4c0.3,0,0.5-0.2,0.5-0.5V16h2c0.2,0,0.4-0.1,0.5-0.3C16.5,15.5,16.5,15.3,16.3,15.1z"/>
		<g>
			<path d="M23,24H1c-0.6,0-1-0.4-1-1s0.4-1,1-1h22c0.6,0,1,0.4,1,1S23.5,24,23,24z"/>
		</g>
	</g>
</g>
<g id="Outline_Icons">
	<g>
		<polygon class="st2" points="6.9,16.5 11.5,12.5 16,16.5 13.5,16.5 13.5,21.5 9.5,21.5 9.5,16.5 		"/>
		<line class="st2" x1="0.5" y1="23.5" x2="22.5" y2="23.5"/>
		<path class="st2" d="M18.5,16c1-1,1.7-2.2,2.1-3.5h-0.1C15.8,12.5,12,8.7,12,4c0-0.9,0.1-1.7,0.4-2.5C7.7,1.6,4,5.3,4,10
			c0,1.4,0.4,2.8,1,4"/>
	</g>
</g>
</svg>
