<?xml version="1.0" encoding="utf-8"?>
<!-- Generator: Adobe Illustrator 19.2.0, SVG Export Plug-In . SVG Version: 6.00 Build 0)  -->
<svg version="1.1" id="Layer_1" xmlns="http://www.w3.org/2000/svg" xmlns:xlink="http://www.w3.org/1999/xlink" x="0px" y="0px"
	 viewBox="0 0 24 24" style="enable-background:new 0 0 24 24;" xml:space="preserve">
<style type="text/css">
	.st0{display:none;}
	.st1{display:inline;}
	.st2{fill:none;stroke:#000000;stroke-linecap:round;stroke-linejoin:round;stroke-miterlimit:10;}
</style>
<g id="Filled_Icon" class="st0">
	<path class="st1" d="M12,0c-0.8,0-1.5,0.1-2.3,0.2c-0.1,0-0.2,0.1-0.3,0.1C6.6,3.2,5,7.5,5,12s1.6,8.8,4.4,11.6
		c0.1,0.1,0.2,0.1,0.3,0.1c0.8,0.1,1.5,0.2,2.3,0.2c6.6,0,12-5.4,12-12C24,5.4,18.6,0,12,0z"/>
</g>
<g id="Outline_Icons">
	<g>
		<path class="st2" d="M9.8,23.3c0.7,0.1,1.5,0.2,2.2,0.2c6.4,0,11.5-5.1,11.5-11.5S18.4,0.5,12,0.5c-0.8,0-1.5,0.1-2.2,0.2
			C7.2,3.4,5.5,7.4,5.5,12S7.2,20.6,9.8,23.3z"/>
	</g>
</g>
</svg>
