<?xml version="1.0" encoding="utf-8"?>
<!-- Generator: Adobe Illustrator 19.2.0, SVG Export Plug-In . SVG Version: 6.00 Build 0)  -->
<svg version="1.1" id="Layer_1" xmlns="http://www.w3.org/2000/svg" xmlns:xlink="http://www.w3.org/1999/xlink" x="0px" y="0px"
	 viewBox="0 0 24 24" style="enable-background:new 0 0 24 24;" xml:space="preserve">
<style type="text/css">
	.st0{display:none;}
	.st1{display:inline;}
	.st2{fill:none;stroke:#000000;stroke-linecap:round;stroke-linejoin:round;stroke-miterlimit:10;}
</style>
<g id="Filled_Icon" class="st0">
	<path class="st1" d="M12,0c-0.4,0-0.9,0-1.4,0.1c-0.2,0-0.4,0.2-0.4,0.4s0.1,0.4,0.3,0.5C14.4,3,17,7.3,17,12s-2.6,9-6.5,11
		c-0.2,0.1-0.3,0.3-0.3,0.5s0.2,0.4,0.4,0.4c0.5,0.1,1,0.1,1.4,0.1c6.6,0,12-5.4,12-12S18.6,0,12,0z"/>
</g>
<g id="Outline_Icons">
	<g>
		<path class="st2" d="M17.5,12c0-5.1-2.8-9.5-6.8-11.4c0.4-0.1,0.9-0.1,1.3-0.1c6.4,0,11.5,5.1,11.5,11.5S18.4,23.5,12,23.5
			c-0.4,0-0.9,0-1.3-0.1C14.7,21.5,17.5,17.1,17.5,12z"/>
	</g>
</g>
</svg>
