<?xml version="1.0" encoding="utf-8"?>
<!-- Generator: Adobe Illustrator 19.2.0, SVG Export Plug-In . SVG Version: 6.00 Build 0)  -->
<svg version="1.1" id="Layer_1" xmlns="http://www.w3.org/2000/svg" xmlns:xlink="http://www.w3.org/1999/xlink" x="0px" y="0px"
	 viewBox="0 0 24 24" style="enable-background:new 0 0 24 24;" xml:space="preserve">
<style type="text/css">
	.st0{display:none;}
	.st1{display:inline;}
	.st2{fill:none;stroke:#000000;stroke-linecap:round;stroke-linejoin:round;stroke-miterlimit:10;}
</style>
<g id="Filled_Icon" class="st0">
	<path class="st1" d="M13.5,23C9.6,21,7,16.7,7,12s2.6-9,6.5-11c0.2-0.1,0.3-0.3,0.3-0.5s-0.2-0.4-0.4-0.4C12.9,0,12.4,0,12,0
		C5.4,0,0,5.4,0,12s5.4,12,12,12c0.4,0,0.9,0,1.4-0.1c0.2,0,0.4-0.2,0.4-0.4C13.9,23.3,13.7,23.1,13.5,23z"/>
</g>
<g id="Outline_Icons">
	<g>
		<path class="st2" d="M6.5,12c0-5.1,2.8-9.5,6.8-11.4c-0.4-0.1-0.9-0.1-1.3-0.1C5.6,0.5,0.5,5.6,0.5,12S5.6,23.5,12,23.5
			c0.4,0,0.9,0,1.3-0.1C9.3,21.5,6.5,17.1,6.5,12z"/>
	</g>
</g>
</svg>
