<?xml version="1.0" encoding="utf-8"?>
<!-- Generator: Adobe Illustrator 19.2.0, SVG Export Plug-In . SVG Version: 6.00 Build 0)  -->
<svg version="1.1" id="Layer_1" xmlns="http://www.w3.org/2000/svg" xmlns:xlink="http://www.w3.org/1999/xlink" x="0px" y="0px"
	 viewBox="0 0 24 24" style="enable-background:new 0 0 24 24;" xml:space="preserve">
<style type="text/css">
	.st0{display:none;}
	.st1{display:inline;}
	.st2{fill:none;stroke:#000000;stroke-linecap:round;stroke-linejoin:round;stroke-miterlimit:10;}
</style>
<g id="Filled_Icons" class="st0">
	<g class="st1">
		<path d="M22.5,9h-21C0.7,9,0,9.7,0,10.5C0,11.3,0.7,12,1.5,12H2c0.2,3.7,2.4,7.2,5.4,8.9c-1.6,0.6-2.9,1.6-2.9,2.6
			C4.5,23.8,4.7,24,5,24h14c0,0,0,0,0,0c0.3,0,0.5-0.2,0.5-0.5c0-1.2-1.9-2.2-2.9-2.6c3.1-1.7,5.2-5.2,5.4-8.9h0.5
			c0.8,0,1.5-0.7,1.5-1.5C24,9.7,23.3,9,22.5,9z M10,18.2c-0.1,0.3-0.4,0.4-0.7,0.3c-1.7-0.7-3.1-2.1-3.8-3.8
			c-0.1-0.3,0-0.5,0.3-0.7c0.3-0.1,0.5,0,0.7,0.3c0.6,1.5,1.8,2.6,3.2,3.2C9.9,17.7,10.1,17.9,10,18.2z"/>
		<path d="M14,8h4c0.2,0,0.3-0.1,0.4-0.2c4.1-5.7,4.5-6.3,3.4-7.2c-0.2-0.2-0.4-0.3-0.8-0.3c-0.9,0-1.9,0.9-7.4,6.9
			c-0.1,0.1-0.2,0.4-0.1,0.5C13.6,7.9,13.8,8,14,8z"/>
	</g>
</g>
<g id="Outline_Icons">
	<g>
		<path class="st2" d="M1.5,9.5c-0.6,0-1,0.4-1,1c0,0.6,0.4,1,1,1h1c0,4.1,2.6,8.1,6.3,9.4C6.5,21.6,5,22.7,5,23.5h14
			c0-0.8-1.5-1.9-3.8-2.6c3.7-1.3,6.3-5.3,6.3-9.4h1c0.6,0,1-0.4,1-1c0-0.6-0.4-1-1-1H1.5z"/>
		<path class="st2" d="M18,7.5C21.9,2,22.2,1.6,21.5,1c-0.8-0.6-1.2-0.3-7.5,6.5"/>
		<path class="st2" d="M9.5,18c-1.6-0.7-2.8-1.9-3.5-3.5"/>
	</g>
</g>
</svg>
