<?xml version="1.0" encoding="utf-8"?>
<!-- Generator: Adobe Illustrator 19.2.0, SVG Export Plug-In . SVG Version: 6.00 Build 0)  -->
<svg version="1.1" id="Layer_1" xmlns="http://www.w3.org/2000/svg" xmlns:xlink="http://www.w3.org/1999/xlink" x="0px" y="0px"
	 viewBox="0 0 24 24" style="enable-background:new 0 0 24 24;" xml:space="preserve">
<style type="text/css">
	.st0{display:none;}
	.st1{display:inline;}
	.st2{fill:none;stroke:#000000;stroke-linejoin:round;stroke-miterlimit:10;}
	.st3{fill:none;stroke:#000000;stroke-linecap:round;stroke-linejoin:round;stroke-miterlimit:10;}
</style>
<g id="Filled_Icons" class="st0">
	<g class="st1">
		<path d="M11,16c-1.1,0-2,0.9-2,2v4c0,1.1,0.9,2,2,2s2-0.9,2-2v-4C13,16.9,12.1,16,11,16z"/>
		<g>
			<path d="M20.5,7.5h-3.2c-0.1-0.1-0.1-0.2-0.2-0.3l-4.7,3.2l-0.6,2l5.7-3.5c0-0.1,0-0.2,0-0.3h3C20.8,8.5,21,8.3,21,8
				C21,7.7,20.8,7.5,20.5,7.5z"/>
			<path d="M10.1,12.4l-0.6-2.1L4.9,7.1C4.8,7.2,4.8,7.4,4.7,7.5H1.6C1.3,7.5,1.1,7.7,1.1,8c0,0.3,0.2,0.5,0.5,0.5h2.9
				c0,0.1,0,0.3,0,0.4L10.1,12.4z"/>
			<path d="M10.5,9.9l0.5,1.8l0.5-1.8c0-0.1,0.1-0.2,0.2-0.3l4.6-3.1H5.8l4.5,3.1C10.4,9.7,10.4,9.8,10.5,9.9z"/>
			<path d="M11,14c-0.1,0-0.2,0-0.3-0.1l-5.9-3.7l1.9,8.9c0.2,0.7,0.7,1.3,1.3,1.6V18c0-1.7,1.3-3,3-3c1.7,0,3,1.3,3,3v2.8
				c0.6-0.3,1.1-0.9,1.3-1.6l1.9-9l-6,3.7C11.2,14,11.1,14,11,14z"/>
			<path d="M16,5c0-2.8-2.2-5-5-5S6,2.2,6,5v0.5h10V5z"/>
		</g>
	</g>
</g>
<g id="Outline_Icons">
	<g>
		<path class="st2" d="M9.5,20.5H9c-0.9,0-1.6-0.6-1.8-1.5L5,8.9C4.9,8.3,5,7.7,5.4,7.2c0.4-0.5,1-0.7,1.6-0.7H15
			c0.6,0,1.2,0.3,1.6,0.7C17,7.7,17.1,8.3,17,8.9L14.8,19c-0.2,0.9-0.9,1.5-1.8,1.5h-0.5"/>
		<path class="st2" d="M12.5,18c0-0.8-0.7-1.5-1.5-1.5c-0.8,0-1.5,0.7-1.5,1.5v4c0,0.8,0.7,1.5,1.5,1.5c0.8,0,1.5-0.7,1.5-1.5V18z"
			/>
		<polyline class="st2" points="5.5,11.1 11,14.5 16.5,11 		"/>
		<polyline class="st2" points="5.4,7.3 10,10.5 11,14.5 		"/>
		<polyline class="st2" points="16.6,7.3 12,10.5 11,14.5 		"/>
		<path class="st2" d="M6.5,5c0-2.5,2-4.5,4.5-4.5c2.5,0,4.5,2,4.5,4.5v1.5h-9V5z"/>
		<line class="st3" x1="16.8" y1="7.5" x2="20.5" y2="7.5"/>
		<line class="st3" x1="5.2" y1="7.5" x2="1.5" y2="7.5"/>
	</g>
</g>
</svg>
