<?xml version="1.0" encoding="utf-8"?>
<!-- Generator: Adobe Illustrator 19.2.0, SVG Export Plug-In . SVG Version: 6.00 Build 0)  -->
<svg version="1.1" id="Layer_1" xmlns="http://www.w3.org/2000/svg" xmlns:xlink="http://www.w3.org/1999/xlink" x="0px" y="0px"
	 viewBox="0 0 24 24" style="enable-background:new 0 0 24 24;" xml:space="preserve">
<style type="text/css">
	.st0{display:none;}
	.st1{display:inline;}
	.st2{fill:none;stroke:#000000;stroke-linejoin:round;stroke-miterlimit:10;}
	.st3{fill:none;stroke:#000000;stroke-linecap:round;stroke-linejoin:round;stroke-miterlimit:10;}
</style>
<g id="Filled_Icons" class="st0">
	<path class="st1" d="M23.5,1.4c-0.3,0-0.5,0.2-0.5,0.5v6c0,2.6-1.6,3.7-3,3.7c-1.4,0-3-1.2-3-3.7V5.4C17,1.8,14.2,0,11.5,0
		C8.8,0,6,1.8,6,5.4H3.5C1.6,5.4,0,6.9,0,8.9v1.5v7c0,3.6,2.9,6.5,6.5,6.5S13,21,13,17.4v-7V8.9c0-1.9-1.6-3.5-3.5-3.5H7
		C7,2.4,9.3,1,11.5,1c1.2,0,2.3,0.4,3.1,1.1C15.5,2.9,16,4,16,5.4v2.5c0,3.1,2,4.7,4,4.7c2,0,4-1.6,4-4.7v-6
		C24,1.6,23.8,1.4,23.5,1.4z M6,10.4H1V8.9c0-1.4,1.1-2.5,2.5-2.5H6V10.4z M9.5,6.4c1.4,0,2.5,1.1,2.5,2.5v1.5H7v-4H9.5z"/>
</g>
<g id="Outline_Icons">
	<g>
		<path class="st2" d="M12.5,17.5c0,3.3-2.7,6-6,6s-6-2.7-6-6v-9c0-1.7,1.3-3,3-3h6c1.7,0,3,1.3,3,3V17.5z"/>
		<line class="st2" x1="0.5" y1="10.5" x2="12.5" y2="10.5"/>
		<path class="st3" d="M6.5,10.5c0-1,0-0.5,0-5.5c0-5.9,10-6,10,0.5c0,0.9,0,1.5,0,2.5c0,5.7,7,5.7,7,0c0-0.6,0-1.8,0-2.5
			c0-2,0-3.5,0-3.5"/>
	</g>
</g>
</svg>
