<?xml version="1.0" encoding="utf-8"?>
<!-- Generator: Adobe Illustrator 19.2.0, SVG Export Plug-In . SVG Version: 6.00 Build 0)  -->
<svg version="1.1" id="Layer_1" xmlns="http://www.w3.org/2000/svg" xmlns:xlink="http://www.w3.org/1999/xlink" x="0px" y="0px"
	 viewBox="0 0 24 24" style="enable-background:new 0 0 24 24;" xml:space="preserve">
<style type="text/css">
	.st0{display:none;}
	.st1{display:inline;}
	.st2{fill:none;stroke:#000000;stroke-linecap:round;stroke-linejoin:round;stroke-miterlimit:10;}
</style>
<g id="Filled_Icons" class="st0">
	<path class="st1" d="M13.5,0h-3C6.9,0,4,2.9,4,6.5v11c0,3.6,2.9,6.5,6.5,6.5h3c3.6,0,6.5-2.9,6.5-6.5v-11C20,2.9,17.1,0,13.5,0z
		 M13.5,7.5C13.5,8.3,12.8,9,12,9c-0.8,0-1.5-0.7-1.5-1.5v-2C10.5,4.7,11.2,4,12,4c0.8,0,1.5,0.7,1.5,1.5V7.5z"/>
</g>
<g id="Outline_Icons">
	<g>
		<path class="st2" d="M19.5,17.5c0,3.3-2.7,6-6,6h-3c-3.3,0-6-2.7-6-6v-11c0-3.3,2.7-6,6-6h3c3.3,0,6,2.7,6,6V17.5z"/>
		<path class="st2" d="M13,7.5c0,0.5-0.4,1-1,1l0,0c-0.5,0-1-0.5-1-1v-2c0-0.5,0.5-1,1-1l0,0c0.6,0,1,0.5,1,1V7.5z"/>
	</g>
</g>
</svg>
