<?xml version="1.0" encoding="utf-8"?>
<!-- Generator: Adobe Illustrator 19.2.0, SVG Export Plug-In . SVG Version: 6.00 Build 0)  -->
<svg version="1.1" id="Layer_1" xmlns="http://www.w3.org/2000/svg" xmlns:xlink="http://www.w3.org/1999/xlink" x="0px" y="0px"
	 viewBox="0 0 24 24" style="enable-background:new 0 0 24 24;" xml:space="preserve">
<style type="text/css">
	.st0{display:none;}
	.st1{display:inline;}
	.st2{fill:none;stroke:#000000;stroke-linecap:round;stroke-linejoin:round;stroke-miterlimit:10;}
</style>
<g id="Filled_Icons" class="st0">
	<g class="st1">
		<path d="M23.5,10H9.4l2.3-2.3c0.4-0.4,0.4-1,0-1.4c-0.4-0.4-1-0.4-1.4,0l-4,4c-0.4,0.4-0.4,1,0,1.4l4,4c0.2,0.2,0.5,0.3,0.7,0.3
			c0.3,0,0.5-0.1,0.7-0.3c0.4-0.4,0.4-1,0-1.4L9.4,12h14.1c0.6,0,1-0.4,1-1C24.5,10.4,24.1,10,23.5,10z"/>
		<path d="M1,0C0.4,0,0,0.4,0,1v22c0,0.6,0.4,1,1,1c0.6,0,1-0.4,1-1V1C2,0.4,1.6,0,1,0z"/>
	</g>
</g>
<g id="Outline_Icons">
	<g>
		<line class="st2" x1="23.5" y1="11.5" x2="6.5" y2="11.5"/>
		<polyline class="st2" points="10.5,15.5 6.5,11.5 10.5,7.5 		"/>
		<line class="st2" x1="0.5" y1="0.5" x2="0.5" y2="23.5"/>
	</g>
</g>
</svg>
