<?xml version="1.0" encoding="utf-8"?>
<!-- Generator: Adobe Illustrator 19.2.0, SVG Export Plug-In . SVG Version: 6.00 Build 0)  -->
<svg version="1.1" id="Layer_1" xmlns="http://www.w3.org/2000/svg" xmlns:xlink="http://www.w3.org/1999/xlink" x="0px" y="0px"
	 viewBox="0 0 24 24" style="enable-background:new 0 0 24 24;" xml:space="preserve">
<style type="text/css">
	.st0{display:none;}
	.st1{display:inline;}
	.st2{fill:none;stroke:#000000;stroke-linecap:round;stroke-linejoin:round;stroke-miterlimit:10;}
</style>
<g id="Filled_Icons" class="st0">
	<g class="st1">
		<path d="M7.7,5.7L10,3.4V12c0,0.6,0.4,1,1,1c0.6,0,1-0.4,1-1V3.4l2.3,2.3C14.5,5.9,14.7,6,15,6c0.3,0,0.5-0.1,0.7-0.3
			c0.4-0.4,0.4-1,0-1.4l-4-4c-0.4-0.4-1-0.4-1.4,0l-4,4c-0.4,0.4-0.4,1,0,1.4C6.7,6.1,7.3,6.1,7.7,5.7z"/>
		<path d="M23.5,16h-23C0.2,16,0,16.2,0,16.5v7C0,23.8,0.2,24,0.5,24h23c0.3,0,0.5-0.2,0.5-0.5v-7C24,16.2,23.8,16,23.5,16z"/>
	</g>
</g>
<g id="Outline_Icons">
	<g>
		<line class="st2" x1="11.5" y1="11.5" x2="11.5" y2="0.5"/>
		<polyline class="st2" points="7.5,4.5 11.5,0.5 15.5,4.5 		"/>
		<rect x="0.5" y="16.5" class="st2" width="23" height="7"/>
	</g>
</g>
</svg>
