<?xml version="1.0" encoding="utf-8"?>
<!-- Generator: Adobe Illustrator 19.2.0, SVG Export Plug-In . SVG Version: 6.00 Build 0)  -->
<svg version="1.1" id="Layer_1" xmlns="http://www.w3.org/2000/svg" xmlns:xlink="http://www.w3.org/1999/xlink" x="0px" y="0px"
	 viewBox="0 0 24 24" style="enable-background:new 0 0 24 24;" xml:space="preserve">
<style type="text/css">
	.st0{display:none;}
	.st1{display:inline;}
	.st2{fill:none;stroke:#000000;stroke-linecap:round;stroke-linejoin:round;stroke-miterlimit:10;}
</style>
<g id="Filled_Icons" class="st0">
	<g class="st1">
		<path d="M18.5,10c0.6,0,1-0.4,1-1c0-0.6-0.4-1-1-1H4l4.7-4.3c0.4-0.4,0.4-1,0.1-1.4c-0.4-0.4-1-0.4-1.4-0.1l-6.5,6
			C0.5,8.5,0.4,9,0.6,9.4C0.7,9.7,1.1,10,1.5,10L18.5,10L18.5,10z"/>
		<path d="M23.4,14.6c-0.1-0.4-0.5-0.6-0.9-0.6l-18,0c0,0,0,0,0,0c-0.6,0-1,0.4-1,1c0,0.6,0.4,1,1,1L20,16l-4.7,4.3
			c-0.4,0.4-0.4,1-0.1,1.4c0.2,0.2,0.5,0.3,0.7,0.3c0.2,0,0.5-0.1,0.7-0.3l6.5-6C23.5,15.5,23.6,15,23.4,14.6z"/>
	</g>
</g>
<g id="Outline_Icons">
	<g>
		<polyline class="st2" points="7,3.5 0.5,9.5 18.5,9.5 		"/>
		<polyline class="st2" points="17,20.5 23.5,14.5 5.5,14.5 		"/>
	</g>
</g>
</svg>
