<?xml version="1.0" encoding="utf-8"?>
<!-- Generator: Adobe Illustrator 19.2.0, SVG Export Plug-In . SVG Version: 6.00 Build 0)  -->
<svg version="1.1" id="Layer_1" xmlns="http://www.w3.org/2000/svg" xmlns:xlink="http://www.w3.org/1999/xlink" x="0px" y="0px"
	 viewBox="0 0 24 24" style="enable-background:new 0 0 24 24;" xml:space="preserve">
<style type="text/css">
	.st0{display:none;}
	.st1{display:inline;}
	.st2{fill:none;stroke:#000000;stroke-linecap:round;stroke-linejoin:round;stroke-miterlimit:10;}
</style>
<g id="Filled_Icons" class="st0">
	<g class="st1">
		<path d="M18.7,10.3l-4-4c-0.4-0.4-1-0.4-1.4,0c-0.4,0.4-0.4,1,0,1.4l2.3,2.3H1c-0.6,0-1,0.4-1,1c0,0.6,0.4,1,1,1h14.6l-2.3,2.3
			c-0.4,0.4-0.4,1,0,1.4c0.2,0.2,0.5,0.3,0.7,0.3c0.3,0,0.5-0.1,0.7-0.3l4-4C19.1,11.3,19.1,10.7,18.7,10.3z"/>
		<path d="M23,0c-0.6,0-1,0.4-1,1v22c0,0.6,0.4,1,1,1c0.6,0,1-0.4,1-1V1C24,0.4,23.6,0,23,0z"/>
	</g>
</g>
<g id="Outline_Icons">
	<g>
		<line class="st2" x1="0.5" y1="11.5" x2="17.5" y2="11.5"/>
		<polyline class="st2" points="13.5,7.5 17.5,11.5 13.5,15.5 		"/>
		<line class="st2" x1="23.5" y1="23.5" x2="23.5" y2="0.5"/>
	</g>
</g>
</svg>
