<?xml version="1.0" encoding="utf-8"?>
<!-- Generator: Adobe Illustrator 19.2.0, SVG Export Plug-In . SVG Version: 6.00 Build 0)  -->
<svg version="1.1" id="Layer_1" xmlns="http://www.w3.org/2000/svg" xmlns:xlink="http://www.w3.org/1999/xlink" x="0px" y="0px"
	 viewBox="0 0 24 24" style="enable-background:new 0 0 24 24;" xml:space="preserve">
<style type="text/css">
	.st0{display:none;}
	.st1{display:inline;}
	.st2{fill:none;stroke:#000000;stroke-linecap:round;stroke-linejoin:round;stroke-miterlimit:10;}
</style>
<g id="Filled_Icons" class="st0">
	<g class="st1">
		<path d="M13.7,5.8c-0.4-0.4-1.1-0.4-1.4,0l-4,4c-0.4,0.4-0.4,1,0,1.4c0.4,0.4,1,0.4,1.4,0L12,8.9V23c0,0.6,0.4,1,1,1
			c0.6,0,1-0.4,1-1V8.9l2.3,2.3c0.2,0.2,0.5,0.3,0.7,0.3c0.3,0,0.5-0.1,0.7-0.3c0.4-0.4,0.4-1,0-1.4L13.7,5.8z"/>
		<path d="M23,0H1C0.4,0,0,0.4,0,1c0,0.6,0.4,1,1,1h22c0.6,0,1-0.4,1-1C24,0.4,23.6,0,23,0z"/>
	</g>
</g>
<g id="Outline_Icons">
	<g>
		<line class="st2" x1="12.5" y1="23.5" x2="12.5" y2="6.5"/>
		<polyline class="st2" points="8.5,10.5 12.5,6.5 16.5,10.5 		"/>
		<line class="st2" x1="23.5" y1="0.5" x2="0.5" y2="0.5"/>
	</g>
</g>
</svg>
