<?xml version="1.0" encoding="utf-8"?>
<!-- Generator: Adobe Illustrator 19.2.0, SVG Export Plug-In . SVG Version: 6.00 Build 0)  -->
<svg version="1.1" id="Layer_1" xmlns="http://www.w3.org/2000/svg" xmlns:xlink="http://www.w3.org/1999/xlink" x="0px" y="0px"
	 viewBox="0 0 24 24" style="enable-background:new 0 0 24 24;" xml:space="preserve">
<style type="text/css">
	.st0{display:none;}
	.st1{display:inline;}
	.st2{fill:none;stroke:#000000;stroke-linecap:round;stroke-linejoin:round;stroke-miterlimit:10;}
</style>
<g id="Filled_Icons" class="st0">
	<g class="st1">
		<path d="M22.1,4.4L15.5,3c-0.3-0.1-0.6,0-0.9,0.2c-0.2,0.2-0.4,0.5-0.3,0.8l0.4,6.7c0,0.5,0.5,0.9,1,0.9c0,0,0,0,0.1,0
			c0.6,0,1-0.5,0.9-1.1l-0.3-3.9c3.4,4.4,3.4,10.7-0.2,15c-0.4,0.4-0.3,1.1,0.1,1.4c0.2,0.2,0.4,0.2,0.6,0.2c0.3,0,0.6-0.1,0.8-0.4
			C22,18,22,10.8,18.2,5.6l3.5,0.8c0.5,0.1,1.1-0.2,1.2-0.8C22.9,5.1,22.6,4.6,22.1,4.4z"/>
		<path d="M4.5,3C4.8,3,5,2.8,5,2.5V2h0.5C5.8,2,6,1.8,6,1.5C6,1.2,5.8,1,5.5,1h-1C4.2,1,4,1.2,4,1.5v1C4,2.8,4.2,3,4.5,3z"/>
		<path d="M10.5,1h-1C9.2,1,9,1.2,9,1.5C9,1.8,9.2,2,9.5,2H10v0.5C10,2.8,10.2,3,10.5,3C10.8,3,11,2.8,11,2.5v-1
			C11,1.2,10.8,1,10.5,1z"/>
		<path d="M4.5,5c0.1,0,0.2,0,0.4-0.1C5,4.8,5,4.6,5,4.5c0-0.1,0-0.3-0.1-0.4C4.7,4,4.3,4,4.1,4.1C4,4.2,4,4.4,4,4.5
			c0,0.1,0,0.2,0.1,0.4C4.2,5,4.4,5,4.5,5z"/>
		<path d="M7.5,2c0.1,0,0.2,0,0.4-0.1C8,1.8,8,1.6,8,1.5c0-0.1,0-0.3-0.1-0.4C7.7,1,7.3,1,7.1,1.1C7,1.2,7,1.4,7,1.5
			c0,0.1,0,0.3,0.1,0.4C7.2,2,7.4,2,7.5,2z"/>
		<path d="M7.5,8c0.1,0,0.3,0,0.4-0.1C8,7.8,8,7.6,8,7.5c0-0.1,0-0.3-0.1-0.4C7.7,7,7.3,7,7.1,7.1C7,7.2,7,7.4,7,7.5
			c0,0.1,0,0.3,0.1,0.4C7.2,8,7.4,8,7.5,8z"/>
		<path d="M10.5,6C10.2,6,10,6.2,10,6.5V7H9.5C9.2,7,9,7.2,9,7.5C9,7.8,9.2,8,9.5,8h1C10.8,8,11,7.8,11,7.5v-1C11,6.2,10.8,6,10.5,6
			z"/>
		<path d="M4.5,8h1C5.8,8,6,7.8,6,7.5C6,7.2,5.8,7,5.5,7H5V6.5C5,6.2,4.8,6,4.5,6C4.2,6,4,6.2,4,6.5v1C4,7.8,4.2,8,4.5,8z"/>
		<path d="M10.1,4.1C10,4.2,10,4.4,10,4.5c0,0.1,0,0.2,0.1,0.4C10.2,5,10.4,5,10.5,5c0.1,0,0.2,0,0.4-0.1C11,4.8,11,4.6,11,4.5
			c0-0.1,0-0.3-0.1-0.4C10.7,4,10.3,4,10.1,4.1z"/>
		<path d="M4.5,11C4.8,11,5,10.8,5,10.5V10h0.5C5.8,10,6,9.8,6,9.5C6,9.2,5.8,9,5.5,9h-1C4.2,9,4,9.2,4,9.5v1C4,10.8,4.2,11,4.5,11z
			"/>
		<path d="M10.5,9h-1C9.2,9,9,9.2,9,9.5C9,9.8,9.2,10,9.5,10H10v0.5c0,0.3,0.2,0.5,0.5,0.5c0.3,0,0.5-0.2,0.5-0.5v-1
			C11,9.2,10.8,9,10.5,9z"/>
		<path d="M4.5,13c0.1,0,0.3,0,0.4-0.1C5,12.8,5,12.6,5,12.5c0-0.1,0-0.3-0.1-0.4c-0.2-0.2-0.5-0.2-0.7,0C4,12.2,4,12.4,4,12.5
			c0,0.1,0.1,0.3,0.1,0.4C4.2,13,4.4,13,4.5,13z"/>
		<path d="M7.5,10c0.1,0,0.3,0,0.4-0.1C8,9.8,8,9.6,8,9.5c0-0.1,0-0.3-0.1-0.4C7.7,9,7.3,9,7.1,9.1C7,9.2,7,9.4,7,9.5
			c0,0.1,0,0.3,0.1,0.4C7.2,10,7.4,10,7.5,10z"/>
		<path d="M7.5,16c0.1,0,0.3,0,0.4-0.2C8,15.8,8,15.6,8,15.5c0-0.1,0-0.3-0.1-0.4c-0.2-0.2-0.5-0.2-0.7,0C7,15.2,7,15.4,7,15.5
			c0,0.1,0,0.3,0.1,0.4C7.2,16,7.4,16,7.5,16z"/>
		<path d="M10.5,14c-0.3,0-0.5,0.2-0.5,0.5V15H9.5C9.2,15,9,15.2,9,15.5C9,15.8,9.2,16,9.5,16h1c0.3,0,0.5-0.2,0.5-0.5v-1
			C11,14.2,10.8,14,10.5,14z"/>
		<path d="M4.5,16h1C5.8,16,6,15.8,6,15.5C6,15.2,5.8,15,5.5,15H5v-0.5C5,14.2,4.8,14,4.5,14C4.2,14,4,14.2,4,14.5v1
			C4,15.8,4.2,16,4.5,16z"/>
		<path d="M10.1,12.1C10,12.2,10,12.4,10,12.5c0,0.1,0,0.3,0.1,0.4c0.1,0.1,0.2,0.1,0.4,0.1c0.1,0,0.3,0,0.4-0.1
			c0.1-0.1,0.1-0.2,0.1-0.4c0-0.1,0-0.3-0.1-0.4C10.7,12,10.4,12,10.1,12.1z"/>
		<path d="M10.5,17h-6C4.2,17,4,17.2,4,17.5v6C4,23.8,4.2,24,4.5,24h6c0.3,0,0.5-0.2,0.5-0.5v-6C11,17.2,10.8,17,10.5,17z"/>
	</g>
</g>
<g id="Outline_Icons">
	<g>
		<g>
			<polyline class="st2" points="21.8,5.4 15.3,4 15.8,10.7 			"/>
			<path class="st2" d="M15.3,4c5.5,4.6,6.4,12.9,1.7,18.4"/>
		</g>
		<polyline class="st2" points="5.5,1.5 4.5,1.5 4.5,2.5 		"/>
		<polyline class="st2" points="9.5,1.5 10.5,1.5 10.5,2.5 		"/>
		<line class="st2" x1="4.5" y1="4.5" x2="4.5" y2="4.5"/>
		<line class="st2" x1="7.5" y1="1.5" x2="7.5" y2="1.5"/>
		<line class="st2" x1="7.5" y1="7.5" x2="7.5" y2="7.5"/>
		<polyline class="st2" points="9.5,7.5 10.5,7.5 10.5,6.5 		"/>
		<polyline class="st2" points="5.5,7.5 4.5,7.5 4.5,6.5 		"/>
		<line class="st2" x1="10.5" y1="4.5" x2="10.5" y2="4.5"/>
		<polyline class="st2" points="5.5,9.5 4.5,9.5 4.5,10.5 		"/>
		<polyline class="st2" points="9.5,9.5 10.5,9.5 10.5,10.5 		"/>
		<line class="st2" x1="4.5" y1="12.5" x2="4.5" y2="12.5"/>
		<line class="st2" x1="7.5" y1="9.5" x2="7.5" y2="9.5"/>
		<line class="st2" x1="7.5" y1="15.5" x2="7.5" y2="15.5"/>
		<polyline class="st2" points="9.5,15.5 10.5,15.5 10.5,14.5 		"/>
		<polyline class="st2" points="5.5,15.5 4.5,15.5 4.5,14.5 		"/>
		<line class="st2" x1="10.5" y1="12.5" x2="10.5" y2="12.5"/>
		<rect x="4.5" y="17.5" class="st2" width="6" height="6"/>
	</g>
</g>
</svg>
