<?xml version="1.0" encoding="utf-8"?>
<!-- Generator: Adobe Illustrator 19.2.0, SVG Export Plug-In . SVG Version: 6.00 Build 0)  -->
<svg version="1.1" id="Layer_1" xmlns="http://www.w3.org/2000/svg" xmlns:xlink="http://www.w3.org/1999/xlink" x="0px" y="0px"
	 viewBox="0 0 24 24" style="enable-background:new 0 0 24 24;" xml:space="preserve">
<style type="text/css">
	.st0{display:none;}
	.st1{display:inline;}
	.st2{fill:none;stroke:#000000;stroke-linecap:round;stroke-linejoin:round;stroke-miterlimit:10;}
</style>
<g id="Filled_Icons" class="st0">
	<g class="st1">
		<path d="M12.3,17.7c0.4,0.4,1,0.4,1.4,0l4-4c0.4-0.4,0.4-1,0-1.4c-0.4-0.4-1-0.4-1.4,0L14,14.6V1c0-0.6-0.4-1-1-1
			c-0.6,0-1,0.4-1,1v13.6l-2.3-2.3c-0.4-0.4-1-0.4-1.4,0c-0.4,0.4-0.4,1,0,1.4L12.3,17.7z"/>
		<path d="M23,22H1c-0.6,0-1,0.4-1,1c0,0.6,0.4,1,1,1h22c0.6,0,1-0.4,1-1C24,22.4,23.6,22,23,22z"/>
	</g>
</g>
<g id="Outline_Icons">
	<g>
		<line class="st2" x1="12.5" y1="0.5" x2="12.5" y2="17.5"/>
		<polyline class="st2" points="16.5,13.5 12.5,17.5 8.5,13.5 		"/>
		<line class="st2" x1="0.5" y1="23.5" x2="23.5" y2="23.5"/>
	</g>
</g>
</svg>
