<?xml version="1.0" encoding="utf-8"?>
<!-- Generator: Adobe Illustrator 19.2.0, SVG Export Plug-In . SVG Version: 6.00 Build 0)  -->
<svg version="1.1" id="Layer_1" xmlns="http://www.w3.org/2000/svg" xmlns:xlink="http://www.w3.org/1999/xlink" x="0px" y="0px"
	 viewBox="0 0 24 24" style="enable-background:new 0 0 24 24;" xml:space="preserve">
<style type="text/css">
	.st0{display:none;}
	.st1{display:inline;}
	.st2{fill:none;stroke:#000000;stroke-linecap:round;stroke-linejoin:round;stroke-miterlimit:10;}
</style>
<g id="Filled_Icon" class="st0">
	<g class="st1">
		<path d="M0.5,2C0.8,2,1,1.8,1,1.5V1h0.5C1.8,1,2,0.8,2,0.5C2,0.2,1.8,0,1.5,0h-1C0.2,0,0,0.2,0,0.5v1C0,1.8,0.2,2,0.5,2z"/>
		<path d="M10.5,0h-1C9.2,0,9,0.2,9,0.5C9,0.8,9.2,1,9.5,1H10v0.5C10,1.8,10.2,2,10.5,2C10.8,2,11,1.8,11,1.5v-1
			C11,0.2,10.8,0,10.5,0z"/>
		<path d="M0.5,5C0.8,5,1,4.8,1,4.5v-1C1,3.2,0.8,3,0.5,3C0.2,3,0,3.2,0,3.5v1C0,4.8,0.2,5,0.5,5z"/>
		<path d="M3.5,1h1C4.8,1,5,0.8,5,0.5C5,0.2,4.8,0,4.5,0h-1C3.2,0,3,0.2,3,0.5C3,0.8,3.2,1,3.5,1z"/>
		<path d="M3.5,11h1C4.8,11,5,10.8,5,10.5C5,10.2,4.8,10,4.5,10h-1C3.2,10,3,10.2,3,10.5C3,10.8,3.2,11,3.5,11z"/>
		<path d="M6.5,1h1C7.8,1,8,0.8,8,0.5C8,0.2,7.8,0,7.5,0h-1C6.2,0,6,0.2,6,0.5C6,0.8,6.2,1,6.5,1z"/>
		<path d="M6.5,11h1C7.8,11,8,10.8,8,10.5C8,10.2,7.8,10,7.5,10h-1C6.2,10,6,10.2,6,10.5C6,10.8,6.2,11,6.5,11z"/>
		<path d="M10.5,9C10.2,9,10,9.2,10,9.5V10H9.5C9.2,10,9,10.2,9,10.5C9,10.8,9.2,11,9.5,11h1c0.3,0,0.5-0.2,0.5-0.5v-1
			C11,9.2,10.8,9,10.5,9z"/>
		<path d="M10.5,6C10.2,6,10,6.2,10,6.5v1C10,7.8,10.2,8,10.5,8C10.8,8,11,7.8,11,7.5v-1C11,6.2,10.8,6,10.5,6z"/>
		<path d="M0.5,11h1C1.8,11,2,10.8,2,10.5C2,10.2,1.8,10,1.5,10H1V9.5C1,9.2,0.8,9,0.5,9C0.2,9,0,9.2,0,9.5v1C0,10.8,0.2,11,0.5,11z
			"/>
		<path d="M0.5,8C0.8,8,1,7.8,1,7.5v-1C1,6.2,0.8,6,0.5,6C0.2,6,0,6.2,0,6.5v1C0,7.8,0.2,8,0.5,8z"/>
		<path d="M10.5,3C10.2,3,10,3.2,10,3.5v1C10,4.8,10.2,5,10.5,5C10.8,5,11,4.8,11,4.5v-1C11,3.2,10.8,3,10.5,3z"/>
		<path d="M10.5,13h-10C0.2,13,0,13.2,0,13.5v10C0,23.8,0.2,24,0.5,24h10c0.3,0,0.5-0.2,0.5-0.5v-10C11,13.2,10.8,13,10.5,13z"/>
		<path d="M23.2,8.3l-4-4c-0.1-0.1-0.2-0.2-0.3-0.2c-0.2-0.1-0.5-0.1-0.8,0c-0.1,0-0.2,0.1-0.3,0.2l-4,4c-0.4,0.4-0.4,1,0,1.4
			c0.4,0.4,1,0.4,1.4,0l2.3-2.3v13.1c0,0.6,0.4,1,1,1c0.6,0,1-0.4,1-1V7.4l2.3,2.3C22,9.9,22.2,10,22.5,10c0.3,0,0.5-0.1,0.7-0.3
			C23.6,9.3,23.6,8.7,23.2,8.3z"/>
	</g>
</g>
<g id="Outline_Icons">
	<g>
		<polyline class="st2" points="1.5,0.5 0.5,0.5 0.5,1.5 		"/>
		<polyline class="st2" points="9.5,0.5 10.5,0.5 10.5,1.5 		"/>
		<line class="st2" x1="0.5" y1="3.5" x2="0.5" y2="4.5"/>
		<line class="st2" x1="4.5" y1="0.5" x2="3.5" y2="0.5"/>
		<line class="st2" x1="4.5" y1="10.5" x2="3.5" y2="10.5"/>
		<line class="st2" x1="7.5" y1="0.5" x2="6.5" y2="0.5"/>
		<line class="st2" x1="7.5" y1="10.5" x2="6.5" y2="10.5"/>
		<polyline class="st2" points="9.5,10.5 10.5,10.5 10.5,9.5 		"/>
		<line class="st2" x1="10.5" y1="7.5" x2="10.5" y2="6.5"/>
		<polyline class="st2" points="1.5,10.5 0.5,10.5 0.5,9.5 		"/>
		<line class="st2" x1="0.5" y1="7.5" x2="0.5" y2="6.5"/>
		<line class="st2" x1="10.5" y1="4.5" x2="10.5" y2="3.5"/>
		<rect x="0.5" y="13.5" class="st2" width="10" height="10"/>
		<polyline class="st2" points="22.5,9 18.5,5 14.5,9 		"/>
		<line class="st2" x1="18.5" y1="20.5" x2="18.5" y2="5"/>
	</g>
</g>
</svg>
