<?xml version="1.0" encoding="utf-8"?>
<!-- Generator: Adobe Illustrator 19.2.0, SVG Export Plug-In . SVG Version: 6.00 Build 0)  -->
<svg version="1.1" id="Layer_1" xmlns="http://www.w3.org/2000/svg" xmlns:xlink="http://www.w3.org/1999/xlink" x="0px" y="0px"
	 viewBox="0 0 24 24" style="enable-background:new 0 0 24 24;" xml:space="preserve">
<style type="text/css">
	.st0{display:none;}
	.st1{display:inline;}
	.st2{fill:none;stroke:#000000;stroke-linecap:round;stroke-linejoin:round;stroke-miterlimit:10;}
</style>
<g id="Filled_Icon" class="st0">
	<g class="st1">
		<path d="M0.5,9C0.8,9,1,8.8,1,8.5v-1C1,7.2,0.8,7,0.5,7C0.2,7,0,7.2,0,7.5v1C0,8.8,0.2,9,0.5,9z"/>
		<path d="M4.5,23h-1C3.2,23,3,23.2,3,23.5C3,23.8,3.2,24,3.5,24h1C4.8,24,5,23.8,5,23.5C5,23.2,4.8,23,4.5,23z"/>
		<path d="M7.5,23h-1C6.2,23,6,23.2,6,23.5C6,23.8,6.2,24,6.5,24h1C7.8,24,8,23.8,8,23.5C8,23.2,7.8,23,7.5,23z"/>
		<path d="M10.5,23h-1C9.2,23,9,23.2,9,23.5C9,23.8,9.2,24,9.5,24h1c0.3,0,0.5-0.2,0.5-0.5C11,23.2,10.8,23,10.5,23z"/>
		<path d="M13.5,23h-1c-0.3,0-0.5,0.2-0.5,0.5c0,0.3,0.2,0.5,0.5,0.5h1c0.3,0,0.5-0.2,0.5-0.5C14,23.2,13.8,23,13.5,23z"/>
		<path d="M16.5,23h-1c-0.3,0-0.5,0.2-0.5,0.5c0,0.3,0.2,0.5,0.5,0.5h1c0.3,0,0.5-0.2,0.5-0.5C17,23.2,16.8,23,16.5,23z"/>
		<path d="M1.5,23H1v-0.5C1,22.2,0.8,22,0.5,22C0.2,22,0,22.2,0,22.5v1C0,23.8,0.2,24,0.5,24h1C1.8,24,2,23.8,2,23.5
			C2,23.2,1.8,23,1.5,23z"/>
		<path d="M0.5,21C0.8,21,1,20.8,1,20.5v-1C1,19.2,0.8,19,0.5,19C0.2,19,0,19.2,0,19.5v1C0,20.8,0.2,21,0.5,21z"/>
		<path d="M0.5,18C0.8,18,1,17.8,1,17.5v-1C1,16.2,0.8,16,0.5,16C0.2,16,0,16.2,0,16.5v1C0,17.8,0.2,18,0.5,18z"/>
		<path d="M0.5,15C0.8,15,1,14.8,1,14.5v-1C1,13.2,0.8,13,0.5,13C0.2,13,0,13.2,0,13.5v1C0,14.8,0.2,15,0.5,15z"/>
		<path d="M0.5,12C0.8,12,1,11.8,1,11.5v-1C1,10.2,0.8,10,0.5,10C0.2,10,0,10.2,0,10.5v1C0,11.8,0.2,12,0.5,12z"/>
		<path d="M23,0H4C3.4,0,3,0.4,3,1v19c0,0.6,0.4,1,1,1h19c0.6,0,1-0.4,1-1V1C24,0.4,23.6,0,23,0z M22,19H5V2h17V19z"/>
	</g>
</g>
<g id="Outline_Icons">
	<g>
		<line class="st2" x1="0.5" y1="7.5" x2="0.5" y2="8.5"/>
		<line class="st2" x1="4.5" y1="23.5" x2="3.5" y2="23.5"/>
		<line class="st2" x1="7.5" y1="23.5" x2="6.5" y2="23.5"/>
		<line class="st2" x1="10.5" y1="23.5" x2="9.5" y2="23.5"/>
		<line class="st2" x1="13.5" y1="23.5" x2="12.5" y2="23.5"/>
		<line class="st2" x1="16.5" y1="23.5" x2="15.5" y2="23.5"/>
		<polyline class="st2" points="1.5,23.5 0.5,23.5 0.5,22.5 		"/>
		<line class="st2" x1="0.5" y1="20.5" x2="0.5" y2="19.5"/>
		<line class="st2" x1="0.5" y1="17.5" x2="0.5" y2="16.5"/>
		<line class="st2" x1="0.5" y1="14.5" x2="0.5" y2="13.5"/>
		<line class="st2" x1="0.5" y1="11.5" x2="0.5" y2="10.5"/>
		<rect x="4.5" y="0.5" class="st2" width="19" height="19"/>
	</g>
</g>
</svg>
