<?xml version="1.0" encoding="utf-8"?>
<!-- Generator: Adobe Illustrator 19.2.0, SVG Export Plug-In . SVG Version: 6.00 Build 0)  -->
<svg version="1.1" id="Layer_1" xmlns="http://www.w3.org/2000/svg" xmlns:xlink="http://www.w3.org/1999/xlink" x="0px" y="0px"
	 viewBox="0 0 24 24" style="enable-background:new 0 0 24 24;" xml:space="preserve">
<style type="text/css">
	.st0{display:none;}
	.st1{display:inline;}
	.st2{fill:none;stroke:#000000;stroke-linecap:round;stroke-linejoin:round;stroke-miterlimit:10;}
</style>
<g id="Filled_Icons" class="st0">
	<g class="st1">
		<path d="M15.3,18.3L13,20.6V12c0-0.6-0.4-1-1-1c-0.6,0-1,0.4-1,1v8.6l-2.3-2.3c-0.4-0.4-1-0.4-1.4,0c-0.4,0.4-0.4,1,0,1.4l4,4
			c0.4,0.4,1,0.4,1.4,0l4-4c0.4-0.4,0.4-1,0-1.4C16.3,17.9,15.7,17.9,15.3,18.3z"/>
		<path d="M23.5,0h-23C0.2,0,0,0.2,0,0.5v7C0,7.8,0.2,8,0.5,8h23C23.8,8,24,7.8,24,7.5v-7C24,0.2,23.8,0,23.5,0z"/>
	</g>
</g>
<g id="Outline_Icons">
	<g>
		<line class="st2" x1="12.5" y1="12.5" x2="12.5" y2="23.5"/>
		<polyline class="st2" points="16.5,19.5 12.5,23.5 8.5,19.5 		"/>
		<rect x="0.5" y="0.5" class="st2" width="23" height="7"/>
	</g>
</g>
</svg>
