<?xml version="1.0" encoding="utf-8"?>
<!-- Generator: Adobe Illustrator 19.2.0, SVG Export Plug-In . SVG Version: 6.00 Build 0)  -->
<svg version="1.1" id="Layer_1" xmlns="http://www.w3.org/2000/svg" xmlns:xlink="http://www.w3.org/1999/xlink" x="0px" y="0px"
	 viewBox="0 0 24 24" style="enable-background:new 0 0 24 24;" xml:space="preserve">
<style type="text/css">
	.st0{display:none;}
	.st1{display:inline;}
	.st2{fill:none;stroke:#000000;stroke-linecap:round;stroke-linejoin:round;stroke-miterlimit:10;}
</style>
<g id="Filled_Icons" class="st0">
	<path class="st1" d="M23,10H3.4l2.8-2.8c0.4-0.4,0.4-1,0-1.4c-0.4-0.4-1-0.4-1.4,0l-4.5,4.5C0.1,10.5,0,10.7,0,11
		c0,0.3,0.1,0.5,0.3,0.7L4.8,16c0.2,0.2,0.4,0.3,0.7,0.3c0.3,0,0.5-0.1,0.7-0.3c0.4-0.4,0.4-1,0-1.4L3.5,12H22v5.2c0,0.6,0.4,1,1,1
		c0.6,0,1-0.4,1-1V11C24,10.4,23.6,10,23,10z"/>
</g>
<g id="Outline_Icons">
	<g>
		<polyline class="st2" points="0.5,10.5 23.5,10.5 23.5,17.5 		"/>
		<polyline class="st2" points="4.8,14.8 0.5,10.5 4.8,6.2 		"/>
	</g>
</g>
</svg>
