<?xml version="1.0" encoding="utf-8"?>
<!-- Generator: Adobe Illustrator 19.2.0, SVG Export Plug-In . SVG Version: 6.00 Build 0)  -->
<svg version="1.1" id="Layer_1" xmlns="http://www.w3.org/2000/svg" xmlns:xlink="http://www.w3.org/1999/xlink" x="0px" y="0px"
	 viewBox="0 0 24 24" style="enable-background:new 0 0 24 24;" xml:space="preserve">
<style type="text/css">
	.st0{display:none;}
	.st1{display:inline;}
	.st2{fill:none;stroke:#000000;stroke-linecap:round;stroke-linejoin:round;stroke-miterlimit:10;}
</style>
<g id="Filled_Icon" class="st0">
	<g class="st1">
		<path d="M16,22H2V8c0-0.6-0.4-1-1-1C0.4,7,0,7.4,0,8v15c0,0.6,0.4,1,1,1h15c0.6,0,1-0.4,1-1C17,22.4,16.6,22,16,22z"/>
		<path d="M4.5,2C4.8,2,5,1.8,5,1.5V1h0.5C5.8,1,6,0.8,6,0.5C6,0.2,5.8,0,5.5,0h-1C4.2,0,4,0.2,4,0.5v1C4,1.8,4.2,2,4.5,2z"/>
		<path d="M23.5,0h-1C22.2,0,22,0.2,22,0.5C22,0.8,22.2,1,22.5,1H23v0.5C23,1.8,23.2,2,23.5,2C23.8,2,24,1.8,24,1.5v-1
			C24,0.2,23.8,0,23.5,0z"/>
		<path d="M4.5,5C4.8,5,5,4.8,5,4.5v-1C5,3.2,4.8,3,4.5,3C4.2,3,4,3.2,4,3.5v1C4,4.8,4.2,5,4.5,5z"/>
		<path d="M7.5,1h1C8.8,1,9,0.8,9,0.5C9,0.2,8.8,0,8.5,0h-1C7.2,0,7,0.2,7,0.5C7,0.8,7.2,1,7.5,1z"/>
		<path d="M7.5,20h1C8.8,20,9,19.8,9,19.5C9,19.2,8.8,19,8.5,19h-1C7.2,19,7,19.2,7,19.5C7,19.8,7.2,20,7.5,20z"/>
		<path d="M10.5,1h1C11.8,1,12,0.8,12,0.5C12,0.2,11.8,0,11.5,0h-1C10.2,0,10,0.2,10,0.5C10,0.8,10.2,1,10.5,1z"/>
		<path d="M13.5,1h1C14.8,1,15,0.8,15,0.5C15,0.2,14.8,0,14.5,0h-1C13.2,0,13,0.2,13,0.5C13,0.8,13.2,1,13.5,1z"/>
		<path d="M17.5,0h-1C16.2,0,16,0.2,16,0.5C16,0.8,16.2,1,16.5,1h1C17.8,1,18,0.8,18,0.5C18,0.2,17.8,0,17.5,0z"/>
		<path d="M20.5,0h-1C19.2,0,19,0.2,19,0.5C19,0.8,19.2,1,19.5,1h1C20.8,1,21,0.8,21,0.5C21,0.2,20.8,0,20.5,0z"/>
		<path d="M10.5,20h1c0.3,0,0.5-0.2,0.5-0.5c0-0.3-0.2-0.5-0.5-0.5h-1c-0.3,0-0.5,0.2-0.5,0.5C10,19.8,10.2,20,10.5,20z"/>
		<path d="M13.5,20h1c0.3,0,0.5-0.2,0.5-0.5c0-0.3-0.2-0.5-0.5-0.5h-1c-0.3,0-0.5,0.2-0.5,0.5C13,19.8,13.2,20,13.5,20z"/>
		<path d="M17.5,19h-1c-0.3,0-0.5,0.2-0.5,0.5c0,0.3,0.2,0.5,0.5,0.5h1c0.3,0,0.5-0.2,0.5-0.5C18,19.2,17.8,19,17.5,19z"/>
		<path d="M20.5,19h-1c-0.3,0-0.5,0.2-0.5,0.5c0,0.3,0.2,0.5,0.5,0.5h1c0.3,0,0.5-0.2,0.5-0.5C21,19.2,20.8,19,20.5,19z"/>
		<path d="M23.5,18c-0.3,0-0.5,0.2-0.5,0.5V19h-0.5c-0.3,0-0.5,0.2-0.5,0.5c0,0.3,0.2,0.5,0.5,0.5h1c0.3,0,0.5-0.2,0.5-0.5v-1
			C24,18.2,23.8,18,23.5,18z"/>
		<path d="M23.5,15c-0.3,0-0.5,0.2-0.5,0.5v1c0,0.3,0.2,0.5,0.5,0.5c0.3,0,0.5-0.2,0.5-0.5v-1C24,15.2,23.8,15,23.5,15z"/>
		<path d="M4.5,20h1C5.8,20,6,19.8,6,19.5C6,19.2,5.8,19,5.5,19H5v-0.5C5,18.2,4.8,18,4.5,18C4.2,18,4,18.2,4,18.5v1
			C4,19.8,4.2,20,4.5,20z"/>
		<path d="M4.5,17C4.8,17,5,16.8,5,16.5v-1C5,15.2,4.8,15,4.5,15C4.2,15,4,15.2,4,15.5v1C4,16.8,4.2,17,4.5,17z"/>
		<path d="M23.5,12c-0.3,0-0.5,0.2-0.5,0.5v1c0,0.3,0.2,0.5,0.5,0.5c0.3,0,0.5-0.2,0.5-0.5v-1C24,12.2,23.8,12,23.5,12z"/>
		<path d="M23.5,9C23.2,9,23,9.2,23,9.5v1c0,0.3,0.2,0.5,0.5,0.5c0.3,0,0.5-0.2,0.5-0.5v-1C24,9.2,23.8,9,23.5,9z"/>
		<path d="M23.5,6C23.2,6,23,6.2,23,6.5v1C23,7.8,23.2,8,23.5,8C23.8,8,24,7.8,24,7.5v-1C24,6.2,23.8,6,23.5,6z"/>
		<path d="M4.5,14C4.8,14,5,13.8,5,13.5v-1C5,12.2,4.8,12,4.5,12C4.2,12,4,12.2,4,12.5v1C4,13.8,4.2,14,4.5,14z"/>
		<path d="M4.5,11C4.8,11,5,10.8,5,10.5v-1C5,9.2,4.8,9,4.5,9C4.2,9,4,9.2,4,9.5v1C4,10.8,4.2,11,4.5,11z"/>
		<path d="M4.5,8C4.8,8,5,7.8,5,7.5v-1C5,6.2,4.8,6,4.5,6C4.2,6,4,6.2,4,6.5v1C4,7.8,4.2,8,4.5,8z"/>
		<path d="M23.5,3C23.2,3,23,3.2,23,3.5v1C23,4.8,23.2,5,23.5,5C23.8,5,24,4.8,24,4.5v-1C24,3.2,23.8,3,23.5,3z"/>
	</g>
</g>
<g id="Outline_Icons">
	<g>
		<polyline class="st2" points="0.5,8.5 0.5,23.5 15.5,23.5 		"/>
		<polyline class="st2" points="5.5,0.5 4.5,0.5 4.5,1.5 		"/>
		<polyline class="st2" points="22.5,0.5 23.5,0.5 23.5,1.5 		"/>
		<line class="st2" x1="4.5" y1="3.5" x2="4.5" y2="4.5"/>
		<line class="st2" x1="8.5" y1="0.5" x2="7.5" y2="0.5"/>
		<line class="st2" x1="8.5" y1="19.5" x2="7.5" y2="19.5"/>
		<line class="st2" x1="11.5" y1="0.5" x2="10.5" y2="0.5"/>
		<line class="st2" x1="14.5" y1="0.5" x2="13.5" y2="0.5"/>
		<line class="st2" x1="17.5" y1="0.5" x2="16.5" y2="0.5"/>
		<line class="st2" x1="20.5" y1="0.5" x2="19.5" y2="0.5"/>
		<line class="st2" x1="11.5" y1="19.5" x2="10.5" y2="19.5"/>
		<line class="st2" x1="14.5" y1="19.5" x2="13.5" y2="19.5"/>
		<line class="st2" x1="17.5" y1="19.5" x2="16.5" y2="19.5"/>
		<line class="st2" x1="20.5" y1="19.5" x2="19.5" y2="19.5"/>
		<polyline class="st2" points="22.5,19.5 23.5,19.5 23.5,18.5 		"/>
		<line class="st2" x1="23.5" y1="16.5" x2="23.5" y2="15.5"/>
		<polyline class="st2" points="5.5,19.5 4.5,19.5 4.5,18.5 		"/>
		<line class="st2" x1="4.5" y1="16.5" x2="4.5" y2="15.5"/>
		<line class="st2" x1="23.5" y1="13.5" x2="23.5" y2="12.5"/>
		<line class="st2" x1="23.5" y1="10.5" x2="23.5" y2="9.5"/>
		<line class="st2" x1="23.5" y1="7.5" x2="23.5" y2="6.5"/>
		<line class="st2" x1="4.5" y1="13.5" x2="4.5" y2="12.5"/>
		<line class="st2" x1="4.5" y1="10.5" x2="4.5" y2="9.5"/>
		<line class="st2" x1="4.5" y1="7.5" x2="4.5" y2="6.5"/>
		<line class="st2" x1="23.5" y1="4.5" x2="23.5" y2="3.5"/>
	</g>
</g>
</svg>
