<?xml version="1.0" encoding="utf-8"?>
<!-- Generator: Adobe Illustrator 19.2.0, SVG Export Plug-In . SVG Version: 6.00 Build 0)  -->
<svg version="1.1" id="Layer_1" xmlns="http://www.w3.org/2000/svg" xmlns:xlink="http://www.w3.org/1999/xlink" x="0px" y="0px"
	 viewBox="0 0 24 24" style="enable-background:new 0 0 24 24;" xml:space="preserve">
<style type="text/css">
	.st0{display:none;}
	.st1{display:inline;}
	.st2{fill:none;stroke:#000000;stroke-linecap:round;stroke-linejoin:round;stroke-miterlimit:10;}
</style>
<g id="Filled_Icon" class="st0">
	<g class="st1">
		<path d="M1.5,23H1v-0.5C1,22.2,0.8,22,0.5,22C0.2,22,0,22.2,0,22.5v1C0,23.8,0.2,24,0.5,24h1C1.8,24,2,23.8,2,23.5
			C2,23.2,1.8,23,1.5,23z"/>
		<path d="M10.5,22c-0.3,0-0.5,0.2-0.5,0.5V23H9.5C9.2,23,9,23.2,9,23.5C9,23.8,9.2,24,9.5,24h1c0.3,0,0.5-0.2,0.5-0.5v-1
			C11,22.2,10.8,22,10.5,22z"/>
		<path d="M0.5,21C0.8,21,1,20.8,1,20.5v-1C1,19.2,0.8,19,0.5,19C0.2,19,0,19.2,0,19.5v1C0,20.8,0.2,21,0.5,21z"/>
		<path d="M4.5,23h-1C3.2,23,3,23.2,3,23.5C3,23.8,3.2,24,3.5,24h1C4.8,24,5,23.8,5,23.5C5,23.2,4.8,23,4.5,23z"/>
		<path d="M4.5,13h-1C3.2,13,3,13.2,3,13.5C3,13.8,3.2,14,3.5,14h1C4.8,14,5,13.8,5,13.5C5,13.2,4.8,13,4.5,13z"/>
		<path d="M7.5,23h-1C6.2,23,6,23.2,6,23.5C6,23.8,6.2,24,6.5,24h1C7.8,24,8,23.8,8,23.5C8,23.2,7.8,23,7.5,23z"/>
		<path d="M7.5,13h-1C6.2,13,6,13.2,6,13.5C6,13.8,6.2,14,6.5,14h1C7.8,14,8,13.8,8,13.5C8,13.2,7.8,13,7.5,13z"/>
		<path d="M10.5,13h-1C9.2,13,9,13.2,9,13.5C9,13.8,9.2,14,9.5,14H10v0.5c0,0.3,0.2,0.5,0.5,0.5c0.3,0,0.5-0.2,0.5-0.5v-1
			C11,13.2,10.8,13,10.5,13z"/>
		<path d="M10.5,16c-0.3,0-0.5,0.2-0.5,0.5v1c0,0.3,0.2,0.5,0.5,0.5c0.3,0,0.5-0.2,0.5-0.5v-1C11,16.2,10.8,16,10.5,16z"/>
		<path d="M1.5,13h-1C0.2,13,0,13.2,0,13.5v1C0,14.8,0.2,15,0.5,15C0.8,15,1,14.8,1,14.5V14h0.5C1.8,14,2,13.8,2,13.5
			C2,13.2,1.8,13,1.5,13z"/>
		<path d="M0.5,18C0.8,18,1,17.8,1,17.5v-1C1,16.2,0.8,16,0.5,16C0.2,16,0,16.2,0,16.5v1C0,17.8,0.2,18,0.5,18z"/>
		<path d="M10.5,19c-0.3,0-0.5,0.2-0.5,0.5v1c0,0.3,0.2,0.5,0.5,0.5c0.3,0,0.5-0.2,0.5-0.5v-1C11,19.2,10.8,19,10.5,19z"/>
		<path d="M10.5,0h-10C0.2,0,0,0.2,0,0.5v10C0,10.8,0.2,11,0.5,11h10c0.3,0,0.5-0.2,0.5-0.5v-10C11,0.2,10.8,0,10.5,0z"/>
		<path d="M23.2,14.3c-0.4-0.4-1-0.4-1.4,0l-2.3,2.3V3.5c0-0.6-0.4-1-1-1c-0.6,0-1,0.4-1,1v13.1l-2.3-2.3c-0.4-0.4-1-0.4-1.4,0
			c-0.4,0.4-0.4,1,0,1.4l4,4c0.2,0.2,0.5,0.3,0.7,0.3c0.3,0,0.5-0.1,0.7-0.3l4-4C23.6,15.3,23.6,14.7,23.2,14.3z"/>
	</g>
</g>
<g id="Outline_Icons">
	<g>
		<polyline class="st2" points="1.5,23.5 0.5,23.5 0.5,22.5 		"/>
		<polyline class="st2" points="9.5,23.5 10.5,23.5 10.5,22.5 		"/>
		<line class="st2" x1="0.5" y1="20.5" x2="0.5" y2="19.5"/>
		<line class="st2" x1="4.5" y1="23.5" x2="3.5" y2="23.5"/>
		<line class="st2" x1="4.5" y1="13.5" x2="3.5" y2="13.5"/>
		<line class="st2" x1="7.5" y1="23.5" x2="6.5" y2="23.5"/>
		<line class="st2" x1="7.5" y1="13.5" x2="6.5" y2="13.5"/>
		<polyline class="st2" points="9.5,13.5 10.5,13.5 10.5,14.5 		"/>
		<line class="st2" x1="10.5" y1="16.5" x2="10.5" y2="17.5"/>
		<polyline class="st2" points="1.5,13.5 0.5,13.5 0.5,14.5 		"/>
		<line class="st2" x1="0.5" y1="16.5" x2="0.5" y2="17.5"/>
		<line class="st2" x1="10.5" y1="19.5" x2="10.5" y2="20.5"/>
		<rect x="0.5" y="0.5" class="st2" width="10" height="10"/>
		<polyline class="st2" points="22.5,15 18.5,19 14.5,15 		"/>
		<line class="st2" x1="18.5" y1="3.5" x2="18.5" y2="19"/>
	</g>
</g>
</svg>
