<?xml version="1.0" encoding="utf-8"?>
<!-- Generator: Adobe Illustrator 19.2.0, SVG Export Plug-In . SVG Version: 6.00 Build 0)  -->
<svg version="1.1" id="Layer_1" xmlns="http://www.w3.org/2000/svg" xmlns:xlink="http://www.w3.org/1999/xlink" x="0px" y="0px"
	 viewBox="0 0 24 24" style="enable-background:new 0 0 24 24;" xml:space="preserve">
<style type="text/css">
	.st0{display:none;}
	.st1{display:inline;}
	.st2{fill:none;stroke:#000000;stroke-linecap:round;stroke-linejoin:round;stroke-miterlimit:10;}
</style>
<g id="Filled_Icons" class="st0">
	<g class="st1">
		<path d="M22.8,19.7c-0.1-0.5-0.7-0.9-1.2-0.8l-3.5,0.8C22,14.6,22,7.3,17.8,2.3c-0.4-0.4-1-0.5-1.4-0.1c-0.4,0.4-0.5,1-0.1,1.4
			c3.7,4.3,3.6,10.6,0.2,15l0.3-3.9c0-0.6-0.4-1-0.9-1.1c-0.5,0-1,0.4-1.1,0.9l-0.4,6.7c0,0.3,0.1,0.6,0.3,0.8
			c0.2,0.2,0.4,0.2,0.7,0.2c0.1,0,0.1,0,0.2,0l6.5-1.4C22.6,20.8,22.9,20.3,22.8,19.7z"/>
		<path d="M10.5,22c-0.3,0-0.5,0.2-0.5,0.5V23H9.5C9.2,23,9,23.2,9,23.5C9,23.8,9.2,24,9.5,24h1c0.3,0,0.5-0.2,0.5-0.5v-1
			C11,22.2,10.8,22,10.5,22z"/>
		<path d="M5.5,23H5v-0.5C5,22.2,4.8,22,4.5,22C4.2,22,4,22.2,4,22.5v1C4,23.8,4.2,24,4.5,24h1C5.8,24,6,23.8,6,23.5
			C6,23.2,5.8,23,5.5,23z"/>
		<path d="M10.1,20.1C10,20.2,10,20.4,10,20.5c0,0.1,0,0.3,0.1,0.4c0.1,0.1,0.2,0.1,0.4,0.1c0.1,0,0.3,0,0.4-0.2
			c0.1-0.1,0.1-0.2,0.1-0.3c0-0.1,0-0.2-0.1-0.4C10.7,20,10.3,20,10.1,20.1z"/>
		<path d="M7.1,23.1C7,23.2,7,23.4,7,23.5c0,0.1,0,0.3,0.1,0.4C7.2,24,7.4,24,7.5,24c0.1,0,0.3,0,0.4-0.2C8,23.8,8,23.6,8,23.5
			c0-0.1,0-0.2-0.1-0.4C7.7,23,7.3,23,7.1,23.1z"/>
		<path d="M7.1,17.1C7,17.2,7,17.4,7,17.5c0,0.1,0,0.3,0.1,0.4C7.2,18,7.4,18,7.5,18c0.1,0,0.2,0,0.4-0.2C8,17.8,8,17.6,8,17.5
			c0-0.1,0-0.3-0.1-0.4C7.7,17,7.3,17,7.1,17.1z"/>
		<path d="M5.5,17h-1C4.2,17,4,17.2,4,17.5v1C4,18.8,4.2,19,4.5,19C4.8,19,5,18.8,5,18.5V18h0.5C5.8,18,6,17.8,6,17.5
			C6,17.2,5.8,17,5.5,17z"/>
		<path d="M10.5,17h-1C9.2,17,9,17.2,9,17.5C9,17.8,9.2,18,9.5,18H10v0.5c0,0.3,0.2,0.5,0.5,0.5c0.3,0,0.5-0.2,0.5-0.5v-1
			C11,17.2,10.8,17,10.5,17z"/>
		<path d="M4.5,21c0.1,0,0.3,0,0.4-0.2C5,20.8,5,20.6,5,20.5c0-0.1,0-0.3-0.1-0.4c-0.2-0.2-0.5-0.2-0.7,0C4,20.2,4,20.4,4,20.5
			c0,0.1,0,0.3,0.1,0.4C4.2,21,4.4,21,4.5,21z"/>
		<path d="M10.5,14c-0.3,0-0.5,0.2-0.5,0.5V15H9.5C9.2,15,9,15.2,9,15.5C9,15.8,9.2,16,9.5,16h1c0.3,0,0.5-0.2,0.5-0.5v-1
			C11,14.2,10.8,14,10.5,14z"/>
		<path d="M5.5,15H5v-0.5C5,14.2,4.8,14,4.5,14C4.2,14,4,14.2,4,14.5v1C4,15.8,4.2,16,4.5,16h1C5.8,16,6,15.8,6,15.5
			C6,15.2,5.8,15,5.5,15z"/>
		<path d="M10.1,12.1C10,12.2,10,12.4,10,12.5c0,0.1,0,0.3,0.1,0.4c0.1,0.1,0.2,0.1,0.4,0.1c0.1,0,0.3,0,0.4-0.2
			c0.1-0.1,0.1-0.2,0.1-0.3c0-0.1,0-0.3-0.1-0.4C10.7,12,10.4,12,10.1,12.1z"/>
		<path d="M7.1,15.1C7,15.2,7,15.4,7,15.5c0,0.1,0,0.3,0.1,0.4C7.2,16,7.4,16,7.5,16c0.1,0,0.3,0,0.4-0.2C8,15.8,8,15.6,8,15.5
			c0-0.1,0-0.3-0.1-0.4C7.7,15,7.3,15,7.1,15.1z"/>
		<path d="M7.1,9.1C7,9.2,7,9.4,7,9.5c0,0.1,0,0.3,0.1,0.4C7.2,10,7.4,10,7.5,10c0.1,0,0.3,0,0.4-0.1C8,9.8,8,9.6,8,9.5
			c0-0.1,0-0.3-0.1-0.4C7.7,9,7.3,9,7.1,9.1z"/>
		<path d="M5.5,9h-1C4.2,9,4,9.2,4,9.5v1C4,10.8,4.2,11,4.5,11C4.8,11,5,10.8,5,10.5V10h0.5C5.8,10,6,9.8,6,9.5C6,9.2,5.8,9,5.5,9z"
			/>
		<path d="M10.5,9h-1C9.2,9,9,9.2,9,9.5C9,9.8,9.2,10,9.5,10H10v0.5c0,0.3,0.2,0.5,0.5,0.5c0.3,0,0.5-0.2,0.5-0.5v-1
			C11,9.2,10.8,9,10.5,9z"/>
		<path d="M4.5,13c0.1,0,0.3,0,0.4-0.1C5,12.8,5,12.6,5,12.5c0-0.1,0-0.3-0.1-0.4c-0.2-0.2-0.5-0.2-0.7,0C4,12.2,4,12.4,4,12.5
			c0,0.1,0,0.3,0.1,0.4C4.2,13,4.4,13,4.5,13z"/>
		<path d="M10.5,1h-6C4.2,1,4,1.2,4,1.5v6C4,7.8,4.2,8,4.5,8h6C10.8,8,11,7.8,11,7.5v-6C11,1.2,10.8,1,10.5,1z"/>
	</g>
</g>
<g id="Outline_Icons">
	<g>
		<g>
			<polyline class="st2" points="21.8,19.9 15.3,21.4 15.8,14.7 			"/>
			<path class="st2" d="M15.3,21.3C20.8,16.7,21.7,8.5,17,3"/>
		</g>
		<polyline class="st2" points="9.5,23.5 10.5,23.5 10.5,22.5 		"/>
		<polyline class="st2" points="5.5,23.5 4.5,23.5 4.5,22.5 		"/>
		<line class="st2" x1="10.5" y1="20.5" x2="10.5" y2="20.5"/>
		<line class="st2" x1="7.5" y1="23.5" x2="7.5" y2="23.5"/>
		<line class="st2" x1="7.5" y1="17.5" x2="7.5" y2="17.5"/>
		<polyline class="st2" points="5.5,17.5 4.5,17.5 4.5,18.5 		"/>
		<polyline class="st2" points="9.5,17.5 10.5,17.5 10.5,18.5 		"/>
		<line class="st2" x1="4.5" y1="20.5" x2="4.5" y2="20.5"/>
		<polyline class="st2" points="9.5,15.5 10.5,15.5 10.5,14.5 		"/>
		<polyline class="st2" points="5.5,15.5 4.5,15.5 4.5,14.5 		"/>
		<line class="st2" x1="10.5" y1="12.5" x2="10.5" y2="12.5"/>
		<line class="st2" x1="7.5" y1="15.5" x2="7.5" y2="15.5"/>
		<line class="st2" x1="7.5" y1="9.5" x2="7.5" y2="9.5"/>
		<polyline class="st2" points="5.5,9.5 4.5,9.5 4.5,10.5 		"/>
		<polyline class="st2" points="9.5,9.5 10.5,9.5 10.5,10.5 		"/>
		<line class="st2" x1="4.5" y1="12.5" x2="4.5" y2="12.5"/>
		<rect x="4.5" y="1.5" class="st2" width="6" height="6"/>
	</g>
</g>
</svg>
