<?xml version="1.0" encoding="utf-8"?>
<!-- Generator: Adobe Illustrator 19.2.0, SVG Export Plug-In . SVG Version: 6.00 Build 0)  -->
<svg version="1.1" id="Layer_1" xmlns="http://www.w3.org/2000/svg" xmlns:xlink="http://www.w3.org/1999/xlink" x="0px" y="0px"
	 viewBox="0 0 24 24" style="enable-background:new 0 0 24 24;" xml:space="preserve">
<style type="text/css">
	.st0{display:none;}
	.st1{display:inline;}
	.st2{fill:none;stroke:#000000;stroke-linecap:round;stroke-linejoin:round;stroke-miterlimit:10;}
</style>
<g id="Filled_Icon" class="st0">
	<path class="st1" d="M20.5,18h-17C2.7,18,2,17.3,2,16.5C2,15.7,2.7,15,3.5,15H10c1.5,1.2,3.4,2,5.5,2c4.7,0,8.5-3.8,8.5-8.5
		C24,3.8,20.2,0,15.5,0C10.8,0,7,3.8,7,8.5c0,1.7,0.5,3.2,1.3,4.5H3.5C1.6,13,0,14.6,0,16.5C0,18.4,1.6,20,3.5,20h17
		c0.6,0,1,0.4,1,1c0,0.6-0.4,1-1,1h-10c-0.6,0-1,0.4-1,1c0,0.6,0.4,1,1,1h10c1.7,0,3-1.3,3-3C23.5,19.3,22.2,18,20.5,18z M17.9,14.5
		c-0.7,0.3-1.5,0.4-2.3,0.4c-0.8,0-1.7-0.2-2.6-0.5c-0.1,0-0.2-0.1-0.3-0.3c-0.1-0.1-0.1-0.3,0-0.4l1-2.5c0.1-0.1,0.2-0.2,0.3-0.3
		c0.1,0,0.3,0,0.4,0c0.6,0.4,1.4,0.4,2.2,0.1c0.1-0.1,0.3-0.1,0.4,0c0.1,0.1,0.2,0.2,0.3,0.3l0.9,2.4c0,0.1,0.1,0.1,0.1,0.2
		C18.3,14.2,18.1,14.5,17.9,14.5z M13.5,8.5c0-1.1,0.9-2,2-2c1.1,0,2,0.9,2,2c0,1.1-0.9,2-2,2C14.4,10.5,13.5,9.6,13.5,8.5z
		 M20.8,5.8c0.1,0,0.1-0.1,0.2-0.1c0.2,0,0.5,0.1,0.5,0.4c0.7,1.8,0.4,3.7,0,4.9c0,0.1-0.1,0.2-0.3,0.3c-0.1,0-0.1,0-0.2,0
		c-0.1,0-0.1,0-0.2,0l-2.5-1c-0.1-0.1-0.2-0.2-0.3-0.3c0-0.1,0-0.3,0-0.4c0.5-0.8,0.3-1.7,0.1-2.2c-0.1-0.1-0.1-0.3,0-0.4
		c0.1-0.1,0.2-0.2,0.3-0.3L20.8,5.8z M13.1,2.5C13.1,2.5,13.1,2.5,13.1,2.5c1.5-0.6,3.2-0.5,4.9,0c0.1,0,0.2,0.1,0.3,0.3
		c0.1,0.1,0.1,0.3,0,0.4l-1,2.3c-0.1,0.2-0.3,0.3-0.5,0.3c0,0-0.1,0-0.1,0c-0.1,0-0.1,0-0.2-0.1c-0.7-0.3-1.5-0.3-2.2,0
		c-0.3,0.1-0.5,0-0.7-0.3l-0.9-2.2c0-0.1-0.1-0.1-0.1-0.2v0C12.7,2.7,12.9,2.5,13.1,2.5z M9.5,6c0-0.1,0.1-0.2,0.3-0.3
		c0.1-0.1,0.3-0.1,0.4,0l2.5,1C12.8,6.7,12.9,6.9,13,7c0,0.1,0,0.3,0,0.4c-0.5,0.8-0.3,1.7-0.1,2.2c0.1,0.1,0,0.3,0,0.4
		c-0.1,0.1-0.2,0.2-0.3,0.3l-2.4,0.9c-0.1,0-0.1,0.1-0.2,0.1c0,0,0,0,0,0c-0.2,0-0.4-0.2-0.5-0.4C8.8,9.1,9.1,7.2,9.5,6z"/>
</g>
<g id="Outline_Icons">
	<g>
		<circle class="st2" cx="15.5" cy="8.5" r="8"/>
		<path class="st2" d="M10,14.5H3c-1.4,0-2.5,1.1-2.5,2.5c0,1.4,1.1,2.5,2.5,2.5h17.5c1.1,0,2,0.9,2,2c0,1.1-0.9,2-2,2h-10"/>
		<circle class="st2" cx="15.5" cy="8.5" r="1.5"/>
		<path class="st2" d="M16.8,5.3l1-2.3l0,0c-1.4-0.5-3.1-0.7-4.6,0v0l1,2.3C15.1,4.9,16,4.9,16.8,5.3L16.8,5.3z"/>
		<path class="st2" d="M12.5,7.2l-2.5-1v0c-0.5,1.4-0.7,3.1,0,4.6l0,0l2.4-1C12,8.9,12,8,12.5,7.2L12.5,7.2z"/>
		<path class="st2" d="M14.2,11.5l-1,2.5h0c1.4,0.5,3.1,0.7,4.6,0l0,0l-1-2.4C15.9,12,15,12,14.2,11.5L14.2,11.5z"/>
		<path class="st2" d="M18.5,9.8l2.5,1v0c0.5-1.4,0.7-3.1,0-4.6l0,0l-2.4,1C19,8.1,19,9,18.5,9.8L18.5,9.8z"/>
	</g>
</g>
</svg>
