<?xml version="1.0" encoding="utf-8"?>
<!-- Generator: Adobe Illustrator 19.2.0, SVG Export Plug-In . SVG Version: 6.00 Build 0)  -->
<svg version="1.1" id="Layer_1" xmlns="http://www.w3.org/2000/svg" xmlns:xlink="http://www.w3.org/1999/xlink" x="0px" y="0px"
	 viewBox="0 0 24 24" style="enable-background:new 0 0 24 24;" xml:space="preserve">
<style type="text/css">
	.st0{display:none;}
	.st1{display:inline;}
	.st2{fill:none;stroke:#000000;stroke-linecap:round;stroke-linejoin:round;stroke-miterlimit:10;}
</style>
<g id="Filled_Icon" class="st0">
	<g class="st1">
		<polygon points="20.2,7 18.2,9 23,9 24,9 24,7 23,7 		"/>
		<path d="M7,6L5.5,4L4.8,3H0.5C0.2,3,0,3.2,0,3.5V6h1H7z"/>
		<polygon points="14.2,6 19,6 17.5,4 16.8,3 12,3 12.8,4 		"/>
		<path d="M1,10H0v10.5C0,20.8,0.2,21,0.5,21h23c0.3,0,0.5-0.2,0.5-0.5V10h-1H1z M12,13.5c0-0.3,0.2-0.5,0.5-0.5
			c0.3,0,0.5,0.2,0.5,0.5v2c0,0.3-0.2,0.5-0.5,0.5c-0.3,0-0.5-0.2-0.5-0.5V13.5z M3.5,17h17c0.3,0,0.5,0.2,0.5,0.5
			c0,0.3-0.2,0.5-0.5,0.5h-17C3.2,18,3,17.8,3,17.5C3,17.2,3.2,17,3.5,17z"/>
		<polygon points="8.2,6 13,6 11.5,4 10.8,3 6,3 6.8,4 		"/>
		<polygon points="18.8,7 14.2,7 12.2,9 16.8,9 		"/>
		<polygon points="4.8,9 6.8,7 1,7 0,7 0,9 1,9 		"/>
		<polygon points="6.2,9 10.8,9 12.8,7 8.2,7 		"/>
		<path d="M23.5,3H18l0.8,1l1.5,2H23h1V3.5C24,3.2,23.8,3,23.5,3z"/>
	</g>
</g>
<g id="Outline_Icons">
	<g>
		<rect x="0.5" y="3.5" class="st2" width="23" height="17"/>
		<line class="st2" x1="0.5" y1="9.5" x2="23.5" y2="9.5"/>
		<line class="st2" x1="0.5" y1="6.5" x2="23.5" y2="6.5"/>
		<polyline class="st2" points="5,3.5 8,6.5 5,9.5 		"/>
		<polyline class="st2" points="11,3.5 14,6.5 11,9.5 		"/>
		<polyline class="st2" points="17,3.5 20,6.5 17,9.5 		"/>
		<line class="st2" x1="3.5" y1="17.5" x2="20.5" y2="17.5"/>
		<line class="st2" x1="12.5" y1="15.5" x2="12.5" y2="13.5"/>
	</g>
</g>
</svg>
