<?xml version="1.0" encoding="utf-8"?>
<!-- Generator: Adobe Illustrator 19.2.0, SVG Export Plug-In . SVG Version: 6.00 Build 0)  -->
<svg version="1.1" id="Layer_1" xmlns="http://www.w3.org/2000/svg" xmlns:xlink="http://www.w3.org/1999/xlink" x="0px" y="0px"
	 viewBox="0 0 24 24" style="enable-background:new 0 0 24 24;" xml:space="preserve">
<style type="text/css">
	.st0{display:none;}
	.st1{display:inline;}
	.st2{fill:none;stroke:#000000;stroke-linejoin:round;stroke-miterlimit:10;}
</style>
<g id="Filled_Icons" class="st0">
	<g class="st1">
		<path d="M22.8,6c-0.7,0-1.2,0.7-1.2,1.5v3c0,0.5,0.2,0.9,0.5,1.2V19c0,1.1-0.9,2-2,2c-1.1,0-2-0.9-2-2V5c0-1.1-0.9-2-2-2h-2V2
			c0-1.1-0.9-2-2-2H2C0.9,0,0,0.9,0,2v12.5V15v7c0,1.1,0.9,2,2,2h10c1.1,0,2-0.9,2-2v-7v-0.5V4h2c0.6,0,1,0.4,1,1v14
			c0,1.7,1.3,3,3,3c1.7,0,3-1.3,3-3v-7c0.6-0.1,1-0.7,1-1.5v-3C24,6.7,23.5,6,22.8,6z M7,22c-1.7,0-3-1.3-3-3c0-1.7,1.3-3,3-3
			c1.7,0,3,1.3,3,3C10,20.7,8.7,22,7,22z M13,14H1V2c0-0.6,0.4-1,1-1h10c0.6,0,1,0.4,1,1V14z"/>
		<path d="M20.5,10.5H21v-3h-0.5c-1.3,0-2,0.5-2,1.5C18.5,10,19.2,10.5,20.5,10.5z"/>
		<rect x="3" y="5" width="2" height="1"/>
		<rect x="3" y="7" width="2" height="1"/>
		<rect x="3" y="9" width="2" height="1"/>
		<rect x="3" y="11" width="2" height="1"/>
		<rect x="9" y="7" width="2" height="1"/>
		<rect x="9" y="9" width="2" height="1"/>
		<rect x="9" y="11" width="2" height="1"/>
		<rect x="6" y="9" width="2" height="1"/>
		<rect x="6" y="11" width="2" height="1"/>
	</g>
</g>
<g id="Outline_Icons">
	<g>
		<path class="st2" d="M13.5,22c0,0.8-0.7,1.5-1.5,1.5H2c-0.8,0-1.5-0.7-1.5-1.5V2c0-0.8,0.7-1.5,1.5-1.5h10c0.8,0,1.5,0.7,1.5,1.5
			V22z"/>
		<line class="st2" x1="0.5" y1="14.5" x2="13.5" y2="14.5"/>
		<circle class="st2" cx="7" cy="19" r="2.5"/>
		<g>
			<g>
				<g>
					<polygon points="6.5,18 6.5,20 8,19 					"/>
				</g>
			</g>
		</g>
		<path class="st2" d="M13.5,3.5H16c0.8,0,1.5,0.7,1.5,1.5v14c0,1.4,1.1,2.5,2.5,2.5c1.4,0,2.5-1.1,2.5-2.5v-7.5"/>
		<path class="st2" d="M23.5,10.5c0,0.6-0.4,1-1,1c-0.6,0-1-0.4-1-1v-3c0-0.6,0.4-1,1-1c0.6,0,1,0.4,1,1V10.5z"/>
		<path class="st2" d="M21.5,10.5H21c-0.8,0-1.5-0.7-1.5-1.5c0-0.8,0.7-1.5,1.5-1.5h0.5V10.5z"/>
		<line class="st2" x1="3" y1="5.5" x2="5" y2="5.5"/>
		<line class="st2" x1="3" y1="7.5" x2="5" y2="7.5"/>
		<line class="st2" x1="3" y1="9.5" x2="5" y2="9.5"/>
		<line class="st2" x1="3" y1="11.5" x2="5" y2="11.5"/>
		<line class="st2" x1="9" y1="7.5" x2="11" y2="7.5"/>
		<line class="st2" x1="9" y1="9.5" x2="11" y2="9.5"/>
		<line class="st2" x1="9" y1="11.5" x2="11" y2="11.5"/>
		<line class="st2" x1="6" y1="9.5" x2="8" y2="9.5"/>
		<line class="st2" x1="6" y1="11.5" x2="8" y2="11.5"/>
	</g>
</g>
</svg>
