<?xml version="1.0" encoding="utf-8"?>
<!-- Generator: Adobe Illustrator 19.2.0, SVG Export Plug-In . SVG Version: 6.00 Build 0)  -->
<svg version="1.1" id="Layer_1" xmlns="http://www.w3.org/2000/svg" xmlns:xlink="http://www.w3.org/1999/xlink" x="0px" y="0px"
	 viewBox="0 0 24 24" style="enable-background:new 0 0 24 24;" xml:space="preserve">
<style type="text/css">
	.st0{display:none;}
	.st1{display:inline;}
	.st2{fill:none;stroke:#000000;stroke-linecap:round;stroke-linejoin:round;stroke-miterlimit:10;}
</style>
<g id="Filled_Icons" class="st0">
	<path class="st1" d="M18.2,11c-2.1-0.1-4.5,1.1-5.2,3.9c-0.5-0.4-1.3-0.7-2.2-0.9c-1.1-0.2-2.6,0-3.6,0.6l0.3-2.7V11
		c0-0.1,0-0.2,0.1-0.3l1.8-2.6L8.1,7.2L6.4,9.3C6.2,9.5,5.9,9.6,5.7,9.4C5.5,9.2,5.4,8.9,5.6,8.7l2-2.5C7.8,6,8.1,5.9,8.3,6.1l2,1.5
		c0.2,0.2,0.3,0.5,0.1,0.7L9.2,10l-0.5,0.7c-0.1,0.1-0.1,0.2-0.1,0.4c0,0.1,0.1,0.2,0.2,0.3l0.6,0.4c0,0.1,0.1,0.2,0.2,0.2
		c0.2,0,0.3-0.1,0.4-0.2L12.8,8c0.2-0.2,0.1-0.5-0.1-0.7l-5.5-4c0-0.2-0.2-0.2-0.3-0.2S6.7,3.2,6.6,3.3c0,0-3.7,4.6-3.7,5.3
		c-1,3.8-2.1,8.1-1.9,9.4c0,1.6,1.4,3,3.9,4.1c2.2,0.9,5.1,1.5,7.9,1.5c5,0,10.4-1.8,10.4-7C23.1,12.9,20.5,11.1,18.2,11z
		 M19.7,18.5l-2,1l0,0c-0.1,0-0.1,0-0.2,0s-0.1,0-0.2,0l0,0l-2-1c-0.2-0.1-0.3-0.4-0.2-0.7c0.1-0.2,0.4-0.3,0.7-0.2l1.3,0.6V16h-0.5
		c-0.3,0-0.5-0.2-0.5-0.5s0.2-0.5,0.5-0.5H17v-1c0-0.3,0.2-0.5,0.5-0.5S18,13.7,18,14v1h0.5c0.3,0,0.5,0.2,0.5,0.5S18.8,16,18.5,16
		H18v2.2l1.3-0.6c0.2-0.1,0.5,0,0.7,0.2C20.1,18,20,18.3,19.7,18.5z"/>
</g>
<g id="Outline_Icons">
	<g>
		<g>
			<path class="st2" d="M5.5,9.5l2-2.5L9,8l-2,3l-0.5,4.8C8,14,12.3,14,13.2,16.1c0.5-6.3,9.4-6,9.4,0.5c0,9.8-21.1,7-21.1,1.5
				c-0.3-1.5,1.3-7.4,2-9.7c0.4-1.5,2-2.8,2-2.8h5L11,8l-0.9,2.5L7,11"/>
		</g>
		<line class="st2" x1="16.5" y1="15.5" x2="18.5" y2="15.5"/>
		<line class="st2" x1="17.5" y1="14" x2="17.5" y2="19"/>
		<polyline class="st2" points="15.5,18 17.5,19 19.5,18 		"/>
	</g>
</g>
</svg>
