<?xml version="1.0" encoding="utf-8"?>
<!-- Generator: Adobe Illustrator 19.2.0, SVG Export Plug-In . SVG Version: 6.00 Build 0)  -->
<svg version="1.1" id="Layer_1" xmlns="http://www.w3.org/2000/svg" xmlns:xlink="http://www.w3.org/1999/xlink" x="0px" y="0px"
	 viewBox="0 0 24 24" style="enable-background:new 0 0 24 24;" xml:space="preserve">
<style type="text/css">
	.st0{display:none;}
	.st1{display:inline;}
	.st2{fill:none;stroke:#000000;stroke-linecap:round;stroke-linejoin:round;stroke-miterlimit:10;}
	.st3{fill:none;stroke:#000000;stroke-linejoin:round;stroke-miterlimit:10;}
</style>
<g id="Filled_Icon" class="st0">
	<g class="st1">
		<g>
			<path d="M3.5,8C3.2,8,3,7.9,2.8,7.7c-0.4-0.4-0.4-1,0-1.4l6-6c0.4-0.4,1-0.4,1.4,0s0.4,1,0,1.4l-6,6C4,7.9,3.8,8,3.5,8z"/>
		</g>
		<g>
			<path d="M20.5,8c-0.3,0-0.5-0.1-0.7-0.3l-6-6c-0.4-0.4-0.4-1,0-1.4s1-0.4,1.4,0l6,6c0.4,0.4,0.4,1,0,1.4C21,7.9,20.8,8,20.5,8z"
				/>
		</g>
		<g>
			<path d="M0.5,12h23c0.3,0,0.5-0.2,0.5-0.5v-2C24,9.2,23.8,9,23.5,9h-23C0.2,9,0,9.2,0,9.5v2C0,11.8,0.2,12,0.5,12z"/>
			<path d="M1.2,13L3,23.6C3,23.8,3.3,24,3.5,24h17c0.2,0,0.5-0.2,0.5-0.4L22.8,13H1.2z M15,19.5c0,0.8-0.7,1.5-1.5,1.5
				S12,20.3,12,19.5s0.7-1.5,1.5-1.5H14v-2.7l-3,1.4v4.8c0,0.8-0.7,1.5-1.5,1.5S8,22.3,8,21.5S8.7,20,9.5,20H10v-3.6
				c0-0.2,0.1-0.4,0.3-0.5l4-1.9c0.2-0.1,0.3-0.1,0.5,0c0.1,0.1,0.2,0.3,0.2,0.4V19.5z"/>
		</g>
	</g>
</g>
<g id="Outline_Icons">
	<g>
		<g>
			<polygon class="st2" points="20.5,23.5 3.5,23.5 1.5,11.5 22.5,11.5 			"/>
			<rect x="0.5" y="9.5" class="st2" width="23" height="2"/>
			<line class="st2" x1="3.5" y1="7" x2="9.5" y2="1"/>
			<line class="st2" x1="20.5" y1="7" x2="14.5" y2="1"/>
		</g>
		<path class="st3" d="M10.5,20.5c0,0.5-0.4,1-1,1s-1-0.4-1-1s0.4-1,1-1c0.2,0,0.8,0,1,0C10.5,19.8,10.5,20.1,10.5,20.5z"/>
		<path class="st3" d="M14.5,18.5c0,0.5-0.4,1-1,1s-1-0.4-1-1s0.4-1,1-1c0.2,0,0.8,0,1,0C14.5,17.8,14.5,18.2,14.5,18.5z"/>
		<polyline class="st3" points="10.5,19.7 10.5,15.4 14.5,13.5 14.5,17.7 		"/>
	</g>
</g>
</svg>
