<?xml version="1.0" encoding="utf-8"?>
<!-- Generator: Adobe Illustrator 19.2.0, SVG Export Plug-In . SVG Version: 6.00 Build 0)  -->
<svg version="1.1" id="Layer_1" xmlns="http://www.w3.org/2000/svg" xmlns:xlink="http://www.w3.org/1999/xlink" x="0px" y="0px"
	 viewBox="0 0 24 24" style="enable-background:new 0 0 24 24;" xml:space="preserve">
<style type="text/css">
	.st0{display:none;}
	.st1{display:inline;}
	.st2{fill:none;stroke:#000000;stroke-linecap:round;stroke-linejoin:round;stroke-miterlimit:10;}
</style>
<g id="Filled_Icon" class="st0">
	<g class="st1">
		<path d="M8,15.5C8,16.7,8.8,17,9.5,17c1.3,0,1.5-0.1,1.5-0.5v-2V14H9.5C8.8,14,8,14.3,8,15.5z"/>
		<path d="M14,13.5c0,1.2,0.8,1.5,1.5,1.5c1.3,0,1.5-0.1,1.5-0.5V12h-1.5C14.8,12,14,12.3,14,13.5z"/>
		<path d="M23.5,1H4v21h19.5c0.3,0,0.5-0.2,0.5-0.5v-20C24,1.2,23.8,1,23.5,1z M18,14.5c0,1.5-1.5,1.5-2.5,1.5
			c-1.2,0-2.5-0.7-2.5-2.5s1.3-2.5,2.5-2.5H17V5.4l-5,3.3v7.7C12,18,10.5,18,9.5,18C8.3,18,7,17.3,7,15.5S8.3,13,9.5,13H11V8.5
			c0-0.2,0.1-0.3,0.2-0.4l6-4c0.2-0.1,0.4-0.1,0.5,0c0.2,0,0.3,0.2,0.3,0.4V14.5z"/>
		<path d="M0,1.5v20C0,21.8,0.2,22,0.5,22H3V1H0.5C0.2,1,0,1.2,0,1.5z"/>
	</g>
</g>
<g id="Outline_Icons">
	<g>
		<path class="st2" d="M11.5,16.5c0,1-1,1-2,1s-2-0.5-2-2s1-2,2-2s1.5,0,2,0C11.5,14.5,11.5,15.5,11.5,16.5z"/>
		<polyline class="st2" points="11.5,14.5 11.5,8.5 17.5,4.5 17.5,12 		"/>
		<rect x="0.5" y="1.5" class="st2" width="23" height="20"/>
		<line class="st2" x1="3.5" y1="1.5" x2="3.5" y2="21.5"/>
		<path class="st2" d="M17.5,14.5c0,1-1,1-2,1s-2-0.5-2-2s1-2,2-2s1.5,0,2,0C17.5,12.5,17.5,13.5,17.5,14.5z"/>
	</g>
</g>
</svg>
