<?xml version="1.0" encoding="utf-8"?>
<!-- Generator: Adobe Illustrator 19.2.0, SVG Export Plug-In . SVG Version: 6.00 Build 0)  -->
<svg version="1.1" id="Layer_1" xmlns="http://www.w3.org/2000/svg" xmlns:xlink="http://www.w3.org/1999/xlink" x="0px" y="0px"
	 viewBox="0 0 24 24" style="enable-background:new 0 0 24 24;" xml:space="preserve">
<style type="text/css">
	.st0{display:none;}
	.st1{display:inline;}
	.st2{fill:none;stroke:#000000;stroke-linejoin:round;stroke-miterlimit:10;}
</style>
<g id="Filled_Icon" class="st0">
	<path class="st1" d="M9,4.7v11.8H6.5C4.6,16.5,3,18.1,3,20s1.6,3.5,3.5,3.5S10,21.9,10,20V8.8l10-4.1v7.8h-2.5
		c-1.9,0-3.5,1.6-3.5,3.5s1.6,3.5,3.5,3.5S21,17.9,21,16V-0.2L9,4.7z"/>
</g>
<g id="Outline_Icons">
	<g>
		<path class="st2" d="M9.5,20c0,1.5-1.3,3-3,3s-3-1.3-3-3s1.3-3,3-3c0.5,0,2.5,0,3,0C9.5,18,9.5,18.9,9.5,20z"/>
		<path class="st2" d="M20.5,16c0,1.5-1.3,3-3,3s-3-1.3-3-3s1.3-3,3-3c0.5,0,2.5,0,3,0C20.5,14,20.5,15,20.5,16z"/>
		<polyline class="st2" points="9.5,18 9.5,5 20.5,0.5 20.5,15 		"/>
		<line class="st2" x1="9.5" y1="8.5" x2="20.5" y2="4"/>
	</g>
</g>
</svg>
