<?xml version="1.0" encoding="utf-8"?>
<!-- Generator: Adobe Illustrator 19.2.0, SVG Export Plug-In . SVG Version: 6.00 Build 0)  -->
<svg version="1.1" id="Layer_1" xmlns="http://www.w3.org/2000/svg" xmlns:xlink="http://www.w3.org/1999/xlink" x="0px" y="0px"
	 viewBox="0 0 24 24" style="enable-background:new 0 0 24 24;" xml:space="preserve">
<style type="text/css">
	.st0{display:none;}
	.st1{display:inline;}
	.st2{fill:none;stroke:#000000;stroke-linecap:round;stroke-linejoin:round;stroke-miterlimit:10;}
</style>
<g id="Filled_Icon" class="st0">
	<path class="st1" d="M13,5.3V2.8l4.7-1.9L17.3,0L12,2.2V14H9.5C7.6,14,6,15.6,6,17.5S7.6,21,9.5,21s3.5-1.6,3.5-3.5V6.3l4.7-1.9
		l-0.4-0.9L13,5.3z"/>
</g>
<g id="Outline_Icons">
	<g>
		<path class="st2" d="M12.5,17.5c0,1.5-1.3,3-3,3s-3-1.3-3-3s1.3-3,3-3c0.5,0,2.5,0,3,0C12.5,15.5,12.5,16.4,12.5,17.5z"/>
		<polyline class="st2" points="12.5,15.5 12.5,2.5 17.5,0.5 		"/>
		<line class="st2" x1="12.5" y1="6" x2="17.5" y2="4"/>
	</g>
</g>
</svg>
