<?xml version="1.0" encoding="utf-8"?>
<!-- Generator: Adobe Illustrator 19.2.0, SVG Export Plug-In . SVG Version: 6.00 Build 0)  -->
<svg version="1.1" id="Layer_1" xmlns="http://www.w3.org/2000/svg" xmlns:xlink="http://www.w3.org/1999/xlink" x="0px" y="0px"
	 viewBox="0 0 24 24" style="enable-background:new 0 0 24 24;" xml:space="preserve">
<style type="text/css">
	.st0{display:none;}
	.st1{display:inline;}
	.st2{fill:none;stroke:#000000;stroke-linecap:round;stroke-linejoin:round;stroke-miterlimit:10;}
</style>
<g id="Filled_Icon" class="st0">
	<g class="st1">
		<g>
			<g>
				<path d="M15.5,11c-0.3,0-0.5,0.2-0.5,0.5s0.2,0.5,0.5,0.5s0.5-0.2,0.5-0.5S15.8,11,15.5,11L15.5,11z"/>
			</g>
		</g>
		<path d="M13.5,2h-13C0.2,2,0,2.2,0,2.5v18C0,20.8,0.2,21,0.5,21h13c0.3,0,0.5-0.2,0.5-0.5v-18C14,2.2,13.8,2,13.5,2z M11,13.7
			C11,15,9.8,15,9,15c-1.2,0-2-0.8-2-2s0.8-2,2.1-2H10V7.4L6,9.9v5.9C6,17,4.7,17,4,17c-1.2,0-2-0.8-2-2s0.8-2,2.1-2h1V9.6
			c0-0.2,0.1-0.3,0.2-0.4l5-3.1c0.2-0.1,0.3-0.1,0.5,0C10.9,6.2,11,6.3,11,6.5V13.7z"/>
		<g>
			<path d="M15.5,3c-0.2,0-0.3,0-0.5,0v6c0.2,0,0.3,0,0.5,0c1.4,0,2.5,1.1,2.5,2.5S16.9,14,15.5,14c-0.2,0-0.3,0-0.5-0.1v6
				c0.2,0,0.3,0,0.5,0c4.7,0,8.5-3.8,8.5-8.5C24,6.8,20.2,3,15.5,3z"/>
		</g>
	</g>
</g>
<g id="Outline_Icons">
	<g>
		<path class="st2" d="M13.5,3.8c0.6-0.2,1.3-0.3,2-0.3c4.4,0,8,3.6,8,8s-3.6,8-8,8c-0.7,0-1.4-0.1-2-0.3"/>
		<circle class="st2" cx="15.5" cy="11.5" r="2"/>
		<g>
			<g>
				<path d="M15.5,11c-0.3,0-0.5,0.2-0.5,0.5s0.2,0.5,0.5,0.5s0.5-0.2,0.5-0.5S15.8,11,15.5,11L15.5,11z"/>
			</g>
		</g>
		<rect x="0.5" y="2.5" class="st2" width="13" height="18"/>
		<g>
			<path class="st2" d="M5.5,15.7c0,0.8-0.7,0.8-1.5,0.8S2.5,16.2,2.5,15s0.8-1.5,1.6-1.5s1.5,0,1.5,0C5.5,14.5,5.5,15,5.5,15.7z"/>
			<polyline class="st2" points="5.5,14 5.5,9.6 10.5,6.5 10.5,12 			"/>
			<path class="st2" d="M10.5,14.2c0,0.8-0.9,0.8-1.7,0.8s-1.6-0.6-1.6-1.7c0-1.2,0.7-1.7,1.5-1.7s0.9,0,1.9,0
				C10.5,12.5,10.5,13.4,10.5,14.2z"/>
		</g>
	</g>
</g>
</svg>
