<?xml version="1.0" encoding="utf-8"?>
<!-- Generator: Adobe Illustrator 19.2.0, SVG Export Plug-In . SVG Version: 6.00 Build 0)  -->
<svg version="1.1" id="Layer_1" xmlns="http://www.w3.org/2000/svg" xmlns:xlink="http://www.w3.org/1999/xlink" x="0px" y="0px"
	 viewBox="0 0 24 24" style="enable-background:new 0 0 24 24;" xml:space="preserve">
<style type="text/css">
	.st0{display:none;}
	.st1{display:inline;}
	.st2{fill:none;stroke:#000000;stroke-linejoin:round;stroke-miterlimit:10;}
</style>
<g id="Filled_Icons" class="st0">
	<path class="st1" d="M23.8,11c-0.3-0.3-0.7-0.2-1.3,0c-0.5,0.2-1.1,0.5-1.9,0.4c-0.6-0.1-1.1-0.7-1.6-1.5c-0.7-1-1.6-2.3-3.3-2.7
		C15.2,7.1,14.8,7,14.4,7c-1.2,0-1.9,0.5-2.4,1c-0.4-0.5-1.2-1-2.4-1C9.2,7,8.8,7.1,8.3,7.2C6.6,7.5,5.7,8.8,5,9.9
		c-0.5,0.8-1,1.4-1.6,1.5C2.6,11.5,2,11.2,1.5,11c-0.5-0.3-1-0.3-1.3,0s-0.3,0.8-0.1,2.4c0.4,2,1.7,4.6,6.5,4.6
		c2.6,0,4.6-1.7,5.4-2.6c0.8,0.9,2.7,2.6,5.4,2.6c4.8,0,6.1-2.5,6.4-4.7C24,11.7,24,11.3,23.8,11z"/>
</g>
<g id="Outline_Icons">
	<g>
		<path class="st2" d="M12,9.1c0,0,0.4-2.2,3.6-1.4c2.8,0.6,3.1,4,5,4.2c2.4,0.3,3.3-2.4,2.8,1.4c-0.4,3-2.7,4.2-5.9,4.2
			S12,14.6,12,14.6s-2.2,2.9-5.4,2.9s-5.5-1.2-5.9-4.2c-0.5-3.8,0.4-1,2.8-1.4c1.9-0.2,2.2-3.6,5-4.2C11.6,6.9,12,9.1,12,9.1z"/>
	</g>
</g>
</svg>
