<?xml version="1.0" encoding="utf-8"?>
<!-- Generator: Adobe Illustrator 19.2.0, SVG Export Plug-In . SVG Version: 6.00 Build 0)  -->
<svg version="1.1" id="Layer_1" xmlns="http://www.w3.org/2000/svg" xmlns:xlink="http://www.w3.org/1999/xlink" x="0px" y="0px"
	 viewBox="0 0 24 24" style="enable-background:new 0 0 24 24;" xml:space="preserve">
<style type="text/css">
	.st0{display:none;}
	.st1{display:inline;}
	.st2{fill:none;stroke:#000000;stroke-linecap:round;stroke-linejoin:round;stroke-miterlimit:10;}
</style>
<g id="Filled_Icons" class="st0">
	<g class="st1">
		<path d="M16.3,1.1c-3,0-5.5,2.5-5.5,5.5c0,3,2.5,5.5,5.5,5.5c3,0,5.5-2.5,5.5-5.5C21.8,3.5,19.3,1.1,16.3,1.1z M16.3,10.1
			c-0.3,0-0.5-0.2-0.5-0.5c0-0.3,0.2-0.5,0.5-0.5c1.4,0,2.5-1.1,2.5-2.5c0-0.3,0.2-0.5,0.5-0.5s0.5,0.2,0.5,0.5
			C19.8,8.5,18.2,10.1,16.3,10.1z"/>
		<circle cx="23.5" cy="6.1" r="0.5"/>
		<path d="M23.5,7C23.2,7,23,7.2,23,7.5v16c0,0.3,0.2,0.5,0.5,0.5s0.5-0.2,0.5-0.5v-16C24,7.2,23.8,7,23.5,7z"/>
		<path d="M19.4,20c-0.2-0.1-0.5-0.1-0.7,0.2c-0.4,0.6-1,0.9-1.7,0.9C15.9,21,15,20.1,15,19c0-2-1.5-3-3-3c-0.7,0-1.4,0.2-1.9,0.6
			c-0.5-0.4-1.2-0.6-1.9-0.6c-1.5,0-3,1-3,3C5,20.1,4.1,21,3,21c-0.7,0-1.3-0.3-1.7-0.9c-0.1-0.2-0.4-0.3-0.7-0.2
			c-0.2,0.1-0.3,0.4-0.2,0.6c0.9,2.1,2.8,3.3,5,3.3c1.8,0,3.5-0.8,4.6-2c1.1,1.2,2.8,2,4.6,2c2.2,0,4.1-1.2,5-3.3
			C19.7,20.4,19.6,20.1,19.4,20z"/>
	</g>
</g>
<g id="Outline_Icons">
	<g>
		<circle class="st2" cx="16.5" cy="6.6" r="5"/>
		<g>
			<g>
				<path d="M23.5,5.6c-0.3,0-0.5,0.2-0.5,0.5c0,0.3,0.2,0.5,0.5,0.5c0.3,0,0.5-0.2,0.5-0.5S23.8,5.6,23.5,5.6L23.5,5.6z"/>
			</g>
		</g>
		<line class="st2" x1="23.5" y1="23.5" x2="23.5" y2="7.5"/>
		<path class="st2" d="M16.7,21.5c-1.4,0-2.6-1.1-2.6-2.6c0-2.6-3.1-3.2-4.5-1.7c-1.4-1.5-4.5-0.9-4.5,1.7c0,1.4-1.1,2.6-2.6,2.6
			c-0.9,0-1.7-0.4-2.1-1.1c1.9,4.3,7.3,3.5,9.2,0.7c1.9,2.9,7.2,3.6,9.2-0.7C18.3,21.1,17.6,21.5,16.7,21.5z"/>
		<path class="st2" d="M19.5,6.6c0,1.7-1.3,3-3,3"/>
	</g>
</g>
</svg>
