<?xml version="1.0" encoding="utf-8"?>
<!-- Generator: Adobe Illustrator 19.2.0, SVG Export Plug-In . SVG Version: 6.00 Build 0)  -->
<svg version="1.1" id="Layer_1" xmlns="http://www.w3.org/2000/svg" xmlns:xlink="http://www.w3.org/1999/xlink" x="0px" y="0px"
	 viewBox="0 0 24 24" style="enable-background:new 0 0 24 24;" xml:space="preserve">
<style type="text/css">
	.st0{display:none;}
	.st1{display:inline;}
	.st2{fill:none;stroke:#000000;stroke-linejoin:round;stroke-miterlimit:10;}
</style>
<g id="Filled_Icons" class="st0">
	<g class="st1">
		<path d="M15.7,3.9c-2.4,0-3.4,0.5-4.2,1.3c-0.9-0.8-1.9-1.3-4.2-1.3C2.5,3.9,0,8.3,0,16.9c0,0.2,0.1,0.4,0.3,0.4
			c0.2,0.1,0.4,0.1,0.5,0C3.3,15.4,4.6,11.9,5,10c2.2,0.7,4.3,0.7,6.5-0.1c2.1,0.8,4.3,0.9,6.5,0.1c0.4,1.9,1.7,5.4,4.2,7.3
			c0.1,0.1,0.2,0.1,0.3,0.1c0.1,0,0.2,0,0.2-0.1c0.2-0.1,0.3-0.3,0.3-0.4C23,8.3,20.5,3.9,15.7,3.9z"/>
		<path d="M14,12.6c-0.6-0.1-1.2-0.6-1.4-0.8c-0.2-0.1-0.4-0.2-0.6-0.2h-1.1c-0.2,0-0.4,0.1-0.6,0.2c-0.2,0.2-0.8,0.7-1.4,0.8
			c-0.4,0.1-0.7,0.4-0.7,0.9c0,2.2,1.6,8.1,3.2,8.1c1.7,0,3.2-5.9,3.2-8C14.7,13,14.4,12.7,14,12.6z"/>
	</g>
</g>
<g id="Outline_Icons">
	<g>
		<path class="st2" d="M14.2,4.5c-1.7,0.1-2.8,1.4-2.8,1.4s-1-1.3-2.8-1.4C7,4.4,0.6,2.9,0.5,16.9c2.8-2.1,4-6.2,4.1-7.6
			c2.3,0.9,4.6,0.9,6.9,0c2.3,0.9,4.6,0.9,6.9,0c0.1,1.4,1.3,5.5,4.1,7.6C22.4,2.9,16,4.4,14.2,4.5z"/>
		<path class="st2" d="M10.7,12.1c0.1-0.1,0.1-0.1,0.2-0.1H12c0.1,0,0.2,0,0.2,0.1c0.2,0.2,0.9,0.8,1.7,0.9c0.2,0,0.3,0.2,0.3,0.4
			c0,2.5-1.7,7.5-2.7,7.5S8.8,16,8.8,13.3c0-0.2,0.1-0.3,0.3-0.4C9.8,12.9,10.5,12.4,10.7,12.1z"/>
	</g>
</g>
</svg>
