<?xml version="1.0" encoding="utf-8"?>
<!-- Generator: Adobe Illustrator 19.2.0, SVG Export Plug-In . SVG Version: 6.00 Build 0)  -->
<svg version="1.1" id="Layer_1" xmlns="http://www.w3.org/2000/svg" xmlns:xlink="http://www.w3.org/1999/xlink" x="0px" y="0px"
	 viewBox="0 0 24 24" style="enable-background:new 0 0 24 24;" xml:space="preserve">
<style type="text/css">
	.st0{display:none;}
	.st1{display:inline;}
	.st2{fill:none;stroke:#000000;stroke-linejoin:round;stroke-miterlimit:10;}
</style>
<g id="Filled_Icons" class="st0">
	<g class="st1">
		<path d="M12,9.1c0.8,0,2,0,3.2,0.2l-0.7-8.8C14.5,0.2,14.3,0,14,0h-4C9.7,0,9.5,0.2,9.5,0.5L8.8,9.3C10,9.1,11.3,9.1,12,9.1z"/>
		<path d="M19,12c-1-1.4-4.2-1.9-7-1.9c-2.7,0-6,0.5-7,1.9c-0.5,0.6-0.6,1.4-0.5,2.1l2.1,8c0.2,1.1,1.3,2,2.4,2h5.8
			c1.2,0,2.2-0.8,2.4-2l2.1-8C19.6,13.3,19.4,12.6,19,12z M15,20.6c0,0.2-0.2,0.4-0.5,0.4h-5C9.3,21,9,20.8,9,20.6l-1-7
			c0-0.1,0-0.3,0.1-0.4C8.2,13.1,8.4,13,8.5,13h7c0.1,0,0.3,0.1,0.4,0.2c0.1,0.1,0.1,0.3,0.1,0.4L15,20.6z"/>
	</g>
</g>
<g id="Outline_Icons">
	<g>
		<path class="st2" d="M14.9,10.7L14,0.5h-4L9.1,10.7C10.7,10.5,12.3,10.5,14.9,10.7z"/>
		<path class="st2" d="M5,13.9c-0.1-0.6,0-1.2,0.4-1.7C7,10,17,10,18.6,12.2c0.4,0.5,0.5,1.1,0.4,1.7l-2.1,8c-0.2,0.9-1,1.6-2,1.6
			H9.1c-0.9,0-1.8-0.7-2-1.6L5,13.9z"/>
		<polygon class="st2" points="14.5,20.5 9.5,20.5 8.5,13.5 15.5,13.5 		"/>
	</g>
</g>
</svg>
