<?xml version="1.0" encoding="utf-8"?>
<!-- Generator: Adobe Illustrator 19.2.0, SVG Export Plug-In . SVG Version: 6.00 Build 0)  -->
<svg version="1.1" id="Layer_1" xmlns="http://www.w3.org/2000/svg" xmlns:xlink="http://www.w3.org/1999/xlink" x="0px" y="0px"
	 viewBox="0 0 24 24" style="enable-background:new 0 0 24 24;" xml:space="preserve">
<style type="text/css">
	.st0{display:none;}
	.st1{display:inline;}
	.st2{fill:none;stroke:#000000;stroke-linecap:round;stroke-linejoin:round;stroke-miterlimit:10;}
</style>
<g id="Filled_Icons" class="st0">
	<path class="st1" d="M23.7,5c-0.2-0.1-0.4,0-0.5,0.1l-3,3c-2.8-0.9-5.5-1.3-8-1.3c-7.7,0-12.1,4.2-12.1,11.6c0,0.3,0.2,0.5,0.5,0.5
		h0c0.3,0,0.5-0.2,0.5-0.5c0-4.8,3.6-5.5,5.8-5.5c2.1,0,4.5,0.6,6.8,1.8l-3.5,3.4C10,18.3,10,18.5,10,18.7c0.1,0.2,0.3,0.3,0.5,0.3
		h13c0.3,0,0.5-0.2,0.5-0.5v-13C24,5.3,23.9,5.1,23.7,5z"/>
</g>
<g id="Outline_Icons">
	<g>
		<path class="st2" d="M10.5,18.5l3.9-3.9c-6.2-3.3-13.9-3.3-13.9,3.9c0-10.8,9.5-13,19.7-9.8l3.3-3.2v13H10.5z"/>
	</g>
</g>
</svg>
