<?xml version="1.0" encoding="utf-8"?>
<!-- Generator: Adobe Illustrator 19.2.0, SVG Export Plug-In . SVG Version: 6.00 Build 0)  -->
<svg version="1.1" id="Layer_1" xmlns="http://www.w3.org/2000/svg" xmlns:xlink="http://www.w3.org/1999/xlink" x="0px" y="0px"
	 viewBox="0 0 24 24" style="enable-background:new 0 0 24 24;" xml:space="preserve">
<style type="text/css">
	.st0{display:none;}
	.st1{display:inline;}
	.st2{fill:none;stroke:#000000;stroke-linecap:round;stroke-linejoin:round;stroke-miterlimit:10;}
</style>
<g id="Filled_Icons" class="st0">
	<g class="st1">
		<path d="M20.5,3.5C18.2,1.3,15.2,0,12,0C5.4,0,0,5.4,0,12c0,3.2,1.2,6.2,3.5,8.5C5.8,22.7,8.8,24,12,24h0c6.6,0,12-5.4,12-12
			C24,8.8,22.8,5.8,20.5,3.5z M12,22L12,22L12,22c-2.7,0-5.2-1.1-7.1-2.9C3,17.2,2,14.7,2,12C2,6.5,6.5,2,12,2c5.5,0,10,4.5,10,10
			C22,17.5,17.5,22,12,22z"/>
		<path d="M18.7,10.3l-3-3c-0.4-0.4-1-0.4-1.4,0c-0.4,0.4-0.4,1,0,1.4l1.3,1.3l-7.1,0c0,0,0,0,0,0c-1.4,0-2.2,0.6-2.7,1.2
			c-0.5,0.6-0.7,1.4-0.7,2.4c0,1.5,0.8,4.4,2.4,4.4h0c0.6,0,1-0.4,1-1c0-0.4-0.3-0.8-0.7-1c-0.4-0.4-1-2.2-0.6-3.3
			C7.4,12.4,7.6,12,8.5,12c0,0,0,0,0,0l7.1,0l-1.3,1.3c-0.4,0.4-0.4,1,0,1.4c0.2,0.2,0.5,0.3,0.7,0.3c0.3,0,0.5-0.1,0.7-0.3l3-3h0
			C19.1,11.3,19.1,10.7,18.7,10.3z"/>
	</g>
</g>
<g id="Outline_Icons">
	<g>
		<circle class="st2" cx="11.5" cy="12.5" r="11"/>
		<path class="st2" d="M7,17.5c-1,0-3-6,1-6h9.5"/>
		<polyline class="st2" points="14.5,14.5 17.5,11.5 14.5,8.5 		"/>
	</g>
</g>
</svg>
