<?xml version="1.0" encoding="utf-8"?>
<!-- Generator: Adobe Illustrator 19.2.0, SVG Export Plug-In . SVG Version: 6.00 Build 0)  -->
<svg version="1.1" id="Layer_1" xmlns="http://www.w3.org/2000/svg" xmlns:xlink="http://www.w3.org/1999/xlink" x="0px" y="0px"
	 viewBox="0 0 24 24" style="enable-background:new 0 0 24 24;" xml:space="preserve">
<style type="text/css">
	.st0{display:none;}
	.st1{display:inline;}
	.st2{fill:none;stroke:#000000;stroke-linecap:round;stroke-linejoin:round;stroke-miterlimit:10;}
</style>
<g id="Filled_Icons" class="st0">
	<g class="st1">
		<path d="M4,6.5h15c0.6,0,1-0.4,1-1c0-0.6-0.4-1-1-1H4c-0.6,0-1,0.4-1,1C3,6.1,3.5,6.5,4,6.5z"/>
		<path d="M19,8.5H4c-0.6,0-1,0.4-1,1c0,0.6,0.4,1,1,1h15c0.6,0,1-0.4,1-1C20,8.9,19.6,8.5,19,8.5z"/>
		<path d="M19,12.5H4c-0.6,0-1,0.4-1,1c0,0.6,0.4,1,1,1h15c0.6,0,1-0.4,1-1C20,12.9,19.6,12.5,19,12.5z"/>
		<path d="M19,16.5H4c-0.6,0-1,0.4-1,1c0,0.6,0.4,1,1,1h15c0.6,0,1-0.4,1-1C20,16.9,19.6,16.5,19,16.5z"/>
	</g>
</g>
<g id="Outline_Icons">
	<g>
		<g>
			<line class="st2" x1="19" y1="5.5" x2="4" y2="5.5"/>
		</g>
		<g>
			<line class="st2" x1="19" y1="9.5" x2="4" y2="9.5"/>
		</g>
		<g>
			<line class="st2" x1="19" y1="13.5" x2="4" y2="13.5"/>
		</g>
		<g>
			<line class="st2" x1="19" y1="17.5" x2="4" y2="17.5"/>
		</g>
	</g>
</g>
</svg>
