<?xml version="1.0" encoding="utf-8"?>
<!-- Generator: Adobe Illustrator 19.2.0, SVG Export Plug-In . SVG Version: 6.00 Build 0)  -->
<svg version="1.1" id="Layer_1" xmlns="http://www.w3.org/2000/svg" xmlns:xlink="http://www.w3.org/1999/xlink" x="0px" y="0px"
	 viewBox="0 0 24 24" style="enable-background:new 0 0 24 24;" xml:space="preserve">
<style type="text/css">
	.st0{display:none;}
	.st1{display:inline;}
	.st2{fill:none;stroke:#000000;stroke-linecap:round;stroke-linejoin:round;stroke-miterlimit:10;}
</style>
<g id="Filled_Icons" class="st0">
	<g class="st1">
		<path d="M0.5,11h3.8l6.2-5.6c0.6-0.5,1.4-0.5,2,0l6.2,5.6h3.8c0.2,0,0.4-0.1,0.5-0.3c0.1-0.2,0-0.4-0.1-0.6l-11-10
			c-0.2-0.2-0.5-0.2-0.7,0l-11,10C0,10.3,0,10.5,0,10.7C0.1,10.9,0.3,11,0.5,11z"/>
		<path d="M0.5,17h3.8l6.2-5.6c0.6-0.5,1.4-0.5,2,0l6.2,5.6h3.8c0.2,0,0.4-0.1,0.5-0.3c0.1-0.2,0-0.4-0.1-0.5l-11-10
			c-0.2-0.2-0.5-0.2-0.7,0l-11,10C0,16.3,0,16.5,0,16.7C0.1,16.9,0.3,17,0.5,17z"/>
		<path d="M22.8,22.1l-11-10c-0.2-0.2-0.5-0.2-0.7,0l-11,10C0,22.3,0,22.5,0,22.7C0.1,22.9,0.3,23,0.5,23h22c0.2,0,0.4-0.1,0.5-0.3
			C23,22.5,23,22.3,22.8,22.1z"/>
	</g>
</g>
<g id="Outline_Icons">
	<g>
		<polyline class="st2" points="15.9,16.5 22.5,16.5 11.5,6.5 0.5,16.5 7.1,16.5 		"/>
		<polygon class="st2" points="0.5,22.5 22.5,22.5 11.5,12.5 		"/>
		<polyline class="st2" points="15.9,10.5 22.5,10.5 11.5,0.5 0.5,10.5 7.1,10.5 		"/>
	</g>
</g>
</svg>
