<?xml version="1.0" encoding="utf-8"?>
<!-- Generator: Adobe Illustrator 19.2.0, SVG Export Plug-In . SVG Version: 6.00 Build 0)  -->
<svg version="1.1" id="Layer_1" xmlns="http://www.w3.org/2000/svg" xmlns:xlink="http://www.w3.org/1999/xlink" x="0px" y="0px"
	 viewBox="0 0 24 24" style="enable-background:new 0 0 24 24;" xml:space="preserve">
<style type="text/css">
	.st0{display:none;}
	.st1{display:inline;}
	.st2{fill:none;stroke:#000000;stroke-linecap:round;stroke-linejoin:round;stroke-miterlimit:10;}
</style>
<g id="Filled_Icons" class="st0">
	<path class="st1" d="M23.8,9.1l-11.5-9c-0.2-0.1-0.4-0.1-0.6,0l-11.5,9C0,9.2-0.1,9.4,0,9.6C0.1,9.8,0.3,10,0.5,10L4,10v7.5
		c0,0.1,0.1,0.3,0.1,0.4l6,6c0.1,0.1,0.2,0.1,0.4,0.1l9,0h0c0.1,0,0.3-0.1,0.4-0.1c0.1-0.1,0.1-0.2,0.1-0.4V10h3.5
		c0.2,0,0.4-0.1,0.5-0.3C24,9.5,24,9.3,23.8,9.1z M10.5,23.5l-6-6l6,0V23.5z"/>
</g>
<g id="Outline_Icons">
	<g>
		<polygon class="st2" points="19.5,23.5 10.5,23.5 4.5,17.5 4.5,9.5 0.5,9.5 12,0.5 23.5,9.5 19.5,9.5 		"/>
		<polyline class="st2" points="4.5,17.5 10.5,17.5 10.5,23.5 		"/>
	</g>
</g>
</svg>
