<?xml version="1.0" encoding="utf-8"?>
<!-- Generator: Adobe Illustrator 19.2.0, SVG Export Plug-In . SVG Version: 6.00 Build 0)  -->
<svg version="1.1" id="Layer_1" xmlns="http://www.w3.org/2000/svg" xmlns:xlink="http://www.w3.org/1999/xlink" x="0px" y="0px"
	 viewBox="0 0 24 24" style="enable-background:new 0 0 24 24;" xml:space="preserve">
<style type="text/css">
	.st0{display:none;}
	.st1{display:inline;}
	.st2{fill:none;stroke:#000000;stroke-linecap:round;stroke-linejoin:round;stroke-miterlimit:10;}
</style>
<g id="Filled_Icons" class="st0">
	<path class="st1" d="M24,14.4c-0.1-0.2-0.3-0.3-0.5-0.3L20,14V6.5c0-0.1-0.1-0.3-0.1-0.4l-6-6C13.8,0.1,13.7,0,13.5,0l-9,0h0
		C4.4,0,4.2,0.1,4.1,0.1C4,0.2,4,0.4,4,0.5V14H0.5c-0.2,0-0.4,0.1-0.5,0.3c-0.1,0.2,0,0.4,0.2,0.6l11.5,9C11.8,24,11.9,24,12,24
		c0.1,0,0.2,0,0.3-0.1l11.5-9C24,14.8,24,14.6,24,14.4z M13.5,6.5v-6l6,6L13.5,6.5z"/>
</g>
<g id="Outline_Icons">
	<g>
		<polygon class="st2" points="4.5,0.5 13.5,0.5 19.5,6.5 19.5,14.5 23.5,14.5 12,23.5 0.5,14.5 4.5,14.5 		"/>
		<polyline class="st2" points="19.5,6.5 13.5,6.5 13.5,0.5 		"/>
	</g>
</g>
</svg>
