<?xml version="1.0" encoding="utf-8"?>
<!-- Generator: Adobe Illustrator 19.2.0, SVG Export Plug-In . SVG Version: 6.00 Build 0)  -->
<svg version="1.1" id="Layer_1" xmlns="http://www.w3.org/2000/svg" xmlns:xlink="http://www.w3.org/1999/xlink" x="0px" y="0px"
	 viewBox="0 0 24 24" style="enable-background:new 0 0 24 24;" xml:space="preserve">
<style type="text/css">
	.st0{display:none;}
	.st1{display:inline;}
	.st2{fill:none;stroke:#000000;stroke-linecap:round;stroke-linejoin:round;stroke-miterlimit:10;}
</style>
<g id="Filled_Icons" class="st0">
	<g class="st1">
		<path d="M12,0.5v3.8l5.6,6.2c0.5,0.6,0.5,1.4,0,2L12,18.7v3.8c0,0.2,0.1,0.4,0.3,0.5c0.2,0.1,0.4,0,0.6-0.1l10-11
			c0.2-0.2,0.2-0.5,0-0.7l-10-11C12.7,0,12.5,0,12.3,0C12.1,0.1,12,0.3,12,0.5z"/>
		<path d="M6,0.5v3.8l5.6,6.2c0.5,0.6,0.5,1.4,0,2L6,18.7v3.8c0,0.2,0.1,0.4,0.3,0.5c0.2,0.1,0.4,0,0.6-0.1l10-11
			c0.2-0.2,0.2-0.5,0-0.7l-10-11C6.7,0,6.5,0,6.3,0C6.1,0.1,6,0.3,6,0.5z"/>
		<path d="M0.9,22.8l10-11c0.2-0.2,0.2-0.5,0-0.7l-10-11C0.7,0,0.5,0,0.3,0C0.1,0.1,0,0.3,0,0.5v22c0,0.2,0.1,0.4,0.3,0.5
			C0.5,23,0.7,23,0.9,22.8z"/>
	</g>
</g>
<g id="Outline_Icons">
	<g>
		<polyline class="st2" points="6.5,7.1 6.5,0.5 16.5,11.5 6.5,22.5 6.5,15.9 		"/>
		<polygon class="st2" points="0.5,22.5 0.5,0.5 10.5,11.5 		"/>
		<polyline class="st2" points="12.5,7.1 12.5,0.5 22.5,11.5 12.5,22.5 12.5,15.9 		"/>
	</g>
</g>
</svg>
