<?xml version="1.0" encoding="utf-8"?>
<!-- Generator: Adobe Illustrator 19.2.0, SVG Export Plug-In . SVG Version: 6.00 Build 0)  -->
<svg version="1.1" id="Layer_1" xmlns="http://www.w3.org/2000/svg" xmlns:xlink="http://www.w3.org/1999/xlink" x="0px" y="0px"
	 viewBox="0 0 24 24" style="enable-background:new 0 0 24 24;" xml:space="preserve">
<style type="text/css">
	.st0{display:none;}
	.st1{display:inline;}
	.st2{fill:none;stroke:#000000;stroke-linecap:round;stroke-linejoin:round;stroke-miterlimit:10;}
</style>
<g id="Filled_Icons" class="st0">
	<path class="st1" d="M23.8,4.2C23.7,4.1,23.6,4,23.5,4H10V0.5C10,0.3,9.9,0.1,9.6,0C9.4,0,9.2,0,9.1,0.2l-9,11.5
		c-0.1,0.2-0.1,0.4,0,0.6l9,11.5C9.2,23.9,9.3,24,9.5,24c0.1,0,0.1,0,0.2,0c0.2-0.1,0.3-0.3,0.3-0.5l0-3.5h7.5
		c0.1,0,0.3-0.1,0.4-0.1l6-6c0.1-0.1,0.1-0.2,0.1-0.4l0-9C24,4.4,23.9,4.2,23.8,4.2z M17.5,19.5l0-6h6L17.5,19.5z"/>
</g>
<g id="Outline_Icons">
	<g>
		<polygon class="st2" points="23.5,4.5 23.5,13.5 17.5,19.5 9.5,19.5 9.5,23.5 0.5,12 9.5,0.5 9.5,4.5 		"/>
		<polyline class="st2" points="17.5,19.5 17.5,13.5 23.5,13.5 		"/>
	</g>
</g>
</svg>
