<?xml version="1.0" encoding="utf-8"?>
<!-- Generator: Adobe Illustrator 19.2.0, SVG Export Plug-In . SVG Version: 6.00 Build 0)  -->
<svg version="1.1" id="Layer_1" xmlns="http://www.w3.org/2000/svg" xmlns:xlink="http://www.w3.org/1999/xlink" x="0px" y="0px"
	 viewBox="0 0 24 24" style="enable-background:new 0 0 24 24;" xml:space="preserve">
<style type="text/css">
	.st0{display:none;}
	.st1{display:inline;}
	.st2{fill:none;stroke:#000000;stroke-linecap:round;stroke-linejoin:round;stroke-miterlimit:10;}
</style>
<g id="Filled_Icons" class="st0">
	<path class="st1" d="M21.1,10.1C19,8,15.8,6.9,11.9,6.9C9.5,6.9,6.8,7.3,4,8.2l-3.1-3C0.7,5,0.5,5,0.3,5C0.1,5.1,0,5.3,0,5.5v13
		C0,18.8,0.2,19,0.5,19l13.1,0c0.2,0,0.4-0.1,0.5-0.3c0.1-0.2,0-0.4-0.1-0.5l-3.4-3.4c2.3-1.1,4.7-1.7,6.8-1.7
		c1.9,0,3.4,0.5,4.4,1.5c0.9,0.9,1.4,2.3,1.4,4c0,0.3,0.2,0.5,0.5,0.5h0c0.3,0,0.5-0.2,0.5-0.5C24.1,14.9,23.1,12.1,21.1,10.1z"/>
</g>
<g id="Outline_Icons">
	<g>
		<path class="st2" d="M13.5,18.5l-3.9-3.9c6.2-3.3,13.9-3.3,13.9,3.9c0-10.8-9.5-13-19.7-9.8L0.5,5.5v13H13.5z"/>
	</g>
</g>
</svg>
