<?xml version="1.0" encoding="utf-8"?>
<!-- Generator: Adobe Illustrator 19.2.0, SVG Export Plug-In . SVG Version: 6.00 Build 0)  -->
<svg version="1.1" id="Layer_1" xmlns="http://www.w3.org/2000/svg" xmlns:xlink="http://www.w3.org/1999/xlink" x="0px" y="0px"
	 viewBox="0 0 24 24" style="enable-background:new 0 0 24 24;" xml:space="preserve">
<style type="text/css">
	.st0{display:none;}
	.st1{display:inline;}
	.st2{fill:none;stroke:#000000;stroke-linecap:round;stroke-linejoin:round;stroke-miterlimit:10;}
</style>
<g id="Filled_Icons" class="st0">
	<g class="st1">
		<path d="M0,12c0,6.6,5.4,12,12,12h0c3.2,0,6.2-1.3,8.5-3.5c2.3-2.3,3.5-5.3,3.5-8.5c0-6.6-5.4-12-12-12C8.8,0,5.8,1.3,3.5,3.5
			C1.2,5.8,0,8.8,0,12z M2,12C2,6.5,6.5,2,12,2c5.5,0,10,4.5,10,10c0,2.7-1,5.2-2.9,7.1C17.2,20.9,14.7,22,12,22l0,0h0
			C6.5,22,2,17.5,2,12z"/>
		<path d="M5.3,10.3l3-3c0.4-0.4,1-0.4,1.4,0c0.4,0.4,0.4,1,0,1.4L8.4,10l7.1,0c0,0,0,0,0,0c1.4,0,2.2,0.6,2.7,1.2
			c0.5,0.6,0.7,1.4,0.7,2.4c0,1.5-0.8,4.4-2.4,4.4h0c-0.6,0-1-0.4-1-1c0-0.4,0.3-0.8,0.7-1c0.4-0.4,1-2.2,0.6-3.3
			c-0.1-0.3-0.4-0.7-1.3-0.7c0,0,0,0,0,0l-7.1,0l1.3,1.3c0.4,0.4,0.4,1,0,1.4C9.5,14.9,9.3,15,9,15c-0.3,0-0.5-0.1-0.7-0.3l-3-3h0
			C4.9,11.3,4.9,10.7,5.3,10.3z"/>
	</g>
</g>
<g id="Outline_Icons">
	<g>
		<circle class="st2" cx="11.5" cy="12.5" r="11"/>
		<path class="st2" d="M16,17.5c1,0,3-6-1-6H5.5"/>
		<polyline class="st2" points="8.5,14.5 5.5,11.5 8.5,8.5 		"/>
	</g>
</g>
</svg>
