<?xml version="1.0" encoding="utf-8"?>
<!-- Generator: Adobe Illustrator 19.2.0, SVG Export Plug-In . SVG Version: 6.00 Build 0)  -->
<svg version="1.1" id="Layer_1" xmlns="http://www.w3.org/2000/svg" xmlns:xlink="http://www.w3.org/1999/xlink" x="0px" y="0px"
	 viewBox="0 0 24 24" style="enable-background:new 0 0 24 24;" xml:space="preserve">
<style type="text/css">
	.st0{display:none;}
	.st1{display:inline;}
	.st2{fill:none;stroke:#000000;stroke-linecap:round;stroke-linejoin:round;stroke-miterlimit:10;}
</style>
<g id="Filled_Icons" class="st0">
	<g class="st1">
		<path d="M23.9,10.4c0.1-0.2,0.1-0.5,0-0.8c-0.1-0.1-0.1-0.2-0.2-0.3l-4-4c-0.4-0.4-1-0.4-1.4,0c-0.4,0.4-0.4,1,0,1.4L20.6,9h-8.2
			c-2.8,0-5,2.2-5,5v2c0,0.6,0.4,1,1,1c0.6,0,1-0.4,1-1v-2c0-1.7,1.3-3,3-3h8.2l-2.3,2.3c-0.4,0.4-0.4,1,0,1.4
			c0.2,0.2,0.5,0.3,0.7,0.3c0.3,0,0.5-0.1,0.7-0.3l4-4C23.8,10.6,23.9,10.5,23.9,10.4z"/>
		<path d="M15,12c-0.6,0-1,0.4-1,1v5.5H2v-12h12V7c0,0.6,0.4,1,1,1c0.6,0,1-0.4,1-1V5.5c0-0.6-0.4-1-1-1H1c-0.6,0-1,0.4-1,1v14
			c0,0.6,0.4,1,1,1h14c0.6,0,1-0.4,1-1V13C16,12.4,15.6,12,15,12z"/>
	</g>
</g>
<g id="Outline_Icons">
	<g>
		<g>
			<path class="st2" d="M23.1,9.5H12.5c-2.2,0-4,1.8-4,4v2"/>
			<polyline class="st2" points="19.1,13.5 23.1,9.5 19.1,5.5 			"/>
		</g>
		<polyline class="st2" points="14.5,13 14.5,19.5 0.5,19.5 0.5,5.5 14.5,5.5 14.5,7 		"/>
	</g>
</g>
</svg>
