<?xml version="1.0" encoding="utf-8"?>
<!-- Generator: Adobe Illustrator 19.2.0, SVG Export Plug-In . SVG Version: 6.00 Build 0)  -->
<svg version="1.1" id="Layer_1" xmlns="http://www.w3.org/2000/svg" xmlns:xlink="http://www.w3.org/1999/xlink" x="0px" y="0px"
	 viewBox="0 0 24 24" style="enable-background:new 0 0 24 24;" xml:space="preserve">
<style type="text/css">
	.st0{display:none;}
	.st1{display:inline;}
	.st2{fill:none;stroke:#000000;stroke-linecap:round;stroke-linejoin:round;stroke-miterlimit:10;}
</style>
<g id="Filled_Icons" class="st0">
	<g class="st1">
		<path d="M22.5,12h-3.8l-6.2,5.6c-0.6,0.5-1.4,0.5-2,0L4.3,12H0.5c-0.2,0-0.4,0.1-0.5,0.3c-0.1,0.2,0,0.4,0.1,0.6l11,10
			c0.2,0.2,0.5,0.2,0.7,0l11-10c0.2-0.1,0.2-0.4,0.1-0.6C22.9,12.1,22.7,12,22.5,12z"/>
		<path d="M22.5,6h-3.8l-6.2,5.6c-0.6,0.5-1.4,0.5-2,0L4.3,6H0.5C0.3,6,0.1,6.1,0,6.3C0,6.5,0,6.7,0.2,6.9l11,10
			c0.2,0.2,0.5,0.2,0.7,0l11-10C23,6.7,23,6.5,23,6.3C22.9,6.1,22.7,6,22.5,6z"/>
		<path d="M0.2,0.9l11,10c0.2,0.2,0.5,0.2,0.7,0l11-10C23,0.7,23,0.5,23,0.3C22.9,0.1,22.7,0,22.5,0h-22C0.3,0,0.1,0.1,0,0.3
			C0,0.5,0,0.7,0.2,0.9z"/>
	</g>
</g>
<g id="Outline_Icons">
	<g>
		<polyline class="st2" points="15.9,6.5 22.5,6.5 11.5,16.5 0.5,6.5 7.1,6.5 		"/>
		<polygon class="st2" points="0.5,0.5 22.5,0.5 11.5,10.5 		"/>
		<polyline class="st2" points="15.9,12.5 22.5,12.5 11.5,22.5 0.5,12.5 7.1,12.5 		"/>
	</g>
</g>
</svg>
