<?xml version="1.0" encoding="utf-8"?>
<!-- Generator: Adobe Illustrator 19.2.0, SVG Export Plug-In . SVG Version: 6.00 Build 0)  -->
<svg version="1.1" id="Layer_1" xmlns="http://www.w3.org/2000/svg" xmlns:xlink="http://www.w3.org/1999/xlink" x="0px" y="0px"
	 viewBox="0 0 24 24" style="enable-background:new 0 0 24 24;" xml:space="preserve">
<style type="text/css">
	.st0{display:none;}
	.st1{display:inline;}
	.st2{fill:none;stroke:#000000;stroke-linecap:round;stroke-linejoin:round;stroke-miterlimit:10;}
</style>
<g id="Filled_Icons" class="st0">
	<g class="st1">
		<path d="M12,22.5v-3.8l-5.6-6.2c-0.5-0.6-0.5-1.4,0-2L12,4.3V0.5c0-0.2-0.1-0.4-0.3-0.5c-0.2-0.1-0.4,0-0.6,0.1l-10,11
			c-0.2,0.2-0.2,0.5,0,0.7l10,11c0.1,0.2,0.4,0.2,0.6,0.1C11.9,22.9,12,22.7,12,22.5z"/>
		<path d="M18,22.5v-3.8l-5.6-6.2c-0.5-0.6-0.5-1.4,0-2L18,4.3V0.5c0-0.2-0.1-0.4-0.3-0.5c-0.2-0.1-0.4,0-0.5,0.1l-10,11
			c-0.2,0.2-0.2,0.5,0,0.7l10,11c0.1,0.2,0.4,0.2,0.5,0.1C17.9,22.9,18,22.7,18,22.5z"/>
		<path d="M23.1,0.2l-10,11c-0.2,0.2-0.2,0.5,0,0.7l10,11c0.1,0.2,0.4,0.2,0.5,0.1c0.2-0.1,0.3-0.3,0.3-0.5v-22
			c0-0.2-0.1-0.4-0.3-0.5C23.5,0,23.3,0,23.1,0.2z"/>
	</g>
</g>
<g id="Outline_Icons">
	<g>
		<polyline class="st2" points="17.5,15.9 17.5,22.5 7.5,11.5 17.5,0.5 17.5,7.1 		"/>
		<polygon class="st2" points="23.5,0.5 23.5,22.5 13.5,11.5 		"/>
		<polyline class="st2" points="11.5,15.9 11.5,22.5 1.5,11.5 11.5,0.5 11.5,7.1 		"/>
	</g>
</g>
</svg>
