<?xml version="1.0" encoding="utf-8"?>
<!-- Generator: Adobe Illustrator 19.2.0, SVG Export Plug-In . SVG Version: 6.00 Build 0)  -->
<svg version="1.1" id="Layer_1" xmlns="http://www.w3.org/2000/svg" xmlns:xlink="http://www.w3.org/1999/xlink" x="0px" y="0px"
	 viewBox="0 0 24 24" style="enable-background:new 0 0 24 24;" xml:space="preserve">
<style type="text/css">
	.st0{display:none;}
	.st1{display:inline;}
	.st2{fill:none;stroke:#000000;stroke-linecap:round;stroke-linejoin:round;stroke-miterlimit:10;}
</style>
<g id="Filled_Icons" class="st0">
	<g class="st1">
		<path d="M20.5,3h-17C3.2,3,3,3.2,3,3.5v3C3,6.8,3.2,7,3.5,7h17C20.8,7,21,6.8,21,6.5v-3C21,3.2,20.8,3,20.5,3z"/>
		<path d="M20.5,9h-17C3.2,9,3,9.2,3,9.5v3C3,12.8,3.2,13,3.5,13h17c0.3,0,0.5-0.2,0.5-0.5v-3C21,9.2,20.8,9,20.5,9z"/>
		<path d="M20.5,15h-17C3.2,15,3,15.2,3,15.5v3C3,18.8,3.2,19,3.5,19h17c0.3,0,0.5-0.2,0.5-0.5v-3C21,15.2,20.8,15,20.5,15z"/>
	</g>
</g>
<g id="Outline_Icons">
	<g>
		<rect x="3.5" y="3.5" class="st2" width="17" height="3"/>
		<rect x="3.5" y="9.5" class="st2" width="17" height="3"/>
		<rect x="3.5" y="15.5" class="st2" width="17" height="3"/>
	</g>
</g>
</svg>
