<?xml version="1.0" encoding="utf-8"?>
<!-- Generator: Adobe Illustrator 19.2.0, SVG Export Plug-In . SVG Version: 6.00 Build 0)  -->
<svg version="1.1" id="Layer_1" xmlns="http://www.w3.org/2000/svg" xmlns:xlink="http://www.w3.org/1999/xlink" x="0px" y="0px"
	 viewBox="0 0 24 24" style="enable-background:new 0 0 24 24;" xml:space="preserve">
<style type="text/css">
	.st0{display:none;}
	.st1{display:inline;}
	.st2{fill:none;stroke:#000000;stroke-linecap:round;stroke-linejoin:round;stroke-miterlimit:10;}
</style>
<g id="Filled_Icons" class="st0">
	<path class="st1" d="M23.9,11.7l-9-11.5C14.8,0,14.6,0,14.4,0C14.2,0.1,14,0.3,14,0.5L14,4H6.5C6.4,4,6.2,4.1,6.1,4.2l-6,6
		C0.1,10.2,0,10.3,0,10.5l0,9c0,0.1,0.1,0.3,0.1,0.4C0.2,20,0.4,20,0.5,20H14v3.5c0,0.2,0.1,0.4,0.3,0.5c0.1,0,0.1,0,0.2,0
		c0.2,0,0.3-0.1,0.4-0.2l9-11.5C24,12.2,24,11.9,23.9,11.7z M6.5,10.5h-6l6-6L6.5,10.5z"/>
</g>
<g id="Outline_Icons">
	<g>
		<polygon class="st2" points="0.5,19.5 0.5,10.5 6.5,4.5 14.5,4.5 14.5,0.5 23.5,12 14.5,23.5 14.5,19.5 		"/>
		<polyline class="st2" points="6.5,4.5 6.5,10.5 0.5,10.5 		"/>
	</g>
</g>
</svg>
