<?xml version="1.0" encoding="utf-8"?>
<!-- Generator: Adobe Illustrator 19.2.0, SVG Export Plug-In . SVG Version: 6.00 Build 0)  -->
<svg version="1.1" id="Layer_1" xmlns="http://www.w3.org/2000/svg" xmlns:xlink="http://www.w3.org/1999/xlink" x="0px" y="0px"
	 viewBox="0 0 24 24" style="enable-background:new 0 0 24 24;" xml:space="preserve">
<style type="text/css">
	.st0{display:none;}
	.st1{display:inline;}
	.st2{fill:none;stroke:#000000;stroke-linejoin:round;stroke-miterlimit:10;}
	.st3{fill:none;stroke:#000000;stroke-linecap:round;stroke-linejoin:round;stroke-miterlimit:10;}
</style>
<g id="Filled_Icons" class="st0">
	<g class="st1">
		<path d="M9.5,3.2C9.6,3.4,9.8,3.5,10,3.5h4c0.2,0,0.4-0.1,0.5-0.3l1-2.5c0.1-0.2,0-0.3-0.1-0.5C15.3,0.1,15.2,0,15,0H9
			C8.8,0,8.7,0.1,8.6,0.2C8.5,0.4,8.5,0.5,8.5,0.7L9.5,3.2z"/>
		<path d="M14.5,4.4C14.5,4.2,14.3,4,14,4h-4C9.8,4,9.5,4.2,9.5,4.4l-2,15c0,0.2,0,0.3,0.1,0.4l4,4C11.7,24,11.9,24,12,24
			s0.3-0.1,0.4-0.1l4-4c0.1-0.1,0.2-0.3,0.1-0.4L14.5,4.4z"/>
	</g>
</g>
<g id="Outline_Icons">
	<g>
		<polygon class="st2" points="14,3.5 10,3.5 9,0.5 15,0.5 		"/>
		<polyline class="st3" points="14,3.5 16,19.5 12,23.5 8,19.5 10,3.5 		"/>
	</g>
</g>
</svg>
