<?xml version="1.0" encoding="utf-8"?>
<!-- Generator: Adobe Illustrator 19.2.0, SVG Export Plug-In . SVG Version: 6.00 Build 0)  -->
<svg version="1.1" id="Layer_1" xmlns="http://www.w3.org/2000/svg" xmlns:xlink="http://www.w3.org/1999/xlink" x="0px" y="0px"
	 viewBox="0 0 24 24" style="enable-background:new 0 0 24 24;" xml:space="preserve">
<style type="text/css">
	.st0{display:none;}
	.st1{display:inline;}
	.st2{fill:none;stroke:#000000;stroke-linejoin:round;stroke-miterlimit:10;}
	.st3{fill:none;stroke:#000000;stroke-linecap:round;stroke-linejoin:round;stroke-miterlimit:10;}
</style>
<g id="Filled_Icons" class="st0">
	<path class="st1" d="M24,9.1c0-2-0.8-3.4-1.6-4.3c0.1-0.3,0.2-0.6,0.2-0.9c0-0.7-0.3-1.3-0.7-1.7c-0.9-0.9-2.5-0.9-3.4,0
		c-0.1,0.1-0.4,0.5-1,1.1c-0.4,0.1-0.8,0.3-1.2,0.4C15.6,4,15,4.2,14.4,4.2c-1,0-2.2-0.6-3.6-2c-1.6-1.5-3.7-2-5.5-1.4
		C3,1.6,1.3,3.9,1,6.5C0.9,6.9,1,7.3,1.2,7.6c0.2,0.3,0.6,0.5,1,0.6l0.2,0c0.7,0,1.4-0.6,1.5-1.3c0.2-1.5,1.2-2.8,2.3-3.2
		c0.8-0.3,1.6,0,2.5,0.8c1.8,1.7,3.5,2.6,5.1,2.7C9.8,11.6,4.2,17.9,0.6,22c-0.3,0.4-0.3,1,0,1.4c0.2,0.2,0.4,0.3,0.7,0.3
		c0.2,0,0.5-0.1,0.7-0.2C7.4,18.7,16.7,10.3,20.3,7C20.7,7.4,21,8,21,9.1c0,0.8-0.5,1.8-1,2.8c-1,2-2.4,4.7-0.8,7.9
		c0.3,0.5,0.8,0.8,1.3,0.8c0.2,0,0.5-0.1,0.7-0.2c0.7-0.4,1-1.3,0.7-2c-0.8-1.7-0.3-3.1,0.8-5.2C23.3,11.9,24,10.6,24,9.1z
		 M14.7,6.2c-1.4,0.1-3.1-0.4-5.3-2.5c-1.1-1-2.3-1.4-3.5-1c-1.5,0.5-2.7,2.2-2.9,4c0,0.2-0.2,0.4-0.5,0.4c0,0,0,0-0.1,0
		C2.1,7.2,1.9,6.9,2,6.7c0.3-2.3,1.8-4.2,3.6-4.8C7.1,1.3,8.7,1.7,10.1,3c2.8,2.6,4.4,2.4,5.8,1.9C15.5,5.3,15.1,5.7,14.7,6.2z
		 M20.9,18.9c0.1,0.2,0,0.5-0.2,0.7c-0.1,0-0.1,0.1-0.2,0.1c-0.2,0-0.4-0.1-0.4-0.3c-1.4-2.7-0.2-5,0.8-7c0.6-1.1,1.1-2.2,1.1-3.3
		c0-2.6-1.7-3.5-1.8-3.5l-0.5-0.3c-0.1,0-0.1-0.1-0.2-0.2l-1.2,1.2c-0.1,0.1-0.2,0.1-0.4,0.1c-0.1,0-0.3,0-0.4-0.1
		c-0.2-0.2-0.2-0.5,0-0.7l2.1-2.1c0.2-0.2,0.5-0.2,0.7,0c0.2,0.2,0.2,0.5,0,0.7l-0.2,0.2l0.4,0.2c0.1,0,2.3,1.1,2.3,4.4
		c0,1.3-0.6,2.4-1.2,3.7C20.8,14.7,19.8,16.6,20.9,18.9z"/>
</g>
<g id="Outline_Icons">
	<g>
		<path class="st2" d="M18.7,2.5c0.8-0.8,2-0.8,2.7,0c0.8,0.8,0.8,2,0,2.7C21,5.8,8.2,17.3,1.7,23c-0.2,0.2-0.5,0.2-0.7,0
			c-0.2-0.2-0.2-0.5,0-0.7C6.7,15.8,18.2,3,18.7,2.5z"/>
		<line class="st3" x1="20.1" y1="3.9" x2="18" y2="6.1"/>
		<path class="st3" d="M1.5,5.7c0.5-3.5,4-6.4,7.3-3.4c5,4.7,6.9,0.9,8.9,1.3"/>
		<path class="st3" d="M19.7,4.3c0,0,2.1,0.9,2.1,3.9s-4,6-2,10"/>
	</g>
</g>
</svg>
