<?xml version="1.0" encoding="utf-8"?>
<!-- Generator: Adobe Illustrator 19.2.0, SVG Export Plug-In . SVG Version: 6.00 Build 0)  -->
<svg version="1.1" id="Layer_1" xmlns="http://www.w3.org/2000/svg" xmlns:xlink="http://www.w3.org/1999/xlink" x="0px" y="0px"
	 viewBox="0 0 24 24" style="enable-background:new 0 0 24 24;" xml:space="preserve">
<style type="text/css">
	.st0{display:none;}
	.st1{display:inline;}
	.st2{fill:none;stroke:#000000;stroke-linecap:round;stroke-linejoin:round;stroke-miterlimit:10;}
	.st3{fill:none;stroke:#000000;stroke-linejoin:round;stroke-miterlimit:10;}
</style>
<g id="Filled_Icon" class="st0">
	<g class="st1">
		<path d="M9,11V8H7.6C7.2,9,7,10,7,11H9z"/>
		<path d="M1.2,11H6c0-1,0.2-2,0.5-3H2C1.6,8.9,1.3,9.9,1.2,11z"/>
		<path d="M9,7V5.3C8.6,5.8,8.3,6.4,8,7H9z"/>
		<path d="M6,12H1.1c0,1.1,0.2,2.1,0.6,3h4.7C6.2,14,6,13,6,12z"/>
		<path d="M9,20.3c-1-1.4-1.7-2.8-2.2-4.3H2.1C3.5,18.6,6,20.5,9,20.9V20.3z"/>
		<path d="M6.9,7C7.4,5.8,8.1,4.7,9,3.6V3.1C6.3,3.4,4,4.9,2.6,7H6.9z"/>
		<path d="M9,12H6.9c0,1,0.2,2,0.5,3H9V12z"/>
		<path d="M9,16H7.8c0.3,0.8,0.7,1.6,1.2,2.4V16z"/>
	</g>
	<g class="st1">
		<path d="M24,4V2.5C24,1.1,22.9,0,21.5,0h-9C11.1,0,10,1.1,10,2.5V4H24z M14.5,2h5C19.8,2,20,2.2,20,2.5S19.8,3,19.5,3h-5
			C14.2,3,14,2.8,14,2.5S14.2,2,14.5,2z"/>
		<path d="M10,20v1.5c0,1.4,1.1,2.5,2.5,2.5h9c1.4,0,2.5-1.1,2.5-2.5V20H10z M17,22.5c-0.6,0-1-0.4-1-1s0.4-1,1-1s1,0.4,1,1
			S17.6,22.5,17,22.5z"/>
		<rect x="10" y="5" width="14" height="14"/>
	</g>
</g>
<g id="Outline_Icons">
	<g>
		<g>
			<g>
				<path class="st2" d="M23.5,21.5c0,1.1-0.9,2-2,2h-9c-1.1,0-2-0.9-2-2v-19c0-1.1,0.9-2,2-2h9c1.1,0,2,0.9,2,2V21.5z"/>
				<line class="st2" x1="23.5" y1="4.5" x2="10.5" y2="4.5"/>
				<line class="st2" x1="23.5" y1="19.5" x2="10.5" y2="19.5"/>
				<line class="st2" x1="14.5" y1="2.5" x2="19.5" y2="2.5"/>
				<path class="st3" d="M17.5,21.5c0,0.3-0.2,0.5-0.5,0.5l0,0c-0.3,0-0.5-0.2-0.5-0.5l0,0c0-0.3,0.2-0.5,0.5-0.5l0,0
					C17.3,21,17.5,21.2,17.5,21.5L17.5,21.5z"/>
			</g>
		</g>
		<path class="st3" d="M9.8,20.5c-4.4-5.9-4.4-12.2,0-17"/>
		<line class="st3" x1="2.4" y1="15.5" x2="10.5" y2="15.5"/>
		<line class="st3" x1="2.8" y1="7.5" x2="10.5" y2="7.5"/>
		<line class="st3" x1="1.6" y1="11.5" x2="10.5" y2="11.5"/>
		<path class="st3" d="M10.5,3.5c-0.1,0-0.2,0-0.4,0c-4.7,0-8.5,3.6-8.5,8.3s3.8,8.7,8.5,8.7c0.1,0,0.3,0,0.4,0V3.5L10.5,3.5z"/>
	</g>
</g>
</svg>
