<?xml version="1.0" encoding="utf-8"?>
<!-- Generator: Adobe Illustrator 19.2.0, SVG Export Plug-In . SVG Version: 6.00 Build 0)  -->
<svg version="1.1" id="Layer_1" xmlns="http://www.w3.org/2000/svg" xmlns:xlink="http://www.w3.org/1999/xlink" x="0px" y="0px"
	 viewBox="0 0 24 24" style="enable-background:new 0 0 24 24;" xml:space="preserve">
<style type="text/css">
	.st0{display:none;}
	.st1{display:inline;}
	.st2{fill:none;stroke:#000000;stroke-linejoin:round;stroke-miterlimit:10;}
	.st3{fill:none;stroke:#000000;stroke-linecap:round;stroke-linejoin:round;stroke-miterlimit:10;}
</style>
<g id="Filled_Icon" class="st0">
	<g class="st1">
		<g>
			<path d="M16.5,11c0-1.7-0.4-3.4-1-5H8.3c-0.6,1.6-1,3.3-1,5H16.5z"/>
			<path d="M18.5,12c2.5,0,4.5,2.1,4.5,4.8c0.6-1.5,1-3.1,1-4.8C24,12,18.5,12,18.5,12z"/>
			<path d="M15,5c-0.7-1.4-1.6-2.8-2.8-4.1c-0.1-0.1-0.2-0.2-0.3-0.3c-0.1,0.1-0.2,0.2-0.3,0.3C10.4,2.2,9.5,3.6,8.8,5H15z"/>
			<path d="M12,23c0-1.2,0.8-2.3,1.9-2.7c0.2-0.4,0.5-0.9,0.7-1.3c-0.2-0.3-0.3-0.7-0.4-1.1H8.8c0.7,1.7,1.7,3.5,3,5.2l0.1,0.2
				l0.1-0.1C12,23.2,12,23,12,23z"/>
			<path d="M6.4,12H0c0,1.8,0.4,3.5,1.1,5h6.2C6.8,15.3,6.5,13.6,6.4,12z"/>
			<path d="M11,23.8c-1.4-1.9-2.5-3.9-3.3-5.8H1.6c1.9,3.3,5.4,5.7,9.5,6L11,23.8z"/>
			<path d="M7.7,5c0.8-1.7,1.8-3.3,3.2-4.8L11,0.1C7.4,0.3,4.3,2.2,2.3,5H7.7z"/>
			<path d="M12.9,0.2c1.4,1.5,2.4,3.1,3.2,4.8h5.6c-2-2.8-5.3-4.7-8.9-5C12.9,0.1,12.9,0.2,12.9,0.2z"/>
			<path d="M14,16.8c0-1.8,1-3.4,2.4-4.2c0-0.2,0-0.4,0-0.5H7.3c0.1,1.6,0.4,3.3,1,5H14C14,16.9,14,16.8,14,16.8z"/>
			<path d="M17.5,11H24c-0.2-1.8-0.7-3.5-1.6-5h-5.9C17.1,7.6,17.4,9.3,17.5,11z"/>
			<path d="M0.1,11h6.3c0-1.7,0.3-3.4,0.9-5H1.6C0.8,7.5,0.2,9.2,0.1,11z"/>
		</g>
		<g>
			<path d="M15.8,15.7c0.6,0.4,2,0.5,2.8-0.3c0.1-0.1,0.3-0.2,0.4-0.1c0.2,0,0.3,0.1,0.4,0.3c0.2,0.4,0.6,0.5,0.9,0.6
				c0.4,0.1,0.7,0,0.8-0.2c0,0,0.4-0.3,0.5-0.8C21,13.8,19.9,13,18.5,13s-2.6,0.9-3.2,2.2C15.6,15.5,15.8,15.7,15.8,15.7z"/>
			<path d="M22.7,21.2l-2.2-0.6v-0.8c0.9-0.7,1.5-1.8,1.5-3.1c0-0.1,0-0.2,0-0.4c-0.1,0.1-0.2,0.2-0.2,0.2c-0.3,0.3-0.7,0.4-1.2,0.4
				c-0.1,0-0.2,0-0.4,0c-0.5-0.1-0.9-0.3-1.2-0.6c-1.2,0.8-2.7,0.8-3.6,0.1c0,0-0.1-0.1-0.2-0.2c0,0.1,0,0.3,0,0.4
				c0,1.3,0.6,2.4,1.5,3.1v0.8l-2.2,0.6c-0.7,0.2-1.3,1-1.3,1.8v1h5h1h5v-1C24,22.2,23.4,21.5,22.7,21.2z"/>
		</g>
	</g>
</g>
<g id="Outline_Icons">
	<g>
		<g>
			<path class="st2" d="M17,19.6V21l-2.5,0.7c-0.5,0.2-1,0.7-1,1.3v0.5H19"/>
			<path class="st2" d="M20,19.6V21l2.5,0.7c0.5,0.2,1,0.7,1,1.3v0.5H18"/>
			<ellipse class="st2" cx="18.5" cy="16.8" rx="3" ry="3.3"/>
			<path class="st2" d="M21.5,16.2c-0.5,0.5-1.9,0.5-2.5-0.5c-1,1-2.6,1-3.4,0.4"/>
		</g>
		<g>
			<path class="st2" d="M12.6,0.5c3,3.2,4.5,7,4.5,10.9"/>
			<line class="st3" x1="2" y1="17.5" x2="12" y2="17.5"/>
			<line class="st2" x1="2.4" y1="5.5" x2="21.5" y2="5.5"/>
			<path class="st3" d="M11.3,0.5c-6,6.5-5.9,15,0.1,23h-0.5C5.1,22.9,0.5,17.8,0.5,11.8c0-6.2,4.9-11,11-11.2c0.2,0,0.3,0,0.5,0
				c6,0,11,4.6,11.5,10.5v0.5h-23"/>
		</g>
	</g>
</g>
</svg>
