<?xml version="1.0" encoding="utf-8"?>
<!-- Generator: Adobe Illustrator 19.2.0, SVG Export Plug-In . SVG Version: 6.00 Build 0)  -->
<svg version="1.1" id="Layer_1" xmlns="http://www.w3.org/2000/svg" xmlns:xlink="http://www.w3.org/1999/xlink" x="0px" y="0px"
	 viewBox="0 0 24 24" style="enable-background:new 0 0 24 24;" xml:space="preserve">
<style type="text/css">
	.st0{display:none;}
	.st1{display:inline;}
	.st2{fill:none;stroke:#000000;stroke-linecap:round;stroke-linejoin:round;stroke-miterlimit:10;}
	.st3{fill:none;stroke:#000000;stroke-linejoin:round;stroke-miterlimit:10;}
</style>
<g id="Filled_Icon" class="st0">
	<g class="st1">
		<g>
			<path d="M16.5,11c0-1.7-0.4-3.4-1-5H8.3c-0.6,1.6-1,3.3-1,5H16.5z"/>
			<path d="M15,5c-0.7-1.4-1.6-2.8-2.8-4.1c-0.1-0.1-0.2-0.2-0.3-0.3c-0.1,0.1-0.2,0.2-0.3,0.3C10.4,2.2,9.5,3.6,8.8,5H15z"/>
			<path d="M13.1,21.7c-0.7-0.6-1.1-1.4-1.1-2.4c0-0.5,0.1-0.9,0.3-1.3H8.8c0.7,1.7,1.7,3.5,3,5.2l0.1,0.2l0.1-0.2
				C12.4,22.7,12.8,22.2,13.1,21.7z"/>
			<path d="M6.4,12H0c0,1.8,0.4,3.5,1.1,5h6.2C6.8,15.3,6.5,13.6,6.4,12z"/>
			<path d="M16.6,16.5c0.1,0.1,0.2,0.1,0.3,0.2l1.7-0.8c0.1-1.7,1.4-3.1,3.2-3.1c0.8,0,1.5,0.3,2.1,0.8C24,13.1,24,12.5,24,12h-6.6
				C17.4,13.5,17.1,15,16.6,16.5z"/>
			<path d="M0.1,11h6.3c0-1.7,0.3-3.4,0.9-5H1.6C0.8,7.5,0.2,9.2,0.1,11z"/>
			<path d="M7.7,5c0.8-1.7,1.8-3.3,3.2-4.8L11,0.1C7.4,0.3,4.3,2.2,2.3,5H7.7z"/>
			<path d="M11,23.8c-1.4-1.9-2.5-3.9-3.3-5.8H1.6c1.9,3.3,5.4,5.7,9.5,6L11,23.8z"/>
			<path d="M12.9,0.2c1.4,1.5,2.4,3.1,3.2,4.8h5.6c-2-2.8-5.3-4.7-8.9-5C12.9,0.1,12.9,0.2,12.9,0.2z"/>
			<path d="M17.5,11H24c-0.2-1.8-0.7-3.5-1.6-5h-5.9C17.1,7.6,17.4,9.3,17.5,11z"/>
			<path d="M17.2,21.7c-0.6,0.5-1.3,0.8-2.1,0.8c-0.4,0-0.8-0.1-1.2-0.2c-0.3,0.5-0.7,1-1.1,1.6L12.7,24c2.1-0.1,4-0.8,5.7-1.8
				L17.2,21.7z"/>
			<path d="M15.2,16.2c0.2,0,0.4,0,0.6,0.1c0.4-1.4,0.7-2.8,0.8-4.2H7.3c0.1,1.6,0.4,3.3,1,5H13C13.6,16.5,14.3,16.2,15.2,16.2z"/>
		</g>
		<path d="M21.8,19.7c-0.7,0-1.4,0.4-1.8,1l-2.7-1c0-0.1,0-0.2,0-0.3c0-0.2,0-0.3-0.1-0.5l2.9-1.5c0.4,0.5,1,0.8,1.7,0.8
			c1.2,0,2.2-1,2.2-2.2s-1-2.2-2.2-2.2s-2.2,1-2.2,2.2c0,0.2,0,0.3,0.1,0.5L16.8,18c-0.4-0.5-1-0.8-1.7-0.8c-1.2,0-2.2,1-2.2,2.2
			s1,2.2,2.2,2.2c0.7,0,1.4-0.4,1.8-1l2.7,1c0,0.1,0,0.2,0,0.3c0,1.2,1,2.2,2.2,2.2s2.2-1,2.2-2.2C24,20.6,23,19.7,21.8,19.7z
			 M21.8,14.8c0.6,0,1.2,0.5,1.2,1.2c0,0.6-0.5,1.2-1.2,1.2c-0.6,0-1.2-0.5-1.2-1.2C20.7,15.3,21.2,14.8,21.8,14.8z M15.2,20.5
			c-0.6,0-1.2-0.5-1.2-1.2c0-0.6,0.5-1.2,1.2-1.2c0.6,0,1.2,0.5,1.2,1.2C16.3,20,15.8,20.5,15.2,20.5z M21.8,23
			c-0.6,0-1.2-0.5-1.2-1.2c0-0.6,0.5-1.2,1.2-1.2c0.6,0,1.2,0.5,1.2,1.2S22.5,23,21.8,23z"/>
	</g>
</g>
<g id="Outline_Icons">
	<g>
		<g>
			<circle class="st2" cx="21.8" cy="16" r="1.7"/>
			<circle class="st2" cx="21.8" cy="21.8" r="1.7"/>
			<circle class="st2" cx="15.2" cy="19.3" r="1.7"/>
			<line class="st2" x1="16.6" y1="18.6" x2="20.3" y2="16.7"/>
			<line class="st2" x1="16.7" y1="19.9" x2="20.3" y2="21.2"/>
		</g>
		<g>
			<path class="st3" d="M12.5,0.5c3,3.2,4.5,7,4.5,10.9"/>
			<line class="st2" x1="2" y1="17.5" x2="12" y2="17.5"/>
			<line class="st3" x1="2.4" y1="5.5" x2="21.5" y2="5.5"/>
			<path class="st2" d="M11.2,0.5c-6,6.5-5.9,15,0.1,23h-0.5C5,22.9,0.5,17.8,0.5,11.8c0-6.2,4.9-11,11-11.2c0.2,0,0.3,0,0.5,0
				c6,0,11,4.6,11.5,10.5v0.5h-23"/>
		</g>
	</g>
</g>
</svg>
