<?xml version="1.0" encoding="utf-8"?>
<!-- Generator: Adobe Illustrator 19.2.0, SVG Export Plug-In . SVG Version: 6.00 Build 0)  -->
<svg version="1.1" id="Layer_1" xmlns="http://www.w3.org/2000/svg" xmlns:xlink="http://www.w3.org/1999/xlink" x="0px" y="0px"
	 viewBox="0 0 24 24" style="enable-background:new 0 0 24 24;" xml:space="preserve">
<style type="text/css">
	.st0{display:none;}
	.st1{display:inline;}
	.st2{fill:none;stroke:#000000;stroke-linecap:round;stroke-linejoin:round;stroke-miterlimit:10;}
</style>
<g id="Filled_Icon" class="st0">
	<path class="st1" d="M18.5,1H17v18.9c0,0.2-0.1,0.4-0.3,0.5c-0.1,0-0.1,0-0.2,0s-0.3-0.1-0.4-0.2l-6.5-7.9
		c-0.2-0.2-0.1-0.5,0.1-0.7c0.2-0.2,0.5-0.1,0.7,0.1l5.6,6.8V1H5.5C3,1,1,3,1,5.5v13C1,21,3,23,5.5,23H7V4c0-0.2,0.1-0.4,0.3-0.5
		c0.2-0.1,0.4,0,0.6,0.2l6.5,8c0.2,0.2,0.1,0.5-0.1,0.7c-0.2,0.2-0.5,0.1-0.7-0.1L8,5.4V23h10.5c2.5,0,4.5-2,4.5-4.5v-13
		C23,3,21,1,18.5,1z"/>
</g>
<g id="Outline_Icons">
	<g>
		<polyline class="st2" points="10,12 16.5,19.9 16.5,1.5 		"/>
		<polyline class="st2" points="14,12 7.5,4 7.5,22.5 		"/>
		<path class="st2" d="M1.5,18.5c0,2.2,1.8,4,4,4h13c2.2,0,4-1.8,4-4v-13c0-2.2-1.8-4-4-4h-13c-2.2,0-4,1.8-4,4V18.5z"/>
	</g>
</g>
</svg>
