<?xml version="1.0" encoding="utf-8"?>
<!-- Generator: Adobe Illustrator 19.2.0, SVG Export Plug-In . SVG Version: 6.00 Build 0)  -->
<svg version="1.1" id="Outline_Icons" xmlns="http://www.w3.org/2000/svg" xmlns:xlink="http://www.w3.org/1999/xlink" x="0px"
	 y="0px" viewBox="0 0 24 24" style="enable-background:new 0 0 24 24;" xml:space="preserve">
<style type="text/css">
	.st0{fill:none;stroke:#000000;stroke-linecap:round;stroke-linejoin:round;stroke-miterlimit:10;}
	.st1{fill:none;stroke:#000000;stroke-linejoin:round;stroke-miterlimit:10;}
</style>
<g>
	<rect x="0.5" y="8.5" class="st0" width="23" height="7"/>
	<path class="st1" d="M2.6,8.5c1.3-3.7,4.8-6.3,9-6.5c0.1,0,0.3,0,0.4,0c4.3,0,8,2.7,9.4,6.5"/>
	<path class="st1" d="M21.4,15.5C19.9,19.3,16.3,22,12,22c-4.2,0-7.8-2.7-9.3-6.5"/>
	<path class="st1" d="M8.2,15.5c0.6,2.2,1.7,4.4,3.3,6.5"/>
	<path class="st1" d="M11.6,2C9.7,4,8.6,6.2,8,8.5"/>
	<path class="st1" d="M15.8,15.5c-0.6,2.2-1.7,4.3-3.3,6.5"/>
	<path class="st1" d="M12.4,2c1.8,2,3,4.2,3.6,6.5"/>
	<line class="st1" x1="3.7" y1="17.5" x2="20.3" y2="17.5"/>
	<line class="st1" x1="3.7" y1="6.5" x2="20.2" y2="6.5"/>
	<g>
		<polyline class="st0" points="17.8,13.5 16.5,13.5 16.5,10.5 17.8,10.5 		"/>
		<line class="st0" x1="16.5" y1="12" x2="17.5" y2="12"/>
	</g>
	<line class="st0" x1="9.5" y1="13.5" x2="9.5" y2="10.5"/>
	<polyline class="st0" points="6.9,13.5 5.5,13.5 5.5,10.5 	"/>
	<polyline class="st0" points="12.5,10.5 13.3,13.5 14.2,10.5 	"/>
</g>
</svg>
