<?xml version="1.0" encoding="utf-8"?>
<!-- Generator: Adobe Illustrator 19.2.0, SVG Export Plug-In . SVG Version: 6.00 Build 0)  -->
<svg version="1.1" id="Layer_1" xmlns="http://www.w3.org/2000/svg" xmlns:xlink="http://www.w3.org/1999/xlink" x="0px" y="0px"
	 viewBox="0 0 24 24" style="enable-background:new 0 0 24 24;" xml:space="preserve">
<style type="text/css">
	.st0{display:none;}
	.st1{display:inline;}
	.st2{fill:none;stroke:#000000;stroke-linecap:round;stroke-linejoin:round;stroke-miterlimit:10;}
	.st3{fill:none;stroke:#000000;stroke-linejoin:round;stroke-miterlimit:10;}
</style>
<g id="Filled_Icon" class="st0">
	<g class="st1">
		<g>
			<path d="M5.6,14.5L5.6,14.5c-0.3,0-0.5-0.2-0.5-0.4l-0.6-4c0-0.3,0.1-0.5,0.4-0.6c0.3,0,0.5,0.1,0.6,0.4l0.3,1.9
				c0.1-0.4,0.8-0.4,0.9,0L7,9.9c0-0.3,0.3-0.5,0.6-0.4C7.8,9.5,8,9.8,8,10.1l-0.6,4c0,0.2-0.2,0.4-0.5,0.4c-0.2,0-0.4-0.1-0.5-0.3
				l-0.2-0.5L6,14.2C6,14.4,5.8,14.5,5.6,14.5z"/>
		</g>
		<g>
			<path d="M11.6,14.5L11.6,14.5c-0.3,0-0.5-0.2-0.5-0.4l-0.6-4c0-0.3,0.1-0.5,0.4-0.6c0.3,0,0.5,0.1,0.6,0.4l0.3,1.9
				c0.1-0.2,0.3-0.3,0.5-0.3l0,0c0.2,0,0.4,0.1,0.5,0.3L13,9.9c0-0.3,0.3-0.5,0.6-0.4c0.3,0,0.5,0.3,0.4,0.6l-0.6,4
				c0,0.2-0.2,0.4-0.5,0.4c-0.2,0-0.4-0.1-0.5-0.3l-0.2-0.5L12,14.2C12,14.4,11.8,14.5,11.6,14.5z"/>
		</g>
		<g>
			<path d="M18.9,14.5c-0.2,0-0.4-0.1-0.5-0.3l-0.2-0.5L18,14.2c-0.1,0.2-0.3,0.4-0.5,0.3c-0.2,0-0.4-0.2-0.5-0.4l-0.6-4
				c0-0.3,0.1-0.5,0.4-0.6c0.3,0,0.5,0.1,0.6,0.4l0.3,1.9c0.1-0.2,0.3-0.3,0.5-0.3l0,0c0.2,0,0.4,0.1,0.5,0.3L19,9.9
				c0-0.3,0.3-0.5,0.6-0.4c0.3,0,0.5,0.3,0.4,0.6l-0.6,4C19.4,14.3,19.2,14.5,18.9,14.5L18.9,14.5z"/>
		</g>
		<g>
			<path d="M9.7,18c0.6,1.2,1.3,2.5,2.2,3.7l0,0l0.1-0.1c0.9-1.2,1.6-2.4,2.2-3.7H9.7V18z"/>
			<path d="M8.6,18H3.5c1.8,2.6,4.7,4.3,7.9,4.5l-0.1-0.2C10.1,20.9,9.3,19.5,8.6,18z"/>
			<path d="M12.8,22.3l-0.2,0.2c3.2-0.2,6.1-1.9,7.9-4.5h-5.2C14.7,19.4,13.9,20.9,12.8,22.3z"/>
			<path d="M14.6,6c-0.6-1.3-1.5-2.5-2.5-3.7H12l-0.1,0.1C10.9,3.5,10,4.7,9.4,6H14.6z"/>
			<path d="M15.7,6h5c-1.8-2.6-4.7-4.3-8-4.5l0.1,0.2C14,3,15,4.5,15.7,6z"/>
			<path d="M11.2,1.7l0.1-0.1C8,1.7,5,3.4,3.3,6h5C9,4.5,10,3,11.2,1.7z"/>
			<path d="M23.5,8h-1.8c-0.1-0.3-0.3-0.7-0.5-1H16c0.1,0.3,0.2,0.7,0.3,1h-1c-0.1-0.3-0.2-0.7-0.3-1H9C8.9,7.3,8.8,7.7,8.7,8h-1
				C7.8,7.7,7.9,7.3,8,7H2.7C2.5,7.3,2.4,7.7,2.2,8H0.5C0.2,8,0,8.2,0,8.5v7C0,15.8,0.2,16,0.5,16h1.9c0.1,0.3,0.3,0.7,0.5,1h5.4
				c-0.1-0.3-0.2-0.7-0.3-1h1.1c0.1,0.3,0.2,0.7,0.3,1h5.5c0.1-0.3,0.2-0.7,0.3-1h1.1c-0.1,0.3-0.2,0.7-0.3,1h5.4
				c0.2-0.3,0.3-0.7,0.5-1h1.8c0.3,0,0.5-0.2,0.5-0.5v-7C24,8.2,23.8,8,23.5,8z M23,15H1V9h22V15z"/>
		</g>
	</g>
</g>
<g id="Outline_Icons">
	<g>
		<g>
			<rect x="0.5" y="8.5" class="st2" width="23" height="7"/>
			<path class="st3" d="M2.6,8.5c1.3-3.7,4.8-6.3,9-6.5c0.1,0,0.3,0,0.4,0c4.3,0,8,2.7,9.4,6.5"/>
			<path class="st3" d="M21.4,15.5C19.9,19.3,16.3,22,12,22c-4.2,0-7.8-2.7-9.3-6.5"/>
			<path class="st3" d="M8.2,15.5c0.6,2.2,1.7,4.4,3.3,6.5"/>
			<path class="st3" d="M11.6,2C9.7,4,8.5,6.2,8,8.5"/>
			<path class="st3" d="M15.8,15.5c-0.6,2.2-1.7,4.3-3.3,6.5"/>
			<path class="st3" d="M12.4,2c1.8,2,3,4.2,3.6,6.5"/>
			<line class="st3" x1="3.7" y1="17.5" x2="20.3" y2="17.5"/>
			<line class="st3" x1="3.7" y1="6.5" x2="20.2" y2="6.5"/>
		</g>
		<polyline class="st2" points="7.5,10 6.9,14 6.2,12 5.6,14 4.9,10 		"/>
		<polyline class="st2" points="13.5,10 12.9,14 12.2,12 11.6,14 11,10 		"/>
		<polyline class="st2" points="19.5,10 18.9,14 18.3,12 17.6,14 17,10 		"/>
	</g>
</g>
</svg>
