<?xml version="1.0" encoding="utf-8"?>
<!-- Generator: Adobe Illustrator 19.2.0, SVG Export Plug-In . SVG Version: 6.00 Build 0)  -->
<svg version="1.1" id="Layer_1" xmlns="http://www.w3.org/2000/svg" xmlns:xlink="http://www.w3.org/1999/xlink" x="0px" y="0px"
	 viewBox="0 0 24 24" style="enable-background:new 0 0 24 24;" xml:space="preserve">
<style type="text/css">
	.st0{display:none;}
	.st1{display:inline;}
	.st2{fill:none;stroke:#000000;stroke-linecap:round;stroke-linejoin:round;stroke-miterlimit:10;}
	.st3{fill:none;stroke:#000000;stroke-linejoin:round;stroke-miterlimit:10;}
</style>
<g id="Filled_Icon" class="st0">
	<g class="st1">
		<g>
			<path d="M15,8.5c-0.8,0-1.5,0.5-1.8,1.1L10,8.3c0-0.1,0-0.2,0-0.3c0-0.1,0-0.2,0-0.3l3.2-1.3c0.3,0.7,1,1.1,1.8,1.1
				c1.1,0,2-0.9,2-2s-0.9-2-2-2s-1.9,0.8-2,1.9L9.5,6.7C9.2,6.3,8.6,6,8,6C6.9,6,6,6.9,6,8s0.9,2,2,2c0.6,0,1.2-0.3,1.5-0.7l3.5,1.4
				c0.1,1,0.9,1.9,2,1.9s2-0.9,2-2C17,9.4,16.1,8.5,15,8.5z M15,4.5c0.6,0,1,0.4,1,1s-0.4,1-1,1s-1-0.4-1-1S14.4,4.5,15,4.5z M8,9
				C7.4,9,7,8.6,7,8s0.4-1,1-1s1,0.4,1,1S8.6,9,8,9z M15,11.5c-0.6,0-1-0.4-1-1s0.4-1,1-1s1,0.4,1,1S15.6,11.5,15,11.5z"/>
		</g>
		<path d="M9.5,15.5c0.7,0,1.2,0.4,1.4,1h1.2c0.2-0.6,0.8-1,1.4-1H22V2c0-1.1-0.9-2-2-2H3C1.9,0,1,0.9,1,2v13.5H9.5z M3,2
			c0-0.3,0.2-0.5,0.5-0.5h16C19.8,1.5,20,1.7,20,2v11.5c0,0.3-0.2,0.5-0.5,0.5h-16C3.2,14,3,13.8,3,13.5V2z"/>
		<path d="M21.5,20c0.8,0,1.5-0.7,1.5-1.5V17c0-0.3-0.2-0.5-0.5-0.5h-9c-0.3,0-0.5,0.2-0.5,0.5v0.5h-3V17c0-0.3-0.2-0.5-0.5-0.5h-9
			C0.2,16.5,0,16.7,0,17v1.5C0,19.3,0.7,20,1.5,20H11v3H0.5C0.2,23,0,23.2,0,23.5S0.2,24,0.5,24h21.9c0.3,0,0.5-0.2,0.5-0.5
			S22.7,23,22.4,23H12v-3H21.5z"/>
	</g>
</g>
<g id="Outline_Icons">
	<g>
		<polygon class="st2" points="19.5,2.5 19.5,14.5 12,14.5 3.5,14.5 3.5,2.5 		"/>
		<path class="st2" d="M1.5,16.5V2c0-0.8,0.7-1.5,1.5-1.5h17c0.8,0,1.5,0.7,1.5,1.5v14.5"/>
		<path class="st2" d="M13.5,16.5v1h-4v-1h-9v2c0,0.6,0.4,1,1,1h20c0.6,0,1-0.4,1-1v-2H13.5z"/>
		<line class="st2" x1="0.5" y1="23.5" x2="22.5" y2="23.5"/>
		<line class="st2" x1="11.5" y1="23.5" x2="11.5" y2="19.5"/>
		<circle class="st2" cx="15" cy="6" r="1.5"/>
		<circle class="st2" cx="15" cy="11" r="1.5"/>
		<circle class="st2" cx="8" cy="8.5" r="1.5"/>
		<line class="st3" x1="9.4" y1="7.9" x2="13.5" y2="6.2"/>
		<line class="st3" x1="9.4" y1="9.1" x2="13.5" y2="10.8"/>
	</g>
</g>
</svg>
