<?xml version="1.0" encoding="utf-8"?>
<!-- Generator: Adobe Illustrator 19.2.0, SVG Export Plug-In . SVG Version: 6.00 Build 0)  -->
<svg version="1.1" id="Outline_Icons" xmlns="http://www.w3.org/2000/svg" xmlns:xlink="http://www.w3.org/1999/xlink" x="0px"
	 y="0px" viewBox="0 0 24 24" style="enable-background:new 0 0 24 24;" xml:space="preserve">
<style type="text/css">
	.st0{fill:none;stroke:#000000;stroke-linecap:round;stroke-linejoin:round;stroke-miterlimit:10;}
</style>
<g>
	<path class="st0" d="M0.5,19.5c0-0.6,0.4-1,1-1h9c0.6,0,1,0.4,1,1v2h-11V19.5z"/>
	<rect x="3.5" y="13.5" class="st0" width="5" height="3"/>
	<path class="st0" d="M1.5,18.5V13c0-0.8,0.7-1.5,1.5-1.5h6c0.8,0,1.5,0.6,1.5,1.5v5.5"/>
	<path class="st0" d="M12.5,19.5c0-0.6,0.4-1,1-1l9,0c0.6,0,1,0.4,1,1v2l-11,0V19.5z"/>
	<rect x="15.5" y="13.5" class="st0" width="5" height="3"/>
	<path class="st0" d="M13.5,18.5V13c0-0.8,0.7-1.5,1.5-1.5h6c0.8,0,1.5,0.6,1.5,1.5v5.5"/>
	<rect x="9.5" y="4.5" class="st0" width="5" height="3"/>
	<path class="st0" d="M7.5,9.5V4c0-0.8,0.7-1.5,1.5-1.5h6c0.8,0,1.5,0.6,1.5,1.5v5.5"/>
	<line class="st0" x1="13.6" y1="12.5" x2="10.4" y2="12.5"/>
	<path class="st0" d="M6.5,11.5v-1c0-0.6,0.4-1,1-1l9,0c0.6,0,1,0.4,1,1v0.9"/>
</g>
</svg>
