<?xml version="1.0" encoding="utf-8"?>
<!-- Generator: Adobe Illustrator 19.2.0, SVG Export Plug-In . SVG Version: 6.00 Build 0)  -->
<svg version="1.1" id="Layer_1" xmlns="http://www.w3.org/2000/svg" xmlns:xlink="http://www.w3.org/1999/xlink" x="0px" y="0px"
	 viewBox="0 0 24 24" style="enable-background:new 0 0 24 24;" xml:space="preserve">
<style type="text/css">
	.st0{display:none;}
	.st1{display:inline;}
	.st2{fill:none;stroke:#000000;stroke-linecap:round;stroke-linejoin:round;stroke-miterlimit:10;}
</style>
<g id="Filled_Icon" class="st0">
	<g class="st1">
		<path d="M13.8,12.4C14.5,11.9,15,11,15,10c0-1.7-1.3-3-3-3s-3,1.3-3,3c0,1,0.5,1.8,1.2,2.4c-1.6,0.7-2.7,2.3-2.7,4.1
			C7.5,16.8,7.7,17,8,17h8l0,0c0.3,0,0.5-0.2,0.5-0.5c0-0.1,0-0.1,0-0.1C16.5,14.6,15.4,13.1,13.8,12.4z"/>
		<path d="M17,7.5c0.1,0,0.3,0,0.4-0.1l2.8-2.8C20.5,4.9,21,5,21.5,5C22.9,5,24,3.9,24,2.5S22.9,0,21.5,0S19,1.1,19,2.5
			c0,0.5,0.2,1,0.4,1.4l-2.8,2.8c-0.2,0.2-0.2,0.5,0,0.7C16.8,7.5,16.9,7.5,17,7.5z M21.5,1C22.3,1,23,1.7,23,2.5S22.3,4,21.5,4
			S20,3.3,20,2.5S20.7,1,21.5,1z"/>
		<path d="M21.5,19c-0.5,0-1,0.2-1.4,0.4l-1.8-1.8c-0.2-0.2-0.5-0.2-0.7,0s-0.2,0.5,0,0.7l1.8,1.8C19.2,20.5,19,21,19,21.5
			c0,1.4,1.1,2.5,2.5,2.5s2.5-1.1,2.5-2.5S22.9,19,21.5,19z M21.5,23c-0.8,0-1.5-0.7-1.5-1.5s0.7-1.5,1.5-1.5s1.5,0.7,1.5,1.5
			S22.3,23,21.5,23z"/>
		<path d="M2.5,5c0.5,0,1-0.1,1.4-0.4l2.8,2.8C6.8,7.5,6.9,7.5,7,7.5s0.3,0,0.4-0.1c0.2-0.2,0.2-0.5,0-0.7L4.6,3.9
			C4.9,3.5,5,3,5,2.5C5,1.1,3.9,0,2.5,0S0,1.1,0,2.5S1.1,5,2.5,5z M2.5,1C3.3,1,4,1.7,4,2.5S3.3,4,2.5,4S1,3.3,1,2.5S1.7,1,2.5,1z"
			/>
		<path d="M5.7,17.6l-1.8,1.8C3.5,19.2,3,19,2.5,19C1.1,19,0,20.1,0,21.5S1.1,24,2.5,24S5,22.9,5,21.5c0-0.5-0.1-1-0.4-1.4l1.8-1.8
			c0.2-0.2,0.2-0.5,0-0.7S5.9,17.4,5.7,17.6z M2.5,23C1.7,23,1,22.3,1,21.5S1.7,20,2.5,20S4,20.7,4,21.5S3.3,23,2.5,23z"/>
		<path d="M16.5,12h2.6c0.2,1.1,1.2,2,2.4,2c1.4,0,2.5-1.1,2.5-2.5S22.9,9,21.5,9c-1.2,0-2.2,0.9-2.4,2h-2.6c-0.3,0-0.5,0.2-0.5,0.5
			S16.2,12,16.5,12z M21.5,10c0.8,0,1.5,0.7,1.5,1.5S22.3,13,21.5,13S20,12.3,20,11.5S20.7,10,21.5,10z"/>
		<path d="M2.5,14c1.2,0,2.2-0.9,2.4-2h2.6C7.8,12,8,11.8,8,11.5S7.8,11,7.5,11H5C4.7,9.9,3.7,9,2.5,9C1.1,9,0,10.1,0,11.5
			S1.1,14,2.5,14z M2.5,10C3.3,10,4,10.7,4,11.5S3.3,13,2.5,13S1,12.3,1,11.5S1.7,10,2.5,10z"/>
	</g>
</g>
<g id="Outline_Icons">
	<g>
		<circle class="st2" cx="12" cy="10" r="2.5"/>
		<path class="st2" d="M16,16.5H8c0-2.2,1.8-4,4-4S16,14.3,16,16.5z"/>
		<line class="st2" x1="17" y1="7" x2="20.1" y2="3.9"/>
		<circle class="st2" cx="21.5" cy="2.5" r="2"/>
		<line class="st2" x1="18" y1="18" x2="20.1" y2="20.1"/>
		<circle class="st2" cx="21.5" cy="21.5" r="2"/>
		<line class="st2" x1="7" y1="7" x2="3.9" y2="3.9"/>
		<circle class="st2" cx="2.5" cy="2.5" r="2"/>
		<line class="st2" x1="6" y1="18" x2="3.9" y2="20.1"/>
		<circle class="st2" cx="2.5" cy="21.5" r="2"/>
		<line class="st2" x1="16.5" y1="11.5" x2="19.5" y2="11.5"/>
		<circle class="st2" cx="21.5" cy="11.5" r="2"/>
		<line class="st2" x1="7.5" y1="11.5" x2="4.5" y2="11.5"/>
		<circle class="st2" cx="2.5" cy="11.5" r="2"/>
	</g>
</g>
</svg>
