<?xml version="1.0" encoding="utf-8"?>
<!-- Generator: Adobe Illustrator 19.2.0, SVG Export Plug-In . SVG Version: 6.00 Build 0)  -->
<svg version="1.1" id="Layer_1" xmlns="http://www.w3.org/2000/svg" xmlns:xlink="http://www.w3.org/1999/xlink" x="0px" y="0px"
	 viewBox="0 0 24 24" style="enable-background:new 0 0 24 24;" xml:space="preserve">
<style type="text/css">
	.st0{display:none;}
	.st1{display:inline;}
	.st2{fill:none;stroke:#000000;stroke-linecap:round;stroke-linejoin:round;stroke-miterlimit:10;}
	.st3{fill:none;stroke:#000000;stroke-linejoin:round;stroke-miterlimit:10;}
</style>
<g id="Filled_Icons" class="st0">
	<g class="st1">
		<path d="M22.5,23H12v-3h-1v3H0.5C0.2,23,0,23.2,0,23.5C0,23.8,0.2,24,0.5,24h21.9c0.3,0,0.5-0.2,0.5-0.5C23,23.2,22.7,23,22.5,23z
			"/>
		<g>
			<path d="M7.2,10H2.1c0.1,1.1,0.3,2.1,0.7,3h5C7.4,12,7.2,11,7.2,10z"/>
			<path d="M11.3,1c-0.9,1-1.5,2-2,3h4.4c-0.5-1-1.2-2-2.1-3H11.3z"/>
			<path d="M21,10h-5.1c-0.1,1-0.3,2-0.6,3h5C20.7,12.1,20.9,11.1,21,10z"/>
			<path d="M8.1,10c0.1,1,0.3,2,0.6,3h5.5c0.3-1,0.5-2,0.6-3H8.1z"/>
			<path d="M14.9,9c0-1.4-0.3-2.7-0.8-4H8.8C8.3,6.3,8.1,7.6,8.1,9H14.9z"/>
			<path d="M11.6,18c1-1.3,1.7-2.7,2.3-4H9.1c0.5,1.3,1.3,2.7,2.3,4L11.6,18z"/>
			<path d="M2,9h5.1c0-1.4,0.2-2.7,0.7-4H3.1C2.4,6.2,2.1,7.6,2,9z"/>
			<path d="M15.2,5c0.4,1.3,0.7,2.6,0.7,4H21c-0.1-1.4-0.5-2.8-1.1-4H15.2z"/>
			<path d="M15,14c-0.6,1.6-1.5,3.2-2.7,4.8L12.2,19c3.3-0.2,6.2-2.2,7.7-5L15,14L15,14z"/>
			<path d="M10.7,18.8C9.5,17.2,8.6,15.6,8,14H3.2c1.5,2.8,4.3,4.7,7.6,5L10.7,18.8z"/>
			<path d="M8.2,4c0.6-1.3,1.4-2.6,2.5-3.8L10.9,0C7.8,0.2,5.2,1.7,3.7,4H8.2z"/>
			<path d="M12.3,0.2c1.1,1.2,1.9,2.5,2.5,3.8h4.5c-1.6-2.3-4.2-3.8-7.1-4L12.3,0.2z"/>
		</g>
	</g>
</g>
<g id="Outline_Icons">
	<g>
		<line class="st2" x1="0.5" y1="23.5" x2="22.4" y2="23.5"/>
		<line class="st2" x1="11.5" y1="23.5" x2="11.5" y2="18.5"/>
		<g>
			<path class="st3" d="M20.5,9.5c0,5-4,9-9,9c-5,0-9-4.2-9-9.2c0-4.9,3.8-8.6,8.6-8.8c0.1,0,0.3,0,0.4,0
				C16.5,0.5,20.5,4.5,20.5,9.5z"/>
			<path class="st3" d="M11.1,0.5c-4.7,5.1-4.7,11.7,0,18"/>
			<path class="st3" d="M11.9,0.5c4.7,5.1,4.7,11.7,0,18"/>
			<line class="st3" x1="3.5" y1="13.5" x2="19.5" y2="13.5"/>
			<line class="st3" x1="4" y1="4.5" x2="19" y2="4.5"/>
			<line class="st3" x1="2.5" y1="9.5" x2="20.5" y2="9.5"/>
		</g>
	</g>
</g>
</svg>
