<?xml version="1.0" encoding="utf-8"?>
<!-- Generator: Adobe Illustrator 19.2.0, SVG Export Plug-In . SVG Version: 6.00 Build 0)  -->
<svg version="1.1" id="Layer_1" xmlns="http://www.w3.org/2000/svg" xmlns:xlink="http://www.w3.org/1999/xlink" x="0px" y="0px"
	 viewBox="0 0 24 24" style="enable-background:new 0 0 24 24;" xml:space="preserve">
<style type="text/css">
	.st0{display:none;}
	.st1{display:inline;}
	.st2{fill:none;stroke:#000000;stroke-linecap:round;stroke-linejoin:round;stroke-miterlimit:10;}
</style>
<g id="Filled_Icons" class="st0">
	<g class="st1">
		<path d="M23.3,10.7l-5-5c-0.3-0.3-0.8-0.3-1.1,0c-0.3,0.3-0.3,0.8,0,1.1l4.5,4.5l-4.5,4.5c-0.3,0.3-0.3,0.8,0,1.1
			c0.1,0.1,0.3,0.2,0.5,0.2c0.2,0,0.4-0.1,0.5-0.2l5-5C23.6,11.5,23.6,11,23.3,10.7z"/>
		<path d="M1.8,11.2l4.5-4.5c0.3-0.3,0.3-0.8,0-1.1C6,5.4,5.5,5.4,5.2,5.7l-5,5c-0.3,0.3-0.3,0.8,0,1.1l5,5C5.4,16.9,5.6,17,5.8,17
			c0.2,0,0.4-0.1,0.5-0.2c0.3-0.3,0.3-0.8,0-1.1L1.8,11.2z"/>
		<circle cx="11.8" cy="11.2" r="1.5"/>
		<circle cx="16.8" cy="11.2" r="1.5"/>
		<circle cx="6.8" cy="11.2" r="1.5"/>
	</g>
</g>
<g id="Outline_Icons">
	<g>
		<polyline class="st2" points="18.5,6.5 23.5,11.5 18.5,16.5 		"/>
		<polyline class="st2" points="5.5,6.5 0.5,11.5 5.5,16.5 		"/>
		<circle class="st2" cx="12" cy="11.5" r="1"/>
		<circle class="st2" cx="17" cy="11.5" r="1"/>
		<circle class="st2" cx="7" cy="11.5" r="1"/>
	</g>
</g>
</svg>
