<?xml version="1.0" encoding="utf-8"?>
<!-- Generator: Adobe Illustrator 19.2.0, SVG Export Plug-In . SVG Version: 6.00 Build 0)  -->
<svg version="1.1" id="Layer_1" xmlns="http://www.w3.org/2000/svg" xmlns:xlink="http://www.w3.org/1999/xlink" x="0px" y="0px"
	 viewBox="0 0 24 24" style="enable-background:new 0 0 24 24;" xml:space="preserve">
<style type="text/css">
	.st0{display:none;}
	.st1{display:inline;}
	.st2{fill:none;stroke:#000000;stroke-linecap:round;stroke-linejoin:round;stroke-miterlimit:10;}
	.st3{fill:none;stroke:#000000;stroke-linejoin:round;stroke-miterlimit:10;}
</style>
<g id="Filled_Icon" class="st0">
	<g class="st1">
		<g>
			<path d="M17.4,12c0,0.4,0,0.8-0.1,1.2c0.6-0.7,1.8-0.7,2.3,0c0.2,0.2,0.5,0.4,0.8,0.4c0.2,0,0.5-0.1,1.1-0.5
				c0.5-0.3,1.1-0.4,1.6-0.1c0.3,0.2,0.5,0.4,0.7,0.7c0.1-0.6,0.1-1.2,0.1-1.8h-6.5V12z"/>
			<path d="M17.5,11H24c-0.2-1.8-0.7-3.5-1.6-5h-5.9C17.1,7.6,17.4,9.3,17.5,11z"/>
			<path d="M16.5,11c0-1.7-0.4-3.4-1-5H8.3c-0.6,1.6-1,3.3-1,5H16.5z"/>
			<path d="M15,5c-0.7-1.4-1.6-2.8-2.8-4.1c-0.1-0.1-0.2-0.2-0.3-0.3c-0.1,0.1-0.2,0.2-0.3,0.3C10.4,2.2,9.5,3.6,8.8,5H15z"/>
			<path d="M13.3,21.3c-0.2-0.3-0.2-0.6-0.3-0.6c0-0.1-0.1-0.3-0.1-0.4V18H8.8c0.7,1.7,1.7,3.5,3,5.2l0.1,0.2l0.1-0.2
				C12.5,22.6,12.9,22,13.3,21.3z"/>
			<path d="M6.4,12H0c0,1.8,0.4,3.5,1.1,5h6.2C6.8,15.3,6.5,13.6,6.4,12z"/>
			<path d="M0.1,11h6.3c0-1.7,0.3-3.4,0.9-5H1.6C0.8,7.5,0.2,9.2,0.1,11z"/>
			<path d="M7.7,5c0.8-1.7,1.8-3.3,3.2-4.8L11,0.1C7.4,0.3,4.3,2.2,2.3,5H7.7z"/>
			<path d="M11,23.8c-1.4-1.9-2.5-3.9-3.3-5.8H1.6c1.9,3.3,5.4,5.7,9.5,6L11,23.8z"/>
			<path d="M12.9,0.2c1.4,1.5,2.4,3.1,3.2,4.8h5.6c-2-2.8-5.3-4.7-8.9-5C12.9,0.1,12.9,0.2,12.9,0.2z"/>
			<path d="M13.9,22.3c-0.3,0.5-0.7,1-1.1,1.5L12.7,24c0.9-0.1,1.7-0.2,2.6-0.4C14.7,23.1,14.2,22.7,13.9,22.3z"/>
			<path d="M13,14.4c0-0.6,0.3-1.1,0.8-1.3c0.5-0.3,1.1-0.2,1.6,0.1s0.8,0.4,1,0.5c0.1-0.5,0.1-1.1,0.2-1.6H7.3c0.1,1.6,0.4,3.3,1,5
				H13V14.4z"/>
		</g>
		<path d="M22.7,13.9c-0.2-0.1-0.4-0.1-0.5,0c-0.7,0.5-1.2,0.7-1.7,0.7c-0.6,0-1.2-0.3-1.6-0.8c-0.2-0.2-0.6-0.2-0.8,0
			c-0.4,0.5-1,0.8-1.6,0.8c-0.5,0-1.1-0.2-1.7-0.7c-0.2-0.1-0.4-0.1-0.5,0C14.1,14,14,14.2,14,14.4v5.9v0.1c0,0.1,0.7,2.4,4.3,3.4
			h0.1h0.1c3.6-1,4.3-3.3,4.3-3.4v-0.1v-5.9C23,14.2,22.9,14,22.7,13.9z M20.5,19H19v1.5c0,0.3-0.2,0.5-0.5,0.5S18,20.8,18,20.5V19
			h-1.5c-0.3,0-0.5-0.2-0.5-0.5s0.2-0.5,0.5-0.5H18v-1.5c0-0.3,0.2-0.5,0.5-0.5s0.5,0.2,0.5,0.5V18h1.5c0.3,0,0.5,0.2,0.5,0.5
			S20.8,19,20.5,19z"/>
	</g>
</g>
<g id="Outline_Icons">
	<g>
		<path class="st2" d="M20.5,15.1c-0.8,0-1.5-0.4-2-1l0,0c-0.5,0.6-1.2,1-2,1c-0.7,0-1.3-0.3-2-0.8v5.9c0,0,0.6,2.1,4,3.1
			c3.4-1,4-3.1,4-3.1v-5.9C21.8,14.9,21.2,15.1,20.5,15.1z"/>
		<line class="st2" x1="18.5" y1="20.5" x2="18.5" y2="16.5"/>
		<line class="st2" x1="16.5" y1="18.5" x2="20.5" y2="18.5"/>
		<g>
			<path class="st3" d="M12.4,0.5c3,3.2,4.5,7,4.5,10.9"/>
			<line class="st2" x1="1.9" y1="17.5" x2="11.9" y2="17.5"/>
			<line class="st3" x1="2.3" y1="5.5" x2="21.4" y2="5.5"/>
			<path class="st2" d="M11.2,0.5c-6,6.5-5.9,15,0.1,23h-0.5C5,22.9,0.4,17.8,0.4,11.8c0-6.2,4.9-11,11-11.2c0.2,0,0.3,0,0.5,0
				c6,0,11,4.6,11.5,10.5v0.5h-23"/>
		</g>
	</g>
</g>
</svg>
