<?xml version="1.0" encoding="utf-8"?>
<!-- Generator: Adobe Illustrator 19.2.0, SVG Export Plug-In . SVG Version: 6.00 Build 0)  -->
<svg version="1.1" id="Layer_1" xmlns="http://www.w3.org/2000/svg" xmlns:xlink="http://www.w3.org/1999/xlink" x="0px" y="0px"
	 viewBox="0 0 24 24" style="enable-background:new 0 0 24 24;" xml:space="preserve">
<style type="text/css">
	.st0{display:none;}
	.st1{display:inline;}
	.st2{fill:none;stroke:#000000;stroke-linejoin:round;stroke-miterlimit:10;}
	.st3{fill:none;stroke:#000000;stroke-linecap:round;stroke-linejoin:round;stroke-miterlimit:10;}
</style>
<g id="Filled_Icon" class="st0">
	<g class="st1">
		<g>
			<path d="M16.5,11c0-1.7-0.4-3.4-1-5H8.3c-0.6,1.6-1,3.3-1,5H16.5z"/>
			<path d="M17.3,13.4c0.6,0.2,1.2,0.5,1.7,0.9c0.7-0.7,1.7-1.1,2.6-1.1c0.8,0,1.6,0.3,2.2,0.9c0.1-0.7,0.2-1.4,0.2-2.1h-6.6
				C17.4,12.5,17.4,12.9,17.3,13.4z"/>
			<path d="M15,5c-0.7-1.4-1.6-2.8-2.8-4.1c-0.1-0.1-0.2-0.2-0.3-0.3c-0.1,0.1-0.2,0.2-0.3,0.3C10.4,2.2,9.5,3.6,8.8,5H15z"/>
			<path d="M6.4,12H0c0,1.8,0.4,3.5,1.1,5h6.2C6.8,15.3,6.5,13.6,6.4,12z"/>
			<path d="M17.5,11H24c-0.2-1.8-0.7-3.5-1.6-5h-5.9C17.1,7.6,17.4,9.3,17.5,11z"/>
			<path d="M13.8,20.5c-0.4-0.7-0.7-1.6-0.8-2.5H8.8c0.7,1.7,1.7,3.5,3,5.2l0.1,0.2l0.1-0.2C12.7,22.3,13.3,21.4,13.8,20.5z"/>
			<path d="M7.7,5c0.8-1.7,1.8-3.3,3.2-4.8L11,0.1C7.4,0.3,4.3,2.2,2.3,5H7.7z"/>
			<path d="M12.9,0.2c1.4,1.5,2.4,3.1,3.2,4.8h5.6c-2-2.8-5.3-4.7-8.9-5C12.9,0.1,12.9,0.2,12.9,0.2z"/>
			<path d="M11,23.8c-1.4-1.9-2.5-3.9-3.3-5.8H1.6c1.9,3.3,5.4,5.7,9.5,6L11,23.8z"/>
			<path d="M14.4,21.4c-0.5,0.8-1,1.6-1.6,2.4L12.7,24c1.2-0.1,2.3-0.3,3.4-0.7C15.6,22.7,15,22.1,14.4,21.4z"/>
			<path d="M16.4,13.3c0.1-0.4,0.1-0.9,0.1-1.3H7.3c0.1,1.6,0.4,3.3,1,5H13C13.1,14.5,14.8,13.3,16.4,13.3z"/>
			<path d="M0.1,11h6.3c0-1.7,0.3-3.4,0.9-5H1.6C0.8,7.5,0.2,9.2,0.1,11z"/>
		</g>
		<path d="M21.6,14.2c-0.9,0-1.9,0.5-2.6,1.6c-0.6-1-1.6-1.6-2.6-1.6c-1.2,0-2.4,0.9-2.4,3c0,4,4.6,6.6,4.8,6.7
			c0.1,0,0.2,0.1,0.2,0.1s0.2,0,0.2-0.1c0.2-0.1,4.8-2.7,4.8-6.9C24,15.1,22.8,14.2,21.6,14.2z"/>
	</g>
</g>
<g id="Outline_Icons">
	<g>
		<g>
			<path class="st2" d="M12.5,0.5c3,3.2,4.5,7,4.5,10.9"/>
			<line class="st3" x1="2" y1="17.5" x2="12" y2="17.5"/>
			<line class="st2" x1="2.4" y1="5.5" x2="21.5" y2="5.5"/>
			<path class="st3" d="M11.3,0.5c-6,6.5-5.9,15,0.1,23h-0.5C5,23,0.5,17.8,0.5,11.8c0-6.2,4.9-11,11-11.2c0.2,0,0.3,0,0.5,0
				c6,0,11,4.6,11.5,10.5v0.5h-23"/>
		</g>
		<path class="st2" d="M19,23.5c0,0,4.5-2.5,4.5-6.5c0-3-3.5-3-4.5,0c-1-3-4.5-3-4.5,0.2C14.5,21,19,23.5,19,23.5z"/>
	</g>
</g>
</svg>
