<?xml version="1.0" encoding="utf-8"?>
<!-- Generator: Adobe Illustrator 19.2.0, SVG Export Plug-In . SVG Version: 6.00 Build 0)  -->
<svg version="1.1" id="Layer_1" xmlns="http://www.w3.org/2000/svg" xmlns:xlink="http://www.w3.org/1999/xlink" x="0px" y="0px"
	 viewBox="0 0 24 24" style="enable-background:new 0 0 24 24;" xml:space="preserve">
<style type="text/css">
	.st0{display:none;}
	.st1{display:inline;}
	.st2{fill:none;stroke:#000000;stroke-linejoin:round;stroke-miterlimit:10;}
</style>
<g id="Filled_Icons" class="st0">
	<path class="st1" d="M22,12.5c-0.7,0-1.3,0.4-1.7,0.9l-2.7-1.1c0.2-0.5,0.4-1.1,0.4-1.8c0-1.1-0.4-2-1-2.8l4-4
		C21.3,3.9,21.6,4,22,4c1.1,0,2-0.9,2-2s-0.9-2-2-2c-1.1,0-2,0.9-2,2c0,0.4,0.1,0.7,0.3,1l-4,4c-0.8-0.6-1.7-1-2.8-1
		c-1.7,0-3.1,0.9-3.9,2.3L4,5.9c0-0.1,0-0.2,0-0.4c0-1.1-0.9-2-2-2c-1.1,0-2,0.9-2,2c0,1.1,0.9,2,2,2c0.6,0,1.2-0.3,1.5-0.7l5.7,2.4
		C9.1,9.6,9,10,9,10.5c0,1.1,0.4,2,1,2.8l-7,7C2.7,20.1,2.4,20,2,20c-1.1,0-2,0.9-2,2c0,1.1,0.9,2,2,2c1.1,0,2-0.9,2-2
		c0-0.4-0.1-0.7-0.3-1l7-7c0.6,0.5,1.4,0.9,2.3,1v5.1c-0.9,0.2-1.5,1-1.5,1.9c0,1.1,0.9,2,2,2c1.1,0,2-0.9,2-2
		c0-0.9-0.6-1.7-1.5-1.9V15c1.3-0.1,2.4-0.8,3.1-1.8l2.9,1.2c0,0.1,0,0.1,0,0.2c0,1.1,0.9,2,2,2c1.1,0,2-0.9,2-2
		C24,13.4,23.1,12.5,22,12.5z"/>
</g>
<g id="Outline_Icons">
	<g>
		<circle class="st2" cx="13.5" cy="10.5" r="4"/>
		<circle class="st2" cx="2" cy="5.5" r="1.5"/>
		<circle class="st2" cx="22" cy="2" r="1.5"/>
		<circle class="st2" cx="2" cy="22" r="1.5"/>
		<circle class="st2" cx="13.5" cy="22" r="1.5"/>
		<line class="st2" x1="3.1" y1="20.9" x2="10.7" y2="13.3"/>
		<line class="st2" x1="16.3" y1="7.7" x2="20.9" y2="3.1"/>
		<line class="st2" x1="3.4" y1="6.1" x2="9.8" y2="8.9"/>
		<line class="st2" x1="20.6" y1="14" x2="16.9" y2="12.5"/>
		<line class="st2" x1="13.5" y1="20.5" x2="13.5" y2="14.5"/>
		<circle class="st2" cx="22" cy="14.5" r="1.5"/>
	</g>
</g>
</svg>
