<?xml version="1.0" encoding="utf-8"?>
<!-- Generator: Adobe Illustrator 19.2.0, SVG Export Plug-In . SVG Version: 6.00 Build 0)  -->
<svg version="1.1" id="Layer_1" xmlns="http://www.w3.org/2000/svg" xmlns:xlink="http://www.w3.org/1999/xlink" x="0px" y="0px"
	 viewBox="0 0 24 24" style="enable-background:new 0 0 24 24;" xml:space="preserve">
<style type="text/css">
	.st0{display:none;}
	.st1{display:inline;}
	.st2{fill:none;stroke:#000000;stroke-linecap:round;stroke-linejoin:round;stroke-miterlimit:10;}
</style>
<g id="Filled_Icons" class="st0">
	<g class="st1">
		<path d="M9.1,8H13V7.5H0v1C0,9.3,0.6,10,1.4,10h4.8C6.7,8.8,7.8,8,9.1,8z"/>
		<path d="M13,1.5C13,0.7,12.4,0,11.6,0H1.4C0.6,0,0,0.7,0,1.5v5h13V1.5z"/>
		<path d="M5.5,11h-3C2.2,11,2,11.2,2,11.5C2,11.8,2.2,12,2.5,12h3C5.8,12,6,11.8,6,11.5C6,11.2,5.8,11,5.5,11z"/>
		<path d="M19.5,23h-8c-0.3,0-0.5,0.2-0.5,0.5c0,0.3,0.2,0.5,0.5,0.5h8c0.3,0,0.5-0.2,0.5-0.5C20,23.2,19.8,23,19.5,23z"/>
		<path d="M21.9,9H12H9.1C7.9,9,7,10,7,11.3V18h17v-6.7C24,10,23.1,9,21.9,9z"/>
		<path d="M7,19.7C7,21,7.9,22,9.1,22h12.8c1.2,0,2.1-1,2.1-2.3V19H7V19.7z M15.5,19.5c0.3,0,0.5,0.2,0.5,0.5c0,0.3-0.2,0.5-0.5,0.5
			c-0.3,0-0.5-0.2-0.5-0.5C15,19.7,15.2,19.5,15.5,19.5z"/>
	</g>
</g>
<g id="Outline_Icons">
	<g>
		<path class="st2" d="M5.5,9.5H1.4c-0.5,0-0.9-0.4-0.9-1v-7c0-0.6,0.4-1,0.9-1h10.2c0.5,0,0.9,0.4,0.9,1v6"/>
		<line class="st2" x1="2.5" y1="11.5" x2="5.5" y2="11.5"/>
		<line class="st2" x1="0.5" y1="7.5" x2="12.5" y2="7.5"/>
		<line class="st2" x1="15.5" y1="21.5" x2="15.5" y2="23.5"/>
		<line class="st2" x1="11.5" y1="23.5" x2="19.5" y2="23.5"/>
		<path class="st2" d="M23.5,19.7c0,1-0.7,1.8-1.6,1.8H9.1c-0.9,0-1.6-0.8-1.6-1.8v-8.4c0-1,0.7-1.8,1.6-1.8h12.8
			c0.9,0,1.6,0.8,1.6,1.8V19.7z"/>
		<line class="st2" x1="8" y1="18.5" x2="23.5" y2="18.5"/>
		<g>
			<g>
				<g>
					<path d="M15.5,19.5c-0.3,0-0.5,0.2-0.5,0.5c0,0.3,0.2,0.5,0.5,0.5c0.3,0,0.5-0.2,0.5-0.5C16,19.7,15.8,19.5,15.5,19.5
						L15.5,19.5z"/>
				</g>
			</g>
		</g>
	</g>
</g>
</svg>
