<?xml version="1.0" encoding="utf-8"?>
<!-- Generator: Adobe Illustrator 19.2.0, SVG Export Plug-In . SVG Version: 6.00 Build 0)  -->
<svg version="1.1" id="Layer_1" xmlns="http://www.w3.org/2000/svg" xmlns:xlink="http://www.w3.org/1999/xlink" x="0px" y="0px"
	 viewBox="0 0 24 24" style="enable-background:new 0 0 24 24;" xml:space="preserve">
<style type="text/css">
	.st0{display:none;}
	.st1{display:inline;}
	.st2{fill:none;stroke:#000000;stroke-linecap:round;stroke-linejoin:round;stroke-miterlimit:10;}
</style>
<g id="Filled_Icons" class="st0">
	<path class="st1" d="M22.5,16H19v-0.5c0-0.3-0.2-0.5-0.5-0.5H14v-4.5c0-0.3-0.2-0.5-0.5-0.5H13V5.5C13,5.2,12.8,5,12.5,5h-2
		C10.2,5,10,5.2,10,5.5V10H9.5C9.2,10,9,10.2,9,10.5V15H4.5C4.2,15,4,15.2,4,15.5V16H0.5C0.2,16,0,16.2,0,16.5v2
		C0,18.8,0.2,19,0.5,19H4v0.5C4,19.8,4.2,20,4.5,20h14c0.3,0,0.5-0.2,0.5-0.5V19h3.5c0.3,0,0.5-0.2,0.5-0.5v-2
		C23,16.2,22.8,16,22.5,16z M11,6h1v4h-1V6z M1,18v-1h3v1H1z M22,18h-3v-1h3V18z"/>
</g>
<g id="Outline_Icons">
	<g>
		<polygon class="st2" points="13.5,15.5 13.5,10.5 9.5,10.5 9.5,15.5 4.5,15.5 4.5,19.5 18.5,19.5 18.5,15.5 		"/>
		<rect x="18.5" y="16.5" class="st2" width="4" height="2"/>
		<rect x="0.5" y="16.5" class="st2" width="4" height="2"/>
		<rect x="10.5" y="5.5" class="st2" width="2" height="5"/>
	</g>
</g>
</svg>
