<?xml version="1.0" encoding="utf-8"?>
<!-- Generator: Adobe Illustrator 19.2.0, SVG Export Plug-In . SVG Version: 6.00 Build 0)  -->
<svg version="1.1" id="Layer_1" xmlns="http://www.w3.org/2000/svg" xmlns:xlink="http://www.w3.org/1999/xlink" x="0px" y="0px"
	 viewBox="0 0 24 24" style="enable-background:new 0 0 24 24;" xml:space="preserve">
<style type="text/css">
	.st0{display:none;}
	.st1{display:inline;}
	.st2{fill:none;stroke:#000000;stroke-linejoin:round;stroke-miterlimit:10;}
	.st3{fill:none;stroke:#000000;stroke-linecap:round;stroke-linejoin:round;stroke-miterlimit:10;}
</style>
<g id="Filled_Icon" class="st0">
	<g class="st1">
		<g>
			<path d="M23.7,14.6c0.2-0.8,0.3-1.7,0.3-2.6h-5.5C20.6,12,22.5,13,23.7,14.6z"/>
			<path d="M16.5,11c0-1.7-0.4-3.4-1-5H8.3c-0.6,1.6-1,3.3-1,5H16.5z"/>
			<path d="M6.4,12H0c0,1.8,0.4,3.5,1.1,5h6.2C6.8,15.3,6.5,13.6,6.4,12z"/>
			<path d="M13,21.9c-0.6-1-1-2.2-1-3.4c0-0.2,0-0.3,0-0.5H8.8c0.7,1.7,1.7,3.5,3,5.2l0.1,0.2l0.1-0.2C12.4,22.8,12.7,22.3,13,21.9z
				"/>
			<path d="M17.5,11H24c-0.2-1.8-0.7-3.5-1.6-5h-5.9C17.1,7.6,17.4,9.3,17.5,11z"/>
			<path d="M15,5c-0.7-1.4-1.6-2.8-2.8-4.1c-0.1-0.1-0.2-0.2-0.3-0.3c-0.1,0.1-0.2,0.2-0.3,0.3C10.4,2.2,9.5,3.6,8.8,5H15z"/>
			<path d="M7.7,5c0.8-1.7,1.8-3.3,3.2-4.8L11,0.1C7.4,0.3,4.3,2.2,2.3,5H7.7z"/>
			<path d="M11,23.8c-1.4-1.9-2.5-3.9-3.3-5.8H1.6c1.9,3.3,5.4,5.7,9.5,6L11,23.8z"/>
			<path d="M0.1,11h6.3c0-1.7,0.3-3.4,0.9-5H1.6C0.8,7.5,0.2,9.2,0.1,11z"/>
			<path d="M12.9,0.2c1.4,1.5,2.4,3.1,3.2,4.8h5.6c-2-2.8-5.3-4.7-8.9-5C12.9,0.1,12.9,0.2,12.9,0.2z"/>
			<path d="M16.5,12.3c0-0.1,0-0.2,0-0.3H7.3c0.1,1.6,0.4,3.3,1,5h3.8C12.7,14.8,14.3,13,16.5,12.3z"/>
			<path d="M13.6,22.7c-0.2,0.4-0.5,0.7-0.7,1.1L12.7,24c0.6,0,1.3-0.1,1.9-0.3C14.2,23.4,13.9,23.1,13.6,22.7z"/>
		</g>
		<path d="M18.5,13c-3,0-5.5,2.5-5.5,5.5s2.5,5.5,5.5,5.5s5.5-2.5,5.5-5.5S21.5,13,18.5,13z M19,21.5c0,0.3-0.2,0.5-0.5,0.5
			S18,21.8,18,21.5v-4c0-0.3,0.2-0.5,0.5-0.5s0.5,0.2,0.5,0.5V21.5z M18.5,16c-0.3,0-0.5-0.2-0.5-0.5s0.2-0.5,0.5-0.5
			s0.5,0.2,0.5,0.5S18.8,16,18.5,16z"/>
	</g>
</g>
<g id="Outline_Icons">
	<g>
		<g>
			<circle class="st2" cx="18.5" cy="18.5" r="5"/>
			<line class="st3" x1="18.5" y1="17.5" x2="18.5" y2="21.5"/>
			<g>
				<g>
					<path d="M18.5,15c-0.3,0-0.5,0.2-0.5,0.5s0.2,0.5,0.5,0.5s0.5-0.2,0.5-0.5S18.8,15,18.5,15L18.5,15z"/>
				</g>
			</g>
		</g>
		<g>
			<path class="st2" d="M12.6,0.5c3,3.2,4.5,7,4.5,10.9"/>
			<line class="st3" x1="2.1" y1="17.5" x2="12.1" y2="17.5"/>
			<line class="st2" x1="2.5" y1="5.5" x2="21.6" y2="5.5"/>
			<path class="st3" d="M11.4,0.5c-6,6.5-5.9,15,0.1,23H11C5.1,23,0.6,17.8,0.6,11.8c0-6.2,4.9-11,11-11.2c0.2,0,0.3,0,0.5,0
				c6,0,11,4.6,11.5,10.5v0.5h-23"/>
		</g>
	</g>
</g>
</svg>
