<?xml version="1.0" encoding="utf-8"?>
<!-- Generator: Adobe Illustrator 19.2.0, SVG Export Plug-In . SVG Version: 6.00 Build 0)  -->
<svg version="1.1" id="Layer_1" xmlns="http://www.w3.org/2000/svg" xmlns:xlink="http://www.w3.org/1999/xlink" x="0px" y="0px"
	 viewBox="0 0 24 24" style="enable-background:new 0 0 24 24;" xml:space="preserve">
<style type="text/css">
	.st0{display:none;}
	.st1{display:inline;}
	.st2{fill:none;stroke:#000000;stroke-linejoin:round;stroke-miterlimit:10;}
</style>
<g id="Filled_Icon" class="st0">
	<g class="st1">
		<path d="M21,9.3c0.6,0.3,1,0.9,1.2,1.5c0.4-0.1,0.8-0.2,1.2-0.3c0,0,0.2-0.1,0.5-0.2c-0.3-1.9-1-3.6-2-5.1c0,0.1,0,0.1,0,0.2
			C21.6,6.7,21.3,8,21,9.3z"/>
		<path d="M3.1,4c0.2,0.2,0.3,0.4,0.4,0.4C4.7,6.1,5.5,8,5.9,10c1.3,0.1,2.3,1.2,2.3,2.5c0,0.2,0,0.5-0.1,0.7c1.2,0.8,2.4,1.9,3,2.5
			c0.3-0.1,0.6-0.2,0.9-0.2c1,0,1.7,0.7,1.9,1.6c0.2,0,0.3,0,0.5,0c0-1.1,0.9-1.9,2-1.9c0.3,0,0.5,0.1,0.7,0.1
			c0.4-0.6,0.7-1.2,1-1.8c-0.5-0.4-0.9-1-0.9-1.7c-2.6-0.6-4.9-2.1-6.6-4.2c-0.3,0-0.6,0-0.9,0c-1.3,0-2.4-1.1-2.5-2.4l0,0
			C6.1,4.9,5,4.4,4,3.8c0,0-0.2-0.1-0.5-0.3C3.4,3.7,3.2,3.9,3.1,4z"/>
		<path d="M12.7,19.3c-0.2,0.1-0.4,0.1-0.7,0.1c-0.9,0-1.7-0.6-1.9-1.5c-1.3-0.1-2.6-0.2-4-0.4c-0.2,0.5-0.8,0.9-1.4,0.9H4.6
			c-0.3,0.5-0.6,1-0.9,1.4c0,0-0.1,0.2-0.4,0.5c1.3,1.3,2.9,2.4,4.7,3c0.3-0.2,0.6-0.4,0.8-0.5c1.5-0.8,2.9-1.8,4.1-3
			C12.9,19.7,12.8,19.5,12.7,19.3z"/>
		<path d="M23.5,15.4c0.3-1.1,0.5-2.2,0.5-3.4c0-0.2,0-0.5,0-0.7c-0.2,0.1-0.3,0.1-0.3,0.1c-0.5,0.2-1,0.3-1.5,0.4
			C22,13,21,13.9,19.7,13.9c-0.2,0-0.4,0-0.6-0.1c-0.3,0.6-0.7,1.3-1.1,1.9c0.2,0.2,0.3,0.5,0.4,0.8c1.4-0.2,2.7-0.5,4.1-0.9
			C22.8,15.6,23.1,15.5,23.5,15.4z"/>
		<path d="M4.6,3c0.9,0.5,1.8,1,2.8,1.2C7.6,3.7,8,3.3,8.4,3C8.2,2.4,8.1,1.7,8,1.1C8,1,8,0.8,8,0.7C6.6,1.2,5.4,1.9,4.3,2.8
			C4.4,2.9,4.5,2.9,4.6,3z"/>
		<path d="M5.9,14.9c-0.1,0.4-0.1,0.7-0.2,0.9C5.9,16,6,16.3,6.1,16.6C7.4,16.8,8.7,17,10,17c0.1-0.2,0.2-0.5,0.3-0.7
			c-0.8-0.8-1.8-1.6-2.7-2.3C7.2,14.5,6.6,14.9,5.9,14.9z"/>
		<path d="M11.4,6.9c1.5,1.9,3.6,3.2,5.9,3.8c0.3-1,1.3-1.7,2.4-1.7c0.1,0,0.2,0,0.3,0c0.4-1.2,0.6-2.5,0.8-3.8
			c0-0.3,0.1-0.8,0.1-1.2c-0.6-0.7-1.3-1.3-2-1.8c-0.2,0.2-0.4,0.4-0.4,0.4c-1.8,1.6-4,2.6-6.3,2.9C12.1,6.1,11.8,6.5,11.4,6.9z"/>
		<path d="M9,1c0.1,0.6,0.2,1.1,0.3,1.7c0.1,0,0.2,0,0.4,0c1.2,0,2.1,0.8,2.4,1.9c2.1-0.3,4-1.3,5.6-2.7c0.1-0.1,0.2-0.1,0.2-0.2
			c-1.8-1-3.8-1.6-6-1.6c-1,0-2,0.1-3,0.4C9,0.6,9,0.8,9,1z"/>
		<path d="M14.7,23.2c-0.2-0.7-0.6-1.5-1.1-2.4c-1.3,1.1-2.6,2.1-4.1,2.9l0,0c0.8,0.2,1.7,0.3,2.6,0.3c1,0,1.9-0.1,2.8-0.4
			C14.7,23.4,14.7,23.2,14.7,23.2z"/>
		<path d="M22.7,16.7c-1.5,0.4-2.9,0.7-4.4,0.9c-0.2,0.8-1,1.5-1.9,1.5c-0.3,0-0.6-0.1-0.9-0.2c-0.4,0.4-0.8,0.9-1.2,1.3
			c0.6,1.1,1,2,1.3,2.8c0,0,0.1,0.2,0.2,0.5c3.3-1.1,6-3.6,7.3-6.8C22.9,16.6,22.8,16.6,22.7,16.7z"/>
		<path d="M0.6,10.3c1,0.1,2,0.4,3,0.7c0.3-0.5,0.7-0.8,1.3-1C4.5,8.2,3.8,6.5,2.6,5c0,0-0.1-0.1-0.2-0.3c-1.2,1.6-2,3.4-2.3,5.4
			C0.3,10.3,0.5,10.3,0.6,10.3z"/>
		<path d="M0.4,15.2c0.5,0.2,0.9,0.3,0.9,0.3C2,15.7,2.8,15.9,3.5,16l0,0c0.3-0.3,0.7-0.5,1.1-0.5l0,0c0.1-0.2,0.1-0.5,0.2-0.7
			c-1-0.3-1.7-1.3-1.7-2.4c0-0.2,0-0.3,0-0.5c-0.9-0.3-1.8-0.5-2.8-0.7c-0.1,0-0.3,0-0.5-0.1c0,0.3,0,0.5,0,0.8
			C0,13.1,0.2,14.1,0.4,15.2z"/>
		<path d="M14.7,18c-0.2,0-0.5,0-0.8,0c-0.1,0.3-0.2,0.5-0.4,0.7c0.1,0.2,0.2,0.3,0.3,0.5c0.3-0.3,0.7-0.7,1-1
			C14.7,18.1,14.7,18,14.7,18z"/>
		<path d="M2.9,19.3c0.3-0.4,0.5-0.8,0.8-1.2c-0.3-0.3-0.5-0.7-0.5-1.1l0,0c-0.7-0.2-1.5-0.3-2.1-0.5c0,0-0.1,0-0.3-0.1
			c0.5,1.2,1.1,2.2,1.9,3.2C2.8,19.4,2.9,19.3,2.9,19.3z"/>
	</g>
</g>
<g id="Outline_Icons">
	<g>
		<circle class="st2" cx="12" cy="12" r="11.5"/>
		<path class="st2" d="M9,3.2C8.8,2.5,8.6,1.8,8.5,1"/>
		<path class="st2" d="M17.7,11.3c-2.9-0.6-5.3-2.2-7-4.5"/>
		<path class="st2" d="M23.5,10.9c-0.6,0.2-1.1,0.3-1.8,0.4"/>
		<path class="st2" d="M15.5,18.2c-1.8,2.1-3.9,3.8-6.3,5.1"/>
		<path class="st2" d="M18.8,13.2c-0.4,0.9-0.9,1.8-1.5,2.6"/>
		<path class="st2" d="M21.3,5.2c-0.2,1.5-0.5,2.9-0.9,4.3"/>
		<path class="st2" d="M3.8,16.6C3,16.4,2,16.2,1.3,16"/>
		<path class="st2" d="M10.5,17.5c-1.7-0.1-3.2-0.2-4.7-0.5"/>
		<path class="st2" d="M15,17.4c-0.5,0-1,0.1-1.5,0.1"/>
		<path class="st2" d="M22.6,16.2c-1.6,0.4-3.1,0.7-4.7,1"/>
		<path class="st2" d="M7.6,4.8c-0.1,0-0.2-0.1-0.3-0.1C6.2,4.4,5.2,4,4.3,3.4"/>
		<path class="st2" d="M18.1,2.2c-1.8,1.5-4,2.6-6.4,2.8"/>
		<path class="st2" d="M12.9,18.7c0.8,1.3,1.8,2.9,2.3,4.4"/>
		<path class="st2" d="M7.5,13.4c1.2,0.7,2.5,1.9,3.5,2.9"/>
		<path class="st2" d="M0.6,10.8c1.2,0.2,2.2,0.4,3.3,0.8"/>
		<path class="st2" d="M4.3,17.9c-0.3,0.5-0.7,1.2-1,1.6"/>
		<path class="st2" d="M5.5,14.4c-0.1,0.5-0.2,1.1-0.4,1.6"/>
		<path class="st2" d="M3,4.8c1.3,1.6,2.1,3.5,2.5,5.6"/>
		<circle class="st2" cx="9.7" cy="5.1" r="2"/>
		<circle class="st2" cx="5.7" cy="12.4" r="2"/>
		<circle class="st2" cx="4.7" cy="17" r="1"/>
		<circle class="st2" cx="12" cy="17.4" r="1.5"/>
		<circle class="st2" cx="16.4" cy="17" r="1.5"/>
		<circle class="st2" cx="19.7" cy="11.4" r="2"/>
	</g>
</g>
</svg>
