<?xml version="1.0" encoding="utf-8"?>
<!-- Generator: Adobe Illustrator 19.2.0, SVG Export Plug-In . SVG Version: 6.00 Build 0)  -->
<svg version="1.1" id="Layer_1" xmlns="http://www.w3.org/2000/svg" xmlns:xlink="http://www.w3.org/1999/xlink" x="0px" y="0px"
	 viewBox="0 0 24 24" style="enable-background:new 0 0 24 24;" xml:space="preserve">
<style type="text/css">
	.st0{display:none;}
	.st1{display:inline;}
	.st2{fill:none;stroke:#000000;stroke-linejoin:round;stroke-miterlimit:10;}
	.st3{fill:none;stroke:#000000;stroke-linecap:round;stroke-linejoin:round;stroke-miterlimit:10;}
</style>
<g id="Filled_Icon" class="st0">
	<g class="st1">
		<g>
			<path d="M20.6,12h-3.1c0,0.5-0.1,1-0.1,1.5L20.6,12z"/>
			<path d="M16.5,11c0-1.7-0.4-3.4-1-5H8.3c-0.6,1.6-1,3.3-1,5H16.5z"/>
			<path d="M17.5,11H24c-0.2-1.8-0.7-3.5-1.6-5h-5.9C17.1,7.6,17.4,9.3,17.5,11z"/>
			<path d="M6.4,12H0c0,1.8,0.4,3.5,1.1,5h6.2C6.8,15.3,6.5,13.6,6.4,12z"/>
			<path d="M15,5c-0.7-1.4-1.6-2.8-2.8-4.1c-0.1-0.1-0.2-0.2-0.3-0.3c-0.1,0.1-0.2,0.2-0.3,0.3C10.4,2.2,9.5,3.6,8.8,5H15z"/>
			<path d="M5.5,21.4c0.3-0.7,1.1-1.1,1.8-0.9c0,0,0.7,0.2,1.7,0.2c-0.5-0.9-0.9-1.8-1.3-2.7H1.6c0.9,1.6,2.2,3,3.8,4
				C5.4,21.8,5.4,21.6,5.5,21.4z"/>
			<path d="M7.7,5c0.8-1.7,1.8-3.3,3.2-4.8L11,0.1C7.4,0.3,4.3,2.2,2.3,5H7.7z"/>
			<path d="M0.1,11h6.3c0-1.7,0.3-3.4,0.9-5H1.6C0.8,7.5,0.2,9.2,0.1,11z"/>
			<path d="M12.9,0.2c1.4,1.5,2.4,3.1,3.2,4.8h5.6c-2-2.8-5.3-4.7-8.9-5C12.9,0.1,12.9,0.2,12.9,0.2z"/>
			<path d="M15.5,16.8c-0.4-0.3-0.7-0.8-0.7-1.3c0-0.6,0.4-1.1,0.9-1.3l0.5-0.2c0.1-0.6,0.2-1.3,0.2-1.9H7.3c0.1,1.6,0.4,3.3,1,5
				h7.1C15.5,16.9,15.5,16.9,15.5,16.8z"/>
			<path d="M14.9,18.4c0.1-0.1,0.1-0.3,0.2-0.4H8.8c0.4,0.9,0.8,1.8,1.3,2.6C11.6,20.5,13.4,19.9,14.9,18.4z"/>
		</g>
		<path d="M22.7,12.8c0-0.1-0.1-0.3-0.3-0.3c-0.1-0.1-0.3-0.1-0.4,0l-5.8,2.6c-0.2,0.1-0.3,0.3-0.3,0.4c0,0.2,0.1,0.4,0.3,0.5
			l1.3,0.7c-2.3,4.1-5.7,5-8.3,5c-1.3,0-2.2-0.2-2.2-0.2c-0.2-0.1-0.5,0.1-0.6,0.3c-0.1,0.2,0,0.5,0.2,0.6c0.1,0.1,3.1,1.6,6.7,1.6
			c3.7,0,6.7-1.7,8.5-5l1.3,0.7c0.2,0.1,0.4,0.1,0.5,0c0.2-0.1,0.2-0.3,0.2-0.5L22.7,12.8z"/>
	</g>
</g>
<g id="Outline_Icons">
	<g>
		<path class="st2" d="M16.4,15.5c0,0,0.4,0.2,1.8,0.9C14.3,24,6.9,21.9,6.9,21.9s10.2,5.2,14.8-3.7c0.4,0.2,1.8,0.9,1.8,0.9
			l-1.3-6.3L16.4,15.5z"/>
		<g>
			<path class="st3" d="M5,21c-2.7-2.2-4.5-5.6-4.5-9.3c0-6.2,4.9-11,11-11.2c0.2,0,0.3,0,0.5,0c5.7,0,10.4,4,11.3,9.4"/>
			<path class="st3" d="M11.5,0.5c-5,5.4-5.8,12.2-2.5,19"/>
			<path class="st3" d="M12.5,0.5c3.4,3.7,4.9,7.9,4.4,12.4"/>
			<line class="st3" x1="2" y1="17.5" x2="14" y2="17.5"/>
			<line class="st2" x1="2.4" y1="5.5" x2="21.5" y2="5.5"/>
			<line class="st3" x1="0.5" y1="11.5" x2="20" y2="11.5"/>
		</g>
	</g>
</g>
</svg>
