<?xml version="1.0" encoding="utf-8"?>
<!-- Generator: Adobe Illustrator 19.2.0, SVG Export Plug-In . SVG Version: 6.00 Build 0)  -->
<svg version="1.1" id="Layer_1" xmlns="http://www.w3.org/2000/svg" xmlns:xlink="http://www.w3.org/1999/xlink" x="0px" y="0px"
	 viewBox="0 0 24 24" style="enable-background:new 0 0 24 24;" xml:space="preserve">
<style type="text/css">
	.st0{display:none;}
	.st1{display:inline;}
	.st2{fill:none;stroke:#000000;stroke-linecap:round;stroke-linejoin:round;stroke-miterlimit:10;}
</style>
<g id="Filled_Icons" class="st0">
	<path class="st1" d="M22.5,10H19V9.5C19,9.2,18.8,9,18.5,9H14V4.5C14,4.2,13.8,4,13.5,4H13V0.5C13,0.2,12.8,0,12.5,0h-2
		C10.2,0,10,0.2,10,0.5V4H9.5C9.2,4,9,4.2,9,4.5V9H4.5C4.2,9,4,9.2,4,9.5V10H0.5C0.2,10,0,10.2,0,10.5v2C0,12.8,0.2,13,0.5,13H4v0.5
		C4,13.8,4.2,14,4.5,14H9v4.5C9,18.8,9.2,19,9.5,19H10v3.5c0,0.3,0.2,0.5,0.5,0.5h2c0.3,0,0.5-0.2,0.5-0.5V19h0.5
		c0.3,0,0.5-0.2,0.5-0.5V14h4.5c0.3,0,0.5-0.2,0.5-0.5V13h3.5c0.3,0,0.5-0.2,0.5-0.5v-2C23,10.2,22.8,10,22.5,10z M11,1h1v3h-1V1z
		 M1,12v-1h3v1H1z M12,22h-1v-3h1V22z M22,12h-3v-1h3V12z"/>
</g>
<g id="Outline_Icons">
	<g>
		<rect x="18.5" y="10.5" class="st2" width="4" height="2"/>
		<rect x="0.5" y="10.5" class="st2" width="4" height="2"/>
		<rect x="10.5" y="0.5" class="st2" width="2" height="4"/>
		<rect x="10.5" y="18.5" class="st2" width="2" height="4"/>
		<polygon class="st2" points="13.5,9.5 13.5,4.5 9.5,4.5 9.5,9.5 4.5,9.5 4.5,13.5 9.5,13.5 9.5,18.5 13.5,18.5 13.5,13.5 
			18.5,13.5 18.5,9.5 		"/>
	</g>
</g>
</svg>
