<?xml version="1.0" encoding="utf-8"?>
<!-- Generator: Adobe Illustrator 19.2.0, SVG Export Plug-In . SVG Version: 6.00 Build 0)  -->
<svg version="1.1" id="Layer_1" xmlns="http://www.w3.org/2000/svg" xmlns:xlink="http://www.w3.org/1999/xlink" x="0px" y="0px"
	 viewBox="0 0 24 24" style="enable-background:new 0 0 24 24;" xml:space="preserve">
<style type="text/css">
	.st0{display:none;}
	.st1{display:inline;}
	.st2{fill:none;stroke:#000000;stroke-linejoin:round;stroke-miterlimit:10;}
</style>
<g id="Filled_Icons" class="st0">
	<g class="st1">
		<circle cx="18" cy="3" r="3"/>
		<g>
			<path d="M7.5,6c0.8-2.1,2-4,3.6-5.8L11.3,0C7,0.3,3.4,2.6,1.5,6H7.5z"/>
			<path d="M6.6,12H0c0,1.8,0.4,3.5,1.2,5h6.3C6.9,15.3,6.6,13.6,6.6,12z"/>
			<path d="M12.7,0l-0.8,0.8C10.4,2.5,9.3,4.2,8.5,6H13v1H8.2c-0.4,1.3-0.6,2.6-0.7,4H13v1H7.5c0.1,1.6,0.4,3.3,1,5H13v1H8.9
				c0.7,1.7,1.7,3.5,3,5.2l0.8,0.8l0.3,0V0L12.7,0z"/>
			<path d="M11.1,23.8C9.7,21.9,8.6,20,7.8,18H1.7c2,3.4,5.5,5.7,9.6,6L11.1,23.8z"/>
			<path d="M1,7c-0.5,1.2-0.9,2.6-1,4h6.5c0-1.4,0.2-2.7,0.6-4H1z"/>
		</g>
		<g>
			<path d="M23.6,7.5l-3.5-1c-0.2-0.1-0.5,0-0.6,0.3L18,9.9l-1.6-3.1c-0.1-0.2-0.4-0.3-0.6-0.3L14,7.1V16h0l1,7.6
				c0,0.2,0.2,0.4,0.5,0.4h5c0.3,0,0.5-0.2,0.5-0.4l1-7.6h1.5c0.3,0,0.5-0.2,0.5-0.5V8C24,7.8,23.9,7.6,23.6,7.5z"/>
		</g>
	</g>
</g>
<g id="Outline_Icons">
	<g>
		<g>
			<circle class="st2" cx="18" cy="3" r="2.5"/>
			<polygon class="st2" points="18,23.5 20.5,23.5 21.5,15.5 23.5,15.5 23.5,8 20,7 18,11 16,7 12.5,8 12.5,15.5 14.5,15.5 
				15.5,23.5 			"/>
		</g>
		<path class="st2" d="M11.5,23.5c-6-8-6-16.5,0-23"/>
		<line class="st2" x1="2" y1="17.5" x2="12.5" y2="17.5"/>
		<line class="st2" x1="1.8" y1="6.5" x2="12.5" y2="6.5"/>
		<line class="st2" x1="0.6" y1="11.5" x2="12.5" y2="11.5"/>
		<path class="st2" d="M12.5,0.5c-0.2,0-0.3,0-0.5,0C5.6,0.5,0.5,5.4,0.5,11.7c0,6.4,5.1,11.8,11.5,11.8c0.2,0,0.4,0,0.5,0V0.5z"/>
	</g>
</g>
</svg>
