<?xml version="1.0" encoding="utf-8"?>
<!-- Generator: Adobe Illustrator 19.2.0, SVG Export Plug-In . SVG Version: 6.00 Build 0)  -->
<svg version="1.1" id="Outline_Icons" xmlns="http://www.w3.org/2000/svg" xmlns:xlink="http://www.w3.org/1999/xlink" x="0px"
	 y="0px" viewBox="0 0 24 24" style="enable-background:new 0 0 24 24;" xml:space="preserve">
<style type="text/css">
	.st0{fill:none;stroke:#000000;stroke-linejoin:round;stroke-miterlimit:10;}
	.st1{fill:none;stroke:#000000;stroke-linecap:round;stroke-linejoin:round;stroke-miterlimit:10;}
</style>
<g>
	<polygon class="st0" points="18.5,13.5 20,16.5 23.5,16.5 20.5,19.5 22.5,23.5 18.5,21 14.5,23.5 16.5,19.5 13.5,16.5 17,16.5 	"/>
	<g>
		<path class="st0" d="M12.6,0.5c3,3.2,4.5,7,4.5,10.9"/>
		<line class="st1" x1="2.1" y1="17.5" x2="12.1" y2="17.5"/>
		<line class="st0" x1="2.5" y1="5.5" x2="21.6" y2="5.5"/>
		<path class="st1" d="M11.4,0.5c-6,6.5-5.9,15,0.1,23H11C5.1,23,0.6,17.8,0.6,11.8c0-6.2,4.9-11,11-11.2c0.2,0,0.3,0,0.5,0
			c6,0,11,4.6,11.5,10.5v0.5h-23"/>
	</g>
</g>
</svg>
