<?xml version="1.0" encoding="utf-8"?>
<!-- Generator: Adobe Illustrator 19.2.0, SVG Export Plug-In . SVG Version: 6.00 Build 0)  -->
<svg version="1.1" id="Layer_1" xmlns="http://www.w3.org/2000/svg" xmlns:xlink="http://www.w3.org/1999/xlink" x="0px" y="0px"
	 viewBox="0 0 24 24" style="enable-background:new 0 0 24 24;" xml:space="preserve">
<style type="text/css">
	.st0{display:none;}
	.st1{display:inline;}
	.st2{fill:none;stroke:#000000;stroke-linecap:round;stroke-linejoin:round;stroke-miterlimit:10;}
</style>
<g id="Filled_Icon" class="st0">
	<g class="st1">
		<path d="M23,18h-3v-3c0-0.6-0.4-1-1-1c-0.6,0-1,0.4-1,1v3h-3c-0.6,0-1,0.4-1,1c0,0.6,0.4,1,1,1h3v3c0,0.6,0.4,1,1,1
			c0.6,0,1-0.4,1-1v-3h3c0.6,0,1-0.4,1-1C24,18.4,23.6,18,23,18z"/>
		<path d="M11.3,17.9C10.9,18,10.5,18,10,18c-4.4,0-8-3.6-8-8c0-4.4,3.6-8,8-8c4.4,0,8,3.6,8,8c0,0.4,0,0.9-0.1,1.3
			c-0.1,0.5,0.3,1.1,0.8,1.2c0.5,0.1,1.1-0.3,1.2-0.8C20,11.1,20,10.6,20,10c0-5.5-4.5-10-10-10C4.5,0,0,4.5,0,10
			c0,5.5,4.5,10,10,10c0.6,0,1.1,0,1.7-0.1c0.5-0.1,0.9-0.6,0.8-1.2C12.4,18.2,11.9,17.8,11.3,17.9z"/>
	</g>
</g>
<g id="Outline_Icons">
	<g>
		<line class="st2" x1="19.5" y1="15.5" x2="19.5" y2="23.5"/>
		<line class="st2" x1="23.5" y1="19.5" x2="15.5" y2="19.5"/>
		<path class="st2" d="M13.3,17.6c-1.2,0.5-2.5,0.9-3.8,0.9c-5,0-9-4-9-9c0-5,4-9,9-9c5,0,9,4,9,9c0,1.4-0.3,2.6-0.8,3.8"/>
	</g>
</g>
</svg>
