<?xml version="1.0" encoding="utf-8"?>
<!-- Generator: Adobe Illustrator 19.2.0, SVG Export Plug-In . SVG Version: 6.00 Build 0)  -->
<svg version="1.1" id="Layer_1" xmlns="http://www.w3.org/2000/svg" xmlns:xlink="http://www.w3.org/1999/xlink" x="0px" y="0px"
	 viewBox="0 0 24 24" style="enable-background:new 0 0 24 24;" xml:space="preserve">
<style type="text/css">
	.st0{display:none;}
	.st1{display:inline;}
	.st2{fill:none;stroke:#000000;stroke-linecap:round;stroke-linejoin:round;stroke-miterlimit:10;}
</style>
<g id="Filled_Icon" class="st0">
	<g class="st1">
		<path d="M12,18H2V2h16v10c0,0.6,0.4,1,1,1c0.6,0,1-0.4,1-1V1c0-0.6-0.4-1-1-1H1C0.4,0,0,0.4,0,1v18c0,0.6,0.4,1,1,1h11
			c0.6,0,1-0.4,1-1C13,18.4,12.6,18,12,18z"/>
		<path d="M23,18h-3v-3c0-0.6-0.4-1-1-1c-0.6,0-1,0.4-1,1v3h-3c-0.6,0-1,0.4-1,1c0,0.6,0.4,1,1,1h3v3c0,0.6,0.4,1,1,1
			c0.6,0,1-0.4,1-1v-3h3c0.6,0,1-0.4,1-1C24,18.4,23.6,18,23,18z"/>
	</g>
</g>
<g id="Outline_Icons">
	<g>
		<polyline class="st2" points="12.5,19.5 0.5,19.5 0.5,0.5 19.5,0.5 19.5,12.5 		"/>
		<line class="st2" x1="19.5" y1="15.5" x2="19.5" y2="23.5"/>
		<line class="st2" x1="23.5" y1="19.5" x2="15.5" y2="19.5"/>
	</g>
</g>
</svg>
