<?xml version="1.0" encoding="utf-8"?>
<!-- Generator: Adobe Illustrator 19.2.0, SVG Export Plug-In . SVG Version: 6.00 Build 0)  -->
<svg version="1.1" id="Layer_1" xmlns="http://www.w3.org/2000/svg" xmlns:xlink="http://www.w3.org/1999/xlink" x="0px" y="0px"
	 viewBox="0 0 24 24" style="enable-background:new 0 0 24 24;" xml:space="preserve">
<style type="text/css">
	.st0{display:none;}
	.st1{display:inline;}
	.st2{fill:none;stroke:#000000;stroke-linecap:round;stroke-linejoin:round;stroke-miterlimit:10;}
</style>
<g id="Filled_Icons" class="st0">
	<path class="st1" d="M23.5,0h-23C0.2,0,0,0.2,0,0.5v23C0,23.8,0.2,24,0.5,24h16c0.1,0,0.3-0.1,0.4-0.1l7-7c0.1-0.1,0.1-0.2,0.1-0.4
		v-16C24,0.2,23.8,0,23.5,0z M16.5,23.5v-7h7L16.5,23.5z"/>
</g>
<g id="Outline_Icons">
	<g>
		<polygon class="st2" points="16.5,23.5 0.5,23.5 0.5,0.5 23.5,0.5 23.5,16.5 		"/>
		<polyline class="st2" points="16.5,23.5 16.5,16.5 23.5,16.5 		"/>
	</g>
</g>
</svg>
