<?xml version="1.0" encoding="utf-8"?>
<!-- Generator: Adobe Illustrator 19.2.0, SVG Export Plug-In . SVG Version: 6.00 Build 0)  -->
<svg version="1.1" id="Outline_Icons" xmlns="http://www.w3.org/2000/svg" xmlns:xlink="http://www.w3.org/1999/xlink" x="0px"
	 y="0px" viewBox="0 0 24 24" style="enable-background:new 0 0 24 24;" xml:space="preserve">
<style type="text/css">
	.st0{fill:none;stroke:#000000;stroke-linecap:round;stroke-linejoin:round;stroke-miterlimit:10;}
</style>
<g>
	<line class="st0" x1="3.5" y1="3.5" x2="14.5" y2="3.5"/>
	<rect x="3.5" y="6.5" class="st0" width="5" height="6"/>
	<line class="st0" x1="11.5" y1="8.5" x2="14.5" y2="8.5"/>
	<line class="st0" x1="10.5" y1="10.5" x2="14.5" y2="10.5"/>
	<line class="st0" x1="10.5" y1="12.5" x2="14.5" y2="12.5"/>
	<line class="st0" x1="3.5" y1="14.5" x2="14.5" y2="14.5"/>
	<line class="st0" x1="3.5" y1="16.5" x2="14.5" y2="16.5"/>
	<line class="st0" x1="3.5" y1="18.5" x2="14.5" y2="18.5"/>
	<path class="st0" d="M19.5,5.5h2v15c0,0.6-0.4,1-1,1c-0.6,0-1-0.4-1-1V2h-2v2"/>
	<path class="st0" d="M20.5,23.5h-17c-1.7,0-3-1.3-3-3v-20h17v20C17.5,22.2,18.8,23.5,20.5,23.5c1.7,0,3-1.3,3-3v-17h-4"/>
</g>
</svg>
