<?xml version="1.0" encoding="utf-8"?>
<!-- Generator: Adobe Illustrator 19.2.0, SVG Export Plug-In . SVG Version: 6.00 Build 0)  -->
<svg version="1.1" id="Layer_1" xmlns="http://www.w3.org/2000/svg" xmlns:xlink="http://www.w3.org/1999/xlink" x="0px" y="0px"
	 viewBox="0 0 24 24" style="enable-background:new 0 0 24 24;" xml:space="preserve">
<style type="text/css">
	.st0{display:none;}
	.st1{display:inline;}
	.st2{fill:none;stroke:#000000;stroke-linecap:round;stroke-linejoin:round;stroke-miterlimit:10;}
</style>
<g id="Filled_Icons" class="st0">
	<path class="st1" d="M23.5,2h-23C0.2,2,0,2.2,0,2.5v18C0,20.8,0.2,21,0.5,21h23c0.3,0,0.5-0.2,0.5-0.5v-18C24,2.2,23.8,2,23.5,2z
		 M10.5,18h-7C3.2,18,3,17.8,3,17.5C3,17.2,3.2,17,3.5,17h7c0.3,0,0.5,0.2,0.5,0.5C11,17.8,10.8,18,10.5,18z M10.5,16h-7
		C3.2,16,3,15.8,3,15.5C3,15.2,3.2,15,3.5,15h7c0.3,0,0.5,0.2,0.5,0.5C11,15.8,10.8,16,10.5,16z M10.5,14h-7C3.2,14,3,13.8,3,13.5
		C3,13.2,3.2,13,3.5,13h7c0.3,0,0.5,0.2,0.5,0.5C11,13.8,10.8,14,10.5,14z M10.5,12h-6C4.2,12,4,11.8,4,11.5C4,11.2,4.2,11,4.5,11h6
		c0.3,0,0.5,0.2,0.5,0.5C11,11.8,10.8,12,10.5,12z M19.5,18h-6c-0.3,0-0.5-0.2-0.5-0.5c0-0.3,0.2-0.5,0.5-0.5h6
		c0.3,0,0.5,0.2,0.5,0.5C20,17.8,19.8,18,19.5,18z M20.5,16h-7c-0.3,0-0.5-0.2-0.5-0.5c0-0.3,0.2-0.5,0.5-0.5h7
		c0.3,0,0.5,0.2,0.5,0.5C21,15.8,20.8,16,20.5,16z M20.5,14h-7c-0.3,0-0.5-0.2-0.5-0.5c0-0.3,0.2-0.5,0.5-0.5h7
		c0.3,0,0.5,0.2,0.5,0.5C21,13.8,20.8,14,20.5,14z M20.5,12h-7c-0.3,0-0.5-0.2-0.5-0.5c0-0.3,0.2-0.5,0.5-0.5h7
		c0.3,0,0.5,0.2,0.5,0.5C21,11.8,20.8,12,20.5,12z M22,8.5C22,8.8,21.8,9,21.5,9h-19C2.2,9,2,8.8,2,8.5v-3C2,5.2,2.2,5,2.5,5h19
		C21.8,5,22,5.2,22,5.5V8.5z"/>
</g>
<g id="Outline_Icons">
	<g>
		<rect x="0.5" y="2.5" class="st2" width="23" height="18"/>
		<rect x="2.5" y="5.5" class="st2" width="19" height="3"/>
		<line class="st2" x1="4.5" y1="11.5" x2="10.5" y2="11.5"/>
		<line class="st2" x1="3.5" y1="13.5" x2="10.5" y2="13.5"/>
		<line class="st2" x1="3.5" y1="15.5" x2="10.5" y2="15.5"/>
		<line class="st2" x1="3.5" y1="17.5" x2="10.5" y2="17.5"/>
		<line class="st2" x1="13.5" y1="11.5" x2="20.5" y2="11.5"/>
		<line class="st2" x1="13.5" y1="13.5" x2="20.5" y2="13.5"/>
		<line class="st2" x1="13.5" y1="15.5" x2="20.5" y2="15.5"/>
		<line class="st2" x1="13.5" y1="17.5" x2="19.5" y2="17.5"/>
	</g>
</g>
</svg>
