<?xml version="1.0" encoding="utf-8"?>
<!-- Generator: Adobe Illustrator 19.2.0, SVG Export Plug-In . SVG Version: 6.00 Build 0)  -->
<svg version="1.1" id="Layer_1" xmlns="http://www.w3.org/2000/svg" xmlns:xlink="http://www.w3.org/1999/xlink" x="0px" y="0px"
	 viewBox="0 0 24 24" style="enable-background:new 0 0 24 24;" xml:space="preserve">
<style type="text/css">
	.st0{display:none;}
	.st1{display:inline;}
	.st2{fill:none;stroke:#000000;stroke-linecap:round;stroke-linejoin:round;stroke-miterlimit:10;}
</style>
<g id="Filled_Icon" class="st0">
	<path class="st1" d="M12,0C5.4,0,0,5.4,0,12s5.4,12,12,12s12-5.4,12-12S18.6,0,12,0z M7,7.5C7,7.3,7.1,7.1,7.3,7
		c0.2,0,0.4,0,0.5,0.1l5,4.5c0.1,0.1,0.2,0.2,0.2,0.4c0,0.1-0.1,0.3-0.2,0.4l-5,4.5C7.7,17,7.6,17,7.5,17s-0.1,0-0.2,0
		C7.1,16.9,7,16.7,7,16.5V7.5z M17,16.5c0,0.3-0.2,0.5-0.5,0.5h-2c-0.3,0-0.5-0.2-0.5-0.5v-9C14,7.2,14.2,7,14.5,7h2
		C16.8,7,17,7.2,17,7.5V16.5z"/>
</g>
<g id="Outline_Icons">
	<g>
		<circle class="st2" cx="12" cy="12" r="11.5"/>
		<rect x="14.5" y="7.5" class="st2" width="2" height="9"/>
		<polygon class="st2" points="7.5,16.5 12.5,12 7.5,7.5 		"/>
	</g>
</g>
</svg>
