<?xml version="1.0" encoding="utf-8"?>
<!-- Generator: Adobe Illustrator 19.2.0, SVG Export Plug-In . SVG Version: 6.00 Build 0)  -->
<svg version="1.1" id="Layer_1" xmlns="http://www.w3.org/2000/svg" xmlns:xlink="http://www.w3.org/1999/xlink" x="0px" y="0px"
	 viewBox="0 0 24 24" style="enable-background:new 0 0 24 24;" xml:space="preserve">
<style type="text/css">
	.st0{display:none;}
	.st1{display:inline;}
	.st2{fill:none;stroke:#000000;stroke-linecap:round;stroke-linejoin:round;stroke-miterlimit:10;}
	.st3{fill:none;stroke:#000000;stroke-linejoin:round;stroke-miterlimit:10;}
</style>
<g id="Filled_Icons" class="st0">
	<g class="st1">
		<path d="M13.5,23C9.6,21.1,7,16.7,7,12s2.6-9,6.5-11c0.2-0.1,0.3-0.3,0.3-0.5s-0.2-0.4-0.4-0.4C6.3-0.8,0,4.8,0,12
			s6.3,12.7,13.4,11.9c0.2,0,0.4-0.2,0.4-0.4C13.9,23.3,13.7,23.1,13.5,23z"/>
		<path d="M22.5,18c-2.4,0-3.5-1.2-3.5-3.5l0,0l0,0c0-0.3-0.2-0.5-0.5-0.5l0,0c-0.3,0-0.5,0.2-0.5,0.5c0,2.4-1.1,3.5-3.5,3.5
			c-0.3,0-0.5,0.2-0.5,0.5s0.2,0.5,0.5,0.5c2.4,0,3.5,1.1,3.5,3.5c0,0.3,0.2,0.5,0.5,0.5l0,0c0.3,0,0.5-0.2,0.5-0.5
			c0.1-2.4,1.2-3.5,3.5-3.5l0,0c0.3,0,0.5-0.2,0.5-0.5S22.8,18,22.5,18z"/>
		<path d="M16,11L16,11c0.3,0,0.5-0.2,0.5-0.5S16.3,10,16,10c-1.4,0-2-0.6-2-2c0-0.3-0.2-0.5-0.5-0.5l0,0C13.2,7.5,13,7.7,13,8l0,0
			c0,1.4-0.6,2-2,2c-0.3,0-0.5,0.2-0.5,0.5S10.7,11,11,11c1.4,0,2,0.6,2,2c0,0.3,0.2,0.5,0.5,0.5l0,0c0.3,0,0.5-0.2,0.5-0.5
			C14.1,11.6,14.7,11,16,11z"/>
		<path d="M23.5,4C21.8,4,21,3.2,21,1.5l0,0l0,0C21,1.2,20.8,1,20.5,1l0,0C20.2,1,20,1.2,20,1.5C20,3.2,19.2,4,17.5,4
			C17.2,4,17,4.2,17,4.5S17.2,5,17.5,5C19.2,5,20,5.8,20,7.5C20,7.8,20.2,8,20.5,8l0,0C20.8,8,21,7.8,21,7.5C21.1,5.8,21.9,5,23.5,5
			l0,0C23.8,5,24,4.8,24,4.5S23.8,4,23.5,4z"/>
	</g>
</g>
<g id="Outline_Icons">
	<g>
		<g>
			<path class="st2" d="M6.5,12c0-5.1,2.8-9.5,6.8-11.4c-0.4-0.1-0.9-0.1-1.3-0.1C5.6,0.5,0.5,5.6,0.5,12S5.6,23.5,12,23.5
				c0.4,0,0.9,0,1.3-0.1C9.3,21.5,6.5,17.1,6.5,12z"/>
		</g>
		<path class="st3" d="M18.5,14.5c0,2.5,1.2,3.9,4,4c-2.6,0-3.9,1.4-4,4c0-2.5-1.1-4-4-4C17.1,18.5,18.5,17.2,18.5,14.5z"/>
		<path class="st3" d="M13.5,8c0,1.6,0.8,2.5,2.5,2.5c-1.6,0-2.4,0.9-2.5,2.5c0-1.5-0.7-2.5-2.5-2.5C12.6,10.5,13.5,9.7,13.5,8z"/>
		<path class="st3" d="M20.5,1.5c0,1.9,0.9,3,3,3c-1.9,0-2.9,1-3,3c0-1.9-0.8-3-3-3C19.4,4.5,20.5,3.5,20.5,1.5z"/>
	</g>
</g>
</svg>
