<?xml version="1.0" encoding="utf-8"?>
<!-- Generator: Adobe Illustrator 19.2.0, SVG Export Plug-In . SVG Version: 6.00 Build 0)  -->
<svg version="1.1" id="Layer_1" xmlns="http://www.w3.org/2000/svg" xmlns:xlink="http://www.w3.org/1999/xlink" x="0px" y="0px"
	 viewBox="0 0 24 24" style="enable-background:new 0 0 24 24;" xml:space="preserve">
<style type="text/css">
	.st0{display:none;}
	.st1{display:inline;}
	.st2{fill:none;stroke:#000000;stroke-linecap:round;stroke-linejoin:round;stroke-miterlimit:10;}
</style>
<g id="Filled_Icon" class="st0">
	<g class="st1">
		<path d="M23.7,13.4C21.5,12.3,20,10,20,7.5s1.5-4.8,3.7-5.9c0.2,0,0.3-0.2,0.3-0.4s-0.1-0.4-0.3-0.5c-1-0.5-2.1-0.7-3.2-0.7
			C17,0,14,2.4,13.2,5.9c0,0.1-0.2,0.7-0.3,1.6c1.5,0.6,2.8,1.7,3.6,3.1c1.3,0.2,2.5,0.9,3.2,2c0.5,0.8,0.7,1.6,0.7,2.5
			c1.1-0.1,2.3-0.3,3.2-0.8c0.2-0.1,0.3-0.3,0.3-0.5C24,13.6,23.9,13.4,23.7,13.4z"/>
		<path d="M19.3,16c0.3-0.9,0.2-2-0.4-2.9s-1.6-1.5-2.7-1.6c-0.2,0-0.3-0.1-0.4-0.3c-1-2-3.2-3.2-5.3-3.2C7.6,8,5,10.2,4.6,13.1
			C2,13.5,0,15.8,0,18.5c0,3,2.5,5.5,5.5,5.5h11c2.5,0,4.5-2,4.5-4.5C21,18.1,20.3,16.8,19.3,16z"/>
	</g>
</g>
<g id="Outline_Icons">
	<g>
		<path class="st2" d="M18.8,16.2c0.9-2.1-0.8-4.5-3.1-4.2c-0.8-2.1-2.8-3.5-5.1-3.5c-2.9,0-5.2,2.2-5.5,5c-2.5,0.2-4.5,2.4-4.5,5
			c0,2.8,2.2,5,5,5h11c2.2,0,4-1.8,4-4C20.5,18.1,19.8,16.9,18.8,16.2z"/>
		<path class="st2" d="M22,14.3c0.5-0.1,1-0.3,1.5-0.5c-2.4-1.1-4-3.5-4-6.3s1.6-5.2,4-6.3c-0.9-0.4-1.9-0.7-3-0.7
			c-3.3,0-6.1,2.3-6.8,5.5"/>
	</g>
</g>
</svg>
