<?xml version="1.0" encoding="utf-8"?>
<!-- Generator: Adobe Illustrator 19.2.0, SVG Export Plug-In . SVG Version: 6.00 Build 0)  -->
<svg version="1.1" id="Layer_1" xmlns="http://www.w3.org/2000/svg" xmlns:xlink="http://www.w3.org/1999/xlink" x="0px" y="0px"
	 viewBox="0 0 24 24" style="enable-background:new 0 0 24 24;" xml:space="preserve">
<style type="text/css">
	.st0{display:none;}
	.st1{display:inline;}
	.st2{fill:none;stroke:#000000;stroke-linecap:round;stroke-linejoin:round;stroke-miterlimit:10;}
</style>
<g id="Filled_Icon" class="st0">
	<g class="st1">
		<path d="M18.1,0.1c-0.2,0-0.4,0.1-0.5,0.3c-0.1,0.2,0,0.4,0.1,0.5c2.9,3.2,0.8,8.5-3.8,8.4c-0.2,0-0.4,0.1-0.5,0.3
			c-0.1,0.2,0,0.4,0.1,0.5c2.9,3.1,8.1,2.3,9.9-1.6C25.2,4.7,22.4,0.2,18.1,0.1z"/>
		<path d="M9.4,16.7c1.4-0.8,2.4-2.3,2.4-4c0-2.6-2.1-4.7-4.7-4.7c-2.6,0-4.7,2.1-4.7,4.7c0,1.7,1,3.2,2.4,4C2,17.7,0,20.3,0,23.5
			C0,23.8,0.2,24,0.5,24h13.3c0,0,0,0,0,0c0.3,0,0.5-0.2,0.5-0.5C14.4,20.5,12.4,17.7,9.4,16.7z"/>
	</g>
</g>
<g id="Outline_Icons">
	<g>
		<path class="st2" d="M18.1,0.6c0.5,0.5,0.9,1.1,1.1,1.8c1.1,2.8-0.4,6-3.2,7.1c-0.7,0.3-1.4,0.4-2.1,0.3c1.5,1.6,3.8,2.2,6,1.4
			c2.8-1.1,4.3-4.2,3.2-7.1C22.3,2,20.3,0.7,18.1,0.6z"/>
		<circle class="st2" cx="7.2" cy="12.7" r="4.2"/>
		<path class="st2" d="M13.8,23.5H0.5c0-3.7,3-6.7,6.7-6.7C10.9,16.8,13.8,19.8,13.8,23.5z"/>
	</g>
</g>
</svg>
