<?xml version="1.0" encoding="utf-8"?>
<!-- Generator: Adobe Illustrator 19.2.0, SVG Export Plug-In . SVG Version: 6.00 Build 0)  -->
<svg version="1.1" id="Layer_1" xmlns="http://www.w3.org/2000/svg" xmlns:xlink="http://www.w3.org/1999/xlink" x="0px" y="0px"
	 viewBox="0 0 24 24" style="enable-background:new 0 0 24 24;" xml:space="preserve">
<style type="text/css">
	.st0{display:none;}
	.st1{display:inline;}
	.st2{fill:none;stroke:#000000;stroke-linecap:round;stroke-linejoin:round;stroke-miterlimit:10;}
</style>
<g id="Filled_Icon" class="st0">
	<path class="st1" d="M23.7,11.1c-1.8-0.9-3-2.8-3-4.8s1.2-3.9,3-4.8C23.9,1.4,24,1.3,24,1.1s-0.1-0.4-0.3-0.5C22.9,0.2,21.9,0,21,0
		c-2.9,0-5.5,2.1-6.2,4.9c0,0.2-0.1,0.4-0.1,0.5C15.4,6,16,6.7,16.5,7.5c1.3,0.2,2.5,0.9,3.2,2c0.6,0.9,0.8,2,0.7,3
		c0.3,0,0.6,0.1,0.8,0.1c0.4,0,0.8,0,1.2-0.2c0.4-0.1,0.8-0.2,1.2-0.4c0.2-0.1,0.3-0.3,0.3-0.5C24,11.4,23.9,11.2,23.7,11.1z"/>
	<g class="st1">
		<g>
			<path d="M17.5,23c-0.3,0-0.5,0.2-0.5,0.5s0.2,0.5,0.5,0.5s0.5-0.2,0.5-0.5S17.8,23,17.5,23L17.5,23z"/>
		</g>
	</g>
	<g class="st1">
		<g>
			<path d="M15.5,21.5c-0.3,0-0.5,0.2-0.5,0.5s0.2,0.5,0.5,0.5S16,22.3,16,22S15.8,21.5,15.5,21.5L15.5,21.5z"/>
		</g>
	</g>
	<g class="st1">
		<g>
			<path d="M7.5,21.5C7.2,21.5,7,21.7,7,22s0.2,0.5,0.5,0.5S8,22.3,8,22S7.8,21.5,7.5,21.5L7.5,21.5z"/>
		</g>
	</g>
	<g class="st1">
		<g>
			<path d="M5.5,23C5.2,23,5,23.2,5,23.5S5.2,24,5.5,24S6,23.8,6,23.5S5.8,23,5.5,23L5.5,23z"/>
		</g>
	</g>
	<path class="st1" d="M19.3,13c0.3-1,0.2-2.1-0.4-2.9c-0.7-1-1.8-1.6-3-1.6C15,6.4,12.8,5,10.5,5c-3,0-5.5,2.2-5.9,5.1
		C1.9,10.5,0,12.8,0,15.5c0,3,2.5,5.5,5.5,5.5H9c0-0.4,0.1-0.7,0.4-1l2.5-2.5c0.6-0.6,1.5-0.6,2.1,0s0.6,1.5,0,2.1l-0.2,0.2
		c0.2,0.2,0.4,0.4,0.5,0.7c0.1,0.2,0.1,0.3,0.1,0.5h2c2.5,0,4.5-2,4.5-4.5C21,15.1,20.4,13.9,19.3,13z M5.5,20.5
		C5.2,20.5,5,20.3,5,20s0.2-0.5,0.5-0.5S6,19.7,6,20S5.8,20.5,5.5,20.5z M7.5,19C7.2,19,7,18.8,7,18.5S7.2,18,7.5,18S8,18.2,8,18.5
		S7.8,19,7.5,19z M15.5,19c-0.3,0-0.5-0.2-0.5-0.5s0.2-0.5,0.5-0.5s0.5,0.2,0.5,0.5S15.8,19,15.5,19z M17.5,20.5
		c-0.3,0-0.5-0.2-0.5-0.5s0.2-0.5,0.5-0.5S18,19.7,18,20S17.8,20.5,17.5,20.5z"/>
	<g class="st1">
		<path d="M10.5,24c-0.1,0-0.3,0-0.4-0.1c-0.2-0.2-0.2-0.5,0-0.7l1.6-1.6h-1.3c-0.2,0-0.4-0.1-0.5-0.3c-0.1-0.2,0-0.4,0.1-0.5
			l2.5-2.5c0.2-0.2,0.5-0.2,0.7,0s0.2,0.5,0,0.7l-1.6,1.7H13c0.2,0,0.4,0.1,0.5,0.3c0.1,0.2,0,0.4-0.1,0.5L10.9,24
			C10.8,24,10.6,24,10.5,24z"/>
	</g>
</g>
<g id="Outline_Icons">
	<g>
		<g>
			<g>
				<path d="M17.5,19.5c-0.3,0-0.5,0.2-0.5,0.5s0.2,0.5,0.5,0.5S18,20.3,18,20S17.8,19.5,17.5,19.5L17.5,19.5z"/>
			</g>
		</g>
		<g>
			<g>
				<path d="M17.5,22.5c-0.3,0-0.5,0.2-0.5,0.5s0.2,0.5,0.5,0.5S18,23.3,18,23S17.8,22.5,17.5,22.5L17.5,22.5z"/>
			</g>
		</g>
		<g>
			<g>
				<path d="M15.5,21c-0.3,0-0.5,0.2-0.5,0.5s0.2,0.5,0.5,0.5s0.5-0.2,0.5-0.5S15.8,21,15.5,21L15.5,21z"/>
			</g>
		</g>
		<g>
			<g>
				<path d="M15.5,18c-0.3,0-0.5,0.2-0.5,0.5s0.2,0.5,0.5,0.5s0.5-0.2,0.5-0.5S15.8,18,15.5,18L15.5,18z"/>
			</g>
		</g>
		<g>
			<g>
				<path d="M7.5,21C7.2,21,7,21.2,7,21.5S7.2,22,7.5,22S8,21.8,8,21.5S7.8,21,7.5,21L7.5,21z"/>
			</g>
		</g>
		<g>
			<g>
				<path d="M5.5,22.5C5.2,22.5,5,22.7,5,23s0.2,0.5,0.5,0.5S6,23.3,6,23S5.8,22.5,5.5,22.5L5.5,22.5z"/>
			</g>
		</g>
		<g>
			<g>
				<path d="M7.5,18C7.2,18,7,18.2,7,18.5S7.2,19,7.5,19S8,18.8,8,18.5S7.8,18,7.5,18L7.5,18z"/>
			</g>
		</g>
		<g>
			<g>
				<path d="M5.5,19.5C5.2,19.5,5,19.7,5,20s0.2,0.5,0.5,0.5S6,20.3,6,20S5.8,19.5,5.5,19.5L5.5,19.5z"/>
			</g>
		</g>
		<polyline class="st2" points="10.5,23.5 13,21 10.5,21 13,18.5 		"/>
		<path class="st2" d="M19,19.6c0.9-0.7,1.5-1.9,1.5-3.1c0-1.4-0.7-2.6-1.7-3.3c0.9-2.1-0.8-4.5-3.1-4.2c-0.8-2.1-2.8-3.5-5.1-3.5
			c-2.9,0-5.2,2.2-5.5,5c-2.5,0.2-4.5,2.4-4.5,5c0,1.8,1,3.4,2.5,4.3"/>
		<path class="st2" d="M22.3,12c0.4-0.1,0.8-0.2,1.2-0.4c-2-0.9-3.3-2.9-3.3-5.2s1.4-4.3,3.3-5.2c-0.8-0.4-1.6-0.6-2.5-0.6
			c-2.8,0-5.1,1.9-5.7,4.5"/>
	</g>
</g>
</svg>
