<?xml version="1.0" encoding="utf-8"?>
<!-- Generator: Adobe Illustrator 19.2.0, SVG Export Plug-In . SVG Version: 6.00 Build 0)  -->
<svg version="1.1" id="Layer_1" xmlns="http://www.w3.org/2000/svg" xmlns:xlink="http://www.w3.org/1999/xlink" x="0px" y="0px"
	 viewBox="0 0 24 24" style="enable-background:new 0 0 24 24;" xml:space="preserve">
<style type="text/css">
	.st0{display:none;}
	.st1{display:inline;}
	.st2{fill:none;stroke:#000000;stroke-linecap:round;stroke-linejoin:round;stroke-miterlimit:10;}
</style>
<g id="Filled_Icon" class="st0">
	<path class="st1" d="M23.7,11.1c-1.8-0.9-3-2.8-3-4.8s1.2-3.9,3-4.8C23.9,1.4,24,1.3,24,1.1s-0.1-0.4-0.3-0.5C22.9,0.2,21.9,0,21,0
		c-2.9,0-5.5,2.1-6.2,4.9c0,0.2-0.1,0.4-0.1,0.5C15.4,6,16,6.7,16.5,7.5c1.3,0.2,2.5,0.9,3.2,2c0.6,0.9,0.8,2,0.7,3
		c0.3,0,0.6,0.1,0.8,0.1c0.4,0,0.8,0,1.2-0.2c0.4-0.1,0.8-0.2,1.2-0.4c0.2-0.1,0.3-0.3,0.3-0.5C24,11.4,23.9,11.2,23.7,11.1z"/>
	<g class="st1">
		<path d="M17.8,18.1c-0.2-0.2-0.5-0.2-0.7,0L13.2,22c-0.1,0-0.2,0-0.2,0c-0.6,0-1,0.4-1,1s0.4,1,1,1s1-0.4,1-1c0-0.1,0-0.2,0-0.2
			l3.9-3.9C18,18.7,18,18.3,17.8,18.1z"/>
		<path d="M12.8,18.9c0.2-0.2,0.2-0.5,0-0.7s-0.5-0.2-0.7,0L9.2,21C9.1,21,9,21,9,21c-0.6,0-1,0.4-1,1s0.4,1,1,1s1-0.4,1-1
			c0-0.1,0-0.2,0-0.2L12.8,18.9z"/>
		<path d="M7.8,18.1c-0.2-0.2-0.5-0.2-0.7,0L3.2,22C3.1,22,3,22,3,22c-0.6,0-1,0.4-1,1s0.4,1,1,1s1-0.4,1-1c0-0.1,0-0.2,0-0.2
			l3.9-3.9C8,18.7,8,18.3,7.8,18.1z"/>
	</g>
	<path class="st1" d="M19.3,13c0.3-1,0.2-2.1-0.4-2.9c-0.7-1-1.8-1.6-3-1.6C15,6.4,12.8,5,10.5,5c-3,0-5.5,2.2-5.9,5.1
		C1.9,10.5,0,12.8,0,15.5c0,2.3,1.4,4.2,3.3,5l3.1-3.1c0.6-0.6,1.5-0.6,2.1,0s0.6,1.4,0.1,2c0.1,0.2,0.2,0.3,0.4,0.4l2.4-2.4
		c0.6-0.6,1.5-0.6,2.1,0s0.6,1.5,0,2.1L12.1,21h0.8l3.5-3.5c0.6-0.6,1.5-0.6,2.1,0s0.6,1.5,0,2.1l-1.3,1.3c2.1-0.3,3.8-2.2,3.8-4.4
		C21,15.1,20.4,13.9,19.3,13z"/>
</g>
<g id="Outline_Icons">
	<g>
		<circle class="st2" cx="13" cy="23" r="0.5"/>
		<line class="st2" x1="13.3" y1="22.6" x2="17.5" y2="18.5"/>
		<circle class="st2" cx="9" cy="22" r="0.5"/>
		<line class="st2" x1="9.3" y1="21.6" x2="12.5" y2="18.5"/>
		<circle class="st2" cx="3" cy="23" r="0.5"/>
		<line class="st2" x1="3.3" y1="22.6" x2="7.5" y2="18.5"/>
		<path class="st2" d="M19,19.6c0.9-0.7,1.5-1.9,1.5-3.1c0-1.4-0.7-2.6-1.7-3.3c0.9-2.1-0.8-4.5-3.1-4.2c-0.8-2.1-2.8-3.5-5.1-3.5
			c-2.9,0-5.2,2.2-5.5,5c-2.5,0.2-4.5,2.4-4.5,5c0,1.8,1,3.4,2.5,4.3"/>
		<path class="st2" d="M22.3,12c0.4-0.1,0.8-0.2,1.2-0.4c-2-0.9-3.3-2.9-3.3-5.2s1.4-4.3,3.3-5.2c-0.8-0.4-1.6-0.6-2.5-0.6
			c-2.8,0-5.1,1.9-5.7,4.5"/>
	</g>
</g>
</svg>
