<?xml version="1.0" encoding="utf-8"?>
<!-- Generator: Adobe Illustrator 19.2.0, SVG Export Plug-In . SVG Version: 6.00 Build 0)  -->
<svg version="1.1" id="Layer_1" xmlns="http://www.w3.org/2000/svg" xmlns:xlink="http://www.w3.org/1999/xlink" x="0px" y="0px"
	 viewBox="0 0 24 24" style="enable-background:new 0 0 24 24;" xml:space="preserve">
<style type="text/css">
	.st0{display:none;}
	.st1{display:inline;}
	.st2{fill:none;stroke:#000000;stroke-linecap:round;stroke-linejoin:round;stroke-miterlimit:10;}
</style>
<g id="Filled_Icons" class="st0">
	<path class="st1" d="M21.2,4.3l-2.8,2.8c-0.1,0.1-0.2,0.1-0.4,0.1c-0.1,0-0.3,0-0.4-0.1c-0.2-0.2-0.2-0.5,0-0.7l2.9-2.8
		C18.4,1.4,15.3,0,12,0C5.4,0,0,5.4,0,12c0,3.3,1.4,6.3,3.6,8.5l3.9-3.8c0.2-0.2,0.5-0.2,0.7,0s0.2,0.5,0,0.7l-3.8,3.8
		c2,1.7,4.7,2.8,7.6,2.8c6.6,0,12-5.4,12-12C24,9.1,23,6.4,21.2,4.3z M12,10.5c0,1.2-0.9,2.2-2,2.4V19c0,0.3-0.2,0.5-0.5,0.5
		S9,19.3,9,19v-6c-1.1-0.2-2-1.2-2-2.4v-5C7,5.2,7.2,5,7.5,5S8,5.2,8,5.5v5c0,0.7,0.4,1.2,1,1.4V5.5C9,5.2,9.2,5,9.5,5
		S10,5.2,10,5.5v6.4c0.6-0.2,1-0.8,1-1.4v-5C11,5.2,11.2,5,11.5,5S12,5.2,12,5.5V10.5z M17.5,14H15v5c0,0.3-0.2,0.5-0.5,0.5
		S14,19.3,14,19V5.5C14,5.2,14.2,5,14.5,5c2,0,3.5,7.5,3.5,8.5C18,13.8,17.8,14,17.5,14z"/>
</g>
<g id="Outline_Icons">
	<g>
		<path class="st2" d="M14.5,13.5h3c0-1.5-1.6-8-3-8V19"/>
		<line class="st2" x1="9.5" y1="5.5" x2="9.5" y2="19"/>
		<circle class="st2" cx="12" cy="12" r="11.5"/>
		<path class="st2" d="M7.5,5.5v5c0,1.1,0.9,2,2,2s2-0.9,2-2v-5"/>
		<line class="st2" x1="7.8" y1="17" x2="4.3" y2="20.5"/>
		<line class="st2" x1="20.5" y1="4.3" x2="18" y2="6.8"/>
	</g>
</g>
</svg>
