<?xml version="1.0" encoding="utf-8"?>
<!-- Generator: Adobe Illustrator 19.2.0, SVG Export Plug-In . SVG Version: 6.00 Build 0)  -->
<svg version="1.1" id="Layer_1" xmlns="http://www.w3.org/2000/svg" xmlns:xlink="http://www.w3.org/1999/xlink" x="0px" y="0px"
	 viewBox="0 0 24 24" style="enable-background:new 0 0 24 24;" xml:space="preserve">
<style type="text/css">
	.st0{display:none;}
	.st1{display:inline;}
	.st2{fill:none;stroke:#000000;stroke-linecap:round;stroke-linejoin:round;stroke-miterlimit:10;}
</style>
<g id="Filled_Icons" class="st0">
	<path class="st1" d="M15.6,16.3c-0.2-0.2-0.2-0.5,0-0.7s0.5-0.2,0.7,0l4.5,4.5c2-2.1,3.2-5,3.2-8.1c0-6.6-5.4-12-12-12
		C8.9,0,6,1.2,3.9,3.2l2.9,2.9C7,6.3,7,6.6,6.8,6.8C6.7,6.9,6.6,6.9,6.4,6.9c-0.1,0-0.3,0-0.4-0.1L3.2,3.9C1.2,6,0,8.9,0,12
		c0,6.6,5.4,12,12,12c3.1,0,6-1.2,8.1-3.2L15.6,16.3z M6.6,9.5c0-1.3,0.8-2.4,2-2.8c0.2-1.8,1.7-3.2,3.5-3.2s3.3,1.4,3.5,3.2
		c1.2,0.4,2,1.5,2,2.8c0,1.7-1.3,3-3,3c-1,0-1.9-0.5-2.4-1.3c-0.6,0.8-1.5,1.3-2.4,1.3C7.9,12.5,6.6,11.2,6.6,9.5z M12.5,21.1
		c-0.1,0.2-0.3,0.3-0.5,0.3l0,0c-0.2,0-0.4-0.1-0.5-0.3l-2.7-7.7c0.2,0,0.4,0.1,0.7,0.1c0.9,0,1.8-0.3,2.4-0.8
		c0.7,0.5,1.5,0.8,2.4,0.8c0.2,0,0.5,0,0.7-0.1L12.5,21.1z"/>
</g>
<g id="Outline_Icons">
	<g>
		<circle class="st2" cx="12" cy="12" r="11.5"/>
		<line class="st2" x1="6.4" y1="6.4" x2="3.9" y2="3.9"/>
		<polyline class="st2" points="20.1,20.1 18,18 16,16 		"/>
		<polyline class="st2" points="15.2,11.9 12,21 8.9,11.9 		"/>
		<path class="st2" d="M15,7.1C15,7,15,7,15,7.1C15,5.3,13.7,4,12,4S9,5.3,9,7c0,0,0,0,0,0.1C7.9,7.3,7.1,8.3,7.1,9.5
			c0,1.4,1.1,2.5,2.5,2.5c1.2,0,2.2-0.9,2.4-2c0.2,1.1,1.2,2,2.4,2c1.4,0,2.5-1.1,2.5-2.5C16.9,8.3,16.1,7.3,15,7.1z"/>
	</g>
</g>
</svg>
