<?xml version="1.0" encoding="utf-8"?>
<!-- Generator: Adobe Illustrator 19.2.0, SVG Export Plug-In . SVG Version: 6.00 Build 0)  -->
<svg version="1.1" id="Layer_1" xmlns="http://www.w3.org/2000/svg" xmlns:xlink="http://www.w3.org/1999/xlink" x="0px" y="0px"
	 viewBox="0 0 24 24" style="enable-background:new 0 0 24 24;" xml:space="preserve">
<style type="text/css">
	.st0{display:none;}
	.st1{display:inline;}
	.st2{fill:none;stroke:#000000;stroke-linecap:round;stroke-linejoin:round;stroke-miterlimit:10;}
	.st3{fill:none;stroke:#000000;stroke-linejoin:round;stroke-miterlimit:10;}
</style>
<g id="Filled_Icons" class="st0">
	<g class="st1">
		<path d="M12.5,10c-1.4,0-2.5,1.1-2.5,2.5s1.1,2.5,2.5,2.5s2.5-1.1,2.5-2.5S13.9,10,12.5,10z"/>
		<path d="M17.6,18.3c-0.2-0.2-0.2-0.5,0-0.7s0.5-0.2,0.7,0l2.5,2.5c2-2.1,3.2-5,3.2-8.1c0-6.6-5.4-12-12-12C8.9,0,6,1.2,3.9,3.2
			l2.9,2.9C7,6.3,7,6.6,6.8,6.8C6.7,6.9,6.6,6.9,6.4,6.9c-0.1,0-0.3,0-0.4-0.1L3.2,3.9C1.2,6,0,8.9,0,12c0,6.6,5.4,12,12,12
			c3.1,0,6-1.2,8.1-3.2L17.6,18.3z M6.5,17C5.7,17,5,16.3,5,15.5v-6C5,8.7,5.7,8,6.5,8h1V7H9v1h1.2l0.1-0.2C10.5,7.3,11,7,11.6,7
			h2.3c0.6,0,1.1,0.3,1.3,0.8L15.3,8h1.2C17.3,8,18,8.7,18,9.5v6c0,0.8-0.7,1.5-1.5,1.5H6.5z"/>
	</g>
</g>
<g id="Outline_Icons">
	<g>
		<circle class="st2" cx="12" cy="12" r="11.5"/>
		<line class="st2" x1="6.4" y1="6.4" x2="3.9" y2="3.9"/>
		<line class="st2" x1="20.1" y1="20.1" x2="18" y2="18"/>
		<path class="st3" d="M17.5,15.5c0,0.6-0.4,1-1,1h-10c-0.6,0-1-0.4-1-1v-6c0-0.6,0.4-1,1-1h4l0.2-0.4c0.2-0.3,0.5-0.6,0.9-0.6h2.3
			c0.4,0,0.7,0.2,0.9,0.6L15,8.5h1.5c0.6,0,1,0.4,1,1V15.5z"/>
		<circle class="st3" cx="12.5" cy="12.5" r="2"/>
		<rect x="8" y="7.5" class="st3" width="0.5" height="1"/>
	</g>
</g>
</svg>
