<?xml version="1.0" encoding="utf-8"?>
<!-- Generator: Adobe Illustrator 19.2.0, SVG Export Plug-In . SVG Version: 6.00 Build 0)  -->
<svg version="1.1" id="Layer_1" xmlns="http://www.w3.org/2000/svg" xmlns:xlink="http://www.w3.org/1999/xlink" x="0px" y="0px"
	 viewBox="0 0 24 24" style="enable-background:new 0 0 24 24;" xml:space="preserve">
<style type="text/css">
	.st0{display:none;}
	.st1{display:inline;}
	.st2{fill:none;stroke:#000000;stroke-linejoin:round;stroke-miterlimit:10;}
	.st3{fill:none;stroke:#000000;stroke-linecap:round;stroke-linejoin:round;stroke-miterlimit:10;}
</style>
<g id="Filled_Icons" class="st0">
	<g class="st1">
		<path d="M11.4,23h-0.9c-1.2,0-2.4-0.2-3.6-0.6v1.1C7,23.8,7.2,24,7.5,24h7c0.3,0,0.5-0.2,0.5-0.5v-1.1C13.9,22.8,12.7,23,11.4,23z
			"/>
		<g>
			<path d="M21.9,4.1L3,6.6c-0.3,0-0.5,0.3-0.4,0.6c0,0.3,0.2,0.4,0.5,0.4c0,0,0,0,0.1,0L7.5,7C8,7.9,7.6,8.8,7.2,9.8
				c-0.4,1-0.8,2.1-0.4,3.3H1.5c-0.1,0-0.3,0.1-0.4,0.2C1,13.3,1,13.4,1,13.6c0.6,4.8,4.7,8.4,9.6,8.4h0.9c4.8,0,9-3.6,9.6-8.4
				c0-0.1,0-0.3-0.1-0.4c-0.1-0.1-0.2-0.2-0.4-0.2h-6.6c-0.5-1-0.2-1.8,0.2-2.9c0.5-1.1,1-2.5,0-4.1L22,5c0.3,0,0.5-0.3,0.4-0.6
				C22.4,4.2,22.1,4,21.9,4.1z M11.2,9.8c-0.4,1-0.8,2.1-0.4,3.2H9.9c-0.5-1-0.2-1.8,0.2-2.9c0.4-1.1,0.9-2.2,0.3-3.6l0.8-0.1
				C12.1,7.6,11.7,8.6,11.2,9.8z M8.1,10.1c0.4-1,0.9-2.1,0.4-3.3l0.8-0.1c0.6,1,0.3,2-0.2,3.1c-0.4,1-0.8,2.1-0.4,3.2H7.9
				C7.4,12,7.7,11.1,8.1,10.1z M13.1,6.3c1,1.2,0.6,2.2,0.1,3.4c-0.4,1-0.8,2.1-0.4,3.2h-0.9c-0.5-1-0.2-1.8,0.2-2.9
				c0.4-1.1,1-2.4,0.2-3.8L13.1,6.3L13.1,6.3z"/>
			<path d="M3.4,6.2c0,0,0.1,0,0.1,0L21.8,1c0.3-0.1,0.4-0.4,0.3-0.6S21.8,0,21.5,0L3.2,5.2C3,5.3,2.8,5.5,2.9,5.8
				C2.9,6,3.1,6.2,3.4,6.2z"/>
		</g>
	</g>
</g>
<g id="Outline_Icons">
	<g>
		<path class="st2" d="M1.5,13.5h19c-0.6,4.6-4.5,8-9.1,8h-0.9C6,21.5,2.1,18.1,1.5,13.5z"/>
		<rect x="7.5" y="21.5" class="st2" width="7" height="2"/>
		<path class="st3" d="M7.9,6.5c1.4,2.5-2,4.5-0.3,7"/>
		<path class="st3" d="M9.7,6.2c1.9,2.7-1.8,4.7-0.1,7.3"/>
		<path class="st3" d="M11.5,6c2.3,2.8-1.7,4.8,0.1,7.5"/>
		<path class="st3" d="M13.6,13.5c-1.8-2.7,2.2-4.7-0.1-7.5l-0.3-0.3"/>
		<line class="st3" x1="21.9" y1="4.5" x2="3.1" y2="7.1"/>
		<line class="st3" x1="21.6" y1="0.5" x2="3.4" y2="5.7"/>
	</g>
</g>
</svg>
