<?xml version="1.0" encoding="utf-8"?>
<!-- Generator: Adobe Illustrator 19.2.0, SVG Export Plug-In . SVG Version: 6.00 Build 0)  -->
<svg version="1.1" id="Layer_1" xmlns="http://www.w3.org/2000/svg" xmlns:xlink="http://www.w3.org/1999/xlink" x="0px" y="0px"
	 viewBox="0 0 24 24" style="enable-background:new 0 0 24 24;" xml:space="preserve">
<style type="text/css">
	.st0{display:none;}
	.st1{display:inline;}
	.st2{fill:none;stroke:#000000;stroke-linejoin:round;stroke-miterlimit:10;}
	.st3{fill:none;stroke:#000000;stroke-linecap:round;stroke-linejoin:round;stroke-miterlimit:10;}
</style>
<g id="Filled_Icons" class="st0">
	<g class="st1">
		<path d="M8.5,7.5C8.8,7.5,9,7.3,9,7V1c0-0.3-0.2-0.5-0.5-0.5S8,0.7,8,1v6C8,7.3,8.2,7.5,8.5,7.5z"/>
		<path d="M10.5,8.5C10.8,8.5,11,8.3,11,8V2c0-0.3-0.2-0.5-0.5-0.5S10,1.7,10,2v6C10,8.3,10.2,8.5,10.5,8.5z"/>
		<path d="M12,4h10c0.3,0,0.5-0.2,0.5-0.5S22.3,3,22,3H12c-0.3,0-0.5,0.2-0.5,0.5S11.7,4,12,4z"/>
		<path d="M3,4h2c0.3,0,0.5-0.2,0.5-0.5S5.3,3,5,3H3C2.7,3,2.5,3.2,2.5,3.5S2.7,4,3,4z"/>
		<path d="M22,7.1L12.1,6c-0.3,0-0.5,0.2-0.6,0.4c0,0.3,0.2,0.5,0.4,0.6l9.9,1.1c0,0,0,0,0.1,0c0.2,0,0.5-0.2,0.5-0.4
			C22.5,7.4,22.3,7.1,22,7.1z"/>
		<path d="M5.1,5.2l-2-0.2c-0.3,0-0.5,0.2-0.6,0.4c0,0.3,0.2,0.5,0.4,0.6l2,0.2c0,0,0,0,0.1,0c0.2,0,0.5-0.2,0.5-0.4
			C5.6,5.4,5.4,5.2,5.1,5.2z"/>
		<path d="M14.5,11H7V2c0-0.3-0.2-0.5-0.5-0.5S6,1.7,6,2v9H2.5c-0.1,0-0.3,0.1-0.4,0.2C2,11.3,2,11.4,2,11.6l2,12
			C4,23.8,4.3,24,4.5,24h8c0.2,0,0.5-0.2,0.5-0.4l2-12c0-0.1,0-0.3-0.1-0.4C14.8,11.1,14.6,11,14.5,11z M8.9,21.1
			c-0.1,0.1-0.2,0.2-0.4,0.2c-0.1,0-0.2,0-0.3-0.1c-0.2-0.2-0.2-0.5,0-0.7c0.9-1,0.6-1.4,0-2.1c-0.6-0.7-1.5-1.8,0-3.7
			c0.2-0.2,0.5-0.2,0.7-0.1s0.2,0.5,0.1,0.7c-1,1.2-0.6,1.7,0,2.4C9.5,18.4,10.4,19.5,8.9,21.1z"/>
	</g>
</g>
<g id="Outline_Icons">
	<g>
		<polygon class="st2" points="14.5,11.5 2.5,11.5 4.5,23.5 12.5,23.5 		"/>
		<line class="st2" x1="6.5" y1="2" x2="6.5" y2="11.5"/>
		<line class="st2" x1="8.5" y1="1" x2="8.5" y2="7"/>
		<line class="st2" x1="10.5" y1="2" x2="10.5" y2="8"/>
		<line class="st2" x1="12" y1="3.5" x2="22" y2="3.5"/>
		<line class="st2" x1="3" y1="3.5" x2="5" y2="3.5"/>
		<line class="st2" x1="12" y1="6.4" x2="21.9" y2="7.6"/>
		<line class="st2" x1="3.1" y1="5.4" x2="5" y2="5.6"/>
		<path class="st3" d="M8.5,15c-2.4,3,2.5,3.1,0,5.8"/>
	</g>
</g>
</svg>
