<?xml version="1.0" encoding="utf-8"?>
<!-- Generator: Adobe Illustrator 19.2.0, SVG Export Plug-In . SVG Version: 6.00 Build 0)  -->
<svg version="1.1" id="Layer_1" xmlns="http://www.w3.org/2000/svg" xmlns:xlink="http://www.w3.org/1999/xlink" x="0px" y="0px"
	 viewBox="0 0 24 24" style="enable-background:new 0 0 24 24;" xml:space="preserve">
<style type="text/css">
	.st0{display:none;}
	.st1{display:inline;}
	.st2{fill:none;stroke:#000000;stroke-linecap:round;stroke-linejoin:round;stroke-miterlimit:10;}
</style>
<g id="Filled_Icons" class="st0">
	<g class="st1">
		<path d="M2,3.5v19C2,23.3,2.7,24,3.5,24H5V2H3.5C2.7,2,2,2.7,2,3.5z"/>
		<path d="M20.5,2H18V0.5C18,0.2,17.8,0,17.5,0h-4C13.2,0,13,0.2,13,0.5V2H6v22h14.5c0.3,0,0.5-0.2,0.5-0.5v-21
			C21,2.2,20.8,2,20.5,2z M17,9.3l-1.1-1.1C15.8,8,15.6,8,15.5,8c-0.1,0-0.3,0-0.4,0.1L14,9.3V1h3V9.3z"/>
	</g>
</g>
<g id="Outline_Icons">
	<g>
		<path class="st2" d="M5.5,2.5h-2c-0.5,0-1,0.5-1,1v19c0,0.5,0.5,1,1,1h2"/>
		<polygon class="st2" points="17.5,10.5 15.5,8.5 13.5,10.5 13.5,0.5 17.5,0.5 		"/>
		<polyline class="st2" points="17.5,2.5 20.5,2.5 20.5,23.5 5.5,23.5 5.5,2.5 13.5,2.5 		"/>
	</g>
</g>
</svg>
