<?xml version="1.0" encoding="utf-8"?>
<!-- Generator: Adobe Illustrator 19.2.0, SVG Export Plug-In . SVG Version: 6.00 Build 0)  -->
<svg version="1.1" id="Outline_Icons" xmlns="http://www.w3.org/2000/svg" xmlns:xlink="http://www.w3.org/1999/xlink" x="0px"
	 y="0px" viewBox="0 0 24 24" style="enable-background:new 0 0 24 24;" xml:space="preserve">
<style type="text/css">
	.st0{fill:none;stroke:#000000;stroke-linecap:round;stroke-linejoin:round;stroke-miterlimit:10;}
</style>
<g>
	<polygon class="st0" points="23.5,23.5 11.5,23.5 17.5,11.5 	"/>
	<line class="st0" x1="17.5" y1="16.4" x2="17.5" y2="19.7"/>
	<g>
		<g>
			<path d="M17.5,20.8c-0.3,0-0.5,0.2-0.5,0.5s0.2,0.5,0.5,0.5c0.3,0,0.5-0.2,0.5-0.5C18,21,17.8,20.8,17.5,20.8L17.5,20.8z"/>
		</g>
	</g>
	<polyline class="st0" points="9.5,20.5 0.5,20.5 0.5,0.5 19.5,0.5 19.5,9.5 	"/>
	<g>
		<g>
			<path d="M4,1.5V3V1.5 M5,0.5H3V4h2V0.5L5,0.5z"/>
		</g>
	</g>
	<g>
		<g>
			<path d="M8,1.5V3V1.5 M9,0.5H7V4h2V0.5L9,0.5z"/>
		</g>
	</g>
	<g>
		<g>
			<path d="M16,1.5V3V1.5 M17,0.5h-2V4h2V0.5L17,0.5z"/>
		</g>
	</g>
	<g>
		<g>
			<path d="M12,1.5V3V1.5 M13,0.5h-2V4h2V0.5L13,0.5z"/>
		</g>
	</g>
</g>
</svg>
