<?xml version="1.0" encoding="utf-8"?>
<!-- Generator: Adobe Illustrator 19.2.0, SVG Export Plug-In . SVG Version: 6.00 Build 0)  -->
<svg version="1.1" id="Outline_Icons" xmlns="http://www.w3.org/2000/svg" xmlns:xlink="http://www.w3.org/1999/xlink" x="0px"
	 y="0px" viewBox="0 0 24 24" style="enable-background:new 0 0 24 24;" xml:space="preserve">
<style type="text/css">
	.st0{fill:none;stroke:#000000;stroke-linecap:round;stroke-linejoin:round;stroke-miterlimit:10;}
	.st1{fill:none;stroke:#000000;stroke-linejoin:round;stroke-miterlimit:10;}
</style>
<g>
	<g>
		<rect x="14.5" y="16.5" class="st0" width="9" height="7"/>
		<line class="st0" x1="19" y1="21.5" x2="19" y2="19.5"/>
		<path class="st0" d="M16,16.5v-1c0-1.7,1.3-3,3-3c1.7,0,3,1.3,3,3v1"/>
		<path class="st1" d="M19.5,19c0,0.3-0.2,0.5-0.5,0.5l0,0c-0.3,0-0.5-0.2-0.5-0.5l0,0c0-0.3,0.2-0.5,0.5-0.5l0,0
			C19.3,18.5,19.5,18.7,19.5,19L19.5,19z"/>
	</g>
	<polyline class="st0" points="9.5,20.5 0.5,20.5 0.5,0.5 19.5,0.5 19.5,9.5 	"/>
	<g>
		<g>
			<path d="M4,1.5V3V1.5 M5,0.5H3V4h2V0.5L5,0.5z"/>
		</g>
	</g>
	<g>
		<g>
			<path d="M8,1.5V3V1.5 M9,0.5H7V4h2V0.5L9,0.5z"/>
		</g>
	</g>
	<g>
		<g>
			<path d="M16,1.5V3V1.5 M17,0.5h-2V4h2V0.5L17,0.5z"/>
		</g>
	</g>
	<g>
		<g>
			<path d="M12,1.5V3V1.5 M13,0.5h-2V4h2V0.5L13,0.5z"/>
		</g>
	</g>
</g>
</svg>
