<?xml version="1.0" encoding="utf-8"?>
<!-- Generator: Adobe Illustrator 19.2.0, SVG Export Plug-In . SVG Version: 6.00 Build 0)  -->
<svg version="1.1" id="Outline_Icons" xmlns="http://www.w3.org/2000/svg" xmlns:xlink="http://www.w3.org/1999/xlink" x="0px"
	 y="0px" viewBox="0 0 24 24" style="enable-background:new 0 0 24 24;" xml:space="preserve">
<style type="text/css">
	.st0{fill:none;stroke:#000000;stroke-linejoin:round;stroke-miterlimit:10;}
	.st1{fill:none;stroke:#000000;stroke-linecap:round;stroke-linejoin:round;stroke-miterlimit:10;}
</style>
<g>
	<g>
		<g>
			<path class="st0" d="M15.4,12.9c-0.5,0.2-1.1,0.5-1.6,0.9l-1.2-0.7L11,15.9l1.2,0.7c-0.1,0.3-0.1,0.6-0.1,0.9s0,0.6,0.1,0.9
				L11,19.1l1.6,2.8l1.2-0.7c0.5,0.4,1,0.7,1.6,0.9v1.4h3.3v-1.4c0.5-0.2,1.1-0.5,1.5-0.9l1.2,0.7l1.6-2.8l-1.2-0.7
				c0.1-0.3,0.1-0.6,0.1-0.9c0-0.3,0-0.6-0.1-0.9l1.2-0.7l-1.6-2.8l-1.2,0.7c-0.5-0.4-1-0.7-1.5-0.9v-1.4h-3.3V12.9z"/>
		</g>
		<circle class="st0" cx="17" cy="17.5" r="2.2"/>
	</g>
	<polyline class="st1" points="9.5,20.5 0.5,20.5 0.5,0.5 19.5,0.5 19.5,9.5 	"/>
	<g>
		<g>
			<path d="M4,1.5V3V1.5 M5,0.5H3V4h2V0.5L5,0.5z"/>
		</g>
	</g>
	<g>
		<g>
			<path d="M8,1.5V3V1.5 M9,0.5H7V4h2V0.5L9,0.5z"/>
		</g>
	</g>
	<g>
		<g>
			<path d="M16,1.5V3V1.5 M17,0.5h-2V4h2V0.5L17,0.5z"/>
		</g>
	</g>
	<g>
		<g>
			<path d="M12,1.5V3V1.5 M13,0.5h-2V4h2V0.5L13,0.5z"/>
		</g>
	</g>
</g>
</svg>
