<?xml version="1.0" encoding="utf-8"?>
<!-- Generator: Adobe Illustrator 19.2.0, SVG Export Plug-In . SVG Version: 6.00 Build 0)  -->
<svg version="1.1" id="Layer_1" xmlns="http://www.w3.org/2000/svg" xmlns:xlink="http://www.w3.org/1999/xlink" x="0px" y="0px"
	 viewBox="0 0 24 24" style="enable-background:new 0 0 24 24;" xml:space="preserve">
<style type="text/css">
	.st0{display:none;}
	.st1{display:inline;}
	.st2{fill:none;stroke:#000000;stroke-linecap:round;stroke-linejoin:round;stroke-miterlimit:10;}
</style>
<g id="Filled_Icons" class="st0">
	<g class="st1">
		<path d="M2,1.5v21C2,23.3,2.7,24,3.5,24H5V0H3.5C2.7,0,2,0.7,2,1.5z"/>
		<path d="M20.5,0H6v24h14.5c0.3,0,0.5-0.2,0.5-0.5v-23C21,0.2,20.8,0,20.5,0z M17,8.5C17,8.8,16.8,9,16.5,9h-6
			C10.2,9,10,8.8,10,8.5v-3C10,5.2,10.2,5,10.5,5h6C16.8,5,17,5.2,17,5.5V8.5z"/>
	</g>
</g>
<g id="Outline_Icons">
	<g>
		<rect x="5.5" y="0.5" class="st2" width="15" height="23"/>
		<rect x="10.5" y="5.5" class="st2" width="6" height="3"/>
		<path class="st2" d="M5.5,0.5h-2c-0.5,0-1,0.5-1,1v21c0,0.5,0.5,1,1,1h2"/>
	</g>
</g>
</svg>
