<?xml version="1.0" encoding="utf-8"?>
<!-- Generator: Adobe Illustrator 19.2.0, SVG Export Plug-In . SVG Version: 6.00 Build 0)  -->
<svg version="1.1" id="Layer_1" xmlns="http://www.w3.org/2000/svg" xmlns:xlink="http://www.w3.org/1999/xlink" x="0px" y="0px"
	 viewBox="0 0 24 24" style="enable-background:new 0 0 24 24;" xml:space="preserve">
<style type="text/css">
	.st0{display:none;}
	.st1{display:inline;}
	.st2{fill:none;stroke:#000000;stroke-linecap:round;stroke-linejoin:round;stroke-miterlimit:10;}
</style>
<g id="Filled_Icons" class="st0">
	<g class="st1">
		<path d="M21.5,20c0.8,0,1.5-0.7,1.5-1.5v-2c0-0.3-0.2-0.5-0.5-0.5H22V3c0-1.1-0.9-2-2-2H3C1.9,1,1,1.9,1,3v13H0.5
			C0.2,16,0,16.2,0,16.5v2C0,19.3,0.7,20,1.5,20H11v3H0.5C0.2,23,0,23.2,0,23.5C0,23.8,0.2,24,0.5,24h21.9c0.3,0,0.5-0.2,0.5-0.5
			c0-0.3-0.2-0.5-0.5-0.5H12v-3H21.5z M3,3.5C3,3.2,3.2,3,3.5,3h16C19.8,3,20,3.2,20,3.5v11c0,0.3-0.2,0.5-0.5,0.5h-16
			C3.2,15,3,14.8,3,14.5V3.5z M1,18.5V17h0.5H9v0.5C9,17.8,9.2,18,9.5,18h4c0.3,0,0.5-0.2,0.5-0.5V17h7.5H22v1.5
			c0,0.3-0.2,0.5-0.5,0.5h-20C1.2,19,1,18.8,1,18.5z"/>
		<path d="M8.5,13h6c0.3,0,0.5-0.2,0.5-0.5v-4C15,8.2,14.8,8,14.5,8H14V7.5C14,6.1,12.9,5,11.5,5C10.1,5,9,6.1,9,7.5V8H8.5
			C8.2,8,8,8.2,8,8.5v4C8,12.8,8.2,13,8.5,13z M10,7.5C10,6.7,10.7,6,11.5,6C12.3,6,13,6.7,13,7.5V8h-3V7.5z"/>
	</g>
</g>
<g id="Outline_Icons">
	<g>
		<polygon class="st2" points="19.5,3.5 19.5,14.5 12,14.5 3.5,14.5 3.5,3.5 		"/>
		<path class="st2" d="M1.5,16.5V3c0-0.8,0.7-1.5,1.5-1.5h17c0.8,0,1.5,0.7,1.5,1.5v13.5"/>
		<path class="st2" d="M13.5,16.5v1h-4v-1h-9v2c0,0.6,0.4,1,1,1h20c0.6,0,1-0.4,1-1v-2H13.5z"/>
		<line class="st2" x1="0.5" y1="23.5" x2="22.5" y2="23.5"/>
		<line class="st2" x1="11.5" y1="23.5" x2="11.5" y2="19.5"/>
		<rect x="8.5" y="8.5" class="st2" width="6" height="4"/>
		<path class="st2" d="M9.5,7.5c0-1.1,0.9-2,2-2c1.1,0,2,0.9,2,2v1h-4V7.5z"/>
	</g>
</g>
</svg>
