<?xml version="1.0" encoding="utf-8"?>
<!-- Generator: Adobe Illustrator 19.2.0, SVG Export Plug-In . SVG Version: 6.00 Build 0)  -->
<svg version="1.1" id="Outline_Icons" xmlns="http://www.w3.org/2000/svg" xmlns:xlink="http://www.w3.org/1999/xlink" x="0px"
	 y="0px" viewBox="0 0 24 24" style="enable-background:new 0 0 24 24;" xml:space="preserve">
<style type="text/css">
	.st0{fill:none;stroke:#000000;stroke-linecap:round;stroke-linejoin:round;stroke-miterlimit:10;}
</style>
<g>
	<path class="st0" d="M1.5,18.5V6c0-0.8,0.7-1.5,1.5-1.5h18c0.8,0,1.5,0.7,1.5,1.5v12.5"/>
	<path class="st0" d="M14.5,18.5v1h-5v-1h-9v2c0,0.6,0.4,1,1,1h21c0.6,0,1-0.4,1-1v-2H14.5z"/>
	<path class="st0" d="M13.5,8.1c-0.8,0-1.5-0.4-2-1l0,0c-0.5,0.6-1.2,1-2,1c-0.7,0-1.3-0.3-2-0.8v5.9c0,0,0.6,2.1,4,3.1
		c3.4-1,4-3.1,4-3.1V7.4C14.8,7.9,14.2,8.1,13.5,8.1z"/>
	<line class="st0" x1="11.5" y1="13.5" x2="11.5" y2="9.5"/>
	<line class="st0" x1="9.5" y1="11.5" x2="13.5" y2="11.5"/>
</g>
</svg>
