<?xml version="1.0" encoding="utf-8"?>
<!-- Generator: Adobe Illustrator 19.2.0, SVG Export Plug-In . SVG Version: 6.00 Build 0)  -->
<svg version="1.1" id="Layer_1" xmlns="http://www.w3.org/2000/svg" xmlns:xlink="http://www.w3.org/1999/xlink" x="0px" y="0px"
	 viewBox="0 0 24 24" style="enable-background:new 0 0 24 24;" xml:space="preserve">
<style type="text/css">
	.st0{display:none;}
	.st1{display:inline;}
	.st2{fill:none;stroke:#000000;stroke-linejoin:round;stroke-miterlimit:10;}
</style>
<g id="Filled_Icons" class="st0">
	<g class="st1">
		<path d="M1.5,8h2.8l0.9-1.8L5,5.4c0-0.2-0.2-0.3-0.4-0.3C4.4,5,4.3,5,4.1,5.2L1.4,8C1.4,8,1.5,8,1.5,8z"/>
		<path d="M22.5,8c0,0,0.1,0,0.1,0l-2.8-2.9C19.7,5,19.6,5,19.4,5c-0.2,0-0.3,0.2-0.4,0.3l-0.2,0.8L19.7,8H22.5z"/>
		<path d="M18.6,8l-2.1-4.2c-0.1-0.2-0.3-0.3-0.4-0.3H8c-0.2,0-0.4,0.1-0.4,0.3L5.4,8H18.6z"/>
		<path d="M22.5,9h-21C0.7,9,0,9.7,0,10.5l0,0.2c0.9,2.4,1.5,4.1,2,5.4c1.3,3.7,1.4,4,2.5,4h15c1.1,0,1.2-0.3,2.5-4
			c0.5-1.3,1.1-3,2-5.4l0-0.2C24,9.7,23.3,9,22.5,9z M16,15.5c0,0.3-0.2,0.5-0.5,0.5H14v1.5c0,0.3-0.2,0.5-0.5,0.5h-2
			c-0.3,0-0.5-0.2-0.5-0.5V16H9.5C9.2,16,9,15.8,9,15.5v-2C9,13.2,9.2,13,9.5,13H11v-1.5c0-0.3,0.2-0.5,0.5-0.5h2
			c0.3,0,0.5,0.2,0.5,0.5V13h1.5c0.3,0,0.5,0.2,0.5,0.5V15.5z"/>
	</g>
</g>
<g id="Outline_Icons">
	<g>
		<path class="st2" d="M23.5,10.5c0-0.6-0.4-1-1-1h-21c-0.6,0-1,0.4-1,1c3.3,8.7,3,9,4,9h15C20.5,19.5,20.2,19.2,23.5,10.5z"/>
		<polygon class="st2" points="16,4.5 8,4.5 5.5,9.5 18.5,9.5 		"/>
		<polyline class="st2" points="18.5,9.5 19.5,6 23.4,10 		"/>
		<polyline class="st2" points="5.5,9.5 4.5,6 0.6,10 		"/>
		<polygon class="st2" points="15.5,13.5 13.5,13.5 13.5,11.5 11.5,11.5 11.5,13.5 9.5,13.5 9.5,15.5 11.5,15.5 11.5,17.5 
			13.5,17.5 13.5,15.5 15.5,15.5 		"/>
	</g>
</g>
</svg>
