<?xml version="1.0" encoding="utf-8"?>
<!-- Generator: Adobe Illustrator 19.2.0, SVG Export Plug-In . SVG Version: 6.00 Build 0)  -->
<svg version="1.1" id="Layer_1" xmlns="http://www.w3.org/2000/svg" xmlns:xlink="http://www.w3.org/1999/xlink" x="0px" y="0px"
	 viewBox="0 0 24 24" style="enable-background:new 0 0 24 24;" xml:space="preserve">
<style type="text/css">
	.st0{display:none;}
	.st1{display:inline;}
	.st2{fill:none;stroke:#000000;stroke-linecap:round;stroke-linejoin:round;stroke-miterlimit:10;}
	.st3{fill:none;stroke:#000000;stroke-linejoin:round;stroke-miterlimit:10;}
</style>
<g id="Filled_Icons" class="st0">
	<g class="st1">
		<path d="M17.8,17.1l-1.5,4.9l-3.7-0.5l-0.1,0.2V24H24v-1C24,20,21.2,18.6,17.8,17.1z"/>
		<path d="M15.6,16.2c0.3-0.3,0.6-0.6,0.8-1c0.7,0.4,1.6,0.6,2.8,0.6l0,0c1.5,0,2.8-0.3,2.9-0.3c0.2,0,0.3-0.2,0.4-0.4
			c0-0.2,0-0.4-0.2-0.5c-0.6-0.4-0.8-1.9-0.9-3.4c-0.4-2.8-0.8-6.5-4.2-8l-0.6,4.4C16.5,7.8,16.2,8,16,8h-1.4
			c0.2,0.9,0.9,2.1,1.9,2.8c-0.1,4.9-2.7,5.6-4.2,6.1c-0.1,0-0.2,0.1-0.3,0.1c-0.1,0-0.2-0.1-0.3-0.1c-1.5-0.5-4.1-1.2-4.2-6.1
			c1-0.7,1.7-1.9,1.9-2.8H8C7.8,8,7.5,7.8,7.5,7.6L6.9,3.2c-3.4,1.5-3.9,5.3-4.2,8c-0.2,1.5-0.4,2.9-0.9,3.4
			c-0.2,0.1-0.2,0.3-0.2,0.5c0,0.2,0.2,0.3,0.4,0.4c0.1,0,1.4,0.3,2.8,0.3c1.2,0,2.2-0.2,2.8-0.6c0.2,0.4,0.5,0.7,0.8,1
			c-0.1,0-0.2,0.1-0.3,0.1l4,4.4l4-4.4C15.8,16.3,15.7,16.3,15.6,16.2z"/>
		<path d="M7.7,22.1l-1.9-4.7C2.6,18.7,0,20.1,0,23v1h11.5v-2.3l-0.1-0.2L7.7,22.1z"/>
		<path d="M8.4,7H9h6h0.6l0.6-4.3c0.1-0.4-0.1-0.9-0.4-1.2C15.5,1.2,15.1,1,14.7,1H9.3C8.9,1,8.5,1.2,8.2,1.5
			C7.9,1.8,7.8,2.3,7.8,2.7L8.4,7z M10.5,3.5h1v-1C11.5,2.2,11.7,2,12,2c0.3,0,0.5,0.2,0.5,0.5v1h1C13.8,3.5,14,3.7,14,4
			c0,0.3-0.2,0.5-0.5,0.5h-1v1C12.5,5.8,12.3,6,12,6c-0.3,0-0.5-0.2-0.5-0.5v-1h-1C10.2,4.5,10,4.3,10,4C10,3.7,10.2,3.5,10.5,3.5z"
			/>
		<path d="M10,10l-0.1,0c-0.4,0-0.8,0-1.1,0.3c-0.2,0.2-0.3,0.4-0.3,0.7c0,0.3,0.2,0.5,0.5,0.5c0.3,0,0.5-0.2,0.5-0.5
			c0.1,0,0.3,0,0.4,0l0.1,0l0.1,0c0.1,0,0.3,0,0.4,0c0,0.3,0.2,0.5,0.5,0.5c0.3,0,0.5-0.2,0.5-0.5c0-0.3-0.1-0.5-0.3-0.7
			C10.9,10,10.5,10,10.1,10L10,10z"/>
		<path d="M12.8,10.3c-0.2,0.2-0.3,0.4-0.3,0.7c0,0.3,0.2,0.5,0.5,0.5c0.3,0,0.5-0.2,0.5-0.5c0.1,0,0.3,0,0.4,0l0.1,0l0.1,0
			c0.1,0,0.3,0,0.4,0c0,0.3,0.2,0.5,0.5,0.5c0.3,0,0.5-0.2,0.5-0.5c0-0.3-0.1-0.5-0.3-0.7C14.9,10,14.5,10,14.1,10L14,10l-0.1,0
			C13.5,10,13.1,10,12.8,10.3z"/>
	</g>
</g>
<g id="Outline_Icons">
	<g>
		<path class="st2" d="M14.7,16.4c4.5,2,8.8,3.1,8.8,6.6v0.5h-23V23c0-3.5,4.3-4.6,8.8-6.6"/>
		<path class="st2" d="M8,7.5h8l0.7-4.7c0.1-0.6-0.1-1.2-0.5-1.6c-0.4-0.4-0.9-0.7-1.5-0.7H9.3c-0.6,0-1.1,0.3-1.5,0.7
			c-0.4,0.4-0.6,1-0.5,1.6L8,7.5z"/>
		<line class="st2" x1="12" y1="2.5" x2="12" y2="5.5"/>
		<line class="st2" x1="10.5" y1="4" x2="13.5" y2="4"/>
		<path class="st3" d="M7.4,3.5C1.9,5.5,4,13.5,2,15c0,0,4.2,0.9,5.7-0.6"/>
		<path class="st3" d="M16.6,3.5c5.5,2,3.4,10,5.4,11.5c0,0-4.2,1-5.7-0.5"/>
		<path class="st2" d="M9,7.5c0,1-1.5,3.5-3.5,3.5"/>
		<path class="st2" d="M17,10.5c0,6-3.5,6.5-5,7c-1.5-0.5-5-1-5-7"/>
		<path class="st2" d="M15,7.5c0,1,1.5,3.5,3.5,3.5"/>
		<line class="st2" x1="8" y1="17" x2="12" y2="21.5"/>
		<line class="st2" x1="12" y1="21.5" x2="16" y2="17"/>
		<line class="st2" x1="12" y1="21.5" x2="12" y2="23.5"/>
		<polyline class="st3" points="6.5,17.6 8,21.5 11.5,21 		"/>
		<polyline class="st3" points="17.5,17.6 16,21.5 12.5,21 		"/>
		<path class="st2" d="M9,11c0-0.6,0.4-0.5,1-0.5c0.6,0,1-0.1,1,0.5"/>
		<path class="st2" d="M13,11c0-0.6,0.4-0.5,1-0.5c0.6,0,1-0.1,1,0.5"/>
	</g>
</g>
</svg>
