<?xml version="1.0" encoding="utf-8"?>
<!-- Generator: Adobe Illustrator 19.2.0, SVG Export Plug-In . SVG Version: 6.00 Build 0)  -->
<svg version="1.1" id="Layer_1" xmlns="http://www.w3.org/2000/svg" xmlns:xlink="http://www.w3.org/1999/xlink" x="0px" y="0px"
	 viewBox="0 0 24 24" style="enable-background:new 0 0 24 24;" xml:space="preserve">
<style type="text/css">
	.st0{display:none;}
	.st1{display:inline;}
	.st2{fill:none;stroke:#000000;stroke-linejoin:round;stroke-miterlimit:10;}
	.st3{fill:none;stroke:#000000;stroke-linecap:round;stroke-linejoin:round;stroke-miterlimit:10;}
</style>
<g id="Filled_Icons" class="st0">
	<g class="st1">
		<path d="M3.9,10.9c-0.5-0.7-0.3-1.6,0.3-2.1c0.7-0.5,1.6-0.3,2.1,0.3l3.6,4.9c0,0,0.1,0,0.1,0V6.3c0,0,0,0-0.1,0
			C6.5,6.5,3.2,7.6,0.2,9.4C0.1,9.5,0,9.6,0,9.8c0,0.2,0,0.3,0.1,0.4l5,5c0.1,0.1,0.2,0.1,0.4,0.1c0.1,0,0.1,0,0.2,0
			c0.3-0.2,0.7-0.3,1-0.4L3.9,10.9z"/>
		<g>
			<path d="M11.5,4C11.2,4,11,3.8,11,3.5v-1C11,2.2,11.2,2,11.5,2S12,2.2,12,2.5v1C12,3.8,11.8,4,11.5,4z"/>
		</g>
		<g>
			<path d="M11.5,7C11.2,7,11,6.8,11,6.5v-1C11,5.2,11.2,5,11.5,5S12,5.2,12,5.5v1C12,6.8,11.8,7,11.5,7z"/>
		</g>
		<g>
			<path d="M11.5,10C11.2,10,11,9.8,11,9.5v-1C11,8.2,11.2,8,11.5,8S12,8.2,12,8.5v1C12,9.8,11.8,10,11.5,10z"/>
		</g>
		<g>
			<path d="M11.5,13c-0.3,0-0.5-0.2-0.5-0.5v-1c0-0.3,0.2-0.5,0.5-0.5s0.5,0.2,0.5,0.5v1C12,12.8,11.8,13,11.5,13z"/>
		</g>
		<g>
			<path d="M11.5,16c-0.3,0-0.5-0.2-0.5-0.5v-1c0-0.3,0.2-0.5,0.5-0.5s0.5,0.2,0.5,0.5v1C12,15.8,11.8,16,11.5,16z"/>
		</g>
		<path d="M22.8,9.4c-2.9-1.8-6.3-2.9-9.7-3.1c0,0,0,0,0,0v7.9c1.5,0.2,2.9,0.6,4.3,1.2c0.1,0,0.1,0,0.2,0c0.1,0,0.3-0.1,0.4-0.1
			l5-5C23,10.1,23,9.9,23,9.8C23,9.6,22.9,9.5,22.8,9.4z"/>
		<path d="M11.5,17c-0.2,0-0.5,0-0.7,0.1L5.5,9.8C5.4,9.6,5.1,9.5,4.8,9.7c-0.2,0.2-0.3,0.5-0.1,0.7l5.2,7.2C9.4,18,9,18.7,9,19.5
			c0,1.4,1.1,2.5,2.5,2.5s2.5-1.1,2.5-2.5C14,18.1,12.9,17,11.5,17z"/>
	</g>
</g>
<g id="Outline_Icons">
	<g>
		<path class="st2" d="M10,6.8C6.5,7,3.3,8.1,0.5,9.8l5,5c1.4-0.6,2.9-1.1,4.5-1.2"/>
		<path class="st2" d="M13,13.6c1.6,0.2,3.1,0.6,4.5,1.2l5-5c-2.8-1.7-6-2.8-9.5-3.1"/>
		<circle class="st2" cx="11.5" cy="19.5" r="2"/>
		<line class="st3" x1="10.6" y1="17.7" x2="5.1" y2="10.1"/>
		<line class="st3" x1="11.5" y1="2.5" x2="11.5" y2="3.5"/>
		<line class="st3" x1="11.5" y1="5.5" x2="11.5" y2="6.5"/>
		<line class="st3" x1="11.5" y1="8.5" x2="11.5" y2="9.5"/>
		<line class="st3" x1="11.5" y1="11.5" x2="11.5" y2="12.5"/>
		<line class="st3" x1="11.5" y1="14.5" x2="11.5" y2="15.5"/>
	</g>
</g>
</svg>
