<?xml version="1.0" encoding="utf-8"?>
<!-- Generator: Adobe Illustrator 19.2.0, SVG Export Plug-In . SVG Version: 6.00 Build 0)  -->
<svg version="1.1" id="Layer_1" xmlns="http://www.w3.org/2000/svg" xmlns:xlink="http://www.w3.org/1999/xlink" x="0px" y="0px"
	 viewBox="0 0 24 24" style="enable-background:new 0 0 24 24;" xml:space="preserve">
<style type="text/css">
	.st0{display:none;}
	.st1{display:inline;}
	.st2{fill:none;stroke:#000000;stroke-linecap:round;stroke-linejoin:round;stroke-miterlimit:10;}
</style>
<g id="Filled_Icons" class="st0">
	<g class="st1">
		<path d="M23.8,9.9c0.2-0.2,0.2-0.5,0-0.7c-0.2-0.2-0.5-0.2-0.7,0C22,10.2,20,12.1,20,13v1.5v3v3c0,0.8-0.7,1.5-1.5,1.5
			S17,21.3,17,20.5V7c0-1.1-0.9-2-2-2h-1V1.5C14,1.2,13.8,1,13.5,1h-13C0.2,1,0,1.2,0,1.5V9h14V6h1c0.6,0,1,0.4,1,1v13.5
			c0,1.4,1.1,2.5,2.5,2.5s2.5-1.1,2.5-2.5v-2.7l1.7-0.9c0.2-0.1,0.3-0.3,0.3-0.4v-2c0-0.3-0.2-0.5-0.5-0.5H21l0-1
			C21.1,12.6,22.5,11.1,23.8,9.9z M12,7.5C12,7.8,11.8,8,11.5,8h-9C2.2,8,2,7.8,2,7.5v-4C2,3.2,2.2,3,2.5,3h9C11.8,3,12,3.2,12,3.5
			V7.5z"/>
		<path d="M0,22.5C0,22.8,0.2,23,0.5,23h13c0.3,0,0.5-0.2,0.5-0.5V10H0V22.5z M8,13.5C8,13.2,8.2,13,8.5,13h2c0.3,0,0.5,0.2,0.5,0.5
			v4c0,0.3-0.2,0.5-0.5,0.5h-2C8.2,18,8,17.8,8,17.5V13.5z M8.5,19h2c0.3,0,0.5,0.2,0.5,0.5S10.8,20,10.5,20h-2
			C8.2,20,8,19.8,8,19.5C8,19.2,8.2,19,8.5,19z"/>
	</g>
</g>
<g id="Outline_Icons">
	<g>
		<rect x="0.5" y="1.5" class="st2" width="13" height="21"/>
		<rect x="8.5" y="13.5" class="st2" width="2" height="4"/>
		<polygon class="st2" points="22.5,16.5 20.5,17.5 20.5,14.5 22.5,14.5 		"/>
		<path class="st2" d="M20.5,14.5V13c0-0.8,3-3.5,3-3.5"/>
		<path class="st2" d="M20.5,17.5v3c0,1.1-0.9,2-2,2c-1.1,0-2-0.9-2-2V7c0-0.8-0.7-1.5-1.5-1.5h-1.5"/>
		<line class="st2" x1="0.5" y1="9.5" x2="13.5" y2="9.5"/>
		<rect x="2.5" y="3.5" class="st2" width="9" height="4"/>
		<line class="st2" x1="8.5" y1="19.5" x2="10.5" y2="19.5"/>
	</g>
</g>
</svg>
