<?xml version="1.0" encoding="utf-8"?>
<!-- Generator: Adobe Illustrator 19.2.0, SVG Export Plug-In . SVG Version: 6.00 Build 0)  -->
<svg version="1.1" id="Layer_1" xmlns="http://www.w3.org/2000/svg" xmlns:xlink="http://www.w3.org/1999/xlink" x="0px" y="0px"
	 viewBox="0 0 24 24" style="enable-background:new 0 0 24 24;" xml:space="preserve">
<style type="text/css">
	.st0{display:none;}
	.st1{display:inline;}
	.st2{fill:none;stroke:#000000;stroke-linecap:round;stroke-linejoin:round;stroke-miterlimit:10;}
</style>
<g id="Filled_Icons" class="st0">
	<g class="st1">
		<g>
			<path d="M15,8.5H8C7.7,8.5,7.5,8.3,7.5,8S7.7,7.5,8,7.5h7c0.3,0,0.5,0.2,0.5,0.5S15.3,8.5,15,8.5z"/>
		</g>
		<g>
			<path d="M13.8,3.9c-0.1,0-0.2,0-0.3-0.1c-0.2-0.2-0.3-0.5-0.1-0.7c1-1.4,2.9-2,4.6-1.5c0.3,0.1,0.4,0.4,0.3,0.6
				c-0.1,0.3-0.4,0.4-0.6,0.3c-1.2-0.4-2.7,0-3.4,1.1C14.1,3.8,14,3.9,13.8,3.9z"/>
		</g>
		<g>
			<path d="M9.2,3.9C9,3.9,8.9,3.8,8.8,3.7C8,2.6,6.6,2.2,5.3,2.6c-0.3,0.1-0.5,0-0.6-0.3s0-0.5,0.3-0.6c1.7-0.6,3.5,0,4.6,1.5
				c0.2,0.2,0.1,0.5-0.1,0.7C9.4,3.9,9.3,3.9,9.2,3.9z"/>
		</g>
		<g>
			<path d="M11.5,3.5C11.2,3.5,11,3.3,11,3V0.5C11,0.2,11.2,0,11.5,0S12,0.2,12,0.5V3C12,3.3,11.8,3.5,11.5,3.5z"/>
		</g>
		<g>
			<polygon points="13.9,9.7 13.9,9.5 9.1,9.5 9,9.6 11.5,11.5 			"/>
			<polygon points="8.6,10.6 6.9,14.8 10.6,12.1 			"/>
			<path d="M6.3,16.4C6.2,16.4,6.2,16.4,6.3,16.4l-2.7,6.3l6.9-3.9L6.3,16.4z"/>
			<polygon points="16.1,14.9 14.3,10.6 12.3,12.1 			"/>
			<path d="M12,4.8c-0.2-0.4-0.8-0.4-0.9,0l-0.7,1.7h2.3L12,4.8z"/>
			<polygon points="7.2,15.8 11.5,18.2 15.8,15.8 11.5,12.7 			"/>
			<path d="M19.4,22.7l-2.6-6.1c-0.1,0-0.1,0-0.1,0l-0.1,0l-4.1,2.3L19.4,22.7z"/>
			<path d="M21,23h-3.1l-6.4-3.6L5.1,23H2c-0.3,0-0.5,0.2-0.5,0.5S1.7,24,2,24h19c0.3,0,0.5-0.2,0.5-0.5S21.3,23,21,23z"/>
		</g>
	</g>
</g>
<g id="Outline_Icons">
	<g>
		<line class="st2" x1="2" y1="23.5" x2="21" y2="23.5"/>
		<line class="st2" x1="8" y1="8.5" x2="15" y2="8.5"/>
		<polyline class="st2" points="3.8,23.5 10.5,7.5 11.5,5 12.5,7.5 19.2,23.5 		"/>
		<line class="st2" x1="7" y1="16" x2="19" y2="23"/>
		<line class="st2" x1="16" y1="16" x2="4" y2="23"/>
		<line class="st2" x1="9.2" y1="10.7" x2="16" y2="16"/>
		<line class="st2" x1="13.8" y1="10.7" x2="7" y2="16"/>
		<path class="st2" d="M13.8,3.4c0.9-1.2,2.5-1.8,4-1.3"/>
		<path class="st2" d="M9.2,3.4c-0.9-1.2-2.5-1.8-4-1.3"/>
		<line class="st2" x1="11.5" y1="3" x2="11.5" y2="0.5"/>
	</g>
</g>
</svg>
