<?xml version="1.0" encoding="utf-8"?>
<!-- Generator: Adobe Illustrator 19.2.0, SVG Export Plug-In . SVG Version: 6.00 Build 0)  -->
<svg version="1.1" id="Layer_1" xmlns="http://www.w3.org/2000/svg" xmlns:xlink="http://www.w3.org/1999/xlink" x="0px" y="0px"
	 viewBox="0 0 24 24" style="enable-background:new 0 0 24 24;" xml:space="preserve">
<style type="text/css">
	.st0{display:none;}
	.st1{display:inline;}
	.st2{fill:none;stroke:#000000;stroke-linejoin:round;stroke-miterlimit:10;}
	.st3{fill:none;stroke:#000000;stroke-linecap:round;stroke-linejoin:round;stroke-miterlimit:10;}
</style>
<g id="Filled_Icons" class="st0">
	<g class="st1">
		<path d="M7,5V3.5C7,3.2,6.8,3,6.5,3h-4C2.2,3,2,3.2,2,3.5V5H7z"/>
		<path d="M19.5,1h-9C9.1,1,8,2.1,8,3.5V6H1.5C1.2,6,1,6.2,1,6.5v16C1,23.3,1.7,24,2.5,24h18c0.8,0,1.5-0.7,1.5-1.5v-19
			C22,2.1,20.9,1,19.5,1z M17.2,19c0.4,0.4,0.4,1,0,1.4c-0.2,0.2-0.5,0.3-0.7,0.3c-0.3,0-0.5-0.1-0.7-0.3l-4.2-4.2l-4.2,4.2
			c-0.2,0.2-0.5,0.3-0.7,0.3S6,20.6,5.8,20.4c-0.4-0.4-0.4-1,0-1.4l4.2-4.2l-4.2-4.2c-0.4-0.4-0.4-1,0-1.4s1-0.4,1.4,0l4.2,4.2
			l4.2-4.2c0.4-0.4,1-0.4,1.4,0c0.4,0.4,0.4,1,0,1.4l-4.2,4.2L17.2,19z M18.5,6h-7C10.7,6,10,5.3,10,4.5S10.7,3,11.5,3h7
			C19.3,3,20,3.7,20,4.5S19.3,6,18.5,6z"/>
	</g>
</g>
<g id="Outline_Icons">
	<g>
		<path class="st2" d="M21.5,22.5c0,0.6-0.4,1-1,1h-18c-0.6,0-1-0.4-1-1v-16h7v-3c0-1.1,0.9-2,2-2h9c1.1,0,2,0.9,2,2V22.5z"/>
		<path class="st2" d="M11.5,3.5c-0.6,0-1,0.4-1,1v1c0,0.6,0.4,1,1,1h7c0.6,0,1-0.4,1-1v-1c0-0.6-0.4-1-1-1H11.5z"/>
		<line class="st3" x1="6.6" y1="9.8" x2="16.4" y2="19.7"/>
		<line class="st3" x1="16.4" y1="9.8" x2="6.6" y2="19.7"/>
		<rect x="2.5" y="3.5" class="st3" width="4" height="3"/>
	</g>
</g>
</svg>
