<?xml version="1.0" encoding="utf-8"?>
<!-- Generator: Adobe Illustrator 19.2.0, SVG Export Plug-In . SVG Version: 6.00 Build 0)  -->
<svg version="1.1" id="Layer_1" xmlns="http://www.w3.org/2000/svg" xmlns:xlink="http://www.w3.org/1999/xlink" x="0px" y="0px"
	 viewBox="0 0 24 24" style="enable-background:new 0 0 24 24;" xml:space="preserve">
<style type="text/css">
	.st0{display:none;}
	.st1{display:inline;}
	.st2{fill:none;stroke:#000000;stroke-linejoin:round;stroke-miterlimit:10;}
	.st3{fill:none;stroke:#000000;stroke-linecap:round;stroke-linejoin:round;stroke-miterlimit:10;}
</style>
<g id="Filled_Icons" class="st0">
	<g class="st1">
		<path d="M2.5,3.5H4v5h16v-5h1.5C21.8,3.5,22,3.3,22,3s-0.2-0.5-0.5-0.5h-19C2.2,2.5,2,2.7,2,3C2,3.3,2.2,3.5,2.5,3.5z"/>
		<path d="M19,1.5v-1C19,0.2,18.8,0,18.5,0h-4C14.2,0,14,0.2,14,0.5v1H19z"/>
		<path d="M2.5,10.5H4v5h16v-5h1.5c0.3,0,0.5-0.2,0.5-0.5s-0.2-0.5-0.5-0.5h-19C2.2,9.5,2,9.7,2,10S2.2,10.5,2.5,10.5z"/>
		<path d="M21.5,23h-19C2.2,23,2,23.2,2,23.5S2.2,24,2.5,24h19c0.3,0,0.5-0.2,0.5-0.5S21.8,23,21.5,23z"/>
		<path d="M2.5,17.5H4V22h16v-4.5h1.5c0.3,0,0.5-0.2,0.5-0.5s-0.2-0.5-0.5-0.5h-19C2.2,16.5,2,16.7,2,17S2.2,17.5,2.5,17.5z"/>
	</g>
</g>
<g id="Outline_Icons">
	<g>
		<rect x="4.5" y="2.5" class="st2" width="15" height="21"/>
		<line class="st3" x1="2.5" y1="2.5" x2="21.5" y2="2.5"/>
		<line class="st3" x1="2.5" y1="23.5" x2="21.5" y2="23.5"/>
		<line class="st3" x1="2.5" y1="16.5" x2="21.5" y2="16.5"/>
		<line class="st3" x1="2.5" y1="9.5" x2="21.5" y2="9.5"/>
		<rect x="14.5" y="0.5" class="st3" width="4" height="2"/>
	</g>
</g>
</svg>
