<?xml version="1.0" encoding="utf-8"?>
<!-- Generator: Adobe Illustrator 19.2.0, SVG Export Plug-In . SVG Version: 6.00 Build 0)  -->
<svg version="1.1" id="Layer_1" xmlns="http://www.w3.org/2000/svg" xmlns:xlink="http://www.w3.org/1999/xlink" x="0px" y="0px"
	 viewBox="0 0 24 24" style="enable-background:new 0 0 24 24;" xml:space="preserve">
<style type="text/css">
	.st0{display:none;}
	.st1{display:inline;}
	.st2{fill:none;stroke:#000000;stroke-linecap:round;stroke-linejoin:round;stroke-miterlimit:10;}
	.st3{fill:none;stroke:#000000;stroke-linejoin:round;stroke-miterlimit:10;}
</style>
<g id="Filled_Icons" class="st0">
	<g class="st1">
		<g>
			<path d="M11.5,22.4l1.5-1.5v-2.4c0-0.8,0.7-1.5,1.5-1.5c0.2,0,0.3,0,0.5,0.1v-0.6c0-0.8,0.7-1.5,1.5-1.5c0.2,0,0.3,0,0.5,0.1
				v-0.6c0-0.6,0.4-1.1,0.9-1.4L19,0.6c0-0.1,0-0.3-0.1-0.4C18.8,0.1,18.6,0,18.5,0h-15C3.4,0,3.2,0.1,3.1,0.2S3,0.4,3,0.6l2,23
				C5,23.8,5.2,24,5.5,24h5.7C11,23.5,11.1,22.8,11.5,22.4z M4.7,8L4,1H18l-0.6,7H4.7z"/>
		</g>
		<path d="M23.5,15h-1.8l1.1-1.1c0.2-0.2,0.2-0.5,0-0.7c-0.2-0.2-0.5-0.2-0.7,0L21,14.3v-1.8c0-0.3-0.2-0.5-0.5-0.5S20,12.2,20,12.5
			v2.8l-1,1v-1.8c0-0.3-0.2-0.5-0.5-0.5S18,14.2,18,14.5v2.8l-1,1v-1.8c0-0.3-0.2-0.5-0.5-0.5S16,16.2,16,16.5v2.8l-1,1v-1.8
			c0-0.3-0.2-0.5-0.5-0.5S14,18.2,14,18.5v2.8l-1.8,1.8c-0.2,0.2-0.2,0.5,0,0.7c0.1,0.1,0.2,0.1,0.4,0.1c0.1,0,0.3,0,0.4-0.1
			l1.8-1.8h2.8c0.3,0,0.5-0.2,0.5-0.5S17.8,21,17.5,21h-1.8l1-1h2.8c0.3,0,0.5-0.2,0.5-0.5S19.8,19,19.5,19h-1.8l1-1h2.8
			c0.3,0,0.5-0.2,0.5-0.5S21.8,17,21.5,17h-1.8l1-1h2.8c0.3,0,0.5-0.2,0.5-0.5C24,15.2,23.8,15,23.5,15z"/>
	</g>
</g>
<g id="Outline_Icons">
	<g>
		<polyline class="st2" points="10,23.5 5.5,23.5 3.5,0.5 18.5,0.5 17.4,13 		"/>
		<line class="st3" x1="4.2" y1="8.5" x2="17.8" y2="8.5"/>
		<g>
			<line class="st2" x1="22.4" y1="13.6" x2="12.6" y2="23.5"/>
			<polyline class="st2" points="20.5,12.5 20.5,15.5 23.5,15.5 			"/>
			<polyline class="st2" points="18.5,14.5 18.5,17.5 21.5,17.5 			"/>
			<polyline class="st2" points="16.5,16.5 16.5,19.5 19.5,19.5 			"/>
			<polyline class="st2" points="14.5,18.5 14.5,21.5 17.5,21.5 			"/>
		</g>
	</g>
</g>
</svg>
