<?xml version="1.0" encoding="utf-8"?>
<!-- Generator: Adobe Illustrator 19.2.0, SVG Export Plug-In . SVG Version: 6.00 Build 0)  -->
<svg version="1.1" id="Layer_1" xmlns="http://www.w3.org/2000/svg" xmlns:xlink="http://www.w3.org/1999/xlink" x="0px" y="0px"
	 viewBox="0 0 24 24" style="enable-background:new 0 0 24 24;" xml:space="preserve">
<style type="text/css">
	.st0{display:none;}
	.st1{display:inline;}
	.st2{fill:none;stroke:#000000;stroke-linecap:round;stroke-linejoin:round;stroke-miterlimit:10;}
	.st3{fill:none;stroke:#000000;stroke-linejoin:round;stroke-miterlimit:10;}
</style>
<g id="Filled_Icons" class="st0">
	<g class="st1">
		<path d="M19.5,5H6.8L3.4,0.2L2.6,0.8L5.5,5h-1C4.2,5,4,5.2,4,5.5v3C4,8.8,4.2,9,4.5,9h15C19.8,9,20,8.8,20,8.5v-3
			C20,5.2,19.8,5,19.5,5z"/>
		<g>
			<path d="M11.5,22.4l1.5-1.5v-2.4c0-0.8,0.7-1.5,1.5-1.5c0.2,0,0.3,0,0.5,0.1v-0.6c0-0.8,0.7-1.5,1.5-1.5c0.2,0,0.3,0,0.5,0.1
				v-0.6c0-0.7,0.5-1.3,1.2-1.5l0.2-3H5.6l0.9,13.5C6.5,23.8,6.7,24,7,24h4.2C11,23.5,11.1,22.8,11.5,22.4z M7.3,18
				c-0.3,0-0.5-0.2-0.5-0.5l-0.3-5c0-0.1,0-0.3,0.1-0.4C6.7,12.1,6.9,12,7,12c1.7,0,3.2,1.4,3.2,3C10.2,16.7,9,18,7.3,18z"/>
		</g>
		<path d="M23.5,15h-1.8l1.1-1.1c0.2-0.2,0.2-0.5,0-0.7c-0.2-0.2-0.5-0.2-0.7,0L21,14.3v-1.8c0-0.3-0.2-0.5-0.5-0.5S20,12.2,20,12.5
			v2.8l-1,1v-1.8c0-0.3-0.2-0.5-0.5-0.5S18,14.2,18,14.5v2.8l-1,1v-1.8c0-0.3-0.2-0.5-0.5-0.5S16,16.2,16,16.5v2.8l-1,1v-1.8
			c0-0.3-0.2-0.5-0.5-0.5S14,18.2,14,18.5v2.8l-1.8,1.8c-0.2,0.2-0.2,0.5,0,0.7c0.1,0.1,0.2,0.1,0.4,0.1c0.1,0,0.3,0,0.4-0.1
			l1.8-1.8h2.8c0.3,0,0.5-0.2,0.5-0.5S17.8,21,17.5,21h-1.8l1-1h2.8c0.3,0,0.5-0.2,0.5-0.5S19.8,19,19.5,19h-1.8l1-1h2.8
			c0.3,0,0.5-0.2,0.5-0.5S21.8,17,21.5,17h-1.8l1-1h2.8c0.3,0,0.5-0.2,0.5-0.5C24,15.2,23.8,15,23.5,15z"/>
	</g>
</g>
<g id="Outline_Icons">
	<g>
		<g>
			<line class="st2" x1="22.4" y1="13.6" x2="12.6" y2="23.5"/>
			<polyline class="st2" points="20.5,12.5 20.5,15.5 23.5,15.5 			"/>
			<polyline class="st2" points="18.5,14.5 18.5,17.5 21.5,17.5 			"/>
			<polyline class="st2" points="16.5,16.5 16.5,19.5 19.5,19.5 			"/>
			<polyline class="st2" points="14.5,18.5 14.5,21.5 17.5,21.5 			"/>
		</g>
		<polyline class="st2" points="10.6,23.5 7.2,23.5 6.2,8.5 18.2,8.5 18,12 		"/>
		<rect x="4.5" y="5.5" class="st2" width="15" height="3"/>
		<line class="st2" x1="6.8" y1="5.5" x2="3.2" y2="0.5"/>
		<path class="st3" d="M6.5,12.5c1.4,0,2.7,1.1,2.7,2.5c0,1.4-1,2.5-2.4,2.5"/>
	</g>
</g>
</svg>
