<?xml version="1.0" encoding="utf-8"?>
<!-- Generator: Adobe Illustrator 19.2.0, SVG Export Plug-In . SVG Version: 6.00 Build 0)  -->
<svg version="1.1" id="Layer_1" xmlns="http://www.w3.org/2000/svg" xmlns:xlink="http://www.w3.org/1999/xlink" x="0px" y="0px"
	 viewBox="0 0 24 24" style="enable-background:new 0 0 24 24;" xml:space="preserve">
<style type="text/css">
	.st0{display:none;}
	.st1{display:inline;}
	.st2{fill:none;stroke:#000000;stroke-linecap:round;stroke-linejoin:round;stroke-miterlimit:10;}
</style>
<g id="Filled_Icons" class="st0">
	<g class="st1">
		<g>
			<path d="M6.5,3.5h6C12.8,3.5,13,3.3,13,3V0.5C13,0.2,12.8,0,12.5,0h-6C6.2,0,6,0.2,6,0.5V3C6,3.3,6.2,3.5,6.5,3.5z"/>
			<path d="M11.5,22.4l1.5-1.5v-2.4c0-0.8,0.7-1.5,1.5-1.5c0.2,0,0.3,0,0.5,0.1v-0.6c0-0.7,0.4-1.2,1-1.4v-0.6c0-3.5-1.3-5.8-4-6.9
				V4.5H7v3.1c-2.7,1-4,3.3-4,6.9v8C3,23.3,3.7,24,4.5,24h6.7C11,23.5,11.1,22.8,11.5,22.4z M7.1,14.6c0-1.2,1.7-3.1,2-3.5
				c0.2-0.2,0.6-0.2,0.7,0c0.3,0.4,2,2.3,2,3.5c0,1.3-1.1,2.4-2.4,2.4C8.2,17,7.1,15.9,7.1,14.6z"/>
		</g>
		<path d="M23.5,15h-1.8l1.1-1.1c0.2-0.2,0.2-0.5,0-0.7c-0.2-0.2-0.5-0.2-0.7,0L21,14.3v-1.8c0-0.3-0.2-0.5-0.5-0.5S20,12.2,20,12.5
			v2.8l-1,1v-1.8c0-0.3-0.2-0.5-0.5-0.5S18,14.2,18,14.5v2.8l-1,1v-1.8c0-0.3-0.2-0.5-0.5-0.5S16,16.2,16,16.5v2.8l-1,1v-1.8
			c0-0.3-0.2-0.5-0.5-0.5S14,18.2,14,18.5v2.8l-1.8,1.8c-0.2,0.2-0.2,0.5,0,0.7c0.1,0.1,0.2,0.1,0.4,0.1c0.1,0,0.3,0,0.4-0.1
			l1.8-1.8h2.8c0.3,0,0.5-0.2,0.5-0.5S17.8,21,17.5,21h-1.8l1-1h2.8c0.3,0,0.5-0.2,0.5-0.5S19.8,19,19.5,19h-1.8l1-1h2.8
			c0.3,0,0.5-0.2,0.5-0.5S21.8,17,21.5,17h-1.8l1-1h2.8c0.3,0,0.5-0.2,0.5-0.5C24,15.2,23.8,15,23.5,15z"/>
	</g>
</g>
<g id="Outline_Icons">
	<g>
		<g>
			<line class="st2" x1="22.4" y1="13.6" x2="12.6" y2="23.5"/>
			<polyline class="st2" points="20.5,12.5 20.5,15.5 23.5,15.5 			"/>
			<polyline class="st2" points="18.5,14.5 18.5,17.5 21.5,17.5 			"/>
			<polyline class="st2" points="16.5,16.5 16.5,19.5 19.5,19.5 			"/>
			<polyline class="st2" points="14.5,18.5 14.5,21.5 17.5,21.5 			"/>
		</g>
		<rect x="6.5" y="0.5" class="st2" width="6" height="3"/>
		<path class="st2" d="M15.5,14.5c0-3-1-5.5-4-6.5c0-1,0-4.5,0-4.5"/>
		<path class="st2" d="M7.5,3.5c0,0,0,3.5,0,4.5c-3,1-4,3.5-4,6.5c0,2.2,0,6.2,0,8c0,0.6,0.4,1,1,1H10"/>
		<path class="st2" d="M11.4,14.6c0,1-0.8,1.9-1.9,1.9c-1,0-1.9-0.8-1.9-1.9c0-1,1.9-3.1,1.9-3.1S11.4,13.6,11.4,14.6z"/>
	</g>
</g>
</svg>
