<?xml version="1.0" encoding="utf-8"?>
<!-- Generator: Adobe Illustrator 19.2.0, SVG Export Plug-In . SVG Version: 6.00 Build 0)  -->
<svg version="1.1" id="Layer_1" xmlns="http://www.w3.org/2000/svg" xmlns:xlink="http://www.w3.org/1999/xlink" x="0px" y="0px"
	 viewBox="0 0 24 24" style="enable-background:new 0 0 24 24;" xml:space="preserve">
<style type="text/css">
	.st0{display:none;}
	.st1{display:inline;}
	.st2{fill:none;stroke:#000000;stroke-linecap:round;stroke-linejoin:round;stroke-miterlimit:10;}
</style>
<g id="Filled_Icons" class="st0">
	<g class="st1">
		<g>
			<path d="M23.5,23h-8.4l-1,1h9.4c0.3,0,0.5-0.2,0.5-0.5S23.8,23,23.5,23z"/>
		</g>
		<path d="M23.5,15h-1.8l1.1-1.1c0.2-0.2,0.2-0.5,0-0.7c-0.2-0.2-0.5-0.2-0.7,0L21,14.3v-1.8c0-0.3-0.2-0.5-0.5-0.5S20,12.2,20,12.5
			v2.8l-1,1v-1.8c0-0.3-0.2-0.5-0.5-0.5S18,14.2,18,14.5v2.8l-1,1v-1.8c0-0.3-0.2-0.5-0.5-0.5S16,16.2,16,16.5v2.8l-1,1v-1.8
			c0-0.3-0.2-0.5-0.5-0.5S14,18.2,14,18.5v2.8l-1.8,1.8c-0.2,0.2-0.2,0.5,0,0.7c0.1,0.1,0.2,0.1,0.4,0.1c0.1,0,0.3,0,0.4-0.1
			l1.8-1.8h2.8c0.3,0,0.5-0.2,0.5-0.5S17.8,21,17.5,21h-1.8l1-1h2.8c0.3,0,0.5-0.2,0.5-0.5S19.8,19,19.5,19h-1.8l1-1h2.8
			c0.3,0,0.5-0.2,0.5-0.5S21.8,17,21.5,17h-1.8l1-1h2.8c0.3,0,0.5-0.2,0.5-0.5C24,15.2,23.8,15,23.5,15z"/>
		<path d="M20,8h-2V7.5C18,7.2,17.8,7,17.5,7h-7v3H12c0.3,0,0.5,0.2,0.5,0.5v6c0,0.3-0.2,0.5-0.5,0.5H8c-0.3,0-0.5-0.2-0.5-0.5v-6
			C7.5,10.2,7.7,10,8,10h1.5V7h-7C2.2,7,2,7.2,2,7.5V16c0,3,1.7,5.6,4.1,7H0.5C0.2,23,0,23.2,0,23.5S0.2,24,0.5,24h10.7
			c-0.2-0.5-0.1-1.2,0.3-1.6l1.5-1.5v-2.4c0-0.8,0.7-1.5,1.5-1.5c0.2,0,0.3,0,0.5,0.1v-0.6c0-0.8,0.7-1.5,1.5-1.5
			c0.2,0,0.3,0,0.5,0.1v-0.6c0-0.7,0.4-1.2,1-1.4V9h2c1.6,0,2.5,1.5,2.5,3.1c0.4,0,0.7,0.1,1,0.4c0-0.2,0-0.3,0-0.5
			C23.5,9.7,22,8,20,8z"/>
	</g>
</g>
<g id="Outline_Icons">
	<g>
		<g>
			<line class="st2" x1="22.4" y1="13.6" x2="12.6" y2="23.5"/>
			<polyline class="st2" points="20.5,12.5 20.5,15.5 23.5,15.5 			"/>
			<polyline class="st2" points="18.5,14.5 18.5,17.5 21.5,17.5 			"/>
			<polyline class="st2" points="16.5,16.5 16.5,19.5 19.5,19.5 			"/>
			<polyline class="st2" points="14.5,18.5 14.5,21.5 17.5,21.5 			"/>
		</g>
		<path class="st2" d="M17.5,13.1V7.5h-15V16c0,4.1,3.4,7.5,7.5,7.5"/>
		<path class="st2" d="M23,12c0-1.8-1.2-3.5-3-3.5h-2.5"/>
		<line class="st2" x1="0.5" y1="23.5" x2="23.5" y2="23.5"/>
		<line class="st2" x1="10.5" y1="7.5" x2="10.5" y2="10.5"/>
		<rect x="8.5" y="10.5" class="st2" width="4" height="6"/>
	</g>
</g>
</svg>
