<?xml version="1.0" encoding="utf-8"?>
<!-- Generator: Adobe Illustrator 19.2.0, SVG Export Plug-In . SVG Version: 6.00 Build 0)  -->
<svg version="1.1" id="Layer_1" xmlns="http://www.w3.org/2000/svg" xmlns:xlink="http://www.w3.org/1999/xlink" x="0px" y="0px"
	 viewBox="0 0 24 24" style="enable-background:new 0 0 24 24;" xml:space="preserve">
<style type="text/css">
	.st0{display:none;}
	.st1{display:inline;}
	.st2{fill:none;stroke:#000000;stroke-linecap:round;stroke-linejoin:round;stroke-miterlimit:10;}
	.st3{fill:none;stroke:#000000;stroke-linejoin:round;stroke-miterlimit:10;}
</style>
<g id="Filled_Icons" class="st0">
	<g class="st1">
		<path d="M23.7,10l-4.3-4.3c0,0,0,0,0,0c0,0-4.6,4.2-4.6,4.2S23.7,10,23.7,10z"/>
		<path d="M19,3c0-1.7-1.6-3-3.5-3h-7C6.6,0,5,1.4,5,3v2h14V3z"/>
		<path d="M4.5,6c-0.1,0-4.2,4-4.2,4h13l4.4-4C17.7,6,4.5,6,4.5,6z"/>
		<path d="M11.5,22.4l1.5-1.5v-2.4V11H0v12.5C0,23.8,0.2,24,0.5,24h10.7C11,23.5,11.1,22.8,11.5,22.4z M11,17.5
			c0,0.3-0.2,0.5-0.5,0.5h-8C2.2,18,2,17.8,2,17.5v-4C2,13.2,2.2,13,2.5,13h8c0.3,0,0.5,0.2,0.5,0.5V17.5z"/>
		<g>
			<path d="M14.5,17c0.2,0,0.3,0,0.5,0.1v-0.6c0-0.8,0.7-1.5,1.5-1.5c0.2,0,0.3,0,0.5,0.1v-0.6c0-0.8,0.7-1.5,1.5-1.5
				c0.2,0,0.3,0,0.5,0.1v-0.6c0-0.8,0.7-1.5,1.5-1.5H14v6.1C14.2,17,14.3,17,14.5,17z"/>
		</g>
		<path d="M23.5,15h-1.8l1.1-1.1c0.2-0.2,0.2-0.5,0-0.7c-0.2-0.2-0.5-0.2-0.7,0L21,14.3v-1.8c0-0.3-0.2-0.5-0.5-0.5S20,12.2,20,12.5
			v2.8l-1,1v-1.8c0-0.3-0.2-0.5-0.5-0.5S18,14.2,18,14.5v2.8l-1,1v-1.8c0-0.3-0.2-0.5-0.5-0.5S16,16.2,16,16.5v2.8l-1,1v-1.8
			c0-0.3-0.2-0.5-0.5-0.5S14,18.2,14,18.5v2.8l-1.8,1.8c-0.2,0.2-0.2,0.5,0,0.7c0.1,0.1,0.2,0.1,0.4,0.1c0.1,0,0.3,0,0.4-0.1
			l1.8-1.8h2.8c0.3,0,0.5-0.2,0.5-0.5S17.8,21,17.5,21h-1.8l1-1h2.8c0.3,0,0.5-0.2,0.5-0.5S19.8,19,19.5,19h-1.8l1-1h2.8
			c0.3,0,0.5-0.2,0.5-0.5S21.8,17,21.5,17h-1.8l1-1h2.8c0.3,0,0.5-0.2,0.5-0.5C24,15.2,23.8,15,23.5,15z"/>
	</g>
</g>
<g id="Outline_Icons">
	<g>
		<g>
			<line class="st2" x1="22.4" y1="13.6" x2="12.6" y2="23.5"/>
			<polyline class="st2" points="20.5,12.5 20.5,15.5 23.5,15.5 			"/>
			<polyline class="st2" points="18.5,14.5 18.5,17.5 21.5,17.5 			"/>
			<polyline class="st2" points="16.5,16.5 16.5,19.5 19.5,19.5 			"/>
			<polyline class="st2" points="14.5,18.5 14.5,21.5 17.5,21.5 			"/>
		</g>
		<polyline class="st2" points="13.5,10.5 0.5,10.5 0.5,23.5 10,23.5 		"/>
		<polyline class="st2" points="23.5,10.5 18.5,5.5 13.5,10.5 13.5,16 		"/>
		<polyline class="st2" points="0.5,10.5 5.5,5.5 18.5,5.5 		"/>
		<path class="st2" d="M18.5,5.5c0,0,0-1.1,0-2.5s-1.4-2.5-3-2.5h-7c-1.6,0-3,1.1-3,2.5s0,2.5,0,2.5"/>
		<rect x="2.5" y="13.5" class="st2" width="8" height="4"/>
		<line class="st3" x1="13.5" y1="10.5" x2="23.5" y2="10.5"/>
	</g>
</g>
</svg>
