<?xml version="1.0" encoding="utf-8"?>
<!-- Generator: Adobe Illustrator 19.2.0, SVG Export Plug-In . SVG Version: 6.00 Build 0)  -->
<svg version="1.1" id="Layer_1" xmlns="http://www.w3.org/2000/svg" xmlns:xlink="http://www.w3.org/1999/xlink" x="0px" y="0px"
	 viewBox="0 0 24 24" style="enable-background:new 0 0 24 24;" xml:space="preserve">
<style type="text/css">
	.st0{display:none;}
	.st1{display:inline;}
	.st2{fill:none;stroke:#000000;stroke-linejoin:round;stroke-miterlimit:10;}
</style>
<g id="Filled_Icon" class="st0">
	<g class="st1">
		<path d="M23.9,2.3c-0.2-0.1-0.4-0.2-0.6-0.1L19,4.6v11.3l5-13.1C24.1,2.6,24,2.4,23.9,2.3z"/>
		<path d="M11.7,6.6l6.3,9v-15c0-0.2-0.1-0.4-0.3-0.5c-0.2-0.1-0.4,0-0.5,0.1L11.3,6C11.4,6.2,11.6,6.4,11.7,6.6z"/>
		<path d="M3.2,8.2C3.2,8.2,3.2,8.2,3.2,8.2l-3,3C0,11.3,0,11.5,0.1,11.7C0.1,11.9,0.3,12,0.5,12h4.6L3.2,8.2z"/>
		<path d="M9.5,7h-5C4.3,7,4.2,7.1,4.1,7.2C4,7.4,4,7.6,4.1,7.7l5.4,10.4V7z"/>
		<path d="M22,23L10.9,7.2C10.8,7.1,10.7,7,10.5,7v12.5l10.9,4.3c0.1,0,0.1,0,0.2,0c0.1,0,0.3-0.1,0.4-0.2
			C22.1,23.5,22.1,23.2,22,23z"/>
	</g>
</g>
<g id="Outline_Icons">
	<g>
		<polygon class="st2" points="4.5,7.5 0.5,11.5 6.5,11.5 		"/>
		<polyline class="st2" points="6.5,11.5 10.5,19 21.6,23.3 10.5,7.5 10.5,19 		"/>
		<line class="st2" x1="10.5" y1="7.5" x2="4.5" y2="7.5"/>
		<polyline class="st2" points="10.5,7.5 17.5,0.6 17.5,17.5 		"/>
		<polyline class="st2" points="17.5,6 23.5,2.6 17.7,17.8 		"/>
	</g>
</g>
</svg>
