<?xml version="1.0" encoding="utf-8"?>
<!-- Generator: Adobe Illustrator 19.2.0, SVG Export Plug-In . SVG Version: 6.00 Build 0)  -->
<svg version="1.1" id="Layer_1" xmlns="http://www.w3.org/2000/svg" xmlns:xlink="http://www.w3.org/1999/xlink" x="0px" y="0px"
	 viewBox="0 0 24 24" style="enable-background:new 0 0 24 24;" xml:space="preserve">
<style type="text/css">
	.st0{display:none;}
	.st1{display:inline;}
	.st2{fill:none;stroke:#000000;stroke-linecap:round;stroke-linejoin:round;stroke-miterlimit:10;}
</style>
<g id="Filled_Icons" class="st0">
	<g class="st1">
		<path d="M22.5,20.5c0.3,0,0.5-0.2,0.5-0.5V3.5C23,3.2,22.8,3,22.5,3h-21C1.2,3,1,3.2,1,3.5V20c0,0.3,0.2,0.5,0.5,0.5H22.5z
			 M19.5,4.5c0.6,0,1,0.4,1,1c0,0.6-0.4,1-1,1c-0.6,0-1-0.4-1-1C18.5,5,18.9,4.5,19.5,4.5z M15.5,4.5c0.6,0,1,0.4,1,1
			c0,0.6-0.4,1-1,1c-0.6,0-1-0.4-1-1C14.5,5,14.9,4.5,15.5,4.5z M3.5,4.5h9v2h-9V4.5z M3,8.5C3,8.2,3.2,8,3.5,8h17
			C20.8,8,21,8.2,21,8.5v10c0,0.3-0.2,0.5-0.5,0.5h-17C3.2,19,3,18.8,3,18.5V8.5z"/>
		<path d="M23.5,21h-23C0.2,21,0,21.2,0,21.5v2C0,23.8,0.2,24,0.5,24h23c0.3,0,0.5-0.2,0.5-0.5v-2C24,21.2,23.8,21,23.5,21z"/>
		<path d="M6.5,12h11c0.3,0,0.5-0.2,0.5-0.5c0-0.3-0.2-0.5-0.5-0.5h-11C6.2,11,6,11.2,6,11.5C6,11.8,6.2,12,6.5,12z"/>
		<path d="M23.5,0h-23C0.2,0,0,0.2,0,0.5v1C0,1.8,0.2,2,0.5,2h23C23.8,2,24,1.8,24,1.5v-1C24,0.2,23.8,0,23.5,0z"/>
	</g>
</g>
<g id="Outline_Icons">
	<g>
		<rect x="1.5" y="2.5" class="st2" width="21" height="18"/>
		<rect x="0.5" y="20.5" class="st2" width="23" height="3"/>
		<rect x="3.5" y="8.5" class="st2" width="17" height="10"/>
		<line class="st2" x1="6.5" y1="11.5" x2="17.5" y2="11.5"/>
		<circle class="st2" cx="15.5" cy="5.5" r="1"/>
		<circle class="st2" cx="19.5" cy="5.5" r="1"/>
		<rect x="3.5" y="4.5" class="st2" width="9" height="2"/>
		<rect x="0.5" y="0.5" class="st2" width="23" height="2"/>
	</g>
</g>
</svg>
