<?xml version="1.0" encoding="utf-8"?>
<!-- Generator: Adobe Illustrator 19.2.0, SVG Export Plug-In . SVG Version: 6.00 Build 0)  -->
<svg version="1.1" id="Layer_1" xmlns="http://www.w3.org/2000/svg" xmlns:xlink="http://www.w3.org/1999/xlink" x="0px" y="0px"
	 viewBox="0 0 24 24" style="enable-background:new 0 0 24 24;" xml:space="preserve">
<style type="text/css">
	.st0{display:none;}
	.st1{display:inline;}
	.st2{fill:none;stroke:#000000;stroke-linejoin:round;stroke-miterlimit:10;}
	.st3{fill:none;stroke:#000000;stroke-linecap:round;stroke-linejoin:round;stroke-miterlimit:10;}
</style>
<g id="Filled_Icons" class="st0">
	<g class="st1">
		<path d="M23.5,15c0-0.9-0.6-1.7-1.5-1.9V7.5C22,5,20,3,17.5,3h-4.7C12.4,1.6,11,0.5,9.5,0.5C7.6,0.5,6,2.1,6,4s1.6,3.5,3.5,3.5
			S13,5.9,13,4h4.5C19.4,4,21,5.6,21,7.5v5.6c-0.9,0.2-1.5,1-1.5,1.9s0.6,1.7,1.5,1.9V20c0,0.3,0.2,0.5,0.5,0.5S22,20.3,22,20v-3.1
			C22.9,16.7,23.5,15.9,23.5,15z M10.4,3.4l-1,1C9.3,4.5,9.1,4.5,9,4.5s-0.3,0-0.4-0.1c-0.2-0.2-0.2-0.5,0-0.7l1-1
			c0.2-0.2,0.5-0.2,0.7,0C10.5,2.8,10.5,3.2,10.4,3.4z"/>
		<path d="M4.5,7C2,7,0,9,0,11.5V13h9v-1.5C9,9,7,7,4.5,7z"/>
		<rect y="14" width="9" height="5"/>
		<path d="M0,22.5C0,23.3,0.7,24,1.5,24h6C8.3,24,9,23.3,9,22.5V20H0V22.5z"/>
		<path d="M10,22.5c0,0.8,0.7,1.5,1.5,1.5h6c0.8,0,1.5-0.7,1.5-1.5V20h-9V22.5z"/>
		<path d="M14.5,7C12,7,10,9,10,11.5V13h9v-1.5C19,9,17,7,14.5,7z"/>
		<rect x="10" y="14" width="9" height="5"/>
	</g>
</g>
<g id="Outline_Icons">
	<g>
		<path class="st2" d="M8.5,11.5c0-2.2-1.8-4-4-4s-4,1.8-4,4v11c0,0.6,0.4,1,1,1h6c0.6,0,1-0.4,1-1V11.5z"/>
		<circle class="st2" cx="9.5" cy="4" r="3"/>
		<line class="st3" x1="9" y1="4" x2="10" y2="3"/>
		<line class="st3" x1="0.5" y1="13.5" x2="8.5" y2="13.5"/>
		<line class="st3" x1="0.5" y1="19.5" x2="8.5" y2="19.5"/>
		<path class="st2" d="M18.5,11.5c0-2.2-1.8-4-4-4s-4,1.8-4,4v11c0,0.6,0.4,1,1,1h6c0.6,0,1-0.4,1-1V11.5z"/>
		<line class="st3" x1="10.5" y1="13.5" x2="18.5" y2="13.5"/>
		<line class="st3" x1="10.5" y1="19.5" x2="18.5" y2="19.5"/>
		<path class="st3" d="M12.5,3.5h5c2.2,0,4,1.8,4,4v6"/>
		<circle class="st3" cx="21.5" cy="15" r="1.5"/>
		<line class="st3" x1="21.5" y1="16.5" x2="21.5" y2="20"/>
	</g>
</g>
</svg>
