<?xml version="1.0" encoding="utf-8"?>
<!-- Generator: Adobe Illustrator 19.2.0, SVG Export Plug-In . SVG Version: 6.00 Build 0)  -->
<svg version="1.1" id="Layer_1" xmlns="http://www.w3.org/2000/svg" xmlns:xlink="http://www.w3.org/1999/xlink" x="0px" y="0px"
	 viewBox="0 0 24 24" style="enable-background:new 0 0 24 24;" xml:space="preserve">
<style type="text/css">
	.st0{display:none;}
	.st1{display:inline;}
	.st2{fill:none;stroke:#000000;stroke-linecap:round;stroke-linejoin:round;stroke-miterlimit:10;}
</style>
<g id="Filled_Icons" class="st0">
	<g class="st1">
		<path d="M12,0C7,0,3,4,3,9v13.5C3,23.3,3.7,24,4.5,24H5c0.8,0,1.5-0.7,1.5-1.5C6.5,22.2,6.7,22,7,22c0.3,0,0.5,0.2,0.5,0.5
			C7.5,23.3,8.2,24,9,24h1c0.8,0,1.5-0.7,1.5-1.5c0-0.3,0.2-0.5,0.5-0.5c0.3,0,0.5,0.2,0.5,0.5c0,0.8,0.7,1.5,1.5,1.5h1
			c0.8,0,1.5-0.7,1.5-1.5c0-0.3,0.2-0.5,0.5-0.5s0.5,0.2,0.5,0.5c0,0.8,0.7,1.5,1.5,1.5h0.5c0.8,0,1.5-0.7,1.5-1.5V9C21,4,17,0,12,0
			z M11,12c0,1.1-0.9,2-2,2c-1.1,0-2-0.9-2-2v-1V9c0-1.1,0.9-2,2-2c1.1,0,2,0.9,2,2V12z M17,12c0,1.1-0.9,2-2,2c-1.1,0-2-0.9-2-2v-1
			V9c0-1.1,0.9-2,2-2c1.1,0,2,0.9,2,2V12z"/>
		<circle cx="14" cy="11" r="1"/>
		<circle cx="8" cy="11" r="1"/>
	</g>
</g>
<g id="Outline_Icons">
	<g>
		<path class="st2" d="M20.5,9c0-4.7-3.8-8.5-8.5-8.5C7.3,0.5,3.5,4.3,3.5,9v13.5c0,0.6,0.5,1,1,1H5c0.6,0,1-0.4,1-1l0,0
			c0-0.5,0.4-1,1-1l0,0c0.6,0,1,0.5,1,1l0,0c0,0.6,0.4,1,1,1h1c0.6,0,1-0.4,1-1l0,0c0-0.5,0.4-1,1-1l0,0c0.6,0,1,0.5,1,1l0,0
			c0,0.6,0.4,1,1,1h1c0.6,0,1-0.4,1-1l0,0c0-0.5,0.5-1,1-1l0,0c0.6,0,1,0.5,1,1l0,0c0,0.6,0.5,1,1,1h0.5c0.6,0,1-0.4,1-1V9z"/>
		<path class="st2" d="M16.5,12c0,0.8-0.7,1.5-1.5,1.5l0,0c-0.8,0-1.5-0.7-1.5-1.5V9c0-0.8,0.7-1.5,1.5-1.5l0,0
			c0.8,0,1.5,0.7,1.5,1.5V12z"/>
		<circle class="st2" cx="14" cy="11" r="0.5"/>
		<path class="st2" d="M10.5,12c0,0.8-0.7,1.5-1.5,1.5l0,0c-0.8,0-1.5-0.7-1.5-1.5V9c0-0.8,0.7-1.5,1.5-1.5l0,0
			c0.8,0,1.5,0.7,1.5,1.5V12z"/>
		<circle class="st2" cx="8" cy="11" r="0.5"/>
	</g>
</g>
</svg>
