<?xml version="1.0" encoding="utf-8"?>
<!-- Generator: Adobe Illustrator 19.2.0, SVG Export Plug-In . SVG Version: 6.00 Build 0)  -->
<svg version="1.1" id="Layer_1" xmlns="http://www.w3.org/2000/svg" xmlns:xlink="http://www.w3.org/1999/xlink" x="0px" y="0px"
	 viewBox="0 0 24 24" style="enable-background:new 0 0 24 24;" xml:space="preserve">
<style type="text/css">
	.st0{display:none;}
	.st1{display:inline;}
	.st2{fill:none;stroke:#000000;stroke-linecap:round;stroke-linejoin:round;stroke-miterlimit:10;}
</style>
<g id="Filled_Icons" class="st0">
	<path class="st1" d="M14,12l8.8-6.2C22.9,5.7,23,5.6,23,5.5c0-0.1,0-0.3-0.1-0.4C20.7,1.9,17,0,13.1,0c-6.6,0-12,5.4-12,12
		c0,6.6,5.4,12,12,12c3.9,0,7.5-1.9,9.8-5.1c0.1-0.1,0.1-0.2,0.1-0.4c0-0.1-0.1-0.2-0.2-0.3L14,12z M10.6,9C9.2,9,8.1,7.9,8.1,6.5
		C8.1,5.1,9.2,4,10.6,4c1.4,0,2.5,1.1,2.5,2.5C13.1,7.9,12,9,10.6,9z"/>
</g>
<g id="Outline_Icons">
	<g>
		<path class="st2" d="M13.1,12l9.4-6.6c-2.1-2.9-5.5-4.9-9.4-4.9C6.8,0.5,1.6,5.6,1.6,12s5.1,11.5,11.5,11.5c3.9,0,7.3-1.9,9.4-4.9
			L13.1,12z"/>
		<circle class="st2" cx="10.6" cy="6.5" r="2"/>
	</g>
</g>
</svg>
