<?xml version="1.0" encoding="utf-8"?>
<!-- Generator: Adobe Illustrator 19.2.0, SVG Export Plug-In . SVG Version: 6.00 Build 0)  -->
<svg version="1.1" id="Layer_1" xmlns="http://www.w3.org/2000/svg" xmlns:xlink="http://www.w3.org/1999/xlink" x="0px" y="0px"
	 viewBox="0 0 24 24" style="enable-background:new 0 0 24 24;" xml:space="preserve">
<style type="text/css">
	.st0{display:none;}
	.st1{display:inline;}
	.st2{fill:none;stroke:#000000;stroke-linecap:round;stroke-linejoin:round;stroke-miterlimit:10;}
</style>
<g id="Filled_Icon" class="st0">
	<path class="st1" d="M16,14c0.6,0,1-0.4,1-1s-0.4-1-1-1h-4v-1h4c0.6,0,1-0.4,1-1s-0.4-1-1-1h-4V1c0-0.6-0.4-1-1-1s-1,0.4-1,1v8H6
		c-0.6,0-1,0.4-1,1s0.4,1,1,1h4v1H6c-0.6,0-1,0.4-1,1s0.4,1,1,1h4v6.6l-3.3-3.3c-0.4-0.4-1-0.4-1.4,0s-0.4,1,0,1.4l5,5
		c0.4,0.4,1,0.4,1.4,0l5-5c0.4-0.4,0.4-1,0-1.4s-1-0.4-1.4,0L12,20.6V14H16z"/>
</g>
<g id="Outline_Icons">
	<g>
		<polyline class="st2" points="15.5,18.5 10.5,23.5 5.5,18.5 		"/>
		<line class="st2" x1="10.5" y1="23.5" x2="10.5" y2="0.5"/>
		<line class="st2" x1="5.5" y1="13.5" x2="15.5" y2="13.5"/>
		<line class="st2" x1="5.5" y1="10.5" x2="15.5" y2="10.5"/>
	</g>
</g>
</svg>
