<?xml version="1.0" encoding="utf-8"?>
<!-- Generator: Adobe Illustrator 19.2.0, SVG Export Plug-In . SVG Version: 6.00 Build 0)  -->
<svg version="1.1" id="Layer_1" xmlns="http://www.w3.org/2000/svg" xmlns:xlink="http://www.w3.org/1999/xlink" x="0px" y="0px"
	 viewBox="0 0 24 24" style="enable-background:new 0 0 24 24;" xml:space="preserve">
<style type="text/css">
	.st0{display:none;}
	.st1{display:inline;}
	.st2{fill:none;stroke:#000000;stroke-linecap:round;stroke-linejoin:round;stroke-miterlimit:10;}
</style>
<g id="Filled_Icon" class="st0">
	<path class="st1" d="M16,11.5c0.6,0,1-0.4,1-1s-0.4-1-1-1h-4V3.4l3.3,3.3C15.5,6.9,15.7,7,16,7c0.3,0,0.5-0.1,0.7-0.3
		c0.4-0.4,0.4-1,0-1.4l-5-5c-0.4-0.4-1-0.4-1.4,0l-5,5c-0.4,0.4-0.4,1,0,1.4s1,0.4,1.4,0L10,3.4v6.1H6c-0.6,0-1,0.4-1,1s0.4,1,1,1h4
		v1H6c-0.6,0-1,0.4-1,1s0.4,1,1,1h4V23c0,0.6,0.4,1,1,1s1-0.4,1-1v-8.5h4c0.6,0,1-0.4,1-1s-0.4-1-1-1h-4v-1H16z"/>
</g>
<g id="Outline_Icons">
	<g>
		<polyline class="st2" points="6.5,5.5 11.5,0.5 16.5,5.5 		"/>
		<line class="st2" x1="11.5" y1="0.5" x2="11.5" y2="23.5"/>
		<line class="st2" x1="6.5" y1="13.5" x2="16.5" y2="13.5"/>
		<line class="st2" x1="6.5" y1="10.5" x2="16.5" y2="10.5"/>
	</g>
</g>
</svg>
