<?xml version="1.0" encoding="utf-8"?>
<!-- Generator: Adobe Illustrator 19.2.0, SVG Export Plug-In . SVG Version: 6.00 Build 0)  -->
<svg version="1.1" id="Layer_1" xmlns="http://www.w3.org/2000/svg" xmlns:xlink="http://www.w3.org/1999/xlink" x="0px" y="0px"
	 viewBox="0 0 24 24" style="enable-background:new 0 0 24 24;" xml:space="preserve">
<style type="text/css">
	.st0{display:none;}
	.st1{display:inline;}
	.st2{fill:none;stroke:#000000;stroke-linecap:round;stroke-linejoin:round;stroke-miterlimit:10;}
</style>
<g id="Filled_Icon" class="st0">
	<g class="st1">
		<path d="M23.5,1.1c-0.4-0.4-1.2-0.6-2.5-0.6c-0.2,0-0.3,0.1-0.4,0.2L10.8,13l0.7,0.7l0.9,0.9l0.7,0.7L23.9,3.8
			C24,3.7,24,3.6,24,3.5l0-0.3C24,2.3,24,1.6,23.5,1.1z"/>
		<path d="M11.7,15.4l-0.9-0.9l-0.7-0.7l-1,1.3c-0.4-0.2-0.9-0.3-1.4-0.3c-1.3,0-2.5,0.6-3.2,1.6c-0.4,0.5-0.6,1.1-0.8,1.8
			c-0.5,1.5-0.9,2.8-3.2,2.7c-0.2,0-0.4,0.1-0.5,0.3c-0.1,0.2,0,0.4,0.1,0.6c1.4,1.4,3.1,2.2,5,2.2c2.9,0,5.7-1.8,6.5-4.1
			c0.3-0.9,0.2-1.8-0.2-2.7l1-1.1L11.7,15.4z"/>
	</g>
</g>
<g id="Outline_Icons">
	<g>
		<path class="st2" d="M0.5,21c3.7,0.2,3.3-3.2,4.4-4.7c1.2-1.5,3.4-1.9,4.9-0.7C14.8,19.3,5.9,26.6,0.5,21z"/>
		<line class="st2" x1="10.8" y1="13.3" x2="12.4" y2="14.9"/>
		<path class="st2" d="M10.8,16.7L23.5,3c0-1.7,0.2-2.5-2.5-2.5L9.3,15.3"/>
	</g>
</g>
</svg>
