<?xml version="1.0" encoding="utf-8"?>
<!-- Generator: Adobe Illustrator 19.2.0, SVG Export Plug-In . SVG Version: 6.00 Build 0)  -->
<svg version="1.1" id="Layer_1" xmlns="http://www.w3.org/2000/svg" xmlns:xlink="http://www.w3.org/1999/xlink" x="0px" y="0px"
	 viewBox="0 0 24 24" style="enable-background:new 0 0 24 24;" xml:space="preserve">
<style type="text/css">
	.st0{display:none;}
	.st1{display:inline;}
	.st2{fill:none;stroke:#000000;stroke-linecap:round;stroke-linejoin:round;stroke-miterlimit:10;}
</style>
<g id="Filled_Icon" class="st0">
	<path class="st1" d="M21.5,3H21V0.5C21,0.2,20.8,0,20.5,0h-15C5.2,0,5,0.2,5,0.5V3H4.5C3.7,3,3,3.7,3,4.5v4C3,9.3,3.7,10,4.5,10h8
		c0.3,0,0.5,0.2,0.5,0.5V13c-0.9,0.2-2,0.9-2,1.9v7.5c0,0.9,1.4,1.5,2.2,1.5h1c0.8,0,1.8-0.7,1.8-1.5V15c0-1-1.1-1.7-2-1.9v-2.5
		C14,9.7,13.3,9,12.5,9h-8C4.2,9,4,8.8,4,8.5v-4C4,4.2,4.2,4,4.5,4H5v2.5C5,6.8,5.2,7,5.5,7h15C20.8,7,21,6.8,21,6.5V4h0.5
		C21.8,4,22,3.8,22,3.5C22,3.2,21.8,3,21.5,3z"/>
</g>
<g id="Outline_Icons">
	<g>
		<path class="st2" d="M13.5,13.5c-0.8,0-2,0.7-2,1.5v7.5c0,0.6,1.1,1,1.7,1h1c0.6,0,1.3-0.5,1.3-1V15
			C15.5,14.1,14.3,13.5,13.5,13.5z"/>
		<path class="st2" d="M5.5,3.5h-1c-0.5,0-1,0.5-1,1v4c0,0.5,0.5,1,1,1h8c0.5,0,1,0.5,1,1v2.9"/>
		<rect x="5.5" y="0.5" class="st2" width="15" height="6"/>
		<line class="st2" x1="20.5" y1="3.5" x2="21.5" y2="3.5"/>
	</g>
</g>
</svg>
