<?xml version="1.0" encoding="utf-8"?>
<!-- Generator: Adobe Illustrator 19.2.0, SVG Export Plug-In . SVG Version: 6.00 Build 0)  -->
<svg version="1.1" id="Layer_1" xmlns="http://www.w3.org/2000/svg" xmlns:xlink="http://www.w3.org/1999/xlink" x="0px" y="0px"
	 viewBox="0 0 24 24" style="enable-background:new 0 0 24 24;" xml:space="preserve">
<style type="text/css">
	.st0{display:none;}
	.st1{display:inline;}
	.st2{fill:none;stroke:#000000;stroke-linecap:round;stroke-linejoin:round;stroke-miterlimit:10;}
</style>
<g id="Filled_Icon" class="st0">
	<g class="st1">
		<path d="M1.5,14h21c0.3,0,0.5-0.2,0.5-0.5v-10C23,3.2,22.8,3,22.5,3H15V2.5C15,2.2,14.8,2,14.5,2h-2V0.5C12.5,0.2,12.3,0,12,0
			c-0.3,0-0.5,0.2-0.5,0.5V2h-2C9.2,2,9,2.2,9,2.5V3H1.5C1.2,3,1,3.2,1,3.5v10C1,13.8,1.2,14,1.5,14z M10,3h4v1h-4V3z"/>
		<path d="M22.5,15h-21C0.7,15,0,15.7,0,16.5C0,17.3,0.7,18,1.5,18h4.7l-2.6,5.3c-0.1,0.2,0,0.5,0.2,0.7C3.8,24,3.9,24,4,24
			c0.2,0,0.4-0.1,0.4-0.3L7.3,18H11v5.5c0,0.3,0.2,0.5,0.5,0.5c0.3,0,0.5-0.2,0.5-0.5V18h4.7l2.9,5.7c0.1,0.2,0.3,0.3,0.4,0.3
			c0.1,0,0.2,0,0.2-0.1c0.2-0.1,0.3-0.4,0.2-0.7L17.8,18h4.7c0.8,0,1.5-0.7,1.5-1.5C24,15.7,23.3,15,22.5,15z"/>
	</g>
</g>
<g id="Outline_Icons">
	<g>
		<polyline class="st2" points="14.5,3.5 22.5,3.5 22.5,15.5 1.5,15.5 1.5,3.5 9.5,3.5 		"/>
		<rect x="9.5" y="2.5" class="st2" width="5" height="2"/>
		<path class="st2" d="M22.5,15.5h-21c-0.6,0-1,0.4-1,1c0,0.6,0.4,1,1,1h21c0.6,0,1-0.4,1-1C23.5,15.9,23.1,15.5,22.5,15.5z"/>
		<line class="st2" x1="11.5" y1="17.5" x2="11.5" y2="23.5"/>
		<line class="st2" x1="4" y1="23.5" x2="7" y2="17.5"/>
		<line class="st2" x1="20" y1="23.5" x2="17" y2="17.5"/>
		<line class="st2" x1="11.5" y1="0.5" x2="11.5" y2="2.5"/>
	</g>
</g>
</svg>
