<?xml version="1.0" encoding="utf-8"?>
<!-- Generator: Adobe Illustrator 19.2.0, SVG Export Plug-In . SVG Version: 6.00 Build 0)  -->
<svg version="1.1" id="Layer_1" xmlns="http://www.w3.org/2000/svg" xmlns:xlink="http://www.w3.org/1999/xlink" x="0px" y="0px"
	 viewBox="0 0 24 24" style="enable-background:new 0 0 24 24;" xml:space="preserve">
<style type="text/css">
	.st0{display:none;}
	.st1{display:inline;}
	.st2{fill:none;stroke:#000000;stroke-linejoin:round;stroke-miterlimit:10;}
	.st3{fill:none;stroke:#000000;stroke-linecap:round;stroke-linejoin:round;stroke-miterlimit:10;}
</style>
<g id="Filled_Icon" class="st0">
	<g class="st1">
		<path d="M22.4,8.9l-8.5-8.5c-0.2-0.2-0.5-0.2-0.7,0L11,2.5c-0.1,0.1-0.1,0.2-0.1,0.4C10.9,3,11,3.1,11,3.2l8.5,8.5
			c0.1,0.1,0.2,0.1,0.4,0.1c0.1,0,0.3-0.1,0.4-0.1l2.1-2.1C22.6,9.4,22.6,9.1,22.4,8.9z"/>
		<g>
			<path d="M3.6,24c-0.7,0-1.3-0.2-1.7-0.6c-1-0.9-0.6-2.4-0.6-2.4c0.1-0.3,0.3-0.4,0.6-0.4c0.3,0.1,0.4,0.3,0.4,0.6
				c0,0-0.2,1,0.3,1.5c0.5,0.4,1.6,0.4,3-0.1c6.1-2,10.2-0.1,10.4,0c0.2,0.1,0.3,0.4,0.2,0.7c-0.1,0.2-0.4,0.3-0.7,0.2
				c0,0-3.9-1.9-9.6,0C5,23.9,4.2,24,3.6,24z"/>
		</g>
		<g>
			<polygon points="13.3,16.7 6,9.5 4.7,11 11.8,18.1 			"/>
			<polygon points="14,16.1 18.4,12 10.7,4.3 6.7,8.7 			"/>
			<path d="M2.9,16.3l-1.8,1.8C1.1,18.2,1,18.3,1,18.4c0,0.1,0.1,0.3,0.1,0.4L4,21.6c0.1,0.1,0.2,0.1,0.4,0.1c0.1,0,0.3,0,0.4-0.1
				l1.8-1.8L2.9,16.3z"/>
			<path d="M4,11.7L4,11.7c-0.1,0.1-0.1,0.2-0.1,0.3l-0.5,3.3l4.2,4.2l3.3-0.5c0.1,0,0.2-0.1,0.3-0.1l0,0L4,11.7z"/>
		</g>
	</g>
</g>
<g id="Outline_Icons">
	<g>
		<polygon class="st2" points="10.7,18.4 6.5,19.1 3.6,16.3 4.3,12.1 12.1,3.6 19.2,10.6 		"/>
		<rect x="15.2" y="0" transform="matrix(0.7071 -0.7071 0.7071 0.7071 0.6188 13.5813)" class="st2" width="3" height="12"/>
		<line class="st2" x1="6.7" y1="9.5" x2="13.3" y2="16"/>
		<rect x="2.5" y="16.8" transform="matrix(0.7067 -0.7075 0.7075 0.7067 -12.1152 8.3169)" class="st2" width="3" height="4"/>
		<line class="st2" x1="4.7" y1="11.7" x2="11" y2="18.1"/>
		<path class="st3" d="M1.7,21.1c0,0-0.8,3.6,4,2c6-2,10,0,10,0"/>
	</g>
</g>
</svg>
