<?xml version="1.0" encoding="utf-8"?>
<!-- Generator: Adobe Illustrator 19.2.0, SVG Export Plug-In . SVG Version: 6.00 Build 0)  -->
<svg version="1.1" id="Layer_1" xmlns="http://www.w3.org/2000/svg" xmlns:xlink="http://www.w3.org/1999/xlink" x="0px" y="0px"
	 viewBox="0 0 24 24" style="enable-background:new 0 0 24 24;" xml:space="preserve">
<style type="text/css">
	.st0{display:none;}
	.st1{display:inline;}
	.st2{fill:none;stroke:#000000;stroke-linecap:round;stroke-linejoin:round;stroke-miterlimit:10;}
</style>
<g id="Filled_Icon" class="st0">
	<g class="st1">
		<path d="M20,10h-5c-0.2,0-0.3-0.1-0.4-0.2c-0.1-0.1-0.1-0.3,0-0.5C14.8,8.5,15,7.7,15,6.8V3c0-1.7-1.3-3-3-3c-1.7,0-3,1.3-3,3v3.8
			c0,0.9,0.2,1.7,0.5,2.5c0.1,0.2,0,0.3,0,0.5C9.3,9.9,9.2,10,9,10H4c-1.1,0-2,0.9-2,2v2.5h20V12C22,10.9,21.1,10,20,10z M12,4
			c-0.6,0-1-0.4-1-1c0-0.6,0.4-1,1-1c0.6,0,1,0.4,1,1C13,3.6,12.6,4,12,4z"/>
		<path d="M20.5,15.5h-17C3.2,15.5,3,15.7,3,16v7.5C3,23.8,3.2,24,3.5,24H6c0.2,0,0.4-0.1,0.4-0.3l1.1-2.1v1.9C7.5,23.8,7.7,24,8,24
			h6v-2.6c0-0.3,0.2-0.5,0.5-0.5c0.3,0,0.5,0.2,0.5,0.5V24h1v-4.3c0-0.3,0.2-0.5,0.5-0.5c0.3,0,0.5,0.2,0.5,0.5V24h1v-5.5
			c0-0.3,0.2-0.5,0.5-0.5c0.3,0,0.5,0.2,0.5,0.5V24h1.5c0.3,0,0.5-0.2,0.5-0.5V16C21,15.7,20.8,15.5,20.5,15.5z"/>
	</g>
</g>
<g id="Outline_Icons">
	<g>
		<path class="st2" d="M15,10.5c-0.3,0-0.6-0.2-0.8-0.4C14,9.8,13.9,9.4,14,9.1c0.3-0.7,0.5-1.5,0.5-2.3V3c0-1.4-1.1-2.5-2.5-2.5
			c-1.4,0-2.5,1.1-2.5,2.5v3.8c0,0.8,0.2,1.6,0.5,2.3c0.1,0.3,0.1,0.7-0.1,0.9c-0.2,0.3-0.5,0.4-0.8,0.4H4c-0.8,0-1.5,0.7-1.5,1.5
			v3.5h19V12c0-0.8-0.7-1.5-1.5-1.5H15z"/>
		<polygon class="st2" points="20.5,23.5 8.5,23.5 8.5,19.5 6.5,23.5 3.5,23.5 3.5,15.5 20.5,15.5 		"/>
		<line class="st2" x1="18.5" y1="18.5" x2="18.5" y2="23.5"/>
		<line class="st2" x1="16.5" y1="19.5" x2="16.5" y2="23.5"/>
		<line class="st2" x1="14.5" y1="21" x2="14.5" y2="23.5"/>
		<circle class="st2" cx="12" cy="3" r="0.5"/>
	</g>
</g>
</svg>
