<?xml version="1.0" encoding="utf-8"?>
<!-- Generator: Adobe Illustrator 19.2.0, SVG Export Plug-In . SVG Version: 6.00 Build 0)  -->
<svg version="1.1" id="Layer_1" xmlns="http://www.w3.org/2000/svg" xmlns:xlink="http://www.w3.org/1999/xlink" x="0px" y="0px"
	 viewBox="0 0 24 24" style="enable-background:new 0 0 24 24;" xml:space="preserve">
<style type="text/css">
	.st0{display:none;}
	.st1{display:inline;}
	.st2{fill:none;stroke:#000000;stroke-linecap:round;stroke-linejoin:round;stroke-miterlimit:10;}
</style>
<g id="Filled_Icons" class="st0">
	<g class="st1">
		<path d="M23.5,8h-15h-8C0.2,8,0,8.2,0,8.5C0,8.8,0.2,9,0.5,9H8v3c0,1.1,0.9,2,2,2h12c1.1,0,2-0.9,2-2V8.5C24,8.2,23.8,8,23.5,8z"
			/>
		<path d="M18.5,18c-0.2,0-0.3,0.1-0.4,0.2l-0.6,0.8l-1.1-1.8c-0.2-0.3-0.7-0.3-0.9,0l-1.1,1.8l-0.6-0.8c-0.1-0.1-0.3-0.2-0.4-0.2
			c-0.2,0-0.3,0.1-0.4,0.3c-0.3,0.5-1.6,2.8-1.6,3.7c0,1.1,0.9,2,2,2h5c1.1,0,2-0.9,2-2c0-0.9-1.3-3.3-1.6-3.7
			C18.9,18.1,18.7,18,18.5,18z"/>
	</g>
</g>
<g id="Outline_Icons">
	<g>
		<path class="st2" d="M23.5,12c0,0.8-0.7,1.5-1.5,1.5H10c-0.8,0-1.5-0.7-1.5-1.5V8.5h15V12z"/>
		<line class="st2" x1="8.5" y1="8.5" x2="0.5" y2="8.5"/>
		<path class="st2" d="M18.5,23.5c0.8,0,1.5-0.7,1.5-1.5s-1.5-3.5-1.5-3.5l-1,1.5L16,17.5L14.5,20l-1-1.5c0,0-1.5,2.7-1.5,3.5
			s0.7,1.5,1.5,1.5H18.5z"/>
	</g>
</g>
</svg>
