<?xml version="1.0" encoding="utf-8"?>
<!-- Generator: Adobe Illustrator 19.2.0, SVG Export Plug-In . SVG Version: 6.00 Build 0)  -->
<svg version="1.1" id="Layer_1" xmlns="http://www.w3.org/2000/svg" xmlns:xlink="http://www.w3.org/1999/xlink" x="0px" y="0px"
	 viewBox="0 0 24 24" style="enable-background:new 0 0 24 24;" xml:space="preserve">
<style type="text/css">
	.st0{display:none;}
	.st1{display:inline;}
	.st2{fill:none;stroke:#000000;stroke-linejoin:round;stroke-miterlimit:10;}
</style>
<g id="Filled_Icon" class="st0">
	<path class="st1" d="M23.7,4c-8-2.6-16.2-2.6-23.3,0C0.1,4.1,0,4.3,0,4.5v15c0,0.2,0.1,0.4,0.3,0.5C4.4,21.3,8.3,22,12,22
		c3.8,0,7.6-0.7,11.6-2.1c0.2-0.1,0.3-0.3,0.3-0.5v-15C24,4.3,23.9,4.1,23.7,4z"/>
</g>
<g id="Outline_Icons">
	<path class="st2" d="M0.5,4.5c7-2.6,15-2.7,23,0v15c-8,2.7-15,2.7-23,0V4.5z"/>
</g>
</svg>
