<?xml version="1.0" encoding="utf-8"?>
<!-- Generator: Adobe Illustrator 19.2.0, SVG Export Plug-In . SVG Version: 6.00 Build 0)  -->
<svg version="1.1" id="Layer_1" xmlns="http://www.w3.org/2000/svg" xmlns:xlink="http://www.w3.org/1999/xlink" x="0px" y="0px"
	 viewBox="0 0 24 24" style="enable-background:new 0 0 24 24;" xml:space="preserve">
<style type="text/css">
	.st0{display:none;}
	.st1{display:inline;}
	.st2{fill:none;stroke:#000000;stroke-linejoin:round;stroke-miterlimit:10;}
</style>
<g id="Filled_Icon" class="st0">
	<path class="st1" d="M23.8,4.1C23.7,4,23.5,4,23.3,4C15.9,6.7,8.2,6.7,0.7,4C0.5,4,0.3,4,0.2,4.1C0.1,4.2,0,4.3,0,4.5v15
		c0,0.2,0.1,0.3,0.2,0.4C0.3,20,0.4,20,0.5,20c0.1,0,0.1,0,0.2,0c7.6-2.6,15.2-2.6,22.7,0c0.2,0.1,0.3,0,0.5-0.1
		c0.1-0.1,0.2-0.2,0.2-0.4v-15C24,4.3,23.9,4.2,23.8,4.1z"/>
</g>
<g id="Outline_Icons">
	<path class="st2" d="M23.5,19.5c-7.6-2.6-15.3-2.6-23,0v-15c7.7,2.7,15.4,2.7,23,0V19.5z"/>
</g>
</svg>
