<?xml version="1.0" encoding="utf-8"?>
<!-- Generator: Adobe Illustrator 19.2.0, SVG Export Plug-In . SVG Version: 6.00 Build 0)  -->
<svg version="1.1" id="Layer_1" xmlns="http://www.w3.org/2000/svg" xmlns:xlink="http://www.w3.org/1999/xlink" x="0px" y="0px"
	 viewBox="0 0 24 24" style="enable-background:new 0 0 24 24;" xml:space="preserve">
<style type="text/css">
	.st0{display:none;}
	.st1{display:inline;}
	.st2{fill:none;stroke:#000000;stroke-linejoin:round;stroke-miterlimit:10;}
</style>
<g id="Filled_Icon" class="st0">
	<path class="st1" d="M20,23.3c-2.7-7.5-2.7-15.1,0-22.7c0.1-0.2,0-0.3-0.1-0.5C19.8,0.1,19.7,0,19.5,0h-15C4.3,0,4.2,0.1,4.1,0.2
		C4,0.3,4,0.5,4,0.7c2.6,7.6,2.6,15.2,0,22.7c-0.1,0.2,0,0.3,0.1,0.5C4.2,23.9,4.3,24,4.5,24h15c0.2,0,0.3-0.1,0.4-0.2
		C20,23.7,20,23.5,20,23.3z"/>
</g>
<g id="Outline_Icons">
	<path class="st2" d="M4.5,23.5c2.6-7.6,2.6-15.3,0-23h15c-2.7,7.7-2.7,15.4,0,23H4.5z"/>
</g>
</svg>
