<?xml version="1.0" encoding="utf-8"?>
<!-- Generator: Adobe Illustrator 19.2.0, SVG Export Plug-In . SVG Version: 6.00 Build 0)  -->
<svg version="1.1" id="Layer_1" xmlns="http://www.w3.org/2000/svg" xmlns:xlink="http://www.w3.org/1999/xlink" x="0px" y="0px"
	 viewBox="0 0 24 24" style="enable-background:new 0 0 24 24;" xml:space="preserve">
<style type="text/css">
	.st0{display:none;}
	.st1{display:inline;}
	.st2{fill:none;stroke:#000000;stroke-linecap:round;stroke-linejoin:round;stroke-miterlimit:10;}
</style>
<g id="Filled_Icon" class="st0">
	<g class="st1">
		<path d="M3.9,15.7l-1.8,1.8C2.1,17.6,2,17.7,2,17.8v5.7c0,0.2,0.1,0.4,0.3,0.5c0.1,0,0.1,0,0.2,0c0.1,0,0.3-0.1,0.4-0.1l4.6-4.6
			L3.9,15.7z"/>
		<g>
			<path d="M21.6,7.9c2.1-2.4,1.7-5,0.2-6.5c-1.4-1.5-4.1-2-6.6,0.2L21.6,7.9z"/>
			<path d="M14.5,2.3L14.5,2.3L4.3,12.5c-0.3,0.3-0.4,0.7-0.4,1.1c0,0.4,0.2,0.8,0.4,1.1l0.9,0.9c0,0,0,0,0,0l8.2-8.2
				c0.7-0.7,1.9-0.7,2.6,0c0.7,0.7,0.7,1.9,0,2.6l-8.2,8.2c0,0,0,0,0,0l0.8,0.8c0.3,0.3,0.7,0.4,1.1,0.4c0.4,0,0.8-0.2,1.1-0.4
				L20.9,8.7L14.5,2.3z"/>
		</g>
	</g>
</g>
<g id="Outline_Icons">
	<g>
		<polygon class="st2" points="5.3,15.2 8.2,18 2.5,23.7 2.5,18 		"/>
		<path class="st2" d="M15.2,2.4l5.7,5.7L10.3,18.7c-0.4,0.4-1,0.4-1.4,0l-4.2-4.2c-0.4-0.4-0.4-1,0-1.4L15.2,2.4z"/>
		<path class="st2" d="M15.5,9.7c0.5-0.5,0.5-1.3,0-1.9c-0.5-0.5-1.3-0.5-1.9,0l-7.9,7.9l1.9,1.9L15.5,9.7z"/>
		<path class="st2" d="M15.2,2.4c4.6-4.5,10.1,1.2,5.7,5.7"/>
	</g>
</g>
</svg>
