<?xml version="1.0" encoding="utf-8"?>
<!-- Generator: Adobe Illustrator 19.2.0, SVG Export Plug-In . SVG Version: 6.00 Build 0)  -->
<svg version="1.1" id="Layer_1" xmlns="http://www.w3.org/2000/svg" xmlns:xlink="http://www.w3.org/1999/xlink" x="0px" y="0px"
	 viewBox="0 0 24 24" style="enable-background:new 0 0 24 24;" xml:space="preserve">
<style type="text/css">
	.st0{display:none;}
	.st1{display:inline;}
	.st2{fill:none;stroke:#000000;stroke-linecap:round;stroke-linejoin:round;stroke-miterlimit:10;}
</style>
<g id="Filled_Icon" class="st0">
	<g class="st1">
		<path d="M20.5,8H13v1.5c0,0.8-0.7,1.5-1.5,1.5c-0.8,0-1.5-0.7-1.5-1.5V8H3.5C3.2,8,3,8.2,3,8.5v15C3,23.8,3.2,24,3.5,24h11
			c0.1,0,0.3-0.1,0.4-0.1l6-6c0.1-0.1,0.1-0.2,0.1-0.4v-9C21,8.2,20.8,8,20.5,8z M7,12h8c0.3,0,0.5,0.2,0.5,0.5
			c0,0.3-0.2,0.5-0.5,0.5H7c-0.3,0-0.5-0.2-0.5-0.5C6.5,12.2,6.7,12,7,12z M7,15h8c0.3,0,0.5,0.2,0.5,0.5c0,0.3-0.2,0.5-0.5,0.5H7
			c-0.3,0-0.5-0.2-0.5-0.5C6.5,15.2,6.7,15,7,15z M12,19H7c-0.3,0-0.5-0.2-0.5-0.5C6.5,18.2,6.7,18,7,18h5c0.3,0,0.5,0.2,0.5,0.5
			C12.5,18.8,12.3,19,12,19z M19.4,17.9l-4.5,4.5c-0.1,0.1-0.2,0.1-0.4,0.1c-0.1,0-0.1,0-0.2,0C14.1,22.4,14,22.2,14,22v-4.5
			c0-0.3,0.2-0.5,0.5-0.5H19c0.2,0,0.4,0.1,0.5,0.3C19.5,17.5,19.5,17.7,19.4,17.9z"/>
		<path d="M11.5,0C9.6,0,8,1.6,8,3.5c0,1.8,1.3,3.2,3,3.4v2.6c0,0.3,0.2,0.5,0.5,0.5c0.3,0,0.5-0.2,0.5-0.5V6.9c1.7-0.2,3-1.7,3-3.4
			C15,1.6,13.4,0,11.5,0z M12.5,4C12.2,4,12,3.8,12,3.5C12,3.2,11.8,3,11.5,3C11.2,3,11,2.8,11,2.5C11,2.2,11.2,2,11.5,2
			C12.3,2,13,2.7,13,3.5C13,3.8,12.8,4,12.5,4z"/>
	</g>
</g>
<g id="Outline_Icons">
	<g>
		<polygon class="st2" points="20.5,8.5 3.5,8.5 3.5,23.5 14.5,23.5 20.5,17.5 		"/>
		<polyline class="st2" points="14.5,23.5 14.5,17.5 20.5,17.5 		"/>
		<circle class="st2" cx="11.5" cy="3.5" r="3"/>
		<line class="st2" x1="11.5" y1="6.5" x2="11.5" y2="9.5"/>
		<path class="st2" d="M11.5,2.5c0.6,0,1,0.4,1,1"/>
		<line class="st2" x1="7" y1="12.5" x2="15" y2="12.5"/>
		<line class="st2" x1="7" y1="15.5" x2="15" y2="15.5"/>
		<line class="st2" x1="7" y1="18.5" x2="12" y2="18.5"/>
	</g>
</g>
</svg>
