<?xml version="1.0" encoding="utf-8"?>
<!-- Generator: Adobe Illustrator 19.2.0, SVG Export Plug-In . SVG Version: 6.00 Build 0)  -->
<svg version="1.1" id="Layer_1" xmlns="http://www.w3.org/2000/svg" xmlns:xlink="http://www.w3.org/1999/xlink" x="0px" y="0px"
	 viewBox="0 0 24 24" style="enable-background:new 0 0 24 24;" xml:space="preserve">
<style type="text/css">
	.st0{display:none;}
	.st1{display:inline;}
	.st2{fill:none;stroke:#000000;stroke-linecap:round;stroke-linejoin:round;stroke-miterlimit:10;}
</style>
<g id="Filled_Icons" class="st0">
	<g class="st1">
		<polygon points="18.3,20 11.5,12.3 4.7,20 		"/>
		<path d="M11.5,11l4.1-0.7l-3.7-5c-0.2-0.3-0.6-0.3-0.8,0l-3.7,5L11.5,11z"/>
		<path d="M22.9,10.2c-0.1-0.1-0.3-0.2-0.4-0.2l-10,1.8l6.6,7.5l3.9-8.7C23,10.5,23,10.3,22.9,10.2z"/>
		<path d="M10.5,11.8L0.5,10c-0.2,0-0.3,0-0.4,0.2C0,10.3,0,10.5,0,10.7l3.8,8.7L10.5,11.8z"/>
	</g>
</g>
<g id="Outline_Icons">
	<g>
		<polygon class="st2" points="22.5,10.5 11.5,12.5 0.5,10.5 4.5,19.5 18.5,19.5 		"/>
		<polyline class="st2" points="4.5,19.5 11.5,12.5 18.5,19.5 		"/>
		<polyline class="st2" points="7,11.7 11.5,5.5 16,11.7 		"/>
	</g>
</g>
</svg>
