<?xml version="1.0" encoding="utf-8"?>
<!-- Generator: Adobe Illustrator 19.2.0, SVG Export Plug-In . SVG Version: 6.00 Build 0)  -->
<svg version="1.1" id="Layer_1" xmlns="http://www.w3.org/2000/svg" xmlns:xlink="http://www.w3.org/1999/xlink" x="0px" y="0px"
	 viewBox="0 0 24 24" style="enable-background:new 0 0 24 24;" xml:space="preserve">
<style type="text/css">
	.st0{display:none;}
	.st1{display:inline;}
	.st2{fill:none;stroke:#000000;stroke-linejoin:round;stroke-miterlimit:10;}
</style>
<g id="Filled_Icon" class="st0">
	<path class="st1" d="M24,23.4l-3.5-12C20.4,11.1,20.2,11,20,11h-3.5l1,9.3c0,0.1,0,0.2,0,0.3c-0.3-0.3-0.6-0.5-1-0.6L15.1,7.3
		c1.5-0.7,2.4-2,2.4-3.3c0-2.2-2.5-4-5.5-4C9,0,6.5,1.8,6.5,4c0,1.3,0.9,2.5,2.4,3.3L7.5,20.1c-0.4,0.1-0.8,0.3-1,0.6
		c0-0.1,0-0.2,0-0.3l1-9.3H4c-0.2,0-0.4,0.1-0.5,0.4L0,23.4c0,0.2,0,0.3,0.1,0.4C0.2,23.9,0.3,24,0.5,24h6C6.8,24,7,23.8,7,23.5V22
		c0-0.6,0.4-1,1-1c0.6,0,1,0.4,1,1v1.5C9,23.8,9.2,24,9.5,24h5c0.3,0,0.5-0.2,0.5-0.5V22c0-0.6,0.4-1,1-1c0.6,0,1,0.4,1,1v1.5
		c0,0.3,0.2,0.5,0.5,0.5h6c0.2,0,0.3-0.1,0.4-0.2C24,23.7,24,23.5,24,23.4z M14.5,20.7C14.5,20.7,14.5,20.7,14.5,20.7l-1-9.7h-3
		l-1,9.7c0,0,0,0,0,0c-0.2-0.3-0.6-0.5-0.9-0.6L9.9,7c0-0.2-0.1-0.4-0.3-0.5C8.3,6,7.5,5,7.5,4c0-1.7,2-3,4.5-3c2.5,0,4.5,1.3,4.5,3
		c0,1-0.8,2-2.1,2.5C14.2,6.6,14,6.8,14.1,7l1.4,13C15.1,20.2,14.8,20.4,14.5,20.7z"/>
</g>
<g id="Outline_Icons">
	<g>
		<path class="st2" d="M23.5,23.5l-3.5-12H4l-3.5,12h6V22c0-0.8,0.7-1.5,1.5-1.5c0.8,0,1.5,0.7,1.5,1.5v1.5h5V22
			c0-0.8,0.7-1.5,1.5-1.5c0.8,0,1.5,0.7,1.5,1.5v1.5H23.5z"/>
		<path class="st2" d="M16.5,20.5L14.6,7C16,6.4,17,5.3,17,4c0-1.9-2.2-3.5-5-3.5C9.2,0.5,7,2.1,7,4c0,1.3,1,2.4,2.4,3L7.5,20.5"/>
	</g>
</g>
</svg>
