<?xml version="1.0" encoding="utf-8"?>
<!-- Generator: Adobe Illustrator 19.2.0, SVG Export Plug-In . SVG Version: 6.00 Build 0)  -->
<svg version="1.1" id="Layer_1" xmlns="http://www.w3.org/2000/svg" xmlns:xlink="http://www.w3.org/1999/xlink" x="0px" y="0px"
	 viewBox="0 0 24 24" style="enable-background:new 0 0 24 24;" xml:space="preserve">
<style type="text/css">
	.st0{display:none;}
	.st1{display:inline;}
	.st2{fill:none;stroke:#000000;stroke-linecap:round;stroke-linejoin:round;stroke-miterlimit:10;}
</style>
<g id="Filled_Icons" class="st0">
	<g class="st1">
		<path d="M13.4,18.7c-0.4,0.4-0.3,1.1,0.1,1.4c0.4,0.3,1.1,0.3,1.4-0.1l7.6-9.3c2.3-2.8,1.9-6.9-0.9-9.1c-1.3-1.1-3-1.6-4.8-1.4
			c-1.7,0.2-3.3,1-4.4,2.3L1.7,15.5c-1.7,2.1-1.4,5.3,0.7,7c0.9,0.8,2,1.1,3.2,1.1c1.4,0,2.9-0.6,3.9-1.8L19.7,9.3
			c1-1.3,0.9-3.2-0.4-4.2c-0.6-0.5-1.4-0.7-2.2-0.7c-0.8,0.1-1.5,0.5-2,1.1l-7.6,9.3c-0.4,0.4-0.3,1.1,0.1,1.4C8,16.5,8.7,16.4,9,16
			l7.6-9.3c0.2-0.2,0.4-0.3,0.7-0.4c0.3,0,0.5,0.1,0.7,0.2c0.4,0.4,0.5,1,0.1,1.4L7.9,20.6C6.9,21.9,5,22,3.7,21
			c-1.3-1-1.5-2.9-0.4-4.2L14,3.6c0.8-0.9,1.8-1.5,3-1.6c1.2-0.1,2.4,0.2,3.3,1c1.9,1.6,2.2,4.4,0.6,6.3L13.4,18.7z"/>
	</g>
</g>
<g id="Outline_Icons">
	<g>
		<path class="st2" d="M7.7,15.2l8.5-8.5c0.8-0.8,2-0.8,2.8,0c0.8,0.8,0.8,2,0,2.8L7.5,21c-1.6,1.6-4.1,1.6-5.7,0
			c-1.6-1.6-1.6-4.1,0-5.7l12-12c2.1-2.1,5.6-2.1,7.8,0c2.1,2.1,2.1,5.6,0,7.8l-8.5,8.5"/>
	</g>
</g>
</svg>
