<?xml version="1.0" encoding="utf-8"?>
<!-- Generator: Adobe Illustrator 19.2.0, SVG Export Plug-In . SVG Version: 6.00 Build 0)  -->
<svg version="1.1" id="Layer_1" xmlns="http://www.w3.org/2000/svg" xmlns:xlink="http://www.w3.org/1999/xlink" x="0px" y="0px"
	 viewBox="0 0 24 24" style="enable-background:new 0 0 24 24;" xml:space="preserve">
<style type="text/css">
	.st0{display:none;}
	.st1{display:inline;}
	.st2{fill:none;stroke:#000000;stroke-linecap:round;stroke-linejoin:round;stroke-miterlimit:10;}
</style>
<g id="Filled_Icons" class="st0">
	<g class="st1">
		<g>
			<path d="M10.5,24c-2.9,0-5-2.3-5-5.5V7c0-4,2.8-7,6.5-7c3.7,0,6.5,3,6.5,7v8.5c0,0.6-0.4,1-1,1c-0.6,0-1-0.4-1-1V7
				c0-2.9-1.9-5-4.5-5C9.4,2,7.5,4.1,7.5,7v11.5c0,1.7,0.9,3.5,3,3.5c2.1,0,3-1.8,3-3.5v-9c0-0.6-0.1-2-1.5-2c-1.4,0-1.5,1.4-1.5,2
				V17c0,0.6-0.4,1-1,1c-0.6,0-1-0.4-1-1V9.5c0-2.4,1.4-4,3.5-4c2.1,0,3.5,1.6,3.5,4v9C15.5,21.7,13.4,24,10.5,24z"/>
		</g>
	</g>
</g>
<g id="Outline_Icons">
	<g>
		<path class="st2" d="M9.5,17V9.5c0-1.7,0.8-3,2.5-3c1.7,0,2.5,1.3,2.5,3V19c0,2.5-1.5,4.5-4,4.5c-2.5,0-4-2-4-4.5V6.5
			c0-3.3,2.2-6,5.5-6c3.3,0,5.5,2.7,5.5,6v9"/>
	</g>
</g>
</svg>
