<?xml version="1.0" encoding="utf-8"?>
<!-- Generator: Adobe Illustrator 19.2.0, SVG Export Plug-In . SVG Version: 6.00 Build 0)  -->
<svg version="1.1" id="Layer_1" xmlns="http://www.w3.org/2000/svg" xmlns:xlink="http://www.w3.org/1999/xlink" x="0px" y="0px"
	 viewBox="0 0 24 24" style="enable-background:new 0 0 24 24;" xml:space="preserve">
<style type="text/css">
	.st0{display:none;}
	.st1{display:inline;}
	.st2{fill:none;stroke:#000000;stroke-linecap:round;stroke-linejoin:round;stroke-miterlimit:10;}
</style>
<g id="Filled_Icon" class="st0">
	<g class="st1">
		<path d="M6.3,4.7C6.5,4.9,6.7,5,7,5s0.5-0.1,0.7-0.3c0.4-0.4,0.4-1,0-1.4l-3-3c-0.4-0.4-1-0.4-1.4,0l-3,3c-0.4,0.4-0.4,1,0,1.4
			s1,0.4,1.4,0L3,3.4v17.2l-1.3-1.3c-0.4-0.4-1-0.4-1.4,0s-0.4,1,0,1.4l3,3c0.4,0.4,1,0.4,1.4,0l3-3c0.4-0.4,0.4-1,0-1.4
			s-1-0.4-1.4,0L5,20.6V3.4L6.3,4.7z"/>
		<path d="M12.5,2H23c0.6,0,1-0.4,1-1s-0.4-1-1-1H12.5c-0.6,0-1,0.4-1,1S11.9,2,12.5,2z"/>
		<path d="M23,3H10.5c-0.6,0-1,0.4-1,1s0.4,1,1,1H23c0.6,0,1-0.4,1-1S23.6,3,23,3z"/>
		<path d="M23,6H10.5c-0.6,0-1,0.4-1,1s0.4,1,1,1H23c0.6,0,1-0.4,1-1S23.6,6,23,6z"/>
		<path d="M23,9H10.5c-0.6,0-1,0.4-1,1s0.4,1,1,1H23c0.6,0,1-0.4,1-1S23.6,9,23,9z"/>
		<path d="M23,15H12.5c-0.6,0-1,0.4-1,1s0.4,1,1,1H23c0.6,0,1-0.4,1-1S23.6,15,23,15z"/>
		<path d="M23,18H10.5c-0.6,0-1,0.4-1,1s0.4,1,1,1H23c0.6,0,1-0.4,1-1S23.6,18,23,18z"/>
		<path d="M23,21H10.5c-0.6,0-1,0.4-1,1s0.4,1,1,1H23c0.6,0,1-0.4,1-1S23.6,21,23,21z"/>
	</g>
</g>
<g id="Outline_Icons">
	<g>
		<line class="st2" x1="3.5" y1="0.5" x2="3.5" y2="23.5"/>
		<polyline class="st2" points="0.5,3.5 3.5,0.5 6.5,3.5 		"/>
		<polyline class="st2" points="0.5,20.5 3.5,23.5 6.5,20.5 		"/>
		<line class="st2" x1="23.5" y1="0.5" x2="12.5" y2="0.5"/>
		<line class="st2" x1="23.5" y1="3.5" x2="10.5" y2="3.5"/>
		<line class="st2" x1="23.5" y1="6.5" x2="10.5" y2="6.5"/>
		<line class="st2" x1="23.5" y1="9.5" x2="10.5" y2="9.5"/>
		<line class="st2" x1="23.5" y1="15.5" x2="12.5" y2="15.5"/>
		<line class="st2" x1="23.5" y1="18.5" x2="10.5" y2="18.5"/>
		<line class="st2" x1="23.5" y1="21.5" x2="10.5" y2="21.5"/>
	</g>
</g>
</svg>
