<?xml version="1.0" encoding="utf-8"?>
<!-- Generator: Adobe Illustrator 19.2.0, SVG Export Plug-In . SVG Version: 6.00 Build 0)  -->
<svg version="1.1" id="Layer_1" xmlns="http://www.w3.org/2000/svg" xmlns:xlink="http://www.w3.org/1999/xlink" x="0px" y="0px"
	 viewBox="0 0 24 24" style="enable-background:new 0 0 24 24;" xml:space="preserve">
<style type="text/css">
	.st0{display:none;}
	.st1{display:inline;}
	.st2{fill:none;stroke:#000000;stroke-linecap:round;stroke-linejoin:round;stroke-miterlimit:10;}
</style>
<g id="Filled_Icon" class="st0">
	<g class="st1">
		<path d="M19.5,0h-9l0,0l0,0H7C4.8,0,3,1.8,3,4s1.8,4,4,4h3v8.5c0,0.3,0.2,0.5,0.5,0.5s0.5-0.2,0.5-0.5v-9V1h4v15.5
			c0,0.3,0.2,0.5,0.5,0.5s0.5-0.2,0.5-0.5V1h3.5C19.8,1,20,0.8,20,0.5S19.8,0,19.5,0z"/>
		<path d="M1.5,18.5h18.6l-1.8-1.8c-0.4-0.4-0.4-1,0-1.4s1-0.4,1.4,0l3.5,3.5c0.2,0.2,0.3,0.5,0.3,0.7l0,0c0,0.1,0,0.2-0.1,0.4l0,0
			c-0.1,0.1-0.2,0.3-0.3,0.4l-3.4,3.5C19.5,23.9,19.3,24,19,24s-0.5-0.1-0.7-0.3c-0.4-0.4-0.4-1,0-1.4l1.8-1.8H1.5c-0.6,0-1-0.4-1-1
			C0.5,18.9,0.9,18.5,1.5,18.5z"/>
	</g>
</g>
<g id="Outline_Icons">
	<g>
		<g>
			<line class="st2" x1="15.5" y1="0.5" x2="15.5" y2="16.5"/>
			<line class="st2" x1="10.5" y1="0.5" x2="10.5" y2="16.5"/>
			<path class="st2" d="M19.5,0.5H7C5.1,0.5,3.5,2.1,3.5,4S5.1,7.5,7,7.5h3.5"/>
		</g>
		<g>
			<line class="st2" x1="22.5" y1="19.5" x2="1.5" y2="19.5"/>
			<polyline class="st2" points="18.2,23.5 22.5,19.5 18.2,15.5 			"/>
		</g>
	</g>
</g>
</svg>
