<?xml version="1.0" encoding="utf-8"?>
<!-- Generator: Adobe Illustrator 19.2.0, SVG Export Plug-In . SVG Version: 6.00 Build 0)  -->
<svg version="1.1" id="Layer_1" xmlns="http://www.w3.org/2000/svg" xmlns:xlink="http://www.w3.org/1999/xlink" x="0px" y="0px"
	 viewBox="0 0 24 24" style="enable-background:new 0 0 24 24;" xml:space="preserve">
<style type="text/css">
	.st0{display:none;}
	.st1{display:inline;}
	.st2{fill:none;stroke:#000000;stroke-linecap:round;stroke-linejoin:round;stroke-miterlimit:10;}
</style>
<g id="Filled_Icon" class="st0">
	<path class="st1" d="M23.5,0h-17C2.9,0,0,2.9,0,6.5S2.9,13,6.5,13H10v10.5c0,0.3,0.2,0.5,0.5,0.5s0.5-0.2,0.5-0.5v-11V1h6v22.5
		c0,0.3,0.2,0.5,0.5,0.5s0.5-0.2,0.5-0.5V1h5.5C23.8,1,24,0.8,24,0.5S23.8,0,23.5,0z"/>
</g>
<g id="Outline_Icons">
	<g>
		<line class="st2" x1="17.5" y1="0.5" x2="17.5" y2="23.5"/>
		<line class="st2" x1="10.5" y1="0.5" x2="10.5" y2="23.5"/>
		<path class="st2" d="M23.5,0.5h-17c-3.3,0-6,2.7-6,6s2.7,6,6,6h4"/>
	</g>
</g>
</svg>
