<?xml version="1.0" encoding="utf-8"?>
<!-- Generator: Adobe Illustrator 19.2.0, SVG Export Plug-In . SVG Version: 6.00 Build 0)  -->
<svg version="1.1" id="Layer_1" xmlns="http://www.w3.org/2000/svg" xmlns:xlink="http://www.w3.org/1999/xlink" x="0px" y="0px"
	 viewBox="0 0 24 24" style="enable-background:new 0 0 24 24;" xml:space="preserve">
<style type="text/css">
	.st0{display:none;}
	.st1{display:inline;}
	.st2{fill:none;stroke:#000000;stroke-linejoin:round;stroke-miterlimit:10;}
	.st3{fill:none;stroke:#000000;stroke-linecap:round;stroke-linejoin:round;stroke-miterlimit:10;}
</style>
<g id="Filled_Icons" class="st0">
	<path class="st1" d="M13.4,18.2L10,14h1.5c0.2,0,0.4-0.1,0.4-0.3c0.1-0.2,0.1-0.4,0-0.5L9,9h0.5c0.2,0,0.3-0.1,0.4-0.3
		c0.1-0.2,0.1-0.3,0-0.5l-3-5C6.8,3.1,6.7,3,6.5,3S6.1,3.1,6.1,3.3l-2.5,5c-0.1,0.2-0.1,0.3,0,0.5C3.7,8.9,3.8,9,4,9h0.5l-3,4.2
		c-0.1,0.2-0.1,0.4,0,0.5C1.6,13.9,1.8,14,2,14h1.5l-3.4,4.2C0,18.3,0,18.5,0,18.7C0.1,18.9,0.3,19,0.5,19H6v4.5
		C6,23.8,6.2,24,6.5,24S7,23.8,7,23.5V19h6c0.2,0,0.4-0.1,0.5-0.3C13.5,18.5,13.5,18.3,13.4,18.2z"/>
	<path class="st1" d="M23.5,15h-8c-0.3,0-0.5,0.2-0.5,0.5v6c0,0.3,0.2,0.5,0.5,0.5H16v2h1v-2h5v2h1v-2h0.5c0.3,0,0.5-0.2,0.5-0.5v-6
		C24,15.2,23.8,15,23.5,15z M23,19h-1v-3h1V19z M20,19v-3h1v3H20z M19,19h-1v-3h1V19z M17,16v3h-1v-3H17z"/>
</g>
<g id="Outline_Icons">
	<g>
		<line class="st2" x1="15.5" y1="19.5" x2="23.5" y2="19.5"/>
		<g>
			<polygon class="st2" points="11.5,13.5 8,8.5 9.5,8.5 6.5,3.5 4,8.5 5.5,8.5 2,13.5 4.5,13.5 0.5,18.5 13,18.5 9,13.5 			"/>
			<line class="st3" x1="6.5" y1="18.5" x2="6.5" y2="23.5"/>
		</g>
		<rect x="15.5" y="15.5" class="st2" width="8" height="6"/>
		<line class="st2" x1="16.5" y1="21.5" x2="16.5" y2="24"/>
		<line class="st2" x1="17.5" y1="15.5" x2="17.5" y2="19.5"/>
		<line class="st2" x1="19.5" y1="15.5" x2="19.5" y2="19.5"/>
		<line class="st2" x1="21.5" y1="15.5" x2="21.5" y2="19.5"/>
		<line class="st2" x1="22.5" y1="21.5" x2="22.5" y2="24"/>
	</g>
</g>
</svg>
