<?xml version="1.0" encoding="utf-8"?>
<!-- Generator: Adobe Illustrator 19.2.0, SVG Export Plug-In . SVG Version: 6.00 Build 0)  -->
<svg version="1.1" id="Layer_1" xmlns="http://www.w3.org/2000/svg" xmlns:xlink="http://www.w3.org/1999/xlink" x="0px" y="0px"
	 viewBox="0 0 24 24" style="enable-background:new 0 0 24 24;" xml:space="preserve">
<style type="text/css">
	.st0{display:none;}
	.st1{display:inline;}
	.st2{fill:none;stroke:#000000;stroke-linecap:round;stroke-linejoin:round;stroke-miterlimit:10;}
	.st3{fill:none;stroke:#000000;stroke-linejoin:round;stroke-miterlimit:10;}
</style>
<g id="Filled_Icons" class="st0">
	<g class="st1">
		<path d="M15.2,0.3C15,0.2,14.7,0,14.3,0c-0.6,0-1.4,0.3-2.3,0.9C11.1,0.3,10.3,0,9.7,0C9.3,0,9,0.2,8.8,0.3
			C8.2,0.9,8.4,2.1,9.4,3.5c-1,1.4-1.2,2.6-0.6,3.2C9,6.8,9.3,7,9.7,7c0.6,0,1.4-0.3,2.3-0.9C12.9,6.7,13.7,7,14.3,7c0,0,0,0,0,0
			c0.5,0,0.7-0.2,0.9-0.3c0.6-0.6,0.4-1.8-0.6-3.2C15.5,2.1,15.8,0.9,15.2,0.3z"/>
		<g>
			<path d="M14.2,8c-0.8,0-1.5-0.3-2.2-0.7C11.4,7.6,10.6,7.9,9.9,8l-1.6,4.2l6.5-2.4L14.2,8z"/>
			<path d="M17,15L5.6,19.2L4,23.3c-0.1,0.1,0,0.3,0,0.4l14.4-5.4L17,15z"/>
			<polygon points="15.3,10.6 7.9,13.4 6.1,18 16.7,14 			"/>
			<path d="M18.8,19.3L6.2,24H20c0.2,0,0.3-0.1,0.4-0.2c0.1-0.1,0.1-0.3,0-0.5L18.8,19.3z"/>
		</g>
	</g>
</g>
<g id="Outline_Icons">
	<g>
		<path class="st2" d="M14.8,0.7c-0.5-0.5-1.6-0.1-2.8,0.8c-1.2-0.9-2.4-1.3-2.8-0.8C8.7,1.1,9.1,2.3,10,3.5
			C9.1,4.7,8.7,5.9,9.2,6.3c0.5,0.5,1.6,0.1,2.8-0.8c1.2,0.9,2.4,1.3,2.8,0.8c0.5-0.5,0.1-1.6-0.8-2.8C14.9,2.3,15.3,1.1,14.8,0.7z"
			/>
		<g>
			<line class="st3" x1="18.2" y1="19" x2="16.4" y2="14.7"/>
			<polyline class="st3" points="6.2,23.5 4.5,23.5 6.5,18.4 			"/>
			<line class="st3" x1="8.7" y1="12.5" x2="6.5" y2="18.4"/>
			<line class="st3" x1="14.6" y1="10.3" x2="16.4" y2="14.7"/>
			<polyline class="st3" points="6.2,23.5 20,23.5 18.2,19 			"/>
			<line class="st3" x1="12.9" y1="6.1" x2="14.6" y2="10.3"/>
			<line class="st3" x1="11.2" y1="6.1" x2="8.7" y2="12.5"/>
			<line class="st3" x1="6.2" y1="23.5" x2="18.2" y2="19"/>
			<line class="st3" x1="6.5" y1="18.4" x2="16.4" y2="14.7"/>
			<line class="st3" x1="14.6" y1="10.3" x2="8.7" y2="12.5"/>
		</g>
	</g>
</g>
</svg>
