<?xml version="1.0" encoding="utf-8"?>
<!-- Generator: Adobe Illustrator 19.2.0, SVG Export Plug-In . SVG Version: 6.00 Build 0)  -->
<svg version="1.1" id="Layer_1" xmlns="http://www.w3.org/2000/svg" xmlns:xlink="http://www.w3.org/1999/xlink" x="0px" y="0px"
	 viewBox="0 0 24 24" style="enable-background:new 0 0 24 24;" xml:space="preserve">
<style type="text/css">
	.st0{display:none;}
	.st1{display:inline;}
	.st2{fill:none;stroke:#000000;stroke-linejoin:round;stroke-miterlimit:10;}
</style>
<g id="Filled_Icons" class="st0">
	<path class="st1" d="M24,2.3c0-0.2-0.1-0.4-0.3-0.4c-0.2-0.1-0.4,0-0.5,0.1c-1.5,1.4-2.7,2-3.7,2c-0.8,0-1.4-0.4-2.2-0.8
		c-0.9-0.5-1.8-1.1-3.2-1.1c-0.7,0-1.4,0.1-2.1,0.4c-0.8-0.3-1.4-0.4-2.1-0.4c-1.3,0-2.3,0.6-3.2,1.1C6,3.6,5.3,4,4.5,4
		c-1,0-2.2-0.7-3.7-2C0.7,1.8,0.5,1.8,0.3,1.8S0,2.1,0,2.3c0,0.3-0.4,6.3,2.7,9.6c1.3,1.4,3,2.1,5,2.1c1.9,0,3.4-0.4,4.3-0.8
		c0.9,0.4,2.4,0.8,4.3,0.8c2,0,3.7-0.7,5-2.1c0.3-0.3,0.5-0.6,0.7-0.9v13h2V3.5C24,2.8,24,2.3,24,2.3z M10,8.5
		c-0.2,1-1.7,1.6-3.3,1.3S3.8,8.5,4,7.5c0.2-1,1.7-1.6,3.3-1.3C9,6.4,10.2,7.5,10,8.5z M17.3,9.9c-1.6,0.3-3.1-0.3-3.3-1.3
		c-0.2-1,1-2.1,2.6-2.4c1.6-0.3,3.1,0.3,3.3,1.3C20.2,8.5,19,9.6,17.3,9.9z"/>
</g>
<g id="Outline_Icons">
	<g>
		<path class="st2" d="M23.5,2.3c-5.9,5.6-6-1.5-11.5,0.8C6.5,0.8,6.5,7.8,0.5,2.3c0,0-0.8,11.2,7.2,11.2c1.9,0,3.4-0.5,4.3-0.9
			c0.9,0.4,2.4,0.9,4.3,0.9C24.3,13.5,23.5,2.3,23.5,2.3z"/>
		<line class="st2" x1="23.5" y1="3" x2="23.5" y2="24"/>
		<ellipse transform="matrix(0.9844 -0.176 0.176 0.9844 -1.1425 3.1171)" class="st2" cx="17" cy="8" rx="3" ry="1.9"/>
		<ellipse transform="matrix(0.176 -0.9844 0.9844 0.176 -2.1067 13.4829)" class="st2" cx="7" cy="8" rx="1.9" ry="3"/>
	</g>
</g>
</svg>
