<?xml version="1.0" encoding="utf-8"?>
<!-- Generator: Adobe Illustrator 19.2.0, SVG Export Plug-In . SVG Version: 6.00 Build 0)  -->
<svg version="1.1" id="Layer_1" xmlns="http://www.w3.org/2000/svg" xmlns:xlink="http://www.w3.org/1999/xlink" x="0px" y="0px"
	 viewBox="0 0 24 24" style="enable-background:new 0 0 24 24;" xml:space="preserve">
<style type="text/css">
	.st0{display:none;}
	.st1{display:inline;}
	.st2{fill:none;stroke:#000000;stroke-linejoin:round;stroke-miterlimit:10;}
	.st3{fill:none;stroke:#000000;stroke-linecap:round;stroke-linejoin:round;stroke-miterlimit:10;}
</style>
<g id="Filled_Icons" class="st0">
	<g class="st1">
		<path d="M7.2,8.5C7,8.7,6.9,9,6.8,9.3l0,0L0.2,21.6C-0.1,22.2,0,23,0.5,23.5C0.8,23.8,1.2,24,1.6,24c0.3,0,0.5-0.1,0.8-0.2
			l12.3-6.6c0.3-0.1,0.6-0.2,0.8-0.4c1.2-1.2,0.3-3.9-2-6.3C11.2,8.3,8.4,7.3,7.2,8.5z M14.8,16.1c-0.2,0.2-0.4,0.2-0.7,0.2
			c-1.1,0-2.7-0.9-4.1-2.3c-2-2-2.7-4.2-2-4.8C8.1,9,8.3,9,8.6,9c1.1,0,2.7,0.9,4.1,2.3C14.8,13.3,15.5,15.4,14.8,16.1z"/>
		<path d="M23.8,11.9c-2.1-2.1-5.6-2.1-7.7,0c-0.2,0.2-0.2,0.5,0,0.7c0.1,0.1,0.2,0.1,0.4,0.1s0.3,0,0.4-0.1c1.7-1.7,4.6-1.7,6.3,0
			c0.2,0.2,0.5,0.2,0.7,0C24,12.4,24,12.1,23.8,11.9z"/>
		<path d="M11.4,7.9C11.5,8,11.6,8,11.8,8s0.3,0,0.4-0.1c1-1,1.6-2.4,1.6-3.9s-0.6-2.8-1.6-3.9c-0.2-0.2-0.5-0.2-0.7,0
			s-0.2,0.5,0,0.7c0.8,0.8,1.3,2,1.3,3.2c0,1.2-0.5,2.3-1.3,3.2C11.2,7.4,11.2,7.7,11.4,7.9z"/>
		<path d="M18.1,8.8c0.1,0,0.1,0,0.2,0l3.5-1.2c0.3-0.1,0.4-0.4,0.3-0.6c-0.1-0.3-0.4-0.4-0.6-0.3l-3.5,1.2
			c-0.3,0.1-0.4,0.4-0.3,0.6C17.7,8.6,17.9,8.8,18.1,8.8z"/>
		<path d="M15.6,6.4c0.1,0,0.1,0,0.2,0c0.2,0,0.4-0.1,0.5-0.3l1.2-3.5c0.1-0.3-0.1-0.5-0.3-0.6c-0.3-0.1-0.5,0.1-0.6,0.3l-1.2,3.5
			C15.2,6,15.3,6.3,15.6,6.4z"/>
		<path d="M15.6,9.3c0.3,0,0.5-0.1,0.7-0.3c0.4-0.4,0.4-1,0-1.4c-0.4-0.4-1-0.4-1.4,0c-0.4,0.4-0.4,1,0,1.4
			C15,9.2,15.3,9.3,15.6,9.3z"/>
		<path d="M8.1,6.3c0.3,0,0.5-0.1,0.7-0.3C9,5.9,9.1,5.6,9.1,5.3c0-0.3-0.1-0.5-0.3-0.7c-0.4-0.4-1-0.4-1.4,0
			C7.2,4.8,7.1,5.1,7.1,5.3c0,0.3,0.1,0.5,0.3,0.7C7.6,6.2,7.9,6.3,8.1,6.3z"/>
		<path d="M19.9,5.1c0.3,0,0.5-0.1,0.7-0.3c0.4-0.4,0.4-1,0-1.4c-0.4-0.4-1-0.4-1.4,0c-0.4,0.4-0.4,1,0,1.4
			C19.4,5,19.6,5.1,19.9,5.1z"/>
		<path d="M18.5,13.4c-0.4,0.4-0.4,1,0,1.4c0.2,0.2,0.4,0.3,0.7,0.3s0.5-0.1,0.7-0.3c0.4-0.4,0.4-1,0-1.4C19.6,13,18.9,13,18.5,13.4
			z"/>
	</g>
</g>
<g id="Outline_Icons">
	<g>
		<path class="st2" d="M7.2,9.5L0.6,21.8c-0.2,0.4-0.2,1,0.2,1.3c0.4,0.4,0.9,0.4,1.3,0.2l12.3-6.6"/>
		<ellipse transform="matrix(0.7073 -0.707 0.707 0.7073 -5.6166 11.7331)" class="st2" cx="11.4" cy="12.6" rx="2.5" ry="5.4"/>
		<path class="st3" d="M16.4,12.2c1.9-1.9,5.1-1.9,7,0"/>
		<path class="st3" d="M11.8,7.5c1.9-1.9,1.9-5.1,0-7"/>
		<line class="st3" x1="18.1" y1="8.2" x2="21.6" y2="7.1"/>
		<line class="st3" x1="15.7" y1="5.9" x2="16.9" y2="2.4"/>
		<circle class="st3" cx="15.6" cy="8.3" r="0.5"/>
		<circle class="st3" cx="8.1" cy="5.3" r="0.5"/>
		<circle class="st3" cx="19.9" cy="4.1" r="0.5"/>
		<circle class="st3" cx="19.2" cy="14.1" r="0.5"/>
	</g>
</g>
</svg>
