<?xml version="1.0" encoding="utf-8"?>
<!-- Generator: Adobe Illustrator 19.2.0, SVG Export Plug-In . SVG Version: 6.00 Build 0)  -->
<svg version="1.1" id="Outline_Icons" xmlns="http://www.w3.org/2000/svg" xmlns:xlink="http://www.w3.org/1999/xlink" x="0px"
	 y="0px" viewBox="0 0 24 24" style="enable-background:new 0 0 24 24;" xml:space="preserve">
<style type="text/css">
	.st0{fill:none;stroke:#000000;stroke-linecap:round;stroke-linejoin:round;stroke-miterlimit:10;}
</style>
<g>
	<g>
		<path class="st0" d="M11.5,21.5c0,1.1,0.9,2,2,2h8c1.1,0,2-0.9,2-2v-11c0-1.1-0.9-2-2-2h-8c-1.1,0-2,0.9-2,2V21.5z"/>
		<circle class="st0" cx="17.5" cy="15.5" r="4"/>
		<line class="st0" x1="16.5" y1="19.4" x2="16.5" y2="11.6"/>
		<line class="st0" x1="18.5" y1="19.4" x2="18.5" y2="11.6"/>
		<line class="st0" x1="13.6" y1="14.5" x2="21.4" y2="14.5"/>
		<line class="st0" x1="13.6" y1="16.5" x2="21.4" y2="16.5"/>
	</g>
	<g>
		<path class="st0" d="M10,19.5c-5.2,0-9.5-4.3-9.5-9.5S4.8,0.5,10,0.5c4.2,0,7.8,2.7,9,6.5"/>
		<polyline class="st0" points="7.5,14.5 7.5,12.5 3.8,9.2 5.7,6.5 10.6,6.5 10.6,3.8 9.2,3 12.8,0.9 		"/>
		<polyline class="st0" points="17,3.6 15.6,6.3 14.1,6.3 13.4,7 		"/>
	</g>
</g>
</svg>
