<?xml version="1.0" encoding="utf-8"?>
<!-- Generator: Adobe Illustrator 19.2.0, SVG Export Plug-In . SVG Version: 6.00 Build 0)  -->
<svg version="1.1" id="Layer_1" xmlns="http://www.w3.org/2000/svg" xmlns:xlink="http://www.w3.org/1999/xlink" x="0px" y="0px"
	 viewBox="0 0 24 24" style="enable-background:new 0 0 24 24;" xml:space="preserve">
<style type="text/css">
	.st0{display:none;}
	.st1{display:inline;}
	.st2{fill:none;stroke:#000000;stroke-linecap:round;stroke-linejoin:round;stroke-miterlimit:10;}
</style>
<g id="Filled_Icons" class="st0">
	<path class="st1" d="M20.5,4H20V0.5C20,0.2,19.8,0,19.5,0h-14C4.1,0,3,1.1,3,2.5v19C3,22.9,4.1,24,5.5,24h15c0.3,0,0.5-0.2,0.5-0.5
		v-19C21,4.2,20.8,4,20.5,4z M9,19.8c-1.2-0.6-2.1-1.6-2.8-2.8H9V19.8z M9,16H5.8c-0.2-0.6-0.3-1.3-0.3-2s0.1-1.4,0.3-2H9V16z M9,11
		H6.2C6.9,9.8,7.8,8.9,9,8.2V11z M14,20.2c-0.6,0.2-1.3,0.3-2,0.3s-1.4-0.1-2-0.3V17h4V20.2z M14,16h-4v-4h4V16z M14,11h-4V7.8
		c0.6-0.2,1.3-0.3,2-0.3s1.4,0.1,2,0.3V11z M15,19.8V17h2.8C17.1,18.2,16.2,19.1,15,19.8z M18.2,16H15v-4h3.2c0.2,0.6,0.3,1.3,0.3,2
		S18.4,15.4,18.2,16z M15,11V8.2c1.2,0.6,2.1,1.6,2.8,2.8H15z M19,4h-1V2.5C18,2.2,17.8,2,17.5,2h-12C5.2,2,5,2.2,5,2.5S5.2,3,5.5,3
		H17v1H5.5C4.7,4,4,3.3,4,2.5S4.7,1,5.5,1H19V4z"/>
</g>
<g id="Outline_Icons">
	<g>
		<polyline class="st2" points="5.5,2.5 17.5,2.5 17.5,4.5 		"/>
		<path class="st2" d="M19.5,4.5v-4h-14c-1.1,0-2,0.9-2,2s0.9,2,2,2h15v19h-15c-1.1,0-2-0.9-2-2v-19"/>
		<circle class="st2" cx="12" cy="14" r="6"/>
		<line class="st2" x1="6.5" y1="16.5" x2="17.5" y2="16.5"/>
		<line class="st2" x1="6.5" y1="11.5" x2="17.5" y2="11.5"/>
		<line class="st2" x1="9.5" y1="8.5" x2="9.5" y2="19.5"/>
		<line class="st2" x1="14.5" y1="8.5" x2="14.5" y2="19.5"/>
	</g>
</g>
</svg>
