<?xml version="1.0" encoding="utf-8"?>
<!-- Generator: Adobe Illustrator 19.2.0, SVG Export Plug-In . SVG Version: 6.00 Build 0)  -->
<svg version="1.1" id="Layer_1" xmlns="http://www.w3.org/2000/svg" xmlns:xlink="http://www.w3.org/1999/xlink" x="0px" y="0px"
	 viewBox="0 0 24 24" style="enable-background:new 0 0 24 24;" xml:space="preserve">
<style type="text/css">
	.st0{display:none;}
	.st1{display:inline;}
	.st2{fill:none;stroke:#000000;stroke-linecap:round;stroke-linejoin:round;stroke-miterlimit:10;}
</style>
<g id="Filled_Icon" class="st0">
	<path class="st1" d="M12,24c6.6,0,12-5.4,12-12S18.6,0,12,0S0,5.4,0,12S5.4,24,12,24z M7,7.5C7,7.2,7.2,7,7.5,7h3
		C10.8,7,11,7.2,11,7.5v9c0,0.3-0.2,0.5-0.5,0.5h-3C7.2,17,7,16.8,7,16.5V7.5z M13,16.5v-9C13,7.2,13.2,7,13.5,7h3
		C16.8,7,17,7.2,17,7.5v9c0,0.3-0.2,0.5-0.5,0.5h-3C13.2,17,13,16.8,13,16.5z"/>
</g>
<g id="Outline_Icons">
	<g>
		<circle class="st2" cx="12" cy="12" r="11.5"/>
		<rect x="7.5" y="7.5" class="st2" width="3" height="9"/>
		<rect x="13.5" y="7.5" class="st2" width="3" height="9"/>
	</g>
</g>
</svg>
