<?xml version="1.0" encoding="utf-8"?>
<!-- Generator: Adobe Illustrator 19.2.0, SVG Export Plug-In . SVG Version: 6.00 Build 0)  -->
<svg version="1.1" id="Layer_1" xmlns="http://www.w3.org/2000/svg" xmlns:xlink="http://www.w3.org/1999/xlink" x="0px" y="0px"
	 viewBox="0 0 24 24" style="enable-background:new 0 0 24 24;" xml:space="preserve">
<style type="text/css">
	.st0{display:none;}
	.st1{display:inline;}
	.st2{fill:none;stroke:#000000;stroke-linejoin:round;stroke-miterlimit:10;}
	.st3{fill:none;stroke:#000000;stroke-linecap:round;stroke-linejoin:round;stroke-miterlimit:10;}
</style>
<g id="Filled_Icons" class="st0">
	<g class="st1">
		<path d="M17.3,13c-0.7-0.7-1.4-1.4-1.6-2.2c-0.6-2.4-1.2-5-4-5.3c0-1.5-1.2-2.5-2.5-2.5h-2C6.9,3,6.6,3.2,6.6,3.5S6.9,4,7.1,4h2
			c0.8,0,1.5,0.6,1.5,1.5c-2.8,0.3-3.5,2.9-4,5.3C6.4,11.7,5.8,12.3,5,13c-1.1,1.1-2.5,2.5-2.5,5.2c0,3.7,3.2,5.8,8.6,5.8
			c5.5,0,8.6-2.1,8.6-5.8C19.8,15.5,18.4,14.1,17.3,13z"/>
		<path d="M13.1,5.5c2.8,0,5-2.2,5-5c0-0.3-0.2-0.5-0.5-0.5c-2.8,0-5,2.2-5,5C12.6,5.3,12.9,5.5,13.1,5.5z"/>
	</g>
</g>
<g id="Outline_Icons">
	<g>
		<path class="st2" d="M11.1,6c2.8,0,3.4,2.4,4.1,4.9c0.6,2.4,4.1,3.1,4.1,7.2c0,4.1-4.1,5.3-8.1,5.3c-4.1,0-8.1-1.3-8.1-5.3
			c0-4.1,3.5-4.8,4.1-7.2C7.7,8.4,8.3,6,11.1,6z"/>
		<path class="st3" d="M11.1,6V5.5c0-1.1-0.9-2-2-2h-2"/>
		<path class="st2" d="M13.1,5c2.5,0,4.5-2,4.5-4.5C15.2,0.5,13.1,2.5,13.1,5z"/>
	</g>
</g>
</svg>
