<?xml version="1.0" encoding="utf-8"?>
<!-- Generator: Adobe Illustrator 19.2.0, SVG Export Plug-In . SVG Version: 6.00 Build 0)  -->
<svg version="1.1" id="Outline_Icons" xmlns="http://www.w3.org/2000/svg" xmlns:xlink="http://www.w3.org/1999/xlink" x="0px"
	 y="0px" viewBox="0 0 24 24" style="enable-background:new 0 0 24 24;" xml:space="preserve">
<style type="text/css">
	.st0{fill:none;stroke:#000000;stroke-linejoin:round;stroke-miterlimit:10;}
	.st1{fill:none;stroke:#000000;stroke-linecap:round;stroke-linejoin:round;stroke-miterlimit:10;}
</style>
<g>
	<g>
		<rect x="0.5" y="11.5" class="st0" width="7" height="9"/>
		<rect x="16.5" y="11.5" class="st0" width="7" height="9"/>
		<rect x="7.5" y="6.5" class="st0" width="9" height="14"/>
		<polygon class="st0" points="16.5,8.5 22,8.5 23.5,11.5 16.5,11.5 		"/>
		<polygon class="st0" points="7.5,8.5 2,8.5 0.5,11.5 7.5,11.5 		"/>
		<polygon class="st0" points="7.5,6.5 9,3.5 15,3.5 16.5,6.5 		"/>
	</g>
	<polyline class="st1" points="12.5,15.9 12.5,11 11,11.6 	"/>
	<path class="st1" d="M3.1,15c0-0.5,0.4-0.9,0.9-0.9C4.6,14.1,5,14.5,5,15c0,0.3-0.1,0.4-0.2,0.5L3.1,18H5"/>
	<g>
		<path class="st1" d="M19,14.9c0-0.4,0.2-0.9,0.9-0.9c0.8,0,0.9,0.6,0.9,1s-0.1,1-0.9,1"/>
		<path class="st1" d="M19,17.1c0,0.4,0.2,0.9,0.9,0.9c0.8,0,0.9-0.6,0.9-1c0-0.4-0.1-1-0.9-1"/>
	</g>
</g>
</svg>
