<?xml version="1.0" encoding="utf-8"?>
<!-- Generator: Adobe Illustrator 19.2.0, SVG Export Plug-In . SVG Version: 6.00 Build 0)  -->
<svg version="1.1" id="Layer_1" xmlns="http://www.w3.org/2000/svg" xmlns:xlink="http://www.w3.org/1999/xlink" x="0px" y="0px"
	 viewBox="0 0 24 24" style="enable-background:new 0 0 24 24;" xml:space="preserve">
<style type="text/css">
	.st0{display:none;}
	.st1{display:inline;}
	.st2{fill:none;stroke:#000000;stroke-linecap:round;stroke-linejoin:round;stroke-miterlimit:10;}
</style>
<g id="Filled_Icons" class="st0">
	<g class="st1">
		<path d="M1.4,22.6c0.1,0.1,0.4,0.2,0.6,0.1l4.6-2l-3.3-3.3l-2,4.6C1.2,22.2,1.2,22.5,1.4,22.6z"/>
		<path d="M17.4,10.2l5.2-5.2c0.1-0.1,0.1-0.2,0.1-0.4c0-0.1-0.1-0.3-0.1-0.4l-2.8-2.8c-0.2-0.2-0.5-0.2-0.7,0l-0.4,0.4
			c-0.4-0.3-0.9-0.4-1.4-0.4l0,0c-0.7,0-1.3,0.3-1.8,0.7L9.9,7.8C9.7,8,9.7,8.3,9.9,8.5c0.2,0.2,0.5,0.2,0.7,0l5.7-5.7
			c0.4-0.4,1.1-0.5,1.7-0.3l-4.1,4.1L17.4,10.2z"/>
		<path d="M7.4,20.2l9.3-9.3l-3.5-3.5c-0.3,0.3-0.7,0.7-1.3,1.2l-8,8L7.4,20.2z"/>
	</g>
</g>
<g id="Outline_Icons">
	<g>
		<rect x="3.2" y="11.8" transform="matrix(0.7072 -0.707 0.707 0.7072 -6.7371 11.2667)" class="st2" width="14" height="4"/>
		<path class="st2" d="M18.7,2.5c-0.8-0.8-2-0.8-2.8,0l-5.7,5.7"/>
		<rect x="14" y="4" transform="matrix(0.707 -0.7072 0.7072 0.707 1.0419 14.4938)" class="st2" width="8" height="4"/>
		<polygon class="st2" points="1.7,22.3 3.9,17.3 6.7,20.1 		"/>
	</g>
</g>
</svg>
