<?xml version="1.0" encoding="utf-8"?>
<!-- Generator: Adobe Illustrator 19.2.0, SVG Export Plug-In . SVG Version: 6.00 Build 0)  -->
<svg version="1.1" id="Layer_1" xmlns="http://www.w3.org/2000/svg" xmlns:xlink="http://www.w3.org/1999/xlink" x="0px" y="0px"
	 viewBox="0 0 24 24" style="enable-background:new 0 0 24 24;" xml:space="preserve">
<style type="text/css">
	.st0{display:none;}
	.st1{display:inline;}
	.st2{fill:none;stroke:#000000;stroke-linecap:round;stroke-linejoin:round;stroke-miterlimit:10;}
</style>
<g id="Filled_Icon" class="st0">
	<g class="st1">
		<circle cx="12.5" cy="10.5" r="1.5"/>
		<path d="M10.5,23.7c0.1,0.2,0.3,0.3,0.5,0.3h1V12.9c-1.1-0.2-2-1.2-2-2.4C10,9.1,11.1,8,12.5,8c1.4,0,2.5,1.1,2.5,2.5
			c0,1.2-0.9,2.2-2,2.4V24h1c0.2,0,0.4-0.1,0.5-0.3l6-12.5c0.1-0.2,0.1-0.3,0-0.5L16.9,5H8.1l-3.5,5.7c-0.1,0.1-0.1,0.3,0,0.5
			L10.5,23.7z"/>
		<path d="M16.8,4l1.6-3.3c0.1-0.2,0.1-0.3,0-0.5C18.3,0.1,18.2,0,18,0H6.5C6.3,0,6.2,0.1,6.1,0.3C6,0.4,6,0.6,6.1,0.8l2,3.2H16.8z"
			/>
	</g>
</g>
<g id="Outline_Icons">
	<g>
		<polygon class="st2" points="16,4.5 9,4.5 6.5,0.5 18,0.5 		"/>
		<polygon class="st2" points="14,23.5 11,23.5 5,11 9,4.5 16,4.5 20,11 		"/>
		<line class="st2" x1="12.5" y1="12.5" x2="12.5" y2="23.5"/>
		<circle class="st2" cx="12.5" cy="10.5" r="2"/>
	</g>
</g>
</svg>
