<?xml version="1.0" encoding="utf-8"?>
<!-- Generator: Adobe Illustrator 19.2.0, SVG Export Plug-In . SVG Version: 6.00 Build 0)  -->
<svg version="1.1" id="Layer_1" xmlns="http://www.w3.org/2000/svg" xmlns:xlink="http://www.w3.org/1999/xlink" x="0px" y="0px"
	 viewBox="0 0 24 24" style="enable-background:new 0 0 24 24;" xml:space="preserve">
<style type="text/css">
	.st0{display:none;}
	.st1{display:inline;}
	.st2{fill:none;stroke:#000000;stroke-linecap:round;stroke-linejoin:round;stroke-miterlimit:10;}
</style>
<g id="Filled_Icon" class="st0">
	<g class="st1">
		<g>
			<path d="M12.9,8.4l-2.7-0.9c-0.2-0.1-0.4,0-0.5,0.1C9.6,7.8,9.5,8,9.6,8.2l0.9,2.7L12.9,8.4z"/>
			<path d="M23.4,18.6L13.8,9l-2.7,2.7l9.6,9.6c0.4,0.4,0.8,0.6,1.4,0.6c0.5,0,1-0.2,1.4-0.6C23.8,21,24,20.5,24,20
				C24,19.5,23.8,19,23.4,18.6z"/>
		</g>
		<path d="M21.5,0h-19C1.1,0,0,1.1,0,2.5v12C0,15.9,1.1,17,2.5,17h12.4l-2-2H7.5C7.2,15,7,14.8,7,14.5v-12C7,2.2,7.2,2,7.5,2h14
			C21.8,2,22,2.2,22,2.5v12c0,0.3-0.2,0.5-0.5,0.5h-0.3l1.6,1.6c0.7-0.4,1.2-1.2,1.2-2.1v-12C24,1.1,22.9,0,21.5,0z M6,14.5
			C6,14.8,5.8,15,5.5,15h-3C2.2,15,2,14.8,2,14.5V12l0,0h4V14.5z M6,11H2l0,0V9l0,0h4V11z M6,8H2l0,0V6l0,0h4V8z M6,5H2l0,0V2.5
			C2,2.2,2.2,2,2.5,2h3C5.8,2,6,2.2,6,2.5V5z"/>
	</g>
</g>
<g id="Outline_Icons">
	<g>
		<path class="st2" d="M16.4,16.5H2.5c-1.1,0-2-0.9-2-2v-12c0-1.1,0.9-2,2-2h19c1.1,0,2,0.9,2,2v12c0,1.1-0.9,2-2,2h-0.9"/>
		<polyline class="st2" points="14.6,14.5 7.5,14.5 7.5,2.5 21.5,2.5 21.5,14.5 18.6,14.5 		"/>
		<path class="st2" d="M11.1,11l-1-3l3,1l10,10c0.6,0.6,0.6,1.4,0,2c-0.6,0.6-1.4,0.6-2,0L11.1,11z"/>
		<line class="st2" x1="13.1" y1="9" x2="11.1" y2="11"/>
		<rect x="2.5" y="2.5" class="st2" width="3" height="3"/>
		<rect x="2.5" y="5.5" class="st2" width="3" height="3"/>
		<rect x="2.5" y="8.5" class="st2" width="3" height="3"/>
		<rect x="2.5" y="11.5" class="st2" width="3" height="3"/>
	</g>
</g>
</svg>
