<?xml version="1.0" encoding="utf-8"?>
<!-- Generator: Adobe Illustrator 19.2.0, SVG Export Plug-In . SVG Version: 6.00 Build 0)  -->
<svg version="1.1" id="Layer_1" xmlns="http://www.w3.org/2000/svg" xmlns:xlink="http://www.w3.org/1999/xlink" x="0px" y="0px"
	 viewBox="0 0 24 24" style="enable-background:new 0 0 24 24;" xml:space="preserve">
<style type="text/css">
	.st0{display:none;}
	.st1{display:inline;}
	.st2{fill:none;stroke:#000000;stroke-linecap:round;stroke-linejoin:round;stroke-miterlimit:10;}
</style>
<g id="Filled_Icons" class="st0">
	<g class="st1">
		<path d="M1,23c0.2,0.2,0.5,0.2,0.7,0l1.8-1.8l0.4,0.4c0.2,0.2,0.5,0.2,0.7,0l1.8-1.8l0.4,0.4c0.1,0.1,0.2,0.1,0.4,0.1
			c0.1,0,0.3,0,0.4-0.1l9.4-9.4l-3.5-3.5l-9.4,9.4c-0.1,0.1-0.1,0.2-0.1,0.4c0,0.1,0.1,0.3,0.1,0.4l0.4,0.4l-1.8,1.8
			c-0.2,0.2-0.2,0.5,0,0.7l0.4,0.4L1,22.3C0.8,22.4,0.8,22.8,1,23z"/>
		<path d="M17.5,10L23,4.6c0.1-0.1,0.1-0.2,0.1-0.4c0-0.1-0.1-0.3-0.1-0.4L20.1,1c-0.2-0.2-0.5-0.2-0.7,0L19,1.4
			C18.6,1.2,18.2,1,17.7,1c-0.7,0-1.3,0.3-1.8,0.7l-5.7,5.7c-0.2,0.2-0.2,0.5,0,0.7c0.2,0.2,0.5,0.2,0.7,0l5.7-5.7
			C17,2,17.7,1.9,18.3,2.2L14,6.5L17.5,10z"/>
	</g>
</g>
<g id="Outline_Icons">
	<g>
		<rect x="3.6" y="11.4" transform="matrix(0.7072 -0.707 0.707 0.7072 -6.3851 11.4099)" class="st2" width="14" height="4"/>
		<path class="st2" d="M19.1,2.1c-0.8-0.8-2-0.8-2.8,0l-5.7,5.7"/>
		<line class="st2" x1="3.5" y1="20.5" x2="1.4" y2="22.6"/>
		<rect x="14.4" y="3.6" transform="matrix(0.707 -0.7072 0.7072 0.707 1.3938 14.6379)" class="st2" width="8" height="4"/>
		<rect x="3.1" y="18.4" transform="matrix(0.7071 -0.7071 0.7071 0.7071 -12.3951 8.9243)" class="st2" width="3" height="2"/>
	</g>
</g>
</svg>
