<?xml version="1.0" encoding="utf-8"?>
<!-- Generator: Adobe Illustrator 19.2.0, SVG Export Plug-In . SVG Version: 6.00 Build 0)  -->
<svg version="1.1" id="Layer_1" xmlns="http://www.w3.org/2000/svg" xmlns:xlink="http://www.w3.org/1999/xlink" x="0px" y="0px"
	 viewBox="0 0 24 24" style="enable-background:new 0 0 24 24;" xml:space="preserve">
<style type="text/css">
	.st0{display:none;}
	.st1{display:inline;}
	.st2{fill:none;stroke:#000000;stroke-linecap:round;stroke-linejoin:round;stroke-miterlimit:10;}
</style>
<g id="Filled_Icons" class="st0">
	<g class="st1">
		<path d="M2.4,17.4c-1,1-1.7,4.5-1.9,5.4l2.9-2.9c0.2-0.2,0.5-0.2,0.7,0c0.2,0.2,0.2,0.5,0,0.7l-2.9,2.9c0.9-0.2,4.4-0.9,5.4-1.9
			c0.6-0.6,0.9-1.3,0.9-2.1c0-0.8-0.3-1.5-0.9-2.1c-0.6-0.6-1.3-0.9-2.1-0.9C3.7,16.5,2.9,16.9,2.4,17.4z"/>
		<path d="M5.5,15.7l2.8,2.8c0.1,0.1,0.2,0.1,0.4,0.1c0.1,0,0.3-0.1,0.4-0.1l8.9-8.9l-3.6-3.5L5.5,15C5.3,15.1,5.3,15.5,5.5,15.7z"
			/>
		<path d="M18.6,8.9l5.2-5.2C23.9,3.6,24,3.5,24,3.3c0-0.1-0.1-0.3-0.1-0.4L21,0.1c-0.2-0.2-0.5-0.2-0.7,0l-0.4,0.4
			c-0.4-0.3-0.9-0.4-1.4-0.4c-0.7,0-1.3,0.3-1.8,0.7l-5.7,5.7c-0.2,0.2-0.2,0.5,0,0.7c0.2,0.2,0.5,0.2,0.7,0l5.7-5.7
			c0.4-0.4,1.1-0.5,1.7-0.3L15,5.4L18.6,8.9z"/>
	</g>
</g>
<g id="Outline_Icons">
	<g>
		<path class="st2" d="M6.2,21.3C5.3,22.2,1,23,1,23s0.8-4.3,1.7-5.2c1-1,2.5-1,3.5,0C7.2,18.7,7.2,20.3,6.2,21.3z"/>
		<line class="st2" x1="3.8" y1="20.2" x2="1" y2="23"/>
		<rect x="4.1" y="10.7" transform="matrix(0.7072 -0.707 0.707 0.7072 -5.6352 11.73)" class="st2" width="14.4" height="4"/>
		<path class="st2" d="M20,1.2c-0.8-0.8-2-0.8-2.8,0l-5.7,5.7"/>
		<rect x="15.3" y="2.7" transform="matrix(0.7069 -0.7073 0.7073 0.7069 2.2932 15.0184)" class="st2" width="8" height="4"/>
	</g>
</g>
</svg>
