<?xml version="1.0" encoding="utf-8"?>
<!-- Generator: Adobe Illustrator 19.2.0, SVG Export Plug-In . SVG Version: 6.00 Build 0)  -->
<svg version="1.1" id="Layer_1" xmlns="http://www.w3.org/2000/svg" xmlns:xlink="http://www.w3.org/1999/xlink" x="0px" y="0px"
	 viewBox="0 0 24 24" style="enable-background:new 0 0 24 24;" xml:space="preserve">
<style type="text/css">
	.st0{display:none;}
	.st1{display:inline;}
	.st2{fill:none;stroke:#000000;stroke-linecap:round;stroke-linejoin:round;stroke-miterlimit:10;}
</style>
<g id="Filled_Icons" class="st0">
	<g class="st1">
		<path d="M23.5,11h-5.9l-1,1l-3.2,3.2c0,0-0.1,0.1-0.2,0.1l-4.5,1.9c-0.2,0.1-0.4,0-0.5-0.1C8.1,17,8,16.7,8.1,16.6l1.9-4.5
			c0,0,0,0,0,0c0,0,0.1-0.1,0.1-0.2L11,11H0.5C0.2,11,0,11.2,0,11.5v10C0,21.8,0.2,22,0.5,22h23c0.3,0,0.5-0.2,0.5-0.5v-10
			C24,11.2,23.8,11,23.5,11z M23,20.5c0,0.3-0.2,0.5-0.5,0.5h-21C1.2,21,1,20.8,1,20.5l0-8C1,12.3,1.2,12,1.5,12h6
			C7.8,12,8,12.3,8,12.5C8,12.8,7.7,13,7.5,13H2l0,7h20v-7h-3.2c-0.3,0-0.5-0.2-0.5-0.5c0-0.2,0.2-0.5,0.5-0.5h3.7
			c0.2,0,0.3,0.1,0.4,0.2c0.1,0.1,0.1,0.2,0.1,0.3V20.5z"/>
		<rect x="18.3" y="5" transform="matrix(0.707 -0.7072 0.7072 0.707 1.0771 15.2711)" width="1.4" height="2.6"/>
		<polygon points="9.5,15.8 12.2,14.7 10.7,13.1 		"/>
		<rect x="11" y="9" transform="matrix(0.707 -0.7072 0.7072 0.707 -2.9401 13.6079)" width="8" height="2.6"/>
	</g>
</g>
<g id="Outline_Icons">
	<g>
		<polyline class="st2" points="19,12.5 23.5,12.5 23.5,21.5 0.5,21.5 0.5,12.5 7,12.5 		"/>
		<g>
			<polygon class="st2" points="13.2,14.9 8.2,17 10.3,12 19.2,3.2 22,6 			"/>
			<line class="st2" x1="20.2" y1="7.9" x2="17.3" y2="5"/>
			<line class="st2" x1="13.2" y1="14.9" x2="10.3" y2="12"/>
		</g>
	</g>
</g>
</svg>
