<?xml version="1.0" encoding="utf-8"?>
<!-- Generator: Adobe Illustrator 19.2.0, SVG Export Plug-In . SVG Version: 6.00 Build 0)  -->
<svg version="1.1" id="Layer_1" xmlns="http://www.w3.org/2000/svg" xmlns:xlink="http://www.w3.org/1999/xlink" x="0px" y="0px"
	 viewBox="0 0 24 24" style="enable-background:new 0 0 24 24;" xml:space="preserve">
<style type="text/css">
	.st0{display:none;}
	.st1{display:inline;}
	.st2{fill:none;stroke:#000000;stroke-linecap:round;stroke-linejoin:round;stroke-miterlimit:10;}
</style>
<g id="Filled_Icons" class="st0">
	<g class="st1">
		<path d="M0.7,23.4c0.2,0.2,0.4,0.2,0.6,0.1l5.3-2.7l-3.3-3.3l-2.7,5.3C0.5,23,0.5,23.2,0.7,23.4z"/>
		<path d="M22.2,5.4l1.1-1.1c1-1,1-2.6,0-3.5c-0.5-0.5-1.1-0.7-1.8-0.7c-0.7,0-1.3,0.3-1.8,0.7l-1.1,1.1L22.2,5.4z"/>
		<rect x="2.7" y="8.9" transform="matrix(0.7071 -0.7071 0.7071 0.7071 -4.3406 12.2793)" width="19.9" height="5"/>
	</g>
</g>
<g id="Outline_Icons">
	<g>
		<path class="st2" d="M6.7,20.2L1,23l2.8-5.7L20,1.2c0.8-0.8,2-0.8,2.8,0c0.8,0.8,0.8,2,0,2.8L6.7,20.2z"/>
		<line class="st2" x1="21.4" y1="5.4" x2="18.6" y2="2.6"/>
		<line class="st2" x1="6.7" y1="20.2" x2="3.8" y2="17.3"/>
	</g>
</g>
</svg>
