<?xml version="1.0" encoding="utf-8"?>
<!-- Generator: Adobe Illustrator 19.2.0, SVG Export Plug-In . SVG Version: 6.00 Build 0)  -->
<svg version="1.1" id="Layer_1" xmlns="http://www.w3.org/2000/svg" xmlns:xlink="http://www.w3.org/1999/xlink" x="0px" y="0px"
	 viewBox="0 0 24 24" style="enable-background:new 0 0 24 24;" xml:space="preserve">
<style type="text/css">
	.st0{display:none;}
	.st1{display:inline;}
	.st2{fill:none;stroke:#000000;stroke-linecap:round;stroke-linejoin:round;stroke-miterlimit:10;}
</style>
<g id="Filled_Icons" class="st0">
	<g class="st1">
		<path d="M0.4,23.1c0,0.2,0,0.3,0.1,0.5c0.1,0.1,0.3,0.2,0.5,0.1l6.5-1.5c0,0,0.1,0,0.1,0l-5.6-5.6c0,0,0,0.1,0,0.1L0.4,23.1z"/>
		<rect x="18.5" y="1" transform="matrix(0.7079 -0.7064 0.7064 0.7079 2.0007 14.9014)" width="1" height="8"/>
		<rect x="2.8" y="8.4" transform="matrix(0.7071 -0.7071 0.7071 0.7071 -5.3092 11.8877)" width="17.7" height="8"/>
		<path d="M22.9,6.8l0.4-0.4c1-1,1-2.6,0-3.5l-2.1-2.1c-0.5-0.5-1.1-0.7-1.8-0.7c-0.7,0-1.3,0.3-1.8,0.7l-0.4,0.4L22.9,6.8z"/>
	</g>
</g>
<g id="Outline_Icons">
	<g>
		<path class="st2" d="M7.3,21.7l-6.5,1.5l1.5-6.5L17.9,1.1c0.8-0.8,2-0.8,2.8,0l2.1,2.1c0.8,0.8,0.8,2,0,2.8L7.3,21.7z"/>
		<line class="st2" x1="22.2" y1="6.8" x2="17.2" y2="1.8"/>
		<line class="st2" x1="20.8" y1="8.2" x2="15.8" y2="3.2"/>
		<line class="st2" x1="7.5" y1="21.4" x2="2.6" y2="16.5"/>
	</g>
</g>
</svg>
