<?xml version="1.0" encoding="utf-8"?>
<!-- Generator: Adobe Illustrator 19.2.0, SVG Export Plug-In . SVG Version: 6.00 Build 0)  -->
<svg version="1.1" id="Outline_Icons" xmlns="http://www.w3.org/2000/svg" xmlns:xlink="http://www.w3.org/1999/xlink" x="0px"
	 y="0px" viewBox="0 0 24 24" style="enable-background:new 0 0 24 24;" xml:space="preserve">
<style type="text/css">
	.st0{fill:none;stroke:#000000;stroke-linecap:round;stroke-linejoin:round;stroke-miterlimit:10;}
</style>
<g>
	<path class="st0" d="M9.5,21.5c0,1.1-0.9,2-2,2s-2-0.9-2-2V8l2-4.5l2,4.5V21.5z"/>
	<line class="st0" x1="5.5" y1="20.5" x2="9.5" y2="20.5"/>
	<line class="st0" x1="5.5" y1="18.5" x2="9.5" y2="18.5"/>
	<rect x="12.5" y="0.5" class="st0" width="6" height="23"/>
	<line class="st0" x1="12.5" y1="3.5" x2="14.5" y2="3.5"/>
	<line class="st0" x1="12.5" y1="7.5" x2="14.5" y2="7.5"/>
	<line class="st0" x1="12.5" y1="11.5" x2="14.5" y2="11.5"/>
	<line class="st0" x1="12.5" y1="15.5" x2="14.5" y2="15.5"/>
	<line class="st0" x1="12.5" y1="19.5" x2="14.5" y2="19.5"/>
	<line class="st0" x1="6" y1="7.5" x2="9" y2="7.5"/>
	<line class="st0" x1="7.5" y1="7.5" x2="7.5" y2="18.5"/>
</g>
</svg>
