<?xml version="1.0" encoding="utf-8"?>
<!-- Generator: Adobe Illustrator 19.2.0, SVG Export Plug-In . SVG Version: 6.00 Build 0)  -->
<svg version="1.1" id="Layer_1" xmlns="http://www.w3.org/2000/svg" xmlns:xlink="http://www.w3.org/1999/xlink" x="0px" y="0px"
	 viewBox="0 0 24 24" style="enable-background:new 0 0 24 24;" xml:space="preserve">
<style type="text/css">
	.st0{display:none;}
	.st1{display:inline;}
	.st2{fill:none;stroke:#000000;stroke-linecap:round;stroke-linejoin:round;stroke-miterlimit:10;}
</style>
<g id="Filled_Icons" class="st0">
	<g class="st1">
		<path d="M0.6,23.4c0.1,0.1,0.3,0.2,0.5,0.1l2.8-0.9l-2.5-2.5l-0.9,2.8C0.5,23,0.5,23.2,0.6,23.4z"/>
		<rect x="17.4" y="2.3" transform="matrix(0.7074 -0.7068 0.7068 0.7074 1.0265 14.4785)" width="1.1" height="7.4"/>
		<path d="M5,22.3l2.4-0.7l-1.2-1.2C6.1,20.3,6,20.1,6,20v-2H4c-0.1,0-0.3-0.1-0.4-0.1l-1.2-1.2L1.7,19L5,22.3z"/>
		<polygon points="17.2,7.5 7,17.7 7,19.8 8.2,21 19.5,9.7 		"/>
		<path d="M21.7,7.5l1.2-1.2c0.5-0.5,0.7-1.1,0.7-1.8c0-0.7-0.3-1.3-0.7-1.8l-1.7-1.7c-0.5-0.5-1.1-0.7-1.8-0.7
			c-0.7,0-1.3,0.3-1.8,0.7l-1.2,1.2L21.7,7.5z"/>
		<polygon points="4.2,17 6.3,17 16.5,6.8 14.3,4.5 3,15.8 		"/>
	</g>
</g>
<g id="Outline_Icons">
	<g>
		<polygon class="st2" points="7.5,21 1,23 3,16.5 15,4.5 19.5,9 		"/>
		<path class="st2" d="M15,4.5l3.1-3.1c0.8-0.8,2.1-0.8,2.8,0l1.7,1.7c0.8,0.8,0.8,2.1,0,2.8L19.5,9"/>
		<line class="st2" x1="17.2" y1="6.8" x2="6.5" y2="17.5"/>
		<polyline class="st2" points="3,16.5 4,17.5 6.5,17.5 6.5,20 7.5,21 		"/>
		<line class="st2" x1="2" y1="20" x2="4" y2="22"/>
		<line class="st2" x1="16.5" y1="3" x2="21" y2="7.5"/>
	</g>
</g>
</svg>
