<?xml version="1.0" encoding="utf-8"?>
<!-- Generator: Adobe Illustrator 19.2.0, SVG Export Plug-In . SVG Version: 6.00 Build 0)  -->
<svg version="1.1" id="Layer_1" xmlns="http://www.w3.org/2000/svg" xmlns:xlink="http://www.w3.org/1999/xlink" x="0px" y="0px"
	 viewBox="0 0 24 24" style="enable-background:new 0 0 24 24;" xml:space="preserve">
<style type="text/css">
	.st0{display:none;}
	.st1{display:inline;}
	.st2{fill:none;stroke:#000000;stroke-linecap:round;stroke-linejoin:round;stroke-miterlimit:10;}
</style>
<g id="Filled_Icons" class="st0">
	<path class="st1" d="M12,0C5.4,0,0,5.4,0,12c0,6.6,5.4,12,12,12c6.6,0,12-5.4,12-12C24,5.4,18.6,0,12,0z M5.3,18.1l2-4.6l3.3,3.3
		l-4.6,2c-0.2,0.1-0.4,0-0.6-0.1C5.2,18.5,5.2,18.3,5.3,18.1z M11.4,16.1l-3.5-3.5l6.3-6.3c0,0,0,0,0,0l3.5,3.5L11.4,16.1
		C11.4,16.2,11.4,16.2,11.4,16.1z M14.9,5.6C14.8,5.6,14.8,5.6,14.9,5.6l1.5-1.5C16.5,4,16.8,4,17,4.1L19.9,7c0.2,0.2,0.2,0.5,0,0.7
		l-1.5,1.5L14.9,5.6z"/>
</g>
<g id="Outline_Icons">
	<g>
		<polygon class="st2" points="10.7,16.2 5.7,18.3 7.8,13.3 16.7,4.5 19.5,7.3 		"/>
		<line class="st2" x1="17.7" y1="9.2" x2="14.8" y2="6.3"/>
		<line class="st2" x1="10.7" y1="16.2" x2="7.8" y2="13.3"/>
		<circle class="st2" cx="12" cy="12" r="11.5"/>
	</g>
</g>
</svg>
