<?xml version="1.0" encoding="utf-8"?>
<!-- Generator: Adobe Illustrator 19.2.0, SVG Export Plug-In . SVG Version: 6.00 Build 0)  -->
<svg version="1.1" id="Layer_1" xmlns="http://www.w3.org/2000/svg" xmlns:xlink="http://www.w3.org/1999/xlink" x="0px" y="0px"
	 viewBox="0 0 24 24" style="enable-background:new 0 0 24 24;" xml:space="preserve">
<style type="text/css">
	.st0{display:none;}
	.st1{display:inline;}
	.st2{fill:none;stroke:#000000;stroke-linecap:round;stroke-linejoin:round;stroke-miterlimit:10;}
</style>
<g id="Filled_Icons" class="st0">
	<g class="st1">
		<path d="M15.4,10.6c0,0-0.1,0.1-0.1,0.1L12.6,12c-0.2,0.1-0.4,0.1-0.6-0.1c-0.2-0.2-0.2-0.4-0.1-0.6l1.3-2.6c0,0,0.1-0.1,0.1-0.1
			C16.3,5.6,20,2,20,2h0H0.5C0.2,2,0,2.2,0,2.5v21C0,23.8,0.2,24,0.5,24H20c0.3,0,0.5-0.2,0.5-0.5v-18l-1,1L15.4,10.6z M19.5,22.5
			c0,0.3-0.2,0.5-0.5,0.5H1.5C1.2,23,1,22.8,1,22.5v-19C1,3.2,1.2,3,1.5,3h14.6c0.3,0,0.5,0.2,0.5,0.5c0,0.3-0.2,0.5-0.5,0.5H2v18
			h16.5V11.1c0-0.3,0.2-0.5,0.5-0.5c0.3,0,0.5,0.2,0.5,0.5V22.5z"/>
		<path d="M23.5,0.8c-0.1-0.3-0.4-0.4-0.7-0.2l-0.9,0.9l0.6,0.6l0.9-0.9C23.5,1.1,23.5,0.9,23.5,0.8z"/>
		<polygon points="14.1,9.3 13.5,10.5 14.7,9.9 21.7,2.9 21.1,2.3 		"/>
	</g>
</g>
<g id="Outline_Icons">
	<g>
		<polyline class="st2" points="19.5,11 19.5,23.5 0.5,23.5 0.5,2.5 16.5,2.5 		"/>
		<path class="st2" d="M13.6,11.8l-2.8,1.4l1.4-2.8l9.5-9.5c0.9-0.9,2.4,0.5,1.4,1.4L13.6,11.8z"/>
		<line class="st2" x1="20.4" y1="2.2" x2="21.8" y2="3.6"/>
	</g>
</g>
</svg>
