<?xml version="1.0" encoding="utf-8"?>
<!-- Generator: Adobe Illustrator 19.2.0, SVG Export Plug-In . SVG Version: 6.00 Build 0)  -->
<svg version="1.1" id="Layer_1" xmlns="http://www.w3.org/2000/svg" xmlns:xlink="http://www.w3.org/1999/xlink" x="0px" y="0px"
	 viewBox="0 0 24 24" style="enable-background:new 0 0 24 24;" xml:space="preserve">
<style type="text/css">
	.st0{display:none;}
	.st1{display:inline;}
	.st2{fill:none;stroke:#000000;stroke-linecap:round;stroke-linejoin:round;stroke-miterlimit:10;}
</style>
<g id="Filled_Icon" class="st0">
	<g class="st1">
		<path d="M23.9,2.6l-2.5-2.5c-0.2-0.2-0.5-0.2-0.7,0L0.1,20.6c-0.2,0.2-0.2,0.5,0,0.7l2.5,2.5C2.7,24,2.9,24,3,24s0.3,0,0.4-0.1
			L23.9,3.4C24,3.2,24,2.8,23.9,2.6z"/>
		<path d="M4.5,9C7,9,9,7,9,4.5S7,0,4.5,0S0,2,0,4.5S2,9,4.5,9z"/>
		<path d="M19.5,15C17,15,15,17,15,19.5s2,4.5,4.5,4.5s4.5-2,4.5-4.5S22,15,19.5,15z"/>
	</g>
</g>
<g id="Outline_Icons">
	<g>
		<rect x="-2.5" y="10.2" transform="matrix(0.7072 -0.707 0.707 0.7072 -4.9565 11.9627)" class="st2" width="29" height="3.5"/>
		<circle class="st2" cx="4.5" cy="4.5" r="4"/>
		<circle class="st2" cx="19.5" cy="19.5" r="4"/>
	</g>
</g>
</svg>
