<?xml version="1.0" encoding="utf-8"?>
<!-- Generator: Adobe Illustrator 19.2.0, SVG Export Plug-In . SVG Version: 6.00 Build 0)  -->
<svg version="1.1" id="Layer_1" xmlns="http://www.w3.org/2000/svg" xmlns:xlink="http://www.w3.org/1999/xlink" x="0px" y="0px"
	 viewBox="0 0 24 24" style="enable-background:new 0 0 24 24;" xml:space="preserve">
<style type="text/css">
	.st0{display:none;}
	.st1{display:inline;}
	.st2{fill:none;stroke:#000000;stroke-linecap:round;stroke-linejoin:round;stroke-miterlimit:10;}
</style>
<g id="Filled_Icon" class="st0">
	<g class="st1">
		<path d="M23,0L23,0h-6c-0.6,0-1,0.4-1,1s0.4,1,1,1h3.6L0.3,22.3c-0.4,0.4-0.4,1,0,1.4C0.5,23.9,0.7,24,1,24s0.5-0.1,0.7-0.3
			L22,3.4V7c0,0.6,0.4,1,1,1s1-0.4,1-1V1C24,0.5,23.6,0,23,0z"/>
		<path d="M5,9.5c2.5,0,4.5-2,4.5-4.5S7.5,0.5,5,0.5S0.5,2.5,0.5,5S2.5,9.5,5,9.5z"/>
		<path d="M19,14.5c-2.5,0-4.5,2-4.5,4.5s2,4.5,4.5,4.5s4.5-2,4.5-4.5S21.5,14.5,19,14.5z"/>
	</g>
</g>
<g id="Outline_Icons">
	<g>
		<g>
			<line class="st2" x1="0.5" y1="23.5" x2="23.5" y2="0.5"/>
			<circle class="st2" cx="5" cy="5" r="3.5"/>
			<circle class="st2" cx="19" cy="19" r="3.5"/>
		</g>
		<polyline class="st2" points="23.5,7 23.5,0.5 17,0.5 		"/>
	</g>
</g>
</svg>
