<?xml version="1.0" encoding="utf-8"?>
<!-- Generator: Adobe Illustrator 19.2.0, SVG Export Plug-In . SVG Version: 6.00 Build 0)  -->
<svg version="1.1" id="Layer_1" xmlns="http://www.w3.org/2000/svg" xmlns:xlink="http://www.w3.org/1999/xlink" x="0px" y="0px"
	 viewBox="0 0 24 24" style="enable-background:new 0 0 24 24;" xml:space="preserve">
<style type="text/css">
	.st0{display:none;}
	.st1{display:inline;}
	.st2{fill:none;stroke:#000000;stroke-linecap:round;stroke-linejoin:round;stroke-miterlimit:10;}
</style>
<g id="Filled_Icon" class="st0">
	<g class="st1">
		<path d="M16.7,8.7c0.4-0.4,0.4-1,0-1.4s-1-0.4-1.4,0l-8,8c-0.4,0.4-0.4,1,0,1.4C7.5,16.9,7.7,17,8,17s0.5-0.1,0.7-0.3L16.7,8.7z"
			/>
		<path d="M9,6.5C7.6,6.5,6.5,7.6,6.5,9s1.1,2.5,2.5,2.5s2.5-1.1,2.5-2.5S10.4,6.5,9,6.5z M9,9.5C8.7,9.5,8.5,9.3,8.5,9
			S8.7,8.5,9,8.5S9.5,8.7,9.5,9S9.3,9.5,9,9.5z"/>
		<path d="M12.5,15c0,1.4,1.1,2.5,2.5,2.5s2.5-1.1,2.5-2.5s-1.1-2.5-2.5-2.5S12.5,13.6,12.5,15z M15.5,15c0,0.3-0.2,0.5-0.5,0.5
			s-0.5-0.2-0.5-0.5s0.2-0.5,0.5-0.5S15.5,14.7,15.5,15z"/>
		<path d="M2.5,0H0v2.5c0,0.6,0.4,1,1,1s1-0.4,1-1V2h0.5c0.6,0,1-0.4,1-1S3.1,0,2.5,0z"/>
		<path d="M21.5,0c-0.6,0-1,0.4-1,1s0.4,1,1,1H22v0.5c0,0.6,0.4,1,1,1s1-0.4,1-1V0H21.5z"/>
		<path d="M5.5,2h1c0.6,0,1-0.4,1-1s-0.4-1-1-1h-1c-0.6,0-1,0.4-1,1S5,2,5.5,2z"/>
		<path d="M9.5,2h1c0.6,0,1-0.4,1-1s-0.4-1-1-1h-1c-0.6,0-1,0.4-1,1S8.9,2,9.5,2z"/>
		<path d="M13.5,2h1c0.6,0,1-0.4,1-1s-0.4-1-1-1h-1c-0.6,0-1,0.4-1,1S12.9,2,13.5,2z"/>
		<path d="M18.5,0h-1c-0.6,0-1,0.4-1,1s0.4,1,1,1h1c0.6,0,1-0.4,1-1S19.1,0,18.5,0z"/>
		<path d="M2.5,22H2v-0.5c0-0.6-0.4-1-1-1s-1,0.4-1,1V24h2.5c0.6,0,1-0.4,1-1S3.1,22,2.5,22z"/>
		<path d="M23,20.5c-0.6,0-1,0.4-1,1V22h-0.5c-0.6,0-1,0.4-1,1s0.4,1,1,1H24v-2.5C24,20.9,23.6,20.5,23,20.5z"/>
		<path d="M6.5,22h-1c-0.6,0-1,0.4-1,1s0.4,1,1,1h1c0.6,0,1-0.4,1-1S7.1,22,6.5,22z"/>
		<path d="M10.5,22h-1c-0.6,0-1,0.4-1,1s0.4,1,1,1h1c0.6,0,1-0.4,1-1S11,22,10.5,22z"/>
		<path d="M14.5,22h-1c-0.6,0-1,0.4-1,1s0.4,1,1,1h1c0.6,0,1-0.4,1-1S15,22,14.5,22z"/>
		<path d="M18.5,22h-1c-0.6,0-1,0.4-1,1s0.4,1,1,1h1c0.6,0,1-0.4,1-1S19.1,22,18.5,22z"/>
		<path d="M23,4.5c-0.6,0-1,0.4-1,1v1c0,0.6,0.4,1,1,1s1-0.4,1-1v-1C24,5,23.6,4.5,23,4.5z"/>
		<path d="M23,8.5c-0.6,0-1,0.4-1,1v1c0,0.6,0.4,1,1,1s1-0.4,1-1v-1C24,8.9,23.6,8.5,23,8.5z"/>
		<path d="M23,12.5c-0.6,0-1,0.4-1,1v1c0,0.6,0.4,1,1,1s1-0.4,1-1v-1C24,12.9,23.6,12.5,23,12.5z"/>
		<path d="M23,16.5c-0.6,0-1,0.4-1,1v1c0,0.6,0.4,1,1,1s1-0.4,1-1v-1C24,17,23.6,16.5,23,16.5z"/>
		<path d="M1,7.5c0.6,0,1-0.4,1-1v-1c0-0.6-0.4-1-1-1s-1,0.4-1,1v1C0,7.1,0.4,7.5,1,7.5z"/>
		<path d="M1,11.5c0.6,0,1-0.4,1-1v-1c0-0.6-0.4-1-1-1s-1,0.4-1,1v1C0,11,0.4,11.5,1,11.5z"/>
		<path d="M1,15.5c0.6,0,1-0.4,1-1v-1c0-0.6-0.4-1-1-1s-1,0.4-1,1v1C0,15,0.4,15.5,1,15.5z"/>
		<path d="M1,19.5c0.6,0,1-0.4,1-1v-1c0-0.6-0.4-1-1-1s-1,0.4-1,1v1C0,19.1,0.4,19.5,1,19.5z"/>
	</g>
</g>
<g id="Outline_Icons">
	<g>
		<line class="st2" x1="8" y1="16" x2="16" y2="8"/>
		<circle class="st2" cx="9" cy="9" r="1.5"/>
		<circle class="st2" cx="15" cy="15" r="1.5"/>
		<polyline class="st2" points="0.5,22.5 0.5,23.5 1.5,23.5 		"/>
		<polyline class="st2" points="22.5,23.5 23.5,23.5 23.5,22.5 		"/>
		<polyline class="st2" points="0.5,1.5 0.5,0.5 1.5,0.5 		"/>
		<polyline class="st2" points="22.5,0.5 23.5,0.5 23.5,1.5 		"/>
		<line class="st2" x1="3.5" y1="23.5" x2="4.5" y2="23.5"/>
		<line class="st2" x1="11.5" y1="23.5" x2="12.5" y2="23.5"/>
		<line class="st2" x1="7.5" y1="23.5" x2="8.5" y2="23.5"/>
		<line class="st2" x1="15.5" y1="23.5" x2="16.5" y2="23.5"/>
		<line class="st2" x1="19.5" y1="23.5" x2="20.5" y2="23.5"/>
		<line class="st2" x1="3.5" y1="0.5" x2="4.5" y2="0.5"/>
		<line class="st2" x1="11.5" y1="0.5" x2="12.5" y2="0.5"/>
		<line class="st2" x1="7.5" y1="0.5" x2="8.5" y2="0.5"/>
		<line class="st2" x1="15.5" y1="0.5" x2="16.5" y2="0.5"/>
		<line class="st2" x1="19.5" y1="0.5" x2="20.5" y2="0.5"/>
		<line class="st2" x1="23.5" y1="20.5" x2="23.5" y2="19.5"/>
		<line class="st2" x1="23.5" y1="12.5" x2="23.5" y2="11.5"/>
		<line class="st2" x1="23.5" y1="16.5" x2="23.5" y2="15.5"/>
		<line class="st2" x1="23.5" y1="8.5" x2="23.5" y2="7.5"/>
		<line class="st2" x1="23.5" y1="4.5" x2="23.5" y2="3.5"/>
		<line class="st2" x1="0.5" y1="20.5" x2="0.5" y2="19.5"/>
		<line class="st2" x1="0.5" y1="12.5" x2="0.5" y2="11.5"/>
		<line class="st2" x1="0.5" y1="16.5" x2="0.5" y2="15.5"/>
		<line class="st2" x1="0.5" y1="8.5" x2="0.5" y2="7.5"/>
		<line class="st2" x1="0.5" y1="4.5" x2="0.5" y2="3.5"/>
	</g>
</g>
</svg>
