<?xml version="1.0" encoding="utf-8"?>
<!-- Generator: Adobe Illustrator 19.2.0, SVG Export Plug-In . SVG Version: 6.00 Build 0)  -->
<svg version="1.1" id="Layer_1" xmlns="http://www.w3.org/2000/svg" xmlns:xlink="http://www.w3.org/1999/xlink" x="0px" y="0px"
	 viewBox="0 0 24 24" style="enable-background:new 0 0 24 24;" xml:space="preserve">
<style type="text/css">
	.st0{display:none;}
	.st1{display:inline;}
	.st2{fill:none;stroke:#000000;stroke-linecap:round;stroke-linejoin:round;stroke-miterlimit:10;}
</style>
<g id="Filled_Icon" class="st0">
	<g class="st1">
		<path d="M23.7,0.3c-0.4-0.4-1-0.4-1.4,0l-22,22c-0.4,0.4-0.4,1,0,1.4C0.5,23.9,0.7,24,1,24s0.5-0.1,0.7-0.3l22-22
			C24.1,1.3,24.1,0.7,23.7,0.3z"/>
		<path d="M5,9c2.2,0,4-1.8,4-4S7.2,1,5,1S1,2.8,1,5S2.8,9,5,9z"/>
		<path d="M19,15c-2.2,0-4,1.8-4,4s1.8,4,4,4s4-1.8,4-4S21.2,15,19,15z"/>
	</g>
</g>
<g id="Outline_Icons">
	<g>
		<line class="st2" x1="0.5" y1="23.5" x2="23.5" y2="0.5"/>
		<circle class="st2" cx="5" cy="5" r="3.5"/>
		<circle class="st2" cx="19" cy="19" r="3.5"/>
	</g>
</g>
</svg>
