<?xml version="1.0" encoding="utf-8"?>
<!-- Generator: Adobe Illustrator 19.2.0, SVG Export Plug-In . SVG Version: 6.00 Build 0)  -->
<svg version="1.1" id="Layer_1" xmlns="http://www.w3.org/2000/svg" xmlns:xlink="http://www.w3.org/1999/xlink" x="0px" y="0px"
	 viewBox="0 0 24 24" style="enable-background:new 0 0 24 24;" xml:space="preserve">
<style type="text/css">
	.st0{display:none;}
	.st1{display:inline;}
	.st2{fill:none;stroke:#000000;stroke-linecap:round;stroke-linejoin:round;stroke-miterlimit:10;}
	.st3{fill:none;stroke:#000000;stroke-linejoin:round;stroke-miterlimit:10;}
</style>
<g id="Filled_Icon" class="st0">
	<path class="st1" d="M12,0C5.4,0,0,5.4,0,12s5.4,12,12,12s12-5.4,12-12S18.6,0,12,0z M9,7c1.1,0,2,0.9,2,2s-0.9,2-2,2s-2-0.9-2-2
		S7.9,7,9,7z M8.4,16.4c-0.1,0.1-0.2,0.1-0.4,0.1c-0.1,0-0.3,0-0.4-0.1c-0.2-0.2-0.2-0.5,0-0.7l8-8c0.2-0.2,0.5-0.2,0.7,0
		s0.2,0.5,0,0.7L8.4,16.4z M15,17c-1.1,0-2-0.9-2-2s0.9-2,2-2s2,0.9,2,2S16.1,17,15,17z"/>
</g>
<g id="Outline_Icons">
	<g>
		<line class="st2" x1="7.5" y1="15.5" x2="15.5" y2="7.5"/>
		<circle class="st2" cx="8.5" cy="8.5" r="1.5"/>
		<circle class="st2" cx="14.5" cy="14.5" r="1.5"/>
		<circle class="st3" cx="11.5" cy="11.5" r="11"/>
	</g>
</g>
</svg>
