<?xml version="1.0" encoding="utf-8"?>
<!-- Generator: Adobe Illustrator 19.2.0, SVG Export Plug-In . SVG Version: 6.00 Build 0)  -->
<svg version="1.1" id="Layer_1" xmlns="http://www.w3.org/2000/svg" xmlns:xlink="http://www.w3.org/1999/xlink" x="0px" y="0px"
	 viewBox="0 0 24 24" style="enable-background:new 0 0 24 24;" xml:space="preserve">
<style type="text/css">
	.st0{display:none;}
	.st1{display:inline;}
	.st2{fill:none;stroke:#000000;stroke-linejoin:round;stroke-miterlimit:10;}
	.st3{fill:none;stroke:#000000;stroke-linecap:round;stroke-linejoin:round;stroke-miterlimit:10;}
</style>
<g id="Filled_Icons" class="st0">
	<g class="st1">
		<path d="M14.6,20.1C13,21.3,11.1,22,9,22s-4-0.7-5.6-1.9l-2.3,3.1c-0.1,0.2-0.1,0.4,0,0.5c0,0.2,0.2,0.3,0.4,0.3h15
			c0.2,0,0.4-0.1,0.4-0.3c0.1-0.2,0.1-0.4,0-0.5L14.6,20.1z"/>
		<path d="M4,4h0.5C4.8,4,5,3.8,5,3.5S4.8,3,4.5,3H4C3.7,3,3.5,3.2,3.5,3.5S3.7,4,4,4z"/>
		<path d="M1.5,4H2c0.3,0,0.5-0.2,0.5-0.5S2.3,3,2,3H1.5C1.2,3,1,3.2,1,3.5S1.2,4,1.5,4z"/>
		<path d="M15.1,3H12V1.5C12,1.2,11.8,1,11.5,1h-5C6.2,1,6,1.2,6,1.5V3h2l0,0c0.3,0,0.5,0.2,0.5,0.5S8.3,4,8,4H6v1.5l0,0h6l0,0V4
			h3.1c0.3,1.6,2.1,2.8,3.9,3V0C17.2,0.2,15.4,1.4,15.1,3z"/>
		<path d="M20,0v7c2-0.2,4-1.6,4-3.5C24,1.7,22,0.3,20,0z"/>
		<path d="M13.6,6.5H4.4C2.3,8,1,10.3,1,13c0,4.4,3.6,8,8,8s8-3.6,8-8C17,10.3,15.7,8,13.6,6.5z"/>
	</g>
</g>
<g id="Outline_Icons">
	<g>
		<rect x="6.5" y="1.5" class="st2" width="5" height="4"/>
		<line class="st2" x1="11.5" y1="3.5" x2="15.5" y2="3.5"/>
		<path class="st2" d="M23.5,3.5c0,1.7-2.1,3-4,3s-4-1.3-4-3s2.1-3,4-3S23.5,1.8,23.5,3.5z"/>
		<path class="st2" d="M12.7,19.5c-1.1,0.6-2.4,1-3.7,1c-1.4,0-2.6-0.4-3.7-1H4.5l-3,4h15l-3-4H12.7z"/>
		<circle class="st2" cx="9" cy="13" r="7.5"/>
		<line class="st3" x1="4.5" y1="3.5" x2="4" y2="3.5"/>
		<line class="st3" x1="2" y1="3.5" x2="1.5" y2="3.5"/>
		<line class="st3" x1="6.5" y1="3.5" x2="8" y2="3.5"/>
		<line class="st2" x1="19.5" y1="0.5" x2="19.5" y2="6.5"/>
	</g>
</g>
</svg>
