<?xml version="1.0" encoding="utf-8"?>
<!-- Generator: Adobe Illustrator 19.2.0, SVG Export Plug-In . SVG Version: 6.00 Build 0)  -->
<svg version="1.1" id="Layer_1" xmlns="http://www.w3.org/2000/svg" xmlns:xlink="http://www.w3.org/1999/xlink" x="0px" y="0px"
	 viewBox="0 0 24 24" style="enable-background:new 0 0 24 24;" xml:space="preserve">
<style type="text/css">
	.st0{display:none;}
	.st1{display:inline;}
	.st2{fill:none;stroke:#000000;stroke-linejoin:round;stroke-miterlimit:10;}
	.st3{fill:none;stroke:#000000;stroke-linecap:round;stroke-linejoin:round;stroke-miterlimit:10;}
</style>
<g id="Filled_Icons" class="st0">
	<g class="st1">
		<path d="M14.9,13c-0.3-0.1-0.7-0.2-1-0.3c-0.6-0.2-1.3-0.4-1.9-0.6v-1.9c0.5-0.3,1.4-1.2,1.5-2.9c0.4-0.2,0.6-0.7,0.6-1.4
			c0-0.6-0.2-1-0.5-1.3c0.2-0.6,0.6-1.7,0.4-2.8C13.7,0.4,11.8,0,10.2,0l0,0c-1.3,0-3,0.4-3.6,1.4c-0.5,0-0.9,0.1-1.2,0.4
			C4.8,2.5,5.2,3.8,5.4,4.6C5.3,4.7,5.2,4.8,5.1,5C5,5.2,4.9,5.6,4.9,5.9c0,0.6,0.2,1.1,0.6,1.4C5.6,9,6.5,9.9,7,10.2V12
			c-0.6,0.2-1.3,0.4-1.9,0.6c-2.4,0.8-4.2,1.4-4.6,2.5C0,16.7,0,19.3,0,19.5c0,0.1,0.1,0.3,0.1,0.4C0.2,19.9,0.4,20,0.5,20h11.6
			C12,19.5,12,19,12,18.5C12,16.2,13.1,14.2,14.9,13z"/>
		<path d="M18.5,13c-3,0-5.5,2.5-5.5,5.5c0,3,2.5,5.5,5.5,5.5c3,0,5.5-2.5,5.5-5.5C24,15.4,21.5,13,18.5,13z M21,19h-3h-2
			c-0.3,0-0.5-0.2-0.5-0.5S15.7,18,16,18h5c0.3,0,0.5,0.2,0.5,0.5S21.3,19,21,19z"/>
	</g>
</g>
<g id="Outline_Icons">
	<g>
		<circle class="st2" cx="18.5" cy="18.5" r="5"/>
		<line class="st3" x1="21" y1="18.5" x2="16" y2="18.5"/>
		<path class="st2" d="M14,13.3c-0.8-0.3-1.6-0.5-2.5-0.9V10c0,0,1.5-0.6,1.5-3c0.8,0,0.8-2.1,0-2.1c0-0.2,0.8-1.6,0.5-2.9
			C13,0.1,7.5,0.1,7,2C4.6,1.5,6,4.6,6,5C5.2,5,5.2,7,6,7c0,2.4,1.5,3,1.5,3v2.5c-2.8,1.1-6.1,1.8-6.5,3c-0.5,1.4-0.5,4-0.5,4H11"/>
	</g>
</g>
</svg>
