<?xml version="1.0" encoding="utf-8"?>
<!-- Generator: Adobe Illustrator 19.2.0, SVG Export Plug-In . SVG Version: 6.00 Build 0)  -->
<svg version="1.1" id="Layer_1" xmlns="http://www.w3.org/2000/svg" xmlns:xlink="http://www.w3.org/1999/xlink" x="0px" y="0px"
	 viewBox="0 0 24 24" style="enable-background:new 0 0 24 24;" xml:space="preserve">
<style type="text/css">
	.st0{display:none;}
	.st1{display:inline;}
	.st2{fill:none;stroke:#000000;stroke-linejoin:round;stroke-miterlimit:10;}
</style>
<g id="Filled_Icons" class="st0">
	<g class="st1">
		<path d="M13.5,14.3L13,14.1v-2.2c1.5-1.2,2.5-3.2,2.5-5.4c0-0.1,0-0.1,0-0.2c-0.4,0.1-0.7,0.2-1,0.2c-1.7,0-2.8-0.3-3.8-1.6
			C9.9,5.8,8.4,6.5,7,6.5C6.2,6.5,5.3,6,4.6,5.6c0,0.3-0.1,0.6-0.1,0.9c0,2.3,1,4.3,2.5,5.5v2.2l-4.7,1.7C0.9,16.3,0,17.6,0,19.1V22
			h13c-0.6-1-1-2.2-1-3.5C12,16.9,12.6,15.5,13.5,14.3z"/>
		<path d="M10.3,3.8L10.7,3l0.5,0.8c0.8,1.4,1.7,1.7,3.3,1.7c0.2,0,0.6-0.1,0.9-0.2C14.9,2.3,12.7,0,10,0C7.5,0,5.5,1.9,4.8,4.5
			c0.6,0.5,1.6,1,2.2,1C8.3,5.5,9.8,4.7,10.3,3.8z"/>
		<path d="M18.5,13c-3.1,0-5.5,2.5-5.5,5.5c0,3.1,2.5,5.5,5.5,5.5c3.1,0,5.5-2.5,5.5-5.5C24,15.4,21.6,13,18.5,13z M18.5,23.1
			c-2.5,0-4.6-2.1-4.6-4.6c0-2.5,2.1-4.6,4.6-4.6c2.5,0,4.6,2.1,4.6,4.6C23.1,21,21,23.1,18.5,23.1z"/>
		<path d="M21.4,16.3l-5,5c0.6,0.5,1.3,0.7,2.2,0.7c2,0,3.6-1.6,3.6-3.6C22.1,17.7,21.8,16.9,21.4,16.3z"/>
		<path d="M18.5,14.9c-2,0-3.6,1.6-3.6,3.6c0,0.8,0.3,1.6,0.7,2.2l5-5C20.1,15.2,19.3,14.9,18.5,14.9z"/>
	</g>
</g>
<g id="Outline_Icons">
	<g>
		<line class="st2" x1="22.3" y1="15" x2="15.2" y2="22"/>
		<g>
			<line class="st2" x1="12.2" y1="14.5" x2="12.2" y2="11.7"/>
			<path class="st2" d="M7.2,11.7v2.8l-5,1.8c-1.2,0.4-2,1.6-2,2.8v2.4h11"/>
			<ellipse class="st2" cx="9.7" cy="6.5" rx="5" ry="6"/>
			<path class="st2" d="M14.7,6c-0.2,0-0.3,0-0.5,0c-1.7,0.3-2.8-0.3-3.7-1.9C9.9,5.1,8.2,6,6.7,6C6,6,5.4,5.9,4.8,5.5"/>
		</g>
		<circle class="st2" cx="18.8" cy="18.5" r="5"/>
	</g>
</g>
</svg>
