<?xml version="1.0" encoding="utf-8"?>
<!-- Generator: Adobe Illustrator 19.2.0, SVG Export Plug-In . SVG Version: 6.00 Build 0)  -->
<svg version="1.1" id="Layer_1" xmlns="http://www.w3.org/2000/svg" xmlns:xlink="http://www.w3.org/1999/xlink" x="0px" y="0px"
	 viewBox="0 0 24 24" style="enable-background:new 0 0 24 24;" xml:space="preserve">
<style type="text/css">
	.st0{display:none;}
	.st1{display:inline;}
	.st2{fill:none;stroke:#000000;stroke-linejoin:round;stroke-miterlimit:10;}
</style>
<g id="Filled_Icons" class="st0">
	<g class="st1">
		<path d="M14.5,19.8l-1.8-1.5c-0.5-0.5-0.7-1.1-0.5-1.8c0.2-0.6,0.8-1,1.5-1h2l0.9-1.8c-0.8-0.4-1.7-0.7-2.8-1
			c-0.6-0.2-1.3-0.4-1.9-0.6v-1.9c0.5-0.3,1.4-1.2,1.5-2.9c0.4-0.2,0.6-0.7,0.6-1.4c0-0.6-0.2-1-0.5-1.3c0.2-0.6,0.6-1.7,0.4-2.8
			C13.7,0.4,11.8,0,10.2,0l0,0c-1.3,0-3,0.4-3.6,1.4c-0.5,0-0.9,0.1-1.2,0.4C4.8,2.5,5.2,3.8,5.4,4.6C5.3,4.7,5.2,4.8,5.1,5
			C5,5.2,4.9,5.6,4.9,5.9c0,0.6,0.2,1.1,0.6,1.4C5.6,9,6.5,9.9,7,10.2V12c-0.6,0.2-1.3,0.4-1.9,0.6c-2.4,0.8-4.2,1.4-4.6,2.5
			C0,16.7,0,19.3,0,19.5c0,0.1,0.1,0.3,0.1,0.4C0.2,19.9,0.4,20,0.5,20h13.9L14.5,19.8z"/>
		<path d="M23.8,16.9c-0.1-0.2-0.3-0.4-0.6-0.4h-2.6l-1.6-3.1c-0.1-0.2-0.3-0.4-0.6-0.4c-0.2,0-0.4,0.1-0.6,0.4l-1.6,3.1h-2.6
			c-0.3,0-0.5,0.1-0.6,0.4c-0.1,0.2,0,0.5,0.2,0.7l2.3,2l-1.3,3.5v0c-0.1,0.4,0,0.5,0.2,0.8c0.3,0,0.4,0,0.6-0.1l1.3-0.9l2-1.3
			l3.3,2.2l0,0c0.2,0.2,0.4,0.1,0.7,0.1l0.1-0.2c0.1-0.1,0.1-0.4,0.1-0.6c-0.4-1.2-0.2-0.4-1.3-3.5l2.3-2
			C23.9,17.4,23.9,17.1,23.8,16.9z"/>
	</g>
</g>
<g id="Outline_Icons">
	<g>
		<polygon class="st2" points="18.5,13.5 20,17 23.5,17 20.5,19.5 22,23.5 18.5,21 15,23.5 16.5,19.5 13.5,17 17,17 		"/>
		<path class="st2" d="M14,13.3c-0.8-0.3-1.5-0.5-2.5-0.9V10c0,0,1.5-0.6,1.5-3c1,0,1-2.1,0-2.1c0-0.2,0.9-1.6,0.6-2.9
			c-0.5-1.9-6.1-1.9-6.6,0C4.7,1.5,6,4.6,6,5C5.5,5,5.5,7,6,7c0,2.4,1.5,3,1.5,3v2.5c-2.5,1.1-6,1.8-6.4,3c-0.5,1.4-0.6,4-0.6,4H11"
			/>
	</g>
</g>
</svg>
