<?xml version="1.0" encoding="utf-8"?>
<!-- Generator: Adobe Illustrator 19.2.0, SVG Export Plug-In . SVG Version: 6.00 Build 0)  -->
<svg version="1.1" id="Layer_1" xmlns="http://www.w3.org/2000/svg" xmlns:xlink="http://www.w3.org/1999/xlink" x="0px" y="0px"
	 viewBox="0 0 24 24" style="enable-background:new 0 0 24 24;" xml:space="preserve">
<style type="text/css">
	.st0{display:none;}
	.st1{display:inline;}
	.st2{fill:none;stroke:#000000;stroke-linejoin:round;stroke-miterlimit:10;}
	.st3{fill:none;stroke:#000000;stroke-linecap:round;stroke-linejoin:round;stroke-miterlimit:10;}
</style>
<g id="Filled_Icons" class="st0">
	<g class="st1">
		<path d="M18.5,12c-3,0-5.5,2.5-5.5,5.5c0,3,2.5,5.5,5.5,5.5c3,0,5.5-2.5,5.5-5.5C24,14.5,21.5,12,18.5,12z M15.4,16.5
			c0.4-1.2,1.6-2.1,2.9-2.1c0.8,0,1.5,0.3,2.1,0.8c0-0.3,0.2-0.5,0.5-0.5c0.3,0,0.5,0.2,0.5,0.5v1.5c0,0.3-0.2,0.5-0.5,0.5h-1.5
			c-0.3,0-0.5-0.2-0.5-0.5c0-0.3,0.2-0.5,0.5-0.5H20c-0.4-0.4-1-0.7-1.7-0.7c-0.9,0-1.7,0.6-2,1.4c-0.1,0.2-0.3,0.3-0.5,0.3
			c-0.1,0-0.1,0-0.2,0C15.5,17,15.3,16.7,15.4,16.5z M21.6,18.5c-0.4,1.2-1.6,2.1-2.9,2.1c-0.8,0-1.5-0.3-2.1-0.8
			c0,0.3-0.2,0.5-0.5,0.5c-0.3,0-0.5-0.2-0.5-0.5v-1.5c0-0.3,0.2-0.5,0.5-0.5h1.5c0.3,0,0.5,0.2,0.5,0.5c0,0.3-0.2,0.5-0.5,0.5H17
			c0.4,0.4,1,0.7,1.7,0.7c0.9,0,1.7-0.6,2-1.4c0.1-0.3,0.4-0.4,0.6-0.3C21.5,18,21.7,18.3,21.6,18.5z"/>
		<path d="M12,17.5c0-1.8,0.8-3.5,2-4.7c0,0-0.1,0-0.1,0l-1-0.3c-0.3-0.1-0.6-0.2-0.9-0.3v-1.9c0.5-0.3,1.4-1.2,1.5-2.9
			c0.4-0.2,0.6-0.7,0.6-1.4c0-0.6-0.2-1-0.5-1.3C13.9,4.1,14.3,3,14,1.9c-0.3-1.3-2.2-1.8-3.7-1.8c-1.3,0-3,0.4-3.6,1.4
			C6,1.4,5.6,1.7,5.4,2c-0.5,0.7-0.3,1.8,0,2.7C5.3,4.8,5.2,4.9,5.1,5.1C5,5.3,4.9,5.7,4.9,6c0,0.6,0.2,1.1,0.6,1.4
			c0.1,1.8,1,2.6,1.5,2.9v1.9c-0.6,0.2-1.3,0.4-1.9,0.6c-2.3,0.8-4.2,1.4-4.6,2.5C0,16.8,0,19.4,0,19.5c0,0.1,0.1,0.3,0.1,0.4
			C0.2,19.9,0.4,20,0.5,20l12,0C12.2,19.2,12,18.4,12,17.5z"/>
	</g>
</g>
<g id="Outline_Icons">
	<g>
		<g>
			<path class="st2" d="M14,13.4c-0.8-0.3-1.6-0.5-2.5-0.9V10c0,0,1.5-0.6,1.5-3c0.8,0,0.8-2.1,0-2.1c0-0.2,0.8-1.6,0.5-2.9
				C13,0.1,7.5,0.1,7,2C4.6,1.5,6,4.7,6,5C5.2,5,5.2,7,6,7c0,2.4,1.5,3,1.5,3v2.5c-2.8,1.1-6.1,1.8-6.5,3c-0.5,1.4-0.5,4-0.5,4H11"
				/>
		</g>
		<g>
			<polyline class="st3" points="23.3,14 23.3,16.5 20.8,16.5 			"/>
			<path class="st3" d="M14.5,16.5c0.6-1.7,2.3-3,4.2-3c2,0,3.8,1.2,4.5,3"/>
			<g>
				<polyline class="st3" points="14.8,22 14.8,19.5 17.3,19.5 				"/>
				<path class="st3" d="M23.5,19.5c-0.6,1.7-2.3,3-4.2,3c-2,0-3.8-1.2-4.5-3"/>
			</g>
		</g>
	</g>
</g>
</svg>
