<?xml version="1.0" encoding="utf-8"?>
<!-- Generator: Adobe Illustrator 19.2.0, SVG Export Plug-In . SVG Version: 6.00 Build 0)  -->
<svg version="1.1" id="Layer_1" xmlns="http://www.w3.org/2000/svg" xmlns:xlink="http://www.w3.org/1999/xlink" x="0px" y="0px"
	 viewBox="0 0 24 24" style="enable-background:new 0 0 24 24;" xml:space="preserve">
<style type="text/css">
	.st0{display:none;}
	.st1{display:inline;}
	.st2{fill:none;stroke:#000000;stroke-linejoin:round;stroke-miterlimit:10;}
	.st3{fill:none;stroke:#000000;stroke-linecap:round;stroke-linejoin:round;stroke-miterlimit:10;}
</style>
<g id="Filled_Icons" class="st0">
	<g class="st1">
		<path d="M14.1,19.8c0-0.1-0.1-0.3-0.1-0.4v-5.9c0-0.2,0.1-0.4,0.2-0.6c-0.1,0-0.2-0.1-0.3-0.1l-1-0.3c-0.3-0.1-0.6-0.2-0.9-0.3
			v-1.9c0.5-0.3,1.4-1.2,1.5-2.9c0.4-0.2,0.6-0.7,0.6-1.4c0-0.6-0.2-1-0.5-1.3C13.9,4.1,14.3,3,14,1.9c-0.3-1.3-2.2-1.8-3.7-1.8
			c-1.3,0-3,0.4-3.6,1.4C6,1.4,5.6,1.7,5.4,2c-0.5,0.7-0.3,1.8,0,2.7C5.3,4.8,5.2,4.9,5.1,5.1C5,5.3,4.9,5.7,4.9,6
			c0,0.6,0.2,1.1,0.6,1.4c0.1,1.8,1,2.6,1.5,2.9v1.9c-0.6,0.2-1.3,0.4-1.9,0.6c-2.3,0.8-4.2,1.4-4.6,2.5C0,16.8,0,19.4,0,19.5
			c0,0.1,0.1,0.3,0.1,0.4C0.2,19.9,0.4,20,0.5,20l13.6,0C14.1,19.9,14.1,19.9,14.1,19.8z"/>
		<path d="M23.7,13.1c-0.2-0.1-0.4-0.1-0.5,0c-0.7,0.5-1.2,0.7-1.7,0.7c-0.6,0-1.2-0.3-1.6-0.8c-0.2-0.2-0.6-0.2-0.8,0
			c-0.4,0.5-1,0.8-1.6,0.8c-0.5,0-1.1-0.2-1.7-0.7c-0.2-0.1-0.4-0.1-0.5,0c-0.2,0.1-0.3,0.3-0.3,0.4v5.9c0,0,0,0.1,0,0.1
			c0,0.1,0.7,2.4,4.3,3.4c0,0,0.1,0,0.1,0c0,0,0.1,0,0.1,0c3.7-1,4.3-3.3,4.3-3.4c0,0,0-0.1,0-0.1v-5.9C24,13.3,23.9,13.2,23.7,13.1
			z M21.5,18H20v1.5c0,0.3-0.2,0.5-0.5,0.5c-0.3,0-0.5-0.2-0.5-0.5V18h-1.5c-0.3,0-0.5-0.2-0.5-0.5c0-0.3,0.2-0.5,0.5-0.5H19v-1.5
			c0-0.3,0.2-0.5,0.5-0.5c0.3,0,0.5,0.2,0.5,0.5V17h1.5c0.3,0,0.5,0.2,0.5,0.5C22,17.8,21.8,18,21.5,18z"/>
	</g>
</g>
<g id="Outline_Icons">
	<g>
		<path class="st2" d="M14,13.4c-0.8-0.3-1.6-0.5-2.5-0.9V10c0,0,1.5-0.6,1.5-3c0.8,0,0.8-2.1,0-2.1c0-0.2,0.8-1.6,0.5-2.9
			C13,0.1,7.5,0.1,7,2C4.6,1.5,6,4.7,6,5C5.2,5,5.2,7,6,7c0,2.4,1.5,3,1.5,3v2.5c-2.8,1.1-6.1,1.8-6.5,3c-0.5,1.4-0.5,4-0.5,4H11"/>
		<g>
			<path class="st3" d="M21.5,14.3c-0.8,0-1.5-0.4-2-1h0c-0.5,0.6-1.2,1-2,1c-0.7,0-1.3-0.3-2-0.8v5.9c0,0,0.6,2.1,4,3.1
				c3.4-1,4-3.1,4-3.1v-5.9C22.8,14,22.2,14.3,21.5,14.3z"/>
			<line class="st3" x1="19.5" y1="19.5" x2="19.5" y2="15.5"/>
			<line class="st3" x1="17.5" y1="17.5" x2="21.5" y2="17.5"/>
		</g>
	</g>
</g>
</svg>
