<?xml version="1.0" encoding="utf-8"?>
<!-- Generator: Adobe Illustrator 19.2.0, SVG Export Plug-In . SVG Version: 6.00 Build 0)  -->
<svg version="1.1" id="Layer_1" xmlns="http://www.w3.org/2000/svg" xmlns:xlink="http://www.w3.org/1999/xlink" x="0px" y="0px"
	 viewBox="0 0 24 24" style="enable-background:new 0 0 24 24;" xml:space="preserve">
<style type="text/css">
	.st0{display:none;}
	.st1{display:inline;}
	.st2{fill:none;stroke:#000000;stroke-linejoin:round;stroke-miterlimit:10;}
</style>
<g id="Filled_Icons" class="st0">
	<g class="st1">
		<path d="M12.6,18.5c-0.5-0.5-0.7-1.1-0.5-1.8c0.2-0.6,0.8-1,1.5-1h2l0.5-0.4L13,14.1v-2.2c1.5-1.2,2.5-3.2,2.5-5.4
			c0-0.1,0-0.1,0-0.2c-0.4,0.1-0.7,0.2-1,0.2c-1.7,0-2.8-0.3-3.8-1.6C9.9,5.8,8.4,6.5,7,6.5C6.2,6.5,5.3,6,4.6,5.6
			c0,0.3-0.1,0.6-0.1,0.9c0,2.3,1,4.3,2.5,5.5v2.2l-4.7,1.7C0.9,16.3,0,17.6,0,19.1V22h13.9l0.5-2L12.6,18.5z"/>
		<path d="M10.3,3.8L10.7,3l0.5,0.8c0.8,1.4,1.7,1.7,3.3,1.7c0.2,0,0.6-0.1,0.9-0.2C14.9,2.3,12.7,0,10,0C7.5,0,5.5,1.9,4.8,4.5
			c0.6,0.5,1.6,1,2.2,1C8.3,5.5,9.8,4.7,10.3,3.8z"/>
		<path d="M23.7,17c-0.1-0.2-0.3-0.4-0.6-0.4h-2.6l-1.6-3.1c-0.1-0.2-0.3-0.4-0.6-0.4c0,0,0,0,0,0c-0.2,0-0.4,0.1-0.6,0.4
			c-1.6,3.1-0.1,0.1-1.6,3.1h-2.6c-0.3,0-0.5,0.1-0.6,0.4c-0.1,0.2,0,0.5,0.2,0.7l2.3,1.9l-1.3,3.5v0c-0.1,0.2,0,0.4,0.1,0.6l0,0
			c0.2,0.3,0.6,0.3,0.8,0.1l1.3-0.9l2-1.3c3.4,2.2,3.3,2.2,3.3,2.2c0.3,0.2,0.6,0.2,0.8-0.1c0.1-0.1,0.1-0.4,0.1-0.6l-0.3-0.9
			l-0.9-2.6l2.3-2C23.7,17.5,23.8,17.2,23.7,17z"/>
	</g>
</g>
<g id="Outline_Icons">
	<g>
		<g>
			<line class="st2" x1="12.5" y1="14.5" x2="12.5" y2="11.6"/>
			<path class="st2" d="M7.5,11.8v2.7l-5,1.8c-1.2,0.4-2,1.6-2,2.8v2.4H11"/>
			<ellipse class="st2" cx="9.9" cy="6.5" rx="5" ry="6"/>
			<path class="st2" d="M14.8,6c-0.2,0-0.3,0-0.5,0c-1.7,0.3-2.8-0.3-3.7-1.9C10.1,5.1,8.3,6,6.9,6C6.2,6,5.5,5.9,4.9,5.5"/>
		</g>
		<polygon class="st2" points="18.5,13.5 20,17 23.5,17 20.5,19.5 22,23.5 18.5,21 15,23.5 16.5,19.5 13.5,17 17,17 		"/>
	</g>
</g>
</svg>
