<?xml version="1.0" encoding="utf-8"?>
<!-- Generator: Adobe Illustrator 19.2.0, SVG Export Plug-In . SVG Version: 6.00 Build 0)  -->
<svg version="1.1" id="Layer_1" xmlns="http://www.w3.org/2000/svg" xmlns:xlink="http://www.w3.org/1999/xlink" x="0px" y="0px"
	 viewBox="0 0 24 24" style="enable-background:new 0 0 24 24;" xml:space="preserve">
<style type="text/css">
	.st0{display:none;}
	.st1{display:inline;}
	.st2{fill:none;stroke:#000000;stroke-linejoin:round;stroke-miterlimit:10;}
</style>
<g id="Filled_Icons" class="st0">
	<g class="st1">
		<path d="M11.6,19.3c0.1-0.4,0.4-0.7,0.7-0.9l0.1-0.1c-1-0.5-1.1-1.5-0.7-2.2l1.3-2.2v-2c1.5-1.2,2.5-3.2,2.5-5.4
			c0-0.1,0-0.1,0-0.2c-0.4,0.1-0.7,0.2-1,0.2c-1.7,0-2.8-0.3-3.8-1.6C9.9,5.8,8.4,6.5,7,6.5C6.2,6.5,5.3,6,4.6,5.6
			c0,0.3-0.1,0.6-0.1,0.9c0,2.3,1,4.3,2.5,5.5v2.2l-4.7,1.7C0.9,16.3,0,17.6,0,19.1V22h12.6l-0.9-1.6C11.5,20.1,11.5,19.7,11.6,19.3
			z"/>
		<path d="M10.3,3.8L10.7,3l0.5,0.8c0.8,1.4,1.7,1.7,3.3,1.7c0.2,0,0.6-0.1,0.9-0.2C14.9,2.3,12.7,0,10,0C7.5,0,5.5,1.9,4.8,4.5
			c0.6,0.5,1.6,1,2.2,1C8.3,5.5,9.8,4.7,10.3,3.8z"/>
		<path d="M23.7,19.2L23,18.8l0,0l0,0c0-0.2,0-0.3,0-0.5c0-0.2,0-0.3,0-0.5l0,0l0,0l0.2-0.1l0.5-0.3c0.1-0.1,0.2-0.3,0.3-0.4
			c0-0.1,0-0.2,0-0.3c0,0,0,0,0,0l-1.4-2.4c-0.1-0.1-0.2-0.2-0.3-0.3l0,0c-0.1,0-0.3,0-0.4,0.1l-0.2,0.1l-0.5,0.3l0,0l0,0
			c-0.1-0.1-0.2-0.2-0.4-0.2c-0.1,0-0.1-0.1-0.2-0.1c-0.1-0.1-0.2-0.1-0.4-0.2v0l0,0v-0.8c0-0.3-0.2-0.6-0.5-0.6h-2.8
			c-0.3,0-0.5,0.2-0.5,0.6v0.8v0C16.2,14,16.1,14,16,14.1c-0.1,0-0.1,0.1-0.2,0.1c-0.1,0.1-0.2,0.1-0.4,0.2L15,14.1
			c-0.2-0.1-0.3-0.2-0.5-0.2c-0.2,0-0.4,0.1-0.5,0.3l-1.4,2.4c-0.3,0.6,0.3,0.8,0.9,1.1c0,0.2,0,0.4,0,0.5c0,0.2,0,0.4,0,0.5
			l-0.7,0.4c-0.1,0.1-0.2,0.2-0.3,0.3c0,0.1,0,0.3,0.1,0.4l1.2,2.1l0,0c0.2,0.3,0.3,0.6,0.7,0.6l0,0c0.1,0,0.2,0,0.3-0.1
			c0.1-0.1,0.6-0.3,0.7-0.4l0,0l0,0c0.1,0.1,0.2,0.2,0.4,0.2c0.1,0,0.1,0.1,0.2,0.1c0.1,0.1,0.2,0.1,0.4,0.2v0v0.8
			c0,0.3,0.2,0.5,0.5,0.5h2.8c0.3,0,0.5-0.2,0.5-0.5v-0.8l0,0v0c0.1-0.1,0.3-0.1,0.4-0.2c0.1,0,0.1-0.1,0.2-0.1
			c0.1-0.1,0.2-0.1,0.3-0.2l0,0l0,0l0.7,0.4c0.1,0.1,0.3,0.1,0.4,0c0,0,0,0,0,0c0.1,0,0.3-0.1,0.3-0.3l1.3-2.3
			C24.1,19.6,24,19.3,23.7,19.2z M18.3,20.7c-1.3,0-2.4-1.1-2.4-2.4c0-1.3,1.1-2.4,2.4-2.4c1.3,0,2.4,1.1,2.4,2.4
			C20.7,19.6,19.6,20.7,18.3,20.7z"/>
	</g>
</g>
<g id="Outline_Icons">
	<g>
		<g>
			<line class="st2" x1="13" y1="14.5" x2="13" y2="11.7"/>
			<path class="st2" d="M8,11.7v2.8l-5,1.8c-1.2,0.4-2,1.6-2,2.8v2.4h11"/>
			<ellipse class="st2" cx="10.5" cy="6.5" rx="5" ry="6"/>
			<path class="st2" d="M15.4,6c-0.2,0-0.3,0-0.5,0c-1.7,0.3-2.8-0.3-3.7-1.9C10.7,5.1,8.9,6,7.5,6C6.7,6,6.1,5.9,5.5,5.5"/>
		</g>
		<circle class="st2" cx="18.6" cy="19" r="1.5"/>
		<path class="st2" d="M22.1,19c0-0.3,0-0.5-0.1-0.8l1-0.6l-1-1.7L21,16.5c-0.4-0.4-1-0.7-1.5-0.8v-1.1h-2v1.1
			c-0.5,0.2-0.9,0.4-1.3,0.8l-1-0.6l-1,1.7l1,0.6c-0.1,0.3-0.1,0.5-0.1,0.8c0,0.3,0,0.5,0.1,0.8l-1,0.6l1,1.7l0.9-0.6
			c0.4,0.4,0.8,0.7,1.3,0.8v1.1h2v-1.1c0.5-0.2,1.1-0.4,1.5-0.8l1,0.6l1-1.7l-1-0.6C22.1,19.5,22.1,19.3,22.1,19z"/>
	</g>
</g>
</svg>
