<?xml version="1.0" encoding="utf-8"?>
<!-- Generator: Adobe Illustrator 19.2.0, SVG Export Plug-In . SVG Version: 6.00 Build 0)  -->
<svg version="1.1" id="Layer_1" xmlns="http://www.w3.org/2000/svg" xmlns:xlink="http://www.w3.org/1999/xlink" x="0px" y="0px"
	 viewBox="0 0 24 24" style="enable-background:new 0 0 24 24;" xml:space="preserve">
<style type="text/css">
	.st0{display:none;}
	.st1{display:inline;}
	.st2{fill:none;stroke:#000000;stroke-linejoin:round;stroke-miterlimit:10;}
	.st3{fill:none;stroke:#000000;stroke-linecap:round;stroke-linejoin:round;stroke-miterlimit:10;}
</style>
<g id="Filled_Icons" class="st0">
	<g class="st1">
		<path d="M16,13.4c-0.6-0.2-1.3-0.5-2.1-0.7c-0.6-0.2-1.3-0.4-1.9-0.6v-1.9c0.5-0.3,1.4-1.2,1.5-2.9c0.4-0.2,0.6-0.7,0.6-1.4
			c0-0.6-0.2-1-0.5-1.3C13.9,4,14.3,2.9,14,1.8C13.7,0.5,11.8,0,10.2,0l0,0c-1.3,0-3,0.4-3.6,1.4c-0.5,0-0.9,0.1-1.2,0.4
			C4.8,2.5,5.2,3.9,5.4,4.6C5.3,4.7,5.2,4.9,5.1,5C5,5.3,4.9,5.6,4.9,5.9c0,0.6,0.2,1.1,0.6,1.4c0.1,1.8,1,2.6,1.5,2.9v1.9
			c-0.6,0.2-1.3,0.4-1.9,0.6c-2.4,0.8-4.2,1.4-4.6,2.5C0,16.8,0,19.4,0,19.5c0,0.1,0.1,0.3,0.1,0.4C0.2,19.9,0.4,20,0.5,20h12.9
			c-0.3-0.6-0.4-1.3-0.4-2C13,16,14.2,14.2,16,13.4z"/>
		<path d="M23.9,23.1l-2-2l-0.7-0.7c0.5-0.7,0.8-1.5,0.8-2.4c0-2.2-1.8-4-4-4c-2.2,0-4,1.8-4,4c0,2.2,1.8,4,4,4
			c0.9,0,1.8-0.3,2.4-0.8l0.7,0.7l2,2c0.1,0.1,0.2,0.1,0.4,0.1c0.1,0,0.3,0,0.4-0.1C24,23.7,24,23.3,23.9,23.1z M18,21
			c-1.7,0-3-1.3-3-3c0-1.7,1.3-3,3-3c1.7,0,3,1.3,3,3C21,19.7,19.7,21,18,21z"/>
	</g>
</g>
<g id="Outline_Icons">
	<g>
		<path class="st2" d="M14.5,13.4c-0.8-0.3-2-0.5-2.5-0.9V10c0,0,1.5-0.6,1.5-3c0.5,0,0.5-2.1,0-2.1c0-0.2,0.7-1.6,0.4-2.9
			c-0.5-1.9-6-1.9-6.5,0c-2.4-0.5-1,2.7-1,3c-1,0-1,2,0,2c0,2.4,1.5,3,1.5,3v2.5c-3,1.1-6.2,1.8-6.6,3c-0.5,1.4-0.9,4-0.9,4h11"/>
		<circle class="st2" cx="18" cy="18" r="3.5"/>
		<line class="st3" x1="23.5" y1="23.5" x2="20.5" y2="20.5"/>
	</g>
</g>
</svg>
