<?xml version="1.0" encoding="utf-8"?>
<!-- Generator: Adobe Illustrator 19.2.0, SVG Export Plug-In . SVG Version: 6.00 Build 0)  -->
<svg version="1.1" id="Layer_1" xmlns="http://www.w3.org/2000/svg" xmlns:xlink="http://www.w3.org/1999/xlink" x="0px" y="0px"
	 viewBox="0 0 24 24" style="enable-background:new 0 0 24 24;" xml:space="preserve">
<style type="text/css">
	.st0{display:none;}
	.st1{display:inline;}
	.st2{fill:none;stroke:#000000;stroke-linecap:round;stroke-linejoin:round;stroke-miterlimit:10;}
	.st3{fill:none;stroke:#000000;stroke-linejoin:round;stroke-miterlimit:10;}
</style>
<g id="Filled_Icons" class="st0">
	<g class="st1">
		<path d="M12.3,19.1l5.1-5.1c-0.8-0.5-2-0.9-3.4-1.3c-0.6-0.2-1.3-0.4-1.9-0.6v-1.9c0.5-0.3,1.4-1.2,1.5-2.9
			c0.4-0.2,0.6-0.7,0.6-1.4c0-0.6-0.2-1-0.5-1.3c0.2-0.6,0.6-1.7,0.4-2.8C13.7,0.4,11.8,0,10.2,0l0,0c-1.3,0-3,0.4-3.6,1.4
			c-0.5,0-0.9,0.1-1.2,0.4C4.8,2.5,5.2,3.8,5.4,4.6C5.3,4.7,5.2,4.8,5.1,5C5,5.2,4.9,5.6,4.9,5.9c0,0.6,0.2,1.1,0.6,1.4
			C5.6,9,6.5,9.9,7,10.2V12c-0.6,0.2-1.3,0.4-1.9,0.6c-2.4,0.8-4.2,1.4-4.6,2.5C0,16.7,0,19.3,0,19.5c0,0.1,0.1,0.3,0.1,0.4
			C0.2,19.9,0.4,20,0.5,20h11.4l0.2-0.7C12.2,19.2,12.2,19.1,12.3,19.1z"/>
		<polygon points="18.1,14.6 18.1,14.6 13.5,19.3 16.7,22.5 21.5,17.7 18.3,14.5 		"/>
		<path d="M12,23.3c0,0.2,0,0.4,0.1,0.5c0.1,0.1,0.2,0.1,0.4,0.1c0,0,0.1,0,0.1,0l3.2-0.9l-2.9-2.9L12,23.3z"/>
		<path d="M23.9,14.6l-2.5-2.5c-0.2-0.2-0.5-0.2-0.7,0L19,13.8l3.2,3.2l1.6-1.6c0.1-0.1,0.1-0.2,0.1-0.4
			C24,14.8,23.9,14.7,23.9,14.6z"/>
	</g>
</g>
<g id="Outline_Icons">
	<g>
		<g>
			<polygon class="st2" points="17,22.5 13.5,23.5 14.5,20 21,13.5 23.5,16 			"/>
			<line class="st3" x1="19" y1="15.5" x2="21.5" y2="18"/>
			<line class="st2" x1="14.5" y1="20" x2="17" y2="22.5"/>
		</g>
		<path class="st3" d="M16.4,14.5c-0.8-0.3-3.9-1.7-4.9-2V10c0,0,1.5-0.6,1.5-3c1,0,1-2.1,0-2.1c0-0.2,0.9-1.6,0.6-2.9
			C13.1,0.1,7.5,0.1,7,2C4.7,1.5,6,4.6,6,5C5.5,5,5.5,7,6,7c0,2.4,1.5,3,1.5,3v2.5c-2.5,1.1-6,1.8-6.4,3c-0.5,1.4-0.6,4-0.6,4H11"/>
	</g>
</g>
</svg>
