<?xml version="1.0" encoding="utf-8"?>
<!-- Generator: Adobe Illustrator 19.2.0, SVG Export Plug-In . SVG Version: 6.00 Build 0)  -->
<svg version="1.1" id="Layer_1" xmlns="http://www.w3.org/2000/svg" xmlns:xlink="http://www.w3.org/1999/xlink" x="0px" y="0px"
	 viewBox="0 0 24 24" style="enable-background:new 0 0 24 24;" xml:space="preserve">
<style type="text/css">
	.st0{display:none;}
	.st1{display:inline;}
	.st2{fill:none;stroke:#000000;stroke-linejoin:round;stroke-miterlimit:10;}
</style>
<g id="Filled_Icons" class="st0">
	<g class="st1">
		<path d="M13.8,14.4L13,14.1v-2.2c1.5-1.2,2.5-3.2,2.5-5.4c0-0.1,0-0.1,0-0.2c-0.4,0.1-0.7,0.2-1,0.2c-1.7,0-2.8-0.3-3.8-1.6
			C9.9,5.8,8.4,6.5,7,6.5C6.2,6.5,5.3,6,4.6,5.6c0,0.3-0.1,0.6-0.1,0.9c0,2.3,1,4.3,2.5,5.5v2.2l-4.7,1.7C0.9,16.3,0,17.6,0,19.1V22
			h14.8c-1.2-1.3-2.3-2.9-2.3-4.5C12.5,16.2,13,15.1,13.8,14.4z"/>
		<path d="M10.3,3.8L10.7,3l0.5,0.8c0.8,1.4,1.7,1.7,3.3,1.7c0.2,0,0.6-0.1,0.9-0.2C14.9,2.3,12.7,0,10,0C7.6,0,5.5,1.9,4.8,4.5
			c0.6,0.5,1.6,1,2.2,1C8.3,5.5,9.8,4.7,10.3,3.8z"/>
		<path d="M21.1,14.4c-0.9,0-1.8,0.5-2.4,1.5c-0.6-1-1.5-1.5-2.4-1.5c-1.4,0-2.9,1.2-2.9,3.1c0,2.2,3.1,5.1,4.9,6.4c0,0,0,0,0,0
			c0.1,0.1,0.2,0.1,0.3,0.1c0.1,0,0.2,0,0.3-0.1c0,0,0,0,0,0c1.8-1.3,4.9-4.2,4.9-6.4C24,15.5,22.5,14.4,21.1,14.4z"/>
	</g>
</g>
<g id="Outline_Icons">
	<g>
		<g>
			<line class="st2" x1="12.5" y1="14.5" x2="12.5" y2="11.7"/>
			<path class="st2" d="M7.5,11.7v2.8l-5,1.8c-1.2,0.4-2,1.6-2,2.8v2.4h12"/>
			<ellipse class="st2" cx="10" cy="6.5" rx="5" ry="6"/>
			<path class="st2" d="M15,6c-0.2,0-0.3,0-0.5,0c-1.7,0.3-2.8-0.3-3.7-1.9C10.2,5.1,8.4,6,7,6C6.3,6,5.7,5.9,5.1,5.5"/>
		</g>
		<path class="st2" d="M19,23.5c0,0,4.5-2.5,4.5-6.5c0-3-3.5-3-4.5,0c-1-3-4.5-3-4.5,0.2C14.5,21,19,23.5,19,23.5z"/>
	</g>
</g>
</svg>
