<?xml version="1.0" encoding="utf-8"?>
<!-- Generator: Adobe Illustrator 19.2.0, SVG Export Plug-In . SVG Version: 6.00 Build 0)  -->
<svg version="1.1" id="Layer_1" xmlns="http://www.w3.org/2000/svg" xmlns:xlink="http://www.w3.org/1999/xlink" x="0px" y="0px"
	 viewBox="0 0 24 24" style="enable-background:new 0 0 24 24;" xml:space="preserve">
<style type="text/css">
	.st0{display:none;}
	.st1{display:inline;}
	.st2{fill:none;stroke:#000000;stroke-linejoin:round;stroke-miterlimit:10;}
	.st3{fill:none;stroke:#000000;stroke-linecap:round;stroke-linejoin:round;stroke-miterlimit:10;}
</style>
<g id="Filled_Icons" class="st0">
	<g class="st1">
		<path d="M5.3,5.1C5.8,5.4,6.4,5.5,7,5.5c1.3,0,2.9-0.8,3.3-1.7L10.7,3l0.5,0.8c0.9,1.5,1.8,2,3.2,1.7c0.1,0,0.7-0.1,1-0.2
			C14.9,2.3,12.7,0,10,0C7.5,0,5.3,2,4.7,4.8L5.3,5.1z"/>
		<path d="M13,14.5v5.9c0,0.1,0,0.3,0.1,0.4c0,0.1,0.2,0.6,0.6,1.2H0v-2.9c0-1.5,0.9-2.8,2.3-3.3L7,14.1v-2.2
			c-1.5-1.2-2.5-3.2-2.5-5.4c0-0.2,0-0.5,0-0.7L4.8,6C5.5,6.3,6.2,6.5,7,6.5c1.4,0,2.9-0.7,3.7-1.5c0.8,1.1,1.7,1.6,2.9,1.6
			c0.3,0,0.6,0,0.9-0.1c0.1,0,0.6-0.1,0.9-0.1c0,0,0,0.1,0,0.1c0,2.3-1,4.3-2.5,5.4v2.2L13,14.5z"/>
		<path d="M22.7,14.1c-0.2-0.1-0.4-0.1-0.5,0c-0.7,0.5-1.2,0.7-1.7,0.7c-0.6,0-1.2-0.3-1.6-0.8c-0.2-0.2-0.6-0.2-0.8,0
			c-0.4,0.5-1,0.8-1.6,0.8c-0.5,0-1.1-0.2-1.7-0.7c-0.2-0.1-0.4-0.1-0.5,0c-0.2,0.1-0.3,0.3-0.3,0.4v5.9c0,0,0,0.1,0,0.1
			c0,0.1,0.7,2.4,4.3,3.4c0,0,0.1,0,0.1,0c0,0,0.1,0,0.1,0c3.7-1,4.3-3.3,4.3-3.4c0,0,0-0.1,0-0.1v-5.9C23,14.3,22.9,14.2,22.7,14.1
			z M20.5,19H19v1.5c0,0.3-0.2,0.5-0.5,0.5c-0.3,0-0.5-0.2-0.5-0.5V19h-1.5c-0.3,0-0.5-0.2-0.5-0.5c0-0.3,0.2-0.5,0.5-0.5H18v-1.5
			c0-0.3,0.2-0.5,0.5-0.5c0.3,0,0.5,0.2,0.5,0.5V18h1.5c0.3,0,0.5,0.2,0.5,0.5C21,18.8,20.8,19,20.5,19z"/>
	</g>
</g>
<g id="Outline_Icons">
	<g>
		<g>
			<line class="st2" x1="12.5" y1="14.5" x2="12.5" y2="11.7"/>
			<path class="st2" d="M7.5,11.7v2.8l-5,1.8c-1.2,0.4-2,1.6-2,2.8v2.4h11"/>
			<ellipse class="st2" cx="10" cy="6.5" rx="5" ry="6"/>
			<path class="st2" d="M15,6c-0.2,0-0.3,0-0.5,0c-1.7,0.3-2.8-0.3-3.7-1.9C10.2,5.1,8.4,6,7,6C6.3,6,5.7,5.8,5.1,5.5"/>
		</g>
		<path class="st3" d="M20.5,15.3c-0.8,0-1.5-0.4-2-1h0c-0.5,0.6-1.2,1-2,1c-0.7,0-1.3-0.3-2-0.8v5.9c0,0,0.6,2.1,4,3.1
			c3.4-1,4-3.1,4-3.1v-5.9C21.8,15,21.2,15.3,20.5,15.3z"/>
		<line class="st3" x1="18.5" y1="20.5" x2="18.5" y2="16.5"/>
		<line class="st3" x1="16.5" y1="18.5" x2="20.5" y2="18.5"/>
	</g>
</g>
</svg>
