<?xml version="1.0" encoding="utf-8"?>
<!-- Generator: Adobe Illustrator 19.2.0, SVG Export Plug-In . SVG Version: 6.00 Build 0)  -->
<svg version="1.1" id="Layer_1" xmlns="http://www.w3.org/2000/svg" xmlns:xlink="http://www.w3.org/1999/xlink" x="0px" y="0px"
	 viewBox="0 0 24 24" style="enable-background:new 0 0 24 24;" xml:space="preserve">
<style type="text/css">
	.st0{display:none;}
	.st1{display:inline;}
	.st2{fill:none;stroke:#000000;stroke-linejoin:round;stroke-miterlimit:10;}
	.st3{fill:none;stroke:#000000;stroke-linecap:round;stroke-linejoin:round;stroke-miterlimit:10;}
</style>
<g id="Filled_Icons" class="st0">
	<g class="st1">
		<path d="M5.3,5.1C5.8,5.4,6.4,5.5,7,5.5c1.3,0,2.9-0.8,3.3-1.7L10.7,3l0.5,0.8c0.9,1.5,1.8,2,3.2,1.7c0.1,0,0.7-0.1,1-0.2
			C14.9,2.3,12.7,0,10,0C7.5,0,5.3,2,4.7,4.8L5.3,5.1z"/>
		<path d="M15.5,15.1L13,14.1v-2.2c1.5-1.2,2.5-3.2,2.5-5.4c0-0.1,0-0.1,0-0.1c-0.3,0-0.8,0.1-0.9,0.1c-0.3,0.1-0.6,0.1-0.9,0.1
			c-1.2,0-2.1-0.5-2.9-1.6C9.9,5.8,8.4,6.5,7,6.5C6.2,6.5,5.5,6.3,4.8,6L4.5,5.8c0,0.2,0,0.5,0,0.7c0,2.3,1,4.3,2.5,5.4v2.2
			l-4.7,1.7C0.9,16.3,0,17.6,0,19.1V22h12.1L15.5,15.1z"/>
		<path d="M23.9,23.2l-5.2-10.4c-0.2-0.3-0.7-0.3-0.9,0l-5.2,10.5c-0.1,0.2-0.1,0.3,0,0.5c0.1,0.1,0.3,0.2,0.4,0.2h10.5c0,0,0,0,0,0
			c0.3,0,0.5-0.2,0.5-0.5C24,23.4,24,23.3,23.9,23.2z M18.5,22c-0.3,0-0.5-0.2-0.5-0.5c0-0.3,0.2-0.5,0.5-0.5c0.3,0,0.5,0.2,0.5,0.5
			C19,21.8,18.8,22,18.5,22z M19,20c0,0.3-0.2,0.5-0.5,0.5c-0.3,0-0.5-0.2-0.5-0.5v-3c0-0.3,0.2-0.5,0.5-0.5c0.3,0,0.5,0.2,0.5,0.5
			V20z"/>
	</g>
</g>
<g id="Outline_Icons">
	<g>
		<g>
			<line class="st2" x1="12.5" y1="14.5" x2="12.5" y2="11.7"/>
			<path class="st2" d="M7.5,11.7v2.8l-5,1.8c-1.2,0.4-2,1.6-2,2.8v2.4h11"/>
			<ellipse class="st2" cx="10" cy="6.5" rx="5" ry="6"/>
			<path class="st2" d="M15,6c-0.2,0-0.3,0-0.5,0c-1.7,0.3-2.8-0.3-3.7-1.9C10.2,5.1,8.4,6,7,6C6.3,6,5.7,5.8,5.1,5.5"/>
		</g>
		<polygon class="st3" points="23.5,23.5 13,23.5 18.2,13 		"/>
		<line class="st3" x1="18.5" y1="17" x2="18.5" y2="20"/>
		<g>
			<g>
				<g>
					<path d="M18.5,21c-0.3,0-0.5,0.2-0.5,0.5c0,0.3,0.2,0.5,0.5,0.5c0.3,0,0.5-0.2,0.5-0.5C19,21.2,18.8,21,18.5,21L18.5,21z"/>
				</g>
			</g>
		</g>
	</g>
</g>
</svg>
