<?xml version="1.0" encoding="utf-8"?>
<!-- Generator: Adobe Illustrator 19.2.0, SVG Export Plug-In . SVG Version: 6.00 Build 0)  -->
<svg version="1.1" id="Layer_1" xmlns="http://www.w3.org/2000/svg" xmlns:xlink="http://www.w3.org/1999/xlink" x="0px" y="0px"
	 viewBox="0 0 24 24" style="enable-background:new 0 0 24 24;" xml:space="preserve">
<style type="text/css">
	.st0{display:none;}
	.st1{display:inline;}
	.st2{fill:none;stroke:#000000;stroke-linejoin:round;stroke-miterlimit:10;}
	.st3{fill:none;stroke:#000000;stroke-linecap:round;stroke-linejoin:round;stroke-miterlimit:10;}
</style>
<g id="Filled_Icons" class="st0">
	<g class="st1">
		<path d="M14.7,14.7L13,14.1v-2.2c1.5-1.2,2.5-3.2,2.5-5.4c0-0.1,0-0.1,0-0.2c-0.4,0.1-0.7,0.2-1,0.2c-1.7,0-2.8-0.3-3.8-1.6
			C9.9,5.8,8.4,6.5,7,6.5C6.2,6.5,5.3,6,4.6,5.6c0,0.3-0.1,0.6-0.1,0.9c0,2.3,1,4.3,2.5,5.5v2.2l-4.7,1.7C0.9,16.3,0,17.6,0,19.1V22
			h13v-5.9c0-0.6,0.5-0.9,0.9-0.9h0.7C14.6,15,14.7,14.9,14.7,14.7z"/>
		<path d="M10.3,3.8L10.7,3l0.5,0.8c0.8,1.4,1.7,1.7,3.3,1.7c0.2,0,0.6-0.1,0.9-0.2C14.9,2.3,12.7,0,10,0C7.5,0,5.5,1.9,4.8,4.5
			c0.6,0.5,1.6,1,2.2,1C8.3,5.5,9.8,4.7,10.3,3.8z"/>
		<path d="M23.5,16h-0.7v-0.5c0-1.9-1.9-3.8-3.8-3.8c-1.9,0-3.8,1.9-3.8,3.8V16h-0.7c-0.3,0-0.5,0.2-0.5,0.5v7
			c0,0.3,0.2,0.5,0.5,0.5h9c0.3,0,0.5-0.2,0.5-0.5v-7C24,16.2,23.8,16,23.5,16z M19.6,19.8C19.6,19.8,19.5,19.8,19.6,19.8l-0.1,1.9
			c0,0.3-0.2,0.5-0.5,0.5c-0.3,0-0.5-0.2-0.5-0.5v-1.8c-0.2-0.1-0.3-0.4-0.3-0.6c0-0.5,0.4-0.8,0.8-0.8l0,0c0.5,0,0.8,0.4,0.8,0.8
			C19.8,19.4,19.7,19.6,19.6,19.8z M16.2,16.1L16.2,16.1v-0.6c0-1.3,1.4-2.8,2.8-2.8c1.3,0,2.8,1.4,2.8,2.8v0.6l0,0H16.2z"/>
	</g>
</g>
<g id="Outline_Icons">
	<g>
		<path class="st2" d="M20,20c0,0.3-0.2,0.5-0.5,0.5l0,0c-0.3,0-0.5-0.2-0.5-0.5l0,0c0-0.3,0.2-0.5,0.5-0.5l0,0
			C19.8,19.5,20,19.7,20,20L20,20z"/>
		<g>
			<line class="st2" x1="12.5" y1="14.5" x2="12.5" y2="11.6"/>
			<path class="st2" d="M7.5,11.7v2.8l-5,1.8c-1.2,0.4-2,1.6-2,2.8v2.4h12"/>
			<ellipse class="st2" cx="10" cy="6.5" rx="5" ry="6"/>
			<path class="st2" d="M15,6c-0.2,0-0.3,0-0.5,0c-1.7,0.3-2.8-0.3-3.7-1.9C10.2,5.1,8.4,6,7,6C6.3,6,5.7,5.9,5.1,5.5"/>
		</g>
		<rect x="15.5" y="17.5" class="st3" width="8" height="6"/>
		<line class="st3" x1="19.5" y1="21.5" x2="19.5" y2="20.5"/>
		<path class="st3" d="M16.5,17.5v-1c0-1.7,1.3-3,3-3c1.7,0,3,1.3,3,3v1"/>
	</g>
</g>
</svg>
