<?xml version="1.0" encoding="utf-8"?>
<!-- Generator: Adobe Illustrator 19.2.0, SVG Export Plug-In . SVG Version: 6.00 Build 0)  -->
<svg version="1.1" id="Layer_1" xmlns="http://www.w3.org/2000/svg" xmlns:xlink="http://www.w3.org/1999/xlink" x="0px" y="0px"
	 viewBox="0 0 24 24" style="enable-background:new 0 0 24 24;" xml:space="preserve">
<style type="text/css">
	.st0{display:none;}
	.st1{display:inline;}
	.st2{fill:none;stroke:#000000;stroke-linejoin:round;stroke-miterlimit:10;}
</style>
<g id="Filled_Icons" class="st0">
	<g class="st1">
		<path d="M19.7,17.3L15,15.7v-2.3c1.4-1.2,2.4-3.1,2.4-5.3c0-0.1,0-0.1,0-0.2c-0.3,0.1-0.7,0.2-1,0.2c-1.7,0-2.8-0.3-3.8-1.6
			C11.8,7.4,10.3,8,8.9,8C8.2,8,7.2,7.6,6.4,7.3c0,0.2,0,0.5,0,0.7c0,2.3,1.1,4.4,2.6,5.5v2.1l-4.7,1.7C2.9,17.8,2,19.2,2,20.6V23
			h20v-2.4C22,19.2,21.1,17.8,19.7,17.3z"/>
		<path d="M12.2,5.4l0.4-0.8l0.5,0.8C13.9,6.8,14.8,7,16.4,7c0.3,0,0.6-0.1,0.9-0.2c-0.5-3-2.7-5.3-5.4-5.3c-2.5,0-4.6,2-5.3,4.7
			C7.4,6.6,8.4,7,8.9,7C10.2,7,11.7,6.3,12.2,5.4z"/>
	</g>
</g>
<g id="Outline_Icons">
	<g>
		<path class="st2" d="M9.5,13.3V16l-5,1.8c-1.2,0.4-2,1.6-2,2.8v1.9h19v-1.9c0-1.3-0.8-2.4-2-2.8l-5-1.8v-2.9"/>
		<ellipse class="st2" cx="11.9" cy="8" rx="5" ry="6"/>
		<path class="st2" d="M16.8,7.5c-0.2,0-0.3,0-0.5,0c-1.7,0.3-2.8-0.3-3.7-1.9c-0.6,1.1-2.3,1.9-3.8,1.9C8.2,7.5,7.6,7.4,6.9,7"/>
	</g>
</g>
</svg>
