<?xml version="1.0" encoding="utf-8"?>
<!-- Generator: Adobe Illustrator 19.2.0, SVG Export Plug-In . SVG Version: 6.00 Build 0)  -->
<svg version="1.1" id="Layer_1" xmlns="http://www.w3.org/2000/svg" xmlns:xlink="http://www.w3.org/1999/xlink" x="0px" y="0px"
	 viewBox="0 0 24 24" style="enable-background:new 0 0 24 24;" xml:space="preserve">
<style type="text/css">
	.st0{display:none;}
	.st1{display:inline;}
	.st2{fill:none;stroke:#000000;stroke-linecap:round;stroke-linejoin:round;stroke-miterlimit:10;}
	.st3{fill:none;stroke:#000000;stroke-linejoin:round;stroke-miterlimit:10;}
</style>
<g id="Filled_Icons" class="st0">
	<g class="st1">
		<polygon points="17.2,15.6 17.2,15.6 13.5,19.3 16.7,22.5 17.2,22 17.2,22 18.5,20.7 18.5,20.7 21.5,17.7 18.3,14.5 		"/>
		<path d="M12.3,19.1l3.9-3.9L13,14.1v-2.2c1.5-1.2,2.5-3.2,2.5-5.4c0-0.1,0-0.1,0-0.2c-0.4,0.1-0.7,0.2-1,0.2
			c-1.7,0-2.8-0.3-3.8-1.6C9.9,5.8,8.4,6.5,7,6.5C6.2,6.5,5.3,6,4.6,5.6c0,0.3-0.1,0.6-0.1,0.9c0,2.3,1,4.3,2.5,5.5v2.2l-4.7,1.7
			C0.9,16.3,0,17.6,0,19.1V22h11.4l0.8-2.7C12.2,19.3,12.2,19.2,12.3,19.1z"/>
		<path d="M10.3,3.8L10.7,3l0.5,0.8c0.8,1.4,1.7,1.7,3.3,1.7c0.2,0,0.6-0.1,0.9-0.2C14.9,2.3,12.7,0,10,0C7.5,0,5.5,1.9,4.8,4.5
			c0.6,0.5,1.6,1,2.2,1C8.3,5.5,9.8,4.7,10.3,3.8z"/>
		<path d="M12.4,22L12.4,22L12,23.4c0,0.2,0,0.4,0.1,0.5c0.1,0.1,0.3,0.2,0.5,0.1l3.2-0.9l-2.9-2.9L12.4,22z"/>
		<path d="M23.9,14.6l-2.5-2.5c-0.2-0.2-0.5-0.2-0.7,0L19,13.8l3.2,3.2l1.6-1.6c0.1-0.1,0.1-0.2,0.1-0.4
			C24,14.9,23.9,14.7,23.9,14.6z"/>
	</g>
</g>
<g id="Outline_Icons">
	<g>
		<g>
			<polygon class="st2" points="17,22.5 13.5,23.5 14.5,20 21,13.5 23.5,16 			"/>
			<line class="st3" x1="19" y1="15.5" x2="21.5" y2="18"/>
			<line class="st2" x1="14.5" y1="20" x2="17" y2="22.5"/>
		</g>
		<g>
			<polyline class="st3" points="15.5,15.5 12.5,14.5 12.5,11.6 			"/>
			<path class="st3" d="M7.5,11.8v2.7l-5,1.8c-1.2,0.4-2,1.6-2,2.8v2.4H11"/>
			<ellipse class="st3" cx="9.9" cy="6.5" rx="5" ry="6"/>
			<path class="st3" d="M14.9,6c-0.2,0-0.3,0-0.5,0c-1.7,0.3-2.8-0.3-3.7-1.9C10.1,5.1,8.3,6,6.9,6C6.2,6,5.6,5.9,4.9,5.5"/>
		</g>
	</g>
</g>
</svg>
