<?xml version="1.0" encoding="utf-8"?>
<!-- Generator: Adobe Illustrator 19.2.0, SVG Export Plug-In . SVG Version: 6.00 Build 0)  -->
<svg version="1.1" id="Layer_1" xmlns="http://www.w3.org/2000/svg" xmlns:xlink="http://www.w3.org/1999/xlink" x="0px" y="0px"
	 viewBox="0 0 24 24" style="enable-background:new 0 0 24 24;" xml:space="preserve">
<style type="text/css">
	.st0{display:none;}
	.st1{display:inline;}
	.st2{fill:none;stroke:#000000;stroke-linejoin:round;stroke-miterlimit:10;}
	.st3{fill:none;stroke:#000000;stroke-linecap:round;stroke-linejoin:round;stroke-miterlimit:10;}
</style>
<g id="Filled_Icons" class="st0">
	<g class="st1">
		<path d="M15.2,13.2c-0.4-0.1-0.9-0.3-1.4-0.5c-0.6-0.2-1.3-0.4-1.9-0.6v-1.9c0.5-0.3,1.4-1.2,1.5-2.9c0.4-0.2,0.6-0.7,0.6-1.4
			c0-0.6-0.2-1-0.5-1.3C13.9,4,14.3,2.9,14,1.8C13.7,0.5,11.8,0,10.2,0l0,0c-1.3,0-3,0.4-3.6,1.4c-0.5,0-0.9,0.1-1.2,0.4
			C4.8,2.5,5.2,3.9,5.4,4.6C5.3,4.7,5.2,4.9,5.1,5C5,5.3,4.9,5.6,4.9,5.9c0,0.6,0.2,1.1,0.6,1.4c0.1,1.8,1,2.6,1.5,2.9v1.9
			c-0.6,0.2-1.3,0.4-1.9,0.6c-2.4,0.8-4.2,1.4-4.6,2.5C0,16.8,0,19.4,0,19.5c0,0.1,0.1,0.3,0.1,0.4C0.2,19.9,0.4,20,0.5,20h12.4
			v-3.9c0-0.6,0.5-0.9,0.9-0.9h0.7C14.6,14.5,14.8,13.8,15.2,13.2z"/>
		<path d="M23.5,16h-0.7v-0.5c0-1.9-1.9-3.8-3.8-3.8c-1.9,0-3.8,1.9-3.8,3.8V16h-0.7c-0.3,0-0.5,0.2-0.5,0.5v7
			c0,0.3,0.2,0.5,0.5,0.5h9c0.3,0,0.5-0.2,0.5-0.5v-7C24,16.2,23.8,16,23.5,16z M19.6,19.8C19.6,19.8,19.5,19.8,19.6,19.8l-0.1,1.9
			c0,0.3-0.2,0.5-0.5,0.5c-0.3,0-0.5-0.2-0.5-0.5v-1.8c-0.2-0.1-0.3-0.4-0.3-0.6c0-0.5,0.4-0.8,0.8-0.8l0,0c0.5,0,0.8,0.4,0.8,0.8
			C19.8,19.4,19.7,19.6,19.6,19.8z M16.2,16.1L16.2,16.1v-0.6c0-1.3,1.4-2.8,2.8-2.8c1.3,0,2.8,1.4,2.8,2.8v0.6l0,0H16.2z"/>
	</g>
</g>
<g id="Outline_Icons">
	<g>
		<g>
			<path class="st2" d="M14,13.4c-0.8-0.3-1.6-0.5-2.5-0.9V10c0,0,1.5-0.6,1.5-3c0.8,0,0.8-2.1,0-2.1c0-0.2,0.8-1.6,0.5-2.9
				C13,0.1,7.5,0.1,7,2C4.6,1.5,6,4.7,6,5C5.2,5,5.2,7,6,7c0,2.4,1.5,3,1.5,3v2.5c-2.8,1.1-6.1,1.8-6.5,3c-0.5,1.4-0.5,4-0.5,4h12"
				/>
		</g>
		<g>
			<path class="st2" d="M20,20c0,0.3-0.2,0.5-0.5,0.5l0,0c-0.3,0-0.5-0.2-0.5-0.5l0,0c0-0.3,0.2-0.5,0.5-0.5l0,0
				C19.8,19.5,20,19.7,20,20L20,20z"/>
			<rect x="15.5" y="17.5" class="st3" width="8" height="6"/>
			<line class="st3" x1="19.5" y1="21.5" x2="19.5" y2="20.5"/>
			<path class="st3" d="M16.5,17.5v-1c0-1.7,1.3-3,3-3c1.7,0,3,1.3,3,3v1"/>
		</g>
	</g>
</g>
</svg>
