<?xml version="1.0" encoding="utf-8"?>
<!-- Generator: Adobe Illustrator 19.2.0, SVG Export Plug-In . SVG Version: 6.00 Build 0)  -->
<svg version="1.1" id="Layer_1" xmlns="http://www.w3.org/2000/svg" xmlns:xlink="http://www.w3.org/1999/xlink" x="0px" y="0px"
	 viewBox="0 0 24 24" style="enable-background:new 0 0 24 24;" xml:space="preserve">
<style type="text/css">
	.st0{display:none;}
	.st1{display:inline;}
	.st2{fill:none;stroke:#000000;stroke-linejoin:round;stroke-miterlimit:10;}
	.st3{fill:none;stroke:#000000;stroke-linecap:round;stroke-linejoin:round;stroke-miterlimit:10;}
</style>
<g id="Filled_Icons" class="st0">
	<g class="st1">
		<g>
			<path d="M5.3,5.1C5.8,5.4,6.4,5.5,7,5.5c1.3,0,2.9-0.8,3.3-1.7L10.7,3l0.5,0.8c0.9,1.5,1.8,2,3.2,1.7c0.1,0,0.7-0.1,1-0.2
				C14.9,2.3,12.7,0,10,0C7.5,0,5.3,2,4.7,4.8L5.3,5.1z"/>
			<path d="M12,18.5c0-1.6,0.6-3,1.5-4.2L13,14.1v-2.2c1.5-1.2,2.5-3.2,2.5-5.4c0,0,0-0.1,0-0.1c-0.3,0-0.8,0.1-0.9,0.1
				c-0.3,0.1-0.6,0.1-0.9,0.1c-1.2,0-2.1-0.5-2.9-1.6C9.9,5.8,8.4,6.5,7,6.5C6.2,6.5,5.5,6.3,4.8,6L4.5,5.8c0,0.2,0,0.5,0,0.7
				c0,2.3,1,4.3,2.5,5.4v2.2l-4.7,1.7C0.9,16.3,0,17.6,0,19.1V22h13C12.4,21,12,19.8,12,18.5z"/>
		</g>
		<path d="M18.5,13c-3,0-5.5,2.5-5.5,5.5c0,3,2.5,5.5,5.5,5.5c3,0,5.5-2.5,5.5-5.5C24,15.5,21.5,13,18.5,13z M20.7,19.5l-1.8,1.8
			c-0.1,0.1-0.2,0.1-0.4,0.1c0,0,0,0,0,0c0,0,0,0,0,0c-0.2,0-0.3-0.1-0.4-0.2l-1.8-1.8c-0.2-0.2-0.2-0.5,0-0.7
			c0.2-0.2,0.5-0.2,0.7,0l1,1v-3.6c0-0.3,0.2-0.5,0.5-0.5c0.3,0,0.5,0.2,0.5,0.5v3.6l1-1c0.2-0.2,0.5-0.2,0.7,0
			C20.9,19,20.9,19.4,20.7,19.5z"/>
	</g>
</g>
<g id="Outline_Icons">
	<g>
		<g>
			<line class="st2" x1="12.5" y1="14.5" x2="12.5" y2="11.7"/>
			<path class="st2" d="M7.5,11.7v2.8l-5,1.8c-1.2,0.4-2,1.6-2,2.8v2.4h11"/>
			<ellipse class="st2" cx="10" cy="6.5" rx="5" ry="6"/>
			<path class="st2" d="M15,6c-0.2,0-0.3,0-0.5,0c-1.7,0.3-2.8-0.3-3.7-1.9C10.2,5.1,8.4,6,7,6C6.3,6,5.7,5.8,5.1,5.5"/>
		</g>
		<g>
			<polyline class="st3" points="20.3,19.2 18.5,21 16.7,19.2 			"/>
			<circle class="st2" cx="18.5" cy="18.5" r="5"/>
			<line class="st3" x1="18.5" y1="16.2" x2="18.5" y2="21"/>
		</g>
	</g>
</g>
</svg>
