<?xml version="1.0" encoding="utf-8"?>
<!-- Generator: Adobe Illustrator 19.2.0, SVG Export Plug-In . SVG Version: 6.00 Build 0)  -->
<svg version="1.1" id="Layer_1" xmlns="http://www.w3.org/2000/svg" xmlns:xlink="http://www.w3.org/1999/xlink" x="0px" y="0px"
	 viewBox="0 0 24 24" style="enable-background:new 0 0 24 24;" xml:space="preserve">
<style type="text/css">
	.st0{display:none;}
	.st1{display:inline;}
	.st2{fill:none;stroke:#000000;stroke-linecap:round;stroke-linejoin:round;stroke-miterlimit:10;}
	.st3{fill:none;stroke:#000000;stroke-linejoin:round;stroke-miterlimit:10;}
</style>
<g id="Filled_Icons" class="st0">
	<g class="st1">
		<path d="M13.5,14.3L13,14.1v-2.2c1.5-1.2,2.5-3.2,2.5-5.4c0-0.1,0-0.1,0-0.2c-0.4,0.1-0.7,0.2-1,0.2c-1.7,0-2.8-0.3-3.8-1.6
			C9.9,5.8,8.4,6.5,7,6.5C6.2,6.5,5.3,6,4.6,5.6c0,0.3-0.1,0.6-0.1,0.9c0,2.3,1,4.3,2.5,5.5v2.2l-4.7,1.7C0.9,16.3,0,17.6,0,19.1V22
			h13c-0.6-1-1-2.2-1-3.5C12,16.9,12.6,15.5,13.5,14.3z"/>
		<path d="M10.3,3.8L10.7,3l0.5,0.8c0.8,1.4,1.7,1.7,3.3,1.7c0.2,0,0.6-0.1,0.9-0.2C14.9,2.3,12.7,0,10,0C7.5,0,5.5,1.9,4.8,4.5
			c0.6,0.5,1.6,1,2.2,1C8.3,5.5,9.8,4.7,10.3,3.8z"/>
		<path d="M18.5,13c-3,0-5.5,2.5-5.5,5.5c0,3,2.5,5.5,5.5,5.5c3,0,5.5-2.5,5.5-5.5C24,15.5,21.5,13,18.5,13z M21.4,17.4L18,20.7
			l-2.3-2.4c-0.2-0.2-0.2-0.5,0-0.7c0.2-0.2,0.5-0.2,0.7,0l1.6,1.6l2.7-2.6c0.2-0.2,0.5-0.2,0.7,0C21.5,16.8,21.5,17.2,21.4,17.4z"
			/>
	</g>
</g>
<g id="Outline_Icons">
	<g>
		<polyline class="st2" points="21,17 18,20 16,18 		"/>
		<g>
			<line class="st3" x1="12.5" y1="14.5" x2="12.5" y2="11.7"/>
			<path class="st3" d="M7.5,11.7v2.8l-5,1.8c-1.2,0.4-2,1.6-2,2.8v2.4h11"/>
			<ellipse class="st3" cx="10" cy="6.5" rx="5" ry="6"/>
			<path class="st3" d="M15,6c-0.2,0-0.3,0-0.5,0c-1.7,0.3-2.8-0.3-3.7-1.9C10.2,5.1,8.4,6,7,6C6.3,6,5.7,5.8,5.1,5.5"/>
		</g>
		<circle class="st3" cx="18.5" cy="18.5" r="5"/>
	</g>
</g>
</svg>
