<?xml version="1.0" encoding="utf-8"?>
<!-- Generator: Adobe Illustrator 19.2.0, SVG Export Plug-In . SVG Version: 6.00 Build 0)  -->
<svg version="1.1" id="Layer_1" xmlns="http://www.w3.org/2000/svg" xmlns:xlink="http://www.w3.org/1999/xlink" x="0px" y="0px"
	 viewBox="0 0 24 24" style="enable-background:new 0 0 24 24;" xml:space="preserve">
<style type="text/css">
	.st0{display:none;}
	.st1{display:inline;}
	.st2{fill:none;stroke:#000000;stroke-linejoin:round;stroke-miterlimit:10;}
</style>
<g id="Filled_Icons" class="st0">
	<g class="st1">
		<path d="M15.5,13.3c-0.5-0.2-1.1-0.4-1.6-0.6c-0.6-0.2-1.3-0.4-1.9-0.6v-1.9c0.5-0.3,1.4-1.2,1.5-2.9c0.4-0.2,0.6-0.7,0.6-1.4
			c0-0.6-0.2-1-0.5-1.3C13.9,4,14.3,2.9,14,1.8C13.7,0.5,11.8,0,10.2,0l0,0c-1.3,0-3,0.4-3.6,1.4c-0.5,0-0.9,0.1-1.2,0.4
			C4.8,2.5,5.2,3.9,5.4,4.6C5.3,4.7,5.2,4.9,5.1,5C5,5.3,4.9,5.6,4.9,5.9c0,0.6,0.2,1.1,0.6,1.4c0.1,1.8,1,2.6,1.5,2.9v1.9
			c-0.6,0.2-1.3,0.4-1.9,0.6c-2.4,0.8-4.2,1.4-4.6,2.5C0,16.8,0,19.4,0,19.5c0,0.1,0.1,0.3,0.1,0.4C0.2,19.9,0.4,20,0.5,20h12.9
			c-0.5-0.9-0.9-1.8-0.9-2.7C12.5,15.1,13.9,13.7,15.5,13.3z"/>
		<path d="M21.1,14.2c-0.9,0-1.8,0.5-2.4,1.5c-0.6-1-1.5-1.5-2.4-1.5c-1.4,0-2.9,1.2-2.9,3.1c0,2.3,3.1,5.1,4.9,6.4c0,0,0,0,0,0
			c0.1,0.1,0.2,0.1,0.3,0.1c0.1,0,0.2,0,0.3-0.1c0,0,0,0,0,0c1.8-1.3,4.9-4.2,4.9-6.4C24,15.3,22.5,14.2,21.1,14.2z"/>
	</g>
</g>
<g id="Outline_Icons">
	<g>
		<path class="st2" d="M19,23.5c0,0,4.5-2.5,4.5-6.5c0-3-3.5-3-4.5,0c-1-3-4.5-3-4.5,0.2C14.5,21,19,23.5,19,23.5z"/>
		<path class="st2" d="M14.5,13.4c-0.8-0.3-2-0.5-2.5-0.9V10c0,0,1.5-0.6,1.5-3c0.5,0,0.5-2.1,0-2.1c0-0.2,0.7-1.6,0.4-2.9
			c-0.5-1.9-6-1.9-6.4,0C5.1,1.5,6.5,4.7,6.5,5c-1,0-1,2,0,2c0,2.4,1.5,3,1.5,3v2.5c-3,1.1-6.2,1.8-6.6,3c-0.5,1.4-0.9,4-0.9,4h11"
			/>
	</g>
</g>
</svg>
