<?xml version="1.0" encoding="utf-8"?>
<!-- Generator: Adobe Illustrator 19.2.0, SVG Export Plug-In . SVG Version: 6.00 Build 0)  -->
<svg version="1.1" id="Layer_1" xmlns="http://www.w3.org/2000/svg" xmlns:xlink="http://www.w3.org/1999/xlink" x="0px" y="0px"
	 viewBox="0 0 24 24" style="enable-background:new 0 0 24 24;" xml:space="preserve">
<style type="text/css">
	.st0{display:none;}
	.st1{display:inline;}
	.st2{fill:none;stroke:#000000;stroke-linecap:round;stroke-linejoin:round;stroke-miterlimit:10;}
	.st3{fill:none;stroke:#000000;stroke-linejoin:round;stroke-miterlimit:10;}
</style>
<g id="Filled_Icons" class="st0">
	<path class="st1" d="M21.3,19.6c1.7-2,2.7-4.7,2.7-7.6c0-6.6-5.4-12-12-12S0,5.4,0,12s5.4,12,12,12c0.2,0,0.4,0,0.6,0l-1-3.2
		l8.2-4.2L21.3,19.6z M11.4,19.8l-0.8-2.7L9.5,17c-0.4-0.1-0.8-0.2-1.2-0.2C6.1,16.3,4,15.9,4,12.9C4,11,5.4,9.4,7.2,9l3.7-0.8
		L12.6,4c0.1-0.3,0.4-0.4,0.6-0.3c2.7,1,4.3,5.8,4.5,7.7l1.8,4.3L11.4,19.8z"/>
</g>
<g id="Outline_Icons">
	<g>
		<circle class="st2" cx="12" cy="12" r="11.5"/>
		<path class="st3" d="M20.7,19.6l-3.5-8C17,9.7,15.5,5.1,13,4.2l-1.8,4.5l-4,0.9c-1.6,0.3-2.8,1.7-2.8,3.3c0,3,2.2,3,5.1,3.6
			l1.4,0.2l2,6.9"/>
		<line class="st3" x1="12" y1="20" x2="19.3" y2="16.4"/>
	</g>
</g>
</svg>
