<?xml version="1.0" encoding="utf-8"?>
<!-- Generator: Adobe Illustrator 19.2.0, SVG Export Plug-In . SVG Version: 6.00 Build 0)  -->
<svg version="1.1" id="Layer_1" xmlns="http://www.w3.org/2000/svg" xmlns:xlink="http://www.w3.org/1999/xlink" x="0px" y="0px"
	 viewBox="0 0 24 24" style="enable-background:new 0 0 24 24;" xml:space="preserve">
<style type="text/css">
	.st0{display:none;}
	.st1{display:inline;}
	.st2{fill:none;stroke:#000000;stroke-linecap:round;stroke-linejoin:round;stroke-miterlimit:10;}
</style>
<g id="Filled_Icons" class="st0">
	<g class="st1">
		<path d="M17.7,6.8c-0.3,0-0.7,0-1,0.1c-0.7-2-2.6-3.4-4.7-3.4c-2.1,0-4,1.4-4.7,3.4C7,6.8,6.7,6.8,6.3,6.8c-2,0-3.3,1.5-3.3,3.7
			c0,0.1,0.1,0.3,0.1,0.4S3.4,11,3.5,11l0,0l17,0c0.3,0,0.5-0.2,0.5-0.5C21,8.4,19.6,6.8,17.7,6.8z"/>
		<path d="M24,20.4l-2-8c-0.1-0.2-0.3-0.4-0.5-0.4h-19c-0.2,0-0.4,0.2-0.5,0.4l-2,8c0,0.1,0,0.3,0.1,0.4C0.2,20.9,0.3,21,0.5,21h23
			c0.2,0,0.3-0.1,0.4-0.2C24,20.7,24,20.5,24,20.4z M17,17.5c0,0.3-0.2,0.5-0.5,0.5h-9C7.2,18,7,17.8,7,17.5v-2
			C7,15.2,7.2,15,7.5,15h9c0.3,0,0.5,0.2,0.5,0.5V17.5z"/>
	</g>
</g>
<g id="Outline_Icons">
	<g>
		<polygon class="st2" points="21.5,12.5 2.5,12.5 0.5,20.5 23.5,20.5 		"/>
		<path class="st2" d="M20.5,10.5c0-2-1.3-3.2-2.8-3.2c-0.5,0-0.9,0.1-1.3,0.3C15.9,5.6,14.2,4,12,4C9.8,4,8.1,5.6,7.6,7.6
			C7.2,7.4,6.8,7.3,6.3,7.3c-1.6,0-2.8,1.2-2.8,3.2"/>
		<rect x="7.5" y="15.5" class="st2" width="9" height="2"/>
	</g>
</g>
</svg>
