<?xml version="1.0" encoding="utf-8"?>
<!-- Generator: Adobe Illustrator 19.2.0, SVG Export Plug-In . SVG Version: 6.00 Build 0)  -->
<svg version="1.1" id="Layer_1" xmlns="http://www.w3.org/2000/svg" xmlns:xlink="http://www.w3.org/1999/xlink" x="0px" y="0px"
	 viewBox="0 0 24 24" style="enable-background:new 0 0 24 24;" xml:space="preserve">
<style type="text/css">
	.st0{display:none;}
	.st1{display:inline;}
	.st2{fill:none;stroke:#000000;stroke-linecap:round;stroke-linejoin:round;stroke-miterlimit:10;}
</style>
<g id="Filled_Icons" class="st0">
	<g class="st1">
		<path d="M23.9,8.1c-0.4,1.3-2.2,2.4-4.7,3c0,0,0,0,0.1,0C17.4,11.6,14.9,12,12,12c-2.7,0-5-0.3-6.9-0.8c0,0,0,0,0,0
			c-2.6-0.6-4.7-1.7-5.1-3.1C0,8.2,0,8.5,0,8.5v0.1v6C0,17.5,6.2,19,12,19c5.8,0,12-1.6,12-4.4v-6c0,0,0,0,0,0
			C24,8.5,23.9,8.1,23.9,8.1z M3,15c-0.6,0-1-0.4-1-1c0-0.6,0.4-1,1-1c0.6,0,1,0.4,1,1C4,14.6,3.6,15,3,15z M6,16c-0.6,0-1-0.4-1-1
			c0-0.6,0.4-1,1-1c0.6,0,1,0.4,1,1C7,15.6,6.5,16,6,16z M16,17.5c0,0.3-0.2,0.5-0.5,0.5c-1.3,0.1-2.5,0.2-3.7,0.2
			c-1.2,0-2.3-0.1-3.4-0.2C8.2,18,8,17.8,8,17.5v-4c0-0.1,0.1-0.3,0.2-0.4C8.3,13,8.4,13,8.6,13c2.3,0.2,4.6,0.2,6.9,0
			c0.1,0,0.3,0,0.4,0.1c0.1,0.1,0.2,0.2,0.2,0.4V17.5z M18,16c-0.6,0-1-0.4-1-1c0-0.6,0.4-1,1-1c0.6,0,1,0.4,1,1
			C19,15.6,18.6,16,18,16z M21,15c-0.6,0-1-0.4-1-1c0-0.6,0.4-1,1-1c0.6,0,1,0.4,1,1C22,14.6,21.6,15,21,15z"/>
		<path d="M13.5,14h-3c-0.3,0-0.5,0.2-0.5,0.5v2c0,0.3,0.2,0.5,0.5,0.5h3c0.3,0,0.5-0.2,0.5-0.5v-2C14,14.2,13.8,14,13.5,14z"/>
		<path d="M23,7.5c0-0.8-1-1.6-2.7-2.3C18.2,4.5,15.3,4,12,4C8.2,4,4.9,4.7,2.7,5.7C1.6,6.3,1,6.9,1,7.5c0,1.2,2.4,2.4,6.1,3
			C8.3,10.2,9.8,10,12,10c2.3,0,3.9,0.2,5.2,0.5C20.8,9.9,23,8.6,23,7.5z"/>
	</g>
</g>
<g id="Outline_Icons">
	<g>
		<path class="st2" d="M23.5,8.6c0,2.2-5.1,3.9-11.5,3.9S0.5,10.7,0.5,8.6S5.7,4.5,12,4.5S23.5,6.4,23.5,8.6z"/>
		<path class="st2" d="M3.6,11.2c2-0.6,3.4-1.7,8.5-1.7c5,0,6.8,1,8.8,1.6"/>
		<path class="st2" d="M23.5,8.5v6.1c0,2.1-5.1,3.9-11.5,3.9S0.5,16.7,0.5,14.6V8.5"/>
		<path class="st2" d="M15.5,12.3c-2.3,0.3-4.7,0.3-7,0v6c2.3,0.2,4.6,0.2,7,0V12.3z"/>
		<rect x="10.5" y="14.5" class="st2" width="3" height="2"/>
		<circle class="st2" cx="18" cy="15" r="0.5"/>
		<circle class="st2" cx="21" cy="14" r="0.5"/>
		<circle class="st2" cx="6" cy="15" r="0.5"/>
		<circle class="st2" cx="3" cy="14" r="0.5"/>
	</g>
</g>
</svg>
