<?xml version="1.0" encoding="utf-8"?>
<!-- Generator: Adobe Illustrator 19.2.0, SVG Export Plug-In . SVG Version: 6.00 Build 0)  -->
<svg version="1.1" id="Layer_1" xmlns="http://www.w3.org/2000/svg" xmlns:xlink="http://www.w3.org/1999/xlink" x="0px" y="0px"
	 viewBox="0 0 24 24" style="enable-background:new 0 0 24 24;" xml:space="preserve">
<style type="text/css">
	.st0{display:none;}
	.st1{display:inline;}
	.st2{fill:none;stroke:#000000;stroke-linejoin:round;stroke-miterlimit:10;}
	.st3{fill:none;stroke:#000000;stroke-linecap:round;stroke-linejoin:round;stroke-miterlimit:10;}
</style>
<g id="Filled_Icons" class="st0">
	<g class="st1">
		<path d="M19.5,12h-0.9l1.9-3.8c0.1-0.2,0-0.5-0.2-0.7c-0.2-0.1-0.5,0-0.7,0.2L17.5,12h-0.8l1.8-7.4c0.1-0.3-0.1-0.5-0.4-0.6
			c-0.3-0.1-0.5,0.1-0.6,0.4L15.7,12H15l0.5-6.5C15.5,5.3,15.3,5,15,5c-0.3,0-0.5,0.2-0.5,0.5L14,12h-1V3.5C13,3.2,12.8,3,12.5,3
			C12.2,3,12,3.2,12,3.5V12h-1l-0.5-6.5C10.5,5.2,10.2,5,10,5C9.7,5,9.5,5.3,9.5,5.5L10,12H9.3L7.5,4.4C7.4,4.1,7.1,4,6.9,4
			C6.6,4.1,6.4,4.4,6.5,4.6L8.3,12H7.6L5.4,7.8C5.3,7.5,5,7.4,4.8,7.6C4.5,7.7,4.4,8,4.6,8.2L6.4,12H5.5C4.7,12,4,12.7,4,13.5
			S4.7,15,5.5,15h14c0.8,0,1.5-0.7,1.5-1.5S20.3,12,19.5,12z"/>
		<path d="M7,21.6C7,21.8,7.3,22,7.5,22h10c0.2,0,0.5-0.2,0.5-0.4l0.8-5.6H6.2L7,21.6z"/>
	</g>
</g>
<g id="Outline_Icons">
	<g>
		<polygon class="st2" points="18.5,14.5 6.5,14.5 7.5,21.5 17.5,21.5 		"/>
		<path class="st2" d="M4.5,13.5c0,0.6,0.4,1,1,1h14c0.6,0,1-0.4,1-1c0-0.6-0.4-1-1-1h-14C4.9,12.5,4.5,12.9,4.5,13.5z"/>
		<line class="st3" x1="7.2" y1="12.5" x2="5" y2="8"/>
		<line class="st3" x1="9" y1="12.5" x2="7" y2="4.5"/>
		<line class="st3" x1="10.6" y1="12.5" x2="10" y2="5.5"/>
		<line class="st3" x1="17.8" y1="12.5" x2="20" y2="8"/>
		<line class="st3" x1="16.1" y1="12.5" x2="18" y2="4.5"/>
		<line class="st3" x1="14.5" y1="12.5" x2="15" y2="5.5"/>
		<line class="st3" x1="12.5" y1="12.5" x2="12.5" y2="3.5"/>
	</g>
</g>
</svg>
