<?xml version="1.0" encoding="utf-8"?>
<!-- Generator: Adobe Illustrator 19.2.0, SVG Export Plug-In . SVG Version: 6.00 Build 0)  -->
<svg version="1.1" id="Layer_1" xmlns="http://www.w3.org/2000/svg" xmlns:xlink="http://www.w3.org/1999/xlink" x="0px" y="0px"
	 viewBox="0 0 24 24" style="enable-background:new 0 0 24 24;" xml:space="preserve">
<style type="text/css">
	.st0{display:none;}
	.st1{display:inline;}
	.st2{fill:none;stroke:#000000;stroke-linecap:round;stroke-linejoin:round;stroke-miterlimit:10;}
</style>
<g id="Filled_Icons" class="st0">
	<g class="st1">
		<path d="M3,5.5c-1.3,0.6-2,1.3-2,2c0,0.7,0.8,1.4,2.2,2C5.2,8.6,8.3,8,11.5,8c3.3,0,6.3,0.6,8.3,1.5c1.4-0.6,2.2-1.3,2.2-2
			c0-0.7-0.7-1.4-2-2C17.9,4.6,14.9,4,11.5,4C8.1,4,5.1,4.6,3,5.5z"/>
		<path d="M23,8.5c0,0,0-0.3-0.1-0.4C22,11.1,14.7,12,11.5,12c-5.3,0-10.7-1.5-11.4-4C0,8.2,0,8.4,0,8.6v3c0,1.9,3,3.6,7.7,4.2
			c0.6-1.7,2.2-2.8,3.8-2.8c1.6,0,3.2,1.1,3.8,2.8c4.7-0.6,7.7-2.2,7.7-4.2V8.5C23,8.6,23,8.6,23,8.5C23,8.5,23,8.5,23,8.5z"/>
		<path d="M12,14.1V17c0,0.3-0.2,0.5-0.5,0.5S11,17.3,11,17v-2.9c-1.4,0.2-2.5,1.5-2.5,2.9c0,1.7,1.3,3,3,3s3-1.3,3-3
			C14.5,15.5,13.4,14.3,12,14.1z"/>
	</g>
</g>
<g id="Outline_Icons">
	<g>
		<path class="st2" d="M22.5,8.6c0,2.2-4.9,3.9-11,3.9s-11-1.8-11-3.9s5-4.1,11-4.1S22.5,6.4,22.5,8.6z"/>
		<path class="st2" d="M1.3,10.1C3,8.6,6.9,7.5,11.5,7.5c4.6,0,8.4,1.1,10.1,2.5"/>
		<path class="st2" d="M8,15.3c-4.3-0.5-7.5-2-7.5-3.7v-3"/>
		<path class="st2" d="M22.5,8.5v3.1c0,1.7-3.1,3.2-7.4,3.7"/>
		<circle class="st2" cx="11.5" cy="17" r="2.5"/>
		<line class="st2" x1="11.5" y1="14.5" x2="11.5" y2="17"/>
	</g>
</g>
</svg>
