<?xml version="1.0" encoding="utf-8"?>
<!-- Generator: Adobe Illustrator 19.2.0, SVG Export Plug-In . SVG Version: 6.00 Build 0)  -->
<svg version="1.1" id="Layer_1" xmlns="http://www.w3.org/2000/svg" xmlns:xlink="http://www.w3.org/1999/xlink" x="0px" y="0px"
	 viewBox="0 0 24 24" style="enable-background:new 0 0 24 24;" xml:space="preserve">
<style type="text/css">
	.st0{display:none;}
	.st1{display:inline;}
	.st2{fill:none;stroke:#000000;stroke-linejoin:round;stroke-miterlimit:10;}
</style>
<g id="Filled_Icons" class="st0">
	<g class="st1">
		<path d="M3.1,15l-3,5.2c-0.1,0.2-0.1,0.4,0,0.5C0.2,21,0.4,21,0.6,21L4,20.4l1.2,3.3C5.3,23.9,5.4,24,5.6,24c0,0,0,0,0,0
			c0.2,0,0.3-0.1,0.4-0.2l2.6-4.3C6.3,18.7,4.4,17.1,3.1,15z"/>
		<path d="M23.8,20.3l-2.9-5.1c-1.3,2-3.3,3.6-5.6,4.3l2.5,4.3c0.1,0.1,0.3,0.2,0.4,0.2c0,0,0,0,0,0c0.2,0,0.4-0.1,0.4-0.3l1.2-3.3
			l3.4,0.6c0.2,0,0.4,0,0.5-0.2C23.9,20.6,23.9,20.4,23.8,20.3z"/>
		<path d="M12,0C6.8,0,2.5,4.3,2.5,9.5c0,5.2,4.3,9.5,9.5,9.5s9.5-4.3,9.5-9.5S17.2,0,12,0z M12,3.7c1,0,1.7,0.8,1.7,1.7
			S12.9,7.2,12,7.2c-1,0-1.7-0.8-1.7-1.7S11,3.7,12,3.7z M6.5,7.9c0-1,0.8-1.7,1.7-1.7S10,6.9,10,7.9S9.2,9.6,8.2,9.6
			C7.3,9.6,6.5,8.9,6.5,7.9z M15.3,13.1c-0.3,0.6-0.9,1-1.5,1h-3.6c-0.6,0-1.2-0.4-1.5-1c-0.3-0.6-0.2-1.3,0.1-1.8l1.8-2.5
			c0.6-0.9,2.1-0.9,2.7,0l1.8,2.5C15.6,11.8,15.6,12.5,15.3,13.1z M15.8,9.6c-1,0-1.7-0.8-1.7-1.7s0.8-1.7,1.7-1.7s1.7,0.8,1.7,1.7
			S16.7,9.6,15.8,9.6z"/>
	</g>
</g>
<g id="Outline_Icons">
	<g>
		<polyline class="st2" points="4.2,14.1 0.5,20.5 4.3,19.9 5.7,23.5 9,18 		"/>
		<polyline class="st2" points="19.7,14.2 23.3,20.5 19.5,19.9 18.2,23.5 14.9,18 		"/>
		<circle class="st2" cx="12" cy="9.5" r="9"/>
		<g>
			<path class="st2" d="M13,9.1c-0.2-0.3-0.6-0.5-1-0.5s-0.7,0.2-1,0.5l-1.8,2.5c-0.3,0.4-0.3,0.9-0.1,1.3c0.2,0.4,0.6,0.7,1.1,0.7
				h3.6c0.4,0,0.9-0.3,1.1-0.7c0.2-0.4,0.2-0.9-0.1-1.3L13,9.1z"/>
			<circle class="st2" cx="8.2" cy="7.9" r="1.2"/>
			<circle class="st2" cx="12" cy="5.4" r="1.2"/>
			<circle class="st2" cx="15.8" cy="7.9" r="1.2"/>
		</g>
	</g>
</g>
</svg>
