<?xml version="1.0" encoding="utf-8"?>
<!-- Generator: Adobe Illustrator 19.2.0, SVG Export Plug-In . SVG Version: 6.00 Build 0)  -->
<svg version="1.1" id="Layer_1" xmlns="http://www.w3.org/2000/svg" xmlns:xlink="http://www.w3.org/1999/xlink" x="0px" y="0px"
	 viewBox="0 0 24 24" style="enable-background:new 0 0 24 24;" xml:space="preserve">
<style type="text/css">
	.st0{display:none;}
	.st1{display:inline;}
	.st2{fill:none;stroke:#000000;stroke-linejoin:round;stroke-miterlimit:10;}
	.st3{fill:none;stroke:#000000;stroke-linecap:round;stroke-linejoin:round;stroke-miterlimit:10;}
</style>
<g id="Filled_Icons" class="st0">
	<g class="st1">
		<g>
			<path d="M7.2,8.1c0.7-0.4,1.4-0.7,2.2-0.8l-3.4-7C5.9,0.1,5.7,0,5.5,0H3.3L7.2,8.1z"/>
			<path d="M6.3,8.7L2.2,0H0.5C0.3,0,0.2,0.1,0.1,0.2C0,0.4,0,0.6,0,0.7l4.6,9.5C5.1,9.7,5.7,9.1,6.3,8.7z"/>
		</g>
		<g>
			<path d="M15.8,8.1L19.7,0h-2.2c-0.2,0-0.4,0.1-0.5,0.3l-3.4,7C14.4,7.5,15.1,7.7,15.8,8.1z"/>
			<path d="M22.9,0.2C22.8,0.1,22.7,0,22.5,0h-1.7l-4.1,8.6c0.6,0.4,1.2,1,1.7,1.6l4.5-9.5C23,0.6,23,0.4,22.9,0.2z"/>
		</g>
		<path d="M11.5,8c-4.4,0-8,3.6-8,8s3.6,8,8,8s8-3.6,8-8S16,8,11.5,8z M11.5,11.5c0.8,0,1.5,0.7,1.5,1.5s-0.7,1.5-1.5,1.5
			S10,13.8,10,13S10.7,11.5,11.5,11.5z M7,15c0-0.8,0.7-1.5,1.5-1.5S10,14.2,10,15c0,0.8-0.7,1.5-1.5,1.5S7,15.8,7,15z M14.3,19.2
			C14.1,19.7,13.6,20,13,20h-2.9c-0.5,0-1-0.3-1.3-0.8c-0.2-0.5-0.2-1.1,0.1-1.5l1.5-2c0.5-0.7,1.8-0.7,2.4,0l1.5,2
			C14.5,18.1,14.6,18.7,14.3,19.2z M14.6,16.5c-0.8,0-1.5-0.7-1.5-1.5c0-0.8,0.7-1.5,1.5-1.5c0.8,0,1.5,0.7,1.5,1.5
			C16.1,15.8,15.4,16.5,14.6,16.5z"/>
	</g>
</g>
<g id="Outline_Icons">
	<g>
		<circle class="st2" cx="11.5" cy="16" r="7.5"/>
		<g>
			<polyline class="st3" points="16.7,7.5 20,0.5 17.5,0.5 14.7,6.5 			"/>
			<polyline class="st3" points="18.5,8.9 22.5,0.5 20,0.5 16.7,7.5 			"/>
		</g>
		<g>
			<polyline class="st3" points="6.3,7.5 3,0.5 5.5,0.5 8.4,6.5 			"/>
			<polyline class="st3" points="4.5,8.9 0.5,0.5 3,0.5 6.3,7.5 			"/>
		</g>
		<path class="st2" d="M12.3,15.9c-0.2-0.2-0.5-0.4-0.8-0.4s-0.6,0.1-0.8,0.4l-1.5,2c-0.2,0.3-0.2,0.7-0.1,1
			c0.2,0.3,0.5,0.5,0.9,0.5H13c0.4,0,0.7-0.2,0.9-0.5c0.2-0.3,0.1-0.7-0.1-1L12.3,15.9z"/>
		<circle class="st2" cx="8.5" cy="15" r="1"/>
		<circle class="st2" cx="11.5" cy="13" r="1"/>
		<circle class="st2" cx="14.6" cy="15" r="1"/>
	</g>
</g>
</svg>
