<?xml version="1.0" encoding="utf-8"?>
<!-- Generator: Adobe Illustrator 19.2.0, SVG Export Plug-In . SVG Version: 6.00 Build 0)  -->
<svg version="1.1" id="Layer_1" xmlns="http://www.w3.org/2000/svg" xmlns:xlink="http://www.w3.org/1999/xlink" x="0px" y="0px"
	 viewBox="0 0 24 24" style="enable-background:new 0 0 24 24;" xml:space="preserve">
<style type="text/css">
	.st0{display:none;}
	.st1{display:inline;}
	.st2{fill:none;stroke:#000000;stroke-linecap:round;stroke-linejoin:round;stroke-miterlimit:10;}
</style>
<g id="Filled_Icons" class="st0">
	<path class="st1" d="M23.6,17.4c-0.2-0.4-0.5-0.7-0.8-1c-1.9-1.9-4.5-2.2-6.4-0.8l-0.7-0.7l1.1-1.1c0.2-0.2,0.2-0.5,0-0.7
		c-0.2-0.2-0.5-0.2-0.7,0L15,14.2l-1.4-1.4l2.1-2.1c0.2-0.2,0.2-0.5,0-0.7c-0.2-0.2-0.5-0.2-0.7,0l-2.1,2.1l-1.4-1.4l1.1-1.1
		c0.2-0.2,0.2-0.5,0-0.7c-0.2-0.2-0.5-0.2-0.7,0l-1.1,1.1l-0.7-0.7c0.8-0.8,1.4-1.7,1.8-2.6c0.6-1.5,0.5-2.8-0.4-3.7
		c-0.1-0.1-0.1-0.1-0.2-0.1L3.3,0.1C3.1,0,2.8,0,2.6,0l1.3,4.3C4,4.6,3.8,4.9,3.6,5c0,0-0.1,0-0.1,0C3.2,5,3,4.8,3,4.6L1.7,0.5
		c0,0,0,0,0,0C1.2,0.9,0.1,2,0,3.8c-0.1,2,1.2,4.2,3.8,6.8c0.5,0.5,1.2,0.8,2,0.8c1.2,0,2.4-0.6,3.5-1.5l0.7,0.7l-1.4,1.4
		c-0.2,0.2-0.2,0.5,0,0.7c0.1,0.1,0.2,0.1,0.4,0.1c0.1,0,0.3,0,0.4-0.1l1.4-1.4l1.4,1.4l-2.1,2.1c-0.2,0.2-0.2,0.5,0,0.7
		c0.1,0.1,0.2,0.1,0.4,0.1c0.1,0,0.3-0.1,0.4-0.1l2.1-2.1l1.4,1.4l-1.4,1.4c-0.2,0.2-0.2,0.5,0,0.7c0.1,0.1,0.2,0.1,0.4,0.1
		c0.1,0,0.3,0,0.4-0.1l1.4-1.4l0.7,0.7c-0.7,0.9-1.1,1.9-0.9,3.1c0.1,1.2,0.7,2.3,1.7,3.3c0.3,0.3,0.7,0.6,1.1,0.8
		c0.1,0,0.2,0.1,0.2,0.1c0.1,0,0.3,0,0.4-0.1c0.2-0.2,0.2-0.4,0.1-0.6c-0.7-1.2-0.4-3.6-0.1-4.8c0.5-0.1,1.6-0.3,2.7-0.3
		c0.9,0,1.6,0.1,2.1,0.4c0.1,0,0.2,0.1,0.3,0.1c0.3,0,0.5-0.2,0.5-0.5C23.8,17.6,23.7,17.5,23.6,17.4z M7.9,5.9
		C7.7,6,7.5,6.1,7.2,6.1C7,6.1,6.7,6,6.6,5.9C6.4,5.7,6.3,5.4,6.3,5.2c0-0.3,0.1-0.5,0.3-0.7c0.4-0.4,1-0.4,1.3,0
		c0.2,0.2,0.3,0.4,0.3,0.7S8.1,5.7,7.9,5.9z"/>
</g>
<g id="Outline_Icons">
	<g>
		<path class="st2" d="M3.2,0.6c-0.3-0.1-0.7-0.1-1,0.2c-0.6,0.6-4.4,3.1,2,9.5C7,13,13.9,6.1,11.1,3.3L3.2,0.6z"/>
		<circle class="st2" cx="7.2" cy="5.2" r="0.4"/>
		<line class="st2" x1="9.4" y1="9.2" x2="16.4" y2="16.3"/>
		<line class="st2" x1="12.2" y1="9.2" x2="9" y2="12.4"/>
		<line class="st2" x1="15.4" y1="10.3" x2="10.4" y2="15.2"/>
		<line class="st2" x1="16.5" y1="13.5" x2="13.3" y2="16.6"/>
		<line class="st2" x1="2.3" y1="0.6" x2="3.4" y2="4.5"/>
		<path class="st2" d="M17.8,17.6c0,0,3.7-0.9,5.5,0.1c-0.2-0.4-0.4-0.7-0.7-1c-1.8-1.8-4.3-2.3-6.1-0.5c-1.8,1.8-1.3,4.3,0.5,6.1
			c0.3,0.3,0.6,0.5,1,0.7C16.9,21.4,17.8,17.6,17.8,17.6z"/>
	</g>
</g>
</svg>
