<?xml version="1.0" encoding="utf-8"?>
<!-- Generator: Adobe Illustrator 19.2.0, SVG Export Plug-In . SVG Version: 6.00 Build 0)  -->
<svg version="1.1" id="Layer_1" xmlns="http://www.w3.org/2000/svg" xmlns:xlink="http://www.w3.org/1999/xlink" x="0px" y="0px"
	 viewBox="0 0 24 24" style="enable-background:new 0 0 24 24;" xml:space="preserve">
<style type="text/css">
	.st0{display:none;}
	.st1{display:inline;}
	.st2{fill:none;stroke:#000000;stroke-linecap:round;stroke-linejoin:round;stroke-miterlimit:10;}
</style>
<g id="Filled_Icons" class="st0">
	<g class="st1">
		<path d="M21.8,5.3c-0.3-0.9-1.1-1.6-2.1-1.9c-0.5-0.1-1.1-0.1-1.5,0.1c1.2,1.9,0.3,5-2.2,7.6c-2.1,2.1-4.8,3.2-7,1.4l-7.1,7.1
			c-0.8,0.8-0.8,2,0,2.8C2.2,22.8,2.7,23,3.2,23s1-0.2,1.4-0.6l6.1-6.1c1.8,0.6,4.4-0.4,7-2.8C20.3,11.2,22.6,7.7,21.8,5.3z"/>
		<path d="M9.3,11.5c1.8,1.8,4.2,0.6,6-1.1c2.2-2.2,3.2-5.3,1.8-6.7l-2-2c-0.2-0.2-0.5-0.2-0.7,0c-0.2,0.2-0.2,0.5,0,0.7l2,2
			c0.3,0.3,0.4,1,0.3,1.7l-3.7-3.7c-0.2-0.2-0.5-0.2-0.7,0s-0.2,0.5,0,0.7l4.1,4.1c-0.1,0.3-0.3,0.6-0.5,0.9l-4.4-4.4
			c-0.2-0.2-0.5-0.2-0.7,0s-0.2,0.5,0,0.7l4.6,4.6c-0.2,0.2-0.4,0.5-0.7,0.7c0,0,0,0,0,0L10,5.1c-0.2-0.2-0.5-0.2-0.7,0
			c-0.2,0.2-0.2,0.5,0,0.7l4.6,4.5c-0.3,0.2-0.6,0.4-0.9,0.6L8.7,6.6C8.5,6.4,8.2,6.4,8,6.6S7.8,7.1,8,7.3l4,4
			c-0.8,0.2-1.4,0-1.9-0.5L8.3,9.1c-0.2-0.2-0.5-0.2-0.7,0s-0.2,0.5,0,0.7L9.3,11.5z"/>
	</g>
</g>
<g id="Outline_Icons">
	<g>
		<path class="st2" d="M14.7,2l2,2c1.1,1.1,0.4,3.8-1.8,6c-2.1,2.1-4.1,2.3-5.3,1.1L8,9.4"/>
		<path class="st2" d="M10.4,11.6l-8.3,8.3c-0.6,0.6-0.6,1.5,0,2.1c0.6,0.6,1.5,0.6,2.1,0l6.3-6.3c3.9,1.8,12-6.4,10.7-10.2
			c-0.5-1.5-2.6-2.2-3.6-1.1l-0.6,0.6"/>
		<line class="st2" x1="12.9" y1="11.5" x2="8.3" y2="6.9"/>
		<line class="st2" x1="14.5" y1="10.3" x2="9.6" y2="5.4"/>
		<line class="st2" x1="15.9" y1="8.9" x2="11" y2="4"/>
		<line class="st2" x1="16.9" y1="7.1" x2="12.6" y2="2.7"/>
	</g>
</g>
</svg>
