<?xml version="1.0" encoding="utf-8"?>
<!-- Generator: Adobe Illustrator 19.2.0, SVG Export Plug-In . SVG Version: 6.00 Build 0)  -->
<svg version="1.1" id="Layer_1" xmlns="http://www.w3.org/2000/svg" xmlns:xlink="http://www.w3.org/1999/xlink" x="0px" y="0px"
	 viewBox="0 0 24 24" style="enable-background:new 0 0 24 24;" xml:space="preserve">
<style type="text/css">
	.st0{display:none;}
	.st1{display:inline;}
	.st2{fill:none;stroke:#000000;stroke-linejoin:round;stroke-miterlimit:10;}
</style>
<g id="Filled_Icons" class="st0">
	<g class="st1">
		<path d="M6,10.2c0-2.5-1.3-4.5-3-4.5s-3,2-3,4.5s1.3,4.5,3,4.5C4.7,14.7,6,12.7,6,10.2z"/>
		<path d="M8.6,8.7c0.9,0,1.6-0.6,2.1-1.4c0.4-0.8,0.7-1.8,0.6-2.8c-0.1-2.2-1.3-4-2.9-4c0,0,0,0,0,0c-0.8,0-1.5,0.5-2,1.4
			C6,2.6,5.7,3.6,5.8,4.7C5.9,6.9,7.1,8.7,8.6,8.7z"/>
		<path d="M20.7,5.8c-1.7,0-3,2-3,4.5s1.3,4.5,3,4.5c1.7,0,3-2,3-4.5S22.4,5.8,20.7,5.8z"/>
		<path d="M15,8.7c1.8,0,2.9-2.1,2.9-4c0-1.1-0.2-2.1-0.6-2.8c-0.5-0.9-1.2-1.3-2.1-1.4c-1.5,0-2.8,1.8-2.9,4c0,1.1,0.2,2.1,0.6,2.8
			C13.5,8.1,14.2,8.6,15,8.7z"/>
		<path d="M15.8,13.7c-0.4-2-1.6-4.2-3.9-4.2c-2.3,0-3.5,2.1-3.9,4.2c-0.1,0.6-0.7,1.3-1.3,1.9c-1,1-2.1,2.2-2.1,4
			c0,3.1,3.8,4.4,7.3,4.4s7.3-1.4,7.3-4.4c0-1.8-1.1-2.9-2.1-4C16.5,14.9,15.9,14.3,15.8,13.7z"/>
	</g>
</g>
<g id="Outline_Icons">
	<g>
		<ellipse class="st2" cx="3" cy="10.2" rx="2.5" ry="4"/>
		
			<ellipse transform="matrix(0.9992 -3.980030e-02 3.980030e-02 0.9992 -0.1745 0.3437)" class="st2" cx="8.5" cy="4.6" rx="2.3" ry="3.6"/>
		<ellipse class="st2" cx="20.7" cy="10.2" rx="2.5" ry="4"/>
		
			<ellipse transform="matrix(3.980030e-02 -0.9992 0.9992 3.980030e-02 10.0113 19.5261)" class="st2" cx="15.2" cy="4.6" rx="3.6" ry="2.3"/>
		<path class="st2" d="M15.3,13.8c-0.3-1.7-1.4-3.8-3.4-3.8s-3.1,2-3.4,3.8C8.1,15.6,5,16.8,5,19.6c0,5.3,13.6,5.3,13.6,0
			C18.7,16.8,15.6,15.6,15.3,13.8z"/>
	</g>
</g>
</svg>
