<?xml version="1.0" encoding="utf-8"?>
<!-- Generator: Adobe Illustrator 19.2.0, SVG Export Plug-In . SVG Version: 6.00 Build 0)  -->
<svg version="1.1" id="Layer_1" xmlns="http://www.w3.org/2000/svg" xmlns:xlink="http://www.w3.org/1999/xlink" x="0px" y="0px"
	 viewBox="0 0 24 24" style="enable-background:new 0 0 24 24;" xml:space="preserve">
<style type="text/css">
	.st0{display:none;}
	.st1{display:inline;}
	.st2{fill:none;stroke:#000000;stroke-linejoin:round;stroke-miterlimit:10;}
</style>
<g id="Filled_Icons" class="st0">
	<path class="st1" d="M24,12c0-0.1-0.1-0.3-0.2-0.4L21.9,10l1.2-2.2c0.1-0.1,0.1-0.3,0-0.4c-0.1-0.1-0.2-0.2-0.3-0.3l-2.4-0.7
		l0.2-2.5c0-0.1,0-0.3-0.1-0.4c-0.1-0.1-0.3-0.2-0.4-0.1l-2.5,0.2l-0.7-2.4c0-0.1-0.1-0.3-0.3-0.3c-0.1-0.1-0.3-0.1-0.4,0L14,2.1
		l-1.6-1.9c-0.2-0.2-0.6-0.2-0.8,0L10,2.1L7.8,0.9c-0.1-0.1-0.3-0.1-0.4,0C7.3,1,7.2,1.1,7.1,1.2L6.4,3.6L3.9,3.4
		c-0.1,0-0.3,0-0.4,0.1C3.4,3.6,3.4,3.8,3.4,3.9l0.2,2.5L1.2,7.1C1.1,7.2,1,7.3,0.9,7.4c-0.1,0.1-0.1,0.3,0,0.4L2.1,10l-1.9,1.6
		C0.1,11.7,0,11.9,0,12c0,0.1,0.1,0.3,0.2,0.4L2.1,14l-1.2,2.2c-0.1,0.1-0.1,0.3,0,0.4s0.2,0.2,0.3,0.3l2.4,0.7l-0.2,2.5
		c0,0.1,0,0.3,0.1,0.4c0.1,0.1,0.3,0.2,0.4,0.1l2.5-0.2l0.7,2.4c0,0.1,0.1,0.3,0.3,0.3c0.1,0.1,0.3,0,0.4,0l2.2-1.2l1.6,1.9
		c0.1,0.1,0.2,0.2,0.4,0.2s0.3-0.1,0.4-0.2l1.6-1.9l2.2,1.2c0.1,0.1,0.3,0.1,0.4,0c0.1-0.1,0.2-0.2,0.3-0.3l0.7-2.4l2.5,0.2
		c0.1,0,0.3,0,0.4-0.1c0.1-0.1,0.2-0.3,0.1-0.4l-0.2-2.5l2.4-0.7c0.1,0,0.3-0.1,0.3-0.3c0.1-0.1,0-0.3,0-0.4L21.9,14l1.9-1.6
		C23.9,12.3,24,12.2,24,12z M12,6.7c1,0,1.7,0.8,1.7,1.7s-0.8,1.7-1.7,1.7c-1,0-1.7-0.8-1.7-1.7S11,6.7,12,6.7z M6.5,10.9
		c0-1,0.8-1.7,1.7-1.7S10,9.9,10,10.9s-0.8,1.7-1.7,1.7C7.3,12.6,6.5,11.9,6.5,10.9z M15.3,16c-0.3,0.6-0.9,1-1.5,1h-3.6
		c-0.6,0-1.2-0.4-1.5-1c-0.3-0.6-0.2-1.3,0.1-1.8l1.8-2.5c0.6-0.9,2.1-0.9,2.7,0l1.8,2.5C15.6,14.8,15.6,15.5,15.3,16z M15.8,12.6
		c-1,0-1.7-0.8-1.7-1.7s0.8-1.7,1.7-1.7s1.7,0.8,1.7,1.7S16.7,12.6,15.8,12.6z"/>
</g>
<g id="Outline_Icons">
	<g>
		<path class="st2" d="M21.3,13.8l2.2-1.8l-2.2-1.8l1.3-2.6l-2.8-0.9l0.3-2.9l-2.9,0.3l-0.9-2.8l-2.6,1.3L12,0.5l-1.8,2.2L7.6,1.4
			L6.7,4.1L3.9,3.9l0.3,2.9L1.4,7.6l1.3,2.6L0.5,12l2.2,1.8l-1.3,2.6l2.8,0.9l-0.3,2.9l2.9-0.3l0.9,2.8l2.6-1.3l1.8,2.2l1.8-2.2
			l2.6,1.3l0.9-2.8l2.9,0.3l-0.3-2.9l2.8-0.9L21.3,13.8z"/>
		<g>
			<path class="st2" d="M13,12.1c-0.2-0.3-0.6-0.5-1-0.5s-0.7,0.2-1,0.5l-1.8,2.5c-0.3,0.4-0.3,0.9-0.1,1.3c0.2,0.4,0.6,0.7,1.1,0.7
				h3.6c0.4,0,0.9-0.3,1.1-0.7c0.2-0.4,0.2-0.9-0.1-1.3L13,12.1z"/>
			<circle class="st2" cx="8.2" cy="10.9" r="1.2"/>
			<circle class="st2" cx="12" cy="8.4" r="1.2"/>
			<circle class="st2" cx="15.8" cy="10.9" r="1.2"/>
		</g>
	</g>
</g>
</svg>
