<?xml version="1.0" encoding="utf-8"?>
<!-- Generator: Adobe Illustrator 19.2.0, SVG Export Plug-In . SVG Version: 6.00 Build 0)  -->
<svg version="1.1" id="Layer_1" xmlns="http://www.w3.org/2000/svg" xmlns:xlink="http://www.w3.org/1999/xlink" x="0px" y="0px"
	 viewBox="0 0 24 24" style="enable-background:new 0 0 24 24;" xml:space="preserve">
<style type="text/css">
	.st0{display:none;}
	.st1{display:inline;}
	.st2{fill:none;stroke:#000000;stroke-linejoin:round;stroke-miterlimit:10;}
	.st3{fill:none;stroke:#000000;stroke-linecap:round;stroke-linejoin:round;stroke-miterlimit:10;}
</style>
<g id="Filled_Icons" class="st0">
	<path class="st1" d="M20.5,13.5h-0.7c-0.9-3.6-4-6.3-7.8-6.5V5.2c2.8-0.2,5.3-1.8,6.6-4.2c0.1-0.2,0-0.5-0.2-0.7s-0.5,0-0.7,0.2
		c-1.2,2.3-3.6,3.7-6.2,3.7c-2.6,0-5-1.4-6.2-3.8C5.2,0.2,4.9,0.1,4.6,0.2C4.4,0.3,4.3,0.6,4.4,0.9C5.7,3.4,8.2,5,11,5.2V7
		c-3.7,0.2-6.9,2.9-7.8,6.5H2.5C1.7,13.5,1,14.2,1,15v1c0,0.8,0.7,1.5,1.5,1.5h0.7c0.9,3.6,4,6.3,7.8,6.5v-2.3l-1.6-1.9
		c-0.1-0.1-0.1-0.2-0.1-0.3c0-0.9,0.8-1.5,2.1-1.5c1.2,0,2.1,0.6,2.1,1.5c0,0.1,0,0.2-0.1,0.3L12,21.7V24c3.7-0.2,6.9-2.9,7.8-6.5
		h0.7c0.8,0,1.5-0.7,1.5-1.5v-1C22,14.2,21.3,13.5,20.5,13.5z M21,16c0,0.3-0.2,0.5-0.5,0.5h-18C2.2,16.5,2,16.3,2,16v-1
		c0-0.3,0.2-0.5,0.5-0.5h18c0.3,0,0.5,0.2,0.5,0.5V16z"/>
</g>
<g id="Outline_Icons">
	<g>
		<path class="st2" d="M3.6,14.5c0.5-3.9,3.9-7,7.9-7c4.1,0,7.4,3.1,7.9,7"/>
		<rect x="2.5" y="14.5" class="st2" width="18" height="2"/>
		<path class="st2" d="M19.4,16.5c-0.5,3.9-3.9,7-7.9,7c-4.1,0-7.4-3-7.9-7"/>
		<path class="st2" d="M11.5,23.5v-2l-1.7-2c0-1.3,3.1-1.3,3.1,0l-1.5,2"/>
		<line class="st2" x1="11.5" y1="4.7" x2="11.5" y2="7.5"/>
		<path class="st3" d="M18.1,0.7c-1.3,2.4-3.8,4-6.6,4c-2.9,0-5.4-1.6-6.7-4"/>
	</g>
</g>
</svg>
