<?xml version="1.0" encoding="utf-8"?>
<!-- Generator: Adobe Illustrator 19.2.0, SVG Export Plug-In . SVG Version: 6.00 Build 0)  -->
<svg version="1.1" id="Layer_1" xmlns="http://www.w3.org/2000/svg" xmlns:xlink="http://www.w3.org/1999/xlink" x="0px" y="0px"
	 viewBox="0 0 24 24" style="enable-background:new 0 0 24 24;" xml:space="preserve">
<style type="text/css">
	.st0{display:none;}
	.st1{display:inline;}
	.st2{fill:none;stroke:#000000;stroke-linecap:round;stroke-linejoin:round;stroke-miterlimit:10;}
	.st3{fill:none;stroke:#000000;stroke-linejoin:round;stroke-miterlimit:10;}
</style>
<g id="Filled_Icons" class="st0">
	<g class="st1">
		<path d="M19.8,3C17.7,1.1,15,0,12,0C5.4,0,0,5.4,0,12c0,3,1.1,5.7,2.9,7.8L19.8,3z M7.2,9l3.7-0.8L12.6,4c0.1-0.3,0.4-0.4,0.6-0.3
			c0.9,0.3,1.7,1.1,2.4,2.1L5.5,15.9c-0.9-0.5-1.5-1.4-1.5-3C4,11,5.4,9.4,7.2,9z"/>
		<path d="M20.6,3.6l-17,17C5.8,22.7,8.7,24,12,24c0.2,0,0.4,0,0.6,0l-1-3.2l8.2-4.2l1.3,3c1.9-2,2.9-4.7,2.9-7.6
			C24,8.8,22.7,5.8,20.6,3.6z M11.4,19.8l-0.8-2.7L9.5,17c-0.3-0.1-0.5-0.1-0.7-0.1L17,8.6c0.4,1.1,0.6,2.1,0.7,2.8l1.8,4.3
			L11.4,19.8z"/>
	</g>
</g>
<g id="Outline_Icons">
	<g>
		<circle class="st2" cx="12" cy="12" r="11.5"/>
		<polyline class="st3" points="9.6,16.4 11,16.6 13,23.5 		"/>
		<path class="st3" d="M15,5.8c-0.6-0.8-1.2-1.4-2-1.7l-1.8,4.5l-4,0.9c-1.6,0.3-2.8,1.7-2.8,3.3c0,1,0.3,1.7,0.7,2.1"/>
		<path class="st3" d="M20.7,19.6l-3.5-8c0-0.4-0.1-1-0.3-1.6"/>
		<line class="st3" x1="12" y1="20" x2="19.3" y2="16.4"/>
		<line class="st3" x1="19.9" y1="3.6" x2="3.7" y2="19.8"/>
	</g>
</g>
</svg>
