<?xml version="1.0" encoding="utf-8"?>
<!-- Generator: Adobe Illustrator 19.2.0, SVG Export Plug-In . SVG Version: 6.00 Build 0)  -->
<svg version="1.1" id="Layer_1" xmlns="http://www.w3.org/2000/svg" xmlns:xlink="http://www.w3.org/1999/xlink" x="0px" y="0px"
	 viewBox="0 0 24 24" style="enable-background:new 0 0 24 24;" xml:space="preserve">
<style type="text/css">
	.st0{display:none;}
	.st1{display:inline;}
	.st2{fill:none;stroke:#000000;stroke-linejoin:round;stroke-miterlimit:10;}
</style>
<g id="Filled_Icons" class="st0">
	<g class="st1">
		<path d="M5.6,14.9l-4.6,4.6c-1,1-1,2.6,0,3.5c0.5,0.5,1.1,0.7,1.8,0.7c0.7,0,1.3-0.3,1.8-0.7l4.6-4.6C9,18.3,5.7,15,5.6,14.9z"/>
		<g>
			<path d="M16.3,0.3L9.1,12.5l2.4,2.4l12.2-7.2c-0.1-0.1-0.1-0.2-0.1-0.2l-7.1-7.1C16.4,0.4,16.4,0.4,16.3,0.3z M14.7,5.7l0.7,0.7
				L14,7.9l-0.7-0.7L14.7,5.7z M11.2,13.5l-0.7-0.7l1.4-1.4l0.7,0.7L11.2,13.5z M11.9,10l1.4-1.4L14,9.3l-1.4,1.4L11.9,10z M14,12.1
				l-0.7-0.7l1.4-1.4l0.7,0.7L14,12.1z M14.7,8.6l1.4-1.4l0.7,0.7l-1.4,1.4L14.7,8.6z M16.8,10.7L16.1,10l1.4-1.4l0.7,0.7L16.8,10.7
				z M20.4,7.2L19,8.6l-0.7-0.7l1.4-1.4L20.4,7.2z M19,5.7l-1.4,1.4l-0.7-0.7L18.3,5L19,5.7z M17.6,4.3l-1.4,1.4L15.4,5l1.4-1.4
				L17.6,4.3z"/>
			<path d="M11.6,16c-0.1,0-0.2,0.1-0.3,0.1c-0.1,0-0.3,0-0.4-0.1L8.1,13c-0.2-0.2-0.2-0.4-0.1-0.6L15.3,0c-0.4,0-0.7,0.1-1,0.4
				L6.6,8.2c-1.8,1.8-1.8,4.6,0,6.4l2.8,2.8c0.9,0.9,2,1.3,3.2,1.3c1.2,0,2.3-0.5,3.2-1.3l7.8-7.8c0.2-0.2,0.4-0.6,0.4-0.9L11.6,16z
				"/>
		</g>
	</g>
</g>
<g id="Outline_Icons">
	<g>
		<path class="st2" d="M15.4,17.1c-1.6,1.6-4.1,1.6-5.7,0l-2.8-2.8c-1.6-1.6-1.6-4.1,0-5.7l7.8-7.8c0.4-0.4,1-0.4,1.4,0l7.1,7.1
			c0.4,0.4,0.4,1,0,1.4L15.4,17.1z"/>
		<polyline class="st2" points="15.6,0.5 8.4,12.6 11.4,15.6 23.5,8.4 		"/>
		<path class="st2" d="M9.8,17.1l-2.8-2.8l-5.7,5.7c-0.8,0.8-0.8,2,0,2.8c0.8,0.8,2,0.8,2.8,0L9.8,17.1z"/>
		<line class="st2" x1="17.2" y1="4" x2="15.8" y2="5.4"/>
		<line class="st2" x1="18.6" y1="5.4" x2="17.2" y2="6.8"/>
		<line class="st2" x1="20" y1="6.8" x2="18.6" y2="8.2"/>
		<line class="st2" x1="15.1" y1="6.1" x2="13.7" y2="7.5"/>
		<line class="st2" x1="13.7" y1="8.9" x2="12.2" y2="10.3"/>
		<line class="st2" x1="15.1" y1="10.3" x2="13.7" y2="11.8"/>
		<line class="st2" x1="12.2" y1="11.8" x2="10.8" y2="13.2"/>
		<line class="st2" x1="16.5" y1="7.5" x2="15.1" y2="8.9"/>
		<line class="st2" x1="17.9" y1="8.9" x2="16.5" y2="10.3"/>
	</g>
</g>
</svg>
