<?xml version="1.0" encoding="utf-8"?>
<!-- Generator: Adobe Illustrator 19.2.0, SVG Export Plug-In . SVG Version: 6.00 Build 0)  -->
<svg version="1.1" id="Layer_1" xmlns="http://www.w3.org/2000/svg" xmlns:xlink="http://www.w3.org/1999/xlink" x="0px" y="0px"
	 viewBox="0 0 24 24" style="enable-background:new 0 0 24 24;" xml:space="preserve">
<style type="text/css">
	.st0{display:none;}
	.st1{display:inline;}
	.st2{fill:none;stroke:#000000;stroke-linecap:round;stroke-linejoin:round;stroke-miterlimit:10;}
</style>
<g id="Filled_Icons" class="st0">
	<g class="st1">
		<path d="M22.5,13.5h-21c-0.9,0-1.5,0.2-1.5,1s0.6,1,1.5,1h21c0.9,0,1.5-0.2,1.5-1S23.4,13.5,22.5,13.5z"/>
		<path d="M1.2,16.5l1.6,6.4C3,23.5,3.6,24,4.3,24h15.4c0.7,0,1.3-0.5,1.5-1.1l1.6-6.4C22.7,16.5,1.3,16.5,1.2,16.5z M8,22
			c0,0.3-0.2,0.5-0.5,0.5S7,22.3,7,22v-4c0-0.3,0.2-0.5,0.5-0.5S8,17.7,8,18V22z M11,22c0,0.3-0.2,0.5-0.5,0.5S10,22.3,10,22v-4
			c0-0.3,0.2-0.5,0.5-0.5S11,17.7,11,18V22z M14,22c0,0.3-0.2,0.5-0.5,0.5S13,22.3,13,22v-4c0-0.3,0.2-0.5,0.5-0.5S14,17.7,14,18V22
			z M17,22c0,0.3-0.2,0.5-0.5,0.5S16,22.3,16,22v-4c0-0.3,0.2-0.5,0.5-0.5S17,17.7,17,18V22z"/>
		<path d="M22.5,12.5c0.1,0,0.2,0,0.3,0l-1.6-6.4C21,5.5,20.4,5,19.7,5H16c0-2.2-1.8-4-4-4S8,2.8,8,5H4.3C3.6,5,3,5.5,2.8,6.1
			l-1.6,6.4c0.1,0,0.2,0,0.3,0L22.5,12.5L22.5,12.5z M11,11c0,0.3-0.2,0.5-0.5,0.5S10,11.3,10,11V7c0-0.3,0.2-0.5,0.5-0.5
			S11,6.7,11,7V11z M14,11c0,0.3-0.2,0.5-0.5,0.5S13,11.3,13,11V7c0-0.3,0.2-0.5,0.5-0.5S14,6.7,14,7V11z M16,7
			c0-0.3,0.2-0.5,0.5-0.5S17,6.7,17,7v4c0,0.3-0.2,0.5-0.5,0.5S16,11.3,16,11V7z M12,2c1.7,0,3,1.3,3,3H9C9,3.4,10.3,2,12,2z M7,7
			c0-0.3,0.2-0.5,0.5-0.5S8,6.7,8,7v4c0,0.3-0.2,0.5-0.5,0.5S7,11.3,7,11V7z"/>
	</g>
</g>
<g id="Outline_Icons">
	<g>
		<path class="st2" d="M20.7,22.7c-0.1,0.4-0.5,0.8-1,0.8H4.3c-0.5,0-0.9-0.3-1-0.8l-1.8-7.2h21L20.7,22.7z"/>
		<path class="st2" d="M23.5,14.5c0,0.6-0.4,1-1,1h-21c-0.6,0-1-0.4-1-1c0-0.6,0.4-1,1-1h21C23.1,13.5,23.5,13.9,23.5,14.5z"/>
		<line class="st2" x1="13.5" y1="17.5" x2="13.5" y2="21.5"/>
		<line class="st2" x1="16.5" y1="17.5" x2="16.5" y2="21.5"/>
		<line class="st2" x1="10.5" y1="17.5" x2="10.5" y2="21.5"/>
		<line class="st2" x1="7.5" y1="17.5" x2="7.5" y2="21.5"/>
		<path class="st2" d="M3.3,6.3c0.1-0.4,0.5-0.8,1-0.8h15.4c0.5,0,0.9,0.3,1,0.8l1.8,7.2h-21L3.3,6.3z"/>
		<line class="st2" x1="10.5" y1="11.5" x2="10.5" y2="7.5"/>
		<line class="st2" x1="7.5" y1="11.5" x2="7.5" y2="7.5"/>
		<line class="st2" x1="13.5" y1="11.5" x2="13.5" y2="7.5"/>
		<line class="st2" x1="16.5" y1="11.5" x2="16.5" y2="7.5"/>
		<path class="st2" d="M15.5,5c0-1.9-1.6-3.5-3.5-3.5c-1.9,0-3.5,1.6-3.5,3.5v0.5h7V5z"/>
	</g>
</g>
</svg>
