<?xml version="1.0" encoding="utf-8"?>
<!-- Generator: Adobe Illustrator 19.2.0, SVG Export Plug-In . SVG Version: 6.00 Build 0)  -->
<svg version="1.1" id="Layer_1" xmlns="http://www.w3.org/2000/svg" xmlns:xlink="http://www.w3.org/1999/xlink" x="0px" y="0px"
	 viewBox="0 0 24 24" style="enable-background:new 0 0 24 24;" xml:space="preserve">
<style type="text/css">
	.st0{display:none;}
	.st1{display:inline;}
	.st2{fill:none;stroke:#000000;stroke-linejoin:round;stroke-miterlimit:10;}
</style>
<g id="Filled_Icons" class="st0">
	<path class="st1" d="M22.4,5.1c-0.7-0.7-1.5-1-2.5-1c0-0.9-0.4-1.8-1-2.5c-1.3-1.3-3.6-1.3-4.9,0c-1.3,1.3-1.3,3.7,0.2,5.1
		l-7.7,7.7c-0.8-0.8-1.7-1.1-2.6-1.1c-0.9,0-1.8,0.4-2.4,1c-0.7,0.7-1,1.5-1,2.4c0,0.9,0.3,1.8,1,2.4c0.7,0.7,1.5,1,2.5,1
		c0,0.9,0.3,1.8,1,2.5c0.7,0.7,1.5,1,2.5,1c0.9,0,1.8-0.4,2.4-1c0.7-0.7,1-1.5,1-2.4c0-0.9-0.3-1.7-1-2.4l7.7-7.7
		c1.3,1.3,3.5,1.2,4.8-0.1C23.8,8.6,23.8,6.4,22.4,5.1z"/>
</g>
<g id="Outline_Icons">
	<g>
		<path class="st2" d="M9.5,18c-0.1-0.1-0.3-0.3-0.3-0.3l8.5-8.5c0,0,0.1,0.2,0.3,0.3c1.2,1.2,3,1.1,4.2,0c1.2-1.2,1.1-3.1,0-4.2
			c-0.7-0.7-1.8-1-2.7-0.8c0.2-0.9-0.1-2-0.8-2.7c-1.2-1.2-3-1.2-4.2,0c-1.2,1.2-1.1,3.1,0.1,4.3C14.6,6.3,15,6.6,15,6.6l-8.5,8.5
			c0,0-0.3-0.4-0.4-0.5c-1.2-1.2-3.1-1.2-4.2-0.1c-1.2,1.2-1.2,3,0,4.2c0.7,0.7,1.7,1,2.7,0.8c-0.2,0.9,0.1,2,0.8,2.7
			c1.2,1.2,3.1,1.2,4.2,0C10.7,21,10.7,19.2,9.5,18z"/>
	</g>
</g>
</svg>
