<?xml version="1.0" encoding="utf-8"?>
<!-- Generator: Adobe Illustrator 19.2.0, SVG Export Plug-In . SVG Version: 6.00 Build 0)  -->
<svg version="1.1" id="Layer_1" xmlns="http://www.w3.org/2000/svg" xmlns:xlink="http://www.w3.org/1999/xlink" x="0px" y="0px"
	 viewBox="0 0 24 24" style="enable-background:new 0 0 24 24;" xml:space="preserve">
<style type="text/css">
	.st0{display:none;}
	.st1{display:inline;}
	.st2{fill:none;stroke:#000000;stroke-linejoin:round;stroke-miterlimit:10;}
	.st3{fill:none;stroke:#000000;stroke-linecap:round;stroke-linejoin:round;stroke-miterlimit:10;}
</style>
<g id="Filled_Icons" class="st0">
	<g class="st1">
		<path d="M12.7,7c0,5.4-4.4,9.7-9.7,9.7H2.6c0.8,0.8,1.7,1.6,2.7,2.1c0.4-0.1,0.9-0.2,1.3-0.4c5-1.6,8.4-6.2,8.4-11.4
			c0-1.9-0.4-3.6-1.2-5.3c-0.2-0.4-0.5-0.8-0.7-1.2C12,0.2,10.9,0,9.7,0C11.5,1.6,12.7,4.2,12.7,7z"/>
		<path d="M15,12c-0.3,0.7-0.7,1.4-1.1,2c1.7,1.2,3.1,1.4,4.2,1.7c0.5-0.7,0.9-1.5,1.2-2.3C17.8,13.4,16.4,13.2,15,12z"/>
		<path d="M14.7,1.3c0.6,1.3,1,2.7,1.2,4.1c0.7-1,0.9-1.4,1.3-2.2c-0.7-0.8-1.6-1.4-2.6-1.9C14.6,1.2,14.6,1.2,14.7,1.3z"/>
		<path d="M3,12.4c0.5,0,1-0.1,1.5-0.2c-1.6-0.6-3-1.5-4.3-2.6L0,9.4C0,9.6,0,9.8,0,10c0,0.6,0.1,1.1,0.1,1.6L1,12.1
			C1.6,12.3,2.3,12.4,3,12.4z"/>
		<path d="M15.6,11.2c1.6,1.3,3.1,1.2,4.1,1.2c0.2-0.8,0.3-1.6,0.3-2.4c0-0.9-0.1-1.7-0.3-2.6l-0.1,0.2
			C18.5,9.1,17.1,10.3,15.6,11.2z"/>
		<path d="M19.3,6.2c-0.3-0.8-0.8-1.6-1.4-2.3c-0.5,1-1,1.9-1.9,2.8c0,0.1,0,0.2,0,0.3c0,1-0.1,2-0.3,3C17.7,8.6,18.6,7.2,19.3,6.2z
			"/>
		<path d="M8.2,5.4c-0.7-2.2-2.3-3-3.7-3.6C4.3,1.8,4.1,1.9,4,2.1C5,4.1,6.4,5.1,8.2,5.4z"/>
		<path d="M8.2,8.7C8.3,8.2,8.4,7.6,8.4,7c0-0.2,0-0.4,0-0.6C6.3,6.2,4.3,5,3.2,2.7C2.6,3.3,2,3.9,1.6,4.7C2.4,5.7,4.2,8.3,8.2,8.7z
			"/>
		<path d="M23.1,21.4c-0.6-1.3-2.8-3.2-6.7-3.7c0.4-0.3,0.7-0.7,1.1-1.1c-1-0.2-2.4-0.5-4.1-1.7c-0.5,0.6-1,1.2-1.6,1.7
			c0.8,0.6,1.7,1.1,2.6,1.5l1,0.5c4,0.3,6.1,2.1,6.7,3c0.2,0.3,0.2,0.5,0.2,0.6c0,0-0.3,0.1-1-0.1c-4-1.5-8.3-0.7-11.8-0.1
			c-4.3,0.8-6.7,1.1-7.3-1.5c-0.1-0.3-0.3-0.4-0.6-0.4c-0.3,0.1-0.4,0.3-0.4,0.6c0.5,2.1,2,2.8,4,2.8c1.3,0,2.9-0.3,4.5-0.6
			c3.5-0.6,7.6-1.3,11.3,0.1c1.2,0.4,1.8,0.2,2-0.1C23.3,22.5,23.3,22,23.1,21.4z"/>
		<path d="M6.8,19.5c1,0.4,2.1,0.6,3.2,0.6c1.5,0,2.9-0.3,4.1-0.9c-1-0.5-1.8-0.8-3.1-1.8C9.7,18.3,8.1,19.1,6.8,19.5z"/>
		<path d="M3,15.7c4.8,0,8.7-3.9,8.7-8.7c0-3-1.3-5-3.3-6.9c-1,0.2-2,0.5-2.9,0.9l0.2,0.1C8,2.2,9.4,4.5,9.4,7
			c0,3.5-2.9,6.4-6.4,6.4c-0.8,0-1.6-0.1-2.4-0.4l-0.2-0.1c0.3,1,0.8,2,1.4,2.8H3z"/>
		<path d="M5.9,11.6c0.8-0.5,1.4-1.2,1.9-2c-3-0.4-5-1.9-6.7-4C0.6,6.4,0.3,7.3,0.2,8.2C1.2,9.1,2.8,10.8,5.9,11.6z"/>
	</g>
</g>
<g id="Outline_Icons">
	<g>
		<circle class="st2" cx="10" cy="10" r="9.5"/>
		<path class="st2" d="M14.2,1.5C15,3.2,15.5,5,15.5,7c0,5.6-3.7,10.3-8.8,11.9"/>
		<path class="st2" d="M9.5,0.5c1.7,1.7,2.7,4,2.7,6.5c0,5.1-4.1,9.2-9.2,9.2c-0.1,0-0.1,0-0.2,0"/>
		<path class="st2" d="M5.5,1.6c2,0.9,3.4,3,3.4,5.4c0,3.3-2.7,5.9-5.9,5.9c-0.8,0-1.5-0.1-2.2-0.4"/>
		<path class="st2" d="M19.1,7.3c-1.1,1.5-2.6,2.8-4.3,3.7"/>
		<path class="st2" d="M6,12.1c-2-0.5-3.9-1.5-5.4-2.9"/>
		<path class="st2" d="M17.3,4c-0.5,1-1.1,1.8-1.8,2.6"/>
		<path class="st2" d="M8.5,9.2C5.7,9.1,3.2,7.6,1.6,5.5"/>
		<path class="st2" d="M8.8,5.9c-2.2-0.1-4.1-1.3-5-3.1"/>
		<path class="st2" d="M14.2,18.5C13,18.1,12,17.4,11,16.7"/>
		<path class="st2" d="M17.3,16.1c-1.5-0.3-2.9-0.9-4.1-1.9"/>
		<path class="st2" d="M19,12.9c-1.7,0-3.2-0.7-4.2-1.8"/>
		<path class="st3" d="M14,18.5c8.4,0,10.7,5.9,7.1,4.5C12.8,19.9,3,26.8,1.6,21.1"/>
	</g>
</g>
</svg>
