<?xml version="1.0" encoding="utf-8"?>
<!-- Generator: Adobe Illustrator 19.2.0, SVG Export Plug-In . SVG Version: 6.00 Build 0)  -->
<svg version="1.1" id="Outline_Icons" xmlns="http://www.w3.org/2000/svg" xmlns:xlink="http://www.w3.org/1999/xlink" x="0px"
	 y="0px" viewBox="0 0 24 24" style="enable-background:new 0 0 24 24;" xml:space="preserve">
<style type="text/css">
	.st0{fill:none;stroke:#000000;stroke-linejoin:round;stroke-miterlimit:10;}
</style>
<g>
	<path class="st0" d="M17.5,5.5l2-5c-1.6,0.3-2.4,1.9-4,2c-1.6,0.2-1.9-1-3.5-1c-1.6,0-1.9,1.2-3.5,1c-1.6-0.2-2.4-1.7-4-2l2,5
		c0,5.6-4.8,6.4-5,16c0,0.5,0.2,1.1,0.6,1.4c0.4,0.4,0.9,0.6,1.4,0.6h17c0.5,0,1.1-0.2,1.4-0.6c0.4-0.4,0.6-0.9,0.6-1.4
		C22.2,12,17.5,11,17.5,5.5z"/>
	<ellipse class="st0" cx="12" cy="17.5" rx="3.8" ry="3"/>
	<ellipse class="st0" cx="12" cy="11.2" rx="0.9" ry="1.3"/>
	<ellipse class="st0" cx="8.4" cy="12.2" rx="0.9" ry="1.3"/>
	<ellipse class="st0" cx="15.4" cy="12.2" rx="0.9" ry="1.3"/>
	<line class="st0" x1="8" y1="5.5" x2="10" y2="5.5"/>
	<line class="st0" x1="11" y1="5.5" x2="13" y2="5.5"/>
	<line class="st0" x1="14" y1="5.5" x2="16" y2="5.5"/>
</g>
</svg>
