<?xml version="1.0" encoding="utf-8"?>
<!-- Generator: Adobe Illustrator 19.2.0, SVG Export Plug-In . SVG Version: 6.00 Build 0)  -->
<svg version="1.1" id="Layer_1" xmlns="http://www.w3.org/2000/svg" xmlns:xlink="http://www.w3.org/1999/xlink" x="0px" y="0px"
	 viewBox="0 0 24 24" style="enable-background:new 0 0 24 24;" xml:space="preserve">
<style type="text/css">
	.st0{display:none;}
	.st1{display:inline;}
	.st2{fill:none;stroke:#000000;stroke-linejoin:round;stroke-miterlimit:10;}
</style>
<g id="Filled_Icons" class="st0">
	<path class="st1" d="M17.6,0c-2.2,0-4.5,1.1-5.6,3.4c-1.1-2.3-3.3-3.3-5.4-3.3C3.3,0.1,0,2.6,0,7.3c0,8.4,11.2,16.3,11.7,16.6
		C11.8,24,11.9,24,12,24c0.1,0,0.2,0,0.3-0.1C12.8,23.5,24,14.5,24,6.7C24,2.3,20.8,0,17.6,0z M12,7.6c1,0,1.7,0.8,1.7,1.7
		s-0.8,1.7-1.7,1.7c-1,0-1.7-0.8-1.7-1.7S11,7.6,12,7.6z M6.5,11.9c0-1,0.8-1.7,1.7-1.7s1.7,0.8,1.7,1.7c0,1-0.8,1.7-1.7,1.7
		S6.5,12.9,6.5,11.9z M15.3,17c-0.3,0.6-0.9,1-1.5,1h-3.6c-0.6,0-1.2-0.4-1.5-1c-0.3-0.6-0.2-1.3,0.1-1.8l1.8-2.5
		c0.6-0.9,2.1-0.9,2.7,0l1.8,2.5C15.6,15.8,15.6,16.5,15.3,17z M15.8,13.6c-1,0-1.7-0.8-1.7-1.7s0.8-1.7,1.7-1.7s1.7,0.8,1.7,1.7
		S16.7,13.6,15.8,13.6z"/>
</g>
<g id="Outline_Icons">
	<g>
		<g>
			<path class="st2" d="M12,23.5c0,0,11.5-9.1,11.5-16.8C23.5-1,13.1-1.5,12,5.1C10.9-1.5,0.5-1,0.5,7.3S12,23.5,12,23.5z"/>
		</g>
		<g>
			<path class="st2" d="M13,13c-0.2-0.3-0.6-0.5-1-0.5s-0.7,0.2-1,0.5l-1.8,2.5c-0.3,0.4-0.3,0.9-0.1,1.3c0.2,0.4,0.6,0.7,1.1,0.7
				h3.6c0.4,0,0.9-0.3,1.1-0.7c0.2-0.4,0.2-0.9-0.1-1.3L13,13z"/>
			<circle class="st2" cx="8.2" cy="11.9" r="1.2"/>
			<circle class="st2" cx="12" cy="9.4" r="1.2"/>
			<circle class="st2" cx="15.8" cy="11.9" r="1.2"/>
		</g>
	</g>
</g>
</svg>
