<?xml version="1.0" encoding="utf-8"?>
<!-- Generator: Adobe Illustrator 19.2.0, SVG Export Plug-In . SVG Version: 6.00 Build 0)  -->
<svg version="1.1" id="Layer_1" xmlns="http://www.w3.org/2000/svg" xmlns:xlink="http://www.w3.org/1999/xlink" x="0px" y="0px"
	 viewBox="0 0 24 24" style="enable-background:new 0 0 24 24;" xml:space="preserve">
<style type="text/css">
	.st0{display:none;}
	.st1{display:inline;}
	.st2{fill:none;stroke:#000000;stroke-linejoin:round;stroke-miterlimit:10;}
	.st3{fill:none;stroke:#000000;stroke-linecap:round;stroke-linejoin:round;stroke-miterlimit:10;}
</style>
<g id="Filled_Icons" class="st0">
	<path class="st1" d="M15,6.3V3.1C15.6,3.5,16.4,4,17,4c1.1,0,2-0.9,2-2s-0.9-2-2-2c-0.8,0-1.9,0.9-2.5,1.3C13.9,0.9,12.8,0,12,0
		c-1.1,0-2,0.9-2,2s0.9,2,2,2c0.6,0,1.4-0.5,2-0.9v2.9c-0.9-0.3-1.8-0.6-2.9-0.9c-0.3-0.1-0.6-0.1-0.9-0.1c-2.5,0-4.1,2.9-4.1,5.5
		c0,0.6,0.1,1.1,0.2,1.5c-1.1,0-3.4,0.3-4.6,1.4C1.2,13.8,1,14.3,1,15c0,1.8,2.4,2.2,4.8,2.7c2,0.4,4.2,0.8,4.2,1.8
		c0,2-4.8,3.3-6.5,3.5c-0.3,0-0.5,0.3-0.4,0.6c0,0.2,0.3,0.4,0.5,0.4c0,0,0.1,0,0.1,0c0.7-0.1,7.3-1.3,7.3-4.5c0-1.9-2.5-2.4-5-2.8
		c-1.9-0.4-4-0.8-4-1.7c0-0.4,0.1-0.7,0.4-0.9c0.9-0.9,3.2-1.1,4.2-1.1c0.7,1.3,2,2.1,3.8,2.1h9.8c1.6,0,2.7-0.8,2.9-2
		C23.2,12.1,22.9,9.2,15,6.3z M17,1c0.6,0,1,0.4,1,1s-0.5,1-1,1c-0.3,0-1.1-0.5-1.7-1C15.9,1.5,16.6,1,17,1z M12,3c-0.6,0-1-0.4-1-1
		s0.5-1,1-1c0.3,0,1.1,0.5,1.7,1C13.1,2.5,12.3,3,12,3z M18.5,12.5c-0.6,0-1-0.4-1-1s0.4-1,1-1c0.6,0,1,0.4,1,1S19.1,12.5,18.5,12.5
		z"/>
</g>
<g id="Outline_Icons">
	<g>
		<path class="st2" d="M20.2,14.5h-9.8c-6.3,0-4-10.3,0.6-9C25,9.5,23.9,14.5,20.2,14.5z"/>
		<line class="st2" x1="14.5" y1="2" x2="14.5" y2="6.6"/>
		<path class="st2" d="M18.5,2c0,0.8-0.7,1.5-1.5,1.5c-0.8,0-2.5-1.5-2.5-1.5s1.6-1.5,2.5-1.5C17.8,0.5,18.5,1.2,18.5,2z"/>
		<path class="st2" d="M10.5,2c0,0.8,0.7,1.5,1.5,1.5c0.8,0,2.5-1.5,2.5-1.5S12.9,0.5,12,0.5C11.2,0.5,10.5,1.2,10.5,2z"/>
		<circle class="st2" cx="18.5" cy="11.5" r="0.5"/>
		<path class="st3" d="M6.9,12.4c0,0-5.4-0.2-5.4,2.6c0,2.7,9,1.6,9,4.5s-6.9,4-6.9,4"/>
	</g>
</g>
</svg>
