<?xml version="1.0" encoding="utf-8"?>
<!-- Generator: Adobe Illustrator 19.2.0, SVG Export Plug-In . SVG Version: 6.00 Build 0)  -->
<svg version="1.1" id="Layer_1" xmlns="http://www.w3.org/2000/svg" xmlns:xlink="http://www.w3.org/1999/xlink" x="0px" y="0px"
	 viewBox="0 0 24 24" style="enable-background:new 0 0 24 24;" xml:space="preserve">
<style type="text/css">
	.st0{display:none;}
	.st1{display:inline;}
	.st2{fill:none;stroke:#000000;stroke-linecap:round;stroke-linejoin:round;stroke-miterlimit:10;}
</style>
<g id="Filled_Icons" class="st0">
	<g class="st1">
		<path d="M17,0c-3.3,0-6,2.7-6,6c0,3.3,2.7,6,6,6c3.3,0,6-2.7,6-6C23,2.7,20.3,0,17,0z M19,7h-2.5C16.2,7,16,6.8,16,6.5V3
			c0-0.3,0.2-0.5,0.5-0.5C16.8,2.5,17,2.7,17,3v3h2c0.3,0,0.5,0.2,0.5,0.5C19.5,6.8,19.3,7,19,7z"/>
		<path d="M17.2,16.2c-0.9-0.9-2.6-0.9-3.5,0l-0.4,0.4c-2.1-1.7-4.1-3.7-5.8-5.8l0.4-0.4c1-1,1-2.6,0-3.5L5.7,4.7
			c-0.9-0.9-2.6-0.9-3.5,0L1,5.9c-1.2,1.2-1.4,3-0.4,4.4c3.4,5.2,8,9.7,13.1,13.1c0.6,0.4,1.2,0.6,1.9,0.6c0.9,0,1.8-0.4,2.5-1
			l1.2-1.2c1-1,1-2.6,0-3.5L17.2,16.2z"/>
	</g>
</g>
<g id="Outline_Icons">
	<g>
		<path class="st2" d="M7.5,10c0.8-0.8,0.8-2,0-2.8L5.4,5.1c-0.8-0.8-2-0.8-2.8,0L1.4,6.2c-1,1-1.2,2.6-0.4,3.8
			c3.4,5.1,7.9,9.6,13,13c1.2,0.8,2.8,0.6,3.8-0.4l1.2-1.2c0.8-0.8,0.8-2,0-2.8l-2.1-2.1c-0.8-0.8-2-0.8-2.8,0l-0.7,0.7
			C11,15.3,8.7,13,6.8,10.7L7.5,10z"/>
		<circle class="st2" cx="17" cy="6" r="5.5"/>
		<polyline class="st2" points="16.5,3 16.5,6.5 19,6.5 		"/>
	</g>
</g>
</svg>
