<?xml version="1.0" encoding="utf-8"?>
<!-- Generator: Adobe Illustrator 19.2.0, SVG Export Plug-In . SVG Version: 6.00 Build 0)  -->
<svg version="1.1" id="Outline_Icons" xmlns="http://www.w3.org/2000/svg" xmlns:xlink="http://www.w3.org/1999/xlink" x="0px"
	 y="0px" viewBox="0 0 24 24" style="enable-background:new 0 0 24 24;" xml:space="preserve">
<style type="text/css">
	.st0{fill:none;stroke:#000000;stroke-linecap:round;stroke-linejoin:round;stroke-miterlimit:10;}
</style>
<g>
	<g>
		<g>
			<path class="st0" d="M7.5,10c0.8-0.8,0.8-2,0-2.8L5.4,5.1c-0.8-0.8-2-0.8-2.8,0L1.4,6.2c-1,1-1.2,2.6-0.4,3.8
				c3.4,5.1,7.9,9.6,13,13c1.2,0.8,2.8,0.6,3.8-0.4l1.2-1.2c0.8-0.8,0.8-2,0-2.8l-2.1-2.1c-0.8-0.8-2-0.8-2.8,0l-0.7,0.7
				C11,15.3,8.7,13,6.8,10.7L7.5,10z"/>
		</g>
	</g>
	<polyline class="st0" points="20.5,9.5 20.5,3.8 17.4,7.6 21.5,7.6 	"/>
	<path class="st0" d="M12.4,5.1c0-0.8,0.7-1.4,1.4-1.4c0.8,0,1.4,0.6,1.4,1.4c0,0.4-0.2,0.7-0.3,0.8l-2.6,3.5h2.9"/>
</g>
</svg>
