<?xml version="1.0" encoding="utf-8"?>
<!-- Generator: Adobe Illustrator 19.2.0, SVG Export Plug-In . SVG Version: 6.00 Build 0)  -->
<svg version="1.1" id="Layer_1" xmlns="http://www.w3.org/2000/svg" xmlns:xlink="http://www.w3.org/1999/xlink" x="0px" y="0px"
	 viewBox="0 0 24 24" style="enable-background:new 0 0 24 24;" xml:space="preserve">
<style type="text/css">
	.st0{display:none;}
	.st1{display:inline;}
	.st2{fill:none;stroke:#000000;stroke-linecap:round;stroke-linejoin:round;stroke-miterlimit:10;}
</style>
<g id="Filled_Icons" class="st0">
	<g class="st1">
		<path d="M17.5,15.6c0-0.2-0.1-0.4-0.2-0.5L16,13.7c-0.2-0.2-0.3-0.2-0.5-0.2c-0.2,0-0.5,0.1-0.7,0.3l-0.5,0.5
			c-0.2,0.2-0.5,0.2-0.7,0c-1.5-1.2-2.9-2.6-4.1-4.1c-0.2-0.2-0.1-0.5,0-0.7l0.5-0.5c0.2-0.2,0.3-0.4,0.3-0.6c0-0.2-0.1-0.4-0.2-0.5
			L8.9,6.7C8.8,6.5,8.6,6.5,8.4,6.5C8.2,6.5,8,6.6,7.8,6.8L7,7.6C6.5,8.1,6.3,8.9,6.7,9.4c2,3.2,4.7,5.9,7.9,7.9
			c0.5,0.3,1.3,0.2,1.8-0.3l0.3-0.3c0,0,0,0,0,0c0,0,0,0,0,0l0.5-0.5C17.4,16,17.5,15.8,17.5,15.6z"/>
		<path d="M12,0C5.4,0,0,5.4,0,12c0,6.6,5.4,12,12,12c6.6,0,12-5.4,12-12C24,5.4,18.6,0,12,0z M20.4,17.8c-0.2,0.2-0.5,0.3-0.7,0.1
			c-0.2-0.2-0.3-0.5-0.1-0.7c1.1-1.5,1.6-3.3,1.6-5.2c0-5.1-4.1-9.2-9.2-9.2c-5.1,0-9.2,4.1-9.2,9.2c0,5.1,4.1,9.2,9.2,9.2
			c2.4,0,4-0.6,4.6-1.8c0.3-0.5,0.3-1.1,0.3-1.5c-0.5,0.4-1,0.6-1.6,0.6c-0.4,0-0.9-0.1-1.2-0.3c-3.3-2.1-6.1-4.9-8.2-8.2
			C5.3,9,5.4,7.7,6.3,6.9l0.8-0.8C7.8,5.4,9,5.3,9.6,6l1.3,1.3c0.3,0.3,0.5,0.8,0.5,1.3c0,0.5-0.2,0.9-0.6,1.3L10.7,10
			c1,1.2,2.1,2.3,3.3,3.3l0.2-0.2c0.7-0.7,1.9-0.7,2.5-0.1l1.3,1.3c0.3,0.3,0.5,0.8,0.5,1.3c0,0.5-0.2,0.9-0.6,1.3l-0.2,0.2
			c0.2,0.6,0.3,1.6-0.1,2.5c-0.5,1.2-1.9,2.6-5.6,2.6C6.4,22.2,1.8,17.6,1.8,12C1.8,6.4,6.4,1.8,12,1.8c5.6,0,10.2,4.6,10.2,10.2
			C22.2,14.1,21.6,16.1,20.4,17.8z"/>
	</g>
</g>
<g id="Outline_Icons">
	<g>
		<path class="st2" d="M10.2,9c0.6-0.6,0.7-1.6,0.1-2.2L8.8,5.3C8.2,4.7,7.2,4.8,6.6,5.4L5.7,6.4c-0.8,0.8-1,2-0.4,2.9
			c2.4,3.8,5.7,7.1,9.5,9.5c0.9,0.6,2.1,0.4,2.9-0.4l0.9-0.9c0.6-0.6,0.7-1.6,0.1-2.2l-1.5-1.5c-0.6-0.6-1.5-0.5-2.2,0.1l-0.6,0.6
			c-1.7-1.4-3.4-3-4.7-4.7L10.2,9z"/>
		<path class="st2" d="M18,18c0.5,0.5,1.6,5.5-6,5.5C5.6,23.5,0.5,18.4,0.5,12C0.5,5.6,5.6,0.5,12,0.5c6.4,0,11.5,5.1,11.5,11.5
			c0,2.4-0.7,4.7-2,6.5"/>
	</g>
</g>
</svg>
