<?xml version="1.0" encoding="utf-8"?>
<!-- Generator: Adobe Illustrator 19.2.0, SVG Export Plug-In . SVG Version: 6.00 Build 0)  -->
<svg version="1.1" id="Layer_1" xmlns="http://www.w3.org/2000/svg" xmlns:xlink="http://www.w3.org/1999/xlink" x="0px" y="0px"
	 viewBox="0 0 24 24" style="enable-background:new 0 0 24 24;" xml:space="preserve">
<style type="text/css">
	.st0{display:none;}
	.st1{display:inline;}
	.st2{fill:none;stroke:#000000;stroke-linecap:round;stroke-linejoin:round;stroke-miterlimit:10;}
</style>
<g id="Filled_Icons" class="st0">
	<g class="st1">
		<path d="M8.3,13c-1.1-1.3-2.1-2.6-3-3.9C4.6,8,4.8,6.5,5.8,5.5l0.9-0.9c0.4-0.4,1-0.7,1.5-0.7c0.5,0,1,0.2,1.3,0.5L11.2,6
			c0.8,0.8,0.7,2.1-0.1,2.9l-0.3,0.3c0.2,0.2,0.4,0.5,0.6,0.7l1,1l7.7-7.7C18,1.2,15.1,0,12,0C5.4,0,0,5.4,0,12c0,3.1,1.2,6,3.2,8.1
			L9.3,14L8.3,13z"/>
		<path d="M20.8,3.9l-7.7,7.7l1,1c0.2,0.2,0.5,0.4,0.7,0.6l0.3-0.3c0.4-0.4,1-0.7,1.5-0.7c0.5,0,1,0.2,1.3,0.5l1.5,1.5
			c0.4,0.4,0.6,0.9,0.5,1.4c0,0.5-0.3,1-0.7,1.4l-0.9,0.9c-0.6,0.6-1.4,0.9-2.1,0.9c-0.5,0-1-0.1-1.4-0.4c-1.4-0.9-2.7-1.9-3.9-2.9
			l-1-1l-6.1,6.1c2.1,2,5,3.2,8.1,3.2c6.6,0,12-5.4,12-12C24,8.9,22.8,6,20.8,3.9z"/>
	</g>
</g>
<g id="Outline_Icons">
	<g>
		<path class="st2" d="M11.1,10.2c-0.3-0.4-0.6-0.7-0.9-1.1l0.6-0.6c0.6-0.6,0.7-1.6,0.1-2.2L9.3,4.8C8.7,4.2,7.7,4.3,7.1,4.9
			L6.2,5.9c-0.8,0.8-1,2-0.4,2.9c0.9,1.4,1.8,2.7,2.9,3.9"/>
		<path class="st2" d="M11.4,15.4c1.2,1.1,2.5,2,3.9,2.9c0.9,0.6,2.1,0.4,2.9-0.4l0.9-0.9c0.6-0.6,0.7-1.6,0.1-2.2l-1.5-1.5
			c-0.6-0.6-1.5-0.5-2.2,0.1l-0.6,0.6c-0.4-0.3-0.7-0.6-1.1-0.9"/>
		<circle class="st2" cx="12" cy="12" r="11.5"/>
		<line class="st2" x1="20.1" y1="3.9" x2="3.9" y2="20.1"/>
	</g>
</g>
</svg>
