<?xml version="1.0" encoding="utf-8"?>
<!-- Generator: Adobe Illustrator 19.2.0, SVG Export Plug-In . SVG Version: 6.00 Build 0)  -->
<svg version="1.1" id="Layer_1" xmlns="http://www.w3.org/2000/svg" xmlns:xlink="http://www.w3.org/1999/xlink" x="0px" y="0px"
	 viewBox="0 0 24 24" style="enable-background:new 0 0 24 24;" xml:space="preserve">
<style type="text/css">
	.st0{display:none;}
	.st1{display:inline;}
	.st2{fill:none;stroke:#000000;stroke-linecap:round;stroke-linejoin:round;stroke-miterlimit:10;}
</style>
<g id="Filled_Icons" class="st0">
	<g class="st1">
		<path d="M17.2,16.2c-0.5-0.5-1.1-0.7-1.8-0.7c-0.7,0-1.3,0.3-1.8,0.7l-0.4,0.4c-2.1-1.7-4.1-3.7-5.8-5.8l0.4-0.4c1-1,1-2.6,0-3.5
			L5.7,4.7C5.3,4.2,4.6,4,4,4C3.3,4,2.7,4.2,2.2,4.7L1,5.9c-1.2,1.2-1.4,3-0.4,4.4c3.4,5.2,8,9.7,13.1,13.1c0.6,0.4,1.2,0.6,1.9,0.6
			c0.9,0,1.8-0.4,2.5-1l1.2-1.2c1-1,1-2.6,0-3.5L17.2,16.2z"/>
		<path d="M24,0.4C24,0.4,24,0.3,24,0.4c-0.1-0.2-0.2-0.3-0.3-0.4c0,0,0,0,0,0c-0.1,0-0.1,0-0.2,0H17c-0.3,0-0.5,0.2-0.5,0.5
			C16.5,0.8,16.7,1,17,1h5.3l-9.1,9.1c-0.2,0.2-0.2,0.5,0,0.7c0.1,0.1,0.2,0.1,0.4,0.1c0.1,0,0.3,0,0.4-0.1L23,1.7V7
			c0,0.3,0.2,0.5,0.5,0.5C23.8,7.5,24,7.3,24,7V0.5C24,0.5,24,0.4,24,0.4z"/>
	</g>
</g>
<g id="Outline_Icons">
	<g>
		<path class="st2" d="M7.5,10c0.8-0.8,0.8-2,0-2.8L5.4,5.1c-0.8-0.8-2-0.8-2.8,0L1.4,6.2c-1,1-1.2,2.6-0.4,3.8
			c3.4,5.1,7.9,9.6,13,13c1.2,0.8,2.8,0.6,3.8-0.4l1.2-1.2c0.8-0.8,0.8-2,0-2.8l-2.1-2.1c-0.8-0.8-2-0.8-2.8,0l-0.7,0.7
			C11,15.3,8.7,13,6.8,10.7L7.5,10z"/>
		<line class="st2" x1="23.5" y1="0.5" x2="13.5" y2="10.5"/>
		<polyline class="st2" points="17,0.5 23.5,0.5 23.5,7 		"/>
	</g>
</g>
</svg>
