<?xml version="1.0" encoding="utf-8"?>
<!-- Generator: Adobe Illustrator 19.2.0, SVG Export Plug-In . SVG Version: 6.00 Build 0)  -->
<svg version="1.1" id="Layer_1" xmlns="http://www.w3.org/2000/svg" xmlns:xlink="http://www.w3.org/1999/xlink" x="0px" y="0px"
	 viewBox="0 0 24 24" style="enable-background:new 0 0 24 24;" xml:space="preserve">
<style type="text/css">
	.st0{display:none;}
	.st1{display:inline;}
	.st2{fill:none;stroke:#000000;stroke-linecap:round;stroke-linejoin:round;stroke-miterlimit:10;}
	.st3{fill:none;stroke:#000000;stroke-linejoin:round;stroke-miterlimit:10;}
</style>
<g id="Filled_Icons" class="st0">
	<g class="st1">
		<path d="M22,0H10C8.9,0,8,0.9,8,2v6c0,1.1,0.9,2,2,2h3v2.5c0,0.2,0.1,0.4,0.3,0.5c0.1,0,0.1,0,0.2,0c0.1,0,0.3-0.1,0.4-0.1
			l2.9-2.9H22c1.1,0,2-0.9,2-2V2C24,0.9,23.1,0,22,0z M16.3,7.9C16.2,8,16.1,8,16,8c-0.1,0-0.2,0-0.3-0.1c-0.3-0.2-3-2.2-3-3.9
			c0-1.3,0.9-2,1.9-2c0.5,0,1,0.2,1.4,0.7C16.4,2.2,16.9,2,17.4,2c0.9,0,1.9,0.8,1.9,2C19.2,5.7,16.6,7.7,16.3,7.9z"/>
		<g>
			<path d="M7,8V7H4.5C4.2,7,4,6.8,4,6.5S4.2,6,4.5,6H7V4H6H2.5C1.1,4,0,5.1,0,6.5V8H7z"/>
			<path d="M12,11h-2c-1.3,0-2.4-0.8-2.8-2H0v5.5V19h12V11z"/>
			<path d="M0,20v1.5C0,22.9,1.1,24,2.5,24h7c1.4,0,2.5-1.1,2.5-2.5V20H0z M6,22.5c-0.6,0-1-0.4-1-1c0-0.6,0.4-1,1-1s1,0.4,1,1
				C7,22.1,6.6,22.5,6,22.5z"/>
		</g>
	</g>
</g>
<g id="Outline_Icons">
	<g>
		<path class="st2" d="M11.5,14.5v7c0,1.1-0.9,2-2,2h-7c-1.1,0-2-0.9-2-2v-15c0-1.1,0.9-2,2-2h3"/>
		<line class="st2" x1="5.5" y1="8.5" x2="0.5" y2="8.5"/>
		<line class="st2" x1="11.5" y1="19.5" x2="0.5" y2="19.5"/>
		<line class="st2" x1="4.5" y1="6.5" x2="5.5" y2="6.5"/>
		<path class="st2" d="M23.5,8c0,0.8-0.7,1.5-1.5,1.5h-5.5l-3,3v-3H10C9.2,9.5,8.5,8.8,8.5,8V2c0-0.8,0.7-1.5,1.5-1.5h12
			c0.8,0,1.5,0.7,1.5,1.5V8z"/>
		<path class="st3" d="M16,7.5c0,0,2.8-2,2.8-3.5c0-1.7-2.2-2.2-2.8-0.2c-0.5-2.1-2.8-1.5-2.8,0.2C13.2,5.5,16,7.5,16,7.5z"/>
		<circle class="st3" cx="6" cy="21.5" r="0.5"/>
	</g>
</g>
</svg>
