<?xml version="1.0" encoding="utf-8"?>
<!-- Generator: Adobe Illustrator 19.2.0, SVG Export Plug-In . SVG Version: 6.00 Build 0)  -->
<svg version="1.1" id="Layer_1" xmlns="http://www.w3.org/2000/svg" xmlns:xlink="http://www.w3.org/1999/xlink" x="0px" y="0px"
	 viewBox="0 0 24 24" style="enable-background:new 0 0 24 24;" xml:space="preserve">
<style type="text/css">
	.st0{display:none;}
	.st1{display:inline;}
	.st2{fill:none;stroke:#000000;stroke-linecap:round;stroke-linejoin:round;stroke-miterlimit:10;}
</style>
<g id="Filled_Icons" class="st0">
	<g class="st1">
		<path d="M3.5,21h-3C0.2,21,0,21.2,0,21.5C0,21.8,0.2,22,0.5,22h3C3.8,22,4,21.8,4,21.5C4,21.2,3.8,21,3.5,21z"/>
		<path d="M8.5,21h-3C5.2,21,5,21.2,5,21.5C5,21.8,5.2,22,5.5,22h3C8.8,22,9,21.8,9,21.5C9,21.2,8.8,21,8.5,21z"/>
		<path d="M13.5,21h-3c-0.3,0-0.5,0.2-0.5,0.5c0,0.3,0.2,0.5,0.5,0.5h3c0.3,0,0.5-0.2,0.5-0.5C14,21.2,13.8,21,13.5,21z"/>
		<path d="M18.5,21h-3c-0.3,0-0.5,0.2-0.5,0.5c0,0.3,0.2,0.5,0.5,0.5h3c0.3,0,0.5-0.2,0.5-0.5C19,21.2,18.8,21,18.5,21z"/>
		<path d="M23.5,21h-3c-0.3,0-0.5,0.2-0.5,0.5c0,0.3,0.2,0.5,0.5,0.5h3c0.3,0,0.5-0.2,0.5-0.5C24,21.2,23.8,21,23.5,21z"/>
	</g>
</g>
<g id="Outline_Icons">
	<g>
		<line class="st2" x1="0.5" y1="21.5" x2="3.5" y2="21.5"/>
		<line class="st2" x1="5.5" y1="21.5" x2="8.5" y2="21.5"/>
		<line class="st2" x1="10.5" y1="21.5" x2="13.5" y2="21.5"/>
		<line class="st2" x1="15.5" y1="21.5" x2="18.5" y2="21.5"/>
		<line class="st2" x1="20.5" y1="21.5" x2="23.5" y2="21.5"/>
	</g>
</g>
</svg>
