<?xml version="1.0" encoding="utf-8"?>
<!-- Generator: Adobe Illustrator 19.2.0, SVG Export Plug-In . SVG Version: 6.00 Build 0)  -->
<svg version="1.1" id="Layer_1" xmlns="http://www.w3.org/2000/svg" xmlns:xlink="http://www.w3.org/1999/xlink" x="0px" y="0px"
	 viewBox="0 0 24 24" style="enable-background:new 0 0 24 24;" xml:space="preserve">
<style type="text/css">
	.st0{display:none;}
	.st1{display:inline;}
	.st2{fill:none;stroke:#000000;stroke-linecap:round;stroke-linejoin:round;stroke-miterlimit:10;}
	.st3{fill:none;stroke:#000000;stroke-linejoin:round;stroke-miterlimit:10;}
</style>
<g id="Filled_Icons" class="st0">
	<g class="st1">
		<path d="M17.2,16.2c-0.9-0.9-2.6-0.9-3.5,0l-0.4,0.4c-2.1-1.7-4.1-3.7-5.8-5.8l0.4-0.4c1-1,1-2.6,0-3.5L5.7,4.7
			c-0.9-0.9-2.6-0.9-3.5,0L1,5.9c-1.2,1.2-1.4,3-0.4,4.4c3.4,5.2,8,9.7,13.1,13.1c0.6,0.4,1.2,0.6,1.9,0.6c0.9,0,1.8-0.4,2.5-1
			l1.2-1.2c0.5-0.5,0.7-1.1,0.7-1.8c0-0.7-0.3-1.3-0.7-1.8L17.2,16.2z"/>
		<path d="M23.5,4H22V3.5C22,1.6,20.4,0,18.5,0C16.6,0,15,1.6,15,3.5V4h-1.5C13.2,4,13,4.2,13,4.5v8c0,0.3,0.2,0.5,0.5,0.5h10
			c0.3,0,0.5-0.2,0.5-0.5v-8C24,4.2,23.8,4,23.5,4z M16,3.5C16,2.1,17.1,1,18.5,1C19.9,1,21,2.1,21,3.5V4h-5V3.5z M19,8.1V10
			c0,0.3-0.2,0.5-0.5,0.5c-0.3,0-0.5-0.2-0.5-0.5V8.1c-0.3-0.2-0.5-0.5-0.5-0.8c0-0.6,0.4-1,1-1s1,0.4,1,1C19.5,7.7,19.3,8,19,8.1z"
			/>
	</g>
</g>
<g id="Outline_Icons">
	<g>
		<g>
			<g>
				<path class="st2" d="M7.5,10c0.8-0.8,0.8-2,0-2.8L5.4,5.1c-0.8-0.8-2-0.8-2.8,0L1.4,6.2c-1,1-1.2,2.6-0.4,3.8
					c3.4,5.1,7.9,9.6,13,13c1.2,0.8,2.8,0.6,3.8-0.4l1.2-1.2c0.8-0.8,0.8-2,0-2.8l-2.1-2.1c-0.8-0.8-2-0.8-2.8,0l-0.7,0.7
					C11,15.3,8.7,13,6.8,10.7L7.5,10z"/>
			</g>
		</g>
		<g>
			<rect x="13.5" y="4.5" class="st2" width="10" height="8"/>
			<line class="st2" x1="18.5" y1="10" x2="18.5" y2="7.8"/>
			<path class="st2" d="M15.5,4.5v-1c0-1.7,1.3-3,3-3c1.7,0,3,1.3,3,3v1"/>
			<path class="st3" d="M19,7.3c0,0.3-0.2,0.5-0.5,0.5l0,0c-0.3,0-0.5-0.2-0.5-0.5l0,0c0-0.3,0.2-0.5,0.5-0.5l0,0
				C18.8,6.8,19,7,19,7.3L19,7.3z"/>
		</g>
	</g>
</g>
</svg>
