<?xml version="1.0" encoding="utf-8"?>
<!-- Generator: Adobe Illustrator 19.2.0, SVG Export Plug-In . SVG Version: 6.00 Build 0)  -->
<svg version="1.1" id="Layer_1" xmlns="http://www.w3.org/2000/svg" xmlns:xlink="http://www.w3.org/1999/xlink" x="0px" y="0px"
	 viewBox="0 0 24 24" style="enable-background:new 0 0 24 24;" xml:space="preserve">
<style type="text/css">
	.st0{display:none;}
	.st1{display:inline;}
	.st2{fill:none;stroke:#000000;stroke-linecap:round;stroke-linejoin:round;stroke-miterlimit:10;}
</style>
<g id="Filled_Icons" class="st0">
	<g class="st1">
		<path d="M7.5,12.5l0.9,0.9l3.7-3.7l-0.9-0.9c-0.3-0.3-0.6-0.7-0.8-1l0.4-0.4c1-1,1-2.6,0-3.5L8.7,1.7C8.2,1.2,7.6,1,6.9,1
			C6.3,1,5.6,1.2,5.2,1.7L4,2.9c-1.2,1.2-1.4,3-0.4,4.4C4.8,9.1,6.1,10.8,7.5,12.5z"/>
		<path d="M20.2,13.2c-0.5-0.5-1.1-0.7-1.8-0.7c-0.7,0-1.3,0.3-1.8,0.7l-0.4,0.4c-0.3-0.3-0.7-0.6-1-0.8l-0.9-0.9l-3.7,3.7l1,1
			c1.6,1.4,3.4,2.8,5.1,4c0.6,0.4,1.2,0.6,1.9,0.6c0.9,0,1.8-0.4,2.5-1l1.2-1.2c1-1,1-2.6,0-3.5L20.2,13.2z"/>
		<path d="M23.9,0.1c-0.2-0.2-0.5-0.2-0.7,0L12.9,10.4l0,0l-3.7,3.7l0,0l-9,9c-0.2,0.2-0.2,0.5,0,0.7c0,0,0,0,0,0
			c0.2,0.2,0.5,0.2,0.7,0c0,0,0,0,0,0l9-9l0,0l3.7-3.7l0,0L23.9,0.9C24,0.7,24,0.3,23.9,0.1z"/>
	</g>
</g>
<g id="Outline_Icons">
	<g>
		<path class="st2" d="M11.9,16.1c1.6,1.4,3.3,2.7,5.1,3.9c1.2,0.8,2.8,0.6,3.8-0.4l1.2-1.2c0.8-0.8,0.8-2,0-2.8l-2.1-2.1
			c-0.8-0.8-2-0.8-2.8,0l-0.7,0.7c-0.5-0.4-0.9-0.8-1.3-1.1"/>
		<path class="st2" d="M10.9,9.1c-0.4-0.4-0.8-0.9-1.1-1.3L10.5,7c0.8-0.8,0.8-2,0-2.8L8.4,2.1c-0.8-0.8-2-0.8-2.8,0L4.4,3.2
			C3.4,4.2,3.2,5.8,4,7c1.2,1.8,2.5,3.5,3.9,5.1"/>
		<line class="st2" x1="23.5" y1="0.5" x2="0.5" y2="23.5"/>
	</g>
</g>
</svg>
