<?xml version="1.0" encoding="utf-8"?>
<!-- Generator: Adobe Illustrator 19.2.0, SVG Export Plug-In . SVG Version: 6.00 Build 0)  -->
<svg version="1.1" id="Layer_1" xmlns="http://www.w3.org/2000/svg" xmlns:xlink="http://www.w3.org/1999/xlink" x="0px" y="0px"
	 viewBox="0 0 24 24" style="enable-background:new 0 0 24 24;" xml:space="preserve">
<style type="text/css">
	.st0{display:none;}
	.st1{display:inline;}
	.st2{fill:none;stroke:#000000;stroke-linecap:round;stroke-linejoin:round;stroke-miterlimit:10;}
</style>
<g id="Filled_Icons" class="st0">
	<path class="st1" d="M22,17.7l-2.5-2.5c-0.5-0.5-1.1-0.8-1.8-0.8c-0.7,0-1.3,0.3-1.8,0.8l-0.7,0.7c-2.6-2.1-5-4.6-7.2-7.2l0.7-0.7
		c1-1,1-2.6,0-3.6L6.3,2C5.8,1.5,5.2,1.2,4.5,1.2C3.8,1.2,3.2,1.5,2.7,2L1.3,3.3C0.1,4.6-0.1,6.6,0.9,8C4.8,14,10,19.2,16,23.1
		c0.6,0.4,1.3,0.6,2.1,0.6c1,0,1.9-0.4,2.6-1.1l1.3-1.3c0.5-0.5,0.8-1.1,0.8-1.8C22.7,18.8,22.5,18.2,22,17.7z"/>
</g>
<g id="Outline_Icons">
	<g>
		<path class="st2" d="M8.6,7.9c0.9-0.9,0.9-2.4,0-3.3L6.1,2.2c-0.9-0.9-2.4-0.9-3.3,0L1.5,3.5c-1.2,1.2-1.3,3-0.4,4.4
			c3.9,5.9,9.1,11.1,15,15c1.4,0.9,3.2,0.7,4.4-0.4l1.3-1.3c0.9-0.9,0.9-2.4,0-3.3l-2.5-2.5c-0.9-0.9-2.4-0.9-3.3,0l-0.8,0.8
			C12.6,14,10,11.4,7.8,8.7L8.6,7.9z"/>
	</g>
</g>
</svg>
