<?xml version="1.0" encoding="utf-8"?>
<!-- Generator: Adobe Illustrator 19.2.0, SVG Export Plug-In . SVG Version: 6.00 Build 0)  -->
<svg version="1.1" id="Layer_1" xmlns="http://www.w3.org/2000/svg" xmlns:xlink="http://www.w3.org/1999/xlink" x="0px" y="0px"
	 viewBox="0 0 24 24" style="enable-background:new 0 0 24 24;" xml:space="preserve">
<style type="text/css">
	.st0{display:none;}
	.st1{display:inline;}
	.st2{fill:none;stroke:#000000;stroke-linecap:round;stroke-linejoin:round;stroke-miterlimit:10;}
</style>
<g id="Filled_Icons" class="st0">
	<path class="st1" d="M23.5,23H19V5.5C19,5.2,18.8,5,18.5,5H18V2.5C18,0.7,14.8,0,12,0C9.2,0,6,0.7,6,2.5V5H5.5C5.2,5,5,5.2,5,5.5
		V23H0.5C0.2,23,0,23.2,0,23.5C0,23.8,0.2,24,0.5,24h5h13h5c0.3,0,0.5-0.2,0.5-0.5C24,23.2,23.8,23,23.5,23z M16,15v2h-2v-2H16z
		 M14,14v-2h2v2H14z M16,11h-2V9h2V11z M8,3.5C8,3.2,8.2,3,8.5,3h7C15.8,3,16,3.2,16,3.5V5H8V3.5z M11,14v-2h2v2H11z M13,15v2h-2v-2
		H13z M11,11V9h2v2H11z M8,14v-2h2v2H8z M10,15v2H8v-2H10z M8,11V9h2v2H8z M8,23v-5h2h1h2h1h2v5H8z"/>
</g>
<g id="Outline_Icons">
	<g>
		<line class="st2" x1="0.5" y1="23.5" x2="23.5" y2="23.5"/>
		<rect x="5.5" y="5.5" class="st2" width="13" height="18"/>
		<rect x="8.5" y="3.5" class="st2" width="7" height="2"/>
		<path class="st2" d="M17.5,2.5c0-2.7-11-2.7-11,0v3h11V2.5z"/>
		<rect x="7.5" y="8.5" class="st2" width="9" height="15"/>
		<line class="st2" x1="7.5" y1="11.5" x2="16.5" y2="11.5"/>
		<line class="st2" x1="7.5" y1="14.5" x2="16.5" y2="14.5"/>
		<line class="st2" x1="7.5" y1="17.5" x2="16.5" y2="17.5"/>
		<line class="st2" x1="10.5" y1="8.5" x2="10.5" y2="17.5"/>
		<line class="st2" x1="13.5" y1="8.5" x2="13.5" y2="17.5"/>
	</g>
</g>
</svg>
