<?xml version="1.0" encoding="utf-8"?>
<!-- Generator: Adobe Illustrator 19.2.0, SVG Export Plug-In . SVG Version: 6.00 Build 0)  -->
<svg version="1.1" id="Layer_1" xmlns="http://www.w3.org/2000/svg" xmlns:xlink="http://www.w3.org/1999/xlink" x="0px" y="0px"
	 viewBox="0 0 24 24" style="enable-background:new 0 0 24 24;" xml:space="preserve">
<style type="text/css">
	.st0{display:none;}
	.st1{display:inline;}
	.st2{fill:none;stroke:#000000;stroke-linecap:round;stroke-linejoin:round;stroke-miterlimit:10;}
</style>
<g id="Filled_Icons" class="st0">
	<path class="st1" d="M18.5,7c-3,0-5.5,2.5-5.5,5.5c0,1.3,0.5,2.5,1.3,3.5H9.7c0.8-1,1.3-2.2,1.3-3.5C11,9.5,8.5,7,5.5,7
		C2.5,7,0,9.5,0,12.5c0,3,2.5,5.5,5.5,5.5h13c3,0,5.5-2.5,5.5-5.5C24,9.5,21.5,7,18.5,7z M5.5,16C3.6,16,2,14.4,2,12.5
		C2,10.6,3.6,9,5.5,9C7.4,9,9,10.6,9,12.5C9,14.4,7.4,16,5.5,16z M18.5,16c-1.9,0-3.5-1.6-3.5-3.5c0-1.9,1.6-3.5,3.5-3.5
		c1.9,0,3.5,1.6,3.5,3.5C22,14.4,20.4,16,18.5,16z"/>
</g>
<g id="Outline_Icons">
	<g>
		<circle class="st2" cx="5.5" cy="12.5" r="5"/>
		<circle class="st2" cx="18.5" cy="12.5" r="5"/>
		<line class="st2" x1="18.5" y1="17.5" x2="5.5" y2="17.5"/>
	</g>
</g>
</svg>
