<?xml version="1.0" encoding="utf-8"?>
<!-- Generator: Adobe Illustrator 19.2.0, SVG Export Plug-In . SVG Version: 6.00 Build 0)  -->
<svg version="1.1" id="Layer_1" xmlns="http://www.w3.org/2000/svg" xmlns:xlink="http://www.w3.org/1999/xlink" x="0px" y="0px"
	 viewBox="0 0 24 24" style="enable-background:new 0 0 24 24;" xml:space="preserve">
<style type="text/css">
	.st0{display:none;}
	.st1{display:inline;}
	.st2{fill:none;stroke:#000000;stroke-linecap:round;stroke-linejoin:round;stroke-miterlimit:10;}
</style>
<g id="Filled_Icons" class="st0">
	<g class="st1">
		<path d="M3,2.5C3,1.7,3.7,1,4.5,1h17C21.8,1,22,0.8,22,0.5C22,0.2,21.8,0,21.5,0h-17C3.1,0,2,1.1,2,2.5c0,0.1,0,0.2,0,0.3
			c0,0,0,0.1,0,0.2v3.5h1.5c0.6,0,1,0.4,1,1c0,0.6-0.4,1-1,1H2v1h1.5c0.6,0,1,0.4,1,1c0,0.6-0.4,1-1,1H2v1h1.5c0.6,0,1,0.4,1,1
			c0,0.6-0.4,1-1,1H2v1h1.5c0.6,0,1,0.4,1,1c0,0.6-0.4,1-1,1H2v1h1.5c0.6,0,1,0.4,1,1c0,0.6-0.4,1-1,1H2v1C2,22.9,3.1,24,4.5,24H22
			V4H4.5C3.7,4,3,3.3,3,2.5z M6.7,8.4l0.7-0.7C8.1,7,9.3,7,9.9,7.7L11.3,9c0.3,0.3,0.5,0.8,0.5,1.2c0,0.5-0.2,0.9-0.5,1.2l-0.1,0.1
			c1,1.2,2.2,2.4,3.4,3.4l0.1-0.1c0.7-0.7,1.8-0.7,2.5,0l1.3,1.3c0.3,0.3,0.5,0.8,0.5,1.2c0,0.5-0.2,0.9-0.5,1.2l-0.7,0.7
			c-0.5,0.4-1.1,0.7-1.7,0.7c-0.5,0-0.9-0.1-1.3-0.4c-3.3-2.2-6.2-5.1-8.3-8.3C5.8,10.5,5.9,9.2,6.7,8.4z"/>
		<path d="M4.5,2C4.2,2,4,2.2,4,2.5C4,2.8,4.2,3,4.5,3h16C20.8,3,21,2.8,21,2.5C21,2.2,20.8,2,20.5,2H4.5z"/>
		<path d="M1.5,8h2C3.8,8,4,7.8,4,7.5C4,7.2,3.8,7,3.5,7h-2C1.2,7,1,7.2,1,7.5C1,7.8,1.2,8,1.5,8z"/>
		<path d="M1.5,11h2C3.8,11,4,10.8,4,10.5C4,10.2,3.8,10,3.5,10h-2C1.2,10,1,10.2,1,10.5C1,10.8,1.2,11,1.5,11z"/>
		<path d="M1.5,14h2C3.8,14,4,13.8,4,13.5C4,13.2,3.8,13,3.5,13h-2C1.2,13,1,13.2,1,13.5C1,13.8,1.2,14,1.5,14z"/>
		<path d="M1.5,17h2C3.8,17,4,16.8,4,16.5C4,16.2,3.8,16,3.5,16h-2C1.2,16,1,16.2,1,16.5C1,16.8,1.2,17,1.5,17z"/>
		<path d="M4,19.5C4,19.2,3.8,19,3.5,19h-2C1.2,19,1,19.2,1,19.5C1,19.8,1.2,20,1.5,20h2C3.8,20,4,19.8,4,19.5z"/>
	</g>
</g>
<g id="Outline_Icons">
	<g>
		<path class="st2" d="M10.9,11.2c0.5-0.5,0.5-1.3,0-1.8L9.6,8C9.1,7.5,8.3,7.5,7.8,8L7.1,8.8c-0.6,0.6-0.7,1.6-0.2,2.4
			c2.1,3.2,5,6.1,8.2,8.2c0.8,0.5,1.7,0.4,2.4-0.2l0.7-0.7c0.5-0.5,0.5-1.3,0-1.8l-1.3-1.3c-0.5-0.5-1.3-0.5-1.8,0l-0.4,0.4
			c-1.5-1.2-2.9-2.6-4.1-4.1L10.9,11.2z"/>
		<g>
			<path class="st2" d="M21.5,0.5h-17c-1.1,0-2,0.9-2,2s0.9,2,2,2h17v19h-17c-1.1,0-2-0.9-2-2V3"/>
			<line class="st2" x1="4.5" y1="2.5" x2="20.5" y2="2.5"/>
		</g>
		<line class="st2" x1="1.5" y1="7.5" x2="3.5" y2="7.5"/>
		<line class="st2" x1="1.5" y1="10.5" x2="3.5" y2="10.5"/>
		<line class="st2" x1="1.5" y1="13.5" x2="3.5" y2="13.5"/>
		<line class="st2" x1="1.5" y1="16.5" x2="3.5" y2="16.5"/>
		<line class="st2" x1="1.5" y1="19.5" x2="3.5" y2="19.5"/>
	</g>
</g>
</svg>
