<?xml version="1.0" encoding="utf-8"?>
<!-- Generator: Adobe Illustrator 19.2.0, SVG Export Plug-In . SVG Version: 6.00 Build 0)  -->
<svg version="1.1" id="Layer_1" xmlns="http://www.w3.org/2000/svg" xmlns:xlink="http://www.w3.org/1999/xlink" x="0px" y="0px"
	 viewBox="0 0 24 24" style="enable-background:new 0 0 24 24;" xml:space="preserve">
<style type="text/css">
	.st0{display:none;}
	.st1{display:inline;}
	.st2{fill:none;stroke:#000000;stroke-linecap:round;stroke-linejoin:round;stroke-miterlimit:10;}
	.st3{fill:none;stroke:#000000;stroke-linejoin:round;stroke-miterlimit:10;}
</style>
<g id="Filled_Icons" class="st0">
	<g class="st1">
		<path d="M5.5,4H22v20H5.5C4.1,24,3,22.9,3,21.5v-1h1.5c0.6,0,1-0.4,1-1c0-0.6-0.4-1-1-1H3v-1h1.5c0.6,0,1-0.4,1-1c0-0.6-0.4-1-1-1
			H3v-1h1.5c0.6,0,1-0.4,1-1c0-0.6-0.4-1-1-1H3v-1h1.5c0.6,0,1-0.4,1-1c0-0.6-0.4-1-1-1H3v-1h1.5c0.6,0,1-0.4,1-1c0-0.6-0.4-1-1-1H3
			v-4C3,1.1,4.1,0,5.5,0h16C21.8,0,22,0.2,22,0.5C22,0.8,21.8,1,21.5,1h-16C4.7,1,4,1.7,4,2.5C4,3.3,4.7,4,5.5,4z M9.6,10.8
			c0.9,0.5,2.8,0.2,3.5-0.5c0.1-0.1,0.3-0.2,0.4-0.1c0.2,0,0.3,0.1,0.4,0.3c0.2,0.4,1,0.7,1.7,0.7c0.3,0,0.6-0.1,0.8-0.2
			C16,9.3,14.7,8,13,8C11.4,8,10,9.2,9.6,10.8z M7.5,20h11v-2c0-0.8-0.6-1.5-1.3-1.8L15,15.6v-0.8c0.9-0.6,1.4-1.7,1.5-2.9
			c-0.2,0.1-0.5,0.1-0.8,0.1c0,0,0,0,0,0c-0.8,0-1.6-0.2-2.2-0.7c-0.6,0.4-1.3,0.6-2.1,0.7c-0.7,0.1-1.3,0-1.8-0.2
			c0,1.2,0.6,2.3,1.5,3v0.8l-2.2,0.6c-0.7,0.2-1.3,1-1.3,1.8V20z"/>
		<path d="M5.5,2C5.2,2,5,2.2,5,2.5C5,2.8,5.2,3,5.5,3h15C20.8,3,21,2.8,21,2.5C21,2.2,20.8,2,20.5,2H5.5z"/>
		<path d="M2.5,8h2C4.8,8,5,7.8,5,7.5C5,7.2,4.8,7,4.5,7h-2C2.2,7,2,7.2,2,7.5C2,7.8,2.2,8,2.5,8z"/>
		<path d="M2.5,11h2C4.8,11,5,10.8,5,10.5C5,10.2,4.8,10,4.5,10h-2C2.2,10,2,10.2,2,10.5C2,10.8,2.2,11,2.5,11z"/>
		<path d="M2.5,14h2C4.8,14,5,13.8,5,13.5C5,13.2,4.8,13,4.5,13h-2C2.2,13,2,13.2,2,13.5C2,13.8,2.2,14,2.5,14z"/>
		<path d="M2.5,17h2C4.8,17,5,16.8,5,16.5C5,16.2,4.8,16,4.5,16h-2C2.2,16,2,16.2,2,16.5C2,16.8,2.2,17,2.5,17z"/>
		<path d="M5,19.5C5,19.2,4.8,19,4.5,19h-2C2.2,19,2,19.2,2,19.5C2,19.8,2.2,20,2.5,20h2C4.8,20,5,19.8,5,19.5z"/>
	</g>
</g>
<g id="Outline_Icons">
	<g>
		<g>
			<path class="st2" d="M21.5,0.5h-16c-1.1,0-2,0.9-2,2s0.9,2,2,2h16v19h-16c-1.1,0-2-0.9-2-2v-19"/>
			<line class="st2" x1="5.5" y1="2.5" x2="20.5" y2="2.5"/>
		</g>
		<line class="st2" x1="2.5" y1="7.5" x2="4.5" y2="7.5"/>
		<line class="st2" x1="2.5" y1="10.5" x2="4.5" y2="10.5"/>
		<line class="st2" x1="2.5" y1="13.5" x2="4.5" y2="13.5"/>
		<line class="st2" x1="2.5" y1="16.5" x2="4.5" y2="16.5"/>
		<line class="st2" x1="2.5" y1="19.5" x2="4.5" y2="19.5"/>
		<g>
			<path class="st3" d="M14.5,14.5V16l2.5,0.7c0.5,0.2,1,0.7,1,1.3v1.5H8V18c0-0.5,0.4-1.1,1-1.3l2.5-0.7v-1.5"/>
			<ellipse class="st3" cx="13" cy="11.8" rx="3" ry="3.3"/>
			<path class="st3" d="M16,11.2c-0.5,0.5-1.9,0.5-2.5-0.5c-1,1-2.6,1-3.4,0.4"/>
		</g>
	</g>
</g>
</svg>
