<?xml version="1.0" encoding="utf-8"?>
<!-- Generator: Adobe Illustrator 19.2.0, SVG Export Plug-In . SVG Version: 6.00 Build 0)  -->
<svg version="1.1" id="Layer_1" xmlns="http://www.w3.org/2000/svg" xmlns:xlink="http://www.w3.org/1999/xlink" x="0px" y="0px"
	 viewBox="0 0 24 24" style="enable-background:new 0 0 24 24;" xml:space="preserve">
<style type="text/css">
	.st0{display:none;}
	.st1{display:inline;}
	.st2{fill:none;stroke:#000000;stroke-linecap:round;stroke-linejoin:round;stroke-miterlimit:10;}
</style>
<g id="Filled_Icons" class="st0">
	<g class="st1">
		<path d="M19.3,6.5l2.7-2.6c0.1-0.1,0.1-0.2,0.1-0.4c0-0.1-0.1-0.3-0.1-0.4l-3.1-3C18.7,0,18.5,0,18.3,0C18.1,0.1,18,0.3,18,0.5
			v4.8l-3.1-3.1c-0.2-0.2-0.5-0.2-0.7,0c-0.2,0.2-0.2,0.5,0,0.7l3.7,3.6l-3.7,3.6c-0.2,0.2-0.2,0.5,0,0.7c0.2,0.2,0.5,0.2,0.7,0
			L18,7.7v4.8c0,0.2,0.1,0.4,0.3,0.5c0.1,0,0.1,0,0.2,0c0.1,0,0.3,0,0.4-0.1l3.1-3c0.1-0.1,0.1-0.2,0.1-0.4c0-0.1-0.1-0.3-0.1-0.4
			L19.3,6.5z M19,1.7l1.8,1.8L19,5.3V1.7z M19,11.3V7.7l1.8,1.8L19,11.3z"/>
		<path d="M17.3,16.2c-0.9-0.9-2.6-0.9-3.5,0l-0.4,0.4c-2.1-1.7-4.1-3.7-5.8-5.8l0.4-0.4c0.5-0.5,0.7-1.1,0.7-1.8
			c0-0.7-0.3-1.3-0.7-1.8L5.8,4.7c-0.9-0.9-2.6-0.9-3.5,0L1.1,5.9c-1.2,1.2-1.4,3-0.4,4.4c3.4,5.2,8,9.7,13.1,13.1
			c0.6,0.4,1.2,0.6,1.9,0.6c0.9,0,1.8-0.4,2.5-1l1.2-1.2c0.5-0.5,0.7-1.1,0.7-1.8c0-0.7-0.3-1.3-0.7-1.8L17.3,16.2z"/>
	</g>
</g>
<g id="Outline_Icons">
	<g>
		<g>
			<path class="st2" d="M7.6,10c0.8-0.8,0.8-2,0-2.8L5.5,5.1c-0.8-0.8-2-0.8-2.8,0L1.5,6.2c-1,1-1.2,2.6-0.4,3.8
				c3.4,5.1,7.9,9.6,13,13c1.2,0.8,2.8,0.6,3.8-0.4l1.2-1.2c0.8-0.8,0.8-2,0-2.8l-2.1-2.1c-0.8-0.8-2-0.8-2.8,0l-0.7,0.7
				C11,15.3,8.8,13,6.9,10.7L7.6,10z"/>
		</g>
		<g>
			<polyline class="st2" points="14.5,2.5 21.6,9.5 18.5,12.5 18.5,0.5 21.6,3.5 14.5,10.5 			"/>
		</g>
	</g>
</g>
</svg>
