<?xml version="1.0" encoding="utf-8"?>
<!-- Generator: Adobe Illustrator 19.2.0, SVG Export Plug-In . SVG Version: 6.00 Build 0)  -->
<svg version="1.1" id="Layer_1" xmlns="http://www.w3.org/2000/svg" xmlns:xlink="http://www.w3.org/1999/xlink" x="0px" y="0px"
	 viewBox="0 0 24 24" style="enable-background:new 0 0 24 24;" xml:space="preserve">
<style type="text/css">
	.st0{display:none;}
	.st1{display:inline;}
	.st2{fill:none;stroke:#000000;stroke-linecap:round;stroke-linejoin:round;stroke-miterlimit:10;}
</style>
<g id="Filled_Icons" class="st0">
	<g class="st1">
		<path d="M3.5,15h-3C0.2,15,0,15.2,0,15.5v6C0,21.8,0.2,22,0.5,22h3C3.8,22,4,21.8,4,21.5v-6C4,15.2,3.8,15,3.5,15z"/>
		<path d="M8.5,12h-3C5.2,12,5,12.2,5,12.5v9C5,21.8,5.2,22,5.5,22h3C8.8,22,9,21.8,9,21.5v-9C9,12.2,8.8,12,8.5,12z"/>
		<path d="M13.5,9h-3C10.2,9,10,9.2,10,9.5v12c0,0.3,0.2,0.5,0.5,0.5h3c0.3,0,0.5-0.2,0.5-0.5v-12C14,9.2,13.8,9,13.5,9z"/>
		<path d="M18.5,6h-3C15.2,6,15,6.2,15,6.5v15c0,0.3,0.2,0.5,0.5,0.5h3c0.3,0,0.5-0.2,0.5-0.5v-15C19,6.2,18.8,6,18.5,6z"/>
		<path d="M23.5,3h-3C20.2,3,20,3.2,20,3.5v18c0,0.3,0.2,0.5,0.5,0.5h3c0.3,0,0.5-0.2,0.5-0.5v-18C24,3.2,23.8,3,23.5,3z"/>
	</g>
</g>
<g id="Outline_Icons">
	<g>
		<rect x="0.5" y="15.5" class="st2" width="3" height="6"/>
		<rect x="5.5" y="12.5" class="st2" width="3" height="9"/>
		<rect x="10.5" y="9.5" class="st2" width="3" height="12"/>
		<rect x="15.5" y="6.5" class="st2" width="3" height="15"/>
		<rect x="20.5" y="3.5" class="st2" width="3" height="18"/>
	</g>
</g>
</svg>
