<?xml version="1.0" encoding="utf-8"?>
<!-- Generator: Adobe Illustrator 19.2.0, SVG Export Plug-In . SVG Version: 6.00 Build 0)  -->
<svg version="1.1" id="Outline_Icons" xmlns="http://www.w3.org/2000/svg" xmlns:xlink="http://www.w3.org/1999/xlink" x="0px"
	 y="0px" viewBox="0 0 24 24" style="enable-background:new 0 0 24 24;" xml:space="preserve">
<style type="text/css">
	.st0{fill:none;stroke:#000000;stroke-linecap:round;stroke-linejoin:round;stroke-miterlimit:10;}
	.st1{fill:none;stroke:#000000;stroke-linejoin:round;stroke-miterlimit:10;}
</style>
<g>
	<path class="st0" d="M21,2.5c1.4,0.3,2.5,1.6,2.5,3v2c0,1.1-0.9,2-2,2h-3c-1.1,0-2-0.9-2-2V6c-3-0.3-6-0.3-9,0v1.5c0,1.1-0.9,2-2,2
		h-3c-1.1,0-2-0.9-2-2v-2c0-1.4,1.1-2.7,2.5-3C8.8,1.3,14.8,1.2,21,2.5z"/>
	<rect x="5.5" y="12.5" class="st1" width="3" height="2"/>
	<rect x="10.5" y="12.5" class="st1" width="3" height="2"/>
	<rect x="15.5" y="12.5" class="st1" width="3" height="2"/>
	<rect x="5.5" y="16.5" class="st1" width="3" height="2"/>
	<rect x="10.5" y="16.5" class="st1" width="3" height="2"/>
	<rect x="15.5" y="16.5" class="st1" width="3" height="2"/>
	<rect x="5.5" y="20.5" class="st1" width="3" height="2"/>
	<rect x="10.5" y="20.5" class="st1" width="3" height="2"/>
	<rect x="15.5" y="20.5" class="st1" width="3" height="2"/>
</g>
</svg>
