<?xml version="1.0" encoding="utf-8"?>
<!-- Generator: Adobe Illustrator 19.2.0, SVG Export Plug-In . SVG Version: 6.00 Build 0)  -->
<svg version="1.1" id="Outline_Icons" xmlns="http://www.w3.org/2000/svg" xmlns:xlink="http://www.w3.org/1999/xlink" x="0px"
	 y="0px" viewBox="0 0 24 24" style="enable-background:new 0 0 24 24;" xml:space="preserve">
<style type="text/css">
	.st0{fill:none;stroke:#000000;stroke-linecap:round;stroke-linejoin:round;stroke-miterlimit:10;}
	.st1{fill:none;stroke:#000000;stroke-linejoin:round;stroke-miterlimit:10;}
</style>
<g>
	<path class="st0" d="M21,3.4c1.4,0.3,2.5,1.5,2.5,2.9v2.2c0,1.1-0.9,2.2-2,2.2h-3c-1.1,0-2-1.1-2-2.2V6.8c-3-0.3-6-0.3-9,0v1.7
		c0,1.1-0.9,2.2-2,2.2h-3c-1.1,0-2-1.1-2-2.2V6.3c0-1.4,1.1-2.6,2.5-2.9C8.8,2.2,14.8,2.2,21,3.4z"/>
	<path class="st1" d="M18.5,12v7.5c0,1.1-0.9,2-2,2h-10c-1.1,0-2-0.9-2-2V12"/>
	<g>
		<g>
			<g>
				<g>
					<polygon points="9,13 8,13 8,14 9,14 					"/>
				</g>
			</g>
		</g>
		<g>
			<g>
				<g>
					<polygon points="12,13 11,13 11,14 12,14 					"/>
				</g>
			</g>
		</g>
		<g>
			<g>
				<g>
					<polygon points="15,13 14,13 14,14 15,14 					"/>
				</g>
			</g>
		</g>
		<g>
			<g>
				<g>
					<polygon points="9,15 8,15 8,16 9,16 					"/>
				</g>
			</g>
		</g>
		<g>
			<g>
				<g>
					<polygon points="12,15 11,15 11,16 12,16 					"/>
				</g>
			</g>
		</g>
		<g>
			<g>
				<g>
					<polygon points="15,15 14,15 14,16 15,16 					"/>
				</g>
			</g>
		</g>
		<g>
			<g>
				<g>
					<polygon points="9,17 8,17 8,18 9,18 					"/>
				</g>
			</g>
		</g>
		<g>
			<g>
				<g>
					<polygon points="12,17 11,17 11,18 12,18 					"/>
				</g>
			</g>
		</g>
		<g>
			<g>
				<g>
					<polygon points="15,17 14,17 14,18 15,18 					"/>
				</g>
			</g>
		</g>
	</g>
</g>
</svg>
