<?xml version="1.0" encoding="utf-8"?>
<!-- Generator: Adobe Illustrator 19.2.0, SVG Export Plug-In . SVG Version: 6.00 Build 0)  -->
<svg version="1.1" id="Outline_Icons" xmlns="http://www.w3.org/2000/svg" xmlns:xlink="http://www.w3.org/1999/xlink" x="0px"
	 y="0px" viewBox="0 0 24 24" style="enable-background:new 0 0 24 24;" xml:space="preserve">
<style type="text/css">
	.st0{fill:none;stroke:#000000;stroke-linejoin:round;stroke-miterlimit:10;}
	.st1{fill:none;stroke:#000000;stroke-linecap:round;stroke-linejoin:round;stroke-miterlimit:10;}
</style>
<g>
	<path class="st0" d="M10.5,21.5c0,1.1-0.9,2-2,2h-3c-1.1,0-2-0.9-2-2v-16c0-1.1,0.9-2,2-2h3c1.1,0,2,0.9,2,2V21.5z"/>
	<path class="st0" d="M10.5,6.5h11c0.5,0,1,0.4,1,1v13c0,0.5-0.5,1-1,1h-11"/>
	<path class="st0" d="M3.5,21.5h-1c-0.5,0-1-0.5-1-1v-13c0-0.6,0.5-1,1-1h1"/>
	<rect x="13.5" y="8.5" class="st0" width="6" height="2"/>
	<line class="st1" x1="5.5" y1="3.5" x2="5.5" y2="0.5"/>
	<g>
		<g>
			<g>
				<polygon points="14,13 13,13 13,14 14,14 				"/>
			</g>
		</g>
	</g>
	<g>
		<g>
			<g>
				<polygon points="17,13 16,13 16,14 17,14 				"/>
			</g>
		</g>
	</g>
	<g>
		<g>
			<g>
				<polygon points="20,13 19,13 19,14 20,14 				"/>
			</g>
		</g>
	</g>
	<g>
		<g>
			<g>
				<polygon points="14,15 13,15 13,16 14,16 				"/>
			</g>
		</g>
	</g>
	<g>
		<g>
			<g>
				<polygon points="17,15 16,15 16,16 17,16 				"/>
			</g>
		</g>
	</g>
	<g>
		<g>
			<g>
				<polygon points="20,15 19,15 19,16 20,16 				"/>
			</g>
		</g>
	</g>
	<g>
		<g>
			<g>
				<polygon points="14,17 13,17 13,18 14,18 				"/>
			</g>
		</g>
	</g>
	<g>
		<g>
			<g>
				<polygon points="17,17 16,17 16,18 17,18 				"/>
			</g>
		</g>
	</g>
	<g>
		<g>
			<g>
				<polygon points="20,17 19,17 19,18 20,18 				"/>
			</g>
		</g>
	</g>
</g>
</svg>
