<?xml version="1.0" encoding="utf-8"?>
<!-- Generator: Adobe Illustrator 19.2.0, SVG Export Plug-In . SVG Version: 6.00 Build 0)  -->
<svg version="1.1" id="Outline_Icons" xmlns="http://www.w3.org/2000/svg" xmlns:xlink="http://www.w3.org/1999/xlink" x="0px"
	 y="0px" viewBox="0 0 24 24" style="enable-background:new 0 0 24 24;" xml:space="preserve">
<style type="text/css">
	.st0{fill:none;stroke:#000000;stroke-linecap:round;stroke-linejoin:round;stroke-miterlimit:10;}
	.st1{fill:none;stroke:#000000;stroke-linejoin:round;stroke-miterlimit:10;}
</style>
<g>
	<g>
		<path class="st0" d="M7.5,10c0.8-0.8,0.8-2,0-2.8L5.4,5.1c-0.8-0.8-2-0.8-2.8,0L1.4,6.2c-1,1-1.2,2.6-0.4,3.8
			c3.4,5.1,7.9,9.6,13,13c1.2,0.8,2.8,0.6,3.8-0.4l1.2-1.2c0.8-0.8,0.8-2,0-2.8l-2.1-2.1c-0.8-0.8-2-0.8-2.8,0l-0.7,0.7
			C11,15.3,8.7,13,6.8,10.7L7.5,10z"/>
	</g>
	<path class="st1" d="M18.5,7c0,0,0-0.4,0-1.5c-7,0-6.9,5.3-6.9,5.3S10.5,2,18.5,2c0-0.4,0-1.5,0-1.5l4.3,3.2L18.5,7z"/>
</g>
</svg>
