<?xml version="1.0" encoding="utf-8"?>
<!-- Generator: Adobe Illustrator 19.2.0, SVG Export Plug-In . SVG Version: 6.00 Build 0)  -->
<svg version="1.1" id="Layer_1" xmlns="http://www.w3.org/2000/svg" xmlns:xlink="http://www.w3.org/1999/xlink" x="0px" y="0px"
	 viewBox="0 0 24 24" style="enable-background:new 0 0 24 24;" xml:space="preserve">
<style type="text/css">
	.st0{display:none;}
	.st1{display:inline;}
	.st2{fill:none;stroke:#000000;stroke-linecap:round;stroke-linejoin:round;stroke-miterlimit:10;}
</style>
<g id="Filled_Icons" class="st0">
	<g class="st1">
		<path d="M19.1,7.7c0.2,0.2,0.5,0.2,0.7,0c1.1-1.1,2.2-2.6,2.8-4c0.5-1.1,1-2.6,0.3-3.3c-0.2-0.2-0.5-0.2-0.7,0l-6,6l-0.8-0.8
			C15.8,5.1,16,4.6,16,3.9c0-0.8-0.3-1.5-0.9-2.1l-1.7-1.7c-0.2-0.2-0.5-0.2-0.7,0c-0.2,0.2-0.2,0.5,0,0.7l1.7,1.7
			C14.8,2.9,15,3.4,15,3.9c0,0.3-0.1,0.7-0.3,1l-3-3c-0.2-0.2-0.5-0.2-0.7,0c-0.2,0.2-0.2,0.5,0,0.7l3,3c-0.7,0.4-1.7,0.3-2.3-0.3
			L10,3.6c-0.2-0.2-0.5-0.2-0.7,0c-0.2,0.2-0.2,0.5,0,0.7L11,6c0.6,0.6,1.3,0.9,2.1,0.9c0.6,0,1.2-0.2,1.7-0.5l0.8,0.8l-2.9,2.9
			c-0.2,0.2-0.2,0.5,0,0.7c0.1,0.1,0.2,0.1,0.4,0.1c0.1,0,0.3,0,0.4-0.1l2.9-2.9l2.9,2.9c0.1,0.1,0.2,0.1,0.4,0.1
			c0.1,0,0.3,0,0.4-0.1c0.2-0.2,0.2-0.5,0-0.7L17,7.2l0.8-0.8L19.1,7.7z"/>
		<path d="M17.2,16.2c-0.9-0.9-2.6-0.9-3.5,0l-0.4,0.4c-2.1-1.7-4.1-3.7-5.8-5.8l0.4-0.4c1-1,1-2.6,0-3.5L5.7,4.7
			c-0.9-0.9-2.6-0.9-3.5,0L1,5.9c-1.2,1.2-1.4,3-0.4,4.4c3.4,5.2,8,9.7,13.1,13.1c0.6,0.4,1.2,0.6,1.9,0.6c0.9,0,1.8-0.4,2.5-1
			l1.2-1.2c0.5-0.5,0.7-1.1,0.7-1.8c0-0.7-0.3-1.3-0.7-1.8L17.2,16.2z"/>
	</g>
</g>
<g id="Outline_Icons">
	<g>
		<g>
			<path class="st2" d="M7.5,10c0.8-0.8,0.8-2,0-2.8L5.4,5.1c-0.8-0.8-2-0.8-2.8,0L1.4,6.2c-1,1-1.2,2.6-0.4,3.8
				c3.4,5.1,7.9,9.6,13,13c1.2,0.8,2.8,0.6,3.8-0.4l1.2-1.2c0.8-0.8,0.8-2,0-2.8l-2.1-2.1c-0.8-0.8-2-0.8-2.8,0l-0.7,0.7
				C11,15.3,8.7,13,6.8,10.7L7.5,10z"/>
		</g>
		<path class="st2" d="M17.7,5.7l1.7,1.7c2.3-2.3,4-5.8,3.2-6.6l-0.2,0.2L13,10.4"/>
		<path class="st2" d="M9.6,3.9l1.7,1.7c1,1,2.5,1,3.4,0c1-1,1-2.5,0-3.4l-1.7-1.7"/>
		<line class="st2" x1="11.3" y1="2.2" x2="19.6" y2="10.4"/>
	</g>
</g>
</svg>
