<?xml version="1.0" encoding="utf-8"?>
<!-- Generator: Adobe Illustrator 19.2.0, SVG Export Plug-In . SVG Version: 6.00 Build 0)  -->
<svg version="1.1" id="Layer_1" xmlns="http://www.w3.org/2000/svg" xmlns:xlink="http://www.w3.org/1999/xlink" x="0px" y="0px"
	 viewBox="0 0 24 24" style="enable-background:new 0 0 24 24;" xml:space="preserve">
<style type="text/css">
	.st0{display:none;}
	.st1{display:inline;}
	.st2{fill:none;stroke:#000000;stroke-linecap:round;stroke-linejoin:round;stroke-miterlimit:10;}
	.st3{fill:none;stroke:#000000;stroke-linejoin:round;stroke-miterlimit:10;}
</style>
<g id="Filled_Icons" class="st0">
	<g class="st1">
		<path d="M21,6.5v1h3v4h-3v1h3v4h-3v1h3V20c0,1.4-1.1,2.5-2.5,2.5H21v1c0,0.3-0.2,0.5-0.5,0.5H4V0h16.5C20.8,0,21,0.2,21,0.5v1h0.5
			C22.9,1.5,24,2.6,24,4v2.5H21z M9.1,8.3c0.7,0.3,1.8,0.2,2.5-0.5c0.1-0.1,0.3-0.2,0.4-0.1c0.2,0,0.3,0.1,0.4,0.3
			c0.2,0.4,0.6,0.5,0.8,0.6c0.2,0,0.4,0,0.6,0c-0.3-1.1-1.3-1.9-2.4-1.9C10.4,6.5,9.5,7.3,9.1,8.3z M9,9.4c0,1.5,1.1,2.7,2.5,2.7
			c1.3,0,2.4-1.2,2.5-2.6c-0.2,0-0.3,0.1-0.5,0.1c-0.1,0-0.2,0-0.4,0c-0.5-0.1-0.9-0.3-1.2-0.6C11,9.5,9.9,9.6,9,9.4z M16,15.5
			c0-0.3-0.3-0.7-0.6-0.8l-2.9-0.8v-1c-0.3,0.1-0.7,0.2-1,0.2c-0.3,0-0.7-0.1-1-0.2v1l-2.9,0.8C7.3,14.8,7,15.2,7,15.5V18h9V15.5z"
			/>
		<path d="M0,1.5v21C0,23.3,0.7,24,1.5,24H3V0H1.5C0.7,0,0,0.7,0,1.5z"/>
	</g>
</g>
<g id="Outline_Icons">
	<g>
		<rect x="3.5" y="0.5" class="st2" width="17" height="23"/>
		<path class="st2" d="M3.5,0.5h-2c-0.5,0-1,0.5-1,1v21c0,0.5,0.5,1,1,1h2"/>
		<g>
			<path class="st3" d="M13,12v1.5l2.5,0.7c0.5,0.2,1,0.7,1,1.3v3h-10v-3c0-0.5,0.4-1.1,1-1.3l2.5-0.7V12"/>
			<ellipse class="st3" cx="11.5" cy="9.3" rx="3" ry="3.3"/>
			<path class="st3" d="M14.5,8.7C14,9.2,12.5,9.2,12,8.2c-1,1-2.6,1-3.4,0.4"/>
		</g>
		<path class="st3" d="M20.5,2h1c1.1,0,2,0.9,2,2v3h-3"/>
		<polyline class="st3" points="20.5,7 23.5,7 23.5,12 20.5,12 		"/>
		<polyline class="st3" points="20.5,12 23.5,12 23.5,17 20.5,17 		"/>
		<path class="st3" d="M20.5,17h3v3c0,1.1-0.9,2-2,2h-1"/>
	</g>
</g>
</svg>
