<?xml version="1.0" encoding="utf-8"?>
<!-- Generator: Adobe Illustrator 19.2.0, SVG Export Plug-In . SVG Version: 6.00 Build 0)  -->
<svg version="1.1" id="Layer_1" xmlns="http://www.w3.org/2000/svg" xmlns:xlink="http://www.w3.org/1999/xlink" x="0px" y="0px"
	 viewBox="0 0 24 24" style="enable-background:new 0 0 24 24;" xml:space="preserve">
<style type="text/css">
	.st0{display:none;}
	.st1{display:inline;}
	.st2{fill:none;stroke:#000000;stroke-linecap:round;stroke-linejoin:round;stroke-miterlimit:10;}
</style>
<g id="Filled_Icons" class="st0">
	<g class="st1">
		<path d="M23.9,3.1c-0.2-0.2-0.5-0.2-0.7,0l-5.6,5.6L12.7,4H17c0.3,0,0.5-0.2,0.5-0.5C17.5,3.2,17.3,3,17,3h-5.5
			c-0.1,0-0.2,0-0.3,0.1c0,0,0,0,0,0l0,0C11.1,3.2,11,3.4,11,3.5l0,0V9c0,0.3,0.2,0.5,0.5,0.5C11.8,9.5,12,9.3,12,9V4.7l5.1,5.1
			c0.1,0.1,0.2,0.1,0.4,0.1l0,0c0.1,0,0.3-0.1,0.4-0.1l6-6C24,3.7,24,3.3,23.9,3.1z"/>
		<path d="M17.2,16.2c-0.9-0.9-2.6-0.9-3.5,0l-0.4,0.4c-2.1-1.7-4.1-3.7-5.8-5.8l0.4-0.4c0.5-0.5,0.7-1.1,0.7-1.8
			c0-0.7-0.3-1.3-0.7-1.8L5.8,4.7c-0.9-0.9-2.6-0.9-3.5,0L1.1,5.9c-1.2,1.2-1.4,3-0.4,4.4c3.4,5.2,8,9.7,13.1,13.1
			c0.6,0.4,1.2,0.6,1.9,0.6c0.9,0,1.8-0.4,2.5-1l1.2-1.2c1-1,1-2.6,0-3.5L17.2,16.2z"/>
	</g>
</g>
<g id="Outline_Icons">
	<g>
		<path class="st2" d="M7.5,10c0.8-0.8,0.8-2,0-2.8L5.4,5.1c-0.8-0.8-2-0.8-2.8,0L1.4,6.3c-1,1-1.2,2.6-0.4,3.8
			c3.4,5.1,7.9,9.6,13,13c1.2,0.8,2.8,0.6,3.8-0.4l1.2-1.2c0.8-0.8,0.8-2,0-2.8l-2.1-2.1c-0.8-0.8-2-0.8-2.8,0l-0.7,0.7
			c-2.3-1.9-4.6-4.2-6.5-6.5L7.5,10z"/>
		<polyline class="st2" points="11.5,9 11.5,3.5 17,3.5 		"/>
		<polyline class="st2" points="11.5,3.5 17.5,9.5 23.5,3.5 		"/>
	</g>
</g>
</svg>
