<?xml version="1.0" encoding="utf-8"?>
<!-- Generator: Adobe Illustrator 19.2.0, SVG Export Plug-In . SVG Version: 6.00 Build 0)  -->
<svg version="1.1" id="Layer_1" xmlns="http://www.w3.org/2000/svg" xmlns:xlink="http://www.w3.org/1999/xlink" x="0px" y="0px"
	 viewBox="0 0 24 24" style="enable-background:new 0 0 24 24;" xml:space="preserve">
<style type="text/css">
	.st0{display:none;}
	.st1{display:inline;}
	.st2{fill:none;stroke:#000000;stroke-linecap:round;stroke-linejoin:round;stroke-miterlimit:10;}
	.st3{fill:none;stroke:#000000;stroke-linejoin:round;stroke-miterlimit:10;}
</style>
<g id="Filled_Icons" class="st0">
	<g class="st1">
		<path d="M17.2,16.2c-0.5-0.5-1.1-0.7-1.8-0.7c-0.7,0-1.3,0.3-1.8,0.7l-0.4,0.4c-2.1-1.7-4.1-3.7-5.8-5.8l0.4-0.4c1-1,1-2.6,0-3.5
			L5.7,4.7C5.3,4.2,4.6,4,4,4C3.3,4,2.7,4.2,2.2,4.7L1,5.9c-1.2,1.2-1.4,3-0.4,4.4c3.4,5.2,8,9.7,13.1,13.1c0.6,0.4,1.2,0.6,1.9,0.6
			c0.9,0,1.8-0.4,2.5-1l1.2-1.2c0.5-0.5,0.7-1.1,0.7-1.8c0-0.7-0.3-1.3-0.7-1.8L17.2,16.2z"/>
		<path d="M22.1,1.9C20.9,0.7,19.2,0,17.5,0c-1.7,0-3.4,0.7-4.6,1.9c-2.5,2.5-2.5,6.7,0,9.2c1.2,1.2,2.9,1.9,4.6,1.9
			c1.7,0,3.4-0.7,4.6-1.9C23.3,9.9,24,8.2,24,6.5C24,4.8,23.3,3.1,22.1,1.9z M19.8,8.1c0.2,0.2,0.2,0.5,0,0.7
			c-0.1,0.1-0.2,0.1-0.4,0.1c-0.1,0-0.3,0-0.4-0.1l-1.6-1.6l-1.6,1.6c-0.1,0.1-0.2,0.1-0.4,0.1c-0.1,0-0.3,0-0.4-0.1
			c-0.2-0.2-0.2-0.5,0-0.7l1.6-1.6l-1.6-1.6c-0.2-0.2-0.2-0.5,0-0.7c0.2-0.2,0.5-0.2,0.7,0l1.6,1.6l1.6-1.6c0.2-0.2,0.5-0.2,0.7,0
			c0.2,0.2,0.2,0.5,0,0.7l-1.6,1.6L19.8,8.1z"/>
	</g>
</g>
<g id="Outline_Icons">
	<g>
		<path class="st2" d="M7.5,10c0.8-0.8,0.8-2,0-2.8L5.4,5.1c-0.8-0.8-2-0.8-2.8,0L1.4,6.2c-1,1-1.2,2.6-0.4,3.8
			c3.4,5.1,7.9,9.6,13,13c1.2,0.8,2.8,0.6,3.8-0.4l1.2-1.2c0.8-0.8,0.8-2,0-2.8l-2.1-2.1c-0.8-0.8-2-0.8-2.8,0l-0.7,0.7
			C11,15.3,8.7,13,6.8,10.7L7.5,10z"/>
		<circle class="st3" cx="17.5" cy="6.5" r="6"/>
		<line class="st2" x1="15.6" y1="4.6" x2="19.4" y2="8.4"/>
		<line class="st2" x1="15.6" y1="8.4" x2="19.4" y2="4.6"/>
	</g>
</g>
</svg>
