<?xml version="1.0" encoding="utf-8"?>
<!-- Generator: Adobe Illustrator 19.2.0, SVG Export Plug-In . SVG Version: 6.00 Build 0)  -->
<svg version="1.1" id="Layer_1" xmlns="http://www.w3.org/2000/svg" xmlns:xlink="http://www.w3.org/1999/xlink" x="0px" y="0px"
	 viewBox="0 0 24 24" style="enable-background:new 0 0 24 24;" xml:space="preserve">
<style type="text/css">
	.st0{display:none;}
	.st1{display:inline;}
	.st2{fill:none;stroke:#000000;stroke-linecap:round;stroke-linejoin:round;stroke-miterlimit:10;}
</style>
<g id="Filled_Icons" class="st0">
	<g class="st1">
		<g>
			<path d="M20.2,3.8C20.3,3.9,20.4,4,20.5,4c0.1,0,0.3,0,0.4-0.1c0.2-0.2,0.2-0.5,0-0.7l-3-3c0,0,0,0-0.1,0c0,0-0.1-0.1-0.1-0.1
				c0,0-0.1,0-0.1,0c0,0,0,0,0,0h0c-0.1,0-0.1,0-0.2,0c0,0-0.1,0-0.1,0.1c0,0,0,0-0.1,0l-3,3c-0.2,0.2-0.2,0.5,0,0.7
				c0.2,0.2,0.5,0.2,0.7,0L17,1.7v6.1l-3.9,3.9c-0.2,0.2-0.2,0.5,0,0.7c0.1,0.1,0.2,0.1,0.4,0.1c0.1,0,0.3,0,0.4-0.1l4-4
				C17.9,8.2,18,8.1,18,8V1.7L20.2,3.8z"/>
			<path d="M21.9,11.6l-2.5-2.5c-0.2-0.2-0.5-0.2-0.7,0c-0.2,0.2-0.2,0.5,0,0.7l2.5,2.5c0.1,0.1,0.2,0.1,0.4,0.1
				c0.1,0,0.3,0,0.4-0.1C22,12.1,22,11.8,21.9,11.6z"/>
		</g>
		<path d="M19.3,18.3l-2.1-2.1c-0.9-0.9-2.6-0.9-3.5,0l-0.4,0.4c-2.1-1.7-4.1-3.7-5.8-5.8l0.4-0.4c1-1,1-2.6,0-3.5L5.7,4.7
			c-0.9-0.9-2.6-0.9-3.5,0L1,5.9c-1.2,1.2-1.4,3-0.4,4.4c3.4,5.2,8,9.7,13.1,13.1c0.6,0.4,1.2,0.6,1.9,0.6c0.9,0,1.8-0.4,2.5-1
			l1.2-1.2C20.3,20.8,20.3,19.3,19.3,18.3z"/>
	</g>
</g>
<g id="Outline_Icons">
	<g>
		<path class="st2" d="M7.5,10c0.8-0.8,0.8-2,0-2.8L5.4,5.1c-0.8-0.8-2-0.8-2.8,0L1.4,6.2c-1,1-1.2,2.6-0.4,3.8
			c3.4,5.1,7.9,9.6,13,13c1.2,0.8,2.8,0.6,3.8-0.4l1.2-1.2c0.8-0.8,0.8-2,0-2.8l-2.1-2.1c-0.8-0.8-2-0.8-2.8,0l-0.7,0.7
			C11,15.3,8.7,13,6.8,10.7L7.5,10z"/>
		<polyline class="st2" points="14.5,3.5 17.5,0.5 20.5,3.5 		"/>
		<polyline class="st2" points="17.5,0.5 17.5,8 13.5,12 		"/>
		<line class="st2" x1="19" y1="9.5" x2="21.5" y2="12"/>
	</g>
</g>
</svg>
