<?xml version="1.0" encoding="utf-8"?>
<!-- Generator: Adobe Illustrator 19.2.0, SVG Export Plug-In . SVG Version: 6.00 Build 0)  -->
<svg version="1.1" id="Outline_Icons" xmlns="http://www.w3.org/2000/svg" xmlns:xlink="http://www.w3.org/1999/xlink" x="0px"
	 y="0px" viewBox="0 0 24 24" style="enable-background:new 0 0 24 24;" xml:space="preserve">
<style type="text/css">
	.st0{fill:none;stroke:#000000;stroke-linecap:round;stroke-linejoin:round;stroke-miterlimit:10;}
</style>
<g>
	<path class="st0" d="M21,3.5c1.4,0.3,2.5,1.6,2.5,3v2c0,1.1-0.9,2-2,2h-3c-1.1,0-2-0.9-2-2V7c-3-0.3-6-0.3-9,0v1.5c0,1.1-0.9,2-2,2
		h-3c-1.1,0-2-0.9-2-2v-2c0-1.4,1.1-2.7,2.5-3C8.8,2.3,14.8,2.2,21,3.5z"/>
	<path class="st0" d="M21.5,22.5h-19v-3c0-4.4,3.6-8,8-8h3c4.4,0,8,3.6,8,8V22.5z"/>
	<line class="st0" x1="10.5" y1="9.5" x2="10.5" y2="11.5"/>
	<line class="st0" x1="13.5" y1="9.5" x2="13.5" y2="11.5"/>
	<circle class="st0" cx="12" cy="17" r="3.5"/>
</g>
</svg>
