<?xml version="1.0" encoding="utf-8"?>
<!-- Generator: Adobe Illustrator 19.2.0, SVG Export Plug-In . SVG Version: 6.00 Build 0)  -->
<svg version="1.1" id="Layer_1" xmlns="http://www.w3.org/2000/svg" xmlns:xlink="http://www.w3.org/1999/xlink" x="0px" y="0px"
	 viewBox="0 0 24 24" style="enable-background:new 0 0 24 24;" xml:space="preserve">
<style type="text/css">
	.st0{display:none;}
	.st1{display:inline;}
	.st2{fill:none;stroke:#000000;stroke-linecap:round;stroke-linejoin:round;stroke-miterlimit:10;}
</style>
<g id="Filled_Icons" class="st0">
	<g class="st1">
		<path d="M21.1,13.5c-6-1.2-12.2-1.2-18.2,0C1.3,13.8,0,15.4,0,17v1.5C0,19.9,1.1,21,2.5,21h3C6.9,21,8,19.9,8,18.5V18
			c2.6-0.2,5.4-0.2,8,0v0.5c0,1.4,1.1,2.5,2.5,2.5h3c1.4,0,2.5-1.1,2.5-2.5V17C24,15.4,22.7,13.8,21.1,13.5z"/>
		<path d="M11.5,9C11.8,9,12,8.8,12,8.5v-6C12,2.2,11.8,2,11.5,2C11.2,2,11,2.2,11,2.5v6C11,8.8,11.2,9,11.5,9z"/>
		<path d="M16.2,10.6c0.1,0,0.3,0,0.4-0.1l4.2-4.2C21,6,21,5.7,20.8,5.5c-0.2-0.2-0.5-0.2-0.7,0l-4.2,4.2c-0.2,0.2-0.2,0.5,0,0.7
			C15.9,10.5,16,10.6,16.2,10.6z"/>
		<path d="M6.5,10.4c0.1,0.1,0.2,0.1,0.4,0.1c0.1,0,0.3,0,0.4-0.1c0.2-0.2,0.2-0.5,0-0.7L3,5.5c-0.2-0.2-0.5-0.2-0.7,0
			C2,5.7,2,6,2.2,6.2L6.5,10.4z"/>
	</g>
</g>
<g id="Outline_Icons">
	<g>
		<path class="st2" d="M21,14c1.4,0.3,2.5,1.6,2.5,3v1.5c0,1.1-0.9,2-2,2h-3c-1.1,0-2-0.9-2-2v-1c-3-0.3-6-0.3-9,0v1
			c0,1.1-0.9,2-2,2h-3c-1.1,0-2-0.9-2-2V17c0-1.4,1.1-2.7,2.5-3C8.8,12.8,14.8,12.7,21,14z"/>
		<line class="st2" x1="11.5" y1="2.5" x2="11.5" y2="8.5"/>
		<line class="st2" x1="20.4" y1="5.8" x2="16.2" y2="10.1"/>
		<line class="st2" x1="2.6" y1="5.8" x2="6.8" y2="10.1"/>
	</g>
</g>
</svg>
