<?xml version="1.0" encoding="utf-8"?>
<!-- Generator: Adobe Illustrator 19.2.0, SVG Export Plug-In . SVG Version: 6.00 Build 0)  -->
<svg version="1.1" id="Layer_1" xmlns="http://www.w3.org/2000/svg" xmlns:xlink="http://www.w3.org/1999/xlink" x="0px" y="0px"
	 viewBox="0 0 24 24" style="enable-background:new 0 0 24 24;" xml:space="preserve">
<style type="text/css">
	.st0{display:none;}
	.st1{display:inline;}
	.st2{fill:none;stroke:#000000;stroke-linejoin:round;stroke-miterlimit:10;}
	.st3{fill:none;stroke:#000000;stroke-linecap:round;stroke-linejoin:round;stroke-miterlimit:10;}
</style>
<g id="Filled_Icon" class="st0">
	<g class="st1">
		<path d="M16,5.5C16,5.2,15.8,5,15.5,5h-13l7.3-4c0.2-0.1,0.3-0.4,0.2-0.7C9.8,0.1,9.5,0,9.3,0.1l-9,4.9C0.1,5.1,0,5.3,0,5.5V9h16
			V5.5z M2.5,8C2.2,8,2,7.8,2,7.5C2,7.2,2.2,7,2.5,7C2.8,7,3,7.2,3,7.5C3,7.8,2.8,8,2.5,8z"/>
		<path d="M21.9,15.2L16,19.6v-5.8l6.5-4.9c0.2-0.2,0.3-0.5,0.1-0.7c-0.2-0.2-0.5-0.3-0.7-0.1L16,12.5V10H0v12.5
			C0,22.8,0.2,23,0.5,23H1v0.5C1,23.8,1.2,24,1.5,24C1.8,24,2,23.8,2,23.5V23h12v0.5c0,0.3,0.2,0.5,0.5,0.5c0.3,0,0.5-0.2,0.5-0.5
			V23h0.5c0.3,0,0.5-0.2,0.5-0.5v-1.7l6.5-4.8c0.2-0.2,0.3-0.5,0.1-0.7C22.4,15,22.1,15,21.9,15.2z M14,20.5c0,0.3-0.2,0.5-0.5,0.5
			h-11C2.2,21,2,20.8,2,20.5v-3C2,17.2,2.2,17,2.5,17h11c0.3,0,0.5,0.2,0.5,0.5V20.5z M14,14.5c0,0.3-0.2,0.5-0.5,0.5h-11
			C2.2,15,2,14.8,2,14.5v-3C2,11.2,2.2,11,2.5,11h11c0.3,0,0.5,0.2,0.5,0.5V14.5z"/>
	</g>
</g>
<g id="Outline_Icons">
	<g>
		<rect x="0.5" y="5.5" class="st2" width="15" height="17"/>
		<line class="st3" x1="15.5" y1="13.5" x2="22.2" y2="8.5"/>
		<line class="st3" x1="15.5" y1="20.6" x2="22.2" y2="15.6"/>
		<line class="st3" x1="0.5" y1="5.5" x2="9.5" y2="0.6"/>
		<rect x="2.5" y="11.5" class="st3" width="11" height="3"/>
		<rect x="2.5" y="17.5" class="st3" width="11" height="3"/>
		<line class="st3" x1="0.5" y1="9.5" x2="15.5" y2="9.5"/>
		<g>
			<path d="M2.5,7C2.2,7,2,7.2,2,7.5C2,7.8,2.2,8,2.5,8C2.8,8,3,7.8,3,7.5C3,7.2,2.8,7,2.5,7L2.5,7z"/>
		</g>
		<line class="st3" x1="1.5" y1="23.5" x2="1.5" y2="22.5"/>
		<line class="st3" x1="14.5" y1="23.5" x2="14.5" y2="22.5"/>
	</g>
</g>
</svg>
