<?xml version="1.0" encoding="utf-8"?>
<!-- Generator: Adobe Illustrator 19.2.0, SVG Export Plug-In . SVG Version: 6.00 Build 0)  -->
<svg version="1.1" id="Layer_1" xmlns="http://www.w3.org/2000/svg" xmlns:xlink="http://www.w3.org/1999/xlink" x="0px" y="0px"
	 viewBox="0 0 24 24" style="enable-background:new 0 0 24 24;" xml:space="preserve">
<style type="text/css">
	.st0{display:none;}
	.st1{display:inline;}
	.st2{fill:none;stroke:#000000;stroke-linecap:round;stroke-linejoin:round;stroke-miterlimit:10;}
</style>
<g id="Filled_Icon" class="st0">
	<g class="st1">
		<path d="M21.5,4H20v9.5c0,0.3-0.2,0.5-0.5,0.5H19v6h2.5c0.3,0,0.5-0.2,0.5-0.5v-15C22,4.2,21.8,4,21.5,4z"/>
		<path d="M3,13.5V4H1.5C1.2,4,1,4.2,1,4.5v15C1,19.8,1.2,20,1.5,20H4v-6H3.5C3.2,14,3,13.8,3,13.5z"/>
		<path d="M7.5,13.5V4H6v9.5C6,13.8,5.8,14,5.5,14H5v6h3.5v-6H8C7.7,14,7.5,13.8,7.5,13.5z"/>
		<path d="M12.5,13.5V4h-2v9.5c0,0.3-0.2,0.5-0.5,0.5H9.5v6h4v-6H13C12.7,14,12.5,13.8,12.5,13.5z"/>
		<path d="M17,13.5V4h-1.5v9.5c0,0.3-0.2,0.5-0.5,0.5h-0.5v6H18v-6h-0.5C17.2,14,17,13.8,17,13.5z"/>
	</g>
</g>
<g id="Outline_Icons">
	<g>
		<polyline class="st2" points="4.5,4.5 1.5,4.5 1.5,19.5 21.5,19.5 21.5,4.5 18.5,4.5 		"/>
		<line class="st2" x1="5.5" y1="13.5" x2="5.5" y2="19.5"/>
		<line class="st2" x1="13.5" y1="13.5" x2="13.5" y2="19.5"/>
		<line class="st2" x1="9.5" y1="13.5" x2="9.5" y2="19.5"/>
		<rect x="8.5" y="3.5" class="st2" width="2" height="10"/>
		<rect x="12.5" y="3.5" class="st2" width="2" height="10"/>
		<rect x="16.5" y="3.5" class="st2" width="2" height="10"/>
		<rect x="4.5" y="3.5" class="st2" width="2" height="10"/>
		<line class="st2" x1="17.5" y1="13.5" x2="17.5" y2="19.5"/>
		<line class="st2" x1="16.5" y1="4.5" x2="14.5" y2="4.5"/>
		<line class="st2" x1="12.5" y1="4.5" x2="10.5" y2="4.5"/>
		<line class="st2" x1="8.5" y1="4.5" x2="6.5" y2="4.5"/>
	</g>
</g>
</svg>
