<?xml version="1.0" encoding="utf-8"?>
<!-- Generator: Adobe Illustrator 19.2.0, SVG Export Plug-In . SVG Version: 6.00 Build 0)  -->
<svg version="1.1" id="Layer_1" xmlns="http://www.w3.org/2000/svg" xmlns:xlink="http://www.w3.org/1999/xlink" x="0px" y="0px"
	 viewBox="0 0 24 24" style="enable-background:new 0 0 24 24;" xml:space="preserve">
<style type="text/css">
	.st0{display:none;}
	.st1{display:inline;}
	.st2{fill:none;stroke:#000000;stroke-linecap:round;stroke-linejoin:round;stroke-miterlimit:10;}
</style>
<g id="Filled_Icon" class="st0">
	<g class="st1">
		<path d="M4.9,14.4l-4.7,4.7C0,19.3,0,19.5,0,19.7C0.1,19.9,0.3,20,0.5,20H4c0.1,0,0.3-0.1,0.4-0.1l1.2-1.2L4.9,14.4z"/>
		<path d="M21,2.4C21,2.2,20.7,2,20.5,2h-16C4.4,2,4.2,2.1,4.1,2.2C4,2.3,4,2.4,4,2.6l3,19C7,21.8,7.3,22,7.5,22h16
			c0.1,0,0.3-0.1,0.4-0.2c0.1-0.1,0.1-0.3,0.1-0.4L21,2.4z M21,19.8c-0.1,0.1-0.2,0.2-0.4,0.2H9.4c-0.2,0-0.5-0.2-0.5-0.4l-2.1-15
			c0-0.1,0-0.3,0.1-0.4C7.1,4.1,7.2,4,7.3,4h11.3c0.2,0,0.5,0.2,0.5,0.4l2.1,15C21.2,19.6,21.1,19.7,21,19.8z"/>
		<g>
			<path d="M18.7,16.3l-2.3-5.5c-0.1-0.2-0.2-0.3-0.4-0.3c-0.2,0-0.4,0.1-0.5,0.3l-1.6,3l-0.8-0.8c-0.1-0.1-0.3-0.2-0.4-0.1
				c-0.2,0-0.3,0.1-0.4,0.3l-1.6,3.2c-0.1,0.2-0.1,0.3,0,0.5c0.1,0.1,0.3,0.2,0.4,0.2h7.1c0.2,0,0.3-0.1,0.4-0.2
				C18.8,16.6,18.8,16.5,18.7,16.3z"/>
			<circle cx="12.2" cy="9.7" r="1.5"/>
		</g>
	</g>
</g>
<g id="Outline_Icons">
	<g>
		<polygon class="st2" points="20.5,2.5 4.5,2.5 7.5,21.5 23.5,21.5 		"/>
		<polygon class="st2" points="18.6,4.5 7.3,4.5 9.4,19.5 20.7,19.5 		"/>
		<polyline class="st2" points="6.3,13.7 0.5,19.5 4,19.5 5.5,18 		"/>
		<polygon class="st2" points="11.2,16.5 18.3,16.5 16,11 14.1,14.6 12.8,13.3 		"/>
		<circle class="st2" cx="12.2" cy="9.7" r="1"/>
	</g>
</g>
</svg>
