<?xml version="1.0" encoding="utf-8"?>
<!-- Generator: Adobe Illustrator 19.2.0, SVG Export Plug-In . SVG Version: 6.00 Build 0)  -->
<svg version="1.1" id="Layer_1" xmlns="http://www.w3.org/2000/svg" xmlns:xlink="http://www.w3.org/1999/xlink" x="0px" y="0px"
	 viewBox="0 0 24 24" style="enable-background:new 0 0 24 24;" xml:space="preserve">
<style type="text/css">
	.st0{display:none;}
	.st1{display:inline;}
	.st2{fill:none;stroke:#000000;stroke-linecap:round;stroke-linejoin:round;stroke-miterlimit:10;}
</style>
<g id="Filled_Icon" class="st0">
	<path class="st1" d="M19.5,3h-15C2,3,0,5,0,7.5v7C0,17,2,19,4.5,19h15c2.5,0,4.5-2,4.5-4.5v-7C24,5,22,3,19.5,3z M16,16
		C16,16,16,16,16,16H8c-0.3,0-0.5-0.2-0.5-0.5c0-1.8,1.1-3.4,2.7-4.1C9.5,10.8,9,10,9,9c0-1.7,1.3-3,3-3c1.7,0,3,1.3,3,3
		c0,1-0.5,1.8-1.2,2.4c1.5,0.7,2.6,2.2,2.7,4c0,0,0,0.1,0,0.1C16.5,15.8,16.3,16,16,16z"/>
</g>
<g id="Outline_Icons">
	<g>
		<path class="st2" d="M23.5,14.5c0,2.2-1.8,4-4,4h-15c-2.2,0-4-1.8-4-4v-7c0-2.2,1.8-4,4-4h15c2.2,0,4,1.8,4,4V14.5z"/>
		<circle class="st2" cx="12" cy="9" r="2.5"/>
		<path class="st2" d="M16,15.5H8c0-2.2,1.8-4,4-4S16,13.3,16,15.5z"/>
	</g>
</g>
</svg>
