<?xml version="1.0" encoding="utf-8"?>
<!-- Generator: Adobe Illustrator 19.2.0, SVG Export Plug-In . SVG Version: 6.00 Build 0)  -->
<svg version="1.1" id="Layer_1" xmlns="http://www.w3.org/2000/svg" xmlns:xlink="http://www.w3.org/1999/xlink" x="0px" y="0px"
	 viewBox="0 0 24 24" style="enable-background:new 0 0 24 24;" xml:space="preserve">
<style type="text/css">
	.st0{display:none;}
	.st1{display:inline;}
	.st2{fill:none;stroke:#000000;stroke-linejoin:round;stroke-miterlimit:10;}
	.st3{fill:none;stroke:#000000;stroke-linecap:round;stroke-linejoin:round;stroke-miterlimit:10;}
</style>
<g id="Filled_Icon" class="st0">
	<g class="st1">
		<polygon points="20.6,6.9 20,6.8 20,20 5.9,20 5.6,21.6 21.6,23 23,7.1 		"/>
		<polygon points="19,16 15.5,16 4.5,16 1,16 1,19 19,19 		"/>
		<path d="M7.1,10.2C7.2,10.1,7.3,10,7.5,10c0.2,0,0.3,0.1,0.4,0.2l2,2.4L12,7.8c0.1-0.2,0.3-0.3,0.5-0.3c0.2,0,0.4,0.1,0.5,0.3
			l2.9,7.2H19V1H1v14h3.2L7.1,10.2z M6,4c1.1,0,2,0.9,2,2c0,1.1-0.9,2-2,2S4,7.1,4,6C4,4.9,4.9,4,6,4z"/>
	</g>
</g>
<g id="Outline_Icons">
	<g>
		<polyline class="st2" points="15.5,15.5 12.5,8 10,13.5 7.5,10.5 4.5,15.5 		"/>
		<rect x="1.5" y="1.5" class="st2" width="17" height="17"/>
		<polyline class="st3" points="20.5,7.4 22.5,7.6 21.1,22.5 6.2,21.1 		"/>
		<line class="st2" x1="1.5" y1="15.5" x2="18.5" y2="15.5"/>
		<circle class="st2" cx="6" cy="6" r="1.5"/>
	</g>
</g>
</svg>
