<?xml version="1.0" encoding="utf-8"?>
<!-- Generator: Adobe Illustrator 19.2.0, SVG Export Plug-In . SVG Version: 6.00 Build 0)  -->
<svg version="1.1" id="Layer_1" xmlns="http://www.w3.org/2000/svg" xmlns:xlink="http://www.w3.org/1999/xlink" x="0px" y="0px"
	 viewBox="0 0 24 24" style="enable-background:new 0 0 24 24;" xml:space="preserve">
<style type="text/css">
	.st0{display:none;}
	.st1{display:inline;}
	.st2{fill:none;stroke:#000000;stroke-linecap:round;stroke-linejoin:round;stroke-miterlimit:10;}
</style>
<g id="Filled_Icon" class="st0">
	<path class="st1" d="M15.5,0h-7C6,0,4,2,4,4.5v15C4,22,6,24,8.5,24h7c2.5,0,4.5-2,4.5-4.5v-15C20,2,18,0,15.5,0z M12,4
		c1.4,0,2.5,1.1,2.5,2.5C14.5,7.9,13.4,9,12,9c-1.4,0-2.5-1.1-2.5-2.5C9.5,5.1,10.6,4,12,4z M14,15.9v3.6c0,0.3-0.2,0.5-0.5,0.5h-3
		c-0.3,0-0.5-0.2-0.5-0.5v-3.6c-1.8-1.1-2-3.5-2-5.4C8,10.2,8.2,10,8.5,10h7c0.3,0,0.5,0.2,0.5,0.5C16,12.5,15.8,14.8,14,15.9z"/>
</g>
<g id="Outline_Icons">
	<g>
		<path class="st2" d="M8.5,23.5c-2.2,0-4-1.8-4-4v-15c0-2.2,1.8-4,4-4h7c2.2,0,4,1.8,4,4v15c0,2.2-1.8,4-4,4H8.5z"/>
		<circle class="st2" cx="12" cy="6.5" r="2"/>
		<path class="st2" d="M15.5,10.5h-7c0,2,0.3,4.2,2,5.1v3.9h3v-3.9C15.2,14.7,15.5,12.5,15.5,10.5z"/>
	</g>
</g>
</svg>
