<?xml version="1.0" encoding="utf-8"?>
<!-- Generator: Adobe Illustrator 19.2.0, SVG Export Plug-In . SVG Version: 6.00 Build 0)  -->
<svg version="1.1" id="Layer_1" xmlns="http://www.w3.org/2000/svg" xmlns:xlink="http://www.w3.org/1999/xlink" x="0px" y="0px"
	 viewBox="0 0 24 24" style="enable-background:new 0 0 24 24;" xml:space="preserve">
<style type="text/css">
	.st0{display:none;}
	.st1{display:inline;}
	.st2{fill:none;stroke:#000000;stroke-linejoin:round;stroke-miterlimit:10;}
</style>
<g id="Filled_Icon" class="st0">
	<g class="st1">
		<polygon points="23,5.5 23,23 5.5,23 5.5,24 24,24 24,5.5 		"/>
		<polygon points="22,2.5 21,2.5 21,21 2.5,21 2.5,22 22,22 		"/>
		<path d="M7.1,10.2C7.2,10.1,7.3,10,7.5,10c0.2,0,0.3,0.1,0.4,0.2l2.1,2.5l3.6-5.4C13.7,7.1,13.9,7,14.1,7c0.2,0,0.3,0.1,0.4,0.3
			l2.9,7.7H20V0H0v15h4.2L7.1,10.2z M6,3c1.1,0,2,0.9,2,2c0,1.1-0.9,2-2,2S4,6.1,4,5C4,3.9,4.9,3,6,3z"/>
		<polygon points="20,16 17,16 4.5,16 0,16 0,20 20,20 		"/>
	</g>
</g>
<g id="Outline_Icons">
	<g>
		<polyline class="st2" points="23.5,5.5 23.5,23.5 5.5,23.5 		"/>
		<polyline class="st2" points="21.5,2.5 21.5,21.5 2.5,21.5 		"/>
		<rect x="0.5" y="0.5" class="st2" width="19" height="19"/>
		<polyline class="st2" points="17,15.5 14,7.5 10,13.5 7.5,10.5 4.5,15.5 		"/>
		<circle class="st2" cx="6" cy="5" r="1.5"/>
		<line class="st2" x1="19.5" y1="15.5" x2="0.5" y2="15.5"/>
	</g>
</g>
</svg>
