<?xml version="1.0" encoding="utf-8"?>
<!-- Generator: Adobe Illustrator 19.2.0, SVG Export Plug-In . SVG Version: 6.00 Build 0)  -->
<svg version="1.1" id="Layer_1" xmlns="http://www.w3.org/2000/svg" xmlns:xlink="http://www.w3.org/1999/xlink" x="0px" y="0px"
	 viewBox="0 0 24 24" style="enable-background:new 0 0 24 24;" xml:space="preserve">
<style type="text/css">
	.st0{display:none;}
	.st1{display:inline;}
	.st2{fill:none;stroke:#000000;stroke-linecap:round;stroke-linejoin:round;stroke-miterlimit:10;}
</style>
<g id="Filled_Icon" class="st0">
	<path class="st1" d="M20.5,0h-18C1.1,0,0,1.1,0,2.5v18C0,21.9,1.1,23,2.5,23h18c1.4,0,2.5-1.1,2.5-2.5v-18C23,1.1,21.9,0,20.5,0z
		 M8,19.5C8,19.8,7.8,20,7.5,20h-4C3.2,20,3,19.8,3,19.5v-4C3,15.2,3.2,15,3.5,15h4C7.8,15,8,15.2,8,15.5V19.5z M8,13.5
		C8,13.8,7.8,14,7.5,14h-4C3.2,14,3,13.8,3,13.5v-4C3,9.2,3.2,9,3.5,9h4C7.8,9,8,9.2,8,9.5V13.5z M8,7.5C8,7.8,7.8,8,7.5,8h-4
		C3.2,8,3,7.8,3,7.5v-4C3,3.2,3.2,3,3.5,3h4C7.8,3,8,3.2,8,3.5V7.5z M14,13.5c0,0.3-0.2,0.5-0.5,0.5h-4C9.2,14,9,13.8,9,13.5v-4
		C9,9.2,9.2,9,9.5,9h4C13.8,9,14,9.2,14,9.5V13.5z M14,7.5C14,7.8,13.8,8,13.5,8h-4C9.2,8,9,7.8,9,7.5v-4C9,3.2,9.2,3,9.5,3h4
		C13.8,3,14,3.2,14,3.5V7.5z M20,13.5c0,0.3-0.2,0.5-0.5,0.5h-4c-0.3,0-0.5-0.2-0.5-0.5v-4C15,9.2,15.2,9,15.5,9h4
		C19.8,9,20,9.2,20,9.5V13.5z M20,7.5C20,7.8,19.8,8,19.5,8h-4C15.2,8,15,7.8,15,7.5v-4C15,3.2,15.2,3,15.5,3h4
		C19.8,3,20,3.2,20,3.5V7.5z"/>
</g>
<g id="Outline_Icons">
	<g>
		<path class="st2" d="M22.5,2.5c0-1.1-0.9-2-2-2h-18c-1.1,0-2,0.9-2,2v18c0,1.1,0.9,2,2,2h18c1.1,0,2-0.9,2-2V2.5z"/>
		<rect x="3.5" y="3.5" class="st2" width="4" height="4"/>
		<rect x="9.5" y="3.5" class="st2" width="4" height="4"/>
		<rect x="15.5" y="3.5" class="st2" width="4" height="4"/>
		<rect x="3.5" y="9.5" class="st2" width="4" height="4"/>
		<rect x="9.5" y="9.5" class="st2" width="4" height="4"/>
		<rect x="15.5" y="9.5" class="st2" width="4" height="4"/>
		<rect x="3.5" y="15.5" class="st2" width="4" height="4"/>
	</g>
</g>
</svg>
