<?xml version="1.0" encoding="utf-8"?>
<!-- Generator: Adobe Illustrator 19.2.0, SVG Export Plug-In . SVG Version: 6.00 Build 0)  -->
<svg version="1.1" id="Layer_1" xmlns="http://www.w3.org/2000/svg" xmlns:xlink="http://www.w3.org/1999/xlink" x="0px" y="0px"
	 viewBox="0 0 24 24" style="enable-background:new 0 0 24 24;" xml:space="preserve">
<style type="text/css">
	.st0{display:none;}
	.st1{display:inline;}
	.st2{fill:none;stroke:#000000;stroke-linejoin:round;stroke-miterlimit:10;}
	.st3{fill:none;stroke:#000000;stroke-linecap:round;stroke-linejoin:round;stroke-miterlimit:10;}
</style>
<g id="Filled_Icon" class="st0">
	<g class="st1">
		<path d="M22.9,7.2c-0.1-0.1-0.2-0.2-0.3-0.2L20,6.9v11.6c0,0.8-0.7,1.5-1.5,1.5H5.8l-0.1,1.1c0,0.1,0,0.3,0.1,0.4
			c0.1,0.1,0.2,0.2,0.3,0.2L21.1,23c0,0,0,0,0,0c0.1,0,0.2,0,0.3-0.1c0.1-0.1,0.2-0.2,0.2-0.3L23,7.6C23,7.5,23,7.3,22.9,7.2z"/>
		<g>
			<path d="M15,16H5.2H1v2.5C1,18.8,1.2,19,1.5,19h17c0.3,0,0.5-0.2,0.5-0.5V16H15L15,16z"/>
			<path d="M18.5,1h-17C1.2,1,1,1.2,1,1.5V15h3.7c0.2-2,1.5-3.8,3.4-4.5C7.2,9.9,6.5,8.8,6.5,7.6c0-2,1.6-3.6,3.6-3.6
				c2,0,3.6,1.6,3.6,3.6c0,1.2-0.6,2.3-1.6,2.9c1.8,0.7,3.2,2.5,3.4,4.5H19V1.5C19,1.2,18.8,1,18.5,1z"/>
		</g>
	</g>
</g>
<g id="Outline_Icons">
	<g>
		<rect x="1.5" y="1.5" class="st2" width="17" height="17"/>
		<polyline class="st3" points="20.5,7.4 22.5,7.6 21.1,22.5 6.2,21.1 		"/>
		<line class="st2" x1="1.5" y1="15.5" x2="18.5" y2="15.5"/>
		<circle class="st3" cx="10.1" cy="7.6" r="3.1"/>
		<path class="st3" d="M15,15.5H5.2c0-2.7,2.2-4.9,4.9-4.9C12.8,10.6,15,12.8,15,15.5z"/>
	</g>
</g>
</svg>
