<?xml version="1.0" encoding="utf-8"?>
<!-- Generator: Adobe Illustrator 19.2.0, SVG Export Plug-In . SVG Version: 6.00 Build 0)  -->
<svg version="1.1" id="Layer_1" xmlns="http://www.w3.org/2000/svg" xmlns:xlink="http://www.w3.org/1999/xlink" x="0px" y="0px"
	 viewBox="0 0 24 24" style="enable-background:new 0 0 24 24;" xml:space="preserve">
<style type="text/css">
	.st0{display:none;}
	.st1{display:inline;}
	.st2{fill:none;stroke:#000000;stroke-linejoin:round;stroke-miterlimit:10;}
</style>
<g id="Filled_Icon" class="st0">
	<g class="st1">
		<path d="M18.2,5L13,0.6c-0.2-0.2-0.5-0.2-0.7,0L7.3,5H0v19h24V5H18.2z M12.7,1.7l4,3.3H8.8L12.7,1.7z M23,23H1V6h22V23z"/>
		<path d="M7.5,17.5h3C9.9,16.3,9.4,15,9,13.6C8.6,15,8.1,16.3,7.5,17.5z"/>
		<path d="M8.5,10.2c0-0.3,0.2-0.5,0.5-0.5c0.3,0,0.5,0.2,0.5,0.5c0,4.8,3.9,10.6,4.8,11.8H16v-4c0-0.3,0.2-0.5,0.5-0.5H18V15
			c0-0.3,0.2-0.5,0.5-0.5H22V7H2v15h1.7C4.6,20.8,8.5,15,8.5,10.2z"/>
		<path d="M7,18.5C6.2,20,5.5,21.2,5,22H13c-0.5-0.8-1.3-2-2.1-3.5H7z"/>
		<rect x="17" y="18.5" width="1" height="3.5"/>
		<polygon points="19,18 19,22 22,22 22,15.5 19,15.5 		"/>
	</g>
</g>
<g id="Outline_Icons">
	<g>
		<polyline class="st2" points="7.5,5.5 12.7,1 18,5.5 		"/>
		<rect x="0.5" y="5.5" class="st2" width="23" height="18"/>
		<line class="st2" x1="6.2" y1="18.5" x2="11.8" y2="18.5"/>
		<rect x="2.5" y="7.5" class="st2" width="19" height="14"/>
		<path class="st2" d="M13.8,21.5c0,0-4.8-5.8-4.8-11.3c0,5.5-4.8,11.3-4.8,11.3"/>
		<polyline class="st2" points="16.5,21.5 16.5,17.5 18.5,17.5 18.5,21.5 		"/>
		<polyline class="st2" points="18.5,18 18.5,14.5 21.5,14.5 		"/>
	</g>
</g>
</svg>
