<?xml version="1.0" encoding="utf-8"?>
<!-- Generator: Adobe Illustrator 19.2.0, SVG Export Plug-In . SVG Version: 6.00 Build 0)  -->
<svg version="1.1" id="Layer_1" xmlns="http://www.w3.org/2000/svg" xmlns:xlink="http://www.w3.org/1999/xlink" x="0px" y="0px"
	 viewBox="0 0 24 24" style="enable-background:new 0 0 24 24;" xml:space="preserve">
<style type="text/css">
	.st0{display:none;}
	.st1{display:inline;}
	.st2{fill:none;stroke:#000000;stroke-linejoin:round;stroke-miterlimit:10;}
</style>
<g id="Filled_Icon" class="st0">
	<g class="st1">
		<polygon points="3.5,18 0,18 0,24 24,24 24,18 22,18 		"/>
		<path d="M0,0v17h3.2c0.5-1.2,2.4-5,4.8-5c2,0,3.7,1.7,4.4,2.6l2.6-4.5C15.5,9.4,16.2,9,17,9c0.8,0,1.6,0.5,1.9,1.2l3.4,6.8H24V0H0
			z M9.5,9h-3c-1.1,0-2-0.9-2-2c0-1.2,1-2.1,2.2-2c0.4-1.2,1.5-2,2.8-2c1.7,0,3,1.3,3,3C12.5,7.7,11.2,9,9.5,9z"/>
	</g>
</g>
<g id="Outline_Icons">
	<g>
		<rect x="0.5" y="0.5" class="st2" width="23" height="23"/>
		<line class="st2" x1="23.5" y1="17.5" x2="0.5" y2="17.5"/>
		<path class="st2" d="M9.5,3.5C8.3,3.5,7.2,4.4,7,5.6C6.9,5.5,6.7,5.5,6.5,5.5C5.7,5.5,5,6.2,5,7c0,0.8,0.7,1.5,1.5,1.5h3
			C10.9,8.5,12,7.4,12,6C12,4.6,10.9,3.5,9.5,3.5z"/>
		<path class="st2" d="M3.5,17.5c0,0,2-5,4.5-5s4.5,3,4.5,3l3-5.2c0.3-0.5,0.9-0.8,1.4-0.8c0.6,0,1.2,0.4,1.5,0.9l3.5,7.1"/>
	</g>
</g>
</svg>
