<?xml version="1.0" encoding="utf-8"?>
<!-- Generator: Adobe Illustrator 19.2.0, SVG Export Plug-In . SVG Version: 6.00 Build 0)  -->
<svg version="1.1" id="Layer_1" xmlns="http://www.w3.org/2000/svg" xmlns:xlink="http://www.w3.org/1999/xlink" x="0px" y="0px"
	 viewBox="0 0 24 24" style="enable-background:new 0 0 24 24;" xml:space="preserve">
<style type="text/css">
	.st0{display:none;}
	.st1{display:inline;}
	.st2{fill:none;stroke:#000000;stroke-linecap:round;stroke-linejoin:round;stroke-miterlimit:10;}
</style>
<g id="Filled_Icon" class="st0">
	<g class="st1">
		<path d="M2,13.5v-9C2,4.2,2.2,4,2.5,4h14C16.8,4,17,4.2,17,4.5V6h2V4c0-1.1-1.1-2-2.5-2h-14C1.1,2,0,3.1,0,4.5v9
			C0,14.9,0.9,16,2,16h2v-2H2.5C2.2,14,2,13.8,2,13.5z"/>
		<path d="M21.5,7h-14C6.1,7,5,8.1,5,9.5v9C5,19.9,6.1,21,7.5,21h14c1.4,0,2.5-1.1,2.5-2.5v-9C24,8.1,22.9,7,21.5,7z M22,18.5
			c0,0.3-0.2,0.5-0.5,0.5h-14C7.2,19,7,18.8,7,18.5v-9C7,9.2,7.2,9,7.5,9h14C21.8,9,22,9.2,22,9.5V18.5z"/>
	</g>
</g>
<g id="Outline_Icons">
	<g>
		<path class="st2" d="M3.5,15.5c0,0-0.7,0-1.5,0c-0.8,0-1.5-0.9-1.5-2v-9c0-1.1,0.9-2,2-2h14c1.1,0,2,0.7,2,1.5c0,0.8,0,1.5,0,1.5"
			/>
		<polyline class="st2" points="3.5,13.5 2.5,13.5 2.5,4.5 16.5,4.5 16.5,5.5 		"/>
		<path class="st2" d="M23.5,18.5c0,1.1-0.9,2-2,2h-14c-1.1,0-2-0.9-2-2v-9c0-1.1,0.9-2,2-2h14c1.1,0,2,0.9,2,2V18.5z"/>
		<rect x="7.5" y="9.5" class="st2" width="14" height="9"/>
	</g>
</g>
</svg>
