<?xml version="1.0" encoding="utf-8"?>
<!-- Generator: Adobe Illustrator 19.2.0, SVG Export Plug-In . SVG Version: 6.00 Build 0)  -->
<svg version="1.1" id="Layer_1" xmlns="http://www.w3.org/2000/svg" xmlns:xlink="http://www.w3.org/1999/xlink" x="0px" y="0px"
	 viewBox="0 0 24 24" style="enable-background:new 0 0 24 24;" xml:space="preserve">
<style type="text/css">
	.st0{display:none;}
	.st1{display:inline;}
	.st2{fill:none;stroke:#000000;stroke-linecap:round;stroke-linejoin:round;stroke-miterlimit:10;}
</style>
<g id="Filled_Icon" class="st0">
	<g class="st1">
		<path d="M19.5,4h-0.8C20.1,5,21,6.6,21,8.5v7c0,1.9-0.9,3.5-2.3,4.5h0.8c2.5,0,4.5-2,4.5-4.5v-7C24,6,22,4,19.5,4z"/>
		<path d="M15.5,4h-0.8C16.1,5,17,6.6,17,8.5v7c0,1.9-0.9,3.5-2.3,4.5h0.8c2.5,0,4.5-2,4.5-4.5v-7C20,6,18,4,15.5,4z"/>
		<path d="M11.5,4h-7C2,4,0,6,0,8.5v7C0,18,2,20,4.5,20h7c2.5,0,4.5-2,4.5-4.5v-7C16,6,14,4,11.5,4z M12,17C12,17,12,17,12,17H4
			c-0.3,0-0.5-0.2-0.5-0.5c0-1.8,1.1-3.4,2.7-4.1C5.5,11.8,5,11,5,10c0-1.7,1.3-3,3-3c1.7,0,3,1.3,3,3c0,1-0.5,1.8-1.2,2.4
			c1.5,0.7,2.6,2.2,2.7,4c0,0,0,0.1,0,0.1C12.5,16.8,12.3,17,12,17z"/>
	</g>
</g>
<g id="Outline_Icons">
	<g>
		<path class="st2" d="M15.5,15.5c0,2.2-1.8,4-4,4h-7c-2.2,0-4-1.8-4-4v-7c0-2.2,1.8-4,4-4h7c2.2,0,4,1.8,4,4V15.5z"/>
		<path class="st2" d="M15.5,4.5c2.2,0,4,1.8,4,4v7c0,2.2-1.8,4-4,4"/>
		<path class="st2" d="M19.5,4.5c2.2,0,4,1.8,4,4v7c0,2.2-1.8,4-4,4"/>
		<circle class="st2" cx="8" cy="10" r="2.5"/>
		<path class="st2" d="M12,16.5H4c0-2.2,1.8-4,4-4S12,14.3,12,16.5z"/>
	</g>
</g>
</svg>
