<?xml version="1.0" encoding="utf-8"?>
<!-- Generator: Adobe Illustrator 19.2.0, SVG Export Plug-In . SVG Version: 6.00 Build 0)  -->
<svg version="1.1" id="Layer_1" xmlns="http://www.w3.org/2000/svg" xmlns:xlink="http://www.w3.org/1999/xlink" x="0px" y="0px"
	 viewBox="0 0 24 24" style="enable-background:new 0 0 24 24;" xml:space="preserve">
<style type="text/css">
	.st0{display:none;}
	.st1{display:inline;}
	.st2{fill:none;stroke:#000000;stroke-linejoin:round;stroke-miterlimit:10;}
	.st3{fill:none;stroke:#000000;stroke-linecap:round;stroke-linejoin:round;stroke-miterlimit:10;}
</style>
<g id="Filled_Icon" class="st0">
	<g class="st1">
		<path d="M15.9,10.7L15.9,10.7L15.9,10.7z"/>
		<polygon points="7.2,10.7 7.2,10.7 7.2,10.7 		"/>
		<rect y="20" width="24" height="4"/>
		<path d="M0,0v19h11v-3.5c0-0.3,0.2-0.5,0.5-0.5c0.3,0,0.5,0.2,0.5,0.5V19h12V0H0z M3.8,9.7L3.8,9.7l0-0.2C3.9,8.1,5.9,7.8,7,7.7
			c1.1,0,2.1,0.4,3,1.3l0.4,0.3L10,9.8c-0.1,0.1-1.3,1.5-2.8,1.5l0,0C6,11.2,4.2,11.2,3.8,9.7z M10.7,14c-0.5,0.9-1.4,2.2-2.6,2.2
			c-0.2,0-0.3,0-0.5-0.1l-0.1,0l-0.1,0c-1.1-0.8-0.4-2.7,0.2-3.6c0.6-1,1.5-1.6,2.7-1.9l0.5-0.1l0.1,0.5C11,10.9,11.5,12.7,10.7,14z
			 M11,8.1l-0.1,0.5l-0.5-0.1c-1.2-0.3-2.1-1-2.7-1.9C7.1,5.6,6.4,3.7,7.5,2.9l0.1,0l0.1,0c0.2,0,0.3-0.1,0.5-0.1
			c1.2,0,2,1.3,2.6,2.2C11.5,6.2,11,8,11,8.1z M12.1,4.9c0.5-0.9,1.4-2.2,2.6-2.2c0.2,0,0.3,0,0.5,0.1l0.1,0l0.1,0
			c1.1,0.8,0.4,2.7-0.2,3.6c-0.6,1-1.5,1.6-2.7,1.9L12,8.6l-0.1-0.5C11.9,8,11.3,6.2,12.1,4.9z M15.3,16L15.3,16l-0.1,0.1
			c-0.2,0-0.3,0.1-0.5,0.1l0,0c-1.2,0-2-1.3-2.6-2.2c-0.8-1.2-0.3-3.1-0.2-3.2l0.1-0.5l0.5,0.1c1.2,0.3,2.1,1,2.7,1.9
			C15.7,13.3,16.5,15.2,15.3,16z M19.1,9.4c-0.1,1.4-2.1,1.8-3.2,1.8h0c-1.1,0-2.1-0.4-3-1.3l-0.4-0.3l0.3-0.4
			c0.1-0.1,1.3-1.5,2.8-1.5c1.2,0,3,0.1,3.4,1.5L19.1,9.4L19.1,9.4z"/>
	</g>
</g>
<g id="Outline_Icons">
	<g>
		<rect x="0.5" y="0.5" class="st2" width="23" height="23"/>
		<line class="st3" x1="11.5" y1="15.5" x2="11.5" y2="19.5"/>
		<line class="st2" x1="0.5" y1="19.5" x2="23.5" y2="19.5"/>
		<path class="st2" d="M13,9.5c0,0,1.1-1.1,2.4-1.1c1.4,0,2.7,0.2,2.9,1.1c-0.1,0.9-1.5,1.1-2.8,1.1C14.3,10.6,13.5,10,13,9.5z"/>
		<path class="st2" d="M10,9.5c0,0-1.1-1.1-2.4-1.1c-1.4,0-2.7,0.2-2.9,1.1c0.1,0.9,1.5,1.1,2.8,1.1C8.7,10.6,9.5,10,10,9.5z"/>
		<path class="st2" d="M10.6,8c0,0,0.4-1.5-0.2-2.6C9.7,4.2,8.8,3.1,8,3.3c-0.7,0.6-0.2,1.9,0.4,3C9.1,7.3,9.9,7.8,10.6,8z"/>
		<path class="st2" d="M12.2,8c0,0-0.4-1.5,0.2-2.6c0.7-1.2,1.5-2.3,2.4-2c0.7,0.6,0.2,1.9-0.4,3C13.8,7.3,12.9,7.8,12.2,8z"/>
		<path class="st2" d="M10.6,11c0,0,0.4,1.5-0.2,2.6c-0.7,1.2-1.5,2.3-2.4,2c-0.7-0.6-0.2-1.9,0.4-3C9.1,11.6,9.9,11.2,10.6,11z"/>
		<path class="st2" d="M12.2,11c0,0-0.4,1.5,0.2,2.6c0.7,1.2,1.5,2.3,2.4,2c0.7-0.6,0.2-1.9-0.4-3C13.8,11.6,12.9,11.2,12.2,11z"/>
	</g>
</g>
</svg>
