<?xml version="1.0" encoding="utf-8"?>
<!-- Generator: Adobe Illustrator 19.2.0, SVG Export Plug-In . SVG Version: 6.00 Build 0)  -->
<svg version="1.1" id="Layer_1" xmlns="http://www.w3.org/2000/svg" xmlns:xlink="http://www.w3.org/1999/xlink" x="0px" y="0px"
	 viewBox="0 0 24 24" style="enable-background:new 0 0 24 24;" xml:space="preserve">
<style type="text/css">
	.st0{display:none;}
	.st1{display:inline;}
	.st2{fill:none;stroke:#000000;stroke-linejoin:round;stroke-miterlimit:10;}
	.st3{fill:none;stroke:#000000;stroke-linecap:round;stroke-linejoin:round;stroke-miterlimit:10;}
</style>
<g id="Filled_Icons" class="st0">
	<g class="st1">
		<g>
			<path d="M5.6,8.5c-0.1,0-0.3,0-0.4-0.1c-0.2-0.2-0.2-0.5,0-0.7c0.5-0.5,0.4-0.8-0.1-1.3c-0.4-0.6-1.1-1.5,0-2.7
				c0.2-0.2,0.5-0.2,0.7,0c0.2,0.2,0.2,0.5,0,0.7C5.4,4.9,5.6,5.2,6,5.8c0.4,0.6,1.1,1.5,0,2.7C5.9,8.5,5.8,8.5,5.6,8.5z"/>
		</g>
		<g>
			<path d="M17.6,8.5c-0.1,0-0.3,0-0.4-0.1c-1.2-1.2-0.4-2.1,0-2.7c0.4-0.6,0.6-0.8,0.1-1.4c-0.2-0.2-0.2-0.5,0-0.7
				c0.2-0.2,0.5-0.2,0.7,0c1.2,1.2,0.5,2.1,0,2.7c-0.4,0.6-0.6,0.8-0.1,1.3c0.2,0.2,0.2,0.5,0,0.7C17.8,8.5,17.7,8.5,17.6,8.5z"/>
		</g>
		<g>
			<path d="M11.6,8.5c-0.1,0-0.3,0-0.4-0.1c-0.2-0.2-0.2-0.5,0-0.7c1.2-1.2,0.7-1.8-0.1-2.8c-0.8-1-1.8-2.4,0-4.2
				c0.2-0.2,0.5-0.2,0.7,0c0.2,0.2,0.2,0.5,0,0.7c-1.2,1.2-0.7,1.9,0.1,2.9c0.7,1,1.8,2.3,0,4.1C11.9,8.5,11.8,8.5,11.6,8.5z"/>
		</g>
		<path d="M20,21c-1.6,0-2.5-0.4-3.1-0.8C16.5,20.1,16.4,20,16,20c-0.4,0-0.8,0.1-1.3,0.4c-0.8,0.3-1.7,0.7-3.1,0.7
			c-1.4,0-2.4-0.4-3.1-0.7C7.9,20.2,7.6,20,7.1,20c-0.3,0-0.5,0.1-0.9,0.3C5.6,20.6,4.8,21,3.2,21c0,0,0,0,0,0l1.3,2
			c0.2,0.6,0.8,1,1.4,1h11.5c0.6,0,1.2-0.4,1.4-1L20,21C20,21,20,21,20,21z"/>
		<path d="M11.6,10C5.9,10,1.4,13.3,0,18.4c0,0.1,0,0.2,0,0.3C0.1,18.8,0.6,20,3.2,20c1.4,0,2.1-0.4,2.7-0.6C6.2,19.2,6.6,19,7.1,19
			c0.6,0,1.1,0.2,1.7,0.4c0.7,0.3,1.6,0.6,2.8,0.6s2-0.3,2.8-0.6c0.6-0.2,1.1-0.4,1.7-0.4c0.6,0,0.9,0.2,1.3,0.4
			c0.6,0.3,1.3,0.6,2.6,0.6c2.6,0,3.1-1.2,3.1-1.4c0-0.1,0-0.2,0-0.3C21.8,13.3,17.3,10,11.6,10z M8.4,14.7C8.2,15,7.9,15.1,7.7,15
			c-0.3-0.1-0.4-0.4-0.3-0.7C7.5,14,8.6,13,8.6,13S8.5,14.4,8.4,14.7z M11.6,15c-0.3,0-0.5-0.2-0.5-0.5s0.5-1.5,0.5-1.5
			s0.5,1.2,0.5,1.5C12.1,14.8,11.9,15,11.6,15z M15.5,14.9c-0.3,0.1-0.5,0-0.7-0.3c-0.1-0.3-0.1-1.6-0.1-1.6s1,0.9,1.1,1.2
			C15.9,14.5,15.8,14.8,15.5,14.9z"/>
	</g>
</g>
<g id="Outline_Icons">
	<g>
		<path class="st2" d="M20.5,19.5l-2.2,3.3c-0.1,0.4-0.5,0.7-1,0.7H5.9c-0.4,0-0.8-0.3-1-0.7l-2.2-3.3"/>
		<g>
			<path d="M8.6,13c0,0-1,1-1.2,1.2c-0.1,0.3,0,0.6,0.3,0.7c0.1,0,0.1,0,0.2,0c0.2,0,0.4-0.1,0.5-0.3C8.5,14.4,8.6,13,8.6,13L8.6,13
				z"/>
		</g>
		<g>
			<path d="M11.6,13c0,0-0.5,1.2-0.5,1.5c0,0.3,0.2,0.5,0.5,0.5s0.5-0.2,0.5-0.5S11.6,13,11.6,13L11.6,13z"/>
		</g>
		<g>
			<path d="M14.7,13.1c0,0,0,1.3,0.2,1.6c0.1,0.2,0.3,0.3,0.5,0.3c0.1,0,0.1,0,0.2,0c0.3-0.1,0.4-0.4,0.3-0.7
				C15.7,14,14.7,13.1,14.7,13.1L14.7,13.1z"/>
		</g>
		<path class="st3" d="M5.6,4c-1.7,1.7,1.7,2.3,0,4"/>
		<path class="st3" d="M17.6,4c1.7,1.7-1.7,2.3,0,4"/>
		<path class="st3" d="M11.6,1c-3,3,3,4.1,0,7"/>
		<path class="st2" d="M11.6,10.5c5.3,0,9.7,3,11,8c0,0-0.4,1-2.7,1c-2.3,0-2.4-1-3.9-1c-1.5,0-2.4,1-4.4,1c-2,0-2.9-1-4.5-1
			c-1.5,0-1.7,1-4,1s-2.7-1-2.7-1C1.8,13.5,6.3,10.5,11.6,10.5z"/>
	</g>
</g>
</svg>
