<?xml version="1.0" encoding="utf-8"?>
<!-- Generator: Adobe Illustrator 19.2.0, SVG Export Plug-In . SVG Version: 6.00 Build 0)  -->
<svg version="1.1" id="Layer_1" xmlns="http://www.w3.org/2000/svg" xmlns:xlink="http://www.w3.org/1999/xlink" x="0px" y="0px"
	 viewBox="0 0 24 24" style="enable-background:new 0 0 24 24;" xml:space="preserve">
<style type="text/css">
	.st0{display:none;}
	.st1{display:inline;}
	.st2{fill:none;stroke:#000000;stroke-linecap:round;stroke-linejoin:round;stroke-miterlimit:10;}
</style>
<g id="Filled_Icon" class="st0">
	<path class="st1" d="M23.5,9C23.2,9,23,9.2,23,9.5c0,0.7-0.4,1.2-1,1.4C21.6,6.5,17.3,3,12,3c-0.7,0-1.5,0.1-2.2,0.2
		C9,2.1,7.8,1.5,6.5,1.5c-0.7,0-1.4,0.2-2,0.5C4.3,2.1,4.2,2.3,4.2,2.5s0.1,0.3,0.2,0.4C5.2,3.3,5.7,4,5.9,4.8C3.9,6.1,2.6,8,2.1,10
		H0.5C0.2,10,0,10.2,0,10.5v4C0,14.8,0.2,15,0.5,15h2.4c1,1.8,2.6,3.2,4.6,4.1V22c0,0.3,0.2,0.5,0.5,0.5s0.5-0.2,0.5-0.5v-2.5
		C9.6,19.8,10.8,20,12,20s2.4-0.2,3.5-0.5V22c0,0.3,0.2,0.5,0.5,0.5c0.3,0,0.5-0.2,0.5-0.5v-2.9c3.1-1.3,5.3-4,5.5-7.1
		c1.2-0.2,2-1.2,2-2.5C24,9.2,23.8,9,23.5,9z M6,11c-0.6,0-1-0.4-1-1s0.4-1,1-1s1,0.4,1,1S6.6,11,6,11z M16.9,7.8
		C16.8,7.9,16.7,8,16.5,8c-0.1,0-0.2,0-0.3-0.1c-1.3-1-3-1.5-4.7-1.4C11.3,6.5,11,6.3,11,6s0.2-0.5,0.5-0.5c1.9-0.1,3.8,0.4,5.3,1.6
		C17,7.3,17.1,7.6,16.9,7.8z"/>
</g>
<g id="Outline_Icons">
	<g>
		<path class="st2" d="M11.5,6c1.8-0.1,3.5,0.4,5,1.5"/>
		<path class="st2" d="M23.5,9.5c0,1.1-0.9,2-2,2"/>
		<path class="st2" d="M12,3.5c-0.9,0-1.7,0.1-2.5,0.3C8.9,2.7,7.8,2,6.5,2C5.9,2,5.3,2.2,4.8,2.5C5.7,3,6.3,3.9,6.5,5
			c-2.1,1.3-3.6,3.2-3.9,5.5H0.5v4h2.7c1.4,2.9,4.8,5,8.8,5c5.2,0,9.5-3.6,9.5-8S17.2,3.5,12,3.5z"/>
		<circle class="st2" cx="6" cy="10" r="0.5"/>
		<line class="st2" x1="7.5" y1="18.8" x2="7.5" y2="22"/>
		<line class="st2" x1="16.5" y1="18.7" x2="16.5" y2="22"/>
	</g>
</g>
</svg>
