<?xml version="1.0" encoding="utf-8"?>
<!-- Generator: Adobe Illustrator 19.2.0, SVG Export Plug-In . SVG Version: 6.00 Build 0)  -->
<svg version="1.1" id="Layer_1" xmlns="http://www.w3.org/2000/svg" xmlns:xlink="http://www.w3.org/1999/xlink" x="0px" y="0px"
	 viewBox="0 0 24 24" style="enable-background:new 0 0 24 24;" xml:space="preserve">
<style type="text/css">
	.st0{display:none;}
	.st1{display:inline;}
	.st2{fill:none;stroke:#000000;stroke-linecap:round;stroke-linejoin:round;stroke-miterlimit:10;}
</style>
<g id="Filled_Icons" class="st0">
	<g class="st1">
		<path d="M0.1,23.9c0.2,0.2,0.5,0.2,0.7,0l8.6-8.6l4.1,4.1c0.1,0.1,0.2,0.1,0.4,0.1c0.1,0,0.3,0,0.4-0.1l1.5-1.5
			c0.1-0.1,0.1-0.2,0.1-0.4v-3.8l4.5-4.5l0.6,0.6c0.2,0.2,0.5,0.2,0.7,0l2-2c0.2-0.2,0.2-0.5,0-0.7l-7-7c-0.2-0.2-0.5-0.2-0.7,0
			l-2,2c-0.2,0.2-0.2,0.5,0,0.7l0.6,0.6L10.3,8H6.5C6.4,8,6.2,8.1,6.1,8.1L4.6,9.6c-0.2,0.2-0.2,0.5,0,0.7l4.1,4.1l-8.6,8.6
			C0,23.3,0,23.7,0.1,23.9z"/>
	</g>
</g>
<g id="Outline_Icons">
	<g>
		<line class="st2" x1="9.5" y1="14.5" x2="0.5" y2="23.5"/>
		<polygon class="st2" points="21.5,9.5 23.5,7.5 16.5,0.5 14.5,2.5 15.5,3.5 10.5,8.5 6.5,8.5 5,10 14,19 15.5,17.5 15.5,13.5 
			20.5,8.5 		"/>
	</g>
</g>
</svg>
