<?xml version="1.0" encoding="utf-8"?>
<!-- Generator: Adobe Illustrator 19.2.0, SVG Export Plug-In . SVG Version: 6.00 Build 0)  -->
<svg version="1.1" id="Layer_1" xmlns="http://www.w3.org/2000/svg" xmlns:xlink="http://www.w3.org/1999/xlink" x="0px" y="0px"
	 viewBox="0 0 24 24" style="enable-background:new 0 0 24 24;" xml:space="preserve">
<style type="text/css">
	.st0{display:none;}
	.st1{display:inline;}
	.st2{fill:none;stroke:#000000;stroke-linejoin:round;stroke-miterlimit:10;}
	.st3{fill:none;stroke:#000000;stroke-linecap:round;stroke-linejoin:round;stroke-miterlimit:10;}
</style>
<g id="Filled_Icons" class="st0">
	<g class="st1">
		<circle cx="5.5" cy="3.5" r="3"/>
		<g>
			<path d="M5,9.2c0,0.3,0,0.6,0,1c0,1.5,0.4,3,1,4.2L1.4,19c-0.5,0.5-0.7,1.1-0.7,1.8c0,0.7,0.3,1.3,0.7,1.8l0.7,0.7
				C2.6,23.8,3.2,24,3.9,24s1.3-0.3,1.8-0.7l4.6-4.6c1.3,0.6,2.7,1,4.2,1c0.3,0,0.7,0,1-0.1L5,9.2z"/>
			<path d="M14.5,0.6c-1.9,0-3.7,0.6-5.2,1.6C9.4,2.6,9.5,3,9.5,3.5c0,2.2-1.8,4-4,4H5.4c0,0.2-0.1,0.3-0.1,0.5l11.4,11.4
				c4.2-1,7.3-4.8,7.3-9.2C24,4.9,19.7,0.6,14.5,0.6z"/>
		</g>
	</g>
</g>
<g id="Outline_Icons">
	<g>
		<circle class="st2" cx="5.5" cy="3.5" r="2.5"/>
		<path class="st3" d="M5.8,8c-0.5,2.2-0.2,4.5,0.9,6.5l-4.9,4.9c-0.8,0.8-0.8,2,0,2.8l0.7,0.7c0.8,0.8,2,0.8,2.8,0l4.9-4.9
			c3.4,1.9,7.8,1.4,10.7-1.5c3.5-3.5,3.5-9.2,0-12.7C18,0.9,13.5,0.4,10.1,2.3"/>
		<line class="st2" x1="5.6" y1="9" x2="15.6" y2="19.1"/>
	</g>
</g>
</svg>
