<?xml version="1.0" encoding="utf-8"?>
<!-- Generator: Adobe Illustrator 19.2.0, SVG Export Plug-In . SVG Version: 6.00 Build 0)  -->
<svg version="1.1" id="Layer_1" xmlns="http://www.w3.org/2000/svg" xmlns:xlink="http://www.w3.org/1999/xlink" x="0px" y="0px"
	 viewBox="0 0 24 24" style="enable-background:new 0 0 24 24;" xml:space="preserve">
<style type="text/css">
	.st0{display:none;}
	.st1{display:inline;}
	.st2{fill:none;stroke:#000000;stroke-linejoin:round;stroke-miterlimit:10;}
	.st3{fill:none;stroke:#000000;stroke-linecap:round;stroke-linejoin:round;stroke-miterlimit:10;}
</style>
<g id="Filled_Icons" class="st0">
	<g class="st1">
		<path d="M23.5,0c-8.1,0-9.3,10.6-9.5,13H4.5C3.7,13,3,13.7,3,14.5V18c0,3.3,2.7,6,6,6s6-2.7,6-6v-4.5C15,13.4,15.4,1,23.5,1
			C23.8,1,24,0.8,24,0.5C24,0.2,23.8,0,23.5,0z"/>
		<circle cx="8.9" cy="10.5" r="1.5"/>
		<path d="M5.3,7.8C5.7,8.3,6.3,8.5,7,8.5c1.4,0,2.5-1.1,2.5-2.5c0-1-0.6-1.9-1.5-2.3C7.8,1.6,6.1,0,4,0C1.8,0,0,1.8,0,4s1.8,4,4,4
			C4.4,8,4.9,7.9,5.3,7.8z"/>
	</g>
</g>
<g id="Outline_Icons">
	<g>
		<path class="st2" d="M3.5,14.5c0-0.6,0.4-1,1-1h10V18c0,3-2.5,5.5-5.5,5.5S3.5,21,3.5,18V14.5z"/>
		<path class="st3" d="M14.5,13.5c0,0,0.3-13,9-13"/>
		<circle class="st3" cx="8.9" cy="10.5" r="1"/>
		<path class="st3" d="M7.5,4.1C7.5,4,7.5,4,7.5,4.1c0-2-1.6-3.6-3.5-3.6S0.5,2.1,0.5,4c0,1.9,1.6,3.5,3.5,3.5c0.5,0,1-0.1,1.4-0.3
			C5.8,7.7,6.3,8,7,8c1.1,0,2-0.9,2-2C9,5.1,8.4,4.3,7.5,4.1z"/>
	</g>
</g>
</svg>
