<?xml version="1.0" encoding="utf-8"?>
<!-- Generator: Adobe Illustrator 19.2.0, SVG Export Plug-In . SVG Version: 6.00 Build 0)  -->
<svg version="1.1" id="Layer_1" xmlns="http://www.w3.org/2000/svg" xmlns:xlink="http://www.w3.org/1999/xlink" x="0px" y="0px"
	 viewBox="0 0 24 24" style="enable-background:new 0 0 24 24;" xml:space="preserve">
<style type="text/css">
	.st0{display:none;}
	.st1{display:inline;}
	.st2{fill:none;stroke:#000000;stroke-linejoin:round;stroke-miterlimit:10;}
	.st3{fill:none;stroke:#000000;stroke-linecap:round;stroke-linejoin:round;stroke-miterlimit:10;}
</style>
<g id="Filled_Icons" class="st0">
	<g class="st1">
		<path d="M23.4,18l0.6-3.4c0-0.1,0-0.3-0.1-0.4c-0.1-0.1-0.2-0.2-0.4-0.2c-3.4,0-3.9-2.1-4.6-4.7C18.2,6.3,17.4,3,12,3
			C6.5,3,5.8,6.3,5,9.3C4.4,11.9,3.9,14,0.5,14c-0.1,0-0.3,0.1-0.4,0.2C0,14.3,0,14.4,0,14.6L0.6,18H23.4z M7.5,9.5
			C7.2,9.5,7,9.3,7,9c0-0.3,0.2-0.5,0.5-0.5h1v-1C8.5,7.2,8.7,7,9,7s0.5,0.2,0.5,0.5v1.3l2.5,2.5l2.5-2.5V7.5C14.5,7.2,14.7,7,15,7
			s0.5,0.2,0.5,0.5v1h1C16.8,8.5,17,8.7,17,9c0,0.3-0.2,0.5-0.5,0.5h-1.3L12.7,12l2.5,2.5h1.3c0.3,0,0.5,0.2,0.5,0.5
			c0,0.3-0.2,0.5-0.5,0.5h-1v1c0,0.3-0.2,0.5-0.5,0.5s-0.5-0.2-0.5-0.5v-1.3L12,12.7l-2.5,2.5v1.3C9.5,16.8,9.3,17,9,17
			s-0.5-0.2-0.5-0.5v-1h-1C7.2,15.5,7,15.3,7,15c0-0.3,0.2-0.5,0.5-0.5h1.3l2.5-2.5L8.8,9.5C8.8,9.5,7.5,9.5,7.5,9.5z"/>
		<path d="M0.7,19L1,20.6C1,20.8,1.3,21,1.5,21h21c0.2,0,0.5-0.2,0.5-0.4l0.3-1.6H0.7z"/>
	</g>
</g>
<g id="Outline_Icons">
	<g>
		<path class="st2" d="M0.5,14.5c8,0,1.8-11,11.5-11c9.7,0,3.5,11,11.5,11l-1,6h-21L0.5,14.5z"/>
		<line class="st2" x1="1.2" y1="18.5" x2="22.8" y2="18.5"/>
		<g>
			<polyline class="st3" points="9,7.5 9,9 15,15 			"/>
			<line class="st3" x1="7.5" y1="9" x2="9" y2="9"/>
			<line class="st3" x1="15" y1="15" x2="16.5" y2="15"/>
			<line class="st3" x1="15" y1="15" x2="15" y2="16.5"/>
		</g>
		<g>
			<polyline class="st3" points="16.5,9 15,9 9,15 			"/>
			<line class="st3" x1="15" y1="7.5" x2="15" y2="9"/>
			<line class="st3" x1="9" y1="15" x2="9" y2="16.5"/>
			<line class="st3" x1="9" y1="15" x2="7.5" y2="15"/>
		</g>
	</g>
</g>
</svg>
