<?xml version="1.0" encoding="utf-8"?>
<!-- Generator: Adobe Illustrator 19.2.0, SVG Export Plug-In . SVG Version: 6.00 Build 0)  -->
<svg version="1.1" id="Layer_1" xmlns="http://www.w3.org/2000/svg" xmlns:xlink="http://www.w3.org/1999/xlink" x="0px" y="0px"
	 viewBox="0 0 24 24" style="enable-background:new 0 0 24 24;" xml:space="preserve">
<style type="text/css">
	.st0{display:none;}
	.st1{display:inline;}
	.st2{fill:none;stroke:#000000;stroke-linecap:round;stroke-linejoin:round;stroke-miterlimit:10;}
	.st3{fill:none;stroke:#000000;stroke-linejoin:round;stroke-miterlimit:10;}
</style>
<g id="Filled_Icons" class="st0">
	<g class="st1">
		<path d="M18.2,7.8c-0.2-0.2-0.5-0.2-0.7,0L12,13.3V5.5C12,5.2,11.8,5,11.5,5C6.3,5,2,9.3,2,14.5S6.3,24,11.5,24s9.5-4.3,9.5-9.5
			C21,12,20,9.6,18.2,7.8z M15.2,10.8l0.3,0.2c0.4,0.4,0.4,1.1,0,1.5c-0.4,0.4-1.1,0.4-1.5,0l-0.3-0.2L15.2,10.8z M17,15.5
			c0,0.8-0.7,1.5-1.5,1.5c-0.8,0-1.5-0.7-1.5-1.5c0-0.8,0.7-1.5,1.5-1.5C16.3,14,17,14.7,17,15.5z M12,17c0.8,0,1.5,0.7,1.5,1.5
			c0,0.8-0.7,1.5-1.5,1.5c-0.8,0-1.5-0.7-1.5-1.5C10.5,17.7,11.2,17,12,17z M9,12.5c-0.8,0-1.5-0.7-1.5-1.5c0-0.8,0.7-1.5,1.5-1.5
			c0.8,0,1.5,0.7,1.5,1.5C10.5,11.8,9.8,12.5,9,12.5z M9.5,15.5C9.5,16.3,8.8,17,8,17c-0.8,0-1.5-0.7-1.5-1.5C6.5,14.7,7.2,14,8,14
			C8.8,14,9.5,14.7,9.5,15.5z M11.5,23C6.8,23,3,19.2,3,14.5C3,10,6.5,6.3,11,6v1.5c-3.6,0.3-6.5,3.3-6.5,7c0,3.9,3.1,7,7,7
			s7-3.1,7-7c0-1.8-0.6-3.4-1.7-4.6l1.1-1.1c1.4,1.6,2.1,3.5,2.1,5.6C20,19.2,16.2,23,11.5,23z"/>
		<path d="M13.3,10c0.2,0.1,0.4,0,0.5-0.1l6.4-6.5c0.1-0.1,0.1-0.2,0.1-0.4c0-0.1-0.1-0.3-0.2-0.4C18.4,0.9,16,0,13.5,0
			C13.2,0,13,0.2,13,0.5v2v7C13,9.7,13.1,9.9,13.3,10z M15.7,7.2L15.5,7c-0.4-0.4-0.4-1.1,0-1.5c0.4-0.4,1.1-0.4,1.5,0l0.3,0.2
			L15.7,7.2z M14,1c1.9,0.1,3.7,0.8,5.1,2l-0.7,0.7c-1.2-1-2.7-1.6-4.4-1.7V1z"/>
	</g>
</g>
<g id="Outline_Icons">
	<g>
		<path class="st2" d="M13.5,0.5c2.5,0,4.7,1,6.4,2.5l0,0l-6.4,6.5C13.5,9.5,13.5,0.5,13.5,0.5z"/>
		<path class="st2" d="M17.9,8.1l-6.4,6.4v-9c-5,0-9,4-9,9c0,5,4,9,9,9s9-4,9-9C20.5,12,19.5,9.8,17.9,8.1z"/>
		<path class="st2" d="M16.4,9.6l-4.9,5v-7c-3.9,0-7,3.1-7,7s3.1,7,7,7s7-3.1,7-7C18.5,12.6,17.7,10.8,16.4,9.6z"/>
		<path class="st2" d="M13.5,2.5c1.9,0,3.7,0.8,4.9,2"/>
		<circle class="st2" cx="9" cy="11" r="1"/>
		<circle class="st2" cx="8" cy="15.5" r="1"/>
		<circle class="st2" cx="12" cy="18.5" r="1"/>
		<circle class="st2" cx="15.5" cy="15.5" r="1"/>
		<path class="st3" d="M15.2,10.8l0.3,0.2c0.4,0.4,0.4,1.1,0,1.5s-1.1,0.4-1.5,0l-0.3-0.2"/>
		<path class="st2" d="M17.3,5.7L17,5.5c-0.4-0.4-1.1-0.4-1.5,0c-0.4,0.4-0.4,1.1,0,1.5l0.3,0.2"/>
	</g>
</g>
</svg>
