<?xml version="1.0" encoding="utf-8"?>
<!-- Generator: Adobe Illustrator 19.2.0, SVG Export Plug-In . SVG Version: 6.00 Build 0)  -->
<svg version="1.1" id="Layer_1" xmlns="http://www.w3.org/2000/svg" xmlns:xlink="http://www.w3.org/1999/xlink" x="0px" y="0px"
	 viewBox="0 0 24 24" style="enable-background:new 0 0 24 24;" xml:space="preserve">
<style type="text/css">
	.st0{display:none;}
	.st1{display:inline;}
	.st2{fill:none;stroke:#000000;stroke-linejoin:round;stroke-miterlimit:10;}
</style>
<g id="Filled_Icons" class="st0">
	<g class="st1">
		<g>
			<path d="M15.7,15.3c-1.8,1.8-3.7,3.4-5.4,4.7c0.6,0.1,1.2,0.2,1.9,0.2c4.4,0,8-3.6,8-8c0-0.6-0.1-1.2-0.2-1.8
				C18.8,12.1,17.3,13.7,15.7,15.3z"/>
			<path d="M7.2,18.6c2-1.3,4.2-3.2,6.4-5.4c1.9-1.9,3.6-3.9,4.9-5.8c-1.5-1.9-3.8-3.2-6.3-3.2c-0.2,0-0.3,0-0.5,0
				c0.6,0.5,1,1.2,1,2c0,1.4-1.1,2.5-2.5,2.5c-1.4,0-2.5-1.1-2.5-2.5c0-0.2,0-0.5,0.1-0.7c-2.2,1.4-3.6,3.9-3.6,6.7
				C4.2,14.8,5.4,17.1,7.2,18.6z M14.2,8.3c0.6,0,1,0.4,1,1s-0.4,1-1,1c-0.6,0-1-0.4-1-1S13.6,8.3,14.2,8.3z M8.5,10.5
				c1.4,0,2.5,1.1,2.5,2.5s-1.1,2.5-2.5,2.5S6,14.4,6,13S7.1,10.5,8.5,10.5z"/>
		</g>
		<path d="M22.4,1.5c-1.4-1.4-4.9,0.7-7.1,2.3C15.7,4,16,4.2,16.4,4.3c3.2-2.2,5-2.5,5.4-2.1c0.3,0.3,0.2,1.6-1.2,4
			c-1.4,2.3-3.6,5-6.2,7.6c-5.9,5.9-10.8,8.3-11.7,7.4c-0.4-0.4-0.1-1.9,1.7-4.7c-0.2-0.3-0.3-0.7-0.5-1.1c-1.5,2.3-3.1,5.3-1.9,6.5
			c0.3,0.3,0.7,0.4,1.2,0.4c2.6,0,7.6-3.6,11.8-7.9c2.7-2.7,4.9-5.4,6.4-7.8C22.9,4.2,23.3,2.4,22.4,1.5z"/>
	</g>
</g>
<g id="Outline_Icons">
	<g>
		<circle class="st2" cx="12.2" cy="12.3" r="7.5"/>
		<path class="st2" d="M14.4,5.1c3.6-2.8,6.7-4.2,7.7-3.2c1.4,1.4-2,6.9-7.4,12.4c-5.5,5.5-11,8.8-12.4,7.4c-0.9-0.9,0.3-3.7,2.8-7"
			/>
		<path class="st2" d="M11.5,4.8c0.4,0.4,0.7,0.9,0.7,1.5c0,1.1-0.9,2-2,2S8,7.6,8.2,5.9"/>
		<circle class="st2" cx="9.2" cy="13.3" r="2"/>
		<circle class="st2" cx="14.2" cy="9.3" r="0.5"/>
	</g>
</g>
</svg>
