<?xml version="1.0" encoding="utf-8"?>
<!-- Generator: Adobe Illustrator 19.2.0, SVG Export Plug-In . SVG Version: 6.00 Build 0)  -->
<svg version="1.1" id="Layer_1" xmlns="http://www.w3.org/2000/svg" xmlns:xlink="http://www.w3.org/1999/xlink" x="0px" y="0px"
	 viewBox="0 0 24 24" style="enable-background:new 0 0 24 24;" xml:space="preserve">
<style type="text/css">
	.st0{display:none;}
	.st1{display:inline;}
	.st2{fill:none;stroke:#000000;stroke-linejoin:round;stroke-miterlimit:10;}
	.st3{fill:none;stroke:#000000;stroke-linecap:round;stroke-linejoin:round;stroke-miterlimit:10;}
</style>
<g id="Filled_Icons" class="st0">
	<path class="st1" d="M17.3,16c0.9,0,1.9-0.5,2.7-1.3c1.3-1.5,2-5.5,1-7.7c-0.1-0.1-0.2-0.2-0.3-0.3c-0.1,0-0.3,0-0.4,0.1
		c-1,0.8-2,1-2.9,1.3c-0.8,0.2-1.7,0.4-2.6,1c-1,0.6-1.5,1.5-1.5,2.4c0,0.4,0.1,0.9,0.5,1.4c-0.2,0.3-0.4,0.6-0.6,0.9
		c-0.4-0.9-0.9-2-1.6-3.1c0.7-0.5,1.1-1.1,1.2-1.8c0.3-1.1-0.2-2.4-1.3-3.7c-1-1.2-2.5-1.7-4-2.1C6.2,2.6,4.8,2.2,3.6,1.2
		C3.5,1.1,3.3,1.1,3.2,1.1C3,1.1,2.9,1.2,2.8,1.3C1.3,4.3,2,9.7,3.7,11.7c1.1,1.4,2.4,2.1,3.5,2.1c0.8,0,1.5-0.3,2.1-1
		c1,1.8,1.5,3.3,1.8,4.2H8.5c-0.2,0-0.3,0.1-0.4,0.2c-0.1,0.1-0.1,0.3,0,0.5l2,6c0.1,0.2,0.3,0.3,0.5,0.3h5c0.2,0,0.4-0.1,0.5-0.3
		l2-6c0.1-0.2,0-0.3-0.1-0.5c-0.1-0.1-0.2-0.2-0.4-0.2h-2.9c0.2-0.5,0.6-1.1,1-1.7C16.2,15.8,16.8,16,17.3,16z M13.5,17h-1.4
		c-0.5-1.7-2.3-6.9-6.8-11C5.1,5.8,5,5.5,5.2,5.3s0.5-0.2,0.7,0c4.3,3.9,6.2,8.5,6.9,10.8c0.8-1.5,2.4-4.1,4.8-5.3
		c0.2-0.1,0.5,0,0.7,0.2c0.1,0.2,0,0.5-0.2,0.7C15.7,12.9,14.1,15.7,13.5,17z"/>
</g>
<g id="Outline_Icons">
	<g>
		<polygon class="st2" points="15.5,23.5 10.5,23.5 8.5,17.5 17.5,17.5 		"/>
		<path class="st3" d="M15,9.5c-1.4,0.9-2.1,2.6,0,4c1.1,2.9,3.3,2.1,4.5,0.8c1.3-1.3,1.9-5,1-7.1C18.6,8.7,16.8,8.4,15,9.5z"/>
		<path class="st3" d="M11.1,5.5c1.5,1.7,2.3,4-1.3,5.6c-1.6,3.6-4.1,2.3-5.7,0.3C2.5,9.5,1.8,4.3,3.3,1.6C5.9,3.8,9.2,3.3,11.1,5.5
			z"/>
		<path class="st3" d="M17.9,11.2c-3.4,1.7-5.1,6.3-5.1,6.3s-1.4-6.7-7.2-11.9"/>
	</g>
</g>
</svg>
