<?xml version="1.0" encoding="utf-8"?>
<!-- Generator: Adobe Illustrator 19.2.0, SVG Export Plug-In . SVG Version: 6.00 Build 0)  -->
<svg version="1.1" id="Layer_1" xmlns="http://www.w3.org/2000/svg" xmlns:xlink="http://www.w3.org/1999/xlink" x="0px" y="0px"
	 viewBox="0 0 24 24" style="enable-background:new 0 0 24 24;" xml:space="preserve">
<style type="text/css">
	.st0{display:none;}
	.st1{display:inline;}
	.st2{fill:none;stroke:#000000;stroke-linecap:round;stroke-linejoin:round;stroke-miterlimit:10;}
</style>
<g id="Filled_Icon" class="st0">
	<g class="st1">
		<g>
			<path d="M12,18.5c0-2.1,1.5-3.9,3.5-4.4c0-0.4,0.1-0.9,0.4-1.2c0.6-0.6,1.5-0.6,2.1,0l0.9,0.9V0.5C19,0.2,18.8,0,18.5,0h-18
				C0.2,0,0,0.2,0,0.5v18C0,18.8,0.2,19,0.5,19h11.6C12,18.8,12,18.7,12,18.5z M8.5,10.5C8.5,8.6,9.8,8,11,8h1.5V3.4l-5,3.3v7.7
				C7.5,16,6,16,5,16c-1.2,0-2.5-0.7-2.5-2.5C2.5,11.6,3.8,11,5,11h1.5V6.5c0-0.2,0.1-0.3,0.2-0.4l6-4c0.2-0.1,0.4-0.1,0.5,0
				c0.2,0.1,0.3,0.3,0.3,0.4v9C13.5,13,12,13,11,13C9.8,13,8.5,12.3,8.5,10.5z"/>
		</g>
		<g>
			<path d="M19,15.7c0.1-0.1,0.1-0.3,0-0.4c0-0.1-0.1-0.1-0.1-0.2l-1.5-1.5c-0.2-0.2-0.5-0.2-0.7,0s-0.2,0.5,0,0.7l0.6,0.6h-0.8
				c-1.9,0-3.5,1.6-3.5,3.5c0,1.9,1.6,3.5,3.5,3.5c0.3,0,0.5-0.2,0.5-0.5s-0.2-0.5-0.5-0.5c-1.4,0-2.5-1.1-2.5-2.5s1.1-2.5,2.5-2.5
				h0.8l-0.6,0.6c-0.2,0.2-0.2,0.5,0,0.7c0.1,0.1,0.2,0.1,0.4,0.1c0.1,0,0.3,0,0.4-0.1L19,15.7C18.9,15.8,18.9,15.8,19,15.7z"/>
			<path d="M20.5,15c-0.3,0-0.5,0.2-0.5,0.5s0.2,0.5,0.5,0.5c1.4,0,2.5,1.1,2.5,2.5S21.9,21,20.5,21h-0.8l0.6-0.6
				c0.2-0.2,0.2-0.5,0-0.7s-0.5-0.2-0.7,0l-1.5,1.5c0,0-0.1,0.1-0.1,0.2c-0.1,0.1-0.1,0.3,0,0.4c0,0.1,0.1,0.1,0.1,0.2l1.5,1.5
				c0.1,0.1,0.2,0.1,0.4,0.1c0.1,0,0.3,0,0.4-0.1c0.2-0.2,0.2-0.5,0-0.7L19.7,22h0.8c1.9,0,3.5-1.6,3.5-3.5S22.4,15,20.5,15z"/>
		</g>
	</g>
</g>
<g id="Outline_Icons">
	<g>
		<g>
			<path class="st2" d="M7,14.5c0,1-1,1-2,1s-2-0.5-2-2s1-2,2-2s1.5,0,2,0C7,12.5,7,13.5,7,14.5z"/>
			<polyline class="st2" points="7,13 7,6.5 13,2.5 13,9 			"/>
			<polyline class="st2" points="11.5,18.5 0.5,18.5 0.5,0.5 18.5,0.5 18.5,12 			"/>
			<path class="st2" d="M13,11.5c0,1-1,1-2,1s-2-0.5-2-2s1-2,2-2s1.5,0,2,0C13,9.5,13,10.5,13,11.5z"/>
		</g>
		<g>
			<path class="st2" d="M16.5,21.5c-1.7,0-3-1.3-3-3l0,0c0-1.7,1.3-3,3-3h2"/>
			<path class="st2" d="M20.5,15.5c1.7,0,3,1.3,3,3l0,0c0,1.7-1.3,3-3,3h-2"/>
			<polyline class="st2" points="17,14 18.5,15.5 17,17 			"/>
			<polyline class="st2" points="20,20 18.5,21.5 20,23 			"/>
		</g>
	</g>
</g>
</svg>
