<?xml version="1.0" encoding="utf-8"?>
<!-- Generator: Adobe Illustrator 19.2.0, SVG Export Plug-In . SVG Version: 6.00 Build 0)  -->
<svg version="1.1" id="Layer_1" xmlns="http://www.w3.org/2000/svg" xmlns:xlink="http://www.w3.org/1999/xlink" x="0px" y="0px"
	 viewBox="0 0 24 24" style="enable-background:new 0 0 24 24;" xml:space="preserve">
<style type="text/css">
	.st0{display:none;}
	.st1{display:inline;}
	.st2{fill:none;stroke:#000000;stroke-linecap:round;stroke-linejoin:round;stroke-miterlimit:10;}
	.st3{fill:none;stroke:#000000;stroke-linejoin:round;stroke-miterlimit:10;}
</style>
<g id="Filled_Icon" class="st0">
	<g class="st1">
		<path d="M12.5,17.8c0-2.5,1.9-4,3.7-4c0.9,0,1.6,0.3,2.3,0.8c0.2-0.1,0.3-0.3,0.5-0.4V0.5C19,0.2,18.8,0,18.5,0h-18
			C0.2,0,0,0.2,0,0.5v18C0,18.8,0.2,19,0.5,19h12.2C12.6,18.6,12.5,18.2,12.5,17.8z M8.5,10.5C8.5,8.6,9.8,8,11,8h1.5V3.4l-5,3.3
			v7.7C7.5,16,6,16,5,16c-1.2,0-2.5-0.7-2.5-2.5C2.5,11.6,3.8,11,5,11h1.5V6.5c0-0.2,0.1-0.3,0.2-0.4l6-4c0.2-0.1,0.4-0.1,0.5,0
			c0.2,0.1,0.3,0.3,0.3,0.4v9C13.5,13,12,13,11,13C9.8,13,8.5,12.3,8.5,10.5z"/>
		<path d="M20.8,14.8c-0.8,0-1.7,0.4-2.3,1.4c-0.6-1-1.5-1.4-2.3-1.4c-1.3,0-2.7,1.1-2.7,3c0,2.6,4.2,5.8,4.7,6.1
			c0.1,0.1,0.2,0.1,0.3,0.1c0.1,0,0.2,0,0.3-0.1c0.5-0.3,4.7-3.5,4.7-6.1C23.5,15.9,22.1,14.8,20.8,14.8z"/>
	</g>
</g>
<g id="Outline_Icons">
	<g>
		<g>
			<path class="st2" d="M7,14.5c0,1-1,1-2,1s-2-0.5-2-2s1-2,2-2s1.5,0,2,0C7,12.5,7,13.5,7,14.5z"/>
			<polyline class="st2" points="7,13 7,6.5 13,2.5 13,9 			"/>
			<polyline class="st2" points="11.5,18.5 0.5,18.5 0.5,0.5 18.5,0.5 18.5,13 			"/>
			<path class="st2" d="M13,11.5c0,1-1,1-2,1s-2-0.5-2-2s1-2,2-2s1.5,0,2,0C13,9.5,13,10.5,13,11.5z"/>
		</g>
		<g>
			<path class="st3" d="M18.5,23.5c0,0,4.5-3.3,4.5-5.7c0-2.8-3.7-3.7-4.5-0.3C17.7,14.1,14,15,14,17.8C14,20.2,18.5,23.5,18.5,23.5
				z"/>
		</g>
	</g>
</g>
</svg>
