<?xml version="1.0" encoding="utf-8"?>
<!-- Generator: Adobe Illustrator 19.2.0, SVG Export Plug-In . SVG Version: 6.00 Build 0)  -->
<svg version="1.1" id="Layer_1" xmlns="http://www.w3.org/2000/svg" xmlns:xlink="http://www.w3.org/1999/xlink" x="0px" y="0px"
	 viewBox="0 0 24 24" style="enable-background:new 0 0 24 24;" xml:space="preserve">
<style type="text/css">
	.st0{display:none;}
	.st1{display:inline;}
	.st2{fill:none;stroke:#000000;stroke-linecap:round;stroke-linejoin:round;stroke-miterlimit:10;}
	.st3{fill:none;stroke:#000000;stroke-linejoin:round;stroke-miterlimit:10;}
</style>
<g id="Filled_Icon" class="st0">
	<g class="st1">
		<path d="M13,16.5c0-0.8,0.7-1.5,1.5-1.5h0.1c0.3-2.2,2.1-4,4.4-4V0.5C19,0.2,18.8,0,18.5,0h-18C0.2,0,0,0.2,0,0.5v18
			C0,18.8,0.2,19,0.5,19H13V16.5z M8.5,10.5C8.5,8.6,9.8,8,11,8h1.5V3.4l-5,3.3v7.7C7.5,16,6,16,5,16c-1.2,0-2.5-0.7-2.5-2.5
			C2.5,11.6,3.8,11,5,11h1.5V6.5c0-0.2,0.1-0.3,0.2-0.4l6-4c0.2-0.1,0.4-0.1,0.5,0c0.2,0.1,0.3,0.3,0.3,0.4v9C13.5,13,12,13,11,13
			C9.8,13,8.5,12.3,8.5,10.5z"/>
		<path d="M23.5,16h-1v-0.5c0-1.9-1.6-3.5-3.5-3.5s-3.5,1.6-3.5,3.5V16h-1c-0.3,0-0.5,0.2-0.5,0.5v7c0,0.3,0.2,0.5,0.5,0.5h9
			c0.3,0,0.5-0.2,0.5-0.5v-7C24,16.2,23.8,16,23.5,16z M19.5,19.8v1.7c0,0.3-0.2,0.5-0.5,0.5s-0.5-0.2-0.5-0.5v-1.7
			C18.2,19.7,18,19.4,18,19c0-0.6,0.4-1,1-1s1,0.4,1,1C20,19.4,19.8,19.7,19.5,19.8z M21.5,16h-5v-0.5c0-1.4,1.1-2.5,2.5-2.5
			s2.5,1.1,2.5,2.5V16z"/>
	</g>
</g>
<g id="Outline_Icons">
	<g>
		<g>
			<path class="st2" d="M7,14.5c0,1-1,1-2,1s-2-0.5-2-2s1-2,2-2s1.5,0,2,0C7,12.5,7,13.5,7,14.5z"/>
			<polyline class="st2" points="7,13 7,6.5 13,2.5 13,9 			"/>
			<polyline class="st2" points="12,18.5 0.5,18.5 0.5,0.5 18.5,0.5 18.5,10 			"/>
			<path class="st2" d="M13,11.5c0,1-1,1-2,1s-2-0.5-2-2s1-2,2-2s1.5,0,2,0C13,9.5,13,10.5,13,11.5z"/>
		</g>
		<g>
			<rect x="14.5" y="16.5" class="st2" width="9" height="7"/>
			<line class="st2" x1="19" y1="21.5" x2="19" y2="19.5"/>
			<path class="st2" d="M16,16.5v-1c0-1.7,1.3-3,3-3s3,1.3,3,3v1"/>
			<path class="st3" d="M19.5,19c0,0.3-0.2,0.5-0.5,0.5l0,0c-0.3,0-0.5-0.2-0.5-0.5l0,0c0-0.3,0.2-0.5,0.5-0.5l0,0
				C19.3,18.5,19.5,18.7,19.5,19L19.5,19z"/>
		</g>
	</g>
</g>
</svg>
