<?xml version="1.0" encoding="utf-8"?>
<!-- Generator: Adobe Illustrator 19.2.0, SVG Export Plug-In . SVG Version: 6.00 Build 0)  -->
<svg version="1.1" id="Layer_1" xmlns="http://www.w3.org/2000/svg" xmlns:xlink="http://www.w3.org/1999/xlink" x="0px" y="0px"
	 viewBox="0 0 24 24" style="enable-background:new 0 0 24 24;" xml:space="preserve">
<style type="text/css">
	.st0{display:none;}
	.st1{display:inline;}
	.st2{fill:none;stroke:#000000;stroke-linecap:round;stroke-linejoin:round;stroke-miterlimit:10;}
	.st3{fill:none;stroke:#000000;stroke-linejoin:round;stroke-miterlimit:10;}
</style>
<g id="Filled_Icon" class="st0">
	<g class="st1">
		<path d="M19,13.1V0.5C19,0.2,18.8,0,18.5,0h-18C0.2,0,0,0.2,0,0.5v18C0,18.8,0.2,19,0.5,19h12.6L19,13.1z M8.5,10.5
			C8.5,8.6,9.8,8,11,8h1.5V3.4l-5,3.3v7.7C7.5,16,6,16,5,16c-1.2,0-2.5-0.7-2.5-2.5C2.5,11.6,3.8,11,5,11h1.5V6.5
			c0-0.2,0.1-0.3,0.2-0.4l6-4c0.2-0.1,0.4-0.1,0.5,0c0.2,0.1,0.3,0.3,0.3,0.4v9C13.5,13,12,13,11,13C9.8,13,8.5,12.3,8.5,10.5z"/>
		<g>
			<path d="M21.9,17.6l1.5-1.5c0.2-0.2,0.2-0.5,0-0.7l-2.3-2.3c-0.2-0.2-0.5-0.2-0.7,0l-1.5,1.5L21.9,17.6z"/>
			<polygon points="18.2,15.3 13.9,19.6 16.9,22.6 21.2,18.3 			"/>
			<path d="M13.3,20.5l-0.8,2.9c0,0.2,0,0.4,0.1,0.5C12.8,24,13,24,13.1,24l2.9-0.8L13.3,20.5z"/>
		</g>
	</g>
</g>
<g id="Outline_Icons">
	<g>
		<g>
			<path class="st2" d="M7,14.5c0,1-1,1-2,1s-2-0.5-2-2s1-2,2-2s1.5,0,2,0C7,12.5,7,13.5,7,14.5z"/>
			<polyline class="st2" points="7,13 7,6.5 13,2.5 13,9 			"/>
			<polyline class="st2" points="12.5,18.5 0.5,18.5 0.5,0.5 18.5,0.5 18.5,12.5 			"/>
			<path class="st2" d="M13,11.5c0,1-1,1-2,1s-2-0.5-2-2s1-2,2-2s1.5,0,2,0C13,9.5,13,10.5,13,11.5z"/>
		</g>
		<g>
			<polygon class="st2" points="16.2,22.6 13,23.5 13.9,20.3 20.7,13.5 23,15.8 			"/>
			<line class="st3" x1="18.9" y1="15.3" x2="21.2" y2="17.6"/>
			<line class="st2" x1="13.9" y1="20.3" x2="16.2" y2="22.6"/>
		</g>
	</g>
</g>
</svg>
