<?xml version="1.0" encoding="utf-8"?>
<!-- Generator: Adobe Illustrator 19.2.0, SVG Export Plug-In . SVG Version: 6.00 Build 0)  -->
<svg version="1.1" id="Layer_1" xmlns="http://www.w3.org/2000/svg" xmlns:xlink="http://www.w3.org/1999/xlink" x="0px" y="0px"
	 viewBox="0 0 24 24" style="enable-background:new 0 0 24 24;" xml:space="preserve">
<style type="text/css">
	.st0{display:none;}
	.st1{display:inline;}
	.st2{fill:none;stroke:#000000;stroke-linecap:round;stroke-linejoin:round;stroke-miterlimit:10;}
</style>
<g id="Filled_Icon" class="st0">
	<g class="st1">
		<path d="M7,16.5C7,17.7,7.8,18,8.5,18c1.3,0,1.5-0.1,1.5-0.5V15H8.5C7.8,15,7,15.3,7,16.5z"/>
		<path d="M12.5,14.5c0,1.2,0.8,1.5,1.5,1.5s2,0,2-0.5V13h-2C13.3,13,12.5,13.3,12.5,14.5z"/>
		<path d="M20.5,2h-17C3.2,2,3,2.2,3,2.5v19C3,21.8,3.2,22,3.5,22h17c0.3,0,0.5-0.2,0.5-0.5v-19C21,2.2,20.8,2,20.5,2z M17,15.5
			c0,1.5-2,1.5-3,1.5c-1.2,0-2.5-0.7-2.5-2.5S12.8,12,14,12h2V6.4l-5,3.3v7.7C11,19,9.5,19,8.5,19C7.3,19,6,18.3,6,16.5
			S7.3,14,8.5,14H10V9.5c0-0.2,0.1-0.3,0.2-0.4l6-4c0.2-0.1,0.4-0.1,0.5,0c0.2,0,0.3,0.2,0.3,0.4V15.5z"/>
		<path d="M1.5,4h-1C0.2,4,0,4.2,0,4.5v15C0,19.8,0.2,20,0.5,20h1C1.8,20,2,19.8,2,19.5v-15C2,4.2,1.8,4,1.5,4z"/>
		<path d="M23.5,4h-1C22.2,4,22,4.2,22,4.5v15c0,0.3,0.2,0.5,0.5,0.5h1c0.3,0,0.5-0.2,0.5-0.5v-15C24,4.2,23.8,4,23.5,4z"/>
	</g>
</g>
<g id="Outline_Icons">
	<g>
		<path class="st2" d="M10.5,17.5c0,1-1,1-2,1s-2-0.5-2-2s1-2,2-2s1.5,0,2,0C10.5,15.5,10.5,16.5,10.5,17.5z"/>
		<polyline class="st2" points="10.5,15.5 10.5,9.5 16.5,5.5 16.5,13 		"/>
		<rect x="2.5" y="2.5" class="st2" width="19" height="19"/>
		<path class="st2" d="M16.5,15.5c0,1-1.5,1-2.5,1s-2-0.5-2-2s1-2,2-2s2,0,2.5,0C16.5,13.5,16.5,14.5,16.5,15.5z"/>
		<polyline class="st2" points="2.5,19.5 0.5,19.5 0.5,4.5 2.5,4.5 		"/>
		<polyline class="st2" points="21.5,4.5 23.5,4.5 23.5,19.5 21.5,19.5 		"/>
	</g>
</g>
</svg>
