<?xml version="1.0" encoding="utf-8"?>
<!-- Generator: Adobe Illustrator 19.2.0, SVG Export Plug-In . SVG Version: 6.00 Build 0)  -->
<svg version="1.1" id="Layer_1" xmlns="http://www.w3.org/2000/svg" xmlns:xlink="http://www.w3.org/1999/xlink" x="0px" y="0px"
	 viewBox="0 0 24 24" style="enable-background:new 0 0 24 24;" xml:space="preserve">
<style type="text/css">
	.st0{display:none;}
	.st1{display:inline;}
	.st2{fill:none;stroke:#000000;stroke-linecap:round;stroke-linejoin:round;stroke-miterlimit:10;}
</style>
<g id="Filled_Icon" class="st0">
	<g class="st1">
		<path d="M20.6,3.1c-1-0.7-1.1-1.6-1.1-1.8c0-0.5-0.3-0.8-0.8-0.8c-0.4,0-0.7,0.3-0.7,0.8v15.2h-2.3c-2.1,0-3.8,1.7-3.8,3.8
			s1.7,3.8,3.8,3.8c2,0,3.8-1.8,3.8-3.8V4.2c0.1,0.1,0.2,0.1,0.3,0.2c4,2.7,2.6,6.3,2,7.8c-1.7,4.4,1-2.5-0.7,1.8
			c-0.1,0.4,0,0.8,0.4,1c0.4,0.1,0.8,0,1-0.4c0.6-1.7,0.7-1.8,0.7-1.8C23.8,11.2,25.6,6.5,20.6,3.1z M18,18.2v2c0,1-1,2.2-2.3,2.2
			c-1.2,0-2.2-1-2.2-2.2s1-2.2,2.2-2.2H18V18.2z"/>
		<path d="M1,4h11.5c0.6,0,1-0.4,1-1s-0.4-1-1-1H1C0.4,2,0,2.4,0,3S0.4,4,1,4z"/>
		<path d="M1,7h11.5c0.6,0,1-0.4,1-1s-0.4-1-1-1H1C0.4,5,0,5.4,0,6S0.4,7,1,7z"/>
		<path d="M1,10h11.5c0.6,0,1-0.4,1-1s-0.4-1-1-1H1C0.4,8,0,8.4,0,9S0.4,10,1,10z"/>
		<path d="M1,13h11.5c0.6,0,1-0.4,1-1s-0.4-1-1-1H1c-0.6,0-1,0.4-1,1S0.4,13,1,13z"/>
		<path d="M10.5,14H1c-0.6,0-1,0.4-1,1s0.4,1,1,1h9.5c0.6,0,1-0.4,1-1S11.1,14,10.5,14z"/>
		<path d="M7.5,17H1c-0.6,0-1,0.4-1,1s0.4,1,1,1h6.5c0.6,0,1-0.4,1-1S8.1,17,7.5,17z"/>
	</g>
</g>
<g id="Outline_Icons">
	<g>
		<g>
			<path class="st2" d="M21.6,14l0.6-1.5c0.4-1.2,2.7-5.8-2.2-9c-1.5-1-1.5-2.5-1.5-2.5"/>
			<path class="st2" d="M18.5,20.5c0,1.5-1.3,3-3,3s-3-1.3-3-3s1.3-3,3-3c0.5,0,2.5,0,3,0C18.5,18.5,18.5,19.4,18.5,20.5z"/>
			<line class="st2" x1="18.5" y1="18.5" x2="18.5" y2="0.5"/>
		</g>
		<line class="st2" x1="0.5" y1="3.5" x2="12.5" y2="3.5"/>
		<line class="st2" x1="0.5" y1="6.5" x2="12.5" y2="6.5"/>
		<line class="st2" x1="0.5" y1="9.5" x2="12.5" y2="9.5"/>
		<line class="st2" x1="0.5" y1="12.5" x2="12.5" y2="12.5"/>
		<line class="st2" x1="0.5" y1="15.5" x2="10.5" y2="15.5"/>
		<line class="st2" x1="0.5" y1="18.5" x2="7.5" y2="18.5"/>
	</g>
</g>
</svg>
