<?xml version="1.0" encoding="utf-8"?>
<!-- Generator: Adobe Illustrator 19.2.0, SVG Export Plug-In . SVG Version: 6.00 Build 0)  -->
<svg version="1.1" id="Layer_1" xmlns="http://www.w3.org/2000/svg" xmlns:xlink="http://www.w3.org/1999/xlink" x="0px" y="0px"
	 viewBox="0 0 24 24" style="enable-background:new 0 0 24 24;" xml:space="preserve">
<style type="text/css">
	.st0{display:none;}
	.st1{display:inline;}
	.st2{fill:none;stroke:#000000;stroke-linecap:round;stroke-linejoin:round;stroke-miterlimit:10;}
</style>
<g id="Filled_Icon" class="st0">
	<g class="st1">
		<path d="M19.5,4h-15C2,4,0,6,0,8.5v7C0,18,2,20,4.5,20h15c2.5,0,4.5-2,4.5-4.5v-7C24,6,22,4,19.5,4z M18,12c0,0.2-0.1,0.4-0.3,0.4
			l-9,4.5C8.7,17,8.6,17,8.5,17s-0.2,0-0.3-0.1C8.1,16.8,8,16.7,8,16.5v-9c0-0.2,0.1-0.3,0.2-0.4C8.4,7,8.6,7,8.7,7.1l9,4.5
			C17.9,11.6,18,11.8,18,12z"/>
	</g>
</g>
<g id="Outline_Icons">
	<g>
		<polygon class="st2" points="8.5,16.5 8.5,7.5 17.5,12 		"/>
		<path class="st2" d="M23.5,15.5c0,2.2-1.8,4-4,4h-15c-2.2,0-4-1.8-4-4v-7c0-2.2,1.8-4,4-4h15c2.2,0,4,1.8,4,4V15.5z"/>
	</g>
</g>
</svg>
