<?xml version="1.0" encoding="utf-8"?>
<!-- Generator: Adobe Illustrator 19.2.0, SVG Export Plug-In . SVG Version: 6.00 Build 0)  -->
<svg version="1.1" id="Layer_1" xmlns="http://www.w3.org/2000/svg" xmlns:xlink="http://www.w3.org/1999/xlink" x="0px" y="0px"
	 viewBox="0 0 24 24" style="enable-background:new 0 0 24 24;" xml:space="preserve">
<style type="text/css">
	.st0{display:none;}
	.st1{display:inline;}
	.st2{fill:none;stroke:#000000;stroke-linecap:round;stroke-linejoin:round;stroke-miterlimit:10;}
</style>
<g id="Filled_Icon" class="st0">
	<g class="st1">
		<path d="M17.2,12.8c0.3-0.5,0.8-0.8,1.3-0.8c0.2,0,0.3,0,0.5,0.1V0.5C19,0.2,18.8,0,18.5,0h-18C0.2,0,0,0.2,0,0.5v18
			C0,18.8,0.2,19,0.5,19h13.6L17.2,12.8z M13.5,11.5C13.5,13,12,13,11,13c-1.2,0-2.5-0.7-2.5-2.5C8.5,8.6,9.8,8,11,8h1.5V3.4l-5,3.3
			v7.7C7.5,16,6,16,5,16c-1.2,0-2.5-0.7-2.5-2.5C2.5,11.6,3.8,11,5,11h1.5V6.5c0-0.2,0.1-0.3,0.2-0.4l6-4c0.2-0.1,0.4-0.1,0.5,0
			c0.2,0.1,0.3,0.3,0.3,0.4V11.5z"/>
		<path d="M23.9,23.2L19,13.3c-0.2-0.3-0.7-0.3-0.9,0l-5,10c-0.1,0.2-0.1,0.3,0,0.5c0.1,0.1,0.3,0.2,0.4,0.2h10l0,0
			c0.3,0,0.5-0.2,0.5-0.5C24,23.4,24,23.3,23.9,23.2z M18.5,22.1c-0.3,0-0.5-0.2-0.5-0.5s0.2-0.5,0.5-0.5s0.5,0.2,0.5,0.5
			S18.8,22.1,18.5,22.1z M19,20.3c0,0.3-0.2,0.5-0.5,0.5S18,20.6,18,20.3v-2.7c0-0.3,0.2-0.5,0.5-0.5s0.5,0.2,0.5,0.5V20.3z"/>
	</g>
</g>
<g id="Outline_Icons">
	<g>
		<g>
			<path class="st2" d="M7,14.5c0,1-1,1-2,1s-2-0.5-2-2s1-2,2-2s1.5,0,2,0C7,12.5,7,13.5,7,14.5z"/>
			<polyline class="st2" points="7,13 7,6.5 13,2.5 13,9 			"/>
			<polyline class="st2" points="13.5,18.5 0.5,18.5 0.5,0.5 18.5,0.5 18.5,11 			"/>
			<path class="st2" d="M13,11.5c0,1-1,1-2,1s-2-0.5-2-2s1-2,2-2s1.5,0,2,0C13,9.5,13,10.5,13,11.5z"/>
		</g>
		<g>
			<polygon class="st2" points="23.5,23.5 13.5,23.5 18.5,13.5 			"/>
			<line class="st2" x1="18.5" y1="17.6" x2="18.5" y2="20.3"/>
			<g>
				<g>
					<path d="M18.5,21.2c-0.3,0-0.5,0.2-0.5,0.5s0.2,0.5,0.5,0.5S19,22,19,21.7C19,21.4,18.8,21.2,18.5,21.2L18.5,21.2z"/>
				</g>
			</g>
		</g>
	</g>
</g>
</svg>
