<?xml version="1.0" encoding="utf-8"?>
<!-- Generator: Adobe Illustrator 19.2.0, SVG Export Plug-In . SVG Version: 6.00 Build 0)  -->
<svg version="1.1" id="Layer_1" xmlns="http://www.w3.org/2000/svg" xmlns:xlink="http://www.w3.org/1999/xlink" x="0px" y="0px"
	 viewBox="0 0 24 24" style="enable-background:new 0 0 24 24;" xml:space="preserve">
<style type="text/css">
	.st0{display:none;}
	.st1{display:inline;}
	.st2{fill:none;stroke:#000000;stroke-linecap:round;stroke-linejoin:round;stroke-miterlimit:10;}
</style>
<g id="Filled_Icon" class="st0">
	<g class="st1">
		<path d="M15.2,16.2c0.7,0,1.3,0.2,1.8,0.6l1.7-0.8c0-0.5,0.1-0.9,0.3-1.3V0.5C19,0.2,18.8,0,18.5,0h-18C0.2,0,0,0.2,0,0.5v18
			C0,18.8,0.2,19,0.5,19H12C12.2,17.5,13.6,16.2,15.2,16.2z M8.5,10.5C8.5,8.6,9.8,8,11,8h1.5V3.4l-5,3.3v7.7C7.5,16,6,16,5,16
			c-1.2,0-2.5-0.7-2.5-2.5C2.5,11.6,3.8,11,5,11h1.5V6.5c0-0.2,0.1-0.3,0.2-0.4l6-4c0.2-0.1,0.4-0.1,0.5,0c0.2,0.1,0.3,0.3,0.3,0.4
			v9C13.5,13,12,13,11,13C9.8,13,8.5,12.3,8.5,10.5z"/>
		<path d="M21.8,19.7c-0.7,0-1.4,0.4-1.8,1l-2.7-1c0-0.1,0-0.2,0-0.3c0-0.2,0-0.3-0.1-0.5l2.9-1.5c0.4,0.5,1,0.8,1.7,0.8
			c1.2,0,2.2-1,2.2-2.2s-1-2.2-2.2-2.2s-2.2,1-2.2,2.2c0,0.2,0,0.3,0.1,0.5L16.8,18c-0.4-0.5-1-0.8-1.7-0.8c-1.2,0-2.2,1-2.2,2.2
			s1,2.2,2.2,2.2c0.7,0,1.4-0.4,1.8-1l2.7,1c0,0.1,0,0.2,0,0.3c0,1.2,1,2.2,2.2,2.2s2.2-1,2.2-2.2C24,20.6,23,19.7,21.8,19.7z
			 M21.8,14.8c0.6,0,1.2,0.5,1.2,1.2c0,0.6-0.5,1.2-1.2,1.2c-0.6,0-1.2-0.5-1.2-1.2C20.7,15.4,21.2,14.8,21.8,14.8z M15.2,20.5
			c-0.6,0-1.2-0.5-1.2-1.2c0-0.6,0.5-1.2,1.2-1.2c0.6,0,1.2,0.5,1.2,1.2C16.3,20,15.8,20.5,15.2,20.5z M21.8,23
			c-0.6,0-1.2-0.5-1.2-1.2c0-0.6,0.5-1.2,1.2-1.2c0.6,0,1.2,0.5,1.2,1.2S22.5,23,21.8,23z"/>
	</g>
</g>
<g id="Outline_Icons">
	<g>
		<g>
			<path class="st2" d="M7,14.5c0,1-1,1-2,1s-2-0.5-2-2s1-2,2-2s1.5,0,2,0C7,12.5,7,13.5,7,14.5z"/>
			<polyline class="st2" points="7,13 7,6.5 13,2.5 13,9 			"/>
			<polyline class="st2" points="11.5,18.5 0.5,18.5 0.5,0.5 18.5,0.5 18.5,14.5 			"/>
			<path class="st2" d="M13,11.5c0,1-1,1-2,1s-2-0.5-2-2s1-2,2-2s1.5,0,2,0C13,9.5,13,10.5,13,11.5z"/>
		</g>
		<g>
			<circle class="st2" cx="21.8" cy="16.1" r="1.7"/>
			<circle class="st2" cx="21.8" cy="21.9" r="1.7"/>
			<circle class="st2" cx="15.2" cy="19.4" r="1.7"/>
			<line class="st2" x1="16.7" y1="18.7" x2="20.3" y2="16.8"/>
			<line class="st2" x1="16.7" y1="20" x2="20.3" y2="21.3"/>
		</g>
	</g>
</g>
</svg>
