<?xml version="1.0" encoding="utf-8"?>
<!-- Generator: Adobe Illustrator 19.2.0, SVG Export Plug-In . SVG Version: 6.00 Build 0)  -->
<svg version="1.1" id="Layer_1" xmlns="http://www.w3.org/2000/svg" xmlns:xlink="http://www.w3.org/1999/xlink" x="0px" y="0px"
	 viewBox="0 0 24 24" style="enable-background:new 0 0 24 24;" xml:space="preserve">
<style type="text/css">
	.st0{display:none;}
	.st1{display:inline;}
	.st2{fill:none;stroke:#000000;stroke-linecap:round;stroke-linejoin:round;stroke-miterlimit:10;}
</style>
<g id="Filled_Icon" class="st0">
	<g class="st1">
		<path d="M12,18.5c0-3.6,2.9-6.5,6.5-6.5c0.2,0,0.3,0,0.5,0V0.5C19,0.2,18.8,0,18.5,0h-18C0.2,0,0,0.2,0,0.5v18
			C0,18.8,0.2,19,0.5,19H12C12,18.8,12,18.7,12,18.5z M8.5,10.5C8.5,8.6,9.8,8,11,8h1.5V3.4l-5,3.3v7.7C7.5,16,6,16,5,16
			c-1.2,0-2.5-0.7-2.5-2.5C2.5,11.6,3.8,11,5,11h1.5V6.5c0-0.2,0.1-0.3,0.2-0.4l6-4c0.2-0.1,0.4-0.1,0.5,0c0.2,0.1,0.3,0.3,0.3,0.4
			v9C13.5,13,12,13,11,13C9.8,13,8.5,12.3,8.5,10.5z"/>
		<path d="M18.5,13c-3,0-5.5,2.5-5.5,5.5s2.5,5.5,5.5,5.5s5.5-2.5,5.5-5.5S21.5,13,18.5,13z M22,16.3l-0.4,1.6
			c-0.1,0.2-0.3,0.4-0.6,0.4l-1.6-0.4c-0.3-0.1-0.4-0.3-0.4-0.6c0.1-0.3,0.3-0.4,0.6-0.4L20,17c-0.2-0.2-0.4-0.4-0.6-0.5
			c-0.5-0.3-1.2-0.4-1.8-0.2c-1.2,0.4-1.9,1.7-1.6,2.9c0.2,0.6,0.6,1.1,1.1,1.4s1.2,0.4,1.8,0.2c0.3-0.1,0.5,0.1,0.6,0.3
			c0.1,0.3-0.1,0.5-0.3,0.6c-0.8,0.2-1.7,0.2-2.5-0.3c-0.8-0.4-1.3-1.1-1.6-2c-0.5-1.8,0.5-3.6,2.3-4.1c0.9-0.2,1.8-0.1,2.5,0.3
			c0.4,0.2,0.7,0.5,0.9,0.8L21,16c0.1-0.3,0.3-0.4,0.6-0.4C21.9,15.7,22,16,22,16.3z"/>
	</g>
</g>
<g id="Outline_Icons">
	<g>
		<g>
			<path class="st2" d="M7,14.5c0,1-1,1-2,1s-2-0.5-2-2s1-2,2-2s1.5,0,2,0C7,12.5,7,13.5,7,14.5z"/>
			<polyline class="st2" points="7,13 7,6.5 13,2.5 13,9 			"/>
			<polyline class="st2" points="11.5,18.5 0.5,18.5 0.5,0.5 18.5,0.5 18.5,12.5 			"/>
			<path class="st2" d="M13,11.5c0,1-1,1-2,1s-2-0.5-2-2s1-2,2-2s1.5,0,2,0C13,9.5,13,10.5,13,11.5z"/>
		</g>
		<g>
			<path class="st2" d="M19.2,23.3c-2.3,0.7-4.7-0.6-5.3-2.9c-0.7-2.3,0.6-4.7,2.9-5.3c2.3-0.7,4.7,0.6,5.3,2.9"/>
			<polyline class="st2" points="22.8,15.7 22.2,18 19.8,17.4 			"/>
		</g>
	</g>
</g>
</svg>
