<?xml version="1.0" encoding="utf-8"?>
<!-- Generator: Adobe Illustrator 19.2.0, SVG Export Plug-In . SVG Version: 6.00 Build 0)  -->
<svg version="1.1" id="Layer_1" xmlns="http://www.w3.org/2000/svg" xmlns:xlink="http://www.w3.org/1999/xlink" x="0px" y="0px"
	 viewBox="0 0 24 24" style="enable-background:new 0 0 24 24;" xml:space="preserve">
<style type="text/css">
	.st0{display:none;}
	.st1{display:inline;}
	.st2{fill:none;stroke:#000000;stroke-linecap:round;stroke-linejoin:round;stroke-miterlimit:10;}
	.st3{fill:none;stroke:#000000;stroke-linejoin:round;stroke-miterlimit:10;}
</style>
<g id="Filled_Icon" class="st0">
	<g class="st1">
		<path d="M13,18c0-2.8,2.2-5,5-5c0.3,0,0.7,0,1,0.1V0.5C19,0.2,18.8,0,18.5,0h-18C0.2,0,0,0.2,0,0.5v18C0,18.8,0.2,19,0.5,19h12.6
			C13,18.7,13,18.3,13,18z M8.5,10.5C8.5,8.6,9.8,8,11,8h1.5V3.4l-5,3.3v7.7C7.5,16,6,16,5,16c-1.2,0-2.5-0.7-2.5-2.5
			C2.5,11.6,3.8,11,5,11h1.5V6.5c0-0.2,0.1-0.3,0.2-0.4l6-4c0.2-0.1,0.4-0.1,0.5,0c0.2,0.1,0.3,0.3,0.3,0.4v9C13.5,13,12,13,11,13
			C9.8,13,8.5,12.3,8.5,10.5z"/>
		<path d="M23.9,23.2l-2.7-2.7c0.5-0.7,0.9-1.5,0.9-2.4c0-2.2-1.8-4-4-4s-4,1.8-4,4s1.8,4,4,4c0.9,0,1.8-0.3,2.4-0.9l2.7,2.7
			c0.1,0.1,0.2,0.1,0.4,0.1c0.1,0,0.3,0,0.4-0.1C24,23.7,24,23.3,23.9,23.2z M15,18c0-1.7,1.3-3,3-3s3,1.3,3,3s-1.3,3-3,3
			S15,19.7,15,18z"/>
	</g>
</g>
<g id="Outline_Icons">
	<g>
		<g>
			<path class="st2" d="M7,14.5c0,1-1,1-2,1s-2-0.5-2-2s1-2,2-2s1.5,0,2,0C7,12.5,7,13.5,7,14.5z"/>
			<polyline class="st2" points="7,13 7,6.5 13,2.5 13,9 			"/>
			<polyline class="st2" points="12,18.5 0.5,18.5 0.5,0.5 18.5,0.5 18.5,12 			"/>
			<path class="st2" d="M13,11.5c0,1-1,1-2,1s-2-0.5-2-2s1-2,2-2s1.5,0,2,0C13,9.5,13,10.5,13,11.5z"/>
		</g>
		<g>
			<circle class="st3" cx="18" cy="18" r="3.5"/>
			<line class="st2" x1="23.5" y1="23.5" x2="20.5" y2="20.5"/>
		</g>
	</g>
</g>
</svg>
