<?xml version="1.0" encoding="utf-8"?>
<!-- Generator: Adobe Illustrator 19.2.0, SVG Export Plug-In . SVG Version: 6.00 Build 0)  -->
<svg version="1.1" id="Layer_1" xmlns="http://www.w3.org/2000/svg" xmlns:xlink="http://www.w3.org/1999/xlink" x="0px" y="0px"
	 viewBox="0 0 24 24" style="enable-background:new 0 0 24 24;" xml:space="preserve">
<style type="text/css">
	.st0{display:none;}
	.st1{display:inline;}
	.st2{fill:none;stroke:#000000;stroke-linecap:round;stroke-linejoin:round;stroke-miterlimit:10;}
</style>
<g id="Filled_Icon" class="st0">
	<g class="st1">
		<path d="M15.5,18h-1c-0.8,0-1.5-0.7-1.5-1.5c0-0.8,0.7-1.5,1.5-1.5h1c1.3,0,2.2,0.7,3,1.6c0.2-0.2,0.3-0.3,0.5-0.5V0.5
			C19,0.2,18.8,0,18.5,0h-18C0.2,0,0,0.2,0,0.5v18C0,18.8,0.2,19,0.5,19h16.1C16.2,18.5,15.8,18,15.5,18z M8.5,10.5
			C8.5,8.6,9.8,8,11,8h1.5V3.4l-5,3.3v7.7C7.5,16,6,16,5,16c-1.2,0-2.5-0.7-2.5-2.5C2.5,11.6,3.8,11,5,11h1.5V6.5
			c0-0.2,0.1-0.3,0.2-0.4l6-4c0.2-0.1,0.4-0.1,0.5,0c0.2,0.1,0.3,0.3,0.3,0.4v9C13.5,13,12,13,11,13C9.8,13,8.5,12.3,8.5,10.5z"/>
		<path d="M21.6,18.4c0.1,0.1,0.2,0.2,0.4,0.2c0.1,0,0.3,0,0.4-0.1L24,17l0,0c0.2-0.2,0.2-0.5,0-0.7l0,0l-1.6-1.5
			c-0.2-0.2-0.5-0.2-0.7,0s-0.2,0.5,0,0.7l0.6,0.6h-0.7c-1.3,0-2.2,1-3,2.1c-0.8-1.1-1.7-2.1-3-2.1h-1c-0.3,0-0.5,0.2-0.5,0.5
			s0.2,0.5,0.5,0.5h1c0.9,0,1.7,0.9,2.4,2c-0.8,1.1-1.5,2-2.4,2h-1c-0.3,0-0.5,0.2-0.5,0.5s0.2,0.5,0.5,0.5h1c1.3,0,2.2-1,3-2.1
			c0.8,1.1,1.7,2.1,3,2.1h0.7l-0.6,0.6c-0.2,0.2-0.2,0.5,0,0.7c0.1,0.1,0.2,0.2,0.4,0.2c0.1,0,0.2,0,0.3-0.1L24,22l0,0
			c0.2-0.2,0.2-0.5,0-0.7l0,0l-1.6-1.5c-0.2-0.2-0.5-0.2-0.7,0s-0.2,0.5,0,0.7l0.7,0.7h-0.8c-0.9,0-1.6-0.9-2.4-2
			c0.8-1.1,1.5-2,2.4-2h0.8l-0.7,0.7C21.4,17.9,21.4,18.2,21.6,18.4z"/>
	</g>
</g>
<g id="Outline_Icons">
	<g>
		<g>
			<path class="st2" d="M7,14.5c0,1-1,1-2,1s-2-0.5-2-2s1-2,2-2s1.5,0,2,0C7,12.5,7,13.5,7,14.5z"/>
			<polyline class="st2" points="7,13 7,6.5 13,2.5 13,9 			"/>
			<polyline class="st2" points="11.5,18.5 0.5,18.5 0.5,0.5 18.5,0.5 18.5,13.5 			"/>
			<path class="st2" d="M13,11.5c0,1-1,1-2,1s-2-0.5-2-2s1-2,2-2s1.5,0,2,0C13,9.5,13,10.5,13,11.5z"/>
		</g>
		<path class="st2" d="M23.5,16.5h-2c-2.5,0-3.5,5-6,5h-1"/>
		<polyline class="st2" points="21.9,15 23.5,16.5 21.9,18.1 		"/>
		<path class="st2" d="M23.5,21.5h-2c-2.5,0-3.5-5-6-5h-1"/>
		<polyline class="st2" points="21.9,23 23.5,21.5 21.9,20 		"/>
	</g>
</g>
</svg>
