<?xml version="1.0" encoding="utf-8"?>
<!-- Generator: Adobe Illustrator 19.2.0, SVG Export Plug-In . SVG Version: 6.00 Build 0)  -->
<svg version="1.1" id="Layer_1" xmlns="http://www.w3.org/2000/svg" xmlns:xlink="http://www.w3.org/1999/xlink" x="0px" y="0px"
	 viewBox="0 0 24 24" style="enable-background:new 0 0 24 24;" xml:space="preserve">
<style type="text/css">
	.st0{display:none;}
	.st1{display:inline;}
	.st2{fill:none;stroke:#000000;stroke-linecap:round;stroke-linejoin:round;stroke-miterlimit:10;}
</style>
<g id="Filled_Icon" class="st0">
	<path class="st1" d="M12,24c6.6,0,12-5.4,12-12c0-6.6-5.4-12-12-12C5.4,0,0,5.4,0,12C0,18.6,5.4,24,12,24z M8,7.5
		c0-0.2,0.1-0.3,0.2-0.4C8.4,7,8.6,7,8.7,7.1l9,4.5c0.2,0.1,0.3,0.3,0.3,0.4s-0.1,0.4-0.3,0.4l-9,4.5C8.7,17,8.6,17,8.5,17
		c-0.1,0-0.2,0-0.3-0.1C8.1,16.8,8,16.7,8,16.5V7.5z"/>
</g>
<g id="Outline_Icons">
	<g>
		<circle class="st2" cx="12" cy="12" r="11.5"/>
		<polygon class="st2" points="8.5,16.5 8.5,7.5 17.5,12 		"/>
	</g>
</g>
</svg>
