<?xml version="1.0" encoding="utf-8"?>
<!-- Generator: Adobe Illustrator 19.2.0, SVG Export Plug-In . SVG Version: 6.00 Build 0)  -->
<svg version="1.1" id="Layer_1" xmlns="http://www.w3.org/2000/svg" xmlns:xlink="http://www.w3.org/1999/xlink" x="0px" y="0px"
	 viewBox="0 0 24 24" style="enable-background:new 0 0 24 24;" xml:space="preserve">
<style type="text/css">
	.st0{display:none;}
	.st1{display:inline;}
	.st2{fill:none;stroke:#000000;stroke-linecap:round;stroke-linejoin:round;stroke-miterlimit:10;}
</style>
<g id="Filled_Icon" class="st0">
	<g class="st1">
		<path d="M23.5,3H22v18.5c0,0.3-0.2,0.5-0.5,0.5H3v1.5C3,23.8,3.2,24,3.5,24h20c0.3,0,0.5-0.2,0.5-0.5v-20C24,3.2,23.8,3,23.5,3z"
			/>
		<path d="M5,14.5C5,15.7,5.8,16,6.5,16C7.8,16,8,15.9,8,15.5v-2V13H6.5C5.8,13,5,13.3,5,14.5z"/>
		<path d="M11,12.5c0,1.2,0.8,1.5,1.5,1.5c1.3,0,1.5-0.1,1.5-0.5V11h-1.5C11.8,11,11,11.3,11,12.5z"/>
		<path d="M21,21v-0.5v-20C21,0.2,20.8,0,20.5,0h-20C0.2,0,0,0.2,0,0.5v20C0,20.8,0.2,21,0.5,21h20H21z M15,13.5
			c0,1.5-1.5,1.5-2.5,1.5c-1.2,0-2.5-0.7-2.5-2.5s1.3-2.5,2.5-2.5H14V4.4L9,7.8v7.7C9,17,7.5,17,6.5,17C5.3,17,4,16.3,4,14.5
			S5.3,12,6.5,12H8V7.5c0-0.2,0.1-0.3,0.2-0.4l6-4c0.2-0.1,0.4-0.1,0.5,0c0.2,0,0.3,0.2,0.3,0.4V13.5z"/>
	</g>
</g>
<g id="Outline_Icons">
	<g>
		<path class="st2" d="M8.5,15.5c0,1-1,1-2,1s-2-0.5-2-2s1-2,2-2s1.5,0,2,0C8.5,13.5,8.5,14.5,8.5,15.5z"/>
		<polyline class="st2" points="8.5,13.5 8.5,7.5 14.5,3.5 14.5,11 		"/>
		<rect x="0.5" y="0.5" class="st2" width="20" height="20"/>
		<polyline class="st2" points="22.5,3.5 23.5,3.5 23.5,23.5 3.5,23.5 3.5,22.5 		"/>
		<path class="st2" d="M14.5,13.5c0,1-1,1-2,1s-2-0.5-2-2s1-2,2-2s1.5,0,2,0C14.5,11.5,14.5,12.5,14.5,13.5z"/>
	</g>
</g>
</svg>
