<?xml version="1.0" encoding="utf-8"?>
<!-- Generator: Adobe Illustrator 19.2.0, SVG Export Plug-In . SVG Version: 6.00 Build 0)  -->
<svg version="1.1" id="Layer_1" xmlns="http://www.w3.org/2000/svg" xmlns:xlink="http://www.w3.org/1999/xlink" x="0px" y="0px"
	 viewBox="0 0 24 24" style="enable-background:new 0 0 24 24;" xml:space="preserve">
<style type="text/css">
	.st0{display:none;}
	.st1{display:inline;}
	.st2{fill:none;stroke:#000000;stroke-linecap:round;stroke-linejoin:round;stroke-miterlimit:10;}
	.st3{fill:none;stroke:#000000;stroke-linejoin:round;stroke-miterlimit:10;}
</style>
<g id="Filled_Icon" class="st0">
	<g class="st1">
		<path d="M13.6,18.9l-0.2-0.1c-0.7-0.4-1-1.3-0.6-2l1-1.7c0.2-0.3,0.5-0.6,0.9-0.7c0.4-0.1,0.8,0,1.1,0.2h0.1v-0.1
			c0-0.8,0.7-1.5,1.5-1.5H19V0.5C19,0.2,18.8,0,18.5,0h-18C0.2,0,0,0.2,0,0.5v18C0,18.8,0.2,19,0.5,19h13L13.6,18.9z M8.5,10.5
			C8.5,8.6,9.8,8,11,8h1.5V3.4l-5,3.3v7.7C7.5,16,6,16,5,16c-1.2,0-2.5-0.7-2.5-2.5C2.5,11.6,3.8,11,5,11h1.5V6.5
			c0-0.2,0.1-0.3,0.2-0.4l6-4c0.2-0.1,0.4-0.1,0.5,0c0.2,0.1,0.3,0.3,0.3,0.4v9C13.5,13,12,13,11,13C9.8,13,8.5,12.3,8.5,10.5z"/>
		<path d="M23.3,19.9l-0.7-0.4c0-0.2,0-0.4,0-0.6s0-0.4,0-0.6l0.7-0.4c0.2-0.1,0.3-0.4,0.2-0.7l-1-1.7c-0.1-0.2-0.4-0.3-0.7-0.2
			L21,15.8c-0.3-0.2-0.6-0.4-1-0.6v-0.7c0-0.3-0.2-0.5-0.5-0.5h-2c-0.3,0-0.5,0.2-0.5,0.5v0.7c-0.3,0.1-0.6,0.3-0.9,0.5l-0.7-0.4
			c-0.1-0.1-0.3-0.1-0.4-0.1c-0.1,0-0.2,0.1-0.3,0.2l-1,1.7c-0.1,0.2-0.1,0.5,0.2,0.7l0.7,0.4c0,0.2,0,0.4,0,0.6s0,0.4,0,0.6
			L14,19.9c-0.2,0.1-0.3,0.4-0.2,0.7l1,1.7c0.1,0.1,0.2,0.2,0.3,0.2s0.3,0,0.4-0.1l0.6-0.4c0.3,0.2,0.6,0.4,0.9,0.5v0.9
			c0,0.3,0.2,0.5,0.5,0.5h2c0.3,0,0.5-0.2,0.5-0.5v-0.9c0.4-0.1,0.7-0.3,1-0.6l0.7,0.4c0.2,0.1,0.5,0.1,0.7-0.2l1-1.7
			c0.1-0.1,0.1-0.3,0.1-0.4C23.5,20.1,23.4,19.9,23.3,19.9z M18.6,20.4c-0.8,0-1.5-0.7-1.5-1.5s0.7-1.5,1.5-1.5s1.5,0.7,1.5,1.5
			C20.1,19.8,19.5,20.4,18.6,20.4z"/>
	</g>
</g>
<g id="Outline_Icons">
	<g>
		<g>
			<path class="st2" d="M7,14.5c0,1-1,1-2,1s-2-0.5-2-2s1-2,2-2s1.5,0,2,0C7,12.5,7,13.5,7,14.5z"/>
			<polyline class="st2" points="7,13 7,6.5 13,2.5 13,9 			"/>
			<polyline class="st2" points="11.5,18.5 0.5,18.5 0.5,0.5 18.5,0.5 18.5,11.5 			"/>
			<path class="st2" d="M13,11.5c0,1-1,1-2,1s-2-0.5-2-2s1-2,2-2s1.5,0,2,0C13,9.5,13,10.5,13,11.5z"/>
		</g>
		<g>
			<circle class="st3" cx="18.6" cy="18.9" r="1.5"/>
			<path class="st3" d="M22.1,18.9c0-0.3,0-0.6-0.1-0.8l1-0.6l-1-1.7l-1,0.6c-0.4-0.4-1-0.7-1.5-0.8v-1.1h-2v1.1
				c-0.5,0.2-1,0.4-1.4,0.8l-1-0.6l-1,1.7l1,0.6C15,18.4,15,18.6,15,18.9s0,0.5,0.1,0.8l-1,0.6l1,1.7l0.9-0.6
				c0.4,0.4,0.9,0.7,1.4,0.8v1.2h2v-1.2c0.5-0.2,1.1-0.4,1.5-0.8l1,0.6l1-1.7l-1-0.6C22.1,19.5,22.1,19.2,22.1,18.9z"/>
		</g>
		<g>
			<circle class="st3" cx="18.6" cy="18.9" r="1.5"/>
			<path class="st3" d="M22.1,18.9c0-0.3,0-0.6-0.1-0.8l1-0.6l-1-1.7l-1,0.6c-0.4-0.4-1-0.7-1.5-0.8v-1.1h-2v1.1
				c-0.5,0.2-1,0.4-1.4,0.8l-1-0.6l-1,1.7l1,0.6C15,18.4,15,18.6,15,18.9s0,0.5,0.1,0.8l-1,0.6l1,1.7l0.9-0.6
				c0.4,0.4,0.9,0.7,1.4,0.8v1.2h2v-1.2c0.5-0.2,1.1-0.4,1.5-0.8l1,0.6l1-1.7l-1-0.6C22.1,19.5,22.1,19.2,22.1,18.9z"/>
		</g>
	</g>
</g>
</svg>
