<?xml version="1.0" encoding="utf-8"?>
<!-- Generator: Adobe Illustrator 19.2.0, SVG Export Plug-In . SVG Version: 6.00 Build 0)  -->
<svg version="1.1" id="Layer_1" xmlns="http://www.w3.org/2000/svg" xmlns:xlink="http://www.w3.org/1999/xlink" x="0px" y="0px"
	 viewBox="0 0 24 24" style="enable-background:new 0 0 24 24;" xml:space="preserve">
<style type="text/css">
	.st0{display:none;}
	.st1{display:inline;}
	.st2{fill:none;stroke:#000000;stroke-linecap:round;stroke-linejoin:round;stroke-miterlimit:10;}
</style>
<g id="Filled_Icon" class="st0">
	<g class="st1">
		<g>
			<path d="M20,2H5C4.4,2,4,1.6,4,1s0.4-1,1-1h15c0.6,0,1,0.4,1,1S20.6,2,20,2z"/>
		</g>
		<g>
			<path d="M20,6H5C4.4,6,4,5.6,4,5s0.4-1,1-1h15c0.6,0,1,0.4,1,1S20.6,6,20,6z"/>
		</g>
		<g>
			<path d="M19,10H5c-0.6,0-1-0.4-1-1s0.4-1,1-1h14c0.6,0,1,0.4,1,1S19.6,10,19,10z"/>
		</g>
		<g>
			<path d="M13,14H5c-0.6,0-1-0.4-1-1s0.4-1,1-1h8c0.6,0,1,0.4,1,1S13.6,14,13,14z"/>
		</g>
		<g>
			<path d="M12.5,18H5c-0.6,0-1-0.4-1-1s0.4-1,1-1h7.5c0.6,0,1,0.4,1,1S13.1,18,12.5,18z"/>
		</g>
		<g>
			<path d="M2,2H1C0.4,2,0,1.6,0,1s0.4-1,1-1h1c0.6,0,1,0.4,1,1S2.6,2,2,2z"/>
		</g>
		<g>
			<path d="M2,6H1C0.4,6,0,5.6,0,5s0.4-1,1-1h1c0.6,0,1,0.4,1,1S2.6,6,2,6z"/>
		</g>
		<g>
			<path d="M2,10H1c-0.6,0-1-0.4-1-1s0.4-1,1-1h1c0.6,0,1,0.4,1,1S2.6,10,2,10z"/>
		</g>
		<g>
			<path d="M2,14H1c-0.6,0-1-0.4-1-1s0.4-1,1-1h1c0.6,0,1,0.4,1,1S2.6,14,2,14z"/>
		</g>
		<g>
			<path d="M2,18H1c-0.6,0-1-0.4-1-1s0.4-1,1-1h1c0.6,0,1,0.4,1,1S2.6,18,2,18z"/>
		</g>
		<path d="M23.7,10.1c-0.2-0.1-0.4-0.1-0.5,0l-6,4c-0.1,0.1-0.2,0.2-0.2,0.4V19h-1.5c-1.2,0-2.5,0.7-2.5,2.5s1.3,2.5,2.5,2.5
			c1,0,2.5,0,2.5-1.5v-7.7l5-3.3V16h-1.5c-1.2,0-2.5,0.7-2.5,2.5s1.3,2.5,2.5,2.5c1,0,2.5,0,2.5-1.5V17v-0.5v-6
			C24,10.3,23.9,10.2,23.7,10.1z"/>
	</g>
</g>
<g id="Outline_Icons">
	<g>
		<line class="st2" x1="4" y1="2.5" x2="19" y2="2.5"/>
		<line class="st2" x1="4" y1="6.5" x2="19" y2="6.5"/>
		<line class="st2" x1="4" y1="10.5" x2="18" y2="10.5"/>
		<line class="st2" x1="4" y1="14.5" x2="12" y2="14.5"/>
		<line class="st2" x1="4" y1="18.5" x2="12" y2="18.5"/>
		<line class="st2" x1="1" y1="2.5" x2="2" y2="2.5"/>
		<line class="st2" x1="1" y1="6.5" x2="2" y2="6.5"/>
		<line class="st2" x1="1" y1="10.5" x2="2" y2="10.5"/>
		<line class="st2" x1="1" y1="14.5" x2="2" y2="14.5"/>
		<line class="st2" x1="1" y1="18.5" x2="2" y2="18.5"/>
		<path class="st2" d="M17.5,22.5c0,1-1,1-2,1s-2-0.5-2-2s1-2,2-2s1.5,0,2,0C17.5,20.5,17.5,21.5,17.5,22.5z"/>
		<polyline class="st2" points="17.5,21 17.5,14.5 23.5,10.5 23.5,17 		"/>
		<path class="st2" d="M23.5,19.5c0,1-1,1-2,1s-2-0.5-2-2s1-2,2-2s1.5,0,2,0C23.5,17.5,23.5,18.5,23.5,19.5z"/>
	</g>
</g>
</svg>
