<?xml version="1.0" encoding="utf-8"?>
<!-- Generator: Adobe Illustrator 19.2.0, SVG Export Plug-In . SVG Version: 6.00 Build 0)  -->
<svg version="1.1" id="Layer_1" xmlns="http://www.w3.org/2000/svg" xmlns:xlink="http://www.w3.org/1999/xlink" x="0px" y="0px"
	 viewBox="0 0 24 24" style="enable-background:new 0 0 24 24;" xml:space="preserve">
<style type="text/css">
	.st0{display:none;}
	.st1{display:inline;}
	.st2{fill:none;stroke:#000000;stroke-linejoin:round;stroke-miterlimit:10;}
	.st3{fill:none;stroke:#000000;stroke-linecap:round;stroke-linejoin:round;stroke-miterlimit:10;}
</style>
<g id="Filled_Icons" class="st0">
	<g class="st1">
		<path d="M12.5,3.5h-2c-0.6,0-1,0.4-1,1v1c0,0.6,0.4,1,1,1h2c0.6,0,1-0.4,1-1v-1C13.5,4,13.1,3.5,12.5,3.5z"/>
		<path d="M16.5,8H16V2.5C16,1.7,15.3,1,14.5,1h-6C7.7,1,7,1.7,7,2.5V8H6.5C5.1,8,4,9.2,4,10.5v4c0,0.1,0.1,0.3,0.1,0.4L7,17.7v2.8
			C7,20.8,7.2,21,7.5,21H11v1.5c0,0.3,0.2,0.5,0.5,0.5c0.3,0,0.5-0.2,0.5-0.5V21h3.5c0.3,0,0.5-0.2,0.5-0.5v-2.8l2.9-2.9
			c0.1-0.1,0.1-0.2,0.1-0.4v-4C19,9.2,17.9,8,16.5,8z M8,2.5C8,2.3,8.2,2,8.5,2h6C14.8,2,15,2.3,15,2.5V8H8V2.5z M14.5,13.8
			C14.4,13.9,14.2,14,14,14H9c-0.2,0-0.4-0.1-0.5-0.3c-0.1-0.2-0.1-0.4,0.1-0.5l2.5-3c0.2-0.2,0.6-0.2,0.8,0l2.5,3
			C14.5,13.4,14.5,13.6,14.5,13.8z"/>
	</g>
</g>
<g id="Outline_Icons">
	<g>
		<path class="st2" d="M4.5,14.5l3,3v3h8v-3l3-3v-4c0-1.1-0.9-2-2-2h-10c-1.1,0-2,0.9-2,2V14.5z"/>
		<path class="st2" d="M15.5,2.5c0-0.6-0.4-1-1-1h-6c-0.6,0-1,0.4-1,1v6h8V2.5z"/>
		<path class="st2" d="M13.5,5.5c0,0.6-0.4,1-1,1h-2c-0.6,0-1-0.4-1-1v-1c0-0.6,0.4-1,1-1h2c0.6,0,1,0.4,1,1V5.5z"/>
		<line class="st3" x1="11.5" y1="20.5" x2="11.5" y2="22.5"/>
		<polygon class="st3" points="9,13.5 14,13.5 11.5,10.5 		"/>
	</g>
</g>
</svg>
