<?xml version="1.0" encoding="utf-8"?>
<!-- Generator: Adobe Illustrator 19.2.0, SVG Export Plug-In . SVG Version: 6.00 Build 0)  -->
<svg version="1.1" id="Layer_1" xmlns="http://www.w3.org/2000/svg" xmlns:xlink="http://www.w3.org/1999/xlink" x="0px" y="0px"
	 viewBox="0 0 24 24" style="enable-background:new 0 0 24 24;" xml:space="preserve">
<style type="text/css">
	.st0{display:none;}
	.st1{display:inline;}
	.st2{fill:none;stroke:#000000;stroke-linecap:round;stroke-linejoin:round;stroke-miterlimit:10;}
</style>
<g id="Filled_Icons" class="st0">
	<path class="st1" d="M23.6,4.4c-0.2-0.2-0.5-0.2-0.7,0l-2.5,2.5l-3.5-3.5l2.5-2.5c0.2-0.2,0.2-0.5,0-0.7c-0.2-0.2-0.5-0.2-0.7,0
		l-2.5,2.5l-1.8-1.8c-0.2-0.2-0.5-0.2-0.7,0L9.8,4.7C7.9,6.6,7.7,9.6,9,12l-2,2c-0.1,0.1-0.1,0.2-0.1,0.4c0,0.1,0.1,0.3,0.1,0.4
		l0.7,0.7l-4.2,4.2c-1,1-1,2.6,0,3.5c1,1,2.6,1,3.5,0l3.2-3.2c0.4-0.4,1-0.4,1.4,0c0.4,0.4,0.4,1,0,1.4L9.9,23
		c-0.2,0.2-0.2,0.5,0,0.7c0.1,0.1,0.2,0.1,0.4,0.1c0.1,0,0.3-0.1,0.4-0.1l1.7-1.7c0.8-0.8,0.8-2,0-2.8c-0.4-0.4-0.9-0.6-1.4-0.6
		c-0.5,0-1,0.2-1.4,0.6l-3.2,3.2c-0.6,0.6-1.5,0.6-2.1,0c-0.6-0.6-0.6-1.5,0-2.1l4.2-4.2l0.7,0.7c0.1,0.1,0.2,0.1,0.4,0.1
		c0.1,0,0.3,0,0.4-0.1l2-2c0.9,0.5,1.8,0.8,2.8,0.8c0.1,0,0.2,0,0.3,0c1.6,0,3-0.6,4.1-1.7l3.9-3.9c0.2-0.2,0.2-0.5,0-0.7l-1.8-1.8
		l2.5-2.5C23.8,4.9,23.8,4.6,23.6,4.4z M15.1,11.5c-0.4,0.4-0.9,0.6-1.4,0.6c-0.5,0-1-0.2-1.4-0.6c-0.4-0.4-0.6-0.9-0.6-1.4
		c0-0.5,0.2-1,0.6-1.4c0.8-0.8,2.1-0.8,2.8,0c0.4,0.4,0.6,0.9,0.6,1.4C15.7,10.6,15.5,11.1,15.1,11.5z M20.1,10
		c-0.1,0.1-0.2,0.1-0.4,0.1c-0.1,0-0.3,0-0.4-0.1l-5.7-5.7c-0.2-0.2-0.2-0.5,0-0.7c0.2-0.2,0.5-0.2,0.7,0l5.7,5.7
		C20.3,9.5,20.3,9.9,20.1,10z"/>
</g>
<g id="Outline_Icons">
	<g>
		<path class="st2" d="M22.5,9.7c0,0-1.8,1.8-3.9,3.9c-2.1,2.1-5.8,2-8.1-0.4c-2.3-2.3-2.5-6-0.4-8.1C12.3,3,14,1.2,14,1.2"/>
		<line class="st2" x1="14.1" y1="1.2" x2="22.5" y2="9.7"/>
		<line class="st2" x1="16.2" y1="3.3" x2="19" y2="0.5"/>
		<line class="st2" x1="20.4" y1="7.6" x2="23.2" y2="4.7"/>
		<line class="st2" x1="14.1" y1="4" x2="19.7" y2="9.7"/>
		<circle class="st2" cx="13.7" cy="10" r="1.5"/>
		<polyline class="st2" points="11.7,14.2 9.5,16.4 7.3,14.3 9.6,12 		"/>
		<path class="st2" d="M8.4,15.3l-4.6,4.6c-0.8,0.8-0.8,2,0,2.8c0.8,0.8,2,0.8,2.8,0l3.2-3.2c0.6-0.6,1.5-0.6,2.1,0
			c0.6,0.6,0.6,1.5,0,2.1l-1.7,1.7"/>
	</g>
</g>
</svg>
