<?xml version="1.0" encoding="utf-8"?>
<!-- Generator: Adobe Illustrator 19.2.0, SVG Export Plug-In . SVG Version: 6.00 Build 0)  -->
<svg version="1.1" id="Layer_1" xmlns="http://www.w3.org/2000/svg" xmlns:xlink="http://www.w3.org/1999/xlink" x="0px" y="0px"
	 viewBox="0 0 24 24" style="enable-background:new 0 0 24 24;" xml:space="preserve">
<style type="text/css">
	.st0{display:none;}
	.st1{display:inline;}
	.st2{fill:none;stroke:#000000;stroke-linejoin:round;stroke-miterlimit:10;}
</style>
<g id="Filled_Icons" class="st0">
	<g class="st1">
		<path d="M11.5,0C5.2,0,0,5.2,0,11.5C0,17.8,5.2,23,11.5,23S23,17.8,23,11.5C23,5.2,17.8,0,11.5,0z M11.5,7.5c2.2,0,4,1.8,4,4
			s-1.8,4-4,4s-4-1.8-4-4S9.3,7.5,11.5,7.5z M11.5,22C5.9,22,1.3,17.6,1,12h5.5c0.3,2.5,2.4,4.5,4.9,4.5s4.7-2,4.9-4.5H22
			C21.7,17.6,17.1,22,11.5,22z"/>
		<circle cx="11.5" cy="11.5" r="2.5"/>
	</g>
</g>
<g id="Outline_Icons">
	<g>
		<circle class="st2" cx="11.5" cy="11.5" r="11"/>
		<circle class="st2" cx="11.5" cy="11.5" r="4.5"/>
		<circle class="st2" cx="11.5" cy="11.5" r="2"/>
		<line class="st2" x1="0.5" y1="11.5" x2="7" y2="11.5"/>
		<line class="st2" x1="16" y1="11.5" x2="22.5" y2="11.5"/>
	</g>
</g>
</svg>
