<?xml version="1.0" encoding="utf-8"?>
<!-- Generator: Adobe Illustrator 19.2.0, SVG Export Plug-In . SVG Version: 6.00 Build 0)  -->
<svg version="1.1" id="Layer_1" xmlns="http://www.w3.org/2000/svg" xmlns:xlink="http://www.w3.org/1999/xlink" x="0px" y="0px"
	 viewBox="0 0 24 24" style="enable-background:new 0 0 24 24;" xml:space="preserve">
<style type="text/css">
	.st0{display:none;}
	.st1{display:inline;}
	.st2{fill:none;stroke:#000000;stroke-linejoin:round;stroke-miterlimit:10;}
	.st3{fill:none;stroke:#000000;stroke-linecap:round;stroke-linejoin:round;stroke-miterlimit:10;}
</style>
<g id="Filled_Icons" class="st0">
	<path class="st1" d="M21.9,14.9c0.3-0.2,2.1-2.8,2.1-5.3c0-2.8-7.6-9-12-9c-4.2,0-12,6.3-12,9c0,2.4,2,5.2,2.1,5.3c0,0,0,0,0.1,0
		C2.1,15.1,2,15.3,2,15.5v1c0,0.5,0.2,0.9,0.5,1.1c0,0,0,0.1,0,0.1C2.7,18,5.9,23,12,23c6.1,0,9.3-5,9.5-5.2c0,0,0-0.1,0-0.2
		c0.3-0.3,0.5-0.7,0.5-1.1v-1C22,15.3,21.9,15.1,21.9,14.9C21.9,14.9,21.9,14.9,21.9,14.9z M8.6,8h6.7c0.2,0.8,0.7,1.1,0.7,1.9
		c0,1.2-2.8,2.9-4.1,2.9c-1.3,0-4.1-1.7-4.1-2.9C7.9,9.1,8.4,8.8,8.6,8z M7.6,5.6L9.2,4c0.2-0.2,0.4-0.2,0.6-0.1L12,4.9l2.2-1.1
		c0.2-0.1,0.4-0.1,0.6,0.1l1.6,1.6c0.1,0.1,0.2,0.3,0.1,0.5c0,0.2-0.2,0.3-0.3,0.4c0,0-0.5,0.2-0.7,0.6H8.6C8.3,6.6,7.9,6.4,7.8,6.4
		C7.7,6.3,7.6,6.2,7.5,6C7.5,5.9,7.5,5.7,7.6,5.6z M21.5,16.5c0,0.6-0.4,1-1,1h-17c-0.6,0-1-0.4-1-1v-1c0-0.6,0.4-1,1-1h17
		c0.6,0,1,0.4,1,1V16.5z"/>
</g>
<g id="Outline_Icons">
	<g>
		<path class="st2" d="M16,5.9l-1.6-1.6L12,5.5L9.6,4.3L8,5.9c0,0,1.2,0.4,1.2,1.6S8.4,9.1,8.4,9.9c0,0.8,2.4,2.4,3.6,2.4
			s3.6-1.6,3.6-2.4c0-0.8-0.8-1.2-0.8-2.4S16,5.9,16,5.9z"/>
		<path class="st2" d="M21.5,16.5c0,0.6-0.4,1-1,1h-17c-0.6,0-1-0.4-1-1v-1c0-0.6,0.4-1,1-1h17c0.6,0,1,0.4,1,1V16.5z"/>
		<path class="st2" d="M3,17.5c0,0,3.1,5,9,5s9-5,9-5H3z"/>
		<path class="st2" d="M21.5,14.5c0,0,2-2.5,2-5S16.1,1,12,1C7.9,1,0.5,7.2,0.5,9.5s2,5,2,5H21.5z"/>
		<line class="st3" x1="9.2" y1="7.5" x2="14.8" y2="7.5"/>
	</g>
	<g>
		<path class="st2" d="M16,5.9l-1.6-1.6L12,5.5L9.6,4.3L8,5.9c0,0,1.2,0.4,1.2,1.6S8.4,9.1,8.4,9.9c0,0.8,2.4,2.4,3.6,2.4
			s3.6-1.6,3.6-2.4c0-0.8-0.8-1.2-0.8-2.4S16,5.9,16,5.9z"/>
		<path class="st2" d="M21.5,16.5c0,0.6-0.4,1-1,1h-17c-0.6,0-1-0.4-1-1v-1c0-0.6,0.4-1,1-1h17c0.6,0,1,0.4,1,1V16.5z"/>
		<path class="st2" d="M3,17.5c0,0,3.1,5,9,5s9-5,9-5H3z"/>
		<path class="st2" d="M21.5,14.5c0,0,2-2.5,2-5S16.1,1,12,1C7.9,1,0.5,7.2,0.5,9.5s2,5,2,5H21.5z"/>
		<line class="st3" x1="9.2" y1="7.5" x2="14.8" y2="7.5"/>
	</g>
</g>
</svg>
