<?xml version="1.0" encoding="utf-8"?>
<!-- Generator: Adobe Illustrator 19.2.0, SVG Export Plug-In . SVG Version: 6.00 Build 0)  -->
<svg version="1.1" id="Layer_1" xmlns="http://www.w3.org/2000/svg" xmlns:xlink="http://www.w3.org/1999/xlink" x="0px" y="0px"
	 viewBox="0 0 24 24" style="enable-background:new 0 0 24 24;" xml:space="preserve">
<style type="text/css">
	.st0{display:none;}
	.st1{display:inline;}
	.st2{fill:none;stroke:#000000;stroke-linecap:round;stroke-linejoin:round;stroke-miterlimit:10;}
</style>
<g id="Filled_Icons" class="st0">
	<g class="st1">
		<path d="M21,16.8l-5.4-1.5c0.9-0.9,1.7-2,1.8-3.4c0.7-0.2,1.1-1,1.1-1.9c0-0.9-0.5-1.7-1.1-1.9V6.7c0.1-0.1,0.1-0.1,0.2-0.2H6.3
			c0.1,0.1,0.1,0.1,0.2,0.2v1.4C6.2,8.2,5.9,8.4,5.7,8.7C5.5,9,5.4,9.5,5.4,10c0,1,0.5,1.7,1.1,1.9c0.1,1.4,0.9,2.5,1.8,3.4
			l-5.4,1.5C1.2,17.4,0,19.1,0,21v3h10.5v-7.3c0.6,0.2,1.1,0.4,1.5,0.4s0.9-0.1,1.5-0.4V24H24v-3C24,19.1,22.8,17.4,21,16.8z M12,16
			c-1.3,0-4.5-1.9-4.5-4.5C7.5,11.2,7.3,11,7,11c-0.5,0-0.6-0.7-0.6-1c0-0.3,0.1-0.6,0.2-0.8C6.7,9,6.9,9,7,9c0.3,0,0.5-0.2,0.5-0.5
			V7.3C8.5,7.7,9.9,8,12,8c2.1,0,3.5-0.3,4.5-0.7v1.2C16.5,8.8,16.7,9,17,9c0.5,0,0.6,0.7,0.6,1c0,0.3-0.1,1-0.6,1
			c-0.3,0-0.5,0.2-0.5,0.5C16.5,14.1,13.3,16,12,16z M19.5,20.5c0,0.2-0.1,0.3-0.2,0.4l-1.5,1C17.7,22,17.6,22,17.5,22
			c-0.1,0-0.2,0-0.3-0.1l-1.5-1c-0.1-0.1-0.2-0.2-0.2-0.4v-2c0-0.3,0.2-0.5,0.5-0.5h3c0.3,0,0.5,0.2,0.5,0.5V20.5z"/>
		<path d="M10.1,8.5l-0.1,0l-0.1,0c-0.4,0-0.8,0-1.1,0.3C8.6,9,8.5,9.2,8.5,9.5C8.5,9.8,8.7,10,9,10c0.3,0,0.5-0.2,0.5-0.5
			c0.1,0,0.3,0,0.4,0l0.1,0l0.1,0c0.1,0,0.3,0,0.4,0c0,0.3,0.2,0.5,0.5,0.5c0.3,0,0.5-0.2,0.5-0.5c0-0.3-0.1-0.5-0.3-0.7
			C10.9,8.5,10.5,8.5,10.1,8.5z"/>
		<path d="M14.1,8.5l-0.1,0l-0.1,0c-0.4,0-0.8,0-1.1,0.3c-0.2,0.2-0.3,0.4-0.3,0.7c0,0.3,0.2,0.5,0.5,0.5c0.3,0,0.5-0.2,0.5-0.5
			c0.1,0,0.2,0,0.4,0l0.1,0l0.1,0c0.1,0,0.3,0,0.4,0c0,0.3,0.2,0.5,0.5,0.5c0.3,0,0.5-0.2,0.5-0.5c0-0.3-0.1-0.5-0.3-0.7
			C14.9,8.5,14.5,8.5,14.1,8.5z"/>
		<path d="M5,5.5h0.5h1.2h10.5h1.2H19c0.3,0,0.5-0.2,0.5-0.5V3c0-0.3-0.2-0.5-0.5-0.5c-1.3,0-2-0.5-2.9-1.1C15.1,0.7,14,0,12,0
			c-1.9,0-2.9,0.7-3.8,1.3C7.3,2,6.6,2.5,5,2.5C4.7,2.5,4.5,2.7,4.5,3v2C4.5,5.3,4.7,5.5,5,5.5z M11,2c0-0.3,0.2-0.5,0.5-0.5h1
			C12.8,1.5,13,1.7,13,2v1c0,0.1-0.1,0.3-0.1,0.4l-0.5,0.5C12.3,4,12.1,4,12,4c-0.1,0-0.3,0-0.4-0.1l-0.5-0.5C11.1,3.3,11,3.1,11,3
			V2z"/>
	</g>
</g>
<g id="Outline_Icons">
	<g>
		<path class="st2" d="M9.4,15.5l-6.3,1.8c-1.6,0.6-2.6,2.1-2.6,3.7v2.5h23V21c0-1.7-1-3.2-2.6-3.7l-6.3-1.8"/>
		<path class="st2" d="M9,9.5C9,8.9,9.4,9,10,9c0.6,0,1-0.1,1,0.5"/>
		<path class="st2" d="M13,9.5C13,8.9,13.4,9,14,9c0.6,0,1-0.1,1,0.5"/>
		<path class="st2" d="M7,6.6v1.9c-1.5,0-1.5,3,0,3c0,3,3.5,5,5,5"/>
		<path class="st2" d="M17,6.6v1.9c1.5,0,1.5,3,0,3c0,3-3.5,5-5,5"/>
		<polygon class="st2" points="16.5,18.5 19.5,18.5 19.5,20.5 18,21.5 16.5,20.5 		"/>
		<polygon class="st2" points="11.5,2 12.5,2 12.5,3 12,3.5 11.5,3 		"/>
		<path class="st2" d="M12,7.5c-6,0-6-2-6-2h12C18,5.5,18,7.5,12,7.5z"/>
		<path class="st2" d="M19,5.5H5C5,5.5,5,4,5,3c3.5,0,3.5-2.5,7-2.5S16,3,19,3C19,4,19,5.5,19,5.5z"/>
		<line class="st2" x1="10.5" y1="16.1" x2="10.5" y2="23.5"/>
		<line class="st2" x1="13.5" y1="16.1" x2="13.5" y2="23.5"/>
	</g>
</g>
</svg>
