<?xml version="1.0" encoding="utf-8"?>
<!-- Generator: Adobe Illustrator 19.2.0, SVG Export Plug-In . SVG Version: 6.00 Build 0)  -->
<svg version="1.1" id="Layer_1" xmlns="http://www.w3.org/2000/svg" xmlns:xlink="http://www.w3.org/1999/xlink" x="0px" y="0px"
	 viewBox="0 0 24 24" style="enable-background:new 0 0 24 24;" xml:space="preserve">
<style type="text/css">
	.st0{display:none;}
	.st1{display:inline;}
	.st2{fill:none;stroke:#000000;stroke-linecap:round;stroke-linejoin:round;stroke-miterlimit:10;}
</style>
<g id="Filled_Icons" class="st0">
	<path class="st1" d="M23.9,9.2l-5.5-5.5c-0.1-0.1-0.2-0.1-0.4-0.1h-1.3l-1.4-1.4C15.3,2.1,15.1,2,15,2H9C8.9,2,8.7,2.1,8.6,2.2
		L7.3,3.5H6c-0.1,0-0.3,0.1-0.4,0.1L0.1,9.2C0,9.3,0,9.7,0.1,9.9l3,3c0.2,0.2,0.5,0.2,0.7,0L6,11.2v11.3C6,22.8,6.2,23,6.5,23h11
		c0.3,0,0.5-0.2,0.5-0.5V11.2l2.1,1.6c0.2,0.2,0.5,0.2,0.7,0l3-3C24,9.7,24,9.3,23.9,9.2z M13.8,3L12,4.8L10.2,3
		C10.2,3,13.8,3,13.8,3z M10.5,6.3L8.2,4L9,3.2l2.3,2.3L10.5,6.3z M12,11c-0.3,0-0.5-0.2-0.5-0.5l0-5C11.5,5.2,11.7,5,12,5
		c0.3,0,0.5,0.2,0.5,0.5l0,5C12.5,10.8,12.3,11,12,11z M13.5,6.3l-0.8-0.8L15,3.2L15.8,4L13.5,6.3z"/>
</g>
<g id="Outline_Icons">
	<g>
		<polyline class="st2" points="7,4 5.5,4 0.5,9.5 3,12.5 5.5,10 5.5,22.5 11.5,22.5 17.5,22.5 17.5,10 20,12.5 22.5,9.5 17.5,4 
			16,4 		"/>
		<polygon class="st2" points="11.5,5.5 8.5,2.5 14.5,2.5 		"/>
		<rect x="11.6" y="3.7" transform="matrix(0.7071 -0.7071 0.7071 0.7071 0.6683 11.1128)" class="st2" width="4.2" height="2.1"/>
		<rect x="8.2" y="2.6" transform="matrix(0.7071 -0.7071 0.7071 0.7071 -0.6502 7.9311)" class="st2" width="2.1" height="4.2"/>
		<line class="st2" x1="11.5" y1="10.5" x2="11.5" y2="5.5"/>
	</g>
</g>
</svg>
