<?xml version="1.0" encoding="utf-8"?>
<!-- Generator: Adobe Illustrator 19.2.0, SVG Export Plug-In . SVG Version: 6.00 Build 0)  -->
<svg version="1.1" id="Layer_1" xmlns="http://www.w3.org/2000/svg" xmlns:xlink="http://www.w3.org/1999/xlink" x="0px" y="0px"
	 viewBox="0 0 24 24" style="enable-background:new 0 0 24 24;" xml:space="preserve">
<style type="text/css">
	.st0{display:none;}
	.st1{display:inline;}
	.st2{fill:none;stroke:#000000;stroke-linejoin:round;stroke-miterlimit:10;}
</style>
<g id="Filled_Icon" class="st0">
	<path class="st1" d="M20.8,3.6l-4-3.5C16.7,0,16.6,0,16.5,0H7.5C7.4,0,7.3,0,7.2,0.1l-4,3.5C3.1,3.7,3,3.9,3,4v16
		c0,0.1,0.1,0.3,0.2,0.4l4,3.5C7.3,24,7.4,24,7.5,24h8.9c0.1,0,0.2,0,0.3-0.1l4-3.5c0.1-0.1,0.2-0.2,0.2-0.4V4
		C21,3.9,20.9,3.7,20.8,3.6z M16,16H8V8h8V16z M7,16.3l-3,2.6V5.1l3,2.6V16.3z M8,17h8v6H8V17z M17,7.7l3-2.6v13.8l-3-2.6V7.7z
		 M7.7,1h8.6l3.5,3l-3.5,3H7.7L4.3,4L7.7,1z M7,17.6v4.8L4.3,20L7,17.6z M17,22.4v-4.7l2.7,2.4L17,22.4z"/>
</g>
<g id="Outline_Icons">
	<g>
		<polygon class="st2" points="7.5,7.5 3.5,4 7.5,0.5 16.5,0.5 20.5,4 16.5,7.5 		"/>
		<polygon class="st2" points="7.5,23.5 3.5,20 7.5,16.5 16.5,16.5 20.5,20 16.5,23.5 		"/>
		<line class="st2" x1="20.5" y1="4" x2="20.5" y2="20"/>
		<line class="st2" x1="3.5" y1="20" x2="3.5" y2="4"/>
		<line class="st2" x1="7.5" y1="23.5" x2="7.5" y2="7.5"/>
		<line class="st2" x1="16.5" y1="23.5" x2="16.5" y2="7.5"/>
	</g>
</g>
</svg>
