<?xml version="1.0" encoding="utf-8"?>
<!-- Generator: Adobe Illustrator 19.2.0, SVG Export Plug-In . SVG Version: 6.00 Build 0)  -->
<svg version="1.1" id="Layer_1" xmlns="http://www.w3.org/2000/svg" xmlns:xlink="http://www.w3.org/1999/xlink" x="0px" y="0px"
	 viewBox="0 0 24 24" style="enable-background:new 0 0 24 24;" xml:space="preserve">
<style type="text/css">
	.st0{display:none;}
	.st1{display:inline;}
	.st2{fill:none;stroke:#000000;stroke-linejoin:round;stroke-miterlimit:10;}
	.st3{fill:none;stroke:#000000;stroke-linecap:round;stroke-linejoin:round;stroke-miterlimit:10;}
</style>
<g id="Filled_Icons" class="st0">
	<g class="st1">
		<path d="M20.5,7H17v5h3.7L21,7.5c0-0.1,0-0.3-0.1-0.4C20.8,7.1,20.6,7,20.5,7z"/>
		<rect x="11" y="17" width="2" height="7"/>
		<rect x="11" y="7" width="2" height="5"/>
		<rect x="14" y="17" width="2" height="7"/>
		<rect x="8" y="7" width="2" height="5"/>
		<path d="M7,7H3.5C3.4,7,3.2,7.1,3.1,7.2C3,7.3,3,7.4,3,7.5L3.3,12H7V7z"/>
		<path d="M17,24h2.5c0.3,0,0.5-0.2,0.5-0.5l0.4-6.5H17V24z"/>
		<rect x="8" y="17" width="2" height="7"/>
		<polygon points="3.5,16 20.5,16 20.7,13 3.3,13 		"/>
		<rect x="14" y="7" width="2" height="5"/>
		<path d="M4,23.5C4,23.8,4.2,24,4.5,24H7v-7H3.6L4,23.5z"/>
		<path d="M3.5,6C3.8,6,4,5.8,4,5.5c0-1.3,0.5-2.2,1.4-2.4c0.8-0.2,1.8,0.1,2.3,0.8C7.8,4.1,8,4.2,8.2,4.1c0.2,0,0.4-0.2,0.4-0.4
			C9,1.7,10.7,1,12,1c1.3,0,3,0.7,3.4,2.7c0,0.2,0.2,0.3,0.4,0.4c0.2,0,0.4,0,0.5-0.2c0.5-0.7,1.4-1.1,2.3-0.8
			C19.5,3.3,20,4.2,20,5.5C20,5.8,20.2,6,20.5,6S21,5.8,21,5.5c0-1.7-0.8-3-2.1-3.4c-0.9-0.3-2,0-2.8,0.6C15.3,0.8,13.6,0,12,0
			c-1.6,0-3.3,0.8-4.1,2.7C7.1,2.1,6.1,1.8,5.1,2.1C3.8,2.5,3,3.8,3,5.5C3,5.8,3.2,6,3.5,6z"/>
	</g>
</g>
<g id="Outline_Icons">
	<g>
		<polygon class="st2" points="19.5,23.5 4.5,23.5 3.5,7.5 20.5,7.5 		"/>
		<line class="st2" x1="3.8" y1="12.5" x2="20.2" y2="12.5"/>
		<line class="st2" x1="4.1" y1="16.5" x2="19.9" y2="16.5"/>
		<line class="st2" x1="7.5" y1="7.5" x2="7.5" y2="12.5"/>
		<line class="st2" x1="10.5" y1="7.5" x2="10.5" y2="12.5"/>
		<line class="st2" x1="13.5" y1="7.5" x2="13.5" y2="12.5"/>
		<line class="st2" x1="16.5" y1="7.5" x2="16.5" y2="12.5"/>
		<line class="st2" x1="7.5" y1="16.5" x2="7.5" y2="23.5"/>
		<line class="st2" x1="10.5" y1="16.5" x2="10.5" y2="23.5"/>
		<line class="st2" x1="13.5" y1="16.5" x2="13.5" y2="23.5"/>
		<line class="st2" x1="16.5" y1="16.5" x2="16.5" y2="23.5"/>
		<path class="st3" d="M20.5,5.5c0-3.5-3.4-3.7-4.6-1.9C15-0.5,9-0.5,8.1,3.6C6.9,1.8,3.5,2,3.5,5.5"/>
	</g>
</g>
</svg>
