<?xml version="1.0" encoding="utf-8"?>
<!-- Generator: Adobe Illustrator 19.2.0, SVG Export Plug-In . SVG Version: 6.00 Build 0)  -->
<svg version="1.1" id="Layer_1" xmlns="http://www.w3.org/2000/svg" xmlns:xlink="http://www.w3.org/1999/xlink" x="0px" y="0px"
	 viewBox="0 0 24 24" style="enable-background:new 0 0 24 24;" xml:space="preserve">
<style type="text/css">
	.st0{display:none;}
	.st1{display:inline;}
	.st2{fill:none;stroke:#000000;stroke-linecap:round;stroke-linejoin:round;stroke-miterlimit:10;}
</style>
<g id="Filled_Icons" class="st0">
	<path class="st1" d="M14.6,0.3c-0.1,0-0.3,0-0.4,0.1C14.1,0.5,14,0.6,14,0.8V3h-4V0.8c0-0.2-0.1-0.3-0.2-0.4
		C9.7,0.3,9.5,0.3,9.4,0.3C4,1.5,0,6.4,0,12c0,6.6,5.4,12,12,12c6.6,0,12-5.4,12-12C24,6.4,20,1.5,14.6,0.3z M5,14.5
		c-0.8,0-1.5-0.7-1.5-1.5c0-0.8,0.7-1.5,1.5-1.5c0.8,0,1.5,0.7,1.5,1.5C6.5,13.8,5.8,14.5,5,14.5z M9,19.5c-0.8,0-1.5-0.7-1.5-1.5
		c0-0.8,0.7-1.5,1.5-1.5c0.8,0,1.5,0.7,1.5,1.5C10.5,18.8,9.8,19.5,9,19.5z M10.5,13c-0.3,0-0.5-0.2-0.5-0.5v-6
		C10,6.2,10.2,6,10.5,6h3C13.8,6,14,6.2,14,6.5v6c0,0.3-0.2,0.5-0.5,0.5H10.5z M15,19.5c-0.8,0-1.5-0.7-1.5-1.5
		c0-0.8,0.7-1.5,1.5-1.5c0.8,0,1.5,0.7,1.5,1.5C16.5,18.8,15.8,19.5,15,19.5z M19,14.5c-0.8,0-1.5-0.7-1.5-1.5
		c0-0.8,0.7-1.5,1.5-1.5c0.8,0,1.5,0.7,1.5,1.5C20.5,13.8,19.8,14.5,19,14.5z"/>
</g>
<g id="Outline_Icons">
	<g>
		<circle class="st2" cx="5" cy="13" r="1.5"/>
		<circle class="st2" cx="19" cy="13" r="1.5"/>
		<circle class="st2" cx="9" cy="18" r="1.5"/>
		<circle class="st2" cx="15" cy="18" r="1.5"/>
		<rect x="10.5" y="6.5" class="st2" width="3" height="6"/>
		<path class="st2" d="M14.5,0.8v2.7h-5V0.8c-5.1,1.1-9,5.7-9,11.2c0,6.4,5.1,11.5,11.5,11.5c6.4,0,11.5-5.1,11.5-11.5
			C23.5,6.5,19.6,1.9,14.5,0.8z"/>
	</g>
</g>
</svg>
