<?xml version="1.0" encoding="utf-8"?>
<!-- Generator: Adobe Illustrator 19.2.0, SVG Export Plug-In . SVG Version: 6.00 Build 0)  -->
<svg version="1.1" id="Layer_1" xmlns="http://www.w3.org/2000/svg" xmlns:xlink="http://www.w3.org/1999/xlink" x="0px" y="0px"
	 viewBox="0 0 24 24" style="enable-background:new 0 0 24 24;" xml:space="preserve">
<style type="text/css">
	.st0{display:none;}
	.st1{display:inline;}
	.st2{fill:none;stroke:#000000;stroke-linejoin:round;stroke-miterlimit:10;}
	.st3{fill:none;stroke:#000000;stroke-linecap:round;stroke-linejoin:round;stroke-miterlimit:10;}
</style>
<g id="Filled_Icon" class="st0">
	<g class="st1">
		<path d="M1,2h22c0.6,0,1-0.4,1-1c0-0.6-0.4-1-1-1H1C0.4,0,0,0.4,0,1C0,1.6,0.4,2,1,2z"/>
		<path d="M23,22H1c-0.6,0-1,0.4-1,1c0,0.6,0.4,1,1,1h22c0.6,0,1-0.4,1-1C24,22.4,23.6,22,23,22z"/>
		<path d="M1.5,3c-0.6,0-1,0.4-1,1v16c0,0.6,0.4,1,1,1h21c0.6,0,1-0.4,1-1V4c0-0.6-0.4-1-1-1H1.5z M5.8,19.5C6,17,7.6,14.9,9.9,14.1
			c-1.2-0.7-2-2-2-3.5c0-2.3,1.8-4.1,4.1-4.1c2.3,0,4.1,1.8,4.1,4.1c0,1.5-0.8,2.8-2,3.5c2.3,0.8,3.9,2.9,4.1,5.4H5.8z"/>
	</g>
</g>
<g id="Outline_Icons">
	<g>
		<rect x="1.5" y="4.5" class="st2" width="21" height="16"/>
		<circle class="st3" cx="12" cy="11.1" r="3.6"/>
		<path class="st3" d="M17.8,20.5H6.2c0-3.2,2.6-5.8,5.8-5.8C15.2,14.7,17.8,17.3,17.8,20.5z"/>
		<line class="st3" x1="1" y1="1.5" x2="23" y2="1.5"/>
		<line class="st3" x1="1" y1="23.5" x2="23" y2="23.5"/>
	</g>
</g>
</svg>
