<?xml version="1.0" encoding="utf-8"?>
<!-- Generator: Adobe Illustrator 19.2.0, SVG Export Plug-In . SVG Version: 6.00 Build 0)  -->
<svg version="1.1" id="Layer_1" xmlns="http://www.w3.org/2000/svg" xmlns:xlink="http://www.w3.org/1999/xlink" x="0px" y="0px"
	 viewBox="0 0 24 24" style="enable-background:new 0 0 24 24;" xml:space="preserve">
<style type="text/css">
	.st0{display:none;}
	.st1{display:inline;}
	.st2{fill:none;stroke:#000000;stroke-linejoin:round;stroke-miterlimit:10;}
	.st3{fill:none;stroke:#000000;stroke-linecap:round;stroke-linejoin:round;stroke-miterlimit:10;}
</style>
<g id="Filled_Icon" class="st0">
	<path class="st1" d="M12,0C5.4,0,0,5.4,0,12s5.4,12,12,12s12-5.4,12-12S18.6,0,12,0z M13,11c0.3,0,0.5,0.2,0.5,0.5S13.3,12,13,12
		h-2v1c0,1.4-0.3,2.4-0.6,3h4.1c0.3,0,0.5,0.2,0.5,0.5S14.8,17,14.5,17h-6C8.2,17,8,16.8,8,16.5S8.2,16,8.5,16c0.4,0,1.5,0,1.5-3v-1
		H8c-0.3,0-0.5-0.2-0.5-0.5S7.7,11,8,11h2V8.5C10,7.1,11.1,6,12.5,6S15,7.1,15,8.5C15,8.8,14.8,9,14.5,9S14,8.8,14,8.5
		C14,7.7,13.3,7,12.5,7S11,7.7,11,8.5V11H13z"/>
</g>
<g id="Outline_Icons">
	<g>
		<circle class="st2" cx="12" cy="12" r="11.5"/>
		<line class="st3" x1="8" y1="11.5" x2="13" y2="11.5"/>
		<path class="st3" d="M14.5,8.5c0-1.1-0.9-2-2-2s-2,0.9-2,2V13c0,1.7-0.3,3.5-2,3.5h6"/>
	</g>
</g>
</svg>
