<?xml version="1.0" encoding="utf-8"?>
<!-- Generator: Adobe Illustrator 19.2.0, SVG Export Plug-In . SVG Version: 6.00 Build 0)  -->
<svg version="1.1" id="Layer_1" xmlns="http://www.w3.org/2000/svg" xmlns:xlink="http://www.w3.org/1999/xlink" x="0px" y="0px"
	 viewBox="0 0 24 24" style="enable-background:new 0 0 24 24;" xml:space="preserve">
<style type="text/css">
	.st0{display:none;}
	.st1{display:inline;}
	.st2{fill:none;stroke:#000000;stroke-linecap:round;stroke-linejoin:round;stroke-miterlimit:10;}
</style>
<g id="Filled_Icon" class="st0">
	<g class="st1">
		<path d="M15,0c-5,0-9,4-9,9c0,4,2.6,7.4,6.3,8.6l2.8-2.2c0.6-0.5,1.4-0.4,2,0.1l1.8,1.7c3-1.4,5.2-4.5,5.2-8.1C24,4,20,0,15,0z
			 M17,7c0.3,0,0.5,0.2,0.5,0.5S17.3,8,17,8h-2v1.3c0,1.2-0.2,2.1-0.5,2.7H18c0.3,0,0.5,0.2,0.5,0.5S18.3,13,18,13h-5.3
			c-0.3,0-0.5-0.2-0.5-0.5s0.2-0.5,0.5-0.5S14,12,14,9.3V8h-2c-0.3,0-0.5-0.2-0.5-0.5S11.7,7,12,7h2V5.3C14,4,15,3,16.3,3
			s2.3,1,2.3,2.3c0,0.3-0.2,0.5-0.5,0.5s-0.5-0.2-0.5-0.5C17.6,4.6,17,4,16.3,4C15.6,4,15,4.6,15,5.3V7H17z"/>
		<path d="M23.5,19c-0.3,0-0.5,0.2-0.5,0.5v2.8l-6.7-6.2c-0.2-0.2-0.5-0.2-0.7,0L11,19.9l-8.7-7.7c-0.2-0.2-0.5-0.2-0.7,0
			s-0.2,0.5,0,0.7l9,8c0.2,0.2,0.5,0.2,0.6,0l4.7-3.7l6.2,5.8h-2.7c-0.3,0-0.5,0.2-0.5,0.5s0.2,0.5,0.5,0.5h3.9
			c0.3,0,0.5-0.2,0.5-0.5v-4C24,19.2,23.8,19,23.5,19z"/>
	</g>
</g>
<g id="Outline_Icons">
	<g>
		<line class="st2" x1="12" y1="8.5" x2="17" y2="8.5"/>
		<path class="st2" d="M18.1,6.3c0-1-0.8-1.8-1.8-1.8s-1.8,0.8-1.8,1.8v4c0,1.5-0.3,3.2-1.8,3.2H18"/>
		<polyline class="st2" points="2,12.5 11,20.5 16,16.5 23.5,23.5 		"/>
		<polyline class="st2" points="19.6,23.5 23.5,23.5 23.5,19.5 		"/>
		<path class="st2" d="M9.1,15.1C7.5,13.5,6.5,11.4,6.5,9c0-4.7,3.8-8.5,8.5-8.5s8.5,3.8,8.5,8.5c0,2.3-1,4.5-2.5,6"/>
	</g>
</g>
</svg>
