<?xml version="1.0" encoding="utf-8"?>
<!-- Generator: Adobe Illustrator 19.2.0, SVG Export Plug-In . SVG Version: 6.00 Build 0)  -->
<svg version="1.1" id="Layer_1" xmlns="http://www.w3.org/2000/svg" xmlns:xlink="http://www.w3.org/1999/xlink" x="0px" y="0px"
	 viewBox="0 0 24 24" style="enable-background:new 0 0 24 24;" xml:space="preserve">
<style type="text/css">
	.st0{display:none;}
	.st1{display:inline;}
	.st2{fill:none;stroke:#000000;stroke-linecap:round;stroke-linejoin:round;stroke-miterlimit:10;}
</style>
<g id="Filled_Icon" class="st0">
	<g class="st1">
		<path d="M9,0C4,0,0,4,0,9c0,4,2.7,7.5,6.4,8.6l3.6-3.2c0.5-0.5,1.4-0.5,1.9,0l2.4,1.9C16.5,14.6,18,12,18,9C18,4,14,0,9,0z M11,7
			c0.3,0,0.5,0.2,0.5,0.5S11.3,8,11,8H9v1.3c0,1.2-0.2,2.1-0.5,2.7H12c0.3,0,0.5,0.2,0.5,0.5S12.3,13,12,13H6.7
			c-0.3,0-0.5-0.2-0.5-0.5S6.4,12,6.7,12S8,12,8,9.3V8H6C5.7,8,5.5,7.8,5.5,7.5S5.7,7,6,7h2V5.3C8,4,9,3,10.3,3s2.3,1,2.3,2.3
			c0,0.3-0.2,0.5-0.5,0.5s-0.5-0.2-0.5-0.5C11.6,4.6,11,4,10.3,4S9,4.6,9,5.3V7H11z"/>
		<path d="M23.5,12L23.5,12h-3.9c-0.3,0-0.5,0.2-0.5,0.5s0.2,0.5,0.5,0.5h2.7L16,18.8l-4.7-3.7c-0.2-0.2-0.5-0.1-0.6,0l-9,8
			c-0.2,0.2-0.2,0.5,0,0.7C1.7,23.9,1.9,24,2,24c0.1,0,0.2,0,0.3-0.1l8.7-7.7l4.7,3.7c0.2,0.2,0.5,0.1,0.7,0l6.7-6.2v2.8
			c0,0.3,0.2,0.5,0.5,0.5s0.5-0.2,0.5-0.5v-4C24,12.3,23.8,12,23.5,12z"/>
	</g>
</g>
<g id="Outline_Icons">
	<g>
		<line class="st2" x1="6" y1="8.5" x2="11" y2="8.5"/>
		<path class="st2" d="M12.1,6.3c0-1-0.8-1.8-1.8-1.8S8.5,5.3,8.5,6.3v4c0,1.5-0.3,3.2-1.8,3.2H12"/>
		<polyline class="st2" points="2,23.5 11,15.5 16,19.5 23.5,12.5 		"/>
		<polyline class="st2" points="19.6,12.5 23.5,12.5 23.5,16.5 		"/>
		<path class="st2" d="M5,16.5C2.3,15.1,0.5,12.3,0.5,9c0-4.7,3.8-8.5,8.5-8.5s8.5,3.8,8.5,8.5c0,1.8-0.6,3.5-1.6,4.9"/>
	</g>
</g>
</svg>
