<?xml version="1.0" encoding="utf-8"?>
<!-- Generator: Adobe Illustrator 19.2.0, SVG Export Plug-In . SVG Version: 6.00 Build 0)  -->
<svg version="1.1" id="Layer_1" xmlns="http://www.w3.org/2000/svg" xmlns:xlink="http://www.w3.org/1999/xlink" x="0px" y="0px"
	 viewBox="0 0 24 24" style="enable-background:new 0 0 24 24;" xml:space="preserve">
<style type="text/css">
	.st0{display:none;}
	.st1{display:inline;}
	.st2{fill:none;stroke:#000000;stroke-linecap:round;stroke-linejoin:round;stroke-miterlimit:10;}
</style>
<g id="Filled_Icon" class="st0">
	<path class="st1" d="M20,22H8.7c0.8-0.9,1.3-2.1,1.3-3.5V14h8c0.6,0,1-0.4,1-1s-0.4-1-1-1h-8V6.5C10,4,12,2,14.5,2S19,4,19,6.5
		c0,0.6,0.4,1,1,1s1-0.4,1-1C21,2.9,18.1,0,14.5,0S8,2.9,8,6.5V12H3c-0.6,0-1,0.4-1,1s0.4,1,1,1h5v4.5C8,20.9,5.9,22,4,22
		c-0.6,0-1,0.4-1,1s0.4,1,1,1h16c0.6,0,1-0.4,1-1S20.6,22,20,22z"/>
</g>
<g id="Outline_Icons">
	<g>
		<line class="st2" x1="3.5" y1="12.5" x2="18.5" y2="12.5"/>
		<path class="st2" d="M20.5,6c0-3-2.5-5.5-5.5-5.5S9.5,3,9.5,6v12.5c0,2.8-2.2,5-5,5h16"/>
	</g>
</g>
</svg>
