<?xml version="1.0" encoding="utf-8"?>
<!-- Generator: Adobe Illustrator 19.2.0, SVG Export Plug-In . SVG Version: 6.00 Build 0)  -->
<svg version="1.1" id="Layer_1" xmlns="http://www.w3.org/2000/svg" xmlns:xlink="http://www.w3.org/1999/xlink" x="0px" y="0px"
	 viewBox="0 0 24 24" style="enable-background:new 0 0 24 24;" xml:space="preserve">
<style type="text/css">
	.st0{display:none;}
	.st1{display:inline;}
	.st2{fill:none;stroke:#000000;stroke-linejoin:round;stroke-miterlimit:10;}
	.st3{fill:none;stroke:#000000;stroke-linecap:round;stroke-linejoin:round;stroke-miterlimit:10;}
</style>
<g id="Filled_Icon" class="st0">
	<g class="st1">
		<path d="M23,3V0.5C23,0.2,22.8,0,22.5,0h-22C0.2,0,0,0.2,0,0.5V3H23z"/>
		<path d="M22.5,17H21V4H2v13H0.5C0.2,17,0,17.2,0,17.5S0.2,18,0.5,18H11v2.1c-0.9,0.2-1.5,1-1.5,1.9c0,1.1,0.9,2,2,2s2-0.9,2-2
			c0-0.9-0.6-1.7-1.5-1.9V18h10.5c0.3,0,0.5-0.2,0.5-0.5S22.8,17,22.5,17z M6.5,9.5c1.2,0,2.2,1,2.2,2.2c0,1-0.7,1.9-1.7,2.1v0.7
			C7,14.8,6.8,15,6.5,15S6,14.8,6,14.5v-0.7c-1-0.2-1.7-1.1-1.7-2.1c0-0.3,0.2-0.5,0.5-0.5s0.5,0.2,0.5,0.5c0,0.7,0.5,1.2,1.2,1.2
			s1.2-0.5,1.2-1.2s-0.5-1.2-1.2-1.2c-1.2,0-2.2-1-2.2-2.2c0-1,0.7-1.9,1.7-2.1V5.5C6,5.2,6.2,5,6.5,5S7,5.2,7,5.5v0.7
			c1,0.2,1.7,1.1,1.7,2.1c0,0.3-0.2,0.5-0.5,0.5S7.7,8.6,7.7,8.3c0-0.7-0.5-1.2-1.2-1.2S5.3,7.6,5.3,8.3C5.3,9,5.8,9.5,6.5,9.5z
			 M12.5,22c0,0.6-0.4,1-1,1s-1-0.4-1-1s0.4-1,1-1S12.5,21.4,12.5,22z M14,15.5c0,0.3-0.2,0.5-0.5,0.5h-2c-0.3,0-0.5-0.2-0.5-0.5v-4
			c0-0.3,0.2-0.5,0.5-0.5h2c0.3,0,0.5,0.2,0.5,0.5V15.5z M18,15.5c0,0.3-0.2,0.5-0.5,0.5h-2c-0.3,0-0.5-0.2-0.5-0.5v-9
			C15,6.2,15.2,6,15.5,6h2C17.8,6,18,6.2,18,6.5V15.5z"/>
	</g>
</g>
<g id="Outline_Icons">
	<g>
		<rect x="0.5" y="0.5" class="st2" width="22" height="3"/>
		<line class="st3" x1="0.5" y1="17.5" x2="22.5" y2="17.5"/>
		<rect x="2.5" y="3.5" class="st2" width="18" height="14"/>
		<line class="st2" x1="11.5" y1="17.5" x2="11.5" y2="20.5"/>
		<circle class="st2" cx="11.5" cy="22" r="1.5"/>
		<rect x="11.5" y="11.5" class="st3" width="2" height="4"/>
		<rect x="15.5" y="6.5" class="st3" width="2" height="9"/>
		<path class="st3" d="M4.8,11.7c0,0.9,0.8,1.7,1.7,1.7s1.7-0.8,1.7-1.7S7.4,10,6.5,10S4.8,9.2,4.8,8.3s0.8-1.7,1.7-1.7
			s1.7,0.8,1.7,1.7"/>
		<line class="st3" x1="6.5" y1="13.4" x2="6.5" y2="14.5"/>
		<line class="st3" x1="6.5" y1="5.5" x2="6.5" y2="6.6"/>
	</g>
</g>
</svg>
