<?xml version="1.0" encoding="utf-8"?>
<!-- Generator: Adobe Illustrator 19.2.0, SVG Export Plug-In . SVG Version: 6.00 Build 0)  -->
<svg version="1.1" id="Layer_1" xmlns="http://www.w3.org/2000/svg" xmlns:xlink="http://www.w3.org/1999/xlink" x="0px" y="0px"
	 viewBox="0 0 24 24" style="enable-background:new 0 0 24 24;" xml:space="preserve">
<style type="text/css">
	.st0{display:none;}
	.st1{display:inline;}
	.st2{fill:none;stroke:#000000;stroke-linejoin:round;stroke-miterlimit:10;}
	.st3{fill:none;stroke:#000000;stroke-linecap:round;stroke-linejoin:round;stroke-miterlimit:10;}
</style>
<g id="Filled_Icon" class="st0">
	<g class="st1">
		<path d="M23,3V0.5C23,0.2,22.8,0,22.5,0h-22C0.2,0,0,0.2,0,0.5V3H23z"/>
		<path d="M22.5,17H21V4H2v13H0.5C0.2,17,0,17.2,0,17.5S0.2,18,0.5,18H11v2.1c-0.9,0.2-1.5,1-1.5,1.9c0,1.1,0.9,2,2,2s2-0.9,2-2
			c0-0.9-0.6-1.7-1.5-1.9V18h10.5c0.3,0,0.5-0.2,0.5-0.5S22.8,17,22.5,17z M12.5,22c0,0.6-0.4,1-1,1s-1-0.4-1-1s0.4-1,1-1
			S12.5,21.4,12.5,22z M11.9,15.6c-0.1,0.1-0.2,0.2-0.4,0.2s-0.3-0.1-0.4-0.2c-0.3-0.5-3.3-5-3.3-6.9c0-2,1.7-3.7,3.7-3.7
			s3.7,1.7,3.7,3.7C15.2,10.5,12.3,15.1,11.9,15.6z"/>
		<circle cx="11.5" cy="8.7" r="1.3"/>
	</g>
</g>
<g id="Outline_Icons">
	<g>
		<rect x="0.5" y="0.5" class="st2" width="22" height="3"/>
		<line class="st3" x1="0.5" y1="17.5" x2="22.5" y2="17.5"/>
		<rect x="2.5" y="3.5" class="st2" width="18" height="14"/>
		<line class="st2" x1="11.5" y1="17.5" x2="11.5" y2="20.5"/>
		<circle class="st2" cx="11.5" cy="22" r="1.5"/>
		<g>
			<path class="st3" d="M14.7,8.7c0,1.8-3.2,6.6-3.2,6.6s-3.2-4.8-3.2-6.6s1.4-3.2,3.2-3.2C13.3,5.5,14.7,6.9,14.7,8.7z"/>
			<circle class="st3" cx="11.5" cy="8.7" r="1.3"/>
		</g>
	</g>
</g>
</svg>
