<?xml version="1.0" encoding="utf-8"?>
<!-- Generator: Adobe Illustrator 19.2.0, SVG Export Plug-In . SVG Version: 6.00 Build 0)  -->
<svg version="1.1" id="Layer_1" xmlns="http://www.w3.org/2000/svg" xmlns:xlink="http://www.w3.org/1999/xlink" x="0px" y="0px"
	 viewBox="0 0 24 24" style="enable-background:new 0 0 24 24;" xml:space="preserve">
<style type="text/css">
	.st0{display:none;}
	.st1{display:inline;}
	.st2{fill:none;stroke:#000000;stroke-linejoin:round;stroke-miterlimit:10;}
	.st3{fill:none;stroke:#000000;stroke-linecap:round;stroke-linejoin:round;stroke-miterlimit:10;}
</style>
<g id="Filled_Icon" class="st0">
	<g class="st1">
		<path d="M23,3V0.5C23,0.2,22.8,0,22.5,0h-22C0.2,0,0,0.2,0,0.5V3H23z"/>
		<path d="M22.5,17H21V4H2v13H0.5C0.2,17,0,17.2,0,17.5S0.2,18,0.5,18H11v2.1c-0.9,0.2-1.5,1-1.5,1.9c0,1.1,0.9,2,2,2s2-0.9,2-2
			c0-0.9-0.6-1.7-1.5-1.9V18h10.5c0.3,0,0.5-0.2,0.5-0.5S22.8,17,22.5,17z M8.5,15C6,15,4,13,4,10.5C4,9,4.7,7.7,5.9,6.9L8,10.7
			L8.7,15C8.7,15,8.6,15,8.5,15z M12.5,22c0,0.6-0.4,1-1,1s-1-0.4-1-1s0.4-1,1-1S12.5,21.4,12.5,22z M9.7,14.8L9.1,11H13
			C12.7,12.8,11.5,14.3,9.7,14.8z M8.8,10L6.7,6.4C7.3,6.1,7.9,6,8.5,6c2.3,0,4.2,1.8,4.4,4H8.8z M18.5,11h-2.9
			c-0.3,0-0.5-0.2-0.5-0.5s0.2-0.5,0.5-0.5h2.9c0.3,0,0.5,0.2,0.5,0.5S18.7,11,18.5,11z M18.5,9h-2.9C15.2,9,15,8.8,15,8.5
			S15.2,8,15.5,8h2.9C18.7,8,19,8.2,19,8.5S18.7,9,18.5,9z M18.5,7h-2.9C15.2,7,15,6.8,15,6.5S15.2,6,15.5,6h2.9
			C18.7,6,19,6.2,19,6.5S18.7,7,18.5,7z"/>
	</g>
</g>
<g id="Outline_Icons">
	<g>
		<rect x="0.5" y="0.5" class="st2" width="22" height="3"/>
		<line class="st3" x1="0.5" y1="17.5" x2="22.5" y2="17.5"/>
		<rect x="2.5" y="3.5" class="st2" width="18" height="14"/>
		<line class="st2" x1="11.5" y1="17.5" x2="11.5" y2="20.4"/>
		<circle class="st2" cx="11.5" cy="22" r="1.5"/>
		<circle class="st3" cx="8.5" cy="10.5" r="4"/>
		<polyline class="st3" points="6.5,7 8.5,10.5 12.5,10.5 		"/>
		<line class="st3" x1="8.5" y1="10.5" x2="9.2" y2="14.4"/>
		<line class="st3" x1="15.5" y1="6.5" x2="18.5" y2="6.5"/>
		<line class="st3" x1="15.5" y1="8.5" x2="18.5" y2="8.5"/>
		<line class="st3" x1="15.5" y1="10.5" x2="18.5" y2="10.5"/>
	</g>
</g>
</svg>
