<?xml version="1.0" encoding="utf-8"?>
<!-- Generator: Adobe Illustrator 19.2.0, SVG Export Plug-In . SVG Version: 6.00 Build 0)  -->
<svg version="1.1" id="Layer_1" xmlns="http://www.w3.org/2000/svg" xmlns:xlink="http://www.w3.org/1999/xlink" x="0px" y="0px"
	 viewBox="0 0 24 24" style="enable-background:new 0 0 24 24;" xml:space="preserve">
<style type="text/css">
	.st0{display:none;}
	.st1{display:inline;}
	.st2{fill:none;stroke:#000000;stroke-linejoin:round;stroke-miterlimit:10;}
	.st3{fill:none;stroke:#000000;stroke-linecap:round;stroke-linejoin:round;stroke-miterlimit:10;}
</style>
<g id="Filled_Icon" class="st0">
	<g class="st1">
		<path d="M23,3V0.5C23,0.2,22.8,0,22.5,0h-22C0.2,0,0,0.2,0,0.5V3H23z"/>
		<path d="M22.5,17H21V4H2v13H0.5C0.2,17,0,17.2,0,17.5S0.2,18,0.5,18H11v2.1c-0.9,0.2-1.5,1-1.5,1.9c0,1.1,0.9,2,2,2s2-0.9,2-2
			c0-0.9-0.6-1.7-1.5-1.9V18h10.5c0.3,0,0.5-0.2,0.5-0.5S22.8,17,22.5,17z M12.5,22c0,0.6-0.4,1-1,1s-1-0.4-1-1s0.4-1,1-1
			S12.5,21.4,12.5,22z M18.5,16h-2h-2h-2h-2h-2h-2h-2C4.2,16,4,15.8,4,15.5v-10C4,5.2,4.2,5,4.5,5S5,5.2,5,5.5V15h1V9.5
			C6,9.2,6.2,9,6.5,9h2C8.8,9,9,9.2,9,9.5V15h1v-3.5c0-0.3,0.2-0.5,0.5-0.5h2c0.3,0,0.5,0.2,0.5,0.5V15h1V5.5C14,5.2,14.2,5,14.5,5
			h2C16.8,5,17,5.2,17,5.5V15h1.5c0.3,0,0.5,0.2,0.5,0.5S18.8,16,18.5,16z"/>
	</g>
</g>
<g id="Outline_Icons">
	<g>
		<rect x="0.5" y="0.5" class="st2" width="22" height="3"/>
		<line class="st3" x1="0.5" y1="17.5" x2="22.5" y2="17.5"/>
		<rect x="2.5" y="3.5" class="st2" width="18" height="14"/>
		<line class="st2" x1="11.5" y1="17.5" x2="11.5" y2="20.4"/>
		<circle class="st2" cx="11.5" cy="22" r="1.5"/>
		<rect x="6.5" y="9.5" class="st3" width="2" height="6"/>
		<rect x="10.5" y="11.5" class="st3" width="2" height="4"/>
		<rect x="14.5" y="5.5" class="st3" width="2" height="10"/>
		<polyline class="st3" points="4.5,5.5 4.5,15.5 18.5,15.5 		"/>
	</g>
</g>
</svg>
