<?xml version="1.0" encoding="utf-8"?>
<!-- Generator: Adobe Illustrator 19.2.0, SVG Export Plug-In . SVG Version: 6.00 Build 0)  -->
<svg version="1.1" id="Layer_1" xmlns="http://www.w3.org/2000/svg" xmlns:xlink="http://www.w3.org/1999/xlink" x="0px" y="0px"
	 viewBox="0 0 24 24" style="enable-background:new 0 0 24 24;" xml:space="preserve">
<style type="text/css">
	.st0{display:none;}
	.st1{display:inline;}
	.st2{fill:none;stroke:#000000;stroke-linejoin:round;stroke-miterlimit:10;}
	.st3{fill:none;stroke:#000000;stroke-linecap:round;stroke-linejoin:round;stroke-miterlimit:10;}
</style>
<g id="Filled_Icons" class="st0">
	<g class="st1">
		<polygon points="0,11 0.5,11 8,11 8,10 8,8 8,7 0,7 		"/>
		<path d="M18,1.4c-0.6-0.6-1.3-0.9-2.1-0.9c-0.8,0-1.6,0.3-2.1,0.9C13.1,2,12.4,4,12,5.6C11.6,4,10.9,2,10.2,1.4
			C9.7,0.8,8.9,0.5,8.1,0.5C7.3,0.5,6.6,0.8,6,1.4C4.8,2.5,4.8,4.5,6,5.6c0.5,0.5,1.6,1,2.7,1.4C8.8,7,8.9,7.1,9,7.1V8v2v1h6v-1V8
			V7.1c0.1,0,0.2-0.1,0.3-0.1c1.1-0.4,2.3-0.9,2.7-1.4C19.2,4.5,19.2,2.5,18,1.4z M6.7,4.9c-0.8-0.8-0.8-2,0-2.8
			c0.4-0.4,0.9-0.6,1.4-0.6c0.5,0,1,0.2,1.4,0.6c0.5,0.5,1.3,2.9,1.8,4.7C9.5,6.3,7.2,5.5,6.7,4.9z M17.3,4.9
			c-0.5,0.5-2.9,1.4-4.6,1.9c0.5-1.8,1.2-4.2,1.8-4.7c0.4-0.4,0.9-0.6,1.4-0.6c0.5,0,1,0.2,1.4,0.6C18.1,2.9,18.1,4.1,17.3,4.9z"/>
		<polygon points="16,7 16,8 16,10 16,11 23.5,11 24,11 24,7 		"/>
		<rect x="16" y="12" width="7" height="12"/>
		<rect x="1" y="12" width="7" height="12"/>
		<rect x="9" y="12" width="6" height="12"/>
	</g>
</g>
<g id="Outline_Icons">
	<g>
		<rect x="0.5" y="7.5" class="st2" width="23" height="4"/>
		<rect x="1.5" y="11.5" class="st2" width="21" height="12"/>
		<line class="st2" x1="8.5" y1="7.5" x2="8.5" y2="23.5"/>
		<line class="st2" x1="15.5" y1="23.5" x2="15.5" y2="7.5"/>
		<path class="st3" d="M17.7,5.3c-1,1-5.7,2.1-5.7,2.1s1.1-4.7,2.1-5.7c1-1,2.6-1,3.5,0C18.6,2.7,18.6,4.3,17.7,5.3z"/>
		<path class="st3" d="M6.3,5.3c1,1,5.7,2.1,5.7,2.1s-1.1-4.7-2.1-5.7c-1-1-2.6-1-3.5,0C5.4,2.7,5.4,4.3,6.3,5.3z"/>
	</g>
</g>
</svg>
