<?xml version="1.0" encoding="utf-8"?>
<!-- Generator: Adobe Illustrator 19.2.0, SVG Export Plug-In . SVG Version: 6.00 Build 0)  -->
<svg version="1.1" id="Layer_1" xmlns="http://www.w3.org/2000/svg" xmlns:xlink="http://www.w3.org/1999/xlink" x="0px" y="0px"
	 viewBox="0 0 24 24" style="enable-background:new 0 0 24 24;" xml:space="preserve">
<style type="text/css">
	.st0{display:none;}
	.st1{display:inline;}
	.st2{fill:none;stroke:#000000;stroke-linejoin:round;stroke-miterlimit:10;}
	.st3{fill:none;stroke:#000000;stroke-linecap:round;stroke-linejoin:round;stroke-miterlimit:10;}
</style>
<g id="Filled_Icon" class="st0">
	<g class="st1">
		<circle cx="11.5" cy="10" r="1.5"/>
		<path d="M23,3V0.5C23,0.2,22.8,0,22.5,0h-22C0.2,0,0,0.2,0,0.5V3H23z"/>
		<path d="M22.5,17H21V4H2v13H0.5C0.2,17,0,17.2,0,17.5S0.2,18,0.5,18H11v2.1c-0.9,0.2-1.5,1-1.5,1.9c0,1.1,0.9,2,2,2s2-0.9,2-2
			c0-0.9-0.6-1.7-1.5-1.9V18h10.5c0.3,0,0.5-0.2,0.5-0.5S22.8,17,22.5,17z M12.5,22c0,0.6-0.4,1-1,1s-1-0.4-1-1s0.4-1,1-1
			S12.5,21.4,12.5,22z M16.3,11.7l-1,1.7c-0.1,0.1-0.2,0.2-0.3,0.2s-0.3,0-0.4-0.1L14,13.2c-0.3,0.2-0.6,0.4-0.9,0.5v0.8
			c0,0.3-0.2,0.5-0.5,0.5h-2c-0.3,0-0.5-0.2-0.5-0.5v-0.8c-0.4-0.1-0.7-0.3-1-0.6l-0.7,0.4c-0.2,0.1-0.5,0.1-0.7-0.2l-1-1.7
			c-0.1-0.2-0.1-0.5,0.2-0.7l0.7-0.4c0-0.2,0-0.4,0-0.6c0-0.2,0-0.4,0-0.6L6.9,9.1C6.7,9,6.7,8.9,6.6,8.8c0-0.1,0-0.3,0.1-0.4l1-1.7
			c0.1-0.2,0.4-0.3,0.7-0.2l0.7,0.4c0.3-0.2,0.6-0.4,1-0.6V5.5c0-0.3,0.2-0.5,0.5-0.5h2c0.3,0,0.5,0.2,0.5,0.5v0.8
			c0.3,0.1,0.6,0.3,0.9,0.5l0.7-0.4c0.1-0.1,0.3-0.1,0.4-0.1c0.1,0,0.2,0.1,0.3,0.2l1,1.7c0.1,0.2,0.1,0.5-0.2,0.7l-0.7,0.4
			c0,0.2,0,0.4,0,0.6c0,0.2,0,0.4,0,0.6l0.7,0.4C16.4,11.1,16.5,11.4,16.3,11.7z"/>
	</g>
</g>
<g id="Outline_Icons">
	<g>
		<rect x="0.5" y="0.5" class="st2" width="22" height="3"/>
		<line class="st3" x1="0.5" y1="17.5" x2="22.5" y2="17.5"/>
		<rect x="2.5" y="3.5" class="st2" width="18" height="14"/>
		<line class="st2" x1="11.5" y1="17.5" x2="11.5" y2="20.5"/>
		<circle class="st2" cx="11.5" cy="22" r="1.5"/>
		<g>
			<circle class="st2" cx="11.5" cy="10" r="1.5"/>
			<path class="st2" d="M15,10c0-0.3,0-0.5-0.1-0.8l1-0.6l-1-1.7l-1,0.6c-0.4-0.4-0.9-0.7-1.4-0.8V5.5h-2v1.1C10,6.8,9.5,7,9.1,7.4
				l-1-0.6l-1,1.7l1,0.6C8,9.5,8,9.8,8,10c0,0.3,0,0.5,0.1,0.8l-1,0.6l1,1.7l1-0.6c0.4,0.4,0.9,0.7,1.4,0.8v1.1h2v-1.1
				c0.5-0.2,1-0.4,1.4-0.8l1,0.6l1-1.7l-1-0.6C15,10.6,15,10.3,15,10z"/>
		</g>
	</g>
</g>
</svg>
