<?xml version="1.0" encoding="utf-8"?>
<!-- Generator: Adobe Illustrator 19.2.0, SVG Export Plug-In . SVG Version: 6.00 Build 0)  -->
<svg version="1.1" id="Layer_1" xmlns="http://www.w3.org/2000/svg" xmlns:xlink="http://www.w3.org/1999/xlink" x="0px" y="0px"
	 viewBox="0 0 24 24" style="enable-background:new 0 0 24 24;" xml:space="preserve">
<style type="text/css">
	.st0{display:none;}
	.st1{display:inline;}
	.st2{fill:none;stroke:#000000;stroke-linecap:round;stroke-linejoin:round;stroke-miterlimit:10;}
	.st3{fill:none;stroke:#000000;stroke-linejoin:round;stroke-miterlimit:10;}
</style>
<g id="Filled_Icon" class="st0">
	<g class="st1">
		<path d="M23,3V0.5C23,0.2,22.8,0,22.5,0h-22C0.2,0,0,0.2,0,0.5V3H23z"/>
		<path d="M14,11h-3V8c0-0.3-0.2-0.5-0.5-0.5S10,7.7,10,8v3.5c0,0.3,0.2,0.5,0.5,0.5H14c0.3,0,0.5-0.2,0.5-0.5S14.3,11,14,11z"/>
		<path d="M22.5,17H21V4H2v13H0.5C0.2,17,0,17.2,0,17.5S0.2,18,0.5,18H11v2.1c-0.9,0.2-1.5,1-1.5,1.9c0,1.1,0.9,2,2,2s2-0.9,2-2
			c0-0.9-0.6-1.7-1.5-1.9V18h10.5c0.3,0,0.5-0.2,0.5-0.5S22.8,17,22.5,17z M12.5,22c0,0.6-0.4,1-1,1s-1-0.4-1-1s0.4-1,1-1
			S12.5,21.4,12.5,22z M11.5,16c-3,0-5.5-2.5-5.5-5.5S8.5,5,11.5,5S17,7.5,17,10.5S14.5,16,11.5,16z"/>
	</g>
</g>
<g id="Outline_Icons">
	<g>
		<circle class="st2" cx="11.5" cy="10.5" r="5"/>
		<rect x="0.5" y="0.5" class="st3" width="22" height="3"/>
		<line class="st2" x1="0.5" y1="17.5" x2="22.5" y2="17.5"/>
		<rect x="2.5" y="3.5" class="st3" width="18" height="14"/>
		<line class="st3" x1="11.5" y1="17.5" x2="11.5" y2="20.5"/>
		<circle class="st3" cx="11.5" cy="22" r="1.5"/>
		<polyline class="st2" points="10.5,8 10.5,11.5 14,11.5 		"/>
	</g>
</g>
</svg>
