<?xml version="1.0" encoding="utf-8"?>
<!-- Generator: Adobe Illustrator 19.2.0, SVG Export Plug-In . SVG Version: 6.00 Build 0)  -->
<svg version="1.1" id="Layer_1" xmlns="http://www.w3.org/2000/svg" xmlns:xlink="http://www.w3.org/1999/xlink" x="0px" y="0px"
	 viewBox="0 0 24 24" style="enable-background:new 0 0 24 24;" xml:space="preserve">
<style type="text/css">
	.st0{display:none;}
	.st1{display:inline;}
	.st2{fill:none;stroke:#000000;stroke-linejoin:round;stroke-miterlimit:10;}
	.st3{fill:none;stroke:#000000;stroke-linecap:round;stroke-linejoin:round;stroke-miterlimit:10;}
</style>
<g id="Filled_Icon" class="st0">
	<g class="st1">
		<path d="M22.5,17H21V4H2v13H0.5C0.2,17,0,17.2,0,17.5S0.2,18,0.5,18H11v2.1c-0.9,0.2-1.5,1-1.5,1.9c0,1.1,0.9,2,2,2s2-0.9,2-2
			c0-0.9-0.6-1.7-1.5-1.9V18h10.5c0.3,0,0.5-0.2,0.5-0.5S22.8,17,22.5,17z M9.5,15.5c-0.6,0-1-0.4-1-1s0.4-1,1-1s1,0.4,1,1
			S10.1,15.5,9.5,15.5z M12.5,22c0,0.6-0.4,1-1,1s-1-0.4-1-1s0.4-1,1-1S12.5,21.4,12.5,22z M14.5,15.5c-0.6,0-1-0.4-1-1s0.4-1,1-1
			s1,0.4,1,1S15.1,15.5,14.5,15.5z M16,12.5c0,0.3-0.2,0.5-0.5,0.5h-7C8.2,13,8,12.8,8,12.5V7H6C5.7,7,5.5,6.8,5.5,6.5S5.7,6,6,6
			h2.5C8.8,6,9,6.2,9,6.5V8h6.5C15.8,8,16,8.2,16,8.5V12.5z"/>
		<path d="M23,3V0.5C23,0.2,22.8,0,22.5,0h-22C0.2,0,0,0.2,0,0.5V3H23z"/>
	</g>
</g>
<g id="Outline_Icons">
	<g>
		<rect x="0.5" y="0.5" class="st2" width="22" height="3"/>
		<line class="st3" x1="0.5" y1="17.5" x2="22.5" y2="17.5"/>
		<rect x="2.5" y="3.5" class="st2" width="18" height="14"/>
		<line class="st2" x1="11.5" y1="17.5" x2="11.5" y2="20.5"/>
		<circle class="st2" cx="11.5" cy="22" r="1.5"/>
		<polyline class="st3" points="6,6.5 8.5,6.5 8.5,12.5 15.5,12.5 15.5,8.5 8.5,8.5 		"/>
		<circle class="st3" cx="9.5" cy="14.5" r="0.5"/>
		<circle class="st3" cx="14.5" cy="14.5" r="0.5"/>
	</g>
</g>
</svg>
