<?xml version="1.0" encoding="utf-8"?>
<!-- Generator: Adobe Illustrator 19.2.0, SVG Export Plug-In . SVG Version: 6.00 Build 0)  -->
<svg version="1.1" id="Layer_1" xmlns="http://www.w3.org/2000/svg" xmlns:xlink="http://www.w3.org/1999/xlink" x="0px" y="0px"
	 viewBox="0 0 24 24" style="enable-background:new 0 0 24 24;" xml:space="preserve">
<style type="text/css">
	.st0{display:none;}
	.st1{display:inline;}
	.st2{fill:none;stroke:#000000;stroke-linejoin:round;stroke-miterlimit:10;}
	.st3{fill:none;stroke:#000000;stroke-linecap:round;stroke-linejoin:round;stroke-miterlimit:10;}
</style>
<g id="Filled_Icon" class="st0">
	<g class="st1">
		<path d="M23,3V0.5C23,0.2,22.8,0,22.5,0h-22C0.2,0,0,0.2,0,0.5V3H23z"/>
		<path d="M22.5,17H21V4H2v13H0.5C0.2,17,0,17.2,0,17.5S0.2,18,0.5,18H11v2.1c-0.9,0.2-1.5,1-1.5,1.9c0,1.1,0.9,2,2,2s2-0.9,2-2
			c0-0.9-0.6-1.7-1.5-1.9V18h10.5c0.3,0,0.5-0.2,0.5-0.5S22.8,17,22.5,17z M7.9,12.2c0.2,0.2,0.2,0.5,0,0.7C7.8,13,7.7,13,7.5,13
			c-0.1,0-0.3,0-0.4-0.1l-2-2c0-0.1-0.1-0.2-0.1-0.3c0-0.1,0.1-0.3,0.1-0.4l2-2C7.4,8,7.7,8,7.9,8.2s0.2,0.5,0,0.7l-1.7,1.6
			L7.9,12.2z M12.5,22c0,0.6-0.4,1-1,1s-1-0.4-1-1s0.4-1,1-1S12.5,21.4,12.5,22z M13.9,7.7l-4,6.1C9.8,13.9,9.6,14,9.5,14
			c-0.1,0-0.2,0-0.3-0.1c-0.2-0.2-0.3-0.5-0.1-0.7l4-6.1c0.2-0.2,0.5-0.3,0.7-0.1C14,7.2,14.1,7.5,13.9,7.7z M17.8,10.9l-2,2
			C15.7,13,15.6,13,15.5,13s-0.3,0-0.4-0.1c-0.2-0.2-0.2-0.5,0-0.7l1.7-1.6L15.1,9c-0.2-0.2-0.2-0.5,0-0.7s0.5-0.2,0.7,0l2,2
			c0.1,0.1,0.2,0.2,0.2,0.4C18,10.7,17.9,10.8,17.8,10.9z"/>
	</g>
</g>
<g id="Outline_Icons">
	<g>
		<rect x="0.5" y="0.5" class="st2" width="22" height="3"/>
		<line class="st3" x1="0.5" y1="17.5" x2="22.5" y2="17.5"/>
		<rect x="2.5" y="3.5" class="st2" width="18" height="14"/>
		<line class="st2" x1="11.5" y1="17.5" x2="11.5" y2="20.5"/>
		<circle class="st2" cx="11.5" cy="22" r="1.5"/>
		<polyline class="st3" points="7.5,8.6 5.5,10.6 7.5,12.6 		"/>
		<polyline class="st3" points="15.5,8.5 17.5,10.5 15.5,12.5 		"/>
		<line class="st3" x1="9.5" y1="13.6" x2="13.5" y2="7.5"/>
	</g>
</g>
</svg>
