<?xml version="1.0" encoding="utf-8"?>
<!-- Generator: Adobe Illustrator 19.2.0, SVG Export Plug-In . SVG Version: 6.00 Build 0)  -->
<svg version="1.1" id="Layer_1" xmlns="http://www.w3.org/2000/svg" xmlns:xlink="http://www.w3.org/1999/xlink" x="0px" y="0px"
	 viewBox="0 0 24 24" style="enable-background:new 0 0 24 24;" xml:space="preserve">
<style type="text/css">
	.st0{display:none;}
	.st1{display:inline;}
	.st2{fill:none;stroke:#000000;stroke-linejoin:round;stroke-miterlimit:10;}
	.st3{fill:none;stroke:#000000;stroke-linecap:round;stroke-linejoin:round;stroke-miterlimit:10;}
</style>
<g id="Filled_Icon" class="st0">
	<g class="st1">
		<path d="M23,3V0.5C23,0.2,22.8,0,22.5,0h-22C0.2,0,0,0.2,0,0.5V3H23z"/>
		<path d="M22.5,17H21V4H2v13H0.5C0.2,17,0,17.2,0,17.5S0.2,18,0.5,18H11v2.1c-0.9,0.2-1.5,1-1.5,1.9c0,1.1,0.9,2,2,2s2-0.9,2-2
			c0-0.9-0.6-1.7-1.5-1.9V18h10.5c0.3,0,0.5-0.2,0.5-0.5S22.8,17,22.5,17z M12.5,22c0,0.6-0.4,1-1,1s-1-0.4-1-1s0.4-1,1-1
			S12.5,21.4,12.5,22z M19,14.5c0,0.3-0.2,0.5-0.5,0.5h-3c-0.3,0-0.5-0.2-0.5-0.5v-3c0-0.3,0.2-0.5,0.5-0.5H16V8h-2v0.5
			C14,8.8,13.8,9,13.5,9H12v2h1c0.3,0,0.5,0.2,0.5,0.5v3c0,0.3-0.2,0.5-0.5,0.5h-3c-0.3,0-0.5-0.2-0.5-0.5v-3c0-0.3,0.2-0.5,0.5-0.5
			h1V9H9.5C9.2,9,9,8.8,9,8.5V8H7v3h0.5C7.8,11,8,11.2,8,11.5v3C8,14.8,7.8,15,7.5,15h-3C4.2,15,4,14.8,4,14.5v-3
			C4,11.2,4.2,11,4.5,11H6V7.5C6,7.2,6.2,7,6.5,7H9V5.5C9,5.2,9.2,5,9.5,5h4C13.8,5,14,5.2,14,5.5V7h2.5C16.8,7,17,7.2,17,7.5V11
			h1.5c0.3,0,0.5,0.2,0.5,0.5V14.5z"/>
	</g>
</g>
<g id="Outline_Icons">
	<g>
		<rect x="0.5" y="0.5" class="st2" width="22" height="3"/>
		<line class="st3" x1="0.5" y1="17.5" x2="22.5" y2="17.5"/>
		<rect x="2.5" y="3.5" class="st2" width="18" height="14"/>
		<line class="st2" x1="11.5" y1="17.5" x2="11.5" y2="20.4"/>
		<circle class="st2" cx="11.5" cy="22" r="1.5"/>
		<rect x="9.5" y="5.5" class="st3" width="4" height="3"/>
		<rect x="10" y="11.5" class="st3" width="3" height="3"/>
		<rect x="15.5" y="11.5" class="st3" width="3" height="3"/>
		<rect x="4.5" y="11.5" class="st3" width="3" height="3"/>
		<polyline class="st3" points="13.5,7.5 16.5,7.5 16.5,11.5 		"/>
		<polyline class="st3" points="9.5,7.5 6.5,7.5 6.5,11.5 		"/>
		<line class="st2" x1="11.5" y1="8.5" x2="11.5" y2="11.5"/>
	</g>
</g>
</svg>
