<?xml version="1.0" encoding="utf-8"?>
<!-- Generator: Adobe Illustrator 19.2.0, SVG Export Plug-In . SVG Version: 6.00 Build 0)  -->
<svg version="1.1" id="Layer_1" xmlns="http://www.w3.org/2000/svg" xmlns:xlink="http://www.w3.org/1999/xlink" x="0px" y="0px"
	 viewBox="0 0 24 24" style="enable-background:new 0 0 24 24;" xml:space="preserve">
<style type="text/css">
	.st0{display:none;}
	.st1{display:inline;}
	.st2{fill:none;stroke:#000000;stroke-linejoin:round;stroke-miterlimit:10;}
</style>
<g id="Filled_Icons" class="st0">
	<path class="st1" d="M16.1,2.7c-1.3,0-2.7,0.3-3.8,1c-0.2,0.1-0.3,0.1-0.5,0c-1.2-0.6-2.5-1-3.8-1C3.6,2.7,0,6.3,0,10.6
		c0,3.3,1.3,6.1,3.8,8.1c2.2,1.7,5.1,2.6,8.2,2.6c6,0,12-3.7,12-10.8C24,6.3,20.4,2.7,16.1,2.7z M11.6,7.2c0.2-0.2,0.6-0.2,0.8,0
		c0.8,1,1.2,2.2,1.2,3.5c0,1-0.4,2-1.2,3.1C12.3,13.9,12.2,14,12,14c0,0,0,0,0,0c-0.2,0-0.3-0.1-0.4-0.2c-0.8-1.1-1.2-2.2-1.2-3.1
		C10.4,9.4,10.8,8.2,11.6,7.2z M6.3,17.3c-0.1,0-0.2,0-0.2-0.1c-2.8-1.4-3.8-3.2-3.8-6.6C2.3,7.5,4.8,5,7.9,5c0.5,0,1,0.1,1.5,0.2
		c0.2,0,0.3,0.2,0.3,0.3c0.1,0.2,0,0.3-0.1,0.5c-1,1.4-1.5,3-1.5,4.7c0,1.8,0.1,2.7,1.2,4.2c0.1,0.1,0.1,0.2,0.1,0.4
		c0,0.1-0.1,0.3-0.2,0.3c-0.8,0.6-1.7,1.2-2.8,1.7C6.5,17.2,6.4,17.3,6.3,17.3z M15.4,19.1c-1.1,0.3-2.2,0.5-3.3,0.5
		c-1.1,0-2.3-0.2-3.4-0.5c-0.2-0.1-0.3-0.2-0.4-0.4c0-0.2,0.1-0.4,0.3-0.5c1.1-0.6,3.2-2,3.2-2c0.2-0.1,0.4-0.1,0.5,0l3.2,2
		c0.2,0.1,0.3,0.3,0.2,0.5C15.7,18.9,15.6,19.1,15.4,19.1z M17.9,17.2c-0.1,0-0.1,0.1-0.2,0.1c-0.1,0-0.1,0-0.2-0.1
		c-1-0.5-1.9-1.1-2.8-1.7c-0.1-0.1-0.2-0.2-0.2-0.3c0-0.1,0-0.3,0.1-0.4c1.2-1.6,1.3-2.5,1.3-4.2c0-1.7-0.5-3.3-1.5-4.7
		c-0.1-0.1-0.1-0.3-0.1-0.5c0.1-0.2,0.2-0.3,0.3-0.3C15.1,5,15.6,5,16.1,5c3.1,0,5.7,2.5,5.7,5.7C21.7,14,20.7,15.8,17.9,17.2z"/>
</g>
<g id="Outline_Icons">
	<g>
		<path class="st2" d="M12,21.1c-3,0-5.7-0.9-7.8-2.5c-2.4-1.9-3.7-4.6-3.7-7.8C0.5,6.5,4,3,8.2,3c1.4,0,2.6,0.4,3.8,1
			c1.1-0.6,2.4-1,3.8-1c4.3,0,7.8,3.5,7.8,7.8C23.5,17.5,17.7,21.1,12,21.1z M14.7,14.9c0.7,0.5,1.5,1.1,2.5,1.5
			c2.2-1.1,3.3-2.5,3.3-5.6c0-2.6-2.1-4.7-4.8-4.7c-0.4,0-0.9,0.1-1.3,0.2C15.4,7.5,16,9,16,10.8C16,12.4,15.9,13.3,14.7,14.9z
			 M8.2,6c-2.6,0-4.8,2.1-4.8,4.8c0,3.1,1,4.5,3.3,5.6c0.9-0.5,1.8-1,2.5-1.5C8,13.3,8,12.4,8,10.8C8,9,8.6,7.5,9.5,6.2
			C9.1,6.1,8.7,6,8.2,6z M12,7.8c-0.6,0.8-1,1.8-1,2.9c0,0.8,0.3,1.7,1,2.6c0.7-0.9,1-1.9,1-2.6C13,9.7,12.6,8.6,12,7.8z"/>
		<path class="st2" d="M12,16.2c0,0-1.9,1.3-3,1.9c2,0.6,4,0.6,6,0C14,17.5,12,16.2,12,16.2z"/>
	</g>
</g>
</svg>
