<?xml version="1.0" encoding="utf-8"?>
<!-- Generator: Adobe Illustrator 19.2.0, SVG Export Plug-In . SVG Version: 6.00 Build 0)  -->
<svg version="1.1" id="Layer_1" xmlns="http://www.w3.org/2000/svg" xmlns:xlink="http://www.w3.org/1999/xlink" x="0px" y="0px"
	 viewBox="0 0 24 24" style="enable-background:new 0 0 24 24;" xml:space="preserve">
<style type="text/css">
	.st0{display:none;}
	.st1{display:inline;}
	.st2{fill:none;stroke:#000000;stroke-linecap:round;stroke-linejoin:round;stroke-miterlimit:10;}
</style>
<g id="Filled_Icon" class="st0">
	<path class="st1" d="M12,24c6.6,0,12-5.4,12-12S18.6,0,12,0S0,5.4,0,12S5.4,24,12,24z M17,16.5c0,0.2-0.1,0.4-0.3,0.5
		c-0.1,0-0.1,0-0.2,0s-0.2,0-0.3-0.1l-5-4.5C11.1,12.3,11,12.1,11,12s0.1-0.3,0.2-0.4l5-4.5C16.3,7,16.5,7,16.7,7
		C16.9,7.1,17,7.3,17,7.5V16.5z M7,7.5C7,7.2,7.2,7,7.5,7h2C9.8,7,10,7.2,10,7.5v9c0,0.3-0.2,0.5-0.5,0.5h-2C7.2,17,7,16.8,7,16.5
		V7.5z"/>
</g>
<g id="Outline_Icons">
	<g>
		<circle class="st2" cx="12" cy="12" r="11.5"/>
		<rect x="7.5" y="7.5" class="st2" width="2" height="9"/>
		<polygon class="st2" points="16.5,7.5 11.5,12 16.5,16.5 		"/>
	</g>
</g>
</svg>
