<?xml version="1.0" encoding="utf-8"?>
<!-- Generator: Adobe Illustrator 19.2.0, SVG Export Plug-In . SVG Version: 6.00 Build 0)  -->
<svg version="1.1" id="Layer_1" xmlns="http://www.w3.org/2000/svg" xmlns:xlink="http://www.w3.org/1999/xlink" x="0px" y="0px"
	 viewBox="0 0 24 24" style="enable-background:new 0 0 24 24;" xml:space="preserve">
<style type="text/css">
	.st0{display:none;}
	.st1{display:inline;}
	.st2{fill:none;stroke:#000000;stroke-linecap:round;stroke-linejoin:round;stroke-miterlimit:10;}
</style>
<g id="Filled_Icon" class="st0">
	<g class="st1">
		<g>
			<g>
				<rect x="15" y="21" width="4" height="3"/>
				<path d="M12.5,21c-0.3,0-0.5,0.2-0.5,0.5v2c0,0.3,0.2,0.5,0.5,0.5H14v-3H12.5z"/>
				<path d="M21.5,21H20v3h1.5c0.3,0,0.5-0.2,0.5-0.5v-2C22,21.2,21.8,21,21.5,21z"/>
			</g>
			<g>
				<rect x="4" y="21" width="4" height="3"/>
				<path d="M1.5,21C1.2,21,1,21.2,1,21.5v2C1,23.8,1.2,24,1.5,24H3v-3H1.5z"/>
				<path d="M10.5,21H9v3h1.5c0.3,0,0.5-0.2,0.5-0.5v-2C11,21.2,10.8,21,10.5,21z"/>
			</g>
			<g>
				<rect x="3" y="17.5" width="4" height="3"/>
				<path d="M0.5,17.5C0.2,17.5,0,17.7,0,18v2c0,0.3,0.2,0.5,0.5,0.5H2v-3H0.5z"/>
				<path d="M9.5,17.5H8v3h1.5c0.3,0,0.5-0.2,0.5-0.5v-2C10,17.7,9.8,17.5,9.5,17.5z"/>
			</g>
			<g>
				<rect x="16" y="17.5" width="4" height="3"/>
				<path d="M13.5,17.5c-0.3,0-0.5,0.2-0.5,0.5v2c0,0.3,0.2,0.5,0.5,0.5H15v-3H13.5z"/>
				<path d="M22.5,17.5H21v3h1.5c0.3,0,0.5-0.2,0.5-0.5v-2C23,17.7,22.8,17.5,22.5,17.5z"/>
			</g>
			<g>
				<rect x="15" y="14" width="4" height="3"/>
				<path d="M12.5,14c-0.3,0-0.5,0.2-0.5,0.5v2c0,0.3,0.2,0.5,0.5,0.5H14v-3H12.5z"/>
				<path d="M21.5,14H20v3h1.5c0.3,0,0.5-0.2,0.5-0.5v-2C22,14.2,21.8,14,21.5,14z"/>
			</g>
			<g>
				<rect x="16" y="10.5" width="4" height="3"/>
				<path d="M13.5,10.5c-0.3,0-0.5,0.2-0.5,0.5v2c0,0.3,0.2,0.5,0.5,0.5H15v-3H13.5z"/>
				<path d="M22.5,10.5H21v3h1.5c0.3,0,0.5-0.2,0.5-0.5v-2C23,10.7,22.8,10.5,22.5,10.5z"/>
			</g>
		</g>
		<path d="M22.5,0h-6.9c-0.3,0-0.5,0.2-0.5,0.5S15.3,1,15.6,1h5.8L15,7.8l-4.6-3.7c-0.2-0.2-0.5-0.1-0.7,0l-9,9
			c-0.2,0.2-0.2,0.5,0,0.7C0.7,13.9,0.9,14,1,14s0.3,0,0.4-0.1L10,5.1l4.6,3.7c0.2,0.2,0.5,0.1,0.7,0l6.6-7V7c0,0.3,0.2,0.5,0.5,0.5
			s0.5-0.2,0.5-0.5V0.5C23,0.2,22.8,0,22.5,0z"/>
	</g>
</g>
<g id="Outline_Icons">
	<g>
		<line class="st2" x1="2.5" y1="17.5" x2="2.5" y2="20.5"/>
		<g>
			<rect x="13.5" y="11.5" class="st2" width="9" height="3"/>
			<line class="st2" x1="15.5" y1="11.5" x2="15.5" y2="14.5"/>
			<line class="st2" x1="20.5" y1="11.5" x2="20.5" y2="14.5"/>
			<rect x="12.5" y="14.5" class="st2" width="9" height="3"/>
			<line class="st2" x1="14.5" y1="14.5" x2="14.5" y2="17.5"/>
			<line class="st2" x1="19.5" y1="14.5" x2="19.5" y2="17.5"/>
			<rect x="13.5" y="17.5" class="st2" width="9" height="3"/>
			<line class="st2" x1="15.5" y1="17.5" x2="15.5" y2="20.5"/>
			<line class="st2" x1="20.5" y1="17.5" x2="20.5" y2="20.5"/>
			<rect x="12.5" y="20.5" class="st2" width="9" height="3"/>
			<line class="st2" x1="14.5" y1="20.5" x2="14.5" y2="23.5"/>
			<line class="st2" x1="19.5" y1="20.5" x2="19.5" y2="23.5"/>
			<rect x="0.5" y="17.5" class="st2" width="9" height="3"/>
			<line class="st2" x1="7.5" y1="17.5" x2="7.5" y2="20.5"/>
			<rect x="1.5" y="20.5" class="st2" width="9" height="3"/>
		</g>
		<line class="st2" x1="8.5" y1="20.5" x2="8.5" y2="23.5"/>
		<line class="st2" x1="3.5" y1="20.5" x2="3.5" y2="23.5"/>
		<polyline class="st2" points="1,13.5 10,4.5 15,8.5 22.5,0.5 		"/>
		<polyline class="st2" points="15.6,0.5 22.5,0.5 22.5,6.9 		"/>
	</g>
</g>
</svg>
