<?xml version="1.0" encoding="utf-8"?>
<!-- Generator: Adobe Illustrator 19.2.0, SVG Export Plug-In . SVG Version: 6.00 Build 0)  -->
<svg version="1.1" id="Layer_1" xmlns="http://www.w3.org/2000/svg" xmlns:xlink="http://www.w3.org/1999/xlink" x="0px" y="0px"
	 viewBox="0 0 24 24" style="enable-background:new 0 0 24 24;" xml:space="preserve">
<style type="text/css">
	.st0{display:none;}
	.st1{display:inline;}
	.st2{fill:none;stroke:#000000;stroke-linecap:round;stroke-linejoin:round;stroke-miterlimit:10;}
</style>
<g id="Filled_Icon" class="st0">
	<g class="st1">
		<path d="M23,7c0-0.3-0.2-0.5-0.5-0.5S22,6.7,22,7v5.2l-7.6-8.1c-0.2-0.2-0.5-0.2-0.7,0L9,7.8L1.4,0.1C1.2,0,0.8,0,0.6,0.1
			c-0.2,0.2-0.2,0.5,0,0.7l8,8C8.8,9,9.1,9,9.3,8.9L14,5.2l7.4,7.8h-5.8c-0.3,0-0.5,0.2-0.5,0.5s0.2,0.5,0.5,0.5h6.9
			c0.3,0,0.5-0.2,0.5-0.5l0,0V7z"/>
		<g>
			<g>
				<rect x="4" y="21" width="4" height="3"/>
				<path d="M10.5,21c0.3,0,0.5,0.2,0.5,0.5v2c0,0.3-0.2,0.5-0.5,0.5H9v-3H10.5z"/>
				<path d="M1.5,21H3v3H1.5C1.2,24,1,23.8,1,23.5v-2C1,21.2,1.2,21,1.5,21z"/>
			</g>
			<g>
				<rect x="15" y="21" width="4" height="3"/>
				<path d="M21.5,21c0.3,0,0.5,0.2,0.5,0.5v2c0,0.3-0.2,0.5-0.5,0.5H20v-3H21.5z"/>
				<path d="M12.5,21H14v3h-1.5c-0.3,0-0.5-0.2-0.5-0.5v-2C12,21.2,12.2,21,12.5,21z"/>
			</g>
			<g>
				<rect x="16" y="17.5" width="4" height="3"/>
				<path d="M22.5,17.5c0.3,0,0.5,0.2,0.5,0.5v2c0,0.3-0.2,0.5-0.5,0.5H21v-3H22.5z"/>
				<path d="M13.5,17.5H15v3h-1.5c-0.3,0-0.5-0.2-0.5-0.5v-2C13,17.7,13.2,17.5,13.5,17.5z"/>
			</g>
			<g>
				<rect x="3" y="17.5" width="4" height="3"/>
				<path d="M9.5,17.5c0.3,0,0.5,0.2,0.5,0.5v2c0,0.3-0.2,0.5-0.5,0.5H8v-3H9.5z"/>
				<path d="M0.5,17.5H2v3H0.5C0.2,20.5,0,20.3,0,20v-2C0,17.7,0.2,17.5,0.5,17.5z"/>
			</g>
			<g>
				<rect x="4" y="14" width="4" height="3"/>
				<path d="M10.5,14c0.3,0,0.5,0.2,0.5,0.5v2c0,0.3-0.2,0.5-0.5,0.5H9v-3H10.5z"/>
				<path d="M1.5,14H3v3H1.5C1.2,17,1,16.8,1,16.5v-2C1,14.2,1.2,14,1.5,14z"/>
			</g>
			<g>
				<rect x="3" y="10.5" width="4" height="3"/>
				<path d="M9.5,10.5c0.3,0,0.5,0.2,0.5,0.5v2c0,0.3-0.2,0.5-0.5,0.5H8v-3H9.5z"/>
				<path d="M0.5,10.5H2v3H0.5C0.2,13.5,0,13.3,0,13v-2C0,10.7,0.2,10.5,0.5,10.5z"/>
			</g>
		</g>
	</g>
</g>
<g id="Outline_Icons">
	<g>
		<rect x="0.5" y="11.5" class="st2" width="9" height="3"/>
		<line class="st2" x1="7.5" y1="11.5" x2="7.5" y2="14.5"/>
		<line class="st2" x1="2.5" y1="11.5" x2="2.5" y2="14.5"/>
		<rect x="1.5" y="14.5" class="st2" width="9" height="3"/>
		<line class="st2" x1="8.5" y1="14.5" x2="8.5" y2="17.5"/>
		<line class="st2" x1="3.5" y1="14.5" x2="3.5" y2="17.5"/>
		<rect x="0.5" y="17.5" class="st2" width="9" height="3"/>
		<line class="st2" x1="7.5" y1="17.5" x2="7.5" y2="20.5"/>
		<line class="st2" x1="2.5" y1="17.5" x2="2.5" y2="20.5"/>
		<rect x="1.5" y="20.5" class="st2" width="9" height="3"/>
		<line class="st2" x1="8.5" y1="20.5" x2="8.5" y2="23.5"/>
		<line class="st2" x1="3.5" y1="20.5" x2="3.5" y2="23.5"/>
		<rect x="13.5" y="17.5" class="st2" width="9" height="3"/>
		<line class="st2" x1="15.5" y1="17.5" x2="15.5" y2="20.5"/>
		<line class="st2" x1="20.5" y1="17.5" x2="20.5" y2="20.5"/>
		<rect x="12.5" y="20.5" class="st2" width="9" height="3"/>
		<line class="st2" x1="14.5" y1="20.5" x2="14.5" y2="23.5"/>
		<line class="st2" x1="19.5" y1="20.5" x2="19.5" y2="23.5"/>
		<polyline class="st2" points="1,0.5 9,8.5 14,4.5 22.5,13.5 		"/>
		<polyline class="st2" points="15.6,13.5 22.5,13.5 22.5,7 		"/>
	</g>
</g>
</svg>
