<?xml version="1.0" encoding="utf-8"?>
<!-- Generator: Adobe Illustrator 19.2.0, SVG Export Plug-In . SVG Version: 6.00 Build 0)  -->
<svg version="1.1" id="Layer_1" xmlns="http://www.w3.org/2000/svg" xmlns:xlink="http://www.w3.org/1999/xlink" x="0px" y="0px"
	 viewBox="0 0 24 24" style="enable-background:new 0 0 24 24;" xml:space="preserve">
<style type="text/css">
	.st0{display:none;}
	.st1{display:inline;}
	.st2{fill:none;stroke:#000000;stroke-linecap:round;stroke-linejoin:round;stroke-miterlimit:10;}
</style>
<g id="Filled_Icon" class="st0">
	<g class="st1">
		<path d="M21.5,6h-19C1.1,6,0,7.1,0,8.5v6C0,15.9,1.1,17,2.5,17H5v4.5C5,21.8,5.2,22,5.5,22h8.8c-0.4-0.3-0.8-0.6-1.1-1H6v-7h7.3
			c1-1.2,2.5-2,4.2-2c2.7,0,5,2,5.4,4.6c0.7-0.4,1.1-1.2,1.1-2.1v-6C24,7.1,22.9,6,21.5,6z M3.5,11C2.7,11,2,10.3,2,9.5S2.7,8,3.5,8
			S5,8.7,5,9.5S4.3,11,3.5,11z"/>
		<path d="M5.5,5h13C18.8,5,19,4.8,19,4.5v-1c0-0.1-0.1-0.3-0.1-0.4l-3-3c-0.1,0-0.3-0.1-0.4-0.1h-10C5.2,0,5,0.2,5,0.5v4
			C5,4.8,5.2,5,5.5,5z M15.5,0.5l3,3h-3V0.5z"/>
		<path d="M21.7,21L21,20.3c0.6-0.8,1-1.7,1-2.8c0-2.5-2-4.5-4.5-4.5S13,15,13,17.5s2,4.5,4.5,4.5c1.1,0,2-0.4,2.8-1l0.7,0.7
			l2.1,2.1c0.1,0.1,0.2,0.1,0.4,0.1c0.1,0,0.3,0,0.4-0.1c0.2-0.2,0.2-0.5,0-0.7L21.7,21z M17.5,21c-1.9,0-3.5-1.6-3.5-3.5
			s1.6-3.5,3.5-3.5s3.5,1.6,3.5,3.5S19.4,21,17.5,21z"/>
	</g>
</g>
<g id="Outline_Icons">
	<g>
		<path class="st2" d="M5.5,16.5h-3c-1.1,0-2-0.9-2-2v-6c0-1.1,0.9-2,2-2h19c1.1,0,2,0.9,2,2v3"/>
		<polyline class="st2" points="5.5,4.5 5.5,0.5 15.5,0.5 18.5,3.5 18.5,4.5 		"/>
		<polyline class="st2" points="10.5,21.5 5.5,21.5 5.5,13.5 10.5,13.5 		"/>
		<circle class="st2" cx="3.5" cy="9.5" r="1"/>
		<polyline class="st2" points="15.5,0.5 15.5,3.5 18.5,3.5 		"/>
		<circle class="st2" cx="17.5" cy="17.5" r="4"/>
		<line class="st2" x1="20.5" y1="20.5" x2="23.5" y2="23.5"/>
	</g>
</g>
</svg>
