<?xml version="1.0" encoding="utf-8"?>
<!-- Generator: Adobe Illustrator 19.2.0, SVG Export Plug-In . SVG Version: 6.00 Build 0)  -->
<svg version="1.1" id="Layer_1" xmlns="http://www.w3.org/2000/svg" xmlns:xlink="http://www.w3.org/1999/xlink" x="0px" y="0px"
	 viewBox="0 0 24 24" style="enable-background:new 0 0 24 24;" xml:space="preserve">
<style type="text/css">
	.st0{display:none;}
	.st1{display:inline;}
	.st2{fill:none;stroke:#000000;stroke-linecap:round;stroke-linejoin:round;stroke-miterlimit:10;}
	.st3{fill:none;stroke:#000000;stroke-linejoin:round;stroke-miterlimit:10;}
</style>
<g id="Filled_Icons" class="st0">
	<g class="st1">
		<path d="M21.5,6h-19C1.1,6,0,7.1,0,8.5v6C0,15.9,1.1,17,2.5,17H5v6.5C5,23.8,5.2,24,5.5,24h13c0.3,0,0.5-0.2,0.5-0.5V17h2.5
			c1.4,0,2.5-1.1,2.5-2.5v-6C24,7.1,22.9,6,21.5,6z M3.5,11C2.7,11,2,10.3,2,9.5C2,8.7,2.7,8,3.5,8C4.3,8,5,8.7,5,9.5
			C5,10.3,4.3,11,3.5,11z M18,23H6v-9h12V23z"/>
		<path d="M18.9,3.1l-3-3C15.8,0.1,15.6,0,15.5,0h-10C5.2,0,5,0.2,5,0.5v4C5,4.8,5.2,5,5.5,5h13C18.8,5,19,4.8,19,4.5v-1
			C19,3.4,18.9,3.2,18.9,3.1z M15.5,3.5v-3l3,3H15.5z"/>
		<polygon points="14.4,15.2 11.9,19 9.4,17 6.8,22 17.2,22 		"/>
		<circle cx="8.7" cy="15.8" r="1"/>
		<circle cx="3.5" cy="9.5" r="0.5"/>
	</g>
</g>
<g id="Outline_Icons">
	<g>
		<path class="st2" d="M5.5,16.5h-3c-1.1,0-2-0.9-2-2v-6c0-1.1,0.9-2,2-2h19c1.1,0,2,0.9,2,2v6c0,1.1-0.9,2-2,2h-3"/>
		<polyline class="st2" points="5.5,4.5 5.5,0.5 15.5,0.5 18.5,3.5 18.5,4.5 		"/>
		<rect x="5.5" y="13.5" class="st2" width="13" height="10"/>
		<circle class="st2" cx="3.5" cy="9.5" r="1"/>
		<polyline class="st2" points="15.5,0.5 15.5,3.5 18.5,3.5 		"/>
		<polygon class="st3" points="16.5,21.5 14.3,16.3 12,19.8 9.6,17.8 7.6,21.5 		"/>
		<circle class="st3" cx="8.7" cy="15.8" r="0.5"/>
	</g>
</g>
</svg>
