<?xml version="1.0" encoding="utf-8"?>
<!-- Generator: Adobe Illustrator 19.2.0, SVG Export Plug-In . SVG Version: 6.00 Build 0)  -->
<svg version="1.1" id="Layer_1" xmlns="http://www.w3.org/2000/svg" xmlns:xlink="http://www.w3.org/1999/xlink" x="0px" y="0px"
	 viewBox="0 0 24 24" style="enable-background:new 0 0 24 24;" xml:space="preserve">
<style type="text/css">
	.st0{display:none;}
	.st1{display:inline;}
	.st2{fill:none;stroke:#000000;stroke-linecap:round;stroke-linejoin:round;stroke-miterlimit:10;}
</style>
<g id="Filled_Icons" class="st0">
	<g class="st1">
		<circle cx="3.5" cy="10.5" r="0.5"/>
		<path d="M21.5,7h-19C1.1,7,0,8.1,0,9.5v6C0,16.9,1.1,18,2.5,18H5v4.5C5,22.8,5.2,23,5.5,23h13c0.3,0,0.5-0.2,0.5-0.5V18h2.5
			c1.4,0,2.5-1.1,2.5-2.5v-6C24,8.1,22.9,7,21.5,7z M3.5,12C2.7,12,2,11.3,2,10.5C2,9.7,2.7,9,3.5,9C4.3,9,5,9.7,5,10.5
			C5,11.3,4.3,12,3.5,12z M18,22H6v-7h12V22z"/>
		<path d="M5.5,6h13C18.8,6,19,5.8,19,5.5v-1c0-0.1-0.1-0.3-0.1-0.4l-3-3C15.8,1.1,15.6,1,15.5,1h-10C5.2,1,5,1.2,5,1.5v4
			C5,5.8,5.2,6,5.5,6z M15.5,1.5l3,3h-3V1.5z"/>
		<path d="M7.5,17h9c0.3,0,0.5-0.2,0.5-0.5c0-0.3-0.2-0.5-0.5-0.5h-9C7.2,16,7,16.2,7,16.5C7,16.8,7.2,17,7.5,17z"/>
		<path d="M7.5,19h9c0.3,0,0.5-0.2,0.5-0.5c0-0.3-0.2-0.5-0.5-0.5h-9C7.2,18,7,18.2,7,18.5C7,18.8,7.2,19,7.5,19z"/>
		<path d="M7.5,21h9c0.3,0,0.5-0.2,0.5-0.5c0-0.3-0.2-0.5-0.5-0.5h-9C7.2,20,7,20.2,7,20.5C7,20.8,7.2,21,7.5,21z"/>
	</g>
</g>
<g id="Outline_Icons">
	<g>
		<path class="st2" d="M5.5,17.5h-3c-1.1,0-2-0.9-2-2v-6c0-1.1,0.9-2,2-2h19c1.1,0,2,0.9,2,2v6c0,1.1-0.9,2-2,2h-3"/>
		<polyline class="st2" points="5.5,5.5 5.5,1.5 15.5,1.5 18.5,4.5 18.5,5.5 		"/>
		<rect x="5.5" y="14.5" class="st2" width="13" height="8"/>
		<circle class="st2" cx="3.5" cy="10.5" r="1"/>
		<line class="st2" x1="7.5" y1="16.5" x2="16.5" y2="16.5"/>
		<line class="st2" x1="7.5" y1="18.5" x2="16.5" y2="18.5"/>
		<line class="st2" x1="7.5" y1="20.5" x2="16.5" y2="20.5"/>
		<polyline class="st2" points="15.5,1.5 15.5,4.5 18.5,4.5 		"/>
	</g>
</g>
</svg>
