<?xml version="1.0" encoding="utf-8"?>
<!-- Generator: Adobe Illustrator 19.2.0, SVG Export Plug-In . SVG Version: 6.00 Build 0)  -->
<svg version="1.1" id="Layer_1" xmlns="http://www.w3.org/2000/svg" xmlns:xlink="http://www.w3.org/1999/xlink" x="0px" y="0px"
	 viewBox="0 0 24 24" style="enable-background:new 0 0 24 24;" xml:space="preserve">
<style type="text/css">
	.st0{display:none;}
	.st1{display:inline;}
	.st2{fill:none;stroke:#000000;stroke-linecap:round;stroke-linejoin:round;stroke-miterlimit:10;}
	.st3{fill:none;stroke:#000000;stroke-linejoin:round;stroke-miterlimit:10;}
</style>
<g id="Filled_Icons" class="st0">
	<g class="st1">
		<path d="M23.9,19H0.1C0.1,19.3,0,19.7,0,20v1h24v-0.9C24,19.7,23.9,19.4,23.9,19z"/>
		<rect y="22" width="24" height="2"/>
		<path d="M21,15.8l-4.2-1.3C16.1,15.2,14.2,17,12,17c-1.1,0-2.8-0.4-4.8-2.5l-4.3,1.3C1.8,16.2,1,17,0.5,18h23
			C23,17,22.1,16.2,21,15.8z"/>
		<path d="M6.5,10.9c0.1,1.1,0.6,2,1.3,2.8c0,0,0,0,0,0C9.7,15.6,11.1,16,12,16c1.7,0,3.4-1.6,4.1-2.2c0.7-0.8,1.3-1.8,1.4-2.9
			c0.7-0.2,1.1-1,1.1-1.9c0-0.9-0.5-1.7-1.1-1.9V6.2c-1,0.3-3,0.8-5.5,0.8C9.5,7,7.5,6.5,6.5,6.2v0.9C5.8,7.3,5.4,8.1,5.4,9
			C5.4,10,5.8,10.7,6.5,10.9z M12.5,15.5h-1v-2h1V15.5z M7,8h10c0.5,0,0.6,0.7,0.6,1c0,0.3-0.1,0.6-0.2,0.8C17.3,10,17.1,10,17,10
			c-0.3,0-0.5,0.2-0.5,0.5c0,1.2-0.7,2.2-1.5,3v0c0-1.4-1.1-2.5-2.5-2.5h-1C10.1,11,9,12.1,9,13.5v0c-0.8-0.8-1.5-1.8-1.5-3
			C7.5,10.2,7.3,10,7,10c-0.5,0-0.6-0.7-0.6-1C6.4,8.7,6.5,8,7,8z"/>
		<path d="M17.5,5.1V3.7c-1,0.3-3,0.8-5.5,0.8C9.5,4.5,7.5,4,6.5,3.7v1.4C7.3,5.4,9.3,6,12,6C14.7,6,16.7,5.4,17.5,5.1z"/>
		<path d="M17.5,2.6V2.5c0-1.8-3-2.4-5.5-2.4c-2.5,0-5.5,0.6-5.5,2.4v0.1C7.3,2.9,9.3,3.5,12,3.5C14.7,3.5,16.7,2.9,17.5,2.6z"/>
		<path d="M10,9.5c0.1,0,0.3-0.1,0.4-0.1c0.1-0.1,0.1-0.2,0.1-0.4c0-0.1-0.1-0.3-0.1-0.4c-0.2-0.2-0.5-0.2-0.7,0
			C9.6,8.7,9.5,8.9,9.5,9c0,0.1,0.1,0.3,0.1,0.4C9.7,9.4,9.9,9.5,10,9.5z"/>
		<path d="M14,9.5c0.1,0,0.3-0.1,0.4-0.1c0.1-0.1,0.1-0.2,0.1-0.4c0-0.1-0.1-0.3-0.1-0.4c-0.2-0.2-0.5-0.2-0.7,0
			c-0.1,0.1-0.1,0.2-0.1,0.4c0,0.1,0.1,0.3,0.1,0.4C13.7,9.4,13.9,9.5,14,9.5z"/>
	</g>
</g>
<g id="Outline_Icons">
	<g>
		<path class="st2" d="M23.5,23.5V20c0-1.7-1-3.3-2.6-3.8l-6.2-1.8"/>
		<path class="st2" d="M9.3,14.3l-6.2,1.8c-1.6,0.6-2.6,2.1-2.6,3.7v3.6"/>
		<path class="st2" d="M12,15.4c-1.5,0-5-2-5-5c-1.5,0-1.5-3,0-3v-5c0-2.5,10-2.5,10,0v5c1.5,0,1.5,3,0,3C17,13.4,13.5,15.4,12,15.4
			"/>
		<path class="st3" d="M17,3.4c0,0-1.5,1-5,1s-5-1-5-1"/>
		<path class="st3" d="M17,5.9c0,0-1.5,1-5,1s-5-1-5-1"/>
		<path class="st3" d="M9.5,14.4v-1c0-1.1,0.9-2,2-2h1c1.1,0,2,0.9,2,2v1"/>
		<line class="st3" x1="12" y1="15.4" x2="12" y2="13.4"/>
		<line class="st3" x1="0.8" y1="18.5" x2="23.2" y2="18.5"/>
		<line class="st3" x1="0.5" y1="20.5" x2="23.5" y2="20.5"/>
		<line class="st3" x1="0.5" y1="22.5" x2="23.5" y2="22.5"/>
		<g>
			<g>
				<path d="M10,8.4c-0.3,0-0.5,0.2-0.5,0.5c0,0.3,0.2,0.5,0.5,0.5c0.3,0,0.5-0.2,0.5-0.5C10.5,8.6,10.3,8.4,10,8.4L10,8.4z"/>
			</g>
		</g>
		<g>
			<g>
				<path d="M14,8.4c-0.3,0-0.5,0.2-0.5,0.5c0,0.3,0.2,0.5,0.5,0.5c0.3,0,0.5-0.2,0.5-0.5C14.5,8.6,14.3,8.4,14,8.4L14,8.4z"/>
			</g>
		</g>
	</g>
</g>
</svg>
