<?xml version="1.0" encoding="utf-8"?>
<!-- Generator: Adobe Illustrator 19.2.0, SVG Export Plug-In . SVG Version: 6.00 Build 0)  -->
<svg version="1.1" id="Layer_1" xmlns="http://www.w3.org/2000/svg" xmlns:xlink="http://www.w3.org/1999/xlink" x="0px" y="0px"
	 viewBox="0 0 24 24" style="enable-background:new 0 0 24 24;" xml:space="preserve">
<style type="text/css">
	.st0{display:none;}
	.st1{display:inline;}
	.st2{fill:none;stroke:#000000;stroke-linejoin:round;stroke-miterlimit:10;}
</style>
<g id="Filled_Icon" class="st0">
	<g class="st1">
		<polygon points="15.3,12 12,2.1 8.7,12 		"/>
		<polygon points="15.3,13 8.8,13 12,22 		"/>
		<path d="M12.5,0.3l3.8,11.5l4.9-1.5L12.4,0.2l0,0C12.4,0.2,12.5,0.3,12.5,0.3z"/>
		<path d="M7.7,11.9l3.8-11.5c0-0.1,0.1-0.1,0.1-0.1l0,0L2.8,10.4L7.7,11.9z"/>
		<path d="M11.6,23.7L7.7,12.9l-5-1.5l8.9,12.4l0,0C11.6,23.7,11.6,23.7,11.6,23.7z"/>
		<path d="M16.4,12.9l-3.9,10.8c0,0-0.1,0.1-0.1,0.1l0,0l8.9-12.4L16.4,12.9z"/>
	</g>
</g>
<g id="Outline_Icons">
	<g>
		<polygon class="st2" points="8,12.5 12,0.5 16,12.5 		"/>
		<polyline class="st2" points="16,12.5 21,11 12,0.5 		"/>
		<polyline class="st2" points="8,12.5 3,11 12,0.5 		"/>
		<polygon class="st2" points="16,12.5 12,23.5 8,12.5 		"/>
		<polyline class="st2" points="8,12.5 3,11 12,23.5 		"/>
		<polyline class="st2" points="16,12.5 21,11 12,23.5 		"/>
	</g>
</g>
</svg>
