<?xml version="1.0" encoding="utf-8"?>
<!-- Generator: Adobe Illustrator 19.2.0, SVG Export Plug-In . SVG Version: 6.00 Build 0)  -->
<svg version="1.1" id="Layer_1" xmlns="http://www.w3.org/2000/svg" xmlns:xlink="http://www.w3.org/1999/xlink" x="0px" y="0px"
	 viewBox="0 0 24 24" style="enable-background:new 0 0 24 24;" xml:space="preserve">
<style type="text/css">
	.st0{display:none;}
	.st1{display:inline;}
	.st2{fill:none;stroke:#000000;stroke-linejoin:round;stroke-miterlimit:10;}
</style>
<g id="Filled_Icons" class="st0">
	<g class="st1">
		<path d="M22,0.5v23c0,0.3-0.2,0.5-0.5,0.5h-20C1.2,24,1,23.8,1,23.5v-23C1,0.2,1.2,0,1.5,0h20C21.8,0,22,0.2,22,0.5z M21,1H2v22
			h19V1z"/>
		<path d="M3.3,18L9,16.1v-1.4c-0.4-0.3-0.9-1-1-2.4c-0.4-0.3-0.6-0.9-0.6-1.5c0-0.3,0.1-0.6,0.2-0.9c0.1-0.1,0.2-0.2,0.3-0.3
			C7.6,9,7.2,8.1,7.6,7.4C7.7,7.2,8.1,6.9,8.7,7c0.6-1.1,2.1-1.5,3.3-1.5c1.4,0,3.1,0.5,3.5,1.9c0.2,0.9-0.1,1.8-0.3,2.3
			c0.1,0.1,0.2,0.2,0.2,0.3c0.1,0.2,0.2,0.5,0.2,0.9c0,0.6-0.2,1.2-0.7,1.5c-0.1,1.5-0.6,2.1-1,2.4v1.4l5.7,1.9
			c0.2,0.1,0.3,0.3,0.3,0.5v-16C20,2.2,19.8,2,19.5,2h-16C3.2,2,3,2.2,3,2.5v16C3,18.3,3.1,18.1,3.3,18z"/>
	</g>
</g>
<g id="Outline_Icons">
	<g>
		<path class="st2" d="M3.5,18.5l6-2v-2c0,0-1-0.3-1-2.5c-0.7,0-1-2,0-2c0-0.3-1.6-2.9,0.5-2.5c0.5-2,5.5-2,6,0
			c0.3,1.2-0.5,2.3-0.5,2.5c1,0,0.7,2,0,2c0,2.2-1,2.5-1,2.5v2l6,2"/>
		<rect x="1.5" y="0.5" class="st2" width="20" height="23"/>
		<rect x="3.5" y="2.5" class="st2" width="16" height="19"/>
	</g>
</g>
</svg>
