<?xml version="1.0" encoding="utf-8"?>
<!-- Generator: Adobe Illustrator 19.2.0, SVG Export Plug-In . SVG Version: 6.00 Build 0)  -->
<svg version="1.1" id="Outline_Icons" xmlns="http://www.w3.org/2000/svg" xmlns:xlink="http://www.w3.org/1999/xlink" x="0px"
	 y="0px" viewBox="0 0 24 24" style="enable-background:new 0 0 24 24;" xml:space="preserve">
<style type="text/css">
	.st0{fill:none;stroke:#000000;stroke-linecap:round;stroke-linejoin:round;stroke-miterlimit:10;}
	.st1{fill:none;stroke:#000000;stroke-linejoin:round;stroke-miterlimit:10;}
</style>
<g>
	<g>
		<g>
			<path class="st0" d="M23.5,18.9c0,0.9-0.7,1.6-1.5,1.6H2c-0.8,0-1.5-0.7-1.5-1.6V4.1c0-0.9,0.7-1.6,1.5-1.6h20
				c0.8,0,1.5,0.7,1.5,1.6V18.9z"/>
			<line class="st0" x1="5" y1="22.5" x2="19" y2="22.5"/>
			<line class="st0" x1="11.5" y1="20.5" x2="11.5" y2="22.5"/>
			<circle class="st1" cx="12" cy="18.5" r="0.5"/>
			<line class="st1" x1="0.5" y1="16.5" x2="23.5" y2="16.5"/>
		</g>
	</g>
	<g>
		<g>
			<line class="st0" x1="3.5" y1="12" x2="3.5" y2="7"/>
			<line class="st0" x1="5.9" y1="12" x2="5.9" y2="7"/>
			<line class="st0" x1="3.5" y1="9.5" x2="5.9" y2="9.5"/>
		</g>
		<polyline class="st0" points="15.9,12 15.9,7 14.3,9.5 12.7,7 12.7,12 		"/>
		<polyline class="st0" points="20.5,12 18.1,12 18.1,7 		"/>
		<g>
			<line class="st0" x1="9.3" y1="12" x2="9.3" y2="7"/>
			<line class="st0" x1="8.1" y1="7" x2="10.5" y2="7"/>
		</g>
	</g>
</g>
</svg>
