<?xml version="1.0" encoding="utf-8"?>
<!-- Generator: Adobe Illustrator 19.2.0, SVG Export Plug-In . SVG Version: 6.00 Build 0)  -->
<svg version="1.1" id="Outline_Icons" xmlns="http://www.w3.org/2000/svg" xmlns:xlink="http://www.w3.org/1999/xlink" x="0px"
	 y="0px" viewBox="0 0 24 24" style="enable-background:new 0 0 24 24;" xml:space="preserve">
<style type="text/css">
	.st0{fill:none;stroke:#000000;stroke-linecap:round;stroke-linejoin:round;stroke-miterlimit:10;}
	.st1{fill:none;stroke:#000000;stroke-linejoin:round;stroke-miterlimit:10;}
</style>
<g>
	<g>
		<g>
			<path class="st0" d="M23.5,18.9c0,0.9-0.7,1.6-1.5,1.6H2c-0.8,0-1.5-0.7-1.5-1.6V4.1c0-0.9,0.7-1.6,1.5-1.6h20
				c0.8,0,1.5,0.7,1.5,1.6V18.9z"/>
			<line class="st0" x1="5" y1="22.5" x2="19" y2="22.5"/>
			<line class="st0" x1="11.5" y1="20.5" x2="11.5" y2="22.5"/>
			<circle class="st1" cx="12" cy="18.5" r="0.5"/>
			<line class="st1" x1="0.5" y1="16.5" x2="23.5" y2="16.5"/>
		</g>
	</g>
	<g>
		<path class="st0" d="M8.8,8.1C8.7,7.4,8.3,6.9,7.5,6.9c-1.2,0-1.4,1.2-1.4,2.7s0.2,2.7,1.4,2.7c0.8,0,1.1-0.5,1.3-1.2"/>
		<path class="st0" d="M10.9,11c0,0.7,0.6,1.2,1.2,1.2c0.7,0,1.2-0.6,1.2-1.3c0-1.1-1-1.3-1.2-1.3c-0.2-0.1-1.2-0.2-1.2-1.3
			c0-0.7,0.6-1.3,1.2-1.3c0.7,0,1.2,0.5,1.2,1.2"/>
		<path class="st0" d="M15.4,11c0,0.7,0.6,1.2,1.2,1.2c0.7,0,1.2-0.6,1.2-1.3c0-1.1-1-1.3-1.2-1.3c-0.2-0.1-1.2-0.2-1.2-1.3
			C15.4,7.6,16,7,16.6,7c0.7,0,1.2,0.5,1.2,1.2"/>
	</g>
</g>
</svg>
