<?xml version="1.0" encoding="utf-8"?>
<!-- Generator: Adobe Illustrator 19.2.0, SVG Export Plug-In . SVG Version: 6.00 Build 0)  -->
<svg version="1.1" id="Outline_Icons" xmlns="http://www.w3.org/2000/svg" xmlns:xlink="http://www.w3.org/1999/xlink" x="0px"
	 y="0px" viewBox="0 0 24 24" style="enable-background:new 0 0 24 24;" xml:space="preserve">
<style type="text/css">
	.st0{fill:none;stroke:#000000;stroke-linecap:round;stroke-linejoin:round;stroke-miterlimit:10;}
	.st1{fill:none;stroke:#000000;stroke-linejoin:round;stroke-miterlimit:10;}
</style>
<g>
	<g>
		<polyline class="st0" points="8.5,8.8 8.5,5.3 8.1,5.7 		"/>
		<polyline class="st0" points="5.1,13.7 5.1,10.2 4.6,10.6 		"/>
		<polyline class="st0" points="19,8.8 19,5.3 18.5,5.7 		"/>
		<polyline class="st0" points="19,13.7 19,10.2 18.5,10.6 		"/>
		<polyline class="st0" points="15.5,8.8 15.5,5.3 15.1,5.7 		"/>
		<polyline class="st0" points="12,13.7 12,10.2 11.6,10.6 		"/>
		<path class="st0" d="M5.8,7.1c0,1-0.1,1.8-0.9,1.8s-1-0.9-1-1.8c0-1,0.1-1.8,0.9-1.8S5.8,6.1,5.8,7.1z"/>
		<path class="st0" d="M12.7,7.1c0,1-0.1,1.8-0.9,1.8S10.9,8,10.9,7.1c0-1,0.1-1.8,0.9-1.8S12.7,6.1,12.7,7.1z"/>
		<path class="st0" d="M16.2,12c0,1-0.1,1.8-0.9,1.8c-0.8,0-0.9-0.8-0.9-1.8s0.1-1.8,0.9-1.8C16,10.2,16.2,11,16.2,12z"/>
		<path class="st0" d="M9.2,12c0,1-0.1,1.8-0.9,1.8S7.4,13,7.4,12s0.1-1.8,0.9-1.8S9.2,11,9.2,12z"/>
	</g>
	<g>
		<path class="st0" d="M23.5,18.9c0,0.9-0.7,1.6-1.5,1.6H2c-0.8,0-1.5-0.7-1.5-1.6V4.1c0-0.9,0.7-1.6,1.5-1.6h20
			c0.8,0,1.5,0.7,1.5,1.6V18.9z"/>
		<line class="st0" x1="5" y1="22.5" x2="19" y2="22.5"/>
		<line class="st0" x1="11.5" y1="20.5" x2="11.5" y2="22.5"/>
		<circle class="st1" cx="12" cy="18.5" r="0.5"/>
		<line class="st1" x1="0.5" y1="16.5" x2="23.5" y2="16.5"/>
	</g>
</g>
</svg>
