<?xml version="1.0" encoding="utf-8"?>
<!-- Generator: Adobe Illustrator 19.2.0, SVG Export Plug-In . SVG Version: 6.00 Build 0)  -->
<svg version="1.1" id="Layer_1" xmlns="http://www.w3.org/2000/svg" xmlns:xlink="http://www.w3.org/1999/xlink" x="0px" y="0px"
	 viewBox="0 0 24 24" style="enable-background:new 0 0 24 24;" xml:space="preserve">
<style type="text/css">
	.st0{display:none;}
	.st1{display:inline;}
	.st2{fill:none;stroke:#000000;stroke-linejoin:round;stroke-miterlimit:10;}
	.st3{fill:none;stroke:#000000;stroke-linecap:round;stroke-linejoin:round;stroke-miterlimit:10;}
</style>
<g id="Filled_Icon" class="st0">
	<g class="st1">
		<path d="M0,16.5C0,16.8,0.2,17,0.5,17h10.3l-6.1,6.1c-0.2,0.2-0.2,0.5,0,0.7s0.5,0.2,0.7,0l6.1-6.1v5.8c0,0.3,0.2,0.5,0.5,0.5
			s0.5-0.2,0.5-0.5v-5.8l6.1,6.1C18.7,24,18.9,24,19,24s0.3,0,0.4-0.1c0.2-0.2,0.2-0.5,0-0.7L13.2,17h10.3c0.3,0,0.5-0.2,0.5-0.5V5
			H0V16.5z"/>
		<path d="M23.5,0h-23C0.2,0,0,0.2,0,0.5V4h24V0.5C24,0.2,23.8,0,23.5,0z"/>
	</g>
</g>
<g id="Outline_Icons">
	<g>
		<rect x="0.5" y="0.5" class="st2" width="23" height="16"/>
		<line class="st3" x1="11.5" y1="16.5" x2="11.5" y2="23.5"/>
		<polyline class="st3" points="4.5,23.5 11.5,16.5 18.5,23.5 		"/>
		<line class="st3" x1="0.5" y1="4.5" x2="23.5" y2="4.5"/>
	</g>
</g>
</svg>
