<?xml version="1.0" encoding="utf-8"?>
<!-- Generator: Adobe Illustrator 19.2.0, SVG Export Plug-In . SVG Version: 6.00 Build 0)  -->
<svg version="1.1" id="Layer_1" xmlns="http://www.w3.org/2000/svg" xmlns:xlink="http://www.w3.org/1999/xlink" x="0px" y="0px"
	 viewBox="0 0 24 24" style="enable-background:new 0 0 24 24;" xml:space="preserve">
<style type="text/css">
	.st0{display:none;}
	.st1{display:inline;}
	.st2{fill:none;stroke:#000000;stroke-linejoin:round;stroke-miterlimit:10;}
	.st3{fill:none;stroke:#000000;stroke-linecap:round;stroke-linejoin:round;stroke-miterlimit:10;}
</style>
<g id="Filled_Icon" class="st0">
	<g class="st1">
		<path d="M15,4V0.5C15,0.2,14.8,0,14.5,0h-6C8.2,0,8,0.2,8,0.5V4H15z M11.5,1c0.6,0,1,0.4,1,1c0,0.6-0.4,1-1,1c-0.6,0-1-0.4-1-1
			C10.5,1.4,10.9,1,11.5,1z"/>
		<path d="M15,5H8H7.5C7.2,5,7,5.2,7,5.5v2C7,7.8,7.2,8,7.5,8h8C15.8,8,16,7.8,16,7.5V6h3v7H3.5C3.2,13,3,13.2,3,13.5V16h18v-2.5
			c0-0.3-0.2-0.5-0.5-0.5H20V5.5C20,5.2,19.8,5,19.5,5h-4H15z"/>
		<path d="M4,22.5C4,22.8,4.2,23,4.5,23H5v0.5C5,23.8,5.2,24,5.5,24C5.8,24,6,23.8,6,23.5V23h12v0.5c0,0.3,0.2,0.5,0.5,0.5
			c0.3,0,0.5-0.2,0.5-0.5V23h0.5c0.3,0,0.5-0.2,0.5-0.5V17H4V22.5z M17,18.5c0-0.3,0.2-0.5,0.5-0.5c0.3,0,0.5,0.2,0.5,0.5v2
			c0,0.3-0.2,0.5-0.5,0.5c-0.3,0-0.5-0.2-0.5-0.5V18.5z M15,18.5c0-0.3,0.2-0.5,0.5-0.5c0.3,0,0.5,0.2,0.5,0.5v2
			c0,0.3-0.2,0.5-0.5,0.5c-0.3,0-0.5-0.2-0.5-0.5V18.5z M13,18.5c0-0.3,0.2-0.5,0.5-0.5c0.3,0,0.5,0.2,0.5,0.5v2
			c0,0.3-0.2,0.5-0.5,0.5c-0.3,0-0.5-0.2-0.5-0.5V18.5z"/>
	</g>
</g>
<g id="Outline_Icons">
	<g>
		<rect x="4.5" y="16.5" class="st2" width="15" height="6"/>
		<line class="st3" x1="5.5" y1="22.5" x2="5.5" y2="23.5"/>
		<line class="st3" x1="18.5" y1="22.5" x2="18.5" y2="23.5"/>
		<line class="st3" x1="17.5" y1="18.5" x2="17.5" y2="20.5"/>
		<line class="st3" x1="15.5" y1="18.5" x2="15.5" y2="20.5"/>
		<line class="st3" x1="13.5" y1="18.5" x2="13.5" y2="20.5"/>
		<polyline class="st2" points="19.5,13.5 19.5,5.5 15.5,5.5 		"/>
		<rect x="7.5" y="5.5" class="st2" width="8" height="2"/>
		<rect x="8.5" y="0.5" class="st2" width="6" height="5"/>
		<circle class="st2" cx="11.5" cy="3.1" r="1"/>
		<rect x="3.5" y="13.5" class="st2" width="17" height="3"/>
	</g>
</g>
</svg>
