<?xml version="1.0" encoding="utf-8"?>
<!-- Generator: Adobe Illustrator 19.2.0, SVG Export Plug-In . SVG Version: 6.00 Build 0)  -->
<svg version="1.1" id="Layer_1" xmlns="http://www.w3.org/2000/svg" xmlns:xlink="http://www.w3.org/1999/xlink" x="0px" y="0px"
	 viewBox="0 0 24 24" style="enable-background:new 0 0 24 24;" xml:space="preserve">
<style type="text/css">
	.st0{display:none;}
	.st1{display:inline;}
	.st2{fill:none;stroke:#000000;stroke-linecap:round;stroke-linejoin:round;stroke-miterlimit:10;}
	.st3{fill:none;stroke:#000000;stroke-linejoin:round;stroke-miterlimit:10;}
</style>
<g id="Filled_Icon" class="st0">
	<g class="st1">
		<path d="M21.6,4.5c-0.1,0-7.4-2-9.8-4.4c-0.2-0.2-0.5-0.2-0.7,0C8.8,2.5,1.4,4.5,1.4,4.5C1.2,4.6,1,4.8,1,5
			c0,8.6,0.8,15.4,10.3,19c0.1,0,0.1,0,0.2,0c0.1,0,0.1,0,0.2,0C21.2,20.4,22,13.6,22,5C22,4.8,21.8,4.6,21.6,4.5z M16.8,13.3
			l-1.1,1.9c-0.1,0.1-0.2,0.2-0.3,0.2s-0.3,0-0.4-0.1l-0.8-0.5c-0.3,0.3-0.7,0.5-1.1,0.6v0.9c0,0.3-0.2,0.5-0.5,0.5h-2.2
			c-0.3,0-0.5-0.2-0.5-0.5v-0.9c-0.4-0.2-0.8-0.4-1.2-0.6L8,15.4c-0.2,0.1-0.5,0.1-0.7-0.2l-1.1-1.9c-0.1-0.1-0.1-0.3,0-0.4
			c0-0.1,0.1-0.2,0.2-0.3l0.8-0.5c0-0.2,0-0.4,0-0.6c0-0.2,0-0.4,0.1-0.6l-0.8-0.5c-0.1-0.1-0.2-0.2-0.2-0.3s0-0.3,0.1-0.4l1.1-1.9
			c0-0.3,0.3-0.3,0.5-0.2l0.8,0.5C9.2,7.8,9.6,7.6,10,7.4V6.5C10,6.2,10.2,6,10.5,6h2.2c0.3,0,0.5,0.2,0.5,0.5v0.9
			c0.4,0.2,0.7,0.4,1.1,0.6L15,7.6c0.1-0.1,0.3-0.1,0.4-0.1c0.1,0,0.2,0.1,0.3,0.2l1.1,1.9c0.1,0.1,0.1,0.3,0.1,0.4
			c0,0.1-0.1,0.2-0.2,0.3l-0.8,0.5c0,0.2,0.1,0.4,0.1,0.6c0,0.2,0,0.4,0,0.6l0.8,0.5C16.9,12.7,17,13,16.8,13.3z"/>
		<circle cx="11.5" cy="11.5" r="1.7"/>
	</g>
</g>
<g id="Outline_Icons">
	<g>
		<path class="st2" d="M11.5,0.5L11.5,0.5C9,3,1.5,5,1.5,5c0,8,0.5,15,10,18.5C21,20,21.5,13,21.5,5C21.5,5,14,3,11.5,0.5z"/>
		<g>
			<circle class="st3" cx="11.5" cy="11.5" r="1.7"/>
			<path class="st3" d="M15.4,11.5c0-0.3,0-0.6-0.1-0.9l1.1-0.6l-1.1-2l-1.1,0.6c-0.4-0.4-1-0.7-1.5-0.9V6.5h-2.2v1.3
				C9.9,8,9.3,8.3,8.9,8.7L7.8,8l-1.2,2l1.1,0.6c-0.1,0.3-0.1,0.6-0.1,0.9c0,0.3,0,0.6,0.1,0.9L6.6,13l1.1,2l1.1-0.6
				c0.4,0.4,1,0.7,1.6,0.9v1.3h2.2v-1.3c0.6-0.2,1.1-0.5,1.5-0.9l1.1,0.6l1.1-1.9l-1.1-0.6C15.4,12.1,15.4,11.8,15.4,11.5z"/>
		</g>
	</g>
</g>
</svg>
