<?xml version="1.0" encoding="utf-8"?>
<!-- Generator: Adobe Illustrator 19.2.0, SVG Export Plug-In . SVG Version: 6.00 Build 0)  -->
<svg version="1.1" id="Layer_1" xmlns="http://www.w3.org/2000/svg" xmlns:xlink="http://www.w3.org/1999/xlink" x="0px" y="0px"
	 viewBox="0 0 24 24" style="enable-background:new 0 0 24 24;" xml:space="preserve">
<style type="text/css">
	.st0{display:none;}
	.st1{display:inline;}
	.st2{fill:none;stroke:#000000;stroke-linecap:round;stroke-linejoin:round;stroke-miterlimit:10;}
</style>
<g id="Filled_Icon" class="st0">
	<path class="st1" d="M21.7,0.6c-0.2-0.1-0.4-0.1-0.5,0c-1.8,1.2-3.2,1.8-4.7,1.8c-1.8,0-3.5-0.8-4.6-2.2c-0.2-0.2-0.6-0.2-0.8,0
		C10,1.6,8.3,2.4,6.5,2.4c-1.5,0-3-0.6-4.7-1.8c-0.2-0.1-0.4-0.1-0.5,0C1.1,0.6,1,0.8,1,1v14.8v0.1c0.1,0.2,1.6,5.6,10.3,8h0.1h0.1
		c8.7-2.4,10.3-7.8,10.3-8v-0.1V1C22,0.8,21.9,0.6,21.7,0.6z M18.4,9l-6,8.7c-0.2,0.2-0.4,0.4-0.7,0.4h-0.1c-0.3,0-0.5-0.1-0.7-0.3
		l-4.6-4.6c-0.4-0.4-0.4-1,0-1.4s1-0.4,1.4,0l3.7,3.7l5.4-7.7c0.3-0.5,0.9-0.6,1.4-0.3C18.6,8,18.7,8.6,18.4,9z"/>
</g>
<g id="Outline_Icons">
	<g>
		<path class="st2" d="M16.5,2.9c-2,0-3.8-0.9-5-2.4l0,0c-1.2,1.5-3,2.4-5,2.4c-1.8,0-3.4-0.7-5-1.9v14.8c0,0,1.5,5.3,10,7.7
			c8.6-2.4,10-7.7,10-7.7V1C19.8,2.2,18.2,2.9,16.5,2.9z"/>
		<polyline class="st2" points="17.5,8.5 11.5,17.2 6.9,12.6 		"/>
	</g>
</g>
</svg>
