<?xml version="1.0" encoding="utf-8"?>
<!-- Generator: Adobe Illustrator 19.2.0, SVG Export Plug-In . SVG Version: 6.00 Build 0)  -->
<svg version="1.1" id="Layer_1" xmlns="http://www.w3.org/2000/svg" xmlns:xlink="http://www.w3.org/1999/xlink" x="0px" y="0px"
	 viewBox="0 0 24 24" style="enable-background:new 0 0 24 24;" xml:space="preserve">
<style type="text/css">
	.st0{display:none;}
	.st1{display:inline;}
	.st2{fill:none;stroke:#000000;stroke-linecap:round;stroke-linejoin:round;stroke-miterlimit:10;}
	.st3{fill:none;stroke:#000000;stroke-linejoin:round;stroke-miterlimit:10;}
</style>
<g id="Filled_Icon" class="st0">
	<g class="st1">
		<circle cx="11.5" cy="12" r="2"/>
		<path d="M21.7,0.6c-0.2-0.1-0.4-0.1-0.5,0c-1.8,1.2-3.2,1.8-4.7,1.8c-1.8,0-3.5-0.8-4.6-2.2c-0.2-0.2-0.6-0.2-0.8,0
			C10,1.6,8.3,2.4,6.5,2.4c-1.5,0-3-0.6-4.7-1.8c-0.2-0.1-0.4-0.1-0.5,0C1.1,0.6,1,0.8,1,1v14.8v0.1c0.1,0.2,1.6,5.6,10.3,8h0.1h0.1
			c8.7-2.4,10.3-7.8,10.3-8v-0.1V1C22,0.8,21.9,0.6,21.7,0.6z M18.3,14.2l-1.5,2.6c-0.1,0.1-0.2,0.2-0.3,0.2c-0.1,0-0.3,0-0.4-0.1
			L15,16.3c-0.4,0.3-0.8,0.5-1.4,0.8v1.4c0,0.3-0.2,0.5-0.5,0.5h-3c-0.3,0-0.5-0.2-0.5-0.5v-1.3c-0.7-0.2-1.1-0.5-1.5-0.9L6.9,17
			c-0.2,0.1-0.5,0.1-0.7-0.2l-1.5-2.6c-0.1-0.1-0.1-0.3-0.1-0.4c0-0.1,0.1-0.2,0.2-0.3L6,12.8c-0.1-0.6-0.1-1.1,0-1.7l-1.2-0.7
			c-0.1-0.1-0.2-0.2-0.2-0.3s0-0.3,0.1-0.4l1.5-2.6C6.4,6.9,6.7,6.9,6.9,7l1.2,0.7C8.5,7.3,8.9,7,9.6,6.8V5.5C9.6,5.2,9.8,5,10.1,5
			h3c0.3,0,0.5,0.2,0.5,0.5v1.4c0.6,0.3,1,0.5,1.4,0.8L16.1,7c0.1-0.1,0.3-0.1,0.4-0.1s0.2,0.1,0.3,0.2l1.5,2.6
			c0.1,0.1,0.1,0.3,0.1,0.4c0,0.1-0.1,0.2-0.2,0.3L17,11.1c0.1,0.6,0.1,1.1,0,1.7l1.2,0.7C18.4,13.6,18.5,13.9,18.3,14.2z"/>
	</g>
</g>
<g id="Outline_Icons">
	<g>
		<path class="st2" d="M16.5,2.9c-2,0-3.8-0.9-5-2.4l0,0c-1.2,1.5-3,2.4-5,2.4c-1.8,0-3.4-0.7-5-1.9v14.8c0,0,1.5,5.3,10,7.7
			c8.5-2.4,10-7.7,10-7.7V1C19.8,2.2,18.2,2.9,16.5,2.9z"/>
		<g>
			<path class="st3" d="M16.4,16.5l1.5-2.6L16.4,13c0.2-0.7,0.2-1.4,0-2.2l1.5-0.9l-1.5-2.6L15,8.2c-0.5-0.5-1.3-0.9-1.8-1.1V5.5h-3
				v1.7c-1,0.2-1.4,0.6-1.9,1.1L6.6,7.4L5.1,10l1.5,0.9c-0.2,0.7-0.2,1.4,0,2.2L5.1,14l1.5,2.6l1.6-0.9c0.5,0.5,0.9,0.9,1.9,1.1v1.7
				h3v-1.7c0.5-0.2,1.3-0.6,1.8-1.1L16.4,16.5z"/>
			<circle class="st3" cx="11.5" cy="12" r="2"/>
		</g>
	</g>
</g>
</svg>
