<?xml version="1.0" encoding="utf-8"?>
<!-- Generator: Adobe Illustrator 19.2.0, SVG Export Plug-In . SVG Version: 6.00 Build 0)  -->
<svg version="1.1" id="Layer_1" xmlns="http://www.w3.org/2000/svg" xmlns:xlink="http://www.w3.org/1999/xlink" x="0px" y="0px"
	 viewBox="0 0 24 24" style="enable-background:new 0 0 24 24;" xml:space="preserve">
<style type="text/css">
	.st0{display:none;}
	.st1{display:inline;}
	.st2{fill:none;stroke:#000000;stroke-linecap:round;stroke-linejoin:round;stroke-miterlimit:10;}
</style>
<g id="Filled_Icons" class="st0">
	<g class="st1">
		<path d="M23.7,22.3l-6-6c1.4-1.5,2.3-3.6,2.3-5.8C20,5.8,16.2,2,11.5,2C7.3,2,3.9,5,3.1,9h2.5l1.6-2.7c0.3-0.5,0.9-0.8,1.5-0.7
			c0.6,0.1,1.1,0.5,1.3,1l0.9,2.9l0.8-1.7c0.2-0.5,0.7-0.8,1.2-0.8c0.5,0,1,0.2,1.3,0.7L15.1,9l0.7-0.9c0.5-0.7,1.4-0.8,2.1-0.3
			s0.8,1.5,0.3,2.1l-2,2.5c-0.3,0.4-0.8,0.6-1.2,0.6c-0.5,0-0.9-0.3-1.2-0.7l-0.6-0.8l-1.3,2.7c-0.3,0.5-0.8,0.8-1.3,0.8
			c0,0-0.1,0-0.1,0C9.8,15,9.2,14.6,9.1,14l-1-3.2l-0.3,0.5C7.5,11.7,7,12,6.5,12H3.1c0.7,4,4.2,7,8.4,7c1.7,0,3.3-0.5,4.7-1.4
			l6.1,6.1c0.2,0.2,0.5,0.3,0.7,0.3s0.5-0.1,0.7-0.3C24.1,23.3,24.1,22.7,23.7,22.3z"/>
		<g>
			<path d="M10.5,14C10.5,14,10.5,14,10.5,14c-0.2,0-0.4-0.2-0.5-0.4L8.4,8.3l-1.4,2.5C6.8,10.9,6.7,11,6.5,11h-6
				C0.2,11,0,10.8,0,10.5S0.2,10,0.5,10h5.7l1.9-3.2c0.1-0.2,0.3-0.3,0.5-0.2c0.2,0,0.4,0.2,0.4,0.3l1.6,5.3l1.9-3.9
				c0.1-0.2,0.2-0.3,0.4-0.3c0.2,0,0.4,0.1,0.4,0.2l1.6,2.4l1.6-2c0.2-0.2,0.5-0.3,0.7-0.1c0.2,0.2,0.3,0.5,0.1,0.7l-2,2.5
				C15.3,12,15.2,12.1,15,12c-0.2,0-0.3-0.1-0.4-0.2l-1.5-2.3l-2.1,4.2C10.9,13.9,10.7,14,10.5,14z"/>
		</g>
	</g>
</g>
<g id="Outline_Icons">
	<g>
		<path class="st2" d="M3.7,8.5c0.9-3.5,4-6,7.8-6c4.4,0,8,3.6,8,8s-3.6,8-8,8c-3.7,0-6.8-2.5-7.7-6"/>
		<line class="st2" x1="16.6" y1="16.6" x2="23.5" y2="23.5"/>
		<polyline class="st2" points="0.5,10.5 6.5,10.5 8.5,7 10.5,13.5 13,8.5 15,11.5 17,9 		"/>
	</g>
</g>
</svg>
