<?xml version="1.0" encoding="utf-8"?>
<!-- Generator: Adobe Illustrator 19.2.0, SVG Export Plug-In . SVG Version: 6.00 Build 0)  -->
<svg version="1.1" id="Layer_1" xmlns="http://www.w3.org/2000/svg" xmlns:xlink="http://www.w3.org/1999/xlink" x="0px" y="0px"
	 viewBox="0 0 24 24" style="enable-background:new 0 0 24 24;" xml:space="preserve">
<style type="text/css">
	.st0{display:none;}
	.st1{display:inline;}
	.st2{fill:none;stroke:#000000;stroke-linecap:round;stroke-linejoin:round;stroke-miterlimit:10;}
</style>
<g id="Filled_Icons" class="st0">
	<g class="st1">
		<path d="M20.5,3H17v3h1v8h-2c-0.2,0-0.4,0.1-0.4,0.3l-0.9,1.9L13,10.4c-0.1-0.2-0.2-0.3-0.4-0.4c-0.2,0-0.4,0.1-0.5,0.3l-2.1,4.2
			l-1.5-2.3C8.3,12.1,8.2,12,8,12c-0.2,0-0.3,0.1-0.4,0.2L6.2,14H5V6h1V3H2.5C2.2,3,2,3.2,2,3.5v20C2,23.8,2.2,24,2.5,24h18
			c0.3,0,0.5-0.2,0.5-0.5v-20C21,3.2,20.8,3,20.5,3z M18,20H5v-5h1.5c0.2,0,0.3-0.1,0.4-0.2L8,13.4l1.6,2.4C9.7,15.9,9.8,16,10,16
			c0.2,0,0.3-0.1,0.4-0.3l1.9-3.9l1.6,5.8c0.1,0.2,0.2,0.3,0.4,0.4c0.2,0,0.4-0.1,0.5-0.3l1.4-2.7H18V20z"/>
		<path d="M7.5,7h8C15.8,7,16,6.8,16,6.5v-4C16,2.2,15.8,2,15.5,2h-1.6c-0.2-1.1-1.3-2-2.4-2c-1.2,0-2.2,0.9-2.4,2H7.5
			C7.2,2,7,2.2,7,2.5v4C7,6.8,7.2,7,7.5,7z"/>
	</g>
</g>
<g id="Outline_Icons">
	<g>
		<polyline class="st2" points="4.5,14.5 6.5,14.5 8,12.5 10,15.5 12.5,10.5 14.5,17.5 16,14.5 18.5,14.5 		"/>
		<polyline class="st2" points="15.5,3.5 20.5,3.5 20.5,23.5 2.5,23.5 2.5,3.5 7.5,3.5 		"/>
		<path class="st2" d="M13.5,2.5c0-1.1-0.9-2-2-2c-1.1,0-2,0.9-2,2h-2v4h8v-4H13.5z"/>
		<polyline class="st2" points="7.5,5.5 4.5,5.5 4.5,20.5 18.5,20.5 18.5,5.5 15.5,5.5 		"/>
	</g>
</g>
</svg>
