<?xml version="1.0" encoding="utf-8"?>
<!-- Generator: Adobe Illustrator 19.2.0, SVG Export Plug-In . SVG Version: 6.00 Build 0)  -->
<svg version="1.1" id="Layer_1" xmlns="http://www.w3.org/2000/svg" xmlns:xlink="http://www.w3.org/1999/xlink" x="0px" y="0px"
	 viewBox="0 0 24 24" style="enable-background:new 0 0 24 24;" xml:space="preserve">
<style type="text/css">
	.st0{display:none;}
	.st1{display:inline;}
	.st2{fill:none;stroke:#000000;stroke-linecap:round;stroke-linejoin:round;stroke-miterlimit:10;}
</style>
<g id="Filled_Icons" class="st0">
	<g class="st1">
		<path d="M17.5,9.6l-1.4-5.1l-2.1,10c0,0.2-0.2,0.4-0.5,0.4c0,0,0,0,0,0c-0.2,0-0.4-0.1-0.5-0.4l-2.6-8.2L9,9.7
			C8.9,9.9,8.7,10,8.5,10c-0.2,0-0.4-0.1-0.5-0.2L6.5,7.4L4.9,9.8C4.8,9.9,4.7,10,4.5,10H0v8h2.8l0.9-0.9c0.2-0.2,0.5-0.2,0.7,0
			L6,18.8l0.6-0.6C6.7,18.1,6.9,18,7,18h2.8l0.9-0.9c0.2-0.2,0.5-0.2,0.7,0l1.6,1.6l0.6-0.6c0.1-0.1,0.2-0.1,0.4-0.1h2.8l0.9-0.9
			c0.2-0.2,0.5-0.2,0.7,0l1.6,1.6l0.6-0.6c0.1-0.1,0.2-0.1,0.4-0.1h3v-8h-6C17.8,10,17.6,9.9,17.5,9.6z"/>
		<path d="M20.4,19.9C20.3,20,20.1,20,20,20c-0.1,0-0.3-0.1-0.4-0.1L18,18.2l-0.6,0.6C17.3,19,17.1,19,17,19h-2.8l-0.9,0.9
			C13.3,20,13.1,20,13,20c-0.1,0-0.3-0.1-0.4-0.1L11,18.2l-0.6,0.6C10.3,19,10.1,19,10,19H7.2l-0.9,0.9C6.3,20,6.1,20,6,20
			S5.7,20,5.6,19.9L4,18.2l-0.6,0.6C3.3,19,3.1,19,3,19H0v2.5C0,22.9,1.1,24,2.5,24h19c1.4,0,2.5-1.1,2.5-2.5V19h-2.8L20.4,19.9z"/>
		<path d="M21.5,0h-19C1.1,0,0,1.1,0,2.5V9h4.2l1.9-2.8C6.3,6,6.7,6,6.9,6.2l1.5,2.2L10,4.8c0.1-0.2,0.3-0.3,0.5-0.3
			c0.2,0,0.4,0.2,0.4,0.3l2.4,7.7l2.1-10.1C15.6,2.2,15.8,2,16,2c0.2,0,0.4,0.1,0.5,0.4L18.4,9H24V2.5C24,1.1,22.9,0,21.5,0z"/>
	</g>
</g>
<g id="Outline_Icons">
	<g>
		<polyline class="st2" points="0.5,9.5 4.5,9.5 6.5,6.5 8.5,9.5 10.5,5 13.5,14.5 16,2.5 18,9.5 23.5,9.5 		"/>
		<path class="st2" d="M23.5,21.5c0,1.1-0.9,2-2,2h-19c-1.1,0-2-0.9-2-2v-19c0-1.1,0.9-2,2-2h19c1.1,0,2,0.9,2,2V21.5z"/>
		<polyline class="st2" points="0.5,18.5 3,18.5 4,17.5 6,19.5 7,18.5 10,18.5 11,17.5 13,19.5 14,18.5 17,18.5 18,17.5 20,19.5 
			21,18.5 23.5,18.5 		"/>
	</g>
</g>
</svg>
