<?xml version="1.0" encoding="utf-8"?>
<!-- Generator: Adobe Illustrator 19.2.0, SVG Export Plug-In . SVG Version: 6.00 Build 0)  -->
<svg version="1.1" id="Layer_1" xmlns="http://www.w3.org/2000/svg" xmlns:xlink="http://www.w3.org/1999/xlink" x="0px" y="0px"
	 viewBox="0 0 24 24" style="enable-background:new 0 0 24 24;" xml:space="preserve">
<style type="text/css">
	.st0{display:none;}
	.st1{display:inline;}
	.st2{fill:none;stroke:#000000;stroke-linecap:round;stroke-linejoin:round;stroke-miterlimit:10;}
</style>
<g id="Filled_Icons" class="st0">
	<g class="st1">
		<path d="M17.5,9.6l-1.4-5.1l-2.1,10c0,0.2-0.2,0.4-0.5,0.4c0,0,0,0,0,0c-0.2,0-0.4-0.1-0.5-0.4l-2.6-8.2L9,9.7
			C8.9,9.9,8.7,10,8.5,10c-0.2,0-0.4-0.1-0.5-0.2L6.5,7.4L4.9,9.8C4.8,9.9,4.7,10,4.5,10H0v11.5C0,22.9,1.1,24,2.5,24h19
			c1.4,0,2.5-1.1,2.5-2.5V10h-6C17.8,10,17.6,9.9,17.5,9.6z M5,21.5C5,21.8,4.8,22,4.5,22C4.2,22,4,21.8,4,21.5v-1
			C4,20.2,4.2,20,4.5,20C4.8,20,5,20.2,5,20.5V21.5z M8,21.5C8,21.8,7.8,22,7.5,22C7.2,22,7,21.8,7,21.5v-3C7,18.2,7.2,18,7.5,18
			C7.8,18,8,18.2,8,18.5V21.5z M11,21.5c0,0.3-0.2,0.5-0.5,0.5c-0.3,0-0.5-0.2-0.5-0.5v-1c0-0.3,0.2-0.5,0.5-0.5
			c0.3,0,0.5,0.2,0.5,0.5V21.5z M14,21.5c0,0.3-0.2,0.5-0.5,0.5S13,21.8,13,21.5v-3c0-0.3,0.2-0.5,0.5-0.5s0.5,0.2,0.5,0.5V21.5z
			 M17,21.5c0,0.3-0.2,0.5-0.5,0.5S16,21.8,16,21.5v-1c0-0.3,0.2-0.5,0.5-0.5s0.5,0.2,0.5,0.5V21.5z M19,18.5c0-0.3,0.2-0.5,0.5-0.5
			s0.5,0.2,0.5,0.5v3c0,0.3-0.2,0.5-0.5,0.5S19,21.8,19,21.5V18.5z"/>
		<path d="M21.5,0h-19C1.1,0,0,1.1,0,2.5V9h4.2l1.9-2.8C6.3,6,6.7,6,6.9,6.2l1.5,2.2L10,4.8c0.1-0.2,0.3-0.3,0.5-0.3
			c0.2,0,0.4,0.2,0.4,0.3l2.4,7.7l2.1-10.1C15.6,2.2,15.8,2,16,2c0.2,0,0.4,0.1,0.5,0.4L18.4,9H24V2.5C24,1.1,22.9,0,21.5,0z"/>
	</g>
</g>
<g id="Outline_Icons">
	<g>
		<path class="st2" d="M23.5,21.5c0,1.1-0.9,2-2,2h-19c-1.1,0-2-0.9-2-2v-19c0-1.1,0.9-2,2-2h19c1.1,0,2,0.9,2,2V21.5z"/>
		<polyline class="st2" points="0.5,9.5 4.5,9.5 6.5,6.5 8.5,9.5 10.5,5 13.5,14.5 16,2.5 18,9.5 23.5,9.5 		"/>
		<line class="st2" x1="4.5" y1="20.5" x2="4.5" y2="21.5"/>
		<line class="st2" x1="10.5" y1="20.5" x2="10.5" y2="21.5"/>
		<line class="st2" x1="16.5" y1="20.5" x2="16.5" y2="21.5"/>
		<line class="st2" x1="7.5" y1="18.5" x2="7.5" y2="21.5"/>
		<line class="st2" x1="13.5" y1="18.5" x2="13.5" y2="21.5"/>
		<line class="st2" x1="19.5" y1="18.5" x2="19.5" y2="21.5"/>
	</g>
</g>
</svg>
