<?xml version="1.0" encoding="utf-8"?>
<!-- Generator: Adobe Illustrator 19.2.0, SVG Export Plug-In . SVG Version: 6.00 Build 0)  -->
<svg version="1.1" id="Layer_1" xmlns="http://www.w3.org/2000/svg" xmlns:xlink="http://www.w3.org/1999/xlink" x="0px" y="0px"
	 viewBox="0 0 24 24" style="enable-background:new 0 0 24 24;" xml:space="preserve">
<style type="text/css">
	.st0{display:none;}
	.st1{display:inline;}
	.st2{fill:none;stroke:#000000;stroke-linecap:round;stroke-linejoin:round;stroke-miterlimit:10;}
</style>
<g id="Filled_Icon" class="st0">
	<g class="st1">
		<path d="M12,8.5c-6.6,0-12,5.4-12,12V21h24v-0.5C24,13.9,18.6,8.5,12,8.5z"/>
		<path d="M2.5,11.8C4.9,9.1,8.4,7.5,12,7.5s7.1,1.6,9.5,4.3c0.1,0.1,0.2,0.2,0.4,0.2c0.1,0,0.2,0,0.3-0.1c0.2-0.2,0.2-0.5,0.1-0.7
			c-1.8-2.1-4.2-3.6-6.8-4.2C15.8,6.6,16,6.1,16,5.5c0-1.1-0.9-2-2-2s-2,0.9-2,2c0,0.4,0.1,0.7,0.3,1c-0.1,0-0.2,0-0.3,0
			s-0.2,0-0.3,0c0.2-0.3,0.3-0.6,0.3-1c0-1.1-0.9-2-2-2s-2,0.9-2,2c0,0.6,0.2,1.1,0.6,1.4C6,7.6,3.6,9,1.8,11.1
			c-0.2,0.2-0.2,0.5,0.1,0.7C2,12.1,2.4,12,2.5,11.8z"/>
	</g>
</g>
<g id="Outline_Icons">
	<g>
		<path class="st2" d="M12,9C5.6,9,0.5,14.1,0.5,20.5h23C23.5,14.1,18.4,9,12,9z"/>
		<path class="st2" d="M21.8,11.5C19.4,8.7,15.9,7,12,7s-7.4,1.7-9.8,4.5"/>
		<circle class="st2" cx="10" cy="5.5" r="1.5"/>
		<circle class="st2" cx="14" cy="5.5" r="1.5"/>
	</g>
</g>
</svg>
