<?xml version="1.0" encoding="utf-8"?>
<!-- Generator: Adobe Illustrator 19.2.0, SVG Export Plug-In . SVG Version: 6.00 Build 0)  -->
<svg version="1.1" id="Layer_1" xmlns="http://www.w3.org/2000/svg" xmlns:xlink="http://www.w3.org/1999/xlink" x="0px" y="0px"
	 viewBox="0 0 24 24" style="enable-background:new 0 0 24 24;" xml:space="preserve">
<style type="text/css">
	.st0{display:none;}
	.st1{display:inline;}
	.st2{fill:none;stroke:#000000;stroke-linejoin:round;stroke-miterlimit:10;}
</style>
<g id="Filled_Icon" class="st0">
	<path class="st1" d="M23,23.3l-10-23C12.9,0.1,12.7,0,12.5,0l0,0c-0.2,0-0.4,0.1-0.5,0.3l-10,23c-0.1,0.2-0.1,0.3,0,0.5
		C2.2,23.9,2.3,24,2.5,24h20c0.2,0,0.3-0.1,0.4-0.2C23,23.6,23.1,23.4,23,23.3z M12,17.2l-8.4,5L12,2.9L12,17.2z M12.5,18.1l8.2,4.9
		H4.3L12.5,18.1z M13,17.2l0-14.3l8.5,19.3L13,17.2z"/>
</g>
<g id="Outline_Icons">
	<g>
		<polygon class="st2" points="22.5,23.5 12.5,17.5 2.5,23.5 		"/>
		<polyline class="st2" points="2.5,23.5 12.5,0.5 22.5,23.5 		"/>
		<line class="st2" x1="12.5" y1="0.5" x2="12.5" y2="17.5"/>
	</g>
</g>
</svg>
