<?xml version="1.0" encoding="utf-8"?>
<!-- Generator: Adobe Illustrator 19.2.0, SVG Export Plug-In . SVG Version: 6.00 Build 0)  -->
<svg version="1.1" id="Layer_1" xmlns="http://www.w3.org/2000/svg" xmlns:xlink="http://www.w3.org/1999/xlink" x="0px" y="0px"
	 viewBox="0 0 24 24" style="enable-background:new 0 0 24 24;" xml:space="preserve">
<style type="text/css">
	.st0{display:none;}
	.st1{display:inline;}
	.st2{fill:none;stroke:#000000;stroke-linecap:round;stroke-linejoin:round;stroke-miterlimit:10;}
</style>
<g id="Filled_Icons" class="st0">
	<path class="st1" d="M23.5,2h-23C0.2,2,0,2.2,0,2.5v19C0,21.8,0.2,22,0.5,22h23c0.3,0,0.5-0.2,0.5-0.5v-19C24,2.2,23.8,2,23.5,2z"
		/>
	<g class="st1">
		<path d="M4.5,21h-3C1.2,21,1,20.8,1,20.5v-3C1,17.3,1.2,17,1.5,17C1.8,17,2,17.3,2,17.5V20h2.5C4.7,20,5,20.2,5,20.5
			C5,20.8,4.7,21,4.5,21z"/>
	</g>
	<g class="st1">
		<path d="M1.5,7C1.3,7,1,6.8,1,6.5v-3C1,3.3,1.3,3,1.5,3h3C4.8,3,5,3.3,5,3.5C5,3.8,4.8,4,4.5,4H2v2.5C2,6.8,1.8,7,1.5,7z"/>
	</g>
	<g class="st1">
		<path d="M22.5,7C22.2,7,22,6.8,22,6.5V4h-2.5C19.3,4,19,3.8,19,3.5C19,3.3,19.3,3,19.5,3h3C22.8,3,23,3.3,23,3.5v3
			C23,6.8,22.8,7,22.5,7z"/>
	</g>
	<g class="st1">
		<path d="M22.5,21h-3c-0.3,0-0.5-0.2-0.5-0.5c0-0.3,0.2-0.5,0.5-0.5H22v-2.5c0-0.3,0.2-0.5,0.5-0.5c0.3,0,0.5,0.2,0.5,0.5v3
			C23,20.8,22.8,21,22.5,21z"/>
	</g>
	<g class="st1">
		<path d="M7.5,9h-2C5.2,9,5,8.8,5,8.5v-2C5,6.2,5.2,6,5.5,6h2C7.8,6,8,6.2,8,6.5v2C8,8.8,7.8,9,7.5,9z M6,8h1V7H6V8z"/>
	</g>
	<g class="st1">
		<path d="M7.5,18h-2C5.2,18,5,17.8,5,17.5v-2C5,15.2,5.2,15,5.5,15h2C7.8,15,8,15.2,8,15.5v2C8,17.8,7.8,18,7.5,18z M6,17h1v-1H6
			V17z"/>
	</g>
	<g class="st1">
		<path d="M18.5,9h-2C16.2,9,16,8.8,16,8.5v-2C16,6.2,16.2,6,16.5,6h2C18.8,6,19,6.2,19,6.5v2C19,8.8,18.8,9,18.5,9z M17,8h1V7h-1V8
			z"/>
	</g>
	<g class="st1">
		<path d="M8.5,12C8.2,12,8,11.8,8,11.5V11H5.5C5.2,11,5,10.8,5,10.5C5,10.2,5.2,10,5.5,10h3C8.8,10,9,10.2,9,10.5v1
			C9,11.8,8.8,12,8.5,12z"/>
	</g>
	<g class="st1">
		<path d="M9.5,14h-4C5.2,14,5,13.8,5,13.5C5,13.2,5.2,13,5.5,13h4c0.3,0,0.5,0.2,0.5,0.5C10,13.8,9.8,14,9.5,14z"/>
	</g>
	<g class="st1">
		<path d="M18.5,18h-4c-0.3,0-0.5-0.2-0.5-0.5v-5c0-0.3,0.2-0.5,0.5-0.5h4c0.3,0,0.5,0.2,0.5,0.5v1c0,0.3-0.2,0.5-0.5,0.5
			c-0.3,0-0.5-0.2-0.5-0.5V13h-3v4h3v-1h-1.5c-0.3,0-0.5-0.2-0.5-0.5c0-0.3,0.2-0.5,0.5-0.5h2c0.3,0,0.5,0.2,0.5,0.5v2
			C19,17.8,18.8,18,18.5,18z"/>
	</g>
	<g class="st1">
		<path d="M11.5,14c-0.3,0-0.5-0.2-0.5-0.5v-1c0-0.3,0.2-0.5,0.5-0.5c0.3,0,0.5,0.2,0.5,0.5v1C12,13.8,11.8,14,11.5,14z"/>
	</g>
	<g class="st1">
		<path d="M14.5,8C14.2,8,14,7.8,14,7.5v-1C14,6.2,14.2,6,14.5,6C14.8,6,15,6.2,15,6.5v1C15,7.8,14.8,8,14.5,8z"/>
	</g>
	<g class="st1">
		<path d="M12.5,16h-1c-0.3,0-0.5-0.2-0.5-0.5c0-0.3,0.2-0.5,0.5-0.5h1c0.3,0,0.5,0.2,0.5,0.5C13,15.8,12.8,16,12.5,16z"/>
	</g>
	<g class="st1">
		<path d="M12.5,18h-3C9.2,18,9,17.8,9,17.5v-2C9,15.3,9.2,15,9.5,15c0.3,0,0.5,0.2,0.5,0.5V17h2.5c0.3,0,0.5,0.2,0.5,0.5
			C13,17.8,12.8,18,12.5,18z"/>
	</g>
	<g class="st1">
		<path d="M10.5,9h-1C9.2,9,9,8.8,9,8.5v-2C9,6.2,9.2,6,9.5,6C9.8,6,10,6.2,10,6.5V8h0.5C10.8,8,11,8.2,11,8.5C11,8.8,10.8,9,10.5,9
			z"/>
	</g>
	<g class="st1">
		<path d="M12.5,11h-2c-0.3,0-0.5-0.2-0.5-0.5c0-0.3,0.2-0.5,0.5-0.5H12V6.5C12,6.2,12.2,6,12.5,6C12.8,6,13,6.2,13,6.5v4
			C13,10.8,12.8,11,12.5,11z"/>
	</g>
	<g class="st1">
		<path d="M18.5,11h-4c-0.3,0-0.5-0.2-0.5-0.5c0-0.3,0.2-0.5,0.5-0.5h4c0.3,0,0.5,0.2,0.5,0.5C19,10.8,18.8,11,18.5,11z"/>
	</g>
</g>
<g id="Outline_Icons">
	<g>
		<polyline class="st2" points="0.5,18.5 0.5,21.5 3.5,21.5 		"/>
		<polyline class="st2" points="3.5,2.5 0.5,2.5 0.5,5.5 		"/>
		<polyline class="st2" points="23.5,5.5 23.5,2.5 20.5,2.5 		"/>
		<polyline class="st2" points="20.5,21.5 23.5,21.5 23.5,18.5 		"/>
		<rect x="5.5" y="6.5" class="st2" width="2" height="2"/>
		<rect x="5.5" y="15.5" class="st2" width="2" height="2"/>
		<rect x="16.5" y="6.5" class="st2" width="2" height="2"/>
		<polyline class="st2" points="5.5,10.5 8.5,10.5 8.5,11.5 		"/>
		<line class="st2" x1="5.5" y1="13.5" x2="9.5" y2="13.5"/>
		<polyline class="st2" points="16.5,15.5 18.5,15.5 18.5,17.5 14.5,17.5 14.5,12.5 18.5,12.5 18.5,13.5 		"/>
		<line class="st2" x1="11.5" y1="13.5" x2="11.5" y2="12.5"/>
		<line class="st2" x1="14.5" y1="7.5" x2="14.5" y2="6.5"/>
		<line class="st2" x1="12.5" y1="15.5" x2="11.5" y2="15.5"/>
		<polyline class="st2" points="9.5,15.5 9.5,17.5 12.5,17.5 		"/>
		<polyline class="st2" points="9.5,6.5 9.5,8.5 10.5,8.5 		"/>
		<polyline class="st2" points="12.5,6.5 12.5,10.5 10.5,10.5 		"/>
		<line class="st2" x1="14.5" y1="10.5" x2="18.5" y2="10.5"/>
	</g>
</g>
</svg>
