<?xml version="1.0" encoding="utf-8"?>
<!-- Generator: Adobe Illustrator 19.2.0, SVG Export Plug-In . SVG Version: 6.00 Build 0)  -->
<svg version="1.1" id="Layer_1" xmlns="http://www.w3.org/2000/svg" xmlns:xlink="http://www.w3.org/1999/xlink" x="0px" y="0px"
	 viewBox="0 0 24 24" style="enable-background:new 0 0 24 24;" xml:space="preserve">
<style type="text/css">
	.st0{display:none;}
	.st1{display:inline;}
	.st2{fill:none;stroke:#000000;stroke-linecap:round;stroke-linejoin:round;stroke-miterlimit:10;}
</style>
<g id="Filled_Icon" class="st0">
	<g class="st1">
		<path d="M16.4,7.6h5.1V2.5h-5.1V7.6z M17.2,3.7c0-0.3,0.2-0.5,0.5-0.5h2.6c0.3,0,0.5,0.2,0.5,0.5v2.6c0,0.3-0.2,0.5-0.5,0.5h-2.6
			c-0.3,0-0.5-0.2-0.5-0.5V3.7z"/>
		<path d="M0,0v24h24V0H0z M11.6,1.5h2.6c0.3,0,0.5,0.2,0.5,0.5s-0.2,0.5-0.5,0.5h-2.6c-0.3,0-0.5-0.2-0.5-0.5S11.3,1.5,11.6,1.5z
			 M13.7,6.7v-3c0-0.3,0.2-0.5,0.5-0.5s0.5,0.2,0.5,0.5v3.5c0,0.3-0.2,0.5-0.5,0.5h-1.7c-0.3,0-0.5-0.2-0.5-0.5V5.5
			C12,5.2,12.2,5,12.5,5S13,5.2,13,5.5v1.2H13.7z M17.2,13.7c0.3,0,0.5,0.2,0.5,0.5s-0.2,0.5-0.5,0.5h-2.6c-0.3,0-0.5-0.2-0.5-0.5
			s0.2-0.5,0.5-0.5h0.8v-1.2c0-0.3,0.2-0.5,0.5-0.5s0.5,0.2,0.5,0.5v1.2H17.2z M14.2,15.4c0.3,0,0.5,0.2,0.5,0.5
			c0,0.3-0.2,0.5-0.5,0.5h-1.7v2.1c0,0.3-0.2,0.5-0.5,0.5s-0.5-0.2-0.5-0.5v-2.6c0-0.3,0.2-0.5,0.5-0.5H14.2z M13.7,18.1
			c0-0.3,0.2-0.5,0.5-0.5s0.5,0.2,0.5,0.5v1.7h3.8c0.3,0,0.5,0.2,0.5,0.5s-0.2,0.5-0.5,0.5h-4.3c-0.3,0-0.5-0.2-0.5-0.5V18.1z
			 M18.5,19h-2.6c-0.3,0-0.5-0.2-0.5-0.5v-2.6c0-0.3,0.2-0.5,0.5-0.5h2.6c0.3,0,0.5,0.2,0.5,0.5v2.6C19,18.8,18.8,19,18.5,19z
			 M19,14.7c-0.3,0-0.5-0.2-0.5-0.5v-2.6c0-0.3,0.2-0.5,0.5-0.5s0.5,0.2,0.5,0.5v2.6C19.5,14.5,19.2,14.7,19,14.7z M19,10.3h-3.8
			v1.2c0,0.3-0.2,0.5-0.5,0.5s-0.5-0.2-0.5-0.5V9.8c0-0.3,0.2-0.5,0.5-0.5H19c0.3,0,0.5,0.2,0.5,0.5S19.2,10.3,19,10.3z M9.3,2
			c0-0.3,0.2-0.5,0.5-0.5s0.5,0.2,0.5,0.5v1.2h1.2c0.3,0,0.5,0.2,0.5,0.5s-0.2,0.5-0.5,0.5H9.8C9.5,4.2,9.3,4,9.3,3.7V2z M9.3,5.5
			C9.3,5.2,9.5,5,9.8,5s0.5,0.2,0.5,0.5v2.6c0,0.3-0.2,0.5-0.5,0.5S9.3,8.4,9.3,8.1V5.5z M9.8,9.3h3c0.3,0,0.5,0.2,0.5,0.5
			s-0.2,0.5-0.5,0.5h-3c-0.3,0-0.5-0.2-0.5-0.5S9.5,9.3,9.8,9.3z M13.4,11.6c0,0.3-0.2,0.5-0.5,0.5h-1.7c-0.3,0-0.5-0.2-0.5-0.5
			s0.2-0.5,0.5-0.5h1.7C13.1,11.1,13.4,11.3,13.4,11.6z M9.3,11.6c0-0.3,0.2-0.5,0.5-0.5s0.5,0.2,0.5,0.5v2.1h2.5
			c0.3,0,0.5,0.2,0.5,0.5s-0.2,0.5-0.5,0.5h-3c-0.3,0-0.5-0.2-0.5-0.5V11.6z M1.5,11.6c0-0.3,0.2-0.5,0.5-0.5s0.5,0.2,0.5,0.5v2.1
			h1.2c0.3,0,0.5,0.2,0.5,0.5S4,14.7,3.7,14.7H2c-0.3,0-0.5-0.2-0.5-0.5V11.6z M3.2,12.4c0-0.3,0.2-0.5,0.5-0.5h2.6
			c0.3,0,0.5,0.2,0.5,0.5s-0.2,0.5-0.5,0.5H3.7C3.5,12.9,3.2,12.7,3.2,12.4z M8.6,22c0,0.3-0.2,0.5-0.5,0.5H2
			c-0.3,0-0.5-0.2-0.5-0.5v-6.1c0-0.3,0.2-0.5,0.5-0.5h6.1c0.3,0,0.5,0.2,0.5,0.5V22z M8.1,14.7H6.3c-0.3,0-0.5-0.2-0.5-0.5
			s0.2-0.5,0.5-0.5H8c0.3,0,0.5,0.2,0.5,0.5C8.6,14.5,8.4,14.7,8.1,14.7z M8.6,11.6c0,0.3-0.2,0.5-0.5,0.5s-0.5-0.2-0.5-0.5v-1.2H2
			c-0.3,0-0.5-0.2-0.5-0.5S1.7,9.4,2,9.4h6.1c0.3,0,0.5,0.2,0.5,0.5V11.6z M8.6,8.1c0,0.3-0.2,0.5-0.5,0.5H2c-0.3,0-0.5-0.2-0.5-0.5
			V2c0-0.3,0.2-0.5,0.5-0.5h6.1c0.3,0,0.5,0.2,0.5,0.5V8.1z M9.3,20.3v-3.5c0-0.3,0.2-0.5,0.5-0.5s0.5,0.2,0.5,0.5v3h2.1
			c0.3,0,0.5,0.2,0.5,0.5s-0.2,0.5-0.5,0.5H9.8C9.5,20.8,9.3,20.5,9.3,20.3z M22.5,18.5c0,0.3-0.2,0.5-0.5,0.5s-0.5-0.2-0.5-0.5
			v-2.1h-0.7V22c0,0.3-0.2,0.5-0.5,0.5h-7.8c-0.3,0-0.5-0.2-0.5-0.5s0.2-0.5,0.5-0.5h7.3v-5.6c0-0.3,0.2-0.5,0.5-0.5H22
			c0.3,0,0.5,0.2,0.5,0.5V18.5z M22,10.3h-0.8v3.8c0,0.3-0.2,0.5-0.5,0.5s-0.5-0.2-0.5-0.5V9.8c0-0.3,0.2-0.5,0.5-0.5H22
			c0.3,0,0.5,0.2,0.5,0.5S22.3,10.3,22,10.3z M22.5,8.1c0,0.3-0.2,0.5-0.5,0.5h-6.1c-0.3,0-0.5-0.2-0.5-0.5V2c0-0.3,0.2-0.5,0.5-0.5
			H22c0.3,0,0.5,0.2,0.5,0.5V8.1z"/>
		<rect x="18.2" y="4.2" width="1.6" height="1.6"/>
		<rect x="16.4" y="16.4" width="1.6" height="1.6"/>
		<rect x="4.2" y="4.2" width="1.6" height="1.6"/>
		<path d="M2.5,7.6h5.1V2.5H2.5V7.6z M3.2,3.7c0-0.3,0.2-0.5,0.5-0.5h2.6c0.3,0,0.5,0.2,0.5,0.5v2.6c0,0.3-0.2,0.5-0.5,0.5H3.7
			c-0.3,0-0.5-0.2-0.5-0.5V3.7z"/>
		<path d="M2.5,21.5h5.1v-5.1H2.5V21.5z M3.2,17.7c0-0.3,0.2-0.5,0.5-0.5h2.6c0.3,0,0.5,0.2,0.5,0.5v2.6c0,0.3-0.2,0.5-0.5,0.5H3.7
			c-0.3,0-0.5-0.2-0.5-0.5V17.7z"/>
		<rect x="4.2" y="18.2" width="1.6" height="1.6"/>
	</g>
</g>
<g id="Outline_Icons">
	<g>
		<rect x="0.5" y="0.5" class="st2" width="7" height="7"/>
		<rect x="2.5" y="2.5" class="st2" width="3" height="3"/>
		<rect x="0.5" y="16.5" class="st2" width="7" height="7"/>
		<rect x="2.5" y="18.5" class="st2" width="3" height="3"/>
		<rect x="16.5" y="16.5" class="st2" width="3" height="3"/>
		<rect x="16.5" y="0.5" class="st2" width="7" height="7"/>
		<rect x="18.5" y="2.5" class="st2" width="3" height="3"/>
		<line class="st2" x1="13" y1="9.5" x2="9.5" y2="9.5"/>
		<polyline class="st2" points="9.5,11.5 9.5,14.5 13,14.5 		"/>
		<polyline class="st2" points="0.5,9.5 7.5,9.5 7.5,11.5 		"/>
		<polyline class="st2" points="22.5,14.5 22.5,9.5 23.5,9.5 		"/>
		<line class="st2" x1="20.5" y1="11.5" x2="20.5" y2="14.5"/>
		<polyline class="st2" points="20,9.5 15.5,9.5 15.5,11.5 		"/>
		<polyline class="st2" points="12.5,4.5 12.5,6.5 14.5,6.5 14.5,2.5 		"/>
		<line class="st2" x1="9.5" y1="7.5" x2="9.5" y2="4.5"/>
		<line class="st2" x1="11.5" y1="0.5" x2="14.5" y2="0.5"/>
		<polyline class="st2" points="9.5,0.5 9.5,2.5 11.5,2.5 		"/>
		<line class="st2" x1="2.5" y1="12.5" x2="5.5" y2="12.5"/>
		<polyline class="st2" points="0.5,11.5 0.5,14.5 2.5,14.5 		"/>
		<polyline class="st2" points="12.5,23.5 21.5,23.5 21.5,16.5 23.5,16.5 23.5,19.5 		"/>
		<polyline class="st2" points="9.5,17.5 9.5,21.5 12.5,21.5 		"/>
		<polyline class="st2" points="19.5,21.5 14.5,21.5 14.5,19 		"/>
		<polyline class="st2" points="11.5,19.5 11.5,16.5 14.5,16.5 		"/>
		<line class="st2" x1="5.5" y1="14.5" x2="7.5" y2="14.5"/>
		<line class="st2" x1="13" y1="11.5" x2="11" y2="11.5"/>
		<line class="st2" x1="15.5" y1="14.5" x2="18.5" y2="14.5"/>
		<line class="st2" x1="17.5" y1="14.5" x2="17.5" y2="12.5"/>
	</g>
</g>
</svg>
