<?xml version="1.0" encoding="utf-8"?>
<!-- Generator: Adobe Illustrator 19.2.0, SVG Export Plug-In . SVG Version: 6.00 Build 0)  -->
<svg version="1.1" id="Layer_1" xmlns="http://www.w3.org/2000/svg" xmlns:xlink="http://www.w3.org/1999/xlink" x="0px" y="0px"
	 viewBox="0 0 24 24" style="enable-background:new 0 0 24 24;" xml:space="preserve">
<style type="text/css">
	.st0{display:none;}
	.st1{display:inline;}
	.st2{fill:none;stroke:#000000;stroke-linejoin:round;stroke-miterlimit:10;}
	.st3{fill:none;stroke:#000000;stroke-linecap:round;stroke-linejoin:round;stroke-miterlimit:10;}
</style>
<g id="Filled_Icons" class="st0">
	<g class="st1">
		<path d="M0,23.5c0,0.1,0,0.3,0.1,0.4C0.2,23.9,0.4,24,0.5,24h13.1c0.1,0,0.3-0.1,0.4-0.2c0.1-0.1,0.1-0.2,0.1-0.4
			c-0.2-3.1-1.9-4.8-5.1-5.4V17h0.5c0.3,0,0.5-0.2,0.5-0.5v-2c0-0.3-0.2-0.5-0.5-0.5h-5C4.2,14,4,14.2,4,14.5v2
			C4,16.8,4.2,17,4.5,17H5v1.1C1.9,18.6,0.2,20.4,0,23.5z"/>
		<path d="M23.3,0.4c-0.2-0.2-0.5-0.2-0.7,0L20,3V0.5c0-0.2-0.1-0.3-0.2-0.4c-0.1-0.1-0.3-0.1-0.5,0c-1.1,0.5-2.7,1.6-4.3,3.2
			c-3,3-4.3,6.3-3.3,8l-1.3,1.3c-0.2,0.2-0.2,0.5,0,0.7c0.2,0.2,0.5,0.2,0.7,0l1.3-1.3c0.5,0.3,1.1,0.5,1.8,0.5
			c1.7,0,3.7-0.9,5.6-2.6C20,9.7,20.1,9.5,20,9.3C19.9,9.1,19.7,9,19.5,9h-4.1l1-1H21c0.3,0,0.5-0.2,0.5-0.5C21.5,7.2,21.3,7,21,7
			h-3.6l1-1h4.1c0.2,0,0.3-0.1,0.4-0.3C24.2,3.5,24.3,1.6,23.3,0.4C23.3,0.5,23.3,0.4,23.3,0.4z"/>
	</g>
</g>
<g id="Outline_Icons">
	<g>
		<path class="st2" d="M8.5,18.5v-2h1v-2h-5v2h1v2c-3.1,0.4-4.8,1.9-5,5h13.1C13.4,20.4,11.6,18.9,8.5,18.5z"/>
		<line class="st3" x1="22.9" y1="0.8" x2="10.8" y2="12.9"/>
		<path class="st3" d="M12.4,11.3c-1.2-1.2,0-4.8,3-7.7c1.5-1.5,3.2-2.6,4.2-3.1v3.7"/>
		<line class="st3" x1="16.2" y1="7.5" x2="21" y2="7.5"/>
		<path class="st3" d="M14.2,9.5h5.3c-2.8,2.5-6.1,2.8-7.1,1.8"/>
		<path class="st3" d="M22.9,0.8c0.9,0.9,0.7,2.7-0.4,4.7h-4.3"/>
	</g>
</g>
</svg>
