<?xml version="1.0" encoding="utf-8"?>
<!-- Generator: Adobe Illustrator 19.2.0, SVG Export Plug-In . SVG Version: 6.00 Build 0)  -->
<svg version="1.1" id="Layer_1" xmlns="http://www.w3.org/2000/svg" xmlns:xlink="http://www.w3.org/1999/xlink" x="0px" y="0px"
	 viewBox="0 0 24 24" style="enable-background:new 0 0 24 24;" xml:space="preserve">
<style type="text/css">
	.st0{display:none;}
	.st1{display:inline;}
	.st2{fill:none;stroke:#000000;stroke-linecap:round;stroke-linejoin:round;stroke-miterlimit:10;}
</style>
<g id="Filled_Icons" class="st0">
	<path class="st1" d="M12,0C5.4,0,0,5.4,0,12c0,6.6,5.4,12,12,12c6.6,0,12-5.4,12-12C24,5.4,18.6,0,12,0z M17.9,10.7
		c-0.1,0.2-0.3,0.3-0.4,0.3h-4.1l-0.3,0.3L12.5,12h3.6c0.3,0,0.5,0.2,0.5,0.5c0,0.3-0.2,0.5-0.5,0.5h-4.6l-1,1h4.1
		c0.2,0,0.4,0.1,0.5,0.3c0.1,0.2,0,0.4-0.1,0.5c-1.7,1.6-3.8,2.5-5.7,2.5c-0.7,0-1.3-0.1-1.7-0.4l-1.3,1.3c-0.2,0.2-0.5,0.2-0.7,0
		c-0.2-0.2-0.2-0.5,0-0.7l1.3-1.3c-0.4-0.8-0.4-1.9,0.1-3.3c0.6-1.6,1.7-3.2,3.1-4.7c1.6-1.6,3.2-2.7,4.3-3.2c0.2-0.1,0.3-0.1,0.5,0
		c0.1,0.1,0.2,0.3,0.2,0.4V8l2.5-2.6c0.2-0.2,0.5-0.2,0.7,0C19.4,6.5,19.2,8.5,17.9,10.7z"/>
</g>
<g id="Outline_Icons">
	<g>
		<circle class="st2" cx="12" cy="12" r="11.5"/>
		<g>
			<line class="st2" x1="17.9" y1="5.8" x2="5.8" y2="17.9"/>
			<path class="st2" d="M7.4,16.3c-1.2-1.2,0-4.8,3-7.7c1.5-1.5,3.2-2.6,4.2-3.1v3.7"/>
			<line class="st2" x1="11.3" y1="12.5" x2="16.1" y2="12.5"/>
			<path class="st2" d="M9.3,14.5h5.3c-2.8,2.5-6.1,2.8-7.1,1.8"/>
			<path class="st2" d="M18,5.8c0.9,0.9,0.7,2.7-0.4,4.7h-4.3"/>
		</g>
	</g>
</g>
</svg>
