<?xml version="1.0" encoding="utf-8"?>
<!-- Generator: Adobe Illustrator 19.2.0, SVG Export Plug-In . SVG Version: 6.00 Build 0)  -->
<svg version="1.1" id="Layer_1" xmlns="http://www.w3.org/2000/svg" xmlns:xlink="http://www.w3.org/1999/xlink" x="0px" y="0px"
	 viewBox="0 0 24 24" style="enable-background:new 0 0 24 24;" xml:space="preserve">
<style type="text/css">
	.st0{display:none;}
	.st1{display:inline;}
	.st2{fill:none;stroke:#000000;stroke-linecap:round;stroke-linejoin:round;stroke-miterlimit:10;}
</style>
<g id="Filled_Icon" class="st0">
	<path class="st1" d="M23.4,0.7c-0.1-0.1-0.2-0.1-0.3-0.2c-0.1,0-0.1,0-0.2,0c-0.7,0.1-4.6,0.8-8.5,2.5C14.1,3.1,14,3.3,14,3.5
		c0,0.9-0.5,1.9-1,2.6V4.5c0-0.2-0.1-0.3-0.2-0.4c-0.1-0.1-0.3-0.1-0.5,0c-1.4,0.7-2.5,1.4-3.6,2.6c-2.8,2.8-3.7,5.3-4,6.8
		c-0.3,1.7-0.1,3.4,0.7,4.4l-5.2,5.2c-0.2,0.2-0.2,0.5,0,0.7C0.2,24,0.4,24,0.5,24c0.1,0,0.3,0,0.4-0.1l5.2-5.2
		c0.7,0.5,1.6,0.8,2.6,0.8l0,0c2,0,4.5-1.2,6.9-3.3l-2.4-2.4c-0.2-0.2-0.2-0.5,0-0.7c0.2-0.2,0.5-0.2,0.7,0l2.5,2.5
		c0.1-0.1,0.2-0.2,0.4-0.4c0.1-0.1,0.2-0.2,0.3-0.3l-1.7-1.7c-0.2-0.2-0.2-0.5,0-0.7c0.2-0.2,0.5-0.2,0.7,0l1.6,1.6
		c4-4.9,5.8-12.6,5.9-12.9C23.5,1,23.5,0.8,23.4,0.7z"/>
</g>
<g id="Outline_Icons">
	<g>
		<line class="st2" x1="0.5" y1="23.5" x2="23" y2="1"/>
		<path class="st2" d="M23,1c0,0-2,9.1-6.7,13.8c-4.7,4.7-8.5,5-10.3,3.2c-1.7-1.7-1.7-6.3,3-11c1-1,2-1.8,3.5-2.5c0,0.6,0,2.5,0,3
			c0,0,2-2,2-4C18.7,1.7,23,1,23,1z"/>
		<line class="st2" x1="15.6" y1="15.5" x2="13.4" y2="13.4"/>
		<line class="st2" x1="17" y1="14.1" x2="14.9" y2="12"/>
	</g>
</g>
</svg>
