<?xml version="1.0" encoding="utf-8"?>
<!-- Generator: Adobe Illustrator 19.2.0, SVG Export Plug-In . SVG Version: 6.00 Build 0)  -->
<svg version="1.1" id="Layer_1" xmlns="http://www.w3.org/2000/svg" xmlns:xlink="http://www.w3.org/1999/xlink" x="0px" y="0px"
	 viewBox="0 0 24 24" style="enable-background:new 0 0 24 24;" xml:space="preserve">
<style type="text/css">
	.st0{display:none;}
	.st1{display:inline;}
	.st2{fill:none;stroke:#000000;stroke-linecap:round;stroke-linejoin:round;stroke-miterlimit:10;}
</style>
<g id="Filled_Icons" class="st0">
	<g class="st1">
		<g>
			<path d="M18.8,11.1c-2,2-4.1,3.1-6,3.1c-0.6,0-1.1-0.1-1.5-0.3L8,17.2c-0.2,0.2-0.5,0.2-0.7,0c-0.2-0.2-0.2-0.5,0-0.7l3.3-3.3
				c-1.3-1.3-1.6-3.1-1-5c0.8-2.3,3-4.5,3.9-4.7L14,3.5v2.3c1.1-0.5,2-2.4,2.2-3.1l0.1-0.2l0.2-0.1C16.8,2.2,17,2.1,17.3,2H0.5
				C0.2,2,0,2.2,0,2.5v21C0,23.8,0.2,24,0.5,24h19c0.3,0,0.5-0.2,0.5-0.5V9.7C19.6,10.2,19.2,10.6,18.8,11.1z M19,22.5
				c0,0.3-0.2,0.5-0.5,0.5h-17c-0.1,0-0.3-0.1-0.4-0.1C1.1,22.8,1,22.6,1,22.5v-19C1,3.2,1.2,3,1.5,3h9C10.8,3,11,3.2,11,3.5
				C11,3.8,10.8,4,10.5,4H2v18h16v-8.5c0-0.3,0.2-0.5,0.5-0.5c0.3,0,0.5,0.2,0.5,0.5V22.5z"/>
		</g>
		<path d="M17.1,3.1c0,0-1.2,4-4.1,3.7L13,5c-3.4,3.3-2.9,5.8-2.3,6.8c0.2,0.3,0.3,0.5,0.6,0.7l5.1-5.1c0.2-0.2,0.5-0.2,0.7,0
			c0.2,0.2,0.2,0.5,0,0.7l-4.9,4.9c0.5,0.2,1.2,0.2,2.1-0.1c2.2-0.6,4.2-3,4.2-3c2.5-2.5,4.2-8.3,4.2-8.3
			C20.4,1.9,17.1,3.1,17.1,3.1z"/>
	</g>
</g>
<g id="Outline_Icons">
	<g>
		<polyline class="st2" points="19.5,13 19.5,23.5 0.5,23.5 0.5,2.5 13,2.5 		"/>
		<line class="st2" x1="7.6" y1="16.9" x2="16.7" y2="7.8"/>
		<path class="st2" d="M14.5,4.1c-1,0.1-6.6,5.4-3.1,8.9c1.2,1.2,4,1,7.3-2.3C22,7.4,23.5,1,23.5,1s-3.2,0.5-6.2,1.8
			c0,0-0.8,3.6-2.8,3.6C14.5,5.5,14.5,4.1,14.5,4.1z"/>
	</g>
</g>
</svg>
