<?xml version="1.0" encoding="utf-8"?>
<!-- Generator: Adobe Illustrator 19.2.0, SVG Export Plug-In . SVG Version: 6.00 Build 0)  -->
<svg version="1.1" id="Layer_1" xmlns="http://www.w3.org/2000/svg" xmlns:xlink="http://www.w3.org/1999/xlink" x="0px" y="0px"
	 viewBox="0 0 24 24" style="enable-background:new 0 0 24 24;" xml:space="preserve">
<style type="text/css">
	.st0{display:none;}
	.st1{display:inline;}
	.st2{fill:none;stroke:#000000;stroke-linecap:round;stroke-linejoin:round;stroke-miterlimit:10;}
</style>
<g id="Filled_Icon" class="st0">
	<g class="st1">
		<path d="M11,3C4.9,3,0,7.9,0,14v1.5c0,3,2.5,5.5,5.5,5.5s5.5-2.5,5.5-5.5S8.5,10,5.5,10c-1.7,0-3.3,0.8-4.3,2.1
			C2.1,7.5,6.1,4,11,4c0.3,0,0.5-0.2,0.5-0.5S11.3,3,11,3z"/>
		<path d="M23.5,3c-6.1,0-11,4.9-11,11v1.5c0,3,2.5,5.5,5.5,5.5s5.5-2.5,5.5-5.5S21,10,18,10c-1.7,0-3.3,0.8-4.3,2.1
			C14.6,7.5,18.6,4,23.5,4C23.8,4,24,3.8,24,3.5S23.8,3,23.5,3z"/>
	</g>
</g>
<g id="Outline_Icons">
	<g>
		<path class="st2" d="M11,3.5C5.2,3.5,0.5,8.2,0.5,14v1.5"/>
		<circle class="st2" cx="5.5" cy="15.5" r="5"/>
		<path class="st2" d="M23.5,3.5C17.7,3.5,13,8.2,13,14v1.5"/>
		<circle class="st2" cx="18" cy="15.5" r="5"/>
	</g>
</g>
</svg>
