<?xml version="1.0" encoding="utf-8"?>
<!-- Generator: Adobe Illustrator 19.2.0, SVG Export Plug-In . SVG Version: 6.00 Build 0)  -->
<svg version="1.1" id="Layer_1" xmlns="http://www.w3.org/2000/svg" xmlns:xlink="http://www.w3.org/1999/xlink" x="0px" y="0px"
	 viewBox="0 0 24 24" style="enable-background:new 0 0 24 24;" xml:space="preserve">
<style type="text/css">
	.st0{display:none;}
	.st1{display:inline;}
	.st2{fill:none;stroke:#000000;stroke-linecap:round;stroke-linejoin:round;stroke-miterlimit:10;}
</style>
<g id="Filled_Icon" class="st0">
	<g class="st1">
		<path d="M13,21c6.1,0,11-4.9,11-11V8.5c0-3-2.5-5.5-5.5-5.5S13,5.5,13,8.5s2.5,5.5,5.5,5.5c1.7,0,3.3-0.8,4.3-2.1
			C21.9,16.5,17.9,20,13,20c-0.3,0-0.5,0.2-0.5,0.5S12.7,21,13,21z"/>
		<path d="M0.5,21c6.1,0,11-4.9,11-11V8.5C11.5,5.5,9,3,6,3S0.5,5.5,0.5,8.5S3,14,6,14c1.7,0,3.3-0.8,4.3-2.1
			C9.4,16.5,5.4,20,0.5,20C0.2,20,0,20.2,0,20.5S0.2,21,0.5,21z"/>
	</g>
</g>
<g id="Outline_Icons">
	<g>
		<path class="st2" d="M13,20.5c5.8,0,10.5-4.7,10.5-10.5V8.5"/>
		<circle class="st2" cx="18.5" cy="8.5" r="5"/>
		<path class="st2" d="M0.5,20.5C6.3,20.5,11,15.8,11,10V8.5"/>
		<circle class="st2" cx="6" cy="8.5" r="5"/>
	</g>
</g>
</svg>
