<?xml version="1.0" encoding="utf-8"?>
<!-- Generator: Adobe Illustrator 19.2.0, SVG Export Plug-In . SVG Version: 6.00 Build 0)  -->
<svg version="1.1" id="Layer_1" xmlns="http://www.w3.org/2000/svg" xmlns:xlink="http://www.w3.org/1999/xlink" x="0px" y="0px"
	 viewBox="0 0 24 24" style="enable-background:new 0 0 24 24;" xml:space="preserve">
<style type="text/css">
	.st0{display:none;}
	.st1{display:inline;}
	.st2{fill:none;stroke:#000000;stroke-linejoin:round;stroke-miterlimit:10;}
</style>
<g id="Filled_Icons" class="st0">
	<g class="st1">
		<path d="M4,8.2c-1.9,0.5-3,2-3,4.3V20h3V8.2z"/>
		<path d="M20,8.2V20h3v-7.5C23,10,22,8.6,20,8.2z"/>
		<g>
			<path d="M5,20h14V8H5V20z M13,17.5c0,0.3-0.2,0.5-0.5,0.5h-3C9.2,18,9,17.8,9,17.5v-4C9,13.2,9.2,13,9.5,13h3
				c0.3,0,0.5,0.2,0.5,0.5V17.5z M16,18h-1v-4h1V18z M7,9h10v1H7V9z M7,11h10v1H7V11z"/>
			<path d="M12,0C8.1,0,5,3.1,5,7h14C19,3.1,15.9,0,12,0z M12,6c-1.1,0-2-0.9-2-2s0.9-2,2-2s2,0.9,2,2S13.1,6,12,6z M15.5,6
				C15.2,6,15,5.8,15,5.5S15.2,5,15.5,5S16,5.2,16,5.5S15.8,6,15.5,6z"/>
		</g>
		<path d="M23.2,21h-3.4L19,23.3c-0.1,0.2,0,0.3,0.1,0.5c0.1,0.1,0.2,0.2,0.4,0.2h4c0.2,0,0.3-0.1,0.4-0.2c0.1-0.1,0.1-0.3,0.1-0.5
			L23.2,21z"/>
		<path d="M13.7,21h-3.4l-0.8,2.3c-0.1,0.2,0,0.3,0.1,0.5C9.7,23.9,9.8,24,10,24h4c0.2,0,0.3-0.1,0.4-0.2c0.1-0.1,0.1-0.3,0.1-0.5
			L13.7,21z"/>
		<path d="M4.2,21H0.8L0,23.3c-0.1,0.2,0,0.3,0.1,0.5C0.2,23.9,0.3,24,0.5,24h4c0.2,0,0.3-0.1,0.4-0.2C5,23.7,5,23.5,5,23.3L4.2,21z
			"/>
	</g>
</g>
<g id="Outline_Icons">
	<g>
		<path class="st2" d="M22.5,11.5c0-2.2-0.8-4-4-4v12h4V11.5z"/>
		<polygon class="st2" points="22.5,19.5 23.5,23.5 18.5,23.5 19.5,19.5 		"/>
		<polygon class="st2" points="13.5,19.5 14.5,23.5 9.5,23.5 10.5,19.5 		"/>
		<path class="st2" d="M1.5,11.5c0-2.2,1-4,4-4v12h-4V11.5z"/>
		<polygon class="st2" points="1.5,19.5 0.5,23.5 5.5,23.5 4.5,19.5 		"/>
		<line class="st2" x1="5" y1="7.5" x2="19" y2="7.5"/>
		<line class="st2" x1="7" y1="9.5" x2="17" y2="9.5"/>
		<line class="st2" x1="7" y1="11.5" x2="17" y2="11.5"/>
		<rect x="9.5" y="13.5" class="st2" width="3" height="4"/>
		<path class="st2" d="M5.5,7c0-3.6,2.9-6.5,6.5-6.5s6.5,2.9,6.5,6.5v12.5h-13V7z"/>
		<line class="st2" x1="15.5" y1="14" x2="15.5" y2="18"/>
		<circle class="st2" cx="12" cy="4" r="1.5"/>
		<g>
			<path d="M15.5,5C15.2,5,15,5.2,15,5.5S15.2,6,15.5,6S16,5.8,16,5.5S15.8,5,15.5,5L15.5,5z"/>
		</g>
	</g>
</g>
</svg>
