<?xml version="1.0" encoding="utf-8"?>
<!-- Generator: Adobe Illustrator 19.2.0, SVG Export Plug-In . SVG Version: 6.00 Build 0)  -->
<svg version="1.1" id="Layer_1" xmlns="http://www.w3.org/2000/svg" xmlns:xlink="http://www.w3.org/1999/xlink" x="0px" y="0px"
	 viewBox="0 0 24 24" style="enable-background:new 0 0 24 24;" xml:space="preserve">
<style type="text/css">
	.st0{display:none;}
	.st1{display:inline;}
	.st2{fill:none;stroke:#000000;stroke-linejoin:round;stroke-miterlimit:10;}
	.st3{fill:none;stroke:#000000;stroke-linecap:round;stroke-linejoin:round;stroke-miterlimit:10;}
</style>
<g id="Filled_Icons" class="st0">
	<g class="st1">
		<path d="M19,10.5c0-0.3,0.1-0.5,0.3-0.7c-0.3-1-0.8-2-1.5-2.8l-1.8,1.8c0.7,0.9,1.1,1.9,1.1,3.1c0,2.5-1.8,4.5-4.2,4.9
			c-0.2,0.3-0.5,0.6-0.9,0.6c-0.4,0-0.8-0.2-0.9-0.6c-2.3-0.5-4-2.5-4-4.9c0-2.8,2.2-5,5-5c1.2,0,2.3,0.4,3.1,1.1L17,6.4
			c-1.3-1.2-3-1.9-4.9-1.9C8,4.5,4.6,7.9,4.6,12c0,0.9,0.2,1.7,0.4,2.5c0.5,0,1,0.5,1,1c0,0.2-0.1,0.4-0.2,0.6
			c1.3,2.1,3.7,3.4,6.3,3.4c4.1,0,7.5-3.4,7.5-7.5c0-0.2,0-0.4,0-0.6C19.2,11.2,19,10.9,19,10.5z"/>
		<path d="M16.1,12c0-0.9-0.3-1.8-0.9-2.4l-2.8,2.8c-0.1,0.1-0.2,0.1-0.4,0.1s-0.3,0-0.4-0.1c-0.2-0.2-0.2-0.5,0-0.7l2.8-2.8
			C13.9,8.3,13,8,12.1,8c-2.2,0-4,1.8-4,4c0,1.9,1.3,3.5,3.1,3.9c0.2-0.2,0.5-0.4,0.8-0.4c0.3,0,0.6,0.2,0.8,0.4
			C14.7,15.6,16.1,14,16.1,12z"/>
		<path d="M12.1,0c-6.6,0-12,5.4-12,12c0,6.6,5.4,12,12,12s12-5.4,12-12S18.7,0,12.1,0z M5,4.5c0.6,0,1,0.4,1,1s-0.4,1-1,1
			s-1-0.4-1-1S4.4,4.5,5,4.5z M17,21.5c-0.6,0-1-0.4-1-1s0.4-1,1-1s1,0.4,1,1C18,21.1,17.6,21.5,17,21.5z M20.6,12
			c0,4.7-3.8,8.5-8.5,8.5c-3,0-5.7-1.6-7.2-4C4.4,16.4,4,16,4,15.5c0-0.2,0.1-0.4,0.2-0.5c-0.4-0.9-0.6-1.9-0.6-3
			c0-4.7,3.8-8.5,8.5-8.5c2.2,0,4.1,0.8,5.6,2.2l1-1c0.2-0.2,0.5-0.2,0.7,0c0.2,0.2,0.2,0.5,0,0.7l-1,1c0.8,0.9,1.4,2,1.8,3.2
			c0.4,0.1,0.8,0.5,0.8,1c0,0.3-0.2,0.6-0.4,0.8C20.6,11.5,20.6,11.8,20.6,12z"/>
	</g>
</g>
<g id="Outline_Icons">
	<g>
		<circle class="st2" cx="12.1" cy="12" r="11.5"/>
		<circle class="st2" cx="12.1" cy="12" r="8"/>
		<circle class="st2" cx="12.1" cy="12" r="4.5"/>
		<line class="st3" x1="12.1" y1="12" x2="19.1" y2="5"/>
		<circle class="st3" cx="12" cy="16.5" r="0.5"/>
		<circle class="st3" cx="20" cy="10.5" r="0.5"/>
		<circle class="st3" cx="5" cy="5.5" r="0.5"/>
		<circle class="st3" cx="17" cy="20.5" r="0.5"/>
		<circle class="st3" cx="5" cy="15.5" r="0.5"/>
	</g>
	<g>
		<circle class="st2" cx="12.1" cy="12" r="11.5"/>
		<circle class="st2" cx="12.1" cy="12" r="8"/>
		<circle class="st2" cx="12.1" cy="12" r="4.5"/>
		<line class="st3" x1="12.1" y1="12" x2="19.1" y2="5"/>
		<circle class="st3" cx="12" cy="16.5" r="0.5"/>
		<circle class="st3" cx="20" cy="10.5" r="0.5"/>
		<circle class="st3" cx="5" cy="5.5" r="0.5"/>
		<circle class="st3" cx="17" cy="20.5" r="0.5"/>
		<circle class="st3" cx="5" cy="15.5" r="0.5"/>
	</g>
</g>
</svg>
