<?xml version="1.0" encoding="utf-8"?>
<!-- Generator: Adobe Illustrator 19.2.0, SVG Export Plug-In . SVG Version: 6.00 Build 0)  -->
<svg version="1.1" id="Layer_1" xmlns="http://www.w3.org/2000/svg" xmlns:xlink="http://www.w3.org/1999/xlink" x="0px" y="0px"
	 viewBox="0 0 24 24" style="enable-background:new 0 0 24 24;" xml:space="preserve">
<style type="text/css">
	.st0{display:none;}
	.st1{display:inline;}
	.st2{fill:none;stroke:#000000;stroke-linecap:round;stroke-linejoin:round;stroke-miterlimit:10;}
	.st3{fill:none;stroke:#000000;stroke-linejoin:round;stroke-miterlimit:10;}
</style>
<g id="Filled_Icons" class="st0">
	<g class="st1">
		<path d="M11,11H7.5C7.2,11,7,11.2,7,11.5V14h9v-2.5c0-0.3-0.2-0.5-0.5-0.5H12V9h1V1h-3v8h1V11z"/>
		<path d="M17,8.5v-7C17,1.2,16.8,1,16.5,1H14v8h2.5C16.8,9,17,8.8,17,8.5z"/>
		<path d="M6.5,9H9V1H6.5C6.2,1,6,1.2,6,1.5v7C6,8.8,6.2,9,6.5,9z"/>
		<path d="M18.8,8.2c0.1,0,0.1,0,0.2,0c0.2,0,0.4-0.1,0.5-0.3C19.8,7,20,6,20,5s-0.2-2-0.5-2.9c-0.1-0.3-0.4-0.4-0.6-0.3
			c-0.3,0.1-0.4,0.4-0.3,0.6C18.8,3.3,19,4.1,19,5s-0.2,1.8-0.5,2.6C18.4,7.9,18.6,8.1,18.8,8.2z"/>
		<path d="M21.4,0.3C21.3,0,21-0.1,20.8,0.1c-0.2,0.1-0.4,0.4-0.2,0.7c0.6,1.3,1,2.8,1,4.3S21.3,8,20.7,9.3c-0.1,0.2,0,0.5,0.2,0.7
			c0.1,0,0.1,0,0.2,0c0.2,0,0.4-0.1,0.5-0.3c0.7-1.5,1-3,1-4.6C22.5,3.4,22.1,1.8,21.4,0.3z"/>
		<path d="M4,8.3c0.1,0,0.1,0,0.2,0c0.3-0.1,0.4-0.4,0.3-0.6C4.2,6.8,4,5.9,4,5s0.2-1.7,0.5-2.6c0.1-0.3,0-0.5-0.3-0.6
			s-0.5,0-0.6,0.3C3.2,3,3,4,3,5s0.2,2,0.5,2.9C3.6,8.1,3.8,8.3,4,8.3z"/>
		<path d="M2.4,9.2C1.8,7.9,1.5,6.5,1.5,5s0.3-2.9,1-4.3c0.1-0.2,0-0.5-0.2-0.7C2-0.1,1.7,0,1.6,0.3C0.9,1.8,0.5,3.4,0.5,5
			s0.3,3.2,1,4.6C1.6,9.8,1.8,9.9,2,9.9c0.1,0,0.1,0,0.2,0C2.4,9.7,2.5,9.5,2.4,9.2z"/>
		<path d="M19,15.4c-0.1-0.2-0.3-0.4-0.5-0.4h-1H16H7H6H4.5c-0.2,0-0.4,0.2-0.5,0.4l-2,8c0,0.1,0,0.3,0.1,0.4
			C2.2,23.9,2.3,24,2.5,24H9v-5.5C9,18.2,9.2,18,9.5,18h4c0.3,0,0.5,0.2,0.5,0.5V24h6.5c0.2,0,0.3-0.1,0.4-0.2s0.1-0.3,0.1-0.4
			L19,15.4z"/>
	</g>
</g>
<g id="Outline_Icons">
	<g>
		<rect x="7.5" y="11.5" class="st2" width="8" height="4"/>
		<line class="st2" x1="11.5" y1="11.5" x2="11.5" y2="8.5"/>
		<rect x="6.5" y="1.5" class="st2" width="10" height="7"/>
		<line class="st2" x1="9.5" y1="1.5" x2="9.5" y2="8.5"/>
		<line class="st2" x1="13.5" y1="1.5" x2="13.5" y2="8.5"/>
		<path class="st2" d="M19,2.3C19.3,3.1,19.5,4,19.5,5S19.3,6.9,19,7.8"/>
		<path class="st2" d="M21,0.5c0.6,1.4,1,2.9,1,4.5s-0.3,3.1-1,4.4"/>
		<path class="st2" d="M4,2.3C3.7,3.1,3.5,4,3.5,5S3.7,6.9,4,7.8"/>
		<path class="st2" d="M2,0.5C1.4,1.9,1,3.4,1,5s0.3,3.1,1,4.4"/>
		<polygon class="st3" points="4.5,15.5 18.5,15.5 20.5,23.5 2.5,23.5 		"/>
		<rect x="9.5" y="18.5" class="st2" width="4" height="5"/>
	</g>
</g>
</svg>
