<?xml version="1.0" encoding="utf-8"?>
<!-- Generator: Adobe Illustrator 19.2.0, SVG Export Plug-In . SVG Version: 6.00 Build 0)  -->
<svg version="1.1" id="Layer_1" xmlns="http://www.w3.org/2000/svg" xmlns:xlink="http://www.w3.org/1999/xlink" x="0px" y="0px"
	 viewBox="0 0 24 24" style="enable-background:new 0 0 24 24;" xml:space="preserve">
<style type="text/css">
	.st0{display:none;}
	.st1{display:inline;}
	.st2{fill:none;stroke:#000000;stroke-linecap:round;stroke-linejoin:round;stroke-miterlimit:10;}
	.st3{fill:none;stroke:#000000;stroke-linejoin:round;stroke-miterlimit:10;}
</style>
<g id="Filled_Icons" class="st0">
	<path class="st1" d="M12,0C5.4,0,0,5.4,0,12c0,6.6,5.4,12,12,12c6.6,0,12-5.4,12-12C24,5.4,18.6,0,12,0z M13,12c0,0.6-0.4,1-1,1
		c-0.6,0-1-0.4-1-1c0-0.6,0.4-1,1-1C12.6,11,13,11.4,13,12z M3,13v-0.5c0-3.3,1.9-6.8,4.5-8.3L7.9,4c0.1,0.1,3.5,6,3.5,6.1
		c-0.8,0.2-1.4,1-1.4,1.9c0,0.4,0.1,0.7,0.3,1H3z M16.5,19.8C15.1,20.6,13.6,21,12,21c-1.6,0-3.1-0.4-4.5-1.2l-0.4-0.2l3.5-6.1
		c0.5,0.3,0.9,0.5,1.4,0.5c0.6,0,0.9-0.2,1.4-0.5l3.5,6.1L16.5,19.8z M13.7,13c0.2-0.3,0.3-0.6,0.3-1c0-0.9-0.6-1.7-1.4-1.9
		c0-0.1,3.4-6,3.5-6.1l0.4,0.3c2.6,1.5,4.5,5,4.5,8.3V13H13.7z"/>
</g>
<g id="Outline_Icons">
	<g>
		<circle class="st2" cx="12" cy="12" r="11.5"/>
		<g>
			<path class="st3" d="M14.5,12.5h6c0-3-1.7-6.4-4.3-7.9l-3,5.2C14,10.3,14.5,11.5,14.5,12.5z"/>
			<path class="st3" d="M10.8,14.2l-3,5.2c1.3,0.7,2.7,1.1,4.2,1.1c1.5,0,3-0.4,4.2-1.1l-3-5.2c-0.4,0.2-0.8,0.3-1.2,0.3
				C11.5,14.5,11.1,14.4,10.8,14.2z"/>
			<path class="st3" d="M9.5,12.5c0-1,0.5-2.2,1.3-2.7l-3-5.2c-2.5,1.5-4.3,4.9-4.3,7.9H9.5z"/>
		</g>
		<path class="st3" d="M12.5,12c0,0.3-0.2,0.5-0.5,0.5l0,0c-0.3,0-0.5-0.2-0.5-0.5l0,0c0-0.3,0.2-0.5,0.5-0.5l0,0
			C12.3,11.5,12.5,11.7,12.5,12L12.5,12z"/>
	</g>
</g>
</svg>
