<?xml version="1.0" encoding="utf-8"?>
<!-- Generator: Adobe Illustrator 19.2.0, SVG Export Plug-In . SVG Version: 6.00 Build 0)  -->
<svg version="1.1" id="Layer_1" xmlns="http://www.w3.org/2000/svg" xmlns:xlink="http://www.w3.org/1999/xlink" x="0px" y="0px"
	 viewBox="0 0 24 24" style="enable-background:new 0 0 24 24;" xml:space="preserve">
<style type="text/css">
	.st0{display:none;}
	.st1{display:inline;}
	.st2{fill:none;stroke:#000000;stroke-linecap:round;stroke-linejoin:round;stroke-miterlimit:10;}
</style>
<g id="Filled_Icon" class="st0">
	<g class="st1">
		<path d="M4,16h16c0.6,0,1-0.4,1-1H3C3,15.6,3.4,16,4,16z"/>
		<path d="M15.5,19H14v1h1.5c0.3,0,0.5-0.2,0.5-0.5S15.8,19,15.5,19z"/>
		<path d="M20,11H4c-0.6,0-1,0.4-1,1h18C21,11.4,20.6,11,20,11z"/>
		<rect x="3" y="13" width="18" height="1"/>
		<path d="M8,19.5C8,19.8,8.2,20,8.5,20H13v-1H8.5C8.2,19,8,19.2,8,19.5z"/>
		<path d="M21.5,8H4.6l14.1-7.1c0.2-0.1,0.3-0.4,0.2-0.7C18.8,0,18.5-0.1,18.2,0L2.4,8C1,8.1,0,9.2,0,10.5v10C0,21.9,1.1,23,2.5,23
			H5v0.5C5,23.8,5.2,24,5.5,24S6,23.8,6,23.5V23h12v0.5c0,0.3,0.2,0.5,0.5,0.5s0.5-0.2,0.5-0.5V23h2.5c1.4,0,2.5-1.1,2.5-2.5v-10
			C24,9.1,22.9,8,21.5,8z M4.5,21C3.7,21,3,20.3,3,19.5S3.7,18,4.5,18S6,18.7,6,19.5S5.3,21,4.5,21z M15.5,21h-7
			C7.7,21,7,20.3,7,19.5S7.7,18,8.5,18h7c0.8,0,1.5,0.7,1.5,1.5S16.3,21,15.5,21z M19.5,21c-0.8,0-1.5-0.7-1.5-1.5s0.7-1.5,1.5-1.5
			s1.5,0.7,1.5,1.5S20.3,21,19.5,21z M22,15c0,1.1-0.9,2-2,2H4c-1.1,0-2-0.9-2-2v-3c0-1.1,0.9-2,2-2h16c1.1,0,2,0.9,2,2V15z"/>
	</g>
</g>
<g id="Outline_Icons">
	<g>
		<path class="st2" d="M0.5,10.5c0-1.1,0.9-2,2-2h19c1.1,0,2,0.9,2,2v10c0,1.1-0.9,2-2,2h-19c-1.1,0-2-0.9-2-2V10.5z"/>
		<path class="st2" d="M21.5,15c0,0.8-0.7,1.5-1.5,1.5H4c-0.8,0-1.5-0.7-1.5-1.5v-3c0-0.8,0.7-1.5,1.5-1.5h16c0.8,0,1.5,0.7,1.5,1.5
			V15z"/>
		<circle class="st2" cx="4.5" cy="19.5" r="1"/>
		<circle class="st2" cx="19.5" cy="19.5" r="1"/>
		<path class="st2" d="M16.5,19.5c0,0.6-0.4,1-1,1h-7c-0.6,0-1-0.4-1-1s0.4-1,1-1h7C16.1,18.5,16.5,18.9,16.5,19.5z"/>
		<line class="st2" x1="2.5" y1="12.5" x2="21.5" y2="12.5"/>
		<line class="st2" x1="2.5" y1="14.5" x2="21.5" y2="14.5"/>
		<line class="st2" x1="13.5" y1="18.5" x2="13.5" y2="20.5"/>
		<line class="st2" x1="2.5" y1="8.5" x2="18.5" y2="0.5"/>
		<line class="st2" x1="5.5" y1="22.5" x2="5.5" y2="23.5"/>
		<line class="st2" x1="18.5" y1="22.5" x2="18.5" y2="23.5"/>
	</g>
</g>
</svg>
