<?xml version="1.0" encoding="utf-8"?>
<!-- Generator: Adobe Illustrator 19.2.0, SVG Export Plug-In . SVG Version: 6.00 Build 0)  -->
<svg version="1.1" id="Layer_1" xmlns="http://www.w3.org/2000/svg" xmlns:xlink="http://www.w3.org/1999/xlink" x="0px" y="0px"
	 viewBox="0 0 24 24" style="enable-background:new 0 0 24 24;" xml:space="preserve">
<style type="text/css">
	.st0{display:none;}
	.st1{display:inline;}
	.st2{fill:none;stroke:#000000;stroke-linejoin:round;stroke-miterlimit:10;}
	.st3{fill:none;stroke:#000000;stroke-linecap:round;stroke-linejoin:round;stroke-miterlimit:10;}
</style>
<g id="Filled_Icon" class="st0">
	<g class="st1">
		<g>
			<circle cx="5" cy="20.5" r="0.5"/>
			<circle cx="10" cy="20.5" r="0.5"/>
			<path d="M21,10.5H1c-0.6,0.5-1,1.2-1,2v9C0,22.9,1.1,24,2.5,24h17c1.4,0,2.5-1.1,2.5-2.5v-9C22,11.7,21.6,11,21,10.5z M5,22
				c-0.8,0-1.5-0.7-1.5-1.5S4.2,19,5,19s1.5,0.7,1.5,1.5S5.8,22,5,22z M10,22c-0.8,0-1.5-0.7-1.5-1.5S9.2,19,10,19s1.5,0.7,1.5,1.5
				S10.8,22,10,22z M19.5,22h-4c-0.3,0-0.5-0.2-0.5-0.5s0.2-0.5,0.5-0.5h4c0.3,0,0.5,0.2,0.5,0.5S19.7,22,19.5,22z M19.5,20h-4
				c-0.3,0-0.5-0.2-0.5-0.5s0.2-0.5,0.5-0.5h4c0.3,0,0.5,0.2,0.5,0.5S19.7,20,19.5,20z M20,17.5c0,0.3-0.2,0.5-0.5,0.5H15v-3h-1v3
				h-1v-4h-1v4h-1v-3h-1v3H9v-3H8v3H7v-4H6v4H5v-3H4v3H2.5C2.2,18,2,17.8,2,17.5v-5C2,12.2,2.2,12,2.5,12h17c0.3,0,0.5,0.2,0.5,0.5
				V17.5z"/>
		</g>
		<g>
			<path d="M21,9.5v-8C21,1.2,20.8,1,20.5,1h-7C13.2,1,13,1.2,13,1.5v8H21z M16,2h2v1h-2V2z M17,3.5c1.4,0,2.5,1.1,2.5,2.5
				S18.4,8.5,17,8.5S14.5,7.4,14.5,6S15.6,3.5,17,3.5z"/>
			<circle cx="17" cy="6" r="1.5"/>
		</g>
		<g>
			<circle cx="5" cy="6" r="1.5"/>
			<path d="M9,9.5v-8C9,1.2,8.8,1,8.5,1h-7C1.2,1,1,1.2,1,1.5v8H9z M4,2h2v1H4V2z M5,3.5c1.4,0,2.5,1.1,2.5,2.5S6.4,8.5,5,8.5
				S2.5,7.4,2.5,6S3.6,3.5,5,3.5z"/>
		</g>
	</g>
</g>
<g id="Outline_Icons">
	<g>
		<path class="st2" d="M21.5,21.5c0,1.1-0.9,2-2,2h-17c-1.1,0-2-0.9-2-2v-9c0-1.1,0.9-2,2-2h17c1.1,0,2,0.9,2,2V21.5z"/>
		<rect x="1.5" y="1.5" class="st2" width="7" height="9"/>
		<circle class="st2" cx="5" cy="7" r="2"/>
		<rect x="13.5" y="1.5" class="st2" width="7" height="9"/>
		<circle class="st2" cx="17" cy="7" r="2"/>
		<line class="st2" x1="4" y1="3.5" x2="6" y2="3.5"/>
		<line class="st2" x1="16" y1="3.5" x2="18" y2="3.5"/>
		<rect x="2.5" y="12.5" class="st2" width="17" height="5"/>
		<circle class="st2" cx="5" cy="20.5" r="1"/>
		<circle class="st2" cx="10" cy="20.5" r="1"/>
		<line class="st3" x1="15.5" y1="19.5" x2="19.5" y2="19.5"/>
		<line class="st3" x1="15.5" y1="21.5" x2="19.5" y2="21.5"/>
		<line class="st2" x1="4.5" y1="17.5" x2="4.5" y2="15"/>
		<line class="st2" x1="6.5" y1="17.5" x2="6.5" y2="14"/>
		<line class="st2" x1="8.5" y1="15" x2="8.5" y2="17.5"/>
		<line class="st2" x1="10.5" y1="15" x2="10.5" y2="17.5"/>
		<line class="st2" x1="12.5" y1="17.5" x2="12.5" y2="14"/>
		<line class="st2" x1="14.5" y1="15" x2="14.5" y2="17.5"/>
	</g>
</g>
</svg>
