<?xml version="1.0" encoding="utf-8"?>
<!-- Generator: Adobe Illustrator 19.2.0, SVG Export Plug-In . SVG Version: 6.00 Build 0)  -->
<svg version="1.1" id="Layer_1" xmlns="http://www.w3.org/2000/svg" xmlns:xlink="http://www.w3.org/1999/xlink" x="0px" y="0px"
	 viewBox="0 0 24 24" style="enable-background:new 0 0 24 24;" xml:space="preserve">
<style type="text/css">
	.st0{display:none;}
	.st1{display:inline;}
	.st2{fill:none;stroke:#000000;stroke-linecap:round;stroke-linejoin:round;stroke-miterlimit:10;}
</style>
<g id="Filled_Icon" class="st0">
	<g class="st1">
		<path d="M21.5,14h-9v-2h1c1.9,0,3.5-1.6,3.5-3.5V7h-3c-0.3,0-0.5-0.2-0.5-0.5S13.7,6,14,6h3V5h-3c-0.3,0-0.5-0.2-0.5-0.5
			S13.7,4,14,4h3V3.5C17,1.6,15.4,0,13.5,0h-3C9.1,0,7.9,0.8,7.4,2H11c0.3,0,0.5,0.2,0.5,0.5S11.3,3,11,3H7.1C7,3.2,7,3.3,7,3.5V4h4
			c0.3,0,0.5,0.2,0.5,0.5S11.3,5,11,5H7v1h4c0.3,0,0.5,0.2,0.5,0.5S11.3,7,11,7H7v1.5c0,1.9,1.6,3.5,3.5,3.5h1v2h-9
			C1.1,14,0,15.1,0,16.5v5C0,22.9,1.1,24,2.5,24h19c1.4,0,2.5-1.1,2.5-2.5v-5C24,15.1,22.9,14,21.5,14z M4.9,21.5
			c-1.6,0-1.6-1.8-1.6-2.5s0-2.5,1.6-2.5s1.6,1.8,1.6,2.5S6.5,21.5,4.9,21.5z M9.9,20.9c0,0.2-0.2,0.4-0.4,0.5H9.4
			c-0.2,0-0.4-0.1-0.5-0.3L8,19.2v1.7c0,0.3-0.2,0.5-0.5,0.5S7,21.2,7,20.9V17c0-0.2,0.2-0.4,0.4-0.5c0.2-0.1,0.5,0.1,0.6,0.3
			l0.9,1.9V17c0-0.3,0.2-0.5,0.5-0.5s0.5,0.2,0.5,0.5V20.9L9.9,20.9z M15.5,21.4h-0.1c-0.2,0-0.4-0.1-0.5-0.4l-0.1-0.5h-0.9L13.8,21
			c-0.1,0.3-0.4,0.4-0.6,0.3c-0.3-0.1-0.4-0.4-0.3-0.6l1.1-3.9c0.1-0.4,0.8-0.4,1,0l1.1,3.9C15.9,21.1,15.7,21.3,15.5,21.4z
			 M17.3,20.9c0,0.3-0.2,0.5-0.5,0.5s-0.5-0.2-0.5-0.5V17c0-0.3,0.2-0.5,0.5-0.5s0.5,0.2,0.5,0.5V20.9z M20.7,20.7
			c0.1,0.2,0,0.5-0.2,0.7c-0.1,0-0.1,0-0.2,0c-0.2,0-0.4-0.1-0.5-0.3L19,19.5h-0.1v1.4c0,0.3-0.2,0.5-0.5,0.5s-0.5-0.2-0.5-0.5V17
			c0-0.3,0.2-0.5,0.5-0.5h0.9c0.7,0,1.4,0.3,1.4,1.5c0,0.8-0.3,1.1-0.7,1.3L20.7,20.7z"/>
		<path d="M4.9,17.5c-0.2,0-0.6,0-0.6,1.5s0.4,1.5,0.6,1.5s0.6,0,0.6-1.5S5.1,17.5,4.9,17.5z"/>
		<polygon points="14.1,19.6 14.4,19.6 14.2,18.9 		"/>
		<path d="M19.7,18c0-0.4,0-0.5-0.4-0.5h-0.4v0.9h0.4C19.7,18.5,19.7,18.4,19.7,18z"/>
	</g>
</g>
<g id="Outline_Icons">
	<g>
		<path class="st2" d="M23.5,21.5c0,1.1-0.9,2-2,2h-19c-1.1,0-2-0.9-2-2v-5c0-1.1,0.9-2,2-2h19c1.1,0,2,0.9,2,2V21.5z"/>
		<path class="st2" d="M16.5,8.5c0,1.7-1.3,3-3,3h-3c-1.7,0-3-1.3-3-3v-5c0-1.7,1.3-3,3-3h3c1.7,0,3,1.3,3,3V8.5z"/>
		<line class="st2" x1="12" y1="9" x2="12" y2="14.5"/>
		<line class="st2" x1="7.7" y1="2.5" x2="11" y2="2.5"/>
		<line class="st2" x1="7.5" y1="4.5" x2="11" y2="4.5"/>
		<line class="st2" x1="7.5" y1="6.5" x2="11" y2="6.5"/>
		<line class="st2" x1="16.5" y1="4.5" x2="14" y2="4.5"/>
		<line class="st2" x1="16.5" y1="6.5" x2="14" y2="6.5"/>
		<g>
			<polyline class="st2" points="7.6,20.9 7.6,17.1 9.4,20.9 9.4,17.1 			"/>
			<path class="st2" d="M6,19c0,1.1-0.2,2-1.1,2s-1.1-0.9-1.1-2s0.2-2,1.1-2S6,17.9,6,19z"/>
			<line class="st2" x1="16.8" y1="20.9" x2="16.8" y2="17.1"/>
			<g>
				<polyline class="st2" points="15.3,20.9 14.2,17.1 13.1,20.9 				"/>
				<line class="st2" x1="13.4" y1="20.1" x2="15.1" y2="20.1"/>
			</g>
			<g>
				<path class="st2" d="M18.4,20.9V17h0.9c0.8,0,0.9,0.4,0.9,1c0,0.5-0.1,1-0.9,1h-0.9"/>
				<line class="st2" x1="19.3" y1="19" x2="20.2" y2="20.9"/>
			</g>
		</g>
	</g>
</g>
</svg>
