<?xml version="1.0" encoding="utf-8"?>
<!-- Generator: Adobe Illustrator 19.2.0, SVG Export Plug-In . SVG Version: 6.00 Build 0)  -->
<svg version="1.1" id="Layer_1" xmlns="http://www.w3.org/2000/svg" xmlns:xlink="http://www.w3.org/1999/xlink" x="0px" y="0px"
	 viewBox="0 0 24 24" style="enable-background:new 0 0 24 24;" xml:space="preserve">
<style type="text/css">
	.st0{display:none;}
	.st1{display:inline;}
	.st2{fill:none;stroke:#000000;stroke-linecap:round;stroke-linejoin:round;stroke-miterlimit:10;}
	.st3{fill:none;stroke:#000000;stroke-linejoin:round;stroke-miterlimit:10;}
</style>
<g id="Filled_Icon" class="st0">
	<g class="st1">
		<path d="M22,11.8v-1c0-0.9-0.8-1.6-2-1.7V6.5C20,5.7,19.3,5,18.5,5h-13C4.7,5,4,5.7,4,6.5V9c-1.2,0.2-2,0.9-2,1.7v1
			c-1.2,0.8-2,2.2-2,3.7C0,18,2,20,4.5,20h15c2.5,0,4.5-2,4.5-4.5C24,13.9,23.2,12.6,22,11.8z M5,6.5C5,6.2,5.2,6,5.5,6h13
			C18.8,6,19,6.2,19,6.5V9H5V6.5z M4.5,19C2.6,19,1,17.4,1,15.5S2.6,12,4.5,12S8,13.6,8,15.5S6.4,19,4.5,19z M13.5,15h-3
			c-0.3,0-0.5-0.2-0.5-0.5s0.2-0.5,0.5-0.5h3c0.3,0,0.5,0.2,0.5,0.5S13.8,15,13.5,15z M15.9,10.4l-1.5,1.5c-0.1,0-0.3,0.1-0.4,0.1
			h-4c-0.1,0-0.3-0.1-0.4-0.1l-1.5-1.5C8,10.2,8,10,8,9.8c0.1-0.2,0.3-0.3,0.5-0.3h7c0.2,0,0.4,0.1,0.5,0.3C16,10,16,10.2,15.9,10.4
			z M19.5,19c-1.9,0-3.5-1.6-3.5-3.5s1.6-3.5,3.5-3.5s3.5,1.6,3.5,3.5S21.4,19,19.5,19z"/>
		<circle cx="19.5" cy="15.5" r="1.5"/>
		<circle cx="4.5" cy="15.5" r="1.5"/>
	</g>
</g>
<g id="Outline_Icons">
	<g>
		<circle class="st2" cx="4.5" cy="15.5" r="4"/>
		<circle class="st2" cx="19.5" cy="15.5" r="4"/>
		<line class="st2" x1="10.5" y1="14.5" x2="13.5" y2="14.5"/>
		<path class="st2" d="M2.5,12c0,0,0-0.6,0-1.2s0.9-1.2,2-1.2h15c1.1,0,2,0.6,2,1.2s0,1.2,0,1.2"/>
		<line class="st2" x1="19.5" y1="19.5" x2="4.5" y2="19.5"/>
		<path class="st3" d="M4.5,9.5v-3c0-0.5,0.5-1,1-1h13c0.5,0,1,0.5,1,1v3"/>
		<circle class="st3" cx="19.5" cy="15.5" r="1"/>
		<circle class="st3" cx="4.5" cy="15.5" r="1"/>
		<polygon class="st3" points="14,11.5 10,11.5 8,9.5 16,9.5 		"/>
	</g>
</g>
</svg>
