<?xml version="1.0" encoding="utf-8"?>
<!-- Generator: Adobe Illustrator 19.2.0, SVG Export Plug-In . SVG Version: 6.00 Build 0)  -->
<svg version="1.1" id="Layer_1" xmlns="http://www.w3.org/2000/svg" xmlns:xlink="http://www.w3.org/1999/xlink" x="0px" y="0px"
	 viewBox="0 0 24 24" style="enable-background:new 0 0 24 24;" xml:space="preserve">
<style type="text/css">
	.st0{display:none;}
	.st1{display:inline;}
	.st2{fill:none;stroke:#000000;stroke-linejoin:round;stroke-miterlimit:10;}
	.st3{fill:none;stroke:#000000;stroke-linecap:round;stroke-linejoin:round;stroke-miterlimit:10;}
</style>
<g id="Filled_Icons" class="st0">
	<g class="st1">
		<path d="M22,18.1V0.5C22,0.2,21.8,0,21.5,0S21,0.2,21,0.5v17.6c-1.1,0.2-2,1.2-2,2.4v3c0,0.3,0.2,0.5,0.5,0.5h4
			c0.3,0,0.5-0.2,0.5-0.5v-3C24,19.3,23.1,18.3,22,18.1z"/>
		<path d="M5,3.5v-3C5,0.2,4.8,0,4.5,0h-4C0.2,0,0,0.2,0,0.5v3c0,1.2,0.9,2.2,2,2.4v17.6C2,23.8,2.2,24,2.5,24S3,23.8,3,23.5V5.9
			C4.1,5.7,5,4.7,5,3.5z"/>
		<path d="M19,7.8c0-1-0.4-1.9-1.1-2.6L14.4,2c-1.3-1.2-3.5-1.2-4.7,0L6.1,5.2C5.4,5.9,5,6.8,5,7.8V17c0,3.9,3.1,7,7,7s7-3.1,7-7
			V7.8z M8.2,6.9l2.4-2.2c0.8-0.7,2-0.7,2.8,0l2.4,2.2c0.3,0.3,0.5,0.7,0.6,1.1H7.5C7.6,7.6,7.8,7.2,8.2,6.9z M12,21
			c-2.3,0-4.2-1.8-4.4-4h8.9C16.2,19.3,14.3,21,12,21z M16.5,16h-9v-3h9V16z M16.5,12h-9V9h9V12z"/>
	</g>
</g>
<g id="Outline_Icons">
	<g>
		<line class="st2" x1="7.5" y1="8.5" x2="16.5" y2="8.5"/>
		<line class="st2" x1="7.5" y1="12.5" x2="16.5" y2="12.5"/>
		<line class="st2" x1="7.5" y1="16.5" x2="16.5" y2="16.5"/>
		<path class="st2" d="M19.5,20.5c0-1.1,0.9-2,2-2s2,0.9,2,2v3h-4V20.5z"/>
		<line class="st3" x1="21.5" y1="0.5" x2="21.5" y2="18.5"/>
		<path class="st2" d="M4.5,3.5c0,1.1-0.9,2-2,2s-2-0.9-2-2v-3h4V3.5z"/>
		<line class="st3" x1="2.5" y1="23.5" x2="2.5" y2="5.5"/>
		<path class="st2" d="M5.5,7.8c0-0.8,0.4-1.6,1-2.2L10,2.4c1.1-1.1,2.9-1.1,4.1,0l3.5,3.2c0.6,0.6,1,1.4,1,2.2V17
			c0,3.6-2.9,6.5-6.5,6.5S5.6,20.6,5.6,17V7.8H5.5z"/>
		<path class="st2" d="M7.5,8.4c0-0.6,0.2-1.1,0.7-1.5l2.4-2.2c0.8-0.7,2-0.7,2.8,0l2.4,2.2c0.4,0.4,0.7,1,0.7,1.5v8.1
			c0,2.5-2,4.5-4.5,4.5s-4.5-2-4.5-4.5C7.5,16.5,7.5,8.4,7.5,8.4z"/>
	</g>
</g>
</svg>
