<?xml version="1.0" encoding="utf-8"?>
<!-- Generator: Adobe Illustrator 19.2.0, SVG Export Plug-In . SVG Version: 6.00 Build 0)  -->
<svg version="1.1" id="Layer_1" xmlns="http://www.w3.org/2000/svg" xmlns:xlink="http://www.w3.org/1999/xlink" x="0px" y="0px"
	 viewBox="0 0 24 24" style="enable-background:new 0 0 24 24;" xml:space="preserve">
<style type="text/css">
	.st0{display:none;}
	.st1{display:inline;}
	.st2{fill:none;stroke:#000000;stroke-linecap:round;stroke-linejoin:round;stroke-miterlimit:10;}
</style>
<g id="Filled_Icon" class="st0">
	<g class="st1">
		<path d="M12,20.5h-1.3l1.6-1.7c0.2-0.2,0.2-0.5,0-0.7s-0.5-0.2-0.7,0l-2.5,2.5C9,20.8,9,21,9,21.2c0.1,0.2,0.3,0.3,0.5,0.3h1.3
			l-1.6,1.6c-0.2,0.2-0.2,0.5,0,0.7c0,0.1,0.2,0.2,0.3,0.2s0.3,0,0.4-0.1l2.5-2.5c0.1-0.1,0.2-0.4,0.1-0.5
			C12.4,20.6,12.2,20.5,12,20.5z"/>
		<path d="M17.6,18.1l-5,5c-0.2,0.2-0.2,0.5,0,0.7c0.1,0.1,0.2,0.1,0.4,0.1c0.1,0,0.3,0,0.4-0.1l5-5c0.2-0.2,0.2-0.5,0-0.7
			C18.2,17.9,17.8,17.9,17.6,18.1z"/>
		<path d="M7.6,18.1l-5,5c-0.2,0.2-0.2,0.5,0,0.7C2.7,23.9,2.9,24,3,24s0.3,0,0.4-0.1l5-5c0.2-0.2,0.2-0.5,0-0.7
			C8.2,17.9,7.8,17.9,7.6,18.1z"/>
		<path d="M21.3,8c0.3-1,0.2-2.1-0.4-2.9c-0.6-1-1.7-1.6-2.9-1.6c0,0,0,0-0.1,0C17,1.4,14.8,0,12.5,0C9.5,0,7,2.2,6.6,5.1
			C3.9,5.5,2,7.8,2,10.5c0,3,2.5,5.5,5.5,5.5h11c2.5,0,4.5-2,4.5-4.5C23,10.1,22.4,8.9,21.3,8z"/>
	</g>
</g>
<g id="Outline_Icons">
	<g>
		<polyline class="st2" points="9.5,23.5 12,21 9.5,21 12,18.5 		"/>
		<line class="st2" x1="13" y1="23.5" x2="18" y2="18.5"/>
		<line class="st2" x1="3" y1="23.5" x2="8" y2="18.5"/>
		<path class="st2" d="M20.8,8.2C21.7,6.1,20,3.7,17.6,4c-0.8-2.1-2.8-3.5-5.1-3.5c-2.9,0-5.2,2.2-5.5,5c-2.5,0.2-4.5,2.4-4.5,5
			c0,2.8,2.2,5,5,5h11c2.2,0,4-1.8,4-4C22.5,10.1,21.8,8.9,20.8,8.2z"/>
	</g>
</g>
</svg>
