<?xml version="1.0" encoding="utf-8"?>
<!-- Generator: Adobe Illustrator 19.2.0, SVG Export Plug-In . SVG Version: 6.00 Build 0)  -->
<svg version="1.1" id="Layer_1" xmlns="http://www.w3.org/2000/svg" xmlns:xlink="http://www.w3.org/1999/xlink" x="0px" y="0px"
	 viewBox="0 0 24 24" style="enable-background:new 0 0 24 24;" xml:space="preserve">
<style type="text/css">
	.st0{display:none;}
	.st1{display:inline;}
	.st2{fill:none;stroke:#000000;stroke-linejoin:round;stroke-miterlimit:10;}
	.st3{fill:none;stroke:#000000;stroke-linecap:round;stroke-linejoin:round;stroke-miterlimit:10;}
</style>
<g id="Filled_Icons" class="st0">
	<g class="st1">
		<path d="M20.8,17.1l-8.5-5c-0.2-0.1-0.4-0.1-0.5,0l-8.5,5C3.1,17.2,3,17.4,3,17.5c0,4.2,3,4.6,6.1,4.6l0,0c0.4,0,0.9,0,1.4,0
			c1,0,2.1,0,3.1,0c0.5,0,0.9,0,1.4,0c3.1,0,6.1-0.4,6.1-4.6C21,17.4,20.9,17.2,20.8,17.1z"/>
		<path d="M20.8,11.1l-8.5-5c-0.2-0.1-0.4-0.1-0.5,0l-8.5,5C3.1,11.2,3,11.4,3,11.5v3c0,0.2,0.1,0.3,0.3,0.4c0.2,0.1,0.3,0.1,0.5,0
			l8.2-4.9l8.2,4.9c0.1,0,0.2,0.1,0.3,0.1c0.1,0,0.2,0,0.2-0.1c0.2-0.1,0.3-0.3,0.3-0.4v-3C21,11.4,20.9,11.2,20.8,11.1z"/>
		<path d="M20.8,5.1l-8.5-5c-0.2-0.1-0.4-0.1-0.5,0l-8.5,5C3.1,5.2,3,5.4,3,5.5v3C3,8.7,3.1,8.9,3.3,9c0.2,0.1,0.3,0.1,0.5,0L12,4.1
			L20.2,9C20.3,9,20.4,9,20.5,9c0.1,0,0.2,0,0.2-0.1C20.9,8.9,21,8.7,21,8.5v-3C21,5.4,20.9,5.2,20.8,5.1z"/>
	</g>
</g>
<g id="Outline_Icons">
	<g>
		<path class="st2" d="M12,21.5c4.7,0,8.5,0.7,8.5-4l-8.5-5l-8.5,5C3.5,22.2,7.3,21.5,12,21.5z"/>
		<polygon class="st3" points="20.5,14.5 12,9.5 3.5,14.5 3.5,11.5 12,6.5 20.5,11.5 		"/>
		<polygon class="st3" points="20.5,8.5 12,3.5 3.5,8.5 3.5,5.5 12,0.5 20.5,5.5 		"/>
	</g>
</g>
</svg>
