<?xml version="1.0" encoding="utf-8"?>
<!-- Generator: Adobe Illustrator 19.2.0, SVG Export Plug-In . SVG Version: 6.00 Build 0)  -->
<svg version="1.1" id="Layer_1" xmlns="http://www.w3.org/2000/svg" xmlns:xlink="http://www.w3.org/1999/xlink" x="0px" y="0px"
	 viewBox="0 0 24 24" style="enable-background:new 0 0 24 24;" xml:space="preserve">
<style type="text/css">
	.st0{display:none;}
	.st1{display:inline;}
	.st2{fill:none;stroke:#000000;stroke-linecap:round;stroke-linejoin:round;stroke-miterlimit:10;}
</style>
<g id="Filled_Icons" class="st0">
	<g class="st1">
		<path d="M20.8,18.1l-8.5-5c-0.2-0.1-0.4-0.1-0.5,0l-8.5,5C3.1,18.2,3,18.3,3,18.5v3c0,0.2,0.1,0.3,0.3,0.4c0.2,0.1,0.3,0.1,0.5,0
			l8.2-4.9l8.2,4.9c0.1,0,0.2,0.1,0.3,0.1c0.1,0,0.2,0,0.2-0.1c0.2-0.1,0.3-0.3,0.3-0.4v-3C21,18.3,20.9,18.2,20.8,18.1z"/>
		<path d="M20.8,11.6l-8.5-5c-0.2-0.1-0.4-0.1-0.5,0l-8.5,5C3.1,11.7,3,11.8,3,12v3c0,0.2,0.1,0.3,0.3,0.4c0.2,0.1,0.3,0.1,0.5,0
			l8.2-4.9l8.2,4.9c0.1,0,0.2,0.1,0.3,0.1c0.1,0,0.2,0,0.2-0.1c0.2-0.1,0.3-0.3,0.3-0.4v-3C21,11.8,20.9,11.7,20.8,11.6z"/>
		<path d="M20.8,5.1l-8.5-5c-0.2-0.1-0.4-0.1-0.5,0l-8.5,5C3.1,5.2,3,5.3,3,5.5v3c0,0.2,0.1,0.3,0.3,0.4C3.4,9,3.6,9,3.8,8.9L12,4.1
			l8.2,4.9C20.3,9,20.4,9,20.5,9c0.1,0,0.2,0,0.2-0.1C20.9,8.8,21,8.7,21,8.5v-3C21,5.3,20.9,5.2,20.8,5.1z"/>
	</g>
</g>
<g id="Outline_Icons">
	<g>
		<polygon class="st2" points="20.5,21.5 12,16.5 3.5,21.5 3.5,18.5 12,13.5 20.5,18.5 		"/>
		<polygon class="st2" points="20.5,15 12,10 3.5,15 3.5,12 12,7 20.5,12 		"/>
		<polygon class="st2" points="20.5,8.5 12,3.5 3.5,8.5 3.5,5.5 12,0.5 20.5,5.5 		"/>
	</g>
</g>
</svg>
