<?xml version="1.0" encoding="utf-8"?>
<!-- Generator: Adobe Illustrator 19.2.0, SVG Export Plug-In . SVG Version: 6.00 Build 0)  -->
<svg version="1.1" id="Outline_Icons" xmlns="http://www.w3.org/2000/svg" xmlns:xlink="http://www.w3.org/1999/xlink" x="0px"
	 y="0px" viewBox="0 0 24 24" style="enable-background:new 0 0 24 24;" xml:space="preserve">
<style type="text/css">
	.st0{fill:none;stroke:#000000;stroke-linejoin:round;stroke-miterlimit:10;}
</style>
<g>
	<polygon class="st0" points="12,0.5 13,4.5 17,4.5 14,6.5 15.5,10.5 12,8 8.5,10.5 10,6.5 7,4.5 11,4.5 	"/>
	<polygon class="st0" points="18.5,13.5 19.5,17.5 23.5,17.5 20.5,19.5 22,23.5 18.5,21 15,23.5 16.5,19.5 13.5,17.5 17.5,17.5 	"/>
	<polygon class="st0" points="5.5,13.5 6.5,17.5 10.5,17.5 7.5,19.5 9,23.5 5.5,21 2,23.5 3.5,19.5 0.5,17.5 4.5,17.5 	"/>
</g>
</svg>
