<?xml version="1.0" encoding="utf-8"?>
<!-- Generator: Adobe Illustrator 19.2.0, SVG Export Plug-In . SVG Version: 6.00 Build 0)  -->
<svg version="1.1" id="Layer_1" xmlns="http://www.w3.org/2000/svg" xmlns:xlink="http://www.w3.org/1999/xlink" x="0px" y="0px"
	 viewBox="0 0 24 24" style="enable-background:new 0 0 24 24;" xml:space="preserve">
<style type="text/css">
	.st0{display:none;}
	.st1{display:inline;}
	.st2{fill:none;stroke:#000000;stroke-linejoin:round;stroke-miterlimit:10;}
	.st3{fill:none;stroke:#000000;stroke-linecap:round;stroke-linejoin:round;stroke-miterlimit:10;}
</style>
<g id="Filled_Icons" class="st0">
	<g class="st1">
		<path d="M11.7,13.1c0.2-0.1,0.4-0.1,0.6,0l6.7,5.1V0.5C19,0.2,18.8,0,18.5,0h-13C5.2,0,5,0.2,5,0.5v17.8L11.7,13.1z"/>
		<path d="M12,14.1l-7,5.4v4c0,0.2,0.1,0.4,0.3,0.4C5.5,24,5.7,24,5.8,23.9l6.2-4.8l6.2,4.8c0.1,0.1,0.2,0.1,0.3,0.1
			c0.1,0,0.2,0,0.2-0.1c0.2-0.1,0.3-0.3,0.3-0.4v-4L12,14.1z"/>
	</g>
</g>
<g id="Outline_Icons">
	<g>
		<polygon class="st2" points="18.5,0.5 5.5,0.5 5.5,23.5 12,18.5 18.5,23.5 		"/>
		<polyline class="st3" points="5.5,18.5 12,13.5 18.5,18.5 		"/>
	</g>
</g>
</svg>
