<?xml version="1.0" encoding="utf-8"?>
<!-- Generator: Adobe Illustrator 19.2.0, SVG Export Plug-In . SVG Version: 6.00 Build 0)  -->
<svg version="1.1" id="Outline_Icons" xmlns="http://www.w3.org/2000/svg" xmlns:xlink="http://www.w3.org/1999/xlink" x="0px"
	 y="0px" viewBox="0 0 24 24" style="enable-background:new 0 0 24 24;" xml:space="preserve">
<style type="text/css">
	.st0{fill:none;stroke:#000000;stroke-linecap:round;stroke-linejoin:round;stroke-miterlimit:10;}
</style>
<g>
	<polygon class="st0" points="4.5,23.5 6.5,21.5 8.5,23.5 10.5,21.5 12.5,23.5 14.5,21.5 16.5,23.5 18.5,21.5 20.5,23.5 20.5,0.5 
		18.5,2.5 16.5,0.5 14.5,2.5 12.5,0.5 10.5,2.5 8.5,0.5 6.5,2.5 4.5,0.5 	"/>
	<line class="st0" x1="7.5" y1="6.5" x2="15.5" y2="6.5"/>
	<line class="st0" x1="7.5" y1="9.5" x2="11.5" y2="9.5"/>
	<line class="st0" x1="7.5" y1="12.5" x2="11.5" y2="12.5"/>
	<line class="st0" x1="7.5" y1="15.5" x2="10.5" y2="15.5"/>
	<line class="st0" x1="15.5" y1="17.4" x2="15.5" y2="18.5"/>
	<line class="st0" x1="16.5" y1="10.5" x2="16.5" y2="11.6"/>
	<path class="st0" d="M14.5,16c0,0.8,0.7,1.5,1.5,1.5c0.8,0,1.5-0.7,1.5-1.5c0-0.8-0.7-1.5-1.5-1.5s-1.5-0.7-1.5-1.5
		s0.7-1.5,1.5-1.5c0.8,0,1.5,0.7,1.5,1.5"/>
</g>
</svg>
