<?xml version="1.0" encoding="utf-8"?>
<!-- Generator: Adobe Illustrator 19.2.0, SVG Export Plug-In . SVG Version: 6.00 Build 0)  -->
<svg version="1.1" id="Layer_1" xmlns="http://www.w3.org/2000/svg" xmlns:xlink="http://www.w3.org/1999/xlink" x="0px" y="0px"
	 viewBox="0 0 24 24" style="enable-background:new 0 0 24 24;" xml:space="preserve">
<style type="text/css">
	.st0{display:none;}
	.st1{display:inline;}
	.st2{fill:none;stroke:#000000;stroke-linejoin:round;stroke-miterlimit:10;}
	.st3{fill:none;stroke:#000000;stroke-linecap:round;stroke-linejoin:round;stroke-miterlimit:10;}
</style>
<g id="Filled_Icon" class="st0">
	<path class="st1" d="M23,0.5V0H9.5v0.5c0,0.1,0.1,10.9-0.9,16.5H4c-0.4,0-0.8,0.1-1.1,0.4C2.4,18,2.4,19,2.4,20.1
		c0,1,0,2.1-0.5,2.6C1.7,22.9,1.4,23,1,23v0.5V24h12.5c0.7,0,1.2-0.2,1.6-0.6c0.4-0.4,0.6-0.9,0.6-1.4h3.7c0.4,0,0.8-0.2,1.1-0.5
		C23.3,18.7,23,2.3,23,0.5z M13,3h2c0.3,0,0.5,0.2,0.5,0.5S15.3,4,15,4h-2c-0.3,0-0.5-0.2-0.5-0.5S12.7,3,13,3z M12.5,7H19
		c0.3,0,0.5,0.2,0.5,0.5S19.3,8,19,8h-6.5C12.2,8,12,7.8,12,7.5S12.2,7,12.5,7z M12,13h7c0.3,0,0.5,0.2,0.5,0.5S19.3,14,19,14h-7
		c-0.3,0-0.5-0.2-0.5-0.5S11.7,13,12,13z M12,11.5c0-0.3,0.2-0.5,0.5-0.5h6c0.3,0,0.5,0.2,0.5,0.5S18.8,12,18.5,12h-6
		C12.2,12,12,11.8,12,11.5z M15.8,21c0-0.3,0-0.6,0-0.9c0-0.8,0-1.7,0.3-2c0,0,0.1-0.1,0.4-0.1c0.2,0,0.4,0,0.5,0.1
		c0.2,0.2,0.2,0.7,0.2,1.1c0,0.6,0,1.2,0.3,1.8H15.8z M19.5,16h-8c-0.3,0-0.5-0.2-0.5-0.5s0.2-0.5,0.5-0.5h8c0.3,0,0.5,0.2,0.5,0.5
		S19.8,16,19.5,16z M19.5,10h-7C12.2,10,12,9.8,12,9.5S12.2,9,12.5,9h7C19.8,9,20,9.2,20,9.5S19.8,10,19.5,10z M19.5,6H14
		c-0.3,0-0.5-0.2-0.5-0.5S13.7,5,14,5h5.5C19.8,5,20,5.2,20,5.5S19.8,6,19.5,6z"/>
</g>
<g id="Outline_Icons">
	<g>
		<path class="st2" d="M22.5,0.5c0,0,0.5,21-3,21s-0.5-4-3-4s0.5,6-3,6H1c3.5,0,0.5-6,3-6s5,0,5,0c1.1-5.6,1-17,1-17H22.5z"/>
		<line class="st2" x1="9" y1="17.5" x2="16.5" y2="17.5"/>
		<line class="st2" x1="19.5" y1="21.5" x2="15.3" y2="21.5"/>
		<line class="st3" x1="13" y1="3.5" x2="15" y2="3.5"/>
		<line class="st3" x1="14" y1="5.5" x2="19.5" y2="5.5"/>
		<line class="st3" x1="12.5" y1="7.5" x2="19" y2="7.5"/>
		<line class="st3" x1="12.5" y1="9.5" x2="19.5" y2="9.5"/>
		<line class="st3" x1="12.5" y1="11.5" x2="18.5" y2="11.5"/>
		<line class="st3" x1="12" y1="13.5" x2="19" y2="13.5"/>
		<line class="st3" x1="11.5" y1="15.5" x2="19.5" y2="15.5"/>
	</g>
</g>
</svg>
