<?xml version="1.0" encoding="utf-8"?>
<!-- Generator: Adobe Illustrator 19.2.0, SVG Export Plug-In . SVG Version: 6.00 Build 0)  -->
<svg version="1.1" id="Layer_1" xmlns="http://www.w3.org/2000/svg" xmlns:xlink="http://www.w3.org/1999/xlink" x="0px" y="0px"
	 viewBox="0 0 24 24" style="enable-background:new 0 0 24 24;" xml:space="preserve">
<style type="text/css">
	.st0{display:none;}
	.st1{display:inline;}
	.st2{fill:none;stroke:#000000;stroke-linecap:round;stroke-linejoin:round;stroke-miterlimit:10;}
</style>
<g id="Filled_Icon" class="st0">
	<path class="st1" d="M20.7,0c-0.2-0.1-0.4,0-0.5,0.1l-1.6,1.6L17,0.1c-0.2-0.2-0.5-0.2-0.7,0l-1.6,1.6l-1.6-1.6
		c-0.2-0.2-0.5-0.2-0.7,0l-1.6,1.6L8.9,0.1C8.7,0,8.3,0,8.1,0.1L6.5,1.8L4.9,0.1C4.7,0,4.5,0,4.3,0C4.1,0.1,4,0.3,4,0.5v23
		c0,0.2,0.1,0.4,0.3,0.5c0.2,0.1,0.4,0,0.5-0.1l1.6-1.6L8,23.9c0.2,0.2,0.5,0.2,0.7,0l1.6-1.6l1.6,1.6c0.2,0.2,0.5,0.2,0.7,0
		l1.6-1.6l1.6,1.6c0.2,0.2,0.5,0.2,0.7,0l1.6-1.6l1.6,1.6c0.1,0.1,0.2,0.1,0.4,0.1c0.1,0,0.1,0,0.2,0c0.2-0.1,0.3-0.3,0.3-0.5v-23
		C21,0.3,20.9,0.1,20.7,0z M10.5,16h-3C7.2,16,7,15.8,7,15.5S7.2,15,7.5,15h3c0.3,0,0.5,0.2,0.5,0.5S10.8,16,10.5,16z M12.5,13h-5
		C7.2,13,7,12.8,7,12.5S7.2,12,7.5,12h5c0.3,0,0.5,0.2,0.5,0.5S12.8,13,12.5,13z M7,9.5C7,9.2,7.2,9,7.5,9h4C11.8,9,12,9.2,12,9.5
		S11.8,10,11.5,10h-4C7.2,10,7,9.8,7,9.5z M13.5,7h-6C7.2,7,7,6.8,7,6.5S7.2,6,7.5,6h6C13.8,6,14,6.2,14,6.5S13.8,7,13.5,7z
		 M17.5,16h-1c-0.3,0-0.5-0.2-0.5-0.5s0.2-0.5,0.5-0.5h1c0.3,0,0.5,0.2,0.5,0.5S17.8,16,17.5,16z M17.5,13h-1
		c-0.3,0-0.5-0.2-0.5-0.5s0.2-0.5,0.5-0.5h1c0.3,0,0.5,0.2,0.5,0.5S17.8,13,17.5,13z M17.5,10h-1C16.2,10,16,9.8,16,9.5
		S16.2,9,16.5,9h1C17.8,9,18,9.2,18,9.5S17.8,10,17.5,10z M17.5,7h-1C16.2,7,16,6.8,16,6.5S16.2,6,16.5,6h1C17.8,6,18,6.2,18,6.5
		S17.8,7,17.5,7z"/>
</g>
<g id="Outline_Icons">
	<g>
		<polygon class="st2" points="4.5,23.5 6.5,21.5 8.5,23.5 10.5,21.5 12.5,23.5 14.5,21.5 16.5,23.5 18.5,21.5 20.5,23.5 20.5,0.5 
			18.5,2.5 16.5,0.5 14.5,2.5 12.5,0.5 10.5,2.5 8.5,0.5 6.5,2.5 4.5,0.5 		"/>
		<line class="st2" x1="7.5" y1="6.5" x2="13.5" y2="6.5"/>
		<line class="st2" x1="7.5" y1="9.5" x2="11.5" y2="9.5"/>
		<line class="st2" x1="7.5" y1="12.5" x2="12.5" y2="12.5"/>
		<line class="st2" x1="7.5" y1="15.5" x2="10.5" y2="15.5"/>
		<line class="st2" x1="16.5" y1="6.5" x2="17.5" y2="6.5"/>
		<line class="st2" x1="16.5" y1="9.5" x2="17.5" y2="9.5"/>
		<line class="st2" x1="16.5" y1="12.5" x2="17.5" y2="12.5"/>
		<line class="st2" x1="16.5" y1="15.5" x2="17.5" y2="15.5"/>
	</g>
</g>
</svg>
