<?xml version="1.0" encoding="utf-8"?>
<!-- Generator: Adobe Illustrator 19.2.0, SVG Export Plug-In . SVG Version: 6.00 Build 0)  -->
<svg version="1.1" id="Outline_Icons" xmlns="http://www.w3.org/2000/svg" xmlns:xlink="http://www.w3.org/1999/xlink" x="0px"
	 y="0px" viewBox="0 0 24 24" style="enable-background:new 0 0 24 24;" xml:space="preserve">
<style type="text/css">
	.st0{fill:none;stroke:#000000;stroke-linecap:round;stroke-linejoin:round;stroke-miterlimit:10;}
</style>
<g>
	<path class="st0" d="M6.8,10.7c0,0.9,0.8,1.7,1.7,1.7s1.7-0.8,1.7-1.7S9.4,9,8.5,9S6.8,8.2,6.8,7.3s0.8-1.7,1.7-1.7
		s1.7,0.8,1.7,1.7"/>
	<line class="st0" x1="8.5" y1="12.4" x2="8.5" y2="13.5"/>
	<line class="st0" x1="8.5" y1="4.5" x2="8.5" y2="5.6"/>
	<g>
		<polygon class="st0" points="20.5,23.5 3.5,23.5 3.5,0.5 14.5,0.5 20.5,6.5 		"/>
		<polyline class="st0" points="14.5,0.5 14.5,6.5 20.5,6.5 		"/>
	</g>
	<line class="st0" x1="6.6" y1="16.5" x2="17.5" y2="16.5"/>
	<line class="st0" x1="12.5" y1="14.5" x2="17.5" y2="14.5"/>
	<line class="st0" x1="14.5" y1="12.5" x2="17.5" y2="12.5"/>
	<line class="st0" x1="14.5" y1="10.5" x2="17.5" y2="10.5"/>
	<line class="st0" x1="6.6" y1="18.5" x2="17.5" y2="18.5"/>
	<line class="st0" x1="6.6" y1="20.5" x2="17.5" y2="20.5"/>
</g>
</svg>
