<?xml version="1.0" encoding="utf-8"?>
<!-- Generator: Adobe Illustrator 19.2.0, SVG Export Plug-In . SVG Version: 6.00 Build 0)  -->
<svg version="1.1" id="Layer_1" xmlns="http://www.w3.org/2000/svg" xmlns:xlink="http://www.w3.org/1999/xlink" x="0px" y="0px"
	 viewBox="0 0 24 24" style="enable-background:new 0 0 24 24;" xml:space="preserve">
<style type="text/css">
	.st0{display:none;}
	.st1{display:inline;}
	.st2{fill:none;stroke:#000000;stroke-linejoin:round;stroke-miterlimit:10;}
	.st3{fill:none;stroke:#000000;stroke-linecap:round;stroke-linejoin:round;stroke-miterlimit:10;}
</style>
<g id="Filled_Icon" class="st0">
	<path class="st1" d="M24,4.5C24,3.4,23.9,1,22.5,1H10C8.8,1,8.5,2.3,8.5,3c0,0.1,0.1,8.5-0.9,14H3c-0.4,0-0.8,0.1-1.1,0.4
		C1.4,18,1.4,19,1.4,20.1c0,1,0,2.1-0.5,2.6C0.7,22.9,0.4,23,0,23v1h12.5c0.7,0,1.2-0.2,1.6-0.6c0.4-0.4,0.6-0.9,0.6-1.4h3.7
		c0.4,0,0.8-0.2,1.2-0.5C21.7,19.4,22,10.5,22,5h2V4.5z M12,5h2c0.3,0,0.5,0.2,0.5,0.5S14.3,6,14,6h-2c-0.3,0-0.5-0.2-0.5-0.5
		S11.7,5,12,5z M11.5,9H18c0.3,0,0.5,0.2,0.5,0.5S18.3,10,18,10h-6.5C11.2,10,11,9.8,11,9.5S11.2,9,11.5,9z M14.8,21
		c0-0.3,0-0.6,0-0.9c0-0.8,0-1.7,0.3-2c0,0,0.1-0.1,0.3-0.1s0.4,0,0.5,0.1c0.2,0.2,0.2,0.7,0.2,1.1c0,0.6,0,1.2,0.3,1.8H14.8z
		 M18,16h-7c-0.3,0-0.5-0.2-0.5-0.5S10.7,15,11,15h7c0.3,0,0.5,0.2,0.5,0.5S18.3,16,18,16z M11,13.5c0-0.3,0.2-0.5,0.5-0.5h6
		c0.3,0,0.5,0.2,0.5,0.5S17.8,14,17.5,14h-6C11.2,14,11,13.8,11,13.5z M18.5,12h-7c-0.3,0-0.5-0.2-0.5-0.5s0.2-0.5,0.5-0.5h7
		c0.3,0,0.5,0.2,0.5,0.5S18.8,12,18.5,12z M18.5,8H13c-0.3,0-0.5-0.2-0.5-0.5S12.7,7,13,7h5.5C18.8,7,19,7.2,19,7.5S18.8,8,18.5,8z
		 M22,4c0-0.6,0-1,0-1s0.1-1,0.5-1c0.2,0.1,0.4,1,0.5,2H22z"/>
</g>
<g id="Outline_Icons">
	<g>
		<line class="st2" x1="8" y1="17.5" x2="15.5" y2="17.5"/>
		<line class="st2" x1="18.5" y1="21.5" x2="14.3" y2="21.5"/>
		<line class="st3" x1="12" y1="5.5" x2="14" y2="5.5"/>
		<line class="st3" x1="13" y1="7.5" x2="18.5" y2="7.5"/>
		<line class="st3" x1="11.5" y1="9.5" x2="18" y2="9.5"/>
		<line class="st3" x1="11.5" y1="11.5" x2="18.5" y2="11.5"/>
		<line class="st3" x1="11.5" y1="13.5" x2="17.5" y2="13.5"/>
		<line class="st3" x1="11" y1="15.5" x2="18" y2="15.5"/>
		<line class="st2" x1="10" y1="1.5" x2="22.5" y2="1.5"/>
		<path class="st2" d="M10,1.5C9,1.5,9,3,9,3s0.1,8.9-1,14.5c0,0-2.5,0-5,0s0.5,6-3,6h12.5c3.5,0,0.5-6,3-6s-0.5,4,3,4
			s3-18.5,3-18.5s0-1.5,1-1.5s1,3,1,3h-2"/>
	</g>
</g>
</svg>
