<?xml version="1.0" encoding="utf-8"?>
<!-- Generator: Adobe Illustrator 19.2.0, SVG Export Plug-In . SVG Version: 6.00 Build 0)  -->
<svg version="1.1" id="Layer_1" xmlns="http://www.w3.org/2000/svg" xmlns:xlink="http://www.w3.org/1999/xlink" x="0px" y="0px"
	 viewBox="0 0 24 24" style="enable-background:new 0 0 24 24;" xml:space="preserve">
<style type="text/css">
	.st0{display:none;}
	.st1{display:inline;}
	.st2{fill:none;stroke:#000000;stroke-linecap:round;stroke-linejoin:round;stroke-miterlimit:10;}
</style>
<g id="Filled_Icons" class="st0">
	<g class="st1">
		<path d="M6.5,21C5.1,21,4,19.9,4,18.5v-13C4,4.1,5.1,3,6.5,3h6.8l-1.1,1.1c-0.2,0.2-0.2,0.5,0,0.7C12.2,5,12.4,5,12.5,5
			s0.3,0,0.4-0.1l2-2c0.2-0.2,0.2-0.5,0-0.7l-2-2c-0.2-0.2-0.5-0.2-0.7,0s-0.2,0.5,0,0.7L13.3,2H6.5C4.6,2,3,3.6,3,5.5v13
			C3,20.4,4.6,22,6.5,22C6.8,22,7,21.8,7,21.5S6.8,21,6.5,21z"/>
		<path d="M17.5,2C17.2,2,17,2.2,17,2.5S17.2,3,17.5,3C18.9,3,20,4.1,20,5.5v13c0,1.4-1.1,2.5-2.5,2.5h-6.8l1.1-1.1
			c0.2-0.2,0.2-0.5,0-0.7s-0.5-0.2-0.7,0l-2,2c-0.2,0.2-0.2,0.5,0,0.7l2,2c0.1,0.1,0.2,0.1,0.4,0.1c0.1,0,0.3,0,0.4-0.1
			c0.2-0.2,0.2-0.5,0-0.7L10.7,22h6.8c1.9,0,3.5-1.6,3.5-3.5v-13C21,3.6,19.4,2,17.5,2z"/>
		<path d="M16,17.5v-9C16,8.2,15.8,8,15.5,8H14V6.5C14,6.2,13.8,6,13.5,6h-3C10.2,6,10,6.2,10,6.5V8H8.5C8.2,8,8,8.2,8,8.5v9
			C8,17.8,8.2,18,8.5,18h7C15.8,18,16,17.8,16,17.5z M13.9,12.9l-2.5,2.5c-0.1,0.1-0.2,0.1-0.4,0.1c-0.1,0-0.3,0-0.4-0.1
			c-0.2-0.2-0.2-0.5,0-0.7l1.7-1.7h-1.8c-0.2,0-0.4-0.1-0.5-0.3s0-0.4,0.1-0.5l2.5-2.5c0.2-0.2,0.5-0.2,0.7,0s0.2,0.5,0,0.7L11.7,12
			h1.8c0.2,0,0.4,0.1,0.5,0.3C14,12.5,14,12.7,13.9,12.9z"/>
	</g>
</g>
<g id="Outline_Icons">
	<g>
		<g>
			<path class="st2" d="M6.5,21.5c-1.7,0-3-1.3-3-3v-13c0-1.7,1.3-3,3-3h8"/>
			<path class="st2" d="M17.5,2.5c1.7,0,3,1.3,3,3v13c0,1.7-1.3,3-3,3h-8"/>
			<polyline class="st2" points="12.5,0.5 14.5,2.5 12.5,4.5 			"/>
			<polyline class="st2" points="11.5,19.5 9.5,21.5 11.5,23.5 			"/>
		</g>
		<polygon class="st2" points="8.5,17.5 15.5,17.5 15.5,8.5 13.5,8.5 13.5,6.5 10.5,6.5 10.5,8.5 8.5,8.5 		"/>
		<polyline class="st2" points="13,10 10.5,12.5 13.5,12.5 11,15 		"/>
	</g>
</g>
</svg>
