<?xml version="1.0" encoding="utf-8"?>
<!-- Generator: Adobe Illustrator 19.2.0, SVG Export Plug-In . SVG Version: 6.00 Build 0)  -->
<svg version="1.1" id="Layer_1" xmlns="http://www.w3.org/2000/svg" xmlns:xlink="http://www.w3.org/1999/xlink" x="0px" y="0px"
	 viewBox="0 0 24 24" style="enable-background:new 0 0 24 24;" xml:space="preserve">
<style type="text/css">
	.st0{display:none;}
	.st1{display:inline;}
	.st2{fill:none;stroke:#000000;stroke-linejoin:round;stroke-miterlimit:10;}
	.st3{fill:none;stroke:#000000;stroke-linecap:round;stroke-linejoin:round;stroke-miterlimit:10;}
</style>
<g id="Filled_Icons" class="st0">
	<path class="st1" d="M20.9,4.2l-2-3C18.8,1.1,18.7,1,18.5,1h-13C5.3,1,5.2,1.1,5.1,1.2l-2,3c0,0-0.1,0.2-0.1,0.3l0,0l2,19
		C5,23.8,5.2,24,5.5,24h13c0.3,0,0.5-0.2,0.5-0.4l2-19C21,4.5,21,4.3,20.9,4.2z M10.5,17H7c-0.2,0-0.3-0.1-0.4-0.2
		c-0.1-0.2-0.1-0.3,0-0.5l1.5-2.7l-0.5,0.1C7.3,13.8,7,13.6,7,13.3c-0.1-0.3,0.1-0.5,0.4-0.6l1.5-0.3c0.3-0.1,0.5,0.1,0.6,0.4l0,0
		l0.3,1.5c0.1,0.3-0.2,0.6-0.5,0.6c-0.2,0-0.4-0.2-0.5-0.4v-0.2L7.9,16h2.7c0.3,0,0.5,0.2,0.5,0.5C11,16.8,10.8,17,10.5,17z
		 M11.8,10.2c0-0.3,0.3-0.5,0.6-0.4l0.7,0.1L12,8l-1.5,2.6c-0.1,0.2-0.4,0.3-0.7,0.2c-0.2-0.1-0.3-0.4-0.2-0.7l2-3.3
		c0.2-0.3,0.7-0.3,0.9,0L14,9.3l0.2-0.5c0.1-0.3,0.4-0.4,0.6-0.3c0.2,0,0.3,0.3,0.2,0.6l-0.5,1.6C14.4,10.8,14.2,11,14,11l-1.7-0.2
		C12,10.7,11.8,10.5,11.8,10.2z M17.4,16.8C17.3,16.9,17.2,17,17,17h-2.8l0.3,0.3c0.2,0.2,0.2,0.5,0,0.7c-0.1,0.1-0.2,0.1-0.4,0.1
		c-0.1,0-0.3,0-0.4-0.1l-1.2-1.2c-0.1-0.1-0.1-0.2-0.1-0.4c0-0.1,0.1-0.3,0.1-0.4l1.2-1.2c0.2-0.2,0.5-0.2,0.7,0s0.2,0.5,0,0.7
		L14.2,16h1.9l-1.4-2.7c-0.1-0.2,0-0.5,0.2-0.7c0.2-0.1,0.5,0,0.7,0.2l1.8,3.5C17.5,16.4,17.5,16.6,17.4,16.8z M4.4,4l1.3-2h12.5
		l1.3,2H4.4z"/>
</g>
<g id="Outline_Icons">
	<g>
		<polygon class="st2" points="20.5,4.5 3.5,4.5 5.5,23.5 18.5,23.5 		"/>
		<g>
			<polyline class="st3" points="14.5,8.9 14,10.5 12.3,10.3 			"/>
		</g>
		<g>
			<polyline class="st3" points="7.5,13.2 9,12.9 9.3,14.4 			"/>
		</g>
		<g>
			<g>
				<polyline class="st3" points="14.2,17.7 13,16.5 14.2,15.3 				"/>
			</g>
			<polyline class="st3" points="15.1,13 17,16.5 13,16.5 			"/>
		</g>
		<polyline class="st3" points="10,10.3 12,7 14,10.5 		"/>
		<polyline class="st3" points="10.5,16.5 7,16.5 9,12.9 		"/>
		<polygon class="st3" points="18.5,1.5 5.5,1.5 3.5,4.5 20.5,4.5 		"/>
	</g>
</g>
</svg>
