<?xml version="1.0" encoding="utf-8"?>
<!-- Generator: Adobe Illustrator 19.2.0, SVG Export Plug-In . SVG Version: 6.00 Build 0)  -->
<svg version="1.1" id="Layer_1" xmlns="http://www.w3.org/2000/svg" xmlns:xlink="http://www.w3.org/1999/xlink" x="0px" y="0px"
	 viewBox="0 0 24 24" style="enable-background:new 0 0 24 24;" xml:space="preserve">
<style type="text/css">
	.st0{display:none;}
	.st1{display:inline;}
	.st2{fill:none;stroke:#000000;stroke-linecap:round;stroke-linejoin:round;stroke-miterlimit:10;}
</style>
<g id="Filled_Icons" class="st0">
	<g class="st1">
		<path d="M7.5,6.5C7.8,6.5,8,6.3,8,6V5c0-2.2,1.8-4,4-4s4,1.8,4,4v1c0,0.3,0.2,0.5,0.5,0.5S17,6.3,17,6V5c0-2.8-2.2-5-5-5
			S7,2.2,7,5v1C7,6.3,7.2,6.5,7.5,6.5z"/>
		<path d="M21.5,8h-19C2.2,8,2,8.2,2,8.5v15C2,23.8,2.2,24,2.5,24h19c0.3,0,0.5-0.2,0.5-0.5v-15C22,8.2,21.8,8,21.5,8z M10,21H6.5
			c-0.2,0-0.4-0.1-0.4-0.3c-0.1-0.2-0.1-0.4,0-0.5l2-3.2H7c-0.3,0-0.5-0.2-0.5-0.5S6.7,16,7,16h2c0.2,0,0.4,0.1,0.5,0.4l0,0l0,0
			l0.5,2c0.1,0.3-0.1,0.5-0.4,0.6H9.5c-0.2,0-0.4-0.2-0.5-0.4l-0.2-0.9L7.4,20H10c0.3,0,0.5,0.2,0.5,0.5C10.5,20.7,10.3,21,10,21z
			 M12,14.5c0-0.3,0.2-0.5,0.5-0.5h1.1L12,11.4L10.5,14c-0.1,0.2-0.4,0.3-0.7,0.2c-0.2-0.1-0.3-0.4-0.2-0.7l2-3.3
			c0.1-0.1,0.2-0.2,0.4-0.2s0.3,0.1,0.4,0.2l1.9,3l0.2-0.9c0.1-0.3,0.3-0.4,0.6-0.4c0.3,0.1,0.4,0.3,0.4,0.6l-0.5,2l0,0l0,0
			c-0.1,0.2-0.3,0.4-0.5,0.4l0,0l0,0h-2C12.2,15,12,14.7,12,14.5z M17.9,20.7c-0.1,0.2-0.3,0.2-0.4,0.2h-3.6l0.5,0.7
			c0.2,0.2,0.1,0.5-0.1,0.7c-0.1,0.1-0.2,0.1-0.3,0.1s-0.3-0.1-0.4-0.2l-1.2-1.5l0,0c-0.1-0.2-0.1-0.4,0-0.6l0,0l1.2-1.5
			c0.2-0.2,0.5-0.3,0.7-0.1c0.2,0.2,0.3,0.5,0.1,0.7L13.8,20h2.8l-1.5-2.7c-0.1-0.2,0-0.5,0.2-0.7c0.2-0.1,0.5,0,0.7,0.2l1.8,3.5
			C18,20.4,18,20.6,17.9,20.7z"/>
	</g>
</g>
<g id="Outline_Icons">
	<g>
		<rect x="2.5" y="8.5" class="st2" width="19" height="15"/>
		<path class="st2" d="M7.5,6V5c0-2.5,2-4.5,4.5-4.5s4.5,2,4.5,4.5v1"/>
		<g>
			<polyline class="st2" points="15,12.5 14.5,14.5 12.5,14.5 			"/>
		</g>
		<g>
			<polyline class="st2" points="7,16.5 9,16.5 9.5,18.5 			"/>
		</g>
		<g>
			<g>
				<polyline class="st2" points="14,22 12.8,20.5 14,19 				"/>
			</g>
			<polyline class="st2" points="15.6,17 17.5,20.5 12.8,20.5 			"/>
		</g>
		<polyline class="st2" points="10,13.8 12,10.5 14.5,14.5 		"/>
		<polyline class="st2" points="10,20.5 6.5,20.5 9,16.5 		"/>
	</g>
</g>
</svg>
