<?xml version="1.0" encoding="utf-8"?>
<!-- Generator: Adobe Illustrator 19.2.0, SVG Export Plug-In . SVG Version: 6.00 Build 0)  -->
<svg version="1.1" id="Layer_1" xmlns="http://www.w3.org/2000/svg" xmlns:xlink="http://www.w3.org/1999/xlink" x="0px" y="0px"
	 viewBox="0 0 24 24" style="enable-background:new 0 0 24 24;" xml:space="preserve">
<style type="text/css">
	.st0{display:none;}
	.st1{display:inline;}
	.st2{fill:none;stroke:#000000;stroke-linecap:round;stroke-linejoin:round;stroke-miterlimit:10;}
</style>
<g id="Filled_Icon" class="st0">
	<path class="st1" d="M23,0c-0.6,0-1,0.4-1,1v4.4c-1.8-1.6-4-2.8-6.3-3.3C12.3,1.4,9,2.1,6.3,4c-2.8,2-4.6,4.9-5.1,8.2
		c-0.6,3.3,0.2,6.6,2.2,9.3c0.6,0.8,1.3,1.6,2,2.2c0.2,0.2,0.4,0.2,0.7,0.2c0.3,0,0.6-0.1,0.8-0.3c0.4-0.4,0.3-1-0.1-1.4
		C6,21.6,5.4,21,5,20.3c-1.6-2.3-2.3-5.1-1.8-7.8c0.5-2.8,2-5.2,4.3-6.8c2.2-1.6,5-2.2,7.9-1.6c2.1,0.4,4,1.5,5.6,2.9h-5
		c-0.6,0-1,0.4-1,1s0.4,1,1,1h7c0.6,0,1-0.4,1-1V1C24,0.4,23.6,0,23,0z"/>
</g>
<g id="Outline_Icons">
	<g>
		<polyline class="st2" points="22.5,0.5 22.5,7.5 15.5,7.5 		"/>
		<path class="st2" d="M22.5,7.5c-3.7-5.2-11-6.3-16.1-2.6C1.1,8.5,0,15.7,3.6,20.9c0.7,1,1.6,1.9,2.6,2.6"/>
	</g>
</g>
</svg>
