<?xml version="1.0" encoding="utf-8"?>
<!-- Generator: Adobe Illustrator 19.2.0, SVG Export Plug-In . SVG Version: 6.00 Build 0)  -->
<svg version="1.1" id="Layer_1" xmlns="http://www.w3.org/2000/svg" xmlns:xlink="http://www.w3.org/1999/xlink" x="0px" y="0px"
	 viewBox="0 0 24 24" style="enable-background:new 0 0 24 24;" xml:space="preserve">
<style type="text/css">
	.st0{display:none;}
	.st1{display:inline;}
	.st2{fill:none;stroke:#000000;stroke-linecap:round;stroke-linejoin:round;stroke-miterlimit:10;}
</style>
<g id="Filled_Icon" class="st0">
	<path class="st1" d="M12,0C5.4,0,0,5.4,0,12s5.4,12,12,12s12-5.4,12-12S18.6,0,12,0z M9,7.9l1-5c0-0.2,0.2-0.3,0.4-0.4
		c1.4-0.3,1.8-0.3,3.2,0c0.2,0,0.3,0.2,0.4,0.4l1,4.9c0,0.1,0,0.1,0,0.2c0,0.3-0.2,0.5-0.5,0.5l0,0c-0.1,0-0.2,0-0.2-0.1
		C13.7,8.2,12.9,8,12,8s-1.7,0.2-2.3,0.4c-0.1,0.1-0.4,0.1-0.5,0C9,8.3,9,8.1,9,7.9z M9.9,16.6l-4.8,1.6c-0.1,0-0.1,0-0.2,0
		S4.6,18.1,4.5,18c-1-1.1-1.2-1.4-1.6-2.8c-0.1-0.2,0-0.4,0.1-0.5l4-3.2c0.1-0.1,0.3-0.2,0.5-0.1c0.2,0.1,0.3,0.2,0.3,0.4
		c0.1,1.3,1.2,3.2,2.3,3.9c0.2,0.1,0.2,0.3,0.2,0.5C10.3,16.4,10.1,16.6,9.9,16.6z M9,12c0-1.7,1.3-3,3-3s3,1.3,3,3s-1.3,3-3,3
		S9,13.7,9,12z M19.4,18.1c-0.1,0.1-0.2,0.2-0.4,0.2c-0.1,0-0.1,0-0.2,0L14,16.7c-0.2-0.1-0.3-0.2-0.3-0.4c0-0.2,0.1-0.4,0.2-0.5
		c1.1-0.7,2.2-2.7,2.3-3.9c0-0.2,0.1-0.4,0.3-0.4c0.2-0.1,0.4,0,0.5,0.1l3.8,3.4c0.1,0.1,0.2,0.3,0.1,0.5
		C20.6,16.7,20.4,17.1,19.4,18.1z"/>
</g>
<g id="Outline_Icons">
	<g>
		<circle class="st2" cx="12" cy="12" r="11.5"/>
		<circle class="st2" cx="12" cy="12" r="2.5"/>
		<g>
			<path class="st2" d="M9.5,8c1.3-0.6,3.7-0.6,5,0l-1-5c-1.3-0.3-1.7-0.3-3,0L9.5,8z"/>
		</g>
		<g>
			<path class="st2" d="M9.8,16.2c-1.2-0.8-2.4-2.9-2.5-4.3l-3.8,3.4C3.9,16.5,4,16.8,5,17.8L9.8,16.2z"/>
		</g>
		<g>
			<path class="st2" d="M16.7,11.8c-0.1,1.4-1.3,3.5-2.5,4.3l4.8,1.6c0.9-1,1.1-1.3,1.5-2.6L16.7,11.8z"/>
		</g>
	</g>
</g>
</svg>
