<?xml version="1.0" encoding="utf-8"?>
<!-- Generator: Adobe Illustrator 19.2.0, SVG Export Plug-In . SVG Version: 6.00 Build 0)  -->
<svg version="1.1" id="Layer_1" xmlns="http://www.w3.org/2000/svg" xmlns:xlink="http://www.w3.org/1999/xlink" x="0px" y="0px"
	 viewBox="0 0 24 24" style="enable-background:new 0 0 24 24;" xml:space="preserve">
<style type="text/css">
	.st0{display:none;}
	.st1{display:inline;}
	.st2{fill:none;stroke:#000000;stroke-linecap:round;stroke-linejoin:round;stroke-miterlimit:10;}
</style>
<g id="Filled_Icon" class="st0">
	<g class="st1">
		<path d="M11.5,8C11.8,8,12,8.2,12,8.5v15c0,0.3-0.2,0.5-0.5,0.5c-0.3,0-0.5-0.2-0.5-0.5v-15C11,8.2,11.2,8,11.5,8z"/>
		<path d="M22.1,8.1C22.3,8,22.5,8,22.7,8C22.9,8.1,23,8.3,23,8.5v14c0,0.2-0.1,0.4-0.3,0.5c-0.1,0-0.1,0-0.2,0
			c-0.1,0-0.3,0-0.4-0.1l-7-7c-0.2-0.2-0.2-0.5,0-0.7L22.1,8.1z"/>
		<path d="M0.3,8C0.5,8,0.7,8,0.9,8.1l7,7c0.2,0.2,0.2,0.5,0,0.7l-7,7C0.8,23,0.6,23,0.5,23c-0.1,0-0.1,0-0.2,0
			C0.1,22.9,0,22.7,0,22.5v-14C0,8.3,0.1,8.1,0.3,8z"/>
		<path d="M6,7C6,7,6,7,6,7C5.9,7,5.9,7,5.9,7c0,0-0.2-0.1-0.3-0.2c0,0,0,0,0,0l-2-3C3.4,3.5,3.5,3.2,3.7,3.1C4,2.9,4.3,3,4.4,3.2
			l1.2,1.9C6.3,2.2,8.9,0,12,0c3.6,0,6.5,2.9,6.5,6.5C18.5,6.8,18.3,7,18,7c-0.3,0-0.5-0.2-0.5-0.5C17.5,3.5,15,1,12,1
			C9.4,1,7.2,2.9,6.6,5.3l2.1-1.7c0.2-0.2,0.5-0.1,0.7,0.1c0.2,0.2,0.1,0.5-0.1,0.7l-3,2.5C6.3,6.9,6.1,7,6,7z"/>
	</g>
</g>
<g id="Outline_Icons">
	<g>
		<line class="st2" x1="11.5" y1="8.5" x2="11.5" y2="23.5"/>
		<polygon class="st2" points="22.5,8.5 22.5,22.5 15.5,15.5 		"/>
		<polygon class="st2" points="0.5,8.5 0.5,22.5 7.5,15.5 		"/>
		<path class="st2" d="M18,6.5c0-3.3-2.7-6-6-6c-3.3,0-6,2.7-6,6"/>
		<polyline class="st2" points="4,3.5 6,6.5 9,4 		"/>
	</g>
</g>
</svg>
