<?xml version="1.0" encoding="utf-8"?>
<!-- Generator: Adobe Illustrator 19.2.0, SVG Export Plug-In . SVG Version: 6.00 Build 0)  -->
<svg version="1.1" id="Layer_1" xmlns="http://www.w3.org/2000/svg" xmlns:xlink="http://www.w3.org/1999/xlink" x="0px" y="0px"
	 viewBox="0 0 24 24" style="enable-background:new 0 0 24 24;" xml:space="preserve">
<style type="text/css">
	.st0{display:none;}
	.st1{display:inline;}
	.st2{fill:none;stroke:#000000;stroke-linecap:round;stroke-linejoin:round;stroke-miterlimit:10;}
</style>
<g id="Filled_Icon" class="st0">
	<g class="st1">
		<path d="M11.5,8C11.2,8,11,8.2,11,8.5v15c0,0.3,0.2,0.5,0.5,0.5c0.3,0,0.5-0.2,0.5-0.5v-15C12,8.2,11.8,8,11.5,8z"/>
		<path d="M0.9,8.1C0.7,8,0.5,8,0.3,8C0.1,8.1,0,8.3,0,8.5v14c0,0.2,0.1,0.4,0.3,0.5c0.1,0,0.1,0,0.2,0c0.1,0,0.3,0,0.4-0.1l7-7
			c0.2-0.2,0.2-0.5,0-0.7L0.9,8.1z"/>
		<path d="M22.7,8c-0.2-0.1-0.4,0-0.5,0.1l-7,7c-0.2,0.2-0.2,0.5,0,0.7l7,7c0.1,0.1,0.2,0.1,0.4,0.1c0.1,0,0.1,0,0.2,0
			c0.2-0.1,0.3-0.3,0.3-0.5v-14C23,8.3,22.9,8.1,22.7,8z"/>
		<path d="M17,7c0,0,0.1,0,0.1,0c0,0,0.1,0,0.1,0c0,0,0.1-0.1,0.2-0.1c0,0,0,0,0,0l2-3c0.2-0.2,0.1-0.5-0.1-0.7
			C19,2.9,18.7,3,18.6,3.2l-1.2,1.9C16.7,2.2,14.1,0,11,0C7.4,0,4.5,2.9,4.5,6.5C4.5,6.8,4.7,7,5,7c0.3,0,0.5-0.2,0.5-0.5
			C5.5,3.5,8,1,11,1c2.6,0,4.8,1.9,5.4,4.3l-2.1-1.7c-0.2-0.2-0.5-0.1-0.7,0.1c-0.2,0.2-0.1,0.5,0.1,0.7l3,2.5C16.7,6.9,16.9,7,17,7
			z"/>
	</g>
</g>
<g id="Outline_Icons">
	<g>
		<line class="st2" x1="11.5" y1="8.5" x2="11.5" y2="23.5"/>
		<polygon class="st2" points="0.5,8.5 0.5,22.5 7.5,15.5 		"/>
		<polygon class="st2" points="22.5,8.5 22.5,22.5 15.5,15.5 		"/>
		<path class="st2" d="M5,6.5c0-3.3,2.7-6,6-6c3.3,0,6,2.7,6,6"/>
		<polyline class="st2" points="19,3.5 17,6.5 14,4 		"/>
	</g>
</g>
</svg>
