<?xml version="1.0" encoding="utf-8"?>
<!-- Generator: Adobe Illustrator 19.2.0, SVG Export Plug-In . SVG Version: 6.00 Build 0)  -->
<svg version="1.1" id="Layer_1" xmlns="http://www.w3.org/2000/svg" xmlns:xlink="http://www.w3.org/1999/xlink" x="0px" y="0px"
	 viewBox="0 0 24 24" style="enable-background:new 0 0 24 24;" xml:space="preserve">
<style type="text/css">
	.st0{display:none;}
	.st1{display:inline;}
	.st2{fill:none;stroke:#000000;stroke-linecap:round;stroke-linejoin:round;stroke-miterlimit:10;}
</style>
<g id="Filled_Icon" class="st0">
	<g class="st1">
		<circle cx="3.8" cy="2.5" r="1"/>
		<circle cx="6.7" cy="2.5" r="1"/>
		<circle cx="9.5" cy="2.5" r="1"/>
		<circle cx="3.8" cy="22.5" r="1"/>
		<circle cx="6.7" cy="22.5" r="1"/>
		<circle cx="9.5" cy="22.5" r="1"/>
		<circle cx="1" cy="2.5" r="1"/>
		<circle cx="1" cy="5.8" r="1"/>
		<circle cx="1" cy="9.2" r="1"/>
		<circle cx="1" cy="12.5" r="1"/>
		<circle cx="1" cy="15.8" r="1"/>
		<circle cx="1" cy="19.2" r="1"/>
		<circle cx="1" cy="22.5" r="1"/>
		<path d="M14.5,2.5c0,0.6,0.4,1,1,1H22v18h-6.5c-0.6,0-1,0.4-1,1c0,0.6,0.4,1,1,1H23c0.6,0,1-0.4,1-1v-20c0-0.6-0.4-1-1-1h-7.5
			C14.9,1.5,14.5,1.9,14.5,2.5z"/>
		<path d="M13.5,23v-9.5c0-0.6-0.4-1-1-1c-0.6,0-1,0.4-1,1V23c0,0.6,0.4,1,1,1C13.1,24,13.5,23.6,13.5,23z"/>
		<path d="M12.5,8.5c0.6,0,1-0.4,1-1V1c0-0.6-0.4-1-1-1c-0.6,0-1,0.4-1,1v6.5C11.5,8.1,11.9,8.5,12.5,8.5z"/>
		<path d="M5,13.9C5,13.9,5.1,14,5.1,14l4,1c0.5,0.1,1.1-0.2,1.2-0.7c0.1-0.5-0.2-1.1-0.7-1.2l-1.9-0.5c1.3-0.7,2.7-1.1,4.2-1.1
			c2.2,0,4.3,0.8,5.9,2.2c0.4,0.4,1,0.3,1.4-0.1c0.4-0.4,0.3-1-0.1-1.4c-2-1.7-4.6-2.7-7.2-2.7c-1.8,0-3.5,0.4-5,1.2l0.4-1.5
			c0.1-0.5-0.2-1.1-0.7-1.2C6,7.9,5.5,8.3,5.4,8.8l-1,4c0,0.1,0,0.1,0,0.2c0,0,0,0,0,0c0,0,0,0,0,0c0,0,0,0,0,0
			c0,0.2,0.1,0.5,0.2,0.6c0,0,0,0,0,0c0,0,0,0,0,0C4.7,13.8,4.8,13.8,5,13.9C4.9,13.9,5,13.9,5,13.9z"/>
	</g>
</g>
<g id="Outline_Icons">
	<g>
		<polyline class="st2" points="9.9,14 5.9,13 6.8,9 		"/>
		<g>
			<g>
				<path d="M2.5,2C2.2,2,2,2.2,2,2.5C2,2.8,2.2,3,2.5,3C2.8,3,3,2.8,3,2.5C3,2.2,2.8,2,2.5,2L2.5,2z"/>
			</g>
		</g>
		<g>
			<g>
				<path d="M4.5,2C4.2,2,4,2.2,4,2.5C4,2.8,4.2,3,4.5,3C4.8,3,5,2.8,5,2.5C5,2.2,4.8,2,4.5,2L4.5,2z"/>
			</g>
		</g>
		<g>
			<g>
				<path d="M6.5,2C6.2,2,6,2.2,6,2.5C6,2.8,6.2,3,6.5,3C6.8,3,7,2.8,7,2.5C7,2.2,6.8,2,6.5,2L6.5,2z"/>
			</g>
		</g>
		<g>
			<g>
				<path d="M8.5,2C8.2,2,8,2.2,8,2.5C8,2.8,8.2,3,8.5,3C8.8,3,9,2.8,9,2.5C9,2.2,8.8,2,8.5,2L8.5,2z"/>
			</g>
		</g>
		<g>
			<g>
				<path d="M2.5,22C2.2,22,2,22.2,2,22.5C2,22.8,2.2,23,2.5,23C2.8,23,3,22.8,3,22.5C3,22.2,2.8,22,2.5,22L2.5,22z"/>
			</g>
		</g>
		<g>
			<g>
				<path d="M4.5,22C4.2,22,4,22.2,4,22.5C4,22.8,4.2,23,4.5,23C4.8,23,5,22.8,5,22.5C5,22.2,4.8,22,4.5,22L4.5,22z"/>
			</g>
		</g>
		<g>
			<g>
				<path d="M6.5,22C6.2,22,6,22.2,6,22.5C6,22.8,6.2,23,6.5,23C6.8,23,7,22.8,7,22.5C7,22.2,6.8,22,6.5,22L6.5,22z"/>
			</g>
		</g>
		<g>
			<g>
				<path d="M8.5,22C8.2,22,8,22.2,8,22.5C8,22.8,8.2,23,8.5,23C8.8,23,9,22.8,9,22.5C9,22.2,8.8,22,8.5,22L8.5,22z"/>
			</g>
		</g>
		<g>
			<g>
				<path d="M10.5,2C10.2,2,10,2.2,10,2.5C10,2.8,10.2,3,10.5,3C10.8,3,11,2.8,11,2.5C11,2.2,10.8,2,10.5,2L10.5,2z"/>
			</g>
		</g>
		<g>
			<g>
				<path d="M10.5,22c-0.3,0-0.5,0.2-0.5,0.5c0,0.3,0.2,0.5,0.5,0.5c0.3,0,0.5-0.2,0.5-0.5C11,22.2,10.8,22,10.5,22L10.5,22z"/>
			</g>
		</g>
		<g>
			<g>
				<path d="M0.5,2C0.2,2,0,2.2,0,2.5C0,2.8,0.2,3,0.5,3C0.8,3,1,2.8,1,2.5C1,2.2,0.8,2,0.5,2L0.5,2z"/>
			</g>
		</g>
		<g>
			<g>
				<path d="M0.5,4C0.2,4,0,4.2,0,4.5C0,4.8,0.2,5,0.5,5C0.8,5,1,4.8,1,4.5C1,4.2,0.8,4,0.5,4L0.5,4z"/>
			</g>
		</g>
		<g>
			<g>
				<path d="M0.5,6C0.2,6,0,6.2,0,6.5C0,6.8,0.2,7,0.5,7C0.8,7,1,6.8,1,6.5C1,6.2,0.8,6,0.5,6L0.5,6z"/>
			</g>
		</g>
		<g>
			<g>
				<path d="M0.5,8C0.2,8,0,8.2,0,8.5C0,8.8,0.2,9,0.5,9C0.8,9,1,8.8,1,8.5C1,8.2,0.8,8,0.5,8L0.5,8z"/>
			</g>
		</g>
		<g>
			<g>
				<path d="M0.5,10C0.2,10,0,10.2,0,10.5C0,10.8,0.2,11,0.5,11C0.8,11,1,10.8,1,10.5C1,10.2,0.8,10,0.5,10L0.5,10z"/>
			</g>
		</g>
		<g>
			<g>
				<path d="M0.5,12C0.2,12,0,12.2,0,12.5C0,12.8,0.2,13,0.5,13C0.8,13,1,12.8,1,12.5C1,12.2,0.8,12,0.5,12L0.5,12z"/>
			</g>
		</g>
		<g>
			<g>
				<path d="M0.5,14C0.2,14,0,14.2,0,14.5C0,14.8,0.2,15,0.5,15C0.8,15,1,14.8,1,14.5C1,14.2,0.8,14,0.5,14L0.5,14z"/>
			</g>
		</g>
		<g>
			<g>
				<path d="M0.5,16C0.2,16,0,16.2,0,16.5C0,16.8,0.2,17,0.5,17C0.8,17,1,16.8,1,16.5C1,16.2,0.8,16,0.5,16L0.5,16z"/>
			</g>
		</g>
		<g>
			<g>
				<path d="M0.5,18C0.2,18,0,18.2,0,18.5C0,18.8,0.2,19,0.5,19C0.8,19,1,18.8,1,18.5C1,18.2,0.8,18,0.5,18L0.5,18z"/>
			</g>
		</g>
		<g>
			<g>
				<path d="M0.5,20C0.2,20,0,20.2,0,20.5C0,20.8,0.2,21,0.5,21C0.8,21,1,20.8,1,20.5C1,20.2,0.8,20,0.5,20L0.5,20z"/>
			</g>
		</g>
		<g>
			<g>
				<path d="M0.5,22C0.2,22,0,22.2,0,22.5C0,22.8,0.2,23,0.5,23C0.8,23,1,22.8,1,22.5C1,22.2,0.8,22,0.5,22L0.5,22z"/>
			</g>
		</g>
		<polyline class="st2" points="14.5,22.5 23.5,22.5 23.5,2.5 14.5,2.5 		"/>
		<line class="st2" x1="12.5" y1="13.5" x2="12.5" y2="23.5"/>
		<line class="st2" x1="12.5" y1="0.5" x2="12.5" y2="7.5"/>
		<path class="st2" d="M5.9,13c1.8-1.6,4.1-2.5,6.6-2.5c2.5,0,4.8,0.9,6.6,2.5"/>
	</g>
</g>
</svg>
