<?xml version="1.0" encoding="utf-8"?>
<!-- Generator: Adobe Illustrator 19.2.0, SVG Export Plug-In . SVG Version: 6.00 Build 0)  -->
<svg version="1.1" id="Layer_1" xmlns="http://www.w3.org/2000/svg" xmlns:xlink="http://www.w3.org/1999/xlink" x="0px" y="0px"
	 viewBox="0 0 24 24" style="enable-background:new 0 0 24 24;" xml:space="preserve">
<style type="text/css">
	.st0{display:none;}
	.st1{display:inline;}
	.st2{fill:none;stroke:#000000;stroke-linecap:round;stroke-linejoin:round;stroke-miterlimit:10;}
</style>
<g id="Filled_Icon" class="st0">
	<g class="st1">
		<circle cx="20.2" cy="2.5" r="1"/>
		<circle cx="17.3" cy="2.5" r="1"/>
		<circle cx="14.5" cy="2.5" r="1"/>
		<circle cx="20.2" cy="22.5" r="1"/>
		<circle cx="17.3" cy="22.5" r="1"/>
		<circle cx="14.5" cy="22.5" r="1"/>
		<circle cx="23" cy="2.5" r="1"/>
		<circle cx="23" cy="5.8" r="1"/>
		<circle cx="23" cy="9.2" r="1"/>
		<circle cx="23" cy="12.5" r="1"/>
		<circle cx="23" cy="15.8" r="1"/>
		<circle cx="23" cy="19.2" r="1"/>
		<circle cx="23" cy="22.5" r="1"/>
		<path d="M9.5,2.5c0,0.6-0.4,1-1,1H2v18h6.5c0.6,0,1,0.4,1,1c0,0.6-0.4,1-1,1H1c-0.6,0-1-0.4-1-1v-20c0-0.6,0.4-1,1-1h7.5
			C9.1,1.5,9.5,1.9,9.5,2.5z"/>
		<path d="M10.5,23v-9.5c0-0.6,0.4-1,1-1c0.6,0,1,0.4,1,1V23c0,0.6-0.4,1-1,1C10.9,24,10.5,23.6,10.5,23z"/>
		<path d="M11.5,8.5c-0.6,0-1-0.4-1-1V1c0-0.6,0.4-1,1-1c0.6,0,1,0.4,1,1v6.5C12.5,8.1,12.1,8.5,11.5,8.5z"/>
		<path d="M19,13.9c-0.1,0-0.1,0.1-0.2,0.1l-4,1c-0.5,0.1-1.1-0.2-1.2-0.7c-0.1-0.5,0.2-1.1,0.7-1.2l1.9-0.5
			c-1.3-0.7-2.7-1.1-4.2-1.1c-2.2,0-4.3,0.8-5.9,2.2c-0.4,0.4-1,0.3-1.4-0.1c-0.4-0.4-0.3-1,0.1-1.4c2-1.7,4.6-2.7,7.2-2.7
			c1.8,0,3.5,0.4,5,1.2l-0.4-1.5c-0.1-0.5,0.2-1.1,0.7-1.2c0.5-0.1,1.1,0.2,1.2,0.7l1,4c0,0.1,0,0.1,0,0.2c0,0,0,0,0,0c0,0,0,0,0,0
			c0,0,0,0,0,0c0,0.2-0.1,0.5-0.2,0.6c0,0,0,0,0,0c0,0,0,0,0,0C19.3,13.8,19.2,13.8,19,13.9C19.1,13.9,19,13.9,19,13.9z"/>
	</g>
</g>
<g id="Outline_Icons">
	<g>
		<polyline class="st2" points="14.1,14 18.1,13 17.2,9 		"/>
		<g>
			<g>
				<path d="M21.5,2C21.2,2,21,2.2,21,2.5C21,2.8,21.2,3,21.5,3C21.8,3,22,2.8,22,2.5C22,2.2,21.8,2,21.5,2L21.5,2z"/>
			</g>
		</g>
		<g>
			<g>
				<path d="M19.5,2C19.2,2,19,2.2,19,2.5C19,2.8,19.2,3,19.5,3C19.8,3,20,2.8,20,2.5C20,2.2,19.8,2,19.5,2L19.5,2z"/>
			</g>
		</g>
		<g>
			<g>
				<path d="M17.5,2C17.2,2,17,2.2,17,2.5C17,2.8,17.2,3,17.5,3C17.8,3,18,2.8,18,2.5C18,2.2,17.8,2,17.5,2L17.5,2z"/>
			</g>
		</g>
		<g>
			<g>
				<path d="M15.5,2C15.2,2,15,2.2,15,2.5C15,2.8,15.2,3,15.5,3C15.8,3,16,2.8,16,2.5C16,2.2,15.8,2,15.5,2L15.5,2z"/>
			</g>
		</g>
		<g>
			<g>
				<path d="M21.5,22c-0.3,0-0.5,0.2-0.5,0.5c0,0.3,0.2,0.5,0.5,0.5c0.3,0,0.5-0.2,0.5-0.5C22,22.2,21.8,22,21.5,22L21.5,22z"/>
			</g>
		</g>
		<g>
			<g>
				<path d="M19.5,22c-0.3,0-0.5,0.2-0.5,0.5c0,0.3,0.2,0.5,0.5,0.5c0.3,0,0.5-0.2,0.5-0.5C20,22.2,19.8,22,19.5,22L19.5,22z"/>
			</g>
		</g>
		<g>
			<g>
				<path d="M17.5,22c-0.3,0-0.5,0.2-0.5,0.5c0,0.3,0.2,0.5,0.5,0.5c0.3,0,0.5-0.2,0.5-0.5C18,22.2,17.8,22,17.5,22L17.5,22z"/>
			</g>
		</g>
		<g>
			<g>
				<path d="M15.5,22c-0.3,0-0.5,0.2-0.5,0.5c0,0.3,0.2,0.5,0.5,0.5c0.3,0,0.5-0.2,0.5-0.5C16,22.2,15.8,22,15.5,22L15.5,22z"/>
			</g>
		</g>
		<g>
			<g>
				<path d="M13.5,2C13.2,2,13,2.2,13,2.5C13,2.8,13.2,3,13.5,3C13.8,3,14,2.8,14,2.5C14,2.2,13.8,2,13.5,2L13.5,2z"/>
			</g>
		</g>
		<g>
			<g>
				<path d="M13.5,22c-0.3,0-0.5,0.2-0.5,0.5c0,0.3,0.2,0.5,0.5,0.5c0.3,0,0.5-0.2,0.5-0.5C14,22.2,13.8,22,13.5,22L13.5,22z"/>
			</g>
		</g>
		<g>
			<g>
				<path d="M23.5,2C23.2,2,23,2.2,23,2.5C23,2.8,23.2,3,23.5,3C23.8,3,24,2.8,24,2.5C24,2.2,23.8,2,23.5,2L23.5,2z"/>
			</g>
		</g>
		<g>
			<g>
				<path d="M23.5,4C23.2,4,23,4.2,23,4.5C23,4.8,23.2,5,23.5,5C23.8,5,24,4.8,24,4.5C24,4.2,23.8,4,23.5,4L23.5,4z"/>
			</g>
		</g>
		<g>
			<g>
				<path d="M23.5,6C23.2,6,23,6.2,23,6.5C23,6.8,23.2,7,23.5,7C23.8,7,24,6.8,24,6.5C24,6.2,23.8,6,23.5,6L23.5,6z"/>
			</g>
		</g>
		<g>
			<g>
				<path d="M23.5,8C23.2,8,23,8.2,23,8.5C23,8.8,23.2,9,23.5,9C23.8,9,24,8.8,24,8.5C24,8.2,23.8,8,23.5,8L23.5,8z"/>
			</g>
		</g>
		<g>
			<g>
				<path d="M23.5,10c-0.3,0-0.5,0.2-0.5,0.5c0,0.3,0.2,0.5,0.5,0.5c0.3,0,0.5-0.2,0.5-0.5C24,10.2,23.8,10,23.5,10L23.5,10z"/>
			</g>
		</g>
		<g>
			<g>
				<path d="M23.5,12c-0.3,0-0.5,0.2-0.5,0.5c0,0.3,0.2,0.5,0.5,0.5c0.3,0,0.5-0.2,0.5-0.5C24,12.2,23.8,12,23.5,12L23.5,12z"/>
			</g>
		</g>
		<g>
			<g>
				<path d="M23.5,14c-0.3,0-0.5,0.2-0.5,0.5c0,0.3,0.2,0.5,0.5,0.5c0.3,0,0.5-0.2,0.5-0.5C24,14.2,23.8,14,23.5,14L23.5,14z"/>
			</g>
		</g>
		<g>
			<g>
				<path d="M23.5,16c-0.3,0-0.5,0.2-0.5,0.5c0,0.3,0.2,0.5,0.5,0.5c0.3,0,0.5-0.2,0.5-0.5C24,16.2,23.8,16,23.5,16L23.5,16z"/>
			</g>
		</g>
		<g>
			<g>
				<path d="M23.5,18c-0.3,0-0.5,0.2-0.5,0.5c0,0.3,0.2,0.5,0.5,0.5c0.3,0,0.5-0.2,0.5-0.5C24,18.2,23.8,18,23.5,18L23.5,18z"/>
			</g>
		</g>
		<g>
			<g>
				<path d="M23.5,20c-0.3,0-0.5,0.2-0.5,0.5c0,0.3,0.2,0.5,0.5,0.5c0.3,0,0.5-0.2,0.5-0.5C24,20.2,23.8,20,23.5,20L23.5,20z"/>
			</g>
		</g>
		<g>
			<g>
				<path d="M23.5,22c-0.3,0-0.5,0.2-0.5,0.5c0,0.3,0.2,0.5,0.5,0.5c0.3,0,0.5-0.2,0.5-0.5C24,22.2,23.8,22,23.5,22L23.5,22z"/>
			</g>
		</g>
		<polyline class="st2" points="9.5,22.5 0.5,22.5 0.5,2.5 9.5,2.5 		"/>
		<line class="st2" x1="11.5" y1="13.5" x2="11.5" y2="23.5"/>
		<line class="st2" x1="11.5" y1="0.5" x2="11.5" y2="7.5"/>
		<path class="st2" d="M18.1,13c-1.8-1.6-4.1-2.5-6.6-2.5c-2.5,0-4.8,0.9-6.6,2.5"/>
	</g>
</g>
</svg>
