<?xml version="1.0" encoding="utf-8"?>
<!-- Generator: Adobe Illustrator 19.2.0, SVG Export Plug-In . SVG Version: 6.00 Build 0)  -->
<svg version="1.1" id="Layer_1" xmlns="http://www.w3.org/2000/svg" xmlns:xlink="http://www.w3.org/1999/xlink" x="0px" y="0px"
	 viewBox="0 0 24 24" style="enable-background:new 0 0 24 24;" xml:space="preserve">
<style type="text/css">
	.st0{display:none;}
	.st1{display:inline;}
	.st2{fill:none;stroke:#000000;stroke-linejoin:round;stroke-miterlimit:10;}
</style>
<g id="Filled_Icons" class="st0">
	<g class="st1">
		<path d="M21,8V2.5C21,1.1,19.9,0,18.5,0h-13C4.1,0,3,1.1,3,2.5V8H21z M6,3.5C6,3.2,6.2,3,6.5,3S7,3.2,7,3.5v2C7,5.8,6.8,6,6.5,6
			S6,5.8,6,5.5V3.5z"/>
		<path d="M3,9v11.5C3,21.9,4.1,23,5.5,23H6v1h1v-1h10v1h1v-1h0.5c1.4,0,2.5-1.1,2.5-2.5V9C21,9,3,9,3,9z M7,15.5
			C7,15.8,6.8,16,6.5,16S6,15.8,6,15.5v-5C6,10.2,6.2,10,6.5,10S7,10.2,7,10.5V15.5z"/>
	</g>
</g>
<g id="Outline_Icons">
	<g>
		<path class="st2" d="M3.5,2.5c0-1.1,0.9-2,2-2h13c1.1,0,2,0.9,2,2v18c0,1.1-0.9,2-2,2h-13c-1.1,0-2-0.9-2-2V2.5z"/>
		<line class="st2" x1="6.5" y1="24" x2="6.5" y2="22.5"/>
		<line class="st2" x1="17.5" y1="24" x2="17.5" y2="22.5"/>
		<line class="st2" x1="3.5" y1="8.5" x2="20.5" y2="8.5"/>
		<line class="st2" x1="6.5" y1="3" x2="6.5" y2="6"/>
		<line class="st2" x1="6.5" y1="10" x2="6.5" y2="16"/>
	</g>
</g>
</svg>
