<?xml version="1.0" encoding="utf-8"?>
<!-- Generator: Adobe Illustrator 19.2.0, SVG Export Plug-In . SVG Version: 6.00 Build 0)  -->
<svg version="1.1" id="Layer_1" xmlns="http://www.w3.org/2000/svg" xmlns:xlink="http://www.w3.org/1999/xlink" x="0px" y="0px"
	 viewBox="0 0 24 24" style="enable-background:new 0 0 24 24;" xml:space="preserve">
<style type="text/css">
	.st0{display:none;}
	.st1{display:inline;}
	.st2{fill:none;stroke:#000000;stroke-linecap:round;stroke-linejoin:round;stroke-miterlimit:10;}
</style>
<g id="Filled_Icons" class="st0">
	<g class="st1">
		<path d="M4,8.7C4.2,8.9,4.5,9,4.7,9C5,9,5.3,8.9,5.5,8.7c0.4-0.4,0.4-1,0-1.4L3.5,5.5H21v6c0,0.6,0.4,1,1,1c0.6,0,1-0.4,1-1v-7
			c0-0.6-0.4-1-1-1H3.6l1.9-1.8c0.4-0.4,0.4-1,0-1.4c-0.4-0.4-1-0.4-1.4,0L0.3,3.8c0,0,0,0,0,0C0.2,3.9,0.2,3.9,0.1,4c0,0,0,0,0,0.1
			C0.1,4.2,0,4.3,0,4.4c0,0,0,0,0,0.1v0c0,0,0,0,0,0c0,0.1,0,0.3,0.1,0.4c0,0,0,0,0,0.1C0.2,5,0.2,5.1,0.3,5.2c0,0,0,0,0,0L4,8.7z"
			/>
		<path d="M23.9,19.9C23.9,19.9,23.9,19.9,23.9,19.9c0.1-0.2,0.1-0.3,0.1-0.4c0-0.1,0-0.3-0.1-0.4c0,0,0,0,0,0
			c-0.1-0.1-0.1-0.2-0.2-0.3c0,0,0,0,0,0L20,15.3c-0.4-0.4-1-0.4-1.4,0c-0.4,0.4-0.4,1,0,1.4l1.8,1.7H3v-5.9c0-0.6-0.4-1-1-1
			c-0.6,0-1,0.4-1,1v6.9c0,0.6,0.4,1,1,1h18.5l-1.8,1.7c-0.4,0.4-0.4,1,0,1.4c0.2,0.2,0.5,0.3,0.7,0.3c0.2,0,0.5-0.1,0.7-0.3
			l3.7-3.5c0,0,0,0,0,0C23.8,20.1,23.8,20,23.9,19.9z"/>
		<path d="M12.5,17.5c0.6,0,1-0.4,1-1V7.6c0-0.4-0.2-0.8-0.6-0.9c-0.4-0.2-0.8-0.1-1.1,0.2l-3,2.9c-0.4,0.4-0.4,1,0,1.4
			c0.4,0.4,1,0.4,1.4,0l1.3-1.2v6.5C11.5,17.1,11.9,17.5,12.5,17.5z"/>
	</g>
</g>
<g id="Outline_Icons">
	<g>
		<g>
			<polyline class="st2" points="0.5,4.5 21.5,4.5 21.5,11.5 			"/>
			<polyline class="st2" points="4.8,8.5 0.5,4.5 4.8,0.5 			"/>
		</g>
		<g>
			<polyline class="st2" points="23.5,19.5 2.5,19.5 2.5,12.6 			"/>
			<polyline class="st2" points="19.2,15.5 23.5,19.5 19.2,23.5 			"/>
		</g>
	</g>
	<g>
		<g>
			<polyline class="st2" points="0.5,4.5 21.5,4.5 21.5,11.5 			"/>
			<polyline class="st2" points="4.8,8.5 0.5,4.5 4.8,0.5 			"/>
		</g>
		<g>
			<polyline class="st2" points="23.5,19.5 2.5,19.5 2.5,12.6 			"/>
			<polyline class="st2" points="19.2,15.5 23.5,19.5 19.2,23.5 			"/>
		</g>
		<polyline class="st2" points="9.5,10.5 12.5,7.6 12.5,16.5 		"/>
	</g>
</g>
</svg>
