<?xml version="1.0" encoding="utf-8"?>
<!-- Generator: Adobe Illustrator 19.2.0, SVG Export Plug-In . SVG Version: 6.00 Build 0)  -->
<svg version="1.1" id="Layer_1" xmlns="http://www.w3.org/2000/svg" xmlns:xlink="http://www.w3.org/1999/xlink" x="0px" y="0px"
	 viewBox="0 0 24 24" style="enable-background:new 0 0 24 24;" xml:space="preserve">
<style type="text/css">
	.st0{display:none;}
	.st1{display:inline;}
	.st2{fill:none;stroke:#000000;stroke-linecap:round;stroke-linejoin:round;stroke-miterlimit:10;}
	.st3{fill:none;stroke:#000000;stroke-linejoin:round;stroke-miterlimit:10;}
</style>
<g id="Filled_Icons" class="st0">
	<g class="st1">
		<path d="M21.7,0.6c-0.2-0.1-0.4-0.1-0.5,0c-1.8,1.2-3.2,1.8-4.7,1.8c-1.8,0-3.5-0.8-4.6-2.2c-0.2-0.2-0.6-0.2-0.8,0
			C10,1.6,8.3,2.4,6.5,2.4c-1.5,0-3-0.5-4.7-1.8c-0.2-0.1-0.4-0.1-0.5,0C1.1,0.6,1,0.8,1,1v14.8c0,0,0,0.1,0,0.1
			c0.1,0.2,1.6,5.6,10.3,8c0,0,0.1,0,0.1,0c0,0,0.1,0,0.1,0c8.7-2.4,10.3-7.8,10.3-8c0,0,0-0.1,0-0.1V1C22,0.8,21.9,0.6,21.7,0.6z
			 M19,15.5c0,0.1,0,0.1,0,0.2c-0.1,0.1-1.6,3.7-7.3,5.3c0,0-0.1,0-0.1,0c0,0-0.1,0-0.1,0c-5.7-1.6-7.3-5.1-7.3-5.3
			c0-0.1,0-0.1,0-0.2V4.8c0-0.2,0.1-0.3,0.2-0.4c0.1-0.1,0.3-0.1,0.5-0.1C4.8,4.4,5,4.5,5.2,4.6C6,5,7.2,5.5,8.4,5.5
			c1.1,0,2-0.5,2.7-1.4c0.2-0.2,0.6-0.2,0.8,0c0.7,0.9,1.7,1.4,2.9,1.4c1.4,0,2.9-0.7,3.4-1.1c0.2-0.1,0.4-0.1,0.5,0
			C18.9,4.5,19,4.7,19,4.8V15.5z"/>
		<path d="M14.5,10H13V8.5C13,8.2,12.8,8,12.5,8h-2C10.2,8,10,8.2,10,8.5V10H8.5C8.2,10,8,10.2,8,10.5v2C8,12.7,8.2,13,8.5,13H10
			v4.5c0,0.3,0.2,0.5,0.5,0.5h2c0.3,0,0.5-0.2,0.5-0.5V13h1.5c0.3,0,0.5-0.2,0.5-0.5v-2C15,10.2,14.8,10,14.5,10z"/>
	</g>
</g>
<g id="Outline_Icons">
	<g>
		<path class="st2" d="M16.5,2.9c-2,0-3.8-0.9-5-2.4h0c-1.2,1.5-3,2.4-5,2.4c-1.8,0-3.4-0.7-5-1.9v14.8c0,0,1.5,5.3,10,7.7
			c8.5-2.4,10-7.7,10-7.7V1C19.8,2.2,18.2,2.9,16.5,2.9z"/>
		<path class="st2" d="M11.5,4.5L11.5,4.5c-2.4,3.1-6,0.8-7,0.4v10.6c0,0,1.4,3.4,7,5c5.6-1.6,7-5,7-5V4.8
			C17.5,5.6,13.7,7.3,11.5,4.5z"/>
		<polygon class="st3" points="14.5,10.5 12.5,10.5 12.5,8.5 10.5,8.5 10.5,10.5 8.5,10.5 8.5,12.5 10.5,12.5 10.5,17.5 12.5,17.5 
			12.5,12.5 14.5,12.5 		"/>
	</g>
</g>
</svg>
