<?xml version="1.0" encoding="utf-8"?>
<!-- Generator: Adobe Illustrator 19.2.0, SVG Export Plug-In . SVG Version: 6.00 Build 0)  -->
<svg version="1.1" id="Layer_1" xmlns="http://www.w3.org/2000/svg" xmlns:xlink="http://www.w3.org/1999/xlink" x="0px" y="0px"
	 viewBox="0 0 24 24" style="enable-background:new 0 0 24 24;" xml:space="preserve">
<style type="text/css">
	.st0{display:none;}
	.st1{display:inline;}
	.st2{fill:none;stroke:#000000;stroke-linejoin:round;stroke-miterlimit:10;}
</style>
<g id="Filled_Icons" class="st0">
	<path class="st1" d="M23.8,7.5l-6.2-7.2C17.3,0.1,17.1,0,16.8,0H7.2C7,0,6.7,0.1,6.5,0.4L0.2,7.5C0.1,7.7,0,7.9,0,8.2v8.6
		c0,0.3,0.1,0.5,0.3,0.7l6.2,6.2C6.7,23.9,7,24,7.2,24h9.5c0.3,0,0.5-0.1,0.7-0.3l6.2-6.2c0.2-0.2,0.3-0.4,0.3-0.7V8.2
		C24,7.9,23.9,7.7,23.8,7.5z M15.3,9.8l-0.9-1l0.9-2l2,2.2L15.3,9.8z M11.1,14L10,12.9v-1.6l1.2-1.3h1.7l1.2,1.3v1.6L12.9,14
		L11.1,14L11.1,14z M12.6,8h-1.3l-0.9-2h3L12.6,8z M9.5,8.8l-0.9,1l-2-0.7l2-2.2L9.5,8.8z M8,11.7v1l-2,0.9V11L8,11.7z M8.8,14.5
		l0.7,0.7l-0.9,2l-1.9-1.9L8.8,14.5z M11.4,16h1.3l0.9,2h-3L11.4,16z M14.5,15.2l0.7-0.7l2,0.9l-1.9,1.9L14.5,15.2z M16,12.7v-1
		l2-0.7v2.5L16,12.7z M19.3,8.4l-3.1-3.6l0.9-2l4.2,4.9L19.3,8.4z M14.4,4H9.6L8.7,2h6.5L14.4,4z M7.8,4.8L4.7,8.4l-2-0.7l4.2-4.8
		L7.8,4.8z M4,10.3v4.1l-2,0.9V9.6L4,10.3z M4.8,16.2l3,3l-0.9,2l-4.1-4.1L4.8,16.2z M9.6,20h4.8l0.9,2H8.7L9.6,20z M16.2,19.2l3-3
		l2,0.9l-4.1,4.2L16.2,19.2z M20,14.4v-4.1l2-0.7v5.7L20,14.4z"/>
</g>
<g id="Outline_Icons">
	<g>
		<polygon class="st2" points="7,23.5 0.5,17 0.5,8 7,0.5 17,0.5 23.5,8 23.5,17 17,23.5 		"/>
		<polygon class="st2" points="8.8,19.5 4.5,15.3 4.5,9.4 8.8,4.5 15.2,4.5 19.5,9.4 19.5,15.3 15.2,19.5 		"/>
		<polygon class="st2" points="10.5,15.5 8.5,13.5 8.5,10.8 10.5,8.5 13.5,8.5 15.5,10.8 15.5,13.5 13.5,15.5 		"/>
		<line class="st2" x1="13.5" y1="8.5" x2="17" y2="0.5"/>
		<line class="st2" x1="10.5" y1="8.5" x2="7" y2="0.5"/>
		<line class="st2" x1="13.5" y1="15.5" x2="17" y2="23.5"/>
		<line class="st2" x1="10.5" y1="15.5" x2="7" y2="23.5"/>
		<line class="st2" x1="15.5" y1="10.8" x2="23.5" y2="8"/>
		<line class="st2" x1="15.5" y1="13.5" x2="23.5" y2="17"/>
		<line class="st2" x1="8.5" y1="10.8" x2="0.5" y2="8"/>
		<line class="st2" x1="8.5" y1="13.5" x2="0.5" y2="17"/>
	</g>
</g>
</svg>
