<?xml version="1.0" encoding="utf-8"?>
<!-- Generator: Adobe Illustrator 19.2.0, SVG Export Plug-In . SVG Version: 6.00 Build 0)  -->
<svg version="1.1" id="Layer_1" xmlns="http://www.w3.org/2000/svg" xmlns:xlink="http://www.w3.org/1999/xlink" x="0px" y="0px"
	 viewBox="0 0 24 24" style="enable-background:new 0 0 24 24;" xml:space="preserve">
<style type="text/css">
	.st0{display:none;}
	.st1{display:inline;}
	.st2{fill:none;stroke:#000000;stroke-linecap:round;stroke-linejoin:round;stroke-miterlimit:10;}
</style>
<g id="Filled_Icons" class="st0">
	<path class="st1" d="M21.7,0.6c-0.2-0.1-0.4-0.1-0.5,0c-1.8,1.2-3.2,1.8-4.7,1.8c-1.8,0-3.5-0.8-4.6-2.2c-0.2-0.2-0.6-0.2-0.8,0
		C10,1.6,8.3,2.4,6.5,2.4c-1.5,0-3-0.5-4.7-1.8c-0.2-0.1-0.4-0.1-0.5,0C1.1,0.7,1,0.8,1,1v14.8c0,0,0,0.1,0,0.1
		c0.1,0.2,1.6,5.6,10.3,8c0,0,0.1,0,0.1,0c0,0,0.1,0,0.1,0c8.7-2.4,10.3-7.8,10.3-8c0,0,0-0.1,0-0.1V1C22,0.8,21.9,0.7,21.7,0.6z
		 M19,14.5c0,0.2-0.1,0.3-0.2,0.4C18.7,15,18.5,15,18.4,15c-1.5-0.5-3.3-0.8-5.3-0.9c0.1,1.9,0.4,3.7,0.8,5.1
		c0.1,0.1,0.1,0.2,0.1,0.3c0,0.3-0.2,0.5-0.5,0.5c0,0,0,0,0,0h-4c-0.2,0-0.3-0.1-0.4-0.2C9,19.6,9,19.5,9,19.3
		c0.5-1.5,0.8-3.3,0.9-5.3c-2,0.1-3.8,0.4-5.3,0.9c-0.2,0.1-0.3,0-0.4-0.1C4.1,14.8,4,14.6,4,14.5v-4c0-0.2,0.1-0.3,0.2-0.4
		C4.3,10,4.5,10,4.7,10c1.5,0.5,3.3,0.8,5.3,0.9C9.8,8.9,9.5,7.1,9,5.6c0-0.2,0-0.3,0.1-0.5C9.2,5.1,9.3,5,9.5,5h4
		c0.2,0,0.3,0.1,0.4,0.2C14,5.3,14,5.5,14,5.6c-0.5,1.5-0.8,3.3-0.9,5.3c2-0.1,3.8-0.4,5.2-0.9c0.2-0.1,0.3,0,0.5,0.1
		c0.1,0.1,0.2,0.2,0.2,0.4V14.5z"/>
</g>
<g id="Outline_Icons">
	<g>
		<path class="st2" d="M16.5,2.9c-2,0-3.8-0.9-5-2.4h0c-1.2,1.5-3,2.4-5,2.4c-1.8,0-3.4-0.7-5-1.9v14.8c0,0,1.5,5.3,10,7.7
			c8.6-2.4,10-7.7,10-7.7V1C19.8,2.2,18.2,2.9,16.5,2.9z"/>
		<path class="st2" d="M18.5,10.5c-1.7,0.6-3.8,0.9-5.9,1c0.1-2.1,0.4-4.2,0.9-6h-4c0.6,1.7,0.9,3.8,1,6c-2.1-0.1-4.2-0.4-6-1v4
			c1.7-0.6,3.8-0.9,6-0.9c-0.1,2.1-0.4,4.2-1,5.9h4c-0.6-1.7-0.9-3.8-0.9-5.9c2.1,0.1,4.2,0.4,5.9,0.9V10.5z"/>
	</g>
</g>
</svg>
