<?xml version="1.0" encoding="utf-8"?>
<!-- Generator: Adobe Illustrator 19.2.0, SVG Export Plug-In . SVG Version: 6.00 Build 0)  -->
<svg version="1.1" id="Layer_1" xmlns="http://www.w3.org/2000/svg" xmlns:xlink="http://www.w3.org/1999/xlink" x="0px" y="0px"
	 viewBox="0 0 24 24" style="enable-background:new 0 0 24 24;" xml:space="preserve">
<style type="text/css">
	.st0{display:none;}
	.st1{display:inline;}
	.st2{fill:none;stroke:#000000;stroke-linecap:round;stroke-linejoin:round;stroke-miterlimit:10;}
	.st3{fill:none;stroke:#000000;stroke-linejoin:round;stroke-miterlimit:10;}
</style>
<g id="Filled_Icons" class="st0">
	<g class="st1">
		<path d="M4.5,2C4.2,2,4,2.2,4,2.5S4.2,3,4.5,3h15C19.8,3,20,2.8,20,2.5S19.8,2,19.5,2H4.5z"/>
		<path d="M20.5,4h-16C3.7,4,3,3.3,3,2.5S3.7,1,4.5,1h16C20.8,1,21,0.8,21,0.5S20.8,0,20.5,0h-16C3.1,0,2,1.1,2,2.5v19
			C2,22.9,3.1,24,4.5,24h16c0.3,0,0.5-0.2,0.5-0.5v-19C21,4.2,20.8,4,20.5,4z M16,12.5c0,0.3-0.2,0.5-0.5,0.5H13v5.5
			c0,0.3-0.2,0.5-0.5,0.5h-2c-0.3,0-0.5-0.2-0.5-0.5V13H7.5C7.2,13,7,12.8,7,12.5v-2C7,10.2,7.2,10,7.5,10H10V7.5
			C10,7.2,10.2,7,10.5,7h2C12.8,7,13,7.2,13,7.5V10h2.5c0.3,0,0.5,0.2,0.5,0.5V12.5z"/>
	</g>
</g>
<g id="Outline_Icons">
	<g>
		<g>
			<path class="st2" d="M20.5,0.5h-16c-1.1,0-2,0.9-2,2s0.9,2,2,2h16v19h-16c-1.1,0-2-0.9-2-2v-19"/>
			<line class="st2" x1="4.5" y1="2.5" x2="19.5" y2="2.5"/>
		</g>
		<polygon class="st3" points="15.5,10.5 12.5,10.5 12.5,7.5 10.5,7.5 10.5,10.5 7.5,10.5 7.5,12.5 10.5,12.5 10.5,18.5 12.5,18.5 
			12.5,12.5 15.5,12.5 		"/>
	</g>
</g>
</svg>
