<?xml version="1.0" encoding="utf-8"?>
<!-- Generator: Adobe Illustrator 19.2.0, SVG Export Plug-In . SVG Version: 6.00 Build 0)  -->
<svg version="1.1" id="Layer_1" xmlns="http://www.w3.org/2000/svg" xmlns:xlink="http://www.w3.org/1999/xlink" x="0px" y="0px"
	 viewBox="0 0 24 24" style="enable-background:new 0 0 24 24;" xml:space="preserve">
<style type="text/css">
	.st0{display:none;}
	.st1{display:inline;}
	.st2{fill:none;stroke:#000000;stroke-linejoin:round;stroke-miterlimit:10;}
	.st3{fill:none;stroke:#000000;stroke-linecap:round;stroke-linejoin:round;stroke-miterlimit:10;}
</style>
<g id="Filled_Icons" class="st0">
	<g class="st1">
		<path d="M22.3,8.3C22.2,8.1,22.1,8,21.9,8l-3.3-0.5l-1.5-3c-0.1-0.2-0.3-0.3-0.4-0.3s-0.4,0.1-0.4,0.3l-1.5,3L11.4,8
			c-0.2,0-0.3,0.2-0.4,0.3c-0.1,0.2,0,0.4,0.1,0.5l2.4,2.3L13,14.4c0,0.2,0,0.4,0.2,0.5c0.2,0.1,0.4,0.1,0.5,0l2.9-1.6l2.9,1.6
			c0.1,0,0.2,0.1,0.2,0.1c0.1,0,0.2,0,0.3-0.1c0.2-0.1,0.2-0.3,0.2-0.5l-0.6-3.3l2.4-2.3C22.3,8.7,22.3,8.5,22.3,8.3z"/>
		<path d="M19.1,20.4c-1,0.4-2,0.6-3.1,0.6c-5,0-9-4-9-9s4-9,9-9c1,0,2.1,0.2,3.1,0.6c0.3,0.1,0.7-0.1,0.7-0.5
			c0-0.2-0.1-0.4-0.3-0.4C17.4,0.9,14.7,0,12,0C5.4,0,0,5.4,0,12s5.4,12,12,12c2.8,0,5.4-1,7.6-2.7c0.2-0.2,0.2-0.4,0.1-0.6
			C19.6,20.5,19.3,20.4,19.1,20.4z"/>
	</g>
</g>
<g id="Outline_Icons">
	<g>
		<polygon class="st2" points="16.7,4.7 18.3,7.9 21.8,8.5 19.2,11 19.8,14.5 16.7,12.8 13.5,14.5 14.1,11 11.5,8.5 15.1,7.9 		"/>
		<path class="st3" d="M16,21.5c-5.2,0-9.5-4.3-9.5-9.5c0-5.2,4.3-9.5,9.5-9.5c1.1,0,2.2,0.2,3.3,0.6c-2-1.6-4.5-2.6-7.3-2.6
			C5.6,0.5,0.5,5.6,0.5,12c0,6.4,5.1,11.5,11.5,11.5c2.8,0,5.3-1,7.3-2.6C18.2,21.3,17.1,21.5,16,21.5z"/>
	</g>
</g>
</svg>
