<?xml version="1.0" encoding="utf-8"?>
<!-- Generator: Adobe Illustrator 19.2.0, SVG Export Plug-In . SVG Version: 6.00 Build 0)  -->
<svg version="1.1" id="Layer_1" xmlns="http://www.w3.org/2000/svg" xmlns:xlink="http://www.w3.org/1999/xlink" x="0px" y="0px"
	 viewBox="0 0 24 24" style="enable-background:new 0 0 24 24;" xml:space="preserve">
<style type="text/css">
	.st0{display:none;}
	.st1{display:inline;}
	.st2{fill:none;stroke:#000000;stroke-linecap:round;stroke-linejoin:round;stroke-miterlimit:10;}
</style>
<g id="Filled_Icons" class="st0">
	<g class="st1">
		<g>
			<path d="M6.6,11l4.9-8.1l1,1.6h2.3l-2.4-4c-0.4-0.6-1.3-0.6-1.7,0L5.4,9.1L6.6,11z"/>
			<path d="M22.3,16.8l-5.1-8.3h-2.3l4.8,8h-1.9l-1.2,2h4.9c0,0,0,0,0,0c0.6,0,1-0.4,1-1C22.5,17.2,22.4,17,22.3,16.8z"/>
			<path d="M13.1,16.5H3.3l1-1.6L3.1,13l-2.4,4c-0.2,0.3-0.2,0.7,0,1c0.2,0.3,0.5,0.5,0.9,0.5h10.4L13.1,16.5z"/>
		</g>
		<g>
			<path d="M8.1,15.5l-4.8-8h1.9l1.2-2H1.5C1.1,5.5,0.8,5.7,0.6,6c-0.2,0.3-0.2,0.7,0,1l5.1,8.5L8.1,15.5L8.1,15.5z"/>
			<path d="M22.4,6c-0.2-0.3-0.5-0.5-0.9-0.5H11.1l-1.2,2h9.8l-1,1.6l1.2,1.9l2.4-4C22.5,6.7,22.5,6.3,22.4,6z"/>
			<path d="M16.4,13l-4.9,8.1l-1-1.6H8.2l2.4,4c0.2,0.3,0.5,0.5,0.9,0.5s0.7-0.2,0.9-0.5l5.2-8.6L16.4,13z"/>
		</g>
	</g>
</g>
<g id="Outline_Icons">
	<g>
		<polygon class="st2" points="21.5,17.5 1.5,17.5 11.5,1 		"/>
		<polygon class="st2" points="21.5,17.5 1.5,17.5 11.5,1 		"/>
		<polygon class="st2" points="21.5,17.5 1.5,17.5 11.5,1 		"/>
		<polygon class="st2" points="21.5,17.5 1.5,17.5 11.5,1 		"/>
		<polygon class="st2" points="1.5,6.5 21.5,6.5 11.5,23 		"/>
		<polygon class="st2" points="1.5,6.5 21.5,6.5 11.5,23 		"/>
	</g>
</g>
</svg>
