<?xml version="1.0" encoding="utf-8"?>
<!-- Generator: Adobe Illustrator 19.2.0, SVG Export Plug-In . SVG Version: 6.00 Build 0)  -->
<svg version="1.1" id="Layer_1" xmlns="http://www.w3.org/2000/svg" xmlns:xlink="http://www.w3.org/1999/xlink" x="0px" y="0px"
	 viewBox="0 0 24 24" style="enable-background:new 0 0 24 24;" xml:space="preserve">
<style type="text/css">
	.st0{display:none;}
	.st1{display:inline;}
	.st2{fill:none;stroke:#000000;stroke-linecap:round;stroke-linejoin:round;stroke-miterlimit:10;}
</style>
<g id="Filled_Icons" class="st0">
	<path class="st1" d="M22.9,0.2C22.8,0.1,22.7,0,22.5,0l-22,0l0,0C0.4,0,0.2,0.1,0.1,0.1C0.1,0.2,0,0.4,0,0.5v22
		C0,22.8,0.2,23,0.5,23h22c0.3,0,0.5-0.2,0.5-0.5l0-22C23,0.4,23,0.3,22.9,0.2z M16.1,15.4c0.2,0.2,0.2,0.5,0,0.7
		c-0.1,0.1-0.2,0.1-0.4,0.1c-0.1,0-0.3,0-0.4-0.1l-3.9-3.9l-3.9,3.9c-0.1,0.1-0.2,0.1-0.4,0.1c-0.1,0-0.3,0-0.4-0.1
		c-0.2-0.2-0.2-0.5,0-0.7l3.9-3.9L6.9,7.6c-0.2-0.2-0.2-0.5,0-0.7c0.2-0.2,0.5-0.2,0.7,0l3.9,3.9l3.9-3.9c0.2-0.2,0.5-0.2,0.7,0
		c0.2,0.2,0.2,0.5,0,0.7l-3.9,3.9L16.1,15.4z"/>
</g>
<g id="Outline_Icons">
	<g>
		<line class="st2" x1="15.7" y1="7.3" x2="7.3" y2="15.7"/>
		<line class="st2" x1="15.7" y1="15.7" x2="7.3" y2="7.3"/>
		<rect x="0.5" y="0.5" class="st2" width="22" height="22"/>
	</g>
</g>
</svg>
