<?xml version="1.0" encoding="utf-8"?>
<!-- Generator: Adobe Illustrator 19.2.0, SVG Export Plug-In . SVG Version: 6.00 Build 0)  -->
<svg version="1.1" id="Layer_1" xmlns="http://www.w3.org/2000/svg" xmlns:xlink="http://www.w3.org/1999/xlink" x="0px" y="0px"
	 viewBox="0 0 24 24" style="enable-background:new 0 0 24 24;" xml:space="preserve">
<style type="text/css">
	.st0{display:none;}
	.st1{display:inline;}
	.st2{fill:none;stroke:#000000;stroke-linecap:round;stroke-linejoin:round;stroke-miterlimit:10;}
</style>
<g id="Filled_Icons" class="st0">
	<path class="st1" d="M17.2,12l6.7-6.6C24,5.3,24,5.1,24,5c0-0.1-0.1-0.3-0.1-0.4l-4.5-4.5C19.3,0.1,19.2,0,19,0h0
		c-0.1,0-0.3,0.1-0.4,0.1L12,6.8L5.4,0.1C5.3,0,5.2,0,5,0h0C4.9,0,4.8,0,4.7,0.1L0.2,4.6C0,4.8,0,5.1,0.2,5.3L6.8,12l-6.7,6.6
		c-0.2,0.2-0.2,0.5,0,0.7l4.5,4.5C4.7,23.9,4.9,24,5,24h0c0.1,0,0.3-0.1,0.4-0.1l6.7-6.6l6.6,6.7C18.7,24,18.9,24,19,24
		c0.1,0,0.3,0,0.4-0.1l4.5-4.5c0.2-0.2,0.2-0.5,0-0.7L17.2,12z"/>
</g>
<g id="Outline_Icons">
	<g>
		<polygon class="st2" points="7.5,12 0.5,19 5,23.5 12,16.5 19,23.5 23.5,19 16.5,12 23.5,5 19,0.5 12,7.5 5,0.5 0.5,5 		"/>
	</g>
</g>
</svg>
