<?xml version="1.0" encoding="utf-8"?>
<!-- Generator: Adobe Illustrator 19.2.0, SVG Export Plug-In . SVG Version: 6.00 Build 0)  -->
<svg version="1.1" id="Layer_1" xmlns="http://www.w3.org/2000/svg" xmlns:xlink="http://www.w3.org/1999/xlink" x="0px" y="0px"
	 viewBox="0 0 24 24" style="enable-background:new 0 0 24 24;" xml:space="preserve">
<style type="text/css">
	.st0{display:none;}
	.st1{display:inline;}
	.st2{fill:none;stroke:#000000;stroke-linecap:round;stroke-linejoin:round;stroke-miterlimit:10;}
	.st3{fill:none;stroke:#000000;stroke-linejoin:round;stroke-miterlimit:10;}
</style>
<g id="Filled_Icons" class="st0">
	<g class="st1">
		<path d="M22,0H2C0.9,0,0,0.9,0,2v13c0,1.1,0.9,2,2,2h8v-2H2V2h20v13h-3v2h3c1.1,0,2-0.9,2-2V2C24,0.9,23.1,0,22,0z"/>
		<path d="M11,23h7V12h-7V23z M15.5,14.5c0.3,0,0.5,0.2,0.5,0.5c0,0.3-0.2,0.5-0.5,0.5c-0.3,0-0.5-0.2-0.5-0.5
			C15,14.7,15.2,14.5,15.5,14.5z M15.5,16.5c0.3,0,0.5,0.2,0.5,0.5c0,0.3-0.2,0.5-0.5,0.5c-0.3,0-0.5-0.2-0.5-0.5
			C15,16.7,15.2,16.5,15.5,16.5z M15.5,18.5c0.3,0,0.5,0.2,0.5,0.5c0,0.3-0.2,0.5-0.5,0.5c-0.3,0-0.5-0.2-0.5-0.5
			C15,18.7,15.2,18.5,15.5,18.5z M13.5,14.5c0.3,0,0.5,0.2,0.5,0.5c0,0.3-0.2,0.5-0.5,0.5c-0.3,0-0.5-0.2-0.5-0.5
			C13,14.7,13.2,14.5,13.5,14.5z M13.5,16.5c0.3,0,0.5,0.2,0.5,0.5c0,0.3-0.2,0.5-0.5,0.5c-0.3,0-0.5-0.2-0.5-0.5
			C13,16.7,13.2,16.5,13.5,16.5z M13.5,18.5c0.3,0,0.5,0.2,0.5,0.5c0,0.3-0.2,0.5-0.5,0.5c-0.3,0-0.5-0.2-0.5-0.5
			C13,18.7,13.2,18.5,13.5,18.5z"/>
		<path d="M18.2,6.5c-2.1-1.3-4.8-1.4-7.1-0.2c-0.2,0.1-0.3,0.4-0.2,0.7c0.1,0.2,0.4,0.3,0.7,0.2c1.9-1,4.2-1,6,0.1
			c0.1,0,0.2,0.1,0.3,0.1c0.2,0,0.3-0.1,0.4-0.2C18.5,7,18.4,6.7,18.2,6.5z"/>
		<path d="M16.8,9.2c0.2,0,0.3-0.1,0.4-0.2c0.1-0.2,0.1-0.5-0.2-0.7c-1.5-0.9-3.5-1-5-0.1c-0.2,0.1-0.3,0.4-0.2,0.7
			C12,9.1,12.3,9.1,12.6,9c1.3-0.7,2.8-0.7,4,0.1C16.7,9.1,16.8,9.2,16.8,9.2z"/>
		<path d="M13,9.9c-0.2,0.1-0.3,0.4-0.2,0.7c0.1,0.2,0.4,0.3,0.7,0.2c0.6-0.4,1.4-0.3,2,0c0.1,0,0.2,0.1,0.3,0.1
			c0.2,0,0.3-0.1,0.4-0.2c0.1-0.2,0.1-0.5-0.2-0.7C15.1,9.4,14,9.4,13,9.9z"/>
	</g>
</g>
<g id="Outline_Icons">
	<g>
		<path class="st2" d="M8.5,16.5H2c-0.8,0-1.5-0.7-1.5-1.5V2c0-0.8,0.7-1.5,1.5-1.5h20c0.8,0,1.5,0.7,1.5,1.5v13
			c0,0.8-0.7,1.5-1.5,1.5h-1.5"/>
		<polyline class="st2" points="8.5,14.5 2.5,14.5 2.5,2.5 21.5,2.5 21.5,14.5 20.5,14.5 		"/>
		<rect x="11.5" y="12.5" class="st3" width="6" height="10"/>
		<g>
			<g>
				<g>
					<path d="M13.5,14c-0.3,0-0.5,0.2-0.5,0.5c0,0.3,0.2,0.5,0.5,0.5c0.3,0,0.5-0.2,0.5-0.5C14,14.2,13.8,14,13.5,14L13.5,14z"/>
				</g>
			</g>
		</g>
		<g>
			<g>
				<g>
					<path d="M15.5,14c-0.3,0-0.5,0.2-0.5,0.5c0,0.3,0.2,0.5,0.5,0.5c0.3,0,0.5-0.2,0.5-0.5C16,14.2,15.8,14,15.5,14L15.5,14z"/>
				</g>
			</g>
		</g>
		<g>
			<g>
				<g>
					<path d="M13.5,16c-0.3,0-0.5,0.2-0.5,0.5c0,0.3,0.2,0.5,0.5,0.5c0.3,0,0.5-0.2,0.5-0.5C14,16.2,13.8,16,13.5,16L13.5,16z"/>
				</g>
			</g>
		</g>
		<g>
			<g>
				<g>
					<path d="M15.5,16c-0.3,0-0.5,0.2-0.5,0.5c0,0.3,0.2,0.5,0.5,0.5c0.3,0,0.5-0.2,0.5-0.5C16,16.2,15.8,16,15.5,16L15.5,16z"/>
				</g>
			</g>
		</g>
		<g>
			<g>
				<g>
					<path d="M13.5,18c-0.3,0-0.5,0.2-0.5,0.5c0,0.3,0.2,0.5,0.5,0.5c0.3,0,0.5-0.2,0.5-0.5C14,18.2,13.8,18,13.5,18L13.5,18z"/>
				</g>
			</g>
		</g>
		<g>
			<g>
				<g>
					<path d="M15.5,18c-0.3,0-0.5,0.2-0.5,0.5c0,0.3,0.2,0.5,0.5,0.5c0.3,0,0.5-0.2,0.5-0.5C16,18.2,15.8,18,15.5,18L15.5,18z"/>
				</g>
			</g>
		</g>
		<path class="st2" d="M17.9,7c-2-1.2-4.5-1.3-6.5-0.1"/>
		<path class="st2" d="M16.8,8.7c-1.4-0.8-3.1-0.9-4.5-0.1"/>
		<path class="st2" d="M15.8,10.4c-0.8-0.5-1.7-0.5-2.5-0.1"/>
	</g>
</g>
</svg>
