<?xml version="1.0" encoding="utf-8"?>
<!-- Generator: Adobe Illustrator 19.2.0, SVG Export Plug-In . SVG Version: 6.00 Build 0)  -->
<svg version="1.1" id="Layer_1" xmlns="http://www.w3.org/2000/svg" xmlns:xlink="http://www.w3.org/1999/xlink" x="0px" y="0px"
	 viewBox="0 0 24 24" style="enable-background:new 0 0 24 24;" xml:space="preserve">
<style type="text/css">
	.st0{display:none;}
	.st1{display:inline;}
	.st2{fill:none;stroke:#000000;stroke-linecap:round;stroke-linejoin:round;stroke-miterlimit:10;}
</style>
<g id="Filled_Icons" class="st0">
	<path class="st1" d="M11.5,0C5.2,0,0,5.2,0,11.5C0,17.8,5.2,23,11.5,23C17.8,23,23,17.8,23,11.5C23,5.2,17.8,0,11.5,0z M18.2,14.7
		c0.1,0.1,0.1,0.2,0.1,0.4c0,0.1-0.1,0.3-0.1,0.4l-2.8,2.8c-0.1,0.1-0.2,0.1-0.4,0.1c-0.1,0-0.3-0.1-0.4-0.1L11.5,15l-3.2,3.2
		c-0.2,0.2-0.5,0.2-0.7,0l-2.8-2.8c-0.2-0.2-0.2-0.5,0-0.7L8,11.5L4.8,8.3c-0.2-0.2-0.2-0.5,0-0.7l2.8-2.8c0.2-0.2,0.5-0.2,0.7,0
		L11.5,8l3.2-3.2c0.2-0.2,0.5-0.2,0.7,0l2.8,2.8c0.1,0.1,0.1,0.2,0.1,0.4c0,0.1-0.1,0.3-0.1,0.4L15,11.5L18.2,14.7z"/>
</g>
<g id="Outline_Icons">
	<g>
		<circle class="st2" cx="11.5" cy="11.5" r="11"/>
		<polygon class="st2" points="17.9,15 14.3,11.5 17.9,8 15,5.1 11.5,8.7 8,5.1 5.1,8 8.7,11.5 5.1,15 8,17.9 11.5,14.3 15,17.9 		
			"/>
	</g>
</g>
</svg>
