<?xml version="1.0" encoding="utf-8"?>
<!-- Generator: Adobe Illustrator 19.2.0, SVG Export Plug-In . SVG Version: 6.00 Build 0)  -->
<svg version="1.1" id="Layer_1" xmlns="http://www.w3.org/2000/svg" xmlns:xlink="http://www.w3.org/1999/xlink" x="0px" y="0px"
	 viewBox="0 0 24 24" style="enable-background:new 0 0 24 24;" xml:space="preserve">
<style type="text/css">
	.st0{display:none;}
	.st1{display:inline;}
	.st2{fill:none;stroke:#000000;stroke-linecap:round;stroke-linejoin:round;stroke-miterlimit:10;}
</style>
<g id="Filled_Icons" class="st0">
	<path class="st1" d="M22.6,10.8l-6.2-6.2c-0.1-0.1-0.2-0.1-0.4-0.1H0.5C0.2,4.5,0,4.7,0,5v12c0,0.3,0.2,0.5,0.5,0.5H16
		c0.1,0,0.2,0,0.3-0.1l6.2-5.8c0.1-0.1,0.2-0.2,0.2-0.4C22.7,11,22.7,10.9,22.6,10.8z M10.6,13.5c0.2,0.2,0.2,0.5,0,0.7
		c-0.2,0.2-0.5,0.2-0.7,0l-2.5-2.5L5,14.2c-0.2,0.2-0.5,0.2-0.7,0c-0.2-0.2-0.2-0.5,0-0.7L6.8,11L4.3,8.5C4.1,8.3,4.1,8,4.3,7.8
		c0.2-0.2,0.5-0.2,0.7,0l2.5,2.5l2.5-2.5c0.2-0.2,0.5-0.2,0.7,0c0.2,0.2,0.2,0.5,0,0.7L8.2,11L10.6,13.5z"/>
</g>
<g id="Outline_Icons">
	<g>
		<polygon class="st2" points="17,17.5 0.5,17.5 0.5,4.5 17,4.5 23.5,11 		"/>
		<line class="st2" x1="5.5" y1="8.5" x2="10.5" y2="13.5"/>
		<line class="st2" x1="10.5" y1="8.5" x2="5.5" y2="13.5"/>
	</g>
</g>
</svg>
