<?xml version="1.0" encoding="utf-8"?>
<!-- Generator: Adobe Illustrator 19.2.0, SVG Export Plug-In . SVG Version: 6.00 Build 0)  -->
<svg version="1.1" id="Layer_1" xmlns="http://www.w3.org/2000/svg" xmlns:xlink="http://www.w3.org/1999/xlink" x="0px" y="0px"
	 viewBox="0 0 24 24" style="enable-background:new 0 0 24 24;" xml:space="preserve">
<style type="text/css">
	.st0{display:none;}
	.st1{display:inline;}
	.st2{fill:none;stroke:#000000;stroke-linejoin:round;stroke-miterlimit:10;}
</style>
<g id="Filled_Icons" class="st0">
	<path class="st1" d="M10.7,7.9c-0.3,0-0.5,0-0.7,0V4.5C10,4.3,9.9,4.1,9.7,4C9.5,4,9.3,4,9.2,4.1l-8.5,7c-0.1,0.1-0.2,0.2-0.2,0.4
		c0,0.1,0.1,0.3,0.2,0.4l8.5,7C9.3,19,9.5,19,9.7,19c0.2-0.1,0.3-0.3,0.3-0.5v-3.6c0.5-0.1,1.5-0.3,2.7-0.3c2.8,0,6.5,0.9,8.8,5.1
		c0.1,0.2,0.3,0.3,0.4,0.3c0,0,0.1,0,0.1,0c0.2-0.1,0.4-0.3,0.4-0.5C22.5,8.8,13.5,7.9,10.7,7.9z"/>
</g>
<g id="Outline_Icons">
	<g>
		<path class="st2" d="M9.5,8.5c0,0,12.5-1.5,12.5,11c-4-7.5-12.5-5-12.5-5v4l-8.5-7l8.5-7V8.5z"/>
	</g>
</g>
</svg>
