<?xml version="1.0" encoding="utf-8"?>
<!-- Generator: Adobe Illustrator 19.2.0, SVG Export Plug-In . SVG Version: 6.00 Build 0)  -->
<svg version="1.1" id="Layer_1" xmlns="http://www.w3.org/2000/svg" xmlns:xlink="http://www.w3.org/1999/xlink" x="0px" y="0px"
	 viewBox="0 0 24 24" style="enable-background:new 0 0 24 24;" xml:space="preserve">
<style type="text/css">
	.st0{display:none;}
	.st1{display:inline;}
	.st2{fill:none;stroke:#000000;stroke-linejoin:round;stroke-miterlimit:10;}
	.st3{fill:none;stroke:#000000;stroke-linecap:round;stroke-linejoin:round;stroke-miterlimit:10;}
</style>
<g id="Filled_Icons" class="st0">
	<g class="st1">
		<path d="M18.9,9.6C16.6,8.3,14.1,8,13,8V4.5c0-0.2-0.1-0.4-0.3-0.5C12.5,4,12.3,4,12.2,4.1l-8.5,7c-0.1,0.1-0.2,0.2-0.2,0.4
			c0,0.1,0.1,0.3,0.2,0.4l8.5,7c0.1,0.1,0.4,0.1,0.5,0.1c0.2-0.1,0.3-0.3,0.3-0.5v-3.6c0.4-0.1,1.2-0.3,2.2-0.3
			c2.3,0,5.6,0.9,7.8,5.1c0.1,0.2,0.3,0.3,0.4,0.3c0,0,0.1,0,0.1,0c0.2-0.1,0.4-0.3,0.4-0.5C24,13.7,21.2,10.9,18.9,9.6z"/>
		<path d="M1.3,11.5l8-6.6c0.2-0.2,0.2-0.5,0.1-0.7C9.2,4,8.9,3.9,8.7,4.1l-8.5,7C0.1,11.2,0,11.4,0,11.5c0,0.1,0.1,0.3,0.2,0.4
			l8.5,7C8.8,19,8.9,19,9,19c0.1,0,0.3-0.1,0.4-0.2c0.2-0.2,0.1-0.5-0.1-0.7L1.3,11.5z"/>
	</g>
</g>
<g id="Outline_Icons">
	<g>
		<g>
			<path class="st2" d="M12.5,8.5c0,0,11-0.5,11,11c-4-7.5-11-5-11-5v4l-8.5-7l8.5-7V8.5z"/>
		</g>
		<g>
			<polyline class="st3" points="9,18.5 0.5,11.5 9,4.5 			"/>
		</g>
	</g>
</g>
</svg>
