<?xml version="1.0" encoding="utf-8"?>
<!-- Generator: Adobe Illustrator 19.2.0, SVG Export Plug-In . SVG Version: 6.00 Build 0)  -->
<svg version="1.1" id="Layer_1" xmlns="http://www.w3.org/2000/svg" xmlns:xlink="http://www.w3.org/1999/xlink" x="0px" y="0px"
	 viewBox="0 0 24 24" style="enable-background:new 0 0 24 24;" xml:space="preserve">
<style type="text/css">
	.st0{display:none;}
	.st1{display:inline;}
	.st2{fill:none;stroke:#000000;stroke-linecap:round;stroke-linejoin:round;stroke-miterlimit:10;}
	.st3{fill:none;stroke:#000000;stroke-linejoin:round;stroke-miterlimit:10;}
</style>
<g id="Filled_Icons" class="st0">
	<path class="st1" d="M22.9,23.2l-11-21.9c-0.2-0.3-0.7-0.3-0.9,0l-11,22c-0.1,0.2-0.1,0.3,0,0.5C0.2,23.9,0.3,24,0.5,24h22
		c0,0,0,0,0,0c0.3,0,0.5-0.2,0.5-0.5C23,23.4,23,23.3,22.9,23.2z M11,9.2c0-0.3,0.2-0.5,0.5-0.5c0.3,0,0.5,0.2,0.5,0.5v7.7
		c0,0.3-0.2,0.5-0.5,0.5c-0.3,0-0.5-0.2-0.5-0.5V9.2z M11.5,21.1c-0.5,0-1-0.4-1-1c0-0.5,0.4-1,1-1c0.5,0,1,0.4,1,1
		C12.5,20.7,12,21.1,11.5,21.1z"/>
</g>
<g id="Outline_Icons">
	<g>
		<line class="st2" x1="11.5" y1="16.8" x2="11.5" y2="9.2"/>
		<polygon class="st2" points="22.5,23.5 0.5,23.5 11.5,1.5 		"/>
		<path class="st3" d="M12,20c0,0.3-0.2,0.5-0.5,0.5l0,0c-0.3,0-0.5-0.2-0.5-0.5l0,0c0-0.3,0.2-0.5,0.5-0.5l0,0
			C11.8,19.5,12,19.7,12,20L12,20z"/>
	</g>
</g>
</svg>
