<?xml version="1.0" encoding="utf-8"?>
<!-- Generator: Adobe Illustrator 19.2.0, SVG Export Plug-In . SVG Version: 6.00 Build 0)  -->
<svg version="1.1" id="Layer_1" xmlns="http://www.w3.org/2000/svg" xmlns:xlink="http://www.w3.org/1999/xlink" x="0px" y="0px"
	 viewBox="0 0 24 24" style="enable-background:new 0 0 24 24;" xml:space="preserve">
<style type="text/css">
	.st0{display:none;}
	.st1{display:inline;}
	.st2{fill:none;stroke:#000000;stroke-linecap:round;stroke-linejoin:round;stroke-miterlimit:10;}
	.st3{fill:none;stroke:#000000;stroke-linejoin:round;stroke-miterlimit:10;}
</style>
<g id="Filled_Icons" class="st0">
	<path class="st1" d="M22.9,12.1l-11-11c-0.2-0.2-0.5-0.2-0.7,0l-11,11c-0.2,0.2-0.2,0.5,0,0.7l11,11c0.1,0.1,0.2,0.1,0.4,0.1
		c0.1,0,0.3,0,0.4-0.1l11-11C23,12.7,23,12.3,22.9,12.1z M11,7c0-0.3,0.2-0.5,0.5-0.5C11.8,6.5,12,6.7,12,7v8c0,0.3-0.2,0.5-0.5,0.5
		c-0.3,0-0.5-0.2-0.5-0.5V7z M11.5,19.5c-0.6,0-1-0.4-1-1c0-0.6,0.4-1,1-1c0.6,0,1,0.4,1,1C12.5,19.1,12.1,19.5,11.5,19.5z"/>
</g>
<g id="Outline_Icons">
	<g>
		<line class="st2" x1="11.5" y1="15" x2="11.5" y2="7"/>
		<rect x="3.7" y="4.7" transform="matrix(0.7071 -0.7071 0.7071 0.7071 -5.4705 11.793)" class="st2" width="15.6" height="15.6"/>
		<path class="st3" d="M12,18.5c0,0.3-0.2,0.5-0.5,0.5l0,0c-0.3,0-0.5-0.2-0.5-0.5l0,0c0-0.3,0.2-0.5,0.5-0.5l0,0
			C11.8,18,12,18.2,12,18.5L12,18.5z"/>
	</g>
</g>
</svg>
