<?xml version="1.0" encoding="utf-8"?>
<!-- Generator: Adobe Illustrator 19.2.0, SVG Export Plug-In . SVG Version: 6.00 Build 0)  -->
<svg version="1.1" id="Layer_1" xmlns="http://www.w3.org/2000/svg" xmlns:xlink="http://www.w3.org/1999/xlink" x="0px" y="0px"
	 viewBox="0 0 24 24" style="enable-background:new 0 0 24 24;" xml:space="preserve">
<style type="text/css">
	.st0{display:none;}
	.st1{display:inline;}
	.st2{fill:none;stroke:#000000;stroke-linecap:round;stroke-linejoin:round;stroke-miterlimit:10;}
	.st3{fill:none;stroke:#000000;stroke-linejoin:round;stroke-miterlimit:10;}
</style>
<g id="Filled_Icons" class="st0">
	<path class="st1" d="M11.7,1l-0.2,0c-3.1,0.1-6,1.3-8.2,3.5C1.1,6.7-0.1,9.6,0,12.7C0.1,19,5.1,24,11.3,24l0.2,0
		C18,23.9,23.1,18.6,23,12.3C22.9,6,17.9,1,11.7,1z M11,7c0-0.3,0.2-0.5,0.5-0.5C11.8,6.5,12,6.7,12,7v7c0,0.3-0.2,0.5-0.5,0.5
		c-0.3,0-0.5-0.2-0.5-0.5V7z M11.5,18.5C11.5,18.5,11.5,18.5,11.5,18.5c-0.6,0-1-0.4-1-1c0-0.6,0.4-1,1-1c0,0,0,0,0,0
		c0.5,0,1,0.4,1,1C12.5,18,12.1,18.5,11.5,18.5z"/>
</g>
<g id="Outline_Icons">
	<g>
		<path class="st2" d="M22.5,12.3c0.1,6.1-4.9,11.1-11,11.2c-6.1,0.1-10.9-4.7-11-10.8C0.4,6.6,5.4,1.6,11.5,1.5
			C17.6,1.4,22.4,6.2,22.5,12.3z"/>
		<line class="st2" x1="11.5" y1="14" x2="11.5" y2="7"/>
		<path class="st3" d="M12,17.5c0,0.3-0.2,0.5-0.5,0.5l0,0c-0.3,0-0.5-0.2-0.5-0.5l0,0c0-0.3,0.2-0.5,0.5-0.5l0,0
			C11.8,17,12,17.2,12,17.5L12,17.5z"/>
	</g>
</g>
</svg>
