<?xml version="1.0" encoding="utf-8"?>
<!-- Generator: Adobe Illustrator 19.2.0, SVG Export Plug-In . SVG Version: 6.00 Build 0)  -->
<svg version="1.1" id="Layer_1" xmlns="http://www.w3.org/2000/svg" xmlns:xlink="http://www.w3.org/1999/xlink" x="0px" y="0px"
	 viewBox="0 0 24 24" style="enable-background:new 0 0 24 24;" xml:space="preserve">
<style type="text/css">
	.st0{display:none;}
	.st1{display:inline;}
	.st2{fill:none;stroke:#000000;stroke-linecap:round;stroke-linejoin:round;stroke-miterlimit:10;}
</style>
<g id="Filled_Icon" class="st0">
	<path class="st1" d="M12,0C5.4,0,0,5.4,0,12s5.4,12,12,12s12-5.4,12-12S18.6,0,12,0z M16,16.5c0,0.2-0.1,0.4-0.3,0.4
		c-0.2,0.1-0.4,0.1-0.5,0l-3.7-2.5v2.1c0,0.2-0.1,0.4-0.3,0.5c-0.1,0-0.1,0-0.2,0c-0.1,0-0.2,0-0.3-0.1l-5.5-4.5
		C5.1,12.3,5,12.1,5,12s0.1-0.3,0.2-0.4l5.5-4.5C10.8,7,11,7,11.2,7c0.2,0.1,0.3,0.3,0.3,0.5v2.1l3.7-2.5c0.2-0.1,0.4-0.1,0.5,0
		c0.2,0,0.3,0.2,0.3,0.4V16.5z"/>
</g>
<g id="Outline_Icons">
	<g>
		<circle class="st2" cx="12" cy="12" r="11.5"/>
		<polygon class="st2" points="5.5,12 11,16.5 11,13.5 15.5,16.5 15.5,7.5 11,10.5 11,7.5 		"/>
	</g>
</g>
</svg>
