<?xml version="1.0" encoding="utf-8"?>
<!-- Generator: Adobe Illustrator 19.2.0, SVG Export Plug-In . SVG Version: 6.00 Build 0)  -->
<svg version="1.1" id="Layer_1" xmlns="http://www.w3.org/2000/svg" xmlns:xlink="http://www.w3.org/1999/xlink" x="0px" y="0px"
	 viewBox="0 0 24 24" style="enable-background:new 0 0 24 24;" xml:space="preserve">
<style type="text/css">
	.st0{display:none;}
	.st1{display:inline;}
	.st2{fill:none;stroke:#000000;stroke-linejoin:round;stroke-miterlimit:10;}
</style>
<g id="Filled_Icon" class="st0">
	<path class="st1" d="M19.9,9.1l-0.1,0.3c-0.4,2.3-1.9,4.4-3.9,5.5l-0.1-0.3c-0.4-2.2-1.7-4.2-3.6-5.4L12,9.1
		c2.3-1.3,5.2-1.4,7.6-0.2L19.9,9.1C20,8.7,20,8.3,20,8c0-4.4-3.6-8-8-8C7.6,0,4,3.6,4,8c0,0.3,0,0.7,0.1,1l0.3-0.2
		C6.8,7.7,9.7,7.8,12,9.1l-0.2,0.2c-1.9,1.2-3.2,3.2-3.6,5.4l-0.1,0.3C6,13.8,4.5,11.7,4.1,9.4L4.1,9.1C1.6,10.5,0,13.1,0,16
		c0,4.4,3.6,8,8,8c1.4,0,2.8-0.4,4-1.1l-0.2-0.2C9.4,21.3,8,18.8,8,16c0-0.3,0-0.7,0.1-1l0.3,0.2C9.5,15.7,10.7,16,12,16
		c1.3,0,2.5-0.3,3.6-0.9l0.3-0.2c0.1,0.4,0.1,0.7,0.1,1c0,2.8-1.4,5.3-3.7,6.8L12,22.9c1.2,0.7,2.6,1.1,4,1.1c4.4,0,8-3.6,8-8
		C24,13.1,22.4,10.5,19.9,9.1z"/>
</g>
<g id="Outline_Icons">
	<g>
		<circle class="st2" cx="12" cy="8" r="7.5"/>
		<circle class="st2" cx="8" cy="16" r="7.5"/>
		<circle class="st2" cx="16" cy="16" r="7.5"/>
	</g>
</g>
</svg>
