<?xml version="1.0" encoding="utf-8"?>
<!-- Generator: Adobe Illustrator 19.2.0, SVG Export Plug-In . SVG Version: 6.00 Build 0)  -->
<svg version="1.1" id="Layer_1" xmlns="http://www.w3.org/2000/svg" xmlns:xlink="http://www.w3.org/1999/xlink" x="0px" y="0px"
	 viewBox="0 0 24 24" style="enable-background:new 0 0 24 24;" xml:space="preserve">
<style type="text/css">
	.st0{display:none;}
	.st1{display:inline;}
	.st2{fill:none;stroke:#000000;stroke-linejoin:round;stroke-miterlimit:10;}
	.st3{fill:none;stroke:#000000;stroke-linecap:round;stroke-linejoin:round;stroke-miterlimit:10;}
</style>
<g id="Filled_Icons" class="st0">
	<g class="st1">
		<g>
			<path d="M8,13c-0.3,0-0.5-0.2-0.5-0.5C7.5,11.7,6.8,11,6,11s-1.5,0.7-1.5,1.5C4.5,12.8,4.3,13,4,13s-0.5-0.2-0.5-0.5
				C3.5,11.1,4.6,10,6,10s2.5,1.1,2.5,2.5C8.5,12.8,8.3,13,8,13z"/>
		</g>
		<g>
			<path d="M15.5,14.8c-0.3,0-0.5-0.2-0.5-0.5c0-0.6-0.4-1-1-1c-0.6,0-1,0.4-1,1c0,0.3-0.2,0.5-0.5,0.5c-0.3,0-0.5-0.2-0.5-0.5
				c0-1.1,0.9-2,2-2c1.1,0,2,0.9,2,2C16,14.5,15.8,14.8,15.5,14.8z"/>
		</g>
		<g>
			<path d="M12,11c-0.3,0-0.5-0.2-0.5-0.5c0-0.3-0.2-0.5-0.5-0.5s-0.5,0.2-0.5,0.5c0,0.3-0.2,0.5-0.5,0.5s-0.5-0.2-0.5-0.5
				C9.5,9.7,10.2,9,11,9s1.5,0.7,1.5,1.5C12.5,10.8,12.3,11,12,11z"/>
		</g>
		<path d="M22.4,0.1c-0.8-0.3-1.8,0.1-2.1,0.9l-2.8,6.3c-1.8-0.5-3.9-0.8-6-0.8c-5.4,0-11.2,1.9-11.5,5h0v2C0,20.1,4.3,24,11.5,24
			C18.7,24,23,20.1,23,13.5v-2h0c-0.1-0.9-0.6-1.7-1.6-2.4l2-6.9C23.7,1.4,23.3,0.4,22.4,0.1z M22,11.8C22,14,17,16,11.5,16
			C6,16,1,14,1,11.8c0-2.2,5-4.2,10.5-4.2c1.9,0,3.9,0.2,5.5,0.7l-1.4,3.2c-0.1,0.1-0.1,0.3,0,0.4s0.2,0.2,0.3,0.3
			c0.5,0.1,1.3,0.3,2.2,0.3c1.1,0,1.9-0.2,2.5-0.7c0.1-0.1,0.1-0.2,0.2-0.3l0.4-1.3C21.6,10.6,22,11.1,22,11.8z"/>
	</g>
</g>
<g id="Outline_Icons">
	<g>
		<g>
			<path class="st2" d="M22.9,2l-2.6,9.2c-1,0.8-3,0.6-4.2,0.3l4.7-10.4c0.2-0.6,0.9-0.9,1.5-0.7C22.9,0.8,23.1,1.5,22.9,2z"/>
		</g>
		<path class="st2" d="M20.8,9.2c1.1,0.7,1.7,1.6,1.7,2.5c0,2.6-5.2,4.8-11,4.8s-11-2.1-11-4.8c0-2.6,5.2-4.8,11-4.8
			c2.2,0,4.3,0.3,6,0.8"/>
		<path class="st2" d="M0.5,11.5v2c0,5.8,3.5,10,11,10c7.5,0,11-4.2,11-10v-2"/>
		<path class="st3" d="M4,12.5c0-1.1,0.9-2,2-2s2,0.9,2,2"/>
		<path class="st3" d="M12.5,14.2c0-0.8,0.7-1.5,1.5-1.5s1.5,0.7,1.5,1.5"/>
		<path class="st3" d="M10,10.5c0-0.6,0.4-1,1-1c0.6,0,1,0.4,1,1"/>
	</g>
</g>
</svg>
