<?xml version="1.0" encoding="utf-8"?>
<!-- Generator: Adobe Illustrator 19.2.0, SVG Export Plug-In . SVG Version: 6.00 Build 0)  -->
<svg version="1.1" id="Layer_1" xmlns="http://www.w3.org/2000/svg" xmlns:xlink="http://www.w3.org/1999/xlink" x="0px" y="0px"
	 viewBox="0 0 24 24" style="enable-background:new 0 0 24 24;" xml:space="preserve">
<style type="text/css">
	.st0{display:none;}
	.st1{display:inline;}
	.st2{fill:none;stroke:#000000;stroke-linejoin:round;stroke-miterlimit:10;}
	.st3{fill:none;stroke:#000000;stroke-linecap:round;stroke-linejoin:round;stroke-miterlimit:10;}
</style>
<g id="Filled_Icons" class="st0">
	<g class="st1">
		<g>
			<path d="M20.9,19c0-0.2,0.1-0.3,0.1-0.5V10H3v8.5c0,0.2,0,0.3,0.1,0.5H8v-5.5C8,13.2,8.2,13,8.5,13h7c0.3,0,0.5,0.2,0.5,0.5V19
				H20.9z"/>
			<path d="M15.5,20h-7H3.3c0.6,1.7,2.3,3,4.2,3h9c2,0,3.6-1.3,4.2-3H15.5z"/>
			<path d="M12,1C6.7,1,3,4.3,3,9h18C21,4.3,17.3,1,12,1z M17.9,7.3c-0.1,0.1-0.2,0.2-0.4,0.2l-11,0c-0.2,0-0.3-0.1-0.4-0.2
				C6,7.2,6,7,6,6.9c0.7-2.7,3-4.4,6-4.4c3,0,5.3,1.7,6,4.4C18,7,18,7.2,17.9,7.3z"/>
		</g>
		<g>
			<path d="M13,18h-2c-0.3,0-0.5-0.2-0.5-0.5S10.7,17,11,17h2c0.3,0,0.5,0.2,0.5,0.5S13.3,18,13,18z"/>
		</g>
		<g>
			<path d="M13,16h-2c-0.3,0-0.5-0.2-0.5-0.5S10.7,15,11,15h2c0.3,0,0.5,0.2,0.5,0.5S13.3,16,13,16z"/>
		</g>
	</g>
</g>
<g id="Outline_Icons">
	<g>
		<path class="st2" d="M3.5,9c0-4.7,3.8-7.5,8.5-7.5c4.7,0,8.5,2.8,8.5,7.5v9.5c0,2.2-1.8,4-4,4h-9c-2.2,0-4-1.8-4-4V9z"/>
		<path class="st2" d="M6.5,7.5c0.7-2.7,3-4,5.5-4c2.5,0,4.9,1.4,5.5,4L6.5,7.5z"/>
		<line class="st2" x1="3.5" y1="9.5" x2="20.5" y2="9.5"/>
		<line class="st2" x1="3.6" y1="19.5" x2="20.4" y2="19.5"/>
		<rect x="8.5" y="13.5" class="st2" width="7" height="6"/>
		<line class="st3" x1="11" y1="17.5" x2="13" y2="17.5"/>
		<line class="st3" x1="11" y1="15.5" x2="13" y2="15.5"/>
	</g>
</g>
</svg>
