<?xml version="1.0" encoding="utf-8"?>
<!-- Generator: Adobe Illustrator 19.2.0, SVG Export Plug-In . SVG Version: 6.00 Build 0)  -->
<svg version="1.1" id="Layer_1" xmlns="http://www.w3.org/2000/svg" xmlns:xlink="http://www.w3.org/1999/xlink" x="0px" y="0px"
	 viewBox="0 0 24 24" style="enable-background:new 0 0 24 24;" xml:space="preserve">
<style type="text/css">
	.st0{display:none;}
	.st1{display:inline;}
	.st2{fill:none;stroke:#000000;stroke-linejoin:round;stroke-miterlimit:10;}
	.st3{fill:none;stroke:#000000;stroke-linecap:round;stroke-linejoin:round;stroke-miterlimit:10;}
</style>
<g id="Filled_Icons" class="st0">
	<g class="st1">
		<path d="M22.3,24l-8.1-9H8.7l-8.1,9H11v-3c0-0.3,0.2-0.5,0.5-0.5S12,20.7,12,21v3H22.3z M11.5,18c-0.3,0-0.5-0.2-0.5-0.5v-1
			c0-0.3,0.2-0.5,0.5-0.5s0.5,0.2,0.5,0.5v1C12,17.8,11.8,18,11.5,18z"/>
		<path d="M8,14.3V12c0-2.3,1.5-4,3.5-4c2,0,3.5,1.7,3.5,4v2.3l8,8.9V12c0-6.6-5.2-12-11.5-12C5.2,0,0,5.4,0,12v11.2L8,14.3z"/>
	</g>
</g>
<g id="Outline_Icons">
	<g>
		<polygon class="st2" points="14.5,14.5 8.5,14.5 0.5,23.5 22.5,23.5 		"/>
		<path class="st2" d="M0.5,12c0-6.4,4.9-11.5,11-11.5s11,5.1,11,11.5v11.5h-22V12z"/>
		<path class="st2" d="M8.5,12c0-1.9,1.2-3.5,3-3.5c1.9,0,3,1.6,3,3.5v2.5h-6V12z"/>
		<line class="st3" x1="11.5" y1="20.5" x2="11.5" y2="23.5"/>
		<line class="st3" x1="11.5" y1="16.5" x2="11.5" y2="17.5"/>
	</g>
</g>
</svg>
