<?xml version="1.0" encoding="utf-8"?>
<!-- Generator: Adobe Illustrator 19.2.0, SVG Export Plug-In . SVG Version: 6.00 Build 0)  -->
<svg version="1.1" id="Layer_1" xmlns="http://www.w3.org/2000/svg" xmlns:xlink="http://www.w3.org/1999/xlink" x="0px" y="0px"
	 viewBox="0 0 24 24" style="enable-background:new 0 0 24 24;" xml:space="preserve">
<style type="text/css">
	.st0{display:none;}
	.st1{display:inline;}
	.st2{fill:none;stroke:#000000;stroke-linecap:round;stroke-linejoin:round;stroke-miterlimit:10;}
</style>
<g id="Filled_Icons" class="st0">
	<g class="st1">
		<path d="M7.8,0C7.3-0.1,6.7,0.2,6.5,0.7L0,22.7c-0.2,0.5,0.1,1.1,0.7,1.2c0.1,0,0.2,0,0.3,0c0.4,0,0.8-0.3,1-0.7l6.5-22
			C8.6,0.8,8.3,0.2,7.8,0z"/>
		<path d="M24,22.7l-6.5-22c-0.2-0.5-0.7-0.8-1.2-0.7c-0.5,0.2-0.8,0.7-0.7,1.2l6.5,22c0.1,0.4,0.5,0.7,1,0.7c0.1,0,0.2,0,0.3,0
			C23.8,23.8,24.1,23.3,24,22.7z"/>
		<path d="M12,18.5c-0.6,0-1,0.4-1,1V23c0,0.6,0.4,1,1,1c0.6,0,1-0.4,1-1v-3.5C13,19,12.6,18.5,12,18.5z"/>
		<path d="M12,10.5c-0.6,0-1,0.4-1,1v4c0,0.6,0.4,1,1,1c0.6,0,1-0.4,1-1v-4C13,11,12.6,10.5,12,10.5z"/>
		<path d="M12,3.5c-0.6,0-1,0.4-1,1v3c0,0.6,0.4,1,1,1c0.6,0,1-0.4,1-1v-3C13,4,12.6,3.5,12,3.5z"/>
		<path d="M12,0c-0.6,0-1,0.4-1,1v0.5c0,0.6,0.4,1,1,1c0.6,0,1-0.4,1-1V1C13,0.5,12.6,0,12,0z"/>
	</g>
</g>
<g id="Outline_Icons">
	<g>
		<line class="st2" x1="7.5" y1="0.5" x2="0.5" y2="23.5"/>
		<line class="st2" x1="15.5" y1="0.5" x2="22.5" y2="23.5"/>
		<line class="st2" x1="11.5" y1="19.5" x2="11.5" y2="23.5"/>
		<line class="st2" x1="11.5" y1="11.5" x2="11.5" y2="15.5"/>
		<line class="st2" x1="11.5" y1="4.5" x2="11.5" y2="7.5"/>
		<line class="st2" x1="11.5" y1="0.5" x2="11.5" y2="1.5"/>
	</g>
</g>
</svg>
