<?xml version="1.0" encoding="utf-8"?>
<!-- Generator: Adobe Illustrator 19.2.0, SVG Export Plug-In . SVG Version: 6.00 Build 0)  -->
<svg version="1.1" id="Layer_1" xmlns="http://www.w3.org/2000/svg" xmlns:xlink="http://www.w3.org/1999/xlink" x="0px" y="0px"
	 viewBox="0 0 24 24" style="enable-background:new 0 0 24 24;" xml:space="preserve">
<style type="text/css">
	.st0{display:none;}
	.st1{display:inline;}
	.st2{fill:none;stroke:#000000;stroke-linecap:round;stroke-linejoin:round;stroke-miterlimit:10;}
</style>
<g id="Filled_Icons" class="st0">
	<g class="st1">
		<path d="M17,10V9.5C17,4.8,13.2,1,8.5,1C3.8,1,0,4.8,0,9.5S3.8,18,8.5,18H9v-3H8.5c-0.6,0-1.1-0.1-1.7-0.2
			c-0.3-0.1-0.4-0.4-0.3-0.6c0.1-0.3,0.4-0.4,0.6-0.3C7.5,13.9,8,14,8.5,14H9v-3H8.5C7.7,11,7,10.3,7,9.5S7.7,8,8.5,8
			C9.3,8,10,8.7,10,9.5V10v1v9c0,0,0,0,0,0l0,4l7,0V10z M4.2,12.1c-0.1,0-0.1,0.1-0.2,0.1c-0.2,0-0.4-0.1-0.4-0.3
			C3.2,11.2,3,10.4,3,9.5c0-0.8,0.2-1.6,0.5-2.4C3.7,6.9,4,6.8,4.2,6.9C4.5,7,4.6,7.3,4.4,7.6C4.1,8.2,4,8.8,4,9.5
			c0,0.7,0.2,1.4,0.5,2C4.6,11.7,4.5,12,4.2,12.1z M11.1,5.2c-0.1,0.2-0.4,0.4-0.7,0.2c-1.2-0.6-2.7-0.6-3.9,0
			c-0.1,0-0.1,0.1-0.2,0.1c-0.2,0-0.4-0.1-0.4-0.3C5.7,5,5.8,4.7,6.1,4.6c1.5-0.7,3.3-0.8,4.8,0C11.1,4.7,11.2,5,11.1,5.2z M14,22.5
			c0,0.3-0.2,0.5-0.5,0.5S13,22.8,13,22.5v-5c0-0.3,0.2-0.5,0.5-0.5s0.5,0.2,0.5,0.5V22.5z M14,13.5c0,0.3-0.2,0.5-0.5,0.5
			S13,13.8,13,13.5v-5C13,8.3,13.2,8,13.5,8S14,8.3,14,8.5V13.5z"/>
		<path d="M18,11v3h4.5c0.3,0,0.5,0.2,0.5,0.5S22.8,15,22.5,15H18v3h6v-7C24,11,18,11,18,11z"/>
	</g>
</g>
<g id="Outline_Icons">
	<g>
		<path class="st2" d="M16.5,23.5v-14c0-4.4-3.6-8-8-8s-8,3.6-8,8s3.6,8,8,8h2"/>
		<line class="st2" x1="16.5" y1="11.5" x2="23.5" y2="11.5"/>
		<line class="st2" x1="16.5" y1="17.5" x2="23.5" y2="17.5"/>
		<path class="st2" d="M10.5,11.5h-2c-1.1,0-2-0.9-2-2s0.9-2,2-2s2,0.9,2,2v1v13"/>
		<line class="st2" x1="13.5" y1="22.5" x2="13.5" y2="17.5"/>
		<line class="st2" x1="13.5" y1="13.5" x2="13.5" y2="8.5"/>
		<path class="st2" d="M4,11.7C3.7,11,3.5,10.3,3.5,9.5C3.5,8.7,3.7,8,4,7.3"/>
		<path class="st2" d="M7,14.3c0.5,0.1,1,0.2,1.5,0.2H10"/>
		<path class="st2" d="M6.3,5C7,4.7,7.7,4.5,8.5,4.5c0.8,0,1.5,0.2,2.2,0.5"/>
		<line class="st2" x1="18.5" y1="14.5" x2="22.5" y2="14.5"/>
	</g>
</g>
</svg>
