<?xml version="1.0" encoding="utf-8"?>
<!-- Generator: Adobe Illustrator 19.2.0, SVG Export Plug-In . SVG Version: 6.00 Build 0)  -->
<svg version="1.1" id="Layer_1" xmlns="http://www.w3.org/2000/svg" xmlns:xlink="http://www.w3.org/1999/xlink" x="0px" y="0px"
	 viewBox="0 0 24 24" style="enable-background:new 0 0 24 24;" xml:space="preserve">
<style type="text/css">
	.st0{display:none;}
	.st1{display:inline;}
	.st2{fill:none;stroke:#000000;stroke-linecap:round;stroke-linejoin:round;stroke-miterlimit:10;}
</style>
<g id="Filled_Icons" class="st0">
	<g class="st1">
		<path d="M23.8,0.2C23.7,0,23.5,0,23.3,0c-0.4,0.1-4.4,0.8-5.6,1.9c-0.5,0.5-6.8,6.8-9.9,9.9l4.2,4.2L22,6.2
			C23.1,5,23.8,1,23.9,0.6C23.9,0.4,23.9,0.3,23.8,0.2z"/>
		<path d="M11.4,16.8l-4.2-4.2c-0.7,0.7-1.1,1.1-1.1,1.1c-0.2,0.2-0.2,0.5,0,0.7l3.5,3.5C9.7,17.9,9.9,18,10,18
			c0.1,0,0.3-0.1,0.4-0.1L11.4,16.8z"/>
		<path d="M16.1,14.3c0-0.2-0.1-0.4-0.3-0.5c-0.2-0.1-0.4,0-0.5,0.1l-4.6,4.6c-0.1,0.1-0.1,0.2-0.1,0.3L10,23.2
			c0,0.2,0.1,0.4,0.3,0.5c0.1,0,0.1,0,0.2,0c0.1,0,0.3-0.1,0.4-0.1l3.5-3.5c0.5-0.5,1.3-1.5,1.5-2.3c0.3-0.9,0.3-2.2,0.2-3
			C16.2,14.6,16.1,14.4,16.1,14.3z"/>
		<path d="M5.6,13.1l4.5-4.6c0.1-0.1,0.2-0.2,0.2-0.4c0,0,0-0.5-0.6-0.5c-0.4,0-2.7,0-3.7,0.3C5.3,8.2,4.3,9.1,3.8,9.5l-3.5,3.5
			c-0.2,0.2-0.2,0.4-0.1,0.6c0.1,0.2,0.3,0.3,0.4,0.3c0,0,0.1,0,0.1,0l4.6-0.7C5.4,13.2,5.5,13.2,5.6,13.1z"/>
		<path d="M6.8,15.7C6,14.9,4.7,15,3.6,16.1c-1,1-2.1,5.4-2.3,5.9c0,0.2,0,0.4,0.1,0.5c0.1,0.1,0.2,0.1,0.4,0.1c0,0,0.1,0,0.1,0
			c0.5-0.1,4.8-1.2,5.9-2.3c1.1-1.1,1.2-2.3,0.4-3.2L6.8,15.7z"/>
	</g>
</g>
<g id="Outline_Icons">
	<g>
		<path class="st2" d="M6.5,13.9c0,0,10.9-11,11.7-11.7c1.1-1.1,5.3-1.8,5.3-1.8s-0.7,4.2-1.8,5.3C20.2,7.2,10,17.5,10,17.5
			L6.5,13.9z"/>
		<line class="st2" x1="7.9" y1="12.5" x2="11.4" y2="16.1"/>
		<path class="st2" d="M15.3,12.2c0,0.7,0,3.5-0.4,4.6c-0.2,0.7-0.9,1.6-1.4,2.1c-1.4,1.4-3.5,3.5-3.5,3.5l0.7-5.6"/>
		<path class="st2" d="M11.8,8.6c-0.7,0-3.6,0-4.6,0.3c-0.7,0.2-1.6,1-2.1,1.4c-1.4,1.4-3.5,3.5-3.5,3.5l5.6-0.7"/>
		<path class="st2" d="M7.9,17.5c0.7,0.7,0.4,1.7-0.4,2.5c-1,1-5.7,2.1-5.7,2.1S3,17.4,4,16.4c0.8-0.8,1.8-1.1,2.5-0.4"/>
	</g>
</g>
</svg>
