<?xml version="1.0" encoding="utf-8"?>
<!-- Generator: Adobe Illustrator 19.2.0, SVG Export Plug-In . SVG Version: 6.00 Build 0)  -->
<svg version="1.1" id="Layer_1" xmlns="http://www.w3.org/2000/svg" xmlns:xlink="http://www.w3.org/1999/xlink" x="0px" y="0px"
	 viewBox="0 0 24 24" style="enable-background:new 0 0 24 24;" xml:space="preserve">
<style type="text/css">
	.st0{display:none;}
	.st1{display:inline;}
	.st2{fill:none;stroke:#000000;stroke-linecap:round;stroke-linejoin:round;stroke-miterlimit:10;}
</style>
<g id="Filled_Icons" class="st0">
	<g class="st1">
		<path d="M9,14v3.5C9,17.8,9.2,18,9.5,18H11v5.5c0,0.3,0.2,0.5,0.5,0.5s0.5-0.2,0.5-0.5V18h1.5c0.3,0,0.5-0.2,0.5-0.5V14
			C14,14,9,14,9,14z"/>
		<path d="M6,4.5C6,4,6.1,3.5,6.2,3H2.5C1.7,3,1,3.7,1,4.5S1.7,6,2.5,6H6V4.5z"/>
		<path d="M20.5,3h-3.7C16.9,3.5,17,4,17,4.5V6h3.5C21.3,6,22,5.3,22,4.5S21.3,3,20.5,3z"/>
		<path d="M11.5,0C9,0,7,2,7,4.5v8C7,12.8,7.2,13,7.5,13h8c0.3,0,0.5-0.2,0.5-0.5v-8C16,2,14,0,11.5,0z M13,6h-3
			C9.7,6,9.5,5.8,9.5,5.5S9.7,5,10,5h3c0.3,0,0.5,0.2,0.5,0.5S13.3,6,13,6z M13,4h-3C9.7,4,9.5,3.8,9.5,3.5S9.7,3,10,3h3
			c0.3,0,0.5,0.2,0.5,0.5S13.3,4,13,4z"/>
		<g>
			<path d="M15,22.5c-0.1,0-0.2,0-0.3-0.1c-0.2-0.2-0.3-0.5-0.1-0.7l2-3c0.2-0.3,0.6-0.3,0.8,0l1.6,2.4l1.6-2.4
				c0.2-0.2,0.5-0.3,0.7-0.1c0.2,0.2,0.3,0.5,0.1,0.7l-2,3c-0.2,0.3-0.6,0.3-0.8,0L17,19.9l-1.6,2.4C15.3,22.4,15.2,22.5,15,22.5z"
				/>
		</g>
		<g>
			<path d="M8,22.5c-0.2,0-0.3-0.1-0.4-0.2L6,19.9l-1.6,2.4c-0.2,0.3-0.6,0.3-0.8,0l-2-3c-0.2-0.2-0.1-0.5,0.1-0.7
				c0.2-0.2,0.5-0.1,0.7,0.1L4,21.1l1.6-2.4c0.2-0.3,0.6-0.3,0.8,0l2,3c0.2,0.2,0.1,0.5-0.1,0.7C8.2,22.5,8.1,22.5,8,22.5z"/>
		</g>
	</g>
</g>
<g id="Outline_Icons">
	<g>
		<rect x="9.5" y="12.5" class="st2" width="4" height="5"/>
		<path class="st2" d="M7.5,4.5c0-2.2,1.8-4,4-4s4,1.8,4,4v8h-8V4.5z"/>
		<line class="st2" x1="11.5" y1="17.5" x2="11.5" y2="23.5"/>
		<path class="st2" d="M21.5,4.5c0,0.6-0.4,1-1,1h-5v-2h5C21.1,3.5,21.5,4,21.5,4.5z"/>
		<path class="st2" d="M1.5,4.5c0-0.6,0.4-1,1-1h5v2h-5C1.9,5.5,1.5,5.1,1.5,4.5z"/>
		<line class="st2" x1="10" y1="3.5" x2="13" y2="3.5"/>
		<line class="st2" x1="10" y1="5.5" x2="13" y2="5.5"/>
		<polyline class="st2" points="15,22 17,19 19,22 21,19 		"/>
		<polyline class="st2" points="8,22 6,19 4,22 2,19 		"/>
	</g>
</g>
</svg>
