<?xml version="1.0" encoding="utf-8"?>
<!-- Generator: Adobe Illustrator 19.2.0, SVG Export Plug-In . SVG Version: 6.00 Build 0)  -->
<svg version="1.1" id="Layer_1" xmlns="http://www.w3.org/2000/svg" xmlns:xlink="http://www.w3.org/1999/xlink" x="0px" y="0px"
	 viewBox="0 0 24 24" style="enable-background:new 0 0 24 24;" xml:space="preserve">
<style type="text/css">
	.st0{display:none;}
	.st1{display:inline;}
	.st2{fill:none;stroke:#000000;stroke-linejoin:round;stroke-miterlimit:10;}
	.st3{fill:none;stroke:#000000;stroke-linecap:round;stroke-linejoin:round;stroke-miterlimit:10;}
</style>
<g id="Filled_Icons" class="st0">
	<g class="st1">
		<path d="M11.7,10h2.7l0.9-3.4c-0.3,0-0.5-0.1-0.8-0.1h-3.7L11.7,10z"/>
		<path d="M9.2,2.7l1.3,2.8H12l-1.2-2.8c-0.6-1.4-2-2.1-3.4-1.8C8.2,1.3,8.9,1.9,9.2,2.7z"/>
		<path d="M2.8,8.7c0.2,0,0.4,0,0.6-0.1l1.3-0.4l1.2,4.4C5.3,13.1,4,14.4,3,16.3c0.3,0,0.5,0.1,0.8,0.2c1,0.4,2,0.7,3.1,0.9
			c1.2-1.7,3.2-2.9,5.1-2.9c1.9,0,3.9,1.2,5.1,2.9c1.1-0.2,2.1-0.5,3.1-0.9c0.3-0.1,0.6-0.2,0.8-0.2c-0.6-1.2-1.4-2.4-2-2.9V11
			c0-0.1,0-0.2,0-0.2l3,1.7c0.2,0.1,0.3,0.1,0.5,0.1c0.4,0,0.7-0.2,0.9-0.5c0.3-0.5,0.1-1.1-0.4-1.4l-5.4-3.1c0,0,0,0-0.1,0
			c-0.4-0.3-0.8-0.5-1.2-0.7l-0.9,3.7C15.2,10.9,15,11,14.8,11h-3.5c-0.2,0-0.4-0.2-0.5-0.4L9.8,6.4L8.3,3.1C7.7,1.9,6.2,1.3,5,1.9
			L1.8,3.3c-1.4,0.5-2.1,2-1.7,3.4C0.5,7.9,1.5,8.7,2.8,8.7z M4.5,4.5C4.8,4.5,5,4.7,5,5S4.8,5.5,4.5,5.5S4,5.3,4,5S4.2,4.5,4.5,4.5
			z"/>
		<path d="M23.8,18.8c-0.4-1-1.3-1.6-2.3-1.6c-0.3,0-0.6,0.1-0.9,0.2c-5.4,2.1-11.7,2.1-17.1,0c-0.3-0.1-0.6-0.2-0.9-0.2
			c-1,0-2,0.6-2.3,1.6c-0.2,0.6-0.2,1.3,0,1.9C0.5,21.3,1,21.8,1.6,22c3.3,1.3,6.8,2,10.4,2c3.6,0,7.1-0.7,10.4-2
			c0.6-0.2,1.1-0.7,1.4-1.3C24,20.1,24,19.4,23.8,18.8z"/>
	</g>
</g>
<g id="Outline_Icons">
	<g>
		<g>
			<g>
				<path d="M4.5,4.5C4.2,4.5,4,4.7,4,5s0.2,0.5,0.5,0.5S5,5.3,5,5S4.8,4.5,4.5,4.5L4.5,4.5z"/>
			</g>
		</g>
		<path class="st2" d="M5.6,18.6C6.4,16.2,9.3,14,12,14c2.7,0,5.5,2.1,6.3,4.7"/>
		<path class="st2" d="M2.9,17.7c1.1-3,3.5-5,3.5-5L5,7.5L3.2,8.1C2.1,8.3,0.9,7.7,0.6,6.6C0.2,5.4,0.9,4.2,2,3.8l3.2-1.4
			c1-0.5,2.2,0,2.6,1L9.5,7h5c2.2,0,4,1.8,4,4v2.6c0.6,0.3,2,2.2,2.6,4.1"/>
		<line class="st3" x1="17.5" y1="8.3" x2="22.9" y2="11.4"/>
		<polygon class="st2" points="15,7 9.5,7 10.5,11 14,11 		"/>
		<g>
			<path class="st2" d="M12,23.5c-3.5,0-7-0.6-10.2-1.9c-1-0.4-1.5-1.6-1.1-2.6c0.4-1,1.6-1.5,2.6-1.1c5.6,2.2,11.9,2.2,17.5,0
				c1-0.4,2.2,0.1,2.6,1.1c0.4,1-0.1,2.2-1.1,2.6C18.9,22.9,15.5,23.5,12,23.5z"/>
		</g>
		<path class="st2" d="M5.5,2.2l1.6-0.6C8.4,1,9.9,1.6,10.4,2.9L12.1,7"/>
	</g>
</g>
</svg>
