<?xml version="1.0" encoding="utf-8"?>
<!-- Generator: Adobe Illustrator 19.2.0, SVG Export Plug-In . SVG Version: 6.00 Build 0)  -->
<svg version="1.1" id="Layer_1" xmlns="http://www.w3.org/2000/svg" xmlns:xlink="http://www.w3.org/1999/xlink" x="0px" y="0px"
	 viewBox="0 0 24 24" style="enable-background:new 0 0 24 24;" xml:space="preserve">
<style type="text/css">
	.st0{display:none;}
	.st1{display:inline;}
	.st2{fill:none;stroke:#000000;stroke-linejoin:round;stroke-miterlimit:10;}
	.st3{fill:none;stroke:#000000;stroke-linecap:round;stroke-linejoin:round;stroke-miterlimit:10;}
</style>
<g id="Filled_Icons" class="st0">
	<g class="st1">
		<path d="M22,21h-1.1c-0.2-1.1-1.2-2-2.4-2s-2.2,0.9-2.4,2H15c-0.2-1.1-1.2-2-2.4-2s-2.2,0.9-2.4,2H8.9c-0.2-1.1-1.2-2-2.4-2
			s-2.2,0.9-2.4,2H3c-0.3,0-0.5,0.2-0.5,0.5S2.7,22,3,22h1c0.2,1.1,1.2,2,2.4,2s2.2-0.9,2.4-2h1.1c0.2,1.1,1.2,2,2.4,2
			s2.2-0.9,2.4-2h1.1c0.2,1.1,1.2,2,2.4,2s2.2-0.9,2.4-2H22c0.3,0,0.5-0.2,0.5-0.5S22.3,21,22,21z"/>
		<path d="M17,12.2l-2.2-0.4c-0.5-0.1-0.9-0.4-1.1-0.7H8.5C8.2,11,8,10.8,8,10.5S8.2,10,8.5,10h5l0.1-1H9.5C9.2,9,9,8.8,9,8.5
			S9.2,8,9.5,8h4.2l0.1-1h-3.3C10.2,7,10,6.8,10,6.5S10.2,6,10.5,6h3.4L14,5h-3.5C10.2,5,10,4.8,10,4.5S10.2,4,10.5,4h3.6l0.2-2.3
			c0-0.4-0.1-0.8-0.4-1.2c-0.2-0.3-0.6-0.5-1-0.5H5.1C4.7,0,4.3,0.2,4,0.5S3.6,1.3,3.6,1.7L5,12.5l-0.7,3.6c-0.1,0.4,0,0.9,0.3,1.3
			C4.9,17.8,5.3,18,5.8,18h10.8c1.6,0,2.9-1.3,2.9-2.9C19.5,13.6,18.4,12.3,17,12.2z"/>
	</g>
</g>
<g id="Outline_Icons">
	<g>
		<path class="st2" d="M4.1,1.6c0-0.3,0.1-0.6,0.2-0.8C4.5,0.6,4.8,0.5,5,0.5h7.8c0.3,0,0.6,0.1,0.7,0.3c0.2,0.2,0.3,0.5,0.3,0.8
			L13,10.2c0,1,0.7,1.9,1.7,2l2.1,0.4c1.2,0.2,2.1,1.2,2.1,2.4c0,1.3-1.1,2.4-2.4,2.4H5.8c-0.3,0-0.6-0.1-0.8-0.4
			c-0.2-0.2-0.3-0.6-0.2-0.9l0.7-3.8L4.1,1.6z"/>
		<circle class="st2" cx="6.5" cy="21.5" r="2"/>
		<circle class="st2" cx="12.5" cy="21.5" r="2"/>
		<circle class="st2" cx="18.5" cy="21.5" r="2"/>
		<line class="st3" x1="3" y1="21.5" x2="22" y2="21.5"/>
		<line class="st3" x1="13.5" y1="4.5" x2="10.5" y2="4.5"/>
		<line class="st3" x1="13.4" y1="6.5" x2="10.5" y2="6.5"/>
		<line class="st3" x1="13.1" y1="8.5" x2="9.5" y2="8.5"/>
		<line class="st3" x1="13" y1="10.5" x2="8.5" y2="10.5"/>
	</g>
</g>
</svg>
