<?xml version="1.0" encoding="utf-8"?>
<!-- Generator: Adobe Illustrator 19.2.0, SVG Export Plug-In . SVG Version: 6.00 Build 0)  -->
<svg version="1.1" id="Layer_1" xmlns="http://www.w3.org/2000/svg" xmlns:xlink="http://www.w3.org/1999/xlink" x="0px" y="0px"
	 viewBox="0 0 24 24" style="enable-background:new 0 0 24 24;" xml:space="preserve">
<style type="text/css">
	.st0{display:none;}
	.st1{display:inline;}
	.st2{fill:none;stroke:#000000;stroke-linejoin:round;stroke-miterlimit:10;}
</style>
<g id="Filled_Icons" class="st0">
	<g class="st1">
		<path d="M3.7,19.1c-0.2-0.2-0.4-0.5-0.6-0.8l-2.3,1.5c-0.5,0.4-0.9,1-0.9,1.7c-0.1,0.7,0.2,1.3,0.6,1.8C1,23.8,1.6,24,2.2,24
			l0.1,0c0.6,0,1.3-0.4,1.7-0.9l1.5-2.1c-0.2-0.1-0.3-0.2-0.5-0.4L3.7,19.1z M2.2,23.5L2.2,23.5L2.2,23.5L2.2,23.5z"/>
		<path d="M22.8,1.4c-0.4-0.4-1-0.7-1.6-0.7l-0.1,0c-0.6,0-1.2,0.4-1.7,0.9l-2.1,2.9c0.2,0.1,0.4,0.3,0.6,0.4l1.4,1.4
			c0.2,0.2,0.3,0.4,0.5,0.6l2.9-2.1c0.5-0.4,0.8-1,0.9-1.6C23.5,2.5,23.3,1.9,22.8,1.4z"/>
		<path d="M17.2,5.7c-0.9-0.9-2.6-0.9-3.5,0l-9.2,9.2c-1,1-1,2.6,0,3.5l1.4,1.4c0.5,0.5,1.1,0.7,1.8,0.7s1.3-0.3,1.8-0.7l9.2-9.2
			c0.5-0.5,0.7-1.1,0.7-1.8c0-0.7-0.3-1.3-0.7-1.8L17.2,5.7z"/>
	</g>
</g>
<g id="Outline_Icons">
	<g>
		<path class="st2" d="M18.2,7.4c0.8,0.8,0.8,2,0,2.8L9,19.5c-0.8,0.8-2,0.8-2.8,0l-1.4-1.4c-0.8-0.8-0.8-2,0-2.8L14,6
			c0.8-0.8,2-0.8,2.8,0L18.2,7.4z"/>
		<path class="st2" d="M22.5,1.8C22.8,2.1,23,2.6,23,3.1s-0.3,1-0.7,1.3l-4.1,3L16.8,6l3-4.1c0.3-0.4,0.8-0.6,1.3-0.7
			C21.6,1.2,22.1,1.4,22.5,1.8z"/>
		<path class="st2" d="M1,23c0.4,0.4,0.8,0.6,1.4,0.5c0.5,0,1-0.3,1.4-0.7l2.4-3.4l-1.4-1.4l-3.5,2.3c-0.4,0.3-0.7,0.8-0.7,1.3
			C0.5,22.1,0.6,22.6,1,23z"/>
	</g>
</g>
</svg>
