<?xml version="1.0" encoding="utf-8"?>
<!-- Generator: Adobe Illustrator 19.2.0, SVG Export Plug-In . SVG Version: 6.00 Build 0)  -->
<svg version="1.1" id="Layer_1" xmlns="http://www.w3.org/2000/svg" xmlns:xlink="http://www.w3.org/1999/xlink" x="0px" y="0px"
	 viewBox="0 0 24 24" style="enable-background:new 0 0 24 24;" xml:space="preserve">
<style type="text/css">
	.st0{display:none;}
	.st1{display:inline;}
	.st2{fill:none;stroke:#000000;stroke-linecap:round;stroke-linejoin:round;stroke-miterlimit:10;}
</style>
<g id="Filled_Icons" class="st0">
	<g class="st1">
		<path d="M23.8,8.6L12.3,0.1c-0.2-0.1-0.4-0.1-0.6,0L0.2,8.6C0.1,8.7,0,8.8,0,9v3.5c0,0.2,0.1,0.4,0.3,0.4C0.3,13,0.4,13,0.5,13
			s0.2,0,0.3-0.1L12,4.6l11.2,8.3c0.2,0.1,0.4,0.1,0.5,0c0.2-0.1,0.3-0.3,0.3-0.4V9C24,8.8,23.9,8.7,23.8,8.6z"/>
	</g>
	<path class="st1" d="M23.5,23H22v-9.7L12,5.9L2,13.3V14h4.6c0.3,0,0.5,0.2,0.5,0.5S6.9,15,6.6,15H2v1h4.6c0.3,0,0.5,0.2,0.5,0.5
		S6.9,17,6.6,17H2v1h4.6c0.3,0,0.5,0.2,0.5,0.5S6.9,19,6.6,19H2v1h10.6c0.3,0,0.5,0.2,0.5,0.5S12.9,21,12.6,21H2v1h10.6
		c0.3,0,0.5,0.2,0.5,0.5S12.9,23,12.6,23H0.5C0.2,23,0,23.2,0,23.5S0.2,24,0.5,24h23c0.3,0,0.5-0.2,0.5-0.5S23.8,23,23.5,23z
		 M14.7,17.9C14.6,18,14.5,18,14.4,18s-0.3-0.1-0.4-0.2c-0.2-0.2-0.2-0.5,0.1-0.7c0.4-0.4,0.6-0.7,0.7-1c0-0.4-0.3-0.8-0.7-1.3
		c-0.5-0.6-1.1-1.2-1-2c0-0.6,0.4-1.1,1-1.7c0.2-0.2,0.5-0.2,0.7,0.1c0.2,0.2,0.2,0.5-0.1,0.7c-0.4,0.4-0.7,0.7-0.7,1
		c0,0.4,0.3,0.8,0.8,1.3c0.5,0.6,1,1.2,1,2C15.7,16.8,15.4,17.3,14.7,17.9z M17.7,17.9C17.6,18,17.5,18,17.4,18s-0.3-0.1-0.4-0.2
		c-0.2-0.2-0.2-0.5,0.1-0.7c0.4-0.4,0.6-0.7,0.7-1c0-0.4-0.3-0.8-0.7-1.3c-0.5-0.6-1.1-1.2-1-2c0-0.6,0.4-1.1,1-1.7
		c0.2-0.2,0.5-0.2,0.7,0.1c0.2,0.2,0.2,0.5-0.1,0.7c-0.4,0.4-0.7,0.7-0.7,1c0,0.4,0.3,0.8,0.8,1.3c0.5,0.6,1,1.2,1,2
		C18.7,16.8,18.4,17.3,17.7,17.9z"/>
</g>
<g id="Outline_Icons">
	<g>
		<line class="st2" x1="0.5" y1="23.5" x2="23.5" y2="23.5"/>
		<polyline class="st2" points="2.5,11 2.5,23.5 21.5,23.5 21.5,11 		"/>
		<polygon class="st2" points="23.5,9 12,0.5 0.5,9 0.5,12.5 12,4 23.5,12.5 		"/>
		<line class="st2" x1="2.5" y1="13.5" x2="6.5" y2="13.5"/>
		<line class="st2" x1="2.5" y1="15.5" x2="6.5" y2="15.5"/>
		<line class="st2" x1="2.5" y1="17.5" x2="6.5" y2="17.5"/>
		<line class="st2" x1="2.5" y1="19.5" x2="12.5" y2="19.5"/>
		<line class="st2" x1="2.5" y1="21.5" x2="12.5" y2="21.5"/>
		<path class="st2" d="M14.4,11.5c-3,2.6,3,3.4,0,6"/>
		<path class="st2" d="M17.4,11.5c-3,2.6,3,3.4,0,6"/>
	</g>
</g>
</svg>
