<?xml version="1.0" encoding="utf-8"?>
<!-- Generator: Adobe Illustrator 19.2.0, SVG Export Plug-In . SVG Version: 6.00 Build 0)  -->
<svg version="1.1" id="Layer_1" xmlns="http://www.w3.org/2000/svg" xmlns:xlink="http://www.w3.org/1999/xlink" x="0px" y="0px"
	 viewBox="0 0 24 24" style="enable-background:new 0 0 24 24;" xml:space="preserve">
<style type="text/css">
	.st0{display:none;}
	.st1{display:inline;}
	.st2{fill:none;stroke:#000000;stroke-linecap:round;stroke-linejoin:round;stroke-miterlimit:10;stroke-dasharray:2;}
	.st3{fill:none;stroke:#000000;stroke-linecap:round;stroke-linejoin:round;stroke-miterlimit:10;}
</style>
<g id="Filled_Icon" class="st0">
	<g class="st1">
		<path d="M3.5,15.9c-0.1-0.3-0.4-0.4-0.6-0.3c-0.3,0.1-0.4,0.4-0.3,0.6c0.2,0.7,0.6,1.3,0.9,1.9c0.1,0.1,0.3,0.2,0.4,0.2
			c0.1,0,0.2,0,0.3-0.1c0.2-0.1,0.3-0.5,0.2-0.7C4,17.1,3.7,16.5,3.5,15.9z"/>
		<path d="M2.6,14.7c0.3,0,0.5-0.3,0.4-0.6c0-0.3,0-0.7,0-1c0-0.3,0-0.6,0-0.8c0-0.3-0.2-0.5-0.4-0.5c-0.3,0-0.5,0.2-0.5,0.4
			c0,0.3,0,0.6,0,0.9c0,0.4,0,0.8,0.1,1.2C2.1,14.5,2.3,14.7,2.6,14.7L2.6,14.7z"/>
		<path d="M2.8,10.7c0.1,0,0.1,0,0.2,0c0.2,0,0.4-0.1,0.5-0.3C3.6,10,3.7,9.6,3.9,9.2C4,9,3.9,8.7,3.7,8.6C3.4,8.4,3.1,8.5,3,8.8
			c-0.2,0.4-0.4,0.8-0.5,1.3C2.4,10.3,2.5,10.6,2.8,10.7z"/>
		<path d="M10.5,21.5c-0.6-0.1-1.2-0.2-1.8-0.4c-0.3-0.1-0.5,0-0.6,0.3c-0.1,0.3,0,0.5,0.3,0.6c0.7,0.2,1.4,0.4,2.1,0.5
			c0,0,0,0,0.1,0c0.3,0,0.5-0.2,0.5-0.4C11,21.8,10.8,21.5,10.5,21.5z"/>
		<path d="M7,20.3c-0.5-0.3-1-0.7-1.5-1.2c-0.2-0.2-0.5-0.2-0.7,0s-0.2,0.5,0,0.7c0.5,0.5,1.1,0.9,1.7,1.3c0.1,0.1,0.2,0.1,0.3,0.1
			c0.2,0,0.3-0.1,0.4-0.2C7.3,20.7,7.2,20.4,7,20.3z"/>
		<path d="M11.5,3.6c-0.2,0-0.3,0-0.5,0L13.3,2c0.2-0.2,0.3-0.5,0.1-0.7C13.3,1,13,1,12.7,1.1L9.2,3.6C9.1,3.7,9,3.9,9,4.1
			s0.1,0.3,0.2,0.4L12.7,7c0.1,0,0.2,0.1,0.3,0.1c0.2,0,0.3-0.1,0.4-0.2c0.2-0.2,0.1-0.5-0.1-0.7l-2.2-1.6c0.1,0,0.3,0,0.4,0
			c4.7,0,8.5,3.8,8.5,8.5c0,4.3-3.2,8-7.6,8.4c-0.3,0-0.5,0.3-0.4,0.6c0,0.3,0.2,0.4,0.5,0.4c0,0,0,0,0.1,0c4.8-0.5,8.5-4.6,8.5-9.4
			C21,7.8,16.7,3.6,11.5,3.6z"/>
	</g>
</g>
<g id="Outline_Icons">
	<g>
		<path class="st2" d="M10.5,22c-4.5-0.5-8-4.3-8-8.9c0-1.5,0.3-2.8,1-4"/>
		<path class="st3" d="M10.5,4.1c0.3,0,0.7-0.1,1-0.1c5,0,9,4,9,9c0,4.6-3.5,8.5-8,8.9"/>
		<polyline class="st3" points="13,1.6 9.5,4.1 13,6.6 		"/>
	</g>
</g>
</svg>
