<?xml version="1.0" encoding="utf-8"?>
<!-- Generator: Adobe Illustrator 19.2.0, SVG Export Plug-In . SVG Version: 6.00 Build 0)  -->
<svg version="1.1" id="Layer_1" xmlns="http://www.w3.org/2000/svg" xmlns:xlink="http://www.w3.org/1999/xlink" x="0px" y="0px"
	 viewBox="0 0 24 24" style="enable-background:new 0 0 24 24;" xml:space="preserve">
<style type="text/css">
	.st0{display:none;}
	.st1{display:inline;}
	.st2{fill:none;stroke:#000000;stroke-linecap:round;stroke-linejoin:round;stroke-miterlimit:10;}
</style>
<g id="Filled_Icon" class="st0">
	<g class="st1">
		<path d="M11,16.5V12c0-2.2-1.8-4-4-4c-2.2,0-4,1.8-4,4v4.5C3,16.8,3.2,17,3.5,17h7C10.8,17,11,16.8,11,16.5z M9,13.5
			C9,13.8,8.8,14,8.5,14h-3C5.2,14,5,13.8,5,13.5V12c0-1.1,0.9-2,2-2c1.1,0,2,0.9,2,2V13.5z"/>
		<path d="M16,8c-2.2,0-4,1.8-4,4v4.5c0,0.3,0.2,0.5,0.5,0.5h7c0.3,0,0.5-0.2,0.5-0.5V12C20,9.8,18.2,8,16,8z M18,13.5
			c0,0.3-0.2,0.5-0.5,0.5h-3c-0.3,0-0.5-0.2-0.5-0.5V12c0-1.1,0.9-2,2-2c1.1,0,2,0.9,2,2V13.5z"/>
		<path d="M12,22.3L12,22.3l-1-2.5c-0.1-0.3-0.4-0.4-0.6-0.3c-0.3,0.1-0.4,0.4-0.3,0.6l0.7,1.7c-1.3-0.4-2.5-1.9-3.3-4
			c-0.1-0.3-0.4-0.4-0.6-0.3c-0.3,0.1-0.4,0.4-0.3,0.6c0.8,2.1,1.9,3.7,3.3,4.4L8.3,23c-0.3,0.1-0.4,0.4-0.3,0.6
			C8.1,23.9,8.3,24,8.5,24c0.1,0,0.1,0,0.2,0l3-1C11.9,22.9,12.1,22.6,12,22.3z"/>
		<path d="M11,1.7L11,1.7L11,1.7l1,2.5c0.1,0.2,0.3,0.3,0.5,0.3c0.1,0,0.1,0,0.2,0c0.3-0.1,0.4-0.4,0.3-0.6l-0.7-1.7
			c1.4,0.5,2.6,2.1,3.4,4.5c0.1,0.3,0.4,0.4,0.6,0.3c0.3-0.1,0.4-0.4,0.3-0.6c-0.8-2.4-2-4.1-3.4-4.9L14.7,1
			c0.3-0.1,0.4-0.4,0.3-0.6c-0.1-0.3-0.4-0.4-0.6-0.3l-3,1c0,0,0,0,0,0C11.1,1.1,10.9,1.4,11,1.7z"/>
	</g>
</g>
<g id="Outline_Icons">
	<g>
		<path class="st2" d="M3.5,16.5V12c0-1.9,1.6-3.5,3.5-3.5c1.9,0,3.5,1.6,3.5,3.5v4.5"/>
		<path class="st2" d="M8.5,12c0-0.8-0.7-1.5-1.5-1.5c-0.8,0-1.5,0.7-1.5,1.5v1.5h3V12z"/>
		<path class="st2" d="M12.5,16.5V12c0-1.9,1.6-3.5,3.5-3.5c1.9,0,3.5,1.6,3.5,3.5v4.5"/>
		<path class="st2" d="M17.5,12c0-0.8-0.7-1.5-1.5-1.5c-0.8,0-1.5,0.7-1.5,1.5v1.5h3V12z"/>
		<polyline class="st2" points="14.5,0.5 11.5,1.5 12.5,4 		"/>
		<polyline class="st2" points="8.5,23.5 11.5,22.5 10.5,20 		"/>
		<path class="st2" d="M7,18c1,2.7,2.6,4.5,4.5,4.5"/>
		<path class="st2" d="M16.2,6.5c-1-3-2.7-5-4.7-5"/>
	</g>
</g>
</svg>
