<?xml version="1.0" encoding="utf-8"?>
<!-- Generator: Adobe Illustrator 19.2.0, SVG Export Plug-In . SVG Version: 6.00 Build 0)  -->
<svg version="1.1" id="Layer_1" xmlns="http://www.w3.org/2000/svg" xmlns:xlink="http://www.w3.org/1999/xlink" x="0px" y="0px"
	 viewBox="0 0 24 24" style="enable-background:new 0 0 24 24;" xml:space="preserve">
<style type="text/css">
	.st0{display:none;}
	.st1{display:inline;}
	.st2{fill:none;stroke:#000000;stroke-linecap:round;stroke-linejoin:round;stroke-miterlimit:10;stroke-dasharray:2;}
	.st3{fill:none;stroke:#000000;stroke-linecap:round;stroke-linejoin:round;stroke-miterlimit:10;}
</style>
<g id="Filled_Icon" class="st0">
	<g class="st1">
		<path d="M17.5,19.1c-0.4,0.4-0.9,0.8-1.5,1.2c-0.2,0.1-0.3,0.5-0.2,0.7s0.3,0.2,0.4,0.2s0.2,0,0.3-0.1c0.6-0.4,1.2-0.8,1.7-1.3
			c0.2-0.2,0.2-0.5,0-0.7C18,18.9,17.7,18.9,17.5,19.1z"/>
		<path d="M14.3,21.1c-0.6,0.2-1.2,0.3-1.8,0.4c-0.3,0-0.5,0.3-0.4,0.6c0,0.3,0.2,0.4,0.5,0.4c0,0,0,0,0.1,0
			c0.7-0.1,1.4-0.2,2.1-0.5c0.3-0.1,0.4-0.4,0.3-0.6C14.8,21.1,14.6,21,14.3,21.1z"/>
		<path d="M20.1,15.6c-0.3-0.1-0.5,0-0.6,0.3c-0.2,0.6-0.5,1.2-0.8,1.7c-0.1,0.2-0.1,0.5,0.2,0.7c0.1,0.1,0.2,0.1,0.3,0.1
			c0.2,0,0.3-0.1,0.4-0.2c0.4-0.6,0.7-1.2,0.9-1.9C20.5,16,20.4,15.7,20.1,15.6z"/>
		<path d="M19.6,10.4c0.1,0.2,0.3,0.3,0.5,0.3c0.1,0,0.1,0,0.2,0c0.3-0.1,0.4-0.4,0.3-0.6c-0.1-0.4-0.3-0.9-0.5-1.3
			c-0.1-0.2-0.4-0.3-0.7-0.2C19.1,8.7,19,9,19.1,9.2C19.3,9.6,19.4,10,19.6,10.4z"/>
		<path d="M21,12.1c0-0.3-0.3-0.5-0.5-0.4c-0.3,0-0.5,0.3-0.4,0.5c0,0.3,0,0.6,0,0.8c0,0.4,0,0.7-0.1,1.1c0,0.3,0.2,0.5,0.4,0.6
			c0,0,0,0,0.1,0c0.2,0,0.5-0.2,0.5-0.4c0-0.4,0.1-0.8,0.1-1.2C21,12.7,21,12.4,21,12.1z"/>
		<path d="M10.6,21.5C6.2,21,3,17.4,3,13.1c0-4.7,3.8-8.5,8.5-8.5c0.1,0,0.3,0,0.4,0L9.7,6.2C9.5,6.3,9.4,6.6,9.6,6.9
			C9.7,7,9.8,7.1,10,7.1c0.1,0,0.2,0,0.3-0.1l3.5-2.5C13.9,4.4,14,4.2,14,4.1c0-0.2-0.1-0.3-0.2-0.4l-3.5-2.5C10,1,9.7,1,9.6,1.3
			C9.4,1.5,9.5,1.8,9.7,2L12,3.6c-0.2,0-0.3,0-0.5,0C6.3,3.6,2,7.8,2,13.1c0,4.9,3.6,8.9,8.5,9.4c0,0,0,0,0.1,0
			c0.3,0,0.5-0.2,0.5-0.4C11,21.8,10.8,21.5,10.6,21.5z"/>
	</g>
</g>
<g id="Outline_Icons">
	<g>
		<path class="st2" d="M12.5,22c4.5-0.5,8-4.3,8-8.9c0-1.5-0.3-2.8-1-4"/>
		<path class="st3" d="M12.5,4.1c-0.3,0-0.7-0.1-1-0.1c-5,0-9,4-9,9c0,4.6,3.5,8.5,8,8.9"/>
		<polyline class="st3" points="10,1.6 13.5,4.1 10,6.6 		"/>
	</g>
</g>
</svg>
