<?xml version="1.0" encoding="utf-8"?>
<!-- Generator: Adobe Illustrator 19.2.0, SVG Export Plug-In . SVG Version: 6.00 Build 0)  -->
<svg version="1.1" id="Layer_1" xmlns="http://www.w3.org/2000/svg" xmlns:xlink="http://www.w3.org/1999/xlink" x="0px" y="0px"
	 viewBox="0 0 24 24" style="enable-background:new 0 0 24 24;" xml:space="preserve">
<style type="text/css">
	.st0{display:none;}
	.st1{display:inline;}
	.st2{fill:none;stroke:#000000;stroke-linecap:round;stroke-linejoin:round;stroke-miterlimit:10;}
</style>
<g id="Filled_Icon" class="st0">
	<g class="st1">
		<path d="M11,12c0-2.2-1.8-4-4-4c-2.2,0-4,1.8-4,4v4.5C3,16.8,3.2,17,3.5,17h7c0.3,0,0.5-0.2,0.5-0.5V12z M9,13.5
			C9,13.8,8.8,14,8.5,14h-3C5.2,14,5,13.8,5,13.5V12c0-1.1,0.9-2,2-2c1.1,0,2,0.9,2,2V13.5z"/>
		<path d="M16,8c-2.2,0-4,1.8-4,4v4.5c0,0.3,0.2,0.5,0.5,0.5h7c0.3,0,0.5-0.2,0.5-0.5V12C20,9.8,18.2,8,16,8z M18,13.5
			c0,0.3-0.2,0.5-0.5,0.5h-3c-0.3,0-0.5-0.2-0.5-0.5V12c0-1.1,0.9-2,2-2c1.1,0,2,0.9,2,2V13.5z"/>
		<path d="M16.2,17.5c-0.3-0.1-0.5,0-0.6,0.3c-0.8,2.2-2,3.6-3.3,4l0.7-1.7c0.1-0.3,0-0.5-0.3-0.7c-0.3-0.1-0.5,0-0.6,0.3l-1,2.5
			l0,0l0,0c-0.1,0.2,0,0.5,0.3,0.6c0,0,0,0,0,0l3,1c0.3,0.1,0.5-0.1,0.6-0.3c0.1-0.3-0.1-0.5-0.3-0.6l-1.4-0.5
			c1.3-0.7,2.5-2.2,3.3-4.4C16.6,17.9,16.4,17.6,16.2,17.5z"/>
		<path d="M6.7,7c0.1,0,0.1,0,0.2,0C7,7,7.2,6.9,7.3,6.6c0.8-2.4,2-4,3.4-4.5L10,3.8c-0.1,0.3,0,0.5,0.3,0.6c0.1,0,0.1,0,0.2,0
			c0.2,0,0.4-0.1,0.5-0.3l1-2.5c0,0,0,0,0,0c0.1-0.3,0-0.6-0.3-0.7l-3-1C8.4-0.1,8.1,0.1,8,0.3C7.9,0.6,8.1,0.9,8.3,1l1.4,0.5
			C8.3,2.2,7.1,3.9,6.3,6.3C6.3,6.6,6.4,6.9,6.7,7z"/>
	</g>
</g>
<g id="Outline_Icons">
	<g>
		<path class="st2" d="M3.5,16.5V12c0-1.9,1.6-3.5,3.5-3.5c1.9,0,3.5,1.6,3.5,3.5v4.5"/>
		<path class="st2" d="M8.5,12c0-0.8-0.7-1.5-1.5-1.5c-0.8,0-1.5,0.7-1.5,1.5v1.5h3V12z"/>
		<path class="st2" d="M12.5,16.5V12c0-1.9,1.6-3.5,3.5-3.5c1.9,0,3.5,1.6,3.5,3.5v4.5"/>
		<path class="st2" d="M17.5,12c0-0.8-0.7-1.5-1.5-1.5c-0.8,0-1.5,0.7-1.5,1.5v1.5h3V12z"/>
		<polyline class="st2" points="8.5,0.5 11.5,1.5 10.5,4 		"/>
		<polyline class="st2" points="14.5,23.5 11.5,22.5 12.5,20 		"/>
		<path class="st2" d="M16,18c-1,2.7-2.6,4.5-4.5,4.5"/>
		<path class="st2" d="M6.8,6.5c1-3,2.7-5,4.7-5"/>
	</g>
</g>
</svg>
