<?xml version="1.0" encoding="utf-8"?>
<!-- Generator: Adobe Illustrator 19.2.0, SVG Export Plug-In . SVG Version: 6.00 Build 0)  -->
<svg version="1.1" id="Layer_1" xmlns="http://www.w3.org/2000/svg" xmlns:xlink="http://www.w3.org/1999/xlink" x="0px" y="0px"
	 viewBox="0 0 24 24" style="enable-background:new 0 0 24 24;" xml:space="preserve">
<style type="text/css">
	.st0{display:none;}
	.st1{display:inline;}
	.st2{fill:none;stroke:#000000;stroke-linejoin:round;stroke-miterlimit:10;}
</style>
<g id="Filled_Icons" class="st0">
	<path class="st1" d="M20.5,0h-17C1.6,0,0,1.6,0,3.5v17C0,22.4,1.6,24,3.5,24h17c1.9,0,3.5-1.6,3.5-3.5v-17C24,1.6,22.4,0,20.5,0z
		 M7,19c-1.1,0-2-0.9-2-2c0-1.1,0.9-2,2-2c1.1,0,2,0.9,2,2C9,18.1,8.1,19,7,19z M13,19c0-4.4-3.6-8-8-8v-1c5,0,9,4,9,9H13z M18,19
		c0-7.2-5.8-13-13-13V5c7.7,0,14,6.3,14,14H18z"/>
</g>
<g id="Outline_Icons">
	<g>
		<g>
			<path class="st2" d="M5,10.5c4.7,0,8.5,3.8,8.5,8.5"/>
			<path class="st2" d="M5,5.5c7.5,0,13.5,6,13.5,13.5"/>
			<circle class="st2" cx="7" cy="17" r="1.5"/>
		</g>
		<path class="st2" d="M23.5,20.5c0,1.7-1.3,3-3,3h-17c-1.6,0-3-1.3-3-3v-17c0-1.6,1.4-3,3-3h17c1.7,0,3,1.4,3,3V20.5z"/>
	</g>
</g>
</svg>
