<?xml version="1.0" encoding="utf-8"?>
<!-- Generator: Adobe Illustrator 19.2.0, SVG Export Plug-In . SVG Version: 6.00 Build 0)  -->
<svg version="1.1" id="Layer_1" xmlns="http://www.w3.org/2000/svg" xmlns:xlink="http://www.w3.org/1999/xlink" x="0px" y="0px"
	 viewBox="0 0 24 24" style="enable-background:new 0 0 24 24;" xml:space="preserve">
<style type="text/css">
	.st0{display:none;}
	.st1{display:inline;}
	.st2{fill:none;stroke:#000000;stroke-linejoin:round;stroke-miterlimit:10;}
</style>
<g id="Filled_Icon" class="st0">
	<path class="st1" d="M24,14.5l-2.1-7.5l-4.4,4.4l4.6,4.6c0.1,0.1,0.2,0.1,0.4,0.1l0,0c0.1,0,0.3-0.1,0.4-0.1l1.1-1.1
		C24,14.9,24,14.7,24,14.5z"/>
	<path class="st1" d="M12.5,6.5l4.4-4.4L9.5,0C9.3,0,9.1,0,9,0.1L7.9,1.2c-0.2,0.2-0.2,0.5,0,0.7L12.5,6.5z"/>
	<path class="st1" d="M21.4,5.4l-2.8-2.8c-0.2-0.2-0.5-0.2-0.7,0L0.1,20.3C0,20.5,0,20.8,0.1,21L3,23.8C3.1,23.9,3.2,24,3.3,24
		c0.1,0,0.3,0,0.4-0.1l2.2-2.2l-1.7-1.7c-0.2-0.2-0.2-0.5,0-0.7c0.2-0.2,0.5-0.2,0.7,0l1.7,1.7L8,19.5l-1.7-1.7
		c-0.2-0.2-0.2-0.5,0-0.7c0.2-0.2,0.5-0.2,0.7,0l1.7,1.7l1.4-1.4l-1.7-1.7c-0.2-0.2-0.2-0.5,0-0.7c0.2-0.2,0.5-0.2,0.7,0l1.7,1.7
		l1.4-1.4l-1.7-1.7c-0.2-0.2-0.2-0.5,0-0.7c0.2-0.2,0.5-0.2,0.7,0l1.7,1.7l1.4-1.4l-1.7-1.7c-0.2-0.2-0.2-0.5,0-0.7
		c0.2-0.2,0.5-0.2,0.7,0l1.7,1.7l6.2-6.2C21.6,6,21.6,5.6,21.4,5.4z"/>
</g>
<g id="Outline_Icons">
	<g>
		<rect x="-1.7" y="11.2" transform="matrix(0.7071 -0.7071 0.7071 0.7071 -6.2036 11.4781)" class="st2" width="25" height="4"/>
		<polyline class="st2" points="21,5.8 23.5,14.6 22.4,15.7 16.8,10 		"/>
		<polyline class="st2" points="18.2,3 9.3,0.5 8.3,1.6 13.9,7.2 		"/>
		<line class="st2" x1="4.5" y1="19.5" x2="5.9" y2="20.9"/>
		<line class="st2" x1="6.7" y1="17.4" x2="8" y2="18.8"/>
		<line class="st2" x1="8.8" y1="15.3" x2="10.2" y2="16.6"/>
		<line class="st2" x1="10.9" y1="13.2" x2="12.3" y2="14.5"/>
		<line class="st2" x1="13" y1="11" x2="14.4" y2="12.4"/>
	</g>
</g>
</svg>
