<?xml version="1.0" encoding="utf-8"?>
<!-- Generator: Adobe Illustrator 19.2.0, SVG Export Plug-In . SVG Version: 6.00 Build 0)  -->
<svg version="1.1" id="Layer_1" xmlns="http://www.w3.org/2000/svg" xmlns:xlink="http://www.w3.org/1999/xlink" x="0px" y="0px"
	 viewBox="0 0 24 24" style="enable-background:new 0 0 24 24;" xml:space="preserve">
<style type="text/css">
	.st0{display:none;}
	.st1{display:inline;}
	.st2{fill:none;stroke:#000000;stroke-linecap:round;stroke-linejoin:round;stroke-miterlimit:10;}
</style>
<g id="Filled_Icon" class="st0">
	<path class="st1" d="M23.9,5.6l-5.5-5.5c-0.2-0.2-0.5-0.2-0.7,0l-3.1,3.1l2.4,2.3c0.2,0.2,0.2,0.5,0,0.7c-0.1,0.1-0.2,0.1-0.4,0.1
		c-0.1,0-0.3,0-0.4-0.1L13.8,4l-1.3,1.3l2.9,2.9c0.2,0.2,0.2,0.5,0,0.7C15.3,9,15.1,9,15,9c-0.1,0-0.3,0-0.4-0.1L11.8,6l-1.5,1.5
		l2.1,2.1c0.2,0.2,0.2,0.5,0,0.7c-0.1,0.1-0.2,0.1-0.4,0.1c-0.1,0-0.3,0-0.4-0.1L9.6,8.2L8.3,9.5l2.9,2.9c0.2,0.2,0.2,0.5,0,0.7
		c-0.1,0.1-0.2,0.1-0.4,0.1c-0.1,0-0.3,0-0.4-0.1l-2.9-2.9L6,11.8l2.4,2.3c0.2,0.2,0.2,0.5,0,0.7C8.3,14.9,8.2,15,8,15
		c-0.1,0-0.3,0-0.4-0.1l-2.4-2.3L4,13.8l2.9,2.9c0.2,0.2,0.2,0.5,0,0.7c-0.1,0.1-0.2,0.1-0.4,0.1c-0.1,0-0.3,0-0.4-0.1l-2.9-2.9
		l-3.2,3.2c-0.2,0.2-0.2,0.5,0,0.7l5.5,5.5C5.7,23.9,5.9,24,6,24c0.1,0,0.3-0.1,0.4-0.1L23.9,6.4C24,6.2,24,5.8,23.9,5.6z"/>
</g>
<g id="Outline_Icons">
	<g>
		<rect x="-0.4" y="8.1" transform="matrix(0.7071 -0.7071 0.7071 0.7071 -4.9717 12)" class="st2" width="24.7" height="7.8"/>
		<line class="st2" x1="4" y1="14.5" x2="6.5" y2="17"/>
		<line class="st2" x1="6" y1="12.5" x2="8" y2="14.5"/>
		<line class="st2" x1="8.3" y1="10.2" x2="10.8" y2="12.7"/>
		<line class="st2" x1="10.3" y1="8.2" x2="12" y2="10"/>
		<line class="st2" x1="12.5" y1="6" x2="15" y2="8.5"/>
		<line class="st2" x1="14.5" y1="4" x2="16.5" y2="6"/>
	</g>
</g>
</svg>
