<?xml version="1.0" encoding="utf-8"?>
<!-- Generator: Adobe Illustrator 19.2.0, SVG Export Plug-In . SVG Version: 6.00 Build 0)  -->
<svg version="1.1" id="Layer_1" xmlns="http://www.w3.org/2000/svg" xmlns:xlink="http://www.w3.org/1999/xlink" x="0px" y="0px"
	 viewBox="0 0 24 24" style="enable-background:new 0 0 24 24;" xml:space="preserve">
<style type="text/css">
	.st0{display:none;}
	.st1{display:inline;}
	.st2{fill:none;stroke:#000000;stroke-linecap:round;stroke-linejoin:round;stroke-miterlimit:10;}
</style>
<g id="Filled_Icon" class="st0">
	<path class="st1" d="M23.8,23.1l-3.6-3.6l-1.4,1.4C18.7,21,18.6,21,18.5,21c-0.1,0-0.3,0-0.4-0.1c-0.2-0.2-0.2-0.5,0-0.7l1.4-1.4
		L17.7,17l-1.4,1.4c-0.1,0.1-0.2,0.1-0.4,0.1c-0.1,0-0.3,0-0.4-0.1c-0.2-0.2-0.2-0.5,0-0.7l1.4-1.4l-1.8-1.8l-1.4,1.4
		C13.7,16,13.6,16,13.5,16c-0.1,0-0.3,0-0.4-0.1c-0.2-0.2-0.2-0.5,0-0.7l1.4-1.4L12.7,12l-1.4,1.4c-0.1,0.1-0.2,0.1-0.4,0.1
		c-0.1,0-0.3,0-0.4-0.1c-0.2-0.2-0.2-0.5,0-0.7l1.4-1.4l-1.8-1.8l-1.4,1.4C8.7,11,8.6,11,8.5,11c-0.1,0-0.3,0-0.4-0.1
		c-0.2-0.2-0.2-0.5,0-0.7l1.4-1.4L7.7,7L6.3,8.4C6.2,8.5,6.1,8.5,6,8.5c-0.1,0-0.3,0-0.4-0.1c-0.2-0.2-0.2-0.5,0-0.7L7,6.3L5.2,4.5
		L3.8,5.9C3.7,6,3.6,6,3.5,6C3.4,6,3.2,6,3.1,5.9c-0.2-0.2-0.2-0.5,0-0.7l1.4-1.4L0.8,0.1C0.7,0,0.5,0,0.3,0C0.1,0.1,0,0.3,0,0.5v23
		C0,23.8,0.2,24,0.5,24h23c0,0,0,0,0,0c0.3,0,0.5-0.2,0.5-0.5C24,23.3,23.9,23.2,23.8,23.1z M4,20v-8.8l8.8,8.8H4z"/>
</g>
<g id="Outline_Icons">
	<g>
		<polygon class="st2" points="23.5,23.5 0.5,23.5 0.5,0.5 		"/>
		<polygon class="st2" points="3.5,10 3.5,20.5 14,20.5 		"/>
		<line class="st2" x1="4.5" y1="4.5" x2="3.5" y2="5.5"/>
		<line class="st2" x1="7" y1="7" x2="6" y2="8"/>
		<line class="st2" x1="9.5" y1="9.5" x2="8.5" y2="10.5"/>
		<line class="st2" x1="12" y1="12" x2="11" y2="13"/>
		<line class="st2" x1="14.5" y1="14.5" x2="13.5" y2="15.5"/>
		<line class="st2" x1="17" y1="17" x2="16" y2="18"/>
		<line class="st2" x1="19.5" y1="19.5" x2="18.5" y2="20.5"/>
	</g>
</g>
</svg>
