<?xml version="1.0" encoding="utf-8"?>
<!-- Generator: Adobe Illustrator 19.2.0, SVG Export Plug-In . SVG Version: 6.00 Build 0)  -->
<svg version="1.1" id="Outline_Icons" xmlns="http://www.w3.org/2000/svg" xmlns:xlink="http://www.w3.org/1999/xlink" x="0px"
	 y="0px" viewBox="0 0 24 24" style="enable-background:new 0 0 24 24;" xml:space="preserve">
<style type="text/css">
	.st0{fill:none;stroke:#000000;stroke-linecap:round;stroke-linejoin:round;stroke-miterlimit:10;}
</style>
<g>
	<path class="st0" d="M23.5,20.5c0,0.5-0.5,1-1,1h-21c-0.6,0-1-0.5-1-1v-18c0-0.5,0.4-1,1-1h21c0.5,0,1,0.5,1,1V20.5z"/>
	<path class="st0" d="M18.7,8.7c0,1.2-1,2.3-2.2,2.3s-2.2-1-2.2-2.3c0-1.2,1-2.2,2.2-2.2S18.7,7.5,18.7,8.7z"/>
	<g>
		<g>
			<path d="M16.5,8c-0.4,0-0.7,0.3-0.7,0.7s0.3,0.7,0.7,0.7s0.7-0.3,0.7-0.7S16.9,8,16.5,8L16.5,8z"/>
		</g>
	</g>
	<g>
		<g>
			<polygon points="15,12 14,12 14,13 15,13 			"/>
		</g>
	</g>
	<g>
		<g>
			<polygon points="17,12 16,12 16,13 17,13 			"/>
		</g>
	</g>
	<g>
		<g>
			<polygon points="19,12 18,12 18,13 19,13 			"/>
		</g>
	</g>
	<g>
		<g>
			<polygon points="15,14 14,14 14,15 15,15 			"/>
		</g>
	</g>
	<g>
		<g>
			<polygon points="17,14 16,14 16,15 17,15 			"/>
		</g>
	</g>
	<g>
		<g>
			<polygon points="19,14 18,14 18,15 19,15 			"/>
		</g>
	</g>
	<g>
		<g>
			<polygon points="15,16 14,16 14,17 15,17 			"/>
		</g>
	</g>
	<g>
		<g>
			<polygon points="17,16 16,16 16,17 17,17 			"/>
		</g>
	</g>
	<g>
		<g>
			<polygon points="19,16 18,16 18,17 19,17 			"/>
		</g>
	</g>
	<path class="st0" d="M21.5,17.5c0,0.5-0.5,1-1,1h-16c-0.5,0-1-0.5-1-1v-12c0-0.5,0.5-1,1-1h16c0.5,0,1,0.5,1,1V17.5z"/>
	<rect x="2.5" y="7.5" class="st0" width="2" height="1"/>
	<rect x="2.5" y="14.5" class="st0" width="2" height="1"/>
	<polyline class="st0" points="3,21.5 3,22.5 4.5,22.5 4.5,21.5 	"/>
	<polyline class="st0" points="19.5,21.5 19.5,22.5 21,22.5 21,21.5 	"/>
</g>
</svg>
