<?xml version="1.0" encoding="utf-8"?>
<!-- Generator: Adobe Illustrator 19.2.0, SVG Export Plug-In . SVG Version: 6.00 Build 0)  -->
<svg version="1.1" id="Layer_1" xmlns="http://www.w3.org/2000/svg" xmlns:xlink="http://www.w3.org/1999/xlink" x="0px" y="0px"
	 viewBox="0 0 24 24" style="enable-background:new 0 0 24 24;" xml:space="preserve">
<style type="text/css">
	.st0{display:none;}
	.st1{display:inline;}
	.st2{fill:none;stroke:#000000;stroke-linecap:round;stroke-linejoin:round;stroke-miterlimit:10;}
</style>
<g id="Filled_Icons" class="st0">
	<path class="st1" d="M23.5,9h-0.9c-1-3.7-3.9-6.5-7.6-7.6V0.5C15,0.2,14.8,0,14.5,0h-5C9.2,0,9,0.2,9,0.5v0.9
		C5.3,2.5,2.5,5.3,1.4,9H0.5C0.2,9,0,9.2,0,9.5v5C0,14.8,0.2,15,0.5,15h0.9c1,3.7,3.9,6.5,7.6,7.6v0.9C9,23.8,9.2,24,9.5,24h5
		c0.3,0,0.5-0.2,0.5-0.5v-0.9c3.7-1,6.5-3.9,7.6-7.6h0.9c0.3,0,0.5-0.2,0.5-0.5v-5C24,9.2,23.8,9,23.5,9z M10,1h4v5.9
		c-0.6-0.2-1.3-0.4-2-0.4s-1.4,0.1-2,0.4V1z M6.9,14H1v-4h5.9c-0.2,0.6-0.4,1.3-0.4,2C6.5,12.7,6.6,13.4,6.9,14z M14,23h-4v-5.9
		c0.6,0.2,1.3,0.4,2,0.4s1.4-0.1,2-0.4V23z M12,16.5c-2.5,0-4.5-2-4.5-4.5c0-2.5,2-4.5,4.5-4.5c2.5,0,4.5,2,4.5,4.5
		C16.5,14.5,14.5,16.5,12,16.5z M23,14h-5.9c0.2-0.6,0.4-1.3,0.4-2c0-0.7-0.1-1.4-0.4-2H23V14z"/>
</g>
<g id="Outline_Icons">
	<g>
		<polyline class="st2" points="7.2,13.5 0.5,13.5 0.5,10.5 7.2,10.5 		"/>
		<polyline class="st2" points="13.5,16.8 13.5,23.5 10.5,23.5 10.5,16.8 		"/>
		<polyline class="st2" points="16.8,10.5 23.5,10.5 23.5,13.5 16.8,13.5 		"/>
		<polyline class="st2" points="10.5,7.2 10.5,0.5 13.5,0.5 13.5,7.2 		"/>
		<circle class="st2" cx="12" cy="12" r="5"/>
		<path class="st2" d="M13.5,1.6c4.6,0.7,8.2,4.3,8.9,8.9"/>
		<path class="st2" d="M1.6,10.5c0.7-4.6,4.3-8.2,8.9-8.9"/>
		<path class="st2" d="M10.5,22.4c-4.6-0.7-8.2-4.3-8.9-8.9"/>
		<path class="st2" d="M22.4,13.5c-0.7,4.6-4.3,8.2-8.9,8.9"/>
	</g>
</g>
</svg>
