<?xml version="1.0" encoding="utf-8"?>
<!-- Generator: Adobe Illustrator 19.2.0, SVG Export Plug-In . SVG Version: 6.00 Build 0)  -->
<svg version="1.1" id="Layer_1" xmlns="http://www.w3.org/2000/svg" xmlns:xlink="http://www.w3.org/1999/xlink" x="0px" y="0px"
	 viewBox="0 0 24 24" style="enable-background:new 0 0 24 24;" xml:space="preserve">
<style type="text/css">
	.st0{display:none;}
	.st1{display:inline;}
	.st2{fill:none;stroke:#000000;stroke-linecap:round;stroke-linejoin:round;stroke-miterlimit:10;}
</style>
<g id="Filled_Icon" class="st0">
	<g class="st1">
		<path d="M14.5,13.2l0.7,0.7c0.4-0.6,0.7-1.2,0.8-1.9h-1C14.9,12.5,14.7,12.9,14.5,13.2z"/>
		<path d="M14.5,9.8c0.3,0.4,0.4,0.8,0.5,1.2h1c-0.1-0.7-0.4-1.4-0.8-1.9L14.5,9.8z"/>
		<path d="M18.5,4h-13C4.7,4,4,4.7,4,5.5V6h0.5C4.8,6,5,6.2,5,6.5v3C5,9.8,4.8,10,4.5,10H4v3h0.5C4.8,13,5,13.2,5,13.5v3
			C5,16.8,4.8,17,4.5,17H4v0.5C4,18.3,4.7,19,5.5,19h13c0.8,0,1.5-0.7,1.5-1.5v-12C20,4.7,19.4,4,18.5,4z M15.6,15L15.6,15L15.6,15
			c-0.9,0.9-2.2,1.5-3.5,1.5c-1.4,0-2.6-0.6-3.5-1.5l0,0l0,0c-1-0.9-1.6-2.1-1.6-3.5S7.6,8.9,8.5,8l0,0l0,0c0.9-0.9,2.1-1.5,3.5-1.5
			s2.6,0.6,3.5,1.5l0,0l0,0c0.9,0.9,1.5,2.2,1.5,3.5C17,12.9,16.5,14.1,15.6,15z"/>
		<path d="M9.1,12h-1c0.1,0.7,0.4,1.4,0.8,1.9l0.7-0.7C9.3,12.9,9.2,12.5,9.1,12z"/>
		<path d="M11.5,8.5v-1c-0.7,0.1-1.4,0.4-1.9,0.8L10.3,9C10.7,8.8,11.1,8.6,11.5,8.5z"/>
		<rect x="3" y="14" width="1" height="2"/>
		<path d="M14.5,8.3c-0.6-0.4-1.2-0.7-1.9-0.8v1c0.5,0.1,0.9,0.3,1.2,0.5L14.5,8.3z"/>
		<path d="M12.5,14.5v1c0.7-0.1,1.4-0.4,1.9-0.8L13.7,14C13.4,14.2,13,14.4,12.5,14.5z"/>
		<path d="M9.6,14.7c0.6,0.4,1.2,0.7,1.9,0.8v-1c-0.5-0.1-0.9-0.3-1.2-0.5L9.6,14.7z"/>
		<circle cx="12" cy="11.5" r="2"/>
		<path d="M9.6,9.8L8.9,9.1C8.4,9.6,8.2,10.3,8.1,11h1C9.2,10.5,9.3,10.1,9.6,9.8z"/>
		<rect x="3" y="7" width="1" height="2"/>
		<path d="M21.5,0h-19C1.2,0,0,1.1,0,2.5v18c0,1.2,0.9,2.2,2,2.4v0.6C2,23.8,2.3,24,2.5,24C2.8,24,3,23.8,3,23.5V23h18v0.5
			c0,0.3,0.2,0.5,0.5,0.5s0.5-0.2,0.5-0.5v-0.6c1.1-0.2,2-1.2,2-2.4v-18C24,1.1,22.9,0,21.5,0z M18.5,20h-13C4.2,20,3,18.9,3,17.5
			V17H2.5C2.3,17,2,16.8,2,16.5v-3C2,13.2,2.3,13,2.5,13H3v-3H2.5C2.3,10,2,9.8,2,9.5v-3C2,6.2,2.3,6,2.5,6H3V5.5C3,4.1,4.2,3,5.5,3
			h13C19.9,3,21,4.1,21,5.5v12C21,18.9,19.9,20,18.5,20z"/>
	</g>
</g>
<g id="Outline_Icons">
	<g>
		<path class="st2" d="M23.5,20.5c0,1.1-0.9,2-2,2h-19c-1.1,0-2-0.9-2-2v-18c0-1.1,0.9-2,2-2h19c1.1,0,2,0.9,2,2V20.5z"/>
		<line class="st2" x1="2.5" y1="22.5" x2="2.5" y2="23.5"/>
		<line class="st2" x1="21.5" y1="22.5" x2="21.5" y2="23.5"/>
		<path class="st2" d="M3.5,16.5v1c0,1.1,0.9,2,2,2h13c1.1,0,2-0.9,2-2v-12c0-1.1-0.9-2-2-2h-13c-1.1,0-2,0.9-2,2v1"/>
		<line class="st2" x1="3.5" y1="9.5" x2="3.5" y2="13.5"/>
		<rect x="2.5" y="6.5" class="st2" width="2" height="3"/>
		<rect x="2.5" y="13.5" class="st2" width="2" height="3"/>
		<circle class="st2" cx="12.5" cy="11.5" r="4.5"/>
		<circle class="st2" cx="12.5" cy="11.5" r="2.5"/>
		<line class="st2" x1="12.5" y1="7" x2="12.5" y2="9"/>
		<line class="st2" x1="9.3" y1="8.3" x2="10.7" y2="9.7"/>
		<line class="st2" x1="8" y1="11.5" x2="10" y2="11.5"/>
		<line class="st2" x1="9.3" y1="14.7" x2="10.7" y2="13.3"/>
		<line class="st2" x1="12.5" y1="16" x2="12.5" y2="14"/>
		<line class="st2" x1="15.7" y1="14.7" x2="14.3" y2="13.3"/>
		<line class="st2" x1="17" y1="11.5" x2="15" y2="11.5"/>
		<line class="st2" x1="15.7" y1="8.3" x2="14.3" y2="9.7"/>
	</g>
</g>
</svg>
