<?xml version="1.0" encoding="utf-8"?>
<!-- Generator: Adobe Illustrator 19.2.0, SVG Export Plug-In . SVG Version: 6.00 Build 0)  -->
<svg version="1.1" id="Layer_1" xmlns="http://www.w3.org/2000/svg" xmlns:xlink="http://www.w3.org/1999/xlink" x="0px" y="0px"
	 viewBox="0 0 24 24" style="enable-background:new 0 0 24 24;" xml:space="preserve">
<style type="text/css">
	.st0{display:none;}
	.st1{display:inline;}
	.st2{fill:none;stroke:#000000;stroke-linejoin:round;stroke-miterlimit:10;}
	.st3{fill:none;stroke:#000000;stroke-linecap:round;stroke-linejoin:round;stroke-miterlimit:10;}
</style>
<g id="Filled_Icons" class="st0">
	<g class="st1">
		<path d="M17.5,0h-7c-0.6,0-1,0.4-1,1v2c0,0.6-0.4,1-1,1s-1-0.4-1-1V2.5c0-0.6-0.4-1-1-1s-1,0.4-1,1V3C5.5,4.5,6.6,5.7,8,6V7H5.5
			C4.1,7,3,8.1,3,9.5V10h11V9.5C14,8.1,12.9,7,11.5,7H9V6c1.4-0.2,2.5-1.5,2.5-2.9V2h6c1.7,0,3,1.3,3,3v18c0,0.6,0.4,1,1,1
			s1-0.4,1-1V5C22.5,2.2,20.3,0,17.5,0z"/>
		<path d="M10,18c-0.3,0-0.5-0.2-0.5-0.5S9.7,17,10,17h4v-1h-3c-0.3,0-0.5-0.2-0.5-0.5S10.7,15,11,15h3v-1h-4
			c-0.3,0-0.5-0.2-0.5-0.5S9.7,13,10,13h4v-2H3v7.5C3,19.9,4.1,21,5.5,21H8v3h1v-3h2.5c1.4,0,2.5-1.1,2.5-2.5V18H10z"/>
	</g>
</g>
<g id="Outline_Icons">
	<g>
		<path class="st2" d="M13.5,18.5c0,1.1-0.9,2-2,2h-6c-1.1,0-2-0.9-2-2v-9c0-1.1,0.9-2,2-2h6c1.1,0,2,0.9,2,2V18.5z"/>
		<path class="st3" d="M21.5,23.5v-19c0-2.2-1.8-4-4-4h-7v2c0,1.1-0.9,2-2,2s-2-0.9-2-2V2"/>
		<line class="st2" x1="3.5" y1="10.5" x2="13.5" y2="10.5"/>
		<line class="st2" x1="8.5" y1="20.5" x2="8.5" y2="24"/>
		<line class="st3" x1="8.5" y1="4.5" x2="8.5" y2="7.5"/>
		<line class="st3" x1="10" y1="13.5" x2="13.5" y2="13.5"/>
		<line class="st3" x1="11" y1="15.5" x2="13.5" y2="15.5"/>
		<line class="st3" x1="10" y1="17.5" x2="13.5" y2="17.5"/>
	</g>
</g>
</svg>
