<?xml version="1.0" encoding="utf-8"?>
<!-- Generator: Adobe Illustrator 19.2.0, SVG Export Plug-In . SVG Version: 6.00 Build 0)  -->
<svg version="1.1" id="Outline_Icons" xmlns="http://www.w3.org/2000/svg" xmlns:xlink="http://www.w3.org/1999/xlink" x="0px"
	 y="0px" viewBox="0 0 24 24" style="enable-background:new 0 0 24 24;" xml:space="preserve">
<style type="text/css">
	.st0{fill:none;stroke:#000000;stroke-linecap:round;stroke-linejoin:round;stroke-miterlimit:10;}
</style>
<g>
	<g>
		<path class="st0" d="M10.5,23.5h-10c0-3.6,1-10,5-10S10.5,19.9,10.5,23.5z"/>
		<g>
			<g>
				<path d="M4.5,15C4.2,15,4,15.2,4,15.5S4.2,16,4.5,16S5,15.8,5,15.5S4.8,15,4.5,15L4.5,15z"/>
			</g>
		</g>
		<g>
			<g>
				<path d="M6.5,15C6.2,15,6,15.2,6,15.5S6.2,16,6.5,16S7,15.8,7,15.5S6.8,15,6.5,15L6.5,15z"/>
			</g>
		</g>
		<path class="st0" d="M22.5,15.5c0-1-1-2-2-2h-6c-1,0-2,1-2,2v8h10V15.5z"/>
		<rect x="14.5" y="8.5" class="st0" width="6" height="5"/>
		<path class="st0" d="M21.5,5.5h-8v2c0,0.5,0.5,1,1,1h6c0.5,0,1-0.5,1-1V5.5z"/>
		<path class="st0" d="M23.5,4c0-0.8-0.7-1.5-1.5-1.5h-9c-0.8,0-1.5,0.7-1.5,1.5l0,0c0,0.8,0.7,1.5,1.5,1.5h9
			C22.8,5.5,23.5,4.8,23.5,4L23.5,4z"/>
		<line class="st0" x1="17.5" y1="2.5" x2="17.5" y2="0.5"/>
	</g>
	<line class="st0" x1="16.5" y1="0.5" x2="18.5" y2="0.5"/>
</g>
</svg>
