<?xml version="1.0" encoding="utf-8"?>
<!-- Generator: Adobe Illustrator 19.2.0, SVG Export Plug-In . SVG Version: 6.00 Build 0)  -->
<svg version="1.1" id="Layer_1" xmlns="http://www.w3.org/2000/svg" xmlns:xlink="http://www.w3.org/1999/xlink" x="0px" y="0px"
	 viewBox="0 0 24 24" style="enable-background:new 0 0 24 24;" xml:space="preserve">
<style type="text/css">
	.st0{display:none;}
	.st1{display:inline;}
	.st2{fill:none;stroke:#000000;stroke-linejoin:round;stroke-miterlimit:10;}
	.st3{fill:none;stroke:#000000;stroke-linecap:round;stroke-linejoin:round;stroke-miterlimit:10;}
</style>
<g id="Filled_Icons" class="st0">
	<g class="st1">
		<g>
			<path d="M22,4c1.1,0,2-0.9,2-2s-0.9-2-2-2H2C0.9,0,0,0.9,0,2s0.9,2,2,2H22z"/>
			<path d="M22,7c-1.3,0-2.4-0.8-2.8-2h-8.1L8.7,9.9c-0.1,0.2,0,0.5,0.2,0.7l2,1c0.2,0.1,0.4,0.1,0.6-0.1c0.9-0.9,2.2-1.4,3.5-1.4
				c1.5,0,2.9,0.7,3.9,1.8c0.1,0.1,0.2,0.2,0.4,0.2c0,0,0,0,0,0c0.2,0,0.3-0.1,0.4-0.2l2.8-4c0.1-0.2,0.1-0.4,0-0.5
				C22.4,7.1,22.2,7,22,7z"/>
			<path d="M3,5v2.4c0,0.2,0.1,0.4,0.3,0.5l2.1,1c0.1,0,0.1,0,0.2,0c0.2,0,0.4-0.1,0.4-0.3L7.8,5H3z"/>
		</g>
		<g>
			<path d="M21,19v-2.4c0-0.2-0.1-0.4-0.3-0.5l-2.1-1c-0.2-0.1-0.5,0-0.7,0.2L16.2,19H21z"/>
			<path d="M22,20H2c-1.1,0-2,0.9-2,2s0.9,2,2,2h20c1.1,0,2-0.9,2-2S23.1,20,22,20z"/>
			<path d="M2,17c1.3,0,2.4,0.8,2.8,2h8.1l2.4-4.9c0.1-0.2,0-0.5-0.2-0.7l-2-1c-0.2-0.1-0.4-0.1-0.6,0.1C11.6,13.5,10.3,14,9,14
				c-1.5,0-2.9-0.7-3.9-1.8C5,12.1,4.9,12,4.7,12c-0.2,0-0.3,0.1-0.4,0.2l-2.8,4c-0.1,0.2-0.1,0.4,0,0.5C1.6,16.9,1.8,17,2,17z"/>
		</g>
	</g>
</g>
<g id="Outline_Icons">
	<g>
		<path class="st2" d="M0.5,22c0,0.8,0.7,1.5,1.5,1.5h20c0.8,0,1.5-0.7,1.5-1.5s-0.7-1.5-1.5-1.5H2C1.2,20.5,0.5,21.2,0.5,22z"/>
		<polygon class="st3" points="18.4,15.6 16,20.5 20.5,20.5 20.5,16.6 		"/>
		<path class="st3" d="M11.6,20.5l3.2-6.6l-2-1c-1,1-2.4,1.6-3.9,1.6c-1.7,0-3.2-0.8-4.2-2l-2.8,4c1.9,0,3.5,1.6,3.5,3.5v0.5"/>
		<path class="st2" d="M23.5,2c0-0.8-0.7-1.5-1.5-1.5H2C1.2,0.5,0.5,1.2,0.5,2S1.2,3.5,2,3.5h20C22.8,3.5,23.5,2.8,23.5,2z"/>
		<polygon class="st3" points="5.6,8.4 8,3.5 3.5,3.5 3.5,7.4 		"/>
		<path class="st3" d="M12.4,3.5l-3.2,6.6l2,1c1-1,2.4-1.6,3.9-1.6c1.7,0,3.2,0.8,4.2,2l2.8-4c-1.9,0-3.5-1.6-3.5-3.5V3.5"/>
	</g>
</g>
</svg>
