<?xml version="1.0" encoding="utf-8"?>
<!-- Generator: Adobe Illustrator 19.2.0, SVG Export Plug-In . SVG Version: 6.00 Build 0)  -->
<svg version="1.1" id="Layer_1" xmlns="http://www.w3.org/2000/svg" xmlns:xlink="http://www.w3.org/1999/xlink" x="0px" y="0px"
	 viewBox="0 0 24 24" style="enable-background:new 0 0 24 24;" xml:space="preserve">
<style type="text/css">
	.st0{display:none;}
	.st1{display:inline;}
	.st2{fill:none;stroke:#000000;stroke-linecap:round;stroke-linejoin:round;stroke-miterlimit:10;}
</style>
<g id="Filled_Icons" class="st0">
	<path class="st1" d="M23,18c-0.6,0-1,0.4-1,1c0,1.7-1.3,3-3,3h-0.8l-1.1-4h3.7c1.1,0,2-0.7,2.4-1.7l0.7-2c0.3-0.8,0.1-1.6-0.3-2.3
		c-0.5-0.6-1.2-1-2-1h-9.1c-1.5,0-2.8-1-3.3-2.4L8.4,6.7C8.1,5.7,7.1,5,6.1,5H0.5C0.3,5,0.2,5.1,0.1,5.2C0,5.4,0,5.5,0,5.7l4.6,12
		C4.7,17.9,4.9,18,5.1,18h1.8l-1,4H1c-0.6,0-1,0.4-1,1s0.4,1,1,1c0.1,0,16.4,0,16.5,0H19c2.8,0,5-2.2,5-5C24,18.5,23.6,18,23,18z
		 M6,9.6L5.5,8H3.2C3,8,2.7,7.8,2.7,7.5S3,7,3.2,7h2.7c0.2,0,0.4,0.1,0.5,0.3L7,9.2c0.8,2.2,2.8,3.8,5.2,3.8h9.1
		c0.3,0,0.5,0.2,0.5,0.5S21.6,14,21.3,14h-9.1C9.4,14,6.9,12.2,6,9.6z M7.9,22l1-4H15l1.1,4H7.9z"/>
</g>
<g id="Outline_Icons">
	<g>
		<path class="st2" d="M0.5,23.5h19c2.2,0,4-1.8,4-4V19"/>
		<path class="st2" d="M22.7,16.1c-0.3,0.8-1,1.4-1.9,1.4H5.1l-4.6-12h5.6c0.9,0,1.6,0.6,1.9,1.4l0.6,1.9c0.5,1.6,2.1,2.7,3.8,2.7
			h9.1c0.6,0,1.2,0.3,1.6,0.8s0.5,1.2,0.3,1.8L22.7,16.1z"/>
		<path class="st2" d="M3.2,7.5h2.7l0.6,1.9c0.8,2.5,3.1,4.1,5.7,4.1h9.1"/>
		<line class="st2" x1="6.5" y1="23.5" x2="8.1" y2="17.5"/>
		<line class="st2" x1="17.5" y1="23.5" x2="15.9" y2="17.5"/>
	</g>
</g>
</svg>
