<?xml version="1.0" encoding="utf-8"?>
<!-- Generator: Adobe Illustrator 19.2.0, SVG Export Plug-In . SVG Version: 6.00 Build 0)  -->
<svg version="1.1" id="Layer_1" xmlns="http://www.w3.org/2000/svg" xmlns:xlink="http://www.w3.org/1999/xlink" x="0px" y="0px"
	 viewBox="0 0 24 24" style="enable-background:new 0 0 24 24;" xml:space="preserve">
<style type="text/css">
	.st0{display:none;}
	.st1{display:inline;}
	.st2{fill:none;stroke:#000000;stroke-linecap:round;stroke-linejoin:round;stroke-miterlimit:10;}
	.st3{fill:none;stroke:#000000;stroke-linejoin:round;stroke-miterlimit:10;}
</style>
<g id="Filled_Icons" class="st0">
	<g class="st1">
		<path d="M23.9,18.5l-5.7-5.7c-0.2-0.2-0.5-0.2-0.7,0l-1.1,1.1l-0.7-0.7l2.5-2.5c1.2-1.2,1.3-3.1,0.3-4.5l1.1-1.1
			c0,0,0-0.1,0.1-0.1s0.2,0,0.3,0c0.3,0,0.5-0.1,0.7-0.3c0.4-0.4,0.4-1,0-1.4C20.5,3.1,20.2,3,20,3c-0.3,0-0.5,0.1-0.7,0.3
			C19,3.6,18.9,4,19,4.3c0,0-0.1,0-0.1,0.1l-1.1,1.1c-0.6-0.5-1.3-0.7-2.1-0.7c-0.9,0-1.7,0.3-2.4,1l-2.5,2.5l-0.7-0.7l1.1-1.1
			c0.1-0.1,0.1-0.2,0.1-0.4c0-0.1-0.1-0.3-0.1-0.4L5.5,0.1C5.3,0,5,0,4.8,0.1L1.9,3c-0.2,0.2-0.2,0.5,0,0.7l5.7,5.7
			c0.1,0,0.2,0.1,0.4,0.1c0.1,0,0.3,0,0.4-0.1l1.1-1.1L10.1,9l-2.2,2.2c-0.1,0.1-0.1,0.2-0.1,0.4c0,0.1,0.1,0.3,0.1,0.4l4.2,4.2
			c0.1,0.1,0.2,0.1,0.4,0.1c0.1,0,0.3,0,0.4-0.1l2.2-2.2l0.7,0.7l-1.1,1.1c-0.1,0.1-0.1,0.2-0.1,0.4c0,0.1,0.1,0.3,0.1,0.4l5.7,5.7
			c0.1,0.1,0.2,0.1,0.4,0.1c0.1,0,0.3-0.1,0.4-0.1l2.8-2.8C24.1,19,24.1,18.7,23.9,18.5z"/>
		<path d="M6.3,13.2c-1.2,0-2.3,0.5-3.2,1.3C3,14.6,3,14.7,3,14.9s0.1,0.3,0.1,0.4L8.8,21c0,0,0.2,0.1,0.3,0.1S9.4,21,9.5,21
			c1.8-1.8,1.8-4.6,0-6.4C8.6,13.7,7.5,13.2,6.3,13.2z"/>
		<path d="M6.3,22c-0.6,0.6-1.3,0.9-2.1,0.9S2.6,22.6,2.1,22c-0.6-0.6-0.9-1.3-0.9-2.1c0-0.8,0.3-1.6,0.9-2.1c0.2-0.2,0.2-0.5,0-0.7
			s-0.5-0.2-0.7,0c-0.8,0.8-1.2,1.8-1.2,2.8c0,1.1,0.4,2.1,1.2,2.8c0.8,0.8,1.8,1.2,2.8,1.2c1.1,0,2.1-0.4,2.8-1.2
			c0.2-0.2,0.2-0.5,0-0.7C6.8,21.8,6.5,21.8,6.3,22z"/>
		<path d="M3.9,18c-0.2-0.2-0.5-0.2-0.7,0c-0.4,0.4-0.6,0.9-0.6,1.4s0.2,1,0.6,1.4s0.9,0.6,1.4,0.6s1-0.2,1.4-0.6
			c0.2-0.2,0.2-0.5,0-0.7s-0.5-0.2-0.7,0c-0.4,0.4-1,0.4-1.4,0c-0.2-0.2-0.3-0.4-0.3-0.7c0-0.3,0.1-0.5,0.3-0.7
			C4.1,18.5,4.1,18.2,3.9,18z"/>
	</g>
</g>
<g id="Outline_Icons">
	<g>
		<rect x="4.4" y="0.9" transform="matrix(0.7071 -0.7071 0.7071 0.7071 -1.5786 5.9631)" class="st2" width="4" height="8"/>
		<rect x="17.1" y="13.6" transform="matrix(0.707 -0.7072 0.7072 0.707 -6.8631 18.6669)" class="st2" width="4" height="8"/>
		<path class="st2" d="M17.7,6.3c-1.2-1.2-3.1-1.2-4.2,0L7.8,12l4.2,4.2l5.7-5.7C18.9,9.4,18.9,7.5,17.7,6.3z"/>
		<path class="st2" d="M9.9,14.1c-1.6-1.6-4.1-1.6-5.7,0l5.7,5.7C11.5,18.2,11.5,15.6,9.9,14.1z"/>
		<path class="st2" d="M1.5,17.5c-1.4,1.4-1.4,3.6,0,4.9c1.4,1.4,3.6,1.4,4.9,0"/>
		<path class="st2" d="M3.4,18.5c-0.6,0.6-0.6,1.5,0,2.1s1.5,0.6,2.1,0"/>
		<line class="st2" x1="9.2" y1="7.7" x2="10.6" y2="9.1"/>
		<line class="st2" x1="14.9" y1="13.4" x2="16.3" y2="14.8"/>
		<line class="st2" x1="17.7" y1="6.3" x2="19.5" y2="4.5"/>
		<path class="st3" d="M20.3,4.2c0,0.3-0.2,0.5-0.5,0.5l0,0c-0.3,0-0.5-0.2-0.5-0.5l0,0c0-0.3,0.2-0.5,0.5-0.5l0,0
			C20.1,3.7,20.3,3.9,20.3,4.2L20.3,4.2z"/>
	</g>
</g>
</svg>
