<?xml version="1.0" encoding="utf-8"?>
<!-- Generator: Adobe Illustrator 19.2.0, SVG Export Plug-In . SVG Version: 6.00 Build 0)  -->
<svg version="1.1" id="Layer_1" xmlns="http://www.w3.org/2000/svg" xmlns:xlink="http://www.w3.org/1999/xlink" x="0px" y="0px"
	 viewBox="0 0 24 24" style="enable-background:new 0 0 24 24;" xml:space="preserve">
<style type="text/css">
	.st0{display:none;}
	.st1{display:inline;}
	.st2{fill:none;stroke:#000000;stroke-linejoin:round;stroke-miterlimit:10;}
	.st3{fill:none;stroke:#000000;stroke-linecap:round;stroke-linejoin:round;stroke-miterlimit:10;}
</style>
<g id="Filled_Icon" class="st0">
	<g class="st1">
		<path d="M16.6,8.1c0.1,0.1,0.2,0.1,0.4,0.1c0.1,0,0.3-0.1,0.4-0.1l4.2-4.2c0.2-0.2,0.2-0.5,0-0.7l-2.8-2.8c-0.2-0.2-0.5-0.2-0.7,0
			l-4.2,4.2c-0.2,0.2-0.2,0.5,0,0.7L16.6,8.1z"/>
		<path d="M5.3,13.8c-0.2-0.2-0.5-0.2-0.7,0L0.4,18c-0.1,0.1-0.1,0.2-0.1,0.4c0,0.1,0.1,0.3,0.1,0.4l2.8,2.8
			c0.1,0.1,0.2,0.1,0.4,0.1c0.1,0,0.3-0.1,0.4-0.1l4.2-4.2c0.1-0.1,0.1-0.2,0.1-0.4c0-0.1-0.1-0.3-0.1-0.4L5.3,13.8z"/>
		<path d="M10.5,16.6c0,0.3,0.2,0.5,0.4,0.6c0.3,0,0.5,0.1,0.8,0.1c1.4,0,2.8-0.6,3.9-1.6c1.2-1.2,1.8-3,1.6-4.7
			c0-0.3-0.3-0.5-0.6-0.4c-0.3,0-0.5,0.3-0.4,0.6c0.2,1.4-0.3,2.8-1.3,3.8c-1,1-2.4,1.5-3.8,1.3C10.8,16.2,10.6,16.3,10.5,16.6z"/>
		<path d="M10.4,19.6c0,0.3,0.2,0.5,0.4,0.6c0.3,0,0.6,0.1,1,0.1c2.2,0,4.4-0.9,6-2.5c1.8-1.8,2.7-4.4,2.4-7c0-0.3-0.3-0.5-0.6-0.4
			c-0.3,0-0.5,0.3-0.4,0.6c0.3,2.3-0.5,4.5-2.2,6.1c-1.6,1.6-3.9,2.4-6.1,2.2C10.6,19.2,10.4,19.4,10.4,19.6z"/>
		<path d="M23.1,9.7c0-0.3-0.3-0.5-0.6-0.4c-0.3,0-0.5,0.3-0.4,0.6c0.6,3.4-0.5,6.8-2.9,9.3c-2.4,2.4-5.8,3.5-9.2,2.9
			c-0.3,0-0.5,0.1-0.6,0.4c0,0.3,0.1,0.5,0.4,0.6c0.6,0.1,1.3,0.2,1.9,0.2c3,0,6-1.2,8.1-3.4C22.5,17.2,23.7,13.4,23.1,9.7z"/>
		<path d="M14,14c0.8-0.8,0.9-2,0.4-3l-3.4,3.4c0.4,0.2,0.8,0.3,1.2,0.3C12.9,14.7,13.5,14.5,14,14z"/>
		<path d="M15.2,8.1c-0.9-0.9-2.2-1.5-3.5-1.5c-1.3,0-2.6,0.5-3.5,1.5c-0.9,0.9-1.5,2.2-1.5,3.5c0,1.3,0.5,2.6,1.5,3.5l0.4,0.4
			l7.1-7.1L15.2,8.1z"/>
	</g>
</g>
<g id="Outline_Icons">
	<g>
		<rect x="14.7" y="2.3" transform="matrix(0.7069 -0.7073 0.7073 0.7069 2.1746 13.7605)" class="st2" width="6" height="4"/>
		<rect x="1.3" y="15.7" transform="matrix(0.707 -0.7072 0.7072 0.707 -11.2634 8.1933)" class="st2" width="6" height="4"/>
		<path class="st2" d="M8.5,8.5c-1.8,1.8-1.8,4.6,0,6.4l6.4-6.4C13.1,6.7,10.3,6.7,8.5,8.5z"/>
		<path class="st3" d="M13.1,10.3c0.8,0.8,0.8,2.1,0,2.9c-0.8,0.8-2.1,0.7-2.9-0.1"/>
		<path class="st3" d="M16.7,11c0.2,1.5-0.2,3.1-1.4,4.3c-1.2,1.2-2.7,1.6-4.2,1.4"/>
		<path class="st3" d="M19.7,10.9c0.3,2.3-0.5,4.8-2.3,6.5c-1.8,1.8-4.2,2.6-6.5,2.3"/>
		<path class="st3" d="M22.6,9.8c0.6,3.4-0.4,7.1-3.1,9.7c-2.6,2.6-6.2,3.6-9.6,3.1"/>
	</g>
</g>
</svg>
