<?xml version="1.0" encoding="utf-8"?>
<!-- Generator: Adobe Illustrator 19.2.0, SVG Export Plug-In . SVG Version: 6.00 Build 0)  -->
<svg version="1.1" id="Layer_1" xmlns="http://www.w3.org/2000/svg" xmlns:xlink="http://www.w3.org/1999/xlink" x="0px" y="0px"
	 viewBox="0 0 24 24" style="enable-background:new 0 0 24 24;" xml:space="preserve">
<style type="text/css">
	.st0{display:none;}
	.st1{display:inline;}
	.st2{fill:none;stroke:#000000;stroke-linecap:round;stroke-linejoin:round;stroke-miterlimit:10;}
</style>
<g id="Filled_Icons" class="st0">
	<g class="st1">
		<g>
			<path d="M18.7,10.9L20,9.6c0.4-0.4,0.4-1,0-1.4c-0.4-0.4-1-0.4-1.4,0l-1.3,1.3L18.7,10.9z"/>
			<path d="M16.6,8.8l1.3-1.3c0.4-0.4,0.4-1,0-1.4c-0.4-0.4-1-0.4-1.4,0l-1.3,1.3L16.6,8.8z"/>
			<path d="M7.4,15.2l-7.1,7.1c-0.4,0.4-0.4,1,0,1.4C0.5,23.9,0.7,24,1,24s0.5-0.1,0.7-0.3l7.1-7.1L7.4,15.2z"/>
			<path d="M14.5,6.7l1.3-1.3c0.4-0.4,0.4-1,0-1.4c-0.4-0.4-1-0.4-1.4,0l-1.3,1.3L14.5,6.7z"/>
		</g>
		<path d="M22.3,16L8,1.7C7.2,0.8,6,0.3,4.8,0.3S2.5,0.8,1.7,1.7c-0.9,0.9-1.3,2-1.3,3.2S0.8,7.2,1.7,8L16,22.3
			c0.9,0.9,2,1.3,3.2,1.3c1.2,0,2.3-0.5,3.2-1.3C24.1,20.6,24.1,17.7,22.3,16z M3.5,5.5C3.5,5.2,3.7,5,4,5h4c0.3,0,0.5,0.2,0.5,0.5
			S8.3,6,8,6H4C3.7,6,3.5,5.8,3.5,5.5z M7.5,9.5C7.5,9.2,7.7,9,8,9h4c0.3,0,0.5,0.2,0.5,0.5S12.3,10,12,10H8C7.7,10,7.5,9.8,7.5,9.5
			z M11.5,13.5c0-0.3,0.2-0.5,0.5-0.5h4c0.3,0,0.5,0.2,0.5,0.5S16.3,14,16,14h-4C11.7,14,11.5,13.8,11.5,13.5z M20,18h-4
			c-0.3,0-0.5-0.2-0.5-0.5S15.7,17,16,17h4c0.3,0,0.5,0.2,0.5,0.5S20.3,18,20,18z"/>
	</g>
</g>
<g id="Outline_Icons">
	<g>
		<line class="st2" x1="17" y1="11.2" x2="19.3" y2="8.9"/>
		<line class="st2" x1="15.1" y1="4.7" x2="12.8" y2="7"/>
		<line class="st2" x1="9.1" y1="14.9" x2="0.6" y2="23.4"/>
		<line class="st2" x1="17.2" y1="6.8" x2="14.9" y2="9.1"/>
		<path class="st2" d="M22,16.3c1.6,1.6,1.6,4.1,0,5.7c-1.6,1.6-4.1,1.6-5.7,0L2,7.7C0.5,6.1,0.5,3.6,2,2c1.6-1.6,4.1-1.6,5.7,0
			L22,16.3z"/>
		<line class="st2" x1="4" y1="5.5" x2="8" y2="5.5"/>
		<line class="st2" x1="8" y1="9.5" x2="12" y2="9.5"/>
		<line class="st2" x1="12" y1="13.5" x2="16" y2="13.5"/>
		<line class="st2" x1="16" y1="17.5" x2="20" y2="17.5"/>
	</g>
</g>
</svg>
