<?xml version="1.0" encoding="utf-8"?>
<!-- Generator: Adobe Illustrator 19.2.0, SVG Export Plug-In . SVG Version: 6.00 Build 0)  -->
<svg version="1.1" id="Layer_1" xmlns="http://www.w3.org/2000/svg" xmlns:xlink="http://www.w3.org/1999/xlink" x="0px" y="0px"
	 viewBox="0 0 24 24" style="enable-background:new 0 0 24 24;" xml:space="preserve">
<style type="text/css">
	.st0{display:none;}
	.st1{display:inline;}
	.st2{fill:none;stroke:#000000;stroke-linecap:round;stroke-linejoin:round;stroke-miterlimit:10;}
</style>
<g id="Filled_Icon" class="st0">
	<path class="st1" d="M22.4,12.1l-7.5-7.5c-0.1-0.1-0.4-0.2-0.5-0.1C14.1,4.6,14,4.8,14,5v9.5c0,0.6-0.4,1-1,1s-1-0.4-1-1V13h-1.5
		c-0.3,0-0.5-0.2-0.5-0.5s0.2-0.5,0.5-0.5H12v-1h-1.5c-0.3,0-0.5-0.2-0.5-0.5s0.2-0.5,0.5-0.5H12V9h-1.5C10.2,9,10,8.8,10,8.5
		S10.2,8,10.5,8H12V6.5c0-1.7-1.1-3.3-3-4.7C7.4,0.7,5.2,0,3.5,0h-2C1.2,0,1,0.2,1,0.5S1.2,1,1.5,1h2C4.9,1,6,2.1,6,3.5v14
		C6,21,9.5,24,13.5,24s7.5-3,7.5-6.5V14c0-0.6,0.4-1,1-1c0.2,0,0.4-0.1,0.5-0.3C22.5,12.5,22.5,12.3,22.4,12.1z"/>
</g>
<g id="Outline_Icons">
	<g>
		<line class="st2" x1="10.5" y1="8.5" x2="12.5" y2="8.5"/>
		<line class="st2" x1="10.5" y1="10.5" x2="12.5" y2="10.5"/>
		<line class="st2" x1="10.5" y1="12.5" x2="12.5" y2="12.5"/>
		<path class="st2" d="M3.5,0.5c1.7,0,3,1.3,3,3v14c0,3.3,3.5,6,7,6s7-2.7,7-6V14c0-0.8,0.7-1.5,1.5-1.5L14.5,5v9.5
			c0,0.8-0.7,1.5-1.5,1.5s-1.5-0.7-1.5-1.5v-8C11.5,3.2,6.8,0.5,3.5,0.5h-2"/>
	</g>
</g>
</svg>
