<?xml version="1.0" encoding="utf-8"?>
<!-- Generator: Adobe Illustrator 19.2.0, SVG Export Plug-In . SVG Version: 6.00 Build 0)  -->
<svg version="1.1" id="Layer_1" xmlns="http://www.w3.org/2000/svg" xmlns:xlink="http://www.w3.org/1999/xlink" x="0px" y="0px"
	 viewBox="0 0 24 24" style="enable-background:new 0 0 24 24;" xml:space="preserve">
<style type="text/css">
	.st0{display:none;}
	.st1{display:inline;}
	.st2{fill:none;stroke:#000000;stroke-linecap:round;stroke-linejoin:round;stroke-miterlimit:10;}
</style>
<g id="Filled_Icon" class="st0">
	<g class="st1">
		<path d="M14,3.5H1c-0.6,0-1,0.4-1,1v3c0,0.6,0.4,1,1,1s1-0.4,1-1v-2h4.5v14h-2c-0.6,0-1,0.4-1,1s0.4,1,1,1h6c0.6,0,1-0.4,1-1
			s-0.4-1-1-1h-2v-14H13v2c0,0.6,0.4,1,1,1s1-0.4,1-1v-3C15,3.9,14.6,3.5,14,3.5z"/>
		<path d="M22.1,18.9l-0.6,0.9V4.2l0.6,0.9c0.2,0.3,0.5,0.4,0.8,0.4c0.2,0,0.4-0.1,0.6-0.2C24,5,24.1,4.4,23.8,3.9l-2.4-3.5
			c-0.4-0.6-1.2-0.6-1.6,0l-2.5,3.5C16.9,4.4,17,5,17.4,5.3c0.5,0.3,1.1,0.2,1.4-0.2l0.7-0.9v15.7L18.8,19c-0.3-0.5-0.9-0.6-1.4-0.2
			c-0.5,0.3-0.6,0.9-0.2,1.4l2.5,3.5c0.4,0.6,1.3,0.5,1.6,0l2.4-3.5c0.3-0.5,0.2-1.1-0.3-1.4C23,18.4,22.4,18.5,22.1,18.9z"/>
	</g>
</g>
<g id="Outline_Icons">
	<g>
		<g>
			<polyline class="st2" points="0.5,7.5 0.5,4.5 14.5,4.5 14.5,7.5 			"/>
			<line class="st2" x1="7.5" y1="4.5" x2="7.5" y2="20.5"/>
			<line class="st2" x1="4" y1="20.5" x2="11" y2="20.5"/>
		</g>
		<g>
			<line class="st2" x1="20.5" y1="0.5" x2="20.5" y2="22.5"/>
			<polyline class="st2" points="17.5,4.8 20.5,0.5 23.5,4.8 			"/>
			<polyline class="st2" points="17.5,18.3 20.5,22.5 23.5,18.3 			"/>
		</g>
	</g>
</g>
</svg>
