<?xml version="1.0" encoding="utf-8"?>
<!-- Generator: Adobe Illustrator 19.2.0, SVG Export Plug-In . SVG Version: 6.00 Build 0)  -->
<svg version="1.1" id="Layer_1" xmlns="http://www.w3.org/2000/svg" xmlns:xlink="http://www.w3.org/1999/xlink" x="0px" y="0px"
	 viewBox="0 0 24 24" style="enable-background:new 0 0 24 24;" xml:space="preserve">
<style type="text/css">
	.st0{display:none;}
	.st1{display:inline;}
	.st2{fill:none;stroke:#000000;stroke-linecap:round;stroke-linejoin:round;stroke-miterlimit:10;}
</style>
<g id="Filled_Icons" class="st0">
	<path class="st1" d="M22.5,16h-0.6L19.2,6h2.3C21.8,6,22,5.8,22,5.5C22,5.2,21.8,5,21.5,5H12V3.5C12,3.2,11.8,3,11.5,3
		C11.3,3,11,3.2,11,3.5V5H1.5C1.2,5,1,5.2,1,5.5C1,5.8,1.2,6,1.5,6h2.3L1.1,16H0.5C0.2,16,0,16.2,0,16.5C0,19,2,21,4.5,21
		S9,19,9,16.5C9,16.2,8.8,16,8.5,16H7.9L5.2,6H11v0.5C11,6.8,11.3,7,11.5,7C11.8,7,12,6.8,12,6.5V6h5.8l-2.7,10h-0.6
		c-0.3,0-0.5,0.2-0.5,0.5c0,2.5,2,4.5,4.5,4.5c2.5,0,4.5-2,4.5-4.5C23,16.2,22.8,16,22.5,16z M6.8,16H2.1l2.4-8.6L6.8,16z M16.2,16
		l2.4-8.6l2.4,8.6H16.2z"/>
</g>
<g id="Outline_Icons">
	<g>
		<line class="st2" x1="1.5" y1="5.5" x2="21.5" y2="5.5"/>
		<line class="st2" x1="11.5" y1="3.5" x2="11.5" y2="6.5"/>
		<path class="st2" d="M8.5,16.5c0,2.2-1.8,4-4,4c-2.2,0-4-1.8-4-4H8.5z"/>
		<path class="st2" d="M22.5,16.5c0,2.2-1.8,4-4,4s-4-1.8-4-4H22.5z"/>
		<polyline class="st2" points="1.5,16.5 4.5,5.5 7.5,16.5 		"/>
		<polyline class="st2" points="15.5,16.5 18.5,5.5 21.5,16.5 		"/>
	</g>
</g>
</svg>
