<?xml version="1.0" encoding="utf-8"?>
<!-- Generator: Adobe Illustrator 19.2.0, SVG Export Plug-In . SVG Version: 6.00 Build 0)  -->
<svg version="1.1" id="Layer_1" xmlns="http://www.w3.org/2000/svg" xmlns:xlink="http://www.w3.org/1999/xlink" x="0px" y="0px"
	 viewBox="0 0 24 24" style="enable-background:new 0 0 24 24;" xml:space="preserve">
<style type="text/css">
	.st0{display:none;}
	.st1{display:inline;}
	.st2{fill:none;stroke:#000000;stroke-linecap:round;stroke-linejoin:round;stroke-miterlimit:10;}
</style>
<g id="Filled_Icon" class="st0">
	<g class="st1">
		<path d="M18,0H5C4.4,0,4,0.4,4,1v3c0,0.6,0.4,1,1,1s1-0.4,1-1V2h4.5v14h-2c-0.6,0-1,0.4-1,1s0.4,1,1,1h6c0.6,0,1-0.4,1-1
			s-0.4-1-1-1h-2V2H17v2c0,0.6,0.4,1,1,1s1-0.4,1-1V1C19,0.4,18.6,0,18,0z"/>
		<path d="M18.9,22.2l0.9-0.6H4.2l0.9,0.6c0.3,0.2,0.4,0.5,0.4,0.8c0,0.2-0.1,0.4-0.2,0.6C5,24,4.4,24.1,3.9,23.8l-3.5-2.4
			c-0.6-0.4-0.6-1.3,0-1.6l3.5-2.5C4.4,17,5,17.1,5.3,17.5c0.3,0.5,0.2,1.1-0.2,1.4l-0.9,0.7h15.7L19,18.9c-0.5-0.3-0.6-0.9-0.2-1.4
			c0.3-0.5,0.9-0.6,1.4-0.2l3.5,2.5c0.5,0.4,0.6,1.2,0,1.6l-3.5,2.4c-0.5,0.3-1.1,0.2-1.4-0.3C18.4,23.1,18.5,22.5,18.9,22.2z"/>
	</g>
</g>
<g id="Outline_Icons">
	<g>
		<g>
			<polyline class="st2" points="4.5,3.5 4.5,0.5 18.5,0.5 18.5,3.5 			"/>
			<line class="st2" x1="11.5" y1="0.5" x2="11.5" y2="16.5"/>
			<line class="st2" x1="8" y1="16.5" x2="15" y2="16.5"/>
		</g>
		<g>
			<line class="st2" x1="0.5" y1="20.5" x2="22.5" y2="20.5"/>
			<polyline class="st2" points="4.8,23.5 0.5,20.5 4.8,17.5 			"/>
			<polyline class="st2" points="18.2,23.5 22.5,20.5 18.2,17.5 			"/>
		</g>
	</g>
</g>
</svg>
