<?xml version="1.0" encoding="utf-8"?>
<!-- Generator: Adobe Illustrator 19.2.0, SVG Export Plug-In . SVG Version: 6.00 Build 0)  -->
<svg version="1.1" id="Layer_1" xmlns="http://www.w3.org/2000/svg" xmlns:xlink="http://www.w3.org/1999/xlink" x="0px" y="0px"
	 viewBox="0 0 24 24" style="enable-background:new 0 0 24 24;" xml:space="preserve">
<style type="text/css">
	.st0{display:none;}
	.st1{display:inline;}
	.st2{fill:none;stroke:#000000;stroke-linecap:round;stroke-linejoin:round;stroke-miterlimit:10;}
</style>
<g id="Filled_Icon" class="st0">
	<path class="st1" d="M24,12.5C24,12.5,24,12.4,24,12.5c0-0.1,0-0.2,0-0.2l0,0L20.8,5h0.7C21.8,5,22,4.8,22,4.5S21.8,4,21.5,4h-8.1
		c-0.2-0.9-1-1.5-1.9-1.5S9.8,3.1,9.6,4H2.5C2.2,4,2,4.2,2,4.5S2.2,5,2.5,5h0.7L0,12.3l0,0v0.1v0.1l0,0c0,2.2,1.8,4,4,4s4-1.8,4-4
		l0,0v-0.1v-0.1l0,0L4.8,5h4.8c0.2,0.7,0.7,1.2,1.4,1.4V21H8c-0.3,0-0.5,0.2-0.5,0.5S7.7,22,8,22h7.5c0.3,0,0.5-0.2,0.5-0.5
		S15.8,21,15.5,21H12V6.4c0.7-0.2,1.2-0.7,1.4-1.4h5.8L16,12.3l0,0v0.1v0.1l0,0c0,2.2,1.8,4,4,4S24,14.7,24,12.5L24,12.5z M6.7,12
		H1.3L4,5.7L6.7,12z M17.3,12L20,5.7l2.7,6.3H17.3z"/>
</g>
<g id="Outline_Icons">
	<g>
		<line class="st2" x1="11.5" y1="6.4" x2="11.5" y2="21.5"/>
		<line class="st2" x1="8.6" y1="21.5" x2="14.4" y2="21.5"/>
		<polyline class="st2" points="0.8,12.5 4.2,4.5 7.6,12.5 		"/>
		<circle class="st2" cx="11.5" cy="5" r="1.5"/>
		<path class="st2" d="M4.2,16.2c1.9,0,3.4-1.5,3.4-3.6H0.8C0.8,14.6,2.3,16.2,4.2,16.2z"/>
		<polyline class="st2" points="23.2,12.5 19.8,4.5 16.4,12.5 		"/>
		<path class="st2" d="M19.8,16.2c-1.9,0-3.4-1.5-3.4-3.6h6.8C23.2,14.6,21.7,16.2,19.8,16.2z"/>
		<line class="st2" x1="10.1" y1="4.5" x2="2.7" y2="4.5"/>
		<line class="st2" x1="12.9" y1="4.5" x2="21.2" y2="4.5"/>
	</g>
</g>
</svg>
