<?xml version="1.0" encoding="utf-8"?>
<!-- Generator: Adobe Illustrator 19.2.0, SVG Export Plug-In . SVG Version: 6.00 Build 0)  -->
<svg version="1.1" id="Layer_1" xmlns="http://www.w3.org/2000/svg" xmlns:xlink="http://www.w3.org/1999/xlink" x="0px" y="0px"
	 viewBox="0 0 24 24" style="enable-background:new 0 0 24 24;" xml:space="preserve">
<style type="text/css">
	.st0{display:none;}
	.st1{display:inline;}
	.st2{fill:none;stroke:#000000;stroke-linecap:round;stroke-linejoin:round;stroke-miterlimit:10;}
</style>
<g id="Filled_Icons" class="st0">
	<path class="st1" d="M23.8,19L20,9.5L22,2.7C22,2.7,22,2.6,22,2.5c0-0.1,0-0.1,0-0.2C21.9,1,20.8,0,19.5,0h-15C3.2,0,2.1,1.1,2,2.4
		c0,0,0,0,0,0c0,0,0,0.1,0,0.1c0,0,0,0.1,0,0.1c0,0,0,0,0,0.1l2,6.8L0.2,19H23.8z M19.9,17.8c-0.1,0.1-0.2,0.2-0.4,0.2h-15
		c-0.2,0-0.3-0.1-0.4-0.2C4,17.7,4,17.5,4,17.3l2-6C6.1,11.1,6.3,11,6.5,11h11c0.2,0,0.4,0.1,0.5,0.3l2,6C20,17.5,20,17.7,19.9,17.8
		z M3.2,3h17.7l-1.7,6H4.9L3.2,3z"/>
	<path class="st1" d="M0.1,20c0.2,2.5,2.3,4,5.4,4h13c3.2,0,5.2-1.5,5.4-4H0.1z M16.5,22c-0.3,0-0.5-0.2-0.5-0.5
		c0-0.3,0.2-0.5,0.5-0.5c0.3,0,0.5,0.2,0.5,0.5C17,21.8,16.8,22,16.5,22z M19.5,22c-0.3,0-0.5-0.2-0.5-0.5c0-0.3,0.2-0.5,0.5-0.5
		c0.3,0,0.5,0.2,0.5,0.5C20,21.8,19.8,22,19.5,22z"/>
</g>
<g id="Outline_Icons">
	<g>
		<g>
			<g>
				<path d="M16.5,21c-0.3,0-0.5,0.2-0.5,0.5c0,0.3,0.2,0.5,0.5,0.5c0.3,0,0.5-0.2,0.5-0.5C17,21.2,16.8,21,16.5,21L16.5,21z"/>
			</g>
		</g>
		<g>
			<g>
				<path d="M19.5,21c-0.3,0-0.5,0.2-0.5,0.5c0,0.3,0.2,0.5,0.5,0.5c0.3,0,0.5-0.2,0.5-0.5C20,21.2,19.8,21,19.5,21L19.5,21z"/>
			</g>
		</g>
		<path class="st2" d="M23.5,19.5c0,2.8-2.2,4-5,4h-13c-2.8,0-5-1.2-5-4H23.5z"/>
		<polyline class="st2" points="0.5,19.5 4.5,9.5 19.5,9.5 23.5,19.5 		"/>
		<polygon class="st2" points="21.5,2.5 2.5,2.5 4.5,9.5 19.5,9.5 		"/>
		<path class="st2" d="M2.5,2.5c0-1.1,0.9-2,2-2h15c1.1,0,2,0.9,2,2H2.5z"/>
		<polygon class="st2" points="17.5,11.5 6.5,11.5 4.5,17.5 19.5,17.5 		"/>
	</g>
</g>
</svg>
