<?xml version="1.0" encoding="utf-8"?>
<!-- Generator: Adobe Illustrator 19.2.0, SVG Export Plug-In . SVG Version: 6.00 Build 0)  -->
<svg version="1.1" id="Layer_1" xmlns="http://www.w3.org/2000/svg" xmlns:xlink="http://www.w3.org/1999/xlink" x="0px" y="0px"
	 viewBox="0 0 24 24" style="enable-background:new 0 0 24 24;" xml:space="preserve">
<style type="text/css">
	.st0{display:none;}
	.st1{display:inline;}
	.st2{fill:none;stroke:#000000;stroke-linecap:round;stroke-linejoin:round;stroke-miterlimit:10;}
</style>
<g id="Filled_Icons" class="st0">
	<g class="st1">
		<path d="M5.5,4.5H8h8h2.5C18.8,4.5,19,4.3,19,4V2.5C19,2.2,18.8,2,18.5,2H16V0.5C16,0.2,15.8,0,15.5,0h-7C8.2,0,8,0.2,8,0.5V2H5.5
			C5.2,2,5,2.2,5,2.5V4C5,4.3,5.2,4.5,5.5,4.5z"/>
		<path d="M23,10.5h-4V10c0-0.3-0.2-0.5-0.5-0.5h-2.9C14.7,10.4,13.4,11,12,11s-2.7-0.6-3.6-1.5H5.5C5.2,9.5,5,9.7,5,10v0.5H1
			c-0.6,0-1,0.4-1,1s0.4,1,1,1h4v1C5,13.8,5.2,14,5.5,14H8v4.5C8,18.8,8.2,19,8.5,19h7c0.3,0,0.5-0.2,0.5-0.5V14h2.5
			c0.3,0,0.5-0.2,0.5-0.5v-1h4c0.6,0,1-0.4,1-1C24,11,23.6,10.5,23,10.5z"/>
		<path d="M10,23.5c0,0.3,0.2,0.5,0.5,0.5h3c0.3,0,0.5-0.2,0.5-0.5V20h-4V23.5z"/>
		<path d="M8,6c0,2.2,1.8,4,4,4s4-1.8,4-4V5.5H8V6z"/>
	</g>
</g>
<g id="Outline_Icons">
	<g>
		<path class="st2" d="M15.5,6c0,1.9-1.6,3.5-3.5,3.5S8.5,7.9,8.5,6V4.5h7V6z"/>
		<polygon class="st2" points="18.5,4.5 5.5,4.5 5.5,2.5 8.5,2.5 8.5,0.5 15.5,0.5 15.5,2.5 18.5,2.5 		"/>
		<polygon class="st2" points="18.5,9.5 5.5,9.5 5.5,13.5 8.5,13.5 8.5,18.5 15.5,18.5 15.5,13.5 18.5,13.5 		"/>
		<rect x="10.5" y="18.5" class="st2" width="3" height="5"/>
		<line class="st2" x1="18.5" y1="11.5" x2="23.5" y2="11.5"/>
		<line class="st2" x1="0.5" y1="11.5" x2="5.5" y2="11.5"/>
	</g>
</g>
</svg>
