<?xml version="1.0" encoding="utf-8"?>
<!-- Generator: Adobe Illustrator 19.2.0, SVG Export Plug-In . SVG Version: 6.00 Build 0)  -->
<svg version="1.1" id="Layer_1" xmlns="http://www.w3.org/2000/svg" xmlns:xlink="http://www.w3.org/1999/xlink" x="0px" y="0px"
	 viewBox="0 0 24 24" style="enable-background:new 0 0 24 24;" xml:space="preserve">
<style type="text/css">
	.st0{display:none;}
	.st1{display:inline;}
	.st2{fill:none;stroke:#000000;stroke-linecap:round;stroke-linejoin:round;stroke-miterlimit:10;}
</style>
<g id="Filled_Icons" class="st0">
	<g class="st1">
		<path d="M23.5,5.6c-0.3-0.5-0.8-0.9-1.5-1.1c-0.6-0.2-1.3-0.1-1.8,0.2C19.7,5.1,9,11.4,9,11.4L5.7,9.7c1.5-0.6,2.5-2,2.5-3.7
			c0-2.2-1.8-4-4-4c-2.2,0-4,1.8-4,4c0,2.2,1.7,3.9,3.9,4c0,0,0,0,0.1,0l3.7,2l-3.8,2c-2.1,0.1-3.9,1.8-3.9,4c0,2.2,1.8,4,4,4
			c2.2,0,4-1.8,4-4c0-1.7-1-3.1-2.5-3.7l3.4-1.8c0,0,10.9,6.6,11.1,6.7c0.3,0.2,0.7,0.3,1.1,0.3c0.2,0,0.4,0,0.6-0.1
			c0.6-0.2,1.2-0.5,1.5-1.1c0.1-0.1,0-0.3-0.1-0.3l-9.9-6.2L23.4,6C23.5,5.9,23.6,5.7,23.5,5.6z M1.3,6c0-1.7,1.3-3,3-3
			c1.7,0,3,1.3,3,3c0,1.7-1.3,3-3,3C2.6,9,1.3,7.7,1.3,6z M7.3,18c0,1.7-1.3,3-3,3c-1.7,0-3-1.3-3-3c0-1.7,1.3-3,3-3l0,0h0
			C5.9,15,7.3,16.3,7.3,18z"/>
	</g>
</g>
<g id="Outline_Icons">
	<g>
		<circle class="st2" cx="4.1" cy="18" r="3.5"/>
		<path class="st2" d="M13.1,12l10.2-6.1c-0.6-1-2-1.3-2.9-0.8L4.6,14.5"/>
		<circle class="st2" cx="4.1" cy="6" r="3.5"/>
		<path class="st2" d="M11,10.7l12.4,7.4c-0.6,1-2,1.3-2.9,0.8L4.6,9.5"/>
	</g>
</g>
</svg>
