<?xml version="1.0" encoding="utf-8"?>
<!-- Generator: Adobe Illustrator 19.2.0, SVG Export Plug-In . SVG Version: 6.00 Build 0)  -->
<svg version="1.1" id="Layer_1" xmlns="http://www.w3.org/2000/svg" xmlns:xlink="http://www.w3.org/1999/xlink" x="0px" y="0px"
	 viewBox="0 0 24 24" style="enable-background:new 0 0 24 24;" xml:space="preserve">
<style type="text/css">
	.st0{display:none;}
	.st1{display:inline;}
	.st2{fill:none;stroke:#000000;stroke-linecap:round;stroke-linejoin:round;stroke-miterlimit:10;}
</style>
<g id="Filled_Icons" class="st0">
	<g class="st1">
		<path d="M16.8,8.3c0.7,1,1.9,1.7,3.2,1.7c2.2,0,4-1.8,4-4c0-2.2-1.8-4-4-4c-2.2,0-4,1.8-4,4c0,1.8-0.5,3.5-1.3,5.1
			c-2.2-2.9-5.6-4.6-9.2-4.6c-1.1,0-4.3,0.3-5.3,1.1C0,7.7,0,7.9,0,8.1c0,0.2,0.2,0.3,0.4,0.4L12.9,12L0.4,15.5
			C0.2,15.6,0,15.7,0,15.9c0,0.2,0,0.4,0.2,0.5c1,0.8,4.2,1.1,5.3,1.1c3.6,0,7-1.7,9.2-4.6c0.9,1.5,1.3,3.3,1.3,5.1c0,2.2,1.8,4,4,4
			c2.2,0,4-1.8,4-4c0-2.2-1.8-4-4-4c-1.3,0-2.5,0.7-3.2,1.7c-0.3-1.3-0.8-2.5-1.5-3.7C16,10.9,16.5,9.6,16.8,8.3z M20,3
			c1.7,0,3,1.3,3,3c0,1.7-1.3,3-3,3c-1.7,0-3-1.3-3-3C17,4.3,18.3,3,20,3z M20,15c1.7,0,3,1.3,3,3c0,1.7-1.3,3-3,3c-1.7,0-3-1.3-3-3
			C17,16.3,18.3,15,20,15z"/>
	</g>
</g>
<g id="Outline_Icons">
	<g>
		<circle class="st2" cx="20" cy="18" r="3.5"/>
		<circle class="st2" cx="20" cy="6" r="3.5"/>
		<path class="st2" d="M16.5,18c0-6.1-4.9-11-11-11c-1.1,0-4.2,0.4-5,1l14.2,4L0.5,16c0.8,0.6,3.9,1,5,1c6.1,0,11-4.9,11-11"/>
	</g>
</g>
</svg>
