<?xml version="1.0" encoding="utf-8"?>
<!-- Generator: Adobe Illustrator 19.2.0, SVG Export Plug-In . SVG Version: 6.00 Build 0)  -->
<svg version="1.1" id="Layer_1" xmlns="http://www.w3.org/2000/svg" xmlns:xlink="http://www.w3.org/1999/xlink" x="0px" y="0px"
	 viewBox="0 0 24 24" style="enable-background:new 0 0 24 24;" xml:space="preserve">
<style type="text/css">
	.st0{display:none;}
	.st1{display:inline;}
	.st2{fill:none;stroke:#000000;stroke-linejoin:round;stroke-miterlimit:10;}
	.st3{fill:none;stroke:#000000;stroke-linecap:round;stroke-linejoin:round;stroke-miterlimit:10;}
</style>
<g id="Filled_Icons" class="st0">
	<g class="st1">
		<path d="M22.5,5h-21C0.7,5,0,5.7,0,6.5v13C0,20.3,0.7,21,1.5,21H10v2H7c-0.3,0-0.5,0.2-0.5,0.5C6.5,23.8,6.7,24,7,24h10
			c0.3,0,0.5-0.2,0.5-0.5c0-0.3-0.2-0.5-0.5-0.5h-3v-2h8.5c0.8,0,1.5-0.7,1.5-1.5v-13C24,5.7,23.3,5,22.5,5z M22,18.5
			c0,0.3-0.2,0.5-0.5,0.5h-19C2.2,19,2,18.8,2,18.5v-11C2,7.2,2.2,7,2.5,7h19C21.8,7,22,7.2,22,7.5V18.5z"/>
		<g>
			<path d="M16.7,2.5c-0.1,0-0.2,0-0.3-0.1c-2.6-1.8-6.2-1.8-8.9,0C7.3,2.6,7,2.5,6.9,2.3C6.7,2,6.8,1.7,7,1.6c3-2,7-2,10,0
				c0.2,0.2,0.3,0.5,0.1,0.7C17,2.4,16.9,2.5,16.7,2.5z"/>
		</g>
		<g>
			<path d="M15.6,4.2c-0.1,0-0.2,0-0.3-0.1c-2-1.3-4.7-1.3-6.7,0C8.4,4.2,8.1,4.2,8,3.9C7.8,3.7,7.9,3.4,8.1,3.2
				c2.3-1.5,5.5-1.5,7.8,0c0.2,0.2,0.3,0.5,0.1,0.7C15.9,4.1,15.8,4.2,15.6,4.2z"/>
		</g>
	</g>
</g>
<g id="Outline_Icons">
	<g>
		<g>
			<path class="st2" d="M23.5,19.5c0,0.5-0.5,1-1,1h-21c-0.5,0-1-0.5-1-1v-13c0-0.5,0.5-1,1-1h21c0.5,0,1,0.5,1,1V19.5z"/>
			<rect x="2.5" y="7.5" class="st2" width="19" height="11"/>
			<line class="st3" x1="7" y1="23.5" x2="17" y2="23.5"/>
			<line class="st2" x1="10.5" y1="20.5" x2="10.5" y2="23.5"/>
			<line class="st2" x1="13.5" y1="20.5" x2="13.5" y2="23.5"/>
		</g>
		<path class="st3" d="M16.7,2c-1.4-0.9-3-1.4-4.7-1.4c-1.7,0-3.4,0.5-4.7,1.4"/>
		<path class="st3" d="M15.6,3.7c-1-0.7-2.3-1.1-3.6-1.1S9.4,3,8.4,3.7"/>
	</g>
</g>
</svg>
