<?xml version="1.0" encoding="utf-8"?>
<!-- Generator: Adobe Illustrator 19.2.0, SVG Export Plug-In . SVG Version: 6.00 Build 0)  -->
<svg version="1.1" id="Layer_1" xmlns="http://www.w3.org/2000/svg" xmlns:xlink="http://www.w3.org/1999/xlink" x="0px" y="0px"
	 viewBox="0 0 24 24" style="enable-background:new 0 0 24 24;" xml:space="preserve">
<style type="text/css">
	.st0{display:none;}
	.st1{display:inline;}
	.st2{fill:none;stroke:#000000;stroke-linecap:round;stroke-linejoin:round;stroke-miterlimit:10;}
</style>
<g id="Filled_Icon" class="st0">
	<g class="st1">
		<path d="M11,20.5c0-1.5,0.8-2.7,1.8-3.5H5.5H5H3.5C1.6,17,0,18.6,0,20.5S1.6,24,3.5,24h9.3C11.8,23.2,11,22,11,20.5z"/>
		<path d="M21,0H8.5C6.6,0,5,1.6,5,3.5V16h10.5c0.3,0,0.5,0.2,0.5,0.5S15.8,17,15.5,17C14,17,12,18.3,12,20.5s2,3.5,3.5,3.5
			c1.9,0,3.5-1.6,3.5-3.5V4h4.5C23.8,4,24,3.8,24,3.5C24,1.4,22.8,0,21,0z M14.5,14H9c-0.3,0-0.5-0.2-0.5-0.5S8.7,13,9,13h5.5
			c0.3,0,0.5,0.2,0.5,0.5S14.8,14,14.5,14z M14.5,11H9c-0.3,0-0.5-0.2-0.5-0.5S8.7,10,9,10h5.5c0.3,0,0.5,0.2,0.5,0.5
			S14.8,11,14.5,11z M14.5,8H9C8.7,8,8.5,7.8,8.5,7.5S8.7,7,9,7h5.5C14.8,7,15,7.2,15,7.5S14.8,8,14.5,8z M14.5,5H9
			C8.7,5,8.5,4.8,8.5,4.5S8.7,4,9,4h5.5C14.8,4,15,4.2,15,4.5S14.8,5,14.5,5z M19.1,3c0.3-1.6,1.3-1.9,1.7-2c0.1,0,0.1,0,0.2,0
			c1.1,0,1.8,0.8,2,2H19.1z"/>
	</g>
</g>
<g id="Outline_Icons">
	<g>
		<path class="st2" d="M5.5,17.5v-14c0-1.7,1.3-3,3-3h12"/>
		<line class="st2" x1="9" y1="5.5" x2="14.5" y2="5.5"/>
		<line class="st2" x1="9" y1="8.5" x2="14.5" y2="8.5"/>
		<line class="st2" x1="9" y1="11.5" x2="14.5" y2="11.5"/>
		<line class="st2" x1="9" y1="14.5" x2="14.5" y2="14.5"/>
		<path class="st2" d="M15.5,23.5h-12c-1.7,0-3-1.3-3-3s1.3-3,3-3h12c-1.7,0-3,1.3-3,3S13.8,23.5,15.5,23.5s3-1.3,3-3V3
			c0-1.4,1.1-2.5,2.5-2.5s2.5,1.1,2.5,3h-5"/>
	</g>
</g>
</svg>
