<?xml version="1.0" encoding="utf-8"?>
<!-- Generator: Adobe Illustrator 19.2.0, SVG Export Plug-In . SVG Version: 6.00 Build 0)  -->
<svg version="1.1" id="Outline_Icons" xmlns="http://www.w3.org/2000/svg" xmlns:xlink="http://www.w3.org/1999/xlink" x="0px"
	 y="0px" viewBox="0 0 24 24" style="enable-background:new 0 0 24 24;" xml:space="preserve">
<style type="text/css">
	.st0{fill:none;stroke:#000000;stroke-linecap:round;stroke-linejoin:round;stroke-miterlimit:10;}
</style>
<g>
	<path class="st0" d="M3,3c0-1.4,1.1-2.5,2.5-2.5h2v3c0,1.1-0.4,2-1.5,2H4.5C3.7,5.5,3,4.8,3,4V3z"/>
	<path class="st0" d="M12,3c0-1.4-1.1-2.5-2.5-2.5h-2v3c0,1.1,0.4,2,1.5,2h1.5C11.3,5.5,12,4.8,12,4V3z"/>
	<line class="st0" x1="2.5" y1="2.5" x2="2.5" y2="3.5"/>
	<line class="st0" x1="12.5" y1="2.5" x2="12.5" y2="3.5"/>
	<circle class="st0" cx="7" cy="9" r="1.5"/>
	<path class="st0" d="M23.5,22c0,0.8-0.7,1.5-1.5,1.5h-3c-0.8,0-1.5-0.7-1.5-1.5v-9.5c0-1.7,1.3-3,3-3s3,1.3,3,3V22z"/>
	<rect x="19.5" y="7.5" class="st0" width="2" height="2"/>
	<line class="st0" x1="17.5" y1="21.5" x2="23.5" y2="21.5"/>
	<line class="st0" x1="17.5" y1="12.5" x2="23.5" y2="12.5"/>
	<path class="st0" d="M20.5,7.5c0-1.1-1-2-2-2h-1c-1.5,0-3,0.5-3,3.5v7.8c0,4.2-2,6.8-6.2,6.8c-3.7,0-6.8-3-6.8-6.8V13
		c0-2.2,1.8-4,4-4"/>
</g>
</svg>
