<?xml version="1.0" encoding="utf-8"?>
<!-- Generator: Adobe Illustrator 19.2.0, SVG Export Plug-In . SVG Version: 6.00 Build 0)  -->
<svg version="1.1" id="Layer_1" xmlns="http://www.w3.org/2000/svg" xmlns:xlink="http://www.w3.org/1999/xlink" x="0px" y="0px"
	 viewBox="0 0 24 24" style="enable-background:new 0 0 24 24;" xml:space="preserve">
<style type="text/css">
	.st0{display:none;}
	.st1{display:inline;}
	.st2{fill:none;stroke:#000000;stroke-linecap:round;stroke-linejoin:round;stroke-miterlimit:10;}
</style>
<g id="Filled_Icons" class="st0">
	<g class="st1">
		<path d="M17.5,11c-3.6,0-6.5,2.9-6.5,6.5s2.9,6.5,6.5,6.5s6.5-2.9,6.5-6.5S21.1,11,17.5,11z M21.4,15.1L21,16.8c0,0,0,0,0,0.1
			c0,0,0,0.1,0,0.1c0,0,0,0-0.1,0.1c0,0,0,0-0.1,0.1c0,0,0,0,0,0c0,0,0,0,0,0c0,0,0,0-0.1,0c0,0-0.1,0-0.1,0c0,0,0,0,0,0
			c0,0,0,0,0,0c0,0,0,0,0,0c0,0,0,0,0,0l-1.7-0.4c-0.3-0.1-0.4-0.3-0.4-0.6c0.1-0.3,0.3-0.4,0.6-0.4l0.6,0.2
			c-0.2-0.2-0.5-0.5-0.7-0.6c-0.6-0.3-1.3-0.4-1.9-0.2c-0.7,0.2-1.2,0.6-1.5,1.2c-0.3,0.6-0.4,1.3-0.2,1.9c0.4,1.3,1.8,2.1,3.2,1.7
			c0.3-0.1,0.5,0.1,0.6,0.3c0.1,0.3-0.1,0.5-0.3,0.6c-0.3,0.1-0.7,0.1-1,0.1c-1.5,0-3-1-3.4-2.6c-0.3-0.9-0.2-1.9,0.3-2.7
			c0.5-0.8,1.2-1.4,2.1-1.7c0.9-0.3,1.9-0.2,2.7,0.3c0.4,0.2,0.8,0.5,1.1,0.9l0.1-0.4c0.1-0.3,0.3-0.4,0.6-0.4
			C21.3,14.6,21.5,14.8,21.4,15.1z"/>
		<path d="M10,17.5c0-4.1,3.4-7.5,7.5-7.5c0.2,0,0.3,0,0.5,0V5.5c0-0.1-0.1-0.3-0.1-0.4l-5-5C12.8,0.1,12.6,0,12.5,0h-12
			C0.2,0,0,0.2,0,0.5v9C0,9.8,0.2,10,0.5,10H1v2H0.5C0.2,12,0,12.2,0,12.5v11C0,23.8,0.2,24,0.5,24h13.3C11.5,22.7,10,20.3,10,17.5z
			 M13,5.5C13,5.2,13.2,5,13.5,5C13.8,5,14,5.2,14,5.5v4c0,0.3-0.2,0.5-0.5,0.5C13.2,10,13,9.8,13,9.5V5.5z M10,3.5
			C10,3.2,10.2,3,10.5,3C10.8,3,11,3.2,11,3.5v5C11,8.8,10.8,9,10.5,9C10.2,9,10,8.8,10,8.5V3.5z M5,8.5C5,8.8,4.8,9,4.5,9
			C4.2,9,4,8.8,4,8.5v-5C4,3.2,4.2,3,4.5,3C4.8,3,5,3.2,5,3.5V8.5z M8,8.5C8,8.8,7.8,9,7.5,9C7.2,9,7,8.8,7,8.5v-5
			C7,3.2,7.2,3,7.5,3C7.8,3,8,3.2,8,3.5V8.5z"/>
	</g>
</g>
<g id="Outline_Icons">
	<g>
		<g>
			<polyline class="st2" points="17.5,8.9 17.5,5.5 12.5,0.5 0.5,0.5 0.5,9.5 1.5,9.5 1.5,12.5 0.5,12.5 0.5,23.5 10,23.5 			"/>
			<line class="st2" x1="4.5" y1="3.5" x2="4.5" y2="8.5"/>
			<line class="st2" x1="7.5" y1="3.5" x2="7.5" y2="8.5"/>
			<line class="st2" x1="10.5" y1="3.5" x2="10.5" y2="8.5"/>
			<line class="st2" x1="13.5" y1="5.5" x2="13.5" y2="9.5"/>
		</g>
		<g>
			<g>
				<path class="st2" d="M18.4,23.3c-2.7,0.8-5.4-0.8-6.2-3.4c-0.8-2.6,0.8-5.4,3.4-6.2c2.6-0.8,5.4,0.8,6.2,3.4"/>
				<polyline class="st2" points="22.5,14.3 21.8,17.1 19.1,16.4 				"/>
			</g>
		</g>
	</g>
</g>
</svg>
