<?xml version="1.0" encoding="utf-8"?>
<!-- Generator: Adobe Illustrator 19.2.0, SVG Export Plug-In . SVG Version: 6.00 Build 0)  -->
<svg version="1.1" id="Layer_1" xmlns="http://www.w3.org/2000/svg" xmlns:xlink="http://www.w3.org/1999/xlink" x="0px" y="0px"
	 viewBox="0 0 24 24" style="enable-background:new 0 0 24 24;" xml:space="preserve">
<style type="text/css">
	.st0{display:none;}
	.st1{display:inline;}
	.st2{fill:none;stroke:#000000;stroke-linecap:round;stroke-linejoin:round;stroke-miterlimit:10;}
	.st3{fill:none;stroke:#000000;stroke-linejoin:round;stroke-miterlimit:10;}
</style>
<g id="Filled_Icons" class="st0">
	<g class="st1">
		<path d="M10,17.5c0-4.1,3.4-7.5,7.5-7.5c0.2,0,0.3,0,0.5,0V5.5c0-0.1-0.1-0.3-0.1-0.4l-5-5C12.8,0.1,12.6,0,12.5,0h-12
			C0.2,0,0,0.2,0,0.5v9C0,9.8,0.2,10,0.5,10H1v2H0.5C0.2,12,0,12.2,0,12.5v11C0,23.8,0.2,24,0.5,24h13.3C11.5,22.7,10,20.3,10,17.5z
			 M13,5.5C13,5.2,13.2,5,13.5,5C13.8,5,14,5.2,14,5.5v4c0,0.3-0.2,0.5-0.5,0.5C13.2,10,13,9.8,13,9.5V5.5z M10,3.5
			C10,3.2,10.2,3,10.5,3C10.8,3,11,3.2,11,3.5v5C11,8.8,10.8,9,10.5,9C10.2,9,10,8.8,10,8.5V3.5z M5,8.5C5,8.8,4.8,9,4.5,9
			C4.2,9,4,8.8,4,8.5v-5C4,3.2,4.2,3,4.5,3C4.8,3,5,3.2,5,3.5V8.5z M8,8.5C8,8.8,7.8,9,7.5,9C7.2,9,7,8.8,7,8.5v-5
			C7,3.2,7.2,3,7.5,3C7.8,3,8,3.2,8,3.5V8.5z"/>
		<path d="M17.5,11c-3.6,0-6.5,2.9-6.5,6.5s2.9,6.5,6.5,6.5s6.5-2.9,6.5-6.5S21.1,11,17.5,11z M20.1,17c-0.1,0.1-0.2,0.1-0.4,0.1
			c-0.1,0-0.3,0-0.4-0.1L18,15.7l0,4.5c0,0.3-0.2,0.5-0.5,0.5h0c-0.3,0-0.5-0.2-0.5-0.5l0-4.5L15.7,17c-0.2,0.2-0.5,0.2-0.7,0
			c-0.2-0.2-0.2-0.5,0-0.7l2.2-2.2l0,0c0,0,0.1-0.1,0.2-0.1c0.1,0,0.1,0,0.2,0l0,0c0,0,0,0,0,0c0.1,0,0.1,0,0.2,0
			c0.1,0,0.1,0.1,0.1,0.1c0,0,0,0,0,0l0,0l2.2,2.2C20.2,16.5,20.2,16.8,20.1,17z"/>
	</g>
</g>
<g id="Outline_Icons">
	<g>
		<g>
			<polyline class="st2" points="17.5,8.9 17.5,5.5 12.5,0.5 0.5,0.5 0.5,9.5 1.5,9.5 1.5,12.5 0.5,12.5 0.5,23.5 10,23.5 			"/>
			<line class="st2" x1="4.5" y1="3.5" x2="4.5" y2="8.5"/>
			<line class="st2" x1="7.5" y1="3.5" x2="7.5" y2="8.5"/>
			<line class="st2" x1="10.5" y1="3.5" x2="10.5" y2="8.5"/>
			<line class="st2" x1="13.5" y1="5.5" x2="13.5" y2="9.5"/>
		</g>
		<g>
			<g>
				<circle class="st3" cx="17.5" cy="17.4" r="6"/>
				<line class="st2" x1="17.5" y1="14.9" x2="17.5" y2="19.9"/>
				<polyline class="st2" points="19.5,16.9 17.5,14.9 15.5,16.9 				"/>
			</g>
		</g>
	</g>
</g>
</svg>
