<?xml version="1.0" encoding="utf-8"?>
<!-- Generator: Adobe Illustrator 19.2.0, SVG Export Plug-In . SVG Version: 6.00 Build 0)  -->
<svg version="1.1" id="Outline_Icons" xmlns="http://www.w3.org/2000/svg" xmlns:xlink="http://www.w3.org/1999/xlink" x="0px"
	 y="0px" viewBox="0 0 24 24" style="enable-background:new 0 0 24 24;" xml:space="preserve">
<style type="text/css">
	.st0{fill:none;stroke:#000000;stroke-linecap:round;stroke-linejoin:round;stroke-miterlimit:10;}
</style>
<g>
	<g>
		<polyline class="st0" points="17.5,8.9 17.5,5.5 12.5,0.5 0.5,0.5 0.5,9.5 1.5,9.5 1.5,12.5 0.5,12.5 0.5,23.5 10,23.5 		"/>
		<line class="st0" x1="4.5" y1="3.5" x2="4.5" y2="8.5"/>
		<line class="st0" x1="7.5" y1="3.5" x2="7.5" y2="8.5"/>
		<line class="st0" x1="10.5" y1="3.5" x2="10.5" y2="8.5"/>
		<line class="st0" x1="13.5" y1="5.5" x2="13.5" y2="9.5"/>
	</g>
	<g>
		<polyline class="st0" points="22.5,14 22.5,16.5 19.8,16.5 		"/>
		<path class="st0" d="M13.5,16.5c0.6-1.7,2.3-3,4.2-3s3.8,1.2,4.5,3"/>
		<g>
			<polyline class="st0" points="13.5,22 13.5,19.5 16.2,19.5 			"/>
			<path class="st0" d="M22.5,19.5c-0.6,1.7-2.3,3-4.2,3s-3.6-1.2-4.2-3"/>
		</g>
	</g>
</g>
</svg>
