<?xml version="1.0" encoding="utf-8"?>
<!-- Generator: Adobe Illustrator 19.2.0, SVG Export Plug-In . SVG Version: 6.00 Build 0)  -->
<svg version="1.1" id="Layer_1" xmlns="http://www.w3.org/2000/svg" xmlns:xlink="http://www.w3.org/1999/xlink" x="0px" y="0px"
	 viewBox="0 0 24 24" style="enable-background:new 0 0 24 24;" xml:space="preserve">
<style type="text/css">
	.st0{display:none;}
	.st1{display:inline;}
	.st2{fill:none;stroke:#000000;stroke-linecap:round;stroke-linejoin:round;stroke-miterlimit:10;}
	.st3{fill:none;stroke:#000000;stroke-linejoin:round;stroke-miterlimit:10;}
</style>
<g id="Filled_Icons" class="st0">
	<g class="st1">
		<path d="M14.5,23.4v-0.3l-0.3,0.2c-0.7,0.4-1.6,0.2-2-0.6l-1.5-2.6c-0.2-0.3-0.3-0.8-0.2-1.1c0.1-0.4,0.4-0.7,0.7-0.9l0.3-0.2l0,0
			l-0.3-0.2c-0.7-0.4-1-1.3-0.5-2l1.5-2.6c0.4-0.7,1.3-1,2-0.5l0.3,0.2v-0.3c0-0.8,0.7-1.5,1.5-1.5h2V5.5c0-0.1-0.1-0.3-0.1-0.4
			l-5-5C12.8,0.1,12.6,0,12.5,0h-12C0.2,0,0,0.2,0,0.5v9C0,9.8,0.2,10,0.5,10H1v2H0.5C0.2,12,0,12.2,0,12.5v11C0,23.8,0.2,24,0.5,24
			h14.1C14.6,23.8,14.5,23.6,14.5,23.4z M13,5.5C13,5.2,13.2,5,13.5,5C13.8,5,14,5.2,14,5.5v4c0,0.3-0.2,0.5-0.5,0.5
			C13.2,10,13,9.8,13,9.5V5.5z M5,8.5C5,8.8,4.8,9,4.5,9C4.2,9,4,8.8,4,8.5v-5C4,3.2,4.2,3,4.5,3C4.8,3,5,3.2,5,3.5V8.5z M8,8.5
			C8,8.8,7.8,9,7.5,9C7.2,9,7,8.8,7,8.5v-5C7,3.2,7.2,3,7.5,3C7.8,3,8,3.2,8,3.5V8.5z M10,8.5v-5C10,3.2,10.2,3,10.5,3
			C10.8,3,11,3.2,11,3.5v5C11,8.8,10.8,9,10.5,9C10.2,9,10,8.8,10,8.5z"/>
		<path d="M23.3,19l-0.8-0.5c0-0.2,0-0.4,0-0.6c0-0.2,0-0.4,0-0.6l0.8-0.5c0.2-0.1,0.3-0.4,0.2-0.7L22,13.6
			c-0.1-0.1-0.2-0.2-0.3-0.2c-0.1,0-0.3,0-0.4,0.1l-0.8,0.5c-0.3-0.2-0.6-0.4-1-0.6v-0.9c0-0.3-0.2-0.5-0.5-0.5h-3
			c-0.3,0-0.5,0.2-0.5,0.5v0.9c-0.3,0.1-0.6,0.3-1,0.6l-0.8-0.5c-0.2-0.1-0.5-0.1-0.7,0.2l-1.5,2.6c-0.1,0.2-0.1,0.5,0.2,0.7
			l0.8,0.5c0,0.2,0,0.4,0,0.6c0,0.2,0,0.4,0,0.6L11.7,19c-0.1,0.1-0.2,0.2-0.2,0.3c0,0.1,0,0.3,0,0.4l1.5,2.6
			c0.1,0.2,0.4,0.3,0.7,0.2l0.8-0.5c0.3,0.2,0.7,0.4,1,0.6v0.9c0,0.3,0.2,0.5,0.5,0.5h3c0.3,0,0.5-0.2,0.5-0.5v-0.9
			c0.3-0.2,0.7-0.3,1-0.6l0.8,0.5c0.1,0.1,0.3,0.1,0.4,0.1c0.1,0,0.2-0.1,0.3-0.2l1.5-2.6C23.6,19.4,23.5,19.1,23.3,19z M17.5,19.9
			c-1.1,0-2-0.9-2-2c0-1.1,0.9-2,2-2c1.1,0,2,0.9,2,2C19.5,19,18.6,19.9,17.5,19.9z"/>
	</g>
</g>
<g id="Outline_Icons">
	<g>
		<g>
			<polyline class="st2" points="17.5,8.9 17.5,5.5 12.5,0.5 0.5,0.5 0.5,9.5 1.5,9.5 1.5,12.5 0.5,12.5 0.5,23.5 10,23.5 			"/>
			<line class="st2" x1="4.5" y1="3.5" x2="4.5" y2="8.5"/>
			<line class="st2" x1="7.5" y1="3.5" x2="7.5" y2="8.5"/>
			<line class="st2" x1="10.5" y1="3.5" x2="10.5" y2="8.5"/>
			<line class="st2" x1="13.5" y1="5.5" x2="13.5" y2="9.5"/>
		</g>
		<g>
			<g>
				<g>
					<path class="st3" d="M16,13.7c-0.5,0.2-1,0.5-1.4,0.8l-1.1-0.6L12,16.5l1.1,0.6c0,0.3-0.1,0.5-0.1,0.8c0,0.3,0,0.6,0.1,0.8
						L12,19.4l1.5,2.6l1.1-0.6c0.4,0.4,0.9,0.6,1.4,0.8v1.3h3v-1.3c0.5-0.2,1-0.5,1.4-0.8l1.1,0.6l1.5-2.6l-1.1-0.6
						c0-0.3,0.1-0.5,0.1-0.8c0-0.3,0-0.6-0.1-0.8l1.1-0.6l-1.5-2.6l-1.1,0.6c-0.4-0.4-0.9-0.6-1.4-0.8v-1.3h-3L16,13.7L16,13.7z"/>
				</g>
				<circle class="st3" cx="17.5" cy="17.9" r="2"/>
			</g>
		</g>
	</g>
</g>
</svg>
