<?xml version="1.0" encoding="utf-8"?>
<!-- Generator: Adobe Illustrator 19.2.0, SVG Export Plug-In . SVG Version: 6.00 Build 0)  -->
<svg version="1.1" id="Layer_1" xmlns="http://www.w3.org/2000/svg" xmlns:xlink="http://www.w3.org/1999/xlink" x="0px" y="0px"
	 viewBox="0 0 24 24" style="enable-background:new 0 0 24 24;" xml:space="preserve">
<style type="text/css">
	.st0{display:none;}
	.st1{display:inline;}
	.st2{fill:none;stroke:#000000;stroke-linecap:round;stroke-linejoin:round;stroke-miterlimit:10;}
</style>
<g id="Filled_Icons" class="st0">
	<g class="st1">
		<path d="M10.7,22.8l5.5-11c0.3-0.5,0.8-0.8,1.3-0.8c0.2,0,0.3,0,0.5,0.1V5.5c0-0.1-0.1-0.3-0.1-0.4l-5-5C12.8,0.1,12.6,0,12.5,0
			h-12C0.2,0,0,0.2,0,0.5v9C0,9.8,0.2,10,0.5,10H1v2H0.5C0.2,12,0,12.2,0,12.5v11C0,23.8,0.2,24,0.5,24h10.1
			C10.5,23.6,10.5,23.2,10.7,22.8z M13,5.5C13,5.2,13.2,5,13.5,5C13.8,5,14,5.2,14,5.5v4c0,0.3-0.2,0.5-0.5,0.5
			C13.2,10,13,9.8,13,9.5V5.5z M5,8.5C5,8.8,4.8,9,4.5,9C4.2,9,4,8.8,4,8.5v-5C4,3.2,4.2,3,4.5,3C4.8,3,5,3.2,5,3.5V8.5z M8,8.5
			C8,8.8,7.8,9,7.5,9C7.2,9,7,8.8,7,8.5v-5C7,3.2,7.2,3,7.5,3C7.8,3,8,3.2,8,3.5V8.5z M10,8.5v-5C10,3.2,10.2,3,10.5,3
			C10.8,3,11,3.2,11,3.5v5C11,8.8,10.8,9,10.5,9C10.2,9,10,8.8,10,8.5z"/>
		<path d="M23.4,23.1l-5.4-10.9c-0.2-0.3-0.7-0.3-0.9,0l-5.5,11c-0.1,0.2-0.1,0.3,0,0.5c0.1,0.1,0.3,0.2,0.4,0.2h11c0,0,0,0,0,0
			c0.3,0,0.5-0.2,0.5-0.5C23.5,23.3,23.5,23.2,23.4,23.1z M17.5,21.9c-0.3,0-0.5-0.2-0.5-0.5c0-0.3,0.2-0.5,0.5-0.5
			c0.3,0,0.5,0.2,0.5,0.5C18,21.7,17.8,21.9,17.5,21.9z M18,19.9c0,0.3-0.2,0.5-0.5,0.5c-0.3,0-0.5-0.2-0.5-0.5v-3
			c0-0.3,0.2-0.5,0.5-0.5c0.3,0,0.5,0.2,0.5,0.5V19.9z"/>
	</g>
</g>
<g id="Outline_Icons">
	<g>
		<g>
			<polyline class="st2" points="17.5,8.9 17.5,5.5 12.5,0.5 0.5,0.5 0.5,9.5 1.5,9.5 1.5,12.5 0.5,12.5 0.5,23.5 10,23.5 			"/>
			<line class="st2" x1="4.5" y1="3.5" x2="4.5" y2="8.5"/>
			<line class="st2" x1="7.5" y1="3.5" x2="7.5" y2="8.5"/>
			<line class="st2" x1="10.5" y1="3.5" x2="10.5" y2="8.5"/>
			<line class="st2" x1="13.5" y1="5.5" x2="13.5" y2="9.5"/>
		</g>
		<polygon class="st2" points="23,23.5 12,23.5 17.5,12.4 		"/>
		<line class="st2" x1="17.5" y1="16.9" x2="17.5" y2="19.9"/>
		<g>
			<g>
				<g>
					<path d="M17.5,20.9c-0.3,0-0.5,0.2-0.5,0.5c0,0.3,0.2,0.5,0.5,0.5c0.3,0,0.5-0.2,0.5-0.5C18,21.2,17.8,20.9,17.5,20.9
						L17.5,20.9z"/>
				</g>
			</g>
		</g>
	</g>
</g>
</svg>
