<?xml version="1.0" encoding="utf-8"?>
<!-- Generator: Adobe Illustrator 19.2.0, SVG Export Plug-In . SVG Version: 6.00 Build 0)  -->
<svg version="1.1" id="Layer_1" xmlns="http://www.w3.org/2000/svg" xmlns:xlink="http://www.w3.org/1999/xlink" x="0px" y="0px"
	 viewBox="0 0 24 24" style="enable-background:new 0 0 24 24;" xml:space="preserve">
<style type="text/css">
	.st0{display:none;}
	.st1{display:inline;}
	.st2{fill:none;stroke:#000000;stroke-linecap:round;stroke-linejoin:round;stroke-miterlimit:10;}
</style>
<g id="Filled_Icons" class="st0">
	<g class="st1">
		<path d="M23.8,21.1C23.7,21,23.5,21,23.4,21c-0.2,0-0.4,0.1-0.6,0.1c-1.8,0-2.9-1.8-3-1.8c-0.2-0.3-0.7-0.3-0.9,0
			c0,0-1.1,1.8-3.2,1.8c-2,0-3.2-1.8-3.2-1.8c-0.2-0.3-0.7-0.3-0.9,0c0,0-1.1,1.8-3.2,1.8c-2,0-3.2-1.8-3.2-1.8
			c-0.2-0.3-0.6-0.3-0.8,0c0,0-1.5,1.9-3.4,1.9c-0.2,0-0.4,0-0.6-0.1c-0.1,0-0.3,0-0.4,0.1C0.1,21.2,0,21.4,0,21.5l0,2
			c0,0.1,0.1,0.3,0.1,0.4C0.2,24,0.4,24,0.5,24h23c0.3,0,0.5-0.2,0.5-0.5l0-2C24,21.3,23.9,21.2,23.8,21.1z"/>
		<g>
			<path d="M8,15C8,15,8,15,8,15c-1.6-0.3-2.5-1.7-2.6-1.8c-0.2-0.3-0.6-0.3-0.8-0.1c0,0-1.6,1.9-3.5,1.9c-0.2,0-0.4,0-0.6-0.1
				c-0.1,0-0.3,0-0.4,0.1C0.1,15.2,0,15.4,0,15.5l0,4.6C0.3,20,0.6,20,0.9,20.1c1.4,0.3,3-1.5,3-1.5c0.6-0.8,1.9-0.7,2.5,0.1
				c0,0,0.9,1.4,2.3,1.4c1.5,0,2.3-1.3,2.3-1.3c0.1-0.1,0.1-0.2,0.2-0.3C9.4,18.3,8,16.8,8,15z"/>
			<path d="M24,15.5c0-0.1-0.1-0.3-0.2-0.4C23.7,15,23.5,15,23.4,15c-0.2,0-0.4,0.1-0.6,0.1c-1.8,0-2.9-1.8-2.9-1.8
				c-0.2-0.3-0.7-0.3-0.9,0c0,0.1-1.1,1.8-3.2,1.8c-0.3,0-0.6-0.1-0.9-0.1c0,0,0,0,0,0.1c0,1.4-0.8,2.6-2,3.2
				c0.2,0.1,0.4,0.3,0.6,0.5c0,0,0.9,1.4,2.3,1.4c1.5,0,2.3-1.3,2.3-1.3c0.3-0.5,0.8-0.8,1.3-0.8c0.5,0,1,0.3,1.3,0.7
				c0,0,1.1,1.6,2.5,1.3c0.2-0.1,0.5,0,0.7,0L24,15.5z"/>
		</g>
		<path d="M16.5,6.5C16.8,6.5,17,6.3,17,6s-0.2-0.5-0.5-0.5H12v-2h4.5C16.8,3.5,17,3.3,17,3s-0.2-0.5-0.5-0.5H12V1
			c0-0.3-0.2-0.5-0.5-0.5S11,0.7,11,1v11.6c-1.1,0.2-2,1.2-2,2.4c0,1.4,1.1,2.5,2.5,2.5S14,16.4,14,15c0-1.2-0.9-2.2-2-2.4V9.5h4.5
			C16.8,9.5,17,9.3,17,9s-0.2-0.5-0.5-0.5H12v-2C12,6.5,16.5,6.5,16.5,6.5z M13,15c0,0.8-0.7,1.5-1.5,1.5S10,15.8,10,15
			c0-0.8,0.7-1.5,1.5-1.5C12.3,13.5,13,14.2,13,15z"/>
	</g>
</g>
<g id="Outline_Icons">
	<g>
		<path class="st2" d="M23.5,21.5c-2.5,0.5-4.1-2-4.1-2h0c0,0-1.2,2.1-3.6,2.1c-2.3,0-3.6-2.1-3.6-2.1h0c0,0-1.2,2.1-3.6,2.1
			c-2.3,0-3.6-2.1-3.6-2.1h0c0,0-2,2.5-4.5,2"/>
		<path class="st2" d="M7,15.2c-1.3-0.6-2-1.7-2-1.7h0c0,0-2,2.5-4.5,2"/>
		<path class="st2" d="M23.5,15.5c-2.5,0.5-4.1-2-4.1-2h0c0,0-1.1,2-3.5,2.1"/>
		<line class="st2" x1="11.5" y1="1.5" x2="11.5" y2="13.5"/>
		<line class="st2" x1="11.5" y1="3.5" x2="16.5" y2="3.5"/>
		<line class="st2" x1="11.5" y1="6.5" x2="16.5" y2="6.5"/>
		<line class="st2" x1="11.5" y1="9.5" x2="16.5" y2="9.5"/>
		<circle class="st2" cx="11.5" cy="15.5" r="2"/>
	</g>
</g>
</svg>
