<?xml version="1.0" encoding="utf-8"?>
<!-- Generator: Adobe Illustrator 19.2.0, SVG Export Plug-In . SVG Version: 6.00 Build 0)  -->
<svg version="1.1" id="Layer_1" xmlns="http://www.w3.org/2000/svg" xmlns:xlink="http://www.w3.org/1999/xlink" x="0px" y="0px"
	 viewBox="0 0 24 24" style="enable-background:new 0 0 24 24;" xml:space="preserve">
<style type="text/css">
	.st0{display:none;}
	.st1{display:inline;}
	.st2{fill:none;stroke:#000000;stroke-linejoin:round;stroke-miterlimit:10;}
	.st3{fill:none;stroke:#000000;stroke-linecap:round;stroke-linejoin:round;stroke-miterlimit:10;}
</style>
<g id="Filled_Icons" class="st0">
	<g class="st1">
		<path d="M9,18c2.1,0,4.1-0.7,5.6-2l7.7,7.7c0.4,0.4,1,0.4,1.4,0c0.4-0.4,0.4-1,0-1.4L16,14.6c1.2-1.5,2-3.5,2-5.6c0-5-4-9-9-9
			C4,0,0,4,0,9C0,14,4,18,9,18z M9,2c3.9,0,7,3.1,7,7c0,3.9-3.1,7-7,7c-3.9,0-7-3.1-7-7C2,5.1,5.1,2,9,2z"/>
	</g>
</g>
<g id="Outline_Icons">
	<g>
		<circle class="st2" cx="8.5" cy="8.5" r="8"/>
		<line class="st3" x1="14.2" y1="14.2" x2="23.5" y2="23.5"/>
	</g>
</g>
</svg>
