<?xml version="1.0" encoding="utf-8"?>
<!-- Generator: Adobe Illustrator 19.2.0, SVG Export Plug-In . SVG Version: 6.00 Build 0)  -->
<svg version="1.1" id="Layer_1" xmlns="http://www.w3.org/2000/svg" xmlns:xlink="http://www.w3.org/1999/xlink" x="0px" y="0px"
	 viewBox="0 0 24 24" style="enable-background:new 0 0 24 24;" xml:space="preserve">
<style type="text/css">
	.st0{display:none;}
	.st1{display:inline;}
	.st2{fill:none;stroke:#000000;stroke-linejoin:round;stroke-miterlimit:10;}
	.st3{fill:none;stroke:#000000;stroke-linecap:round;stroke-linejoin:round;stroke-miterlimit:10;}
</style>
<g id="Filled_Icons" class="st0">
	<g class="st1">
		<path d="M10.6,23c-1.2,0-2.4-0.2-3.6-0.6v1.1C7,23.8,7.2,24,7.5,24h7c0.3,0,0.5-0.2,0.5-0.5v-1.1c-1.1,0.4-2.3,0.6-3.6,0.6H10.6z"
			/>
		<path d="M20.5,13h-19c-0.1,0-0.3,0.1-0.4,0.2C1,13.3,1,13.4,1,13.6c0.6,4.8,4.7,8.4,9.6,8.4h0.9c4.8,0,9-3.6,9.6-8.4
			c0-0.1,0-0.3-0.1-0.4C20.8,13.1,20.6,13,20.5,13z"/>
		<path d="M22.8,5.9l-2.5-5.5c-0.1-0.3-0.4-0.4-0.7-0.2l-7.3,3.3c-0.1,0.1-0.2,0.2-0.3,0.3c0,0.1,0,0.3,0,0.4l2.5,5.5
			c0.1,0.2,0.3,0.3,0.5,0.3c0.1,0,0.1,0,0.2,0l7.3-3.3C22.8,6.4,23,6.1,22.8,5.9z"/>
		<path d="M8.7,7.8c0.1,0,0.2,0,0.3-0.1l1.3-0.8c0.2-0.2,0.3-0.5,0.1-0.7C10.3,6,10,5.9,9.7,6.1L8.5,6.9C8.2,7,8.2,7.4,8.3,7.6
			C8.4,7.7,8.6,7.8,8.7,7.8z"/>
		<path d="M10.4,11.7c0.1,0.1,0.2,0.1,0.3,0.1c0.1,0,0.3-0.1,0.4-0.2l0.8-0.8c0.2-0.2,0.2-0.5,0-0.7c-0.2-0.2-0.5-0.2-0.7,0L10.4,11
			C10.2,11.2,10.2,11.5,10.4,11.7z"/>
		<path d="M8.5,10.5c0.1,0,0.2,0,0.3-0.1l1.1-0.9c0.2-0.2,0.2-0.5,0.1-0.7c-0.2-0.2-0.5-0.2-0.7,0L8.2,9.6C8,9.8,7.9,10.1,8.1,10.3
			C8.2,10.4,8.4,10.5,8.5,10.5z"/>
	</g>
</g>
<g id="Outline_Icons">
	<g>
		<path class="st2" d="M1.5,13.5h19c-0.6,4.6-4.5,8-9.1,8h-0.9C6,21.5,2.1,18.1,1.5,13.5z"/>
		<rect x="7.5" y="21.5" class="st2" width="7" height="2"/>
		<rect x="13.5" y="2" transform="matrix(0.9104 -0.4136 0.4136 0.9104 -0.5013 7.6859)" class="st2" width="8" height="6"/>
		<line class="st3" x1="8.7" y1="7.3" x2="10" y2="6.5"/>
		<line class="st3" x1="10.7" y1="11.3" x2="11.5" y2="10.5"/>
		<line class="st3" x1="8.5" y1="10" x2="9.6" y2="9.1"/>
	</g>
</g>
</svg>
