<?xml version="1.0" encoding="utf-8"?>
<!-- Generator: Adobe Illustrator 19.2.0, SVG Export Plug-In . SVG Version: 6.00 Build 0)  -->
<svg version="1.1" id="Layer_1" xmlns="http://www.w3.org/2000/svg" xmlns:xlink="http://www.w3.org/1999/xlink" x="0px" y="0px"
	 viewBox="0 0 24 24" style="enable-background:new 0 0 24 24;" xml:space="preserve">
<style type="text/css">
	.st0{display:none;}
	.st1{display:inline;}
	.st2{fill:none;stroke:#000000;stroke-linejoin:round;stroke-miterlimit:10;}
	.st3{fill:none;stroke:#000000;stroke-linecap:round;stroke-linejoin:round;stroke-miterlimit:10;}
</style>
<g id="Filled_Icons" class="st0">
	<g class="st1">
		<path d="M23.7,22.3L21.4,20L20,21.4l2.3,2.3c0.2,0.2,0.4,0.3,0.7,0.3c0.3,0,0.5-0.1,0.7-0.3C24.1,23.3,24.1,22.7,23.7,22.3z"/>
		<path d="M23.5,15.8l-4.9-4.9c-0.1-0.1-0.2-0.1-0.3-0.1l-2.5-0.4c-0.2,0-0.3,0-0.4,0.1l-4.9,4.9c-0.1,0.1-0.2,0.3-0.1,0.4l0.4,2.5
			c0,0.1,0.1,0.2,0.1,0.3l4.9,4.9c0.1,0.1,0.2,0.1,0.4,0.1c0.1,0,0.3,0,0.4-0.1l7.1-7.1C23.7,16.3,23.7,15.9,23.5,15.8z M20.7,16.5
			l-4.2,4.2c-0.1,0.1-0.2,0.1-0.4,0.1c-0.1,0-0.3,0-0.4-0.1l-2.8-2.8c-0.1-0.1-0.1-0.2-0.1-0.4c0-0.1,0.1-0.3,0.1-0.4l4.2-4.2
			c0.2-0.2,0.5-0.2,0.7,0l2.8,2.8C20.9,15.9,20.9,16.3,20.7,16.5z"/>
		<path d="M20.3,6H17c-0.3,0-0.5,0.2-0.5,0.5C16.5,6.8,16.7,7,17,7h4.5C21.8,7,22,6.8,22,6.5V2c0-0.3-0.2-0.5-0.5-0.5
			C21.2,1.5,21,1.7,21,2v3.3l-4.8-4.8c-0.2-0.2-0.5-0.2-0.7,0c-0.2,0.2-0.2,0.5,0,0.7L20.3,6z"/>
		<path d="M2.7,17H6c0.3,0,0.5-0.2,0.5-0.5C6.5,16.2,6.3,16,6,16H1.5c0,0,0,0,0,0C1.2,16,1,16.3,1,16.5V21c0,0.3,0.2,0.5,0.5,0.5
			S2,21.3,2,21v-3.3l5.2,5.1C7.3,22.9,7.4,23,7.5,23c0.1,0,0.3,0,0.4-0.1c0.2-0.2,0.2-0.5,0-0.7L2.7,17z"/>
		<path d="M3,4.5l1.4-1.4L1.7,0.3c-0.4-0.4-1-0.4-1.4,0c-0.4,0.4-0.4,1,0,1.4L3,4.5z"/>
		<path d="M13.3,10.5c1-1,1-2.6,0-3.5l-2.2-2.2l1.1-1.1c0.2-0.2,0.2-0.5,0-0.7L9.3,0.2C9.2,0,8.8,0,8.6,0.2L0.1,8.7
			C0.1,8.8,0,8.9,0,9.1c0,0.1,0.1,0.3,0.1,0.4L3,12.3c0.1,0.1,0.2,0.1,0.4,0.1s0.3,0,0.4-0.1l1.1-1.1l2.2,2.2
			c0.5,0.5,1.1,0.7,1.8,0.7c0.7,0,1.3-0.3,1.8-0.7L13.3,10.5z M8.7,10.7c-0.1,0-0.3,0-0.4-0.1L6.9,9.1L9,7l1.5,1.5
			c0.2,0.2,0.2,0.5,0,0.7L9,10.5C8.9,10.6,8.8,10.7,8.7,10.7z"/>
	</g>
</g>
<g id="Outline_Icons">
	<g>
		<rect x="0.2" y="4.2" transform="matrix(0.7071 -0.7071 0.7071 0.7071 -2.6071 6.1804)" class="st2" width="12" height="4"/>
		<path class="st2" d="M7.3,13c0.8,0.8,2,0.8,2.8,0l2.8-2.8c0.8-0.8,0.8-2,0-2.8l-2.5-2.5l-5.7,5.7L7.3,13z"/>
		<rect x="7.5" y="7.3" transform="matrix(0.7072 -0.707 0.707 0.7072 -3.5716 8.5078)" class="st2" width="2" height="2.6"/>
		<line class="st3" x1="0.9" y1="0.9" x2="4.7" y2="4.8"/>
		<polygon class="st2" points="23.1,16.1 16.1,23.2 11.1,18.2 10.8,15.7 15.7,10.8 18.2,11.1 		"/>
		<line class="st3" x1="23.5" y1="23.5" x2="19.6" y2="19.6"/>
		<rect x="13.8" y="14.8" transform="matrix(0.7072 -0.707 0.707 0.7072 -6.9731 16.7736)" class="st3" width="6" height="4"/>
		<line class="st3" x1="21.5" y1="6.5" x2="15.9" y2="0.9"/>
		<polyline class="st3" points="17,6.5 21.5,6.5 21.5,2 		"/>
		<line class="st3" x1="1.5" y1="16.5" x2="7.5" y2="22.5"/>
		<polyline class="st3" points="6,16.5 1.5,16.5 1.5,21 		"/>
	</g>
</g>
</svg>
