<?xml version="1.0" encoding="utf-8"?>
<!-- Generator: Adobe Illustrator 19.2.0, SVG Export Plug-In . SVG Version: 6.00 Build 0)  -->
<svg version="1.1" id="Layer_1" xmlns="http://www.w3.org/2000/svg" xmlns:xlink="http://www.w3.org/1999/xlink" x="0px" y="0px"
	 viewBox="0 0 24 24" style="enable-background:new 0 0 24 24;" xml:space="preserve">
<style type="text/css">
	.st0{display:none;}
	.st1{display:inline;}
	.st2{fill:none;stroke:#000000;stroke-linejoin:round;stroke-miterlimit:10;}
</style>
<g id="Filled_Icons" class="st0">
	<g class="st1">
		<path d="M4.2,21.7c-0.7-0.8-0.9-1.9-0.7-2.9l1-4.8c-0.5-0.6-1.2-1-2-1C1.1,13,0,14.1,0,15.5v6C0,22.9,1.1,24,2.5,24
			c1.1,0,2-0.7,2.4-1.7C4.6,22.1,4.4,21.9,4.2,21.7z"/>
		<path d="M20.5,13c-0.8,0-1.5,0.4-2,1l1,4.8c0.2,1-0.1,2.1-0.7,2.9c-0.2,0.2-0.4,0.4-0.6,0.6c0.3,1,1.3,1.7,2.4,1.7
			c1.4,0,2.5-1.1,2.5-2.5v-6C23,14.1,21.9,13,20.5,13z"/>
		<path d="M21.5,1.5h-3.7c0.1,0.3,0.2,0.7,0.2,1v1h3.5C21.8,3.5,22,3.3,22,3V2C22,1.7,21.8,1.5,21.5,1.5z"/>
		<path d="M5.2,1.5H1.5C1.2,1.5,1,1.7,1,2v1c0,0.3,0.2,0.5,0.5,0.5H5v-1C5,2.2,5.1,1.8,5.2,1.5z"/>
		<path d="M18.5,19l-1.2-6c-0.2-1.2-1.3-2-2.5-2h-1.4V6h1C15.9,6,17,4.9,17,3.5v-1C17,1.1,15.9,0,14.5,0h-6C7.1,0,6,1.1,6,2.5v1
			C6,4.9,7.1,6,8.5,6h1v5H8.1c-1.2,0-2.2,0.8-2.5,2l-1.2,6c-0.1,0.7,0,1.5,0.5,2.1C5.5,21.7,6.2,22,6.9,22h3.6V6h2v16h3.6
			c0.8,0,1.5-0.3,1.9-0.9C18.5,20.5,18.7,19.8,18.5,19z"/>
	</g>
</g>
<g id="Outline_Icons">
	<g>
		<line class="st2" x1="10.5" y1="5.5" x2="10.5" y2="21.5"/>
		<line class="st2" x1="12.5" y1="5.5" x2="12.5" y2="21.5"/>
		<path class="st2" d="M10.5,11.5H8.1c-1,0-1.8,0.7-2,1.6l-1.2,6c-0.1,0.6,0,1.2,0.4,1.7c0.4,0.5,0.9,0.7,1.5,0.7h9.1
			c0.6,0,1.2-0.3,1.5-0.7c0.4-0.5,0.5-1.1,0.4-1.7l-1.2-6c-0.2-0.9-1-1.6-2-1.6h-2.4"/>
		<path class="st2" d="M22.5,21.5c0,1.1-0.9,2-2,2c-1.1,0-2-0.9-2-2v-6c0-1.1,0.9-2,2-2c1.1,0,2,0.9,2,2V21.5z"/>
		<path class="st2" d="M4.5,21.5c0,1.1-0.9,2-2,2s-2-0.9-2-2v-6c0-1.1,0.9-2,2-2s2,0.9,2,2V21.5z"/>
		<path class="st2" d="M16.5,3.5c0,1.1-0.9,2-2,2h-6c-1.1,0-2-0.9-2-2v-1c0-1.1,0.9-2,2-2h6c1.1,0,2,0.9,2,2V3.5z"/>
		<rect x="16.5" y="1.5" class="st2" width="5" height="2"/>
		<rect x="1.5" y="1.5" class="st2" width="5" height="2"/>
	</g>
</g>
</svg>
