<?xml version="1.0" encoding="utf-8"?>
<!-- Generator: Adobe Illustrator 19.2.0, SVG Export Plug-In . SVG Version: 6.00 Build 0)  -->
<svg version="1.1" id="Layer_1" xmlns="http://www.w3.org/2000/svg" xmlns:xlink="http://www.w3.org/1999/xlink" x="0px" y="0px"
	 viewBox="0 0 24 24" style="enable-background:new 0 0 24 24;" xml:space="preserve">
<style type="text/css">
	.st0{display:none;}
	.st1{display:inline;}
	.st2{fill:none;stroke:#000000;stroke-linecap:round;stroke-linejoin:round;stroke-miterlimit:10;}
</style>
<g id="Filled_Icon" class="st0">
	<g class="st1">
		<path d="M3.5,2h-1C2.2,2,2,2.2,2,2.5v1C2,3.8,2.2,4,2.5,4C2.8,4,3,3.8,3,3.5V3h0.5C3.8,3,4,2.8,4,2.5C4,2.2,3.8,2,3.5,2z"/>
		<path d="M21.5,2h-1C20.2,2,20,2.2,20,2.5C20,2.8,20.2,3,20.5,3H21v0.5C21,3.8,21.2,4,21.5,4C21.8,4,22,3.8,22,3.5v-1
			C22,2.2,21.8,2,21.5,2z"/>
		<path d="M2.5,7C2.8,7,3,6.8,3,6.5v-1C3,5.2,2.8,5,2.5,5C2.2,5,2,5.2,2,5.5v1C2,6.8,2.2,7,2.5,7z"/>
		<path d="M5.5,3h1C6.8,3,7,2.8,7,2.5C7,2.2,6.8,2,6.5,2h-1C5.2,2,5,2.2,5,2.5C5,2.8,5.2,3,5.5,3z"/>
		<path d="M6.5,21h-1C5.2,21,5,21.2,5,21.5C5,21.8,5.2,22,5.5,22h1C6.8,22,7,21.8,7,21.5C7,21.2,6.8,21,6.5,21z"/>
		<path d="M8.5,3h1C9.8,3,10,2.8,10,2.5C10,2.2,9.8,2,9.5,2h-1C8.2,2,8,2.2,8,2.5C8,2.8,8.2,3,8.5,3z"/>
		<path d="M11.5,3h1C12.8,3,13,2.8,13,2.5C13,2.2,12.8,2,12.5,2h-1C11.2,2,11,2.2,11,2.5C11,2.8,11.2,3,11.5,3z"/>
		<path d="M14.5,3h1C15.8,3,16,2.8,16,2.5C16,2.2,15.8,2,15.5,2h-1C14.2,2,14,2.2,14,2.5C14,2.8,14.2,3,14.5,3z"/>
		<path d="M18.5,2h-1C17.2,2,17,2.2,17,2.5C17,2.8,17.2,3,17.5,3h1C18.8,3,19,2.8,19,2.5C19,2.2,18.8,2,18.5,2z"/>
		<path d="M9.5,21h-1C8.2,21,8,21.2,8,21.5C8,21.8,8.2,22,8.5,22h1c0.3,0,0.5-0.2,0.5-0.5C10,21.2,9.8,21,9.5,21z"/>
		<path d="M12.5,21h-1c-0.3,0-0.5,0.2-0.5,0.5c0,0.3,0.2,0.5,0.5,0.5h1c0.3,0,0.5-0.2,0.5-0.5C13,21.2,12.8,21,12.5,21z"/>
		<path d="M15.5,21h-1c-0.3,0-0.5,0.2-0.5,0.5c0,0.3,0.2,0.5,0.5,0.5h1c0.3,0,0.5-0.2,0.5-0.5C16,21.2,15.8,21,15.5,21z"/>
		<path d="M18.5,21h-1c-0.3,0-0.5,0.2-0.5,0.5c0,0.3,0.2,0.5,0.5,0.5h1c0.3,0,0.5-0.2,0.5-0.5C19,21.2,18.8,21,18.5,21z"/>
		<path d="M21.5,20c-0.3,0-0.5,0.2-0.5,0.5V21h-0.5c-0.3,0-0.5,0.2-0.5,0.5c0,0.3,0.2,0.5,0.5,0.5h1c0.3,0,0.5-0.2,0.5-0.5v-1
			C22,20.2,21.8,20,21.5,20z"/>
		<path d="M21.5,17c-0.3,0-0.5,0.2-0.5,0.5v1c0,0.3,0.2,0.5,0.5,0.5c0.3,0,0.5-0.2,0.5-0.5v-1C22,17.2,21.8,17,21.5,17z"/>
		<path d="M3.5,21H3v-0.5C3,20.2,2.8,20,2.5,20C2.2,20,2,20.2,2,20.5v1C2,21.8,2.2,22,2.5,22h1C3.8,22,4,21.8,4,21.5
			C4,21.2,3.8,21,3.5,21z"/>
		<path d="M2.5,19C2.8,19,3,18.8,3,18.5v-1C3,17.2,2.8,17,2.5,17C2.2,17,2,17.2,2,17.5v1C2,18.8,2.2,19,2.5,19z"/>
		<path d="M21.5,14c-0.3,0-0.5,0.2-0.5,0.5v1c0,0.3,0.2,0.5,0.5,0.5c0.3,0,0.5-0.2,0.5-0.5v-1C22,14.2,21.8,14,21.5,14z"/>
		<path d="M21.5,11c-0.3,0-0.5,0.2-0.5,0.5v1c0,0.3,0.2,0.5,0.5,0.5c0.3,0,0.5-0.2,0.5-0.5v-1C22,11.2,21.8,11,21.5,11z"/>
		<path d="M21.5,8C21.2,8,21,8.2,21,8.5v1c0,0.3,0.2,0.5,0.5,0.5c0.3,0,0.5-0.2,0.5-0.5v-1C22,8.2,21.8,8,21.5,8z"/>
		<path d="M2.5,16C2.8,16,3,15.8,3,15.5v-1C3,14.2,2.8,14,2.5,14C2.2,14,2,14.2,2,14.5v1C2,15.8,2.2,16,2.5,16z"/>
		<path d="M2.5,13C2.8,13,3,12.8,3,12.5v-1C3,11.2,2.8,11,2.5,11C2.2,11,2,11.2,2,11.5v1C2,12.8,2.2,13,2.5,13z"/>
		<path d="M2.5,10C2.8,10,3,9.8,3,9.5v-1C3,8.2,2.8,8,2.5,8C2.2,8,2,8.2,2,8.5v1C2,9.8,2.2,10,2.5,10z"/>
		<path d="M21.5,5C21.2,5,21,5.2,21,5.5v1C21,6.8,21.2,7,21.5,7C21.8,7,22,6.8,22,6.5v-1C22,5.2,21.8,5,21.5,5z"/>
		<path d="M6,6.5v11C6,17.8,6.2,18,6.5,18h11c0.3,0,0.5-0.2,0.5-0.5v-11C18,6.2,17.8,6,17.5,6h-11C6.2,6,6,6.2,6,6.5z"/>
	</g>
</g>
<g id="Outline_Icons">
	<g>
		<polyline class="st2" points="3.5,2.5 2.5,2.5 2.5,3.5 		"/>
		<polyline class="st2" points="20.5,2.5 21.5,2.5 21.5,3.5 		"/>
		<line class="st2" x1="2.5" y1="5.5" x2="2.5" y2="6.5"/>
		<line class="st2" x1="6.5" y1="2.5" x2="5.5" y2="2.5"/>
		<line class="st2" x1="6.5" y1="21.5" x2="5.5" y2="21.5"/>
		<line class="st2" x1="9.5" y1="2.5" x2="8.5" y2="2.5"/>
		<line class="st2" x1="12.5" y1="2.5" x2="11.5" y2="2.5"/>
		<line class="st2" x1="15.5" y1="2.5" x2="14.5" y2="2.5"/>
		<line class="st2" x1="18.5" y1="2.5" x2="17.5" y2="2.5"/>
		<line class="st2" x1="9.5" y1="21.5" x2="8.5" y2="21.5"/>
		<line class="st2" x1="12.5" y1="21.5" x2="11.5" y2="21.5"/>
		<line class="st2" x1="15.5" y1="21.5" x2="14.5" y2="21.5"/>
		<line class="st2" x1="18.5" y1="21.5" x2="17.5" y2="21.5"/>
		<polyline class="st2" points="20.5,21.5 21.5,21.5 21.5,20.5 		"/>
		<line class="st2" x1="21.5" y1="18.5" x2="21.5" y2="17.5"/>
		<polyline class="st2" points="3.5,21.5 2.5,21.5 2.5,20.5 		"/>
		<line class="st2" x1="2.5" y1="18.5" x2="2.5" y2="17.5"/>
		<line class="st2" x1="21.5" y1="15.5" x2="21.5" y2="14.5"/>
		<line class="st2" x1="21.5" y1="12.5" x2="21.5" y2="11.5"/>
		<line class="st2" x1="21.5" y1="9.5" x2="21.5" y2="8.5"/>
		<line class="st2" x1="2.5" y1="15.5" x2="2.5" y2="14.5"/>
		<line class="st2" x1="2.5" y1="12.5" x2="2.5" y2="11.5"/>
		<line class="st2" x1="2.5" y1="9.5" x2="2.5" y2="8.5"/>
		<line class="st2" x1="21.5" y1="6.5" x2="21.5" y2="5.5"/>
		<rect x="6.5" y="6.5" class="st2" width="11" height="11"/>
	</g>
</g>
</svg>
