<?xml version="1.0" encoding="utf-8"?>
<!-- Generator: Adobe Illustrator 19.2.0, SVG Export Plug-In . SVG Version: 6.00 Build 0)  -->
<svg version="1.1" id="Layer_1" xmlns="http://www.w3.org/2000/svg" xmlns:xlink="http://www.w3.org/1999/xlink" x="0px" y="0px"
	 viewBox="0 0 24 24" style="enable-background:new 0 0 24 24;" xml:space="preserve">
<style type="text/css">
	.st0{display:none;}
	.st1{display:inline;}
	.st2{fill:none;stroke:#000000;stroke-linecap:round;stroke-linejoin:round;stroke-miterlimit:10;}
</style>
<g id="Filled_Icon" class="st0">
	<g class="st1">
		<path d="M23.5,6H19v12.5c0,0.3-0.2,0.5-0.5,0.5H6v4.5C6,23.8,6.2,24,6.5,24h17c0.3,0,0.5-0.2,0.5-0.5v-17C24,6.2,23.8,6,23.5,6z"
			/>
		<path d="M18,18v-0.5v-17C18,0.2,17.8,0,17.5,0h-17C0.2,0,0,0.2,0,0.5v17C0,17.8,0.2,18,0.5,18h17H18z"/>
	</g>
</g>
<g id="Outline_Icons">
	<g>
		<polyline class="st2" points="17.5,6.5 23.5,6.5 23.5,23.5 6.5,23.5 6.5,17.5 		"/>
		<rect x="0.5" y="0.5" class="st2" width="17" height="17"/>
	</g>
</g>
</svg>
