<?xml version="1.0" encoding="utf-8"?>
<!-- Generator: Adobe Illustrator 19.2.0, SVG Export Plug-In . SVG Version: 6.00 Build 0)  -->
<svg version="1.1" id="Layer_1" xmlns="http://www.w3.org/2000/svg" xmlns:xlink="http://www.w3.org/1999/xlink" x="0px" y="0px"
	 viewBox="0 0 24 24" style="enable-background:new 0 0 24 24;" xml:space="preserve">
<style type="text/css">
	.st0{display:none;}
	.st1{display:inline;}
	.st2{fill:none;stroke:#000000;stroke-linejoin:round;stroke-miterlimit:10;}
	.st3{fill:none;stroke:#000000;stroke-linecap:round;stroke-linejoin:round;stroke-miterlimit:10;}
</style>
<g id="Filled_Icons" class="st0">
	<g class="st1">
		<path d="M10,17C10,17,10,17,10,17c0.1-1.3,0.5-2.5,1.2-3.5c-0.4,0-0.8,0-1.2,0c-4,0-8.1-1-10-2.6v2.6C0,15.1,4.5,17,10,17z"/>
		<path d="M10,12.5c0.7,0,1.3,0,2-0.1c1.4-1.5,3.3-2.4,5.5-2.4c0.7,0,1.4,0.1,2,0.3c0.2-0.1,0.3-0.2,0.5-0.4V6.7
			C17.9,8.1,13.8,9,10,9C6,9,1.9,8,0,6.4V9C0,10.6,4.5,12.5,10,12.5z"/>
		<path d="M10,8c4.6,0,8.6-1.3,10-2.6V4.5C20,2,15.6,0,10,0C4.4,0,0,2,0,4.5C0,6.1,4.5,8,10,8z"/>
		<path d="M10,18c-4,0-8.1-1-10-2.6v2.1C0,20,4.4,22,10,22c0.5,0,1,0,1.5-0.1C10.6,20.8,10.1,19.5,10,18C10,18,10,18,10,18z"/>
		<path d="M17.5,11c-3.6,0-6.5,2.9-6.5,6.5s2.9,6.5,6.5,6.5s6.5-2.9,6.5-6.5S21.1,11,17.5,11z M20,17c-0.1,0.1-0.2,0.1-0.4,0.1
			c-0.1,0-0.3,0-0.4-0.1L18,15.7v4.6c0,0.3-0.2,0.5-0.5,0.5c-0.3,0-0.5-0.2-0.5-0.5v-4.5L15.7,17c-0.2,0.2-0.5,0.2-0.7,0
			c-0.2-0.2-0.2-0.5,0-0.7l2.5-2.5l2.5,2.5C20.2,16.5,20.2,16.8,20,17z"/>
	</g>
</g>
<g id="Outline_Icons">
	<g>
		<circle class="st2" cx="17.5" cy="17.5" r="6"/>
		<line class="st3" x1="17.5" y1="15" x2="17.5" y2="20"/>
		<polyline class="st3" points="19.5,17 17.5,15 15.5,17 		"/>
		<g>
			<g>
				<path class="st3" d="M19.5,4.5c0,2.2-4.3,4-9.5,4c-5.2,0-9.5-1.8-9.5-4c0-2.2,4.3-4,9.5-4C15.2,0.5,19.5,2.3,19.5,4.5z"/>
				<path class="st3" d="M10,12.5c-5.2,0-9.5-1.8-9.5-4"/>
				<path class="st3" d="M8.5,17c-4.5-0.3-8-2-8-3.9"/>
				<path class="st3" d="M9,21.5c-4.8-0.2-8.5-1.9-8.5-4v-13"/>
			</g>
			<line class="st3" x1="19.5" y1="4.5" x2="19.5" y2="9"/>
		</g>
	</g>
</g>
</svg>
