<?xml version="1.0" encoding="utf-8"?>
<!-- Generator: Adobe Illustrator 19.2.0, SVG Export Plug-In . SVG Version: 6.00 Build 0)  -->
<svg version="1.1" id="Layer_1" xmlns="http://www.w3.org/2000/svg" xmlns:xlink="http://www.w3.org/1999/xlink" x="0px" y="0px"
	 viewBox="0 0 24 24" style="enable-background:new 0 0 24 24;" xml:space="preserve">
<style type="text/css">
	.st0{display:none;}
	.st1{display:inline;}
	.st2{fill:none;stroke:#000000;stroke-linejoin:round;stroke-miterlimit:10;}
	.st3{fill:none;stroke:#000000;stroke-linecap:round;stroke-linejoin:round;stroke-miterlimit:10;}
</style>
<g id="Filled_Icons" class="st0">
	<g class="st1">
		<path d="M10,17c0.8,0,1.5,0,2.2-0.1c0.4-1.6,1.5-3,2.9-3.9c-1.6,0.3-3.4,0.5-5.1,0.5c-4,0-8.1-1-10-2.6v2.6C0,15.1,4.5,17,10,17z"
			/>
		<path d="M10,12.5c4.6,0,8.6-1.3,10-2.6V6.7C17.9,8.1,13.8,9,10,9C6,9,1.9,8,0,6.4V9C0,10.6,4.5,12.5,10,12.5z"/>
		<path d="M10,8c4.6,0,8.6-1.3,10-2.6V4.5C20,2,15.6,0,10,0C4.4,0,0,2,0,4.5C0,6.1,4.5,8,10,8z"/>
		<path d="M12,17.9C11.4,18,10.7,18,10,18c-4,0-8.1-1-10-2.6v2.1C0,20,4.4,22,10,22c1,0,2-0.1,2.9-0.2c-0.6-1-0.9-2.1-0.9-3.3
			C12,18.3,12,18.1,12,17.9z"/>
		<path d="M18.5,13c-3,0-5.5,2.5-5.5,5.5c0,3,2.5,5.5,5.5,5.5c3,0,5.5-2.5,5.5-5.5C24,15.5,21.5,13,18.5,13z M21,19h-2v2
			c0,0.3-0.2,0.5-0.5,0.5c-0.3,0-0.5-0.2-0.5-0.5v-2h-2c-0.3,0-0.5-0.2-0.5-0.5c0-0.3,0.2-0.5,0.5-0.5h2v-2c0-0.3,0.2-0.5,0.5-0.5
			c0.3,0,0.5,0.2,0.5,0.5v1.5V18h2c0.3,0,0.5,0.2,0.5,0.5C21.5,18.8,21.3,19,21,19z"/>
	</g>
</g>
<g id="Outline_Icons">
	<g>
		<circle class="st2" cx="17.5" cy="17.5" r="6"/>
		<line class="st3" x1="15" y1="17.5" x2="20" y2="17.5"/>
		<line class="st3" x1="17.5" y1="20" x2="17.5" y2="15"/>
		<g>
			<g>
				<ellipse class="st3" cx="10" cy="4.5" rx="9.5" ry="4"/>
				<path class="st3" d="M10,12.5c-5.2,0-9.5-1.8-9.5-4"/>
				<path class="st3" d="M8.5,16.9c-4.5-0.3-8-2-8-3.9"/>
				<path class="st3" d="M9,21.5c-4.8-0.2-8.5-1.9-8.5-4v-13"/>
			</g>
			<line class="st3" x1="19.5" y1="4.5" x2="19.5" y2="9"/>
		</g>
	</g>
</g>
</svg>
