<?xml version="1.0" encoding="utf-8"?>
<!-- Generator: Adobe Illustrator 19.2.0, SVG Export Plug-In . SVG Version: 6.00 Build 0)  -->
<svg version="1.1" id="Layer_1" xmlns="http://www.w3.org/2000/svg" xmlns:xlink="http://www.w3.org/1999/xlink" x="0px" y="0px"
	 viewBox="0 0 24 24" style="enable-background:new 0 0 24 24;" xml:space="preserve">
<style type="text/css">
	.st0{display:none;}
	.st1{display:inline;}
	.st2{fill:none;stroke:#000000;stroke-linecap:round;stroke-linejoin:round;stroke-miterlimit:10;}
</style>
<g id="Filled_Icons" class="st0">
	<g class="st1">
		<path d="M10,0C4.4,0,0,2,0,4.5C0,6.1,4.5,8,10,8c4.6,0,8.6-1.3,10-2.6V4.5C20,2,15.6,0,10,0z"/>
		<path d="M11,21.5c0-0.4,0.2-0.7,0.4-1c-0.2-0.3-0.4-0.6-0.4-1c0-0.4,0.2-0.7,0.4-1c-0.1-0.1-0.2-0.3-0.3-0.5c-0.4,0-0.8,0-1.1,0
			c-4,0-8.1-1-10-2.6v2.1C0,20,4.4,22,10,22c0.4,0,0.8,0,1.1,0C11.1,21.8,11,21.7,11,21.5z"/>
		<path d="M12.5,16h1.6c0.1-0.2,0.2-0.4,0.3-0.5c-0.2-0.3-0.4-0.6-0.4-1c0-0.5,0.1-0.9,0.2-1.3c-1.4,0.2-2.8,0.3-4.2,0.3
			c-4,0-8.1-1-10-2.6v2.6C0,15.1,4.5,17,10,17c0.4,0,0.8,0,1.1,0C11.3,16.4,11.9,16,12.5,16z"/>
		<path d="M18,10c0.5,0,1,0.1,1.5,0.3c0.2-0.1,0.4-0.3,0.5-0.4V6.7C17.9,8.1,13.8,9,10,9C6,9,1.9,8,0,6.4V9c0,1.6,4.5,3.5,10,3.5
			c1.6,0,3.2-0.2,4.6-0.4C15.3,10.7,16.7,10,18,10z"/>
		<g>
			<path d="M15.5,15h5c0,0,0,0,0,0c0.3,0,0.5-0.2,0.5-0.5c0-0.1,0-0.1,0-0.1c-0.1-2-1.2-3.3-3-3.3c-1.8,0-3,1.4-3,3.5
				C15,14.8,15.2,15,15.5,15z"/>
			<path d="M23.5,20c0.3,0,0.5-0.2,0.5-0.5c0-0.3-0.2-0.5-0.5-0.5H21v-1h2.5c0.3,0,0.5-0.2,0.5-0.5c0-0.3-0.2-0.5-0.5-0.5H21v-0.5
				c0-0.3-0.2-0.5-0.5-0.5h-5c-0.3,0-0.5,0.2-0.5,0.5V17h-2.5c-0.3,0-0.5,0.2-0.5,0.5c0,0.3,0.2,0.5,0.5,0.5H15v1h-2.5
				c-0.3,0-0.5,0.2-0.5,0.5c0,0.3,0.2,0.5,0.5,0.5H15v1h-2.5c-0.3,0-0.5,0.2-0.5,0.5c0,0.3,0.2,0.5,0.5,0.5h2.7c0.4,1.2,1.5,2,2.8,2
				c1.3,0,2.4-0.8,2.8-2h2.7c0.3,0,0.5-0.2,0.5-0.5c0-0.3-0.2-0.5-0.5-0.5H21v-1H23.5z"/>
		</g>
	</g>
</g>
<g id="Outline_Icons">
	<g>
		<g>
			<g>
				<ellipse class="st2" cx="10" cy="4.5" rx="9.5" ry="4"/>
				<path class="st2" d="M10,12.5c-5.2,0-9.5-1.8-9.5-4"/>
				<path class="st2" d="M8.5,16.9c-4.5-0.3-8-2-8-3.9"/>
				<path class="st2" d="M9,21.5c-4.8-0.2-8.5-1.9-8.5-4v-13"/>
			</g>
			<line class="st2" x1="19.5" y1="4.5" x2="19.5" y2="9"/>
		</g>
		<path class="st2" d="M15.5,14.5c0-2,1.1-3,2.5-3c1.4,0,2.5,1,2.5,3H15.5z"/>
		<path class="st2" d="M15.5,16.5h5V21c0,1.4-1.1,2.5-2.5,2.5c-1.4,0-2.5-1.1-2.5-2.5V16.5z"/>
		<line class="st2" x1="20.5" y1="17.5" x2="23.5" y2="17.5"/>
		<line class="st2" x1="20.5" y1="19.5" x2="23.5" y2="19.5"/>
		<line class="st2" x1="20.4" y1="21.5" x2="23.5" y2="21.5"/>
		<line class="st2" x1="12.5" y1="17.5" x2="15.5" y2="17.5"/>
		<line class="st2" x1="12.5" y1="19.5" x2="15.5" y2="19.5"/>
		<line class="st2" x1="12.5" y1="21.5" x2="15.6" y2="21.5"/>
	</g>
</g>
</svg>
