<?xml version="1.0" encoding="utf-8"?>
<!-- Generator: Adobe Illustrator 19.2.0, SVG Export Plug-In . SVG Version: 6.00 Build 0)  -->
<svg version="1.1" id="Layer_1" xmlns="http://www.w3.org/2000/svg" xmlns:xlink="http://www.w3.org/1999/xlink" x="0px" y="0px"
	 viewBox="0 0 24 24" style="enable-background:new 0 0 24 24;" xml:space="preserve">
<style type="text/css">
	.st0{display:none;}
	.st1{display:inline;}
	.st2{fill:none;stroke:#000000;stroke-linecap:round;stroke-linejoin:round;stroke-miterlimit:10;}
</style>
<g id="Filled_Icons" class="st0">
	<g class="st1">
		<path d="M10,12.5c2.1,0,4-0.3,5.6-0.7l0.4-0.8c0.3-0.6,0.8-0.9,1.5-0.9c0.5,0,0.9,0.2,1.3,0.6c0.5-0.3,1-0.5,1.2-0.8V6.7
			C17.9,8.1,13.8,9,10,9C6,9,1.9,8,0,6.4V9C0,10.6,4.5,12.5,10,12.5z"/>
		<path d="M10,17c1.1,0,2.2-0.1,3.2-0.2l1.9-3.8c-1.6,0.3-3.4,0.5-5.1,0.5c-4,0-8.1-1-10-2.6v2.6C0,15.1,4.5,17,10,17z"/>
		<path d="M10,8c4.6,0,8.6-1.3,10-2.6V4.5C20,2,15.6,0,10,0C4.4,0,0,2,0,4.5C0,6.1,4.5,8,10,8z"/>
		<path d="M10,18c-4,0-8.1-1-10-2.6v2.1C0,20,4.4,22,10,22c0.2,0,0.4,0,0.6,0l2.1-4.1C11.8,18,10.9,18,10,18z"/>
		<path d="M24,23.4l-5.9-11.8c0,0,0,0,0,0c-0.1-0.1-0.2-0.2-0.3-0.3c0,0,0,0,0,0c-0.1,0-0.1,0-0.2,0c-0.2,0-0.4,0.1-0.5,0.3l0,0
			c0,0,0,0,0,0l-5.9,11.8c-0.1,0.2-0.1,0.3,0,0.5c0.1,0.1,0.3,0.2,0.4,0.2h12c0,0,0,0,0,0c0.3,0,0.5-0.2,0.5-0.5
			C24,23.4,24,23.4,24,23.4z M17,16.4c0-0.3,0.2-0.5,0.5-0.5c0.3,0,0.5,0.2,0.5,0.5v3.3c0,0.3-0.2,0.5-0.5,0.5
			c-0.3,0-0.5-0.2-0.5-0.5V16.4z M17.5,21.9c-0.3,0-0.5-0.2-0.5-0.5c0-0.3,0.2-0.5,0.5-0.5c0.3,0,0.5,0.2,0.5,0.5
			C18,21.6,17.8,21.9,17.5,21.9z"/>
	</g>
</g>
<g id="Outline_Icons">
	<g>
		<g>
			<g>
				<ellipse class="st2" cx="10" cy="4.5" rx="9.5" ry="4"/>
				<path class="st2" d="M11.5,12.4c-0.5,0-1,0.1-1.5,0.1c-5.2,0-9.5-1.8-9.5-4"/>
				<path class="st2" d="M10,17c-5.2,0-9.5-1.8-9.5-4"/>
				<path class="st2" d="M10,21.5c-5.2,0-9.5-1.8-9.5-4v-13"/>
			</g>
			<line class="st2" x1="19.5" y1="4.5" x2="19.5" y2="10"/>
		</g>
		<polygon class="st2" points="23.5,23.5 12.5,23.5 18,12.5 		"/>
		<line class="st2" x1="18" y1="17" x2="18" y2="20"/>
		<g>
			<g>
				<g>
					<path d="M18,21c-0.3,0-0.5,0.2-0.5,0.5c0,0.3,0.2,0.5,0.5,0.5c0.3,0,0.5-0.2,0.5-0.5C18.5,21.2,18.3,21,18,21L18,21z"/>
				</g>
			</g>
		</g>
	</g>
</g>
</svg>
