<?xml version="1.0" encoding="utf-8"?>
<!-- Generator: Adobe Illustrator 19.2.0, SVG Export Plug-In . SVG Version: 6.00 Build 0)  -->
<svg version="1.1" id="Layer_1" xmlns="http://www.w3.org/2000/svg" xmlns:xlink="http://www.w3.org/1999/xlink" x="0px" y="0px"
	 viewBox="0 0 24 24" style="enable-background:new 0 0 24 24;" xml:space="preserve">
<style type="text/css">
	.st0{display:none;}
	.st1{display:inline;}
	.st2{fill:none;stroke:#000000;stroke-linecap:round;stroke-linejoin:round;stroke-miterlimit:10;}
</style>
<g id="Filled_Icons" class="st0">
	<g class="st1">
		<circle cx="3.5" cy="14.5" r="0.5"/>
		<circle cx="3.5" cy="8.5" r="0.5"/>
		<path d="M0,12v3.5C0,16.9,1.1,18,2.5,18H12v5H5.5C5.2,23,5,23.2,5,23.5C5,23.8,5.2,24,5.5,24h13c0.3,0,0.5-0.2,0.5-0.5
			c0-0.3-0.2-0.5-0.5-0.5H13v-5h8.5c1.4,0,2.5-1.1,2.5-2.5V12H0z M3.5,16C2.7,16,2,15.3,2,14.5C2,13.7,2.7,13,3.5,13
			C4.3,13,5,13.7,5,14.5C5,15.3,4.3,16,3.5,16z M14,15.5c-0.6,0-1-0.4-1-1c0-0.6,0.4-1,1-1c0.6,0,1,0.4,1,1
			C15,15.1,14.6,15.5,14,15.5z M17,15.5c-0.6,0-1-0.4-1-1c0-0.6,0.4-1,1-1c0.6,0,1,0.4,1,1C18,15.1,17.6,15.5,17,15.5z M20,15.5
			c-0.6,0-1-0.4-1-1c0-0.6,0.4-1,1-1c0.6,0,1,0.4,1,1C21,15.1,20.6,15.5,20,15.5z"/>
		<path d="M17.8,0.1C17.7,0,17.6,0,17.5,0h-11C6.4,0,6.3,0,6.2,0.1L0.3,5h23.4L17.8,0.1z"/>
		<path d="M24,6H0v5h24V6z M3.5,10C2.7,10,2,9.3,2,8.5C2,7.7,2.7,7,3.5,7C4.3,7,5,7.7,5,8.5C5,9.3,4.3,10,3.5,10z M14,9.5
			c-0.6,0-1-0.4-1-1c0-0.6,0.4-1,1-1c0.6,0,1,0.4,1,1C15,9.1,14.6,9.5,14,9.5z M17,9.5c-0.6,0-1-0.4-1-1c0-0.6,0.4-1,1-1
			c0.6,0,1,0.4,1,1C18,9.1,17.6,9.5,17,9.5z M20,9.5c-0.6,0-1-0.4-1-1c0-0.6,0.4-1,1-1c0.6,0,1,0.4,1,1C21,9.1,20.6,9.5,20,9.5z"/>
		<circle cx="1.5" cy="23.5" r="0.5"/>
		<circle cx="3.5" cy="23.5" r="0.5"/>
		<circle cx="20.5" cy="23.5" r="0.5"/>
		<circle cx="22.5" cy="23.5" r="0.5"/>
	</g>
</g>
<g id="Outline_Icons">
	<g>
		<rect x="0.5" y="5.5" class="st2" width="23" height="6"/>
		<polyline class="st2" points="0.5,5.5 6.5,0.5 17.5,0.5 23.5,5.5 		"/>
		<circle class="st2" cx="14" cy="8.5" r="0.5"/>
		<circle class="st2" cx="17" cy="8.5" r="0.5"/>
		<circle class="st2" cx="20" cy="8.5" r="0.5"/>
		<circle class="st2" cx="3.5" cy="8.5" r="1"/>
		<path class="st2" d="M23.5,11.5v4c0,1.1-0.9,2-2,2h-19c-1.1,0-2-0.9-2-2v-4"/>
		<circle class="st2" cx="14" cy="14.5" r="0.5"/>
		<circle class="st2" cx="17" cy="14.5" r="0.5"/>
		<circle class="st2" cx="20" cy="14.5" r="0.5"/>
		<circle class="st2" cx="3.5" cy="14.5" r="1"/>
		<line class="st2" x1="5.5" y1="23.5" x2="18.5" y2="23.5"/>
		<line class="st2" x1="12.5" y1="17.5" x2="12.5" y2="23.5"/>
		<g>
			<g>
				<g>
					<path d="M1.5,23C1.2,23,1,23.2,1,23.5C1,23.8,1.2,24,1.5,24C1.8,24,2,23.8,2,23.5C2,23.2,1.8,23,1.5,23L1.5,23z"/>
				</g>
			</g>
		</g>
		<g>
			<g>
				<g>
					<path d="M3.5,23C3.2,23,3,23.2,3,23.5C3,23.8,3.2,24,3.5,24C3.8,24,4,23.8,4,23.5C4,23.2,3.8,23,3.5,23L3.5,23z"/>
				</g>
			</g>
		</g>
		<g>
			<g>
				<g>
					<path d="M20.5,23c-0.3,0-0.5,0.2-0.5,0.5c0,0.3,0.2,0.5,0.5,0.5c0.3,0,0.5-0.2,0.5-0.5C21,23.2,20.8,23,20.5,23L20.5,23z"/>
				</g>
			</g>
		</g>
		<g>
			<g>
				<g>
					<path d="M22.5,23c-0.3,0-0.5,0.2-0.5,0.5c0,0.3,0.2,0.5,0.5,0.5c0.3,0,0.5-0.2,0.5-0.5C23,23.2,22.8,23,22.5,23L22.5,23z"/>
				</g>
			</g>
		</g>
	</g>
</g>
</svg>
