<?xml version="1.0" encoding="utf-8"?>
<!-- Generator: Adobe Illustrator 19.2.0, SVG Export Plug-In . SVG Version: 6.00 Build 0)  -->
<svg version="1.1" id="Layer_1" xmlns="http://www.w3.org/2000/svg" xmlns:xlink="http://www.w3.org/1999/xlink" x="0px" y="0px"
	 viewBox="0 0 24 24" style="enable-background:new 0 0 24 24;" xml:space="preserve">
<style type="text/css">
	.st0{display:none;}
	.st1{display:inline;}
	.st2{fill:none;stroke:#000000;stroke-linecap:round;stroke-linejoin:round;stroke-miterlimit:10;}
</style>
<g id="Filled_Icons" class="st0">
	<g class="st1">
		<path d="M10,17c0.9,0,1.8-0.1,2.7-0.1c0.5-1.7,1.6-3.2,3.1-4C14,13.3,12,13.5,10,13.5c-4,0-8.1-1-10-2.6v2.6C0,15.1,4.5,17,10,17z
			"/>
		<path d="M10,12.5c4.6,0,8.6-1.3,10-2.6V6.7C17.9,8.1,13.8,9,10,9C6,9,1.9,8,0,6.4V9C0,10.6,4.5,12.5,10,12.5z"/>
		<path d="M10,8c4.6,0,8.6-1.3,10-2.6V4.5C20,2,15.6,0,10,0C4.4,0,0,2,0,4.5C0,6.1,4.5,8,10,8z"/>
		<path d="M19.1,12c0.3,0,0.6,0,0.9,0.1v-0.9c-0.5,0.3-1,0.6-1.7,0.9C18.5,12,18.8,12,19.1,12L19.1,12z"/>
		<path d="M12.5,17.9C11.7,18,10.8,18,10,18c-4,0-8.1-1-10-2.6v2.1C0,20,4.4,22,10,22c1.2,0,2.3-0.1,3.4-0.3c-0.6-1-0.9-2.1-0.9-3.3
			C12.5,18.2,12.5,18.1,12.5,17.9z"/>
		<path d="M19,13c-3,0-5.5,2.4-5.5,5.4c0,3.1,2.5,5.6,5.4,5.6H19c3,0,5.5-2.4,5.5-5.4C24.5,15.6,22.2,13,19,13z M15,18.4
			c0-1.1,0.4-2.1,1.2-2.8c0.8-0.7,1.8-1.2,2.8-1.1c1,0,1.9,0.4,2.6,1l0-0.5c0-0.3,0.2-0.5,0.5-0.5c0,0,0,0,0,0
			c0.3,0,0.5,0.2,0.5,0.5l0,2.4l-2.4,0c-0.3,0-0.5-0.2-0.5-0.5c0-0.3,0.2-0.5,0.5-0.5l1,0c-0.5-0.6-1.3-1-2.2-1
			c-0.8,0-1.6,0.3-2.1,0.9c-0.6,0.6-0.9,1.3-0.9,2.1L15,18.4z M21.8,21.4C21,22.1,20,22.5,19,22.5c0,0,0,0-0.1,0c-1,0-1.9-0.4-2.6-1
			l0,0.1c0,0.3-0.2,0.5-0.5,0.5c0,0,0,0,0,0c-0.3,0-0.5-0.2-0.5-0.5l0-2.1l2.1,0c0.3,0,0.5,0.2,0.5,0.5c0,0.3-0.2,0.5-0.5,0.5
			c0,0,0,0,0,0l-0.6,0c0.5,0.6,1.3,1,2.2,1c0,0,0,0,0,0c0.8,0,1.5-0.3,2.1-0.9c0.6-0.6,0.9-1.3,0.9-2.1l1,0
			C23,19.6,22.6,20.6,21.8,21.4z"/>
	</g>
</g>
<g id="Outline_Icons">
	<g>
		<g>
			<g>
				<g>
					<ellipse class="st2" cx="10" cy="4.5" rx="9.5" ry="4"/>
					<path class="st2" d="M11.5,12.4c-0.5,0-1,0.1-1.5,0.1c-5.2,0-9.5-1.8-9.5-4"/>
					<path class="st2" d="M10,17c-5.2,0-9.5-1.8-9.5-4"/>
					<path class="st2" d="M10,21.5c-5.2,0-9.5-1.8-9.5-4v-13"/>
				</g>
				<line class="st2" x1="19.5" y1="4.5" x2="19.5" y2="10"/>
			</g>
		</g>
		<g>
			<polyline class="st2" points="23,15 23,17.5 20.5,17.5 			"/>
			<path class="st2" d="M14.3,17.5c0.6-1.7,2.3-3,4.2-3s3.8,1.2,4.5,3"/>
			<g>
				<polyline class="st2" points="14.5,23 14.5,20.5 17,20.5 				"/>
				<path class="st2" d="M23.2,20.5c-0.6,1.7-2.3,3-4.2,3c-2,0-3.8-1.2-4.5-3"/>
			</g>
		</g>
	</g>
</g>
</svg>
