<?xml version="1.0" encoding="utf-8"?>
<!-- Generator: Adobe Illustrator 19.2.0, SVG Export Plug-In . SVG Version: 6.00 Build 0)  -->
<svg version="1.1" id="Layer_1" xmlns="http://www.w3.org/2000/svg" xmlns:xlink="http://www.w3.org/1999/xlink" x="0px" y="0px"
	 viewBox="0 0 24 24" style="enable-background:new 0 0 24 24;" xml:space="preserve">
<style type="text/css">
	.st0{display:none;}
	.st1{display:inline;}
	.st2{fill:none;stroke:#000000;stroke-linecap:round;stroke-linejoin:round;stroke-miterlimit:10;}
</style>
<g id="Filled_Icons" class="st0">
	<g class="st1">
		<circle cx="4" cy="4" r="0.5"/>
		<circle cx="4" cy="18" r="0.5"/>
		<circle cx="4" cy="11" r="0.5"/>
		<path d="M22,7c0,0,0-5.5,0-5.5C22,0.7,21.3,0,20.5,0h-19C0.7,0,0,0.7,0,1.5C0,1.5,0,7,0,7H22z M8,3h10c0.3,0,0.5,0.2,0.5,0.5
			C18.5,3.8,18.3,4,18,4H8C7.7,4,7.5,3.8,7.5,3.5C7.5,3.2,7.7,3,8,3z M8,5h10c0.3,0,0.5,0.2,0.5,0.5C18.5,5.8,18.3,6,18,6H8
			C7.7,6,7.5,5.8,7.5,5.5C7.5,5.2,7.7,5,8,5z M4,2.5c0.8,0,1.5,0.7,1.5,1.5c0,0.8-0.7,1.5-1.5,1.5C3.2,5.5,2.5,4.8,2.5,4
			C2.5,3.2,3.2,2.5,4,2.5z"/>
		<path d="M11,20H8c-0.3,0-0.5-0.2-0.5-0.5C7.5,19.2,7.7,19,8,19h3v-1H8c-0.3,0-0.5-0.2-0.5-0.5C7.5,17.2,7.7,17,8,17h3v-1.5
			c0-0.2,0-0.3,0.1-0.5H0c0,0,0,5.5,0,5.5C0,21.3,0.7,22,1.5,22H11V20z M4,19.5c-0.8,0-1.5-0.7-1.5-1.5c0-0.8,0.7-1.5,1.5-1.5
			c0.8,0,1.5,0.7,1.5,1.5C5.5,18.8,4.8,19.5,4,19.5z"/>
		<path d="M13.1,14c0-0.3,0.1-0.7,0.2-1H8c-0.3,0-0.5-0.2-0.5-0.5C7.5,12.2,7.7,12,8,12h5.8c0.3-0.4,0.6-0.7,0.9-1H8
			c-0.3,0-0.5-0.2-0.5-0.5C7.5,10.2,7.7,10,8,10h10c0.1,0,0.2,0,0.2,0.1c1.9,0.3,3.4,1.9,3.7,3.8c0-0.1,0.1-0.3,0.1-0.4
			c0,0,0-5.5,0-5.5H0c0,0,0,6,0,6h12.5H13.1z M4,12.5c-0.8,0-1.5-0.7-1.5-1.5c0-0.8,0.7-1.5,1.5-1.5c0.8,0,1.5,0.7,1.5,1.5
			C5.5,11.8,4.8,12.5,4,12.5z"/>
		<path d="M22.5,15H21v-0.5c0-1.9-1.6-3.5-3.5-3.5c-1.9,0-3.5,1.6-3.5,3.5V15h-1.5c-0.3,0-0.5,0.2-0.5,0.5v8c0,0.3,0.2,0.5,0.5,0.5
			h10c0.3,0,0.5-0.2,0.5-0.5v-8C23,15.2,22.8,15,22.5,15z M18,19.3V21c0,0.3-0.2,0.5-0.5,0.5c-0.3,0-0.5-0.2-0.5-0.5v-1.7
			c-0.3-0.2-0.5-0.5-0.5-0.8c0-0.6,0.4-1,1-1c0.6,0,1,0.4,1,1C18.5,18.9,18.3,19.2,18,19.3z M20,15h-5v-0.5c0-1.4,1.1-2.5,2.5-2.5
			c1.4,0,2.5,1.1,2.5,2.5V15z"/>
	</g>
</g>
<g id="Outline_Icons">
	<g>
		<rect x="12.5" y="15.5" class="st2" width="10" height="8"/>
		<path class="st2" d="M14.5,15.5v-1c0-1.7,1.3-3,3-3c1.7,0,3,1.3,3,3v1"/>
		<path class="st2" d="M21.5,6.5c0,0.6-0.4,1-1,1h-19c-0.6,0-1-0.4-1-1v-5c0-0.6,0.4-1,1-1h19c0.6,0,1,0.4,1,1V6.5z"/>
		<line class="st2" x1="8" y1="5.5" x2="18" y2="5.5"/>
		<line class="st2" x1="8" y1="3.5" x2="18" y2="3.5"/>
		<circle class="st2" cx="4" cy="4" r="1"/>
		<path class="st2" d="M9,14.5H1.5c-0.6,0-1-0.4-1-1v-5c0-0.6,0.4-1,1-1h19c0.6,0,1,0.4,1,1V10"/>
		<line class="st2" x1="8" y1="12.5" x2="10" y2="12.5"/>
		<line class="st2" x1="8" y1="10.5" x2="11" y2="10.5"/>
		<circle class="st2" cx="4" cy="11" r="1"/>
		<path class="st2" d="M10,21.5H1.5c-0.6,0-1-0.4-1-1v-5c0-0.6,0.4-1,1-1H9"/>
		<circle class="st2" cx="4" cy="18" r="1"/>
		<line class="st2" x1="17.5" y1="21" x2="17.5" y2="19"/>
		<circle class="st2" cx="17.5" cy="18.5" r="0.5"/>
	</g>
</g>
</svg>
