<?xml version="1.0" encoding="utf-8"?>
<!-- Generator: Adobe Illustrator 19.2.0, SVG Export Plug-In . SVG Version: 6.00 Build 0)  -->
<svg version="1.1" id="Layer_1" xmlns="http://www.w3.org/2000/svg" xmlns:xlink="http://www.w3.org/1999/xlink" x="0px" y="0px"
	 viewBox="0 0 24 24" style="enable-background:new 0 0 24 24;" xml:space="preserve">
<style type="text/css">
	.st0{display:none;}
	.st1{display:inline;}
	.st2{fill:none;stroke:#000000;stroke-linecap:round;stroke-linejoin:round;stroke-miterlimit:10;}
</style>
<g id="Filled_Icons" class="st0">
	<g class="st1">
		<path d="M21,0c-1.7,0-3,0.9-3,2v3c0,0.9,0.8,1.6,1.9,1.9L18,8.8V8c0-1.7-2.6-3-6-3C8.6,5,6,6.3,6,8v0.8L4.1,6.9C5.2,6.6,6,5.9,6,5
			V2c0-1.1-1.3-2-3-2C1.3,0,0,0.9,0,2v3c0,1.1,1.2,1.9,2.8,2L6,10.2V12c0.8,0.7,2.8,2,6,2c3.2,0,5.2-1.3,6-2v-1.8L21.2,7
			C22.8,6.9,24,6.1,24,5V2C24,0.9,22.7,0,21,0z M1,2c0-0.5,0.9-1,2-1s2,0.5,2,1c0,0.5-0.9,1-2,1S1,2.5,1,2z M12,10c-2.9,0-5-1.1-5-2
			c0-0.9,2.1-2,5-2c2.9,0,5,1.1,5,2C17,8.9,14.9,10,12,10z M21,3c-1.1,0-2-0.5-2-1c0-0.5,0.9-1,2-1c1.1,0,2,0.5,2,1
			C23,2.5,22.1,3,21,3z"/>
		<path d="M21.2,17L18,13.8v-0.9C17,14,15,15,12,15c-3,0-5-1-6-2.1v0.9L2.8,17C1.2,17.1,0,17.9,0,19v3c0,1.1,1.3,2,3,2
			c1.7,0,3-0.9,3-2v-3c0-0.9-0.8-1.6-1.9-1.9L6,15.2V16c0,1.7,2.6,3,6,3c3.4,0,6-1.3,6-3v-0.8l1.9,1.9c-1.1,0.3-1.9,1-1.9,1.9v3
			c0,1.1,1.3,2,3,2c1.7,0,3-0.9,3-2v-3C24,17.9,22.8,17.1,21.2,17z M5,19c0,0.5-0.9,1-2,1s-2-0.5-2-1c0-0.5,0.9-1,2-1S5,18.5,5,19z
			 M21,20c-1.1,0-2-0.5-2-1c0-0.5,0.9-1,2-1c1.1,0,2,0.5,2,1C23,19.5,22.1,20,21,20z"/>
	</g>
</g>
<g id="Outline_Icons">
	<g>
		<ellipse class="st2" cx="12" cy="8" rx="5.5" ry="2.5"/>
		<ellipse class="st2" cx="21" cy="2" rx="2.5" ry="1.5"/>
		<path class="st2" d="M23.5,2v3c0,0.8-1.1,1.5-2.5,1.5c-1.4,0-2.5-0.7-2.5-1.5V2"/>
		<ellipse class="st2" cx="3" cy="2" rx="2.5" ry="1.5"/>
		<path class="st2" d="M5.5,2v3c0,0.8-1.1,1.5-2.5,1.5C1.6,6.5,0.5,5.8,0.5,5V2"/>
		<ellipse class="st2" cx="21" cy="19" rx="2.5" ry="1.5"/>
		<path class="st2" d="M23.5,19v3c0,0.8-1.1,1.5-2.5,1.5c-1.4,0-2.5-0.7-2.5-1.5v-3"/>
		<ellipse class="st2" cx="3" cy="19" rx="2.5" ry="1.5"/>
		<path class="st2" d="M5.5,19v3c0,0.8-1.1,1.5-2.5,1.5c-1.4,0-2.5-0.7-2.5-1.5v-3"/>
		<path class="st2" d="M17.5,12c0,1.4-2.5,2.5-5.5,2.5c-3,0-5.5-1.1-5.5-2.5"/>
		<path class="st2" d="M6.5,8v8c0,1.4,2.5,2.5,5.5,2.5c3,0,5.5-1.1,5.5-2.5V8"/>
		<line class="st2" x1="3" y1="6.5" x2="6.5" y2="10"/>
		<line class="st2" x1="3" y1="17.5" x2="6.5" y2="14"/>
		<line class="st2" x1="21" y1="6.5" x2="17.5" y2="10"/>
		<line class="st2" x1="21" y1="17.5" x2="17.5" y2="14"/>
	</g>
</g>
</svg>
