<?xml version="1.0" encoding="utf-8"?>
<!-- Generator: Adobe Illustrator 19.2.0, SVG Export Plug-In . SVG Version: 6.00 Build 0)  -->
<svg version="1.1" id="Layer_1" xmlns="http://www.w3.org/2000/svg" xmlns:xlink="http://www.w3.org/1999/xlink" x="0px" y="0px"
	 viewBox="0 0 24 24" style="enable-background:new 0 0 24 24;" xml:space="preserve">
<style type="text/css">
	.st0{display:none;}
	.st1{display:inline;}
	.st2{fill:none;stroke:#000000;stroke-linecap:round;stroke-linejoin:round;stroke-miterlimit:10;}
	.st3{fill:none;stroke:#000000;stroke-linejoin:round;stroke-miterlimit:10;}
</style>
<g id="Filled_Icons" class="st0">
	<g class="st1">
		<path d="M10,0C4.4,0,0,2,0,4.5C0,6.1,4.5,8,10,8c4.6,0,8.6-1.3,10-2.6V4.5C20,2,15.6,0,10,0z"/>
		<path d="M0,6.4V9c0,1.6,4.5,3.5,10,3.5c4.6,0,8.6-1.3,10-2.6V6.7C17.9,8.1,13.8,9,10,9C6,9,1.9,8,0,6.4z"/>
		<path d="M13.8,19.5l-1.9-1.6C11.2,18,10.6,18,10,18c-4,0-8.1-1-10-2.6v2.1C0,20,4.4,22,10,22c1,0,2.1-0.1,3-0.2L13.8,19.5z"/>
		<g>
			<path d="M11.1,16c0.2-0.6,0.8-1,1.4-1h2.6l1.2-2.3c-1.9,0.5-4.1,0.8-6.2,0.8c-4,0-8.1-1-10-2.6v2.6C0,15.1,4.5,17,10,17
				c0.4,0,0.7,0,1.1,0C11,16.7,11,16.3,11.1,16z"/>
		</g>
		<path d="M24,16.4c-0.1-0.2-0.3-0.3-0.5-0.3h-3.2l-1.9-3.7C18.4,12.1,18.2,12,18,12h0c-0.2,0-0.4,0.1-0.4,0.3L15.7,16h-3.2
			c-0.2,0-0.4,0.1-0.5,0.3c-0.1,0.2,0,0.4,0.1,0.6l2.7,2.3l-1.4,4.2c-0.1,0.2,0,0.4,0.2,0.6c0.2,0.1,0.4,0.1,0.6,0l3.7-2.6l3.7,2.6
			C21.8,24,21.9,24,22,24c0.1,0,0.2,0,0.3-0.1c0.2-0.1,0.2-0.4,0.2-0.6l-1.4-4.2l2.7-2.3C24,16.8,24,16.6,24,16.4z"/>
	</g>
</g>
<g id="Outline_Icons">
	<g>
		<g>
			<g>
				<ellipse class="st2" cx="10" cy="4.5" rx="9.5" ry="4"/>
				<path class="st2" d="M10,12.5c-5.2,0-9.5-1.8-9.5-4"/>
				<path class="st2" d="M8.5,16.9c-4.5-0.3-8-2-8-3.9"/>
				<path class="st2" d="M9,21.5c-4.8-0.2-8.5-1.9-8.5-4v-13"/>
			</g>
			<line class="st2" x1="19.5" y1="4.5" x2="19.5" y2="9"/>
		</g>
		<g>
			<polygon class="st3" points="18,12.5 20,16.5 23.5,16.5 20.5,19 22,23.5 18,20.8 14,23.5 15.5,19 12.5,16.5 16,16.5 			"/>
		</g>
	</g>
</g>
</svg>
