<?xml version="1.0" encoding="utf-8"?>
<!-- Generator: Adobe Illustrator 19.2.0, SVG Export Plug-In . SVG Version: 6.00 Build 0)  -->
<svg version="1.1" id="Outline_Icons" xmlns="http://www.w3.org/2000/svg" xmlns:xlink="http://www.w3.org/1999/xlink" x="0px"
	 y="0px" viewBox="0 0 24 24" style="enable-background:new 0 0 24 24;" xml:space="preserve">
<style type="text/css">
	.st0{fill:none;stroke:#000000;stroke-linecap:round;stroke-linejoin:round;stroke-miterlimit:10;}
</style>
<g>
	<ellipse class="st0" cx="12" cy="3.5" rx="8.5" ry="3"/>
	<path class="st0" d="M20.5,7.5c0,1.7-3.8,3-8.5,3c-4.7,0-8.5-1.3-8.5-3"/>
	<path class="st0" d="M20.5,11.5c0,1.7-3.8,3-8.5,3c-4.7,0-8.5-1.3-8.5-3"/>
	<path class="st0" d="M20.5,3.5v12c0,1.7-3.8,3-8.5,3c-4.7,0-8.5-1.3-8.5-3v-12"/>
	<line class="st0" x1="5" y1="23.5" x2="18" y2="23.5"/>
	<line class="st0" x1="11.5" y1="18.5" x2="11.5" y2="23.5"/>
	<g>
		<g>
			<g>
				<path d="M1,23c-0.3,0-0.5,0.2-0.5,0.5C0.5,23.8,0.7,24,1,24s0.5-0.2,0.5-0.5C1.5,23.2,1.3,23,1,23L1,23z"/>
			</g>
		</g>
	</g>
	<g>
		<g>
			<g>
				<path d="M3,23c-0.3,0-0.5,0.2-0.5,0.5C2.5,23.8,2.7,24,3,24s0.5-0.2,0.5-0.5C3.5,23.2,3.3,23,3,23L3,23z"/>
			</g>
		</g>
	</g>
	<g>
		<g>
			<g>
				<path d="M20,23c-0.3,0-0.5,0.2-0.5,0.5c0,0.3,0.2,0.5,0.5,0.5s0.5-0.2,0.5-0.5C20.5,23.2,20.3,23,20,23L20,23z"/>
			</g>
		</g>
	</g>
	<g>
		<g>
			<g>
				<path d="M22,23c-0.3,0-0.5,0.2-0.5,0.5c0,0.3,0.2,0.5,0.5,0.5s0.5-0.2,0.5-0.5C22.5,23.2,22.3,23,22,23L22,23z"/>
			</g>
		</g>
	</g>
</g>
</svg>
