<?xml version="1.0" encoding="utf-8"?>
<!-- Generator: Adobe Illustrator 19.2.0, SVG Export Plug-In . SVG Version: 6.00 Build 0)  -->
<svg version="1.1" id="Layer_1" xmlns="http://www.w3.org/2000/svg" xmlns:xlink="http://www.w3.org/1999/xlink" x="0px" y="0px"
	 viewBox="0 0 24 24" style="enable-background:new 0 0 24 24;" xml:space="preserve">
<style type="text/css">
	.st0{display:none;}
	.st1{display:inline;}
	.st2{fill:none;stroke:#000000;stroke-linecap:round;stroke-linejoin:round;stroke-miterlimit:10;}
</style>
<g id="Filled_Icons" class="st0">
	<g class="st1">
		<circle cx="4" cy="4" r="0.5"/>
		<circle cx="4" cy="18" r="0.5"/>
		<circle cx="4" cy="11" r="0.5"/>
		<path d="M22,7c0,0,0-5.5,0-5.5C22,0.7,21.3,0,20.5,0h-19C0.7,0,0,0.7,0,1.5C0,1.5,0,7,0,7H22z M8,3h10c0.3,0,0.5,0.2,0.5,0.5
			C18.5,3.8,18.3,4,18,4H8C7.7,4,7.5,3.8,7.5,3.5C7.5,3.2,7.7,3,8,3z M8,5h10c0.3,0,0.5,0.2,0.5,0.5C18.5,5.8,18.3,6,18,6H8
			C7.7,6,7.5,5.8,7.5,5.5C7.5,5.2,7.7,5,8,5z M4,2.5c0.8,0,1.5,0.7,1.5,1.5c0,0.8-0.7,1.5-1.5,1.5C3.2,5.5,2.5,4.8,2.5,4
			C2.5,3.2,3.2,2.5,4,2.5z"/>
		<g>
			<path d="M10.4,20H8c-0.3,0-0.5-0.2-0.5-0.5C7.5,19.2,7.7,19,8,19h2.1c0-0.2-0.1-0.3-0.1-0.5c0-0.2,0-0.3,0.1-0.5H8
				c-0.3,0-0.5-0.2-0.5-0.5C7.5,17.2,7.7,17,8,17h2.4c0.6-1.2,1.8-2,3.1-2H0c0,0,0,5.5,0,5.5C0,21.3,0.7,22,1.5,22h12
				C12.1,22,10.9,21.2,10.4,20z M4,19.5c-0.8,0-1.5-0.7-1.5-1.5c0-0.8,0.7-1.5,1.5-1.5c0.8,0,1.5,0.7,1.5,1.5
				C5.5,18.8,4.8,19.5,4,19.5z"/>
		</g>
		<path d="M21.5,11c0.2,0,0.3,0,0.5,0.1c0,0,0-3.1,0-3.1H0c0,0,0,6,0,6h18.1C18.3,12.3,19.7,11,21.5,11z M8,10h10
			c0.3,0,0.5,0.2,0.5,0.5c0,0.3-0.2,0.5-0.5,0.5H8c-0.3,0-0.5-0.2-0.5-0.5C7.5,10.2,7.7,10,8,10z M4,12.5c-0.8,0-1.5-0.7-1.5-1.5
			c0-0.8,0.7-1.5,1.5-1.5c0.8,0,1.5,0.7,1.5,1.5C5.5,11.8,4.8,12.5,4,12.5z M7.5,12.5C7.5,12.2,7.7,12,8,12h10
			c0.3,0,0.5,0.2,0.5,0.5c0,0.3-0.2,0.5-0.5,0.5H8C7.7,13,7.5,12.8,7.5,12.5z"/>
		<path d="M21.5,19c-0.9,0-1.7,0.5-2.1,1.2L16,18.9c0-0.1,0-0.3,0-0.4c0-0.2,0-0.4-0.1-0.6l3.6-1.8c0.5,0.6,1.2,1,2,1
			c1.4,0,2.5-1.1,2.5-2.5c0-1.4-1.1-2.5-2.5-2.5c-1.4,0-2.5,1.1-2.5,2.5c0,0.2,0,0.4,0.1,0.6L15.5,17c-0.5-0.6-1.2-1-2-1
			c-1.4,0-2.5,1.1-2.5,2.5c0,1.4,1.1,2.5,2.5,2.5c0.9,0,1.7-0.5,2.1-1.2l3.4,1.3c0,0.1,0,0.3,0,0.4c0,1.4,1.1,2.5,2.5,2.5
			c1.4,0,2.5-1.1,2.5-2.5C24,20.1,22.9,19,21.5,19z M21.5,13c0.8,0,1.5,0.7,1.5,1.5c0,0.8-0.7,1.5-1.5,1.5c-0.8,0-1.5-0.7-1.5-1.5
			C20,13.7,20.7,13,21.5,13z M13.5,20c-0.8,0-1.5-0.7-1.5-1.5c0-0.8,0.7-1.5,1.5-1.5c0.8,0,1.5,0.7,1.5,1.5C15,19.3,14.3,20,13.5,20
			z M21.5,23c-0.8,0-1.5-0.7-1.5-1.5c0-0.8,0.7-1.5,1.5-1.5c0.8,0,1.5,0.7,1.5,1.5C23,22.3,22.3,23,21.5,23z"/>
	</g>
</g>
<g id="Outline_Icons">
	<g>
		<g>
			<circle class="st2" cx="21.5" cy="14.5" r="2"/>
			<circle class="st2" cx="21.5" cy="21.5" r="2"/>
			<circle class="st2" cx="13.5" cy="18.5" r="2"/>
			<line class="st2" x1="15.3" y1="17.6" x2="19.7" y2="15.4"/>
			<line class="st2" x1="15.4" y1="19.2" x2="19.6" y2="20.8"/>
		</g>
		<path class="st2" d="M21.5,6.5c0,0.6-0.4,1-1,1h-19c-0.6,0-1-0.4-1-1v-5c0-0.6,0.4-1,1-1h19c0.6,0,1,0.4,1,1V6.5z"/>
		<line class="st2" x1="8" y1="5.5" x2="18" y2="5.5"/>
		<line class="st2" x1="8" y1="3.5" x2="18" y2="3.5"/>
		<circle class="st2" cx="4" cy="4" r="1"/>
		<path class="st2" d="M12,14.5H1.5c-0.6,0-1-0.4-1-1v-5c0-0.6,0.4-1,1-1h19c0.6,0,1,0.4,1,1V10"/>
		<line class="st2" x1="8" y1="12.5" x2="14" y2="12.5"/>
		<line class="st2" x1="8" y1="10.5" x2="15" y2="10.5"/>
		<circle class="st2" cx="4" cy="11" r="1"/>
		<path class="st2" d="M10,21.5H1.5c-0.6,0-1-0.4-1-1v-5c0-0.6,0.4-1,1-1H12"/>
		<circle class="st2" cx="4" cy="18" r="1"/>
		<path class="st2" d="M21.5,6.5c0,0.6-0.4,1-1,1h-19c-0.6,0-1-0.4-1-1v-5c0-0.6,0.4-1,1-1h19c0.6,0,1,0.4,1,1V6.5z"/>
		<line class="st2" x1="8" y1="5.5" x2="18" y2="5.5"/>
		<line class="st2" x1="8" y1="3.5" x2="18" y2="3.5"/>
		<circle class="st2" cx="4" cy="4" r="1"/>
		<path class="st2" d="M12,14.5H1.5c-0.6,0-1-0.4-1-1v-5c0-0.6,0.4-1,1-1h19c0.6,0,1,0.4,1,1V10"/>
		<line class="st2" x1="8" y1="12.5" x2="14" y2="12.5"/>
		<line class="st2" x1="8" y1="10.5" x2="15" y2="10.5"/>
		<circle class="st2" cx="4" cy="11" r="1"/>
		<path class="st2" d="M10,21.5H1.5c-0.6,0-1-0.4-1-1v-5c0-0.6,0.4-1,1-1H12"/>
		<circle class="st2" cx="4" cy="18" r="1"/>
	</g>
</g>
</svg>
