<?xml version="1.0" encoding="utf-8"?>
<!-- Generator: Adobe Illustrator 19.2.0, SVG Export Plug-In . SVG Version: 6.00 Build 0)  -->
<svg version="1.1" id="Layer_1" xmlns="http://www.w3.org/2000/svg" xmlns:xlink="http://www.w3.org/1999/xlink" x="0px" y="0px"
	 viewBox="0 0 24 24" style="enable-background:new 0 0 24 24;" xml:space="preserve">
<style type="text/css">
	.st0{display:none;}
	.st1{display:inline;}
	.st2{fill:none;stroke:#000000;stroke-linecap:round;stroke-linejoin:round;stroke-miterlimit:10;}
	.st3{fill:none;stroke:#000000;stroke-linejoin:round;stroke-miterlimit:10;}
</style>
<g id="Filled_Icons" class="st0">
	<g class="st1">
		<path d="M10,12.5c4.6,0,8.6-1.3,10-2.6V6.7C17.9,8.1,13.8,9,10,9C6,9,1.9,8,0,6.4V9C0,10.6,4.5,12.5,10,12.5z"/>
		<path d="M10,8c4.6,0,8.6-1.3,10-2.6V4.5C20,2,15.6,0,10,0C4.4,0,0,2,0,4.5C0,6.1,4.5,8,10,8z"/>
		<path d="M10,17c1.7,0,3.4-0.2,4.9-0.5l5.1-5.1v-0.2c-2.1,1.4-6.2,2.3-10,2.3c-4,0-8.1-1-10-2.6v2.6C0,15.1,4.5,17,10,17z"/>
		<path d="M12.3,19.1l1.4-1.4C12.4,17.9,11.2,18,10,18c-4,0-8.1-1-10-2.6v2.1C0,20,4.4,22,10,22c0.5,0,0.9,0,1.4,0l0.7-2.6
			C12.2,19.3,12.2,19.2,12.3,19.1z"/>
		<rect x="14.1" y="16.2" transform="matrix(0.707 -0.7072 0.7072 0.707 -7.9562 17.797)" width="6.8" height="4.5"/>
		<path d="M12,23.4c0,0.2,0,0.4,0.1,0.5c0.1,0.1,0.3,0.2,0.5,0.1l3.2-0.9l-2.9-2.9L12,23.4z"/>
		<path d="M23.9,14.6l-2.5-2.5c-0.2-0.2-0.5-0.2-0.7,0L20,12.8l0,0l-1,1l3.2,3.2l1.6-1.6c0.1-0.1,0.1-0.2,0.1-0.4
			C24,14.9,23.9,14.7,23.9,14.6z"/>
	</g>
</g>
<g id="Outline_Icons">
	<g>
		<g>
			<polygon class="st2" points="16,22.5 12.5,23.5 13.5,20 21,12.5 23.5,15 			"/>
			<line class="st3" x1="19" y1="14.5" x2="21.5" y2="17"/>
			<line class="st2" x1="13.5" y1="20" x2="16" y2="22.5"/>
		</g>
		<g>
			<g>
				<ellipse class="st2" cx="10" cy="4.5" rx="9.5" ry="4"/>
				<path class="st2" d="M10,12.5c-5.2,0-9.5-1.8-9.5-4"/>
				<path class="st2" d="M8.5,16.9c-4.5-0.3-8-2-8-3.9"/>
				<path class="st2" d="M9,21.5c-4.8-0.2-8.5-1.9-8.5-4v-13"/>
			</g>
			<line class="st2" x1="19.5" y1="4.5" x2="19.5" y2="9"/>
		</g>
	</g>
</g>
</svg>
