<?xml version="1.0" encoding="utf-8"?>
<!-- Generator: Adobe Illustrator 19.2.0, SVG Export Plug-In . SVG Version: 6.00 Build 0)  -->
<svg version="1.1" id="Layer_1" xmlns="http://www.w3.org/2000/svg" xmlns:xlink="http://www.w3.org/1999/xlink" x="0px" y="0px"
	 viewBox="0 0 24 24" style="enable-background:new 0 0 24 24;" xml:space="preserve">
<style type="text/css">
	.st0{display:none;}
	.st1{display:inline;}
	.st2{fill:none;stroke:#000000;stroke-linecap:round;stroke-linejoin:round;stroke-miterlimit:10;}
</style>
<g id="Filled_Icons" class="st0">
	<g class="st1">
		<g>
			<path d="M22,7c0,0,0-5.5,0-5.5C22,0.7,21.3,0,20.5,0h-19C0.7,0,0,0.7,0,1.5C0,1.5,0,7,0,7H22z M8,3h10c0.3,0,0.5,0.2,0.5,0.5
				C18.5,3.8,18.3,4,18,4H8C7.7,4,7.5,3.8,7.5,3.5C7.5,3.2,7.7,3,8,3z M8,5h10c0.3,0,0.5,0.2,0.5,0.5C18.5,5.8,18.3,6,18,6H8
				C7.7,6,7.5,5.8,7.5,5.5C7.5,5.2,7.7,5,8,5z M4,2.5c0.8,0,1.5,0.7,1.5,1.5c0,0.8-0.7,1.5-1.5,1.5C3.2,5.5,2.5,4.8,2.5,4
				C2.5,3.2,3.2,2.5,4,2.5z"/>
			<path d="M10.4,20H8c-0.3,0-0.5-0.2-0.5-0.5C7.5,19.2,7.7,19,8,19h2.2c-0.1-0.3-0.1-0.7-0.1-1H8c-0.3,0-0.5-0.2-0.5-0.5
				C7.5,17.2,7.7,17,8,17h2c0-0.7,0.2-1.4,0.4-2H0c0,5.5,0,5.5,0,5.5C0,21.3,0.7,22,1.5,22h10C11.1,21.4,10.7,20.7,10.4,20z M4,19.5
				c-0.8,0-1.5-0.7-1.5-1.5c0-0.8,0.7-1.5,1.5-1.5c0.8,0,1.5,0.7,1.5,1.5C5.5,18.8,4.8,19.5,4,19.5z"/>
			<path d="M11.5,13H8c-0.3,0-0.5-0.2-0.5-0.5C7.5,12.2,7.7,12,8,12h4.4c0.4-0.4,0.9-0.7,1.4-1H8c-0.3,0-0.5-0.2-0.5-0.5
				C7.5,10.2,7.7,10,8,10h10c0.1,0,0.1,0,0.2,0c1.4,0.1,2.7,0.7,3.8,1.5c0,0,0-3.5,0-3.5H0c0,0,0,6,0,6h10.9
				C11.1,13.6,11.3,13.3,11.5,13z M4,12.5c-0.8,0-1.5-0.7-1.5-1.5c0-0.8,0.7-1.5,1.5-1.5c0.8,0,1.5,0.7,1.5,1.5
				C5.5,11.8,4.8,12.5,4,12.5z"/>
			<circle cx="4" cy="4" r="0.5"/>
			<circle cx="4" cy="18" r="0.5"/>
			<circle cx="4" cy="11" r="0.5"/>
		</g>
		<path d="M17.5,11c-3.6,0-6.5,2.9-6.5,6.5s2.9,6.5,6.5,6.5s6.5-2.9,6.5-6.5S21.1,11,17.5,11z M13.8,16.3c0.6-1.6,2.1-2.7,3.8-2.7
			c1.1,0,2.2,0.5,3,1.2v-0.3c0-0.3,0.2-0.5,0.5-0.5c0.3,0,0.5,0.2,0.5,0.5v1.9c0,0.3-0.2,0.5-0.5,0.5h-1.9c-0.3,0-0.5-0.2-0.5-0.5
			c0-0.3,0.2-0.5,0.5-0.5h1.1c-0.6-0.8-1.6-1.3-2.6-1.3c-1.3,0-2.4,0.8-2.8,2c-0.1,0.2-0.3,0.3-0.5,0.3c-0.1,0-0.1,0-0.2,0
			C13.8,16.9,13.7,16.6,13.8,16.3z M21.7,19c-0.6,1.6-2.1,2.7-3.8,2.7c-1.1,0-2.2-0.5-3-1.2v0.3c0,0.3-0.2,0.5-0.5,0.5
			c-0.3,0-0.5-0.2-0.5-0.5v-1.9c0-0.3,0.2-0.5,0.5-0.5h1.9c0.3,0,0.5,0.2,0.5,0.5c0,0.3-0.2,0.5-0.5,0.5h-1.1
			c0.6,0.8,1.6,1.3,2.6,1.3c1.3,0,2.4-0.8,2.8-2c0.1-0.3,0.4-0.4,0.6-0.3C21.6,18.4,21.8,18.7,21.7,19z"/>
	</g>
</g>
<g id="Outline_Icons">
	<g>
		<path class="st2" d="M21.5,6.5c0,0.6-0.4,1-1,1h-19c-0.6,0-1-0.4-1-1v-5c0-0.6,0.4-1,1-1h19c0.6,0,1,0.4,1,1V6.5z"/>
		<line class="st2" x1="8" y1="5.5" x2="18" y2="5.5"/>
		<line class="st2" x1="8" y1="3.5" x2="18" y2="3.5"/>
		<circle class="st2" cx="4" cy="4" r="1"/>
		<path class="st2" d="M9,14.5H1.5c-0.6,0-1-0.4-1-1v-5c0-0.6,0.4-1,1-1h19c0.6,0,1,0.4,1,1V11"/>
		<line class="st2" x1="8" y1="12.5" x2="10" y2="12.5"/>
		<line class="st2" x1="8" y1="10.5" x2="11" y2="10.5"/>
		<circle class="st2" cx="4" cy="11" r="1"/>
		<path class="st2" d="M10,21.5H1.5c-0.6,0-1-0.4-1-1v-5c0-0.6,0.4-1,1-1H9"/>
		<circle class="st2" cx="4" cy="18" r="1"/>
		<g>
			<polyline class="st2" points="22.5,14 22.5,16.5 20,16.5 			"/>
			<path class="st2" d="M13.8,16.5c0.6-1.7,2.3-3,4.2-3s3.8,1.2,4.5,3"/>
			<g>
				<polyline class="st2" points="14,22 14,19.5 16.5,19.5 				"/>
				<path class="st2" d="M22.7,19.5c-0.6,1.7-2.3,3-4.2,3s-3.8-1.2-4.5-3"/>
			</g>
		</g>
	</g>
</g>
</svg>
