<?xml version="1.0" encoding="utf-8"?>
<!-- Generator: Adobe Illustrator 19.2.0, SVG Export Plug-In . SVG Version: 6.00 Build 0)  -->
<svg version="1.1" id="Layer_1" xmlns="http://www.w3.org/2000/svg" xmlns:xlink="http://www.w3.org/1999/xlink" x="0px" y="0px"
	 viewBox="0 0 24 24" style="enable-background:new 0 0 24 24;" xml:space="preserve">
<style type="text/css">
	.st0{display:none;}
	.st1{display:inline;}
	.st2{fill:none;stroke:#000000;stroke-linecap:round;stroke-linejoin:round;stroke-miterlimit:10;}
</style>
<g id="Filled_Icons" class="st0">
	<g class="st1">
		<circle cx="3.5" cy="14.5" r="0.5"/>
		<circle cx="3.5" cy="8.5" r="0.5"/>
		<circle cx="3.5" cy="20.5" r="0.5"/>
		<path d="M0,17h24v-5H0V17z M20,13.5c0.6,0,1,0.4,1,1c0,0.6-0.4,1-1,1c-0.6,0-1-0.4-1-1C19,13.9,19.4,13.5,20,13.5z M17,13.5
			c0.6,0,1,0.4,1,1c0,0.6-0.4,1-1,1c-0.6,0-1-0.4-1-1C16,13.9,16.4,13.5,17,13.5z M14,13.5c0.6,0,1,0.4,1,1c0,0.6-0.4,1-1,1
			c-0.6,0-1-0.4-1-1C13,13.9,13.4,13.5,14,13.5z M3.5,13C4.3,13,5,13.7,5,14.5C5,15.3,4.3,16,3.5,16C2.7,16,2,15.3,2,14.5
			C2,13.7,2.7,13,3.5,13z"/>
		<path d="M0,21.5C0,22.9,1.1,24,2.5,24h19c1.4,0,2.5-1.1,2.5-2.5V18H0V21.5z M20,19.5c0.6,0,1,0.4,1,1c0,0.6-0.4,1-1,1
			c-0.6,0-1-0.4-1-1C19,19.9,19.4,19.5,20,19.5z M17,19.5c0.6,0,1,0.4,1,1c0,0.6-0.4,1-1,1c-0.6,0-1-0.4-1-1
			C16,19.9,16.4,19.5,17,19.5z M14,19.5c0.6,0,1,0.4,1,1c0,0.6-0.4,1-1,1c-0.6,0-1-0.4-1-1C13,19.9,13.4,19.5,14,19.5z M3.5,19
			C4.3,19,5,19.7,5,20.5C5,21.3,4.3,22,3.5,22C2.7,22,2,21.3,2,20.5C2,19.7,2.7,19,3.5,19z"/>
		<path d="M0,6v5h24V6H0z M3.5,10C2.7,10,2,9.3,2,8.5C2,7.7,2.7,7,3.5,7C4.3,7,5,7.7,5,8.5C5,9.3,4.3,10,3.5,10z M14,9.5
			c-0.6,0-1-0.4-1-1c0-0.6,0.4-1,1-1c0.6,0,1,0.4,1,1C15,9.1,14.6,9.5,14,9.5z M17,9.5c-0.6,0-1-0.4-1-1c0-0.6,0.4-1,1-1
			c0.6,0,1,0.4,1,1C18,9.1,17.6,9.5,17,9.5z M20,9.5c-0.6,0-1-0.4-1-1c0-0.6,0.4-1,1-1c0.6,0,1,0.4,1,1C21,9.1,20.6,9.5,20,9.5z"/>
		<path d="M17.8,0.1C17.7,0,17.6,0,17.5,0h-11C6.4,0,6.3,0,6.2,0.1L0.3,5h23.4L17.8,0.1z"/>
	</g>
</g>
<g id="Outline_Icons">
	<g>
		<rect x="0.5" y="5.5" class="st2" width="23" height="6"/>
		<polyline class="st2" points="0.5,5.5 6.5,0.5 17.5,0.5 23.5,5.5 		"/>
		<circle class="st2" cx="14" cy="8.5" r="0.5"/>
		<circle class="st2" cx="17" cy="8.5" r="0.5"/>
		<circle class="st2" cx="20" cy="8.5" r="0.5"/>
		<circle class="st2" cx="3.5" cy="8.5" r="1"/>
		<polyline class="st2" points="0.5,11.5 0.5,17.5 23.5,17.5 23.5,11.5 		"/>
		<circle class="st2" cx="14" cy="14.5" r="0.5"/>
		<circle class="st2" cx="17" cy="14.5" r="0.5"/>
		<circle class="st2" cx="20" cy="14.5" r="0.5"/>
		<circle class="st2" cx="3.5" cy="14.5" r="1"/>
		<path class="st2" d="M23.5,17.5v4c0,1.1-0.9,2-2,2h-19c-1.1,0-2-0.9-2-2v-4"/>
		<circle class="st2" cx="14" cy="20.5" r="0.5"/>
		<circle class="st2" cx="17" cy="20.5" r="0.5"/>
		<circle class="st2" cx="20" cy="20.5" r="0.5"/>
		<circle class="st2" cx="3.5" cy="20.5" r="1"/>
	</g>
</g>
</svg>
