<?xml version="1.0" encoding="utf-8"?>
<!-- Generator: Adobe Illustrator 19.2.0, SVG Export Plug-In . SVG Version: 6.00 Build 0)  -->
<svg version="1.1" id="Layer_1" xmlns="http://www.w3.org/2000/svg" xmlns:xlink="http://www.w3.org/1999/xlink" x="0px" y="0px"
	 viewBox="0 0 24 24" style="enable-background:new 0 0 24 24;" xml:space="preserve">
<style type="text/css">
	.st0{display:none;}
	.st1{display:inline;}
	.st2{fill:none;stroke:#000000;stroke-linecap:round;stroke-linejoin:round;stroke-miterlimit:10;}
</style>
<g id="Filled_Icons" class="st0">
	<g class="st1">
		<path d="M15.4,12.9c-1.7,0.4-3.6,0.6-5.4,0.6c-4,0-8.1-1-10-2.6v2.6C0,15.1,4.5,17,10,17c1,0,2-0.1,2.9-0.2v-0.7
			c0-0.6,0.5-0.9,0.9-0.9h0.7C14.5,14.4,14.9,13.6,15.4,12.9z"/>
		<path d="M10,12.5c4.6,0,8.6-1.3,10-2.6V6.7C17.9,8.1,13.8,9,10,9C6,9,1.9,8,0,6.4V9C0,10.6,4.5,12.5,10,12.5z"/>
		<path d="M10,8c4.6,0,8.6-1.3,10-2.6V4.5C20,2,15.6,0,10,0C4.4,0,0,2,0,4.5C0,6.1,4.5,8,10,8z"/>
		<path d="M0,15.4v2.1C0,20,4.4,22,10,22c1,0,2-0.1,2.9-0.2v-4C11.9,17.9,11,18,10,18C6,18,1.9,17,0,15.4z"/>
		<path d="M23.5,16h-0.7v-0.5c0-1.9-1.9-3.8-3.8-3.8c-1.9,0-3.8,1.9-3.8,3.8V16h-0.7c-0.3,0-0.5,0.2-0.5,0.5v7
			c0,0.3,0.2,0.5,0.5,0.5h9c0.3,0,0.5-0.2,0.5-0.5v-7C24,16.2,23.8,16,23.5,16z M19.6,19.8C19.6,19.8,19.5,19.8,19.6,19.8l-0.1,1.9
			c0,0.3-0.2,0.5-0.5,0.5c-0.3,0-0.5-0.2-0.5-0.5v-1.8c-0.2-0.1-0.3-0.4-0.3-0.6c0-0.2,0.1-0.4,0.2-0.6c0.2-0.2,0.4-0.2,0.6-0.2l0,0
			c0.5,0,0.8,0.4,0.8,0.8C19.8,19.4,19.7,19.6,19.6,19.8z M21.8,16.1h-5.5v-0.6c0-1.3,1.4-2.8,2.8-2.8c1.3,0,2.8,1.4,2.8,2.8V16.1z"
			/>
	</g>
</g>
<g id="Outline_Icons">
	<g>
		<g>
			<g>
				<ellipse class="st2" cx="10" cy="4.5" rx="9.5" ry="4"/>
				<path class="st2" d="M10,12.5c-5.2,0-9.5-1.8-9.5-4"/>
				<path class="st2" d="M8.5,16.9c-4.5-0.3-8-2-8-3.9"/>
				<path class="st2" d="M9,21.5c-4.8-0.2-8.5-1.9-8.5-4v-13"/>
			</g>
			<line class="st2" x1="19.5" y1="4.5" x2="19.5" y2="9"/>
		</g>
		<rect x="13.5" y="15.5" class="st2" width="10" height="8"/>
		<line class="st2" x1="18.5" y1="21" x2="18.5" y2="19"/>
		<path class="st2" d="M15.5,15.5v-1c0-1.7,1.3-3,3-3c1.7,0,3,1.3,3,3v1"/>
		<circle class="st2" cx="18.5" cy="18.5" r="0.5"/>
	</g>
</g>
</svg>
