<?xml version="1.0" encoding="utf-8"?>
<!-- Generator: Adobe Illustrator 19.2.0, SVG Export Plug-In . SVG Version: 6.00 Build 0)  -->
<svg version="1.1" id="Layer_1" xmlns="http://www.w3.org/2000/svg" xmlns:xlink="http://www.w3.org/1999/xlink" x="0px" y="0px"
	 viewBox="0 0 24 24" style="enable-background:new 0 0 24 24;" xml:space="preserve">
<style type="text/css">
	.st0{display:none;}
	.st1{display:inline;}
	.st2{fill:none;stroke:#000000;stroke-linejoin:round;stroke-miterlimit:10;}
	.st3{fill:none;stroke:#000000;stroke-linecap:round;stroke-linejoin:round;stroke-miterlimit:10;}
</style>
<g id="Filled_Icons" class="st0">
	<g class="st1">
		<path d="M10,8c4.6,0,8.6-1.3,10-2.6V4.5C20,2,15.6,0,10,0C4.4,0,0,2,0,4.5C0,6.1,4.5,8,10,8z"/>
		<path d="M10,12.5c1.1,0,2.3-0.1,3.3-0.2c1.1-0.8,2.5-1.3,3.9-1.3c0.3,0,0.6,0,0.8,0.1c0.8-0.4,1.5-0.7,1.9-1.1V6.7
			C17.9,8.1,13.8,9,10,9C6,9,1.9,8,0,6.4V9C0,10.6,4.5,12.5,10,12.5z"/>
		<path d="M10,18c-4,0-8.1-1-10-2.6v2.1C0,20,4.4,22,10,22c0.7,0,1.3,0,1.9-0.1c-0.9-1.1-1.4-2.4-1.4-3.9C10.3,18,10.2,18,10,18z"/>
		<path d="M10,17c0.2,0,0.4,0,0.5,0c0.1-1.4,0.7-2.6,1.5-3.6c-0.7,0.1-1.4,0.1-2.1,0.1c-4,0-8.1-1-10-2.6v2.6C0,15.1,4.5,17,10,17z"
			/>
		<path d="M20.2,15.5L15,20.7c0.6,0.5,1.4,0.8,2.3,0.8c2.1,0,3.8-1.7,3.8-3.8C21,16.9,20.7,16.1,20.2,15.5z"/>
		<path d="M17.2,14c-2.1,0-3.8,1.7-3.8,3.8c0,0.9,0.3,1.6,0.8,2.3l5.2-5.2C18.9,14.3,18.1,14,17.2,14z"/>
		<path d="M17.2,12c-3.2,0-5.8,2.6-5.8,5.8c0,3.2,2.6,5.8,5.8,5.8c3.2,0,5.8-2.6,5.8-5.8C23,14.6,20.4,12,17.2,12z M17.2,22.5
			c-2.6,0-4.8-2.1-4.8-4.8c0-2.6,2.1-4.8,4.8-4.8c2.6,0,4.8,2.1,4.8,4.8C22,20.4,19.9,22.5,17.2,22.5z"/>
	</g>
</g>
<g id="Outline_Icons">
	<g>
		<circle class="st2" cx="17.5" cy="17.5" r="6"/>
		<line class="st2" x1="13.3" y1="21.7" x2="21.7" y2="13.3"/>
		<g>
			<g>
				<ellipse class="st3" cx="10" cy="4.5" rx="9.5" ry="4"/>
				<path class="st3" d="M10,12.5c-5.2,0-9.5-1.8-9.5-4"/>
				<path class="st3" d="M8.5,16.9c-4.5-0.3-8-2-8-3.9"/>
				<path class="st3" d="M9,21.5c-4.8-0.2-8.5-1.9-8.5-4v-13"/>
			</g>
			<line class="st3" x1="19.5" y1="4.5" x2="19.5" y2="9"/>
		</g>
	</g>
</g>
</svg>
