<?xml version="1.0" encoding="utf-8"?>
<!-- Generator: Adobe Illustrator 19.2.0, SVG Export Plug-In . SVG Version: 6.00 Build 0)  -->
<svg version="1.1" id="Layer_1" xmlns="http://www.w3.org/2000/svg" xmlns:xlink="http://www.w3.org/1999/xlink" x="0px" y="0px"
	 viewBox="0 0 24 24" style="enable-background:new 0 0 24 24;" xml:space="preserve">
<style type="text/css">
	.st0{display:none;}
	.st1{display:inline;}
	.st2{fill:none;stroke:#000000;stroke-linecap:round;stroke-linejoin:round;stroke-miterlimit:10;}
	.st3{fill:none;stroke:#000000;stroke-linejoin:round;stroke-miterlimit:10;}
</style>
<g id="Filled_Icons" class="st0">
	<g class="st1">
		<path d="M10,0C4.4,0,0,2,0,4.5C0,6.1,4.5,8,10,8c4.6,0,8.6-1.3,10-2.6V4.5C20,2,15.6,0,10,0z"/>
		<path d="M11.2,20.2c-0.4-0.7-0.2-1.6,0.5-2L12,18l-0.1-0.1C11.2,18,10.6,18,10,18c-4,0-8.1-1-10-2.6v2.1C0,20,4.4,22,10,22
			c0.7,0,1.5,0,2.2-0.1L11.2,20.2z"/>
		<path d="M11.2,15.8l1.4-2.4c-0.9,0.1-1.7,0.1-2.6,0.1c-4,0-8.1-1-10-2.6v2.6C0,15.1,4.5,17,10,17c0.4,0,0.7,0,1,0
			C10.9,16.6,11,16.2,11.2,15.8z"/>
		<path d="M16.5,11h1.7c0.8-0.3,1.4-0.7,1.8-1.1V6.7C17.9,8.1,13.8,9,10,9C6,9,1.9,8,0,6.4V9c0,1.6,4.5,3.5,10,3.5
			c1.8,0,3.6-0.2,5.1-0.5C15.3,11.4,15.9,11,16.5,11z"/>
		<path d="M23.8,19L23,18.6c0-0.2,0-0.4,0-0.6c0-0.2,0-0.4,0-0.6l0.8-0.5c0.2-0.1,0.3-0.4,0.2-0.7l-1.5-2.6
			c-0.1-0.1-0.2-0.2-0.3-0.2c-0.1,0-0.3,0-0.4,0.1L21,14c-0.3-0.2-0.6-0.4-1-0.6v-0.9c0-0.3-0.2-0.5-0.5-0.5h-3
			c-0.3,0-0.5,0.2-0.5,0.5v0.9c-0.3,0.1-0.6,0.3-1,0.6l-0.8-0.5c-0.2-0.1-0.5-0.1-0.7,0.2L12,16.3c-0.1,0.2-0.1,0.5,0.2,0.7l0.8,0.5
			c0,0.2,0,0.4,0,0.6c0,0.2,0,0.4,0,0.6L12.2,19c-0.2,0.1-0.3,0.4-0.2,0.7l1.5,2.6c0.1,0.2,0.4,0.3,0.7,0.2L15,22
			c0.3,0.2,0.7,0.4,1,0.6v0.9c0,0.3,0.2,0.5,0.5,0.5h3c0.3,0,0.5-0.2,0.5-0.5v-0.9c0.3-0.2,0.7-0.3,1-0.6l0.8,0.5
			c0.1,0.1,0.3,0.1,0.4,0.1c0.1,0,0.2-0.1,0.3-0.2l1.5-2.6C24.1,19.5,24,19.2,23.8,19z M18,20c-1.1,0-2-0.9-2-2c0-1.1,0.9-2,2-2
			c1.1,0,2,0.9,2,2C20,19.1,19.1,20,18,20z"/>
	</g>
</g>
<g id="Outline_Icons">
	<g>
		<g>
			<g>
				<ellipse class="st2" cx="10" cy="4.5" rx="9.5" ry="4"/>
				<path class="st2" d="M11.5,12.4c-0.5,0-1,0.1-1.5,0.1c-5.2,0-9.5-1.8-9.5-4"/>
				<path class="st2" d="M10,17c-5.2,0-9.5-1.8-9.5-4"/>
				<path class="st2" d="M10,21.5c-5.2,0-9.5-1.8-9.5-4v-13"/>
			</g>
			<line class="st2" x1="19.5" y1="4.5" x2="19.5" y2="10"/>
		</g>
		<g>
			<path class="st3" d="M16.5,13.8c-0.5,0.2-1,0.5-1.4,0.8L14,14l-1.5,2.6l1.1,0.6c0,0.3-0.1,0.5-0.1,0.8c0,0.3,0,0.6,0.1,0.8
				l-1.1,0.6L14,22l1.1-0.6c0.4,0.4,0.9,0.6,1.4,0.8v1.3h3v-1.3c0.5-0.2,1-0.5,1.4-0.8L22,22l1.5-2.6l-1.1-0.6
				c0-0.3,0.1-0.5,0.1-0.8c0-0.3,0-0.6-0.1-0.8l1.1-0.6L22,14l-1.1,0.6c-0.4-0.4-0.9-0.6-1.4-0.8v-1.3h-3V13.8z"/>
		</g>
		<circle class="st3" cx="18" cy="18" r="2"/>
	</g>
</g>
</svg>
