<?xml version="1.0" encoding="utf-8"?>
<!-- Generator: Adobe Illustrator 19.2.0, SVG Export Plug-In . SVG Version: 6.00 Build 0)  -->
<svg version="1.1" id="Layer_1" xmlns="http://www.w3.org/2000/svg" xmlns:xlink="http://www.w3.org/1999/xlink" x="0px" y="0px"
	 viewBox="0 0 24 24" style="enable-background:new 0 0 24 24;" xml:space="preserve">
<style type="text/css">
	.st0{display:none;}
	.st1{display:inline;}
	.st2{fill:none;stroke:#000000;stroke-linecap:round;stroke-linejoin:round;stroke-miterlimit:10;}
</style>
<g id="Filled_Icons" class="st0">
	<g class="st1">
		<path d="M1,7H0v5.5C0,12.8,0.2,13,0.5,13H12v5H5.5C5.2,18,5,18.2,5,18.5C5,18.8,5.2,19,5.5,19h13c0.3,0,0.5-0.2,0.5-0.5
			c0-0.3-0.2-0.5-0.5-0.5H13v-5h10.5c0.3,0,0.5-0.2,0.5-0.5V7h-1H1z M20,8.5c0.6,0,1,0.4,1,1c0,0.6-0.4,1-1,1c-0.6,0-1-0.4-1-1
			C19,8.9,19.4,8.5,20,8.5z M17,8.5c0.6,0,1,0.4,1,1c0,0.6-0.4,1-1,1c-0.6,0-1-0.4-1-1C16,8.9,16.4,8.5,17,8.5z M14,8.5
			c0.6,0,1,0.4,1,1c0,0.6-0.4,1-1,1c-0.6,0-1-0.4-1-1C13,8.9,13.4,8.5,14,8.5z M3.5,8C4.3,8,5,8.7,5,9.5C5,10.3,4.3,11,3.5,11
			C2.7,11,2,10.3,2,9.5C2,8.7,2.7,8,3.5,8z"/>
		<circle cx="3.5" cy="9.5" r="0.5"/>
		<circle cx="3.5" cy="3.5" r="0.5"/>
		<path d="M23.5,0h-23C0.2,0,0,0.2,0,0.5V6h1h22h1V0.5C24,0.2,23.8,0,23.5,0z M3.5,5C2.7,5,2,4.3,2,3.5C2,2.7,2.7,2,3.5,2
			C4.3,2,5,2.7,5,3.5C5,4.3,4.3,5,3.5,5z M14,4.5c-0.6,0-1-0.4-1-1c0-0.6,0.4-1,1-1c0.6,0,1,0.4,1,1C15,4.1,14.6,4.5,14,4.5z
			 M17,4.5c-0.6,0-1-0.4-1-1c0-0.6,0.4-1,1-1c0.6,0,1,0.4,1,1C18,4.1,17.6,4.5,17,4.5z M20,4.5c-0.6,0-1-0.4-1-1c0-0.6,0.4-1,1-1
			c0.6,0,1,0.4,1,1C21,4.1,20.6,4.5,20,4.5z"/>
		<circle cx="1.5" cy="18.5" r="0.5"/>
		<circle cx="3.5" cy="18.5" r="0.5"/>
		<circle cx="20.5" cy="18.5" r="0.5"/>
		<circle cx="22.5" cy="18.5" r="0.5"/>
	</g>
</g>
<g id="Outline_Icons">
	<g>
		<rect x="0.5" y="0.5" class="st2" width="23" height="6"/>
		<circle class="st2" cx="14" cy="3.5" r="0.5"/>
		<circle class="st2" cx="17" cy="3.5" r="0.5"/>
		<circle class="st2" cx="20" cy="3.5" r="0.5"/>
		<circle class="st2" cx="3.5" cy="3.5" r="1"/>
		<polyline class="st2" points="0.5,6.5 0.5,12.5 23.5,12.5 23.5,6.5 		"/>
		<circle class="st2" cx="14" cy="9.5" r="0.5"/>
		<circle class="st2" cx="17" cy="9.5" r="0.5"/>
		<circle class="st2" cx="20" cy="9.5" r="0.5"/>
		<circle class="st2" cx="3.5" cy="9.5" r="1"/>
		<line class="st2" x1="5.5" y1="18.5" x2="18.5" y2="18.5"/>
		<line class="st2" x1="12.5" y1="12.5" x2="12.5" y2="18.5"/>
		<g>
			<g>
				<g>
					<path d="M1.5,18C1.2,18,1,18.2,1,18.5C1,18.8,1.2,19,1.5,19C1.8,19,2,18.8,2,18.5C2,18.2,1.8,18,1.5,18L1.5,18z"/>
				</g>
			</g>
		</g>
		<g>
			<g>
				<g>
					<path d="M3.5,18C3.2,18,3,18.2,3,18.5C3,18.8,3.2,19,3.5,19C3.8,19,4,18.8,4,18.5C4,18.2,3.8,18,3.5,18L3.5,18z"/>
				</g>
			</g>
		</g>
		<g>
			<g>
				<g>
					<path d="M20.5,18c-0.3,0-0.5,0.2-0.5,0.5c0,0.3,0.2,0.5,0.5,0.5c0.3,0,0.5-0.2,0.5-0.5C21,18.2,20.8,18,20.5,18L20.5,18z"/>
				</g>
			</g>
		</g>
		<g>
			<g>
				<g>
					<path d="M22.5,18c-0.3,0-0.5,0.2-0.5,0.5c0,0.3,0.2,0.5,0.5,0.5c0.3,0,0.5-0.2,0.5-0.5C23,18.2,22.8,18,22.5,18L22.5,18z"/>
				</g>
			</g>
		</g>
	</g>
</g>
</svg>
