<?xml version="1.0" encoding="utf-8"?>
<!-- Generator: Adobe Illustrator 19.2.0, SVG Export Plug-In . SVG Version: 6.00 Build 0)  -->
<svg version="1.1" id="Layer_1" xmlns="http://www.w3.org/2000/svg" xmlns:xlink="http://www.w3.org/1999/xlink" x="0px" y="0px"
	 viewBox="0 0 24 24" style="enable-background:new 0 0 24 24;" xml:space="preserve">
<style type="text/css">
	.st0{display:none;}
	.st1{display:inline;}
	.st2{fill:none;stroke:#000000;stroke-linecap:round;stroke-linejoin:round;stroke-miterlimit:10;}
	.st3{fill:none;stroke:#000000;stroke-linejoin:round;stroke-miterlimit:10;}
</style>
<g id="Filled_Icons" class="st0">
	<g class="st1">
		<path d="M10,0C4.4,0,0,2,0,4.5C0,6.1,4.5,8,10,8c4.6,0,8.6-1.3,10-2.6V4.5C20,2,15.6,0,10,0z"/>
		<path d="M10,18C10,18,10,18,10,18c-4,0-8.2-1-10-2.6v2.1C0,20,4.4,22,10,22c0.5,0,1,0,1.5-0.1C10.6,20.8,10.1,19.5,10,18z"/>
		<path d="M10,17c0.1-1.3,0.5-2.5,1.2-3.5c-0.4,0-0.8,0-1.2,0c-4,0-8.1-1-10-2.6v2.6C0,15.1,4.5,17,10,17C10,17,10,17,10,17z"/>
		<path d="M12,12.4c1.4-1.5,3.3-2.4,5.5-2.4c0.7,0,1.4,0.1,2,0.3c0.2-0.1,0.4-0.3,0.5-0.4V6.7C17.9,8.1,13.8,9,10,9C6,9,1.9,8,0,6.4
			V9c0,1.6,4.5,3.5,10,3.5C10.7,12.5,11.4,12.5,12,12.4z"/>
		<path d="M17.5,11C13.9,11,11,14,11,17.5c0,3.6,2.9,6.5,6.5,6.5s6.5-2.9,6.5-6.5C24,14,21.1,11,17.5,11z M17.5,17
			c1,0,1.9,0.8,1.9,1.9c0,0.9-0.6,1.6-1.4,1.8v0.5c0,0.3-0.2,0.5-0.5,0.5c-0.3,0-0.5-0.2-0.5-0.5v-0.5c-0.8-0.2-1.4-0.9-1.4-1.8
			c0-0.3,0.2-0.5,0.5-0.5c0.3,0,0.5,0.2,0.5,0.5c0,0.5,0.4,0.9,0.9,0.9c0.5,0,0.9-0.4,0.9-0.9c0-0.5-0.4-0.9-0.9-0.9
			c-1,0-1.9-0.8-1.9-1.9c0-0.9,0.6-1.6,1.4-1.8v-0.5c0-0.3,0.2-0.5,0.5-0.5c0.3,0,0.5,0.2,0.5,0.5v0.5c0.8,0.2,1.4,0.9,1.4,1.8
			c0,0.3-0.2,0.5-0.5,0.5c-0.3,0-0.5-0.2-0.5-0.5c0-0.5-0.4-0.9-0.9-0.9c-0.5,0-0.9,0.4-0.9,0.9C16.6,16.6,17,17,17.5,17z"/>
	</g>
</g>
<g id="Outline_Icons">
	<g>
		<g>
			<g>
				<ellipse class="st2" cx="10" cy="4.5" rx="9.5" ry="4"/>
				<path class="st2" d="M10,12.5c-5.2,0-9.5-1.8-9.5-4"/>
				<path class="st2" d="M8.5,16.9c-4.5-0.3-8-2-8-3.9"/>
				<path class="st2" d="M9,21.5c-4.8-0.2-8.5-1.9-8.5-4v-13"/>
			</g>
			<line class="st2" x1="19.5" y1="4.5" x2="19.5" y2="9"/>
		</g>
		<g>
			<circle class="st3" cx="17.5" cy="17.5" r="6"/>
			<g>
				<path class="st2" d="M16.1,18.9c0,0.8,0.6,1.4,1.4,1.4c0.8,0,1.4-0.6,1.4-1.4c0-0.8-0.6-1.4-1.4-1.4c-0.8,0-1.4-0.6-1.4-1.4
					c0-0.8,0.6-1.4,1.4-1.4c0.8,0,1.4,0.6,1.4,1.4"/>
				<line class="st2" x1="17.5" y1="20.2" x2="17.5" y2="21.2"/>
				<line class="st2" x1="17.5" y1="13.8" x2="17.5" y2="14.7"/>
			</g>
		</g>
	</g>
</g>
</svg>
