<?xml version="1.0" encoding="utf-8"?>
<!-- Generator: Adobe Illustrator 19.2.0, SVG Export Plug-In . SVG Version: 6.00 Build 0)  -->
<svg version="1.1" id="Layer_1" xmlns="http://www.w3.org/2000/svg" xmlns:xlink="http://www.w3.org/1999/xlink" x="0px" y="0px"
	 viewBox="0 0 24 24" style="enable-background:new 0 0 24 24;" xml:space="preserve">
<style type="text/css">
	.st0{display:none;}
	.st1{display:inline;}
	.st2{fill:none;stroke:#000000;stroke-linecap:round;stroke-linejoin:round;stroke-miterlimit:10;}
</style>
<g id="Filled_Icons" class="st0">
	<g class="st1">
		<path d="M10,0C4.4,0,0,2,0,4.5C0,6.1,4.5,8,10,8c4.6,0,8.6-1.3,10-2.6V4.5C20,2,15.6,0,10,0z"/>
		<path d="M0,6.4V9c0,1.6,4.5,3.5,10,3.5c4.6,0,8.6-1.3,10-2.6V6.7C17.9,8.1,13.8,9,10,9C6,9,1.9,8,0,6.4z"/>
		<path d="M0,10.9v2.6C0,15.1,4.5,17,10,17c4.6,0,8.6-1.3,10-2.6v-3.3c-2.1,1.4-6.2,2.3-10,2.3C6,13.5,1.9,12.5,0,10.9z"/>
		<path d="M0,15.4v2.1C0,20,4.4,22,10,22c5.6,0,10-2,10-4.5v-1.8c-2.1,1.4-6.2,2.3-10,2.3C6,18,1.9,17,0,15.4z"/>
	</g>
</g>
<g id="Outline_Icons">
	<g>
		<ellipse class="st2" cx="10" cy="4.5" rx="9.5" ry="4"/>
		<path class="st2" d="M19.5,8.5c0,2.2-4.3,4-9.5,4c-5.2,0-9.5-1.8-9.5-4"/>
		<path class="st2" d="M19.5,13c0,2.2-4.3,4-9.5,4c-5.2,0-9.5-1.8-9.5-4"/>
		<path class="st2" d="M0.5,4.5v13c0,2.2,4.3,4,9.5,4c5.2,0,9.5-1.8,9.5-4v-13"/>
	</g>
</g>
</svg>
