<?xml version="1.0" encoding="utf-8"?>
<!-- Generator: Adobe Illustrator 19.2.0, SVG Export Plug-In . SVG Version: 6.00 Build 0)  -->
<svg version="1.1" id="Layer_1" xmlns="http://www.w3.org/2000/svg" xmlns:xlink="http://www.w3.org/1999/xlink" x="0px" y="0px"
	 viewBox="0 0 24 24" style="enable-background:new 0 0 24 24;" xml:space="preserve">
<style type="text/css">
	.st0{display:none;}
	.st1{display:inline;}
	.st2{fill:none;stroke:#000000;stroke-linecap:round;stroke-linejoin:round;stroke-miterlimit:10;}
</style>
<g id="Filled_Icons" class="st0">
	<g class="st1">
		<circle cx="4" cy="4" r="0.5"/>
		<circle cx="4" cy="18" r="0.5"/>
		<circle cx="4" cy="11" r="0.5"/>
		<path d="M22,7c0,0,0-5.5,0-5.5C22,0.7,21.3,0,20.5,0h-19C0.7,0,0,0.7,0,1.5C0,1.5,0,7,0,7H22z M8,3h10c0.3,0,0.5,0.2,0.5,0.5
			C18.5,3.8,18.3,4,18,4H8C7.7,4,7.5,3.8,7.5,3.5C7.5,3.2,7.7,3,8,3z M8,5h10c0.3,0,0.5,0.2,0.5,0.5C18.5,5.8,18.3,6,18,6H8
			C7.7,6,7.5,5.8,7.5,5.5C7.5,5.2,7.7,5,8,5z M4,2.5c0.8,0,1.5,0.7,1.5,1.5c0,0.8-0.7,1.5-1.5,1.5C3.2,5.5,2.5,4.8,2.5,4
			C2.5,3.2,3.2,2.5,4,2.5z"/>
		<g>
			<path d="M12.1,20H8c-0.3,0-0.5-0.2-0.5-0.5C7.5,19.2,7.7,19,8,19h4.6l0.5-1H8c-0.3,0-0.5-0.2-0.5-0.5C7.5,17.2,7.7,17,8,17h5.6
				l1-2H0c0,0,0,5.5,0,5.5C0,21.3,0.7,22,1.5,22h9.6L12.1,20z M4,19.5c-0.8,0-1.5-0.7-1.5-1.5c0-0.8,0.7-1.5,1.5-1.5
				c0.8,0,1.5,0.7,1.5,1.5C5.5,18.8,4.8,19.5,4,19.5z"/>
		</g>
		<path d="M15.6,13H8c-0.3,0-0.5-0.2-0.5-0.5C7.5,12.2,7.7,12,8,12h8.1l0.1-0.2c0.3-0.5,0.8-0.8,1.3-0.8H8c-0.3,0-0.5-0.2-0.5-0.5
			C7.5,10.2,7.7,10,8,10h10c0.3,0,0.5,0.2,0.5,0.5c0,0.3-0.2,0.5-0.5,0.5h-0.5c0.6,0,1.1,0.3,1.3,0.8l1.1,2.2H22c0,0,0-6,0-6H0
			c0,0,0,6,0,6h15.1L15.6,13z M4,12.5c-0.8,0-1.5-0.7-1.5-1.5c0-0.8,0.7-1.5,1.5-1.5c0.8,0,1.5,0.7,1.5,1.5
			C5.5,11.8,4.8,12.5,4,12.5z"/>
		<path d="M23.4,23.2l-5.4-10.9c-0.2-0.3-0.7-0.3-0.9,0l-5.5,11c-0.1,0.2-0.1,0.3,0,0.5c0.1,0.1,0.3,0.2,0.4,0.2h11c0,0,0,0,0,0
			c0.3,0,0.5-0.2,0.5-0.5C23.5,23.4,23.5,23.3,23.4,23.2z"/>
		<g>
			<path d="M17.5,20.5c-0.3,0-0.5-0.2-0.5-0.5v-3c0-0.3,0.2-0.5,0.5-0.5c0.3,0,0.5,0.2,0.5,0.5v3C18,20.3,17.8,20.5,17.5,20.5z"/>
		</g>
		<g>
			<g>
				<path d="M17.5,21c-0.3,0-0.5,0.2-0.5,0.5c0,0.3,0.2,0.5,0.5,0.5c0.3,0,0.5-0.2,0.5-0.5C18,21.2,17.8,21,17.5,21L17.5,21z"/>
			</g>
		</g>
	</g>
</g>
<g id="Outline_Icons">
	<g>
		<polygon class="st2" points="23,23.5 12,23.5 17.5,12.5 		"/>
		<line class="st2" x1="17.5" y1="17" x2="17.5" y2="20"/>
		<g>
			<g>
				<g>
					<path d="M17.5,21c-0.3,0-0.5,0.2-0.5,0.5c0,0.3,0.2,0.5,0.5,0.5c0.3,0,0.5-0.2,0.5-0.5C18,21.2,17.8,21,17.5,21L17.5,21z"/>
				</g>
			</g>
		</g>
		<path class="st2" d="M21.5,6.5c0,0.6-0.4,1-1,1h-19c-0.6,0-1-0.4-1-1v-5c0-0.6,0.4-1,1-1h19c0.6,0,1,0.4,1,1V6.5z"/>
		<line class="st2" x1="8" y1="5.5" x2="18" y2="5.5"/>
		<line class="st2" x1="8" y1="3.5" x2="18" y2="3.5"/>
		<circle class="st2" cx="4" cy="4" r="1"/>
		<path class="st2" d="M11,14.5H1.5c-0.6,0-1-0.4-1-1v-5c0-0.6,0.4-1,1-1h19c0.6,0,1,0.4,1,1V11"/>
		<line class="st2" x1="8" y1="12.5" x2="11" y2="12.5"/>
		<line class="st2" x1="8" y1="10.5" x2="14" y2="10.5"/>
		<circle class="st2" cx="4" cy="11" r="1"/>
		<path class="st2" d="M10,21.5H1.5c-0.6,0-1-0.4-1-1v-5c0-0.6,0.4-1,1-1H11"/>
		<circle class="st2" cx="4" cy="18" r="1"/>
	</g>
</g>
</svg>
