<?xml version="1.0" encoding="utf-8"?>
<!-- Generator: Adobe Illustrator 19.2.0, SVG Export Plug-In . SVG Version: 6.00 Build 0)  -->
<svg version="1.1" id="Layer_1" xmlns="http://www.w3.org/2000/svg" xmlns:xlink="http://www.w3.org/1999/xlink" x="0px" y="0px"
	 viewBox="0 0 24 24" style="enable-background:new 0 0 24 24;" xml:space="preserve">
<style type="text/css">
	.st0{display:none;}
	.st1{display:inline;}
	.st2{fill:none;stroke:#000000;stroke-linecap:round;stroke-linejoin:round;stroke-miterlimit:10;}
</style>
<g id="Filled_Icons" class="st0">
	<g class="st1">
		<path d="M10,17c0.6,0,1.1,0,1.6-0.1c0.3-1.5,1.1-2.8,2.1-3.7c-1.2,0.2-2.5,0.3-3.8,0.3c-4,0-8.1-1-10-2.6v2.6C0,15.1,4.5,17,10,17
			z"/>
		<path d="M10,8c4.6,0,8.6-1.3,10-2.6V4.5C20,2,15.6,0,10,0C4.4,0,0,2,0,4.5C0,6.1,4.5,8,10,8z"/>
		<path d="M10,12.5c4.6,0,8.6-1.3,10-2.6V6.7C17.9,8.1,13.8,9,10,9C6,9,1.9,8,0,6.4V9C0,10.6,4.5,12.5,10,12.5z"/>
		<path d="M11.5,18c-0.5,0-1,0-1.5,0c-4,0-8.1-1-10-2.6v2.1C0,20,4.4,22,10,22c0.9,0,1.7-0.1,2.6-0.1c-0.7-1-1.1-2.3-1.1-3.6
			C11.5,18.2,11.5,18.1,11.5,18z"/>
		<path d="M18.2,12.5c-3.2,0-5.8,2.6-5.8,5.8c0,3.2,2.6,5.8,5.8,5.8c3.2,0,5.8-2.6,5.8-5.8C24,15.1,21.4,12.5,18.2,12.5z M21.9,17.4
			c-0.1,0.2-0.3,0.4-0.6,0.4l-1.9-0.5c-0.3-0.1-0.4-0.3-0.4-0.6c0.1-0.3,0.3-0.4,0.6-0.4l0.9,0.2c-0.3-0.4-0.6-0.7-1-0.9
			c-0.7-0.4-1.5-0.5-2.3-0.3c-0.8,0.2-1.4,0.7-1.8,1.5c-0.4,0.7-0.5,1.5-0.3,2.3c0.2,0.8,0.7,1.4,1.4,1.8c0.7,0.4,1.5,0.5,2.3,0.3
			c0.3-0.1,0.5,0.1,0.6,0.3c0.1,0.3-0.1,0.5-0.3,0.6c-0.4,0.1-0.8,0.2-1.1,0.2c-0.7,0-1.3-0.2-1.9-0.5c-0.9-0.5-1.6-1.4-1.9-2.4
			c-0.3-1-0.2-2.1,0.3-3.1c0.5-0.9,1.4-1.6,2.4-1.9c1-0.3,2.1-0.2,3.1,0.3c0.5,0.3,1,0.7,1.3,1.1l0.2-0.6c0.1-0.3,0.3-0.4,0.6-0.4
			c0.3,0.1,0.4,0.3,0.4,0.6L21.9,17.4z"/>
	</g>
</g>
<g id="Outline_Icons">
	<g>
		<g>
			<g>
				<ellipse class="st2" cx="10" cy="4.5" rx="9.5" ry="4"/>
				<path class="st2" d="M11.5,12.4c-0.5,0-1,0.1-1.5,0.1c-5.2,0-9.5-1.8-9.5-4"/>
				<path class="st2" d="M10,17c-5.2,0-9.5-1.8-9.5-4"/>
				<path class="st2" d="M10,21.5c-5.2,0-9.5-1.8-9.5-4v-13"/>
			</g>
			<line class="st2" x1="19.5" y1="4.5" x2="19.5" y2="10"/>
		</g>
		<g>
			<path class="st2" d="M19.4,23.3c-2.7,0.8-5.4-0.8-6.2-3.4c-0.8-2.6,0.8-5.4,3.4-6.2c2.6-0.8,5.4,0.8,6.2,3.4"/>
			<polyline class="st2" points="23.5,14.4 22.8,17.1 20.1,16.4 			"/>
		</g>
	</g>
</g>
</svg>
