<?xml version="1.0" encoding="utf-8"?>
<!-- Generator: Adobe Illustrator 19.2.0, SVG Export Plug-In . SVG Version: 6.00 Build 0)  -->
<svg version="1.1" id="Layer_1" xmlns="http://www.w3.org/2000/svg" xmlns:xlink="http://www.w3.org/1999/xlink" x="0px" y="0px"
	 viewBox="0 0 24 24" style="enable-background:new 0 0 24 24;" xml:space="preserve">
<style type="text/css">
	.st0{display:none;}
	.st1{display:inline;}
	.st2{fill:none;stroke:#000000;stroke-linecap:round;stroke-linejoin:round;stroke-miterlimit:10;}
</style>
<g id="Filled_Icons" class="st0">
	<g class="st1">
		<path d="M10,0C4.4,0,0,2,0,4.5C0,6.1,4.5,8,10,8c4.6,0,8.6-1.3,10-2.6V4.5C20,2,15.6,0,10,0z"/>
		<path d="M0,6.4V9c0,1.6,4.5,3.5,10,3.5c4.6,0,8.6-1.3,10-2.6V6.7C17.9,8.1,13.8,9,10,9C6,9,1.9,8,0,6.4z"/>
		<g>
			<path d="M10,18.5c0-0.2,0-0.3,0.1-0.5c0,0,0,0-0.1,0c-4,0-8.1-1-10-2.6v2.1C0,20,4.4,22,10,22c0.9,0,1.7-0.1,2.5-0.1
				C11.1,21.4,10,20.1,10,18.5z"/>
		</g>
		<path d="M10.4,17c0.6-1.2,1.8-2,3.1-2c0.8,0,1.5,0.3,2.1,0.8l2.4-1.2c0,0,0,0,0-0.1c0-1.4,0.8-2.6,2-3.1v-0.2
			c-2.1,1.4-6.2,2.3-10,2.3c-4,0-8.1-1-10-2.6v2.6C0,15.1,4.5,17,10,17C10.1,17,10.2,17,10.4,17z"/>
		<path d="M21.5,19c-0.9,0-1.7,0.5-2.1,1.2L16,18.9c0-0.1,0-0.3,0-0.4c0-0.2,0-0.4-0.1-0.6l3.6-1.8c0.5,0.6,1.2,1,2,1
			c1.4,0,2.5-1.1,2.5-2.5c0-1.4-1.1-2.5-2.5-2.5c-1.4,0-2.5,1.1-2.5,2.5c0,0.2,0,0.4,0.1,0.6L15.5,17c-0.5-0.6-1.2-1-2-1
			c-1.4,0-2.5,1.1-2.5,2.5c0,1.4,1.1,2.5,2.5,2.5c0.9,0,1.7-0.5,2.1-1.2l3.4,1.3c0,0.1,0,0.3,0,0.4c0,1.4,1.1,2.5,2.5,2.5
			c1.4,0,2.5-1.1,2.5-2.5C24,20.1,22.9,19,21.5,19z M21.5,13c0.8,0,1.5,0.7,1.5,1.5c0,0.8-0.7,1.5-1.5,1.5c-0.8,0-1.5-0.7-1.5-1.5
			C20,13.7,20.7,13,21.5,13z M13.5,20c-0.8,0-1.5-0.7-1.5-1.5c0-0.8,0.7-1.5,1.5-1.5c0.8,0,1.5,0.7,1.5,1.5C15,19.3,14.3,20,13.5,20
			z M21.5,23c-0.8,0-1.5-0.7-1.5-1.5c0-0.8,0.7-1.5,1.5-1.5c0.8,0,1.5,0.7,1.5,1.5C23,22.3,22.3,23,21.5,23z"/>
	</g>
</g>
<g id="Outline_Icons">
	<g>
		<g>
			<g>
				<ellipse class="st2" cx="10" cy="4.5" rx="9.5" ry="4"/>
				<path class="st2" d="M10,12.5c-5.2,0-9.5-1.8-9.5-4"/>
				<path class="st2" d="M8.5,16.9c-4.5-0.3-8-2-8-3.9"/>
				<path class="st2" d="M9,21.5c-4.8-0.2-8.5-1.9-8.5-4v-13"/>
			</g>
			<line class="st2" x1="19.5" y1="4.5" x2="19.5" y2="9"/>
		</g>
		<g>
			<circle class="st2" cx="21.5" cy="14.5" r="2"/>
			<circle class="st2" cx="21.5" cy="21.5" r="2"/>
			<circle class="st2" cx="13.5" cy="18.5" r="2"/>
			<line class="st2" x1="15.3" y1="17.6" x2="19.7" y2="15.4"/>
			<line class="st2" x1="15.4" y1="19.2" x2="19.6" y2="20.8"/>
		</g>
	</g>
</g>
</svg>
