<?xml version="1.0" encoding="utf-8"?>
<!-- Generator: Adobe Illustrator 19.2.0, SVG Export Plug-In . SVG Version: 6.00 Build 0)  -->
<svg version="1.1" id="Layer_1" xmlns="http://www.w3.org/2000/svg" xmlns:xlink="http://www.w3.org/1999/xlink" x="0px" y="0px"
	 viewBox="0 0 24 24" style="enable-background:new 0 0 24 24;" xml:space="preserve">
<style type="text/css">
	.st0{display:none;}
	.st1{display:inline;}
	.st2{fill:none;stroke:#000000;stroke-linejoin:round;stroke-miterlimit:10;}
	.st3{fill:none;stroke:#000000;stroke-linecap:round;stroke-linejoin:round;stroke-miterlimit:10;}
</style>
<g id="Filled_Icons" class="st0">
	<g class="st1">
		<path d="M10,17c0.7,0,1.4,0,2-0.1c0.1-1.5,0.8-2.8,1.9-3.7c-1.3,0.2-2.6,0.3-4,0.3c-4,0-8.1-1-10-2.6v2.6C0,15.1,4.5,17,10,17z"/>
		<path d="M10,8c4.6,0,8.6-1.3,10-2.6V4.5C20,2,15.6,0,10,0C4.4,0,0,2,0,4.5C0,6.1,4.5,8,10,8z"/>
		<path d="M10,12.5c4.6,0,8.6-1.3,10-2.6V6.7C17.9,8.1,13.8,9,10,9C6,9,1.9,8,0,6.4V9C0,10.6,4.5,12.5,10,12.5z"/>
		<path d="M12,17.9C11.4,18,10.7,18,10,18c-4,0-8.1-1-10-2.6v2.1C0,20,4.4,22,10,22c1.5,0,2.9-0.1,4.2-0.4
			C13,20.7,12.2,19.4,12,17.9z"/>
		<path d="M20,11.2c-0.5,0.3-1.1,0.6-1.8,0.9c0.6,0.1,1.2,0.3,1.8,0.7V11.2z"/>
		<path d="M23.9,23.1l-2.5-2.5L20.7,20c0.6-0.7,0.9-1.7,0.9-2.7c0-2.4-1.9-4.3-4.3-4.3c-2.4,0-4.3,1.9-4.3,4.3
			c0,2.4,1.9,4.3,4.3,4.3c1,0,1.9-0.3,2.7-0.9l0.7,0.7l2.5,2.5c0.1,0.1,0.2,0.1,0.4,0.1c0.1,0,0.3,0,0.4-0.1
			C24.1,23.7,24.1,23.3,23.9,23.1z M17.3,20.6c-1.8,0-3.3-1.5-3.3-3.3c0-1.8,1.5-3.3,3.3-3.3c1.8,0,3.3,1.5,3.3,3.3
			C20.6,19.1,19.1,20.6,17.3,20.6z"/>
	</g>
</g>
<g id="Outline_Icons">
	<g>
		<circle class="st2" cx="17.3" cy="17.3" r="3.8"/>
		<line class="st3" x1="20" y1="20" x2="23.5" y2="23.5"/>
		<g>
			<g>
				<ellipse class="st3" cx="10" cy="4.5" rx="9.5" ry="4"/>
				<path class="st3" d="M11.5,12.4c-0.5,0-1,0.1-1.5,0.1c-5.2,0-9.5-1.8-9.5-4"/>
				<path class="st3" d="M10,17c-5.2,0-9.5-1.8-9.5-4"/>
				<path class="st3" d="M10,21.5c-5.2,0-9.5-1.8-9.5-4v-13"/>
			</g>
			<line class="st3" x1="19.5" y1="4.5" x2="19.5" y2="10"/>
		</g>
	</g>
</g>
</svg>
