<?xml version="1.0" encoding="utf-8"?>
<!-- Generator: Adobe Illustrator 19.2.0, SVG Export Plug-In . SVG Version: 6.00 Build 0)  -->
<svg version="1.1" id="Layer_1" xmlns="http://www.w3.org/2000/svg" xmlns:xlink="http://www.w3.org/1999/xlink" x="0px" y="0px"
	 viewBox="0 0 24 24" style="enable-background:new 0 0 24 24;" xml:space="preserve">
<style type="text/css">
	.st0{display:none;}
	.st1{display:inline;}
	.st2{fill:none;stroke:#000000;stroke-linejoin:round;stroke-miterlimit:10;}
	.st3{fill:none;stroke:#000000;stroke-linecap:round;stroke-linejoin:round;stroke-miterlimit:10;}
</style>
<g id="Filled_Icons" class="st0">
	<g class="st1">
		<circle cx="4" cy="4" r="0.5"/>
		<circle cx="4" cy="18" r="0.5"/>
		<circle cx="4" cy="11" r="0.5"/>
		<path d="M22,7c0,0,0-5.5,0-5.5C22,0.7,21.3,0,20.5,0h-19C0.7,0,0,0.7,0,1.5C0,1.5,0,7,0,7H22z M8,3h10c0.3,0,0.5,0.2,0.5,0.5
			C18.5,3.8,18.3,4,18,4H8C7.7,4,7.5,3.8,7.5,3.5C7.5,3.2,7.7,3,8,3z M8,5h10c0.3,0,0.5,0.2,0.5,0.5C18.5,5.8,18.3,6,18,6H8
			C7.7,6,7.5,5.8,7.5,5.5C7.5,5.2,7.7,5,8,5z M4,2.5c0.8,0,1.5,0.7,1.5,1.5c0,0.8-0.7,1.5-1.5,1.5C3.2,5.5,2.5,4.8,2.5,4
			C2.5,3.2,3.2,2.5,4,2.5z"/>
		<path d="M10.7,20.2c0-0.1-0.1-0.1-0.1-0.2H8c-0.3,0-0.5-0.2-0.5-0.5C7.5,19.2,7.7,19,8,19h2.6c0.1-0.3,0.3-0.7,0.7-0.8l0.3-0.2H8
			c-0.3,0-0.5-0.2-0.5-0.5C7.5,17.2,7.7,17,8,17h2.6c-0.1-0.4-0.1-0.8,0.1-1.2l0.5-0.8H0c0,0,0,5.5,0,5.5C0,21.3,0.7,22,1.5,22h10.2
			L10.7,20.2z M4,19.5c-0.8,0-1.5-0.7-1.5-1.5c0-0.8,0.7-1.5,1.5-1.5c0.8,0,1.5,0.7,1.5,1.5C5.5,18.8,4.8,19.5,4,19.5z"/>
		<path d="M12.2,13.2c0-0.1,0.1-0.1,0.1-0.2H8c-0.3,0-0.5-0.2-0.5-0.5C7.5,12.2,7.7,12,8,12h6.6c0.2-0.6,0.8-1,1.4-1H8
			c-0.3,0-0.5-0.2-0.5-0.5C7.5,10.2,7.7,10,8,10h10c0.3,0,0.5,0.2,0.5,0.5c0,0.3-0.2,0.5-0.5,0.5h1c0.8,0,1.5,0.7,1.5,1.5v0.3
			l0.2-0.1c0.3-0.2,0.8-0.3,1.1-0.2c0,0,0.1,0,0.1,0c0,0,0-4.5,0-4.5H0c0,0,0,6,0,6h11.7L12.2,13.2z M4,12.5c-0.8,0-1.5-0.7-1.5-1.5
			c0-0.8,0.7-1.5,1.5-1.5c0.8,0,1.5,0.7,1.5,1.5C5.5,11.8,4.8,12.5,4,12.5z"/>
		<path d="M23.3,19l-0.8-0.5c0-0.2,0-0.4,0-0.6c0-0.2,0-0.4,0-0.6l0.8-0.5c0.2-0.1,0.3-0.4,0.2-0.7L22,13.7
			c-0.1-0.1-0.2-0.2-0.3-0.2c-0.1,0-0.3,0-0.4,0.1L20.5,14c-0.3-0.2-0.6-0.4-1-0.6v-0.9c0-0.3-0.2-0.5-0.5-0.5h-3
			c-0.3,0-0.5,0.2-0.5,0.5v0.9c-0.3,0.1-0.6,0.3-1,0.6l-0.8-0.5c-0.2-0.1-0.5-0.1-0.7,0.2l-1.5,2.6c-0.1,0.2-0.1,0.5,0.2,0.7
			l0.8,0.5c0,0.2,0,0.4,0,0.6c0,0.2,0,0.4,0,0.6L11.7,19c-0.2,0.1-0.3,0.4-0.2,0.7l1.5,2.6c0.1,0.2,0.4,0.3,0.7,0.2l0.8-0.5
			c0.3,0.2,0.7,0.4,1,0.6v0.9c0,0.3,0.2,0.5,0.5,0.5h3c0.3,0,0.5-0.2,0.5-0.5v-0.9c0.3-0.2,0.7-0.3,1-0.6l0.8,0.5
			c0.1,0.1,0.3,0.1,0.4,0.1c0.1,0,0.2-0.1,0.3-0.2l1.5-2.6C23.6,19.5,23.5,19.2,23.3,19z M17.5,20c-1.1,0-2-0.9-2-2c0-1.1,0.9-2,2-2
			c1.1,0,2,0.9,2,2C19.5,19.1,18.6,20,17.5,20z"/>
	</g>
</g>
<g id="Outline_Icons">
	<g>
		<g>
			<g>
				<path class="st2" d="M16,13.8c-0.5,0.2-1,0.5-1.4,0.8L13.5,14L12,16.5l1.1,0.6c0,0.3-0.1,0.5-0.1,0.8c0,0.3,0,0.6,0.1,0.8
					L12,19.5l1.5,2.6l1.1-0.6c0.4,0.4,0.9,0.6,1.4,0.8v1.3h3v-1.3c0.5-0.2,1-0.5,1.4-0.8l1.1,0.6l1.5-2.6l-1.1-0.6
					c0-0.3,0.1-0.5,0.1-0.8c0-0.3,0-0.6-0.1-0.8l1.1-0.6L21.5,14l-1.1,0.6c-0.4-0.4-0.9-0.6-1.4-0.8v-1.3h-3V13.8z"/>
			</g>
			<circle class="st2" cx="17.5" cy="18" r="2"/>
		</g>
		<path class="st3" d="M21.5,6.5c0,0.6-0.4,1-1,1h-19c-0.6,0-1-0.4-1-1v-5c0-0.6,0.4-1,1-1h19c0.6,0,1,0.4,1,1V6.5z"/>
		<line class="st3" x1="8" y1="5.5" x2="18" y2="5.5"/>
		<line class="st3" x1="8" y1="3.5" x2="18" y2="3.5"/>
		<circle class="st3" cx="4" cy="4" r="1"/>
		<path class="st3" d="M9,14.5H1.5c-0.6,0-1-0.4-1-1v-5c0-0.6,0.4-1,1-1h19c0.6,0,1,0.4,1,1V10"/>
		<line class="st3" x1="8" y1="12.5" x2="10" y2="12.5"/>
		<line class="st3" x1="8" y1="10.5" x2="11" y2="10.5"/>
		<circle class="st3" cx="4" cy="11" r="1"/>
		<path class="st3" d="M10,21.5H1.5c-0.6,0-1-0.4-1-1v-5c0-0.6,0.4-1,1-1H9"/>
		<circle class="st3" cx="4" cy="18" r="1"/>
	</g>
</g>
</svg>
