<?xml version="1.0" encoding="utf-8"?>
<!-- Generator: Adobe Illustrator 19.2.0, SVG Export Plug-In . SVG Version: 6.00 Build 0)  -->
<svg version="1.1" id="Layer_1" xmlns="http://www.w3.org/2000/svg" xmlns:xlink="http://www.w3.org/1999/xlink" x="0px" y="0px"
	 viewBox="0 0 24 24" style="enable-background:new 0 0 24 24;" xml:space="preserve">
<style type="text/css">
	.st0{display:none;}
	.st1{display:inline;}
	.st2{fill:none;stroke:#000000;stroke-linecap:round;stroke-linejoin:round;stroke-miterlimit:10;}
</style>
<g id="Filled_Icons" class="st0">
	<g class="st1">
		<path d="M23.5,0h-23C0.2,0,0,0.2,0,0.5v23C0,23.8,0.2,24,0.5,24h23c0.3,0,0.5-0.2,0.5-0.5v-23C24,0.2,23.8,0,23.5,0z M17.5,21h-11
			C4.6,21,3,19.4,3,17.5S4.6,14,6.5,14h11c1.9,0,3.5,1.6,3.5,3.5S19.4,21,17.5,21z M17.5,10h-11C4.6,10,3,8.4,3,6.5
			C3,4.6,4.6,3,6.5,3h11C19.4,3,21,4.6,21,6.5C21,8.4,19.4,10,17.5,10z"/>
		<circle cx="6.5" cy="6.5" r="2.5"/>
		<circle cx="17.5" cy="17.5" r="2.5"/>
	</g>
</g>
<g id="Outline_Icons">
	<g>
		<rect x="0.5" y="0.5" class="st2" width="23" height="23"/>
		<path class="st2" d="M3.5,6.5c0,1.7,1.3,3,3,3h11c1.7,0,3-1.3,3-3c0-1.7-1.3-3-3-3h-11C4.8,3.5,3.5,4.8,3.5,6.5z"/>
		<path class="st2" d="M3.5,17.5c0,1.7,1.3,3,3,3h11c1.7,0,3-1.3,3-3c0-1.7-1.3-3-3-3h-11C4.8,14.5,3.5,15.8,3.5,17.5z"/>
		<circle class="st2" cx="6.5" cy="6.5" r="3"/>
		<circle class="st2" cx="17.5" cy="17.5" r="3"/>
	</g>
</g>
</svg>
