<?xml version="1.0" encoding="utf-8"?>
<!-- Generator: Adobe Illustrator 19.2.0, SVG Export Plug-In . SVG Version: 6.00 Build 0)  -->
<svg version="1.1" id="Layer_1" xmlns="http://www.w3.org/2000/svg" xmlns:xlink="http://www.w3.org/1999/xlink" x="0px" y="0px"
	 viewBox="0 0 24 24" style="enable-background:new 0 0 24 24;" xml:space="preserve">
<style type="text/css">
	.st0{display:none;}
	.st1{display:inline;}
	.st2{fill:none;stroke:#000000;stroke-linecap:round;stroke-linejoin:round;stroke-miterlimit:10;}
</style>
<g id="Filled_Icons" class="st0">
	<path class="st1" d="M22.5,0h-21C0.7,0,0,0.7,0,1.5v20C0,22.3,0.7,23,1.5,23h21c0.8,0,1.5-0.7,1.5-1.5v-20C24,0.7,23.3,0,22.5,0z
		 M20.5,18h-8.1c-0.2,1.1-1.2,2-2.4,2c-1.2,0-2.2-0.9-2.4-2h-4C3.2,18,3,17.8,3,17.5C3,17.2,3.2,17,3.5,17h4c0.2-1.1,1.2-2,2.4-2
		c1.2,0,2.2,0.9,2.4,2h8.1c0.3,0,0.5,0.2,0.5,0.5C21,17.8,20.8,18,20.5,18z M20.5,12H10.4c-0.2,1.1-1.2,2-2.4,2s-2.2-0.9-2.4-2h-2
		C3.2,12,3,11.8,3,11.5C3,11.2,3.2,11,3.5,11h2C5.8,9.9,6.8,9,8,9s2.2,0.9,2.4,2h10.1c0.3,0,0.5,0.2,0.5,0.5
		C21,11.8,20.8,12,20.5,12z M20.5,6h-6.1c-0.2,1.1-1.2,2-2.5,2S9.8,7.1,9.6,6h-6C3.2,6,3,5.8,3,5.5C3,5.2,3.2,5,3.5,5h6
		c0.2-1.1,1.2-2,2.4-2s2.2,0.9,2.4,2h6.1C20.8,5,21,5.2,21,5.5C21,5.8,20.8,6,20.5,6z"/>
</g>
<g id="Outline_Icons">
	<g>
		<path class="st2" d="M23.5,21.5c0,0.6-0.4,1-1,1h-21c-0.6,0-1-0.4-1-1v-20c0-0.6,0.4-1,1-1h21c0.6,0,1,0.4,1,1V21.5z"/>
		<circle class="st2" cx="12" cy="5.5" r="2"/>
		<line class="st2" x1="14" y1="5.5" x2="20.5" y2="5.5"/>
		<line class="st2" x1="3.5" y1="5.5" x2="10" y2="5.5"/>
		<circle class="st2" cx="8" cy="11.5" r="2"/>
		<line class="st2" x1="10" y1="11.5" x2="20.5" y2="11.5"/>
		<line class="st2" x1="3.5" y1="11.5" x2="6" y2="11.5"/>
		<circle class="st2" cx="10" cy="17.5" r="2"/>
		<line class="st2" x1="12" y1="17.5" x2="20.5" y2="17.5"/>
		<line class="st2" x1="3.5" y1="17.5" x2="8" y2="17.5"/>
	</g>
</g>
</svg>
