<?xml version="1.0" encoding="utf-8"?>
<!-- Generator: Adobe Illustrator 19.2.0, SVG Export Plug-In . SVG Version: 6.00 Build 0)  -->
<svg version="1.1" id="Layer_1" xmlns="http://www.w3.org/2000/svg" xmlns:xlink="http://www.w3.org/1999/xlink" x="0px" y="0px"
	 viewBox="0 0 24 24" style="enable-background:new 0 0 24 24;" xml:space="preserve">
<style type="text/css">
	.st0{display:none;}
	.st1{display:inline;}
	.st2{fill:none;stroke:#000000;stroke-linecap:round;stroke-linejoin:round;stroke-miterlimit:10;}
</style>
<g id="Filled_Icons" class="st0">
	<path class="st1" d="M22.5,0h-22C0.2,0,0,0.2,0,0.5v23C0,23.8,0.2,24,0.5,24h22c0.3,0,0.5-0.2,0.5-0.5v-23C23,0.2,22.8,0,22.5,0z
		 M5.5,21c-1.1,0-2-0.9-2-2c0-1.1,0.9-2,2-2c1.1,0,2,0.9,2,2C7.5,20.1,6.6,21,5.5,21z M8,10.5C8,10.8,7.8,11,7.5,11H6v3.5
		C6,14.8,5.8,15,5.5,15C5.2,15,5,14.8,5,14.5V11H3.5C3.2,11,3,10.8,3,10.5v-2C3,8.2,3.2,8,3.5,8H5V3.5C5,3.2,5.2,3,5.5,3
		C5.8,3,6,3.2,6,3.5V8h1.5C7.8,8,8,8.2,8,8.5V10.5z M11.5,21c-1.1,0-2-0.9-2-2c0-1.1,0.9-2,2-2c1.1,0,2,0.9,2,2
		C13.5,20.1,12.6,21,11.5,21z M14,7.5C14,7.8,13.8,8,13.5,8H12v6.5c0,0.3-0.2,0.5-0.5,0.5c-0.3,0-0.5-0.2-0.5-0.5V8H9.5
		C9.2,8,9,7.8,9,7.5v-2C9,5.2,9.2,5,9.5,5H11V3.5C11,3.2,11.2,3,11.5,3C11.8,3,12,3.2,12,3.5V5h1.5C13.8,5,14,5.2,14,5.5V7.5z
		 M17.5,21c-1.1,0-2-0.9-2-2c0-1.1,0.9-2,2-2c1.1,0,2,0.9,2,2C19.5,20.1,18.6,21,17.5,21z M20,12.5c0,0.3-0.2,0.5-0.5,0.5H18v1.5
		c0,0.3-0.2,0.5-0.5,0.5c-0.3,0-0.5-0.2-0.5-0.5V13h-1.5c-0.3,0-0.5-0.2-0.5-0.5v-2c0-0.3,0.2-0.5,0.5-0.5H17V3.5
		C17,3.2,17.2,3,17.5,3C17.8,3,18,3.2,18,3.5V10h1.5c0.3,0,0.5,0.2,0.5,0.5V12.5z"/>
</g>
<g id="Outline_Icons">
	<g>
		<rect x="0.5" y="0.5" class="st2" width="22" height="23"/>
		<line class="st2" x1="11.5" y1="14.5" x2="11.5" y2="7.5"/>
		<line class="st2" x1="17.5" y1="14.5" x2="17.5" y2="12.5"/>
		<line class="st2" x1="5.5" y1="8.5" x2="5.5" y2="3.5"/>
		<line class="st2" x1="5.5" y1="14.5" x2="5.5" y2="10.5"/>
		<line class="st2" x1="17.5" y1="10.5" x2="17.5" y2="3.5"/>
		<line class="st2" x1="11.5" y1="5.5" x2="11.5" y2="3.5"/>
		<rect x="15.5" y="10.5" class="st2" width="4" height="2"/>
		<rect x="9.5" y="5.5" class="st2" width="4" height="2"/>
		<rect x="3.5" y="8.5" class="st2" width="4" height="2"/>
		<circle class="st2" cx="17.5" cy="19" r="1.5"/>
		<circle class="st2" cx="11.5" cy="19" r="1.5"/>
		<circle class="st2" cx="5.5" cy="19" r="1.5"/>
	</g>
</g>
</svg>
