<?xml version="1.0" encoding="utf-8"?>
<!-- Generator: Adobe Illustrator 19.2.0, SVG Export Plug-In . SVG Version: 6.00 Build 0)  -->
<svg version="1.1" id="Outline_Icons" xmlns="http://www.w3.org/2000/svg" xmlns:xlink="http://www.w3.org/1999/xlink" x="0px"
	 y="0px" viewBox="0 0 24 24" style="enable-background:new 0 0 24 24;" xml:space="preserve">
<style type="text/css">
	.st0{fill:none;stroke:#000000;stroke-linejoin:round;stroke-miterlimit:10;}
	.st1{fill:none;stroke:#000000;stroke-linecap:round;stroke-linejoin:round;stroke-miterlimit:10;}
</style>
<g>
	<path class="st0" d="M14,2.5H8c-2.5,0-4.5,2-4.5,4.5v4.5h10V10c0-0.8,0.7-1.5,1.5-1.5s1.5,0.7,1.5,1.5v8.5h-14c-1.1,0-2,0.9-2,2v1
		c0,1.1,0.9,2,2,2H15h8.5V4c0-0.8-0.7-1.5-1.5-1.5H14z"/>
	<line class="st1" x1="6.5" y1="11.5" x2="6.5" y2="16"/>
	<line class="st1" x1="6.5" y1="14.5" x2="7.5" y2="14.5"/>
	<circle class="st0" cx="20" cy="18" r="1.5"/>
	<line class="st1" x1="13" y1="5.5" x2="23.5" y2="5.5"/>
</g>
</svg>
