<?xml version="1.0" encoding="utf-8"?>
<!-- Generator: Adobe Illustrator 19.2.0, SVG Export Plug-In . SVG Version: 6.00 Build 0)  -->
<svg version="1.1" id="Layer_1" xmlns="http://www.w3.org/2000/svg" xmlns:xlink="http://www.w3.org/1999/xlink" x="0px" y="0px"
	 viewBox="0 0 24 24" style="enable-background:new 0 0 24 24;" xml:space="preserve">
<style type="text/css">
	.st0{display:none;}
	.st1{display:inline;}
	.st2{fill:none;stroke:#000000;stroke-linejoin:round;stroke-miterlimit:10;}
	.st3{fill:none;stroke:#000000;stroke-linecap:round;stroke-linejoin:round;stroke-miterlimit:10;}
</style>
<g id="Filled_Icons" class="st0">
	<g class="st1">
		<path d="M6,15.5h2.2c1.7,0,3.3,1,3.9,1.5c0.7,0.5,1,1,0.9,1.5l5.2,0c0.2,0.1,0.5,0.1,0.7,0.2c3.1-1.7,5.1-5,5.1-8.7
			c0-5.5-4.5-10-10-10C8.5,0,4,4.5,4,10c0,2.1,0.6,4,1.7,5.5C5.8,15.5,5.9,15.5,6,15.5z M13,5c0-0.3,0.2-0.5,0.5-0.5
			C13.8,4.5,14,4.7,14,5v5h4.5c0.3,0,0.5,0.2,0.5,0.5c0,0.3-0.2,0.5-0.5,0.5h-5c-0.3,0-0.5-0.2-0.5-0.5V5z"/>
		<g>
			<path d="M11.5,18.5h-2C9.2,18.5,9,18.7,9,19c0,0.3,0.2,0.5,0.5,0.5h4h2h2.4c2.3,0.6,4.1,1.7,4.1,3c0,0.3-0.2,0.5-0.5,0.5H6
				c-0.3,0-0.5-0.2-0.5-0.5V17c0-0.3,0.2-0.5,0.5-0.5h2.2c1.5,0,3.1,1.2,3.3,1.3C11.7,17.9,12.4,18.5,11.5,18.5z"/>
			<path d="M4,16H0.5C0.2,16,0,16.2,0,16.5v7C0,23.8,0.2,24,0.5,24H4c0.3,0,0.5-0.2,0.5-0.5v-7C4.5,16.2,4.3,16,4,16z"/>
		</g>
	</g>
</g>
<g id="Outline_Icons">
	<g>
		<rect x="0.5" y="16.5" class="st2" width="4" height="7"/>
		<path class="st3" d="M4.5,22.5h17c0-1.5-3.5-3-7.5-3H7"/>
		<path class="st2" d="M4.5,17.5H8c2.4,0,3.5,1.5,4,2"/>
		<polyline class="st3" points="13.5,5 13.5,10.5 18.5,10.5 		"/>
		<path class="st3" d="M5,13c-0.3-1-0.5-2-0.5-3c0-5.2,4.3-9.5,9.5-9.5c5.2,0,9.5,4.3,9.5,9.5c0,3.2-1.5,6-3.9,7.7"/>
	</g>
</g>
</svg>
