<?xml version="1.0" encoding="utf-8"?>
<!-- Generator: Adobe Illustrator 19.2.0, SVG Export Plug-In . SVG Version: 6.00 Build 0)  -->
<svg version="1.1" id="Layer_1" xmlns="http://www.w3.org/2000/svg" xmlns:xlink="http://www.w3.org/1999/xlink" x="0px" y="0px"
	 viewBox="0 0 24 24" style="enable-background:new 0 0 24 24;" xml:space="preserve">
<style type="text/css">
	.st0{display:none;}
	.st1{display:inline;}
	.st2{fill:none;stroke:#000000;stroke-linejoin:round;stroke-miterlimit:10;}
	.st3{fill:none;stroke:#000000;stroke-linecap:round;stroke-linejoin:round;stroke-miterlimit:10;}
</style>
<g id="Filled_Icons" class="st0">
	<g class="st1">
		<path d="M23,7.3C22.9,7.1,22.7,7,22.5,7h-5.9l-2.1-5.9c-0.1-0.4-0.8-0.4-0.9,0L11.4,7H5.5C5.3,7,5.1,7.1,5,7.3
			C5,7.5,5,7.8,5.2,7.9l4.9,4l-1.2,3.7c1.2,0.2,2.2,0.6,2.8,1.2l2.3-1.6l5.2,3.8c0.1,0.1,0.2,0.1,0.3,0.1c0.1,0,0.2,0,0.3-0.1
			c0.2-0.1,0.2-0.4,0.2-0.6l-2.1-6.4l4.9-4C23,7.8,23,7.5,23,7.3z"/>
		<g>
			<path d="M11.5,18.5h-2C9.2,18.5,9,18.7,9,19c0,0.3,0.2,0.5,0.5,0.5h4h2h2.4c2.3,0.6,4.1,1.7,4.1,3c0,0.3-0.2,0.5-0.5,0.5H6
				c-0.3,0-0.5-0.2-0.5-0.5V17c0-0.3,0.2-0.5,0.5-0.5h2.2c1.5,0,3.1,1.2,3.3,1.3C11.7,17.9,12.4,18.5,11.5,18.5z"/>
			<path d="M4,16H0.5C0.2,16,0,16.2,0,16.5v7C0,23.8,0.2,24,0.5,24H4c0.3,0,0.5-0.2,0.5-0.5v-7C4.5,16.2,4.3,16,4,16z"/>
		</g>
	</g>
</g>
<g id="Outline_Icons">
	<g>
		<rect x="0.5" y="16.5" class="st2" width="4" height="7"/>
		<path class="st3" d="M4.5,22.5h17c0-1.5-3.5-3-7.5-3H7"/>
		<path class="st2" d="M4.5,17.5H8c2.4,0,3.5,1.5,4,2"/>
		<polyline class="st2" points="9.6,14.9 10.7,11.7 5.5,7.5 11.8,7.5 14,1.2 16.2,7.5 22.5,7.5 17.3,11.7 19.5,18.5 14,14.4 
			11.9,16 		"/>
	</g>
</g>
</svg>
