<?xml version="1.0" encoding="utf-8"?>
<!-- Generator: Adobe Illustrator 19.2.0, SVG Export Plug-In . SVG Version: 6.00 Build 0)  -->
<svg version="1.1" id="Layer_1" xmlns="http://www.w3.org/2000/svg" xmlns:xlink="http://www.w3.org/1999/xlink" x="0px" y="0px"
	 viewBox="0 0 24 24" style="enable-background:new 0 0 24 24;" xml:space="preserve">
<style type="text/css">
	.st0{display:none;}
	.st1{display:inline;}
	.st2{fill:none;stroke:#000000;stroke-linejoin:round;stroke-miterlimit:10;}
	.st3{fill:none;stroke:#000000;stroke-linecap:round;stroke-linejoin:round;stroke-miterlimit:10;}
</style>
<g id="Filled_Icons" class="st0">
	<g class="st1">
		<path d="M23.7,10.3l-1.3-0.7c0.1-0.4,0.1-0.7,0.1-1.1c0-0.4,0-0.7-0.1-1.1l1.3-0.7C23.9,6.5,24,6.2,23.9,6l-2-3.5
			c-0.1-0.1-0.2-0.2-0.3-0.2c-0.1,0-0.3,0-0.4,0.1L20,3.1c-0.6-0.5-1.1-0.8-1.9-1.1V0.5c0-0.3-0.2-0.5-0.5-0.5h-4
			c-0.3,0-0.5,0.2-0.5,0.5V2c-0.7,0.2-1.3,0.6-1.9,1.1L9.8,2.3C9.6,2.2,9.3,2.3,9.2,2.5L7.2,6C7.1,6.1,7.1,6.2,7.1,6.4
			c0,0.1,0.1,0.2,0.2,0.3l1.3,0.7C8.5,7.8,8.5,8.1,8.5,8.5c0,0.4,0,0.7,0.1,1.1l-1.3,0.7C7.1,10.5,7,10.8,7.1,11l2,3.5
			c0.1,0.2,0.4,0.3,0.7,0.2l1.3-0.7c0.6,0.5,1.2,0.9,1.9,1.1v1.4c0,0.3,0.2,0.5,0.5,0.5h4c0.3,0,0.5-0.2,0.5-0.5V15
			c0.7-0.3,1.3-0.6,1.9-1.1l1.2,0.7c0.1,0.1,0.3,0.1,0.4,0.1c0.1,0,0.2-0.1,0.3-0.2l2-3.5C24,10.8,23.9,10.5,23.7,10.3z M15.5,11.5
			c-1.7,0-3-1.3-3-3c0-1.7,1.3-3,3-3c1.7,0,3,1.3,3,3C18.5,10.2,17.2,11.5,15.5,11.5z"/>
		<g>
			<path d="M11.5,18.5h-2C9.2,18.5,9,18.7,9,19c0,0.3,0.2,0.5,0.5,0.5h4h2h2.4c2.3,0.6,4.1,1.7,4.1,3c0,0.3-0.2,0.5-0.5,0.5H6
				c-0.3,0-0.5-0.2-0.5-0.5V17c0-0.3,0.2-0.5,0.5-0.5h2.2c1.5,0,3.1,1.2,3.3,1.3C11.7,17.9,12.4,18.5,11.5,18.5z"/>
			<path d="M4,16H0.5C0.2,16,0,16.2,0,16.5v7C0,23.8,0.2,24,0.5,24H4c0.3,0,0.5-0.2,0.5-0.5v-7C4.5,16.2,4.3,16,4,16z"/>
		</g>
	</g>
</g>
<g id="Outline_Icons">
	<g>
		<rect x="0.5" y="16.5" class="st2" width="4" height="7"/>
		<path class="st3" d="M4.5,22.5h17c0-1.5-3.5-3-7.5-3H7"/>
		<path class="st2" d="M4.5,17.5H8c2.4,0,3.5,1.5,4,2"/>
		<g>
			<circle class="st2" cx="15.5" cy="8.5" r="3"/>
			<path class="st2" d="M22,8.5C22,8,22,7.6,21.9,7.1l1.6-0.9l-2-3.5l-1.5,0.9c-0.7-0.6-1.3-1.1-2.3-1.4V0.5h-4v1.8
				c-1,0.3-1.7,0.8-2.4,1.4L9.6,2.8l-2,3.5l1.6,0.9C9.1,7.6,9,8,9,8.5c0,0.5,0,0.9,0.1,1.4l-1.6,0.9l2,3.5l1.6-0.9
				c0.7,0.6,1.4,1.1,2.4,1.4v1.8h4v-1.8c1-0.3,1.6-0.8,2.3-1.4l1.6,0.9l2-3.5l-1.6-0.9C22,9.4,22,9,22,8.5z"/>
		</g>
	</g>
</g>
</svg>
