<?xml version="1.0" encoding="utf-8"?>
<!-- Generator: Adobe Illustrator 19.2.0, SVG Export Plug-In . SVG Version: 6.00 Build 0)  -->
<svg version="1.1" id="Layer_1" xmlns="http://www.w3.org/2000/svg" xmlns:xlink="http://www.w3.org/1999/xlink" x="0px" y="0px"
	 viewBox="0 0 24 24" style="enable-background:new 0 0 24 24;" xml:space="preserve">
<style type="text/css">
	.st0{display:none;}
	.st1{display:inline;}
	.st2{fill:none;stroke:#000000;stroke-linejoin:round;stroke-miterlimit:10;}
</style>
<g id="Filled_Icons" class="st0">
	<path class="st1" d="M19.5,15c-1.6,0-3,0.8-3.8,2.1l-7-3.5C8.9,13.1,9,12.5,9,12c0-0.5-0.1-1.1-0.3-1.6l7-3.5
		C16.5,8.2,17.9,9,19.5,9C22,9,24,7,24,4.5C24,2,22,0,19.5,0C17,0,15,2,15,4.5c0,0.5,0.1,1.1,0.3,1.6l-7,3.5
		C7.5,8.3,6.1,7.5,4.5,7.5C2,7.5,0,9.5,0,12c0,2.5,2,4.5,4.5,4.5c1.5,0,2.9-0.8,3.8-2.1l7,3.5c-0.2,0.5-0.3,1-0.3,1.6
		c0,2.5,2,4.5,4.5,4.5c2.5,0,4.5-2,4.5-4.5C24,17,22,15,19.5,15z"/>
</g>
<g id="Outline_Icons">
	<g>
		<path class="st2" d="M8.1,10.2C7.4,8.9,6.1,8,4.5,8c-2.2,0-4,1.8-4,4s1.8,4,4,4c1.6,0,2.9-0.9,3.6-2.2"/>
		<path class="st2" d="M19.5,8.5c2.2,0,4-1.8,4-4s-1.8-4-4-4s-4,1.8-4,4c0,0.6,0.2,1.2,0.4,1.8"/>
		<path class="st2" d="M15.9,17.7c-1.3,2.6,0.6,5.8,3.6,5.8c2.2,0,4-1.8,4-4s-1.8-4-4-4"/>
		<path class="st2" d="M19.5,8.5c-1.6,0-2.9-0.9-3.6-2.2l-7.9,3.9c0.3,0.5,0.4,1.1,0.4,1.8c0,0.6-0.2,1.2-0.4,1.8l7.9,3.9
			c0.7-1.3,2-2.2,3.6-2.2"/>
	</g>
</g>
</svg>
