<?xml version="1.0" encoding="utf-8"?>
<!-- Generator: Adobe Illustrator 19.2.0, SVG Export Plug-In . SVG Version: 6.00 Build 0)  -->
<svg version="1.1" id="Layer_1" xmlns="http://www.w3.org/2000/svg" xmlns:xlink="http://www.w3.org/1999/xlink" x="0px" y="0px"
	 viewBox="0 0 24 24" style="enable-background:new 0 0 24 24;" xml:space="preserve">
<style type="text/css">
	.st0{display:none;}
	.st1{display:inline;}
	.st2{fill:none;stroke:#000000;stroke-linejoin:round;stroke-miterlimit:10;}
	.st3{fill:none;stroke:#000000;stroke-linecap:round;stroke-linejoin:round;stroke-miterlimit:10;}
</style>
<g id="Filled_Icons" class="st0">
	<g class="st1">
		<g>
			<path d="M11.5,18.5h-2C9.2,18.5,9,18.7,9,19c0,0.3,0.2,0.5,0.5,0.5h4h2h2.4c2.3,0.6,4.1,1.7,4.1,3c0,0.3-0.2,0.5-0.5,0.5H6
				c-0.3,0-0.5-0.2-0.5-0.5V17c0-0.3,0.2-0.5,0.5-0.5h2.2c1.5,0,3.1,1.2,3.3,1.3C11.7,17.9,12.4,18.5,11.5,18.5z"/>
			<path d="M4,16H0.5C0.2,16,0,16.2,0,16.5v7C0,23.8,0.2,24,0.5,24H4c0.3,0,0.5-0.2,0.5-0.5v-7C4.5,16.2,4.3,16,4,16z"/>
		</g>
		<path d="M12.1,17c0.7,0.5,1,1,0.9,1.5l3.4,0l0.7-1.2c2.1-3.6,4.5-8,4.5-10.3c0-3.9-3.1-7-7-7c-3.9,0-7,3.1-7,7
			c0,2.2,2.1,6.2,4.1,9.6C11.8,16.8,11.9,16.9,12.1,17z M14.5,4.4c1.4,0,2.6,1.2,2.6,2.6c0,1.4-1.2,2.6-2.6,2.6
			c-1.4,0-2.6-1.2-2.6-2.6C11.9,5.6,13.1,4.4,14.5,4.4z"/>
	</g>
</g>
<g id="Outline_Icons">
	<g>
		<rect x="0.5" y="16.5" class="st2" width="4" height="7"/>
		<path class="st3" d="M4.5,22.5h17c0-1.5-3.5-3-7.5-3H7"/>
		<path class="st2" d="M4.5,17.5H8c2.4,0,3.5,1.5,4,2"/>
		<path class="st3" d="M11.7,16C10,12.9,8,9,8,7c0-3.6,2.9-6.5,6.5-6.5C18.1,0.5,21,3.4,21,7c0,2.2-2.5,6.8-4.4,10"/>
		<circle class="st3" cx="14.5" cy="7" r="2.6"/>
	</g>
</g>
</svg>
