<?xml version="1.0" encoding="utf-8"?>
<!-- Generator: Adobe Illustrator 19.2.0, SVG Export Plug-In . SVG Version: 6.00 Build 0)  -->
<svg version="1.1" id="Layer_1" xmlns="http://www.w3.org/2000/svg" xmlns:xlink="http://www.w3.org/1999/xlink" x="0px" y="0px"
	 viewBox="0 0 24 24" style="enable-background:new 0 0 24 24;" xml:space="preserve">
<style type="text/css">
	.st0{display:none;}
	.st1{display:inline;}
	.st2{fill:none;stroke:#000000;stroke-linejoin:round;stroke-miterlimit:10;}
	.st3{fill:none;stroke:#000000;stroke-linecap:round;stroke-linejoin:round;stroke-miterlimit:10;}
</style>
<g id="Filled_Icons" class="st0">
	<g class="st1">
		<path d="M19,0.5C19,0.2,18.8,0,18.5,0S18,0.2,18,0.5V3h-1V0.5C17,0.2,16.8,0,16.5,0S16,0.2,16,0.5V3h-1V0.5C15,0.2,14.8,0,14.5,0
			S14,0.2,14,0.5V3h-1V0.5C13,0.2,12.8,0,12.5,0S12,0.2,12,0.5V3h-1V0.5C11,0.2,10.8,0,10.5,0S10,0.2,10,0.5V3H9V0.5
			C9,0.2,8.8,0,8.5,0S8,0.2,8,0.5V3H7V0.5C7,0.2,6.8,0,6.5,0S6,0.2,6,0.5V3H5V0.5C5,0.2,4.8,0,4.5,0S4,0.2,4,0.5v3v0.2l1,3
			C5.1,6.9,5.3,7,5.5,7h12c0.2,0,0.4-0.1,0.5-0.3l1-3V3.5V0.5z"/>
		<g>
			<path d="M17,18.5v-9c0-0.1,0-0.2-0.1-0.3l-1-1.2H7.1l-1,1.2C6,9.3,6,9.4,6,9.5v9c0,2.9,2.4,5.5,5.5,5.5S17,21.5,17,18.5z M8,17h7
				v1H8V17z M11.5,11c1.9,0,3.5,1.6,3.5,3.5V16H8v-1.5C8,12.6,9.6,11,11.5,11z M11.5,23c-1.4,0-2.7-0.7-3.5-1.7V19h7v2.3
				C14.2,22.3,12.9,23,11.5,23z"/>
		</g>
	</g>
</g>
<g id="Outline_Icons">
	<g>
		<path class="st2" d="M16.5,18.5c0,2.8-2.2,5-5,5s-5-2.2-5-5v-9l2.5-3h5l2.5,3V18.5z"/>
		<line class="st3" x1="8.5" y1="4.5" x2="8.5" y2="0.5"/>
		<line class="st3" x1="10.5" y1="4.5" x2="10.5" y2="0.5"/>
		<line class="st3" x1="12.5" y1="4.5" x2="12.5" y2="0.5"/>
		<line class="st3" x1="14.5" y1="4.5" x2="14.5" y2="0.5"/>
		<line class="st3" x1="16.5" y1="4.5" x2="16.5" y2="0.5"/>
		<line class="st3" x1="18.5" y1="3.5" x2="18.5" y2="0.5"/>
		<line class="st3" x1="6.5" y1="4.5" x2="6.5" y2="0.5"/>
		<line class="st3" x1="4.5" y1="3.5" x2="4.5" y2="0.5"/>
		<polygon class="st2" points="17.5,6.5 5.5,6.5 4.5,3.5 18.5,3.5 		"/>
		<path class="st2" d="M14.5,22.4v-7.9c0-1.7-1.3-3-3-3s-3,1.3-3,3v8"/>
		<line class="st3" x1="8.5" y1="16.5" x2="14.5" y2="16.5"/>
		<line class="st3" x1="8.5" y1="18.5" x2="14.5" y2="18.5"/>
	</g>
</g>
</svg>
