<?xml version="1.0" encoding="utf-8"?>
<!-- Generator: Adobe Illustrator 19.2.0, SVG Export Plug-In . SVG Version: 6.00 Build 0)  -->
<svg version="1.1" id="Layer_1" xmlns="http://www.w3.org/2000/svg" xmlns:xlink="http://www.w3.org/1999/xlink" x="0px" y="0px"
	 viewBox="0 0 24 24" style="enable-background:new 0 0 24 24;" xml:space="preserve">
<style type="text/css">
	.st0{display:none;}
	.st1{display:inline;}
	.st2{fill:none;stroke:#000000;stroke-linecap:round;stroke-linejoin:round;stroke-miterlimit:10;}
</style>
<g id="Filled_Icon" class="st0">
	<g class="st1">
		<path d="M23.9,9.5C23.7,9.2,23.4,9,23,9H10.5c-0.3,0-0.6,0.2-0.8,0.4L9.6,9.5c0,0-0.1,0-0.1,0h-1C8.2,9.5,8,9.7,8,10
			c0,0.3,0.2,0.5,0.5,0.5h0.4L0.2,22.4c-0.2,0.3-0.3,0.7-0.1,1C0.3,23.8,0.6,24,1,24h12.5c0.3,0,0.6-0.2,0.8-0.4l9.5-13
			C24,10.3,24.1,9.9,23.9,9.5z M13,22H3l8-11h2c0,0.3,0.2,0.5,0.5,0.5c0.3,0,0.5-0.2,0.5-0.5h7L13,22z"/>
		<path d="M5.5,4.5h10.9l-1.1,1.4c-0.4,0.4-0.3,1.1,0.1,1.4c0.2,0.2,0.4,0.2,0.6,0.2c0.3,0,0.6-0.1,0.8-0.4l2.5-3
			c0.3-0.3,0.3-0.9-0.1-1.3c0,0,0,0,0,0l0,0l-2.5-2.5c-0.4-0.4-1-0.4-1.4,0c-0.4,0.4-0.4,1,0,1.4l0.8,0.8H5.5c-0.6,0-1,0.4-1,1
			C4.5,4.1,4.9,4.5,5.5,4.5z"/>
		<path d="M1,11.5c0.3,0,0.5-0.2,0.5-0.5v-0.5H2c0.3,0,0.5-0.2,0.5-0.5c0-0.3-0.2-0.5-0.5-0.5H1c-0.3,0-0.5,0.2-0.5,0.5v1
			C0.5,11.3,0.7,11.5,1,11.5z"/>
		<path d="M13.5,13.5c-0.3,0-0.5,0.2-0.5,0.5v1c0,0.3,0.2,0.5,0.5,0.5c0.3,0,0.5-0.2,0.5-0.5v-1C14,13.7,13.8,13.5,13.5,13.5z"/>
		<path d="M13.5,17.5c-0.3,0-0.5,0.2-0.5,0.5v1c0,0.3,0.2,0.5,0.5,0.5c0.3,0,0.5-0.2,0.5-0.5v-1C14,17.7,13.8,17.5,13.5,17.5z"/>
		<path d="M1,15.5c0.3,0,0.5-0.2,0.5-0.5v-1c0-0.3-0.2-0.5-0.5-0.5c-0.3,0-0.5,0.2-0.5,0.5v1C0.5,15.3,0.7,15.5,1,15.5z"/>
		<path d="M1,19.5c0.3,0,0.5-0.2,0.5-0.5v-1c0-0.3-0.2-0.5-0.5-0.5c-0.3,0-0.5,0.2-0.5,0.5v1C0.5,19.3,0.7,19.5,1,19.5z"/>
		<path d="M5,10.5h1c0.3,0,0.5-0.2,0.5-0.5c0-0.3-0.2-0.5-0.5-0.5H5c-0.3,0-0.5,0.2-0.5,0.5C4.5,10.3,4.7,10.5,5,10.5z"/>
	</g>
</g>
<g id="Outline_Icons">
	<g>
		<polygon class="st2" points="23.5,9.5 10.5,9.5 0.5,22.5 13.5,22.5 		"/>
		<line class="st2" x1="5.5" y1="4.5" x2="18.5" y2="4.5"/>
		<polyline class="st2" points="16,2 18.5,4.5 16,7 		"/>
		<polyline class="st2" points="1.5,9.5 0.5,9.5 0.5,10.5 		"/>
		<polyline class="st2" points="1.5,22.5 0.5,22.5 0.5,21.5 		"/>
		<line class="st2" x1="0.5" y1="12.5" x2="0.5" y2="13.5"/>
		<line class="st2" x1="0.5" y1="15.5" x2="0.5" y2="16.5"/>
		<line class="st2" x1="0.5" y1="18.5" x2="0.5" y2="19.5"/>
		<polyline class="st2" points="12.5,9.5 13.5,9.5 13.5,10.5 		"/>
		<polyline class="st2" points="12.5,22.5 13.5,22.5 13.5,21.5 		"/>
		<line class="st2" x1="13.5" y1="12.5" x2="13.5" y2="13.5"/>
		<line class="st2" x1="13.5" y1="15.5" x2="13.5" y2="16.5"/>
		<line class="st2" x1="13.5" y1="18.5" x2="13.5" y2="19.5"/>
		<line class="st2" x1="3.5" y1="9.5" x2="4.5" y2="9.5"/>
		<line class="st2" x1="6.5" y1="9.5" x2="7.5" y2="9.5"/>
		<line class="st2" x1="9.5" y1="9.5" x2="10.5" y2="9.5"/>
	</g>
</g>
</svg>
