<?xml version="1.0" encoding="utf-8"?>
<!-- Generator: Adobe Illustrator 19.2.0, SVG Export Plug-In . SVG Version: 6.00 Build 0)  -->
<svg version="1.1" id="Layer_1" xmlns="http://www.w3.org/2000/svg" xmlns:xlink="http://www.w3.org/1999/xlink" x="0px" y="0px"
	 viewBox="0 0 24 24" style="enable-background:new 0 0 24 24;" xml:space="preserve">
<style type="text/css">
	.st0{display:none;}
	.st1{display:inline;}
	.st2{fill:none;stroke:#000000;stroke-linecap:round;stroke-linejoin:round;stroke-miterlimit:10;}
</style>
<g id="Filled_Icon" class="st0">
	<g class="st1">
		<path d="M0.2,10.6l9.5,13c0.2,0.3,0.5,0.4,0.8,0.4H23c0.4,0,0.7-0.2,0.9-0.5c0.2-0.3,0.1-0.7-0.1-1l-8.7-11.9h0.4
			c0.3,0,0.5-0.2,0.5-0.5c0-0.3-0.2-0.5-0.5-0.5h-1c0,0-0.1,0-0.1,0l-0.1-0.1C14.1,9.2,13.8,9,13.5,9H1C0.6,9,0.3,9.2,0.1,9.5
			C-0.1,9.9,0,10.3,0.2,10.6z M3,11h7c0,0.3,0.2,0.5,0.5,0.5c0.3,0,0.5-0.2,0.5-0.5h2l8,11H11L3,11z"/>
		<path d="M18.5,4.5H7.6l1.1,1.4c0.4,0.4,0.3,1.1-0.1,1.4C8.5,7.4,8.2,7.5,8,7.5c-0.3,0-0.6-0.1-0.8-0.4l-2.5-3
			c-0.3-0.4-0.3-1,0.1-1.3c0,0,0,0,0,0l0,0l2.5-2.5c0.4-0.4,1-0.4,1.4,0c0.4,0.4,0.4,1,0,1.4L7.9,2.5h10.6c0.6,0,1,0.4,1,1
			C19.5,4.1,19.1,4.5,18.5,4.5z"/>
		<path d="M23,11.5c-0.3,0-0.5-0.2-0.5-0.5v-0.5H22c-0.3,0-0.5-0.2-0.5-0.5c0-0.3,0.2-0.5,0.5-0.5h1c0.3,0,0.5,0.2,0.5,0.5v1
			C23.5,11.3,23.3,11.5,23,11.5z"/>
		<path d="M10.5,13.5c0.3,0,0.5,0.2,0.5,0.5v1c0,0.3-0.2,0.5-0.5,0.5c-0.3,0-0.5-0.2-0.5-0.5v-1C10,13.7,10.2,13.5,10.5,13.5z"/>
		<path d="M10.5,17.5c0.3,0,0.5,0.2,0.5,0.5v1c0,0.3-0.2,0.5-0.5,0.5c-0.3,0-0.5-0.2-0.5-0.5v-1C10,17.7,10.2,17.5,10.5,17.5z"/>
		<path d="M23,15.5c-0.3,0-0.5-0.2-0.5-0.5v-1c0-0.3,0.2-0.5,0.5-0.5c0.3,0,0.5,0.2,0.5,0.5v1C23.5,15.3,23.3,15.5,23,15.5z"/>
		<path d="M23,19.5c-0.3,0-0.5-0.2-0.5-0.5v-1c0-0.3,0.2-0.5,0.5-0.5c0.3,0,0.5,0.2,0.5,0.5v1C23.5,19.3,23.3,19.5,23,19.5z"/>
		<path d="M19,10.5h-1c-0.3,0-0.5-0.2-0.5-0.5c0-0.3,0.2-0.5,0.5-0.5h1c0.3,0,0.5,0.2,0.5,0.5C19.5,10.3,19.3,10.5,19,10.5z"/>
	</g>
</g>
<g id="Outline_Icons">
	<g>
		<polygon class="st2" points="0.5,9.5 13.5,9.5 23.5,22.5 10.5,22.5 		"/>
		<line class="st2" x1="18.5" y1="4.5" x2="5.5" y2="4.5"/>
		<polyline class="st2" points="8,2 5.5,4.5 8,7 		"/>
		<polyline class="st2" points="22.5,9.5 23.5,9.5 23.5,10.5 		"/>
		<polyline class="st2" points="22.5,22.5 23.5,22.5 23.5,21.5 		"/>
		<line class="st2" x1="23.5" y1="12.5" x2="23.5" y2="13.5"/>
		<line class="st2" x1="23.5" y1="15.5" x2="23.5" y2="16.5"/>
		<line class="st2" x1="23.5" y1="18.5" x2="23.5" y2="19.5"/>
		<polyline class="st2" points="11.5,9.5 10.5,9.5 10.5,10.5 		"/>
		<polyline class="st2" points="11.5,22.5 10.5,22.5 10.5,21.5 		"/>
		<line class="st2" x1="10.5" y1="12.5" x2="10.5" y2="13.5"/>
		<line class="st2" x1="10.5" y1="15.5" x2="10.5" y2="16.5"/>
		<line class="st2" x1="10.5" y1="18.5" x2="10.5" y2="19.5"/>
		<line class="st2" x1="20.5" y1="9.5" x2="19.5" y2="9.5"/>
		<line class="st2" x1="17.5" y1="9.5" x2="16.5" y2="9.5"/>
		<line class="st2" x1="14.5" y1="9.5" x2="13.5" y2="9.5"/>
	</g>
</g>
</svg>
