<?xml version="1.0" encoding="utf-8"?>
<!-- Generator: Adobe Illustrator 19.2.0, SVG Export Plug-In . SVG Version: 6.00 Build 0)  -->
<svg version="1.1" id="Layer_1" xmlns="http://www.w3.org/2000/svg" xmlns:xlink="http://www.w3.org/1999/xlink" x="0px" y="0px"
	 viewBox="0 0 24 24" style="enable-background:new 0 0 24 24;" xml:space="preserve">
<style type="text/css">
	.st0{display:none;}
	.st1{display:inline;}
	.st2{fill:none;stroke:#000000;stroke-linejoin:round;stroke-miterlimit:10;}
</style>
<g id="Filled_Icons" class="st0">
	<path class="st1" d="M22,15.5c-0.1,0-0.2,0-0.3,0L19.1,12l2.6-3.5c0.1,0,0.2,0,0.3,0c1.1,0,2-0.9,2-2c0-1.1-0.9-2-2-2
		c-0.9,0-1.7,0.6-1.9,1.5h-3.8l-2.6-2.9C13.9,2.8,14,2.4,14,2c0-1.1-0.9-2-2-2s-2,0.9-2,2c0,0.4,0.1,0.8,0.3,1.1L7.8,6H3.9
		C3.7,5.1,2.9,4.5,2,4.5c-1.1,0-2,0.9-2,2c0,1.1,0.9,2,2,2c0.1,0,0.2,0,0.3,0L4.9,12l-2.6,3.5c-0.1,0-0.2,0-0.3,0c-1.1,0-2,0.9-2,2
		s0.9,2,2,2c0.9,0,1.7-0.6,1.9-1.5h3.8l2.6,2.9C10.1,21.2,10,21.6,10,22c0,1.1,0.9,2,2,2s2-0.9,2-2c0-0.4-0.1-0.8-0.3-1.1l2.6-2.9
		h3.8c0.2,0.9,1,1.5,1.9,1.5c1.1,0,2-0.9,2-2C24,16.4,23.1,15.5,22,15.5z M12,16.5c-2.5,0-4.5-2-4.5-4.5c0-2.5,2-4.5,4.5-4.5
		c2.5,0,4.5,2,4.5,4.5C16.5,14.5,14.5,16.5,12,16.5z"/>
</g>
<g id="Outline_Icons">
	<g>
		<polyline class="st2" points="2.5,16.1 5.5,12 2.4,7.8 		"/>
		<polyline class="st2" points="10.9,20.8 8,17.5 3.5,17.5 		"/>
		<polyline class="st2" points="20.6,17.5 16,17.5 13,20.9 		"/>
		<polyline class="st2" points="21.5,7.9 18.5,12 21.5,16.1 		"/>
		<polyline class="st2" points="13.1,3.2 16,6.5 20.5,6.5 		"/>
		<polyline class="st2" points="3.5,6.5 8,6.5 11,3.1 		"/>
		<circle class="st2" cx="2" cy="6.5" r="1.5"/>
		<circle class="st2" cx="12" cy="2" r="1.5"/>
		<circle class="st2" cx="12" cy="22" r="1.5"/>
		<circle class="st2" cx="22" cy="6.5" r="1.5"/>
		<circle class="st2" cx="2" cy="17.5" r="1.5"/>
		<circle class="st2" cx="22" cy="17.5" r="1.5"/>
		<circle class="st2" cx="12" cy="12" r="4.5"/>
	</g>
	<g>
		<polyline class="st2" points="2.5,16.1 5.5,12 2.4,7.8 		"/>
		<polyline class="st2" points="10.9,20.8 8,17.5 3.5,17.5 		"/>
		<polyline class="st2" points="20.6,17.5 16,17.5 13,20.9 		"/>
		<polyline class="st2" points="21.5,7.9 18.5,12 21.5,16.1 		"/>
		<polyline class="st2" points="13.1,3.2 16,6.5 20.5,6.5 		"/>
		<polyline class="st2" points="3.5,6.5 8,6.5 11,3.1 		"/>
		<circle class="st2" cx="2" cy="6.5" r="1.5"/>
		<circle class="st2" cx="12" cy="2" r="1.5"/>
		<circle class="st2" cx="12" cy="22" r="1.5"/>
		<circle class="st2" cx="22" cy="6.5" r="1.5"/>
		<circle class="st2" cx="2" cy="17.5" r="1.5"/>
		<circle class="st2" cx="22" cy="17.5" r="1.5"/>
		<circle class="st2" cx="12" cy="12" r="4.5"/>
	</g>
</g>
</svg>
