<?xml version="1.0" encoding="utf-8"?>
<!-- Generator: Adobe Illustrator 19.2.0, SVG Export Plug-In . SVG Version: 6.00 Build 0)  -->
<svg version="1.1" id="Layer_1" xmlns="http://www.w3.org/2000/svg" xmlns:xlink="http://www.w3.org/1999/xlink" x="0px" y="0px"
	 viewBox="0 0 24 24" style="enable-background:new 0 0 24 24;" xml:space="preserve">
<style type="text/css">
	.st0{display:none;}
	.st1{display:inline;}
	.st2{fill:none;stroke:#000000;stroke-linecap:round;stroke-linejoin:round;stroke-miterlimit:10;}
	.st3{fill:none;stroke:#000000;stroke-linejoin:round;stroke-miterlimit:10;}
</style>
<g id="Filled_Icons" class="st0">
	<g class="st1">
		<path d="M11,23.8V11H7v10.6C8.1,22.3,9.5,23.1,11,23.8z"/>
		<path d="M22,10V5c0-0.2-0.1-0.4-0.4-0.5c-0.1,0-7.4-2-9.8-4.4c-0.2-0.2-0.5-0.2-0.7,0C8.8,2.5,1.4,4.5,1.4,4.5C1.2,4.6,1,4.8,1,5
			v5C1,10,22,10,22,10z M8.5,5h1.9L11,3.2c0.1-0.4,0.8-0.4,1,0L12.6,5h1.9c0.2,0,0.4,0.1,0.5,0.4c0.1,0.2,0,0.4-0.2,0.6l-1.5,0.9
			l0.6,1.7c0.1,0.2,0,0.4-0.2,0.6c-0.1,0.1-0.2,0.1-0.3,0.1c-0.1,0-0.2,0-0.3-0.1l-1.6-1.2L9.9,9C9.8,9.2,9.5,9.2,9.3,9
			C9.2,8.9,9.1,8.7,9.2,8.5l0.6-1.6L8.2,5.9C8,5.8,8,5.6,8,5.4C8.1,5.2,8.3,5,8.5,5z"/>
		<path d="M17,11v9.9c3.5-2.5,4.9-4.7,4.9-4.8c0-0.1,0.1-0.2,0.1-0.3V11C22,11,17,11,17,11z"/>
		<path d="M6,11H1v4.8c0,0.1,0,0.2,0.1,0.3c0.1,0.1,1.4,2.3,4.9,4.8V11z"/>
		<path d="M16,11h-4v12.8c1.5-0.7,2.9-1.5,4-2.2V11z"/>
	</g>
</g>
<g id="Outline_Icons">
	<g>
		<path class="st2" d="M11.5,0.5L11.5,0.5C9,3,1.5,5,1.5,5v10.8c0,0,2.5,4.2,10,7.7c7.5-3.5,10-7.7,10-7.7V5C21.5,5,14,3,11.5,0.5z"
			/>
		<line class="st3" x1="1.5" y1="10.5" x2="21.5" y2="10.5"/>
		<line class="st2" x1="11.5" y1="10.5" x2="11.5" y2="23.5"/>
		<line class="st2" x1="16.5" y1="10.5" x2="16.5" y2="20.6"/>
		<line class="st2" x1="6.5" y1="10.5" x2="6.5" y2="20.6"/>
		<polygon class="st2" points="11.5,3.3 12.2,5.5 14.5,5.5 12.6,6.6 13.4,8.7 11.5,7.3 9.6,8.6 10.4,6.6 8.5,5.5 10.8,5.5 		"/>
	</g>
</g>
</svg>
