<?xml version="1.0" encoding="utf-8"?>
<!-- Generator: Adobe Illustrator 19.2.0, SVG Export Plug-In . SVG Version: 6.00 Build 0)  -->
<svg version="1.1" id="Layer_1" xmlns="http://www.w3.org/2000/svg" xmlns:xlink="http://www.w3.org/1999/xlink" x="0px" y="0px"
	 viewBox="0 0 24 24" style="enable-background:new 0 0 24 24;" xml:space="preserve">
<style type="text/css">
	.st0{display:none;}
	.st1{display:inline;}
	.st2{fill:none;stroke:#000000;stroke-linecap:round;stroke-linejoin:round;stroke-miterlimit:10;}
</style>
<g id="Filled_Icons" class="st0">
	<g class="st1">
		<path d="M21.6,4.5c-0.1,0-7.4-2-9.8-4.4c-0.2-0.2-0.5-0.2-0.7,0C8.8,2.5,1.4,4.5,1.4,4.5C1.2,4.6,1,4.8,1,5
			C1,13.6,1.8,20.4,11.3,24c0.1,0,0.1,0,0.2,0s0.1,0,0.2,0C21.2,20.4,22,13.6,22,5C22,4.8,21.9,4.6,21.6,4.5z M17,15.5
			c0,0.3-0.2,0.5-0.5,0.5H16v1.5c0,0.3-0.2,0.5-0.5,0.5H14v-2.5c0-0.3-0.2-0.5-0.5-0.5S13,15.2,13,15.5V18h-1v-2.5
			c0-0.3-0.2-0.5-0.5-0.5S11,15.2,11,15.5V18h-1v-2.5c0-0.3-0.2-0.5-0.5-0.5S9,15.2,9,15.5V18H7.5C7.2,18,7,17.8,7,17.5V16H6.5
			C6.2,16,6,15.8,6,15.5v-6C6,8.1,7.1,7,8.5,7h6C15.9,7,17,8.1,17,9.5V15.5z"/>
		<circle cx="9" cy="11.5" r="1.5"/>
		<circle cx="14" cy="11.5" r="1.5"/>
	</g>
</g>
<g id="Outline_Icons">
	<g>
		<path class="st2" d="M11.5,0.5L11.5,0.5C9,3,1.5,5,1.5,5c0,8,0.5,15,10,18.5C21,20,21.5,13,21.5,5C21.5,5,14,3,11.5,0.5z"/>
		<path class="st2" d="M15.5,17.5h-8v-2h-1v-6c0-1.1,0.9-2,2-2h6c1.1,0,2,0.9,2,2v6h-1V17.5z"/>
		<line class="st2" x1="9.5" y1="17.5" x2="9.5" y2="14.5"/>
		<line class="st2" x1="13.5" y1="17.5" x2="13.5" y2="14.5"/>
		<line class="st2" x1="11.5" y1="17.5" x2="11.5" y2="14.5"/>
		<circle class="st2" cx="9.5" cy="11" r="1"/>
		<circle class="st2" cx="13.5" cy="11" r="1"/>
	</g>
</g>
</svg>
