<?xml version="1.0" encoding="utf-8"?>
<!-- Generator: Adobe Illustrator 19.2.0, SVG Export Plug-In . SVG Version: 6.00 Build 0)  -->
<svg version="1.1" id="Layer_1" xmlns="http://www.w3.org/2000/svg" xmlns:xlink="http://www.w3.org/1999/xlink" x="0px" y="0px"
	 viewBox="0 0 24 24" style="enable-background:new 0 0 24 24;" xml:space="preserve">
<style type="text/css">
	.st0{display:none;}
	.st1{display:inline;}
	.st2{fill:none;stroke:#000000;stroke-linecap:round;stroke-linejoin:round;stroke-miterlimit:10;}
</style>
<g id="Filled_Icons" class="st0">
	<path class="st1" d="M21.6,4.5c-0.1,0-7.4-2-9.8-4.4c-0.2-0.2-0.5-0.2-0.7,0C8.8,2.5,1.4,4.5,1.4,4.5C1.2,4.6,1,4.8,1,5
		C1,13.6,1.8,20.4,11.3,24c0.1,0,0.1,0,0.2,0s0.1,0,0.2,0C21.2,20.4,22,13.6,22,5C22,4.8,21.9,4.6,21.6,4.5z M4,6.4
		c0.1,0,5.4-1.5,7.2-3.2c0.1-0.1,0.1-0.1,0.2-0.1l-7.6,7.6C3.6,9.4,3.6,8.2,3.6,6.8C3.6,6.6,3.8,6.4,4,6.4z M5,15.8L15.6,5.2
		c1,0.4,2,0.7,2.7,0.9L6.5,17.9C5.9,17.3,5.4,16.6,5,15.8z M11.7,21c-0.1,0-0.1,0-0.2,0s-0.1,0-0.2,0c-0.4-0.1-0.7-0.3-1.1-0.4
		l8.9-8.9C18.6,15.8,16.9,19,11.7,21z"/>
</g>
<g id="Outline_Icons">
	<g>
		<path class="st2" d="M11.5,0.5L11.5,0.5C9,3,1.5,5,1.5,5c0,8,0.5,15,10,18.5C21,20,21.5,13,21.5,5C21.5,5,14,3,11.5,0.5z"/>
		<path class="st2" d="M11.5,3.5L11.5,3.5C9.7,5.3,4.1,6.8,4.1,6.8c0,5.9,0.4,11.1,7.4,13.7c7-2.6,7.4-7.8,7.4-13.7
			C18.9,6.8,13.3,5.3,11.5,3.5z"/>
		<line class="st2" x1="4.3" y1="10.8" x2="11.6" y2="3.5"/>
		<line class="st2" x1="5.2" y1="14.9" x2="14.7" y2="5.4"/>
		<line class="st2" x1="7.2" y1="17.9" x2="18.4" y2="6.7"/>
		<line class="st2" x1="10.3" y1="19.8" x2="18.7" y2="11.4"/>
	</g>
</g>
</svg>
