<?xml version="1.0" encoding="utf-8"?>
<!-- Generator: Adobe Illustrator 19.2.0, SVG Export Plug-In . SVG Version: 6.00 Build 0)  -->
<svg version="1.1" id="Layer_1" xmlns="http://www.w3.org/2000/svg" xmlns:xlink="http://www.w3.org/1999/xlink" x="0px" y="0px"
	 viewBox="0 0 24 24" style="enable-background:new 0 0 24 24;" xml:space="preserve">
<style type="text/css">
	.st0{display:none;}
	.st1{display:inline;}
	.st2{fill:none;stroke:#000000;stroke-linecap:round;stroke-linejoin:round;stroke-miterlimit:10;}
	.st3{fill:none;stroke:#000000;stroke-linejoin:round;stroke-miterlimit:10;}
</style>
<g id="Filled_Icons" class="st0">
	<g class="st1">
		<path d="M1,15.8c0,0,0,0.1,0,0.1c0.1,0.2,1.6,5.4,10,7.9V12H1V15.8z"/>
		<path d="M21.7,0.6c-0.2-0.1-0.4-0.1-0.5,0c-1.8,1.2-3.2,1.8-4.7,1.8c-1.8,0-3.4-0.8-4.5-2.1V11h10V1C22,0.8,21.9,0.7,21.7,0.6z"/>
		<path d="M6.5,2.4c-1.5,0-3-0.5-4.7-1.8c-0.2-0.1-0.4-0.1-0.5,0C1.1,0.7,1,0.8,1,1v10h10V0.3C9.9,1.6,8.3,2.4,6.5,2.4z"/>
		<path d="M12,23.9c8.4-2.5,9.9-7.7,10-7.9c0,0,0-0.1,0-0.1V12H12V23.9z"/>
	</g>
</g>
<g id="Outline_Icons">
	<g>
		<path class="st2" d="M16.5,2.9c-2,0-3.8-0.9-5-2.4h0c-1.2,1.5-3,2.4-5,2.4c-1.8,0-3.4-0.7-5-1.9v14.8c0,0,1.4,5.3,10,7.7
			c8.5-2.4,10-7.7,10-7.7V1C19.8,2.2,18.2,2.9,16.5,2.9z"/>
		<line class="st3" x1="1.5" y1="11.5" x2="21.5" y2="11.5"/>
		<line class="st2" x1="11.5" y1="0.5" x2="11.5" y2="23.5"/>
	</g>
</g>
</svg>
