<?xml version="1.0" encoding="utf-8"?>
<!-- Generator: Adobe Illustrator 19.2.0, SVG Export Plug-In . SVG Version: 6.00 Build 0)  -->
<svg version="1.1" id="Layer_1" xmlns="http://www.w3.org/2000/svg" xmlns:xlink="http://www.w3.org/1999/xlink" x="0px" y="0px"
	 viewBox="0 0 24 24" style="enable-background:new 0 0 24 24;" xml:space="preserve">
<style type="text/css">
	.st0{display:none;}
	.st1{display:inline;}
	.st2{fill:none;stroke:#000000;stroke-linecap:round;stroke-linejoin:round;stroke-miterlimit:10;}
	.st3{fill:none;stroke:#000000;stroke-linejoin:round;stroke-miterlimit:10;}
</style>
<g id="Filled_Icons" class="st0">
	<g class="st1">
		<path d="M18.5,12H17v9.7c0.6-0.4,1.2-0.8,1.6-1.2h-0.1V12z"/>
		<path d="M3.5,1.6C3,1.4,2.4,1,1.8,0.6c-0.2-0.1-0.4-0.1-0.5,0C1.1,0.7,1,0.8,1,1v10h2.5V1.6z"/>
		<path d="M14.5,23c0.5-0.2,1-0.5,1.5-0.7V12h-1.5V23z"/>
		<path d="M1,16c0.1,0.2,1.6,5.4,10,7.9V12H1C1,12,1,15.9,1,16z"/>
		<path d="M12,23.9c0.5-0.2,1-0.3,1.5-0.5V12H12V23.9z"/>
		<path d="M19.5,19.7c1.9-1.9,2.4-3.6,2.5-3.8c0,0,0-4,0-4h-2.5V19.7z"/>
		<path d="M6,2.4c-0.5,0-1-0.2-1.5-0.3V11H6V2.4z"/>
		<path d="M9.5,1.6V11H11V0.3C10.6,0.8,10.1,1.2,9.5,1.6z"/>
		<path d="M8.5,2.1C8,2.2,7.5,2.3,7,2.4V11h1.5V2.1z"/>
		<path d="M21.7,0.6c-0.2-0.1-0.4-0.1-0.5,0c-1.8,1.2-3.2,1.8-4.7,1.8c-1.7,0-3.4-0.8-4.5-2.1V11h10V1C22,0.8,21.9,0.7,21.7,0.6z"/>
	</g>
</g>
<g id="Outline_Icons">
	<g>
		<path class="st2" d="M16.5,2.9c-2,0-3.8-0.9-5-2.4h0c-1.2,1.5-3,2.4-5,2.4c-1.8,0-3.4-0.7-5-1.8v14.8c0,0,1.4,5.2,10,7.6
			c9.5-2.5,10-7.6,10-7.6V1.1C18.8,2.2,18.2,2.9,16.5,2.9z"/>
		<line class="st2" x1="1.5" y1="11.5" x2="21.4" y2="11.5"/>
		<line class="st2" x1="11.5" y1="0.5" x2="11.5" y2="23.5"/>
		<line class="st3" x1="5.5" y1="2.8" x2="5.5" y2="11.4"/>
		<line class="st3" x1="3.5" y1="2.2" x2="3.5" y2="11.4"/>
		<line class="st3" x1="7.5" y1="2.9" x2="7.5" y2="11.5"/>
		<line class="st3" x1="9.5" y1="2.2" x2="9.5" y2="11.5"/>
		<line class="st3" x1="13.5" y1="11.5" x2="13.5" y2="22.6"/>
		<line class="st3" x1="15.5" y1="11.5" x2="15.5" y2="22"/>
		<line class="st3" x1="17.5" y1="11.5" x2="17.5" y2="21"/>
		<line class="st3" x1="19.5" y1="11.5" x2="19.5" y2="19.6"/>
	</g>
</g>
</svg>
