<?xml version="1.0" encoding="utf-8"?>
<!-- Generator: Adobe Illustrator 19.2.0, SVG Export Plug-In . SVG Version: 6.00 Build 0)  -->
<svg version="1.1" id="Layer_1" xmlns="http://www.w3.org/2000/svg" xmlns:xlink="http://www.w3.org/1999/xlink" x="0px" y="0px"
	 viewBox="0 0 24 24" style="enable-background:new 0 0 24 24;" xml:space="preserve">
<style type="text/css">
	.st0{display:none;}
	.st1{display:inline;}
	.st2{fill:none;stroke:#000000;stroke-linecap:round;stroke-linejoin:round;stroke-miterlimit:10;}
</style>
<g id="Filled_Icons" class="st0">
	<path class="st1" d="M21.6,4.5c-0.1,0-7.4-2-9.8-4.4c-0.2-0.2-0.5-0.2-0.7,0C8.8,2.5,1.4,4.5,1.4,4.5C1.2,4.6,1,4.8,1,5
		C1,13.6,1.8,20.4,11.3,24c0.1,0,0.1,0,0.2,0s0.1,0,0.2,0C21.2,20.4,22,13.6,22,5C22,4.8,21.9,4.6,21.6,4.5z M11.7,21
		c-0.1,0-0.1,0-0.2,0s-0.1,0-0.2,0c-7.1-2.6-7.7-7.7-7.7-14.1c0,0,0,0,0,0l12,12C14.6,19.6,13.3,20.4,11.7,21z M18,15.7L7.5,5.2
		c1.4-0.6,2.9-1.3,3.7-2c0.2-0.2,0.5-0.2,0.7,0C13.6,4.9,19,6.4,19,6.4c0.2,0.1,0.4,0.3,0.4,0.5C19.4,10.2,19.2,13.3,18,15.7z"/>
</g>
<g id="Outline_Icons">
	<g>
		<path class="st2" d="M11.5,0.5L11.5,0.5C9,3,1.5,5,1.5,5c0,8,0.5,15,10,18.5C21,20,21.5,13,21.5,5C21.5,5,14,3,11.5,0.5z"/>
		<path class="st2" d="M11.5,3.5L11.5,3.5C9.7,5.3,4.1,6.8,4.1,6.8c0,5.9,0.4,11.1,7.4,13.7c7-2.6,7.4-7.8,7.4-13.7
			C18.9,6.8,13.3,5.3,11.5,3.5z"/>
		<line class="st2" x1="17.4" y1="15.8" x2="7.3" y2="5.8"/>
		<line class="st2" x1="4.3" y1="6.8" x2="15.6" y2="18.1"/>
	</g>
</g>
</svg>
