<?xml version="1.0" encoding="utf-8"?>
<!-- Generator: Adobe Illustrator 19.2.0, SVG Export Plug-In . SVG Version: 6.00 Build 0)  -->
<svg version="1.1" id="Layer_1" xmlns="http://www.w3.org/2000/svg" xmlns:xlink="http://www.w3.org/1999/xlink" x="0px" y="0px"
	 viewBox="0 0 24 24" style="enable-background:new 0 0 24 24;" xml:space="preserve">
<style type="text/css">
	.st0{display:none;}
	.st1{display:inline;}
	.st2{fill:none;stroke:#000000;stroke-linecap:round;stroke-linejoin:round;stroke-miterlimit:10;}
</style>
<g id="Filled_Icons" class="st0">
	<g class="st1">
		<path d="M12,0C5.4,0,0,5.4,0,12c0,6.6,5.4,12,12,12s12-5.4,12-12S18.6,0,12,0z M12,21.5c-5.2,0-9.5-4.3-9.5-9.5
			c0-5.2,4.3-9.5,9.5-9.5s9.5,4.3,9.5,9.5C21.5,17.2,17.2,21.5,12,21.5z"/>
		<path d="M12,5.5c-3.6,0-6.5,2.9-6.5,6.5s2.9,6.5,6.5,6.5s6.5-2.9,6.5-6.5S15.6,5.5,12,5.5z M16.3,10.9l-2.2,1.7l0.8,2.6
			c0.1,0.2,0,0.4-0.2,0.6c-0.2,0.1-0.4,0.1-0.6,0L12,14.2l-2.2,1.6c-0.1,0.1-0.2,0.1-0.3,0.1c-0.1,0-0.2,0-0.3-0.1
			c-0.2-0.1-0.3-0.4-0.2-0.6l0.8-2.7l-2.2-1.7c-0.2-0.1-0.2-0.4-0.2-0.6S7.8,10,8,10h2.7l0.8-2.6c0.1-0.4,0.8-0.4,1,0l0.8,2.6H16
			c0.2,0,0.4,0.1,0.5,0.3C16.5,10.5,16.5,10.8,16.3,10.9z"/>
	</g>
</g>
<g id="Outline_Icons">
	<g>
		<circle class="st2" cx="12" cy="12" r="11.5"/>
		<circle class="st2" cx="12" cy="12" r="9"/>
		<circle class="st2" cx="12" cy="12" r="6"/>
		<polygon class="st2" points="12,7.6 12.9,10.5 16,10.5 13.5,12.4 14.5,15.4 12,13.6 9.5,15.4 10.5,12.4 8,10.5 11.1,10.5 		"/>
	</g>
</g>
</svg>
