<?xml version="1.0" encoding="utf-8"?>
<!-- Generator: Adobe Illustrator 19.2.0, SVG Export Plug-In . SVG Version: 6.00 Build 0)  -->
<svg version="1.1" id="Layer_1" xmlns="http://www.w3.org/2000/svg" xmlns:xlink="http://www.w3.org/1999/xlink" x="0px" y="0px"
	 viewBox="0 0 24 24" style="enable-background:new 0 0 24 24;" xml:space="preserve">
<style type="text/css">
	.st0{display:none;}
	.st1{display:inline;}
	.st2{fill:none;stroke:#000000;stroke-linecap:round;stroke-linejoin:round;stroke-miterlimit:10;}
	.st3{fill:none;stroke:#000000;stroke-linejoin:round;stroke-miterlimit:10;}
</style>
<g id="Filled_Icons" class="st0">
	<path class="st1" d="M11.5,0C5.2,0,0,5.2,0,11.5C0,17.8,5.2,23,11.5,23S23,17.8,23,11.5C23,5.2,17.8,0,11.5,0z M2.5,12
		C2.2,12,2,11.8,2,11.5C2,11.3,2.2,11,2.5,11C2.7,11,3,11.3,3,11.5C3,11.8,2.7,12,2.5,12z M11.5,2C11.8,2,12,2.2,12,2.5
		S11.8,3,11.5,3C11.2,3,11,2.8,11,2.5S11.2,2,11.5,2z M4.8,4.8c0.2-0.2,0.5-0.2,0.7,0c0.2,0.2,0.2,0.5,0,0.7s-0.5,0.2-0.7,0
		C4.6,5.3,4.6,5,4.8,4.8z M5.5,18.3c-0.2,0.2-0.5,0.2-0.7,0c-0.2-0.2-0.2-0.5,0-0.7c0.2-0.2,0.5-0.2,0.7,0
		C5.7,17.8,5.7,18.1,5.5,18.3z M7,16.2c-1.2-1.2-2-2.8-2-4.7S5.8,8,7,6.8V16.2z M8,6c0.9-0.6,1.9-0.9,3-1V18c-1.1-0.1-2.1-0.4-3-1V6
		z M11.5,21.1c-0.3,0-0.5-0.2-0.5-0.5c0-0.3,0.2-0.5,0.5-0.5c0.3,0,0.5,0.2,0.5,0.5C12,20.9,11.8,21.1,11.5,21.1z M15,17
		c-0.9,0.6-1.9,0.9-3,1V5c1.1,0.1,2.1,0.4,3,1V17z M16,6.8c1.2,1.2,2,2.8,2,4.7c0,1.8-0.8,3.5-2,4.7V6.8z M18.2,18.3
		c-0.2,0.2-0.5,0.2-0.7,0s-0.2-0.5,0-0.7c0.2-0.2,0.5-0.2,0.7,0C18.4,17.8,18.4,18.1,18.2,18.3z M18.2,5.5c-0.2,0.2-0.5,0.2-0.7,0
		s-0.2-0.5,0-0.7c0.2-0.2,0.5-0.2,0.7,0C18.4,5,18.4,5.3,18.2,5.5z M20.5,12c-0.3,0-0.5-0.2-0.5-0.5c0-0.3,0.2-0.5,0.5-0.5
		s0.5,0.2,0.5,0.5C21,11.8,20.8,12,20.5,12z"/>
</g>
<g id="Outline_Icons">
	<g>
		<circle class="st2" cx="11.5" cy="11.5" r="11"/>
		<circle class="st2" cx="11.5" cy="11.5" r="7"/>
		<line class="st3" x1="7.5" y1="5.8" x2="7.5" y2="17.2"/>
		<line class="st3" x1="11.5" y1="4.5" x2="11.5" y2="18.5"/>
		<line class="st3" x1="15.5" y1="5.8" x2="15.5" y2="17.2"/>
		<g>
			<path d="M11.5,2C11.2,2,11,2.2,11,2.5C11,2.8,11.2,3,11.5,3C11.8,3,12,2.8,12,2.5C12,2.2,11.8,2,11.5,2L11.5,2z"/>
		</g>
		<g>
			<path d="M17.9,4.6c-0.1,0-0.3,0-0.4,0.1c-0.2,0.2-0.2,0.5,0,0.7c0.1,0.1,0.2,0.1,0.4,0.1c0.1,0,0.3,0,0.4-0.1
				c0.2-0.2,0.2-0.5,0-0.7C18.1,4.7,18,4.6,17.9,4.6L17.9,4.6z"/>
		</g>
		<g>
			<path d="M20.5,11c-0.3,0-0.5,0.2-0.5,0.5s0.2,0.5,0.5,0.5s0.5-0.2,0.5-0.5S20.8,11,20.5,11L20.5,11z"/>
		</g>
		<g>
			<path d="M17.9,17.4c-0.1,0-0.3,0-0.4,0.1c-0.2,0.2-0.2,0.5,0,0.7c0.1,0.1,0.2,0.1,0.4,0.1c0.1,0,0.3,0,0.4-0.1
				c0.2-0.2,0.2-0.5,0-0.7C18.1,17.5,18,17.4,17.9,17.4L17.9,17.4z"/>
		</g>
		<g>
			<path d="M11.5,20.1c-0.3,0-0.5,0.2-0.5,0.5c0,0.3,0.2,0.5,0.5,0.5c0.3,0,0.5-0.2,0.5-0.5C12,20.3,11.8,20.1,11.5,20.1L11.5,20.1z
				"/>
		</g>
		<g>
			<path d="M5.1,17.4c-0.1,0-0.3,0-0.4,0.1c-0.2,0.2-0.2,0.5,0,0.7c0.1,0.1,0.2,0.1,0.4,0.1c0.1,0,0.3,0,0.4-0.1
				c0.2-0.2,0.2-0.5,0-0.7C5.4,17.5,5.2,17.4,5.1,17.4L5.1,17.4z"/>
		</g>
		<g>
			<path d="M2.5,11C2.2,11,2,11.3,2,11.5S2.2,12,2.5,12C2.7,12,3,11.8,3,11.5S2.7,11,2.5,11L2.5,11z"/>
		</g>
		<g>
			<path d="M5.1,4.6c-0.1,0-0.3,0-0.4,0.1C4.6,5,4.6,5.3,4.8,5.5C4.9,5.6,5,5.6,5.1,5.6s0.3,0,0.4-0.1c0.2-0.2,0.2-0.5,0-0.7
				C5.4,4.7,5.2,4.6,5.1,4.6L5.1,4.6z"/>
		</g>
	</g>
	<g>
		<circle class="st2" cx="11.5" cy="11.5" r="11"/>
		<circle class="st2" cx="11.5" cy="11.5" r="7"/>
		<line class="st3" x1="7.5" y1="5.8" x2="7.5" y2="17.2"/>
		<line class="st3" x1="11.5" y1="4.5" x2="11.5" y2="18.5"/>
		<line class="st3" x1="15.5" y1="5.8" x2="15.5" y2="17.2"/>
		<g>
			<path d="M11.5,2C11.2,2,11,2.2,11,2.5C11,2.8,11.2,3,11.5,3C11.8,3,12,2.8,12,2.5C12,2.2,11.8,2,11.5,2L11.5,2z"/>
		</g>
		<g>
			<path d="M17.9,4.6c-0.1,0-0.3,0-0.4,0.1c-0.2,0.2-0.2,0.5,0,0.7c0.1,0.1,0.2,0.1,0.4,0.1c0.1,0,0.3,0,0.4-0.1
				c0.2-0.2,0.2-0.5,0-0.7C18.1,4.7,18,4.6,17.9,4.6L17.9,4.6z"/>
		</g>
		<g>
			<path d="M20.5,11c-0.3,0-0.5,0.2-0.5,0.5s0.2,0.5,0.5,0.5s0.5-0.2,0.5-0.5S20.8,11,20.5,11L20.5,11z"/>
		</g>
		<g>
			<path d="M17.9,17.4c-0.1,0-0.3,0-0.4,0.1c-0.2,0.2-0.2,0.5,0,0.7c0.1,0.1,0.2,0.1,0.4,0.1c0.1,0,0.3,0,0.4-0.1
				c0.2-0.2,0.2-0.5,0-0.7C18.1,17.5,18,17.4,17.9,17.4L17.9,17.4z"/>
		</g>
		<g>
			<path d="M11.5,20.1c-0.3,0-0.5,0.2-0.5,0.5c0,0.3,0.2,0.5,0.5,0.5c0.3,0,0.5-0.2,0.5-0.5C12,20.3,11.8,20.1,11.5,20.1L11.5,20.1z
				"/>
		</g>
		<g>
			<path d="M5.1,17.4c-0.1,0-0.3,0-0.4,0.1c-0.2,0.2-0.2,0.5,0,0.7c0.1,0.1,0.2,0.1,0.4,0.1c0.1,0,0.3,0,0.4-0.1
				c0.2-0.2,0.2-0.5,0-0.7C5.4,17.5,5.2,17.4,5.1,17.4L5.1,17.4z"/>
		</g>
		<g>
			<path d="M2.5,11C2.2,11,2,11.3,2,11.5S2.2,12,2.5,12C2.7,12,3,11.8,3,11.5S2.7,11,2.5,11L2.5,11z"/>
		</g>
		<g>
			<path d="M5.1,4.6c-0.1,0-0.3,0-0.4,0.1C4.6,5,4.6,5.3,4.8,5.5C4.9,5.6,5,5.6,5.1,5.6s0.3,0,0.4-0.1c0.2-0.2,0.2-0.5,0-0.7
				C5.4,4.7,5.2,4.6,5.1,4.6L5.1,4.6z"/>
		</g>
	</g>
</g>
</svg>
