<?xml version="1.0" encoding="utf-8"?>
<!-- Generator: Adobe Illustrator 19.2.0, SVG Export Plug-In . SVG Version: 6.00 Build 0)  -->
<svg version="1.1" id="Layer_1" xmlns="http://www.w3.org/2000/svg" xmlns:xlink="http://www.w3.org/1999/xlink" x="0px" y="0px"
	 viewBox="0 0 24 24" style="enable-background:new 0 0 24 24;" xml:space="preserve">
<style type="text/css">
	.st0{display:none;}
	.st1{display:inline;}
	.st2{fill:none;stroke:#000000;stroke-linejoin:round;stroke-miterlimit:10;}
	.st3{fill:none;stroke:#000000;stroke-linecap:round;stroke-linejoin:round;stroke-miterlimit:10;}
</style>
<g id="Filled_Icons" class="st0">
	<path class="st1" d="M21.6,4.5c-0.1,0-7.4-2-9.8-4.4c-0.2-0.2-0.5-0.2-0.7,0C8.8,2.5,1.4,4.5,1.4,4.5C1.2,4.6,1,4.8,1,5
		C1,13.6,1.8,20.4,11.3,24c0.1,0,0.1,0,0.2,0s0.1,0,0.2,0C21.2,20.4,22,13.6,22,5C22,4.8,21.9,4.6,21.6,4.5z M11.5,18.5
		c-2.6,0-4.7-2.1-4.7-4.7c0-1.8,1-3.4,2.9-4.1c0.1,0.8,0.6,1.3,1.2,1.8c0.8-1.3,1-4.3-1.2-5.9c3.7,0.9,6.5,4.5,6.5,8.3
		C16.2,16.4,14.1,18.5,11.5,18.5z"/>
</g>
<g id="Outline_Icons">
	<g>
		<path class="st2" d="M9.7,5.5c2.1,1.6,2,4.6,1.2,5.9c-0.6-0.5-1.1-1-1.2-1.8c-2,0.8-2.9,2.3-2.9,4.1c0,2.6,2.1,4.7,4.7,4.7
			s4.7-2.1,4.7-4.7C16.2,10,13.5,6.4,9.7,5.5z"/>
		<path class="st3" d="M11.5,0.5L11.5,0.5C9,3,1.5,5,1.5,5c0,8,0.5,15,10,18.5C21,20,21.5,13,21.5,5C21.5,5,14,3,11.5,0.5z"/>
	</g>
	<g>
		<path class="st2" d="M9.7,5.5c2.1,1.6,2,4.6,1.2,5.9c-0.6-0.5-1.1-1-1.2-1.8c-2,0.8-2.9,2.3-2.9,4.1c0,2.6,2.1,4.7,4.7,4.7
			s4.7-2.1,4.7-4.7C16.2,10,13.5,6.4,9.7,5.5z"/>
		<path class="st3" d="M11.5,0.5L11.5,0.5C9,3,1.5,5,1.5,5c0,8,0.5,15,10,18.5C21,20,21.5,13,21.5,5C21.5,5,14,3,11.5,0.5z"/>
	</g>
</g>
</svg>
