<?xml version="1.0" encoding="utf-8"?>
<!-- Generator: Adobe Illustrator 19.2.0, SVG Export Plug-In . SVG Version: 6.00 Build 0)  -->
<svg version="1.1" id="Layer_1" xmlns="http://www.w3.org/2000/svg" xmlns:xlink="http://www.w3.org/1999/xlink" x="0px" y="0px"
	 viewBox="0 0 24 24" style="enable-background:new 0 0 24 24;" xml:space="preserve">
<style type="text/css">
	.st0{display:none;}
	.st1{display:inline;}
	.st2{fill:none;stroke:#000000;stroke-linecap:round;stroke-linejoin:round;stroke-miterlimit:10;}
</style>
<g id="Filled_Icons" class="st0">
	<g class="st1">
		<path d="M9.5,8.5V1.4C6.4,3.2,1.4,4.5,1.4,4.6C1.2,4.6,1,4.8,1,5c0,1.2,0,2.3,0.1,3.5C1.1,8.5,9.5,8.5,9.5,8.5z"/>
		<path d="M13.5,8.5h8.4C22,7.4,22,6.2,22,5c0-0.2-0.1-0.4-0.4-0.5c-0.1,0-5.1-1.4-8.1-3.2C13.5,1.4,13.5,8.5,13.5,8.5z"/>
		<path d="M9.5,12.5h-8c0.8,4.6,2.8,8.2,8,10.7V12.5z"/>
		<path d="M13.5,12.5v10.7c5.2-2.5,7.3-6.2,8-10.7C21.5,12.5,13.5,12.5,13.5,12.5z"/>
	</g>
</g>
<g id="Outline_Icons">
	<g>
		<path class="st2" d="M11.5,0.5L11.5,0.5C9,3,1.5,5,1.5,5c0,8,0.5,15,10,18.5C21,20,21.5,13,21.5,5C21.5,5,14,3,11.5,0.5z"/>
		<polyline class="st2" points="1.6,8.5 9.5,8.5 9.5,1.9 		"/>
		<polyline class="st2" points="21.4,8.5 13.5,8.5 13.5,1.9 		"/>
		<polyline class="st2" points="2,12.5 9.5,12.5 9.5,22.7 		"/>
		<polyline class="st2" points="21,12.5 13.5,12.5 13.5,22.7 		"/>
	</g>
</g>
</svg>
