<?xml version="1.0" encoding="utf-8"?>
<!-- Generator: Adobe Illustrator 19.2.0, SVG Export Plug-In . SVG Version: 6.00 Build 0)  -->
<svg version="1.1" id="Layer_1" xmlns="http://www.w3.org/2000/svg" xmlns:xlink="http://www.w3.org/1999/xlink" x="0px" y="0px"
	 viewBox="0 0 24 24" style="enable-background:new 0 0 24 24;" xml:space="preserve">
<style type="text/css">
	.st0{display:none;}
	.st1{display:inline;}
	.st2{fill:none;stroke:#000000;stroke-linecap:round;stroke-linejoin:round;stroke-miterlimit:10;}
</style>
<g id="Filled_Icons" class="st0">
	<path class="st1" d="M23.8,10.4l-5.5-5.3C18.3,5.1,18.1,5,18,5h-1c0-0.1,0-0.2-0.1-0.3l-1.5-1.5c0,0,0,0-0.1,0s0,0-0.1,0
		C15.2,3,15.1,3,15,3H9C8.9,3,8.8,3,8.8,3.1c0,0,0,0-0.1,0c0,0,0,0-0.1,0L7.1,4.7C7.1,4.8,7,4.9,7,5H6C5.9,5,5.7,5.1,5.7,5.1
		l-5.5,5.3C0.1,10.5,0,10.6,0,10.8c0,0.1,0.1,0.3,0.2,0.4l3,2.9c0.2,0.2,0.5,0.2,0.7,0l2.1-1.8L5,21.5c0,0.1,0,0.3,0.1,0.4
		C5.2,21.9,5.4,22,5.5,22h13c0.1,0,0.3-0.1,0.4-0.2c0.1-0.1,0.1-0.2,0.1-0.4l-0.9-9.3l2.1,1.7c0.2,0.2,0.5,0.2,0.7,0l3-2.8
		c0.1-0.1,0.2-0.2,0.2-0.4C24,10.6,23.9,10.5,23.8,10.4z M13.8,4L12,5.8L10.2,4H13.8z M8.2,5L9,4.2l2.3,2.3l-0.8,0.8L8.2,5z
		 M13.4,15.7l-1,2C12.4,17.9,12.2,18,12,18s-0.4-0.1-0.4-0.3l-1-2c0-0.1-0.1-0.2,0-0.3l1-8C11.5,7.2,11.7,7,12,7s0.5,0.2,0.5,0.4
		l1,8C13.5,15.5,13.5,15.6,13.4,15.7z M13.5,7.3l-0.8-0.8L15,4.2L15.8,5L13.5,7.3z"/>
</g>
<g id="Outline_Icons">
	<g>
		<polyline class="st2" points="8,5.5 6,5.5 0.5,10.8 3.5,13.6 6.5,11 5.5,21.5 18.5,21.5 17.5,11 20.5,13.5 23.5,10.8 18,5.5 
			16,5.5 		"/>
		<polygon class="st2" points="12,6.5 9,3.5 15,3.5 		"/>
		
			<rect x="12.1" y="4.7" transform="matrix(0.7072 -0.707 0.707 0.7072 9.917653e-02 11.7613)" class="st2" width="4.2" height="2.1"/>
		<rect x="8.7" y="3.6" transform="matrix(0.7071 -0.7071 0.7071 0.7071 -1.2183 8.5805)" class="st2" width="2.1" height="4.2"/>
		<polygon class="st2" points="12,6.5 10,15.5 12,18.5 14,15.5 		"/>
	</g>
</g>
</svg>
