<?xml version="1.0" encoding="utf-8"?>
<!-- Generator: Adobe Illustrator 19.2.0, SVG Export Plug-In . SVG Version: 6.00 Build 0)  -->
<svg version="1.1" id="Layer_1" xmlns="http://www.w3.org/2000/svg" xmlns:xlink="http://www.w3.org/1999/xlink" x="0px" y="0px"
	 viewBox="0 0 24 24" style="enable-background:new 0 0 24 24;" xml:space="preserve">
<style type="text/css">
	.st0{display:none;}
	.st1{display:inline;}
	.st2{fill:none;stroke:#000000;stroke-linecap:round;stroke-linejoin:round;stroke-miterlimit:10;}
</style>
<g id="Filled_Icons" class="st0">
	<path class="st1" d="M23.4,9.2l-5.5-5.5c-0.1-0.1-0.2-0.1-0.4-0.1h-1.3l-1.4-1.4C14.8,2.1,14.6,2,14.5,2h-6C8.4,2,8.2,2.1,8.1,2.2
		L6.8,3.5H5.5c-0.1,0-0.3,0.1-0.4,0.1l-5.5,5.5c-0.2,0.2-0.2,0.5,0,0.7l3,3c0.2,0.2,0.5,0.2,0.7,0l2.1-1.6v11.3
		C5.5,22.8,5.7,23,6,23h5V7c0-0.3,0.2-0.5,0.5-0.5C11.8,6.5,12,6.7,12,7v16h5c0.3,0,0.5-0.2,0.5-0.5V11.2l2.2,1.6
		c0.2,0.2,0.5,0.2,0.7,0l3-3C23.5,9.7,23.5,9.3,23.4,9.2z M10,6.3L7.7,4l0.8-0.8l2.3,2.3L10,6.3z M11.5,4.8L9.7,3h3.6L11.5,4.8z
		 M13,18.5c-0.3,0-0.5-0.2-0.5-0.5s0.2-0.5,0.5-0.5c0.3,0,0.5,0.2,0.5,0.5S13.3,18.5,13,18.5z M13,16.5c-0.3,0-0.5-0.2-0.5-0.5
		s0.2-0.5,0.5-0.5c0.3,0,0.5,0.2,0.5,0.5S13.3,16.5,13,16.5z M13,14.5c-0.3,0-0.5-0.2-0.5-0.5s0.2-0.5,0.5-0.5
		c0.3,0,0.5,0.2,0.5,0.5C13.5,14.3,13.3,14.5,13,14.5z M13,12.5c-0.3,0-0.5-0.2-0.5-0.5s0.2-0.5,0.5-0.5c0.3,0,0.5,0.2,0.5,0.5
		S13.3,12.5,13,12.5z M13,10.5c-0.3,0-0.5-0.2-0.5-0.5s0.2-0.5,0.5-0.5c0.3,0,0.5,0.2,0.5,0.5S13.3,10.5,13,10.5z M13,6.3l-0.8-0.8
		l2.3-2.3L15.3,4L13,6.3z"/>
</g>
<g id="Outline_Icons">
	<g>
		<polyline class="st2" points="7,4 5.5,4 0.5,9.5 3,12.5 5.5,10 5.5,22.5 11.5,22.5 17.5,22.5 17.5,10 20,12.5 22.5,9.5 17.5,4 
			16,4 		"/>
		<polygon class="st2" points="11.5,5.5 8.5,2.5 14.5,2.5 		"/>
		<rect x="11.6" y="3.7" transform="matrix(0.7071 -0.7071 0.7071 0.7071 0.6683 11.1128)" class="st2" width="4.2" height="2.1"/>
		<rect x="8.2" y="2.6" transform="matrix(0.7071 -0.7071 0.7071 0.7071 -0.6502 7.9311)" class="st2" width="2.1" height="4.2"/>
		<line class="st2" x1="11.5" y1="22.5" x2="11.5" y2="5.5"/>
		<g>
			<g>
				<path d="M13,10c-0.3,0-0.5,0.2-0.5,0.5c0,0.3,0.2,0.5,0.5,0.5c0.3,0,0.5-0.2,0.5-0.5C13.5,10.2,13.3,10,13,10L13,10z"/>
			</g>
		</g>
		<g>
			<g>
				<path d="M13,12c-0.3,0-0.5,0.2-0.5,0.5c0,0.3,0.2,0.5,0.5,0.5c0.3,0,0.5-0.2,0.5-0.5C13.5,12.2,13.3,12,13,12L13,12z"/>
			</g>
		</g>
		<g>
			<g>
				<path d="M13,14c-0.3,0-0.5,0.2-0.5,0.5c0,0.3,0.2,0.5,0.5,0.5c0.3,0,0.5-0.2,0.5-0.5C13.5,14.2,13.3,14,13,14L13,14z"/>
			</g>
		</g>
		<g>
			<g>
				<path d="M13,16c-0.3,0-0.5,0.2-0.5,0.5c0,0.3,0.2,0.5,0.5,0.5c0.3,0,0.5-0.2,0.5-0.5C13.5,16.2,13.3,16,13,16L13,16z"/>
			</g>
		</g>
		<g>
			<g>
				<path d="M13,18c-0.3,0-0.5,0.2-0.5,0.5c0,0.3,0.2,0.5,0.5,0.5c0.3,0,0.5-0.2,0.5-0.5C13.5,18.2,13.3,18,13,18L13,18z"/>
			</g>
		</g>
	</g>
</g>
</svg>
