<?xml version="1.0" encoding="utf-8"?>
<!-- Generator: Adobe Illustrator 19.2.0, SVG Export Plug-In . SVG Version: 6.00 Build 0)  -->
<svg version="1.1" id="Layer_1" xmlns="http://www.w3.org/2000/svg" xmlns:xlink="http://www.w3.org/1999/xlink" x="0px" y="0px"
	 viewBox="0 0 24 24" style="enable-background:new 0 0 24 24;" xml:space="preserve">
<style type="text/css">
	.st0{display:none;}
	.st1{display:inline;}
	.st2{fill:none;stroke:#000000;stroke-linecap:round;stroke-linejoin:round;stroke-miterlimit:10;}
	.st3{fill:none;stroke:#000000;stroke-linejoin:round;stroke-miterlimit:10;}
</style>
<g id="Filled_Icon" class="st0">
	<g class="st1">
		<path d="M5.5,7C5.8,7,6,6.8,6,6.5V5c0-2.2,1.8-4,4-4s4,1.8,4,4v1.5C14,6.8,14.2,7,14.5,7S15,6.8,15,6.5V5c0-2.8-2.2-5-5-5
			S5,2.2,5,5v1.5C5,6.8,5.2,7,5.5,7z"/>
		<path d="M10,16.5c0-0.3,0.2-0.5,0.5-0.5H20V8.5C20,8.2,19.8,8,19.5,8h-19C0.2,8,0,8.2,0,8.5v15C0,23.8,0.2,24,0.5,24H10V16.5z"/>
		<g>
			<rect x="13" y="23" width="1" height="1"/>
		</g>
		<g>
			<rect x="15" y="23" width="1" height="1"/>
		</g>
		<g>
			<rect x="19" y="23" width="1" height="1"/>
		</g>
		<g>
			<rect x="21" y="23" width="1" height="1"/>
		</g>
		<g>
			<rect x="13" y="17" width="1" height="5"/>
		</g>
		<g>
			<rect x="11" y="17" width="1" height="7"/>
		</g>
		<g>
			<rect x="15" y="17" width="1" height="5"/>
		</g>
		<g>
			<rect x="17" y="17" width="1" height="7"/>
		</g>
		<g>
			<rect x="19" y="17" width="1" height="5"/>
		</g>
		<g>
			<rect x="21" y="17" width="1" height="5"/>
		</g>
		<g>
			<rect x="23" y="17" width="1" height="7"/>
		</g>
	</g>
</g>
<g id="Outline_Icons">
	<g>
		<g>
			<polygon points="14,23 13,23 13,24 14,24 			"/>
		</g>
		<g>
			<polygon points="16,23 15,23 15,24 16,24 			"/>
		</g>
		<g>
			<polygon points="20,23 19,23 19,24 20,24 			"/>
		</g>
		<g>
			<polygon points="22,23 21,23 21,24 22,24 			"/>
		</g>
		<polyline class="st2" points="9.5,23.5 0.5,23.5 0.5,8.5 19.5,8.5 19.5,15.5 		"/>
		<path class="st2" d="M5.5,6.5V5c0-2.5,2-4.5,4.5-4.5s4.5,2,4.5,4.5v1.5"/>
		<line class="st3" x1="13.5" y1="17" x2="13.5" y2="22"/>
		<line class="st3" x1="11.5" y1="17" x2="11.5" y2="24"/>
		<line class="st3" x1="15.5" y1="17" x2="15.5" y2="22"/>
		<line class="st3" x1="17.5" y1="17" x2="17.5" y2="24"/>
		<line class="st3" x1="19.5" y1="17" x2="19.5" y2="22"/>
		<line class="st3" x1="21.5" y1="17" x2="21.5" y2="22"/>
		<line class="st3" x1="23.5" y1="17" x2="23.5" y2="24"/>
	</g>
</g>
</svg>
