<?xml version="1.0" encoding="utf-8"?>
<!-- Generator: Adobe Illustrator 19.2.0, SVG Export Plug-In . SVG Version: 6.00 Build 0)  -->
<svg version="1.1" id="Layer_1" xmlns="http://www.w3.org/2000/svg" xmlns:xlink="http://www.w3.org/1999/xlink" x="0px" y="0px"
	 viewBox="0 0 24 24" style="enable-background:new 0 0 24 24;" xml:space="preserve">
<style type="text/css">
	.st0{display:none;}
	.st1{display:inline;}
	.st2{fill:none;stroke:#000000;stroke-linecap:round;stroke-linejoin:round;stroke-miterlimit:10;}
	.st3{fill:none;stroke:#000000;stroke-linejoin:round;stroke-miterlimit:10;}
</style>
<g id="Filled_Icon" class="st0">
	<g class="st1">
		<path d="M6,8V6H2.8C2.7,6,2.6,6,2.5,6.1L0.3,8H6z"/>
		<rect x="9" y="6" width="6" height="2"/>
		<g>
			<path d="M8,8V6c0-2.2,1.8-4,4-4s4,1.8,4,4v2h1V6c0-2.8-2.2-5-5-5S7,3.3,7,6v2H8z"/>
		</g>
		<path d="M23.7,8l-2-1.8C21.6,6.1,21.5,6,21.4,6H18v2H23.7z"/>
		<path d="M0,9v14.5C0,23.8,0.2,24,0.5,24h23c0.3,0,0.5-0.2,0.5-0.5V9H0z M12.3,21.5c-0.1,0.1-0.2,0.1-0.3,0.1s-0.2,0-0.3-0.1
			c-0.5-0.4-5.2-3.8-5.2-6.7c0-2,1.5-3.2,3-3.2c0.9,0,1.9,0.4,2.5,1.6c0.7-1.1,1.7-1.6,2.5-1.6c1.5,0,3,1.2,3,3.2
			C17.5,17.6,12.8,21.1,12.3,21.5z"/>
	</g>
</g>
<g id="Outline_Icons">
	<g>
		<path class="st2" d="M12,21.1c0,0,5-3.6,5-6.3c0-3.1-4.1-4-5-0.3c-0.9-3.7-5-2.8-5,0.3C7,17.5,12,21.1,12,21.1z"/>
		<rect x="0.5" y="8.5" class="st2" width="23" height="15"/>
		<path class="st2" d="M16.5,6c0-2.5-2-4.5-4.5-4.5S7.5,3.5,7.5,6v2.5h9V6z"/>
		<polyline class="st3" points="18,6.5 21.4,6.5 23.5,8.5 		"/>
		<line class="st3" x1="9" y1="6.5" x2="15" y2="6.5"/>
		<polyline class="st3" points="0.5,8.5 2.8,6.5 6,6.5 		"/>
	</g>
</g>
</svg>
