<?xml version="1.0" encoding="utf-8"?>
<!-- Generator: Adobe Illustrator 19.2.0, SVG Export Plug-In . SVG Version: 6.00 Build 0)  -->
<svg version="1.1" id="Layer_1" xmlns="http://www.w3.org/2000/svg" xmlns:xlink="http://www.w3.org/1999/xlink" x="0px" y="0px"
	 viewBox="0 0 24 24" style="enable-background:new 0 0 24 24;" xml:space="preserve">
<style type="text/css">
	.st0{display:none;}
	.st1{display:inline;}
	.st2{fill:none;stroke:#000000;stroke-linecap:round;stroke-linejoin:round;stroke-miterlimit:10;}
	.st3{fill:none;stroke:#000000;stroke-linejoin:round;stroke-miterlimit:10;}
</style>
<g id="Filled_Icon" class="st0">
	<g class="st1">
		<path d="M13.1,17H8.4l-0.2-1h5.3c0.8-1.8,2.5-3,4.6-3c1.3,0,2.5,0.5,3.4,1.4L24,6.7c0.1-0.2,0-0.3-0.1-0.5C23.8,6.1,23.7,6,23.5,6
			H5.8L4.5,0.4C4.4,0.2,4.2,0,4,0H0.5C0.2,0,0,0.2,0,0.5S0.2,1,0.5,1h3.1l3.8,16.1C6.6,17.4,6,18.1,6,19c0,1.1,0.9,2,2,2s2-0.9,2-2
			c0-0.4-0.1-0.7-0.3-1H13C13,17.7,13,17.3,13.1,17z"/>
		<path d="M23.8,23.1l-2.7-2.7c0.5-0.7,0.9-1.5,0.9-2.4c0-2.2-1.8-4-4-4s-4,1.8-4,4s1.8,4,4,4c0.9,0,1.8-0.3,2.4-0.9l2.7,2.7
			c0.1,0.1,0.2,0.1,0.4,0.1c0.1,0,0.3,0,0.4-0.1C24,23.7,24,23.3,23.8,23.1z M15,18c0-1.7,1.3-3,3-3s3,1.3,3,3
			c0,0.8-0.3,1.5-0.9,2.1l0,0l0,0C19.5,20.7,18.8,21,18,21C16.3,21,15,19.7,15,18z"/>
	</g>
</g>
<g id="Outline_Icons">
	<g>
		<g>
			<circle class="st2" cx="8" cy="19" r="1.5"/>
			<polyline class="st2" points="0.5,0.5 4,0.5 8,17.5 12,17.5 			"/>
			<polyline class="st2" points="22,11 23.5,6.5 5.5,6.5 			"/>
			<line class="st2" x1="7.3" y1="14.5" x2="12" y2="14.5"/>
		</g>
		<g>
			<circle class="st3" cx="18" cy="18" r="3.5"/>
			<line class="st2" x1="23.5" y1="23.5" x2="20.5" y2="20.5"/>
		</g>
	</g>
</g>
</svg>
