<?xml version="1.0" encoding="utf-8"?>
<!-- Generator: Adobe Illustrator 19.2.0, SVG Export Plug-In . SVG Version: 6.00 Build 0)  -->
<svg version="1.1" id="Layer_1" xmlns="http://www.w3.org/2000/svg" xmlns:xlink="http://www.w3.org/1999/xlink" x="0px" y="0px"
	 viewBox="0 0 24 24" style="enable-background:new 0 0 24 24;" xml:space="preserve">
<style type="text/css">
	.st0{display:none;}
	.st1{display:inline;}
	.st2{fill:none;stroke:#000000;stroke-linecap:round;stroke-linejoin:round;stroke-miterlimit:10;}
</style>
<g id="Filled_Icon" class="st0">
	<g class="st1">
		<circle cx="16" cy="22" r="2"/>
		<circle cx="5" cy="22" r="2"/>
		<path d="M23,2h-1.5c-0.5,0-0.9,0.4-1,0.9L18.6,17H1c-0.6,0-1,0.4-1,1s0.4,1,1,1h18.5c0.5,0,0.9-0.4,1-0.9L22.4,4H23
			c0.6,0,1-0.4,1-1S23.6,2,23,2z"/>
		<path d="M8.3,15.2c0.4,0.4,1,0.4,1.4,0l5-5c0.4-0.4,0.4-1,0-1.4s-1-0.4-1.4,0L10,12.1V1c0-0.6-0.4-1-1-1S8,0.4,8,1v11.1L4.7,8.8
			c-0.4-0.4-1-0.4-1.4,0s-0.4,1,0,1.4L8.3,15.2z"/>
	</g>
</g>
<g id="Outline_Icons">
	<g>
		<circle class="st2" cx="16" cy="22" r="1.5"/>
		<circle class="st2" cx="5" cy="22" r="1.5"/>
		<polyline class="st2" points="23.5,3.5 22,3.5 20,18.5 0.5,18.5 		"/>
		<polyline class="st2" points="14.5,9.5 9.5,14.5 4.5,9.5 		"/>
		<line class="st2" x1="9.5" y1="14.5" x2="9.5" y2="0.5"/>
	</g>
</g>
</svg>
