<?xml version="1.0" encoding="utf-8"?>
<!-- Generator: Adobe Illustrator 19.2.0, SVG Export Plug-In . SVG Version: 6.00 Build 0)  -->
<svg version="1.1" id="Outline_Icons" xmlns="http://www.w3.org/2000/svg" xmlns:xlink="http://www.w3.org/1999/xlink" x="0px"
	 y="0px" viewBox="0 0 24 24" style="enable-background:new 0 0 24 24;" xml:space="preserve">
<style type="text/css">
	.st0{fill:none;stroke:#000000;stroke-linecap:round;stroke-linejoin:round;stroke-miterlimit:10;}
</style>
<g>
	<rect x="0.5" y="7.5" class="st0" width="23" height="16"/>
	<path class="st0" d="M16.5,6c0-2.5-2-4.5-4.5-4.5S7.5,3.5,7.5,6v1.5h9V6z"/>
	<g>
		<polyline class="st0" points="15.2,20.5 13.5,20.5 13.5,16.5 15.2,16.5 		"/>
		<line class="st0" x1="13.5" y1="18.5" x2="14.8" y2="18.5"/>
	</g>
	<g>
		<polyline class="st0" points="19.2,20.5 17.5,20.5 17.5,16.5 19.2,16.5 		"/>
		<line class="st0" x1="17.5" y1="18.5" x2="18.8" y2="18.5"/>
	</g>
	<g>
		<polyline class="st0" points="4.5,20.5 4.5,16.5 6.2,16.5 		"/>
		<line class="st0" x1="4.5" y1="18.5" x2="5.8" y2="18.5"/>
	</g>
	<path class="st0" d="M4.5,14.5v-4h0.7c0.9,0,1.3,0.9,1.3,2s-0.5,2-1.3,2H4.5z"/>
	<g>
		<path class="st0" d="M8.5,20.5v-4h0.9c0.8,0,0.9,0.4,0.9,1c0,0.5-0.1,1-0.9,1H8.5"/>
		<line class="st0" x1="9.4" y1="18.5" x2="10.4" y2="20.5"/>
	</g>
	<g>
		<line class="st0" x1="14.5" y1="14.5" x2="14.5" y2="10.5"/>
		<line class="st0" x1="13.6" y1="10.5" x2="15.4" y2="10.5"/>
	</g>
	<path class="st0" d="M9.5,10.5v3.1c0,0,0,0.9,1,0.9s1-0.9,1-0.9v-3.1"/>
	<g>
		<line class="st0" x1="18.5" y1="14.5" x2="18.5" y2="12.5"/>
		<polyline class="st0" points="17.6,10.5 18.5,12.5 19.4,10.5 		"/>
	</g>
</g>
</svg>
