<?xml version="1.0" encoding="utf-8"?>
<!-- Generator: Adobe Illustrator 19.2.0, SVG Export Plug-In . SVG Version: 6.00 Build 0)  -->
<svg version="1.1" id="Layer_1" xmlns="http://www.w3.org/2000/svg" xmlns:xlink="http://www.w3.org/1999/xlink" x="0px" y="0px"
	 viewBox="0 0 24 24" style="enable-background:new 0 0 24 24;" xml:space="preserve">
<style type="text/css">
	.st0{display:none;}
	.st1{display:inline;}
	.st2{fill:none;stroke:#000000;stroke-linecap:round;stroke-linejoin:round;stroke-miterlimit:10;}
</style>
<g id="Filled_Icon" class="st0">
	<g class="st1">
		<circle cx="16" cy="22" r="2"/>
		<circle cx="5" cy="22" r="2"/>
		<path d="M23,0.5h-1.5c-0.5,0-0.9,0.4-1,0.9l-1.9,16.1H1c-0.6,0-1,0.4-1,1s0.4,1,1,1h18.5c0.5,0,0.9-0.4,1-0.9l1.9-16.1H23
			c0.6,0,1-0.4,1-1S23.6,0.5,23,0.5z"/>
		<path d="M1.5,16.5H10c0.3,0,0.5-0.2,0.5-0.5v-3c0-0.3-0.2-0.5-0.5-0.5H1.5C1.2,12.5,1,12.7,1,13v3C1,16.3,1.2,16.5,1.5,16.5z"/>
		<path d="M2.5,11.5h6C8.8,11.5,9,11.3,9,11V8c0-0.3-0.2-0.5-0.5-0.5h-6C2.2,7.5,2,7.7,2,8v3C2,11.3,2.2,11.5,2.5,11.5z"/>
		<path d="M12,16.5h5.5c0.3,0,0.5-0.2,0.5-0.5V5.5C18,5.2,17.8,5,17.5,5H12c-0.3,0-0.5,0.2-0.5,0.5V16C11.5,16.3,11.7,16.5,12,16.5z
			"/>
	</g>
</g>
<g id="Outline_Icons">
	<g>
		<circle class="st2" cx="16" cy="22" r="1.5"/>
		<circle class="st2" cx="5" cy="22" r="1.5"/>
		<polyline class="st2" points="23.5,1.5 22,1.5 20,18.5 0.5,18.5 		"/>
		<rect x="1.5" y="12.5" class="st2" width="9" height="4"/>
		<rect x="2.5" y="9.5" class="st2" width="6" height="3"/>
		<rect x="10.5" y="5.5" class="st2" width="7" height="11"/>
	</g>
</g>
</svg>
