<?xml version="1.0" encoding="utf-8"?>
<!-- Generator: Adobe Illustrator 19.2.0, SVG Export Plug-In . SVG Version: 6.00 Build 0)  -->
<svg version="1.1" id="Layer_1" xmlns="http://www.w3.org/2000/svg" xmlns:xlink="http://www.w3.org/1999/xlink" x="0px" y="0px"
	 viewBox="0 0 24 24" style="enable-background:new 0 0 24 24;" xml:space="preserve">
<style type="text/css">
	.st0{display:none;}
	.st1{display:inline;}
	.st2{fill:none;stroke:#000000;stroke-linecap:round;stroke-linejoin:round;stroke-miterlimit:10;}
	.st3{fill:none;stroke:#000000;stroke-linejoin:round;stroke-miterlimit:10;}
</style>
<g id="Filled_Icon" class="st0">
	<g class="st1">
		<path d="M13,18l-0.4-0.3c-0.2-0.2-0.4-0.4-0.5-0.7H8.4l-0.2-1h3.9c0.2-0.6,0.8-1,1.4-1H16l1.1-2.6c0.2-0.6,0.8-0.9,1.4-0.9l0,0
			c0.6,0,1.1,0.4,1.4,0.9L21,15h0.2L24,6.7c0.1-0.2,0-0.3-0.1-0.5C23.8,6.1,23.7,6,23.5,6H5.8L4.5,0.4C4.4,0.2,4.2,0,4,0H0.5
			C0.2,0,0,0.2,0,0.5S0.2,1,0.5,1h3.1l3.8,16.1C6.6,17.4,6,18.1,6,19c0,1.1,0.9,2,2,2s2-0.9,2-2c0-0.4-0.1-0.7-0.3-1H13z"/>
		<path d="M24,16.3c-0.1-0.2-0.3-0.3-0.5-0.3h-3.2L19,12.8c-0.1-0.2-0.3-0.3-0.5-0.3l0,0c-0.2,0-0.4,0.1-0.5,0.3L16.7,16h-3.2
			c-0.2,0-0.4,0.1-0.5,0.3c-0.1,0.2,0,0.4,0.2,0.6l2.7,2l-1.4,3.4c-0.1,0.2,0,0.4,0.2,0.6c0.2,0.1,0.4,0.1,0.6,0l3.2-2.3l3.2,2.3
			C21.8,23,21.9,23,22,23c0.1,0,0.2,0,0.3-0.1c0.2-0.1,0.2-0.4,0.2-0.6l-1.4-3.5l2.7-2C24,16.8,24,16.5,24,16.3z"/>
	</g>
</g>
<g id="Outline_Icons">
	<g>
		<g>
			<circle class="st2" cx="8" cy="19" r="1.5"/>
			<polyline class="st2" points="0.5,0.5 4,0.5 8,17.5 12,17.5 			"/>
			<polyline class="st2" points="22,11 23.5,6.5 5.5,6.5 			"/>
			<line class="st2" x1="7.3" y1="14.5" x2="12" y2="14.5"/>
		</g>
		<polygon class="st3" points="18.5,13 20,16.5 23.5,16.5 20.5,18.7 22,22.6 18.5,20.1 15,22.5 16.5,18.8 13.5,16.5 17,16.5 		"/>
	</g>
</g>
</svg>
