<?xml version="1.0" encoding="utf-8"?>
<!-- Generator: Adobe Illustrator 19.2.0, SVG Export Plug-In . SVG Version: 6.00 Build 0)  -->
<svg version="1.1" id="Layer_1" xmlns="http://www.w3.org/2000/svg" xmlns:xlink="http://www.w3.org/1999/xlink" x="0px" y="0px"
	 viewBox="0 0 24 24" style="enable-background:new 0 0 24 24;" xml:space="preserve">
<style type="text/css">
	.st0{display:none;}
	.st1{display:inline;}
	.st2{fill:none;stroke:#000000;stroke-linecap:round;stroke-linejoin:round;stroke-miterlimit:10;}
</style>
<g id="Filled_Icon" class="st0">
	<g class="st1">
		<g>
			<circle cx="16" cy="22" r="2"/>
			<circle cx="5" cy="22" r="2"/>
			<path d="M24,1.5c0-0.6-0.4-1-1-1h-1.5c-0.5,0-0.9,0.4-1,0.9l-1.9,16.1H1c-0.6,0-1,0.4-1,1s0.4,1,1,1h18.5c0.5,0,0.9-0.4,1-0.9
				l1.9-16.1H23C23.6,2.5,24,2.1,24,1.5z"/>
		</g>
		<g>
			<path d="M15.5,5h-3V4c0-1.1-0.9-2-2-2h-2c-1.1,0-2,0.9-2,2v1h-3C2.1,5,1,6.1,1,7.5v6C1,14.9,2.1,16,3.5,16h12
				c1.4,0,2.5-1.1,2.5-2.5v-6C18,6.1,16.9,5,15.5,5z M7.5,4c0-0.6,0.5-1,1-1h2c0.6,0,1,0.4,1,1v1h-4V4z M14.5,14h-10
				C4.2,14,4,13.8,4,13.5S4.2,13,4.5,13h10c0.3,0,0.5,0.2,0.5,0.5S14.7,14,14.5,14z M14.5,11h-10C4.2,11,4,10.8,4,10.5
				S4.2,10,4.5,10h10c0.3,0,0.5,0.2,0.5,0.5S14.7,11,14.5,11z M14.5,8h-10C4.2,8,4,7.8,4,7.5S4.2,7,4.5,7h10C14.7,7,15,7.2,15,7.5
				S14.7,8,14.5,8z"/>
		</g>
	</g>
</g>
<g id="Outline_Icons">
	<g>
		<circle class="st2" cx="16" cy="22" r="1.5"/>
		<circle class="st2" cx="5" cy="22" r="1.5"/>
		<polyline class="st2" points="23.5,1.5 22,1.5 20,18.5 0.5,18.5 		"/>
		<path class="st2" d="M17.5,8.5c0-1.1-0.9-2-2-2h-12c-1.1,0-2,0.9-2,2v6c0,1.1,0.9,2,2,2h12c1.1,0,2-0.9,2-2V8.5z"/>
		<path class="st2" d="M7,6.5V5c0-0.8,0.7-1.5,1.5-1.5h2C11.3,3.5,12,4.2,12,5v1.5"/>
		<line class="st2" x1="4.5" y1="9.5" x2="14.5" y2="9.5"/>
		<line class="st2" x1="4.5" y1="11.5" x2="14.5" y2="11.5"/>
		<line class="st2" x1="4.5" y1="13.5" x2="14.5" y2="13.5"/>
	</g>
</g>
</svg>
