<?xml version="1.0" encoding="utf-8"?>
<!-- Generator: Adobe Illustrator 19.2.0, SVG Export Plug-In . SVG Version: 6.00 Build 0)  -->
<svg version="1.1" id="Layer_1" xmlns="http://www.w3.org/2000/svg" xmlns:xlink="http://www.w3.org/1999/xlink" x="0px" y="0px"
	 viewBox="0 0 24 24" style="enable-background:new 0 0 24 24;" xml:space="preserve">
<style type="text/css">
	.st0{display:none;}
	.st1{display:inline;}
	.st2{fill:none;stroke:#000000;stroke-linecap:round;stroke-linejoin:round;stroke-miterlimit:10;}
</style>
<g id="Filled_Icon" class="st0">
	<g class="st1">
		<path d="M16.1,3.9L14,1.7v5.8C14,7.8,13.8,8,13.5,8S13,7.8,13,7.5V1.7l-2.1,2.1c-0.2,0.2-0.5,0.2-0.7,0s-0.2-0.5,0-0.7l3-3
			c0.2-0.2,0.5-0.2,0.7,0l3,3c0.2,0.2,0.2,0.5,0,0.7C16.7,4,16.3,4,16.1,3.9z"/>
		<path d="M0.5,3H4c0.2,0,0.4,0.2,0.5,0.4L5.8,9h17.7c0.2,0,0.3,0.1,0.4,0.2C24,9.3,24,9.5,24,9.7l-3,9c-0.1,0.2-0.3,0.3-0.5,0.3
			H8.2l0.2,1H19c1.1,0,2,0.9,2,2s-0.9,2-2,2s-2-0.9-2-2c0-0.4,0.1-0.7,0.3-1H9.7c0.2,0.3,0.3,0.6,0.3,1c0,1.1-0.9,2-2,2s-2-0.9-2-2
			c0-0.9,0.6-1.6,1.4-1.9L3.6,4H0.5C0.2,4,0,3.8,0,3.5S0.2,3,0.5,3z"/>
	</g>
</g>
<g id="Outline_Icons">
	<g>
		<circle class="st2" cx="19" cy="22" r="1.5"/>
		<circle class="st2" cx="8" cy="22" r="1.5"/>
		<line class="st2" x1="13.5" y1="7.5" x2="13.5" y2="0.5"/>
		<polyline class="st2" points="16.5,3.5 13.5,0.5 10.5,3.5 		"/>
		<polyline class="st2" points="0.5,3.5 4,3.5 8,20.5 19,20.5 		"/>
		<polyline class="st2" points="7.5,18.5 20.5,18.5 23.5,9.5 5.5,9.5 		"/>
	</g>
</g>
</svg>
