<?xml version="1.0" encoding="utf-8"?>
<!-- Generator: Adobe Illustrator 19.2.0, SVG Export Plug-In . SVG Version: 6.00 Build 0)  -->
<svg version="1.1" id="Layer_1" xmlns="http://www.w3.org/2000/svg" xmlns:xlink="http://www.w3.org/1999/xlink" x="0px" y="0px"
	 viewBox="0 0 24 24" style="enable-background:new 0 0 24 24;" xml:space="preserve">
<style type="text/css">
	.st0{display:none;}
	.st1{display:inline;}
	.st2{fill:none;stroke:#000000;stroke-linecap:round;stroke-linejoin:round;stroke-miterlimit:10;}
</style>
<g id="Filled_Icon" class="st0">
	<path class="st1" d="M19,4V2.5C19,1.1,17.9,0,16.5,0h-3C12.1,0,11,1.1,11,2.5V4H8V2.5C8,1.7,8.7,1,9.5,1h1C10.8,1,11,0.8,11,0.5
		S10.8,0,10.5,0h-1C8.1,0,7,1.1,7,2.5V4H0v20h24V4H19z M7,23H1V5h2.5v14.8l-1.4,1.4c-0.2,0.2-0.2,0.5,0,0.7s0.5,0.2,0.7,0L4,20.7
		l1.1,1.1C5.2,22,5.4,22,5.5,22s0.3,0,0.4-0.1c0.2-0.2,0.2-0.5,0-0.7l-1.4-1.4V5H7V23z M18,4h-6V2.5C12,1.7,12.7,1,13.5,1h3
		C17.3,1,18,1.7,18,2.5V4z"/>
</g>
<g id="Outline_Icons">
	<g>
		<polyline class="st2" points="7.5,4.5 23.5,4.5 23.5,23.5 7.5,23.5 		"/>
		<rect x="0.5" y="4.5" class="st2" width="7" height="19"/>
		<polyline class="st2" points="2,21.5 3.5,20 5,21.5 		"/>
		<line class="st2" x1="3.5" y1="20" x2="3.5" y2="4.5"/>
		<path class="st2" d="M11.5,4.5v-2c0-1.1,0.9-2,2-2h3c1.1,0,2,0.9,2,2v2"/>
		<path class="st2" d="M7.5,4.5v-2c0-1.1,0.9-2,2-2h1"/>
	</g>
</g>
</svg>
