<?xml version="1.0" encoding="utf-8"?>
<!-- Generator: Adobe Illustrator 19.2.0, SVG Export Plug-In . SVG Version: 6.00 Build 0)  -->
<svg version="1.1" id="Layer_1" xmlns="http://www.w3.org/2000/svg" xmlns:xlink="http://www.w3.org/1999/xlink" x="0px" y="0px"
	 viewBox="0 0 24 24" style="enable-background:new 0 0 24 24;" xml:space="preserve">
<style type="text/css">
	.st0{display:none;}
	.st1{display:inline;}
	.st2{fill:none;stroke:#000000;stroke-linecap:round;stroke-linejoin:round;stroke-miterlimit:10;}
	.st3{fill:none;stroke:#000000;stroke-linejoin:round;stroke-miterlimit:10;}
</style>
<g id="Filled_Icon" class="st0">
	<g class="st1">
		<path d="M23.5,2h-2.6c-0.5,0-0.9,0.4-1,0.9L19.5,6h-18C0.7,6,0,6.7,0,7.5S0.7,9,1.5,9H16c0.3,0,0.5,0.2,0.5,0.5S16.3,10,16,10H2.5
			C1.7,10,1,10.7,1,11.5S1.7,13,2.5,13h13c0.3,0,0.5,0.2,0.5,0.5S15.8,14,15.5,14h-12C2.7,14,2,14.7,2,15.5C2,16.3,2.7,17,3.5,17
			h14.6c0.5,0,0.9-0.4,1-0.9l1.4-9.6L20.9,3h2.6C23.8,3,24,2.8,24,2.5S23.8,2,23.5,2z"/>
		<circle cx="6" cy="20" r="2"/>
		<circle cx="17" cy="20" r="2"/>
	</g>
</g>
<g id="Outline_Icons">
	<g>
		<path class="st2" d="M23.5,2.5h-2.6c-0.2,0-0.5,0.2-0.5,0.4L18.5,16c0,0.2-0.2,0.4-0.5,0.4H3.5c-0.6,0-1-0.4-1-1s0.4-1,1-1h12
			c0.6,0,1-0.4,1-1s-0.4-1-1-1h-13c-0.6,0-1-0.4-1-1s0.4-1,1-1H16c0.6,0,1-0.4,1-1s-0.4-1-1-1H1.5c-0.6,0-1-0.4-1-1s0.4-1,1-1h16"/>
		<circle class="st3" cx="6" cy="20" r="1.5"/>
		<circle class="st3" cx="17" cy="20" r="1.5"/>
	</g>
</g>
</svg>
