<?xml version="1.0" encoding="utf-8"?>
<!-- Generator: Adobe Illustrator 19.2.0, SVG Export Plug-In . SVG Version: 6.00 Build 0)  -->
<svg version="1.1" id="Layer_1" xmlns="http://www.w3.org/2000/svg" xmlns:xlink="http://www.w3.org/1999/xlink" x="0px" y="0px"
	 viewBox="0 0 24 24" style="enable-background:new 0 0 24 24;" xml:space="preserve">
<style type="text/css">
	.st0{display:none;}
	.st1{display:inline;}
	.st2{fill:none;stroke:#000000;stroke-linecap:round;stroke-linejoin:round;stroke-miterlimit:10;}
	.st3{fill:none;stroke:#000000;stroke-linejoin:round;stroke-miterlimit:10;}
</style>
<g id="Filled_Icon" class="st0">
	<g class="st1">
		<g>
			<path d="M6,8V6H2.8C2.6,6,2.5,6,2.4,6.1L0.3,8H6z"/>
			<rect x="9" y="6" width="6" height="2"/>
			<g>
				<path d="M8,8V6c0-2.2,1.8-4,4-4s4,1.8,4,4v2h1V6c0-2.8-2.2-5-5-5S7,3.2,7,6v2H8z"/>
			</g>
			<path d="M23.7,8l-2-1.8C21.6,6,21.5,6,21.4,6H18v2H23.7z"/>
		</g>
		<path d="M0,9v14.5C0,23.8,0.2,24,0.5,24h23c0.3,0,0.5-0.2,0.5-0.5V9H0z M16.5,13.7l-5,5.8c-0.2,0.2-0.4,0.3-0.7,0.3l0,0
			c-0.3,0-0.5-0.1-0.7-0.3L7.5,17c-0.4-0.4-0.4-1,0-1.4s1-0.4,1.4,0l1.7,1.7l4.3-5c0.4-0.4,1-0.5,1.4-0.1
			C16.8,12.6,16.9,13.3,16.5,13.7z"/>
	</g>
</g>
<g id="Outline_Icons">
	<g>
		<polyline class="st2" points="15.8,13 10.7,18.8 8.2,16.3 		"/>
		<rect x="0.5" y="8.5" class="st2" width="23" height="15"/>
		<path class="st2" d="M16.5,6c0-2.5-2-4.5-4.5-4.5S7.5,3.5,7.5,6v2.5h9V6z"/>
		<polyline class="st3" points="18,6.5 21.4,6.5 23.5,8.5 		"/>
		<line class="st3" x1="9" y1="6.5" x2="15" y2="6.5"/>
		<polyline class="st3" points="0.5,8.5 2.8,6.5 6,6.5 		"/>
	</g>
</g>
</svg>
