<?xml version="1.0" encoding="utf-8"?>
<!-- Generator: Adobe Illustrator 19.2.0, SVG Export Plug-In . SVG Version: 6.00 Build 0)  -->
<svg version="1.1" id="Layer_1" xmlns="http://www.w3.org/2000/svg" xmlns:xlink="http://www.w3.org/1999/xlink" x="0px" y="0px"
	 viewBox="0 0 24 24" style="enable-background:new 0 0 24 24;" xml:space="preserve">
<style type="text/css">
	.st0{display:none;}
	.st1{display:inline;}
	.st2{fill:none;stroke:#000000;stroke-linecap:round;stroke-linejoin:round;stroke-miterlimit:10;}
</style>
<g id="Filled_Icon" class="st0">
	<g class="st1">
		<path d="M19.5,9h-4v1.5c0,0.6-0.4,1-1,1s-1-0.4-1-1V9h-7v1.5c0,0.6-0.4,1-1,1s-1-0.4-1-1V9h-4C0.2,9,0,9.2,0,9.5v14
			C0,23.8,0.2,24,0.5,24h19c0.3,0,0.5-0.2,0.5-0.5v-14C20,9.2,19.7,9,19.5,9z M13,19H7v-5h6V19z"/>
		<path d="M22.5,3.6l-2.1-2.1c-0.1-0.1-0.2-0.1-0.4-0.1s-0.3,0.1-0.4,0.1L16.1,5C16,5.1,16,5.2,16,5.4v2.1C16,7.8,16.2,8,16.5,8h2.1
			c0.1,0,0.3-0.1,0.4-0.1l3.5-3.5C22.7,4.1,22.7,3.8,22.5,3.6z"/>
		<path d="M5.5,11C5.7,11,6,10.8,6,10.5V5c0-2.2,1.8-4,4-4s4,1.8,4,4v5.5c0,0.3,0.2,0.5,0.5,0.5s0.5-0.2,0.5-0.5V5c0-2.8-2.2-5-5-5
			S5,2.2,5,5v5.5C5,10.8,5.2,11,5.5,11z"/>
	</g>
</g>
<g id="Outline_Icons">
	<g>
		<polyline class="st2" points="16.5,9.5 19.5,9.5 19.5,23.5 0.5,23.5 0.5,9.5 3.5,9.5 		"/>
		<path class="st2" d="M5.5,10.5V5c0-2.5,2-4.5,4.5-4.5s4.5,2,4.5,4.5v5.5"/>
		<line class="st2" x1="7.5" y1="9.5" x2="12.5" y2="9.5"/>
		<rect x="6.5" y="13.5" class="st2" width="7" height="6"/>
		<polygon class="st2" points="20,1.8 22.2,4 18.6,7.5 16.5,7.5 16.5,5.4 		"/>
	</g>
</g>
</svg>
