<?xml version="1.0" encoding="utf-8"?>
<!-- Generator: Adobe Illustrator 19.2.0, SVG Export Plug-In . SVG Version: 6.00 Build 0)  -->
<svg version="1.1" id="Layer_1" xmlns="http://www.w3.org/2000/svg" xmlns:xlink="http://www.w3.org/1999/xlink" x="0px" y="0px"
	 viewBox="0 0 24 24" style="enable-background:new 0 0 24 24;" xml:space="preserve">
<style type="text/css">
	.st0{display:none;}
	.st1{display:inline;}
	.st2{fill:none;stroke:#000000;stroke-linecap:round;stroke-linejoin:round;stroke-miterlimit:10;}
</style>
<g id="Filled_Icon" class="st0">
	<path class="st1" d="M23.5,7H17V6c0-2.8-2.2-5-5-5S7,3.3,7,6v1H0.5C0.2,7,0,7.2,0,7.5v16C0,23.8,0.2,24,0.5,24h23
		c0.3,0,0.5-0.2,0.5-0.5v-16C24,7.2,23.8,7,23.5,7z M8,6c0-2.2,1.8-4,4-4s4,1.8,4,4v1H8V6z M17.3,16.1l-8.5,5.4
		c-0.1,0.1-0.2,0.1-0.3,0.1s-0.2,0-0.2-0.1C8.1,21.4,8,21.2,8,21V10c0-0.2,0.1-0.4,0.3-0.4c0.2-0.1,0.4-0.1,0.5,0l8.5,5.6
		c0.1,0.1,0.2,0.3,0.2,0.4C17.5,15.8,17.4,16,17.3,16.1z"/>
</g>
<g id="Outline_Icons">
	<g>
		<rect x="0.5" y="7.5" class="st2" width="23" height="16"/>
		<path class="st2" d="M16.5,6c0-2.5-2-4.5-4.5-4.5S7.5,3.5,7.5,6v1.5h9V6z"/>
		<polygon class="st2" points="8.5,10 8.5,21 17,15.6 		"/>
	</g>
</g>
</svg>
