<?xml version="1.0" encoding="utf-8"?>
<!-- Generator: Adobe Illustrator 19.2.0, SVG Export Plug-In . SVG Version: 6.00 Build 0)  -->
<svg version="1.1" id="Layer_1" xmlns="http://www.w3.org/2000/svg" xmlns:xlink="http://www.w3.org/1999/xlink" x="0px" y="0px"
	 viewBox="0 0 24 24" style="enable-background:new 0 0 24 24;" xml:space="preserve">
<style type="text/css">
	.st0{display:none;}
	.st1{display:inline;}
	.st2{fill:none;stroke:#000000;stroke-linecap:round;stroke-linejoin:round;stroke-miterlimit:10;}
	.st3{fill:none;stroke:#000000;stroke-linejoin:round;stroke-miterlimit:10;}
</style>
<g id="Filled_Icon" class="st0">
	<g class="st1">
		<path d="M12,18c0-0.3,0.1-0.7,0.2-1H8.4l-0.2-1h4.3c1-2.3,3.3-4,6-4c1.2,0,2.4,0.4,3.4,1L24,6.7c0.1-0.2,0-0.3-0.1-0.5
			C23.8,6.1,23.7,6,23.5,6H5.8L4.5,0.4C4.4,0.2,4.2,0,4,0H0.5C0.2,0,0,0.2,0,0.5S0.2,1,0.5,1h3.1l3.8,16.1C6.6,17.4,6,18.1,6,19
			c0,1.1,0.9,2,2,2s2-0.9,2-2c0-0.4-0.1-0.7-0.3-1H12z"/>
		<path d="M18.5,13c-3,0-5.5,2.5-5.5,5.5s2.5,5.5,5.5,5.5s5.5-2.5,5.5-5.5S21.5,13,18.5,13z M21,19h-2v2c0,0.3-0.2,0.5-0.5,0.5
			S18,21.3,18,21v-2h-2c-0.3,0-0.5-0.2-0.5-0.5S15.7,18,16,18h2v-2c0-0.3,0.2-0.5,0.5-0.5S19,15.7,19,16v2h2c0.3,0,0.5,0.2,0.5,0.5
			S21.3,19,21,19z"/>
	</g>
</g>
<g id="Outline_Icons">
	<g>
		<g>
			<circle class="st2" cx="8" cy="19" r="1.5"/>
			<polyline class="st2" points="0.5,0.5 4,0.5 8,17.5 12,17.5 			"/>
			<polyline class="st2" points="22,11 23.5,6.5 5.5,6.5 			"/>
			<line class="st2" x1="7.3" y1="14.5" x2="12" y2="14.5"/>
		</g>
		<circle class="st3" cx="18.5" cy="18.5" r="5"/>
		<line class="st2" x1="21" y1="18.5" x2="16" y2="18.5"/>
		<line class="st2" x1="18.5" y1="21" x2="18.5" y2="16"/>
	</g>
</g>
</svg>
