<?xml version="1.0" encoding="utf-8"?>
<!-- Generator: Adobe Illustrator 19.2.0, SVG Export Plug-In . SVG Version: 6.00 Build 0)  -->
<svg version="1.1" id="Layer_1" xmlns="http://www.w3.org/2000/svg" xmlns:xlink="http://www.w3.org/1999/xlink" x="0px" y="0px"
	 viewBox="0 0 24 24" style="enable-background:new 0 0 24 24;" xml:space="preserve">
<style type="text/css">
	.st0{display:none;}
	.st1{display:inline;}
	.st2{fill:none;stroke:#000000;stroke-linecap:round;stroke-linejoin:round;stroke-miterlimit:10;}
	.st3{fill:none;stroke:#000000;stroke-linejoin:round;stroke-miterlimit:10;}
</style>
<g id="Filled_Icon" class="st0">
	<g class="st1">
		<circle cx="6" cy="20" r="2"/>
		<circle cx="17" cy="20" r="2"/>
		<path d="M23.5,2h-2.6c-0.5,0-0.9,0.4-1,0.9l-0.3,2.7c0,0.2-0.2,0.4-0.5,0.4H2C1.4,6,0.8,6.3,0.4,6.8S-0.1,8,0.1,8.6l1.6,5
			C2,14.4,2.7,15,3.6,15H18c0.3,0,0.5,0.2,0.5,0.5S18.3,16,18,16H4c-0.3,0-0.5,0.2-0.5,0.5S3.7,17,4,17h14c0.8,0,1.5-0.6,1.5-1.4
			l0,0l0,0l0,0l0,0l0,0l1.1-9.9L20.9,3h2.6C23.8,3,24,2.8,24,2.5S23.8,2,23.5,2z"/>
	</g>
</g>
<g id="Outline_Icons">
	<g>
		<path class="st2" d="M23.5,2.5h-2.6c-0.3,0-0.5,0.2-0.5,0.4l-0.3,2.7c-0.1,0.5-0.5,0.9-1,0.9H2c-0.5,0-0.9,0.2-1.2,0.6
			C0.5,7.5,0.4,8,0.6,8.4l1.6,5C2.4,14,3,14.5,3.6,14.5H18c0.6,0,1,0.4,1,1s-0.4,1-1,1H4"/>
		<line class="st2" x1="19.5" y1="8.5" x2="19" y2="13"/>
		<circle class="st3" cx="6" cy="20" r="1.5"/>
		<circle class="st3" cx="17" cy="20" r="1.5"/>
	</g>
</g>
</svg>
