<?xml version="1.0" encoding="utf-8"?>
<!-- Generator: Adobe Illustrator 19.2.0, SVG Export Plug-In . SVG Version: 6.00 Build 0)  -->
<svg version="1.1" id="Layer_1" xmlns="http://www.w3.org/2000/svg" xmlns:xlink="http://www.w3.org/1999/xlink" x="0px" y="0px"
	 viewBox="0 0 24 24" style="enable-background:new 0 0 24 24;" xml:space="preserve">
<style type="text/css">
	.st0{display:none;}
	.st1{display:inline;}
	.st2{fill:none;stroke:#000000;stroke-linecap:round;stroke-linejoin:round;stroke-miterlimit:10;}
	.st3{fill:none;stroke:#000000;stroke-linejoin:round;stroke-miterlimit:10;}
</style>
<g id="Filled_Icon" class="st0">
	<g class="st1">
		<path d="M12,18c0-0.3,0.1-0.7,0.2-1H8.4l-0.2-1h4.3c1-2.3,3.3-4,6-4c1.2,0,2.4,0.4,3.4,1L24,6.7c0.1-0.2,0-0.3-0.1-0.5
			C23.8,6.1,23.7,6,23.5,6H5.8L4.5,0.4C4.4,0.2,4.2,0,4,0H0.5C0.2,0,0,0.2,0,0.5S0.2,1,0.5,1h3.1l3.8,16.1C6.6,17.4,6,18.1,6,19
			c0,1.1,0.9,2,2,2s2-0.9,2-2c0-0.4-0.1-0.7-0.3-1H12z"/>
		<g>
			<path d="M21.3,16.4l-4.9,4.9c0.6,0.4,1.3,0.7,2.1,0.7c1.9,0,3.5-1.6,3.5-3.5C22,17.8,21.7,17,21.3,16.4z"/>
			<path d="M20.6,15.7C20,15.3,19.3,15,18.5,15c-1.9,0-3.5,1.6-3.5,3.5c0,0.8,0.3,1.5,0.7,2.1L20.6,15.7z"/>
			<path d="M18.5,13c-3,0-5.5,2.5-5.5,5.5s2.5,5.5,5.5,5.5s5.5-2.5,5.5-5.5S21.5,13,18.5,13z M18.5,23C16,23,14,21,14,18.5
				s2-4.5,4.5-4.5s4.5,2,4.5,4.5S21,23,18.5,23z"/>
		</g>
	</g>
</g>
<g id="Outline_Icons">
	<g>
		<g>
			<circle class="st2" cx="8" cy="19" r="1.5"/>
			<polyline class="st2" points="0.5,0.5 4,0.5 8,17.5 12,17.5 			"/>
			<polyline class="st2" points="22,11 23.5,6.5 5.5,6.5 			"/>
			<line class="st2" x1="7.3" y1="14.5" x2="12" y2="14.5"/>
		</g>
		<g>
			<line class="st3" x1="22" y1="15" x2="15" y2="22"/>
			<circle class="st3" cx="18.5" cy="18.5" r="5"/>
		</g>
	</g>
</g>
</svg>
