<?xml version="1.0" encoding="utf-8"?>
<!-- Generator: Adobe Illustrator 19.2.0, SVG Export Plug-In . SVG Version: 6.00 Build 0)  -->
<svg version="1.1" id="Layer_1" xmlns="http://www.w3.org/2000/svg" xmlns:xlink="http://www.w3.org/1999/xlink" x="0px" y="0px"
	 viewBox="0 0 24 24" style="enable-background:new 0 0 24 24;" xml:space="preserve">
<style type="text/css">
	.st0{display:none;}
	.st1{display:inline;}
	.st2{fill:none;stroke:#000000;stroke-linecap:round;stroke-linejoin:round;stroke-miterlimit:10;}
	.st3{fill:none;stroke:#000000;stroke-linejoin:round;stroke-miterlimit:10;}
</style>
<g id="Filled_Icon" class="st0">
	<g class="st1">
		<path d="M13.1,18c0-0.2-0.1-0.5-0.1-0.8c0-0.1,0-0.2,0-0.2H8.4l-0.2-1h5c0.5-1.8,1.9-2.7,3.3-2.7c1,0,1.9,0.4,2.6,1
			c0.7-0.7,1.7-1.1,2.6-1.1h0.1L24,6.7c0.1-0.2,0-0.3-0.1-0.5C23.8,6.1,23.7,6,23.5,6H5.8L4.5,0.4C4.4,0.2,4.2,0,4,0H0.5
			C0.2,0,0,0.2,0,0.5S0.2,1,0.5,1h3.1l3.8,16.1C6.6,17.4,6,18.1,6,19c0,1.1,0.9,2,2,2s2-0.9,2-2c0-0.4-0.1-0.7-0.3-1H13.1z"/>
		<path d="M21.6,14.2c-0.9,0-1.9,0.5-2.6,1.6c-0.6-1-1.6-1.6-2.6-1.6c-1.2,0-2.4,0.9-2.4,3c0,4,4.6,6.6,4.8,6.7
			c0.1,0,0.2,0.1,0.2,0.1c0.1,0,0.2,0,0.2-0.1c0.2-0.1,4.8-2.7,4.8-6.9C24,15.1,22.8,14.2,21.6,14.2z"/>
	</g>
</g>
<g id="Outline_Icons">
	<g>
		<g>
			<circle class="st2" cx="8" cy="19" r="1.5"/>
			<polyline class="st2" points="0.5,0.5 4,0.5 8,17.5 12,17.5 			"/>
			<polyline class="st2" points="22,11 23.5,6.5 5.5,6.5 			"/>
			<line class="st2" x1="7.3" y1="14.5" x2="12" y2="14.5"/>
		</g>
		<path class="st3" d="M19,23.5c0,0,4.5-2.5,4.5-6.5c0-3-3.5-3-4.5,0c-1-3-4.5-3-4.5,0.2C14.5,21,19,23.5,19,23.5z"/>
	</g>
</g>
</svg>
