<?xml version="1.0" encoding="utf-8"?>
<!-- Generator: Adobe Illustrator 19.2.0, SVG Export Plug-In . SVG Version: 6.00 Build 0)  -->
<svg version="1.1" id="Layer_1" xmlns="http://www.w3.org/2000/svg" xmlns:xlink="http://www.w3.org/1999/xlink" x="0px" y="0px"
	 viewBox="0 0 24 24" style="enable-background:new 0 0 24 24;" xml:space="preserve">
<style type="text/css">
	.st0{display:none;}
	.st1{display:inline;}
	.st2{fill:none;stroke:#000000;stroke-linecap:round;stroke-linejoin:round;stroke-miterlimit:10;}
</style>
<g id="Filled_Icons" class="st0">
	<path class="st1" d="M21.3,9.5c-3.2,0-4.8-2.1-4.8-4l0-0.5H15V4h5v1h-2.5l0,0.5c0,1.4,1.2,3,3.8,3l-0.3-5C21,3.2,20.8,3,20.5,3H15
		c0-0.3-0.2-0.5-0.5-0.5h-5C9.2,2.5,9,2.7,9,3H3.5C3.2,3,3,3.2,3,3.5l-0.3,5c2.7,0,3.8-1.7,3.8-3l0-0.5H4V4h5v1H7.5l0,0.5
		c0,1.8-1.5,4-4.8,4L2,21.5c0,0.1,0,0.3,0.1,0.4C2.2,22,2.4,22,2.5,22h7c0.3,0,0.5-0.2,0.5-0.4l1-7.6c0-0.6,0.4-1,1-1
		c0.6,0,1,0.4,1,1.1l1,7.5c0,0.2,0.2,0.4,0.5,0.4h7c0,0,0,0,0,0c0.3,0,0.5-0.2,0.5-0.5c0-0.1,0-0.1,0-0.2L21.3,9.5z M14,4.5h-4v-1h4
		V4.5z"/>
</g>
<g id="Outline_Icons">
	<g>
		<line class="st2" x1="3.4" y1="5.5" x2="20.6" y2="5.5"/>
		<line class="st2" x1="14.5" y1="3.5" x2="14.5" y2="5.5"/>
		<line class="st2" x1="9.5" y1="3.5" x2="9.5" y2="5.5"/>
		<path class="st2" d="M7,5.5C7,7.4,5.1,9,3.2,9"/>
		<path class="st2" d="M17,5.5C17,7.4,18.9,9,20.8,9"/>
		<path class="st2" d="M12,12.5c0.8,0,1.5,0.7,1.5,1.5l1,7.5h7l-1-18h-17l-1,18h7l1-7.5C10.5,13.2,11.2,12.5,12,12.5z"/>
	</g>
</g>
</svg>
