<?xml version="1.0" encoding="utf-8"?>
<!-- Generator: Adobe Illustrator 19.2.0, SVG Export Plug-In . SVG Version: 6.00 Build 0)  -->
<svg version="1.1" id="Outline_Icons" xmlns="http://www.w3.org/2000/svg" xmlns:xlink="http://www.w3.org/1999/xlink" x="0px"
	 y="0px" viewBox="0 0 24 24" style="enable-background:new 0 0 24 24;" xml:space="preserve">
<style type="text/css">
	.st0{fill:none;stroke:#000000;stroke-linecap:round;stroke-linejoin:round;stroke-miterlimit:10;}
	.st1{fill:none;stroke:#000000;stroke-linejoin:round;stroke-miterlimit:10;}
</style>
<g>
	<path class="st0" d="M20.5,11.5c-6.4,0-8.5-4.7-8.5-11"/>
	<path class="st0" d="M3.4,11.5c6.4,0,8.6-4.6,8.6-11"/>
	<rect x="0.5" y="11.5" class="st0" width="3" height="3"/>
	<rect x="20.5" y="11.5" class="st0" width="3" height="3"/>
	<path class="st0" d="M20.5,14.5c-2.8,0-5,3.7-5,9h8v-23h-23v23h8c0-5.2-2.2-9-5-9"/>
	<path class="st0" d="M8.5,3C8,5.5,6,8,4,9"/>
	<path class="st0" d="M3.5,16C4,16,5,18,5,19"/>
	<path class="st0" d="M15.5,3C16,5.5,18,8,20,9"/>
	<path class="st0" d="M20.5,16C20,16,19,18,19,19"/>
	<line class="st1" x1="7.8" y1="18.5" x2="16.2" y2="18.5"/>
</g>
</svg>
