<?xml version="1.0" encoding="utf-8"?>
<!-- Generator: Adobe Illustrator 19.2.0, SVG Export Plug-In . SVG Version: 6.00 Build 0)  -->
<svg version="1.1" id="Layer_1" xmlns="http://www.w3.org/2000/svg" xmlns:xlink="http://www.w3.org/1999/xlink" x="0px" y="0px"
	 viewBox="0 0 24 24" style="enable-background:new 0 0 24 24;" xml:space="preserve">
<style type="text/css">
	.st0{display:none;}
	.st1{display:inline;}
	.st2{fill:none;stroke:#000000;stroke-linecap:round;stroke-linejoin:round;stroke-miterlimit:10;}
	.st3{fill:none;stroke:#000000;stroke-linejoin:round;stroke-miterlimit:10;}
</style>
<g id="Filled_Icon" class="st0">
	<g class="st1">
		<path d="M1.5,3h-1C0.2,3,0,3.2,0,3.5v1C0,4.8,0.2,5,0.5,5C0.8,5,1,4.8,1,4.5V4h0.5C1.8,4,2,3.8,2,3.5C2,3.2,1.8,3,1.5,3z"/>
		<path d="M0.5,8C0.8,8,1,7.8,1,7.5v-1C1,6.2,0.8,6,0.5,6C0.2,6,0,6.2,0,6.5v1C0,7.8,0.2,8,0.5,8z"/>
		<path d="M4.5,3h-1C3.2,3,3,3.2,3,3.5C3,3.8,3.2,4,3.5,4h1C4.8,4,5,3.8,5,3.5C5,3.2,4.8,3,4.5,3z"/>
		<path d="M4.5,19h-1C3.2,19,3,19.2,3,19.5C3,19.8,3.2,20,3.5,20h1C4.8,20,5,19.8,5,19.5C5,19.2,4.8,19,4.5,19z"/>
		<path d="M7.5,3h-1C6.2,3,6,3.2,6,3.5C6,3.8,6.2,4,6.5,4h1C7.8,4,8,3.8,8,3.5C8,3.2,7.8,3,7.5,3z"/>
		<path d="M10.5,3h-1C9.2,3,9,3.2,9,3.5C9,3.8,9.2,4,9.5,4h1C10.8,4,11,3.8,11,3.5C11,3.2,10.8,3,10.5,3z"/>
		<path d="M7.5,19h-1C6.2,19,6,19.2,6,19.5C6,19.8,6.2,20,6.5,20h1C7.8,20,8,19.8,8,19.5C8,19.2,7.8,19,7.5,19z"/>
		<path d="M10.5,19h-1C9.2,19,9,19.2,9,19.5C9,19.8,9.2,20,9.5,20h1c0.3,0,0.5-0.2,0.5-0.5C11,19.2,10.8,19,10.5,19z"/>
		<path d="M13.5,19h-1c-0.3,0-0.5,0.2-0.5,0.5c0,0.3,0.2,0.5,0.5,0.5h1c0.3,0,0.5-0.2,0.5-0.5C14,19.2,13.8,19,13.5,19z"/>
		<path d="M16.5,19h-1c-0.3,0-0.5,0.2-0.5,0.5c0,0.3,0.2,0.5,0.5,0.5h1c0.3,0,0.5-0.2,0.5-0.5C17,19.2,16.8,19,16.5,19z"/>
		<path d="M19.5,19h-1c-0.3,0-0.5,0.2-0.5,0.5c0,0.3,0.2,0.5,0.5,0.5h1c0.3,0,0.5-0.2,0.5-0.5C20,19.2,19.8,19,19.5,19z"/>
		<path d="M22.5,18c-0.3,0-0.5,0.2-0.5,0.5V19h-0.5c-0.3,0-0.5,0.2-0.5,0.5c0,0.3,0.2,0.5,0.5,0.5h1c0.3,0,0.5-0.2,0.5-0.5v-1
			C23,18.2,22.8,18,22.5,18z"/>
		<path d="M1.5,19H1v-0.5C1,18.2,0.8,18,0.5,18C0.2,18,0,18.2,0,18.5v1C0,19.8,0.2,20,0.5,20h1C1.8,20,2,19.8,2,19.5
			C2,19.2,1.8,19,1.5,19z"/>
		<path d="M22.5,15c-0.3,0-0.5,0.2-0.5,0.5v1c0,0.3,0.2,0.5,0.5,0.5c0.3,0,0.5-0.2,0.5-0.5v-1C23,15.2,22.8,15,22.5,15z"/>
		<path d="M22.5,12c-0.3,0-0.5,0.2-0.5,0.5v1c0,0.3,0.2,0.5,0.5,0.5c0.3,0,0.5-0.2,0.5-0.5v-1C23,12.2,22.8,12,22.5,12z"/>
		<path d="M0.5,17C0.8,17,1,16.8,1,16.5v-1C1,15.2,0.8,15,0.5,15C0.2,15,0,15.2,0,15.5v1C0,16.8,0.2,17,0.5,17z"/>
		<path d="M0.5,14C0.8,14,1,13.8,1,13.5v-1C1,12.2,0.8,12,0.5,12C0.2,12,0,12.2,0,12.5v1C0,13.8,0.2,14,0.5,14z"/>
		<path d="M0.5,11C0.8,11,1,10.8,1,10.5v-1C1,9.2,0.8,9,0.5,9C0.2,9,0,9.2,0,9.5v1C0,10.8,0.2,11,0.5,11z"/>
		<path d="M23,4c0-0.6-0.4-1-1-1h-9.5C12.2,3,12,3.2,12,3.5C12,3.8,12.2,4,12.5,4H13l0,0v5c0,0.6,0.4,1,1,1h8v0.5
			c0,0.3,0.2,0.5,0.5,0.5c0.3,0,0.5-0.2,0.5-0.5V4z M21,8h-6V5h6V8z"/>
	</g>
</g>
<g id="Outline_Icons">
	<g>
		<polyline class="st2" points="1.5,3.5 0.5,3.5 0.5,4.5 		"/>
		<line class="st2" x1="0.5" y1="6.5" x2="0.5" y2="7.5"/>
		<line class="st2" x1="4.5" y1="3.5" x2="3.5" y2="3.5"/>
		<line class="st2" x1="4.5" y1="19.5" x2="3.5" y2="19.5"/>
		<line class="st2" x1="7.5" y1="3.5" x2="6.5" y2="3.5"/>
		<line class="st2" x1="10.5" y1="3.5" x2="9.5" y2="3.5"/>
		<line class="st2" x1="13.5" y1="3.5" x2="12.5" y2="3.5"/>
		<line class="st2" x1="7.5" y1="19.5" x2="6.5" y2="19.5"/>
		<line class="st2" x1="10.5" y1="19.5" x2="9.5" y2="19.5"/>
		<line class="st2" x1="13.5" y1="19.5" x2="12.5" y2="19.5"/>
		<line class="st2" x1="16.5" y1="19.5" x2="15.5" y2="19.5"/>
		<line class="st2" x1="19.5" y1="19.5" x2="18.5" y2="19.5"/>
		<polyline class="st2" points="21.5,19.5 22.5,19.5 22.5,18.5 		"/>
		<polyline class="st2" points="1.5,19.5 0.5,19.5 0.5,18.5 		"/>
		<line class="st2" x1="22.5" y1="16.5" x2="22.5" y2="15.5"/>
		<line class="st2" x1="22.5" y1="13.5" x2="22.5" y2="12.5"/>
		<line class="st2" x1="22.5" y1="10.5" x2="22.5" y2="9.5"/>
		<line class="st2" x1="0.5" y1="16.5" x2="0.5" y2="15.5"/>
		<line class="st2" x1="0.5" y1="13.5" x2="0.5" y2="12.5"/>
		<line class="st2" x1="0.5" y1="10.5" x2="0.5" y2="9.5"/>
		<rect x="13.5" y="3.5" class="st3" width="9" height="6"/>
	</g>
</g>
</svg>
