<?xml version="1.0" encoding="utf-8"?>
<!-- Generator: Adobe Illustrator 19.2.0, SVG Export Plug-In . SVG Version: 6.00 Build 0)  -->
<svg version="1.1" id="Layer_1" xmlns="http://www.w3.org/2000/svg" xmlns:xlink="http://www.w3.org/1999/xlink" x="0px" y="0px"
	 viewBox="0 0 24 24" style="enable-background:new 0 0 24 24;" xml:space="preserve">
<style type="text/css">
	.st0{display:none;}
	.st1{display:inline;}
	.st2{fill:none;stroke:#000000;stroke-linecap:round;stroke-linejoin:round;stroke-miterlimit:10;}
</style>
<g id="Filled_Icons" class="st0">
	<g class="st1">
		<path d="M13.2,14.3c-0.1-0.1-0.2-0.2-0.3-0.2c-0.2-0.1-0.5-0.1-0.8,0c-0.1,0.1-0.2,0.1-0.3,0.2l-4,4c-0.4,0.4-0.4,1,0,1.4
			c0.4,0.4,1,0.4,1.4,0l2.3-2.3V23c0,0.6,0.4,1,1,1c0.6,0,1-0.4,1-1v-5.6l2.3,2.3c0.2,0.2,0.5,0.3,0.7,0.3c0.3,0,0.5-0.1,0.7-0.3
			c0.4-0.4,0.4-1,0-1.4L13.2,14.3z"/>
		<path d="M11.8,9.7c0.1,0.1,0.2,0.2,0.3,0.2c0.1,0.1,0.3,0.1,0.4,0.1c0.1,0,0.3,0,0.4-0.1c0.1-0.1,0.2-0.1,0.3-0.2l4-4
			c0.4-0.4,0.4-1,0-1.4c-0.4-0.4-1-0.4-1.4,0l-2.3,2.3V1c0-0.6-0.4-1-1-1c-0.6,0-1,0.4-1,1v5.6L9.2,4.3c-0.4-0.4-1-0.4-1.4,0
			c-0.4,0.4-0.4,1,0,1.4L11.8,9.7z"/>
		<path d="M21.5,11h-19c-0.6,0-1,0.4-1,1c0,0.6,0.4,1,1,1h19c0.6,0,1-0.4,1-1C22.5,11.4,22.1,11,21.5,11z"/>
	</g>
</g>
<g id="Outline_Icons">
	<g>
		<line class="st2" x1="12.5" y1="22.5" x2="12.5" y2="13.5"/>
		<polyline class="st2" points="8.5,17.5 12.5,13.5 16.5,17.5 		"/>
		<line class="st2" x1="12.5" y1="0.5" x2="12.5" y2="9.5"/>
		<polyline class="st2" points="8.5,5.5 12.5,9.5 16.5,5.5 		"/>
		<line class="st2" x1="21.5" y1="11.5" x2="2.5" y2="11.5"/>
	</g>
</g>
</svg>
