<?xml version="1.0" encoding="utf-8"?>
<!-- Generator: Adobe Illustrator 19.2.0, SVG Export Plug-In . SVG Version: 6.00 Build 0)  -->
<svg version="1.1" id="Layer_1" xmlns="http://www.w3.org/2000/svg" xmlns:xlink="http://www.w3.org/1999/xlink" x="0px" y="0px"
	 viewBox="0 0 24 24" style="enable-background:new 0 0 24 24;" xml:space="preserve">
<style type="text/css">
	.st0{display:none;}
	.st1{display:inline;}
	.st2{fill:none;stroke:#000000;stroke-linecap:round;stroke-linejoin:round;stroke-miterlimit:10;}
</style>
<g id="Filled_Icons" class="st0">
	<g class="st1">
		<path d="M9.7,14.3C9.5,14.1,9.2,14,8.9,14H4c-0.6,0-1,0.4-1,1c0,0.6,0.4,1,1,1h2.6l-6.3,6.3c-0.4,0.4-0.4,1,0,1.4
			C0.5,23.9,0.7,24,1,24c0.3,0,0.5-0.1,0.7-0.3L8,17.4L8,20c0,0.6,0.4,1,1,1l0,0c0.6,0,1-0.4,1-1l0-4.8C10,14.8,10,14.5,9.7,14.3z"
			/>
		<path d="M23.7,0.3c-0.4-0.4-1-0.4-1.4,0L16,6.6V4c0-0.6-0.4-1-1-1c-0.6,0-1,0.4-1,1v5c0,0.6,0.5,1.1,1.1,1l4.9,0h0
			c0.6,0,1-0.4,1-1c0-0.6-0.4-1-1-1l-2.6,0l6.3-6.3C24.1,1.3,24.1,0.7,23.7,0.3z"/>
	</g>
</g>
<g id="Outline_Icons">
	<g>
		<line class="st2" x1="0.5" y1="23.5" x2="8.5" y2="15.5"/>
		<polyline class="st2" points="3.5,15.5 8.5,15.5 8.5,20.5 		"/>
		<line class="st2" x1="23.5" y1="0.5" x2="15.5" y2="8.5"/>
		<polyline class="st2" points="20.5,8.5 15.5,8.5 15.5,3.5 		"/>
	</g>
</g>
</svg>
