<?xml version="1.0" encoding="utf-8"?>
<!-- Generator: Adobe Illustrator 19.2.0, SVG Export Plug-In . SVG Version: 6.00 Build 0)  -->
<svg version="1.1" id="Layer_1" xmlns="http://www.w3.org/2000/svg" xmlns:xlink="http://www.w3.org/1999/xlink" x="0px" y="0px"
	 viewBox="0 0 24 24" style="enable-background:new 0 0 24 24;" xml:space="preserve">
<style type="text/css">
	.st0{display:none;}
	.st1{display:inline;}
	.st2{fill:none;stroke:#000000;stroke-linecap:round;stroke-linejoin:round;stroke-miterlimit:10;}
</style>
<g id="Filled_Icon" class="st0">
	<g class="st1">
		<path d="M2,13H0.5C0.2,13,0,13.2,0,13.5v1C0,14.8,0.2,15,0.5,15C0.8,15,1,14.8,1,14.5V14h1c0.3,0,0.5-0.2,0.5-0.5
			C2.5,13.2,2.3,13,2,13z"/>
		<path d="M7.5,13h-1C6.2,13,6,13.2,6,13.5C6,13.8,6.2,14,6.5,14h1C7.8,14,8,13.8,8,13.5C8,13.2,7.8,13,7.5,13z"/>
		<path d="M4.5,23h-1C3.2,23,3,23.2,3,23.5C3,23.8,3.2,24,3.5,24h1C4.8,24,5,23.8,5,23.5C5,23.2,4.8,23,4.5,23z"/>
		<path d="M23,0H4C3.4,0,3,0.4,3,1v11.5c0,0.2,0,0.8,0,1C3,13.8,3.2,14,3.5,14h1C4.8,14,5,13.8,5,13.5c0-0.2,0-0.8,0-1V2h17v17h-9.5
			c-0.6,0-1,0.4-1,1c0,0.6,0.4,1,1,1H23c0.6,0,1-0.4,1-1V1C24,0.4,23.6,0,23,0z"/>
		<path d="M7.5,23h-1C6.2,23,6,23.2,6,23.5C6,23.8,6.2,24,6.5,24h1C7.8,24,8,23.8,8,23.5C8,23.2,7.8,23,7.5,23z"/>
		<path d="M2,23H1v-1c0-0.3-0.2-0.5-0.5-0.5C0.2,21.5,0,21.7,0,22v1.5C0,23.8,0.2,24,0.5,24H2c0.3,0,0.5-0.2,0.5-0.5
			C2.5,23.2,2.3,23,2,23z"/>
		<path d="M0.5,18C0.8,18,1,17.8,1,17.5v-1C1,16.2,0.8,16,0.5,16C0.2,16,0,16.2,0,16.5v1C0,17.8,0.2,18,0.5,18z"/>
		<path d="M0.5,20.5C0.8,20.5,1,20.3,1,20v-1c0-0.3-0.2-0.5-0.5-0.5C0.2,18.5,0,18.7,0,19v1C0,20.3,0.2,20.5,0.5,20.5z"/>
		<path d="M11,13.5c0-0.3-0.2-0.5-0.5-0.5H9c-0.3,0-0.5,0.2-0.5,0.5C8.5,13.8,8.7,14,9,14h1v0.5c0,0.3,0.2,0.5,0.5,0.5
			c0.3,0,0.5-0.2,0.5-0.5V13.5z"/>
		<path d="M10.5,21c-0.3,0-0.5,0.2-0.5,0.5V23H9c-0.3,0-0.5,0.2-0.5,0.5C8.5,23.8,8.7,24,9,24h1.5c0.3,0,0.5-0.2,0.5-0.5v-2
			C11,21.2,10.8,21,10.5,21z"/>
		<path d="M10.5,16c-0.3,0-0.5,0.2-0.5,0.5v1c0,0.3,0.2,0.5,0.5,0.5c0.3,0,0.5-0.2,0.5-0.5v-1C11,16.2,10.8,16,10.5,16z"/>
		<path d="M10.5,18.5c-0.3,0-0.5,0.2-0.5,0.5v1c0,0.3,0.2,0.5,0.5,0.5c0.3,0,0.5-0.2,0.5-0.5v-1C11,18.7,10.8,18.5,10.5,18.5z"/>
		<path d="M12.5,5.5c-0.6,0-1,0.4-1,1v5c0,0.5,0.5,1,1,1h5c0.6,0,1-0.4,1-1c0-0.6-0.4-1-1-1h-2.6l5.8-5.8c0.4-0.4,0.4-1,0-1.4
			c-0.4-0.4-1-0.4-1.4,0l-5.8,5.8V6.5C13.5,5.9,13.1,5.5,12.5,5.5z"/>
	</g>
</g>
<g id="Outline_Icons">
	<g>
		<polyline class="st2" points="10.5,20.5 23.5,20.5 23.5,0.5 3.5,0.5 3.5,13.5 		"/>
		<line class="st2" x1="20.5" y1="3.5" x2="12.5" y2="11.5"/>
		<polyline class="st2" points="17.5,11.5 12.5,11.5 12.5,6.5 		"/>
		<g>
			<polyline class="st2" points="1.5,13.5 0.5,13.5 0.5,14.5 			"/>
			<line class="st2" x1="0.5" y1="16.5" x2="0.5" y2="17.5"/>
			<line class="st2" x1="4.5" y1="13.5" x2="3.5" y2="13.5"/>
			<line class="st2" x1="7.5" y1="13.5" x2="6.5" y2="13.5"/>
			<line class="st2" x1="4.5" y1="23.5" x2="3.5" y2="23.5"/>
			<line class="st2" x1="7.5" y1="23.5" x2="6.5" y2="23.5"/>
			<polyline class="st2" points="1.5,23.5 0.5,23.5 0.5,22.5 			"/>
			<line class="st2" x1="0.5" y1="20.5" x2="0.5" y2="19.5"/>
			<polyline class="st2" points="9.5,13.5 10.5,13.5 10.5,14.5 			"/>
			<line class="st2" x1="10.5" y1="16.5" x2="10.5" y2="17.5"/>
			<polyline class="st2" points="9.5,23.5 10.5,23.5 10.5,22.5 			"/>
			<line class="st2" x1="10.5" y1="20.5" x2="10.5" y2="19.5"/>
		</g>
	</g>
</g>
</svg>
