<?xml version="1.0" encoding="utf-8"?>
<!-- Generator: Adobe Illustrator 19.2.0, SVG Export Plug-In . SVG Version: 6.00 Build 0)  -->
<svg version="1.1" id="Layer_1" xmlns="http://www.w3.org/2000/svg" xmlns:xlink="http://www.w3.org/1999/xlink" x="0px" y="0px"
	 viewBox="0 0 24 24" style="enable-background:new 0 0 24 24;" xml:space="preserve">
<style type="text/css">
	.st0{display:none;}
	.st1{display:inline;}
	.st2{fill:none;stroke:#000000;stroke-linecap:round;stroke-linejoin:round;stroke-miterlimit:10;}
</style>
<g id="Filled_Icons" class="st0">
	<g class="st1">
		<path d="M23,22H12.5v-5.1l1.3,1.3c0.2,0.2,0.5,0.3,0.7,0.3c0.3,0,0.5-0.1,0.7-0.3c0.4-0.4,0.4-1,0-1.4l-3-3
			c-0.1-0.1-0.2-0.2-0.3-0.2c-0.2-0.1-0.5-0.1-0.8,0c-0.1,0.1-0.2,0.1-0.3,0.2l-3,3c-0.4,0.4-0.4,1,0,1.4c0.4,0.4,1,0.4,1.4,0
			l1.3-1.3V22H1c-0.6,0-1,0.4-1,1c0,0.6,0.4,1,1,1h22c0.6,0,1-0.4,1-1C24,22.4,23.6,22,23,22z"/>
		<path d="M1,2h9.5v6.1L9.2,6.8c-0.4-0.4-1-0.4-1.4,0c-0.4,0.4-0.4,1,0,1.4l3,3c0.1,0.1,0.2,0.2,0.3,0.2c0.1,0.1,0.3,0.1,0.4,0.1
			c0.1,0,0.3,0,0.4-0.1c0.1-0.1,0.2-0.1,0.3-0.2l3-3c0.4-0.4,0.4-1,0-1.4c-0.4-0.4-1-0.4-1.4,0l-1.3,1.3V2H23c0.6,0,1-0.4,1-1
			c0-0.6-0.4-1-1-1H1C0.4,0,0,0.4,0,1C0,1.6,0.4,2,1,2z"/>
	</g>
</g>
<g id="Outline_Icons">
	<g>
		<line class="st2" x1="23.5" y1="23.5" x2="0.5" y2="23.5"/>
		<line class="st2" x1="23.5" y1="0.5" x2="0.5" y2="0.5"/>
		<line class="st2" x1="11.5" y1="14.5" x2="11.5" y2="23.5"/>
		<line class="st2" x1="11.5" y1="0.5" x2="11.5" y2="10.5"/>
		<polyline class="st2" points="8.5,17.5 11.5,14.5 14.5,17.5 		"/>
		<polyline class="st2" points="8.5,7.5 11.5,10.5 14.5,7.5 		"/>
	</g>
</g>
</svg>
