<?xml version="1.0" encoding="utf-8"?>
<!-- Generator: Adobe Illustrator 19.2.0, SVG Export Plug-In . SVG Version: 6.00 Build 0)  -->
<svg version="1.1" id="Layer_1" xmlns="http://www.w3.org/2000/svg" xmlns:xlink="http://www.w3.org/1999/xlink" x="0px" y="0px"
	 viewBox="0 0 24 24" style="enable-background:new 0 0 24 24;" xml:space="preserve">
<style type="text/css">
	.st0{display:none;}
	.st1{display:inline;}
	.st2{fill:none;stroke:#000000;stroke-linecap:round;stroke-linejoin:round;stroke-miterlimit:10;}
</style>
<g id="Filled_Icons" class="st0">
	<g class="st1">
		<path d="M15,8H9C8.4,8,8,8.4,8,9v6c0,0.6,0.4,1,1,1h6c0.6,0,1-0.4,1-1V9C16,8.4,15.6,8,15,8z M14,14h-4v-4h4V14z"/>
		<path d="M17.1,7.4c0.1,0.1,0.3,0.1,0.4,0.1h5c0.6,0,1-0.4,1-1c0-0.6-0.4-1-1-1h-2.6l3.8-3.8c0.4-0.4,0.4-1,0-1.4
			c-0.4-0.4-1-0.4-1.4,0l-3.8,3.8V1.5c0-0.6-0.4-1-1-1c-0.6,0-1,0.4-1,1v5c0,0.1,0,0.3,0.1,0.4C16.7,7.1,16.9,7.3,17.1,7.4z"/>
		<path d="M6.9,16.6c-0.1-0.1-0.3-0.1-0.4-0.1h-5c-0.6,0-1,0.4-1,1c0,0.6,0.4,1,1,1h2.6l-3.8,3.8c-0.4,0.4-0.4,1,0,1.4
			C0.5,23.9,0.7,24,1,24c0.3,0,0.5-0.1,0.7-0.3l3.8-3.8v2.6c0,0.6,0.4,1,1,1c0.6,0,1-0.4,1-1v-5c0-0.1,0-0.3-0.1-0.4
			C7.3,16.9,7.1,16.7,6.9,16.6z"/>
		<path d="M19.9,18.5h2.6c0.6,0,1-0.4,1-1c0-0.6-0.4-1-1-1h-5c-0.1,0-0.3,0-0.4,0.1c-0.2,0.1-0.4,0.3-0.5,0.5
			c-0.1,0.1-0.1,0.3-0.1,0.4v5c0,0.6,0.4,1,1,1c0.6,0,1-0.4,1-1v-2.6l3.8,3.8c0.2,0.2,0.5,0.3,0.7,0.3c0.3,0,0.5-0.1,0.7-0.3
			c0.4-0.4,0.4-1,0-1.4L19.9,18.5z"/>
		<path d="M6.5,0.5c-0.6,0-1,0.4-1,1v2.6L1.7,0.3c-0.4-0.4-1-0.4-1.4,0c-0.4,0.4-0.4,1,0,1.4l3.8,3.8H1.5c-0.6,0-1,0.4-1,1
			c0,0.6,0.4,1,1,1h5c0.1,0,0.3,0,0.4-0.1c0.2-0.1,0.4-0.3,0.5-0.5c0.1-0.1,0.1-0.3,0.1-0.4v-5C7.5,0.9,7.1,0.5,6.5,0.5z"/>
	</g>
</g>
<g id="Outline_Icons">
	<g>
		<rect x="8.5" y="8.5" class="st2" width="7" height="7"/>
		<line class="st2" x1="0.5" y1="23.5" x2="7.5" y2="16.5"/>
		<line class="st2" x1="16.5" y1="7.5" x2="23.5" y2="0.5"/>
		<polyline class="st2" points="21.5,7.5 16.5,7.5 16.5,2.5 		"/>
		<polyline class="st2" points="7.5,21.5 7.5,16.5 2.5,16.5 		"/>
		<line class="st2" x1="0.5" y1="0.5" x2="7.5" y2="7.5"/>
		<line class="st2" x1="16.5" y1="16.5" x2="23.5" y2="23.5"/>
		<polyline class="st2" points="16.5,21.5 16.5,16.5 21.5,16.5 		"/>
		<polyline class="st2" points="2.5,7.5 7.5,7.5 7.5,2.5 		"/>
	</g>
</g>
</svg>
