<?xml version="1.0" encoding="utf-8"?>
<!-- Generator: Adobe Illustrator 19.2.0, SVG Export Plug-In . SVG Version: 6.00 Build 0)  -->
<svg version="1.1" id="Layer_1" xmlns="http://www.w3.org/2000/svg" xmlns:xlink="http://www.w3.org/1999/xlink" x="0px" y="0px"
	 viewBox="0 0 24 24" style="enable-background:new 0 0 24 24;" xml:space="preserve">
<style type="text/css">
	.st0{display:none;}
	.st1{display:inline;}
	.st2{fill:none;stroke:#000000;stroke-linecap:round;stroke-linejoin:round;stroke-miterlimit:10;}
</style>
<g id="Filled_Icons" class="st0">
	<g class="st1">
		<path d="M23.7,0.3c-0.4-0.4-1-0.4-1.4,0L14,8.6V4c0-0.6-0.4-1-1-1c-0.6,0-1,0.4-1,1v7c0,0.6,0.4,1,1,1h7c0.6,0,1-0.4,1-1
			c0-0.6-0.4-1-1-1h-4.6l8.3-8.3C24.1,1.3,24.1,0.7,23.7,0.3z"/>
		<path d="M11,12H4c-0.6,0-1,0.4-1,1c0,0.6,0.4,1,1,1h4.6l-8.3,8.3c-0.4,0.4-0.4,1,0,1.4C0.5,23.9,0.7,24,1,24
			c0.3,0,0.5-0.1,0.7-0.3l8.3-8.3V20c0,0.6,0.4,1,1,1c0.6,0,1-0.4,1-1v-7C12,12.5,11.5,12,11,12z"/>
	</g>
</g>
<g id="Outline_Icons">
	<g>
		<line class="st2" x1="13.5" y1="10.5" x2="23.5" y2="0.5"/>
		<line class="st2" x1="0.5" y1="23.5" x2="10.5" y2="13.5"/>
		<polyline class="st2" points="20.5,10.5 13.5,10.5 13.5,3.5 		"/>
		<polyline class="st2" points="10.5,20.5 10.5,13.5 3.5,13.5 		"/>
	</g>
</g>
</svg>
