<?xml version="1.0" encoding="utf-8"?>
<!-- Generator: Adobe Illustrator 19.2.0, SVG Export Plug-In . SVG Version: 6.00 Build 0)  -->
<svg version="1.1" id="Layer_1" xmlns="http://www.w3.org/2000/svg" xmlns:xlink="http://www.w3.org/1999/xlink" x="0px" y="0px"
	 viewBox="0 0 24 24" style="enable-background:new 0 0 24 24;" xml:space="preserve">
<style type="text/css">
	.st0{display:none;}
	.st1{display:inline;}
	.st2{fill:none;stroke:#000000;stroke-linecap:round;stroke-linejoin:round;stroke-miterlimit:10;}
</style>
<g id="Filled_Icons" class="st0">
	<g class="st1">
		<path d="M15,10h5c0.6,0,1-0.4,1-1c0-0.6-0.4-1-1-1h-2.6l6.3-6.3c0.4-0.4,0.4-1,0-1.4c-0.4-0.4-1-0.4-1.4,0L16,6.6V4
			c0-0.6-0.4-1-1-1s-1,0.4-1,1v5C14,9.6,14.5,10,15,10z"/>
		<path d="M9,14l-5,0h0c-0.6,0-1,0.4-1,1c0,0.6,0.4,1,1,1l2.6,0l-6.3,6.3c-0.4,0.4-0.4,1,0,1.4C0.5,23.9,0.7,24,1,24
			c0.3,0,0.5-0.1,0.7-0.3L8,17.4L8,20c0,0.6,0.4,1,1,1h0c0.6,0,1-0.4,1-1l0-5c0,0,0,0,0,0C10,14.5,9.6,14,9,14z"/>
		<path d="M6.6,8H4C3.5,8,3,8.5,3,9c0,0.6,0.4,1,1,1h4.9c0,0,0.1,0,0.1,0c0.5,0,1-0.4,1-1V4c0-0.6-0.4-1-1-1C8.5,3,8,3.5,8,4v2.6
			L1.7,0.3c-0.4-0.4-1-0.4-1.4,0c-0.4,0.4-0.4,1,0,1.4L6.6,8z"/>
		<path d="M17.4,16l2.6,0h0c0.6,0,1-0.4,1-1c0-0.6-0.4-1-1-1l-5,0h0c-0.5,0-1,0.4-1,1c0,0,0,0,0,0l0,5c0,0.6,0.4,1,1,1c0,0,0,0,0,0
			c0.6,0,1-0.4,1-1l0-2.6l6.3,6.3c0.2,0.2,0.5,0.3,0.7,0.3c0.3,0,0.5-0.1,0.7-0.3c0.4-0.4,0.4-1,0-1.4L17.4,16z"/>
	</g>
</g>
<g id="Outline_Icons">
	<g>
		<line class="st2" x1="15.5" y1="8.5" x2="23.5" y2="0.5"/>
		<line class="st2" x1="0.5" y1="23.5" x2="8.5" y2="15.5"/>
		<polyline class="st2" points="20.5,8.5 15.5,8.5 15.5,3.5 		"/>
		<polyline class="st2" points="8.5,20.5 8.5,15.5 3.5,15.5 		"/>
		<line class="st2" x1="15.5" y1="15.5" x2="23.5" y2="23.5"/>
		<line class="st2" x1="0.5" y1="0.5" x2="8.5" y2="8.5"/>
		<polyline class="st2" points="15.5,20.5 15.5,15.5 20.5,15.5 		"/>
		<polyline class="st2" points="3.5,8.5 8.5,8.5 8.5,3.5 		"/>
	</g>
</g>
</svg>
