<?xml version="1.0" encoding="utf-8"?>
<!-- Generator: Adobe Illustrator 19.2.0, SVG Export Plug-In . SVG Version: 6.00 Build 0)  -->
<svg version="1.1" id="Layer_1" xmlns="http://www.w3.org/2000/svg" xmlns:xlink="http://www.w3.org/1999/xlink" x="0px" y="0px"
	 viewBox="0 0 24 24" style="enable-background:new 0 0 24 24;" xml:space="preserve">
<style type="text/css">
	.st0{display:none;}
	.st1{display:inline;}
	.st2{fill:none;stroke:#000000;stroke-linejoin:round;stroke-miterlimit:10;}
</style>
<g id="Filled_Icons" class="st0">
	<path class="st1" d="M20,14.9l-0.3,0C18.2,14.8,17,13.5,17,12c0-1.5,1.2-2.8,2.7-2.9l0.3,0l3.9-7.9c0.2-0.3,0.1-0.7-0.2-1
		c-0.3-0.3-0.7-0.3-1-0.2L14.9,4l0,0.3C14.8,5.8,13.5,7,12,7S9.2,5.8,9.1,4.3l0-0.3L1.3,0.1C0.9-0.1,0.5,0,0.3,0.3
		C0,0.5-0.1,0.9,0.1,1.3L4,9.1l0.3,0C5.8,9.2,7,10.5,7,12c0,1.5-1.2,2.8-2.7,2.9l-0.3,0l-3.9,7.9c-0.2,0.3-0.1,0.7,0.2,1
		c0.3,0.3,0.7,0.3,1,0.2L9.1,20l0-0.3C9.2,18.2,10.5,17,12,17s2.8,1.2,2.9,2.7l0,0.3l7.9,3.9C22.9,24,23,24,23.1,24
		c0.2,0,0.5-0.1,0.6-0.3c0.3-0.3,0.3-0.7,0.2-1L20,14.9z M12,14.2c-1.2,0-2.2-1-2.2-2.2c0-1.2,1-2.2,2.2-2.2s2.2,1,2.2,2.2
		C14.2,13.2,13.2,14.2,12,14.2z"/>
</g>
<g id="Outline_Icons">
	<g>
		<path class="st2" d="M16.5,12c0-1.8,1.4-3.3,3.2-3.4L23.5,1c0.1-0.1,0-0.3-0.1-0.4c-0.1-0.1-0.3-0.1-0.4-0.1l-7.6,3.8
			c-0.1,1.8-1.6,3.2-3.4,3.2S8.7,6.1,8.6,4.3L1,0.5c-0.1-0.1-0.3,0-0.4,0.1S0.5,0.9,0.5,1l3.8,7.6c1.8,0.1,3.2,1.6,3.2,3.4
			s-1.4,3.3-3.2,3.4L0.5,23c-0.1,0.1,0,0.3,0.1,0.4c0.1,0.1,0.3,0.1,0.4,0.1l7.6-3.8c0.1-1.8,1.6-3.2,3.4-3.2s3.3,1.4,3.4,3.2
			l7.6,3.8c0.1,0.1,0.3,0,0.4-0.1c0.1-0.1,0.1-0.3,0.1-0.4l-3.8-7.6C17.9,15.3,16.5,13.8,16.5,12z M12,14.2c-1.2,0-2.2-1-2.2-2.2
			s1-2.2,2.2-2.2s2.2,1,2.2,2.2C14.2,13.2,13.2,14.2,12,14.2z"/>
	</g>
</g>
</svg>
