<?xml version="1.0" encoding="utf-8"?>
<!-- Generator: Adobe Illustrator 19.2.0, SVG Export Plug-In . SVG Version: 6.00 Build 0)  -->
<svg version="1.1" id="Layer_1" xmlns="http://www.w3.org/2000/svg" xmlns:xlink="http://www.w3.org/1999/xlink" x="0px" y="0px"
	 viewBox="0 0 24 24" style="enable-background:new 0 0 24 24;" xml:space="preserve">
<style type="text/css">
	.st0{display:none;}
	.st1{display:inline;}
	.st2{fill:none;stroke:#000000;stroke-linecap:round;stroke-linejoin:round;stroke-miterlimit:10;}
</style>
<g id="Filled_Icon" class="st0">
	<g class="st1">
		<path d="M20.5,24H1c-0.4,0-0.8-0.3-0.9-0.7c-0.1-0.4,0-0.8,0.3-1.1L12.5,12L0.4,1.8C0,1.5-0.1,1.1,0.1,0.7C0.2,0.3,0.6,0,1,0h19.5
			c0.6,0,1,0.4,1,1s-0.4,1-1,1H3.7l10.9,9.2c0.2,0.2,0.4,0.5,0.4,0.8s-0.1,0.6-0.4,0.8L3.7,22h16.8c0.6,0,1,0.4,1,1S21.1,24,20.5,24
			z"/>
	</g>
</g>
<g id="Outline_Icons">
	<g>
		<polyline class="st2" points="21,0.5 1.5,0.5 14.5,12 1.5,23.5 21,23.5 		"/>
	</g>
</g>
</svg>
