<?xml version="1.0" encoding="utf-8"?>
<!-- Generator: Adobe Illustrator 19.2.0, SVG Export Plug-In . SVG Version: 6.00 Build 0)  -->
<svg version="1.1" id="Layer_1" xmlns="http://www.w3.org/2000/svg" xmlns:xlink="http://www.w3.org/1999/xlink" x="0px" y="0px"
	 viewBox="0 0 24 24" style="enable-background:new 0 0 24 24;" xml:space="preserve">
<style type="text/css">
	.st0{display:none;}
	.st1{display:inline;}
	.st2{fill:none;stroke:#000000;stroke-linejoin:round;stroke-miterlimit:10;}
</style>
<g id="Filled_Icons" class="st0">
	<g class="st1">
		<path d="M16.5,0h-9C6.1,0,5,1.1,5,2.5v2C5,4.8,5.2,5,5.5,5h13C18.8,5,19,4.8,19,4.5v-2C19,1.1,17.9,0,16.5,0z"/>
		<path d="M18.5,19h-13C5.2,19,5,19.2,5,19.5v2C5,22.9,6.1,24,7.5,24h9c1.4,0,2.5-1.1,2.5-2.5v-2C19,19.2,18.8,19,18.5,19z"/>
		<polygon points="6,12.5 18,7 18,6 13.8,6 6,9.6 		"/>
		<polygon points="6,8.5 11.4,6 6,6 		"/>
		<polygon points="6,16.5 18,11 18,8.1 6,13.6 		"/>
		<polygon points="6,18 11.4,18 18,15 18,12.1 6,17.6 		"/>
		<polygon points="18,16.1 13.8,18 18,18 		"/>
	</g>
</g>
<g id="Outline_Icons">
	<g>
		<rect x="6.5" y="4.5" class="st2" width="11" height="15"/>
		<path class="st2" d="M5.5,2.5c0-1.1,0.9-2,2-2h9c1.1,0,2,0.9,2,2v2h-13V2.5z"/>
		<path class="st2" d="M18.5,21.5c0,1.1-0.9,2-2,2h-9c-1.1,0-2-0.9-2-2v-2h13V21.5z"/>
		<line class="st2" x1="15.9" y1="4.5" x2="6.4" y2="8.8"/>
		<line class="st2" x1="17.6" y1="7.7" x2="6.5" y2="12.8"/>
		<line class="st2" x1="17.5" y1="11.8" x2="6.5" y2="16.8"/>
		<line class="st2" x1="17.5" y1="15.7" x2="9.2" y2="19.6"/>
	</g>
</g>
</svg>
