<?xml version="1.0" encoding="utf-8"?>
<!-- Generator: Adobe Illustrator 19.2.0, SVG Export Plug-In . SVG Version: 6.00 Build 0)  -->
<svg version="1.1" id="Layer_1" xmlns="http://www.w3.org/2000/svg" xmlns:xlink="http://www.w3.org/1999/xlink" x="0px" y="0px"
	 viewBox="0 0 24 24" style="enable-background:new 0 0 24 24;" xml:space="preserve">
<style type="text/css">
	.st0{display:none;}
	.st1{display:inline;}
	.st2{fill:none;stroke:#000000;stroke-linejoin:round;stroke-miterlimit:10;}
</style>
<g id="Filled_Icons" class="st0">
	<path class="st1" d="M12,0C5.4,0,0,5.4,0,12s5.4,12,12,12c6.6,0,12-5.4,12-12S18.6,0,12,0z M10.5,20.4c-1.7-0.3-3.3-1.1-4.5-2.3
		l4.5-4.5V20.4z M10.5,9.4l-6.2,6.2c-0.6-0.7-0.8-2.6-0.8-3.6c0-4.2,3-7.6,7-8.4V9.4z M13.5,20.4v-6.8l4.5,4.5
		C16.8,19.2,15.2,20.1,13.5,20.4z M19.7,15.5l-6.2-6.2V3.6c4,0.7,7,4.2,7,8.4C20.5,13.3,20.2,14.5,19.7,15.5z"/>
</g>
<g id="Outline_Icons">
	<g>
		<circle class="st2" cx="12" cy="12" r="11.5"/>
		<path class="st2" d="M13.5,3.6c4,0.7,7,4.2,7,8.4c0,1.3-0.3,2.4-0.8,3.5l-6.2-6.2V3.6z"/>
		<path class="st2" d="M13.5,13.6L18,18c-1.2,1.2-2.8,2-4.5,2.3V13.6z"/>
		<path class="st2" d="M4.3,15.5l6.2-6.2V3.6c-4,0.7-7,4.2-7,8.4C3.5,12.9,3.8,14.8,4.3,15.5z"/>
		<path class="st2" d="M10.5,20.4c-1.7-0.3-3.3-1.1-4.5-2.3l4.5-4.5V20.4z"/>
	</g>
</g>
</svg>
