<?xml version="1.0" encoding="utf-8"?>
<!-- Generator: Adobe Illustrator 19.2.0, SVG Export Plug-In . SVG Version: 6.00 Build 0)  -->
<svg version="1.1" id="Layer_1" xmlns="http://www.w3.org/2000/svg" xmlns:xlink="http://www.w3.org/1999/xlink" x="0px" y="0px"
	 viewBox="0 0 24 24" style="enable-background:new 0 0 24 24;" xml:space="preserve">
<style type="text/css">
	.st0{display:none;}
	.st1{display:inline;}
	.st2{fill:none;stroke:#000000;stroke-linecap:round;stroke-linejoin:round;stroke-miterlimit:10;}
</style>
<g id="Filled_Icon" class="st0">
	<path class="st1" d="M21.5,9h-0.3l-8.9-8.9c-0.2-0.2-0.5-0.2-0.7,0L2.8,9H2.5C1.1,9,0,10.1,0,11.5v10C0,22.9,1.1,24,2.5,24h19
		c1.4,0,2.5-1.1,2.5-2.5v-10C24,10.1,22.9,9,21.5,9z M12,1.2L19.8,9H4.2L12,1.2z M21,19.5c0,0.8-0.7,1.5-1.5,1.5h-15
		C3.7,21,3,20.3,3,19.5v-6C3,12.7,3.7,12,4.5,12h15c0.8,0,1.5,0.7,1.5,1.5V19.5z"/>
</g>
<g id="Outline_Icons">
	<g>
		<path class="st2" d="M23.5,21.5c0,1.1-0.9,2-2,2h-19c-1.1,0-2-0.9-2-2v-10c0-1.1,0.9-2,2-2h19c1.1,0,2,0.9,2,2V21.5z"/>
		<path class="st2" d="M20.5,19.5c0,0.6-0.4,1-1,1h-15c-0.6,0-1-0.4-1-1v-6c0-0.6,0.4-1,1-1h15c0.6,0,1,0.4,1,1V19.5z"/>
		<polyline class="st2" points="21,9.5 12,0.5 3,9.5 		"/>
	</g>
</g>
</svg>
