<?xml version="1.0" encoding="utf-8"?>
<!-- Generator: Adobe Illustrator 19.2.0, SVG Export Plug-In . SVG Version: 6.00 Build 0)  -->
<svg version="1.1" id="Layer_1" xmlns="http://www.w3.org/2000/svg" xmlns:xlink="http://www.w3.org/1999/xlink" x="0px" y="0px"
	 viewBox="0 0 24 24" style="enable-background:new 0 0 24 24;" xml:space="preserve">
<style type="text/css">
	.st0{display:none;}
	.st1{display:inline;}
	.st2{fill:none;stroke:#000000;stroke-linecap:round;stroke-linejoin:round;stroke-miterlimit:10;}
</style>
<g id="Filled_Icons" class="st0">
	<path class="st1" d="M22.9,11.1l-11-11c-0.2-0.2-0.5-0.2-0.7,0l-11,11c-0.2,0.2-0.2,0.5,0,0.7l11,11c0.1,0.1,0.2,0.1,0.4,0.1
		c0.1,0,0.3,0,0.4-0.1l11-11C23,11.7,23,11.3,22.9,11.1z M14.1,13.1c0.2-0.2,0.5-0.2,0.7,0c0.2,0.2,0.2,0.5,0,0.7l-3,3
		c0,0-0.1,0.1-0.2,0.1c-0.1,0-0.1,0-0.2,0c-0.1,0-0.1,0-0.2,0c-0.1,0-0.1-0.1-0.2-0.1l-3-3c-0.2-0.2-0.2-0.5,0-0.7
		c0.2-0.2,0.5-0.2,0.7,0l2.1,2.1V7.7L8.9,9.9C8.7,10,8.3,10,8.1,9.9C8,9.7,8,9.3,8.1,9.1l3-3c0,0,0.1-0.1,0.2-0.1
		C11.4,6,11.6,6,11.7,6c0.1,0,0.1,0.1,0.2,0.1l3,3c0.2,0.2,0.2,0.5,0,0.7C14.8,10,14.6,10,14.5,10c-0.1,0-0.3,0-0.4-0.1L12,7.7v7.6
		L14.1,13.1z"/>
</g>
<g id="Outline_Icons">
	<g>
		
			<rect x="3.7" y="3.7" transform="matrix(0.7071 -0.7071 0.7071 0.7071 -4.7634 11.5001)" class="st2" width="15.6" height="15.6"/>
		<line class="st2" x1="11.5" y1="6.5" x2="11.5" y2="16.5"/>
		<polyline class="st2" points="8.5,9.5 11.5,6.5 14.5,9.5 		"/>
		<polyline class="st2" points="14.5,13.5 11.5,16.5 8.5,13.5 		"/>
	</g>
</g>
</svg>
