<?xml version="1.0" encoding="utf-8"?>
<!-- Generator: Adobe Illustrator 19.2.0, SVG Export Plug-In . SVG Version: 6.00 Build 0)  -->
<svg version="1.1" id="Layer_1" xmlns="http://www.w3.org/2000/svg" xmlns:xlink="http://www.w3.org/1999/xlink" x="0px" y="0px"
	 viewBox="0 0 24 24" style="enable-background:new 0 0 24 24;" xml:space="preserve">
<style type="text/css">
	.st0{display:none;}
	.st1{display:inline;}
	.st2{fill:none;stroke:#000000;stroke-linecap:round;stroke-linejoin:round;stroke-miterlimit:10;}
</style>
<g id="Filled_Icons" class="st0">
	<path class="st1" d="M12,0C5.4,0,0,5.4,0,12s5.4,12,12,12c6.6,0,12-5.4,12-12S18.6,0,12,0z M15.7,22C15.7,22,15.7,22,15.7,22H8.3
		c-0.3,0-0.5-0.2-0.5-0.5c0-2.2,1.8-5.5,4.2-5.5c2.4,0,4.2,3.2,4.2,5.4c0,0,0,0.1,0,0.1C16.2,21.8,16,22,15.7,22z M9,12.4
		c0-1.6,1.3-3,3-3c1.6,0,3,1.3,3,3c0,1.6-1.3,3-3,3C10.4,15.4,9,14.1,9,12.4z M16.4,16.9c-0.1,0-0.3,0-0.4-0.1
		c-0.2-0.2-0.2-0.5,0-0.7c1.1-1.1,1.7-2.5,1.7-4c0-1.5-0.6-3-1.7-4C13.8,5.8,10.2,5.8,8,8C6.9,9,6.3,10.5,6.3,12c0,1.5,0.6,3,1.7,4
		c0.2,0.2,0.2,0.5,0,0.7c-0.2,0.2-0.5,0.2-0.7,0c-1.3-1.3-2-2.9-2-4.7c0-1.8,0.7-3.5,2-4.7c2.6-2.6,6.9-2.6,9.5,0
		c1.3,1.3,2,2.9,2,4.7c0,1.8-0.7,3.5-2,4.7C16.6,16.8,16.5,16.9,16.4,16.9z M19.1,19.1c-0.2,0.2-0.5,0.2-0.7,0
		c-0.2-0.2-0.2-0.5,0-0.7c1.7-1.7,2.6-4,2.6-6.4c0-2.4-0.9-4.7-2.6-6.4c-3.5-3.5-9.2-3.5-12.7,0c-3.5,3.5-3.5,9.2,0,12.7
		c0.2,0.2,0.2,0.5,0,0.7c-0.1,0.1-0.2,0.1-0.4,0.1c-0.1,0-0.3,0-0.4-0.1C1,15.2,1,8.8,4.9,4.9C8.8,1,15.2,1,19.1,4.9
		C21,6.8,22,9.3,22,12C22,14.7,21,17.2,19.1,19.1z"/>
</g>
<g id="Outline_Icons">
	<g>
		<path class="st2" d="M16.5,23.5h-9c0-2.5,2-6,4.5-6C14.5,17.5,16.5,21,16.5,23.5z"/>
		<circle class="st2" cx="12" cy="12.5" r="3"/>
		<path class="st2" d="M6.7,17.3c-2.9-2.9-2.9-7.7,0-10.6c2.9-2.9,7.7-2.9,10.6,0c2.9,2.9,2.9,7.7,0,10.6"/>
		<path class="st2" d="M3.9,20.1c-4.5-4.5-4.5-11.8,0-16.3c4.5-4.5,11.8-4.5,16.3,0c4.5,4.5,4.5,11.8,0,16.3"/>
	</g>
</g>
</svg>
