<?xml version="1.0" encoding="utf-8"?>
<!-- Generator: Adobe Illustrator 19.2.0, SVG Export Plug-In . SVG Version: 6.00 Build 0)  -->
<svg version="1.1" id="Layer_1" xmlns="http://www.w3.org/2000/svg" xmlns:xlink="http://www.w3.org/1999/xlink" x="0px" y="0px"
	 viewBox="0 0 24 24" style="enable-background:new 0 0 24 24;" xml:space="preserve">
<style type="text/css">
	.st0{display:none;}
	.st1{display:inline;}
	.st2{fill:none;stroke:#000000;stroke-linejoin:round;stroke-miterlimit:10;}
	.st3{fill:none;stroke:#000000;stroke-linecap:round;stroke-linejoin:round;stroke-miterlimit:10;}
</style>
<g id="Filled_Icons" class="st0">
	<path class="st1" d="M23.9,7l-6.8-6.8C17,0.1,16.8,0,16.7,0H7.2C7.1,0,7,0.1,6.9,0.1L0.1,7C0.1,7.1,0,7.2,0,7.3v9.5
		c0,0.1,0.1,0.3,0.1,0.4l6.7,6.7C7,23.9,7.1,24,7.2,24h9.5c0.1,0,0.3-0.1,0.4-0.1l6.8-6.7c0.1-0.1,0.1-0.2,0.1-0.4V7.3
		C24,7.2,23.9,7.1,23.9,7z M18.7,10.8l-1.5,2.7c-0.3,0.5-0.4,1.1-0.4,1.7c0,2.3-0.6,4.2-3.1,4.2c-0.5,0-2,0-2.4,0
		c-0.8,0-1.6-0.3-2.2-1l-3.6-4.8c-0.4-0.4-0.4-1-0.1-1.4c0.4-0.4,1-0.4,1.4-0.1l2,1.8L7.8,6.4C7.7,5.8,8.1,5.3,8.6,5.2
		C9.2,5,9.7,5.4,9.8,6l1.1,5.3V4.8c0-0.6,0.5-1,1-1c0.6,0,1,0.5,1,1v6.5l1.1-5.1c0.1-0.6,0.7-0.9,1.2-0.8c0.6,0.1,0.9,0.7,0.8,1.2
		l-1.1,6l1.9-2.9c0.3-0.5,0.9-0.6,1.4-0.3C18.8,9.7,19,10.3,18.7,10.8z"/>
</g>
<g id="Outline_Icons">
	<g>
		<g>
			<path class="st2" d="M16.8,15.3c0-0.6,0.1-1.2,0.4-1.7l1.5-2.7c0.3-0.5,0.1-1.1-0.3-1.4c-0.5-0.3-1.1-0.1-1.4,0.3l-1.9,2.9l1.1-6
				c0.1-0.6-0.2-1.1-0.8-1.2c-0.6-0.1-1.1,0.2-1.2,0.8L13,11.3V4.8c0-0.6-0.5-1-1-1c-0.6,0-1,0.5-1,1v6.5L9.8,6
				C9.7,5.4,9.2,5,8.6,5.2C8.1,5.3,7.7,5.8,7.8,6.4L8.9,14l-2-1.8c-0.4-0.4-1.1-0.4-1.4,0.1c-0.4,0.4-0.4,1.1,0.1,1.4l3.6,4.8
				c0.6,0.6,1.4,1,2.2,1c0.4,0,1.9,0,2.4,0C16.1,19.5,16.8,17.6,16.8,15.3z"/>
		</g>
		<polygon class="st3" points="7.2,23.5 0.5,16.8 0.5,7.3 7.2,0.5 16.7,0.5 23.5,7.3 23.5,16.8 16.7,23.5 		"/>
	</g>
</g>
</svg>
