<?xml version="1.0" encoding="utf-8"?>
<!-- Generator: Adobe Illustrator 19.2.0, SVG Export Plug-In . SVG Version: 6.00 Build 0)  -->
<svg version="1.1" id="Layer_1" xmlns="http://www.w3.org/2000/svg" xmlns:xlink="http://www.w3.org/1999/xlink" x="0px" y="0px"
	 viewBox="0 0 24 24" style="enable-background:new 0 0 24 24;" xml:space="preserve">
<style type="text/css">
	.st0{display:none;}
	.st1{display:inline;}
	.st2{fill:none;stroke:#000000;stroke-linecap:round;stroke-linejoin:round;stroke-miterlimit:10;}
</style>
<g id="Filled_Icons" class="st0">
	<g class="st1">
		<path d="M12,0C5.4,0,0,5.4,0,12s5.4,12,12,12c6.6,0,12-5.4,12-12S18.6,0,12,0z M12,23C5.9,23,1,18.1,1,12S5.9,1,12,1
			c6.1,0,11,4.9,11,11S18.1,23,12,23z"/>
		<path d="M12,3c-5,0-9,4-9,9s4,9,9,9c5,0,9-4,9-9S17,3,12,3z M17,13.5c0,0.3-0.2,0.5-0.5,0.5H14v2.5c0,0.3-0.2,0.5-0.5,0.5h-3
			c-0.3,0-0.5-0.2-0.5-0.5V14H7.5C7.2,14,7,13.8,7,13.5v-3C7,10.2,7.2,10,7.5,10H10V7.5C10,7.2,10.2,7,10.5,7h3
			C13.8,7,14,7.2,14,7.5V10h2.5c0.3,0,0.5,0.2,0.5,0.5V13.5z"/>
	</g>
</g>
<g id="Outline_Icons">
	<g>
		<circle class="st2" cx="12" cy="12" r="11.5"/>
		<circle class="st2" cx="12" cy="12" r="8.5"/>
		<polygon class="st2" points="16.5,10.5 13.5,10.5 13.5,7.5 10.5,7.5 10.5,10.5 7.5,10.5 7.5,13.5 10.5,13.5 10.5,16.5 13.5,16.5 
			13.5,13.5 16.5,13.5 		"/>
	</g>
</g>
</svg>
