<?xml version="1.0" encoding="utf-8"?>
<!-- Generator: Adobe Illustrator 19.2.0, SVG Export Plug-In . SVG Version: 6.00 Build 0)  -->
<svg version="1.1" id="Layer_1" xmlns="http://www.w3.org/2000/svg" xmlns:xlink="http://www.w3.org/1999/xlink" x="0px" y="0px"
	 viewBox="0 0 24 24" style="enable-background:new 0 0 24 24;" xml:space="preserve">
<style type="text/css">
	.st0{display:none;}
	.st1{display:inline;}
	.st2{fill:none;stroke:#000000;stroke-linecap:round;stroke-linejoin:round;stroke-miterlimit:10;}
</style>
<g id="Filled_Icons" class="st0">
	<g class="st1">
		<path d="M12.5,6.8c-0.1-0.1-0.3-0.1-0.4-0.1c-0.1,0-0.3,0.1-0.3,0.3c-0.5,1.1-1.2,1.8-2,2.6s-1.7,1.6-2,2.9
			c-0.3,1-0.2,1.9,0.2,2.5c0.4,0.5,0.9,0.7,1.7,0.8c0,0.5,0,1,0.1,1.6c0.1,0.8,0.7,1.4,1.5,1.4c0.9,0,1.6-0.8,1.5-1.6
			c0-0.2,0-0.4,0-0.6c0.2,0.1,0.4,0.1,0.6,0.1c0.7,0,1.7-0.4,2.2-2.3C16,12.3,14.6,8.3,12.5,6.8z M12.5,10.8c-0.8,1.2-1,3.4-0.8,6.3
			c0,0.3-0.2,0.5-0.5,0.5l0,0c-0.3,0-0.5-0.2-0.5-0.5c-0.3-3.2,0.1-5.6,0.9-7c0.1-0.2,0.5-0.3,0.7-0.2
			C12.6,10.3,12.7,10.6,12.5,10.8z"/>
		<g>
			<path d="M6.8,10.3c-0.2-0.2-0.5-0.1-0.7,0.1l-2.5,3c-0.2-1.8,0.1-3.6,1.1-5.2c1.2-2,3.1-3.4,5.3-3.9c2.9-0.7,5.9,0.3,7.8,2.5
				C18,7,18.3,7,18.5,6.8s0.2-0.5,0-0.7c-2.2-2.5-5.6-3.6-8.8-2.8C7.3,3.8,5.1,5.4,3.8,7.6c-0.9,1.5-1.3,3.2-1.3,4.8L0.9,10
				C0.8,9.9,0.4,9.8,0.2,9.9c-0.2,0.2-0.3,0.5-0.1,0.7l2.8,4.1C3,14.9,3.1,15,3.3,15l0,0c0.1,0,0.3-0.1,0.4-0.2L6.9,11
				C7.1,10.8,7,10.5,6.8,10.3z"/>
			<path d="M23.5,14.4l-2.8-4.1c-0.1-0.1-0.2-0.2-0.4-0.2c-0.2,0-0.4,0.1-0.5,0.2l0,0L16.7,14c-0.2,0.2-0.1,0.5,0.1,0.7
				s0.5,0.1,0.7-0.1l2.4-2.9c0.1,3.6-2.6,7.1-6.2,8c-2.7,0.6-5.5-0.1-7.5-2.1c-0.2-0.2-0.5-0.2-0.7,0s-0.2,0.5,0,0.7
				c1.7,1.7,4,2.6,6.3,2.6c0.7,0,1.4-0.1,2.1-0.2c4-1,6.9-4.6,7-8.5l1.8,2.7c0.1,0.1,0.3,0.2,0.4,0.2s0.2,0,0.3-0.1
				C23.6,14.9,23.6,14.6,23.5,14.4z"/>
		</g>
	</g>
</g>
<g id="Outline_Icons">
	<g>
		<g>
			<path class="st2" d="M8.2,12.6c-0.4,1.7,0.1,3.2,3,2.5c2.3,1.9,3.4,1,3.8-0.9c0.5-1.9-0.9-5.6-2.8-7C11.1,9.7,8.7,10.4,8.2,12.6z
				"/>
			<path class="st2" d="M11.2,17.2c-0.2-2.2-0.1-5,0.9-6.6"/>
		</g>
		<g>
			<polyline class="st2" points="0.5,10.4 3.3,14.5 6.5,10.7 			"/>
			<polyline class="st2" points="23.1,14.7 20.3,10.5 17.1,14.3 			"/>
			<path class="st2" d="M20.2,10.5c0.8,4.4-2.3,8.7-6.5,9.7c-3,0.7-5.9-0.2-7.9-2.2"/>
			<path class="st2" d="M3.3,14.5C2,9.6,5.3,4.8,9.8,3.7C13,3,16.1,4.1,18.2,6.4"/>
		</g>
	</g>
</g>
</svg>
