<?xml version="1.0" encoding="utf-8"?>
<!-- Generator: Adobe Illustrator 19.2.0, SVG Export Plug-In . SVG Version: 6.00 Build 0)  -->
<svg version="1.1" id="Layer_1" xmlns="http://www.w3.org/2000/svg" xmlns:xlink="http://www.w3.org/1999/xlink" x="0px" y="0px"
	 viewBox="0 0 24 24" style="enable-background:new 0 0 24 24;" xml:space="preserve">
<style type="text/css">
	.st0{display:none;}
	.st1{display:inline;}
	.st2{fill:none;stroke:#000000;stroke-linecap:round;stroke-linejoin:round;stroke-miterlimit:10;}
</style>
<g id="Filled_Icons" class="st0">
	<path class="st1" d="M21.5,1h-15C5.7,1,5,1.7,5,2.5v1H2V1c0-0.6-0.4-1-1-1S0,0.5,0,1v22c0,0.6,0.4,1,1,1s1-0.4,1-1v-6.5h3v1
		C5,18.3,5.7,19,6.5,19h15c0.8,0,1.5-0.7,1.5-1.5v-15C23,1.7,22.3,1,21.5,1z M5,14.5H2v-9h3V14.5z M20,12.5c0,0.3-0.2,0.5-0.5,0.5
		H17v2.5c0,0.3-0.2,0.5-0.5,0.5h-5c-0.3,0-0.5-0.2-0.5-0.5V13H8.5C8.2,13,8,12.8,8,12.5v-5C8,7.2,8.2,7,8.5,7H11V4.5
		C11,4.2,11.2,4,11.5,4h5C16.8,4,17,4.2,17,4.5V7h2.5C19.8,7,20,7.2,20,7.5V12.5z"/>
</g>
<g id="Outline_Icons">
	<g>
		<line class="st2" x1="1.5" y1="23.5" x2="1.5" y2="0.5"/>
		<path class="st2" d="M22.5,17.5c0,0.6-0.4,1-1,1h-15c-0.6,0-1-0.4-1-1v-15c0-0.6,0.4-1,1-1h15c0.6,0,1,0.4,1,1V17.5z"/>
		<line class="st2" x1="1.5" y1="4.5" x2="5.5" y2="4.5"/>
		<line class="st2" x1="1.5" y1="15.5" x2="5.5" y2="15.5"/>
		<polygon class="st2" points="19.5,7.5 16.5,7.5 16.5,4.5 11.5,4.5 11.5,7.5 8.5,7.5 8.5,12.5 11.5,12.5 11.5,15.5 16.5,15.5 
			16.5,12.5 19.5,12.5 		"/>
	</g>
</g>
</svg>
