<?xml version="1.0" encoding="utf-8"?>
<!-- Generator: Adobe Illustrator 19.2.0, SVG Export Plug-In . SVG Version: 6.00 Build 0)  -->
<svg version="1.1" id="Layer_1" xmlns="http://www.w3.org/2000/svg" xmlns:xlink="http://www.w3.org/1999/xlink" x="0px" y="0px"
	 viewBox="0 0 24 24" style="enable-background:new 0 0 24 24;" xml:space="preserve">
<style type="text/css">
	.st0{display:none;}
	.st1{display:inline;}
	.st2{fill:none;stroke:#000000;stroke-linejoin:round;stroke-miterlimit:10;}
</style>
<g id="Filled_Icons" class="st0">
	<g class="st1">
		<path d="M14.1,10.7C13.5,10.3,12.8,10,12,10c-1.9,0-3.5,1.6-3.5,3.5c0,0.8,0.3,1.5,0.7,2.1L14.1,10.7z"/>
		<path d="M8.5,4h7C15.8,4,16,3.8,16,3.5V0H8v3.5C8,3.8,8.2,4,8.5,4z"/>
		<path d="M19,0.4C19,0.2,18.7,0,18.5,0H17v4.5C17,5.9,15.9,7,14.5,7h-5C8.1,7,7,5.9,7,4.5V0H5.5C5.3,0,5,0.2,5,0.4l-4,23
			c0,0.1,0,0.3,0.1,0.4C1.2,23.9,1.4,24,1.5,24h5c0.2,0,0.4-0.1,0.5-0.3L7.9,21h8.3l0.9,2.7c0.1,0.2,0.3,0.3,0.5,0.3h5
			c0.1,0,0.3-0.1,0.4-0.2s0.1-0.3,0.1-0.4L19,0.4z M12,18c-2.5,0-4.5-2-4.5-4.5C7.5,11,9.5,9,12,9c2.5,0,4.5,2,4.5,4.5
			C16.5,16,14.5,18,12,18z"/>
		<path d="M9.9,16.3c0.6,0.4,1.3,0.7,2.1,0.7c1.9,0,3.5-1.6,3.5-3.5c0-0.8-0.3-1.5-0.7-2.1L9.9,16.3z"/>
	</g>
</g>
<g id="Outline_Icons">
	<g>
		<polygon class="st2" points="18.5,0.5 5.5,0.5 1.5,23.5 6.5,23.5 7.5,20.5 16.5,20.5 17.5,23.5 22.5,23.5 		"/>
		<path class="st2" d="M7.5,0.5h9v4c0,1.1-0.9,2-2,2h-5c-1.1,0-2-0.9-2-2V0.5z"/>
		<line class="st2" x1="7.5" y1="3.5" x2="16.5" y2="3.5"/>
		<circle class="st2" cx="12" cy="13.5" r="4"/>
		<line class="st2" x1="14.7" y1="10.7" x2="9.1" y2="16.4"/>
	</g>
</g>
</svg>
