<?xml version="1.0" encoding="utf-8"?>
<!-- Generator: Adobe Illustrator 19.2.0, SVG Export Plug-In . SVG Version: 6.00 Build 0)  -->
<svg version="1.1" id="Layer_1" xmlns="http://www.w3.org/2000/svg" xmlns:xlink="http://www.w3.org/1999/xlink" x="0px" y="0px"
	 viewBox="0 0 24 24" style="enable-background:new 0 0 24 24;" xml:space="preserve">
<style type="text/css">
	.st0{display:none;}
	.st1{display:inline;}
	.st2{fill:none;stroke:#000000;stroke-linecap:round;stroke-linejoin:round;stroke-miterlimit:10;}
</style>
<g id="Filled_Icons" class="st0">
	<g class="st1">
		<path d="M12,7.6c-2.4,0-4.3,1.9-4.3,4.3v1.9c0,0.6,0.4,1,1,1c0.6,0,1-0.4,1-1V12c0-1.3,1.1-2.3,2.3-2.3c1.3,0,2.3,1.1,2.3,2.3v1.9
			c0,0.6,0.4,1,1,1c0.6,0,1-0.4,1-1V12C16.4,9.6,14.4,7.6,12,7.6z"/>
		<path d="M12,3.8c-4.5,0-8.2,3.7-8.2,8.2v1.9c0,0.6,0.4,1,1,1c0.6,0,1-0.4,1-1V12c0-3.4,2.8-6.2,6.2-6.2c3.4,0,6.2,2.8,6.2,6.2v1.9
			c0,0.6,0.4,1,1,1c0.6,0,1-0.4,1-1V12C20.2,7.5,16.5,3.8,12,3.8z"/>
		<path d="M12,11.5c-0.6,0-1,0.4-1,1V23c0,0.6,0.4,1,1,1c0.6,0,1-0.4,1-1V12.5C13,11.9,12.6,11.5,12,11.5z"/>
		<path d="M12,0C5.4,0,0,5.4,0,12v1.9c0,0.6,0.4,1,1,1c0.6,0,1-0.4,1-1V12C2,6.5,6.5,2,12,2c5.5,0,10,4.5,10,10v1.9c0,0.6,0.4,1,1,1
			c0.6,0,1-0.4,1-1V12C24,5.4,18.6,0,12,0z"/>
	</g>
</g>
<g id="Outline_Icons">
	<g>
		<path class="st2" d="M8.5,14v-2c0-1.9,1.6-3.5,3.5-3.5c1.9,0,3.5,1.6,3.5,3.5v2"/>
		<path class="st2" d="M4.5,14v-2c0-4.1,3.4-7.5,7.5-7.5c4.1,0,7.5,3.4,7.5,7.5v2"/>
		<line class="st2" x1="12" y1="12.5" x2="12" y2="23.5"/>
		<path class="st2" d="M0.5,14v-2C0.5,5.6,5.6,0.5,12,0.5c6.4,0,11.5,5.1,11.5,11.5v2"/>
	</g>
</g>
</svg>
