<?xml version="1.0" encoding="utf-8"?>
<!-- Generator: Adobe Illustrator 19.2.0, SVG Export Plug-In . SVG Version: 6.00 Build 0)  -->
<svg version="1.1" id="Layer_1" xmlns="http://www.w3.org/2000/svg" xmlns:xlink="http://www.w3.org/1999/xlink" x="0px" y="0px"
	 viewBox="0 0 24 24" style="enable-background:new 0 0 24 24;" xml:space="preserve">
<style type="text/css">
	.st0{display:none;}
	.st1{display:inline;}
	.st2{fill:none;stroke:#000000;stroke-linejoin:round;stroke-miterlimit:10;}
</style>
<g id="Filled_Icons" class="st0">
	<g class="st1">
		<path d="M19,8c1.9,0,3.5-1.6,3.5-3.5S20.9,1,19,1s-3.5,1.6-3.5,3.5S17.1,8,19,8z"/>
		<path d="M14,9v0.5c0,4,1,6.5,3,7.8V24h4v-6.7c2-1.2,3-3.8,3-7.8V9H14z"/>
		<path d="M5,8c1.9,0,3.5-1.6,3.5-3.5S6.9,1,5,1S1.5,2.6,1.5,4.5S3.1,8,5,8z"/>
		<path d="M5,8.5c-3.7,0-5,5.4-5,10V19h3v5h4v-5h3v-0.5C10,13.9,8.7,8.5,5,8.5z"/>
		<rect x="11" width="2" height="24"/>
	</g>
</g>
<g id="Outline_Icons">
	<g>
		<circle class="st2" cx="18" cy="4.5" r="3"/>
		<path class="st2" d="M22.5,9.5h-9c0,4.1,1,6.4,3,7.5v6.5h3V17C21.5,15.9,22.5,13.6,22.5,9.5z"/>
		<circle class="st2" cx="5" cy="4.5" r="3"/>
		<path class="st2" d="M5,9c-3,0-4.5,4.5-4.5,9.5h3v5h3v-5h3C9.5,13.5,8,9,5,9z"/>
		<line class="st2" x1="11.5" y1="24" x2="11.5" y2="0"/>
	</g>
</g>
</svg>
