<?xml version="1.0" encoding="utf-8"?>
<!-- Generator: Adobe Illustrator 19.2.0, SVG Export Plug-In . SVG Version: 6.00 Build 0)  -->
<svg version="1.1" id="Layer_1" xmlns="http://www.w3.org/2000/svg" xmlns:xlink="http://www.w3.org/1999/xlink" x="0px" y="0px"
	 viewBox="0 0 24 24" style="enable-background:new 0 0 24 24;" xml:space="preserve">
<style type="text/css">
	.st0{display:none;}
	.st1{display:inline;}
	.st2{fill:none;stroke:#000000;stroke-linejoin:round;stroke-miterlimit:10;}
	.st3{fill:none;stroke:#000000;stroke-linecap:round;stroke-linejoin:round;stroke-miterlimit:10;}
</style>
<g id="Filled_Icons" class="st0">
	<path class="st1" d="M19,8.4l-1-8C18,0.2,17.8,0,17.5,0h-2.8l-5,5h3.8c0.2,0,0.4,0.1,0.5,0.3s0,0.4-0.1,0.5l-5,5
		C8.8,11,8.6,11,8.5,11s-0.3,0-0.4-0.1c-0.2-0.2-0.2-0.5,0-0.7L12.3,6H8.5C8.3,6,8.1,5.9,8,5.7C8,5.5,8,5.3,8.1,5.2L13.3,0H5.5
		C5.2,0,5,0.2,5,0.4L4,8.5c0,4,3.1,7.2,7,7.5v7H7.5C7.2,23,7,23.2,7,23.5C7,23.8,7.2,24,7.5,24h8c0.3,0,0.5-0.2,0.5-0.5
		c0-0.3-0.2-0.5-0.5-0.5H12v-7C15.9,15.7,19,12.5,19,8.4z"/>
</g>
<g id="Outline_Icons">
	<g>
		<line class="st2" x1="11.5" y1="15.5" x2="11.5" y2="23.5"/>
		<line class="st3" x1="7.5" y1="23.5" x2="15.5" y2="23.5"/>
		<path class="st3" d="M5.5,0.5h12l1,8c0,3.9-3.1,7-7,7s-7-3.1-7-7L5.5,0.5z"/>
		<polyline class="st3" points="13.5,0.5 8.5,5.5 13.5,5.5 8.5,10.5 		"/>
	</g>
</g>
</svg>
