<?xml version="1.0" encoding="utf-8"?>
<!-- Generator: Adobe Illustrator 19.2.0, SVG Export Plug-In . SVG Version: 6.00 Build 0)  -->
<svg version="1.1" id="Outline_Icons" xmlns="http://www.w3.org/2000/svg" xmlns:xlink="http://www.w3.org/1999/xlink" x="0px"
	 y="0px" viewBox="0 0 24 24" style="enable-background:new 0 0 24 24;" xml:space="preserve">
<style type="text/css">
	.st0{fill:none;stroke:#000000;stroke-linecap:round;stroke-linejoin:round;stroke-miterlimit:10;}
	.st1{fill:none;stroke:#000000;stroke-linejoin:round;stroke-miterlimit:10;}
</style>
<g>
	<g>
		<rect x="1.5" y="4.5" class="st0" width="17" height="12"/>
		<polyline class="st0" points="22.5,23.5 22.5,0.5 1.4,0.5 		"/>
		<line class="st1" x1="15.5" y1="4.5" x2="15.5" y2="0.5"/>
		<line class="st1" x1="4.5" y1="4.5" x2="4.5" y2="0.5"/>
	</g>
	<g>
		<polyline class="st0" points="16.2,12.5 14.5,12.5 14.5,8.5 16.2,8.5 		"/>
		<line class="st0" x1="14.5" y1="10.5" x2="15.7" y2="10.5"/>
	</g>
	<g>
		<polyline class="st0" points="9.5,12.5 8.4,8.5 7.3,12.5 		"/>
		<line class="st0" x1="7.6" y1="11.5" x2="9.3" y2="11.5"/>
	</g>
	<polyline class="st0" points="13,12.5 11.5,12.5 11.5,8.5 	"/>
	<path class="st0" d="M4,11.6c0,0.5,0.4,0.9,0.9,0.9s0.9-0.4,0.9-1c0-0.8-0.8-1-0.9-1c-0.2,0-0.9-0.2-0.9-1c0-0.6,0.4-1,0.9-1
		s0.9,0.4,0.9,0.9"/>
</g>
</svg>
