<?xml version="1.0" encoding="utf-8"?>
<!-- Generator: Adobe Illustrator 19.2.0, SVG Export Plug-In . SVG Version: 6.00 Build 0)  -->
<svg version="1.1" id="Outline_Icons" xmlns="http://www.w3.org/2000/svg" xmlns:xlink="http://www.w3.org/1999/xlink" x="0px"
	 y="0px" viewBox="0 0 24 24" style="enable-background:new 0 0 24 24;" xml:space="preserve">
<style type="text/css">
	.st0{fill:none;stroke:#000000;stroke-linejoin:round;stroke-miterlimit:10;}
</style>
<g>
	<path class="st0" d="M5.1,16.5h6.4v5H6c-0.5,0-1.4-0.6-1.6-1l-0.3-0.6"/>
	<path class="st0" d="M4.5,20.6c0,0-1.9-1.6,2.5-6.6c1.5,0,2,0,2,0L6,9.5H0.5L2,11c0,0-1,0.6-1,2C1,14.2,2.9,18.2,4.5,20.6z"/>
	<path class="st0" d="M19.3,15.6l-3.4-5l4.3-3l3.2,4.6c0.3,0.4,0.3,1.1,0.1,1.6l-0.3,0.5"/>
	<path class="st0" d="M23.5,13.8c0,0-0.3,2.5-7,1.7c0-1.2,0-1.5,0-1.5l-3,4.5l2.8,5l0.2-2.3c0,0,1.1,0.8,2.2,0
		C19.7,20.5,22.1,16.3,23.5,13.8z"/>
	<path class="st0" d="M11.5,3.5L9,8.7L4.3,6.5l2.4-5.1C6.9,1,7.5,0.6,8,0.5h0.6"/>
	<path class="st0" d="M8,0.5c0,0,2.3-0.5,4.9,5.7l-1.4,1.3H17L20,2l-2,0.7c0,0-0.1-1.2-1.3-1.7C15.6,0.5,10.8,0.5,8,0.5z"/>
</g>
</svg>
