<?xml version="1.0" encoding="utf-8"?>
<!-- Generator: Adobe Illustrator 19.2.0, SVG Export Plug-In . SVG Version: 6.00 Build 0)  -->
<svg version="1.1" id="Layer_1" xmlns="http://www.w3.org/2000/svg" xmlns:xlink="http://www.w3.org/1999/xlink" x="0px" y="0px"
	 viewBox="0 0 24 24" style="enable-background:new 0 0 24 24;" xml:space="preserve">
<style type="text/css">
	.st0{display:none;}
	.st1{display:inline;}
	.st2{fill:none;stroke:#000000;stroke-linejoin:round;stroke-miterlimit:10;}
	.st3{fill:none;stroke:#000000;stroke-linecap:round;stroke-linejoin:round;stroke-miterlimit:10;}
</style>
<g id="Filled_Icons" class="st0">
	<path class="st1" d="M23.8,11.2L12.3,0.1c-0.2-0.2-0.5-0.2-0.7,0L0.2,11.2C0.1,11.3,0,11.4,0,11.6s0,0.3,0.1,0.4l11.5,11.9
		C11.7,24,11.9,24,12,24c0.1,0,0.3-0.1,0.4-0.2l11.5-11.9c0.1-0.1,0.1-0.2,0.1-0.4C24,11.4,23.9,11.3,23.8,11.2z M15.3,8.8
		c-0.2,0.2-0.5,0.2-0.7,0l-2.1-2.4v4.2c0,0.1,0,0.2-0.1,0.3l-1.2,1.7l3.2,3.2c0.2,0.2,0.2,0.5,0,0.7l-1.9,1.9v1.3
		c0,0.3-0.2,0.5-0.5,0.5s-0.5-0.2-0.5-0.5V18c0-0.1,0.1-0.3,0.1-0.4l1.6-1.6l-3.1-3.1c-0.2-0.2-0.2-0.5,0-0.7l1.4-1.9v-4L9.2,8.9
		C9.1,9,8.9,9.1,8.8,9.1c-0.1,0-0.2,0-0.3-0.1c-0.2-0.2-0.2-0.5,0-0.7l3.2-3.6c0,0,0,0,0,0c0.2-0.2,0.5-0.2,0.7,0c0,0,0,0,0,0l3,3.4
		C15.6,8.3,15.5,8.6,15.3,8.8z"/>
</g>
<g id="Outline_Icons">
	<g>
		<g>
			<polygon class="st2" points="12,23.5 23.5,11.6 12,0.5 0.5,11.6 			"/>
			<polyline class="st3" points="9.3,8.6 12.5,5 15.5,8.4 			"/>
		</g>
		<polyline class="st2" points="12.5,5 12.5,10.5 10.5,12.5 14,16 12,18 12,19.5 		"/>
	</g>
</g>
</svg>
