<?xml version="1.0" encoding="utf-8"?>
<!-- Generator: Adobe Illustrator 19.2.0, SVG Export Plug-In . SVG Version: 6.00 Build 0)  -->
<svg version="1.1" id="Outline_Icons" xmlns="http://www.w3.org/2000/svg" xmlns:xlink="http://www.w3.org/1999/xlink" x="0px"
	 y="0px" viewBox="0 0 24 24" style="enable-background:new 0 0 24 24;" xml:space="preserve">
<style type="text/css">
	.st0{fill:none;stroke:#000000;stroke-linejoin:round;stroke-miterlimit:10;}
	.st1{fill:none;stroke:#000000;stroke-linecap:round;stroke-linejoin:round;stroke-miterlimit:10;}
</style>
<g>
	<g>
		<rect x="1.5" y="0.5" class="st0" width="21" height="19"/>
		<rect x="3.5" y="19.5" class="st0" width="3" height="4"/>
		<rect x="17.5" y="19.5" class="st0" width="3" height="4"/>
	</g>
	<g>
		<polyline class="st1" points="19,15.5 17.5,15.5 17.5,11.5 19,11.5 		"/>
		<line class="st1" x1="17.5" y1="13.5" x2="18.5" y2="13.5"/>
	</g>
	<g>
		<polyline class="st1" points="7.5,7.5 7.5,3.5 9,3.5 		"/>
		<line class="st1" x1="7.5" y1="5.5" x2="9" y2="5.5"/>
	</g>
	<g>
		<polyline class="st1" points="11.5,15.5 10.2,11.6 9,15.5 		"/>
		<line class="st1" x1="9.3" y1="14.5" x2="11.2" y2="14.5"/>
	</g>
	<polyline class="st1" points="15.5,15.5 13.5,15.5 13.5,11.5 	"/>
	<path class="st1" d="M13.5,5.5c0,1.1-0.3,2-1.2,2s-1.2-0.9-1.2-2s0.3-2,1.2-2S13.5,4.4,13.5,5.5z"/>
	<g>
		<path class="st1" d="M15.5,7.5v-4h1c0.8,0,1,0.5,1,1s-0.7,1-1.5,1h-0.5"/>
		<line class="st1" x1="16.5" y1="5.5" x2="17.5" y2="7.5"/>
	</g>
	<path class="st1" d="M5.1,14.6c0,0.5,0.4,0.9,0.9,0.9s0.9-0.4,0.9-1c0-0.8-0.8-1-0.9-1c-0.2,0-0.9-0.2-0.9-1c0-0.6,0.4-1,0.9-1
		s0.9,0.4,0.9,0.9"/>
</g>
</svg>
