<?xml version="1.0" encoding="utf-8"?>
<!-- Generator: Adobe Illustrator 19.2.0, SVG Export Plug-In . SVG Version: 6.00 Build 0)  -->
<svg version="1.1" id="Layer_1" xmlns="http://www.w3.org/2000/svg" xmlns:xlink="http://www.w3.org/1999/xlink" x="0px" y="0px"
	 viewBox="0 0 24 24" style="enable-background:new 0 0 24 24;" xml:space="preserve">
<style type="text/css">
	.st0{display:none;}
	.st1{display:inline;}
	.st2{fill:none;stroke:#000000;stroke-linejoin:round;stroke-miterlimit:10;}
	.st3{fill:none;stroke:#000000;stroke-linecap:round;stroke-linejoin:round;stroke-miterlimit:10;}
</style>
<g id="Filled_Icons" class="st0">
	<g class="st1">
		<path d="M15.5,9.1c-0.3,0-0.9,0-0.9,1.2c0,1.2,0.7,1.2,0.9,1.2c0.3,0,0.9,0,0.9-1.2C16.4,9.1,15.8,9.1,15.5,9.1z"/>
		<path d="M8.6,9.1c-0.3,0-0.9,0-0.9,1.2c0,1.2,0.7,1.2,0.9,1.2s0.9,0,0.9-1.2C9.5,9.1,8.8,9.1,8.6,9.1z"/>
		<path d="M23.5,0h-23C0.2,0,0,0.3,0,0.5C0,16.9,7.9,24,12,24c4.1,0,12-7.1,12-23.5C24,0.3,23.8,0,23.5,0z M8.6,13.5
			c-1.8,0-2.9-1.3-2.9-3.2V8.2c0-2,1-4.2,3.9-4.2c0.6,0,1,0.4,1,1s-0.4,1-1,1C8.6,6,8,6.4,7.8,7.2C8,7.2,8.3,7.1,8.6,7.1
			c1.8,0,2.9,1.3,2.9,3.2C11.5,12.3,10.3,13.5,8.6,13.5z M15.5,13.5c-1.8,0-2.9-1.3-2.9-3.2V8.2c0-2,1-4.2,3.9-4.2c0.6,0,1,0.4,1,1
			s-0.4,1-1,1c-0.9,0-1.5,0.4-1.7,1.2c0.3-0.1,0.5-0.1,0.8-0.1c1.8,0,2.9,1.3,2.9,3.2C18.4,12.3,17.3,13.5,15.5,13.5z"/>
	</g>
</g>
<g id="Outline_Icons">
	<g>
		<g>
			<path class="st2" d="M0.5,0.5h23c0,16.5-8,23-11.5,23S0.5,17,0.5,0.5z"/>
		</g>
		<g>
			<g>
				<path class="st3" d="M15,8.2c1.6,0,1.9,1.4,1.9,2.2c0,0.8-0.3,2.2-1.9,2.2c-1.6,0-1.9-1.4-1.9-2.2C13,9.6,13.3,8.2,15,8.2z"/>
				<path class="st3" d="M15.9,5.1c-2.4,0-2.9,2.1-2.9,3.2v2.1"/>
			</g>
			<g>
				<path class="st3" d="M9,8.2c1.6,0,1.9,1.4,1.9,2.2c0,0.8-0.3,2.2-1.9,2.2c-1.6,0-1.9-1.4-1.9-2.2C7.1,9.6,7.4,8.2,9,8.2z"/>
				<path class="st3" d="M9.9,5.1c-2.4,0-2.9,2.1-2.9,3.2v2.1"/>
			</g>
		</g>
	</g>
</g>
</svg>
