<?xml version="1.0" encoding="utf-8"?>
<!-- Generator: Adobe Illustrator 19.2.0, SVG Export Plug-In . SVG Version: 6.00 Build 0)  -->
<svg version="1.1" id="Layer_1" xmlns="http://www.w3.org/2000/svg" xmlns:xlink="http://www.w3.org/1999/xlink" x="0px" y="0px"
	 viewBox="0 0 24 24" style="enable-background:new 0 0 24 24;" xml:space="preserve">
<style type="text/css">
	.st0{display:none;}
	.st1{display:inline;}
	.st2{fill:none;stroke:#000000;stroke-linecap:round;stroke-linejoin:round;stroke-miterlimit:10;}
</style>
<g id="Filled_Icons" class="st0">
	<g class="st1">
		<g>
			<g>
				<path d="M11.6,3h-0.2c-2.3,0-4.4,1-6,2.6C3.8,7.2,3,9.4,3,11.7c0.1,4.7,3.8,8.4,8.4,8.4l0.2,0c4.8-0.1,8.6-4,8.5-8.6
					C19.9,6.7,16.2,3,11.6,3z M11,7.5C11,7.2,11.2,7,11.5,7S12,7.2,12,7.5v5.1c0,0.3-0.2,0.5-0.5,0.5S11,12.9,11,12.6V7.5z
					 M11.5,15.9L11.5,15.9c-0.4,0-0.7-0.3-0.7-0.7c0-0.4,0.3-0.7,0.7-0.7h0h0c0.4,0,0.7,0.3,0.7,0.7C12.2,15.5,11.9,15.9,11.5,15.9z
					"/>
			</g>
		</g>
		<g>
			<g>
				<path d="M4,20.1c-0.1,0-0.2,0-0.3-0.1C1.3,17.7,0,14.7,0,11.5c0-3.2,1.3-6.2,3.6-8.4c0.2-0.2,0.5-0.2,0.7,0
					c0.2,0.2,0.2,0.5,0,0.7C2.2,5.9,1,8.6,1,11.5c0,2.9,1.2,5.7,3.3,7.7c0.2,0.2,0.2,0.5,0,0.7C4.3,20,4.1,20.1,4,20.1z"/>
			</g>
		</g>
		<g>
			<path d="M19,20.1c-0.1,0-0.3-0.1-0.4-0.2c-0.2-0.2-0.2-0.5,0-0.7c2.1-2,3.3-4.8,3.3-7.7c0-2.9-1.2-5.7-3.3-7.7
				c-0.2-0.2-0.2-0.5,0-0.7c0.2-0.2,0.5-0.2,0.7,0c2.3,2.2,3.6,5.2,3.6,8.4c0,3.2-1.3,6.2-3.7,8.4C19.2,20,19.1,20.1,19,20.1z"/>
		</g>
	</g>
</g>
<g id="Outline_Icons">
	<g>
		<g>
			<path class="st2" d="M19.5,11.4c0.1,4.4-3.6,8.1-8,8.1s-7.9-3.4-8-7.9c-0.1-4.4,3.6-8.1,8-8.1C15.9,3.4,19.4,6.9,19.5,11.4z"/>
			<line class="st2" x1="11.5" y1="12.6" x2="11.5" y2="7.5"/>
			<g>
				<g>
					<path d="M11.5,14.4L11.5,14.4L11.5,14.4c-0.4,0-0.7,0.3-0.7,0.7c0,0.4,0.3,0.7,0.7,0.7h0c0.4,0,0.7-0.3,0.7-0.7
						C12.2,14.7,11.9,14.4,11.5,14.4L11.5,14.4z"/>
				</g>
			</g>
		</g>
		<path class="st2" d="M4,19.5c-2.2-2-3.5-4.9-3.5-8c0-3.2,1.3-6,3.5-8"/>
		<path class="st2" d="M19,3.5c2.1,2,3.5,4.9,3.5,8c0,3.2-1.3,6-3.5,8"/>
	</g>
</g>
</svg>
