<?xml version="1.0" encoding="utf-8"?>
<!-- Generator: Adobe Illustrator 19.2.0, SVG Export Plug-In . SVG Version: 6.00 Build 0)  -->
<svg version="1.1" id="Outline_Icons" xmlns="http://www.w3.org/2000/svg" xmlns:xlink="http://www.w3.org/1999/xlink" x="0px"
	 y="0px" viewBox="0 0 24 24" style="enable-background:new 0 0 24 24;" xml:space="preserve">
<style type="text/css">
	.st0{fill:none;stroke:#000000;stroke-linejoin:round;stroke-miterlimit:10;}
</style>
<g>
	<rect x="1.5" y="0.5" class="st0" width="21" height="23"/>
	<rect x="3.5" y="2.5" class="st0" width="17" height="13"/>
	<path class="st0" d="M16.4,4l-2.2,1.8c-0.6-0.3-1.4-0.4-2.2-0.4c-0.8,0-1.6,0.2-2.2,0.4L7.7,4C6.8,6,7,7,8.1,8.1
		c0.1,1.5,1.9,4.5,3.9,4.5c2,0,3.8-3,3.9-4.5l0,0C17.1,7,17.3,6,16.4,4z"/>
	<path class="st0" d="M9.7,11.3c0,0-2.3,1.5-2.3,4.2"/>
	<path class="st0" d="M14.3,11.3c0,0,2.3,1.5,2.3,4.2"/>
	<polyline class="st0" points="5.5,17 5.5,21.5 7,21.5 	"/>
	<rect x="8.5" y="17.5" class="st0" width="2" height="4"/>
	<polyline class="st0" points="15,17.5 12.5,17.5 12.5,19.5 14.5,19.5 14.5,21.5 12,21.5 	"/>
	<line class="st0" x1="16" y1="17.5" x2="19" y2="17.5"/>
	<line class="st0" x1="17.5" y1="17.5" x2="17.5" y2="22"/>
	<line class="st0" x1="10.5" y1="7.2" x2="10.5" y2="8.2"/>
	<line class="st0" x1="13.5" y1="7.2" x2="13.5" y2="8.2"/>
</g>
</svg>
