<?xml version="1.0" encoding="utf-8"?>
<!-- Generator: Adobe Illustrator 19.2.0, SVG Export Plug-In . SVG Version: 6.00 Build 0)  -->
<svg version="1.1" id="Outline_Icons" xmlns="http://www.w3.org/2000/svg" xmlns:xlink="http://www.w3.org/1999/xlink" x="0px"
	 y="0px" viewBox="0 0 24 24" style="enable-background:new 0 0 24 24;" xml:space="preserve">
<style type="text/css">
	.st0{fill:none;stroke:#000000;stroke-linejoin:round;stroke-miterlimit:10;}
	.st1{fill:none;stroke:#000000;stroke-linecap:round;stroke-linejoin:round;stroke-miterlimit:10;}
</style>
<g>
	<g>
		<rect x="1.5" y="0.5" class="st0" width="21" height="19"/>
		<rect x="3.5" y="19.5" class="st0" width="3" height="4"/>
		<rect x="17.5" y="19.5" class="st0" width="3" height="4"/>
	</g>
	<g>
		<polyline class="st1" points="11.2,15.5 9.5,15.5 9.5,11.5 11.2,11.5 		"/>
		<line class="st1" x1="9.5" y1="13.5" x2="10.7" y2="13.5"/>
	</g>
	<polyline class="st1" points="13.5,15.4 13.5,11.5 15.5,15.4 15.5,11.5 	"/>
	<g>
		<path class="st1" d="M5.5,15.4v-3.9h0.9c0.8,0,0.9,0.4,0.9,1c0,0.5-0.1,1-0.9,1H5.5"/>
		<line class="st1" x1="6.4" y1="13.5" x2="7.4" y2="15.4"/>
	</g>
	<g>
		<line class="st1" x1="18.5" y1="15.5" x2="18.5" y2="11.5"/>
		<line class="st1" x1="17.5" y1="11.5" x2="19.5" y2="11.5"/>
	</g>
	<g>
		<polyline class="st1" points="7.5,8.5 7.5,4.5 9.2,4.5 		"/>
		<line class="st1" x1="7.5" y1="6.5" x2="8.7" y2="6.5"/>
	</g>
	<path class="st1" d="M13.2,6.5c0,1.1-0.2,2-1.1,2S11,7.6,11,6.5s0.2-2,1.1-2S13.2,5.4,13.2,6.5z"/>
	<g>
		<path class="st1" d="M15.5,8.4V4.5h0.9c0.8,0,0.9,0.4,0.9,1c0,0.5-0.1,1-0.9,1h-0.9"/>
		<line class="st1" x1="16.4" y1="6.5" x2="17.4" y2="8.4"/>
	</g>
</g>
</svg>
