<?xml version="1.0" encoding="utf-8"?>
<!-- Generator: Adobe Illustrator 19.2.0, SVG Export Plug-In . SVG Version: 6.00 Build 0)  -->
<svg version="1.1" id="Layer_1" xmlns="http://www.w3.org/2000/svg" xmlns:xlink="http://www.w3.org/1999/xlink" x="0px" y="0px"
	 viewBox="0 0 24 24" style="enable-background:new 0 0 24 24;" xml:space="preserve">
<style type="text/css">
	.st0{display:none;}
	.st1{display:inline;}
	.st2{fill:none;stroke:#000000;stroke-linecap:round;stroke-linejoin:round;stroke-miterlimit:10;}
	.st3{fill:none;stroke:#000000;stroke-linejoin:round;stroke-miterlimit:10;}
</style>
<g id="Filled_Icons" class="st0">
	<g class="st1">
		<path d="M20.3,1.7c-0.4-0.4-1-0.4-1.4,0c-0.4,0.4-0.4,1,0,1.4c2,2,3.1,4.6,3.1,7.4c0,2.8-1.1,5.4-3.1,7.4c-0.4,0.4-0.4,1,0,1.4
			c0.2,0.2,0.5,0.3,0.7,0.3c0.3,0,0.5-0.1,0.7-0.3c2.4-2.4,3.7-5.5,3.7-8.8C24,7.2,22.7,4,20.3,1.7z"/>
		<path d="M17.5,4.5c-0.4-0.4-1-0.4-1.4,0c-0.4,0.4-0.4,1,0,1.4c1.2,1.2,1.9,2.9,1.9,4.6c0,1.7-0.7,3.4-1.9,4.6
			c-0.4,0.4-0.4,1,0,1.4c0.2,0.2,0.5,0.3,0.7,0.3c0.3,0,0.5-0.1,0.7-0.3c1.6-1.6,2.5-3.7,2.5-6C20,8.2,19.1,6.1,17.5,4.5z"/>
		<path d="M2,10.5c0-2.8,1.1-5.4,3.1-7.4c0.4-0.4,0.4-1,0-1.4c-0.4-0.4-1-0.4-1.4,0C1.3,4,0,7.2,0,10.5c0,3.3,1.3,6.5,3.7,8.8
			c0.2,0.2,0.4,0.3,0.7,0.3c0.3,0,0.5-0.1,0.7-0.3c0.4-0.4,0.4-1,0-1.4C3.1,15.9,2,13.3,2,10.5z"/>
		<path d="M6,10.5c0-1.7,0.7-3.4,1.9-4.6c0.4-0.4,0.4-1,0-1.4c-0.4-0.4-1-0.4-1.4,0C4.9,6.1,4,8.2,4,10.5c0,2.3,0.9,4.4,2.5,6
			c0.2,0.2,0.5,0.3,0.7,0.3c0.3,0,0.5-0.1,0.7-0.3c0.4-0.4,0.4-1,0-1.4C6.7,13.9,6,12.2,6,10.5z"/>
		<path d="M12,7c-1.9,0-3.5,1.6-3.5,3.5c0,1.6,1.1,2.9,2.5,3.4v7.6c0,0.6,0.4,1,1,1c0.6,0,1-0.4,1-1v-7.6c1.4-0.4,2.5-1.8,2.5-3.4
			C15.5,8.6,13.9,7,12,7z"/>
	</g>
</g>
<g id="Outline_Icons">
	<g>
		<line class="st2" x1="11.5" y1="13.5" x2="11.5" y2="22"/>
		<path class="st2" d="M19.1,2.5c2.1,2.1,3.4,5,3.4,8.1c0,3.2-1.3,6.1-3.4,8.1"/>
		<path class="st2" d="M16.3,5.3c1.4,1.4,2.2,3.2,2.2,5.3c0,2.1-0.8,3.9-2.2,5.3"/>
		<path class="st2" d="M3.9,2.5c-2.1,2.1-3.4,5-3.4,8.1c0,3.2,1.3,6.1,3.4,8.1"/>
		<path class="st2" d="M6.7,5.3c-1.4,1.4-2.2,3.2-2.2,5.3c0,2.1,0.8,3.9,2.2,5.3"/>
		<circle class="st3" cx="11.5" cy="10.5" r="3"/>
	</g>
</g>
</svg>
