<?xml version="1.0" encoding="utf-8"?>
<!-- Generator: Adobe Illustrator 19.2.0, SVG Export Plug-In . SVG Version: 6.00 Build 0)  -->
<svg version="1.1" id="Layer_1" xmlns="http://www.w3.org/2000/svg" xmlns:xlink="http://www.w3.org/1999/xlink" x="0px" y="0px"
	 viewBox="0 0 24 24" style="enable-background:new 0 0 24 24;" xml:space="preserve">
<style type="text/css">
	.st0{display:none;}
	.st1{display:inline;}
	.st2{fill:none;stroke:#000000;stroke-linecap:round;stroke-linejoin:round;stroke-miterlimit:10;}
	.st3{fill:none;stroke:#000000;stroke-linejoin:round;stroke-miterlimit:10;}
</style>
<g id="Filled_Icons" class="st0">
	<g class="st1">
		<circle cx="12" cy="11.3" r="1"/>
		<path d="M20.5,2.7c-0.3-0.3-0.8-0.3-1.1,0c-0.3,0.3-0.3,0.8,0,1.1c2,2,3.1,4.6,3.1,7.5c0,2.8-1.1,5.5-3.1,7.5
			c-0.3,0.3-0.3,0.8,0,1.1c0.1,0.1,0.3,0.2,0.5,0.2c0.2,0,0.4-0.1,0.5-0.2c2.3-2.3,3.5-5.3,3.5-8.5C24,8,22.7,5,20.5,2.7z"/>
		<path d="M17.7,5.5c-0.3-0.3-0.8-0.3-1.1,0c-0.3,0.3-0.3,0.8,0,1.1c1.2,1.2,1.9,2.9,1.9,4.7c0,1.8-0.7,3.4-1.9,4.7
			c-0.3,0.3-0.3,0.8,0,1.1c0.1,0.1,0.3,0.2,0.5,0.2c0.2,0,0.4-0.1,0.5-0.2c1.5-1.5,2.4-3.6,2.4-5.7C20.1,9.1,19.2,7.1,17.7,5.5z"/>
		<path d="M13.9,8.3c-0.3,0.3-0.3,0.8,0,1.1c0.5,0.5,0.8,1.2,0.8,1.9c0,0.7-0.3,1.4-0.8,1.9c-0.3,0.3-0.3,0.8,0,1.1
			c0.1,0.1,0.3,0.2,0.5,0.2c0.2,0,0.4-0.1,0.5-0.2c0.8-0.8,1.2-1.8,1.2-3c0-1.1-0.4-2.2-1.2-3C14.6,8,14.1,8,13.9,8.3z"/>
		<path d="M1.5,11.3c0-2.8,1.1-5.5,3.1-7.5c0.3-0.3,0.3-0.8,0-1.1c-0.3-0.3-0.8-0.3-1.1,0C1.2,5,0,8,0,11.3c0,3.2,1.3,6.2,3.5,8.5
			C3.6,19.9,3.8,20,4,20c0.2,0,0.4-0.1,0.5-0.2c0.3-0.3,0.3-0.8,0-1.1C2.6,16.7,1.5,14.1,1.5,11.3z"/>
		<path d="M7.3,5.5C7,5.2,6.5,5.2,6.2,5.5c-1.5,1.5-2.4,3.6-2.4,5.7c0,2.2,0.8,4.2,2.4,5.7c0.1,0.1,0.3,0.2,0.5,0.2
			c0.2,0,0.4-0.1,0.5-0.2c0.3-0.3,0.3-0.8,0-1.1C6,14.7,5.3,13,5.3,11.3c0-1.8,0.7-3.4,1.9-4.7C7.6,6.3,7.6,5.8,7.3,5.5z"/>
		<path d="M10.1,8.3C9.8,8,9.3,8,9,8.3c-0.8,0.8-1.2,1.8-1.2,3c0,1.1,0.4,2.2,1.2,3c0.1,0.1,0.3,0.2,0.5,0.2c0.2,0,0.4-0.1,0.5-0.2
			c0.3-0.3,0.3-0.8,0-1.1c-0.5-0.5-0.8-1.2-0.8-1.9c0-0.7,0.3-1.4,0.8-1.9C10.4,9.1,10.4,8.6,10.1,8.3z"/>
	</g>
</g>
<g id="Outline_Icons">
	<g>
		<path class="st2" d="M20.1,3c2.1,2.1,3.4,5,3.4,8.1c0,3.2-1.3,6.1-3.4,8.1"/>
		<path class="st2" d="M17.3,5.8c1.4,1.4,2.2,3.2,2.2,5.3c0,2.1-0.8,3.9-2.2,5.3"/>
		<path class="st2" d="M14.5,8.7c0.6,0.6,1,1.5,1,2.5c0,1-0.4,1.8-1,2.5"/>
		<path class="st2" d="M3.9,3c-2.1,2.1-3.4,5-3.4,8.1c0,3.2,1.3,6.1,3.4,8.1"/>
		<path class="st2" d="M6.7,5.8c-1.4,1.4-2.2,3.2-2.2,5.3c0,2.1,0.8,3.9,2.2,5.3"/>
		<path class="st2" d="M9.5,8.7c-0.6,0.6-1,1.5-1,2.5c0,1,0.4,1.8,1,2.5"/>
		<circle class="st3" cx="12" cy="11.3" r="0.5"/>
	</g>
</g>
</svg>
