<?xml version="1.0" encoding="utf-8"?>
<!-- Generator: Adobe Illustrator 19.2.0, SVG Export Plug-In . SVG Version: 6.00 Build 0)  -->
<svg version="1.1" id="Layer_1" xmlns="http://www.w3.org/2000/svg" xmlns:xlink="http://www.w3.org/1999/xlink" x="0px" y="0px"
	 viewBox="0 0 24 24" style="enable-background:new 0 0 24 24;" xml:space="preserve">
<style type="text/css">
	.st0{display:none;}
	.st1{display:inline;}
	.st2{fill:none;stroke:#000000;stroke-linejoin:round;stroke-miterlimit:10;}
	.st3{fill:none;stroke:#000000;stroke-linecap:round;stroke-linejoin:round;stroke-miterlimit:10;}
</style>
<g id="Filled_Icons" class="st0">
	<path class="st1" d="M23.8,11.2L12.3,0.1c-0.2-0.2-0.5-0.2-0.7,0L0.2,11.2C0.1,11.3,0,11.4,0,11.6s0,0.3,0.1,0.4l11.5,11.9
		C11.7,24,11.9,24,12,24c0.1,0,0.3-0.1,0.4-0.2l11.5-11.9c0.1-0.1,0.1-0.2,0.1-0.4C24,11.4,23.9,11.3,23.8,11.2z M18,11.3l-2.1,2.6
		c-0.2,0.2-0.6,0.2-0.7,0l0,0c0,0,0,0,0,0l-2.6-2.6c-0.2-0.2-0.2-0.5,0-0.7c0.2-0.2,0.5-0.2,0.7,0l1.8,1.7V10c0-1.7-1.3-3-3-3
		s-3,1.3-3,3v6c0,0.3-0.2,0.5-0.5,0.5S8,16.3,8,16v-6c0-2.2,1.8-4,4-4s4,1.8,4,4v2.2l1.2-1.5c0.2-0.2,0.5-0.2,0.7-0.1
		C18.1,10.8,18.2,11.1,18,11.3z"/>
</g>
<g id="Outline_Icons">
	<g>
		<polygon class="st2" points="12,23.5 23.5,11.6 12,0.5 0.5,11.6 		"/>
		<path class="st2" d="M15.5,13.6V10c0-1.9-1.6-3.5-3.5-3.5c-1.9,0-3.5,1.6-3.5,3.5v6"/>
		<polyline class="st3" points="12.9,11 15.5,13.6 17.6,11 		"/>
	</g>
</g>
</svg>
