<?xml version="1.0" encoding="utf-8"?>
<!-- Generator: Adobe Illustrator 19.2.0, SVG Export Plug-In . SVG Version: 6.00 Build 0)  -->
<svg version="1.1" id="Layer_1" xmlns="http://www.w3.org/2000/svg" xmlns:xlink="http://www.w3.org/1999/xlink" x="0px" y="0px"
	 viewBox="0 0 24 24" style="enable-background:new 0 0 24 24;" xml:space="preserve">
<style type="text/css">
	.st0{display:none;}
	.st1{display:inline;}
	.st2{fill:none;stroke:#000000;stroke-linejoin:round;stroke-miterlimit:10;}
	.st3{fill:none;stroke:#000000;stroke-linecap:round;stroke-linejoin:round;stroke-miterlimit:10;}
</style>
<g id="Filled_Icons" class="st0">
	<g class="st1">
		<polygon points="9.5,21 14.5,21 12,19.3 		"/>
		<path d="M12,0C5.4,0,0,5.4,0,12s5.4,12,12,12c6.6,0,12-5.4,12-12S18.6,0,12,0z M16.6,21.8c-0.1,0.1-0.3,0.2-0.4,0.2H7.9
			c-0.2,0-0.3-0.1-0.4-0.2c-0.1-0.1-0.1-0.3,0-0.5l4.1-8.2v-1.5c0-0.3,0.2-0.5,0.5-0.5c0.3,0,0.5,0.2,0.5,0.5v1.5l4.1,8.2
			C16.7,21.4,16.7,21.6,16.6,21.8z M8.6,12.1c0,0,0-0.1,0-0.1c0-1.9,1.5-3.4,3.4-3.4c1.9,0,3.4,1.5,3.4,3.4c0,0,0,0.1,0,0.1
			c0,0.3-0.3,0.5-0.5,0.5c-0.3,0-0.5-0.2-0.5-0.5c0,0,0-0.1,0-0.1c0-1.4-1.1-2.4-2.4-2.4c-1.3,0-2.4,1.1-2.4,2.4l0,0.1
			c0,0.3-0.2,0.5-0.5,0.5c0,0,0,0,0,0C8.9,12.6,8.6,12.4,8.6,12.1 M17,16.1c-0.1,0-0.2,0-0.3-0.1c-0.2-0.2-0.3-0.5-0.1-0.7
			c0.7-1,1.1-2.1,1.1-3.3c0-3.1-2.6-5.7-5.7-5.7S6.3,8.9,6.3,12c0,1.2,0.4,2.3,1.1,3.3c0.2,0.2,0.1,0.5-0.1,0.7
			c-0.2,0.2-0.5,0.1-0.7-0.1c-0.8-1.1-1.3-2.5-1.3-3.9c0-3.7,3-6.7,6.7-6.7c3.7,0,6.7,3,6.7,6.7c0,1.4-0.4,2.8-1.3,3.9
			C17.4,16,17.2,16.1,17,16.1z M19.2,18.9c-0.1,0.1-0.2,0.2-0.4,0.2c-0.1,0-0.2,0-0.3-0.1c-0.2-0.2-0.2-0.5,0-0.7
			c1.6-1.7,2.5-3.9,2.5-6.2c0-5-4-9-9-9c-5,0-9,4-9,9c0,2.3,0.9,4.5,2.5,6.2c0.2,0.2,0.2,0.5,0,0.7c-0.2,0.2-0.5,0.2-0.7,0
			C3,17,2,14.6,2,12C2,6.5,6.5,2,12,2c5.5,0,10,4.5,10,10C22,14.6,21,17,19.2,18.9z"/>
		<polygon points="10.1,18.1 9.2,20 11.1,18.7 		"/>
		<polygon points="12.9,18.7 14.8,20 13.9,18.1 		"/>
		<polygon points="13.4,17.2 13.1,16.6 10.9,16.6 10.6,17.2 12,18.1 		"/>
		<polygon points="12,14.4 11.4,15.6 12.6,15.6 		"/>
	</g>
</g>
<g id="Outline_Icons">
	<g>
		<polygon class="st2" points="7,23.5 17,23.5 12,13.5 		"/>
		<path class="st3" d="M20.3,19.9c2-2.1,3.2-4.9,3.2-7.9c0-6.4-5.1-11.5-11.5-11.5C5.6,0.5,0.5,5.6,0.5,12c0,3.1,1.2,5.9,3.2,7.9"/>
		<path class="st3" d="M5.9,16.4C5,15.1,4.5,13.6,4.5,12c0-4.1,3.4-7.5,7.5-7.5c4.1,0,7.5,3.4,7.5,7.5c0,1.6-0.5,3.1-1.4,4.4"/>
		<path class="st3" d="M8.5,12.2c0-0.1,0-0.1,0-0.2c0-2,1.6-3.5,3.5-3.5c1.9,0,3.5,1.5,3.5,3.5c0,0.1,0,0.1,0,0.2"/>
		<line class="st3" x1="12" y1="13.5" x2="12" y2="11.5"/>
		<line class="st2" x1="7" y1="23.5" x2="14.5" y2="18.5"/>
		<line class="st2" x1="17" y1="23.5" x2="9.5" y2="18.5"/>
		<line class="st2" x1="10.3" y1="17" x2="13.7" y2="17"/>
	</g>
</g>
</svg>
