<?xml version="1.0" encoding="utf-8"?>
<!-- Generator: Adobe Illustrator 19.2.0, SVG Export Plug-In . SVG Version: 6.00 Build 0)  -->
<svg version="1.1" id="Layer_1" xmlns="http://www.w3.org/2000/svg" xmlns:xlink="http://www.w3.org/1999/xlink" x="0px" y="0px"
	 viewBox="0 0 24 24" style="enable-background:new 0 0 24 24;" xml:space="preserve">
<style type="text/css">
	.st0{display:none;}
	.st1{display:inline;}
	.st2{fill:none;stroke:#000000;stroke-linejoin:round;stroke-miterlimit:10;}
	.st3{fill:none;stroke:#000000;stroke-linecap:round;stroke-linejoin:round;stroke-miterlimit:10;}
</style>
<g id="Filled_Icons" class="st0">
	<g class="st1">
		<path d="M11.9,17.9c-0.2,0-0.5,0-0.5,1.5c0,1.5,0.3,1.5,0.5,1.5c0.2,0,0.5,0,0.5-1.5C12.4,17.9,12.1,17.9,11.9,17.9z"/>
		<path d="M6.4,18.7c0,0.1,0.1,0.2,0.2,0.2c0.1,0,0.2,0,0.3,0c-0.1-0.1-0.1-0.2-0.1-0.3c0-0.1-0.1-0.2-0.2-0.2S6.4,18.6,6.4,18.7z"
			/>
		<path d="M6.3,19.9c0.1,0.1,0.1,0.2,0.1,0.3c0,0.3,0.5,0.3,0.5,0c0-0.1-0.1-0.2-0.2-0.2C6.5,19.9,6.4,19.9,6.3,19.9z"/>
		<path d="M15.2,17.9c-0.2,0-0.5,0-0.5,1.5c0,1.5,0.3,1.5,0.5,1.5c0.2,0,0.5,0,0.5-1.5C15.7,17.9,15.4,17.9,15.2,17.9z"/>
		<path d="M23.5,0h-23C0.2,0,0,0.2,0,0.5v23C0,23.8,0.2,24,0.5,24h23c0.3,0,0.5-0.2,0.5-0.5v-23C24,0.2,23.8,0,23.5,0z M7.9,20.2
			c0,0.5-0.3,0.9-0.8,1.1v0.1c0,0.3-0.2,0.5-0.5,0.5s-0.5-0.2-0.5-0.5v-0.1c-0.4-0.2-0.8-0.6-0.8-1.1c0-0.3,0.2-0.5,0.5-0.5h0
			c-0.3-0.2-0.5-0.6-0.5-1c0-0.5,0.3-0.9,0.8-1.1v-0.1c0-0.3,0.2-0.5,0.5-0.5s0.5,0.2,0.5,0.5v0.1c0.4,0.2,0.8,0.6,0.8,1.1
			c0,0.3-0.2,0.5-0.5,0.5h0C7.7,19.4,7.9,19.8,7.9,20.2z M10,21.4c0,0.3-0.2,0.5-0.5,0.5S9,21.7,9,21.4v-3c-0.1,0-0.2-0.1-0.3-0.2
			c-0.2-0.2-0.2-0.5,0-0.7l0.5-0.4C9.3,17,9.5,16.9,9.7,17c0.2,0.1,0.3,0.3,0.3,0.5L10,21.4L10,21.4z M11.9,21.9
			c-1.5,0-1.5-1.8-1.5-2.5c0-0.7,0-2.5,1.5-2.5s1.5,1.8,1.5,2.5C13.4,20.1,13.4,21.9,11.9,21.9z M15.2,21.9c-1.5,0-1.5-1.8-1.5-2.5
			c0-0.7,0-2.5,1.5-2.5s1.5,1.8,1.5,2.5C16.7,20.1,16.7,21.9,15.2,21.9z M21,15.5c0,0.3-0.2,0.5-0.5,0.5h-3.1v-0.5
			c0-2.3-1.4-4.2-3.4-5c0.9-0.6,1.6-1.7,1.6-2.9C15.6,5.6,14,4,12,4c-2,0-3.6,1.6-3.6,3.6c0,1.2,0.6,2.3,1.6,2.9
			c-2,0.8-3.4,2.7-3.4,5V16H3.5C3.2,16,3,15.8,3,15.5v-13C3,2.2,3.2,2,3.5,2h17C20.8,2,21,2.2,21,2.5V15.5z"/>
	</g>
</g>
<g id="Outline_Icons">
	<g>
		<g>
			<rect x="0.5" y="0.5" class="st2" width="23" height="23"/>
			<rect x="3.5" y="2.5" class="st2" width="17" height="13"/>
			<circle class="st3" cx="12" cy="7.6" r="3.1"/>
			<path class="st3" d="M16.9,15.5H7.1c0-2.7,2.2-4.9,4.9-4.9C14.7,10.6,16.9,12.8,16.9,15.5z"/>
		</g>
		<g>
			<g>
				<g>
					<path class="st3" d="M5.9,20.2c0,0.4,0.3,0.8,0.8,0.8s0.8-0.3,0.8-0.8s-0.3-0.8-0.8-0.8s-0.8-0.3-0.8-0.8s0.3-0.8,0.8-0.8
						s0.8,0.3,0.8,0.8"/>
					<line class="st3" x1="6.7" y1="20.9" x2="6.7" y2="21.4"/>
					<line class="st3" x1="6.7" y1="17.4" x2="6.7" y2="17.9"/>
				</g>
			</g>
			<polyline class="st3" points="9.5,21.4 9.5,17.5 9,17.9 			"/>
			<path class="st3" d="M12.9,19.4c0,1.1-0.2,2-1,2c-0.9,0-1-0.9-1-2c0-1.1,0.1-2,1-2C12.7,17.4,12.9,18.3,12.9,19.4z"/>
			<path class="st3" d="M16.2,19.4c0,1.1-0.2,2-1,2c-0.9,0-1-0.9-1-2c0-1.1,0.2-2,1-2C16.1,17.4,16.2,18.3,16.2,19.4z"/>
		</g>
	</g>
	<g>
		<g>
			<rect x="0.5" y="0.5" class="st2" width="23" height="23"/>
			<rect x="3.5" y="2.5" class="st2" width="17" height="13"/>
			<circle class="st3" cx="12" cy="7.6" r="3.1"/>
			<path class="st3" d="M16.9,15.5H7.1c0-2.7,2.2-4.9,4.9-4.9C14.7,10.6,16.9,12.8,16.9,15.5z"/>
		</g>
		<g>
			<g>
				<g>
					<path class="st3" d="M5.9,20.2c0,0.4,0.3,0.8,0.8,0.8s0.8-0.3,0.8-0.8s-0.3-0.8-0.8-0.8s-0.8-0.3-0.8-0.8s0.3-0.8,0.8-0.8
						s0.8,0.3,0.8,0.8"/>
					<line class="st3" x1="6.7" y1="20.9" x2="6.7" y2="21.4"/>
					<line class="st3" x1="6.7" y1="17.4" x2="6.7" y2="17.9"/>
				</g>
			</g>
			<polyline class="st3" points="9.5,21.4 9.5,17.5 9,17.9 			"/>
			<path class="st3" d="M12.9,19.4c0,1.1-0.2,2-1,2c-0.9,0-1-0.9-1-2c0-1.1,0.1-2,1-2C12.7,17.4,12.9,18.3,12.9,19.4z"/>
			<path class="st3" d="M16.2,19.4c0,1.1-0.2,2-1,2c-0.9,0-1-0.9-1-2c0-1.1,0.2-2,1-2C16.1,17.4,16.2,18.3,16.2,19.4z"/>
		</g>
	</g>
</g>
</svg>
