<?xml version="1.0" encoding="utf-8"?>
<!-- Generator: Adobe Illustrator 19.2.0, SVG Export Plug-In . SVG Version: 6.00 Build 0)  -->
<svg version="1.1" id="Layer_1" xmlns="http://www.w3.org/2000/svg" xmlns:xlink="http://www.w3.org/1999/xlink" x="0px" y="0px"
	 viewBox="0 0 24 24" style="enable-background:new 0 0 24 24;" xml:space="preserve">
<style type="text/css">
	.st0{display:none;}
	.st1{display:inline;}
	.st2{fill:none;stroke:#000000;stroke-linejoin:round;stroke-miterlimit:10;}
</style>
<g id="Filled_Icons" class="st0">
	<path class="st1" d="M20.7,6l-4.5-5.4C15.9,0.2,15.5,0,15,0H4.5C3.7,0,3,0.7,3,1.5v21C3,23.3,3.7,24,4.5,24h15
		c0.8,0,1.5-0.7,1.5-1.5V6.9C21,6.6,20.9,6.3,20.7,6z M12,1h1v3.5h-1V1z M9,1h1v3.5H9V1z M6,1h1v3.5H6V1z M6,13.5
		C6,12.1,7.1,11,8.5,11H9v3H6V13.5z M6,15h3v2H6V15z M8.5,21C7.1,21,6,19.9,6,18.5V18h3v3H8.5z M10,21v-3v-1v-2v-1v-3h4v3v1v2v1v3
		H10z M18,18.5c0,1.4-1.1,2.5-2.5,2.5H15v-3h3V18.5z M18,17h-3v-2h3V17z M18,14h-3v-3h0.5c1.4,0,2.5,1.1,2.5,2.5V14z"/>
</g>
<g id="Outline_Icons">
	<g>
		<path class="st2" d="M20.5,22.5c0,0.6-0.4,1-1,1h-15c-0.6,0-1-0.4-1-1v-21c0-0.6,0.4-1,1-1H15c0.3,0,0.6,0.1,0.8,0.4l4.5,5.4
			c0.1,0.2,0.2,0.4,0.2,0.6V22.5z"/>
		<path class="st2" d="M17.5,18.5c0,1.1-0.9,2-2,2h-7c-1.1,0-2-0.9-2-2v-5c0-1.1,0.9-2,2-2h7c1.1,0,2,0.9,2,2V18.5z"/>
		<line class="st2" x1="9.5" y1="20.5" x2="9.5" y2="11.5"/>
		<line class="st2" x1="14.5" y1="20.5" x2="14.5" y2="11.5"/>
		<line class="st2" x1="14.5" y1="14.5" x2="17.5" y2="14.5"/>
		<line class="st2" x1="6.5" y1="14.5" x2="9.5" y2="14.5"/>
		<line class="st2" x1="14.5" y1="17.5" x2="17.5" y2="17.5"/>
		<line class="st2" x1="6.5" y1="17.5" x2="9.5" y2="17.5"/>
		<path class="st2" d="M6.5,0.5c0,0.5,0,4,0,4"/>
		<path class="st2" d="M9.5,0.5c0,0.5,0,4,0,4"/>
		<path class="st2" d="M12.5,0.5c0,0.5,0,4,0,4"/>
	</g>
</g>
</svg>
