<?xml version="1.0" encoding="utf-8"?>
<!-- Generator: Adobe Illustrator 19.2.0, SVG Export Plug-In . SVG Version: 6.00 Build 0)  -->
<svg version="1.1" id="Layer_1" xmlns="http://www.w3.org/2000/svg" xmlns:xlink="http://www.w3.org/1999/xlink" x="0px" y="0px"
	 viewBox="0 0 24 24" style="enable-background:new 0 0 24 24;" xml:space="preserve">
<style type="text/css">
	.st0{display:none;}
	.st1{display:inline;}
	.st2{fill:none;stroke:#000000;stroke-linejoin:round;stroke-miterlimit:10;}
	.st3{fill:none;stroke:#000000;stroke-linecap:round;stroke-linejoin:round;stroke-miterlimit:10;}
</style>
<g id="Filled_Icons" class="st0">
	<path class="st1" d="M22.3,9.4c1-1,1.6-2.4,1.6-3.9s-0.6-2.9-1.6-3.9S19.9,0,18.4,0s-2.8,0.6-3.9,1.6l-0.4-0.4
		c-0.4-0.4-1-0.4-1.4,0L10,4.1c-0.4,0.4-0.4,1,0,1.4l0.4,0.4l-4.2,4.2L5.7,9.8c-0.4-0.4-1-0.4-1.4,0l-2.8,2.8c-0.4,0.4-0.4,1,0,1.4
		l0.4,0.4c-1,1-1.6,2.4-1.6,3.9s0.6,2.9,1.6,3.9s2.4,1.6,3.9,1.6s2.9-0.6,3.9-1.6l0.4,0.4c0.2,0.2,0.5,0.3,0.7,0.3
		c0.3,0,0.5-0.1,0.7-0.3l2.8-2.8c0.4-0.4,0.4-1,0-1.4L13.9,18l4.2-4.2l0.4,0.4c0.2,0.2,0.5,0.3,0.7,0.3c0.3,0,0.5-0.1,0.7-0.3
		l2.8-2.8c0.4-0.4,0.4-1,0-1.4L22.3,9.4z M10.7,21.8l-2.1-2.1l1.1-1.1l0,0l-4.2-4.2l-1.1,1.1l-2.1-2.1L5,10.5l2.1,2.1L6,13.7
		l4.2,4.2l0,0l1.1-1.1l2.1,2.1L10.7,21.8z M19.2,13.3L17,11.2l1.1-1.1l-4.2-4.2l0,0L12.8,7l-2.1-2.1L13.5,2l2.1,2.1l-1.1,1.1l0,0
		l4.2,4.2l1.1-1.1l2.1,2.1L19.2,13.3z"/>
</g>
<g id="Outline_Icons">
	<g>
		<path class="st2" d="M2.9,14l-0.7,0.7c-2,2-2,5.1,0,7.1s5.1,2,7.1,0l0.7-0.7"/>
		<line class="st2" x1="11.4" y1="5.5" x2="5.7" y2="11.2"/>
		<path class="st2" d="M21.3,9.8L22,9.1c2-2,2-5.1,0-7.1s-5.1-2-7.1,0l-0.7,0.7"/>
		<line class="st2" x1="12.8" y1="18.3" x2="18.4" y2="12.6"/>
		<rect x="17.5" y="9.3" transform="matrix(0.707 -0.7073 0.7073 0.707 -1.9445 16.9448)" class="st3" width="4" height="3"/>
		<rect x="11.1" y="3" transform="matrix(0.7071 -0.7071 0.7071 0.7071 0.646 10.6106)" class="st3" width="4" height="3"/>
		<line class="st3" x1="14.2" y1="5.5" x2="18.4" y2="9.8"/>
		<rect x="9" y="17.8" transform="matrix(0.7071 -0.7071 0.7071 0.7071 -10.4459 13.4317)" class="st3" width="4" height="3"/>
		<rect x="2.7" y="11.5" transform="matrix(0.7073 -0.7069 0.7069 0.7073 -7.7816 7.1272)" class="st3" width="4" height="3"/>
		<line class="st3" x1="5.7" y1="14" x2="10" y2="18.3"/>
	</g>
</g>
</svg>
