<?xml version="1.0" encoding="utf-8"?>
<!-- Generator: Adobe Illustrator 19.2.0, SVG Export Plug-In . SVG Version: 6.00 Build 0)  -->
<svg version="1.1" id="Layer_1" xmlns="http://www.w3.org/2000/svg" xmlns:xlink="http://www.w3.org/1999/xlink" x="0px" y="0px"
	 viewBox="0 0 24 24" style="enable-background:new 0 0 24 24;" xml:space="preserve">
<style type="text/css">
	.st0{display:none;}
	.st1{display:inline;}
	.st2{fill:none;stroke:#000000;stroke-linejoin:round;stroke-miterlimit:10;}
	.st3{fill:none;stroke:#000000;stroke-linecap:round;stroke-linejoin:round;stroke-miterlimit:10;}
</style>
<g id="Filled_Icons" class="st0">
	<g class="st1">
		<path d="M23.5,20h-1V6H23c0.3,0,0.5-0.2,0.5-0.5v-5C23.5,0.2,23.3,0,23,0h-2c-0.3,0-0.5,0.2-0.5,0.5v5C20.5,5.8,20.7,6,21,6h0.5
			v14h-1c-0.3,0-0.5,0.2-0.5,0.5s0.2,0.5,0.5,0.5h1v2.5c0,0.3,0.2,0.5,0.5,0.5s0.5-0.2,0.5-0.5V21h1c0.3,0,0.5-0.2,0.5-0.5
			S23.8,20,23.5,20z"/>
		<path d="M3.5,20h-1V6H3c0.3,0,0.5-0.2,0.5-0.5v-5C3.5,0.2,3.3,0,3,0H1C0.7,0,0.5,0.2,0.5,0.5v5C0.5,5.8,0.7,6,1,6h0.5v14h-1
			C0.2,20,0,20.2,0,20.5S0.2,21,0.5,21h1v2.5C1.5,23.8,1.7,24,2,24s0.5-0.2,0.5-0.5V21h1C3.8,21,4,20.8,4,20.5S3.8,20,3.5,20z"/>
		<polygon points="10.8,12 5.2,12 5.4,15 10.6,15 		"/>
		<path d="M11,9l0.3-5.5c0-0.9-0.3-1.8-0.9-2.5C9.8,0.4,8.9,0,8,0S6.2,0.4,5.6,1C5,1.7,4.6,2.6,4.7,3.5L5,9H11z"/>
		<path d="M5.3,18l-0.8,5.4c0,0.1,0,0.3,0.1,0.4S4.9,24,5,24h6c0.1,0,0.3-0.1,0.4-0.2c0.1-0.1,0.1-0.3,0.1-0.4L10.6,18H5.3z"/>
		<path d="M19,9l0.3-5.5c0-0.9-0.3-1.8-0.9-2.5S16.9,0,16,0s-1.8,0.4-2.4,1c-0.6,0.7-1,1.6-0.9,2.5L13,9H19L19,9z"/>
		<path d="M13.3,18l-0.8,5.4c0,0.1,0,0.3,0.1,0.4S12.8,24,13,24h6c0.1,0,0.3-0.1,0.4-0.2s0.1-0.3,0.1-0.4L18.6,18H13.3z"/>
		<polygon points="18.8,12 13.2,12 13.4,15 18.6,15 		"/>
		<path d="M11,10H5c-0.3,0-0.5,0.2-0.5,0.5S4.7,11,5,11h6c0.3,0,0.5-0.2,0.5-0.5S11.3,10,11,10z"/>
		<path d="M11,16H5c-0.3,0-0.5,0.2-0.5,0.5S4.7,17,5,17h6c0.3,0,0.5-0.2,0.5-0.5S11.3,16,11,16z"/>
		<path d="M19,10h-6c-0.3,0-0.5,0.2-0.5,0.5S12.7,11,13,11h6c0.3,0,0.5-0.2,0.5-0.5S19.3,10,19,10z"/>
		<path d="M19,16h-6c-0.3,0-0.5,0.2-0.5,0.5S12.7,17,13,17h6c0.3,0,0.5-0.2,0.5-0.5S19.3,16,19,16z"/>
	</g>
</g>
<g id="Outline_Icons">
	<g>
		<g>
			<path class="st2" d="M5.2,3.5C5.2,2.7,5.4,2,6,1.4c0.5-0.6,1.2-0.9,2-0.9s1.5,0.3,2.1,0.9c0.5,0.6,0.8,1.3,0.8,2.1L10,17.1l1,6.4
				H5L6,17L5.2,3.5z"/>
			<path class="st2" d="M13.2,3.5c0-0.8,0.2-1.5,0.8-2.1c0.5-0.6,1.3-0.9,2.1-0.9c0.8,0,1.5,0.3,2.1,0.9C18.7,2,19,2.7,19,3.5
				l-1,13.6l1,6.4h-6l1-6.5L13.2,3.5z"/>
			<rect x="20.5" y="0.5" class="st2" width="2" height="5"/>
			<line class="st3" x1="21.5" y1="5.5" x2="21.5" y2="23.5"/>
			<line class="st3" x1="20" y1="20.5" x2="23" y2="20.5"/>
			<rect x="1.5" y="0.5" class="st2" width="2" height="5"/>
			<line class="st3" x1="2.5" y1="5.5" x2="2.5" y2="23.5"/>
			<line class="st3" x1="1" y1="20.5" x2="4" y2="20.5"/>
		</g>
		<line class="st2" x1="4.5" y1="10.5" x2="11.5" y2="10.5"/>
		<line class="st2" x1="4.5" y1="16.5" x2="11.5" y2="16.5"/>
		<line class="st2" x1="12.5" y1="10.5" x2="19.5" y2="10.5"/>
		<line class="st2" x1="12.5" y1="16.5" x2="19.5" y2="16.5"/>
	</g>
</g>
</svg>
