<?xml version="1.0" encoding="utf-8"?>
<!-- Generator: Adobe Illustrator 19.2.0, SVG Export Plug-In . SVG Version: 6.00 Build 0)  -->
<svg version="1.1" id="Layer_1" xmlns="http://www.w3.org/2000/svg" xmlns:xlink="http://www.w3.org/1999/xlink" x="0px" y="0px"
	 viewBox="0 0 24 24" style="enable-background:new 0 0 24 24;" xml:space="preserve">
<style type="text/css">
	.st0{display:none;}
	.st1{display:inline;}
	.st2{fill:none;stroke:#000000;stroke-linecap:round;stroke-linejoin:round;stroke-miterlimit:10;}
</style>
<g id="Filled_Icons" class="st0">
	<g class="st1">
		<circle cx="8" cy="14" r="2"/>
		<circle cx="17" cy="14" r="2"/>
		<path d="M18,7.5v-1C18,6.2,18.2,6,18.5,6C18.8,6,19,6.2,19,6.5v1c0,1.4,1.1,2.5,2.5,2.5H22V9c0-4.9-4.3-9-9.5-9C7.5,0,3,4.2,3,9v1
			h0.5C4.9,10,6,8.9,6,7.5v-1C6,6.2,6.2,6,6.5,6C6.8,6,7,6.2,7,6.5v1C7,9.4,5.4,11,3.5,11H3v6c0,1.6,0.8,2.7,2,3v1.5
			C5,22.9,6.1,24,7.5,24H8v-4.5C8,19.2,8.2,19,8.5,19C8.8,19,9,19.2,9,19.5V24h3v-4.5c0-0.3,0.2-0.5,0.5-0.5c0.3,0,0.5,0.2,0.5,0.5
			V24h3v-4.5c0-0.3,0.2-0.5,0.5-0.5c0.3,0,0.5,0.2,0.5,0.5V24h0.5c1.4,0,2.5-1.1,2.5-2.5V20c1.2-0.2,2-1.3,2-3v-6h-0.5
			C19.6,11,18,9.4,18,7.5z M8,17c-1.7,0-3-1.3-3-3c0-1.7,1.3-3,3-3c1.7,0,3,1.3,3,3C11,15.7,9.7,17,8,17z M12,18
			c-0.3,0-0.5-0.2-0.5-0.5c0-0.6,0.4-1,1-1c0.6,0,1,0.4,1,1c0,0.3-0.2,0.5-0.5,0.5H12z M14,14c0-1.7,1.3-3,3-3c1.7,0,3,1.3,3,3
			c0,1.7-1.3,3-3,3C15.3,17,14,15.7,14,14z"/>
	</g>
</g>
<g id="Outline_Icons">
	<g>
		<path class="st2" d="M21.5,9c0-4.7-4.3-8.5-9-8.5c-4.7,0-9,3.8-9,8.5v8c0,1.4,0.6,2.5,2,2.5v2c0,1.1,0.9,2,2,2h10c1.1,0,2-0.9,2-2
			v-2c1.4,0,2-1.1,2-2.5V9z"/>
		<line class="st2" x1="12.5" y1="23.5" x2="12.5" y2="19.5"/>
		<line class="st2" x1="16.5" y1="23.5" x2="16.5" y2="19.5"/>
		<line class="st2" x1="8.5" y1="23.5" x2="8.5" y2="19.5"/>
		<circle class="st2" cx="17" cy="14" r="2.5"/>
		<circle class="st2" cx="8" cy="14" r="2.5"/>
		<path class="st2" d="M3.5,10.5c1.7,0,3-1.3,3-3v-1"/>
		<path class="st2" d="M21.5,10.5c-1.7,0-3-1.3-3-3v-1"/>
		<path class="st2" d="M12.6,17c-0.3,0-0.5,0.2-0.5,0.5h1C13.1,17.2,12.9,17,12.6,17z"/>
	</g>
</g>
</svg>
