<?xml version="1.0" encoding="utf-8"?>
<!-- Generator: Adobe Illustrator 19.2.0, SVG Export Plug-In . SVG Version: 6.00 Build 0)  -->
<svg version="1.1" id="Layer_1" xmlns="http://www.w3.org/2000/svg" xmlns:xlink="http://www.w3.org/1999/xlink" x="0px" y="0px"
	 viewBox="0 0 24 24" style="enable-background:new 0 0 24 24;" xml:space="preserve">
<style type="text/css">
	.st0{display:none;}
	.st1{display:inline;}
	.st2{fill:none;stroke:#000000;stroke-linecap:round;stroke-linejoin:round;stroke-miterlimit:10;}
</style>
<g id="Filled_Icons" class="st0">
	<g class="st1">
		<path d="M16.5,15.5c1.4,0,2.5-1.1,2.5-2.5c0-1.4-1.1-2.5-2.5-2.5c-1.4,0-2.5,1.1-2.5,2.5C14,14.4,15.1,15.5,16.5,15.5z"/>
		<path d="M7.5,10.5C6.1,10.5,5,11.6,5,13c0,1.4,1.1,2.5,2.5,2.5c1.4,0,2.5-1.1,2.5-2.5C10,11.6,8.9,10.5,7.5,10.5z"/>
		<path d="M21,9.5c-2,0-3.9-1.4-3.9-4.5c0-0.3,0.2-0.5,0.5-0.5c0.3,0,0.5,0.2,0.5,0.5c0,2.6,1.5,3.5,2.9,3.5l0.8,0
			c-0.9-4.6-5-8-9.8-8c-4.8,0-8.9,3.4-9.8,8H3c1.4,0,2.9-0.9,2.9-3.5c0-0.3,0.2-0.5,0.5-0.5c0.3,0,0.5,0.2,0.5,0.5
			c0,3.1-2,4.5-3.9,4.5H2.1c0,0.3-0.1,0.7-0.1,1V13c0,2.9,2.2,5.2,5,5.5v5h3V18c0-0.3,0.2-0.5,0.5-0.5c0.3,0,0.5,0.2,0.5,0.5v5.5h2
			V18c0-0.3,0.2-0.5,0.5-0.5c0.3,0,0.5,0.2,0.5,0.5v5.5h3v-5c2.8-0.3,5-2.6,5-5.5v-2.5c0-0.3,0-0.7,0-1L21,9.5z M7.5,16.5
			C5.6,16.5,4,14.9,4,13c0-1.9,1.6-3.5,3.5-3.5c1.9,0,3.5,1.6,3.5,3.5C11,14.9,9.4,16.5,7.5,16.5z M12.5,16.5
			C12.5,16.5,12.5,16.5,12.5,16.5h-1c-0.4,0-0.6-0.4-0.4-0.7l0.5-1c0.2-0.3,0.7-0.3,0.9,0l0.5,0.9C13.2,16,12.9,16.5,12.5,16.5z
			 M13,13c0-1.9,1.6-3.5,3.5-3.5c1.9,0,3.5,1.6,3.5,3.5c0,1.9-1.6,3.5-3.5,3.5C14.6,16.5,13,14.9,13,13z"/>
	</g>
</g>
<g id="Outline_Icons">
	<g>
		<path class="st2" d="M16.5,23v-5c2.8,0,5-2.2,5-5v-2.5C21.5,5.3,17.2,1,12,1c-5.2,0-9.5,4.3-9.5,9.5V13c0,2.8,2.2,5,5,5v5"/>
		<line class="st2" x1="10.5" y1="18" x2="10.5" y2="23"/>
		<line class="st2" x1="13.5" y1="18" x2="13.5" y2="23"/>
		<circle class="st2" cx="16.5" cy="13" r="3"/>
		<circle class="st2" cx="7.5" cy="13" r="3"/>
		<path class="st2" d="M6.4,5c0,2.7-1.6,4-3.4,4H2.6"/>
		<path class="st2" d="M17.6,5c0,2.7,1.6,4,3.4,4h0.4"/>
		<polygon class="st2" points="11.5,16 12,15 12.5,16 		"/>
	</g>
</g>
</svg>
