<?xml version="1.0" encoding="utf-8"?>
<!-- Generator: Adobe Illustrator 19.2.0, SVG Export Plug-In . SVG Version: 6.00 Build 0)  -->
<svg version="1.1" id="Layer_1" xmlns="http://www.w3.org/2000/svg" xmlns:xlink="http://www.w3.org/1999/xlink" x="0px" y="0px"
	 viewBox="0 0 24 24" style="enable-background:new 0 0 24 24;" xml:space="preserve">
<style type="text/css">
	.st0{display:none;}
	.st1{display:inline;}
	.st2{fill:none;stroke:#000000;stroke-linecap:round;stroke-linejoin:round;stroke-miterlimit:10;}
</style>
<g id="Filled_Icons" class="st0">
	<g class="st1">
		<path d="M16.5,14h-8C7.1,14,6,15.1,6,16.5C6,17.9,7.1,19,8.5,19h8c1.4,0,2.5-1.1,2.5-2.5C19,15.1,17.9,14,16.5,14z"/>
		<g>
			<g>
				<path d="M12.5,13c-0.6,0-1-0.4-1-1V1c0-0.6,0.4-1,1-1c0.6,0,1,0.4,1,1v11C13.5,12.6,13.1,13,12.5,13z"/>
			</g>
			<g>
				<path d="M12.5,24c-0.6,0-1-0.4-1-1v-2c0-0.6,0.4-1,1-1c0.6,0,1,0.4,1,1v2C13.5,23.6,13.1,24,12.5,24z"/>
			</g>
		</g>
	</g>
</g>
<g id="Outline_Icons">
	<g>
		<path class="st2" d="M16.5,14.5c1.1,0,2,0.9,2,2c0,1.1-0.9,2-2,2h-8c-1.1,0-2-0.9-2-2c0-1.1,0.9-2,2-2H16.5z"/>
		<g>
			<line class="st2" x1="12.5" y1="12.5" x2="12.5" y2="0.5"/>
			<line class="st2" x1="12.5" y1="23.5" x2="12.5" y2="20.5"/>
		</g>
	</g>
</g>
</svg>
