<?xml version="1.0" encoding="utf-8"?>
<!-- Generator: Adobe Illustrator 19.2.0, SVG Export Plug-In . SVG Version: 6.00 Build 0)  -->
<svg version="1.1" id="Layer_1" xmlns="http://www.w3.org/2000/svg" xmlns:xlink="http://www.w3.org/1999/xlink" x="0px" y="0px"
	 viewBox="0 0 24 24" style="enable-background:new 0 0 24 24;" xml:space="preserve">
<style type="text/css">
	.st0{display:none;}
	.st1{display:inline;}
	.st2{fill:none;stroke:#000000;stroke-linecap:round;stroke-linejoin:round;stroke-miterlimit:10;}
</style>
<g id="Filled_Icons" class="st0">
	<g class="st1">
		<path d="M7.5,6C6.1,6,5,7.1,5,8.5v8C5,17.9,6.1,19,7.5,19c1.4,0,2.5-1.1,2.5-2.5v-8C10,7.1,8.9,6,7.5,6z"/>
		<g>
			<path d="M23,13.5H12c-0.6,0-1-0.4-1-1c0-0.6,0.4-1,1-1h11c0.6,0,1,0.4,1,1C24,13.1,23.6,13.5,23,13.5z"/>
		</g>
		<g>
			<path d="M3,13.5H1c-0.6,0-1-0.4-1-1c0-0.6,0.4-1,1-1h2c0.6,0,1,0.4,1,1C4,13.1,3.6,13.5,3,13.5z"/>
		</g>
	</g>
</g>
<g id="Outline_Icons">
	<g>
		<path class="st2" d="M9.5,16.5c0,1.1-0.9,2-2,2c-1.1,0-2-0.9-2-2v-8c0-1.1,0.9-2,2-2c1.1,0,2,0.9,2,2V16.5z"/>
		<line class="st2" x1="11.5" y1="12.5" x2="23.5" y2="12.5"/>
		<line class="st2" x1="0.5" y1="12.5" x2="3.5" y2="12.5"/>
	</g>
</g>
</svg>
