<?xml version="1.0" encoding="utf-8"?>
<!-- Generator: Adobe Illustrator 19.2.0, SVG Export Plug-In . SVG Version: 6.00 Build 0)  -->
<svg version="1.1" id="Layer_1" xmlns="http://www.w3.org/2000/svg" xmlns:xlink="http://www.w3.org/1999/xlink" x="0px" y="0px"
	 viewBox="0 0 24 24" style="enable-background:new 0 0 24 24;" xml:space="preserve">
<style type="text/css">
	.st0{display:none;}
	.st1{display:inline;}
	.st2{fill:none;stroke:#000000;stroke-linejoin:round;stroke-miterlimit:10;}
</style>
<g id="Filled_Icons" class="st0">
	<g class="st1">
		<path d="M21.5,2h-8C12.1,2,11,3.1,11,4.5v19c0,0.3,0.2,0.5,0.5,0.5h3c0.3,0,0.5-0.2,0.5-0.5V17h5v6.5c0,0.3,0.2,0.5,0.5,0.5h3
			c0.3,0,0.5-0.2,0.5-0.5v-19C24,3.1,22.9,2,21.5,2z M21,9.5c0,0.3-0.2,0.5-0.5,0.5h-6C14.2,10,14,9.8,14,9.5v-4
			C14,5.2,14.2,5,14.5,5h6C20.8,5,21,5.2,21,5.5V9.5z"/>
		<g>
			<path d="M10,12.1l-4.5,4c-1.4,1.2-3.2,1.9-5,1.9C0.2,18,0,18.2,0,18.5v5C0,23.8,0.2,24,0.5,24c2.8,0,5.4-1,7.5-2.8l2-1.8V12.1z"
				/>
		</g>
	</g>
</g>
<g id="Outline_Icons">
	<g>
		<path class="st2" d="M13.5,2.5c-1.1,0-2,0.9-2,2v12v7h3v-7h6v7h3v-7v-12c0-1.1-0.9-2-2-2H13.5z"/>
		<path class="st2" d="M11.5,11.5l-5.6,5c-1.5,1.3-3.4,2.1-5.4,2.1v5c2.6,0,5.2-1,7.2-2.7l3.8-3.3"/>
		<rect x="14.5" y="5.5" class="st2" width="6" height="4"/>
	</g>
</g>
</svg>
