<?xml version="1.0" encoding="utf-8"?>
<!-- Generator: Adobe Illustrator 19.2.0, SVG Export Plug-In . SVG Version: 6.00 Build 0)  -->
<svg version="1.1" id="Layer_1" xmlns="http://www.w3.org/2000/svg" xmlns:xlink="http://www.w3.org/1999/xlink" x="0px" y="0px"
	 viewBox="0 0 24 24" style="enable-background:new 0 0 24 24;" xml:space="preserve">
<style type="text/css">
	.st0{display:none;}
	.st1{display:inline;}
	.st2{fill:none;stroke:#000000;stroke-linejoin:round;stroke-miterlimit:10;}
</style>
<g id="Filled_Icons" class="st0">
	<g class="st1">
		<g>
			<path d="M23.4,13.3l-4.1-4.9C19,8.8,18.5,9,18,9c-0.5,0-0.9-0.2-1.3-0.5L13,13.7v5.2c0,2.8,2.3,5.1,5.1,5.1c2.7,0,5-2.1,5.1-4.9
				L23.4,13.3L23.4,13.3z"/>
			<path d="M16.1,7.7C16.1,7.5,16,7.3,16,7c0-1.1,0.9-2,2-2c1.1,0,2,0.9,2,2c0,0.2,0,0.4-0.1,0.5l3.6,4.3l0.2-5.3
				c0.1-1.4-0.5-2.8-1.5-3.9C19.1-0.7,13,1.4,13,6.3V12L16.1,7.7z"/>
		</g>
		<g>
			<path d="M4,7.5c0-0.2-0.1-0.3-0.1-0.5c0-1.1,0.9-2,2-2s2,0.9,2,2c0,0.2,0,0.5-0.1,0.7L11,12V6.3c0-4.8-6.2-7-9.4-3.7
				c-1,1-1.5,2.4-1.5,3.9l0.3,5.4L4,7.5z"/>
			<path d="M7.2,8.5C6.8,8.8,6.4,9,5.9,9c-0.5,0-1-0.2-1.4-0.6l-4,4.9l0,0l0.3,5.9C0.8,21.9,3.1,24,5.9,24c2.8,0,5.1-2.3,5.1-5.1
				v-5.2L7.2,8.5z"/>
		</g>
	</g>
</g>
<g id="Outline_Icons">
	<g>
		<path class="st2" d="M13.5,6.3c0-2.6,2.1-4.8,4.8-4.8h0.2C19.8,1.5,21.1,2,22,3c0.9,0.9,1.4,2.2,1.3,3.5l-0.6,12.6
			c-0.1,2.5-2.1,4.4-4.6,4.4c-2.5,0-4.6-2.1-4.6-4.6L13.5,6.3L13.5,6.3z"/>
		<line class="st2" x1="19.4" y1="7.6" x2="23" y2="12"/>
		<line class="st2" x1="13.5" y1="12.1" x2="16.7" y2="7.8"/>
		<circle class="st2" cx="18" cy="7" r="1.5"/>
		<path class="st2" d="M10.5,6.3c0-2.6-2.2-4.8-4.9-4.8H5.4C4.1,1.5,2.9,2,2,3C1.1,3.9,0.6,5.2,0.6,6.5l0.6,12.6
			c0.1,2.5,2.2,4.4,4.6,4.4c2.5,0,4.6-2.1,4.6-4.6V6.3z"/>
		<line class="st2" x1="4.6" y1="7.6" x2="0.9" y2="12"/>
		<line class="st2" x1="10.5" y1="12.2" x2="7.2" y2="7.7"/>
		<circle class="st2" cx="5.9" cy="7" r="1.5"/>
	</g>
</g>
</svg>
