<?xml version="1.0" encoding="utf-8"?>
<!-- Generator: Adobe Illustrator 19.2.0, SVG Export Plug-In . SVG Version: 6.00 Build 0)  -->
<svg version="1.1" id="Layer_1" xmlns="http://www.w3.org/2000/svg" xmlns:xlink="http://www.w3.org/1999/xlink" x="0px" y="0px"
	 viewBox="0 0 24 24" style="enable-background:new 0 0 24 24;" xml:space="preserve">
<style type="text/css">
	.st0{display:none;}
	.st1{display:inline;}
	.st2{fill:none;stroke:#000000;stroke-linecap:round;stroke-linejoin:round;stroke-miterlimit:10;}
</style>
<g id="Filled_Icons" class="st0">
	<path class="st1" d="M2.4,9.5C2,9.5,1.5,8.8,1.5,8.4V1.3c0-0.4,0.5-0.8,0.9-0.8h1.4c0.4,0,0.7,0.4,0.7,0.8V2c0,0,1.4-1.4,4.3-1.4
		S12.4,2,15.3,2c2.9,0,5-1.4,5-1.4l1.8,2.2c0,0-5.6,14.5-6.1,20.2c0,0.4-0.3,0.7-0.7,0.7c-1.7,0-5,0-6.5,0c-0.2,0-0.4-0.1-0.5-0.2
		c-0.1-0.1-0.2-0.3-0.2-0.5c0.1-2.4,1.1-10.2,8.6-16.5C16,7,14.9,7.7,13.1,7.7S9.2,6.3,7.7,6.3C6.4,6.3,4.9,7,4.6,8.7
		C4.5,9.1,4.2,9.5,3.9,9.5C3.4,9.5,2.8,9.5,2.4,9.5z"/>
</g>
<g id="Outline_Icons">
	<path class="st2" d="M2.4,9.5C2,9.5,1.5,8.8,1.5,8.4V1.3c0-0.4,0.5-0.8,0.9-0.8h1.4c0.4,0,0.7,0.4,0.7,0.8V2c0,0,1.4-1.4,4.3-1.4
		S12.4,2,15.3,2c2.9,0,5-1.4,5-1.4l1.8,2.2c0,0-5.6,14.5-6.1,20.2c0,0.4-0.3,0.7-0.7,0.7c-1.7,0-5,0-6.5,0c-0.2,0-0.4-0.1-0.5-0.2
		c-0.1-0.1-0.2-0.3-0.2-0.5c0.1-2.4,1.1-10.2,8.6-16.5C16,7,14.9,7.7,13.1,7.7S9.2,6.3,7.7,6.3C6.4,6.3,4.9,7,4.6,8.7
		C4.5,9.1,4.2,9.5,3.9,9.5C3.4,9.5,2.8,9.5,2.4,9.5z"/>
</g>
</svg>
