<?xml version="1.0" encoding="utf-8"?>
<!-- Generator: Adobe Illustrator 19.2.0, SVG Export Plug-In . SVG Version: 6.00 Build 0)  -->
<svg version="1.1" id="Outline_Icons" xmlns="http://www.w3.org/2000/svg" xmlns:xlink="http://www.w3.org/1999/xlink" x="0px"
	 y="0px" viewBox="0 0 24 24" style="enable-background:new 0 0 24 24;" xml:space="preserve">
<style type="text/css">
	.st0{fill:none;stroke:#000000;stroke-linejoin:round;stroke-miterlimit:10;}
	.st1{fill:none;stroke:#000000;stroke-linecap:round;stroke-linejoin:round;stroke-miterlimit:10;}
</style>
<g>
	<rect x="0.5" y="7.5" class="st0" width="18" height="16"/>
	<line class="st0" x1="6.5" y1="7.5" x2="6.5" y2="16.5"/>
	<line class="st0" x1="12.5" y1="7.5" x2="12.5" y2="16.5"/>
	<line class="st0" x1="0.5" y1="16.5" x2="18.5" y2="16.5"/>
	<rect x="2.5" y="19.5" class="st0" width="5" height="2"/>
	<rect x="0.5" y="4.5" class="st0" width="18" height="3"/>
	<path class="st0" d="M2.5,4.5c1.5-2.4,4.2-4,7.2-4c3,0,5.7,1.6,7.2,4"/>
	<polyline class="st1" points="18.5,20.5 21.5,20.5 21.5,9.5 	"/>
	<circle class="st1" cx="21.5" cy="8" r="1.5"/>
	<polyline class="st1" points="2.7,10.5 4.2,10.5 2.7,13.9 	"/>
	<polyline class="st1" points="8.7,10.5 10.3,10.5 8.7,13.9 	"/>
	<polyline class="st1" points="14.7,10.5 16.2,10.5 14.7,13.9 	"/>
</g>
</svg>
