<?xml version="1.0" encoding="utf-8"?>
<!-- Generator: Adobe Illustrator 19.2.0, SVG Export Plug-In . SVG Version: 6.00 Build 0)  -->
<svg version="1.1" id="Layer_1" xmlns="http://www.w3.org/2000/svg" xmlns:xlink="http://www.w3.org/1999/xlink" x="0px" y="0px"
	 viewBox="0 0 24 24" style="enable-background:new 0 0 24 24;" xml:space="preserve">
<style type="text/css">
	.st0{display:none;}
	.st1{display:inline;}
	.st2{fill:none;stroke:#000000;stroke-linecap:round;stroke-linejoin:round;stroke-miterlimit:10;}
</style>
<g id="Filled_Icon" class="st0">
	<g class="st1">
		<path d="M10,20.5H8.5V3H13v2c0,0.6,0.4,1,1,1s1-0.4,1-1V2c0-0.6-0.4-1-1-1H1C0.4,1,0,1.4,0,2v3c0,0.6,0.4,1,1,1s1-0.4,1-1V3h4.5
			v17.5H5c-0.6,0-1,0.4-1,1s0.4,1,1,1h5c0.6,0,1-0.4,1-1S10.6,20.5,10,20.5z"/>
		<path d="M23,8h-9c-0.6,0-1,0.4-1,1v2c0,0.6,0.4,1,1,1s1-0.4,1-1v-1h2.5v10.5H17c-0.6,0-1,0.4-1,1s0.4,1,1,1h3c0.6,0,1-0.4,1-1
			s-0.4-1-1-1h-0.5V10H22v1c0,0.6,0.4,1,1,1s1-0.4,1-1V9C24,8.4,23.6,8,23,8z"/>
	</g>
</g>
<g id="Outline_Icons">
	<g>
		<polyline class="st2" points="0.5,4.5 0.5,1.5 14.5,1.5 14.5,4.5 		"/>
		<line class="st2" x1="7.5" y1="1.5" x2="7.5" y2="21.5"/>
		<line class="st2" x1="5" y1="21.5" x2="10" y2="21.5"/>
		<polyline class="st2" points="13.5,10.5 13.5,8.5 23.5,8.5 23.5,10.5 		"/>
		<line class="st2" x1="18.5" y1="8.5" x2="18.5" y2="21.5"/>
		<line class="st2" x1="17" y1="21.5" x2="20" y2="21.5"/>
	</g>
</g>
</svg>
