<?xml version="1.0" encoding="utf-8"?>
<!-- Generator: Adobe Illustrator 19.2.0, SVG Export Plug-In . SVG Version: 6.00 Build 0)  -->
<svg version="1.1" id="Layer_1" xmlns="http://www.w3.org/2000/svg" xmlns:xlink="http://www.w3.org/1999/xlink" x="0px" y="0px"
	 viewBox="0 0 24 24" style="enable-background:new 0 0 24 24;" xml:space="preserve">
<style type="text/css">
	.st0{display:none;}
	.st1{display:inline;}
	.st2{fill:none;stroke:#000000;stroke-linejoin:round;stroke-miterlimit:10;}
	.st3{fill:none;stroke:#000000;stroke-linecap:round;stroke-linejoin:round;stroke-miterlimit:10;}
</style>
<g id="Filled_Icons" class="st0">
	<g class="st1">
		<path d="M6,6.5C6,7.3,6.7,8,7.5,8h9C17.3,8,18,7.3,18,6.5V0.4C17.3,0.2,16.5,0,15.5,0h-7C7.5,0,6.7,0.2,6,0.4V6.5z M7.5,2h9
			C16.8,2,17,2.2,17,2.5C17,2.8,16.8,3,16.5,3h-9C7.2,3,7,2.8,7,2.5C7,2.2,7.2,2,7.5,2z M7.5,4h9C16.8,4,17,4.2,17,4.5
			C17,4.8,16.8,5,16.5,5h-9C7.2,5,7,4.8,7,4.5C7,4.2,7.2,4,7.5,4z M7.5,6h9C16.8,6,17,6.2,17,6.5C17,6.8,16.8,7,16.5,7h-9
			C7.2,7,7,6.8,7,6.5C7,6.2,7.2,6,7.5,6z"/>
		<path d="M19.5,1.4C19.3,1.2,19.2,1.1,19,1v5.5C19,7.9,17.9,9,16.5,9h-9C6.1,9,5,7.9,5,6.5V1C4.8,1.1,4.7,1.2,4.5,1.4
			C2.9,3,3,5.6,3,8.5l0,12C3,21.9,4.1,23,5.5,23H6v0.5C6,23.8,6.2,24,6.5,24S7,23.8,7,23.5V23v-7c0-2.8,2.2-5,5-5s5,2.2,5,5v7v0.5
			c0,0.3,0.2,0.5,0.5,0.5s0.5-0.2,0.5-0.5V23h0.5c1.4,0,2.5-1.1,2.5-2.5v-11l0-1C21,5.6,21.1,3,19.5,1.4z"/>
		<path d="M12,12c-2.2,0-4,1.8-4,4v7h8v-7C16,13.8,14.2,12,12,12z"/>
	</g>
</g>
<g id="Outline_Icons">
	<g>
		<path class="st2" d="M15.5,0.5h-7c-5.5,0-5,4.5-5,9v11c0,1.1,0.9,2,2,2h13c1.1,0,2-0.9,2-2v-11C20.5,5,21,0.5,15.5,0.5z"/>
		<line class="st3" x1="7.5" y1="2.5" x2="16.5" y2="2.5"/>
		<line class="st3" x1="7.5" y1="4.5" x2="16.5" y2="4.5"/>
		<line class="st3" x1="7.5" y1="6.5" x2="16.5" y2="6.5"/>
		<path class="st2" d="M16.5,16c0-2.5-2-4.5-4.5-4.5c-2.5,0-4.5,2-4.5,4.5v6.5h9V16z"/>
		<path class="st2" d="M5.5,1.2v5.3c0,1.1,0.9,2,2,2h9c1.1,0,2-0.9,2-2V1.2"/>
		<line class="st3" x1="6.5" y1="23.5" x2="6.5" y2="22.5"/>
		<line class="st3" x1="17.5" y1="23.5" x2="17.5" y2="22.5"/>
	</g>
</g>
</svg>
