<?xml version="1.0" encoding="utf-8"?>
<!-- Generator: Adobe Illustrator 19.2.0, SVG Export Plug-In . SVG Version: 6.00 Build 0)  -->
<svg version="1.1" id="Layer_1" xmlns="http://www.w3.org/2000/svg" xmlns:xlink="http://www.w3.org/1999/xlink" x="0px" y="0px"
	 viewBox="0 0 24 24" style="enable-background:new 0 0 24 24;" xml:space="preserve">
<style type="text/css">
	.st0{display:none;}
	.st1{display:inline;}
	.st2{fill:none;stroke:#000000;stroke-linecap:round;stroke-linejoin:round;stroke-miterlimit:10;}
	.st3{fill:none;stroke:#000000;stroke-linejoin:round;stroke-miterlimit:10;}
</style>
<g id="Filled_Icons" class="st0">
	<g class="st1">
		<path d="M3,20v1.5C3,22.9,4.1,24,5.5,24h11c1.4,0,2.5-1.1,2.5-2.5V20H3z M11,22.5c-0.6,0-1-0.4-1-1c0-0.6,0.4-1,1-1
			c0.6,0,1,0.4,1,1C12,22.1,11.6,22.5,11,22.5z"/>
		<path d="M18.6,1.2C18.2,0.5,17.4,0,16.5,0h-11C4.1,0,3,1.1,3,2.5V4h12.9L18.6,1.2z M13.5,3h-5C8.2,3,8,2.8,8,2.5
			C8,2.2,8.2,2,8.5,2h5C13.8,2,14,2.2,14,2.5C14,2.8,13.8,3,13.5,3z"/>
		<path d="M13.1,15.1c-0.1,0.1-0.3,0.2-0.4,0.3c0,0-0.1,0-0.1,0c0,0,0,0-0.1,0l-3,1c-0.2,0.1-0.3,0.1-0.5,0.1
			c-0.4,0-0.8-0.2-1.1-0.4c-0.4-0.4-0.5-1-0.4-1.5l1-3c0,0,0,0,0-0.1c0,0,0-0.1,0-0.1c0.1-0.2,0.2-0.3,0.3-0.4L14.9,5H3v14h16V9.1
			L13.1,15.1z"/>
		<g>
			<path d="M9.4,12.1l-0.9,2.7c-0.1,0.2,0,0.4,0.1,0.5c0.1,0.1,0.2,0.1,0.4,0.1c0.1,0,0.1,0,0.2,0l2.7-0.9L9.4,12.1z"/>
			<path d="M22.4,1.6c-0.7-0.7-2-0.7-2.7,0L10,11.3l2.7,2.7l9.6-9.6C22.7,4,22.9,3.5,22.9,3C22.9,2.5,22.7,2,22.4,1.6z"/>
		</g>
	</g>
</g>
<g id="Outline_Icons">
	<g>
		<g>
			<path class="st2" d="M18.5,7.5v14c0,1.1-0.9,2-2,2h-11c-1.1,0-2-0.9-2-2v-19c0-1.1,0.9-2,2-2h11c1.1,0,2,0.9,2,2v1"/>
			<line class="st2" x1="17.5" y1="4.5" x2="3.5" y2="4.5"/>
			<line class="st2" x1="18.5" y1="19.5" x2="3.5" y2="19.5"/>
			<line class="st2" x1="8.5" y1="2.5" x2="13.5" y2="2.5"/>
			<path class="st3" d="M11.5,21.5c0,0.3-0.2,0.5-0.5,0.5l0,0c-0.3,0-0.5-0.2-0.5-0.5l0,0c0-0.3,0.2-0.5,0.5-0.5l0,0
				C11.3,21,11.5,21.2,11.5,21.5L11.5,21.5z"/>
		</g>
		<path class="st2" d="M12,14l-3,1l1-3L20,2c0.6-0.6,1.4-0.6,2,0c0.6,0.6,0.6,1.4,0,2L12,14z"/>
		<line class="st2" x1="10" y1="12" x2="12" y2="14"/>
	</g>
</g>
</svg>
