<?xml version="1.0" encoding="utf-8"?>
<!-- Generator: Adobe Illustrator 19.2.0, SVG Export Plug-In . SVG Version: 6.00 Build 0)  -->
<svg version="1.1" id="Layer_1" xmlns="http://www.w3.org/2000/svg" xmlns:xlink="http://www.w3.org/1999/xlink" x="0px" y="0px"
	 viewBox="0 0 24 24" style="enable-background:new 0 0 24 24;" xml:space="preserve">
<style type="text/css">
	.st0{display:none;}
	.st1{display:inline;}
	.st2{fill:none;stroke:#000000;stroke-linejoin:round;stroke-miterlimit:10;}
	.st3{fill:none;stroke:#000000;stroke-linecap:round;stroke-linejoin:round;stroke-miterlimit:10;}
</style>
<g id="Filled_Icons" class="st0">
	<g class="st1">
		<path d="M15.7,9.5c0,1,0.2,1,0.3,1c0.1,0,0.3,0,0.3-1c0-1-0.2-1-0.3-1C15.9,8.5,15.7,8.5,15.7,9.5z"/>
		<path d="M8.5,8.9c0-0.4-0.2-0.4-0.3-0.4C8.1,8.5,8,8.5,8,8.9c0,0.4,0.2,0.4,0.3,0.4C8.3,9.3,8.5,9.3,8.5,8.9z"/>
		<path d="M17.8,5l-0.5-1H6.7L6.2,5C5,5.2,4,6.2,4,7.5v9c0,1.3,1,2.3,2.2,2.5l0.5,1h10.6l0.5-1c1.2-0.2,2.2-1.2,2.2-2.5v-9
			C20,6.2,19,5.2,17.8,5z M17.3,9.5c0,0.5,0,2-1.3,2c-1.3,0-1.3-1.5-1.3-2c0-0.5,0-2,1.3-2C17.3,7.5,17.3,9,17.3,9.5z M12,10.4
			c-0.2,0-0.4-0.1-0.4-0.3c-0.1-0.2-0.1-0.4,0-0.5l1.3-1.9c0.1-0.2,0.4-0.3,0.6-0.2c0.2,0.1,0.4,0.3,0.4,0.5v1.4
			C13.9,9.5,14,9.7,14,9.9c0,0.2-0.1,0.3-0.2,0.4v0.6c0,0.3-0.2,0.5-0.5,0.5s-0.5-0.2-0.5-0.5v-0.6L12,10.4L12,10.4z M10.8,9
			c-0.1,0-0.2-0.1-0.2-0.2c0-0.1,0.1-0.2,0.2-0.2c0.1,0,0.2,0.1,0.2,0.2C11,8.9,10.9,9,10.8,9z M11,10.2c0,0.1-0.1,0.2-0.2,0.2
			c-0.1,0-0.2-0.1-0.2-0.2c0-0.1,0.1-0.2,0.2-0.2C10.9,10,11,10.1,11,10.2z M8.2,10.3C7.5,10.3,7,9.7,7,8.9c0-0.8,0.5-1.4,1.3-1.4
			c0.8,0,1.3,0.6,1.3,1.4v0.8c0,1.1-0.6,1.8-1.6,1.8c-0.3,0-0.5-0.2-0.5-0.5c0-0.3,0.2-0.5,0.5-0.5c0.1,0,0.4,0,0.5-0.3
			C8.3,10.2,8.3,10.3,8.2,10.3z M18,16.5c0,0.3-0.2,0.5-0.5,0.5h-11C6.2,17,6,16.8,6,16.5v-3C6,13.2,6.2,13,6.5,13h11
			c0.3,0,0.5,0.2,0.5,0.5V16.5z"/>
		<path d="M17,0.5C17,0.2,16.8,0,16.5,0h-9C7.2,0,7,0.2,7,0.5V3h10V0.5z"/>
		<path d="M7,23.5C7,23.8,7.2,24,7.5,24h9c0.3,0,0.5-0.2,0.5-0.5V21H7V23.5z"/>
	</g>
</g>
<g id="Outline_Icons">
	<g>
		<g>
			<path class="st2" d="M19.5,16.5c0,1.1-0.9,2-2,2h-11c-1.1,0-2-0.9-2-2v-9c0-1.1,0.9-2,2-2h11c1.1,0,2,0.9,2,2V16.5z"/>
			<polygon class="st2" points="16.5,3.5 7.5,3.5 6.5,5.5 17.5,5.5 			"/>
			<rect x="7.5" y="0.5" class="st2" width="9" height="3"/>
			<polygon class="st2" points="7.5,20.5 16.5,20.5 17.5,18.5 6.5,18.5 			"/>
			<rect x="7.5" y="20.5" class="st2" width="9" height="3"/>
			<rect x="6.5" y="13.5" class="st2" width="11" height="3"/>
		</g>
		<path class="st3" d="M16.8,9.5c0,0.8-0.1,1.5-0.8,1.5c-0.7,0-0.8-0.7-0.8-1.5C15.2,8.7,15.3,8,16,8C16.7,8,16.8,8.7,16.8,9.5z"/>
		<polyline class="st3" points="13.3,10.9 13.3,8 12,9.9 13.5,9.9 		"/>
		<g>
			<path class="st3" d="M8.2,9.8c-0.7,0-0.8-0.6-0.8-0.9C7.5,8.6,7.6,8,8.2,8C8.9,8,9,8.6,9,8.9C9,9.2,8.9,9.8,8.2,9.8z"/>
			<path class="st3" d="M7.9,11c1,0,1.1-0.8,1.1-1.3V8.9"/>
		</g>
		<g>
			<g>
				<path d="M10.8,8.5c-0.1,0-0.2,0.1-0.2,0.2c0,0.1,0.1,0.2,0.2,0.2C10.9,9,11,8.9,11,8.8C11,8.6,10.9,8.5,10.8,8.5L10.8,8.5z"/>
			</g>
		</g>
		<g>
			<g>
				<path d="M10.8,10c-0.1,0-0.2,0.1-0.2,0.2c0,0.1,0.1,0.2,0.2,0.2c0.1,0,0.2-0.1,0.2-0.2C11,10.1,10.9,10,10.8,10L10.8,10z"/>
			</g>
		</g>
	</g>
</g>
</svg>
