<?xml version="1.0" encoding="utf-8"?>
<!-- Generator: Adobe Illustrator 19.2.0, SVG Export Plug-In . SVG Version: 6.00 Build 0)  -->
<svg version="1.1" id="Layer_1" xmlns="http://www.w3.org/2000/svg" xmlns:xlink="http://www.w3.org/1999/xlink" x="0px" y="0px"
	 viewBox="0 0 24 24" style="enable-background:new 0 0 24 24;" xml:space="preserve">
<style type="text/css">
	.st0{display:none;}
	.st1{display:inline;}
	.st2{fill:none;stroke:#000000;stroke-linecap:round;stroke-linejoin:round;stroke-miterlimit:10;}
</style>
<g id="Filled_Icons" class="st0">
	<g class="st1">
		<g>
			<polygon points="8,14 7,14 6,14 5,14 5,16 6,16 7,16 8,16 			"/>
			<rect x="6" y="17" width="1" height="1.5"/>
			<path d="M22.8,14.5h-1c1,0,1-2,0-2h-2c1.7,0,1.7-2,0-2H17h-2h-1.2c-2.8,0-4.2,1-4.2,1H8V13h0.5C8.8,13,9,13.2,9,13.5v3
				C9,16.8,8.8,17,8.5,17H8v1.5h1.5c0,0,2.2,2,4.2,2c0.6,0,1.6,0,3,0c0.8,0,1.8-0.7,1.8-1.5v-0.5h3.2c1.7,0,1.7-2,0-2h1
				C23.7,16.5,23.7,14.5,22.8,14.5z"/>
			<path d="M5,17H4.5C4.2,17,4,16.8,4,16.5v-3C4,13.2,4.2,13,4.5,13H5v-1.5H0.5v7H5V17z"/>
			<rect x="6" y="11.5" width="1" height="1.5"/>
		</g>
		<g>
			<path d="M11.7,4.5c-0.1,0-0.2,0-0.3-0.1c-2.6-1.8-6.2-1.8-8.9,0C2.3,4.6,2,4.6,1.9,4.3C1.7,4.1,1.8,3.8,2,3.6c3-2,7-2,10,0
				c0.2,0.2,0.3,0.5,0.1,0.7C12,4.5,11.9,4.5,11.7,4.5z"/>
		</g>
		<g>
			<path d="M10.6,6.2c-0.1,0-0.2,0-0.3-0.1c-2-1.3-4.7-1.3-6.7,0C3.4,6.3,3.1,6.2,3,6C2.8,5.8,2.9,5.5,3.1,5.3
				c2.3-1.5,5.5-1.5,7.8,0C11.1,5.5,11.2,5.8,11,6C10.9,6.1,10.8,6.2,10.6,6.2z"/>
		</g>
		<g>
			<path d="M9.5,7.9c-0.1,0-0.2,0-0.3-0.1c-1.3-0.9-3.1-0.9-4.4,0C4.6,7.9,4.2,7.9,4.1,7.7C3.9,7.4,4,7.1,4.2,7
				c1.6-1.1,3.9-1.1,5.5,0c0.2,0.2,0.3,0.5,0.1,0.7C9.8,7.8,9.7,7.9,9.5,7.9z"/>
		</g>
	</g>
</g>
<g id="Outline_Icons">
	<g>
		<g>
			<path class="st2" d="M15,18.5h6.8c1.7,0,1.7-2,0-2H18"/>
			<path class="st2" d="M17,10.5h-3.2c-2.8,0-4.2,1-4.2,1h-9v7h9c0,0,2.2,2,4.2,2c0.6,0,1.6,0,3,0c0.8,0,1.8-0.7,1.8-1.5v-0.5"/>
			<path class="st2" d="M19,16.5h3.8c0.9,0,0.9-2,0-2H19"/>
			<path class="st2" d="M18,14.5h3.8c1,0,1-2,0-2H18"/>
			<path class="st2" d="M17,12.5h2.8c1.7,0,1.7-2,0-2H15"/>
		</g>
		<rect x="4.5" y="13.5" class="st2" width="4" height="3"/>
		<line class="st2" x1="7.5" y1="11.5" x2="7.5" y2="13.5"/>
		<line class="st2" x1="7.5" y1="16.5" x2="7.5" y2="18.5"/>
		<line class="st2" x1="5.5" y1="11.5" x2="5.5" y2="13.5"/>
		<line class="st2" x1="5.5" y1="16.5" x2="5.5" y2="18.5"/>
		<path class="st2" d="M11.7,4c-1.3-0.9-3-1.4-4.7-1.4C5.3,2.6,3.6,3.1,2.3,4"/>
		<path class="st2" d="M10.6,5.7C9.6,5,8.3,4.6,7,4.6C5.7,4.6,4.4,5,3.4,5.7"/>
		<path class="st2" d="M9.5,7.4C8.8,6.9,7.9,6.6,7,6.6c-0.9,0-1.8,0.3-2.5,0.8"/>
	</g>
</g>
</svg>
