<?xml version="1.0" encoding="utf-8"?>
<!-- Generator: Adobe Illustrator 19.2.0, SVG Export Plug-In . SVG Version: 6.00 Build 0)  -->
<svg version="1.1" id="Layer_1" xmlns="http://www.w3.org/2000/svg" xmlns:xlink="http://www.w3.org/1999/xlink" x="0px" y="0px"
	 viewBox="0 0 24 24" style="enable-background:new 0 0 24 24;" xml:space="preserve">
<style type="text/css">
	.st0{display:none;}
	.st1{display:inline;}
	.st2{fill:none;stroke:#000000;stroke-linejoin:round;stroke-miterlimit:10;}
	.st3{fill:none;stroke:#000000;stroke-linecap:round;stroke-linejoin:round;stroke-miterlimit:10;}
</style>
<g id="Filled_Icon" class="st0">
	<g class="st1">
		<path d="M17.5,4h-11C5.7,4,5,4.7,5,5.5v17C5,23.3,5.7,24,6.5,24h11c0.8,0,1.5-0.7,1.5-1.5v-17C19,4.7,18.3,4,17.5,4z M17,20.5
			c0,0.3-0.2,0.5-0.5,0.5h-9C7.2,21,7,20.8,7,20.5v-13C7,7.2,7.2,7,7.5,7h9C16.8,7,17,7.2,17,7.5V20.5z"/>
		<circle cx="12" cy="12" r="3"/>
		<g>
			<rect x="11" y="16" width="1" height="2"/>
		</g>
		<g>
			<rect x="9" y="16" width="1" height="2"/>
		</g>
		<g>
			<polygon points="13.5,16 13.5,18 15,17 			"/>
		</g>
		<g>
			<path d="M2.5,5C2.2,5,2,4.8,2,4.5C2,3.1,3.1,2,4.5,2C4.8,2,5,2.2,5,2.5S4.8,3,4.5,3C3.7,3,3,3.7,3,4.5C3,4.8,2.8,5,2.5,5z"/>
		</g>
		<g>
			<path d="M0.5,5C0.2,5,0,4.8,0,4.5C0,2,2,0,4.5,0C4.8,0,5,0.2,5,0.5S4.8,1,4.5,1C2.6,1,1,2.6,1,4.5C1,4.8,0.8,5,0.5,5z"/>
		</g>
		<g>
			<path d="M21.5,5C21.2,5,21,4.8,21,4.5C21,3.7,20.3,3,19.5,3C19.2,3,19,2.8,19,2.5S19.2,2,19.5,2C20.9,2,22,3.1,22,4.5
				C22,4.8,21.8,5,21.5,5z"/>
		</g>
		<g>
			<path d="M23.5,5C23.2,5,23,4.8,23,4.5C23,2.6,21.4,1,19.5,1C19.2,1,19,0.8,19,0.5S19.2,0,19.5,0C22,0,24,2,24,4.5
				C24,4.8,23.8,5,23.5,5z"/>
		</g>
	</g>
</g>
<g id="Outline_Icons">
	<g>
		<path class="st2" d="M18.5,5.5c0-0.6-0.4-1-1-1h-11c-0.6,0-1,0.4-1,1v17c0,0.6,0.4,1,1,1h11c0.6,0,1-0.4,1-1V5.5z"/>
		<rect x="7.5" y="7.5" class="st2" width="9" height="13"/>
		<circle class="st2" cx="12" cy="12" r="2.5"/>
		<line class="st2" x1="11.5" y1="18" x2="11.5" y2="16"/>
		<line class="st2" x1="9.5" y1="18" x2="9.5" y2="16"/>
		<g>
			<polygon points="13.5,16 13.5,18 15,17 			"/>
		</g>
		<path class="st3" d="M2.5,4.5c0-1.1,0.9-2,2-2"/>
		<path class="st3" d="M0.5,4.5c0-2.2,1.8-4,4-4"/>
		<path class="st3" d="M21.5,4.5c0-1.1-0.9-2-2-2"/>
		<path class="st3" d="M23.5,4.5c0-2.2-1.8-4-4-4"/>
	</g>
</g>
</svg>
