<?xml version="1.0" encoding="utf-8"?>
<!-- Generator: Adobe Illustrator 19.2.0, SVG Export Plug-In . SVG Version: 6.00 Build 0)  -->
<svg version="1.1" id="Layer_1" xmlns="http://www.w3.org/2000/svg" xmlns:xlink="http://www.w3.org/1999/xlink" x="0px" y="0px"
	 viewBox="0 0 24 24" style="enable-background:new 0 0 24 24;" xml:space="preserve">
<style type="text/css">
	.st0{display:none;}
	.st1{display:inline;}
	.st2{fill:none;stroke:#000000;stroke-linecap:round;stroke-linejoin:round;stroke-miterlimit:10;}
</style>
<g id="Filled_Icons" class="st0">
	<path class="st1" d="M16.5,0h-9C6.1,0,5,1.1,5,2.5V4v16v1.5C5,22.9,6.1,24,7.5,24h9c1.4,0,2.5-1.1,2.5-2.5V20V4V2.5
		C19,1.1,17.9,0,16.5,0z M9.5,2h5C14.8,2,15,2.2,15,2.5C15,2.8,14.8,3,14.5,3h-5C9.2,3,9,2.8,9,2.5C9,2.2,9.2,2,9.5,2z M12,22.5
		c-0.6,0-1-0.4-1-1c0-0.6,0.4-1,1-1c0.6,0,1,0.4,1,1C13,22.1,12.6,22.5,12,22.5z M18,19H6V5h12V19z"/>
</g>
<g id="Outline_Icons">
	<g>
		<path class="st2" d="M19.5,21.5c0,1.1-0.9,2-2,2h-11c-1.1,0-2-0.9-2-2v-19c0-1.1,0.9-2,2-2h11c1.1,0,2,0.9,2,2V21.5z"/>
		<line class="st2" x1="19.5" y1="4.5" x2="4.5" y2="4.5"/>
		<line class="st2" x1="19.5" y1="19.5" x2="4.5" y2="19.5"/>
		<line class="st2" x1="9.5" y1="2.5" x2="14.5" y2="2.5"/>
		<circle class="st2" cx="12" cy="21.5" r="0.5"/>
	</g>
</g>
</svg>
