<?xml version="1.0" encoding="utf-8"?>
<!-- Generator: Adobe Illustrator 19.2.0, SVG Export Plug-In . SVG Version: 6.00 Build 0)  -->
<svg version="1.1" id="Layer_1" xmlns="http://www.w3.org/2000/svg" xmlns:xlink="http://www.w3.org/1999/xlink" x="0px" y="0px"
	 viewBox="0 0 24 24" style="enable-background:new 0 0 24 24;" xml:space="preserve">
<style type="text/css">
	.st0{display:none;}
	.st1{display:inline;}
	.st2{fill:none;stroke:#000000;stroke-linecap:round;stroke-linejoin:round;stroke-miterlimit:10;}
	.st3{fill:none;stroke:#000000;stroke-linejoin:round;stroke-miterlimit:10;}
</style>
<g id="Filled_Icon" class="st0">
	<g class="st1">
		<path d="M18,6.4c-0.5,0-0.9,0.4-1,1.1c-0.1,0.2-0.3,0.4-0.5,0.4S16.1,7.7,16,7.5c-0.2-0.7-0.5-1.1-1-1.1s-1,0.4-1,1.1
			c0,0.9,1.4,2.3,2.5,3.1c1-0.8,2.5-2.2,2.5-3.1C19,6.8,18.5,6.4,18,6.4z"/>
		<path d="M12,0C5.4,0,0,5.4,0,12s5.4,12,12,12s12-5.4,12-12S18.6,0,12,0z M6,5.4c0.5,0,1.1,0.2,1.5,0.8c0.4-0.6,1-0.8,1.5-0.8
			c1,0,2,0.8,2,2.1c0,1.8-2.9,3.9-3.2,4.2c-0.1,0.1-0.2,0.1-0.3,0.1c-0.1,0-0.2,0-0.3-0.1C6.8,11.4,4,9.3,4,7.5C4,6.1,5,5.4,6,5.4z
			 M18.9,15.2c-1.4,2.5-4,4-6.9,4c-3,0-5.6-1.5-7-4c-0.1-0.2,0-0.5,0.2-0.7c0.2-0.1,0.5,0,0.7,0.2c1.2,2.2,3.4,3.5,6.1,3.5
			c2.6,0,4.8-1.3,6-3.5c0.1-0.2,0.4-0.3,0.7-0.2C19,14.7,19.1,15,18.9,15.2z M16.8,11.7c-0.1,0.1-0.2,0.1-0.3,0.1
			c-0.1,0-0.2,0-0.3-0.1C15.8,11.4,13,9.3,13,7.5c0-1.3,1-2.1,2-2.1c0.5,0,1.1,0.2,1.5,0.8c0.4-0.6,1-0.8,1.5-0.8c1,0,2,0.8,2,2.1
			C20,9.3,17.1,11.4,16.8,11.7z"/>
		<path d="M7.5,10.6c1-0.8,2.5-2.2,2.5-3.1c0-0.7-0.5-1.1-1-1.1S8.1,6.8,8,7.5C7.9,7.6,7.7,7.8,7.5,7.8C7.2,7.8,7,7.6,7,7.4
			c-0.2-0.6-0.6-1-1-1c-0.5,0-1,0.4-1,1.1C5,8.4,6.4,9.8,7.5,10.6z"/>
	</g>
</g>
<g id="Outline_Icons">
	<g>
		<circle class="st2" cx="12" cy="12" r="11.5"/>
		<path class="st3" d="M7.5,11.2c0,0,3-2.2,3-3.8c0-1.8-2.5-2.4-3-0.2C7,5,4.5,5.5,4.5,7.4C4.5,9.1,7.5,11.2,7.5,11.2z"/>
		<path class="st3" d="M16.5,11.2c0,0,3-2.2,3-3.8c0-1.8-2.5-2.4-3-0.2c-0.5-2.2-3-1.7-3,0.2C13.5,9.1,16.5,11.2,16.5,11.2z"/>
		<path class="st2" d="M18.5,15c-1.3,2.3-3.7,3.7-6.5,3.7S6.7,17.4,5.5,15"/>
	</g>
</g>
</svg>
