<?xml version="1.0" encoding="utf-8"?>
<!-- Generator: Adobe Illustrator 19.2.0, SVG Export Plug-In . SVG Version: 6.00 Build 0)  -->
<svg version="1.1" id="Layer_1" xmlns="http://www.w3.org/2000/svg" xmlns:xlink="http://www.w3.org/1999/xlink" x="0px" y="0px"
	 viewBox="0 0 24 24" style="enable-background:new 0 0 24 24;" xml:space="preserve">
<style type="text/css">
	.st0{display:none;}
	.st1{display:inline;}
	.st2{fill:none;stroke:#000000;stroke-linecap:round;stroke-linejoin:round;stroke-miterlimit:10;}
</style>
<g id="Filled_Icon" class="st0">
	<g class="st1">
		<path d="M12,0C5.4,0,0,5.4,0,12s5.4,12,12,12s12-5.4,12-12S18.6,0,12,0z M15.5,6.5c1.1,0,2,0.9,2,2s-0.9,2-2,2s-2-0.9-2-2
			S14.4,6.5,15.5,6.5z M17.1,13.4l-2.2,2.2c-0.1,0.1-0.2,0.1-0.4,0.1c-0.1,0-0.3,0-0.4-0.1c-0.2-0.2-0.2-0.5,0-0.7l2.2-2.2
			c0.2-0.2,0.5-0.2,0.7,0C17.3,12.8,17.3,13.2,17.1,13.4z M8.5,6.5c1.1,0,2,0.9,2,2s-0.9,2-2,2s-2-0.9-2-2S7.4,6.5,8.5,6.5z
			 M4.3,15.7c-0.1,0-0.3,0-0.4-0.1c-0.2-0.2-0.2-0.5,0-0.7l2.2-2.2c0.2-0.2,0.5-0.2,0.7,0s0.2,0.5,0,0.7l-2.2,2.2
			C4.5,15.7,4.4,15.7,4.3,15.7z M7.3,15.7c-0.1,0-0.3,0-0.4-0.1c-0.2-0.2-0.2-0.5,0-0.7l2.2-2.2c0.2-0.2,0.5-0.2,0.7,0
			s0.2,0.5,0,0.7l-2.2,2.2C7.5,15.7,7.4,15.7,7.3,15.7z M15.5,18.7C15.4,18.9,15.2,19,15,19c-0.1,0-0.1,0-0.2,0L12,18l-2.8,1
			c-0.3,0.1-0.5-0.1-0.6-0.3c-0.1-0.3,0.1-0.5,0.3-0.6l3-1c0.1,0,0.2,0,0.3,0l3,1C15.4,18.1,15.6,18.4,15.5,18.7z M20.1,13.4
			l-2.2,2.2c-0.1,0.1-0.2,0.1-0.4,0.1c-0.1,0-0.3,0-0.4-0.1c-0.2-0.2-0.2-0.5,0-0.7l2.2-2.2c0.2-0.2,0.5-0.2,0.7,0
			C20.3,12.8,20.3,13.2,20.1,13.4z"/>
		<circle cx="8.5" cy="8.5" r="1"/>
		<circle cx="15.5" cy="8.5" r="1"/>
	</g>
</g>
<g id="Outline_Icons">
	<g>
		<line class="st2" x1="4.3" y1="15.2" x2="6.5" y2="13"/>
		<line class="st2" x1="7.3" y1="15.2" x2="9.5" y2="13"/>
		<line class="st2" x1="14.5" y1="15.2" x2="16.7" y2="13"/>
		<line class="st2" x1="17.5" y1="15.2" x2="19.7" y2="13"/>
		<polyline class="st2" points="9,18.5 12,17.5 15,18.5 		"/>
		<g>
			<circle class="st2" cx="8.5" cy="8.5" r="1.5"/>
			<circle class="st2" cx="15.5" cy="8.5" r="1.5"/>
		</g>
		<circle class="st2" cx="12" cy="12" r="11.5"/>
	</g>
</g>
</svg>
