<?xml version="1.0" encoding="utf-8"?>
<!-- Generator: Adobe Illustrator 19.2.0, SVG Export Plug-In . SVG Version: 6.00 Build 0)  -->
<svg version="1.1" id="Layer_1" xmlns="http://www.w3.org/2000/svg" xmlns:xlink="http://www.w3.org/1999/xlink" x="0px" y="0px"
	 viewBox="0 0 24 24" style="enable-background:new 0 0 24 24;" xml:space="preserve">
<style type="text/css">
	.st0{display:none;}
	.st1{display:inline;}
	.st2{fill:none;stroke:#000000;stroke-linecap:round;stroke-linejoin:round;stroke-miterlimit:10;}
</style>
<g id="Filled_Icon" class="st0">
	<g class="st1">
		<path d="M10,16.9c0.2,1.2,1.2,2.1,2.5,2.1c1.4,0,2.5-1.1,2.5-2.5v-0.6c-1.2,0.7-2.6,1.1-4,1.1C10.7,17,10.4,17,10,16.9z"/>
		<path d="M12,0C5.4,0,0,5.4,0,12s5.4,12,12,12s12-5.4,12-12S18.6,0,12,0z M6,10c0,0.3-0.2,0.5-0.5,0.5S5,10.3,5,10
			c0-1.4,1.1-2.5,2.5-2.5S10,8.6,10,10c0,0.3-0.2,0.5-0.5,0.5S9,10.3,9,10c0-0.8-0.7-1.5-1.5-1.5S6,9.2,6,10z M18.4,14.9
			C18.3,15,18.1,15,18,15s-0.3,0-0.4-0.1L17,14.2c-0.3,0.4-0.7,0.7-1,1v1.3c0,1.9-1.6,3.5-3.5,3.5c-1.8,0-3.4-1.4-3.5-3.3
			c-0.8-0.2-1.6-0.5-2.3-1c-0.2-0.1-0.3-0.5-0.2-0.7c0.1-0.2,0.5-0.3,0.7-0.2C8.4,15.6,9.7,16,11,16c2.1,0,4-0.9,5.3-2.5l-0.7-0.7
			c-0.2-0.2-0.2-0.5,0-0.7s0.5-0.2,0.7,0l2,2C18.5,14.3,18.5,14.7,18.4,14.9z M18.5,10.5c-0.3,0-0.5-0.2-0.5-0.5
			c0-0.8-0.7-1.5-1.5-1.5C15.7,8.5,15,9.2,15,10c0,0.3-0.2,0.5-0.5,0.5S14,10.3,14,10c0-1.4,1.1-2.5,2.5-2.5S19,8.6,19,10
			C19,10.3,18.8,10.5,18.5,10.5z"/>
	</g>
</g>
<g id="Outline_Icons">
	<g>
		<circle class="st2" cx="12" cy="12" r="11.5"/>
		<path class="st2" d="M17,13.5c-1.4,1.8-3.5,3-6,3c-1.5,0-2.9-0.4-4-1.2"/>
		<path class="st2" d="M5.5,10c0-1.1,0.9-2,2-2s2,0.9,2,2"/>
		<path class="st2" d="M18.5,10c0-1.1-0.9-2-2-2s-2,0.9-2,2"/>
		<path class="st2" d="M9.5,16.3v0.2c0,1.7,1.3,3,3,3s3-1.3,3-3V15"/>
		<line class="st2" x1="16" y1="12.5" x2="18" y2="14.5"/>
	</g>
</g>
</svg>
