<?xml version="1.0" encoding="utf-8"?>
<!-- Generator: Adobe Illustrator 19.2.0, SVG Export Plug-In . SVG Version: 6.00 Build 0)  -->
<svg version="1.1" id="Layer_1" xmlns="http://www.w3.org/2000/svg" xmlns:xlink="http://www.w3.org/1999/xlink" x="0px" y="0px"
	 viewBox="0 0 24 24" style="enable-background:new 0 0 24 24;" xml:space="preserve">
<style type="text/css">
	.st0{display:none;}
	.st1{display:inline;}
	.st2{fill:none;stroke:#000000;stroke-linecap:round;stroke-linejoin:round;stroke-miterlimit:10;}
</style>
<g id="Filled_Icon" class="st0">
	<g class="st1">
		<path d="M18,12.8c0,0.6,0.4,1,1,1s1-0.4,1-1c0-0.3-0.5-1.1-1-1.9C18.5,11.6,18,12.4,18,12.8z"/>
		<circle cx="8.5" cy="8.5" r="1"/>
		<circle cx="15.5" cy="8.5" r="1"/>
		<path d="M12,0C5.4,0,0,5.4,0,12s5.4,12,12,12s12-5.4,12-12S18.6,0,12,0z M15.5,6.5c1.1,0,2,0.9,2,2s-0.9,2-2,2s-2-0.9-2-2
			S14.4,6.5,15.5,6.5z M8.5,6.5c1.1,0,2,0.9,2,2s-0.9,2-2,2s-2-0.9-2-2S7.4,6.5,8.5,6.5z M18.8,18.5c-0.2,0.1-0.5,0-0.7-0.2
			c-1.2-2.2-3.5-3.5-6.1-3.5s-4.8,1.3-6.1,3.5c-0.1,0.2-0.3,0.3-0.4,0.3s-0.2,0-0.2-0.1C5,18.3,4.9,18,5.1,17.8c1.4-2.5,4-4,6.9-4
			c3,0,5.6,1.5,7,4C19.1,18,19,18.3,18.8,18.5z M19,14.8c-1.1,0-2-0.9-2-2c0-1,1.3-2.7,1.6-3.1c0.2-0.2,0.6-0.2,0.8,0
			c0.3,0.3,1.6,2.1,1.6,3.1C21,13.9,20.1,14.8,19,14.8z"/>
	</g>
</g>
<g id="Outline_Icons">
	<g>
		<path class="st2" d="M20.5,12.8c0,0.8-0.7,1.5-1.5,1.5s-1.5-0.7-1.5-1.5S19,10,19,10S20.5,11.9,20.5,12.8z"/>
		<circle class="st2" cx="8.5" cy="8.5" r="1.5"/>
		<circle class="st2" cx="15.5" cy="8.5" r="1.5"/>
		<path class="st2" d="M5.5,18c1.3-2.3,3.7-3.7,6.5-3.7s5.3,1.3,6.6,3.7"/>
		<circle class="st2" cx="12" cy="12" r="11.5"/>
		<path class="st2" d="M5.5,18c1.3-2.3,3.7-3.7,6.5-3.7s5.3,1.3,6.6,3.7"/>
		<circle class="st2" cx="12" cy="12" r="11.5"/>
	</g>
</g>
</svg>
