<?xml version="1.0" encoding="utf-8"?>
<!-- Generator: Adobe Illustrator 19.2.0, SVG Export Plug-In . SVG Version: 6.00 Build 0)  -->
<svg version="1.1" id="Layer_1" xmlns="http://www.w3.org/2000/svg" xmlns:xlink="http://www.w3.org/1999/xlink" x="0px" y="0px"
	 viewBox="0 0 24 24" style="enable-background:new 0 0 24 24;" xml:space="preserve">
<style type="text/css">
	.st0{display:none;}
	.st1{display:inline;}
	.st2{fill:none;stroke:#000000;stroke-linecap:round;stroke-linejoin:round;stroke-miterlimit:10;}
</style>
<g id="Filled_Icon" class="st0">
	<g class="st1">
		<circle cx="15.5" cy="8.5" r="1"/>
		<circle cx="8.5" cy="8.5" r="1"/>
		<path d="M12,0C5.4,0,0,5.4,0,12s5.4,12,12,12s12-5.4,12-12S18.6,0,12,0z M15.5,6.5c1.1,0,2,0.9,2,2s-0.9,2-2,2s-2-0.9-2-2
			S14.4,6.5,15.5,6.5z M8.5,6.5c1.1,0,2,0.9,2,2s-0.9,2-2,2s-2-0.9-2-2S7.4,6.5,8.5,6.5z M19.5,17H19v0.5c0,0.3-0.2,0.5-0.5,0.5
			S18,17.8,18,17.5V17h-1v0.5c0,0.3-0.2,0.5-0.5,0.5S16,17.8,16,17.5V17h-1v0.5c0,0.3-0.2,0.5-0.5,0.5S14,17.8,14,17.5V17h-1v0.5
			c0,0.3-0.2,0.5-0.5,0.5S12,17.8,12,17.5V17h-1v0.5c0,0.3-0.2,0.5-0.5,0.5S10,17.8,10,17.5V17H9v0.5C9,17.8,8.8,18,8.5,18
			S8,17.8,8,17.5V17H7v0.5C7,17.8,6.8,18,6.5,18S6,17.8,6,17.5V17H5.5C5.2,17,5,16.8,5,16.5S5.2,16,5.5,16H6v-0.5
			C6,15.2,6.2,15,6.5,15S7,15.2,7,15.5V16h1v-0.5C8,15.2,8.2,15,8.5,15S9,15.2,9,15.5V16h1v-0.5c0-0.3,0.2-0.5,0.5-0.5
			s0.5,0.2,0.5,0.5V16h1v-0.5c0-0.3,0.2-0.5,0.5-0.5s0.5,0.2,0.5,0.5V16h1v-0.5c0-0.3,0.2-0.5,0.5-0.5s0.5,0.2,0.5,0.5V16h1v-0.5
			c0-0.3,0.2-0.5,0.5-0.5s0.5,0.2,0.5,0.5V16h1v-0.5c0-0.3,0.2-0.5,0.5-0.5s0.5,0.2,0.5,0.5V16h0.5c0.3,0,0.5,0.2,0.5,0.5
			S19.8,17,19.5,17z"/>
	</g>
</g>
<g id="Outline_Icons">
	<g>
		<line class="st2" x1="5.5" y1="16.5" x2="19.5" y2="16.5"/>
		<line class="st2" x1="6.5" y1="15.5" x2="6.5" y2="17.5"/>
		<line class="st2" x1="8.5" y1="15.5" x2="8.5" y2="17.5"/>
		<line class="st2" x1="10.5" y1="15.5" x2="10.5" y2="17.5"/>
		<line class="st2" x1="12.5" y1="15.5" x2="12.5" y2="17.5"/>
		<line class="st2" x1="14.5" y1="15.5" x2="14.5" y2="17.5"/>
		<line class="st2" x1="16.5" y1="15.5" x2="16.5" y2="17.5"/>
		<line class="st2" x1="18.5" y1="15.5" x2="18.5" y2="17.5"/>
		<circle class="st2" cx="8.5" cy="8.5" r="1.5"/>
		<circle class="st2" cx="15.5" cy="8.5" r="1.5"/>
		<circle class="st2" cx="12" cy="12" r="11.5"/>
	</g>
</g>
</svg>
