<?xml version="1.0" encoding="utf-8"?>
<!-- Generator: Adobe Illustrator 19.2.0, SVG Export Plug-In . SVG Version: 6.00 Build 0)  -->
<svg version="1.1" id="Layer_1" xmlns="http://www.w3.org/2000/svg" xmlns:xlink="http://www.w3.org/1999/xlink" x="0px" y="0px"
	 viewBox="0 0 24 24" style="enable-background:new 0 0 24 24;" xml:space="preserve">
<style type="text/css">
	.st0{display:none;}
	.st1{display:inline;}
	.st2{fill:none;stroke:#000000;stroke-linecap:round;stroke-linejoin:round;stroke-miterlimit:10;}
</style>
<g id="Filled_Icon" class="st0">
	<path class="st1" d="M12,0C5.4,0,0,5.4,0,12s5.4,12,12,12s12-5.4,12-12S18.6,0,12,0z M5.6,6.9c0.2-0.2,0.5-0.2,0.7,0L9.4,10
		c0.2,0.2,0.2,0.5,0,0.7c-0.1,0.1-0.2,0.1-0.4,0.1c-0.1,0-0.3,0-0.4-0.1l-3-3.1C5.4,7.4,5.4,7.1,5.6,6.9z M17.9,17.4
		c-0.2,0.2-0.5,0.1-0.7-0.1L16,15.6L14.4,18c-0.1,0.1-0.2,0.2-0.4,0.2l0,0c-0.2,0-0.3-0.1-0.4-0.2L12,15.6L10.4,18
		c-0.1,0.1-0.2,0.2-0.4,0.2S9.7,18.1,9.6,18L8,15.6l-1.2,1.7c-0.2,0.2-0.5,0.3-0.7,0.1c-0.2-0.2-0.3-0.5-0.1-0.7l1.6-2.3
		c0.1-0.1,0.3-0.2,0.4-0.2c0.2,0,0.3,0.1,0.4,0.2l1.6,2.4l1.6-2.4c0.1-0.1,0.2-0.2,0.4-0.2s0.3,0.1,0.4,0.2l1.6,2.4l1.6-2.4
		c0.1-0.1,0.2-0.2,0.4-0.2l0,0c0.2,0,0.3,0.1,0.4,0.2l1.6,2.3C18.2,17,18.1,17.3,17.9,17.4z M18.4,7.6l-3.1,3.1
		c-0.1,0.1-0.2,0.1-0.4,0.1c-0.1,0-0.3,0-0.4-0.1c-0.2-0.2-0.2-0.5,0-0.7l3.1-3.1c0.2-0.2,0.5-0.2,0.7,0C18.6,7.1,18.6,7.4,18.4,7.6
		z"/>
</g>
<g id="Outline_Icons">
	<g>
		<polyline class="st2" points="6.4,17 8,14.7 10,17.7 12,14.7 14,17.7 16,14.7 17.6,17 		"/>
		<circle class="st2" cx="12" cy="12" r="11.5"/>
		<line class="st2" x1="15" y1="10.3" x2="18" y2="7.2"/>
		<line class="st2" x1="9" y1="10.3" x2="6" y2="7.2"/>
	</g>
</g>
</svg>
