<?xml version="1.0" encoding="utf-8"?>
<!-- Generator: Adobe Illustrator 19.2.0, SVG Export Plug-In . SVG Version: 6.00 Build 0)  -->
<svg version="1.1" id="Layer_1" xmlns="http://www.w3.org/2000/svg" xmlns:xlink="http://www.w3.org/1999/xlink" x="0px" y="0px"
	 viewBox="0 0 24 24" style="enable-background:new 0 0 24 24;" xml:space="preserve">
<style type="text/css">
	.st0{display:none;}
	.st1{display:inline;}
	.st2{fill:none;stroke:#000000;stroke-linecap:round;stroke-linejoin:round;stroke-miterlimit:10;}
	.st3{fill:none;stroke:#000000;stroke-linejoin:round;stroke-miterlimit:10;}
</style>
<g id="Filled_Icon" class="st0">
	<g class="st1">
		<path d="M7,8.3C6.9,8.6,6.7,8.8,6.5,9S6,9.4,5.8,9.5c0.5,0.3,0.9,0.7,1.2,1.2c0.1-0.3,0.3-0.5,0.5-0.7s0.4-0.4,0.7-0.5
			C7.7,9.2,7.3,8.8,7,8.3z"/>
		<path d="M17,8.3c-0.1,0.3-0.3,0.5-0.5,0.7s-0.4,0.4-0.7,0.5c0.5,0.3,0.9,0.7,1.2,1.2c0.1-0.3,0.3-0.5,0.5-0.7s0.4-0.4,0.7-0.5
			C17.7,9.2,17.3,8.8,17,8.3z"/>
		<path d="M12,0C5.4,0,0,5.4,0,12s5.4,12,12,12s12-5.4,12-12S18.6,0,12,0z M10.5,10C10.5,10,10.4,10,10.5,10c-1.1,0-1.8,0.2-2.3,0.7
			s-0.7,1.2-0.7,2.2c0,0.3-0.2,0.5-0.5,0.5l0,0c-0.2,0-0.5-0.2-0.5-0.4l0,0v-0.1c0-2-1-2.9-3-2.9C3.2,10,3,9.8,3,9.5S3.2,9,3.5,9
			l0,0l0,0c1,0,1.8-0.2,2.3-0.7s0.7-1.2,0.7-2.2V6c0-0.3,0.2-0.5,0.5-0.5l0,0c0.3,0,0.5,0.2,0.5,0.5l0,0l0,0l0,0c0,2,1,2.9,2.9,2.9
			C10.7,9,11,9.2,11,9.5S10.8,10,10.5,10L10.5,10L10.5,10L10.5,10L10.5,10L10.5,10L10.5,10L10.5,10L10.5,10L10.5,10L10.5,10L10.5,10
			L10.5,10z M18.4,17.4c-0.1,0.1-0.2,0.1-0.4,0.1c-0.1,0-0.3,0-0.4-0.1L17.2,17c-1.6,1.9-3.9,3-6.2,3c-0.3,0-0.5-0.2-0.5-0.5
			S10.7,19,11,19c2.1,0,4.2-1.1,5.5-2.8l-0.9-0.9c-0.2-0.2-0.2-0.5,0-0.7s0.5-0.2,0.7,0l2,2C18.5,16.8,18.5,17.2,18.4,17.4z
			 M20.5,10L20.5,10L20.5,10L20.5,10L20.5,10L20.5,10L20.5,10L20.5,10L20.5,10L20.5,10L20.5,10L20.5,10L20.5,10
			C20.5,10,20.4,10,20.5,10c-1.1,0-1.9,0.2-2.3,0.7c-0.5,0.5-0.7,1.2-0.7,2.2c0,0.3-0.2,0.5-0.5,0.5l0,0c-0.2,0-0.5-0.2-0.5-0.4l0,0
			v-0.1c0-2-1-2.9-3-2.9C13.2,10,13,9.8,13,9.5S13.2,9,13.5,9l0,0l0,0c1,0,1.8-0.2,2.3-0.7c0.5-0.5,0.7-1.2,0.7-2.2V6
			c0-0.3,0.2-0.5,0.5-0.5l0,0c0.3,0,0.5,0.2,0.5,0.5l0,0l0,0l0,0c0,2,1,2.9,2.9,2.9C20.7,9,21,9.2,21,9.5S20.8,10,20.5,10z"/>
	</g>
</g>
<g id="Outline_Icons">
	<g>
		<path class="st2" d="M11,19.5c2.5,0,4.8-1.4,6.2-3.3"/>
		<circle class="st2" cx="12" cy="12" r="11.5"/>
		<path class="st3" d="M7,13c0-2.3-1.2-3.5-3.5-3.5C5.9,9.5,7,8.3,7,6c0,2.3,1.1,3.5,3.5,3.5C8.1,9.5,7,10.7,7,13z"/>
		<path class="st3" d="M17,13c0-2.3-1.2-3.5-3.5-3.5C15.9,9.5,17,8.3,17,6c0,2.3,1.1,3.5,3.5,3.5C18.1,9.5,17,10.7,17,13z"/>
		<line class="st2" x1="18" y1="17" x2="16" y2="15"/>
	</g>
</g>
</svg>
