<?xml version="1.0" encoding="utf-8"?>
<!-- Generator: Adobe Illustrator 19.2.0, SVG Export Plug-In . SVG Version: 6.00 Build 0)  -->
<svg version="1.1" id="Layer_1" xmlns="http://www.w3.org/2000/svg" xmlns:xlink="http://www.w3.org/1999/xlink" x="0px" y="0px"
	 viewBox="0 0 24 24" style="enable-background:new 0 0 24 24;" xml:space="preserve">
<style type="text/css">
	.st0{display:none;}
	.st1{display:inline;}
	.st2{fill:none;stroke:#000000;stroke-linecap:round;stroke-linejoin:round;stroke-miterlimit:10;}
</style>
<g id="Filled_Icon" class="st0">
	<g class="st1">
		<path d="M15,17c0,0.3-0.2,0.5-0.5,0.5S14,17.3,14,17v-1h-1v1.5c0,0.8,0.7,1.5,1.5,1.5s1.5-0.7,1.5-1.5V16h-1V17z"/>
		<path d="M12,0C5.4,0,0,5.4,0,12s5.4,12,12,12s12-5.4,12-12S18.6,0,12,0z M9.1,9.8c0.9,0,1.6-0.7,1.6-1.6c0-1.2-1-2.1-2.1-2.1
			C7,6.1,5.7,7.4,5.7,8.9c0,0.5,0.1,1,0.3,1.4c0.1,0.3,0,0.5-0.3,0.7c-0.1,0-0.1,0-0.2,0c-0.2,0-0.4-0.1-0.5-0.3
			c-0.2-0.6-0.4-1.2-0.4-1.8c0-2.1,1.7-3.8,3.8-3.8c1.7,0,3.1,1.4,3.1,3.1c0,1.4-1.2,2.6-2.6,2.6c-1.2,0-2.2-1-2.2-2.2
			c0-1,0.8-1.8,1.8-1.8C9,6.8,9.2,7,9.2,7.3S9,7.8,8.7,7.8c-0.5,0-0.8,0.4-0.8,0.8C7.9,9.3,8.4,9.8,9.1,9.8z M17,16v1.5
			c0,1.4-1.1,2.5-2.5,2.5S12,18.9,12,17.5V16H8c-0.3,0-0.5-0.2-0.5-0.5S7.7,15,8,15h4.5h4H17c0.3,0,0.5,0.2,0.5,0.5S17.3,16,17,16z
			 M17.1,10.8c-1.2,0-2.2-1-2.2-2.2c0-1,0.8-1.8,1.8-1.8c0.3,0,0.5,0.2,0.5,0.5S17,7.8,16.7,7.8c-0.5,0-0.8,0.4-0.8,0.8
			c0,0.6,0.5,1.2,1.2,1.2c0.9,0,1.6-0.7,1.6-1.6c0-1.2-1-2.1-2.1-2.1c-1.5,0-2.8,1.2-2.8,2.8c0,0.5,0.1,1,0.3,1.4
			c0.1,0.3,0,0.5-0.3,0.7c-0.1,0-0.1,0-0.2,0c-0.2,0-0.4-0.1-0.5-0.3c-0.2-0.6-0.4-1.2-0.4-1.8c0-2.1,1.7-3.8,3.8-3.8
			c1.7,0,3.1,1.4,3.1,3.1C19.7,9.7,18.5,10.8,17.1,10.8z"/>
	</g>
</g>
<g id="Outline_Icons">
	<g>
		<circle class="st2" cx="12" cy="12" r="11.5"/>
		<path class="st2" d="M5.6,10.5c-0.2-0.5-0.3-1-0.3-1.6c0-1.8,1.5-3.3,3.3-3.3c1.5,0,2.6,1.2,2.6,2.6c0,1.2-0.9,2.1-2.1,2.1
			c-0.9,0-1.7-0.8-1.7-1.7c0-0.7,0.6-1.3,1.3-1.3"/>
		<path class="st2" d="M13.6,10.5c-0.2-0.5-0.3-1-0.3-1.6c0-1.8,1.5-3.3,3.3-3.3c1.5,0,2.6,1.2,2.6,2.6c0,1.2-0.9,2.1-2.1,2.1
			c-0.9,0-1.7-0.8-1.7-1.7c0-0.7,0.6-1.3,1.3-1.3"/>
		<line class="st2" x1="8" y1="15.5" x2="17" y2="15.5"/>
		<path class="st2" d="M16.5,15.5h-4v2c0,1.1,0.9,2,2,2s2-0.9,2-2V15.5z"/>
		<line class="st2" x1="14.5" y1="15.5" x2="14.5" y2="17"/>
	</g>
</g>
</svg>
