<?xml version="1.0" encoding="utf-8"?>
<!-- Generator: Adobe Illustrator 19.2.0, SVG Export Plug-In . SVG Version: 6.00 Build 0)  -->
<svg version="1.1" id="Layer_1" xmlns="http://www.w3.org/2000/svg" xmlns:xlink="http://www.w3.org/1999/xlink" x="0px" y="0px"
	 viewBox="0 0 24 24" style="enable-background:new 0 0 24 24;" xml:space="preserve">
<style type="text/css">
	.st0{display:none;}
	.st1{display:inline;}
	.st2{fill:none;stroke:#000000;stroke-linecap:round;stroke-linejoin:round;stroke-miterlimit:10;}
</style>
<g id="Filled_Icon" class="st0">
	<g class="st1">
		<circle cx="15.2" cy="8.5" r="1"/>
		<path d="M12,0C5.4,0,0,5.4,0,12s5.4,12,12,12s12-5.4,12-12S18.6,0,12,0z M15.2,6.5c1.1,0,2,0.9,2,2s-0.9,2-2,2s-2-0.9-2-2
			C13.2,7.4,14.1,6.5,15.2,6.5z M8.2,6.5c1.1,0,2,0.9,2,2s-0.9,2-2,2s-2-0.9-2-2S7.1,6.5,8.2,6.5z M19,17H5c-0.3,0-0.5-0.2-0.5-0.5
			S4.7,16,5,16h14c0.3,0,0.5,0.2,0.5,0.5S19.3,17,19,17z"/>
		<circle cx="8.2" cy="8.5" r="1"/>
	</g>
</g>
<g id="Outline_Icons">
	<g>
		<circle class="st2" cx="8.2" cy="8.5" r="1.5"/>
		<circle class="st2" cx="15.2" cy="8.5" r="1.5"/>
		<circle class="st2" cx="12" cy="12" r="11.5"/>
		<line class="st2" x1="5" y1="16.5" x2="19" y2="16.5"/>
	</g>
</g>
</svg>
