<?xml version="1.0" encoding="utf-8"?>
<!-- Generator: Adobe Illustrator 19.2.0, SVG Export Plug-In . SVG Version: 6.00 Build 0)  -->
<svg version="1.1" id="Layer_1" xmlns="http://www.w3.org/2000/svg" xmlns:xlink="http://www.w3.org/1999/xlink" x="0px" y="0px"
	 viewBox="0 0 24 24" style="enable-background:new 0 0 24 24;" xml:space="preserve">
<style type="text/css">
	.st0{display:none;}
	.st1{display:inline;}
	.st2{fill:none;stroke:#000000;stroke-linecap:round;stroke-linejoin:round;stroke-miterlimit:10;}
</style>
<g id="Filled_Icon" class="st0">
	<path class="st1" d="M12,0C5.4,0,0,5.4,0,12s5.4,12,12,12s12-5.4,12-12S18.6,0,12,0z M14.6,9.9l3.1-3.1c0.2-0.2,0.5-0.2,0.7,0
		s0.2,0.5,0,0.7l-3.1,3.1c-0.1,0.1-0.2,0.1-0.4,0.1c-0.1,0-0.3,0-0.4-0.1C14.4,10.5,14.4,10.1,14.6,9.9z M5.6,6.9
		c0.2-0.2,0.5-0.2,0.7,0L9.4,10c0.2,0.2,0.2,0.5,0,0.7c-0.1,0.1-0.2,0.1-0.4,0.1c-0.1,0-0.3,0-0.4-0.1l-3-3.1
		C5.4,7.4,5.4,7.1,5.6,6.9z M18.8,18.5c-0.2,0.1-0.5,0-0.7-0.2c-1.2-2.2-3.5-3.5-6.1-3.5s-4.8,1.3-6.1,3.5c-0.1,0.2-0.3,0.3-0.4,0.3
		s-0.2,0-0.2-0.1C5,18.3,4.9,18,5.1,17.8c1.4-2.5,4-4,6.9-4c3,0,5.6,1.5,7,4C19.1,18,19,18.3,18.8,18.5z"/>
</g>
<g id="Outline_Icons">
	<g>
		<path class="st2" d="M5.5,18c1.3-2.3,3.7-3.7,6.5-3.7s5.3,1.3,6.6,3.7"/>
		<circle class="st2" cx="12" cy="12" r="11.5"/>
		<line class="st2" x1="15" y1="10.3" x2="18" y2="7.2"/>
		<line class="st2" x1="9" y1="10.3" x2="6" y2="7.2"/>
	</g>
</g>
</svg>
