<?xml version="1.0" encoding="utf-8"?>
<!-- Generator: Adobe Illustrator 19.2.0, SVG Export Plug-In . SVG Version: 6.00 Build 0)  -->
<svg version="1.1" id="Layer_1" xmlns="http://www.w3.org/2000/svg" xmlns:xlink="http://www.w3.org/1999/xlink" x="0px" y="0px"
	 viewBox="0 0 24 24" style="enable-background:new 0 0 24 24;" xml:space="preserve">
<style type="text/css">
	.st0{display:none;}
	.st1{display:inline;}
	.st2{fill:none;stroke:#000000;stroke-linecap:round;stroke-linejoin:round;stroke-miterlimit:10;}
</style>
<g id="Filled_Icon" class="st0">
	<path class="st1" d="M12,0C5.4,0,0,5.4,0,12s5.4,12,12,12s12-5.4,12-12S18.6,0,12,0z M5.5,8.5C5.5,8.2,5.7,8,6,8h1V7
		c0-0.3,0.2-0.5,0.5-0.5S8,6.7,8,7v1h1c0.3,0,0.5,0.2,0.5,0.5S9.3,9,9,9H8v1c0,0.3-0.2,0.5-0.5,0.5S7,10.3,7,10V9H6
		C5.7,9,5.5,8.8,5.5,8.5z M14.5,19c-1.8,0-2.5-1.3-3-2.3c-0.5-1.1-0.9-1.7-2-1.7C7.8,15,7,16.1,7,18.5C7,18.8,6.8,19,6.5,19
		S6,18.8,6,18.5C6,14.6,8.2,14,9.5,14c1.8,0,2.5,1.3,2.9,2.3c0.5,1.1,0.9,1.7,2.1,1.7c1.7,0,2.5-1.1,2.5-3.5c0-0.3,0.2-0.5,0.5-0.5
		s0.5,0.2,0.5,0.5C18,18.4,15.8,19,14.5,19z M18,9h-1v1c0,0.3-0.2,0.5-0.5,0.5S16,10.3,16,10V9h-1c-0.3,0-0.5-0.2-0.5-0.5
		S14.7,8,15,8h1V7c0-0.3,0.2-0.5,0.5-0.5S17,6.7,17,7v1h1c0.3,0,0.5,0.2,0.5,0.5S18.3,9,18,9z"/>
</g>
<g id="Outline_Icons">
	<g>
		<circle class="st2" cx="12" cy="12" r="11.5"/>
		<line class="st2" x1="6" y1="8.5" x2="9" y2="8.5"/>
		<line class="st2" x1="7.5" y1="7" x2="7.5" y2="10"/>
		<line class="st2" x1="15" y1="8.5" x2="18" y2="8.5"/>
		<line class="st2" x1="16.5" y1="7" x2="16.5" y2="10"/>
		<path class="st2" d="M6.5,18.5c0-2.9,1.2-4,3-4c3,0,2,4,5,4c1.8,0,3-1.1,3-4"/>
	</g>
</g>
</svg>
