<?xml version="1.0" encoding="utf-8"?>
<!-- Generator: Adobe Illustrator 19.2.0, SVG Export Plug-In . SVG Version: 6.00 Build 0)  -->
<svg version="1.1" id="Layer_1" xmlns="http://www.w3.org/2000/svg" xmlns:xlink="http://www.w3.org/1999/xlink" x="0px" y="0px"
	 viewBox="0 0 24 24" style="enable-background:new 0 0 24 24;" xml:space="preserve">
<style type="text/css">
	.st0{display:none;}
	.st1{display:inline;}
	.st2{fill:none;stroke:#000000;stroke-linecap:round;stroke-linejoin:round;stroke-miterlimit:10;}
</style>
<g id="Filled_Icon" class="st0">
	<g class="st1">
		<circle cx="15.5" cy="8.5" r="1"/>
		<circle cx="8.5" cy="8.5" r="1"/>
		<path d="M12,0C5.4,0,0,5.4,0,12s5.4,12,12,12s12-5.4,12-12S18.6,0,12,0z M8.5,10.5c-1.1,0-2-0.9-2-2s0.9-2,2-2s2,0.9,2,2
			S9.6,10.5,8.5,10.5z M15.5,6.5c1.1,0,2,0.9,2,2s-0.9,2-2,2s-2-0.9-2-2S14.4,6.5,15.5,6.5z M19.3,15.6c-2.3,0-4.5,1.2-5.8,3.1
			C13.3,18.9,13.2,19,13,19c-0.1,0-0.2,0-0.3-0.1c-0.2-0.2-0.3-0.5-0.1-0.7c1.5-2.2,4-3.6,6.7-3.6c0.3,0,0.5,0.2,0.5,0.5
			C19.8,15.4,19.5,15.6,19.3,15.6z"/>
	</g>
</g>
<g id="Outline_Icons">
	<g>
		<path class="st2" d="M13,18.5c1.3-2,3.6-3.4,6.3-3.4"/>
		<circle class="st2" cx="8.5" cy="8.5" r="1.5"/>
		<circle class="st2" cx="15.5" cy="8.5" r="1.5"/>
		<circle class="st2" cx="12" cy="12" r="11.5"/>
	</g>
</g>
</svg>
