<?xml version="1.0" encoding="utf-8"?>
<!-- Generator: Adobe Illustrator 19.2.0, SVG Export Plug-In . SVG Version: 6.00 Build 0)  -->
<svg version="1.1" id="Outline_Icons" xmlns="http://www.w3.org/2000/svg" xmlns:xlink="http://www.w3.org/1999/xlink" x="0px"
	 y="0px" viewBox="0 0 24 24" style="enable-background:new 0 0 24 24;" xml:space="preserve">
<style type="text/css">
	.st0{fill:none;stroke:#000000;stroke-linecap:round;stroke-linejoin:round;stroke-miterlimit:10;}
	.st1{fill:none;stroke:#000000;stroke-linejoin:round;stroke-miterlimit:10;}
</style>
<g>
	<path class="st0" d="M19.5,13.5c0,3.6-3.4,7-7.5,7s-7.5-3.4-7.5-7H19.5z"/>
	<circle class="st0" cx="12" cy="12" r="11.5"/>
	<path class="st0" d="M4.5,9.5c0,0.6,0.4,1,1,1h4c0.6,0,1-0.4,1-1v-2c0-0.6-0.4-1-1-1h-4c-0.6,0-1,0.4-1,1V9.5z"/>
	<path class="st0" d="M13.5,9.5c0,0.6,0.4,1,1,1h4c0.6,0,1-0.4,1-1v-2c0-0.6-0.4-1-1-1h-4c-0.6,0-1,0.4-1,1V9.5z"/>
	<line class="st1" x1="10.5" y1="8.5" x2="13.5" y2="8.5"/>
</g>
</svg>
