<?xml version="1.0" encoding="utf-8"?>
<!-- Generator: Adobe Illustrator 19.2.0, SVG Export Plug-In . SVG Version: 6.00 Build 0)  -->
<svg version="1.1" id="Layer_1" xmlns="http://www.w3.org/2000/svg" xmlns:xlink="http://www.w3.org/1999/xlink" x="0px" y="0px"
	 viewBox="0 0 24 24" style="enable-background:new 0 0 24 24;" xml:space="preserve">
<style type="text/css">
	.st0{display:none;}
	.st1{display:inline;}
	.st2{fill:none;stroke:#000000;stroke-linecap:round;stroke-linejoin:round;stroke-miterlimit:10;}
</style>
<g id="Filled_Icon" class="st0">
	<path class="st1" d="M12,0C5.4,0,0,5.4,0,12s5.4,12,12,12s12-5.4,12-12S18.6,0,12,0z M13,12.5l2.2-2.2c0.2-0.2,0.5-0.2,0.7,0
		c0.2,0.2,0.2,0.5,0,0.7l-2.2,2.2c-0.1,0.1-0.2,0.1-0.4,0.1c-0.1,0-0.3,0-0.4-0.1C12.8,13.1,12.8,12.7,13,12.5z M5,7.5
		c1.6-0.1,3.1-0.7,4.4-1.6C9.6,5.7,9.9,5.8,10.1,6c0.2,0.2,0.1,0.5-0.1,0.7c-1.5,1-3.2,1.6-5,1.8l0,0C4.7,8.5,4.5,8.3,4.5,8
		C4.5,7.8,4.7,7.5,5,7.5z M4.4,13.4c-0.1,0-0.3,0-0.4-0.1c-0.2-0.2-0.2-0.5,0-0.7l2.2-2.2c0.2-0.2,0.5-0.2,0.7,0s0.2,0.5,0,0.7
		l-2.2,2.2C4.6,13.3,4.5,13.4,4.4,13.4z M7,13.2c-0.2-0.2-0.2-0.5,0-0.7l2.2-2.2c0.2-0.2,0.5-0.2,0.7,0s0.2,0.5,0,0.7l-2.2,2.2
		c-0.1,0.1-0.2,0.1-0.4,0.1C7.3,13.4,7.1,13.3,7,13.2z M14,19.5c-0.8,0-1.5-0.4-2-1c-0.5,0.6-1.2,1-2,1c-1.4,0-2.5-1.1-2.5-2.5
		c0-0.3,0.2-0.5,0.5-0.5s0.5,0.2,0.5,0.5c0,0.8,0.7,1.5,1.5,1.5s1.5-0.7,1.5-1.5c0-0.3,0.2-0.5,0.5-0.5s0.5,0.2,0.5,0.5
		c0,0.8,0.7,1.5,1.5,1.5s1.5-0.7,1.5-1.5c0-0.3,0.2-0.5,0.5-0.5c0.3,0,0.5,0.2,0.5,0.5C16.5,18.4,15.4,19.5,14,19.5z M19,11
		l-2.2,2.2c-0.1,0.1-0.2,0.1-0.4,0.1c-0.1,0-0.3,0-0.4-0.1c-0.2-0.2-0.2-0.5,0-0.7l2.2-2.2c0.2-0.2,0.5-0.2,0.7,0
		C19.2,10.5,19.2,10.8,19,11z M19,8.5L19,8.5c-1.8-0.2-3.5-0.8-5-1.8c-0.2-0.2-0.3-0.5-0.1-0.7s0.5-0.3,0.7-0.1
		c1.3,0.9,2.8,1.5,4.4,1.6c0.3,0,0.5,0.3,0.5,0.5C19.5,8.3,19.3,8.5,19,8.5z"/>
</g>
<g id="Outline_Icons">
	<g>
		<circle class="st2" cx="12" cy="12" r="11.5"/>
		<g>
			<path class="st2" d="M8,17c0,1.1,0.9,2,2,2s2-0.9,2-2"/>
			<path class="st2" d="M12,17c0,1.1,0.9,2,2,2s2-0.9,2-2"/>
		</g>
		<path class="st2" d="M19,8c-1.6-0.1-3.3-0.7-4.7-1.7"/>
		<path class="st2" d="M5,8c1.6-0.1,3.3-0.7,4.7-1.7"/>
		<line class="st2" x1="4.4" y1="12.9" x2="6.6" y2="10.7"/>
		<line class="st2" x1="7.4" y1="12.9" x2="9.6" y2="10.7"/>
		<line class="st2" x1="13.4" y1="12.9" x2="15.6" y2="10.7"/>
		<line class="st2" x1="16.4" y1="12.9" x2="18.6" y2="10.7"/>
	</g>
</g>
</svg>
