<?xml version="1.0" encoding="utf-8"?>
<!-- Generator: Adobe Illustrator 19.2.0, SVG Export Plug-In . SVG Version: 6.00 Build 0)  -->
<svg version="1.1" id="Layer_1" xmlns="http://www.w3.org/2000/svg" xmlns:xlink="http://www.w3.org/1999/xlink" x="0px" y="0px"
	 viewBox="0 0 24 24" style="enable-background:new 0 0 24 24;" xml:space="preserve">
<style type="text/css">
	.st0{display:none;}
	.st1{display:inline;}
	.st2{fill:none;stroke:#000000;stroke-linecap:round;stroke-linejoin:round;stroke-miterlimit:10;}
</style>
<g id="Filled_Icon" class="st0">
	<g class="st1">
		<circle cx="16" cy="10" r="1"/>
		<circle cx="8" cy="10" r="1"/>
		<circle cx="12" cy="17.5" r="2.5"/>
		<path d="M12,0C5.4,0,0,5.4,0,12s5.4,12,12,12s12-5.4,12-12S18.6,0,12,0z M6.6,4.5c0.2-0.2,0.5-0.2,0.7,0c1.2,1.1,2.9,1.7,4.7,1.7
			s3.4-0.6,4.7-1.8c0.2-0.2,0.5-0.2,0.7,0s0.2,0.5,0,0.7c-1.4,1.3-3.3,2-5.3,2c-2.1,0-4-0.7-5.4-2C6.4,5.1,6.4,4.8,6.6,4.5z M6,10
			c0-1.1,0.9-2,2-2s2,0.9,2,2s-0.9,2-2,2S6,11.1,6,10z M12,21c-1.9,0-3.5-1.6-3.5-3.5S10.1,14,12,14s3.5,1.6,3.5,3.5S13.9,21,12,21z
			 M16,12c-1.1,0-2-0.9-2-2s0.9-2,2-2s2,0.9,2,2S17.1,12,16,12z"/>
	</g>
</g>
<g id="Outline_Icons">
	<g>
		<path class="st2" d="M17,4.8c-1.3,1.2-3.1,1.9-5,1.9S8.3,6.1,6.9,4.9"/>
		<circle class="st2" cx="8" cy="10" r="1.5"/>
		<circle class="st2" cx="16" cy="10" r="1.5"/>
		<circle class="st2" cx="12" cy="12" r="11.5"/>
		<circle class="st2" cx="12" cy="17.5" r="3"/>
	</g>
</g>
</svg>
