<?xml version="1.0" encoding="utf-8"?>
<!-- Generator: Adobe Illustrator 19.2.0, SVG Export Plug-In . SVG Version: 6.00 Build 0)  -->
<svg version="1.1" id="Layer_1" xmlns="http://www.w3.org/2000/svg" xmlns:xlink="http://www.w3.org/1999/xlink" x="0px" y="0px"
	 viewBox="0 0 24 24" style="enable-background:new 0 0 24 24;" xml:space="preserve">
<style type="text/css">
	.st0{display:none;}
	.st1{display:inline;}
	.st2{fill:none;stroke:#000000;stroke-linecap:round;stroke-linejoin:round;stroke-miterlimit:10;}
</style>
<g id="Filled_Icon" class="st0">
	<g class="st1">
		<path d="M12,0C5.4,0,0,5.4,0,12s5.4,12,12,12s12-5.4,12-12S18.6,0,12,0z M7.5,10.5C6.1,10.5,5,9.4,5,8c0-0.3,0.2-0.5,0.5-0.5
			S6,7.7,6,8c0,0.8,0.7,1.5,1.5,1.5S9,8.8,9,8c0-0.3,0.2-0.5,0.5-0.5S10,7.7,10,8C10,9.4,8.9,10.5,7.5,10.5z M14,19
			c-1.4,0-2.5-1.1-2.5-2.5S12.6,14,14,14s2.5,1.1,2.5,2.5S15.4,19,14,19z M16.5,10.5C15.1,10.5,14,9.4,14,8c0-0.3,0.2-0.5,0.5-0.5
			S15,7.7,15,8c0,0.8,0.7,1.5,1.5,1.5C17.3,9.5,18,8.8,18,8c0-0.3,0.2-0.5,0.5-0.5S19,7.7,19,8C19,9.4,17.9,10.5,16.5,10.5z"/>
		<circle cx="14" cy="16.5" r="1.5"/>
	</g>
</g>
<g id="Outline_Icons">
	<g>
		<circle class="st2" cx="12" cy="12" r="11.5"/>
		<circle class="st2" cx="14" cy="16.5" r="2"/>
		<path class="st2" d="M18.5,8c0,1.1-0.9,2-2,2s-2-0.9-2-2"/>
		<path class="st2" d="M5.5,8c0,1.1,0.9,2,2,2s2-0.9,2-2"/>
	</g>
</g>
</svg>
