<?xml version="1.0" encoding="utf-8"?>
<!-- Generator: Adobe Illustrator 19.2.0, SVG Export Plug-In . SVG Version: 6.00 Build 0)  -->
<svg version="1.1" id="Layer_1" xmlns="http://www.w3.org/2000/svg" xmlns:xlink="http://www.w3.org/1999/xlink" x="0px" y="0px"
	 viewBox="0 0 24 24" style="enable-background:new 0 0 24 24;" xml:space="preserve">
<style type="text/css">
	.st0{display:none;}
	.st1{display:inline;}
	.st2{fill:none;stroke:#000000;stroke-linecap:round;stroke-linejoin:round;stroke-miterlimit:10;}
</style>
<g id="Filled_Icon" class="st0">
	<g class="st1">
		<circle cx="12" cy="17" r="2.5"/>
		<circle cx="16.2" cy="7.5" r="1"/>
		<circle cx="7.2" cy="7.5" r="1"/>
		<path d="M12,0C5.4,0,0,5.4,0,12s5.4,12,12,12s12-5.4,12-12S18.6,0,12,0z M5.2,7.5c0-1.1,0.9-2,2-2s2,0.9,2,2s-0.9,2-2,2
			S5.2,8.6,5.2,7.5z M12,20.5c-1.9,0-3.5-1.6-3.5-3.5s1.6-3.5,3.5-3.5s3.5,1.6,3.5,3.5S13.9,20.5,12,20.5z M16.2,9.5
			c-1.1,0-2-0.9-2-2s0.9-2,2-2s2,0.9,2,2S17.4,9.5,16.2,9.5z"/>
	</g>
</g>
<g id="Outline_Icons">
	<g>
		<circle class="st2" cx="12" cy="12" r="11.5"/>
		<circle class="st2" cx="7.2" cy="7.5" r="1.5"/>
		<circle class="st2" cx="12" cy="16.5" r="3"/>
		<circle class="st2" cx="16.2" cy="7.5" r="1.5"/>
	</g>
</g>
</svg>
