<?xml version="1.0" encoding="utf-8"?>
<!-- Generator: Adobe Illustrator 19.2.0, SVG Export Plug-In . SVG Version: 6.00 Build 0)  -->
<svg version="1.1" id="Layer_1" xmlns="http://www.w3.org/2000/svg" xmlns:xlink="http://www.w3.org/1999/xlink" x="0px" y="0px"
	 viewBox="0 0 24 24" style="enable-background:new 0 0 24 24;" xml:space="preserve">
<style type="text/css">
	.st0{display:none;}
	.st1{display:inline;}
	.st2{fill:none;stroke:#000000;stroke-linecap:round;stroke-linejoin:round;stroke-miterlimit:10;}
</style>
<g id="Filled_Icon" class="st0">
	<g class="st1">
		<circle cx="12" cy="18.5" r="1"/>
		<path d="M12,0C5.4,0,0,5.4,0,12s5.4,12,12,12s12-5.4,12-12S18.6,0,12,0z M8,12.5c-0.3,0-0.5-0.2-0.5-0.5s0.2-0.5,0.5-0.5
			c0.8,0,1.5-0.7,1.5-1.5S8.8,8.5,8,8.5C7.7,8.5,7.5,8.3,7.5,8S7.7,7.5,8,7.5c1.4,0,2.5,1.1,2.5,2.5S9.4,12.5,8,12.5z M12,20.5
			c-1.1,0-2-0.9-2-2s0.9-2,2-2s2,0.9,2,2S13.1,20.5,12,20.5z M16,11.5c0.3,0,0.5,0.2,0.5,0.5s-0.2,0.5-0.5,0.5
			c-1.4,0-2.5-1.1-2.5-2.5s1.1-2.5,2.5-2.5c0.3,0,0.5,0.2,0.5,0.5S16.3,8.5,16,8.5c-0.8,0-1.5,0.7-1.5,1.5S15.2,11.5,16,11.5z"/>
	</g>
</g>
<g id="Outline_Icons">
	<g>
		<circle class="st2" cx="12" cy="18.5" r="1.5"/>
		<circle class="st2" cx="12" cy="12" r="11.5"/>
		<path class="st2" d="M16,8c-1.1,0-2,0.9-2,2s0.9,2,2,2"/>
		<path class="st2" d="M8,8c1.1,0,2,0.9,2,2s-0.9,2-2,2"/>
	</g>
</g>
</svg>
