<?xml version="1.0" encoding="utf-8"?>
<!-- Generator: Adobe Illustrator 19.2.0, SVG Export Plug-In . SVG Version: 6.00 Build 0)  -->
<svg version="1.1" id="Layer_1" xmlns="http://www.w3.org/2000/svg" xmlns:xlink="http://www.w3.org/1999/xlink" x="0px" y="0px"
	 viewBox="0 0 24 24" style="enable-background:new 0 0 24 24;" xml:space="preserve">
<style type="text/css">
	.st0{display:none;}
	.st1{display:inline;}
	.st2{fill:none;stroke:#000000;stroke-linecap:round;stroke-linejoin:round;stroke-miterlimit:10;}
</style>
<g id="Filled_Icon" class="st0">
	<path class="st1" d="M12,0C5.4,0,0,5.4,0,12s5.4,12,12,12s12-5.4,12-12S18.6,0,12,0z M14.5,7.5C14.8,7.5,15,7.7,15,8
		c0,0.8,0.7,1.5,1.5,1.5C17.3,9.5,18,8.8,18,8c0-0.3,0.2-0.5,0.5-0.5S19,7.7,19,8c0,1.4-1.1,2.5-2.5,2.5S14,9.4,14,8
		C14,7.7,14.2,7.5,14.5,7.5z M5.5,7.5C5.8,7.5,6,7.7,6,8c0,0.8,0.7,1.5,1.5,1.5S9,8.8,9,8c0-0.3,0.2-0.5,0.5-0.5S10,7.7,10,8
		c0,1.4-1.1,2.5-2.5,2.5S5,9.4,5,8C5,7.7,5.2,7.5,5.5,7.5z M19.5,21.1c-0.3,0-0.5-0.2-0.5-0.5c0-3.9-3.2-7.1-7-7.1s-7,3.3-7,7.2
		c0,0.3-0.2,0.5-0.5,0.5S4,21,4,20.7c0-4.4,3.7-8.2,8-8.2c4.4,0,8,3.7,8,8.1C20,20.9,19.8,21.1,19.5,21.1z"/>
</g>
<g id="Outline_Icons">
	<g>
		<circle class="st2" cx="12" cy="12" r="11.5"/>
		<path class="st2" d="M4.5,20.7c0-4.5,3.4-7.7,7.5-7.7s7.5,2.9,7.5,7.7"/>
		<path class="st2" d="M9.5,8c0,1.1-0.9,2-2,2s-2-0.9-2-2"/>
		<path class="st2" d="M14.5,8c0,1.1,0.9,2,2,2s2-0.9,2-2"/>
	</g>
</g>
</svg>
