<?xml version="1.0" encoding="utf-8"?>
<!-- Generator: Adobe Illustrator 19.2.0, SVG Export Plug-In . SVG Version: 6.00 Build 0)  -->
<svg version="1.1" id="Layer_1" xmlns="http://www.w3.org/2000/svg" xmlns:xlink="http://www.w3.org/1999/xlink" x="0px" y="0px"
	 viewBox="0 0 24 24" style="enable-background:new 0 0 24 24;" xml:space="preserve">
<style type="text/css">
	.st0{display:none;}
	.st1{display:inline;}
	.st2{fill:none;stroke:#000000;stroke-linecap:round;stroke-linejoin:round;stroke-miterlimit:10;}
</style>
<g id="Filled_Icon" class="st0">
	<g class="st1">
		<path d="M17.5,13c3,0,4.1-3.6,4.4-5h-9.2C13.1,9.5,14.5,13,17.5,13z"/>
		<path d="M6.5,13c3,0,4.4-3.5,4.8-5H2.1C2.4,9.4,3.5,13,6.5,13z"/>
		<path d="M12,0C5.4,0,0,5.4,0,12s5.4,12,12,12s12-5.4,12-12S18.6,0,12,0z M17.5,17.7C16,19.8,13.6,21,11,21c-0.3,0-0.5-0.2-0.5-0.5
			S10.7,20,11,20c2.3,0,4.4-1.1,5.7-2.9c0.2-0.2,0.5-0.3,0.7-0.1C17.6,17.1,17.7,17.4,17.5,17.7z M17.5,14c-3.1,0-4.8-2.9-5.5-4.8
			C11.3,11.1,9.6,14,6.5,14C2,14,1,7.8,1,7.6c0-0.1,0-0.3,0.1-0.4S1.4,7,1.5,7H12h10.5c0.1,0,0.3,0.1,0.4,0.2C23,7.3,23,7.4,23,7.6
			C23,7.8,22,14,17.5,14z"/>
	</g>
</g>
<g id="Outline_Icons">
	<g>
		<path class="st2" d="M17.1,17.4c-1.4,1.9-3.6,3.1-6.1,3.1"/>
		<circle class="st2" cx="12" cy="12" r="11.5"/>
		<path class="st2" d="M12,7.5h10.5c0,0-0.8,6-5,6S12,7.5,12,7.5z"/>
		<path class="st2" d="M12,7.5H1.5c0,0,0.8,6,5,6S12,7.5,12,7.5z"/>
	</g>
</g>
</svg>
