<?xml version="1.0" encoding="utf-8"?>
<!-- Generator: Adobe Illustrator 19.2.0, SVG Export Plug-In . SVG Version: 6.00 Build 0)  -->
<svg version="1.1" id="Layer_1" xmlns="http://www.w3.org/2000/svg" xmlns:xlink="http://www.w3.org/1999/xlink" x="0px" y="0px"
	 viewBox="0 0 24 24" style="enable-background:new 0 0 24 24;" xml:space="preserve">
<style type="text/css">
	.st0{display:none;}
	.st1{display:inline;}
	.st2{fill:none;stroke:#000000;stroke-linecap:round;stroke-linejoin:round;stroke-miterlimit:10;}
</style>
<g id="Filled_Icon" class="st0">
	<g class="st1">
		<circle cx="7.5" cy="10" r="1"/>
		<path d="M12,0C5.4,0,0,5.4,0,12s5.4,12,12,12s12-5.4,12-12S18.6,0,12,0z M16.5,8.7C18,8.7,19,9.2,19,10c0,0.3-0.2,0.5-0.5,0.5
			S18,10.3,18,10c-0.1-0.1-0.6-0.3-1.5-0.3s-1.4,0.2-1.5,0.4c0,0.3-0.2,0.5-0.5,0.5S14,10.4,14,10.1C14,9.2,15,8.7,16.5,8.7z M7.5,8
			c1.1,0,2,0.9,2,2s-0.9,2-2,2s-2-0.9-2-2S6.4,8,7.5,8z M12,21c-4.4,0-8-3.6-8-8c0-0.3,0.2-0.5,0.5-0.5S5,12.7,5,13c0,3.9,3.1,7,7,7
			s7-3.1,7-7c0-0.3,0.2-0.5,0.5-0.5S20,12.7,20,13C20,17.4,16.4,21,12,21z"/>
	</g>
</g>
<g id="Outline_Icons">
	<g>
		<circle class="st2" cx="12" cy="12" r="11.5"/>
		<path class="st2" d="M19.5,13c0,4.1-3.4,7.5-7.5,7.5S4.5,17.1,4.5,13"/>
		<path class="st2" d="M18.5,10c0-1.1-4-1.1-4,0"/>
		<circle class="st2" cx="7.5" cy="9.5" r="1.5"/>
	</g>
</g>
</svg>
