<?xml version="1.0" encoding="utf-8"?>
<!-- Generator: Adobe Illustrator 19.2.0, SVG Export Plug-In . SVG Version: 6.00 Build 0)  -->
<svg version="1.1" id="Layer_1" xmlns="http://www.w3.org/2000/svg" xmlns:xlink="http://www.w3.org/1999/xlink" x="0px" y="0px"
	 viewBox="0 0 24 24" style="enable-background:new 0 0 24 24;" xml:space="preserve">
<style type="text/css">
	.st0{display:none;}
	.st1{display:inline;}
	.st2{fill:none;stroke:#000000;stroke-linecap:round;stroke-linejoin:round;stroke-miterlimit:10;}
</style>
<g id="Filled_Icon" class="st0">
	<g class="st1">
		<path d="M12,0C5.4,0,0,5.4,0,12s5.4,12,12,12s12-5.4,12-12S18.6,0,12,0z M5.4,9C5.3,9,5.1,8.9,5,8.8C4.9,8.6,4.9,8.3,5.1,8.1
			C6.2,7.2,7.6,6.7,9,6.5c0.3,0,0.5,0.2,0.6,0.4c0,0.3-0.2,0.5-0.4,0.6C7.9,7.7,6.7,8.1,5.7,8.9C5.7,9,5.5,9,5.4,9z M12,21
			c-1.9,0-3.5-2-3.5-4.5S10.1,12,12,12s3.5,2,3.5,4.5S13.9,21,12,21z M19,8.8C18.9,8.9,18.7,9,18.6,9s-0.2,0-0.3-0.1
			c-1-0.7-2.1-1.2-3.4-1.4c-0.3,0-0.5-0.3-0.4-0.6c0-0.3,0.3-0.5,0.6-0.4c1.4,0.2,2.7,0.7,3.8,1.6C19.1,8.3,19.1,8.6,19,8.8z"/>
		<path d="M12,13c-1.4,0-2.5,1.6-2.5,3.5S10.6,20,12,20s2.5-1.6,2.5-3.5S13.4,13,12,13z"/>
	</g>
</g>
<g id="Outline_Icons">
	<g>
		<circle class="st2" cx="12" cy="12" r="11.5"/>
		<path class="st2" d="M5.4,8.5C6.5,7.7,7.7,7.2,9,7"/>
		<path class="st2" d="M18.6,8.5c-1-0.8-2.3-1.3-3.6-1.5"/>
		<ellipse class="st2" cx="12" cy="16.5" rx="3" ry="4"/>
	</g>
</g>
</svg>
