<?xml version="1.0" encoding="utf-8"?>
<!-- Generator: Adobe Illustrator 19.2.0, SVG Export Plug-In . SVG Version: 6.00 Build 0)  -->
<svg version="1.1" id="Layer_1" xmlns="http://www.w3.org/2000/svg" xmlns:xlink="http://www.w3.org/1999/xlink" x="0px" y="0px"
	 viewBox="0 0 24 24" style="enable-background:new 0 0 24 24;" xml:space="preserve">
<style type="text/css">
	.st0{display:none;}
	.st1{display:inline;}
	.st2{fill:none;stroke:#000000;stroke-linecap:round;stroke-linejoin:round;stroke-miterlimit:10;}
</style>
<g id="Filled_Icon" class="st0">
	<path class="st1" d="M12,0C5.4,0,0,5.4,0,12s5.4,12,12,12s12-5.4,12-12S18.6,0,12,0z M13,8h4c0.3,0,0.5,0.2,0.5,0.5S17.3,9,17,9h-4
		c-0.3,0-0.5-0.2-0.5-0.5S12.7,8,13,8z M9,9H5C4.7,9,4.5,8.8,4.5,8.5S4.7,8,5,8h4c0.3,0,0.5,0.2,0.5,0.5S9.3,9,9,9z M18.9,15.2
		c-1.4,2.5-4,4-6.9,4c-0.3,0-0.5-0.2-0.5-0.5s0.2-0.5,0.5-0.5c2.6,0,4.8-1.3,6-3.5c0.1-0.2,0.4-0.3,0.7-0.2
		C19,14.7,19.1,15,18.9,15.2z"/>
</g>
<g id="Outline_Icons">
	<g>
		<line class="st2" x1="5" y1="8.5" x2="9" y2="8.5"/>
		<line class="st2" x1="13" y1="8.5" x2="17" y2="8.5"/>
		<circle class="st2" cx="12" cy="12" r="11.5"/>
		<path class="st2" d="M18.5,15c-1.3,2.3-3.7,3.7-6.5,3.7"/>
	</g>
</g>
</svg>
