<?xml version="1.0" encoding="utf-8"?>
<!-- Generator: Adobe Illustrator 19.2.0, SVG Export Plug-In . SVG Version: 6.00 Build 0)  -->
<svg version="1.1" id="Layer_1" xmlns="http://www.w3.org/2000/svg" xmlns:xlink="http://www.w3.org/1999/xlink" x="0px" y="0px"
	 viewBox="0 0 24 24" style="enable-background:new 0 0 24 24;" xml:space="preserve">
<style type="text/css">
	.st0{display:none;}
	.st1{display:inline;}
	.st2{fill:none;stroke:#000000;stroke-linecap:round;stroke-linejoin:round;stroke-miterlimit:10;}
</style>
<g id="Filled_Icons" class="st0">
	<g class="st1">
		<path d="M23.5,11H19v5h4.5c0.3,0,0.5-0.2,0.5-0.5v-4C24,11.2,23.8,11,23.5,11z"/>
		<path d="M3,11.5v4C3,15.8,3.2,16,3.5,16H18v-5H3.5C3.2,11,3,11.2,3,11.5z"/>
		<path d="M1.5,11C1.2,11,1,11.2,1,11.5v4C1,15.8,1.2,16,1.5,16S2,15.8,2,15.5v-4C2,11.2,1.8,11,1.5,11z"/>
		<path d="M1,6.5C1,5.1,2.1,4,3.5,4C5.4,4,7,2.4,7,0.5C7,0.2,6.8,0,6.5,0S6,0.2,6,0.5C6,1.9,4.9,3,3.5,3C1.6,3,0,4.6,0,6.5v2
			C0,8.8,0.2,9,0.5,9S1,8.8,1,8.5V6.5z"/>
		<path d="M5.5,6C7.4,6,9,4.4,9,2.5C9,2.2,8.8,2,8.5,2S8,2.2,8,2.5C8,3.9,6.9,5,5.5,5C3.6,5,2,6.6,2,8.5C2,8.8,2.2,9,2.5,9
			S3,8.8,3,8.5C3,7.1,4.1,6,5.5,6z"/>
	</g>
</g>
<g id="Outline_Icons">
	<g>
		<rect x="3.5" y="11.5" class="st2" width="20" height="4"/>
		<line class="st2" x1="18.5" y1="11.5" x2="18.5" y2="15.5"/>
		<line class="st2" x1="1.5" y1="11.5" x2="1.5" y2="15.5"/>
		<path class="st2" d="M6.5,0.5c0,1.7-1.3,3-3,3s-3,1.3-3,3v2"/>
		<path class="st2" d="M8.5,2.5c0,1.7-1.3,3-3,3s-3,1.3-3,3"/>
	</g>
</g>
</svg>
