<?xml version="1.0" encoding="utf-8"?>
<!-- Generator: Adobe Illustrator 19.2.0, SVG Export Plug-In . SVG Version: 6.00 Build 0)  -->
<svg version="1.1" id="Layer_1" xmlns="http://www.w3.org/2000/svg" xmlns:xlink="http://www.w3.org/1999/xlink" x="0px" y="0px"
	 viewBox="0 0 24 24" style="enable-background:new 0 0 24 24;" xml:space="preserve">
<style type="text/css">
	.st0{display:none;}
	.st1{display:inline;}
	.st2{fill:none;stroke:#000000;stroke-linecap:round;stroke-linejoin:round;stroke-miterlimit:10;}
</style>
<g id="Filled_Icons" class="st0">
	<g class="st1">
		<polygon points="10.1,16 18,16 18,11 15.1,11 		"/>
		<path d="M23.9,0.9c0,0,0.1-0.1,0.1-0.2s0-0.1,0-0.2s0-0.1,0-0.2s-0.1-0.1-0.1-0.2c0,0-0.1-0.1-0.2-0.1s-0.1,0-0.2,0s-0.1,0-0.2,0
			s-0.1,0.1-0.2,0.1l-23,23c-0.5,0.5,0.2,1.2,0.7,0.7l0,0L23.9,0.9z"/>
		<path d="M3,11.5v4C3,15.8,3.2,16,3.5,16h2.4l5-5H3.5C3.2,11,3,11.2,3,11.5z"/>
		<path d="M23.5,11H19v5h4.5c0.3,0,0.5-0.2,0.5-0.5v-4C24,11.2,23.8,11,23.5,11z"/>
		<path d="M1,11.5v4C1,15.8,1.2,16,1.5,16S2,15.8,2,15.5v-4C2,11.2,1.8,11,1.5,11S1,11.2,1,11.5z"/>
		<path d="M0.5,9C0.8,9,1,8.8,1,8.5v-2C1,5.1,2.1,4,3.5,4C5.4,4,7,2.4,7,0.5C7,0.2,6.8,0,6.5,0S6,0.2,6,0.5C6,1.9,4.9,3,3.5,3
			C1.6,3,0,4.6,0,6.5v2C0,8.8,0.2,9,0.5,9z"/>
		<path d="M2,8.5C2,8.8,2.2,9,2.5,9S3,8.8,3,8.5C3,7.1,4.1,6,5.5,6C7.4,6,9,4.4,9,2.5C9,2.2,8.8,2,8.5,2S8,2.2,8,2.5
			C8,3.9,6.9,5,5.5,5C3.6,5,2,6.6,2,8.5z"/>
	</g>
</g>
<g id="Outline_Icons">
	<g>
		<polyline class="st2" points="5.5,15.5 3.5,15.5 3.5,11.5 9.5,11.5 		"/>
		<polyline class="st2" points="15.5,11.5 23.5,11.5 23.5,15.5 11.5,15.5 		"/>
		<line class="st2" x1="18.5" y1="11.5" x2="18.5" y2="15.5"/>
		<line class="st2" x1="1.5" y1="11.5" x2="1.5" y2="15.5"/>
		<path class="st2" d="M6.5,0.5c0,1.7-1.3,3-3,3s-3,1.3-3,3v2"/>
		<path class="st2" d="M8.5,2.5c0,1.7-1.3,3-3,3s-3,1.3-3,3"/>
		<line class="st2" x1="23.5" y1="0.5" x2="0.5" y2="23.5"/>
	</g>
</g>
</svg>
