<?xml version="1.0" encoding="utf-8"?>
<!-- Generator: Adobe Illustrator 19.2.0, SVG Export Plug-In . SVG Version: 6.00 Build 0)  -->
<svg version="1.1" id="Layer_1" xmlns="http://www.w3.org/2000/svg" xmlns:xlink="http://www.w3.org/1999/xlink" x="0px" y="0px"
	 viewBox="0 0 24 24" style="enable-background:new 0 0 24 24;" xml:space="preserve">
<style type="text/css">
	.st0{display:none;}
	.st1{display:inline;}
	.st2{fill:none;stroke:#000000;stroke-linecap:round;stroke-linejoin:round;stroke-miterlimit:10;}
	.st3{fill:none;stroke:#000000;stroke-linejoin:round;stroke-miterlimit:10;}
</style>
<g id="Filled_Icons" class="st0">
	<g class="st1">
		<path d="M23.5,3h-23C0.2,3,0,3.2,0,3.5V5h24V3.5C24,3.2,23.8,3,23.5,3z"/>
		<path d="M20,6h-7.5c0,1.1-0.9,2-2,2h-3C7.1,8,7,8.9,7,9.4l2.2,0.8l1.5-1.5c0.2-0.2,0.5-0.2,0.7,0s0.2,0.5,0,0.7l-1.1,1.1l0.8,0.3
			c0-0.1,0.1-0.1,0.1-0.1l1.5-1.5c0.2-0.2,0.5-0.2,0.7,0c0.2,0.2,0.2,0.5,0,0.7l-1.3,1.3l2.3,0.8c0.2,0.1,0.3,0,0.5-0.1
			c0.1-0.1,0.2-0.2,0.2-0.4c0-0.4,1-1,3-1c1.7,0,3,0.7,3,1c0,0.3,0.2,0.5,0.5,0.5h1c0.8,0,1.5-0.7,1.5-1.5V9C22.3,9,20.4,7.8,20,6z"
			/>
		<path d="M6,9c0.1-1.7,1-2,1.5-2h3c0.6,0,1-0.4,1-1H0c0.1,0.5,0.4,1,1,1.2L6,9z"/>
		<path d="M24,8V6h-2.9C21.4,7.1,22.8,8,24,8z"/>
		<path d="M13.5,17c-0.6,0-1,0.4-1,1H24c-0.1-0.5-0.4-1-1-1.2L18,15c-0.1,1.7-1,2-1.5,2H13.5z"/>
		<path d="M0,16v2h2.9C2.6,16.9,1.2,16,0,16z"/>
		<path d="M4,18h7.6c0-1.1,0.9-2,2-2h3c0.4,0,0.5-0.9,0.5-1.4l-2.2-0.8l-1.5,1.5c-0.1,0.1-0.2,0.1-0.4,0.1c-0.1,0-0.3,0-0.4-0.1
			c-0.2-0.2-0.2-0.5,0-0.7l1.1-1.1L13,13.2c0,0.1-0.1,0.1-0.1,0.1l-1.5,1.5C11.3,15,11.1,15,11,15s-0.3,0-0.4-0.1
			c-0.2-0.2-0.2-0.5,0-0.7l1.3-1.3L9.7,12c-0.2-0.1-0.3,0-0.5,0.1C9.1,12.2,9,12.3,9,12.5c0,0.4-1,1-3,1c-1.7,0-3-0.7-3-1
			C3,12.2,2.8,12,2.5,12h-1C0.7,12,0,12.7,0,13.5V15C1.7,15,3.6,16.3,4,18z"/>
		<path d="M0,20.5C0,20.8,0.2,21,0.5,21h23c0.3,0,0.5-0.2,0.5-0.5V19H0V20.5z"/>
	</g>
</g>
<g id="Outline_Icons">
	<g>
		<path class="st2" d="M9.5,12.5l13.3,4.8c0.4,0.1,0.7,0.5,0.7,0.9v2.3h-23v-7c0-0.6,0.4-1,1-1h1C2.5,13.3,4.3,14,6,14
			C8.2,14,9.5,13.3,9.5,12.5z"/>
		<line class="st3" x1="0.5" y1="18.5" x2="23.5" y2="18.5"/>
		<line class="st2" x1="12.1" y1="13.4" x2="11" y2="14.5"/>
		<line class="st2" x1="13.9" y1="14.1" x2="13" y2="15"/>
		<path class="st3" d="M17.5,15.4c0,0.6-0.4,1.1-1,1.1h-3c-0.8,0-1.5,0.7-1.5,1.5v0.5"/>
		<path class="st2" d="M3.5,18.5c0-1.7-1.3-3-3-3"/>
		<path class="st2" d="M14.5,11.5L1.2,6.7C0.8,6.6,0.5,6.2,0.5,5.8V3.5h23v7c0,0.6-0.4,1-1,1h-1c0-0.8-1.8-1.5-3.5-1.5
			C15.8,10,14.5,10.7,14.5,11.5z"/>
		<line class="st3" x1="23.5" y1="5.5" x2="0.5" y2="5.5"/>
		<line class="st2" x1="11.9" y1="10.6" x2="13" y2="9.5"/>
		<line class="st2" x1="10.1" y1="9.9" x2="11" y2="9"/>
		<path class="st3" d="M6.5,8.6c0-0.6,0.4-1.1,1-1.1h3C11.3,7.5,12,6.8,12,6V5.5"/>
		<path class="st2" d="M20.5,5.5c0,1.7,1.3,3,3,3"/>
	</g>
</g>
</svg>
