<?xml version="1.0" encoding="utf-8"?>
<!-- Generator: Adobe Illustrator 19.2.0, SVG Export Plug-In . SVG Version: 6.00 Build 0)  -->
<svg version="1.1" id="Outline_Icons" xmlns="http://www.w3.org/2000/svg" xmlns:xlink="http://www.w3.org/1999/xlink" x="0px"
	 y="0px" viewBox="0 0 24 24" style="enable-background:new 0 0 24 24;" xml:space="preserve">
<style type="text/css">
	.st0{fill:none;stroke:#000000;stroke-linecap:round;stroke-linejoin:round;stroke-miterlimit:10;}
</style>
<g>
	<path class="st0" d="M13,20.5h3c3,0,5.5-2.6,5.5-5.7V3.5"/>
	<line class="st0" x1="19.5" y1="12" x2="19.5" y2="14"/>
	<line class="st0" x1="1.5" y1="12" x2="1.5" y2="14"/>
	<circle class="st0" cx="10.5" cy="20.5" r="2.5"/>
	<line class="st0" x1="21.5" y1="1" x2="21.5" y2="2"/>
	<path class="st0" d="M19,13.8c0,1.4-1.1,2.7-2.5,2.7H14c-1.9,0-3.5-1.8-3.5-3.7V8.5h4c2.5,0,4.5,1.8,4.5,4.3V13.8z"/>
	<path class="st0" d="M2,13.8c0,1.4,1.1,2.7,2.5,2.7H7c1.9,0,3.5-1.8,3.5-3.7V8.5h-4C4,8.5,2,10.3,2,12.8V13.8z"/>
	<line class="st0" x1="8" y1="20.5" x2="6" y2="20.5"/>
</g>
</svg>
