<?xml version="1.0" encoding="utf-8"?>
<!-- Generator: Adobe Illustrator 19.2.0, SVG Export Plug-In . SVG Version: 6.00 Build 0)  -->
<svg version="1.1" id="Layer_1" xmlns="http://www.w3.org/2000/svg" xmlns:xlink="http://www.w3.org/1999/xlink" x="0px" y="0px"
	 viewBox="0 0 24 24" style="enable-background:new 0 0 24 24;" xml:space="preserve">
<style type="text/css">
	.st0{display:none;}
	.st1{display:inline;}
	.st2{fill:none;stroke:#000000;stroke-linejoin:round;stroke-miterlimit:10;}
	.st3{fill:none;stroke:#000000;stroke-linecap:round;stroke-linejoin:round;stroke-miterlimit:10;}
</style>
<g id="Filled_Icons" class="st0">
	<g class="st1">
		<path d="M23,13h-2.3l0.9-2.3c0.1-0.3,0-0.5-0.3-0.6c-0.3-0.1-0.5,0-0.6,0.3l-1.1,2.8l-2,1c-0.6-1-1.4-1.8-2.4-2.3
			c-0.9,0.7-2,1.2-3.2,1.2s-2.3-0.4-3.2-1.2c-1,0.6-1.8,1.4-2.4,2.3l-2-1l-1.1-2.8c-0.1-0.3-0.4-0.4-0.6-0.3
			c-0.3,0.1-0.4,0.4-0.3,0.6L3.3,13H1c-0.3,0-0.5,0.2-0.5,0.5S0.7,14,1,14h2.9L6,15.1c-0.3,0.8-0.5,1.6-0.5,2.4
			c0,3.6,2.9,6.5,6.5,6.5s6.5-2.9,6.5-6.5c0-0.9-0.2-1.7-0.5-2.4l2.1-1.1H23c0.3,0,0.5-0.2,0.5-0.5C23.5,13.2,23.3,13,23,13z"/>
		<g>
			<path d="M15,3V0.5C15,0.2,14.8,0,14.5,0h-5C9.2,0,9,0.2,9,0.5V3H15z"/>
			<path d="M18,4H6C5.7,4,5.5,4.2,5.5,4.5S5.7,5,6,5h3.4C8.5,5.7,8,6.8,8,8c0,2.2,1.8,4,4,4s4-1.8,4-4c0-1.2-0.5-2.3-1.4-3H18
				c0.3,0,0.5-0.2,0.5-0.5C18.5,4.2,18.3,4,18,4z M11,8c-0.3,0-0.5-0.2-0.5-0.5C10.5,7.2,10.7,7,11,7c0.3,0,0.5,0.2,0.5,0.5
				C11.5,7.8,11.3,8,11,8z M13,8c-0.3,0-0.5-0.2-0.5-0.5C12.5,7.2,12.7,7,13,7s0.5,0.2,0.5,0.5C13.5,7.8,13.3,8,13,8z"/>
		</g>
	</g>
</g>
<g id="Outline_Icons">
	<g>
		<rect x="9.5" y="0.5" class="st2" width="5" height="4"/>
		<line class="st3" x1="6" y1="4.5" x2="18" y2="4.5"/>
		<circle class="st2" cx="12" cy="8" r="3.5"/>
		<circle class="st2" cx="12" cy="17.5" r="6"/>
		<g>
			<path d="M11,7c-0.3,0-0.5,0.2-0.5,0.5C10.5,7.8,10.7,8,11,8c0.3,0,0.5-0.2,0.5-0.5C11.5,7.2,11.3,7,11,7L11,7z"/>
		</g>
		<g>
			<path d="M13,7c-0.3,0-0.5,0.2-0.5,0.5C12.5,7.8,12.7,8,13,8s0.5-0.2,0.5-0.5C13.5,7.2,13.3,7,13,7L13,7z"/>
		</g>
		<line class="st2" x1="17.4" y1="14.8" x2="20" y2="13.5"/>
		<polyline class="st3" points="21.2,10.5 20,13.5 23,13.5 		"/>
		<line class="st2" x1="6.6" y1="14.8" x2="4" y2="13.5"/>
		<polyline class="st3" points="2.8,10.5 4,13.5 1,13.5 		"/>
	</g>
</g>
</svg>
