<?xml version="1.0" encoding="utf-8"?>
<!-- Generator: Adobe Illustrator 19.2.0, SVG Export Plug-In . SVG Version: 6.00 Build 0)  -->
<svg version="1.1" id="Layer_1" xmlns="http://www.w3.org/2000/svg" xmlns:xlink="http://www.w3.org/1999/xlink" x="0px" y="0px"
	 viewBox="0 0 24 24" style="enable-background:new 0 0 24 24;" xml:space="preserve">
<style type="text/css">
	.st0{display:none;}
	.st1{display:inline;}
	.st2{fill:none;stroke:#000000;stroke-linecap:round;stroke-linejoin:round;stroke-miterlimit:10;}
	.st3{fill:none;stroke:#000000;stroke-linejoin:round;stroke-miterlimit:10;}
</style>
<g id="Filled_Icons" class="st0">
	<path class="st1" d="M22,12L22,12l-1.4,0l0.9-1.5c0.1-0.2,0.1-0.5-0.2-0.7c-0.2-0.1-0.5-0.1-0.7,0.2l-1.2,2l-2.3,0l2.1-2.1
		c0.1-0.1,0.2-0.4,0.1-0.5C19.4,9.1,19.2,9,19,9h-3.3l1.8-1.8l2.3,0.6c0,0,0.1,0,0.1,0c0.2,0,0.4-0.2,0.5-0.4
		c0.1-0.3-0.1-0.5-0.4-0.6l-1.7-0.4l1-1c0.2-0.2,0.2-0.5,0-0.7c-0.2-0.2-0.5-0.2-0.7,0l-1,1L17.2,4c-0.1-0.3-0.3-0.4-0.6-0.4
		c-0.3,0.1-0.4,0.3-0.4,0.6l0.5,2.3L15,8.3V5c0-0.2-0.1-0.4-0.3-0.5c-0.2-0.1-0.4,0-0.5,0.1L12,6.8V4.5l2-1.2
		c0.2-0.1,0.3-0.5,0.2-0.7c-0.1-0.2-0.5-0.3-0.7-0.2L12,3.4V2c0-0.3-0.2-0.5-0.5-0.5S11,1.7,11,2v1.4L9.5,2.5C9.3,2.3,9,2.4,8.8,2.7
		C8.7,2.9,8.8,3.2,9,3.3l2,1.2v2.3L8.9,4.7C8.7,4.5,8.5,4.5,8.3,4.5C8.1,4.6,8,4.8,8,5v3.3L6.2,6.5l0.5-2.3C6.8,4,6.7,3.7,6.4,3.6
		C6.1,3.6,5.9,3.7,5.8,4L5.4,5.7l-1-1c-0.2-0.2-0.5-0.2-0.7,0c-0.2,0.2-0.2,0.5,0,0.7l1,1L3,6.8C2.7,6.9,2.6,7.1,2.6,7.4
		c0.1,0.2,0.3,0.4,0.5,0.4c0,0,0.1,0,0.1,0l2.3-0.6L7.3,9H4C3.8,9,3.6,9.1,3.5,9.3c-0.1,0.2,0,0.4,0.1,0.5L5.8,12H3.5l-1.2-2
		C2.2,9.8,1.9,9.7,1.6,9.9c-0.2,0.1-0.3,0.5-0.2,0.7L2.3,12H1c-0.3,0-0.5,0.2-0.5,0.5C0.5,12.8,0.7,13,1,13h1.4l-0.9,1.5
		c-0.1,0.2-0.1,0.5,0.2,0.7c0.1,0,0.2,0.1,0.3,0.1c0.2,0,0.3-0.1,0.4-0.2l1.2-2h2.3l-2.2,2.2c-0.1,0.1-0.2,0.4-0.1,0.5
		C3.6,15.9,3.8,16,4,16h3.3l-1.8,1.8l-2.3-0.5c-0.3-0.1-0.5,0.1-0.6,0.4c-0.1,0.3,0.1,0.5,0.4,0.6l1.7,0.4l-1,1
		c-0.2,0.2-0.2,0.5,0,0.7c0.1,0.1,0.2,0.1,0.4,0.1s0.3,0,0.4-0.1l1-1L5.8,21c0.1,0.2,0.3,0.4,0.5,0.4c0,0,0.1,0,0.1,0
		c0.3-0.1,0.4-0.3,0.4-0.6l-0.6-2.3L8,16.7V20c0,0.2,0.1,0.4,0.3,0.5c0.2,0.1,0.4,0,0.5-0.1l2.1-2.1v2.3l-2,1.2
		c-0.2,0.1-0.3,0.4-0.2,0.7c0.1,0.2,0.5,0.3,0.7,0.2l1.5-0.9V23c0,0.3,0.2,0.5,0.5,0.5S12,23.3,12,23v-1.4l1.5,0.9
		c0.1,0,0.2,0.1,0.3,0.1c0.2,0,0.3-0.1,0.4-0.2c0.1-0.2,0.1-0.5-0.2-0.7l-2-1.2v-2.3l2.1,2.1c0.1,0.1,0.2,0.1,0.4,0.1
		c0.1,0,0.1,0,0.2,0c0.2-0.1,0.3-0.3,0.3-0.5v-3.3l1.8,1.8l-0.6,2.3c-0.1,0.3,0.1,0.5,0.4,0.6c0,0,0.1,0,0.1,0
		c0.2,0,0.4-0.2,0.5-0.4l0.4-1.7l1,1c0.1,0.1,0.2,0.1,0.4,0.1c0.1,0,0.3,0,0.4-0.1c0.2-0.2,0.2-0.5,0-0.7l-1-1l1.7-0.4
		c0.3-0.1,0.4-0.3,0.4-0.6c-0.1-0.3-0.3-0.4-0.6-0.4l-2.3,0.5L15.7,16H19c0.2,0,0.4-0.1,0.5-0.3s0-0.4-0.1-0.5L17.2,13l2.3,0l1.2,2
		c0.1,0.2,0.3,0.2,0.4,0.2c0.1,0,0.2,0,0.3-0.1c0.2-0.1,0.3-0.4,0.2-0.7L20.6,13l1.4,0c0.3,0,0.5-0.2,0.5-0.5
		C22.5,12.2,22.3,12,22,12z"/>
</g>
<g id="Outline_Icons">
	<g>
		<g>
			<line class="st2" x1="11.5" y1="8" x2="11.5" y2="2"/>
			<polyline class="st2" points="9.3,2.9 11.5,4.2 13.7,2.9 			"/>
		</g>
		<g>
			<line class="st2" x1="11.5" y1="17" x2="11.5" y2="23"/>
			<polyline class="st2" points="9.3,22.1 11.5,20.8 13.7,22.1 			"/>
		</g>
		<g>
			<line class="st2" x1="7" y1="12.5" x2="1" y2="12.5"/>
			<polyline class="st2" points="1.9,14.7 3.2,12.5 1.9,10.3 			"/>
		</g>
		<g>
			<line class="st2" x1="16" y1="12.5" x2="22" y2="12.5"/>
			<polyline class="st2" points="21.1,14.7 19.7,12.5 21.1,10.3 			"/>
		</g>
		<g>
			<line class="st2" x1="8.5" y1="9.5" x2="4.1" y2="5.1"/>
			<polyline class="st2" points="3.1,7.3 5.7,6.7 6.3,4.1 			"/>
		</g>
		<g>
			<line class="st2" x1="14.5" y1="15.5" x2="18.9" y2="19.9"/>
			<polyline class="st2" points="16.7,20.9 17.3,18.3 19.9,17.7 			"/>
		</g>
		<g>
			<line class="st2" x1="8.5" y1="15.5" x2="4.1" y2="19.9"/>
			<polyline class="st2" points="6.3,20.9 5.6,18.3 3.1,17.7 			"/>
		</g>
		<g>
			<line class="st2" x1="14.5" y1="9.5" x2="18.9" y2="5.1"/>
			<polyline class="st2" points="19.9,7.3 17.3,6.7 16.7,4.1 			"/>
		</g>
		<polygon class="st3" points="16,12.5 19,9.5 14.5,9.5 14.5,5 11.5,8 8.5,5 8.5,9.5 4,9.5 7,12.5 4,15.5 8.5,15.5 8.5,20 11.5,17 
			14.5,20 14.5,15.5 19,15.5 		"/>
	</g>
</g>
</svg>
