<?xml version="1.0" encoding="utf-8"?>
<!-- Generator: Adobe Illustrator 19.2.0, SVG Export Plug-In . SVG Version: 6.00 Build 0)  -->
<svg version="1.1" id="Layer_1" xmlns="http://www.w3.org/2000/svg" xmlns:xlink="http://www.w3.org/1999/xlink" x="0px" y="0px"
	 viewBox="0 0 24 24" style="enable-background:new 0 0 24 24;" xml:space="preserve">
<style type="text/css">
	.st0{display:none;}
	.st1{display:inline;}
	.st2{fill:none;stroke:#000000;stroke-linejoin:round;stroke-miterlimit:10;}
	.st3{fill:none;stroke:#000000;stroke-linecap:round;stroke-linejoin:round;stroke-miterlimit:10;}
</style>
<g id="Filled_Icons" class="st0">
	<g class="st1">
		<path d="M20.2,19H3.8L2,23.3c-0.1,0.2,0,0.3,0,0.5S2.3,24,2.5,24h19c0,0,0,0,0,0c0.3,0,0.5-0.2,0.5-0.5c0-0.1,0-0.2-0.1-0.3
			L20.2,19z"/>
		<path d="M9.4,18C8.5,17.3,8,16.2,8,15c0-0.6,0.2-1.2,0.4-1.7l-1.6-0.8c-0.2-0.1-0.3-0.4-0.2-0.7c0.1-0.2,0.4-0.3,0.7-0.2L9,12.4
			c0.4-0.4,0.8-0.8,1.3-1C9.5,10.9,9,10,9,9c0-1.7,1.3-3,3-3s3,1.3,3,3c0,1-0.5,1.9-1.2,2.4c0.5,0.2,0.9,0.6,1.3,1l1.7-0.9
			c0.2-0.1,0.5,0,0.7,0.2c0.1,0.2,0,0.5-0.2,0.7l-1.6,0.8c0.3,0.5,0.4,1.1,0.4,1.7c0,1.2-0.5,2.3-1.4,3h5.8c1.6-2,2.5-4.4,2.5-7
			c0-6.1-4.9-11-11-11C5.9,0,1,4.9,1,11c0,2.6,0.9,5,2.5,7H9.4z M20.5,8C20.8,8,21,8.2,21,8.5C21,8.8,20.8,9,20.5,9S20,8.8,20,8.5
			C20,8.2,20.2,8,20.5,8z M19.5,13c0.3,0,0.5,0.2,0.5,0.5S19.8,14,19.5,14S19,13.8,19,13.5C19,13.2,19.2,13,19.5,13z M17.5,6
			C17.8,6,18,6.2,18,6.5C18,6.8,17.8,7,17.5,7S17,6.8,17,6.5C17,6.2,17.2,6,17.5,6z M17.5,9C17.8,9,18,9.2,18,9.5
			c0,0.3-0.2,0.5-0.5,0.5S17,9.8,17,9.5C17,9.2,17.2,9,17.5,9z M14.5,4C14.8,4,15,4.2,15,4.5C15,4.8,14.8,5,14.5,5S14,4.8,14,4.5
			C14,4.2,14.2,4,14.5,4z M12.5,2C12.8,2,13,2.2,13,2.5C13,2.8,12.8,3,12.5,3C12.2,3,12,2.8,12,2.5C12,2.2,12.2,2,12.5,2z M8.5,3
			C8.8,3,9,3.2,9,3.5C9,3.8,8.8,4,8.5,4C8.2,4,8,3.8,8,3.5C8,3.2,8.2,3,8.5,3z M7.5,6C7.8,6,8,6.2,8,6.5C8,6.8,7.8,7,7.5,7
			C7.2,7,7,6.8,7,6.5C7,6.2,7.2,6,7.5,6z M4.5,14C4.2,14,4,13.8,4,13.5S4.2,13,4.5,13C4.8,13,5,13.2,5,13.5C5,13.8,4.8,14,4.5,14z
			 M5.5,10C5.8,10,6,10.2,6,10.5C6,10.8,5.8,11,5.5,11C5.2,11,5,10.8,5,10.5C5,10.2,5.2,10,5.5,10z M4.5,7C4.8,7,5,7.2,5,7.5
			C5,7.8,4.8,8,4.5,8C4.2,8,4,7.8,4,7.5C4,7.2,4.2,7,4.5,7z"/>
	</g>
</g>
<g id="Outline_Icons">
	<g>
		<path class="st2" d="M4.6,18.5c-1.9-1.9-3.1-4.5-3.1-7.5C1.5,5.2,6.2,0.5,12,0.5S22.5,5.2,22.5,11c0,2.9-1.2,5.5-3.1,7.4"/>
		<polygon class="st3" points="4.5,18.5 19.5,18.5 21.5,23.5 2.5,23.5 		"/>
		<circle class="st2" cx="12" cy="15" r="3.5"/>
		<circle class="st2" cx="12" cy="9" r="2.5"/>
		<line class="st3" x1="14.9" y1="13" x2="17" y2="12"/>
		<line class="st3" x1="9.1" y1="13" x2="7" y2="12"/>
		<g>
			<path d="M17.5,6C17.2,6,17,6.2,17,6.5C17,6.8,17.2,7,17.5,7S18,6.8,18,6.5C18,6.2,17.8,6,17.5,6L17.5,6z"/>
		</g>
		<g>
			<path d="M17.5,9C17.2,9,17,9.2,17,9.5c0,0.3,0.2,0.5,0.5,0.5S18,9.8,18,9.5C18,9.2,17.8,9,17.5,9L17.5,9z"/>
		</g>
		<g>
			<path d="M5.5,10C5.2,10,5,10.2,5,10.5C5,10.8,5.2,11,5.5,11C5.8,11,6,10.8,6,10.5C6,10.2,5.8,10,5.5,10L5.5,10z"/>
		</g>
		<g>
			<path d="M14.5,4C14.2,4,14,4.2,14,4.5C14,4.8,14.2,5,14.5,5S15,4.8,15,4.5C15,4.2,14.8,4,14.5,4L14.5,4z"/>
		</g>
		<g>
			<path d="M12.5,2C12.2,2,12,2.2,12,2.5C12,2.8,12.2,3,12.5,3C12.8,3,13,2.8,13,2.5C13,2.2,12.8,2,12.5,2L12.5,2z"/>
		</g>
		<g>
			<path d="M4.5,13C4.2,13,4,13.2,4,13.5S4.2,14,4.5,14C4.8,14,5,13.8,5,13.5S4.8,13,4.5,13L4.5,13z"/>
		</g>
		<g>
			<path d="M4.5,7C4.2,7,4,7.2,4,7.5C4,7.8,4.2,8,4.5,8C4.8,8,5,7.8,5,7.5C5,7.2,4.8,7,4.5,7L4.5,7z"/>
		</g>
		<g>
			<path d="M7.5,6C7.2,6,7,6.2,7,6.5C7,6.8,7.2,7,7.5,7C7.8,7,8,6.8,8,6.5C8,6.2,7.8,6,7.5,6L7.5,6z"/>
		</g>
		<g>
			<path d="M20.5,8C20.2,8,20,8.2,20,8.5C20,8.8,20.2,9,20.5,9S21,8.8,21,8.5C21,8.2,20.8,8,20.5,8L20.5,8z"/>
		</g>
		<g>
			<path d="M8.5,3C8.2,3,8,3.2,8,3.5C8,3.8,8.2,4,8.5,4C8.8,4,9,3.8,9,3.5C9,3.2,8.8,3,8.5,3L8.5,3z"/>
		</g>
		<g>
			<path d="M19.5,13c-0.3,0-0.5,0.2-0.5,0.5s0.2,0.5,0.5,0.5s0.5-0.2,0.5-0.5S19.8,13,19.5,13L19.5,13z"/>
		</g>
	</g>
</g>
</svg>
