<?xml version="1.0" encoding="utf-8"?>
<!-- Generator: Adobe Illustrator 19.2.0, SVG Export Plug-In . SVG Version: 6.00 Build 0)  -->
<svg version="1.1" id="Layer_1" xmlns="http://www.w3.org/2000/svg" xmlns:xlink="http://www.w3.org/1999/xlink" x="0px" y="0px"
	 viewBox="0 0 24 24" style="enable-background:new 0 0 24 24;" xml:space="preserve">
<style type="text/css">
	.st0{display:none;}
	.st1{display:inline;}
	.st2{fill:none;stroke:#000000;stroke-linejoin:round;stroke-miterlimit:10;}
	.st3{fill:none;stroke:#000000;stroke-linecap:round;stroke-linejoin:round;stroke-miterlimit:10;}
</style>
<g id="Filled_Icons" class="st0">
	<path class="st1" d="M22.7,14c-0.1-0.2-0.4-0.3-0.7-0.2L20,15l-1.3-0.7l1.5-0.9c0.2-0.1,0.3-0.4,0.2-0.7c-0.1-0.2-0.5-0.3-0.7-0.2
		l-2,1.2L17,13.4V9.8l0.6-0.3l2,1.2c0.1,0,0.2,0.1,0.3,0.1c0.2,0,0.3-0.1,0.4-0.2c0.1-0.2,0.1-0.5-0.2-0.7l-1.5-0.9L20,8.2l2,1.2
		c0.1,0,0.2,0.1,0.3,0.1c0.2,0,0.3-0.1,0.4-0.2c0.1-0.2,0.1-0.5-0.2-0.7L21,7.7L22.2,7c0.2-0.1,0.3-0.4,0.2-0.7
		C22.3,6.1,22,6,21.8,6.1l-1.2,0.6l0.1-1.7c0-0.3-0.2-0.5-0.5-0.5c-0.3,0-0.5,0.2-0.5,0.5l-0.1,2.3L18.2,8l0.1-1.7
		c0-0.3-0.2-0.5-0.5-0.5c-0.3,0-0.5,0.2-0.5,0.5l-0.1,2.3l-0.6,0.3L13,6.5V5.8l2-1.2c0.2-0.1,0.3-0.5,0.2-0.7
		c-0.1-0.2-0.5-0.3-0.7-0.2L13,4.6V3.1l2-1.2c0.2-0.1,0.3-0.5,0.2-0.7C15,1,14.7,0.9,14.5,1.1L13,1.9V0.6c0-0.3-0.2-0.5-0.5-0.5
		c-0.3,0-0.5,0.2-0.5,0.5V2l-1.5-0.9C10.3,0.9,10,1,9.8,1.2C9.7,1.5,9.8,1.8,10,1.9l2,1.2v1.5l-1.5-0.9C10.3,3.6,10,3.7,9.8,3.9
		C9.7,4.1,9.8,4.4,10,4.6l2,1.2v0.7L8.4,8.9L7.8,8.6L7.7,6.3c0-0.3-0.3-0.5-0.5-0.5C6.9,5.8,6.7,6,6.7,6.3L6.8,8L5.5,7.3L5.3,5
		c0-0.3-0.3-0.5-0.5-0.5c-0.3,0-0.5,0.3-0.5,0.5l0.1,1.7L3.2,6.1C3,6,2.7,6.1,2.6,6.3C2.4,6.6,2.5,6.9,2.8,7L4,7.7L2.5,8.5
		C2.3,8.7,2.2,9,2.3,9.2c0.1,0.2,0.3,0.2,0.4,0.2c0.1,0,0.2,0,0.3-0.1l2-1.2l1.3,0.7L4.8,9.8c-0.2,0.1-0.3,0.4-0.2,0.7
		c0.1,0.2,0.3,0.2,0.4,0.2c0.1,0,0.2,0,0.3-0.1l2-1.2L8,9.8v3.6l-0.6,0.3l-2-1.2c-0.2-0.1-0.5-0.1-0.7,0.2c-0.1,0.2-0.1,0.5,0.2,0.7
		l1.5,0.9L5,15l-2-1.2c-0.2-0.1-0.5-0.1-0.7,0.2c-0.1,0.2-0.1,0.5,0.2,0.7L4,15.6l-1.2,0.6c-0.2,0.1-0.3,0.4-0.2,0.7
		C2.7,17,2.8,17.1,3,17.1c0.1,0,0.2,0,0.2-0.1l1.2-0.6l-0.1,1.7c0,0.3,0.2,0.5,0.5,0.5c0,0,0,0,0,0c0.3,0,0.5-0.2,0.5-0.5l0.1-2.3
		l1.3-0.7l-0.1,1.7c0,0.3,0.2,0.5,0.5,0.5c0,0,0,0,0,0c0.3,0,0.5-0.2,0.5-0.5l0.1-2.3l0.6-0.3l3.6,2.4v0.7l-2,1.2
		c-0.2,0.1-0.3,0.5-0.2,0.7c0.1,0.2,0.5,0.3,0.7,0.2l1.5-0.9v1.5l-2,1.2c-0.2,0.1-0.3,0.5-0.2,0.7c0.1,0.2,0.5,0.3,0.7,0.2l1.5-0.9
		v1.4c0,0.3,0.2,0.5,0.5,0.5c0.3,0,0.5-0.2,0.5-0.5v-1.3l1.5,0.9c0.1,0,0.2,0.1,0.3,0.1c0.2,0,0.3-0.1,0.4-0.2
		c0.1-0.2,0.1-0.5-0.2-0.7l-2-1.2v-1.5l1.5,0.9c0.1,0,0.2,0.1,0.3,0.1c0.2,0,0.3-0.1,0.4-0.2c0.1-0.2,0.1-0.5-0.2-0.7l-2-1.2v-0.7
		l3.6-2.4l0.6,0.3l0.1,2.3c0,0.3,0.2,0.5,0.5,0.5c0,0,0,0,0,0c0.3,0,0.5-0.3,0.5-0.5l-0.1-1.7l1.3,0.7l0.1,2.3
		c0,0.3,0.2,0.5,0.5,0.5c0,0,0,0,0,0c0.3,0,0.5-0.3,0.5-0.5l-0.1-1.7l1.2,0.6c0.1,0,0.2,0.1,0.2,0.1c0.2,0,0.4-0.1,0.4-0.3
		c0.1-0.2,0-0.5-0.2-0.7L21,15.6l1.5-0.9C22.7,14.5,22.8,14.2,22.7,14z"/>
</g>
<g id="Outline_Icons">
	<g>
		<polygon class="st2" points="12.5,6.8 8.5,9.5 8.5,13.7 12.5,16.4 16.5,13.7 16.5,9.5 		"/>
		<g>
			<polyline class="st3" points="10.3,1.5 12.5,2.8 14.7,1.5 			"/>
			<line class="st3" x1="12.5" y1="6.8" x2="12.5" y2="0.6"/>
			<polyline class="st3" points="10.3,4.2 12.5,5.5 14.7,4.1 			"/>
		</g>
		<g>
			<line class="st3" x1="12.5" y1="16.4" x2="12.5" y2="22.6"/>
			<polyline class="st3" points="10.3,21.7 12.5,20.3 14.7,21.7 			"/>
			<polyline class="st3" points="10.3,19 12.5,17.7 14.7,19 			"/>
		</g>
		<g>
			<line class="st3" x1="8.5" y1="13.7" x2="3" y2="16.6"/>
			<polyline class="st3" points="2.8,14.2 5,15.6 4.8,18.2 			"/>
			<polyline class="st3" points="5.1,13 7.3,14.3 7.2,16.9 			"/>
		</g>
		<g>
			<line class="st3" x1="8.5" y1="9.5" x2="3" y2="6.6"/>
			<polyline class="st3" points="2.8,9 5,7.6 4.8,5 			"/>
			<polyline class="st3" points="5.1,10.2 7.3,8.9 7.2,6.3 			"/>
		</g>
		<g>
			<line class="st3" x1="16.5" y1="13.7" x2="22" y2="16.6"/>
			<polyline class="st3" points="22.2,14.2 20,15.6 20.2,18.2 			"/>
			<polyline class="st3" points="19.9,13 17.7,14.3 17.8,16.9 			"/>
		</g>
		<g>
			<line class="st3" x1="16.5" y1="9.5" x2="22" y2="6.6"/>
			<polyline class="st3" points="22.2,9 20,7.6 20.2,5 			"/>
			<polyline class="st3" points="19.9,10.2 17.7,8.9 17.8,6.3 			"/>
		</g>
	</g>
</g>
</svg>
