<?xml version="1.0" encoding="utf-8"?>
<!-- Generator: Adobe Illustrator 19.2.0, SVG Export Plug-In . SVG Version: 6.00 Build 0)  -->
<svg version="1.1" id="Layer_1" xmlns="http://www.w3.org/2000/svg" xmlns:xlink="http://www.w3.org/1999/xlink" x="0px" y="0px"
	 viewBox="0 0 24 24" style="enable-background:new 0 0 24 24;" xml:space="preserve">
<style type="text/css">
	.st0{display:none;}
	.st1{display:inline;}
	.st2{fill:none;stroke:#000000;stroke-linecap:round;stroke-linejoin:round;stroke-miterlimit:10;}
</style>
<g id="Filled_Icon" class="st0">
	<g class="st1">
		<path d="M21.3,8c0.3-1,0.2-2.1-0.4-2.9c-0.7-1-1.8-1.6-3-1.6C17,1.4,14.9,0,12.5,0C9.5,0,7,2.2,6.6,5.1C3.9,5.5,2,7.8,2,10.5
			c0,3,2.5,5.5,5.5,5.5h11c2.5,0,4.5-2,4.5-4.5C23,10.1,22.4,8.9,21.3,8z"/>
		<g>
			<g>
				<path d="M18.5,19.5c-0.3,0-0.5,0.2-0.5,0.5s0.2,0.5,0.5,0.5S19,20.3,19,20S18.8,19.5,18.5,19.5L18.5,19.5z"/>
			</g>
		</g>
		<g>
			<g>
				<path d="M18.5,22.5c-0.3,0-0.5,0.2-0.5,0.5s0.2,0.5,0.5,0.5S19,23.3,19,23S18.8,22.5,18.5,22.5L18.5,22.5z"/>
			</g>
		</g>
		<g>
			<g>
				<path d="M16.5,21c-0.3,0-0.5,0.2-0.5,0.5s0.2,0.5,0.5,0.5s0.5-0.2,0.5-0.5S16.8,21,16.5,21L16.5,21z"/>
			</g>
		</g>
		<g>
			<g>
				<path d="M16.5,18c-0.3,0-0.5,0.2-0.5,0.5s0.2,0.5,0.5,0.5s0.5-0.2,0.5-0.5S16.8,18,16.5,18L16.5,18z"/>
			</g>
		</g>
		<g>
			<g>
				<path d="M8.5,21C8.2,21,8,21.2,8,21.5S8.2,22,8.5,22S9,21.8,9,21.5S8.8,21,8.5,21L8.5,21z"/>
			</g>
		</g>
		<g>
			<g>
				<path d="M6.5,22.5C6.2,22.5,6,22.7,6,23s0.2,0.5,0.5,0.5S7,23.3,7,23S6.8,22.5,6.5,22.5L6.5,22.5z"/>
			</g>
		</g>
		<g>
			<g>
				<path d="M8.5,18C8.2,18,8,18.2,8,18.5S8.2,19,8.5,19S9,18.8,9,18.5S8.8,18,8.5,18L8.5,18z"/>
			</g>
		</g>
		<g>
			<g>
				<path d="M6.5,19.5C6.2,19.5,6,19.7,6,20s0.2,0.5,0.5,0.5S7,20.3,7,20S6.8,19.5,6.5,19.5L6.5,19.5z"/>
			</g>
		</g>
		<g>
			<path d="M11.5,24c-0.1,0-0.3,0-0.4-0.1c-0.2-0.2-0.2-0.5,0-0.7l1.6-1.6h-1.3c-0.2,0-0.4-0.1-0.5-0.3c-0.1-0.2,0-0.4,0.1-0.5
				l2.5-2.5c0.2-0.2,0.5-0.2,0.7,0s0.2,0.5,0,0.7l-1.6,1.7H14c0.2,0,0.4,0.1,0.5,0.3c0.1,0.2,0,0.4-0.1,0.5L11.9,24
				C11.8,24,11.6,24,11.5,24z"/>
		</g>
	</g>
</g>
<g id="Outline_Icons">
	<g>
		<path class="st2" d="M20.8,8.2C21.7,6.1,20,3.7,17.6,4c-0.8-2.1-2.8-3.5-5.1-3.5c-2.9,0-5.2,2.2-5.5,5c-2.5,0.2-4.5,2.4-4.5,5
			c0,2.8,2.2,5,5,5h11c2.2,0,4-1.8,4-4C22.5,10.1,21.8,8.9,20.8,8.2z"/>
		<g>
			<g>
				<path d="M18.5,19.5c-0.3,0-0.5,0.2-0.5,0.5s0.2,0.5,0.5,0.5S19,20.3,19,20S18.8,19.5,18.5,19.5L18.5,19.5z"/>
			</g>
		</g>
		<g>
			<g>
				<path d="M18.5,22.5c-0.3,0-0.5,0.2-0.5,0.5s0.2,0.5,0.5,0.5S19,23.3,19,23S18.8,22.5,18.5,22.5L18.5,22.5z"/>
			</g>
		</g>
		<g>
			<g>
				<path d="M16.5,21c-0.3,0-0.5,0.2-0.5,0.5s0.2,0.5,0.5,0.5s0.5-0.2,0.5-0.5S16.8,21,16.5,21L16.5,21z"/>
			</g>
		</g>
		<g>
			<g>
				<path d="M16.5,18c-0.3,0-0.5,0.2-0.5,0.5s0.2,0.5,0.5,0.5s0.5-0.2,0.5-0.5S16.8,18,16.5,18L16.5,18z"/>
			</g>
		</g>
		<g>
			<g>
				<path d="M8.5,21C8.2,21,8,21.2,8,21.5S8.2,22,8.5,22S9,21.8,9,21.5S8.8,21,8.5,21L8.5,21z"/>
			</g>
		</g>
		<g>
			<g>
				<path d="M6.5,22.5C6.2,22.5,6,22.7,6,23s0.2,0.5,0.5,0.5S7,23.3,7,23S6.8,22.5,6.5,22.5L6.5,22.5z"/>
			</g>
		</g>
		<g>
			<g>
				<path d="M8.5,18C8.2,18,8,18.2,8,18.5S8.2,19,8.5,19S9,18.8,9,18.5S8.8,18,8.5,18L8.5,18z"/>
			</g>
		</g>
		<g>
			<g>
				<path d="M6.5,19.5C6.2,19.5,6,19.7,6,20s0.2,0.5,0.5,0.5S7,20.3,7,20S6.8,19.5,6.5,19.5L6.5,19.5z"/>
			</g>
		</g>
		<polyline class="st2" points="11.5,23.5 14,21 11.5,21 14,18.5 		"/>
	</g>
</g>
</svg>
