<?xml version="1.0" encoding="utf-8"?>
<!-- Generator: Adobe Illustrator 19.2.0, SVG Export Plug-In . SVG Version: 6.00 Build 0)  -->
<svg version="1.1" id="Layer_1" xmlns="http://www.w3.org/2000/svg" xmlns:xlink="http://www.w3.org/1999/xlink" x="0px" y="0px"
	 viewBox="0 0 24 24" style="enable-background:new 0 0 24 24;" xml:space="preserve">
<style type="text/css">
	.st0{display:none;}
	.st1{display:inline;}
	.st2{fill:none;stroke:#000000;stroke-linejoin:round;stroke-miterlimit:10;}
</style>
<g id="Filled_Icons" class="st0">
	<g class="st1">
		<rect x="11" y="12.5" width="2" height="2"/>
		<rect x="17" y="15.5" width="2" height="2.5"/>
		<rect x="8" y="12.5" width="2" height="2"/>
		<rect x="17" y="12.5" width="2" height="2"/>
		<rect x="14" y="12.5" width="2" height="2"/>
		<rect x="8" y="15.5" width="2" height="2.5"/>
		<rect x="11" y="15.5" width="2" height="2.5"/>
		<rect x="14" y="15.5" width="2" height="2.5"/>
		<rect x="17" y="9" width="2" height="2.5"/>
		<rect x="8" y="9" width="2" height="2.5"/>
		<polygon points="0.7,4 4.7,8 7,8 8,8 10,8 11,8 13,8 14,8 16,8 17,8 19.3,8 23.3,4 		"/>
		<rect x="5" y="12.5" width="2" height="2"/>
		<rect x="5" y="15.5" width="2" height="2.5"/>
		<path d="M4,15.5v-1v-2v-1V8.7l-4-4v14.8c0,0.2,0.1,0.3,0.2,0.4S0.4,20,0.5,20s0.2,0,0.2-0.1L4,18.3V15.5z"/>
		<rect x="5" y="9" width="2" height="2.5"/>
		<rect x="11" y="9" width="2" height="2.5"/>
		<path d="M20,8.7v9.6l3.3,1.6c0.2,0.1,0.3,0.1,0.5,0c0.1-0.1,0.2-0.3,0.2-0.4V4.7L20,8.7z"/>
		<rect x="14" y="9" width="2" height="2.5"/>
	</g>
</g>
<g id="Outline_Icons">
	<g>
		<polygon class="st2" points="23.5,4.5 0.5,4.5 0.5,19.5 4.5,17.5 19.5,17.5 23.5,19.5 		"/>
		<rect x="4.5" y="8.5" class="st2" width="15" height="9"/>
		<line class="st2" x1="19.5" y1="8.5" x2="23.5" y2="4.5"/>
		<line class="st2" x1="4.5" y1="8.5" x2="0.5" y2="4.5"/>
		<line class="st2" x1="7.5" y1="8.5" x2="7.5" y2="17.5"/>
		<line class="st2" x1="10.5" y1="8.5" x2="10.5" y2="17.5"/>
		<line class="st2" x1="13.5" y1="8.5" x2="13.5" y2="17.5"/>
		<line class="st2" x1="16.5" y1="8.5" x2="16.5" y2="17.5"/>
		<line class="st2" x1="4.5" y1="11.5" x2="19.5" y2="11.5"/>
		<line class="st2" x1="4.5" y1="14.5" x2="19.5" y2="14.5"/>
	</g>
</g>
</svg>
