<?xml version="1.0" encoding="utf-8"?>
<!-- Generator: Adobe Illustrator 19.2.0, SVG Export Plug-In . SVG Version: 6.00 Build 0)  -->
<svg version="1.1" id="Layer_1" xmlns="http://www.w3.org/2000/svg" xmlns:xlink="http://www.w3.org/1999/xlink" x="0px" y="0px"
	 viewBox="0 0 24 24" style="enable-background:new 0 0 24 24;" xml:space="preserve">
<style type="text/css">
	.st0{display:none;}
	.st1{display:inline;}
	.st2{fill:none;stroke:#000000;stroke-linejoin:round;stroke-miterlimit:10;}
</style>
<g id="Filled_Icons" class="st0">
	<g class="st1">
		<path d="M11,15.5c-1.7-0.2-3-1.7-3-3.4c0-1.8,1.3-3.2,3-3.4V4H0.5C0.2,4,0,4.2,0,4.5V7h4.5C4.8,7,5,7.2,5,7.5v9
			c0,0.1-0.1,0.3-0.1,0.4C4.8,17,4.6,17,4.5,17H0v2.5C0,19.8,0.2,20,0.5,20H11V15.5z"/>
		<path d="M18.5,17c-0.3,0-0.5-0.2-0.5-0.5v-9C18,7.2,18.2,7,18.5,7H23V4.5C23,4.2,22.8,4,22.5,4H12v4.6c1.7,0.2,3,1.7,3,3.4
			c0,1.8-1.3,3.2-3,3.4V20h10.5c0.3,0,0.5-0.2,0.5-0.5V17H18.5z"/>
	</g>
</g>
<g id="Outline_Icons">
	<g>
		<rect x="0.5" y="4.5" class="st2" width="22" height="15"/>
		<rect x="0.5" y="7.5" class="st2" width="4" height="9"/>
		<rect x="18.5" y="7.5" class="st2" width="4" height="9"/>
		<line class="st2" x1="11.5" y1="4.5" x2="11.5" y2="19.5"/>
		<circle class="st2" cx="11.5" cy="12" r="3"/>
	</g>
</g>
</svg>
