<?xml version="1.0" encoding="utf-8"?>
<!-- Generator: Adobe Illustrator 19.2.0, SVG Export Plug-In . SVG Version: 6.00 Build 0)  -->
<svg version="1.1" id="Layer_1" xmlns="http://www.w3.org/2000/svg" xmlns:xlink="http://www.w3.org/1999/xlink" x="0px" y="0px"
	 viewBox="0 0 24 24" style="enable-background:new 0 0 24 24;" xml:space="preserve">
<style type="text/css">
	.st0{display:none;}
	.st1{display:inline;}
	.st2{fill:none;stroke:#000000;stroke-linejoin:round;stroke-miterlimit:10;}
</style>
<g id="Filled_Icons" class="st0">
	<g class="st1">
		<path d="M8,23c0.3-0.9,0.5-1.4,0.5-2.4c0-1.8-0.9-3.5-2.4-4.5l-0.6-0.4c-1.5,1-2.1,2.9-1.4,4.7C4.6,22,6.2,23,7.9,23
			C7.9,23,8,23,8,23z"/>
		<path d="M19.5,7C19.8,6.6,20,6.1,20,5.5v-2C20,2.1,18.9,1,17.5,1h-7C9.1,1,8,2.1,8,3.5v2C8,6.1,8.2,6.6,8.5,7H19.5z"/>
		<path d="M17.5,15.2c-2.1-0.3-4,1.4-4,3.5c0,0.6,0.2,1.2,0.5,1.8l0.3,0.5l1.3-0.5c1.5-0.5,2.4-2,2.4-3.8v-1.4L17.5,15.2z"/>
		<path d="M13.1,20.9c-0.4-0.7-0.6-1.5-0.6-2.3c0-2.5,2-4.5,4.5-4.5c0.3,0,0.7,0,1,0.1V8h-8v5.9l-3.5,1.3l0.2,0.1
			c1.8,1.2,2.8,3.2,2.8,5.4c0,0.8-0.1,1.5-0.4,2.2c0.4-0.1,3.8-1.4,4.2-1.6L13.1,20.9z"/>
	</g>
</g>
<g id="Outline_Icons">
	<g>
		<path class="st2" d="M19.5,5.5c0,1.1-0.9,2-2,2h-7c-1.1,0-2-0.9-2-2v-2c0-1.1,0.9-2,2-2h7c1.1,0,2,0.9,2,2V5.5z"/>
		<path class="st2" d="M10.5,14.2l-4,1.5c-1.8,0.7-2.6,2.7-2,4.5c0.5,1.4,1.9,2.3,3.4,2.3c0.4,0,0.8-0.1,1.2-0.2l6.3-2.4
			c1.4-0.5,2.1-1.8,2.1-3.3V7.5h-7V14.2z"/>
		<path class="st2" d="M13.5,20.7c-0.3-0.6-0.5-1.3-0.5-2c0-2.2,1.8-4,4-4c0.2,0,0.3,0,0.5,0"/>
		<path class="st2" d="M6.4,15.7C8,16.8,9,18.6,9,20.7c0,0.6-0.1,1.2-0.3,1.8"/>
	</g>
</g>
</svg>
