<?xml version="1.0" encoding="utf-8"?>
<!-- Generator: Adobe Illustrator 19.2.0, SVG Export Plug-In . SVG Version: 6.00 Build 0)  -->
<svg version="1.1" id="Layer_1" xmlns="http://www.w3.org/2000/svg" xmlns:xlink="http://www.w3.org/1999/xlink" x="0px" y="0px"
	 viewBox="0 0 24 24" style="enable-background:new 0 0 24 24;" xml:space="preserve">
<style type="text/css">
	.st0{display:none;}
	.st1{display:inline;}
	.st2{fill:none;stroke:#000000;stroke-linecap:round;stroke-linejoin:round;stroke-miterlimit:10;}
	.st3{fill:none;stroke:#000000;stroke-linejoin:round;stroke-miterlimit:10;}
</style>
<g id="Filled_Icons" class="st0">
	<g class="st1">
		<path d="M9.5,2C9.8,2,10,1.8,10,1.5v-1C10,0.2,9.8,0,9.5,0S9,0.2,9,0.5v1C9,1.8,9.2,2,9.5,2z"/>
		<path d="M3.1,3.8C3.2,3.9,3.4,4,3.5,4s0.3,0,0.4-0.1C4,3.6,4,3.3,3.9,3.1l-1-1c-0.2-0.2-0.5-0.2-0.7,0S2,2.6,2.1,2.8L3.1,3.8z"/>
		<path d="M15.5,4c0.1,0,0.3,0,0.4-0.1l1-1c0.2-0.2,0.2-0.5,0-0.7s-0.5-0.2-0.7,0l-1,1c-0.2,0.2-0.2,0.5,0,0.7
			C15.2,3.9,15.4,4,15.5,4z"/>
		<path d="M1.5,9h-1C0.2,9,0,9.2,0,9.5S0.2,10,0.5,10h1C1.8,10,2,9.8,2,9.5S1.8,9,1.5,9z"/>
		<path d="M3.9,12.8l2.2-4C6.5,8.3,7,8,7.5,8h8.3c-0.7-2.9-3.2-5-6.3-5C5.9,3,3,5.9,3,9.5C3,10.7,3.3,11.8,3.9,12.8z"/>
		<path d="M14.5,20h-3c-0.3,0-0.5,0.2-0.5,0.5v3c0,0.3,0.2,0.5,0.5,0.5h3c0.3,0,0.5-0.2,0.5-0.5v-3C15,20.2,14.8,20,14.5,20z"/>
		<polygon points="11.6,9 10.9,12 15,12 14.4,9 		"/>
		<polygon points="21,13 16.3,13 16.7,15 22.1,15 		"/>
		<polygon points="15.2,13 10.7,13 10.3,15 15.7,15 		"/>
		<polygon points="10.1,16 9.4,19 16.6,19 15.9,16 		"/>
		<polygon points="5,13 3.9,15 9.3,15 9.7,13 		"/>
		<path d="M23.9,18.2L22.7,16H17l0.7,3h5.9l0,0c0.3,0,0.5-0.2,0.5-0.5C24,18.4,24,18.2,23.9,18.2z"/>
		<path d="M2.1,18.3c-0.1,0.2-0.1,0.3,0,0.5C2.2,18.9,2.3,19,2.5,19h5.9L9,16H3.3L2.1,18.3z"/>
		<path d="M16.1,12h4.4L19,9.3C18.8,9.1,18.7,9,18.5,9h-3.1L16.1,12z"/>
		<path d="M7.1,9.3L5.6,12H10l0.7-3H7.5C7.3,9,7.1,9.1,7.1,9.3z"/>
	</g>
</g>
<g id="Outline_Icons">
	<g>
		<line class="st2" x1="9.5" y1="0.5" x2="9.5" y2="1.5"/>
		<line class="st2" x1="2.5" y1="2.5" x2="3.5" y2="3.5"/>
		<line class="st2" x1="16.5" y1="2.5" x2="15.5" y2="3.5"/>
		<line class="st2" x1="0.5" y1="9.5" x2="1.5" y2="9.5"/>
		<path class="st2" d="M14,5.5c-1.1-1.2-2.7-2-4.5-2c-3.3,0-6,2.7-6,6c0,0.7,0.1,1.3,0.3,2"/>
		<polygon class="st2" points="7.5,9.5 18.5,9.5 23.5,18.5 2.5,18.5 		"/>
		<rect x="11.5" y="18.5" class="st2" width="3" height="5"/>
		<line class="st2" x1="11" y1="9.5" x2="9" y2="18.5"/>
		<line class="st2" x1="15" y1="9.5" x2="17" y2="18.5"/>
		<line class="st3" x1="5.8" y1="12.5" x2="20.2" y2="12.5"/>
		<line class="st3" x1="4.2" y1="15.5" x2="21.8" y2="15.5"/>
	</g>
</g>
</svg>
