<?xml version="1.0" encoding="utf-8"?>
<!-- Generator: Adobe Illustrator 19.2.0, SVG Export Plug-In . SVG Version: 6.00 Build 0)  -->
<svg version="1.1" id="Layer_1" xmlns="http://www.w3.org/2000/svg" xmlns:xlink="http://www.w3.org/1999/xlink" x="0px" y="0px"
	 viewBox="0 0 24 24" style="enable-background:new 0 0 24 24;" xml:space="preserve">
<style type="text/css">
	.st0{display:none;}
	.st1{display:inline;}
	.st2{fill:none;stroke:#000000;stroke-linejoin:round;stroke-miterlimit:10;}
	.st3{fill:none;stroke:#000000;stroke-linecap:round;stroke-linejoin:round;stroke-miterlimit:10;}
</style>
<g id="Filled_Icons" class="st0">
	<path class="st1" d="M13.2,21.1c-1.2-1-1.6-2.8-0.8-4.1c0.6-0.9,1.6-1.5,2.7-1.5c0.2-0.4,0.5-0.8,0.9-1.2V9c0-1.4-1.1-2.5-2.5-2.5
		h-8C4.1,6.5,3,7.6,3,9v12.5C3,22.9,4.1,24,5.5,24H13h0.9C13.2,23.2,12.9,22.1,13.2,21.1z"/>
	<path class="st1" d="M22.7,17.5c-0.5-0.8-1.6-1.2-2.6-0.9c-0.1-1.2-1-2-2.1-2s-2,0.9-2.1,2c-1-0.3-2.1,0-2.6,0.9
		c-0.7,1.1-0.1,2.6,1.2,3.2c-0.6,0.9-0.5,2,0.2,2.7c0.8,0.8,2.4,0.8,3.3-0.3c0.5,0.5,1.1,0.9,1.9,0.9c0.6,0,1.1-0.2,1.5-0.6
		c0.7-0.7,0.8-1.8,0.2-2.7C22.8,20.1,23.4,18.6,22.7,17.5z M18,21c-0.8,0-1.5-0.7-1.5-1.5S17.2,18,18,18s1.5,0.7,1.5,1.5
		S18.8,21,18,21z"/>
	<g class="st1">
		<path d="M9,1v2.5H8.5C8.3,3.5,8.1,3.6,8,3.8L7.4,5.5h4.3L11,3.8c-0.1-0.2-0.3-0.3-0.5-0.3H10V1h3c0.3,0,0.5-0.2,0.5-0.5
			S13.3,0,13,0H6C5.9,0,5.7,0.1,5.6,0.2l-2,2.5c-0.2,0.2-0.2,0.5,0,0.7c0.1,0.1,0.2,0.1,0.3,0.1s0.3-0.1,0.4-0.2L6.2,1H9z"/>
	</g>
</g>
<g id="Outline_Icons">
	<g>
		<path class="st2" d="M22.3,17.7c-0.5-0.8-1.6-1-2.4-0.4c-0.1,0.1-0.2,0.1-0.3,0.2c0.1-0.2,0.1-0.4,0.1-0.6c0-1-0.7-1.9-1.6-1.9
			s-1.6,0.8-1.6,1.9c0,0.2,0,0.4,0.1,0.6c-0.1-0.1-0.2-0.1-0.3-0.2c-0.9-0.5-2-0.3-2.4,0.4c-0.5,0.8-0.1,1.8,0.7,2.4
			c0.3,0.2,0.6,0.3,1,0.3c-0.1,0.1-0.2,0.1-0.2,0.2c-0.7,0.7-0.8,1.8-0.2,2.5c0.6,0.6,1.8,0.6,2.5-0.2c0.2-0.2,0.4-0.5,0.5-0.8
			c0.1,0.3,0.3,0.5,0.5,0.8c0.7,0.7,1.8,0.8,2.5,0.2c0.6-0.6,0.6-1.8-0.2-2.5c-0.1-0.1-0.1-0.1-0.2-0.2c0.3,0,0.7-0.1,1-0.3
			C22.4,19.6,22.8,18.5,22.3,17.7z"/>
		<circle class="st2" cx="18" cy="19.5" r="1.5"/>
		<path class="st2" d="M13,23.5H5.5c-1.1,0-2-0.9-2-2v-13c0-1.1,0.9-2,2-2h8c1.1,0,2,0.9,2,2V14"/>
		<polyline class="st2" points="11.5,6.5 10.5,4 8.5,4 7.5,6.5 		"/>
		<line class="st2" x1="9.5" y1="0.5" x2="9.5" y2="4"/>
		<polyline class="st3" points="13,0.5 6,0.5 3.9,3 		"/>
	</g>
</g>
</svg>
