<?xml version="1.0" encoding="utf-8"?>
<!-- Generator: Adobe Illustrator 19.2.0, SVG Export Plug-In . SVG Version: 6.00 Build 0)  -->
<svg version="1.1" id="Layer_1" xmlns="http://www.w3.org/2000/svg" xmlns:xlink="http://www.w3.org/1999/xlink" x="0px" y="0px"
	 viewBox="0 0 24 24" style="enable-background:new 0 0 24 24;" xml:space="preserve">
<style type="text/css">
	.st0{display:none;}
	.st1{display:inline;}
	.st2{fill:none;stroke:#000000;stroke-linejoin:round;stroke-miterlimit:10;}
	.st3{fill:none;stroke:#000000;stroke-linecap:round;stroke-linejoin:round;stroke-miterlimit:10;}
</style>
<g id="Filled_Icons" class="st0">
	<g class="st1">
		<path d="M20.5,8.9c-1.4,1.3-3.5,2.1-6,2.1s-4.7-0.8-6-2.1C6.9,9.8,6,11,6,12.3c0,2.7,3.7,4.8,8.5,4.8S23,15,23,12.3
			C23,11,22.1,9.8,20.5,8.9z M9.3,11c-0.8,0.6-1.3,1.3-1.1,1.8c0.1,0.3-0.2,0.7-0.5,0.7c-0.2,0-0.4-0.1-0.4-0.3
			c-0.3-0.9,0.2-2,1.4-2.9c0.2-0.2,0.5-0.1,0.7,0.1C9.6,10.6,9.5,10.9,9.3,11z"/>
		<path d="M21,16.5c-1.7,0.9-4,1.5-6.5,1.5c-4,0-7.3-1.3-8.7-3.4c-2.4,1-3.8,2.5-3.8,4.1c0,3,4.4,5.3,10,5.3s10-2.3,10-5.2
			C22,18,21.7,17.2,21,16.5z M6.1,17.2c-1.4,0.7-2.2,1.6-2,2.3c0.1,0.3-0.2,0.6-0.5,0.6c-0.2,0-0.4-0.2-0.5-0.4
			c-0.3-1.2,0.7-2.5,2.6-3.5c0.2-0.1,0.5,0,0.7,0.2C6.5,16.8,6.4,17.1,6.1,17.2z"/>
		<path d="M14.5,1.5C10.9,1.5,8,3.4,8,5.8s2.9,4.3,6.5,4.3S21,8.2,21,5.8S18.1,1.5,14.5,1.5z M13.3,3.5c-1.7,0.3-2.9,1.3-2.8,2.2
			c0,0.3-0.1,0.5-0.4,0.6c-0.3,0-0.5-0.1-0.6-0.4c-0.2-1.5,1.4-3,3.6-3.3c0.3,0,0.5,0.1,0.6,0.4C13.7,3.2,13.6,3.5,13.3,3.5z"/>
	</g>
</g>
<g id="Outline_Icons">
	<g>
		<path class="st2" d="M18.5,8.6c2.4,0.7,4,2.1,4,3.7c0,2.3-3.6,4.2-8,4.2s-8-1.9-8-4.2c0-1.6,1.6-2.9,4-3.7"/>
		<path class="st3" d="M8.5,12.4c0-0.8,0.8-1.5,2-1.8"/>
		<ellipse class="st2" cx="14.5" cy="5.8" rx="6" ry="3.8"/>
		<path class="st3" d="M10.9,5.8c0-1.2,1.6-2.2,3.6-2.2"/>
		<path class="st2" d="M19.2,15.7c1.4,0.8,2.3,1.9,2.3,3.1c0,2.6-4.3,4.8-9.5,4.8s-9.5-2.1-9.5-4.8c0-1.8,2.1-3.4,5.2-4.2"/>
		<path class="st3" d="M4.7,18.9c0-1,1.2-1.9,2.9-2.3"/>
		<ellipse class="st2" cx="14.5" cy="5.8" rx="6" ry="3.8"/>
	</g>
</g>
</svg>
