<?xml version="1.0" encoding="utf-8"?>
<!-- Generator: Adobe Illustrator 19.2.0, SVG Export Plug-In . SVG Version: 6.00 Build 0)  -->
<svg version="1.1" id="Layer_1" xmlns="http://www.w3.org/2000/svg" xmlns:xlink="http://www.w3.org/1999/xlink" x="0px" y="0px"
	 viewBox="0 0 24 24" style="enable-background:new 0 0 24 24;" xml:space="preserve">
<style type="text/css">
	.st0{display:none;}
	.st1{display:inline;}
	.st2{fill:none;stroke:#000000;stroke-linecap:round;stroke-linejoin:round;stroke-miterlimit:10;}
</style>
<g id="Filled_Icons" class="st0">
	<g class="st1">
		<path d="M7,2.6c0,4,0.7,8.3,4.8,8.5c0.1,0,1.5,0.1,2.9-1.2C16.2,8.5,16.9,6,17,2.6V2H7C7,2,7,2.4,7,2.6z"/>
		<path d="M18,2.2v0.4c-0.1,3.7-1,6.4-2.7,8c-0.5,0.5-1.1,0.8-1.6,1c0.8,0.4,1.3,1.2,1.3,2.2V23h5.5c1.4,0,2.5-1.1,2.5-2.5v-12
			C23,5.4,20.9,2.9,18,2.2z"/>
		<path d="M12.8,12.4C8.1,11.6,6.1,9.9,6,2.6V2.2C3.1,2.9,1,5.4,1,8.5v12C1,21.9,2.1,23,3.5,23H14v-9.2C14,13.1,13.5,12.5,12.8,12.4
			z M10.6,19.6C9.3,19.8,8,18.9,8,18.9s-1.3,1-2.6,0.7s-2.1-1.7-2.1-1.7s1.3-1,2.6-0.7C6.5,17.3,7,17.7,7.3,18
			c-0.3-0.4-0.5-1-0.5-1.6C6.8,15.1,8,14,8,14s1.2,1.1,1.2,2.4C9.2,17,9,17.6,8.7,18c0.4-0.3,0.8-0.7,1.4-0.8
			c1.3-0.3,2.6,0.7,2.6,0.7S11.9,19.3,10.6,19.6z"/>
	</g>
</g>
<g id="Outline_Icons">
	<g>
		<path class="st2" d="M22.5,8.5c0-3.3-2.7-6-6-6h-9c-3.3,0-6,2.7-6,6v12c0,1.1,0.9,2,2,2h17c1.1,0,2-0.9,2-2V8.5z"/>
		<path class="st2" d="M14.5,22.5v-8.7c0-1-0.7-1.8-1.7-2c-4.2-0.7-6.3-2-6.3-9.3"/>
		<path class="st2" d="M11.8,11.6c0,0,5.6,0.4,5.7-9"/>
		<path class="st2" d="M9.2,16.4c0,1.3-1.2,2.4-1.2,2.4s-1.2-1.1-1.2-2.4S8,14,8,14S9.2,15.1,9.2,16.4z"/>
		<path class="st2" d="M10.6,19.6C9.3,19.8,8,18.9,8,18.9s0.8-1.4,2.1-1.7c1.3-0.3,2.6,0.7,2.6,0.7S11.9,19.3,10.6,19.6z"/>
		<path class="st2" d="M5.4,19.6C6.7,19.8,8,18.9,8,18.9s-0.8-1.4-2.1-1.7c-1.3-0.3-2.6,0.7-2.6,0.7S4.1,19.3,5.4,19.6z"/>
	</g>
</g>
</svg>
