<?xml version="1.0" encoding="utf-8"?>
<!-- Generator: Adobe Illustrator 19.2.0, SVG Export Plug-In . SVG Version: 6.00 Build 0)  -->
<svg version="1.1" id="Layer_1" xmlns="http://www.w3.org/2000/svg" xmlns:xlink="http://www.w3.org/1999/xlink" x="0px" y="0px"
	 viewBox="0 0 24 24" style="enable-background:new 0 0 24 24;" xml:space="preserve">
<style type="text/css">
	.st0{display:none;}
	.st1{display:inline;}
	.st2{fill:none;stroke:#000000;stroke-linejoin:round;stroke-miterlimit:10;}
	.st3{fill:none;stroke:#000000;stroke-linecap:round;stroke-linejoin:round;stroke-miterlimit:10;}
</style>
<g id="Filled_Icons" class="st0">
	<g class="st1">
		<path d="M16.5,2.1c0.1,0.3,0.2,0.5,0.2,0.8c0.1,0.8-0.1,1.7-0.7,2.6c3.1,1.1,4.9,3.6,4.9,7c0,2.2-0.2,4.1-0.7,5.8
			c2.3-1.7,3.7-4.3,3.7-7.2C24,6.6,20.8,2.9,16.5,2.1z"/>
		<path d="M3,12.4c0-4.7,3.4-7.6,9-7.6c1.1,0,2.1,0.1,3,0.3c0.6-0.7,0.8-1.5,0.7-2.1c-0.2-1.5-2.1-3-5.7-3C4.5,0,0,4.5,0,10
			c0,2.9,1.3,5.6,3.5,7.5C3.2,16,3,14.3,3,12.4z"/>
		<g>
			<path d="M9.5,14C9.2,14,9,13.8,9,13.5S9.2,13,9.5,13h0.9c-0.2-0.7-0.7-1.2-1.4-1.4v0.9C9,12.8,8.8,13,8.5,13S8,12.8,8,12.5v-0.9
				c-0.7,0.2-1.2,0.7-1.4,1.4h0.9C7.8,13,8,13.2,8,13.5S7.8,14,7.5,14H6.6c0.2,0.7,0.7,1.2,1.4,1.4v-0.9C8,14.2,8.2,14,8.5,14
				S9,14.2,9,14.5v0.9c0.7-0.2,1.2-0.7,1.4-1.4H9.5z"/>
			<path d="M16.5,14c-0.3,0-0.5-0.2-0.5-0.5s0.2-0.5,0.5-0.5h0.9c-0.2-0.7-0.7-1.2-1.4-1.4v0.9c0,0.3-0.2,0.5-0.5,0.5
				S15,12.8,15,12.5v-0.9c-0.7,0.2-1.2,0.7-1.4,1.4h0.9c0.3,0,0.5,0.2,0.5,0.5S14.8,14,14.5,14h-0.9c0.2,0.7,0.7,1.2,1.4,1.4v-0.9
				c0-0.3,0.2-0.5,0.5-0.5s0.5,0.2,0.5,0.5v0.9c0.7-0.2,1.2-0.7,1.4-1.4H16.5z"/>
			<path d="M12,5.8c-4.9,0-8,2.5-8,6.6C4,15.3,4,24,12,24c5.3,0,8-3.9,8-11.6C20,8.4,16.9,5.8,12,5.8z M5.5,13.5c0-1.7,1.3-3,3-3
				s3,1.3,3,3s-1.3,3-3,3S5.5,15.2,5.5,13.5z M14,20h-4c-0.3,0-0.5-0.2-0.5-0.5S9.7,19,10,19h4c0.3,0,0.5,0.2,0.5,0.5S14.3,20,14,20
				z M15.5,16.5c-1.7,0-3-1.3-3-3s1.3-3,3-3s3,1.3,3,3S17.2,16.5,15.5,16.5z"/>
		</g>
	</g>
</g>
<g id="Outline_Icons">
	<g>
		<path class="st2" d="M19.5,12.4c0,3.9-0.5,11.1-7.5,11.1s-7.5-7.2-7.5-11.1S7.4,6.3,12,6.3C16.6,6.3,19.5,8.5,19.5,12.4z"/>
		<path class="st2" d="M5.1,18c-2.7-1.7-4.6-4.6-4.6-8c0-5.2,4.3-9.5,9.5-9.5c6,0,7.2,4.3,2,5.9"/>
		<path class="st2" d="M15,2.5c4.7,0,8.5,3.8,8.5,8.5c0,3.4-2,6.3-4.8,7.6"/>
		<circle class="st2" cx="8.5" cy="13.5" r="2.5"/>
		<line class="st3" x1="10" y1="19.5" x2="14" y2="19.5"/>
		<line class="st3" x1="8.5" y1="12.5" x2="8.5" y2="11.5"/>
		<line class="st3" x1="8.5" y1="15.5" x2="8.5" y2="14.5"/>
		<line class="st3" x1="9.5" y1="13.5" x2="10.5" y2="13.5"/>
		<line class="st3" x1="6.5" y1="13.5" x2="7.5" y2="13.5"/>
		<circle class="st2" cx="15.5" cy="13.5" r="2.5"/>
		<line class="st3" x1="15.5" y1="12.5" x2="15.5" y2="11.5"/>
		<line class="st3" x1="15.5" y1="15.5" x2="15.5" y2="14.5"/>
		<line class="st3" x1="16.5" y1="13.5" x2="17.5" y2="13.5"/>
		<line class="st3" x1="13.5" y1="13.5" x2="14.5" y2="13.5"/>
	</g>
</g>
</svg>
