<?xml version="1.0" encoding="utf-8"?>
<!-- Generator: Adobe Illustrator 19.2.0, SVG Export Plug-In . SVG Version: 6.00 Build 0)  -->
<svg version="1.1" id="Outline_Icons" xmlns="http://www.w3.org/2000/svg" xmlns:xlink="http://www.w3.org/1999/xlink" x="0px"
	 y="0px" viewBox="0 0 24 24" style="enable-background:new 0 0 24 24;" xml:space="preserve">
<style type="text/css">
	.st0{fill:none;stroke:#000000;stroke-linejoin:round;stroke-miterlimit:10;}
</style>
<g>
	<path class="st0" d="M21.3,17.7c-0.5-0.8-1.6-1-2.4-0.4c-0.1,0.1-0.2,0.1-0.3,0.2c0.1-0.2,0.1-0.4,0.1-0.6c0-1-0.7-1.9-1.6-1.9
		s-1.6,0.8-1.6,1.9c0,0.2,0,0.4,0.1,0.6c-0.1-0.1-0.2-0.1-0.3-0.2c-0.9-0.5-2-0.3-2.4,0.4s-0.1,1.8,0.7,2.4c0.3,0.2,0.6,0.3,1,0.3
		c-0.1,0.1-0.2,0.1-0.2,0.2c-0.7,0.7-0.8,1.8-0.2,2.5c0.6,0.6,1.8,0.6,2.5-0.2c0.2-0.2,0.4-0.5,0.5-0.8c0.1,0.3,0.3,0.5,0.5,0.8
		c0.7,0.7,1.8,0.8,2.5,0.2c0.6-0.6,0.6-1.8-0.2-2.5c-0.1-0.1-0.1-0.1-0.2-0.2c0.3,0,0.7-0.1,1-0.3C21.4,19.6,21.8,18.5,21.3,17.7z"
		/>
	<circle class="st0" cx="17" cy="19.5" r="1.5"/>
	<path class="st0" d="M14.5,15V9.5c0-0.6-0.4-1-1-1h-8c-0.6,0-1,0.4-1,1v13c0,0.6,0.4,1,1,1H12"/>
	<path class="st0" d="M8.4,0.6c1.3,1,1.2,2.8,0.7,3.6C8.8,3.9,8.5,3.6,8.4,3.1C7.2,3.6,6.6,4.5,6.6,5.6c0,1.6,1.3,2.9,2.9,2.9
		s2.9-1.3,2.9-2.9C12.4,3.3,10.7,1.1,8.4,0.6z"/>
	<path class="st0" d="M4.5,10.5h2V11c0,0.6,0.4,1,1,1s1-0.4,1-1v-0.5h2v2c0,0.6,0.4,1,1,1s1-0.4,1-1v-2h2"/>
</g>
</svg>
