<?xml version="1.0" encoding="utf-8"?>
<!-- Generator: Adobe Illustrator 19.2.0, SVG Export Plug-In . SVG Version: 6.00 Build 0)  -->
<svg version="1.1" id="Layer_1" xmlns="http://www.w3.org/2000/svg" xmlns:xlink="http://www.w3.org/1999/xlink" x="0px" y="0px"
	 viewBox="0 0 24 24" style="enable-background:new 0 0 24 24;" xml:space="preserve">
<style type="text/css">
	.st0{display:none;}
	.st1{display:inline;}
	.st2{fill:none;stroke:#000000;stroke-linejoin:round;stroke-miterlimit:10;}
	.st3{fill:none;stroke:#000000;stroke-linecap:round;stroke-linejoin:round;stroke-miterlimit:10;}
</style>
<g id="Filled_Icons" class="st0">
	<g class="st1">
		<path d="M14.2,21c-1.2-1-1.6-2.8-0.8-4.1c0.6-0.9,1.6-1.5,2.7-1.5c0.1-0.2,0.2-0.3,0.3-0.5c-0.9-2.6-2.1-5.3-3.1-7.3
			c-0.5-1-0.3-2.3,0.6-3l2-1.7c0-0.1,0.1-0.2,0.1-0.4v-2C16,0.2,15.8,0,15.5,0h-12C3.2,0,3,0.2,3,0.5v2c0,0.1,0.1,0.3,0.2,0.4l2,1.7
			c0.9,0.8,1.1,2,0.6,3c-2.1,4.1-5.5,11.6-3.5,14.8C2.9,23.5,4,24,5.5,24H6v-3.5C6,20.2,6.2,20,6.5,20h6c0.3,0,0.5,0.2,0.5,0.5V24
			h0.5c0.5,0,0.9-0.1,1.3-0.2C14.2,23,14,22,14.2,21z M9.5,19c-1.6,0-2.9-1.3-2.9-2.9c0-1.1,0.6-2,1.8-2.5c0.1,0.5,0.4,0.8,0.7,1.1
			c0.5-0.8,0.6-2.6-0.7-3.6c2.3,0.5,4,2.7,4,5C12.4,17.7,11.1,19,9.5,19z"/>
		<path d="M23.7,17.4c-0.5-0.8-1.6-1.2-2.6-0.9c-0.1-1.2-1-2-2.1-2s-2,0.9-2.1,2c-1-0.3-2.1,0-2.6,0.9c-0.6,1-0.2,2.4,0.9,3.1
			c0.1,0.1,0.2,0.1,0.3,0.1c-0.6,0.9-0.5,2,0.2,2.7c0.8,0.8,2.4,0.7,3.3-0.3c0.5,0.6,1.2,0.9,1.9,0.9c0.6,0,1.1-0.2,1.5-0.6
			c0.7-0.7,0.8-1.8,0.2-2.7C23.8,20,24.4,18.5,23.7,17.4z M19,20.9c-0.8,0-1.5-0.7-1.5-1.5s0.7-1.5,1.5-1.5s1.5,0.7,1.5,1.5
			C20.5,20.3,19.8,20.9,19,20.9z"/>
	</g>
</g>
<g id="Outline_Icons">
	<g>
		<path class="st2" d="M23.3,17.6c-0.5-0.8-1.6-1-2.4-0.4c-0.1,0.1-0.2,0.1-0.3,0.2c0.1-0.2,0.1-0.4,0.1-0.6c0-1-0.7-1.9-1.6-1.9
			s-1.6,0.8-1.6,1.9c0,0.2,0,0.4,0.1,0.6c-0.1-0.1-0.2-0.1-0.3-0.2c-0.9-0.5-2-0.3-2.4,0.4c-0.5,0.8-0.1,1.8,0.7,2.4
			c0.3,0.2,0.6,0.3,1,0.3c-0.1,0.1-0.2,0.1-0.2,0.2c-0.7,0.7-0.8,1.8-0.2,2.5c0.6,0.6,1.8,0.6,2.5-0.2c0.2-0.2,0.4-0.5,0.5-0.8
			c0.1,0.3,0.3,0.5,0.5,0.8c0.7,0.7,1.8,0.8,2.5,0.2c0.6-0.6,0.6-1.8-0.2-2.5c-0.1-0.1-0.1-0.1-0.2-0.2c0.3,0,0.7-0.1,1-0.3
			C23.4,19.5,23.8,18.4,23.3,17.6z"/>
		<circle class="st2" cx="19" cy="19.4" r="1.5"/>
		<rect x="6.5" y="20.5" class="st2" width="6" height="3"/>
		<path class="st2" d="M8.4,11.6c1.3,1,1.2,2.8,0.7,3.6c-0.4-0.3-0.7-0.6-0.7-1.1c-1.2,0.5-1.8,1.4-1.8,2.5c0,1.6,1.3,2.9,2.9,2.9
			s2.9-1.3,2.9-2.9C12.4,14.3,10.7,12.1,8.4,11.6z"/>
		<path class="st3" d="M16,13.4c-0.6-1.4-1.9-3.8-2.9-5.6c-0.7-1.2-0.4-2.8,0.6-3.7l1.8-1.6v-2h-6h-6v2l2,1.7
			c1.1,0.9,1.3,2.4,0.7,3.6c-2.4,4.7-7.4,15.7-0.7,15.7h4H13"/>
	</g>
</g>
</svg>
