<?xml version="1.0" encoding="utf-8"?>
<!-- Generator: Adobe Illustrator 19.2.0, SVG Export Plug-In . SVG Version: 6.00 Build 0)  -->
<svg version="1.1" id="Layer_1" xmlns="http://www.w3.org/2000/svg" xmlns:xlink="http://www.w3.org/1999/xlink" x="0px" y="0px"
	 viewBox="0 0 24 24" style="enable-background:new 0 0 24 24;" xml:space="preserve">
<style type="text/css">
	.st0{display:none;}
	.st1{display:inline;}
	.st2{fill:none;stroke:#000000;stroke-linejoin:round;stroke-miterlimit:10;}
</style>
<g id="Filled_Icons" class="st0">
	<g class="st1">
		<g>
			<path d="M21.7,14.9c-0.5,0.8-1.2,1.6-2,2.3c-1.7,1.3-3.7,1.6-5.2,1.6c-1.1,0-2-0.2-2.5-0.3c-0.5,0.1-1.4,0.3-2.5,0.3
				c-1.6,0-3.6-0.3-5.2-1.6c-0.9-0.7-1.5-1.5-2.1-2.4c-1.1,0.9-1.7,1.9-1.7,3c0,3.3,4.8,5.7,11.2,5.7c2.1,0,4.8-0.3,6-0.9
				c0.2-0.1,0.3-0.3,0.3-0.4v-2.6h4.9c0.3,0,0.5-0.2,0.5-0.5C23.5,17.4,22.9,16,21.7,14.9z"/>
		</g>
		<g>
			<path d="M5.1,13.1c-0.7-1.6-0.9-3.2-0.9-4.7c-1.4,0-2.4,0.3-2.5,0.3C1.5,8.8,1.4,9,1.4,9.3c0,0.2,0.6,4.9,3.5,7.2
				c1.5,1.1,3.2,1.4,4.6,1.4c0.2,0,0.3,0,0.4,0C8.4,17.1,6.2,15.6,5.1,13.1z"/>
			<path d="M22.3,8.7c-0.1,0-1.1-0.3-2.5-0.3c0,1.5-0.2,3.2-0.9,4.7c-1.2,2.5-3.4,4-4.9,4.7c0.1,0,0.3,0,0.4,0
				c1.4,0,3.1-0.3,4.6-1.4c2.9-2.3,3.5-7,3.5-7.2C22.6,9,22.5,8.8,22.3,8.7z"/>
		</g>
		<g>
			<path d="M7.4,10c0-1.8,0.6-3.5,1.2-4.8c-1.2-0.7-2.2-1-2.3-1c-0.2-0.1-0.4,0-0.5,0.3C5.7,4.7,4.3,9.1,6,12.7
				c0.9,1.9,2.4,3.1,3.7,3.9C8.7,15.1,7.4,12.8,7.4,10z"/>
			<path d="M18.2,4.5c-0.1-0.3-0.4-0.4-0.6-0.3c-0.1,0-1.1,0.3-2.3,1c0.7,1.3,1.2,3,1.2,4.8c0,2.7-1.3,5.1-2.3,6.6
				c1.3-0.7,2.8-2,3.7-3.9C19.7,9.1,18.3,4.7,18.2,4.5z"/>
		</g>
		<path d="M12.4,2.7c-0.2-0.2-0.5-0.2-0.7,0C11.5,2.8,8.4,6,8.4,10s3.1,7.2,3.2,7.4c0.1,0.1,0.2,0.2,0.4,0.2c0.1,0,0.3-0.1,0.4-0.2
			c0.1-0.1,3.2-3.3,3.2-7.4C15.6,6,12.5,2.8,12.4,2.7z"/>
	</g>
</g>
<g id="Outline_Icons">
	<g>
		<path class="st2" d="M15.1,10c0,3.9-3.1,7-3.1,7s-3.1-3.1-3.1-7S12,3,12,3S15.1,6.1,15.1,10z"/>
		<path class="st2" d="M14.3,6.5c1.6-1.4,3.4-1.9,3.4-1.9s1.4,4.4-0.2,7.8C16,15.9,12,17,12,17"/>
		<path class="st2" d="M18.3,9c2-0.3,3.8,0.2,3.8,0.2s-0.6,4.7-3.4,6.8C16,18.2,12,17,12,17"/>
		<path class="st2" d="M9.8,6.6c-1.7-1.4-3.5-2-3.5-2S4.9,9,6.5,12.4C8,15.9,12,17,12,17"/>
		<path class="st2" d="M5.7,9c-2-0.3-3.8,0.2-3.8,0.2s0.6,4.7,3.4,6.8C8,18.2,12,17,12,17s0,0,0-0.1"/>
		<path class="st2" d="M3.5,14C1.9,14.9,1,16,1,17.3c0,2.9,4.7,5.2,10.8,5.2c2.2,0,4.8-0.3,5.8-0.9v-3.1H23c0.1-2-0.9-3.4-2.4-4.4"
			/>
	</g>
</g>
</svg>
