<?xml version="1.0" encoding="utf-8"?>
<!-- Generator: Adobe Illustrator 19.2.0, SVG Export Plug-In . SVG Version: 6.00 Build 0)  -->
<svg version="1.1" id="Layer_1" xmlns="http://www.w3.org/2000/svg" xmlns:xlink="http://www.w3.org/1999/xlink" x="0px" y="0px"
	 viewBox="0 0 24 24" style="enable-background:new 0 0 24 24;" xml:space="preserve">
<style type="text/css">
	.st0{display:none;}
	.st1{display:inline;}
	.st2{fill:none;stroke:#000000;stroke-linejoin:round;stroke-miterlimit:10;}
	.st3{fill:none;stroke:#000000;stroke-linecap:round;stroke-linejoin:round;stroke-miterlimit:10;}
</style>
<g id="Filled_Icons" class="st0">
	<g class="st1">
		<g>
			<path d="M11.5,13.5c-0.3,0-0.5-0.2-0.5-0.5v-2c0-0.3,0.2-0.5,0.5-0.5S12,10.7,12,11v2C12,13.3,11.8,13.5,11.5,13.5z"/>
		</g>
		<path d="M11.5,0C9.6,0,8,1.6,8,3.5v3C8,6.8,8.2,7,8.5,7h6C14.8,7,15,6.8,15,6.5v-3C15,1.6,13.4,0,11.5,0z M10,4
			C9.7,4,9.5,3.8,9.5,3.5S9.7,3,10,3s0.5,0.2,0.5,0.5S10.3,4,10,4z M13,4c-0.3,0-0.5-0.2-0.5-0.5S12.7,3,13,3s0.5,0.2,0.5,0.5
			S13.3,4,13,4z"/>
		<path d="M3.5,4C1.6,4,0,5.6,0,7.5v3C0,10.8,0.2,11,0.5,11h6C6.8,11,7,10.8,7,10.5v-3C7,5.6,5.4,4,3.5,4z M2,8
			C1.7,8,1.5,7.8,1.5,7.5S1.7,7,2,7s0.5,0.2,0.5,0.5C2.5,7.8,2.3,8,2,8z M5,8C4.7,8,4.5,7.8,4.5,7.5S4.7,7,5,7s0.5,0.2,0.5,0.5
			C5.5,7.8,5.3,8,5,8z"/>
		<path d="M19.5,4C17.6,4,16,5.6,16,7.5v3c0,0.3,0.2,0.5,0.5,0.5h6c0.3,0,0.5-0.2,0.5-0.5v-3C23,5.6,21.4,4,19.5,4z M18,8
			c-0.3,0-0.5-0.2-0.5-0.5S17.7,7,18,7s0.5,0.2,0.5,0.5C18.5,7.8,18.3,8,18,8z M21,8c-0.3,0-0.5-0.2-0.5-0.5S20.7,7,21,7
			s0.5,0.2,0.5,0.5C21.5,7.8,21.3,8,21,8z"/>
		<g>
			<path d="M8,20.2l-3.8,2.9C4,23.2,4,23.5,4,23.7C4.1,23.9,4.3,24,4.5,24H8V20.2z"/>
			<path d="M14,17.5c0-1.4-1.1-2.5-2.5-2.5S9,16.1,9,17.5V24h5V17.5z"/>
			<path d="M18.8,23.1L15,20.2V24h3.5c0.2,0,0.4-0.1,0.5-0.3C19,23.5,19,23.2,18.8,23.1z"/>
		</g>
	</g>
</g>
<g id="Outline_Icons">
	<g>
		<path class="st2" d="M16.5,7.5c0-1.7,1.3-3,3-3s3,1.3,3,3v3h-6V7.5z"/>
		<path class="st2" d="M8.5,3.5c0-1.7,1.3-3,3-3s3,1.3,3,3v3h-6V3.5z"/>
		<path class="st2" d="M0.5,7.5c0-1.7,1.3-3,3-3s3,1.3,3,3v3h-6V7.5z"/>
		<polyline class="st2" points="13.5,19.6 18.5,23.5 4.5,23.5 9.4,19.7 		"/>
		<line class="st3" x1="11.5" y1="11" x2="11.5" y2="13"/>
		<g>
			<path d="M10.5,3C10.2,3,10,3.2,10,3.5S10.2,4,10.5,4S11,3.8,11,3.5S10.8,3,10.5,3L10.5,3z"/>
		</g>
		<g>
			<path d="M12.5,3C12.2,3,12,3.2,12,3.5S12.2,4,12.5,4C12.8,4,13,3.8,13,3.5S12.8,3,12.5,3L12.5,3z"/>
		</g>
		<g>
			<path d="M2.5,7C2.2,7,2,7.2,2,7.5S2.2,8,2.5,8S3,7.8,3,7.5S2.8,7,2.5,7L2.5,7z"/>
		</g>
		<g>
			<path d="M4.5,7C4.2,7,4,7.2,4,7.5S4.2,8,4.5,8S5,7.8,5,7.5S4.8,7,4.5,7L4.5,7z"/>
		</g>
		<g>
			<path d="M18.5,7C18.2,7,18,7.2,18,7.5S18.2,8,18.5,8S19,7.8,19,7.5S18.8,7,18.5,7L18.5,7z"/>
		</g>
		<g>
			<path d="M20.5,7C20.2,7,20,7.2,20,7.5S20.2,8,20.5,8S21,7.8,21,7.5S20.8,7,20.5,7L20.5,7z"/>
		</g>
		<path class="st2" d="M13.5,17.5c0-1.1-0.9-2-2-2c-1.1,0-2,0.9-2,2v6h4V17.5z"/>
	</g>
</g>
</svg>
