<?xml version="1.0" encoding="utf-8"?>
<!-- Generator: Adobe Illustrator 19.2.0, SVG Export Plug-In . SVG Version: 6.00 Build 0)  -->
<svg version="1.1" id="Layer_1" xmlns="http://www.w3.org/2000/svg" xmlns:xlink="http://www.w3.org/1999/xlink" x="0px" y="0px"
	 viewBox="0 0 24 24" style="enable-background:new 0 0 24 24;" xml:space="preserve">
<style type="text/css">
	.st0{display:none;}
	.st1{display:inline;}
	.st2{fill:none;stroke:#000000;stroke-linecap:round;stroke-linejoin:round;stroke-miterlimit:10;}
</style>
<g id="Filled_Icons" class="st0">
	<path class="st1" d="M22.5,11H21V9.5C21,9.2,20.8,9,20.5,9H19V7.5C19,7.2,18.8,7,18.5,7H17V6h1.5C18.8,6,19,5.8,19,5.5v-2
		C19,3.2,18.8,3,18.5,3h-2C16.2,3,16,3.2,16,3.5V5h-1.5C14.2,5,14,5.2,14,5.5V7H9V5.5C9,5.2,8.8,5,8.5,5H7V3.5C7,3.2,6.8,3,6.5,3h-2
		C4.2,3,4,3.2,4,3.5v2C4,5.8,4.2,6,4.5,6H6v1H4.5C4.2,7,4,7.2,4,7.5V9H2.5C2.2,9,2,9.2,2,9.5V11H0.5C0.2,11,0,11.2,0,11.5v6
		C0,17.8,0.2,18,0.5,18h2C2.8,18,3,17.8,3,17.5V14h1v3.5C4,17.8,4.2,18,4.5,18H6v1.5C6,19.8,6.2,20,6.5,20h4c0.3,0,0.5-0.2,0.5-0.5
		v-2c0-0.3-0.2-0.5-0.5-0.5H7v-1h9v1h-3.5c-0.3,0-0.5,0.2-0.5,0.5v2c0,0.3,0.2,0.5,0.5,0.5h4c0.3,0,0.5-0.2,0.5-0.5V18h1.5
		c0.3,0,0.5-0.2,0.5-0.5V14h1v3.5c0,0.3,0.2,0.5,0.5,0.5h2c0.3,0,0.5-0.2,0.5-0.5v-6C23,11.2,22.8,11,22.5,11z M8.5,11.5h-2v-2h2
		V11.5z M16.5,11.5h-2v-2h2V11.5z"/>
</g>
<g id="Outline_Icons">
	<g>
		<rect x="6.5" y="17.5" class="st2" width="4" height="2"/>
		<rect x="12.5" y="17.5" class="st2" width="4" height="2"/>
		<polygon class="st2" points="20.5,11.5 20.5,9.5 18.5,9.5 18.5,7.5 16.5,7.5 16.5,5.5 14.5,5.5 14.5,7.5 8.5,7.5 8.5,5.5 6.5,5.5 
			6.5,7.5 4.5,7.5 4.5,9.5 2.5,9.5 2.5,11.5 0.5,11.5 0.5,17.5 2.5,17.5 2.5,13.5 4.5,13.5 4.5,15.5 4.5,17.5 6.5,17.5 6.5,15.5 
			16.5,15.5 16.5,17.5 18.5,17.5 18.5,15.5 18.5,13.5 20.5,13.5 20.5,17.5 22.5,17.5 22.5,11.5 		"/>
		<rect x="4.5" y="3.5" class="st2" width="2" height="2"/>
		<rect x="16.5" y="3.5" class="st2" width="2" height="2"/>
		<rect x="6.5" y="9.5" class="st2" width="2" height="2"/>
		<rect x="14.5" y="9.5" class="st2" width="2" height="2"/>
	</g>
</g>
</svg>
