<?xml version="1.0" encoding="utf-8"?>
<!-- Generator: Adobe Illustrator 19.2.0, SVG Export Plug-In . SVG Version: 6.00 Build 0)  -->
<svg version="1.1" id="Outline_Icons" xmlns="http://www.w3.org/2000/svg" xmlns:xlink="http://www.w3.org/1999/xlink" x="0px"
	 y="0px" viewBox="0 0 24 24" style="enable-background:new 0 0 24 24;" xml:space="preserve">
<style type="text/css">
	.st0{fill:none;stroke:#000000;stroke-linecap:round;stroke-linejoin:round;stroke-miterlimit:10;}
	.st1{fill:none;stroke:#000000;stroke-linejoin:round;stroke-miterlimit:10;}
</style>
<g>
	<g>
		<path class="st0" d="M13.3,22.5h10.2l-9-7.5V8c0-1.4-1.1-2.5-2.5-2.5S9.5,6.6,9.5,8v7l-9,7.5h10.2"/>
		<polygon class="st0" points="11.5,18.5 12.5,18.5 13.5,23.5 10.5,23.5 		"/>
		<path class="st0" d="M6.5,17.4V6C6.5,3,9,0.5,12,0.5S17.5,3,17.5,6v11.4"/>
		<path class="st0" d="M21.5,20.8V8.5c0-1.1-0.9-2-2-2s-2,0.9-2,2v9"/>
		<path class="st0" d="M2.5,20.8V8.5c0-1.1,0.9-2,2-2s2,0.9,2,2v9"/>
	</g>
	<polygon class="st1" points="11.5,7.5 12.5,7.5 13,10.5 11,10.5 	"/>
</g>
</svg>
