<?xml version="1.0" encoding="utf-8"?>
<!-- Generator: Adobe Illustrator 19.2.0, SVG Export Plug-In . SVG Version: 6.00 Build 0)  -->
<svg version="1.1" id="Layer_1" xmlns="http://www.w3.org/2000/svg" xmlns:xlink="http://www.w3.org/1999/xlink" x="0px" y="0px"
	 viewBox="0 0 24 24" style="enable-background:new 0 0 24 24;" xml:space="preserve">
<style type="text/css">
	.st0{display:none;}
	.st1{display:inline;}
	.st2{fill:none;stroke:#000000;stroke-linejoin:round;stroke-miterlimit:10;}
</style>
<g id="Filled_Icons" class="st0">
	<g class="st1">
		<g>
			<path d="M12.9,13.5l-2.5-2.5c-0.1-0.1-0.1-0.1-0.2-0.2l-5,5l2.8,2.8l5-5C13.1,13.7,13,13.6,12.9,13.5z"/>
			<path d="M4.6,16.6L2,19.2c-0.4,0.4-0.6,0.9-0.6,1.4s0.2,1,0.6,1.4s0.9,0.6,1.4,0.6c0.5,0,1-0.2,1.4-0.6l2.7-2.7L4.6,16.6z"/>
		</g>
		<path d="M23.5,8.6c-1.7-3.6-4.4-6.3-8-8c-0.2-0.1-0.5,0-0.6,0.2L11,7.1c-0.8,1-0.7,2.4,0.2,3.3l2.5,2.5c0.5,0.5,1.1,0.7,1.8,0.7
			c0.6,0,1.1-0.2,1.5-0.5l6.4-3.9C23.5,9.1,23.6,8.8,23.5,8.6z M15.7,11.4c-0.1,0.1-0.2,0.1-0.4,0.1c-0.1,0-0.3,0-0.4-0.1l-2.3-2.3
			c-0.2-0.2-0.2-0.5,0-0.7s0.5-0.2,0.7,0l2.3,2.3C15.9,10.9,15.9,11.2,15.7,11.4z"/>
	</g>
</g>
<g id="Outline_Icons">
	<g>
		<path class="st2" d="M5.3,16.6l2.1,2.1l-3,3c-0.6,0.6-1.5,0.6-2.1,0s-0.6-1.5,0-2.1L5.3,16.6z"/>
		<rect x="5.1" y="12.9" transform="matrix(0.7073 -0.7069 0.7069 0.7073 -7.4037 10.9862)" class="st2" width="9" height="3"/>
		<path class="st2" d="M23,8.8c-1.6-3.5-4.2-6.1-7.8-7.8l-3.9,6.4c-0.6,0.8-0.5,1.9,0.2,2.6l2.5,2.5c0.7,0.7,1.8,0.8,2.6,0.2L23,8.8
			z"/>
		<line class="st2" x1="12.7" y1="8.4" x2="15.6" y2="11.3"/>
	</g>
</g>
</svg>
