<?xml version="1.0" encoding="utf-8"?>
<!-- Generator: Adobe Illustrator 19.2.0, SVG Export Plug-In . SVG Version: 6.00 Build 0)  -->
<svg version="1.1" id="Layer_1" xmlns="http://www.w3.org/2000/svg" xmlns:xlink="http://www.w3.org/1999/xlink" x="0px" y="0px"
	 viewBox="0 0 24 24" style="enable-background:new 0 0 24 24;" xml:space="preserve">
<style type="text/css">
	.st0{display:none;}
	.st1{display:inline;}
	.st2{fill:none;stroke:#000000;stroke-linejoin:round;stroke-miterlimit:10;}
</style>
<g id="Filled_Icon" class="st0">
	<g class="st1">
		<path d="M19.5,0h-15C2,0,0,2,0,4.5v15C0,22,2,24,4.5,24h15c2.5,0,4.5-2,4.5-4.5v-15C24,2,22,0,19.5,0z M3.5,3c0.6,0,1,0.4,1,1
			s-0.4,1-1,1s-1-0.4-1-1S2.9,3,3.5,3z M3.5,21.5c-0.6,0-1-0.4-1-1s0.4-1,1-1s1,0.4,1,1S4.1,21.5,3.5,21.5z M12,20.8
			c-4.8,0-8.8-3.9-8.8-8.8c0-4.8,3.9-8.8,8.8-8.8c4.8,0,8.8,3.9,8.8,8.8C20.8,16.8,16.8,20.8,12,20.8z M20.5,21.5c-0.6,0-1-0.4-1-1
			s0.4-1,1-1s1,0.4,1,1S21.1,21.5,20.5,21.5z M20.5,5c-0.6,0-1-0.4-1-1s0.4-1,1-1s1,0.4,1,1S21.1,5,20.5,5z"/>
		<path d="M12,5c-3.9,0-7,3.1-7,7s3.1,7,7,7s7-3.1,7-7S15.9,5,12,5z M12,18c-3.3,0-6-2.7-6-6s2.7-6,6-6s6,2.7,6,6S15.3,18,12,18z"/>
		<circle cx="12" cy="12" r="1.5"/>
	</g>
</g>
<g id="Outline_Icons">
	<g>
		<path class="st2" d="M23.5,19.5c0,2.2-1.8,4-4,4h-15c-2.2,0-4-1.8-4-4v-15c0-2.2,1.8-4,4-4h15c2.2,0,4,1.8,4,4V19.5z"/>
		<circle class="st2" cx="12" cy="12" r="2"/>
		<circle class="st2" cx="12" cy="12" r="6.5"/>
		<circle class="st2" cx="12" cy="12" r="9"/>
		<path class="st2" d="M4,4c0,0.3-0.2,0.5-0.5,0.5l0,0C3.2,4.5,3,4.3,3,4l0,0c0-0.3,0.2-0.5,0.5-0.5l0,0C3.8,3.5,4,3.7,4,4L4,4z"/>
		<path class="st2" d="M21,4c0,0.3-0.2,0.5-0.5,0.5l0,0C20.2,4.5,20,4.3,20,4l0,0c0-0.3,0.2-0.5,0.5-0.5l0,0C20.8,3.5,21,3.7,21,4
			L21,4z"/>
		<path class="st2" d="M21,20.5c0,0.3-0.2,0.5-0.5,0.5l0,0c-0.3,0-0.5-0.2-0.5-0.5l0,0c0-0.3,0.2-0.5,0.5-0.5l0,0
			C20.8,20,21,20.2,21,20.5L21,20.5z"/>
		<path class="st2" d="M4,20.5C4,20.8,3.8,21,3.5,21l0,0C3.2,21,3,20.8,3,20.5l0,0C3,20.2,3.2,20,3.5,20l0,0C3.8,20,4,20.2,4,20.5
			L4,20.5z"/>
	</g>
</g>
</svg>
