<?xml version="1.0" encoding="utf-8"?>
<!-- Generator: Adobe Illustrator 19.2.0, SVG Export Plug-In . SVG Version: 6.00 Build 0)  -->
<svg version="1.1" id="Layer_1" xmlns="http://www.w3.org/2000/svg" xmlns:xlink="http://www.w3.org/1999/xlink" x="0px" y="0px"
	 viewBox="0 0 24 24" style="enable-background:new 0 0 24 24;" xml:space="preserve">
<style type="text/css">
	.st0{display:none;}
	.st1{display:inline;}
	.st2{fill:none;stroke:#000000;stroke-linejoin:round;stroke-miterlimit:10;}
	.st3{fill:none;stroke:#000000;stroke-linecap:round;stroke-linejoin:round;stroke-miterlimit:10;}
</style>
<g id="Filled_Icon" class="st0">
	<g class="st1">
		<circle cx="12.5" cy="10" r="2.5"/>
		<path d="M18.5,0h-12C5.1,0,4,1.1,4,2.5v12C4,15.9,5.1,17,6.5,17H12v2.8l-3.8,3.3c-0.2,0.2-0.2,0.5,0,0.7c0,0.1,0.2,0.2,0.3,0.2
			s0.2,0,0.3-0.1l3.6-3.2l3.6,3.2c0.1,0.1,0.2,0.1,0.3,0.1c0.1,0,0.3-0.1,0.4-0.2c0.2-0.2,0.2-0.5,0-0.7L13,19.8V17h5.5
			c1.4,0,2.5-1.1,2.5-2.5v-12C21,1.1,19.9,0,18.5,0z M7,3c0-0.6,0.4-1,1-1s1,0.4,1,1S8.6,4,8,4S7,3.6,7,3z M12.5,15
			c-2.8,0-5-2.2-5-5s2.2-5,5-5s5,2.2,5,5S15.3,15,12.5,15z M17,4c-0.6,0-1-0.4-1-1s0.4-1,1-1s1,0.4,1,1S17.6,4,17,4z"/>
	</g>
</g>
<g id="Outline_Icons">
	<g>
		<path class="st2" d="M20.5,2.5c0-1.1-0.9-2-2-2h-12c-1.1,0-2,0.9-2,2v12c0,1.1,0.9,2,2,2h12c1.1,0,2-0.9,2-2V2.5z"/>
		<line class="st3" x1="12.5" y1="16.5" x2="12.5" y2="20"/>
		<line class="st3" x1="12.5" y1="20" x2="8.5" y2="23.5"/>
		<line class="st3" x1="12.5" y1="20" x2="16.5" y2="23.5"/>
		<circle class="st2" cx="12.5" cy="10" r="4.5"/>
		<circle class="st2" cx="12.5" cy="10" r="2"/>
		<circle class="st2" cx="17" cy="3" r="0.5"/>
		<circle class="st2" cx="8" cy="3" r="0.5"/>
	</g>
</g>
</svg>
