<?xml version="1.0" encoding="utf-8"?>
<!-- Generator: Adobe Illustrator 19.2.0, SVG Export Plug-In . SVG Version: 6.00 Build 0)  -->
<svg version="1.1" id="Layer_1" xmlns="http://www.w3.org/2000/svg" xmlns:xlink="http://www.w3.org/1999/xlink" x="0px" y="0px"
	 viewBox="0 0 24 24" style="enable-background:new 0 0 24 24;" xml:space="preserve">
<style type="text/css">
	.st0{display:none;}
	.st1{display:inline;}
	.st2{fill:none;stroke:#000000;stroke-linejoin:round;stroke-miterlimit:10;}
</style>
<g id="Filled_Icon" class="st0">
	<g class="st1">
		<g>
			<path d="M24,13V1.5C24,1.2,23.8,1,23.5,1h-4C19.2,1,19,1.2,19,1.5V13H24z"/>
			<path d="M19,14v8.5c0,0.3,0.2,0.5,0.5,0.5h4c0.3,0,0.5-0.2,0.5-0.5V14H19z"/>
		</g>
		<g>
			<path d="M5,13V1.5C5,1.2,4.8,1,4.5,1h-4C0.2,1,0,1.2,0,1.5V13H5z"/>
			<path d="M0,14v8.5C0,22.8,0.2,23,0.5,23h4C4.8,23,5,22.8,5,22.5V14H0z"/>
		</g>
		<g>
			<circle cx="12" cy="12" r="0.5"/>
			<circle cx="12" cy="18" r="2"/>
			<path d="M16.5,8h-9C7.2,8,7,8.2,7,8.5v14C7,22.8,7.2,23,7.5,23h9c0.3,0,0.5-0.2,0.5-0.5v-14C17,8.2,16.8,8,16.5,8z M12,10.5
				c0.8,0,1.5,0.7,1.5,1.5s-0.7,1.5-1.5,1.5s-1.5-0.7-1.5-1.5S11.2,10.5,12,10.5z M9.5,10c0.3,0,0.5,0.2,0.5,0.5S9.8,11,9.5,11
				S9,10.8,9,10.5S9.2,10,9.5,10z M12,21c-1.7,0-3-1.3-3-3s1.3-3,3-3s3,1.3,3,3S13.7,21,12,21z M14.5,11c-0.3,0-0.5-0.2-0.5-0.5
				s0.2-0.5,0.5-0.5s0.5,0.2,0.5,0.5S14.8,11,14.5,11z"/>
		</g>
	</g>
</g>
<g id="Outline_Icons">
	<g>
		<rect x="7.5" y="8.5" class="st2" width="9" height="14"/>
		<rect x="0.5" y="1.5" class="st2" width="4" height="21"/>
		<rect x="19.5" y="1.5" class="st2" width="4" height="21"/>
		<line class="st2" x1="19.5" y1="13.5" x2="23.5" y2="13.5"/>
		<line class="st2" x1="0.5" y1="13.5" x2="4.5" y2="13.5"/>
		<circle class="st2" cx="12" cy="18" r="2.5"/>
		<g>
			<path d="M14.5,10c-0.3,0-0.5,0.2-0.5,0.5s0.2,0.5,0.5,0.5s0.5-0.2,0.5-0.5S14.8,10,14.5,10L14.5,10z"/>
		</g>
		<g>
			<path d="M9.5,10C9.2,10,9,10.2,9,10.5S9.2,11,9.5,11s0.5-0.2,0.5-0.5S9.8,10,9.5,10L9.5,10z"/>
		</g>
		<circle class="st2" cx="12" cy="12" r="1"/>
	</g>
</g>
</svg>
