<?xml version="1.0" encoding="utf-8"?>
<!-- Generator: Adobe Illustrator 19.2.0, SVG Export Plug-In . SVG Version: 6.00 Build 0)  -->
<svg version="1.1" id="Layer_1" xmlns="http://www.w3.org/2000/svg" xmlns:xlink="http://www.w3.org/1999/xlink" x="0px" y="0px"
	 viewBox="0 0 24 24" style="enable-background:new 0 0 24 24;" xml:space="preserve">
<style type="text/css">
	.st0{display:none;}
	.st1{display:inline;}
	.st2{fill:none;stroke:#000000;stroke-linejoin:round;stroke-miterlimit:10;}
</style>
<g id="Filled_Icon" class="st0">
	<g class="st1">
		<path d="M21.6,17.4c0.9-1.6,1.4-3.5,1.4-5.4s-0.5-3.7-1.4-5.4l1.5-1.5C23.7,4.6,24,3.8,24,3s-0.3-1.6-0.9-2.1
			C22.6,0.3,21.8,0,21,0s-1.6,0.3-2.1,0.9l-1.5,1.5C15.7,1.5,13.9,1,12,1S8.3,1.5,6.6,2.4L5.1,0.9C4.6,0.3,3.8,0,3,0
			S1.4,0.3,0.9,0.9C0.3,1.4,0,2.2,0,3s0.3,1.6,0.9,2.1l1.5,1.5C1.5,8.3,1,10.1,1,12s0.5,3.7,1.4,5.4l-1.5,1.5
			c-1.2,1.2-1.2,3.1,0,4.2C1.4,23.7,2.2,24,3,24s1.6-0.3,2.1-0.9l1.5-1.5C8.3,22.5,10.1,23,12,23s3.7-0.5,5.4-1.4l1.5,1.5
			c0.6,0.6,1.3,0.9,2.1,0.9c0.8,0,1.6-0.3,2.1-0.9c1.2-1.2,1.2-3.1,0-4.2L21.6,17.4z M21,2c0.6,0,1,0.4,1,1s-0.4,1-1,1s-1-0.4-1-1
			S20.4,2,21,2z M2,3c0-0.6,0.4-1,1-1s1,0.4,1,1S3.6,4,3,4S2,3.6,2,3z M3,22c-0.6,0-1-0.4-1-1s0.4-1,1-1s1,0.4,1,1S3.6,22,3,22z
			 M12,20c-4.4,0-8-3.6-8-8s3.6-8,8-8s8,3.6,8,8S16.4,20,12,20z M21,22c-0.6,0-1-0.4-1-1s0.4-1,1-1s1,0.4,1,1S21.6,22,21,22z"/>
		<path d="M12,9.5c-1.4,0-2.5,1.1-2.5,2.5s1.1,2.5,2.5,2.5s2.5-1.1,2.5-2.5S13.4,9.5,12,9.5z"/>
	</g>
</g>
<g id="Outline_Icons">
	<g>
		<circle class="st2" cx="12" cy="12" r="2"/>
		<circle class="st2" cx="12" cy="12" r="8.5"/>
		<path class="st2" d="M21,17.4c1-1.6,1.5-3.4,1.5-5.4S21.9,8.2,21,6.6l1.8-1.8c1-1,1-2.6,0-3.5c-1-1-2.6-1-3.5,0L17.4,3
			C15.8,2,14,1.5,12,1.5S8.2,2.1,6.6,3L4.8,1.2c-1-1-2.6-1-3.5,0c-1,1-1,2.6,0,3.5L3,6.6C2.1,8.2,1.5,10,1.5,12s0.6,3.8,1.5,5.4
			l-1.8,1.8c-1,1-1,2.6,0,3.5c1,1,2.6,1,3.5,0L6.6,21c1.6,1,3.4,1.5,5.4,1.5s3.8-0.6,5.4-1.5l1.8,1.8c1,1,2.6,1,3.5,0
			c1-1,1-2.6,0-3.5L21,17.4z"/>
		<path class="st2" d="M3.5,3c0,0.3-0.2,0.5-0.5,0.5l0,0C2.7,3.5,2.5,3.3,2.5,3l0,0c0-0.3,0.2-0.5,0.5-0.5l0,0
			C3.3,2.5,3.5,2.7,3.5,3L3.5,3z"/>
		<path class="st2" d="M21.5,3c0,0.3-0.2,0.5-0.5,0.5l0,0c-0.3,0-0.5-0.2-0.5-0.5l0,0c0-0.3,0.2-0.5,0.5-0.5l0,0
			C21.3,2.5,21.5,2.7,21.5,3L21.5,3z"/>
		<path class="st2" d="M21.5,21c0,0.3-0.2,0.5-0.5,0.5l0,0c-0.3,0-0.5-0.2-0.5-0.5l0,0c0-0.3,0.2-0.5,0.5-0.5l0,0
			C21.3,20.5,21.5,20.7,21.5,21L21.5,21z"/>
		<path class="st2" d="M3.5,21c0,0.3-0.2,0.5-0.5,0.5l0,0c-0.3,0-0.5-0.2-0.5-0.5l0,0c0-0.3,0.2-0.5,0.5-0.5l0,0
			C3.3,20.5,3.5,20.7,3.5,21L3.5,21z"/>
	</g>
</g>
</svg>
