<?xml version="1.0" encoding="utf-8"?>
<!-- Generator: Adobe Illustrator 19.2.0, SVG Export Plug-In . SVG Version: 6.00 Build 0)  -->
<svg version="1.1" id="Layer_1" xmlns="http://www.w3.org/2000/svg" xmlns:xlink="http://www.w3.org/1999/xlink" x="0px" y="0px"
	 viewBox="0 0 24 24" style="enable-background:new 0 0 24 24;" xml:space="preserve">
<style type="text/css">
	.st0{display:none;}
	.st1{display:inline;}
	.st2{fill:none;stroke:#000000;stroke-linejoin:round;stroke-miterlimit:10;}
</style>
<g id="Filled_Icon" class="st0">
	<g class="st1">
		<path d="M18.5,0h-13C4.1,0,3,1.1,3,2.5v19C3,22.9,4.1,24,5.5,24h13c1.4,0,2.5-1.1,2.5-2.5v-19C21,1.1,19.9,0,18.5,0z M12,3
			c1.4,0,2.5,1.1,2.5,2.5S13.4,8,12,8S9.5,6.9,9.5,5.5S10.6,3,12,3z M6,2c0.6,0,1,0.4,1,1S6.6,4,6,4S5,3.6,5,3S5.4,2,6,2z M6,22
			c-0.6,0-1-0.4-1-1s0.4-1,1-1s1,0.4,1,1S6.6,22,6,22z M12,20c-2.8,0-5-2.2-5-5s2.2-5,5-5s5,2.2,5,5S14.8,20,12,20z M18,22
			c-0.6,0-1-0.4-1-1s0.4-1,1-1s1,0.4,1,1S18.6,22,18,22z M18,4c-0.6,0-1-0.4-1-1s0.4-1,1-1s1,0.4,1,1S18.6,4,18,4z"/>
		<circle cx="12" cy="5.5" r="1.5"/>
		<path d="M12,12.5c-1.4,0-2.5,1.1-2.5,2.5s1.1,2.5,2.5,2.5s2.5-1.1,2.5-2.5S13.4,12.5,12,12.5z"/>
	</g>
</g>
<g id="Outline_Icons">
	<g>
		<circle class="st2" cx="12" cy="6" r="1.5"/>
		<circle class="st2" cx="12" cy="15" r="5.5"/>
		<circle class="st2" cx="12" cy="15" r="2"/>
		<path class="st2" d="M20.5,21.5c0,1.1-0.9,2-2,2h-13c-1.1,0-2-0.9-2-2v-19c0-1.1,0.9-2,2-2h13c1.1,0,2,0.9,2,2V21.5z"/>
		<path class="st2" d="M6.5,3c0,0.3-0.2,0.5-0.5,0.5l0,0C5.7,3.5,5.5,3.3,5.5,3l0,0c0-0.3,0.2-0.5,0.5-0.5l0,0
			C6.3,2.5,6.5,2.7,6.5,3L6.5,3z"/>
		<path class="st2" d="M18.5,3c0,0.3-0.2,0.5-0.5,0.5l0,0c-0.3,0-0.5-0.2-0.5-0.5l0,0c0-0.3,0.2-0.5,0.5-0.5l0,0
			C18.3,2.5,18.5,2.7,18.5,3L18.5,3z"/>
		<path class="st2" d="M18.5,21c0,0.3-0.2,0.5-0.5,0.5l0,0c-0.3,0-0.5-0.2-0.5-0.5l0,0c0-0.3,0.2-0.5,0.5-0.5l0,0
			C18.3,20.5,18.5,20.7,18.5,21L18.5,21z"/>
		<path class="st2" d="M6.5,21c0,0.3-0.2,0.5-0.5,0.5l0,0c-0.3,0-0.5-0.2-0.5-0.5l0,0c0-0.3,0.2-0.5,0.5-0.5l0,0
			C6.3,20.5,6.5,20.7,6.5,21L6.5,21z"/>
	</g>
</g>
</svg>
