<?xml version="1.0" encoding="utf-8"?>
<!-- Generator: Adobe Illustrator 19.2.0, SVG Export Plug-In . SVG Version: 6.00 Build 0)  -->
<svg version="1.1" id="Layer_1" xmlns="http://www.w3.org/2000/svg" xmlns:xlink="http://www.w3.org/1999/xlink" x="0px" y="0px"
	 viewBox="0 0 24 24" style="enable-background:new 0 0 24 24;" xml:space="preserve">
<style type="text/css">
	.st0{display:none;}
	.st1{display:inline;}
	.st2{fill:none;stroke:#000000;stroke-linecap:round;stroke-linejoin:round;stroke-miterlimit:10;}
</style>
<g id="Filled_Icon" class="st0">
	<g class="st1">
		<path d="M0,15v1.5C0,16.8,0.2,17,0.5,17h11v6H10c-0.3,0-0.5,0.2-0.5,0.5S9.7,24,10,24h4c0.3,0,0.5-0.2,0.5-0.5S14.3,23,14,23h-1.5
			v-6h11c0.3,0,0.5-0.2,0.5-0.5V15H0z"/>
		<path d="M18.9,5.3C18.8,5.1,18.7,5,18.5,5H7V1.5C7,1.2,7.2,1,7.5,1c0.4,0,1,0.2,1.3,0.5l0.4,0.4C9.1,2.1,9,2.3,9,2.5
			C9,3.3,9.7,4,10.5,4S12,3.3,12,2.5S11.3,1,10.5,1c-0.2,0-0.4,0.1-0.6,0.1L9.5,0.8C9,0.3,8.2,0,7.5,0C6.7,0,6,0.7,6,1.5V5H5.5
			C5.3,5,5.1,5.1,5.1,5.3L0.2,14h23.6L18.9,5.3z M19.5,13L19.5,13h-11c-0.1,0-0.3-0.1-0.4-0.2C8,12.7,8,12.5,8,12.4l1-5
			C9.1,7.2,9.3,7,9.5,7h8c0.2,0,0.4,0.1,0.5,0.3l2,4.9c0.1,0.1,0.1,0.2,0.1,0.3C20,12.8,19.8,13,19.5,13z"/>
	</g>
</g>
<g id="Outline_Icons">
	<g>
		<polygon class="st2" points="23.5,14.5 0.5,14.5 5.5,5.5 18.5,5.5 		"/>
		<rect x="0.5" y="14.5" class="st2" width="23" height="2"/>
		<polygon class="st2" points="19.5,12.5 8.5,12.5 9.5,7.5 17.5,7.5 		"/>
		<path class="st2" d="M6.5,7.5v-6c0-0.5,0.5-1,1-1l0,0c0.6,0,1.3,0.3,1.6,0.6c0.4,0.4,0.6,0.6,0.6,0.6"/>
		<circle class="st2" cx="10.5" cy="2.5" r="1"/>
		<line class="st2" x1="10.5" y1="23.5" x2="14.5" y2="23.5"/>
		<line class="st2" x1="12.5" y1="16.5" x2="12.5" y2="23.5"/>
	</g>
</g>
</svg>
