<?xml version="1.0" encoding="utf-8"?>
<!-- Generator: Adobe Illustrator 19.2.0, SVG Export Plug-In . SVG Version: 6.00 Build 0)  -->
<svg version="1.1" id="Layer_1" xmlns="http://www.w3.org/2000/svg" xmlns:xlink="http://www.w3.org/1999/xlink" x="0px" y="0px"
	 viewBox="0 0 24 24" style="enable-background:new 0 0 24 24;" xml:space="preserve">
<style type="text/css">
	.st0{display:none;}
	.st1{display:inline;}
	.st2{fill:none;stroke:#000000;stroke-linecap:round;stroke-linejoin:round;stroke-miterlimit:10;}
	.st3{fill:none;stroke:#000000;stroke-linejoin:round;stroke-miterlimit:10;}
</style>
<g id="Filled_Icon" class="st0">
	<g class="st1">
		<path d="M11,12.9l1.2,3.2c0.2,0.5,0.8,0.8,1.3,0.6c0.5-0.2,0.8-0.8,0.6-1.3L8.5,0.6C8.4,0.3,8,0,7.6,0l0,0C7.2,0,6.8,0.3,6.7,0.6
			L1.1,15.4c-0.2,0.5,0.1,1.1,0.6,1.3c0.5,0.2,1.1-0.1,1.3-0.6l1.2-3.2C4.2,12.9,11,12.9,11,12.9z M7.6,3.8l2.7,7.1H4.9L7.6,3.8z"/>
		<path d="M22.8,8.2c-0.5-0.3-1.1-0.2-1.4,0.3l-9,13l-4-4c-0.4-0.4-1-0.4-1.4,0s-0.4,1,0,1.4l4.8,4.8c0.2,0.2,0.5,0.3,0.8,0.3
			s0.6-0.2,0.7-0.4l9.7-14C23.4,9.1,23.2,8.5,22.8,8.2z"/>
	</g>
</g>
<g id="Outline_Icons">
	<g>
		<polyline class="st2" points="2,15.3 7.6,0.6 13.2,15.4 		"/>
		<line class="st3" x1="3.5" y1="11.5" x2="11.7" y2="11.5"/>
		<polyline class="st2" points="22,9.1 12.3,23.1 7.5,18.3 		"/>
	</g>
</g>
</svg>
