<?xml version="1.0" encoding="utf-8"?>
<!-- Generator: Adobe Illustrator 19.2.0, SVG Export Plug-In . SVG Version: 6.00 Build 0)  -->
<svg version="1.1" id="Layer_1" xmlns="http://www.w3.org/2000/svg" xmlns:xlink="http://www.w3.org/1999/xlink" x="0px" y="0px"
	 viewBox="0 0 24 24" style="enable-background:new 0 0 24 24;" xml:space="preserve">
<style type="text/css">
	.st0{display:none;}
	.st1{display:inline;}
	.st2{fill:none;stroke:#000000;stroke-linejoin:round;stroke-miterlimit:10;}
	.st3{fill:none;stroke:#000000;stroke-linecap:round;stroke-linejoin:round;stroke-miterlimit:10;}
</style>
<g id="Filled_Icon" class="st0">
	<g class="st1">
		<g>
			<path d="M10,18c0.5,0,1-0.1,1.5-0.1V9h4v2c0,0.6,0.4,1,1,1s1-0.4,1-1V8c0-0.6-0.4-1-1-1h-12c-0.6,0-1,0.4-1,1v3c0,0.6,0.4,1,1,1
				s1-0.4,1-1V9h4v9C9.7,18,9.8,18,10,18z"/>
			<path d="M13,22h-1.5v-1.1C11,21,10.5,21,10,21c-0.2,0-0.3,0-0.5,0v1H8c-0.6,0-1,0.4-1,1s0.4,1,1,1h5c0.6,0,1-0.4,1-1
				S13.6,22,13,22z"/>
		</g>
		<path d="M23.9,23.1l-6.4-6.4c1.7-1.8,2.6-4.2,2.6-6.7c0-5.5-4.5-10-10-10C4.5,0,0,4.5,0,10s4.5,10,10,10c2.5,0,4.9-0.9,6.7-2.6
			l6.4,6.4c0.1,0.1,0.2,0.1,0.4,0.1c0.1,0,0.3,0,0.4-0.1C24,23.7,24,23.3,23.9,23.1z M1,10c0-5,4-9,9-9s9,4,9,9
			c0,2.4-0.9,4.7-2.6,6.4l0,0l0,0c-1.7,1.7-4,2.6-6.4,2.6C5,19,1,15,1,10z"/>
	</g>
</g>
<g id="Outline_Icons">
	<g>
		<path class="st2" d="M16.7,16.7c-1.7,1.7-4.1,2.8-6.7,2.8c-5.2,0-9.5-4.3-9.5-9.5S4.8,0.5,10,0.5s9.5,4.3,9.5,9.5
			C19.5,12.6,18.4,15,16.7,16.7"/>
		<line class="st3" x1="16.7" y1="16.7" x2="23.5" y2="23.5"/>
		<g>
			<polyline class="st3" points="4.5,11.5 4.5,8.5 16.5,8.5 16.5,11.5 			"/>
			<line class="st3" x1="10.5" y1="21.5" x2="10.5" y2="23.5"/>
			<line class="st3" x1="10.5" y1="8.5" x2="10.5" y2="17.5"/>
			<line class="st3" x1="8" y1="23.5" x2="13" y2="23.5"/>
		</g>
	</g>
</g>
</svg>
