<?xml version="1.0" encoding="utf-8"?>
<!-- Generator: Adobe Illustrator 19.2.0, SVG Export Plug-In . SVG Version: 6.00 Build 0)  -->
<svg version="1.1" id="Layer_1" xmlns="http://www.w3.org/2000/svg" xmlns:xlink="http://www.w3.org/1999/xlink" x="0px" y="0px"
	 viewBox="0 0 24 24" style="enable-background:new 0 0 24 24;" xml:space="preserve">
<style type="text/css">
	.st0{display:none;}
	.st1{display:inline;}
	.st2{fill:none;stroke:#000000;stroke-linejoin:round;stroke-miterlimit:10;}
	.st3{fill:none;stroke:#000000;stroke-linecap:round;stroke-linejoin:round;stroke-miterlimit:10;}
</style>
<g id="Filled_Icons" class="st0">
	<g class="st1">
		<path d="M19,2c-3.4,0-5.5,1.6-5.9,3c-0.9-0.1-1.4-0.5-2-0.9c-0.6-0.5-1.3-1-2.6-1C7.1,3,6.3,4.4,5.7,5.5c-0.6,1-1.2,2-2.1,2
			c-1,0-1.4-0.6-1.9-1.3c-0.2-0.3-0.5-0.7-0.8-1C0.7,5,0.4,5,0.2,5.2C0,5.4,0,5.8,0.2,5.9c0.2,0.2,0.5,0.5,0.7,0.9
			c0.5,0.8,1.2,1.7,2.7,1.7c1.5,0,2.3-1.3,3-2.5c0.7-1.2,1.2-2,2-2c1,0,1.4,0.4,2,0.8c0.6,0.5,1.3,1,2.6,1.1c0.4,1.4,2.5,3,5.9,3
			c2.5,0,5-1.2,5-3.5C24,3.2,21.4,2,19,2z"/>
		<path d="M18.5,17c-2.2,0-3.6,1-4,1.9c-0.5-0.1-0.8-0.3-1.1-0.5c-0.4-0.3-0.9-0.7-1.8-0.7c-1.1,0-1.6,0.9-2,1.7
			c-0.4,0.8-0.8,1.2-1.2,1.2c-0.8,0-1-0.9-1.7-1.5C6.5,19,6.2,19,6,19.2s-0.2,0.5,0,0.7c0.9,0.9,0.8,1.8,2.3,1.8
			c1.1,0,1.7-1,2.1-1.7c0.4-0.7,0.7-1.2,1.2-1.2c0.6,0,0.8,0.2,1.2,0.5c0.4,0.3,0.9,0.7,1.7,0.8c0.4,0.9,1.7,2,4,2
			c1.7,0,3.5-0.8,3.5-2.5C22,17.9,20.2,17,18.5,17z"/>
		<path d="M6.7,11.7c0.6,0,0.8,0.2,1.2,0.5c0.4,0.3,0.9,0.7,1.7,0.8c0.4,0.9,1.7,2,4,2c1.7,0,3.5-0.9,3.5-2.5c0-1.6-1.8-2.5-3.5-2.5
			c-2.2,0-3.6,1-4,1.9c-0.5-0.1-0.8-0.3-1.1-0.5c-0.4-0.3-0.9-0.7-1.8-0.7c-1.1,0-1.6,0.9-2,1.7c-0.4,0.8-0.8,1.2-1.2,1.2
			c-0.5,0-0.7-0.3-1.1-0.8c-0.2-0.2-0.3-0.5-0.6-0.7C1.5,12,1.2,12,1,12.2c-0.2,0.2-0.2,0.5,0,0.7c0.1,0.1,0.3,0.3,0.4,0.5
			c0.4,0.5,0.8,1.2,1.9,1.2c1.1,0,1.7-1,2.1-1.7C5.9,12.2,6.2,11.7,6.7,11.7z"/>
	</g>
</g>
<g id="Outline_Icons">
	<g>
		<g>
			<path class="st2" d="M19,8.5c-3.6,0-5.5-1.9-5.5-3s1.9-3,5.5-3c2,0,4.5,1,4.5,3S21.1,8.5,19,8.5z"/>
			<path class="st3" d="M13.5,5.5c-2.7,0-2.6-2-5-2S6,8,3.6,8c-1.8,0-2.1-1.6-3-2.5"/>
		</g>
		<g>
			<path class="st2" d="M18.5,21.5c-2.4,0-3.6-1.3-3.6-2s1.3-2,3.6-2c1.3,0,3,0.6,3,2S19.9,21.5,18.5,21.5z"/>
			<path class="st3" d="M14.9,19.5c-1.8,0-1.7-1.3-3.3-1.3c-1.5,0-1.7,3-3.3,3c-1.2,0-1.4-1-2-1.6"/>
		</g>
		<g>
			<path class="st2" d="M13.5,14.5c-2.4,0-3.6-1.3-3.6-2s1.3-2,3.6-2c1.3,0,3,0.6,3,2S14.9,14.5,13.5,14.5z"/>
			<path class="st3" d="M9.9,12.5c-1.8,0-1.7-1.3-3.3-1.3c-1.5,0-1.7,2.9-3.3,2.9c-1.2,0-1.4-1-2-1.6"/>
		</g>
	</g>
</g>
</svg>
