<?xml version="1.0" encoding="utf-8"?>
<!-- Generator: Adobe Illustrator 19.2.0, SVG Export Plug-In . SVG Version: 6.00 Build 0)  -->
<svg version="1.1" id="Layer_1" xmlns="http://www.w3.org/2000/svg" xmlns:xlink="http://www.w3.org/1999/xlink" x="0px" y="0px"
	 viewBox="0 0 24 24" style="enable-background:new 0 0 24 24;" xml:space="preserve">
<style type="text/css">
	.st0{display:none;}
	.st1{display:inline;}
	.st2{fill:none;stroke:#000000;stroke-linecap:round;stroke-linejoin:round;stroke-miterlimit:10;}
</style>
<g id="Filled_Icons" class="st0">
	<path class="st1" d="M24,5.7C24,5.7,24,5.7,24,5.7c0-0.1-0.1-0.2-0.1-0.3c0,0,0,0,0,0l0,0l0,0l-2-3c-0.3-0.5-0.9-0.6-1.4-0.3
		c-0.5,0.3-0.6,0.9-0.3,1.4l1,1.4L18,5c0,0,0,0,0,0c-3,0-4.3,1.9-5.3,3.4C11.7,9.8,11,10.9,9.2,11c-0.1,0-0.1,0-0.2,0h0
		c-0.1,0-0.1,0-0.2,0H1c-0.6,0-1,0.4-1,1c0,0.6,0.4,1,1,1h8c0,0,0,0,0,0c0.1,0,0.2,0,0.3,0c1.7,0.1,2.5,1.2,3.4,2.6
		c1,1.5,2.3,3.5,5.3,3.5l3.1,0l-1,1.4c-0.3,0.5-0.2,1.1,0.3,1.4c0.2,0.1,0.4,0.2,0.6,0.2c0.3,0,0.6-0.2,0.8-0.4l2-3l0,0l0,0
		c0,0,0,0,0,0c0-0.1,0.1-0.2,0.1-0.2c0,0,0,0,0-0.1c0-0.1,0-0.2,0-0.3v0l0,0c0-0.1,0-0.2,0-0.3c0,0,0,0,0-0.1c0-0.1-0.1-0.2-0.1-0.2
		c0,0,0,0,0,0l-2-3c-0.3-0.5-0.9-0.6-1.4-0.3c-0.5,0.3-0.6,0.9-0.3,1.4l1,1.4L18,17c-2,0-2.7-1.1-3.7-2.6c-0.5-0.8-1.2-1.8-2.1-2.4
		c0.9-0.7,1.5-1.6,2.1-2.4C15.3,8.1,16,7,18,7c0,0,0,0,0,0l3.1,0l-1,1.4c-0.3,0.5-0.2,1.1,0.3,1.4C20.6,9.9,20.8,10,21,10
		c0.3,0,0.6-0.2,0.8-0.4l2-3l0,0l0,0c0,0,0,0,0,0c0-0.1,0.1-0.2,0.1-0.2c0,0,0,0,0-0.1c0-0.1,0-0.2,0-0.3l0,0v0
		C24,5.9,24,5.8,24,5.7z"/>
</g>
<g id="Outline_Icons">
	<g>
		<path class="st2" d="M23.5,5.5H18c-5,0-4,6-9,6H0.5"/>
		<polyline class="st2" points="21.5,2.5 23.5,5.5 21.5,8.5 		"/>
		<path class="st2" d="M23.5,17.5H18c-5,0-4-6-9-6"/>
		<polyline class="st2" points="21.5,20.5 23.5,17.5 21.5,14.5 		"/>
	</g>
</g>
</svg>
