<?xml version="1.0" encoding="utf-8"?>
<!-- Generator: Adobe Illustrator 19.2.0, SVG Export Plug-In . SVG Version: 6.00 Build 0)  -->
<svg version="1.1" id="Layer_1" xmlns="http://www.w3.org/2000/svg" xmlns:xlink="http://www.w3.org/1999/xlink" x="0px" y="0px"
	 viewBox="0 0 24 24" style="enable-background:new 0 0 24 24;" xml:space="preserve">
<style type="text/css">
	.st0{display:none;}
	.st1{display:inline;}
	.st2{fill:none;stroke:#000000;stroke-linecap:round;stroke-linejoin:round;stroke-miterlimit:10;}
	.st3{fill:none;stroke:#000000;stroke-linejoin:round;stroke-miterlimit:10;}
</style>
<g id="Filled_Icons" class="st0">
	<g class="st1">
		<path d="M9.5,9.5c0.1,0,0.2,0,0.4,0l0.1,0l0.1,0c0.1,0,0.3,0,0.4,0c0,0.3,0.2,0.5,0.5,0.5c0.3,0,0.5-0.2,0.5-0.5
			c0-0.3-0.1-0.5-0.3-0.7c-0.3-0.3-0.7-0.3-1.1-0.3l-0.1,0l-0.1,0c-0.4,0-0.8,0-1.1,0.3C8.6,9,8.5,9.2,8.5,9.5C8.5,9.8,8.7,10,9,10
			C9.3,10,9.5,9.8,9.5,9.5z"/>
		<path d="M13,10c0.3,0,0.5-0.2,0.5-0.5c0.1,0,0.3,0,0.4,0l0.1,0l0.1,0c0.1,0,0.3,0,0.4,0c0,0.3,0.2,0.5,0.5,0.5
			c0.3,0,0.5-0.2,0.5-0.5c0-0.3-0.1-0.5-0.3-0.7c-0.3-0.3-0.7-0.3-1.1-0.3l-0.1,0l-0.1,0c-0.4,0-0.8,0-1.1,0.3
			c-0.2,0.2-0.3,0.4-0.3,0.7C12.5,9.8,12.7,10,13,10z"/>
		<path d="M15.7,15.2c0.9-0.8,1.6-1.9,1.7-3.3c0.7-0.2,1.1-1,1.1-1.9c0-0.3,0-0.5-0.1-0.8c0.1-0.4,0.3-1.5,0.4-4.2
			C19,3.7,18.7,2.4,18,1.2l-0.6-1C17.4,0.1,17.2,0,17.1,0c-0.2,0-0.3,0-0.4,0.1l-1.2,1.2c-0.1,0.1-0.2,0.2-0.4,0.1
			c-0.1,0-0.3-0.1-0.4-0.2l-0.8-1.1C13.8,0.1,13.7,0,13.5,0c-0.2,0-0.3,0.1-0.4,0.2l-0.7,0.9c-0.2,0.3-0.6,0.3-0.8,0l-0.7-0.9
			c-0.2-0.3-0.6-0.3-0.8,0L9.3,1.3C9.2,1.4,9.1,1.5,8.9,1.5c-0.1,0-0.3,0-0.4-0.1L7.4,0.1C7.2,0,7.1,0,6.9,0C6.8,0,6.6,0.1,6.6,0.2
			L6,1.2C5.3,2.4,5,3.7,5.1,5c0.2,2.6,0.4,3.8,0.4,4.2C5.4,9.5,5.4,9.7,5.4,10c0,1,0.5,1.7,1.1,1.9c0.1,1.3,0.8,2.4,1.7,3.3
			C4.3,15.7,0,16,0,20.2V24h2.9h18.2H24v-3.8C24,16,19.9,15.8,15.7,15.2z M3.1,23H1v-2.8c0-1.9,1.1-2.8,2.9-3.3L3.1,23z M7.5,11.5
			C7.5,11.2,7.3,11,7,11c-0.5,0-0.6-0.7-0.6-1c0-0.3,0.1-1,0.6-1c0.2,0,0.4-0.2,0.5-0.4l0.4-2.1c2.4,0,3.5-0.4,4.1-0.8
			c0.6,0.4,1.7,0.8,4.1,0.8l0.4,2.1C16.6,8.8,16.8,9,17,9c0.5,0,0.6,0.7,0.6,1c0,0.3-0.1,1-0.6,1c-0.3,0-0.5,0.2-0.5,0.5
			c0,2.6-3.2,4.5-4.5,4.5c-0.6,0-1.4-0.3-2.3-0.9c0,0,0,0,0,0C8.6,14.3,7.5,13,7.5,11.5z M14.8,19.5c-0.4,0.9-1.3,1.5-2.3,1.5h-1.1
			c-1,0-1.9-0.6-2.3-1.5l-1.4-3.3c0.5-0.1,1.1-0.2,1.6-0.2c1,0.6,2,1,2.7,1c0.7,0,1.7-0.3,2.7-1c0.5,0.1,1.1,0.2,1.6,0.2L14.8,19.5z
			 M23,23h-2.1L20,16.9c1.9,0.5,3,1.4,3,3.3V23z"/>
	</g>
</g>
<g id="Outline_Icons">
	<g>
		<path class="st2" d="M9,9.5C9,8.9,9.4,9,10,9c0.6,0,1-0.1,1,0.5"/>
		<path class="st2" d="M13,9.5C13,8.9,13.4,9,14,9c0.6,0,1-0.1,1,0.5"/>
		<path class="st2" d="M9.4,15.5c-4.3,0.7-8.9,0.6-8.9,4.7v3.3h23v-3.3c0-4.2-4.5-4-8.9-4.7"/>
		<path class="st2" d="M12,16.5c1.5,0,5-2,5-5c1.5,0,1.5-3,0-3L16.5,6c-3,0-4-0.5-4.5-1c-0.5,0.5-1.5,1-4.5,1L7,8.5
			c-1.5,0-1.5,3,0,3C7,14.5,10.5,16.5,12,16.5z"/>
		<path class="st3" d="M18,9.3c0,0,0.2-1,0.4-4.3c0.1-1.2-0.2-2.4-0.8-3.5l-0.6-1l-1.2,1.2C15.6,1.9,15.3,2,15,2
			c-0.3,0-0.6-0.2-0.7-0.4l-0.8-1.1l-0.7,0.9c-0.2,0.3-0.5,0.4-0.8,0.4c-0.3,0-0.6-0.1-0.8-0.4l-0.7-0.9L9.7,1.6C9.5,1.8,9.3,2,9,2
			C8.7,2,8.4,1.9,8.2,1.7L7,0.5l-0.6,1C5.8,2.6,5.5,3.8,5.6,5C5.8,8.3,6,9.3,6,9.3"/>
		<path class="st2" d="M7,15.9l1.7,3.9c0.5,1.1,1.6,1.8,2.7,1.8h1.1c1.2,0,2.2-0.7,2.7-1.8l1.7-3.9"/>
		<line class="st2" x1="4.5" y1="16.3" x2="3.5" y2="23.5"/>
		<line class="st2" x1="19.4" y1="16.2" x2="20.5" y2="23.5"/>
	</g>
</g>
</svg>
