<?xml version="1.0" encoding="utf-8"?>
<!-- Generator: Adobe Illustrator 19.2.0, SVG Export Plug-In . SVG Version: 6.00 Build 0)  -->
<svg version="1.1" id="Layer_1" xmlns="http://www.w3.org/2000/svg" xmlns:xlink="http://www.w3.org/1999/xlink" x="0px" y="0px"
	 viewBox="0 0 24 24" style="enable-background:new 0 0 24 24;" xml:space="preserve">
<style type="text/css">
	.st0{display:none;}
	.st1{display:inline;}
	.st2{fill:none;stroke:#000000;stroke-linejoin:round;stroke-miterlimit:10;}
	.st3{fill:none;stroke:#000000;stroke-linecap:round;stroke-linejoin:round;stroke-miterlimit:10;}
</style>
<g id="Filled_Icons" class="st0">
	<g class="st1">
		<path d="M21.5,5h-4C17.2,5,17,5.2,17,5.5C17,5.8,17.2,6,17.5,6h4C21.8,6,22,5.8,22,5.5C22,5.2,21.8,5,21.5,5z"/>
		<path d="M21.2,9.3l-4-2.2c-0.2-0.1-0.5,0-0.7,0.2c-0.1,0.2,0,0.5,0.2,0.7l4,2.2c0.1,0,0.2,0.1,0.2,0.1c0.2,0,0.3-0.1,0.4-0.3
			C21.5,9.7,21.5,9.4,21.2,9.3z"/>
		<path d="M17.2,4l3.9-1.5c0.3-0.1,0.4-0.4,0.3-0.6S21,1.5,20.8,1.6L16.8,3c-0.3,0.1-0.4,0.4-0.3,0.6C16.6,3.9,16.9,4.1,17.2,4z"/>
		<path d="M14.5,4H14V3.5C14,3.2,13.8,3,13.5,3H3.2C3.1,3,2.9,3.1,2.8,3.3l-2.2,5c-0.1,0.2-0.1,0.3,0,0.5C0.7,8.9,0.8,9,1,9h9.6
			c0,1.5,0.5,3.6,3,4c0,0,0.1,0,0.1,0c0.2,0,0.5-0.2,0.5-0.4c0-0.3-0.1-0.5-0.4-0.6c-1.9-0.3-2.1-2.2-2.1-3h0.5
			c0.1,0,0.3-0.1,0.4-0.2l1.4-1.5C14,7.3,14,7.1,14,7V6h0.5C14.8,6,15,5.8,15,5.5v-1C15,4.2,14.8,4,14.5,4z"/>
		<path d="M9.4,10H4.1l-3,11c-0.1,0.7,0,1.5,0.5,2.1C2.1,23.7,2.8,24,3.6,24h7.7c0.8,0,1.6-0.4,2.1-1.1c0.5-0.7,0.6-1.5,0.3-2.3
			L9.4,10z"/>
	</g>
</g>
<g id="Outline_Icons">
	<g>
		<path class="st2" d="M5,8.5L1.6,21.1c-0.1,0.6,0,1.2,0.4,1.7c0.4,0.5,0.9,0.7,1.5,0.7h7.7c0.7,0,1.3-0.3,1.6-0.9
			c0.4-0.5,0.5-1.2,0.2-1.9L8.3,8.5H5z"/>
		<polygon class="st2" points="3.2,3.5 1,8.5 12.1,8.5 13.5,7 13.5,3.5 		"/>
		<path class="st3" d="M11.1,8.5c0,0-0.5,3.5,2.5,4"/>
		<line class="st3" x1="17.5" y1="5.5" x2="21.5" y2="5.5"/>
		<line class="st3" x1="17" y1="7.5" x2="21" y2="9.7"/>
		<line class="st3" x1="17" y1="3.5" x2="20.9" y2="2"/>
		<rect x="13.5" y="4.5" class="st2" width="1" height="1"/>
	</g>
</g>
</svg>
