<?xml version="1.0" encoding="utf-8"?>
<!-- Generator: Adobe Illustrator 19.2.0, SVG Export Plug-In . SVG Version: 6.00 Build 0)  -->
<svg version="1.1" id="Outline_Icons" xmlns="http://www.w3.org/2000/svg" xmlns:xlink="http://www.w3.org/1999/xlink" x="0px"
	 y="0px" viewBox="0 0 24 24" style="enable-background:new 0 0 24 24;" xml:space="preserve">
<style type="text/css">
	.st0{fill:none;stroke:#000000;stroke-linecap:round;stroke-linejoin:round;stroke-miterlimit:10;}
</style>
<g>
	<rect x="3.5" y="10.5" class="st0" width="8" height="13"/>
	<rect x="6.5" y="4.5" class="st0" width="2" height="2"/>
	<polygon class="st0" points="10,10.5 4.5,10.5 5.5,8.5 9,8.5 	"/>
	<line class="st0" x1="7.5" y1="6.5" x2="7.5" y2="8.5"/>
	<line class="st0" x1="12.5" y1="5.5" x2="15.5" y2="5.5"/>
	<line class="st0" x1="12" y1="7.5" x2="15" y2="8.5"/>
	<line class="st0" x1="12" y1="3.5" x2="15" y2="2.5"/>
	<path class="st0" d="M17.5,10.5c1.4,0,2.6-1.2,2-2.5c1.2-0.2,2-1.2,2-2.5c0-1.3-0.8-2.3-2-2.5c0.4-1.3-0.7-2.5-2-2.5"/>
</g>
</svg>
