<?xml version="1.0" encoding="utf-8"?>
<!-- Generator: Adobe Illustrator 19.2.0, SVG Export Plug-In . SVG Version: 6.00 Build 0)  -->
<svg version="1.1" id="Layer_1" xmlns="http://www.w3.org/2000/svg" xmlns:xlink="http://www.w3.org/1999/xlink" x="0px" y="0px"
	 viewBox="0 0 24 24" style="enable-background:new 0 0 24 24;" xml:space="preserve">
<style type="text/css">
	.st0{display:none;}
	.st1{display:inline;}
	.st2{fill:none;stroke:#000000;stroke-linejoin:round;stroke-miterlimit:10;}
	.st3{fill:none;stroke:#000000;stroke-linecap:round;stroke-linejoin:round;stroke-miterlimit:10;}
</style>
<g id="Filled_Icons" class="st0">
	<g class="st1">
		<path d="M5.1,21.2l-2,0.3c-0.2,0-0.3,0-0.4-0.1c-0.1-0.1-0.2-0.3-0.2-0.4c0,0,0.2-2.4,0.4-4.7c-1.1,0.5-2.9,1.5-2.9,4V24h4.5
			c-0.2,0-0.3-0.1-0.4-0.2c-0.1-0.1-0.1-0.3,0-0.5L5.1,21.2z"/>
		<path d="M21.1,16.3c0.1,2,0.3,4.1,0.4,4.6c0,0,0,0.1,0,0.1c0,0.3-0.2,0.5-0.5,0.5c0,0-0.1,0-0.1,0l-2-0.3l1.1,2.1
			c0.1,0.2,0.1,0.3,0,0.5c-0.1,0.1-0.3,0.2-0.4,0.2H24v-3.8C24,17.8,22.2,16.8,21.1,16.3z"/>
		<path d="M1.9,8.5c0,0,1.4,0.3,3.6,0.6v0.7c-0.5,0.4-0.6,1.2-0.4,2c0.2,0.9,0.8,1.5,1.5,1.7c0.1,0.7,0.3,1.3,0.6,1.8
			c-0.4,0-0.8,0.1-1.2,0.2c1,2.4,3.7,4.5,6.1,5.9c2.4-1.4,5.1-3.5,6.1-5.9c-0.4-0.1-0.8-0.1-1.2-0.2c0.3-0.6,0.5-1.2,0.6-1.8
			c0.7-0.2,1.3-0.8,1.5-1.7c0.2-0.8,0-1.6-0.4-2V9.1c2.2-0.3,3.6-0.6,3.6-0.6c0.2,0,0.4-0.2,0.4-0.4c0-0.2-0.1-0.4-0.3-0.5l-3.4-1.9
			C18.5,5.8,15,7,12,7C9.1,7,5.8,5.8,5.3,5.6L1.8,7.6C1.6,7.7,1.5,7.9,1.5,8.1C1.5,8.3,1.7,8.4,1.9,8.5z M6.2,10.4l0.3-0.1V9.2
			C7,9.2,7.5,9.3,8,9.3V10c0,0.6,0.4,1,1,1h1c0.6,0,1-0.4,1-1V9.5c0.3,0,0.7,0,1,0c0.3,0,0.7,0,1,0V10c0,0.6,0.4,1,1,1h1
			c0.6,0,1-0.4,1-1V9.3c0.5,0,1-0.1,1.5-0.1v1.1l0.3,0.1c0.2,0.1,0.3,0.6,0.2,1c-0.1,0.5-0.4,1-1,1h-0.5V13c0,2.6-3.2,4.5-4.5,4.5
			c-1.3,0-4.5-1.9-4.5-4.5v-0.5H7c-0.5,0-0.9-0.5-1-1C5.9,11,6,10.6,6.2,10.4z"/>
		<path d="M11.5,16h1c0.3,0,0.5-0.2,0.5-0.5c0-0.3-0.2-0.5-0.5-0.5h-1c-0.3,0-0.5,0.2-0.5,0.5C11,15.8,11.2,16,11.5,16z"/>
		<path d="M17.8,5l-2.3-4.7c-0.1-0.1-0.2-0.2-0.3-0.3c-0.1,0-0.3,0-0.4,0.1L12,1.9L9.3,0.1C9.2,0,9,0,8.9,0c-0.1,0-0.3,0.1-0.3,0.3
			L6.2,4.9C7.4,5.3,9.9,6,12,6C14.1,6,16.6,5.3,17.8,5z"/>
		<path d="M17.6,20.2c0.1-0.2,0.3-0.2,0.5-0.2l2.4,0.4C20.3,19.1,20,16,20,14h-0.5c-0.3,3.3-3.5,6.1-6.5,7.9c1.4,0.7,2.5,1.1,3,1.1
			h0h0h2.7l-1.1-2.3C17.5,20.6,17.5,20.4,17.6,20.2z"/>
		<path d="M4.5,14H4c0,2-0.3,5.1-0.4,6.4L5.9,20c0.2,0,0.4,0,0.5,0.2c0.1,0.2,0.1,0.4,0,0.5L5.3,23H11H13C9.7,21.4,4.9,18,4.5,14z"
			/>
	</g>
</g>
<g id="Outline_Icons">
	<g>
		<path class="st2" d="M18,8.6V10c1,0.5,0.5,3-1,3c0,3-3.5,5-5,5s-5-2-5-5c-1.5,0-2-2.5-1-3V8.6"/>
		<line class="st3" x1="11.5" y1="15.5" x2="12.5" y2="15.5"/>
		<path class="st3" d="M12,9C6.5,9,2,8,2,8l4.5-2.5l2.5-5l3,2"/>
		<path class="st3" d="M12,9c5.5,0,10-1,10-1l-4.5-2.5l-2.5-5l-3,2"/>
		<path class="st3" d="M11,10c0,0.6-0.4,1-1,1H9c-0.6,0-1-0.4-1-1V9h3V10z"/>
		<path class="st3" d="M16,10c0,0.6-0.4,1-1,1h-1c-0.6,0-1-0.4-1-1V9h3V10z"/>
		<path class="st3" d="M4.5,23.5l1.5-3L3,21c0,0,0.5-5,0.5-7.5c0,0,1,0,1.5,0c0,5.5,9.4,10,11,10C14.5,23.5,4.5,23.5,4.5,23.5z"/>
		<path class="st2" d="M3.4,16.6c-1,0.5-2.9,1.3-2.9,3.6v3.3H12"/>
		<path class="st2" d="M20.6,16.6c1,0.5,2.9,1.3,2.9,3.6v3.3H12"/>
		<path class="st2" d="M19.5,23.5l-1.5-3l3,0.5c0,0-0.5-5-0.5-7.5c0,0-1,0-1.5,0c-0.5,4-5,8.6-6.7,8.6"/>
		<path class="st2" d="M6.5,5.5c0,0,2.5,1,5.5,1s5.5-1,5.5-1"/>
	</g>
</g>
</svg>
