<?xml version="1.0" encoding="utf-8"?>
<!-- Generator: Adobe Illustrator 19.2.0, SVG Export Plug-In . SVG Version: 6.00 Build 0)  -->
<svg version="1.1" id="Layer_1" xmlns="http://www.w3.org/2000/svg" xmlns:xlink="http://www.w3.org/1999/xlink" x="0px" y="0px"
	 viewBox="0 0 24 24" style="enable-background:new 0 0 24 24;" xml:space="preserve">
<style type="text/css">
	.st0{display:none;}
	.st1{display:inline;}
	.st2{fill:none;stroke:#000000;stroke-linecap:round;stroke-linejoin:round;stroke-miterlimit:10;}
</style>
<g id="Filled_Icons" class="st0">
	<g class="st1">
		<path d="M20,13c-1.1,0-2,0.9-2,2v2.5c0,0.8-0.7,1.5-1.5,1.5S15,18.3,15,17.5V9.1l-3.5-7L8,9.1v8.4C8,18.3,7.3,19,6.5,19
			S5,18.3,5,17.5V15c0-1.1-0.9-2-2-2s-2,0.9-2,2v2c0,0.3,0.2,0.5,0.5,0.5S2,17.3,2,17v-2c0-0.6,0.4-1,1-1s1,0.4,1,1v2.5
			C4,18.9,5.1,20,6.5,20S9,18.9,9,17.5V16h1v4c0,1.7-1.3,3-3,3c-1.7,0-3-1.2-3-2.8c0-0.3-0.2-0.5-0.5-0.5S3,20,3,20.3
			C3,22.4,4.7,24,7,24c2.2,0,4-1.8,4-4v-4h1v4c0,2.2,1.9,4,4.1,4c2.3,0,3.9-1.6,3.9-3.8c0-0.3-0.2-0.5-0.5-0.5
			c-0.3,0-0.5,0.2-0.5,0.5c0,1.6-1.2,2.8-2.9,2.8c-1.7,0-3.1-1.4-3.1-3v-4h1v1.5c0,1.4,1.1,2.5,2.5,2.5s2.5-1.1,2.5-2.5V15
			c0-0.6,0.4-1,1-1s1,0.4,1,1v1c0,0.3,0.2,0.5,0.5,0.5S22,16.3,22,16v-1C22,13.9,21.1,13,20,13z"/>
		<g>
			<path d="M18,6.7l-6-6c0,0,0,0,0,0c0,0,0,0,0,0L16.1,9h1c1,0,1.3-0.5,1.5-0.7C18.6,8,18.7,7.5,18,6.7z"/>
			<path d="M11.1,0.7l-6,6C4.3,7.5,4.4,8,4.5,8.3C4.7,8.6,5,9,6,9h0.9L11.1,0.7C11.1,0.8,11.1,0.8,11.1,0.7
				C11.1,0.8,11.1,0.7,11.1,0.7z"/>
		</g>
	</g>
</g>
<g id="Outline_Icons">
	<g>
		<path class="st2" d="M21.5,16v-1c0-0.8-0.7-1.5-1.5-1.5s-1.5,0.7-1.5,1.5v2.5c0,1.1-0.9,2-2,2c-1.1,0-2-0.9-2-2v-9H17
			c1.1,0,1.4-0.6,0.6-1.4L11.5,1L5.4,7.1C4.6,7.9,4.9,8.5,6,8.5h2.5v9c0,1.1-0.9,2-2,2s-2-0.9-2-2V15c0-0.8-0.7-1.5-1.5-1.5
			S1.5,14.2,1.5,15v2"/>
		<line class="st2" x1="8.5" y1="15.5" x2="14.5" y2="15.5"/>
		<path class="st2" d="M10.5,15.5V20c0,1.9-1.6,3.5-3.5,3.5c-1.9,0-3.5-1.3-3.5-3.2"/>
		<path class="st2" d="M12.5,15.5V20c0,1.9,1.7,3.5,3.6,3.5s3.4-1.3,3.4-3.2"/>
		<polyline class="st2" points="8.5,8.5 11.5,1 14.5,8.5 		"/>
	</g>
</g>
</svg>
