<?xml version="1.0" encoding="utf-8"?>
<!-- Generator: Adobe Illustrator 19.2.0, SVG Export Plug-In . SVG Version: 6.00 Build 0)  -->
<svg version="1.1" id="Layer_1" xmlns="http://www.w3.org/2000/svg" xmlns:xlink="http://www.w3.org/1999/xlink" x="0px" y="0px"
	 viewBox="0 0 24 24" style="enable-background:new 0 0 24 24;" xml:space="preserve">
<style type="text/css">
	.st0{display:none;}
	.st1{display:inline;}
	.st2{fill:none;stroke:#000000;stroke-linecap:round;stroke-linejoin:round;stroke-miterlimit:10;}
</style>
<g id="Filled_Icons" class="st0">
	<g class="st1">
		<g>
			<path d="M5,19c-1.4,0-2.5,1.1-2.5,2.5S3.6,24,5,24s2.5-1.1,2.5-2.5S6.4,19,5,19z"/>
			<path d="M19,19c-1.4,0-2.5,1.1-2.5,2.5S17.6,24,19,24s2.5-1.1,2.5-2.5S20.4,19,19,19z"/>
		</g>
		<g>
			<path d="M23.5,19h-0.7L14,0.3C13.9,0.1,13.7,0,13.5,0h-12C1.2,0,1,0.2,1,0.5v5C1,5.8,1.2,6,1.5,6h8.7l5.6,13H10v-7.5
				c0-0.3-0.2-0.5-0.5-0.5H9H5c-0.2,0-0.3,0.1-0.4,0.2l-2.4,3.4l-2,2C0.1,16.7,0,16.9,0,17v4.5C0,21.8,0.2,22,0.5,22h1.1
				c0-0.2-0.1-0.3-0.1-0.5C1.5,19.6,3.1,18,5,18s3.5,1.6,3.5,3.5c0,0.2,0,0.3-0.1,0.5h7.1c0-0.2-0.1-0.3-0.1-0.5
				c0-1.9,1.6-3.5,3.5-3.5s3.5,1.6,3.5,3.5c0,0.2,0,0.3-0.1,0.5h1.1c0.3,0,0.5-0.2,0.5-0.5v-2C24,19.2,23.8,19,23.5,19z M7.5,14H6.2
				l-1.4,1.8c0,0.1-0.1,0.2-0.3,0.2c-0.1,0-0.2,0-0.3-0.1c-0.2-0.2-0.3-0.5-0.1-0.7l1.5-2C5.7,13.1,5.8,13,6,13h1.5
				C7.8,13,8,13.2,8,13.5S7.8,14,7.5,14z"/>
			<path d="M7,8c-1.1,0-2,0.9-2,2h4C9,8.9,8.1,8,7,8z"/>
		</g>
	</g>
</g>
<g id="Outline_Icons">
	<g>
		<circle class="st2" cx="5" cy="21.5" r="2"/>
		<circle class="st2" cx="19" cy="21.5" r="2"/>
		<line class="st2" x1="7" y1="21.5" x2="17" y2="21.5"/>
		<polyline class="st2" points="7.5,13.5 6,13.5 4.5,15.5 		"/>
		<polyline class="st2" points="3,21.5 0.5,21.5 0.5,17 2.5,15 5,11.5 9.5,11.5 9.5,19.5 		"/>
		<polyline class="st2" points="0.5,19.5 23.5,19.5 23.5,21.5 21,21.5 		"/>
		<polygon class="st2" points="13.5,0.5 1.5,0.5 1.5,5.5 10.5,5.5 16.5,19.5 22.5,19.5 		"/>
		<path class="st2" d="M5.5,10c0-0.8,0.7-1.5,1.5-1.5S8.5,9.2,8.5,10v1.5h-3V10z"/>
	</g>
</g>
</svg>
