<?xml version="1.0" encoding="utf-8"?>
<!-- Generator: Adobe Illustrator 19.2.0, SVG Export Plug-In . SVG Version: 6.00 Build 0)  -->
<svg version="1.1" id="Layer_1" xmlns="http://www.w3.org/2000/svg" xmlns:xlink="http://www.w3.org/1999/xlink" x="0px" y="0px"
	 viewBox="0 0 24 24" style="enable-background:new 0 0 24 24;" xml:space="preserve">
<style type="text/css">
	.st0{display:none;}
	.st1{display:inline;}
	.st2{fill:none;stroke:#000000;stroke-linejoin:round;stroke-miterlimit:10;}
</style>
<g id="Filled_Icons" class="st0">
	<g class="st1">
		<g>
			<path d="M9.6,14.4c-0.5-0.5-0.9-1-1.3-1.6l-3,3l2.8,2.8l3-3C10.6,15.3,10.1,14.9,9.6,14.4z"/>
			<path d="M4.7,16.5l-3,3c-0.8,0.8-0.8,2,0,2.8c0.4,0.4,0.9,0.6,1.4,0.6c0.5,0,1-0.2,1.4-0.6l3-3L4.7,16.5z"/>
		</g>
		<path d="M21.7,2.3C20.1,0.8,18.1,0,16,0c-2.1,0-4.1,0.8-5.7,2.3S8,5.9,8,8s0.8,4.1,2.3,5.7S13.9,16,16,16s4.1-0.8,5.7-2.3
			C24.8,10.5,24.8,5.5,21.7,2.3z M12.5,8.7C12.3,8.9,12,9,11.8,9s-0.5-0.1-0.7-0.3c-0.4-0.4-0.4-1,0-1.4c0.4-0.4,1-0.4,1.4,0
			C12.9,7.7,12.9,8.3,12.5,8.7z M14.6,10.8c-0.2,0.2-0.4,0.3-0.7,0.3s-0.5-0.1-0.7-0.3c-0.4-0.4-0.4-1,0-1.4c0.4-0.4,1-0.4,1.4,0
			C15,9.8,15,10.4,14.6,10.8z M14.6,6.6c-0.2,0.2-0.4,0.3-0.7,0.3s-0.5-0.1-0.7-0.3c-0.4-0.4-0.4-1,0-1.4c0.4-0.4,1-0.4,1.4,0
			C15,5.6,15,6.2,14.6,6.6z M16.7,13c-0.2,0.2-0.4,0.3-0.7,0.3c-0.3,0-0.5-0.1-0.7-0.3c-0.4-0.4-0.4-1,0-1.4c0.4-0.4,1-0.4,1.4,0
			C17.1,11.9,17.1,12.6,16.7,13z M16.7,8.7C16.5,8.9,16.3,9,16,9c-0.3,0-0.5-0.1-0.7-0.3c-0.4-0.4-0.4-1,0-1.4c0.4-0.4,1-0.4,1.4,0
			C17.1,7.7,17.1,8.3,16.7,8.7z M16.7,4.5c-0.2,0.2-0.4,0.3-0.7,0.3c-0.3,0-0.5-0.1-0.7-0.3c-0.4-0.4-0.4-1,0-1.4
			c0.4-0.4,1-0.4,1.4,0C17.1,3.4,17.1,4.1,16.7,4.5z M18.8,10.8c-0.2,0.2-0.4,0.3-0.7,0.3s-0.5-0.1-0.7-0.3c-0.4-0.4-0.4-1,0-1.4
			c0.4-0.4,1-0.4,1.4,0C19.2,9.8,19.2,10.4,18.8,10.8z M18.8,6.6c-0.2,0.2-0.4,0.3-0.7,0.3s-0.5-0.1-0.7-0.3c-0.4-0.4-0.4-1,0-1.4
			c0.4-0.4,1-0.4,1.4,0C19.2,5.6,19.2,6.2,18.8,6.6z M21,8.7C20.8,8.9,20.5,9,20.2,9s-0.5-0.1-0.7-0.3c-0.4-0.4-0.4-1,0-1.4
			c0.4-0.4,1-0.4,1.4,0C21.3,7.7,21.3,8.3,21,8.7z"/>
	</g>
</g>
<g id="Outline_Icons">
	<g>
		<path class="st2" d="M5.4,16.5l2.1,2.1l-3.3,3.3c-0.6,0.6-1.5,0.6-2.1,0c-0.6-0.6-0.6-1.5,0-2.1L5.4,16.5z"/>
		<rect x="5.6" y="13.9" transform="matrix(0.7072 -0.707 0.707 0.7072 -8.3945 10.5783)" class="st2" width="6" height="3"/>
		<circle class="st2" cx="16" cy="8" r="7.5"/>
		<circle class="st2" cx="16" cy="3.8" r="0.5"/>
		<circle class="st2" cx="18.1" cy="5.9" r="0.5"/>
		<circle class="st2" cx="20.2" cy="8" r="0.5"/>
		<circle class="st2" cx="13.9" cy="5.9" r="0.5"/>
		<circle class="st2" cx="16" cy="8" r="0.5"/>
		<circle class="st2" cx="18.1" cy="10.1" r="0.5"/>
		<circle class="st2" cx="11.8" cy="8" r="0.5"/>
		<circle class="st2" cx="13.9" cy="10.1" r="0.5"/>
		<circle class="st2" cx="16" cy="12.2" r="0.5"/>
	</g>
</g>
</svg>
