<?xml version="1.0" encoding="utf-8"?>
<!-- Generator: Adobe Illustrator 19.2.0, SVG Export Plug-In . SVG Version: 6.00 Build 0)  -->
<svg version="1.1" id="Layer_1" xmlns="http://www.w3.org/2000/svg" xmlns:xlink="http://www.w3.org/1999/xlink" x="0px" y="0px"
	 viewBox="0 0 24 24" style="enable-background:new 0 0 24 24;" xml:space="preserve">
<style type="text/css">
	.st0{display:none;}
	.st1{display:inline;}
	.st2{fill:none;stroke:#000000;stroke-linejoin:round;stroke-miterlimit:10;}
</style>
<g id="Filled_Icons" class="st0">
	<g class="st1">
		<path d="M22.5,17.2l1-1.5c0.1-0.2,0.1-0.4,0-0.6l-1-1.5l1-1.5c0.1-0.2,0.1-0.4,0-0.6l-1-1.5l1-1.5c0.1-0.2,0.1-0.4,0-0.6l-1-1.5
			l1-1.5c0.1-0.2,0.1-0.4,0-0.6l-1.1-1.5l0.9-1.9c0.1-0.2,0.1-0.4-0.1-0.6c-0.2-0.2-0.4-0.2-0.6-0.1l-1.9,0.9l-1.5-1.1
			c-0.2-0.1-0.4-0.1-0.6,0l-1.5,1.1l-1.5-1c-0.2-0.1-0.4-0.1-0.6,0l-1.5,1l-1.5-1c-0.2-0.1-0.4-0.1-0.6,0l-1.5,1L8.8,0.5
			c-0.2-0.1-0.4-0.1-0.6,0l-1.5,1l-1.5-1c-0.2-0.1-0.4-0.1-0.6,0L3.2,1.5L1.3,0.6C1.1,0.5,0.9,0.6,0.7,0.7C0.5,0.9,0.5,1.1,0.6,1.3
			l0.9,1.9L0.5,4.7c-0.1,0.2-0.1,0.4,0,0.6l1.1,1.5L0.5,8.2c-0.1,0.2-0.1,0.4,0,0.6l1,1.5l-1,1.5c-0.1,0.2-0.1,0.4,0,0.6l1,1.5
			l-1,1.5c-0.1,0.2-0.1,0.4,0,0.6l1,1.5l-1,1.5c-0.1,0.2-0.1,0.4,0,0.6l1.1,1.5l-0.9,1.9c-0.1,0.2-0.1,0.4,0.1,0.6
			c0.2,0.2,0.4,0.2,0.6,0.1l1.9-0.9l1.5,1.1c0.2,0.1,0.4,0.1,0.6,0l1.5-1.1l1.5,1.1c0.2,0.1,0.4,0.1,0.6,0l1.5-1l1.5,1
			c0.2,0.1,0.4,0.1,0.6,0l1.5-1l1.5,1c0.1,0.1,0.2,0.1,0.3,0.1c0.1,0,0.2,0,0.3-0.1l1.5-1l1.5,1c0.2,0.1,0.4,0.1,0.6,0l1.5-1.1
			l1.9,0.9c0.2,0.1,0.4,0.1,0.6-0.1c0.2-0.2,0.2-0.4,0.1-0.6l-0.9-1.9l1.1-1.6c0.1-0.2,0.1-0.4,0-0.6L22.5,17.2z M20,19.5
			c0,0.3-0.2,0.5-0.5,0.5h-15C4.2,20,4,19.8,4,19.5v-15C4,4.2,4.2,4,4.5,4h15C19.8,4,20,4.2,20,4.5V19.5z"/>
		<g>
			<path d="M18,17.4l-2.1-8C15.8,9.2,15.6,9,15.4,9c-0.2,0-0.4,0.1-0.5,0.3l-2.1,5.1l-1.9-1.6c-0.1-0.1-0.3-0.1-0.4-0.1
				c-0.2,0-0.3,0.1-0.3,0.3l-1.9,4.2c-0.1,0.2-0.1,0.3,0,0.5C8.3,17.9,8.5,18,8.7,18h8.8c0.2,0,0.3-0.1,0.4-0.2
				C18,17.7,18,17.5,18,17.4z"/>
			<circle cx="9" cy="9" r="2.5"/>
		</g>
	</g>
</g>
<g id="Outline_Icons">
	<g>
		<polygon class="st2" points="17.5,17.5 15.4,9.5 13,15.3 10.6,13.3 8.7,17.5 		"/>
		<g>
			<polygon class="st2" points="22.9,22.9 20.8,21.9 19,23.1 17.3,21.9 15.5,23.1 13.8,21.9 12,23.1 10.3,21.9 8.5,23.1 6.8,21.9 
				5,23.1 3.3,21.9 1.1,22.9 2.1,20.8 0.9,19 2.1,17.3 0.9,15.5 2.1,13.8 0.9,12 2.1,10.3 0.9,8.5 2.1,6.8 0.9,5 2.1,3.3 1.1,1.1 
				3.2,2.1 5,0.9 6.7,2.1 8.5,0.9 10.2,2.1 12,0.9 13.7,2.1 15.5,0.9 17.2,2.1 19,0.9 20.7,2.1 22.9,1.1 21.9,3.2 23.1,5 21.9,6.7 
				23.1,8.5 21.9,10.2 23.1,12 21.9,13.7 23.1,15.5 21.9,17.2 23.1,19 21.9,20.8 			"/>
		</g>
		<rect x="4.5" y="4.5" class="st2" width="15" height="15"/>
		<circle class="st2" cx="9" cy="9" r="2"/>
	</g>
</g>
</svg>
