<?xml version="1.0" encoding="utf-8"?>
<!-- Generator: Adobe Illustrator 19.2.0, SVG Export Plug-In . SVG Version: 6.00 Build 0)  -->
<svg version="1.1" id="Layer_1" xmlns="http://www.w3.org/2000/svg" xmlns:xlink="http://www.w3.org/1999/xlink" x="0px" y="0px"
	 viewBox="0 0 24 24" style="enable-background:new 0 0 24 24;" xml:space="preserve">
<style type="text/css">
	.st0{display:none;}
	.st1{display:inline;}
	.st2{fill:none;stroke:#000000;stroke-linecap:round;stroke-linejoin:round;stroke-miterlimit:10;}
</style>
<g id="Filled_Icon" class="st0">
	<path class="st1" d="M21.5,16h-4.8c-3.3-2.3-1.8-5.6-0.6-8.3C16.6,6.6,17,5.7,17,5c0-3.3-2.5-5-5-5C9.5,0,7,1.7,7,5
		c0,0.7,0.4,1.6,0.9,2.7c1.2,2.7,2.7,6-0.6,8.3H2.5C1.1,16,0,17.1,0,18.5v3C0,21.8,0.2,22,0.5,22H1v1.5C1,23.8,1.2,24,1.5,24h21
		c0.3,0,0.5-0.2,0.5-0.5V22h0.5c0.3,0,0.5-0.2,0.5-0.5v-3C24,17.1,22.9,16,21.5,16z M22,23H2v-1h20V23z"/>
</g>
<g id="Outline_Icons">
	<g>
		<polyline class="st2" points="22.5,21.5 22.5,23.5 1.5,23.5 1.5,21.5 		"/>
		<path class="st2" d="M21.5,16.5h-5c-5.2-3.5,0-9.3,0-11.5c0-6-9-6-9,0c0,2.2,5.3,8,0,11.5h-5c-1.1,0-2,0.9-2,2v3h23v-3
			C23.5,17.4,22.6,16.5,21.5,16.5z"/>
	</g>
</g>
</svg>
