<?xml version="1.0" encoding="utf-8"?>
<!-- Generator: Adobe Illustrator 19.2.0, SVG Export Plug-In . SVG Version: 6.00 Build 0)  -->
<svg version="1.1" id="Layer_1" xmlns="http://www.w3.org/2000/svg" xmlns:xlink="http://www.w3.org/1999/xlink" x="0px" y="0px"
	 viewBox="0 0 24 24" style="enable-background:new 0 0 24 24;" xml:space="preserve">
<style type="text/css">
	.st0{display:none;}
	.st1{display:inline;}
	.st2{fill:none;stroke:#000000;stroke-linejoin:round;stroke-miterlimit:10;}
	.st3{fill:none;stroke:#000000;stroke-linecap:round;stroke-linejoin:round;stroke-miterlimit:10;}
</style>
<g id="Filled_Icon" class="st0">
	<g class="st1">
		<path d="M21.1,7.2L20,6.2l-9.6,9.6l1.1,1.1c0.3,0.3,0.7,0.4,1.1,0.4c0.4,0,0.8-0.2,1.1-0.4l7.5-7.5c0.3-0.3,0.4-0.7,0.4-1.1
			C21.5,7.9,21.4,7.5,21.1,7.2z M19.2,9.5l-5.4,5.4C13.8,15,13.6,15,13.5,15c-0.1,0-0.3,0-0.4-0.1c-0.2-0.2-0.2-0.5,0-0.7l5.4-5.4
			c0.2-0.2,0.5-0.2,0.7,0C19.4,9,19.4,9.3,19.2,9.5z"/>
		<path d="M3.5,13c2.2,0,4.1,1.7,4.4,3.8L20.2,4.5l-0.4-0.4c-1-1-2.4-1.6-3.9-1.6c-1.5,0-2.8,0.6-3.9,1.6L3.2,13
			C3.3,13,3.4,13,3.5,13z"/>
		<path d="M20,18H7v-0.5C7,15.6,5.4,14,3.5,14C1.6,14,0,15.6,0,17.5v3C0,21.3,0.7,22,1.5,22H23v-1C23,19.3,21.7,18,20,18z"/>
	</g>
</g>
<g id="Outline_Icons">
	<g>
		<path class="st2" d="M3.5,14.5c1.7,0,3,1.3,3,3v1H20c1.4,0,2.5,1.1,2.5,2.5v0.5h-21c-0.6,0-1-0.4-1-1v-3
			C0.5,15.8,1.8,14.5,3.5,14.5z"/>
		<path class="st2" d="M13.2,16.5c-0.4,0.4-1,0.4-1.4,0l-2.1-2.1l8.9-8.9l2.1,2.1c0.4,0.4,0.4,1,0,1.4L13.2,16.5z"/>
		<path class="st2" d="M2.2,14.7L12.5,4.5c2-2,5.1-2,7.1,0l-13,13"/>
		<line class="st3" x1="13" y1="14" x2="18.3" y2="8.7"/>
	</g>
</g>
</svg>
