<?xml version="1.0" encoding="utf-8"?>
<!-- Generator: Adobe Illustrator 19.2.0, SVG Export Plug-In . SVG Version: 6.00 Build 0)  -->
<svg version="1.1" id="Layer_1" xmlns="http://www.w3.org/2000/svg" xmlns:xlink="http://www.w3.org/1999/xlink" x="0px" y="0px"
	 viewBox="0 0 24 24" style="enable-background:new 0 0 24 24;" xml:space="preserve">
<style type="text/css">
	.st0{display:none;}
	.st1{display:inline;}
	.st2{fill:none;stroke:#000000;stroke-linejoin:round;stroke-miterlimit:10;}
</style>
<g id="Filled_Icons" class="st0">
	<g class="st1">
		<path d="M23,18.1l-10.8-7.3l-1.9,0.3L10,12.9l7.3,10.9c0.1,0.1,0.2,0.2,0.4,0.2c0,0,0.1,0,0.1,0c0.2,0,0.4-0.2,0.4-0.4l1-3.6
			l3.6-1c0.2-0.1,0.3-0.2,0.4-0.4C23.2,18.4,23.1,18.3,23,18.1z"/>
		<path d="M14.4,8.5L10,6.3l0.7-4.9c0-0.2-0.1-0.4-0.3-0.5C10.3,0.8,10,0.8,9.9,1L6.4,4.4L2.1,2.2C1.9,2.1,1.6,2.1,1.5,2.3
			C1.3,2.4,1.3,2.7,1.4,2.9l2.2,4.4l-3.5,3.5C0,10.8,0,11.1,0.1,11.3c0.1,0.2,0.3,0.3,0.5,0.3l4.9-0.7l2.3,4.4
			c0.1,0.2,0.3,0.3,0.4,0.3c0,0,0.1,0,0.1,0c0.2,0,0.4-0.2,0.4-0.4l0.8-4.8l4.8-0.8c0.2,0,0.4-0.2,0.4-0.4
			C14.7,8.8,14.6,8.6,14.4,8.5z"/>
	</g>
</g>
<g id="Outline_Icons">
	<g>
		<polygon class="st2" points="1.8,2.6 6.5,5 10.2,1.3 9.5,6.6 14.2,9 9,9.8 8.2,15 5.7,10.3 0.5,11 4.2,7.3 		"/>
		<polyline class="st2" points="8.9,10.3 17.7,23.5 18.8,19.6 22.7,18.6 9.7,9.7 		"/>
	</g>
</g>
</svg>
