<?xml version="1.0" encoding="utf-8"?>
<!-- Generator: Adobe Illustrator 19.2.0, SVG Export Plug-In . SVG Version: 6.00 Build 0)  -->
<svg version="1.1" id="Layer_1" xmlns="http://www.w3.org/2000/svg" xmlns:xlink="http://www.w3.org/1999/xlink" x="0px" y="0px"
	 viewBox="0 0 24 24" style="enable-background:new 0 0 24 24;" xml:space="preserve">
<style type="text/css">
	.st0{display:none;}
	.st1{display:inline;}
	.st2{fill:none;stroke:#000000;stroke-linejoin:round;stroke-miterlimit:10;}
</style>
<g id="Filled_Icons" class="st0">
	<g class="st1">
		<path d="M17.1,14.7L19,13h-1.5c-0.8,0-1.5-0.7-1.5-1.5V10h-1.5C13.7,10,13,9.3,13,8.5v-3c0-0.6,0.4-1.1,0.9-1.4l-1.4-3.8
			C12.4,0.1,12.1,0,11.9,0c-0.2,0-0.3,0.2-0.4,0.4L8.7,8H0.5C0.3,8,0.1,8.1,0,8.3C0,8.5,0,8.7,0.2,8.9l6.7,5.8L4,23.3
			c-0.1,0.2,0,0.4,0.2,0.6C4.3,24,4.4,24,4.5,24s0.2,0,0.3-0.1l7.2-5.3l7.2,5.3c0.2,0.1,0.4,0.1,0.6,0c0.2-0.1,0.2-0.4,0.2-0.6
			L17.1,14.7z"/>
	</g>
	<path class="st1" d="M23.5,5H21V2.5C21,2.2,20.8,2,20.5,2h-3C17.2,2,17,2.2,17,2.5V5h-2.5C14.2,5,14,5.2,14,5.5v3
		C14,8.8,14.2,9,14.5,9H17v2.5c0,0.3,0.2,0.5,0.5,0.5h3c0.3,0,0.5-0.2,0.5-0.5V9h2.5C23.8,9,24,8.8,24,8.5v-3C24,5.2,23.8,5,23.5,5z
		"/>
</g>
<g id="Outline_Icons">
	<g>
		<polyline class="st2" points="18,13.2 16.5,14.5 19.5,23.5 12,18 4.5,23.5 7.5,14.5 0.5,8.4 9,8.4 12,0.5 13.3,3.9 		"/>
		<polygon class="st2" points="23.5,5.4 20.5,5.4 20.5,2.4 17.5,2.4 17.5,5.4 14.5,5.4 14.5,8.4 17.5,8.4 17.5,11.4 20.5,11.4 
			20.5,8.4 23.5,8.4 		"/>
	</g>
</g>
</svg>
