<?xml version="1.0" encoding="utf-8"?>
<!-- Generator: Adobe Illustrator 19.2.0, SVG Export Plug-In . SVG Version: 6.00 Build 0)  -->
<svg version="1.1" id="Layer_1" xmlns="http://www.w3.org/2000/svg" xmlns:xlink="http://www.w3.org/1999/xlink" x="0px" y="0px"
	 viewBox="0 0 24 24" style="enable-background:new 0 0 24 24;" xml:space="preserve">
<style type="text/css">
	.st0{display:none;}
	.st1{display:inline;}
	.st2{fill:none;stroke:#000000;stroke-linecap:round;stroke-linejoin:round;stroke-miterlimit:10;}
	.st3{fill:none;stroke:#000000;stroke-linejoin:round;stroke-miterlimit:10;}
</style>
<g id="Filled_Icons" class="st0">
	<g class="st1">
		<path d="M17.8,5.8l-1.9,1.8l0.6,2.4c0.9,1.1,1.5,2.5,1.5,4c0,3.3-2.7,6-6,6c-3.3,0-6-2.7-6-6c0-1.5,0.6-2.9,1.5-4l0.6-2.4L6.2,5.8
			C3.7,7.7,2,10.6,2,14c0,5.5,4.5,10,10,10c5.5,0,10-4.5,10-10C22,10.6,20.3,7.7,17.8,5.8z"/>
		<path d="M17.5,4.3C17.4,4.1,17.2,4,17,4h-3.2l-1.3-3.3c-0.1-0.4-0.8-0.4-0.9,0L10.2,4H7C6.8,4,6.6,4.1,6.5,4.3
			c-0.1,0.2,0,0.4,0.1,0.6l2.6,2.4l-1,3.7c-0.1,0.2,0,0.4,0.2,0.5c0.1,0.1,0.2,0.1,0.3,0.1c0.1,0,0.2,0,0.3-0.1L12,9.3l2.9,2.2
			c0.2,0.1,0.4,0.1,0.6,0c0.2-0.1,0.3-0.3,0.2-0.5l-1-3.7l2.6-2.4C17.5,4.7,17.5,4.5,17.5,4.3z"/>
		<path d="M15,17.6l-2.5-6.8c-0.1-0.2-0.3-0.3-0.5-0.3s-0.4,0.1-0.5,0.3L9,17.7C9,17.9,9,18,9.1,18.2c0.1,0.1,0.2,0.2,0.4,0.2h5
			c0,0,0,0,0,0c0.3,0,0.5-0.2,0.5-0.5C15.1,17.8,15,17.7,15,17.6z"/>
	</g>
</g>
<g id="Outline_Icons">
	<g>
		<path class="st2" d="M17.3,12.5c0.1,0.5,0.2,1,0.2,1.5c0,3-2.5,5.5-5.5,5.5c-3,0-5.5-2.5-5.5-5.5c0-0.5,0.1-1,0.2-1.5"/>
		<path class="st2" d="M18.4,7c1.9,1.7,3.1,4.2,3.1,7c0,5.2-4.3,9.5-9.5,9.5c-5.2,0-9.5-4.3-9.5-9.5c0-2.8,1.2-5.3,3.1-7"/>
		<polygon class="st3" points="12,0.9 13.4,4.5 17,4.5 14.1,7.1 15.2,11.1 12,8.6 8.8,11.1 9.9,7.1 7,4.5 10.6,4.5 		"/>
		<line class="st2" x1="12" y1="8.6" x2="9.5" y2="15.5"/>
		<line class="st2" x1="12" y1="8.6" x2="14.5" y2="15.5"/>
	</g>
</g>
</svg>
