<?xml version="1.0" encoding="utf-8"?>
<!-- Generator: Adobe Illustrator 19.2.0, SVG Export Plug-In . SVG Version: 6.00 Build 0)  -->
<svg version="1.1" id="Layer_1" xmlns="http://www.w3.org/2000/svg" xmlns:xlink="http://www.w3.org/1999/xlink" x="0px" y="0px"
	 viewBox="0 0 24 24" style="enable-background:new 0 0 24 24;" xml:space="preserve">
<style type="text/css">
	.st0{display:none;}
	.st1{display:inline;}
	.st2{fill:none;stroke:#000000;stroke-linejoin:round;stroke-miterlimit:10;}
</style>
<g id="Filled_Icons" class="st0">
	<path class="st1" d="M16.5,0h-6C4.7,0,0,4.7,0,10.5V19c0,2.8,2.2,5,5,5s5-2.2,5-5c0-2.2,1.8-4,4-4h2.5c4.1,0,7.5-3.4,7.5-7.5
		C24,3.4,20.6,0,16.5,0z M5,20.5c-0.8,0-1.5-0.7-1.5-1.5c0-0.8,0.7-1.5,1.5-1.5s1.5,0.7,1.5,1.5C6.5,19.8,5.8,20.5,5,20.5z
		 M16.5,11.5H13c-6.9,0-5,4.5-7,4.5c-1,0-2.5-1-2.5-3v-1.5c0-4.4,3.6-8,8-8h5c2.2,0,4,1.8,4,4S18.7,11.5,16.5,11.5z"/>
</g>
<g id="Outline_Icons">
	<g>
		<path class="st2" d="M10.5,0.5c-5.5,0-10,4.5-10,10v3V19c0,2.5,2,4.5,4.5,4.5s4.5-2,4.5-4.5s2-4.5,4.5-4.5h2.5c3.9,0,7-3.1,7-7
			c0-3.9-3.1-7-7-7H10.5z"/>
		<path class="st2" d="M11.5,3.5c-4.4,0-8,3.6-8,8V13c0,2,1.5,3,2.5,3c2,0,0.1-4.5,7-4.5h3.5c2.2,0,4-1.8,4-4s-1.8-4-4-4H11.5z"/>
		<circle class="st2" cx="5" cy="19" r="1"/>
	</g>
</g>
</svg>
