<?xml version="1.0" encoding="utf-8"?>
<!-- Generator: Adobe Illustrator 19.2.0, SVG Export Plug-In . SVG Version: 6.00 Build 0)  -->
<svg version="1.1" id="Layer_1" xmlns="http://www.w3.org/2000/svg" xmlns:xlink="http://www.w3.org/1999/xlink" x="0px" y="0px"
	 viewBox="0 0 24 24" style="enable-background:new 0 0 24 24;" xml:space="preserve">
<style type="text/css">
	.st0{display:none;}
	.st1{display:inline;}
	.st2{fill:none;stroke:#000000;stroke-linecap:round;stroke-linejoin:round;stroke-miterlimit:10;}
</style>
<g id="Filled_Icons" class="st0">
	<g class="st1">
		<path d="M19.5,10H18V9H6v1H4.5C4.2,10,4,10.2,4,10.5C4,10.8,4.2,11,4.5,11H6v2.5C6,14.9,7.1,16,8.5,16h7c1.4,0,2.5-1.1,2.5-2.5V11
			h1.5c0.3,0,0.5-0.2,0.5-0.5C20,10.2,19.8,10,19.5,10z"/>
		<path d="M4.5,6H6v2h12V6h1.5C19.8,6,20,5.8,20,5.5C20,5.2,19.8,5,19.5,5H18V3h0.5C18.8,3,19,2.8,19,2.5C19,2.2,18.8,2,18.5,2h-1
			h-3.1c-0.2-1.1-1.2-2-2.4-2S9.8,0.9,9.6,2H6.5h-1C5.2,2,5,2.2,5,2.5C5,2.8,5.2,3,5.5,3H6v2H4.5C4.2,5,4,5.2,4,5.5
			C4,5.8,4.2,6,4.5,6z M12,1c0.6,0,1.2,0.4,1.4,1h-2.8C10.8,1.4,11.3,1,12,1z"/>
		<path d="M14.5,18c-0.2,0-0.3,0.1-0.4,0.2l-0.6,0.8l-1.1-1.8c-0.2-0.3-0.7-0.3-0.9,0l-1.1,1.8l-0.6-0.8C9.8,18.1,9.7,18,9.5,18
			c-0.2,0-0.3,0.1-0.4,0.3c-0.3,0.5-1.6,2.8-1.6,3.7c0,1.1,0.9,2,2,2h5c1.1,0,2-0.9,2-2c0-0.9-1.3-3.3-1.6-3.7
			C14.9,18.1,14.7,18,14.5,18z"/>
	</g>
</g>
<g id="Outline_Icons">
	<g>
		<path class="st2" d="M17.5,13.5c0,1.1-0.9,2-2,2h-7c-1.1,0-2-0.9-2-2v-11h11V13.5z"/>
		<line class="st2" x1="6.5" y1="5.5" x2="4.5" y2="5.5"/>
		<line class="st2" x1="17.5" y1="5.5" x2="19.5" y2="5.5"/>
		<line class="st2" x1="6.5" y1="10.5" x2="4.5" y2="10.5"/>
		<line class="st2" x1="17.5" y1="10.5" x2="19.5" y2="10.5"/>
		<line class="st2" x1="5.5" y1="2.5" x2="18.5" y2="2.5"/>
		<path class="st2" d="M10,2.5c0-1.1,0.9-2,2-2c1.1,0,2,0.9,2,2"/>
		<line class="st2" x1="6.5" y1="8.5" x2="17.5" y2="8.5"/>
		<path class="st2" d="M14.5,23.5c0.8,0,1.5-0.7,1.5-1.5s-1.5-3.5-1.5-3.5l-1,1.5L12,17.5L10.5,20l-1-1.5c0,0-1.5,2.7-1.5,3.5
			s0.7,1.5,1.5,1.5H14.5z"/>
	</g>
</g>
</svg>
