<?xml version="1.0" encoding="utf-8"?>
<!-- Generator: Adobe Illustrator 19.2.0, SVG Export Plug-In . SVG Version: 6.00 Build 0)  -->
<svg version="1.1" id="Layer_1" xmlns="http://www.w3.org/2000/svg" xmlns:xlink="http://www.w3.org/1999/xlink" x="0px" y="0px"
	 viewBox="0 0 24 24" style="enable-background:new 0 0 24 24;" xml:space="preserve">
<style type="text/css">
	.st0{display:none;}
	.st1{display:inline;}
	.st2{fill:none;stroke:#000000;stroke-linejoin:round;stroke-miterlimit:10;}
</style>
<g id="Filled_Icons" class="st0">
	<g class="st1">
		<path d="M5.8,8.7C5.3,9.7,5,10.8,5,12c0,0.4,0,0.7,0.1,1.1c2.7,0.5,4.8,2.8,4.9,5.6c0.6,0.2,1.3,0.3,2,0.3c0.7,0,1.4-0.1,2-0.3
			c0.1-2.8,2.2-5.1,4.9-5.6C19,12.8,19,12.4,19,12c0-1.2-0.3-2.3-0.8-3.3C14.1,7.8,9.9,7.8,5.8,8.7z M14,12c0,1.1-0.9,2-2,2
			s-2-0.9-2-2c0-1.1,0.9-2,2-2S14,10.9,14,12z"/>
		<path d="M12,0C5.4,0,0,5.4,0,12s5.4,12,12,12c6.6,0,12-5.4,12-12S18.6,0,12,0z M12,20c-4.4,0-8-3.6-8-8s3.6-8,8-8s8,3.6,8,8
			S16.4,20,12,20z"/>
	</g>
</g>
<g id="Outline_Icons">
	<g>
		<circle class="st2" cx="12" cy="12" r="11.5"/>
		<path class="st2" d="M3.8,9.7C6.4,8.9,9.2,8.5,12,8.5s5.6,0.4,8.2,1.2"/>
		<circle class="st2" cx="12" cy="12" r="8.5"/>
		<circle class="st2" cx="12" cy="12" r="1.5"/>
		<path class="st2" d="M3.5,12.5c0.2,0,0.3,0,0.5,0c3.6,0,6.5,2.9,6.5,6.5c0,0.5,0,0.9-0.1,1.4"/>
		<path class="st2" d="M13.6,20.3c-0.1-0.5-0.1-0.9-0.1-1.3c0-3.6,2.9-6.5,6.5-6.5c0.2,0,0.3,0,0.5,0"/>
	</g>
</g>
</svg>
