<?xml version="1.0" encoding="utf-8"?>
<!-- Generator: Adobe Illustrator 19.2.0, SVG Export Plug-In . SVG Version: 6.00 Build 0)  -->
<svg version="1.1" id="Layer_1" xmlns="http://www.w3.org/2000/svg" xmlns:xlink="http://www.w3.org/1999/xlink" x="0px" y="0px"
	 viewBox="0 0 24 24" style="enable-background:new 0 0 24 24;" xml:space="preserve">
<style type="text/css">
	.st0{display:none;}
	.st1{display:inline;}
	.st2{fill:none;stroke:#000000;stroke-linecap:round;stroke-linejoin:round;stroke-miterlimit:10;}
</style>
<g id="Filled_Icons" class="st0">
	<path class="st1" d="M20.5,8C19.1,8,18,9.1,18,10.5c0,1.2,0.9,2.2,2,2.4v6.6c0,0.8-0.7,1.5-1.5,1.5c-0.8,0-1.5-0.7-1.5-1.5v-3
		c0-1.7-1.3-3-3-3s-3,1.3-3,3v5c0,0.8-0.7,1.5-1.5,1.5C8.7,23,8,22.3,8,21.5v-7c2.8-0.3,5-2.6,5-5.5V4c0-1.2-0.9-2.2-2-2.5v-1
		C11,0.2,10.8,0,10.5,0c-0.8,0-2,0.5-2,2s1.2,2,2,2C10.8,4,11,3.8,11,3.5V2.6c0.6,0.2,1,0.8,1,1.4v5c0,2.5-2,4.5-4.5,4.5S3,11.5,3,9
		V4c0-0.7,0.4-1.2,1-1.4v0.9C4,3.8,4.2,4,4.5,4c0.8,0,2-0.5,2-2s-1.2-2-2-2C4.2,0,4,0.2,4,0.5v1C2.9,1.8,2,2.8,2,4v5
		c0,2.9,2.2,5.2,5,5.5v7C7,22.9,8.1,24,9.5,24c1.4,0,2.5-1.1,2.5-2.5v-5c0-1.1,0.9-2,2-2c1.1,0,2,0.9,2,2v3c0,1.4,1.1,2.5,2.5,2.5
		c1.4,0,2.5-1.1,2.5-2.5V13c1.1-0.2,2-1.2,2-2.4C23,9.1,21.9,8,20.5,8z"/>
</g>
<g id="Outline_Icons">
	<g>
		<circle class="st2" cx="20.5" cy="10.5" r="2"/>
		<path class="st2" d="M4.5,2c-1.1,0-2,0.9-2,2v5l0,0c0,2.8,2.2,5,5,5s5-2.2,5-5V4c0-1.1-0.9-2-2-2"/>
		<path class="st2" d="M7.5,14v7.5c0,1.1,0.9,2,2,2c1.1,0,2-0.9,2-2v-5c0-1.4,1.1-2.5,2.5-2.5c1.4,0,2.5,1.1,2.5,2.5v3
			c0,1.1,0.9,2,2,2c1.1,0,2-0.9,2-2v-7"/>
		<path class="st2" d="M6,2c0,1.5-1.5,1.5-1.5,1.5v-3C4.5,0.5,6,0.5,6,2z"/>
		<path class="st2" d="M9,2c0-1.5,1.5-1.5,1.5-1.5v3C10.5,3.5,9,3.5,9,2z"/>
	</g>
</g>
</svg>
