<?xml version="1.0" encoding="utf-8"?>
<!-- Generator: Adobe Illustrator 19.2.0, SVG Export Plug-In . SVG Version: 6.00 Build 0)  -->
<svg version="1.1" id="Outline_Icons" xmlns="http://www.w3.org/2000/svg" xmlns:xlink="http://www.w3.org/1999/xlink" x="0px"
	 y="0px" viewBox="0 0 24 24" style="enable-background:new 0 0 24 24;" xml:space="preserve">
<style type="text/css">
	.st0{fill:none;stroke:#000000;stroke-linecap:round;stroke-linejoin:round;stroke-miterlimit:10;}
</style>
<g>
	<line class="st0" x1="2.5" y1="13" x2="2.5" y2="10.3"/>
	<polyline class="st0" points="21.5,20.5 21.5,22.5 2.5,22.5 2.5,20.5 	"/>
	<line class="st0" x1="21.5" y1="10.3" x2="21.5" y2="13"/>
	<polygon class="st0" points="21.5,2.5 2.5,2.5 0.5,6.5 23.5,6.5 	"/>
	<path class="st0" d="M23.5,7.5c0,1.7-1.3,3-3,3c-0.8,0-1.5-0.5-2-1c-0.7,1.1-2.1,2-3.5,2c-1.2,0-2.3-0.5-3-1.4
		c-0.7,0.8-1.8,1.4-3,1.4c-1.4,0-2.8-0.9-3.5-2c-0.5,0.5-1.2,1-2,1c-1.7,0-3-1.3-3-3v-1h23V7.5z"/>
	<polyline class="st0" points="5.5,9.5 5.5,6.5 6.5,2.5 	"/>
	<polyline class="st0" points="12,10.1 12,6.5 12,2.5 	"/>
	<polyline class="st0" points="18.5,9.5 18.5,6.5 17.5,2.5 	"/>
	<g>
		<polyline class="st0" points="21,18.5 19.5,18.5 19.5,14.5 21,14.5 		"/>
		<line class="st0" x1="19.5" y1="16.3" x2="20.5" y2="16.3"/>
	</g>
	<path class="st0" d="M5.5,15.4c-0.1-0.6-0.4-0.9-1-0.9c-0.9,0-1.1,0.9-1.1,2s0.2,2,1.1,2c0.6,0,0.9-0.4,1-0.9"/>
	<polyline class="st0" points="9,18.5 7.5,18.5 7.5,14.5 	"/>
	<path class="st0" d="M13.5,16.5c0,1.1-0.6,2-1.5,2s-1.5-0.9-1.5-2s0.6-2,1.5-2S13.5,15.4,13.5,16.5z"/>
	<path class="st0" d="M15.5,17.6c0,0.5,0.4,0.9,0.9,0.9s0.9-0.4,0.9-1c0-0.8-0.8-1-0.9-1c-0.2,0-0.9-0.2-0.9-1c0-0.6,0.4-1,0.9-1
		s0.9,0.4,0.9,0.9"/>
</g>
</svg>
