<?xml version="1.0" encoding="utf-8"?>
<!-- Generator: Adobe Illustrator 19.2.0, SVG Export Plug-In . SVG Version: 6.00 Build 0)  -->
<svg version="1.1" id="Outline_Icons" xmlns="http://www.w3.org/2000/svg" xmlns:xlink="http://www.w3.org/1999/xlink" x="0px"
	 y="0px" viewBox="0 0 24 24" style="enable-background:new 0 0 24 24;" xml:space="preserve">
<style type="text/css">
	.st0{fill:none;stroke:#000000;stroke-linecap:round;stroke-linejoin:round;stroke-miterlimit:10;}
</style>
<g>
	<polyline class="st0" points="21.5,10.3 21.5,22.5 2.5,22.5 2.5,10.3 	"/>
	<polygon class="st0" points="21.5,2.5 2.5,2.5 0.5,6.5 23.5,6.5 	"/>
	<path class="st0" d="M23.5,7.5c0,1.7-1.3,3-3,3c-0.8,0-1.5-0.5-2-1c-0.7,1.1-2.1,2-3.5,2c-1.2,0-2.3-0.5-3-1.4
		c-0.7,0.8-1.8,1.4-3,1.4c-1.4,0-2.8-0.9-3.5-2c-0.5,0.5-1.2,1-2,1c-1.7,0-3-1.3-3-3v-1h23V7.5z"/>
	<polyline class="st0" points="5.5,9.5 5.5,6.5 6.5,2.5 	"/>
	<polyline class="st0" points="12,10.1 12,6.5 12,2.5 	"/>
	<polyline class="st0" points="18.5,9.5 18.5,6.5 17.5,2.5 	"/>
	<g>
		<polyline class="st0" points="14.5,18.5 12.5,18.5 12.5,14.5 14.5,14.5 		"/>
		<line class="st0" x1="13.1" y1="16.5" x2="14.3" y2="16.5"/>
	</g>
	<polyline class="st0" points="16.6,18.5 16.6,14.5 18.5,18.5 18.5,14.5 	"/>
	<path class="st0" d="M6.5,16.5c0,1.1-0.1,2-1,2s-1-0.9-1-2s0.1-2,1-2S6.5,15.4,6.5,16.5z"/>
	<path class="st0" d="M8.5,18.5v-4h1.1c0.8,0,0.9,0.5,0.9,1s0,1-0.9,1H8.5"/>
</g>
</svg>
