<?xml version="1.0" encoding="utf-8"?>
<!-- Generator: Adobe Illustrator 19.2.0, SVG Export Plug-In . SVG Version: 6.00 Build 0)  -->
<svg version="1.1" id="Layer_1" xmlns="http://www.w3.org/2000/svg" xmlns:xlink="http://www.w3.org/1999/xlink" x="0px" y="0px"
	 viewBox="0 0 24 24" style="enable-background:new 0 0 24 24;" xml:space="preserve">
<style type="text/css">
	.st0{display:none;}
	.st1{display:inline;}
	.st2{fill:none;stroke:#000000;stroke-linejoin:round;stroke-miterlimit:10;}
	.st3{fill:none;stroke:#000000;stroke-linecap:round;stroke-linejoin:round;stroke-miterlimit:10;}
</style>
<g id="Filled_Icons" class="st0">
	<g class="st1">
		<g>
			<path d="M13,6c2.8,0,5-2.2,5-5c0-0.3-0.2-0.5-0.5-0.5c-2.8,0-5,2.2-5,5C12.5,5.8,12.7,6,13,6z"/>
		</g>
		<g>
			<path d="M11,6c0.3,0,0.5-0.2,0.5-0.5c0-2.8-2.2-5-5-5C6.2,0.5,6,0.7,6,1C6,3.8,8.2,6,11,6z"/>
		</g>
		<path d="M16,7L7.9,7c-3.1,0.3-4.8,2.4-4.6,5.7C3.6,17.4,8,24,12,24s8.4-6.6,8.7-11.4C20.9,9.4,19.2,7.4,16,7z M8.4,12.4
			c-0.1,0.1-0.2,0.1-0.4,0.1c-0.1,0-0.3,0-0.4-0.1l-1-1c-0.2-0.2-0.2-0.5,0-0.7s0.5-0.2,0.7,0l1,1C8.5,11.8,8.5,12.2,8.4,12.4z
			 M10.6,16.4c-0.1,0.1-0.2,0.1-0.4,0.1s-0.3,0-0.4-0.1l-1-1c-0.2-0.2-0.2-0.5,0-0.7s0.5-0.2,0.7,0l1,1
			C10.8,15.8,10.8,16.2,10.6,16.4z M12.9,19.9C12.8,20,12.6,20,12.5,20c-0.1,0-0.3,0-0.4-0.1l-1-1c-0.2-0.2-0.2-0.5,0-0.7
			c0.2-0.2,0.5-0.2,0.7,0l1,1C13,19.3,13,19.7,12.9,19.9z M12.9,12.4c-0.1,0.1-0.2,0.1-0.4,0.1c-0.1,0-0.3,0-0.4-0.1l-1-1
			c-0.2-0.2-0.2-0.5,0-0.7s0.5-0.2,0.7,0l1,1C13,11.8,13,12.2,12.9,12.4z M15.1,16.4c-0.1,0.1-0.2,0.1-0.4,0.1c-0.1,0-0.3,0-0.4-0.1
			l-1-1c-0.2-0.2-0.2-0.5,0-0.7c0.2-0.2,0.5-0.2,0.7,0l1,1C15.3,15.8,15.3,16.2,15.1,16.4z M17.4,12.4c-0.1,0.1-0.2,0.1-0.4,0.1
			c-0.1,0-0.3,0-0.4-0.1l-1-1c-0.2-0.2-0.2-0.5,0-0.7c0.2-0.2,0.5-0.2,0.7,0l1,1C17.5,11.8,17.5,12.2,17.4,12.4z"/>
	</g>
</g>
<g id="Outline_Icons">
	<g>
		<path class="st2" d="M12,23.5c5.6,0,13-15,4-16H8C-1,8.5,6.4,23.5,12,23.5z"/>
		<path class="st2" d="M12.8,5.9c2.5,0,4.5-2,4.5-4.5C14.8,1.4,12.8,3.4,12.8,5.9z"/>
		<path class="st2" d="M11.2,5.9c-2.5,0-4.5-2-4.5-4.5C9.2,1.4,11.2,3.4,11.2,5.9z"/>
		<g>
			<line class="st3" x1="9.2" y1="15" x2="10.2" y2="16"/>
			<line class="st3" x1="13.8" y1="15" x2="14.8" y2="16"/>
		</g>
		<g>
			<line class="st3" x1="7" y1="11" x2="8" y2="12"/>
			<line class="st3" x1="11.5" y1="11" x2="12.5" y2="12"/>
			<line class="st3" x1="16" y1="11" x2="17" y2="12"/>
		</g>
		<line class="st3" x1="11.5" y1="18.5" x2="12.5" y2="19.5"/>
	</g>
</g>
</svg>
