<?xml version="1.0" encoding="utf-8"?>
<!-- Generator: Adobe Illustrator 19.2.0, SVG Export Plug-In . SVG Version: 6.00 Build 0)  -->
<svg version="1.1" id="Layer_1" xmlns="http://www.w3.org/2000/svg" xmlns:xlink="http://www.w3.org/1999/xlink" x="0px" y="0px"
	 viewBox="0 0 24 24" style="enable-background:new 0 0 24 24;" xml:space="preserve">
<style type="text/css">
	.st0{display:none;}
	.st1{display:inline;}
	.st2{fill:none;stroke:#000000;stroke-linecap:round;stroke-linejoin:round;stroke-miterlimit:10;}
</style>
<g id="Filled_Icon" class="st0">
	<path class="st1" d="M23,12h-9.6c-0.8-0.6-1.7-1.1-2.5-1.6C8.3,8.8,6,7.4,6,5c0-2.7,2.8-3,4-3c3.5,0,4,1.3,4,2.5v1c0,0.6,0.4,1,1,1
		s1-0.4,1-1v-1C16,2.4,15,0,10,0C6.4,0,4,2,4,5c0,3.5,2.9,5.3,5.7,7H1c-0.6,0-1,0.4-1,1s0.4,1,1,1h11.7c1.3,1.1,2.3,2.3,2.3,4
		c0,2.9-2.6,4-5,4c-3.3,0-5-1.2-5-3.5v-1c0-0.6-0.4-1-1-1s-1,0.4-1,1v1C3,22,5.6,24,10,24c4.2,0,7-2.4,7-6c0-1.6-0.6-2.9-1.5-4H23
		c0.6,0,1-0.4,1-1S23.6,12,23,12z"/>
</g>
<g id="Outline_Icons">
	<g>
		<path class="st2" d="M15,6V5c0-2.8-2.2-3.5-5-3.5s-5,1.2-5,4c0,6,11,6.5,11,13c0,3.3-2.7,5-6,5S4,22.3,4,19v-1"/>
		<line class="st2" x1="0.5" y1="13.5" x2="23.5" y2="13.5"/>
	</g>
</g>
</svg>
