<?xml version="1.0" encoding="utf-8"?>
<!-- Generator: Adobe Illustrator 19.2.0, SVG Export Plug-In . SVG Version: 6.00 Build 0)  -->
<svg version="1.1" id="Layer_1" xmlns="http://www.w3.org/2000/svg" xmlns:xlink="http://www.w3.org/1999/xlink" x="0px" y="0px"
	 viewBox="0 0 24 24" style="enable-background:new 0 0 24 24;" xml:space="preserve">
<style type="text/css">
	.st0{display:none;}
	.st1{display:inline;}
	.st2{fill:none;stroke:#000000;stroke-linecap:round;stroke-linejoin:round;stroke-miterlimit:10;}
</style>
<g id="Filled_Icon" class="st0">
	<g class="st1">
		<g>
			<path d="M2.5,5c0.6,0,1-0.4,1-1V2h7v8.5h2V2h7v2c0,0.6,0.4,1,1,1s1-0.4,1-1V1c0-0.6-0.4-1-1-1h-18c-0.6,0-1,0.4-1,1v3
				C1.5,4.6,1.9,5,2.5,5z"/>
			<path d="M15,22h-2.5v-7.5h-2V22H8c-0.6,0-1,0.4-1,1s0.4,1,1,1h7c0.6,0,1-0.4,1-1S15.6,22,15,22z"/>
		</g>
		<g>
			<path d="M20.5,13.5h-18c-0.6,0-1-0.4-1-1s0.4-1,1-1h18c0.6,0,1,0.4,1,1S21.1,13.5,20.5,13.5z"/>
		</g>
	</g>
</g>
<g id="Outline_Icons">
	<g>
		<polyline class="st2" points="2.5,3.5 2.5,0.5 20.5,0.5 20.5,3.5 		"/>
		<line class="st2" x1="11.5" y1="14.5" x2="11.5" y2="23.5"/>
		<line class="st2" x1="11.5" y1="0.5" x2="11.5" y2="10.5"/>
		<line class="st2" x1="8" y1="23.5" x2="15" y2="23.5"/>
		<line class="st2" x1="2.5" y1="12.5" x2="20.5" y2="12.5"/>
	</g>
</g>
</svg>
