<?xml version="1.0" encoding="utf-8"?>
<!-- Generator: Adobe Illustrator 19.2.0, SVG Export Plug-In . SVG Version: 6.00 Build 0)  -->
<svg version="1.1" id="Layer_1" xmlns="http://www.w3.org/2000/svg" xmlns:xlink="http://www.w3.org/1999/xlink" x="0px" y="0px"
	 viewBox="0 0 24 24" style="enable-background:new 0 0 24 24;" xml:space="preserve">
<style type="text/css">
	.st0{display:none;}
	.st1{display:inline;}
	.st2{fill:none;stroke:#000000;stroke-linejoin:round;stroke-miterlimit:10;}
	.st3{fill:none;stroke:#000000;stroke-linecap:round;stroke-linejoin:round;stroke-miterlimit:10;}
</style>
<g id="Filled_Icons" class="st0">
	<g class="st1">
		<g>
			<path d="M21,16c0-0.2,0-0.3,0-0.5c0-3.6-2.9-6.5-6.5-6.5H13V7.5C13,7.2,12.8,7,12.5,7H10V5.5C10,4.1,8.9,3,7.5,3H6
				C5.7,3,5.5,3.2,5.5,3.5S5.7,4,6,4h1.5C8.3,4,9,4.7,9,5.5V7H7.5C7.2,7,7,7.2,7,7.5V9H6.5C2.9,9,0,11.9,0,15.5c0,0.2,0,0.3,0,0.5
				L21,16z M15,11c1.1,0,2,0.9,2,2c0,1.1-0.9,2-2,2c-1.1,0-2-0.9-2-2C13,11.9,13.9,11,15,11z M10,11c1.1,0,2,0.9,2,2
				c0,1.1-0.9,2-2,2s-2-0.9-2-2C8,11.9,8.9,11,10,11z M5,11c1.1,0,2,0.9,2,2c0,1.1-0.9,2-2,2s-2-0.9-2-2C3,11.9,3.9,11,5,11z"/>
			<path d="M1,19c1.2,1.8,3.2,3,5.5,3h8c2.3,0,4.3-1.2,5.5-3L1,19z"/>
		</g>
		<path d="M23.5,17H23v-2.5c0-0.3-0.2-0.5-0.5-0.5S22,14.2,22,14.5V17H0.8c-0.3,0-0.5,0.2-0.5,0.5S0.6,18,0.8,18H22v2.5
			c0,0.3,0.2,0.5,0.5,0.5s0.5-0.2,0.5-0.5V18h0.5c0.3,0,0.5-0.2,0.5-0.5S23.8,17,23.5,17z"/>
	</g>
</g>
<g id="Outline_Icons">
	<g>
		<path class="st2" d="M20.5,15.5c0,3.3-2.7,6-6,6h-8c-3.3,0-6-2.7-6-6s2.7-6,6-6h8C17.8,9.5,20.5,12.2,20.5,15.5z"/>
		<line class="st3" x1="22.5" y1="20.5" x2="22.5" y2="14.5"/>
		<line class="st3" x1="0.8" y1="17.5" x2="23.5" y2="17.5"/>
		<path class="st3" d="M9.5,7.5v-2c0-1.1-0.9-2-2-2H6"/>
		<circle class="st3" cx="5" cy="14" r="1.5"/>
		<circle class="st3" cx="10" cy="14" r="1.5"/>
		<circle class="st3" cx="15" cy="14" r="1.5"/>
		<rect x="7.5" y="7.5" class="st3" width="5" height="2"/>
	</g>
</g>
</svg>
