<?xml version="1.0" encoding="utf-8"?>
<!-- Generator: Adobe Illustrator 19.2.0, SVG Export Plug-In . SVG Version: 6.00 Build 0)  -->
<svg version="1.1" id="Layer_1" xmlns="http://www.w3.org/2000/svg" xmlns:xlink="http://www.w3.org/1999/xlink" x="0px" y="0px"
	 viewBox="0 0 24 24" style="enable-background:new 0 0 24 24;" xml:space="preserve">
<style type="text/css">
	.st0{display:none;}
	.st1{display:inline;}
	.st2{fill:none;stroke:#000000;stroke-linecap:round;stroke-linejoin:round;stroke-miterlimit:10;}
</style>
<g id="Filled_Icon" class="st0">
	<path class="st1" d="M10.4,9l7.3-7.3c0.4-0.4,0.4-1,0-1.4s-1-0.4-1.4,0L9,7.6L1.7,0.3c-0.4-0.4-1-0.4-1.4,0s-0.4,1,0,1.4L7.6,9
		l-7.3,7.3c-0.4,0.4-0.4,1,0,1.4C0.5,17.9,0.7,18,1,18s0.5-0.1,0.7-0.3L9,10.4l7.3,7.3c0.2,0.2,0.5,0.3,0.7,0.3
		c0.3,0,0.5-0.1,0.7-0.3c0.4-0.4,0.4-1,0-1.4L10.4,9z"/>
	<path class="st1" d="M22.5,23H21l1.7-2.4c0.1-0.1,0.3-0.5,0.3-1c0-1-0.8-1.7-1.7-1.7c-0.9,0-1.7,0.7-1.7,1.7c0,0.3,0.2,0.5,0.5,0.5
		s0.5-0.2,0.5-0.5c0-0.4,0.3-0.7,0.7-0.7c0.4,0,0.7,0.3,0.7,0.7c0,0.2-0.1,0.3-0.1,0.4l-2.3,3.2c-0.1,0.2-0.1,0.4,0,0.5
		c0.1,0.2,0.3,0.3,0.4,0.3h2.5c0.3,0,0.5-0.2,0.5-0.5S22.8,23,22.5,23z"/>
</g>
<g id="Outline_Icons">
	<g>
		<g>
			<line class="st2" x1="1.5" y1="0.5" x2="17.5" y2="16.5"/>
			<line class="st2" x1="17.5" y1="0.5" x2="1.5" y2="16.5"/>
		</g>
		<path class="st2" d="M20,19.5c0-0.7,0.6-1.2,1.2-1.2c0.7,0,1.2,0.6,1.2,1.2c0,0.4-0.1,0.6-0.2,0.7L20,23.5h2.5"/>
	</g>
</g>
</svg>
