<?xml version="1.0" encoding="utf-8"?>
<!-- Generator: Adobe Illustrator 19.2.0, SVG Export Plug-In . SVG Version: 6.00 Build 0)  -->
<svg version="1.1" id="Layer_1" xmlns="http://www.w3.org/2000/svg" xmlns:xlink="http://www.w3.org/1999/xlink" x="0px" y="0px"
	 viewBox="0 0 24 24" style="enable-background:new 0 0 24 24;" xml:space="preserve">
<style type="text/css">
	.st0{display:none;}
	.st1{display:inline;}
	.st2{fill:none;stroke:#000000;stroke-linecap:round;stroke-linejoin:round;stroke-miterlimit:10;}
</style>
<g id="Filled_Icons" class="st0">
	<path class="st1" d="M11.5,0C5.2,0,0,5.1,0,11.5c0,3.1,1.2,6,3.4,8.1c2.2,2.2,5.1,3.4,8.1,3.4h0C17.8,23,23,17.9,23,11.5
		C23,5.2,17.9,0,11.5,0z M11.5,22.5L11.5,22.5L11.5,22.5L11.5,22.5z M17.5,12L17.5,12l-12,0C5.2,12,5,11.8,5,11.5
		C5,11.2,5.2,11,5.5,11l0,0l12,0c0.3,0,0.5,0.2,0.5,0.5C18,11.8,17.8,12,17.5,12z"/>
</g>
<g id="Outline_Icons">
	<g>
		<circle class="st2" cx="11.5" cy="11.5" r="11"/>
		<line class="st2" x1="17.5" y1="11.5" x2="5.5" y2="11.5"/>
	</g>
</g>
</svg>
