<?xml version="1.0" encoding="utf-8"?>
<!-- Generator: Adobe Illustrator 19.2.0, SVG Export Plug-In . SVG Version: 6.00 Build 0)  -->
<svg version="1.1" id="Layer_1" xmlns="http://www.w3.org/2000/svg" xmlns:xlink="http://www.w3.org/1999/xlink" x="0px" y="0px"
	 viewBox="0 0 24 24" style="enable-background:new 0 0 24 24;" xml:space="preserve">
<style type="text/css">
	.st0{display:none;}
	.st1{display:inline;}
	.st2{fill:none;stroke:#000000;stroke-linecap:round;stroke-linejoin:round;stroke-miterlimit:10;}
</style>
<g id="Filled_Icons" class="st0">
	<path class="st1" d="M22.5,11.3l-6.2-6.2C16.2,5.1,16.1,5,15.9,5H0.4C0.2,5,0,5.2,0,5.5v12C0,17.8,0.2,18,0.5,18H16
		c0.1,0,0.2,0,0.3-0.1l6.2-5.8c0.1-0.1,0.2-0.2,0.2-0.4C22.7,11.6,22.6,11.4,22.5,11.3z M11.4,12h-8c-0.3,0-0.5-0.2-0.5-0.5
		c0-0.3,0.2-0.5,0.5-0.5h8c0.3,0,0.5,0.2,0.5,0.5C11.9,11.8,11.7,12,11.4,12z"/>
</g>
<g id="Outline_Icons">
	<g>
		<polygon class="st2" points="16.3,17.5 0.5,17.5 0.5,5.6 16.3,5.6 22.5,11.5 		"/>
		<line class="st2" x1="4" y1="11.5" x2="11" y2="11.5"/>
	</g>
</g>
</svg>
