<?xml version="1.0" encoding="utf-8"?>
<!-- Generator: Adobe Illustrator 19.2.0, SVG Export Plug-In . SVG Version: 6.00 Build 0)  -->
<svg version="1.1" id="Layer_1" xmlns="http://www.w3.org/2000/svg" xmlns:xlink="http://www.w3.org/1999/xlink" x="0px" y="0px"
	 viewBox="0 0 24 24" style="enable-background:new 0 0 24 24;" xml:space="preserve">
<style type="text/css">
	.st0{display:none;}
	.st1{display:inline;}
	.st2{fill:none;stroke:#000000;stroke-linecap:round;stroke-linejoin:round;stroke-miterlimit:10;}
</style>
<g id="Filled_Icons" class="st0">
	<g class="st1">
		<path d="M20.5,5.9c0-0.2-0.1-0.3-0.3-0.4C19.9,5.4,17,4.2,15.7,4l-1-0.9C14.6,3.1,14.5,3,14.4,3H8.6c-0.1,0-0.2,0-0.3,0.1L7.3,4
			C5.9,4.2,3.1,5.4,2.8,5.6C2.6,5.6,2.5,5.7,2.5,5.9L0,17.4c0,0.1,0,0.3,0.1,0.4C0.2,17.9,0.3,18,0.5,18h3c0.2,0,0.4-0.1,0.5-0.4
			C4,17.6,6.3,10,6.4,10C6.6,10,5,21.3,5,21.4c0,0.1,0,0.3,0.1,0.4S5.4,22,5.5,22h4.6c0.2,0,0.4-0.1,0.5-0.3c0,0,0.2-0.5,0.5-1.2V9
			C9.7,7.1,8.6,5.4,8.1,4.6L8.8,4h5.4l0.6,0.6C14.4,5.3,13.2,7,12,9v11.5l0.6,1.2c0.1,0.2,0.3,0.3,0.5,0.3h4.5
			c0.1,0,0.3-0.1,0.4-0.2c0.1-0.1,0.1-0.3,0.1-0.4c0-0.3-1.4-11.2-1.4-11.5c0.1,0.3,2.3,7.4,2.4,7.7c0.1,0.2,0.3,0.3,0.5,0.3h3
			c0.1,0,0.3-0.1,0.4-0.2c0.1-0.1,0.1-0.3,0.1-0.4L20.5,5.9z M9.5,15c0.3,0,0.5,0.2,0.5,0.5S9.8,16,9.5,16C9.2,16,9,15.8,9,15.5
			C9,15.2,9.2,15,9.5,15z M9.5,17c0.3,0,0.5,0.2,0.5,0.5S9.8,18,9.5,18C9.2,18,9,17.8,9,17.5S9.2,17,9.5,17z M13.5,18
			c-0.3,0-0.5-0.2-0.5-0.5s0.2-0.5,0.5-0.5s0.5,0.2,0.5,0.5S13.8,18,13.5,18z M13.5,16c-0.3,0-0.5-0.2-0.5-0.5s0.2-0.5,0.5-0.5
			s0.5,0.2,0.5,0.5S13.8,16,13.5,16z"/>
	</g>
</g>
<g id="Outline_Icons">
	<g>
		<path class="st2" d="M11.5,11c-1.9-2.8-4-6.5-4-6.5l1.1-1h5.8l1.1,1C15.5,4.5,13.3,7.8,11.5,11z"/>
		<g>
			<path d="M13.5,15c-0.3,0-0.5,0.2-0.5,0.5s0.2,0.5,0.5,0.5s0.5-0.2,0.5-0.5S13.8,15,13.5,15L13.5,15z"/>
		</g>
		<g>
			<path d="M13.5,17c-0.3,0-0.5,0.2-0.5,0.5s0.2,0.5,0.5,0.5s0.5-0.2,0.5-0.5S13.8,17,13.5,17L13.5,17z"/>
		</g>
		<g>
			<path d="M9.5,15C9.2,15,9,15.2,9,15.5S9.2,16,9.5,16c0.3,0,0.5-0.2,0.5-0.5S9.8,15,9.5,15L9.5,15z"/>
		</g>
		<g>
			<path d="M9.5,17C9.2,17,9,17.2,9,17.5S9.2,18,9.5,18c0.3,0,0.5-0.2,0.5-0.5S9.8,17,9.5,17L9.5,17z"/>
		</g>
		<line class="st2" x1="11.5" y1="17.5" x2="11.5" y2="11"/>
		<path class="st2" d="M7.5,4.5C6.3,4.5,3,6,3,6L0.5,17.5h3L5.8,10c0-0.3,0.3-0.5,0.6-0.5C6.7,9.5,7,9.8,7,10.1L5.5,21.5h4.6
			c0,0,1.4-4,1.4-4l1.5,4h4.5l-1.4-11.4c0-0.3,0.2-0.5,0.5-0.5c0.3,0,0.5,0.2,0.5,0.5l2.4,7.5h3L20,6c0,0-3.5-1.5-4.6-1.5"/>
	</g>
</g>
</svg>
