<?xml version="1.0" encoding="utf-8"?>
<!-- Generator: Adobe Illustrator 19.2.0, SVG Export Plug-In . SVG Version: 6.00 Build 0)  -->
<svg version="1.1" id="Layer_1" xmlns="http://www.w3.org/2000/svg" xmlns:xlink="http://www.w3.org/1999/xlink" x="0px" y="0px"
	 viewBox="0 0 24 24" style="enable-background:new 0 0 24 24;" xml:space="preserve">
<style type="text/css">
	.st0{display:none;}
	.st1{display:inline;}
	.st2{fill:none;stroke:#000000;stroke-linejoin:round;stroke-miterlimit:10;}
	.st3{fill:none;stroke:#000000;stroke-linecap:round;stroke-linejoin:round;stroke-miterlimit:10;}
</style>
<g id="Filled_Icons" class="st0">
	<g class="st1">
		<path d="M16.5,19.6l6.8-6.1c0.9-1,0.9-2.5,0-3.5c-0.5-0.5-1.1-0.8-1.8-0.8c-0.7,0-1.4,0.3-1.8,0.8l-5.6,4.9
			c-0.1,0-0.2,0.1-0.4,0.1H2.5C1.1,15,0,16.1,0,17.5S1.1,20,2.5,20h4l-2.4,3.2C4,23.4,4,23.7,4.2,23.9C4.3,24,4.4,24,4.5,24
			c0.2,0,0.3-0.1,0.4-0.2L7.8,20h5.5l2.9,3.8c0.1,0.1,0.2,0.2,0.4,0.2c0.1,0,0.2,0,0.3-0.1c0.2-0.2,0.3-0.5,0.1-0.7L14.5,20h1
			C15.8,20,16.2,19.8,16.5,19.6z"/>
		<g>
			<path d="M6.5,2.5C6.8,2.5,7,2.3,7,2V1c0-0.3-0.2-0.5-0.5-0.5S6,0.7,6,1v1C6,2.3,6.2,2.5,6.5,2.5z"/>
			<path d="M9.7,3.8c0.1,0,0.3,0,0.4-0.1L10.7,3c0.2-0.2,0.2-0.5,0-0.7s-0.5-0.2-0.7,0L9.3,3c-0.2,0.2-0.2,0.5,0,0.7
				C9.4,3.8,9.5,3.8,9.7,3.8z"/>
			<path d="M12,6h-1c-0.3,0-0.5,0.2-0.5,0.5S10.7,7,11,7h1c0.3,0,0.5-0.2,0.5-0.5S12.3,6,12,6z"/>
			<path d="M10,9.3c-0.2-0.2-0.5-0.2-0.7,0s-0.2,0.5,0,0.7l0.7,0.7c0.1,0.1,0.2,0.1,0.4,0.1c0.1,0,0.3,0,0.4-0.1
				c0.2-0.2,0.2-0.5,0-0.7L10,9.3z"/>
			<path d="M6.5,10.5C6.2,10.5,6,10.7,6,11v1c0,0.3,0.2,0.5,0.5,0.5S7,12.3,7,12v-1C7,10.7,6.8,10.5,6.5,10.5z"/>
			<path d="M3,9.3L2.2,10c-0.2,0.2-0.2,0.5,0,0.7c0.1,0.1,0.2,0.1,0.4,0.1c0.1,0,0.3,0,0.4-0.1L3.7,10c0.2-0.2,0.2-0.5,0-0.7
				S3.1,9.1,3,9.3z"/>
			<path d="M2.5,6.5C2.5,6.2,2.3,6,2,6H1C0.7,6,0.5,6.2,0.5,6.5S0.7,7,1,7h1C2.3,7,2.5,6.8,2.5,6.5z"/>
			<path d="M3,3.7c0.1,0.1,0.2,0.1,0.4,0.1c0.1,0,0.3,0,0.4-0.1C4,3.5,4,3.2,3.8,3L3,2.3c-0.2-0.2-0.5-0.2-0.7,0S2.1,2.8,2.2,3
				L3,3.7z"/>
			<path d="M6.5,3.5c-1.7,0-3,1.3-3,3s1.3,3,3,3s3-1.3,3-3C9.5,4.9,8.2,3.5,6.5,3.5z"/>
		</g>
	</g>
</g>
<g id="Outline_Icons">
	<g>
		<g>
			<path class="st2" d="M16.2,19.2c-0.2,0.2-0.5,0.3-0.7,0.3h-13c-1.1,0-2-0.9-2-2s0.9-2,2-2h11.2c0.3,0,0.5-0.1,0.7-0.3l5.5-4.8
				c0.8-0.8,2.1-0.9,2.9,0c0.8,0.8,0.8,2,0,2.8L16.2,19.2z"/>
		</g>
		<line class="st3" x1="4.5" y1="23.5" x2="7.5" y2="19.5"/>
		<line class="st3" x1="16.5" y1="23.5" x2="13.5" y2="19.5"/>
		<line class="st3" x1="6.5" y1="2" x2="6.5" y2="1"/>
		<line class="st3" x1="9.7" y1="3.3" x2="10.4" y2="2.6"/>
		<line class="st3" x1="11" y1="6.5" x2="12" y2="6.5"/>
		<line class="st3" x1="9.7" y1="9.7" x2="10.4" y2="10.4"/>
		<line class="st3" x1="6.5" y1="11" x2="6.5" y2="12"/>
		<line class="st3" x1="3.3" y1="9.7" x2="2.6" y2="10.4"/>
		<line class="st3" x1="2" y1="6.5" x2="1" y2="6.5"/>
		<line class="st3" x1="3.3" y1="3.3" x2="2.6" y2="2.6"/>
		<circle class="st3" cx="6.5" cy="6.5" r="2.5"/>
	</g>
</g>
</svg>
