<?xml version="1.0" encoding="utf-8"?>
<!-- Generator: Adobe Illustrator 19.2.0, SVG Export Plug-In . SVG Version: 6.00 Build 0)  -->
<svg version="1.1" id="Layer_1" xmlns="http://www.w3.org/2000/svg" xmlns:xlink="http://www.w3.org/1999/xlink" x="0px" y="0px"
	 viewBox="0 0 24 24" style="enable-background:new 0 0 24 24;" xml:space="preserve">
<style type="text/css">
	.st0{display:none;}
	.st1{display:inline;}
	.st2{fill:none;stroke:#000000;stroke-linejoin:round;stroke-miterlimit:10;}
	.st3{fill:none;stroke:#000000;stroke-linecap:round;stroke-linejoin:round;stroke-miterlimit:10;}
</style>
<g id="Filled_Icons" class="st0">
	<g class="st1">
		<g>
			<path d="M8.6,11c1.5,0,2.3-1.3,2.3-1.3C11.2,9.3,11.7,9,12.2,9s1,0.3,1.3,0.7c0,0,0.9,1.4,2.3,1.4c0.9,0,1.6-0.5,2-0.9
				C17.9,9.7,18,9.1,18,8.5c0-3-2.5-5.5-5.5-5.5S7,5.5,7,8.5c0,0.8,0.2,1.6,0.5,2.3C7.8,10.9,8.2,11,8.6,11z"/>
		</g>
		<g>
			<path d="M0.8,15c1.5,0.3,3-1.5,3-1.5c0.6-0.8,1.9-0.7,2.5,0.1c0,0,0.9,1.4,2.3,1.4c1.5,0,2.3-1.3,2.3-1.3
				c0.3-0.4,0.8-0.7,1.3-0.7s1,0.3,1.3,0.7c0,0,0.9,1.3,2.3,1.3c1.5,0,2.3-1.3,2.3-1.3c0.3-0.5,0.8-0.8,1.3-0.8s1,0.3,1.3,0.7
				c0,0.1,1.1,1.6,2.5,1.3c0.3-0.1,0.5,0,0.8,0.1v-2.6c0-0.2-0.1-0.3-0.2-0.4c-0.1-0.1-0.3-0.1-0.4-0.1c-2.1,0.4-3.5-1.7-3.5-1.8
				c-0.2-0.3-0.7-0.3-0.9,0c0,0-1.1,1.8-3.2,1.8c-2,0-3.2-1.8-3.2-1.8c-0.2-0.3-0.7-0.3-0.9,0c0,0.1-1.1,1.8-3.2,1.8
				c-2,0-3.2-1.8-3.2-1.8c-0.2-0.3-0.6-0.3-0.8,0c0,0-1.8,2.3-4,1.8c-0.1,0-0.3,0-0.4,0.1c0,0.2-0.1,0.4-0.1,0.5v2.6
				C0.3,15,0.5,15,0.8,15z"/>
		</g>
		<g>
			<path d="M20.5,8h-1.4c-0.3,0-0.5-0.2-0.5-0.5S18.8,7,19.1,7h1.4C20.8,7,21,7.2,21,7.5S20.8,8,20.5,8z"/>
		</g>
		<g>
			<path d="M17.4,4.1c-0.1,0-0.3,0-0.4-0.1c-0.2-0.2-0.2-0.5,0-0.7l1-1c0.2-0.2,0.5-0.2,0.7,0s0.2,0.5,0,0.7l-1,1
				C17.6,4.1,17.5,4.1,17.4,4.1z"/>
		</g>
		<g>
			<path d="M12.5,2.4c-0.3,0-0.5-0.2-0.5-0.5V0.5C12,0.2,12.2,0,12.5,0S13,0.2,13,0.5v1.4C13,2.2,12.8,2.4,12.5,2.4z"/>
		</g>
		<g>
			<path d="M7.6,4.1c-0.1,0-0.3,0-0.4-0.1l-1-1C6,2.7,6,2.4,6.2,2.2C6.4,2,6.7,2,6.9,2.2l1,1C8.2,3.5,8.2,3.8,8,4
				C7.9,4.1,7.8,4.1,7.6,4.1z"/>
		</g>
		<g>
			<path d="M5.9,8H4.5C4.2,8,4,7.8,4,7.5S4.2,7,4.5,7h1.4c0.3,0,0.5,0.2,0.5,0.5S6.2,8,5.9,8z"/>
		</g>
		<g>
			<path d="M0.8,19c1.2,0.3,2.6-1,3-1.5c0.6-0.8,1.9-0.7,2.5,0.1c0,0,0.9,1.4,2.3,1.4c1.5,0,2.3-1.3,2.3-1.3
				c0.3-0.5,0.8-0.8,1.3-0.8s1,0.3,1.3,0.7c0,0,0.9,1.4,2.3,1.4c1.5,0,2.3-1.3,2.3-1.3c0.3-0.5,0.8-0.8,1.3-0.8s1,0.3,1.3,0.7
				c0,0,1.1,1.6,2.5,1.3c0.3-0.1,0.5,0,0.8,0.1v-2.6c0-0.1-0.1-0.3-0.2-0.4s-0.3-0.1-0.4-0.1c-2.1,0.4-3.5-1.7-3.5-1.8
				c-0.2-0.3-0.7-0.3-0.9,0c0,0-1.1,1.8-3.2,1.8c-2,0-3.2-1.8-3.2-1.8c-0.2-0.3-0.7-0.3-0.9,0c0,0.1-1.1,1.8-3.2,1.8
				c-2,0-3.2-1.8-3.2-1.8c-0.2-0.3-0.6-0.3-0.8,0c0,0-1.8,2.3-4,1.8c-0.1,0-0.3,0-0.4,0.1c0,0.2-0.1,0.4-0.1,0.5v2.6
				C0.3,19,0.5,19,0.8,19z"/>
		</g>
		<g>
			<path d="M23.8,20.1C23.7,20,23.5,20,23.4,20c-0.2,0-0.4,0-0.6,0c-1.8,0-2.9-1.8-3-1.8c-0.2-0.3-0.7-0.3-0.9,0
				c0,0-1.1,1.8-3.2,1.8c-2,0-3.2-1.8-3.2-1.8c-0.2-0.3-0.7-0.3-0.9,0c0,0-1.1,1.8-3.2,1.8c-2,0-3.2-1.8-3.2-1.8
				c-0.2-0.3-0.6-0.3-0.8,0c0,0-1.5,1.9-3.4,1.9c-0.2,0-0.4,0-0.6-0.1c-0.1,0-0.3,0-0.4,0.1c0.1,0.1,0,0.3,0,0.4v3
				c0,0.1,0.1,0.3,0.1,0.4c0.1,0,0.3,0.1,0.4,0.1h23c0.3,0,0.5-0.2,0.5-0.5v-3C24,20.3,23.9,20.2,23.8,20.1z"/>
		</g>
	</g>
</g>
<g id="Outline_Icons">
	<g>
		<path class="st2" d="M23.5,23.5v-3c-2.5,0.5-4.1-2-4.1-2l0,0c0,0-1.2,2.1-3.6,2.1c-2.3,0-3.6-2.1-3.6-2.1l0,0c0,0-1.2,2.1-3.6,2.1
			c-2.3,0-3.6-2.1-3.6-2.1l0,0c0,0-2,2.5-4.5,2v3H23.5z"/>
		<path class="st2" d="M23.5,20.5v-4c-2.5,0.5-4.1-2-4.1-2l0,0c0,0-1.2,2.1-3.6,2.1c-2.3,0-3.6-2.1-3.6-2.1l0,0c0,0-1.2,2.1-3.6,2.1
			c-2.3,0-3.6-2.1-3.6-2.1l0,0c0,0-2,2.5-4.5,2v4"/>
		<path class="st2" d="M23.5,16.5v-4c-2.5,0.5-4.1-2-4.1-2l0,0c0,0-1.2,2.1-3.6,2.1c-2.3,0-3.6-2.1-3.6-2.1l0,0c0,0-1.2,2.1-3.6,2.1
			c-2.3,0-3.6-2.1-3.6-2.1l0,0c0,0-2,2.5-4.5,2v4"/>
		<line class="st3" x1="19.1" y1="7.5" x2="20.5" y2="7.5"/>
		<line class="st3" x1="17.4" y1="3.6" x2="18.4" y2="2.6"/>
		<line class="st3" x1="12.5" y1="1.9" x2="12.5" y2="0.5"/>
		<line class="st3" x1="7.6" y1="3.6" x2="6.6" y2="2.6"/>
		<line class="st3" x1="5.9" y1="7.5" x2="4.5" y2="7.5"/>
		<path class="st3" d="M9.4,12.4c-1.2-0.9-1.9-2.3-1.9-3.9c0-2.8,2.2-5,5-5s5,2.2,5,5c0,1.6-0.8,3-1.9,4"/>
	</g>
</g>
</svg>
