<?xml version="1.0" encoding="utf-8"?>
<!-- Generator: Adobe Illustrator 19.2.0, SVG Export Plug-In . SVG Version: 6.00 Build 0)  -->
<svg version="1.1" id="Outline_Icons" xmlns="http://www.w3.org/2000/svg" xmlns:xlink="http://www.w3.org/1999/xlink" x="0px"
	 y="0px" viewBox="0 0 24 24" style="enable-background:new 0 0 24 24;" xml:space="preserve">
<style type="text/css">
	.st0{fill:none;stroke:#000000;stroke-linecap:round;stroke-linejoin:round;stroke-miterlimit:10;}
</style>
<g>
	<path class="st0" d="M18.5,11.5c0-3.9-3.1-7-7-7l0,0c-3.9,0-7,3.1-7,7l0,0c0,3.9,3.1,7,7,7l0,0C15.4,18.5,18.5,15.4,18.5,11.5
		L18.5,11.5z"/>
	<line class="st0" x1="11.5" y1="20.5" x2="11.5" y2="22.5"/>
	<line class="st0" x1="18" y1="18" x2="19.5" y2="19.5"/>
	<line class="st0" x1="20.5" y1="11.5" x2="22.5" y2="11.5"/>
	<line class="st0" x1="18" y1="5" x2="19.5" y2="3.5"/>
	<line class="st0" x1="11.5" y1="2.5" x2="11.5" y2="0.5"/>
	<line class="st0" x1="5" y1="5" x2="3.5" y2="3.5"/>
	<line class="st0" x1="2.5" y1="11.5" x2="0.5" y2="11.5"/>
	<line class="st0" x1="5" y1="18" x2="3.5" y2="19.5"/>
</g>
</svg>
