<?xml version="1.0" encoding="utf-8"?>
<!-- Generator: Adobe Illustrator 19.2.0, SVG Export Plug-In . SVG Version: 6.00 Build 0)  -->
<svg version="1.1" id="Outline_Icons" xmlns="http://www.w3.org/2000/svg" xmlns:xlink="http://www.w3.org/1999/xlink" x="0px"
	 y="0px" viewBox="0 0 24 24" style="enable-background:new 0 0 24 24;" xml:space="preserve">
<style type="text/css">
	.st0{fill:none;stroke:#000000;stroke-linecap:round;stroke-linejoin:round;stroke-miterlimit:10;}
	.st1{fill:none;stroke:#000000;stroke-linejoin:round;stroke-miterlimit:10;}
</style>
<g>
	<path class="st0" d="M13.4,4.8c0.5-0.2,1-0.3,1.6-0.3c2.2,0,4,1.8,4,4s-1.8,4-4,4"/>
	<line class="st0" x1="15.5" y1="0.5" x2="15.5" y2="2"/>
	<line class="st0" x1="21" y1="3" x2="19.6" y2="4.4"/>
	<line class="st0" x1="23.5" y1="8.5" x2="21.5" y2="8.5"/>
	<line class="st0" x1="21" y1="14.5" x2="19.6" y2="13.1"/>
	<line class="st0" x1="15.5" y1="16.5" x2="15.5" y2="15"/>
	<polyline class="st1" points="8.5,7.5 7.5,5 5.5,5 4.5,7.5 	"/>
	<line class="st1" x1="6.5" y1="1.5" x2="6.5" y2="5"/>
	<polyline class="st0" points="10,1.5 3,1.5 0.9,4 	"/>
	<rect x="2.5" y="13.5" class="st0" width="8" height="5"/>
	<path class="st1" d="M12.5,21.5c0,1.1-0.9,2-2,2h-8c-1.1,0-2-0.9-2-2v-12c0-1.1,0.9-2,2-2h8c1.1,0,2,0.9,2,2V21.5z"/>
</g>
</svg>
