<?xml version="1.0" encoding="utf-8"?>
<!-- Generator: Adobe Illustrator 19.2.0, SVG Export Plug-In . SVG Version: 6.00 Build 0)  -->
<svg version="1.1" id="Outline_Icons" xmlns="http://www.w3.org/2000/svg" xmlns:xlink="http://www.w3.org/1999/xlink" x="0px"
	 y="0px" viewBox="0 0 24 24" style="enable-background:new 0 0 24 24;" xml:space="preserve">
<style type="text/css">
	.st0{fill:none;stroke:#000000;stroke-linecap:round;stroke-linejoin:round;stroke-miterlimit:10;}
</style>
<g>
	<polygon class="st0" points="7,17.5 11.5,21.5 16,17.5 13.5,17.5 13.5,12.5 9.5,12.5 9.5,17.5 	"/>
	<path class="st0" d="M5.4,15c-0.6-1-0.9-2.2-0.9-3.5c0-3.9,3.1-7,7-7s7,3.1,7,7c0,1.3-0.3,2.5-0.9,3.5"/>
	<line class="st0" x1="11.5" y1="2.5" x2="11.5" y2="0.5"/>
	<line class="st0" x1="17.9" y1="5.1" x2="19.3" y2="3.7"/>
	<line class="st0" x1="20.5" y1="11.5" x2="22.5" y2="11.5"/>
	<line class="st0" x1="17.9" y1="17.9" x2="19.3" y2="19.3"/>
	<line class="st0" x1="5.1" y1="17.9" x2="3.7" y2="19.3"/>
	<line class="st0" x1="2.5" y1="11.5" x2="0.5" y2="11.5"/>
	<line class="st0" x1="5.1" y1="5.1" x2="3.7" y2="3.7"/>
	<line class="st0" x1="0.5" y1="23.5" x2="22.5" y2="23.5"/>
</g>
</svg>
