<?xml version="1.0" encoding="utf-8"?>
<!-- Generator: Adobe Illustrator 19.2.0, SVG Export Plug-In . SVG Version: 6.00 Build 0)  -->
<svg version="1.1" id="Layer_1" xmlns="http://www.w3.org/2000/svg" xmlns:xlink="http://www.w3.org/1999/xlink" x="0px" y="0px"
	 viewBox="0 0 24 24" style="enable-background:new 0 0 24 24;" xml:space="preserve">
<style type="text/css">
	.st0{display:none;}
	.st1{display:inline;}
	.st2{fill:none;stroke:#000000;stroke-linecap:round;stroke-linejoin:round;stroke-miterlimit:10;}
</style>
<g id="Filled_Icon" class="st0">
	<path class="st1" d="M10.4,15l7.3-7.3c0.4-0.4,0.4-1,0-1.4s-1-0.4-1.4,0L9,13.6L1.7,6.3c-0.4-0.4-1-0.4-1.4,0s-0.4,1,0,1.4L7.6,15
		l-7.3,7.3c-0.4,0.4-0.4,1,0,1.4C0.5,23.9,0.7,24,1,24s0.5-0.1,0.7-0.3L9,16.4l7.3,7.3c0.2,0.2,0.5,0.3,0.7,0.3
		c0.3,0,0.5-0.1,0.7-0.3c0.4-0.4,0.4-1,0-1.4L10.4,15z"/>
	<g class="st1">
		<path d="M22.5,7.1H20c-0.2,0-0.4-0.1-0.4-0.3c-0.1-0.2-0.1-0.4,0-0.5L21.9,3c0-0.1,0.1-0.2,0.1-0.4c0-0.4-0.3-0.7-0.7-0.7
			c-0.4,0-0.7,0.3-0.7,0.7c0,0.3-0.2,0.5-0.5,0.5s-0.5-0.2-0.5-0.5c0-0.9,0.8-1.7,1.7-1.7c1,0,1.7,0.8,1.7,1.7c0,0.5-0.2,0.8-0.3,1
			L21,6.1h1.5c0.3,0,0.5,0.2,0.5,0.5C23,6.8,22.8,7.1,22.5,7.1z"/>
	</g>
</g>
<g id="Outline_Icons">
	<g>
		<g>
			<line class="st2" x1="1.5" y1="7.5" x2="17.5" y2="23.5"/>
			<line class="st2" x1="17.5" y1="7.5" x2="1.5" y2="23.5"/>
		</g>
		<path class="st2" d="M20,2.6c0-0.7,0.6-1.2,1.2-1.2c0.7,0,1.2,0.6,1.2,1.2c0,0.4-0.1,0.6-0.2,0.7L20,6.6h2.5"/>
	</g>
</g>
</svg>
