<?xml version="1.0" encoding="utf-8"?>
<!-- Generator: Adobe Illustrator 19.2.0, SVG Export Plug-In . SVG Version: 6.00 Build 0)  -->
<svg version="1.1" id="Layer_1" xmlns="http://www.w3.org/2000/svg" xmlns:xlink="http://www.w3.org/1999/xlink" x="0px" y="0px"
	 viewBox="0 0 24 24" style="enable-background:new 0 0 24 24;" xml:space="preserve">
<style type="text/css">
	.st0{display:none;}
	.st1{display:inline;}
	.st2{fill:none;stroke:#000000;stroke-linecap:round;stroke-linejoin:round;stroke-miterlimit:10;}
</style>
<g id="Filled_Icons" class="st0">
	<g class="st1">
		<path d="M7,15.4c-3.5,0.5-7,1.1-7,4.9V24h11.5l0,0l0-6.2C9.6,17.5,7.4,15.8,7,15.4z M8,20.5H7v1C7,21.8,6.8,22,6.5,22
			C6.2,22,6,21.8,6,21.5v-1H5c-0.3,0-0.5-0.2-0.5-0.5c0-0.3,0.2-0.5,0.5-0.5h1v-1C6,18.2,6.2,18,6.5,18C6.8,18,7,18.2,7,18.5v1h1
			c0.3,0,0.5,0.2,0.5,0.5C8.5,20.3,8.3,20.5,8,20.5z"/>
		<path d="M16.9,15.3c-1.8,1.8-3.3,2.4-4.4,2.5l0,6.2H24v-3.8C24,16.4,20.6,15.8,16.9,15.3z M14,22c-0.3,0-0.5-0.2-0.5-0.5
			c0-0.3,0.2-0.5,0.5-0.5c0.3,0,0.5,0.2,0.5,0.5C14.5,21.8,14.3,22,14,22z M14,20c-0.3,0-0.5-0.2-0.5-0.5c0-0.3,0.2-0.5,0.5-0.5
			c0.3,0,0.5,0.2,0.5,0.5C14.5,19.8,14.3,20,14,20z"/>
		<path d="M10.1,8.5l-0.1,0l-0.1,0c-0.4,0-0.8,0-1.1,0.3C8.6,9,8.5,9.2,8.5,9.5C8.5,9.8,8.7,10,9,10c0.3,0,0.5-0.2,0.5-0.5
			c0.1,0,0.2,0,0.4,0l0.1,0l0.1,0c0.1,0,0.3,0,0.4,0c0,0.3,0.2,0.5,0.5,0.5c0.3,0,0.5-0.2,0.5-0.5c0-0.3-0.1-0.5-0.3-0.7
			C10.9,8.5,10.5,8.5,10.1,8.5z"/>
		<path d="M14.1,8.5l-0.1,0l-0.1,0c-0.4,0-0.8,0-1.1,0.3c-0.2,0.2-0.3,0.4-0.3,0.7c0,0.3,0.2,0.5,0.5,0.5c0.3,0,0.5-0.2,0.5-0.5
			c0.1,0,0.2,0,0.4,0l0.1,0l0.1,0c0.1,0,0.3,0,0.4,0c0,0.3,0.2,0.5,0.5,0.5c0.3,0,0.5-0.2,0.5-0.5c0-0.3-0.1-0.5-0.3-0.7
			C14.9,8.5,14.5,8.5,14.1,8.5z"/>
		<path d="M16.3,14.6C16.3,14.6,16.3,14.6,16.3,14.6c0.5-0.6,0.8-1.2,1-1.9c0-0.1,0.1-0.2,0.1-0.2c0,0,0,0,0,0
			c0-0.2,0.1-0.3,0.1-0.5c0.7-0.2,1.1-1,1.1-1.9c0-0.3,0-0.5-0.1-0.8L19,5.6c0,0,0.5-3.5-4.3-4.6C14,0.4,13,0,12,0c-1,0-2,0.4-2.7,1
			C4.5,2.1,5,5.5,5,5.6l0.5,3.6C5.4,9.4,5.4,9.7,5.4,10c0,1,0.5,1.7,1.1,1.9c0.1,1.2,0.7,2.2,1.4,3c0,0,0,0,0,0c0.7,0.6,2.7,2,4,2
			C13,16.9,14.4,16.5,16.3,14.6L16.3,14.6z M12,1c1.7,0,3,1.3,3,3c0,1.7-1.3,3-3,3c-1.7,0-3-1.3-3-3C9,2.3,10.3,1,12,1z M12,11
			c-1.9,0-3.6,0.5-4.5,0.8c0-0.1,0-0.2,0-0.3C7.5,11.2,7.3,11,7,11c-0.5,0-0.6-0.7-0.6-1c0-0.3,0.1-0.6,0.2-0.8C6.7,9,6.9,9,7,9
			c0.1,0,0.2,0,0.2-0.1l2.9-1.4C10.7,7.8,11.3,8,12,8c0.7,0,1.3-0.2,1.9-0.5l2.9,1.4C16.8,9,16.9,9,17,9c0.5,0,0.6,0.7,0.6,1
			c0,0.3-0.1,1-0.6,1c-0.3,0-0.5,0.2-0.5,0.5c0,0.1,0,0.2,0,0.3C15.6,11.5,13.8,11,12,11z"/>
		<circle cx="12" cy="4" r="2"/>
	</g>
</g>
<g id="Outline_Icons">
	<g>
		<path class="st2" d="M9,9.5C9,8.9,9.4,9,10,9c0.6,0,1-0.1,1,0.5"/>
		<path class="st2" d="M13,9.5C13,8.9,13.4,9,14,9c0.6,0,1-0.1,1,0.5"/>
		<path class="st2" d="M9.4,15.5c-4.3,0.7-8.9,0.6-8.9,4.7v3.3h23v-3.3c0-4.2-4.5-4-8.9-4.7"/>
		<line class="st2" x1="11.5" y1="16.5" x2="11.5" y2="23.5"/>
		<line class="st2" x1="6.5" y1="18" x2="6.5" y2="21"/>
		<line class="st2" x1="5" y1="19.5" x2="8" y2="19.5"/>
		<g>
			<g>
				<g>
					<path d="M14.5,19c-0.3,0-0.5,0.2-0.5,0.5c0,0.3,0.2,0.5,0.5,0.5c0.3,0,0.5-0.2,0.5-0.5C15,19.2,14.8,19,14.5,19L14.5,19z"/>
				</g>
			</g>
		</g>
		<g>
			<g>
				<g>
					<path d="M14.5,21c-0.3,0-0.5,0.2-0.5,0.5c0,0.3,0.2,0.5,0.5,0.5c0.3,0,0.5-0.2,0.5-0.5C15,21.2,14.8,21,14.5,21L14.5,21z"/>
				</g>
			</g>
		</g>
		<path class="st2" d="M10.1,7L7,8.5c-1.5,0-1.5,3,0,3c0,3,3.5,5,5,5s5-2,5-5c1.5,0,1.5-3,0-3L13.9,7"/>
		<path class="st2" d="M9.5,1.5c-4.5,1-4,4-4,4L6,9.3"/>
		<path class="st2" d="M14.5,1.5c4.5,1,4,4,4,4L18,9.3"/>
		<path class="st2" d="M7.1,12.5c0,0,2.4-1,4.9-1s4.9,1,4.9,1"/>
		<circle class="st2" cx="12" cy="4" r="3.5"/>
		<circle class="st2" cx="12" cy="4" r="1.5"/>
	</g>
</g>
</svg>
