<?xml version="1.0" encoding="utf-8"?>
<!-- Generator: Adobe Illustrator 19.2.0, SVG Export Plug-In . SVG Version: 6.00 Build 0)  -->
<svg version="1.1" id="Layer_1" xmlns="http://www.w3.org/2000/svg" xmlns:xlink="http://www.w3.org/1999/xlink" x="0px" y="0px"
	 viewBox="0 0 24 24" style="enable-background:new 0 0 24 24;" xml:space="preserve">
<style type="text/css">
	.st0{display:none;}
	.st1{display:inline;}
	.st2{fill:none;stroke:#000000;stroke-linecap:round;stroke-linejoin:round;stroke-miterlimit:10;}
</style>
<g id="Filled_Icons" class="st0">
	<g class="st1">
		<path d="M20.3,21.5c0,1.4-1.5,1.4-1.5,0c0-2.6-3.5-2.6-3.5,0c0,0.4-0.1,0.8-0.4,0.9c-0.2,0.1-0.5,0.1-0.7,0
			c-0.3-0.2-0.4-0.5-0.4-0.9c0-1.3-0.9-2-1.8-2l0,0c-0.9,0-1.8,0.7-1.8,2c0,1.4-1.5,1.4-1.5,0c0-2.6-3.5-2.6-3.5,0
			c0,1.4-1.5,1.4-1.5,0c0-2.6-3.3-2.6-3.3,0C0.5,21.8,0.7,22,1,22s0.5-0.2,0.5-0.5c0-1,0.7-1.2,1-0.8c0.1,0.1,0.2,0.4,0.2,0.8
			c0,0.6,0.2,1.1,0.5,1.5c0.3,0.3,0.8,0.5,1.2,0.5c0.9,0,1.8-0.7,1.8-2c0-1,0.9-1.2,1.2-0.8c0.2,0.2,0.3,0.4,0.3,0.8
			c0,0.8,0.3,1.2,0.5,1.5c0.9,1,3,0.6,3-1.5c0-0.7,0.4-1,0.8-1l0,0c0.4,0,0.8,0.3,0.8,1c0,0.8,0.3,1.5,0.9,1.8
			c0.5,0.3,1.1,0.3,1.7,0c0.6-0.3,0.9-1,0.9-1.8c0-1,0.9-1.2,1.2-0.8c0.2,0.2,0.3,0.4,0.3,0.8c0,0.8,0.3,1.2,0.5,1.5
			c0.9,1,3,0.6,3-1.5c0-1,0.7-1.2,1-0.8c0.1,0.1,0.2,0.4,0.2,0.8c0,0.3,0.2,0.5,0.5,0.5s0.5-0.2,0.5-0.5
			C23.5,18.9,20.3,18.9,20.3,21.5z"/>
		<path d="M21,0c-1.7,0-3,1.3-3,3v3h-6V3c0-1.1,0.9-2,2-2s2,0.9,2,2v1c0,0.3,0.2,0.5,0.5,0.5S17,4.3,17,4V3c0-1.7-1.3-3-3-3
			s-3,1.3-3,3v11.9c-0.4,0.3-0.7,0.9-0.7,1.6c0,1.4-1.5,1.4-1.5,0c0-2.6-3.5-2.6-3.5,0c0,1.4-1.5,1.4-1.5,0c0-2.6-3.3-2.6-3.3,0
			C0.5,16.8,0.7,17,1,17s0.5-0.2,0.5-0.5c0-1,0.7-1.2,1-0.8c0.1,0.1,0.2,0.4,0.2,0.8c0,0.6,0.2,1.1,0.5,1.5c0.3,0.3,0.8,0.5,1.2,0.5
			c0.9,0,1.8-0.7,1.8-2c0-1,0.9-1.2,1.2-0.8c0.2,0.2,0.3,0.4,0.3,0.8c0,0.8,0.3,1.2,0.5,1.5c0.9,1,3,0.6,3-1.5c0-0.7,0.4-1,0.8-1
			l0,0c0.4,0,0.8,0.3,0.8,1c0,0.8,0.3,1.5,0.9,1.8c0.5,0.3,1.1,0.3,1.7,0c0.6-0.3,0.9-1,0.9-1.8c0-1,0.9-1.2,1.2-0.8
			c0.2,0.2,0.3,0.4,0.3,0.8c0,0.5,0.1,0.8,0.3,1.1c0,0,0,0,0,0.1c0.1,0.1,0.2,0.2,0.2,0.3c0.9,1,3,0.6,3-1.5c0-1,0.7-1.2,1-0.8
			c0.1,0.1,0.2,0.4,0.2,0.8c0,0.3,0.2,0.5,0.5,0.5s0.5-0.2,0.5-0.5c0-2.6-3.2-2.6-3.2,0c0,1.1-0.9,1.3-1.3,0.8V3c0-1.1,0.9-2,2-2
			s2,0.9,2,2v1c0,0.3,0.2,0.5,0.5,0.5S24,4.3,24,4V3C24,1.4,22.7,0,21,0z M12,10h6v2h-6V10z M18,7v2h-6V7H18z M15.3,16.5
			c0,0.4-0.1,0.8-0.4,0.9c-0.2,0.1-0.5,0.1-0.7,0c-0.3-0.2-0.4-0.5-0.4-0.9c0-1.3-0.9-2-1.8-2l0,0l0,0V13h6v1.8
			C17,14.1,15.3,14.7,15.3,16.5z"/>
	</g>
</g>
<g id="Outline_Icons">
	<g>
		<path class="st2" d="M23,21.5c0-2-2.2-2-2.2,0s-2.5,2-2.5,0s-2.5-2-2.5,0s-2.5,2-2.5,0s-2.5-2-2.5,0s-2.5,2-2.5,0s-2.5-2-2.5,0
			s-2.5,2-2.5,0s-2.3-2-2.3,0"/>
		<path class="st2" d="M23,16.5c0-2-2.2-2-2.2,0s-2.5,2-2.5,0s-2.5-2-2.5,0s-2.5,2-2.5,0s-2.5-2-2.5,0s-2.5,2-2.5,0s-2.5-2-2.5,0
			s-2.5,2-2.5,0s-2.3-2-2.3,0"/>
		<path class="st2" d="M11.5,15.1V3c0-1.4,1.1-2.5,2.5-2.5s2.5,1.1,2.5,2.5v1"/>
		<path class="st2" d="M18.5,17.4V3c0-1.4,1.1-2.5,2.5-2.5s2.5,1.1,2.5,2.5v1"/>
		<line class="st2" x1="11.5" y1="9.5" x2="18.5" y2="9.5"/>
		<line class="st2" x1="11.5" y1="6.5" x2="18.5" y2="6.5"/>
		<line class="st2" x1="11.5" y1="12.5" x2="18.5" y2="12.5"/>
	</g>
</g>
</svg>
