<?xml version="1.0" encoding="utf-8"?>
<!-- Generator: Adobe Illustrator 19.2.0, SVG Export Plug-In . SVG Version: 6.00 Build 0)  -->
<svg version="1.1" id="Layer_1" xmlns="http://www.w3.org/2000/svg" xmlns:xlink="http://www.w3.org/1999/xlink" x="0px" y="0px"
	 viewBox="0 0 24 24" style="enable-background:new 0 0 24 24;" xml:space="preserve">
<style type="text/css">
	.st0{display:none;}
	.st1{display:inline;}
	.st2{fill:none;stroke:#000000;stroke-linecap:round;stroke-linejoin:round;stroke-miterlimit:10;}
</style>
<g id="Filled_Icon" class="st0">
	<g class="st1">
		<path d="M12.1,4c0.3,0.1,0.5-0.1,0.6-0.4l0.5-2.1c0.9,1.2,1.7,2.9,2.2,5.1C15.5,6.9,15.8,7,16,7c0.3-0.1,0.4-0.3,0.4-0.6
			c-0.5-2.1-1.2-3.9-2.1-5.1l1.6,0.3c0.3,0,0.5-0.1,0.6-0.4c0-0.3-0.1-0.5-0.4-0.6L13.2,0c-0.2,0-0.4,0-0.6,0.2
			c-0.1,0.1-0.1,0.2-0.1,0.3l-0.7,2.9C11.7,3.6,11.9,3.9,12.1,4z"/>
		<path d="M15,8H5.5C5.2,8,5,8.2,5,8.5v7C5,15.8,5.2,16,5.5,16H15c2.2,0,4-1.8,4-4S17.2,8,15,8z M15,14h-1.5c-0.3,0-0.5-0.2-0.5-0.5
			v-3c0-0.3,0.2-0.5,0.5-0.5H15c1.1,0,2,0.9,2,2S16.1,14,15,14z"/>
		<path d="M16,17c-0.3-0.1-0.5,0.1-0.6,0.4c-0.6,2.6-1.6,4.6-2.7,5.7c-0.2,0.2-0.2,0.5,0,0.7c0.1,0.1,0.2,0.2,0.4,0.2
			c0.1,0,0.2,0,0.3-0.1c1.3-1.2,2.4-3.5,3-6.2C16.5,17.4,16.3,17.1,16,17z"/>
	</g>
</g>
<g id="Outline_Icons">
	<g>
		<polyline class="st2" points="12.2,3.5 13,0.5 16,1 		"/>
		<path class="st2" d="M5.5,15.5H15c1.9,0,3.5-1.6,3.5-3.5S16.9,8.5,15,8.5H5.5"/>
		<path class="st2" d="M15,10.5c0.8,0,1.5,0.7,1.5,1.5s-0.7,1.5-1.5,1.5h-1.5v-3H15z"/>
		<path class="st2" d="M15.9,17.5c-0.6,2.7-1.6,4.8-2.9,6"/>
		<path class="st2" d="M13,0.5c1.3,1.2,2.3,3.3,2.9,6"/>
	</g>
</g>
</svg>
