<?xml version="1.0" encoding="utf-8"?>
<!-- Generator: Adobe Illustrator 19.2.0, SVG Export Plug-In . SVG Version: 6.00 Build 0)  -->
<svg version="1.1" id="Layer_1" xmlns="http://www.w3.org/2000/svg" xmlns:xlink="http://www.w3.org/1999/xlink" x="0px" y="0px"
	 viewBox="0 0 24 24" style="enable-background:new 0 0 24 24;" xml:space="preserve">
<style type="text/css">
	.st0{display:none;}
	.st1{display:inline;}
	.st2{fill:none;stroke:#000000;stroke-linecap:round;stroke-linejoin:round;stroke-miterlimit:10;}
</style>
<g id="Filled_Icon" class="st0">
	<g class="st1">
		<path d="M15,8H5.5C5.2,8,5,8.2,5,8.5v7C5,15.8,5.2,16,5.5,16H15c2.2,0,4-1.8,4-4S17.2,8,15,8z M15,14h-1.5c-0.3,0-0.5-0.2-0.5-0.5
			v-3c0-0.3,0.2-0.5,0.5-0.5H15c1.1,0,2,0.9,2,2S16.1,14,15,14z"/>
		<path d="M15.9,6.6C16,6.8,16.2,7,16.4,7h0.1c0.3-0.1,0.4-0.3,0.4-0.6c-0.6-2.8-1.7-5-3-6.2c-0.2-0.2-0.5-0.2-0.7,0s-0.2,0.5,0,0.7
			C14.4,2,15.3,4,15.9,6.6z"/>
		<path d="M16.4,22.5l-1.6,0.3c0.9-1.3,1.6-3,2.1-5.1c0.1-0.3-0.1-0.5-0.4-0.6s-0.5,0.1-0.6,0.4c-0.5,2.1-1.2,3.8-2.1,5l-0.3-1.9
			c0-0.3-0.3-0.5-0.6-0.4c-0.3,0-0.5,0.3-0.4,0.6l0.5,3c0,0.2,0.3,0.4,0.5,0.4h0.1l3-0.5c0.3,0,0.5-0.3,0.4-0.6
			C16.9,22.6,16.7,22.5,16.4,22.5z"/>
	</g>
</g>
<g id="Outline_Icons">
	<g>
		<polyline class="st2" points="12.5,20.5 13,23.5 16,23 		"/>
		<path class="st2" d="M5.5,8.5H15c1.9,0,3.5,1.6,3.5,3.5s-1.6,3.5-3.5,3.5H5.5"/>
		<path class="st2" d="M15,13.5c0.8,0,1.5-0.7,1.5-1.5s-0.7-1.5-1.5-1.5h-1.5v3H15z"/>
		<path class="st2" d="M15.9,6.5c-0.6-2.7-1.6-4.8-2.9-6"/>
		<path class="st2" d="M13,23.5c1.3-1.2,2.3-3.3,2.9-5.9"/>
	</g>
</g>
</svg>
