<?xml version="1.0" encoding="utf-8"?>
<!-- Generator: Adobe Illustrator 19.2.0, SVG Export Plug-In . SVG Version: 6.00 Build 0)  -->
<svg version="1.1" id="Layer_1" xmlns="http://www.w3.org/2000/svg" xmlns:xlink="http://www.w3.org/1999/xlink" x="0px" y="0px"
	 viewBox="0 0 24 24" style="enable-background:new 0 0 24 24;" xml:space="preserve">
<style type="text/css">
	.st0{display:none;}
	.st1{display:inline;}
	.st2{fill:none;stroke:#000000;stroke-linejoin:round;stroke-miterlimit:10;}
	.st3{fill:none;stroke:#000000;stroke-linecap:round;stroke-linejoin:round;stroke-miterlimit:10;}
</style>
<g id="Filled_Icons" class="st0">
	<g class="st1">
		<path d="M4,15h5.3l1.9-3.4c1.9-3.3,1.9-7.4,0-10.6c-0.1-0.2-0.3-0.3-0.4-0.3c-0.2,0-0.3,0.1-0.4,0.2L2.1,15.4
			C2.7,15.1,3.3,15,4,15z M6.6,11.5l2.7-4.8C9.5,6.4,9.8,6.3,10,6.5s0.3,0.4,0.2,0.7L7.5,12c-0.1,0.2-0.3,0.3-0.4,0.3
			c-0.1,0-0.2,0-0.2-0.1C6.6,12,6.5,11.7,6.6,11.5z"/>
		<path d="M18.4,12c-0.2,0-0.4,0.3-0.4,0.5V15h2c1.1,0,2.2,0.4,3,1V7.5C23,6.1,21.9,5,20.5,5S18,6.1,18,7.6C18,7.8,18.2,8,18.4,8
			c0.9,0.2,1.6,1,1.6,2C20,11,19.3,11.8,18.4,12z"/>
		<path d="M20,16H4c-2.2,0-4,1.8-4,4s1.8,4,4,4h16c2.2,0,4-1.8,4-4S22.2,16,20,16z M5,22c-1.1,0-2-0.9-2-2s0.9-2,2-2s2,0.9,2,2
			C7,21.1,6.1,22,5,22z M19,22c-1.1,0-2-0.9-2-2s0.9-2,2-2c1.1,0,2,0.9,2,2C21,21.1,20.1,22,19,22z"/>
	</g>
</g>
<g id="Outline_Icons">
	<g>
		<path class="st2" d="M23.5,20c0,1.9-1.6,3.5-3.5,3.5H4c-1.9,0-3.5-1.6-3.5-3.5s1.6-3.5,3.5-3.5h16C21.9,16.5,23.5,18.1,23.5,20z"
			/>
		<path class="st2" d="M7.8,16.5l2.9-5.2c1.8-3.1,1.8-7,0-10.1L1.4,17.7"/>
		<line class="st3" x1="9.8" y1="6.9" x2="7" y2="11.7"/>
		<circle class="st2" cx="5" cy="20" r="1.5"/>
		<circle class="st2" cx="19" cy="20" r="1.5"/>
		<path class="st3" d="M22.5,17.6V7.5c0-1.1-0.9-2-2-2c-1.1,0-2,0.9-2,2v0.1c1.1,0.2,2,1.2,2,2.4c0,1.2-0.9,2.2-2,2.4v4.1"/>
	</g>
</g>
</svg>
