<?xml version="1.0" encoding="utf-8"?>
<!-- Generator: Adobe Illustrator 19.2.0, SVG Export Plug-In . SVG Version: 6.00 Build 0)  -->
<svg version="1.1" id="Layer_1" xmlns="http://www.w3.org/2000/svg" xmlns:xlink="http://www.w3.org/1999/xlink" x="0px" y="0px"
	 viewBox="0 0 24 24" style="enable-background:new 0 0 24 24;" xml:space="preserve">
<style type="text/css">
	.st0{display:none;}
	.st1{display:inline;}
	.st2{fill:none;stroke:#000000;stroke-linecap:round;stroke-linejoin:round;stroke-miterlimit:10;}
</style>
<g id="Filled_Icons" class="st0">
	<g class="st1">
		<circle cx="3.5" cy="20.5" r="0.5"/>
		<circle cx="20.5" cy="3.5" r="0.5"/>
		<circle cx="3.5" cy="3.5" r="0.5"/>
		<circle cx="20.5" cy="20.5" r="0.5"/>
		<path d="M23.5,0h-23C0.2,0,0,0.2,0,0.5v23C0,23.8,0.2,24,0.5,24h23c0.3,0,0.5-0.2,0.5-0.5v-23C24,0.2,23.8,0,23.5,0z M3.5,22
			C2.7,22,2,21.3,2,20.5C2,19.7,2.7,19,3.5,19C4.3,19,5,19.7,5,20.5C5,21.3,4.3,22,3.5,22z M3.5,5C2.7,5,2,4.3,2,3.5
			C2,2.7,2.7,2,3.5,2C4.3,2,5,2.7,5,3.5C5,4.3,4.3,5,3.5,5z M16,17.5c0,0.3-0.2,0.5-0.5,0.5h-7C8.2,18,8,17.8,8,17.5V16h8V17.5z
			 M16,15H8V6.5C8,6.2,8.2,6,8.5,6h7C15.8,6,16,6.2,16,6.5V15z M20.5,22c-0.8,0-1.5-0.7-1.5-1.5c0-0.8,0.7-1.5,1.5-1.5
			c0.8,0,1.5,0.7,1.5,1.5C22,21.3,21.3,22,20.5,22z M20.5,5C19.7,5,19,4.3,19,3.5C19,2.7,19.7,2,20.5,2C21.3,2,22,2.7,22,3.5
			C22,4.3,21.3,5,20.5,5z"/>
	</g>
</g>
<g id="Outline_Icons">
	<g>
		<rect x="0.5" y="0.5" class="st2" width="23" height="23"/>
		<rect x="8.5" y="6.5" class="st2" width="7" height="11"/>
		<circle class="st2" cx="3.5" cy="3.5" r="1"/>
		<circle class="st2" cx="20.5" cy="3.5" r="1"/>
		<circle class="st2" cx="3.5" cy="20.5" r="1"/>
		<circle class="st2" cx="20.5" cy="20.5" r="1"/>
		<line class="st2" x1="8.5" y1="15.5" x2="15.5" y2="15.5"/>
	</g>
</g>
</svg>
