<?xml version="1.0" encoding="utf-8"?>
<!-- Generator: Adobe Illustrator 19.2.0, SVG Export Plug-In . SVG Version: 6.00 Build 0)  -->
<svg version="1.1" id="Layer_1" xmlns="http://www.w3.org/2000/svg" xmlns:xlink="http://www.w3.org/1999/xlink" x="0px" y="0px"
	 viewBox="0 0 24 24" style="enable-background:new 0 0 24 24;" xml:space="preserve">
<style type="text/css">
	.st0{display:none;}
	.st1{display:inline;}
	.st2{fill:none;stroke:#000000;stroke-linejoin:round;stroke-miterlimit:10;}
	.st3{fill:none;stroke:#000000;stroke-linecap:round;stroke-linejoin:round;stroke-miterlimit:10;}
</style>
<g id="Filled_Icons" class="st0">
	<path class="st1" d="M23.5,7c0-2.8-2.2-5-5-5c-2.1,0-3.8,1.3-4.6,3.1c0,0,0,0,0,0l-5,9.1c-0.3-0.1-0.6-0.1-0.9-0.1l-2.2-3.3
		C6,10.5,6,10.3,6,10c0-1.7-1.3-3-3-3s-3,1.3-3,3c0,1.5,1.1,2.7,2.5,3l2.2,3.4c-0.2,0.4-0.2,0.9-0.2,1.4C4.6,19.6,6.2,21,8,21
		c1.1,0,2-0.5,2.6-1.2c0.6-0.7,0.9-1.5,0.9-2.6l9.4-5.9C22.4,10.5,23.5,8.9,23.5,7z M18.5,4c1.7,0,3,1.3,3,3s-1.3,3-3,3s-3-1.3-3-3
		S16.8,4,18.5,4z M3.7,12.9c0.7-0.2,1.3-0.6,1.7-1.1L7,14.2c-0.6,0.2-1.1,0.5-1.5,1c0,0-0.1,0.1-0.1,0.1L3.7,12.9z M9.8,14.6
		l3.7-6.8c0.3,2.3,2.2,4,4.5,4.2l-6.8,4.3C11,15.5,10.5,15,9.8,14.6z"/>
</g>
<g id="Outline_Icons">
	<g>
		<circle class="st2" cx="18.5" cy="7" r="4.5"/>
		<circle class="st2" cx="18.5" cy="7" r="2.5"/>
		<circle class="st2" cx="3" cy="10" r="2.5"/>
		<circle class="st2" cx="8" cy="17.5" r="3"/>
		<line class="st3" x1="11" y1="17" x2="20.7" y2="10.9"/>
		<line class="st3" x1="14.3" y1="5.3" x2="9.1" y2="14.8"/>
		<line class="st3" x1="5.3" y1="10.9" x2="7.8" y2="14.6"/>
		<line class="st3" x1="5.3" y1="16.3" x2="2.8" y2="12.5"/>
	</g>
</g>
</svg>
