<?xml version="1.0" encoding="utf-8"?>
<!-- Generator: Adobe Illustrator 19.2.0, SVG Export Plug-In . SVG Version: 6.00 Build 0)  -->
<svg version="1.1" id="Layer_1" xmlns="http://www.w3.org/2000/svg" xmlns:xlink="http://www.w3.org/1999/xlink" x="0px" y="0px"
	 viewBox="0 0 24 24" style="enable-background:new 0 0 24 24;" xml:space="preserve">
<style type="text/css">
	.st0{display:none;}
	.st1{display:inline;}
	.st2{fill:none;stroke:#000000;stroke-linecap:round;stroke-linejoin:round;stroke-miterlimit:10;}
</style>
<g id="Filled_Icons" class="st0">
	<g class="st1">
		<path d="M2.2,13c0.2-0.1,0.3-0.3,0.3-0.5V10c0-0.5,0-1,2-1H14v2.5c0,0.2,0.1,0.4,0.3,0.5c0.2,0.1,0.4,0,0.6-0.1l5-5.5
			c0.2-0.2,0.2-0.5,0-0.7l-5-5.5C14.7,0,14.5,0,14.3,0C14.1,0.1,14,0.3,14,0.5V3H4.5C1.4,3,0,5.8,0,8.5c0,2.4,1.6,4.2,1.6,4.3
			C1.7,12.9,1.9,13,2,13C2.1,13,2.1,13,2.2,13z"/>
		<path d="M20.4,11.2C20.2,11,20,11,19.8,11c-0.2,0.1-0.3,0.3-0.3,0.5V14c0,0.5,0,1-2,1H8v-2.5c0-0.2-0.1-0.4-0.3-0.5
			c-0.2-0.1-0.4,0-0.6,0.1l-5,5.5c-0.2,0.2-0.2,0.5,0,0.7l5,5.5C7.2,23.9,7.4,24,7.5,24c0.1,0,0.1,0,0.2,0C7.9,23.9,8,23.7,8,23.5
			V21h9.5c3.1,0,4.5-2.8,4.5-5.5C22,13.1,20.4,11.3,20.4,11.2z"/>
	</g>
</g>
<g id="Outline_Icons">
	<g>
		<path class="st2" d="M14.5,3.5h-10c-3,0-4,2.8-4,5s1.5,4,1.5,4s0-1.1,0-2.5c0-1,0.5-1.5,2.5-1.5h10v3l5-5.5l-5-5.5V3.5z"/>
		<path class="st2" d="M7.5,20.5h10c3,0,4-2.8,4-5s-1.5-4-1.5-4s0,1.1,0,2.5c0,1-0.5,1.5-2.5,1.5h-10v-3l-5,5.5l5,5.5V20.5z"/>
	</g>
</g>
</svg>
