<?xml version="1.0" encoding="utf-8"?>
<!-- Generator: Adobe Illustrator 19.2.0, SVG Export Plug-In . SVG Version: 6.00 Build 0)  -->
<svg version="1.1" id="Layer_1" xmlns="http://www.w3.org/2000/svg" xmlns:xlink="http://www.w3.org/1999/xlink" x="0px" y="0px"
	 viewBox="0 0 24 24" style="enable-background:new 0 0 24 24;" xml:space="preserve">
<style type="text/css">
	.st0{display:none;}
	.st1{display:inline;}
	.st2{fill:none;stroke:#000000;stroke-linecap:round;stroke-linejoin:round;stroke-miterlimit:10;}
</style>
<g id="Filled_Icons" class="st0">
	<g class="st1">
		<path d="M23.7,13.2l-3.3-3.6c-0.2-0.2-0.5-0.4-0.8-0.3c-0.3,0-0.6,0.2-0.8,0.5l-2.6,4.1c-0.3,0.5-0.1,1.1,0.3,1.4
			c0.2,0.1,0.3,0.1,0.5,0.1c0.3,0,0.7-0.2,0.9-0.5l1-1.6c-0.1,1.3-0.5,2.5-1.1,3.7c-1.1,2-3,3.4-5.2,3.9c-0.5,0.1-0.9,0.7-0.7,1.2
			c0.1,0.5,0.5,0.8,1,0.8c0.1,0,0.2,0,0.2,0c2.7-0.7,5-2.4,6.4-4.8c0.9-1.5,1.3-3.2,1.4-4.8l1.2,1.4c0.4,0.4,1,0.4,1.4,0.1
			C24.1,14.2,24.1,13.6,23.7,13.2z"/>
		<path d="M17,7.2c0.2,0.2,0.5,0.4,0.8,0.4c0.2,0,0.5-0.1,0.6-0.2c0.4-0.4,0.5-1,0.1-1.4c-1.8-2.1-4.3-3.4-7.2-3.6
			C9.7,2.2,8,2.5,6.4,3.1l0.7-1.7c0.2-0.5,0-1.1-0.6-1.3c-0.5-0.2-1.1,0-1.3,0.6L3.4,5.2C3.3,5.5,3.4,5.8,3.5,6.1
			C3.7,6.4,4,6.5,4.3,6.6l4.9,0.5c0,0,0.1,0,0.1,0c0.5,0,0.9-0.4,1-0.9c0.1-0.5-0.3-1-0.9-1.1L7.4,4.9c1.2-0.5,2.5-0.7,3.8-0.6
			C13.5,4.5,15.6,5.5,17,7.2z"/>
		<path d="M6.4,17c-0.2-0.5-0.8-0.7-1.3-0.5c-0.5,0.2-0.7,0.8-0.5,1.3l0.8,1.8c-2.8-2.2-4.1-6-2.8-9.5c0.2-0.5-0.1-1.1-0.6-1.3
			C1.4,8.6,0.8,8.8,0.6,9.4c-1.6,4.4,0.1,9.2,3.7,11.9l-1.8,0.3c-0.5,0.1-0.9,0.6-0.8,1.1c0.1,0.5,0.5,0.9,1,0.9c0,0,0.1,0,0.1,0
			l4.8-0.7c0.3,0,0.6-0.2,0.7-0.5c0.1-0.3,0.2-0.6,0-0.9L6.4,17z"/>
	</g>
</g>
<g id="Outline_Icons">
	<g>
		<g>
			<polyline class="st2" points="23.5,13.9 20.1,10.1 17.4,14.4 			"/>
			<path class="st2" d="M20,10.1c1.3,5.3-1.8,10.8-7.1,12.1"/>
		</g>
		<g>
			<polyline class="st2" points="5.9,0.6 4,5.3 9.1,5.8 			"/>
			<path class="st2" d="M4,5.3c4.2-3.5,10.5-3.2,14.1,1"/>
		</g>
		<g>
			<polyline class="st2" points="2.2,23 7.3,22.3 5.1,17.6 			"/>
			<path class="st2" d="M7.2,22.2c-5.2-1.8-8-7.5-6.1-12.6"/>
		</g>
	</g>
</g>
</svg>
