<?xml version="1.0" encoding="utf-8"?>
<!-- Generator: Adobe Illustrator 19.2.0, SVG Export Plug-In . SVG Version: 6.00 Build 0)  -->
<svg version="1.1" id="Layer_1" xmlns="http://www.w3.org/2000/svg" xmlns:xlink="http://www.w3.org/1999/xlink" x="0px" y="0px"
	 viewBox="0 0 24 24" style="enable-background:new 0 0 24 24;" xml:space="preserve">
<style type="text/css">
	.st0{display:none;}
	.st1{display:inline;}
	.st2{fill:none;stroke:#000000;stroke-linecap:round;stroke-linejoin:round;stroke-miterlimit:10;}
</style>
<g id="Filled_Icons" class="st0">
	<g class="st1">
		<path d="M14,17H7c-2.8,0-5-2.2-5-5c0-2.8,2.2-5,5-5c0.6,0,1-0.4,1-1c0-0.6-0.4-1-1-1c-3.9,0-7,3.1-7,7c0,3.7,2.9,6.7,6.5,7v4
			c0,0.4,0.2,0.7,0.6,0.9C7.2,24,7.4,24,7.5,24c0.2,0,0.4-0.1,0.6-0.2l6.5-5c0.3-0.3,0.5-0.7,0.3-1.1C14.8,17.3,14.4,17,14,17z"/>
		<path d="M17.5,5V1c0-0.4-0.2-0.7-0.6-0.9C16.6,0,16.2,0,15.9,0.2l-6.5,5C9.1,5.5,8.9,5.9,9.1,6.3C9.2,6.7,9.6,7,10,7h7
			c2.8,0,5,2.2,5,5c0,2.8-2.2,5-5,5c-0.6,0-1,0.4-1,1c0,0.6,0.4,1,1,1c3.9,0,7-3.1,7-7C24,8.3,21.1,5.3,17.5,5z"/>
	</g>
</g>
<g id="Outline_Icons">
	<g>
		<path class="st2" d="M7,5.5H6.5c-3.3,0-6,2.7-6,6c0,3.3,2.7,6,6,6H14l-6.5,5v-5"/>
		<path class="st2" d="M17,17.5h0.5c3.3,0,6-2.7,6-6c0-3.3-2.7-6-6-6H10l6.5-5v5"/>
	</g>
</g>
</svg>
