<?xml version="1.0" encoding="utf-8"?>
<!-- Generator: Adobe Illustrator 19.2.0, SVG Export Plug-In . SVG Version: 6.00 Build 0)  -->
<svg version="1.1" id="Layer_1" xmlns="http://www.w3.org/2000/svg" xmlns:xlink="http://www.w3.org/1999/xlink" x="0px" y="0px"
	 viewBox="0 0 24 24" style="enable-background:new 0 0 24 24;" xml:space="preserve">
<style type="text/css">
	.st0{display:none;}
	.st1{display:inline;}
	.st2{fill:none;stroke:#000000;stroke-linecap:round;stroke-linejoin:round;stroke-miterlimit:10;}
</style>
<g id="Filled_Icons" class="st0">
	<g class="st1">
		<g>
			<path d="M23.9,13.7l-2.4-4.2c0-0.1-0.1-0.1-0.1-0.2C21.1,9.2,20.9,9,20.7,9c-0.3,0-0.6,0.1-0.9,0.4l-3.2,3.8
				c-0.4,0.4-0.3,1.1,0.1,1.4c0.4,0.4,1.1,0.3,1.4-0.1l1.5-1.7c-0.6,2.8-2.8,5.3-5.8,6c-2.5,0.6-5.1-0.1-7-2c-0.4-0.4-1-0.4-1.4,0
				c-0.4,0.4-0.4,1,0,1.4C7.2,20,9.6,21,12,21c0.7,0,1.5-0.1,2.2-0.3c3.6-0.8,6.4-3.8,7.2-7.2l0.7,1.2c0.2,0.3,0.5,0.5,0.9,0.5
				c0.2,0,0.3,0,0.5-0.1C24,14.8,24.1,14.2,23.9,13.7z"/>
			<path d="M7.4,9.4C7,9,6.4,9.1,6,9.5l-1.7,2.1c0-1.3,0.4-2.5,1.1-3.7c1.1-1.9,2.9-3.2,5-3.7c2.7-0.6,5.5,0.3,7.3,2.3
				c0.4,0.4,1,0.5,1.4,0.1c0.4-0.4,0.5-1,0.1-1.4c-2.3-2.6-5.9-3.8-9.3-3C7.3,2.9,5,4.5,3.7,6.8c-0.6,1-1,2.2-1.2,3.3L1.9,9.2
				C1.6,8.7,1,8.6,0.5,8.9C0,9.2-0.1,9.8,0.1,10.2l2.6,4.3C2.9,14.8,3.2,15,3.5,15c0,0,0.1,0,0.1,0c0.3,0,0.6-0.1,0.8-0.4l3.2-3.8
				C7.9,10.4,7.8,9.7,7.4,9.4z"/>
		</g>
		<path d="M14.5,10H14V9.4C14,8,13.2,7,12,7c-1.2,0-2,1-2,2.4V10H9.5C9.2,10,9,10.2,9,10.5V15c0,0.3,0.2,0.5,0.5,0.5h5
			c0.3,0,0.5-0.2,0.5-0.5v-4.5C15,10.2,14.8,10,14.5,10z M12.5,13c0,0.3-0.2,0.5-0.5,0.5c-0.3,0-0.5-0.2-0.5-0.5v-0.5
			c0-0.3,0.2-0.5,0.5-0.5c0.3,0,0.5,0.2,0.5,0.5V13z M13,10h-2V9.4c0-0.4,0.1-0.8,0.3-1C11.4,8.1,11.7,8,12,8c0.9,0,1,1.1,1,1.4V10z
			"/>
	</g>
</g>
<g id="Outline_Icons">
	<g>
		<rect x="8.5" y="10.5" class="st2" width="7" height="5"/>
		<g>
			<polyline class="st2" points="0.7,9.9 3.5,14 6.7,10.2 			"/>
			<polyline class="st2" points="23.3,14.2 20.5,10 17.3,13.8 			"/>
			<path class="st2" d="M20.5,10c0.8,4.4-2.3,8.7-6.5,9.7C11,20.5,8,19.5,6,17.5"/>
			<path class="st2" d="M3.5,14C2.2,9.1,5.5,4.3,10,3.2c3.2-0.7,6.3,0.4,8.3,2.6"/>
		</g>
		<path class="st2" d="M9.5,9c0-1.4,1.1-2.5,2.5-2.5c1.4,0,2.5,1.1,2.5,2.5v1.5h-5V9z"/>
		<line class="st2" x1="12" y1="12.5" x2="12" y2="13.5"/>
	</g>
</g>
</svg>
