<?xml version="1.0" encoding="utf-8"?>
<!-- Generator: Adobe Illustrator 19.2.0, SVG Export Plug-In . SVG Version: 6.00 Build 0)  -->
<svg version="1.1" id="Layer_1" xmlns="http://www.w3.org/2000/svg" xmlns:xlink="http://www.w3.org/1999/xlink" x="0px" y="0px"
	 viewBox="0 0 24 24" style="enable-background:new 0 0 24 24;" xml:space="preserve">
<style type="text/css">
	.st0{display:none;}
	.st1{display:inline;}
	.st2{fill:none;stroke:#000000;stroke-linecap:round;stroke-linejoin:round;stroke-miterlimit:10;}
</style>
<g id="Filled_Icons" class="st0">
	<g class="st1">
		<path d="M13.6,6.9C13,6.8,12.5,7,12.3,7.5c-0.2,0.5,0.1,1.1,0.6,1.3l3.6,1.3c0.5,0.2,1,0,1.3-0.6c0,0,0,0,0,0L19,5.8
			c0.2-0.5-0.1-1.1-0.6-1.3c-0.5-0.2-1.1,0.1-1.3,0.6l-0.6,1.6l-3.7-6.3C12.7,0.2,12.4,0,12,0h0c-0.4,0-0.7,0.2-0.9,0.5L6.4,8.6
			C6.1,9.1,6.2,9.7,6.7,10c0.5,0.3,1.1,0.1,1.4-0.4L12,3l2.5,4.3L13.6,6.9z"/>
		<path d="M23.8,19.5l-5-8.2c-0.3-0.5-0.9-0.6-1.4-0.3c-0.5,0.3-0.6,0.9-0.3,1.4l4.1,6.7h-5.4l1-1c0.4-0.4,0.4-1,0-1.4
			c-0.4-0.4-1-0.4-1.4,0l-2.9,2.9c-0.2,0.2-0.3,0.4-0.3,0.7c0,0.3,0.1,0.5,0.3,0.7l2.9,2.9c0.2,0.2,0.4,0.3,0.7,0.3
			c0.3,0,0.5-0.1,0.7-0.3c0.4-0.4,0.4-1,0-1.4L15.5,21H23c0.4,0,0.7-0.2,0.9-0.5C24,20.2,24,19.8,23.8,19.5z"/>
		<path d="M10,19H2.7l2.7-5l0.2,1.1c0.1,0.5,0.5,0.8,1,0.8c0.1,0,0.1,0,0.2,0c0.5-0.1,0.9-0.7,0.8-1.2L6.8,11
			c-0.1-0.5-0.6-0.9-1.2-0.8L1.9,11c-0.5,0.1-0.9,0.6-0.8,1.2c0.1,0.5,0.6,0.9,1.2,0.8l1.6-0.3l-3.8,6.9c-0.2,0.3-0.2,0.7,0,1
			C0.3,20.8,0.6,21,1,21h9c0.6,0,1-0.4,1-1C11,19.5,10.5,19,10,19z"/>
	</g>
</g>
<g id="Outline_Icons">
	<g>
		<g>
			<polyline class="st2" points="18.4,5.2 17,9 13.3,7.7 			"/>
		</g>
		<g>
			<polyline class="st2" points="16.3,23.5 13.3,20.5 16.3,17.5 			"/>
		</g>
		<g>
			<polyline class="st2" points="1.6,12 5.5,11.2 6.4,15.1 			"/>
		</g>
		<polyline class="st2" points="18.3,11.8 23.5,20.5 13.3,20.5 		"/>
		<polyline class="st2" points="7,9 12,0.5 17,9 		"/>
		<polyline class="st2" points="10,20.5 0.5,20.5 5.5,11.2 		"/>
	</g>
</g>
</svg>
