<?xml version="1.0" encoding="utf-8"?>
<!-- Generator: Adobe Illustrator 19.2.0, SVG Export Plug-In . SVG Version: 6.00 Build 0)  -->
<svg version="1.1" id="Layer_1" xmlns="http://www.w3.org/2000/svg" xmlns:xlink="http://www.w3.org/1999/xlink" x="0px" y="0px"
	 viewBox="0 0 24 24" style="enable-background:new 0 0 24 24;" xml:space="preserve">
<style type="text/css">
	.st0{display:none;}
	.st1{display:inline;}
	.st2{fill:none;stroke:#000000;stroke-linecap:round;stroke-linejoin:round;stroke-miterlimit:10;}
</style>
<g id="Filled_Icons" class="st0">
	<g class="st1">
		<path d="M20.6,4.8c-2.1-1.9-4.7-2.9-7.5-2.8c-2.9,0.1-5.7,1.5-7.7,3.7c-1.3,1.5-2.1,3.2-2.4,5.1L1.8,8.9C1.5,8.5,0.9,8.3,0.4,8.6
			C0,8.9-0.2,9.6,0.1,10l3,4.5c0.4,0.6,1.2,0.6,1.6,0l3.5-3.9c0.4-0.4,0.3-1-0.1-1.4c-0.4-0.4-1-0.3-1.4,0.1L5,11.3
			c0.3-1.6,0.9-3,2-4.2c1.6-1.9,3.8-3,6.2-3c2.3-0.1,4.4,0.7,6.1,2.3c1.7,1.5,2.6,3.6,2.7,5.9c0.1,2.3-0.7,4.4-2.3,6.1
			C18.1,20,16,20.9,13.8,21c-0.6,0-1,0.5-1,1c0,0.5,0.5,1,1,1c0,0,0,0,0,0c2.8-0.1,5.4-1.3,7.3-3.3c1.9-2.1,2.9-4.7,2.8-7.5
			C23.9,9.3,22.7,6.7,20.6,4.8z"/>
		<path d="M13,6.5c-0.6,0-1,0.4-1,1V14h6.5c0.6,0,1-0.4,1-1c0-0.6-0.4-1-1-1H14V7.5C14,6.9,13.5,6.5,13,6.5z"/>
	</g>
</g>
<g id="Outline_Icons">
	<g>
		<polyline class="st2" points="1,9 4,13.5 7.5,9.5 		"/>
		<path class="st2" d="M4,13.5c-0.8-6.1,3.9-10.8,9.1-11c5.2-0.2,9.6,3.9,9.8,9.1c0.2,5.2-3.9,9.7-9.1,9.8"/>
		<polyline class="st2" points="13.5,7 13.5,12.5 18.5,12.5 		"/>
	</g>
</g>
</svg>
