<?xml version="1.0" encoding="utf-8"?>
<!-- Generator: Adobe Illustrator 19.2.0, SVG Export Plug-In . SVG Version: 6.00 Build 0)  -->
<svg version="1.1" id="Layer_1" xmlns="http://www.w3.org/2000/svg" xmlns:xlink="http://www.w3.org/1999/xlink" x="0px" y="0px"
	 viewBox="0 0 24 24" style="enable-background:new 0 0 24 24;" xml:space="preserve">
<style type="text/css">
	.st0{display:none;}
	.st1{display:inline;}
	.st2{fill:none;stroke:#000000;stroke-linecap:round;stroke-linejoin:round;stroke-miterlimit:10;}
</style>
<g id="Filled_Icons" class="st0">
	<g class="st1">
		<path d="M6.3,14c0-0.5-0.5-1-1.1-0.9c-0.5,0-1,0.5-0.9,1.1l0.2,2.6c-1.5-1.6-2.3-3.6-2.3-5.8c0-4.7,3.8-8.5,8.5-8.5
			c0.6,0,1.2,0.1,1.8,0.2c0.5,0.1,1.1-0.2,1.2-0.8c0.1-0.5-0.2-1.1-0.8-1.2c-0.7-0.2-1.5-0.2-2.2-0.2C5,0.5,0.3,5.2,0.3,11
			c0,2.4,0.8,4.6,2.2,6.4l-1.3-0.2C0.6,17,0.1,17.4,0,17.9c-0.1,0.5,0.2,1.1,0.8,1.2l4.8,0.9c0.6,0.1,1.2-0.4,1.2-1.1L6.3,14z"/>
		<path d="M23.7,21l-4.1-4.1c0,0,0,0,0,0c1-1.6,1.5-3.4,1.5-5.4c0-2.4-0.8-4.6-2.2-6.4l1.4,0.3c0.5,0.1,1.1-0.2,1.2-0.8
			c0.1-0.5-0.2-1.1-0.8-1.2l-4.9-1c-0.1,0-0.3,0-0.4,0c-0.2,0-0.3,0.1-0.5,0.2c-0.2,0.2-0.4,0.5-0.3,0.8l0.4,5c0,0.5,0.5,0.9,1,0.9
			c0,0,0.1,0,0.1,0c0.6,0,1-0.5,0.9-1.1l-0.2-2.7c1.5,1.6,2.3,3.6,2.3,5.9c0,4.7-3.8,8.5-8.5,8.5c-0.6,0-1.2-0.1-1.8-0.2
			c-0.5-0.1-1.1,0.2-1.2,0.8c-0.1,0.5,0.2,1.1,0.8,1.2c0.7,0.2,1.5,0.2,2.2,0.2c3.1,0,5.8-1.3,7.8-3.5l3.9,3.9
			c0.2,0.2,0.5,0.3,0.7,0.3c0.3,0,0.5-0.1,0.7-0.3C24.1,22,24.1,21.4,23.7,21z"/>
	</g>
</g>
<g id="Outline_Icons">
	<g>
		<polyline class="st2" points="20.1,3.9 15.2,2.9 15.7,7.9 		"/>
		<polyline class="st2" points="0.5,18.1 5.3,19.1 4.8,14.1 		"/>
		<path class="st2" d="M15.3,2.9c2.7,1.7,4.5,4.7,4.5,8.1c0,5.2-4.3,9.5-9.5,9.5c-0.7,0-1.4-0.1-2-0.2"/>
		<path class="st2" d="M5.3,19.1c-2.7-1.7-4.5-4.7-4.5-8.1c0-5.2,4.3-9.5,9.5-9.5c0.7,0,1.4,0.1,2,0.2"/>
		<line class="st2" x1="17.9" y1="16.6" x2="23.5" y2="22.2"/>
	</g>
</g>
</svg>
