<?xml version="1.0" encoding="utf-8"?>
<!-- Generator: Adobe Illustrator 19.2.0, SVG Export Plug-In . SVG Version: 6.00 Build 0)  -->
<svg version="1.1" id="Layer_1" xmlns="http://www.w3.org/2000/svg" xmlns:xlink="http://www.w3.org/1999/xlink" x="0px" y="0px"
	 viewBox="0 0 24 24" style="enable-background:new 0 0 24 24;" xml:space="preserve">
<style type="text/css">
	.st0{display:none;}
	.st1{display:inline;}
	.st2{fill:none;stroke:#000000;stroke-linecap:round;stroke-linejoin:round;stroke-miterlimit:10;}
</style>
<g id="Filled_Icons" class="st0">
	<g class="st1">
		<path d="M23.8,14l-2.4-4.2c0-0.1-0.1-0.1-0.1-0.2c-0.2-0.2-0.4-0.3-0.6-0.3c-0.3,0-0.6,0.1-0.9,0.4l-3.2,3.8
			c-0.4,0.4-0.3,1.1,0.1,1.4c0.4,0.4,1.1,0.3,1.4-0.1l1.5-1.7c-0.6,2.8-2.8,5.3-5.8,6c-2.5,0.6-5.1-0.1-7-2c-0.4-0.4-1-0.4-1.4,0
			c-0.4,0.4-0.4,1,0,1.4c1.8,1.8,4.2,2.8,6.7,2.8c0.7,0,1.5-0.1,2.2-0.3c3.6-0.8,6.4-3.8,7.2-7.2l0.7,1.2c0.2,0.3,0.5,0.5,0.9,0.5
			c0.2,0,0.3,0,0.5-0.1C24,15.1,24.1,14.5,23.8,14z"/>
		<path d="M7.4,9.7C7,9.3,6.3,9.4,6,9.8l-1.7,2.1c0-1.3,0.4-2.5,1.1-3.7c1.1-1.9,2.9-3.2,5-3.7c2.7-0.6,5.5,0.3,7.3,2.3
			c0.4,0.4,1,0.5,1.4,0.1c0.4-0.4,0.5-1,0.1-1.4c-2.3-2.6-5.9-3.8-9.3-3C7.3,3.1,5,4.8,3.6,7.1c-0.6,1-1,2.2-1.2,3.3L1.8,9.5
			C1.5,9,0.9,8.9,0.5,9.1C0,9.4-0.2,10,0.1,10.5l2.6,4.3c0.2,0.3,0.5,0.5,0.8,0.5c0,0,0.1,0,0.1,0c0.3,0,0.6-0.1,0.8-0.4l3.2-3.8
			C7.9,10.6,7.8,10,7.4,9.7z"/>
	</g>
</g>
<g id="Outline_Icons">
	<g>
		<polyline class="st2" points="0.9,10.2 3.7,14.3 6.9,10.5 		"/>
		<polyline class="st2" points="23.5,14.5 20.7,10.3 17.5,14.2 		"/>
		<path class="st2" d="M20.7,10.4c0.8,4.4-2.3,8.7-6.5,9.7c-3,0.7-5.9-0.2-7.9-2.2"/>
		<path class="st2" d="M3.7,14.3c-1.3-4.9,2-9.7,6.5-10.8c3.2-0.7,6.3,0.4,8.3,2.6"/>
	</g>
</g>
</svg>
