<?xml version="1.0" encoding="utf-8"?>
<!-- Generator: Adobe Illustrator 19.2.0, SVG Export Plug-In . SVG Version: 6.00 Build 0)  -->
<svg version="1.1" id="Layer_1" xmlns="http://www.w3.org/2000/svg" xmlns:xlink="http://www.w3.org/1999/xlink" x="0px" y="0px"
	 viewBox="0 0 24 24" style="enable-background:new 0 0 24 24;" xml:space="preserve">
<style type="text/css">
	.st0{display:none;}
	.st1{display:inline;}
	.st2{fill:none;stroke:#000000;stroke-linecap:round;stroke-linejoin:round;stroke-miterlimit:10;}
</style>
<g id="Filled_Icons" class="st0">
	<g class="st1">
		<path d="M23.2,13.6l-2.6-3.9c-0.2-0.3-0.5-0.4-0.8-0.4c-0.3,0-0.6,0.1-0.8,0.4l-3,3.6c-0.4,0.4-0.3,1.1,0.1,1.4
			c0.4,0.4,1.1,0.3,1.4-0.1l1.2-1.4c-0.6,2.6-2.6,4.7-5.3,5.3C11,19,8.6,18.4,6.8,16.6c-0.4-0.4-1-0.4-1.4,0c-0.4,0.4-0.4,1,0,1.4
			c1.7,1.7,4,2.6,6.3,2.6c0.7,0,1.4-0.1,2.1-0.2c3.6-0.8,6.2-3.6,6.9-7l0.9,1.3c0.2,0.3,0.5,0.4,0.8,0.4c0.2,0,0.4-0.1,0.6-0.2
			C23.4,14.7,23.5,14.1,23.2,13.6z"/>
		<path d="M7.4,9.6C7,9.3,6.4,9.4,6,9.8l-1.4,1.7C4.7,10.3,5,9.2,5.7,8.1c1-1.7,2.7-2.9,4.5-3.3c2.5-0.6,5.1,0.2,6.9,2.2
			c0.4,0.4,1,0.5,1.4,0.1c0.4-0.4,0.5-1,0.1-1.4c-2.2-2.5-5.6-3.6-8.8-2.8C7.4,3.5,5.3,5,4,7.1c-0.7,1.1-1.1,2.3-1.3,3.5L2,9.6
			C1.7,9.1,1,9,0.6,9.3C0.1,9.6,0,10.2,0.3,10.7l2.6,3.9C3.1,14.8,3.4,15,3.7,15c0,0,0,0,0.1,0c0.2,0,0.4-0.1,0.6-0.2
			c0.1-0.1,0.2-0.2,0.3-0.3l2.9-3.5C7.9,10.6,7.8,10,7.4,9.6z"/>
		<path d="M11.8,14.6c3.8,0,3.8-5.8,0-5.8C7.9,8.8,7.9,14.6,11.8,14.6z"/>
	</g>
</g>
<g id="Outline_Icons">
	<g>
		<polyline class="st2" points="0.9,9.7 3.7,13.8 6.9,10 		"/>
		<polyline class="st2" points="23.5,14 20.7,9.8 17.5,13.7 		"/>
		<path class="st2" d="M20.7,9.9c0.8,4.5-2.3,8.7-6.5,9.7c-3,0.7-5.9-0.2-7.9-2.2"/>
		<path class="st2" d="M3.7,13.8c-1.2-4.9,2-9.6,6.6-10.7c3.2-0.7,6.3,0.4,8.3,2.6"/>
		<circle class="st2" cx="12.2" cy="11.3" r="2"/>
	</g>
</g>
</svg>
