<?xml version="1.0" encoding="utf-8"?>
<!-- Generator: Adobe Illustrator 19.2.0, SVG Export Plug-In . SVG Version: 6.00 Build 0)  -->
<svg version="1.1" id="Layer_1" xmlns="http://www.w3.org/2000/svg" xmlns:xlink="http://www.w3.org/1999/xlink" x="0px" y="0px"
	 viewBox="0 0 24 24" style="enable-background:new 0 0 24 24;" xml:space="preserve">
<style type="text/css">
	.st0{display:none;}
	.st1{display:inline;}
	.st2{fill:none;stroke:#000000;stroke-linecap:round;stroke-linejoin:round;stroke-miterlimit:10;}
</style>
<g id="Filled_Icons" class="st0">
	<g class="st1">
		<path d="M23.8,14.6L21,10.4c-0.2-0.3-0.5-0.4-0.8-0.4c-0.3,0-0.6,0.1-0.8,0.4l-3.2,3.8c-0.4,0.4-0.3,1.1,0.1,1.4
			c0.4,0.4,1.1,0.3,1.4-0.1l1.4-1.7c-0.6,2.8-2.8,5.3-5.7,6c-2.5,0.6-5.1-0.1-7-2c-0.4-0.4-1-0.4-1.4,0c-0.4,0.4-0.4,1,0,1.4
			C6.8,21,9.2,22,11.7,22c0.7,0,1.5-0.1,2.2-0.3c3.8-0.9,6.6-4,7.2-7.6l1,1.5c0.2,0.3,0.5,0.4,0.8,0.4c0.2,0,0.4-0.1,0.6-0.2
			C24,15.7,24.1,15.1,23.8,14.6z"/>
		<path d="M7.8,10.8c0.4-0.4,0.3-1.1-0.1-1.4C7.2,9,6.6,9.1,6.2,9.5l-1.7,2.1c0-1.3,0.4-2.5,1.1-3.7c1.1-1.9,2.9-3.2,5-3.7
			c2.7-0.6,5.5,0.3,7.3,2.3c0.4,0.4,1,0.5,1.4,0.1c0.4-0.4,0.5-1,0.1-1.4c-2.3-2.6-5.9-3.8-9.3-2.9C7.5,2.9,5.3,4.5,3.9,6.9
			C3.2,8,2.8,9.2,2.6,10.4L1.8,9.3C1.5,8.8,0.9,8.7,0.4,9C0,9.3-0.1,9.9,0.2,10.4L3,14.6C3.1,14.8,3.4,15,3.7,15c0,0,0,0,0.1,0
			c0.2,0,0.4-0.1,0.6-0.2c0,0,0,0,0,0c0,0,0.1-0.1,0.1-0.1L7.8,10.8z"/>
		<path d="M13,7c0-0.6-0.4-1-1-1c-0.6,0-1,0.4-1,1v7c0,0.6,0.4,1,1,1c0.6,0,1-0.4,1-1V7z"/>
		<circle cx="12" cy="16.5" r="1"/>
	</g>
</g>
<g id="Outline_Icons">
	<g>
		<g>
			<polyline class="st2" points="0.7,10.1 3.5,14.3 6.7,10.5 			"/>
			<polyline class="st2" points="23.3,14.4 20.5,10.3 17.3,14.1 			"/>
			<path class="st2" d="M20.5,10.3c0.8,4.4-2.3,8.7-6.5,9.7C11,20.8,8,19.8,6,17.8"/>
			<path class="st2" d="M3.5,14.3C2.2,9.4,5.5,4.6,10,3.5c3.2-0.7,6.3,0.4,8.3,2.6"/>
		</g>
		<line class="st2" x1="11.5" y1="6" x2="11.5" y2="13"/>
		<circle class="st2" cx="11.5" cy="15.5" r="0.5"/>
	</g>
</g>
</svg>
