<?xml version="1.0" encoding="utf-8"?>
<!-- Generator: Adobe Illustrator 19.2.0, SVG Export Plug-In . SVG Version: 6.00 Build 0)  -->
<svg version="1.1" id="Layer_1" xmlns="http://www.w3.org/2000/svg" xmlns:xlink="http://www.w3.org/1999/xlink" x="0px" y="0px"
	 viewBox="0 0 24 24" style="enable-background:new 0 0 24 24;" xml:space="preserve">
<style type="text/css">
	.st0{display:none;}
	.st1{display:inline;}
	.st2{fill:none;stroke:#000000;stroke-linecap:round;stroke-linejoin:round;stroke-miterlimit:10;}
</style>
<g id="Filled_Icons" class="st0">
	<path class="st1" d="M20.6,4.1c-2.1-1.9-4.7-2.9-7.5-2.8c-2.9,0.1-5.5,1.3-7.4,3.4c-1.4,1.5-2.2,3.4-2.6,5.5l-1.3-2
		C1.5,7.8,0.9,7.6,0.4,8C0,8.3-0.1,8.9,0.2,9.3l3,4.5c0.4,0.5,1.2,0.6,1.6,0.1l3.5-4c0.4-0.4,0.3-1-0.1-1.4c-0.4-0.4-1-0.3-1.4,0.1
		l-1.6,1.8c0.3-1.7,1-3.2,2.1-4.4c1.5-1.7,3.6-2.7,6-2.8c2.3-0.1,4.4,0.7,6.1,2.3c1.7,1.5,2.6,3.6,2.7,5.9c0.1,2.3-0.7,4.4-2.3,6.1
		c-1.5,1.7-3.6,2.6-5.9,2.7c-0.6,0-1,0.5-1,1c0,0.5,0.5,1,1,1c0,0,0,0,0,0c2.8-0.1,5.4-1.3,7.3-3.3c1.9-2.1,2.9-4.7,2.8-7.5
		C23.9,8.6,22.7,6,20.6,4.1z"/>
	<circle class="st1" cx="13.5" cy="11.5" r="2.5"/>
</g>
<g id="Outline_Icons">
	<g>
		<g>
			<polyline class="st2" points="1.5,8.8 4.5,13.3 8,9.3 			"/>
			<path class="st2" d="M4.5,13.3C4,6.9,8.4,2.5,13.7,2.3c5.2-0.2,9.7,3.9,9.8,9.1c0.2,5.2-3.9,9.6-9.1,9.8"/>
		</g>
		<circle class="st2" cx="14" cy="11.5" r="2"/>
	</g>
</g>
</svg>
