<?xml version="1.0" encoding="utf-8"?>
<!-- Generator: Adobe Illustrator 19.2.0, SVG Export Plug-In . SVG Version: 6.00 Build 0)  -->
<svg version="1.1" id="Layer_1" xmlns="http://www.w3.org/2000/svg" xmlns:xlink="http://www.w3.org/1999/xlink" x="0px" y="0px"
	 viewBox="0 0 24 24" style="enable-background:new 0 0 24 24;" xml:space="preserve">
<style type="text/css">
	.st0{display:none;}
	.st1{display:inline;}
	.st2{fill:none;stroke:#000000;stroke-linecap:round;stroke-linejoin:round;stroke-miterlimit:10;}
	.st3{fill:none;stroke:#000000;stroke-linejoin:round;stroke-miterlimit:10;}
</style>
<g id="Filled_Icons" class="st0">
	<path class="st1" d="M19,5h-4.5V1H16c0.3,0,0.5-0.2,0.5-0.5S16.3,0,16,0H9C8.7,0,8.5,0.2,8.5,0.5S8.7,1,9,1h1.5v4H6
		C5.7,5,5.5,5.2,5.5,5.5S5.7,6,6,6h2.5v2H11c0.3,0,0.5,0.2,0.5,0.5S11.3,9,11,9H8.5v1H11c0.3,0,0.5,0.2,0.5,0.5S11.3,11,11,11H8.5v1
		H11c0.3,0,0.5,0.2,0.5,0.5c0,0.3-0.2,0.5-0.5,0.5H8.5v2.5c0,2.3,1.5,4.2,3.5,4.5v3.5c0,0.3,0.2,0.5,0.5,0.5c0.3,0,0.5-0.2,0.5-0.5
		V20c2-0.3,3.5-2.2,3.5-4.5V6H19c0.3,0,0.5-0.2,0.5-0.5C19.5,5.2,19.3,5,19,5z"/>
</g>
<g id="Outline_Icons">
	<g>
		<line class="st2" x1="12.5" y1="19.5" x2="12.5" y2="23.5"/>
		<line class="st2" x1="9.5" y1="0.5" x2="15.5" y2="0.5"/>
		<line class="st2" x1="9.5" y1="8.5" x2="11" y2="8.5"/>
		<line class="st2" x1="9.5" y1="10.5" x2="11" y2="10.5"/>
		<line class="st2" x1="9.5" y1="12.5" x2="11" y2="12.5"/>
		<path class="st3" d="M9.5,5.5v10c0,2.2,1.1,4,3,4c1.9,0,3-1.8,3-4v-10H9.5z"/>
		<rect x="11.5" y="0.5" class="st3" width="2" height="5"/>
		<line class="st2" x1="6.5" y1="5.5" x2="18.5" y2="5.5"/>
	</g>
</g>
</svg>
