<?xml version="1.0" encoding="utf-8"?>
<!-- Generator: Adobe Illustrator 19.2.0, SVG Export Plug-In . SVG Version: 6.00 Build 0)  -->
<svg version="1.1" id="Layer_1" xmlns="http://www.w3.org/2000/svg" xmlns:xlink="http://www.w3.org/1999/xlink" x="0px" y="0px"
	 viewBox="0 0 24 24" style="enable-background:new 0 0 24 24;" xml:space="preserve">
<style type="text/css">
	.st0{display:none;}
	.st1{display:inline;}
	.st2{fill:none;stroke:#000000;stroke-linecap:round;stroke-linejoin:round;stroke-miterlimit:10;}
</style>
<g id="Filled_Icons" class="st0">
	<path class="st1" d="M23.9,8.7l-4-4c-1-1-2.4-1.6-3.9-1.6H8.1C6.6,3,5.2,3.6,4.2,4.6l-4,4C0,8.8,0,9.2,0.1,9.4l3,3
		c0.2,0.2,0.5,0.2,0.7,0L6,10.7v10.8C6,21.8,6.2,22,6.5,22h11c0.3,0,0.5-0.2,0.5-0.5V10.7l2.1,1.6c0.2,0.2,0.5,0.2,0.7,0l3-3
		C23.9,9.3,24,9.1,24,9C24,8.9,23.9,8.7,23.9,8.7z M12,6c-1.2,0-2.2-0.9-2.4-2h4.9C14.2,5.1,13.2,6,12,6z"/>
</g>
<g id="Outline_Icons">
	<g>
		<path class="st2" d="M12,21.5h5.5v-12l3,2.5l3-3l-4-4c-0.9-0.9-2.2-1.5-3.5-1.5H12H8.1C6.7,3.5,5.5,4,4.5,5l-4,4l3,3l3-2.5v12H12z
			"/>
		<path class="st2" d="M15,3.5c0,1.7-1.3,3-3,3c-1.7,0-3-1.3-3-3"/>
	</g>
</g>
</svg>
