<?xml version="1.0" encoding="utf-8"?>
<!-- Generator: Adobe Illustrator 19.2.0, SVG Export Plug-In . SVG Version: 6.00 Build 0)  -->
<svg version="1.1" id="Layer_1" xmlns="http://www.w3.org/2000/svg" xmlns:xlink="http://www.w3.org/1999/xlink" x="0px" y="0px"
	 viewBox="0 0 24 24" style="enable-background:new 0 0 24 24;" xml:space="preserve">
<style type="text/css">
	.st0{display:none;}
	.st1{display:inline;}
	.st2{fill:none;stroke:#000000;stroke-linecap:round;stroke-linejoin:round;stroke-miterlimit:10;}
	.st3{fill:none;stroke:#000000;stroke-linejoin:round;stroke-miterlimit:10;}
</style>
<g id="Filled_Icons" class="st0">
	<path class="st1" d="M18.5,0h-13C4.1,0,3,1.1,3,2.5v19C3,22.9,4.1,24,5.5,24h13c1.4,0,2.5-1.1,2.5-2.5v-19C21,1.1,19.9,0,18.5,0z
		 M12,1.5c0.3,0,0.5,0.2,0.5,0.5c0,0.3-0.2,0.5-0.5,0.5c-0.3,0-0.5-0.2-0.5-0.5C11.5,1.7,11.7,1.5,12,1.5z M12,22.5
		c-0.6,0-1-0.4-1-1c0-0.6,0.4-1,1-1c0.6,0,1,0.4,1,1C13,22.1,12.6,22.5,12,22.5z M19,19.5c0,0.3-0.2,0.5-0.5,0.5h-13
		C5.2,20,5,19.8,5,19.5v-16C5,3.2,5.2,3,5.5,3h13C18.8,3,19,3.2,19,3.5V19.5z"/>
</g>
<g id="Outline_Icons">
	<g>
		<path class="st2" d="M20.5,21.5c0,1.1-0.9,2-2,2h-13c-1.1,0-2-0.9-2-2v-19c0-1.1,0.9-2,2-2h13c1.1,0,2,0.9,2,2V21.5z"/>
		<rect x="5.5" y="3.5" class="st2" width="13" height="16"/>
		<g>
			<g>
				<g>
					<path d="M12,1.5c-0.3,0-0.5,0.2-0.5,0.5c0,0.3,0.2,0.5,0.5,0.5c0.3,0,0.5-0.2,0.5-0.5C12.5,1.7,12.3,1.5,12,1.5L12,1.5z"/>
				</g>
			</g>
		</g>
		<path class="st3" d="M12.5,21.5c0,0.3-0.2,0.5-0.5,0.5l0,0c-0.3,0-0.5-0.2-0.5-0.5l0,0c0-0.3,0.2-0.5,0.5-0.5l0,0
			C12.3,21,12.5,21.2,12.5,21.5L12.5,21.5z"/>
	</g>
</g>
</svg>
