<?xml version="1.0" encoding="utf-8"?>
<!-- Generator: Adobe Illustrator 19.2.0, SVG Export Plug-In . SVG Version: 6.00 Build 0)  -->
<svg version="1.1" id="Layer_1" xmlns="http://www.w3.org/2000/svg" xmlns:xlink="http://www.w3.org/1999/xlink" x="0px" y="0px"
	 viewBox="0 0 24 24" style="enable-background:new 0 0 24 24;" xml:space="preserve">
<style type="text/css">
	.st0{display:none;}
	.st1{display:inline;}
	.st2{fill:none;stroke:#000000;stroke-linejoin:round;stroke-miterlimit:10;}
</style>
<g id="Filled_Icons" class="st0">
	<path class="st1" d="M12,0C5.5,0,2,8.1,2,14c0,5.9,4.1,10,10,10c5.9,0,10-4.1,10-10C22,7.3,18.2,0,12,0z M8,20c-0.6,0-1-0.4-1-1
		c0-0.6,0.4-1,1-1s1,0.4,1,1C9,19.6,8.6,20,8,20z M12,21c-0.6,0-1-0.4-1-1c0-0.6,0.4-1,1-1c0.6,0,1,0.4,1,1C13,20.6,12.6,21,12,21z
		 M16,20c-0.6,0-1-0.4-1-1c0-0.6,0.4-1,1-1c0.6,0,1,0.4,1,1C17,19.6,16.6,20,16,20z M18,16.5c0,0.3-0.2,0.5-0.5,0.5h-11
		C6.2,17,6,16.8,6,16.5v-9C6,7.2,6.2,7,6.5,7h11C17.8,7,18,7.2,18,7.5V16.5z"/>
</g>
<g id="Outline_Icons">
	<g>
		<path class="st2" d="M21.5,14c0,6-4.3,9.5-9.5,9.5S2.5,20,2.5,14C2.5,8,6,0.5,12,0.5S21.5,8,21.5,14z"/>
		<rect x="6.5" y="7.5" class="st2" width="11" height="9"/>
		<circle class="st2" cx="8" cy="19" r="0.5"/>
		<circle class="st2" cx="12" cy="20" r="0.5"/>
		<circle class="st2" cx="16" cy="19" r="0.5"/>
	</g>
</g>
</svg>
