<?xml version="1.0" encoding="utf-8"?>
<!-- Generator: Adobe Illustrator 19.2.0, SVG Export Plug-In . SVG Version: 6.00 Build 0)  -->
<svg version="1.1" id="Layer_1" xmlns="http://www.w3.org/2000/svg" xmlns:xlink="http://www.w3.org/1999/xlink" x="0px" y="0px"
	 viewBox="0 0 24 24" style="enable-background:new 0 0 24 24;" xml:space="preserve">
<style type="text/css">
	.st0{display:none;}
	.st1{display:inline;}
	.st2{fill:none;stroke:#000000;stroke-linejoin:round;stroke-miterlimit:10;}
</style>
<g id="Filled_Icons" class="st0">
	<g class="st1">
		<path d="M0.5,17.3c0.9-1.9,2.8-3.2,5-3.2h13c2.1,0,3.9,1.1,4.8,2.8l0.6-1.1c0.1-0.2,0.1-0.5-0.1-0.6l-5-4C18.7,11,18.6,11,18.5,11
			h-18C0.2,11,0,11.2,0,11.5c0,0.1,0,3.5,0,3.6L0.5,17.3z"/>
		<path d="M18.5,15h-13C3,15,1,17,1,19.5C1,22,3,24,5.5,24h13c2.5,0,4.5-2,4.5-4.5C23,17,21,15,18.5,15z M5.5,22
			C4.1,22,3,20.9,3,19.5S4.1,17,5.5,17S8,18.1,8,19.5S6.9,22,5.5,22z M12,22c-1.4,0-2.5-1.1-2.5-2.5S10.6,17,12,17s2.5,1.1,2.5,2.5
			S13.4,22,12,22z M18.5,22c-1.4,0-2.5-1.1-2.5-2.5s1.1-2.5,2.5-2.5s2.5,1.1,2.5,2.5S19.9,22,18.5,22z"/>
		<g>
			<path d="M23.8,6.6c-0.1-0.1-0.3-0.1-0.4-0.1l-2,0.5C21.2,7.1,21,7.3,21,7.5l0,0h-4.2l-1.9-2.8c-0.1-0.1-0.2-0.2-0.4-0.2H6.6
				L3.1,3.7c-0.1,0-0.3,0-0.4,0.1C2.6,3.9,2.5,4,2.5,4.1L2,7.1c0,0.2,0.1,0.5,0.3,0.5l2.8,1.2L5.3,10h10.5l1-1.5H21
				c0,0.2,0.2,0.4,0.4,0.5l2,0.5c0.1,0,0.3,0,0.4-0.1C23.9,9.3,24,9.2,24,9V7C24,6.9,23.9,6.7,23.8,6.6z"/>
		</g>
		<path d="M12,3.5v-1C12,2.2,11.8,2,11.5,2h-4C7.2,2,7,2.2,7,2.5v1H12z"/>
	</g>
</g>
<g id="Outline_Icons">
	<g>
		<path class="st2" d="M1.5,19.5c0,2.2,1.8,4,4,4h13c2.2,0,4-1.8,4-4s-1.8-4-4-4h-13C3.3,15.5,1.5,17.3,1.5,19.5z"/>
		<circle class="st2" cx="5.5" cy="19.5" r="2"/>
		<circle class="st2" cx="12" cy="19.5" r="2"/>
		<circle class="st2" cx="18.5" cy="19.5" r="2"/>
		<polyline class="st2" points="1.5,19.5 0.5,15 0.5,11.5 18.5,11.5 23.5,15.5 22.1,17.8 		"/>
		<polyline class="st2" points="14.5,11.5 16.5,8.5 14.5,5.5 6.5,5.5 3,4.7 2.5,7.7 5.5,9 6,11.5 		"/>
		<polyline class="st2" points="7.5,5.5 7.5,3.5 11.5,3.5 11.5,5.5 		"/>
		<line class="st2" x1="16.5" y1="8.5" x2="21.5" y2="8.5"/>
		<polygon class="st2" points="21.5,8 23.5,7.5 23.5,9.5 21.5,9 		"/>
	</g>
</g>
</svg>
