<?xml version="1.0" encoding="utf-8"?>
<!-- Generator: Adobe Illustrator 19.2.0, SVG Export Plug-In . SVG Version: 6.00 Build 0)  -->
<svg version="1.1" id="Layer_1" xmlns="http://www.w3.org/2000/svg" xmlns:xlink="http://www.w3.org/1999/xlink" x="0px" y="0px"
	 viewBox="0 0 24 24" style="enable-background:new 0 0 24 24;" xml:space="preserve">
<style type="text/css">
	.st0{display:none;}
	.st1{display:inline;}
	.st2{fill:none;stroke:#000000;stroke-linecap:round;stroke-linejoin:round;stroke-miterlimit:10;}
</style>
<g id="Filled_Icon" class="st0">
	<g class="st1">
		<path d="M7,7c-2.2,0-4,1.8-4,4v9.5C3,20.8,3.2,21,3.5,21h7c0.3,0,0.5-0.2,0.5-0.5V11C11,8.8,9.2,7,7,7z M9,12.5
			C9,12.8,8.8,13,8.5,13h-3C5.2,13,5,12.8,5,12.5V11c0-1.1,0.9-2,2-2s2,0.9,2,2V12.5z"/>
		<path d="M7,4c-3.9,0-7,3.1-7,7c0,1.3,0.4,2.6,1.1,3.7c0.1,0.2,0.5,0.3,0.7,0.2s0.3-0.5,0.2-0.7c-0.7-1-1-2.1-1-3.2
			c0-3.3,2.7-6,6-6s6,2.7,6,6c0,1.1-0.3,2.2-0.9,3.2c-0.1,0.2-0.1,0.5,0.2,0.7c0.1,0.1,0.2,0.1,0.3,0.1c0.2,0,0.3-0.1,0.4-0.2
			c0.7-1.1,1.1-2.4,1.1-3.7C14,7.1,10.9,4,7,4z"/>
		<path d="M23.9,9.2l-2-2.5c-0.2-0.2-0.5-0.3-0.7-0.1C21,6.8,21,7.1,21.1,7.3L22.5,9h-7C15.2,9,15,9.2,15,9.5s0.2,0.5,0.5,0.5h7
			l-1.3,1.7c-0.2,0.2-0.1,0.5,0.1,0.7c0.1,0.1,0.2,0.1,0.3,0.1c0.1,0,0.3-0.1,0.4-0.2l2-2.5C24,9.6,24,9.4,23.9,9.2z"/>
	</g>
</g>
<g id="Outline_Icons">
	<g>
		<polyline class="st2" points="21.5,12 23.5,9.5 21.5,7 		"/>
		<path class="st2" d="M1.5,14.4c-0.6-1-1-2.2-1-3.4c0-3.6,2.9-6.5,6.5-6.5s6.5,2.9,6.5,6.5c0,1.3-0.4,2.5-1,3.5"/>
		<path class="st2" d="M3.5,20.5V11c0-1.9,1.6-3.5,3.5-3.5s3.5,1.6,3.5,3.5v9.5"/>
		<path class="st2" d="M8.5,11c0-0.8-0.7-1.5-1.5-1.5S5.5,10.2,5.5,11v1.5h3V11z"/>
		<line class="st2" x1="15.5" y1="9.5" x2="23.5" y2="9.5"/>
	</g>
</g>
</svg>
