<?xml version="1.0" encoding="utf-8"?>
<!-- Generator: Adobe Illustrator 19.2.0, SVG Export Plug-In . SVG Version: 6.00 Build 0)  -->
<svg version="1.1" id="Layer_1" xmlns="http://www.w3.org/2000/svg" xmlns:xlink="http://www.w3.org/1999/xlink" x="0px" y="0px"
	 viewBox="0 0 24 24" style="enable-background:new 0 0 24 24;" xml:space="preserve">
<style type="text/css">
	.st0{display:none;}
	.st1{display:inline;}
	.st2{fill:none;stroke:#000000;stroke-linecap:round;stroke-linejoin:round;stroke-miterlimit:10;}
</style>
<g id="Filled_Icon" class="st0">
	<g class="st1">
		<path d="M13,10c-1.3,0-2.6,0.4-3.7,1.1C9,11.2,9,11.5,9.1,11.8C9.2,12,9.6,12.1,9.8,12c1-0.6,2.1-0.9,3.2-0.9c3.3,0,6,2.7,6,6
			s-2.7,6-6,6c-1.1,0-2.2-0.3-3.2-0.9c-0.2-0.1-0.5-0.1-0.7,0.2C9,22.6,9,22.9,9.3,23.1c1.1,0.7,2.4,1.1,3.7,1.1c3.9,0,7-3.1,7-7
			C20,13.1,16.9,10,13,10z"/>
		<path d="M17,17c0-2.2-1.8-4-4-4H3.5C3.2,13,3,13.2,3,13.5v7C3,20.8,3.2,21,3.5,21H13C15.2,21,17,19.2,17,17z M11,18.5v-3
			c0-0.3,0.2-0.5,0.5-0.5H13c1.1,0,2,0.9,2,2s-0.9,2-2,2h-1.5C11.2,19,11,18.8,11,18.5z"/>
		<path d="M12.3,2.9L14,1.5v7C14,8.8,14.2,9,14.5,9S15,8.8,15,8.5v-7l1.7,1.4C16.8,3,16.9,3,17,3s0.3-0.1,0.4-0.2
			c0.2-0.2,0.1-0.5-0.1-0.7l-2.5-2C14.7,0,14.6,0,14.5,0l0,0l0,0c-0.1,0-0.2,0.1-0.3,0.1l-2.5,2c-0.2,0.2-0.3,0.5-0.1,0.7
			C11.8,3,12.1,3.1,12.3,2.9z"/>
	</g>
</g>
<g id="Outline_Icons">
	<g>
		<polyline class="st2" points="12,2.5 14.5,0.5 17,2.5 		"/>
		<path class="st2" d="M9.6,22.5c1,0.6,2.2,1,3.4,1c3.6,0,6.5-2.9,6.5-6.5s-2.9-6.5-6.5-6.5c-1.3,0-2.5,0.4-3.5,1"/>
		<path class="st2" d="M3.5,20.5H13c1.9,0,3.5-1.6,3.5-3.5s-1.6-3.5-3.5-3.5H3.5"/>
		<path class="st2" d="M13,15.5c0.8,0,1.5,0.7,1.5,1.5s-0.7,1.5-1.5,1.5h-1.5v-3H13z"/>
		<line class="st2" x1="14.5" y1="8.5" x2="14.5" y2="0.5"/>
	</g>
</g>
</svg>
