<?xml version="1.0" encoding="utf-8"?>
<!-- Generator: Adobe Illustrator 19.2.0, SVG Export Plug-In . SVG Version: 6.00 Build 0)  -->
<svg version="1.1" id="Outline_Icons" xmlns="http://www.w3.org/2000/svg" xmlns:xlink="http://www.w3.org/1999/xlink" x="0px"
	 y="0px" viewBox="0 0 24 24" style="enable-background:new 0 0 24 24;" xml:space="preserve">
<style type="text/css">
	.st0{fill:none;stroke:#000000;stroke-linecap:round;stroke-linejoin:round;stroke-miterlimit:10;}
</style>
<g>
	<path class="st0" d="M8.5,21.5V12c0-1.9,1.6-3.5,3.5-3.5s3.5,1.6,3.5,3.5v9.5"/>
	<path class="st0" d="M6.5,15.4c-0.6-1-1-2.2-1-3.4c0-3.6,2.9-6.5,6.5-6.5s6.5,2.9,6.5,6.5c0,1.3-0.4,2.5-1,3.5"/>
	<path class="st0" d="M5,18.4c-1.6-1.7-2.5-3.9-2.5-6.4c0-5.2,4.3-9.5,9.5-9.5s9.5,4.3,9.5,9.5c0,2.5-0.9,4.7-2.5,6.4"/>
	<path class="st0" d="M13.5,12c0-0.8-0.7-1.5-1.5-1.5s-1.5,0.7-1.5,1.5v1.5h3V12z"/>
</g>
</svg>
