<?xml version="1.0" encoding="utf-8"?>
<!-- Generator: Adobe Illustrator 19.2.0, SVG Export Plug-In . SVG Version: 6.00 Build 0)  -->
<svg version="1.1" id="Layer_1" xmlns="http://www.w3.org/2000/svg" xmlns:xlink="http://www.w3.org/1999/xlink" x="0px" y="0px"
	 viewBox="0 0 24 24" style="enable-background:new 0 0 24 24;" xml:space="preserve">
<style type="text/css">
	.st0{display:none;}
	.st1{display:inline;}
	.st2{fill:none;stroke:#000000;stroke-linecap:round;stroke-linejoin:round;stroke-miterlimit:10;}
</style>
<g id="Filled_Icon" class="st0">
	<g class="st1">
		<path d="M16.7,21.1L15,22.5v-7c0-0.3-0.2-0.5-0.5-0.5S14,15.2,14,15.5v7l-1.7-1.3c-0.2-0.2-0.5-0.1-0.7,0.1s-0.1,0.5,0.1,0.7
			l2.5,2c0.1,0.1,0.2,0.1,0.3,0.1s0.2,0,0.3-0.1l2.5-2c0.2-0.2,0.2-0.5,0.1-0.7C17.2,21,16.9,20.9,16.7,21.1z"/>
		<path d="M13,0c-1.3,0-2.6,0.4-3.7,1.1C9.1,1.2,9,1.5,9.1,1.8C9.3,2,9.6,2.1,9.8,1.9C10.8,1.3,11.9,1,13,1c3.3,0,6,2.7,6,6
			s-2.7,6-6,6c-1.1,0-2.2-0.3-3.2-0.9C9.6,12,9.3,12,9.1,12.3C9,12.5,9,12.8,9.3,12.9c1.1,0.7,2.4,1.1,3.7,1.1c3.9,0,7-3.1,7-7
			S16.9,0,13,0z"/>
		<path d="M17,7c0-2.2-1.8-4-4-4H3.5C3.2,3,3,3.2,3,3.5v7C3,10.8,3.2,11,3.5,11H13C15.2,11,17,9.2,17,7z M11,8.5v-3
			C11,5.2,11.2,5,11.5,5H13c1.1,0,2,0.9,2,2s-0.9,2-2,2h-1.5C11.2,9,11,8.8,11,8.5z"/>
	</g>
</g>
<g id="Outline_Icons">
	<g>
		<polyline class="st2" points="12,21.5 14.5,23.5 17,21.5 		"/>
		<path class="st2" d="M9.6,1.5c1-0.6,2.2-1,3.4-1c3.6,0,6.5,2.9,6.5,6.5s-2.9,6.5-6.5,6.5c-1.3,0-2.5-0.4-3.5-1"/>
		<path class="st2" d="M3.5,3.5H13c1.9,0,3.5,1.6,3.5,3.5s-1.6,3.5-3.5,3.5H3.5"/>
		<path class="st2" d="M13,8.5c0.8,0,1.5-0.7,1.5-1.5S13.8,5.5,13,5.5h-1.5v3H13z"/>
		<line class="st2" x1="14.5" y1="15.5" x2="14.5" y2="23.5"/>
	</g>
</g>
</svg>
