<?xml version="1.0" encoding="utf-8"?>
<!-- Generator: Adobe Illustrator 19.2.0, SVG Export Plug-In . SVG Version: 6.00 Build 0)  -->
<svg version="1.1" id="Outline_Icons" xmlns="http://www.w3.org/2000/svg" xmlns:xlink="http://www.w3.org/1999/xlink" x="0px"
	 y="0px" viewBox="0 0 24 24" style="enable-background:new 0 0 24 24;" xml:space="preserve">
<style type="text/css">
	.st0{fill:none;stroke:#000000;stroke-linecap:round;stroke-linejoin:round;stroke-miterlimit:10;}
</style>
<g>
	<line class="st0" x1="11.5" y1="0.5" x2="11.5" y2="4.5"/>
	<polyline class="st0" points="9,2.5 11.5,0.5 14,2.5 	"/>
	<line class="st0" x1="11.5" y1="23.5" x2="11.5" y2="19.5"/>
	<polyline class="st0" points="9,21.5 11.5,23.5 14,21.5 	"/>
	<line class="st0" x1="0.5" y1="11.5" x2="3.5" y2="11.5"/>
	<polyline class="st0" points="2.5,14 0.5,11.5 2.5,9 	"/>
	<line class="st0" x1="23.5" y1="11.5" x2="20.5" y2="11.5"/>
	<polyline class="st0" points="21.5,14 23.5,11.5 21.5,9 	"/>
	<path class="st0" d="M6.5,16.4c-0.6-1-1-2.2-1-3.4c0-3.6,2.9-6.5,6.5-6.5s6.5,2.9,6.5,6.5c0,1.3-0.4,2.5-1,3.5"/>
	<path class="st0" d="M8.5,17.5V13c0-1.9,1.6-3.5,3.5-3.5s3.5,1.6,3.5,3.5v4.5"/>
	<path class="st0" d="M13.5,13c0-0.8-0.7-1.5-1.5-1.5s-1.5,0.7-1.5,1.5v1.5h3V13z"/>
</g>
</svg>
