<?xml version="1.0" encoding="utf-8"?>
<!-- Generator: Adobe Illustrator 19.2.0, SVG Export Plug-In . SVG Version: 6.00 Build 0)  -->
<svg version="1.1" id="Layer_1" xmlns="http://www.w3.org/2000/svg" xmlns:xlink="http://www.w3.org/1999/xlink" x="0px" y="0px"
	 viewBox="0 0 24 24" style="enable-background:new 0 0 24 24;" xml:space="preserve">
<style type="text/css">
	.st0{display:none;}
	.st1{display:inline;}
	.st2{fill:none;stroke:#000000;stroke-linecap:round;stroke-linejoin:round;stroke-miterlimit:10;}
</style>
<g id="Filled_Icon" class="st0">
	<g class="st1">
		<path d="M17,7c-2.2,0-4,1.8-4,4v9.5c0,0.3,0.2,0.5,0.5,0.5h7c0.3,0,0.5-0.2,0.5-0.5V11C21,8.8,19.2,7,17,7z M19,12.5
			c0,0.3-0.2,0.5-0.5,0.5h-3c-0.3,0-0.5-0.2-0.5-0.5V11c0-1.1,0.9-2,2-2s2,0.9,2,2V12.5z"/>
		<path d="M8.5,9h-7l1.4-1.7C3.1,7.1,3,6.8,2.8,6.6C2.6,6.4,2.3,6.5,2.1,6.7l-2,2.5C0,9.3,0,9.6,0.1,9.8l2,2.5
			c0.1,0.1,0.2,0.2,0.4,0.2c0.1,0,0.2,0,0.3-0.1C3,12.2,3,11.9,2.9,11.7L1.5,10h7C8.8,10,9,9.8,9,9.5S8.8,9,8.5,9z"/>
		<path d="M17,4c-3.9,0-7,3.1-7,7c0,1.3,0.4,2.6,1.1,3.7c0.1,0.2,0.3,0.2,0.4,0.2c0.1,0,0.2,0,0.3-0.1c0.2-0.1,0.3-0.5,0.2-0.7
			c-0.6-1-0.9-2.1-0.9-3.2c0-3.3,2.7-6,6-6s6,2.7,6,6c0,1.1-0.3,2.2-0.9,3.2c-0.1,0.2-0.1,0.5,0.2,0.7c0.2,0.1,0.5,0.1,0.7-0.2
			c0.7-1.1,1.1-2.4,1.1-3.7C24,7.1,20.9,4,17,4z"/>
	</g>
</g>
<g id="Outline_Icons">
	<g>
		<polyline class="st2" points="2.5,12 0.5,9.5 2.5,7 		"/>
		<path class="st2" d="M22.5,14.4c0.6-1,1-2.2,1-3.4c0-3.6-2.9-6.5-6.5-6.5s-6.5,2.9-6.5,6.5c0,1.3,0.4,2.5,1,3.5"/>
		<path class="st2" d="M20.5,20.5V11c0-1.9-1.6-3.5-3.5-3.5s-3.5,1.6-3.5,3.5v9.5"/>
		<path class="st2" d="M15.5,11c0-0.8,0.7-1.5,1.5-1.5s1.5,0.7,1.5,1.5v1.5h-3V11z"/>
		<line class="st2" x1="8.5" y1="9.5" x2="0.5" y2="9.5"/>
	</g>
</g>
</svg>
