<?xml version="1.0" encoding="utf-8"?>
<!-- Generator: Adobe Illustrator 19.2.0, SVG Export Plug-In . SVG Version: 6.00 Build 0)  -->
<svg version="1.1" id="Outline_Icons" xmlns="http://www.w3.org/2000/svg" xmlns:xlink="http://www.w3.org/1999/xlink" x="0px"
	 y="0px" viewBox="0 0 24 24" style="enable-background:new 0 0 24 24;" xml:space="preserve">
<style type="text/css">
	.st0{fill:none;stroke:#000000;stroke-linecap:round;stroke-linejoin:round;stroke-miterlimit:10;}
</style>
<g>
	<path class="st0" d="M7.5,21.5V12c0-1.9,1.6-3.5,3.5-3.5s3.5,1.6,3.5,3.5v9.5"/>
	<path class="st0" d="M17.2,10c0.2,0.6,0.3,1.3,0.3,2c0,1.3-0.4,2.5-1,3.5"/>
	<path class="st0" d="M5.5,15.4c-0.6-1-1-2.2-1-3.4c0-3.6,2.9-6.5,6.5-6.5"/>
	<polyline class="st0" points="16.5,3 16.5,4.5 17.5,4.5 	"/>
	<path class="st0" d="M12.5,12c0-0.8-0.7-1.5-1.5-1.5S9.5,11.2,9.5,12v1.5h3V12z"/>
	<circle class="st0" cx="16.5" cy="4.5" r="3"/>
</g>
</svg>
