<?xml version="1.0" encoding="utf-8"?>
<!-- Generator: Adobe Illustrator 19.2.0, SVG Export Plug-In . SVG Version: 6.00 Build 0)  -->
<svg version="1.1" id="Layer_1" xmlns="http://www.w3.org/2000/svg" xmlns:xlink="http://www.w3.org/1999/xlink" x="0px" y="0px"
	 viewBox="0 0 24 24" style="enable-background:new 0 0 24 24;" xml:space="preserve">
<style type="text/css">
	.st0{display:none;}
	.st1{display:inline;}
	.st2{fill:none;stroke:#000000;stroke-linejoin:round;stroke-miterlimit:10;}
</style>
<g id="Filled_Icons" class="st0">
	<g class="st1">
		<path d="M10.5,15C9.7,15,9,14.3,9,13.5v-2.3c-1.2,0.4-2,1.5-2,2.8c0,1.7,1.3,3,3,3c1.3,0,2.4-0.8,2.8-2H10.5z"/>
		<path d="M17.7,11l1.4,1.4c0.4,0.4,0.5,1.1,0.3,1.6c-0.2,0.6-0.8,0.9-1.4,0.9h-1.7c-0.5,3.1-3.2,5.5-6.4,5.5
			c-3.6,0-6.5-2.9-6.5-6.5c0-3.2,2.4-5.9,5.5-6.4V5.7C9,5,9.4,4.5,9.9,4.3c0.6-0.2,1.2-0.1,1.6,0.4L12.9,6L14,4.8
			C12.8,4.3,11.4,4,10,4C4.5,4,0,8.5,0,14c0,5.5,4.5,10,10,10c5.5,0,10-4.5,10-10c0-1.5-0.3-3-1-4.3L17.7,11z"/>
		<path d="M23.5,3.1l-2.8-2.8c-0.1-0.1-0.2-0.1-0.4-0.1c-0.1,0-0.3,0.1-0.4,0.1l-7.1,7.1l-2-2.1c-0.1-0.1-0.4-0.2-0.5-0.1
			C10.1,5.3,10,5.5,10,5.7v7.8c0,0.3,0.2,0.5,0.5,0.5h7.6c0.2,0,0.4-0.1,0.5-0.3c0.1-0.2,0-0.4-0.1-0.5L16.3,11l7.1-7.2
			C23.7,3.6,23.7,3.3,23.5,3.1z"/>
	</g>
</g>
<g id="Outline_Icons">
	<g>
		<path class="st2" d="M18,8.8c1,1.5,1.5,3.3,1.5,5.2c0,5.2-4.3,9.5-9.5,9.5c-5.2,0-9.5-4.3-9.5-9.5c0-5.2,4.3-9.5,9.5-9.5
			c1.9,0,3.6,0.5,5,1.4"/>
		<path class="st2" d="M10.5,8c-0.2,0-0.3,0-0.5,0c-3.3,0-6,2.7-6,6c0,3.3,2.7,6,6,6c3.3,0,6-2.7,6-6v-0.5"/>
		<path class="st2" d="M12.5,13.5V14c0,1.4-1.1,2.5-2.5,2.5c-1.4,0-2.5-1.1-2.5-2.5c0-1.4,1.1-2.5,2.5-2.5c0.1,0,0.3,0,0.4,0l0.1,0"
			/>
		<polygon class="st2" points="12.9,8.1 20.3,0.6 23.1,3.5 15.6,11 18.1,13.5 10.5,13.5 10.5,5.7 		"/>
	</g>
</g>
</svg>
