<?xml version="1.0" encoding="utf-8"?>
<!-- Generator: Adobe Illustrator 19.2.0, SVG Export Plug-In . SVG Version: 6.00 Build 0)  -->
<svg version="1.1" id="Layer_1" xmlns="http://www.w3.org/2000/svg" xmlns:xlink="http://www.w3.org/1999/xlink" x="0px" y="0px"
	 viewBox="0 0 24 24" style="enable-background:new 0 0 24 24;" xml:space="preserve">
<style type="text/css">
	.st0{display:none;}
	.st1{display:inline;}
	.st2{fill:none;stroke:#000000;stroke-linecap:round;stroke-linejoin:round;stroke-miterlimit:10;}
</style>
<g id="Filled_Icon" class="st0">
	<g class="st1">
		<path d="M23,11h-1.9c-0.5-4.2-3.8-7.6-8.1-8.1V1c0-0.6-0.4-1-1-1s-1,0.4-1,1v1.9C6.8,3.4,3.4,6.8,2.9,11H1c-0.6,0-1,0.4-1,1
			s0.4,1,1,1h1.9c0.5,4.2,3.8,7.6,8.1,8.1V23c0,0.6,0.4,1,1,1s1-0.4,1-1v-1.9c4.2-0.5,7.6-3.8,8.1-8.1H23c0.6,0,1-0.4,1-1
			S23.6,11,23,11z M13,19.1v-0.8c0-0.6-0.4-1-1-1s-1,0.4-1,1v0.8c-3.1-0.4-5.6-2.9-6.1-6.1h0.8c0.6,0,1-0.4,1-1s-0.4-1-1-1H4.9
			c0.5-3.1,3-5.6,6.1-6.1v0.8c0,0.6,0.4,1,1,1s1-0.4,1-1V4.9c3.1,0.4,5.6,2.9,6.1,6.1h-0.8c-0.6,0-1,0.4-1,1s0.4,1,1,1h0.8
			C18.6,16.1,16.1,18.6,13,19.1z"/>
		<path d="M13,10.4c0,0.3,0.2,0.5,0.5,0.5s0.5-0.2,0.5-0.5c0-0.9-0.7-1.7-1.5-2V8c0-0.3-0.2-0.5-0.5-0.5S11.5,7.7,11.5,8v0.5
			c-0.9,0.2-1.5,1-1.5,2c0,0.9,0.7,1.7,1.5,2v2C11.2,14.3,11,14,11,13.6c0-0.3-0.2-0.5-0.5-0.5S10,13.3,10,13.6c0,0.9,0.7,1.7,1.5,2
			v0.5c0,0.3,0.2,0.5,0.5,0.5s0.5-0.2,0.5-0.5v-0.5c0.9-0.2,1.5-1,1.5-2c0-0.9-0.7-1.7-1.5-2v-2C12.8,9.7,13,10,13,10.4z M11,10.4
			c0-0.4,0.2-0.7,0.5-0.9v1.8C11.2,11.1,11,10.8,11,10.4z M13,13.5c0,0.4-0.2,0.7-0.5,0.9v-1.8C12.8,12.8,13,13.1,13,13.5z"/>
	</g>
</g>
<g id="Outline_Icons">
	<g>
		<g>
			<circle class="st2" cx="11.5" cy="11.5" r="8.1"/>
			<line class="st2" x1="11.5" y1="0.5" x2="11.5" y2="5.2"/>
			<line class="st2" x1="0.5" y1="11.5" x2="5.2" y2="11.5"/>
			<line class="st2" x1="11.5" y1="22.5" x2="11.5" y2="17.8"/>
			<line class="st2" x1="22.5" y1="11.5" x2="17.8" y2="11.5"/>
		</g>
		<path class="st2" d="M10,13c0,0.8,0.7,1.5,1.5,1.5S13,13.8,13,13s-0.7-1.5-1.5-1.5S10,10.8,10,10s0.7-1.5,1.5-1.5S13,9.2,13,10"/>
		<line class="st2" x1="11.5" y1="7.5" x2="11.5" y2="15.4"/>
	</g>
</g>
</svg>
