<?xml version="1.0" encoding="utf-8"?>
<!-- Generator: Adobe Illustrator 19.2.0, SVG Export Plug-In . SVG Version: 6.00 Build 0)  -->
<svg version="1.1" id="Layer_1" xmlns="http://www.w3.org/2000/svg" xmlns:xlink="http://www.w3.org/1999/xlink" x="0px" y="0px"
	 viewBox="0 0 24 24" style="enable-background:new 0 0 24 24;" xml:space="preserve">
<style type="text/css">
	.st0{display:none;}
	.st1{display:inline;}
	.st2{fill:none;stroke:#000000;stroke-linecap:round;stroke-linejoin:round;stroke-miterlimit:10;}
	.st3{fill:none;stroke:#000000;stroke-linejoin:round;stroke-miterlimit:10;}
</style>
<g id="Filled_Icons" class="st0">
	<g class="st1">
		<g>
			<path d="M11,13.5c0-0.3-0.2-0.5-0.5-0.5h-5C5.2,13,5,13.2,5,13.5S5.2,14,5.5,14h5C10.8,14,11,13.8,11,13.5z"/>
			<path d="M5.5,15C5.2,15,5,15.2,5,15.5S5.2,16,5.5,16h3C8.8,16,9,15.8,9,15.5S8.8,15,8.5,15H5.5z"/>
			<path d="M4,6.5C4,6.8,4.2,7,4.5,7h8C12.8,7,13,6.8,13,6.5v-4C13,2.2,12.8,2,12.5,2H11c-0.2-1-1-2-2.5-2S6.2,1,6,2H4.5
				C4.2,2,4,2.2,4,2.5V6.5z"/>
			<path d="M14,5h0.5C14.8,5,15,5.2,15,5.5v6.8c0.6-0.2,1.2-0.3,1.8-0.3c0.1,0,0.1,0,0.2,0l0-8.5c0-0.1-0.1-0.3-0.1-0.4
				C16.8,3.1,16.6,3,16.5,3H14V5z"/>
			<path d="M10.5,11h-5C5.2,11,5,11.2,5,11.5S5.2,12,5.5,12h5c0.3,0,0.5-0.2,0.5-0.5S10.8,11,10.5,11z"/>
			<path d="M12.3,20H2.5C2.2,20,2,19.8,2,19.5v-14C2,5.2,2.2,5,2.5,5H3V3H0.5C0.2,3,0,3.2,0,3.5v16C0,20.9,1.1,22,2.5,22h11.9
				C13.5,21.5,12.8,20.9,12.3,20z"/>
			<path d="M10.5,9h-5C5.2,9,5,9.2,5,9.5S5.2,10,5.5,10h5c0.3,0,0.5-0.2,0.5-0.5S10.8,9,10.5,9z"/>
		</g>
		<path d="M23.4,23.1L20.2,20c0.6-0.7,0.9-1.6,0.9-2.7c0-2.4-1.9-4.3-4.3-4.3c-2.4,0-4.3,1.9-4.3,4.3c0,2.4,1.9,4.3,4.3,4.3
			c1,0,1.9-0.4,2.7-0.9l3.2,3.2C22.7,24,22.9,24,23,24s0.3,0,0.4-0.1C23.5,23.7,23.5,23.3,23.4,23.1z M13.5,17.3
			c0-1.8,1.5-3.3,3.3-3.3c1.8,0,3.3,1.5,3.3,3.3c0,1.8-1.5,3.3-3.3,3.3C15,20.6,13.5,19.1,13.5,17.3z"/>
	</g>
</g>
<g id="Outline_Icons">
	<g>
		<path class="st2" d="M13,21.5H2.5c-1.1,0-2-0.9-2-2v-16h4"/>
		<polyline class="st2" points="11.5,19.5 2.5,19.5 2.5,5.5 4.5,5.5 		"/>
		<polyline class="st2" points="16.5,11.5 16.5,3.5 12.5,3.5 		"/>
		<g>
			<path class="st2" d="M10.5,2.5c0-0.8-0.5-2-2-2s-2,1.2-2,2h-2v4h8v-4H10.5z"/>
		</g>
		<polyline class="st2" points="12.5,5.5 14.5,5.5 14.5,12 		"/>
		<line class="st2" x1="5.5" y1="9.5" x2="10.5" y2="9.5"/>
		<line class="st2" x1="5.5" y1="11.5" x2="10.5" y2="11.5"/>
		<line class="st2" x1="5.5" y1="13.5" x2="10.5" y2="13.5"/>
		<line class="st2" x1="5.5" y1="15.5" x2="8.5" y2="15.5"/>
		<g>
			<circle class="st3" cx="16.8" cy="17.3" r="3.8"/>
			<line class="st2" x1="19.5" y1="20" x2="23" y2="23.5"/>
		</g>
	</g>
</g>
</svg>
