<?xml version="1.0" encoding="utf-8"?>
<!-- Generator: Adobe Illustrator 19.2.0, SVG Export Plug-In . SVG Version: 6.00 Build 0)  -->
<svg version="1.1" id="Layer_1" xmlns="http://www.w3.org/2000/svg" xmlns:xlink="http://www.w3.org/1999/xlink" x="0px" y="0px"
	 viewBox="0 0 24 24" style="enable-background:new 0 0 24 24;" xml:space="preserve">
<style type="text/css">
	.st0{display:none;}
	.st1{display:inline;}
	.st2{fill:none;stroke:#000000;stroke-linecap:round;stroke-linejoin:round;stroke-miterlimit:10;}
</style>
<g id="Filled_Icons" class="st0">
	<g class="st1">
		<path d="M19.5,3H17v17H6V3H3.5C3.2,3,3,3.2,3,3.5v20C3,23.8,3.2,24,3.5,24h16c0.3,0,0.5-0.2,0.5-0.5v-20C20,3.2,19.8,3,19.5,3z"/>
		<path d="M7.5,7h8C15.8,7,16,6.8,16,6.5v-4C16,2.2,15.8,2,15.5,2h-1.6c-0.2-1.1-1.3-2-2.4-2c-1.2,0-2.2,0.9-2.4,2H7.5
			C7.2,2,7,2.2,7,2.5v4C7,6.8,7.2,7,7.5,7z"/>
	</g>
</g>
<g id="Outline_Icons">
	<g>
		<polyline class="st2" points="15.5,3.5 19.5,3.5 19.5,23.5 3.5,23.5 3.5,3.5 7.5,3.5 		"/>
		<path class="st2" d="M13.5,2.5c0-1.1-0.9-2-2-2s-2,0.9-2,2h-2v4h8v-4H13.5z"/>
		<polyline class="st2" points="7.5,5.5 5.5,5.5 5.5,20.5 17.5,20.5 17.5,5.5 15.5,5.5 		"/>
	</g>
</g>
</svg>
