<?xml version="1.0" encoding="utf-8"?>
<!-- Generator: Adobe Illustrator 19.2.0, SVG Export Plug-In . SVG Version: 6.00 Build 0)  -->
<svg version="1.1" id="Layer_1" xmlns="http://www.w3.org/2000/svg" xmlns:xlink="http://www.w3.org/1999/xlink" x="0px" y="0px"
	 viewBox="0 0 24 24" style="enable-background:new 0 0 24 24;" xml:space="preserve">
<style type="text/css">
	.st0{display:none;}
	.st1{display:inline;}
	.st2{fill:none;stroke:#000000;stroke-linecap:round;stroke-linejoin:round;stroke-miterlimit:10;}
	.st3{fill:none;stroke:#000000;stroke-linejoin:round;stroke-miterlimit:10;}
</style>
<g id="Filled_Icons" class="st0">
	<g class="st1">
		<g>
			<path d="M14,5h0.5C14.8,5,15,5.2,15,5.5v4.8c0.2-0.2,0.6-0.3,0.9-0.3H17l0-6.5c0-0.1-0.1-0.3-0.1-0.4C16.8,3.1,16.6,3,16.5,3H14
				V5z"/>
			<path d="M5.5,15C5.2,15,5,15.2,5,15.5S5.2,16,5.5,16h3C8.8,16,9,15.8,9,15.5S8.8,15,8.5,15H5.5z"/>
			<path d="M11,13.5c0-0.3-0.2-0.5-0.5-0.5h-5C5.2,13,5,13.2,5,13.5S5.2,14,5.5,14h5C10.8,14,11,13.8,11,13.5z"/>
			<path d="M5.5,12h5c0.3,0,0.5-0.2,0.5-0.5S10.8,11,10.5,11h-5C5.2,11,5,11.2,5,11.5S5.2,12,5.5,12z"/>
			<path d="M10.3,20H2.5C2.2,20,2,19.8,2,19.5v-14C2,5.2,2.2,5,2.5,5H3V3H0.5C0.2,3,0,3.2,0,3.5v16C0,20.9,1.1,22,2.5,22h9L10.3,20z
				"/>
			<path d="M4,6.5C4,6.8,4.2,7,4.5,7h8C12.8,7,13,6.8,13,6.5v-4C13,2.2,12.8,2,12.5,2H11c-0.2-1-1-2-2.5-2S6.2,1,6,2H4.5
				C4.2,2,4,2.2,4,2.5V6.5z"/>
			<path d="M5.5,10h5c0.3,0,0.5-0.2,0.5-0.5S10.8,9,10.5,9h-5C5.2,9,5,9.2,5,9.5S5.2,10,5.5,10z"/>
		</g>
		<path d="M23.8,18.6l-0.9-0.5c0-0.2,0-0.4,0-0.6c0-0.2,0-0.4,0-0.6l0.9-0.5c0.2-0.1,0.3-0.4,0.2-0.7l-1.6-2.8
			c-0.1-0.1-0.2-0.2-0.3-0.2c-0.1,0-0.3,0-0.4,0.1l-0.9,0.5c-0.3-0.2-0.7-0.5-1.1-0.6v-1c0-0.3-0.2-0.5-0.5-0.5h-3.3
			c-0.3,0-0.5,0.2-0.5,0.5v1c-0.3,0.1-0.7,0.3-1.1,0.6l-0.9-0.5c-0.2-0.1-0.5-0.1-0.7,0.2l-1.6,2.8C11,15.8,11,15.9,11,16
			c0,0.1,0.1,0.2,0.2,0.3l0.9,0.5c0,0.2,0,0.4,0,0.6c0,0.2,0,0.4,0,0.6l-0.9,0.5c-0.1,0.1-0.2,0.2-0.2,0.3c0,0.1,0,0.3,0.1,0.4
			l1.6,2.8c0.1,0.2,0.4,0.3,0.7,0.2l0.9-0.5c0.4,0.3,0.8,0.5,1.1,0.6v1c0,0.3,0.2,0.5,0.5,0.5h3.3c0.3,0,0.5-0.2,0.5-0.5v-1
			c0.4-0.2,0.8-0.4,1.1-0.6l0.9,0.5c0.1,0.1,0.3,0.1,0.4,0c0.1,0,0.2-0.1,0.3-0.2l1.6-2.8C24.1,19.1,24,18.8,23.8,18.6z M17.5,20.2
			c-1.5,0-2.7-1.2-2.7-2.7c0-1.5,1.2-2.7,2.7-2.7s2.7,1.2,2.7,2.7C20.2,19,19,20.2,17.5,20.2z"/>
	</g>
</g>
<g id="Outline_Icons">
	<g>
		<path class="st2" d="M10.5,21.5h-8c-1.1,0-2-0.9-2-2v-16h4"/>
		<polyline class="st2" points="9.5,19.5 2.5,19.5 2.5,5.5 4.5,5.5 		"/>
		<polyline class="st2" points="16.5,9.5 16.5,3.5 12.5,3.5 		"/>
		<g>
			<path class="st2" d="M10.5,2.5c0-0.8-0.5-2-2-2s-2,1.2-2,2h-2v4h8v-4H10.5z"/>
		</g>
		<polyline class="st2" points="12.5,5.5 14.5,5.5 14.5,10.5 		"/>
		<line class="st2" x1="5.5" y1="9.5" x2="10.5" y2="9.5"/>
		<line class="st2" x1="5.5" y1="11.5" x2="10.5" y2="11.5"/>
		<line class="st2" x1="5.5" y1="13.5" x2="10.5" y2="13.5"/>
		<line class="st2" x1="5.5" y1="15.5" x2="8.5" y2="15.5"/>
		<g>
			<g>
				<path class="st3" d="M15.9,12.9c-0.5,0.2-1.1,0.5-1.6,0.9l-1.2-0.7l-1.6,2.8l1.2,0.7c-0.1,0.3-0.1,0.6-0.1,0.9
					c0,0.3,0,0.6,0.1,0.9l-1.2,0.7l1.6,2.8l1.2-0.7c0.5,0.4,1,0.7,1.6,0.9v1.4h3.3v-1.4c0.5-0.2,1.1-0.5,1.5-0.9l1.2,0.7l1.6-2.8
					l-1.2-0.7c0.1-0.3,0.1-0.6,0.1-0.9c0-0.3,0-0.6-0.1-0.9l1.2-0.7l-1.6-2.8l-1.2,0.7c-0.5-0.4-1-0.7-1.5-0.9v-1.4h-3.3
					C15.9,11.5,15.9,12.9,15.9,12.9z"/>
			</g>
			<circle class="st3" cx="17.5" cy="17.5" r="2.2"/>
		</g>
	</g>
</g>
</svg>
