<?xml version="1.0" encoding="utf-8"?>
<!-- Generator: Adobe Illustrator 19.2.0, SVG Export Plug-In . SVG Version: 6.00 Build 0)  -->
<svg version="1.1" id="Outline_Icons" xmlns="http://www.w3.org/2000/svg" xmlns:xlink="http://www.w3.org/1999/xlink" x="0px"
	 y="0px" viewBox="0 0 24 24" style="enable-background:new 0 0 24 24;" xml:space="preserve">
<style type="text/css">
	.st0{fill:none;stroke:#000000;stroke-linecap:round;stroke-linejoin:round;stroke-miterlimit:10;}
</style>
<g>
	<g>
		<polyline class="st0" points="23.5,14 23.5,16.5 20.3,16.5 		"/>
		<path class="st0" d="M14,16.5c0.6-1.7,2.3-3,4.2-3s3.8,1.2,4.5,3"/>
		<g>
			<polyline class="st0" points="14.5,22 14.5,19.5 16.8,19.5 			"/>
			<path class="st0" d="M23,19.5c-0.6,1.7-2.3,3-4.2,3s-3.6-1.2-4.3-3"/>
		</g>
	</g>
	<path class="st0" d="M12,21.5H2.5c-1.1,0-2-0.9-2-2v-16h4"/>
	<polyline class="st0" points="12,19.5 2.5,19.5 2.5,5.5 4.5,5.5 	"/>
	<polyline class="st0" points="16.5,11 16.5,3.5 12.5,3.5 	"/>
	<g>
		<path class="st0" d="M10.5,2.5c0-0.8-0.5-2-2-2s-2,1.2-2,2h-2v4h8v-4H10.5z"/>
	</g>
	<polyline class="st0" points="12.5,5.5 14.5,5.5 14.5,12 	"/>
	<line class="st0" x1="5.5" y1="9.5" x2="10.5" y2="9.5"/>
	<line class="st0" x1="5.5" y1="11.5" x2="10.5" y2="11.5"/>
	<line class="st0" x1="5.5" y1="13.5" x2="10.5" y2="13.5"/>
	<line class="st0" x1="5.5" y1="15.5" x2="8.5" y2="15.5"/>
</g>
</svg>
