<?xml version="1.0" encoding="utf-8"?>
<!-- Generator: Adobe Illustrator 19.2.0, SVG Export Plug-In . SVG Version: 6.00 Build 0)  -->
<svg version="1.1" id="Layer_1" xmlns="http://www.w3.org/2000/svg" xmlns:xlink="http://www.w3.org/1999/xlink" x="0px" y="0px"
	 viewBox="0 0 24 24" style="enable-background:new 0 0 24 24;" xml:space="preserve">
<style type="text/css">
	.st0{display:none;}
	.st1{display:inline;}
	.st2{fill:none;stroke:#000000;stroke-linecap:round;stroke-linejoin:round;stroke-miterlimit:10;}
</style>
<g id="Filled_Icons" class="st0">
	<g class="st1">
		<g>
			<path d="M5.5,15C5.2,15,5,15.2,5,15.5S5.2,16,5.5,16h3C8.8,16,9,15.8,9,15.5S8.8,15,8.5,15H5.5z"/>
			<path d="M5.5,12h5c0.3,0,0.5-0.2,0.5-0.5S10.8,11,10.5,11h-5C5.2,11,5,11.2,5,11.5S5.2,12,5.5,12z"/>
			<path d="M11,13.5c0-0.3-0.2-0.5-0.5-0.5h-5C5.2,13,5,13.2,5,13.5S5.2,14,5.5,14h5C10.8,14,11,13.8,11,13.5z"/>
			<path d="M14,5h0.5C14.8,5,15,5.2,15,5.5v9.9c0.2,0.1,0.5,0.3,0.7,0.4l1.3-0.6l0-11.7c0-0.1-0.1-0.3-0.1-0.4
				C16.8,3.1,16.6,3,16.5,3H14V5z"/>
			<path d="M4,6.5C4,6.8,4.2,7,4.5,7h8C12.8,7,13,6.8,13,6.5v-4C13,2.2,12.8,2,12.5,2H11c-0.2-1-1-2-2.5-2S6.2,1,6,2H4.5
				C4.2,2,4,2.2,4,2.5V6.5z"/>
			<path d="M5.5,10h5c0.3,0,0.5-0.2,0.5-0.5S10.8,9,10.5,9h-5C5.2,9,5,9.2,5,9.5S5.2,10,5.5,10z"/>
			<path d="M10.4,20H2.5C2.2,20,2,19.8,2,19.5v-14C2,5.2,2.2,5,2.5,5H3V3H0.5C0.2,3,0,3.2,0,3.5v16C0,20.9,1.1,22,2.5,22h11
				C12.1,22,10.9,21.2,10.4,20z"/>
		</g>
		<path d="M21.5,19c-0.8,0-1.5,0.4-1.9,0.9L16,18.8c0-0.1,0-0.2,0-0.3c0-0.2,0-0.4-0.1-0.6l3.8-1.7c0.5,0.5,1.1,0.8,1.8,0.8
			c1.4,0,2.5-1.1,2.5-2.5S22.9,12,21.5,12S19,13.1,19,14.5c0,0.3,0.1,0.6,0.1,0.8L15.5,17c-0.5-0.6-1.2-1-2-1
			c-1.4,0-2.5,1.1-2.5,2.5s1.1,2.5,2.5,2.5c0.9,0,1.7-0.5,2.1-1.2l3.5,1.1C19,21,19,21.3,19,21.5c0,1.4,1.1,2.5,2.5,2.5
			s2.5-1.1,2.5-2.5S22.9,19,21.5,19z M21.5,13c0.8,0,1.5,0.7,1.5,1.5S22.3,16,21.5,16S20,15.3,20,14.5S20.7,13,21.5,13z M13.5,20
			c-0.8,0-1.5-0.7-1.5-1.5s0.7-1.5,1.5-1.5s1.5,0.7,1.5,1.5S14.3,20,13.5,20z M21.5,23c-0.8,0-1.5-0.7-1.5-1.5s0.7-1.5,1.5-1.5
			s1.5,0.7,1.5,1.5S22.3,23,21.5,23z"/>
	</g>
</g>
<g id="Outline_Icons">
	<g>
		<path class="st2" d="M11,21.5H2.5c-1.1,0-2-0.9-2-2v-16h4"/>
		<polyline class="st2" points="9.5,19.5 2.5,19.5 2.5,5.5 4.5,5.5 		"/>
		<polyline class="st2" points="16.5,14.5 16.5,3.5 12.5,3.5 		"/>
		<g>
			<path class="st2" d="M10.5,2.5c0-0.8-0.5-2-2-2s-2,1.2-2,2h-2v4h8v-4H10.5z"/>
		</g>
		<polyline class="st2" points="12.5,5.5 14.5,5.5 14.5,14.5 		"/>
		<line class="st2" x1="5.5" y1="9.5" x2="10.5" y2="9.5"/>
		<line class="st2" x1="5.5" y1="11.5" x2="10.5" y2="11.5"/>
		<line class="st2" x1="5.5" y1="13.5" x2="10.5" y2="13.5"/>
		<line class="st2" x1="5.5" y1="15.5" x2="8.5" y2="15.5"/>
		<g>
			<circle class="st2" cx="21.5" cy="14.5" r="2"/>
			<circle class="st2" cx="21.5" cy="21.5" r="2"/>
			<circle class="st2" cx="13.5" cy="18.5" r="2"/>
			<line class="st2" x1="15.3" y1="17.6" x2="19.8" y2="15.6"/>
			<line class="st2" x1="15.5" y1="19.2" x2="19.8" y2="20.5"/>
		</g>
	</g>
</g>
</svg>
