<?xml version="1.0" encoding="utf-8"?>
<!-- Generator: Adobe Illustrator 19.2.0, SVG Export Plug-In . SVG Version: 6.00 Build 0)  -->
<svg version="1.1" id="Layer_1" xmlns="http://www.w3.org/2000/svg" xmlns:xlink="http://www.w3.org/1999/xlink" x="0px" y="0px"
	 viewBox="0 0 24 24" style="enable-background:new 0 0 24 24;" xml:space="preserve">
<style type="text/css">
	.st0{display:none;}
	.st1{display:inline;}
	.st2{fill:none;stroke:#000000;stroke-linecap:round;stroke-linejoin:round;stroke-miterlimit:10;}
	.st3{fill:none;stroke:#000000;stroke-linejoin:round;stroke-miterlimit:10;}
</style>
<g id="Filled_Icons" class="st0">
	<g class="st1">
		<path d="M17,3.5C17,3.2,16.8,3,16.5,3H14v3v1.5v9.9l3-3V3.5z"/>
		<path d="M12.3,19.1l0.1-0.1H3V7.5V6V3H0.5C0.2,3,0,3.2,0,3.5v16C0,20.9,1.1,22,2.5,22h8.9l0.8-2.7C12.1,19.3,12.2,19.2,12.3,19.1z
			"/>
		<path d="M10.5,9h-5C5.2,9,5,9.2,5,9.5S5.2,10,5.5,10h5c0.3,0,0.5-0.2,0.5-0.5S10.8,9,10.5,9z"/>
		<path d="M10.5,11h-5C5.2,11,5,11.2,5,11.5S5.2,12,5.5,12h5c0.3,0,0.5-0.2,0.5-0.5S10.8,11,10.5,11z"/>
		<path d="M11,13.5c0-0.3-0.2-0.5-0.5-0.5h-5C5.2,13,5,13.2,5,13.5S5.2,14,5.5,14h5C10.8,14,11,13.8,11,13.5z"/>
		<path d="M5.5,15C5.2,15,5,15.2,5,15.5S5.2,16,5.5,16h3C8.8,16,9,15.8,9,15.5S8.8,15,8.5,15H5.5z"/>
		<path d="M4.5,7h8C12.8,7,13,6.8,13,6.5v-4C13,2.2,12.8,2,12.5,2H11c-0.2-1.3-1.3-2-2.5-2C7.3,0,6.3,0.7,6,2H4.5C4.2,2,4,2.2,4,2.5
			v4C4,6.8,4.2,7,4.5,7z"/>
		<path d="M23.9,14.6l-2.5-2.5c-0.2-0.2-0.5-0.2-0.7,0L19,13.8l3.2,3.2l1.6-1.6c0.1-0.1,0.1-0.2,0.1-0.4
			C24,14.9,23.9,14.7,23.9,14.6z"/>
		<path d="M12.4,22L12.4,22L12,23.4c-0.1,0.2,0,0.4,0.1,0.5c0.1,0.1,0.3,0.2,0.5,0.1l3.2-0.9l-2.9-2.9L12.4,22z"/>
		<rect x="14.1" y="16.2" transform="matrix(0.7072 -0.707 0.707 0.7072 -7.9552 17.7878)" width="6.8" height="4.5"/>
	</g>
</g>
<g id="Outline_Icons">
	<g>
		<polygon class="st2" points="16,22.5 12.5,23.5 13.5,20 21,12.5 23.5,15 		"/>
		<line class="st3" x1="19" y1="14.5" x2="21.5" y2="17"/>
		<line class="st2" x1="13.5" y1="20" x2="16" y2="22.5"/>
		<path class="st2" d="M10,21.5H2.5c-1.1,0-2-0.9-2-2v-16h4"/>
		<polyline class="st2" points="9.5,19.5 2.5,19.5 2.5,5.5 4.5,5.5 		"/>
		<polyline class="st2" points="16.5,10 16.5,3.5 12.5,3.5 		"/>
		<g>
			<path class="st2" d="M10.5,2.5c0-0.8-0.5-2-2-2s-2,1.2-2,2h-2v4h8v-4H10.5z"/>
		</g>
		<polyline class="st2" points="12.5,5.5 14.5,5.5 14.5,10 		"/>
		<line class="st2" x1="5.5" y1="9.5" x2="10.5" y2="9.5"/>
		<line class="st2" x1="5.5" y1="11.5" x2="10.5" y2="11.5"/>
		<line class="st2" x1="5.5" y1="13.5" x2="10.5" y2="13.5"/>
		<line class="st2" x1="5.5" y1="15.5" x2="8.5" y2="15.5"/>
	</g>
</g>
</svg>
