<?xml version="1.0" encoding="utf-8"?>
<!-- Generator: Adobe Illustrator 19.2.0, SVG Export Plug-In . SVG Version: 6.00 Build 0)  -->
<svg version="1.1" id="Layer_1" xmlns="http://www.w3.org/2000/svg" xmlns:xlink="http://www.w3.org/1999/xlink" x="0px" y="0px"
	 viewBox="0 0 24 24" style="enable-background:new 0 0 24 24;" xml:space="preserve">
<style type="text/css">
	.st0{display:none;}
	.st1{display:inline;}
	.st2{fill:none;stroke:#000000;stroke-linecap:round;stroke-linejoin:round;stroke-miterlimit:10;}
</style>
<g id="Filled_Icons" class="st0">
	<g class="st1">
		<path d="M17,5V2h-3.1c-0.2-1.1-1.3-2-2.4-2S9.3,0.9,9.1,2H6v3H17z"/>
		<path d="M20.5,2H18v19H5V2H2.5C2.2,2,2,2.2,2,2.5v21C2,23.8,2.2,24,2.5,24h18c0.3,0,0.5-0.2,0.5-0.5v-21C21,2.2,20.8,2,20.5,2z"/>
		<path d="M15.5,8h-6C9.2,8,9,8.2,9,8.5S9.2,9,9.5,9h6C15.8,9,16,8.8,16,8.5S15.8,8,15.5,8z"/>
		<path d="M15.5,11h-6C9.2,11,9,11.2,9,11.5S9.2,12,9.5,12h6c0.3,0,0.5-0.2,0.5-0.5S15.8,11,15.5,11z"/>
		<path d="M15.5,14h-6C9.2,14,9,14.2,9,14.5S9.2,15,9.5,15h6c0.3,0,0.5-0.2,0.5-0.5S15.8,14,15.5,14z"/>
		<path d="M15.5,17h-6C9.2,17,9,17.2,9,17.5S9.2,18,9.5,18h6c0.3,0,0.5-0.2,0.5-0.5S15.8,17,15.5,17z"/>
		<path d="M7.5,8H7C6.7,8,6.5,8.2,6.5,8.5S6.7,9,7,9h0.5C7.8,9,8,8.8,8,8.5S7.8,8,7.5,8z"/>
		<path d="M7.5,11H7c-0.3,0-0.5,0.2-0.5,0.5S6.7,12,7,12h0.5C7.8,12,8,11.8,8,11.5S7.8,11,7.5,11z"/>
		<path d="M7.5,14H7c-0.3,0-0.5,0.2-0.5,0.5S6.7,15,7,15h0.5C7.8,15,8,14.8,8,14.5S7.8,14,7.5,14z"/>
		<path d="M7.5,17H7c-0.3,0-0.5,0.2-0.5,0.5S6.7,18,7,18h0.5C7.8,18,8,17.8,8,17.5S7.8,17,7.5,17z"/>
	</g>
</g>
<g id="Outline_Icons">
	<g>
		<polyline class="st2" points="18.5,2.5 20.5,2.5 20.5,23.5 2.5,23.5 2.5,2.5 4.5,2.5 		"/>
		<path class="st2" d="M13.5,2.5c0-1.1-0.9-2-2-2c-1.1,0-2,0.9-2,2h-3v2h10v-2H13.5z"/>
		<polyline class="st2" points="18.5,4.5 18.5,21.5 4.5,21.5 4.5,4.5 		"/>
		<line class="st2" x1="9.5" y1="8.5" x2="15.5" y2="8.5"/>
		<line class="st2" x1="9.5" y1="11.5" x2="15.5" y2="11.5"/>
		<line class="st2" x1="9.5" y1="14.5" x2="15.5" y2="14.5"/>
		<line class="st2" x1="9.5" y1="17.5" x2="15.5" y2="17.5"/>
		<line class="st2" x1="7" y1="8.5" x2="7.5" y2="8.5"/>
		<line class="st2" x1="7" y1="11.5" x2="7.5" y2="11.5"/>
		<line class="st2" x1="7" y1="14.5" x2="7.5" y2="14.5"/>
		<line class="st2" x1="7" y1="17.5" x2="7.5" y2="17.5"/>
	</g>
</g>
</svg>
