<?xml version="1.0" encoding="utf-8"?>
<!-- Generator: Adobe Illustrator 19.2.0, SVG Export Plug-In . SVG Version: 6.00 Build 0)  -->
<svg version="1.1" id="Layer_1" xmlns="http://www.w3.org/2000/svg" xmlns:xlink="http://www.w3.org/1999/xlink" x="0px" y="0px"
	 viewBox="0 0 24 24" style="enable-background:new 0 0 24 24;" xml:space="preserve">
<style type="text/css">
	.st0{display:none;}
	.st1{display:inline;}
	.st2{fill:none;stroke:#000000;stroke-linecap:round;stroke-linejoin:round;stroke-miterlimit:10;}
</style>
<g id="Filled_Icons" class="st0">
	<g class="st1">
		<path d="M14.9,12.1l-3-3c0,0-0.1-0.1-0.2-0.1C11.6,9,11.4,9,11.3,9c-0.1,0-0.1,0.1-0.2,0.1l-3,3c-0.2,0.2-0.2,0.5,0,0.7
			c0.2,0.2,0.5,0.2,0.7,0l2.1-2.1v5.8c0,0.3,0.2,0.5,0.5,0.5s0.5-0.2,0.5-0.5v-5.8l2.1,2.1c0.1,0.1,0.2,0.1,0.4,0.1s0.3,0,0.4-0.1
			C15,12.7,15,12.3,14.9,12.1z"/>
		<g>
			<g>
				<path d="M16,2h-1.6c-0.2-1.1-1.2-2-2.4-2S9.8,0.9,9.6,2H8C7.7,2,7.5,2.2,7.5,2.5v4C7.5,6.8,7.7,7,8,7h8c0.3,0,0.5-0.2,0.5-0.5
					v-4C16.5,2.2,16.3,2,16,2z"/>
			</g>
			<g>
				<g>
					<path d="M21.5,3h-4v2h2C19.8,5,20,5.2,20,5.5v12c0,0.1,0,0.2-0.1,0.3l-3.5,4C16.3,21.9,16.1,22,16,22L4.5,22
						C4.2,22,4,21.8,4,21.5v-16C4,5.2,4.2,5,4.5,5h2V3h-4C2.2,3,2,3.2,2,3.5v20C2,23.8,2.2,24,2.5,24h19c0.3,0,0.5-0.2,0.5-0.5v-20
						C22,3.2,21.8,3,21.5,3z"/>
				</g>
			</g>
			<g>
				<g>
					<path d="M19.3,17H16c-0.3,0-0.5,0.2-0.5,0.5v3.8L19.3,17z"/>
				</g>
			</g>
		</g>
	</g>
</g>
<g id="Outline_Icons">
	<g>
		<g>
			<polyline class="st2" points="8.5,12.5 11.5,9.5 14.5,12.5 			"/>
			<line class="st2" x1="11.5" y1="16.5" x2="11.5" y2="9.5"/>
		</g>
		<g>
			<g>
				<g>
					<polyline class="st2" points="16,3.5 21.5,3.5 21.5,23.5 2.5,23.5 2.5,3.5 8,3.5 					"/>
					<path class="st2" d="M14,2.5c0-1.1-0.9-2-2-2s-2,0.9-2,2H8v4h8v-4H14z"/>
					<polyline class="st2" points="8,5.5 4.5,5.5 4.5,21.5 16,21.5 19.5,17.5 19.5,5.5 16,5.5 					"/>
				</g>
			</g>
			<polyline class="st2" points="16,21.5 16,17 19.5,17 			"/>
		</g>
	</g>
</g>
</svg>
