<?xml version="1.0" encoding="utf-8"?>
<!-- Generator: Adobe Illustrator 19.2.0, SVG Export Plug-In . SVG Version: 6.00 Build 0)  -->
<svg version="1.1" id="Outline_Icons" xmlns="http://www.w3.org/2000/svg" xmlns:xlink="http://www.w3.org/1999/xlink" x="0px"
	 y="0px" viewBox="0 0 24 24" style="enable-background:new 0 0 24 24;" xml:space="preserve">
<style type="text/css">
	.st0{fill:none;stroke:#000000;stroke-linecap:round;stroke-linejoin:round;stroke-miterlimit:10;}
	.st1{fill:none;stroke:#000000;stroke-linejoin:round;stroke-miterlimit:10;}
</style>
<g>
	<g>
		<circle class="st0" cx="5.5" cy="18.5" r="2"/>
		<line class="st0" x1="18.5" y1="18.5" x2="23.5" y2="18.5"/>
		<circle class="st0" cx="16.5" cy="18.5" r="2"/>
		<line class="st0" x1="7.5" y1="18.5" x2="14.5" y2="18.5"/>
		<line class="st0" x1="0.5" y1="18.5" x2="3.5" y2="18.5"/>
		<path class="st0" d="M22.5,18.5v-6h-2c-0.6-2.4-2.7-4-5.1-4H8l-2,4H1.5v6"/>
		<polyline class="st0" points="8.5,12.5 9.5,10.5 10.5,10.5 		"/>
		<line class="st1" x1="8.5" y1="14" x2="8.5" y2="15"/>
		<line class="st1" x1="6.5" y1="14" x2="6.5" y2="15"/>
		<line class="st1" x1="4.5" y1="14" x2="4.5" y2="15"/>
		<line class="st1" x1="10.5" y1="14" x2="10.5" y2="15"/>
		<line class="st1" x1="12.5" y1="14" x2="12.5" y2="15"/>
		<line class="st1" x1="14.5" y1="14" x2="14.5" y2="15"/>
		<line class="st1" x1="16.5" y1="14" x2="16.5" y2="15"/>
		<line class="st1" x1="18.5" y1="14" x2="18.5" y2="15"/>
		<line class="st1" x1="20.5" y1="14" x2="20.5" y2="15"/>
	</g>
	<path class="st0" d="M9.4,8.5c0,0.1,0.6-2,0.6-2h2l0.9,2"/>
</g>
</svg>
