<?xml version="1.0" encoding="utf-8"?>
<!-- Generator: Adobe Illustrator 19.2.0, SVG Export Plug-In . SVG Version: 6.00 Build 0)  -->
<svg version="1.1" id="Outline_Icons" xmlns="http://www.w3.org/2000/svg" xmlns:xlink="http://www.w3.org/1999/xlink" x="0px"
	 y="0px" viewBox="0 0 24 24" style="enable-background:new 0 0 24 24;" xml:space="preserve">
<style type="text/css">
	.st0{fill:none;stroke:#000000;stroke-linecap:round;stroke-linejoin:round;stroke-miterlimit:10;}
</style>
<g>
	<g>
		<rect x="1.5" y="21.5" class="st0" width="3" height="2"/>
		<rect x="19.5" y="21.5" class="st0" width="3" height="2"/>
		<path class="st0" d="M21.5,21.5c1.1,0,2-0.9,2-2v-2.2l-3-3.8h-17l-3,3.8v2.2c0,1.1,0.9,2,2,2H21.5z"/>
		<polygon class="st0" points="18.5,7.5 5.5,7.5 3.5,13.5 20.5,13.5 		"/>
		<rect x="0.5" y="11.5" class="st0" width="3" height="2"/>
		<rect x="20.5" y="11.5" class="st0" width="3" height="2"/>
		<path class="st0" d="M6.5,21.5h-4c-1.1,0-2-0.9-2-2v-2h2C4.7,17.5,6.5,19.3,6.5,21.5z"/>
		<path class="st0" d="M23.5,19.5c0,1.1-0.9,2-2,2h-4c0-2.2,1.8-4,4-4h2V19.5z"/>
		<line class="st0" x1="3" y1="17.5" x2="21" y2="17.5"/>
		<line class="st0" x1="8" y1="19.5" x2="16" y2="19.5"/>
		<path class="st0" d="M16.5,7.5c0-1.7-1.3-3-3-3h-3c-1.7,0-3,1.3-3,3H16.5z"/>
		<line class="st0" x1="10.5" y1="4.5" x2="10.5" y2="7.5"/>
		<line class="st0" x1="13.5" y1="4.5" x2="13.5" y2="7.5"/>
	</g>
	<line class="st0" x1="11.5" y1="2.5" x2="11.5" y2="1"/>
	<line class="st0" x1="14.5" y1="2.5" x2="15.5" y2="1.5"/>
	<line class="st0" x1="9" y1="2.5" x2="8" y2="1.5"/>
</g>
</svg>
