<?xml version="1.0" encoding="utf-8"?>
<!-- Generator: Adobe Illustrator 19.2.0, SVG Export Plug-In . SVG Version: 6.00 Build 0)  -->
<svg version="1.1" id="Layer_1" xmlns="http://www.w3.org/2000/svg" xmlns:xlink="http://www.w3.org/1999/xlink" x="0px" y="0px"
	 viewBox="0 0 24 24" style="enable-background:new 0 0 24 24;" xml:space="preserve">
<style type="text/css">
	.st0{display:none;}
	.st1{display:inline;}
	.st2{fill:none;stroke:#000000;stroke-linecap:round;stroke-linejoin:round;stroke-miterlimit:10;}
	.st3{fill:none;stroke:#000000;stroke-linejoin:round;stroke-miterlimit:10;}
</style>
<g id="Filled_Icons" class="st0">
	<g class="st1">
		<path d="M13.6,7.2C13.9,6.8,14,6.4,14,6c0-1.1-0.9-2-2-2c-1.1,0-2,0.9-2,2c0,0.4,0.1,0.8,0.4,1.2C8.5,7.6,6.9,8.6,5.8,10h12.5
			C17.1,8.6,15.5,7.6,13.6,7.2z M12,7c-0.6,0-1-0.4-1-1c0-0.6,0.4-1,1-1c0.6,0,1,0.4,1,1C13,6.6,12.6,7,12,7z"/>
		<path d="M20.5,10.5c-0.8,0-2,0.5-2,0.5H5.1c-0.6,1-1,2.2-1.1,3.5c-1.2-0.2-2-1.2-2-2.5v-1.5C2,9.7,1.3,9,0.5,9C0.2,9,0,9.2,0,9.5
			C0,9.8,0.2,10,0.5,10C0.8,10,1,10.2,1,10.5V12c0,1.8,1.3,3.2,3,3.5c0.1,1.6,0.6,3.1,1.6,4.3C5.7,19.9,5.9,20,6,20h12
			c0.2,0,0.3-0.1,0.4-0.2c0.6-0.7,1-1.6,1.2-2.4c0.3,0.1,0.6,0.1,0.9,0.1c1.9,0,3.5-1.6,3.5-3.5C24,12.1,22.4,10.5,20.5,10.5z
			 M20.5,16.5c-0.2,0-0.4,0-0.6-0.1C20,16,20,15.5,20,15c0-1.1-0.2-2.2-0.7-3.2c0.4-0.2,0.8-0.3,1.2-0.3c1.4,0,2.5,1.1,2.5,2.5
			C23,15.4,21.9,16.5,20.5,16.5z"/>
	</g>
</g>
<g id="Outline_Icons">
	<g>
		<path class="st2" d="M18,19.5c0.9-1.3,1.5-2.8,1.5-4.5c0-4.1-3.4-7.5-7.5-7.5c-4.1,0-7.5,3.4-7.5,7.5c0,1.7,0.6,3.2,1.5,4.5H18z"
			/>
		<path class="st2" d="M4.5,15c-1.7,0-3-1.3-3-3v-1.5c0-0.6-0.4-1-1-1"/>
		<path class="st2" d="M19.3,16.7c0.4,0.2,0.8,0.3,1.2,0.3c1.7,0,3-1.3,3-3s-1.3-3-3-3c-0.7,0-1.3,0.2-1.8,0.6"/>
		<line class="st3" x1="6" y1="10.5" x2="18" y2="10.5"/>
		<circle class="st2" cx="12" cy="6" r="1.5"/>
	</g>
</g>
</svg>
