<?xml version="1.0" encoding="utf-8"?>
<!-- Generator: Adobe Illustrator 19.2.0, SVG Export Plug-In . SVG Version: 6.00 Build 0)  -->
<svg version="1.1" id="Layer_1" xmlns="http://www.w3.org/2000/svg" xmlns:xlink="http://www.w3.org/1999/xlink" x="0px" y="0px"
	 viewBox="0 0 24 24" style="enable-background:new 0 0 24 24;" xml:space="preserve">
<style type="text/css">
	.st0{display:none;}
	.st1{display:inline;}
	.st2{fill:none;stroke:#000000;stroke-linecap:round;stroke-linejoin:round;stroke-miterlimit:10;}
</style>
<g id="Filled_Icons" class="st0">
	<g class="st1">
		<path d="M17.4,9.7C14.7,6.3,10,3,5.5,3C3.9,3,2,3.4,0,4.5v11.1c2,1,3.9,1.5,5.5,1.5c4.5,0,9.2-3.3,11.9-6.7
			C17.5,10.1,17.5,9.9,17.4,9.7z M5.5,14.5C3,14.5,1,12.5,1,10c0-2.5,2-4.5,4.5-4.5S10,7.5,10,10C10,12.5,8,14.5,5.5,14.5z"/>
		<g>
			<path d="M5.5,12.5C4.1,12.5,3,11.4,3,10c0-0.3,0.2-0.5,0.5-0.5S4,9.7,4,10c0,0.8,0.7,1.5,1.5,1.5S7,10.8,7,10S6.3,8.5,5.5,8.5
				C5.2,8.5,5,8.3,5,8s0.2-0.5,0.5-0.5C6.9,7.5,8,8.6,8,10S6.9,12.5,5.5,12.5z"/>
		</g>
		<path d="M17.4,14.3c-0.2-0.3-0.7-0.3-0.8,0c-0.3,0.5-2.9,4.7-2.9,6.4c0,1.9,1.5,3.4,3.4,3.4s3.4-1.5,3.4-3.4
			C20.3,19,17.7,14.7,17.4,14.3z"/>
	</g>
</g>
<g id="Outline_Icons">
	<g>
		<g>
			<path class="st2" d="M0.5,4.5c1.4-0.6,2.9-1,4.4-1c6.4,0,11.5,6.5,11.5,6.5S11.3,16.5,5,16.5c-1.6,0-3.1-0.4-4.5-1"/>
			<circle class="st2" cx="5" cy="10" r="4"/>
			<path class="st2" d="M5,8c1.1,0,2,0.9,2,2c0,1.1-0.9,2-2,2s-2-0.9-2-2"/>
		</g>
		<path class="st2" d="M19.8,20.6c0,1.6-1.3,2.9-2.9,2.9s-2.9-1.3-2.9-2.9c0-1.6,2.9-6.1,2.9-6.1S19.8,19.1,19.8,20.6z"/>
	</g>
</g>
</svg>
