<?xml version="1.0" encoding="utf-8"?>
<!-- Generator: Adobe Illustrator 19.2.0, SVG Export Plug-In . SVG Version: 6.00 Build 0)  -->
<svg version="1.1" id="Layer_1" xmlns="http://www.w3.org/2000/svg" xmlns:xlink="http://www.w3.org/1999/xlink" x="0px" y="0px"
	 viewBox="0 0 24 24" style="enable-background:new 0 0 24 24;" xml:space="preserve">
<style type="text/css">
	.st0{display:none;}
	.st1{display:inline;}
	.st2{fill:none;stroke:#000000;stroke-linecap:round;stroke-linejoin:round;stroke-miterlimit:10;}
</style>
<g id="Filled_Icons" class="st0">
	<g class="st1">
		<path d="M18,17c-1.9,0-3.5,1.6-3.5,3.5S16.1,24,18,24s3.5-1.6,3.5-3.5S19.9,17,18,17z"/>
		<path d="M6,17c-1.9,0-3.5,1.6-3.5,3.5S4.1,24,6,24s3.5-1.6,3.5-3.5S7.9,17,6,17z"/>
		<circle cx="12" cy="7" r="1"/>
		<path d="M23.1,10c-0.4-0.6-0.9-1-1.6-1.1c-0.6-0.2-1.3,0-1.9,0.3l-4.1,2.2c-0.1-0.1-0.3-0.2-0.4-0.3C16.9,10,18,8.1,18,6
			c0-0.2,0-0.3,0-0.5c0,0,0,0,0,0c1.4,0,2.5-1.1,2.5-2.5S19.4,0.5,18,0.5c-0.8,0-1.5,0.4-2,1C14.9,0.6,13.5,0,12,0
			c-1.5,0-2.9,0.6-4,1.5c-0.5-0.6-1.2-1-2-1C4.6,0.5,3.5,1.6,3.5,3S4.6,5.5,6,5.5c0,0,0,0,0,0C6,5.7,6,5.8,6,6c0,2.1,1.1,4,2.8,5.1
			c-0.1,0.1-0.3,0.2-0.4,0.3L4.3,9.2C3.7,8.8,3.1,8.7,2.4,8.9C1.8,9,1.2,9.4,0.9,10c-0.7,1.2-0.4,2.7,0.8,3.4L6,16v0
			c2.5,0,4.5,2,4.5,4.5c0,0.8-0.2,1.5-0.5,2.1c0.7,0.3,1.3,0.4,2,0.4c0.7,0,1.4-0.1,2-0.4c-0.3-0.6-0.5-1.3-0.5-2.1
			c0-2.5,2-4.5,4.5-4.5v0l4.3-2.6c0.6-0.4,1-0.9,1.1-1.6C23.6,11.2,23.5,10.6,23.1,10z M18,1.5c0.8,0,1.5,0.7,1.5,1.5
			c0,0.9-0.8,1.6-1.7,1.5c-0.2-0.8-0.6-1.6-1.1-2.2C17,1.8,17.5,1.5,18,1.5z M6.2,4.5c-0.1,0-0.1,0-0.2,0C5.2,4.5,4.5,3.8,4.5,3
			S5.2,1.5,6,1.5c0.6,0,1,0.3,1.3,0.8C6.8,2.9,6.4,3.7,6.2,4.5z M14.5,3C14.8,3,15,3.2,15,3.5S14.8,4,14.5,4S14,3.8,14,3.5
			S14.2,3,14.5,3z M9.5,3C9.8,3,10,3.2,10,3.5S9.8,4,9.5,4S9,3.8,9,3.5S9.2,3,9.5,3z M8.2,8.3c0-2.1,1.7-3.8,3.8-3.8
			c2.1,0,3.8,1.7,3.8,3.8S14.1,12,12,12C9.9,12,8.2,10.3,8.2,8.3z M15.3,15.9c-0.1,0-0.2,0.1-0.2,0.1c-0.2,0-0.4-0.1-0.4-0.3
			C14,14.6,13.2,14,12,14c-1.2,0-2,0.6-2.6,1.7c-0.1,0.2-0.4,0.3-0.7,0.2c-0.2-0.1-0.3-0.4-0.2-0.7c0.8-1.5,2-2.3,3.5-2.3
			c1.5,0,2.7,0.8,3.5,2.3C15.7,15.5,15.6,15.8,15.3,15.9z"/>
	</g>
</g>
<g id="Outline_Icons">
	<g>
		<circle class="st2" cx="18" cy="20.5" r="3"/>
		<circle class="st2" cx="6" cy="20.5" r="3"/>
		<circle class="st2" cx="12" cy="6" r="5.5"/>
		<circle class="st2" cx="12" cy="8.2" r="3.2"/>
		<path class="st2" d="M16.1,2.3C16.4,1.5,17.1,1,18,1c1.1,0,2,0.9,2,2s-0.9,2-2,2c-0.2,0-0.4,0-0.5-0.1"/>
		<path class="st2" d="M6.5,4.9C6.4,5,6.2,5,6,5C4.9,5,4,4.1,4,3s0.9-2,2-2c0.9,0,1.6,0.6,1.9,1.4"/>
		<circle class="st2" cx="12" cy="7" r="0.5"/>
		<path class="st2" d="M8.9,16c0.6-1.1,1.5-2,3.1-2c1.6,0,2.5,0.9,3.1,2"/>
		<path class="st2" d="M15.1,21.4c-0.9,0.7-2,1.1-3.1,1.1c-1.1,0-2.2-0.4-3.1-1"/>
		<g>
			<path d="M9.5,3C9.2,3,9,3.2,9,3.5S9.2,4,9.5,4S10,3.8,10,3.5S9.8,3,9.5,3L9.5,3z"/>
		</g>
		<g>
			<path d="M14.5,3C14.2,3,14,3.2,14,3.5S14.2,4,14.5,4S15,3.8,15,3.5S14.8,3,14.5,3L14.5,3z"/>
		</g>
		<g>
			<path class="st2" d="M9.8,11c-0.4,0.2-0.9,0.6-1.3,1L4.1,9.6C3.1,9,1.9,9.3,1.3,10.2C0.7,11.2,1,12.4,1.9,13l4.6,2.7
				c-0.1,0.6-0.1,1.1,0,1.8"/>
		</g>
		<g>
			<path class="st2" d="M14.2,11c0.4,0.2,0.9,0.6,1.3,1l4.4-2.4c0.9-0.6,2.2-0.3,2.8,0.6c0.6,0.9,0.3,2.2-0.6,2.8l-4.6,2.7
				c0.1,0.6,0.1,1.1,0,1.8"/>
		</g>
	</g>
</g>
</svg>
