<?xml version="1.0" encoding="utf-8"?>
<!-- Generator: Adobe Illustrator 19.2.0, SVG Export Plug-In . SVG Version: 6.00 Build 0)  -->
<svg version="1.1" id="Layer_1" xmlns="http://www.w3.org/2000/svg" xmlns:xlink="http://www.w3.org/1999/xlink" x="0px" y="0px"
	 viewBox="0 0 24 24" style="enable-background:new 0 0 24 24;" xml:space="preserve">
<style type="text/css">
	.st0{display:none;}
	.st1{display:inline;}
	.st2{fill:none;stroke:#000000;stroke-linejoin:round;stroke-miterlimit:10;}
	.st3{fill:none;stroke:#000000;stroke-linecap:round;stroke-linejoin:round;stroke-miterlimit:10;}
</style>
<g id="Filled_Icon" class="st0">
	<path class="st1" d="M21,6h-4.5c0-0.1,0-0.1,0-0.2c-0.4-0.8-1-1.4-1.7-1.9l3-3c0.2-0.2,0.2-0.5,0-0.7s-0.5-0.2-0.7,0l-3.2,3.2
		C13.3,3.1,12.7,3,12,3s-1.3,0.1-1.9,0.4L6.9,0.1C6.7,0,6.3,0,6.1,0.1C6,0.3,6,0.7,6.1,0.9l3,3C8.5,4.4,7.9,5,7.5,5.8
		c0,0.1,0,0.1,0,0.2H3C1.3,6,0,7.3,0,9v11c0,1.7,1.3,3,3,3h18c1.7,0,3-1.3,3-3V9C24,7.3,22.7,6,21,6z M17,18.5c0,2.5-4.5,2.5-6,2.5
		H8c-1.5,0-6,0-6-2.5v-8C2,8,6.5,8,8,8h3c1.5,0,6,0,6,2.5V18.5z M20,18c-1.1,0-2-0.9-2-2s0.9-2,2-2s2,0.9,2,2S21.1,18,20,18z M20,13
		c-1.1,0-2-0.9-2-2s0.9-2,2-2s2,0.9,2,2S21.1,13,20,13z"/>
</g>
<g id="Outline_Icons">
	<g>
		<path class="st2" d="M2.5,15c0,0,0,2.5,0,3.5s1,2,5.5,2c3,0,0,0,3,0c4.5,0,5.5-1,5.5-2s0-3.5,0-3.5s0-3.5,0-4.5s-1-2-5.5-2
			c-3,0,0,0-3,0c-4.5,0-5.5,1-5.5,2S2.5,15,2.5,15z"/>
		<path class="st3" d="M16,6.5V6c-0.7-1.5-2.3-2.5-4-2.5c-1.8,0-3.3,1-4,2.5v0.5"/>
		<line class="st3" x1="14" y1="4" x2="17.5" y2="0.5"/>
		<line class="st3" x1="10" y1="4" x2="6.5" y2="0.5"/>
		<path class="st2" d="M23.5,19.5c0,1.6-1.3,3-3,3h-17c-1.6,0-3-1.4-3-3v-10c0-1.6,1.4-3,3-3h17c1.7,0,3,1.4,3,3V19.5z"/>
		<path class="st2" d="M21.5,11c0,0.8-0.7,1.5-1.5,1.5l0,0c-0.8,0-1.5-0.7-1.5-1.5l0,0c0-0.8,0.7-1.5,1.5-1.5l0,0
			C20.8,9.5,21.5,10.2,21.5,11L21.5,11z"/>
		<path class="st2" d="M21.5,16c0,0.8-0.7,1.5-1.5,1.5l0,0c-0.8,0-1.5-0.7-1.5-1.5l0,0c0-0.8,0.7-1.5,1.5-1.5l0,0
			C20.8,14.5,21.5,15.2,21.5,16L21.5,16z"/>
	</g>
</g>
</svg>
