<?xml version="1.0" encoding="utf-8"?>
<!-- Generator: Adobe Illustrator 19.2.0, SVG Export Plug-In . SVG Version: 6.00 Build 0)  -->
<svg version="1.1" id="Layer_1" xmlns="http://www.w3.org/2000/svg" xmlns:xlink="http://www.w3.org/1999/xlink" x="0px" y="0px"
	 viewBox="0 0 24 24" style="enable-background:new 0 0 24 24;" xml:space="preserve">
<style type="text/css">
	.st0{display:none;}
	.st1{display:inline;}
	.st2{fill:none;stroke:#000000;stroke-linejoin:round;stroke-miterlimit:10;}
	.st3{fill:none;stroke:#000000;stroke-linecap:round;stroke-linejoin:round;stroke-miterlimit:10;}
</style>
<g id="Filled_Icons" class="st0">
	<g class="st1">
		<path d="M21.5,5H11.1l4.1-4.1c0.2-0.2,0.2-0.5,0-0.7C15,0,14.7,0,14.5,0.2L9.7,5H9.4L4.6,0.2C4.4,0,4,0,3.9,0.2
			c-0.2,0.2-0.2,0.5,0,0.7L8,5H2.5C1.1,5,0,6.1,0,7.5v14C0,22.9,1.1,24,2.5,24h19c1.4,0,2.5-1.1,2.5-2.5v-14C24,6.1,22.9,5,21.5,5z
			 M17.5,17.5c0,2.5-2,4.5-4.5,4.5H6c-2.5,0-4.5-2-4.5-4.5v-6C1.5,9,3.5,7,6,7h7c2.5,0,4.5,2,4.5,4.5V17.5z M22,21.5
			c0,0.3-0.2,0.5-0.5,0.5h-2c-0.3,0-0.5-0.2-0.5-0.5v-3c0-0.3,0.2-0.5,0.5-0.5h2c0.3,0,0.5,0.2,0.5,0.5V21.5z M22,16.5
			c0,0.3-0.2,0.5-0.5,0.5h-2c-0.3,0-0.5-0.2-0.5-0.5v-8C19,8.2,19.2,8,19.5,8h2C21.8,8,22,8.2,22,8.5V16.5z"/>
		<g>
			<path d="M10.9,12.4C10.5,12.2,10,12,9.5,12c-0.7,0-1.3,0.3-1.8,0.7C7.3,13.2,7,13.8,7,14.5c0,0.5,0.1,1,0.4,1.4L10.9,12.4z"/>
			<path d="M11.6,13.1l-3.5,3.5c1,0.6,2.3,0.5,3.1-0.3c0.5-0.5,0.7-1.1,0.7-1.8C12,14,11.9,13.5,11.6,13.1z"/>
			<path d="M12.7,11.3c-0.8-0.8-2-1.3-3.2-1.3s-2.3,0.5-3.2,1.3c-0.9,0.9-1.3,2-1.3,3.2s0.5,2.3,1.3,3.2c0.8,0.9,2,1.3,3.2,1.3
				s2.3-0.5,3.2-1.3s1.3-2,1.3-3.2S13.5,12.2,12.7,11.3z M12,17c-0.7,0.7-1.5,1-2.5,1c-0.9,0-1.8-0.4-2.5-1c-0.7-0.7-1-1.5-1-2.5
				c0-0.9,0.4-1.8,1-2.5c1.3-1.3,3.6-1.3,4.9,0c0.7,0.7,1,1.5,1,2.5C13,15.4,12.6,16.3,12,17z"/>
		</g>
	</g>
</g>
<g id="Outline_Icons">
	<g>
		<path class="st2" d="M23.5,21.5c0,1.1-0.9,2-2,2h-19c-1.1,0-2-0.9-2-2v-14c0-1.1,0.9-2,2-2h19c1.1,0,2,0.9,2,2V21.5z"/>
		<line class="st3" x1="4.2" y1="0.5" x2="9.1" y2="5.4"/>
		<line class="st3" x1="14.9" y1="0.5" x2="10" y2="5.4"/>
		<path class="st3" d="M17.5,17.5c0,2.2-1.8,4-4,4h-7c-2.2,0-4-1.8-4-4v-6c0-2.2,1.8-4,4-4h7c2.2,0,4,1.8,4,4V17.5z"/>
		<rect x="19.5" y="8.5" class="st2" width="2" height="8"/>
		<rect x="19.5" y="18.5" class="st2" width="2" height="3"/>
		<line class="st2" x1="12.8" y1="11.7" x2="7.3" y2="17.2"/>
		<circle class="st2" cx="10" cy="14.5" r="4"/>
	</g>
</g>
</svg>
