<?xml version="1.0" encoding="utf-8"?>
<!-- Generator: Adobe Illustrator 19.2.0, SVG Export Plug-In . SVG Version: 6.00 Build 0)  -->
<svg version="1.1" id="Layer_1" xmlns="http://www.w3.org/2000/svg" xmlns:xlink="http://www.w3.org/1999/xlink" x="0px" y="0px"
	 viewBox="0 0 24 24" style="enable-background:new 0 0 24 24;" xml:space="preserve">
<style type="text/css">
	.st0{display:none;}
	.st1{display:inline;}
	.st2{fill:none;stroke:#000000;stroke-linejoin:round;stroke-miterlimit:10;}
	.st3{fill:none;stroke:#000000;stroke-linecap:round;stroke-linejoin:round;stroke-miterlimit:10;}
</style>
<g id="Filled_Icons" class="st0">
	<g class="st1">
		<rect x="13" y="15" width="7" height="2"/>
		<path d="M22.5,12H15c0.3,0,0.5-0.2,0.5-0.5c0-0.3-0.2-0.5-0.5-0.5h-3v-1h6.5c0.3,0,0.5-0.2,0.5-0.5v-9C19,0.2,18.8,0,18.5,0h-14
			C4.2,0,4,0.2,4,0.5v9C4,9.8,4.2,10,4.5,10H11v1H8c-0.3,0-0.5,0.2-0.5,0.5C7.5,11.8,7.7,12,8,12H0.5C0.2,12,0,12.2,0,12.5v11
			C0,23.8,0.2,24,0.5,24H4c0.2,0,0.4-0.1,0.4-0.3L6.3,20h10.4l1.9,3.7c0.1,0.2,0.3,0.3,0.4,0.3h3.5c0.3,0,0.5-0.2,0.5-0.5v-11
			C23,12.2,22.8,12,22.5,12z M5,1h13v8H5V1z M11,17.5c0,0.3-0.2,0.5-0.5,0.5h-8C2.2,18,2,17.8,2,17.5v-3C2,14.2,2.2,14,2.5,14h8
			c0.3,0,0.5,0.2,0.5,0.5V17.5z M21,17.5c0,0.3-0.2,0.5-0.5,0.5h-8c-0.3,0-0.5-0.2-0.5-0.5v-3c0-0.3,0.2-0.5,0.5-0.5h8
			c0.3,0,0.5,0.2,0.5,0.5V17.5z"/>
		<rect x="3" y="15" width="7" height="2"/>
	</g>
</g>
<g id="Outline_Icons">
	<g>
		<polygon class="st2" points="0.5,12.5 22.5,12.5 22.5,23.5 19,23.5 17,19.5 6,19.5 4,23.5 0.5,23.5 		"/>
		<rect x="2.5" y="14.5" class="st2" width="8" height="3"/>
		<rect x="12.5" y="14.5" class="st2" width="8" height="3"/>
		<rect x="4.5" y="0.5" class="st3" width="14" height="9"/>
		<line class="st3" x1="11.5" y1="9.5" x2="11.5" y2="11.5"/>
		<line class="st3" x1="8" y1="11.5" x2="15" y2="11.5"/>
	</g>
</g>
</svg>
