<?xml version="1.0" encoding="utf-8"?>
<!-- Generator: Adobe Illustrator 19.2.0, SVG Export Plug-In . SVG Version: 6.00 Build 0)  -->
<svg version="1.1" id="Outline_Icons" xmlns="http://www.w3.org/2000/svg" xmlns:xlink="http://www.w3.org/1999/xlink" x="0px"
	 y="0px" viewBox="0 0 24 24" style="enable-background:new 0 0 24 24;" xml:space="preserve">
<style type="text/css">
	.st0{fill:none;stroke:#000000;stroke-linecap:round;stroke-linejoin:round;stroke-miterlimit:10;}
	.st1{fill:none;stroke:#000000;stroke-linejoin:round;stroke-miterlimit:10;}
</style>
<g>
	<circle class="st0" cx="5" cy="21.5" r="2"/>
	<circle class="st0" cx="19" cy="21.5" r="2"/>
	<line class="st0" x1="7" y1="21.5" x2="17" y2="21.5"/>
	<polyline class="st0" points="7.5,12.5 6,12.5 4.5,15.5 	"/>
	<polyline class="st0" points="3,21.5 0.5,21.5 0.5,17 2.5,15 5,10.5 9.5,10.5 9.5,19.5 	"/>
	<line class="st0" x1="0.5" y1="19.5" x2="23.5" y2="19.5"/>
	<rect x="9.5" y="8.5" class="st1" width="14" height="11"/>
	<path class="st0" d="M19.9,5.4c-1.4,1.3-3.5,1.3-4.9,0l4.9-4.9C21.2,1.9,21.2,4,19.9,5.4z"/>
	<polygon class="st0" points="20.1,5.2 22.5,8.5 17.6,8.5 	"/>
	<line class="st0" x1="17.4" y1="3" x2="15.6" y2="1.2"/>
	<g>
		<polyline class="st0" points="17.4,11.4 18.8,16.5 20.3,11.4 		"/>
		<g>
			<line class="st0" x1="14.5" y1="16.5" x2="14.5" y2="11.5"/>
			<line class="st0" x1="13" y1="11.5" x2="16" y2="11.5"/>
		</g>
	</g>
</g>
</svg>
