<?xml version="1.0" encoding="utf-8"?>
<!-- Generator: Adobe Illustrator 19.2.0, SVG Export Plug-In . SVG Version: 6.00 Build 0)  -->
<svg version="1.1" id="Layer_1" xmlns="http://www.w3.org/2000/svg" xmlns:xlink="http://www.w3.org/1999/xlink" x="0px" y="0px"
	 viewBox="0 0 24 24" style="enable-background:new 0 0 24 24;" xml:space="preserve">
<style type="text/css">
	.st0{display:none;}
	.st1{display:inline;}
	.st2{fill:none;stroke:#000000;stroke-linecap:round;stroke-linejoin:round;stroke-miterlimit:10;}
	.st3{fill:none;stroke:#000000;stroke-width:2;stroke-linecap:round;stroke-linejoin:round;stroke-miterlimit:10;}
</style>
<g id="Filled_Icons" class="st0">
	<g class="st1">
		<path d="M21,16.8l-5.6-1.6c0.2-0.2,0.5-0.4,0.7-0.7h-1.2c-0.1,0.1-0.3,0.2-0.4,0.2c-1,0.8-2.1,1.3-2.7,1.3c-1.3,0-4.5-1.9-4.5-4.5
			C7.3,11.2,7,11,6.8,11c-0.5,0-0.6-0.7-0.6-1c0-0.3,0.1-1,0.6-1C7,9,7.2,8.8,7.3,8.6l0.4-2.1c2.6-0.1,3.6-0.8,4.1-1.6
			c0.5,0.8,1.5,1.5,4.1,1.6l0.4,2.1c0,0.2,0.3,0.4,0.5,0.4c0.5,0,0.6,0.7,0.6,1c0,0.3-0.1,1-0.6,1c-0.3,0-0.5,0.2-0.5,0.5
			c0,0.1,0,0.2,0,0.3h1.2c0,0,0.1,0,0.1,0c0.2-0.1,0.4-0.3,0.5-0.5h0.1h0.6c0.1,0,0.3,0,0.4,0v0.3l0,0l0,0c0,0.1,0,0.2,0,0.3
			c-0.2,0.7-0.9,0.9-1.7,0.9c-3.4,0,0.6,0-3,0c-0.1-0.2-0.6-0.4-0.9-0.4h0h-2c-0.4,0-0.8,0.4-0.8,0.8c0,0.4,0.3,0.8,0.8,0.8h2
			c0.3,0,0.8-0.2,0.9-0.5c3.5,0-0.5,0,3,0c1,0,2.3-0.5,2.4-1.6c0-0.1,0-0.1,0-0.2c0-0.1,0-0.8,0-0.8c0.5-0.4,0.9-1,0.9-1.7
			c0-0.4-0.1-0.8-0.4-1.1c-0.4-0.6-1-0.9-1.7-0.9h-0.2l0.2-1.6c0-0.1,0.2-2-1.2-3.5c-1.2-1.3-3.1-2-5.8-2C9.2,0,7.2,0.7,6,2
			C4.6,3.6,4.8,5.5,4.8,5.6l0.5,3.6C5.2,9.4,5.1,9.7,5.1,10c0,1,0.5,1.7,1.1,1.9c0.1,1.4,0.9,2.5,1.9,3.4l-5.2,1.5
			C1.2,17.4,0,19.1,0,21v3h24v-3C24,19.1,22.8,17.4,21,16.8z"/>
		<path d="M11.3,9.5c0-0.3-0.1-0.5-0.3-0.7c-0.3-0.3-0.7-0.3-1.1-0.3H9.8H9.6c-0.4,0-0.8,0-1.1,0.3C8.4,9,8.3,9.2,8.3,9.5
			c0,0.3,0.2,0.5,0.5,0.5C9,10,9.3,9.8,9.3,9.5c0.1,0,0.2,0,0.4,0h0.1h0.1c0.1,0,0.3,0,0.4,0c0,0.3,0.2,0.5,0.5,0.5
			C11,10,11.3,9.8,11.3,9.5z"/>
		<path d="M13.3,9.5c0.1,0,0.3,0,0.4,0h0.1h0.1c0.1,0,0.3,0,0.4,0c0,0.3,0.2,0.5,0.5,0.5c0.3,0,0.5-0.2,0.5-0.5
			c0-0.3-0.1-0.5-0.3-0.7c-0.3-0.3-0.7-0.3-1.1-0.3h-0.1h-0.1c-0.4,0-0.8,0-1.1,0.3c-0.2,0.2-0.3,0.4-0.3,0.7c0,0.3,0.2,0.5,0.5,0.5
			C13,10,13.3,9.8,13.3,9.5z"/>
	</g>
</g>
<g id="Outline_Icons">
	<g>
		<path class="st2" d="M16.5,6c-4,0-4-1.5-4.5-2c-0.5,0.5-0.5,2-4.5,2"/>
		<path class="st2" d="M18,7.5l0.5-2c0,0,0.5-5-6.5-5s-6.5,5-6.5,5l0.5,3c-1,0.5-0.5,3,1,3c0,3,3.5,5,5,5c0.6,0,1.7-0.3,2.6-1"/>
		<path class="st2" d="M9.4,15.5l-6.3,1.8c-1.6,0.6-2.6,2.1-2.6,3.7v2.5h23V21c0-1.7-1-3.2-2.6-3.7l-6.3-1.8"/>
		<path class="st2" d="M19.5,10.5v1c-0.2,0.9-1,2-2,2h-4"/>
		<path class="st2" d="M20.5,9c0,0.8-0.7,1.5-1.5,1.5h-1v-3h1C19.8,7.5,20.5,8.2,20.5,9z"/>
		<line class="st3" x1="13.5" y1="13.5" x2="11.5" y2="13.5"/>
		<path class="st2" d="M9,9c0-0.6,0.4-0.5,1-0.5c0.6,0,1-0.1,1,0.5"/>
		<path class="st2" d="M13,9c0-0.6,0.4-0.5,1-0.5c0.6,0,1-0.1,1,0.5"/>
	</g>
</g>
</svg>
