<?xml version="1.0" encoding="utf-8"?>
<!-- Generator: Adobe Illustrator 19.2.0, SVG Export Plug-In . SVG Version: 6.00 Build 0)  -->
<svg version="1.1" id="Layer_1" xmlns="http://www.w3.org/2000/svg" xmlns:xlink="http://www.w3.org/1999/xlink" x="0px" y="0px"
	 viewBox="0 0 24 24" style="enable-background:new 0 0 24 24;" xml:space="preserve">
<style type="text/css">
	.st0{display:none;}
	.st1{display:inline;}
	.st2{fill:none;stroke:#000000;stroke-linecap:round;stroke-linejoin:round;stroke-miterlimit:10;}
</style>
<g id="Filled_Icons" class="st0">
	<g class="st1">
		<path d="M14,15.8V2.5C14,1.1,12.9,0,11.5,0C10.1,0,9,1.1,9,2.5v13.3c-1.2,0.8-2,2.2-2,3.7C7,22,9,24,11.5,24c2.5,0,4.5-2,4.5-4.5
			C16,18,15.2,16.6,14,15.8z M11.5,21c-0.8,0-1.5-0.7-1.5-1.5c0-0.6,0.4-1.2,1-1.4V2.5C11,2.2,11.2,2,11.5,2C11.8,2,12,2.2,12,2.5
			v15.6c0.6,0.2,1,0.8,1,1.4C13,20.3,12.3,21,11.5,21z"/>
		<path d="M18.5,2h-3C15.2,2,15,2.2,15,2.5C15,2.8,15.2,3,15.5,3h3C18.8,3,19,2.8,19,2.5S18.8,2,18.5,2z"/>
		<path d="M16.5,7h-1C15.2,7,15,7.2,15,7.5C15,7.8,15.2,8,15.5,8h1C16.8,8,17,7.8,17,7.5C17,7.2,16.8,7,16.5,7z"/>
		<path d="M16.5,12h-1c-0.3,0-0.5,0.2-0.5,0.5s0.2,0.5,0.5,0.5h1c0.3,0,0.5-0.2,0.5-0.5C17,12.2,16.8,12,16.5,12z"/>
	</g>
</g>
<g id="Outline_Icons">
	<g>
		<path class="st2" d="M13.5,16V2.5c0-1.1-0.9-2-2-2s-2,0.9-2,2V16c-1.2,0.7-2,2-2,3.5c0,2.2,1.8,4,4,4c2.2,0,4-1.8,4-4
			C15.5,18,14.7,16.7,13.5,16z"/>
		<circle class="st2" cx="11.5" cy="19.5" r="1"/>
		<line class="st2" x1="11.5" y1="18.5" x2="11.5" y2="2.5"/>
		<line class="st2" x1="15.5" y1="2.5" x2="18.5" y2="2.5"/>
		<line class="st2" x1="15.5" y1="7.5" x2="16.5" y2="7.5"/>
		<line class="st2" x1="15.5" y1="12.5" x2="16.5" y2="12.5"/>
	</g>
</g>
</svg>
