<?xml version="1.0" encoding="utf-8"?>
<!-- Generator: Adobe Illustrator 19.2.0, SVG Export Plug-In . SVG Version: 6.00 Build 0)  -->
<svg version="1.1" id="Layer_1" xmlns="http://www.w3.org/2000/svg" xmlns:xlink="http://www.w3.org/1999/xlink" x="0px" y="0px"
	 viewBox="0 0 24 24" style="enable-background:new 0 0 24 24;" xml:space="preserve">
<style type="text/css">
	.st0{display:none;}
	.st1{display:inline;}
	.st2{fill:none;stroke:#000000;stroke-linejoin:round;stroke-miterlimit:10;}
	.st3{fill:none;stroke:#000000;stroke-linecap:round;stroke-linejoin:round;stroke-miterlimit:10;}
</style>
<g id="Filled_Icons" class="st0">
	<g class="st1">
		<path d="M22.1,2.3c-1.2-1.2-2.9-1.9-4.7-1.9c-2.1,0-4.3,0.9-5.9,2.6c-2,2-2.9,4.8-2.4,7.2l0,0c-0.3,2.7-1,5.1-1.2,5.6l-2.7,2.7
			l-0.3-0.3c-0.1-0.1-0.2-0.1-0.4-0.1c-0.1,0-0.3,0.1-0.4,0.1l-3.2,3.2c-0.3,0.3-0.4,0.7-0.4,1.1s0.2,0.8,0.4,1.1
			C1.2,23.9,1.6,24,2,24s0.8-0.2,1.1-0.4l3.2-3.2c0.2-0.2,0.2-0.5,0-0.7l-0.4-0.4l2.7-2.7c0.5-0.2,3-0.9,5.7-1.2
			c0.4,0.1,0.8,0.1,1.2,0.1c2.1,0,4.3-0.9,6-2.6c1.5-1.5,2.4-3.4,2.5-5.4S23.4,3.6,22.1,2.3z M22.9,7.4c0,0.6-0.2,1.2-0.4,1.7
			L21.4,8l1.5-1.5C22.9,6.7,22.9,7.1,22.9,7.4z M11.9,13.2l2.4-2.4l1.4,1.4l-2,2C13,14,12.4,13.7,11.9,13.2z M10.3,6.8L11.5,8
			L9.9,9.5C9.8,8.6,10,7.7,10.3,6.8z M17.8,5.8l-1.4,1.4L15,5.8l1.4-1.4L17.8,5.8z M17.1,3.7l2-2c0.7,0.2,1.3,0.5,1.8,1l-2.4,2.4
			L17.1,3.7z M18.5,6.5L19.9,8l-1.4,1.4L17.1,8L18.5,6.5z M15.7,8l-1.4,1.4L12.9,8l1.4-1.4L15.7,8z M14.3,5.1l-1.8-1.8
			c0.5-0.5,1.1-0.8,1.7-1.1l1.5,1.5L14.3,5.1z M13.6,5.8l-1.4,1.4l-1.5-1.5C11,5.1,11.4,4.5,11.8,4L13.6,5.8z M12.2,8.7l1.4,1.4
			l-2.5,2.5c-0.4-0.5-0.8-1.2-1-1.8L12.2,8.7z M15,10.1l1.4-1.4l1.4,1.4l-1.4,1.4L15,10.1z M18.5,10.8l1.7,1.7
			c-0.5,0.5-1.1,0.8-1.7,1.1L17,12.1L18.5,10.8z M19.2,10.1l1.4-1.4l1.5,1.5c-0.3,0.6-0.7,1.2-1.1,1.7L19.2,10.1z M22.7,5.2l-2,2
			l-1.4-1.4l2.5-2.5C22.1,3.9,22.5,4.5,22.7,5.2z M17.9,1.5L16.4,3l-1.2-1.2c0.7-0.2,1.5-0.4,2.2-0.4C17.6,1.4,17.8,1.5,17.9,1.5z
			 M9,15.3c0.2-0.7,0.5-1.8,0.7-3.1c0.3,0.5,0.6,1,1,1.4s0.9,0.8,1.4,1C10.9,14.9,9.7,15.1,9,15.3z M14.9,14.4l1.5-1.5l1.2,1.2
			c-0.7,0.2-1.5,0.4-2.2,0.4C15.2,14.5,15.1,14.4,14.9,14.4z"/>
		<circle cx="4.4" cy="4" r="3"/>
	</g>
</g>
<g id="Outline_Icons">
	<g>
		<path class="st2" d="M14.2,14.9c-3.1,0.3-5.9,1.2-5.9,1.2s0.9-2.8,1.2-5.9"/>
		<line class="st3" x1="8.3" y1="16.1" x2="5.1" y2="19.3"/>
		<ellipse transform="matrix(0.7071 -0.7071 0.7071 0.7071 -0.8063 13.8961)" class="st2" cx="16.4" cy="7.9" rx="7.5" ry="6.5"/>
		<line class="st2" x1="14.3" y1="1.6" x2="22.7" y2="10"/>
		<line class="st2" x1="11.8" y1="3.4" x2="21" y2="12.5"/>
		<line class="st2" x1="10" y1="5.8" x2="18.5" y2="14.3"/>
		<line class="st2" x1="19" y1="1.1" x2="9.6" y2="10.6"/>
		<line class="st2" x1="21.7" y1="2.6" x2="11.1" y2="13.2"/>
		<line class="st2" x1="23.2" y1="5.4" x2="13.8" y2="14.8"/>
		<circle class="st2" cx="4.4" cy="4" r="2.5"/>
		<path class="st3" d="M2.7,23.2c-0.2,0.2-0.4,0.3-0.7,0.3s-0.5-0.1-0.7-0.3c-0.4-0.4-0.4-1,0-1.4l3.2-3.2L5.9,20L2.7,23.2z"/>
	</g>
</g>
</svg>
