<?xml version="1.0" encoding="utf-8"?>
<!-- Generator: Adobe Illustrator 19.2.0, SVG Export Plug-In . SVG Version: 6.00 Build 0)  -->
<svg version="1.1" id="Layer_1" xmlns="http://www.w3.org/2000/svg" xmlns:xlink="http://www.w3.org/1999/xlink" x="0px" y="0px"
	 viewBox="0 0 24 24" style="enable-background:new 0 0 24 24;" xml:space="preserve">
<style type="text/css">
	.st0{display:none;}
	.st1{display:inline;}
	.st2{fill:none;stroke:#000000;stroke-linejoin:round;stroke-miterlimit:10;}
</style>
<g id="Filled_Icons" class="st0">
	<g class="st1">
		<polygon points="5.6,12 17.4,12 16,9 7,9 		"/>
		<path d="M15.5,8l-3.5-7.2c-0.2-0.3-0.7-0.3-0.9,0L7.5,8H15.5z"/>
	</g>
	<path class="st1" d="M22.9,23.3l-5-10.3H5.1l-5,10.3c-0.1,0.2-0.1,0.3,0,0.5C0.2,23.9,0.3,24,0.5,24h5.3l5.2-9.6V24h1v-9.6l5.3,9.6
		h5.2c0.2,0,0.3-0.1,0.4-0.2C23,23.6,23,23.4,22.9,23.3z"/>
</g>
<g id="Outline_Icons">
	<g>
		<polygon class="st2" points="0.5,23.5 22.5,23.5 11.5,1 		"/>
		<line class="st2" x1="11.5" y1="23.5" x2="11.5" y2="14.5"/>
		<polyline class="st2" points="6.6,23.5 11.5,14.5 16.5,23.5 		"/>
		<line class="st2" x1="5.9" y1="12.5" x2="17.1" y2="12.5"/>
		<line class="st2" x1="7.9" y1="8.5" x2="15.2" y2="8.5"/>
	</g>
</g>
</svg>
