<?xml version="1.0" encoding="utf-8"?>
<!-- Generator: Adobe Illustrator 19.2.0, SVG Export Plug-In . SVG Version: 6.00 Build 0)  -->
<svg version="1.1" id="Layer_1" xmlns="http://www.w3.org/2000/svg" xmlns:xlink="http://www.w3.org/1999/xlink" x="0px" y="0px"
	 viewBox="0 0 24 24" style="enable-background:new 0 0 24 24;" xml:space="preserve">
<style type="text/css">
	.st0{display:none;}
	.st1{display:inline;}
	.st2{fill:none;stroke:#000000;stroke-linecap:round;stroke-linejoin:round;stroke-miterlimit:10;}
</style>
<g id="Filled_Icons" class="st0">
	<g class="st1">
		<path d="M21.5,19.5H18v-4c0-0.3-0.2-0.5-0.5-0.5h-4c-0.3,0-0.5,0.2-0.5,0.5v4H9.5C9.2,19.5,9,19.7,9,20v3.5C9,23.8,9.2,24,9.5,24
			h12c0.3,0,0.5-0.2,0.5-0.5V20C22,19.7,21.8,19.5,21.5,19.5z"/>
		<path d="M23.5,4H20V0.5C20,0.2,19.8,0,19.5,0h-4C15.2,0,15,0.2,15,0.5v8C15,8.8,15.2,9,15.5,9H19v3.5c0,0.3,0.2,0.5,0.5,0.5h4
			c0.3,0,0.5-0.2,0.5-0.5v-8C24,4.2,23.8,4,23.5,4z"/>
		<path d="M0.5,11h12c0.3,0,0.5-0.2,0.5-0.5v-3C13,7.2,12.8,7,12.5,7H5V3.5C5,3.2,4.8,3,4.5,3h-4C0.2,3,0,3.2,0,3.5v7
			C0,10.8,0.2,11,0.5,11z"/>
		<path d="M12,19c0.3,0,0.5-0.2,0.5-0.5V12c0-0.3-0.2-0.5-0.5-0.5H0.5C0.2,11.5,0,11.7,0,12v3c0,0.3,0.2,0.5,0.5,0.5h8v3
			C8.5,18.8,8.7,19,9,19H12z"/>
		<path d="M7.5,16h-7C0.2,16,0,16.2,0,16.5v7C0,23.8,0.2,24,0.5,24h7C7.8,24,8,23.8,8,23.5v-7C8,16.2,7.8,16,7.5,16z"/>
	</g>
</g>
<g id="Outline_Icons">
	<g>
		<polygon class="st2" points="16.5,19.5 16.5,15.5 12.5,15.5 12.5,19.5 8.5,19.5 8.5,23.5 20.5,23.5 20.5,19.5 		"/>
		<polygon class="st2" points="19.5,4.5 19.5,0.5 15.5,0.5 15.5,8.5 19.5,8.5 19.5,12.5 23.5,12.5 23.5,4.5 		"/>
		<polygon class="st2" points="4.5,7.5 4.5,3.5 0.5,3.5 0.5,11.5 12.5,11.5 12.5,7.5 		"/>
		<polygon class="st2" points="0.5,11.5 0.5,15.5 8.5,15.5 8.5,19.5 12.5,19.5 12.5,11.5 		"/>
		<rect x="0.5" y="15.5" class="st2" width="8" height="8"/>
	</g>
</g>
</svg>
