<?xml version="1.0" encoding="utf-8"?>
<!-- Generator: Adobe Illustrator 19.2.0, SVG Export Plug-In . SVG Version: 6.00 Build 0)  -->
<svg version="1.1" id="Layer_1" xmlns="http://www.w3.org/2000/svg" xmlns:xlink="http://www.w3.org/1999/xlink" x="0px" y="0px"
	 viewBox="0 0 24 24" style="enable-background:new 0 0 24 24;" xml:space="preserve">
<style type="text/css">
	.st0{display:none;}
	.st1{display:inline;}
	.st2{fill:none;stroke:#000000;stroke-linecap:round;stroke-linejoin:round;stroke-miterlimit:10;}
</style>
<g id="Filled_Icon" class="st0">
	<g class="st1">
		<path d="M0,16c0,0.6,0.4,1,1,1h22c0.6,0,1-0.4,1-1V7c0-0.6-0.4-1-1-1H1C0.4,6,0,6.4,0,7V16z M2,8h20v7H2V8z"/>
		<path d="M4,9c-0.6,0-1,0.4-1,1v3c0,0.6,0.4,1,1,1s1-0.4,1-1v-3C5,9.4,4.6,9,4,9z"/>
	</g>
</g>
<g id="Outline_Icons">
	<g>
		<rect x="0.5" y="7.5" class="st2" width="23" height="9"/>
		<line class="st2" x1="3.5" y1="9.5" x2="3.5" y2="14.5"/>
	</g>
</g>
</svg>
