<?xml version="1.0" encoding="utf-8"?>
<!-- Generator: Adobe Illustrator 19.2.0, SVG Export Plug-In . SVG Version: 6.00 Build 0)  -->
<svg version="1.1" id="Layer_1" xmlns="http://www.w3.org/2000/svg" xmlns:xlink="http://www.w3.org/1999/xlink" x="0px" y="0px"
	 viewBox="0 0 24 24" style="enable-background:new 0 0 24 24;" xml:space="preserve">
<style type="text/css">
	.st0{display:none;}
	.st1{display:inline;}
	.st2{fill:none;stroke:#000000;stroke-linecap:round;stroke-linejoin:round;stroke-miterlimit:10;}
</style>
<g id="Filled_Icon" class="st0">
	<g class="st1">
		<path d="M0,14c0,0.6,0.4,1,1,1s1-0.4,1-1v-1c0-0.6-0.4-1-1-1s-1,0.4-1,1V14z"/>
		<path d="M0,10c0,0.6,0.4,1,1,1s1-0.4,1-1V9.5h0.5c0.6,0,1-0.4,1-1s-0.4-1-1-1H1c-0.6,0-1,0.4-1,1V10z"/>
		<path d="M5.5,9.5h1c0.6,0,1-0.4,1-1s-0.4-1-1-1h-1c-0.6,0-1,0.4-1,1S4.9,9.5,5.5,9.5z"/>
		<path d="M9.5,7.5c-0.6,0-1,0.4-1,1s0.4,1,1,1H10v-2H9.5z"/>
		<path d="M0,18.5c0,0.6,0.4,1,1,1h1.5c0.6,0,1-0.4,1-1s-0.4-1-1-1H2V17c0-0.6-0.4-1-1-1s-1,0.4-1,1V18.5z"/>
		<path d="M5.5,19.5h1c0.6,0,1-0.4,1-1s-0.4-1-1-1h-1c-0.6,0-1,0.4-1,1S4.9,19.5,5.5,19.5z"/>
		<path d="M9.5,17.5c-0.6,0-1,0.4-1,1s0.4,1,1,1H10v-2H9.5z"/>
		<path d="M24,13c0-0.6-0.4-1-1-1s-1,0.4-1,1v1c0,0.6,0.4,1,1,1s1-0.4,1-1V13z"/>
		<path d="M24,8.5c0-0.6-0.4-1-1-1h-1.5c-0.6,0-1,0.4-1,1s0.4,1,1,1H22V10c0,0.6,0.4,1,1,1s1-0.4,1-1V8.5z"/>
		<path d="M18.5,7.5h-1c-0.6,0-1,0.4-1,1s0.4,1,1,1h1c0.6,0,1-0.4,1-1S19.1,7.5,18.5,7.5z"/>
		<path d="M14.5,9.5c0.6,0,1-0.4,1-1s-0.4-1-1-1H14v2H14.5z"/>
		<path d="M23,16c-0.6,0-1,0.4-1,1v0.5h-0.5c-0.6,0-1,0.4-1,1s0.4,1,1,1H23c0.6,0,1-0.4,1-1V17C24,16.4,23.6,16,23,16z"/>
		<path d="M18.5,17.5h-1c-0.6,0-1,0.4-1,1s0.4,1,1,1h1c0.6,0,1-0.4,1-1S19.1,17.5,18.5,17.5z"/>
		<path d="M14,19.5h0.5c0.6,0,1-0.4,1-1s-0.4-1-1-1H14V19.5z"/>
		<path d="M17.5,0H16c-1.5,0-3,0.7-4,2c-1-1.3-2.5-2-4-2H6.5c-0.6,0-1,0.4-1,1s0.4,1,1,1H8c1.7,0,3,1.4,3,3v9.5H9.5
			c-0.6,0-1,0.4-1,1s0.4,1,1,1H11v3c0,1.8-1.6,2.5-3,2.5H6.5c-0.6,0-1,0.4-1,1s0.4,1,1,1H8c1.5,0,3-0.5,4-1.7c1,1.2,2.5,1.7,4,1.7
			h1.5c0.6,0,1-0.4,1-1s-0.4-1-1-1H16c-1.6,0-3-0.8-3-2.5v-3h1.5c0.6,0,1-0.4,1-1s-0.4-1-1-1H13V5c0-1.7,1.3-3,3-3h1.5
			c0.6,0,1-0.4,1-1S18.1,0,17.5,0z"/>
	</g>
</g>
<g id="Outline_Icons">
	<g>
		<line class="st2" x1="11.5" y1="4.5" x2="11.5" y2="19.5"/>
		<path class="st2" d="M6,0.5h1.5c2.2,0,4,1.8,4,4c0-2.2,1.8-4,4-4H17"/>
		<path class="st2" d="M6,23.5h1.5c2.2,0,4-1.8,4-4c0,2.2,1.8,4,4,4H17"/>
		<line class="st2" x1="9" y1="15.5" x2="14" y2="15.5"/>
		<line class="st2" x1="0.5" y1="12.5" x2="0.5" y2="14.5"/>
		<polyline class="st2" points="1.5,8.5 0.5,8.5 0.5,9.5 		"/>
		<line class="st2" x1="3.5" y1="8.5" x2="5.5" y2="8.5"/>
		<line class="st2" x1="7.5" y1="8.5" x2="9.5" y2="8.5"/>
		<polyline class="st2" points="1.5,18.5 0.5,18.5 0.5,17.5 		"/>
		<line class="st2" x1="3.5" y1="18.5" x2="5.5" y2="18.5"/>
		<line class="st2" x1="7.5" y1="18.5" x2="9.5" y2="18.5"/>
		<line class="st2" x1="22.5" y1="12.5" x2="22.5" y2="14.5"/>
		<polyline class="st2" points="21.5,8.5 22.5,8.5 22.5,9.5 		"/>
		<line class="st2" x1="19.5" y1="8.5" x2="17.5" y2="8.5"/>
		<line class="st2" x1="15.5" y1="8.5" x2="13.5" y2="8.5"/>
		<polyline class="st2" points="21.5,18.5 22.5,18.5 22.5,17.5 		"/>
		<line class="st2" x1="19.5" y1="18.5" x2="17.5" y2="18.5"/>
		<line class="st2" x1="15.5" y1="18.5" x2="13.5" y2="18.5"/>
	</g>
</g>
</svg>
