<?xml version="1.0" encoding="utf-8"?>
<!-- Generator: Adobe Illustrator 19.2.0, SVG Export Plug-In . SVG Version: 6.00 Build 0)  -->
<svg version="1.1" id="Layer_1" xmlns="http://www.w3.org/2000/svg" xmlns:xlink="http://www.w3.org/1999/xlink" x="0px" y="0px"
	 viewBox="0 0 24 24" style="enable-background:new 0 0 24 24;" xml:space="preserve">
<style type="text/css">
	.st0{display:none;}
	.st1{display:inline;}
	.st2{fill:none;stroke:#000000;stroke-linecap:round;stroke-linejoin:round;stroke-miterlimit:10;}
</style>
<g id="Filled_Icon" class="st0">
	<g class="st1">
		<path d="M24,7c0-0.6-0.4-1-1-1h-5c0.2-1.4,1.5-2.5,3-2.5c0.6,0,1-0.4,1-1s-0.4-1-1-1c-1.6,0-3.1,0.8-4,2c-0.9-1.2-2.4-2-4-2
			c-0.6,0-1,0.4-1,1s0.4,1,1,1c1.5,0,2.7,1.1,3,2.5H1C0.4,6,0,6.4,0,7v8c0,0.6,0.4,1,1,1h15c0,1.7-1.3,3-3,3c-0.6,0-1,0.4-1,1
			s0.4,1,1,1c1.6,0,3.1-0.8,4-2c0.9,1.2,2.4,2,4,2c0.6,0,1-0.4,1-1s-0.4-1-1-1c-1.7,0-3-1.3-3-3h5c0.6,0,1-0.4,1-1V7z M2,14V8h14v6
			H2z M22,14h-4V8h4V14z"/>
	</g>
</g>
<g id="Outline_Icons">
	<g>
		<line class="st2" x1="17.5" y1="7.5" x2="17.5" y2="17"/>
		<path class="st2" d="M13.5,3.5c2.2,0,4,1.8,4,4c0-2.2,1.8-4,4-4"/>
		<path class="st2" d="M13.5,21c2.2,0,4-1.8,4-4c0,2.2,1.8,4,4,4"/>
		<rect x="0.5" y="7.5" class="st2" width="23" height="9"/>
	</g>
</g>
</svg>
