<?xml version="1.0" encoding="utf-8"?>
<!-- Generator: Adobe Illustrator 19.2.0, SVG Export Plug-In . SVG Version: 6.00 Build 0)  -->
<svg version="1.1" id="Layer_1" xmlns="http://www.w3.org/2000/svg" xmlns:xlink="http://www.w3.org/1999/xlink" x="0px" y="0px"
	 viewBox="0 0 24 24" style="enable-background:new 0 0 24 24;" xml:space="preserve">
<style type="text/css">
	.st0{display:none;}
	.st1{display:inline;}
	.st2{fill:none;stroke:#000000;stroke-linecap:round;stroke-linejoin:round;stroke-miterlimit:10;}
</style>
<g id="Filled_Icon" class="st0">
	<g class="st1">
		<path d="M15,2h1.5c0.6,0,1-0.4,1-1s-0.4-1-1-1H15c-1.6,0-3.1,0.8-4,2c-0.9-1.2-2.4-2-4-2H5.5c-0.6,0-1,0.4-1,1s0.4,1,1,1H7
			c1.7,0,3,1.3,3,3v9H8.5c-0.6,0-1,0.4-1,1s0.4,1,1,1H10v3c0,1.7-1.3,3-3,3H5.5c-0.6,0-1,0.4-1,1s0.4,1,1,1H7c1.6,0,3.1-0.8,4-2
			c0.9,1.2,2.4,2,4,2h1.5c0.6,0,1-0.4,1-1s-0.4-1-1-1H15c-1.7,0-3-1.3-3-3v-3h1.5c0.6,0,1-0.4,1-1s-0.4-1-1-1H12V5
			C12,3.3,13.3,2,15,2z"/>
	</g>
</g>
<g id="Outline_Icons">
	<g>
		<line class="st2" x1="11.5" y1="4.5" x2="11.5" y2="19.5"/>
		<path class="st2" d="M6,0.5h1.5c2.2,0,4,1.8,4,4c0-2.2,1.8-4,4-4H17"/>
		<path class="st2" d="M6,23.5h1.5c2.2,0,4-1.8,4-4c0,2.2,1.8,4,4,4H17"/>
		<line class="st2" x1="9" y1="15.5" x2="14" y2="15.5"/>
	</g>
</g>
</svg>
