<?xml version="1.0" encoding="utf-8"?>
<!-- Generator: Adobe Illustrator 19.2.0, SVG Export Plug-In . SVG Version: 6.00 Build 0)  -->
<svg version="1.1" id="Layer_1" xmlns="http://www.w3.org/2000/svg" xmlns:xlink="http://www.w3.org/1999/xlink" x="0px" y="0px"
	 viewBox="0 0 24 24" style="enable-background:new 0 0 24 24;" xml:space="preserve">
<style type="text/css">
	.st0{display:none;}
	.st1{display:inline;}
	.st2{fill:none;stroke:#000000;stroke-linejoin:round;stroke-miterlimit:10;}
	.st3{fill:none;stroke:#000000;stroke-linecap:round;stroke-linejoin:round;stroke-miterlimit:10;}
</style>
<g id="Filled_Icon" class="st0">
	<g class="st1">
		<path d="M23,5V0h-5v2H5V0H0v5h2v13H0v5h5v-2h13v2h5v-5h-2V5H23z M20,18h-2v2H5v-2H3V5h2V3h13v2h2V18z"/>
		<path d="M16.5,6h-10C6.2,6,6,6.2,6,6.5v2C6,8.8,6.2,9,6.5,9S7,8.8,7,8.5V7h4v10h-1c-0.3,0-0.5,0.2-0.5,0.5S9.7,18,10,18h3
			c0.3,0,0.5-0.2,0.5-0.5S13.3,17,13,17h-1V7h4v1.5C16,8.8,16.2,9,16.5,9S17,8.8,17,8.5v-2C17,6.2,16.8,6,16.5,6z"/>
	</g>
</g>
<g id="Outline_Icons">
	<g>
		<g>
			<line class="st2" x1="20.5" y1="4.5" x2="20.5" y2="18.5"/>
			<line class="st2" x1="4.5" y1="2.5" x2="18.5" y2="2.5"/>
			<line class="st2" x1="2.5" y1="18.5" x2="2.5" y2="4.5"/>
			<line class="st2" x1="18.5" y1="20.5" x2="4.5" y2="20.5"/>
			<rect x="0.5" y="0.5" class="st3" width="4" height="4"/>
			<rect x="18.5" y="0.5" class="st3" width="4" height="4"/>
			<rect x="0.5" y="18.5" class="st3" width="4" height="4"/>
			<rect x="18.5" y="18.5" class="st3" width="4" height="4"/>
		</g>
		<g>
			<polyline class="st3" points="6.5,8.5 6.5,6.5 16.5,6.5 16.5,8.5 			"/>
			<line class="st3" x1="11.5" y1="6.5" x2="11.5" y2="17.5"/>
			<line class="st3" x1="10" y1="17.5" x2="13" y2="17.5"/>
		</g>
	</g>
</g>
</svg>
