<?xml version="1.0" encoding="utf-8"?>
<!-- Generator: Adobe Illustrator 19.2.0, SVG Export Plug-In . SVG Version: 6.00 Build 0)  -->
<svg version="1.1" id="Layer_1" xmlns="http://www.w3.org/2000/svg" xmlns:xlink="http://www.w3.org/1999/xlink" x="0px" y="0px"
	 viewBox="0 0 24 24" style="enable-background:new 0 0 24 24;" xml:space="preserve">
<style type="text/css">
	.st0{display:none;}
	.st1{display:inline;}
	.st2{fill:none;stroke:#000000;stroke-linecap:round;stroke-linejoin:round;stroke-miterlimit:10;}
</style>
<g id="Filled_Icon" class="st0">
	<path class="st1" d="M14,15.8V2.5C14,1.1,12.9,0,11.5,0S9,1.1,9,2.5v13.3c-1.2,0.8-2,2.2-2,3.7C7,22,9,24,11.5,24s4.5-2,4.5-4.5
		C16,18,15.2,16.6,14,15.8z M11.5,21c-0.8,0-1.5-0.7-1.5-1.5c0-0.7,0.4-1.2,1-1.4V7.5C11,7.2,11.2,7,11.5,7S12,7.2,12,7.5v10.6
		c0.6,0.2,1,0.8,1,1.4C13,20.3,12.3,21,11.5,21z"/>
</g>
<g id="Outline_Icons">
	<g>
		<path class="st2" d="M13.5,16V2.5c0-1.1-0.9-2-2-2s-2,0.9-2,2V16c-1.2,0.7-2,2-2,3.5c0,2.2,1.8,4,4,4s4-1.8,4-4
			C15.5,18,14.7,16.7,13.5,16z"/>
		<circle class="st2" cx="11.5" cy="19.5" r="1"/>
		<line class="st2" x1="11.5" y1="18.5" x2="11.5" y2="7.5"/>
	</g>
</g>
</svg>
