<?xml version="1.0" encoding="utf-8"?>
<!-- Generator: Adobe Illustrator 19.2.0, SVG Export Plug-In . SVG Version: 6.00 Build 0)  -->
<svg version="1.1" id="Layer_1" xmlns="http://www.w3.org/2000/svg" xmlns:xlink="http://www.w3.org/1999/xlink" x="0px" y="0px"
	 viewBox="0 0 24 24" style="enable-background:new 0 0 24 24;" xml:space="preserve">
<style type="text/css">
	.st0{display:none;}
	.st1{display:inline;}
	.st2{fill:none;stroke:#000000;stroke-linecap:round;stroke-linejoin:round;stroke-miterlimit:10;}
</style>
<g id="Filled_Icon" class="st0">
	<g class="st1">
		<path d="M20,4.5h-2.5V2c0-0.6-0.4-1-1-1s-1,0.4-1,1v2.5H13c-0.6,0-1,0.4-1,1s0.4,1,1,1h2.5V9c0,0.6,0.4,1,1,1s1-0.4,1-1V6.5H20
			c0.6,0,1-0.4,1-1S20.6,4.5,20,4.5z"/>
		<path d="M10,15.8V2.5C10,1.1,8.9,0,7.5,0S5,1.1,5,2.5v13.3c-1.2,0.8-2,2.2-2,3.7C3,22,5,24,7.5,24s4.5-2,4.5-4.5
			C12,18,11.2,16.6,10,15.8z M7.5,21C6.7,21,6,20.3,6,19.5c0-0.7,0.4-1.2,1-1.4V7.5C7,7.2,7.2,7,7.5,7S8,7.2,8,7.5v10.6
			c0.6,0.2,1,0.8,1,1.4C9,20.3,8.3,21,7.5,21z"/>
	</g>
</g>
<g id="Outline_Icons">
	<g>
		<g>
			<path class="st2" d="M9.5,16V2.5c0-1.1-0.9-2-2-2s-2,0.9-2,2V16c-1.2,0.7-2,2-2,3.5c0,2.2,1.8,4,4,4s4-1.8,4-4
				C11.5,18,10.7,16.7,9.5,16z"/>
			<circle class="st2" cx="7.5" cy="19.5" r="1"/>
			<line class="st2" x1="7.5" y1="18.5" x2="7.5" y2="7.5"/>
		</g>
		<line class="st2" x1="13" y1="5.5" x2="20" y2="5.5"/>
		<line class="st2" x1="16.5" y1="2" x2="16.5" y2="9"/>
	</g>
</g>
</svg>
