<?xml version="1.0" encoding="utf-8"?>
<!-- Generator: Adobe Illustrator 19.2.0, SVG Export Plug-In . SVG Version: 6.00 Build 0)  -->
<svg version="1.1" id="Layer_1" xmlns="http://www.w3.org/2000/svg" xmlns:xlink="http://www.w3.org/1999/xlink" x="0px" y="0px"
	 viewBox="0 0 24 24" style="enable-background:new 0 0 24 24;" xml:space="preserve">
<style type="text/css">
	.st0{display:none;}
	.st1{display:inline;}
	.st2{fill:none;stroke:#000000;stroke-linecap:round;stroke-linejoin:round;stroke-miterlimit:10;}
</style>
<g id="Filled_Icon" class="st0">
	<g class="st1">
		<path d="M21.4,14l-1.9,1.1l-0.9-0.5l1.3-0.7c0.2-0.1,0.3-0.4,0.2-0.7C20,13,19.7,12.9,19.4,13l-1.8,1l-1.2-0.7
			c-0.1-0.1-0.3-0.1-0.4,0V9.7h0.1c0.1,0,0.2,0,0.3-0.1L17.6,9l1.8,1c0.1,0,0.2,0.1,0.2,0.1c0.2,0,0.3-0.1,0.4-0.3s0.1-0.5-0.2-0.7
			l-1.3-0.8l0.9-0.5l2,1.2c0.1,0,0.2,0.1,0.2,0.1c0.2,0,0.3-0.1,0.4-0.2c0.1-0.2,0.1-0.5-0.2-0.7l-1.5-0.8l1.3-0.8
			c0.2-0.1,0.3-0.4,0.2-0.7c-0.1-0.2-0.4-0.3-0.7-0.2L20,6.4V4.5C20,4.2,19.8,4,19.5,4S19,4.2,19,4.5V7l-1,0.6V5.5
			C18,5.2,17.8,5,17.5,5S17,5.2,17,5.5v2.7l-1.2,0.7L15.7,9l-1.3-1l0,0L12,6.4V5.7l2-1.2c0.2-0.1,0.3-0.5,0.2-0.7s-0.4-0.3-0.7-0.2
			L12,4.5V3l2-1.2c0.2-0.1,0.3-0.5,0.2-0.7C14,0.9,13.7,0.8,13.5,1L12,1.9V0.5C12,0.2,11.8,0,11.5,0S11,0.2,11,0.5v1.4L9.5,1
			C9.3,0.8,9,0.9,8.9,1.1C8.7,1.4,8.8,1.7,9,1.8L11,3v1.5L9.5,3.6C9.3,3.5,9,3.6,8.8,3.8C8.7,4,8.8,4.3,9,4.5l2,1.2v0.8L8.7,8l0,0
			L8,8.5v6.1L8.7,15l0,0l2.3,1.5v1l0,0v2.6l0,0v2.3c0,0.3,0.2,0.5,0.5,0.5s0.5-0.2,0.5-0.5v-1.3l1.5,0.9c0.1,0,0.2,0.1,0.3,0.1
			c0.2,0,0.3-0.1,0.4-0.2c0.1-0.2,0.1-0.5-0.2-0.7L12,20v-1.5l1.5,0.9c0.1,0.1,0.2,0.1,0.3,0.1c0.2,0,0.3-0.1,0.4-0.2
			c0.1-0.2,0.1-0.5-0.2-0.7l-2-1.2v-0.7l2.3-1.5l0,0l1.4-0.9l0.1,0.1l1.1,0.7v2.7c0,0.3,0.2,0.5,0.5,0.5s0.5-0.2,0.5-0.5v-2.1l1,0.6
			v2.5c0,0.3,0.2,0.5,0.5,0.5s0.5-0.2,0.5-0.5v-1.9l1.2,0.7c0.1,0,0.2,0.1,0.3,0.1c0.2,0,0.3-0.1,0.4-0.2c0.1-0.2,0.1-0.5-0.2-0.7
			l-1.2-0.7l1.4-0.8c0.2-0.1,0.3-0.4,0.2-0.7C21.9,14,21.6,13.9,21.4,14z"/>
		<path d="M7,15.8V2.5C7,1.1,5.9,0,4.5,0S2,1.1,2,2.5v13.3c-1.2,0.8-2,2.2-2,3.7C0,22,2,24,4.5,24S9,22,9,19.5C9,18,8.2,16.6,7,15.8
			z M4.5,21C3.7,21,3,20.3,3,19.5c0-0.7,0.4-1.2,1-1.4V7.5C4,7.2,4.2,7,4.5,7S5,7.2,5,7.5v10.6c0.6,0.2,1,0.8,1,1.4
			C6,20.3,5.3,21,4.5,21z"/>
	</g>
</g>
<g id="Outline_Icons">
	<g>
		<polyline class="st2" points="9,14.6 11.5,16.3 15.5,13.5 15.5,9.5 11.5,6.7 9,8.4 		"/>
		<line class="st2" x1="11.5" y1="6.5" x2="11.5" y2="0.5"/>
		<polyline class="st2" points="9.3,1.4 11.5,2.8 13.8,1.4 		"/>
		<polyline class="st2" points="9.3,4.1 11.5,5.4 13.7,4 		"/>
		<line class="st2" x1="11.5" y1="16.5" x2="11.5" y2="22.5"/>
		<line class="st2" x1="11.5" y1="20.3" x2="13.7" y2="21.6"/>
		<line class="st2" x1="11.5" y1="17.6" x2="13.7" y2="19"/>
		<line class="st2" x1="15.5" y1="9.5" x2="21.4" y2="6.1"/>
		<polyline class="st2" points="19.5,4.5 19.5,7.3 21.6,8.6 		"/>
		<polyline class="st2" points="17.5,5.5 17.5,8.4 19.6,9.6 		"/>
		<polyline class="st2" points="19.5,18.5 19.5,15.7 21.6,14.5 		"/>
		<polyline class="st2" points="17.5,17.5 17.5,14.7 19.6,13.4 		"/>
		<line class="st2" x1="15.5" y1="13.5" x2="21.5" y2="16.9"/>
		<g>
			<path class="st2" d="M6.5,16V2.5c0-1.1-0.9-2-2-2s-2,0.9-2,2V16c-1.2,0.7-2,2-2,3.5c0,2.2,1.8,4,4,4s4-1.8,4-4
				C8.5,18,7.7,16.7,6.5,16z"/>
			<circle class="st2" cx="4.5" cy="19.5" r="1"/>
			<line class="st2" x1="4.5" y1="18.5" x2="4.5" y2="7.5"/>
		</g>
	</g>
</g>
</svg>
