<?xml version="1.0" encoding="utf-8"?>
<!-- Generator: Adobe Illustrator 19.2.0, SVG Export Plug-In . SVG Version: 6.00 Build 0)  -->
<svg version="1.1" id="Layer_1" xmlns="http://www.w3.org/2000/svg" xmlns:xlink="http://www.w3.org/1999/xlink" x="0px" y="0px"
	 viewBox="0 0 24 24" style="enable-background:new 0 0 24 24;" xml:space="preserve">
<style type="text/css">
	.st0{display:none;}
	.st1{display:inline;}
	.st2{fill:none;stroke:#000000;stroke-linecap:round;stroke-linejoin:round;stroke-miterlimit:10;}
</style>
<g id="Filled_Icon" class="st0">
	<g class="st1">
		<path d="M11.5,4.5C10.2,4.5,9,4.8,8,5.4v9.8c0.9,0.8,1.6,1.8,1.9,3c0.5,0.1,1.1,0.2,1.6,0.2c3.9,0,7-3.1,7-7
			C18.5,7.6,15.4,4.5,11.5,4.5z"/>
		<path d="M7,15.8V2.5C7,1.1,5.9,0,4.5,0S2,1.1,2,2.5v13.3c-1.2,0.8-2,2.2-2,3.7C0,22,2,24,4.5,24S9,22,9,19.5C9,18,8.2,16.6,7,15.8
			z M4.5,21C3.7,21,3,20.4,3,19.5c0-0.7,0.4-1.2,1-1.4V7.5C4,7.2,4.2,7,4.5,7S5,7.2,5,7.5v10.6c0.6,0.2,1,0.8,1,1.4
			C6,20.4,5.3,21,4.5,21z"/>
		<path d="M11.5,3C11.8,3,12,2.8,12,2.5v-2C12,0.2,11.8,0,11.5,0S11,0.2,11,0.5v2C11,2.8,11.2,3,11.5,3z"/>
		<path d="M18.9,3.4l-1.4,1.4c-0.2,0.2-0.2,0.5,0,0.7c0.1,0.1,0.2,0.1,0.4,0.1c0.1,0,0.3,0,0.4-0.1l1.4-1.4c0.2-0.2,0.2-0.5,0-0.7
			C19.4,3.2,19.1,3.2,18.9,3.4z"/>
		<path d="M22.5,11h-2c-0.3,0-0.5,0.2-0.5,0.5s0.2,0.5,0.5,0.5h2c0.3,0,0.5-0.2,0.5-0.5S22.8,11,22.5,11z"/>
		<path d="M18.1,17.6c-0.2-0.2-0.5-0.2-0.7,0s-0.2,0.5,0,0.7l1.4,1.4c0.1,0.1,0.2,0.1,0.4,0.1c0.1,0,0.3,0,0.4-0.1
			c0.2-0.2,0.2-0.5,0-0.7L18.1,17.6z"/>
		<path d="M11.5,20c-0.3,0-0.5,0.2-0.5,0.5v2c0,0.3,0.2,0.5,0.5,0.5s0.5-0.2,0.5-0.5v-2C12,20.2,11.8,20,11.5,20z"/>
	</g>
</g>
<g id="Outline_Icons">
	<g>
		<g>
			<path class="st2" d="M6.5,16V2.5c0-1.1-0.9-2-2-2s-2,0.9-2,2V16c-1.2,0.7-2,2-2,3.5c0,2.2,1.8,4,4,4s4-1.8,4-4
				C8.5,18,7.7,16.7,6.5,16z"/>
			<circle class="st2" cx="4.5" cy="19.5" r="1"/>
			<line class="st2" x1="4.5" y1="18.5" x2="4.5" y2="7.5"/>
		</g>
		<path class="st2" d="M9.5,5.2c0.6-0.2,1.3-0.3,2-0.3c3.6,0,6.5,2.9,6.5,6.5s-2.9,6.5-6.5,6.5c-0.5,0-1-0.1-1.5-0.2"/>
		<line class="st2" x1="11.5" y1="0.5" x2="11.5" y2="2.5"/>
		<line class="st2" x1="19.3" y1="3.7" x2="17.8" y2="5.1"/>
		<line class="st2" x1="22.5" y1="11.5" x2="20.5" y2="11.5"/>
		<line class="st2" x1="19.2" y1="19.3" x2="17.8" y2="17.9"/>
		<line class="st2" x1="11.5" y1="22.5" x2="11.5" y2="20.5"/>
	</g>
</g>
</svg>
