<?xml version="1.0" encoding="utf-8"?>
<!-- Generator: Adobe Illustrator 19.2.0, SVG Export Plug-In . SVG Version: 6.00 Build 0)  -->
<svg version="1.1" id="Layer_1" xmlns="http://www.w3.org/2000/svg" xmlns:xlink="http://www.w3.org/1999/xlink" x="0px" y="0px"
	 viewBox="0 0 24 24" style="enable-background:new 0 0 24 24;" xml:space="preserve">
<style type="text/css">
	.st0{display:none;}
	.st1{display:inline;}
	.st2{fill:none;stroke:#000000;stroke-linecap:round;stroke-linejoin:round;stroke-miterlimit:10;}
	.st3{fill:none;stroke:#000000;stroke-linejoin:round;stroke-miterlimit:10;}
</style>
<g id="Filled_Icons" class="st0">
	<g class="st1">
		<path d="M21,16.8L18,15.9c-0.3,2.1-3.3,3.6-6,3.6c-2.7,0-5.6-1.5-6-3.6l-3.1,0.9C1.2,17.4,0,19.1,0,21v3h24v-3
			C24,19.1,22.8,17.4,21,16.8z"/>
		<path d="M5.1,10.2c0.2,0.9,0.8,1.5,1.5,1.7C6.6,12.5,6.8,13,7,13.5v2c0,1.5,2.4,3,5,3c2.6,0,5-1.5,5-3v-2c0.2-0.5,0.4-1,0.5-1.6
			c0.7-0.2,1.3-0.8,1.5-1.7c0.2-0.8,0-1.5-0.4-1.9L19,5.5c0-0.1,0.2-2-1.2-3.5c-1.2-1.3-3.1-2-5.8-2C9.4,0,7.4,0.7,6.2,2
			C4.8,3.6,5,5.5,5,5.6l0.5,2.7C5,8.7,4.9,9.4,5.1,10.2z M7,2.7C8,1.6,9.7,1,12,1c2.3,0,4,0.6,5,1.7c0.6,0.6,0.8,1.3,0.9,1.8
			c-3.3,0-4.3,0.5-5,0.8c-0.3,0.1-0.6,0.2-1,0.2c-0.4,0-0.5-0.1-0.8-0.2C10.6,5,9.7,4.5,6.1,4.5C6.2,4,6.4,3.3,7,2.7z M16,7
			c0,0.3-0.2,0.5-0.5,0.5h-1C14.2,7.5,14,7.3,14,7c0-0.3,0.2-0.5,0.5-0.5h1C15.8,6.5,16,6.7,16,7z M10,7c0,0.3-0.2,0.5-0.5,0.5h-1
			C8.2,7.5,8,7.3,8,7c0-0.3,0.2-0.5,0.5-0.5h1C9.8,6.5,10,6.7,10,7z M6.1,9.1c0.6,0.4,1.3,0.6,2,0.6c1.1,0,2-0.5,2.8-0.8
			c0.5-0.2,0.9-0.4,1.1-0.4c0.2,0,0.7,0.2,1.1,0.4c0.8,0.4,1.7,0.8,2.8,0.8c0.7,0,1.4-0.2,2-0.6C18,9.4,18,9.7,18,10
			c-0.1,0.5-0.4,1-1,1h-0.5v0.5c0,2.6-3.2,4.5-4.5,4.5c-1.3,0-4.5-1.9-4.5-4.5V11H7c-0.5,0-0.9-0.5-1-1C6,9.7,6,9.4,6.1,9.1z"/>
		<path d="M10.4,13.4l0.4-0.4c0.3-0.3,0.7-0.4,1.1-0.4h0.3c0.4,0,0.8,0.2,1.1,0.4l0.4,0.4c0.1,0.1,0.2,0.1,0.4,0.1
			c0.1,0,0.3,0,0.4-0.1c0.2-0.2,0.2-0.5,0-0.7l-0.4-0.4c-0.5-0.5-1.1-0.7-1.8-0.7h-0.3c-0.7,0-1.3,0.3-1.8,0.7l-0.4,0.4
			c-0.2,0.2-0.2,0.5,0,0.7C9.8,13.5,10.2,13.5,10.4,13.4z"/>
		<circle cx="8.5" cy="3" r="0.5"/>
		<circle cx="15.5" cy="3" r="0.5"/>
		<circle cx="10.5" cy="2.5" r="0.5"/>
		<circle cx="13.5" cy="2.5" r="0.5"/>
		<circle cx="12" cy="3.5" r="0.5"/>
	</g>
</g>
<g id="Outline_Icons">
	<g>
		<path class="st2" d="M12,0.5c-7,0-6.5,5-6.5,5l0.5,3c-1,0.5-0.5,3,1,3c0,3,3.5,5,5,5"/>
		<path class="st2" d="M12,0.5c7,0,6.5,5,6.5,5l-0.5,3c1,0.5,0.5,3-1,3c0,3-3.5,5-5,5"/>
		<path class="st2" d="M7.5,13.5V16l-4.4,1.3c-1.6,0.6-2.6,2.1-2.6,3.7v2.5h23V21c0-1.7-1-3.2-2.6-3.7L16.5,16v-2.5"/>
		<path class="st3" d="M18.5,5c-5.5,0-5,1-6.5,1s-0.5-1-6.5-1"/>
		<path class="st2" d="M6,8.5c2.5,2,4.8-0.5,6-0.5c1.2,0,3.5,2.5,6,0.5"/>
		<line class="st2" x1="8.5" y1="7" x2="9.5" y2="7"/>
		<line class="st2" x1="14.5" y1="7" x2="15.5" y2="7"/>
		<path class="st2" d="M10,13l0.4-0.4c0.4-0.4,0.9-0.6,1.4-0.6h0.3c0.5,0,1,0.2,1.4,0.6L14,13"/>
		<g>
			<g>
				<g>
					<path d="M8.5,2.5C8.2,2.5,8,2.7,8,3c0,0.3,0.2,0.5,0.5,0.5C8.8,3.5,9,3.3,9,3C9,2.7,8.8,2.5,8.5,2.5L8.5,2.5z"/>
				</g>
			</g>
		</g>
		<g>
			<g>
				<g>
					<path d="M15.5,2.5C15.2,2.5,15,2.7,15,3c0,0.3,0.2,0.5,0.5,0.5C15.8,3.5,16,3.3,16,3C16,2.7,15.8,2.5,15.5,2.5L15.5,2.5z"/>
				</g>
			</g>
		</g>
		<g>
			<g>
				<g>
					<path d="M10.5,2C10.2,2,10,2.2,10,2.5C10,2.8,10.2,3,10.5,3C10.8,3,11,2.8,11,2.5C11,2.2,10.8,2,10.5,2L10.5,2z"/>
				</g>
			</g>
		</g>
		<g>
			<g>
				<g>
					<path d="M13.5,2C13.2,2,13,2.2,13,2.5C13,2.8,13.2,3,13.5,3C13.8,3,14,2.8,14,2.5C14,2.2,13.8,2,13.5,2L13.5,2z"/>
				</g>
			</g>
		</g>
		<g>
			<g>
				<g>
					<path d="M12,3c-0.3,0-0.5,0.2-0.5,0.5C11.5,3.8,11.7,4,12,4c0.3,0,0.5-0.2,0.5-0.5C12.5,3.2,12.3,3,12,3L12,3z"/>
				</g>
			</g>
		</g>
		<path class="st2" d="M16.5,15.5c0,1.9-1.7,3.5-4.5,3.5c-2.8,0-4.5-1.6-4.5-3.5"/>
	</g>
</g>
</svg>
