<?xml version="1.0" encoding="utf-8"?>
<!-- Generator: Adobe Illustrator 19.2.0, SVG Export Plug-In . SVG Version: 6.00 Build 0)  -->
<svg version="1.1" id="Layer_1" xmlns="http://www.w3.org/2000/svg" xmlns:xlink="http://www.w3.org/1999/xlink" x="0px" y="0px"
	 viewBox="0 0 24 24" style="enable-background:new 0 0 24 24;" xml:space="preserve">
<style type="text/css">
	.st0{display:none;}
	.st1{display:inline;}
	.st2{fill:none;stroke:#000000;stroke-linecap:round;stroke-linejoin:round;stroke-miterlimit:10;}
</style>
<g id="Filled_Icon" class="st0">
	<path class="st1" d="M23.5,0h-23C0.2,0,0,0.2,0,0.5v23C0,23.8,0.2,24,0.5,24h23c0.3,0,0.5-0.2,0.5-0.5v-23C24,0.2,23.8,0,23.5,0z
		 M13.1,7.1l3-3c0,0,0.1-0.1,0.2-0.1s0.1,0,0.2,0l0,0l0,0c0.1,0,0.1,0,0.2,0s0.1,0.1,0.2,0.1l3,3c0.2,0.2,0.2,0.5,0,0.7
		C19.8,8,19.6,8,19.5,8s-0.3,0-0.4-0.1L17,5.7v11.8c0,0.3-0.2,0.5-0.5,0.5S16,17.8,16,17.5V5.7l-2.1,2.1c-0.2,0.2-0.5,0.2-0.7,0
		C13,7.7,13,7.3,13.1,7.1z M4.1,7.1l3-3C7.2,4.1,7.4,4,7.5,4l0,0l0,0c0.1,0,0.3,0.1,0.4,0.1l3,3c0.2,0.2,0.2,0.5,0,0.7
		C10.8,8,10.6,8,10.5,8s-0.3,0-0.4-0.1L8,5.7v11.8C8,17.8,7.8,18,7.5,18S7,17.8,7,17.5V5.7L4.9,7.9C4.7,8,4.3,8,4.1,7.9
		C4,7.7,4,7.3,4.1,7.1z M20.5,21h-17C3.2,21,3,20.8,3,20.5S3.2,20,3.5,20h17c0.3,0,0.5,0.2,0.5,0.5S20.8,21,20.5,21z"/>
</g>
<g id="Outline_Icons">
	<g>
		<rect x="0.5" y="0.5" class="st2" width="23" height="23"/>
		<line class="st2" x1="3.5" y1="20.5" x2="20.5" y2="20.5"/>
		<line class="st2" x1="7.5" y1="17.5" x2="7.5" y2="4.5"/>
		<polyline class="st2" points="4.5,7.5 7.5,4.5 10.5,7.5 		"/>
		<line class="st2" x1="16.5" y1="17.5" x2="16.5" y2="4.5"/>
		<polyline class="st2" points="13.5,7.5 16.5,4.5 19.5,7.5 		"/>
	</g>
</g>
</svg>
