<?xml version="1.0" encoding="utf-8"?>
<!-- Generator: Adobe Illustrator 19.2.0, SVG Export Plug-In . SVG Version: 6.00 Build 0)  -->
<svg version="1.1" id="Layer_1" xmlns="http://www.w3.org/2000/svg" xmlns:xlink="http://www.w3.org/1999/xlink" x="0px" y="0px"
	 viewBox="0 0 24 24" style="enable-background:new 0 0 24 24;" xml:space="preserve">
<style type="text/css">
	.st0{display:none;}
	.st1{display:inline;}
	.st2{fill:none;stroke:#000000;stroke-linejoin:round;stroke-miterlimit:10;}
	.st3{fill:none;stroke:#000000;stroke-linecap:round;stroke-linejoin:round;stroke-miterlimit:10;}
</style>
<g id="Filled_Icons" class="st0">
	<g class="st1">
		<rect x="4" y="13" width="11" height="1"/>
		<path d="M19.5,11h1c1.4,0,2.5-1.1,2.5-2.5V6c0-0.3-0.2-0.5-0.5-0.5S22,5.7,22,6v2.5c0,0.8-0.7,1.5-1.5,1.5h-1
			c-1.4,0-2.5,1.1-2.5,2.5s1.1,2.5,2.5,2.5h1c0.8,0,1.5,0.7,1.5,1.5v1c0,0.8-0.7,1.5-1.5,1.5H4v1h16.5c1.4,0,2.5-1.1,2.5-2.5v-1
			c0-1.4-1.1-2.5-2.5-2.5h-1c-0.8,0-1.5-0.7-1.5-1.5C18,11.7,18.7,11,19.5,11z"/>
		<rect x="4" y="17" width="11" height="1"/>
		<rect x="4" y="11" width="11" height="1"/>
		<rect x="4" y="5" width="11" height="1"/>
		<rect x="4" y="15" width="11" height="1"/>
		<path d="M1.3,21C1.1,21.3,1,21.6,1,22c0,1.1,0.9,2,2,2h13c1.1,0,2-0.9,2-2c0-0.4-0.1-0.7-0.3-1H1.3z"/>
		<path d="M17.7,4C17.9,3.7,18,3.4,18,3c0-1.1-0.9-2-2-2H3C1.9,1,1,1.9,1,3c0,0.4,0.1,0.7,0.3,1H17.7z"/>
		<rect x="4" y="9" width="11" height="1"/>
		<rect x="4" y="7" width="11" height="1"/>
	</g>
</g>
<g id="Outline_Icons">
	<g>
		<rect x="4.5" y="4.5" class="st2" width="10" height="16"/>
		<line class="st2" x1="4.5" y1="6.5" x2="14.5" y2="6.5"/>
		<line class="st2" x1="4.5" y1="8.5" x2="14.5" y2="8.5"/>
		<line class="st2" x1="4.5" y1="10.5" x2="14.5" y2="10.5"/>
		<line class="st2" x1="4.5" y1="12.5" x2="14.5" y2="12.5"/>
		<line class="st2" x1="4.5" y1="14.5" x2="14.5" y2="14.5"/>
		<line class="st2" x1="4.5" y1="16.5" x2="14.5" y2="16.5"/>
		<line class="st2" x1="4.5" y1="18.5" x2="14.5" y2="18.5"/>
		<path class="st2" d="M1.5,3c0,0.8,0.7,1.5,1.5,1.5h13c0.8,0,1.5-0.7,1.5-1.5c0-0.8-0.7-1.5-1.5-1.5H3C2.2,1.5,1.5,2.2,1.5,3z"/>
		<path class="st2" d="M1.5,22c0,0.8,0.7,1.5,1.5,1.5h13c0.8,0,1.5-0.7,1.5-1.5c0-0.8-0.7-1.5-1.5-1.5H3C2.2,20.5,1.5,21.2,1.5,22z"
			/>
		<path class="st3" d="M14.5,19.5h6c1.1,0,2-0.9,2-2v-1c0-1.1-0.9-2-2-2h-1c-1.1,0-2-0.9-2-2s0.9-2,2-2h1c1.1,0,2-0.9,2-2V6"/>
	</g>
</g>
</svg>
