<?xml version="1.0" encoding="utf-8"?>
<!-- Generator: Adobe Illustrator 19.2.0, SVG Export Plug-In . SVG Version: 6.00 Build 0)  -->
<svg version="1.1" id="Layer_1" xmlns="http://www.w3.org/2000/svg" xmlns:xlink="http://www.w3.org/1999/xlink" x="0px" y="0px"
	 viewBox="0 0 24 24" style="enable-background:new 0 0 24 24;" xml:space="preserve">
<style type="text/css">
	.st0{display:none;}
	.st1{display:inline;}
	.st2{fill:none;stroke:#000000;stroke-linecap:round;stroke-linejoin:round;stroke-miterlimit:10;}
</style>
<g id="Filled_Icons" class="st0">
	<path class="st1" d="M22.5,1.9c-4.6,0-6.2-0.6-7.4-1.1C14.1,0.4,13.3,0,11.5,0H5C3.9,0,3,0.9,3,2c0,0.4,0.1,0.8,0.3,1.1
		C2.6,3.4,2,4.1,2,5c0,0.4,0.1,0.8,0.3,1.1C1.6,6.4,1,7.1,1,8c0,0.4,0.1,0.8,0.3,1.1C0.6,9.4,0,10.1,0,11c0,1.1,0.9,2,2,2h7.4
		c-0.3,1.2-0.9,3.7-0.9,5.2c0,0.9,0.2,1.6,0.7,2.1c0.4,0.5,1,0.7,1.6,0.7c1,0,1.8-0.7,1.8-1.6c0-4.4,3.7-7.4,7-7.4h3
		c0.3,0,0.5-0.2,0.5-0.5V2.4C23,2.1,22.8,1.9,22.5,1.9z"/>
</g>
<g id="Outline_Icons">
	<g>
		<path class="st2" d="M4,6.5L4,6.5C3.2,6.5,2.5,5.8,2.5,5c0-0.8,0.7-1.5,1.5-1.5h1C4.2,3.5,3.5,2.8,3.5,2c0-0.8,0.7-1.5,1.5-1.5
			c0,0,4,0,6.5,0c4,0,3,1.9,11,1.9c0,0.5,0,9.1,0,9.1h-3c-3.5,0-7.5,3.2-7.5,7.9c0,1.6-3,1.8-3-1.2c0-2,1-5.7,1-5.7H2
			c-0.8,0-1.5-0.7-1.5-1.5c0-0.8,0.7-1.5,1.5-1.5h1C2.2,9.5,1.5,8.8,1.5,8c0-0.8,0.7-1.5,1.5-1.5H4"/>
	</g>
</g>
</svg>
