<?xml version="1.0" encoding="utf-8"?>
<!-- Generator: Adobe Illustrator 19.2.0, SVG Export Plug-In . SVG Version: 6.00 Build 0)  -->
<svg version="1.1" id="Layer_1" xmlns="http://www.w3.org/2000/svg" xmlns:xlink="http://www.w3.org/1999/xlink" x="0px" y="0px"
	 viewBox="0 0 24 24" style="enable-background:new 0 0 24 24;" xml:space="preserve">
<style type="text/css">
	.st0{display:none;}
	.st1{display:inline;}
	.st2{fill:none;stroke:#000000;stroke-linecap:round;stroke-linejoin:round;stroke-miterlimit:10;}
</style>
<g id="Filled_Icons" class="st0">
	<path class="st1" d="M23,11c0-1.1-0.9-2-2-2h-7.4c0.3-1.2,0.9-3.7,0.9-5.3c0-2-1.2-2.8-2.3-2.8c-1,0-1.7,0.7-1.7,1.6
		c0,4.4-3.7,7.5-7,7.5h-3C0.2,10,0,10.2,0,10.5v9C0,19.8,0.2,20,0.5,20c4.6,0,6.1,0.7,7.4,1.2c0.9,0.4,1.8,0.8,3.6,0.8H18
		c1.1,0,2-0.9,2-2c0-0.4-0.1-0.8-0.3-1.1c0.8-0.3,1.3-1,1.3-1.9c0-0.4-0.1-0.8-0.3-1.1c0.8-0.3,1.3-1,1.3-1.9c0-0.4-0.1-0.8-0.3-1.1
		C22.4,12.6,23,11.9,23,11z"/>
</g>
<g id="Outline_Icons">
	<g>
		<path class="st2" d="M19,15.5L19,15.5c0.8,0,1.5,0.7,1.5,1.5c0,0.8-0.7,1.5-1.5,1.5h-1c0.8,0,1.5,0.7,1.5,1.5
			c0,0.8-0.7,1.5-1.5,1.5c0,0-4,0-6.5,0c-4,0-3-2-11-2c0-0.5,0-9,0-9h3c3.5,0,7.5-3.2,7.5-8c0-1.6,3-1.8,3,1.2c0,2-1,5.8-1,5.8h8
			c0.8,0,1.5,0.7,1.5,1.5c0,0.8-0.7,1.5-1.5,1.5h-1c0.8,0,1.5,0.7,1.5,1.5c0,0.8-0.7,1.5-1.5,1.5H19"/>
	</g>
</g>
</svg>
