<?xml version="1.0" encoding="utf-8"?>
<!-- Generator: Adobe Illustrator 19.2.0, SVG Export Plug-In . SVG Version: 6.00 Build 0)  -->
<svg version="1.1" id="Outline_Icons" xmlns="http://www.w3.org/2000/svg" xmlns:xlink="http://www.w3.org/1999/xlink" x="0px"
	 y="0px" viewBox="0 0 24 24" style="enable-background:new 0 0 24 24;" xml:space="preserve">
<style type="text/css">
	.st0{fill:none;stroke:#000000;stroke-linecap:round;stroke-linejoin:round;stroke-miterlimit:10;}
</style>
<g>
	<path class="st0" d="M4,7.5L4,7.5C3.2,7.5,2.5,6.9,2.5,6S3.2,4.5,4,4.5h1C4.2,4.5,3.5,3.9,3.5,3S4.2,1.5,5,1.5c0,0,4,0,6.5,0
		c2.9,0,3.5,1.2,7,1.7v8.5c-2.5,0-6.5,4.5-6.5,8.5c0,1.6-2.2,2.1-3-0.8c-0.5-1.8,1-5.9,1-5.9H2c-0.8,0-1.5-0.7-1.5-1.5
		s0.7-1.5,1.5-1.5h1c-0.8,0-1.5-0.7-1.5-1.5S2.2,7.5,3,7.5L4,7.5"/>
	<rect x="18.5" y="1.5" class="st0" width="5" height="12"/>
	<g>
		<g>
			<g>
				<path d="M20.5,3C20.2,3,20,3.2,20,3.5C20,3.8,20.2,4,20.5,4C20.8,4,21,3.8,21,3.5C21,3.2,20.8,3,20.5,3L20.5,3z"/>
			</g>
		</g>
	</g>
</g>
</svg>
