<?xml version="1.0" encoding="utf-8"?>
<!-- Generator: Adobe Illustrator 19.2.0, SVG Export Plug-In . SVG Version: 6.00 Build 0)  -->
<svg version="1.1" id="Layer_1" xmlns="http://www.w3.org/2000/svg" xmlns:xlink="http://www.w3.org/1999/xlink" x="0px" y="0px"
	 viewBox="0 0 24 24" style="enable-background:new 0 0 24 24;" xml:space="preserve">
<style type="text/css">
	.st0{display:none;}
	.st1{display:inline;}
	.st2{fill:none;stroke:#000000;stroke-linecap:round;stroke-linejoin:round;stroke-miterlimit:10;}
</style>
<g id="Filled_Icon" class="st0">
	<g class="st1">
		<path d="M8.9,18.2c-0.2-0.2-0.5-0.2-0.7,0l-2.5,2.5c-0.1,0.1-0.2,0.4-0.1,0.5c0.1,0.2,0.3,0.3,0.5,0.3h1.3l-1.6,1.6
			c-0.2,0.2-0.2,0.5,0,0.7C5.7,24,5.9,24,6,24s0.3,0,0.4-0.1l2.5-2.5C9,21.2,9,21,9,20.8c-0.1-0.2-0.3-0.3-0.5-0.3H7.2l1.6-1.7
			C9,18.7,9,18.3,8.9,18.2z"/>
		<path d="M13.9,18.2c-0.2-0.2-0.5-0.2-0.7,0l-2.5,2.5c-0.1,0.1-0.2,0.4-0.1,0.5c0.1,0.2,0.3,0.3,0.5,0.3h1.3l-1.6,1.6
			c-0.2,0.2-0.2,0.5,0,0.7C10.7,24,10.9,24,11,24s0.3,0,0.4-0.1l2.5-2.5C14,21.2,14,21,14,20.8c-0.1-0.2-0.3-0.3-0.5-0.3h-1.3
			l1.6-1.7C14,18.7,14,18.3,13.9,18.2z"/>
		<path d="M18.9,18.2c-0.2-0.2-0.5-0.2-0.7,0l-2.5,2.5c-0.1,0.1-0.2,0.4-0.1,0.5c0.1,0.2,0.3,0.3,0.5,0.3h1.3l-1.6,1.6
			c-0.2,0.2-0.2,0.5,0,0.7C15.7,24,15.9,24,16,24s0.3,0,0.4-0.1l2.5-2.5C19,21.2,19,21,19,20.8c-0.1-0.2-0.3-0.3-0.5-0.3h-1.3
			l1.6-1.7C19,18.7,19,18.3,18.9,18.2z"/>
		<path d="M21.8,8c0.3-1,0.2-2-0.4-2.9c-0.7-1-1.8-1.6-3-1.6C17.5,1.4,15.3,0,13,0c-3,0-5.5,2.2-5.9,5.1c-2.6,0.4-4.6,2.7-4.6,5.4
			C2.5,13.5,5,16,8,16h11c2.5,0,4.5-2,4.5-4.5C23.5,10.2,22.9,8.9,21.8,8z"/>
	</g>
</g>
<g id="Outline_Icons">
	<g>
		<polyline class="st2" points="6,23.5 8.5,21 6,21 8.5,18.5 		"/>
		<polyline class="st2" points="11,23.5 13.5,21 11,21 13.5,18.5 		"/>
		<polyline class="st2" points="16,23.5 18.5,21 16,21 18.5,18.5 		"/>
		<path class="st2" d="M21.3,8.2c0.9-2.1-0.8-4.5-3.1-4.2c-0.9-2-2.9-3.5-5.2-3.5c-2.9,0-5.2,2.2-5.5,5C5,5.8,3,7.9,3,10.5
			c0,2.8,2.2,5,5,5h11c2.2,0,4-1.8,4-4C23,10.1,22.3,8.9,21.3,8.2z"/>
	</g>
</g>
</svg>
