<?xml version="1.0" encoding="utf-8"?>
<!-- Generator: Adobe Illustrator 19.2.0, SVG Export Plug-In . SVG Version: 6.00 Build 0)  -->
<svg version="1.1" id="Layer_1" xmlns="http://www.w3.org/2000/svg" xmlns:xlink="http://www.w3.org/1999/xlink" x="0px" y="0px"
	 viewBox="0 0 24 24" style="enable-background:new 0 0 24 24;" xml:space="preserve">
<style type="text/css">
	.st0{display:none;}
	.st1{display:inline;}
	.st2{fill:none;stroke:#000000;stroke-linecap:round;stroke-linejoin:round;stroke-miterlimit:10;}
	.st3{fill:none;stroke:#000000;stroke-linejoin:round;stroke-miterlimit:10;}
</style>
<g id="Filled_Icon" class="st0">
	<g class="st1">
		<path d="M21.2,10L14,17.9c-0.2,0.2-0.5,0.3-0.7,0.3s-0.4-0.1-0.5-0.2c-0.4-0.3-0.6-0.8-0.4-1.2l2.6-6.3h-2.2
			c-0.4,0-0.7-0.2-0.9-0.5s-0.2-0.7,0-1l3-5.4l-2.4-2.4C12.3,1,12,1,11.8,1.2L0.1,12.6C0,12.8,0,13,0,13.2c0.1,0.2,0.3,0.3,0.5,0.3
			H3v10C3,23.8,3.2,24,3.5,24h6c0.3,0,0.5-0.2,0.5-0.5V19h4v4.5c0,0.3,0.2,0.5,0.5,0.5h6c0.3,0,0.5-0.2,0.5-0.5v-10h2.5
			c0.2,0,0.4-0.1,0.5-0.3s0-0.4-0.1-0.5L21.2,10z"/>
		<polygon points="17.6,0.5 22.2,0.5 18.4,6.5 23.1,6.5 13.3,17.2 16.4,9.5 12.7,9.5 		"/>
	</g>
</g>
<g id="Outline_Icons">
	<g>
		<polyline class="st2" points="3.5,13.5 3.5,23.5 9.5,23.5 9.5,18.5 14.5,18.5 14.5,23.5 20.5,23.5 20.5,14 		"/>
		<line class="st2" x1="21.5" y1="11" x2="23.5" y2="13"/>
		<polyline class="st2" points="0.5,13 12,1.5 13.6,3.1 		"/>
		<polygon class="st3" points="17.6,0.5 22.2,0.5 18.4,6.5 23.1,6.5 13.3,17.2 16.4,9.5 12.7,9.5 		"/>
	</g>
</g>
</svg>
