<?xml version="1.0" encoding="utf-8"?>
<!-- Generator: Adobe Illustrator 19.2.0, SVG Export Plug-In . SVG Version: 6.00 Build 0)  -->
<svg version="1.1" id="Layer_1" xmlns="http://www.w3.org/2000/svg" xmlns:xlink="http://www.w3.org/1999/xlink" x="0px" y="0px"
	 viewBox="0 0 24 24" style="enable-background:new 0 0 24 24;" xml:space="preserve">
<style type="text/css">
	.st0{display:none;}
	.st1{display:inline;}
	.st2{fill:none;stroke:#000000;stroke-linejoin:round;stroke-miterlimit:10;}
	.st3{fill:none;stroke:#000000;stroke-linecap:round;stroke-linejoin:round;stroke-miterlimit:10;}
</style>
<g id="Filled_Icons" class="st0">
	<g class="st1">
		<rect x="9" y="1" width="6" height="7"/>
		<rect x="1" y="9" width="7" height="6"/>
		<circle cx="4.5" cy="4.5" r="1"/>
		<rect x="16" y="9" width="7" height="6"/>
		<rect x="9" y="16" width="6" height="7"/>
		<path d="M16,8h7V1.5C23,1.2,22.8,1,22.5,1H16V8z"/>
		<path d="M9,9v6h6V9H9z M13.8,13.8c-0.1,0.1-0.2,0.1-0.4,0.1c-0.1,0-0.3-0.1-0.4-0.1L12,12.7l-1.1,1.1c-0.1,0.1-0.2,0.1-0.4,0.1
			s-0.3-0.1-0.4-0.1c-0.2-0.2-0.2-0.5,0-0.7l1.1-1.1l-1.1-1.1c-0.2-0.2-0.2-0.5,0-0.7s0.5-0.2,0.7,0l1.1,1.1l1.1-1.1
			c0.2-0.2,0.5-0.2,0.7,0s0.2,0.5,0,0.7L12.7,12l1.1,1.1C14,13.3,14,13.6,13.8,13.8z"/>
		<path d="M16,16v7h6.5c0.3,0,0.5-0.2,0.5-0.5V16H16z M19.5,21.5c-1.1,0-2-0.9-2-2s0.9-2,2-2c1.1,0,2,0.9,2,2
			C21.5,20.6,20.6,21.5,19.5,21.5z"/>
		<path d="M8,16H1v6.5C1,22.8,1.2,23,1.5,23H8V16z"/>
		<circle cx="19.5" cy="19.5" r="1"/>
		<path d="M8,8V1H1.5C1.2,1,1,1.2,1,1.5V8H8z M4.5,2.5c1.1,0,2,0.9,2,2s-0.9,2-2,2s-2-0.9-2-2S3.4,2.5,4.5,2.5z"/>
	</g>
</g>
<g id="Outline_Icons">
	<g>
		<g>
			<line class="st2" x1="1.5" y1="8.5" x2="22.5" y2="8.5"/>
			<line class="st2" x1="1.5" y1="15.5" x2="22.5" y2="15.5"/>
			<line class="st2" x1="15.5" y1="1.5" x2="15.5" y2="22.5"/>
			<line class="st2" x1="8.5" y1="1.5" x2="8.5" y2="22.5"/>
			<rect x="1.5" y="1.5" class="st2" width="21" height="21"/>
		</g>
		<circle class="st2" cx="19" cy="19" r="1.5"/>
		<circle class="st2" cx="5" cy="5" r="1.5"/>
		<line class="st3" x1="10.5" y1="10.5" x2="13.5" y2="13.5"/>
		<line class="st3" x1="13.5" y1="10.5" x2="10.5" y2="13.5"/>
	</g>
</g>
</svg>
