<?xml version="1.0" encoding="utf-8"?>
<!-- Generator: Adobe Illustrator 19.2.0, SVG Export Plug-In . SVG Version: 6.00 Build 0)  -->
<svg version="1.1" id="Layer_1" xmlns="http://www.w3.org/2000/svg" xmlns:xlink="http://www.w3.org/1999/xlink" x="0px" y="0px"
	 viewBox="0 0 24 24" style="enable-background:new 0 0 24 24;" xml:space="preserve">
<style type="text/css">
	.st0{display:none;}
	.st1{display:inline;}
	.st2{fill:none;stroke:#000000;stroke-linecap:round;stroke-linejoin:round;stroke-miterlimit:10;}
</style>
<g id="Filled_Icons" class="st0">
	<g class="st1">
		<rect x="7" y="17" width="10" height="2"/>
		<rect x="7" y="5" width="10" height="2"/>
		<path d="M7,16h10V8H7V16z M9,9.5C9,9.2,9.2,9,9.5,9C9.8,9,10,9.2,10,9.5v5c0,0.3-0.2,0.5-0.5,0.5C9.2,15,9,14.8,9,14.5V9.5z"/>
		<path d="M17.5,0H14c-0.3,0-0.5,0.2-0.5,0.5C13.5,1.3,12.8,2,12,2c-0.8,0-1.5-0.7-1.5-1.5C10.5,0.2,10.3,0,10,0H6.5
			C5.1,0,4,1.1,4,2.5v19C4,22.9,5.1,24,6.5,24H10c0.3,0,0.5-0.2,0.5-0.5c0-0.8,0.7-1.5,1.5-1.5c0.8,0,1.5,0.7,1.5,1.5
			c0,0.3,0.2,0.5,0.5,0.5h3.5c1.4,0,2.5-1.1,2.5-2.5v-19C20,1.1,18.9,0,17.5,0z M18,19.5c0,0.3-0.2,0.5-0.5,0.5h-11
			C6.2,20,6,19.8,6,19.5v-15C6,4.2,6.2,4,6.5,4h11C17.8,4,18,4.2,18,4.5V19.5z"/>
	</g>
</g>
<g id="Outline_Icons">
	<g>
		<path class="st2" d="M14,0.5c0,1.1-0.9,2-2,2c-1.1,0-2-0.9-2-2H6.5c-1.1,0-2,0.9-2,2v19c0,1.1,0.9,2,2,2H10c0-1.1,0.9-2,2-2
			c1.1,0,2,0.9,2,2h3.5c1.1,0,2-0.9,2-2v-19c0-1.1-0.9-2-2-2H14z"/>
		<rect x="6.5" y="4.5" class="st2" width="11" height="15"/>
		<line class="st2" x1="6.5" y1="7.5" x2="17.5" y2="7.5"/>
		<line class="st2" x1="6.5" y1="16.5" x2="17.5" y2="16.5"/>
		<line class="st2" x1="9.5" y1="9.5" x2="9.5" y2="14.5"/>
	</g>
</g>
</svg>
