<?xml version="1.0" encoding="utf-8"?>
<!-- Generator: Adobe Illustrator 19.2.0, SVG Export Plug-In . SVG Version: 6.00 Build 0)  -->
<svg version="1.1" id="Layer_1" xmlns="http://www.w3.org/2000/svg" xmlns:xlink="http://www.w3.org/1999/xlink" x="0px" y="0px"
	 viewBox="0 0 24 24" style="enable-background:new 0 0 24 24;" xml:space="preserve">
<style type="text/css">
	.st0{display:none;}
	.st1{display:inline;}
	.st2{fill:none;stroke:#000000;stroke-linecap:round;stroke-linejoin:round;stroke-miterlimit:10;}
</style>
<g id="Filled_Icons" class="st0">
	<g class="st1">
		<path d="M15,5.5C14.7,5.2,14.3,5,13.9,5c-0.4,0-0.8,0.2-1.1,0.4l-7.8,7.8c-0.6,0.6-0.6,1.5,0,2.1l3.5,3.5c0.6,0.6,1.6,0.6,2.1,0
			l7.8-7.8c0.6-0.6,0.6-1.5,0-2.1L15,5.5z M7.9,14.7c-0.1,0.1-0.2,0.1-0.4,0.1c-0.1,0-0.3,0-0.4-0.1C7,14.5,7,14.2,7.2,14l6.4-6.4
			c0.2-0.2,0.5-0.2,0.7,0c0.2,0.2,0.2,0.5,0,0.7L7.9,14.7z M14.6,12.2L11.8,15c-0.1,0.1-0.2,0.1-0.4,0.1s-0.3,0-0.4-0.1
			c-0.2-0.2-0.2-0.5,0-0.7l2.8-2.8c0.2-0.2,0.5-0.2,0.7,0C14.8,11.7,14.8,12,14.6,12.2z"/>
		<path d="M23.5,7.6c0.2-0.2,0.2-0.5,0-0.7l-6.4-6.4c-0.2-0.2-0.5-0.2-0.7,0c-0.5,0.5-1.1,0.7-1.8,0.7S13.3,1,12.9,0.5
			c-0.2-0.2-0.5-0.2-0.7,0l-12,12C0.1,12.6,0,12.8,0,12.9c0,0.1,0.1,0.3,0.1,0.4c0.5,0.5,0.7,1.1,0.7,1.8s-0.3,1.3-0.7,1.8
			C0.1,16.9,0,17,0,17.1s0.1,0.3,0.1,0.4l6.4,6.4c0.2,0.2,0.5,0.2,0.7,0c0.5-0.5,1.1-0.7,1.8-0.7c0.7,0,1.3,0.3,1.8,0.7
			C10.8,24,11,24,11.1,24s0.3-0.1,0.4-0.1l12-12c0.2-0.2,0.2-0.5,0-0.7C22.5,10.2,22.5,8.6,23.5,7.6z M19.2,11.8l-7.8,7.8
			c-0.5,0.5-1.1,0.7-1.8,0.7c-0.7,0-1.3-0.3-1.8-0.7l-3.5-3.5c-1-1-1-2.6,0-3.5l7.8-7.8C12.6,4.3,13.3,4,13.9,4s1.3,0.3,1.8,0.7
			l3.5,3.5C20.2,9.3,20.2,10.9,19.2,11.8z"/>
	</g>
</g>
<g id="Outline_Icons">
	<g>
		<path class="st2" d="M11.1,23.5l12-12c-1.2-1.2-1.2-3.1,0-4.2l-6.4-6.4c-1.2,1.2-3.1,1.2-4.2,0l-12,12c1.2,1.2,1.2,3.1,0,4.2
			l6.4,6.4C8,22.3,9.9,22.3,11.1,23.5z"/>
		<path class="st2" d="M11.1,19.3c-0.8,0.8-2.1,0.8-2.8,0l-3.5-3.5c-0.8-0.8-0.8-2.1,0-2.8l7.8-7.8c0.8-0.8,2.1-0.8,2.8,0l3.5,3.5
			c0.8,0.8,0.8,2.1,0,2.8L11.1,19.3z"/>
		<line class="st2" x1="13.9" y1="7.9" x2="7.6" y2="14.3"/>
		<line class="st2" x1="14.3" y1="11.8" x2="11.5" y2="14.7"/>
	</g>
</g>
</svg>
