<?xml version="1.0" encoding="utf-8"?>
<!-- Generator: Adobe Illustrator 19.2.0, SVG Export Plug-In . SVG Version: 6.00 Build 0)  -->
<svg version="1.1" id="Layer_1" xmlns="http://www.w3.org/2000/svg" xmlns:xlink="http://www.w3.org/1999/xlink" x="0px" y="0px"
	 viewBox="0 0 24 24" style="enable-background:new 0 0 24 24;" xml:space="preserve">
<style type="text/css">
	.st0{display:none;}
	.st1{display:inline;}
	.st2{fill:none;stroke:#000000;stroke-linejoin:round;stroke-miterlimit:10;}
	.st3{fill:none;stroke:#000000;stroke-linecap:round;stroke-linejoin:round;stroke-miterlimit:10;}
</style>
<g id="Filled_Icons" class="st0">
	<g class="st1">
		<path d="M18.5,0h-13C4.7,0,4,0.7,4,1.5v6C4,8.3,4.7,9,5.5,9h13C19.3,9,20,8.3,20,7.5v-6C20,0.7,19.3,0,18.5,0z M8,7H6V6h2V7z
			 M12,7c-1.4,0-2.5-1.1-2.5-2.5S10.6,2,12,2s2.5,1.1,2.5,2.5S13.4,7,12,7z M18,3h-2V2h2V3z"/>
		<g>
			<path d="M7,21.7V14v-0.5C7,11.6,5.4,10,3.5,10S0,11.6,0,13.5v10C0,23.8,0.2,24,0.5,24h6C6.8,24,7,23.8,7,23.5V21.7z M5,14H2v-1h3
				V14z"/>
			<path d="M11.5,14H8v7.3c2.4-1.1,4-3.5,4-6.3v-0.5C12,14.2,11.8,14,11.5,14z"/>
		</g>
		<g>
			<path d="M16,14h-3.5c-0.3,0-0.5,0.2-0.5,0.5V15c0,2.8,1.6,5.2,4,6.3V14z"/>
			<path d="M20.5,10c-1.9,0-3.5,1.6-3.5,3.5V14v7.7v1.8c0,0.3,0.2,0.5,0.5,0.5h6c0.3,0,0.5-0.2,0.5-0.5v-10C24,11.6,22.4,10,20.5,10
				z M22,14h-3v-1h3V14z"/>
		</g>
	</g>
</g>
<g id="Outline_Icons">
	<g>
		<path class="st2" d="M6.5,13.5c0-1.7-1.3-3-3-3s-3,1.3-3,3v10h6V13.5z"/>
		<path class="st2" d="M23.5,13.5c0-1.7-1.3-3-3-3s-3,1.3-3,3v10h6V13.5z"/>
		<path class="st2" d="M6.5,14.5h5V15c0,3.1-2.1,5.6-5,6.3"/>
		<path class="st2" d="M17.5,14.5h-5V15c0,3.1,2.1,5.7,5,6.3"/>
		<line class="st2" x1="2" y1="13.5" x2="5" y2="13.5"/>
		<line class="st2" x1="19" y1="13.5" x2="22" y2="13.5"/>
		<path class="st3" d="M19.5,7.5c0,0.6-0.4,1-1,1h-13c-0.6,0-1-0.4-1-1v-6c0-0.6,0.4-1,1-1h13c0.6,0,1,0.4,1,1V7.5z"/>
		<circle class="st3" cx="12" cy="4.5" r="2"/>
		<line class="st2" x1="16" y1="2.5" x2="18" y2="2.5"/>
		<line class="st2" x1="6" y1="6.5" x2="8" y2="6.5"/>
	</g>
</g>
</svg>
