<?xml version="1.0" encoding="utf-8"?>
<!-- Generator: Adobe Illustrator 19.2.0, SVG Export Plug-In . SVG Version: 6.00 Build 0)  -->
<svg version="1.1" id="Outline_Icons" xmlns="http://www.w3.org/2000/svg" xmlns:xlink="http://www.w3.org/1999/xlink" x="0px"
	 y="0px" viewBox="0 0 24 24" style="enable-background:new 0 0 24 24;" xml:space="preserve">
<style type="text/css">
	.st0{fill:none;stroke:#000000;stroke-linejoin:round;stroke-miterlimit:10;}
</style>
<g>
	<path class="st0" d="M23.5,8.5v-3c0-1.1-0.9-2-2-2h-19c-1.1,0-2,0.9-2,2v3H1c1.9,0,3.5,1.6,3.5,3.5c0,1.9-1.6,3.5-3.5,3.5H0.5v3
		c0,1.1,0.9,2,2,2h19c1.1,0,2-0.9,2-2v-3H23c-1.9,0-3.5-1.6-3.5-3.5c0-1.9,1.6-3.5,3.5-3.5H23.5z"/>
	<polygon class="st0" points="12,8 13,10.4 15.5,10.4 13.4,12.2 14.4,15 12,13.2 9.5,15 10.6,12.2 8.5,10.4 10.9,10.4 	"/>
	<line class="st0" x1="2" y1="6.5" x2="3" y2="6.5"/>
	<line class="st0" x1="4" y1="6.5" x2="5" y2="6.5"/>
	<line class="st0" x1="6" y1="6.5" x2="7" y2="6.5"/>
	<line class="st0" x1="8" y1="6.5" x2="9" y2="6.5"/>
	<line class="st0" x1="10" y1="6.5" x2="11" y2="6.5"/>
	<line class="st0" x1="12" y1="6.5" x2="13" y2="6.5"/>
	<line class="st0" x1="14" y1="6.5" x2="15" y2="6.5"/>
	<line class="st0" x1="16" y1="6.5" x2="17" y2="6.5"/>
	<line class="st0" x1="18" y1="6.5" x2="19" y2="6.5"/>
	<line class="st0" x1="20" y1="6.5" x2="21" y2="6.5"/>
	<line class="st0" x1="3" y1="17.5" x2="4" y2="17.5"/>
	<line class="st0" x1="5" y1="17.5" x2="6" y2="17.5"/>
	<line class="st0" x1="7" y1="17.5" x2="8" y2="17.5"/>
	<line class="st0" x1="9" y1="17.5" x2="10" y2="17.5"/>
	<line class="st0" x1="11" y1="17.5" x2="12" y2="17.5"/>
	<line class="st0" x1="13" y1="17.5" x2="14" y2="17.5"/>
	<line class="st0" x1="15" y1="17.5" x2="16" y2="17.5"/>
	<line class="st0" x1="17" y1="17.5" x2="18" y2="17.5"/>
	<line class="st0" x1="19" y1="17.5" x2="20" y2="17.5"/>
	<line class="st0" x1="21" y1="17.5" x2="22" y2="17.5"/>
</g>
</svg>
