<?xml version="1.0" encoding="utf-8"?>
<!-- Generator: Adobe Illustrator 19.2.0, SVG Export Plug-In . SVG Version: 6.00 Build 0)  -->
<svg version="1.1" id="Layer_1" xmlns="http://www.w3.org/2000/svg" xmlns:xlink="http://www.w3.org/1999/xlink" x="0px" y="0px"
	 viewBox="0 0 24 24" style="enable-background:new 0 0 24 24;" xml:space="preserve">
<style type="text/css">
	.st0{display:none;}
	.st1{display:inline;}
	.st2{fill:none;stroke:#000000;stroke-linecap:round;stroke-linejoin:round;stroke-miterlimit:10;}
</style>
<g id="Filled_Icons" class="st0">
	<g class="st1">
		<path d="M7,16h8V8H7V16z M9.5,10h3c0.3,0,0.5,0.2,0.5,0.5S12.8,11,12.5,11h-3C9.2,11,9,10.8,9,10.5S9.2,10,9.5,10z M9.5,13h3
			c0.3,0,0.5,0.2,0.5,0.5S12.8,14,12.5,14h-3C9.2,14,9,13.8,9,13.5S9.2,13,9.5,13z"/>
		<path d="M23.5,9.5C23.8,9.5,24,9.3,24,9V4.5C24,4.2,23.8,4,23.5,4h-23C0.2,4,0,4.2,0,4.5V9c0,0.3,0.2,0.5,0.5,0.5
			C1.9,9.5,3,10.6,3,12c0,1.4-1.1,2.5-2.5,2.5C0.2,14.5,0,14.7,0,15v4.5C0,19.8,0.2,20,0.5,20h23c0.3,0,0.5-0.2,0.5-0.5V15
			c0-0.3-0.2-0.5-0.5-0.5c-1.4,0-2.5-1.1-2.5-2.5C21,10.6,22.1,9.5,23.5,9.5z M16,16.5c0,0.3-0.2,0.5-0.5,0.5h-9
			C6.2,17,6,16.8,6,16.5v-9C6,7.2,6.2,7,6.5,7h9C15.8,7,16,7.2,16,7.5V16.5z M19,18.5h-1v-1h1V18.5z M19,16.5h-1v-1h1V16.5z
			 M19,14.5h-1v-1h1V14.5z M19,12.5h-1v-1h1V12.5z M19,10.5h-1v-1h1V10.5z M19,8.5h-1v-1h1V8.5z M19,6.5h-1v-1h1V6.5z"/>
	</g>
</g>
<g id="Outline_Icons">
	<g>
		<path class="st2" d="M23.5,15c-1.7,0-3-1.3-3-3s1.3-3,3-3V4.5h-23V9c1.7,0,3,1.3,3,3s-1.3,3-3,3v4.5h23V15z"/>
		<g>
			<g>
				<polygon points="19,6 18,6 18,7 19,7 				"/>
			</g>
		</g>
		<g>
			<g>
				<polygon points="19,8 18,8 18,9 19,9 				"/>
			</g>
		</g>
		<g>
			<g>
				<polygon points="19,10 18,10 18,11 19,11 				"/>
			</g>
		</g>
		<g>
			<g>
				<polygon points="19,12 18,12 18,13 19,13 				"/>
			</g>
		</g>
		<g>
			<g>
				<polygon points="19,14 18,14 18,15 19,15 				"/>
			</g>
		</g>
		<g>
			<g>
				<polygon points="19,16 18,16 18,17 19,17 				"/>
			</g>
		</g>
		<g>
			<g>
				<polygon points="19,18 18,18 18,19 19,19 				"/>
			</g>
		</g>
		<rect x="6.5" y="7.5" class="st2" width="9" height="9"/>
		<line class="st2" x1="9.5" y1="10.5" x2="12.5" y2="10.5"/>
		<line class="st2" x1="9.5" y1="13.5" x2="12.5" y2="13.5"/>
	</g>
</g>
</svg>
