<?xml version="1.0" encoding="utf-8"?>
<!-- Generator: Adobe Illustrator 19.2.0, SVG Export Plug-In . SVG Version: 6.00 Build 0)  -->
<svg version="1.1" id="Layer_1" xmlns="http://www.w3.org/2000/svg" xmlns:xlink="http://www.w3.org/1999/xlink" x="0px" y="0px"
	 viewBox="0 0 24 24" style="enable-background:new 0 0 24 24;" xml:space="preserve">
<style type="text/css">
	.st0{display:none;}
	.st1{display:inline;}
	.st2{fill:none;stroke:#000000;stroke-linecap:round;stroke-linejoin:round;stroke-miterlimit:10;}
</style>
<g id="Filled_Icon" class="st0">
	<g class="st1">
		<path d="M11.2,13.3c0.2,0.3,0.5,0.4,0.8,0.4c0.2,0,0.4-0.1,0.6-0.2c0.4-0.3,0.5-1,0.2-1.4L5.2,1.9c-0.3-0.4-1-0.5-1.4-0.2
			C3.4,2,3.3,2.7,3.6,3.1L11.2,13.3z"/>
		<path d="M15.3,2.7c-0.5-0.2-1.1,0.1-1.3,0.6c-0.2,0.5,0.1,1.1,0.6,1.3c3.5,1.2,5.8,4.4,5.8,8.1c0,4.7-3.8,8.5-8.5,8.5
			c-4.7,0-8.5-3.8-8.5-8.5c0-1.6,0.4-3.1,1.3-4.5c0.3-0.5,0.1-1.1-0.3-1.4C4,6.6,3.4,6.7,3.1,7.2c-1,1.7-1.6,3.6-1.6,5.5
			c0,5.8,4.7,10.5,10.5,10.5s10.5-4.7,10.5-10.5C22.5,8.2,19.6,4.2,15.3,2.7z"/>
		<circle cx="11.5" cy="3.2" r="1.5"/>
	</g>
</g>
<g id="Outline_Icons">
	<g>
		<line class="st2" x1="12" y1="12.7" x2="4.4" y2="2.5"/>
		<path class="st2" d="M15,3.7c3.8,1.3,6.5,4.8,6.5,9c0,5.2-4.3,9.5-9.5,9.5c-5.2,0-9.5-4.3-9.5-9.5c0-1.8,0.5-3.5,1.4-5"/>
		<circle class="st2" cx="11.5" cy="3.2" r="0.5"/>
	</g>
</g>
</svg>
