<?xml version="1.0" encoding="utf-8"?>
<!-- Generator: Adobe Illustrator 19.2.0, SVG Export Plug-In . SVG Version: 6.00 Build 0)  -->
<svg version="1.1" id="Layer_1" xmlns="http://www.w3.org/2000/svg" xmlns:xlink="http://www.w3.org/1999/xlink" x="0px" y="0px"
	 viewBox="0 0 24 24" style="enable-background:new 0 0 24 24;" xml:space="preserve">
<style type="text/css">
	.st0{display:none;}
	.st1{display:inline;}
	.st2{fill:none;stroke:#000000;stroke-linecap:round;stroke-linejoin:round;stroke-miterlimit:10;}
</style>
<g id="Filled_Icons" class="st0">
	<g class="st1">
		<path d="M15.5,0h-2C13.2,0,13,0.2,13,0.5C13,0.8,13.2,1,13.5,1H14v2c-2.5,0.1-4.9,1.1-6.7,2.6L6,4.2l0.4-0.4
			c0.2-0.2,0.2-0.5,0-0.7C6.2,3,5.8,3,5.6,3.1L4.1,4.6C4,4.8,4,5.2,4.1,5.4c0.1,0.1,0.2,0.1,0.4,0.1c0.1,0,0.3,0,0.4-0.1L5.2,5
			l1.3,1.3c-1.9,1.9-3.1,4.4-3.1,7.2c0,5.7,5,10.5,11,10.5c0.3,0,0.5-0.2,0.5-0.5v-20V1h0.5C15.8,1,16,0.8,16,0.5
			C16,0.2,15.8,0,15.5,0z M6.5,13.5C6.5,13.2,6.7,13,7,13h2c0.3,0,0.5,0.2,0.5,0.5C9.5,13.8,9.3,14,9,14H7C6.7,14,6.5,13.8,6.5,13.5
			z M10.9,17.4l-1.5,1.5C9.3,19,9.1,19,9,19c-0.1,0-0.3,0-0.4-0.1c-0.2-0.2-0.2-0.5,0-0.7l1.5-1.5c0.2-0.2,0.5-0.2,0.7,0
			C11,16.8,11,17.2,10.9,17.4z M10.9,10.4c-0.1,0.1-0.2,0.1-0.4,0.1c-0.1,0-0.3,0-0.4-0.1L8.6,8.9c-0.2-0.2-0.2-0.5,0-0.7
			C8.8,8,9.2,8,9.4,8.1l1.5,1.5C11,9.8,11,10.2,10.9,10.4z"/>
		<path d="M21.5,13h-2c-0.3,0-0.5,0.2-0.5,0.5c0,0.3,0.2,0.5,0.5,0.5h2c0.3,0,0.5-0.2,0.5-0.5C22,13.2,21.8,13,21.5,13z"/>
		<path d="M18,10.5c0.1,0,0.3,0,0.4-0.1l1.5-1.5c0.2-0.2,0.2-0.5,0-0.7c-0.2-0.2-0.5-0.2-0.7,0l-1.5,1.5c-0.2,0.2-0.2,0.5,0,0.7
			C17.7,10.5,17.9,10.5,18,10.5z"/>
		<path d="M18.4,16.6c-0.2-0.2-0.5-0.2-0.7,0c-0.2,0.2-0.2,0.5,0,0.7l1.5,1.5c0.1,0.1,0.2,0.1,0.4,0.1c0.1,0,0.3,0,0.4-0.1
			c0.2-0.2,0.2-0.5,0-0.7L18.4,16.6z"/>
	</g>
</g>
<g id="Outline_Icons">
	<g>
		<line class="st2" x1="15.5" y1="0.5" x2="13.5" y2="0.5"/>
		<line class="st2" x1="14.5" y1="0.5" x2="14.5" y2="3.5"/>
		<line class="st2" x1="6" y1="3.5" x2="4.5" y2="5"/>
		<line class="st2" x1="5.2" y1="4.2" x2="7.2" y2="6.2"/>
		<line class="st2" x1="21.5" y1="13.5" x2="19.5" y2="13.5"/>
		<line class="st2" x1="19.5" y1="8.5" x2="18" y2="10"/>
		<line class="st2" x1="19.5" y1="18.5" x2="18" y2="17"/>
		<line class="st2" x1="7" y1="13.5" x2="9" y2="13.5"/>
		<line class="st2" x1="9" y1="18.5" x2="10.5" y2="17"/>
		<line class="st2" x1="9" y1="8.5" x2="10.5" y2="10"/>
		<path class="st2" d="M14.5,3.5v20C9,23.5,4,19,4,13.5C4,8,9,3.5,14.5,3.5z"/>
	</g>
</g>
</svg>
