<?xml version="1.0" encoding="utf-8"?>
<!-- Generator: Adobe Illustrator 19.2.0, SVG Export Plug-In . SVG Version: 6.00 Build 0)  -->
<svg version="1.1" id="Layer_1" xmlns="http://www.w3.org/2000/svg" xmlns:xlink="http://www.w3.org/1999/xlink" x="0px" y="0px"
	 viewBox="0 0 24 24" style="enable-background:new 0 0 24 24;" xml:space="preserve">
<style type="text/css">
	.st0{display:none;}
	.st1{display:inline;}
	.st2{fill:none;stroke:#000000;stroke-linecap:round;stroke-linejoin:round;stroke-miterlimit:10;}
</style>
<g id="Filled_Icons" class="st0">
	<g class="st1">
		<path d="M10.5,0C10.2,0,10,0.2,10,0.5v23c0,0.3,0.2,0.5,0.5,0.5C17.3,24,23,18.5,23,12C23,5.5,17.3,0,10.5,0z M16,6.3l1.4-1.4
			c0.2-0.2,0.5-0.2,0.7,0c0.2,0.2,0.2,0.5,0,0.7l-1.4,1.4c-0.1,0.1-0.2,0.1-0.4,0.1c-0.1,0-0.3,0-0.4-0.1C15.8,6.9,15.8,6.5,16,6.3z
			 M18.1,19.1c-0.1,0.1-0.2,0.1-0.4,0.1c-0.1,0-0.3,0-0.4-0.1l-1.4-1.4c-0.2-0.2-0.2-0.5,0-0.7s0.5-0.2,0.7,0l1.4,1.4
			C18.3,18.6,18.3,18.9,18.1,19.1z M20.5,12h-2c-0.3,0-0.5-0.2-0.5-0.5c0-0.3,0.2-0.5,0.5-0.5h2c0.3,0,0.5,0.2,0.5,0.5
			C21,11.8,20.8,12,20.5,12z"/>
		<path d="M4,11.5C4,11.2,3.8,11,3.5,11h-2C1.2,11,1,11.2,1,11.5C1,11.8,1.2,12,1.5,12h2C3.8,12,4,11.8,4,11.5z"/>
		<path d="M4.6,4.9c-0.2-0.2-0.5-0.2-0.7,0c-0.2,0.2-0.2,0.5,0,0.7l1.4,1.4c0.1,0.1,0.2,0.1,0.4,0.1c0.1,0,0.3,0,0.4-0.1
			c0.2-0.2,0.2-0.5,0-0.7L4.6,4.9z"/>
		<path d="M5.3,16.9l-1.4,1.4c-0.2,0.2-0.2,0.5,0,0.7c0.1,0.1,0.2,0.1,0.4,0.1c0.1,0,0.3,0,0.4-0.1l1.4-1.4c0.2-0.2,0.2-0.5,0-0.7
			C5.9,16.8,5.5,16.8,5.3,16.9z"/>
	</g>
</g>
<g id="Outline_Icons">
	<g>
		<path class="st2" d="M10.5,0.5c6.4,0,12,5.1,12,11.5c0,6.4-5.6,11.5-12,11.5V0.5z"/>
		<line class="st2" x1="20.5" y1="11.5" x2="18.5" y2="11.5"/>
		<line class="st2" x1="1.5" y1="11.5" x2="3.5" y2="11.5"/>
		<line class="st2" x1="17.7" y1="18.7" x2="16.3" y2="17.3"/>
		<line class="st2" x1="4.3" y1="5.3" x2="5.7" y2="6.7"/>
		<line class="st2" x1="4.3" y1="18.7" x2="5.7" y2="17.3"/>
		<line class="st2" x1="17.7" y1="5.3" x2="16.3" y2="6.7"/>
	</g>
</g>
</svg>
