<?xml version="1.0" encoding="utf-8"?>
<!-- Generator: Adobe Illustrator 19.2.0, SVG Export Plug-In . SVG Version: 6.00 Build 0)  -->
<svg version="1.1" id="Layer_1" xmlns="http://www.w3.org/2000/svg" xmlns:xlink="http://www.w3.org/1999/xlink" x="0px" y="0px"
	 viewBox="0 0 24 24" style="enable-background:new 0 0 24 24;" xml:space="preserve">
<style type="text/css">
	.st0{display:none;}
	.st1{display:inline;}
	.st2{fill:none;stroke:#000000;stroke-linecap:round;stroke-linejoin:round;stroke-miterlimit:10;}
</style>
<g id="Filled_Icons" class="st0">
	<g class="st1">
		<path d="M18,8.2L19.2,7l0.4,0.4c0.1,0.1,0.2,0.1,0.4,0.1c0.1,0,0.3,0,0.4-0.1c0.2-0.2,0.2-0.5,0-0.7l-1.5-1.5
			c-0.2-0.2-0.5-0.2-0.7,0c-0.2,0.2-0.2,0.5,0,0.7l0.4,0.4l-1.3,1.3C15.6,6,13.4,5.1,11,5V3h0.5C11.8,3,12,2.8,12,2.5
			C12,2.2,11.8,2,11.5,2h-2C9.2,2,9,2.2,9,2.5C9,2.8,9.2,3,9.5,3H10v2.5v10c0,0.3,0.2,0.5,0.5,0.5h10c0.3,0,0.5-0.2,0.5-0.5
			C21,12.7,19.9,10.1,18,8.2z M15.9,10.9l-1.5,1.5c-0.1,0.1-0.2,0.1-0.4,0.1c-0.1,0-0.3,0-0.4-0.1c-0.2-0.2-0.2-0.5,0-0.7l1.5-1.5
			c0.2-0.2,0.5-0.2,0.7,0C16,10.3,16,10.7,15.9,10.9z"/>
		<path d="M6,15.5C6,15.2,5.8,15,5.5,15h-2C3.2,15,3,15.2,3,15.5C3,15.8,3.2,16,3.5,16h2C5.8,16,6,15.8,6,15.5z"/>
		<path d="M5.9,10.1c-0.2-0.2-0.5-0.2-0.7,0c-0.2,0.2-0.2,0.5,0,0.7l1.5,1.5c0.1,0.1,0.2,0.1,0.4,0.1c0.1,0,0.3,0,0.4-0.1
			c0.2-0.2,0.2-0.5,0-0.7L5.9,10.1z"/>
		<path d="M10.5,20c-0.3,0-0.5,0.2-0.5,0.5v2c0,0.3,0.2,0.5,0.5,0.5c0.3,0,0.5-0.2,0.5-0.5v-2C11,20.2,10.8,20,10.5,20z"/>
		<path d="M6.6,18.6l-1.5,1.5c-0.2,0.2-0.2,0.5,0,0.7C5.2,21,5.4,21,5.5,21c0.1,0,0.3,0,0.4-0.1l1.5-1.5c0.2-0.2,0.2-0.5,0-0.7
			C7.2,18.5,6.8,18.5,6.6,18.6z"/>
		<path d="M14.4,18.6c-0.2-0.2-0.5-0.2-0.7,0c-0.2,0.2-0.2,0.5,0,0.7l1.5,1.5c0.1,0.1,0.2,0.1,0.4,0.1c0.1,0,0.3,0,0.4-0.1
			c0.2-0.2,0.2-0.5,0-0.7L14.4,18.6z"/>
	</g>
</g>
<g id="Outline_Icons">
	<g>
		<line class="st2" x1="9.5" y1="2.5" x2="11.5" y2="2.5"/>
		<line class="st2" x1="10.5" y1="2.5" x2="10.5" y2="5.5"/>
		<line class="st2" x1="18.5" y1="5.5" x2="20" y2="7"/>
		<line class="st2" x1="19.2" y1="6.2" x2="17.3" y2="8.2"/>
		<line class="st2" x1="3.5" y1="15.5" x2="5.5" y2="15.5"/>
		<line class="st2" x1="5.5" y1="10.5" x2="7" y2="12"/>
		<line class="st2" x1="10.5" y1="22.5" x2="10.5" y2="20.5"/>
		<line class="st2" x1="5.5" y1="20.5" x2="7" y2="19"/>
		<line class="st2" x1="15.5" y1="20.5" x2="14" y2="19"/>
		<line class="st2" x1="15.5" y1="10.5" x2="14" y2="12"/>
		<path class="st2" d="M10.5,15.5h10c0-5.5-4.5-10-10-10V15.5z"/>
	</g>
</g>
</svg>
