<?xml version="1.0" encoding="utf-8"?>
<!-- Generator: Adobe Illustrator 19.2.0, SVG Export Plug-In . SVG Version: 6.00 Build 0)  -->
<svg version="1.1" id="Layer_1" xmlns="http://www.w3.org/2000/svg" xmlns:xlink="http://www.w3.org/1999/xlink" x="0px" y="0px"
	 viewBox="0 0 24 24" style="enable-background:new 0 0 24 24;" xml:space="preserve">
<style type="text/css">
	.st0{display:none;}
	.st1{display:inline;}
	.st2{fill:none;stroke:#000000;stroke-linecap:round;stroke-linejoin:round;stroke-miterlimit:10;}
</style>
<g id="Filled_Icons" class="st0">
	<g class="st1">
		<path d="M18,6.2L19.2,5l0.4,0.4c0.1,0.1,0.2,0.1,0.4,0.1c0.1,0,0.3,0,0.4-0.1c0.2-0.2,0.2-0.5,0-0.7l-1.5-1.5
			c-0.2-0.2-0.5-0.2-0.7,0c-0.2,0.2-0.2,0.5,0,0.7l0.4,0.4l-1.3,1.3C15.6,4,13.4,3.1,11,3V1h0.5C11.8,1,12,0.8,12,0.5
			C12,0.2,11.8,0,11.5,0h-2C9.2,0,9,0.2,9,0.5C9,0.8,9.2,1,9.5,1H10v2.5v20c0,0.3,0.2,0.5,0.5,0.5C16.3,24,21,19.3,21,13.5
			C21,10.7,19.9,8.1,18,6.2z M13.6,9.6l1.5-1.5c0.2-0.2,0.5-0.2,0.7,0c0.2,0.2,0.2,0.5,0,0.7l-1.5,1.5c-0.1,0.1-0.2,0.1-0.4,0.1
			c-0.1,0-0.3,0-0.4-0.1C13.5,10.2,13.5,9.8,13.6,9.6z M15.9,18.9C15.8,19,15.6,19,15.5,19c-0.1,0-0.3,0-0.4-0.1l-1.5-1.5
			c-0.2-0.2-0.2-0.5,0-0.7c0.2-0.2,0.5-0.2,0.7,0l1.5,1.5C16,18.3,16,18.7,15.9,18.9z M17.5,14h-2c-0.3,0-0.5-0.2-0.5-0.5
			c0-0.3,0.2-0.5,0.5-0.5h2c0.3,0,0.5,0.2,0.5,0.5C18,13.8,17.8,14,17.5,14z"/>
		<path d="M6,13.5C6,13.2,5.8,13,5.5,13h-2C3.2,13,3,13.2,3,13.5C3,13.8,3.2,14,3.5,14h2C5.8,14,6,13.8,6,13.5z"/>
		<path d="M5.9,8.1C5.7,8,5.3,8,5.1,8.1C5,8.3,5,8.7,5.1,8.9l1.5,1.5c0.1,0.1,0.2,0.1,0.4,0.1c0.1,0,0.3,0,0.4-0.1
			c0.2-0.2,0.2-0.5,0-0.7L5.9,8.1z"/>
		<path d="M6.6,16.6l-1.5,1.5c-0.2,0.2-0.2,0.5,0,0.7C5.2,19,5.4,19,5.5,19c0.1,0,0.3,0,0.4-0.1l1.5-1.5c0.2-0.2,0.2-0.5,0-0.7
			C7.2,16.5,6.8,16.5,6.6,16.6z"/>
	</g>
</g>
<g id="Outline_Icons">
	<g>
		<line class="st2" x1="9.5" y1="0.5" x2="11.5" y2="0.5"/>
		<line class="st2" x1="10.5" y1="0.5" x2="10.5" y2="3.5"/>
		<line class="st2" x1="18.5" y1="3.5" x2="20" y2="5"/>
		<line class="st2" x1="19.2" y1="4.2" x2="17.3" y2="6.2"/>
		<line class="st2" x1="3.5" y1="13.5" x2="5.5" y2="13.5"/>
		<line class="st2" x1="5.5" y1="8.5" x2="7" y2="10"/>
		<line class="st2" x1="5.5" y1="18.5" x2="7" y2="17"/>
		<line class="st2" x1="17.5" y1="13.5" x2="15.5" y2="13.5"/>
		<line class="st2" x1="15.5" y1="18.5" x2="14" y2="17"/>
		<line class="st2" x1="15.5" y1="8.5" x2="14" y2="10"/>
		<path class="st2" d="M10.5,3.5v20c5.5,0,10-4.5,10-10C20.5,8,16,3.5,10.5,3.5z"/>
	</g>
</g>
</svg>
