<?xml version="1.0" encoding="utf-8"?>
<!-- Generator: Adobe Illustrator 19.2.0, SVG Export Plug-In . SVG Version: 6.00 Build 0)  -->
<svg version="1.1" id="Layer_1" xmlns="http://www.w3.org/2000/svg" xmlns:xlink="http://www.w3.org/1999/xlink" x="0px" y="0px"
	 viewBox="0 0 24 24" style="enable-background:new 0 0 24 24;" xml:space="preserve">
<style type="text/css">
	.st0{display:none;}
	.st1{display:inline;}
	.st2{fill:none;stroke:#000000;stroke-linecap:round;stroke-linejoin:round;stroke-miterlimit:10;}
</style>
<g id="Filled_Icons" class="st0">
	<g class="st1">
		<path d="M13.5,0C6.7,0,1,5.5,1,12c0,6.5,5.7,12,12.5,12c0.3,0,0.5-0.2,0.5-0.5v-23C14,0.2,13.8,0,13.5,0z M3.5,12
			C3.2,12,3,11.8,3,11.5C3,11.2,3.2,11,3.5,11h2C5.8,11,6,11.2,6,11.5C6,11.8,5.8,12,5.5,12H3.5z M8.1,17.7l-1.4,1.4
			c-0.2,0.2-0.5,0.2-0.7,0c-0.2-0.2-0.2-0.5,0-0.7l1.4-1.4c0.2-0.2,0.5-0.2,0.7,0C8.2,17.1,8.2,17.5,8.1,17.7z M8.1,7.1
			c-0.2,0.2-0.5,0.2-0.7,0L5.9,5.6c-0.2-0.2-0.2-0.5,0-0.7c0.2-0.2,0.5-0.2,0.7,0l1.4,1.4C8.2,6.5,8.2,6.9,8.1,7.1z"/>
		<path d="M22.5,11h-2c-0.3,0-0.5,0.2-0.5,0.5c0,0.3,0.2,0.5,0.5,0.5h2c0.3,0,0.5-0.2,0.5-0.5C23,11.2,22.8,11,22.5,11z"/>
		<path d="M18.7,7.1l1.4-1.4c0.2-0.2,0.2-0.5,0-0.7c-0.2-0.2-0.5-0.2-0.7,0l-1.4,1.4c-0.2,0.2-0.2,0.5,0,0.7
			C18.1,7.2,18.5,7.2,18.7,7.1z"/>
		<path d="M18.7,16.9c-0.2-0.2-0.5-0.2-0.7,0c-0.2,0.2-0.2,0.5,0,0.7l1.4,1.4c0.2,0.2,0.5,0.2,0.7,0c0.2-0.2,0.2-0.5,0-0.7
			L18.7,16.9z"/>
	</g>
</g>
<g id="Outline_Icons">
	<g>
		<path class="st2" d="M13.5,0.5c-6.4,0-12,5.1-12,11.5c0,6.4,5.6,11.5,12,11.5V0.5z"/>
		<line class="st2" x1="3.5" y1="11.5" x2="5.5" y2="11.5"/>
		<line class="st2" x1="22.5" y1="11.5" x2="20.5" y2="11.5"/>
		<line class="st2" x1="6.3" y1="18.7" x2="7.7" y2="17.3"/>
		<line class="st2" x1="19.7" y1="5.3" x2="18.3" y2="6.7"/>
		<line class="st2" x1="19.7" y1="18.7" x2="18.3" y2="17.3"/>
		<line class="st2" x1="6.3" y1="5.3" x2="7.7" y2="6.7"/>
	</g>
</g>
</svg>
