<?xml version="1.0" encoding="utf-8"?>
<!-- Generator: Adobe Illustrator 19.2.0, SVG Export Plug-In . SVG Version: 6.00 Build 0)  -->
<svg version="1.1" id="Outline_Icons" xmlns="http://www.w3.org/2000/svg" xmlns:xlink="http://www.w3.org/1999/xlink" x="0px"
	 y="0px" viewBox="0 0 24 24" style="enable-background:new 0 0 24 24;" xml:space="preserve">
<style type="text/css">
	.st0{fill:none;stroke:#000000;stroke-linejoin:round;stroke-miterlimit:10;}
	.st1{fill:none;stroke:#000000;stroke-linecap:round;stroke-linejoin:round;stroke-miterlimit:10;}
</style>
<g>
	<polyline class="st0" points="9.5,12.5 9.5,8.5 13.5,8.5 13.5,12.5 	"/>
	<polyline class="st0" points="9.5,20.5 9.5,23.5 13.5,23.5 13.5,20.5 	"/>
	<line class="st1" x1="11.5" y1="14" x2="11.5" y2="16.5"/>
	<line class="st1" x1="11.5" y1="16.5" x2="13.5" y2="16.5"/>
	<path class="st0" d="M11,16.5L11,16.5L11,16.5z"/>
	<circle class="st0" cx="11.5" cy="16.5" r="4.5"/>
	<line class="st1" x1="11.5" y1="5" x2="11.5" y2="8.5"/>
	<line class="st1" x1="11.5" y1="0.5" x2="11.5" y2="2.5"/>
	<line class="st1" x1="14.9" y1="2" x2="13.4" y2="3.3"/>
	<line class="st1" x1="16" y1="5.6" x2="14" y2="5.3"/>
	<line class="st1" x1="8" y1="2" x2="9.5" y2="3.3"/>
	<line class="st1" x1="7" y1="5.6" x2="8.9" y2="5.3"/>
	<polyline class="st1" points="7.1,15.5 4.5,15.5 4.5,17.5 7.1,17.5 	"/>
	<polyline class="st0" points="5.5,15.5 5.5,8.5 9.5,8.5 9.5,12.5 	"/>
	<polyline class="st0" points="9.5,20.5 9.5,23.5 5.5,23.5 5.5,17.5 	"/>
	<polyline class="st1" points="15.9,15.5 18.5,15.5 18.5,17.5 15.9,17.5 	"/>
	<polyline class="st0" points="17.5,15.5 17.5,8.5 13.5,8.5 13.5,12.5 	"/>
	<polyline class="st0" points="13.5,20.5 13.5,23.5 17.5,23.5 17.5,17.5 	"/>
</g>
</svg>
