<?xml version="1.0" encoding="utf-8"?>
<!-- Generator: Adobe Illustrator 19.2.0, SVG Export Plug-In . SVG Version: 6.00 Build 0)  -->
<svg version="1.1" id="Layer_1" xmlns="http://www.w3.org/2000/svg" xmlns:xlink="http://www.w3.org/1999/xlink" x="0px" y="0px"
	 viewBox="0 0 24 24" style="enable-background:new 0 0 24 24;" xml:space="preserve">
<style type="text/css">
	.st0{display:none;}
	.st1{display:inline;}
	.st2{fill:none;stroke:#000000;stroke-linecap:round;stroke-linejoin:round;stroke-miterlimit:10;}
</style>
<g id="Filled_Icons" class="st0">
	<g class="st1">
		<path d="M10.5,1C10.2,1,10,1.2,10,1.5v11c0,0.3,0.2,0.5,0.5,0.5h12c0.3,0,0.5-0.2,0.5-0.5C23,6.2,17.4,1,10.5,1z M18.1,6.6
			l-1.4,1.4c-0.1,0.1-0.2,0.1-0.4,0.1c-0.1,0-0.3,0-0.4-0.1c-0.2-0.2-0.2-0.5,0-0.7l1.4-1.4c0.2-0.2,0.5-0.2,0.7,0
			C18.3,6.1,18.3,6.4,18.1,6.6z"/>
		<path d="M4,12.5C4,12.2,3.8,12,3.5,12h-2C1.2,12,1,12.2,1,12.5C1,12.8,1.2,13,1.5,13h2C3.8,13,4,12.8,4,12.5z"/>
		<path d="M16.7,17.9c-0.2-0.2-0.5-0.2-0.7,0c-0.2,0.2-0.2,0.5,0,0.7l1.4,1.4c0.1,0.1,0.2,0.1,0.4,0.1c0.1,0,0.3,0,0.4-0.1
			c0.2-0.2,0.2-0.5,0-0.7L16.7,17.9z"/>
		<path d="M4.6,5.9c-0.2-0.2-0.5-0.2-0.7,0c-0.2,0.2-0.2,0.5,0,0.7l1.4,1.4c0.1,0.1,0.2,0.1,0.4,0.1c0.1,0,0.3,0,0.4-0.1
			c0.2-0.2,0.2-0.5,0-0.7L4.6,5.9z"/>
		<path d="M5.3,17.9l-1.4,1.4c-0.2,0.2-0.2,0.5,0,0.7c0.1,0.1,0.2,0.1,0.4,0.1c0.1,0,0.3,0,0.4-0.1l1.4-1.4c0.2-0.2,0.2-0.5,0-0.7
			C5.9,17.8,5.5,17.8,5.3,17.9z"/>
		<path d="M10.5,20c-0.3,0-0.5,0.2-0.5,0.5v2c0,0.3,0.2,0.5,0.5,0.5c0.3,0,0.5-0.2,0.5-0.5v-2C11,20.2,10.8,20,10.5,20z"/>
	</g>
</g>
<g id="Outline_Icons">
	<g>
		<path class="st2" d="M10.5,12.5h12c0-6.4-5.6-11-12-11l0,0V12.5z"/>
		<line class="st2" x1="1.5" y1="12.5" x2="3.5" y2="12.5"/>
		<line class="st2" x1="17.7" y1="19.7" x2="16.3" y2="18.3"/>
		<line class="st2" x1="4.3" y1="6.3" x2="5.7" y2="7.7"/>
		<line class="st2" x1="4.3" y1="19.7" x2="5.7" y2="18.3"/>
		<line class="st2" x1="10.5" y1="22.5" x2="10.5" y2="20.5"/>
		<line class="st2" x1="17.7" y1="6.3" x2="16.3" y2="7.7"/>
	</g>
</g>
</svg>
