<?xml version="1.0" encoding="utf-8"?>
<!-- Generator: Adobe Illustrator 19.2.0, SVG Export Plug-In . SVG Version: 6.00 Build 0)  -->
<svg version="1.1" id="Layer_1" xmlns="http://www.w3.org/2000/svg" xmlns:xlink="http://www.w3.org/1999/xlink" x="0px" y="0px"
	 viewBox="0 0 24 24" style="enable-background:new 0 0 24 24;" xml:space="preserve">
<style type="text/css">
	.st0{display:none;}
	.st1{display:inline;}
	.st2{fill:none;stroke:#000000;stroke-linecap:round;stroke-linejoin:round;stroke-miterlimit:10;}
</style>
<g id="Filled_Icons" class="st0">
	<path class="st1" d="M12,0C5.4,0,0,5.4,0,12c0,6.6,5.4,12,12,12c6.6,0,12-5.4,12-12C24,5.4,18.6,0,12,0z M17,6.3l1.4-1.4
		c0.2-0.2,0.5-0.2,0.7,0c0.2,0.2,0.2,0.5,0,0.7l-1.4,1.4c-0.1,0.1-0.2,0.1-0.4,0.1c-0.1,0-0.3,0-0.4-0.1C16.8,6.9,16.8,6.5,17,6.3z
		 M2.5,12C2.2,12,2,11.8,2,11.5C2,11.2,2.2,11,2.5,11h2C4.8,11,5,11.2,5,11.5C5,11.8,4.8,12,4.5,12H2.5z M7,17.7l-1.4,1.4
		c-0.1,0.1-0.2,0.1-0.4,0.1c-0.1,0-0.3,0-0.4-0.1c-0.2-0.2-0.2-0.5,0-0.7l1.4-1.4c0.2-0.2,0.5-0.2,0.7,0C7.2,17.1,7.2,17.5,7,17.7z
		 M7,7.1C7,7.1,6.8,7.2,6.7,7.2c-0.1,0-0.3,0-0.4-0.1L4.9,5.6c-0.2-0.2-0.2-0.5,0-0.7c0.2-0.2,0.5-0.2,0.7,0L7,6.3
		C7.2,6.5,7.2,6.9,7,7.1z M12.5,21.5c0,0.3-0.2,0.5-0.5,0.5c-0.3,0-0.5-0.2-0.5-0.5v-2c0-0.3,0.2-0.5,0.5-0.5c0.3,0,0.5,0.2,0.5,0.5
		V21.5z M12.5,4.5C12.5,4.8,12.3,5,12,5c-0.3,0-0.5-0.2-0.5-0.5v-2C11.5,2.2,11.7,2,12,2c0.3,0,0.5,0.2,0.5,0.5V4.5z M19.1,19.1
		c-0.1,0.1-0.2,0.1-0.4,0.1c-0.1,0-0.3,0-0.4-0.1l-1.4-1.4c-0.2-0.2-0.2-0.5,0-0.7c0.2-0.2,0.5-0.2,0.7,0l1.4,1.4
		C19.3,18.6,19.3,18.9,19.1,19.1z M21.5,12h-2c-0.3,0-0.5-0.2-0.5-0.5c0-0.3,0.2-0.5,0.5-0.5h2c0.3,0,0.5,0.2,0.5,0.5
		C22,11.8,21.8,12,21.5,12z"/>
</g>
<g id="Outline_Icons">
	<g>
		<line class="st2" x1="2.5" y1="11.5" x2="4.5" y2="11.5"/>
		<line class="st2" x1="21.5" y1="11.5" x2="19.5" y2="11.5"/>
		<line class="st2" x1="12" y1="21.5" x2="12" y2="19.5"/>
		<line class="st2" x1="12" y1="2.5" x2="12" y2="4.5"/>
		<line class="st2" x1="5.3" y1="18.7" x2="6.7" y2="17.3"/>
		<line class="st2" x1="18.7" y1="5.3" x2="17.3" y2="6.7"/>
		<line class="st2" x1="18.7" y1="18.7" x2="17.3" y2="17.3"/>
		<line class="st2" x1="5.3" y1="5.3" x2="6.7" y2="6.7"/>
		<circle class="st2" cx="12" cy="12" r="11.5"/>
	</g>
</g>
</svg>
