<?xml version="1.0" encoding="utf-8"?>
<!-- Generator: Adobe Illustrator 19.2.0, SVG Export Plug-In . SVG Version: 6.00 Build 0)  -->
<svg version="1.1" id="Layer_1" xmlns="http://www.w3.org/2000/svg" xmlns:xlink="http://www.w3.org/1999/xlink" x="0px" y="0px"
	 viewBox="0 0 24 24" style="enable-background:new 0 0 24 24;" xml:space="preserve">
<style type="text/css">
	.st0{display:none;}
	.st1{display:inline;}
	.st2{fill:none;stroke:#000000;stroke-linecap:round;stroke-linejoin:round;stroke-miterlimit:10;}
</style>
<g id="Filled_Icons" class="st0">
	<g class="st1">
		<path d="M19,6.2L20.2,5l0.4,0.4c0.1,0.1,0.2,0.1,0.4,0.1c0.1,0,0.3,0,0.4-0.1c0.2-0.2,0.2-0.5,0-0.7l-1.5-1.5
			c-0.2-0.2-0.5-0.2-0.7,0c-0.2,0.2-0.2,0.5,0,0.7l0.4,0.4l-1.3,1.3C16.6,4,14.4,3.1,12,3V1h0.5C12.8,1,13,0.8,13,0.5
			C13,0.2,12.8,0,12.5,0h-2C10.2,0,10,0.2,10,0.5C10,0.8,10.2,1,10.5,1H11v2.5V13H1.5C1.2,13,1,13.2,1,13.5C1,19.3,5.7,24,11.5,24
			S22,19.3,22,13.5C22,10.7,20.9,8.1,19,6.2z M8.4,17.4l-1.5,1.5C6.8,19,6.6,19,6.5,19c-0.1,0-0.3,0-0.4-0.1c-0.2-0.2-0.2-0.5,0-0.7
			l1.5-1.5c0.2-0.2,0.5-0.2,0.7,0C8.5,16.8,8.5,17.2,8.4,17.4z M12,20.5c0,0.3-0.2,0.5-0.5,0.5c-0.3,0-0.5-0.2-0.5-0.5v-2
			c0-0.3,0.2-0.5,0.5-0.5c0.3,0,0.5,0.2,0.5,0.5V20.5z M14.6,9.6l1.5-1.5c0.2-0.2,0.5-0.2,0.7,0c0.2,0.2,0.2,0.5,0,0.7l-1.5,1.5
			c-0.1,0.1-0.2,0.1-0.4,0.1c-0.1,0-0.3,0-0.4-0.1C14.5,10.2,14.5,9.8,14.6,9.6z M16.9,18.9C16.8,19,16.6,19,16.5,19
			c-0.1,0-0.3,0-0.4-0.1l-1.5-1.5c-0.2-0.2-0.2-0.5,0-0.7c0.2-0.2,0.5-0.2,0.7,0l1.5,1.5C17,18.3,17,18.7,16.9,18.9z M18.5,14h-2
			c-0.3,0-0.5-0.2-0.5-0.5c0-0.3,0.2-0.5,0.5-0.5h2c0.3,0,0.5,0.2,0.5,0.5C19,13.8,18.8,14,18.5,14z"/>
		<path d="M7.6,10.4c0.1,0.1,0.2,0.1,0.4,0.1c0.1,0,0.3,0,0.4-0.1c0.2-0.2,0.2-0.5,0-0.7L6.9,8.1C6.7,8,6.3,8,6.1,8.1
			C6,8.3,6,8.7,6.1,8.9L7.6,10.4z"/>
	</g>
</g>
<g id="Outline_Icons">
	<g>
		<line class="st2" x1="10.5" y1="0.5" x2="12.5" y2="0.5"/>
		<line class="st2" x1="11.5" y1="0.5" x2="11.5" y2="3.5"/>
		<line class="st2" x1="19.5" y1="3.5" x2="21" y2="5"/>
		<line class="st2" x1="20.2" y1="4.2" x2="18.3" y2="6.2"/>
		<line class="st2" x1="6.5" y1="8.5" x2="8" y2="10"/>
		<line class="st2" x1="11.5" y1="20.5" x2="11.5" y2="18.5"/>
		<line class="st2" x1="6.5" y1="18.5" x2="8" y2="17"/>
		<line class="st2" x1="18.5" y1="13.5" x2="16.5" y2="13.5"/>
		<line class="st2" x1="16.5" y1="18.5" x2="15" y2="17"/>
		<line class="st2" x1="16.5" y1="8.5" x2="15" y2="10"/>
		<path class="st2" d="M11.5,3.5v10h-10c0,5.5,4.5,10,10,10c5.5,0,10-4.5,10-10C21.5,8,17,3.5,11.5,3.5z"/>
	</g>
</g>
</svg>
