<?xml version="1.0" encoding="utf-8"?>
<!-- Generator: Adobe Illustrator 19.2.0, SVG Export Plug-In . SVG Version: 6.00 Build 0)  -->
<svg version="1.1" id="Layer_1" xmlns="http://www.w3.org/2000/svg" xmlns:xlink="http://www.w3.org/1999/xlink" x="0px" y="0px"
	 viewBox="0 0 24 24" style="enable-background:new 0 0 24 24;" xml:space="preserve">
<style type="text/css">
	.st0{display:none;}
	.st1{display:inline;}
	.st2{fill:none;stroke:#000000;stroke-linecap:round;stroke-linejoin:round;stroke-miterlimit:10;}
</style>
<g id="Filled_Icons" class="st0">
	<path class="st1" d="M20,6.2L21.2,5l0.4,0.4c0.1,0.1,0.2,0.1,0.4,0.1c0.1,0,0.3,0,0.4-0.1c0.2-0.2,0.2-0.5,0-0.7l-1.5-1.5
		c-0.2-0.2-0.5-0.2-0.7,0c-0.2,0.2-0.2,0.5,0,0.7l0.4,0.4l-1.3,1.3C17.6,4,15.4,3.1,13,3V1h0.5C13.8,1,14,0.8,14,0.5
		C14,0.2,13.8,0,13.5,0h-2C11.2,0,11,0.2,11,0.5C11,0.8,11.2,1,11.5,1H12v2C6.4,3.3,2,7.9,2,13.5C2,19.3,6.7,24,12.5,24
		S23,19.3,23,13.5C23,10.7,21.9,8.1,20,6.2z M5,13.5C5,13.2,5.2,13,5.5,13h2C7.8,13,8,13.2,8,13.5C8,13.8,7.8,14,7.5,14h-2
		C5.2,14,5,13.8,5,13.5z M9.4,17.4l-1.5,1.5C7.8,19,7.6,19,7.5,19c-0.1,0-0.3,0-0.4-0.1c-0.2-0.2-0.2-0.5,0-0.7l1.5-1.5
		c0.2-0.2,0.5-0.2,0.7,0C9.5,16.8,9.5,17.2,9.4,17.4z M9.4,10.4c-0.1,0.1-0.2,0.1-0.4,0.1c-0.1,0-0.3,0-0.4-0.1L7.1,8.9
		C7,8.7,7,8.3,7.1,8.1C7.3,8,7.7,8,7.9,8.1l1.5,1.5C9.5,9.8,9.5,10.2,9.4,10.4z M13,20.5c0,0.3-0.2,0.5-0.5,0.5
		c-0.3,0-0.5-0.2-0.5-0.5v-2c0-0.3,0.2-0.5,0.5-0.5c0.3,0,0.5,0.2,0.5,0.5V20.5z M13,8.5C13,8.8,12.8,9,12.5,9C12.2,9,12,8.8,12,8.5
		v-2C12,6.2,12.2,6,12.5,6C12.8,6,13,6.2,13,6.5V8.5z M15.6,9.6l1.5-1.5c0.2-0.2,0.5-0.2,0.7,0c0.2,0.2,0.2,0.5,0,0.7l-1.5,1.5
		c-0.1,0.1-0.2,0.1-0.4,0.1c-0.1,0-0.3,0-0.4-0.1C15.5,10.2,15.5,9.8,15.6,9.6z M17.9,18.9C17.8,19,17.6,19,17.5,19
		c-0.1,0-0.3,0-0.4-0.1l-1.5-1.5c-0.2-0.2-0.2-0.5,0-0.7c0.2-0.2,0.5-0.2,0.7,0l1.5,1.5C18,18.3,18,18.7,17.9,18.9z M19.5,14h-2
		c-0.3,0-0.5-0.2-0.5-0.5c0-0.3,0.2-0.5,0.5-0.5h2c0.3,0,0.5,0.2,0.5,0.5C20,13.8,19.8,14,19.5,14z"/>
</g>
<g id="Outline_Icons">
	<g>
		<line class="st2" x1="10.5" y1="0.5" x2="12.5" y2="0.5"/>
		<line class="st2" x1="11.5" y1="0.5" x2="11.5" y2="3.5"/>
		<line class="st2" x1="19.5" y1="3.5" x2="21" y2="5"/>
		<line class="st2" x1="20.2" y1="4.2" x2="18.3" y2="6.2"/>
		<line class="st2" x1="4.5" y1="13.5" x2="6.5" y2="13.5"/>
		<line class="st2" x1="6.5" y1="8.5" x2="8" y2="10"/>
		<line class="st2" x1="6.5" y1="18.5" x2="8" y2="17"/>
		<line class="st2" x1="18.5" y1="13.5" x2="16.5" y2="13.5"/>
		<line class="st2" x1="11.5" y1="20.5" x2="11.5" y2="18.5"/>
		<line class="st2" x1="11.5" y1="6.5" x2="11.5" y2="8.5"/>
		<line class="st2" x1="16.5" y1="18.5" x2="15" y2="17"/>
		<line class="st2" x1="16.5" y1="8.5" x2="15" y2="10"/>
		<circle class="st2" cx="11.5" cy="13.5" r="10"/>
	</g>
</g>
</svg>
