<?xml version="1.0" encoding="utf-8"?>
<!-- Generator: Adobe Illustrator 19.2.0, SVG Export Plug-In . SVG Version: 6.00 Build 0)  -->
<svg version="1.1" id="Layer_1" xmlns="http://www.w3.org/2000/svg" xmlns:xlink="http://www.w3.org/1999/xlink" x="0px" y="0px"
	 viewBox="0 0 24 24" style="enable-background:new 0 0 24 24;" xml:space="preserve">
<style type="text/css">
	.st0{display:none;}
	.st1{display:inline;}
	.st2{fill:none;stroke:#000000;stroke-linecap:round;stroke-linejoin:round;stroke-miterlimit:10;}
</style>
<g id="Filled_Icons" class="st0">
	<g class="st1">
		<path d="M12.5,0C12.2,0,12,0.2,12,0.5V11H0.5C0.2,11,0,11.2,0,11.5C0,18.4,5.4,24,12,24c6.6,0,12-5.4,12-12C24,5.5,18.7,0,12.5,0z
			 M7,17.7l-1.4,1.4c-0.1,0.1-0.2,0.1-0.4,0.1c-0.1,0-0.3,0-0.4-0.1c-0.2-0.2-0.2-0.5,0-0.7l1.4-1.4c0.2-0.2,0.5-0.2,0.7,0
			C7.2,17.1,7.2,17.5,7,17.7z M17,6.3l1.4-1.4c0.2-0.2,0.5-0.2,0.7,0c0.2,0.2,0.2,0.5,0,0.7l-1.4,1.4c-0.1,0.1-0.2,0.1-0.4,0.1
			c-0.1,0-0.3,0-0.4-0.1C16.8,6.9,16.8,6.5,17,6.3z M13,21.5c0,0.3-0.2,0.5-0.5,0.5c-0.3,0-0.5-0.2-0.5-0.5v-2
			c0-0.3,0.2-0.5,0.5-0.5c0.3,0,0.5,0.2,0.5,0.5V21.5z M19.1,19.1c-0.1,0.1-0.2,0.1-0.4,0.1c-0.1,0-0.3,0-0.4-0.1l-1.4-1.4
			c-0.2-0.2-0.2-0.5,0-0.7c0.2-0.2,0.5-0.2,0.7,0l1.4,1.4C19.3,18.6,19.3,18.9,19.1,19.1z M21.5,12h-2c-0.3,0-0.5-0.2-0.5-0.5
			c0-0.3,0.2-0.5,0.5-0.5h2c0.3,0,0.5,0.2,0.5,0.5C22,11.8,21.8,12,21.5,12z"/>
		<path d="M6.3,7.1c0.1,0.1,0.2,0.1,0.4,0.1c0.1,0,0.3,0,0.4-0.1c0.2-0.2,0.2-0.5,0-0.7L5.6,4.9c-0.2-0.2-0.5-0.2-0.7,0
			c-0.2,0.2-0.2,0.5,0,0.7L6.3,7.1z"/>
	</g>
</g>
<g id="Outline_Icons">
	<g>
		<path class="st2" d="M12.5,0.5v11h-12c0,6.5,5.1,12,11.5,12c6.4,0,11.5-5.1,11.5-11.5C23.5,5.6,18.4,0.5,12.5,0.5z"/>
		<line class="st2" x1="21.5" y1="11.5" x2="19.5" y2="11.5"/>
		<line class="st2" x1="18.7" y1="18.7" x2="17.3" y2="17.3"/>
		<line class="st2" x1="5.3" y1="5.3" x2="6.7" y2="6.7"/>
		<line class="st2" x1="12.5" y1="21.5" x2="12.5" y2="19.5"/>
		<line class="st2" x1="5.3" y1="18.7" x2="6.7" y2="17.3"/>
		<line class="st2" x1="18.7" y1="5.3" x2="17.3" y2="6.7"/>
	</g>
</g>
</svg>
