<?xml version="1.0" encoding="utf-8"?>
<!-- Generator: Adobe Illustrator 19.2.0, SVG Export Plug-In . SVG Version: 6.00 Build 0)  -->
<svg version="1.1" id="Layer_1" xmlns="http://www.w3.org/2000/svg" xmlns:xlink="http://www.w3.org/1999/xlink" x="0px" y="0px"
	 viewBox="0 0 24 24" style="enable-background:new 0 0 24 24;" xml:space="preserve">
<style type="text/css">
	.st0{display:none;}
	.st1{display:inline;}
	.st2{fill:none;stroke:#000000;stroke-linejoin:round;stroke-miterlimit:10;}
</style>
<g id="Filled_Icons" class="st0">
	<g class="st1">
		<g>
			<path d="M8,7C4.4,7,1.5,6.2,0,4.9V20c0,2.2,3.5,4,8,4s8-1.8,8-4V4.9C14.5,6.2,11.6,7,8,7z"/>
			<path d="M8,0C3.3,0,0,1.6,0,3s3.3,3,8,3s8-1.6,8-3S12.7,0,8,0z M8,4C5.9,4,4.5,3.3,4.5,2.7c0-0.6,1.4-1.3,3.5-1.3
				s3.5,0.7,3.5,1.3C11.5,3.3,10.1,4,8,4z"/>
		</g>
		<g>
			<path d="M22.6,18l1.3-2.2c0.1-0.1,0.1-0.3,0-0.5l-1.4-2.8l1.4-2.8c0.1-0.2,0.1-0.3,0-0.5L22.6,7l1.3-1.7c0.1-0.2,0.1-0.3,0-0.5
				c-0.1-0.2-0.3-0.3-0.4-0.3H17v16h6.5c0.2,0,0.3-0.1,0.4-0.3c0.1-0.2,0.1-0.3,0-0.5L22.6,18z"/>
		</g>
	</g>
</g>
<g id="Outline_Icons">
	<g>
		<ellipse class="st2" cx="8" cy="5" rx="7.5" ry="3.5"/>
		<ellipse class="st2" cx="8" cy="5" rx="3.5" ry="1.5"/>
		<path class="st2" d="M15.5,20c0,1.9-3.4,3.5-7.5,3.5c-4.1,0-7.5-1.6-7.5-3.5"/>
		<line class="st2" x1="15.5" y1="5" x2="15.5" y2="20"/>
		<line class="st2" x1="0.5" y1="20" x2="0.5" y2="5"/>
		<polygon class="st2" points="15.5,4.5 23.5,4.5 22,7 23.5,9.5 22,12.5 23.5,15.5 22,18 23.5,20.5 15.5,20.5 		"/>
	</g>
</g>
</svg>
