<?xml version="1.0" encoding="utf-8"?>
<!-- Generator: Adobe Illustrator 19.2.0, SVG Export Plug-In . SVG Version: 6.00 Build 0)  -->
<svg version="1.1" id="Layer_1" xmlns="http://www.w3.org/2000/svg" xmlns:xlink="http://www.w3.org/1999/xlink" x="0px" y="0px"
	 viewBox="0 0 24 24" style="enable-background:new 0 0 24 24;" xml:space="preserve">
<style type="text/css">
	.st0{display:none;}
	.st1{display:inline;}
	.st2{fill:none;stroke:#000000;stroke-linejoin:round;stroke-miterlimit:10;}
</style>
<g id="Filled_Icons" class="st0">
	<g class="st1">
		<path d="M4.5,14H5h11v-3H4.5C4.2,11,4,11.2,4,11.5v2C4,13.8,4.2,14,4.5,14z"/>
		<path d="M17,14h6v-0.1c0.6-0.2,1-0.8,1-1.4v-10C24,1.1,22.9,0,21.5,0h-2C18.1,0,17,1.1,17,2.5V6v5V14z M20.5,2.5
			C21.3,2.5,22,3.2,22,4s-0.7,1.5-1.5,1.5S19,4.8,19,4S19.7,2.5,20.5,2.5z"/>
		<path d="M5.2,15c0.5,2.1,2.3,3.7,4.5,4L9,23.4c0,0.1,0,0.3,0.1,0.4C9.2,23.9,9.4,24,9.5,24h10c0.3,0,0.5-0.2,0.5-0.5v-5.7l2.8-1.8
			c0.1-0.1,0.2-0.2,0.2-0.4V15H5.2z"/>
	</g>
</g>
<g id="Outline_Icons">
	<g>
		<path class="st2" d="M23.5,12.5c0,0.6-0.4,1-1,1h-5v-11c0-1.1,0.9-2,2-2h2c1.1,0,2,0.9,2,2V12.5z"/>
		<path class="st2" d="M9.5,23.5h10v-6l3-2v-2h-17v0.2c0,2.6,2.1,4.8,4.8,4.8L9.5,23.5z"/>
		<rect x="4.5" y="11.5" class="st2" width="13" height="2"/>
		<circle class="st2" cx="21" cy="4" r="1"/>
	</g>
</g>
</svg>
