<?xml version="1.0" encoding="utf-8"?>
<!-- Generator: Adobe Illustrator 19.2.0, SVG Export Plug-In . SVG Version: 6.00 Build 0)  -->
<svg version="1.1" id="Outline_Icons" xmlns="http://www.w3.org/2000/svg" xmlns:xlink="http://www.w3.org/1999/xlink" x="0px"
	 y="0px" viewBox="0 0 24 24" style="enable-background:new 0 0 24 24;" xml:space="preserve">
<style type="text/css">
	.st0{fill:none;stroke:#000000;stroke-linejoin:round;stroke-miterlimit:10;}
	.st1{fill:none;stroke:#000000;stroke-linecap:round;stroke-linejoin:round;stroke-miterlimit:10;}
</style>
<g>
	<g>
		<path class="st0" d="M20.5,18.6V5.5c0-6.6-17-6.6-17,0v13.1"/>
		<path class="st0" d="M19.5,18.6c-0.2-2-2.1-3.5-4.3-3c-0.5-1.2-1.8-2.1-3.2-2.1s-2.7,0.9-3.2,2.1c-2.1-0.5-4,1-4.3,3
			c-1.6-0.4-3,0.9-3,2.4c0,2.7,3,2.5,3,2.5h15c0,0,3,0.2,3-2.5C22.5,19.4,21,18.2,19.5,18.6z"/>
	</g>
	<g>
		<line class="st1" x1="11.5" y1="10.5" x2="11.5" y2="6.5"/>
		<path class="st1" d="M14.5,10.5v-4h1c0.8,0,1,0.4,1,1s-0.1,1-1,1h-1"/>
		<g>
			<path class="st1" d="M7.6,10.5v-4h1c0.8,0,1,0.4,1,1s-0.1,1-1,1h-1"/>
			<line class="st1" x1="8.5" y1="8.5" x2="9.5" y2="10.5"/>
		</g>
	</g>
</g>
</svg>
