<?xml version="1.0" encoding="utf-8"?>
<!-- Generator: Adobe Illustrator 19.2.0, SVG Export Plug-In . SVG Version: 6.00 Build 0)  -->
<svg version="1.1" id="Layer_1" xmlns="http://www.w3.org/2000/svg" xmlns:xlink="http://www.w3.org/1999/xlink" x="0px" y="0px"
	 viewBox="0 0 24 24" style="enable-background:new 0 0 24 24;" xml:space="preserve">
<style type="text/css">
	.st0{display:none;}
	.st1{display:inline;}
	.st2{fill:none;stroke:#000000;stroke-linejoin:round;stroke-miterlimit:10;}
	.st3{fill:none;stroke:#000000;stroke-linecap:round;stroke-linejoin:round;stroke-miterlimit:10;}
</style>
<g id="Filled_Icons" class="st0">
	<path class="st1" d="M17.5,0h-12C4.1,0,3,1.1,3,2.5v19C3,22.9,4.1,24,5.5,24h12c1.4,0,2.5-1.1,2.5-2.5v-19C20,1.1,18.9,0,17.5,0z
		 M8,20.7c-1.2-0.6-2-1.8-2-3.1c0-1.4,0.8-2.6,2-3.1V20.7z M10,21.5c0,0.3-0.2,0.5-0.5,0.5S9,21.8,9,21.5v-8c0-0.3,0.2-0.5,0.5-0.5
		s0.5,0.2,0.5,0.5V21.5z M11,20.7v-6.3c1.2,0.6,2,1.8,2,3.1C13,18.9,12.2,20.1,11,20.7z M11.7,9L9.6,4.4C9.5,4.1,9.2,4,8.9,4.1
		C8.7,4.2,8.6,4.5,8.7,4.8l2,4.4C9.7,9.5,9,10.4,9,11.5H6.5C6.2,11.5,6,11.3,6,11V2.5C6,2.2,6.2,2,6.5,2h10C16.8,2,17,2.2,17,2.5V11
		c0,0.3-0.2,0.5-0.5,0.5H14C14,10.2,13,9.1,11.7,9z M16,21.5c-0.8,0-1.5-0.7-1.5-1.5c0-0.8,0.7-1.5,1.5-1.5s1.5,0.7,1.5,1.5
		C17.5,20.8,16.8,21.5,16,21.5z M16,17.5c-0.8,0-1.5-0.7-1.5-1.5c0-0.8,0.7-1.5,1.5-1.5s1.5,0.7,1.5,1.5
		C17.5,16.8,16.8,17.5,16,17.5z"/>
</g>
<g id="Outline_Icons">
	<g>
		<path class="st2" d="M3.5,2.5c0-1.1,0.9-2,2-2h12c1.1,0,2,0.9,2,2v19c0,1.1-0.9,2-2,2h-12c-1.1,0-2-0.9-2-2V2.5z"/>
		<rect x="6.5" y="2.5" class="st2" width="10" height="9"/>
		<circle class="st2" cx="16" cy="16" r="1"/>
		<circle class="st2" cx="16" cy="20" r="1"/>
		<circle class="st2" cx="9.5" cy="17.5" r="3"/>
		<line class="st3" x1="11.3" y1="9.5" x2="9.1" y2="4.6"/>
		<line class="st3" x1="9.5" y1="13.5" x2="9.5" y2="21.5"/>
		<path class="st2" d="M9.5,11.5c0-1.1,0.9-2,2-2c1.1,0,2,0.9,2,2"/>
	</g>
</g>
</svg>
