<?xml version="1.0" encoding="utf-8"?>
<!-- Generator: Adobe Illustrator 19.2.0, SVG Export Plug-In . SVG Version: 6.00 Build 0)  -->
<svg version="1.1" id="Layer_1" xmlns="http://www.w3.org/2000/svg" xmlns:xlink="http://www.w3.org/1999/xlink" x="0px" y="0px"
	 viewBox="0 0 24 24" style="enable-background:new 0 0 24 24;" xml:space="preserve">
<style type="text/css">
	.st0{display:none;}
	.st1{display:inline;}
	.st2{fill:none;stroke:#000000;stroke-linejoin:round;stroke-miterlimit:10;}
</style>
<g id="Filled_Icons" class="st0">
	<path class="st1" d="M11,12v10c0,1.1,0.9,2,2,2s2-0.9,2-2V11.2C13.3,11.3,12,11.6,11,12z"/>
	<g class="st1">
		<path d="M8.8,11.6C6.5,8.8,6.5,4.2,8.9,1.4l0.3-0.3c-0.7-0.5-0.9-0.9-1-0.9C8.1,0,7.8-0.1,7.6,0.1C5.3,1.5,3.9,4,3.9,6.7
			c0,2.6,1.3,4.9,3.4,6.2C7.4,13,7.5,13,7.6,13c0.2,0,0.3-0.1,0.4-0.2c0,0,0.3-0.4,1.1-0.9L8.8,11.6z"/>
		<path d="M18.8,2.7c-0.1-0.1-0.3-0.1-0.4-0.1C15.6,3,12.5,3,10,1.6L9.6,2.1c-2.1,2.4-2.1,6.4-0.1,8.8l0.4,0.5
			c2.6-1.3,5.7-1.4,8.5-0.9c0.1,0,0.3,0,0.4-0.1c0.1-0.1,0.2-0.2,0.2-0.4V3.1C19,2.9,18.9,2.8,18.8,2.7z"/>
	</g>
</g>
<g id="Outline_Icons">
	<g>
		<path class="st2" d="M14.5,9.7V22c0,0.8-0.7,1.5-1.5,1.5s-1.5-0.7-1.5-1.5V10.2"/>
		<path class="st2" d="M18.5,9.9c-8-1.3-10.9,2.6-10.9,2.6c-4.4-2.7-4.1-9.3,0.2-12c0,0,2.7,3.8,10.7,2.6V9.9z"/>
		<path class="st2" d="M9.2,11.2C7,8.6,7.1,4.4,9.3,1.8"/>
	</g>
</g>
</svg>
