<?xml version="1.0" encoding="utf-8"?>
<!-- Generator: Adobe Illustrator 19.2.0, SVG Export Plug-In . SVG Version: 6.00 Build 0)  -->
<svg version="1.1" id="Layer_1" xmlns="http://www.w3.org/2000/svg" xmlns:xlink="http://www.w3.org/1999/xlink" x="0px" y="0px"
	 viewBox="0 0 24 24" style="enable-background:new 0 0 24 24;" xml:space="preserve">
<style type="text/css">
	.st0{display:none;}
	.st1{display:inline;}
	.st2{fill:none;stroke:#000000;stroke-linejoin:round;stroke-miterlimit:10;}
</style>
<g id="Filled_Icons" class="st0">
	<g class="st1">
		<g>
			<path d="M12,5.1c1.4,0,2.7,0.4,3.8,1.2c0.1-0.2,0.2-0.4,0.3-0.6c0.1-0.1,0.4-0.3,1.2-0.6c0.1,0,0.2-0.1,0.3-0.1l0,0l3.4-3.4
				c0.1-0.1,0.2-0.3,0.1-0.4c0-0.2-0.1-0.3-0.2-0.4c-2.5-1.5-5.9-1-8,1.1c-0.9,0.9-1.5,2.1-1.8,3.2C11.3,5.2,11.6,5.1,12,5.1z"/>
			<path d="M23.1,3.2c-0.1-0.1-0.2-0.2-0.4-0.2c-0.2,0-0.3,0-0.4,0.1L19,6.5c-0.1,0.1-0.1,0.1-0.1,0.2c-0.1,0.2-0.3,0.9-0.6,1.2
				c-0.2,0.2-0.4,0.3-0.6,0.3c0.8,1.2,1.2,2.6,1.2,4c0,0.3,0,0.5-0.1,0.8c1.1-0.3,2.3-1,3.2-1.8C24.2,9,24.6,5.7,23.1,3.2z"/>
		</g>
		<g>
			<path d="M12.5,10.8l3.2-3.2c-1.1-0.9-2.4-1.4-3.8-1.4c-1.7,0-3.3,0.7-4.5,1.9l-6.6,6.6c-0.2,0.2-0.2,0.5,0,0.7
				c0.4,0.4,1,0.6,1.6,0.6c1.5,0,3.1-1.3,4.9-2.7c1.6-1.3,3.3-2.6,4.5-2.6C12.1,10.6,12.3,10.7,12.5,10.8z"/>
			<path d="M16.5,8.2l-3.2,3.2c0.6,1.2-0.7,2.9-2.5,5.1C8.9,19,7,21.4,8.7,23.1c0.1,0.1,0.2,0.1,0.4,0.1s0.3-0.1,0.4-0.1l6.6-6.6
				c1.2-1.2,1.9-2.7,1.9-4.3C17.9,10.8,17.4,9.4,16.5,8.2z"/>
		</g>
	</g>
</g>
<g id="Outline_Icons">
	<g>
		<path class="st2" d="M15.8,8.2C13.5,6,10.1,6.1,7.8,8.4l-6.6,6.6c2.8,2.8,8.9-7.3,12-4.2c3.1,3.1-7.1,9.2-4.2,12l6.6-6.6
			C17.9,13.9,18,10.5,15.8,8.2z"/>
		<line class="st2" x1="13.3" y1="10.7" x2="15.8" y2="8.2"/>
		<g>
			<path class="st2" d="M17.3,12.7h0.1c1.4,0,3.1-0.8,4.2-1.9c2-2,2.4-5.1,1.1-7.4l-3.4,3.4c0,0-0.3,1-0.7,1.4c-0.8,0.8-2,0.8-2.8,0
				c-0.8-0.8-0.8-2,0-2.8c0.4-0.4,1.4-0.7,1.4-0.7l3.4-3.4c-2.3-1.4-5.4-0.9-7.4,1.1c-1.1,1.1-1.9,2.8-1.9,4.2v0.1"/>
		</g>
	</g>
</g>
</svg>
