<?xml version="1.0" encoding="utf-8"?>
<!-- Generator: Adobe Illustrator 19.2.0, SVG Export Plug-In . SVG Version: 6.00 Build 0)  -->
<svg version="1.1" id="Layer_1" xmlns="http://www.w3.org/2000/svg" xmlns:xlink="http://www.w3.org/1999/xlink" x="0px" y="0px"
	 viewBox="0 0 24 24" style="enable-background:new 0 0 24 24;" xml:space="preserve">
<style type="text/css">
	.st0{display:none;}
	.st1{display:inline;}
	.st2{fill:none;stroke:#000000;stroke-linejoin:round;stroke-miterlimit:10;}
</style>
<g id="Filled_Icons" class="st0">
	<g class="st1">
		<path d="M12,3.5c2.3,0,3.5-1.7,3.5-3C15.5,0.2,15.3,0,15,0H9C8.7,0,8.5,0.2,8.5,0.5C8.5,1.8,9.7,3.5,12,3.5z"/>
		<path d="M23.5,8.5c-1.3,0-3,1.2-3,3.5s1.7,3.5,3,3.5c0.3,0,0.5-0.2,0.5-0.5V9C24,8.7,23.8,8.5,23.5,8.5z"/>
		<path d="M12,20.5c-2.3,0-3.5,1.7-3.5,3C8.5,23.8,8.7,24,9,24h6c0.3,0,0.5-0.2,0.5-0.5C15.5,22.2,14.3,20.5,12,20.5z"/>
		<path d="M0.5,8.5C0.2,8.5,0,8.7,0,9v6c0,0.3,0.2,0.5,0.5,0.5c1.3,0,3-1.2,3-3.5S1.8,8.5,0.5,8.5z"/>
		<path d="M8.6,14C8.2,13.4,8,12.7,8,12s0.2-1.4,0.6-2H4.1c0.3,0.6,0.4,1.3,0.4,2c0,0.7-0.2,1.4-0.4,2H8.6z"/>
		<path d="M10,15.5v4.5c0.6-0.3,1.3-0.4,2-0.4s1.4,0.2,2,0.4v-4.5c-0.6,0.3-1.3,0.6-2,0.6C11.3,16,10.6,15.8,10,15.5z"/>
		<path d="M15.4,10c0.3,0.6,0.6,1.3,0.6,2c0,0.7-0.2,1.4-0.6,2h4.5c-0.3-0.6-0.4-1.3-0.4-2c0-0.7,0.2-1.4,0.4-2H15.4z"/>
		<path d="M14,8.6V4.1c-0.6,0.3-1.3,0.4-2,0.4s-1.4-0.2-2-0.4v4.5C10.6,8.2,11.3,8,12,8C12.7,8,13.4,8.2,14,8.6z"/>
		<circle cx="12" cy="12" r="3"/>
	</g>
</g>
<g id="Outline_Icons">
	<g>
		<circle class="st2" cx="12" cy="12" r="2.5"/>
		<line class="st2" x1="10.5" y1="2.6" x2="10.5" y2="10"/>
		<line class="st2" x1="13.5" y1="10" x2="13.5" y2="2.6"/>
		<path class="st2" d="M15,0.5c0,1-1,2.5-3,2.5S9,1.5,9,0.5H15z"/>
		<line class="st2" x1="21.4" y1="10.5" x2="14" y2="10.5"/>
		<line class="st2" x1="14" y1="13.5" x2="21.4" y2="13.5"/>
		<path class="st2" d="M23.5,15c-1,0-2.5-1-2.5-3s1.5-3,2.5-3V15z"/>
		<line class="st2" x1="13.5" y1="21.4" x2="13.5" y2="14"/>
		<line class="st2" x1="10.5" y1="14" x2="10.5" y2="21.4"/>
		<path class="st2" d="M9,23.5c0-1,1-2.5,3-2.5s3,1.5,3,2.5H9z"/>
		<line class="st2" x1="2.6" y1="13.5" x2="10" y2="13.5"/>
		<line class="st2" x1="10" y1="10.5" x2="2.6" y2="10.5"/>
		<path class="st2" d="M0.5,9c1,0,2.5,1,2.5,3s-1.5,3-2.5,3V9z"/>
	</g>
</g>
</svg>
