<?xml version="1.0" encoding="utf-8"?>
<!-- Generator: Adobe Illustrator 19.2.0, SVG Export Plug-In . SVG Version: 6.00 Build 0)  -->
<svg version="1.1" id="Layer_1" xmlns="http://www.w3.org/2000/svg" xmlns:xlink="http://www.w3.org/1999/xlink" x="0px" y="0px"
	 viewBox="0 0 24 24" style="enable-background:new 0 0 24 24;" xml:space="preserve">
<style type="text/css">
	.st0{display:none;}
	.st1{display:inline;}
	.st2{fill:none;stroke:#000000;stroke-linecap:round;stroke-linejoin:round;stroke-miterlimit:10;}
</style>
<g id="Filled_Icons" class="st0">
	<g class="st1">
		<path d="M21.5,4H13V3h0.5C14.3,3,15,2.3,15,1.5C15,0.7,14.3,0,13.5,0h-6C6.7,0,6,0.7,6,1.5C6,2.3,6.7,3,7.5,3H8v1H5.5
			C5.3,4,5,4.2,5,4.5C5,4.8,5.3,5,5.5,5H21v12H5.5C5.3,17,5,17.2,5,17.5C5,17.8,5.3,18,5.5,18H8v1H7.5C6.7,19,6,19.7,6,20.5
			C6,21.3,6.7,22,7.5,22h6c0.8,0,1.5-0.7,1.5-1.5c0-0.8-0.7-1.5-1.5-1.5H13v-1h8v5.5c0,0.3,0.2,0.5,0.5,0.5s0.5-0.2,0.5-0.5v-19
			C22,4.2,21.8,4,21.5,4z M9,3h3v1H9V3z M12,19H9v-1h3V19z"/>
		<path d="M3.5,10h13c0.3,0,0.5-0.2,0.5-0.5v-3C17,6.2,16.8,6,16.5,6h-13C3.2,6,3,6.2,3,6.5v3C3,9.8,3.2,10,3.5,10z"/>
		<path d="M17,15.5v-3c0-0.3-0.2-0.5-0.5-0.5h-13C3.2,12,3,12.2,3,12.5v3C3,15.8,3.2,16,3.5,16h13C16.8,16,17,15.8,17,15.5z"/>
	</g>
</g>
<g id="Outline_Icons">
	<g>
		<polyline class="st2" points="5.5,4.5 21.5,4.5 21.5,23.5 		"/>
		<line class="st2" x1="21.5" y1="17.5" x2="5.5" y2="17.5"/>
		<rect x="3.5" y="6.5" class="st2" width="13" height="3"/>
		<rect x="3.5" y="12.5" class="st2" width="13" height="3"/>
		<path class="st2" d="M6.5,1.5c0-0.6,0.4-1,1-1h6c0.6,0,1,0.4,1,1s-0.4,1-1,1h-6C6.9,2.5,6.5,2.1,6.5,1.5z"/>
		<line class="st2" x1="12.5" y1="2.5" x2="12.5" y2="4.5"/>
		<line class="st2" x1="8.5" y1="2.5" x2="8.5" y2="4.5"/>
		<path class="st2" d="M14.5,20.5c0,0.6-0.4,1-1,1h-6c-0.6,0-1-0.4-1-1s0.4-1,1-1h6C14.1,19.5,14.5,19.9,14.5,20.5z"/>
		<line class="st2" x1="8.5" y1="19.5" x2="8.5" y2="17.5"/>
		<line class="st2" x1="12.5" y1="19.5" x2="12.5" y2="17.5"/>
	</g>
</g>
</svg>
