<?xml version="1.0" encoding="utf-8"?>
<!-- Generator: Adobe Illustrator 19.2.0, SVG Export Plug-In . SVG Version: 6.00 Build 0)  -->
<svg version="1.1" id="Layer_1" xmlns="http://www.w3.org/2000/svg" xmlns:xlink="http://www.w3.org/1999/xlink" x="0px" y="0px"
	 viewBox="0 0 24 24" style="enable-background:new 0 0 24 24;" xml:space="preserve">
<style type="text/css">
	.st0{display:none;}
	.st1{display:inline;}
	.st2{fill:none;stroke:#000000;stroke-linejoin:round;stroke-miterlimit:10;}
</style>
<g id="Filled_Icons" class="st0">
	<g class="st1">
		<path d="M17,4c-1.7,0-3,1.3-3,3c0,1.7,1.3,3,3,3s3-1.3,3-3C20,5.4,18.7,4,17,4z M17,8c-0.6,0-1-0.4-1-1c0-0.6,0.4-1,1-1s1,0.4,1,1
			C18,7.6,17.6,8,17,8z"/>
		<circle cx="5" cy="19" r="1"/>
		<path d="M21.9,2.1c-1.5-1.5-3.5-2.2-5.5-2.1c-2.1,0.1-4,1.1-5.3,2.7l-10.2,14c-1.3,1.8-1.1,4.3,0.5,6c0.9,0.9,2,1.3,3.3,1.3l0,0
			c1,0,1.9-0.3,2.7-0.9l14-10.2c1.6-1.3,2.6-3.2,2.7-5.3C24.1,5.6,23.3,3.6,21.9,2.1z M5,22c-1.7,0-3-1.3-3-3c0-1.7,1.3-3,3-3
			s3,1.3,3,3C8,20.7,6.7,22,5,22z M17,12c-2.8,0-5-2.2-5-5c0-2.8,2.2-5,5-5s5,2.2,5,5S19.8,12,17,12z"/>
	</g>
</g>
<g id="Outline_Icons">
	<g>
		<path class="st2" d="M1.7,22.3c1.4,1.4,3.7,1.6,5.3,0.4l14-10.2c1.5-1.2,2.4-3,2.5-4.9c0.1-1.9-0.6-3.8-2-5.1
			c-1.4-1.4-3.2-2.1-5.1-2c-1.9,0.1-3.7,1-4.9,2.5L1.3,17C0.1,18.6,0.3,20.9,1.7,22.3z"/>
		<circle class="st2" cx="5" cy="19" r="2.5"/>
		<circle class="st2" cx="17" cy="7" r="4.5"/>
		<circle class="st2" cx="17" cy="7" r="2.5"/>
		<g>
			<path d="M17,6c-0.6,0-1,0.4-1,1c0,0.6,0.4,1,1,1s1-0.4,1-1C18,6.4,17.6,6,17,6L17,6z"/>
		</g>
		<g>
			<path d="M5,18c-0.6,0-1,0.4-1,1c0,0.6,0.4,1,1,1s1-0.4,1-1C6,18.4,5.6,18,5,18L5,18z"/>
		</g>
	</g>
</g>
</svg>
