<?xml version="1.0" encoding="utf-8"?>
<!-- Generator: Adobe Illustrator 19.2.0, SVG Export Plug-In . SVG Version: 6.00 Build 0)  -->
<svg version="1.1" id="Layer_1" xmlns="http://www.w3.org/2000/svg" xmlns:xlink="http://www.w3.org/1999/xlink" x="0px" y="0px"
	 viewBox="0 0 24 24" style="enable-background:new 0 0 24 24;" xml:space="preserve">
<style type="text/css">
	.st0{display:none;}
	.st1{display:inline;}
	.st2{fill:none;stroke:#000000;stroke-linejoin:round;stroke-miterlimit:10;}
	.st3{fill:none;stroke:#000000;stroke-linecap:round;stroke-linejoin:round;stroke-miterlimit:10;}
</style>
<g id="Filled_Icons" class="st0">
	<path class="st1" d="M8.5,0C8.2,0,8,0.2,8,0.5v6C8,8.3,6.7,9.7,5,10V0.5C5,0.2,4.8,0,4.5,0S4,0.2,4,0.5V10C2.3,9.7,1,8.3,1,6.5v-6
		C1,0.2,0.8,0,0.5,0S0,0.2,0,0.5v6c0,2.3,1.8,4.2,4,4.4V14c-1.1,0.2-2,1.2-2,2.4v5C2,22.9,3.1,24,4.5,24S7,22.9,7,21.5v-5
		c0-1.2-0.9-2.2-2-2.4V11c2.2-0.3,4-2.1,4-4.4v-6C9,0.2,8.8,0,8.5,0z"/>
	<path class="st1" d="M23,12.3C22.9,10.5,22.1,0,17.5,0c-4.8,0-5.4,11.2-5.5,12.5c0,0.1,0,0.3,0.1,0.4c0.1,0.1,0.2,0.2,0.4,0.2H16
		V5.5C16,4.7,16.7,4,17.5,4S19,4.7,19,5.5V13h3.5l0,0c0.3,0,0.5-0.2,0.5-0.5C23,12.4,23,12.4,23,12.3z"/>
	<path class="st1" d="M18,14.1V5.5C18,5.2,17.8,5,17.5,5S17,5.2,17,5.5v8.6c-1.1,0.2-2,1.2-2,2.4v5c0,1.4,1.1,2.5,2.5,2.5
		s2.5-1.1,2.5-2.5v-5C20,15.3,19.1,14.3,18,14.1z"/>
</g>
<g id="Outline_Icons">
	<g>
		<path class="st2" d="M6.5,21.5c0,1.1-0.9,2-2,2s-2-0.9-2-2v-5c0-1.1,0.9-2,2-2s2,0.9,2,2V21.5z"/>
		<path class="st2" d="M19.5,21.5c0,1.1-0.9,2-2,2s-2-0.9-2-2v-5c0-1.1,0.9-2,2-2s2,0.9,2,2V21.5z"/>
		<path class="st3" d="M8.5,0.5v6c0,2.2-1.8,4-4,4s-4-1.8-4-4v-6"/>
		<line class="st3" x1="4.5" y1="14.5" x2="4.5" y2="0.5"/>
		<line class="st3" x1="17.5" y1="14.5" x2="17.5" y2="5.5"/>
		<path class="st3" d="M17.5,0.5c4.4,0,5,12,5,12h-10C12.5,12.5,13.1,0.5,17.5,0.5z"/>
	</g>
</g>
</svg>
