<?xml version="1.0" encoding="utf-8"?>
<!-- Generator: Adobe Illustrator 19.2.0, SVG Export Plug-In . SVG Version: 6.00 Build 0)  -->
<svg version="1.1" id="Layer_1" xmlns="http://www.w3.org/2000/svg" xmlns:xlink="http://www.w3.org/1999/xlink" x="0px" y="0px"
	 viewBox="0 0 24 24" style="enable-background:new 0 0 24 24;" xml:space="preserve">
<style type="text/css">
	.st0{display:none;}
	.st1{display:inline;}
	.st2{fill:none;stroke:#000000;stroke-linecap:round;stroke-linejoin:round;stroke-miterlimit:10;}
	.st3{fill:none;stroke:#000000;stroke-linejoin:round;stroke-miterlimit:10;}
</style>
<g id="Filled_Icons" class="st0">
	<path class="st1" d="M20.5,5h-4V3.5c0-1.7-1.3-3-3-3h-3c-1.7,0-3,1.3-3,3V5h-4C1.6,5,0,6.6,0,8.5v10C0,20.4,1.6,22,3.5,22h17
		c1.9,0,3.5-1.6,3.5-3.5v-10C24,6.6,22.4,5,20.5,5z M9.5,3.5c0-0.6,0.4-1,1-1h3c0.6,0,1,0.4,1,1V5h-5V3.5z M17.5,14.5h2.3
		c-0.4,1.2-1.5,2-2.8,2c-1.3,0-2.4-0.8-2.8-2H9.8c-0.4,1.2-1.5,2-2.8,2s-2.4-1-2.8-2h2.3l1.2-1l-1.2-1H4.2c0.4-1,1.5-2,2.8-2
		s2.4,0.8,2.8,2h4.4c0.4-1.2,1.5-2,2.8-2c1.3,0,2.4,0.8,2.8,2h-2.3l-1.2,1L17.5,14.5z"/>
</g>
<g id="Outline_Icons">
	<g>
		<path class="st2" d="M23.5,8.5c0-1.7-1.4-3-3-3h-17c-1.6,0-3,1.3-3,3v10c0,1.6,1.4,3,3,3h17c1.6,0,3-1.4,3-3V8.5z"/>
		<path class="st2" d="M8.5,5.5v-2c0-1.1,0.9-2,2-2h3c1.1,0,2,0.9,2,2v2"/>
		<path class="st3" d="M16.3,13.5l1.2-1h2.3c-0.4-1.2-1.5-2-2.8-2c-1.3,0-2.4,0.8-2.8,2H9.8c-0.4-1.2-1.5-2-2.8-2s-2.4,1-2.8,2h2.3
			l1.2,1l-1.2,1H4.2c0.4,1,1.5,2,2.8,2s2.4-0.8,2.8-2h4.4c0.4,1.2,1.5,2,2.8,2c1.3,0,2.4-0.8,2.8-2h-2.3L16.3,13.5z"/>
	</g>
</g>
</svg>
