<?xml version="1.0" encoding="utf-8"?>
<!-- Generator: Adobe Illustrator 19.2.0, SVG Export Plug-In . SVG Version: 6.00 Build 0)  -->
<svg version="1.1" id="Layer_1" xmlns="http://www.w3.org/2000/svg" xmlns:xlink="http://www.w3.org/1999/xlink" x="0px" y="0px"
	 viewBox="0 0 24 24" style="enable-background:new 0 0 24 24;" xml:space="preserve">
<style type="text/css">
	.st0{display:none;}
	.st1{display:inline;}
	.st2{fill:none;stroke:#000000;stroke-linecap:round;stroke-linejoin:round;stroke-miterlimit:10;}
</style>
<g id="Filled_Icons" class="st0">
	<path class="st1" d="M23.4,19.5c-0.2-3.5-4.9-7.3-5.1-7.4c-0.2-0.2-0.5-0.1-0.7,0l-2.4,2.4L5,4.3V0.5C5,0.3,4.9,0.1,4.7,0
		C4.5,0,4.3,0,4.1,0.2l-4,4C0,4.3,0,4.5,0,4.7C0.1,4.9,0.3,5,0.5,5h3.8l10.2,10.2l-2.4,2.4c-0.2,0.2-0.2,0.5,0,0.7
		c0.2,0.2,4.1,5.1,7.7,5.1c1,0,1.9-0.4,2.6-1.1C23.1,21.6,23.5,20.6,23.4,19.5z"/>
</g>
<g id="Outline_Icons">
	<g>
		<path class="st2" d="M12.5,18c0,0,6,7.5,9.5,4c3.5-3.5-4-9.5-4-9.5L12.5,18z"/>
		<line class="st2" x1="19" y1="19" x2="4.5" y2="4.5"/>
		<polygon class="st2" points="4.5,0.5 4.5,4.5 0.5,4.5 		"/>
	</g>
</g>
</svg>
