<?xml version="1.0" encoding="utf-8"?>
<!-- Generator: Adobe Illustrator 19.2.0, SVG Export Plug-In . SVG Version: 6.00 Build 0)  -->
<svg version="1.1" id="Layer_1" xmlns="http://www.w3.org/2000/svg" xmlns:xlink="http://www.w3.org/1999/xlink" x="0px" y="0px"
	 viewBox="0 0 24 24" style="enable-background:new 0 0 24 24;" xml:space="preserve">
<style type="text/css">
	.st0{display:none;}
	.st1{display:inline;}
	.st2{fill:none;stroke:#000000;stroke-linecap:round;stroke-linejoin:round;stroke-miterlimit:10;}
</style>
<g id="Filled_Icons" class="st0">
	<path class="st1" d="M20,23h-1c-0.2-3-2.2-5.6-5-6.6v-0.9c0-0.3-0.2-0.5-0.5-0.5H12V9.9c0.6-0.2,1-0.8,1-1.4v-7
		C13,0.7,12.3,0,11.5,0S10,0.7,10,1.5v7c0,0.6,0.4,1.2,1,1.4V15H9.5C9.2,15,9,15.2,9,15.5v0.9c-2.8,1-4.8,3.6-5,6.6H3
		c-0.3,0-0.5,0.2-0.5,0.5C2.5,23.8,2.7,24,3,24h17c0.3,0,0.5-0.2,0.5-0.5C20.5,23.2,20.3,23,20,23z"/>
</g>
<g id="Outline_Icons">
	<g>
		<line class="st2" x1="3" y1="23.5" x2="20" y2="23.5"/>
		<line class="st2" x1="11.5" y1="15.5" x2="11.5" y2="9.5"/>
		<path class="st2" d="M10.5,1.5c0-0.6,0.4-1,1-1c0.6,0,1,0.4,1,1v7c0,0.6-0.4,1-1,1c-0.6,0-1-0.4-1-1V1.5z"/>
		<path class="st2" d="M13.5,16.8v-1.3h-4v1.3c-2.9,0.9-5,3.5-5,6.7h14C18.5,20.3,16.4,17.7,13.5,16.8z"/>
	</g>
</g>
</svg>
