<?xml version="1.0" encoding="utf-8"?>
<!-- Generator: Adobe Illustrator 19.2.0, SVG Export Plug-In . SVG Version: 6.00 Build 0)  -->
<svg version="1.1" id="Layer_1" xmlns="http://www.w3.org/2000/svg" xmlns:xlink="http://www.w3.org/1999/xlink" x="0px" y="0px"
	 viewBox="0 0 24 24" style="enable-background:new 0 0 24 24;" xml:space="preserve">
<style type="text/css">
	.st0{display:none;}
	.st1{display:inline;}
	.st2{fill:none;stroke:#000000;stroke-linejoin:round;stroke-miterlimit:10;}
	.st3{fill:none;stroke:#000000;stroke-linecap:round;stroke-linejoin:round;stroke-miterlimit:10;}
</style>
<g id="Filled_Icons" class="st0">
	<g class="st1">
		<g>
			<path d="M5.9,8.8l3.6,3.6l2.8-2.8L8.7,5.9c0.5-1.6,0.1-3.4-1.1-4.6c-1.3-1.3-3.2-1.7-4.9-1C2.6,0.4,2.5,0.6,2.5,0.7
				c0,0.2,0,0.3,0.1,0.4l1.7,2v1.3H3L1.1,2.7C1,2.5,0.8,2.5,0.7,2.5c-0.2,0-0.3,0.1-0.4,0.3c-0.7,1.7-0.3,3.6,1,4.9
				C2.5,8.9,4.3,9.3,5.9,8.8z"/>
			<path d="M17.9,15.1l-3.4-3.4l-2.8,2.8l3.4,3.4c-0.5,1.6-0.1,3.4,1.1,4.6c0.9,0.8,2,1.3,3.2,1.3c0.6,0,1.2-0.1,1.8-0.4
				c0.2-0.1,0.3-0.2,0.3-0.4c0-0.2,0-0.3-0.1-0.4l-1.9-2v-1.3h1.3l2,1.9c0.1,0.1,0.3,0.2,0.4,0.1s0.3-0.1,0.4-0.3
				c0.7-1.7,0.3-3.6-1-4.9C21.3,15,19.5,14.6,17.9,15.1z"/>
		</g>
		<path d="M23.9,1.7l-1.5-1.5C22.2,0,21.9,0,21.7,0.1l-3.5,2.5C18.1,2.6,18,2.8,18,2.9c0,0.1,0,0.3,0.1,0.4L19,4.3l-10,10l-1.8-1.8
			c-0.2-0.2-0.5-0.2-0.7,0c-0.2,0.2-0.2,0.5,0,0.7l0.7,0.7l-6.2,6.2c-0.4,0.4-0.6,0.9-0.6,1.4c0,0.5,0.2,1,0.6,1.4
			c0.4,0.4,0.9,0.6,1.4,0.6s1-0.2,1.4-0.6l6.2-6.2l0.7,0.7c0.1,0.1,0.2,0.1,0.4,0.1s0.3,0,0.4-0.1c0.2-0.2,0.2-0.5,0-0.7l-1.8-1.8
			l10-10l0.8,0.8c0.1,0.1,0.2,0.1,0.4,0.1c0,0,0,0,0,0c0.1,0,0.3-0.1,0.4-0.2l2.6-3.4C24,2.1,24,1.8,23.9,1.7z"/>
	</g>
</g>
<g id="Outline_Icons">
	<g>
		<g>
			<path class="st2" d="M3.6,22.6c-0.6,0.6-1.5,0.6-2.1,0c-0.6-0.6-0.6-1.5,0-2.1L8,13.9l2.1,2.1L3.6,22.6z"/>
			<line class="st3" x1="7" y1="12.8" x2="11.2" y2="17"/>
			<line class="st2" x1="19.8" y1="4.2" x2="9.1" y2="14.9"/>
			<polygon class="st2" points="20.9,5.4 18.5,3 22,0.5 23.5,2 			"/>
		</g>
		<path class="st2" d="M11.9,9.8L8.1,6.1c0.6-1.5,0.3-3.2-0.9-4.4C6.1,0.5,4.4,0.2,3,0.8l1.9,2.1v2h-2L0.8,3
			C0.2,4.5,0.4,6.2,1.6,7.4C2.8,8.6,4.6,8.8,6,8.2l3.7,3.7"/>
		<path class="st2" d="M11.9,14.1l3.7,3.7c-0.6,1.5-0.3,3.2,0.9,4.4c1.2,1.2,2.9,1.5,4.4,0.9l-2-2.1v-2h2l2.2,2
			c0.6-1.5,0.3-3.2-0.9-4.4c-1.2-1.2-2.9-1.5-4.4-0.9L14,11.9"/>
	</g>
</g>
</svg>
