<?xml version="1.0" encoding="utf-8"?>
<!-- Generator: Adobe Illustrator 19.2.0, SVG Export Plug-In . SVG Version: 6.00 Build 0)  -->
<svg version="1.1" id="Layer_1" xmlns="http://www.w3.org/2000/svg" xmlns:xlink="http://www.w3.org/1999/xlink" x="0px" y="0px"
	 viewBox="0 0 24 24" style="enable-background:new 0 0 24 24;" xml:space="preserve">
<style type="text/css">
	.st0{display:none;}
	.st1{display:inline;}
	.st2{fill:none;stroke:#000000;stroke-linecap:round;stroke-linejoin:round;stroke-miterlimit:10;}
	.st3{fill:none;stroke:#000000;stroke-linejoin:round;stroke-miterlimit:10;}
</style>
<g id="Filled_Icons" class="st0">
	<g class="st1">
		<path d="M24,8c0-2.8-2.2-5-5-5h-8.5c-1.1,0-2,0.9-2,2l0.1,5.5c0,1.4,1.1,2.5,2.4,2.5h2v2c0,0.3,0.2,0.5,0.5,0.5h2.2l1.2,5.5h-2.4
			c-0.3,0-0.5,0.2-0.5,0.5c0,0.3,0.2,0.5,0.5,0.5h6c0,0,0,0,0,0c0.3,0,0.5-0.2,0.5-0.5c0-0.1,0-0.1,0-0.2L19.1,13
			C21.8,12.9,24,10.7,24,8z M14,14.5V13h1.1l0.3,1.5H14z"/>
		<path d="M7.5,5H5C4.7,5,4.5,5.2,4.5,5.5V8h-4C0.2,8,0,8.2,0,8.5C0,8.8,0.2,9,0.5,9h4v1.5C4.5,10.8,4.7,11,5,11h2.5
			C7.8,11,8,10.8,8,10.5v-5C8,5.2,7.8,5,7.5,5z"/>
	</g>
</g>
<g id="Outline_Icons">
	<g>
		<path class="st2" d="M23.5,8c0,2.5-2,4.5-4.5,4.5h-8.6c-1.1,0-1.9-0.9-1.9-2V5c0-0.8,0.7-1.5,1.5-1.5h9C21.5,3.5,23.5,5.5,23.5,8z
			"/>
		<rect x="5.5" y="5.5" class="st2" width="3" height="5"/>
		<line class="st2" x1="0.5" y1="8.5" x2="5.5" y2="8.5"/>
		<polyline class="st3" points="13.5,12.5 13.5,14.5 15.9,14.5 		"/>
		<line class="st2" x1="13.5" y1="3.5" x2="13.5" y2="12.5"/>
		<line class="st2" x1="14.5" y1="21.5" x2="18.5" y2="21.5"/>
		<polygon class="st2" points="20.5,21.5 17.5,21.5 15.5,12.5 18.5,12.5 		"/>
	</g>
</g>
</svg>
