<?xml version="1.0" encoding="utf-8"?>
<!-- Generator: Adobe Illustrator 19.2.0, SVG Export Plug-In . SVG Version: 6.00 Build 0)  -->
<svg version="1.1" id="Layer_1" xmlns="http://www.w3.org/2000/svg" xmlns:xlink="http://www.w3.org/1999/xlink" x="0px" y="0px"
	 viewBox="0 0 24 24" style="enable-background:new 0 0 24 24;" xml:space="preserve">
<style type="text/css">
	.st0{display:none;}
	.st1{display:inline;}
	.st2{fill:none;stroke:#000000;stroke-linecap:round;stroke-linejoin:round;stroke-miterlimit:10;}
</style>
<g id="Filled_Icons" class="st0">
	<path class="st1" d="M18.9,23.2l-3.5-8.9c-0.2-0.8-0.9-1.4-1.8-1.4c-0.6,0-1.1,0.2-1.5,0.6L10.7,15l-1.6-1.6l4.6-4.6
		c0.1-0.1,0.1-0.2,0.1-0.4s-0.1-0.3-0.1-0.4l-1.8-1.8c0.2-0.3,0.3-0.7,0.3-1c0-0.5-0.2-1-0.6-1.4L8.8,1.1C8.1,0.3,6.7,0.3,6,1.1
		C5.6,1.5,5.4,2,5.4,2.5c0,0.5,0.2,1,0.6,1.4l2.8,2.8c0.4,0.4,0.9,0.6,1.4,0.6c0.4,0,0.7-0.1,1-0.3l1.5,1.5l-4.6,4.6
		c-0.2,0.2-0.2,0.5,0,0.7l1.9,1.9l-1.4,1.4c-0.5,0.5-0.8,1.3-0.6,2.1c0.2,0.6,0.6,1.1,1.3,1.3l9,3.5c0.1,0,0.1,0,0.2,0c0,0,0,0,0,0
		c0.3,0,0.5-0.2,0.5-0.5C19,23.4,19,23.3,18.9,23.2z"/>
</g>
<g id="Outline_Icons">
	<g>
		<path class="st2" d="M11.3,6.4C10.7,7,9.8,7,9.2,6.4L6.3,3.6C6.1,3.3,5.9,2.9,5.9,2.5c0-0.4,0.2-0.8,0.4-1.1
			c0.6-0.6,1.5-0.6,2.1,0l2.8,2.8c0.3,0.3,0.4,0.7,0.4,1.1C11.7,5.7,11.6,6.1,11.3,6.4z"/>
		<polyline class="st2" points="11.3,6.4 13.4,8.5 8.5,13.5 12,17 		"/>
		<path class="st2" d="M9.5,20c-1.1-0.3-1.3-1.7-0.5-2.5l3.5-3.5c0.8-0.8,2.2-0.6,2.5,0.5l3.5,9L9.5,20z"/>
	</g>
</g>
</svg>
