<?xml version="1.0" encoding="utf-8"?>
<!-- Generator: Adobe Illustrator 19.2.0, SVG Export Plug-In . SVG Version: 6.00 Build 0)  -->
<svg version="1.1" id="Layer_1" xmlns="http://www.w3.org/2000/svg" xmlns:xlink="http://www.w3.org/1999/xlink" x="0px" y="0px"
	 viewBox="0 0 24 24" style="enable-background:new 0 0 24 24;" xml:space="preserve">
<style type="text/css">
	.st0{display:none;}
	.st1{display:inline;}
	.st2{fill:none;stroke:#000000;stroke-linejoin:round;stroke-miterlimit:10;}
	.st3{fill:none;stroke:#000000;stroke-linecap:round;stroke-linejoin:round;stroke-miterlimit:10;}
</style>
<g id="Filled_Icons" class="st0">
	<path class="st1" d="M18.5,0h-6C12.2,0,12,0.2,12,0.5v3H1c-0.6,0-1,0.4-1,1s0.4,1,1,1h11v3C12,8.8,12.2,9,12.5,9h6
		C18.8,9,19,8.8,19,8.5v-8C19,0.2,18.8,0,18.5,0z"/>
	<g class="st1">
		<path d="M8,10H1.6c-0.5,0-0.9,0.2-1.2,0.6c-0.3,0.4-0.4,0.8-0.3,1.2c0.6,3,3.3,5.2,6.4,5.2H8V10z"/>
		<path d="M20.5,17h2c0.8,0,1.5-0.7,1.5-1.5v-4c0-0.8-0.7-1.5-1.5-1.5H9v7h1.5c0.8,0,1.5,0.7,1.5,1.5c0,1.1-0.6,1.3-1.9,1.6
			C8.8,20.4,7,20.9,7,23.5C7,23.8,7.2,24,7.5,24h16c0.3,0,0.5-0.2,0.5-0.5c0-2.6-1.8-3.1-3.1-3.4c-1.2-0.3-1.9-0.5-1.9-1.6
			C19,17.7,19.7,17,20.5,17z"/>
	</g>
</g>
<g id="Outline_Icons">
	<g>
		<path class="st2" d="M8.5,16.5h2c1.1,0,2,0.9,2,2c0,3.2-5,0.8-5,5h16c0-4.1-5-1.8-5-5c0-1.1,0.9-2,2-2h2c0.6,0,1-0.4,1-1v-4
			c0-0.6-0.4-1-1-1h-14V16.5z"/>
		<path class="st2" d="M1.6,10.5c-0.3,0-0.6,0.1-0.8,0.4c-0.2,0.2-0.3,0.5-0.2,0.8c0.6,2.7,3,4.8,5.9,4.8h2v-6H1.6z"/>
		<line class="st3" x1="1" y1="4.5" x2="12.5" y2="4.5"/>
		<rect x="12.5" y="0.5" class="st2" width="6" height="8"/>
	</g>
</g>
</svg>
