<?xml version="1.0" encoding="utf-8"?>
<!-- Generator: Adobe Illustrator 19.2.0, SVG Export Plug-In . SVG Version: 6.00 Build 0)  -->
<svg version="1.1" id="Layer_1" xmlns="http://www.w3.org/2000/svg" xmlns:xlink="http://www.w3.org/1999/xlink" x="0px" y="0px"
	 viewBox="0 0 24 24" style="enable-background:new 0 0 24 24;" xml:space="preserve">
<style type="text/css">
	.st0{display:none;}
	.st1{display:inline;}
	.st2{fill:none;stroke:#000000;stroke-linecap:round;stroke-linejoin:round;stroke-miterlimit:10;}
</style>
<g id="Filled_Icons" class="st0">
	<g class="st1">
		<path d="M11.5,17H13V7.2C12.5,7.1,12,7,11.5,7C11.2,7,11,7.2,11,7.5v9C11,16.8,11.2,17,11.5,17z"/>
		<path d="M20,16.5v-1c0-3.6-2.6-6.9-6-8.1V17h5.5C19.8,17,20,16.8,20,16.5z"/>
		<path d="M7,17h1h0.5C8.8,17,9,16.8,9,16.5v-9C9,7.2,8.8,7,8.5,7C8,7,7.5,7.1,7,7.1V17z"/>
		<path d="M0.5,17H6V7.4c-3.5,1.1-6,4.3-6,8.1v1C0,16.8,0.2,17,0.5,17z"/>
		<path d="M24,5c0-1.4-1.1-2.5-2.5-2.5S19,3.6,19,5c0,1.2,0.9,2.2,2,2.4V19h-4v-1h-4.3l-1,2H8.3l-1-2H3v5H0.5C0.2,23,0,23.2,0,23.5
			C0,23.8,0.2,24,0.5,24h19c0.3,0,0.5-0.2,0.5-0.5c0-0.3-0.2-0.5-0.5-0.5H17v-3h4v2c0,0.3,0.2,0.5,0.5,0.5S22,22.3,22,22v-2h0.5
			c0.3,0,0.5-0.2,0.5-0.5c0-0.3-0.2-0.5-0.5-0.5H22V7.5C23.1,7.2,24,6.2,24,5z"/>
	</g>
</g>
<g id="Outline_Icons">
	<g>
		<line class="st2" x1="19.5" y1="23.5" x2="0.5" y2="23.5"/>
		<polygon class="st2" points="16.5,16.5 14,16.5 12,20.5 8,20.5 6,16.5 3.5,16.5 3.5,23.5 16.5,23.5 		"/>
		<path class="st2" d="M0.5,15.5c0-4.4,3.6-8,8-8v9h-8V15.5z"/>
		<path class="st2" d="M19.5,15.5c0-4.4-4-8-8-8v9h8V15.5z"/>
		<line class="st2" x1="16.5" y1="19.5" x2="22.5" y2="19.5"/>
		<line class="st2" x1="21.5" y1="7" x2="21.5" y2="22"/>
		<circle class="st2" cx="21.5" cy="5" r="2"/>
		<line class="st2" x1="13.5" y1="7.8" x2="13.5" y2="16.5"/>
		<line class="st2" x1="6.5" y1="7.8" x2="6.5" y2="16.5"/>
	</g>
</g>
</svg>
