<?xml version="1.0" encoding="utf-8"?>
<!-- Generator: Adobe Illustrator 19.2.0, SVG Export Plug-In . SVG Version: 6.00 Build 0)  -->
<svg version="1.1" id="Layer_1" xmlns="http://www.w3.org/2000/svg" xmlns:xlink="http://www.w3.org/1999/xlink" x="0px" y="0px"
	 viewBox="0 0 24 24" style="enable-background:new 0 0 24 24;" xml:space="preserve">
<style type="text/css">
	.st0{display:none;}
	.st1{display:inline;}
	.st2{fill:none;stroke:#000000;stroke-linecap:round;stroke-linejoin:round;stroke-miterlimit:10;}
	.st3{fill:none;stroke:#000000;stroke-linejoin:round;stroke-miterlimit:10;}
</style>
<g id="Filled_Icons" class="st0">
	<g class="st1">
		<path d="M22.5,7h-6c-0.2-2.2-2.2-4-4.5-4C9.7,3,7.8,4.8,7.5,7h-6C1.2,7,1,7.2,1,7.5V12h9v-1c0-0.3,0.2-0.5,0.5-0.5h3
			c0.3,0,0.5,0.2,0.5,0.5v1h9V7.5C23,7.2,22.8,7,22.5,7z M8.5,7c0.2-1.7,1.7-3,3.5-3c1.8,0,3.2,1.3,3.5,3H8.5z"/>
		<path d="M14,15c0,0.3-0.2,0.5-0.5,0.5h-3c-0.3,0-0.5-0.2-0.5-0.5v-2H1v8.5C1,21.8,1.2,22,1.5,22h21c0.3,0,0.5-0.2,0.5-0.5V13h-9
			V15z"/>
	</g>
</g>
<g id="Outline_Icons">
	<g>
		<line class="st2" x1="1.5" y1="12.5" x2="10.5" y2="12.5"/>
		<line class="st2" x1="13.5" y1="12.5" x2="22.5" y2="12.5"/>
		<rect x="1.5" y="7.5" class="st3" width="21" height="14"/>
		<rect x="10.5" y="11.5" class="st3" width="3" height="4"/>
		<path class="st3" d="M8,7.5c0-2.2,1.8-4,4-4c2.2,0,4,1.8,4,4"/>
	</g>
</g>
</svg>
