<?xml version="1.0" encoding="utf-8"?>
<!-- Generator: Adobe Illustrator 19.2.0, SVG Export Plug-In . SVG Version: 6.00 Build 0)  -->
<svg version="1.1" id="Layer_1" xmlns="http://www.w3.org/2000/svg" xmlns:xlink="http://www.w3.org/1999/xlink" x="0px" y="0px"
	 viewBox="0 0 24 24" style="enable-background:new 0 0 24 24;" xml:space="preserve">
<style type="text/css">
	.st0{display:none;}
	.st1{display:inline;}
	.st2{fill:none;stroke:#000000;stroke-linejoin:round;stroke-miterlimit:10;}
	.st3{fill:none;stroke:#000000;stroke-linecap:round;stroke-linejoin:round;stroke-miterlimit:10;}
</style>
<g id="Filled_Icons" class="st0">
	<path class="st1" d="M12,0C5.4,0,0,5.4,0,12c0,6.6,5.4,12,12,12s12-5.4,12-12S18.6,0,12,0z M4.4,14.7C4.4,14.7,4.4,14.7,4.4,14.7
		c-0.2,0-0.3-0.1-0.4-0.2l-2.4-3.6c-0.2-0.2-0.1-0.5,0.1-0.7c0.2-0.2,0.5-0.1,0.7,0.1l1.3,1.9c0-1.4,0.4-2.8,1.1-4
		C6,6.2,7.8,4.9,10,4.3c2.8-0.7,5.8,0.3,7.7,2.4c0.2,0.2,0.2,0.5,0,0.7c-0.2,0.2-0.5,0.2-0.7,0c-1.7-1.9-4.3-2.7-6.7-2.1
		C8.3,5.8,6.7,7,5.7,8.7C4.9,10,4.5,11.5,4.7,13l2.1-2.5c0.2-0.2,0.5-0.2,0.7-0.1c0.2,0.2,0.2,0.5,0.1,0.7l-2.8,3.3
		C4.7,14.6,4.6,14.7,4.4,14.7z M15,14.3c0,0.4,0,0.8-0.1,1.2c-0.1,0.4-0.4,0.7-0.8,0.7c-0.4,0-0.8-0.3-0.8-0.7
		c-0.1-1-0.7-1.8-1.3-1.8c-0.6,0-1.1,0.8-1.2,1.8c0,0.4-0.4,0.8-0.8,0.8c-0.4,0-0.7-0.3-0.8-0.7C9,15.2,9,14.7,9,14.3
		c0-0.7,0.1-1.3,0.3-1.9c-0.5-0.7-0.8-1.5-0.8-2.6c0-1.4,0.9-2.5,2.1-2.5c0.5,0,1,0.2,1.4,0.5c0.4-0.3,0.9-0.5,1.4-0.5
		c1.2,0,2.1,1.1,2.1,2.5c0,1.1-0.3,2-0.8,2.6C14.9,13,15,13.7,15,14.3z M21.6,14.8c-0.2,0-0.3-0.1-0.4-0.2l-1.4-2.1
		c-0.2,3.4-2.7,6.4-6.1,7.2c-0.6,0.1-1.2,0.2-1.8,0.2c-2,0-4-0.8-5.5-2.3c-0.2-0.2-0.2-0.5,0-0.7c0.2-0.2,0.5-0.2,0.7,0
		c1.7,1.7,4.1,2.3,6.4,1.8c3.1-0.7,5.4-3.6,5.4-6.7l-2,2.4c-0.2,0.2-0.5,0.2-0.7,0.1c-0.2-0.2-0.2-0.5-0.1-0.7l2.7-3.3
		c0.1-0.1,0.3-0.3,0.5-0.3c0.2,0,0.3,0.1,0.4,0.2L22,14c0.2,0.2,0.1,0.5-0.1,0.7C21.8,14.8,21.7,14.8,21.6,14.8z"/>
</g>
<g id="Outline_Icons">
	<g>
		<path class="st2" d="M15.3,9.5c0-1.3-0.8-2.3-1.9-2.3c-0.7,0-1.3,0.4-1.6,0.9c-0.3-0.5-0.9-0.9-1.6-0.9c-1,0-1.9,1-1.9,2.3
			c0,1.4,0.5,2.3,1,2.9c-0.3,0.7-0.5,1.5-0.5,2.3c0,0.5,0,0.9,0.1,1.3c0,0.2,0.2,0.3,0.4,0.3c0.2,0,0.4-0.2,0.4-0.4
			c0.2-1.5,1-2.6,2-2.6c1,0,1.9,1.1,2,2.6c0,0.2,0.2,0.3,0.4,0.3c0.2,0,0.4-0.1,0.4-0.3c0.1-0.4,0.1-0.8,0.1-1.3
			c0-0.9-0.2-1.7-0.5-2.3C14.8,11.8,15.3,10.9,15.3,9.5z"/>
		<polyline class="st3" points="0.5,10.4 3.3,14.5 6.5,10.7 		"/>
		<polyline class="st3" points="23.1,14.7 20.3,10.5 17.1,14.3 		"/>
		<path class="st3" d="M20.2,10.5c0.8,4.4-2.3,8.7-6.5,9.7C10.8,21,7.8,20,5.8,18"/>
		<path class="st3" d="M3.3,14.5C2,9.6,5.3,4.8,9.8,3.7C13,3,16.1,4.1,18.2,6.4"/>
	</g>
</g>
</svg>
