<?xml version="1.0" encoding="utf-8"?>
<!-- Generator: Adobe Illustrator 19.2.0, SVG Export Plug-In . SVG Version: 6.00 Build 0)  -->
<svg version="1.1" id="Layer_1" xmlns="http://www.w3.org/2000/svg" xmlns:xlink="http://www.w3.org/1999/xlink" x="0px" y="0px"
	 viewBox="0 0 24 24" style="enable-background:new 0 0 24 24;" xml:space="preserve">
<style type="text/css">
	.st0{display:none;}
	.st1{display:inline;}
	.st2{fill:none;stroke:#000000;stroke-linecap:round;stroke-linejoin:round;stroke-miterlimit:10;}
</style>
<g id="Filled_Icons" class="st0">
	<path class="st1" d="M22.2,4.6l-3.5-3.5C18.6,1,18.5,1,18.3,1c-0.1,0-0.3,0.1-0.4,0.1l-1.1,1.1l2.5,2.5c0.2,0.2,0.2,0.5,0,0.7
		s-0.5,0.2-0.7,0l-2.5-2.5l-0.7,0.7L18,6c0.2,0.2,0.2,0.5,0,0.7s-0.5,0.2-0.7,0l-2.5-2.5L14.1,5l2.5,2.5c0.2,0.2,0.2,0.5,0,0.7
		s-0.5,0.2-0.7,0l-2.5-2.5l-1.1,1.1c-0.2,0.2-0.2,0.5,0,0.7l3.2,3.2l-1.6,1.6l-4.6,1.8c-0.1,0-0.1,0.1-0.2,0.1l-8.5,8.5
		c-0.2,0.2-0.2,0.5,0,0.7s0.5,0.2,0.7,0L9.7,15l4.6-1.8c0.1,0,0.1-0.1,0.2-0.1l2-2l0,0l5.7-5.7C22.4,5.1,22.4,4.8,22.2,4.6z"/>
</g>
<g id="Outline_Icons">
	<g>
		<polyline class="st2" points="1,23 9.5,14.5 14.2,12.7 19.4,7.4 		"/>
		<rect x="13.3" y="3.5" transform="matrix(0.7072 -0.707 0.707 0.7072 0.8263 13.9605)" class="st2" width="8" height="5"/>
		<line class="st2" x1="16.9" y1="2.8" x2="19" y2="5"/>
		<line class="st2" x1="15.5" y1="4.2" x2="17.6" y2="6.4"/>
		<line class="st2" x1="14.1" y1="5.7" x2="16.2" y2="7.8"/>
	</g>
</g>
</svg>
