<?xml version="1.0" encoding="utf-8"?>
<!-- Generator: Adobe Illustrator 19.2.0, SVG Export Plug-In . SVG Version: 6.00 Build 0)  -->
<svg version="1.1" id="Layer_1" xmlns="http://www.w3.org/2000/svg" xmlns:xlink="http://www.w3.org/1999/xlink" x="0px" y="0px"
	 viewBox="0 0 24 24" style="enable-background:new 0 0 24 24;" xml:space="preserve">
<style type="text/css">
	.st0{display:none;}
	.st1{display:inline;}
	.st2{fill:none;stroke:#000000;stroke-linecap:round;stroke-linejoin:round;stroke-miterlimit:10;}
</style>
<g id="Filled_Icons" class="st0">
	<g class="st1">
		<path d="M10.7,0c-0.2-0.1-0.4,0-0.5,0.1C10,0.3,10,0.5,10,0.7l0,0.1c0.4,1.5,1.2,3.8,0.4,5.8c-0.4-0.5-0.8-1.1-1-1.4
			C9.3,5.1,9.2,5,9,5h0C8.8,5,8.7,5.1,8.6,5.2C8.4,5.4,7,7.5,7,9c0,2.8,2.2,5,5,5s5-2.2,5-5C17,5.1,14.3,1.2,10.7,0z"/>
		<path d="M15,15H9c-0.2,0-0.3,0.1-0.4,0.2c-0.1,0.1-0.1,0.3-0.1,0.4l2,8c0.1,0.2,0.3,0.4,0.5,0.4h2c0.2,0,0.4-0.2,0.5-0.4l2-8
			c0-0.1,0-0.3-0.1-0.4C15.3,15.1,15.2,15,15,15z"/>
	</g>
</g>
<g id="Outline_Icons">
	<g>
		<path class="st2" d="M10.5,0.5c0.5,1.6,1.5,4.6,0,7c-0.3-0.3-1.5-2-1.5-2S7.5,7.6,7.5,9c0,2.5,2,4.5,4.5,4.5c2.5,0,4.5-2,4.5-4.5
			C16.5,5.4,14,1.7,10.5,0.5z"/>
		<polygon class="st2" points="13,23.5 11,23.5 9,15.5 15,15.5 		"/>
	</g>
</g>
</svg>
