<?xml version="1.0" encoding="utf-8"?>
<!-- Generator: Adobe Illustrator 19.2.0, SVG Export Plug-In . SVG Version: 6.00 Build 0)  -->
<svg version="1.1" id="Layer_1" xmlns="http://www.w3.org/2000/svg" xmlns:xlink="http://www.w3.org/1999/xlink" x="0px" y="0px"
	 viewBox="0 0 24 24" style="enable-background:new 0 0 24 24;" xml:space="preserve">
<style type="text/css">
	.st0{display:none;}
	.st1{display:inline;}
	.st2{fill:none;stroke:#000000;stroke-linecap:round;stroke-linejoin:round;stroke-miterlimit:10;}
</style>
<g id="Filled_Icons" class="st0">
	<g class="st1">
		<path d="M9.2,4.7l1.3-1.3l0,6.5c0,0.6,0.4,1,1,1h0c0.6,0,1-0.4,1-1l0-6.5l1.3,1.3C14,5,14.3,5,14.5,5C14.8,5,15,5,15.2,4.8
			c0.4-0.4,0.4-1,0-1.4l-2.9-2.9C12.2,0.2,11.9,0,11.5,0h0c-0.4,0-0.7,0.2-0.9,0.5L7.8,3.3c-0.4,0.4-0.4,1,0,1.4
			C8.2,5.1,8.8,5.1,9.2,4.7z"/>
		<path d="M16,6.1c-0.5-0.3-1.1-0.1-1.4,0.4C14.4,7,14.5,7.6,15,7.9c2.5,1.3,4,3.9,4,6.6c0,4.1-3.4,7.5-7.5,7.5c0,0,0,0,0,0
			C7.4,22,4,18.6,4,14.5c0-2.8,1.5-5.3,4-6.6C8.5,7.6,8.6,7,8.4,6.5C8.1,6,7.5,5.9,7,6.1C3.9,7.8,2,11,2,14.5c0,5.2,4.2,9.5,9.5,9.5
			c0,0,0,0,0,0c5.2,0,9.5-4.2,9.5-9.5C21,11,19.1,7.8,16,6.1z"/>
	</g>
</g>
<g id="Outline_Icons">
	<g>
		<line class="st2" x1="11.5" y1="10.5" x2="11.5" y2="1.5"/>
		<polyline class="st2" points="8.5,4.5 11.5,1.5 14.5,4.5 		"/>
		<path class="st2" d="M14.5,7c3.2,1.2,5.5,4.3,5.5,8c0,4.7-3.8,8.5-8.5,8.5C6.8,23.5,3,19.7,3,15c0-3.6,2.3-6.7,5.5-8"/>
	</g>
</g>
</svg>
