<?xml version="1.0" encoding="utf-8"?>
<!-- Generator: Adobe Illustrator 19.2.0, SVG Export Plug-In . SVG Version: 6.00 Build 0)  -->
<svg version="1.1" id="Layer_1" xmlns="http://www.w3.org/2000/svg" xmlns:xlink="http://www.w3.org/1999/xlink" x="0px" y="0px"
	 viewBox="0 0 24 24" style="enable-background:new 0 0 24 24;" xml:space="preserve">
<style type="text/css">
	.st0{display:none;}
	.st1{display:inline;}
	.st2{fill:none;stroke:#000000;stroke-linecap:round;stroke-linejoin:round;stroke-miterlimit:10;}
	.st3{fill:none;stroke:#000000;stroke-linejoin:round;stroke-miterlimit:10;}
</style>
<g id="Filled_Icons" class="st0">
	<g class="st1">
		<path d="M15.5,11.5c0-0.6,0.4-1,1-1c0.6,0,1,0.4,1,1v4.8l4,1.1c0.7,0.2,1,0.9,0.9,1.5l-0.1,0.4l-0.8,4.2h-6.1l-3.1-4.6
			c-1.2-1.9,1.8-2.5,3.2,0.6V11.5z"/>
		<g>
			<path d="M5,19.8C5,21,6,22,7.2,22h6l-1.7-2.5c-0.5-0.8-0.6-1.6-0.2-2.2c0.5-0.9,1.8-1.3,3.2-0.5v-5.3c0-1.1,0.9-2,2-2
				c1.1,0,2,0.9,2,2v4l3.2,0.9c0.5,0.2,1,0.5,1.3,0.9V9H5V19.8z"/>
			<path d="M20.8,5H7.2C6,5,5,6,5,7.2V8h18V7.2C23,6,22,5,20.8,5z"/>
		</g>
		<g>
			<path d="M3,6.5C2.7,6.5,2.5,6.3,2.5,6c0-1.9,1.6-3.5,3.5-3.5c0.3,0,0.5,0.2,0.5,0.5c0,0.3-0.2,0.5-0.5,0.5C4.6,3.5,3.5,4.6,3.5,6
				C3.5,6.3,3.3,6.5,3,6.5z"/>
		</g>
		<g>
			<path d="M0.5,6.5C0.2,6.5,0,6.3,0,6c0-3.3,2.7-6,6-6c0.3,0,0.5,0.2,0.5,0.5C6.5,0.8,6.3,1,6,1C3.2,1,1,3.2,1,6
				C1,6.3,0.8,6.5,0.5,6.5z"/>
		</g>
	</g>
</g>
<g id="Outline_Icons">
	<g>
		<path class="st2" d="M22.5,15V7.2c0-0.9-0.7-1.7-1.7-1.7H7.2c-0.9,0-1.7,0.8-1.7,1.7v12.6c0,0.9,0.8,1.7,1.7,1.7H11"/>
		<path class="st3" d="M15.5,11.5c0-0.6,0.4-1,1-1c0.6,0,1,0.4,1,1v4.8l4,1.1c0.7,0.2,1,0.9,0.9,1.5l-0.1,0.4l-0.8,4.2h-6.1
			l-3.1-4.6c-1.2-1.9,1.8-2.5,3.2,0.6V11.5z"/>
		<line class="st3" x1="5.5" y1="8.5" x2="22.5" y2="8.5"/>
		<path class="st2" d="M3,6c0-1.7,1.3-3,3-3"/>
		<path class="st2" d="M0.5,6C0.5,3,3,0.5,6,0.5"/>
	</g>
</g>
</svg>
