<?xml version="1.0" encoding="utf-8"?>
<!-- Generator: Adobe Illustrator 19.2.0, SVG Export Plug-In . SVG Version: 6.00 Build 0)  -->
<svg version="1.1" id="Layer_1" xmlns="http://www.w3.org/2000/svg" xmlns:xlink="http://www.w3.org/1999/xlink" x="0px" y="0px"
	 viewBox="0 0 24 24" style="enable-background:new 0 0 24 24;" xml:space="preserve">
<style type="text/css">
	.st0{display:none;}
	.st1{display:inline;}
	.st2{fill:none;stroke:#000000;stroke-linecap:round;stroke-linejoin:round;stroke-miterlimit:10;}
</style>
<g id="Filled_Icons" class="st0">
	<g class="st1">
		<path d="M9,7c0.2,0,0.4-0.1,0.6-0.2l0.9-0.7l0,6.4c0,0.6,0.4,1,1,1h0c0.6,0,1-0.4,1-1l0-6.4l0.9,0.7c0.4,0.3,1.1,0.3,1.4-0.2
			c0.3-0.4,0.3-1.1-0.2-1.4l-2.5-2c0,0,0,0,0,0c-0.3-0.3-0.8-0.3-1.2,0c0,0,0,0,0,0l-2.5,2c-0.4,0.3-0.5,1-0.2,1.4
			C8.4,6.9,8.7,7,9,7z"/>
		<path d="M15.5,7.7c-0.5-0.3-1.1-0.2-1.4,0.3c-0.3,0.5-0.2,1.1,0.3,1.4c1.6,1,2.5,2.8,2.5,4.6c0,1.5-0.6,2.8-1.6,3.9
			c-1,1-2.4,1.6-3.9,1.6c0,0,0,0,0,0c-1.5,0-2.9-0.6-3.9-1.6c-1-1-1.6-2.4-1.6-3.9c0-1.9,1-3.6,2.5-4.6C9,9.1,9.1,8.4,8.8,8
			C8.5,7.5,7.9,7.4,7.5,7.7C5.3,9.1,4,11.4,4,14c0,2,0.8,3.9,2.2,5.3c1.4,1.4,3.3,2.2,5.3,2.2c0,0,0,0,0,0c2,0,3.9-0.8,5.3-2.2
			C18.2,17.9,19,16,19,14C19,11.4,17.7,9.1,15.5,7.7z"/>
	</g>
</g>
<g id="Outline_Icons">
	<g>
		<line class="st2" x1="11.5" y1="4" x2="11.5" y2="12.5"/>
		<path class="st2" d="M14,8c2.3,1,4,3.3,4,6c0,3.6-2.9,6.5-6.5,6.5C7.9,20.5,5,17.6,5,14c0-2.7,1.6-5,4-6"/>
		<polyline class="st2" points="9.5,6 11.5,4 13.5,6 		"/>
	</g>
</g>
</svg>
