<?xml version="1.0" encoding="utf-8"?>
<!-- Generator: Adobe Illustrator 19.2.0, SVG Export Plug-In . SVG Version: 6.00 Build 0)  -->
<svg version="1.1" id="Layer_1" xmlns="http://www.w3.org/2000/svg" xmlns:xlink="http://www.w3.org/1999/xlink" x="0px" y="0px"
	 viewBox="0 0 24 24" style="enable-background:new 0 0 24 24;" xml:space="preserve">
<style type="text/css">
	.st0{display:none;}
	.st1{display:inline;}
	.st2{fill:none;stroke:#000000;stroke-linecap:round;stroke-linejoin:round;stroke-miterlimit:10;}
	.st3{fill:none;stroke:#000000;stroke-linejoin:round;stroke-miterlimit:10;}
</style>
<g id="Filled_Icons" class="st0">
	<path class="st1" d="M23.5,23h-3.6L13.5,0.4C13.4,0.2,13.2,0,13,0h-2c-0.2,0-0.4,0.1-0.5,0.4L4.1,23H0.5C0.2,23,0,23.2,0,23.5
		C0,23.8,0.2,24,0.5,24h23c0.3,0,0.5-0.2,0.5-0.5C24,23.2,23.8,23,23.5,23z M10,6H14l0.8,3H9.2L10,6z M6.6,18l0.8-3h9.1l0.9,3H6.6z"
		/>
</g>
<g id="Outline_Icons">
	<g>
		<line class="st2" x1="0.5" y1="23.5" x2="23.5" y2="23.5"/>
		<polyline class="st2" points="4.5,23.5 11,0.5 13,0.5 19.5,23.5 		"/>
		<line class="st3" x1="9.6" y1="5.5" x2="14.4" y2="5.5"/>
		<line class="st3" x1="8.5" y1="9.5" x2="15.5" y2="9.5"/>
		<line class="st3" x1="5.9" y1="18.5" x2="18.1" y2="18.5"/>
		<line class="st3" x1="7" y1="14.5" x2="16.9" y2="14.5"/>
	</g>
</g>
</svg>
