<?xml version="1.0" encoding="utf-8"?>
<!-- Generator: Adobe Illustrator 19.2.0, SVG Export Plug-In . SVG Version: 6.00 Build 0)  -->
<svg version="1.1" id="Layer_1" xmlns="http://www.w3.org/2000/svg" xmlns:xlink="http://www.w3.org/1999/xlink" x="0px" y="0px"
	 viewBox="0 0 24 24" style="enable-background:new 0 0 24 24;" xml:space="preserve">
<style type="text/css">
	.st0{display:none;}
	.st1{display:inline;}
	.st2{fill:none;stroke:#000000;stroke-linecap:round;stroke-linejoin:round;stroke-miterlimit:10;}
</style>
<g id="Filled_Icons" class="st0">
	<g class="st1">
		<path d="M13.5,0h-3C9.1,0,8,1.1,8,2.5v14C8,17.3,8.7,18,9.5,18h2v5.5c0,0.3,0.2,0.5,0.5,0.5c0.3,0,0.5-0.2,0.5-0.5V18h2
			c0.8,0,1.5-0.7,1.5-1.5v-14C16,1.1,14.9,0,13.5,0z M12,16c-1.1,0-2-0.9-2-2s0.9-2,2-2c1.1,0,2,0.9,2,2C14,15.1,13.1,16,12,16z
			 M12,11c-1.1,0-2-0.9-2-2s0.9-2,2-2c1.1,0,2,0.9,2,2S13.1,11,12,11z M12,6c-1.1,0-2-0.9-2-2s0.9-2,2-2c1.1,0,2,0.9,2,2
			S13.1,6,12,6z"/>
		<path d="M20.5,2.3C20.4,2.1,20.2,2,20,2h-3v4.2l3.4-3.4C20.5,2.7,20.5,2.5,20.5,2.3z"/>
		<path d="M20,7h-3v4.2l3.4-3.4c0.1-0.1,0.2-0.4,0.1-0.5C20.4,7.1,20.2,7,20,7z"/>
		<path d="M20,12h-3v4.2l3.4-3.4c0.1-0.1,0.2-0.4,0.1-0.5C20.4,12.1,20.2,12,20,12z"/>
		<path d="M3.5,2.3c-0.1,0.2,0,0.4,0.1,0.5L7,6.2V2H4C3.8,2,3.6,2.1,3.5,2.3z"/>
		<path d="M3.5,7.3c-0.1,0.2,0,0.4,0.1,0.5L7,11.2V7H4C3.8,7,3.6,7.1,3.5,7.3z"/>
		<path d="M3.5,12.3c-0.1,0.2,0,0.4,0.1,0.5L7,16.2V12H4C3.8,12,3.6,12.1,3.5,12.3z"/>
	</g>
</g>
<g id="Outline_Icons">
	<g>
		<path class="st2" d="M15.5,16.5c0,0.6-0.4,1-1,1h-5c-0.6,0-1-0.4-1-1v-14c0-1.1,0.9-2,2-2h3c1.1,0,2,0.9,2,2V16.5z"/>
		<circle class="st2" cx="12" cy="9" r="1.5"/>
		<circle class="st2" cx="12" cy="14" r="1.5"/>
		<circle class="st2" cx="12" cy="4" r="1.5"/>
		<line class="st2" x1="11.5" y1="17.5" x2="11.5" y2="23.5"/>
		<polyline class="st2" points="15.5,2.5 19,2.5 15.5,6 		"/>
		<polyline class="st2" points="15.5,7.5 19,7.5 15.5,11 		"/>
		<polyline class="st2" points="15.5,12.5 19,12.5 15.5,16 		"/>
		<polyline class="st2" points="8.5,2.5 5,2.5 8.5,6 		"/>
		<polyline class="st2" points="8.5,7.5 5,7.5 8.5,11 		"/>
		<polyline class="st2" points="8.5,12.5 5,12.5 8.5,16 		"/>
	</g>
</g>
</svg>
