<?xml version="1.0" encoding="utf-8"?>
<!-- Generator: Adobe Illustrator 19.2.0, SVG Export Plug-In . SVG Version: 6.00 Build 0)  -->
<svg version="1.1" id="Layer_1" xmlns="http://www.w3.org/2000/svg" xmlns:xlink="http://www.w3.org/1999/xlink" x="0px" y="0px"
	 viewBox="0 0 24 24" style="enable-background:new 0 0 24 24;" xml:space="preserve">
<style type="text/css">
	.st0{display:none;}
	.st1{display:inline;}
	.st2{fill:none;stroke:#000000;stroke-linecap:round;stroke-linejoin:round;stroke-miterlimit:10;}
</style>
<g id="Filled_Icons" class="st0">
	<g class="st1">
		<path d="M5,18c-1.4,0-2.5,1.1-2.5,2.5S3.6,23,5,23c1.4,0,2.5-1.1,2.5-2.5S6.4,18,5,18z"/>
		<path d="M19,18c-1.4,0-2.5,1.1-2.5,2.5S17.6,23,19,23c1.4,0,2.5-1.1,2.5-2.5S20.4,18,19,18z"/>
		<path d="M6,17.2c0.5,0.2,1,0.4,1.4,0.8H10v-1.5H6V17.2z"/>
		<rect x="6" y="14.5" width="4" height="1"/>
		<rect x="6" y="12.5" width="4" height="1"/>
		<path d="M18.5,8H11v10h5.6c0.6-0.6,1.5-1,2.4-1c1,0,1.8,0.4,2.4,1h0.2c1.4-1,2.3-2.6,2.3-4.5C24,10.5,21.5,8,18.5,8z"/>
		<path d="M12.5,5H14v2h4V5h1.5C19.8,5,20,4.8,20,4.5S19.8,4,19.5,4h-2h-3h-2C12.2,4,12,4.2,12,4.5S12.2,5,12.5,5z"/>
		<path d="M5,17l0-9c-2.8,0.3-5,2.6-5,5.5C0,15.4,0.9,17,2.4,18h0.2C3.2,17.4,4.1,17,5,17z"/>
		<rect x="6" y="10.5" width="4" height="1"/>
		<path d="M8.1,19c0.2,0.5,0.4,1,0.4,1.5c0,0.2,0,0.3-0.1,0.5h7.1c0-0.2-0.1-0.3-0.1-0.5c0-0.5,0.1-1,0.4-1.5H8.1z"/>
		<rect x="6" y="8" width="4" height="1.5"/>
	</g>
</g>
<g id="Outline_Icons">
	<g>
		<circle class="st2" cx="5" cy="20.5" r="2"/>
		<circle class="st2" cx="19" cy="20.5" r="2"/>
		<line class="st2" x1="7" y1="20.5" x2="17" y2="20.5"/>
		<line class="st2" x1="0.5" y1="18.5" x2="23.5" y2="18.5"/>
		<path class="st2" d="M23.5,13.5c0,2.8-2.2,5-5,5h-13c-2.8,0-5-2.2-5-5c0-2.8,2.2-5,5-5h13C21.3,8.5,23.5,10.7,23.5,13.5z"/>
		<rect x="14.5" y="4.5" class="st2" width="3" height="4"/>
		<line class="st2" x1="12.5" y1="4.5" x2="19.5" y2="4.5"/>
		<rect x="5.5" y="8.5" class="st2" width="5" height="10"/>
		<line class="st2" x1="5.5" y1="10.5" x2="10.5" y2="10.5"/>
		<line class="st2" x1="5.5" y1="12.5" x2="10.5" y2="12.5"/>
		<line class="st2" x1="5.5" y1="14.5" x2="10.5" y2="14.5"/>
		<line class="st2" x1="5.5" y1="16.5" x2="10.5" y2="16.5"/>
	</g>
</g>
</svg>
