<?xml version="1.0" encoding="utf-8"?>
<!-- Generator: Adobe Illustrator 19.2.0, SVG Export Plug-In . SVG Version: 6.00 Build 0)  -->
<svg version="1.1" id="Layer_1" xmlns="http://www.w3.org/2000/svg" xmlns:xlink="http://www.w3.org/1999/xlink" x="0px" y="0px"
	 viewBox="0 0 24 24" style="enable-background:new 0 0 24 24;" xml:space="preserve">
<style type="text/css">
	.st0{display:none;}
	.st1{display:inline;}
	.st2{fill:none;stroke:#000000;stroke-linejoin:round;stroke-miterlimit:10;}
	.st3{fill:none;stroke:#000000;stroke-linecap:round;stroke-linejoin:round;stroke-miterlimit:10;}
</style>
<g id="Filled_Icons" class="st0">
	<g class="st1">
		<path d="M24,23.3l-3.6-8.8c-0.2,0.4-0.4,0.8-0.6,1.2l0.6,1.4h-1.5c-0.3,0.4-0.5,0.7-0.8,1h2.7l1.2,3H2l1.2-3h2.7
			c-0.3-0.3-0.6-0.6-0.8-1H3.6l0.6-1.4c-0.2-0.4-0.4-0.8-0.6-1.2L0,23.3c-0.1,0.3,0,0.5,0.3,0.6c0.3,0.1,0.5,0,0.6-0.3L1.6,22h20.7
			l0.7,1.7c0.1,0.3,0.4,0.4,0.6,0.3C23.9,23.9,24.1,23.6,24,23.3z"/>
		<path d="M18.8,2.5C17.3,0.9,15,0,12,0C9,0,6.7,0.9,5.2,2.5C3.8,3.9,3.1,5.9,3.1,8.2c0,5.4,4,11.8,8.9,11.8s8.9-6.5,8.9-11.8
			C20.9,5.9,20.2,3.9,18.8,2.5z M15,18c-2,1.3-4,1.3-6,0c-0.3-0.5-0.5-1-0.5-1.5c0-1.7,1.6-3,3.5-3s3.5,1.3,3.5,3
			C15.5,17.1,15.3,17.6,15,18z M16.9,9.7c-0.1,0.2-0.3,0.3-0.4,0.3h-9c-0.2,0-0.4-0.1-0.4-0.3l-2-4C5,5.6,5,5.4,5.1,5.3
			C5.2,5.1,5.3,5,5.5,5h13c0.2,0,0.3,0.1,0.4,0.2c0.1,0.1,0.1,0.3,0,0.5L16.9,9.7z"/>
	</g>
</g>
<g id="Outline_Icons">
	<g>
		<path class="st2" d="M12,0.5c14,0,8,19,0,19S-2,0.5,12,0.5z"/>
		<polygon class="st2" points="7.5,9.5 16.5,9.5 18.5,5.5 5.5,5.5 		"/>
		<path class="st2" d="M16,16.5c0-1.9-1.8-3.5-4-3.5s-4,1.6-4,3.5c0,0.7,0.3,1.3,0.7,1.9c1,0.7,2.2,1.1,3.3,1.1s2.3-0.4,3.3-1.1
			C15.7,17.9,16,17.2,16,16.5z"/>
		<line class="st3" x1="0.5" y1="23.5" x2="4.6" y2="13.1"/>
		<line class="st3" x1="19.3" y1="13.2" x2="23.5" y2="23.5"/>
		<line class="st2" x1="1.3" y1="21.5" x2="22.7" y2="21.5"/>
		<line class="st2" x1="16.4" y1="17.5" x2="21.1" y2="17.5"/>
		<line class="st2" x1="2.9" y1="17.5" x2="7.6" y2="17.5"/>
	</g>
</g>
</svg>
