<?xml version="1.0" encoding="utf-8"?>
<!-- Generator: Adobe Illustrator 19.2.0, SVG Export Plug-In . SVG Version: 6.00 Build 0)  -->
<svg version="1.1" id="Layer_1" xmlns="http://www.w3.org/2000/svg" xmlns:xlink="http://www.w3.org/1999/xlink" x="0px" y="0px"
	 viewBox="0 0 24 24" style="enable-background:new 0 0 24 24;" xml:space="preserve">
<style type="text/css">
	.st0{display:none;}
	.st1{display:inline;}
	.st2{fill:none;stroke:#000000;stroke-linecap:round;stroke-linejoin:round;stroke-miterlimit:10;}
	.st3{fill:none;stroke:#000000;stroke-linejoin:round;stroke-miterlimit:10;}
</style>
<g id="Filled_Icons" class="st0">
	<g class="st1">
		<path d="M23.5,11H22V5h1.5C23.8,5,24,4.8,24,4.5S23.8,4,23.5,4h-2h-9h-1C11.2,4,11,4.2,11,4.5S11.2,5,11.5,5H12v5H7V7h0.5
			C7.8,7,8,6.8,8,6.5S7.8,6,7.5,6h-1h-2h-1C3.2,6,3,6.2,3,6.5S3.2,7,3.5,7H4v3H3c-1.5,0-1.6,3.1-1.6,4c0,0.6,0.1,2.3,0.6,3.3
			l-1.7,1.3c-0.2,0.2-0.3,0.5-0.1,0.7c0.1,0.1,0.2,0.2,0.4,0.2c0.1,0,0.2,0,0.3-0.1L2.7,18h1.1c0.2-1.3,1.4-2.2,2.7-2.2
			c1.3,0,2.5,1,2.7,2.2h0.6c0.2-1.3,1.4-2.2,2.7-2.2c1.3,0,2.5,1,2.7,2.2h0.6c0.2-1.3,1.4-2.2,2.7-2.2c1.3,0,2.5,1,2.7,2.2h2.3
			c0.3,0,0.5-0.2,0.5-0.5v-6C24,11.2,23.8,11,23.5,11z M6,10H5V7h1V10z M20,9.5c0,0.3-0.2,0.5-0.5,0.5h-5C14.2,10,14,9.8,14,9.5v-3
			C14,6.2,14.2,6,14.5,6h5C19.8,6,20,6.2,20,6.5V9.5z"/>
		<circle cx="6.5" cy="18.5" r="2.2"/>
		<circle cx="12.5" cy="18.5" r="2.2"/>
		<circle cx="18.5" cy="18.5" r="2.2"/>
	</g>
</g>
<g id="Outline_Icons">
	<g>
		<polyline class="st2" points="0.6,19 2.5,17.5 4.8,17.5 		"/>
		<circle class="st2" cx="6.5" cy="18.5" r="2"/>
		<circle class="st2" cx="12.5" cy="18.5" r="2"/>
		<circle class="st2" cx="18.5" cy="18.5" r="2"/>
		<line class="st2" x1="11.5" y1="4.5" x2="23.5" y2="4.5"/>
		<path class="st2" d="M12.5,4.5v6H3c-1.5,0-1.5,7,0,7"/>
		<polyline class="st2" points="21.5,4.5 21.5,11.5 23.5,11.5 23.5,17.5 		"/>
		<line class="st2" x1="3.5" y1="6.5" x2="7.5" y2="6.5"/>
		<rect x="14.5" y="6.5" class="st2" width="5" height="3"/>
		<line class="st3" x1="8.2" y1="17.5" x2="10.8" y2="17.5"/>
		<line class="st3" x1="14.2" y1="17.5" x2="16.8" y2="17.5"/>
		<line class="st3" x1="20.2" y1="17.5" x2="23.5" y2="17.5"/>
		<line class="st2" x1="4.5" y1="6.5" x2="4.5" y2="10.5"/>
		<line class="st2" x1="6.5" y1="6.5" x2="6.5" y2="10.5"/>
	</g>
</g>
</svg>
