<?xml version="1.0" encoding="utf-8"?>
<!-- Generator: Adobe Illustrator 19.2.0, SVG Export Plug-In . SVG Version: 6.00 Build 0)  -->
<svg version="1.1" id="Layer_1" xmlns="http://www.w3.org/2000/svg" xmlns:xlink="http://www.w3.org/1999/xlink" x="0px" y="0px"
	 viewBox="0 0 24 24" style="enable-background:new 0 0 24 24;" xml:space="preserve">
<style type="text/css">
	.st0{display:none;}
	.st1{display:inline;}
	.st2{fill:none;stroke:#000000;stroke-linecap:round;stroke-linejoin:round;stroke-miterlimit:10;}
</style>
<g id="Filled_Icons" class="st0">
	<g class="st1">
		<path d="M23.5,20c0.3,0,0.5-0.2,0.5-0.5S23.8,19,23.5,19H23v-1h-6v1h-2.5h-5H7v-1H1v1H0.5C0.2,19,0,19.2,0,19.5S0.2,20,0.5,20h1h2
			C3.2,20.4,3,20.9,3,21.5c0,0.6,0.2,1.1,0.5,1.5h-3C0.2,23,0,23.2,0,23.5S0.2,24,0.5,24h23c0.3,0,0.5-0.2,0.5-0.5S23.8,23,23.5,23
			h-3c0.3-0.4,0.5-0.9,0.5-1.5s-0.2-1.1-0.5-1.5h2H23.5z M5.5,22h1.4c-0.2,0.6-0.8,1-1.4,1C4.7,23,4,22.3,4,21.5
			C4,20.7,4.7,20,5.5,20c0.7,0,1.2,0.4,1.4,1H5.5C5.2,21,5,21.2,5,21.5S5.2,22,5.5,22z M9,20v1H7.9c-0.1-0.4-0.2-0.7-0.5-1H9z
			 M7.5,23c0.2-0.3,0.4-0.6,0.5-1h1.6h5H16c0.1,0.4,0.2,0.7,0.5,1H7.5z M16,21h-1v-1h1.5C16.3,20.3,16.1,20.6,16,21z M18.5,23
			c-0.6,0-1.2-0.4-1.4-1h1.4c0.3,0,0.5-0.2,0.5-0.5S18.8,21,18.5,21h-1.4c0.2-0.6,0.8-1,1.4-1c0.8,0,1.5,0.7,1.5,1.5
			C20,22.3,19.3,23,18.5,23z"/>
		<path d="M23.5,9h-1H20V8h1.5C21.8,8,22,7.8,22,7.5S21.8,7,21.5,7h-2h-5V5.7l1.9-1.9c0.2-0.2,0.2-0.5,0-0.7L14.2,1h9.3
			C23.8,1,24,0.8,24,0.5S23.8,0,23.5,0h-23C0.2,0,0,0.2,0,0.5S0.2,1,0.5,1h9.3L7.6,3.2c-0.2,0.2-0.2,0.5,0,0.7l1.9,1.9V7h-5h-2
			C2.2,7,2,7.2,2,7.5S2.2,8,2.5,8H4v1H1.5h-1C0.2,9,0,9.2,0,9.5S0.2,10,0.5,10H1v7h6v-7h10v7h6v-7h0.5c0.3,0,0.5-0.2,0.5-0.5
			C24,9.2,23.8,9,23.5,9z M10.2,5L8.7,3.5L11.2,1h1.6l2.5,2.5L13.8,5H10.2z"/>
		<path d="M15.5,16c0.3,0,0.5-0.2,0.5-0.5v-4c0-0.3-0.2-0.5-0.5-0.5h-7C8.2,11,8,11.2,8,11.5v4C8,15.8,8.2,16,8.5,16H15.5z"/>
	</g>
</g>
<g id="Outline_Icons">
	<g>
		<line class="st2" x1="1" y1="23.5" x2="24" y2="23.5"/>
		<rect x="9.5" y="19.5" class="st2" width="5" height="2"/>
		<circle class="st2" cx="5.5" cy="21.5" r="2"/>
		<circle class="st2" cx="18.5" cy="21.5" r="2"/>
		<line class="st2" x1="5.5" y1="21.5" x2="18.5" y2="21.5"/>
		<line class="st2" x1="0.5" y1="19.5" x2="23.5" y2="19.5"/>
		<line class="st2" x1="0.5" y1="9.5" x2="23.5" y2="9.5"/>
		<line class="st2" x1="1.5" y1="9.5" x2="1.5" y2="19.5"/>
		<line class="st2" x1="6.5" y1="9.5" x2="6.5" y2="19.5"/>
		<line class="st2" x1="22.5" y1="9.5" x2="22.5" y2="19.5"/>
		<line class="st2" x1="17.5" y1="9.5" x2="17.5" y2="19.5"/>
		<line class="st2" x1="2.5" y1="7.5" x2="21.5" y2="7.5"/>
		<line class="st2" x1="4.5" y1="7.5" x2="4.5" y2="9.5"/>
		<line class="st2" x1="19.5" y1="7.5" x2="19.5" y2="9.5"/>
		<rect x="10" y="5.5" class="st2" width="4" height="2"/>
		<polyline class="st2" points="13,0.6 16,3.5 14,5.5 		"/>
		<polyline class="st2" points="11,0.6 8,3.5 10,5.5 		"/>
		<line class="st2" x1="0.5" y1="0.5" x2="23.5" y2="0.5"/>
		<line class="st2" x1="1.5" y1="17.5" x2="6.5" y2="17.5"/>
		<line class="st2" x1="17.5" y1="17.5" x2="22.5" y2="17.5"/>
		<rect x="8.5" y="11.5" class="st2" width="7" height="4"/>
	</g>
</g>
</svg>
