<?xml version="1.0" encoding="utf-8"?>
<!-- Generator: Adobe Illustrator 19.2.0, SVG Export Plug-In . SVG Version: 6.00 Build 0)  -->
<svg version="1.1" id="Layer_1" xmlns="http://www.w3.org/2000/svg" xmlns:xlink="http://www.w3.org/1999/xlink" x="0px" y="0px"
	 viewBox="0 0 24 24" style="enable-background:new 0 0 24 24;" xml:space="preserve">
<style type="text/css">
	.st0{display:none;}
	.st1{display:inline;}
	.st2{fill:none;stroke:#000000;stroke-linecap:round;stroke-linejoin:round;stroke-miterlimit:10;}
</style>
<g id="Filled_Icons" class="st0">
	<path class="st1" d="M23.5,0h-23C0.2,0,0,0.2,0,0.5v23C0,23.8,0.2,24,0.5,24h23c0.3,0,0.5-0.2,0.5-0.5v-23C24,0.2,23.8,0,23.5,0z
		 M13.5,15H4.7l2.1,2.1c0.2,0.2,0.2,0.5,0,0.7C6.8,18,6.6,18,6.5,18c-0.1,0-0.3,0-0.4-0.1l-3-3c0,0-0.1-0.1-0.1-0.2
		C3,14.6,3,14.4,3,14.3c0-0.1,0.1-0.1,0.1-0.2l3-3c0.2-0.2,0.5-0.2,0.7,0c0.2,0.2,0.2,0.5,0,0.7L4.7,14h8.8c0.3,0,0.5,0.2,0.5,0.5
		C14,14.8,13.8,15,13.5,15z M21,10.7c0,0.1-0.1,0.1-0.1,0.2l-3,3C17.8,14,17.6,14,17.5,14c-0.1,0-0.3,0-0.4-0.1
		c-0.2-0.2-0.2-0.5,0-0.7l2.1-2.1h-8.8c-0.3,0-0.5-0.2-0.5-0.5c0-0.3,0.2-0.5,0.5-0.5h8.8l-2.1-2.1c-0.2-0.2-0.2-0.5,0-0.7
		c0.2-0.2,0.5-0.2,0.7,0l3,3c0,0,0.1,0.1,0.1,0.2C21,10.4,21,10.6,21,10.7z"/>
</g>
<g id="Outline_Icons">
	<g>
		<line class="st2" x1="20.5" y1="10.5" x2="10.5" y2="10.5"/>
		<line class="st2" x1="13.5" y1="14.5" x2="3.5" y2="14.5"/>
		<polyline class="st2" points="17.5,13.5 20.5,10.5 17.5,7.5 		"/>
		<polyline class="st2" points="6.5,17.5 3.5,14.5 6.5,11.5 		"/>
		<rect x="0.5" y="0.5" class="st2" width="23" height="23"/>
	</g>
</g>
</svg>
