<?xml version="1.0" encoding="utf-8"?>
<!-- Generator: Adobe Illustrator 19.2.0, SVG Export Plug-In . SVG Version: 6.00 Build 0)  -->
<svg version="1.1" id="Layer_1" xmlns="http://www.w3.org/2000/svg" xmlns:xlink="http://www.w3.org/1999/xlink" x="0px" y="0px"
	 viewBox="0 0 24 24" style="enable-background:new 0 0 24 24;" xml:space="preserve">
<style type="text/css">
	.st0{display:none;}
	.st1{display:inline;}
	.st2{fill:none;stroke:#000000;stroke-linecap:round;stroke-linejoin:round;stroke-miterlimit:10;}
	.st3{fill:none;stroke:#000000;stroke-linejoin:round;stroke-miterlimit:10;}
</style>
<g id="Filled_Icons" class="st0">
	<g class="st1">
		<path d="M14,11h-3.1l-1.3,1.3c-0.1,0.1-0.3,0.2-0.5,0.3c-0.2,0.1-0.4,0.1-0.6,0.1c-0.2,0-0.4,0-0.6-0.1c-0.2-0.1-0.3-0.2-0.5-0.3
			L6.1,11H2c-1.1,0-2,0.9-2,2v6h16v-6C16,11.9,15.1,11,14,11z"/>
		<path d="M2,22h5.5v1H5c-0.3,0-0.5,0.2-0.5,0.5C4.5,23.8,4.7,24,5,24h6c0.3,0,0.5-0.2,0.5-0.5c0-0.3-0.2-0.5-0.5-0.5H8.5v-1H14
			c1.1,0,2-0.9,2-2H0C0,21.1,0.9,22,2,22z"/>
		<path d="M15,6h9V2c0-1.1-0.9-2-2-2h-8c-0.6,0-1.7,0.2-1.9,1.1c0.5-0.1,1.1,0,1.5,0.4l1.5,1.5c0.1,0.1,0.2,0.3,0.3,0.5
			c0.2,0.4,0.2,0.8,0,1.1c-0.1,0.2-0.2,0.3-0.3,0.5l-1.5,1.5c-0.4,0.4-1,0.5-1.6,0.3V7c0,1.3,0.7,2,2,2h3.5v1h-1
			c-0.3,0-0.5,0.2-0.5,0.5c0,0.3,0.2,0.5,0.5,0.5h3c0.3,0,0.5-0.2,0.5-0.5c0-0.3-0.2-0.5-0.5-0.5h-1V9H22c1.1,0,2-0.9,2-2h-9
			c-0.3,0-0.5-0.2-0.5-0.5C14.5,6.2,14.7,6,15,6z"/>
		<path d="M6.1,9.6L6.6,10l1.6,1.6c0,0,0.1,0.1,0.2,0.1c0.1,0.1,0.3,0.1,0.4,0c0.1,0,0.1-0.1,0.2-0.1l1.6-1.6l0.4-0.4
			c0.2-0.2,0.2-0.5,0-0.7c0,0,0,0,0,0c-0.2-0.2-0.5-0.2-0.7,0c0,0,0,0,0,0L9.6,9.5L9,10V8.5c0-3.6,2.5-4.1,3.5-4.1L12,5.3
			c0,0.1,0,0.1,0,0.2c0,0.1,0.1,0.3,0.1,0.4c0.2,0.2,0.5,0.2,0.7,0l1.5-1.5c0,0,0.1-0.1,0.1-0.2c0-0.1,0.1-0.3,0-0.4
			c0-0.1-0.1-0.1-0.1-0.2l-1.5-1.5c-0.2-0.2-0.5-0.2-0.7,0C12.1,2.2,12,2.4,12,2.5c0,0.1,0,0.2,0.1,0.3l0.4,0.7C9.3,3.8,8,5.6,8,8.5
			V10L7.4,9.5L6.9,8.9c-0.2-0.2-0.5-0.2-0.7,0C5.9,9.1,6,9.4,6.1,9.6z"/>
	</g>
</g>
<g id="Outline_Icons">
	<g>
		<line class="st2" x1="5" y1="23.5" x2="11" y2="23.5"/>
		<line class="st2" x1="8" y1="21.5" x2="8" y2="23.5"/>
		<line class="st3" x1="0.5" y1="19.5" x2="15.5" y2="19.5"/>
		<path class="st2" d="M8.5,10.5V7.8c0-2.1,1.7-3.8,3.8-3.8H14"/>
		<polyline class="st2" points="10.5,8.5 8.5,10.5 6.5,8.5 		"/>
		<path class="st2" d="M12.5,11.5H14c0.8,0,1.5,0.7,1.5,1.5v7c0,0.8-0.7,1.5-1.5,1.5H2c-0.8,0-1.5-0.7-1.5-1.5v-7
			c0-0.8,0.7-1.5,1.5-1.5h1.5"/>
		<path class="st2" d="M13,8.1c0.3,0.2,0.6,0.4,1,0.4h8c0.8,0,1.5-0.7,1.5-1.5V2c0-0.8-0.7-1.5-1.5-1.5h-8"/>
		<line class="st2" x1="14.5" y1="6.5" x2="23.5" y2="6.5"/>
		<line class="st2" x1="16.5" y1="10.5" x2="19.5" y2="10.5"/>
		<line class="st2" x1="18" y1="8.5" x2="18" y2="10.5"/>
		<polyline class="st2" points="12.5,2.5 14,4 12.5,5.5 		"/>
	</g>
</g>
</svg>
