<?xml version="1.0" encoding="utf-8"?>
<!-- Generator: Adobe Illustrator 19.2.0, SVG Export Plug-In . SVG Version: 6.00 Build 0)  -->
<svg version="1.1" id="Layer_1" xmlns="http://www.w3.org/2000/svg" xmlns:xlink="http://www.w3.org/1999/xlink" x="0px" y="0px"
	 viewBox="0 0 24 24" style="enable-background:new 0 0 24 24;" xml:space="preserve">
<style type="text/css">
	.st0{display:none;}
	.st1{display:inline;}
	.st2{fill:none;stroke:#000000;stroke-linecap:round;stroke-linejoin:round;stroke-miterlimit:10;}
</style>
<g id="Filled_Icons" class="st0">
	<g class="st1">
		<path d="M9.3,9.8L2,17.1v-3.6c0-0.6-0.4-1-1-1c-0.6,0-1,0.4-1,1v6c0,0.6,0.5,1,1,1h6c0.6,0,1-0.4,1-1c0-0.6-0.4-1-1-1H3.4l7.3-7.3
			c0.4-0.4,0.4-1,0-1.4C10.3,9.4,9.7,9.4,9.3,9.8z"/>
		<path d="M23,4.5h-6c-0.6,0-1,0.4-1,1c0,0.6,0.4,1,1,1h3.6l-7.8,7.8c-0.4,0.4-0.4,1,0,1.4c0.2,0.2,0.5,0.3,0.7,0.3
			c0.3,0,0.5-0.1,0.7-0.3L22,7.9v3.6c0,0.6,0.4,1,1,1c0.6,0,1-0.4,1-1v-6C24,4.9,23.5,4.5,23,4.5z"/>
	</g>
</g>
<g id="Outline_Icons">
	<g>
		<line class="st2" x1="0.5" y1="19.5" x2="9.5" y2="10.5"/>
		<line class="st2" x1="12" y1="15" x2="21.5" y2="5.5"/>
		<polyline class="st2" points="6.5,19.5 0.5,19.5 0.5,13.5 		"/>
		<polyline class="st2" points="21.5,11.5 21.5,5.5 15.5,5.5 		"/>
	</g>
</g>
</svg>
