<?xml version="1.0" encoding="utf-8"?>
<!-- Generator: Adobe Illustrator 19.2.0, SVG Export Plug-In . SVG Version: 6.00 Build 0)  -->
<svg version="1.1" id="Outline_Icons" xmlns="http://www.w3.org/2000/svg" xmlns:xlink="http://www.w3.org/1999/xlink" x="0px"
	 y="0px" viewBox="0 0 24 24" style="enable-background:new 0 0 24 24;" xml:space="preserve">
<style type="text/css">
	.st0{fill:none;stroke:#000000;stroke-linecap:round;stroke-linejoin:round;stroke-miterlimit:10;}
</style>
<g>
	<polyline class="st0" points="6,23 8,21 6,19 	"/>
	<path class="st0" d="M0.5,8v1c0,0.8,0.7,1.5,1.5,1.5h9c0.8,0,1.5-0.7,1.5-1.5V3c0-0.8-0.7-1.5-1.5-1.5H2C1.2,1.5,0.5,2.2,0.5,3V8z"
		/>
	<line class="st0" x1="0.5" y1="7.5" x2="12.5" y2="7.5"/>
	<line class="st0" x1="4" y1="12.5" x2="9" y2="12.5"/>
	<line class="st0" x1="6.5" y1="10.5" x2="6.5" y2="12.5"/>
	<path class="st0" d="M13.5,11.5c0-0.6,0.4-1,1-1h6c0.6,0,1,0.4,1,1v11c0,0.6-0.4,1-1,1h-6c-0.6,0-1-0.4-1-1V11.5z"/>
	<path class="st0" d="M2,16c0,2.8,2.2,5,5,5h1"/>
	<polyline class="st0" points="18,1 16,3 18,5 	"/>
	<path class="st0" d="M22,8c0-2.8-2.2-5-5-5h-1"/>
	<line class="st0" x1="13.5" y1="20.5" x2="21.5" y2="20.5"/>
	<g>
		<g>
			<path d="M17.5,21.5c-0.3,0-0.5,0.2-0.5,0.5s0.2,0.5,0.5,0.5S18,22.3,18,22S17.8,21.5,17.5,21.5L17.5,21.5z"/>
		</g>
	</g>
</g>
</svg>
