<?xml version="1.0" encoding="utf-8"?>
<!-- Generator: Adobe Illustrator 19.2.0, SVG Export Plug-In . SVG Version: 6.00 Build 0)  -->
<svg version="1.1" id="Layer_1" xmlns="http://www.w3.org/2000/svg" xmlns:xlink="http://www.w3.org/1999/xlink" x="0px" y="0px"
	 viewBox="0 0 24 24" style="enable-background:new 0 0 24 24;" xml:space="preserve">
<style type="text/css">
	.st0{display:none;}
	.st1{display:inline;}
	.st2{fill:none;stroke:#000000;stroke-linecap:round;stroke-linejoin:round;stroke-miterlimit:10;}
</style>
<g id="Filled_Icons" class="st0">
	<path class="st1" d="M23.5,0h-23C0.2,0,0,0.2,0,0.5v23C0,23.8,0.2,24,0.5,24h23c0.3,0,0.5-0.2,0.5-0.5v-23C24,0.2,23.8,0,23.5,0z
		 M10,13.5c0,0.3-0.2,0.5-0.5,0.5C9.2,14,9,13.8,9,13.5V4.7L6.9,6.9C6.7,7,6.3,7,6.1,6.9C6,6.7,6,6.3,6.1,6.1l3-3
		c0,0,0.1-0.1,0.2-0.1C9.4,3,9.6,3,9.7,3c0.1,0,0.1,0.1,0.2,0.1l3,3c0.2,0.2,0.2,0.5,0,0.7C12.8,7,12.6,7,12.5,7
		c-0.1,0-0.3,0-0.4-0.1L10,4.7V13.5z M17.9,17.9l-3,3c0,0-0.1,0.1-0.2,0.1c-0.1,0-0.1,0-0.2,0c-0.1,0-0.1,0-0.2,0
		c-0.1,0-0.1-0.1-0.2-0.1l-3-3c-0.2-0.2-0.2-0.5,0-0.7c0.2-0.2,0.5-0.2,0.7,0l2.1,2.1v-8.8c0-0.3,0.2-0.5,0.5-0.5
		c0.3,0,0.5,0.2,0.5,0.5v8.8l2.1-2.1c0.2-0.2,0.5-0.2,0.7,0C18,17.3,18,17.7,17.9,17.9z"/>
</g>
<g id="Outline_Icons">
	<g>
		<line class="st2" x1="9.5" y1="3.5" x2="9.5" y2="13.5"/>
		<line class="st2" x1="14.5" y1="10.5" x2="14.5" y2="20.5"/>
		<polyline class="st2" points="12.5,6.5 9.5,3.5 6.5,6.5 		"/>
		<polyline class="st2" points="17.5,17.5 14.5,20.5 11.5,17.5 		"/>
		<rect x="0.5" y="0.5" class="st2" width="23" height="23"/>
	</g>
</g>
</svg>
