<?xml version="1.0" encoding="utf-8"?>
<!-- Generator: Adobe Illustrator 19.2.0, SVG Export Plug-In . SVG Version: 6.00 Build 0)  -->
<svg version="1.1" id="Layer_1" xmlns="http://www.w3.org/2000/svg" xmlns:xlink="http://www.w3.org/1999/xlink" x="0px" y="0px"
	 viewBox="0 0 24 24" style="enable-background:new 0 0 24 24;" xml:space="preserve">
<style type="text/css">
	.st0{display:none;}
	.st1{display:inline;}
	.st2{fill:none;stroke:#000000;stroke-linecap:round;stroke-linejoin:round;stroke-miterlimit:10;}
</style>
<g id="Filled_Icons" class="st0">
	<g class="st1">
		<path d="M15,0H9C8.4,0,8,0.4,8,1c0,0.6,0.4,1,1,1h3.6L5.3,9.3c-0.4,0.4-0.4,1,0,1.4C5.5,10.9,5.7,11,6,11c0.3,0,0.5-0.1,0.7-0.3
			L14,3.4V7c0,0.6,0.4,1,1,1c0.6,0,1-0.4,1-1V1C16,0.5,15.6,0,15,0z"/>
		<path d="M9.8,12.8L2,20.6V17c0-0.6-0.4-1-1-1c-0.6,0-1,0.4-1,1v6c0,0.6,0.5,1,1,1h6c0.6,0,1-0.4,1-1c0-0.6-0.4-1-1-1H3.4l7.8-7.8
			c0.4-0.4,0.4-1,0-1.4C10.8,12.4,10.2,12.4,9.8,12.8z"/>
	</g>
</g>
<g id="Outline_Icons">
	<g>
		<line class="st2" x1="14.5" y1="1.5" x2="5.5" y2="10.5"/>
		<line class="st2" x1="10" y1="13" x2="0.5" y2="22.5"/>
		<polyline class="st2" points="14.5,7.5 14.5,1.5 8.5,1.5 		"/>
		<polyline class="st2" points="6.5,22.5 0.5,22.5 0.5,16.5 		"/>
	</g>
</g>
</svg>
