<?xml version="1.0" encoding="utf-8"?>
<!-- Generator: Adobe Illustrator 19.2.0, SVG Export Plug-In . SVG Version: 6.00 Build 0)  -->
<svg version="1.1" id="Layer_1" xmlns="http://www.w3.org/2000/svg" xmlns:xlink="http://www.w3.org/1999/xlink" x="0px" y="0px"
	 viewBox="0 0 24 24" style="enable-background:new 0 0 24 24;" xml:space="preserve">
<style type="text/css">
	.st0{display:none;}
	.st1{display:inline;}
	.st2{fill:none;stroke:#000000;stroke-linecap:round;stroke-linejoin:round;stroke-miterlimit:10;}
	.st3{fill:none;stroke:#000000;stroke-linejoin:round;stroke-miterlimit:10;}
</style>
<g id="Filled_Icon" class="st0">
	<g class="st1">
		<g>
			<path d="M12.5,0h-12C0.2,0,0,0.2,0,0.5v12C0,12.8,0.2,13,0.5,13h12c0.3,0,0.5-0.2,0.5-0.5v-12C13,0.2,12.8,0,12.5,0z M10.5,5H9.4
				C9,6.3,8.2,7.5,7.3,8.5c0.9,0.7,1.9,1.2,3,1.5c0.3,0.1,0.4,0.3,0.4,0.6c-0.1,0.2-0.3,0.4-0.5,0.4h-0.1c-1.3-0.3-2.5-1-3.5-1.8
				c-1,0.8-2.2,1.5-3.5,1.8H3c-0.2,0-0.4-0.1-0.5-0.4c-0.1-0.3,0.1-0.5,0.4-0.6C4,9.7,5,9.2,5.9,8.5c-1-1-1.8-2.2-2.2-3.5H2.5
				C2.3,5,2,4.8,2,4.5S2.3,4,2.5,4H6V2.5C6,2.2,6.2,2,6.5,2l0,0C6.8,2,7,2.2,7,2.5V4h3.5C10.8,4,11,4.2,11,4.5S10.8,5,10.5,5z"/>
			<path d="M6.5,5H4.8c0.4,1.1,1,2,1.8,2.8C7.3,7,7.9,6.1,8.3,5H6.5L6.5,5z"/>
		</g>
		<g>
			<polygon points="16,19 19,19 17.5,14.9 			"/>
			<path d="M23.5,11H14v1.5c0,0.8-0.7,1.5-1.5,1.5H11v9.5c0,0.3,0.2,0.5,0.5,0.5h12c0.3,0,0.5-0.2,0.5-0.5v-12
				C24,11.2,23.8,11,23.5,11z M20.7,22c-0.1,0-0.1,0-0.2,0c-0.2,0-0.4-0.1-0.5-0.3L19.4,20h-3.8L15,21.7c-0.1,0.3-0.4,0.4-0.6,0.3
				c-0.3-0.1-0.4-0.4-0.3-0.6l3-8c0.1-0.2,0.3-0.3,0.5-0.3l0,0c0.2,0,0.4,0.1,0.5,0.3l3,8C21.1,21.6,20.9,21.9,20.7,22z"/>
		</g>
		<path d="M8.4,20.6l-2-2c-0.2-0.2-0.5-0.2-0.7,0s-0.2,0.5,0,0.7l1.1,1.1c-2.4-0.1-4.3-2.1-4.3-4.5c0-0.3-0.2-0.5-0.5-0.5
			s-0.5,0.2-0.5,0.5c0,3,2.4,5.4,5.3,5.5l-1.2,1.2c-0.2,0.2-0.2,0.5,0,0.7c0.1,0.1,0.2,0.1,0.4,0.1c0.1,0,0.3,0,0.4-0.1l2-2
			C8.5,21.2,8.5,20.8,8.4,20.6z"/>
		<path d="M17.2,2.5l1.2-1.2c0.2-0.2,0.2-0.5,0-0.7s-0.5-0.2-0.7,0l-2,2c-0.2,0.2-0.2,0.5,0,0.7l2,2c0.1,0.1,0.2,0.1,0.4,0.1
			c0.1,0,0.3,0,0.4-0.1c0.2-0.2,0.2-0.5,0-0.7l-1.1-1.1c2.4,0.1,4.3,2.1,4.3,4.5c0,0.3,0.2,0.5,0.5,0.5s0.5-0.2,0.5-0.5
			C22.5,5,20.1,2.6,17.2,2.5z"/>
	</g>
</g>
<g id="Outline_Icons">
	<g>
		<line class="st2" x1="2.5" y1="4.5" x2="10.5" y2="4.5"/>
		<line class="st2" x1="6.5" y1="2.5" x2="6.5" y2="4.5"/>
		<path class="st2" d="M9,4.5c-0.8,2.9-3.1,5.2-6.1,6"/>
		<path class="st2" d="M4.1,4.6c0.8,2.9,3.1,5.2,6.1,6"/>
		<polyline class="st2" points="14.5,21.5 17.5,13.5 20.5,21.5 		"/>
		<line class="st3" x1="15.2" y1="19.5" x2="19.8" y2="19.5"/>
		<rect x="0.5" y="0.5" class="st2" width="12" height="12"/>
		<polyline class="st2" points="15,11.5 23.5,11.5 23.5,23.5 11.5,23.5 11.5,15 		"/>
		<polyline class="st2" points="6,23 8,21 6,19 		"/>
		<path class="st2" d="M2,16c0,2.8,2.2,5,5,5h1"/>
		<polyline class="st2" points="18,1 16,3 18,5 		"/>
		<path class="st2" d="M22,8c0-2.8-2.2-5-5-5h-1"/>
	</g>
</g>
</svg>
