<?xml version="1.0" encoding="utf-8"?>
<!-- Generator: Adobe Illustrator 19.2.0, SVG Export Plug-In . SVG Version: 6.00 Build 0)  -->
<svg version="1.1" id="Outline_Icons" xmlns="http://www.w3.org/2000/svg" xmlns:xlink="http://www.w3.org/1999/xlink" x="0px"
	 y="0px" viewBox="0 0 24 24" style="enable-background:new 0 0 24 24;" xml:space="preserve">
<style type="text/css">
	.st0{fill:none;stroke:#000000;stroke-linecap:round;stroke-linejoin:round;stroke-miterlimit:10;}
</style>
<g>
	<path class="st0" d="M12.5,19v1c0,0.8,0.7,1.5,1.5,1.5h8c0.8,0,1.5-0.7,1.5-1.5v-6c0-0.8-0.7-1.5-1.5-1.5h-8
		c-0.8,0-1.5,0.7-1.5,1.5L12.5,19z"/>
	<line class="st0" x1="12.5" y1="18.5" x2="23.5" y2="18.5"/>
	<line class="st0" x1="16" y1="23.5" x2="20" y2="23.5"/>
	<line class="st0" x1="18" y1="21.5" x2="18" y2="23.5"/>
	<path class="st0" d="M4.3,7.8c2.3,1.7,5.6,1.3,7.3-1.1L3.3,0.5C1.5,2.8,2,6.1,4.3,7.8z"/>
	<line class="st0" x1="8.9" y1="1.7" x2="7.5" y2="3.6"/>
	<polygon class="st0" points="3.8,7.4 0.5,11.5 7.2,11.5 	"/>
	<polyline class="st0" points="12,3.5 18.5,3.5 18.5,10 	"/>
	<polyline class="st0" points="10,20.5 3.5,20.5 3.5,14 	"/>
</g>
</svg>
