<?xml version="1.0" encoding="utf-8"?>
<!-- Generator: Adobe Illustrator 19.2.0, SVG Export Plug-In . SVG Version: 6.00 Build 0)  -->
<svg version="1.1" id="Layer_1" xmlns="http://www.w3.org/2000/svg" xmlns:xlink="http://www.w3.org/1999/xlink" x="0px" y="0px"
	 viewBox="0 0 24 24" style="enable-background:new 0 0 24 24;" xml:space="preserve">
<style type="text/css">
	.st0{display:none;}
	.st1{display:inline;}
	.st2{fill:none;stroke:#000000;stroke-linecap:round;stroke-linejoin:round;stroke-miterlimit:10;}
	.st3{fill:none;stroke:#000000;stroke-linejoin:round;stroke-miterlimit:10;}
</style>
<g id="Filled_Icons" class="st0">
	<g class="st1">
		<path d="M14,11H9.6l-0.6,0.6c-0.1,0.1-0.3,0.2-0.5,0.3C8.4,12,8.2,12,8,12c-0.2,0-0.4,0-0.6-0.1c-0.2-0.1-0.3-0.2-0.5-0.3L6.4,11
			H2c-1.1,0-2,0.9-2,2v6h16v-6C16,11.9,15.1,11,14,11z"/>
		<path d="M2,22h5.5v1H5c-0.3,0-0.5,0.2-0.5,0.5C4.5,23.8,4.7,24,5,24h6c0.3,0,0.5-0.2,0.5-0.5c0-0.3-0.2-0.5-0.5-0.5H8.5v-1H14
			c1.1,0,2-0.9,2-2H0C0,21.1,0.9,22,2,22z"/>
		<path d="M23.5,3H23V1.5C23,1.2,22.8,1,22.5,1H16V0.5C16,0.2,15.8,0,15.5,0h-2C13.2,0,13,0.2,13,0.5V4v3.5C13,8.3,13.7,9,14.5,9H22
			c1.1,0,2-0.9,2-2V3.5C24,3.2,23.8,3,23.5,3z M22,3h-6.5C15.2,3,15,3.2,15,3.5v4C15,7.8,14.8,8,14.5,8C14.2,8,14,7.8,14,7.5V1h1
			v0.5C15,1.8,15.2,2,15.5,2H22V3z"/>
		<path d="M5.6,8.9l0.4,0.4l1.6,1.6C7.7,11,7.9,11,8,11c0.1,0,0.2,0,0.3-0.1l1.6-1.6l0.4-0.4c0.2-0.2,0.2-0.5,0-0.7c0,0,0,0,0,0
			C10.2,8,9.8,8,9.6,8.1c0,0,0,0,0,0l0,0L8.4,9.4L8.5,8c0.1-2.1,0.9-3.5,3-3.5C11.8,4.5,12,4.3,12,4c0-0.3-0.2-0.5-0.5-0.5
			c-2.6,0-3.7,1.8-4,4.4c0,0.3,0,0.7,0,1.1v0.3L6.4,8.1C6.2,8,5.8,8,5.6,8.1C5.5,8.3,5.5,8.7,5.6,8.9z"/>
	</g>
</g>
<g id="Outline_Icons">
	<g>
		<line class="st2" x1="5" y1="23.5" x2="11" y2="23.5"/>
		<line class="st2" x1="8" y1="21.5" x2="8" y2="23.5"/>
		<line class="st3" x1="0.5" y1="19.5" x2="15.5" y2="19.5"/>
		<path class="st2" d="M8,10.5V9c0-2.8,0.7-5,3.5-5"/>
		<polyline class="st2" points="10,8.5 8,10.5 6,8.5 		"/>
		<path class="st2" d="M12.5,11.5H14c0.8,0,1.5,0.7,1.5,1.5v7c0,0.8-0.7,1.5-1.5,1.5H2c-0.8,0-1.5-0.7-1.5-1.5v-7
			c0-0.8,0.7-1.5,1.5-1.5h2"/>
		<path class="st2" d="M14.5,8.5H22c0.8,0,1.5-0.7,1.5-1.5V3.5h-8v4C15.5,8.1,15.1,8.5,14.5,8.5c-0.6,0-1-0.4-1-1v-7h2v1h7v2"/>
	</g>
</g>
</svg>
