<?xml version="1.0" encoding="utf-8"?>
<!-- Generator: Adobe Illustrator 19.2.0, SVG Export Plug-In . SVG Version: 6.00 Build 0)  -->
<svg version="1.1" id="Layer_1" xmlns="http://www.w3.org/2000/svg" xmlns:xlink="http://www.w3.org/1999/xlink" x="0px" y="0px"
	 viewBox="0 0 24 24" style="enable-background:new 0 0 24 24;" xml:space="preserve">
<style type="text/css">
	.st0{display:none;}
	.st1{display:inline;}
	.st2{fill:none;stroke:#000000;stroke-linecap:round;stroke-linejoin:round;stroke-miterlimit:10;}
</style>
<g id="Filled_Icons" class="st0">
	<g class="st1">
		<path d="M3.4,11h11.1c0.6,0,1-0.4,1-1c0-0.6-0.4-1-1-1H3.4l2.3-2.3c0.4-0.4,0.4-1,0-1.4c-0.4-0.4-1-0.4-1.4,0l-4,4
			c-0.4,0.4-0.4,1,0,1.4l4,4C4.5,14.9,4.7,15,5,15c0.3,0,0.5-0.1,0.7-0.3c0.4-0.4,0.4-1,0-1.4L3.4,11z"/>
		<path d="M23.7,13.3l-4-4c-0.4-0.4-1-0.4-1.4,0c-0.4,0.4-0.4,1,0,1.4l2.3,2.3H9.5c-0.6,0-1,0.4-1,1c0,0.6,0.4,1,1,1h11.1l-2.3,2.3
			c-0.4,0.4-0.4,1,0,1.4c0.2,0.2,0.5,0.3,0.7,0.3c0.3,0,0.5-0.1,0.7-0.3l4-4C24.1,14.3,24.1,13.7,23.7,13.3z"/>
	</g>
</g>
<g id="Outline_Icons">
	<g>
		<line class="st2" x1="0.5" y1="9.5" x2="14.5" y2="9.5"/>
		<line class="st2" x1="9.5" y1="14.5" x2="23.5" y2="14.5"/>
		<polyline class="st2" points="4.5,13.5 0.5,9.5 4.5,5.5 		"/>
		<polyline class="st2" points="19.5,18.5 23.5,14.5 19.5,10.5 		"/>
	</g>
</g>
</svg>
