<?xml version="1.0" encoding="utf-8"?>
<!-- Generator: Adobe Illustrator 19.2.0, SVG Export Plug-In . SVG Version: 6.00 Build 0)  -->
<svg version="1.1" id="Layer_1" xmlns="http://www.w3.org/2000/svg" xmlns:xlink="http://www.w3.org/1999/xlink" x="0px" y="0px"
	 viewBox="0 0 24 24" style="enable-background:new 0 0 24 24;" xml:space="preserve">
<style type="text/css">
	.st0{display:none;}
	.st1{display:inline;}
	.st2{fill:none;stroke:#000000;stroke-linecap:round;stroke-linejoin:round;stroke-miterlimit:10;}
	.st3{fill:none;stroke:#000000;stroke-linejoin:round;stroke-miterlimit:10;}
</style>
<g id="Filled_Icons" class="st0">
	<g class="st1">
		<path d="M9.9,3.7c0-0.1,0-0.1,0-0.2c0,0,0,0,0,0c0,0,0,0,0,0c0,0,0-0.1,0-0.1c0,0,0-0.1-0.1-0.1c0,0,0,0,0-0.1L8.4,1.6
			c-0.2-0.2-0.5-0.2-0.7,0c-0.2,0.2-0.2,0.5,0,0.7L8.3,3H4.5C4.2,3,4,3.2,4,3.5v2.8L3.4,5.6c-0.2-0.2-0.5-0.2-0.7,0
			c-0.2,0.2-0.2,0.5,0,0.7l1.5,1.5c0,0,0,0,0,0c0,0,0.1,0,0.1,0.1c0,0,0,0,0.1,0c0,0,0,0,0.1,0c0,0,0.1,0,0.1,0c0,0,0,0,0,0
			c0.1,0,0.1,0,0.2,0c0,0,0.1,0,0.1-0.1c0,0,0,0,0.1,0l0,0c0,0,0,0,0,0l1.6-1.5c0.2-0.2,0.2-0.5,0-0.7c-0.2-0.2-0.5-0.2-0.7,0L5,6.3
			V4h3.3L7.6,4.6c-0.2,0.2-0.2,0.5,0,0.7C7.7,5.4,7.8,5.5,8,5.5c0.1,0,0.3,0,0.4-0.1l1.5-1.5C9.9,3.8,9.9,3.8,9.9,3.7z"/>
		<path d="M19.5,20H19v-9h-2.5c0.3,0,0.5,0.2,0.5,0.5v7c0,0.3-0.2,0.5-0.5,0.5h-13C3.2,19,3,18.8,3,18.5v-7C3,11.2,3.2,11,3.5,11h9
			c-1.2,0-2.2-0.9-2.4-2H3c-1.1,0-2,0.9-2,2v9H0.5C0.2,20,0,20.2,0,20.5v2C0,23.3,0.7,24,1.5,24h17c0.8,0,1.5-0.7,1.5-1.5v-2
			C20,20.2,19.8,20,19.5,20z M19,22.5c0,0.3-0.2,0.5-0.5,0.5h-17C1.2,23,1,22.8,1,22.5V21h0.5H8v0.5C8,21.8,8.2,22,8.5,22h3
			c0.3,0,0.5-0.2,0.5-0.5V21h6.5H19V22.5z"/>
		<path d="M22.5,1h-1.2l-0.1-0.2C21,0.3,20.5,0,19.9,0h-2.3c-0.6,0-1.1,0.3-1.3,0.8L16.2,1H14V0h-1.5v1C11.7,1,11,1.7,11,2.5v6
			c0,0.8,0.7,1.5,1.5,1.5h10c0.8,0,1.5-0.7,1.5-1.5v-6C24,1.7,23.3,1,22.5,1z M18.5,8C17.1,8,16,6.9,16,5.5C16,4.1,17.1,3,18.5,3
			C19.9,3,21,4.1,21,5.5C21,6.9,19.9,8,18.5,8z"/>
	</g>
</g>
<g id="Outline_Icons">
	<g>
		<polyline class="st2" points="16.5,13 16.5,18.5 10,18.5 3.5,18.5 3.5,11.5 9.1,11.5 		"/>
		<line class="st2" x1="18.5" y1="13" x2="18.5" y2="20.5"/>
		<path class="st2" d="M1.5,20.5V11c0-0.8,0.7-1.5,1.5-1.5h6"/>
		<path class="st2" d="M11.5,20.5v1h-3v-1h-8v2c0,0.6,0.4,1,1,1h17c0.6,0,1-0.4,1-1v-2H11.5z"/>
		<path class="st3" d="M23.5,8.5c0,0.6-0.4,1-1,1h-10c-0.6,0-1-0.4-1-1v-6c0-0.6,0.4-1,1-1h4l0.2-0.4c0.2-0.3,0.5-0.6,0.9-0.6h2.3
			c0.4,0,0.7,0.2,0.9,0.6L21,1.5h1.5c0.6,0,1,0.4,1,1V8.5z"/>
		<circle class="st3" cx="18.5" cy="5.5" r="2"/>
		<rect x="13" y="0.5" class="st3" width="0.5" height="1"/>
		<polyline class="st2" points="4.5,7.5 4.5,3.5 9.5,3.5 		"/>
		<polyline class="st2" points="3,6 4.5,7.5 6.1,6 		"/>
		<polyline class="st2" points="8,5 9.5,3.5 8,1.9 		"/>
	</g>
</g>
</svg>
