<?xml version="1.0" encoding="utf-8"?>
<!-- Generator: Adobe Illustrator 19.2.0, SVG Export Plug-In . SVG Version: 6.00 Build 0)  -->
<svg version="1.1" id="Layer_1" xmlns="http://www.w3.org/2000/svg" xmlns:xlink="http://www.w3.org/1999/xlink" x="0px" y="0px"
	 viewBox="0 0 24 24" style="enable-background:new 0 0 24 24;" xml:space="preserve">
<style type="text/css">
	.st0{display:none;}
	.st1{display:inline;}
	.st2{fill:none;stroke:#000000;stroke-linecap:round;stroke-linejoin:round;stroke-miterlimit:10;}
</style>
<g id="Filled_Icons" class="st0">
	<g class="st1">
		<path d="M12.3,18.3L10,20.6V9.5c0-0.6-0.4-1-1-1c-0.6,0-1,0.4-1,1v11.1l-2.3-2.3c-0.4-0.4-1-0.4-1.4,0c-0.4,0.4-0.4,1,0,1.4l4,4
			c0.4,0.4,1,0.4,1.4,0l4-4c0.4-0.4,0.4-1,0-1.4C13.3,17.9,12.7,17.9,12.3,18.3z"/>
		<path d="M19.7,4.3l-4-4c-0.4-0.4-1.1-0.4-1.4,0l-4,4c-0.4,0.4-0.4,1,0,1.4c0.4,0.4,1,0.4,1.4,0L14,3.4v11.1c0,0.6,0.4,1,1,1
			c0.6,0,1-0.4,1-1V3.4l2.3,2.3C18.5,5.9,18.7,6,19,6c0.3,0,0.5-0.1,0.7-0.3C20.1,5.3,20.1,4.7,19.7,4.3z"/>
	</g>
</g>
<g id="Outline_Icons">
	<g>
		<line class="st2" x1="9.5" y1="23.5" x2="9.5" y2="9.5"/>
		<line class="st2" x1="14.5" y1="14.5" x2="14.5" y2="0.5"/>
		<polyline class="st2" points="13.5,19.5 9.5,23.5 5.5,19.5 		"/>
		<polyline class="st2" points="18.5,4.5 14.5,0.5 10.5,4.5 		"/>
	</g>
</g>
</svg>
