<?xml version="1.0" encoding="utf-8"?>
<!-- Generator: Adobe Illustrator 19.2.0, SVG Export Plug-In . SVG Version: 6.00 Build 0)  -->
<svg version="1.1" id="Layer_1" xmlns="http://www.w3.org/2000/svg" xmlns:xlink="http://www.w3.org/1999/xlink" x="0px" y="0px"
	 viewBox="0 0 24 24" style="enable-background:new 0 0 24 24;" xml:space="preserve">
<style type="text/css">
	.st0{display:none;}
	.st1{display:inline;}
	.st2{fill:none;stroke:#000000;stroke-linecap:round;stroke-linejoin:round;stroke-miterlimit:10;}
</style>
<g id="Filled_Icons" class="st0">
	<path class="st1" d="M23.5,0h-23C0.2,0,0,0.2,0,0.5v23C0,23.8,0.2,24,0.5,24h23c0.3,0,0.5-0.2,0.5-0.5v-23C24,0.2,23.8,0,23.5,0z
		 M14.9,12.8L8.7,19h2.8c0.3,0,0.5,0.2,0.5,0.5c0,0.3-0.2,0.5-0.5,0.5h-4c-0.1,0-0.1,0-0.2,0c-0.1-0.1-0.2-0.1-0.3-0.3
		c0-0.1,0-0.1,0-0.2v-4C7,15.2,7.2,15,7.5,15C7.8,15,8,15.2,8,15.5v2.8l6.2-6.2c0.2-0.2,0.5-0.2,0.7,0
		C15.1,12.3,15.1,12.6,14.9,12.8z M16.5,8.5C16.5,8.8,16.3,9,16,9c-0.3,0-0.5-0.2-0.5-0.5V5.7l-6.2,6.2c-0.1,0.1-0.2,0.1-0.4,0.1
		c-0.1,0-0.3,0-0.4-0.1c-0.2-0.2-0.2-0.5,0-0.7L14.8,5H12c-0.3,0-0.5-0.2-0.5-0.5C11.5,4.2,11.7,4,12,4h4c0.1,0,0.1,0,0.2,0
		c0.1,0.1,0.2,0.1,0.3,0.3c0,0.1,0,0.1,0,0.2V8.5z"/>
</g>
<g id="Outline_Icons">
	<g>
		<line class="st2" x1="16" y1="4.5" x2="8.9" y2="11.6"/>
		<line class="st2" x1="14.6" y1="12.4" x2="7.5" y2="19.5"/>
		<polyline class="st2" points="16,8.5 16,4.5 12,4.5 		"/>
		<polyline class="st2" points="11.5,19.5 7.5,19.5 7.5,15.5 		"/>
		<rect x="0.5" y="0.5" class="st2" width="23" height="23"/>
	</g>
</g>
</svg>
