<?xml version="1.0" encoding="utf-8"?>
<!-- Generator: Adobe Illustrator 19.2.0, SVG Export Plug-In . SVG Version: 6.00 Build 0)  -->
<svg version="1.1" id="Layer_1" xmlns="http://www.w3.org/2000/svg" xmlns:xlink="http://www.w3.org/1999/xlink" x="0px" y="0px"
	 viewBox="0 0 24 24" style="enable-background:new 0 0 24 24;" xml:space="preserve">
<style type="text/css">
	.st0{display:none;}
	.st1{display:inline;}
	.st2{fill:none;stroke:#000000;stroke-linecap:round;stroke-linejoin:round;stroke-miterlimit:10;}
	.st3{fill:none;stroke:#000000;stroke-linejoin:round;stroke-miterlimit:10;}
</style>
<g id="Filled_Icons" class="st0">
	<g class="st1">
		<path d="M14,11h-3.9l-0.6,0.6c-0.1,0.1-0.3,0.2-0.5,0.3C8.9,12,8.7,12,8.5,12c-0.2,0-0.4,0-0.6-0.1c-0.2-0.1-0.3-0.2-0.5-0.3
			L6.9,11H2c-1.1,0-2,0.9-2,2v6h16v-6C16,11.9,15.1,11,14,11z"/>
		<path d="M2,22h5.5v1H5c-0.3,0-0.5,0.2-0.5,0.5C4.5,23.8,4.7,24,5,24h6c0.3,0,0.5-0.2,0.5-0.5c0-0.3-0.2-0.5-0.5-0.5H8.5v-1H14
			c1.1,0,2-0.9,2-2H0C0,21.1,0.9,22,2,22z"/>
		<path d="M14,6h10V2c0-1.1-0.9-2-2-2h-8c-1.1,0-2,0.9-2,2v0.7c0.5-0.1,1-0.2,1.5-0.2C14.3,2.5,15,3.2,15,4c0,0.8-0.7,1.5-1.5,1.5
			c-0.5,0-1,0.1-1.5,0.3V7c0,1.1,0.9,2,2,2h3.5v1h-1c-0.3,0-0.5,0.2-0.5,0.5c0,0.3,0.2,0.5,0.5,0.5h3c0.3,0,0.5-0.2,0.5-0.5
			c0-0.3-0.2-0.5-0.5-0.5h-1V9H22c1.1,0,2-0.9,2-2H14c-0.3,0-0.5-0.2-0.5-0.5C13.5,6.2,13.7,6,14,6z"/>
		<path d="M6.1,8.9l1.3,1.3l0.7,0.7c0.2,0.2,0.5,0.2,0.7,0l0.7-0.7l1.3-1.3c0.2-0.2,0.2-0.5,0-0.7c0,0,0,0,0,0
			c-0.2-0.2-0.5-0.2-0.7,0c0,0,0,0,0,0L9,9.3v0v0c0.4-3.5,2.3-4.8,4.5-4.8C13.8,4.5,14,4.3,14,4c0-0.3-0.2-0.5-0.5-0.5
			C10.7,3.5,8,5.7,8,9.3L7.9,9.2v0l-1-1C6.6,7.9,6.4,7.9,6.1,8.1C6,8.3,6,8.7,6.1,8.9z"/>
	</g>
</g>
<g id="Outline_Icons">
	<g>
		<line class="st2" x1="5" y1="23.5" x2="11" y2="23.5"/>
		<line class="st2" x1="8" y1="21.5" x2="8" y2="23.5"/>
		<line class="st3" x1="0.5" y1="19.5" x2="15.5" y2="19.5"/>
		<path class="st2" d="M8.5,10.5V9c0-2.8,2.2-5,5-5"/>
		<polyline class="st2" points="10.5,8.5 8.5,10.5 6.5,8.5 		"/>
		<path class="st2" d="M12.5,11.5H14c0.8,0,1.5,0.7,1.5,1.5v7c0,0.8-0.7,1.5-1.5,1.5H2c-0.8,0-1.5-0.7-1.5-1.5v-7
			c0-0.8,0.7-1.5,1.5-1.5h1.5"/>
		<path class="st2" d="M12.5,6.5V7c0,0.8,0.7,1.5,1.5,1.5h8c0.8,0,1.5-0.7,1.5-1.5V2c0-0.8-0.7-1.5-1.5-1.5h-8
			c-0.8,0-1.5,0.7-1.5,1.5"/>
		<line class="st2" x1="12.5" y1="6.5" x2="23.5" y2="6.5"/>
		<line class="st2" x1="16.5" y1="10.5" x2="19.5" y2="10.5"/>
		<line class="st2" x1="18" y1="8.5" x2="18" y2="10.5"/>
	</g>
</g>
</svg>
