<?xml version="1.0" encoding="utf-8"?>
<!-- Generator: Adobe Illustrator 19.2.0, SVG Export Plug-In . SVG Version: 6.00 Build 0)  -->
<svg version="1.1" id="Outline_Icons" xmlns="http://www.w3.org/2000/svg" xmlns:xlink="http://www.w3.org/1999/xlink" x="0px"
	 y="0px" viewBox="0 0 24 24" style="enable-background:new 0 0 24 24;" xml:space="preserve">
<style type="text/css">
	.st0{fill:none;stroke:#000000;stroke-linecap:round;stroke-linejoin:round;stroke-miterlimit:10;}
</style>
<g>
	<path class="st0" d="M13.5,11.5c0-0.6,0.4-1,1-1h6c0.6,0,1,0.4,1,1v11c0,0.6-0.4,1-1,1h-6c-0.6,0-1-0.4-1-1V11.5z"/>
	<line class="st0" x1="13.5" y1="20.5" x2="21.5" y2="20.5"/>
	<g>
		<g>
			<path d="M17.5,21.5c-0.3,0-0.5,0.2-0.5,0.5s0.2,0.5,0.5,0.5S18,22.3,18,22S17.8,21.5,17.5,21.5L17.5,21.5z"/>
		</g>
	</g>
	<path class="st0" d="M5.3,7.8c2.3,1.7,5.6,1.3,7.3-1.1L4.3,0.5C2.6,2.8,3,6.1,5.3,7.8z"/>
	<line class="st0" x1="9.9" y1="1.7" x2="8.5" y2="3.6"/>
	<polygon class="st0" points="4.9,7.4 1.5,11.5 8.2,11.5 	"/>
	<polyline class="st0" points="13,3.5 19.5,3.5 19.5,8.5 	"/>
	<polyline class="st0" points="11,20.5 4.5,20.5 4.5,14 	"/>
</g>
</svg>
