<?xml version="1.0" encoding="utf-8"?>
<!-- Generator: Adobe Illustrator 19.2.0, SVG Export Plug-In . SVG Version: 6.00 Build 0)  -->
<svg version="1.1" id="Layer_1" xmlns="http://www.w3.org/2000/svg" xmlns:xlink="http://www.w3.org/1999/xlink" x="0px" y="0px"
	 viewBox="0 0 24 24" style="enable-background:new 0 0 24 24;" xml:space="preserve">
<style type="text/css">
	.st0{display:none;}
	.st1{display:inline;}
	.st2{fill:none;stroke:#000000;stroke-linecap:round;stroke-linejoin:round;stroke-miterlimit:10;}
	.st3{fill:none;stroke:#000000;stroke-linejoin:round;stroke-miterlimit:10;}
</style>
<g id="Filled_Icons" class="st0">
	<g class="st1">
		<path d="M5.5,7C5.8,7,6,6.8,6,6.5c0-0.1,0-0.1,0-0.1C6,5.1,5.3,4,4.4,3.4C4.8,3.1,5,2.6,5,2c0-1.1-0.9-2-2-2S1,0.9,1,2
			c0,0.6,0.2,1.1,0.6,1.4C0.7,4,0,5.2,0,6.5C0,6.8,0.2,7,0.5,7H5.5C5.5,7,5.5,7,5.5,7z"/>
		<path d="M23,6.4c0-1.3-0.7-2.4-1.6-2.9C21.8,3.1,22,2.6,22,2c0-1.1-0.9-2-2-2c-1.1,0-2,0.9-2,2c0,0.6,0.2,1.1,0.6,1.4
			C17.7,4,17,5.2,17,6.5C17,6.8,17.2,7,17.5,7h5c0,0,0,0,0,0C22.8,7,23,6.8,23,6.5C23,6.4,23,6.4,23,6.4z"/>
		<path d="M9,7h5c0,0,0,0,0,0c0.3,0,0.5-0.2,0.5-0.5c0-0.1,0-0.1,0-0.1c0-1.3-0.7-2.4-1.6-2.9c0.4-0.4,0.6-0.9,0.6-1.4
			c0-1.1-0.9-2-2-2c-1.1,0-2,0.9-2,2c0,0.6,0.2,1.1,0.6,1.4C9.2,4,8.5,5.2,8.5,6.5C8.5,6.8,8.7,7,9,7z"/>
		<path d="M5,22h6v1H8.5C8.2,23,8,23.2,8,23.5C8,23.8,8.2,24,8.5,24h6c0.3,0,0.5-0.2,0.5-0.5c0-0.3-0.2-0.5-0.5-0.5H12v-1h6
			c1.1,0,2-0.9,2-2H3C3,21.1,3.9,22,5,22z"/>
		<path d="M19.5,12.5c-0.5,0-1-0.3-1.2-0.6l-2.7,2.7c-0.3,0.3-0.7,0.4-1.1,0.4c-0.4,0-0.8-0.1-1.1-0.4c-0.3-0.3-0.4-0.7-0.4-1.1h0
			c0,0.8-0.7,1.5-1.5,1.5c0,0,0,0,0,0c-0.8,0-1.5-0.7-1.5-1.5h0c0,0.4-0.1,0.8-0.4,1.1C9.2,14.8,8.9,15,8.5,15
			c-0.4,0-0.8-0.1-1.1-0.4l-2.7-2.7c-0.3,0.4-0.7,0.6-1.2,0.6c-0.2,0-0.3,0-0.5-0.1c0,0,0,0.1,0,0.1V19h17v-6.5c0,0,0-0.1,0-0.1
			C19.8,12.5,19.7,12.5,19.5,12.5z"/>
		<path d="M3.5,8C3.4,8,3.4,8,3.3,8c-0.1,0-0.1,0.1-0.2,0.1c0,0,0,0,0,0l0,0c0,0-0.1,0.1-0.1,0.2c0,0.1,0,0.1,0,0.2l0,0V11
			c0,0.3,0.2,0.5,0.5,0.5C3.8,11.5,4,11.3,4,11V9.7l4.1,4.1C8.2,13.9,8.3,14,8.5,14c0.1,0,0.3,0,0.4-0.1c0.2-0.2,0.2-0.5,0-0.7
			L4.7,9H6c0.3,0,0.5-0.2,0.5-0.5C6.5,8.2,6.3,8,6,8H3.5z"/>
		<path d="M20,8.3c0-0.1-0.1-0.1-0.1-0.2l0,0c0,0,0,0,0,0c0,0-0.1-0.1-0.2-0.1c-0.1,0-0.1,0-0.2,0c0,0,0,0,0,0H17
			c-0.3,0-0.5,0.2-0.5,0.5C16.5,8.8,16.7,9,17,9h1.3l-4.1,4.1c-0.2,0.2-0.2,0.5,0,0.7c0.1,0.1,0.2,0.1,0.4,0.1c0.1,0,0.3,0,0.4-0.1
			L19,9.7V11c0,0.3,0.2,0.5,0.5,0.5c0.3,0,0.5-0.2,0.5-0.5V8.5l0,0C20,8.4,20,8.4,20,8.3z"/>
		<path d="M11.5,14C11.5,14,11.5,14,11.5,14c0.3,0,0.5-0.2,0.5-0.5l0-4l1.2,0.9c0.1,0.1,0.2,0.1,0.3,0.1c0.2,0,0.3-0.1,0.4-0.2
			c0.2-0.2,0.1-0.5-0.1-0.7l-2-1.5c0,0,0,0,0,0C11.7,8.1,11.6,8,11.5,8l0,0c0,0,0,0,0,0l0,0c-0.1,0-0.2,0-0.3,0.1c0,0,0,0,0,0
			l-2,1.5C9,9.7,9,10.1,9.1,10.3c0.2,0.2,0.5,0.3,0.7,0.1L11,9.5l0,4C11,13.8,11.2,14,11.5,14z"/>
	</g>
</g>
<g id="Outline_Icons">
	<g>
		<line class="st2" x1="8.5" y1="23.5" x2="14.5" y2="23.5"/>
		<line class="st2" x1="11.5" y1="21.5" x2="11.5" y2="23.5"/>
		<line class="st3" x1="3.5" y1="19.5" x2="19.5" y2="19.5"/>
		<path class="st2" d="M19.5,13v7c0,0.8-0.7,1.5-1.5,1.5H5c-0.8,0-1.5-0.7-1.5-1.5v-7"/>
		<polyline class="st2" points="3.5,11 3.5,8.5 6,8.5 		"/>
		<circle class="st2" cx="3" cy="2" r="1.5"/>
		<path class="st2" d="M5.5,6.5h-5c0-1.7,1.1-3,2.5-3C4.4,3.5,5.5,4.8,5.5,6.5z"/>
		<circle class="st2" cx="20" cy="2" r="1.5"/>
		<path class="st2" d="M22.5,6.5h-5c0-1.7,1.1-3,2.5-3C21.4,3.5,22.5,4.8,22.5,6.5z"/>
		<circle class="st2" cx="11.5" cy="2" r="1.5"/>
		<path class="st2" d="M14,6.5H9c0-1.7,1.1-3,2.5-3C12.9,3.5,14,4.8,14,6.5z"/>
		<line class="st2" x1="3.5" y1="8.5" x2="8.5" y2="13.5"/>
		<polyline class="st2" points="19.5,11 19.5,8.5 17,8.5 		"/>
		<line class="st2" x1="19.5" y1="8.5" x2="14.5" y2="13.5"/>
		<line class="st2" x1="11.5" y1="13.5" x2="11.5" y2="8.5"/>
		<polyline class="st2" points="9.5,10 11.5,8.5 13.5,10 		"/>
	</g>
</g>
</svg>
