<?xml version="1.0" encoding="utf-8"?>
<!-- Generator: Adobe Illustrator 19.2.0, SVG Export Plug-In . SVG Version: 6.00 Build 0)  -->
<svg version="1.1" id="Layer_1" xmlns="http://www.w3.org/2000/svg" xmlns:xlink="http://www.w3.org/1999/xlink" x="0px" y="0px"
	 viewBox="0 0 24 24" style="enable-background:new 0 0 24 24;" xml:space="preserve">
<style type="text/css">
	.st0{display:none;}
	.st1{display:inline;}
	.st2{fill:none;stroke:#000000;stroke-linecap:round;stroke-linejoin:round;stroke-miterlimit:10;}
</style>
<g id="Filled_Icons" class="st0">
	<path class="st1" d="M12,0C5.4,0,0,5.4,0,12c0,6.6,5.4,12,12,12c6.6,0,12-5.4,12-12C24,5.4,18.6,0,12,0z M13.5,16H6.7l2.1,2.1
		c0.2,0.2,0.2,0.5,0,0.7C8.8,19,8.6,19,8.5,19c-0.1,0-0.3,0-0.4-0.1l-3-3c0,0-0.1-0.1-0.1-0.2C5,15.6,5,15.4,5,15.3
		c0-0.1,0.1-0.1,0.1-0.2l3-3c0.2-0.2,0.5-0.2,0.7,0c0.2,0.2,0.2,0.5,0,0.7L6.7,15h6.8c0.3,0,0.5,0.2,0.5,0.5
		C14,15.8,13.8,16,13.5,16z M19,8.7c0,0.1-0.1,0.1-0.1,0.2l-3,3C15.8,12,15.6,12,15.5,12c-0.1,0-0.3,0-0.4-0.1
		c-0.2-0.2-0.2-0.5,0-0.7L17.3,9h-6.8C10.2,9,10,8.8,10,8.5C10,8.2,10.2,8,10.5,8h6.8l-2.1-2.1c-0.2-0.2-0.2-0.5,0-0.7
		c0.2-0.2,0.5-0.2,0.7,0l3,3c0,0,0.1,0.1,0.1,0.2C19,8.4,19,8.6,19,8.7z"/>
</g>
<g id="Outline_Icons">
	<g>
		<line class="st2" x1="18.5" y1="8.5" x2="10.5" y2="8.5"/>
		<line class="st2" x1="13.5" y1="15.5" x2="5.5" y2="15.5"/>
		<polyline class="st2" points="15.5,11.5 18.5,8.5 15.5,5.5 		"/>
		<polyline class="st2" points="8.5,18.5 5.5,15.5 8.5,12.5 		"/>
		<circle class="st2" cx="12" cy="12" r="11.5"/>
	</g>
</g>
</svg>
