<?xml version="1.0" encoding="utf-8"?>
<!-- Generator: Adobe Illustrator 19.2.0, SVG Export Plug-In . SVG Version: 6.00 Build 0)  -->
<svg version="1.1" id="Layer_1" xmlns="http://www.w3.org/2000/svg" xmlns:xlink="http://www.w3.org/1999/xlink" x="0px" y="0px"
	 viewBox="0 0 24 24" style="enable-background:new 0 0 24 24;" xml:space="preserve">
<style type="text/css">
	.st0{display:none;}
	.st1{display:inline;}
	.st2{fill:none;stroke:#000000;stroke-linecap:round;stroke-linejoin:round;stroke-miterlimit:10;}
	.st3{fill:none;stroke:#000000;stroke-linejoin:round;stroke-miterlimit:10;}
</style>
<g id="Filled_Icons" class="st0">
	<g class="st1">
		<path d="M7,24h10V7h-1V5.5C16,4.1,14.9,3,13.5,3h-3C9.1,3,8,4.1,8,5.5V7H7V24z M9,5.5C9,4.7,9.7,4,10.5,4h3C14.3,4,15,4.7,15,5.5
			V7H9V5.5z"/>
		<path d="M3,7.1c-1.7,0.2-3,1.7-3,3.4v10c0,1.8,1.3,3.2,3,3.4V7.1z"/>
		<path d="M21,7.1V24c1.7-0.2,3-1.7,3-3.4v-10C24,8.7,22.7,7.3,21,7.1z"/>
	</g>
</g>
<g id="Outline_Icons">
	<g>
		<path class="st2" d="M23.5,10.5c0-1.6-1.3-3-3-3h-17c-1.6,0-3,1.4-3,3v10c0,1.7,1.4,3,3,3h17c1.7,0,3-1.3,3-3V10.5z"/>
		<path class="st2" d="M8.5,7.5v-2c0-1.1,0.9-2,2-2h3c1.1,0,2,0.9,2,2v2"/>
		<line class="st3" x1="19.5" y1="7.5" x2="19.5" y2="23.5"/>
		<line class="st3" x1="16.5" y1="7.5" x2="16.5" y2="23.5"/>
		<line class="st3" x1="7.5" y1="7.5" x2="7.5" y2="23.5"/>
		<line class="st3" x1="4.5" y1="7.5" x2="4.5" y2="23.5"/>
	</g>
</g>
</svg>
