<?xml version="1.0" encoding="utf-8"?>
<!-- Generator: Adobe Illustrator 19.2.0, SVG Export Plug-In . SVG Version: 6.00 Build 0)  -->
<svg version="1.1" id="Outline_Icons" xmlns="http://www.w3.org/2000/svg" xmlns:xlink="http://www.w3.org/1999/xlink" x="0px"
	 y="0px" viewBox="0 0 24 24" style="enable-background:new 0 0 24 24;" xml:space="preserve">
<style type="text/css">
	.st0{fill:none;stroke:#000000;stroke-linecap:round;stroke-linejoin:round;stroke-miterlimit:10;}
</style>
<g>
	<path class="st0" d="M18.5,8.5c0-1.1-0.9-2-2-2h-9c-1.1,0-2,0.9-2,2v12c0,1.1,0.9,2,2,2h9c1.1,0,2-0.9,2-2V8.5z"/>
	<line class="st0" x1="8.5" y1="22.5" x2="8.5" y2="23.5"/>
	<line class="st0" x1="15.5" y1="22.5" x2="15.5" y2="23.5"/>
	<line class="st0" x1="13.5" y1="6.5" x2="13.5" y2="0.5"/>
	<line class="st0" x1="10.5" y1="6.5" x2="10.5" y2="0.5"/>
	<line class="st0" x1="9" y1="0.5" x2="15" y2="0.5"/>
	<line class="st0" x1="8.5" y1="9.5" x2="15.5" y2="9.5"/>
	<line class="st0" x1="9.5" y1="9.5" x2="9.5" y2="10.5"/>
	<path class="st0" d="M15.5,18.5c0,0.6-0.4,1-1,1h-5c-0.6,0-1-0.4-1-1v-3h7V18.5z"/>
</g>
</svg>
