<?xml version="1.0" encoding="utf-8"?>
<!-- Generator: Adobe Illustrator 19.2.0, SVG Export Plug-In . SVG Version: 6.00 Build 0)  -->
<svg version="1.1" id="Outline_Icons" xmlns="http://www.w3.org/2000/svg" xmlns:xlink="http://www.w3.org/1999/xlink" x="0px"
	 y="0px" viewBox="0 0 24 24" style="enable-background:new 0 0 24 24;" xml:space="preserve">
<style type="text/css">
	.st0{fill:none;stroke:#000000;stroke-linecap:round;stroke-linejoin:round;stroke-miterlimit:10;}
</style>
<g>
	<g>
		<rect x="1.5" y="12.5" class="st0" width="20" height="11"/>
		<polygon class="st0" points="3.5,21.5 3.5,14.5 9.5,14.5 9.5,17.5 13.5,17.5 13.5,14.5 19.5,14.5 19.5,21.5 		"/>
		<line class="st0" x1="11.5" y1="14.5" x2="11.5" y2="15.5"/>
	</g>
	<path class="st0" d="M20,12.5c0-2.2-1.7-2.6-4-2.5c-0.5-2-2.4-2.5-4.5-2.5C9.4,7.5,7.5,8,7,10c-2.3-0.1-4,0.3-4,2.5"/>
	<line class="st0" x1="0.5" y1="10.5" x2="1.5" y2="10.5"/>
	<line class="st0" x1="4.5" y1="3" x2="5.5" y2="4"/>
	<line class="st0" x1="11.5" y1="1.5" x2="11.5" y2="3"/>
	<line class="st0" x1="18.5" y1="3" x2="17.5" y2="4"/>
	<line class="st0" x1="22.5" y1="10.5" x2="21.5" y2="10.5"/>
</g>
</svg>
