<?xml version="1.0" encoding="utf-8"?>
<!-- Generator: Adobe Illustrator 19.2.0, SVG Export Plug-In . SVG Version: 6.00 Build 0)  -->
<svg version="1.1" id="Outline_Icons" xmlns="http://www.w3.org/2000/svg" xmlns:xlink="http://www.w3.org/1999/xlink" x="0px"
	 y="0px" viewBox="0 0 24 24" style="enable-background:new 0 0 24 24;" xml:space="preserve">
<style type="text/css">
	.st0{fill:none;stroke:#000000;stroke-linecap:round;stroke-linejoin:round;stroke-miterlimit:10;}
</style>
<g>
	<rect x="1.5" y="9.5" class="st0" width="20" height="11"/>
	<polygon class="st0" points="3.5,18.5 3.5,11.5 9.5,11.5 9.5,14.5 13.5,14.5 13.5,11.5 19.5,11.5 19.5,18.5 	"/>
	<line class="st0" x1="11.5" y1="11.5" x2="11.5" y2="12.5"/>
	<path class="st0" d="M21.5,7.5c0-2.2-1.8-4-4-4h-12c-2.2,0-4,1.8-4,4v2h20V7.5L21.5,7.5z"/>
	<path class="st0" d="M9.5,3.5c-3,0-3,4-3,4v2"/>
	<path class="st0" d="M13.5,3.5c3,0,3,4,3,4v2"/>
</g>
</svg>
