<?xml version="1.0" encoding="utf-8"?>
<!-- Generator: Adobe Illustrator 19.2.0, SVG Export Plug-In . SVG Version: 6.00 Build 0)  -->
<svg version="1.1" id="Layer_1" xmlns="http://www.w3.org/2000/svg" xmlns:xlink="http://www.w3.org/1999/xlink" x="0px" y="0px"
	 viewBox="0 0 24 24" style="enable-background:new 0 0 24 24;" xml:space="preserve">
<style type="text/css">
	.st0{display:none;}
	.st1{display:inline;}
	.st2{fill:none;stroke:#000000;stroke-linejoin:round;stroke-miterlimit:10;}
	.st3{fill:none;stroke:#000000;stroke-linecap:round;stroke-linejoin:round;stroke-miterlimit:10;}
</style>
<g id="Filled_Icons" class="st0">
	<path class="st1" d="M19.4,18.2L15.5,13h2c0.2,0,0.4-0.1,0.4-0.3c0.1-0.2,0.1-0.4,0-0.5L14.4,7h1.1c0.2,0,0.4-0.1,0.4-0.3
		c0.1-0.2,0.1-0.4,0-0.5l-4-6c-0.2-0.3-0.6-0.3-0.8,0l-4,6C7,6.4,7,6.6,7.1,6.7C7.1,6.9,7.3,7,7.5,7h1.1l-3.5,5.2
		c-0.1,0.2-0.1,0.4,0,0.5c0,0.2,0.2,0.3,0.4,0.3h2l-3.9,5.2c-0.1,0.2-0.1,0.4,0,0.5C3.6,18.9,3.8,19,4,19h7v4.5
		c0,0.3,0.2,0.5,0.5,0.5s0.5-0.2,0.5-0.5V19h7c0.2,0,0.4-0.1,0.4-0.3C19.5,18.6,19.5,18.4,19.4,18.2z"/>
</g>
<g id="Outline_Icons">
	<g>
		<polygon class="st2" points="17.5,12.5 13.5,6.5 15.5,6.5 11.5,0.5 7.5,6.5 9.5,6.5 5.5,12.5 8.5,12.5 4,18.5 19,18.5 14.5,12.5 
					"/>
		<line class="st3" x1="11.5" y1="18.5" x2="11.5" y2="23.5"/>
	</g>
</g>
</svg>
