<?xml version="1.0" encoding="utf-8"?>
<!-- Generator: Adobe Illustrator 19.2.0, SVG Export Plug-In . SVG Version: 6.00 Build 0)  -->
<svg version="1.1" id="Layer_1" xmlns="http://www.w3.org/2000/svg" xmlns:xlink="http://www.w3.org/1999/xlink" x="0px" y="0px"
	 viewBox="0 0 24 24" style="enable-background:new 0 0 24 24;" xml:space="preserve">
<style type="text/css">
	.st0{display:none;}
	.st1{display:inline;}
	.st2{fill:none;stroke:#000000;stroke-linecap:round;stroke-linejoin:round;stroke-miterlimit:10;}
	.st3{fill:none;stroke:#000000;stroke-linejoin:round;stroke-miterlimit:10;}
</style>
<g id="Filled_Icons" class="st0">
	<path class="st1" d="M19.5,5c-0.3,0-0.5,0-0.8,0.1C17.9,2.1,15.1,0,12,0C9.7,0,7.5,1.1,6.2,3.1C2.9,2.6,0,5.2,0,8.5
		c0,3,2.5,5.5,5.5,5.5c1.1,0,2.1-0.3,3-0.9c0.8,0.4,1.6,0.7,2.5,0.8v9.6c0,0.3,0.2,0.5,0.5,0.5s0.5-0.2,0.5-0.5v-3.3l2-2
		c0.3,0.2,0.6,0.3,1,0.3c1.1,0,2-0.9,2-2s-0.9-2-2-2s-2,0.9-2,2c0,0.4,0.1,0.7,0.3,1L12,18.8V14c1.5,0,3-0.5,4.2-1.4
		c0.8,0.9,2,1.4,3.3,1.4C22,14,24,12,24,9.5S22,5,19.5,5z"/>
</g>
<g id="Outline_Icons">
	<g>
		<line class="st2" x1="11.5" y1="13.5" x2="11.5" y2="23.5"/>
		<path class="st2" d="M19.5,5.5c-0.4,0-0.8,0.1-1.1,0.2c-0.6-3-3.2-5.2-6.4-5.2c-2.3,0-4.4,1.2-5.5,3.1c-0.3-0.1-0.6-0.1-1-0.1
			c-2.8,0-5,2.2-5,5s2.2,5,5,5c1.1,0,2.2-0.4,3-1c1,0.6,2.2,1,3.5,1c1.6,0,3.1-0.6,4.3-1.6c0.7,1,1.9,1.6,3.2,1.6c2.2,0,4-1.8,4-4
			S21.7,5.5,19.5,5.5z"/>
		<line class="st3" x1="11.5" y1="20" x2="13.9" y2="17.6"/>
		<circle class="st2" cx="15" cy="16.5" r="1.5"/>
	</g>
</g>
</svg>
