<?xml version="1.0" encoding="utf-8"?>
<!-- Generator: Adobe Illustrator 19.2.0, SVG Export Plug-In . SVG Version: 6.00 Build 0)  -->
<svg version="1.1" id="Layer_1" xmlns="http://www.w3.org/2000/svg" xmlns:xlink="http://www.w3.org/1999/xlink" x="0px" y="0px"
	 viewBox="0 0 24 24" style="enable-background:new 0 0 24 24;" xml:space="preserve">
<style type="text/css">
	.st0{display:none;}
	.st1{display:inline;}
	.st2{fill:none;stroke:#000000;stroke-linejoin:round;stroke-miterlimit:10;}
</style>
<g id="Filled_Icons" class="st0">
	<g class="st1">
		<path d="M16.5,5c-0.2-2-1.3-5-5-5c-3.6,0-4.8,3-5,5c-3.5,0.2-5,2.6-5,5c0,2.8,2.1,4.5,5.5,4.5h9c3.4,0,5.5-1.7,5.5-4.5
			C21.5,7,19.6,5.2,16.5,5z"/>
		<path d="M12.5,17.5c0.3,0,0.5-0.2,0.5-0.5v-1.5c0-0.3-0.2-0.5-0.5-0.5h-2c-0.3,0-0.5,0.2-0.5,0.5V17c0,0.3,0.2,0.5,0.5,0.5H12.5z"
			/>
		<path d="M16,18H7c-0.2,0-0.3,0.1-0.4,0.2s-0.1,0.3-0.1,0.5l2,5C8.6,23.9,8.8,24,9,24h5c0.2,0,0.4-0.1,0.5-0.3l2-5
			c0.1-0.2,0-0.3,0-0.5C16.3,18.1,16.2,18,16,18z"/>
	</g>
</g>
<g id="Outline_Icons">
	<g>
		<path class="st2" d="M7,14.5c-3.5,0-5-2.2-5-4.5s1.5-4.5,5-4.5c0,0,0-5,4.5-5s4.5,5,4.5,5c3.5,0,5,2,5,4.5c0,2.3-1.5,4.5-5,4.5H7z
			"/>
		<line class="st2" x1="10.5" y1="17.5" x2="10.5" y2="14.5"/>
		<line class="st2" x1="12.5" y1="17.5" x2="12.5" y2="14.5"/>
		<polygon class="st2" points="14,23.5 9,23.5 7,17.5 16,17.5 		"/>
	</g>
</g>
</svg>
