<?xml version="1.0" encoding="utf-8"?>
<!-- Generator: Adobe Illustrator 19.2.0, SVG Export Plug-In . SVG Version: 6.00 Build 0)  -->
<svg version="1.1" id="Layer_1" xmlns="http://www.w3.org/2000/svg" xmlns:xlink="http://www.w3.org/1999/xlink" x="0px" y="0px"
	 viewBox="0 0 24 24" style="enable-background:new 0 0 24 24;" xml:space="preserve">
<style type="text/css">
	.st0{display:none;}
	.st1{display:inline;}
	.st2{fill:none;stroke:#000000;stroke-linecap:round;stroke-linejoin:round;stroke-miterlimit:10;}
</style>
<g id="Filled_Icons" class="st0">
	<path class="st1" d="M23.5,11.5c0-0.6-0.4-1-1-1c-0.6,0-1,0.4-1,1v3.3l-5.8-6.5c-0.4-0.4-1-0.5-1.4-0.1l-5.3,4.4L1.7,4.3
		c-0.4-0.4-1-0.4-1.4-0.1c-0.4,0.4-0.4,1-0.1,1.4l8,9c0.4,0.4,1,0.4,1.4,0.1l5.3-4.4l5.4,6.1h-4.7c-0.6,0-1,0.4-1,1c0,0.6,0.4,1,1,1
		h6.9c0.5,0,1-0.5,1-1c0,0,0,0,0,0V11.5z"/>
</g>
<g id="Outline_Icons">
	<g>
		<polyline class="st2" points="1,5 9,14 15,9 22.5,17.5 		"/>
		<polyline class="st2" points="15.6,17.5 22.5,17.5 22.5,11.5 		"/>
	</g>
</g>
</svg>
