<?xml version="1.0" encoding="utf-8"?>
<!-- Generator: Adobe Illustrator 19.2.0, SVG Export Plug-In . SVG Version: 6.00 Build 0)  -->
<svg version="1.1" id="Layer_1" xmlns="http://www.w3.org/2000/svg" xmlns:xlink="http://www.w3.org/1999/xlink" x="0px" y="0px"
	 viewBox="0 0 24 24" style="enable-background:new 0 0 24 24;" xml:space="preserve">
<style type="text/css">
	.st0{display:none;}
	.st1{display:inline;}
	.st2{fill:none;stroke:#000000;stroke-linecap:round;stroke-linejoin:round;stroke-miterlimit:10;}
</style>
<g id="Filled_Icons" class="st0">
	<path class="st1" d="M23.5,6.5c0-0.6-0.5-1-1-1h-6.9c-0.6,0-1,0.4-1,1c0,0.6,0.4,1,1,1h4.7l-5.4,6.1L9.6,9.2
		c-0.4-0.3-1-0.3-1.4,0.1l-8,9c-0.4,0.4-0.3,1,0.1,1.4C0.5,19.9,0.8,20,1,20c0.3,0,0.5-0.1,0.7-0.3l7.4-8.3l5.3,4.4
		c0.4,0.3,1,0.3,1.4-0.1l5.8-6.5v3.3c0,0.6,0.4,1,1,1c0.6,0,1-0.4,1-1L23.5,6.5C23.5,6.5,23.5,6.5,23.5,6.5z"/>
</g>
<g id="Outline_Icons">
	<g>
		<polyline class="st2" points="1,19 9,10 15,15 22.5,6.5 		"/>
		<polyline class="st2" points="15.6,6.5 22.5,6.5 22.5,12.5 		"/>
	</g>
</g>
</svg>
