<?xml version="1.0" encoding="utf-8"?>
<!-- Generator: Adobe Illustrator 19.2.0, SVG Export Plug-In . SVG Version: 6.00 Build 0)  -->
<svg version="1.1" id="Layer_1" xmlns="http://www.w3.org/2000/svg" xmlns:xlink="http://www.w3.org/1999/xlink" x="0px" y="0px"
	 viewBox="0 0 24 24" style="enable-background:new 0 0 24 24;" xml:space="preserve">
<style type="text/css">
	.st0{display:none;}
	.st1{display:inline;}
	.st2{fill:none;stroke:#000000;stroke-linecap:round;stroke-linejoin:round;stroke-miterlimit:10;}
</style>
<g id="Filled_Icons" class="st0">
	<g class="st1">
		<g>
			<polygon points="12.7,17.5 12.6,17.6 15.6,21.5 17.4,21.5 14.3,17.5 			"/>
			<path d="M21.6,21.5H22c0.3,0,0.5-0.2,0.5-0.5v-3c0-0.3-0.2-0.5-0.5-0.5h-3.4L21.6,21.5z"/>
			<polygon points="15.6,17.5 18.6,21.5 20.4,21.5 17.3,17.5 			"/>
			<polygon points="11.3,17.5 9.7,17.5 6.6,21.5 8.4,21.5 11.4,17.6 			"/>
			<polygon points="6.7,17.5 3.6,21.5 5.4,21.5 8.4,17.5 			"/>
			<path d="M2,21.5h0.4l3-4H2c-0.3,0-0.5,0.2-0.5,0.5v3C1.5,21.3,1.7,21.5,2,21.5z"/>
			<polygon points="12,18.4 9.6,21.5 14.4,21.5 			"/>
		</g>
		<g>
			<path d="M3.5,22.5v1C3.5,23.8,3.7,24,4,24h3c0.3,0,0.5-0.2,0.5-0.5v-1H3.5z"/>
		</g>
		<g>
			<path d="M16.5,22.5v1c0,0.3,0.2,0.5,0.5,0.5h3c0.3,0,0.5-0.2,0.5-0.5v-1H16.5z"/>
		</g>
		<g>
			<path d="M7.5,2V1c0-0.3-0.2-0.5-0.5-0.5H4C3.7,0.5,3.5,0.7,3.5,1v1H7.5z"/>
		</g>
		<g>
			<path d="M15.5,2V0.5C15.5,0.2,15.3,0,15,0H9C8.7,0,8.5,0.2,8.5,0.5V2H15.5z"/>
		</g>
		<g>
			<path d="M20.5,2V1c0-0.3-0.2-0.5-0.5-0.5h-3c-0.3,0-0.5,0.2-0.5,0.5v1H20.5z"/>
		</g>
		<g>
			<path d="M1.5,5h-1C0.2,5,0,5.2,0,5.5v4C0,9.8,0.2,10,0.5,10h1V5z"/>
		</g>
		<g>
			<path d="M23.5,5h-1v5h1c0.3,0,0.5-0.2,0.5-0.5v-4C24,5.2,23.8,5,23.5,5z"/>
		</g>
		<path d="M21,3h-8.5h-1H3C2.7,3,2.5,3.2,2.5,3.5v7v1v5h19v-5v-1v-7C21.5,3.2,21.3,3,21,3z M3.5,10V4.5C3.5,4.2,3.7,4,4,4h7
			c0.3,0,0.5,0.2,0.5,0.5V10c0,0.3-0.2,0.5-0.5,0.5H4C3.7,10.5,3.5,10.3,3.5,10z M6.5,15.5C5.7,15.5,5,14.8,5,14
			c0-0.8,0.7-1.5,1.5-1.5S8,13.2,8,14C8,14.8,7.3,15.5,6.5,15.5z M14.5,15.5h-5C9.2,15.5,9,15.3,9,15s0.2-0.5,0.5-0.5h5
			c0.3,0,0.5,0.2,0.5,0.5C15,15.3,14.8,15.5,14.5,15.5z M14.5,13.5h-5C9.2,13.5,9,13.3,9,13s0.2-0.5,0.5-0.5h5
			c0.3,0,0.5,0.2,0.5,0.5C15,13.3,14.8,13.5,14.5,13.5z M17.5,15.5c-0.8,0-1.5-0.7-1.5-1.5c0-0.8,0.7-1.5,1.5-1.5S19,13.2,19,14
			C19,14.8,18.3,15.5,17.5,15.5z M20.5,10c0,0.3-0.2,0.5-0.5,0.5h-7c-0.3,0-0.5-0.2-0.5-0.5V4.5C12.5,4.2,12.7,4,13,4h7
			c0.3,0,0.5,0.2,0.5,0.5V10z"/>
	</g>
</g>
<g id="Outline_Icons">
	<g>
		<rect x="3.5" y="21.5" class="st2" width="3" height="2"/>
		<rect x="16.5" y="21.5" class="st2" width="3" height="2"/>
		<rect x="20.5" y="5.5" class="st2" width="2" height="4"/>
		<rect x="1.5" y="17.5" class="st2" width="20" height="4"/>
		<polygon class="st2" points="2.5,3.5 20.5,3.5 20.5,12 20.5,17.5 2.5,17.5 2.5,12 		"/>
		<rect x="3.5" y="1.5" class="st2" width="3" height="2"/>
		<rect x="16.5" y="1.5" class="st2" width="3" height="2"/>
		<line class="st2" x1="2.5" y1="11.5" x2="20.5" y2="11.5"/>
		<circle class="st2" cx="6" cy="15" r="1"/>
		<circle class="st2" cx="17" cy="15" r="1"/>
		<line class="st2" x1="11.5" y1="3.5" x2="11.5" y2="11.5"/>
		<line class="st2" x1="2.5" y1="21.5" x2="5.5" y2="17.6"/>
		<line class="st2" x1="5.5" y1="21.5" x2="8.5" y2="17.6"/>
		<line class="st2" x1="8.5" y1="21.5" x2="11.5" y2="17.6"/>
		<line class="st2" x1="20.5" y1="21.5" x2="17.5" y2="17.6"/>
		<line class="st2" x1="17.5" y1="21.5" x2="14.5" y2="17.6"/>
		<line class="st2" x1="14.5" y1="21.5" x2="11.5" y2="17.6"/>
		<line class="st2" x1="9" y1="13.5" x2="14" y2="13.5"/>
		<line class="st2" x1="9" y1="15.5" x2="14" y2="15.5"/>
		<rect x="0.5" y="5.5" class="st2" width="2" height="4"/>
		<rect x="8.5" y="0.5" class="st2" width="6" height="3"/>
	</g>
</g>
</svg>
