<?xml version="1.0" encoding="utf-8"?>
<!-- Generator: Adobe Illustrator 19.2.0, SVG Export Plug-In . SVG Version: 6.00 Build 0)  -->
<svg version="1.1" id="Layer_1" xmlns="http://www.w3.org/2000/svg" xmlns:xlink="http://www.w3.org/1999/xlink" x="0px" y="0px"
	 viewBox="0 0 24 24" style="enable-background:new 0 0 24 24;" xml:space="preserve">
<style type="text/css">
	.st0{display:none;}
	.st1{display:inline;}
	.st2{fill:none;stroke:#000000;stroke-linecap:round;stroke-linejoin:round;stroke-miterlimit:10;}
</style>
<g id="Filled_Icons" class="st0">
	<g class="st1">
		<g>
			<path d="M4.1,6.1C4.3,5.4,4.8,5,5.5,5h14c0.7,0,1.2,0.4,1.4,1.1L22,9.6v-6C22,3.2,21.8,3,21.5,3h-18C3.2,3,3,3.2,3,3.5v6.1
				L4.1,6.1z"/>
		</g>
		<g>
			<g>
				<path d="M16,2h3.6c-0.6-1.2-1.8-2-3.1-2H16V2z"/>
			</g>
			<g>
				<path d="M9,2V0H8.5C7.1,0,5.9,0.8,5.4,2H9z"/>
			</g>
			<g>
				<rect x="10" y="0" width="5" height="2"/>
			</g>
		</g>
		<path d="M4,15c2,0,3.1,1,3.1,3H8v-2.5C8,15.2,8.2,15,8.5,15h8c0.3,0,0.5,0.2,0.5,0.5V18h1c0-1.7,1.3-3,3-3v3h1v-5c0,0,0-0.1,0-0.1
			l-2-6.5C19.9,6.2,19.7,6,19.5,6h-14C5.3,6,5.1,6.2,5,6.4l-2,6.5c0,0,0,0.1,0,0.1v5h1V15z M5.9,7h13.3l1.8,6H4L5.9,7z"/>
		<path d="M2.5,21h20.2c0.2-0.3,0.3-0.6,0.3-1c0-0.4-0.1-0.7-0.3-1H2.5c-0.1,0-0.1,0-0.2,0C2.1,19.3,2,19.6,2,20
			c0,0.4,0.1,0.7,0.3,1C2.4,21,2.4,21,2.5,21z"/>
		<path d="M4,22v1.5C4,23.8,4.2,24,4.5,24h3C7.8,24,8,23.8,8,23.5V22H4z"/>
		<path d="M17,22v1.5c0,0.3,0.2,0.5,0.5,0.5h3c0.3,0,0.5-0.2,0.5-0.5V22H17z"/>
	</g>
</g>
<g id="Outline_Icons">
	<g>
		<rect x="4.5" y="21.5" class="st2" width="3" height="2"/>
		<rect x="17.5" y="21.5" class="st2" width="3" height="2"/>
		<path class="st2" d="M2.5,20c0,0.8,0.7,1.5,1.5,1.5h17c0.8,0,1.5-0.7,1.5-1.5s-0.7-1.5-1.5-1.5H4C3.2,18.5,2.5,19.2,2.5,20z"/>
		<polygon class="st2" points="19.5,6.5 5.5,6.5 3.5,13.1 3.5,18.5 21.5,18.5 21.5,13 		"/>
		<line class="st2" x1="4" y1="13.5" x2="21" y2="13.5"/>
		<rect x="8.5" y="15.5" class="st2" width="8" height="3"/>
		<rect x="3.5" y="3.5" class="st2" width="18" height="10"/>
		<path class="st2" d="M21.5,15.5c-1.7,0-3,1.3-3,3h3V15.5z"/>
		<path class="st2" d="M3.5,15.5c2,0,3.1,1,3.1,3H3.5V15.5z"/>
		<path class="st2" d="M19.5,3.5c0-1.7-1.3-3-3-3h-8c-1.7,0-3,1.3-3,3H19.5z"/>
		<line class="st2" x1="9.5" y1="0.5" x2="9.5" y2="3.5"/>
		<line class="st2" x1="15.5" y1="0.5" x2="15.5" y2="3.5"/>
	</g>
</g>
</svg>
