<?xml version="1.0" encoding="utf-8"?>
<!-- Generator: Adobe Illustrator 19.2.0, SVG Export Plug-In . SVG Version: 6.00 Build 0)  -->
<svg version="1.1" id="Layer_1" xmlns="http://www.w3.org/2000/svg" xmlns:xlink="http://www.w3.org/1999/xlink" x="0px" y="0px"
	 viewBox="0 0 24 24" style="enable-background:new 0 0 24 24;" xml:space="preserve">
<style type="text/css">
	.st0{display:none;}
	.st1{display:inline;}
	.st2{fill:none;stroke:#000000;stroke-linecap:round;stroke-linejoin:round;stroke-miterlimit:10;}
</style>
<g id="Filled_Icons" class="st0">
	<g class="st1">
		<polygon points="19.4,12.8 15.7,6 13.8,6 17.8,13.4 		"/>
		<path d="M23.6,11.4l-2.7-5.1C20.9,6.1,20.7,6,20.5,6h-3.7l3.6,6.5L23.6,11.4z"/>
		<path d="M9.9,17H8.1c0.2,0.5,0.4,1,0.4,1.5c0,0.2,0,0.3-0.1,0.5h7.1c0-0.2-0.1-0.3-0.1-0.5c0-1.9,1.6-3.5,3.5-3.5
			c1,0,1.9,0.4,2.6,1.2l2.1-3.7C23.6,12.5,10.1,17,9.9,17z"/>
		<path d="M5,15c0.9,0,1.8,0.4,2.4,1h2.4l2.7-0.9L9,7.3C8.9,7.1,8.7,7,8.5,7H5C4.8,7,4.7,7.1,4.6,7.3l-2.5,4.4l-2,1.9
			C0.1,13.7,0,13.9,0,14v2h2.6C3.2,15.4,4.1,15,5,15z M4.1,12.3l1.5-3C5.6,9.1,5.8,9,6,9h1.5C7.8,9,8,9.2,8,9.5v3
			C8,12.8,7.8,13,7.5,13h-3c-0.2,0-0.3-0.1-0.4-0.2C4,12.6,4,12.4,4.1,12.3z"/>
		<path d="M0,17v1.5C0,18.8,0.2,19,0.5,19h1.1c0-0.2-0.1-0.3-0.1-0.5c0-0.5,0.1-1,0.4-1.5H0z"/>
		<path d="M6.5,6h2.4l1.3,0.8l4.1,7.7l2.6-0.9L12.7,6h-2L9.3,5.1C9.2,5,9.1,5,9,5H6.5C6.2,5,6,5.2,6,5.5S6.2,6,6.5,6z"/>
		<path d="M5,16c-1.4,0-2.5,1.1-2.5,2.5S3.6,21,5,21s2.5-1.1,2.5-2.5S6.4,16,5,16z"/>
		<path d="M19,16c-1.4,0-2.5,1.1-2.5,2.5S17.6,21,19,21s2.5-1.1,2.5-2.5S20.4,16,19,16z"/>
	</g>
</g>
<g id="Outline_Icons">
	<g>
		<circle class="st2" cx="5" cy="18.5" r="2"/>
		<circle class="st2" cx="19" cy="18.5" r="2"/>
		<line class="st2" x1="7" y1="18.5" x2="17" y2="18.5"/>
		<polyline class="st2" points="7.5,9.5 6,9.5 4.5,12.5 		"/>
		<polyline class="st2" points="3,18.5 0.5,18.5 0.5,14 2.5,12 5,7.5 8.5,7.5 12.3,15.7 		"/>
		<polyline class="st2" points="0.5,16.5 9.9,16.5 23.4,12 		"/>
		<polyline class="st2" points="20.4,17.1 23.4,12 20.5,6.5 10.5,6.5 9,5.5 6.5,5.5 		"/>
		<line class="st2" x1="14.9" y1="14.8" x2="10.5" y2="6.5"/>
		<line class="st2" x1="17.5" y1="14" x2="13.5" y2="6.5"/>
		<line class="st2" x1="20.1" y1="13.1" x2="16.5" y2="6.5"/>
	</g>
</g>
</svg>
