<?xml version="1.0" encoding="utf-8"?>
<!-- Generator: Adobe Illustrator 19.2.0, SVG Export Plug-In . SVG Version: 6.00 Build 0)  -->
<svg version="1.1" id="Layer_1" xmlns="http://www.w3.org/2000/svg" xmlns:xlink="http://www.w3.org/1999/xlink" x="0px" y="0px"
	 viewBox="0 0 24 24" style="enable-background:new 0 0 24 24;" xml:space="preserve">
<style type="text/css">
	.st0{display:none;}
	.st1{display:inline;}
	.st2{fill:none;stroke:#000000;stroke-linecap:round;stroke-linejoin:round;stroke-miterlimit:10;}
</style>
<g id="Filled_Icons" class="st0">
	<g class="st1">
		<g>
			<path d="M19,18c-1.4,0-2.5,1.1-2.5,2.5S17.6,23,19,23s2.5-1.1,2.5-2.5S20.4,18,19,18z"/>
			<path d="M5,18c-1.4,0-2.5,1.1-2.5,2.5S3.6,23,5,23s2.5-1.1,2.5-2.5S6.4,18,5,18z"/>
		</g>
		<g>
			<path d="M22.3,13.7c1.2-2.7,1.5-6.5,1.5-6.7c0-0.1,0-0.3-0.1-0.4l-2.1-2.1c-0.1-0.1-0.2-0.2-0.4-0.1c-0.2,0-4,0.3-6.7,1.5
				L22.3,13.7z"/>
			<path d="M15.4,18H11v3h4.6c0-0.2-0.1-0.3-0.1-0.5c0-1.9,1.6-3.6,3.7-3.5c0.6-0.4,1.3-0.9,2-1.6c0.2-0.2,0.5-0.5,0.7-0.8l-8.3-8.3
				c-0.3,0.2-0.6,0.4-0.8,0.7c-4.1,4.1-2.6,7.3-0.7,9.2C13,17.2,14.2,17.8,15.4,18z"/>
			<path d="M23.5,18h-2.1c0.3,0.3,0.5,0.6,0.7,1h1.4c0.3,0,0.5-0.2,0.5-0.5S23.8,18,23.5,18z"/>
			<path d="M1.5,20.5C1.5,18.6,3.1,17,5,17s3.5,1.6,3.5,3.5c0,0.2,0,0.3-0.1,0.5H10V9.5C10,9.2,9.8,9,9.5,9H5C4.8,9,4.7,9.1,4.6,9.3
				l-2.5,4.4l-2,1.9C0.1,15.7,0,15.9,0,16v4.5C0,20.8,0.2,21,0.5,21h1.1C1.5,20.8,1.5,20.7,1.5,20.5z M4.1,14.3l1.5-3
				C5.6,11.1,5.8,11,6,11h1.5C7.8,11,8,11.2,8,11.5v3C8,14.8,7.8,15,7.5,15h-3c-0.2,0-0.3-0.1-0.4-0.2C4,14.6,4,14.4,4.1,14.3z"/>
		</g>
	</g>
</g>
<g id="Outline_Icons">
	<g>
		<circle class="st2" cx="5" cy="20.5" r="2"/>
		<circle class="st2" cx="19" cy="20.5" r="2"/>
		<line class="st2" x1="7" y1="20.5" x2="17" y2="20.5"/>
		<polyline class="st2" points="7.5,11.5 6,11.5 4.5,14.5 		"/>
		<polyline class="st2" points="3,20.5 0.5,20.5 0.5,16 2.5,14 5,9.5 9.5,9.5 9.5,18.5 		"/>
		<line class="st2" x1="0.5" y1="18.5" x2="23.5" y2="18.5"/>
		<path class="st2" d="M20.8,15.1c-3.5,3.5-6.3,2.9-8.5,0.7S9.5,10.8,13,7.3c2.1-2.1,8.1-2.5,8.1-2.5l2.1,2.1
			C23.2,6.9,22.9,12.9,20.8,15.1z"/>
		<line class="st2" x1="14.4" y1="6.5" x2="21.6" y2="13.7"/>
	</g>
</g>
</svg>
