<?xml version="1.0" encoding="utf-8"?>
<!-- Generator: Adobe Illustrator 19.2.0, SVG Export Plug-In . SVG Version: 6.00 Build 0)  -->
<svg version="1.1" id="Layer_1" xmlns="http://www.w3.org/2000/svg" xmlns:xlink="http://www.w3.org/1999/xlink" x="0px" y="0px"
	 viewBox="0 0 24 24" style="enable-background:new 0 0 24 24;" xml:space="preserve">
<style type="text/css">
	.st0{display:none;}
	.st1{display:inline;}
	.st2{fill:none;stroke:#000000;stroke-linecap:round;stroke-linejoin:round;stroke-miterlimit:10;}
</style>
<g id="Filled_Icons" class="st0">
	<g class="st1">
		<path d="M5,19c-1.4,0-2.5,1.1-2.5,2.5S3.6,24,5,24s2.5-1.1,2.5-2.5S6.4,19,5,19z"/>
		<path d="M19,19c-1.4,0-2.5,1.1-2.5,2.5S17.6,24,19,24s2.5-1.1,2.5-2.5S20.4,19,19,19z"/>
		<path d="M8.1,20c0.2,0.5,0.4,1,0.4,1.5c0,0.2,0,0.3-0.1,0.5h7.1c0-0.2-0.1-0.3-0.1-0.5c0-0.5,0.1-1,0.4-1.5H8.1z"/>
		<path d="M22.1,20c0.2,0.5,0.4,1,0.4,1.5c0,0.2,0,0.3-0.1,0.5h1.1c0.3,0,0.5-0.2,0.5-0.5V20H22.1z"/>
		<path d="M19,18c1,0,1.8,0.4,2.4,1H24v-2.5c0-0.3-0.2-0.5-0.5-0.5H17h-0.8H11v3h5.6C17.2,18.4,18,18,19,18z"/>
		<path d="M21,3.3v6.3c-1.1,0.3-2,1.3-2,2.6c0,1.4,1.1,2.6,2.5,2.6c1.5,0,2.5-0.9,2.5-2.2c0-0.3-0.2-0.5-0.5-0.5S23,12.2,23,12.5
			c0,0.9-0.8,1.2-1.5,1.2c-0.8,0-1.5-0.8-1.5-1.6s0.7-1.6,1.5-1.6c0.3,0,0.5-0.2,0.5-0.5V0.5l0,0c0-0.1,0-0.1,0-0.2c0,0,0,0,0-0.1
			c0,0,0-0.1-0.1-0.1c0,0,0,0-0.1-0.1c0,0,0,0-0.1,0c0,0,0,0,0,0c0,0,0,0-0.1,0c0,0-0.1,0-0.1,0c0,0,0,0,0,0c0,0,0,0,0,0
			c0,0-0.1,0-0.1,0c0,0,0,0-0.1,0c0,0-0.1,0-0.1,0.1c0,0,0,0-0.1,0.1c0,0,0,0,0,0L11,13.7V15h5.6L21,3.3z"/>
		<path d="M5,18c0.9,0,1.8,0.4,2.4,1H10v-4V9.5C10,9.2,9.8,9,9.5,9H5C4.8,9,4.7,9.1,4.6,9.3l-2.5,4.4l-2,1.9C0.1,15.7,0,15.9,0,16v3
			h2.6C3.2,18.4,4.1,18,5,18z M4.1,13.8l1.5-3c0.1-0.2,0.3-0.3,0.4-0.3h1.5C7.8,10.5,8,10.7,8,11v3c0,0.3-0.2,0.5-0.5,0.5h-3
			c-0.2,0-0.3-0.1-0.4-0.2C4,14.1,4,13.9,4.1,13.8z"/>
		<path d="M0,20v1.5C0,21.8,0.2,22,0.5,22h1.1c0-0.2-0.1-0.3-0.1-0.5c0-0.5,0.1-1,0.4-1.5H0z"/>
	</g>
</g>
<g id="Outline_Icons">
	<g>
		<circle class="st2" cx="5" cy="21.5" r="2"/>
		<circle class="st2" cx="19" cy="21.5" r="2"/>
		<line class="st2" x1="7" y1="21.5" x2="17" y2="21.5"/>
		<polyline class="st2" points="7.5,11.5 6,11.5 4.5,14.5 		"/>
		<polyline class="st2" points="3,21.5 0.5,21.5 0.5,16 2.5,14 5,9.5 9.5,9.5 9.5,19.5 		"/>
		<polyline class="st2" points="0.5,19.5 23.5,19.5 23.5,21.5 21,21.5 		"/>
		<rect x="9.5" y="16.5" class="st2" width="14" height="3"/>
		<polygon class="st2" points="21.5,0.5 9.5,16.5 15.5,16.5 		"/>
		<path class="st2" d="M23.5,12.5c0,1.1-0.9,1.8-2,1.8c-1.1,0-2-1-2-2.1s0.9-2.1,2-2.1V0.5"/>
	</g>
</g>
</svg>
