<?xml version="1.0" encoding="utf-8"?>
<!-- Generator: Adobe Illustrator 19.2.0, SVG Export Plug-In . SVG Version: 6.00 Build 0)  -->
<svg version="1.1" id="Layer_1" xmlns="http://www.w3.org/2000/svg" xmlns:xlink="http://www.w3.org/1999/xlink" x="0px" y="0px"
	 viewBox="0 0 24 24" style="enable-background:new 0 0 24 24;" xml:space="preserve">
<style type="text/css">
	.st0{display:none;}
	.st1{display:inline;}
	.st2{fill:none;stroke:#000000;stroke-linecap:round;stroke-linejoin:round;stroke-miterlimit:10;}
	.st3{fill:none;stroke:#000000;stroke-linejoin:round;stroke-miterlimit:10;}
</style>
<g id="Filled_Icons" class="st0">
	<g class="st1">
		<path d="M3,6v2.5H2.5C2.2,8.5,2,8.7,2,9v4.6c0.6-0.7,1.5-1.1,2.5-1.1H5V9c0-0.3-0.2-0.5-0.5-0.5H4V6c0-1.4-1.5-2.5-2.8-2.5
			C0.9,3.5,0.7,3.7,0.7,4c0,0.3,0.2,0.5,0.5,0.5C2,4.5,3,5.2,3,6z"/>
		<path d="M20.5,12.5c1,0,1.9,0.4,2.5,1.1V9c0-0.3-0.2-0.5-0.5-0.5H22V6c0-0.8,0.7-1.5,1.5-1.5C23.8,4.5,24,4.3,24,4
			c0-0.3-0.2-0.5-0.5-0.5C22.1,3.5,21,4.6,21,6v2.5h-0.5C20.2,8.5,20,8.7,20,9v3.5H20.5z"/>
		<path d="M18.5,17H23v-1c0-1.4-1.1-2.5-2.5-2.5H19V9V3c0-1.4-1.1-2.5-2.5-2.5h-8C7.1,0.5,6,1.6,6,3v6v4.5H4.5C3.1,13.5,2,14.6,2,16
			v1h4.5C6.8,17,7,17.2,7,17.5v1C7,18.8,6.8,19,6.5,19H2v2c0,0.3,0.2,0.5,0.5,0.5h20c0.3,0,0.5-0.2,0.5-0.5v-2h-4.5
			c-0.3,0-0.5-0.2-0.5-0.5v-1C18,17.2,18.2,17,18.5,17z M17,17c0,0.3-0.2,0.5-0.5,0.5h-8C8.2,17.5,8,17.3,8,17v-6
			c0-0.3,0.2-0.5,0.5-0.5h8c0.3,0,0.5,0.2,0.5,0.5V17z M17.5,9.5h-10C7.2,9.5,7,9.3,7,9V4c0-0.3,0.2-0.5,0.5-0.5h10
			C17.8,3.5,18,3.7,18,4v5C18,9.3,17.8,9.5,17.5,9.5z"/>
		<path d="M18,23.5c0,0.3,0.2,0.5,0.5,0.5h2c0.3,0,0.5-0.2,0.5-0.5v-1h-3V23.5z"/>
		<path d="M4,23.5C4,23.8,4.2,24,4.5,24h2C6.8,24,7,23.8,7,23.5v-1H4V23.5z"/>
		<g>
			<path d="M10.5,16c-0.3,0-0.5-0.2-0.5-0.5v-3c0-0.3,0.2-0.5,0.5-0.5c0.3,0,0.5,0.2,0.5,0.5v3C11,15.8,10.8,16,10.5,16z"/>
		</g>
		<g>
			<path d="M12.5,16c-0.3,0-0.5-0.2-0.5-0.5v-3c0-0.3,0.2-0.5,0.5-0.5c0.3,0,0.5,0.2,0.5,0.5v3C13,15.8,12.8,16,12.5,16z"/>
		</g>
		<g>
			<path d="M14.5,16c-0.3,0-0.5-0.2-0.5-0.5v-3c0-0.3,0.2-0.5,0.5-0.5c0.3,0,0.5,0.2,0.5,0.5v3C15,15.8,14.8,16,14.5,16z"/>
		</g>
	</g>
</g>
<g id="Outline_Icons">
	<g>
		<rect x="4.5" y="22.5" class="st2" width="2" height="1"/>
		<rect x="18.5" y="22.5" class="st2" width="2" height="1"/>
		<path class="st2" d="M18.5,10.5h-12v-6c0-1.1,0.9-2,2-2h8c1.1,0,2,0.9,2,2V10.5z"/>
		<path class="st2" d="M2.5,17.5c0-1.1,0.9-2,2-2h2v-5h12v5h2c1.1,0,2,0.9,2,2v5h-20V17.5z"/>
		<path class="st2" d="M3.5,10.5v-3c0-1.1-1.2-2-2.3-2"/>
		<rect x="18.5" y="18.5" class="st2" width="4" height="2"/>
		<rect x="2.5" y="18.5" class="st2" width="4" height="2"/>
		<rect x="8.5" y="12.5" class="st2" width="8" height="6"/>
		<line class="st2" x1="6.5" y1="5.5" x2="18.5" y2="5.5"/>
		<line class="st3" x1="10.5" y1="14" x2="10.5" y2="17"/>
		<line class="st3" x1="12.5" y1="14" x2="12.5" y2="17"/>
		<line class="st3" x1="14.5" y1="14" x2="14.5" y2="17"/>
		<polyline class="st2" points="4.5,15.5 4.5,10.5 2.5,10.5 2.5,18 		"/>
		<polyline class="st2" points="20.5,15.5 20.5,10.5 22.5,10.5 22.5,18 		"/>
		<path class="st2" d="M21.5,10.5v-3c0-1.1,0.9-2,2-2"/>
	</g>
</g>
</svg>
