<?xml version="1.0" encoding="utf-8"?>
<!-- Generator: Adobe Illustrator 19.2.0, SVG Export Plug-In . SVG Version: 6.00 Build 0)  -->
<svg version="1.1" id="Layer_1" xmlns="http://www.w3.org/2000/svg" xmlns:xlink="http://www.w3.org/1999/xlink" x="0px" y="0px"
	 viewBox="0 0 24 24" style="enable-background:new 0 0 24 24;" xml:space="preserve">
<style type="text/css">
	.st0{display:none;}
	.st1{display:inline;}
	.st2{fill:none;stroke:#000000;stroke-linecap:round;stroke-linejoin:round;stroke-miterlimit:10;}
</style>
<g id="Filled_Icon" class="st0">
	<g class="st1">
		<path d="M7.5,14.8V7.5C7.5,7.2,7.3,7,7,7H4.5C2,7,0,9,0,11.5v5C0,16.8,0.2,17,0.5,17h4.4C5.3,15.8,6.3,15,7.5,14.8z M5,10H3.4
			C3.2,10,3,10.2,3,10.4V12c0,0.3-0.2,0.5-0.5,0.5S2,12.3,2,12v-1.6C2,9.6,2.6,9,3.4,9H5c0.3,0,0.5,0.2,0.5,0.5S5.3,10,5,10z"/>
		<path d="M23.5,3h-15C8.2,3,8,3.2,8,3.5v11.2c1.8,0,3.2,1.5,3.2,3.2h4.5c0-1.8,1.5-3.2,3.2-3.2s3.2,1.5,3.2,3.2h1.2
			c0.3,0,0.5-0.2,0.5-0.5v-14C24,3.2,23.8,3,23.5,3z"/>
		<path d="M8,15.2c-1.5,0-2.8,1.2-2.8,2.8c0,1.5,1.2,2.8,2.8,2.8c1.5,0,2.8-1.2,2.8-2.8C10.8,16.5,9.5,15.2,8,15.2z"/>
		<path d="M19,15.2c-1.5,0-2.8,1.2-2.8,2.8c0,1.5,1.2,2.8,2.8,2.8c1.5,0,2.8-1.2,2.8-2.8C21.8,16.5,20.5,15.2,19,15.2z"/>
		<path d="M3.5,18h-3C0.2,18,0,18.2,0,18.5S0.2,19,0.5,19h3C3.8,19,4,18.8,4,18.5S3.8,18,3.5,18z"/>
	</g>
</g>
<g id="Outline_Icons">
	<g>
		<circle class="st2" cx="8" cy="18" r="2.5"/>
		<circle class="st2" cx="19" cy="18" r="2.5"/>
		<polyline class="st2" points="8.5,13.5 8.5,3.5 23.5,3.5 23.5,17.5 		"/>
		<path class="st2" d="M0.5,18.5v-7c0-2.2,1.8-4,4-4h4"/>
		<line class="st2" x1="12.5" y1="17.5" x2="14.5" y2="17.5"/>
		<line class="st2" x1="0.5" y1="18.5" x2="3.5" y2="18.5"/>
		<path class="st2" d="M2.5,13.5V11c0-0.8,0.7-1.5,1.5-1.5h2.5"/>
		<line class="st2" x1="0.5" y1="16.5" x2="4" y2="16.5"/>
	</g>
</g>
</svg>
