<?xml version="1.0" encoding="utf-8"?>
<!-- Generator: Adobe Illustrator 19.2.0, SVG Export Plug-In . SVG Version: 6.00 Build 0)  -->
<svg version="1.1" id="Layer_1" xmlns="http://www.w3.org/2000/svg" xmlns:xlink="http://www.w3.org/1999/xlink" x="0px" y="0px"
	 viewBox="0 0 24 24" style="enable-background:new 0 0 24 24;" xml:space="preserve">
<style type="text/css">
	.st0{display:none;}
	.st1{display:inline;}
	.st2{fill:none;stroke:#000000;stroke-linecap:round;stroke-linejoin:round;stroke-miterlimit:10;}
</style>
<g id="Filled_Icons" class="st0">
	<g class="st1">
		<g>
			<g>
				<path d="M5,19c-1.4,0-2.5,1.1-2.5,2.5S3.6,24,5,24s2.5-1.1,2.5-2.5S6.4,19,5,19z"/>
			</g>
			<g>
				<path d="M19,19c-1.4,0-2.5,1.1-2.5,2.5S17.6,24,19,24s2.5-1.1,2.5-2.5S20.4,19,19,19z"/>
			</g>
		</g>
		<g>
			<rect x="10" y="12" width="2" height="7"/>
			<path d="M0.8,1.5L20.4,10h-6.9c-0.3,0-0.5,0.2-0.5,0.5v2V19h3.6c0.6-0.6,1.5-1,2.4-1s1.8,0.4,2.4,1H24v-8.5
				c0-0.3-0.2-0.5-0.5-0.5h-0.6L1.2,0.6c-0.3-0.1-0.5,0-0.7,0.3C0.4,1.1,0.5,1.4,0.8,1.5z"/>
			<path d="M2.6,19c0.6-0.6,1.5-1,2.4-1s1.8,0.4,2.4,1H9v-6.5v-2C9,10.2,8.8,10,8.5,10H5c-0.2,0-0.3,0.1-0.4,0.3l-2.5,4.4l-2,1.9
				C0.1,16.7,0,16.9,0,17v2H2.6z M3.6,14.8l1.5-3c0.1-0.2,0.3-0.3,0.4-0.3H7c0.3,0,0.5,0.2,0.5,0.5v3c0,0.3-0.2,0.5-0.5,0.5H4
				c-0.2,0-0.3-0.1-0.4-0.2C3.5,15.1,3.5,14.9,3.6,14.8z"/>
			<path d="M15.5,21.5c0-0.5,0.1-1,0.4-1.5H8.1c0.2,0.5,0.4,1,0.4,1.5c0,0.2,0,0.3-0.1,0.5h7.1C15.5,21.8,15.5,21.7,15.5,21.5z"/>
			<path d="M1.5,21.5c0-0.5,0.1-1,0.4-1.5H0v1.5C0,21.8,0.2,22,0.5,22h1.1C1.5,21.8,1.5,21.7,1.5,21.5z"/>
			<path d="M22.1,20c0.2,0.5,0.4,1,0.4,1.5c0,0.2,0,0.3-0.1,0.5h1c0.3,0,0.5-0.2,0.5-0.5V20H22.1z"/>
		</g>
	</g>
</g>
<g id="Outline_Icons">
	<g>
		<circle class="st2" cx="5" cy="21.5" r="2"/>
		<circle class="st2" cx="19" cy="21.5" r="2"/>
		<polyline class="st2" points="21,21.5 23.5,21.5 23.5,10.5 12.5,10.5 12.5,19 		"/>
		<line class="st2" x1="7" y1="21.5" x2="17" y2="21.5"/>
		<polyline class="st2" points="7.5,12.5 6,12.5 4.5,15.5 		"/>
		<polyline class="st2" points="3,21.5 0.5,21.5 0.5,17 2.5,15 5,10.5 9.5,10.5 9.5,19.5 		"/>
		<line class="st2" x1="0.5" y1="19.5" x2="23.5" y2="19.5"/>
		<line class="st2" x1="9.5" y1="12.5" x2="12.5" y2="12.5"/>
		<line class="st2" x1="1" y1="1.1" x2="22.8" y2="10.5"/>
	</g>
</g>
</svg>
