<?xml version="1.0" encoding="utf-8"?>
<!-- Generator: Adobe Illustrator 19.2.0, SVG Export Plug-In . SVG Version: 6.00 Build 0)  -->
<svg version="1.1" id="Layer_1" xmlns="http://www.w3.org/2000/svg" xmlns:xlink="http://www.w3.org/1999/xlink" x="0px" y="0px"
	 viewBox="0 0 24 24" style="enable-background:new 0 0 24 24;" xml:space="preserve">
<style type="text/css">
	.st0{display:none;}
	.st1{display:inline;}
	.st2{fill:none;stroke:#000000;stroke-linecap:round;stroke-linejoin:round;stroke-miterlimit:10;}
</style>
<g id="Filled_Icon" class="st0">
	<g class="st1">
		<path d="M23.5,4h-13C10.2,4,10,4.2,10,4.5V16H9.5V6.5C9.5,6.2,9.3,6,9,6H5C4.8,6,4.6,6.1,4.6,6.3l-2.5,4.4l-2,2
			c0,0-0.1,0.2-0.1,0.3v3.5v2C0,18.8,0.2,19,0.5,19h1c0-0.2,0-0.3,0-0.5C1.5,16.6,3.1,15,5,15s3.5,1.6,3.5,3.5c0,0.2,0,0.3,0,0.5
			h7.1c0-0.2,0-0.3,0-0.5c0-1.9,1.6-3.5,3.5-3.5s3.5,1.6,3.5,3.5c0,0.2,0,0.3,0,0.5h1c0.3,0,0.5-0.2,0.5-0.5v-2v-12
			C24,4.2,23.8,4,23.5,4z M7.5,9H6.3l-1.4,2.7c0,0.2-0.2,0.3-0.4,0.3c-0.1,0-0.2,0-0.2-0.1c-0.2-0.1-0.3-0.4-0.2-0.7l1.5-3
			C5.6,8.1,5.8,8,6,8h1.5C7.8,8,8,8.2,8,8.5S7.8,9,7.5,9z"/>
		<path d="M5,16c-1.4,0-2.5,1.1-2.5,2.5S3.6,21,5,21s2.5-1.1,2.5-2.5S6.4,16,5,16z"/>
		<path d="M19,16c-1.4,0-2.5,1.1-2.5,2.5S17.6,21,19,21s2.5-1.1,2.5-2.5S20.4,16,19,16z"/>
	</g>
</g>
<g id="Outline_Icons">
	<g>
		<circle class="st2" cx="5" cy="18.5" r="2"/>
		<circle class="st2" cx="19" cy="18.5" r="2"/>
		<polyline class="st2" points="3,18.5 0.5,18.5 0.5,13 2.5,11 5,6.5 9.5,6.5 9.5,4.5 23.5,4.5 23.5,18.5 21,18.5 		"/>
		<line class="st2" x1="7" y1="18.5" x2="17" y2="18.5"/>
		<polyline class="st2" points="7.5,8.5 6,8.5 4.5,11.5 		"/>
		<line class="st2" x1="9.5" y1="6.5" x2="9.5" y2="16.5"/>
		<line class="st2" x1="0.5" y1="16.5" x2="23.5" y2="16.5"/>
	</g>
</g>
</svg>
