<?xml version="1.0" encoding="utf-8"?>
<!-- Generator: Adobe Illustrator 19.2.0, SVG Export Plug-In . SVG Version: 6.00 Build 0)  -->
<svg version="1.1" id="Layer_1" xmlns="http://www.w3.org/2000/svg" xmlns:xlink="http://www.w3.org/1999/xlink" x="0px" y="0px"
	 viewBox="0 0 24 24" style="enable-background:new 0 0 24 24;" xml:space="preserve">
<style type="text/css">
	.st0{display:none;}
	.st1{display:inline;}
	.st2{fill:none;stroke:#000000;stroke-linecap:round;stroke-linejoin:round;stroke-miterlimit:10;}
</style>
<g id="Filled_Icons" class="st0">
	<g class="st1">
		<path d="M22.5,0h-22C0.2,0,0,0.2,0,0.5V18h1v-4.9c0-0.1,0-0.3,0.1-0.4l2-6.6C3.3,5.4,3.8,5,4.5,5h14c0.7,0,1.2,0.4,1.4,1.1l2,6.5
			c0,0.1,0.1,0.3,0.1,0.4v5h1V0.5C23,0.2,22.8,0,22.5,0z M6,3.5C6,3.8,5.8,4,5.5,4h-3C2.2,4,2,3.8,2,3.5v-2C2,1.2,2.2,1,2.5,1h3
			C5.8,1,6,1.2,6,1.5V3.5z M16,3.5C16,3.8,15.8,4,15.5,4h-8C7.2,4,7,3.8,7,3.5v-2C7,1.2,7.2,1,7.5,1h8C15.8,1,16,1.2,16,1.5V3.5z
			 M21,3.5C21,3.8,20.8,4,20.5,4h-3C17.2,4,17,3.8,17,3.5v-2C17,1.2,17.2,1,17.5,1h3C20.8,1,21,1.2,21,1.5V3.5z"/>
		<path d="M5.5,16v2h12v-2c0-0.3,0.2-0.5,0.5-0.5h3V13c0,0,0-0.1,0-0.1l-2-6.5C18.9,6.1,18.7,6,18.5,6h-14C4.3,6,4.1,6.1,4,6.4
			l-2,6.6c0,0,0,0.1,0,0.1v2.4h3C5.3,15.5,5.5,15.7,5.5,16z M4.9,7h13.3l1.7,5.5H3.2L4.9,7z"/>
		<g>
			<path d="M3,22.5v1C3,23.8,3.2,24,3.5,24h3C6.8,24,7,23.8,7,23.5v-1H3z"/>
		</g>
		<g>
			<path d="M16,22.5v1c0,0.3,0.2,0.5,0.5,0.5h3c0.3,0,0.5-0.2,0.5-0.5v-1H16z"/>
		</g>
		<path d="M1.7,21.5h19.6c0.4-0.4,0.7-0.9,0.7-1.5c0-0.4-0.1-0.7-0.3-1H1.3C1.1,19.3,1,19.6,1,20C1,20.6,1.3,21.1,1.7,21.5z"/>
	</g>
</g>
<g id="Outline_Icons">
	<g>
		<rect x="3.5" y="21.5" class="st2" width="3" height="2"/>
		<rect x="16.5" y="21.5" class="st2" width="3" height="2"/>
		<path class="st2" d="M1.5,20c0,0.8,0.7,1.5,1.5,1.5h17c0.8,0,1.5-0.7,1.5-1.5c0-0.8-0.7-1.5-1.5-1.5H3C2.2,18.5,1.5,19.2,1.5,20z"
			/>
		<polygon class="st2" points="18.5,6.5 4.5,6.5 2.5,13.1 2.5,18.5 20.5,18.5 20.5,13 		"/>
		<line class="st2" x1="3" y1="13.5" x2="20" y2="13.5"/>
		<rect x="2.5" y="15.5" class="st2" width="3" height="3"/>
		<rect x="17.5" y="15.5" class="st2" width="3" height="3"/>
		<polyline class="st2" points="20,18.5 22.5,18.5 22.5,0.5 0.5,0.5 0.5,18.5 3,18.5 		"/>
		<rect x="2.5" y="2.5" class="st2" width="3" height="2"/>
		<rect x="17.5" y="2.5" class="st2" width="3" height="2"/>
		<rect x="7.5" y="2.5" class="st2" width="8" height="2"/>
	</g>
</g>
</svg>
