<?xml version="1.0" encoding="utf-8"?>
<!-- Generator: Adobe Illustrator 19.2.0, SVG Export Plug-In . SVG Version: 6.00 Build 0)  -->
<svg version="1.1" id="Layer_1" xmlns="http://www.w3.org/2000/svg" xmlns:xlink="http://www.w3.org/1999/xlink" x="0px" y="0px"
	 viewBox="0 0 24 24" style="enable-background:new 0 0 24 24;" xml:space="preserve">
<style type="text/css">
	.st0{display:none;}
	.st1{display:inline;}
	.st2{fill:none;stroke:#000000;stroke-linejoin:round;stroke-miterlimit:10;}
	.st3{fill:none;stroke:#000000;stroke-linecap:round;stroke-linejoin:round;stroke-miterlimit:10;}
</style>
<g id="Filled_Icons" class="st0">
	<g class="st1">
		<path d="M5,1h2v3H5.5C5.2,4,5,4.2,5,4.5V9c0.2,0,5,0,5,0V4.5C10,4.2,9.8,4,9.5,4H8V0.5C8,0.2,7.8,0,7.5,0H5C4.7,0,4.5,0.2,4.5,0.5
			C4.5,0.8,4.7,1,5,1z"/>
		<path d="M4,15c2.8,0,5,2.2,5,5c0,0.3,0,0.7-0.1,1h2.8c-0.4-0.9-0.7-1.9-0.7-3c0-3.9,3.1-7,7-7c2.5,0,4.8,1.4,6,3.4V5.5
			C24,4.1,22.9,3,21.5,3h-5.3c-1.2,0-2.3,0.9-2.5,2.1L13.1,10H5.5C3,10,1,12,1,14.5V16C1.8,15.4,2.9,15,4,15z M15.9,5.4
			C16,5.2,16.2,5,16.4,5H19c0.3,0,0.5,0.2,0.5,0.5V8c0,0.3-0.2,0.5-0.5,0.5h-3c-0.1,0-0.3-0.1-0.4-0.2c-0.1-0.1-0.1-0.3-0.1-0.4
			L15.9,5.4z"/>
		<path d="M4,16c-2.2,0-4,1.8-4,4s1.8,4,4,4s4-1.8,4-4S6.2,16,4,16z M4,21.5c-0.8,0-1.5-0.7-1.5-1.5c0-0.8,0.7-1.5,1.5-1.5
			s1.5,0.7,1.5,1.5C5.5,20.8,4.8,21.5,4,21.5z"/>
		<path d="M18,12c-3.3,0-6,2.7-6,6s2.7,6,6,6s6-2.7,6-6S21.3,12,18,12z M18,20.5c-1.4,0-2.5-1.1-2.5-2.5s1.1-2.5,2.5-2.5
			s2.5,1.1,2.5,2.5S19.4,20.5,18,20.5z"/>
	</g>
</g>
<g id="Outline_Icons">
	<g>
		<path class="st2" d="M1.5,17.6v-3.1c0-2.2,1.8-4,4-4h8l0.8-5.3c0.1-1,1-1.7,2-1.7h5.3c1.1,0,2,0.9,2,2V18"/>
		<line class="st2" x1="13" y1="20.5" x2="7.5" y2="20.5"/>
		<circle class="st2" cx="4" cy="20" r="3.5"/>
		<circle class="st2" cx="18" cy="18" r="5.5"/>
		<rect x="5.5" y="4.5" class="st2" width="4" height="6"/>
		<polyline class="st3" points="5,0.5 7.5,0.5 7.5,4.5 		"/>
		<polyline class="st3" points="19,5.5 16.4,5.5 16,8 		"/>
		<circle class="st2" cx="4" cy="20" r="1"/>
		<circle class="st2" cx="18" cy="18" r="2"/>
	</g>
</g>
</svg>
