<?xml version="1.0" encoding="utf-8"?>
<!-- Generator: Adobe Illustrator 19.2.0, SVG Export Plug-In . SVG Version: 6.00 Build 0)  -->
<svg version="1.1" id="Layer_1" xmlns="http://www.w3.org/2000/svg" xmlns:xlink="http://www.w3.org/1999/xlink" x="0px" y="0px"
	 viewBox="0 0 24 24" style="enable-background:new 0 0 24 24;" xml:space="preserve">
<style type="text/css">
	.st0{display:none;}
	.st1{display:inline;}
	.st2{fill:none;stroke:#000000;stroke-linecap:round;stroke-linejoin:round;stroke-miterlimit:10;}
</style>
<g id="Filled_Icons" class="st0">
	<g class="st1">
		<g>
			<path d="M13,9V5.5C13,5.2,12.8,5,12.5,5h-1c-2.7,0-5,1.7-6,4H13z"/>
			<path d="M23.5,21H23v-3.5c0-0.3-0.2-0.5-0.5-0.5H15V4.5C15,3.7,15.7,3,16.5,3H17c0.3,0,0.5-0.2,0.5-0.5S17.3,2,17,2h-0.5
				C15.1,2,14,3.1,14,4.5V17h-1v-7H5.2C5.1,10.5,5,11,5,11.5V15H2.5C2.3,15,2,15.2,2,15.4L1.1,21H0.5C0.2,21,0,21.2,0,21.5
				S0.2,22,0.5,22h1.6C2,21.8,2,21.7,2,21.5C2,19.6,3.6,18,5.5,18S9,19.6,9,21.5c0,0.2,0,0.3-0.1,0.5h4.1c0-0.2-0.1-0.3-0.1-0.5
				c0-1.9,1.6-3.5,3.5-3.5s3.5,1.6,3.5,3.5c0,0.2,0,0.3-0.1,0.5h3.6c0.3,0,0.5-0.2,0.5-0.5S23.8,21,23.5,21z M10,14.5
				c0,0.3-0.2,0.5-0.5,0.5h-2C7.2,15,7,14.8,7,14.5v-2C7,12.2,7.2,12,7.5,12h2c0.3,0,0.5,0.2,0.5,0.5V14.5z"/>
		</g>
		<g>
			<path d="M5.5,19C4.1,19,3,20.1,3,21.5C3,22.9,4.1,24,5.5,24S8,22.9,8,21.5C8,20.1,6.9,19,5.5,19z"/>
		</g>
		<g>
			<path d="M16.5,19c-1.4,0-2.5,1.1-2.5,2.5c0,1.4,1.1,2.5,2.5,2.5s2.5-1.1,2.5-2.5C19,20.1,17.9,19,16.5,19z"/>
		</g>
	</g>
</g>
<g id="Outline_Icons">
	<g>
		<g>
			<circle class="st2" cx="5.5" cy="21.5" r="2"/>
			<line class="st2" x1="18.5" y1="21.5" x2="23.5" y2="21.5"/>
			<circle class="st2" cx="16.5" cy="21.5" r="2"/>
			<line class="st2" x1="7.5" y1="21.5" x2="14.5" y2="21.5"/>
			<line class="st2" x1="0.5" y1="21.5" x2="3.5" y2="21.5"/>
			<path class="st2" d="M12.5,21.5v-16h-1c-3.3,0-6,2.7-6,6v4h-3l-1,6"/>
			<polyline class="st2" points="7.5,14.5 7.5,12.5 9.5,12.5 			"/>
			<polyline class="st2" points="12.5,21 12.5,17.5 22.5,17.5 22.5,21.5 			"/>
			<path class="st2" d="M14.5,17.5v-13c0-1.1,0.9-2,2-2H17"/>
		</g>
		<line class="st2" x1="5.8" y1="9.5" x2="12.5" y2="9.5"/>
	</g>
</g>
</svg>
