<?xml version="1.0" encoding="utf-8"?>
<!-- Generator: Adobe Illustrator 19.2.0, SVG Export Plug-In . SVG Version: 6.00 Build 0)  -->
<svg version="1.1" id="Layer_1" xmlns="http://www.w3.org/2000/svg" xmlns:xlink="http://www.w3.org/1999/xlink" x="0px" y="0px"
	 viewBox="0 0 24 24" style="enable-background:new 0 0 24 24;" xml:space="preserve">
<style type="text/css">
	.st0{display:none;}
	.st1{display:inline;}
	.st2{fill:none;stroke:#000000;stroke-linejoin:round;stroke-miterlimit:10;}
	.st3{fill:none;stroke:#000000;stroke-linecap:round;stroke-linejoin:round;stroke-miterlimit:10;}
</style>
<g id="Filled_Icon" class="st0">
	<g class="st1">
		<path d="M15.5,9h-5.3c-1.1,1.8-3,3-5.2,3l0,0v8c0,0.1,0.1,0.3,0.1,0.4c0.1,0.1,0.2,0.1,0.4,0.1h1.8c0-0.2-0.1-0.3-0.1-0.5
			c0-1.2,1-2.2,2.2-2.2s2.2,1,2.2,2.2c0,0.2,0,0.3-0.1,0.5h3.8c0.3,0,0.5-0.2,0.5-0.5V9.5C16,9.2,15.8,9,15.5,9z"/>
		<circle cx="19.5" cy="20" r="1.7"/>
		<circle cx="9.5" cy="20" r="1.7"/>
		<path d="M5,11c2.7,0,5-2.3,5-5S7.7,1,5,1S0,3.3,0,6S2.3,11,5,11z M4,3.5C4,3.2,4.2,3,4.5,3S5,3.2,5,3.5V6h1.5C6.8,6,7,6.2,7,6.5
			S6.8,7,6.5,7h-2C4.2,7,4,6.8,4,6.5V3.5z"/>
		<path d="M3.5,13.7h-3l0,0C0.2,13.7,0,14,0,14.2c0,0.3,0.2,0.5,0.5,0.5h3l0,0c0.3,0,0.5-0.2,0.5-0.5C4,14,3.8,13.7,3.5,13.7z"/>
		<path d="M3.5,15.7H2c-0.3,0-0.5,0.2-0.5,0.5c0,0.3,0.2,0.5,0.5,0.5h1.5c0.3,0,0.5-0.2,0.5-0.5C4,16,3.8,15.7,3.5,15.7z"/>
		<path d="M3.5,17.7H3c-0.3,0-0.5,0.2-0.5,0.5s0.2,0.5,0.5,0.5h0.5c0.3,0,0.5-0.2,0.5-0.5C4,18,3.8,17.7,3.5,17.7z"/>
		<path d="M24,16.5c0-0.1,0-0.1,0-0.2l0,0l0,0l-2.5-4C21.3,12.1,21.2,12,21,12h-4c-0.3,0-0.5,0.2-0.5,0.5v4V20
			c0,0.3,0.2,0.5,0.5,0.5h0.3c0-0.2-0.1-0.3-0.1-0.5c0-1.2,1-2.2,2.2-2.2s2.2,1,2.2,2.2c0,0.2,0,0.3-0.1,0.5h1.8
			c0.3,0,0.5-0.2,0.5-0.5L24,16.5L24,16.5z M17.5,16v-3h3.2l1.9,3H17.5z"/>
	</g>
</g>
<g id="Outline_Icons">
	<g>
		<path class="st2" d="M16.5,12.5H21l2.5,4c0,0,0,1,0,1.5s0,1.5,0,1.5H21"/>
		<polyline class="st2" points="11,19.5 16.5,19.5 16.5,9.5 11,9.5 		"/>
		<polyline class="st2" points="5.5,12 5.5,19.5 8,19.5 		"/>
		<circle class="st2" cx="19.5" cy="20" r="1.5"/>
		<circle class="st2" cx="9.5" cy="20" r="1.5"/>
		<path class="st2" d="M9.5,6c0,2.5-2,4.5-4.5,4.5S0.5,8.5,0.5,6s2-4.5,4.5-4.5S9.5,3.5,9.5,6z"/>
		<polyline class="st3" points="4.5,3.5 4.5,6.5 6.5,6.5 		"/>
		<line class="st3" x1="0.5" y1="14.5" x2="3.5" y2="14.5"/>
		<line class="st3" x1="2" y1="16.5" x2="3.5" y2="16.5"/>
		<line class="st3" x1="3" y1="18.5" x2="3.5" y2="18.5"/>
		<line class="st2" x1="16.5" y1="16.5" x2="23.2" y2="16.5"/>
		<line class="st2" x1="16.4" y1="19.6" x2="16.5" y2="19.6"/>
		<line class="st2" x1="16.5" y1="19.5" x2="18.2" y2="19.5"/>
	</g>
</g>
</svg>
