<?xml version="1.0" encoding="utf-8"?>
<!-- Generator: Adobe Illustrator 19.2.0, SVG Export Plug-In . SVG Version: 6.00 Build 0)  -->
<svg version="1.1" id="Layer_1" xmlns="http://www.w3.org/2000/svg" xmlns:xlink="http://www.w3.org/1999/xlink" x="0px" y="0px"
	 viewBox="0 0 24 24" style="enable-background:new 0 0 24 24;" xml:space="preserve">
<style type="text/css">
	.st0{display:none;}
	.st1{display:inline;}
	.st2{fill:none;stroke:#000000;stroke-linecap:round;stroke-linejoin:round;stroke-miterlimit:10;}
	.st3{fill:none;stroke:#000000;stroke-linejoin:round;stroke-miterlimit:10;}
</style>
<g id="Filled_Icons" class="st0">
	<g class="st1">
		<path d="M5,19c-1.4,0-2.5,1.1-2.5,2.5C2.5,22.9,3.6,24,5,24s2.5-1.1,2.5-2.5C7.5,20.1,6.4,19,5,19z"/>
		<path d="M19,19c-1.4,0-2.5,1.1-2.5,2.5c0,1.4,1.1,2.5,2.5,2.5s2.5-1.1,2.5-2.5C21.5,20.1,20.4,19,19,19z"/>
		<path d="M12,2c-1.2,0-2.2,0.9-2.4,2h4.9C14.2,2.9,13.2,2,12,2z"/>
		<path d="M23.5,5h-9h-5v0.5V19h7.1c0.6-0.6,1.5-1,2.4-1s1.8,0.4,2.4,1H24V5.5C24,5.2,23.8,5,23.5,5z M22.3,10.9l-2.7,2.3l1.4,3.7
			c0.1,0.2,0,0.4-0.2,0.6c-0.1,0.1-0.2,0.1-0.3,0.1c-0.1,0-0.2,0-0.3-0.1L17,15.1l-3.2,2.3c-0.2,0.1-0.4,0.1-0.6,0
			C13,17.3,13,17,13,16.8l1.4-3.7l-2.7-2.3c-0.2-0.1-0.2-0.4-0.2-0.6c0.1-0.2,0.3-0.3,0.5-0.3h3.2l1.4-3.2c0.1-0.2,0.3-0.3,0.5-0.3
			l0,0c0.2,0,0.4,0.1,0.5,0.3l1.4,3.2H22c0.2,0,0.4,0.1,0.5,0.3C22.5,10.5,22.5,10.8,22.3,10.9z"/>
		<path d="M5,18c0.9,0,1.8,0.4,2.4,1h1.1V9H5C4.8,9,4.7,9.1,4.6,9.3l-2.5,4.4l-2,1.9C0.1,15.7,0,15.9,0,16v3h2.6
			C3.2,18.4,4.1,18,5,18z M3.6,13.8l1.5-3c0.1-0.2,0.3-0.3,0.4-0.3H7c0.3,0,0.5,0.2,0.5,0.5v3c0,0.3-0.2,0.5-0.5,0.5H4
			c-0.2,0-0.3-0.1-0.4-0.2C3.5,14.1,3.5,13.9,3.6,13.8z"/>
		<path d="M22.5,21.5c0,0.2,0,0.3-0.1,0.5h1.1c0.3,0,0.5-0.2,0.5-0.5V20h-1.9C22.4,20.5,22.5,21,22.5,21.5z"/>
		<path d="M0,20v1.5C0,21.8,0.2,22,0.5,22h1.1c0-0.2-0.1-0.3-0.1-0.5c0-0.5,0.1-1,0.4-1.5H0z"/>
		<path d="M8.5,21.5h7c0-0.5,0.1-1,0.4-1.5H8.1C8.4,20.5,8.5,21,8.5,21.5z"/>
	</g>
</g>
<g id="Outline_Icons">
	<g>
		<circle class="st2" cx="5" cy="21.5" r="2"/>
		<circle class="st2" cx="19" cy="21.5" r="2"/>
		<polyline class="st2" points="3,21.5 0.5,21.5 0.5,16 2.5,14 5,9.5 9.5,9.5 9.5,5.5 23.5,5.5 23.5,21.5 21,21.5 		"/>
		<line class="st2" x1="7" y1="21.5" x2="17" y2="21.5"/>
		<polyline class="st2" points="7.5,11.5 6,11.5 4.5,14.5 		"/>
		<line class="st2" x1="9.5" y1="9.5" x2="9.5" y2="19.5"/>
		<line class="st2" x1="0.5" y1="19.5" x2="23.5" y2="19.5"/>
		<path class="st2" d="M13.5,4.5c0-1.1-0.9-2-2-2c-1.1,0-2,0.9-2,2v1h4V4.5z"/>
		<polygon class="st3" points="16.5,7 18,10.5 21.5,10.5 18.5,13 20,17 16.5,14.5 13,17 14.5,13 11.5,10.5 15,10.5 		"/>
	</g>
</g>
</svg>
