<?xml version="1.0" encoding="utf-8"?>
<!-- Generator: Adobe Illustrator 19.2.0, SVG Export Plug-In . SVG Version: 6.00 Build 0)  -->
<svg version="1.1" id="Layer_1" xmlns="http://www.w3.org/2000/svg" xmlns:xlink="http://www.w3.org/1999/xlink" x="0px" y="0px"
	 viewBox="0 0 24 24" style="enable-background:new 0 0 24 24;" xml:space="preserve">
<style type="text/css">
	.st0{display:none;}
	.st1{display:inline;}
	.st2{fill:none;stroke:#000000;stroke-linecap:round;stroke-linejoin:round;stroke-miterlimit:10;}
</style>
<g id="Filled_Icon" class="st0">
	<path class="st1" d="M23.7,6c-0.2-0.1-0.4,0-0.5,0.1l-3.4,3.4H14V8c0-0.6-0.4-1-1-1s-1,0.4-1,1v1.5h-1.5V8c0-0.6-0.4-1-1-1
		s-1,0.4-1,1v1.5h-1V8c0-0.6-0.4-1-1-1s-1,0.4-1,1v1.5H2c0-0.6-0.4-1-1-1s-1,0.4-1,1v2c0,0.6,0.4,1,1,1s1-0.4,1-1h1
		c-0.3,0.6-0.5,1.3-0.5,2c0,1.9,1.3,3.4,3,3.9v1.1c0,0.6,0.4,1,1,1s1-0.4,1-1v-1h1v1c0,0.6,0.4,1,1,1s1-0.4,1-1v-1H12v1
		c0,0.6,0.4,1,1,1s1-0.4,1-1v-1h1c2.2,0,4-1.8,4-4c0-0.7-0.2-1.4-0.5-2h1.3l3.4,3.4c0.1,0.1,0.2,0.1,0.4,0.1c0.1,0,0.1,0,0.2,0
		c0.2-0.1,0.3-0.3,0.3-0.5v-8C24,6.3,23.9,6.1,23.7,6z M5.5,15.2c-0.6-0.3-1-1-1-1.7s0.4-1.4,1-1.7V15.2z M8.5,15.5h-1v-4h1V15.5z
		 M12,15.5h-1.5v-4H12V15.5z M15,15.5h-1v-4h1c1.1,0,2,0.9,2,2S16.1,15.5,15,15.5z"/>
</g>
<g id="Outline_Icons">
	<g>
		<line class="st2" x1="0.5" y1="10.5" x2="19.5" y2="10.5"/>
		<line class="st2" x1="0.5" y1="9.5" x2="0.5" y2="11.5"/>
		<polygon class="st2" points="23.5,14.5 19.5,10.5 23.5,6.5 		"/>
		<path class="st2" d="M5.5,10.5c-1.7,0-3,1.3-3,3s1.3,3,3,3h9c1.7,0,3-1.3,3-3s-1.3-3-3-3"/>
		<line class="st2" x1="7.5" y1="8.5" x2="7.5" y2="17.5"/>
		<line class="st2" x1="9.5" y1="8.5" x2="9.5" y2="17.5"/>
		<line class="st2" x1="11.5" y1="8.5" x2="11.5" y2="17.5"/>
	</g>
</g>
</svg>
