<?xml version="1.0" encoding="utf-8"?>
<!-- Generator: Adobe Illustrator 19.2.0, SVG Export Plug-In . SVG Version: 6.00 Build 0)  -->
<svg version="1.1" id="Layer_1" xmlns="http://www.w3.org/2000/svg" xmlns:xlink="http://www.w3.org/1999/xlink" x="0px" y="0px"
	 viewBox="0 0 24 24" style="enable-background:new 0 0 24 24;" xml:space="preserve">
<style type="text/css">
	.st0{display:none;}
	.st1{display:inline;}
	.st2{fill:none;stroke:#000000;stroke-linejoin:round;stroke-miterlimit:10;}
	.st3{fill:none;stroke:#000000;stroke-linecap:round;stroke-linejoin:round;stroke-miterlimit:10;}
</style>
<g id="Filled_Icons" class="st0">
	<g class="st1">
		<path d="M19,22c0,1.1,0.9,2,2,2c1.1,0,2-0.9,2-2v-1h-4V22z"/>
		<path d="M1,22c0,1.1,0.9,2,2,2s2-0.9,2-2v-1H1V22z"/>
		<path d="M20.5,14c-0.2,0-0.3,0-0.5,0.1v4.4c0,0.5-0.1,1-0.4,1.5h2.9c0.3,0,0.5-0.2,0.5-0.5v-3C23,15.1,21.9,14,20.5,14z"/>
		<path d="M1.5,20h2.9C4.1,19.5,4,19,4,18.5v-4.4C3.8,14,3.7,14,3.5,14C2.1,14,1,15.1,1,16.5v3C1,19.8,1.2,20,1.5,20z"/>
		<path d="M12,17c-1.1,0-2,0.9-2,2v3c0,1.1,0.9,2,2,2s2-0.9,2-2v-3C14,17.9,13.1,17,12,17z"/>
		<path d="M18.9,10l-2.1-6H18c0.3,0,0.5-0.2,0.5-0.5S18.3,3,18,3h-2.3H8.4H6C5.7,3,5.5,3.2,5.5,3.5S5.7,4,6,4h1.3l-2.1,6H18.9z"/>
		<path d="M19,11H5v7.5C5,19.9,6.1,21,7.5,21H9v-2c0-1.7,1.3-3,3-3s3,1.3,3,3v2h1.5c1.4,0,2.5-1.1,2.5-2.5V11z M8,16
			c-0.8,0-1.5-0.7-1.5-1.5C6.5,13.7,7.2,13,8,13s1.5,0.7,1.5,1.5C9.5,15.3,8.8,16,8,16z M16,16c-0.8,0-1.5-0.7-1.5-1.5
			c0-0.8,0.7-1.5,1.5-1.5s1.5,0.7,1.5,1.5C17.5,15.3,16.8,16,16,16z"/>
		<path d="M15,0.5C15,0.2,14.8,0,14.5,0h-5C9.2,0,9,0.2,9,0.5V2h6V0.5z"/>
	</g>
</g>
<g id="Outline_Icons">
	<g>
		<path class="st2" d="M10.5,20.5h-3c-1.1,0-2-0.9-2-2v-7.9c0-0.1,0-0.1,0-0.2l2.4-6.6C8,3.6,8.1,3.5,8.4,3.5h7.4
			c0.2,0,0.4,0.1,0.5,0.3l2.3,6.6c0,0.1,0,0.1,0,0.2v7.9c0,1.1-0.9,2-2,2h-3"/>
		<path class="st2" d="M10.5,19c0-0.8,0.7-1.5,1.5-1.5s1.5,0.7,1.5,1.5v3c0,0.8-0.7,1.5-1.5,1.5s-1.5-0.7-1.5-1.5V19z"/>
		<line class="st2" x1="5.5" y1="10.5" x2="18.5" y2="10.5"/>
		<line class="st3" x1="6" y1="3.5" x2="18" y2="3.5"/>
		<rect x="9.5" y="0.5" class="st3" width="5" height="3"/>
		<circle class="st3" cx="16" cy="14.5" r="1"/>
		<circle class="st3" cx="8" cy="14.5" r="1"/>
		<path class="st3" d="M4.5,19.7V22c0,0.8-0.7,1.5-1.5,1.5S1.5,22.8,1.5,22v-2.3"/>
		<path class="st3" d="M1.5,19.7v-3.2c0-1.1,0.9-2,2-2s2,0.9,2,2v3.2H1.5z"/>
		<path class="st3" d="M19.5,19.7V22c0,0.8,0.7,1.5,1.5,1.5s1.5-0.7,1.5-1.5v-2.3"/>
		<path class="st3" d="M22.5,19.7v-3.2c0-1.1-0.9-2-2-2c-1.1,0-2,0.9-2,2v3.2H22.5z"/>
	</g>
</g>
</svg>
