<?xml version="1.0" encoding="utf-8"?>
<!-- Generator: Adobe Illustrator 19.2.0, SVG Export Plug-In . SVG Version: 6.00 Build 0)  -->
<svg version="1.1" id="Layer_1" xmlns="http://www.w3.org/2000/svg" xmlns:xlink="http://www.w3.org/1999/xlink" x="0px" y="0px"
	 viewBox="0 0 24 24" style="enable-background:new 0 0 24 24;" xml:space="preserve">
<style type="text/css">
	.st0{display:none;}
	.st1{display:inline;}
	.st2{fill:none;stroke:#000000;stroke-linejoin:round;stroke-miterlimit:10;}
	.st3{fill:none;stroke:#000000;stroke-linecap:round;stroke-linejoin:round;stroke-miterlimit:10;}
</style>
<g id="Filled_Icon" class="st0">
	<g class="st1">
		<circle cx="10" cy="13" r="2"/>
		<path d="M22,3V2.5C22,1.1,20.9,0,19.5,0S17,1.1,17,2.5V3H0v20h24V3H22z M12.7,20.5C11.8,20.8,10.9,21,10,21c-4.4,0-8-3.6-8-8
			s3.6-8,8-8c3.4,0,6.5,2.2,7.6,5.4c0.1,0.3,0,0.5-0.3,0.6s-0.5,0-0.6-0.3C15.6,7.9,13,6,10,6c-3.9,0-7,3.1-7,7s3.1,7,7,7
			c0.8,0,1.6-0.1,2.3-0.4c0.3-0.1,0.5,0,0.6,0.3C13.1,20.2,12.9,20.5,12.7,20.5z M10,16c-1.7,0-3-1.3-3-3s1.3-3,3-3s3,1.3,3,3
			S11.7,16,10,16z M20,12.2l-2.5,3l1.1,1.1l-2.1,2.1c-0.4,0.4-1,0.7-1.6,0.7l0,0c-0.5,0-1-0.2-1.4-0.6c-0.3-0.5-0.5-1-0.5-1.6
			c0-0.5,0.3-1.1,0.7-1.5l2.1-2.1l1,1l2.2-2.6V6h1V12.2z M21,5h-3V2.5C18,1.7,18.7,1,19.5,1S21,1.7,21,2.5V5z"/>
	</g>
</g>
<g id="Outline_Icons">
	<g>
		<polyline class="st2" points="21.5,3.5 23.5,3.5 23.5,22.5 0.5,22.5 0.5,3.5 17.5,3.5 		"/>
		<path class="st3" d="M12.5,20.1c-0.8,0.3-1.6,0.4-2.5,0.4c-4.1,0-7.5-3.4-7.5-7.5S5.9,5.5,10,5.5c3.3,0,6.1,2.1,7.1,5.1"/>
		<circle class="st3" cx="10" cy="13" r="2.5"/>
		<circle class="st3" cx="10" cy="13" r="0.5"/>
		<polyline class="st3" points="19.5,5.5 19.5,12 16.7,15.3 		"/>
		<path class="st3" d="M19.5,0.5c-1.1,0-2,0.9-2,2v3h4v-3C21.5,1.4,20.6,0.5,19.5,0.5z"/>
		<path class="st2" d="M15.7,14.3l2,2c0,0-1.2,1.2-1.4,1.4c-0.2,0.2-1.1,1.4-2.2,0.3c-0.9-0.9-0.2-1.9,0.2-2.3
			C14.7,15.3,15.7,14.3,15.7,14.3z"/>
	</g>
</g>
</svg>
