<?xml version="1.0" encoding="utf-8"?>
<!-- Generator: Adobe Illustrator 19.2.0, SVG Export Plug-In . SVG Version: 6.00 Build 0)  -->
<svg version="1.1" id="Outline_Icons" xmlns="http://www.w3.org/2000/svg" xmlns:xlink="http://www.w3.org/1999/xlink" x="0px"
	 y="0px" viewBox="0 0 24 24" style="enable-background:new 0 0 24 24;" xml:space="preserve">
<style type="text/css">
	.st0{fill:none;stroke:#000000;stroke-linecap:round;stroke-linejoin:round;stroke-miterlimit:10;}
</style>
<g>
	<path class="st0" d="M2.5,5.5H12c1.9,0,3.5,1.6,3.5,3.5s-1.6,3.5-3.5,3.5H2.5"/>
	<path class="st0" d="M12,10.5c0.8,0,1.5-0.7,1.5-1.5S12.8,7.5,12,7.5h-1.5v3H12z"/>
	<path class="st0" d="M2.5,12.5H12c1.9,0,3.5,1.6,3.5,3.5s-1.6,3.5-3.5,3.5H2.5"/>
	<path class="st0" d="M12,17.5c0.8,0,1.5-0.7,1.5-1.5c0-0.8-0.7-1.5-1.5-1.5h-1.5v3H12z"/>
	<polyline class="st0" points="15.5,21 16.5,23.5 19.5,23 	"/>
	<path class="st0" d="M16.6,0.5c1.8,2.7,2.9,6.8,2.9,11.5s-1.2,8.9-3,11.5"/>
</g>
</svg>
