<?xml version="1.0" encoding="utf-8"?>
<!-- Generator: Adobe Illustrator 19.2.0, SVG Export Plug-In . SVG Version: 6.00 Build 0)  -->
<svg version="1.1" id="Outline_Icons" xmlns="http://www.w3.org/2000/svg" xmlns:xlink="http://www.w3.org/1999/xlink" x="0px"
	 y="0px" viewBox="0 0 24 24" style="enable-background:new 0 0 24 24;" xml:space="preserve">
<style type="text/css">
	.st0{fill:none;stroke:#000000;stroke-linecap:round;stroke-linejoin:round;stroke-miterlimit:10;}
</style>
<g>
	<path class="st0" d="M4.5,21.5V13c0-1.9,1.6-3.5,3.5-3.5s3.5,1.6,3.5,3.5v8.5"/>
	<path class="st0" d="M9.5,13c0-0.8-0.7-1.5-1.5-1.5S6.5,12.2,6.5,13v1.5h3V13z"/>
	<path class="st0" d="M11.5,21.5V12c0-1.9,1.6-3.5,3.5-3.5s3.5,1.6,3.5,3.5v9.5"/>
	<path class="st0" d="M16.5,12c0-0.8-0.7-1.5-1.5-1.5s-1.5,0.7-1.5,1.5v1.5h3V12z"/>
	<path class="st0" d="M3,11.5C3.4,8.9,5.5,7,8.2,7C9,7,9.8,7.2,10.4,7.5"/>
	<path class="st0" d="M12,6.9C12.9,6.3,13.9,6,15,6c3,0,5.5,2.5,5.5,5.5"/>
	<path class="st0" d="M12,4.1c0.9-0.4,1.9-0.6,3-0.6c4.4,0,8,3.6,8,8c0,0.5,0,1-0.1,1.5"/>
	<path class="st0" d="M0.6,13.5c0-0.3-0.1-0.7-0.1-1c0-4.4,3.6-8,8-8c0.7,0,1.4,0.1,2,0.3"/>
</g>
</svg>
