<?xml version="1.0" encoding="utf-8"?>
<!-- Generator: Adobe Illustrator 19.2.0, SVG Export Plug-In . SVG Version: 6.00 Build 0)  -->
<svg version="1.1" id="Outline_Icons" xmlns="http://www.w3.org/2000/svg" xmlns:xlink="http://www.w3.org/1999/xlink" x="0px"
	 y="0px" viewBox="0 0 24 24" style="enable-background:new 0 0 24 24;" xml:space="preserve">
<style type="text/css">
	.st0{fill:none;stroke:#000000;stroke-linecap:round;stroke-linejoin:round;stroke-miterlimit:10;}
</style>
<g>
	<path class="st0" d="M4.5,21.5V13c0-1.9,1.6-3.5,3.5-3.5s3.5,1.6,3.5,3.5v8.5"/>
	<path class="st0" d="M9.5,13c0-0.8-0.7-1.5-1.5-1.5S6.5,12.2,6.5,13v1.5h3V13z"/>
	<path class="st0" d="M11.5,21.5V12c0-1.9,1.6-3.5,3.5-3.5s3.5,1.6,3.5,3.5v9.5"/>
	<path class="st0" d="M16.5,12c0-0.8-0.7-1.5-1.5-1.5s-1.5,0.7-1.5,1.5v1.5h3V12z"/>
	<polyline class="st0" points="17.5,2.5 17.5,4.5 18.5,4.5 	"/>
	<circle class="st0" cx="17.5" cy="4" r="3"/>
	<path class="st0" d="M2.5,11.5C2.9,9,5.1,7,7.8,7C8.6,7,9.3,7.2,10,7.5"/>
	<path class="st0" d="M19.2,8c0.8,0.9,1.3,2.2,1.3,3.5c0,0.5-0.1,1-0.2,1.5"/>
	<path class="st0" d="M12,6.9c0.5-0.3,1-0.5,1.5-0.7"/>
</g>
</svg>
