<?xml version="1.0" encoding="utf-8"?>
<!-- Generator: Adobe Illustrator 19.2.0, SVG Export Plug-In . SVG Version: 6.00 Build 0)  -->
<svg version="1.1" id="Outline_Icons" xmlns="http://www.w3.org/2000/svg" xmlns:xlink="http://www.w3.org/1999/xlink" x="0px"
	 y="0px" viewBox="0 0 24 24" style="enable-background:new 0 0 24 24;" xml:space="preserve">
<style type="text/css">
	.st0{fill:none;stroke:#000000;stroke-linecap:round;stroke-linejoin:round;stroke-miterlimit:10;}
</style>
<g>
	<path class="st0" d="M19.5,20.5V11c0-1.9-1.6-3.5-3.5-3.5s-3.5,1.6-3.5,3.5v9.5"/>
	<path class="st0" d="M14.5,11c0-0.8,0.7-1.5,1.5-1.5c0.8,0,1.5,0.7,1.5,1.5v1.5h-3V11z"/>
	<path class="st0" d="M12.5,20.5V11c0-1.9-1.6-3.5-3.5-3.5S5.5,9.1,5.5,11v9.5"/>
	<path class="st0" d="M7.5,11c0-0.8,0.7-1.5,1.5-1.5s1.5,0.7,1.5,1.5v1.5h-3V11z"/>
	<polyline class="st0" points="3,8 0.5,7 1,4 	"/>
	<path class="st0" d="M23.5,6.9C20.9,5.2,16.7,4,12,4S3.1,5.2,0.5,7"/>
</g>
</svg>
