<?xml version="1.0" encoding="utf-8"?>
<!-- Generator: Adobe Illustrator 19.2.0, SVG Export Plug-In . SVG Version: 6.00 Build 0)  -->
<svg version="1.1" id="Layer_1" xmlns="http://www.w3.org/2000/svg" xmlns:xlink="http://www.w3.org/1999/xlink" x="0px" y="0px"
	 viewBox="0 0 24 24" style="enable-background:new 0 0 24 24;" xml:space="preserve">
<style type="text/css">
	.st0{display:none;}
	.st1{display:inline;}
	.st2{fill:none;stroke:#000000;stroke-linecap:round;stroke-linejoin:round;stroke-miterlimit:10;}
</style>
<g id="Filled_Icon" class="st0">
	<g class="st1">
		<path d="M9.8,2.9l1.7-1.4V5c0,0.3,0.2,0.5,0.5,0.5s0.5-0.2,0.5-0.5V1.5l1.7,1.4C14.3,3,14.4,3,14.5,3s0.3-0.1,0.4-0.2
			c0.2-0.2,0.1-0.5-0.1-0.7l-2.5-2c-0.2-0.1-0.4-0.2-0.6,0l-2.5,2C9,2.3,8.9,2.6,9.1,2.8C9.3,3,9.6,3.1,9.8,2.9z"/>
		<path d="M14.2,21.1l-1.7,1.4V19c0-0.3-0.2-0.5-0.5-0.5s-0.5,0.2-0.5,0.5v3.5l-1.7-1.4c-0.2-0.2-0.5-0.1-0.7,0.1S9,21.7,9.2,21.9
			l2.5,2c0.2,0.1,0.4,0.2,0.6,0l2.5-2c0.2-0.2,0.2-0.5,0.1-0.7S14.4,20.9,14.2,21.1z"/>
		<path d="M3,11.5H1.5l1.4-1.7C3.1,9.6,3,9.3,2.8,9.1C2.6,8.9,2.3,9,2.1,9.2l-2,2.5c-0.1,0.2-0.1,0.4,0,0.6l2,2.5
			C2.2,14.9,2.4,15,2.5,15s0.2,0,0.3-0.1C3,14.7,3,14.4,2.9,14.2l-1.4-1.7H3c0.3,0,0.5-0.2,0.5-0.5S3.3,11.5,3,11.5z"/>
		<path d="M23.9,11.7l-2-2.5c-0.2-0.2-0.5-0.3-0.7-0.1s-0.3,0.5-0.1,0.7l1.3,1.7H21c-0.3,0-0.5,0.2-0.5,0.5s0.2,0.5,0.5,0.5h1.5
			l-1.3,1.7c-0.2,0.2-0.1,0.5,0.1,0.7c0.1,0.1,0.2,0.1,0.3,0.1c0.1,0,0.3-0.1,0.4-0.2l2-2.5C24,12.1,24,11.9,23.9,11.7z"/>
		<path d="M15.5,8C14,8,12.7,8.8,12,10.1C11.3,8.8,10,8,8.5,8c-2.2,0-4,1.8-4,4v4.5C4.5,16.8,4.7,17,5,17h7h7c0.3,0,0.5-0.2,0.5-0.5
			V12C19.5,9.8,17.7,8,15.5,8z M10.5,13.5c0,0.3-0.2,0.5-0.5,0.5H7c-0.3,0-0.5-0.2-0.5-0.5V12c0-1.1,0.9-2,2-2s2,0.9,2,2V13.5z
			 M17.5,13.5c0,0.3-0.2,0.5-0.5,0.5h-3c-0.3,0-0.5-0.2-0.5-0.5V12c0-1.1,0.9-2,2-2s2,0.9,2,2V13.5z"/>
	</g>
</g>
<g id="Outline_Icons">
	<g>
		<line class="st2" x1="11.5" y1="1" x2="11.5" y2="5.5"/>
		<polyline class="st2" points="9,3 11.5,1 14,3 		"/>
		<line class="st2" x1="11.5" y1="23.5" x2="11.5" y2="19"/>
		<polyline class="st2" points="9,21.5 11.5,23.5 14,21.5 		"/>
		<line class="st2" x1="0.5" y1="12.5" x2="3" y2="12.5"/>
		<polyline class="st2" points="2.5,15 0.5,12.5 2.5,10 		"/>
		<line class="st2" x1="22.5" y1="12.5" x2="20" y2="12.5"/>
		<polyline class="st2" points="20.5,15 22.5,12.5 20.5,10 		"/>
		<path class="st2" d="M4.5,16.5V12c0-1.9,1.6-3.5,3.5-3.5s3.5,1.6,3.5,3.5v4.5"/>
		<path class="st2" d="M9.5,12c0-0.8-0.7-1.5-1.5-1.5S6.5,11.2,6.5,12v1.5h3V12z"/>
		<path class="st2" d="M11.5,16.5V12c0-1.9,1.6-3.5,3.5-3.5s3.5,1.6,3.5,3.5v4.5"/>
		<path class="st2" d="M16.5,12c0-0.8-0.7-1.5-1.5-1.5s-1.5,0.7-1.5,1.5v1.5h3V12z"/>
	</g>
</g>
</svg>
