<?xml version="1.0" encoding="utf-8"?>
<!-- Generator: Adobe Illustrator 19.2.0, SVG Export Plug-In . SVG Version: 6.00 Build 0)  -->
<svg version="1.1" id="Layer_1" xmlns="http://www.w3.org/2000/svg" xmlns:xlink="http://www.w3.org/1999/xlink" x="0px" y="0px"
	 viewBox="0 0 24 24" style="enable-background:new 0 0 24 24;" xml:space="preserve">
<style type="text/css">
	.st0{display:none;}
	.st1{display:inline;}
	.st2{fill:none;stroke:#000000;stroke-linecap:round;stroke-linejoin:round;stroke-miterlimit:10;}
</style>
<g id="Filled_Icon" class="st0">
	<g class="st1">
		<path d="M15.5,8C14,8,12.7,8.8,12,10.1C11.3,8.8,10,8,8.5,8c-2.2,0-4,1.8-4,4v4.5C4.5,16.8,4.7,17,5,17h7h7c0.3,0,0.5-0.2,0.5-0.5
			V12C19.5,9.8,17.7,8,15.5,8z M10.5,13.5c0,0.3-0.2,0.5-0.5,0.5H7c-0.3,0-0.5-0.2-0.5-0.5V12c0-1.1,0.9-2,2-2s2,0.9,2,2V13.5z
			 M17.5,13.5c0,0.3-0.2,0.5-0.5,0.5h-3c-0.3,0-0.5-0.2-0.5-0.5V12c0-1.1,0.9-2,2-2s2,0.9,2,2V13.5z"/>
		<path d="M3,11H1.5l1.4-1.7C3.1,9.1,3,8.8,2.8,8.6C2.6,8.4,2.3,8.5,2.1,8.7l-2,2.5c-0.1,0.2-0.1,0.4,0,0.6l2,2.5
			c0.1,0.1,0.2,0.2,0.4,0.2c0.1,0,0.2,0,0.3-0.1C3,14.2,3,13.9,2.9,13.7L1.5,12H3c0.3,0,0.5-0.2,0.5-0.5S3.3,11,3,11z"/>
		<path d="M23.9,11.2l-2-2.5c-0.2-0.2-0.5-0.3-0.7-0.1s-0.3,0.5-0.1,0.7l1.3,1.7H21c-0.3,0-0.5,0.2-0.5,0.5S20.7,12,21,12h1.5
			l-1.3,1.7c-0.2,0.2-0.1,0.5,0.1,0.7c0.1,0.1,0.2,0.1,0.3,0.1c0.1,0,0.3-0.1,0.4-0.2l2-2.5C24,11.6,24,11.4,23.9,11.2z"/>
	</g>
</g>
<g id="Outline_Icons">
	<g>
		<line class="st2" x1="0.5" y1="11.5" x2="3" y2="11.5"/>
		<polyline class="st2" points="2.5,14 0.5,11.5 2.5,9 		"/>
		<line class="st2" x1="22.5" y1="11.5" x2="20" y2="11.5"/>
		<polyline class="st2" points="20.5,14 22.5,11.5 20.5,9 		"/>
		<path class="st2" d="M4.5,15.5V11c0-1.9,1.6-3.5,3.5-3.5s3.5,1.6,3.5,3.5v4.5"/>
		<path class="st2" d="M9.5,11c0-0.8-0.7-1.5-1.5-1.5S6.5,10.2,6.5,11v1.5h3V11z"/>
		<path class="st2" d="M11.5,15.5V11c0-1.9,1.6-3.5,3.5-3.5s3.5,1.6,3.5,3.5v4.5"/>
		<path class="st2" d="M16.5,11c0-0.8-0.7-1.5-1.5-1.5s-1.5,0.7-1.5,1.5v1.5h3V11z"/>
	</g>
</g>
</svg>
