<?xml version="1.0" encoding="utf-8"?>
<!-- Generator: Adobe Illustrator 19.2.0, SVG Export Plug-In . SVG Version: 6.00 Build 0)  -->
<svg version="1.1" id="Outline_Icons" xmlns="http://www.w3.org/2000/svg" xmlns:xlink="http://www.w3.org/1999/xlink" x="0px"
	 y="0px" viewBox="0 0 24 24" style="enable-background:new 0 0 24 24;" xml:space="preserve">
<style type="text/css">
	.st0{fill:none;stroke:#000000;stroke-linecap:round;stroke-linejoin:round;stroke-miterlimit:10;}
</style>
<g>
	<path class="st0" d="M5.5,21.5V12c0-1.9,1.6-3.5,3.5-3.5s3.5,1.6,3.5,3.5v9.5"/>
	<path class="st0" d="M10.5,12c0-0.8-0.7-1.5-1.5-1.5S7.5,11.2,7.5,12v1.5h3V12z"/>
	<path class="st0" d="M12.5,21.5V11c0-1.9,1.6-3.5,3.5-3.5s3.5,1.6,3.5,3.5v10.5"/>
	<path class="st0" d="M17.5,11c0-0.8-0.7-1.5-1.5-1.5c-0.8,0-1.5,0.7-1.5,1.5v1.5h3V11z"/>
	<path class="st0" d="M3.5,11.8c0-0.2,0-0.4,0-0.5c0-0.2,0-0.5,0-0.7C3.9,8,6.1,6,8.8,6c0.8,0,1.6,0.2,2.2,0.5"/>
	<path class="st0" d="M13,5.9C13.9,5.3,14.9,5,16,5c3,0,5.5,2.5,5.5,5.5c0,0.5-0.1,1-0.2,1.5"/>
</g>
</svg>
