<?xml version="1.0" encoding="utf-8"?>
<!-- Generator: Adobe Illustrator 19.2.0, SVG Export Plug-In . SVG Version: 6.00 Build 0)  -->
<svg version="1.1" id="Layer_1" xmlns="http://www.w3.org/2000/svg" xmlns:xlink="http://www.w3.org/1999/xlink" x="0px" y="0px"
	 viewBox="0 0 24 24" style="enable-background:new 0 0 24 24;" xml:space="preserve">
<style type="text/css">
	.st0{display:none;}
	.st1{display:inline;}
	.st2{fill:none;stroke:#000000;stroke-linecap:round;stroke-linejoin:round;stroke-miterlimit:10;}
</style>
<g id="Filled_Icon" class="st0">
	<g class="st1">
		<path d="M15,8c-1.5,0-2.8,0.8-3.5,2.1C10.8,8.8,9.5,8,8,8c-2.2,0-4,1.8-4,4v4.5C4,16.8,4.2,17,4.5,17h7h7c0.3,0,0.5-0.2,0.5-0.5
			V12C19,9.8,17.2,8,15,8z M10,13.5c0,0.3-0.2,0.5-0.5,0.5h-3C6.2,14,6,13.8,6,13.5V12c0-1.1,0.9-2,2-2s2,0.9,2,2V13.5z M17,13.5
			c0,0.3-0.2,0.5-0.5,0.5h-3c-0.3,0-0.5-0.2-0.5-0.5V12c0-1.1,0.9-2,2-2s2,0.9,2,2V13.5z"/>
		<path d="M9.3,2.9L11,1.5V5c0,0.3,0.2,0.5,0.5,0.5S12,5.3,12,5V1.5l1.7,1.4C13.8,3,13.9,3,14,3s0.3-0.1,0.4-0.2
			c0.2-0.2,0.1-0.5-0.1-0.7l-2.5-2c-0.2-0.1-0.4-0.1-0.6,0l-2.5,2C8.5,2.3,8.4,2.6,8.6,2.8C8.8,3,9.1,3.1,9.3,2.9z"/>
		<path d="M13.7,21.1L12,22.5V19c0-0.3-0.2-0.5-0.5-0.5S11,18.7,11,19v3.5l-1.7-1.4c-0.2-0.2-0.5-0.1-0.7,0.1s-0.1,0.5,0.1,0.7
			l2.5,2c0.2,0.1,0.4,0.2,0.6,0l2.5-2c0.2-0.2,0.2-0.5,0.1-0.7C14.2,21,13.9,20.9,13.7,21.1z"/>
	</g>
</g>
<g id="Outline_Icons">
	<g>
		<line class="st2" x1="11.5" y1="0.5" x2="11.5" y2="5"/>
		<polyline class="st2" points="9,2.5 11.5,0.5 14,2.5 		"/>
		<line class="st2" x1="11.5" y1="23.5" x2="11.5" y2="19"/>
		<polyline class="st2" points="9,21.5 11.5,23.5 14,21.5 		"/>
		<path class="st2" d="M4.5,16.5V12c0-1.9,1.6-3.5,3.5-3.5s3.5,1.6,3.5,3.5v4.5"/>
		<path class="st2" d="M9.5,12c0-0.8-0.7-1.5-1.5-1.5S6.5,11.2,6.5,12v1.5h3V12z"/>
		<path class="st2" d="M11.5,16.5V12c0-1.9,1.6-3.5,3.5-3.5s3.5,1.6,3.5,3.5v4.5"/>
		<path class="st2" d="M16.5,12c0-0.8-0.7-1.5-1.5-1.5s-1.5,0.7-1.5,1.5v1.5h3V12z"/>
	</g>
</g>
</svg>
