<?xml version="1.0" encoding="utf-8"?>
<!-- Generator: Adobe Illustrator 19.2.0, SVG Export Plug-In . SVG Version: 6.00 Build 0)  -->
<svg version="1.1" id="Layer_1" xmlns="http://www.w3.org/2000/svg" xmlns:xlink="http://www.w3.org/1999/xlink" x="0px" y="0px"
	 viewBox="0 0 24 24" style="enable-background:new 0 0 24 24;" xml:space="preserve">
<style type="text/css">
	.st0{display:none;}
	.st1{display:inline;}
	.st2{fill:none;stroke:#000000;stroke-linecap:round;stroke-linejoin:round;stroke-miterlimit:10;}
</style>
<g id="Filled_Icons" class="st0">
	<g class="st1">
		<path d="M17,11.5c0,0.6,0.2,1.1,0.5,1.5c-1.3,0.8-3,2-5.5,2c-2.5,0-4.2-1.1-5.5-2C6.8,12.6,7,12.1,7,11.5C7,10.1,5.9,9,4.5,9
			C3.1,9,2,10.1,2,11.5c0,1.2,0.9,2.2,2,2.5v3h16v-3c1.1-0.2,2-1.2,2-2.5c0-1.4-1.1-2.5-2.5-2.5C18.1,9,17,10.1,17,11.5z"/>
		<path d="M23.5,5H23V2.5C23,2.2,22.8,2,22.5,2C22.2,2,22,2.2,22,2.5V3h-2V2c0-1.1-1.1-2-2.5-2h-11C5.1,0,4,0.9,4,2v1H2V2.5
			C2,2.2,1.8,2,1.5,2C1.2,2,1,2.2,1,2.5C1,5.5,1,5,1,5H0.5C0.2,5,0,5.2,0,5.5C0,5.8,0.2,6,0.5,6H1c0,0,0-1.2,0,3.5
			C1,9.8,1.2,10,1.5,10C1.8,10,2,9.8,2,9.5V9h2.5h15H22v0.5c0,0.3,0.2,0.5,0.5,0.5c0.3,0,0.5-0.2,0.5-0.5V6h0.5
			C23.8,6,24,5.8,24,5.5C24,5.2,23.8,5,23.5,5z M19,3H5V2c0-0.5,0.7-1,1.5-1h11C18.3,1,19,1.5,19,2V3z"/>
		<path d="M4,21.5C4,22.9,5.1,24,6.5,24h11c1.4,0,2.5-1.1,2.5-2.5V18H4V21.5z M16.5,19h1v1h-1V19z M16.5,22h-1v-1h1V22z M14.5,19h1
			v1h-1V19z M14.5,22h-1v-1h1V22z M12.5,19h1v1h-1V19z M12.5,22h-1v-1h1V22z M10.5,19h1v1h-1V19z M10.5,22h-1v-1h1V22z M8.5,19h1v1
			h-1V19z M8.5,22h-1v-1h1V22z M6.5,19h1v1h-1V19z"/>
	</g>
</g>
<g id="Outline_Icons">
	<g>
		<path class="st2" d="M19.5,13.5v8c0,1.1-0.9,2-2,2h-11c-1.1,0-2-0.9-2-2v-8"/>
		<g>
			<g>
				<g>
					<polygon points="7,19 6,19 6,20 7,20 					"/>
				</g>
			</g>
		</g>
		<g>
			<g>
				<g>
					<polygon points="9,19 8,19 8,20 9,20 					"/>
				</g>
			</g>
		</g>
		<g>
			<g>
				<g>
					<polygon points="11,19 10,19 10,20 11,20 					"/>
				</g>
			</g>
		</g>
		<g>
			<g>
				<g>
					<polygon points="13,19 12,19 12,20 13,20 					"/>
				</g>
			</g>
		</g>
		<g>
			<g>
				<g>
					<polygon points="15,19 14,19 14,20 15,20 					"/>
				</g>
			</g>
		</g>
		<g>
			<g>
				<g>
					<polygon points="17,19 16,19 16,20 17,20 					"/>
				</g>
			</g>
		</g>
		<g>
			<g>
				<g>
					<polygon points="8,21 7,21 7,22 8,22 					"/>
				</g>
			</g>
		</g>
		<g>
			<g>
				<g>
					<polygon points="10,21 9,21 9,22 10,22 					"/>
				</g>
			</g>
		</g>
		<g>
			<g>
				<g>
					<polygon points="12,21 11,21 11,22 12,22 					"/>
				</g>
			</g>
		</g>
		<g>
			<g>
				<g>
					<polygon points="14,21 13,21 13,22 14,22 					"/>
				</g>
			</g>
		</g>
		<g>
			<g>
				<g>
					<polygon points="16,21 15,21 15,22 16,22 					"/>
				</g>
			</g>
		</g>
		<g>
			<g>
				<g>
					<polygon points="18,21 17,21 17,22 18,22 					"/>
				</g>
			</g>
		</g>
		<line class="st2" x1="4.5" y1="17.5" x2="19.5" y2="17.5"/>
		<circle class="st2" cx="4.5" cy="11.5" r="2"/>
		<circle class="st2" cx="19.5" cy="11.5" r="2"/>
		<rect x="1.5" y="3.5" class="st2" width="21" height="5"/>
		<line class="st2" x1="22.5" y1="2.5" x2="22.5" y2="9.5"/>
		<line class="st2" x1="1.5" y1="2.5" x2="1.5" y2="9.5"/>
		<line class="st2" x1="0.5" y1="5.5" x2="1.5" y2="5.5"/>
		<line class="st2" x1="22.5" y1="5.5" x2="23.5" y2="5.5"/>
		<path class="st2" d="M19.5,3.5c0,0,0-0.7,0-1.5c0-0.8-0.9-1.5-2-1.5h-11c-1.1,0-2,0.7-2,1.5c0,0.8,0,1.5,0,1.5"/>
		<path class="st2" d="M18.3,13.1C17,13.9,15,15.5,12,15.5s-5-1.6-6.3-2.4"/>
	</g>
</g>
</svg>
