<?xml version="1.0" encoding="utf-8"?>
<!-- Generator: Adobe Illustrator 19.2.0, SVG Export Plug-In . SVG Version: 6.00 Build 0)  -->
<svg version="1.1" id="Layer_1" xmlns="http://www.w3.org/2000/svg" xmlns:xlink="http://www.w3.org/1999/xlink" x="0px" y="0px"
	 viewBox="0 0 24 24" style="enable-background:new 0 0 24 24;" xml:space="preserve">
<style type="text/css">
	.st0{display:none;}
	.st1{display:inline;}
	.st2{fill:none;stroke:#000000;stroke-linecap:round;stroke-linejoin:round;stroke-miterlimit:10;}
	.st3{fill:none;stroke:#000000;stroke-linejoin:round;stroke-miterlimit:10;}
</style>
<g id="Filled_Icons" class="st0">
	<g class="st1">
		<path d="M23.5,13H23v-1.5v-1c0-0.3-0.2-0.5-0.5-0.5c-0.3,0-0.5,0.2-0.5,0.5V11H2v-0.5C2,10.2,1.8,10,1.5,10C1.2,10,1,10.2,1,10.5
			v1V13H0.5C0.2,13,0,13.2,0,13.5C0,13.8,0.2,14,0.5,14H1v1.5v1C1,16.8,1.2,17,1.5,17C1.8,17,2,16.8,2,16.5V16h1
			c0.2-1.1,1.2-2,2.5-2h4h5h4c1.2,0,2.2,0.9,2.4,2H22v0.5c0,0.3,0.2,0.5,0.5,0.5c0.3,0,0.5-0.2,0.5-0.5v-1V14h0.5
			c0.3,0,0.5-0.2,0.5-0.5C24,13.2,23.8,13,23.5,13z"/>
		<path d="M5.5,10h13c0.3,0,0.5-0.2,0.5-0.5v-6c0-0.1-0.1-0.3-0.1-0.4l-2-2C16.8,1.1,16.6,1,16.5,1h-11C5.2,1,5,1.2,5,1.5v8
			C5,9.8,5.2,10,5.5,10z"/>
		<path d="M21.5,22H21h-1v-5.5c0-0.8-0.7-1.5-1.5-1.5h-3.7l-0.9,1.7c-0.1,0.2-0.3,0.3-0.4,0.3h-3c-0.2,0-0.4-0.1-0.4-0.3L9.2,15H5.5
			C4.7,15,4,15.7,4,16.5V22H3H2.5C2.2,22,2,22.2,2,22.5C2,22.8,2.2,23,2.5,23h19c0.3,0,0.5-0.2,0.5-0.5C22,22.2,21.8,22,21.5,22z
			 M6.5,21h-1C5.2,21,5,20.8,5,20.5C5,20.2,5.2,20,5.5,20h1C6.8,20,7,20.2,7,20.5C7,20.8,6.8,21,6.5,21z M6.5,18.5
			C6.5,18.2,6.7,18,7,18h1c0.3,0,0.5,0.2,0.5,0.5C8.5,18.8,8.3,19,8,19H7C6.7,19,6.5,18.8,6.5,18.5z M9.5,21h-1
			C8.2,21,8,20.8,8,20.5C8,20.2,8.2,20,8.5,20h1c0.3,0,0.5,0.2,0.5,0.5C10,20.8,9.8,21,9.5,21z M9.5,18.5c0-0.3,0.2-0.5,0.5-0.5h1
			c0.3,0,0.5,0.2,0.5,0.5c0,0.3-0.2,0.5-0.5,0.5h-1C9.7,19,9.5,18.8,9.5,18.5z M12.5,21h-1c-0.3,0-0.5-0.2-0.5-0.5
			c0-0.3,0.2-0.5,0.5-0.5h1c0.3,0,0.5,0.2,0.5,0.5C13,20.8,12.8,21,12.5,21z M12.5,18.5c0-0.3,0.2-0.5,0.5-0.5h1
			c0.3,0,0.5,0.2,0.5,0.5c0,0.3-0.2,0.5-0.5,0.5h-1C12.7,19,12.5,18.8,12.5,18.5z M15.5,21h-1c-0.3,0-0.5-0.2-0.5-0.5
			c0-0.3,0.2-0.5,0.5-0.5h1c0.3,0,0.5,0.2,0.5,0.5C16,20.8,15.8,21,15.5,21z M15.5,18.5c0-0.3,0.2-0.5,0.5-0.5h1
			c0.3,0,0.5,0.2,0.5,0.5c0,0.3-0.2,0.5-0.5,0.5h-1C15.7,19,15.5,18.8,15.5,18.5z M18.5,21h-1c-0.3,0-0.5-0.2-0.5-0.5
			c0-0.3,0.2-0.5,0.5-0.5h1c0.3,0,0.5,0.2,0.5,0.5C19,20.8,18.8,21,18.5,21z"/>
	</g>
</g>
<g id="Outline_Icons">
	<g>
		<line class="st2" x1="2.5" y1="22.5" x2="21.5" y2="22.5"/>
		<path class="st2" d="M20.5,22.5v-6c0-1.1-0.9-2-2-2h-13c-1.1,0-2,0.9-2,2v6"/>
		<line class="st2" x1="7" y1="18.5" x2="8" y2="18.5"/>
		<line class="st2" x1="10" y1="18.5" x2="11" y2="18.5"/>
		<line class="st2" x1="13" y1="18.5" x2="14" y2="18.5"/>
		<line class="st2" x1="16" y1="18.5" x2="17" y2="18.5"/>
		<line class="st2" x1="5.5" y1="20.5" x2="6.5" y2="20.5"/>
		<line class="st2" x1="8.5" y1="20.5" x2="9.5" y2="20.5"/>
		<line class="st2" x1="11.5" y1="20.5" x2="12.5" y2="20.5"/>
		<line class="st2" x1="14.5" y1="20.5" x2="15.5" y2="20.5"/>
		<line class="st2" x1="17.5" y1="20.5" x2="18.5" y2="20.5"/>
		<polyline class="st3" points="20.2,15.5 22.5,15.5 22.5,11.5 1.5,11.5 1.5,15.5 3.8,15.5 		"/>
		<line class="st2" x1="1.5" y1="10.5" x2="1.5" y2="16.5"/>
		<line class="st2" x1="22.5" y1="10.5" x2="22.5" y2="16.5"/>
		<line class="st2" x1="0.5" y1="13.5" x2="1.5" y2="13.5"/>
		<line class="st2" x1="22.5" y1="13.5" x2="23.5" y2="13.5"/>
		<polygon class="st2" points="16.5,1.5 5.5,1.5 5.5,11.5 18.5,11.5 18.5,3.5 		"/>
		<polygon class="st2" points="13.5,16.5 10.5,16.5 9.5,14.5 14.5,14.5 		"/>
	</g>
</g>
</svg>
