<?xml version="1.0" encoding="utf-8"?>
<!-- Generator: Adobe Illustrator 19.2.0, SVG Export Plug-In . SVG Version: 6.00 Build 0)  -->
<svg version="1.1" id="Layer_1" xmlns="http://www.w3.org/2000/svg" xmlns:xlink="http://www.w3.org/1999/xlink" x="0px" y="0px"
	 viewBox="0 0 24 24" style="enable-background:new 0 0 24 24;" xml:space="preserve">
<style type="text/css">
	.st0{display:none;}
	.st1{display:inline;}
	.st2{fill:none;stroke:#000000;stroke-linejoin:round;stroke-miterlimit:10;}
	.st3{fill:none;stroke:#000000;stroke-linecap:round;stroke-linejoin:round;stroke-miterlimit:10;}
</style>
<g id="Filled_Icons" class="st0">
	<g class="st1">
		<g>
			<path d="M20,8c-0.2-4.6-3.3-7.5-8-7.5C7.3,0.5,4.2,3.4,4,8H20z M6.5,5.8C7.4,3.7,9.4,2.5,12,2.5c0.3,0,0.5,0.2,0.5,0.5
				S12.3,3.5,12,3.5c-2.2,0-3.8,1-4.6,2.7C7.4,6.4,7.2,6.5,7,6.5c-0.1,0-0.1,0-0.2,0C6.5,6.4,6.4,6.1,6.5,5.8z"/>
			<path d="M23.9,13.2L20.5,9H3.5l-3.3,4.2C0,13.3,0,13.5,0,13.7C0.1,13.9,0.3,14,0.5,14h23c0.2,0,0.4-0.1,0.5-0.3
				C24.1,13.5,24,13.3,23.9,13.2z M6,12.5c-0.8,0-1.5-0.7-1.5-1.5S5.2,9.5,6,9.5s1.5,0.7,1.5,1.5C7.5,11.8,6.8,12.5,6,12.5z
				 M12,12.5c-0.8,0-1.5-0.7-1.5-1.5s0.7-1.5,1.5-1.5s1.5,0.7,1.5,1.5C13.5,11.8,12.8,12.5,12,12.5z M18,12.5
				c-0.8,0-1.5-0.7-1.5-1.5s0.7-1.5,1.5-1.5s1.5,0.7,1.5,1.5C19.5,11.8,18.8,12.5,18,12.5z"/>
		</g>
		<g>
			<path d="M17,15H7l-4.9,8.2c-0.1,0.2-0.1,0.3,0,0.5C2.2,23.9,2.3,24,2.5,24h19c0.2,0,0.3-0.1,0.4-0.3c0.1-0.2,0.1-0.4,0-0.5L17,15
				z M12.5,16c0.6,0,1,0.4,1,1c0,0.6-0.4,1-1,1c-0.6,0-1-0.4-1-1C11.5,16.5,11.9,16,12.5,16z M14.4,22.2c0.2,0.2,0.1,0.5-0.1,0.7
				C14.2,23,14.1,23,14,23c-0.2,0-0.3-0.1-0.4-0.2l-1.1-1.5l-1.1,1.5c-0.1,0.1-0.3,0.2-0.4,0.2c-0.1,0-0.2,0-0.3-0.1
				c-0.2-0.2-0.3-0.5-0.1-0.7l1.4-1.9v-0.8h-1c-0.3,0-0.5-0.2-0.5-0.5s0.2-0.5,0.5-0.5h3c0.3,0,0.5,0.2,0.5,0.5s-0.2,0.5-0.5,0.5h-1
				v0.8L14.4,22.2z"/>
		</g>
	</g>
</g>
<g id="Outline_Icons">
	<g>
		<g>
			<polygon class="st2" points="19.5,8.5 23.5,13.5 0.5,13.5 4.5,8.5 			"/>
			<path class="st2" d="M4.5,8.5C4.5,3.5,7.9,1,12,1c4.1,0,7.5,2.5,7.5,7.5H4.5z"/>
			<path class="st3" d="M7,6c0.9-2,2.8-3,5-3"/>
			<polyline class="st3" points="2.5,23.5 8.5,13.5 15.5,13.5 21.5,23.5 			"/>
			<circle class="st2" cx="6" cy="11" r="1"/>
			<circle class="st2" cx="12" cy="11" r="1"/>
			<circle class="st2" cx="18" cy="11" r="1"/>
		</g>
		<g>
			<line class="st3" x1="12.5" y1="20" x2="11" y2="22.1"/>
			<line class="st3" x1="14" y1="22" x2="12.5" y2="20"/>
			<line class="st3" x1="11" y1="18.5" x2="14" y2="18.5"/>
			<circle class="st3" cx="12.5" cy="16.5" r="0.5"/>
		</g>
		<line class="st3" x1="12.5" y1="20" x2="12.5" y2="18.5"/>
	</g>
</g>
</svg>
