<?xml version="1.0" encoding="utf-8"?>
<!-- Generator: Adobe Illustrator 19.2.0, SVG Export Plug-In . SVG Version: 6.00 Build 0)  -->
<svg version="1.1" id="Layer_1" xmlns="http://www.w3.org/2000/svg" xmlns:xlink="http://www.w3.org/1999/xlink" x="0px" y="0px"
	 viewBox="0 0 24 24" style="enable-background:new 0 0 24 24;" xml:space="preserve">
<style type="text/css">
	.st0{display:none;}
	.st1{display:inline;}
	.st2{fill:none;stroke:#000000;stroke-linecap:round;stroke-linejoin:round;stroke-miterlimit:10;}
	.st3{fill:none;stroke:#000000;stroke-linejoin:round;stroke-miterlimit:10;}
</style>
<g id="Filled_Icon" class="st0">
	<path class="st1" d="M17.5,18.3l-5-15C12.4,3.1,12.2,3,12,3l0,0V0.9c0-0.3-0.2-0.5-0.5-0.5S11,0.6,11,0.9V3c-0.2,0-0.4,0.1-0.5,0.3
		l-5,15c-0.1,0.2,0,0.3,0.1,0.5C5.7,18.9,5.8,19,6,19h5v3.4c0,1.1,0.9,1.6,1.8,1.6c0.9,0,1.8-0.6,1.8-1.6c0-0.3-0.2-0.5-0.5-0.5
		s-0.5,0.2-0.5,0.5c0,0.6-0.7,0.6-0.8,0.6S12,23,12,22.4V19h5c0.2,0,0.3-0.1,0.4-0.2C17.5,18.7,17.5,18.5,17.5,18.3z"/>
</g>
<g id="Outline_Icons">
	<g>
		<line class="st2" x1="11.5" y1="3.6" x2="11.5" y2="1"/>
		<path class="st2" d="M14,22.5c0,1.5-2.5,1.5-2.5,0v-3.9"/>
		<polygon class="st3" points="11,3.6 12,3.6 17,18.6 6,18.6 		"/>
	</g>
</g>
</svg>
