<?xml version="1.0" encoding="utf-8"?>
<!-- Generator: Adobe Illustrator 19.2.0, SVG Export Plug-In . SVG Version: 6.00 Build 0)  -->
<svg version="1.1" id="Layer_1" xmlns="http://www.w3.org/2000/svg" xmlns:xlink="http://www.w3.org/1999/xlink" x="0px" y="0px"
	 viewBox="0 0 24 24" style="enable-background:new 0 0 24 24;" xml:space="preserve">
<style type="text/css">
	.st0{display:none;}
	.st1{display:inline;}
	.st2{fill:none;stroke:#000000;stroke-linejoin:round;stroke-miterlimit:10;}
	.st3{fill:none;stroke:#000000;stroke-linecap:round;stroke-linejoin:round;stroke-miterlimit:10;}
</style>
<g id="Filled_Icon" class="st0">
	<path class="st1" d="M20.7,5.7c-2.2-2.3-5.1-3.6-8.2-3.7V0.5C12.5,0.2,12.3,0,12,0s-0.5,0.2-0.5,0.5V2c-3.1,0.1-6,1.4-8.2,3.7
		C1,8.1-0.1,11.2,0,14.5C0,14.8,0.2,15,0.5,15l0,0C0.8,15,1,14.8,1,14.5C1,14.3,1.1,13,3,13c2.1,0,2.5,1.6,2.5,1.6
		C5.6,14.8,5.8,15,6,15s0.4-0.2,0.5-0.4c0,0,0.4-1.6,2.5-1.6c1.9,0,2.4,1.3,2.5,1.6V22c0,1.1,0.9,1.6,1.8,1.6c0.9,0,1.8-0.6,1.8-1.6
		c0-0.3-0.2-0.5-0.5-0.5s-0.5,0.2-0.5,0.5c0,0.6-0.7,0.6-0.8,0.6s-0.8,0-0.8-0.6v-7.4c0.2-0.4,1.1-1.6,2.5-1.6
		c1.7,0,2.5,1.7,2.6,1.7c0.1,0.2,0.3,0.3,0.4,0.3c0.2,0,0.4-0.1,0.4-0.3c0,0,0.9-1.7,2.6-1.7c1.6,0,2,1.5,2,1.6
		c0.1,0.2,0.3,0.4,0.5,0.4l0,0c0.2,0,0.4-0.2,0.5-0.5C24.1,11.2,23,8.1,20.7,5.7z"/>
</g>
<g id="Outline_Icons">
	<g>
		<path class="st2" d="M22.5,14.5c0.3-6.5-4.5-12-11-12s-11.3,5.4-11,12c0,0,0-2,2.5-2s2.5,2,2.5,2s0.5-2,3-2s3,2,3,2s1-2,3-2
			s3,2,3,2s0.5-2,2.5-2S22.5,14.5,22.5,14.5z"/>
		<line class="st3" x1="11.5" y1="2.5" x2="11.5" y2="0.5"/>
		<path class="st3" d="M14,22c0,1.5-2.5,1.5-2.5,0v-7.5"/>
	</g>
</g>
</svg>
