<?xml version="1.0" encoding="utf-8"?>
<!-- Generator: Adobe Illustrator 19.2.0, SVG Export Plug-In . SVG Version: 6.00 Build 0)  -->
<svg version="1.1" id="Layer_1" xmlns="http://www.w3.org/2000/svg" xmlns:xlink="http://www.w3.org/1999/xlink" x="0px" y="0px"
	 viewBox="0 0 24 24" style="enable-background:new 0 0 24 24;" xml:space="preserve">
<style type="text/css">
	.st0{display:none;}
	.st1{display:inline;}
	.st2{fill:none;stroke:#000000;stroke-linecap:round;stroke-linejoin:round;stroke-miterlimit:10;}
</style>
<g id="Filled_Icons" class="st0">
	<g class="st1">
		<path d="M10.9,20.8c0,0.1,0.1,0.2,0.1,0.3h2c0-0.1,0-0.2,0.1-0.3c1.7-2.6,4.3-8.4,2.6-11.7H8.3C6.5,12.6,9.8,18.9,10.9,20.8z"/>
		<path d="M23,8V6.5C23,6.2,22.8,6,22.5,6h-21C1.2,6,1,6.2,1,6.5V8H23z"/>
		<path d="M7.2,9H1v7.5C1,16.8,1.2,17,1.5,17c2.4,0,5.7,0.8,7.4,2.2C7.5,16.3,6,12.1,7.2,9z"/>
		<path d="M16.8,9c1.2,3-0.2,7.2-1.7,10.2c1.8-1.4,5.1-2.2,7.4-2.2c0.1,0,0.3-0.1,0.4-0.1c0.1-0.1,0.1-0.2,0.1-0.4V9
			C23,9,16.8,9,16.8,9z"/>
	</g>
</g>
<g id="Outline_Icons">
	<g>
		<line class="st2" x1="1.5" y1="8.5" x2="22.5" y2="8.5"/>
		<path class="st2" d="M13.5,20.5c0.9-2.7,5.9-4,9-4v-10h-21v10c3.3,0,8.3,1.3,9,4H13.5z"/>
		<path class="st2" d="M10.5,20.5C8.6,17.3,6,12,8,8.6"/>
		<path class="st2" d="M13.5,20.5c1.9-3,4.5-8.4,2.5-11.9"/>
	</g>
</g>
</svg>
