<?xml version="1.0" encoding="utf-8"?>
<!-- Generator: Adobe Illustrator 19.2.0, SVG Export Plug-In . SVG Version: 6.00 Build 0)  -->
<svg version="1.1" id="Layer_1" xmlns="http://www.w3.org/2000/svg" xmlns:xlink="http://www.w3.org/1999/xlink" x="0px" y="0px"
	 viewBox="0 0 24 24" style="enable-background:new 0 0 24 24;" xml:space="preserve">
<style type="text/css">
	.st0{display:none;}
	.st1{display:inline;}
	.st2{fill:none;stroke:#000000;stroke-linejoin:round;stroke-miterlimit:10;}
	.st3{fill:none;stroke:#000000;stroke-linecap:round;stroke-linejoin:round;stroke-miterlimit:10;}
</style>
<g id="Filled_Icons" class="st0">
	<path class="st1" d="M18.8,17.3c0-1.2,0.5-2.2,0.9-3.1c0.9-2,1.9-4.1-1.3-7.4V1c0-0.6-0.4-1-1-1s-1,0.4-1,1v6.6
		c-1.7,1.8-7.3,1.8-9,0V1c0-0.6-0.4-1-1-1s-1,0.4-1,1v5.8c-3.1,3.2-2.1,5.3-1.2,7.3c0.5,1,1,2,1,3.2c0,1.7-0.4,3.3-1.2,4.8
		c-0.2,0.4-0.2,0.9,0,1.3C4.4,23.7,4.8,24,5.2,24h13.6c0.5,0,0.9-0.4,1.1-0.7c0.2-0.4,0.2-0.9,0-1.3C19.5,20.9,18.8,19.5,18.8,17.3z
		"/>
</g>
<g id="Outline_Icons">
	<g>
		<path class="st2" d="M17.5,6.5c0,4-11,4-11,0l0,0c-5.5,5-0.7,6.8-0.7,10.8c0,2.3-0.7,4-1.2,5c-0.1,0.2-0.1,0.6,0,0.8
			c0.1,0.2,0.4,0.4,0.7,0.4h13.6c0.3,0,0.5-0.2,0.7-0.5c0.1-0.2,0.1-0.6,0-0.8c-0.6-1.1-1.2-2.6-1.2-4.9C18.3,13.3,23,11.5,17.5,6.5
			L17.5,6.5z"/>
		<line class="st3" x1="6.5" y1="6.5" x2="6.5" y2="0.5"/>
		<line class="st3" x1="17.5" y1="6.5" x2="17.5" y2="0.5"/>
	</g>
</g>
</svg>
