<?xml version="1.0" encoding="utf-8"?>
<!-- Generator: Adobe Illustrator 19.2.0, SVG Export Plug-In . SVG Version: 6.00 Build 0)  -->
<svg version="1.1" id="Layer_1" xmlns="http://www.w3.org/2000/svg" xmlns:xlink="http://www.w3.org/1999/xlink" x="0px" y="0px"
	 viewBox="0 0 24 24" style="enable-background:new 0 0 24 24;" xml:space="preserve">
<style type="text/css">
	.st0{display:none;}
	.st1{display:inline;}
	.st2{fill:none;stroke:#000000;stroke-linecap:round;stroke-linejoin:round;stroke-miterlimit:10;}
</style>
<g id="Filled_Icon" class="st0">
	<g class="st1">
		<path d="M23,22H1c-0.6,0-1,0.4-1,1s0.4,1,1,1h22c0.6,0,1-0.4,1-1S23.6,22,23,22z"/>
		<path d="M1.5,2h2v9.5c0,4.7,3.8,8.5,8.5,8.5s8.5-3.8,8.5-8.5V2h2c0.6,0,1-0.4,1-1s-0.4-1-1-1h-6c-0.6,0-1,0.4-1,1s0.4,1,1,1h2v9.5
			c0,3.6-2.9,6.5-6.5,6.5s-6.5-2.9-6.5-6.5V2h2c0.6,0,1-0.4,1-1s-0.4-1-1-1h-6c-0.6,0-1,0.4-1,1S0.9,2,1.5,2z"/>
	</g>
</g>
<g id="Outline_Icons">
	<g>
		<line class="st2" x1="0.5" y1="23.5" x2="23.5" y2="23.5"/>
		<path class="st2" d="M4.5,0.5V12c0,4.1,3.4,7.5,7.5,7.5s7.5-3.4,7.5-7.5V0.5"/>
		<line class="st2" x1="1.5" y1="0.5" x2="7.5" y2="0.5"/>
		<line class="st2" x1="16.5" y1="0.5" x2="22.5" y2="0.5"/>
	</g>
</g>
</svg>
