<?xml version="1.0" encoding="utf-8"?>
<!-- Generator: Adobe Illustrator 19.2.0, SVG Export Plug-In . SVG Version: 6.00 Build 0)  -->
<svg version="1.1" id="Layer_1" xmlns="http://www.w3.org/2000/svg" xmlns:xlink="http://www.w3.org/1999/xlink" x="0px" y="0px"
	 viewBox="0 0 24 24" style="enable-background:new 0 0 24 24;" xml:space="preserve">
<style type="text/css">
	.st0{display:none;}
	.st1{display:inline;}
	.st2{fill:none;stroke:#000000;stroke-linecap:round;stroke-linejoin:round;stroke-miterlimit:10;}
</style>
<g id="Filled_Icon" class="st0">
	<path class="st1" d="M22.8,12.2c-0.5-3.3-2.3-6.2-5-8.2c-2.7-1.9-6-2.6-9.4-1.9C6,2.6,3.8,3.8,2,5.4V1c0-0.6-0.4-1-1-1S0,0.4,0,1v7
		c0,0.6,0.4,1,1,1h7c0.6,0,1-0.4,1-1S8.6,7,8,7H3.2c1.5-1.5,3.5-2.5,5.6-2.9c2.8-0.6,5.6,0,7.9,1.6s3.8,4.1,4.3,6.8
		c0.5,2.8-0.2,5.5-1.8,7.8c-0.5,0.7-1.1,1.3-1.7,1.9c-0.4,0.4-0.5,1-0.1,1.4c0.2,0.2,0.5,0.3,0.8,0.3c0.2,0,0.5-0.1,0.7-0.2
		c0.8-0.7,1.4-1.4,2-2.2C22.6,18.8,23.4,15.4,22.8,12.2z"/>
</g>
<g id="Outline_Icons">
	<g>
		<polyline class="st2" points="1.5,0.5 1.5,7.5 8.5,7.5 		"/>
		<path class="st2" d="M1.5,7.5c3.7-5.2,11-6.3,16.1-2.6c5.2,3.7,6.4,10.9,2.7,16c-0.7,1-1.6,1.9-2.6,2.6"/>
	</g>
</g>
</svg>
