<?xml version="1.0" encoding="utf-8"?>
<!-- Generator: Adobe Illustrator 19.2.0, SVG Export Plug-In . SVG Version: 6.00 Build 0)  -->
<svg version="1.1" id="Layer_1" xmlns="http://www.w3.org/2000/svg" xmlns:xlink="http://www.w3.org/1999/xlink" x="0px" y="0px"
	 viewBox="0 0 24 24" style="enable-background:new 0 0 24 24;" xml:space="preserve">
<style type="text/css">
	.st0{display:none;}
	.st1{display:inline;}
	.st2{fill:none;stroke:#000000;stroke-linecap:round;stroke-linejoin:round;stroke-miterlimit:10;}
</style>
<g id="Filled_Icon" class="st0">
	<g class="st1">
		<path d="M23,6.5h-5.5V1c0-0.6-0.4-1-1-1H1C0.4,0,0,0.4,0,1v15.5c0,0.6,0.4,1,1,1h5.5V23c0,0.6,0.4,1,1,1H23c0.6,0,1-0.4,1-1V7.5
			C24,6.9,23.6,6.5,23,6.5z M22,22H8.5v-5.5c0-0.6-0.4-1-1-1H2V2h13.5v5.5c0,0.6,0.4,1,1,1H22V22z"/>
		<path d="M8.5,7h-1C7.2,7,7,7.2,7,7.5v1C7,8.8,7.2,9,7.5,9C7.8,9,8,8.8,8,8.5V8h0.5C8.8,8,9,7.8,9,7.5C9,7.2,8.8,7,8.5,7z"/>
		<path d="M7.5,10C7.2,10,7,10.2,7,10.5v1C7,11.8,7.2,12,7.5,12C7.8,12,8,11.8,8,11.5v-1C8,10.2,7.8,10,7.5,10z"/>
		<path d="M11.5,7h-1C10.2,7,10,7.2,10,7.5C10,7.8,10.2,8,10.5,8h1C11.8,8,12,7.8,12,7.5C12,7.2,11.8,7,11.5,7z"/>
		<path d="M14.5,7h-1C13.2,7,13,7.2,13,7.5C13,7.8,13.2,8,13.5,8h1C14.8,8,15,7.8,15,7.5C15,7.2,14.8,7,14.5,7z"/>
		<path d="M10.5,16h-1C9.2,16,9,16.2,9,16.5C9,16.8,9.2,17,9.5,17h1c0.3,0,0.5-0.2,0.5-0.5C11,16.2,10.8,16,10.5,16z"/>
		<path d="M13.5,16h-1c-0.3,0-0.5,0.2-0.5,0.5c0,0.3,0.2,0.5,0.5,0.5h1c0.3,0,0.5-0.2,0.5-0.5C14,16.2,13.8,16,13.5,16z"/>
		<path d="M7.5,13C7.2,13,7,13.2,7,13.5v1C7,14.8,7.2,15,7.5,15C7.8,15,8,14.8,8,14.5v-1C8,13.2,7.8,13,7.5,13z"/>
		<path d="M16,9.5v1c0,0.3,0.2,0.5,0.5,0.5c0.3,0,0.5-0.2,0.5-0.5v-1C17,9.2,16.8,9,16.5,9C16.2,9,16,9.2,16,9.5z"/>
		<path d="M16.5,15c-0.3,0-0.5,0.2-0.5,0.5V16h-0.5c-0.3,0-0.5,0.2-0.5,0.5c0,0.3,0.2,0.5,0.5,0.5h1c0.3,0,0.5-0.2,0.5-0.5v-1
			C17,15.2,16.8,15,16.5,15z"/>
		<path d="M16.5,12c-0.3,0-0.5,0.2-0.5,0.5v1c0,0.3,0.2,0.5,0.5,0.5c0.3,0,0.5-0.2,0.5-0.5v-1C17,12.2,16.8,12,16.5,12z"/>
	</g>
</g>
<g id="Outline_Icons">
	<g>
		<g>
			<polygon class="st2" points="0.5,16.5 0.5,0.5 16.5,0.5 16.5,7.5 23.5,7.5 23.5,23.5 7.5,23.5 7.5,16.5 			"/>
		</g>
		<polyline class="st2" points="8.5,7.5 7.5,7.5 7.5,8.5 		"/>
		<line class="st2" x1="7.5" y1="10.5" x2="7.5" y2="11.5"/>
		<line class="st2" x1="11.5" y1="7.5" x2="10.5" y2="7.5"/>
		<line class="st2" x1="14.5" y1="7.5" x2="13.5" y2="7.5"/>
		<line class="st2" x1="10.5" y1="16.5" x2="9.5" y2="16.5"/>
		<line class="st2" x1="13.5" y1="16.5" x2="12.5" y2="16.5"/>
		<line class="st2" x1="7.5" y1="14.5" x2="7.5" y2="13.5"/>
		<line class="st2" x1="16.5" y1="9.5" x2="16.5" y2="10.5"/>
		<polyline class="st2" points="15.5,16.5 16.5,16.5 16.5,15.5 		"/>
		<line class="st2" x1="16.5" y1="13.5" x2="16.5" y2="12.5"/>
	</g>
</g>
</svg>
