<?xml version="1.0" encoding="utf-8"?>
<!-- Generator: Adobe Illustrator 19.2.0, SVG Export Plug-In . SVG Version: 6.00 Build 0)  -->
<svg version="1.1" id="Layer_1" xmlns="http://www.w3.org/2000/svg" xmlns:xlink="http://www.w3.org/1999/xlink" x="0px" y="0px"
	 viewBox="0 0 24 24" style="enable-background:new 0 0 24 24;" xml:space="preserve">
<style type="text/css">
	.st0{display:none;}
	.st1{display:inline;}
	.st2{fill:none;stroke:#000000;stroke-linecap:round;stroke-linejoin:round;stroke-miterlimit:10;}
</style>
<g id="Filled_Icons" class="st0">
	<path class="st1" d="M23.5,0h-23C0.2,0,0,0.2,0,0.5v23C0,23.8,0.2,24,0.5,24h23c0.3,0,0.5-0.2,0.5-0.5v-23C24,0.2,23.8,0,23.5,0z
		 M10,21.5c0,0.3-0.2,0.5-0.5,0.5C9.2,22,9,21.8,9,21.5v-2C9,19.2,9.2,19,9.5,19c0.3,0,0.5,0.2,0.5,0.5V21.5z M10,17.5
		c0,0.3-0.2,0.5-0.5,0.5C9.2,18,9,17.8,9,17.5v-2C9,15.2,9.2,15,9.5,15c0.3,0,0.5,0.2,0.5,0.5V17.5z M15,21.5c0,0.3-0.2,0.5-0.5,0.5
		c-0.3,0-0.5-0.2-0.5-0.5v-2c0-0.3,0.2-0.5,0.5-0.5c0.3,0,0.5,0.2,0.5,0.5V21.5z M15,17.5c0,0.3-0.2,0.5-0.5,0.5
		c-0.3,0-0.5-0.2-0.5-0.5v-2c0-0.3,0.2-0.5,0.5-0.5c0.3,0,0.5,0.2,0.5,0.5V17.5z M18.5,10.7C18.4,10.9,18.2,11,18,11h-3v2.5
		c0,0.3-0.2,0.5-0.5,0.5c-0.3,0-0.5-0.2-0.5-0.5v-3c0-0.3,0.2-0.5,0.5-0.5h2.3L12,5.2L7.2,10h2.3c0.3,0,0.5,0.2,0.5,0.5v3
		c0,0.3-0.2,0.5-0.5,0.5C9.2,14,9,13.8,9,13.5V11H6c-0.2,0-0.4-0.1-0.5-0.3c-0.1-0.2,0-0.4,0.1-0.5l6-6c0.2-0.2,0.5-0.2,0.7,0l6,6
		C18.5,10.3,18.5,10.5,18.5,10.7z"/>
</g>
<g id="Outline_Icons">
	<g>
		<polyline class="st2" points="9.5,13.5 9.5,10.5 6,10.5 12,4.5 18,10.5 14.5,10.5 14.5,13.5 		"/>
		<line class="st2" x1="9.5" y1="15.5" x2="9.5" y2="17.5"/>
		<line class="st2" x1="14.5" y1="15.5" x2="14.5" y2="17.5"/>
		<line class="st2" x1="9.5" y1="19.5" x2="9.5" y2="21.5"/>
		<line class="st2" x1="14.5" y1="19.5" x2="14.5" y2="21.5"/>
		<rect x="0.5" y="0.5" class="st2" width="23" height="23"/>
	</g>
</g>
</svg>
