<?xml version="1.0" encoding="utf-8"?>
<!-- Generator: Adobe Illustrator 19.2.0, SVG Export Plug-In . SVG Version: 6.00 Build 0)  -->
<svg version="1.1" id="Layer_1" xmlns="http://www.w3.org/2000/svg" xmlns:xlink="http://www.w3.org/1999/xlink" x="0px" y="0px"
	 viewBox="0 0 24 24" style="enable-background:new 0 0 24 24;" xml:space="preserve">
<style type="text/css">
	.st0{display:none;}
	.st1{display:inline;}
	.st2{fill:none;stroke:#000000;stroke-linecap:round;stroke-linejoin:round;stroke-miterlimit:10;}
</style>
<g id="Filled_Icons" class="st0">
	<g class="st1">
		<path d="M22.5,20H22V8c0-1.1-0.9-2-2-2h-7v2h6.5C19.8,8,20,8.2,20,8.5v10c0,0.3-0.2,0.5-0.5,0.5h-16C3.2,19,3,18.8,3,18.5v-10
			C3,8.2,3.2,8,3.5,8H10V6H3C1.9,6,1,6.9,1,8v12H0.5C0.2,20,0,20.2,0,20.5v2C0,23.3,0.7,24,1.5,24h20c0.8,0,1.5-0.7,1.5-1.5v-2
			C23,20.2,22.8,20,22.5,20z M22,22.5c0,0.3-0.2,0.5-0.5,0.5h-20C1.2,23,1,22.8,1,22.5V21h0.5H9v0.5l0,0C9,21.8,9.2,22,9.5,22h4
			c0.3,0,0.5-0.2,0.5-0.5l0,0V21h7.5H22V22.5z"/>
		<path d="M15.9,4.1l-4-4c0,0-0.1-0.1-0.2-0.1C11.6,0,11.4,0,11.3,0c-0.1,0-0.1,0.1-0.2,0.1l-4,4C7,4.3,7,4.7,7.1,4.9
			C7.3,5,7.7,5,7.9,4.9L11,1.7V15c0,0.3,0.2,0.5,0.5,0.5c0.3,0,0.5-0.2,0.5-0.5V1.7l3.1,3.1C15.2,5,15.4,5,15.5,5
			c0.1,0,0.3,0,0.4-0.1C16,4.7,16,4.3,15.9,4.1z"/>
	</g>
</g>
<g id="Outline_Icons">
	<g>
		<polyline class="st2" points="15,8.5 19.5,8.5 19.5,18.5 12,18.5 3.5,18.5 3.5,8.5 8,8.5 		"/>
		<path class="st2" d="M15,6.5h5c0.8,0,1.5,0.7,1.5,1.5v12.5"/>
		<path class="st2" d="M1.5,20.5V8c0-0.8,0.7-1.5,1.5-1.5h5"/>
		<path class="st2" d="M13.5,20.5v1h-4v-1h-9v2c0,0.6,0.4,1,1,1h20c0.6,0,1-0.4,1-1v-2H13.5z"/>
		<line class="st2" x1="11.5" y1="0.5" x2="11.5" y2="15"/>
		<polyline class="st2" points="15.5,4.5 11.5,0.5 7.5,4.5 		"/>
	</g>
</g>
</svg>
