<?xml version="1.0" encoding="utf-8"?>
<!-- Generator: Adobe Illustrator 19.2.0, SVG Export Plug-In . SVG Version: 6.00 Build 0)  -->
<svg version="1.1" id="Layer_1" xmlns="http://www.w3.org/2000/svg" xmlns:xlink="http://www.w3.org/1999/xlink" x="0px" y="0px"
	 viewBox="0 0 24 24" style="enable-background:new 0 0 24 24;" xml:space="preserve">
<style type="text/css">
	.st0{display:none;}
	.st1{display:inline;}
	.st2{fill:none;stroke:#000000;stroke-linecap:round;stroke-linejoin:round;stroke-miterlimit:10;}
</style>
<g id="Filled_Icons" class="st0">
	<g class="st1">
		<path d="M13,18.5V7.9l3.8,3.8c0.2,0.2,0.5,0.3,0.7,0.3c0.3,0,0.5-0.1,0.7-0.3c0.4-0.4,0.4-1,0-1.4l-5.5-5.5
			c-0.4-0.4-1.1-0.4-1.4,0l-5.5,5.5c-0.4,0.4-0.4,1,0,1.4c0.4,0.4,1,0.4,1.4,0L11,7.9v10.6c0,0.6,0.4,1,1,1
			C12.6,19.5,13,19.1,13,18.5z"/>
		<path d="M2.5,0H0v2.5c0,0.6,0.4,1,1,1c0.6,0,1-0.4,1-1V2h0.5c0.6,0,1-0.4,1-1C3.5,0.4,3.1,0,2.5,0z"/>
		<path d="M21.5,0c-0.6,0-1,0.4-1,1c0,0.6,0.4,1,1,1H22v0.5c0,0.6,0.4,1,1,1c0.6,0,1-0.4,1-1V0H21.5z"/>
		<path d="M5.5,2h1c0.6,0,1-0.4,1-1c0-0.6-0.4-1-1-1h-1c-0.6,0-1,0.4-1,1C4.5,1.6,5,2,5.5,2z"/>
		<path d="M9.5,2h1c0.6,0,1-0.4,1-1c0-0.6-0.4-1-1-1h-1c-0.6,0-1,0.4-1,1C8.5,1.6,8.9,2,9.5,2z"/>
		<path d="M13.5,2h1c0.6,0,1-0.4,1-1c0-0.6-0.4-1-1-1h-1c-0.6,0-1,0.4-1,1C12.5,1.6,12.9,2,13.5,2z"/>
		<path d="M18.5,0h-1c-0.6,0-1,0.4-1,1c0,0.6,0.4,1,1,1h1c0.6,0,1-0.4,1-1C19.5,0.4,19.1,0,18.5,0z"/>
		<path d="M2.5,22H2v-0.5c0-0.6-0.4-1-1-1c-0.6,0-1,0.4-1,1V24h2.5c0.6,0,1-0.4,1-1C3.5,22.4,3.1,22,2.5,22z"/>
		<path d="M23,20.5c-0.6,0-1,0.4-1,1V22h-0.5c-0.6,0-1,0.4-1,1c0,0.6,0.4,1,1,1H24v-2.5C24,20.9,23.6,20.5,23,20.5z"/>
		<path d="M6.5,22h-1c-0.6,0-1,0.4-1,1c0,0.6,0.4,1,1,1h1c0.6,0,1-0.4,1-1C7.5,22.4,7.1,22,6.5,22z"/>
		<path d="M10.5,22h-1c-0.6,0-1,0.4-1,1c0,0.6,0.4,1,1,1h1c0.6,0,1-0.4,1-1C11.5,22.4,11,22,10.5,22z"/>
		<path d="M14.5,22h-1c-0.6,0-1,0.4-1,1c0,0.6,0.4,1,1,1h1c0.6,0,1-0.4,1-1C15.5,22.4,15,22,14.5,22z"/>
		<path d="M18.5,22h-1c-0.6,0-1,0.4-1,1c0,0.6,0.4,1,1,1h1c0.6,0,1-0.4,1-1C19.5,22.4,19.1,22,18.5,22z"/>
		<path d="M23,4.5c-0.6,0-1,0.4-1,1v1c0,0.6,0.4,1,1,1c0.6,0,1-0.4,1-1v-1C24,5,23.6,4.5,23,4.5z"/>
		<path d="M23,8.5c-0.6,0-1,0.4-1,1v1c0,0.6,0.4,1,1,1c0.6,0,1-0.4,1-1v-1C24,8.9,23.6,8.5,23,8.5z"/>
		<path d="M23,12.5c-0.6,0-1,0.4-1,1v1c0,0.6,0.4,1,1,1c0.6,0,1-0.4,1-1v-1C24,12.9,23.6,12.5,23,12.5z"/>
		<path d="M23,16.5c-0.6,0-1,0.4-1,1v1c0,0.6,0.4,1,1,1c0.6,0,1-0.4,1-1v-1C24,17,23.6,16.5,23,16.5z"/>
		<path d="M1,7.5c0.6,0,1-0.4,1-1v-1c0-0.6-0.4-1-1-1c-0.6,0-1,0.4-1,1v1C0,7.1,0.4,7.5,1,7.5z"/>
		<path d="M1,11.5c0.6,0,1-0.4,1-1v-1c0-0.6-0.4-1-1-1c-0.6,0-1,0.4-1,1v1C0,11,0.4,11.5,1,11.5z"/>
		<path d="M1,15.5c0.6,0,1-0.4,1-1v-1c0-0.6-0.4-1-1-1c-0.6,0-1,0.4-1,1v1C0,15,0.4,15.5,1,15.5z"/>
		<path d="M1,19.5c0.6,0,1-0.4,1-1v-1c0-0.6-0.4-1-1-1c-0.6,0-1,0.4-1,1v1C0,19.1,0.4,19.5,1,19.5z"/>
	</g>
</g>
<g id="Outline_Icons">
	<g>
		<line class="st2" x1="11.5" y1="5" x2="11.5" y2="18"/>
		<polyline class="st2" points="17,10.5 11.5,5 6,10.5 		"/>
		<polyline class="st2" points="0.5,21.5 0.5,22.5 1.5,22.5 		"/>
		<polyline class="st2" points="21.5,22.5 22.5,22.5 22.5,21.5 		"/>
		<polyline class="st2" points="0.5,1.5 0.5,0.5 1.5,0.5 		"/>
		<polyline class="st2" points="21.5,0.5 22.5,0.5 22.5,1.5 		"/>
		<line class="st2" x1="3.4" y1="22.5" x2="4.3" y2="22.5"/>
		<line class="st2" x1="11" y1="22.5" x2="12" y2="22.5"/>
		<line class="st2" x1="7.2" y1="22.5" x2="8.2" y2="22.5"/>
		<line class="st2" x1="14.8" y1="22.5" x2="15.8" y2="22.5"/>
		<line class="st2" x1="18.7" y1="22.5" x2="19.6" y2="22.5"/>
		<line class="st2" x1="3.4" y1="0.5" x2="4.3" y2="0.5"/>
		<line class="st2" x1="11" y1="0.5" x2="12" y2="0.5"/>
		<line class="st2" x1="7.2" y1="0.5" x2="8.2" y2="0.5"/>
		<line class="st2" x1="14.8" y1="0.5" x2="15.8" y2="0.5"/>
		<line class="st2" x1="18.7" y1="0.5" x2="19.6" y2="0.5"/>
		<line class="st2" x1="22.5" y1="19.6" x2="22.5" y2="18.7"/>
		<line class="st2" x1="22.5" y1="12" x2="22.5" y2="11"/>
		<line class="st2" x1="22.5" y1="15.8" x2="22.5" y2="14.8"/>
		<line class="st2" x1="22.5" y1="8.2" x2="22.5" y2="7.2"/>
		<line class="st2" x1="22.5" y1="4.3" x2="22.5" y2="3.4"/>
		<line class="st2" x1="0.5" y1="19.6" x2="0.5" y2="18.7"/>
		<line class="st2" x1="0.5" y1="12" x2="0.5" y2="11"/>
		<line class="st2" x1="0.5" y1="15.8" x2="0.5" y2="14.8"/>
		<line class="st2" x1="0.5" y1="8.2" x2="0.5" y2="7.2"/>
		<line class="st2" x1="0.5" y1="4.3" x2="0.5" y2="3.4"/>
	</g>
</g>
</svg>
