<?xml version="1.0" encoding="utf-8"?>
<!-- Generator: Adobe Illustrator 19.2.0, SVG Export Plug-In . SVG Version: 6.00 Build 0)  -->
<svg version="1.1" id="Layer_1" xmlns="http://www.w3.org/2000/svg" xmlns:xlink="http://www.w3.org/1999/xlink" x="0px" y="0px"
	 viewBox="0 0 24 24" style="enable-background:new 0 0 24 24;" xml:space="preserve">
<style type="text/css">
	.st0{display:none;}
	.st1{display:inline;}
	.st2{fill:none;stroke:#000000;stroke-linecap:round;stroke-linejoin:round;stroke-miterlimit:10;}
</style>
<g id="Filled_Icons" class="st0">
	<g class="st1">
		<path d="M5,8l3,0v10.5C8,18.8,8.2,19,8.5,19h7c0.3,0,0.5-0.2,0.5-0.5V8h3c0.2,0,0.4-0.1,0.5-0.3c0.1-0.2,0-0.4-0.1-0.5l-7-7
			c-0.2-0.2-0.5-0.2-0.7,0l-7,7C4.5,7.3,4.5,7.5,4.5,7.7C4.6,7.9,4.8,8,5,8z"/>
		<path d="M23,17c-0.6,0-1,0.4-1,1v4H2v-3.5c0-0.6-0.4-1-1-1c-0.6,0-1,0.4-1,1V23c0,0.6,0.4,1,1,1h22c0.6,0,1-0.4,1-1v-5
			C24,17.4,23.5,17,23,17z"/>
	</g>
</g>
<g id="Outline_Icons">
	<g>
		<polygon class="st2" points="19,7.5 12,0.5 5,7.5 8.5,7.5 8.5,18.5 15.5,18.5 15.5,7.5 		"/>
		<polyline class="st2" points="23.5,18.5 23.5,23.5 0.5,23.5 0.5,18.5 		"/>
	</g>
</g>
</svg>
