<?xml version="1.0" encoding="utf-8"?>
<!-- Generator: Adobe Illustrator 19.2.0, SVG Export Plug-In . SVG Version: 6.00 Build 0)  -->
<svg version="1.1" id="Layer_1" xmlns="http://www.w3.org/2000/svg" xmlns:xlink="http://www.w3.org/1999/xlink" x="0px" y="0px"
	 viewBox="0 0 24 24" style="enable-background:new 0 0 24 24;" xml:space="preserve">
<style type="text/css">
	.st0{display:none;}
	.st1{display:inline;}
	.st2{fill:none;stroke:#000000;stroke-linecap:round;stroke-linejoin:round;stroke-miterlimit:10;}
	.st3{fill:none;stroke:#000000;stroke-linejoin:round;stroke-miterlimit:10;}
</style>
<g id="Filled_Icons" class="st0">
	<g class="st1">
		<path d="M18,11h-5v1.5c0,0.8-0.7,1.5-1.5,1.5c-0.8,0-1.5-0.7-1.5-1.5V11H5c-1.1,0-2,0.9-2,2v6h17v-6C20,11.9,19.1,11,18,11z"/>
		<path d="M5,22h6v1H8.5C8.2,23,8,23.2,8,23.5C8,23.8,8.2,24,8.5,24h6c0.3,0,0.5-0.2,0.5-0.5c0-0.3-0.2-0.5-0.5-0.5H12v-1h6
			c1.1,0,2-0.9,2-2H3C3,21.1,3.9,22,5,22z"/>
		<path d="M7.1,4.9c0.2,0.2,0.5,0.2,0.7,0c0.1-0.1,3.1-3.1,3.2-3.2l0,0v10.8l0,0c0,0.2,0.2,0.5,0.5,0.5c0.3,0,0.5-0.3,0.5-0.5l0,0
			V1.7l0,0l3.1,3.1c0.2,0.2,0.5,0.2,0.7,0c0.2-0.2,0.2-0.5,0-0.7c0,0,0,0,0,0l-1.2-1.2l-2.8-2.8c0,0-0.1-0.1-0.2-0.1
			c-0.1,0-0.1,0-0.2,0c0,0-0.1,0-0.1,0c0,0-0.1,0-0.1,0c-0.1,0-0.1,0.1-0.2,0.1L10.3,1L7.1,4.1c0,0,0,0,0,0C6.9,4.4,7,4.7,7.1,4.9z"
			/>
	</g>
</g>
<g id="Outline_Icons">
	<g>
		<line class="st2" x1="8.5" y1="21.5" x2="14.5" y2="21.5"/>
		<line class="st2" x1="11.5" y1="19.5" x2="11.5" y2="21.5"/>
		<line class="st3" x1="3.5" y1="17.5" x2="19.5" y2="17.5"/>
		<line class="st2" x1="11.5" y1="0.5" x2="11.5" y2="12.5"/>
		<polyline class="st2" points="15.5,4.5 11.5,0.5 7.5,4.5 		"/>
		<path class="st2" d="M14.5,9.5H18c0.8,0,1.5,0.7,1.5,1.5v7c0,0.8-0.7,1.5-1.5,1.5H5c-0.8,0-1.5-0.7-1.5-1.5v-7
			c0-0.8,0.7-1.5,1.5-1.5h3.5"/>
	</g>
</g>
</svg>
