<?xml version="1.0" encoding="utf-8"?>
<!-- Generator: Adobe Illustrator 19.2.0, SVG Export Plug-In . SVG Version: 6.00 Build 0)  -->
<svg version="1.1" id="Layer_1" xmlns="http://www.w3.org/2000/svg" xmlns:xlink="http://www.w3.org/1999/xlink" x="0px" y="0px"
	 viewBox="0 0 24 24" style="enable-background:new 0 0 24 24;" xml:space="preserve">
<style type="text/css">
	.st0{display:none;}
	.st1{display:inline;}
	.st2{fill:none;stroke:#000000;stroke-linecap:round;stroke-linejoin:round;stroke-miterlimit:10;}
</style>
<g id="Filled_Icons" class="st0">
	<g class="st1">
		<path d="M23,16.7c-0.6,0-1,0.4-1,1v1.9c0,1-0.9,2.4-1.9,2.4H3.9c-1,0-1.9-1.3-1.9-2.4v-1.9c0-0.6-0.4-1-1-1c-0.6,0-1,0.4-1,1v1.9
			C0,21.7,1.7,24,3.9,24h16.3c2.2,0,3.9-2.3,3.9-4.4v-1.9C24,17.2,23.6,16.7,23,16.7z"/>
		<path d="M5.2,8.7l5.3-5.3v14.2c0,0.6,0.4,1,1,1c0.6,0,1-0.4,1-1V3.4l5.3,5.3C18,8.9,18.2,9,18.5,9c0.3,0,0.5-0.1,0.7-0.3
			c0.4-0.4,0.4-1,0-1.4l-7-7c-0.4-0.4-1.1-0.4-1.4,0l-7,7c-0.4,0.4-0.4,1,0,1.4C4.2,9.1,4.8,9.1,5.2,8.7z"/>
	</g>
</g>
<g id="Outline_Icons">
	<g>
		<path class="st2" d="M22.5,17.7v1.9c0,1.6-1.3,2.9-2.9,2.9H3.4c-1.6,0-2.9-1.3-2.9-2.9v-1.9"/>
		<line class="st2" x1="11.5" y1="0.5" x2="11.5" y2="17.6"/>
		<polyline class="st2" points="4.5,7.5 11.5,0.5 18.5,7.5 		"/>
	</g>
</g>
</svg>
