<?xml version="1.0" encoding="utf-8"?>
<!-- Generator: Adobe Illustrator 19.2.0, SVG Export Plug-In . SVG Version: 6.00 Build 0)  -->
<svg version="1.1" id="Layer_1" xmlns="http://www.w3.org/2000/svg" xmlns:xlink="http://www.w3.org/1999/xlink" x="0px" y="0px"
	 viewBox="0 0 24 24" style="enable-background:new 0 0 24 24;" xml:space="preserve">
<style type="text/css">
	.st0{display:none;}
	.st1{display:inline;}
	.st2{fill:none;stroke:#000000;stroke-linecap:round;stroke-linejoin:round;stroke-miterlimit:10;}
</style>
<g id="Filled_Icons" class="st0">
	<g class="st1">
		<path d="M19.2,6.8l-7-6.5c-0.4-0.4-1-0.4-1.4,0l-7,6.5C3.5,7,3.4,7.5,3.6,7.9c0.2,0.4,0.5,0.6,0.9,0.6H8v2c0,0.6,0.4,1,1,1
			c0.6,0,1-0.4,1-1v-3c0-0.6-0.4-1-1-1H7l4.5-4.1L16,6.5h-2c-0.6,0-1,0.4-1,1v3c0,0.6,0.4,1,1,1c0.6,0,1-0.4,1-1v-2h3.5
			c0.4,0,0.8-0.3,0.9-0.6C19.6,7.5,19.5,7,19.2,6.8z"/>
		<path d="M9,12.5c-0.6,0-1,0.4-1,1v2c0,0.6,0.4,1,1,1c0.6,0,1-0.4,1-1v-2C10,12.9,9.6,12.5,9,12.5z"/>
		<path d="M14,12.5c-0.6,0-1,0.4-1,1v2c0,0.6,0.4,1,1,1c0.6,0,1-0.4,1-1v-2C15,12.9,14.6,12.5,14,12.5z"/>
		<path d="M9,17.5c-0.6,0-1,0.4-1,1v1c0,0.6,0.4,1,1,1c0.6,0,1-0.4,1-1v-1C10,17.9,9.6,17.5,9,17.5z"/>
		<path d="M14,17.5c-0.6,0-1,0.4-1,1v1c0,0.6,0.4,1,1,1c0.6,0,1-0.4,1-1v-1C15,17.9,14.6,17.5,14,17.5z"/>
		<path d="M9,21.5c-0.6,0-1,0.4-1,1V23c0,0.6,0.4,1,1,1c0.6,0,1-0.4,1-1v-0.5C10,21.9,9.6,21.5,9,21.5z"/>
		<path d="M14,21.5c-0.6,0-1,0.4-1,1V23c0,0.6,0.4,1,1,1c0.6,0,1-0.4,1-1v-0.5C15,21.9,14.6,21.5,14,21.5z"/>
	</g>
</g>
<g id="Outline_Icons">
	<g>
		<polyline class="st2" points="9.5,13 9.5,8.5 5,8.5 12,1 19,8.5 14.5,8.5 14.5,13 		"/>
		<line class="st2" x1="9.5" y1="15" x2="9.5" y2="17.5"/>
		<line class="st2" x1="14.5" y1="15" x2="14.5" y2="17.5"/>
		<line class="st2" x1="9.5" y1="19.5" x2="9.5" y2="21"/>
		<line class="st2" x1="14.5" y1="19.5" x2="14.5" y2="21"/>
		<line class="st2" x1="9.5" y1="23" x2="9.5" y2="23.5"/>
		<line class="st2" x1="14.5" y1="23" x2="14.5" y2="23.5"/>
	</g>
</g>
</svg>
