<?xml version="1.0" encoding="utf-8"?>
<!-- Generator: Adobe Illustrator 19.2.0, SVG Export Plug-In . SVG Version: 6.00 Build 0)  -->
<svg version="1.1" id="Layer_1" xmlns="http://www.w3.org/2000/svg" xmlns:xlink="http://www.w3.org/1999/xlink" x="0px" y="0px"
	 viewBox="0 0 24 24" style="enable-background:new 0 0 24 24;" xml:space="preserve">
<style type="text/css">
	.st0{display:none;}
	.st1{display:inline;}
	.st2{fill:none;stroke:#000000;stroke-linecap:round;stroke-linejoin:round;stroke-miterlimit:10;}
</style>
<g id="Filled_Icons" class="st0">
	<g class="st1">
		<path d="M19.5,0h-16C3.2,0,3,0.2,3,0.5v16C3,16.8,3.2,17,3.5,17H10v-5.8l-1.3,1.7c-0.5,0.6-1.5,0.8-2.1,0.2
			c-0.6-0.5-0.8-1.5-0.2-2.1l4-5c0,0,0,0,0,0c0.3-0.3,0.7-0.5,1.1-0.5c0.5,0,0.9,0.2,1.1,0.5c0,0,0,0,0,0l4,5
			c0.5,0.6,0.4,1.6-0.2,2.1c-0.3,0.2-0.6,0.3-0.9,0.3c-0.4,0-0.9-0.2-1.2-0.6L13,11.2V17h6.5c0.3,0,0.5-0.2,0.5-0.5v-16
			C20,0.2,19.8,0,19.5,0z"/>
		<path d="M15.9,11.6l-4-5c0,0,0,0,0,0c-0.1-0.1-0.2-0.2-0.4-0.2c-0.1,0-0.3,0.1-0.4,0.2c0,0,0,0,0,0l-4,5c-0.2,0.2-0.1,0.5,0.1,0.7
			c0.2,0.2,0.5,0.1,0.7-0.1L11,8.3v15.2c0,0.3,0.2,0.5,0.5,0.5c0.3,0,0.5-0.2,0.5-0.5V8.3l3.1,3.9c0.1,0.1,0.2,0.2,0.4,0.2
			c0.1,0,0.2,0,0.3-0.1C16,12.1,16.1,11.8,15.9,11.6z"/>
	</g>
</g>
<g id="Outline_Icons">
	<g>
		<g>
			<line class="st2" x1="11.5" y1="23.5" x2="11.5" y2="6.9"/>
			<polyline class="st2" points="15.5,11.9 11.5,6.9 7.5,11.9 			"/>
		</g>
		<polyline class="st2" points="9,16.5 3.5,16.5 3.5,0.5 19.5,0.5 19.5,16.5 14,16.5 		"/>
	</g>
</g>
</svg>
