<?xml version="1.0" encoding="utf-8"?>
<!-- Generator: Adobe Illustrator 19.2.0, SVG Export Plug-In . SVG Version: 6.00 Build 0)  -->
<svg version="1.1" id="Layer_1" xmlns="http://www.w3.org/2000/svg" xmlns:xlink="http://www.w3.org/1999/xlink" x="0px" y="0px"
	 viewBox="0 0 24 24" style="enable-background:new 0 0 24 24;" xml:space="preserve">
<style type="text/css">
	.st0{display:none;}
	.st1{display:inline;}
	.st2{fill:none;stroke:#000000;stroke-linecap:round;stroke-linejoin:round;stroke-miterlimit:10;}
</style>
<g id="Filled_Icons" class="st0">
	<g class="st1">
		<path d="M18,11c0.3,0,0.5-0.1,0.7-0.3c0.4-0.4,0.4-1,0-1.4l-5.5-5.5c-0.4-0.4-1.1-0.4-1.4,0L6.3,9.3c-0.4,0.4-0.4,1,0,1.4
			c0.4,0.4,1,0.4,1.4,0l3.8-3.8v12.6c0,0.6,0.4,1,1,1c0.6,0,1-0.4,1-1V6.9l3.8,3.8C17.5,10.9,17.7,11,18,11z"/>
		<path d="M23,0h-5c-0.6,0-1,0.4-1,1c0,0.6,0.4,1,1,1h4v20h-4c-0.6,0-1,0.4-1,1c0,0.6,0.4,1,1,1h5c0.6,0,1-0.4,1-1V1
			C24,0.4,23.6,0,23,0z"/>
		<path d="M7,22H2V2h5c0.6,0,1-0.4,1-1c0-0.6-0.4-1-1-1H1C0.4,0,0,0.4,0,1v22c0,0.6,0.4,1,1,1h6c0.6,0,1-0.4,1-1C8,22.4,7.6,22,7,22
			z"/>
	</g>
</g>
<g id="Outline_Icons">
	<g>
		<line class="st2" x1="12.5" y1="4.5" x2="12.5" y2="19.5"/>
		<polyline class="st2" points="18,10 12.5,4.5 7,10 		"/>
		<polyline class="st2" points="17.5,0.5 23.5,0.5 23.5,23.5 17.5,23.5 		"/>
		<polyline class="st2" points="6.5,0.5 0.5,0.5 0.5,23.5 6.5,23.5 		"/>
	</g>
</g>
</svg>
