<?xml version="1.0" encoding="utf-8"?>
<!-- Generator: Adobe Illustrator 19.2.0, SVG Export Plug-In . SVG Version: 6.00 Build 0)  -->
<svg version="1.1" id="Layer_1" xmlns="http://www.w3.org/2000/svg" xmlns:xlink="http://www.w3.org/1999/xlink" x="0px" y="0px"
	 viewBox="0 0 24 24" style="enable-background:new 0 0 24 24;" xml:space="preserve">
<style type="text/css">
	.st0{display:none;}
	.st1{display:inline;}
	.st2{fill:none;stroke:#000000;stroke-linecap:round;stroke-linejoin:round;stroke-miterlimit:10;}
</style>
<g id="Filled_Icons" class="st0">
	<g class="st1">
		<path d="M24,17.5c0-0.1,0-0.1,0-0.2c0,0,0,0,0,0c0,0,0-0.1-0.1-0.1l-5-6c-0.1-0.1-0.2-0.2-0.4-0.2h-1c-0.3,0-0.5,0.2-0.5,0.5
			c0,0.3,0.2,0.5,0.5,0.5h0.8l4.2,5H1.6l4.2-5H7c0.3,0,0.5-0.2,0.5-0.5C7.5,11.2,7.3,11,7,11H5.5c-0.1,0-0.3,0.1-0.4,0.2l-5,6
			c0,0-0.1,0.1-0.1,0.1c0,0,0,0,0,0c0,0.1,0,0.1,0,0.2c0,0,0,0,0,0v4C0,22.9,1.1,24,2.5,24h19c1.4,0,2.5-1.1,2.5-2.5L24,17.5
			C24,17.5,24,17.5,24,17.5z M20,21h-4c-0.3,0-0.5-0.2-0.5-0.5c0-0.3,0.2-0.5,0.5-0.5h4c0.3,0,0.5,0.2,0.5,0.5
			C20.5,20.8,20.3,21,20,21z"/>
		<path d="M8.9,4.9L12,1.7v10.8c0,0.3,0.2,0.5,0.5,0.5c0.3,0,0.5-0.2,0.5-0.5V1.7l3.1,3.1C16.2,5,16.4,5,16.5,5c0.1,0,0.3,0,0.4-0.1
			c0.2-0.2,0.2-0.5,0-0.7l-4-4c0,0-0.1-0.1-0.2-0.1C12.6,0,12.4,0,12.3,0c-0.1,0-0.1,0.1-0.2,0.1l-4,4C8,4.3,8,4.7,8.1,4.9
			C8.3,5,8.7,5,8.9,4.9z"/>
	</g>
</g>
<g id="Outline_Icons">
	<g>
		<line class="st2" x1="12.5" y1="0.5" x2="12.5" y2="12.5"/>
		<polyline class="st2" points="16.5,4.5 12.5,0.5 8.5,4.5 		"/>
		<line class="st2" x1="20" y1="20.5" x2="16" y2="20.5"/>
		<path class="st2" d="M0.5,17.5v4c0,1.1,0.9,2,2,2h19c1.1,0,2-0.9,2-2v-4"/>
		<polyline class="st2" points="7,11.5 5.5,11.5 0.5,17.5 23.5,17.5 18.5,11.5 17.5,11.5 		"/>
	</g>
</g>
</svg>
