<?xml version="1.0" encoding="utf-8"?>
<!-- Generator: Adobe Illustrator 19.2.0, SVG Export Plug-In . SVG Version: 6.00 Build 0)  -->
<svg version="1.1" id="Layer_1" xmlns="http://www.w3.org/2000/svg" xmlns:xlink="http://www.w3.org/1999/xlink" x="0px" y="0px"
	 viewBox="0 0 24 24" style="enable-background:new 0 0 24 24;" xml:space="preserve">
<style type="text/css">
	.st0{display:none;}
	.st1{display:inline;}
	.st2{fill:none;stroke:#000000;stroke-linejoin:round;stroke-miterlimit:10;}
	.st3{fill:none;stroke:#000000;stroke-linecap:round;stroke-linejoin:round;stroke-miterlimit:10;}
</style>
<g id="Filled_Icons" class="st0">
	<path class="st1" d="M11.5,0C5.2,0,0,5.2,0,11.5C0,17.8,5.2,23,11.5,23C17.8,23,23,17.8,23,11.5C23,5.2,17.8,0,11.5,0z M17.4,10.9
		C17.3,11,17.1,11,17,11c-0.1,0-0.3,0-0.4-0.1L12,6.2V18c0,0.3-0.2,0.5-0.5,0.5c-0.3,0-0.5-0.2-0.5-0.5V6.2l-4.6,4.6
		c-0.2,0.2-0.5,0.2-0.7,0c-0.2-0.2-0.2-0.5,0-0.7l5.5-5.5c0,0,0.1-0.1,0.2-0.1c0.1-0.1,0.3-0.1,0.4,0c0.1,0,0.1,0.1,0.2,0.1l5.5,5.5
		C17.5,10.3,17.5,10.7,17.4,10.9z"/>
</g>
<g id="Outline_Icons">
	<g>
		<circle class="st2" cx="11.5" cy="11.5" r="11"/>
		<line class="st3" x1="11.5" y1="5" x2="11.5" y2="18"/>
		<polyline class="st3" points="6,10.5 11.5,5 17,10.5 		"/>
	</g>
</g>
</svg>
