<?xml version="1.0" encoding="utf-8"?>
<!-- Generator: Adobe Illustrator 19.2.0, SVG Export Plug-In . SVG Version: 6.00 Build 0)  -->
<svg version="1.1" id="Layer_1" xmlns="http://www.w3.org/2000/svg" xmlns:xlink="http://www.w3.org/1999/xlink" x="0px" y="0px"
	 viewBox="0 0 24 24" style="enable-background:new 0 0 24 24;" xml:space="preserve">
<style type="text/css">
	.st0{display:none;}
	.st1{display:inline;}
	.st2{fill:none;stroke:#000000;stroke-linecap:round;stroke-linejoin:round;stroke-miterlimit:10;}
</style>
<g id="Filled_Icons" class="st0">
	<g class="st1">
		<path d="M11.5,5V0h-8C3.3,0,3.1,0.1,3,0.3L1.2,5H11.5z"/>
		<path d="M22.8,5L21,0.3C20.9,0.1,20.7,0,20.5,0h-8v5H22.8z"/>
		<path d="M12.5,6h-1H1v17.5C1,23.8,1.2,24,1.5,24h21c0.3,0,0.5-0.2,0.5-0.5V6H12.5z M18.5,15C18.5,15,18.5,15,18.5,15H16v5.5
			c0,0.3-0.2,0.5-0.5,0.5h-7C8.2,21,8,20.8,8,20.5V15H5.5c-0.2,0-0.4-0.1-0.5-0.3c-0.1-0.2,0-0.4,0.1-0.5l6.5-6.5
			c0.1-0.1,0.2-0.1,0.4-0.1c0,0,0,0,0,0c0.1,0,0.3,0.1,0.4,0.1l6.4,6.4c0.1,0.1,0.2,0.2,0.2,0.4C19,14.8,18.8,15,18.5,15z"/>
	</g>
</g>
<g id="Outline_Icons">
	<g>
		<rect x="1.5" y="5.5" class="st2" width="21" height="18"/>
		<polygon class="st2" points="3.5,0.5 20.5,0.5 22.5,5.5 1.5,5.5 		"/>
		<polygon class="st2" points="8.5,14.5 8.5,20.5 15.5,20.5 15.5,14.5 18.5,14.5 12,8 5.5,14.5 		"/>
		<line class="st2" x1="11.5" y1="5.5" x2="11.5" y2="0.5"/>
	</g>
</g>
</svg>
