<?xml version="1.0" encoding="utf-8"?>
<!-- Generator: Adobe Illustrator 19.2.0, SVG Export Plug-In . SVG Version: 6.00 Build 0)  -->
<svg version="1.1" id="Layer_1" xmlns="http://www.w3.org/2000/svg" xmlns:xlink="http://www.w3.org/1999/xlink" x="0px" y="0px"
	 viewBox="0 0 24 24" style="enable-background:new 0 0 24 24;" xml:space="preserve">
<style type="text/css">
	.st0{display:none;}
	.st1{display:inline;}
	.st2{fill:none;stroke:#000000;stroke-linecap:round;stroke-linejoin:round;stroke-miterlimit:10;}
</style>
<g id="Filled_Icons" class="st0">
	<g class="st1">
		<path d="M15.7,17.5c-0.1,0-0.2-0.1-0.3-0.1c0.1,0.1,0.2,0.2,0.2,0.4c0,0.3,0.4,0.2,0.4,0C16,17.6,16,17.6,15.7,17.5z"/>
		<path d="M15.8,16c-0.1,0-0.2,0.1-0.2,0.3c0,0.1,0,0.2,0.3,0.3c0.1,0,0.2,0.1,0.3,0.1c-0.1-0.1-0.2-0.2-0.2-0.4
			C16,16.1,15.9,16,15.8,16z"/>
		<polygon points="7,21 7,24 7,24 17,24 17,24 17,21 		"/>
		<path d="M12.5,16h-0.2v0.5h0.2c0.1,0,0.2,0,0.2,0c0,0,0-0.1,0-0.2c0-0.2,0-0.2,0-0.2C12.7,16,12.6,16,12.5,16z"/>
		<path d="M20.5,0h-17C3.2,0,3,0.2,3,0.5v23C3,23.8,3.2,24,3.5,24H6l0,0v-3.5C6,20.2,6.2,20,6.5,20h11c0.1,0,0.3,0.1,0.4,0.1
			c0.1,0.1,0.1,0.2,0.1,0.4V24l0,0h2.5c0.3,0,0.5-0.2,0.5-0.5v-23C21,0.2,20.8,0,20.5,0z M9.9,17.8c0,0.1,0,0.5-0.3,0.8
			C9.4,18.8,9.2,19,8.7,19c-0.5,0-0.7-0.2-0.9-0.4c-0.3-0.3-0.3-0.8-0.3-0.9l0-2.3C7.5,15.3,7.7,15,8,15c0.3,0,0.5,0.2,0.5,0.5v2.3
			c0,0.1,0,0.1,0,0.1c0,0,0.3,0,0.3,0c0,0,0-0.1,0-0.1v-2.3c0-0.3,0.2-0.5,0.5-0.5c0.3,0,0.5,0.2,0.5,0.5L9.9,17.8L9.9,17.8z
			 M12.5,17.5h-0.2v1c0,0.3-0.2,0.5-0.5,0.5c-0.3,0-0.5-0.2-0.5-0.5v-2.9c0-0.3,0.2-0.5,0.5-0.5h0.7c0.4,0,1.2,0.2,1.2,1.2
			C13.7,17.3,12.9,17.5,12.5,17.5z M12,14c-1.7,0-3-1.3-3-3c0-1.7,1.3-3,3-3c1.7,0,3,1.3,3,3C15,12.7,13.7,14,12,14z M15.8,19
			c-0.6,0-1.2-0.5-1.2-1.2c0-0.3,0.2-0.5,0.5-0.5c0.1,0,0.1,0,0.2,0c-0.6-0.3-0.7-0.8-0.7-1.1c0-0.7,0.5-1.3,1.2-1.3
			c0.6,0,1.2,0.5,1.2,1.2c0,0.3-0.2,0.5-0.5,0.5c-0.1,0-0.1,0-0.2,0c0.6,0.3,0.7,0.8,0.7,1.1C17,18.4,16.5,19,15.8,19z M17,7H7
			C6.7,7,6.5,6.8,6.5,6.5C6.5,6.2,6.7,6,7,6h10c0.3,0,0.5,0.2,0.5,0.5C17.5,6.8,17.3,7,17,7z M17,5H7C6.7,5,6.5,4.8,6.5,4.5
			C6.5,4.2,6.7,4,7,4h10c0.3,0,0.5,0.2,0.5,0.5C17.5,4.8,17.3,5,17,5z M17,3H7C6.7,3,6.5,2.8,6.5,2.5C6.5,2.2,6.7,2,7,2h10
			c0.3,0,0.5,0.2,0.5,0.5C17.5,2.8,17.3,3,17,3z"/>
	</g>
</g>
<g id="Outline_Icons">
	<g>
		<g>
			<rect x="3.5" y="0.5" class="st2" width="17" height="23"/>
			<rect x="6.5" y="20.5" class="st2" width="11" height="3"/>
			<circle class="st2" cx="12" cy="11" r="2.5"/>
			<line class="st2" x1="7" y1="2.5" x2="17" y2="2.5"/>
			<line class="st2" x1="7" y1="4.5" x2="17" y2="4.5"/>
			<line class="st2" x1="7" y1="6.5" x2="17" y2="6.5"/>
		</g>
		<path class="st2" d="M11.8,18.4v-2.9h0.7c0.6,0,0.7,0.3,0.7,0.7c0,0.4-0.1,0.7-0.7,0.7h-0.7"/>
		<path class="st2" d="M8,15.5v2.3c0,0,0,0.7,0.7,0.7c0.7,0,0.7-0.7,0.7-0.7v-2.3"/>
		<path class="st2" d="M15.1,17.8c0,0.4,0.3,0.7,0.7,0.7c0.4,0,0.7-0.3,0.7-0.8c0-0.6-0.6-0.7-0.7-0.8c-0.1,0-0.7-0.1-0.7-0.7
			c0-0.4,0.3-0.8,0.7-0.8c0.4,0,0.7,0.3,0.7,0.7"/>
	</g>
</g>
</svg>
