<?xml version="1.0" encoding="utf-8"?>
<!-- Generator: Adobe Illustrator 19.2.0, SVG Export Plug-In . SVG Version: 6.00 Build 0)  -->
<svg version="1.1" id="Layer_1" xmlns="http://www.w3.org/2000/svg" xmlns:xlink="http://www.w3.org/1999/xlink" x="0px" y="0px"
	 viewBox="0 0 24 24" style="enable-background:new 0 0 24 24;" xml:space="preserve">
<style type="text/css">
	.st0{display:none;}
	.st1{display:inline;}
	.st2{fill:none;stroke:#000000;stroke-linecap:round;stroke-linejoin:round;stroke-miterlimit:10;}
</style>
<g id="Filled_Icons" class="st0">
	<g class="st1">
		<path d="M18.5,11H18V0.5C18,0.2,17.8,0,17.5,0h-10C7.2,0,7,0.2,7,0.5V11H6.5C6.2,11,6,11.2,6,11.5v8C6,20.9,7.1,22,8.5,22H10v1.5
			c0,0.3,0.2,0.5,0.5,0.5h4c0.3,0,0.5-0.2,0.5-0.5V22h1.5c1.4,0,2.5-1.1,2.5-2.5v-8C19,11.2,18.8,11,18.5,11z M17,11H8V1h9V11z"/>
		<path d="M9.5,6h2C11.8,6,12,5.8,12,5.5v-2C12,3.2,11.8,3,11.5,3h-2C9.2,3,9,3.2,9,3.5v2C9,5.8,9.2,6,9.5,6z"/>
		<path d="M13.5,6h2C15.8,6,16,5.8,16,5.5v-2C16,3.2,15.8,3,15.5,3h-2C13.2,3,13,3.2,13,3.5v2C13,5.8,13.2,6,13.5,6z"/>
	</g>
</g>
<g id="Outline_Icons">
	<g>
		<path class="st2" d="M18.5,19.5c0,1.1-0.9,2-2,2h-8c-1.1,0-2-0.9-2-2v-8h12V19.5z"/>
		<rect x="10.5" y="21.5" class="st2" width="4" height="2"/>
		<rect x="7.5" y="0.5" class="st2" width="10" height="11"/>
		<rect x="9.5" y="3.5" class="st2" width="2" height="2"/>
		<rect x="13.5" y="3.5" class="st2" width="2" height="2"/>
	</g>
</g>
</svg>
