<?xml version="1.0" encoding="utf-8"?>
<!-- Generator: Adobe Illustrator 19.2.0, SVG Export Plug-In . SVG Version: 6.00 Build 0)  -->
<svg version="1.1" id="Layer_1" xmlns="http://www.w3.org/2000/svg" xmlns:xlink="http://www.w3.org/1999/xlink" x="0px" y="0px"
	 viewBox="0 0 24 24" style="enable-background:new 0 0 24 24;" xml:space="preserve">
<style type="text/css">
	.st0{display:none;}
	.st1{display:inline;}
	.st2{fill:none;stroke:#000000;stroke-linecap:round;stroke-linejoin:round;stroke-miterlimit:10;}
</style>
<g id="Filled_Icons" class="st0">
	<g class="st1">
		<path d="M10.5,2h-2C8.2,2,8,2.2,8,2.5v2C8,4.8,8.2,5,8.5,5h2C10.8,5,11,4.8,11,4.5v-2C11,2.2,10.8,2,10.5,2z"/>
		<path d="M15.5,2h-2C13.2,2,13,2.2,13,2.5v2C13,4.8,13.2,5,13.5,5h2C15.8,5,16,4.8,16,4.5v-2C16,2.2,15.8,2,15.5,2z"/>
		<path d="M12,12c-0.6,0-1,0.4-1,1v2h2v-2C13,12.4,12.6,12,12,12z"/>
		<path d="M19.5,9H18V0.5C18,0.2,17.8,0,17.5,0h-11C6.2,0,6,0.2,6,0.5V9H4.5C4.2,9,4,9.2,4,9.5v12C4,22.9,5.1,24,6.5,24h11
			c1.4,0,2.5-1.1,2.5-2.5v-12C20,9.2,19.8,9,19.5,9z M7,1h10v8H7V1z M16,21.5c0,0.3-0.2,0.5-0.5,0.5h-7C8.2,22,8,21.8,8,21.5v-6
			C8,15.2,8.2,15,8.5,15H10v-2c0-1.1,0.9-2,2-2c1.1,0,2,0.9,2,2v2h1.5c0.3,0,0.5,0.2,0.5,0.5V21.5z"/>
		<path d="M12,17c-0.3,0-0.5,0.2-0.5,0.5v2c0,0.3,0.2,0.5,0.5,0.5c0.3,0,0.5-0.2,0.5-0.5v-2C12.5,17.2,12.3,17,12,17z"/>
	</g>
</g>
<g id="Outline_Icons">
	<g>
		<path class="st2" d="M4.5,9.5h15v12c0,1.1-0.9,2-2,2h-11c-1.1,0-2-0.9-2-2V9.5z"/>
		<rect x="6.5" y="0.5" class="st2" width="11" height="9"/>
		<rect x="8.5" y="2.5" class="st2" width="2" height="2"/>
		<rect x="13.5" y="2.5" class="st2" width="2" height="2"/>
		<rect x="8.5" y="15.5" class="st2" width="7" height="6"/>
		<path class="st2" d="M13.5,13c0-0.8-0.7-1.5-1.5-1.5c-0.8,0-1.5,0.7-1.5,1.5v2.5h3V13z"/>
		<line class="st2" x1="12" y1="19.5" x2="12" y2="17.5"/>
	</g>
</g>
</svg>
