<?xml version="1.0" encoding="utf-8"?>
<!-- Generator: Adobe Illustrator 19.2.0, SVG Export Plug-In . SVG Version: 6.00 Build 0)  -->
<svg version="1.1" id="Layer_1" xmlns="http://www.w3.org/2000/svg" xmlns:xlink="http://www.w3.org/1999/xlink" x="0px" y="0px"
	 viewBox="0 0 24 24" style="enable-background:new 0 0 24 24;" xml:space="preserve">
<style type="text/css">
	.st0{display:none;}
	.st1{display:inline;}
	.st2{fill:none;stroke:#000000;stroke-linecap:round;stroke-linejoin:round;stroke-miterlimit:10;}
</style>
<g id="Filled_Icons" class="st0">
	<g class="st1">
		<path d="M17.5,5H16V0.5C16,0.2,15.8,0,15.5,0h-6C9.2,0,9,0.2,9,0.5V5H7.5C7.2,5,7,5.2,7,5.5v14C7,22,9,24,11.5,24h2
			c2.5,0,4.5-2,4.5-4.5v-14C18,5.2,17.8,5,17.5,5z M10,1h5v4h-5V1z M15.5,8h-6C9.2,8,9,7.8,9,7.5C9,7.2,9.2,7,9.5,7h6
			C15.8,7,16,7.2,16,7.5C16,7.8,15.8,8,15.5,8z"/>
		<path d="M11.5,2C11.2,2,11,2.2,11,2.5v1C11,3.8,11.2,4,11.5,4C11.8,4,12,3.8,12,3.5v-1C12,2.2,11.8,2,11.5,2z"/>
		<path d="M13.5,2C13.2,2,13,2.2,13,2.5v1C13,3.8,13.2,4,13.5,4C13.8,4,14,3.8,14,3.5v-1C14,2.2,13.8,2,13.5,2z"/>
	</g>
</g>
<g id="Outline_Icons">
	<g>
		<path class="st2" d="M17.5,5.5v14c0,2.2-1.8,4-4,4h-2c-2.2,0-4-1.8-4-4v-14"/>
		<rect x="9.5" y="0.5" class="st2" width="6" height="5"/>
		<line class="st2" x1="11.5" y1="2.5" x2="11.5" y2="3.5"/>
		<line class="st2" x1="13.5" y1="2.5" x2="13.5" y2="3.5"/>
		<line class="st2" x1="7.5" y1="5.5" x2="17.5" y2="5.5"/>
		<line class="st2" x1="9.5" y1="7.5" x2="15.5" y2="7.5"/>
	</g>
</g>
</svg>
