<?xml version="1.0" encoding="utf-8"?>
<!-- Generator: Adobe Illustrator 19.2.0, SVG Export Plug-In . SVG Version: 6.00 Build 0)  -->
<svg version="1.1" id="Layer_1" xmlns="http://www.w3.org/2000/svg" xmlns:xlink="http://www.w3.org/1999/xlink" x="0px" y="0px"
	 viewBox="0 0 24 24" style="enable-background:new 0 0 24 24;" xml:space="preserve">
<style type="text/css">
	.st0{display:none;}
	.st1{display:inline;}
	.st2{fill:none;stroke:#000000;stroke-linecap:round;stroke-linejoin:round;stroke-miterlimit:10;}
</style>
<g id="Filled_Icons" class="st0">
	<path class="st1" d="M18,5h-3c-0.6,0-1,0.4-1,1v3c0,0.6,0.4,1,1,1h0.5v0.9L13,12.3V3.4l0.8,0.8c0.2,0.2,0.5,0.3,0.7,0.3
		c0.3,0,0.5-0.1,0.7-0.3c0.4-0.4,0.4-1,0-1.4l-2.5-2.5c0,0-0.1-0.1-0.2-0.1c0,0,0,0-0.1,0c0,0-0.1,0-0.1-0.1c0,0-0.1,0-0.1,0
		c0,0-0.1,0-0.1,0c-0.1,0-0.3,0-0.4,0c0,0-0.1,0-0.1,0c0,0-0.1,0-0.1,0c0,0-0.1,0-0.1,0.1c0,0-0.1,0-0.1,0c-0.1,0-0.1,0.1-0.2,0.1
		L8.8,2.8c-0.4,0.4-0.4,1,0,1.4c0.4,0.4,1,0.4,1.4,0L11,3.4v10.9l-2.5-1.4v-1.6C9.4,10.9,10,10,10,9c0-1.4-1.1-2.5-2.5-2.5
		C6.1,6.5,5,7.6,5,9c0,1,0.6,1.9,1.5,2.3v2.2c0,0.4,0.2,0.7,0.5,0.9l4,2.2v0.6c-1.4,0.4-2.5,1.8-2.5,3.4c0,1.9,1.6,3.5,3.5,3.5
		c1.9,0,3.5-1.6,3.5-3.5c0-1.6-1.1-2.9-2.5-3.4v-2.6l4-2.2c0.3-0.2,0.5-0.5,0.5-0.9V10H18c0.6,0,1-0.4,1-1V6C19,5.4,18.6,5,18,5z
		 M7.5,9.5C7.2,9.5,7,9.3,7,9c0-0.3,0.2-0.5,0.5-0.5C7.8,8.5,8,8.7,8,9C8,9.3,7.8,9.5,7.5,9.5z M13.5,20.5c0,0.8-0.7,1.5-1.5,1.5
		c-0.8,0-1.5-0.7-1.5-1.5c0-0.8,0.7-1.5,1.5-1.5C12.8,19,13.5,19.7,13.5,20.5z M17,8h-1V7h1V8z"/>
</g>
<g id="Outline_Icons">
	<g>
		<circle class="st2" cx="11.5" cy="21" r="2.5"/>
		<line class="st2" x1="11.5" y1="18.5" x2="11.5" y2="0.5"/>
		<polyline class="st2" points="14,3 11.5,0.5 9,3 		"/>
		<polyline class="st2" points="11.5,14 15.5,11.5 15.5,8.5 		"/>
		<polyline class="st2" points="11.5,16 7.5,13.5 7.5,10.5 		"/>
		<rect x="14" y="5.5" class="st2" width="3" height="3"/>
		<circle class="st2" cx="7.5" cy="9" r="1.5"/>
	</g>
</g>
</svg>
