<?xml version="1.0" encoding="utf-8"?>
<!-- Generator: Adobe Illustrator 19.2.0, SVG Export Plug-In . SVG Version: 6.00 Build 0)  -->
<svg version="1.1" id="Layer_1" xmlns="http://www.w3.org/2000/svg" xmlns:xlink="http://www.w3.org/1999/xlink" x="0px" y="0px"
	 viewBox="0 0 24 24" style="enable-background:new 0 0 24 24;" xml:space="preserve">
<style type="text/css">
	.st0{display:none;}
	.st1{display:inline;}
	.st2{fill:none;stroke:#000000;stroke-linejoin:round;stroke-miterlimit:10;}
</style>
<g id="Filled_Icons" class="st0">
	<g class="st1">
		<path d="M18.4,0c-1.4,0-2.5,0.4-3.5,1.4C14.3,1.2,13.7,1,13,1c-2.3,0-4.3,1.6-4.9,3.8C8.1,4.9,8,5.4,8,6c0.2,0,0.3,0,0.5,0
			c2.3,0,4.1,1,4.5,2.6c0.2,0.7,0.1,1.6-0.1,2.4c0,0,0,0,0,0c0.2,0,0.3,0,0.4,0c0.6,0.9,1.6,1.5,2.8,1.5c1,0,2-0.6,2.8-1.5
			c1.6-0.1,2.9-0.6,3.9-1.6c0.9-1,1.4-2.2,1.4-3.6C24,2.9,22,0,18.4,0z M13.5,7c-0.6,0-1-0.4-1-1c0-0.6,0.4-1,1-1c0.6,0,1,0.4,1,1
			C14.5,6.6,14,7,13.5,7z M16.5,7c-0.6,0-1-0.4-1-1c0-0.6,0.4-1,1-1c0.6,0,1,0.4,1,1C17.5,6.6,17,7,16.5,7z M19.5,7
			c-0.6,0-1-0.4-1-1c0-0.6,0.4-1,1-1c0.6,0,1,0.4,1,1C20.5,6.6,20,7,19.5,7z"/>
		<circle cx="13.5" cy="16.5" r="1"/>
		<circle cx="17.2" cy="15.2" r="1.8"/>
		<path d="M16,20.8c-0.4-1-3.7-2.4-5.5-3.1l0,0v-1.4v0c0.7-0.5,0.9-1.6,1-2.4c0.4-0.3,0.7-1,0.7-1.5c0-0.4-0.1-0.9-0.5-1.1
			c0.3-0.8,0.5-1.5,0.3-2.3C11.7,7.7,10.3,7,8.5,7C8.3,7,8.2,7,8,7C6.4,7.2,5.5,7.9,5.2,8.5c-0.4,0-0.9,0.1-1.1,0.5c0,0,0,0,0,0
			c-0.3,0.4-0.2,1-0.1,1.4c0.1,0.3,0.2,0.6,0.3,0.8c-0.4,0.3-0.5,0.7-0.5,1.2c0,0.5,0.2,1.2,0.6,1.5c0,0.9,0.3,1.9,1,2.4v0v1.4l0,0
			c-1.8,0.7-5,2.2-5.5,3.1c0,0,0,0,0,0c0,0.1,0,0.1,0,0.2v3h16v-3C16,20.9,16,20.9,16,20.8C16,20.8,16,20.8,16,20.8z"/>
	</g>
</g>
<g id="Outline_Icons">
	<g>
		<path class="st2" d="M13.5,10.5C14,11.5,15,12,16,12c1,0,1.9-0.7,2.5-1.5c7,0,6.4-10-0.1-10C17,0.5,15.9,1,15,2
			c-2.7-1.3-5.7,0.3-6.4,3"/>
		<path class="st2" d="M7.9,23.5h7.6c0,0,0-1,0-2.5c0-0.5-3-2-5.5-3v-2c0,0,1-0.3,1-2.5c0.7,0,1-2,0-2c0-0.2,0.8-1.3,0.5-2.5
			C11,7,6,7,5.5,9C3.4,8.6,5,11.2,5,11.5c-1,0-0.7,2,0,2C5,15.7,6,16,6,16v2c-2.5,1-5.5,2.5-5.5,3c0,1,0,2.5,0,2.5H7.9z"/>
		<circle class="st2" cx="17" cy="15" r="1"/>
		<path class="st2" d="M14,6c0,0.3-0.2,0.5-0.5,0.5l0,0C13.2,6.5,13,6.3,13,6l0,0c0-0.3,0.2-0.5,0.5-0.5l0,0C13.8,5.5,14,5.7,14,6
			L14,6z"/>
		<path class="st2" d="M14,16.5c0,0.3-0.2,0.5-0.5,0.5l0,0c-0.3,0-0.5-0.2-0.5-0.5l0,0c0-0.3,0.2-0.5,0.5-0.5l0,0
			C13.8,16,14,16.2,14,16.5L14,16.5z"/>
		<path class="st2" d="M17,6c0,0.3-0.2,0.5-0.5,0.5l0,0C16.2,6.5,16,6.3,16,6l0,0c0-0.3,0.2-0.5,0.5-0.5l0,0C16.8,5.5,17,5.7,17,6
			L17,6z"/>
		<path class="st2" d="M20,6c0,0.3-0.2,0.5-0.5,0.5l0,0C19.2,6.5,19,6.3,19,6l0,0c0-0.3,0.2-0.5,0.5-0.5l0,0C19.8,5.5,20,5.7,20,6
			L20,6z"/>
	</g>
</g>
</svg>
