<?xml version="1.0" encoding="utf-8"?>
<!-- Generator: Adobe Illustrator 19.2.0, SVG Export Plug-In . SVG Version: 6.00 Build 0)  -->
<svg version="1.1" id="Outline_Icons" xmlns="http://www.w3.org/2000/svg" xmlns:xlink="http://www.w3.org/1999/xlink" x="0px"
	 y="0px" viewBox="0 0 24 24" style="enable-background:new 0 0 24 24;" xml:space="preserve">
<style type="text/css">
	.st0{fill:none;stroke:#000000;stroke-linejoin:round;stroke-miterlimit:10;}
</style>
<g>
	<path class="st0" d="M13,9.5h1.5v2l2.5-2h2c2.5,0,4.5-2,4.5-4.5s-2-4.5-4.5-4.5h-6c-2.5,0-4.5,2-4.5,4.5"/>
	<g>
		<path class="st0" d="M6,16.2v2.2l-3.9,1.4C1.1,20.1,0.5,21,0.5,22v1.5h15V22c0-1-0.6-1.9-1.6-2.2L10,18.4V16"/>
		<ellipse class="st0" cx="7.9" cy="12.1" rx="3.9" ry="4.7"/>
		<path class="st0" d="M11.8,11.6c-0.1,0-0.2,0-0.4,0c-1.3,0.3-2.2-0.2-2.9-1.5c-0.4,0.9-1.8,1.5-3,1.5c-0.6,0-1.1-0.1-1.5-0.4"/>
	</g>
	<g>
		<g>
			<g>
				<polygon points="20,5 19,5 19,6 20,6 				"/>
			</g>
		</g>
	</g>
	<g>
		<g>
			<g>
				<polygon points="17,5 16,5 16,6 17,6 				"/>
			</g>
		</g>
	</g>
	<g>
		<g>
			<g>
				<polygon points="14,5 13,5 13,6 14,6 				"/>
			</g>
		</g>
	</g>
</g>
</svg>
