<?xml version="1.0" encoding="utf-8"?>
<!-- Generator: Adobe Illustrator 19.2.0, SVG Export Plug-In . SVG Version: 6.00 Build 0)  -->
<svg version="1.1" id="Outline_Icons" xmlns="http://www.w3.org/2000/svg" xmlns:xlink="http://www.w3.org/1999/xlink" x="0px"
	 y="0px" viewBox="0 0 24 24" style="enable-background:new 0 0 24 24;" xml:space="preserve">
<style type="text/css">
	.st0{fill:none;stroke:#000000;stroke-linejoin:round;stroke-miterlimit:10;}
</style>
<g>
	<polyline class="st0" points="14,9.5 15.5,9.5 15.5,13.5 19.8,9.5 23.5,9.5 23.5,0.5 8.5,0.5 8.5,4.5 	"/>
	<g>
		<g>
			<g>
				<polygon points="20,5 19,5 19,6 20,6 				"/>
			</g>
		</g>
	</g>
	<g>
		<g>
			<g>
				<polygon points="17,5 16,5 16,6 17,6 				"/>
			</g>
		</g>
	</g>
	<g>
		<g>
			<g>
				<polygon points="14,5 13,5 13,6 14,6 				"/>
			</g>
		</g>
	</g>
	<path class="st0" d="M7.8,23.5h7.7c0,0,0-1,0-2.5c0-0.5-3-2-5.5-3v-2c0,0,0.9-0.4,0.9-2.5c0.7,0,1-2,0-2c0-0.2,0.7-1.3,0.4-2.5
		c-0.5-2-5.4-2-5.9,0C3.3,8.6,5,11.2,5,11.5c-1,0-1,2,0,2C5,15.6,6,16,6,16v2c-2.5,1-5.5,2.5-5.5,3c0,1,0,2.5,0,2.5H7.8z"/>
</g>
</svg>
