<?xml version="1.0" encoding="utf-8"?>
<!-- Generator: Adobe Illustrator 19.2.0, SVG Export Plug-In . SVG Version: 6.00 Build 0)  -->
<svg version="1.1" id="Layer_1" xmlns="http://www.w3.org/2000/svg" xmlns:xlink="http://www.w3.org/1999/xlink" x="0px" y="0px"
	 viewBox="0 0 24 24" style="enable-background:new 0 0 24 24;" xml:space="preserve">
<style type="text/css">
	.st0{display:none;}
	.st1{display:inline;}
	.st2{fill:none;stroke:#000000;stroke-linejoin:round;stroke-miterlimit:10;}
</style>
<g id="Filled_Icons" class="st0">
	<g class="st1">
		<path d="M18.4,0c-1.4,0-2.5,0.4-3.5,1.4C14.3,1.2,13.6,1,13,1c-2.3,0-4.3,1.6-4.9,3.8c0,0-0.1,0.4-0.1,1c2.7,0.1,4.9,2.4,5.3,5.3
			c0.6,0.8,1.6,1.3,2.7,1.3c1,0,2-0.6,2.8-1.5c1.6-0.1,2.9-0.6,3.9-1.6c0.9-1,1.4-2.2,1.4-3.6C24,2.9,22,0,18.4,0z M13.5,7
			c-0.6,0-1-0.4-1-1c0-0.6,0.4-1,1-1c0.6,0,1,0.4,1,1C14.5,6.6,14,7,13.5,7z M16.5,7c-0.6,0-1-0.4-1-1c0-0.6,0.4-1,1-1
			c0.6,0,1,0.4,1,1C17.5,6.6,17,7,16.5,7z M19.5,7c-0.6,0-1-0.4-1-1c0-0.6,0.4-1,1-1c0.6,0,1,0.4,1,1C20.5,6.6,20,7,19.5,7z"/>
		<path d="M8.1,9.9l0.4-0.8l0.5,0.8c0.7,1.1,1.3,1.5,2.4,1.3c0.1,0,0.6-0.1,0.9-0.1c-0.4-2.4-2.2-4.2-4.4-4.2
			c-2.1,0-3.8,1.7-4.3,3.9c0.6,0.2,1.5,0.4,1.9,0.4C6.5,11.2,7.7,10.6,8.1,9.9z"/>
		<path d="M14.1,19.3L10.5,18v-0.5v-1.2c1.1-1,1.8-2.5,1.8-4.2c0,0,0,0,0,0c-0.3,0-0.7,0.1-0.8,0.1c-0.3,0.1-0.5,0.1-0.8,0.1
			c-0.9,0-1.7-0.4-2.3-1.2c-0.7,0.7-1.9,1.2-2.9,1.2c-0.5,0-1.4-0.2-2.1-0.4c0,0.1,0,0.2,0,0.3c0,1.8,0.8,3.5,2,4.4v1.2V18l-3.6,1.3
			C0.8,19.7,0,20.8,0,22v2h16v-2C16,20.8,15.2,19.7,14.1,19.3z"/>
		<circle cx="13.5" cy="16.5" r="1"/>
	</g>
	<circle class="st1" cx="17.2" cy="15.2" r="1.8"/>
</g>
<g id="Outline_Icons">
	<g>
		<g>
			<path class="st2" d="M5.8,16.3v2.1l-3.9,1.4C0.9,20.2,0.2,21,0.2,22v1.5h15V22c0-1-0.6-1.9-1.6-2.2l-3.9-1.4v-2.3"/>
			<ellipse class="st2" cx="7.7" cy="12.2" rx="3.9" ry="4.7"/>
			<path class="st2" d="M11.6,11.8c-0.1,0-0.2,0-0.4,0C9.9,12,9,11.6,8.3,10.3c-0.4,0.8-1.8,1.5-3,1.5c-0.6,0-1-0.1-1.5-0.4"/>
		</g>
		<path class="st2" d="M13.7,10.5c0.5,1,1.5,1.5,2.5,1.5c1,0,1.9-0.7,2.5-1.5c7,0,6.4-10-0.1-10c-1.4,0-2.5,0.5-3.4,1.5
			c-2.7-1.3-5.7,0.3-6.4,3"/>
		<circle class="st2" cx="17.2" cy="15" r="1"/>
		<path class="st2" d="M14.2,6c0,0.3-0.2,0.5-0.5,0.5l0,0c-0.3,0-0.5-0.2-0.5-0.5l0,0c0-0.3,0.2-0.5,0.5-0.5l0,0
			C14,5.5,14.2,5.7,14.2,6L14.2,6z"/>
		<path class="st2" d="M14.2,16.5c0,0.3-0.2,0.5-0.5,0.5l0,0c-0.3,0-0.5-0.2-0.5-0.5l0,0c0-0.3,0.2-0.5,0.5-0.5l0,0
			C14,16,14.2,16.2,14.2,16.5L14.2,16.5z"/>
		<path class="st2" d="M17.2,6c0,0.3-0.2,0.5-0.5,0.5l0,0c-0.3,0-0.5-0.2-0.5-0.5l0,0c0-0.3,0.2-0.5,0.5-0.5l0,0
			C17,5.5,17.2,5.7,17.2,6L17.2,6z"/>
		<path class="st2" d="M20.2,6c0,0.3-0.2,0.5-0.5,0.5l0,0c-0.3,0-0.5-0.2-0.5-0.5l0,0c0-0.3,0.2-0.5,0.5-0.5l0,0
			C20,5.5,20.2,5.7,20.2,6L20.2,6z"/>
	</g>
</g>
</svg>
