<?xml version="1.0" encoding="utf-8"?>
<!-- Generator: Adobe Illustrator 19.2.0, SVG Export Plug-In . SVG Version: 6.00 Build 0)  -->
<svg version="1.1" id="Outline_Icons" xmlns="http://www.w3.org/2000/svg" xmlns:xlink="http://www.w3.org/1999/xlink" x="0px"
	 y="0px" viewBox="0 0 24 24" style="enable-background:new 0 0 24 24;" xml:space="preserve">
<style type="text/css">
	.st0{fill:none;stroke:#000000;stroke-linejoin:round;stroke-miterlimit:10;}
</style>
<g>
	<path class="st0" d="M10.5,6.5c0-3.3,2.9-6,6.5-6s6.5,2.7,6.5,6c0,2.5-1.6,4.6-4,5.5c-0.5,0.5-3.5,3-4,3.5c0-0.5,0-2.5,0-3.1
		c-0.5-0.1-1-0.2-1.5-0.4"/>
	<g>
		<g>
			<g>
				<polygon points="20,6 19,6 19,7 20,7 				"/>
			</g>
		</g>
	</g>
	<g>
		<g>
			<g>
				<polygon points="17.5,6 16.5,6 16.5,7 17.5,7 				"/>
			</g>
		</g>
	</g>
	<g>
		<g>
			<g>
				<polygon points="15,6 14,6 14,7 15,7 				"/>
			</g>
		</g>
	</g>
	<path class="st0" d="M7.9,23.5h7.6c0,0,0-1,0-2.5c0-0.5-3-2-5.5-3v-2c0,0,1-0.4,1-2.5c0.7,0,1-2,0-2c0-0.2,0.8-1.3,0.5-2.5
		C11,7,6,7,5.5,9C3.4,8.6,5,11.2,5,11.5c-1,0-0.7,2,0,2C5,15.6,6,16,6,16v2c-2.5,1-5.5,2.5-5.5,3c0,1,0,2.5,0,2.5H7.9z"/>
</g>
</svg>
