<?xml version="1.0" encoding="utf-8"?>
<!-- Generator: Adobe Illustrator 19.2.0, SVG Export Plug-In . SVG Version: 6.00 Build 0)  -->
<svg version="1.1" id="Layer_1" xmlns="http://www.w3.org/2000/svg" xmlns:xlink="http://www.w3.org/1999/xlink" x="0px" y="0px"
	 viewBox="0 0 24 24" style="enable-background:new 0 0 24 24;" xml:space="preserve">
<style type="text/css">
	.st0{display:none;}
	.st1{display:inline;}
	.st2{fill:none;stroke:#000000;stroke-linejoin:round;stroke-miterlimit:10;}
</style>
<g id="Filled_Icons" class="st0">
	<g class="st1">
		<path d="M11,10H3.9c-0.5,0.4-0.9,0.8-1.3,1.3C2.3,11.8,2,12.4,1.8,13H11V10z"/>
		<path d="M10,18c0.4,0,0.7,0.1,1,0.2V14H1.5c-0.6,2.5-0.4,5.5,0.8,8.7C2.3,22.9,2.5,23,2.7,23h4.2c-0.2-0.5-0.4-1-0.4-1.5
			C6.5,19.6,8.1,18,10,18z"/>
		<path d="M23,23.3l-1-3c-0.1-0.2-0.3-0.3-0.5-0.3H19V6.5c0-3-2.5-5.5-5.5-5.5S8,3.5,8,6.5V7H6.5C6.2,7,6,7.2,6,7.5V9h5V7.5
			C11,7.2,10.8,7,10.5,7H9V6.5C9,4,11,2,13.5,2C16,2,18,4,18,6.5V20h-2.5c-0.2,0-0.4,0.1-0.5,0.3l-1,3c-0.1,0.2,0,0.3,0.1,0.5
			c0.1,0.1,0.2,0.2,0.4,0.2h8c0.2,0,0.3-0.1,0.4-0.2C23,23.7,23,23.5,23,23.3z"/>
		<circle cx="10" cy="21.5" r="2.5"/>
	</g>
</g>
<g id="Outline_Icons">
	<g>
		<path class="st2" d="M8.3,22.5H2.7c-2.7-7.5,0-13,4.1-13h3.7v10"/>
		<circle class="st2" cx="10" cy="21.5" r="2"/>
		<rect x="6.5" y="7.5" class="st2" width="4" height="2"/>
		<path class="st2" d="M8.5,7.5v-1c0-2.8,2.2-5,5-5s5,2.2,5,5v14"/>
		<polygon class="st2" points="15.5,20.5 21.5,20.5 22.5,23.5 14.5,23.5 		"/>
		<line class="st2" x1="2.1" y1="13.5" x2="10.5" y2="13.5"/>
	</g>
</g>
</svg>
