<?xml version="1.0" encoding="utf-8"?>
<!-- Generator: Adobe Illustrator 19.2.0, SVG Export Plug-In . SVG Version: 6.00 Build 0)  -->
<svg version="1.1" id="Layer_1" xmlns="http://www.w3.org/2000/svg" xmlns:xlink="http://www.w3.org/1999/xlink" x="0px" y="0px"
	 viewBox="0 0 24 24" style="enable-background:new 0 0 24 24;" xml:space="preserve">
<style type="text/css">
	.st0{display:none;}
	.st1{display:inline;}
	.st2{fill:none;stroke:#000000;stroke-linecap:round;stroke-linejoin:round;stroke-miterlimit:10;}
</style>
<g id="Filled_Icons" class="st0">
	<g class="st1">
		<path d="M5,19c-1.4,0-2.5,1.1-2.5,2.5S3.6,24,5,24s2.5-1.1,2.5-2.5S6.4,19,5,19z"/>
		<path d="M19,19c-1.4,0-2.5,1.1-2.5,2.5S17.6,24,19,24s2.5-1.1,2.5-2.5S20.4,19,19,19z"/>
		<path d="M23.5,3h-19C4.3,3,4.1,3.1,4.1,3.3l-3,6C1,9.4,1,9.6,1.1,9.8C1.2,9.9,1.3,10,1.5,10h8c0.3,0,0.5,0.2,0.5,0.5V12h14V3.5
			C24,3.2,23.8,3,23.5,3z M10,8c0,0.3-0.2,0.5-0.5,0.5h-4c-0.2,0-0.3-0.1-0.4-0.2C5,8.2,5,8,5,7.8l1-3c0.1-0.2,0.3-0.3,0.5-0.3h3
			C9.8,4.5,10,4.7,10,5V8z M22,8c0,0.3-0.2,0.5-0.5,0.5h-9C12.2,8.5,12,8.3,12,8V5c0-0.3,0.2-0.5,0.5-0.5h9C21.8,4.5,22,4.7,22,5V8z
			"/>
		<path d="M5,18c0.9,0,1.8,0.4,2.4,1H9v-8H4.2l-2.1,3.7l-2,1.9C0.1,16.7,0,16.9,0,17v2h2.6C3.2,18.4,4.1,18,5,18z M3.6,15.3l1.5-3
			C5.1,12.1,5.3,12,5.5,12H7c0.3,0,0.5,0.2,0.5,0.5v3C7.5,15.8,7.3,16,7,16H4c-0.2,0-0.3-0.1-0.4-0.2C3.5,15.6,3.5,15.4,3.6,15.3z"
			/>
		<path d="M10,19h6.6c0.6-0.6,1.5-1,2.4-1c0.9,0,1.8,0.4,2.4,1H24v-6H10V19z"/>
		<path d="M15.9,20H8.1c0.4,0.8,0.4,1.4,0.3,2h7.1C15.4,21.3,15.6,20.6,15.9,20z"/>
		<path d="M22.4,22h1.1c0.3,0,0.5-0.2,0.5-0.5V20h-1.9C22.4,20.6,22.6,21.3,22.4,22z"/>
		<path d="M0,20v1.5C0,21.8,0.2,22,0.5,22h1.1c-0.1-0.6-0.1-1.2,0.3-2H0z"/>
	</g>
</g>
<g id="Outline_Icons">
	<g>
		<circle class="st2" cx="5" cy="21.5" r="2"/>
		<circle class="st2" cx="19" cy="21.5" r="2"/>
		<polyline class="st2" points="21,21.5 23.5,21.5 23.5,3.5 4.5,3.5 1.5,10.5 9,10.5 		"/>
		<line class="st2" x1="7" y1="21.5" x2="17" y2="21.5"/>
		<polyline class="st2" points="7.5,12.5 6,12.5 4.5,15.5 		"/>
		<polyline class="st2" points="3,21.5 0.5,21.5 0.5,17 2.5,15 5,10.5 9.5,10.5 9.5,19.5 		"/>
		<line class="st2" x1="0.5" y1="19.5" x2="23.5" y2="19.5"/>
		<polygon class="st2" points="9.5,8.5 5.5,8.5 6.5,5.5 9.5,5.5 		"/>
		<line class="st2" x1="9.5" y1="12.5" x2="23.5" y2="12.5"/>
		<rect x="12.5" y="5.5" class="st2" width="9" height="3"/>
	</g>
</g>
</svg>
