<?xml version="1.0" encoding="utf-8"?>
<!-- Generator: Adobe Illustrator 19.2.0, SVG Export Plug-In . SVG Version: 6.00 Build 0)  -->
<svg version="1.1" id="Layer_1" xmlns="http://www.w3.org/2000/svg" xmlns:xlink="http://www.w3.org/1999/xlink" x="0px" y="0px"
	 viewBox="0 0 24 24" style="enable-background:new 0 0 24 24;" xml:space="preserve">
<style type="text/css">
	.st0{display:none;}
	.st1{display:inline;}
	.st2{fill:none;stroke:#000000;stroke-linecap:round;stroke-linejoin:round;stroke-miterlimit:10;}
	.st3{fill:none;stroke:#000000;stroke-linejoin:round;stroke-miterlimit:10;}
</style>
<g id="Filled_Icon" class="st0">
	<path class="st1" d="M21,6v1h-3.5c-2.2,0-4.4,0.7-6.2,2.1c0,0,0-0.1-0.1-0.1l4.3-4.4C16,4.8,16.5,5,17,5c1.4,0,2.5-1.1,2.5-2.5
		C19.5,1.1,18.4,0,17,0c-1.4,0-2.5,1.1-2.5,2.5c0,0.5,0.1,0.9,0.4,1.3l-4.4,4.5C10.2,8.1,9.9,8,9.5,8c-1.1,0-2,0.9-2,2
		c0,0.4,0.1,0.7,0.3,1L4,15c-0.4-0.3-0.9-0.5-1.5-0.5C1.1,14.5,0,15.6,0,17c0,1.4,1.1,2.5,2.5,2.5C3.9,19.5,5,18.4,5,17
		c0-0.5-0.1-0.9-0.4-1.3l3.9-4c0.1,0,0.1,0.1,0.2,0.1C7.6,13.5,7,15.5,7,17.5V21H6v3h3v-3H8v-3.5c0-2,0.6-3.9,1.8-5.5
		c0.9-0.1,1.6-0.9,1.7-1.8c1.7-1.4,3.8-2.2,6-2.2H21v1h3V6H21z"/>
</g>
<g id="Outline_Icons">
	<g>
		<line class="st2" x1="8.5" y1="11.1" x2="4" y2="15.7"/>
		<line class="st2" x1="15.5" y1="3.8" x2="10.5" y2="8.9"/>
		<circle class="st2" cx="2.5" cy="17" r="2"/>
		<circle class="st2" cx="17" cy="2.5" r="2"/>
		<path class="st2" d="M11,9.9c1.7-1.5,4-2.4,6.5-2.4h4"/>
		<path class="st2" d="M7.5,21.5v-4c0-2.2,0.7-4.3,2-6"/>
		<circle class="st2" cx="9.5" cy="10" r="1.5"/>
		<rect x="6.5" y="21.5" class="st3" width="2" height="2"/>
		<rect x="21.5" y="6.5" class="st3" width="2" height="2"/>
	</g>
</g>
</svg>
