<?xml version="1.0" encoding="utf-8"?>
<!-- Generator: Adobe Illustrator 19.2.0, SVG Export Plug-In . SVG Version: 6.00 Build 0)  -->
<svg version="1.1" id="Layer_1" xmlns="http://www.w3.org/2000/svg" xmlns:xlink="http://www.w3.org/1999/xlink" x="0px" y="0px"
	 viewBox="0 0 24 24" style="enable-background:new 0 0 24 24;" xml:space="preserve">
<style type="text/css">
	.st0{display:none;}
	.st1{display:inline;}
	.st2{fill:none;stroke:#000000;stroke-linejoin:round;stroke-miterlimit:10;}
	.st3{fill:none;stroke:#000000;stroke-linecap:round;stroke-linejoin:round;stroke-miterlimit:10;}
</style>
<g id="Filled_Icon" class="st0">
	<path class="st1" d="M24,5V0h-5v2H5V0H0v5h2v14H0v5h5v-2h14v2h5v-5h-2V5H24z M19,21H5v-2H3V5h2V3h14v2h2v14h-2V21z"/>
</g>
<g id="Outline_Icons">
	<g>
		<line class="st2" x1="21.5" y1="4.5" x2="21.5" y2="19.5"/>
		<line class="st2" x1="4.5" y1="2.5" x2="19.5" y2="2.5"/>
		<line class="st2" x1="2.5" y1="19.5" x2="2.5" y2="4.5"/>
		<line class="st2" x1="19.5" y1="21.5" x2="4.5" y2="21.5"/>
		<rect x="0.5" y="0.5" class="st3" width="4" height="4"/>
		<rect x="19.5" y="0.5" class="st3" width="4" height="4"/>
		<rect x="0.5" y="19.5" class="st3" width="4" height="4"/>
		<rect x="19.5" y="19.5" class="st3" width="4" height="4"/>
	</g>
</g>
</svg>
