<?xml version="1.0" encoding="utf-8"?>
<!-- Generator: Adobe Illustrator 19.2.0, SVG Export Plug-In . SVG Version: 6.00 Build 0)  -->
<svg version="1.1" id="Layer_1" xmlns="http://www.w3.org/2000/svg" xmlns:xlink="http://www.w3.org/1999/xlink" x="0px" y="0px"
	 viewBox="0 0 24 24" style="enable-background:new 0 0 24 24;" xml:space="preserve">
<style type="text/css">
	.st0{display:none;}
	.st1{display:inline;}
	.st2{fill:none;stroke:#000000;stroke-linejoin:round;stroke-miterlimit:10;}
</style>
<g id="Filled_Icon" class="st0">
	<path class="st1" d="M23.5,19h-2.2L13.1,4h0.4C13.8,4,14,3.8,14,3.5v-3C14,0.2,13.8,0,13.5,0h-3C10.2,0,10,0.2,10,0.5v3
		C10,3.8,10.2,4,10.5,4h0.4L2.7,19H0.5C0.2,19,0,19.2,0,19.5v3C0,22.8,0.2,23,0.5,23h3C3.8,23,4,22.8,4,22.5V21h16v1.5
		c0,0.3,0.2,0.5,0.5,0.5h3c0.3,0,0.5-0.2,0.5-0.5v-3C24,19.2,23.8,19,23.5,19z M4,20v-0.5c0-0.2-0.1-0.3-0.2-0.4L12,4l8.2,15.1
		c-0.1,0.1-0.2,0.2-0.2,0.4V20H4z"/>
</g>
<g id="Outline_Icons">
	<g>
		<rect x="10.5" y="0.5" class="st2" width="3" height="3"/>
		<rect x="20.5" y="19.5" class="st2" width="3" height="3"/>
		<rect x="0.5" y="19.5" class="st2" width="3" height="3"/>
		<line class="st2" x1="12.3" y1="3.5" x2="21" y2="19.5"/>
		<line class="st2" x1="3" y1="19.5" x2="11.7" y2="3.5"/>
		<line class="st2" x1="20.5" y1="20.5" x2="3.5" y2="20.5"/>
	</g>
</g>
</svg>
