<?xml version="1.0" encoding="utf-8"?>
<!-- Generator: Adobe Illustrator 19.2.0, SVG Export Plug-In . SVG Version: 6.00 Build 0)  -->
<svg version="1.1" id="Layer_1" xmlns="http://www.w3.org/2000/svg" xmlns:xlink="http://www.w3.org/1999/xlink" x="0px" y="0px"
	 viewBox="0 0 24 24" style="enable-background:new 0 0 24 24;" xml:space="preserve">
<style type="text/css">
	.st0{display:none;}
	.st1{display:inline;}
	.st2{fill:none;stroke:#000000;stroke-linecap:round;stroke-linejoin:round;stroke-miterlimit:10;}
</style>
<g id="Filled_Icon" class="st0">
	<g class="st1">
		<path d="M21,6v12c0,0.3,0.2,0.5,0.5,0.5c0.3,0,0.5-0.2,0.5-0.5V6c0-0.3-0.2-0.5-0.5-0.5C21.2,5.5,21,5.7,21,6z"/>
		<path d="M17.5,2h-11C6.2,2,6,2.2,6,2.5C6,2.8,6.2,3,6.5,3h11C17.8,3,18,2.8,18,2.5C18,2.2,17.8,2,17.5,2z"/>
		<path d="M3,18V6c0-0.3-0.2-0.5-0.5-0.5C2.2,5.5,2,5.7,2,6v12c0,0.3,0.2,0.5,0.5,0.5C2.8,18.5,3,18.3,3,18z"/>
		<path d="M17.5,21h-11C6.2,21,6,21.2,6,21.5C6,21.8,6.2,22,6.5,22h11c0.3,0,0.5-0.2,0.5-0.5C18,21.2,17.8,21,17.5,21z"/>
		<path d="M21.5,5C22.9,5,24,3.9,24,2.5C24,1.1,22.9,0,21.5,0C20.1,0,19,1.1,19,2.5C19,3.9,20.1,5,21.5,5z"/>
		<path d="M2.5,0C1.1,0,0,1.1,0,2.5C0,3.9,1.1,5,2.5,5C3.9,5,5,3.9,5,2.5C5,1.1,3.9,0,2.5,0z"/>
		<path d="M21.5,19c-1.4,0-2.5,1.1-2.5,2.5c0,1.4,1.1,2.5,2.5,2.5c1.4,0,2.5-1.1,2.5-2.5C24,20.1,22.9,19,21.5,19z"/>
		<path d="M2.5,19C1.1,19,0,20.1,0,21.5C0,22.9,1.1,24,2.5,24C3.9,24,5,22.9,5,21.5C5,20.1,3.9,19,2.5,19z"/>
	</g>
</g>
<g id="Outline_Icons">
	<g>
		<line class="st2" x1="21.5" y1="6" x2="21.5" y2="18"/>
		<line class="st2" x1="6.5" y1="2.5" x2="17.5" y2="2.5"/>
		<line class="st2" x1="2.5" y1="18" x2="2.5" y2="6"/>
		<line class="st2" x1="17.5" y1="21.5" x2="6.5" y2="21.5"/>
		<circle class="st2" cx="21.5" cy="2.5" r="2"/>
		<circle class="st2" cx="2.5" cy="2.5" r="2"/>
		<circle class="st2" cx="21.5" cy="21.5" r="2"/>
		<circle class="st2" cx="2.5" cy="21.5" r="2"/>
	</g>
</g>
</svg>
