<?xml version="1.0" encoding="utf-8"?>
<!-- Generator: Adobe Illustrator 19.2.0, SVG Export Plug-In . SVG Version: 6.00 Build 0)  -->
<svg version="1.1" id="Layer_1" xmlns="http://www.w3.org/2000/svg" xmlns:xlink="http://www.w3.org/1999/xlink" x="0px" y="0px"
	 viewBox="0 0 24 24" style="enable-background:new 0 0 24 24;" xml:space="preserve">
<style type="text/css">
	.st0{display:none;}
	.st1{display:inline;}
	.st2{fill:none;stroke:#000000;stroke-linejoin:round;stroke-miterlimit:10;}
</style>
<g id="Filled_Icon" class="st0">
	<path class="st1" d="M23.5,0h-5C18.2,0,18,0.2,18,0.5v4.8L5.3,18H0.5C0.2,18,0,18.2,0,18.5v5C0,23.8,0.2,24,0.5,24h5
		C5.8,24,6,23.8,6,23.5v-4.8L18.7,6h4.8C23.8,6,24,5.8,24,5.5v-5C24,0.2,23.8,0,23.5,0z"/>
</g>
<g id="Outline_Icons">
	<g>
		<rect x="0.5" y="18.5" class="st2" width="5" height="5"/>
		<rect x="18.5" y="0.5" class="st2" width="5" height="5"/>
		<line class="st2" x1="5.5" y1="18.5" x2="18.5" y2="5.5"/>
	</g>
</g>
</svg>
