<?xml version="1.0" encoding="utf-8"?>
<!-- Generator: Adobe Illustrator 19.2.0, SVG Export Plug-In . SVG Version: 6.00 Build 0)  -->
<svg version="1.1" id="Layer_1" xmlns="http://www.w3.org/2000/svg" xmlns:xlink="http://www.w3.org/1999/xlink" x="0px" y="0px"
	 viewBox="0 0 24 24" style="enable-background:new 0 0 24 24;" xml:space="preserve">
<style type="text/css">
	.st0{display:none;}
	.st1{display:inline;}
	.st2{fill:none;stroke:#000000;stroke-linejoin:round;stroke-miterlimit:10;}
</style>
<g id="Filled_Icon" class="st0">
	<path class="st1" d="M23.5,10h-1.2c-0.8-4.2-4.1-7.5-8.3-8.3V0.5C14,0.2,13.8,0,13.5,0h-3C10.2,0,10,0.2,10,0.5v1.2
		C5.8,2.5,2.5,5.8,1.7,10H0.5C0.2,10,0,10.2,0,10.5v3C0,13.8,0.2,14,0.5,14h1.2c0.8,4.2,4.1,7.5,8.3,8.3v1.2c0,0.3,0.2,0.5,0.5,0.5
		h3c0.3,0,0.5-0.2,0.5-0.5v-1.2c4.2-0.8,7.5-4.1,8.3-8.3h1.2c0.3,0,0.5-0.2,0.5-0.5v-3C24,10.2,23.8,10,23.5,10z M14,21.3v-0.8
		c0-0.3-0.2-0.5-0.5-0.5h-3c-0.3,0-0.5,0.2-0.5,0.5v0.8c-3.6-0.8-6.5-3.7-7.3-7.3h0.8C3.8,14,4,13.8,4,13.5v-3C4,10.2,3.8,10,3.5,10
		H2.7C3.5,6.4,6.4,3.5,10,2.7v0.8C10,3.8,10.2,4,10.5,4h3C13.8,4,14,3.8,14,3.5V2.7c3.6,0.8,6.5,3.7,7.3,7.3h-0.8
		c-0.3,0-0.5,0.2-0.5,0.5v3c0,0.3,0.2,0.5,0.5,0.5h0.8C20.5,17.6,17.6,20.5,14,21.3z"/>
</g>
<g id="Outline_Icons">
	<g>
		<rect x="10.5" y="0.5" class="st2" width="3" height="3"/>
		<rect x="10.5" y="20.5" class="st2" width="3" height="3"/>
		<rect x="20.5" y="10.5" class="st2" width="3" height="3"/>
		<rect x="0.5" y="10.5" class="st2" width="3" height="3"/>
		<path class="st2" d="M2.1,10.5c0.7-4.3,4.1-7.7,8.4-8.4"/>
		<path class="st2" d="M10.5,21.9c-4.3-0.7-7.7-4.1-8.4-8.4"/>
		<path class="st2" d="M21.9,13.5c-0.7,4.3-4.1,7.7-8.4,8.4"/>
		<path class="st2" d="M13.5,2.1c4.3,0.6,7.7,4.1,8.4,8.4"/>
	</g>
</g>
</svg>
