<?xml version="1.0" encoding="utf-8"?>
<!-- Generator: Adobe Illustrator 19.2.0, SVG Export Plug-In . SVG Version: 6.00 Build 0)  -->
<svg version="1.1" id="Layer_1" xmlns="http://www.w3.org/2000/svg" xmlns:xlink="http://www.w3.org/1999/xlink" x="0px" y="0px"
	 viewBox="0 0 24 24" style="enable-background:new 0 0 24 24;" xml:space="preserve">
<style type="text/css">
	.st0{display:none;}
	.st1{display:inline;}
	.st2{fill:none;stroke:#000000;stroke-linecap:round;stroke-linejoin:round;stroke-miterlimit:10;}
</style>
<g id="Filled_Icons" class="st0">
	<g class="st1">
		<path d="M11.5,15C10.1,15,9,16.1,9,17.5v4c0,1.4,1.1,2.5,2.5,2.5s2.5-1.1,2.5-2.5v-4C14,16.1,12.9,15,11.5,15z"/>
		<path d="M20,2h-4.1c-0.8-1.2-2.5-2-4.3-2C9.7,0,8.1,0.8,7.2,2H3C2.7,2,2.5,2.2,2.5,2.5S2.7,3,3,3h3.7C6.7,3.2,6.6,3.5,6.6,3.8
			c0,1.6,1.3,2.9,3.1,3.5C6.9,8,5,10.7,5,14.5v3c0,2,1.3,3.6,3,4.2c0-0.5,0-3.7,0-4.2c0-1.9,1.6-3.5,3.5-3.5s3.5,1.6,3.5,3.5
			c0,0.5,0,3.6,0,4.2c1.7-0.7,3-2.3,3-4.2v-3c0-3.7-1.8-6.5-4.7-7.3c1.9-0.5,3.2-1.9,3.2-3.5c0-0.3,0-0.5-0.1-0.8H20
			c0.3,0,0.5-0.2,0.5-0.5S20.3,2,20,2z M13,12.5c0,0.3-0.2,0.5-0.5,0.5h-2c-0.3,0-0.5-0.2-0.5-0.5v-4C10,8.2,10.2,8,10.5,8h2
			C12.8,8,13,8.2,13,8.5V12.5z M11.6,6c-1.1,0-2-0.9-2-2s0.9-2,2-2s2,0.9,2,2S12.7,6,11.6,6z"/>
	</g>
</g>
<g id="Outline_Icons">
	<g>
		<path class="st2" d="M9.5,21.5c-2.2,0-4-1.8-4-4v-3c0-3.9,2.1-7,6-7s6,3.1,6,7v3c0,2.1-1.9,3.8-4,4"/>
		<path class="st2" d="M13.5,17.5c0-1.1-0.9-2-2-2c-1.1,0-2,0.9-2,2v4c0,1.1,0.9,2,2,2c1.1,0,2-0.9,2-2V17.5z"/>
		<ellipse class="st2" cx="11.6" cy="3.8" rx="4.4" ry="3.2"/>
		<line class="st2" x1="15.7" y1="2.5" x2="20" y2="2.5"/>
		<line class="st2" x1="3" y1="2.5" x2="7.5" y2="2.5"/>
		<polyline class="st2" points="10.5,7.6 10.5,12.5 12.5,12.5 12.5,7.6 		"/>
		<g>
			<path d="M11.6,3c0.6,0,1,0.4,1,1s-0.4,1-1,1c-0.6,0-1-0.4-1-1S11,3,11.6,3 M11.6,2c-1.1,0-2,0.9-2,2s0.9,2,2,2s2-0.9,2-2
				S12.7,2,11.6,2L11.6,2z"/>
		</g>
	</g>
</g>
</svg>
