<?xml version="1.0" encoding="utf-8"?>
<!-- Generator: Adobe Illustrator 19.2.0, SVG Export Plug-In . SVG Version: 6.00 Build 0)  -->
<svg version="1.1" id="Layer_1" xmlns="http://www.w3.org/2000/svg" xmlns:xlink="http://www.w3.org/1999/xlink" x="0px" y="0px"
	 viewBox="0 0 24 24" style="enable-background:new 0 0 24 24;" xml:space="preserve">
<style type="text/css">
	.st0{display:none;}
	.st1{display:inline;}
	.st2{fill:none;stroke:#000000;stroke-linecap:round;stroke-linejoin:round;stroke-miterlimit:10;}
</style>
<g id="Filled_Icons" class="st0">
	<g class="st1">
		<path d="M8.5,20h-6C2.2,20,2,20.2,2,20.5C2,22.4,3.6,24,5.5,24S9,22.4,9,20.5C9,20.2,8.8,20,8.5,20z"/>
		<path d="M22.5,19.5h-6c-0.3,0-0.5,0.2-0.5,0.5c0,2.3,1.5,4,3.5,4s3.5-1.7,3.5-4C23,19.7,22.8,19.5,22.5,19.5z"/>
		<path d="M19.5,14h-1.6c0.1-0.3,0.1-0.7,0.1-1v-1.5c0.4,0.3,0.9,0.5,1.5,0.5c0.3,0,0.5-0.2,0.5-0.5v-4C20,7.2,19.8,7,19.5,7
			c-0.6,0-1.1,0.2-1.5,0.5v0c0-1.1-0.9-2-2-2h-1.5C14.2,5.5,14,5.7,14,6s0.2,0.5,0.5,0.5H16c0.6,0,1,0.4,1,1V13
			c0,2.3-1.4,4.3-3.6,5.1c-0.2-1.6-1.1-2.9-2.4-3.7c0.6-0.2,1-0.8,1-1.4v-2c0-0.3-0.2-0.5-0.5-0.5h-10C1.2,10.5,1,10.7,1,11v1
			c0,0.1,0.1,0.3,0.1,0.4l1.8,1.8C1.2,15.1,0,16.9,0,19c0,0.3,0.2,0.5,0.5,0.5h11c0.7,0,1.3-0.1,1.9-0.3c0.6-0.2,1.1-0.4,1.5-0.7
			h8.5c0.3,0,0.5-0.2,0.5-0.5C24,15.8,22,14,19.5,14z"/>
	</g>
</g>
<g id="Outline_Icons">
	<g>
		<path class="st2" d="M8.5,20.5c0,1.7-1.3,3-3,3c-1.7,0-3-1.3-3-3"/>
		<path class="st2" d="M17.3,16h2.2c2.2,0,4,1.6,4,3.5h-8.7"/>
		<path class="st2" d="M11.5,14.5c0,0.6-0.4,1-1,1h-7l-2-2v-1h10V14.5z"/>
		<path class="st2" d="M19.5,13c-1.1,0-2-0.9-2-2s0.9-2,2-2V13z"/>
		<path class="st2" d="M14.5,7.5H16c0.8,0,1.5,0.7,1.5,1.5v5.5c0,3.3-2.7,6-6,6h-11c0-2.8,2.2-5,5-5H8c2.6,0,4.7,2,5,4.5l0,0.3"/>
		<path class="st2" d="M16.7,19.5c-0.1,0.3-0.2,0.6-0.2,1c0,1.7,1.3,3,3,3c1.7,0,3-1.3,3-3c0-0.4-0.1-0.7-0.2-1"/>
	</g>
</g>
</svg>
