<?xml version="1.0" encoding="utf-8"?>
<!-- Generator: Adobe Illustrator 19.2.0, SVG Export Plug-In . SVG Version: 6.00 Build 0)  -->
<svg version="1.1" id="Layer_1" xmlns="http://www.w3.org/2000/svg" xmlns:xlink="http://www.w3.org/1999/xlink" x="0px" y="0px"
	 viewBox="0 0 24 24" style="enable-background:new 0 0 24 24;" xml:space="preserve">
<style type="text/css">
	.st0{display:none;}
	.st1{display:inline;}
	.st2{fill:none;stroke:#000000;stroke-linecap:round;stroke-linejoin:round;stroke-miterlimit:10;}
</style>
<g id="Filled_Icons" class="st0">
	<g class="st1">
		<path d="M4.5,4.7L0.2,8.1C0.1,8.2,0,8.3,0,8.5c0,0.1,0,0.3,0.1,0.4L3,11.9c0.1,0.1,0.2,0.2,0.4,0.2c0,0,0,0,0,0
			c0.1,0,0.3-0.1,0.3-0.1l0.8-0.7V4.7z"/>
		<path d="M22.8,8.1l-4.3-3.4v6.6l0.7,0.7c0.1,0.1,0.2,0.1,0.3,0.1c0,0,0,0,0,0c0.1,0,0.3-0.1,0.4-0.2l2.9-3.1
			C22.9,8.7,23,8.6,23,8.5C22.9,8.3,22.9,8.2,22.8,8.1z"/>
		<path d="M17,15.1l0.5-2c0,0,0,0,0-0.1V4h-1.8l-0.9-0.9C14.6,3.1,14.5,3,14.4,3H8.6c-0.1,0-0.2,0-0.3,0.1L7.3,4H5.5v9c0,0,0,0,0,0
			L6,15l-2,6.3c0,0.1,0,0.3,0.1,0.4C4.2,21.9,4.3,22,4.5,22H10c0.2,0,0.4-0.1,0.5-0.3L11,20V10C9.7,7.8,8.5,5.5,8.1,4.6L8.8,4h5.4
			l0.7,0.6C14.4,5.5,13.2,7.7,12,10v10l0.6,1.7c0.1,0.2,0.3,0.3,0.5,0.3h5.4c0.2,0,0.3-0.1,0.4-0.2c0.1-0.1,0.1-0.3,0.1-0.4L17,15.1
			z M8.5,19C8.2,19,8,18.8,8,18.5S8.2,18,8.5,18S9,18.2,9,18.5S8.8,19,8.5,19z M8.5,16C8.8,16,9,16.2,9,16.5S8.8,17,8.5,17
			S8,16.8,8,16.5S8.2,16,8.5,16z M14.5,19c-0.3,0-0.5-0.2-0.5-0.5s0.2-0.5,0.5-0.5s0.5,0.2,0.5,0.5S14.8,19,14.5,19z M14.5,17
			c-0.3,0-0.5-0.2-0.5-0.5s0.2-0.5,0.5-0.5s0.5,0.2,0.5,0.5S14.8,17,14.5,17z"/>
	</g>
</g>
<g id="Outline_Icons">
	<g>
		<polyline class="st2" points="7.5,4.5 5.5,4.5 5.5,11 6.5,15 4.5,21.5 10,21.5 11.5,17 13.1,21.5 18.5,21.5 16.5,15.1 17.5,11 
			17.5,4.5 15.5,4.5 		"/>
		<path class="st2" d="M11.5,12c-1.9-2.8-4-7.5-4-7.5l1.1-1h5.8l1.1,1C15.5,4.5,13.3,8.8,11.5,12z"/>
		<g>
			<path d="M14.5,16c-0.3,0-0.5,0.2-0.5,0.5s0.2,0.5,0.5,0.5s0.5-0.2,0.5-0.5S14.8,16,14.5,16L14.5,16z"/>
		</g>
		<g>
			<path d="M14.5,18c-0.3,0-0.5,0.2-0.5,0.5s0.2,0.5,0.5,0.5s0.5-0.2,0.5-0.5S14.8,18,14.5,18L14.5,18z"/>
		</g>
		<g>
			<path d="M8.5,16C8.2,16,8,16.2,8,16.5S8.2,17,8.5,17S9,16.8,9,16.5S8.8,16,8.5,16L8.5,16z"/>
		</g>
		<g>
			<path d="M8.5,18C8.2,18,8,18.2,8,18.5S8.2,19,8.5,19S9,18.8,9,18.5S8.8,18,8.5,18L8.5,18z"/>
		</g>
		<line class="st2" x1="11.5" y1="17" x2="11.5" y2="12"/>
		<polyline class="st2" points="17.5,9.6 19.6,11.6 22.5,8.5 17.5,4.5 		"/>
		<polyline class="st2" points="5.5,9.6 3.4,11.6 0.5,8.5 5.5,4.5 		"/>
	</g>
</g>
</svg>
