<?xml version="1.0" encoding="utf-8"?>
<!-- Generator: Adobe Illustrator 19.2.0, SVG Export Plug-In . SVG Version: 6.00 Build 0)  -->
<svg version="1.1" id="Layer_1" xmlns="http://www.w3.org/2000/svg" xmlns:xlink="http://www.w3.org/1999/xlink" x="0px" y="0px"
	 viewBox="0 0 24 24" style="enable-background:new 0 0 24 24;" xml:space="preserve">
<style type="text/css">
	.st0{display:none;}
	.st1{display:inline;}
	.st2{fill:none;stroke:#000000;stroke-linecap:round;stroke-linejoin:round;stroke-miterlimit:10;}
	.st3{fill:none;stroke:#000000;stroke-linejoin:round;stroke-miterlimit:10;}
</style>
<g id="Filled_Icons" class="st0">
	<path class="st1" d="M12,0C5.4,0,0,5.4,0,12c0,6.6,5.4,12,12,12c6.6,0,12-5.4,12-12C24,5.4,18.6,0,12,0z M19,15.5
		c0,0.2-0.1,0.3-0.3,0.4c-0.2,0.1-0.4,0.1-0.5,0l-3.2-2v2.6c0,0.3-0.2,0.5-0.5,0.5h-9C5.2,17,5,16.8,5,16.5v-9C5,7.2,5.2,7,5.5,7h9
		C14.8,7,15,7.2,15,7.5v2.6l3.2-2c0.2-0.1,0.3-0.1,0.5,0C18.9,8.2,19,8.3,19,8.5V15.5z"/>
</g>
<g id="Outline_Icons">
	<g>
		<polygon class="st2" points="14.5,16.5 5.5,16.5 5.5,7.5 14.5,7.5 14.5,11 18.5,8.5 18.5,15.5 14.5,13 		"/>
		<circle class="st3" cx="12" cy="12" r="11.5"/>
	</g>
</g>
</svg>
