<?xml version="1.0" encoding="utf-8"?>
<!-- Generator: Adobe Illustrator 19.2.0, SVG Export Plug-In . SVG Version: 6.00 Build 0)  -->
<svg version="1.1" id="Layer_1" xmlns="http://www.w3.org/2000/svg" xmlns:xlink="http://www.w3.org/1999/xlink" x="0px" y="0px"
	 viewBox="0 0 24 24" style="enable-background:new 0 0 24 24;" xml:space="preserve">
<style type="text/css">
	.st0{display:none;}
	.st1{display:inline;}
	.st2{fill:none;stroke:#000000;stroke-linejoin:round;stroke-miterlimit:10;}
	.st3{fill:none;stroke:#000000;stroke-linecap:round;stroke-linejoin:round;stroke-miterlimit:10;}
</style>
<g id="Filled_Icon" class="st0">
	<g class="st1">
		<path d="M23.5,12.5c-0.3-0.2-0.7-0.2-1.1-0.1L18,14.2v-1.8c0-0.8-0.7-1.5-1.5-1.5h-14C1.7,11,1,11.7,1,12.5v8
			C1,21.3,1.7,22,2.5,22h14c0.8,0,1.5-0.7,1.5-1.5v-1.8l4.4,1.8c0.2,0.1,0.4,0.1,0.5,0.1c0.2,0,0.4-0.1,0.6-0.2
			c0.3-0.2,0.5-0.6,0.5-1v-6C24,13.1,23.8,12.7,23.5,12.5z M14.5,15h-10C4.2,15,4,14.8,4,14.5S4.2,14,4.5,14h10
			c0.3,0,0.5,0.2,0.5,0.5S14.8,15,14.5,15z"/>
		<path d="M4.5,10C7,10,9,8,9,5.5S7,1,4.5,1S0,3,0,5.5S2,10,4.5,10z"/>
		<circle cx="13" cy="7" r="3"/>
	</g>
</g>
<g id="Outline_Icons">
	<g>
		<path class="st2" d="M17.5,20.5c0,0.5-0.5,1-1,1h-14c-0.5,0-1-0.5-1-1v-8c0-0.5,0.5-1,1-1h14c0.5,0,1,0.5,1,1V20.5z"/>
		<line class="st3" x1="4.5" y1="14.5" x2="14.5" y2="14.5"/>
		<circle class="st3" cx="4.5" cy="5.5" r="4"/>
		<circle class="st3" cx="13" cy="7" r="2.5"/>
		<path class="st3" d="M17.5,18l5.1,2.1c0.5,0.2,0.9-0.1,0.9-0.6v-6c0-0.5-0.4-0.8-0.9-0.6L17.5,15"/>
	</g>
</g>
</svg>
