<?xml version="1.0" encoding="utf-8"?>
<!-- Generator: Adobe Illustrator 19.2.0, SVG Export Plug-In . SVG Version: 6.00 Build 0)  -->
<svg version="1.1" id="Outline_Icons" xmlns="http://www.w3.org/2000/svg" xmlns:xlink="http://www.w3.org/1999/xlink" x="0px"
	 y="0px" viewBox="0 0 24 24" style="enable-background:new 0 0 24 24;" xml:space="preserve">
<style type="text/css">
	.st0{fill:none;stroke:#000000;stroke-linecap:round;stroke-linejoin:round;stroke-miterlimit:10;}
	.st1{fill:none;stroke:#000000;stroke-linejoin:round;stroke-miterlimit:10;}
	.st2{fill:none;stroke:#000000;stroke-linecap:square;stroke-linejoin:round;stroke-miterlimit:10;}
</style>
<g>
	<g>
		<path class="st0" d="M23.5,18.9c0,0.9-0.7,1.6-1.5,1.6H2c-0.8,0-1.5-0.7-1.5-1.6V4.1c0-0.9,0.7-1.6,1.5-1.6h20
			c0.6,0,1.4,0.6,1.5,1.6V18.9z"/>
		<line class="st0" x1="5" y1="22.5" x2="19" y2="22.5"/>
		<line class="st0" x1="11.5" y1="20.5" x2="11.5" y2="22.5"/>
		<circle class="st1" cx="12" cy="18.5" r="0.5"/>
		<line class="st1" x1="0.5" y1="16.5" x2="23.5" y2="16.5"/>
	</g>
	<g>
		<line class="st0" x1="8.5" y1="14" x2="8.5" y2="5"/>
		<line class="st0" x1="15.5" y1="5" x2="15.5" y2="14"/>
		<rect x="5.5" y="5.5" class="st2" width="1" height="1"/>
		<rect x="5.5" y="8.5" class="st2" width="1" height="1"/>
		<rect x="5.5" y="11.5" class="st2" width="1" height="1"/>
		<rect x="17.5" y="5.5" class="st2" width="1" height="1"/>
		<rect x="17.5" y="8.5" class="st2" width="1" height="1"/>
		<rect x="17.5" y="11.5" class="st2" width="1" height="1"/>
		<line class="st0" x1="3.5" y1="14" x2="3.5" y2="5"/>
		<line class="st0" x1="20.5" y1="5" x2="20.5" y2="14"/>
		<line class="st2" x1="8.5" y1="7.5" x2="15.5" y2="7.5"/>
		<line class="st2" x1="8.5" y1="11.5" x2="15.5" y2="11.5"/>
	</g>
</g>
</svg>
