<?xml version="1.0" encoding="utf-8"?>
<!-- Generator: Adobe Illustrator 19.2.0, SVG Export Plug-In . SVG Version: 6.00 Build 0)  -->
<svg version="1.1" id="Layer_1" xmlns="http://www.w3.org/2000/svg" xmlns:xlink="http://www.w3.org/1999/xlink" x="0px" y="0px"
	 viewBox="0 0 24 24" style="enable-background:new 0 0 24 24;" xml:space="preserve">
<style type="text/css">
	.st0{display:none;}
	.st1{display:inline;}
	.st2{fill:none;stroke:#000000;stroke-linecap:round;stroke-linejoin:round;stroke-miterlimit:10;}
	.st3{fill:none;stroke:#000000;stroke-linejoin:round;stroke-miterlimit:10;}
</style>
<g id="Filled_Icons" class="st0">
	<path class="st1" d="M20.5,0h-17C1.6,0,0,1.6,0,3.5v17C0,22.4,1.6,24,3.5,24h17c1.9,0,3.5-1.6,3.5-3.5v-17C24,1.6,22.4,0,20.5,0z
		 M19,15.5c0,0.2-0.1,0.3-0.3,0.4c-0.2,0.1-0.4,0.1-0.5,0l-3.2-2v2.6c0,0.3-0.2,0.5-0.5,0.5h-9C5.2,17,5,16.8,5,16.5v-9
		C5,7.2,5.2,7,5.5,7h9C14.8,7,15,7.2,15,7.5v2.6l3.2-2c0.2-0.1,0.3-0.1,0.5,0C18.9,8.2,19,8.3,19,8.5V15.5z"/>
</g>
<g id="Outline_Icons">
	<g>
		<polygon class="st2" points="14.5,16.5 5.5,16.5 5.5,7.5 14.5,7.5 14.5,11 18.5,8.5 18.5,15.5 14.5,13 		"/>
		<path class="st3" d="M23.5,20.5c0,1.7-1.3,3-3,3h-17c-1.6,0-3-1.3-3-3v-17c0-1.6,1.4-3,3-3h17c1.7,0,3,1.4,3,3V20.5z"/>
	</g>
</g>
</svg>
