<?xml version="1.0" encoding="utf-8"?>
<!-- Generator: Adobe Illustrator 19.2.0, SVG Export Plug-In . SVG Version: 6.00 Build 0)  -->
<svg version="1.1" id="Layer_1" xmlns="http://www.w3.org/2000/svg" xmlns:xlink="http://www.w3.org/1999/xlink" x="0px" y="0px"
	 viewBox="0 0 24 24" style="enable-background:new 0 0 24 24;" xml:space="preserve">
<style type="text/css">
	.st0{display:none;}
	.st1{display:inline;}
	.st2{fill:none;stroke:#000000;stroke-linecap:round;stroke-linejoin:round;stroke-miterlimit:10;}
</style>
<g id="Filled_Icon" class="st0">
	<g class="st1">
		<circle cx="6" cy="14.5" r="1"/>
		<circle cx="13" cy="14.5" r="1"/>
		<path d="M23.5,10.4c-0.3-0.2-0.7-0.2-1-0.1L18,12.2v-1.8C18,9.7,17.3,9,16.5,9H16V6.5C16,6.2,16.2,6,16.5,6h1.6
			c0.2,0.6,0.8,1,1.4,1h3C23.3,7,24,6.3,24,5.5S23.3,4,22.5,4h-3c-0.7,0-1.2,0.4-1.4,1h-1.6C15.7,5,15,5.7,15,6.5V9h-3V7.5
			C12,6.7,11.3,6,10.5,6h-10C0.2,6,0,6.2,0,6.5S0.2,7,0.5,7h10C10.8,7,11,7.2,11,7.5V9H2.5C1.7,9,1,9.7,1,10.5v8
			C1,19.3,1.7,20,2.5,20h14c0.8,0,1.5-0.7,1.5-1.5v-1.8l4.6,1.9c0.1,0.1,0.3,0.1,0.4,0.1c0.2,0,0.4-0.1,0.6-0.2
			c0.3-0.2,0.5-0.5,0.5-0.9v-6.4C24,11,23.8,10.6,23.5,10.4z M13,16.5c-1.1,0-2-0.9-2-2c0-0.4,0.1-0.7,0.3-1H7.7
			c0.2,0.3,0.3,0.6,0.3,1c0,1.1-0.9,2-2,2s-2-0.9-2-2s0.9-2,2-2h7c1.1,0,2,0.9,2,2S14.1,16.5,13,16.5z"/>
	</g>
</g>
<g id="Outline_Icons">
	<g>
		<path class="st2" d="M17.5,18.5c0,0.6-0.4,1-1,1h-14c-0.6,0-1-0.4-1-1v-8c0-0.6,0.4-1,1-1h14c0.6,0,1,0.4,1,1V18.5z"/>
		<circle class="st2" cx="6" cy="14" r="1.5"/>
		<circle class="st2" cx="13" cy="14" r="1.5"/>
		<line class="st2" x1="6" y1="12.5" x2="13" y2="12.5"/>
		<path class="st2" d="M0.5,6.5h10c0.6,0,1,0.4,1,1v2"/>
		<path class="st2" d="M15.5,9.5v-3c0-0.6,0.4-1,1-1h2"/>
		<path class="st2" d="M23.5,5.5c0,0.6-0.4,1-1,1h-3c-0.6,0-1-0.4-1-1s0.4-1,1-1h3C23.1,4.5,23.5,4.9,23.5,5.5z"/>
		<path class="st2" d="M17.5,13l5.3-2.2c0.2-0.1,0.4-0.1,0.5,0s0.2,0.3,0.2,0.4v6.4c0,0.2-0.1,0.3-0.2,0.4c-0.2,0.1-0.3,0.1-0.5,0
			l-5.3-2"/>
	</g>
</g>
</svg>
