<?xml version="1.0" encoding="utf-8"?>
<!-- Generator: Adobe Illustrator 19.2.0, SVG Export Plug-In . SVG Version: 6.00 Build 0)  -->
<svg version="1.1" id="Layer_1" xmlns="http://www.w3.org/2000/svg" xmlns:xlink="http://www.w3.org/1999/xlink" x="0px" y="0px"
	 viewBox="0 0 24 24" style="enable-background:new 0 0 24 24;" xml:space="preserve">
<style type="text/css">
	.st0{display:none;}
	.st1{display:inline;}
	.st2{fill:none;stroke:#000000;stroke-linecap:round;stroke-linejoin:round;stroke-miterlimit:10;}
</style>
<g id="Filled_Icon" class="st0">
	<g class="st1">
		<g>
			<g>
				<path d="M15.5,11c-0.3,0-0.5,0.2-0.5,0.5s0.2,0.5,0.5,0.5s0.5-0.2,0.5-0.5S15.8,11,15.5,11L15.5,11z"/>
			</g>
		</g>
		<path d="M15.5,3c-0.2,0-0.3,0-0.5,0v6c0.2,0,0.3,0,0.5,0c1.4,0,2.5,1.1,2.5,2.5S16.9,14,15.5,14c-0.2,0-0.3,0-0.5-0.1v6
			c0.2,0,0.3,0,0.5,0c4.7,0,8.5-3.8,8.5-8.5C24,6.8,20.2,3,15.5,3z"/>
		<g>
			<path d="M5.5,14c0.1,0,0.1,0,0.2,0l3.5-1.5c0.2-0.1,0.3-0.3,0.3-0.5s-0.1-0.4-0.3-0.5L5.7,10c-0.2-0.1-0.3-0.1-0.5,0
				C5.1,10.2,5,10.3,5,10.5v3c0,0.2,0.1,0.3,0.2,0.4C5.3,14,5.4,14,5.5,14z"/>
			<path d="M13.5,2h-13C0.2,2,0,2.2,0,2.5v18C0,20.8,0.2,21,0.5,21h13c0.3,0,0.5-0.2,0.5-0.5v-18C14,2.2,13.8,2,13.5,2z M6,6h2v2H6
				V6z M2,6.5C2,6.2,2.2,6,2.5,6H5v2H2V6.5z M5,18H2.5C2.2,18,2,17.8,2,17.5V16h3V18z M8,18H6v-2h2V18z M12,17.5
				c0,0.3-0.2,0.5-0.5,0.5H9v-2h3V17.5z M12,15H9H8H6H5H2V9h10V15z M12,8H9V6h2.5C11.8,6,12,6.2,12,6.5V8z"/>
		</g>
	</g>
</g>
<g id="Outline_Icons">
	<g>
		<path class="st2" d="M13.5,3.8c0.6-0.2,1.3-0.3,2-0.3c4.4,0,8,3.6,8,8s-3.6,8-8,8c-0.7,0-1.4-0.1-2-0.3"/>
		<circle class="st2" cx="15.5" cy="11.5" r="2"/>
		<g>
			<g>
				<path d="M15.5,11c-0.3,0-0.5,0.2-0.5,0.5s0.2,0.5,0.5,0.5s0.5-0.2,0.5-0.5S15.8,11,15.5,11L15.5,11z"/>
			</g>
		</g>
		<rect x="0.5" y="2.5" class="st2" width="13" height="18"/>
		<rect x="2.5" y="8.5" class="st2" width="9" height="7"/>
		<rect x="2.5" y="6.5" class="st2" width="9" height="2"/>
		<line class="st2" x1="8.5" y1="6.5" x2="8.5" y2="8.5"/>
		<line class="st2" x1="5.5" y1="6.5" x2="5.5" y2="8.5"/>
		<rect x="2.5" y="15.5" class="st2" width="9" height="2"/>
		<line class="st2" x1="8.5" y1="15.5" x2="8.5" y2="17.5"/>
		<line class="st2" x1="5.5" y1="15.5" x2="5.5" y2="17.5"/>
		<polygon class="st2" points="5.5,13.5 5.5,10.5 9,12 		"/>
	</g>
</g>
</svg>
