<?xml version="1.0" encoding="utf-8"?>
<!-- Generator: Adobe Illustrator 19.2.0, SVG Export Plug-In . SVG Version: 6.00 Build 0)  -->
<svg version="1.1" id="Layer_1" xmlns="http://www.w3.org/2000/svg" xmlns:xlink="http://www.w3.org/1999/xlink" x="0px" y="0px"
	 viewBox="0 0 24 24" style="enable-background:new 0 0 24 24;" xml:space="preserve">
<style type="text/css">
	.st0{display:none;}
	.st1{display:inline;}
	.st2{fill:none;stroke:#000000;stroke-linejoin:round;stroke-miterlimit:10;}
</style>
<g id="Filled_Icon" class="st0">
	<g class="st1">
		<path d="M0,21.1c0,1,0.9,1.9,1.9,1.9H22c1.1,0,1.9-0.9,1.9-1.9V8H0V21.1z M8,11.5c0-0.2,0.1-0.3,0.2-0.4c0.1-0.1,0.3-0.1,0.5,0
			l8,4c0.2,0.1,0.3,0.3,0.3,0.4c0,0.2-0.1,0.4-0.3,0.4l-8,4C8.7,20,8.6,20,8.5,20s-0.2,0-0.3-0.1C8.1,19.8,8,19.7,8,19.5V11.5z"/>
		<polygon points="10.3,7 16.3,1 13.7,1 7.7,7 		"/>
		<path d="M18.3,7l5.4-5.4C23.4,1.2,23,1,22.5,1h-0.8l-6,6H18.3z"/>
		<polygon points="6.3,7 12.3,1 9.7,1 3.7,7 		"/>
		<path d="M1.5,1C0.7,1,0,1.7,0,2.5v3.3L4.8,1H1.5z"/>
		<polygon points="2.3,7 8.3,1 6.2,1 0.2,7 		"/>
		<polygon points="14.3,7 20.3,1 17.7,1 11.7,7 		"/>
		<polygon points="19.7,7 24,7 24,2.7 		"/>
	</g>
</g>
<g id="Outline_Icons">
	<g>
		<path class="st2" d="M23.5,21.1c0,0.8-0.6,1.4-1.4,1.4H1.9c-0.8,0-1.4-0.6-1.4-1.4V8.5h23V21.1z"/>
		<polygon class="st2" points="8.5,19.5 8.5,11.5 16.5,15.5 		"/>
		<path class="st2" d="M23.5,6.5h-23v-4c0-0.6,0.4-1,1-1h21c0.6,0,1,0.4,1,1V6.5z"/>
		<line class="st2" x1="0.5" y1="6" x2="5" y2="1.5"/>
		<line class="st2" x1="3.5" y1="6.5" x2="8.5" y2="1.5"/>
		<line class="st2" x1="7.5" y1="6.5" x2="12.5" y2="1.5"/>
		<line class="st2" x1="11.5" y1="6.5" x2="16.5" y2="1.5"/>
		<line class="st2" x1="15.5" y1="6.5" x2="20.5" y2="1.5"/>
		<line class="st2" x1="19.5" y1="6.5" x2="23.5" y2="2.5"/>
	</g>
</g>
</svg>
