<?xml version="1.0" encoding="utf-8"?>
<!-- Generator: Adobe Illustrator 19.2.0, SVG Export Plug-In . SVG Version: 6.00 Build 0)  -->
<svg version="1.1" id="Layer_1" xmlns="http://www.w3.org/2000/svg" xmlns:xlink="http://www.w3.org/1999/xlink" x="0px" y="0px"
	 viewBox="0 0 24 24" style="enable-background:new 0 0 24 24;" xml:space="preserve">
<style type="text/css">
	.st0{display:none;}
	.st1{display:inline;}
	.st2{fill:none;stroke:#000000;stroke-linecap:round;stroke-linejoin:round;stroke-miterlimit:10;}
</style>
<g id="Filled_Icon" class="st0">
	<g class="st1">
		<path d="M20.5,0h-17C1.6,0,0,1.6,0,3.5v17C0,22.4,1.6,24,3.5,24h17c1.9,0,3.5-1.6,3.5-3.5v-17C24,1.6,22.4,0,20.5,0z M6.5,21h-3
			C3.2,21,3,20.8,3,20.5S3.2,20,3.5,20h3C6.8,20,7,20.2,7,20.5S6.8,21,6.5,21z M12,20c-1.9,0-3.5-1.6-3.5-3.5S10.1,13,12,13
			s3.5,1.6,3.5,3.5S13.9,20,12,20z M20.5,21h-3c-0.3,0-0.5-0.2-0.5-0.5s0.2-0.5,0.5-0.5h3c0.3,0,0.5,0.2,0.5,0.5S20.8,21,20.5,21z
			 M21,16.5c0,0.3-0.2,0.5-0.5,0.5h-4c0-0.2,0-0.3,0-0.5c0-2.5-2-4.5-4.5-4.5s-4.5,2-4.5,4.5c0,0.2,0,0.3,0,0.5h-4
			C3.2,17,3,16.8,3,16.5v-13C3,3.2,3.2,3,3.5,3h17C20.8,3,21,3.2,21,3.5V16.5z"/>
		<path d="M14.2,16.1l-3-1.5c-0.2-0.1-0.3-0.1-0.5,0c-0.1,0.1-0.2,0.3-0.2,0.4v3c0,0.2,0.1,0.3,0.2,0.4c0.1,0.1,0.3,0.1,0.5,0l3-1.5
			c0.2-0.1,0.3-0.3,0.3-0.4C14.5,16.3,14.4,16.1,14.2,16.1z"/>
	</g>
</g>
<g id="Outline_Icons">
	<g>
		<path class="st2" d="M23.5,20.5c0,1.7-1.3,3-3,3h-17c-1.6,0-3-1.3-3-3v-17c0-1.6,1.4-3,3-3h17c1.7,0,3,1.4,3,3V20.5z"/>
		<circle class="st2" cx="12" cy="16.5" r="4"/>
		<polyline class="st2" points="16,16.5 20.5,16.5 20.5,3.5 3.5,3.5 3.5,16.5 8,16.5 		"/>
		<line class="st2" x1="3.5" y1="20.5" x2="6.5" y2="20.5"/>
		<line class="st2" x1="17.5" y1="20.5" x2="20.5" y2="20.5"/>
		<polygon class="st2" points="10.5,18 10.5,15 13.5,16.5 		"/>
	</g>
</g>
</svg>
