<?xml version="1.0" encoding="utf-8"?>
<!-- Generator: Adobe Illustrator 19.2.0, SVG Export Plug-In . SVG Version: 6.00 Build 0)  -->
<svg version="1.1" id="Layer_1" xmlns="http://www.w3.org/2000/svg" xmlns:xlink="http://www.w3.org/1999/xlink" x="0px" y="0px"
	 viewBox="0 0 24 24" style="enable-background:new 0 0 24 24;" xml:space="preserve">
<style type="text/css">
	.st0{display:none;}
	.st1{display:inline;}
	.st2{fill:none;stroke:#000000;stroke-linejoin:round;stroke-miterlimit:10;}
</style>
<g id="Filled_Icons" class="st0">
	<g class="st1">
		<path d="M14.5,5h-13C0.7,5,0,5.7,0,6.5v11C0,18.3,0.7,19,1.5,19h13c0.8,0,1.5-0.7,1.5-1.5v-11C16,5.7,15.3,5,14.5,5z"/>
		<path d="M23.8,6.1c-0.1-0.1-0.3-0.1-0.5,0l-6,3C17.1,9.1,17,9.3,17,9.5v5c0,0.2,0.1,0.4,0.3,0.4l6,3c0.1,0,0.1,0.1,0.2,0.1
			c0.1,0,0.2,0,0.3-0.1c0.1-0.1,0.2-0.3,0.2-0.4v-11C24,6.3,23.9,6.2,23.8,6.1z"/>
	</g>
</g>
<g id="Outline_Icons">
	<g>
		<path class="st2" d="M15.5,17.5c0,0.5-0.5,1-1,1h-13c-0.5,0-1-0.5-1-1v-11c0-0.5,0.5-1,1-1h13c0.5,0,1,0.5,1,1V17.5z"/>
		<polygon class="st2" points="23.5,17.5 17.5,14.5 17.5,9.5 23.5,6.5 		"/>
	</g>
</g>
</svg>
