<?xml version="1.0" encoding="utf-8"?>
<!-- Generator: Adobe Illustrator 19.2.0, SVG Export Plug-In . SVG Version: 6.00 Build 0)  -->
<svg version="1.1" id="Layer_1" xmlns="http://www.w3.org/2000/svg" xmlns:xlink="http://www.w3.org/1999/xlink" x="0px" y="0px"
	 viewBox="0 0 24 24" style="enable-background:new 0 0 24 24;" xml:space="preserve">
<style type="text/css">
	.st0{display:none;}
	.st1{display:inline;}
	.st2{fill:none;stroke:#000000;stroke-linecap:round;stroke-linejoin:round;stroke-miterlimit:10;}
</style>
<g id="Filled_Icon" class="st0">
	<g class="st1">
		<path d="M0.5,4H0v16h0.5h23H24V4h-0.5H0.5z M12,18c-3.3,0-6-2.7-6-6s2.7-6,6-6s6,2.7,6,6S15.3,18,12,18z"/>
		<path d="M23.5,0H17v3h6.5H24V0.5C24,0.2,23.8,0,23.5,0z"/>
		<rect x="8" width="8" height="3"/>
		<path d="M0,21v2.5C0,23.8,0.2,24,0.5,24H7v-3H0.5H0z"/>
		<path d="M7,3V0H0.5C0.2,0,0,0.2,0,0.5V3h0.5H7z"/>
		<rect x="8" y="21" width="8" height="3"/>
		<path d="M17,21v3h6.5c0.3,0,0.5-0.2,0.5-0.5V21h-0.5H17z"/>
		<path d="M14.7,11.6l-4-2c-0.2-0.1-0.3-0.1-0.5,0C10.1,9.7,10,9.8,10,10v4c0,0.2,0.1,0.3,0.2,0.4c0.1,0.1,0.2,0.1,0.3,0.1
			s0.2,0,0.2-0.1l4-2c0.2-0.1,0.3-0.3,0.3-0.4S14.9,11.6,14.7,11.6z"/>
	</g>
</g>
<g id="Outline_Icons">
	<g>
		<rect x="0.5" y="3.5" class="st2" width="23" height="17"/>
		<rect x="0.5" y="0.5" class="st2" width="23" height="3"/>
		<line class="st2" x1="16.5" y1="0.5" x2="16.5" y2="3.5"/>
		<line class="st2" x1="7.5" y1="0.5" x2="7.5" y2="3.5"/>
		<rect x="0.5" y="20.5" class="st2" width="23" height="3"/>
		<line class="st2" x1="16.5" y1="20.5" x2="16.5" y2="23.5"/>
		<line class="st2" x1="7.5" y1="20.5" x2="7.5" y2="23.5"/>
		<circle class="st2" cx="12" cy="12" r="5.5"/>
		<polygon class="st2" points="10.5,14 10.5,10 14.5,12 		"/>
	</g>
</g>
</svg>
