<?xml version="1.0" encoding="utf-8"?>
<!-- Generator: Adobe Illustrator 19.2.0, SVG Export Plug-In . SVG Version: 6.00 Build 0)  -->
<svg version="1.1" id="Layer_1" xmlns="http://www.w3.org/2000/svg" xmlns:xlink="http://www.w3.org/1999/xlink" x="0px" y="0px"
	 viewBox="0 0 24 24" style="enable-background:new 0 0 24 24;" xml:space="preserve">
<style type="text/css">
	.st0{display:none;}
	.st1{display:inline;}
	.st2{fill:none;stroke:#000000;stroke-linecap:round;stroke-linejoin:round;stroke-miterlimit:10;}
	.st3{fill:none;stroke:#000000;stroke-linejoin:round;stroke-miterlimit:10;}
</style>
<g id="Filled_Icon" class="st0">
	<g class="st1">
		<g>
			<path d="M12,10.5c-1.4,0-2.5-1.1-2.5-2.5c0-0.3,0.2-0.5,0.5-0.5c0.3,0,0.5,0.2,0.5,0.5c0,0.8,0.7,1.5,1.5,1.5
				c0.8,0,1.5-0.7,1.5-1.5c0-0.8-0.7-1.5-1.5-1.5c-0.3,0-0.5-0.2-0.5-0.5c0-0.3,0.2-0.5,0.5-0.5c1.4,0,2.5,1.1,2.5,2.5
				C14.5,9.4,13.4,10.5,12,10.5z"/>
		</g>
		<path d="M23.8,7.6C23.8,7.6,23.8,7.6,23.8,7.6C23,6.7,18.1,1,12,1C5.5,1,0.3,7.4,0.1,7.7C0,7.9,0,8.1,0.1,8.3
			c0.2,0.3,5,6.2,11.2,6.7c0.1,0,0.7,0,0.7,0c0.2,0,0.4,0,0.6,0c0.3-2.2,2.1-4,4.4-4c1.1,0,2.1,0.4,2.9,1.1c0.1,0,0.2-0.2,0.3-0.2
			c2.3-1.7,3.7-3.5,3.7-3.6C24,8.2,24,8.1,24,8C24,7.8,23.9,7.7,23.8,7.6z M12,12.5c-2.5,0-4.5-2-4.5-4.5c0-2.5,2-4.5,4.5-4.5
			c2.5,0,4.5,2,4.5,4.5C16.5,10.5,14.5,12.5,12,12.5z"/>
		<path d="M21.5,16h-1v-0.5c0-1.9-1.6-3.5-3.5-3.5c-1.9,0-3.5,1.6-3.5,3.5V16h-1c-0.3,0-0.5,0.2-0.5,0.5v7c0,0.3,0.2,0.5,0.5,0.5h9
			c0.3,0,0.5-0.2,0.5-0.5v-7C22,16.2,21.8,16,21.5,16z M17.5,19.8v1.7c0,0.3-0.2,0.5-0.5,0.5c-0.3,0-0.5-0.2-0.5-0.5v-1.7
			C16.2,19.7,16,19.4,16,19c0-0.6,0.4-1,1-1c0.6,0,1,0.4,1,1C18,19.4,17.8,19.7,17.5,19.8z M19.5,16h-5v-0.5c0-1.4,1.1-2.5,2.5-2.5
			c1.4,0,2.5,1.1,2.5,2.5V16z"/>
	</g>
</g>
<g id="Outline_Icons">
	<g>
		<path class="st2" d="M11.3,14.5C5.3,14,0.5,8,0.5,8S5.6,1.5,12,1.5C18.4,1.5,23.5,8,23.5,8s-1.4,1.8-3.7,3.5"/>
		<circle class="st2" cx="12" cy="8" r="4"/>
		<path class="st2" d="M12,6c1.1,0,2,0.9,2,2c0,1.1-0.9,2-2,2c-1.1,0-2-0.9-2-2"/>
		<g>
			<rect x="12.5" y="16.5" class="st2" width="9" height="7"/>
			<line class="st2" x1="17" y1="21.5" x2="17" y2="19.5"/>
			<path class="st2" d="M14,16.5v-1c0-1.7,1.3-3,3-3c1.7,0,3,1.3,3,3v1"/>
			<path class="st3" d="M17.5,19c0,0.3-0.2,0.5-0.5,0.5l0,0c-0.3,0-0.5-0.2-0.5-0.5l0,0c0-0.3,0.2-0.5,0.5-0.5l0,0
				C17.3,18.5,17.5,18.7,17.5,19L17.5,19z"/>
		</g>
	</g>
</g>
</svg>
