<?xml version="1.0" encoding="utf-8"?>
<!-- Generator: Adobe Illustrator 19.2.0, SVG Export Plug-In . SVG Version: 6.00 Build 0)  -->
<svg version="1.1" id="Layer_1" xmlns="http://www.w3.org/2000/svg" xmlns:xlink="http://www.w3.org/1999/xlink" x="0px" y="0px"
	 viewBox="0 0 24 24" style="enable-background:new 0 0 24 24;" xml:space="preserve">
<style type="text/css">
	.st0{display:none;}
	.st1{display:inline;}
	.st2{fill:none;stroke:#000000;stroke-linecap:round;stroke-linejoin:round;stroke-miterlimit:10;}
</style>
<g id="Filled_Icons" class="st0">
	<g class="st1">
		<path d="M4.5,2h-4C0.2,2,0,2.2,0,2.5v19C0,21.8,0.2,22,0.5,22h4C4.8,22,5,21.8,5,21.5v-19C5,2.2,4.8,2,4.5,2z"/>
		<path d="M23.5,2h-4C19.2,2,19,2.2,19,2.5v19c0,0.3,0.2,0.5,0.5,0.5h4c0.3,0,0.5-0.2,0.5-0.5v-19C24,2.2,23.8,2,23.5,2z"/>
		<path d="M17.5,2h-11C6.2,2,6,2.2,6,2.5v19C6,21.8,6.2,22,6.5,22h11c0.3,0,0.5-0.2,0.5-0.5v-19C18,2.2,17.8,2,17.5,2z"/>
	</g>
</g>
<g id="Outline_Icons">
	<g>
		<rect x="0.5" y="2.5" class="st2" width="4" height="19"/>
		<rect x="19.5" y="2.5" class="st2" width="4" height="19"/>
		<rect x="6.5" y="2.5" class="st2" width="11" height="19"/>
	</g>
</g>
</svg>
