<?xml version="1.0" encoding="utf-8"?>
<!-- Generator: Adobe Illustrator 19.2.0, SVG Export Plug-In . SVG Version: 6.00 Build 0)  -->
<svg version="1.1" id="Layer_1" xmlns="http://www.w3.org/2000/svg" xmlns:xlink="http://www.w3.org/1999/xlink" x="0px" y="0px"
	 viewBox="0 0 24 24" style="enable-background:new 0 0 24 24;" xml:space="preserve">
<style type="text/css">
	.st0{display:none;}
	.st1{display:inline;}
	.st2{fill:none;stroke:#000000;stroke-linecap:round;stroke-linejoin:round;stroke-miterlimit:10;}
</style>
<g id="Filled_Icons" class="st0">
	<g class="st1">
		<path d="M4.5,5h-4C0.2,5,0,5.2,0,5.5v13C0,18.8,0.2,19,0.5,19h4C4.8,19,5,18.8,5,18.5v-13C5,5.2,4.8,5,4.5,5z"/>
		<path d="M23.5,5h-4C19.2,5,19,5.2,19,5.5v13c0,0.3,0.2,0.5,0.5,0.5h4c0.3,0,0.5-0.2,0.5-0.5v-13C24,5.2,23.8,5,23.5,5z"/>
		<path d="M17.5,1h-11C6.2,1,6,1.2,6,1.5v21C6,22.8,6.2,23,6.5,23h11c0.3,0,0.5-0.2,0.5-0.5v-21C18,1.2,17.8,1,17.5,1z"/>
	</g>
</g>
<g id="Outline_Icons">
	<g>
		<rect x="0.5" y="5.5" class="st2" width="4" height="13"/>
		<rect x="19.5" y="5.5" class="st2" width="4" height="13"/>
		<rect x="6.5" y="1.5" class="st2" width="11" height="21"/>
	</g>
</g>
</svg>
