<?xml version="1.0" encoding="utf-8"?>
<!-- Generator: Adobe Illustrator 19.2.0, SVG Export Plug-In . SVG Version: 6.00 Build 0)  -->
<svg version="1.1" id="Layer_1" xmlns="http://www.w3.org/2000/svg" xmlns:xlink="http://www.w3.org/1999/xlink" x="0px" y="0px"
	 viewBox="0 0 24 24" style="enable-background:new 0 0 24 24;" xml:space="preserve">
<style type="text/css">
	.st0{display:none;}
	.st1{display:inline;}
	.st2{fill:none;stroke:#000000;stroke-linecap:round;stroke-linejoin:round;stroke-miterlimit:10;}
</style>
<g id="Filled_Icons" class="st0">
	<g class="st1">
		<path d="M23.5,1h-23C0.2,1,0,1.2,0,1.5v9C0,10.8,0.2,11,0.5,11h23c0.3,0,0.5-0.2,0.5-0.5v-9C24,1.2,23.8,1,23.5,1z"/>
		<path d="M23.5,13h-23C0.2,13,0,13.2,0,13.5v9C0,22.8,0.2,23,0.5,23h23c0.3,0,0.5-0.2,0.5-0.5v-9C24,13.2,23.8,13,23.5,13z"/>
	</g>
</g>
<g id="Outline_Icons">
	<g>
		<rect x="0.5" y="1.5" class="st2" width="23" height="9"/>
		<rect x="0.5" y="13.5" class="st2" width="23" height="9"/>
	</g>
</g>
</svg>
