<?xml version="1.0" encoding="utf-8"?>
<!-- Generator: Adobe Illustrator 19.2.0, SVG Export Plug-In . SVG Version: 6.00 Build 0)  -->
<svg version="1.1" id="Layer_1" xmlns="http://www.w3.org/2000/svg" xmlns:xlink="http://www.w3.org/1999/xlink" x="0px" y="0px"
	 viewBox="0 0 24 24" style="enable-background:new 0 0 24 24;" xml:space="preserve">
<style type="text/css">
	.st0{display:none;}
	.st1{display:inline;}
	.st2{fill:none;stroke:#000000;stroke-linecap:round;stroke-linejoin:round;stroke-miterlimit:10;}
	.st3{fill:none;stroke:#000000;stroke-linejoin:round;stroke-miterlimit:10;}
</style>
<g id="Filled_Icon" class="st0">
	<g class="st1">
		<path d="M9,6.5c0.6,0,1,0.4,1,1C10,7.8,10.2,8,10.5,8S11,7.8,11,7.5c0-0.9-0.6-1.7-1.5-1.9V5c0-0.3-0.2-0.5-0.5-0.5S8.5,4.7,8.5,5
			v0.6C7.6,5.8,7,6.6,7,7.5c0,1.1,0.9,2,2,2c0.6,0,1,0.4,1,1s-0.4,1-1,1s-1-0.4-1-1C8,10.2,7.8,10,7.5,10S7,10.2,7,10.5
			c0,0.9,0.6,1.7,1.5,1.9V13c0,0.3,0.2,0.5,0.5,0.5s0.5-0.2,0.5-0.5v-0.6c0.9-0.2,1.5-1,1.5-1.9c0-1.1-0.9-2-2-2c-0.6,0-1-0.4-1-1
			S8.4,6.5,9,6.5z"/>
		<path d="M23.7,22.3L16,14.6c1.2-1.5,2-3.5,2-5.6c0-5-4-9-9-9S0,4,0,9s4,9,9,9c2.1,0,4.1-0.7,5.6-2l7.7,7.7
			c0.2,0.2,0.5,0.3,0.7,0.3c0.3,0,0.5-0.1,0.7-0.3C24.1,23.3,24.1,22.7,23.7,22.3z M9,16c-3.9,0-7-3.1-7-7s3.1-7,7-7s7,3.1,7,7
			S12.9,16,9,16z"/>
	</g>
</g>
<g id="Outline_Icons">
	<g>
		<line class="st2" x1="8.5" y1="11.5" x2="8.5" y2="12.5"/>
		<line class="st2" x1="8.5" y1="4.5" x2="8.5" y2="5.5"/>
		<path class="st2" d="M7,10c0,0.8,0.7,1.5,1.5,1.5S10,10.8,10,10S9.3,8.5,8.5,8.5S7,7.8,7,7s0.7-1.5,1.5-1.5S10,6.2,10,7"/>
		<circle class="st3" cx="8.5" cy="8.5" r="8"/>
		<line class="st2" x1="14.2" y1="14.2" x2="23.5" y2="23.5"/>
	</g>
</g>
</svg>
