<?xml version="1.0" encoding="utf-8"?>
<!-- Generator: Adobe Illustrator 19.2.0, SVG Export Plug-In . SVG Version: 6.00 Build 0)  -->
<svg version="1.1" id="Layer_1" xmlns="http://www.w3.org/2000/svg" xmlns:xlink="http://www.w3.org/1999/xlink" x="0px" y="0px"
	 viewBox="0 0 24 24" style="enable-background:new 0 0 24 24;" xml:space="preserve">
<style type="text/css">
	.st0{display:none;}
	.st1{display:inline;}
	.st2{fill:none;stroke:#000000;stroke-linecap:round;stroke-linejoin:round;stroke-miterlimit:10;}
</style>
<g id="Filled_Icons" class="st0">
	<g class="st1">
		<path d="M10.5,0h-10C0.2,0,0,0.2,0,0.5v10C0,10.8,0.2,11,0.5,11h10c0.3,0,0.5-0.2,0.5-0.5v-10C11,0.2,10.8,0,10.5,0z"/>
		<path d="M23.5,0h-10C13.2,0,13,0.2,13,0.5v10c0,0.3,0.2,0.5,0.5,0.5h10c0.3,0,0.5-0.2,0.5-0.5v-10C24,0.2,23.8,0,23.5,0z"/>
		<path d="M10.5,13h-10C0.2,13,0,13.2,0,13.5v10C0,23.8,0.2,24,0.5,24h10c0.3,0,0.5-0.2,0.5-0.5v-10C11,13.2,10.8,13,10.5,13z"/>
		<path d="M23.5,13h-10c-0.3,0-0.5,0.2-0.5,0.5v10c0,0.3,0.2,0.5,0.5,0.5h10c0.3,0,0.5-0.2,0.5-0.5v-10C24,13.2,23.8,13,23.5,13z"/>
	</g>
</g>
<g id="Outline_Icons">
	<g>
		<rect x="0.5" y="0.5" class="st2" width="10" height="10"/>
		<rect x="13.5" y="0.5" class="st2" width="10" height="10"/>
		<rect x="0.5" y="13.5" class="st2" width="10" height="10"/>
		<rect x="13.5" y="13.5" class="st2" width="10" height="10"/>
	</g>
</g>
</svg>
