<?xml version="1.0" encoding="utf-8"?>
<!-- Generator: Adobe Illustrator 19.2.0, SVG Export Plug-In . SVG Version: 6.00 Build 0)  -->
<svg version="1.1" id="Layer_1" xmlns="http://www.w3.org/2000/svg" xmlns:xlink="http://www.w3.org/1999/xlink" x="0px" y="0px"
	 viewBox="0 0 24 24" style="enable-background:new 0 0 24 24;" xml:space="preserve">
<style type="text/css">
	.st0{display:none;}
	.st1{display:inline;}
	.st2{fill:none;stroke:#000000;stroke-linecap:round;stroke-linejoin:round;stroke-miterlimit:10;}
	.st3{fill:none;stroke:#000000;stroke-linejoin:round;stroke-miterlimit:10;}
</style>
<g id="Filled_Icon" class="st0">
	<g class="st1">
		<g>
			<path d="M12,10.5c-1.4,0-2.5-1.1-2.5-2.5c0-0.3,0.2-0.5,0.5-0.5c0.3,0,0.5,0.2,0.5,0.5c0,0.8,0.7,1.5,1.5,1.5
				c0.8,0,1.5-0.7,1.5-1.5c0-0.8-0.7-1.5-1.5-1.5c-0.3,0-0.5-0.2-0.5-0.5c0-0.3,0.2-0.5,0.5-0.5c1.4,0,2.5,1.1,2.5,2.5
				C14.5,9.4,13.4,10.5,12,10.5z"/>
		</g>
		<path d="M13.1,14.9c1.2-1.8,3.2-2.9,5.4-2.9c0.4,0,0.9,0,1.3,0.1c0.1-0.1,0.4-0.2,0.4-0.3c2.3-1.7,3.7-3.5,3.7-3.6
			C24,8.2,24,8.1,24,8c0-0.2-0.1-0.3-0.2-0.4c0,0,0,0,0,0C23,6.7,18.1,1,12,1C5.5,1,0.3,7.4,0.1,7.7C0,7.9,0,8.1,0.1,8.3
			c0.2,0.3,5,6.2,11.2,6.7c0.1,0,0.7,0,0.7,0C12.4,15,12.7,15,13.1,14.9z M7.5,8c0-2.5,2-4.5,4.5-4.5c2.5,0,4.5,2,4.5,4.5
			c0,2.5-2,4.5-4.5,4.5C9.5,12.5,7.5,10.5,7.5,8z"/>
		<path d="M18.5,13c-3,0-5.5,2.5-5.5,5.5c0,3,2.5,5.5,5.5,5.5c3,0,5.5-2.5,5.5-5.5C24,15.5,21.5,13,18.5,13z M21,19h-2v2
			c0,0.3-0.2,0.5-0.5,0.5c-0.3,0-0.5-0.2-0.5-0.5v-2h-2c-0.3,0-0.5-0.2-0.5-0.5c0-0.3,0.2-0.5,0.5-0.5h2v-2c0-0.3,0.2-0.5,0.5-0.5
			c0.3,0,0.5,0.2,0.5,0.5v2h2c0.3,0,0.5,0.2,0.5,0.5C21.5,18.8,21.3,19,21,19z"/>
	</g>
</g>
<g id="Outline_Icons">
	<g>
		<path class="st2" d="M11.3,14.5C5.3,14,0.5,8,0.5,8S5.6,1.5,12,1.5C18.4,1.5,23.5,8,23.5,8s-1.4,1.8-3.7,3.5"/>
		<circle class="st2" cx="12" cy="8" r="4"/>
		<path class="st2" d="M12,6c1.1,0,2,0.9,2,2s-0.9,2-2,2c-1.1,0-2-0.9-2-2"/>
		<circle class="st3" cx="18.5" cy="18.5" r="5"/>
		<line class="st2" x1="18.5" y1="16" x2="18.5" y2="21"/>
		<line class="st2" x1="21" y1="18.5" x2="16" y2="18.5"/>
	</g>
</g>
</svg>
