<?xml version="1.0" encoding="utf-8"?>
<!-- Generator: Adobe Illustrator 19.2.0, SVG Export Plug-In . SVG Version: 6.00 Build 0)  -->
<svg version="1.1" id="Layer_1" xmlns="http://www.w3.org/2000/svg" xmlns:xlink="http://www.w3.org/1999/xlink" x="0px" y="0px"
	 viewBox="0 0 24 24" style="enable-background:new 0 0 24 24;" xml:space="preserve">
<style type="text/css">
	.st0{display:none;}
	.st1{display:inline;}
	.st2{fill:none;stroke:#000000;stroke-linecap:round;stroke-linejoin:round;stroke-miterlimit:10;}
</style>
<g id="Filled_Icon" class="st0">
	<path class="st1" d="M23.9,11.7c-0.2-0.3-5-6.2-11.1-6.6c-0.3,0-0.5,0-0.8,0s-0.5,0-0.8,0C5.1,5.5,0.3,11.4,0.1,11.7
		c-0.1,0.2-0.1,0.4,0,0.6c0.2,0.3,5,6.2,11.1,6.6c0.3,0,0.5,0,0.8,0s0.5,0,0.8,0c6.1-0.5,10.9-6.4,11.1-6.6
		C24,12.1,24,11.9,23.9,11.7z M12,11.5c1.2,0,2.2,1,2.2,2.2c0,1-0.7,1.9-1.7,2.1v0.7c0,0.3-0.2,0.5-0.5,0.5s-0.5-0.2-0.5-0.5v-0.7
		c-1-0.2-1.7-1.1-1.7-2.1c0-0.3,0.2-0.5,0.5-0.5s0.5,0.2,0.5,0.5c0,0.7,0.5,1.2,1.2,1.2s1.2-0.5,1.2-1.2s-0.5-1.2-1.2-1.2
		c-1.2,0-2.2-1-2.2-2.2c0-1,0.7-1.9,1.7-2.1V7.5C11.5,7.2,11.7,7,12,7s0.5,0.2,0.5,0.5v0.7c1,0.2,1.7,1.1,1.7,2.1
		c0,0.3-0.2,0.5-0.5,0.5s-0.5-0.2-0.5-0.5c0-0.7-0.5-1.2-1.2-1.2s-1.2,0.5-1.2,1.2C10.8,11,11.3,11.5,12,11.5z M1.2,12
		c0.7-0.8,2.7-3,5.5-4.5C5.6,8.7,5,10.3,5,12s0.6,3.3,1.6,4.5C3.9,15,1.9,12.8,1.2,12z M17.4,16.5c1-1.2,1.6-2.8,1.6-4.5
		s-0.6-3.3-1.6-4.5c2.7,1.5,4.8,3.7,5.5,4.5C22.1,12.8,20.1,15,17.4,16.5z"/>
</g>
<g id="Outline_Icons">
	<g>
		<path class="st2" d="M23.5,12c0,0-5.1,6.5-11.5,6.5S0.5,12,0.5,12S5.6,5.5,12,5.5S23.5,12,23.5,12z"/>
		<circle class="st2" cx="12" cy="12" r="6.5"/>
		<path class="st2" d="M10.3,13.7c0,0.9,0.8,1.7,1.7,1.7s1.7-0.8,1.7-1.7S12.9,12,12,12s-1.7-0.8-1.7-1.7s0.8-1.7,1.7-1.7
			s1.7,0.8,1.7,1.7"/>
		<line class="st2" x1="12" y1="15.4" x2="12" y2="16.5"/>
		<line class="st2" x1="12" y1="7.5" x2="12" y2="8.6"/>
	</g>
</g>
</svg>
