<?xml version="1.0" encoding="utf-8"?>
<!-- Generator: Adobe Illustrator 19.2.0, SVG Export Plug-In . SVG Version: 6.00 Build 0)  -->
<svg version="1.1" id="Layer_1" xmlns="http://www.w3.org/2000/svg" xmlns:xlink="http://www.w3.org/1999/xlink" x="0px" y="0px"
	 viewBox="0 0 24 24" style="enable-background:new 0 0 24 24;" xml:space="preserve">
<style type="text/css">
	.st0{display:none;}
	.st1{display:inline;}
	.st2{fill:none;stroke:#000000;stroke-linecap:round;stroke-linejoin:round;stroke-miterlimit:10;}
</style>
<g id="Filled_Icons" class="st0">
	<g class="st1">
		<path d="M23.5,1h-15C8.2,1,8,1.2,8,1.5v5C8,6.8,8.2,7,8.5,7h15C23.8,7,24,6.8,24,6.5v-5C24,1.2,23.8,1,23.5,1z"/>
		<path d="M23.5,9h-15C8.2,9,8,9.2,8,9.5v5C8,14.8,8.2,15,8.5,15h15c0.3,0,0.5-0.2,0.5-0.5v-5C24,9.2,23.8,9,23.5,9z"/>
		<path d="M23.5,17h-15C8.2,17,8,17.2,8,17.5v5C8,22.8,8.2,23,8.5,23h15c0.3,0,0.5-0.2,0.5-0.5v-5C24,17.2,23.8,17,23.5,17z"/>
		<path d="M5.5,1h-5C0.2,1,0,1.2,0,1.5v5C0,6.8,0.2,7,0.5,7h5C5.8,7,6,6.8,6,6.5v-5C6,1.2,5.8,1,5.5,1z"/>
		<path d="M5.5,9h-5C0.2,9,0,9.2,0,9.5v5C0,14.8,0.2,15,0.5,15h5C5.8,15,6,14.8,6,14.5v-5C6,9.2,5.8,9,5.5,9z"/>
		<path d="M5.5,17h-5C0.2,17,0,17.2,0,17.5v5C0,22.8,0.2,23,0.5,23h5C5.8,23,6,22.8,6,22.5v-5C6,17.2,5.8,17,5.5,17z"/>
	</g>
</g>
<g id="Outline_Icons">
	<g>
		<rect x="8.5" y="1.5" class="st2" width="15" height="5"/>
		<rect x="8.5" y="9.5" class="st2" width="15" height="5"/>
		<rect x="8.5" y="17.5" class="st2" width="15" height="5"/>
		<rect x="0.5" y="1.5" class="st2" width="5" height="5"/>
		<rect x="0.5" y="9.5" class="st2" width="5" height="5"/>
		<rect x="0.5" y="17.5" class="st2" width="5" height="5"/>
	</g>
</g>
</svg>
