<?xml version="1.0" encoding="utf-8"?>
<!-- Generator: Adobe Illustrator 19.2.0, SVG Export Plug-In . SVG Version: 6.00 Build 0)  -->
<svg version="1.1" id="Layer_1" xmlns="http://www.w3.org/2000/svg" xmlns:xlink="http://www.w3.org/1999/xlink" x="0px" y="0px"
	 viewBox="0 0 24 24" style="enable-background:new 0 0 24 24;" xml:space="preserve">
<style type="text/css">
	.st0{display:none;}
	.st1{display:inline;}
	.st2{fill:none;stroke:#000000;stroke-linecap:round;stroke-linejoin:round;stroke-miterlimit:10;}
</style>
<g id="Filled_Icons" class="st0">
	<g class="st1">
		<path d="M12,15.5c1.9,0,3.5-1.6,3.5-3.5c0-1.9-1.6-3.5-3.5-3.5c-1.9,0-3.5,1.6-3.5,3.5C8.5,13.9,10.1,15.5,12,15.5z M10,11.5
			c0.3,0,0.5,0.2,0.5,0.5c0,0.8,0.7,1.5,1.5,1.5c0.8,0,1.5-0.7,1.5-1.5c0-0.8-0.7-1.5-1.5-1.5c-0.3,0-0.5-0.2-0.5-0.5
			c0-0.3,0.2-0.5,0.5-0.5c1.4,0,2.5,1.1,2.5,2.5c0,1.4-1.1,2.5-2.5,2.5c-1.4,0-2.5-1.1-2.5-2.5C9.5,11.7,9.7,11.5,10,11.5z"/>
		<path d="M0.1,12.3C0.3,12.6,5.5,19,12,19c6.5,0,11.7-6.4,11.9-6.7c0.1-0.2,0.1-0.4,0-0.6C23.7,11.4,18.5,5,12,5
			C5.5,5,0.3,11.4,0.1,11.7C0,11.9,0,12.1,0.1,12.3z M12,7.5c2.5,0,4.5,2,4.5,4.5c0,2.5-2,4.5-4.5,4.5c-2.5,0-4.5-2-4.5-4.5
			C7.5,9.5,9.5,7.5,12,7.5z"/>
	</g>
</g>
<g id="Outline_Icons">
	<g>
		<path class="st2" d="M23.5,12c0,0-5.1,6.5-11.5,6.5C5.6,18.5,0.5,12,0.5,12S5.6,5.5,12,5.5C18.4,5.5,23.5,12,23.5,12z"/>
		<circle class="st2" cx="12" cy="12" r="4"/>
		<path class="st2" d="M12,10c1.1,0,2,0.9,2,2c0,1.1-0.9,2-2,2c-1.1,0-2-0.9-2-2"/>
	</g>
</g>
</svg>
