<?xml version="1.0" encoding="utf-8"?>
<!-- Generator: Adobe Illustrator 19.2.0, SVG Export Plug-In . SVG Version: 6.00 Build 0)  -->
<svg version="1.1" id="Layer_1" xmlns="http://www.w3.org/2000/svg" xmlns:xlink="http://www.w3.org/1999/xlink" x="0px" y="0px"
	 viewBox="0 0 24 24" style="enable-background:new 0 0 24 24;" xml:space="preserve">
<style type="text/css">
	.st0{display:none;}
	.st1{display:inline;}
	.st2{fill:none;stroke:#000000;stroke-linecap:round;stroke-linejoin:round;stroke-miterlimit:10;}
</style>
<g id="Filled_Icons" class="st0">
	<g class="st1">
		<path d="M6.5,0h-6C0.2,0,0,0.2,0,0.5v22C0,22.8,0.2,23,0.5,23h6C6.8,23,7,22.8,7,22.5v-22C7,0.2,6.8,0,6.5,0z"/>
		<path d="M14.5,0h-6C8.2,0,8,0.2,8,0.5v22C8,22.8,8.2,23,8.5,23h6c0.3,0,0.5-0.2,0.5-0.5v-22C15,0.2,14.8,0,14.5,0z"/>
		<path d="M22.5,0h-6C16.2,0,16,0.2,16,0.5v22c0,0.3,0.2,0.5,0.5,0.5h6c0.3,0,0.5-0.2,0.5-0.5v-22C23,0.2,22.8,0,22.5,0z"/>
	</g>
</g>
<g id="Outline_Icons">
	<g>
		<rect x="0.5" y="0.5" class="st2" width="6" height="22"/>
		<rect x="8.5" y="0.5" class="st2" width="6" height="22"/>
		<rect x="16.5" y="0.5" class="st2" width="6" height="22"/>
	</g>
</g>
</svg>
