<?xml version="1.0" encoding="utf-8"?>
<!-- Generator: Adobe Illustrator 19.2.0, SVG Export Plug-In . SVG Version: 6.00 Build 0)  -->
<svg version="1.1" id="Layer_1" xmlns="http://www.w3.org/2000/svg" xmlns:xlink="http://www.w3.org/1999/xlink" x="0px" y="0px"
	 viewBox="0 0 24 24" style="enable-background:new 0 0 24 24;" xml:space="preserve">
<style type="text/css">
	.st0{display:none;}
	.st1{display:inline;}
	.st2{fill:none;stroke:#000000;stroke-linecap:round;stroke-linejoin:round;stroke-miterlimit:10;}
	.st3{fill:none;stroke:#000000;stroke-linejoin:round;stroke-miterlimit:10;}
</style>
<g id="Filled_Icons" class="st0">
	<g class="st1">
		<path d="M10.5,0h-10C0.2,0,0,0.2,0,0.5v10C0,10.8,0.2,11,0.5,11h10c0.3,0,0.5-0.2,0.5-0.5v-10C11,0.2,10.8,0,10.5,0z"/>
		<path d="M10.5,13h-10C0.2,13,0,13.2,0,13.5v10C0,23.8,0.2,24,0.5,24h10c0.3,0,0.5-0.2,0.5-0.5v-10C11,13.2,10.8,13,10.5,13z"/>
		<path d="M12.5,2h11C23.8,2,24,1.8,24,1.5C24,1.2,23.8,1,23.5,1h-11C12.2,1,12,1.2,12,1.5C12,1.8,12.2,2,12.5,2z"/>
		<path d="M23.5,3h-11C12.2,3,12,3.2,12,3.5C12,3.8,12.2,4,12.5,4h11C23.8,4,24,3.8,24,3.5C24,3.2,23.8,3,23.5,3z"/>
		<path d="M23.5,5h-11C12.2,5,12,5.2,12,5.5C12,5.8,12.2,6,12.5,6h11C23.8,6,24,5.8,24,5.5C24,5.2,23.8,5,23.5,5z"/>
		<path d="M23.5,7h-11C12.2,7,12,7.2,12,7.5C12,7.8,12.2,8,12.5,8h11C23.8,8,24,7.8,24,7.5C24,7.2,23.8,7,23.5,7z"/>
		<path d="M23.5,9h-11C12.2,9,12,9.2,12,9.5c0,0.3,0.2,0.5,0.5,0.5h11c0.3,0,0.5-0.2,0.5-0.5C24,9.2,23.8,9,23.5,9z"/>
		<path d="M23.5,14h-11c-0.3,0-0.5,0.2-0.5,0.5c0,0.3,0.2,0.5,0.5,0.5h11c0.3,0,0.5-0.2,0.5-0.5C24,14.2,23.8,14,23.5,14z"/>
		<path d="M23.5,16h-11c-0.3,0-0.5,0.2-0.5,0.5c0,0.3,0.2,0.5,0.5,0.5h11c0.3,0,0.5-0.2,0.5-0.5C24,16.2,23.8,16,23.5,16z"/>
		<path d="M23.5,18h-11c-0.3,0-0.5,0.2-0.5,0.5c0,0.3,0.2,0.5,0.5,0.5h11c0.3,0,0.5-0.2,0.5-0.5C24,18.2,23.8,18,23.5,18z"/>
		<path d="M23.5,20h-11c-0.3,0-0.5,0.2-0.5,0.5c0,0.3,0.2,0.5,0.5,0.5h11c0.3,0,0.5-0.2,0.5-0.5C24,20.2,23.8,20,23.5,20z"/>
		<path d="M23.5,22h-11c-0.3,0-0.5,0.2-0.5,0.5c0,0.3,0.2,0.5,0.5,0.5h11c0.3,0,0.5-0.2,0.5-0.5C24,22.2,23.8,22,23.5,22z"/>
	</g>
</g>
<g id="Outline_Icons">
	<g>
		<g>
			<rect x="0.5" y="0.5" class="st2" width="10" height="10"/>
			<rect x="0.5" y="13.5" class="st2" width="10" height="10"/>
		</g>
		<line class="st3" x1="13" y1="1.5" x2="24" y2="1.5"/>
		<line class="st3" x1="13" y1="3.5" x2="24" y2="3.5"/>
		<line class="st3" x1="13" y1="5.5" x2="24" y2="5.5"/>
		<line class="st3" x1="13" y1="7.5" x2="24" y2="7.5"/>
		<line class="st3" x1="13" y1="9.5" x2="24" y2="9.5"/>
		<line class="st3" x1="13" y1="14.5" x2="24" y2="14.5"/>
		<line class="st3" x1="13" y1="16.5" x2="24" y2="16.5"/>
		<line class="st3" x1="13" y1="18.5" x2="24" y2="18.5"/>
		<line class="st3" x1="13" y1="20.5" x2="24" y2="20.5"/>
		<line class="st3" x1="13" y1="22.5" x2="24" y2="22.5"/>
	</g>
</g>
</svg>
