<?xml version="1.0" encoding="utf-8"?>
<!-- Generator: Adobe Illustrator 19.2.0, SVG Export Plug-In . SVG Version: 6.00 Build 0)  -->
<svg version="1.1" id="Layer_1" xmlns="http://www.w3.org/2000/svg" xmlns:xlink="http://www.w3.org/1999/xlink" x="0px" y="0px"
	 viewBox="0 0 24 24" style="enable-background:new 0 0 24 24;" xml:space="preserve">
<style type="text/css">
	.st0{display:none;}
	.st1{display:inline;}
	.st2{fill:none;stroke:#000000;stroke-linejoin:round;stroke-miterlimit:10;}
	.st3{fill:none;stroke:#000000;stroke-linecap:round;stroke-linejoin:round;stroke-miterlimit:10;}
</style>
<g id="Filled_Icon" class="st0">
	<g class="st1">
		<path d="M23.4,0.1c-0.2-0.2-0.5-0.2-0.7,0L21,1.8l-1.1-1.1c-0.2-0.2-0.5-0.2-0.7,0s-0.2,0.5,0,0.7l1.1,1.1L19,3.8l-1.1-1.1
			c-0.2-0.2-0.5-0.2-0.7,0s-0.2,0.5,0,0.7l1.1,1.1l-7.7,7.7c-0.2,0.2-0.2,0.5,0,0.7C10.7,13,10.8,13,11,13c0.1,0,0.3,0,0.4-0.1
			L19,5.2l1.1,1.1c0.1,0.1,0.2,0.1,0.4,0.1c0.1,0,0.3,0,0.4-0.1c0.2-0.2,0.2-0.5,0-0.7l-1.1-1.1L21,3.2l1.1,1.1
			c0.1,0.1,0.2,0.1,0.4,0.1c0.1,0,0.3,0,0.4-0.1c0.2-0.2,0.2-0.5,0-0.7l-1.1-1.1l1.6-1.6C23.5,0.7,23.5,0.3,23.4,0.1z"/>
		<path d="M12,13.6c-0.3,0.3-0.7,0.4-1,0.4c-0.4,0-0.8-0.1-1.1-0.4c-0.6-0.6-0.6-1.5,0-2.1l5.2-5.2c-0.9-0.5-1.9-0.8-3-0.8
			c-1.8,0-3.5,0.8-4.6,2.2C7.3,7.8,7.3,8,7.3,8.1C7.5,9,7.2,9.9,6.6,10.5c-0.9,0.9-2.5,1-3.5,0.3c-0.2-0.1-0.4-0.1-0.6,0
			C1,12,0.1,13.9,0,15.9c-0.1,1.9,0.6,3.7,1.8,5.1l-1.6,1.6c-0.2,0.2-0.2,0.5,0,0.7c0.1,0.1,0.2,0.1,0.4,0.1c0.1,0,0.3,0,0.4-0.1
			l1.6-1.6c1.3,1.2,3,1.8,4.8,1.8c2.1,0,4.1-0.9,5.4-2.4c0.1-0.2,0.2-0.4,0-0.6c-0.8-1.1-0.7-2.6,0.3-3.5c0.6-0.6,1.5-0.9,2.3-0.8
			c0.1,0,0.3,0,0.4-0.1c1.3-1,2.1-2.6,2.2-4.3c0.1-1.2-0.2-2.3-0.8-3.3L12,13.6z M3.3,16.6c-0.5,0-0.8-0.1-0.8-0.1
			c-0.3-0.1-0.4-0.3-0.4-0.6c0.1-0.3,0.3-0.4,0.6-0.4c0.1,0,2.7,0.6,3.9-2.1C6.7,13.2,7,13,7.3,13.2c0.2,0.1,0.4,0.4,0.2,0.7
			C6.4,16.2,4.4,16.6,3.3,16.6z M10.1,16.9c-2.6,1.3-2.1,3.9-2.1,4c0.1,0.3-0.1,0.5-0.4,0.6H7.5c-0.2,0-0.4-0.2-0.5-0.4
			c0,0-0.8-3.5,2.6-5.1c0.2-0.1,0.5,0,0.7,0.2C10.5,16.5,10.4,16.8,10.1,16.9z"/>
	</g>
</g>
<g id="Outline_Icons">
	<g>
		<path class="st2" d="M15.9,7.6C13.6,5.3,9.8,5.5,7.8,8c0.2,1-0.2,2-0.9,2.8c-1.1,1.1-2.9,1.3-4.2,0.3c-2.8,2.4-3.1,7-0.3,9.9
			c2.9,2.9,7.5,2.5,9.9-0.3c-0.9-1.3-0.8-3,0.3-4.2c0.7-0.7,1.8-1.1,2.8-0.9C18,13.7,18.2,9.9,15.9,7.6z"/>
		<line class="st3" x1="11" y1="12.5" x2="23" y2="0.5"/>
		<line class="st3" x1="0.5" y1="23" x2="4" y2="19.5"/>
		<line class="st3" x1="17.5" y1="3" x2="20.5" y2="6"/>
		<line class="st3" x1="19.5" y1="1" x2="22.5" y2="4"/>
		<path class="st3" d="M2.6,16c0,0,3,0.7,4.5-2.4"/>
		<path class="st3" d="M7.6,21c0,0-0.7-3,2.4-4.5"/>
	</g>
</g>
</svg>
