<?xml version="1.0" encoding="utf-8"?>
<!-- Generator: Adobe Illustrator 19.2.0, SVG Export Plug-In . SVG Version: 6.00 Build 0)  -->
<svg version="1.1" id="Layer_1" xmlns="http://www.w3.org/2000/svg" xmlns:xlink="http://www.w3.org/1999/xlink" x="0px" y="0px"
	 viewBox="0 0 24 24" style="enable-background:new 0 0 24 24;" xml:space="preserve">
<style type="text/css">
	.st0{display:none;}
	.st1{display:inline;}
	.st2{fill:none;stroke:#000000;stroke-linejoin:round;stroke-miterlimit:10;}
	.st3{fill:none;stroke:#000000;stroke-linecap:round;stroke-linejoin:round;stroke-miterlimit:10;}
</style>
<g id="Filled_Icons" class="st0">
	<path class="st1" d="M23.8,23.1c-0.1,0-7.3-4.4-7.8-8.6c0-0.3-0.2-0.4-0.5-0.4h-7C8.2,14,8,14.2,8,14.5c0,4.2-7.7,8.5-7.7,8.6
		C0.1,23.2,0,23.4,0,23.6C0.1,23.9,0.3,24,0.5,24h23c0.2,0,0.4-0.1,0.5-0.4C24,23.4,24,23.2,23.8,23.1z"/>
	<g class="st1">
		<path d="M21.7,5.6c-2.4,0.1-2.6,1.9-2.6,1.9c0,0.3-0.2,0.5-0.5,0.5s-0.5-0.2-0.5-0.5c0-0.7,0.5-1.9,1.9-2.5V4.9
			c-0.1-0.6-0.6-1-1-1.2c-1-0.6-2.5-0.7-3.8-0.2c-0.3,0.1-0.5,0-0.7-0.3c-0.1-0.3,0-0.5,0.3-0.7c0.5-0.2,1-0.3,1.5-0.4
			c-1.1-1.1-2.7-1.7-4.4-1.7S8.7,1,7.5,2.1C8,2.2,8.6,2.3,9,2.5C9.4,2.7,9.6,3,9.5,3.3C9.4,3.5,9.1,3.6,8.8,3.5C7.6,3,6,3.1,5,3.7
			C4.7,3.8,4.3,4.1,4.1,4.5C5.4,5.1,5.9,6.3,5.9,7c0,0.3-0.2,0.5-0.5,0.5S4.9,7.2,4.9,7c0,0-0.2-1.8-2.6-1.9C1.8,5,1.2,5.3,0.8,5.7
			C0.3,6.2,0,6.9,0,7.5l0,0c0,0.9,0.5,1.7,1.3,2.2c0.6,0.3,1.4,0.4,2.1,0.1c0.4,0.6,1,1.1,1.8,1.3c1.3,0.5,3.1,0.4,4.2-0.1
			c0.4,0.5,0.5,1.1,0.6,1.9h4c0-0.8,0.2-1.4,0.6-1.9c1,0.4,2.4,0.5,3.6,0.2c0.9-0.2,1.6-0.6,2.1-1.1c0.7,0.4,1.5,0.4,2.2,0.1
			C23.4,9.9,24,9,24,8C24,6.6,22.8,5.5,21.7,5.6z"/>
	</g>
</g>
<g id="Outline_Icons">
	<g>
		<path class="st2" d="M8.5,14.5h7c0.5,4.5,8,9,8,9h-23C0.5,23.5,8.5,19,8.5,14.5z"/>
		<g>
			<path class="st3" d="M16.9,3.7C15.9,2.1,14.1,1,12,1S8.1,2.1,7.1,3.7"/>
			<path class="st3" d="M9.5,10.5c1.4,0.7,3.6,0.7,5,0"/>
			<path class="st3" d="M9,4.1C6.8,3.1,3.8,4,3.5,5.8C4,6.1,4.3,6.5,4.4,7"/>
			<path class="st3" d="M3.5,5.8C2.2,5,0.5,6,0.5,7.5c0,1.6,1.8,2.5,3.1,1.7c0.7,2.1,4.5,2.2,5.9,1.3"/>
			<path class="st3" d="M19.7,7.1c0.2-0.3,0.4-0.6,0.8-0.8C20.7,4.2,17.4,3,15,4.1"/>
			<path class="st3" d="M14.5,10.5c1.2,0.8,4.6,0.8,5.7-1c1.3,1.1,3.3,0.2,3.3-1.5c0-1.5-1.7-2.5-3-1.7"/>
		</g>
		<path class="st3" d="M9.5,10.5c1,1,1,2,1,4"/>
		<path class="st3" d="M14.5,10.5c-1,1-1,2-1,4"/>
	</g>
</g>
</svg>
