<?xml version="1.0" encoding="utf-8"?>
<!-- Generator: Adobe Illustrator 19.2.0, SVG Export Plug-In . SVG Version: 6.00 Build 0)  -->
<svg version="1.1" id="Layer_1" xmlns="http://www.w3.org/2000/svg" xmlns:xlink="http://www.w3.org/1999/xlink" x="0px" y="0px"
	 viewBox="0 0 24 24" style="enable-background:new 0 0 24 24;" xml:space="preserve">
<style type="text/css">
	.st0{display:none;}
	.st1{display:inline;}
	.st2{fill:none;stroke:#000000;stroke-linecap:round;stroke-linejoin:round;stroke-miterlimit:10;}
</style>
<g id="Filled_Icon" class="st0">
	<g class="st1">
		<path d="M23.5,11H20V7.5C20,7.2,19.8,7,19.5,7S19,7.2,19,7.5V11h-3.5c-0.3,0-0.5,0.2-0.5,0.5s0.2,0.5,0.5,0.5H19v3.5
			c0,0.3,0.2,0.5,0.5,0.5s0.5-0.2,0.5-0.5V12h3.5c0.3,0,0.5-0.2,0.5-0.5S23.8,11,23.5,11z"/>
		<path d="M12.7,1c-0.2-0.1-0.4,0-0.5,0.1L5.3,8H2c-1.1,0-2,0.9-2,2v3c0,1.1,0.9,2,2,2h3.3l6.9,6.9c0.1,0.1,0.2,0.1,0.4,0.1
			c0.1,0,0.1,0,0.2,0c0.2-0.1,0.3-0.3,0.3-0.5v-20C13,1.3,12.9,1.1,12.7,1z"/>
	</g>
</g>
<g id="Outline_Icons">
	<g>
		<line class="st2" x1="19.5" y1="7.5" x2="19.5" y2="15.5"/>
		<line class="st2" x1="23.5" y1="11.5" x2="15.5" y2="11.5"/>
		<path class="st2" d="M5.5,8.5H2c-0.8,0-1.5,0.7-1.5,1.5v3c0,0.8,0.7,1.5,1.5,1.5h3.5l7,7v-20L5.5,8.5z"/>
	</g>
</g>
</svg>
