<?xml version="1.0" encoding="utf-8"?>
<!-- Generator: Adobe Illustrator 19.2.0, SVG Export Plug-In . SVG Version: 6.00 Build 0)  -->
<svg version="1.1" id="Layer_1" xmlns="http://www.w3.org/2000/svg" xmlns:xlink="http://www.w3.org/1999/xlink" x="0px" y="0px"
	 viewBox="0 0 24 24" style="enable-background:new 0 0 24 24;" xml:space="preserve">
<style type="text/css">
	.st0{display:none;}
	.st1{display:inline;}
	.st2{fill:none;stroke:#000000;stroke-linecap:round;stroke-linejoin:round;stroke-miterlimit:10;}
</style>
<g id="Filled_Icon" class="st0">
	<g class="st1">
		<path d="M2,15h3.2L13,7.2V1.5c0-0.2-0.1-0.4-0.3-0.5s-0.4,0-0.5,0.1L5.3,8H2c-1.1,0-2,0.9-2,2v3C0,14.1,0.9,15,2,15z"/>
		<path d="M12.1,21.9c0.1,0.1,0.2,0.1,0.4,0.1c0.3,0,0.5-0.2,0.5-0.5v-8.7l-4.9,4.9L12.1,21.9z"/>
		<path d="M16.3,9.5c0.4,0.5,0.7,1.2,0.7,2c0,1.5-1,2.5-1.8,3.1c-0.2,0.2-0.3,0.5-0.1,0.7s0.5,0.3,0.7,0.1c1.4-1,2.2-2.4,2.2-3.9
			c0-1-0.3-1.9-1-2.7L16.3,9.5z"/>
		<path d="M22.2,0.8c-0.4-0.4-1-0.4-1.4,0l-20,20c-0.4,0.4-0.4,1.1,0,1.4c0.4,0.4,1,0.4,1.4,0l20-20C22.6,1.8,22.6,1.2,22.2,0.8z"/>
	</g>
</g>
<g id="Outline_Icons">
	<g>
		<polyline class="st2" points="9,18 12.5,21.5 12.5,13 		"/>
		<path class="st2" d="M12.5,7V1.5l-7,7H2c-0.8,0-1.5,0.7-1.5,1.5v3c0,0.8,0.7,1.5,1.5,1.5h2.5"/>
		<path class="st2" d="M15.5,11.5c0,1.4-1.1,2.5-2.5,2.5h-0.5"/>
		<line class="st2" x1="1.5" y1="21.5" x2="21.5" y2="1.5"/>
	</g>
</g>
</svg>
