<?xml version="1.0" encoding="utf-8"?>
<!-- Generator: Adobe Illustrator 19.2.0, SVG Export Plug-In . SVG Version: 6.00 Build 0)  -->
<svg version="1.1" id="Layer_1" xmlns="http://www.w3.org/2000/svg" xmlns:xlink="http://www.w3.org/1999/xlink" x="0px" y="0px"
	 viewBox="0 0 24 24" style="enable-background:new 0 0 24 24;" xml:space="preserve">
<style type="text/css">
	.st0{display:none;}
	.st1{display:inline;}
	.st2{fill:none;stroke:#000000;stroke-linecap:round;stroke-linejoin:round;stroke-miterlimit:10;}
</style>
<g id="Filled_Icon" class="st0">
	<g class="st1">
		<path d="M13.5,3C9.9,3,6.4,5,4.9,8H3c-1.7,0-3,1.3-3,3v2c0,1.7,1.3,3,3,3h1.9c1.5,3,5,5,8.6,5c0.3,0,0.5-0.2,0.5-0.5v-17
			C14,3.2,13.8,3,13.5,3z"/>
		<path d="M18.7,6.1c-0.2-0.1-0.5,0-0.7,0.2c-0.1,0.2,0,0.5,0.2,0.7c1.7,0.8,2.8,2.8,2.8,5s-1.1,4.2-2.7,5.1
			c-0.2,0.1-0.3,0.4-0.2,0.7c0.1,0.2,0.3,0.3,0.4,0.3s0.2,0,0.2-0.1c2-1.1,3.3-3.4,3.3-5.9C22,9.4,20.7,7.1,18.7,6.1z"/>
		<path d="M20,12c0-2.1-1.1-3.9-2.8-4.5c-0.3-0.1-0.5,0.1-0.6,0.3c-0.1,0.3,0.1,0.5,0.3,0.6C18.1,8.9,19,10.3,19,12
			s-0.9,3.1-2.2,3.5c-0.3,0.1-0.4,0.4-0.3,0.6s0.3,0.3,0.5,0.3c0.1,0,0.1,0,0.2,0C18.9,15.9,20,14.1,20,12z"/>
	</g>
</g>
<g id="Outline_Icons">
	<g>
		<path class="st2" d="M5.3,8.5H3c-1.4,0-2.5,1.1-2.5,2.5v2c0,1.4,1.1,2.5,2.5,2.5h2.3c1.3,2.9,4.8,5,8.2,5v-17
			C10.1,3.5,6.6,5.6,5.3,8.5z"/>
		<path class="st2" d="M18.5,6.5c1.9,1,3,3.2,3,5.5s-1.1,4.5-3,5.5"/>
		<path class="st2" d="M17,8c1.6,0.5,2.5,2.2,2.5,4s-0.9,3.5-2.5,4"/>
	</g>
</g>
</svg>
