<?xml version="1.0" encoding="utf-8"?>
<!-- Generator: Adobe Illustrator 19.2.0, SVG Export Plug-In . SVG Version: 6.00 Build 0)  -->
<svg version="1.1" id="Layer_1" xmlns="http://www.w3.org/2000/svg" xmlns:xlink="http://www.w3.org/1999/xlink" x="0px" y="0px"
	 viewBox="0 0 24 24" style="enable-background:new 0 0 24 24;" xml:space="preserve">
<style type="text/css">
	.st0{display:none;}
	.st1{display:inline;}
	.st2{fill:none;stroke:#000000;stroke-linecap:round;stroke-linejoin:round;stroke-miterlimit:10;}
	.st3{fill:none;stroke:#000000;stroke-linejoin:round;stroke-miterlimit:10;}
</style>
<g id="Filled_Icon" class="st0">
	<g class="st1">
		<polygon points="9.2,16.4 14,11.6 14,11.6 20.9,4.7 19.8,3.6 3.6,19.8 4.7,20.9 		"/>
		<path d="M6,15.5c-1.1,0-2-0.9-2-2v-3c0-1.1,0.9-2,2-2h2.3l4.9-4.9c0.1-0.1,0.4-0.2,0.5-0.1C13.9,3.6,14,3.8,14,4v4l5.4-5.4
			C17.4,1,14.8,0,12,0C5.4,0,0,5.4,0,12c0,2.8,1,5.4,2.6,7.4l3.9-3.9H6z"/>
		<path d="M21.8,5.1L14,13v7c0,0.2-0.1,0.4-0.3,0.5c-0.1,0-0.1,0-0.2,0c-0.1,0-0.3-0.1-0.4-0.1l-3.3-3.3l-4.7,4.7
			c2,1.4,4.4,2.2,6.9,2.2c6.6,0,12-5.4,12-12C24,9.5,23.2,7.1,21.8,5.1z"/>
	</g>
</g>
<g id="Outline_Icons">
	<g>
		<path class="st2" d="M13.5,7.5V4l-5,5H6c-0.8,0-1.5,0.7-1.5,1.5v3C4.5,14.3,5.2,15,6,15"/>
		<polyline class="st2" points="13.5,14.5 13.5,20 11,17.5 		"/>
		<line class="st3" x1="4.1" y1="20.4" x2="20.4" y2="4.1"/>
		<circle class="st2" cx="12" cy="12" r="11.5"/>
	</g>
</g>
</svg>
