<?xml version="1.0" encoding="utf-8"?>
<!-- Generator: Adobe Illustrator 19.2.0, SVG Export Plug-In . SVG Version: 6.00 Build 0)  -->
<svg version="1.1" id="Layer_1" xmlns="http://www.w3.org/2000/svg" xmlns:xlink="http://www.w3.org/1999/xlink" x="0px" y="0px"
	 viewBox="0 0 24 24" style="enable-background:new 0 0 24 24;" xml:space="preserve">
<style type="text/css">
	.st0{display:none;}
	.st1{display:inline;}
	.st2{fill:none;stroke:#000000;stroke-linecap:round;stroke-linejoin:round;stroke-miterlimit:10;}
</style>
<g id="Filled_Icon" class="st0">
	<g class="st1">
		<path d="M12.7,1c-0.2-0.1-0.4,0-0.5,0.1L5.3,8H2c-1.1,0-2,0.9-2,2v3c0,1.1,0.9,2,2,2h3.3l6.9,6.9c0.1,0.1,0.2,0.1,0.4,0.1
			c0.1,0,0.1,0,0.2,0c0.2-0.1,0.3-0.3,0.3-0.5v-20C13,1.3,12.9,1.1,12.7,1z"/>
		<path d="M15.8,7.6c-0.2-0.2-0.5-0.1-0.7,0.1S15,8.2,15.2,8.4C16,9,17,10,17,11.5s-1,2.5-1.8,3.1c-0.2,0.2-0.3,0.5-0.1,0.7
			c0.1,0.1,0.2,0.2,0.4,0.2c0.1,0,0.2,0,0.3-0.1c1.4-1,2.2-2.4,2.2-3.9S17.2,8.6,15.8,7.6z"/>
	</g>
</g>
<g id="Outline_Icons">
	<g>
		<path class="st2" d="M5.5,8.5H2c-0.8,0-1.5,0.7-1.5,1.5v3c0,0.8,0.7,1.5,1.5,1.5h3.5l7,7v-20L5.5,8.5z"/>
		<path class="st2" d="M15.5,8c1.1,0.8,2,2,2,3.5s-0.9,2.7-2,3.5"/>
	</g>
</g>
</svg>
