<?xml version="1.0" encoding="utf-8"?>
<!-- Generator: Adobe Illustrator 19.2.0, SVG Export Plug-In . SVG Version: 6.00 Build 0)  -->
<svg version="1.1" id="Layer_1" xmlns="http://www.w3.org/2000/svg" xmlns:xlink="http://www.w3.org/1999/xlink" x="0px" y="0px"
	 viewBox="0 0 24 24" style="enable-background:new 0 0 24 24;" xml:space="preserve">
<style type="text/css">
	.st0{display:none;}
	.st1{display:inline;}
	.st2{fill:none;stroke:#000000;stroke-linecap:round;stroke-linejoin:round;stroke-miterlimit:10;}
</style>
<g id="Filled_Icon" class="st0">
	<g class="st1">
		<path d="M13.5,21c0.3,0,0.5-0.2,0.5-0.5v-9.4l-7.3,7.1C8.4,20,10.9,21,13.5,21z"/>
		<path d="M3,16h0.3L14,5.6V3.5C14,3.2,13.8,3,13.5,3C9.9,3,6.4,5,4.9,8H3c-1.7,0-3,1.3-3,3v2C0,14.7,1.3,16,3,16z"/>
		<path d="M17.6,7.7l-0.8,0.8C18.2,9.1,19,10.1,19,12c0,1.7-0.9,3.1-2.2,3.5c-0.3,0.1-0.4,0.4-0.3,0.6c0.1,0.3,0.4,0.4,0.6,0.3
			c1.7-0.6,2.8-2.4,2.8-4.5C20,10.1,19,8.4,17.6,7.7z"/>
		<path d="M19.7,2.8c-0.4-0.4-1-0.4-1.4,0l-17.5,17l0,0c-0.4,0.4-0.4,1.1,0,1.4c0.4,0.4,1,0.4,1.4,0l17.5-17
			C20.1,3.8,20.1,3.2,19.7,2.8z"/>
	</g>
</g>
<g id="Outline_Icons">
	<g>
		<path class="st2" d="M7.5,18.5c1.5,1.3,3.9,2,6,2v-8"/>
		<path class="st2" d="M13.5,6V3.5c-3.4,0-6.9,2.1-8.2,5H3c-1.4,0-2.5,1.1-2.5,2.5v2c0,1.4,1.1,2.5,2.5,2.5"/>
		<path class="st2" d="M16,12c0,1.1-0.9,2-2,2h-0.5"/>
		<line class="st2" x1="1.5" y1="20.5" x2="19" y2="3.5"/>
	</g>
</g>
</svg>
