<?xml version="1.0" encoding="utf-8"?>
<!-- Generator: Adobe Illustrator 19.2.0, SVG Export Plug-In . SVG Version: 6.00 Build 0)  -->
<svg version="1.1" id="Layer_1" xmlns="http://www.w3.org/2000/svg" xmlns:xlink="http://www.w3.org/1999/xlink" x="0px" y="0px"
	 viewBox="0 0 24 24" style="enable-background:new 0 0 24 24;" xml:space="preserve">
<style type="text/css">
	.st0{display:none;}
	.st1{display:inline;}
	.st2{fill:none;stroke:#000000;stroke-linecap:round;stroke-linejoin:round;stroke-miterlimit:10;}
</style>
<g id="Filled_Icon" class="st0">
	<g class="st1">
		<path d="M13.5,3c-3.8,0-7,1.9-8.6,5H3c-1.7,0-3,1.3-3,3v2c0,1.7,1.3,3,3,3h1.9c1.6,3.1,4.7,5,8.6,5c0.3,0,0.5-0.2,0.5-0.5v-17
			C14,3.2,13.8,3,13.5,3z"/>
		<path d="M23.5,12h-8c-0.3,0-0.5,0.2-0.5,0.5s0.2,0.5,0.5,0.5h8c0.3,0,0.5-0.2,0.5-0.5S23.8,12,23.5,12z"/>
	</g>
</g>
<g id="Outline_Icons">
	<g>
		<line class="st2" x1="23.5" y1="12.5" x2="15.5" y2="12.5"/>
		<path class="st2" d="M5.3,8.5H3c-1.4,0-2.5,1.1-2.5,2.5v2c0,1.4,1.1,2.5,2.5,2.5h2.3c1.3,2.9,4.8,5,8.2,5v-17
			C10.1,3.5,6.6,5.6,5.3,8.5z"/>
	</g>
</g>
</svg>
