<?xml version="1.0" encoding="utf-8"?>
<!-- Generator: Adobe Illustrator 19.2.0, SVG Export Plug-In . SVG Version: 6.00 Build 0)  -->
<svg version="1.1" id="Layer_1" xmlns="http://www.w3.org/2000/svg" xmlns:xlink="http://www.w3.org/1999/xlink" x="0px" y="0px"
	 viewBox="0 0 24 24" style="enable-background:new 0 0 24 24;" xml:space="preserve">
<style type="text/css">
	.st0{display:none;}
	.st1{display:inline;}
	.st2{fill:none;stroke:#000000;stroke-linejoin:round;stroke-miterlimit:10;}
	.st3{fill:none;stroke:#000000;stroke-linecap:round;stroke-linejoin:round;stroke-miterlimit:10;}
</style>
<g id="Filled_Icons" class="st0">
	<g class="st1">
		<path d="M5.5,12c-3,0-5.5,2.5-5.5,5.5c0,3,2.5,5.5,5.5,5.5c3,0,5.5-2.5,5.5-5.5C11,14.5,8.5,12,5.5,12z M5.5,18
			C5.2,18,5,17.8,5,17.5S5.2,17,5.5,17S6,17.2,6,17.5S5.8,18,5.5,18z M6.1,16.2c0,0-0.1,0-0.1-0.1v-3c0.9,0.1,1.6,0.4,2.3,0.9
			L6.1,16.2z M5,16.1c0,0-0.1,0-0.1,0.1L2.7,14c0.6-0.5,1.4-0.9,2.3-0.9V16.1z M4.2,16.9c0,0,0,0.1-0.1,0.1h-3
			c0.1-0.9,0.4-1.6,0.9-2.3L4.2,16.9z M4.1,18c0,0,0,0.1,0.1,0.1L2,20.3c-0.5-0.6-0.9-1.4-0.9-2.3H4.1z M4.9,18.9c0,0,0.1,0,0.1,0.1
			v3c-0.9-0.1-1.6-0.4-2.3-0.9L4.9,18.9z M6,18.9c0,0,0.1,0,0.1-0.1L8.3,21c-0.6,0.5-1.4,0.9-2.3,1V18.9z M6.8,18.1
			c0,0,0-0.1,0.1-0.1h3c-0.1,0.9-0.4,1.6-0.9,2.3L6.8,18.1z M6.9,17c0,0,0-0.1-0.1-0.1L9,14.7c0.5,0.6,0.9,1.4,0.9,2.3H6.9z"/>
		<path d="M19.5,16c-1.9,0-3.5,1.6-3.5,3.5s1.6,3.5,3.5,3.5s3.5-1.6,3.5-3.5S21.4,16,19.5,16z M21.9,19H20v-1.9
			C21,17.3,21.8,18,21.9,19z M19,17.1V19h-1.9C17.2,18,18,17.3,19,17.1z M17.1,20H19V22C18,21.8,17.2,21,17.1,20z M20,22V20h1.9
			C21.8,21,21,21.8,20,22z"/>
		<path d="M14,1.1C13.3,1,12.7,1,12,1s-1.3,0-2,0.1V9h4V1.1z"/>
		<path d="M5.2,9H9V1.2C7,1.5,3.5,2.7,4,4.6L5.2,9z"/>
		<path d="M20,4.6c0.5-1.9-2.9-3.1-5-3.4V9h3.8L20,4.6z"/>
		<path d="M24,12.5c0-0.3-0.2-0.5-0.5-0.5S23,12.2,23,12.5c0,1.4-1.1,2.5-2.5,2.5h-3.3l1.4-5H5.5l0.3,1c3,0.1,5.4,2.2,6.1,5h7.7h1
			C22.4,16,24,14.4,24,12.5z"/>
	</g>
</g>
<g id="Outline_Icons">
	<g>
		<circle class="st2" cx="5.5" cy="17.5" r="5"/>
		<circle class="st2" cx="5.5" cy="17.5" r="1"/>
		<circle class="st2" cx="19.5" cy="19.5" r="3"/>
		<path class="st2" d="M10.1,15.5h6.4l3-11c0-4-15-4-15,0l2.2,8.2"/>
		<line class="st2" x1="5.8" y1="9.5" x2="18.1" y2="9.5"/>
		<line class="st2" x1="9.5" y1="1.7" x2="9.5" y2="9.5"/>
		<line class="st2" x1="14.5" y1="1.7" x2="14.5" y2="9.5"/>
		<path class="st3" d="M16,15.5h4.5c1.7,0,3-1.3,3-3"/>
		<line class="st2" x1="5.5" y1="16.5" x2="5.5" y2="12.5"/>
		<line class="st2" x1="6.2" y1="16.8" x2="9" y2="14"/>
		<line class="st2" x1="6.5" y1="17.5" x2="10.5" y2="17.5"/>
		<line class="st2" x1="6.2" y1="18.2" x2="9" y2="21"/>
		<line class="st2" x1="5.5" y1="18.5" x2="5.5" y2="22.5"/>
		<line class="st2" x1="4.8" y1="18.2" x2="2" y2="21"/>
		<line class="st2" x1="4.5" y1="17.5" x2="0.5" y2="17.5"/>
		<line class="st2" x1="4.8" y1="16.8" x2="2" y2="14"/>
		<line class="st2" x1="19.5" y1="16.5" x2="19.5" y2="22.5"/>
		<line class="st2" x1="22.5" y1="19.5" x2="16.5" y2="19.5"/>
	</g>
</g>
</svg>
