<?xml version="1.0" encoding="utf-8"?>
<!-- Generator: Adobe Illustrator 19.2.0, SVG Export Plug-In . SVG Version: 6.00 Build 0)  -->
<svg version="1.1" id="Layer_1" xmlns="http://www.w3.org/2000/svg" xmlns:xlink="http://www.w3.org/1999/xlink" x="0px" y="0px"
	 viewBox="0 0 24 24" style="enable-background:new 0 0 24 24;" xml:space="preserve">
<style type="text/css">
	.st0{display:none;}
	.st1{display:inline;}
	.st2{fill:none;stroke:#000000;stroke-linecap:round;stroke-linejoin:round;stroke-miterlimit:10;}
</style>
<g id="Filled_Icons" class="st0">
	<g class="st1">
		<path d="M11.5,20c0,0.6,0.4,1,1,1c0.6,0,1-0.4,1-1V4.5C13.5,2,11.5,0,9,0S4.5,2,4.5,4.5c0,0.6,0.4,1,1,1c0.6,0,1-0.4,1-1
			C6.5,3.1,7.6,2,9,2c1.4,0,2.5,1.1,2.5,2.5V20z"/>
		<path d="M13,22h-1c-0.6,0-1,0.4-1,1c0,0.6,0.4,1,1,1h1c0.6,0,1-0.4,1-1C14,22.5,13.6,22,13,22z"/>
	</g>
</g>
<g id="Outline_Icons">
	<g>
		<path class="st2" d="M5.5,4c0-1.9,1.6-3.5,3.5-3.5c1.9,0,3.5,1.6,3.5,3.5v17.5"/>
		<line class="st2" x1="12" y1="23.5" x2="13" y2="23.5"/>
	</g>
</g>
</svg>
