<?xml version="1.0" encoding="utf-8"?>
<!-- Generator: Adobe Illustrator 19.2.0, SVG Export Plug-In . SVG Version: 6.00 Build 0)  -->
<svg version="1.1" id="Layer_1" xmlns="http://www.w3.org/2000/svg" xmlns:xlink="http://www.w3.org/1999/xlink" x="0px" y="0px"
	 viewBox="0 0 24 24" style="enable-background:new 0 0 24 24;" xml:space="preserve">
<style type="text/css">
	.st0{display:none;}
	.st1{display:inline;}
	.st2{fill:none;stroke:#000000;stroke-linecap:round;stroke-linejoin:round;stroke-miterlimit:10;}
</style>
<g id="Filled_Icon" class="st0">
	<g class="st1">
		<path d="M22,11V9c0-1.9-1.4-3.6-3.2-3.9l-0.9-3.7L4.4,5H2.5C1.1,5,0,6.1,0,7.5v13C0,21.9,1.1,23,2.5,23H18c2.2,0,4-1.8,4-4v-2
			c1.1-0.1,2-1.1,2-2.4v-1.2C24,12.1,23.1,11.1,22,11z M3.5,21h-1C2.2,21,2,20.8,2,20.5S2.2,20,2.5,20h1C3.8,20,4,20.2,4,20.5
			S3.8,21,3.5,21z M3.5,8h-1C2.2,8,2,7.8,2,7.5S2.2,7,2.5,7h1C3.8,7,4,7.2,4,7.5S3.8,8,3.5,8z M18.5,7C18.8,7,19,7.2,19,7.5
			S18.8,8,18.5,8h-1C17.2,8,17,7.8,17,7.5S17.2,7,17.5,7H18.5z M17.1,2.6L17.7,5H8.3L17.1,2.6z M6.5,21h-1C5.2,21,5,20.8,5,20.5
			S5.2,20,5.5,20h1C6.8,20,7,20.2,7,20.5S6.8,21,6.5,21z M6.5,8h-1C5.2,8,5,7.8,5,7.5S5.2,7,5.5,7h1C6.8,7,7,7.2,7,7.5S6.8,8,6.5,8z
			 M9.5,21h-1C8.2,21,8,20.8,8,20.5S8.2,20,8.5,20h1c0.3,0,0.5,0.2,0.5,0.5S9.8,21,9.5,21z M9.5,8h-1C8.2,8,8,7.8,8,7.5S8.2,7,8.5,7
			h1C9.8,7,10,7.2,10,7.5S9.8,8,9.5,8z M12.5,21h-1c-0.3,0-0.5-0.2-0.5-0.5s0.2-0.5,0.5-0.5h1c0.3,0,0.5,0.2,0.5,0.5
			S12.8,21,12.5,21z M12.5,8h-1C11.2,8,11,7.8,11,7.5S11.2,7,11.5,7h1C12.8,7,13,7.2,13,7.5S12.8,8,12.5,8z M15.5,21h-1
			c-0.3,0-0.5-0.2-0.5-0.5s0.2-0.5,0.5-0.5h1c0.3,0,0.5,0.2,0.5,0.5S15.8,21,15.5,21z M15.5,8h-1C14.2,8,14,7.8,14,7.5
			S14.2,7,14.5,7h1C15.8,7,16,7.2,16,7.5S15.8,8,15.5,8z M18.5,21h-1c-0.3,0-0.5-0.2-0.5-0.5s0.2-0.5,0.5-0.5h1
			c0.3,0,0.5,0.2,0.5,0.5S18.8,21,18.5,21z M23,14.6c0,0.8-0.6,1.4-1.2,1.4h-4c-0.7,0-1.2-0.6-1.2-1.4v-1.2c0-0.8,0.6-1.4,1.2-1.4h4
			c0.7,0,1.2,0.6,1.2,1.4V14.6L23,14.6z"/>
		<circle cx="18.5" cy="14" r="1"/>
	</g>
</g>
<g id="Outline_Icons">
	<g>
		<path class="st2" d="M21.5,16.5V19c0,1.9-1.6,3.5-3.5,3.5H2.5c-1.1,0-2-0.9-2-2v-13c0-1.1,0.9-2,2-2H18c1.9,0,3.5,1.6,3.5,3.5v2.5
			"/>
		<path class="st2" d="M23.5,14.6c0,1-0.8,1.9-1.7,1.9h-4c-1,0-1.7-0.8-1.7-1.9v-1.2c0-1,0.8-1.9,1.7-1.9h4c1,0,1.7,0.8,1.7,1.9
			V14.6L23.5,14.6z"/>
		<circle class="st2" cx="18.5" cy="14" r="0.5"/>
		<polyline class="st2" points="18.4,5.5 17.5,2 4.5,5.5 		"/>
		<line class="st2" x1="2.5" y1="7.5" x2="3.5" y2="7.5"/>
		<line class="st2" x1="5.5" y1="7.5" x2="6.5" y2="7.5"/>
		<line class="st2" x1="8.5" y1="7.5" x2="9.5" y2="7.5"/>
		<line class="st2" x1="11.5" y1="7.5" x2="12.5" y2="7.5"/>
		<line class="st2" x1="14.5" y1="7.5" x2="15.5" y2="7.5"/>
		<line class="st2" x1="17.5" y1="7.5" x2="18.5" y2="7.5"/>
		<line class="st2" x1="2.5" y1="20.5" x2="3.5" y2="20.5"/>
		<line class="st2" x1="5.5" y1="20.5" x2="6.5" y2="20.5"/>
		<line class="st2" x1="8.5" y1="20.5" x2="9.5" y2="20.5"/>
		<line class="st2" x1="11.5" y1="20.5" x2="12.5" y2="20.5"/>
		<line class="st2" x1="14.5" y1="20.5" x2="15.5" y2="20.5"/>
		<line class="st2" x1="17.5" y1="20.5" x2="18.5" y2="20.5"/>
	</g>
</g>
</svg>
