<?xml version="1.0" encoding="utf-8"?>
<!-- Generator: Adobe Illustrator 19.2.0, SVG Export Plug-In . SVG Version: 6.00 Build 0)  -->
<svg version="1.1" id="Layer_1" xmlns="http://www.w3.org/2000/svg" xmlns:xlink="http://www.w3.org/1999/xlink" x="0px" y="0px"
	 viewBox="0 0 24 24" style="enable-background:new 0 0 24 24;" xml:space="preserve">
<style type="text/css">
	.st0{display:none;}
	.st1{display:inline;}
	.st2{fill:none;stroke:#000000;stroke-linecap:round;stroke-linejoin:round;stroke-miterlimit:10;}
</style>
<g id="Filled_Icon" class="st0">
	<g class="st1">
		<path d="M20.5,0h-17C3.1,0,2.7,0.1,2.4,0.2c1.3,0.3,4.3,1,11.3,2.8h5.8C19.8,3,20,3.2,20,3.5S19.8,4,19.5,4h-3
			c1.3,0.9,2.3,2.4,2.5,4h0.5C19.8,8,20,8.2,20,8.5S19.8,9,19.5,9H19v9h1.5c1.9,0,3.5-1.6,3.5-3.5v-11C24,1.6,22.4,0,20.5,0z"/>
		<circle cx="13" cy="13.5" r="1.5"/>
		<path d="M18,8c-0.2-1.7-1.6-3.3-3.2-3.7C14.3,4.2,14,4.1,13.6,4l0,0c-1.1-0.3-2.5-0.6-3.9-1l0,0C2.9,1.3,1.5,1,1.3,1
			C1,1,0.7,1.1,0.5,1.3C0.1,1.8,0,3.5,0,3.5v13c0,1.9,1.5,3.7,3.3,4.2l11.2,2.6c0.3,0.1,0.5,0.1,0.8,0.1c1.6,0,2.8-1.2,2.8-2.9v-12
			C18,8.3,18,8.2,18,8L18,8L18,8z M13,16c-1.4,0-2.5-1.1-2.5-2.5S11.6,11,13,11s2.5,1.1,2.5,2.5S14.4,16,13,16z"/>
	</g>
</g>
<g id="Outline_Icons">
	<g>
		<path class="st2" d="M1.3,1.5l13.3,3.3c1.6,0.4,2.9,2.1,2.9,3.7v12c0,1.7-1.3,2.7-2.9,2.3L3.4,20.2c-1.6-0.4-2.9-2-2.9-3.7v-13
			c0-1.7,1.4-3,3-3h17c1.7,0,3,1.3,3,3v11c0,1.7-1.3,3-3,3h-3"/>
		<line class="st2" x1="9.5" y1="3.5" x2="19.5" y2="3.5"/>
		<circle class="st2" cx="13" cy="13.5" r="2"/>
		<line class="st2" x1="17.5" y1="8.5" x2="19.5" y2="8.5"/>
	</g>
</g>
</svg>
