<?xml version="1.0" encoding="utf-8"?>
<!-- Generator: Adobe Illustrator 19.2.0, SVG Export Plug-In . SVG Version: 6.00 Build 0)  -->
<svg version="1.1" id="Layer_1" xmlns="http://www.w3.org/2000/svg" xmlns:xlink="http://www.w3.org/1999/xlink" x="0px" y="0px"
	 viewBox="0 0 24 24" style="enable-background:new 0 0 24 24;" xml:space="preserve">
<style type="text/css">
	.st0{display:none;}
	.st1{display:inline;}
	.st2{fill:none;stroke:#000000;stroke-linecap:round;stroke-linejoin:round;stroke-miterlimit:10;}
</style>
<g id="Filled_Icon" class="st0">
	<g class="st1">
		<path d="M21.5,11H21V8.5c0-1.2-0.7-2.4-1.7-3H4.5C3.6,5.5,3,4.8,3,4s0.7-1.5,1.5-1.5h12C16.7,2.5,17,2.7,17,3s-0.2,0.5-0.5,0.5
			h-12C4.2,3.5,4,3.7,4,4s0.2,0.5,0.5,0.5H19v-1C19,2.1,17.4,1,15.5,1h-12C1.6,1,0,2.6,0,4.5v15C0,21.4,1.6,23,3.5,23h14
			c1.9,0,3.5-1.6,3.5-3.5V17h0.5c1.4,0,2.5-1.1,2.5-2.5v-1C24,12.1,22.9,11,21.5,11z M16.5,7h1C17.8,7,18,7.2,18,7.5S17.8,8,17.5,8
			h-1C16.2,8,16,7.8,16,7.5S16.2,7,16.5,7z M13.5,7h1C14.8,7,15,7.2,15,7.5S14.8,8,14.5,8h-1C13.2,8,13,7.8,13,7.5S13.2,7,13.5,7z
			 M5.5,21h-1C4.2,21,4,20.8,4,20.5S4.2,20,4.5,20h1C5.8,20,6,20.2,6,20.5S5.8,21,5.5,21z M5.5,8h-1C4.2,8,4,7.8,4,7.5S4.2,7,4.5,7
			h1C5.8,7,6,7.2,6,7.5S5.8,8,5.5,8z M8.5,21h-1C7.2,21,7,20.8,7,20.5S7.2,20,7.5,20h1C8.8,20,9,20.2,9,20.5S8.8,21,8.5,21z M8.5,8
			h-1C7.2,8,7,7.8,7,7.5S7.2,7,7.5,7h1C8.8,7,9,7.2,9,7.5S8.8,8,8.5,8z M11.5,21h-1c-0.3,0-0.5-0.2-0.5-0.5s0.2-0.5,0.5-0.5h1
			c0.3,0,0.5,0.2,0.5,0.5S11.8,21,11.5,21z M11.5,8h-1C10.2,8,10,7.8,10,7.5S10.2,7,10.5,7h1C11.8,7,12,7.2,12,7.5S11.8,8,11.5,8z
			 M14.5,21h-1c-0.3,0-0.5-0.2-0.5-0.5s0.2-0.5,0.5-0.5h1c0.3,0,0.5,0.2,0.5,0.5S14.8,21,14.5,21z M17.5,21h-1
			c-0.3,0-0.5-0.2-0.5-0.5s0.2-0.5,0.5-0.5h1c0.3,0,0.5,0.2,0.5,0.5S17.8,21,17.5,21z M23,14.5c0,0.8-0.7,1.5-1.5,1.5h-5
			c-0.8,0-1.5-0.7-1.5-1.5v-1c0-0.8,0.7-1.5,1.5-1.5h5c0.8,0,1.5,0.7,1.5,1.5V14.5z"/>
		<circle cx="17" cy="14" r="1"/>
	</g>
</g>
<g id="Outline_Icons">
	<g>
		<circle class="st2" cx="17" cy="14" r="0.5"/>
		<line class="st2" x1="4.5" y1="7.5" x2="5.5" y2="7.5"/>
		<line class="st2" x1="7.5" y1="7.5" x2="8.5" y2="7.5"/>
		<line class="st2" x1="10.5" y1="7.5" x2="11.5" y2="7.5"/>
		<line class="st2" x1="13.5" y1="7.5" x2="14.5" y2="7.5"/>
		<line class="st2" x1="16.5" y1="7.5" x2="17.5" y2="7.5"/>
		<line class="st2" x1="4.5" y1="20.5" x2="5.5" y2="20.5"/>
		<line class="st2" x1="7.5" y1="20.5" x2="8.5" y2="20.5"/>
		<line class="st2" x1="10.5" y1="20.5" x2="11.5" y2="20.5"/>
		<line class="st2" x1="13.5" y1="20.5" x2="14.5" y2="20.5"/>
		<line class="st2" x1="16.5" y1="20.5" x2="17.5" y2="20.5"/>
		<path class="st2" d="M23.5,14.5c0,1.1-0.9,2-2,2h-5c-1.1,0-2-0.9-2-2v-1c0-1.1,0.9-2,2-2h5c1.1,0,2,0.9,2,2V14.5z"/>
		<path class="st2" d="M20.5,11.5c0,0,0-1.4,0-3s-1.4-3-3-3h-14"/>
		<path class="st2" d="M15.5,3.5h-12c-0.6,0-1,0.4-1,1s0.4,1,1,1"/>
		<path class="st2" d="M20.5,16.5v3c0,1.7-1.4,3-3,3h-14c-1.6,0-3-1.3-3-3v-15c0-1.6,1.4-3,3-3h12c1.6,0,3,0.9,3,2s0,2,0,2"/>
	</g>
</g>
</svg>
