<?xml version="1.0" encoding="utf-8"?>
<!-- Generator: Adobe Illustrator 19.2.0, SVG Export Plug-In . SVG Version: 6.00 Build 0)  -->
<svg version="1.1" id="Layer_1" xmlns="http://www.w3.org/2000/svg" xmlns:xlink="http://www.w3.org/1999/xlink" x="0px" y="0px"
	 viewBox="0 0 24 24" style="enable-background:new 0 0 24 24;" xml:space="preserve">
<style type="text/css">
	.st0{display:none;}
	.st1{display:inline;}
	.st2{fill:none;stroke:#000000;stroke-linejoin:round;stroke-miterlimit:10;}
	.st3{fill:none;stroke:#000000;stroke-linecap:round;stroke-linejoin:round;stroke-miterlimit:10;}
</style>
<g id="Filled_Icons" class="st0">
	<g class="st1">
		<path d="M3.5,14h-2C0.7,14,0,14.7,0,15.5v7C0,23.3,0.7,24,1.5,24h2C4.3,24,5,23.3,5,22.5v-7C5,14.7,4.3,14,3.5,14z"/>
		<path d="M22.5,14h-2c-0.8,0-1.5,0.7-1.5,1.5v7c0,0.8,0.7,1.5,1.5,1.5h2c0.8,0,1.5-0.7,1.5-1.5v-7C24,14.7,23.3,14,22.5,14z"/>
		<path d="M19.5,1l-3.3,0L15,1c-0.1,0-0.3,0-0.4,0.1c-0.1,0.1-0.2,0.2-0.2,0.4c0,4.2,2.3,6.1,4.6,6.1c1.9,0,3.4-1.3,3.4-3.1
			C22.5,2.4,21.4,1.1,19.5,1z M18.7,5.5c-0.1,0-0.1,0-0.2,0c-0.7,0-1.4-0.6-1.5-1.3c-0.1-0.4,0-0.8,0.3-1.1c0.2-0.3,0.6-0.5,1-0.6
			C19.1,2.4,19.9,3,20,3.8C20.1,4.7,19.5,5.4,18.7,5.5z"/>
		<path d="M9.3,1.1C9.3,1.1,9.1,1,9,1L4.5,1c-1.9,0.1-3,1.4-3,3.5c0,1.7,1.5,3.1,3.4,3.1c1.2,0,2.3-0.5,3.1-1.5C9,5,9.5,3.4,9.5,1.5
			C9.5,1.4,9.4,1.2,9.3,1.1z M7,4.3C6.9,5,6.2,5.5,5.5,5.5c-0.1,0-0.1,0-0.2,0C4.5,5.4,3.9,4.7,4,3.8C4.1,3,4.9,2.4,5.7,2.6
			c0.4,0.1,0.7,0.3,1,0.6C6.9,3.5,7,3.9,7,4.3z"/>
		<g>
			<path d="M18,13v-2.5c0-0.3-0.2-0.5-0.5-0.5h-11C6.2,10,6,10.2,6,10.5V13H18z"/>
			<path d="M13.5,9V0.5C13.5,0.2,13.3,0,13,0h-2c-0.3,0-0.5,0.2-0.5,0.5V9H13.5z"/>
			<path d="M6,14v6.5C6,20.8,6.2,21,6.5,21h6v-3.5c0-0.3,0.2-0.5,0.5-0.5s0.5,0.2,0.5,0.5V21h1v-3.5c0-0.3,0.2-0.5,0.5-0.5
				s0.5,0.2,0.5,0.5V21h2c0.3,0,0.5-0.2,0.5-0.5V14C18,14,6,14,6,14z"/>
		</g>
	</g>
</g>
<g id="Outline_Icons">
	<g>
		<path class="st2" d="M5.5,22.5c0,0.6-0.4,1-1,1h-3c-0.6,0-1-0.4-1-1v-7c0-0.6,0.4-1,1-1h3c0.6,0,1,0.4,1,1V22.5z"/>
		<path class="st2" d="M22.5,22.5c0,0.6-0.4,1-1,1h-3c-0.6,0-1-0.4-1-1v-7c0-0.6,0.4-1,1-1h3c0.6,0,1,0.4,1,1V22.5z"/>
		<rect x="5.5" y="10.5" class="st2" width="12" height="10"/>
		<rect x="10.5" y="0.5" class="st2" width="2" height="10"/>
		<line class="st2" x1="5.5" y1="13.5" x2="17.5" y2="13.5"/>
		<path class="st2" d="M13.5,1.5c0,0,1,0,4.5,0c1.4,0.1,2.5,1,2.5,3C20.5,8,13.5,8.7,13.5,1.5z"/>
		<circle class="st2" cx="17" cy="4" r="1"/>
		<path class="st2" d="M9.5,1.5c0,0-1,0-4.5,0c-1.4,0.1-2.5,1-2.5,3C2.5,8,9.5,8.7,9.5,1.5z"/>
		<circle class="st2" cx="6" cy="4" r="1"/>
		<line class="st3" x1="14.5" y1="20.5" x2="14.5" y2="17.5"/>
		<line class="st3" x1="12.5" y1="20.5" x2="12.5" y2="17.5"/>
	</g>
</g>
</svg>
