<?xml version="1.0" encoding="utf-8"?>
<!-- Generator: Adobe Illustrator 19.2.0, SVG Export Plug-In . SVG Version: 6.00 Build 0)  -->
<svg version="1.1" id="Outline_Icons" xmlns="http://www.w3.org/2000/svg" xmlns:xlink="http://www.w3.org/1999/xlink" x="0px"
	 y="0px" viewBox="0 0 24 24" style="enable-background:new 0 0 24 24;" xml:space="preserve">
<style type="text/css">
	.st0{fill:none;stroke:#000000;stroke-linejoin:round;stroke-miterlimit:10;}
</style>
<g>
	<path class="st0" d="M21.5,21.5c0,1.1-0.9,2-2,2h-15c-1.1,0-2-0.9-2-2v-19c0-1.1,0.9-2,2-2h15c1.1,0,2,0.9,2,2V21.5z"/>
	<line class="st0" x1="2.5" y1="6.5" x2="21.5" y2="6.5"/>
	<circle class="st0" cx="12" cy="15" r="5.5"/>
	<g>
		<path d="M18.5,2C18.2,2,18,2.2,18,2.5S18.2,3,18.5,3C18.8,3,19,2.8,19,2.5S18.8,2,18.5,2L18.5,2z"/>
	</g>
	<g>
		<path d="M16.5,2C16.2,2,16,2.2,16,2.5S16.2,3,16.5,3C16.8,3,17,2.8,17,2.5S16.8,2,16.5,2L16.5,2z"/>
	</g>
	<g>
		<path d="M14.5,2C14.2,2,14,2.2,14,2.5S14.2,3,14.5,3C14.8,3,15,2.8,15,2.5S14.8,2,14.5,2L14.5,2z"/>
	</g>
	<g>
		<path d="M14.5,4C14.2,4,14,4.2,14,4.5S14.2,5,14.5,5C14.8,5,15,4.8,15,4.5S14.8,4,14.5,4L14.5,4z"/>
	</g>
	<g>
		<path d="M16.5,4C16.2,4,16,4.2,16,4.5S16.2,5,16.5,5C16.8,5,17,4.8,17,4.5S16.8,4,16.5,4L16.5,4z"/>
	</g>
	<g>
		<path d="M18.5,4C18.2,4,18,4.2,18,4.5S18.2,5,18.5,5C18.8,5,19,4.8,19,4.5S18.8,4,18.5,4L18.5,4z"/>
	</g>
	<line class="st0" x1="11.5" y1="13.1" x2="11.5" y2="9.5"/>
	<line class="st0" x1="13.6" y1="16.2" x2="16.4" y2="18.3"/>
	<line class="st0" x1="10.4" y1="16.2" x2="7.6" y2="18.3"/>
	<circle class="st0" cx="12" cy="15" r="2"/>
	<polygon class="st0" points="5,2.5 11,2.5 10,4.5 6,4.5 	"/>
</g>
</svg>
