<?xml version="1.0" encoding="utf-8"?>
<!-- Generator: Adobe Illustrator 19.2.0, SVG Export Plug-In . SVG Version: 6.00 Build 0)  -->
<svg version="1.1" id="Layer_1" xmlns="http://www.w3.org/2000/svg" xmlns:xlink="http://www.w3.org/1999/xlink" x="0px" y="0px"
	 viewBox="0 0 24 24" style="enable-background:new 0 0 24 24;" xml:space="preserve">
<style type="text/css">
	.st0{display:none;}
	.st1{display:inline;}
	.st2{fill:none;stroke:#000000;stroke-linecap:round;stroke-linejoin:round;stroke-miterlimit:10;}
	.st3{fill:none;stroke:#000000;stroke-linejoin:round;stroke-miterlimit:10;}
</style>
<g id="Filled_Icons" class="st0">
	<g class="st1">
		<path d="M23.4,4.6L21.7,3l-1.9,1.9c-0.1,0.1-0.1,0.1-0.2,0.1l2,2l1.6-1.6C23.5,5.2,23.5,4.8,23.4,4.6z"/>
		<path d="M19.1,4.1L21,2.3l-1.6-1.6c-0.2-0.2-0.5-0.2-0.7,0L17,2.3l2,2C19.1,4.3,19.1,4.2,19.1,4.1z"/>
		<path d="M16.3,3l-2.4,2.4C13.1,5.1,12.3,5,11.5,5C7.4,5,4,8.4,4,12.5c0,0.8,0.1,1.6,0.4,2.4l-4.3,4.3C0.1,19.2,0,19.4,0,19.5v4
			C0,23.8,0.2,24,0.5,24h4c0.1,0,0.3-0.1,0.4-0.1l4.3-4.3c0.8,0.3,1.6,0.4,2.4,0.4c4.1,0,7.5-3.4,7.5-7.5c0-0.8-0.1-1.6-0.4-2.4
			L21,7.7L16.3,3z M3.5,21C3.2,21,3,20.8,3,20.5C3,20.2,3.2,20,3.5,20C3.8,20,4,20.2,4,20.5C4,20.8,3.8,21,3.5,21z M5,19.5
			c-0.3,0-0.5-0.2-0.5-0.5c0-0.3,0.2-0.5,0.5-0.5c0.3,0,0.5,0.2,0.5,0.5C5.5,19.3,5.3,19.5,5,19.5z M11.5,19C7.9,19,5,16.1,5,12.5
			S7.9,6,11.5,6S18,8.9,18,12.5S15.1,19,11.5,19z"/>
		<path d="M12,12.3V10c0-0.3-0.2-0.5-0.5-0.5C11.2,9.5,11,9.7,11,10v2.5c0,0.1,0.1,0.3,0.1,0.4l3,3c0.1,0.1,0.2,0.1,0.4,0.1
			c0.1,0,0.3,0,0.4-0.1c0.2-0.2,0.2-0.5,0-0.7L12,12.3z"/>
	</g>
</g>
<g id="Outline_Icons">
	<g>
		<circle class="st2" cx="11.5" cy="12.5" r="7"/>
		<polyline class="st2" points="11.5,10 11.5,12.5 14.5,15.5 		"/>
		<polyline class="st3" points="14,6 17.5,2.5 21.5,6.5 18,10 		"/>
		<polyline class="st3" points="5,15 0.5,19.5 0.5,23.5 4.5,23.5 9,19 		"/>
		<polyline class="st2" points="17.5,2.5 19.5,0.5 23.5,4.5 21.5,6.5 		"/>
		<line class="st2" x1="19.5" y1="4.5" x2="21.5" y2="2.5"/>
		<g>
			<g>
				<g>
					<path d="M3.5,20C3.2,20,3,20.2,3,20.5C3,20.8,3.2,21,3.5,21C3.8,21,4,20.8,4,20.5C4,20.2,3.8,20,3.5,20L3.5,20z"/>
				</g>
			</g>
		</g>
		<g>
			<g>
				<g>
					<path d="M5,18.5c-0.3,0-0.5,0.2-0.5,0.5c0,0.3,0.2,0.5,0.5,0.5c0.3,0,0.5-0.2,0.5-0.5C5.5,18.7,5.3,18.5,5,18.5L5,18.5z"/>
				</g>
			</g>
		</g>
	</g>
</g>
</svg>
