<?xml version="1.0" encoding="utf-8"?>
<!-- Generator: Adobe Illustrator 19.2.0, SVG Export Plug-In . SVG Version: 6.00 Build 0)  -->
<svg version="1.1" id="Layer_1" xmlns="http://www.w3.org/2000/svg" xmlns:xlink="http://www.w3.org/1999/xlink" x="0px" y="0px"
	 viewBox="0 0 24 24" style="enable-background:new 0 0 24 24;" xml:space="preserve">
<style type="text/css">
	.st0{display:none;}
	.st1{display:inline;}
	.st2{fill:none;stroke:#000000;stroke-linejoin:round;stroke-miterlimit:10;}
	.st3{fill:none;stroke:#000000;stroke-linecap:round;stroke-linejoin:round;stroke-miterlimit:10;}
</style>
<g id="Filled_Icons" class="st0">
	<g class="st1">
		<path d="M16,5.7V0.5C16,0.2,15.8,0,15.5,0h-7C8.2,0,8,0.2,8,0.5v5.2C5.9,7,4.5,9.3,4.5,12c0,2.7,1.4,5,3.5,6.3v5.2
			C8,23.8,8.2,24,8.5,24h7c0.3,0,0.5-0.2,0.5-0.5v-5.2c2.1-1.3,3.5-3.7,3.5-6.3C19.5,9.3,18.1,7,16,5.7z M12,18.5
			c-3.6,0-6.5-2.9-6.5-6.5S8.4,5.5,12,5.5s6.5,2.9,6.5,6.5S15.6,18.5,12,18.5z"/>
		<path d="M12,11.8V9c0-0.3-0.2-0.5-0.5-0.5C11.2,8.5,11,8.7,11,9v3c0,0.1,0.1,0.3,0.2,0.4l3.5,3c0.1,0.1,0.2,0.1,0.3,0.1
			c0.1,0,0.3-0.1,0.4-0.2c0.2-0.2,0.2-0.5-0.1-0.7L12,11.8z"/>
	</g>
</g>
<g id="Outline_Icons">
	<g>
		<polyline class="st2" points="8.5,6 8.5,0.5 15.5,0.5 15.5,5.9 		"/>
		<polyline class="st2" points="8.5,18.1 8.5,23.5 15.5,23.5 15.5,18 		"/>
		<circle class="st3" cx="12" cy="12" r="7"/>
		<polyline class="st3" points="11.5,9 11.5,12 15,15 		"/>
	</g>
</g>
</svg>
