<?xml version="1.0" encoding="utf-8"?>
<!-- Generator: Adobe Illustrator 19.2.0, SVG Export Plug-In . SVG Version: 6.00 Build 0)  -->
<svg version="1.1" id="Layer_1" xmlns="http://www.w3.org/2000/svg" xmlns:xlink="http://www.w3.org/1999/xlink" x="0px" y="0px"
	 viewBox="0 0 24 24" style="enable-background:new 0 0 24 24;" xml:space="preserve">
<style type="text/css">
	.st0{display:none;}
	.st1{display:inline;}
	.st2{fill:none;stroke:#000000;stroke-linejoin:round;stroke-miterlimit:10;}
	.st3{fill:none;stroke:#000000;stroke-linecap:round;stroke-linejoin:round;stroke-miterlimit:10;}
</style>
<g id="Filled_Icons" class="st0">
	<g class="st1">
		<path d="M5.5,6h14c0.2,0,0.4-0.1,0.5-0.4c0.1-0.2,0-0.4-0.2-0.6l-7-4.5c-0.2-0.1-0.4-0.1-0.5,0L5.3,5C5.1,5.2,5,5.4,5,5.6
			C5.1,5.9,5.3,6,5.5,6z"/>
		<path d="M18.1,10L18,9.5V7H7v2.5l0,0V10H18.1z"/>
		<path d="M18.2,11H6.8l-0.6,3.9l0,0L5,23.4C5,23.7,5.2,24,5.4,24c0,0,0,0,0.1,0C5.7,24,6,23.8,6,23.6l0.2-1.3l6.3-3.6l6.3,3.6
			l0.2,1.3c0,0.2,0.2,0.4,0.5,0.4c0,0,0,0,0.1,0c0.3,0,0.5-0.3,0.4-0.6L18.2,11z M6.4,21.1l0.8-5.3l4.4,2.5L6.4,21.1z M7.3,14.7
			l0.4-2.6c0.9,1.7,2.8,2.9,4.9,2.9s3.9-1.2,4.9-2.9l0.4,2.6l-5.2,2.9L7.3,14.7z M13.5,18.2l4.4-2.5l0.8,5.3L13.5,18.2z"/>
	</g>
</g>
<g id="Outline_Icons">
	<g>
		<path class="st2" d="M17.5,9.5c0,2.8-2.2,5-5,5s-5-2.2-5-5v-4h10V9.5z"/>
		<polygon class="st2" points="12.5,1 19.5,5.5 5.5,5.5 		"/>
		<line class="st2" x1="7.6" y1="10.5" x2="17.4" y2="10.5"/>
		<line class="st3" x1="17.5" y1="9.5" x2="19.5" y2="23.5"/>
		<line class="st3" x1="7.5" y1="9.6" x2="5.5" y2="23.5"/>
		<line class="st3" x1="6.7" y1="14.9" x2="19.3" y2="22"/>
		<line class="st3" x1="18.3" y1="14.9" x2="5.7" y2="22"/>
	</g>
</g>
</svg>
