<?xml version="1.0" encoding="utf-8"?>
<!-- Generator: Adobe Illustrator 19.2.0, SVG Export Plug-In . SVG Version: 6.00 Build 0)  -->
<svg version="1.1" id="Layer_1" xmlns="http://www.w3.org/2000/svg" xmlns:xlink="http://www.w3.org/1999/xlink" x="0px" y="0px"
	 viewBox="0 0 24 24" style="enable-background:new 0 0 24 24;" xml:space="preserve">
<style type="text/css">
	.st0{display:none;}
	.st1{display:inline;}
	.st2{fill:none;stroke:#000000;stroke-linejoin:round;stroke-miterlimit:10;}
	.st3{fill:none;stroke:#000000;stroke-linecap:round;stroke-linejoin:round;stroke-miterlimit:10;}
</style>
<g id="Filled_Icon" class="st0">
	<g class="st1">
		<path d="M0.8,19c1.2,0.3,2.6-1,3-1.5c0.6-0.8,1.9-0.7,2.5,0.1c0,0,0.9,1.4,2.3,1.4c1.5,0,2.3-1.3,2.3-1.3c0.3-0.4,0.8-0.7,1.3-0.7
			s1,0.3,1.3,0.7c0,0,0.9,1.3,2.3,1.3c1.5,0,2.3-1.3,2.3-1.3c0.3-0.5,0.8-0.8,1.3-0.8s1,0.3,1.3,0.7c0,0,1.1,1.6,2.5,1.3
			c0.3-0.1,0.5,0,0.8,0.1v-2.6c0-0.1-0.1-0.3-0.2-0.4s-0.3-0.1-0.4-0.1c-2.1,0.4-3.5-1.7-3.5-1.8c-0.2-0.3-0.7-0.3-0.9,0
			c0,0-1.1,1.8-3.2,1.8c-2,0-3.2-1.8-3.2-1.8c-0.2-0.3-0.7-0.3-0.9,0c0,0-1.1,1.8-3.2,1.8c-2,0-3.2-1.8-3.2-1.8
			c-0.2-0.3-0.6-0.3-0.8,0c0,0-1.8,2.3-4,1.8c-0.1,0-0.3,0-0.4,0.1c0,0.2-0.1,0.3-0.1,0.5v2.6C0.3,19,0.5,19,0.8,19z"/>
		<path d="M23.8,20.1C23.7,20,23.5,20,23.4,20c-0.2,0-0.4,0-0.6,0c-1.8,0-2.9-1.8-3-1.8c-0.2-0.3-0.7-0.3-0.9,0c0,0-1.1,1.8-3.2,1.8
			c-2,0-3.2-1.8-3.2-1.8c-0.2-0.3-0.7-0.3-0.9,0c0,0.1-1.1,1.8-3.2,1.8c-2,0-3.2-1.8-3.2-1.8c-0.2-0.3-0.6-0.3-0.8,0
			c0,0-1.5,1.9-3.4,1.9c-0.2,0-0.4,0-0.6-0.1c-0.1,0-0.3,0-0.4,0.1c0.1,0.1,0,0.2,0,0.4v3c0,0.1,0.1,0.3,0.1,0.4
			c0.1,0,0.3,0.1,0.4,0.1h23c0.3,0,0.5-0.2,0.5-0.5v-3C24,20.3,23.9,20.2,23.8,20.1z"/>
		<g>
			<path d="M18.3,10.6c-0.2-0.2-0.5-0.2-0.7,0L16,12.3V5.5C16,5.2,15.8,5,15.5,5S15,5.2,15,5.5v6.8l-1.6-1.6c-0.2-0.2-0.5-0.2-0.7,0
				s-0.2,0.5,0,0.7l2.5,2.5c0,0,0.1,0.1,0.2,0.1c0.1,0,0.1,0,0.2,0s0.1,0,0.2,0c0.1,0,0.1-0.1,0.2-0.1l2.5-2.5
				C18.5,11.1,18.5,10.8,18.3,10.6z"/>
			<path d="M10.6,10.6L9,12.3V5.5C9,5.2,8.8,5,8.5,5S8,5.2,8,5.5v6.8l-1.6-1.6c-0.2-0.2-0.5-0.2-0.7,0s-0.2,0.5,0,0.7l2.5,2.5
				c0,0,0.1,0.1,0.2,0.1c0.1,0,0.1,0,0.2,0c0.1,0,0.1,0,0.2,0c0.1,0,0.1-0.1,0.2-0.1l2.5-2.5c0.2-0.2,0.2-0.5,0-0.7
				C11.2,10.4,10.8,10.4,10.6,10.6z"/>
		</g>
	</g>
</g>
<g id="Outline_Icons">
	<g>
		<path class="st2" d="M23.5,23.5v-3c-2.5,0.5-4.1-2-4.1-2l0,0c0,0-1.2,2.1-3.6,2.1c-2.3,0-3.6-2.1-3.6-2.1l0,0c0,0-1.2,2.1-3.6,2.1
			c-2.3,0-3.6-2.1-3.6-2.1l0,0c0,0-2,2.5-4.5,2v3H23.5z"/>
		<path class="st2" d="M23.5,20.5v-4c-2.5,0.5-4.1-2-4.1-2l0,0c0,0-1.2,2.1-3.6,2.1c-2.3,0-3.6-2.1-3.6-2.1l0,0c0,0-1.2,2.1-3.6,2.1
			c-2.3,0-3.6-2.1-3.6-2.1l0,0c0,0-2,2.5-4.5,2v4"/>
		<line class="st3" x1="15.5" y1="13.5" x2="15.5" y2="5.5"/>
		<polyline class="st3" points="13,11 15.5,13.5 18,11 		"/>
		<line class="st3" x1="8.5" y1="13.5" x2="8.5" y2="5.5"/>
		<polyline class="st3" points="6,11 8.5,13.5 11,11 		"/>
	</g>
</g>
</svg>
