<?xml version="1.0" encoding="utf-8"?>
<!-- Generator: Adobe Illustrator 19.2.0, SVG Export Plug-In . SVG Version: 6.00 Build 0)  -->
<svg version="1.1" id="Layer_1" xmlns="http://www.w3.org/2000/svg" xmlns:xlink="http://www.w3.org/1999/xlink" x="0px" y="0px"
	 viewBox="0 0 24 24" style="enable-background:new 0 0 24 24;" xml:space="preserve">
<style type="text/css">
	.st0{display:none;}
	.st1{display:inline;}
	.st2{fill:none;stroke:#000000;stroke-linejoin:round;stroke-miterlimit:10;}
</style>
<g id="Filled_Icons" class="st0">
	<g class="st1">
		<rect x="11" y="20" width="3" height="4"/>
		<rect x="15" y="20" width="3" height="4"/>
		<path d="M6,20H4v3.5C4,23.8,4.2,24,4.5,24H6V20z"/>
		<rect x="9" y="15" width="3" height="4"/>
		<rect x="13" y="15" width="3" height="4"/>
		<path d="M21.9,4.3l-2-4c0-0.2-0.2-0.3-0.4-0.3h-14C5.3,0,5.1,0.1,5.1,0.3l-2,4C3,4.4,3,4.6,3.1,4.8C3.2,4.9,3.3,5,3.5,5H6v10H4.5
			C4.2,15,4,15.2,4,15.5V19h4v-4H7V5h5v3H9.5C9.4,8,9.2,8.1,9.1,8.2C9,8.3,9,8.5,9,8.6l1,5c0,0.2,0.3,0.4,0.5,0.4h4
			c0.2,0,0.4-0.2,0.5-0.4l1-5c0-0.1,0-0.3-0.1-0.4C15.8,8.1,15.6,8,15.5,8H13V5h5v10h-1v4h4v-3.5c0-0.3-0.2-0.5-0.5-0.5H19V5h2.5
			c0.2,0,0.3-0.1,0.4-0.2C22,4.6,22,4.4,21.9,4.3z"/>
		<path d="M19,20v4h1.5c0.3,0,0.5-0.2,0.5-0.5V20H19z"/>
		<rect x="7" y="20" width="3" height="4"/>
	</g>
</g>
<g id="Outline_Icons">
	<g>
		<rect x="4.5" y="15.5" class="st2" width="16" height="8"/>
		<line class="st2" x1="6.5" y1="15.5" x2="6.5" y2="4.5"/>
		<line class="st2" x1="18.5" y1="15.5" x2="18.5" y2="4.5"/>
		<polygon class="st2" points="5.5,0.5 19.5,0.5 21.5,4.5 3.5,4.5 		"/>
		<polygon class="st2" points="14.5,13.5 10.5,13.5 9.5,8.5 15.5,8.5 		"/>
		<line class="st2" x1="12.5" y1="8.5" x2="12.5" y2="4.5"/>
		<line class="st2" x1="4.5" y1="19.5" x2="20.5" y2="19.5"/>
		<line class="st2" x1="8.5" y1="15.5" x2="8.5" y2="19.5"/>
		<line class="st2" x1="12.5" y1="15.5" x2="12.5" y2="19.5"/>
		<line class="st2" x1="16.5" y1="15.5" x2="16.5" y2="19.5"/>
		<line class="st2" x1="10.5" y1="19.5" x2="10.5" y2="23.5"/>
		<line class="st2" x1="6.5" y1="19.5" x2="6.5" y2="23.5"/>
		<line class="st2" x1="14.5" y1="19.5" x2="14.5" y2="23.5"/>
		<line class="st2" x1="18.5" y1="19.5" x2="18.5" y2="23.5"/>
	</g>
</g>
</svg>
