<?xml version="1.0" encoding="utf-8"?>
<!-- Generator: Adobe Illustrator 19.2.0, SVG Export Plug-In . SVG Version: 6.00 Build 0)  -->
<svg version="1.1" id="Layer_1" xmlns="http://www.w3.org/2000/svg" xmlns:xlink="http://www.w3.org/1999/xlink" x="0px" y="0px"
	 viewBox="0 0 24 24" style="enable-background:new 0 0 24 24;" xml:space="preserve">
<style type="text/css">
	.st0{display:none;}
	.st1{display:inline;}
	.st2{fill:none;stroke:#000000;stroke-linejoin:round;stroke-miterlimit:10;}
	.st3{fill:none;stroke:#000000;stroke-linecap:round;stroke-linejoin:round;stroke-miterlimit:10;}
</style>
<g id="Filled_Icons" class="st0">
	<g class="st1">
		<path d="M21.4,18.3c-0.2-0.3-0.7-0.3-0.9,0C20.3,18.8,19,21,19,22c0,1.1,0.9,2,2,2s2-0.9,2-2C23,21,21.7,18.8,21.4,18.3z"/>
		<path d="M2.5,7h-2C0.2,7,0,7.2,0,7.5v5C0,12.8,0.2,13,0.5,13h2C2.8,13,3,12.8,3,12.5v-5C3,7.2,2.8,7,2.5,7z"/>
		<path d="M2,2h5v1h4V2h5l0,0c0.3,0,0.5-0.2,0.5-0.5S16.3,1,16,1h-5V0.5C11,0.2,10.8,0,10.5,0h-3C7.2,0,7,0.2,7,0.5V1H2
			C1.7,1,1.5,1.2,1.5,1.5S1.7,2,2,2z"/>
		<path d="M10.5,4h-3C5.6,4,4,5.6,4,7.5v5C4,14.4,5.6,16,7.5,16h3c1.9,0,3.5-1.6,3.5-3.5v-5C14,5.6,12.4,4,10.5,4z"/>
		<path d="M23,16.5v-2c0-4.9-3.9-7-8-7.4V13h1.5c0.8,0,1.5,0.7,1.5,1.5v2c0,0.3,0.2,0.5,0.5,0.5h4C22.8,17,23,16.8,23,16.5z"/>
	</g>
</g>
<g id="Outline_Icons">
	<g>
		<g>
			<path class="st2" d="M22.5,22c0,0.8-0.7,1.5-1.5,1.5s-1.5-0.7-1.5-1.5s1.5-3.4,1.5-3.4S22.5,21.1,22.5,22z"/>
			<path class="st2" d="M7.5,15.5c-1.7,0-3-1.3-3-3h-4v-5h4c0-1.7,1.3-3,3-3h3c1.7,0,3,1.3,3,3c3,0,9,1,9,7v2h-4v-2c0-1.1-0.9-2-2-2
				h-3c0,1.7-1.3,3-3,3H7.5z"/>
			<rect x="7.5" y="0.5" class="st2" width="3" height="4"/>
			<line class="st3" x1="7.5" y1="2.5" x2="2" y2="2.5"/>
			<line class="st3" x1="16" y1="2.5" x2="10.5" y2="2.5"/>
		</g>
		<line class="st3" x1="4.5" y1="7.5" x2="4.5" y2="12.5"/>
		<line class="st3" x1="13.5" y1="7.5" x2="13.5" y2="12.5"/>
	</g>
</g>
</svg>
