<?xml version="1.0" encoding="utf-8"?>
<!-- Generator: Adobe Illustrator 19.2.0, SVG Export Plug-In . SVG Version: 6.00 Build 0)  -->
<svg version="1.1" id="Layer_1" xmlns="http://www.w3.org/2000/svg" xmlns:xlink="http://www.w3.org/1999/xlink" x="0px" y="0px"
	 viewBox="0 0 24 24" style="enable-background:new 0 0 24 24;" xml:space="preserve">
<style type="text/css">
	.st0{display:none;}
	.st1{display:inline;}
	.st2{fill:none;stroke:#000000;stroke-linecap:round;stroke-linejoin:round;stroke-miterlimit:10;}
	.st3{fill:none;stroke:#000000;stroke-linejoin:round;stroke-miterlimit:10;}
</style>
<g id="Filled_Icons" class="st0">
	<g class="st1">
		<g>
			<path d="M6.8,9.8C6.6,9.6,6.3,9.6,6.1,9.9l-2.5,3c-0.2-1.8,0.1-3.6,1.1-5.2c1.2-2,3.1-3.4,5.3-3.9C12.8,3,15.8,4,17.8,6.2
				c0.2,0.2,0.5,0.2,0.7,0s0.2-0.5,0-0.7C16.3,3.1,12.9,2,9.7,2.7C7.3,3.3,5.1,4.9,3.8,7.1C2.9,8.6,2.5,10.3,2.5,12L0.9,9.6
				C0.8,9.4,0.5,9.3,0.2,9.4C0,9.6-0.1,9.9,0.1,10.1l2.8,4.1c0.1,0.1,0.2,0.2,0.4,0.2l0,0c0.1,0,0.3-0.1,0.4-0.2l3.2-3.8
				C7.1,10.3,7,10,6.8,9.8z"/>
			<path d="M23.5,13.9l-2.8-4.1c-0.1-0.1-0.2-0.2-0.4-0.2c-0.2,0-0.4,0.1-0.5,0.3l-3.1,3.8c-0.2,0.2-0.1,0.5,0.1,0.7
				s0.5,0.1,0.7-0.1l2.4-2.9c0.1,3.6-2.6,7.1-6.2,8C11,20,8.2,19.3,6.2,17.3C6,17,5.6,17,5.5,17.2c-0.2,0.2-0.2,0.5,0,0.7
				c1.7,1.7,4,2.6,6.3,2.6c0.7,0,1.4-0.1,2.1-0.2c4-1,6.9-4.6,7-8.5l1.8,2.7c0.1,0.1,0.3,0.2,0.4,0.2s0.2,0,0.3-0.1
				C23.6,14.4,23.6,14.1,23.5,13.9z"/>
		</g>
		<path d="M12.2,6.1c-0.2-0.3-0.7-0.3-0.8,0C11,6.6,8,11.5,8,13.4c0,2,1.6,3.5,3.8,3.5c2.1,0,3.8-1.5,3.8-3.5
			C15.5,11.5,12.5,6.6,12.2,6.1z M11.6,15.5c-1.2,0-2.1-0.8-2.1-2c0-0.3,0.2-0.5,0.5-0.5s0.5,0.2,0.5,0.5c0,0.7,0.6,1,1.1,1
			c0.3,0,0.5,0.2,0.5,0.5S11.9,15.5,11.6,15.5z"/>
	</g>
</g>
<g id="Outline_Icons">
	<g>
		<g>
			<polyline class="st2" points="0.5,9.9 3.3,14 6.5,10.2 			"/>
			<polyline class="st2" points="23.1,14.2 20.3,10 17.1,13.8 			"/>
			<path class="st2" d="M20.2,10c0.8,4.4-2.3,8.7-6.5,9.7c-3,0.7-5.9-0.2-7.9-2.2"/>
			<path class="st2" d="M3.3,14C2,9.1,5.3,4.3,9.8,3.2c3.2-0.7,6.3,0.4,8.3,2.6"/>
		</g>
		<path class="st3" d="M15,13.4c0,1.8-1.5,3-3.3,3s-3.2-1.2-3.2-3s3.2-7,3.2-7S15,11.6,15,13.4z"/>
		<path class="st2" d="M12,14.4c-0.9,0-1.6-0.6-1.6-1.5"/>
	</g>
</g>
</svg>
