<?xml version="1.0" encoding="utf-8"?>
<!-- Generator: Adobe Illustrator 19.2.0, SVG Export Plug-In . SVG Version: 6.00 Build 0)  -->
<svg version="1.1" id="Layer_1" xmlns="http://www.w3.org/2000/svg" xmlns:xlink="http://www.w3.org/1999/xlink" x="0px" y="0px"
	 viewBox="0 0 24 24" style="enable-background:new 0 0 24 24;" xml:space="preserve">
<style type="text/css">
	.st0{display:none;}
	.st1{display:inline;}
	.st2{fill:none;stroke:#000000;stroke-linejoin:round;stroke-miterlimit:10;}
	.st3{fill:none;stroke:#000000;stroke-linecap:round;stroke-linejoin:round;stroke-miterlimit:10;}
</style>
<g id="Filled_Icons" class="st0">
	<g class="st1">
		<path d="M21,13.5c0-0.3-0.2-0.5-0.5-0.5h-7v-1.1c2.7-0.3,5-1.4,5-3.4C18.5,8.2,18.3,8,18,8h-6V2.5C12,1.7,12.7,1,13.5,1
			S15,1.7,15,2.5V3c0,0.3,0.2,0.5,0.5,0.5S16,3.3,16,3V2.5C16,1.1,14.9,0,13.5,0c-0.8,0-1.5,0.4-2,1c-0.5-0.6-1.2-1-2-1
			C8.1,0,7,1.1,7,2.5V3c0,0.3,0.2,0.5,0.5,0.5S8,3.3,8,3V2.5C8,1.7,8.7,1,9.5,1S11,1.7,11,2.5V8H5C4.7,8,4.5,8.2,4.5,8.5
			c0,2,2.3,3.1,5,3.4V13h-7C2.2,13,2,13.2,2,13.5C2,17,5,19,8.5,19.7V21H8c-0.6,0-2,0-2,1.5v1C6,23.8,6.2,24,6.5,24h10
			c0.3,0,0.5-0.2,0.5-0.5v-1c0-1.5-1.3-1.5-2-1.5h-0.5v-1.3C18,19,21,17,21,13.5z"/>
		<path d="M15.5,4.5C15.2,4.5,15,4.7,15,5v1c0,0.3,0.2,0.5,0.5,0.5S16,6.3,16,6V5C16,4.7,15.8,4.5,15.5,4.5z"/>
		<path d="M7.5,6.5C7.8,6.5,8,6.3,8,6V5c0-0.3-0.2-0.5-0.5-0.5S7,4.7,7,5v1C7,6.3,7.2,6.5,7.5,6.5z"/>
	</g>
</g>
<g id="Outline_Icons">
	<g>
		<path class="st2" d="M16.5,22.5c0-1.1-0.9-1-2-1h-6c-1.1,0-2-0.1-2,1v1h10V22.5z"/>
		<rect x="8.5" y="19.5" class="st2" width="6" height="2"/>
		<path class="st2" d="M2.5,13.5h18C20.5,21.5,2.5,21.6,2.5,13.5z"/>
		<path class="st2" d="M5,8.5h13C18,12.5,5,12.5,5,8.5z"/>
		<rect x="9.5" y="11.5" class="st2" width="4" height="2"/>
		<path class="st3" d="M15.5,3V2.5c0-1.1-0.9-2-2-2s-2,0.9-2,2V8"/>
		<path class="st3" d="M7.5,3V2.5c0-1.1,0.9-2,2-2s2,0.9,2,2v6"/>
		<line class="st3" x1="15.5" y1="5" x2="15.5" y2="6"/>
		<line class="st3" x1="7.5" y1="5" x2="7.5" y2="6"/>
	</g>
</g>
</svg>
