<?xml version="1.0" encoding="utf-8"?>
<!-- Generator: Adobe Illustrator 19.2.0, SVG Export Plug-In . SVG Version: 6.00 Build 0)  -->
<svg version="1.1" id="Layer_1" xmlns="http://www.w3.org/2000/svg" xmlns:xlink="http://www.w3.org/1999/xlink" x="0px" y="0px"
	 viewBox="0 0 24 24" style="enable-background:new 0 0 24 24;" xml:space="preserve">
<style type="text/css">
	.st0{display:none;}
	.st1{display:inline;}
	.st2{fill:none;stroke:#000000;stroke-linejoin:round;stroke-miterlimit:10;}
	.st3{fill:none;stroke:#000000;stroke-linecap:round;stroke-linejoin:round;stroke-miterlimit:10;}
</style>
<g id="Filled_Icons" class="st0">
	<g class="st1">
		<path d="M12.4,0.4c-0.2-0.3-0.7-0.3-0.8,0C11.2,1.1,7.5,7,7.5,9.3c0,2.4,1.9,4.2,4.5,4.2s4.5-1.8,4.5-4.2
			C16.5,7,12.8,1.1,12.4,0.4z M11.5,12C10.1,12,9,11,9,9.7c0-0.3,0.2-0.5,0.5-0.5S10,9.4,10,9.7c0,0.9,0.7,1.3,1.5,1.3
			c0.3,0,0.5,0.2,0.5,0.5S11.7,12,11.5,12z"/>
		<path d="M20.5,21h-6c-0.3,0-0.5,0.2-0.5,0.5v2c0,0.3,0.2,0.5,0.5,0.5h6c0.3,0,0.5-0.2,0.5-0.5v-2C21,21.2,20.8,21,20.5,21z"/>
		<path d="M9.5,21h-6C3.2,21,3,21.2,3,21.5v2C3,23.8,3.2,24,3.5,24h6c0.3,0,0.5-0.2,0.5-0.5v-2C10,21.2,9.8,21,9.5,21z"/>
		<path d="M23.7,6.5c-0.1,0-0.7-0.2-1.5,0.3c-1.1,0.8-1.7,2.8-1.7,6.1l-1.6,1.6l0.3-1.3c0.3-1.1-0.2-1.8-0.8-2
			c-0.5-0.2-1.3-0.1-1.8,0.7C15.9,13,15,15.9,15,16v0.1v4h5v-0.8c0.6-0.6,3.1-3.1,3.9-3.8c0.1-0.1,0.1-0.2,0.1-0.4V6.9
			C24,6.7,23.9,6.5,23.7,6.5z"/>
		<path d="M4,20h5v-4v-0.1c0-0.1-0.9-3-1.6-4.1c-0.5-0.8-1.3-0.9-1.8-0.7c-0.6,0.2-1,1-0.8,2l0.3,1.3l-1.6-1.6
			c0-3.2-0.6-5.3-1.7-6.1C1.1,6.2,0.4,6.4,0.3,6.5C0.1,6.5,0,6.7,0,6.9V15c0,0.2,0.1,0.3,0.2,0.4C1,16.1,3.4,18.6,4,19.2V20z"/>
	</g>
</g>
<g id="Outline_Icons">
	<g>
		<path class="st2" d="M16,9.3c0,2.2-1.8,3.7-4,3.7s-4-1.5-4-3.7s4-8.6,4-8.6S16,7.1,16,9.3z"/>
		<path class="st3" d="M12,11c-1.1,0-2-0.7-2-1.8"/>
		<rect x="14.5" y="20.5" class="st2" width="6" height="3"/>
		<path class="st3" d="M19.5,20.5V19c0,0,3.2-3.2,4-4c0-1.4,0-8.1,0-8.1S21,6,21,13l-3,3l0.7-3c0.3-1.4-1-2.1-1.7-0.9
			c-0.7,1-1.5,4-1.5,4v4.5"/>
		<rect x="3.5" y="20.5" class="st2" width="6" height="3"/>
		<path class="st3" d="M4.5,20.5V19c0,0-3-3.2-4-4c0-1.4,0-8.1,0-8.1S3,6,3,13l3,3l-0.7-3c-0.3-1.4,1-2.1,1.7-0.9c0.7,1,1.5,4,1.5,4
			v4.5"/>
	</g>
</g>
</svg>
