<?xml version="1.0" encoding="utf-8"?>
<!-- Generator: Adobe Illustrator 19.2.0, SVG Export Plug-In . SVG Version: 6.00 Build 0)  -->
<svg version="1.1" id="Layer_1" xmlns="http://www.w3.org/2000/svg" xmlns:xlink="http://www.w3.org/1999/xlink" x="0px" y="0px"
	 viewBox="0 0 24 24" style="enable-background:new 0 0 24 24;" xml:space="preserve">
<style type="text/css">
	.st0{display:none;}
	.st1{display:inline;}
	.st2{fill:none;stroke:#000000;stroke-linejoin:round;stroke-miterlimit:10;}
	.st3{fill:none;stroke:#000000;stroke-linecap:round;stroke-linejoin:round;stroke-miterlimit:10;}
</style>
<g id="Filled_Icons" class="st0">
	<g class="st1">
		<path d="M12,16.5c3,0,5.5-2.5,5.5-5.5c0-2.9-4.9-10-5.1-10.3c-0.2-0.3-0.6-0.3-0.8,0S6.5,8.1,6.5,11C6.5,14,9,16.5,12,16.5z
			 M9,10.5c0.3,0,0.5,0.2,0.5,0.5c0,1,0.8,1.8,1.8,1.8c0.3,0,0.5,0.2,0.5,0.5s-0.2,0.5-0.5,0.5c-1.6,0-2.8-1.3-2.8-2.8
			C8.5,10.7,8.7,10.5,9,10.5z"/>
		<path d="M12,20c2.7,0,5.4-0.8,7.3-2.1c0.2-0.2,0.3-0.5,0.1-0.7c-0.2-0.2-0.5-0.3-0.7-0.1C17,18.3,14.5,19,12,19
			c-2.6,0-5-0.7-6.7-1.9C5,16.9,4.7,17,4.6,17.2c-0.2,0.2-0.1,0.5,0.1,0.7C6.6,19.2,9.2,20,12,20z"/>
		<path d="M23.3,18.8c-0.2-0.2-0.5-0.2-0.7-0.1C20,20.8,16.2,22,12,22s-8.1-1.2-10.7-3.4c-0.2-0.2-0.5-0.1-0.7,0.1s-0.1,0.5,0.1,0.7
			C3.5,21.7,7.6,23,12,23s8.5-1.3,11.3-3.6C23.5,19.3,23.5,19,23.3,18.8z"/>
	</g>
</g>
<g id="Outline_Icons">
	<g>
		<path class="st2" d="M17,11c0,2.8-2.2,5-5,5s-5-2.2-5-5s5-10,5-10S17,8.2,17,11z"/>
		<path class="st3" d="M12,13c-1.3,0-2.3-1-2.3-2.3"/>
		<path class="st3" d="M19,17.5c-1.7,1.2-4.2,2-7,2s-5.3-0.8-7-2"/>
		<path class="st3" d="M22.9,19.1c-2.6,2.1-6.5,3.4-10.9,3.4S3.6,21.1,1,19"/>
	</g>
</g>
</svg>
