<?xml version="1.0" encoding="utf-8"?>
<!-- Generator: Adobe Illustrator 19.2.0, SVG Export Plug-In . SVG Version: 6.00 Build 0)  -->
<svg version="1.1" id="Layer_1" xmlns="http://www.w3.org/2000/svg" xmlns:xlink="http://www.w3.org/1999/xlink" x="0px" y="0px"
	 viewBox="0 0 24 24" style="enable-background:new 0 0 24 24;" xml:space="preserve">
<style type="text/css">
	.st0{display:none;}
	.st1{display:inline;}
	.st2{fill:none;stroke:#000000;stroke-linecap:round;stroke-linejoin:round;stroke-miterlimit:10;}
</style>
<g id="Filled_Icons" class="st0">
	<path class="st1" d="M18.5,4h-5C10.4,4,8,5.5,8,7.5v7.9L3,5.2l1.3-0.7c0.2-0.1,0.3-0.4,0.2-0.7C4.4,3.6,4.1,3.5,3.9,3.6L2.1,4.5
		L0.3,5.4C0,5.5-0.1,5.8,0.1,6.1c0.1,0.2,0.4,0.3,0.7,0.2l1.3-0.7l5.9,12v0.9c0,1.4,1.1,2.5,2.5,2.5h6c1.4,0,2.5-1.1,2.5-2.5V15
		c2.8-0.3,5-2.6,5-5.5C24,6.5,21.5,4,18.5,4z M19,14V7.5C19,7.2,18.8,7,18.5,7h-2.7l-1.3-2h4.1C21,5,23,7,23,9.5
		C23,11.8,21.2,13.7,19,14z"/>
</g>
<g id="Outline_Icons">
	<g>
		<path class="st2" d="M8.5,7.5c0-1.7,2.2-3,5-3l2,3h3v11c0,1.1-0.9,2-2,2h-6c-1.1,0-2-0.9-2-2V7.5z"/>
		<path class="st2" d="M18.5,14.5c2.8,0,5-2.2,5-5s-2.2-5-5-5h-5"/>
		<line class="st2" x1="8.5" y1="17.5" x2="2.3" y2="5"/>
		<line class="st2" x1="0.5" y1="5.8" x2="4.1" y2="4.1"/>
	</g>
</g>
</svg>
