<?xml version="1.0" encoding="utf-8"?>
<!-- Generator: Adobe Illustrator 19.2.0, SVG Export Plug-In . SVG Version: 6.00 Build 0)  -->
<svg version="1.1" id="Layer_1" xmlns="http://www.w3.org/2000/svg" xmlns:xlink="http://www.w3.org/1999/xlink" x="0px" y="0px"
	 viewBox="0 0 24 24" style="enable-background:new 0 0 24 24;" xml:space="preserve">
<style type="text/css">
	.st0{display:none;}
	.st1{display:inline;}
	.st2{fill:none;stroke:#000000;stroke-linejoin:round;stroke-miterlimit:10;}
</style>
<g id="Filled_Icons" class="st0">
	<g class="st1">
		<path d="M19.6,0.1c-0.2-0.2-0.5-0.2-0.7,0l-1.8,1.8c5.3,4.8,4.9,11.9,0.7,16c-2.1,2.1-4.9,3.2-7.7,3.2c-2.8,0-5.5-1.1-7.7-3.2
			c-0.1-0.1-0.7-0.7-0.7-0.7l-1.8,1.8c-0.2,0.2-0.2,0.5,0,0.7C2.7,22.5,6.6,24,10.2,24c3.7,0,7.1-1.4,9.7-4c2.6-2.6,4-6.1,4-9.7
			C24,6.1,22.2,2.4,19.6,0.1z"/>
		<path d="M2.6,16.5c0,0,0.6,0.6,0.6,0.7c3.8,3.8,10.1,3.8,13.9,0c3.7-3.7,4.2-10.1-0.7-14.5L2.6,16.5z M7.8,17.6
			c-0.5,0-1-0.7-1-1.5c0-0.8,0.4-1.5,1-1.5c0.5,0,1,0.7,1,1.5C8.8,17,8.3,17.6,7.8,17.6z M14.4,14.4c-0.4,0.4-1.2,0.2-1.7-0.3
			c-0.6-0.6-0.7-1.4-0.3-1.7s1.2-0.2,1.7,0.3C14.6,13.2,14.8,14,14.4,14.4z M17.6,7.8c0,0.5-0.7,1-1.5,1c-0.8,0-1.5-0.4-1.5-1
			c0-0.5,0.7-1,1.5-1S17.6,7.2,17.6,7.8z"/>
	</g>
</g>
<g id="Outline_Icons">
	<g>
		<path class="st2" d="M17.2,2.6c0.1,0.1,0.2,0.2,0.4,0.3c4,4,4,10.6,0,14.6s-10.6,4-14.6,0c-0.1-0.1-0.2-0.2-0.3-0.4l-2.1,2.1
			c0.1,0.1,0.2,0.2,0.3,0.4c5.2,5.2,13.6,5.2,18.8,0c5.2-5.2,5.2-13.6,0-18.8c-0.1-0.1-0.2-0.2-0.4-0.3L17.2,2.6z"/>
		<line class="st2" x1="2.2" y1="17.5" x2="17.5" y2="2.2"/>
		<ellipse transform="matrix(0.707 -0.7073 0.7073 0.707 -5.5299 13.3562)" class="st2" cx="13.4" cy="13.4" rx="1" ry="1.5"/>
		<ellipse class="st2" cx="16.1" cy="7.8" rx="1.5" ry="1"/>
		<ellipse class="st2" cx="7.8" cy="16.1" rx="1" ry="1.5"/>
	</g>
</g>
</svg>
