<?xml version="1.0" encoding="utf-8"?>
<!-- Generator: Adobe Illustrator 19.2.0, SVG Export Plug-In . SVG Version: 6.00 Build 0)  -->
<svg version="1.1" id="Layer_1" xmlns="http://www.w3.org/2000/svg" xmlns:xlink="http://www.w3.org/1999/xlink" x="0px" y="0px"
	 viewBox="0 0 24 24" style="enable-background:new 0 0 24 24;" xml:space="preserve">
<style type="text/css">
	.st0{display:none;}
	.st1{display:inline;}
	.st2{fill:none;stroke:#000000;stroke-linejoin:round;stroke-miterlimit:10;}
	.st3{fill:none;stroke:#000000;stroke-linecap:round;stroke-linejoin:round;stroke-miterlimit:10;}
</style>
<g id="Filled_Icon" class="st0">
	<g class="st1">
		<path d="M0.8,15c1.5,0.3,3-1.5,3-1.5c0.6-0.8,1.9-0.7,2.5,0.1c0,0,0.9,1.4,2.3,1.4c1.5,0,2.3-1.3,2.3-1.3c0.3-0.5,0.8-0.8,1.3-0.8
			s1,0.3,1.3,0.7c0,0,0.9,1.4,2.3,1.4c1.5,0,2.3-1.3,2.3-1.3c0.3-0.5,0.8-0.8,1.3-0.8s1,0.3,1.3,0.7c0,0.1,1.1,1.6,2.5,1.3
			c0.3-0.1,0.5,0,0.8,0.1v-2.6c0-0.1-0.1-0.3-0.2-0.4c-0.1-0.1-0.3-0.1-0.4-0.1c-2.1,0.4-3.5-1.7-3.5-1.8c-0.2-0.3-0.7-0.3-0.9,0
			c0,0-1.1,1.8-3.2,1.8c-2,0-3.2-1.8-3.2-1.8c-0.2-0.3-0.7-0.3-0.9,0c0,0-1.1,1.8-3.2,1.8c-2,0-3.2-1.8-3.2-1.8
			c-0.2-0.3-0.6-0.3-0.8,0c0,0-1.9,2.3-4,1.8c-0.1,0-0.3,0-0.4,0.1c0,0.2-0.1,0.3-0.1,0.5v2.6C0.3,15,0.5,15,0.8,15z"/>
		<path d="M0.8,19.1c1.2,0.3,2.6-1,3-1.5c0.6-0.8,1.9-0.7,2.5,0.1c0,0,0.9,1.3,2.3,1.3c1.5,0,2.3-1.3,2.3-1.3
			c0.3-0.4,0.8-0.7,1.3-0.7s1,0.3,1.3,0.7c0,0,0.9,1.3,2.3,1.3c1.5,0,2.3-1.3,2.3-1.3c0.3-0.5,0.8-0.8,1.3-0.8s1,0.3,1.3,0.7
			c0,0,1.1,1.6,2.5,1.3c0.3-0.1,0.5,0,0.8,0.1v-2.6c0-0.1-0.1-0.3-0.2-0.4s-0.3-0.1-0.4-0.1c-2.1,0.4-3.5-1.7-3.5-1.8
			c-0.2-0.3-0.7-0.3-0.9,0c0,0-1.1,1.8-3.2,1.8c-2,0-3.2-1.8-3.2-1.8c-0.2-0.3-0.7-0.3-0.9,0c0,0-1.1,1.8-3.2,1.8
			c-2,0-3.2-1.8-3.2-1.8c-0.2-0.3-0.6-0.3-0.8,0c0,0-1.9,2.3-4,1.8c-0.1,0-0.3,0-0.4,0.1c0,0.2-0.1,0.3-0.1,0.5v2.6
			C0.3,19,0.5,19,0.8,19.1z"/>
		<path d="M23.8,20.1C23.7,20,23.5,20,23.4,20c-0.2,0-0.4,0-0.6,0c-1.8,0-2.9-1.8-3-1.8c-0.2-0.3-0.7-0.3-0.9,0c0,0-1.1,1.8-3.2,1.8
			c-2,0-3.2-1.8-3.2-1.8c-0.2-0.3-0.7-0.3-0.9,0c0,0.1-1.1,1.8-3.2,1.8c-2,0-3.2-1.8-3.2-1.8c-0.2-0.3-0.6-0.3-0.8,0
			c0,0-1.5,1.9-3.4,1.9c-0.2,0-0.4,0-0.6-0.1c-0.1,0-0.3,0-0.4,0.1c0.1,0.1,0,0.2,0,0.4v3c0,0.1,0.1,0.3,0.1,0.4
			c0.1,0,0.3,0.1,0.4,0.1h23c0.3,0,0.5-0.2,0.5-0.5v-3C24,20.3,23.9,20.2,23.8,20.1z"/>
		<g>
			<path d="M18.3,3.6l-2.5-2.5c0,0-0.1-0.1-0.2-0.1c-0.1,0-0.3,0-0.4,0c-0.1,0-0.1,0.1-0.2,0.1l-2.5,2.5c-0.2,0.2-0.2,0.5,0,0.7
				s0.5,0.2,0.7,0L15,2.7v6.8c0,0.3,0.2,0.5,0.5,0.5S16,9.8,16,9.5V2.7l1.6,1.6c0.1,0.1,0.2,0.1,0.4,0.1c0.1,0,0.3,0,0.4-0.1
				C18.5,4.1,18.5,3.8,18.3,3.6z"/>
			<path d="M8.8,1.1c0,0-0.1-0.1-0.2-0.1c0,0-0.2,0-0.3,0C8.2,1,8.2,1.1,8.1,1.1L5.6,3.6c-0.2,0.2-0.2,0.5,0,0.7s0.5,0.2,0.7,0
				L8,2.7v6.8C8,9.8,8.2,10,8.5,10S9,9.8,9,9.5V2.7l1.6,1.6c0.1,0.1,0.2,0.1,0.4,0.1c0.1,0,0.3,0,0.4-0.1c0.2-0.2,0.2-0.5,0-0.7
				L8.8,1.1z"/>
		</g>
	</g>
</g>
<g id="Outline_Icons">
	<g>
		<path class="st2" d="M23.5,23.5v-3c-2.5,0.5-4.1-2-4.1-2l0,0c0,0-1.2,2.1-3.6,2.1c-2.3,0-3.6-2.1-3.6-2.1l0,0c0,0-1.2,2.1-3.6,2.1
			c-2.3,0-3.6-2.1-3.6-2.1l0,0c0,0-2,2.5-4.5,2v3H23.5z"/>
		<path class="st2" d="M23.5,20.5v-4c-2.5,0.5-4.1-2-4.1-2l0,0c0,0-1.2,2.1-3.6,2.1c-2.3,0-3.6-2.1-3.6-2.1l0,0c0,0-1.2,2.1-3.6,2.1
			c-2.3,0-3.6-2.1-3.6-2.1l0,0c0,0-2,2.5-4.5,2v4"/>
		<path class="st2" d="M23.5,16.5v-4c-2.5,0.5-4.1-2-4.1-2l0,0c0,0-1.2,2.1-3.6,2.1c-2.3,0-3.6-2.1-3.6-2.1l0,0c0,0-1.2,2.1-3.6,2.1
			c-2.3,0-3.6-2.1-3.6-2.1l0,0c0,0-2,2.5-4.5,2v4"/>
		<line class="st3" x1="15.5" y1="1.5" x2="15.5" y2="9.5"/>
		<polyline class="st3" points="13,4 15.5,1.5 18,4 		"/>
		<line class="st3" x1="8.5" y1="1.5" x2="8.5" y2="9.5"/>
		<polyline class="st3" points="6,4 8.5,1.5 11,4 		"/>
	</g>
</g>
</svg>
