<?xml version="1.0" encoding="utf-8"?>
<!-- Generator: Adobe Illustrator 19.2.0, SVG Export Plug-In . SVG Version: 6.00 Build 0)  -->
<svg version="1.1" id="Layer_1" xmlns="http://www.w3.org/2000/svg" xmlns:xlink="http://www.w3.org/1999/xlink" x="0px" y="0px"
	 viewBox="0 0 24 24" style="enable-background:new 0 0 24 24;" xml:space="preserve">
<style type="text/css">
	.st0{display:none;}
	.st1{display:inline;}
	.st2{fill:none;stroke:#000000;stroke-linejoin:round;stroke-miterlimit:10;}
	.st3{fill:none;stroke:#000000;stroke-linecap:round;stroke-linejoin:round;stroke-miterlimit:10;}
</style>
<g id="Filled_Icons" class="st0">
	<path class="st1" d="M21.3,20C21.3,20,21.3,19.9,21.3,20c0.4-3.7-2.3-9-2.3-14.4l0.7-2.4c0.1-0.4-0.1-0.8-0.5-1
		c-0.3-0.2-0.8-0.2-1.1,0L13.9,5H7.5C7.2,5,7,5.2,7,5.5C7,6.3,6.9,7.2,6.8,8H4.5C3.1,8,2,9.1,2,10.5V15c0,0.3,0.2,0.5,0.5,0.5
		S3,15.3,3,15v-4.5C3,9.7,3.7,9,4.5,9h2.2c-0.7,4.1-2.5,8.3-2.2,10.9c0.1,0.9,0.4,1.7,0.9,2.4c0.9,1,2.1,1.6,3.5,1.6h8
		c1.3,0,2.6-0.6,3.4-1.6C20.9,21.7,21.2,20.9,21.3,20z M8,6h6c0.1,0,0.2,0,0.3-0.1l4.5-3c0,0.1-0.8,2.4-0.8,2.5
		c0,2.9,0.7,5.7,1.4,8.2c0.3,1.1,0.6,2.2,0.8,3.3H5.7c0.2-1,0.5-2,0.8-3.1C7.2,11.5,7.9,8.8,8,6z"/>
</g>
<g id="Outline_Icons">
	<g>
		<path class="st2" d="M7.5,5.5H14l4.4-2.9c0.2-0.1,0.4-0.1,0.6,0c0.2,0.1,0.3,0.3,0.2,0.5l-0.7,2.4c0,6.8,4.1,13.4,1.5,16.6
			c-0.8,0.9-1.9,1.4-3.1,1.4h-8c-1.2,0-2.3-0.5-3.1-1.5C3.1,18.8,7.5,12.3,7.5,5.5z"/>
		<path class="st3" d="M2.5,15v-4.5c0-1.1,0.9-2,2-2h2.8"/>
		<line class="st2" x1="5.1" y1="17.5" x2="20.7" y2="17.5"/>
	</g>
</g>
</svg>
