<?xml version="1.0" encoding="utf-8"?>
<!-- Generator: Adobe Illustrator 19.2.0, SVG Export Plug-In . SVG Version: 6.00 Build 0)  -->
<svg version="1.1" id="Layer_1" xmlns="http://www.w3.org/2000/svg" xmlns:xlink="http://www.w3.org/1999/xlink" x="0px" y="0px"
	 viewBox="0 0 24 24" style="enable-background:new 0 0 24 24;" xml:space="preserve">
<style type="text/css">
	.st0{display:none;}
	.st1{display:inline;}
	.st2{fill:none;stroke:#000000;stroke-linecap:round;stroke-linejoin:round;stroke-miterlimit:10;}
</style>
<g id="Filled_Icons" class="st0">
	<g class="st1">
		<path d="M20,7h2c0.3,0,0.5-0.2,0.5-0.5S22.3,6,22,6h-2c-0.3,0-0.5,0.2-0.5,0.5S19.7,7,20,7z"/>
		<path d="M12,2H4.5C2,2,0,4,0,6.5C0,7.9,0.7,9.2,1.7,10H12V2z"/>
		<path d="M18.9,8.3C19,8.2,19,8.1,19,8V5c0-0.1,0-0.2-0.1-0.3c-1.3-1.6-2.7-2.7-5-2.7H13v8h4C17.5,10,18.6,8.8,18.9,8.3z"/>
		<path d="M21.5,10h-2c-0.3,0-0.5,0.2-0.5,0.5V12h-3v-1H2v3.5C2,14.8,2.2,15,2.5,15H13c0,0.6,0.2,1.7,1,2.5c0.6,0.6,1.4,1,2.5,1
			c0.3,0,0.5-0.2,0.5-0.5s-0.2-0.5-0.5-0.5c-0.8,0-1.3-0.2-1.8-0.7c-0.5-0.6-0.7-1.3-0.7-1.8h1.5c0.3,0,0.5-0.2,0.5-0.5V13h3v1.5
			c0,0.3,0.2,0.5,0.5,0.5h2c1.4,0,2.5-1.1,2.5-2.5C24,11.1,22.9,10,21.5,10z"/>
		<path d="M3,21.3c-0.1,0.2,0,0.3,0,0.5C3.2,21.9,3.3,22,3.5,22h6c0.2,0,0.4-0.1,0.5-0.3l2.4-5.7H5.3L3,21.3z"/>
	</g>
</g>
<g id="Outline_Icons">
	<g>
		<rect x="2.5" y="10.5" class="st2" width="13" height="4"/>
		<line class="st2" x1="15.5" y1="12.5" x2="19.5" y2="12.5"/>
		<path class="st2" d="M23.5,12.5c0,1.1-0.9,2-2,2h-2v-4h2C22.6,10.5,23.5,11.4,23.5,12.5z"/>
		<path class="st2" d="M12.5,10.5h-8c-2.2,0-4-1.8-4-4s1.8-4,4-4h8V10.5z"/>
		<path class="st2" d="M12.5,10.5h1.4c1.7,0,3.2-0.8,4.3-2.1L18.5,8V5l-0.4-0.4c-1-1.3-2.6-2.1-4.3-2.1h-1.4V10.5z"/>
		<polygon class="st2" points="12.5,14.5 6.5,14.5 3.5,21.5 9.5,21.5 		"/>
		<path class="st2" d="M13,14.5c0,0-0.2,3.5,3,3.5"/>
		<line class="st2" x1="20" y1="6.5" x2="22" y2="6.5"/>
	</g>
</g>
</svg>
