<?xml version="1.0" encoding="utf-8"?>
<!-- Generator: Adobe Illustrator 19.2.0, SVG Export Plug-In . SVG Version: 6.00 Build 0)  -->
<svg version="1.1" id="Layer_1" xmlns="http://www.w3.org/2000/svg" xmlns:xlink="http://www.w3.org/1999/xlink" x="0px" y="0px"
	 viewBox="0 0 24 24" style="enable-background:new 0 0 24 24;" xml:space="preserve">
<style type="text/css">
	.st0{display:none;}
	.st1{display:inline;}
	.st2{fill:none;stroke:#000000;stroke-linecap:round;stroke-linejoin:round;stroke-miterlimit:10;}
</style>
<g id="Filled_Icons" class="st0">
	<path class="st1" d="M23,11.5h-4.8l-1.8-4.4c-0.2-0.4-0.6-0.7-1-0.6c-0.4,0-0.8,0.4-0.9,0.8L12.6,16L10.5,2.3
		C10.4,1.9,10,1.5,9.6,1.5c-0.5,0-0.9,0.3-1,0.7l-2.8,9.3H1c-0.6,0-1,0.4-1,1c0,0.6,0.4,1,1,1h5.5c0.4,0,0.8-0.3,1-0.7L9.2,7
		l2.3,14.7c0.1,0.5,0.5,0.8,1,0.8c0,0,0,0,0,0c0.5,0,0.9-0.3,1-0.8l2.3-10.8l0.8,2c0.2,0.4,0.5,0.6,0.9,0.6H23c0.6,0,1-0.4,1-1
		C24,11.9,23.6,11.5,23,11.5z"/>
</g>
<g id="Outline_Icons">
	<g>
		<polyline class="st2" points="0.5,12.5 6.5,12.5 9.5,2.5 12.5,21.5 15.5,7.5 17.5,12.5 23.5,12.5 		"/>
	</g>
</g>
</svg>
