<?xml version="1.0" encoding="utf-8"?>
<!-- Generator: Adobe Illustrator 19.2.0, SVG Export Plug-In . SVG Version: 6.00 Build 0)  -->
<svg version="1.1" id="Layer_1" xmlns="http://www.w3.org/2000/svg" xmlns:xlink="http://www.w3.org/1999/xlink" x="0px" y="0px"
	 viewBox="0 0 24 24" style="enable-background:new 0 0 24 24;" xml:space="preserve">
<style type="text/css">
	.st0{display:none;}
	.st1{display:inline;}
	.st2{fill:none;stroke:#000000;stroke-linejoin:round;stroke-miterlimit:10;}
	.st3{fill:none;stroke:#000000;stroke-linecap:round;stroke-linejoin:round;stroke-miterlimit:10;}
</style>
<g id="Filled_Icons" class="st0">
	<g class="st1">
		<path d="M14.2,3.9c0.8-0.8,2-1.4,3.2-1.4c1.2,0,2.3,0.5,3.1,1.3l1.4-2c0.1-0.2,0.1-0.4,0-0.6C21.8,1.1,21.6,1,21.4,1l-1.9,0.3
			l-1.8-1.3c-0.2-0.1-0.4-0.1-0.6,0l-1.8,1.3L13.6,1c-0.2,0-0.4,0-0.5,0.2c-0.1,0.2-0.1,0.4,0,0.5L14.2,3.9z"/>
		<path d="M22.5,9.8l-1.8-4.2c-0.5-1.3-1.8-2.1-3.2-2.1C15.6,3.5,14,5,14,6.9c0,1.4-1.6,2.5-3,2.5c-3.4,0-7-5.7-7.1-5.8
			C3.8,3.5,3.6,3.4,3.4,3.5C3.1,3.6,3,3.8,3,4v4.5h2.5C5.8,8.5,6,8.7,6,9c0,0.3-0.2,0.5-0.5,0.5H3V10c0,0.2,0,0.3,0,0.5l3.5,0
			C6.8,10.5,7,10.7,7,11s-0.2,0.5-0.5,0.5l-3.4,0c0.1,0.4,0.1,0.7,0.2,1h4.1C7.8,12.5,8,12.7,8,13c0,0.3-0.2,0.5-0.5,0.5H3.8
			c1.3,2.8,4,4.7,7.2,4.9V20l-2.9,0l-1.1-1.8C6.8,18.1,6.7,18,6.5,18h-4c-0.2,0-0.3,0.1-0.4,0.2c-0.1,0.1-0.1,0.3,0,0.5L2.7,20L2,20
			h0c-0.3,0-0.5,0.2-0.5,0.5C1.5,20.8,1.7,21,2,21l0.7,0l-0.6,1.3c-0.1,0.2-0.1,0.3,0,0.5C2.2,22.9,2.3,23,2.5,23h4
			c0.2,0,0.3-0.1,0.4-0.2L8,21l3,0v2.5c0,0.3,0.2,0.5,0.5,0.5s0.5-0.2,0.5-0.5V21l6.1,0l-1.3,1.1c-0.2,0.2-0.3,0.5-0.1,0.7
			c0.1,0.1,0.2,0.2,0.4,0.2c0.1,0,0.2,0,0.3-0.1l2.5-2c0.3-0.2,0.2-0.6,0-0.8l-2.5-2c-0.2-0.2-0.5-0.1-0.7,0.1
			c-0.2,0.2-0.1,0.5,0.1,0.7l1.4,1.1L12,20v-1.6c4.1-0.3,7.7-3.8,8-8h2c0.2,0,0.3-0.1,0.4-0.2C22.5,10.1,22.5,9.9,22.5,9.8z M6.2,19
			l0.6,1H3.8l-0.5-1H6.2z M6.2,22H3.3l0.5-1l3.1,0L6.2,22z M17.5,8.7c-0.8,0-1.5-0.7-1.5-1.5c0-0.8,0.7-1.5,1.5-1.5S19,6.4,19,7.2
			C19,8.1,18.3,8.7,17.5,8.7z"/>
	</g>
</g>
<g id="Outline_Icons">
	<g>
		<path class="st2" d="M3.5,9.5c0,4.4,3.6,8,8,8s8-4,8-8H22l-1.8-4.2c-0.5-1.1-1.5-1.8-2.7-1.8c-1.6,0-3,1.3-3,3c0,1.7-1.8,3-3.5,3
			c-3.7,0-7.5-6-7.5-6V9.5z"/>
		<line class="st3" x1="11.5" y1="23.5" x2="11.5" y2="17.5"/>
		<line class="st3" x1="2" y1="20.5" x2="19.5" y2="20.5"/>
		<polyline class="st3" points="17,18.5 19.5,20.5 17,22.5 		"/>
		<polygon class="st3" points="7.8,20.5 6.5,18.5 2.5,18.5 3.5,20.5 		"/>
		<polygon class="st3" points="7.8,20.5 6.5,22.5 2.5,22.5 3.5,20.5 		"/>
		<polyline class="st2" points="15.2,4.5 13.5,1.6 15.5,1.9 17.5,0.5 19.5,1.9 21.5,1.5 19.6,4.4 		"/>
		<line class="st3" x1="3.5" y1="8.5" x2="5.5" y2="8.5"/>
		<line class="st3" x1="3.6" y1="10.5" x2="6.5" y2="10.5"/>
		<line class="st3" x1="4.1" y1="12.5" x2="7.5" y2="12.5"/>
		<circle class="st3" cx="17.5" cy="6.8" r="1"/>
	</g>
</g>
</svg>
