<?xml version="1.0" encoding="utf-8"?>
<!-- Generator: Adobe Illustrator 19.2.0, SVG Export Plug-In . SVG Version: 6.00 Build 0)  -->
<svg version="1.1" id="Layer_1" xmlns="http://www.w3.org/2000/svg" xmlns:xlink="http://www.w3.org/1999/xlink" x="0px" y="0px"
	 viewBox="0 0 24 24" style="enable-background:new 0 0 24 24;" xml:space="preserve">
<style type="text/css">
	.st0{display:none;}
	.st1{display:inline;}
	.st2{fill:none;stroke:#000000;stroke-linecap:round;stroke-linejoin:round;stroke-miterlimit:10;}
</style>
<g id="Filled_Icons" class="st0">
	<g class="st1">
		<path d="M23.9,23.1L19,18.3c2.1-1.9,3.5-4.7,3.5-7.8C22.5,4.7,17.8,0,12,0C6.2,0,1.5,4.7,1.5,10.5c0,3.1,1.4,5.9,3.5,7.8l-4.8,4.8
			c-0.2,0.2-0.2,0.5,0,0.7C0.2,24,0.4,24,0.5,24c0.1,0,0.3,0,0.4-0.1l4.9-4.9C7.5,20.2,9.7,21,12,21c2.3,0,4.5-0.8,6.2-2.1l4.9,4.9
			c0.1,0.1,0.2,0.1,0.4,0.1c0.1,0,0.3,0,0.4-0.1C24,23.7,24,23.3,23.9,23.1z M12,3c0.6,0,1,0.4,1,1c0,0.6-0.4,1-1,1
			c-0.6,0-1-0.4-1-1C11,3.4,11.4,3,12,3z M12,15c-2.5,0-4.5-2-4.5-4.5C7.5,8,9.5,6,12,6c2.5,0,4.5,2,4.5,4.5C16.5,13,14.5,15,12,15z
			"/>
		<path d="M11.5,8c-1.1,0-2,0.9-2,2c0,0.3,0.2,0.5,0.5,0.5c0.3,0,0.5-0.2,0.5-0.5c0-0.6,0.4-1,1-1C11.8,9,12,8.8,12,8.5
			C12,8.2,11.8,8,11.5,8z"/>
	</g>
</g>
<g id="Outline_Icons">
	<g>
		<line class="st2" x1="0.5" y1="23.5" x2="5.7" y2="18.3"/>
		<line class="st2" x1="23.5" y1="23.5" x2="18.3" y2="18.3"/>
		<circle class="st2" cx="12" cy="10.5" r="10"/>
		<circle class="st2" cx="12" cy="10.5" r="4"/>
		<path class="st2" d="M10,10c0-0.8,0.7-1.5,1.5-1.5"/>
		<circle class="st2" cx="12" cy="4" r="0.5"/>
	</g>
</g>
</svg>
