<?xml version="1.0" encoding="utf-8"?>
<!-- Generator: Adobe Illustrator 19.2.0, SVG Export Plug-In . SVG Version: 6.00 Build 0)  -->
<svg version="1.1" id="Layer_1" xmlns="http://www.w3.org/2000/svg" xmlns:xlink="http://www.w3.org/1999/xlink" x="0px" y="0px"
	 viewBox="0 0 24 24" style="enable-background:new 0 0 24 24;" xml:space="preserve">
<style type="text/css">
	.st0{display:none;}
	.st1{display:inline;}
	.st2{fill:none;stroke:#000000;stroke-linejoin:round;stroke-miterlimit:10;}
	.st3{fill:none;stroke:#000000;stroke-linecap:round;stroke-linejoin:round;stroke-miterlimit:10;}
</style>
<g id="Filled_Icons" class="st0">
	<g class="st1">
		<path d="M19.1,21C19.1,21,19,21,19.1,21c-1.3,0-2.4-0.4-3.3-1L15,23.4c0,0.1,0,0.3,0.1,0.4c0.1,0.1,0.2,0.2,0.4,0.2h7
			c0.2,0,0.3-0.1,0.4-0.2c0.1-0.1,0.1-0.3,0.1-0.4L22.2,20C21.3,20.6,20.2,21,19.1,21z"/>
		<path d="M17,9.4V5.5c0-0.1-0.1-0.3-0.1-0.4l-5-5C11.8,0.1,11.6,0,11.5,0h-11C0.2,0,0,0.2,0,0.5v21C0,21.8,0.2,22,0.5,22h13.8
			l0.6-2.6c-1.1-1.1-1.9-2.6-1.9-4.3c0-1.6,0.6-3.1,1.7-4.3C15.4,10.1,16.1,9.7,17,9.4z M4,8h5c0.3,0,0.5,0.2,0.5,0.5S9.3,9,9,9H4
			C3.7,9,3.5,8.8,3.5,8.5S3.7,8,4,8z M11,18H4c-0.3,0-0.5-0.2-0.5-0.5S3.7,17,4,17h7c0.3,0,0.5,0.2,0.5,0.5S11.3,18,11,18z M11,15H4
			c-0.3,0-0.5-0.2-0.5-0.5S3.7,14,4,14h7c0.3,0,0.5,0.2,0.5,0.5C11.5,14.8,11.3,15,11,15z M11,12H4c-0.3,0-0.5-0.2-0.5-0.5
			S3.7,11,4,11h7c0.3,0,0.5,0.2,0.5,0.5S11.3,12,11,12z M12,5.5c-0.3,0-0.5-0.2-0.5-0.5V0.8l4.7,4.7C16.2,5.5,12,5.5,12,5.5z"/>
		<path d="M19,10c-1.3,0-2.6,0.5-3.5,1.5c-0.9,1-1.4,2.2-1.4,3.6c0,2.7,2.3,5,5,5c0,0,0,0,0,0c2.8,0,5-2.3,5-5.1
			C24,12.2,21.7,10,19,10z M19.3,17.6c-0.1,0.1-0.2,0.1-0.3,0.1s-0.2,0-0.3-0.1c-0.4-0.3-2.4-1.8-2.4-3.2c0-1.1,0.8-1.7,1.6-1.7
			c0.4,0,0.8,0.1,1.1,0.5c0.3-0.4,0.7-0.5,1.1-0.5c0.8,0,1.6,0.6,1.6,1.7C21.7,15.7,19.7,17.3,19.3,17.6z"/>
	</g>
</g>
<g id="Outline_Icons">
	<g>
		<path class="st2" d="M19,17.1c0,0,2.2-1.6,2.2-2.8c0-1.4-1.8-1.8-2.2-0.1c-0.4-1.7-2.2-1.2-2.2,0.1C16.8,15.5,19,17.1,19,17.1z"/>
		<polyline class="st2" points="13,21.5 0.5,21.5 0.5,0.5 11.5,0.5 16.5,5.5 16.5,9 		"/>
		<polyline class="st3" points="11.5,1 11.5,5.5 16,5.5 		"/>
		<circle class="st3" cx="19" cy="15" r="4.5"/>
		<polyline class="st3" points="21.5,18.8 22.5,23.5 15.5,23.5 16.6,18.8 		"/>
		<line class="st3" x1="4" y1="8.5" x2="9" y2="8.5"/>
		<line class="st3" x1="4" y1="11.5" x2="11" y2="11.5"/>
		<line class="st3" x1="4" y1="14.5" x2="11" y2="14.5"/>
		<line class="st3" x1="4" y1="17.5" x2="11" y2="17.5"/>
	</g>
</g>
</svg>
