<?xml version="1.0" encoding="utf-8"?>
<!-- Generator: Adobe Illustrator 19.2.0, SVG Export Plug-In . SVG Version: 6.00 Build 0)  -->
<svg version="1.1" id="Layer_1" xmlns="http://www.w3.org/2000/svg" xmlns:xlink="http://www.w3.org/1999/xlink" x="0px" y="0px"
	 viewBox="0 0 24 24" style="enable-background:new 0 0 24 24;" xml:space="preserve">
<style type="text/css">
	.st0{display:none;}
	.st1{display:inline;}
	.st2{fill:none;stroke:#000000;stroke-linecap:round;stroke-linejoin:round;stroke-miterlimit:10;}
	.st3{fill:none;stroke:#000000;stroke-linejoin:round;stroke-miterlimit:10;}
</style>
<g id="Filled_Icons" class="st0">
	<g class="st1">
		<g>
			<g>
				<path d="M23.5,24h-23C0.2,24,0,23.8,0,23.5S0.2,23,0.5,23h23c0.3,0,0.5,0.2,0.5,0.5S23.8,24,23.5,24z"/>
			</g>
		</g>
		<path d="M20,17c-0.8,0-1.7-0.4-2.4-0.9c-0.8,0.7-1.9,1.2-2.8,1.2c-1,0-2-0.4-2.8-1.1c-0.8,0.7-1.8,1.1-2.8,1.1c-1,0-2-0.4-2.8-1.2
			C5.7,16.7,4.8,17,4,17c-1,0-2.2-0.6-3-1.5v4C1,20.9,2.1,22,3.5,22h17c1.4,0,2.5-1.1,2.5-2.5v-4C22.2,16.4,21,17,20,17z"/>
		<g>
			<path d="M22.5,10H19c0-3.1-0.4-5.9-2.9-6c1-0.1,1.9-0.9,1.9-2c0-1.1-0.9-2-2-2c-1.1,0-2,0.9-2,2c0,1.1,0.8,1.9,1.9,2
				C13.4,4.1,13,6.9,13,10h-3l0-2.8c0-0.1,0.2-0.4,0.3-0.7C10.6,6,11,5.2,11,4.5C11,4.2,10.8,4,10.5,4H8H5.5C5.2,4,5,4.2,5,4.5
				C5,5.2,5.4,6,5.7,6.6C5.8,6.8,6,7.1,6,7.2V10H1.5C1.2,10,1,10.2,1,10.5V13c0,1.7,1.8,3,3,3c0.8,0,1.8-0.5,2.5-1.4
				c0.6,1,1.8,1.7,2.8,1.7c1,0,2.1-0.6,2.8-1.6c0.6,1,1.7,1.6,2.8,1.6c1,0,2.2-0.7,2.8-1.7c0.6,0.9,1.7,1.4,2.5,1.4c1.2,0,3-1.3,3-3
				v-2.5C23,10.2,22.8,10,22.5,10z"/>
			<circle cx="8" cy="2" r="2"/>
		</g>
	</g>
</g>
<g id="Outline_Icons">
	<g>
		<line class="st2" x1="0.5" y1="23.5" x2="23.5" y2="23.5"/>
		<path class="st2" d="M1.5,13v6.5c0,1.1,0.9,2,2,2h17c1.1,0,2-0.9,2-2V13"/>
		<path class="st2" d="M1.5,13c0,1.4,1.5,2.5,2.5,2.5s2.5-1.1,2.5-2.5c0,1.5,1.5,2.8,2.8,2.8S12,14.5,12,13c0,1.5,1.5,2.8,2.8,2.8
			s2.8-1.2,2.8-2.8c0,1.4,1.5,2.5,2.5,2.5s2.5-1.1,2.5-2.5v-2.5h-21V13z"/>
		<circle class="st2" cx="8" cy="2" r="1.5"/>
		<circle class="st2" cx="16" cy="2" r="1.5"/>
		<path class="st3" d="M10.5,4.5h-5c0,1,1,2.3,1,2.7v3.3h3V7.2C9.5,6.8,10.5,5.5,10.5,4.5z"/>
		<path class="st3" d="M18.5,10.5c0-4-0.5-6-2.5-6s-2.5,2-2.5,6H18.5z"/>
	</g>
</g>
</svg>
