<?xml version="1.0" encoding="utf-8"?>
<!-- Generator: Adobe Illustrator 19.2.0, SVG Export Plug-In . SVG Version: 6.00 Build 0)  -->
<svg version="1.1" id="Outline_Icons" xmlns="http://www.w3.org/2000/svg" xmlns:xlink="http://www.w3.org/1999/xlink" x="0px"
	 y="0px" viewBox="0 0 24 24" style="enable-background:new 0 0 24 24;" xml:space="preserve">
<style type="text/css">
	.st0{fill:none;stroke:#000000;stroke-linejoin:round;stroke-miterlimit:10;}
	.st1{fill:none;stroke:#000000;stroke-linecap:round;stroke-linejoin:round;stroke-miterlimit:10;}
</style>
<g>
	<circle class="st0" cx="4.5" cy="8" r="2"/>
	<path class="st0" d="M8,11.5H1c0,4,1.5,5.8,1.5,6.6v5.4h4v-5.4C6.5,17.3,8,15.5,8,11.5z"/>
	<circle class="st0" cx="13.5" cy="8" r="2"/>
	<path class="st0" d="M13.5,11.7c-1.9,0-3.5,3.8-3.5,7.8h2.5v4h2v-4H17C17,15.5,15.4,11.7,13.5,11.7z"/>
	<path class="st0" d="M11.3,13.5H9.5v-6c0-2.2,1.8-4,4-4s4,1.8,4,4v6h-1.8"/>
	<line class="st1" x1="4.5" y1="11.5" x2="4.5" y2="15"/>
	<polygon class="st0" points="19,16.5 21,20 23,16.5 	"/>
	<g>
		<path class="st0" d="M22.5,16.5c0.6,0,1-0.4,1-1c0-0.7-0.8-1.3-1.5-0.8c0.1-0.7-0.4-1.2-1-1.2s-1.1,0.5-1,1.2
			c-0.7-0.5-1.5,0.1-1.5,0.8c0,0.6,0.4,1,1,1"/>
	</g>
</g>
</svg>
