<?xml version="1.0" encoding="utf-8"?>
<!-- Generator: Adobe Illustrator 19.2.0, SVG Export Plug-In . SVG Version: 6.00 Build 0)  -->
<svg version="1.1" id="Layer_1" xmlns="http://www.w3.org/2000/svg" xmlns:xlink="http://www.w3.org/1999/xlink" x="0px" y="0px"
	 viewBox="0 0 24 24" style="enable-background:new 0 0 24 24;" xml:space="preserve">
<style type="text/css">
	.st0{display:none;}
	.st1{display:inline;}
	.st2{fill:none;stroke:#000000;stroke-linecap:round;stroke-linejoin:round;stroke-miterlimit:10;}
	.st3{fill:none;stroke:#000000;stroke-linejoin:round;stroke-miterlimit:10;}
</style>
<g id="Filled_Icons" class="st0">
	<g class="st1">
		<path d="M18,22.5v1c0,0.3,0.2,0.5,0.5,0.5h3c0.3,0,0.5-0.2,0.5-0.5v-1H18z"/>
		<path d="M22.1,13.5l-5.6,1.4c-0.4,2.6-4.1,4.5-4.2,4.5c-0.1,0-0.1,0.1-0.2,0.1s-0.1,0-0.2-0.1c-0.2-0.1-3.9-1.9-4.2-4.5l-5.6-1.4
			l-0.8,1.3C1,14.8,1,14.9,1,15v3.5h4c0.3,0,0.5,0.2,0.5,0.5S5.3,19.5,5,19.5H1V21c0,0.3,0.2,0.5,0.5,0.5h21c0.3,0,0.5-0.2,0.5-0.5
			l0-1.5h-4c-0.3,0-0.5-0.2-0.5-0.5s0.2-0.5,0.5-0.5h4l0-3.5c0-0.1,0-0.2-0.1-0.3L22.1,13.5z"/>
		<path d="M7.6,13.9c0.2-1.6,1.4-2.4,2.5-2.4c0.7,0,1.4,0.3,2,0.9c0.6-0.5,1.3-0.9,2-0.9c1.1,0,2.2,0.7,2.4,2.4l5.1-1.3L21,11.8
			l-0.6-1.9l0,0l-1.4-5c-0.1-0.2-0.3-0.4-0.5-0.4h-13C5.3,4.5,5.1,4.7,5,4.9l-1.4,5L3,11.8l-0.5,0.8L7.6,13.9z M5.9,5.5h12.2l1.1,4
			H4.7L5.9,5.5z"/>
		<path d="M2,22.5v1C2,23.8,2.2,24,2.5,24h3C5.8,24,6,23.8,6,23.5v-1H2z"/>
	</g>
</g>
<g id="Outline_Icons">
	<g>
		<rect x="2.5" y="21.5" class="st2" width="3" height="2"/>
		<rect x="18.5" y="21.5" class="st2" width="3" height="2"/>
		<polyline class="st2" points="3.5,12.5 1.5,15.5 1.5,21.5 22.5,21.5 22.5,15.5 20.5,12.5 		"/>
		<polyline class="st2" points="20.5,12.5 18.5,5.5 5.5,5.5 3.5,12.5 		"/>
		<line class="st2" x1="1.5" y1="19.5" x2="5" y2="19.5"/>
		<line class="st2" x1="19" y1="19.5" x2="22.5" y2="19.5"/>
		<path class="st3" d="M12,13.6c-1.4-1.9-4-1.4-4,1.4c0.1,2.5,4,4.5,4,4.5s3.9-1.9,4-4.5C16,12.2,13.4,11.8,12,13.6z"/>
		<line class="st3" x1="16" y1="15" x2="21.3" y2="13.7"/>
		<line class="st3" x1="8" y1="15" x2="2.7" y2="13.7"/>
		<line class="st2" x1="4.1" y1="10.5" x2="19.9" y2="10.5"/>
	</g>
</g>
</svg>
