<?xml version="1.0" encoding="utf-8"?>
<!-- Generator: Adobe Illustrator 19.2.0, SVG Export Plug-In . SVG Version: 6.00 Build 0)  -->
<svg version="1.1" id="Layer_1" xmlns="http://www.w3.org/2000/svg" xmlns:xlink="http://www.w3.org/1999/xlink" x="0px" y="0px"
	 viewBox="0 0 24 24" style="enable-background:new 0 0 24 24;" xml:space="preserve">
<style type="text/css">
	.st0{display:none;}
	.st1{display:inline;}
	.st2{fill:none;stroke:#000000;stroke-linecap:round;stroke-linejoin:round;stroke-miterlimit:10;}
</style>
<g id="Filled_Icons" class="st0">
	<path class="st1" d="M15.5,10.3V5c0-0.3-0.2-0.5-0.5-0.5h-0.5V9h-1V4.5h-1V9h-1V4.5h-1V9h-1V4.5H9c-0.1,0-0.3,0.1-0.4,0.1
		c0,0.1-0.1,0.3-0.1,0.4v4h-1C7.4,9,7.2,9.1,7.1,9.2c0,0-0.1,0.2-0.1,0.3v2c0,1.2,0.8,2.2,1.9,2.4L7,23.4c0,0.1,0,0.3,0.1,0.4
		S7.4,24,7.5,24H15c0.1,0,0.3-0.1,0.4-0.2c0.1-0.1,0.1-0.3,0.1-0.4L13.8,15c-0.1-0.8,0.1-1.6,0.7-2.2C15.1,12.1,15.5,11.2,15.5,10.3
		z"/>
	<g class="st1">
		<rect y="3" width="1.5" height="7"/>
	</g>
	<g class="st1">
		<rect x="22.5" y="3" width="1.5" height="7"/>
	</g>
	<rect x="2.5" class="st1" width="2" height="13"/>
	<rect x="19.5" class="st1" width="2" height="13"/>
	<rect x="16.5" y="5" class="st1" width="2" height="3"/>
	<polygon class="st1" points="6,8 7.5,8 7.5,5 5.5,5 5.5,8 	"/>
</g>
<g id="Outline_Icons">
	<g>
		<rect x="0.5" y="3.5" class="st2" width="2" height="6"/>
		<rect x="2.5" y="0.5" class="st2" width="2" height="12"/>
		<rect x="20.5" y="3.5" class="st2" width="2" height="6"/>
		<rect x="18.5" y="0.5" class="st2" width="2" height="12"/>
		<path class="st2" d="M8.5,7.5h-2v3c0,1.1,0.9,2,2,2l-2,11h10l-1.7-9.4c-0.2-1,0.1-2,0.8-2.7c0.6-0.6,0.9-1.3,0.9-2.1V3.5h-8V7.5z"
			/>
		<line class="st2" x1="4.5" y1="7.5" x2="8" y2="7.5"/>
		<line class="st2" x1="4.5" y1="5.5" x2="8.5" y2="5.5"/>
		<line class="st2" x1="16.5" y1="5.5" x2="18.5" y2="5.5"/>
		<line class="st2" x1="16.5" y1="7.5" x2="18.5" y2="7.5"/>
		<line class="st2" x1="10.5" y1="3.5" x2="10.5" y2="7"/>
		<line class="st2" x1="12.5" y1="3.5" x2="12.5" y2="7"/>
		<line class="st2" x1="14.5" y1="3.5" x2="14.5" y2="7"/>
	</g>
</g>
</svg>
