<?xml version="1.0" encoding="utf-8"?>
<!-- Generator: Adobe Illustrator 19.2.0, SVG Export Plug-In . SVG Version: 6.00 Build 0)  -->
<svg version="1.1" id="Layer_1" xmlns="http://www.w3.org/2000/svg" xmlns:xlink="http://www.w3.org/1999/xlink" x="0px" y="0px"
	 viewBox="0 0 24 24" style="enable-background:new 0 0 24 24;" xml:space="preserve">
<style type="text/css">
	.st0{display:none;}
	.st1{display:inline;}
	.st2{fill:none;stroke:#000000;stroke-linecap:round;stroke-linejoin:round;stroke-miterlimit:10;}
</style>
<g id="Filled_Icons" class="st0">
	<path class="st1" d="M24,20.4L20.6,8.6C20.2,7.1,18.8,6,17.2,6h-2.8c0.6-0.6,1.1-1.5,1.1-2.5C15.5,1.6,13.9,0,12,0S8.5,1.6,8.5,3.5
		c0,1,0.4,1.9,1.1,2.5H6.8c-1.6,0-3,1.1-3.4,2.6L0,20.4c0,0,0,0.1,0,0.1v3C0,23.8,0.2,24,0.5,24h23c0.3,0,0.5-0.2,0.5-0.5v-3
		C24,20.5,24,20.4,24,20.4z M9,17H8.5v-5H9v2.5V17z M11,17l-1.9-2.3C9.1,14.7,9,14.5,9,14.5c0,0,0.1-0.2,0.1-0.3L11,12h0.7l-2.1,2.4
		l2.2,2.6H11z M15.5,13c-0.5-0.2-0.8-0.4-1.3-0.4c-0.5,0-1,0.2-1.3,0.6c-0.4,0.4-0.5,0.9-0.5,1.5c0,0.6,0.2,1.1,0.5,1.5
		c0.3,0.4,0.7,0.5,1.3,0.5c0.4,0,0.9-0.1,0.9-0.2V15h-1v-0.5h1.5v2.2C15,17,14.6,17.1,14,17.1c-0.7,0-1.2-0.2-1.6-0.7
		c-0.4-0.4-0.6-1-0.6-1.8c0-0.7,0.2-1.4,0.7-1.8c0.5-0.5,1-0.7,1.7-0.7c0.5,0,0.8,0.1,1.3,0.3L15.5,13L15.5,13z"/>
</g>
<g id="Outline_Icons">
	<g>
		<g>
			<circle class="st2" cx="12" cy="3.5" r="3"/>
			<path class="st2" d="M23.5,20.5v3h-23v-3L3.9,8.7c0.4-1.3,1.6-2.2,2.9-2.2h10.4c1.4,0,2.5,0.9,2.9,2.2L23.5,20.5z"/>
		</g>
		<path class="st2" d="M15.4,13.1c-0.2-0.7-0.5-1.2-1.4-1.2c-1.3,0-1.5,1.2-1.5,2.6s0.2,2.6,1.5,2.6c1,0,1.4-0.8,1.5-1.9H14"/>
		<g>
			<line class="st2" x1="8.5" y1="17" x2="8.5" y2="11.8"/>
			<polyline class="st2" points="11,17 8.5,14.4 11,11.8 			"/>
		</g>
	</g>
</g>
</svg>
