<?xml version="1.0" encoding="utf-8"?>
<!-- Generator: Adobe Illustrator 19.2.0, SVG Export Plug-In . SVG Version: 6.00 Build 0)  -->
<svg version="1.1" id="Outline_Icons" xmlns="http://www.w3.org/2000/svg" xmlns:xlink="http://www.w3.org/1999/xlink" x="0px"
	 y="0px" viewBox="0 0 24 24" style="enable-background:new 0 0 24 24;" xml:space="preserve">
<style type="text/css">
	.st0{fill:none;stroke:#000000;stroke-linecap:round;stroke-linejoin:round;stroke-miterlimit:10;}
</style>
<g>
	<line class="st0" x1="5.5" y1="0.5" x2="5.5" y2="23.5"/>
	<path class="st0" d="M3.5,4v4c-2.5-2-3-4.5-3-7L3.5,4z"/>
	<path class="st0" d="M3.5,11.5v4c-2.5-2-3-4.5-3-7L3.5,11.5z"/>
	<path class="st0" d="M3.5,19v4c-2.5-2-3-4.5-3-7L3.5,19z"/>
	<path class="st0" d="M7.5,4v4c2.5-2,3-4.5,3-7L7.5,4z"/>
	<path class="st0" d="M7.5,11.5v4c2.5-2,3-4.5,3-7L7.5,11.5z"/>
	<path class="st0" d="M7.5,19v4c2.5-2,3-4.5,3-7L7.5,19z"/>
	<line class="st0" x1="18.5" y1="0.5" x2="18.5" y2="23.5"/>
	<path class="st0" d="M16.5,4v4c-2.5-2-3-4.5-3-7L16.5,4z"/>
	<path class="st0" d="M16.5,11.5v4c-2.5-2-3-4.5-3-7L16.5,11.5z"/>
	<path class="st0" d="M16.5,19v4c-2.5-2-3-4.5-3-7L16.5,19z"/>
	<path class="st0" d="M20.5,4v4c2.5-2,3-4.5,3-7L20.5,4z"/>
	<path class="st0" d="M20.5,11.5v4c2.5-2,3-4.5,3-7L20.5,11.5z"/>
	<path class="st0" d="M20.5,19v4c2.5-2,3-4.5,3-7L20.5,19z"/>
</g>
</svg>
