<?xml version="1.0" encoding="utf-8"?>
<!-- Generator: Adobe Illustrator 19.2.0, SVG Export Plug-In . SVG Version: 6.00 Build 0)  -->
<svg version="1.1" id="Layer_1" xmlns="http://www.w3.org/2000/svg" xmlns:xlink="http://www.w3.org/1999/xlink" x="0px" y="0px"
	 viewBox="0 0 24 24" style="enable-background:new 0 0 24 24;" xml:space="preserve">
<style type="text/css">
	.st0{display:none;}
	.st1{display:inline;}
	.st2{fill:none;stroke:#000000;stroke-linejoin:round;stroke-miterlimit:10;}
	.st3{fill:none;stroke:#000000;stroke-linecap:round;stroke-linejoin:round;stroke-miterlimit:10;}
</style>
<g id="Filled_Icons" class="st0">
	<g class="st1">
		<path d="M6.5,16C4.6,16,3,17.6,3,19.5S4.6,23,6.5,23s3.5-1.6,3.5-3.5S8.4,16,6.5,16z"/>
		<path d="M15.6,7c-0.3,0-0.6,0-0.9,0.1C14.2,5.3,12.4,4,10.5,4c-2,0-3.7,1.3-4.3,3.1C5.9,7,5.6,7,5.4,7C4.1,7,3,7.8,2.6,9h15.9
			C17.9,7.8,16.9,7,15.6,7z"/>
		<path d="M23.9,7.2c-0.2-0.2-0.5-0.2-0.7,0L20.3,10H0.5c-0.2,0-0.4,0.1-0.4,0.3s-0.1,0.4,0,0.5l3.5,5.3C4.4,15.4,5.4,15,6.5,15
			C9,15,11,17,11,19.5c0,0.2,0,0.3-0.1,0.5h0.6c0.1,0,0.3-0.1,0.4-0.1l2.4-2.4l4.5,3.9c0.2,0.1,0.5,0.2,0.7,0.2
			c0.3,0,0.6-0.1,0.8-0.2C20.7,21,21,20.5,21,20v-9.3l2.9-2.9C24.1,7.7,24.1,7.3,23.9,7.2z M20,20c0,0.2-0.1,0.3-0.2,0.4
			c-0.1,0.1-0.3,0.1-0.4,0.1L15,16.7l5-5V20z"/>
	</g>
</g>
<g id="Outline_Icons">
	<g>
		<polyline class="st2" points="4.8,16.9 0.5,10.5 20.5,10.5 11.5,19.5 9.5,19.5 		"/>
		<circle class="st2" cx="6.5" cy="19.5" r="3"/>
		<line class="st3" x1="20.5" y1="10.5" x2="23.5" y2="7.5"/>
		<path class="st3" d="M20.5,10.6V20c0,0.3-0.2,0.7-0.5,0.8c-0.3,0.2-0.6,0.2-0.9,0.1l-4.8-4.2"/>
		<path class="st2" d="M18.2,10.5c0-1.8-1.2-3-2.6-3c-0.4,0-0.8,0.1-1.2,0.3c-0.4-1.9-2-3.2-4-3.2c-2,0-3.6,1.4-4,3.2
			C6.2,7.6,5.8,7.5,5.4,7.5c-1.4,0-2.6,1.2-2.6,3"/>
	</g>
</g>
</svg>
