<?xml version="1.0" encoding="utf-8"?>
<!-- Generator: Adobe Illustrator 19.2.0, SVG Export Plug-In . SVG Version: 6.00 Build 0)  -->
<svg version="1.1" id="Layer_1" xmlns="http://www.w3.org/2000/svg" xmlns:xlink="http://www.w3.org/1999/xlink" x="0px" y="0px"
	 viewBox="0 0 24 24" style="enable-background:new 0 0 24 24;" xml:space="preserve">
<style type="text/css">
	.st0{display:none;}
	.st1{display:inline;}
	.st2{fill:none;stroke:#000000;stroke-linecap:round;stroke-linejoin:round;stroke-miterlimit:10;}
</style>
<g id="Filled_Icons" class="st0">
	<path class="st1" d="M23.5,12H13c-0.3,0-0.5,0.2-0.5,0.5v4v5.3c0,1.2,1.5,2.2,2.7,2.2h6.2c1.2,0,2.6-1,2.6-2.2v-5.3v-4
		C24,12.2,23.8,12,23.5,12z M14.5,19c-0.3,0-0.5-0.2-0.5-0.5s0.2-0.5,0.5-0.5s0.5,0.2,0.5,0.5S14.8,19,14.5,19z M15.5,21
		c-0.3,0-0.5-0.2-0.5-0.5s0.2-0.5,0.5-0.5s0.5,0.2,0.5,0.5S15.8,21,15.5,21z M17.5,22c-0.3,0-0.5-0.2-0.5-0.5s0.2-0.5,0.5-0.5
		s0.5,0.2,0.5,0.5S17.8,22,17.5,22z M17.5,20c-0.3,0-0.5-0.2-0.5-0.5s0.2-0.5,0.5-0.5s0.5,0.2,0.5,0.5S17.8,20,17.5,20z M20,20
		c-0.3,0-0.5-0.2-0.5-0.5S19.7,19,20,19s0.5,0.2,0.5,0.5S20.3,20,20,20z M21,22c-0.3,0-0.5-0.2-0.5-0.5S20.7,21,21,21
		s0.5,0.2,0.5,0.5S21.3,22,21,22z M22,19c-0.3,0-0.5-0.2-0.5-0.5S21.7,18,22,18s0.5,0.2,0.5,0.5S22.3,19,22,19z M23,16h-9.5v-3H23
		V16z"/>
	<g class="st1">
		<path d="M8.5,5V2.5C8.5,2.2,8.3,2,8,2H5C4.7,2,4.5,2.2,4.5,2.5V5H8.5z"/>
		<path d="M11.5,21.9v-9.3c0-0.2,0.1-0.5,0.2-0.7c-0.5-0.4-1-0.8-1.5-1.1C9.3,10.1,8.5,9.6,8.5,9V6h-4v3c0,0.6-0.8,1.1-1.7,1.7
			C1.6,11.6,0,12.6,0,14.5c0,3,0.7,7.9,0.8,8.1C1,23.4,1.7,24,2.5,24h8c0.6,0,1.1-0.3,1.4-0.8C11.7,22.8,11.5,22.4,11.5,21.9z
			 M9.5,21.6C9.5,21.8,9.2,22,9,22H4c-0.2,0-0.5-0.2-0.5-0.4l-1-7c0-0.1,0-0.3,0.1-0.4C2.7,14.1,2.9,14,3,14h7
			c0.1,0,0.3,0.1,0.4,0.2c0.1,0.1,0.1,0.3,0.1,0.4L9.5,21.6z"/>
	</g>
</g>
<g id="Outline_Icons">
	<g>
		<path class="st2" d="M12.5,20.6c-0.1,1.2-0.3,2-0.3,2c-0.1,0.5-0.7,1-1.2,1H3c-0.5,0-1.1-0.4-1.2-1c0,0-0.8-5-0.8-8S5.5,11,5.5,9
			s0-6.5,0-6.5"/>
		<path class="st2" d="M8.5,2.5c0,0,0,4.5,0,6.5c0,1.5,2.7,2.2,3.9,3.8l0.1,0.1"/>
		<rect x="5.5" y="2.5" class="st2" width="3" height="3"/>
		<polygon class="st2" points="10.5,14.5 3.5,14.5 4.5,21.5 9.5,21.5 		"/>
		<path class="st2" d="M23.5,12.5v9.3c0,0.9-1.2,1.7-2.1,1.7h-6.7c-0.9,0-2.2-0.7-2.2-1.7v-9.3H23.5z"/>
		<line class="st2" x1="12.5" y1="16.5" x2="23.5" y2="16.5"/>
		<g>
			<g>
				<path d="M17.5,21c-0.3,0-0.5,0.2-0.5,0.5s0.2,0.5,0.5,0.5s0.5-0.2,0.5-0.5S17.8,21,17.5,21L17.5,21z"/>
			</g>
		</g>
		<g>
			<g>
				<path d="M15.5,20c-0.3,0-0.5,0.2-0.5,0.5s0.2,0.5,0.5,0.5s0.5-0.2,0.5-0.5S15.8,20,15.5,20L15.5,20z"/>
			</g>
		</g>
		<g>
			<g>
				<path d="M14.5,18c-0.3,0-0.5,0.2-0.5,0.5s0.2,0.5,0.5,0.5s0.5-0.2,0.5-0.5S14.8,18,14.5,18L14.5,18z"/>
			</g>
		</g>
		<g>
			<g>
				<path d="M17.5,19c-0.3,0-0.5,0.2-0.5,0.5s0.2,0.5,0.5,0.5s0.5-0.2,0.5-0.5S17.8,19,17.5,19L17.5,19z"/>
			</g>
		</g>
		<g>
			<g>
				<path d="M19.5,19c-0.3,0-0.5,0.2-0.5,0.5s0.2,0.5,0.5,0.5s0.5-0.2,0.5-0.5S19.8,19,19.5,19L19.5,19z"/>
			</g>
		</g>
		<g>
			<g>
				<path d="M21.5,18c-0.3,0-0.5,0.2-0.5,0.5s0.2,0.5,0.5,0.5s0.5-0.2,0.5-0.5S21.8,18,21.5,18L21.5,18z"/>
			</g>
		</g>
		<g>
			<g>
				<path d="M20.5,21c-0.3,0-0.5,0.2-0.5,0.5s0.2,0.5,0.5,0.5s0.5-0.2,0.5-0.5S20.8,21,20.5,21L20.5,21z"/>
			</g>
		</g>
	</g>
</g>
</svg>
