<?xml version="1.0" encoding="utf-8"?>
<!-- Generator: Adobe Illustrator 19.2.0, SVG Export Plug-In . SVG Version: 6.00 Build 0)  -->
<svg version="1.1" id="Layer_1" xmlns="http://www.w3.org/2000/svg" xmlns:xlink="http://www.w3.org/1999/xlink" x="0px" y="0px"
	 viewBox="0 0 24 24" style="enable-background:new 0 0 24 24;" xml:space="preserve">
<style type="text/css">
	.st0{display:none;}
	.st1{display:inline;}
	.st2{fill:none;stroke:#000000;stroke-linejoin:round;stroke-miterlimit:10;}
</style>
<g id="Filled_Icons" class="st0">
	<path class="st1" d="M9.3,17.5c-0.6-0.3-1.2-0.7-1.7-1.2c-0.5-0.5-0.9-1.1-1.2-1.7l-5.9,5.9C0.2,21,0,21.5,0,22
		c0,0.5,0.2,1,0.6,1.4S1.5,24,2,24s1-0.2,1.4-0.6L9.3,17.5z"/>
	<path class="st1" d="M21.4,2.6c-1-1-2.3-1.5-3.8-1.5c-2.4,0-5.2,1.3-7.3,3.4C8.6,6.2,7.4,8.3,7,10.4c-0.4,2.1,0.1,4,1.3,5.3
		c1,1,2.3,1.5,3.8,1.5c2.4,0,5.2-1.3,7.3-3.4c1.7-1.7,2.9-3.8,3.3-5.9C23.2,5.7,22.7,3.8,21.4,2.6z M20.3,6c-0.7,1.5-2,3.2-3.7,4.9
		c-1.8,1.8-5.2,4.5-7.1,4.3L20.9,3.8C21,4.3,20.8,5.1,20.3,6z M9.5,12.2c0.7-1.5,2-3.2,3.7-4.9c1.6-1.6,5.1-4.5,7.1-4.3L8.9,14.4
		C8.8,13.9,9,13.1,9.5,12.2z M8,10.6c0.3-1.9,1.4-3.8,3-5.4c1.9-1.9,4.4-3.1,6.6-3.1c0.5,0,0.9,0.1,1.3,0.2
		c-1.8,0.5-4.2,2.1-6.5,4.4c-1.7,1.7-3.1,3.5-3.9,5.1c-0.2,0.5-0.4,0.9-0.5,1.3C7.9,12.3,7.8,11.5,8,10.6z M21.8,7.6
		c-0.3,1.9-1.4,3.8-3,5.4c-2,1.9-4.4,3.1-6.6,3.1c-0.5,0-0.9-0.1-1.3-0.2c1.8-0.5,4.2-2.1,6.5-4.4c1.7-1.7,3.1-3.5,3.9-5.1
		c0.2-0.5,0.4-0.9,0.5-1.3C21.9,5.9,22,6.7,21.8,7.6z"/>
</g>
<g id="Outline_Icons">
	<g>
		<path class="st2" d="M7.7,14.2l2.1,2.1l-6.7,6.7c-0.6,0.6-1.5,0.6-2.1,0s-0.6-1.5,0-2.1L7.7,14.2z"/>
		<ellipse transform="matrix(0.7071 -0.7071 0.7071 0.7071 -2.0669 13.2033)" class="st2" cx="14.9" cy="9.1" rx="8.7" ry="6"/>
		<ellipse transform="matrix(0.7071 -0.7071 0.7071 0.7071 -2.0664 13.2035)" class="st2" cx="14.9" cy="9.1" rx="8.7" ry="3"/>
		<line class="st2" x1="21.1" y1="2.9" x2="8.7" y2="15.3"/>
	</g>
</g>
</svg>
