<?xml version="1.0" encoding="utf-8"?>
<!-- Generator: Adobe Illustrator 19.2.0, SVG Export Plug-In . SVG Version: 6.00 Build 0)  -->
<svg version="1.1" id="Layer_1" xmlns="http://www.w3.org/2000/svg" xmlns:xlink="http://www.w3.org/1999/xlink" x="0px" y="0px"
	 viewBox="0 0 24 24" style="enable-background:new 0 0 24 24;" xml:space="preserve">
<style type="text/css">
	.st0{display:none;}
	.st1{display:inline;}
	.st2{fill:none;stroke:#000000;stroke-linecap:round;stroke-linejoin:round;stroke-miterlimit:10;}
</style>
<g id="Filled_Icon" class="st0">
	<g class="st1">
		<g>
			<path d="M18.6,3.8c-5.1-5.1-13.3-5.1-18.4,0C0,4,0,4.3,0.1,4.5c0.2,0.2,0.5,0.2,0.7,0c4.7-4.7,12.3-4.7,17,0
				c0.2,0.2,0.5,0.2,0.7,0C18.8,4.3,18.8,4,18.6,3.8z"/>
			<path d="M9.4,4.5L9.4,4.5L9.4,4.5L9.4,4.5C7,4.5,4.5,5.4,2.7,7.2C2.5,7.4,2.5,7.8,2.7,8s0.5,0.2,0.7,0c1.6-1.6,3.8-2.5,6-2.5l0,0
				c2.1,0,4.3,0.8,6,2.5c0.2,0.2,0.5,0.2,0.7,0s0.2-0.5,0-0.7C14.2,5.4,11.9,4.5,9.4,4.5z"/>
			<path d="M13.5,10.7C12.4,9.5,10.9,9,9.4,9s-3,0.6-4.2,1.7c-0.1,0.1-0.1,0.2-0.1,0.4c0,0.1,0,0.3,0.1,0.4c0.2,0.2,0.5,0.2,0.7,0
				c1.9-1.9,5-1.9,6.9,0c0.2,0.2,0.5,0.2,0.7,0c0.1-0.1,0.1-0.2,0.1-0.4C13.7,10.9,13.6,10.8,13.5,10.7z"/>
			<path d="M9.4,13.4c-1.3,0-2.3,1-2.3,2.3s1,2.3,2.3,2.3s2.3-1,2.3-2.3C11.6,14.4,10.6,13.4,9.4,13.4z"/>
		</g>
		<g>
			<path d="M18.5,13c-3,0-5.5,2.5-5.5,5.5s2.5,5.5,5.5,5.5s5.5-2.5,5.5-5.5S21.5,13,18.5,13z M15.2,17.3C15.7,16,17,15,18.5,15
				c0.9,0,1.8,0.4,2.5,1v-0.1c0-0.3,0.2-0.5,0.5-0.5s0.5,0.2,0.5,0.5v1.7c0,0.3-0.2,0.5-0.5,0.5h-1.7c-0.3,0-0.5-0.2-0.5-0.5
				s0.2-0.5,0.5-0.5h0.8c-0.5-0.6-1.3-1-2.1-1c-1.1,0-2,0.7-2.4,1.7c-0.1,0.2-0.3,0.3-0.5,0.3c-0.1,0-0.1,0-0.2,0
				C15.3,17.9,15.1,17.6,15.2,17.3z M22.2,19.7c-0.5,1.4-1.8,2.3-3.3,2.3c-0.9,0-1.8-0.4-2.5-1v0.1c0,0.3-0.2,0.5-0.5,0.5
				c-0.3,0-0.5-0.2-0.5-0.5v-1.7c0-0.3,0.2-0.5,0.5-0.5h1.7c0.3,0,0.5,0.2,0.5,0.5s-0.2,0.5-0.5,0.5h-0.8c0.5,0.6,1.3,1,2.1,1
				c1.1,0,2-0.7,2.4-1.7c0.1-0.3,0.4-0.4,0.6-0.3C22.1,19.1,22.3,19.4,22.2,19.7z"/>
		</g>
	</g>
</g>
<g id="Outline_Icons">
	<g>
		<g>
			<g>
				<path class="st2" d="M3.2,7.6c3.5-3.5,9.2-3.5,12.7,0"/>
				<path class="st2" d="M18.3,4.2c-4.9-4.9-12.8-4.9-17.7,0"/>
				<path class="st2" d="M5.7,11c2.1-2.1,5.5-2.1,7.6,0"/>
				<path class="st2" d="M15.8,7.6c-3.5-3.5-9.2-3.5-12.7,0"/>
				<path class="st2" d="M13.3,11c-2.1-2.1-5.5-2.1-7.6,0"/>
				<circle class="st2" cx="9.5" cy="15.7" r="1.8"/>
			</g>
		</g>
		<g>
			<polyline class="st2" points="23.2,14 23.2,16.5 20.7,16.5 			"/>
			<path class="st2" d="M14.5,16.5c0.6-1.7,2.3-3,4.2-3s3.8,1.2,4.5,3"/>
			<g>
				<polyline class="st2" points="14.7,22 14.7,19.5 17.2,19.5 				"/>
				<path class="st2" d="M23.5,19.5c-0.6,1.7-2.3,3-4.2,3c-2,0-3.8-1.2-4.5-3"/>
			</g>
		</g>
	</g>
</g>
</svg>
