<?xml version="1.0" encoding="utf-8"?>
<!-- Generator: Adobe Illustrator 19.2.0, SVG Export Plug-In . SVG Version: 6.00 Build 0)  -->
<svg version="1.1" id="Layer_1" xmlns="http://www.w3.org/2000/svg" xmlns:xlink="http://www.w3.org/1999/xlink" x="0px" y="0px"
	 viewBox="0 0 24 24" style="enable-background:new 0 0 24 24;" xml:space="preserve">
<style type="text/css">
	.st0{display:none;}
	.st1{display:inline;}
	.st2{fill:none;stroke:#000000;stroke-linecap:round;stroke-linejoin:round;stroke-miterlimit:10;}
	.st3{fill:none;stroke:#000000;stroke-linejoin:round;stroke-miterlimit:10;}
</style>
<g id="Filled_Icon" class="st0">
	<g class="st1">
		<g>
			<path d="M18.7,3.8c-5.1-5.1-13.3-5.1-18.4,0C0.1,4,0.1,4.4,0.3,4.6s0.5,0.2,0.7,0c4.7-4.7,12.3-4.7,17,0c0.2,0.2,0.5,0.2,0.7,0
				C18.9,4.4,18.9,4,18.7,3.8z"/>
			<path d="M9.5,4.5L9.5,4.5L9.5,4.5L9.5,4.5c-2.4,0-4.8,0.9-6.7,2.8C2.6,7.5,2.6,7.8,2.8,8s0.5,0.2,0.7,0c1.6-1.6,3.8-2.5,6-2.5
				l0,0c2.1,0,4.3,0.8,6,2.5c0.2,0.2,0.5,0.2,0.7,0s0.2-0.5,0-0.7C14.4,5.5,12,4.5,9.5,4.5z"/>
			<path d="M13.7,10.7C12.5,9.6,11,9,9.5,9s-3,0.6-4.2,1.7c-0.1,0.1-0.1,0.2-0.1,0.4c0,0.1,0,0.3,0.1,0.4c0.2,0.2,0.5,0.2,0.7,0
				c1.9-1.9,5-1.9,6.9,0c0.2,0.2,0.5,0.2,0.7,0c0.1-0.1,0.1-0.2,0.1-0.4C13.8,10.9,13.7,10.8,13.7,10.7z"/>
			<path d="M9.5,13.5c-1.3,0-2.3,1-2.3,2.3s1,2.3,2.3,2.3s2.3-1,2.3-2.3S10.8,13.5,9.5,13.5z"/>
		</g>
		<path d="M18.5,13c-3,0-5.5,2.5-5.5,5.5s2.5,5.5,5.5,5.5s5.5-2.5,5.5-5.5S21.5,13,18.5,13z M21.1,20.4c0.2,0.2,0.2,0.5,0,0.7
			c-0.1,0.1-0.2,0.1-0.4,0.1c-0.1,0-0.3,0-0.4-0.1l-1.9-1.9l-1.9,1.9c-0.1,0.1-0.2,0.1-0.4,0.1c-0.1,0-0.3,0-0.4-0.1
			c-0.2-0.2-0.2-0.5,0-0.7l1.9-1.9l-1.9-1.9c-0.2-0.2-0.2-0.5,0-0.7s0.5-0.2,0.7,0l1.9,1.9l1.9-1.9c0.2-0.2,0.5-0.2,0.7,0
			c0.2,0.2,0.2,0.5,0,0.7L19,18.5L21.1,20.4z"/>
	</g>
</g>
<g id="Outline_Icons">
	<g>
		<g>
			<g>
				<path class="st2" d="M3.2,7.6c3.5-3.5,9.2-3.5,12.7,0"/>
				<path class="st2" d="M18.3,4.2c-4.9-4.9-12.8-4.9-17.7,0"/>
				<path class="st2" d="M5.7,11.1c2.1-2.1,5.5-2.1,7.6,0"/>
				<path class="st2" d="M15.8,7.6c-3.5-3.5-9.2-3.5-12.7,0"/>
				<path class="st2" d="M13.3,11.1C11.2,9,7.8,9,5.7,11.1"/>
				<circle class="st2" cx="9.5" cy="15.7" r="1.8"/>
			</g>
		</g>
		<circle class="st3" cx="18.5" cy="18.5" r="5"/>
		<line class="st2" x1="16.2" y1="20.8" x2="20.7" y2="16.2"/>
		<line class="st2" x1="20.7" y1="20.8" x2="16.2" y2="16.2"/>
	</g>
</g>
</svg>
