<?xml version="1.0" encoding="utf-8"?>
<!-- Generator: Adobe Illustrator 19.2.0, SVG Export Plug-In . SVG Version: 6.00 Build 0)  -->
<svg version="1.1" id="Layer_1" xmlns="http://www.w3.org/2000/svg" xmlns:xlink="http://www.w3.org/1999/xlink" x="0px" y="0px"
	 viewBox="0 0 24 24" style="enable-background:new 0 0 24 24;" xml:space="preserve">
<style type="text/css">
	.st0{display:none;}
	.st1{display:inline;}
	.st2{fill:none;stroke:#000000;stroke-linecap:round;stroke-linejoin:round;stroke-miterlimit:10;}
	.st3{fill:none;stroke:#000000;stroke-linejoin:round;stroke-miterlimit:10;}
</style>
<g id="Filled_Icon" class="st0">
	<g class="st1">
		<path d="M23.5,17.6c0-0.1,0-0.3-0.1-0.4l-1-1.7c-0.1-0.2-0.4-0.3-0.7-0.2L21,15.7c-0.3-0.2-0.6-0.4-1-0.6v-0.7
			c0-0.3-0.2-0.5-0.5-0.5h-2c-0.3,0-0.5,0.2-0.5,0.5v0.7c-0.3,0.1-0.6,0.3-0.9,0.5l-0.7-0.4c-0.1-0.1-0.3-0.1-0.4-0.1
			c-0.1,0-0.2,0.1-0.3,0.2l-1,1.7c-0.1,0.2-0.1,0.5,0.2,0.7l0.7,0.4c0,0.2,0,0.4,0,0.6s0,0.4,0,0.6L14,19.8
			c-0.2,0.1-0.3,0.4-0.2,0.7l1,1.7c0.1,0.1,0.2,0.2,0.3,0.2s0.3,0,0.4-0.1l0.6-0.4c0.3,0.2,0.6,0.4,0.9,0.5v0.9
			c0,0.3,0.2,0.5,0.5,0.5h2c0.3,0,0.5-0.2,0.5-0.5v-0.9c0.4-0.1,0.7-0.3,1-0.6l0.7,0.4c0.2,0.1,0.5,0.1,0.7-0.2l1-1.7
			c0.1-0.1,0.1-0.3,0.1-0.4s-0.1-0.2-0.2-0.3l-0.7-0.4c0-0.2,0-0.4,0-0.6s0-0.4,0-0.6l0.7-0.4C23.4,17.8,23.4,17.7,23.5,17.6z
			 M18.6,20.4c-0.8,0-1.5-0.7-1.5-1.5s0.7-1.5,1.5-1.5s1.5,0.7,1.5,1.5C20.1,19.7,19.4,20.4,18.6,20.4z"/>
		<g>
			<path d="M18.6,3.8c-5.1-5.1-13.3-5.1-18.4,0C0,4,0,4.3,0.1,4.5c0.2,0.2,0.5,0.2,0.7,0c4.7-4.7,12.3-4.7,17,0
				c0.2,0.2,0.5,0.2,0.7,0C18.8,4.3,18.8,4,18.6,3.8z"/>
			<path d="M9.4,4.5L9.4,4.5L9.4,4.5L9.4,4.5C7,4.5,4.5,5.4,2.7,7.2C2.5,7.4,2.5,7.8,2.7,8s0.5,0.2,0.7,0c1.6-1.6,3.8-2.5,6-2.5l0,0
				c2.1,0,4.3,0.8,6,2.5c0.2,0.2,0.5,0.2,0.7,0s0.2-0.5,0-0.7C14.2,5.4,11.9,4.5,9.4,4.5z"/>
			<path d="M13.5,10.7C12.4,9.5,10.9,9,9.4,9s-3,0.6-4.2,1.7c-0.1,0.1-0.1,0.2-0.1,0.4c0,0.1,0,0.3,0.1,0.4c0.2,0.2,0.5,0.2,0.7,0
				c1.9-1.9,5-1.9,6.9,0c0.2,0.2,0.5,0.2,0.7,0c0.1-0.1,0.1-0.2,0.1-0.4C13.7,10.9,13.6,10.8,13.5,10.7z"/>
			<path d="M9.4,13.4c-1.3,0-2.3,1-2.3,2.3s1,2.3,2.3,2.3s2.3-1,2.3-2.3C11.6,14.4,10.6,13.4,9.4,13.4z"/>
		</g>
	</g>
</g>
<g id="Outline_Icons">
	<g>
		<g>
			<g>
				<path class="st2" d="M3.2,7.6c3.5-3.5,9.2-3.5,12.7,0"/>
				<path class="st2" d="M18.3,4.2c-4.9-4.9-12.8-4.9-17.7,0"/>
				<path class="st2" d="M5.7,11c2.1-2.1,5.5-2.1,7.6,0"/>
				<path class="st2" d="M15.8,7.6c-3.5-3.5-9.2-3.5-12.7,0"/>
				<path class="st2" d="M13.3,11c-2.1-2.1-5.5-2.1-7.6,0"/>
				<circle class="st2" cx="9.5" cy="15.7" r="1.8"/>
			</g>
		</g>
		<g>
			<circle class="st3" cx="18.6" cy="18.9" r="1.5"/>
			<path class="st3" d="M22.1,18.9c0-0.3,0-0.5-0.1-0.8l1-0.6l-1-1.7l-1,0.6c-0.4-0.4-1-0.7-1.5-0.8v-1.1h-2v1.1
				c-0.5,0.2-1,0.4-1.4,0.8l-1-0.6l-1,1.7l1,0.6C15,18.4,15,18.6,15,18.9s0,0.5,0.1,0.8l-1,0.6l1,1.7l0.9-0.6
				c0.4,0.4,0.9,0.7,1.4,0.8v1.2h2v-1.2c0.5-0.2,1.1-0.4,1.5-0.8l1,0.6l1-1.7l-1-0.6C22.1,19.4,22.1,19.1,22.1,18.9z"/>
		</g>
	</g>
</g>
</svg>
