<?xml version="1.0" encoding="utf-8"?>
<!-- Generator: Adobe Illustrator 19.2.0, SVG Export Plug-In . SVG Version: 6.00 Build 0)  -->
<svg version="1.1" id="Layer_1" xmlns="http://www.w3.org/2000/svg" xmlns:xlink="http://www.w3.org/1999/xlink" x="0px" y="0px"
	 viewBox="0 0 24 24" style="enable-background:new 0 0 24 24;" xml:space="preserve">
<style type="text/css">
	.st0{display:none;}
	.st1{display:inline;}
	.st2{fill:none;stroke:#000000;stroke-linejoin:round;stroke-miterlimit:10;}
	.st3{fill:none;stroke:#000000;stroke-linecap:round;stroke-linejoin:round;stroke-miterlimit:10;}
</style>
<g id="Filled_Icon" class="st0">
	<g class="st1">
		<path d="M14.9,12.1c-1,0-2.2,0.5-2.9,1.9c-0.7-1.4-1.9-1.9-2.9-1.9c-1.7,0-3.4,1.4-3.4,3.7c0,3.3,5.8,7.5,6,7.7
			c0.1,0.1,0.2,0.1,0.3,0.1s0.2,0,0.3-0.1c0.2-0.2,6-4.4,6-7.7C18.3,13.4,16.6,12.1,14.9,12.1z"/>
		<path d="M12,4.5L12,4.5L12,4.5L12,4.5c-2.4,0-4.8,0.9-6.7,2.8C5.1,7.5,5.1,7.8,5.3,8C5.5,8.2,5.8,8.2,6,8c1.6-1.6,3.8-2.5,6-2.5
			l0,0c2.2,0,4.3,0.8,6,2.5c0.1,0.1,0.2,0.1,0.4,0.1c0.1,0,0.3,0,0.4-0.1c0.2-0.2,0.2-0.5,0-0.7C16.9,5.5,14.4,4.5,12,4.5z"/>
		<path d="M21.2,4.9c-5.1-5.1-13.3-5.1-18.4,0C2.6,5,2.6,5.4,2.8,5.6s0.5,0.2,0.7,0c4.7-4.7,12.3-4.7,17,0c0.1,0.1,0.2,0.1,0.4,0.1
			c0.1,0,0.3,0,0.4-0.1C21.4,5.4,21.4,5,21.2,4.9z"/>
		<path d="M8.6,10.4c1.7-1.7,4.2-1.9,6.1-0.6c0.3,0.2,0.5,0.4,0.8,0.6c0.1,0.1,0.2,0.1,0.4,0.1c0.1,0,0.3,0,0.4-0.1
			c0.2-0.2,0.2-0.5,0-0.7c-2.3-2.3-6-2.3-8.3,0c-0.2,0.2-0.2,0.5,0,0.7c0.1,0.1,0.2,0.1,0.4,0.1C8.3,10.6,8.5,10.5,8.6,10.4z"/>
	</g>
</g>
<g id="Outline_Icons">
	<g>
		<path class="st2" d="M12,23c0,0,5.8-4.2,5.8-7.3c0-3.6-4.7-4.7-5.8-0.4c-1.1-4.3-5.8-3.2-5.8,0.4C6.2,18.8,12,23,12,23z"/>
		<path class="st3" d="M5.7,7.6c3.5-3.5,9.2-3.5,12.7,0"/>
		<path class="st3" d="M20.9,5.2C16,0.3,8,0.3,3.1,5.2"/>
		<path class="st3" d="M8.2,10.1c2.1-2.1,5.5-2.1,7.6,0"/>
		<path class="st3" d="M18.3,7.6c-3.5-3.5-9.2-3.5-12.7,0"/>
		<path class="st3" d="M15.8,10.1c-2.1-2.1-5.5-2.1-7.6,0"/>
	</g>
</g>
</svg>
