<?xml version="1.0" encoding="utf-8"?>
<!-- Generator: Adobe Illustrator 19.2.0, SVG Export Plug-In . SVG Version: 6.00 Build 0)  -->
<svg version="1.1" id="Layer_1" xmlns="http://www.w3.org/2000/svg" xmlns:xlink="http://www.w3.org/1999/xlink" x="0px" y="0px"
	 viewBox="0 0 24 24" style="enable-background:new 0 0 24 24;" xml:space="preserve">
<style type="text/css">
	.st0{display:none;}
	.st1{display:inline;}
	.st2{fill:none;stroke:#000000;stroke-linecap:round;stroke-linejoin:round;stroke-miterlimit:10;}
	.st3{fill:none;stroke:#000000;stroke-linejoin:round;stroke-miterlimit:10;}
</style>
<g id="Filled_Icon" class="st0">
	<g class="st1">
		<path d="M23.8,23.1L20.7,20c0.6-0.7,0.9-1.6,0.9-2.7c0-2.4-1.9-4.3-4.3-4.3S13,14.9,13,17.3s1.9,4.3,4.3,4.3c1,0,1.9-0.4,2.7-0.9
			l3.2,3.2c0.1,0.1,0.2,0.1,0.4,0.1c0.1,0,0.3,0,0.4-0.1C24,23.7,24,23.3,23.8,23.1z M14,17.3c0-1.8,1.5-3.3,3.3-3.3
			s3.3,1.5,3.3,3.3s-1.5,3.3-3.3,3.3C15.5,20.6,14,19.1,14,17.3z"/>
		<g>
			<path d="M18.6,3.8c-5.1-5.1-13.3-5.1-18.4,0C0,4,0,4.3,0.1,4.5c0.2,0.2,0.5,0.2,0.7,0c4.7-4.7,12.3-4.7,17,0
				c0.2,0.2,0.5,0.2,0.7,0C18.8,4.3,18.8,4,18.6,3.8z"/>
			<path d="M9.4,4.5L9.4,4.5L9.4,4.5L9.4,4.5C7,4.5,4.5,5.4,2.7,7.2C2.5,7.4,2.5,7.8,2.7,8s0.5,0.2,0.7,0c1.6-1.6,3.8-2.5,6-2.5l0,0
				c2.1,0,4.3,0.8,6,2.5c0.2,0.2,0.5,0.2,0.7,0s0.2-0.5,0-0.7C14.2,5.4,11.9,4.5,9.4,4.5z"/>
			<path d="M13.5,10.7C12.4,9.5,10.9,9,9.4,9s-3,0.6-4.2,1.7c-0.1,0.1-0.1,0.2-0.1,0.4c0,0.1,0,0.3,0.1,0.4c0.2,0.2,0.5,0.2,0.7,0
				c1.9-1.9,5-1.9,6.9,0c0.2,0.2,0.5,0.2,0.7,0c0.1-0.1,0.1-0.2,0.1-0.4C13.7,10.9,13.6,10.8,13.5,10.7z"/>
			<path d="M9.4,13.4c-1.3,0-2.3,1-2.3,2.3s1,2.3,2.3,2.3s2.3-1,2.3-2.3C11.6,14.4,10.6,13.4,9.4,13.4z"/>
		</g>
	</g>
</g>
<g id="Outline_Icons">
	<g>
		<g>
			<g>
				<path class="st2" d="M3.2,7.7c3.5-3.5,9.2-3.5,12.7,0"/>
				<path class="st2" d="M18.3,4.2c-4.9-4.9-12.8-4.9-17.7,0"/>
				<path class="st2" d="M5.7,11.1c2.1-2.1,5.5-2.1,7.6,0"/>
				<path class="st2" d="M15.8,7.7c-3.5-3.5-9.2-3.5-12.7,0"/>
				<path class="st2" d="M13.3,11.1C11.2,9,7.8,9,5.7,11.1"/>
				<circle class="st2" cx="9.5" cy="15.8" r="1.8"/>
			</g>
		</g>
		<circle class="st3" cx="17.3" cy="17.3" r="3.8"/>
		<line class="st2" x1="20" y1="20" x2="23.5" y2="23.5"/>
	</g>
</g>
</svg>
