<?xml version="1.0" encoding="utf-8"?>
<!-- Generator: Adobe Illustrator 19.2.0, SVG Export Plug-In . SVG Version: 6.00 Build 0)  -->
<svg version="1.1" id="Layer_1" xmlns="http://www.w3.org/2000/svg" xmlns:xlink="http://www.w3.org/1999/xlink" x="0px" y="0px"
	 viewBox="0 0 24 24" style="enable-background:new 0 0 24 24;" xml:space="preserve">
<style type="text/css">
	.st0{display:none;}
	.st1{display:inline;}
	.st2{fill:none;stroke:#000000;stroke-linecap:round;stroke-linejoin:round;stroke-miterlimit:10;}
</style>
<g id="Filled_Icons" class="st0">
	<g class="st1">
		<path d="M0,17.5v2c0,1.2,0.9,2.2,2,2.4v0.6C2,22.8,2.2,23,2.5,23C2.8,23,3,22.8,3,22.5V22h7v-7H2.5C1.1,15,0,16.1,0,17.5z M9,18.5
			C9,18.8,8.8,19,8.5,19h-6C2.2,19,2,18.8,2,18.5C2,18.2,2.2,18,2.5,18h6C8.8,18,9,18.2,9,18.5z"/>
		<path d="M21.5,15H19V6.5C19,6.2,18.8,6,18.5,6C18.2,6,18,6.2,18,6.5V15h-7v7h10v0.5c0,0.3,0.2,0.5,0.5,0.5c0.3,0,0.5-0.2,0.5-0.5
			v-0.6c1.1-0.2,2-1.2,2-2.4v-2C24,16.1,22.9,15,21.5,15z M14,19.5c-0.6,0-1-0.4-1-1c0-0.6,0.4-1,1-1c0.6,0,1,0.4,1,1
			C15,19.1,14.6,19.5,14,19.5z M17,19.5c-0.6,0-1-0.4-1-1c0-0.6,0.4-1,1-1c0.6,0,1,0.4,1,1C18,19.1,17.6,19.5,17,19.5z M20,19.5
			c-0.6,0-1-0.4-1-1c0-0.6,0.4-1,1-1c0.6,0,1,0.4,1,1C21,19.1,20.6,19.5,20,19.5z"/>
		<path d="M16,6.5C16,6.8,16.2,7,16.5,7C16.8,7,17,6.8,17,6.5C17,5.7,17.7,5,18.5,5C19.3,5,20,5.7,20,6.5C20,6.8,20.2,7,20.5,7
			C20.8,7,21,6.8,21,6.5C21,5.1,19.9,4,18.5,4C17.1,4,16,5.1,16,6.5z"/>
		<path d="M13.5,7C13.8,7,14,6.8,14,6.5C14,4,16,2,18.5,2C21,2,23,4,23,6.5C23,6.8,23.2,7,23.5,7C23.8,7,24,6.8,24,6.5
			c0-3-2.5-5.5-5.5-5.5c-3,0-5.5,2.5-5.5,5.5C13,6.8,13.2,7,13.5,7z"/>
	</g>
</g>
<g id="Outline_Icons">
	<g>
		<path class="st2" d="M23.5,19.5c0,1.1-0.9,2-2,2h-19c-1.1,0-2-0.9-2-2v-2c0-1.1,0.9-2,2-2h19c1.1,0,2,0.9,2,2V19.5z"/>
		<circle class="st2" cx="14" cy="18.5" r="0.5"/>
		<circle class="st2" cx="17" cy="18.5" r="0.5"/>
		<circle class="st2" cx="20" cy="18.5" r="0.5"/>
		<line class="st2" x1="10.5" y1="15.5" x2="10.5" y2="21.5"/>
		<line class="st2" x1="18.5" y1="15.5" x2="18.5" y2="6.5"/>
		<path class="st2" d="M16.5,6.5c0-1.1,0.9-2,2-2c1.1,0,2,0.9,2,2"/>
		<path class="st2" d="M13.5,6.5c0-2.8,2.2-5,5-5c2.8,0,5,2.2,5,5"/>
		<line class="st2" x1="2.5" y1="18.5" x2="8.5" y2="18.5"/>
		<line class="st2" x1="2.5" y1="21.5" x2="2.5" y2="22.5"/>
		<line class="st2" x1="21.5" y1="21.5" x2="21.5" y2="22.5"/>
	</g>
</g>
</svg>
