<?xml version="1.0" encoding="utf-8"?>
<!-- Generator: Adobe Illustrator 19.2.0, SVG Export Plug-In . SVG Version: 6.00 Build 0)  -->
<svg version="1.1" id="Layer_1" xmlns="http://www.w3.org/2000/svg" xmlns:xlink="http://www.w3.org/1999/xlink" x="0px" y="0px"
	 viewBox="0 0 24 24" style="enable-background:new 0 0 24 24;" xml:space="preserve">
<style type="text/css">
	.st0{display:none;}
	.st1{display:inline;}
	.st2{fill:none;stroke:#000000;stroke-linecap:round;stroke-linejoin:round;stroke-miterlimit:10;}
</style>
<g id="Filled_Icon" class="st0">
	<g class="st1">
		<path d="M18,14h-1v-0.5c0-0.3-0.2-0.5-0.5-0.5h-10C6.2,13,6,13.2,6,13.5v6C6,22,8,24,10.5,24h2c2.3,0,4.2-1.8,4.4-4H18
			c1.7,0,3-1.3,3-3S19.7,14,18,14z M18,19h-1v-4h1c1.1,0,2,0.9,2,2S19.1,19,18,19z"/>
		<path d="M20,4.6c0.1,0.1,0.2,0.1,0.4,0.1c0.1,0,0.3,0,0.4-0.1c0.2-0.2,0.2-0.5,0-0.7c-5.1-5.1-13.3-5.1-18.4,0
			C2.1,4,2.1,4.4,2.3,4.6s0.5,0.2,0.7,0C7.7-0.1,15.3-0.1,20,4.6z"/>
		<path d="M11.5,5.5c2.3,0,4.4,0.9,6,2.5c0.1,0.1,0.2,0.1,0.4,0.1c0.1,0,0.3,0,0.4-0.1c0.2-0.2,0.2-0.5,0-0.7
			c-1.8-1.8-4.2-2.8-6.7-2.8l0,0l0,0c-0.1,0-0.2,0-0.2,0C9,4.6,6.7,5.5,5,7.3C4.6,7.5,4.6,7.8,4.8,8C4.9,8.1,5,8.1,5.2,8.1
			c0.1,0,0.3,0,0.4-0.1C7.1,6.4,9.2,5.5,11.5,5.5L11.5,5.5L11.5,5.5z"/>
		<path d="M7.4,10.7c-0.2,0.2-0.2,0.5,0,0.7s0.5,0.2,0.7,0c1.9-1.9,5-1.9,6.9,0c0.1,0.1,0.2,0.1,0.4,0.1c0.1,0,0.3,0,0.4-0.1
			c0.2-0.2,0.2-0.5,0-0.7C13.4,8.4,9.6,8.4,7.4,10.7z"/>
	</g>
</g>
<g id="Outline_Icons">
	<g>
		<path class="st2" d="M10.5,23.5c-2.2,0-4-1.8-4-4v-6h10v6c0,2.2-1.8,4-4,4H10.5z"/>
		<path class="st2" d="M16.5,14.5H18c1.4,0,2.5,1.1,2.5,2.5s-1.1,2.5-2.5,2.5h-1.5"/>
		<path class="st2" d="M5.2,7.6c3.5-3.5,9.2-3.5,12.7,0"/>
		<path class="st2" d="M20.4,4.2c-4.9-4.9-12.8-4.9-17.7,0"/>
		<path class="st2" d="M7.7,11.1c2.1-2.1,5.5-2.1,7.6,0"/>
		<path class="st2" d="M17.8,7.6c-3.5-3.5-9.2-3.5-12.7,0"/>
		<path class="st2" d="M15.3,11.1C13.2,9,9.8,9,7.7,11.1"/>
	</g>
</g>
</svg>
