<?xml version="1.0" encoding="utf-8"?>
<!-- Generator: Adobe Illustrator 19.2.0, SVG Export Plug-In . SVG Version: 6.00 Build 0)  -->
<svg version="1.1" id="Layer_1" xmlns="http://www.w3.org/2000/svg" xmlns:xlink="http://www.w3.org/1999/xlink" x="0px" y="0px"
	 viewBox="0 0 24 24" style="enable-background:new 0 0 24 24;" xml:space="preserve">
<style type="text/css">
	.st0{display:none;}
	.st1{display:inline;}
	.st2{fill:none;stroke:#000000;stroke-linecap:round;stroke-linejoin:round;stroke-miterlimit:10;}
</style>
<g id="Filled_Icons" class="st0">
	<g class="st1">
		<path d="M21.5,14H12V6.5C12,6.2,11.8,6,11.5,6C11.2,6,11,6.2,11,6.5V14H2.5C1.1,14,0,15.1,0,16.5v2c0,1.2,0.9,2.2,2,2.4v0.6
			C2,21.8,2.2,22,2.5,22C2.8,22,3,21.8,3,21.5V21h18v0.5c0,0.3,0.2,0.5,0.5,0.5c0.3,0,0.5-0.2,0.5-0.5v-0.6c1.1-0.2,2-1.2,2-2.4v-2
			C24,15.1,22.9,14,21.5,14z M8.5,18h-6C2.2,18,2,17.8,2,17.5C2,17.2,2.2,17,2.5,17h6C8.8,17,9,17.2,9,17.5C9,17.8,8.8,18,8.5,18z
			 M14,18.5c-0.6,0-1-0.4-1-1c0-0.6,0.4-1,1-1c0.6,0,1,0.4,1,1C15,18.1,14.6,18.5,14,18.5z M17,18.5c-0.6,0-1-0.4-1-1
			c0-0.6,0.4-1,1-1c0.6,0,1,0.4,1,1C18,18.1,17.6,18.5,17,18.5z M20,18.5c-0.6,0-1-0.4-1-1c0-0.6,0.4-1,1-1c0.6,0,1,0.4,1,1
			C21,18.1,20.6,18.5,20,18.5z"/>
		<path d="M9.5,8C9.8,8,10,7.8,10,7.5v-2C10,5.2,9.8,5,9.5,5C9.2,5,9,5.2,9,5.5v2C9,7.8,9.2,8,9.5,8z"/>
		<path d="M6.5,9C6.8,9,7,8.8,7,8.5v-4C7,4.2,6.8,4,6.5,4C6.2,4,6,4.2,6,4.5v4C6,8.8,6.2,9,6.5,9z"/>
		<path d="M3.5,10C3.8,10,4,9.8,4,9.5v-6C4,3.2,3.8,3,3.5,3C3.2,3,3,3.2,3,3.5v6C3,9.8,3.2,10,3.5,10z"/>
		<path d="M0.5,11C0.8,11,1,10.8,1,10.5v-8C1,2.2,0.8,2,0.5,2C0.2,2,0,2.2,0,2.5v8C0,10.8,0.2,11,0.5,11z"/>
		<path d="M13.5,8C13.8,8,14,7.8,14,7.5v-2C14,5.2,13.8,5,13.5,5C13.2,5,13,5.2,13,5.5v2C13,7.8,13.2,8,13.5,8z"/>
		<path d="M16.5,9C16.8,9,17,8.8,17,8.5v-4C17,4.2,16.8,4,16.5,4C16.2,4,16,4.2,16,4.5v4C16,8.8,16.2,9,16.5,9z"/>
		<path d="M19.5,10c0.3,0,0.5-0.2,0.5-0.5v-6C20,3.2,19.8,3,19.5,3C19.2,3,19,3.2,19,3.5v6C19,9.8,19.2,10,19.5,10z"/>
		<path d="M22.5,11c0.3,0,0.5-0.2,0.5-0.5v-8C23,2.2,22.8,2,22.5,2C22.2,2,22,2.2,22,2.5v8C22,10.8,22.2,11,22.5,11z"/>
	</g>
</g>
<g id="Outline_Icons">
	<g>
		<path class="st2" d="M23.5,18.5c0,1.1-0.9,2-2,2h-19c-1.1,0-2-0.9-2-2v-2c0-1.1,0.9-2,2-2h19c1.1,0,2,0.9,2,2V18.5z"/>
		<circle class="st2" cx="14" cy="17.5" r="0.5"/>
		<circle class="st2" cx="17" cy="17.5" r="0.5"/>
		<circle class="st2" cx="20" cy="17.5" r="0.5"/>
		<line class="st2" x1="11.5" y1="14.5" x2="11.5" y2="6.5"/>
		<line class="st2" x1="2.5" y1="17.5" x2="8.5" y2="17.5"/>
		<line class="st2" x1="2.5" y1="20.5" x2="2.5" y2="21.5"/>
		<line class="st2" x1="21.5" y1="20.5" x2="21.5" y2="21.5"/>
		<line class="st2" x1="9.5" y1="5.5" x2="9.5" y2="7.5"/>
		<line class="st2" x1="6.5" y1="4.5" x2="6.5" y2="8.5"/>
		<line class="st2" x1="3.5" y1="3.5" x2="3.5" y2="9.5"/>
		<line class="st2" x1="0.5" y1="2.5" x2="0.5" y2="10.5"/>
		<line class="st2" x1="13.5" y1="5.5" x2="13.5" y2="7.5"/>
		<line class="st2" x1="16.5" y1="4.5" x2="16.5" y2="8.5"/>
		<line class="st2" x1="19.5" y1="3.5" x2="19.5" y2="9.5"/>
		<line class="st2" x1="22.5" y1="2.5" x2="22.5" y2="10.5"/>
	</g>
</g>
</svg>
