<?xml version="1.0" encoding="utf-8"?>
<!-- Generator: Adobe Illustrator 19.2.0, SVG Export Plug-In . SVG Version: 6.00 Build 0)  -->
<svg version="1.1" id="Layer_1" xmlns="http://www.w3.org/2000/svg" xmlns:xlink="http://www.w3.org/1999/xlink" x="0px" y="0px"
	 viewBox="0 0 24 24" style="enable-background:new 0 0 24 24;" xml:space="preserve">
<style type="text/css">
	.st0{display:none;}
	.st1{display:inline;}
	.st2{fill:none;stroke:#000000;stroke-linecap:round;stroke-linejoin:round;stroke-miterlimit:10;}
	.st3{fill:none;stroke:#000000;stroke-linejoin:round;stroke-miterlimit:10;}
</style>
<g id="Filled_Icon" class="st0">
	<g class="st1">
		<path d="M21.3,14.3c-0.8,0-1.7,0.4-2.3,1.4c-0.6-1-1.5-1.4-2.3-1.4c-1.3,0-2.7,1.1-2.7,3c0,2.6,4.2,5.8,4.7,6.1
			c0.1,0.1,0.2,0.1,0.3,0.1c0.1,0,0.2,0,0.3-0.1c0.5-0.3,4.7-3.5,4.7-6.1C24,15.4,22.6,14.3,21.3,14.3z"/>
		<g>
			<path d="M18.6,3.8c-5.1-5.1-13.3-5.1-18.4,0C0,4,0,4.3,0.1,4.5c0.2,0.2,0.5,0.2,0.7,0c4.7-4.7,12.3-4.7,17,0
				c0.2,0.2,0.5,0.2,0.7,0C18.8,4.3,18.8,4,18.6,3.8z"/>
			<path d="M9.4,4.5L9.4,4.5L9.4,4.5L9.4,4.5C7,4.5,4.5,5.4,2.7,7.2C2.5,7.4,2.5,7.8,2.7,8s0.5,0.2,0.7,0c1.6-1.6,3.8-2.5,6-2.5l0,0
				c2.1,0,4.3,0.8,6,2.5c0.2,0.2,0.5,0.2,0.7,0s0.2-0.5,0-0.7C14.2,5.4,11.9,4.5,9.4,4.5z"/>
			<path d="M13.5,10.7C12.4,9.5,10.9,9,9.4,9s-3,0.6-4.2,1.7c-0.1,0.1-0.1,0.2-0.1,0.4c0,0.1,0,0.3,0.1,0.4c0.2,0.2,0.5,0.2,0.7,0
				c1.9-1.9,5-1.9,6.9,0c0.2,0.2,0.5,0.2,0.7,0c0.1-0.1,0.1-0.2,0.1-0.4C13.7,10.9,13.6,10.8,13.5,10.7z"/>
			<path d="M9.4,13.4c-1.3,0-2.3,1-2.3,2.3s1,2.3,2.3,2.3s2.3-1,2.3-2.3C11.6,14.4,10.6,13.4,9.4,13.4z"/>
		</g>
	</g>
</g>
<g id="Outline_Icons">
	<g>
		<g>
			<path class="st2" d="M3.3,7.6c3.5-3.5,9.2-3.5,12.7,0"/>
			<path class="st2" d="M18.5,4.1c-4.9-4.9-12.8-4.9-17.7,0"/>
			<path class="st2" d="M5.9,11c2.1-2.1,5.5-2.1,7.6,0"/>
			<path class="st2" d="M16,7.6c-3.5-3.5-9.2-3.5-12.7,0"/>
			<path class="st2" d="M13.5,11C11.4,8.9,8,8.9,5.9,11"/>
			<circle class="st2" cx="9.7" cy="15.7" r="1.8"/>
		</g>
		<g>
			<path class="st3" d="M19,23c0,0,4.5-3.3,4.5-5.7c0-2.8-3.7-3.7-4.5-0.3c-0.8-3.4-4.5-2.5-4.5,0.3C14.5,19.7,19,23,19,23z"/>
		</g>
	</g>
</g>
</svg>
