<?xml version="1.0" encoding="utf-8"?>
<!-- Generator: Adobe Illustrator 19.2.0, SVG Export Plug-In . SVG Version: 6.00 Build 0)  -->
<svg version="1.1" id="Outline_Icons" xmlns="http://www.w3.org/2000/svg" xmlns:xlink="http://www.w3.org/1999/xlink" x="0px"
	 y="0px" viewBox="0 0 24 24" style="enable-background:new 0 0 24 24;" xml:space="preserve">
<style type="text/css">
	.st0{fill:none;stroke:#000000;stroke-linecap:round;stroke-linejoin:round;stroke-miterlimit:10;}
</style>
<g>
	<path class="st0" d="M23.5,18.5c0,1.1-0.9,2-2,2h-19c-1.1,0-2-0.9-2-2v-14c0-1.1,0.9-2,2-2h19c1.1,0,2,0.9,2,2V18.5z"/>
	<line class="st0" x1="0.5" y1="7.5" x2="23.5" y2="7.5"/>
	<circle class="st0" cx="4" cy="5" r="0.5"/>
	<circle class="st0" cx="7" cy="5" r="0.5"/>
	<circle class="st0" cx="10" cy="5" r="0.5"/>
	<g>
		<line class="st0" x1="3.5" y1="11.5" x2="3.5" y2="16.5"/>
		<line class="st0" x1="6.5" y1="11.5" x2="6.5" y2="16.5"/>
		<g>
			<line class="st0" x1="9.5" y1="11.5" x2="9.5" y2="16.5"/>
			<line class="st0" x1="11" y1="11.5" x2="8" y2="11.5"/>
		</g>
		<g>
			<line class="st0" x1="14.5" y1="11.5" x2="14.5" y2="16.5"/>
			<line class="st0" x1="16" y1="11.5" x2="13" y2="11.5"/>
		</g>
		<line class="st0" x1="6.5" y1="14.5" x2="3.5" y2="14.5"/>
		<g>
			<line class="st0" x1="17.5" y1="11.5" x2="17.5" y2="16.5"/>
			<path class="st0" d="M21,13c0,0.7-0.3,1.5-1,1.5h-2.5v-3H20C20.7,11.5,21,12.3,21,13z"/>
		</g>
	</g>
</g>
</svg>
