<?xml version="1.0" encoding="utf-8"?>
<!-- Generator: Adobe Illustrator 19.2.0, SVG Export Plug-In . SVG Version: 6.00 Build 0)  -->
<svg version="1.1" id="Outline_Icons" xmlns="http://www.w3.org/2000/svg" xmlns:xlink="http://www.w3.org/1999/xlink" x="0px"
	 y="0px" viewBox="0 0 24 24" style="enable-background:new 0 0 24 24;" xml:space="preserve">
<style type="text/css">
	.st0{fill:none;stroke:#000000;stroke-linecap:round;stroke-linejoin:round;stroke-miterlimit:10;}
</style>
<g>
	<path class="st0" d="M23.5,18.5c0,1.1-0.9,2-2,2h-19c-1.1,0-2-0.9-2-2v-14c0-1.1,0.9-2,2-2h19c1.1,0,2,0.9,2,2V18.5z"/>
	<line class="st0" x1="0.5" y1="7.5" x2="23.5" y2="7.5"/>
	<circle class="st0" cx="4" cy="5" r="0.5"/>
	<circle class="st0" cx="7" cy="5" r="0.5"/>
	<circle class="st0" cx="10" cy="5" r="0.5"/>
	<rect x="3.5" y="10.5" class="st0" width="1" height="1"/>
	<rect x="3.5" y="13.5" class="st0" width="1" height="1"/>
	<rect x="3.5" y="16.5" class="st0" width="1" height="1"/>
	<rect x="7.5" y="10.5" class="st0" width="1" height="1"/>
	<rect x="7.5" y="13.5" class="st0" width="1" height="1"/>
	<rect x="7.5" y="16.5" class="st0" width="1" height="1"/>
	<rect x="11.5" y="10.5" class="st0" width="1" height="1"/>
	<rect x="11.5" y="13.5" class="st0" width="1" height="1"/>
	<rect x="11.5" y="16.5" class="st0" width="1" height="1"/>
	<rect x="15.5" y="10.5" class="st0" width="1" height="1"/>
	<rect x="15.5" y="13.5" class="st0" width="1" height="1"/>
	<rect x="15.5" y="16.5" class="st0" width="1" height="1"/>
	<rect x="19.5" y="10.5" class="st0" width="1" height="1"/>
	<rect x="19.5" y="13.5" class="st0" width="1" height="1"/>
	<rect x="19.5" y="16.5" class="st0" width="1" height="1"/>
</g>
</svg>
