<?xml version="1.0" encoding="utf-8"?>
<!-- Generator: Adobe Illustrator 19.2.0, SVG Export Plug-In . SVG Version: 6.00 Build 0)  -->
<svg version="1.1" id="Outline_Icons" xmlns="http://www.w3.org/2000/svg" xmlns:xlink="http://www.w3.org/1999/xlink" x="0px"
	 y="0px" viewBox="0 0 24 24" style="enable-background:new 0 0 24 24;" xml:space="preserve">
<style type="text/css">
	.st0{fill:none;stroke:#000000;stroke-linecap:round;stroke-linejoin:round;stroke-miterlimit:10;}
</style>
<g>
	<path class="st0" d="M19.5,14.5c0,1.1-0.9,2-2,2h-11c-1.1,0-2-0.9-2-2v-6c0-1.1,0.9-2,2-2h11c1.1,0,2,0.9,2,2V14.5z"/>
	<line class="st0" x1="4.5" y1="9.5" x2="19.5" y2="9.5"/>
	<g>
		<g>
			<path d="M7.5,7.5C7.2,7.5,7,7.7,7,8s0.2,0.5,0.5,0.5S8,8.3,8,8S7.8,7.5,7.5,7.5L7.5,7.5z"/>
		</g>
	</g>
	<g>
		<g>
			<path d="M9.5,7.5C9.2,7.5,9,7.7,9,8s0.2,0.5,0.5,0.5S10,8.3,10,8S9.8,7.5,9.5,7.5L9.5,7.5z"/>
		</g>
	</g>
	<g>
		<g>
			<path d="M11.5,7.5C11.2,7.5,11,7.7,11,8s0.2,0.5,0.5,0.5S12,8.3,12,8S11.8,7.5,11.5,7.5L11.5,7.5z"/>
		</g>
	</g>
</g>
</svg>
