<?xml version="1.0" encoding="utf-8"?>
<!-- Generator: Adobe Illustrator 19.2.0, SVG Export Plug-In . SVG Version: 6.00 Build 0)  -->
<svg version="1.1" id="Outline_Icons" xmlns="http://www.w3.org/2000/svg" xmlns:xlink="http://www.w3.org/1999/xlink" x="0px"
	 y="0px" viewBox="0 0 24 24" style="enable-background:new 0 0 24 24;" xml:space="preserve">
<style type="text/css">
	.st0{fill:none;stroke:#000000;stroke-linecap:round;stroke-linejoin:round;stroke-miterlimit:10;}
</style>
<g>
	<path class="st0" d="M19.5,12.5c0,1.1-0.9,2-2,2h-15c-1.1,0-2-0.9-2-2v-10c0-1.1,0.9-2,2-2h15c1.1,0,2,0.9,2,2V12.5z"/>
	<line class="st0" x1="0.5" y1="3.5" x2="19.5" y2="3.5"/>
	<g>
		<g>
			<path d="M3.5,1.5C3.2,1.5,3,1.7,3,2s0.2,0.5,0.5,0.5S4,2.3,4,2S3.8,1.5,3.5,1.5L3.5,1.5z"/>
		</g>
	</g>
	<g>
		<g>
			<path d="M5.5,1.5C5.2,1.5,5,1.7,5,2s0.2,0.5,0.5,0.5S6,2.3,6,2S5.8,1.5,5.5,1.5L5.5,1.5z"/>
		</g>
	</g>
	<g>
		<g>
			<path d="M7.5,1.5C7.2,1.5,7,1.7,7,2s0.2,0.5,0.5,0.5S8,2.3,8,2S7.8,1.5,7.5,1.5L7.5,1.5z"/>
		</g>
	</g>
</g>
</svg>
