<?xml version="1.0" encoding="utf-8"?>
<!-- Generator: Adobe Illustrator 19.2.0, SVG Export Plug-In . SVG Version: 6.00 Build 0)  -->
<svg version="1.1" id="Outline_Icons" xmlns="http://www.w3.org/2000/svg" xmlns:xlink="http://www.w3.org/1999/xlink" x="0px"
	 y="0px" viewBox="0 0 24 24" style="enable-background:new 0 0 24 24;" xml:space="preserve">
<style type="text/css">
	.st0{fill:none;stroke:#000000;stroke-linecap:round;stroke-linejoin:round;stroke-miterlimit:10;}
</style>
<g>
	<g>
		<line class="st0" x1="16.5" y1="9.5" x2="7.1" y2="18.9"/>
		<polyline class="st0" points="16.5,13.5 16.5,9.5 12,9.5 		"/>
	</g>
	<rect x="1.5" y="21.5" class="st0" width="7" height="2"/>
	<line class="st0" x1="3.5" y1="4.5" x2="23.5" y2="4.5"/>
	<g>
		<g>
			<path d="M6.5,2C6.2,2,6,2.2,6,2.5S6.2,3,6.5,3S7,2.8,7,2.5S6.8,2,6.5,2L6.5,2z"/>
		</g>
	</g>
	<g>
		<g>
			<path d="M8.5,2C8.2,2,8,2.2,8,2.5S8.2,3,8.5,3S9,2.8,9,2.5S8.8,2,8.5,2L8.5,2z"/>
		</g>
	</g>
	<g>
		<g>
			<path d="M10.5,2C10.2,2,10,2.2,10,2.5S10.2,3,10.5,3S11,2.8,11,2.5S10.8,2,10.5,2L10.5,2z"/>
		</g>
	</g>
	<path class="st0" d="M7,15.5H5.5c-1.1,0-2-0.9-2-2v-11c0-1.1,0.9-2,2-2h16c1.1,0,2,0.9,2,2v11c0,1.1-0.9,2-2,2H14"/>
</g>
</svg>
