<?xml version="1.0" encoding="utf-8"?>
<!-- Generator: Adobe Illustrator 19.2.0, SVG Export Plug-In . SVG Version: 6.00 Build 0)  -->
<svg version="1.1" id="Outline_Icons" xmlns="http://www.w3.org/2000/svg" xmlns:xlink="http://www.w3.org/1999/xlink" x="0px"
	 y="0px" viewBox="0 0 24 24" style="enable-background:new 0 0 24 24;" xml:space="preserve">
<style type="text/css">
	.st0{fill:none;stroke:#000000;stroke-linecap:round;stroke-linejoin:round;stroke-miterlimit:10;}
</style>
<g>
	<path class="st0" d="M23.5,21.5c0,1.1-0.9,2-2,2h-19c-1.1,0-2-0.9-2-2v-19c0-1.1,0.9-2,2-2h19c1.1,0,2,0.9,2,2V21.5z"/>
	<line class="st0" x1="0.5" y1="5.5" x2="23.5" y2="5.5"/>
	<rect x="13.5" y="8.5" class="st0" width="7" height="5"/>
	<rect x="13.5" y="15.5" class="st0" width="7" height="5"/>
	<rect x="3.5" y="8.5" class="st0" width="7" height="8"/>
	<circle class="st0" cx="7" cy="12" r="1.5"/>
	<path class="st0" d="M9.5,16.5h-5c0-1.7,1.1-3,2.5-3S9.5,14.8,9.5,16.5z"/>
	<line class="st0" x1="4" y1="18.5" x2="8" y2="18.5"/>
	<line class="st0" x1="4" y1="20.5" x2="8" y2="20.5"/>
	<circle class="st0" cx="4" cy="3" r="0.5"/>
	<circle class="st0" cx="7" cy="3" r="0.5"/>
	<circle class="st0" cx="10" cy="3" r="0.5"/>
</g>
</svg>
