<?xml version="1.0" encoding="utf-8"?>
<!-- Generator: Adobe Illustrator 19.2.0, SVG Export Plug-In . SVG Version: 6.00 Build 0)  -->
<svg version="1.1" id="Outline_Icons" xmlns="http://www.w3.org/2000/svg" xmlns:xlink="http://www.w3.org/1999/xlink" x="0px"
	 y="0px" viewBox="0 0 24 24" style="enable-background:new 0 0 24 24;" xml:space="preserve">
<style type="text/css">
	.st0{fill:none;stroke:#000000;stroke-linecap:round;stroke-linejoin:round;stroke-miterlimit:10;}
</style>
<g>
	<path class="st0" d="M10.5,8.5c0,1.1-0.9,2-2,2h-6c-1.1,0-2-0.9-2-2v-6c0-1.1,0.9-2,2-2h6c1.1,0,2,0.9,2,2V8.5z"/>
	<line class="st0" x1="0.5" y1="3.5" x2="10.5" y2="3.5"/>
	<path class="st0" d="M13.5,8.5c0,1.1,0.9,2,2,2h6c1.1,0,2-0.9,2-2v-6c0-1.1-0.9-2-2-2h-6c-1.1,0-2,0.9-2,2V8.5z"/>
	<line class="st0" x1="23.5" y1="3.5" x2="13.5" y2="3.5"/>
	<path class="st0" d="M10.5,21.5c0,1.1-0.9,2-2,2h-6c-1.1,0-2-0.9-2-2v-6c0-1.1,0.9-2,2-2h6c1.1,0,2,0.9,2,2V21.5z"/>
	<line class="st0" x1="0.5" y1="16.5" x2="10.5" y2="16.5"/>
	<path class="st0" d="M13.5,21.5c0,1.1,0.9,2,2,2h6c1.1,0,2-0.9,2-2v-6c0-1.1-0.9-2-2-2h-6c-1.1,0-2,0.9-2,2V21.5z"/>
	<line class="st0" x1="23.5" y1="16.5" x2="13.5" y2="16.5"/>
</g>
</svg>
