<?xml version="1.0" encoding="utf-8"?>
<!-- Generator: Adobe Illustrator 19.2.0, SVG Export Plug-In . SVG Version: 6.00 Build 0)  -->
<svg version="1.1" id="Outline_Icons" xmlns="http://www.w3.org/2000/svg" xmlns:xlink="http://www.w3.org/1999/xlink" x="0px"
	 y="0px" viewBox="0 0 24 24" style="enable-background:new 0 0 24 24;" xml:space="preserve">
<style type="text/css">
	.st0{fill:none;stroke:#000000;stroke-linejoin:round;stroke-miterlimit:10;}
	.st1{fill:none;stroke:#000000;stroke-linecap:round;stroke-linejoin:round;stroke-miterlimit:10;}
</style>
<g>
	<rect x="0.5" y="15.5" class="st0" width="4" height="8"/>
	<path class="st1" d="M4.5,22.5h17c0-1.5-3.5-3-7.5-3H7"/>
	<path class="st0" d="M4.5,16.5H8c2.4,0,3.5,2.5,4,3"/>
	<g>
		<g>
			<path d="M2.5,21C2.2,21,2,21.2,2,21.5S2.2,22,2.5,22S3,21.8,3,21.5S2.8,21,2.5,21L2.5,21z"/>
		</g>
	</g>
	<path class="st1" d="M2.5,11V2.5c0-1.1,0.9-2,2-2h16c1.1,0,2,0.9,2,2v12c0,1.1-0.9,2-2,2h-3"/>
	<line class="st1" x1="2.5" y1="4.5" x2="22.5" y2="4.5"/>
	<g>
		<g>
			<path d="M5.5,2C5.2,2,5,2.2,5,2.5S5.2,3,5.5,3S6,2.8,6,2.5S5.8,2,5.5,2L5.5,2z"/>
		</g>
	</g>
	<g>
		<g>
			<path d="M7.5,2C7.2,2,7,2.2,7,2.5S7.2,3,7.5,3S8,2.8,8,2.5S7.8,2,7.5,2L7.5,2z"/>
		</g>
	</g>
	<g>
		<g>
			<path d="M9.5,2C9.2,2,9,2.2,9,2.5S9.2,3,9.5,3S10,2.8,10,2.5S9.8,2,9.5,2L9.5,2z"/>
		</g>
	</g>
</g>
</svg>
