<?xml version="1.0" encoding="utf-8"?>
<!-- Generator: Adobe Illustrator 19.2.0, SVG Export Plug-In . SVG Version: 6.00 Build 0)  -->
<svg version="1.1" id="Outline_Icons" xmlns="http://www.w3.org/2000/svg" xmlns:xlink="http://www.w3.org/1999/xlink" x="0px"
	 y="0px" viewBox="0 0 24 24" style="enable-background:new 0 0 24 24;" xml:space="preserve">
<style type="text/css">
	.st0{fill:none;stroke:#000000;stroke-linecap:round;stroke-linejoin:round;stroke-miterlimit:10;}
</style>
<g>
	<path class="st0" d="M23.5,18.5c0,1.1-0.9,2-2,2h-19c-1.1,0-2-0.9-2-2v-14c0-1.1,0.9-2,2-2h19c1.1,0,2,0.9,2,2V18.5z"/>
	<line class="st0" x1="0.5" y1="7.5" x2="23.5" y2="7.5"/>
	<circle class="st0" cx="4" cy="5" r="0.5"/>
	<circle class="st0" cx="7" cy="5" r="0.5"/>
	<circle class="st0" cx="10" cy="5" r="0.5"/>
	<path class="st0" d="M12.9,14.1c0,1.4-0.2,2.5-1.3,2.5s-1.3-1.1-1.3-2.5s0.2-2.5,1.3-2.5S12.9,12.7,12.9,14.1z"/>
	<polyline class="st0" points="8,16.5 8,11.6 5.8,14.7 8.4,14.7 	"/>
	<polyline class="st0" points="17.1,16.5 17.1,11.6 14.9,14.7 17.5,14.7 	"/>
</g>
</svg>
