<?xml version="1.0" encoding="utf-8"?>
<!-- Generator: Adobe Illustrator 19.2.0, SVG Export Plug-In . SVG Version: 6.00 Build 0)  -->
<svg version="1.1" id="Layer_1" xmlns="http://www.w3.org/2000/svg" xmlns:xlink="http://www.w3.org/1999/xlink" x="0px" y="0px"
	 viewBox="0 0 24 24" style="enable-background:new 0 0 24 24;" xml:space="preserve">
<style type="text/css">
	.st0{display:none;}
	.st1{display:inline;}
	.st2{fill:none;stroke:#000000;stroke-linecap:round;stroke-linejoin:round;stroke-miterlimit:10;}
	.st3{fill:none;stroke:#000000;stroke-linejoin:round;stroke-miterlimit:10;}
</style>
<g id="Filled_Icon" class="st0">
	<g class="st1">
		<path d="M21.5,0h-19C1.1,0,0,1.1,0,2.5V5h24V2.5C24,1.1,22.9,0,21.5,0z M4,4C3.4,4,3,3.6,3,3c0-0.6,0.4-1,1-1c0.6,0,1,0.4,1,1
			C5,3.6,4.6,4,4,4z M7,4C6.4,4,6,3.6,6,3c0-0.6,0.4-1,1-1c0.6,0,1,0.4,1,1C8,3.6,7.6,4,7,4z M10,4C9.4,4,9,3.6,9,3c0-0.6,0.4-1,1-1
			c0.6,0,1,0.4,1,1C11,3.6,10.6,4,10,4z"/>
		<path d="M0,21.5C0,22.9,1.1,24,2.5,24h19c1.4,0,2.5-1.1,2.5-2.5V6H0V21.5z M21,16.5v4c0,0.3-0.2,0.5-0.5,0.5h-6
			c-0.3,0-0.5-0.2-0.5-0.5v-5c0-0.3,0.2-0.5,0.5-0.5H16c0.1,0,0.2,0,0.3,0.1l1,0.9h3.1C20.8,16,21,16.2,21,16.5z M10,13
			c0.4,0,0.8,0.2,1,0.4l6.5-3.7c0-0.1,0-0.2,0-0.2C17.5,8.7,18.2,8,19,8c0.8,0,1.5,0.7,1.5,1.5c0,0.8-0.7,1.5-1.5,1.5
			c-0.4,0-0.7-0.1-1-0.4l-6.5,3.7c0,0.1,0,0.1,0,0.2c0,0.8-0.7,1.5-1.5,1.5c-0.8,0-1.5-0.7-1.5-1.5C8.5,13.7,9.2,13,10,13z M3,8.5
			C3,8.2,3.2,8,3.5,8h3C6.8,8,7,8.2,7,8.5V11H3V8.5z M3,12h4v2H3V12z M3,15h4v2H3V15z M3,18h4v2.5C7,20.8,6.8,21,6.5,21h-3
			C3.2,21,3,20.8,3,20.5V18z"/>
	</g>
</g>
<g id="Outline_Icons">
	<g>
		<path class="st2" d="M23.5,21.5c0,1.1-0.9,2-2,2h-19c-1.1,0-2-0.9-2-2v-19c0-1.1,0.9-2,2-2h19c1.1,0,2,0.9,2,2V21.5z"/>
		<line class="st2" x1="0.5" y1="5.5" x2="23.5" y2="5.5"/>
		<circle class="st2" cx="4" cy="3" r="0.5"/>
		<circle class="st2" cx="7" cy="3" r="0.5"/>
		<circle class="st2" cx="10" cy="3" r="0.5"/>
		<rect x="3.5" y="8.5" class="st2" width="3" height="12"/>
		<line class="st2" x1="3.5" y1="11.5" x2="6.5" y2="11.5"/>
		<line class="st2" x1="3.5" y1="14.5" x2="6.5" y2="14.5"/>
		<line class="st2" x1="3.5" y1="17.5" x2="6.5" y2="17.5"/>
		<polygon class="st3" points="14.5,15.5 16,15.5 17.2,16.5 20.5,16.5 20.5,20.5 14.5,20.5 		"/>
		<line class="st2" x1="11" y1="14" x2="18" y2="10"/>
		<circle class="st2" cx="19" cy="9.5" r="1"/>
		<circle class="st2" cx="10" cy="14.5" r="1"/>
	</g>
</g>
</svg>
