<?xml version="1.0" encoding="utf-8"?>
<!-- Generator: Adobe Illustrator 19.2.0, SVG Export Plug-In . SVG Version: 6.00 Build 0)  -->
<svg version="1.1" id="Outline_Icons" xmlns="http://www.w3.org/2000/svg" xmlns:xlink="http://www.w3.org/1999/xlink" x="0px"
	 y="0px" viewBox="0 0 24 24" style="enable-background:new 0 0 24 24;" xml:space="preserve">
<style type="text/css">
	.st0{fill:none;stroke:#000000;stroke-linecap:round;stroke-linejoin:round;stroke-miterlimit:10;}
</style>
<g>
	<path class="st0" d="M23.5,18.5c0,1.1-0.9,2-2,2h-19c-1.1,0-2-0.9-2-2v-14c0-1.1,0.9-2,2-2h19c1.1,0,2,0.9,2,2V18.5z"/>
	<line class="st0" x1="0.5" y1="7.5" x2="23.5" y2="7.5"/>
	<circle class="st0" cx="4" cy="5" r="0.5"/>
	<circle class="st0" cx="7" cy="5" r="0.5"/>
	<circle class="st0" cx="10" cy="5" r="0.5"/>
	<g>
		<circle class="st0" cx="12.2" cy="14" r="1.8"/>
		<path class="st0" d="M14.7,17.7c-0.7,0.5-1.6,0.8-2.5,0.8c-2.5,0-4.5-2-4.5-4.5s2-4.5,4.5-4.5s4.5,2,4.5,4.5v0.4
			c0,0.8-0.6,1.4-1.4,1.4c-0.8,0-1.4-0.6-1.4-1.4V14"/>
	</g>
</g>
</svg>
