<?xml version="1.0" encoding="utf-8"?>
<!-- Generator: Adobe Illustrator 19.2.0, SVG Export Plug-In . SVG Version: 6.00 Build 0)  -->
<svg version="1.1" id="Outline_Icons" xmlns="http://www.w3.org/2000/svg" xmlns:xlink="http://www.w3.org/1999/xlink" x="0px"
	 y="0px" viewBox="0 0 24 24" style="enable-background:new 0 0 24 24;" xml:space="preserve">
<style type="text/css">
	.st0{fill:none;stroke:#000000;stroke-linecap:round;stroke-linejoin:round;stroke-miterlimit:10;}
	.st1{fill:none;stroke:#000000;stroke-linejoin:round;stroke-miterlimit:10;}
</style>
<g>
	<path class="st0" d="M23.5,21.5c0,1.1-0.9,2-2,2h-19c-1.1,0-2-0.9-2-2v-19c0-1.1,0.9-2,2-2h19c1.1,0,2,0.9,2,2V21.5z"/>
	<line class="st0" x1="0.5" y1="5.5" x2="23.5" y2="5.5"/>
	<circle class="st0" cx="4" cy="3" r="0.5"/>
	<circle class="st0" cx="7" cy="3" r="0.5"/>
	<circle class="st0" cx="10" cy="3" r="0.5"/>
	<line class="st1" x1="9.5" y1="5.5" x2="9.5" y2="23.5"/>
	<line class="st0" x1="3.5" y1="8.5" x2="6.5" y2="8.5"/>
	<line class="st0" x1="3.5" y1="10.5" x2="6.5" y2="10.5"/>
	<line class="st0" x1="3.5" y1="12.5" x2="6.5" y2="12.5"/>
	<line class="st0" x1="3.5" y1="14.5" x2="6.5" y2="14.5"/>
	<line class="st0" x1="3.5" y1="16.5" x2="6.5" y2="16.5"/>
	<line class="st0" x1="3.5" y1="18.5" x2="6.5" y2="18.5"/>
	<line class="st0" x1="3.5" y1="20.5" x2="6.5" y2="20.5"/>
	<rect x="12.5" y="8.5" class="st0" width="8" height="5"/>
	<rect x="12.5" y="16.5" class="st0" width="3" height="2"/>
	<rect x="17.5" y="16.5" class="st0" width="3" height="2"/>
</g>
</svg>
