<?xml version="1.0" encoding="utf-8"?>
<!-- Generator: Adobe Illustrator 19.2.0, SVG Export Plug-In . SVG Version: 6.00 Build 0)  -->
<svg version="1.1" id="Layer_1" xmlns="http://www.w3.org/2000/svg" xmlns:xlink="http://www.w3.org/1999/xlink" x="0px" y="0px"
	 viewBox="0 0 24 24" style="enable-background:new 0 0 24 24;" xml:space="preserve">
<style type="text/css">
	.st0{display:none;}
	.st1{display:inline;}
	.st2{fill:none;stroke:#000000;stroke-linecap:round;stroke-linejoin:round;stroke-miterlimit:10;}
</style>
<g id="Filled_Icon" class="st0">
	<g class="st1">
		<path d="M22.8,7.1L17.5,5v7l5.3-2.1c0.6-0.2,0.9-0.8,0.9-1.4C23.8,7.9,23.4,7.3,22.8,7.1z"/>
		<polygon points="12.5,14 16.5,12.4 16.5,4.6 12.5,3 		"/>
		<path d="M6.7,0.9C6.6,1,6.5,1.2,6.5,1.4V2L2,4.6V1c0-0.6-0.4-1-1-1S0,0.4,0,1v22c0,0.6,0.4,1,1,1s1-0.4,1-1v-9.9L6.5,15v0.6
			c0,0.2,0.1,0.3,0.2,0.4c0.1,0.1,0.3,0.1,0.5,0.1l4.3-1.7V2.6L7.2,0.9C7,0.8,6.9,0.8,6.7,0.9z M2,12V5.8l4.5-2.7V14L2,12z"/>
	</g>
</g>
<g id="Outline_Icons">
	<g>
		<path class="st2" d="M6.5,1.4l15.6,6.2c0.4,0.1,0.6,0.5,0.6,0.9s-0.2,0.8-0.6,0.9L6.5,15.7"/>
		<line class="st2" x1="0.5" y1="23.5" x2="0.5" y2="0.5"/>
		<line class="st2" x1="6.5" y1="2.2" x2="0.5" y2="5.8"/>
		<line class="st2" x1="6.5" y1="14.7" x2="0.5" y2="12.2"/>
		<line class="st2" x1="6.5" y1="1.4" x2="6.5" y2="15.7"/>
		<line class="st2" x1="11.5" y1="3.3" x2="11.5" y2="13.7"/>
		<line class="st2" x1="16.5" y1="5.3" x2="16.5" y2="11.7"/>
	</g>
</g>
</svg>
