<?xml version="1.0" encoding="utf-8"?>
<!-- Generator: Adobe Illustrator 19.2.0, SVG Export Plug-In . SVG Version: 6.00 Build 0)  -->
<svg version="1.1" id="Layer_1" xmlns="http://www.w3.org/2000/svg" xmlns:xlink="http://www.w3.org/1999/xlink" x="0px" y="0px"
	 viewBox="0 0 24 24" style="enable-background:new 0 0 24 24;" xml:space="preserve">
<style type="text/css">
	.st0{display:none;}
	.st1{display:inline;}
	.st2{fill:none;stroke:#000000;stroke-linejoin:round;stroke-miterlimit:10;}
</style>
<g id="Filled_Icons" class="st0">
	<g class="st1">
		<g>
			<polygon points="12,21.1 15.5,17.6 12,14.2 			"/>
			<path d="M11,13.2l-0.9-1.1l-9.9,10C0,22.3,0,22.5,0.1,22.7C0.2,22.9,0.3,23,0.5,23h9.4c0.1,0,0.3-0.1,0.4-0.1l0.7-0.7
				C11,22.2,11,13.2,11,13.2z"/>
		</g>
		<g>
			<polygon points="11,1.9 7.5,5.3 11,8.8 			"/>
			<path d="M22.9,0.3C22.8,0.1,22.7,0,22.5,0h-9.4c-0.1,0-0.3,0.1-0.4,0.1L12,0.9v8.9l0.9,1.1l9.9-10C23,0.7,23,0.5,22.9,0.3z"/>
		</g>
		<g>
			<path d="M22.2,12h-9l-1,0.9l10,9.9c0.1,0.1,0.2,0.1,0.4,0.1c0.1,0,0.1,0,0.2,0c0.2-0.1,0.3-0.3,0.3-0.5V13c0-0.1-0.1-0.3-0.1-0.4
				L22.2,12z"/>
			<polygon points="21.2,11 17.7,7.5 14.2,11 			"/>
		</g>
		<g>
			<path d="M0.9,11h8.9l1.1-0.9l-10-9.9C0.7,0,0.5,0,0.3,0C0.1,0.1,0,0.3,0,0.5v9.4c0,0.1,0,0.3,0.1,0.4L0.9,11z"/>
			<polygon points="1.9,12 5.3,15.5 8.8,12 			"/>
		</g>
	</g>
</g>
<g id="Outline_Icons">
	<g>
		<polygon class="st2" points="11.6,11.5 6.8,6.8 13.1,0.5 22.5,0.5 		"/>
		<polygon class="st2" points="11.5,11.5 16.2,6.7 22.5,13 22.5,22.4 		"/>
		<polygon class="st2" points="11.4,11.4 16.2,16.2 9.9,22.5 0.5,22.5 		"/>
		<polygon class="st2" points="11.5,11.4 6.8,16.2 0.5,9.9 0.5,0.5 		"/>
		<line class="st2" x1="11.5" y1="11.5" x2="11.5" y2="2"/>
		<line class="st2" x1="21" y1="11.5" x2="11.5" y2="11.5"/>
		<line class="st2" x1="11.5" y1="21" x2="11.5" y2="11.5"/>
		<line class="st2" x1="2.1" y1="11.5" x2="11.5" y2="11.5"/>
	</g>
</g>
</svg>
