<?xml version="1.0" encoding="utf-8"?>
<!-- Generator: Adobe Illustrator 19.2.0, SVG Export Plug-In . SVG Version: 6.00 Build 0)  -->
<svg version="1.1" id="Layer_1" xmlns="http://www.w3.org/2000/svg" xmlns:xlink="http://www.w3.org/1999/xlink" x="0px" y="0px"
	 viewBox="0 0 24 24" style="enable-background:new 0 0 24 24;" xml:space="preserve">
<style type="text/css">
	.st0{display:none;}
	.st1{display:inline;}
	.st2{fill:none;stroke:#000000;stroke-linejoin:round;stroke-miterlimit:10;}
	.st3{fill:none;stroke:#000000;stroke-linecap:round;stroke-linejoin:round;stroke-miterlimit:10;}
</style>
<g id="Filled_Icons" class="st0">
	<g class="st1">
		<path d="M22.7,14.5L15,11v5.5c1,0.8,2.3,1.5,3.7,1.5c0.1,0,0.1,0,0.2,0c1.4,0,2.7-0.6,4-1.9c0.1-0.1,0.4-0.3,0.4-0.7
			C23.3,15,23.1,14.7,22.7,14.5z"/>
		<path d="M12,7.6c1.2,0,2.2,0.7,2.7,1.7c0.7-1.6,1.3-3.9,0.5-5.9c-0.6-1.5-1.8-2.6-3.7-3.2c-0.2-0.1-0.5-0.2-0.8,0
			C10.5,0.3,10,0.6,10,1.1v7.3C10.5,7.9,11.2,7.6,12,7.6z"/>
		<path d="M9,10.6c0-0.1,0-0.3,0-0.4C6.8,9.8,4.3,10,2.5,11.3c-1.4,1-2,2.6-2,4.7c0,0.2,0,0.5,0.2,0.7S1.1,17,1.4,17
			c0.1,0,0.2,0,0.3-0.1L9,14.3V10.6L9,10.6z"/>
		<path d="M23.5,23H14V10.6c0-1.1-0.9-2.1-2-2.1s-2,1-2,2.1V23H0.5C0.2,23,0,23.2,0,23.5S0.2,24,0.5,24h23c0.3,0,0.5-0.2,0.5-0.5
			S23.8,23,23.5,23z"/>
	</g>
</g>
<g id="Outline_Icons">
	<g>
		<path class="st2" d="M10.4,13.3l-8.8,3.3c-0.2,0.1-0.4,0-0.5-0.1C1,16.3,1,16.1,1,15.9C1,10,7,10,10.5,11"/>
		<path class="st2" d="M10.5,10.6V1.1c0-0.2,0.3-0.4,0.5-0.5s0.3,0,0.5,0.1c5.2,1.8,3.7,7,2.1,9.8"/>
		<path class="st2" d="M13.5,10.8l9,4.1c0.2,0.1,0.3,0.2,0.3,0.4s-0.2,0.3-0.3,0.4c-3.4,3.4-6.9,0.9-9-1.5"/>
		<line class="st3" x1="23.5" y1="23.5" x2="0.5" y2="23.5"/>
		<path class="st2" d="M10.5,10.6c0-0.8,0.7-1.5,1.5-1.5s1.5,0.7,1.5,1.5v12.9h-3V10.6z"/>
	</g>
</g>
</svg>
