<?xml version="1.0" encoding="utf-8"?>
<!-- Generator: Adobe Illustrator 19.2.0, SVG Export Plug-In . SVG Version: 6.00 Build 0)  -->
<svg version="1.1" id="Outline_Icons" xmlns="http://www.w3.org/2000/svg" xmlns:xlink="http://www.w3.org/1999/xlink" x="0px"
	 y="0px" viewBox="0 0 24 24" style="enable-background:new 0 0 24 24;" xml:space="preserve">
<style type="text/css">
	.st0{fill:none;stroke:#000000;stroke-linecap:round;stroke-linejoin:round;stroke-miterlimit:10;}
</style>
<g>
	<path class="st0" d="M12,20.5H2.5c-1.1,0-2-0.9-2-2v-14c0-1.1,0.9-2,2-2h19c1.1,0,2,0.9,2,2V12"/>
	<line class="st0" x1="0.5" y1="7.5" x2="23.5" y2="7.5"/>
	<circle class="st0" cx="4" cy="5" r="0.5"/>
	<circle class="st0" cx="7" cy="5" r="0.5"/>
	<circle class="st0" cx="10" cy="5" r="0.5"/>
	<line class="st0" x1="18.5" y1="10.5" x2="8.5" y2="10.5"/>
	<line class="st0" x1="4.5" y1="10.5" x2="5.5" y2="10.5"/>
	<line class="st0" x1="12.5" y1="13.5" x2="8.5" y2="13.5"/>
	<line class="st0" x1="4.5" y1="13.5" x2="5.5" y2="13.5"/>
	<line class="st0" x1="12.5" y1="16.5" x2="8.5" y2="16.5"/>
	<line class="st0" x1="4.5" y1="16.5" x2="5.5" y2="16.5"/>
	<circle class="st0" cx="19.1" cy="16.3" r="2.8"/>
	<path class="st0" d="M23.5,23.5h-8.8c0-2.4,2-4.4,4.4-4.4S23.5,21.1,23.5,23.5z"/>
</g>
</svg>
