<?xml version="1.0" encoding="utf-8"?>
<!-- Generator: Adobe Illustrator 19.2.0, SVG Export Plug-In . SVG Version: 6.00 Build 0)  -->
<svg version="1.1" id="Outline_Icons" xmlns="http://www.w3.org/2000/svg" xmlns:xlink="http://www.w3.org/1999/xlink" x="0px"
	 y="0px" viewBox="0 0 24 24" style="enable-background:new 0 0 24 24;" xml:space="preserve">
<style type="text/css">
	.st0{fill:none;stroke:#000000;stroke-linecap:round;stroke-linejoin:round;stroke-miterlimit:10;}
</style>
<g>
	<line class="st0" x1="3.5" y1="4.5" x2="23.5" y2="4.5"/>
	<g>
		<g>
			<path d="M6.5,2C6.2,2,6,2.2,6,2.5S6.2,3,6.5,3S7,2.8,7,2.5S6.8,2,6.5,2L6.5,2z"/>
		</g>
	</g>
	<g>
		<g>
			<path d="M8.5,2C8.2,2,8,2.2,8,2.5S8.2,3,8.5,3S9,2.8,9,2.5S8.8,2,8.5,2L8.5,2z"/>
		</g>
	</g>
	<g>
		<g>
			<path d="M10.5,2C10.2,2,10,2.2,10,2.5S10.2,3,10.5,3S11,2.8,11,2.5S10.8,2,10.5,2L10.5,2z"/>
		</g>
	</g>
	<path class="st0" d="M3.5,9.3V2.5c0-1.1,0.9-2,2-2h16c1.1,0,2,0.9,2,2v11c0,1.1-0.9,2-2,2H10.8"/>
	<path class="st0" d="M0.5,21.5c0,0.6,0.4,1,1,1h8c0.6,0,1-0.4,1-1v-11c0-0.6-0.4-1-1-1h-8c-0.6,0-1,0.4-1,1V21.5z"/>
	<polyline class="st0" points="4.5,11.5 7,14 4.5,16.5 	"/>
	<line class="st0" x1="4.1" y1="20.4" x2="6.9" y2="17.6"/>
	<path class="st0" d="M13,22.5h3.2c0.8,0,1.3-1,1.3-1.9v-3"/>
	<polyline class="st0" points="19.5,19.6 17.5,17.6 15.5,19.6 	"/>
</g>
</svg>
