<?xml version="1.0" encoding="utf-8"?>
<!-- Generator: Adobe Illustrator 19.2.0, SVG Export Plug-In . SVG Version: 6.00 Build 0)  -->
<svg version="1.1" id="Outline_Icons" xmlns="http://www.w3.org/2000/svg" xmlns:xlink="http://www.w3.org/1999/xlink" x="0px"
	 y="0px" viewBox="0 0 24 24" style="enable-background:new 0 0 24 24;" xml:space="preserve">
<style type="text/css">
	.st0{fill:none;stroke:#000000;stroke-linecap:round;stroke-linejoin:round;stroke-miterlimit:10;}
</style>
<g>
	<line class="st0" x1="0.5" y1="6.5" x2="19.5" y2="6.5"/>
	<g>
		<g>
			<path d="M3.5,4C3.2,4,3,4.2,3,4.5S3.2,5,3.5,5S4,4.8,4,4.5S3.8,4,3.5,4L3.5,4z"/>
		</g>
	</g>
	<g>
		<g>
			<path d="M5.5,4C5.2,4,5,4.2,5,4.5S5.2,5,5.5,5S6,4.8,6,4.5S5.8,4,5.5,4L5.5,4z"/>
		</g>
	</g>
	<g>
		<g>
			<path d="M7.5,4C7.2,4,7,4.2,7,4.5S7.2,5,7.5,5S8,4.8,8,4.5S7.8,4,7.5,4L7.5,4z"/>
		</g>
	</g>
	<path class="st0" d="M19.5,14.5c0,1.1-0.9,2-2,2h-15c-1.1,0-2-0.9-2-2v-10c0-1.1,0.9-2,2-2h15c1.1,0,2,0.9,2,2V14.5z"/>
	<path class="st0" d="M19.5,4.5c1.1,0,2,0.9,2,2v10c0,1.1-0.9,2-2,2h-15c-1.1,0-2-0.9-2-2"/>
	<path class="st0" d="M21.5,6.5c1.1,0,2,0.9,2,2v10c0,1.1-0.9,2-2,2h-15c-1.1,0-2-0.9-2-2"/>
</g>
</svg>
