<?xml version="1.0" encoding="utf-8"?>
<!-- Generator: Adobe Illustrator 19.2.0, SVG Export Plug-In . SVG Version: 6.00 Build 0)  -->
<svg version="1.1" id="Outline_Icons" xmlns="http://www.w3.org/2000/svg" xmlns:xlink="http://www.w3.org/1999/xlink" x="0px"
	 y="0px" viewBox="0 0 24 24" style="enable-background:new 0 0 24 24;" xml:space="preserve">
<style type="text/css">
	.st0{fill:none;stroke:#000000;stroke-linecap:round;stroke-linejoin:round;stroke-miterlimit:10;}
	.st1{fill:none;stroke:#000000;stroke-linejoin:round;stroke-miterlimit:10;}
</style>
<g>
	<line class="st0" x1="0.5" y1="4.5" x2="20.5" y2="4.5"/>
	<g>
		<g>
			<path d="M3.5,2C3.2,2,3,2.2,3,2.5S3.2,3,3.5,3S4,2.8,4,2.5S3.8,2,3.5,2L3.5,2z"/>
		</g>
	</g>
	<g>
		<g>
			<path d="M5.5,2C5.2,2,5,2.2,5,2.5S5.2,3,5.5,3S6,2.8,6,2.5S5.8,2,5.5,2L5.5,2z"/>
		</g>
	</g>
	<g>
		<g>
			<path d="M7.5,2C7.2,2,7,2.2,7,2.5S7.2,3,7.5,3S8,2.8,8,2.5S7.8,2,7.5,2L7.5,2z"/>
		</g>
	</g>
	<path class="st0" d="M9.5,16.5h-7c-1.1,0-2-0.9-2-2v-12c0-1.1,0.9-2,2-2h16c1.1,0,2,0.9,2,2v8"/>
	<path class="st1" d="M16.5,13.8c-0.5,0.2-1,0.5-1.4,0.8L14,14l-1.5,2.6l1.1,0.6c0,0.3-0.1,0.5-0.1,0.8s0,0.6,0.1,0.8l-1.1,0.6
		L14,22l1.1-0.6c0.4,0.4,0.9,0.6,1.4,0.8v1.3h3v-1.3c0.5-0.2,1-0.5,1.4-0.8L22,22l1.5-2.6l-1.1-0.6c0-0.3,0.1-0.5,0.1-0.8
		s0-0.6-0.1-0.8l1.1-0.6L22,14l-1.1,0.6c-0.4-0.4-0.9-0.6-1.4-0.8v-1.3h-3V13.8z"/>
	<circle class="st1" cx="18" cy="18" r="2"/>
</g>
</svg>
