<?xml version="1.0" encoding="utf-8"?>
<!-- Generator: Adobe Illustrator 19.2.0, SVG Export Plug-In . SVG Version: 6.00 Build 0)  -->
<svg version="1.1" id="Layer_1" xmlns="http://www.w3.org/2000/svg" xmlns:xlink="http://www.w3.org/1999/xlink" x="0px" y="0px"
	 viewBox="0 0 24 24" style="enable-background:new 0 0 24 24;" xml:space="preserve">
<style type="text/css">
	.st0{display:none;}
	.st1{display:inline;}
	.st2{fill:none;stroke:#000000;stroke-linejoin:round;stroke-miterlimit:10;}
	.st3{fill:none;stroke:#000000;stroke-linecap:round;stroke-linejoin:round;stroke-miterlimit:10;}
</style>
<g id="Filled_Icons" class="st0">
	<path class="st1" d="M17,12.5l-0.5-6l-0.5-6C16,0.2,15.8,0,15.5,0h-6C9.2,0,9,0.2,9,0.5l-0.5,6l-0.5,6c0,2.3,1.8,4.2,4,4.5v6h-2
		c-0.3,0-0.5,0.2-0.5,0.5S9.7,24,10,24h5c0.3,0,0.5-0.2,0.5-0.5S15.3,23,15,23h-2v-6C15.2,16.7,17,14.8,17,12.5z M13.5,12.5
		c-0.3,0-0.5-0.2-0.5-0.5s0.2-0.5,0.5-0.5S14,11.7,14,12S13.8,12.5,13.5,12.5z M14.5,10C14.2,10,14,9.8,14,9.5S14.2,9,14.5,9
		S15,9.2,15,9.5S14.8,10,14.5,10z M10,1H15l0.4,5H9.5L10,1z M10.5,12c-0.3,0-0.5-0.2-0.5-0.5s0.2-0.5,0.5-0.5c0.3,0,0.5,0.2,0.5,0.5
		S10.8,12,10.5,12z M11.5,9C11.2,9,11,8.8,11,8.5S11.2,8,11.5,8C11.8,8,12,8.2,12,8.5S11.8,9,11.5,9z M12.5,14.5
		c-0.3,0-0.5-0.2-0.5-0.5s0.2-0.5,0.5-0.5c0.3,0,0.5,0.2,0.5,0.5C13,14.3,12.8,14.5,12.5,14.5z"/>
</g>
<g id="Outline_Icons">
	<g>
		<line class="st2" x1="12.5" y1="16.5" x2="12.5" y2="23.5"/>
		<line class="st3" x1="10" y1="23.5" x2="15" y2="23.5"/>
		<line class="st2" x1="9" y1="6.5" x2="16" y2="6.5"/>
		<g>
			<g>
				<path d="M10.5,11c-0.3,0-0.5,0.2-0.5,0.5s0.2,0.5,0.5,0.5s0.5-0.2,0.5-0.5S10.8,11,10.5,11L10.5,11z"/>
			</g>
		</g>
		<g>
			<g>
				<path d="M11.5,8C11.2,8,11,8.2,11,8.5S11.2,9,11.5,9S12,8.8,12,8.5S11.8,8,11.5,8L11.5,8z"/>
			</g>
		</g>
		<g>
			<g>
				<path d="M11.5,14c-0.3,0-0.5,0.2-0.5,0.5c0,0.3,0.2,0.5,0.5,0.5s0.5-0.2,0.5-0.5C12,14.2,11.8,14,11.5,14L11.5,14z"/>
			</g>
		</g>
		<g>
			<g>
				<path d="M13.5,12c-0.3,0-0.5,0.2-0.5,0.5c0,0.3,0.2,0.5,0.5,0.5s0.5-0.2,0.5-0.5C14,12.2,13.8,12,13.5,12L13.5,12z"/>
			</g>
		</g>
		<g>
			<g>
				<path d="M14.5,9C14.2,9,14,9.2,14,9.5s0.2,0.5,0.5,0.5S15,9.8,15,9.5S14.8,9,14.5,9L14.5,9z"/>
			</g>
		</g>
		<path class="st3" d="M8.5,12.5l1-12h6l1,12c0,2.2-1.8,4-4,4S8.5,14.7,8.5,12.5z"/>
	</g>
</g>
</svg>
