<?xml version="1.0" encoding="utf-8"?>
<!-- Generator: Adobe Illustrator 19.2.0, SVG Export Plug-In . SVG Version: 6.00 Build 0)  -->
<svg version="1.1" id="Layer_1" xmlns="http://www.w3.org/2000/svg" xmlns:xlink="http://www.w3.org/1999/xlink" x="0px" y="0px"
	 viewBox="0 0 24 24" style="enable-background:new 0 0 24 24;" xml:space="preserve">
<style type="text/css">
	.st0{display:none;}
	.st1{display:inline;}
	.st2{fill:none;stroke:#000000;stroke-linejoin:round;stroke-miterlimit:10;}
	.st3{fill:none;stroke:#000000;stroke-linecap:round;stroke-linejoin:round;stroke-miterlimit:10;}
</style>
<g id="Filled_Icons" class="st0">
	<path class="st1" d="M19.5,8c0-0.2-1-7.3-1-7.6C18.5,0.2,18.2,0,18,0H7C6.7,0,6.5,0.2,6.5,0.4c0,0.1-1,7.4-1,7.6
		c0,3.7,2.9,6.7,6.5,7v8H9.5C9.2,23,9,23.2,9,23.5S9.2,24,9.5,24h6c0.3,0,0.5-0.2,0.5-0.5S15.8,23,15.5,23H13v-8
		C16.6,14.7,19.5,11.7,19.5,8z M6.8,6l0.7-5h10.1l0.7,5H6.8z"/>
</g>
<g id="Outline_Icons">
	<g>
		<line class="st2" x1="12.5" y1="14.5" x2="12.5" y2="23.5"/>
		<line class="st3" x1="9.5" y1="23.5" x2="15.5" y2="23.5"/>
		<path class="st3" d="M6,8l1-7.5h11L19,8c0,3.6-2.9,6.5-6.5,6.5S6,11.6,6,8z"/>
		<line class="st2" x1="6.2" y1="6.5" x2="18.7" y2="6.5"/>
	</g>
</g>
</svg>
