<?xml version="1.0" encoding="utf-8"?>
<!-- Generator: Adobe Illustrator 19.2.0, SVG Export Plug-In . SVG Version: 6.00 Build 0)  -->
<svg version="1.1" id="Layer_1" xmlns="http://www.w3.org/2000/svg" xmlns:xlink="http://www.w3.org/1999/xlink" x="0px" y="0px"
	 viewBox="0 0 24 24" style="enable-background:new 0 0 24 24;" xml:space="preserve">
<style type="text/css">
	.st0{display:none;}
	.st1{display:inline;}
	.st2{fill:none;stroke:#000000;stroke-linecap:round;stroke-linejoin:round;stroke-miterlimit:10;}
</style>
<g id="Filled_Icons" class="st0">
	<g class="st1">
		<path d="M19.2,11h-15c-1.7,0-3,1.3-3,3s1.3,3,3,3H5l1.7,6.6C6.7,23.8,6.9,24,7.2,24h9c0.2,0,0.4-0.2,0.5-0.4l1.7-6.6h0.9
			c1.7,0,3-1.3,3-3S20.8,11,19.2,11z M4.2,16c-1.1,0-2-0.9-2-2c0-1,0.7-1.8,1.6-2l1,4H4.2z M19.2,16h-0.6l1-4c0.9,0.2,1.6,1,1.6,2
			C21.2,15.1,20.3,16,19.2,16z"/>
		<g>
			<path d="M21.6,4l1.8-1.8c0.1-0.1,0.1-0.2,0.1-0.4c0-0.1-0.1-0.3-0.1-0.4l-1.4-1.4c-0.2-0.2-0.5-0.2-0.7,0l-1.8,1.8L21.6,4z"/>
			<polygon points="12,10 9.6,7.6 7.1,10 			"/>
			<path d="M13.4,10h5c0.1-0.7,0.1-1.3,0.1-1.7c0-1,0-1.2,0.9-2.1l1.4-1.4l-2.1-2.1L17.3,4C16.4,5,16.2,5,15.2,5c-1.1,0-3,0-4.6,1.6
				l-0.4,0.4L13.4,10z"/>
		</g>
	</g>
</g>
<g id="Outline_Icons">
	<g>
		<path class="st2" d="M6.4,11.5c1.6-1.6,3.7-3.7,4.6-4.6c1.4-1.4,3.2-1.4,4.2-1.4c1.1,0,1.4,0,2.5-1.1c1.1-1.1,3.9-3.9,3.9-3.9"/>
		<path class="st2" d="M23,1.9c0,0-2.8,2.8-3.9,3.9C18,6.9,18,7.2,18,8.3c0,0.8,0,1.9-0.5,3"/>
		<line class="st2" x1="10.3" y1="7.6" x2="14.1" y2="11.4"/>
		<rect x="19.7" y="1.3" transform="matrix(0.7071 -0.7071 0.7071 0.7071 4.6154 15.678)" class="st2" width="3" height="2"/>
		<polygon class="st2" points="4.2,11.5 19.2,11.5 16.2,23.5 7.2,23.5 		"/>
		<path class="st2" d="M19.2,11.5c1.4,0,2.5,1.1,2.5,2.5c0,1.4-1.1,2.5-2.5,2.5H18"/>
		<path class="st2" d="M4.2,11.5c-1.4,0-2.5,1.1-2.5,2.5c0,1.4,1.1,2.5,2.5,2.5h1.2"/>
	</g>
</g>
</svg>
