<?xml version="1.0" encoding="utf-8"?>
<!-- Generator: Adobe Illustrator 19.2.0, SVG Export Plug-In . SVG Version: 6.00 Build 0)  -->
<svg version="1.1" id="Layer_1" xmlns="http://www.w3.org/2000/svg" xmlns:xlink="http://www.w3.org/1999/xlink" x="0px" y="0px"
	 viewBox="0 0 24 24" style="enable-background:new 0 0 24 24;" xml:space="preserve">
<style type="text/css">
	.st0{display:none;}
	.st1{display:inline;}
	.st2{fill:none;stroke:#000000;stroke-linejoin:round;stroke-miterlimit:10;}
	.st3{fill:none;stroke:#000000;stroke-linecap:round;stroke-linejoin:round;stroke-miterlimit:10;}
</style>
<g id="Filled_Icons" class="st0">
	<g class="st1">
		<path d="M11.5,10.4l-1.8,1.8c-0.2,0.2-0.2,0.5,0,0.7l0.4,0.4l-1.1,1.1l-1.3-0.7c-0.4-0.2-0.9-0.1-1.2,0.2C6.1,14.1,6,14.6,6.2,15
			l1.8,3.3l-2.8-1.5C4.9,16.6,4.3,16.6,4,17c-0.3,0.4-0.3,0.9,0,1.3l2,2.6l-2.2-0.6c-0.3-0.1-0.7,0-1,0.3l-2.6,2.6
			c-0.2,0.2-0.2,0.5,0,0.7C0.2,24,0.4,24,0.5,24s0.3,0,0.4-0.1l2.6-2.6l2.2,0.6c0.4,0.1,0.9,0,1.1-0.4c0.2-0.4,0.2-0.8,0-1.2l-2-2.6
			l2.8,1.5C8,19.4,8.4,19.4,8.8,19c0.3-0.3,0.4-0.8,0.2-1.2l-1.8-3.3l1.3,0.7c0.4,0.2,0.9,0.1,1.2-0.2l1.1-1.1l0.4,0.4
			c0.1,0.1,0.2,0.1,0.4,0.1s0.3,0,0.4-0.1l1.8-1.8L11.5,10.4z"/>
		<path d="M22.4,11.5l-9.9-9.9c-0.9-0.9-2.6-0.9-3.5,0L8.3,2.3c-1,1-1,2.6,0,3.5l9.9,9.9c1,1,2.6,1,3.5,0l0.7-0.7
			C23.4,14,23.4,12.5,22.4,11.5z"/>
	</g>
</g>
<g id="Outline_Icons">
	<g>
		<path class="st2" d="M21.4,15.4c-0.8,0.8-2,0.8-2.8,0L8.6,5.5c-0.8-0.8-0.8-2,0-2.8l0.7-0.7c0.8-0.8,2-0.8,2.8,0l9.9,9.9
			c0.8,0.8,0.8,2,0,2.8L21.4,15.4z"/>
		<path class="st3" d="M10.8,13.2l-1.5,1.5c-0.2,0.2-0.4,0.2-0.6,0.1l-1.3-0.7C7.1,14,6.9,14,6.7,14.2c-0.2,0.2-0.2,0.4-0.1,0.6
			l1.8,3.3c0.1,0.2,0.1,0.4-0.1,0.6c-0.2,0.2-0.4,0.2-0.6,0.1L5,17.2c-0.2-0.1-0.5-0.1-0.6,0.1c-0.2,0.2-0.2,0.4,0,0.6l2,2.6
			c0.1,0.2,0.1,0.4,0,0.6c-0.1,0.2-0.3,0.3-0.5,0.2l-2.2-0.6c-0.2,0-0.4,0-0.5,0.1l-2.6,2.6"/>
		<rect x="10.2" y="10.8" transform="matrix(0.7075 -0.7068 0.7068 0.7075 -4.8021 12.0611)" class="st2" width="4" height="2"/>
	</g>
</g>
</svg>
