<?xml version="1.0" encoding="utf-8"?>
<!-- Generator: Adobe Illustrator 19.2.0, SVG Export Plug-In . SVG Version: 6.00 Build 0)  -->
<svg version="1.1" id="Outline_Icons" xmlns="http://www.w3.org/2000/svg" xmlns:xlink="http://www.w3.org/1999/xlink" x="0px"
	 y="0px" viewBox="0 0 24 24" style="enable-background:new 0 0 24 24;" xml:space="preserve">
<style type="text/css">
	.st0{fill:none;stroke:#000000;stroke-linejoin:round;stroke-miterlimit:10;}
	.st1{fill:none;stroke:#000000;stroke-linecap:round;stroke-linejoin:round;stroke-miterlimit:10;}
</style>
<g>
	<path class="st0" d="M4.6,14.5c-0.6,0.9-0.6,2-0.6,2h2.1c0.1,1,0.4,1.1,0.7,1.6c-1.5,1.7,0.4,3.5,0.4,3.5L8.7,20
		c0.5,0.3,1.3,0.6,1.9,0.8c0.1,2.2,2.9,2.2,2.9,2.2v-2.1c1-0.1,1.1-0.4,1.6-0.7c1.7,1.5,3.5-0.4,3.5-0.4L17,18.3
		c0.3-0.5,0.6-1.3,0.8-1.9c1.3-0.1,1.8-1.1,2.1-1.9"/>
	<circle class="st0" cx="12" cy="15" r="2.5"/>
	<path class="st0" d="M6.5,14.5C6.5,11.4,9,9,12,9s5.5,2.4,5.5,5.5h5C22.5,8.5,17.8,4,12,4S1.5,8.5,1.5,14.5H6.5z"/>
	<path class="st0" d="M4.5,7V2c0-0.8-0.7-1.5-1.5-1.5S1.5,1.2,1.5,2v12"/>
	<line class="st1" x1="1.5" y1="3.5" x2="4.5" y2="3.5"/>
	<line class="st1" x1="1.5" y1="6.5" x2="4.5" y2="6.5"/>
</g>
</svg>
