<?xml version="1.0" encoding="utf-8"?>
<!-- Generator: Adobe Illustrator 19.2.0, SVG Export Plug-In . SVG Version: 6.00 Build 0)  -->
<svg version="1.1" id="Layer_1" xmlns="http://www.w3.org/2000/svg" xmlns:xlink="http://www.w3.org/1999/xlink" x="0px" y="0px"
	 viewBox="0 0 24 24" style="enable-background:new 0 0 24 24;" xml:space="preserve">
<style type="text/css">
	.st0{display:none;}
	.st1{display:inline;}
	.st2{fill:none;stroke:#000000;stroke-linecap:round;stroke-linejoin:round;stroke-miterlimit:10;}
</style>
<g id="Filled_Icons" class="st0">
	<path class="st1" d="M23.9,9.2l-3-3c-0.2-0.2-0.5-0.2-0.7,0l-3,3c-0.1,0-0.2,0.2-0.2,0.3V11h-1V9.5c0-0.1-0.1-0.3-0.1-0.4l-3.5-3.5
		c-0.2-0.2-0.5-0.2-0.7,0L8.1,9.2c0,0-0.1,0.2-0.1,0.3V11H7V9.5c0-0.1-0.1-0.3-0.1-0.4l-3-3C3.7,6,3.3,6,3.1,6.2l-3,3
		c0,0-0.1,0.2-0.1,0.3v14C0,23.8,0.2,24,0.5,24h6C6.8,24,7,23.8,7,23.5V21h1v2.5C8,23.8,8.2,24,8.5,24h7c0.3,0,0.5-0.2,0.5-0.5V21h1
		v2.5c0,0.3,0.2,0.5,0.5,0.5h6c0.3,0,0.5-0.2,0.5-0.5v-14C24,9.4,23.9,9.2,23.9,9.2z M8,20H7v-8h1V20z M17,20h-1v-8h1V20z"/>
</g>
<g id="Outline_Icons">
	<g>
		<polygon class="st2" points="6.5,23.5 0.5,23.5 0.5,9.5 3.5,6.5 6.5,9.5 		"/>
		<polygon class="st2" points="15.5,23.5 8.5,23.5 8.5,9.5 12,6 15.5,9.5 		"/>
		<polygon class="st2" points="23.5,23.5 17.5,23.5 17.5,9.5 20.5,6.5 23.5,9.5 		"/>
		<line class="st2" x1="6.5" y1="11.5" x2="8.5" y2="11.5"/>
		<line class="st2" x1="6.5" y1="20.5" x2="8.5" y2="20.5"/>
		<line class="st2" x1="15.5" y1="11.5" x2="17.5" y2="11.5"/>
		<line class="st2" x1="15.5" y1="20.5" x2="17.5" y2="20.5"/>
	</g>
</g>
</svg>
