<?xml version="1.0" encoding="utf-8"?>
<!-- Generator: Adobe Illustrator 19.2.0, SVG Export Plug-In . SVG Version: 6.00 Build 0)  -->
<svg version="1.1" id="Layer_1" xmlns="http://www.w3.org/2000/svg" xmlns:xlink="http://www.w3.org/1999/xlink" x="0px" y="0px"
	 viewBox="0 0 24 24" style="enable-background:new 0 0 24 24;" xml:space="preserve">
<style type="text/css">
	.st0{display:none;}
	.st1{display:inline;}
	.st2{fill:none;stroke:#000000;stroke-linejoin:round;stroke-miterlimit:10;}
</style>
<g id="Filled_Icons" class="st0">
	<g class="st1">
		<g>
			<path d="M7,7.5h3V0C8.9,0.1,7.9,0.3,7,0.8V7.5z"/>
			<rect x="11" y="11.5" width="3" height="5"/>
			<rect x="7" y="20.5" width="3" height="3.5"/>
			<path d="M10,11.5H2v5h8V11.5z M6,15.5c-0.8,0-1.5-0.7-1.5-1.5s0.7-1.5,1.5-1.5s1.5,0.7,1.5,1.5S6.8,15.5,6,15.5z"/>
			<path d="M14,0.8c-0.9-0.4-1.9-0.7-3-0.7v7.5h3V0.8z"/>
			<rect x="11" y="20.5" width="3" height="3.5"/>
			<path d="M15,20.5V24h3.5c0.3,0,0.5-0.2,0.5-0.5v-3H15z"/>
			<rect x="15" y="11.5" width="4" height="5"/>
			<path d="M6,20.5H2v3C2,23.8,2.2,24,2.5,24H6V20.5z"/>
			<path d="M15,7.5h3.9c-0.3-2.6-1.8-4.9-3.9-6.2V7.5z"/>
			<path d="M6,7.5V1.3C3.9,2.6,2.4,4.9,2.1,7.5H6z"/>
		</g>
		<path d="M20.5,8.5h-18C2.2,8.5,2,8.7,2,9v1c0,0.3,0.2,0.5,0.5,0.5h18c0.3,0,0.5-0.2,0.5-0.5V9C21,8.7,20.8,8.5,20.5,8.5z"/>
		<path d="M20.5,17.5h-18C2.2,17.5,2,17.7,2,18v1c0,0.3,0.2,0.5,0.5,0.5h18c0.3,0,0.5-0.2,0.5-0.5v-1C21,17.7,20.8,17.5,20.5,17.5z"
			/>
	</g>
</g>
<g id="Outline_Icons">
	<g>
		<line class="st2" x1="6.5" y1="19.5" x2="6.5" y2="23.5"/>
		<line class="st2" x1="6.5" y1="1.6" x2="6.5" y2="8.5"/>
		<line class="st2" x1="10.5" y1="0.5" x2="10.5" y2="23.5"/>
		<line class="st2" x1="14.5" y1="1.6" x2="14.5" y2="23.5"/>
		<path class="st2" d="M2.5,8.5c0-4.4,3.6-8,8-8s8,3.6,8,8v15h-16V8.5z"/>
		<circle class="st2" cx="6" cy="14" r="1.5"/>
		<rect x="2.5" y="8.5" class="st2" width="18" height="2"/>
		<rect x="2.5" y="17.5" class="st2" width="18" height="2"/>
	</g>
</g>
</svg>
