<?xml version="1.0" encoding="utf-8"?>
<!-- Generator: Adobe Illustrator 19.2.0, SVG Export Plug-In . SVG Version: 6.00 Build 0)  -->
<svg version="1.1" id="Layer_1" xmlns="http://www.w3.org/2000/svg" xmlns:xlink="http://www.w3.org/1999/xlink" x="0px" y="0px"
	 viewBox="0 0 24 24" style="enable-background:new 0 0 24 24;" xml:space="preserve">
<style type="text/css">
	.st0{display:none;}
	.st1{display:inline;}
	.st2{fill:none;stroke:#000000;stroke-linejoin:round;stroke-miterlimit:10;}
</style>
<g id="Filled_Icons" class="st0">
	<g class="st1">
		<path d="M17,4h-6c1.2,0.9,2,2.4,2,4s-0.8,3.1-2,4h6c2.2,0,4-1.8,4-4S19.2,4,17,4z M16,10h-1.5C14.2,10,14,9.8,14,9.5
			S14.2,9,14.5,9H16c0.3,0,0.5,0.2,0.5,0.5S16.3,10,16,10z M14.5,7C14.2,7,14,6.8,14,6.5S14.2,6,14.5,6H18c0.3,0,0.5,0.2,0.5,0.5
			S18.3,7,18,7H14.5z M19.5,9h-2C17.2,9,17,8.8,17,8.5S17.2,8,17.5,8h2C19.8,8,20,8.2,20,8.5S19.8,9,19.5,9z"/>
		<path d="M8,4C5.8,4,4,5.8,4,8s1.8,4,4,4s4-1.8,4-4S10.2,4,8,4z M8,10c-1.1,0-2-0.9-2-2s0.9-2,2-2s2,0.9,2,2S9.1,10,8,10z"/>
		<path d="M21,18c-0.3,0-0.5-0.2-0.5-0.5S20.7,17,21,17h3c0-0.3-0.1-0.7-0.1-1H22c-0.3,0-0.5-0.2-0.5-0.5S21.7,15,22,15h1.4
			c-0.7-1.2-2-2-3.4-2h-4c1.2,0.9,2,2.4,2,4s-0.8,3.1-2,4h4c1.9,0,3.4-1.3,3.9-3H21z M19.5,19H19c-0.3,0-0.5-0.2-0.5-0.5
			S18.7,18,19,18h0.5c0.3,0,0.5,0.2,0.5,0.5S19.8,19,19.5,19z M20,16h-1c-0.3,0-0.5-0.2-0.5-0.5S18.7,15,19,15h1
			c0.3,0,0.5,0.2,0.5,0.5S20.3,16,20,16z"/>
		<path d="M4,13c-2.2,0-4,1.8-4,4s1.8,4,4,4s4-1.8,4-4S6.2,13,4,13z M4,19c-1.1,0-2-0.9-2-2s0.9-2,2-2s2,0.9,2,2S5.1,19,4,19z"/>
		<g>
			<g>
				<path d="M8.5,19.1C8.1,19.9,7.6,20.5,7,21h3C9.4,20.5,8.9,19.9,8.5,19.1z"/>
			</g>
			<g>
				<path d="M8.5,14.9c0.4-0.7,0.9-1.4,1.5-1.9H7C7.6,13.5,8.1,14.1,8.5,14.9z"/>
			</g>
		</g>
		<path d="M13,13c-2.2,0-4,1.8-4,4s1.8,4,4,4s4-1.8,4-4S15.2,13,13,13z M13,19c-1.1,0-2-0.9-2-2s0.9-2,2-2s2,0.9,2,2S14.1,19,13,19z
			"/>
	</g>
</g>
<g id="Outline_Icons">
	<g>
		<circle class="st2" cx="8" cy="9" r="3.5"/>
		<circle class="st2" cx="8" cy="9" r="1.5"/>
		<circle class="st2" cx="11" cy="16" r="1.5"/>
		<circle class="st2" cx="4" cy="16" r="1.5"/>
		<path class="st2" d="M8,5.5h9c1.9,0,3.5,1.6,3.5,3.5s-1.6,3.5-3.5,3.5H8"/>
		<circle class="st2" cx="11" cy="16" r="3.5"/>
		<path class="st2" d="M11,12.5h9c1.9,0,3.5,1.6,3.5,3.5s-1.6,3.5-3.5,3.5h-9"/>
		<circle class="st2" cx="4" cy="16" r="3.5"/>
		<line class="st2" x1="11" y1="19.5" x2="4" y2="19.5"/>
		<line class="st2" x1="4" y1="12.5" x2="11" y2="12.5"/>
		<line class="st2" x1="13" y1="7.5" x2="17" y2="7.5"/>
		<line class="st2" x1="16" y1="9.5" x2="18" y2="9.5"/>
		<line class="st2" x1="16" y1="14.5" x2="18" y2="14.5"/>
		<line class="st2" x1="19" y1="14.5" x2="21" y2="14.5"/>
		<line class="st2" x1="18" y1="16.5" x2="22" y2="16.5"/>
		<line class="st2" x1="16" y1="17.5" x2="17" y2="17.5"/>
		<line class="st2" x1="13" y1="10.5" x2="15" y2="10.5"/>
	</g>
</g>
</svg>
