<?xml version="1.0" encoding="utf-8"?>
<!-- Generator: Adobe Illustrator 19.2.0, SVG Export Plug-In . SVG Version: 6.00 Build 0)  -->
<svg version="1.1" id="Layer_1" xmlns="http://www.w3.org/2000/svg" xmlns:xlink="http://www.w3.org/1999/xlink" x="0px" y="0px"
	 viewBox="0 0 24 24" style="enable-background:new 0 0 24 24;" xml:space="preserve">
<style type="text/css">
	.st0{display:none;}
	.st1{display:inline;}
	.st2{fill:none;stroke:#000000;stroke-linecap:round;stroke-linejoin:round;stroke-miterlimit:10;}
</style>
<g id="Filled_Icons" class="st0">
	<g class="st1">
		<g>
			<path d="M21.2,7c0.5-0.2,1.1-0.2,1.6-0.1c-0.5-1-1.1-1.9-1.8-2.7l0,0.2l-1.8,3.3c0,0,0,0-0.1,0.1L21.2,7z"/>
			<path d="M23.3,12.1l-3,1.3L17.8,18c-0.1,0.3-0.4,0.5-0.6,0.6l-2.3,1.2c-0.2,0.1-0.5,0.2-0.7,0.2c-0.4,0-0.7-0.1-1-0.4
				c-0.1-0.1-0.2-0.2-0.3-0.3l-0.1,0.1c-0.1,0.1-0.2,0.1-0.3,0.1s-0.1,0-0.2,0L9,18c-0.2-0.1-0.3-0.3-0.3-0.5v-2.3l0,0l-2.5-1.6
				c-0.4-0.2-0.6-0.6-0.7-1l-1.4-1.2C3.9,11.2,3.9,11,4,10.7l2.3-3.5C6.4,7.1,6.6,7,6.8,7h4.6l0.9-0.5V4.8l-1.5-0.9
				c-0.2-0.1-0.3-0.3-0.3-0.4c0-0.2,0.1-0.3,0.3-0.4l4.5-2.6C14.2,0.2,13.1,0,12,0C5.4,0,0,5.4,0,12s5.4,12,12,12s12-5.4,12-12
				c0-0.1,0-0.2,0-0.3C23.8,11.9,23.6,12,23.3,12.1z"/>
		</g>
		<path d="M13.6,10l3.5-1.4l-2.8-1.8c-0.1-0.1-0.3-0.1-0.5,0l-2,1.1c-0.2,0.1-0.3,0.2-0.3,0.4s0.1,0.3,0.2,0.4L13.6,10z"/>
		<g>
			<path d="M23.8,8.8c-0.4-0.8-1.4-1.3-2.3-0.9l-9.8,3.9l-2.5-1.1c-0.1-0.1-0.3-0.1-0.5,0l-2,1.2c-0.2,0.1-0.2,0.2-0.2,0.4
				s0.1,0.3,0.2,0.4l4.6,2.9c0.1,0.1,0.3,0.1,0.5,0l3.5-1.4l-1.5,3.9c-0.1,0.2,0,0.4,0.1,0.6C14,19,14.1,19,14.2,19
				c0.1,0,0.2,0,0.2-0.1l2.3-1.2c0.1,0,0.2-0.1,0.2-0.2l2.7-4.9l3.3-1.5c0.4-0.2,0.8-0.6,0.9-1C24.1,9.8,24,9.3,23.8,8.8z"/>
		</g>
	</g>
</g>
<g id="Outline_Icons">
	<g>
		<path class="st2" d="M23.3,14c-0.9,5.4-5.7,9.5-11.3,9.5C5.6,23.5,0.5,18.4,0.5,12S5.6,0.5,12,0.5c3.9,0,7.4,2,9.5,5"/>
		<polyline class="st2" points="14.8,0.8 10.1,3.5 11,5.1 9,8.5 4,10 6,16.5 11.5,18.5 11.5,21 		"/>
		<line class="st2" x1="20.5" y1="4.3" x2="18.5" y2="6.5"/>
		<g>
			<path class="st2" d="M11.7,12.4L9,11.2l-2,1.2l4.6,2.9l4.5-1.8l-1.9,5l2.3-1.2l2.8-5.1l3.5-1.5c0.3-0.1,0.6-0.4,0.7-0.7
				s0.1-0.7,0-1c-0.3-0.6-1-0.9-1.6-0.7L11.7,12.4z"/>
			<polyline class="st2" points="18.1,9.8 14,7.3 12,8.3 15.7,10.8 			"/>
		</g>
	</g>
</g>
</svg>
