<?xml version="1.0" encoding="utf-8"?>
<!-- Generator: Adobe Illustrator 19.2.0, SVG Export Plug-In . SVG Version: 6.00 Build 0)  -->
<svg version="1.1" id="Layer_1" xmlns="http://www.w3.org/2000/svg" xmlns:xlink="http://www.w3.org/1999/xlink" x="0px" y="0px"
	 viewBox="0 0 24 24" style="enable-background:new 0 0 24 24;" xml:space="preserve">
<style type="text/css">
	.st0{display:none;}
	.st1{display:inline;}
	.st2{fill:none;stroke:#000000;stroke-linecap:round;stroke-linejoin:round;stroke-miterlimit:10;}
</style>
<g id="Filled_Icons" class="st0">
	<g class="st1">
		<path d="M19,12c0-1.7-0.6-3.2-1.6-4.4c0,0.1-0.1,0.1-0.1,0.2c0,0-0.3,1.7-1.7,2.4c-0.1,0.1-0.2,0.1-0.3,0
			c-0.7-0.2-1.2-0.1-1.2-0.1c0,0.1,0.1,0.5,0.2,0.7c0,0.1,0.1,0.2,0.1,0.3c0.1,0,0.2-0.1,0.2-0.1c0.2-0.1,0.5,0,0.7,0.2
			c0.5,1,0.6,1.8,0.3,2.6c-0.3,0.8-1,1.1-1.3,1.2c-0.5,0.5-0.7,0.8-0.9,1.1c-0.5,0.7-0.8,0.9-1.9,0.9c-0.7,0-1.3-1.5-1.3-1.9
			c0-1.8-0.8-2-1.5-2c-0.9,0-1.3-0.8-1.3-1.6c0-0.1,0-2.4,1.8-2.8c0.9-0.2,1.4-0.1,1.8,0.2C10.9,9,10.9,9,11,9.1
			c0.3,0,0.6-0.2,0.6-0.4c0.1-0.2-0.1-0.6-0.6-0.9c-0.2-0.2-0.3-0.4-0.3-0.7c0.1-0.6,1.1-1.2,3-1.8c0,0,0,0,0.1-0.1
			C13.2,5.1,12.6,5,12,5c-3.9,0-7,3.1-7,7c0,3.9,3.1,7,7,7C15.9,19,19,15.9,19,12z"/>
		<path d="M6.6,17.5c0-0.3-0.3-0.5-0.5-0.4c-0.3,0-0.5,0.3-0.4,0.6l0.2,2.3C3.4,18,2,15.1,2,12C2,6.5,6.5,2,12,2
			c0.7,0,1.4,0.1,2.1,0.2c0.3,0.1,0.5-0.1,0.6-0.4c0.1-0.3-0.1-0.5-0.4-0.6C13.6,1.1,12.8,1,12,1C5.9,1,1,5.9,1,12
			c0,3.1,1.3,5.9,3.5,8l-2.4-0.5c-0.3-0.1-0.5,0.1-0.6,0.4c-0.1,0.3,0.1,0.5,0.4,0.6l4.5,0.9C6.7,21.5,7,21.3,7,20.9c0,0,0,0,0,0
			L6.6,17.5z"/>
		<path d="M19.5,4l1.9,0.4c0.3,0.1,0.5-0.1,0.6-0.4c0.1-0.3-0.1-0.5-0.4-0.6l-3.9-0.8c0,0,0,0,0,0c-0.1,0-0.1,0-0.2,0c0,0,0,0,0,0
			c-0.1,0-0.1,0.1-0.2,0.1c0,0,0,0,0,0c0,0,0,0,0,0c0,0-0.1,0.1-0.1,0.1C17,2.9,17,3.1,17,3.2l0.3,3.3c0,0.3,0.2,0.5,0.5,0.5
			c0,0,0,0,0,0c0.3,0,0.5-0.3,0.5-0.5l-0.2-2.3C20.6,6,22,8.9,22,12c0,5.5-4.5,10-10,10c-0.7,0-1.4-0.1-2.1-0.2
			c-0.3-0.1-0.5,0.1-0.6,0.4c-0.1,0.3,0.1,0.5,0.4,0.6c0.8,0.2,1.6,0.3,2.3,0.3c6.1,0,11-4.9,11-11C23,8.9,21.7,6,19.5,4z"/>
	</g>
</g>
<g id="Outline_Icons">
	<g>
		<g>
			<circle class="st2" cx="12" cy="12" r="6.5"/>
			<path class="st2" d="M16.8,7.6c0,0-0.3,1.6-1.4,2.1c-2.6-0.7-1.6,0.8-1.4,1.7c0.3,0.3,0.8,0,0.8,0c1.3,2.5-0.8,3.1-0.8,3.1
				c-1.5,1.5-1,2-2.5,2c-0.3,0-0.8-1.1-0.8-1.4c0-2.2-1.1-2.5-2-2.5c-0.8,0-0.8-1.1-0.8-1.1s0-2,1.4-2.3c1.4-0.3,1.4,0.3,1.4,0.3
				c0.6,0.6,2.7-0.6,0.8-2c-0.7-0.5,2.6-1.6,2.6-1.6"/>
		</g>
		<polyline class="st2" points="21.5,3.8 17.5,3.1 17.8,6.4 		"/>
		<polyline class="st2" points="2,20 6.5,20.9 6.1,17.6 		"/>
		<path class="st2" d="M17.5,3.1c3,1.9,5,5.2,5,8.9c0,5.8-4.7,10.5-10.5,10.5c-0.8,0-1.5-0.1-2.2-0.2"/>
		<path class="st2" d="M6.5,20.9c-3-1.9-5-5.2-5-8.9C1.5,6.2,6.2,1.5,12,1.5c0.8,0,1.5,0.1,2.2,0.2"/>
	</g>
</g>
</svg>
