<?xml version="1.0" encoding="utf-8"?>
<!-- Generator: Adobe Illustrator 19.2.0, SVG Export Plug-In . SVG Version: 6.00 Build 0)  -->
<svg version="1.1" id="Layer_1" xmlns="http://www.w3.org/2000/svg" xmlns:xlink="http://www.w3.org/1999/xlink" x="0px" y="0px"
	 viewBox="0 0 24 24" style="enable-background:new 0 0 24 24;" xml:space="preserve">
<style type="text/css">
	.st0{display:none;}
	.st1{display:inline;}
	.st2{fill:none;stroke:#000000;stroke-linecap:round;stroke-linejoin:round;stroke-miterlimit:10;}
</style>
<g id="Filled_Icon" class="st0">
	<g class="st1">
		<path d="M10.5,22h-10C0.2,22,0,22.2,0,22.5S0.2,23,0.5,23h10c0.3,0,0.5-0.2,0.5-0.5S10.8,22,10.5,22z"/>
		<path d="M0.5,2h23C23.8,2,24,1.8,24,1.5S23.8,1,23.5,1h-23C0.2,1,0,1.2,0,1.5S0.2,2,0.5,2z"/>
		<path d="M23.5,4h-23C0.2,4,0,4.2,0,4.5S0.2,5,0.5,5h23C23.8,5,24,4.8,24,4.5S23.8,4,23.5,4z"/>
		<path d="M23.5,7h-23C0.2,7,0,7.2,0,7.5S0.2,8,0.5,8h23C23.8,8,24,7.8,24,7.5S23.8,7,23.5,7z"/>
		<path d="M23.5,10h-23C0.2,10,0,10.2,0,10.5S0.2,11,0.5,11h23c0.3,0,0.5-0.2,0.5-0.5S23.8,10,23.5,10z"/>
		<path d="M20.5,13h-20C0.2,13,0,13.2,0,13.5S0.2,14,0.5,14h20c1.4,0,2.5,1.1,2.5,2.5S21.9,19,20.5,19h-5.7l3-2
			c0.2-0.2,0.3-0.5,0.1-0.7c-0.2-0.2-0.5-0.3-0.7-0.1L13,19.1c-0.3,0.2-0.3,0.7,0.1,0.9l4.2,2.9c0.1,0.1,0.2,0.1,0.3,0.1
			c0.2,0,0.3-0.1,0.4-0.2c0.2-0.2,0.1-0.5-0.1-0.7L14.8,20h5.7c1.9,0,3.5-1.6,3.5-3.5S22.4,13,20.5,13z"/>
		<path d="M10.5,16h-10C0.2,16,0,16.2,0,16.5S0.2,17,0.5,17h10c0.3,0,0.5-0.2,0.5-0.5S10.8,16,10.5,16z"/>
		<path d="M10.5,19h-10C0.2,19,0,19.2,0,19.5S0.2,20,0.5,20h10c0.3,0,0.5-0.2,0.5-0.5S10.8,19,10.5,19z"/>
	</g>
</g>
<g id="Outline_Icons">
	<g>
		<polyline class="st2" points="17.5,22.5 13.2,19.5 17.5,16.5 		"/>
		<g>
			<line class="st2" x1="0.5" y1="22.5" x2="10.5" y2="22.5"/>
			<line class="st2" x1="0.5" y1="1.5" x2="23.5" y2="1.5"/>
			<line class="st2" x1="0.5" y1="4.5" x2="23.5" y2="4.5"/>
			<line class="st2" x1="0.5" y1="7.5" x2="23.5" y2="7.5"/>
			<line class="st2" x1="0.5" y1="10.5" x2="23.5" y2="10.5"/>
			<path class="st2" d="M0.5,13.5h20c1.7,0,3,1.3,3,3s-1.3,3-3,3h-7.2"/>
			<line class="st2" x1="0.5" y1="16.5" x2="10.5" y2="16.5"/>
			<line class="st2" x1="0.5" y1="19.5" x2="10.5" y2="19.5"/>
		</g>
	</g>
</g>
</svg>
