<?xml version="1.0" encoding="utf-8"?>
<!-- Generator: Adobe Illustrator 19.2.0, SVG Export Plug-In . SVG Version: 6.00 Build 0)  -->
<svg version="1.1" id="Layer_1" xmlns="http://www.w3.org/2000/svg" xmlns:xlink="http://www.w3.org/1999/xlink" x="0px" y="0px"
	 viewBox="0 0 24 24" style="enable-background:new 0 0 24 24;" xml:space="preserve">
<style type="text/css">
	.st0{display:none;}
	.st1{display:inline;}
	.st2{fill:none;stroke:#000000;stroke-linecap:round;stroke-linejoin:round;stroke-miterlimit:10;}
</style>
<g id="Filled_Icon" class="st0">
	<path class="st1" d="M23.5,0h-23C0.2,0,0,0.2,0,0.5v23C0,23.8,0.2,24,0.5,24h23c0.3,0,0.5-0.2,0.5-0.5v-23C24,0.2,23.8,0,23.5,0z
		 M6.5,5h4C10.8,5,11,5.2,11,5.5S10.8,6,10.5,6h-4C6.2,6,6,5.8,6,5.5S6.2,5,6.5,5z M3.5,8h7C10.8,8,11,8.2,11,8.5S10.8,9,10.5,9h-7
		C3.2,9,3,8.8,3,8.5S3.2,8,3.5,8z M3.5,11h7c0.3,0,0.5,0.2,0.5,0.5S10.8,12,10.5,12h-7C3.2,12,3,11.8,3,11.5S3.2,11,3.5,11z
		 M15.5,18h-12C3.2,18,3,17.8,3,17.5S3.2,17,3.5,17h12c0.3,0,0.5,0.2,0.5,0.5S15.8,18,15.5,18z M20.5,15h-17C3.2,15,3,14.8,3,14.5
		S3.2,14,3.5,14h17c0.3,0,0.5,0.2,0.5,0.5S20.8,15,20.5,15z M21,11.5c0,0.3-0.2,0.5-0.5,0.5h-8c-0.3,0-0.5-0.2-0.5-0.5v-8
		C12,3.2,12.2,3,12.5,3h8C20.8,3,21,3.2,21,3.5V11.5z"/>
</g>
<g id="Outline_Icons">
	<g>
		<rect x="0.5" y="0.5" class="st2" width="23" height="23"/>
		<line class="st2" x1="6.5" y1="5.5" x2="10.5" y2="5.5"/>
		<line class="st2" x1="3.5" y1="8.5" x2="10.5" y2="8.5"/>
		<line class="st2" x1="3.5" y1="11.5" x2="10.5" y2="11.5"/>
		<line class="st2" x1="3.5" y1="14.5" x2="20.5" y2="14.5"/>
		<line class="st2" x1="3.5" y1="17.5" x2="15.5" y2="17.5"/>
		<rect x="12.5" y="3.5" class="st2" width="8" height="8"/>
	</g>
</g>
</svg>
