<?xml version="1.0" encoding="utf-8"?>
<!-- Generator: Adobe Illustrator 19.2.0, SVG Export Plug-In . SVG Version: 6.00 Build 0)  -->
<svg version="1.1" id="Layer_1" xmlns="http://www.w3.org/2000/svg" xmlns:xlink="http://www.w3.org/1999/xlink" x="0px" y="0px"
	 viewBox="0 0 24 24" style="enable-background:new 0 0 24 24;" xml:space="preserve">
<style type="text/css">
	.st0{display:none;}
	.st1{display:inline;}
	.st2{fill:none;stroke:#000000;stroke-linecap:round;stroke-linejoin:round;stroke-miterlimit:10;}
</style>
<g id="Filled_Icon" class="st0">
	<path class="st1" d="M23.5,0h-23C0.2,0,0,0.2,0,0.5v23C0,23.8,0.2,24,0.5,24h23c0.3,0,0.5-0.2,0.5-0.5v-23C24,0.2,23.8,0,23.5,0z
		 M8,20.5C8,20.8,7.8,21,7.5,21h-4C3.2,21,3,20.8,3,20.5v-4C3,16.2,3.2,16,3.5,16h4C7.8,16,8,16.2,8,16.5V20.5z M8,14
		c0,0.3-0.2,0.5-0.5,0.5h-4C3.2,14.5,3,14.3,3,14v-4c0-0.3,0.2-0.5,0.5-0.5h4C7.8,9.5,8,9.7,8,10V14z M8,7.5C8,7.8,7.8,8,7.5,8h-4
		C3.2,8,3,7.8,3,7.5v-4C3,3.2,3.2,3,3.5,3h4C7.8,3,8,3.2,8,3.5V7.5z M17.5,19h-7c-0.3,0-0.5-0.2-0.5-0.5s0.2-0.5,0.5-0.5h7
		c0.3,0,0.5,0.2,0.5,0.5S17.8,19,17.5,19z M20.5,16h-10c-0.3,0-0.5-0.2-0.5-0.5s0.2-0.5,0.5-0.5h10c0.3,0,0.5,0.2,0.5,0.5
		S20.8,16,20.5,16z M20.5,13h-10c-0.3,0-0.5-0.2-0.5-0.5s0.2-0.5,0.5-0.5h10c0.3,0,0.5,0.2,0.5,0.5S20.8,13,20.5,13z M20.5,10h-10
		C10.2,10,10,9.8,10,9.5S10.2,9,10.5,9h10C20.8,9,21,9.2,21,9.5S20.8,10,20.5,10z M20.5,7h-7C13.2,7,13,6.8,13,6.5S13.2,6,13.5,6h7
		C20.8,6,21,6.2,21,6.5S20.8,7,20.5,7z"/>
</g>
<g id="Outline_Icons">
	<g>
		<rect x="0.5" y="0.5" class="st2" width="23" height="23"/>
		<line class="st2" x1="13.5" y1="6.5" x2="20.5" y2="6.5"/>
		<line class="st2" x1="10.5" y1="9.5" x2="20.5" y2="9.5"/>
		<line class="st2" x1="10.5" y1="12.5" x2="20.5" y2="12.5"/>
		<line class="st2" x1="10.5" y1="15.5" x2="20.5" y2="15.5"/>
		<line class="st2" x1="10.5" y1="18.5" x2="17.5" y2="18.5"/>
		<rect x="3.5" y="3.5" class="st2" width="4" height="4"/>
		<rect x="3.5" y="9.5" class="st2" width="4" height="5"/>
		<rect x="3.5" y="16.5" class="st2" width="4" height="4"/>
	</g>
</g>
</svg>
