<?xml version="1.0" encoding="utf-8"?>
<!-- Generator: Adobe Illustrator 19.2.0, SVG Export Plug-In . SVG Version: 6.00 Build 0)  -->
<svg version="1.1" id="Layer_1" xmlns="http://www.w3.org/2000/svg" xmlns:xlink="http://www.w3.org/1999/xlink" x="0px" y="0px"
	 viewBox="0 0 24 24" style="enable-background:new 0 0 24 24;" xml:space="preserve">
<style type="text/css">
	.st0{display:none;}
	.st1{display:inline;}
	.st2{fill:none;stroke:#000000;stroke-linejoin:round;stroke-miterlimit:10;}
</style>
<g id="Filled_Icons" class="st0">
	<path class="st1" d="M22.6,16.2c-1.2-1.2-3-1.6-4.6-1.1L14.8,12L18,8.8c0.5,0.2,0.9,0.2,1.4,0.2c1.2,0,2.3-0.5,3.2-1.3
		c1.3-1.3,1.7-3.2,1-4.9c-0.1-0.2-0.2-0.3-0.4-0.3c-0.2,0-0.3,0-0.5,0.1L21,4.6h-1.4V3l1.8-1.8c0.1-0.1,0.2-0.3,0.1-0.4
		c0-0.2-0.1-0.3-0.3-0.4c-0.6-0.2-1.2-0.4-1.8-0.4c-1.2,0-2.3,0.5-3.2,1.3c-1.2,1.2-1.6,3-1.1,4.6L12,9.2L8.8,6
		C9.4,4.4,9,2.6,7.8,1.4c-1.3-1.3-3.2-1.7-4.9-1C2.7,0.5,2.6,0.6,2.6,0.8c0,0.2,0,0.3,0.1,0.5L4.6,3v1.6H3L1.2,2.7
		C1.1,2.6,1,2.6,0.8,2.6c-0.2,0-0.3,0.1-0.4,0.3c-0.7,1.7-0.3,3.6,1,4.9C2.6,9,4.4,9.4,6,8.8L9.2,12L6,15.2
		c-0.5-0.2-0.9-0.2-1.4-0.2c-1.2,0-2.3,0.5-3.2,1.3c-1.3,1.3-1.7,3.2-1,4.9c0.1,0.2,0.2,0.3,0.4,0.3c0.2,0,0.3,0,0.4-0.1L3,19.6h1.6
		V21l-1.8,1.8c-0.1,0.1-0.2,0.3-0.1,0.5c0,0.2,0.1,0.3,0.3,0.4c0.6,0.2,1.1,0.4,1.7,0.4l0,0c1.2,0,2.3-0.5,3.2-1.3
		c1.2-1.2,1.6-3,1-4.6l3.2-3.2l3.2,3.2c-0.5,1.6-0.1,3.4,1.1,4.6c0.9,0.9,2,1.3,3.2,1.3c0.6,0,1.2-0.1,1.8-0.4
		c0.2-0.1,0.3-0.2,0.3-0.4c0-0.2,0-0.3-0.1-0.4L19.6,21v-1.4H21l1.8,1.8c0.1,0.1,0.3,0.2,0.4,0.1c0.2,0,0.3-0.1,0.4-0.3
		C24.3,19.5,23.9,17.5,22.6,16.2z"/>
</g>
<g id="Outline_Icons">
	<g>
		<path class="st2" d="M8.3,17.9l9.6-9.6c1.5,0.6,3.2,0.3,4.4-0.9c1.2-1.2,1.5-2.9,0.9-4.3l-1.9,2h-2.1V2.8L21,0.9
			c-1.5-0.6-3.2-0.3-4.4,0.9c-1.2,1.2-1.5,2.9-0.9,4.4l-9.6,9.6c-1.5-0.6-3.2-0.3-4.4,0.9c-1.2,1.2-1.5,2.9-0.9,4.4l1.9-1.9h2.3v2.1
			l-2,1.9c1.5,0.6,3.2,0.3,4.4-0.9C8.6,21.1,8.9,19.3,8.3,17.9z"/>
		<path class="st2" d="M12,9.9L8.3,6.1c0.6-1.5,0.3-3.2-0.9-4.4C6.2,0.6,4.5,0.3,3.1,0.9l2,1.9v2.3H2.8l-1.9-2
			C0.3,4.5,0.6,6.3,1.7,7.4c1.2,1.2,2.9,1.5,4.4,0.8L9.9,12"/>
		<path class="st2" d="M12,14.1l3.7,3.7c-0.6,1.5-0.3,3.2,0.9,4.4c1.2,1.2,2.9,1.5,4.4,0.9l-1.9-1.9v-2.1h2.1l1.9,1.9
			c0.6-1.5,0.3-3.2-0.9-4.4c-1.2-1.2-2.9-1.5-4.4-0.9L14.1,12"/>
	</g>
</g>
</svg>
