<?xml version="1.0" encoding="utf-8"?>
<!-- Generator: Adobe Illustrator 19.2.0, SVG Export Plug-In . SVG Version: 6.00 Build 0)  -->
<svg version="1.1" id="Layer_1" xmlns="http://www.w3.org/2000/svg" xmlns:xlink="http://www.w3.org/1999/xlink" x="0px" y="0px"
	 viewBox="0 0 24 24" style="enable-background:new 0 0 24 24;" xml:space="preserve">
<style type="text/css">
	.st0{display:none;}
	.st1{display:inline;}
	.st2{fill:none;stroke:#000000;stroke-linejoin:round;stroke-miterlimit:10;}
</style>
<g id="Filled_Icons" class="st0">
	<path class="st1" d="M23.1,4c-0.1-0.1-0.2-0.2-0.4-0.3c-0.2,0-0.3,0-0.4,0.1L19.1,7h-2V4.9l3.1-3.2c0.1-0.1,0.2-0.3,0.1-0.4
		c0-0.2-0.1-0.3-0.3-0.4c-1-0.5-2.1-0.8-3.2-0.8c-1.9,0-3.7,0.7-5,2C9.9,4.3,9.3,7.4,10.5,10l-9.6,9.6c-0.5,0.5-0.7,1.1-0.7,1.8
		c0,0.7,0.3,1.3,0.7,1.8c0.5,0.5,1.1,0.7,1.8,0.7c0.7,0,1.3-0.3,1.8-0.7l9.6-9.6c0.9,0.4,1.9,0.6,2.9,0.6l0,0c1.9,0,3.6-0.7,4.9-2
		C24,9.9,24.5,6.7,23.1,4z"/>
</g>
<g id="Outline_Icons">
	<g>
		<path class="st2" d="M21.4,11.8c2-2,2.4-5.1,1.2-7.6l-3.3,3.3h-2.7V4.7l3.2-3.3c-2.4-1.2-5.6-0.9-7.6,1.2c-2,2-2.5,5.1-1.2,7.6
			l-9.8,9.8c-0.8,0.8-0.8,2,0,2.8c0.8,0.8,2,0.8,2.8,0l9.8-9.8C16.3,14.2,19.4,13.8,21.4,11.8z"/>
	</g>
</g>
</svg>
