<?xml version="1.0" encoding="utf-8"?>
<!-- Generator: Adobe Illustrator 19.2.0, SVG Export Plug-In . SVG Version: 6.00 Build 0)  -->
<svg version="1.1" id="Layer_1" xmlns="http://www.w3.org/2000/svg" xmlns:xlink="http://www.w3.org/1999/xlink" x="0px" y="0px"
	 viewBox="0 0 24 24" style="enable-background:new 0 0 24 24;" xml:space="preserve">
<style type="text/css">
	.st0{display:none;}
	.st1{display:inline;}
	.st2{fill:none;stroke:#000000;stroke-linejoin:round;stroke-miterlimit:10;}
	.st3{fill:none;stroke:#000000;stroke-linecap:round;stroke-linejoin:round;stroke-miterlimit:10;}
</style>
<g id="Filled_Icons" class="st0">
	<g class="st1">
		<path d="M18.1,7l-0.6-1.2c-0.1-0.2-0.3-0.3-0.4-0.3h-3.8C14,5,14.5,4.1,14.5,3c0-1.7-1.3-3-3-3s-3,1.3-3,3c0,1,0.5,2,1.3,2.5H6
			c-0.2,0-0.4,0.1-0.4,0.3L4.9,7H18.1z"/>
		<path d="M7.8,20l0.7,3.6C8.6,23.8,8.8,24,9,24h5c0.2,0,0.4-0.2,0.5-0.4l0.7-3.6H7.8z"/>
		<path d="M20.5,8h-18C2.2,8,2,8.2,2,8.5v10C2,18.8,2.2,19,2.5,19h18c0.3,0,0.5-0.2,0.5-0.5v-10C21,8.2,20.8,8,20.5,8z M17,11.7
			c-0.1,0.2-0.3,0.3-0.5,0.3c-0.1,0-0.1,0-0.2,0l-1.8-0.7c-0.4-0.2-0.9-0.3-1.3-0.3H12v2h0.3c0.6,0,1.1,0.1,1.6,0.3l2,0.8
			c0.3,0.1,0.4,0.4,0.3,0.6c-0.1,0.2-0.3,0.3-0.5,0.3c-0.1,0-0.1,0-0.2,0l-2-0.8c-0.4-0.2-0.8-0.2-1.3-0.2H12v2h1.5
			c0.3,0,0.5,0.2,0.5,0.5S13.8,17,13.5,17h-4C9.2,17,9,16.8,9,16.5S9.2,16,9.5,16H11v-2h-0.3c-0.4,0-0.9,0.1-1.3,0.2l-2,0.8
			c-0.1,0-0.1,0-0.2,0c-0.2,0-0.4-0.1-0.5-0.3c-0.1-0.3,0-0.5,0.3-0.6l2-0.8c0.5-0.2,1.1-0.3,1.6-0.3H11v-2H9.8
			c-0.4,0-0.9,0.1-1.3,0.2L6.7,12c-0.1,0-0.1,0-0.2,0c-0.2,0-0.4-0.1-0.5-0.3c-0.1-0.3,0-0.5,0.3-0.6l1.8-0.7
			C8.6,10.1,9.2,10,9.8,10h1.7h1.7c0.6,0,1.1,0.1,1.7,0.3l1.8,0.7C16.9,11.1,17.1,11.4,17,11.7z"/>
	</g>
</g>
<g id="Outline_Icons">
	<g>
		<rect x="2.5" y="8.5" class="st2" width="18" height="10"/>
		<circle class="st2" cx="11.5" cy="3.5" r="2.5"/>
		<polyline class="st2" points="8,18.5 9,23.5 11.5,23.5 14,23.5 15,18.5 		"/>
		<polyline class="st2" points="18,8.5 17,6.5 13.5,6.5 9.5,6.5 6,6.5 5,8.5 		"/>
		<line class="st3" x1="11.5" y1="10.5" x2="11.5" y2="16.5"/>
		<path class="st3" d="M11.5,10.5H9.8c-0.5,0-1,0.1-1.5,0.3l-1.8,0.7"/>
		<path class="st3" d="M11.5,13.5h-0.8c-0.5,0-1,0.1-1.4,0.3l-2,0.8"/>
		<path class="st3" d="M11.5,10.5h1.7c0.5,0,1,0.1,1.5,0.3l1.8,0.7"/>
		<path class="st3" d="M11.5,13.5h0.8c0.5,0,1,0.1,1.4,0.3l2,0.8"/>
		<line class="st3" x1="9.5" y1="16.5" x2="13.5" y2="16.5"/>
	</g>
</g>
</svg>
