<?xml version="1.0" encoding="utf-8"?>
<!-- Generator: Adobe Illustrator 19.2.0, SVG Export Plug-In . SVG Version: 6.00 Build 0)  -->
<svg version="1.1" id="Layer_1" xmlns="http://www.w3.org/2000/svg" xmlns:xlink="http://www.w3.org/1999/xlink" x="0px" y="0px"
	 viewBox="0 0 24 24" style="enable-background:new 0 0 24 24;" xml:space="preserve">
<style type="text/css">
	.st0{display:none;}
	.st1{display:inline;}
	.st2{fill:none;stroke:#000000;stroke-linejoin:round;stroke-miterlimit:10;}
	.st3{fill:none;stroke:#000000;stroke-linecap:round;stroke-linejoin:round;stroke-miterlimit:10;}
</style>
<g id="Filled_Icon" class="st0">
	<g class="st1">
		<path d="M15.5,17.7c-0.3,0-0.5-0.2-0.5-0.5c0-0.1,0-0.2,0.1-0.3l-1.2-1.2c-0.3,0.1-0.6,0.2-0.9,0.3v4.5l4.5-1.2l-1.7-1.7
			C15.7,17.7,15.6,17.7,15.5,17.7z"/>
		<path d="M6,1.1L1.9,0c-0.5-0.1-1,0-1.3,0.3C0.2,0.6,0,1,0,1.5v20.4c0,0.5,0.2,0.9,0.6,1.2c0.3,0.2,0.6,0.3,0.9,0.3
			c0.1,0,0.3,0,0.4,0L6,22.3V1.1z M3.5,2.7C3.8,2.7,4,2.9,4,3.2S3.8,3.7,3.5,3.7S3,3.5,3,3.2S3.2,2.7,3.5,2.7z M3.5,20.7
			c-0.3,0-0.5-0.2-0.5-0.5s0.2-0.5,0.5-0.5S4,19.9,4,20.2S3.8,20.7,3.5,20.7z"/>
		<path d="M18,4.3L13,3v4.3c0.8,0.2,1.5,0.6,2.1,1.2c1.4,1.4,1.7,3.4,0.9,5.1l2,2V4.3z M15.5,6.7c-0.3,0-0.5-0.2-0.5-0.5
			s0.2-0.5,0.5-0.5S16,5.9,16,6.2S15.8,6.7,15.5,6.7z"/>
		<path d="M11.9,7.1C12,7.1,12,7.1,11.9,7.1L12,2.7L7,1.4V22l5-1.3v-4.6c0,0,0,0-0.1,0c-1.2,0-2.3-0.5-3.2-1.3
			C7,13.1,7,10.2,8.8,8.5C9.6,7.6,10.7,7.1,11.9,7.1z M9.5,4.7c0.3,0,0.5,0.2,0.5,0.5S9.8,5.7,9.5,5.7S9,5.5,9,5.2
			C9,4.9,9.2,4.7,9.5,4.7z M9.5,17.7c0.3,0,0.5,0.2,0.5,0.5s-0.2,0.5-0.5,0.5S9,18.5,9,18.2C9,17.9,9.2,17.7,9.5,17.7z"/>
		<path d="M22.9,5.5l-3.9-1v12.1l1.8,1.8l2.1-0.5c0.7-0.2,1.1-0.8,1.1-1.5V7C24,6.3,23.5,5.7,22.9,5.5z M21,16.7
			c-0.3,0-0.5-0.2-0.5-0.5c0-0.3,0.2-0.5,0.5-0.5s0.5,0.2,0.5,0.5C21.5,16.5,21.3,16.7,21,16.7z M21,7.7c-0.3,0-0.5-0.2-0.5-0.5
			s0.2-0.5,0.5-0.5s0.5,0.2,0.5,0.5S21.3,7.7,21,7.7z"/>
	</g>
	<path class="st1" d="M23.8,22.8l-9.1-9.1c1-1.4,0.9-3.3-0.3-4.6c-1.3-1.3-3.6-1.3-5,0C8,10.5,8,12.7,9.4,14c0.7,0.7,1.5,1,2.5,1
		c0.8,0,1.5-0.3,2.1-0.7l9.1,9.1c0.1,0.1,0.2,0.1,0.4,0.1c0.1,0,0.3,0,0.4-0.1C24,23.3,24,23,23.8,22.8z"/>
</g>
<g id="Outline_Icons">
	<g>
		<path class="st2" d="M23.5,16.4c0,0.5-0.3,0.9-0.7,1l-21,5.5c-0.3,0.1-0.6,0-0.9-0.2c-0.2-0.2-0.4-0.5-0.4-0.8V1.5
			c0-0.3,0.1-0.6,0.4-0.8c0.2-0.2,0.6-0.3,0.9-0.2l21,5.5c0.4,0.1,0.7,0.5,0.7,1V16.4z"/>
		<line class="st2" x1="6.5" y1="21.7" x2="6.5" y2="1.8"/>
		<line class="st3" x1="12.5" y1="20.1" x2="12.5" y2="16.7"/>
		<line class="st3" x1="12.5" y1="6.7" x2="12.5" y2="3.3"/>
		<line class="st2" x1="18.5" y1="18.5" x2="18.5" y2="4.9"/>
		<line class="st3" x1="14.1" y1="13.8" x2="23.4" y2="23.2"/>
		<circle class="st2" cx="11.9" cy="11.6" r="3"/>
		<g>
			<path d="M3.5,2.7C3.2,2.7,3,2.9,3,3.2s0.2,0.5,0.5,0.5S4,3.5,4,3.2S3.8,2.7,3.5,2.7L3.5,2.7z"/>
		</g>
		<g>
			<path d="M9.5,4.7C9.2,4.7,9,4.9,9,5.2c0,0.3,0.2,0.5,0.5,0.5S10,5.5,10,5.2C10,4.9,9.8,4.7,9.5,4.7L9.5,4.7z"/>
		</g>
		<g>
			<path d="M9.5,17.7c-0.3,0-0.5,0.2-0.5,0.5s0.2,0.5,0.5,0.5s0.5-0.2,0.5-0.5C10,17.9,9.8,17.7,9.5,17.7L9.5,17.7z"/>
		</g>
		<g>
			<path d="M15.5,16.7c-0.3,0-0.5,0.2-0.5,0.5s0.2,0.5,0.5,0.5s0.5-0.2,0.5-0.5C16,16.9,15.8,16.7,15.5,16.7L15.5,16.7z"/>
		</g>
		<g>
			<path d="M15.5,5.7c-0.3,0-0.5,0.2-0.5,0.5s0.2,0.5,0.5,0.5S16,6.5,16,6.2C16,5.9,15.8,5.7,15.5,5.7L15.5,5.7z"/>
		</g>
		<g>
			<path d="M21,6.7c-0.3,0-0.5,0.2-0.5,0.5s0.2,0.5,0.5,0.5s0.5-0.2,0.5-0.5C21.5,6.9,21.3,6.7,21,6.7L21,6.7z"/>
		</g>
		<g>
			<path d="M21,15.7c-0.3,0-0.5,0.2-0.5,0.5c0,0.3,0.2,0.5,0.5,0.5s0.5-0.2,0.5-0.5C21.5,15.9,21.3,15.7,21,15.7L21,15.7z"/>
		</g>
		<g>
			<path d="M3.5,19.7c-0.3,0-0.5,0.2-0.5,0.5s0.2,0.5,0.5,0.5S4,20.5,4,20.2C4,19.9,3.8,19.7,3.5,19.7L3.5,19.7z"/>
		</g>
	</g>
</g>
</svg>
