<?xml version="1.0" encoding="utf-8"?>
<!-- Generator: Adobe Illustrator 19.2.0, SVG Export Plug-In . SVG Version: 6.00 Build 0)  -->
<svg version="1.1" id="Layer_1" xmlns="http://www.w3.org/2000/svg" xmlns:xlink="http://www.w3.org/1999/xlink" x="0px" y="0px"
	 viewBox="0 0 24 24" style="enable-background:new 0 0 24 24;" xml:space="preserve">
<style type="text/css">
	.st0{display:none;}
	.st1{display:inline;}
	.st2{fill:none;stroke:#000000;stroke-linecap:round;stroke-linejoin:round;stroke-miterlimit:10;}
</style>
<g id="Filled_Icon" class="st0">
	<path class="st1" d="M18.9,1.5C19.2,1,19,0.4,18.6,0.1c-0.5-0.3-1.1-0.1-1.4,0.3l-5.6,9.1l-5.7-9C5.6,0,4.9-0.1,4.5,0.1
		C4,0.4,3.9,1.1,4.1,1.5l6.4,10.3V12H7c-0.6,0-1,0.4-1,1s0.4,1,1,1h3.5v2H7c-0.6,0-1,0.4-1,1s0.4,1,1,1h3.5v5c0,0.6,0.4,1,1,1
		s1-0.4,1-1v-5H16c0.6,0,1-0.4,1-1s-0.4-1-1-1h-3.5v-2H16c0.6,0,1-0.4,1-1s-0.4-1-1-1h-3.5v-0.2L18.9,1.5z"/>
</g>
<g id="Outline_Icons">
	<g>
		<line class="st2" x1="11.5" y1="11.5" x2="11.5" y2="23.5"/>
		<polyline class="st2" points="18,0.5 11.5,11.5 5,0.5 		"/>
		<line class="st2" x1="7" y1="12.5" x2="16" y2="12.5"/>
		<line class="st2" x1="7" y1="15.5" x2="16" y2="15.5"/>
	</g>
</g>
</svg>
