<?xml version="1.0" encoding="utf-8"?>
<!-- Generator: Adobe Illustrator 19.2.0, SVG Export Plug-In . SVG Version: 6.00 Build 0)  -->
<svg version="1.1" id="Layer_1" xmlns="http://www.w3.org/2000/svg" xmlns:xlink="http://www.w3.org/1999/xlink" x="0px" y="0px"
	 viewBox="0 0 24 24" style="enable-background:new 0 0 24 24;" xml:space="preserve">
<style type="text/css">
	.st0{display:none;}
	.st1{display:inline;}
	.st2{fill:none;stroke:#000000;stroke-linecap:round;stroke-linejoin:round;stroke-miterlimit:10;}
	.st3{fill:none;stroke:#000000;stroke-linejoin:round;stroke-miterlimit:10;}
</style>
<g id="Filled_Icon" class="st0">
	<path class="st1" d="M21,7.4V5.5C21,5.2,20.8,5,20.5,5h-17C3.2,5,3,5.2,3,5.5v1.9C1.2,8.2,0,10,0,12s1.2,3.8,3,4.6v1.9
		C3,18.8,3.2,19,3.5,19h17c0.3,0,0.5-0.2,0.5-0.5v-1.9c1.8-0.8,3-2.6,3-4.6S22.8,8.2,21,7.4z M14.4,8.8l-1.9,2.9V12H13
		c0.3,0,0.5,0.2,0.5,0.5S13.3,13,13,13h-0.5v0.5H13c0.3,0,0.5,0.2,0.5,0.5s-0.2,0.5-0.5,0.5h-0.5v1c0,0.3-0.2,0.5-0.5,0.5
		s-0.5-0.2-0.5-0.5v-1H11c-0.3,0-0.5-0.2-0.5-0.5s0.2-0.5,0.5-0.5h0.5V13H11c-0.3,0-0.5-0.2-0.5-0.5S10.7,12,11,12h0.5v-0.3L9.6,8.8
		C9.4,8.5,9.5,8.2,9.7,8.1C10,7.9,10.3,8,10.4,8.2l1.6,2.4l1.6-2.4C13.7,8,14,7.9,14.3,8.1C14.5,8.2,14.6,8.5,14.4,8.8z"/>
</g>
<g id="Outline_Icons">
	<g>
		<line class="st2" x1="11.5" y1="11.5" x2="11.5" y2="15.5"/>
		<polyline class="st2" points="13.5,8.5 11.5,11.5 9.5,8.5 		"/>
		<line class="st2" x1="10.5" y1="12.5" x2="12.5" y2="12.5"/>
		<line class="st2" x1="10.5" y1="14" x2="12.5" y2="14"/>
		<path class="st3" d="M23.5,12c0-2-1.3-3.6-3-4.2V5.5h-17v2.3c-1.7,0.6-3,2.3-3,4.2c0,2,1.3,3.6,3,4.2v2.3h17v-2.3
			C22.2,15.6,23.5,14,23.5,12z"/>
	</g>
</g>
</svg>
