<?xml version="1.0" encoding="utf-8"?>
<!-- Generator: Adobe Illustrator 19.2.0, SVG Export Plug-In . SVG Version: 6.00 Build 0)  -->
<svg version="1.1" id="Outline_Icons" xmlns="http://www.w3.org/2000/svg" xmlns:xlink="http://www.w3.org/1999/xlink" x="0px"
	 y="0px" viewBox="0 0 24 24" style="enable-background:new 0 0 24 24;" xml:space="preserve">
<style type="text/css">
	.st0{fill:none;stroke:#000000;stroke-linejoin:round;stroke-miterlimit:10;}
	.st1{fill:none;stroke:#000000;stroke-linecap:round;stroke-linejoin:round;stroke-miterlimit:10;}
</style>
<g>
	<path class="st0" d="M11.5,23.5c-6-8-6-16.5,0-23"/>
	<line class="st0" x1="2" y1="17.5" x2="12.5" y2="17.5"/>
	<line class="st0" x1="1.8" y1="6.5" x2="12.5" y2="6.5"/>
	<line class="st0" x1="0.6" y1="11.5" x2="12.5" y2="11.5"/>
	<path class="st0" d="M12.5,0.5c-0.2,0-0.3,0-0.5,0C5.6,0.5,0.5,5.4,0.5,11.7c0,6.4,5.1,11.8,11.5,11.8c0.2,0,0.4,0,0.5,0V0.5z"/>
	<line class="st1" x1="19.5" y1="11.8" x2="19.5" y2="20.5"/>
	<polyline class="st1" points="23.7,4.5 19.5,11.8 15.3,4.5 	"/>
	<line class="st1" x1="15.5" y1="12.5" x2="23.5" y2="12.5"/>
	<line class="st1" x1="15.5" y1="15.5" x2="23.5" y2="15.5"/>
</g>
</svg>
