<?xml version="1.0" encoding="utf-8"?>
<!-- Generator: Adobe Illustrator 19.2.0, SVG Export Plug-In . SVG Version: 6.00 Build 0)  -->
<svg version="1.1" id="Layer_1" xmlns="http://www.w3.org/2000/svg" xmlns:xlink="http://www.w3.org/1999/xlink" x="0px" y="0px"
	 viewBox="0 0 24 24" style="enable-background:new 0 0 24 24;" xml:space="preserve">
<style type="text/css">
	.st0{display:none;}
	.st1{display:inline;}
	.st2{fill:none;stroke:#000000;stroke-linecap:round;stroke-linejoin:round;stroke-miterlimit:10;}
</style>
<g id="Filled_Icons" class="st0">
	<g class="st1">
		<path d="M24,11.9L24,11.9C23.9,5.3,18.6,0,12,0C6,0,1,4.5,0.1,10.3C0,10.7,0,11.1,0,11.5V12c0,6.6,5.4,12,12,12
			c6.6,0,11.9-5.3,12-11.9c0,0,0-0.1,0-0.1C24,12,24,11.9,24,11.9z M6.5,13.5C5.1,13.5,4,12.4,4,11c0-1.4,1.1-2.5,2.5-2.5
			C7.9,8.5,9,9.6,9,11C9,12.4,7.9,13.5,6.5,13.5z M18,17.5c-4.6,0-5-2.6-5.5-5.6C12,8.9,11.4,5.5,6,5.5C4.6,5.5,3.3,6,2.3,6.8
			C4.2,3.3,7.8,1,12,1c6,0,11,4.9,11,10.9l0,0.1C23,14.9,20.6,17.5,18,17.5z"/>
		<path d="M17.5,10.5c-1.4,0-2.5,1.1-2.5,2.5c0,1.4,1.1,2.5,2.5,2.5c1.4,0,2.5-1.1,2.5-2.5C20,11.6,18.9,10.5,17.5,10.5z"/>
	</g>
</g>
<g id="Outline_Icons">
	<g>
		<circle class="st2" cx="12" cy="12" r="11.5"/>
		<circle class="st2" cx="6.5" cy="11" r="2"/>
		<circle class="st2" cx="17.5" cy="13" r="2"/>
		<path class="st2" d="M23.5,12c0,3-2.5,6-5.5,6C8,18,16,6,6,6c-3,0-5.5,2.5-5.5,5.5"/>
	</g>
</g>
</svg>
