<?xml version="1.0" encoding="utf-8"?>
<!-- Generator: Adobe Illustrator 19.2.0, SVG Export Plug-In . SVG Version: 6.00 Build 0)  -->
<svg version="1.1" id="Layer_1" xmlns="http://www.w3.org/2000/svg" xmlns:xlink="http://www.w3.org/1999/xlink" x="0px" y="0px"
	 viewBox="0 0 24 24" style="enable-background:new 0 0 24 24;" xml:space="preserve">
<style type="text/css">
	.st0{display:none;}
	.st1{display:inline;}
	.st2{fill:none;stroke:#000000;stroke-linecap:round;stroke-linejoin:round;stroke-miterlimit:10;}
</style>
<g id="Filled_Icons" class="st0">
	<path class="st1" d="M18.7,3.9l-3.5-3.6l0,0c-0.1-0.1-0.2-0.2-0.3-0.2C14.8,0,14.6,0,14.5,0c0,0,0,0,0,0c0,0-0.1,0-0.1,0
		c-0.1,0-0.2,0-0.3,0.1c-0.1,0-0.2,0.1-0.3,0.2c0,0,0,0-0.1,0l0,0c0,0,0,0,0,0l-3.6,3.6c-0.4,0.4-0.4,1,0,1.4c0.4,0.4,1,0.4,1.4,0
		l1.9-1.9v11.2l-7.4-5c-0.3-0.2-0.7-0.2-1,0c-0.3,0.2-0.5,0.5-0.5,0.9v12c0,0.6,0.4,1,1,1c0.6,0,1-0.4,1-1V12.4l7.4,5
		c0.3,0.2,0.7,0.2,1,0c0.3-0.2,0.5-0.5,0.5-0.9V3.4l1.8,1.8c0.2,0.2,0.5,0.3,0.7,0.3c0.3,0,0.5-0.1,0.7-0.3
		C19.1,4.9,19.1,4.3,18.7,3.9z"/>
</g>
<g id="Outline_Icons">
	<g>
		<polyline class="st2" points="10.9,4.6 14.5,1 18,4.6 		"/>
		<polyline class="st2" points="5.5,22.5 5.5,10.5 14.5,16.5 14.5,1 		"/>
	</g>
</g>
</svg>
