<?xml version="1.0" encoding="utf-8"?>
<!-- Generator: Adobe Illustrator 19.2.0, SVG Export Plug-In . SVG Version: 6.00 Build 0)  -->
<svg version="1.1" id="Layer_1" xmlns="http://www.w3.org/2000/svg" xmlns:xlink="http://www.w3.org/1999/xlink" x="0px" y="0px"
	 viewBox="0 0 24 24" style="enable-background:new 0 0 24 24;" xml:space="preserve">
<style type="text/css">
	.st0{display:none;}
	.st1{display:inline;}
	.st2{fill:none;stroke:#000000;stroke-linecap:round;stroke-linejoin:round;stroke-miterlimit:10;}
</style>
<g id="Filled_Icons" class="st0">
	<path class="st1" d="M22.7,7.3l-3.5-3.5c0,0,0,0,0,0c-0.1-0.1-0.2-0.2-0.3-0.2c-0.1-0.1-0.2-0.1-0.4-0.1c0,0,0,0,0,0
		c0,0-0.1,0-0.1,0c-0.1,0-0.2,0-0.3,0.1c-0.1,0-0.1,0.1-0.2,0.1c0,0-0.1,0-0.1,0.1l-3.6,3.5c-0.4,0.4-0.4,1,0,1.4
		C14.4,8.9,14.7,9,14.9,9c0.3,0,0.5-0.1,0.7-0.3l1.9-1.8V16c0,1.4-1.1,2.5-2.5,2.5s-2.5-1.1-2.5-2.5V8c0-2.5-2-4.5-4.5-4.5
		S3.5,5.5,3.5,8v9.1l-1.8-1.8c-0.4-0.4-1-0.4-1.4,0c-0.4,0.4-0.4,1,0,1.4l3.5,3.5c0,0,0,0,0,0l0,0c0,0,0,0,0,0
		c0.1,0.1,0.2,0.2,0.3,0.2c0.1,0.1,0.2,0.1,0.4,0.1c0.1,0,0.3,0,0.4-0.1c0.1,0,0.2-0.1,0.3-0.2c0,0,0,0,0,0l0,0c0,0,0,0,0,0l3.5-3.5
		c0.4-0.4,0.4-1,0-1.4c-0.4-0.4-1-0.4-1.4,0l-1.8,1.8V8c0-1.4,1.1-2.5,2.5-2.5c1.4,0,2.5,1.1,2.5,2.5v8c0,2.5,2,4.5,4.5,4.5
		c2.5,0,4.5-2,4.5-4.5V6.9l1.7,1.8c0.4,0.4,1,0.4,1.4,0C23.1,8.3,23.1,7.7,22.7,7.3z"/>
</g>
<g id="Outline_Icons">
	<g>
		<path class="st2" d="M4.5,19.5V8c0-1.9,1.6-3.5,3.5-3.5c1.9,0,3.5,1.6,3.5,3.5v8c0,1.9,1.6,3.5,3.5,3.5s3.5-1.6,3.5-3.5V4.5"/>
		<polyline class="st2" points="14.9,8 18.5,4.5 22,8 		"/>
		<polyline class="st2" points="8,16 4.5,19.5 1,16 		"/>
	</g>
</g>
</svg>
