<?xml version="1.0" encoding="utf-8"?>
<!-- Generator: Adobe Illustrator 19.2.0, SVG Export Plug-In . SVG Version: 6.00 Build 0)  -->
<svg version="1.1" id="Layer_1" xmlns="http://www.w3.org/2000/svg" xmlns:xlink="http://www.w3.org/1999/xlink" x="0px" y="0px"
	 viewBox="0 0 24 24" style="enable-background:new 0 0 24 24;" xml:space="preserve">
<style type="text/css">
	.st0{display:none;}
	.st1{display:inline;}
	.st2{fill:none;stroke:#000000;stroke-linecap:round;stroke-linejoin:round;stroke-miterlimit:10;}
</style>
<g id="Filled_Icons" class="st0">
	<path class="st1" d="M16,12.5H7c-1.4,0-2.5-1.1-2.5-2.5c0-1.4,1.1-2.5,2.5-2.5h10.1l-2.3,2.3c-0.4,0.4-0.4,1,0,1.4
		c0.2,0.2,0.5,0.3,0.7,0.3c0.3,0,0.5-0.1,0.7-0.3l4-4c0.1-0.1,0.2-0.2,0.2-0.3c0.1-0.2,0.1-0.5,0-0.8c-0.1-0.1-0.1-0.2-0.2-0.3l-4-4
		c-0.4-0.4-1-0.4-1.4,0c-0.4,0.4-0.4,1,0,1.4l2.3,2.3H7c-2.5,0-4.5,2-4.5,4.5s2,4.5,4.5,4.5h9c1.4,0,2.5,1.1,2.5,2.5
		c0,1.4-1.1,2.5-2.5,2.5H4.5c-0.6,0-1,0.4-1,1c0,0.6,0.4,1,1,1H16c2.5,0,4.5-2,4.5-4.5C20.5,14.5,18.5,12.5,16,12.5z"/>
</g>
<g id="Outline_Icons">
	<g>
		<path class="st2" d="M4.5,20.5H16c1.9,0,3.5-1.6,3.5-3.5c0-1.9-1.6-3.5-3.5-3.5H7c-1.9,0-3.5-1.6-3.5-3.5c0-1.9,1.6-3.5,3.5-3.5
			h12.5"/>
		<g>
			<polyline class="st2" points="15.5,2.5 19.5,6.5 15.5,10.5 			"/>
		</g>
	</g>
</g>
</svg>
