<?xml version="1.0" encoding="utf-8"?>
<!-- Generator: Adobe Illustrator 19.2.0, SVG Export Plug-In . SVG Version: 6.00 Build 0)  -->
<svg version="1.1" id="Layer_1" xmlns="http://www.w3.org/2000/svg" xmlns:xlink="http://www.w3.org/1999/xlink" x="0px" y="0px"
	 viewBox="0 0 24 24" style="enable-background:new 0 0 24 24;" xml:space="preserve">
<style type="text/css">
	.st0{display:none;}
	.st1{display:inline;}
	.st2{fill:none;stroke:#000000;stroke-linecap:round;stroke-linejoin:round;stroke-miterlimit:10;}
</style>
<g id="Filled_Icon" class="st0">
	<g class="st1">
		<path d="M23.1,9.7c-0.7-0.8-1.6-1.4-2.7-1.5C18.2,8,16.3,9.6,16,11.7l-1,9.7c0,0.1,0,0.3,0.1,0.4c0.1,0.1,0.2,0.2,0.4,0.2h7
			c0.3,0,0.5-0.2,0.5-0.4l1-8.9C24.1,11.5,23.8,10.5,23.1,9.7z M22,12.4l-0.2,1.5c0,0.1-0.1,0.3-0.2,0.3c-0.1,0.1-0.2,0.1-0.3,0.1
			c0,0-3-0.3-3-0.3c-0.3,0-0.5-0.3-0.4-0.6L18,12c0.1-1.1,1.1-1.9,2.2-1.8c0.5,0.1,1,0.3,1.3,0.7C21.9,11.3,22,11.9,22,12.4z"/>
		<path d="M8,11.7C7.7,9.6,5.8,8,3.6,8.2c-1.1,0.1-2,0.6-2.7,1.5c-0.7,0.8-1,1.9-0.9,2.9l1,8.9C1,21.8,1.3,22,1.5,22H9c0,0,0,0,0,0
			c0.3,0,0.5-0.2,0.5-0.5C9.5,21.5,9.5,21.5,8,11.7z M5.7,14c0,0-3,0.3-3,0.3c-0.1,0-0.2,0-0.3-0.1c-0.1-0.1-0.2-0.2-0.2-0.3L2,12.4
			c-0.1-0.5,0.1-1.1,0.4-1.5c0.3-0.4,0.8-0.7,1.3-0.7C4.9,10.1,5.9,10.9,6,12l0.2,1.5C6.2,13.7,6,14,5.7,14z"/>
		<path d="M13.9,3.8c3,0.5,5.7,1.7,6.8,3.2c0.2,0.2,0.5,0.3,0.7,0.1c0.2-0.2,0.3-0.5,0.1-0.7c-1.3-1.7-4.2-3.1-7.4-3.6L14.9,2
			c0.2-0.2,0.2-0.5,0-0.7c-0.2-0.2-0.5-0.2-0.7,0l-1.5,1.5c0,0,0,0,0,0c-0.2,0.2-0.2,0.4-0.1,0.6l1,2c0.1,0.2,0.4,0.4,0.7,0.2
			c0.2-0.1,0.3-0.4,0.2-0.7L13.9,3.8z"/>
		<path d="M9.9,1.3c-0.2-0.2-0.5-0.2-0.7,0C9,1.5,9,1.8,9.1,2l0.8,0.8C6.7,3.3,3.8,4.7,2.5,6.4C2.3,6.6,2.4,6.9,2.6,7.1
			C2.8,7.2,3.1,7.2,3.3,7c1.1-1.5,3.9-2.7,6.8-3.2L9.6,4.9c-0.1,0.2,0,0.5,0.2,0.7c0.3,0.1,0.6,0,0.7-0.2l1-2
			c0.1-0.2,0.1-0.4-0.1-0.6L9.9,1.3z"/>
	</g>
</g>
<g id="Outline_Icons">
	<g>
		<path class="st2" d="M22.5,22.3l1-8.9c0.2-1.9-1.2-3.6-3.1-3.9c-1.9-0.2-3.7,1.2-3.9,3.1l-1,8.9"/>
		<path class="st2" d="M18.5,12.8c0.1-0.8,0.8-1.4,1.7-1.3c0.8,0.1,1.4,0.8,1.3,1.7l-0.2,1.5l-3-0.3L18.5,12.8z"/>
		<path class="st2" d="M1.5,22.3l-1-8.9c-0.2-1.9,1.2-3.6,3.1-3.9c1.9-0.2,3.7,1.2,3.9,3.1l1,8.9"/>
		<path class="st2" d="M5.5,12.8c-0.1-0.8-0.8-1.4-1.7-1.3c-0.8,0.1-1.4,0.8-1.3,1.7l0.2,1.5l3-0.3L5.5,12.8z"/>
		<path class="st2" d="M13,4c3.4,0.3,6.7,1.7,8.1,3.5"/>
		<path class="st2" d="M2.9,7.5C4.3,5.7,7.6,4.3,11,4"/>
		<polyline class="st2" points="9.5,2.5 11,4 10,6 		"/>
		<polyline class="st2" points="14.5,2.5 13,4 14,6 		"/>
	</g>
</g>
</svg>
