<?xml version="1.0" encoding="utf-8"?>
<!-- Generator: Adobe Illustrator 19.2.0, SVG Export Plug-In . SVG Version: 6.00 Build 0)  -->
<svg version="1.1" id="Layer_1" xmlns="http://www.w3.org/2000/svg" xmlns:xlink="http://www.w3.org/1999/xlink" x="0px" y="0px"
	 viewBox="0 0 24 24" style="enable-background:new 0 0 24 24;" xml:space="preserve">
<style type="text/css">
	.st0{display:none;}
	.st1{display:inline;}
	.st2{fill:none;stroke:#000000;stroke-linejoin:round;stroke-miterlimit:10;}
	.st3{fill:none;stroke:#000000;stroke-linecap:round;stroke-linejoin:round;stroke-miterlimit:10;}
</style>
<g id="Filled_Icons" class="st0">
	<g class="st1">
		<path d="M8.5,17c2,0,3.8-0.7,5.3-1.8l8.5,8.5c0.4,0.4,1,0.4,1.4,0s0.4-1,0-1.4l-8.5-8.5c1.1-1.4,1.8-3.3,1.8-5.3
			C17,3.8,13.2,0,8.5,0S0,3.8,0,8.5S3.8,17,8.5,17z M5,8h3V5c0-0.3,0.2-0.5,0.5-0.5S9,4.7,9,5v3h3c0.3,0,0.5,0.2,0.5,0.5
			S12.3,9,12,9H9v3c0,0.3-0.2,0.5-0.5,0.5S8,12.3,8,12V9H5C4.7,9,4.5,8.8,4.5,8.5S4.7,8,5,8z"/>
	</g>
</g>
<g id="Outline_Icons">
	<g>
		<circle class="st2" cx="8.5" cy="8.5" r="8"/>
		<line class="st3" x1="14.2" y1="14.2" x2="23.5" y2="23.5"/>
		<line class="st3" x1="5" y1="8.5" x2="12" y2="8.5"/>
		<line class="st3" x1="8.5" y1="5" x2="8.5" y2="12"/>
	</g>
</g>
</svg>
