<?xml version="1.0" encoding="utf-8"?>
<!-- Generator: Adobe Illustrator 19.2.0, SVG Export Plug-In . SVG Version: 6.00 Build 0)  -->
<svg version="1.1" id="Layer_1" xmlns="http://www.w3.org/2000/svg" xmlns:xlink="http://www.w3.org/1999/xlink" x="0px" y="0px"
	 viewBox="0 0 24 24" style="enable-background:new 0 0 24 24;" xml:space="preserve">
<style type="text/css">
	.st0{display:none;}
	.st1{display:inline;}
	.st2{fill:none;stroke:#000000;stroke-linecap:round;stroke-linejoin:round;stroke-miterlimit:10;}
</style>
<g id="Filled_Icon" class="st0">
	<g class="st1">
		<path d="M17.4,8c-2.2-0.2-4.2,1.4-4.4,3.5l-0.9,8.5l-0.1,0l-1-8.5C10.7,9.4,8.8,7.8,6.6,8C4.4,8.3,2.8,10.3,3,12.4l1,9.1
			C4,21.8,4.2,22,4.5,22h15c0.3,0,0.5-0.2,0.5-0.4l1-9.1c0.1-1.1-0.2-2.1-0.9-2.9S18.5,8.1,17.4,8z M8.7,13.8l-3,0.3
			c-0.1,0-0.3,0-0.4-0.1c-0.1-0.1-0.2-0.2-0.2-0.3L5,12.2c-0.1-1.1,0.7-2.1,1.8-2.2c1.1-0.1,2.1,0.7,2.2,1.8l0.2,1.5
			C9.2,13.5,9,13.8,8.7,13.8z M19,12.2l-0.2,1.5c0,0.3-0.2,0.4-0.5,0.4c0,0-3-0.3-3-0.3c-0.1,0-0.3-0.1-0.3-0.2
			c-0.1-0.1-0.1-0.2-0.1-0.4l0.2-1.5c0.1-1.1,1.1-1.9,2.2-1.8C18.3,10.1,19.1,11.1,19,12.2z"/>
		<path d="M23.5,3.5C23.2,3.5,23,3.7,23,4v1.2c-1.6-1.5-4.1-2.5-7-2.7c-0.3,0-0.5,0.2-0.5,0.5c0,0.3,0.2,0.5,0.5,0.5
			c2.6,0.2,4.9,1.2,6.4,2.5H21c-0.3,0-0.5,0.2-0.5,0.5C20.5,6.8,20.7,7,21,7h2.5l0,0l0,0C23.8,7,24,6.8,24,6.5V4
			C24,3.7,23.8,3.5,23.5,3.5z"/>
		<path d="M3.5,6.5C3.5,6.2,3.3,6,3,6H1.6C3.1,4.6,5.4,3.7,8,3.5c0.3,0,0.5-0.3,0.5-0.5c0-0.3-0.3-0.5-0.5-0.5
			C5.1,2.8,2.6,3.8,1,5.2V4c0-0.3-0.2-0.5-0.5-0.5C0.2,3.5,0,3.7,0,4v2.5C0,6.8,0.2,7,0.5,7H3C3.3,7,3.5,6.8,3.5,6.5z"/>
	</g>
</g>
<g id="Outline_Icons">
	<g>
		<path class="st2" d="M8.5,12.8c-0.1-0.8-0.8-1.4-1.7-1.3c-0.8,0.1-1.4,0.8-1.3,1.7l0.2,1.5l3-0.3L8.5,12.8z"/>
		<path class="st2" d="M19.5,22.3l1-8.9c0.2-1.9-1.2-3.6-3.1-3.9c-1.9-0.2-3.7,1.2-3.9,3.1l-1,8.9l-1,0l-1-8.9
			c-0.2-1.9-2-3.3-3.9-3.1c-1.9,0.2-3.3,2-3.1,3.9l1,8.9"/>
		<path class="st2" d="M15.5,12.8c0.1-0.8,0.8-1.4,1.7-1.3c0.8,0.1,1.4,0.8,1.3,1.7l-0.2,1.5l-3-0.3L15.5,12.8z"/>
		<path class="st2" d="M16,4c3.4,0.3,6.1,1.7,7.5,3.5"/>
		<path class="st2" d="M0.5,7.5C1.9,5.7,4.6,4.3,8,4"/>
		<polyline class="st2" points="21,7.5 23.5,7.5 23.5,5 		"/>
		<polyline class="st2" points="3,7.5 0.5,7.5 0.5,5 		"/>
	</g>
</g>
</svg>
