<?xml version="1.0" encoding="utf-8"?>
<!-- Generator: Adobe Illustrator 19.2.0, SVG Export Plug-In . SVG Version: 6.00 Build 0)  -->
<svg version="1.1" id="Layer_1" xmlns="http://www.w3.org/2000/svg" xmlns:xlink="http://www.w3.org/1999/xlink" x="0px" y="0px"
	 viewBox="0 0 24 24" style="enable-background:new 0 0 24 24;" xml:space="preserve">
<style type="text/css">
	.st0{display:none;}
	.st1{display:inline;}
	.st2{fill:none;stroke:#000000;stroke-linejoin:round;stroke-miterlimit:10;}
	.st3{fill:none;stroke:#000000;stroke-linecap:round;stroke-linejoin:round;stroke-miterlimit:10;}
</style>
<g id="Filled_Icons" class="st0">
	<g class="st1">
		<path d="M1,8c0.6,0,1-0.4,1-1V5.5c0-0.6-0.4-1-1-1c-0.6,0-1,0.4-1,1V7C0,7.6,0.4,8,1,8z"/>
		<path d="M1,13c0.6,0,1-0.4,1-1v-1.5c0-0.6-0.4-1-1-1c-0.6,0-1,0.4-1,1V12C0,12.6,0.4,13,1,13z"/>
		<path d="M17.5,5.5c0-0.6-0.4-1-1-1c-0.6,0-1,0.4-1,1v2c0,0.6,0.4,1,1,1c0.6,0,1-0.4,1-1V5.5z"/>
		<path d="M16.5,9.5c-0.6,0-1,0.4-1,1v0.6c0.3-0.1,0.7-0.1,1-0.1c0.3,0,0.7,0,1,0.1v-0.6C17.5,9.9,17.1,9.5,16.5,9.5z"/>
		<path d="M2.5,15.5H2V15c0-0.6-0.4-1-1-1c-0.6,0-1,0.4-1,1v1.5c0,0.6,0.4,1,1,1h1.5c0.6,0,1-0.4,1-1C3.5,15.9,3.1,15.5,2.5,15.5z"
			/>
		<path d="M2.5,0H1C0.4,0,0,0.4,0,1v1.5c0,0.6,0.4,1,1,1c0.6,0,1-0.4,1-1V2h0.5c0.6,0,1-0.4,1-1C3.5,0.4,3.1,0,2.5,0z"/>
		<path d="M7,0H5.5c-0.6,0-1,0.4-1,1c0,0.6,0.4,1,1,1H7c0.6,0,1-0.4,1-1C8,0.4,7.6,0,7,0z"/>
		<path d="M7,15.5H5.5c-0.6,0-1,0.4-1,1c0,0.6,0.4,1,1,1H7c0.6,0,1-0.4,1-1C8,15.9,7.6,15.5,7,15.5z"/>
		<path d="M10.5,15.5c-0.6,0-1,0.4-1,1c0,0.6,0.4,1,1,1h0.6c-0.1-0.3-0.1-0.7-0.1-1c0-0.3,0-0.7,0.1-1H10.5z"/>
		<path d="M12.5,1c0-0.6-0.4-1-1-1h-1c-0.6,0-1,0.4-1,1c0,0.6,0.4,1,1,1h1C12.1,2,12.5,1.6,12.5,1z"/>
		<path d="M15,2h0.5v0.5c0,0.6,0.4,1,1,1c0.6,0,1-0.4,1-1V1c0-0.6-0.4-1-1-1H15c-0.6,0-1,0.4-1,1C14,1.6,14.4,2,15,2z"/>
		<path d="M23.7,22.3L21,19.6l-0.7-0.7c0.4-0.7,0.7-1.5,0.7-2.4c0-2.5-2-4.5-4.5-4.5C14,12,12,14,12,16.5c0,2.5,2,4.5,4.5,4.5
			c0.9,0,1.7-0.3,2.4-0.7l0.7,0.7l2.7,2.7c0.4,0.4,1,0.4,1.4,0C24.1,23.3,24.1,22.7,23.7,22.3z M17,18.5c0,0.3-0.2,0.5-0.5,0.5
			c-0.3,0-0.5-0.2-0.5-0.5V17h-1.5c-0.3,0-0.5-0.2-0.5-0.5c0-0.3,0.2-0.5,0.5-0.5H16v-1.5c0-0.3,0.2-0.5,0.5-0.5
			c0.3,0,0.5,0.2,0.5,0.5V16h1.5c0.3,0,0.5,0.2,0.5,0.5c0,0.3-0.2,0.5-0.5,0.5H17V18.5z"/>
	</g>
</g>
<g id="Outline_Icons">
	<g>
		<circle class="st2" cx="16.5" cy="16.5" r="4"/>
		<line class="st3" x1="19.3" y1="19.3" x2="23.5" y2="23.5"/>
		<line class="st3" x1="14.5" y1="16.5" x2="18.5" y2="16.5"/>
		<line class="st3" x1="16.5" y1="14.5" x2="16.5" y2="18.5"/>
		<line class="st3" x1="0.5" y1="3.5" x2="0.5" y2="5.5"/>
		<line class="st3" x1="0.5" y1="7.5" x2="0.5" y2="9.5"/>
		<line class="st3" x1="0.5" y1="11.5" x2="0.5" y2="13.5"/>
		<line class="st3" x1="16.5" y1="3.5" x2="16.5" y2="5.5"/>
		<line class="st3" x1="16.5" y1="7.5" x2="16.5" y2="9.5"/>
		<polyline class="st3" points="0.5,15.5 0.5,16.5 1.5,16.5 		"/>
		<polyline class="st3" points="1.5,0.5 0.5,0.5 0.5,1.5 		"/>
		<line class="st3" x1="3.5" y1="0.5" x2="5.5" y2="0.5"/>
		<line class="st3" x1="7.5" y1="0.5" x2="9.5" y2="0.5"/>
		<line class="st3" x1="3.5" y1="16.5" x2="5.5" y2="16.5"/>
		<line class="st3" x1="7.5" y1="16.5" x2="9.5" y2="16.5"/>
		<line class="st3" x1="11.5" y1="0.5" x2="13.5" y2="0.5"/>
		<polyline class="st3" points="15.5,0.5 16.5,0.5 16.5,1.5 		"/>
	</g>
	<g>
		<circle class="st2" cx="16.5" cy="16.5" r="4"/>
		<line class="st3" x1="19.3" y1="19.3" x2="23.5" y2="23.5"/>
		<line class="st3" x1="14.5" y1="16.5" x2="18.5" y2="16.5"/>
		<line class="st3" x1="16.5" y1="14.5" x2="16.5" y2="18.5"/>
		<line class="st3" x1="0.5" y1="3.5" x2="0.5" y2="5.5"/>
		<line class="st3" x1="0.5" y1="7.5" x2="0.5" y2="9.5"/>
		<line class="st3" x1="0.5" y1="11.5" x2="0.5" y2="13.5"/>
		<line class="st3" x1="16.5" y1="3.5" x2="16.5" y2="5.5"/>
		<line class="st3" x1="16.5" y1="7.5" x2="16.5" y2="9.5"/>
		<polyline class="st3" points="0.5,15.5 0.5,16.5 1.5,16.5 		"/>
		<polyline class="st3" points="1.5,0.5 0.5,0.5 0.5,1.5 		"/>
		<line class="st3" x1="3.5" y1="0.5" x2="5.5" y2="0.5"/>
		<line class="st3" x1="7.5" y1="0.5" x2="9.5" y2="0.5"/>
		<line class="st3" x1="3.5" y1="16.5" x2="5.5" y2="16.5"/>
		<line class="st3" x1="7.5" y1="16.5" x2="9.5" y2="16.5"/>
		<line class="st3" x1="11.5" y1="0.5" x2="13.5" y2="0.5"/>
		<polyline class="st3" points="15.5,0.5 16.5,0.5 16.5,1.5 		"/>
	</g>
</g>
</svg>
