<?xml version="1.0" encoding="utf-8"?>
<!-- Generator: Adobe Illustrator 19.2.0, SVG Export Plug-In . SVG Version: 6.00 Build 0)  -->
<svg version="1.1" id="Layer_1" xmlns="http://www.w3.org/2000/svg" xmlns:xlink="http://www.w3.org/1999/xlink" x="0px" y="0px"
	 viewBox="0 0 24 24" style="enable-background:new 0 0 24 24;" xml:space="preserve">
<style type="text/css">
	.st0{display:none;}
	.st1{display:inline;}
	.st2{fill:none;stroke:#000000;stroke-linejoin:round;stroke-miterlimit:10;}
	.st3{fill:none;stroke:#000000;stroke-linecap:round;stroke-linejoin:round;stroke-miterlimit:10;}
</style>
<g id="Filled_Icons" class="st0">
	<g class="st1">
		<path d="M23.7,22.3l-3.4-3.4c0.4-0.7,0.7-1.5,0.7-2.4c0-2.5-2-4.5-4.5-4.5C14,12,12,14,12,16.5c0,2.5,2,4.5,4.5,4.5
			c0.9,0,1.7-0.3,2.4-0.7l3.4,3.4c0.4,0.4,1,0.4,1.4,0C24.1,23.3,24.1,22.7,23.7,22.3z M18.5,17h-4c-0.3,0-0.5-0.2-0.5-0.5
			c0-0.3,0.2-0.5,0.5-0.5h4c0.3,0,0.5,0.2,0.5,0.5C19,16.8,18.8,17,18.5,17z"/>
		<g>
			<path d="M1,8C0.4,8,0,7.6,0,7V5c0-0.6,0.4-1,1-1c0.6,0,1,0.4,1,1v2C2,7.6,1.6,8,1,8z"/>
		</g>
		<g>
			<path d="M1,13.5c-0.6,0-1-0.4-1-1v-2c0-0.6,0.4-1,1-1c0.6,0,1,0.4,1,1v2C2,13.1,1.6,13.5,1,13.5z"/>
		</g>
		<g>
			<path d="M16.5,8c-0.6,0-1-0.4-1-1V5c0-0.6,0.4-1,1-1c0.6,0,1,0.4,1,1v2C17.5,7.6,17.1,8,16.5,8z"/>
		</g>
		<g>
			<path d="M16.5,11c-0.6,0-1,0.2-1,0v-1c0-0.6,0.4-1,1-1c0.6,0,1,0.4,1,1v1C17.5,11.2,17.1,11,16.5,11z"/>
		</g>
		<g>
			<path d="M2,17.5H1c-0.6,0-1-0.4-1-1v-1c0-0.6,0.4-1,1-1c0.6,0,1,0.4,1,1c0.6,0,1,0.4,1,1C3,17.1,2.6,17.5,2,17.5z"/>
		</g>
		<g>
			<path d="M1,3C0.4,3,0,2.6,0,2V1c0-0.6,0.4-1,1-1h1c0.6,0,1,0.4,1,1c0,0.6-0.4,1-1,1C2,2.6,1.6,3,1,3z"/>
		</g>
		<g>
			<path d="M7,2H5C4.4,2,4,1.6,4,1c0-0.6,0.4-1,1-1h2c0.6,0,1,0.4,1,1C8,1.6,7.6,2,7,2z"/>
		</g>
		<g>
			<path d="M7,17.5H5c-0.6,0-1-0.4-1-1c0-0.6,0.4-1,1-1h2c0.6,0,1,0.4,1,1C8,17.1,7.6,17.5,7,17.5z"/>
		</g>
		<g>
			<path d="M10,17.5c-0.6,0-1-0.4-1-1c0-0.6,0.4-1,1-1h1l0,0c0.3,0,0,0.4,0,1c0,0.6,0.2,1,0,1H10C10,17.5,10,17.5,10,17.5z"/>
		</g>
		<g>
			<path d="M12.5,2h-2c-0.6,0-1-0.4-1-1c0-0.6,0.4-1,1-1h2c0.6,0,1,0.4,1,1C13.5,1.6,13.1,2,12.5,2z"/>
		</g>
		<g>
			<path d="M16.5,3c-0.6,0-1-0.4-1-1c-0.6,0-1-0.4-1-1c0-0.6,0.4-1,1-1h1c0.6,0,1,0.4,1,1v1C17.5,2.6,17.1,3,16.5,3z"/>
		</g>
	</g>
</g>
<g id="Outline_Icons">
	<g>
		<circle class="st2" cx="16.5" cy="16.5" r="4"/>
		<line class="st3" x1="19.3" y1="19.3" x2="23.5" y2="23.5"/>
		<line class="st3" x1="14.5" y1="16.5" x2="18.5" y2="16.5"/>
		<line class="st3" x1="0.5" y1="3.5" x2="0.5" y2="5.5"/>
		<line class="st3" x1="0.5" y1="7.5" x2="0.5" y2="9.5"/>
		<line class="st3" x1="0.5" y1="11.5" x2="0.5" y2="13.5"/>
		<line class="st3" x1="16.5" y1="3.5" x2="16.5" y2="5.5"/>
		<line class="st3" x1="16.5" y1="7.5" x2="16.5" y2="9.5"/>
		<polyline class="st3" points="0.5,15.5 0.5,16.5 1.5,16.5 		"/>
		<polyline class="st3" points="1.5,0.5 0.5,0.5 0.5,1.5 		"/>
		<line class="st3" x1="3.5" y1="0.5" x2="5.5" y2="0.5"/>
		<line class="st3" x1="7.5" y1="0.5" x2="9.5" y2="0.5"/>
		<line class="st3" x1="3.5" y1="16.5" x2="5.5" y2="16.5"/>
		<line class="st3" x1="7.5" y1="16.5" x2="9.5" y2="16.5"/>
		<line class="st3" x1="11.5" y1="0.5" x2="13.5" y2="0.5"/>
		<polyline class="st3" points="15.5,0.5 16.5,0.5 16.5,1.5 		"/>
	</g>
</g>
</svg>
